<?xml version="1.0" encoding="UTF-8" standalone="no"?>
<!DOCTYPE svg PUBLIC "-//W3C//DTD SVG 1.1//EN"
 "http://www.w3.org/Graphics/SVG/1.1/DTD/svg11.dtd">
<!-- Generated by graphviz version 2.43.0 (0)
 -->
<!-- Title: /home/runner/work/cbmc/cbmc/src/analyses/variable&#45;sensitivity/abstract_pointer_object.h Pages: 1 -->
<svg width="714pt" height="236pt"
 viewBox="0.00 0.00 714.00 236.00" xmlns="http://www.w3.org/2000/svg" xmlns:xlink="http://www.w3.org/1999/xlink">
<g id="graph0" class="graph" transform="scale(1 1) rotate(0) translate(4 232)">
<title>/home/runner/work/cbmc/cbmc/src/analyses/variable&#45;sensitivity/abstract_pointer_object.h</title>
<!-- Node1 -->
<g id="Node000001" class="node">
<title>Node1</title>
<g id="a_Node000001"><a xlink:title="The base of all pointer abstractions.">
<polygon fill="#999999" stroke="#666666" points="420,-228 266,-228 266,-176 420,-176 420,-228"/>
<text text-anchor="start" x="274" y="-216" font-family="Helvetica,sans-Serif" font-size="10.00">/home/runner/work/cbmc</text>
<text text-anchor="start" x="274" y="-205" font-family="Helvetica,sans-Serif" font-size="10.00">/cbmc/src/analyses/variable</text>
<text text-anchor="start" x="274" y="-194" font-family="Helvetica,sans-Serif" font-size="10.00">&#45;sensitivity/abstract_pointer</text>
<text text-anchor="middle" x="343" y="-183" font-family="Helvetica,sans-Serif" font-size="10.00">_object.h</text>
</a>
</g>
</g>
<!-- Node2 -->
<g id="Node000002" class="node">
<title>Node2</title>
<g id="a_Node000002"><a xlink:href="abstract__pointer__object_8cpp.html" target="_top" xlink:title=" ">
<polygon fill="white" stroke="#666666" points="159,-140 5,-140 5,-88 159,-88 159,-140"/>
<text text-anchor="start" x="13" y="-128" font-family="Helvetica,sans-Serif" font-size="10.00">/home/runner/work/cbmc</text>
<text text-anchor="start" x="13" y="-117" font-family="Helvetica,sans-Serif" font-size="10.00">/cbmc/src/analyses/variable</text>
<text text-anchor="start" x="13" y="-106" font-family="Helvetica,sans-Serif" font-size="10.00">&#45;sensitivity/abstract_pointer</text>
<text text-anchor="middle" x="82" y="-95" font-family="Helvetica,sans-Serif" font-size="10.00">_object.cpp</text>
</a>
</g>
</g>
<!-- Node1&#45;&gt;Node2 -->
<g id="edge1_Node000001_Node000002" class="edge">
<title>Node1&#45;&gt;Node2</title>
<g id="a_edge1_Node000001_Node000002"><a xlink:title=" ">
<path fill="none" stroke="#63b8ff" d="M257.05,-172.68C225.17,-162.17 189.25,-150.34 158.29,-140.14"/>
<polygon fill="#63b8ff" stroke="#63b8ff" points="256.21,-176.09 266.81,-175.89 258.4,-169.44 256.21,-176.09"/>
</a>
</g>
</g>
<!-- Node3 -->
<g id="Node000003" class="node">
<title>Node3</title>
<g id="a_Node000003"><a xlink:href="constant__pointer__abstract__object_8h.html" target="_top" xlink:title="An abstraction of a pointer that tracks a single pointer.">
<polygon fill="white" stroke="#666666" points="333,-140 177,-140 177,-88 333,-88 333,-140"/>
<text text-anchor="start" x="185" y="-128" font-family="Helvetica,sans-Serif" font-size="10.00">/home/runner/work/cbmc</text>
<text text-anchor="start" x="185" y="-117" font-family="Helvetica,sans-Serif" font-size="10.00">/cbmc/src/analyses/variable</text>
<text text-anchor="start" x="185" y="-106" font-family="Helvetica,sans-Serif" font-size="10.00">&#45;sensitivity/constant_pointer</text>
<text text-anchor="middle" x="255" y="-95" font-family="Helvetica,sans-Serif" font-size="10.00">_abstract_object.h</text>
</a>
</g>
</g>
<!-- Node1&#45;&gt;Node3 -->
<g id="edge2_Node000001_Node000003" class="edge">
<title>Node1&#45;&gt;Node3</title>
<g id="a_edge2_Node000001_Node000003"><a xlink:title=" ">
<path fill="none" stroke="#63b8ff" d="M309.88,-168.63C300.24,-159.21 289.86,-149.06 280.74,-140.16"/>
<polygon fill="#63b8ff" stroke="#63b8ff" points="307.47,-171.18 317.07,-175.66 312.37,-166.17 307.47,-171.18"/>
</a>
</g>
</g>
<!-- Node7 -->
<g id="Node000007" class="node">
<title>Node7</title>
<g id="a_Node000007"><a xlink:href="two__value__pointer__abstract__object_8h.html" target="_top" xlink:title=" ">
<polygon fill="white" stroke="#666666" points="695,-140 531,-140 531,-88 695,-88 695,-140"/>
<text text-anchor="start" x="539" y="-128" font-family="Helvetica,sans-Serif" font-size="10.00">/home/runner/work/cbmc</text>
<text text-anchor="start" x="539" y="-117" font-family="Helvetica,sans-Serif" font-size="10.00">/cbmc/src/analyses/variable</text>
<text text-anchor="start" x="539" y="-106" font-family="Helvetica,sans-Serif" font-size="10.00">&#45;sensitivity/two_value_pointer</text>
<text text-anchor="middle" x="613" y="-95" font-family="Helvetica,sans-Serif" font-size="10.00">_abstract_object.h</text>
</a>
</g>
</g>
<!-- Node1&#45;&gt;Node7 -->
<g id="edge6_Node000001_Node000007" class="edge">
<title>Node1&#45;&gt;Node7</title>
<g id="a_edge6_Node000001_Node000007"><a xlink:title=" ">
<path fill="none" stroke="#63b8ff" d="M429.83,-173.34C463.46,-162.63 501.68,-150.46 534.48,-140.01"/>
<polygon fill="#63b8ff" stroke="#63b8ff" points="428.48,-170.1 420.01,-176.47 430.6,-176.77 428.48,-170.1"/>
</a>
</g>
</g>
<!-- Node9 -->
<g id="Node000009" class="node">
<title>Node9</title>
<g id="a_Node000009"><a xlink:href="value__set__pointer__abstract__object_8h.html" target="_top" xlink:title="Value Set of Pointer Abstract Object.">
<polygon fill="white" stroke="#666666" points="512.5,-140 351.5,-140 351.5,-88 512.5,-88 512.5,-140"/>
<text text-anchor="start" x="359.5" y="-128" font-family="Helvetica,sans-Serif" font-size="10.00">/home/runner/work/cbmc</text>
<text text-anchor="start" x="359.5" y="-117" font-family="Helvetica,sans-Serif" font-size="10.00">/cbmc/src/analyses/variable</text>
<text text-anchor="start" x="359.5" y="-106" font-family="Helvetica,sans-Serif" font-size="10.00">&#45;sensitivity/value_set_pointer</text>
<text text-anchor="middle" x="432" y="-95" font-family="Helvetica,sans-Serif" font-size="10.00">_abstract_object.h</text>
</a>
</g>
</g>
<!-- Node1&#45;&gt;Node9 -->
<g id="edge9_Node000001_Node000009" class="edge">
<title>Node1&#45;&gt;Node9</title>
<g id="a_edge9_Node000001_Node000009"><a xlink:title=" ">
<path fill="none" stroke="#63b8ff" d="M376.5,-168.63C386.25,-159.21 396.75,-149.06 405.97,-140.16"/>
<polygon fill="#63b8ff" stroke="#63b8ff" points="373.98,-166.2 369.22,-175.66 378.84,-171.23 373.98,-166.2"/>
</a>
</g>
</g>
<!-- Node4 -->
<g id="Node000004" class="node">
<title>Node4</title>
<g id="a_Node000004"><a xlink:href="constant__pointer__abstract__object_8cpp.html" target="_top" xlink:title=" ">
<polygon fill="white" stroke="#666666" points="156,-52 0,-52 0,0 156,0 156,-52"/>
<text text-anchor="start" x="8" y="-40" font-family="Helvetica,sans-Serif" font-size="10.00">/home/runner/work/cbmc</text>
<text text-anchor="start" x="8" y="-29" font-family="Helvetica,sans-Serif" font-size="10.00">/cbmc/src/analyses/variable</text>
<text text-anchor="start" x="8" y="-18" font-family="Helvetica,sans-Serif" font-size="10.00">&#45;sensitivity/constant_pointer</text>
<text text-anchor="middle" x="78" y="-7" font-family="Helvetica,sans-Serif" font-size="10.00">_abstract_object.cpp</text>
</a>
</g>
</g>
<!-- Node3&#45;&gt;Node4 -->
<g id="edge3_Node000003_Node000004" class="edge">
<title>Node3&#45;&gt;Node4</title>
<g id="a_edge3_Node000003_Node000004"><a xlink:title=" ">
<path fill="none" stroke="#63b8ff" d="M194.18,-83.45C173.21,-73.26 149.92,-61.94 129.74,-52.14"/>
<polygon fill="#63b8ff" stroke="#63b8ff" points="192.8,-86.67 203.33,-87.89 195.86,-80.38 192.8,-86.67"/>
</a>
</g>
</g>
<!-- Node5 -->
<g id="Node000005" class="node">
<title>Node5</title>
<g id="a_Node000005"><a xlink:href="value__set__pointer__abstract__object_8cpp.html" target="_top" xlink:title="Value Set of Pointer Abstract Object.">
<polygon fill="white" stroke="#666666" points="335.5,-52 174.5,-52 174.5,0 335.5,0 335.5,-52"/>
<text text-anchor="start" x="182.5" y="-40" font-family="Helvetica,sans-Serif" font-size="10.00">/home/runner/work/cbmc</text>
<text text-anchor="start" x="182.5" y="-29" font-family="Helvetica,sans-Serif" font-size="10.00">/cbmc/src/analyses/variable</text>
<text text-anchor="start" x="182.5" y="-18" font-family="Helvetica,sans-Serif" font-size="10.00">&#45;sensitivity/value_set_pointer</text>
<text text-anchor="middle" x="255" y="-7" font-family="Helvetica,sans-Serif" font-size="10.00">_abstract_object.cpp</text>
</a>
</g>
</g>
<!-- Node3&#45;&gt;Node5 -->
<g id="edge4_Node000003_Node000005" class="edge">
<title>Node3&#45;&gt;Node5</title>
<g id="a_edge4_Node000003_Node000005"><a xlink:title=" ">
<path fill="none" stroke="#63b8ff" d="M255,-77.56C255,-69.04 255,-60.1 255,-52.16"/>
<polygon fill="#63b8ff" stroke="#63b8ff" points="251.5,-77.66 255,-87.66 258.5,-77.66 251.5,-77.66"/>
</a>
</g>
</g>
<!-- Node6 -->
<g id="Node000006" class="node">
<title>Node6</title>
<g id="a_Node000006"><a xlink:href="variable__sensitivity__object__factory_8cpp.html" target="_top" xlink:title=" ">
<polygon fill="white" stroke="#666666" points="524,-52 354,-52 354,0 524,0 524,-52"/>
<text text-anchor="start" x="362" y="-40" font-family="Helvetica,sans-Serif" font-size="10.00">/home/runner/work/cbmc</text>
<text text-anchor="start" x="362" y="-29" font-family="Helvetica,sans-Serif" font-size="10.00">/cbmc/src/analyses/variable</text>
<text text-anchor="start" x="362" y="-18" font-family="Helvetica,sans-Serif" font-size="10.00">&#45;sensitivity/variable_sensitivity</text>
<text text-anchor="middle" x="439" y="-7" font-family="Helvetica,sans-Serif" font-size="10.00">_object_factory.cpp</text>
</a>
</g>
</g>
<!-- Node3&#45;&gt;Node6 -->
<g id="edge5_Node000003_Node000006" class="edge">
<title>Node3&#45;&gt;Node6</title>
<g id="a_edge5_Node000003_Node000006"><a xlink:title=" ">
<path fill="none" stroke="#63b8ff" d="M317.93,-83.59C339.81,-73.36 364.14,-61.99 385.22,-52.14"/>
<polygon fill="#63b8ff" stroke="#63b8ff" points="316.29,-80.49 308.72,-87.89 319.26,-86.83 316.29,-80.49"/>
</a>
</g>
</g>
<!-- Node7&#45;&gt;Node6 -->
<g id="edge8_Node000007_Node000006" class="edge">
<title>Node7&#45;&gt;Node6</title>
<g id="a_edge8_Node000007_Node000006"><a xlink:title=" ">
<path fill="none" stroke="#63b8ff" d="M553.22,-83.45C532.59,-73.26 509.7,-61.94 489.86,-52.14"/>
<polygon fill="#63b8ff" stroke="#63b8ff" points="551.69,-86.6 562.2,-87.89 554.79,-80.33 551.69,-86.6"/>
</a>
</g>
</g>
<!-- Node8 -->
<g id="Node000008" class="node">
<title>Node8</title>
<g id="a_Node000008"><a xlink:href="two__value__pointer__abstract__object_8cpp.html" target="_top" xlink:title=" ">
<polygon fill="white" stroke="#666666" points="706,-52 542,-52 542,0 706,0 706,-52"/>
<text text-anchor="start" x="550" y="-40" font-family="Helvetica,sans-Serif" font-size="10.00">/home/runner/work/cbmc</text>
<text text-anchor="start" x="550" y="-29" font-family="Helvetica,sans-Serif" font-size="10.00">/cbmc/src/analyses/variable</text>
<text text-anchor="start" x="550" y="-18" font-family="Helvetica,sans-Serif" font-size="10.00">&#45;sensitivity/two_value_pointer</text>
<text text-anchor="middle" x="624" y="-7" font-family="Helvetica,sans-Serif" font-size="10.00">_abstract_object.cpp</text>
</a>
</g>
</g>
<!-- Node7&#45;&gt;Node8 -->
<g id="edge7_Node000007_Node000008" class="edge">
<title>Node7&#45;&gt;Node8</title>
<g id="a_edge7_Node000007_Node000008"><a xlink:title=" ">
<path fill="none" stroke="#63b8ff" d="M617.53,-77.56C618.62,-69.04 619.77,-60.1 620.78,-52.16"/>
<polygon fill="#63b8ff" stroke="#63b8ff" points="614.04,-77.3 616.24,-87.66 620.98,-78.19 614.04,-77.3"/>
</a>
</g>
</g>
<!-- Node9&#45;&gt;Node5 -->
<g id="edge10_Node000009_Node000005" class="edge">
<title>Node9&#45;&gt;Node5</title>
<g id="a_edge10_Node000009_Node000005"><a xlink:title=" ">
<path fill="none" stroke="#63b8ff" d="M371.18,-83.45C350.21,-73.26 326.92,-61.94 306.74,-52.14"/>
<polygon fill="#63b8ff" stroke="#63b8ff" points="369.8,-86.67 380.33,-87.89 372.86,-80.38 369.8,-86.67"/>
</a>
</g>
</g>
<!-- Node9&#45;&gt;Node6 -->
<g id="edge11_Node000009_Node000006" class="edge">
<title>Node9&#45;&gt;Node6</title>
<g id="a_edge11_Node000009_Node000006"><a xlink:title=" ">
<path fill="none" stroke="#63b8ff" d="M434.88,-77.56C435.58,-69.04 436.31,-60.1 436.95,-52.16"/>
<polygon fill="#63b8ff" stroke="#63b8ff" points="431.39,-77.41 434.06,-87.66 438.36,-77.98 431.39,-77.41"/>
</a>
</g>
</g>
</g>
</svg>
