<?xml version="1.0" encoding="UTF-8" standalone="no"?>
<!DOCTYPE svg PUBLIC "-//W3C//DTD SVG 1.1//EN"
 "http://www.w3.org/Graphics/SVG/1.1/DTD/svg11.dtd">
<!-- Generated by graphviz version 2.43.0 (0)
 -->
<!-- Title: /home/runner/work/cbmc/cbmc/src/goto&#45;programs/adjust_float_expressions.h Pages: 1 -->
<svg width="2577pt" height="137pt"
 viewBox="0.00 0.00 2576.50 137.00" xmlns="http://www.w3.org/2000/svg" xmlns:xlink="http://www.w3.org/1999/xlink">
<g id="graph0" class="graph" transform="scale(1 1) rotate(0) translate(4 133)">
<title>/home/runner/work/cbmc/cbmc/src/goto&#45;programs/adjust_float_expressions.h</title>
<!-- Node1 -->
<g id="Node000001" class="node">
<title>Node1</title>
<g id="a_Node000001"><a xlink:title="Symbolic Execution.">
<polygon fill="#999999" stroke="#666666" points="1378.5,-129 1229.5,-129 1229.5,-88 1378.5,-88 1378.5,-129"/>
<text text-anchor="start" x="1237.5" y="-117" font-family="Helvetica,sans-Serif" font-size="10.00">/home/runner/work/cbmc</text>
<text text-anchor="start" x="1237.5" y="-106" font-family="Helvetica,sans-Serif" font-size="10.00">/cbmc/src/goto&#45;programs</text>
<text text-anchor="middle" x="1304" y="-95" font-family="Helvetica,sans-Serif" font-size="10.00">/adjust_float_expressions.h</text>
</a>
</g>
</g>
<!-- Node2 -->
<g id="Node000002" class="node">
<title>Node2</title>
<g id="a_Node000002"><a xlink:href="java__bytecode__internal__additions_8cpp.html" target="_top" xlink:title=" ">
<polygon fill="white" stroke="#666666" points="204,-46.5 0,-46.5 0,-5.5 204,-5.5 204,-46.5"/>
<text text-anchor="start" x="8" y="-34.5" font-family="Helvetica,sans-Serif" font-size="10.00">/home/runner/work/cbmc</text>
<text text-anchor="start" x="8" y="-23.5" font-family="Helvetica,sans-Serif" font-size="10.00">/cbmc/jbmc/src/java_bytecode</text>
<text text-anchor="middle" x="102" y="-12.5" font-family="Helvetica,sans-Serif" font-size="10.00">/java_bytecode_internal_additions.cpp</text>
</a>
</g>
</g>
<!-- Node1&#45;&gt;Node2 -->
<g id="edge1_Node000001_Node000002" class="edge">
<title>Node1&#45;&gt;Node2</title>
<g id="a_edge1_Node000001_Node000002"><a xlink:title=" ">
<path fill="none" stroke="#63b8ff" d="M1219.02,-108.09C1034.81,-108.31 585.28,-103.01 213,-52 202.63,-50.58 191.79,-48.67 181.13,-46.55"/>
<polygon fill="#63b8ff" stroke="#63b8ff" points="1219.19,-111.59 1229.18,-108.08 1219.18,-104.59 1219.19,-111.59"/>
</a>
</g>
</g>
<!-- Node3 -->
<g id="Node000003" class="node">
<title>Node3</title>
<g id="a_Node000003"><a xlink:href="java__entry__point_8cpp.html" target="_top" xlink:title=" ">
<polygon fill="white" stroke="#666666" points="386,-46.5 222,-46.5 222,-5.5 386,-5.5 386,-46.5"/>
<text text-anchor="start" x="230" y="-34.5" font-family="Helvetica,sans-Serif" font-size="10.00">/home/runner/work/cbmc</text>
<text text-anchor="start" x="230" y="-23.5" font-family="Helvetica,sans-Serif" font-size="10.00">/cbmc/jbmc/src/java_bytecode</text>
<text text-anchor="middle" x="304" y="-12.5" font-family="Helvetica,sans-Serif" font-size="10.00">/java_entry_point.cpp</text>
</a>
</g>
</g>
<!-- Node1&#45;&gt;Node3 -->
<g id="edge2_Node000001_Node000003" class="edge">
<title>Node1&#45;&gt;Node3</title>
<g id="a_edge2_Node000001_Node000003"><a xlink:title=" ">
<path fill="none" stroke="#63b8ff" d="M1219.13,-108.15C1057.55,-108.11 695.09,-101.83 395,-52 386.43,-50.58 377.51,-48.67 368.75,-46.55"/>
<polygon fill="#63b8ff" stroke="#63b8ff" points="1219.48,-111.65 1229.48,-108.15 1219.48,-104.65 1219.48,-111.65"/>
</a>
</g>
</g>
<!-- Node4 -->
<g id="Node000004" class="node">
<title>Node4</title>
<g id="a_Node000004"><a xlink:href="jbmc__parse__options_8cpp.html" target="_top" xlink:title="JBMC Command Line Option Processing.">
<polygon fill="white" stroke="#666666" points="548,-46.5 404,-46.5 404,-5.5 548,-5.5 548,-46.5"/>
<text text-anchor="start" x="412" y="-34.5" font-family="Helvetica,sans-Serif" font-size="10.00">/home/runner/work/cbmc</text>
<text text-anchor="start" x="412" y="-23.5" font-family="Helvetica,sans-Serif" font-size="10.00">/cbmc/jbmc/src/jbmc/jbmc</text>
<text text-anchor="middle" x="476" y="-12.5" font-family="Helvetica,sans-Serif" font-size="10.00">_parse_options.cpp</text>
</a>
</g>
</g>
<!-- Node1&#45;&gt;Node4 -->
<g id="edge3_Node000001_Node000004" class="edge">
<title>Node1&#45;&gt;Node4</title>
<g id="a_edge3_Node000001_Node000004"><a xlink:title=" ">
<path fill="none" stroke="#63b8ff" d="M1219.14,-107.38C1079.72,-105.81 794.02,-96.79 557,-52 549.48,-50.58 541.67,-48.7 534.01,-46.62"/>
<polygon fill="#63b8ff" stroke="#63b8ff" points="1219.29,-110.88 1229.33,-107.49 1219.36,-103.88 1219.29,-110.88"/>
</a>
</g>
</g>
<!-- Node5 -->
<g id="Node000005" class="node">
<title>Node5</title>
<g id="a_Node000005"><a xlink:href="jdiff__parse__options_8cpp.html" target="_top" xlink:title="JDIFF Command Line Option Processing.">
<polygon fill="white" stroke="#666666" points="704,-46.5 566,-46.5 566,-5.5 704,-5.5 704,-46.5"/>
<text text-anchor="start" x="574" y="-34.5" font-family="Helvetica,sans-Serif" font-size="10.00">/home/runner/work/cbmc</text>
<text text-anchor="start" x="574" y="-23.5" font-family="Helvetica,sans-Serif" font-size="10.00">/cbmc/jbmc/src/jdiff/jdiff</text>
<text text-anchor="middle" x="635" y="-12.5" font-family="Helvetica,sans-Serif" font-size="10.00">_parse_options.cpp</text>
</a>
</g>
</g>
<!-- Node1&#45;&gt;Node5 -->
<g id="edge4_Node000001_Node000005" class="edge">
<title>Node1&#45;&gt;Node5</title>
<g id="a_edge4_Node000001_Node000005"><a xlink:title=" ">
<path fill="none" stroke="#63b8ff" d="M1218.87,-105.28C1103.25,-100.96 890.63,-88.36 713,-52 705.9,-50.55 698.53,-48.68 691.28,-46.62"/>
<polygon fill="#63b8ff" stroke="#63b8ff" points="1218.95,-108.78 1229.07,-105.65 1219.2,-101.79 1218.95,-108.78"/>
</a>
</g>
</g>
<!-- Node6 -->
<g id="Node000006" class="node">
<title>Node6</title>
<g id="a_Node000006"><a xlink:href="constant__propagator_8cpp.html" target="_top" xlink:title="Constant Propagation.">
<polygon fill="white" stroke="#666666" points="877.5,-46.5 722.5,-46.5 722.5,-5.5 877.5,-5.5 877.5,-46.5"/>
<text text-anchor="start" x="730.5" y="-34.5" font-family="Helvetica,sans-Serif" font-size="10.00">/home/runner/work/cbmc</text>
<text text-anchor="start" x="730.5" y="-23.5" font-family="Helvetica,sans-Serif" font-size="10.00">/cbmc/src/analyses/constant</text>
<text text-anchor="middle" x="800" y="-12.5" font-family="Helvetica,sans-Serif" font-size="10.00">_propagator.cpp</text>
</a>
</g>
</g>
<!-- Node1&#45;&gt;Node6 -->
<g id="edge5_Node000001_Node000006" class="edge">
<title>Node1&#45;&gt;Node6</title>
<g id="a_edge5_Node000001_Node000006"><a xlink:title=" ">
<path fill="none" stroke="#63b8ff" d="M1219.16,-99.91C1134.46,-91.47 1000.86,-75.8 887,-52 879.46,-50.42 871.62,-48.54 863.87,-46.51"/>
<polygon fill="#63b8ff" stroke="#63b8ff" points="1218.95,-103.41 1229.24,-100.91 1219.63,-96.44 1218.95,-103.41"/>
</a>
</g>
</g>
<!-- Node7 -->
<g id="Node000007" class="node">
<title>Node7</title>
<g id="a_Node000007"><a xlink:href="abstract__value__object_8cpp.html" target="_top" xlink:title=" ">
<polygon fill="white" stroke="#666666" points="1048,-52 896,-52 896,0 1048,0 1048,-52"/>
<text text-anchor="start" x="904" y="-40" font-family="Helvetica,sans-Serif" font-size="10.00">/home/runner/work/cbmc</text>
<text text-anchor="start" x="904" y="-29" font-family="Helvetica,sans-Serif" font-size="10.00">/cbmc/src/analyses/variable</text>
<text text-anchor="start" x="904" y="-18" font-family="Helvetica,sans-Serif" font-size="10.00">&#45;sensitivity/abstract_value</text>
<text text-anchor="middle" x="972" y="-7" font-family="Helvetica,sans-Serif" font-size="10.00">_object.cpp</text>
</a>
</g>
</g>
<!-- Node1&#45;&gt;Node7 -->
<g id="edge6_Node000001_Node000007" class="edge">
<title>Node1&#45;&gt;Node7</title>
<g id="a_edge6_Node000001_Node000007"><a xlink:title=" ">
<path fill="none" stroke="#63b8ff" d="M1219.38,-89.91C1171.54,-79.61 1110.72,-65.92 1057,-52 1054.17,-51.27 1051.29,-50.5 1048.39,-49.72"/>
<polygon fill="#63b8ff" stroke="#63b8ff" points="1218.88,-93.38 1229.39,-92.06 1220.34,-86.54 1218.88,-93.38"/>
</a>
</g>
</g>
<!-- Node8 -->
<g id="Node000008" class="node">
<title>Node8</title>
<g id="a_Node000008"><a xlink:href="ansi__c__internal__additions_8cpp.html" target="_top" xlink:title=" ">
<polygon fill="white" stroke="#666666" points="1206,-46.5 1066,-46.5 1066,-5.5 1206,-5.5 1206,-46.5"/>
<text text-anchor="start" x="1074" y="-34.5" font-family="Helvetica,sans-Serif" font-size="10.00">/home/runner/work/cbmc</text>
<text text-anchor="start" x="1074" y="-23.5" font-family="Helvetica,sans-Serif" font-size="10.00">/cbmc/src/ansi&#45;c/ansi</text>
<text text-anchor="middle" x="1136" y="-12.5" font-family="Helvetica,sans-Serif" font-size="10.00">_c_internal_additions.cpp</text>
</a>
</g>
</g>
<!-- Node1&#45;&gt;Node8 -->
<g id="edge7_Node000001_Node000008" class="edge">
<title>Node1&#45;&gt;Node8</title>
<g id="a_edge7_Node000001_Node000008"><a xlink:title=" ">
<path fill="none" stroke="#63b8ff" d="M1253.75,-83.42C1229.23,-71.67 1200.11,-57.72 1176.96,-46.63"/>
<polygon fill="#63b8ff" stroke="#63b8ff" points="1252.37,-86.64 1262.9,-87.81 1255.4,-80.33 1252.37,-86.64"/>
</a>
</g>
</g>
<!-- Node9 -->
<g id="Node000009" class="node">
<title>Node9</title>
<g id="a_Node000009"><a xlink:href="c__typecheck__expr_8cpp.html" target="_top" xlink:title="ANSI&#45;C Language Type Checking.">
<polygon fill="white" stroke="#666666" points="1383.5,-46.5 1224.5,-46.5 1224.5,-5.5 1383.5,-5.5 1383.5,-46.5"/>
<text text-anchor="start" x="1232.5" y="-34.5" font-family="Helvetica,sans-Serif" font-size="10.00">/home/runner/work/cbmc</text>
<text text-anchor="start" x="1232.5" y="-23.5" font-family="Helvetica,sans-Serif" font-size="10.00">/cbmc/src/ansi&#45;c/c_typecheck</text>
<text text-anchor="middle" x="1304" y="-12.5" font-family="Helvetica,sans-Serif" font-size="10.00">_expr.cpp</text>
</a>
</g>
</g>
<!-- Node1&#45;&gt;Node9 -->
<g id="edge8_Node000001_Node000009" class="edge">
<title>Node1&#45;&gt;Node9</title>
<g id="a_edge8_Node000001_Node000009"><a xlink:title=" ">
<path fill="none" stroke="#63b8ff" d="M1304,-77.37C1304,-67.1 1304,-55.9 1304,-46.67"/>
<polygon fill="#63b8ff" stroke="#63b8ff" points="1300.5,-77.6 1304,-87.6 1307.5,-77.6 1300.5,-77.6"/>
</a>
</g>
</g>
<!-- Node10 -->
<g id="Node000010" class="node">
<title>Node10</title>
<g id="a_Node000010"><a xlink:href="cpp__internal__additions_8cpp.html" target="_top" xlink:title=" ">
<polygon fill="white" stroke="#666666" points="1548,-46.5 1402,-46.5 1402,-5.5 1548,-5.5 1548,-46.5"/>
<text text-anchor="start" x="1410" y="-34.5" font-family="Helvetica,sans-Serif" font-size="10.00">/home/runner/work/cbmc</text>
<text text-anchor="start" x="1410" y="-23.5" font-family="Helvetica,sans-Serif" font-size="10.00">/cbmc/src/cpp/cpp_internal</text>
<text text-anchor="middle" x="1475" y="-12.5" font-family="Helvetica,sans-Serif" font-size="10.00">_additions.cpp</text>
</a>
</g>
</g>
<!-- Node1&#45;&gt;Node10 -->
<g id="edge9_Node000001_Node000010" class="edge">
<title>Node1&#45;&gt;Node10</title>
<g id="a_edge9_Node000001_Node000010"><a xlink:title=" ">
<path fill="none" stroke="#63b8ff" d="M1355.14,-83.42C1380.1,-71.67 1409.74,-57.72 1433.3,-46.63"/>
<polygon fill="#63b8ff" stroke="#63b8ff" points="1353.39,-80.38 1345.83,-87.81 1356.37,-86.71 1353.39,-80.38"/>
</a>
</g>
</g>
<!-- Node11 -->
<g id="Node000011" class="node">
<title>Node11</title>
<g id="a_Node000011"><a xlink:href="cprover__parse__options_8cpp.html" target="_top" xlink:title="cprover Command Line Options Processing">
<polygon fill="white" stroke="#666666" points="1709.5,-46.5 1566.5,-46.5 1566.5,-5.5 1709.5,-5.5 1709.5,-46.5"/>
<text text-anchor="start" x="1574.5" y="-34.5" font-family="Helvetica,sans-Serif" font-size="10.00">/home/runner/work/cbmc</text>
<text text-anchor="start" x="1574.5" y="-23.5" font-family="Helvetica,sans-Serif" font-size="10.00">/cbmc/src/cprover/cprover</text>
<text text-anchor="middle" x="1638" y="-12.5" font-family="Helvetica,sans-Serif" font-size="10.00">_parse_options.cpp</text>
</a>
</g>
</g>
<!-- Node1&#45;&gt;Node11 -->
<g id="edge10_Node000001_Node000011" class="edge">
<title>Node1&#45;&gt;Node11</title>
<g id="a_edge10_Node000001_Node000011"><a xlink:title=" ">
<path fill="none" stroke="#63b8ff" d="M1388.56,-90.79C1437.92,-80.58 1501.27,-66.69 1557,-52 1563.4,-50.31 1570.06,-48.45 1576.68,-46.51"/>
<polygon fill="#63b8ff" stroke="#63b8ff" points="1387.65,-87.4 1378.56,-92.85 1389.06,-94.26 1387.65,-87.4"/>
</a>
</g>
</g>
<!-- Node12 -->
<g id="Node000012" class="node">
<title>Node12</title>
<g id="a_Node000012"><a xlink:href="full__slicer_8cpp.html" target="_top" xlink:title="Slicing.">
<polygon fill="white" stroke="#666666" points="1872.5,-46.5 1727.5,-46.5 1727.5,-5.5 1872.5,-5.5 1872.5,-46.5"/>
<text text-anchor="start" x="1735.5" y="-34.5" font-family="Helvetica,sans-Serif" font-size="10.00">/home/runner/work/cbmc</text>
<text text-anchor="start" x="1735.5" y="-23.5" font-family="Helvetica,sans-Serif" font-size="10.00">/cbmc/src/goto&#45;instrument</text>
<text text-anchor="middle" x="1800" y="-12.5" font-family="Helvetica,sans-Serif" font-size="10.00">/full_slicer.cpp</text>
</a>
</g>
</g>
<!-- Node1&#45;&gt;Node12 -->
<g id="edge11_Node000001_Node000012" class="edge">
<title>Node1&#45;&gt;Node12</title>
<g id="a_edge11_Node000001_Node000012"><a xlink:title=" ">
<path fill="none" stroke="#63b8ff" d="M1388.92,-100.32C1473.3,-92.2 1606.09,-76.79 1719,-52 1726.04,-50.45 1733.36,-48.58 1740.58,-46.57"/>
<polygon fill="#63b8ff" stroke="#63b8ff" points="1388.49,-96.84 1378.87,-101.27 1389.15,-103.81 1388.49,-96.84"/>
</a>
</g>
</g>
<!-- Node13 -->
<g id="Node000013" class="node">
<title>Node13</title>
<g id="a_Node000013"><a xlink:href="adjust__float__expressions_8cpp.html" target="_top" xlink:title="Symbolic Execution.">
<polygon fill="white" stroke="#666666" points="2051.5,-46.5 1890.5,-46.5 1890.5,-5.5 2051.5,-5.5 2051.5,-46.5"/>
<text text-anchor="start" x="1898.5" y="-34.5" font-family="Helvetica,sans-Serif" font-size="10.00">/home/runner/work/cbmc</text>
<text text-anchor="start" x="1898.5" y="-23.5" font-family="Helvetica,sans-Serif" font-size="10.00">/cbmc/src/goto&#45;programs</text>
<text text-anchor="middle" x="1971" y="-12.5" font-family="Helvetica,sans-Serif" font-size="10.00">/adjust_float_expressions.cpp</text>
</a>
</g>
</g>
<!-- Node1&#45;&gt;Node13 -->
<g id="edge12_Node000001_Node000013" class="edge">
<title>Node1&#45;&gt;Node13</title>
<g id="a_edge12_Node000001_Node000013"><a xlink:title=" ">
<path fill="none" stroke="#63b8ff" d="M1388.96,-104.08C1502.24,-98.44 1708.62,-84.41 1882,-52 1890.05,-50.5 1898.42,-48.6 1906.67,-46.53"/>
<polygon fill="#63b8ff" stroke="#63b8ff" points="1388.77,-100.58 1378.96,-104.57 1389.12,-107.58 1388.77,-100.58"/>
</a>
</g>
</g>
<!-- Node14 -->
<g id="Node000014" class="node">
<title>Node14</title>
<g id="a_Node000014"><a xlink:href="process__goto__program_8cpp.html" target="_top" xlink:title="Get a Goto Program.">
<polygon fill="white" stroke="#666666" points="2220.5,-46.5 2069.5,-46.5 2069.5,-5.5 2220.5,-5.5 2220.5,-46.5"/>
<text text-anchor="start" x="2077.5" y="-34.5" font-family="Helvetica,sans-Serif" font-size="10.00">/home/runner/work/cbmc</text>
<text text-anchor="start" x="2077.5" y="-23.5" font-family="Helvetica,sans-Serif" font-size="10.00">/cbmc/src/goto&#45;programs</text>
<text text-anchor="middle" x="2145" y="-12.5" font-family="Helvetica,sans-Serif" font-size="10.00">/process_goto_program.cpp</text>
</a>
</g>
</g>
<!-- Node1&#45;&gt;Node14 -->
<g id="edge13_Node000001_Node000014" class="edge">
<title>Node1&#45;&gt;Node14</title>
<g id="a_edge13_Node000001_Node000014"><a xlink:title=" ">
<path fill="none" stroke="#63b8ff" d="M1388.83,-107.23C1529.63,-105.45 1819.95,-96.17 2061,-52 2068.78,-50.57 2076.87,-48.7 2084.82,-46.61"/>
<polygon fill="#63b8ff" stroke="#63b8ff" points="1388.51,-103.73 1378.55,-107.35 1388.59,-110.73 1388.51,-103.73"/>
</a>
</g>
</g>
<!-- Node15 -->
<g id="Node000015" class="node">
<title>Node15</title>
<g id="a_Node000015"><a xlink:href="remove__internal__symbols_8cpp.html" target="_top" xlink:title="Remove symbols that are internal only.">
<polygon fill="white" stroke="#666666" points="2379,-46.5 2239,-46.5 2239,-5.5 2379,-5.5 2379,-46.5"/>
<text text-anchor="start" x="2247" y="-34.5" font-family="Helvetica,sans-Serif" font-size="10.00">/home/runner/work/cbmc</text>
<text text-anchor="start" x="2247" y="-23.5" font-family="Helvetica,sans-Serif" font-size="10.00">/cbmc/src/linking/remove</text>
<text text-anchor="middle" x="2309" y="-12.5" font-family="Helvetica,sans-Serif" font-size="10.00">_internal_symbols.cpp</text>
</a>
</g>
</g>
<!-- Node1&#45;&gt;Node15 -->
<g id="edge14_Node000001_Node000015" class="edge">
<title>Node1&#45;&gt;Node15</title>
<g id="a_edge14_Node000001_Node000015"><a xlink:title=" ">
<path fill="none" stroke="#63b8ff" d="M1388.55,-105.1C1585.45,-99.07 2069.97,-81.65 2230,-52 2237.5,-50.61 2245.28,-48.73 2252.9,-46.61"/>
<polygon fill="#63b8ff" stroke="#63b8ff" points="1388.43,-101.6 1378.54,-105.4 1388.65,-108.6 1388.43,-101.6"/>
</a>
</g>
</g>
<!-- Node16 -->
<g id="Node000016" class="node">
<title>Node16</title>
<g id="a_Node000016"><a xlink:href="statement__list__entry__point_8cpp.html" target="_top" xlink:title="Statement List Language Entry Point.">
<polygon fill="white" stroke="#666666" points="2568.5,-46.5 2397.5,-46.5 2397.5,-5.5 2568.5,-5.5 2568.5,-46.5"/>
<text text-anchor="start" x="2405.5" y="-34.5" font-family="Helvetica,sans-Serif" font-size="10.00">/home/runner/work/cbmc</text>
<text text-anchor="start" x="2405.5" y="-23.5" font-family="Helvetica,sans-Serif" font-size="10.00">/cbmc/src/statement&#45;list</text>
<text text-anchor="middle" x="2483" y="-12.5" font-family="Helvetica,sans-Serif" font-size="10.00">/statement_list_entry_point.cpp</text>
</a>
</g>
</g>
<!-- Node1&#45;&gt;Node16 -->
<g id="edge15_Node000001_Node000016" class="edge">
<title>Node1&#45;&gt;Node16</title>
<g id="a_edge15_Node000001_Node000016"><a xlink:title=" ">
<path fill="none" stroke="#63b8ff" d="M1388.83,-105.42C1609.18,-99.65 2195.88,-81.87 2388,-52 2397.02,-50.6 2406.41,-48.69 2415.64,-46.55"/>
<polygon fill="#63b8ff" stroke="#63b8ff" points="1388.52,-101.92 1378.62,-105.68 1388.7,-108.92 1388.52,-101.92"/>
</a>
</g>
</g>
</g>
</svg>
