<?xml version="1.0" encoding="UTF-8" standalone="no"?>
<!DOCTYPE svg PUBLIC "-//W3C//DTD SVG 1.1//EN"
 "http://www.w3.org/Graphics/SVG/1.1/DTD/svg11.dtd">
<!-- Generated by graphviz version 2.43.0 (0)
 -->
<!-- Title: /home/runner/work/cbmc/cbmc/src/ansi&#45;c/anonymous_member.cpp Pages: 1 -->
<svg width="825pt" height="654pt"
 viewBox="0.00 0.00 825.00 654.00" xmlns="http://www.w3.org/2000/svg" xmlns:xlink="http://www.w3.org/1999/xlink">
<g id="graph0" class="graph" transform="scale(1 1) rotate(0) translate(4 650)">
<title>/home/runner/work/cbmc/cbmc/src/ansi&#45;c/anonymous_member.cpp</title>
<!-- Node1 -->
<g id="Node000001" class="node">
<title>Node1</title>
<g id="a_Node000001"><a xlink:title="ANSI&#45;C Language Type Checking.">
<polygon fill="#999999" stroke="#666666" points="293.5,-646 138.5,-646 138.5,-605 293.5,-605 293.5,-646"/>
<text text-anchor="start" x="146.5" y="-634" font-family="Helvetica,sans-Serif" font-size="10.00">/home/runner/work/cbmc</text>
<text text-anchor="start" x="146.5" y="-623" font-family="Helvetica,sans-Serif" font-size="10.00">/cbmc/src/ansi&#45;c/anonymous</text>
<text text-anchor="middle" x="216" y="-612" font-family="Helvetica,sans-Serif" font-size="10.00">_member.cpp</text>
</a>
</g>
</g>
<!-- Node2 -->
<g id="Node000002" class="node">
<title>Node2</title>
<g id="a_Node000002"><a xlink:href="anonymous__member_8h.html" target="_top" xlink:title="C Language Type Checking.">
<polygon fill="white" stroke="#666666" points="280,-514 152,-514 152,-495 280,-495 280,-514"/>
<text text-anchor="middle" x="216" y="-502" font-family="Helvetica,sans-Serif" font-size="10.00">anonymous_member.h</text>
</a>
</g>
</g>
<!-- Node1&#45;&gt;Node2 -->
<g id="edge1_Node000001_Node000002" class="edge">
<title>Node1&#45;&gt;Node2</title>
<g id="a_edge1_Node000001_Node000002"><a xlink:title=" ">
<path fill="none" stroke="#63b8ff" d="M216,-604.85C216,-582.48 216,-546.19 216,-524.21"/>
<polygon fill="#63b8ff" stroke="#63b8ff" points="219.5,-524.18 216,-514.18 212.5,-524.18 219.5,-524.18"/>
</a>
</g>
</g>
<!-- Node37 -->
<g id="Node000037" class="node">
<title>Node37</title>
<g id="a_Node000037"><a xlink:href="namespace_8h.html" target="_top" xlink:title=" ">
<polygon fill="white" stroke="#666666" points="248.5,-184 147.5,-184 147.5,-165 248.5,-165 248.5,-184"/>
<text text-anchor="middle" x="198" y="-172" font-family="Helvetica,sans-Serif" font-size="10.00">util/namespace.h</text>
</a>
</g>
</g>
<!-- Node1&#45;&gt;Node37 -->
<g id="edge31_Node000001_Node000037" class="edge">
<title>Node1&#45;&gt;Node37</title>
<g id="a_edge31_Node000001_Node000037"><a xlink:title=" ">
<path fill="none" stroke="#63b8ff" d="M138.32,-613.83C76.4,-600.43 0,-570.68 0,-505.5 0,-505.5 0,-505.5 0,-338.5 0,-256.42 102.66,-208.03 160.14,-187.37"/>
<polygon fill="#63b8ff" stroke="#63b8ff" points="161.34,-190.66 169.63,-184.06 159.04,-184.05 161.34,-190.66"/>
</a>
</g>
</g>
<!-- Node38 -->
<g id="Node000038" class="node">
<title>Node38</title>
<g id="a_Node000038"><a xlink:href="std__expr_8h.html" target="_top" xlink:title="API to expression classes.">
<polygon fill="white" stroke="#666666" points="509,-569 423,-569 423,-550 509,-550 509,-569"/>
<text text-anchor="middle" x="466" y="-557" font-family="Helvetica,sans-Serif" font-size="10.00">util/std_expr.h</text>
</a>
</g>
</g>
<!-- Node1&#45;&gt;Node38 -->
<g id="edge35_Node000001_Node000038" class="edge">
<title>Node1&#45;&gt;Node38</title>
<g id="a_edge35_Node000001_Node000038"><a xlink:title=" ">
<path fill="none" stroke="#63b8ff" d="M292.37,-604.95C335.1,-594.01 386.83,-580.77 422.65,-571.6"/>
<polygon fill="#63b8ff" stroke="#63b8ff" points="423.95,-574.88 432.77,-569.01 422.21,-568.1 423.95,-574.88"/>
</a>
</g>
</g>
<!-- Node3 -->
<g id="Node000003" class="node">
<title>Node3</title>
<g id="a_Node000003"><a xlink:href="expr_8h.html" target="_top" xlink:title=" ">
<polygon fill="white" stroke="#666666" points="575.5,-404 510.5,-404 510.5,-385 575.5,-385 575.5,-404"/>
<text text-anchor="middle" x="543" y="-392" font-family="Helvetica,sans-Serif" font-size="10.00">util/expr.h</text>
</a>
</g>
</g>
<!-- Node2&#45;&gt;Node3 -->
<g id="edge2_Node000002_Node000003" class="edge">
<title>Node2&#45;&gt;Node3</title>
<g id="a_edge2_Node000002_Node000003"><a xlink:title=" ">
<path fill="none" stroke="#63b8ff" d="M229.59,-494.79C251.41,-481.18 295.96,-454.89 337,-440 391.81,-420.11 458.21,-407.74 500.53,-401.24"/>
<polygon fill="#63b8ff" stroke="#63b8ff" points="501.11,-404.69 510.49,-399.74 500.08,-397.76 501.11,-404.69"/>
</a>
</g>
</g>
<!-- Node4 -->
<g id="Node000004" class="node">
<title>Node4</title>
<g id="a_Node000004"><a xlink:href="as__const_8h.html" target="_top" xlink:title=" ">
<polygon fill="white" stroke="#666666" points="502,-19 434,-19 434,0 502,0 502,-19"/>
<text text-anchor="middle" x="468" y="-7" font-family="Helvetica,sans-Serif" font-size="10.00">as_const.h</text>
</a>
</g>
</g>
<!-- Node3&#45;&gt;Node4 -->
<g id="edge3_Node000003_Node000004" class="edge">
<title>Node3&#45;&gt;Node4</title>
<g id="a_edge3_Node000003_Node000004"><a xlink:title=" ">
<path fill="none" stroke="#63b8ff" d="M550.3,-384.69C579.11,-348.76 680.87,-210.5 628,-110 603.57,-63.56 546.94,-36.25 508.05,-22.34"/>
<polygon fill="#63b8ff" stroke="#63b8ff" points="509.17,-19.02 498.58,-19.08 506.9,-25.64 509.17,-19.02"/>
</a>
</g>
</g>
<!-- Node5 -->
<g id="Node000005" class="node">
<title>Node5</title>
<g id="a_Node000005"><a xlink:href="type_8h.html" target="_top" xlink:title="Defines typet, type_with_subtypet and type_with_subtypest.">
<polygon fill="white" stroke="#666666" points="367.5,-349 320.5,-349 320.5,-330 367.5,-330 367.5,-349"/>
<text text-anchor="middle" x="344" y="-337" font-family="Helvetica,sans-Serif" font-size="10.00">type.h</text>
</a>
</g>
</g>
<!-- Node3&#45;&gt;Node5 -->
<g id="edge4_Node000003_Node000005" class="edge">
<title>Node3&#45;&gt;Node5</title>
<g id="a_edge4_Node000003_Node000005"><a xlink:title=" ">
<path fill="none" stroke="#63b8ff" d="M511.03,-384.98C474.47,-375.25 414.89,-359.38 377.65,-349.46"/>
<polygon fill="#63b8ff" stroke="#63b8ff" points="378.34,-346.02 367.78,-346.83 376.54,-352.79 378.34,-346.02"/>
</a>
</g>
</g>
<!-- Node33 -->
<g id="Node000033" class="node">
<title>Node33</title>
<g id="a_Node000033"><a xlink:href="validation__mode_8h.html" target="_top" xlink:title=" ">
<polygon fill="white" stroke="#666666" points="585.5,-239 478.5,-239 478.5,-220 585.5,-220 585.5,-239"/>
<text text-anchor="middle" x="532" y="-227" font-family="Helvetica,sans-Serif" font-size="10.00">validation_mode.h</text>
</a>
</g>
</g>
<!-- Node3&#45;&gt;Node33 -->
<g id="edge29_Node000003_Node000033" class="edge">
<title>Node3&#45;&gt;Node33</title>
<g id="a_edge29_Node000003_Node000033"><a xlink:title=" ">
<path fill="none" stroke="#63b8ff" d="M546.57,-384.71C554.13,-364.82 570.18,-314.99 559,-275 556.24,-265.12 550.61,-255.25 545.21,-247.32"/>
<polygon fill="#63b8ff" stroke="#63b8ff" points="547.87,-245.04 539.15,-239.03 542.22,-249.17 547.87,-245.04"/>
</a>
</g>
</g>
<!-- Node34 -->
<g id="Node000034" class="node">
<title>Node34</title>
<g id="a_Node000034"><a xlink:href="validate__types_8h.html" target="_top" xlink:title=" ">
<polygon fill="white" stroke="#666666" points="550,-294 452,-294 452,-275 550,-275 550,-294"/>
<text text-anchor="middle" x="501" y="-282" font-family="Helvetica,sans-Serif" font-size="10.00">validate_types.h</text>
</a>
</g>
</g>
<!-- Node3&#45;&gt;Node34 -->
<g id="edge28_Node000003_Node000034" class="edge">
<title>Node3&#45;&gt;Node34</title>
<g id="a_edge28_Node000003_Node000034"><a xlink:title=" ">
<path fill="none" stroke="#63b8ff" d="M540.92,-384.7C537.86,-372.27 531.67,-348.99 524,-330 520.3,-320.83 515.34,-311.02 510.98,-302.95"/>
<polygon fill="#63b8ff" stroke="#63b8ff" points="514,-301.18 506.08,-294.14 507.88,-304.58 514,-301.18"/>
</a>
</g>
</g>
<!-- Node35 -->
<g id="Node000035" class="node">
<title>Node35</title>
<g id="a_Node000035"><a xlink:href="validate__expressions_8h.html" target="_top" xlink:title=" ">
<polygon fill="white" stroke="#666666" points="514.5,-349 385.5,-349 385.5,-330 514.5,-330 514.5,-349"/>
<text text-anchor="middle" x="450" y="-337" font-family="Helvetica,sans-Serif" font-size="10.00">validate_expressions.h</text>
</a>
</g>
</g>
<!-- Node3&#45;&gt;Node35 -->
<g id="edge27_Node000003_Node000035" class="edge">
<title>Node3&#45;&gt;Node35</title>
<g id="a_edge27_Node000003_Node000035"><a xlink:title=" ">
<path fill="none" stroke="#63b8ff" d="M528.06,-384.98C513.5,-376.69 491.13,-363.94 474.07,-354.22"/>
<polygon fill="#63b8ff" stroke="#63b8ff" points="475.64,-351.08 465.21,-349.17 472.17,-357.16 475.64,-351.08"/>
</a>
</g>
</g>
<!-- Node36 -->
<g id="Node000036" class="node">
<title>Node36</title>
<g id="a_Node000036"><a xlink:title=" ">
<polygon fill="#e0e0e0" stroke="#999999" points="712.5,-349 647.5,-349 647.5,-330 712.5,-330 712.5,-349"/>
<text text-anchor="middle" x="680" y="-337" font-family="Helvetica,sans-Serif" font-size="10.00">functional</text>
</a>
</g>
</g>
<!-- Node3&#45;&gt;Node36 -->
<g id="edge30_Node000003_Node000036" class="edge">
<title>Node3&#45;&gt;Node36</title>
<g id="a_edge30_Node000003_Node000036"><a xlink:title=" ">
<path fill="none" stroke="#63b8ff" d="M565.01,-384.98C587.45,-376.3 622.48,-362.75 647.99,-352.88"/>
<polygon fill="#63b8ff" stroke="#63b8ff" points="649.52,-356.04 657.59,-349.17 647,-349.51 649.52,-356.04"/>
</a>
</g>
</g>
<!-- Node6 -->
<g id="Node000006" class="node">
<title>Node6</title>
<g id="a_Node000006"><a xlink:href="source__location_8h.html" target="_top" xlink:title=" ">
<polygon fill="white" stroke="#666666" points="375,-184 273,-184 273,-165 375,-165 375,-184"/>
<text text-anchor="middle" x="324" y="-172" font-family="Helvetica,sans-Serif" font-size="10.00">source_location.h</text>
</a>
</g>
</g>
<!-- Node5&#45;&gt;Node6 -->
<g id="edge5_Node000005_Node000006" class="edge">
<title>Node5&#45;&gt;Node6</title>
<g id="a_edge5_Node000005_Node000006"><a xlink:title=" ">
<path fill="none" stroke="#63b8ff" d="M335.23,-329.92C319.5,-313.85 286.99,-277.32 275,-239 272.48,-230.94 271.58,-227.72 275,-220 280.32,-207.97 290.68,-197.8 300.51,-190.24"/>
<polygon fill="#63b8ff" stroke="#63b8ff" points="302.76,-192.93 308.87,-184.27 298.7,-187.23 302.76,-192.93"/>
</a>
</g>
</g>
<!-- Node31 -->
<g id="Node000031" class="node">
<title>Node31</title>
<g id="a_Node000031"><a xlink:href="validate_8h.html" target="_top" xlink:title=" ">
<polygon fill="white" stroke="#666666" points="387.5,-294 322.5,-294 322.5,-275 387.5,-275 387.5,-294"/>
<text text-anchor="middle" x="355" y="-282" font-family="Helvetica,sans-Serif" font-size="10.00">validate.h</text>
</a>
</g>
</g>
<!-- Node5&#45;&gt;Node31 -->
<g id="edge18_Node000005_Node000031" class="edge">
<title>Node5&#45;&gt;Node31</title>
<g id="a_edge18_Node000005_Node000031"><a xlink:title=" ">
<path fill="none" stroke="#63b8ff" d="M345.82,-329.75C347.26,-322.8 349.32,-312.85 351.13,-304.13"/>
<polygon fill="#63b8ff" stroke="#63b8ff" points="354.61,-304.59 353.22,-294.09 347.76,-303.17 354.61,-304.59"/>
</a>
</g>
</g>
<!-- Node5&#45;&gt;Node33 -->
<g id="edge26_Node000005_Node000033" class="edge">
<title>Node5&#45;&gt;Node33</title>
<g id="a_edge26_Node000005_Node000033"><a xlink:title=" ">
<path fill="none" stroke="#63b8ff" d="M356.55,-329.84C375.08,-317.18 411.05,-293.17 443,-275 463.02,-263.62 486.32,-252.02 504.06,-243.52"/>
<polygon fill="#63b8ff" stroke="#63b8ff" points="505.76,-246.59 513.29,-239.14 502.76,-240.27 505.76,-246.59"/>
</a>
</g>
</g>
<!-- Node5&#45;&gt;Node34 -->
<g id="edge25_Node000005_Node000034" class="edge">
<title>Node5&#45;&gt;Node34</title>
<g id="a_edge25_Node000005_Node000034"><a xlink:title=" ">
<path fill="none" stroke="#63b8ff" d="M367.5,-330.57C393.64,-321.74 436.1,-307.41 466.11,-297.28"/>
<polygon fill="#63b8ff" stroke="#63b8ff" points="467.42,-300.53 475.77,-294.02 465.18,-293.9 467.42,-300.53"/>
</a>
</g>
</g>
<!-- Node7 -->
<g id="Node000007" class="node">
<title>Node7</title>
<g id="a_Node000007"><a xlink:href="deprecate_8h.html" target="_top" xlink:title=" ">
<polygon fill="white" stroke="#666666" points="345,-129 271,-129 271,-110 345,-110 345,-129"/>
<text text-anchor="middle" x="308" y="-117" font-family="Helvetica,sans-Serif" font-size="10.00">deprecate.h</text>
</a>
</g>
</g>
<!-- Node6&#45;&gt;Node7 -->
<g id="edge6_Node000006_Node000007" class="edge">
<title>Node6&#45;&gt;Node7</title>
<g id="a_edge6_Node000006_Node000007"><a xlink:title=" ">
<path fill="none" stroke="#63b8ff" d="M321.36,-164.75C319.24,-157.72 316.19,-147.62 313.54,-138.84"/>
<polygon fill="#63b8ff" stroke="#63b8ff" points="316.83,-137.65 310.59,-129.09 310.13,-139.67 316.83,-137.65"/>
</a>
</g>
</g>
<!-- Node8 -->
<g id="Node000008" class="node">
<title>Node8</title>
<g id="a_Node000008"><a xlink:href="irep_8h.html" target="_top" xlink:title=" ">
<polygon fill="white" stroke="#666666" points="215,-129 171,-129 171,-110 215,-110 215,-129"/>
<text text-anchor="middle" x="193" y="-117" font-family="Helvetica,sans-Serif" font-size="10.00">irep.h</text>
</a>
</g>
</g>
<!-- Node6&#45;&gt;Node8 -->
<g id="edge7_Node000006_Node000008" class="edge">
<title>Node6&#45;&gt;Node8</title>
<g id="a_edge7_Node000006_Node000008"><a xlink:title=" ">
<path fill="none" stroke="#63b8ff" d="M302.95,-164.98C281.59,-156.34 248.3,-142.87 223.94,-133.02"/>
<polygon fill="#63b8ff" stroke="#63b8ff" points="225.01,-129.68 214.43,-129.17 222.39,-136.17 225.01,-129.68"/>
</a>
</g>
</g>
<!-- Node9 -->
<g id="Node000009" class="node">
<title>Node9</title>
<g id="a_Node000009"><a xlink:title=" ">
<polygon fill="#e0e0e0" stroke="#999999" points="198,-19 154,-19 154,0 198,0 198,-19"/>
<text text-anchor="middle" x="176" y="-7" font-family="Helvetica,sans-Serif" font-size="10.00">string</text>
</a>
</g>
</g>
<!-- Node6&#45;&gt;Node9 -->
<g id="edge17_Node000006_Node000009" class="edge">
<title>Node6&#45;&gt;Node9</title>
<g id="a_edge17_Node000006_Node000009"><a xlink:title=" ">
<path fill="none" stroke="#63b8ff" d="M333.31,-164.68C358.08,-140.75 422.56,-75.07 406,-55 381.32,-25.09 265.77,-15.05 208.43,-11.87"/>
<polygon fill="#63b8ff" stroke="#63b8ff" points="208.28,-8.36 198.11,-11.34 207.92,-15.35 208.28,-8.36"/>
</a>
</g>
</g>
<!-- Node30 -->
<g id="Node000030" class="node">
<title>Node30</title>
<g id="a_Node000030"><a xlink:title=" ">
<polygon fill="#e0e0e0" stroke="#999999" points="457,-129 401,-129 401,-110 457,-110 457,-129"/>
<text text-anchor="middle" x="429" y="-117" font-family="Helvetica,sans-Serif" font-size="10.00">optional</text>
</a>
</g>
</g>
<!-- Node6&#45;&gt;Node30 -->
<g id="edge16_Node000006_Node000030" class="edge">
<title>Node6&#45;&gt;Node30</title>
<g id="a_edge16_Node000006_Node000030"><a xlink:title=" ">
<path fill="none" stroke="#63b8ff" d="M340.87,-164.98C357.61,-156.54 383.5,-143.47 402.89,-133.68"/>
<polygon fill="#63b8ff" stroke="#63b8ff" points="404.47,-136.8 411.82,-129.17 401.32,-130.55 404.47,-136.8"/>
</a>
</g>
</g>
<!-- Node8&#45;&gt;Node9 -->
<g id="edge8_Node000008_Node000009" class="edge">
<title>Node8&#45;&gt;Node9</title>
<g id="a_edge8_Node000008_Node000009"><a xlink:title=" ">
<path fill="none" stroke="#63b8ff" d="M191.61,-109.66C188.86,-92.17 182.66,-52.8 178.96,-29.27"/>
<polygon fill="#63b8ff" stroke="#63b8ff" points="182.38,-28.49 177.36,-19.16 175.46,-29.58 182.38,-28.49"/>
</a>
</g>
</g>
<!-- Node10 -->
<g id="Node000010" class="node">
<title>Node10</title>
<g id="a_Node000010"><a xlink:title=" ">
<polygon fill="#e0e0e0" stroke="#999999" points="251.5,-74 204.5,-74 204.5,-55 251.5,-55 251.5,-74"/>
<text text-anchor="middle" x="228" y="-62" font-family="Helvetica,sans-Serif" font-size="10.00">vector</text>
</a>
</g>
</g>
<!-- Node8&#45;&gt;Node10 -->
<g id="edge9_Node000008_Node000010" class="edge">
<title>Node8&#45;&gt;Node10</title>
<g id="a_edge9_Node000008_Node000010"><a xlink:title=" ">
<path fill="none" stroke="#63b8ff" d="M198.78,-109.75C203.62,-102.42 210.68,-91.73 216.64,-82.7"/>
<polygon fill="#63b8ff" stroke="#63b8ff" points="219.74,-84.36 222.33,-74.09 213.9,-80.5 219.74,-84.36"/>
</a>
</g>
</g>
<!-- Node11 -->
<g id="Node000011" class="node">
<title>Node11</title>
<g id="a_Node000011"><a xlink:href="src_2util_2invariant_8h.html" target="_top" xlink:title=" ">
<polygon fill="#fff0f0" stroke="red" points="538.5,-74 469.5,-74 469.5,-55 538.5,-55 538.5,-74"/>
<text text-anchor="middle" x="504" y="-62" font-family="Helvetica,sans-Serif" font-size="10.00">invariant.h</text>
</a>
</g>
</g>
<!-- Node8&#45;&gt;Node11 -->
<g id="edge10_Node000008_Node000011" class="edge">
<title>Node8&#45;&gt;Node11</title>
<g id="a_edge10_Node000008_Node000011"><a xlink:title=" ">
<path fill="none" stroke="#63b8ff" d="M215.03,-113.04C219.63,-111.97 224.46,-110.9 229,-110 309.66,-93.97 404.5,-79.6 459.09,-71.76"/>
<polygon fill="#63b8ff" stroke="#63b8ff" points="459.72,-75.21 469.13,-70.33 458.73,-68.28 459.72,-75.21"/>
</a>
</g>
</g>
<!-- Node15 -->
<g id="Node000015" class="node">
<title>Node15</title>
<g id="a_Node000015"><a xlink:href="irep__ids_8h.html" target="_top" xlink:title="util">
<polygon fill="#fff0f0" stroke="red" points="148,-74 84,-74 84,-55 148,-55 148,-74"/>
<text text-anchor="middle" x="116" y="-62" font-family="Helvetica,sans-Serif" font-size="10.00">irep_ids.h</text>
</a>
</g>
</g>
<!-- Node8&#45;&gt;Node15 -->
<g id="edge13_Node000008_Node000015" class="edge">
<title>Node8&#45;&gt;Node15</title>
<g id="a_edge13_Node000008_Node000015"><a xlink:title=" ">
<path fill="none" stroke="#63b8ff" d="M180.63,-109.98C168.91,-101.92 151.08,-89.65 137.11,-80.03"/>
<polygon fill="#63b8ff" stroke="#63b8ff" points="138.82,-76.96 128.6,-74.17 134.85,-82.72 138.82,-76.96"/>
</a>
</g>
</g>
<!-- Node26 -->
<g id="Node000026" class="node">
<title>Node26</title>
<g id="a_Node000026"><a xlink:href="forward__list__as__map_8h.html" target="_top" xlink:title=" ">
<polygon fill="#fff0f0" stroke="red" points="396.5,-74 269.5,-74 269.5,-55 396.5,-55 396.5,-74"/>
<text text-anchor="middle" x="333" y="-62" font-family="Helvetica,sans-Serif" font-size="10.00">forward_list_as_map.h</text>
</a>
</g>
</g>
<!-- Node8&#45;&gt;Node26 -->
<g id="edge14_Node000008_Node000026" class="edge">
<title>Node8&#45;&gt;Node26</title>
<g id="a_edge14_Node000008_Node000026"><a xlink:title=" ">
<path fill="none" stroke="#63b8ff" d="M215.18,-110.1C238.29,-101.35 274.72,-87.56 300.95,-77.63"/>
<polygon fill="#63b8ff" stroke="#63b8ff" points="302.34,-80.85 310.46,-74.03 299.87,-74.3 302.34,-80.85"/>
</a>
</g>
</g>
<!-- Node11&#45;&gt;Node9 -->
<g id="edge11_Node000011_Node000009" class="edge">
<title>Node11&#45;&gt;Node9</title>
<g id="a_edge11_Node000011_Node000009"><a xlink:title=" ">
<path fill="none" stroke="#63b8ff" d="M469.21,-57.88C405.31,-47.55 270.13,-25.71 208.21,-15.7"/>
<polygon fill="#63b8ff" stroke="#63b8ff" points="208.66,-12.23 198.23,-14.09 207.54,-19.14 208.66,-12.23"/>
</a>
</g>
</g>
<!-- Node14 -->
<g id="Node000014" class="node">
<title>Node14</title>
<g id="a_Node000014"><a xlink:title=" ">
<polygon fill="#e0e0e0" stroke="#999999" points="724.5,-19 655.5,-19 655.5,0 724.5,0 724.5,-19"/>
<text text-anchor="middle" x="690" y="-7" font-family="Helvetica,sans-Serif" font-size="10.00">type_traits</text>
</a>
</g>
</g>
<!-- Node11&#45;&gt;Node14 -->
<g id="edge12_Node000011_Node000014" class="edge">
<title>Node11&#45;&gt;Node14</title>
<g id="a_edge12_Node000011_Node000014"><a xlink:title=" ">
<path fill="none" stroke="#63b8ff" d="M533.88,-54.98C565.38,-46.01 615.17,-31.82 650.03,-21.89"/>
<polygon fill="#63b8ff" stroke="#63b8ff" points="651.22,-25.19 659.88,-19.08 649.31,-18.46 651.22,-25.19"/>
</a>
</g>
</g>
<!-- Node26&#45;&gt;Node4 -->
<g id="edge15_Node000026_Node000004" class="edge">
<title>Node26&#45;&gt;Node4</title>
<g id="a_edge15_Node000026_Node000004"><a xlink:title=" ">
<path fill="none" stroke="#63b8ff" d="M354.69,-54.98C376.8,-46.3 411.32,-32.75 436.45,-22.88"/>
<polygon fill="#63b8ff" stroke="#63b8ff" points="437.89,-26.08 445.92,-19.17 435.33,-19.57 437.89,-26.08"/>
</a>
</g>
</g>
<!-- Node31&#45;&gt;Node14 -->
<g id="edge19_Node000031_Node000014" class="edge">
<title>Node31&#45;&gt;Node14</title>
<g id="a_edge19_Node000031_Node000014"><a xlink:title=" ">
<path fill="none" stroke="#63b8ff" d="M370.59,-274.82C392.68,-262.53 434.35,-239.42 470,-220 499.69,-203.83 510.52,-205.01 537,-184 598.26,-135.41 654.84,-60.37 678.42,-27.22"/>
<polygon fill="#63b8ff" stroke="#63b8ff" points="681.28,-29.23 684.17,-19.04 675.56,-25.21 681.28,-29.23"/>
</a>
</g>
</g>
<!-- Node32 -->
<g id="Node000032" class="node">
<title>Node32</title>
<g id="a_Node000032"><a xlink:href="exception__utils_8h.html" target="_top" xlink:title=" ">
<polygon fill="white" stroke="#666666" points="384,-239 284,-239 284,-220 384,-220 384,-239"/>
<text text-anchor="middle" x="334" y="-227" font-family="Helvetica,sans-Serif" font-size="10.00">exception_utils.h</text>
</a>
</g>
</g>
<!-- Node31&#45;&gt;Node32 -->
<g id="edge20_Node000031_Node000032" class="edge">
<title>Node31&#45;&gt;Node32</title>
<g id="a_edge20_Node000031_Node000032"><a xlink:title=" ">
<path fill="none" stroke="#63b8ff" d="M351.53,-274.75C348.72,-267.65 344.66,-257.4 341.15,-248.56"/>
<polygon fill="#63b8ff" stroke="#63b8ff" points="344.34,-247.1 337.4,-239.09 337.83,-249.68 344.34,-247.1"/>
</a>
</g>
</g>
<!-- Node31&#45;&gt;Node33 -->
<g id="edge24_Node000031_Node000033" class="edge">
<title>Node31&#45;&gt;Node33</title>
<g id="a_edge24_Node000031_Node000033"><a xlink:title=" ">
<path fill="none" stroke="#63b8ff" d="M383.44,-274.98C413.28,-266.05 460.38,-251.94 493.53,-242.02"/>
<polygon fill="#63b8ff" stroke="#63b8ff" points="494.76,-245.3 503.34,-239.08 492.76,-238.6 494.76,-245.3"/>
</a>
</g>
</g>
<!-- Node32&#45;&gt;Node6 -->
<g id="edge23_Node000032_Node000006" class="edge">
<title>Node32&#45;&gt;Node6</title>
<g id="a_edge23_Node000032_Node000006"><a xlink:title=" ">
<path fill="none" stroke="#63b8ff" d="M332.35,-219.75C331.04,-212.8 329.16,-202.85 327.52,-194.13"/>
<polygon fill="#63b8ff" stroke="#63b8ff" points="330.91,-193.27 325.62,-184.09 324.04,-194.56 330.91,-193.27"/>
</a>
</g>
</g>
<!-- Node32&#45;&gt;Node9 -->
<g id="edge21_Node000032_Node000009" class="edge">
<title>Node32&#45;&gt;Node9</title>
<g id="a_edge21_Node000032_Node000009"><a xlink:title=" ">
<path fill="none" stroke="#63b8ff" d="M283.81,-227.86C241.49,-224.97 181.24,-215.07 139,-184 87.44,-146.08 40.04,-108.61 75,-55 90.14,-31.79 120.4,-20.6 143.87,-15.26"/>
<polygon fill="#63b8ff" stroke="#63b8ff" points="144.67,-18.67 153.77,-13.25 143.27,-11.81 144.67,-18.67"/>
</a>
</g>
</g>
<!-- Node32&#45;&gt;Node11 -->
<g id="edge22_Node000032_Node000011" class="edge">
<title>Node32&#45;&gt;Node11</title>
<g id="a_edge22_Node000032_Node000011"><a xlink:title=" ">
<path fill="none" stroke="#63b8ff" d="M348.94,-219.91C375.08,-204.35 429.75,-169.34 466,-129 478.32,-115.29 488.76,-97.01 495.56,-83.58"/>
<polygon fill="#63b8ff" stroke="#63b8ff" points="498.8,-84.94 500.03,-74.42 492.5,-81.88 498.8,-84.94"/>
</a>
</g>
</g>
<!-- Node37&#45;&gt;Node7 -->
<g id="edge32_Node000037_Node000007" class="edge">
<title>Node37&#45;&gt;Node7</title>
<g id="a_edge32_Node000037_Node000007"><a xlink:title=" ">
<path fill="none" stroke="#63b8ff" d="M215.67,-164.98C233.29,-156.5 260.58,-143.35 280.93,-133.54"/>
<polygon fill="#63b8ff" stroke="#63b8ff" points="282.52,-136.66 290.01,-129.17 279.48,-130.36 282.52,-136.66"/>
</a>
</g>
</g>
<!-- Node37&#45;&gt;Node8 -->
<g id="edge34_Node000037_Node000008" class="edge">
<title>Node37&#45;&gt;Node8</title>
<g id="a_edge34_Node000037_Node000008"><a xlink:title=" ">
<path fill="none" stroke="#63b8ff" d="M197.17,-164.75C196.52,-157.8 195.58,-147.85 194.76,-139.13"/>
<polygon fill="#63b8ff" stroke="#63b8ff" points="198.23,-138.72 193.81,-129.09 191.27,-139.37 198.23,-138.72"/>
</a>
</g>
</g>
<!-- Node37&#45;&gt;Node11 -->
<g id="edge33_Node000037_Node000011" class="edge">
<title>Node37&#45;&gt;Node11</title>
<g id="a_edge33_Node000037_Node000011"><a xlink:title=" ">
<path fill="none" stroke="#63b8ff" d="M203.95,-164.88C214.11,-150.9 236.2,-123.49 262,-110 295.64,-92.42 399.2,-77.8 459.39,-70.51"/>
<polygon fill="#63b8ff" stroke="#63b8ff" points="459.86,-73.97 469.38,-69.31 459.04,-67.02 459.86,-73.97"/>
</a>
</g>
</g>
<!-- Node38&#45;&gt;Node11 -->
<g id="edge42_Node000038_Node000011" class="edge">
<title>Node38&#45;&gt;Node11</title>
<g id="a_edge42_Node000038_Node000011"><a xlink:title=" ">
<path fill="none" stroke="#63b8ff" d="M509.04,-554.41C602.77,-544.31 817,-514.26 817,-450.5 817,-450.5 817,-450.5 817,-393.5 817,-229.7 610.17,-115.46 532.77,-78.45"/>
<polygon fill="#63b8ff" stroke="#63b8ff" points="534.12,-75.21 523.58,-74.13 531.14,-81.55 534.12,-75.21"/>
</a>
</g>
</g>
<!-- Node39 -->
<g id="Node000039" class="node">
<title>Node39</title>
<g id="a_Node000039"><a xlink:href="expr__cast_8h.html" target="_top" xlink:title="Templated functions to cast to specific exprt&#45;derived classes.">
<polygon fill="white" stroke="#666666" points="658.5,-459 585.5,-459 585.5,-440 658.5,-440 658.5,-459"/>
<text text-anchor="middle" x="622" y="-447" font-family="Helvetica,sans-Serif" font-size="10.00">expr_cast.h</text>
</a>
</g>
</g>
<!-- Node38&#45;&gt;Node39 -->
<g id="edge36_Node000038_Node000039" class="edge">
<title>Node38&#45;&gt;Node39</title>
<g id="a_edge36_Node000038_Node000039"><a xlink:title=" ">
<path fill="none" stroke="#63b8ff" d="M478.5,-549.84C505.2,-531.36 568.04,-487.86 600.99,-465.05"/>
<polygon fill="#63b8ff" stroke="#63b8ff" points="603.21,-467.77 609.44,-459.2 599.22,-462.01 603.21,-467.77"/>
</a>
</g>
</g>
<!-- Node41 -->
<g id="Node000041" class="node">
<title>Node41</title>
<g id="a_Node000041"><a xlink:href="std__types_8h.html" target="_top" xlink:title="Pre&#45;defined types.">
<polygon fill="white" stroke="#666666" points="428.5,-514 355.5,-514 355.5,-495 428.5,-495 428.5,-514"/>
<text text-anchor="middle" x="392" y="-502" font-family="Helvetica,sans-Serif" font-size="10.00">std_types.h</text>
</a>
</g>
</g>
<!-- Node38&#45;&gt;Node41 -->
<g id="edge43_Node000038_Node000041" class="edge">
<title>Node38&#45;&gt;Node41</title>
<g id="a_edge43_Node000038_Node000041"><a xlink:title=" ">
<path fill="none" stroke="#63b8ff" d="M454.11,-549.98C442.85,-541.92 425.71,-529.65 412.29,-520.03"/>
<polygon fill="#63b8ff" stroke="#63b8ff" points="414.27,-517.15 404.11,-514.17 410.2,-522.84 414.27,-517.15"/>
</a>
</g>
</g>
<!-- Node39&#45;&gt;Node3 -->
<g id="edge41_Node000039_Node000003" class="edge">
<title>Node39&#45;&gt;Node3</title>
<g id="a_edge41_Node000039_Node000003"><a xlink:title=" ">
<path fill="none" stroke="#63b8ff" d="M609.31,-439.98C597.17,-431.84 578.64,-419.41 564.25,-409.76"/>
<polygon fill="#63b8ff" stroke="#63b8ff" points="566.18,-406.84 555.92,-404.17 562.28,-412.65 566.18,-406.84"/>
</a>
</g>
</g>
<!-- Node39&#45;&gt;Node11 -->
<g id="edge40_Node000039_Node000011" class="edge">
<title>Node39&#45;&gt;Node11</title>
<g id="a_edge40_Node000039_Node000011"><a xlink:title=" ">
<path fill="none" stroke="#63b8ff" d="M639.33,-439.99C672.74,-422.28 741.16,-379.01 722,-330 701.96,-278.74 673.52,-281.04 638,-239 613.43,-209.92 545.43,-120.34 516.88,-82.57"/>
<polygon fill="#63b8ff" stroke="#63b8ff" points="519.35,-80.03 510.53,-74.16 513.76,-84.25 519.35,-80.03"/>
</a>
</g>
</g>
<!-- Node39&#45;&gt;Node14 -->
<g id="edge38_Node000039_Node000014" class="edge">
<title>Node39&#45;&gt;Node14</title>
<g id="a_edge38_Node000039_Node000014"><a xlink:title=" ">
<path fill="none" stroke="#63b8ff" d="M658.81,-440.4C705.21,-427.77 779,-398.56 779,-340.5 779,-340.5 779,-340.5 779,-118.5 779,-77.03 739.43,-42.84 713.06,-24.67"/>
<polygon fill="#63b8ff" stroke="#63b8ff" points="714.97,-21.73 704.7,-19.13 711.1,-27.57 714.97,-21.73"/>
</a>
</g>
</g>
<!-- Node39&#45;&gt;Node36 -->
<g id="edge39_Node000039_Node000036" class="edge">
<title>Node39&#45;&gt;Node36</title>
<g id="a_edge39_Node000039_Node000036"><a xlink:title=" ">
<path fill="none" stroke="#63b8ff" d="M631.35,-439.78C639.89,-431.35 652.32,-417.86 660,-404 667.8,-389.92 673.03,-372.38 676.18,-359.3"/>
<polygon fill="#63b8ff" stroke="#63b8ff" points="679.68,-359.68 678.42,-349.16 672.85,-358.16 679.68,-359.68"/>
</a>
</g>
</g>
<!-- Node40 -->
<g id="Node000040" class="node">
<title>Node40</title>
<g id="a_Node000040"><a xlink:title=" ">
<polygon fill="#e0e0e0" stroke="#999999" points="650.5,-404 593.5,-404 593.5,-385 650.5,-385 650.5,-404"/>
<text text-anchor="middle" x="622" y="-392" font-family="Helvetica,sans-Serif" font-size="10.00">typeinfo</text>
</a>
</g>
</g>
<!-- Node39&#45;&gt;Node40 -->
<g id="edge37_Node000039_Node000040" class="edge">
<title>Node39&#45;&gt;Node40</title>
<g id="a_edge37_Node000039_Node000040"><a xlink:title=" ">
<path fill="none" stroke="#63b8ff" d="M622,-439.75C622,-432.8 622,-422.85 622,-414.13"/>
<polygon fill="#63b8ff" stroke="#63b8ff" points="625.5,-414.09 622,-404.09 618.5,-414.09 625.5,-414.09"/>
</a>
</g>
</g>
<!-- Node41&#45;&gt;Node3 -->
<g id="edge44_Node000041_Node000003" class="edge">
<title>Node41&#45;&gt;Node3</title>
<g id="a_edge44_Node000041_Node000003"><a xlink:title=" ">
<path fill="none" stroke="#63b8ff" d="M404.1,-494.84C429.95,-476.36 490.77,-432.86 522.66,-410.05"/>
<polygon fill="#63b8ff" stroke="#63b8ff" points="524.74,-412.86 530.84,-404.2 520.67,-407.17 524.74,-412.86"/>
</a>
</g>
</g>
<!-- Node41&#45;&gt;Node11 -->
<g id="edge46_Node000041_Node000011" class="edge">
<title>Node41&#45;&gt;Node11</title>
<g id="a_edge46_Node000041_Node000011"><a xlink:title=" ">
<path fill="none" stroke="#63b8ff" d="M369.69,-494.86C353.97,-487.62 333.71,-475.76 322,-459 275.13,-391.89 264.87,-340.47 314,-275 337.16,-244.14 362.18,-262.22 393,-239 444.36,-200.31 457.06,-185.91 487,-129 494.4,-114.94 498.78,-97.39 501.23,-84.31"/>
<polygon fill="#63b8ff" stroke="#63b8ff" points="504.73,-84.6 502.92,-74.16 497.83,-83.45 504.73,-84.6"/>
</a>
</g>
</g>
<!-- Node41&#45;&gt;Node31 -->
<g id="edge51_Node000041_Node000031" class="edge">
<title>Node41&#45;&gt;Node31</title>
<g id="a_edge51_Node000041_Node000031"><a xlink:title=" ">
<path fill="none" stroke="#63b8ff" d="M376.53,-494.97C363.95,-487.23 346.74,-474.64 337,-459 310.5,-416.44 317.59,-398.82 312,-349 311.06,-340.61 308.84,-337.83 312,-330 316.69,-318.41 326,-308.16 334.76,-300.43"/>
<polygon fill="#63b8ff" stroke="#63b8ff" points="337,-303.12 342.51,-294.07 332.56,-297.71 337,-303.12"/>
</a>
</g>
</g>
<!-- Node41&#45;&gt;Node39 -->
<g id="edge45_Node000041_Node000039" class="edge">
<title>Node41&#45;&gt;Node39</title>
<g id="a_edge45_Node000041_Node000039"><a xlink:title=" ">
<path fill="none" stroke="#63b8ff" d="M428.7,-495.04C468.5,-485.87 532.14,-471.21 575.43,-461.23"/>
<polygon fill="#63b8ff" stroke="#63b8ff" points="576.47,-464.58 585.43,-458.93 574.9,-457.76 576.47,-464.58"/>
</a>
</g>
</g>
<!-- Node42 -->
<g id="Node000042" class="node">
<title>Node42</title>
<g id="a_Node000042"><a xlink:href="mp__arith_8h.html" target="_top" xlink:title=" ">
<polygon fill="white" stroke="#666666" points="167.5,-459 98.5,-459 98.5,-440 167.5,-440 167.5,-459"/>
<text text-anchor="middle" x="133" y="-447" font-family="Helvetica,sans-Serif" font-size="10.00">mp_arith.h</text>
</a>
</g>
</g>
<!-- Node41&#45;&gt;Node42 -->
<g id="edge47_Node000041_Node000042" class="edge">
<title>Node41&#45;&gt;Node42</title>
<g id="a_edge47_Node000041_Node000042"><a xlink:title=" ">
<path fill="none" stroke="#63b8ff" d="M355.44,-496.02C308.74,-486.46 227.95,-469.93 177.66,-459.64"/>
<polygon fill="#63b8ff" stroke="#63b8ff" points="178.22,-456.18 167.72,-457.6 176.81,-463.04 178.22,-456.18"/>
</a>
</g>
</g>
<!-- Node22 -->
<g id="Node000022" class="node">
<title>Node22</title>
<g id="a_Node000022"><a xlink:title=" ">
<polygon fill="#e0e0e0" stroke="#999999" points="438.5,-459 345.5,-459 345.5,-440 438.5,-440 438.5,-459"/>
<text text-anchor="middle" x="392" y="-447" font-family="Helvetica,sans-Serif" font-size="10.00">unordered_map</text>
</a>
</g>
</g>
<!-- Node41&#45;&gt;Node22 -->
<g id="edge52_Node000041_Node000022" class="edge">
<title>Node41&#45;&gt;Node22</title>
<g id="a_edge52_Node000041_Node000022"><a xlink:title=" ">
<path fill="none" stroke="#63b8ff" d="M392,-494.75C392,-487.8 392,-477.85 392,-469.13"/>
<polygon fill="#63b8ff" stroke="#63b8ff" points="395.5,-469.09 392,-459.09 388.5,-469.09 395.5,-469.09"/>
</a>
</g>
</g>
<!-- Node42&#45;&gt;Node9 -->
<g id="edge49_Node000042_Node000009" class="edge">
<title>Node42&#45;&gt;Node9</title>
<g id="a_edge49_Node000042_Node000009"><a xlink:title=" ">
<path fill="none" stroke="#63b8ff" d="M107.09,-439.91C90.15,-432.93 69,-421.35 57,-404 -1.6,-319.27 18,-278.52 18,-175.5 18,-175.5 18,-175.5 18,-118.5 18,-58.11 97.64,-29.03 143.84,-17.24"/>
<polygon fill="#63b8ff" stroke="#63b8ff" points="144.8,-20.61 153.7,-14.86 143.16,-13.81 144.8,-20.61"/>
</a>
</g>
</g>
<!-- Node17 -->
<g id="Node000017" class="node">
<title>Node17</title>
<g id="a_Node000017"><a xlink:title=" ">
<polygon fill="#e0e0e0" stroke="#999999" points="226,-404 178,-404 178,-385 226,-385 226,-404"/>
<text text-anchor="middle" x="202" y="-392" font-family="Helvetica,sans-Serif" font-size="10.00">iosfwd</text>
</a>
</g>
</g>
<!-- Node42&#45;&gt;Node17 -->
<g id="edge48_Node000042_Node000017" class="edge">
<title>Node42&#45;&gt;Node17</title>
<g id="a_edge48_Node000042_Node000017"><a xlink:title=" ">
<path fill="none" stroke="#63b8ff" d="M144.09,-439.98C154.49,-432 170.26,-419.88 182.72,-410.31"/>
<polygon fill="#63b8ff" stroke="#63b8ff" points="184.91,-413.04 190.71,-404.17 180.65,-407.49 184.91,-413.04"/>
</a>
</g>
</g>
<!-- Node43 -->
<g id="Node000043" class="node">
<title>Node43</title>
<g id="a_Node000043"><a xlink:title=" ">
<polygon fill="#e0e0e0" stroke="#999999" points="160,-404 66,-404 66,-385 160,-385 160,-404"/>
<text text-anchor="middle" x="113" y="-392" font-family="Helvetica,sans-Serif" font-size="10.00">big&#45;int/bigint.hh</text>
</a>
</g>
</g>
<!-- Node42&#45;&gt;Node43 -->
<g id="edge50_Node000042_Node000043" class="edge">
<title>Node42&#45;&gt;Node43</title>
<g id="a_edge50_Node000042_Node000043"><a xlink:title=" ">
<path fill="none" stroke="#63b8ff" d="M129.7,-439.75C127.02,-432.65 123.15,-422.4 119.81,-413.56"/>
<polygon fill="#63b8ff" stroke="#63b8ff" points="123.05,-412.21 116.24,-404.09 116.5,-414.68 123.05,-412.21"/>
</a>
</g>
</g>
</g>
</svg>
