<?xml version="1.0" encoding="UTF-8" standalone="no"?>
<!DOCTYPE svg PUBLIC "-//W3C//DTD SVG 1.1//EN"
 "http://www.w3.org/Graphics/SVG/1.1/DTD/svg11.dtd">
<!-- Generated by graphviz version 2.43.0 (0)
 -->
<!-- Title: /home/runner/work/cbmc/cbmc/src/ansi&#45;c/ansi_c_convert_type.cpp Pages: 1 -->
<svg width="1371pt" height="654pt"
 viewBox="0.00 0.00 1370.50 654.00" xmlns="http://www.w3.org/2000/svg" xmlns:xlink="http://www.w3.org/1999/xlink">
<g id="graph0" class="graph" transform="scale(1 1) rotate(0) translate(4 650)">
<title>/home/runner/work/cbmc/cbmc/src/ansi&#45;c/ansi_c_convert_type.cpp</title>
<!-- Node1 -->
<g id="Node000001" class="node">
<title>Node1</title>
<g id="a_Node000001"><a xlink:title="SpecC Language Conversion.">
<polygon fill="#999999" stroke="#666666" points="866.5,-646 728.5,-646 728.5,-605 866.5,-605 866.5,-646"/>
<text text-anchor="start" x="736.5" y="-634" font-family="Helvetica,sans-Serif" font-size="10.00">/home/runner/work/cbmc</text>
<text text-anchor="start" x="736.5" y="-623" font-family="Helvetica,sans-Serif" font-size="10.00">/cbmc/src/ansi&#45;c/ansi</text>
<text text-anchor="middle" x="797.5" y="-612" font-family="Helvetica,sans-Serif" font-size="10.00">_c_convert_type.cpp</text>
</a>
</g>
</g>
<!-- Node2 -->
<g id="Node000002" class="node">
<title>Node2</title>
<g id="a_Node000002"><a xlink:href="ansi__c__convert__type_8h.html" target="_top" xlink:title="ANSI&#45;C Language Conversion.">
<polygon fill="white" stroke="#666666" points="1191,-514 1066,-514 1066,-495 1191,-495 1191,-514"/>
<text text-anchor="middle" x="1128.5" y="-502" font-family="Helvetica,sans-Serif" font-size="10.00">ansi_c_convert_type.h</text>
</a>
</g>
</g>
<!-- Node1&#45;&gt;Node2 -->
<g id="edge1_Node000001_Node000002" class="edge">
<title>Node1&#45;&gt;Node2</title>
<g id="a_edge1_Node000001_Node000002"><a xlink:title=" ">
<path fill="none" stroke="#63b8ff" d="M866.78,-605.26C900.99,-595.29 942.72,-582.4 979.5,-569 1022.46,-553.35 1070.97,-531.96 1100.64,-518.43"/>
<polygon fill="#63b8ff" stroke="#63b8ff" points="1102.31,-521.52 1109.94,-514.17 1099.39,-515.16 1102.31,-521.52"/>
</a>
</g>
</g>
<!-- Node40 -->
<g id="Node000040" class="node">
<title>Node40</title>
<g id="a_Node000040"><a xlink:href="std__types_8h.html" target="_top" xlink:title="Pre&#45;defined types.">
<polygon fill="white" stroke="#666666" points="534,-404 461,-404 461,-385 534,-385 534,-404"/>
<text text-anchor="middle" x="497.5" y="-392" font-family="Helvetica,sans-Serif" font-size="10.00">std_types.h</text>
</a>
</g>
</g>
<!-- Node1&#45;&gt;Node40 -->
<g id="edge69_Node000001_Node000040" class="edge">
<title>Node1&#45;&gt;Node40</title>
<g id="a_edge69_Node000001_Node000040"><a xlink:title=" ">
<path fill="none" stroke="#63b8ff" d="M728.39,-615.01C667.66,-602.76 582.22,-575.17 537.5,-514 515.04,-483.28 504.59,-439.09 500.23,-414.27"/>
<polygon fill="#63b8ff" stroke="#63b8ff" points="503.63,-413.38 498.59,-404.06 496.72,-414.49 503.63,-413.38"/>
</a>
</g>
</g>
<!-- Node46 -->
<g id="Node000046" class="node">
<title>Node46</title>
<g id="a_Node000046"><a xlink:href="c__types_8h.html" target="_top" xlink:title=" ">
<polygon fill="white" stroke="#666666" points="719.5,-569 637.5,-569 637.5,-550 719.5,-550 719.5,-569"/>
<text text-anchor="middle" x="678.5" y="-557" font-family="Helvetica,sans-Serif" font-size="10.00">util/c_types.h</text>
</a>
</g>
</g>
<!-- Node1&#45;&gt;Node46 -->
<g id="edge48_Node000001_Node000046" class="edge">
<title>Node1&#45;&gt;Node46</title>
<g id="a_edge48_Node000001_Node000046"><a xlink:title=" ">
<path fill="none" stroke="#63b8ff" d="M761.15,-604.95C742.52,-594.93 720.31,-582.99 703.61,-574"/>
<polygon fill="#63b8ff" stroke="#63b8ff" points="704.94,-570.75 694.48,-569.09 701.62,-576.91 704.94,-570.75"/>
</a>
</g>
</g>
<!-- Node49 -->
<g id="Node000049" class="node">
<title>Node49</title>
<g id="a_Node000049"><a xlink:href="config_8h.html" target="_top" xlink:title=" ">
<polygon fill="white" stroke="#666666" points="1100.5,-349 1026.5,-349 1026.5,-330 1100.5,-330 1100.5,-349"/>
<text text-anchor="middle" x="1063.5" y="-337" font-family="Helvetica,sans-Serif" font-size="10.00">util/config.h</text>
</a>
</g>
</g>
<!-- Node1&#45;&gt;Node49 -->
<g id="edge54_Node000001_Node000049" class="edge">
<title>Node1&#45;&gt;Node49</title>
<g id="a_edge54_Node000001_Node000049"><a xlink:title=" ">
<path fill="none" stroke="#63b8ff" d="M866.8,-605.29C913.08,-587.75 965.5,-556.61 965.5,-505.5 965.5,-505.5 965.5,-505.5 965.5,-448.5 965.5,-405.55 1008.53,-372.1 1037.57,-354.42"/>
<polygon fill="#63b8ff" stroke="#63b8ff" points="1039.56,-357.3 1046.43,-349.24 1036.03,-351.26 1039.56,-357.3"/>
</a>
</g>
</g>
<!-- Node52 -->
<g id="Node000052" class="node">
<title>Node52</title>
<g id="a_Node000052"><a xlink:href="src_2util_2message_8h.html" target="_top" xlink:title=" ">
<polygon fill="white" stroke="#666666" points="930,-239 841,-239 841,-220 930,-220 930,-239"/>
<text text-anchor="middle" x="885.5" y="-227" font-family="Helvetica,sans-Serif" font-size="10.00">util/message.h</text>
</a>
</g>
</g>
<!-- Node1&#45;&gt;Node52 -->
<g id="edge62_Node000001_Node000052" class="edge">
<title>Node1&#45;&gt;Node52</title>
<g id="a_edge62_Node000001_Node000052"><a xlink:title=" ">
<path fill="none" stroke="#63b8ff" d="M829.67,-604.88C842.74,-595.47 856.98,-583.16 866.5,-569 882.94,-544.56 885.5,-534.96 885.5,-505.5 885.5,-505.5 885.5,-505.5 885.5,-338.5 885.5,-307.19 885.5,-270.77 885.5,-249.23"/>
<polygon fill="#63b8ff" stroke="#63b8ff" points="889,-249.18 885.5,-239.18 882,-249.18 889,-249.18"/>
</a>
</g>
</g>
<!-- Node53 -->
<g id="Node000053" class="node">
<title>Node53</title>
<g id="a_Node000053"><a xlink:href="string__constant_8h.html" target="_top" xlink:title=" ">
<polygon fill="white" stroke="#666666" points="857,-569 738,-569 738,-550 857,-550 857,-569"/>
<text text-anchor="middle" x="797.5" y="-557" font-family="Helvetica,sans-Serif" font-size="10.00">util/string_constant.h</text>
</a>
</g>
</g>
<!-- Node1&#45;&gt;Node53 -->
<g id="edge70_Node000001_Node000053" class="edge">
<title>Node1&#45;&gt;Node53</title>
<g id="a_edge70_Node000001_Node000053"><a xlink:title=" ">
<path fill="none" stroke="#63b8ff" d="M797.5,-604.95C797.5,-596.85 797.5,-587.5 797.5,-579.47"/>
<polygon fill="#63b8ff" stroke="#63b8ff" points="801,-579.26 797.5,-569.26 794,-579.26 801,-579.26"/>
</a>
</g>
</g>
<!-- Node54 -->
<g id="Node000054" class="node">
<title>Node54</title>
<g id="a_Node000054"><a xlink:href="gcc__types_8h.html" target="_top" xlink:title=" ">
<polygon fill="white" stroke="#666666" points="620.5,-514 546.5,-514 546.5,-495 620.5,-495 620.5,-514"/>
<text text-anchor="middle" x="583.5" y="-502" font-family="Helvetica,sans-Serif" font-size="10.00">gcc_types.h</text>
</a>
</g>
</g>
<!-- Node1&#45;&gt;Node54 -->
<g id="edge72_Node000001_Node000054" class="edge">
<title>Node1&#45;&gt;Node54</title>
<g id="a_edge72_Node000001_Node000054"><a xlink:title=" ">
<path fill="none" stroke="#63b8ff" d="M728.26,-612.26C695.69,-604.01 657.7,-590.55 628.5,-569 612.4,-557.12 599.87,-537.74 592.17,-523.51"/>
<polygon fill="#63b8ff" stroke="#63b8ff" points="595.1,-521.55 587.43,-514.24 588.86,-524.74 595.1,-521.55"/>
</a>
</g>
</g>
<!-- Node3 -->
<g id="Node000003" class="node">
<title>Node3</title>
<g id="a_Node000003"><a xlink:href="std__expr_8h.html" target="_top" xlink:title="API to expression classes.">
<polygon fill="white" stroke="#666666" points="772.5,-459 686.5,-459 686.5,-440 772.5,-440 772.5,-459"/>
<text text-anchor="middle" x="729.5" y="-447" font-family="Helvetica,sans-Serif" font-size="10.00">util/std_expr.h</text>
</a>
</g>
</g>
<!-- Node2&#45;&gt;Node3 -->
<g id="edge2_Node000002_Node000003" class="edge">
<title>Node2&#45;&gt;Node3</title>
<g id="a_edge2_Node000002_Node000003"><a xlink:title=" ">
<path fill="none" stroke="#63b8ff" d="M1065.72,-495.16C987.64,-484.79 855.73,-467.27 782.5,-457.54"/>
<polygon fill="#63b8ff" stroke="#63b8ff" points="782.94,-454.07 772.57,-456.22 782.02,-461.01 782.94,-454.07"/>
</a>
</g>
</g>
<!-- Node43 -->
<g id="Node000043" class="node">
<title>Node43</title>
<g id="a_Node000043"><a xlink:href="c__qualifiers_8h.html" target="_top" xlink:title=" ">
<polygon fill="white" stroke="#666666" points="1346,-459 1265,-459 1265,-440 1346,-440 1346,-459"/>
<text text-anchor="middle" x="1305.5" y="-447" font-family="Helvetica,sans-Serif" font-size="10.00">c_qualifiers.h</text>
</a>
</g>
</g>
<!-- Node2&#45;&gt;Node43 -->
<g id="edge42_Node000002_Node000043" class="edge">
<title>Node2&#45;&gt;Node43</title>
<g id="a_edge42_Node000002_Node000043"><a xlink:title=" ">
<path fill="none" stroke="#63b8ff" d="M1156.94,-494.98C1186.78,-486.05 1233.88,-471.94 1267.03,-462.02"/>
<polygon fill="#63b8ff" stroke="#63b8ff" points="1268.26,-465.3 1276.84,-459.08 1266.26,-458.6 1268.26,-465.3"/>
</a>
</g>
</g>
<!-- Node45 -->
<g id="Node000045" class="node">
<title>Node45</title>
<g id="a_Node000045"><a xlink:href="c__storage__spec_8h.html" target="_top" xlink:title=" ">
<polygon fill="white" stroke="#666666" points="1258,-404 1157,-404 1157,-385 1258,-385 1258,-404"/>
<text text-anchor="middle" x="1207.5" y="-392" font-family="Helvetica,sans-Serif" font-size="10.00">c_storage_spec.h</text>
</a>
</g>
</g>
<!-- Node2&#45;&gt;Node45 -->
<g id="edge45_Node000002_Node000045" class="edge">
<title>Node2&#45;&gt;Node45</title>
<g id="a_edge45_Node000002_Node000045"><a xlink:title=" ">
<path fill="none" stroke="#63b8ff" d="M1134.96,-494.66C1148.11,-476.69 1178.14,-435.64 1195.15,-412.38"/>
<polygon fill="#63b8ff" stroke="#63b8ff" points="1198.09,-414.3 1201.17,-404.16 1192.44,-410.16 1198.09,-414.3"/>
</a>
</g>
</g>
<!-- Node25 -->
<g id="Node000025" class="node">
<title>Node25</title>
<g id="a_Node000025"><a xlink:title=" ">
<polygon fill="#e0e0e0" stroke="#999999" points="1266.5,-294 1234.5,-294 1234.5,-275 1266.5,-275 1266.5,-294"/>
<text text-anchor="middle" x="1250.5" y="-282" font-family="Helvetica,sans-Serif" font-size="10.00">list</text>
</a>
</g>
</g>
<!-- Node2&#45;&gt;Node25 -->
<g id="edge47_Node000002_Node000025" class="edge">
<title>Node2&#45;&gt;Node25</title>
<g id="a_edge47_Node000002_Node000025"><a xlink:title=" ">
<path fill="none" stroke="#63b8ff" d="M1128.18,-494.89C1127.8,-474.53 1128.94,-422.33 1148.5,-385 1167.64,-348.47 1205.1,-317.32 1228.91,-300.04"/>
<polygon fill="#63b8ff" stroke="#63b8ff" points="1231.15,-302.74 1237.3,-294.11 1227.11,-297.02 1231.15,-302.74"/>
</a>
</g>
</g>
<!-- Node4 -->
<g id="Node000004" class="node">
<title>Node4</title>
<g id="a_Node000004"><a xlink:href="expr__cast_8h.html" target="_top" xlink:title="Templated functions to cast to specific exprt&#45;derived classes.">
<polygon fill="white" stroke="#666666" points="627,-349 554,-349 554,-330 627,-330 627,-349"/>
<text text-anchor="middle" x="590.5" y="-337" font-family="Helvetica,sans-Serif" font-size="10.00">expr_cast.h</text>
</a>
</g>
</g>
<!-- Node3&#45;&gt;Node4 -->
<g id="edge3_Node000003_Node000004" class="edge">
<title>Node3&#45;&gt;Node4</title>
<g id="a_edge3_Node000003_Node000004"><a xlink:title=" ">
<path fill="none" stroke="#63b8ff" d="M718.13,-439.66C694.39,-421.22 639.34,-378.45 609.9,-355.57"/>
<polygon fill="#63b8ff" stroke="#63b8ff" points="611.69,-352.53 601.64,-349.16 607.39,-358.06 611.69,-352.53"/>
</a>
</g>
</g>
<!-- Node8 -->
<g id="Node000008" class="node">
<title>Node8</title>
<g id="a_Node000008"><a xlink:href="src_2util_2invariant_8h.html" target="_top" xlink:title=" ">
<polygon fill="white" stroke="#666666" points="770,-74 701,-74 701,-55 770,-55 770,-74"/>
<text text-anchor="middle" x="735.5" y="-62" font-family="Helvetica,sans-Serif" font-size="10.00">invariant.h</text>
</a>
</g>
</g>
<!-- Node3&#45;&gt;Node8 -->
<g id="edge31_Node000003_Node000008" class="edge">
<title>Node3&#45;&gt;Node8</title>
<g id="a_edge31_Node000003_Node000008"><a xlink:title=" ">
<path fill="none" stroke="#63b8ff" d="M729.64,-439.78C730.4,-391.15 734.13,-153.16 735.21,-84.23"/>
<polygon fill="#63b8ff" stroke="#63b8ff" points="738.71,-84.09 735.37,-74.04 731.71,-83.98 738.71,-84.09"/>
</a>
</g>
</g>
<!-- Node3&#45;&gt;Node40 -->
<g id="edge32_Node000003_Node000040" class="edge">
<title>Node3&#45;&gt;Node40</title>
<g id="a_edge32_Node000003_Node000040"><a xlink:title=" ">
<path fill="none" stroke="#63b8ff" d="M692.23,-439.98C651.94,-430.78 587.67,-416.1 544.09,-406.14"/>
<polygon fill="#63b8ff" stroke="#63b8ff" points="544.83,-402.72 534.3,-403.91 543.27,-409.55 544.83,-402.72"/>
</a>
</g>
</g>
<!-- Node5 -->
<g id="Node000005" class="node">
<title>Node5</title>
<g id="a_Node000005"><a xlink:title=" ">
<polygon fill="#e0e0e0" stroke="#999999" points="626,-294 569,-294 569,-275 626,-275 626,-294"/>
<text text-anchor="middle" x="597.5" y="-282" font-family="Helvetica,sans-Serif" font-size="10.00">typeinfo</text>
</a>
</g>
</g>
<!-- Node4&#45;&gt;Node5 -->
<g id="edge4_Node000004_Node000005" class="edge">
<title>Node4&#45;&gt;Node5</title>
<g id="a_edge4_Node000004_Node000005"><a xlink:title=" ">
<path fill="none" stroke="#63b8ff" d="M591.66,-329.75C592.57,-322.8 593.89,-312.85 595.04,-304.13"/>
<polygon fill="#63b8ff" stroke="#63b8ff" points="598.53,-304.46 596.37,-294.09 591.59,-303.54 598.53,-304.46"/>
</a>
</g>
</g>
<!-- Node6 -->
<g id="Node000006" class="node">
<title>Node6</title>
<g id="a_Node000006"><a xlink:title=" ">
<polygon fill="#e0e0e0" stroke="#999999" points="537,-19 468,-19 468,0 537,0 537,-19"/>
<text text-anchor="middle" x="502.5" y="-7" font-family="Helvetica,sans-Serif" font-size="10.00">type_traits</text>
</a>
</g>
</g>
<!-- Node4&#45;&gt;Node6 -->
<g id="edge5_Node000004_Node000006" class="edge">
<title>Node4&#45;&gt;Node6</title>
<g id="a_edge5_Node000004_Node000006"><a xlink:title=" ">
<path fill="none" stroke="#63b8ff" d="M575.97,-329.83C550.97,-313.69 502.5,-276.45 502.5,-230.5 502.5,-230.5 502.5,-230.5 502.5,-118.5 502.5,-87.19 502.5,-50.77 502.5,-29.23"/>
<polygon fill="#63b8ff" stroke="#63b8ff" points="506,-29.18 502.5,-19.18 499,-29.18 506,-29.18"/>
</a>
</g>
</g>
<!-- Node7 -->
<g id="Node000007" class="node">
<title>Node7</title>
<g id="a_Node000007"><a xlink:title=" ">
<polygon fill="#e0e0e0" stroke="#999999" points="702,-184 637,-184 637,-165 702,-165 702,-184"/>
<text text-anchor="middle" x="669.5" y="-172" font-family="Helvetica,sans-Serif" font-size="10.00">functional</text>
</a>
</g>
</g>
<!-- Node4&#45;&gt;Node7 -->
<g id="edge6_Node000004_Node000007" class="edge">
<title>Node4&#45;&gt;Node7</title>
<g id="a_edge6_Node000004_Node000007"><a xlink:title=" ">
<path fill="none" stroke="#63b8ff" d="M601.84,-329.8C611.8,-321.58 625.99,-308.41 634.5,-294 653.52,-261.79 662.87,-218.48 666.9,-194.13"/>
<polygon fill="#63b8ff" stroke="#63b8ff" points="670.38,-194.53 668.43,-184.11 663.46,-193.47 670.38,-194.53"/>
</a>
</g>
</g>
<!-- Node4&#45;&gt;Node8 -->
<g id="edge7_Node000004_Node000008" class="edge">
<title>Node4&#45;&gt;Node8</title>
<g id="a_edge7_Node000004_Node000008"><a xlink:title=" ">
<path fill="none" stroke="#63b8ff" d="M583.34,-329.89C569.51,-312.36 540.5,-270.79 540.5,-230.5 540.5,-230.5 540.5,-230.5 540.5,-173.5 540.5,-105.23 633.1,-79.77 690.67,-70.53"/>
<polygon fill="#63b8ff" stroke="#63b8ff" points="691.27,-73.98 700.64,-69.04 690.23,-67.06 691.27,-73.98"/>
</a>
</g>
</g>
<!-- Node12 -->
<g id="Node000012" class="node">
<title>Node12</title>
<g id="a_Node000012"><a xlink:href="expr_8h.html" target="_top" xlink:title=" ">
<polygon fill="white" stroke="#666666" points="394,-294 347,-294 347,-275 394,-275 394,-294"/>
<text text-anchor="middle" x="370.5" y="-282" font-family="Helvetica,sans-Serif" font-size="10.00">expr.h</text>
</a>
</g>
</g>
<!-- Node4&#45;&gt;Node12 -->
<g id="edge12_Node000004_Node000012" class="edge">
<title>Node4&#45;&gt;Node12</title>
<g id="a_edge12_Node000004_Node000012"><a xlink:title=" ">
<path fill="none" stroke="#63b8ff" d="M555.15,-329.98C513.5,-319.95 444.8,-303.4 403.98,-293.57"/>
<polygon fill="#63b8ff" stroke="#63b8ff" points="404.77,-290.16 394.23,-291.22 403.14,-296.96 404.77,-290.16"/>
</a>
</g>
</g>
<!-- Node8&#45;&gt;Node6 -->
<g id="edge11_Node000008_Node000006" class="edge">
<title>Node8&#45;&gt;Node6</title>
<g id="a_edge11_Node000008_Node000006"><a xlink:title=" ">
<path fill="none" stroke="#63b8ff" d="M700.87,-55.62C660.06,-46.34 592.15,-30.89 547.35,-20.7"/>
<polygon fill="#63b8ff" stroke="#63b8ff" points="547.85,-17.23 537.32,-18.42 546.3,-24.05 547.85,-17.23"/>
</a>
</g>
</g>
<!-- Node9 -->
<g id="Node000009" class="node">
<title>Node9</title>
<g id="a_Node000009"><a xlink:title=" ">
<polygon fill="#e0e0e0" stroke="#999999" points="760,-19 711,-19 711,0 760,0 760,-19"/>
<text text-anchor="middle" x="735.5" y="-7" font-family="Helvetica,sans-Serif" font-size="10.00">cstdlib</text>
</a>
</g>
</g>
<!-- Node8&#45;&gt;Node9 -->
<g id="edge8_Node000008_Node000009" class="edge">
<title>Node8&#45;&gt;Node9</title>
<g id="a_edge8_Node000008_Node000009"><a xlink:title=" ">
<path fill="none" stroke="#63b8ff" d="M735.5,-54.75C735.5,-47.8 735.5,-37.85 735.5,-29.13"/>
<polygon fill="#63b8ff" stroke="#63b8ff" points="739,-29.09 735.5,-19.09 732,-29.09 739,-29.09"/>
</a>
</g>
</g>
<!-- Node10 -->
<g id="Node000010" class="node">
<title>Node10</title>
<g id="a_Node000010"><a xlink:title=" ">
<polygon fill="#e0e0e0" stroke="#999999" points="873.5,-19 817.5,-19 817.5,0 873.5,0 873.5,-19"/>
<text text-anchor="middle" x="845.5" y="-7" font-family="Helvetica,sans-Serif" font-size="10.00">sstream</text>
</a>
</g>
</g>
<!-- Node8&#45;&gt;Node10 -->
<g id="edge9_Node000008_Node000010" class="edge">
<title>Node8&#45;&gt;Node10</title>
<g id="a_edge9_Node000008_Node000010"><a xlink:title=" ">
<path fill="none" stroke="#63b8ff" d="M753.17,-54.98C770.79,-46.5 798.08,-33.35 818.43,-23.54"/>
<polygon fill="#63b8ff" stroke="#63b8ff" points="820.02,-26.66 827.51,-19.17 816.98,-20.36 820.02,-26.66"/>
</a>
</g>
</g>
<!-- Node11 -->
<g id="Node000011" class="node">
<title>Node11</title>
<g id="a_Node000011"><a xlink:title=" ">
<polygon fill="#e0e0e0" stroke="#999999" points="1078.5,-19 1034.5,-19 1034.5,0 1078.5,0 1078.5,-19"/>
<text text-anchor="middle" x="1056.5" y="-7" font-family="Helvetica,sans-Serif" font-size="10.00">string</text>
</a>
</g>
</g>
<!-- Node8&#45;&gt;Node11 -->
<g id="edge10_Node000008_Node000011" class="edge">
<title>Node8&#45;&gt;Node11</title>
<g id="a_edge10_Node000008_Node000011"><a xlink:title=" ">
<path fill="none" stroke="#63b8ff" d="M770.16,-57.78C832.71,-47.45 963.59,-25.84 1024.3,-15.82"/>
<polygon fill="#63b8ff" stroke="#63b8ff" points="1025.15,-19.22 1034.45,-14.14 1024.01,-12.32 1025.15,-19.22"/>
</a>
</g>
</g>
<!-- Node12&#45;&gt;Node7 -->
<g id="edge30_Node000012_Node000007" class="edge">
<title>Node12&#45;&gt;Node7</title>
<g id="a_edge30_Node000012_Node000007"><a xlink:title=" ">
<path fill="none" stroke="#63b8ff" d="M394.21,-274.94C447.2,-255.79 575.34,-209.51 636.26,-187.51"/>
<polygon fill="#63b8ff" stroke="#63b8ff" points="637.57,-190.75 645.79,-184.07 635.19,-184.17 637.57,-190.75"/>
</a>
</g>
</g>
<!-- Node13 -->
<g id="Node000013" class="node">
<title>Node13</title>
<g id="a_Node000013"><a xlink:href="as__const_8h.html" target="_top" xlink:title=" ">
<polygon fill="white" stroke="#666666" points="398.5,-239 330.5,-239 330.5,-220 398.5,-220 398.5,-239"/>
<text text-anchor="middle" x="364.5" y="-227" font-family="Helvetica,sans-Serif" font-size="10.00">as_const.h</text>
</a>
</g>
</g>
<!-- Node12&#45;&gt;Node13 -->
<g id="edge13_Node000012_Node000013" class="edge">
<title>Node12&#45;&gt;Node13</title>
<g id="a_edge13_Node000012_Node000013"><a xlink:title=" ">
<path fill="none" stroke="#63b8ff" d="M369.51,-274.75C368.72,-267.8 367.6,-257.85 366.61,-249.13"/>
<polygon fill="#63b8ff" stroke="#63b8ff" points="370.08,-248.63 365.47,-239.09 363.12,-249.42 370.08,-248.63"/>
</a>
</g>
</g>
<!-- Node14 -->
<g id="Node000014" class="node">
<title>Node14</title>
<g id="a_Node000014"><a xlink:href="type_8h.html" target="_top" xlink:title="Defines typet, type_with_subtypet and type_with_subtypest.">
<polygon fill="white" stroke="#666666" points="165,-239 118,-239 118,-220 165,-220 165,-239"/>
<text text-anchor="middle" x="141.5" y="-227" font-family="Helvetica,sans-Serif" font-size="10.00">type.h</text>
</a>
</g>
</g>
<!-- Node12&#45;&gt;Node14 -->
<g id="edge14_Node000012_Node000014" class="edge">
<title>Node12&#45;&gt;Node14</title>
<g id="a_edge14_Node000012_Node000014"><a xlink:title=" ">
<path fill="none" stroke="#63b8ff" d="M346.78,-278.44C311.44,-270.84 242.66,-255.81 175.18,-239.35"/>
<polygon fill="#63b8ff" stroke="#63b8ff" points="175.79,-235.89 165.24,-236.91 174.12,-242.69 175.79,-235.89"/>
</a>
</g>
</g>
<!-- Node37 -->
<g id="Node000037" class="node">
<title>Node37</title>
<g id="a_Node000037"><a xlink:href="validation__mode_8h.html" target="_top" xlink:title=" ">
<polygon fill="white" stroke="#666666" points="168,-129 61,-129 61,-110 168,-110 168,-129"/>
<text text-anchor="middle" x="114.5" y="-117" font-family="Helvetica,sans-Serif" font-size="10.00">validation_mode.h</text>
</a>
</g>
</g>
<!-- Node12&#45;&gt;Node37 -->
<g id="edge29_Node000012_Node000037" class="edge">
<title>Node12&#45;&gt;Node37</title>
<g id="a_edge29_Node000012_Node000037"><a xlink:title=" ">
<path fill="none" stroke="#63b8ff" d="M346.65,-283.2C287.94,-281.9 138.94,-275.04 108.5,-239 84.78,-210.91 97.05,-164.38 106.66,-138.78"/>
<polygon fill="#63b8ff" stroke="#63b8ff" points="110.03,-139.79 110.5,-129.21 103.53,-137.19 110.03,-139.79"/>
</a>
</g>
</g>
<!-- Node38 -->
<g id="Node000038" class="node">
<title>Node38</title>
<g id="a_Node000038"><a xlink:href="validate__types_8h.html" target="_top" xlink:title=" ">
<polygon fill="white" stroke="#666666" points="352.5,-184 254.5,-184 254.5,-165 352.5,-165 352.5,-184"/>
<text text-anchor="middle" x="303.5" y="-172" font-family="Helvetica,sans-Serif" font-size="10.00">validate_types.h</text>
</a>
</g>
</g>
<!-- Node12&#45;&gt;Node38 -->
<g id="edge28_Node000012_Node000038" class="edge">
<title>Node12&#45;&gt;Node38</title>
<g id="a_edge28_Node000012_Node000038"><a xlink:title=" ">
<path fill="none" stroke="#63b8ff" d="M381.94,-274.9C396.98,-262.51 420.08,-239.06 407.5,-220 397.05,-204.16 379.68,-193.94 362.09,-187.35"/>
<polygon fill="#63b8ff" stroke="#63b8ff" points="362.94,-183.95 352.35,-184.05 360.7,-190.58 362.94,-183.95"/>
</a>
</g>
</g>
<!-- Node39 -->
<g id="Node000039" class="node">
<title>Node39</title>
<g id="a_Node000039"><a xlink:href="validate__expressions_8h.html" target="_top" xlink:title=" ">
<polygon fill="white" stroke="#666666" points="312,-239 183,-239 183,-220 312,-220 312,-239"/>
<text text-anchor="middle" x="247.5" y="-227" font-family="Helvetica,sans-Serif" font-size="10.00">validate_expressions.h</text>
</a>
</g>
</g>
<!-- Node12&#45;&gt;Node39 -->
<g id="edge27_Node000012_Node000039" class="edge">
<title>Node12&#45;&gt;Node39</title>
<g id="a_edge27_Node000012_Node000039"><a xlink:title=" ">
<path fill="none" stroke="#63b8ff" d="M350.74,-274.98C330.77,-266.38 299.7,-252.99 276.85,-243.15"/>
<polygon fill="#63b8ff" stroke="#63b8ff" points="278.19,-239.91 267.62,-239.17 275.42,-246.34 278.19,-239.91"/>
</a>
</g>
</g>
<!-- Node15 -->
<g id="Node000015" class="node">
<title>Node15</title>
<g id="a_Node000015"><a xlink:href="source__location_8h.html" target="_top" xlink:title=" ">
<polygon fill="white" stroke="#666666" points="936.5,-184 834.5,-184 834.5,-165 936.5,-165 936.5,-184"/>
<text text-anchor="middle" x="885.5" y="-172" font-family="Helvetica,sans-Serif" font-size="10.00">source_location.h</text>
</a>
</g>
</g>
<!-- Node14&#45;&gt;Node15 -->
<g id="edge15_Node000014_Node000015" class="edge">
<title>Node14&#45;&gt;Node15</title>
<g id="a_edge15_Node000014_Node000015"><a xlink:title=" ">
<path fill="none" stroke="#63b8ff" d="M165.15,-221.66C167.95,-221.02 170.78,-220.44 173.5,-220 236.75,-209.73 663.06,-186.98 824.08,-178.64"/>
<polygon fill="#63b8ff" stroke="#63b8ff" points="824.49,-182.13 834.3,-178.11 824.13,-175.14 824.49,-182.13"/>
</a>
</g>
</g>
<!-- Node35 -->
<g id="Node000035" class="node">
<title>Node35</title>
<g id="a_Node000035"><a xlink:href="validate_8h.html" target="_top" xlink:title=" ">
<polygon fill="#fff0f0" stroke="red" points="65,-184 0,-184 0,-165 65,-165 65,-184"/>
<text text-anchor="middle" x="32.5" y="-172" font-family="Helvetica,sans-Serif" font-size="10.00">validate.h</text>
</a>
</g>
</g>
<!-- Node14&#45;&gt;Node35 -->
<g id="edge22_Node000014_Node000035" class="edge">
<title>Node14&#45;&gt;Node35</title>
<g id="a_edge22_Node000014_Node000035"><a xlink:title=" ">
<path fill="none" stroke="#63b8ff" d="M123.99,-219.98C106.53,-211.5 79.49,-198.35 59.33,-188.54"/>
<polygon fill="#63b8ff" stroke="#63b8ff" points="60.86,-185.4 50.33,-184.17 57.79,-191.69 60.86,-185.4"/>
</a>
</g>
</g>
<!-- Node14&#45;&gt;Node37 -->
<g id="edge26_Node000014_Node000037" class="edge">
<title>Node14&#45;&gt;Node37</title>
<g id="a_edge26_Node000014_Node000037"><a xlink:title=" ">
<path fill="none" stroke="#63b8ff" d="M139.29,-219.66C134.9,-202.09 124.99,-162.45 119.11,-138.95"/>
<polygon fill="#63b8ff" stroke="#63b8ff" points="122.49,-138.01 116.66,-129.16 115.69,-139.71 122.49,-138.01"/>
</a>
</g>
</g>
<!-- Node14&#45;&gt;Node38 -->
<g id="edge25_Node000014_Node000038" class="edge">
<title>Node14&#45;&gt;Node38</title>
<g id="a_edge25_Node000014_Node000038"><a xlink:title=" ">
<path fill="none" stroke="#63b8ff" d="M165.06,-220.79C192.06,-211.96 236.61,-197.38 267.86,-187.16"/>
<polygon fill="#63b8ff" stroke="#63b8ff" points="269.08,-190.44 277.5,-184.01 266.91,-183.79 269.08,-190.44"/>
</a>
</g>
</g>
<!-- Node15&#45;&gt;Node11 -->
<g id="edge21_Node000015_Node000011" class="edge">
<title>Node15&#45;&gt;Node11</title>
<g id="a_edge21_Node000015_Node000011"><a xlink:title=" ">
<path fill="none" stroke="#63b8ff" d="M892.41,-164.96C902.65,-152.45 922.7,-128.62 941.5,-110 973.6,-78.2 1014.17,-44.45 1037.55,-25.57"/>
<polygon fill="#63b8ff" stroke="#63b8ff" points="1040,-28.09 1045.61,-19.1 1035.62,-22.63 1040,-28.09"/>
</a>
</g>
</g>
<!-- Node16 -->
<g id="Node000016" class="node">
<title>Node16</title>
<g id="a_Node000016"><a xlink:href="deprecate_8h.html" target="_top" xlink:title=" ">
<polygon fill="white" stroke="#666666" points="856.5,-129 782.5,-129 782.5,-110 856.5,-110 856.5,-129"/>
<text text-anchor="middle" x="819.5" y="-117" font-family="Helvetica,sans-Serif" font-size="10.00">deprecate.h</text>
</a>
</g>
</g>
<!-- Node15&#45;&gt;Node16 -->
<g id="edge16_Node000015_Node000016" class="edge">
<title>Node15&#45;&gt;Node16</title>
<g id="a_edge16_Node000015_Node000016"><a xlink:title=" ">
<path fill="none" stroke="#63b8ff" d="M874.9,-164.98C865.04,-157.07 850.15,-145.11 838.28,-135.58"/>
<polygon fill="#63b8ff" stroke="#63b8ff" points="840.29,-132.7 830.3,-129.17 835.9,-138.16 840.29,-132.7"/>
</a>
</g>
</g>
<!-- Node17 -->
<g id="Node000017" class="node">
<title>Node17</title>
<g id="a_Node000017"><a xlink:href="irep_8h.html" target="_top" xlink:title=" ">
<polygon fill="#fff0f0" stroke="red" points="1106.5,-129 1062.5,-129 1062.5,-110 1106.5,-110 1106.5,-129"/>
<text text-anchor="middle" x="1084.5" y="-117" font-family="Helvetica,sans-Serif" font-size="10.00">irep.h</text>
</a>
</g>
</g>
<!-- Node15&#45;&gt;Node17 -->
<g id="edge17_Node000015_Node000017" class="edge">
<title>Node15&#45;&gt;Node17</title>
<g id="a_edge17_Node000015_Node000017"><a xlink:title=" ">
<path fill="none" stroke="#63b8ff" d="M917.47,-164.98C954.63,-155.09 1015.58,-138.86 1052.67,-128.98"/>
<polygon fill="#63b8ff" stroke="#63b8ff" points="1053.7,-132.32 1062.46,-126.37 1051.9,-125.56 1053.7,-132.32"/>
</a>
</g>
</g>
<!-- Node34 -->
<g id="Node000034" class="node">
<title>Node34</title>
<g id="a_Node000034"><a xlink:title=" ">
<polygon fill="#e0e0e0" stroke="#999999" points="1006.5,-129 950.5,-129 950.5,-110 1006.5,-110 1006.5,-129"/>
<text text-anchor="middle" x="978.5" y="-117" font-family="Helvetica,sans-Serif" font-size="10.00">optional</text>
</a>
</g>
</g>
<!-- Node15&#45;&gt;Node34 -->
<g id="edge20_Node000015_Node000034" class="edge">
<title>Node15&#45;&gt;Node34</title>
<g id="a_edge20_Node000015_Node000034"><a xlink:title=" ">
<path fill="none" stroke="#63b8ff" d="M900.44,-164.98C915,-156.69 937.37,-143.94 954.43,-134.22"/>
<polygon fill="#63b8ff" stroke="#63b8ff" points="956.33,-137.16 963.29,-129.17 952.86,-131.08 956.33,-137.16"/>
</a>
</g>
</g>
<!-- Node17&#45;&gt;Node8 -->
<g id="edge19_Node000017_Node000008" class="edge">
<title>Node17&#45;&gt;Node8</title>
<g id="a_edge19_Node000017_Node000008"><a xlink:title=" ">
<path fill="none" stroke="#63b8ff" d="M1062.4,-115.14C1006.02,-106.58 855.93,-83.79 780.34,-72.31"/>
<polygon fill="#63b8ff" stroke="#63b8ff" points="780.59,-68.81 770.18,-70.77 779.54,-75.73 780.59,-68.81"/>
</a>
</g>
</g>
<!-- Node17&#45;&gt;Node11 -->
<g id="edge18_Node000017_Node000011" class="edge">
<title>Node17&#45;&gt;Node11</title>
<g id="a_edge18_Node000017_Node000011"><a xlink:title=" ">
<path fill="none" stroke="#63b8ff" d="M1082.21,-109.66C1077.65,-92.09 1067.38,-52.45 1061.28,-28.95"/>
<polygon fill="#63b8ff" stroke="#63b8ff" points="1064.64,-27.96 1058.74,-19.16 1057.87,-29.72 1064.64,-27.96"/>
</a>
</g>
</g>
<!-- Node35&#45;&gt;Node6 -->
<g id="edge23_Node000035_Node000006" class="edge">
<title>Node35&#45;&gt;Node6</title>
<g id="a_edge23_Node000035_Node000006"><a xlink:title=" ">
<path fill="none" stroke="#63b8ff" d="M32.48,-164.68C32.96,-150.91 35.99,-124.41 51.5,-110 110.64,-55.06 355.71,-24.99 457.68,-14.66"/>
<polygon fill="#63b8ff" stroke="#63b8ff" points="458.06,-18.14 467.67,-13.66 457.37,-11.17 458.06,-18.14"/>
</a>
</g>
</g>
<!-- Node35&#45;&gt;Node37 -->
<g id="edge24_Node000035_Node000037" class="edge">
<title>Node35&#45;&gt;Node37</title>
<g id="a_edge24_Node000035_Node000037"><a xlink:title=" ">
<path fill="none" stroke="#63b8ff" d="M45.67,-164.98C58.27,-156.84 77.5,-144.41 92.44,-134.76"/>
<polygon fill="#63b8ff" stroke="#63b8ff" points="94.59,-137.54 101.09,-129.17 90.79,-131.66 94.59,-137.54"/>
</a>
</g>
</g>
<!-- Node40&#45;&gt;Node4 -->
<g id="edge34_Node000040_Node000004" class="edge">
<title>Node40&#45;&gt;Node4</title>
<g id="a_edge34_Node000040_Node000004"><a xlink:title=" ">
<path fill="none" stroke="#63b8ff" d="M512.44,-384.98C527,-376.69 549.37,-363.94 566.43,-354.22"/>
<polygon fill="#63b8ff" stroke="#63b8ff" points="568.33,-357.16 575.29,-349.17 564.86,-351.08 568.33,-357.16"/>
</a>
</g>
</g>
<!-- Node40&#45;&gt;Node8 -->
<g id="edge35_Node000040_Node000008" class="edge">
<title>Node40&#45;&gt;Node8</title>
<g id="a_edge35_Node000040_Node000008"><a xlink:title=" ">
<path fill="none" stroke="#63b8ff" d="M475.71,-384.87C460.86,-377.69 442.34,-365.91 433.5,-349 429.59,-341.52 431.41,-338.18 433.5,-330 461.02,-222.08 465.21,-177.9 553.5,-110 593.15,-79.51 650.82,-69.59 690.57,-66.53"/>
<polygon fill="#63b8ff" stroke="#63b8ff" points="691.02,-70.01 700.77,-65.87 690.56,-63.03 691.02,-70.01"/>
</a>
</g>
</g>
<!-- Node40&#45;&gt;Node12 -->
<g id="edge33_Node000040_Node000012" class="edge">
<title>Node40&#45;&gt;Node12</title>
<g id="a_edge33_Node000040_Node000012"><a xlink:title=" ">
<path fill="none" stroke="#63b8ff" d="M464.89,-384.86C444.29,-378 418.29,-366.59 400.5,-349 387.91,-336.55 379.95,-317.8 375.42,-303.9"/>
<polygon fill="#63b8ff" stroke="#63b8ff" points="378.69,-302.6 372.5,-294 371.97,-304.58 378.69,-302.6"/>
</a>
</g>
</g>
<!-- Node40&#45;&gt;Node35 -->
<g id="edge40_Node000040_Node000035" class="edge">
<title>Node40&#45;&gt;Node35</title>
<g id="a_edge40_Node000040_Node000035"><a xlink:title=" ">
<path fill="none" stroke="#63b8ff" d="M460.98,-385.01C387.37,-366.74 217.76,-318.78 95.5,-239 75.68,-226.07 57.14,-206.03 45.37,-191.93"/>
<polygon fill="#63b8ff" stroke="#63b8ff" points="47.98,-189.6 38.97,-184.04 42.55,-194.01 47.98,-189.6"/>
</a>
</g>
</g>
<!-- Node41 -->
<g id="Node000041" class="node">
<title>Node41</title>
<g id="a_Node000041"><a xlink:href="mp__arith_8h.html" target="_top" xlink:title=" ">
<polygon fill="white" stroke="#666666" points="1082,-239 1013,-239 1013,-220 1082,-220 1082,-239"/>
<text text-anchor="middle" x="1047.5" y="-227" font-family="Helvetica,sans-Serif" font-size="10.00">mp_arith.h</text>
</a>
</g>
</g>
<!-- Node40&#45;&gt;Node41 -->
<g id="edge36_Node000040_Node000041" class="edge">
<title>Node40&#45;&gt;Node41</title>
<g id="a_edge36_Node000040_Node000041"><a xlink:title=" ">
<path fill="none" stroke="#63b8ff" d="M526.3,-384.97C618.17,-357.74 904.38,-272.91 1008.84,-241.96"/>
<polygon fill="#63b8ff" stroke="#63b8ff" points="1010.06,-245.24 1018.66,-239.05 1008.08,-238.53 1010.06,-245.24"/>
</a>
</g>
</g>
<!-- Node26 -->
<g id="Node000026" class="node">
<title>Node26</title>
<g id="a_Node000026"><a xlink:title=" ">
<polygon fill="#e0e0e0" stroke="#999999" points="536,-349 443,-349 443,-330 536,-330 536,-349"/>
<text text-anchor="middle" x="489.5" y="-337" font-family="Helvetica,sans-Serif" font-size="10.00">unordered_map</text>
</a>
</g>
</g>
<!-- Node40&#45;&gt;Node26 -->
<g id="edge41_Node000040_Node000026" class="edge">
<title>Node40&#45;&gt;Node26</title>
<g id="a_edge41_Node000040_Node000026"><a xlink:title=" ">
<path fill="none" stroke="#63b8ff" d="M496.18,-384.75C495.13,-377.8 493.63,-367.85 492.31,-359.13"/>
<polygon fill="#63b8ff" stroke="#63b8ff" points="495.75,-358.45 490.8,-349.09 488.83,-359.5 495.75,-358.45"/>
</a>
</g>
</g>
<!-- Node41&#45;&gt;Node11 -->
<g id="edge38_Node000041_Node000011" class="edge">
<title>Node41&#45;&gt;Node11</title>
<g id="a_edge38_Node000041_Node000011"><a xlink:title=" ">
<path fill="none" stroke="#63b8ff" d="M1082.11,-220.04C1100.81,-213.51 1122.31,-202.38 1133.5,-184 1162.18,-136.87 1071.55,-156.92 1053.5,-129 1033.74,-98.44 1042.71,-53.56 1050.15,-28.72"/>
<polygon fill="#63b8ff" stroke="#63b8ff" points="1053.5,-29.72 1053.25,-19.12 1046.84,-27.56 1053.5,-29.72"/>
</a>
</g>
</g>
<!-- Node21 -->
<g id="Node000021" class="node">
<title>Node21</title>
<g id="a_Node000021"><a xlink:title=" ">
<polygon fill="#e0e0e0" stroke="#999999" points="1228.5,-184 1180.5,-184 1180.5,-165 1228.5,-165 1228.5,-184"/>
<text text-anchor="middle" x="1204.5" y="-172" font-family="Helvetica,sans-Serif" font-size="10.00">iosfwd</text>
</a>
</g>
</g>
<!-- Node41&#45;&gt;Node21 -->
<g id="edge37_Node000041_Node000021" class="edge">
<title>Node41&#45;&gt;Node21</title>
<g id="a_edge37_Node000041_Node000021"><a xlink:title=" ">
<path fill="none" stroke="#63b8ff" d="M1072.72,-219.98C1099.24,-211.03 1141.12,-196.9 1170.53,-186.97"/>
<polygon fill="#63b8ff" stroke="#63b8ff" points="1172.01,-190.16 1180.37,-183.65 1169.77,-183.53 1172.01,-190.16"/>
</a>
</g>
</g>
<!-- Node42 -->
<g id="Node000042" class="node">
<title>Node42</title>
<g id="a_Node000042"><a xlink:title=" ">
<polygon fill="#e0e0e0" stroke="#999999" points="1124.5,-184 1030.5,-184 1030.5,-165 1124.5,-165 1124.5,-184"/>
<text text-anchor="middle" x="1077.5" y="-172" font-family="Helvetica,sans-Serif" font-size="10.00">big&#45;int/bigint.hh</text>
</a>
</g>
</g>
<!-- Node41&#45;&gt;Node42 -->
<g id="edge39_Node000041_Node000042" class="edge">
<title>Node41&#45;&gt;Node42</title>
<g id="a_edge39_Node000041_Node000042"><a xlink:title=" ">
<path fill="none" stroke="#63b8ff" d="M1052.45,-219.75C1056.56,-212.49 1062.53,-201.95 1067.6,-192.98"/>
<polygon fill="#63b8ff" stroke="#63b8ff" points="1070.76,-194.52 1072.64,-184.09 1064.67,-191.07 1070.76,-194.52"/>
</a>
</g>
</g>
<!-- Node43&#45;&gt;Node11 -->
<g id="edge44_Node000043_Node000011" class="edge">
<title>Node43&#45;&gt;Node11</title>
<g id="a_edge44_Node000043_Node000011"><a xlink:title=" ">
<path fill="none" stroke="#63b8ff" d="M1314.89,-439.81C1323.47,-431.4 1335.92,-417.92 1343.5,-404 1357.59,-378.13 1362.5,-369.96 1362.5,-340.5 1362.5,-340.5 1362.5,-340.5 1362.5,-118.5 1362.5,-60.93 1167.45,-26.44 1088.8,-14.88"/>
<polygon fill="#63b8ff" stroke="#63b8ff" points="1088.9,-11.36 1078.51,-13.4 1087.91,-18.29 1088.9,-11.36"/>
</a>
</g>
</g>
<!-- Node44 -->
<g id="Node000044" class="node">
<title>Node44</title>
<g id="a_Node000044"><a xlink:title=" ">
<polygon fill="#e0e0e0" stroke="#999999" points="1334.5,-404 1276.5,-404 1276.5,-385 1334.5,-385 1334.5,-404"/>
<text text-anchor="middle" x="1305.5" y="-392" font-family="Helvetica,sans-Serif" font-size="10.00">memory</text>
</a>
</g>
</g>
<!-- Node43&#45;&gt;Node44 -->
<g id="edge43_Node000043_Node000044" class="edge">
<title>Node43&#45;&gt;Node44</title>
<g id="a_edge43_Node000043_Node000044"><a xlink:title=" ">
<path fill="none" stroke="#63b8ff" d="M1305.5,-439.75C1305.5,-432.8 1305.5,-422.85 1305.5,-414.13"/>
<polygon fill="#63b8ff" stroke="#63b8ff" points="1309,-414.09 1305.5,-404.09 1302,-414.09 1309,-414.09"/>
</a>
</g>
</g>
<!-- Node45&#45;&gt;Node17 -->
<g id="edge46_Node000045_Node000017" class="edge">
<title>Node45&#45;&gt;Node17</title>
<g id="a_edge46_Node000045_Node000017"><a xlink:title=" ">
<path fill="none" stroke="#63b8ff" d="M1221.87,-384.79C1246.58,-368.58 1294.5,-331.25 1294.5,-285.5 1294.5,-285.5 1294.5,-285.5 1294.5,-228.5 1294.5,-149.57 1175.74,-128.28 1116.84,-122.57"/>
<polygon fill="#63b8ff" stroke="#63b8ff" points="1116.84,-119.06 1106.58,-121.67 1116.23,-126.03 1116.84,-119.06"/>
</a>
</g>
</g>
<!-- Node46&#45;&gt;Node16 -->
<g id="edge49_Node000046_Node000016" class="edge">
<title>Node46&#45;&gt;Node16</title>
<g id="a_edge49_Node000046_Node000016"><a xlink:title=" ">
<path fill="none" stroke="#63b8ff" d="M675.4,-549.95C669.12,-531.86 655.5,-488.27 655.5,-450.5 655.5,-450.5 655.5,-450.5 655.5,-393.5 655.5,-367.92 611.59,-185.02 627.5,-165 645.23,-142.7 721.13,-130.58 772.03,-124.83"/>
<polygon fill="#63b8ff" stroke="#63b8ff" points="772.6,-128.29 782.17,-123.74 771.85,-121.33 772.6,-128.29"/>
</a>
</g>
</g>
<!-- Node47 -->
<g id="Node000047" class="node">
<title>Node47</title>
<g id="a_Node000047"><a xlink:href="pointer__expr_8h.html" target="_top" xlink:title="API to expression classes for Pointers.">
<polygon fill="white" stroke="#666666" points="769.5,-514 683.5,-514 683.5,-495 769.5,-495 769.5,-514"/>
<text text-anchor="middle" x="726.5" y="-502" font-family="Helvetica,sans-Serif" font-size="10.00">pointer_expr.h</text>
</a>
</g>
</g>
<!-- Node46&#45;&gt;Node47 -->
<g id="edge50_Node000046_Node000047" class="edge">
<title>Node46&#45;&gt;Node47</title>
<g id="a_edge50_Node000046_Node000047"><a xlink:title=" ">
<path fill="none" stroke="#63b8ff" d="M686.43,-549.75C693.35,-542.11 703.57,-530.82 711.95,-521.56"/>
<polygon fill="#63b8ff" stroke="#63b8ff" points="714.6,-523.85 718.72,-514.09 709.41,-519.15 714.6,-523.85"/>
</a>
</g>
</g>
<!-- Node47&#45;&gt;Node3 -->
<g id="edge53_Node000047_Node000003" class="edge">
<title>Node47&#45;&gt;Node3</title>
<g id="a_edge53_Node000047_Node000003"><a xlink:title=" ">
<path fill="none" stroke="#63b8ff" d="M727,-494.75C727.39,-487.8 727.95,-477.85 728.45,-469.13"/>
<polygon fill="#63b8ff" stroke="#63b8ff" points="731.94,-469.27 729.01,-459.09 724.95,-468.88 731.94,-469.27"/>
</a>
</g>
</g>
<!-- Node48 -->
<g id="Node000048" class="node">
<title>Node48</title>
<g id="a_Node000048"><a xlink:href="bitvector__types_8h.html" target="_top" xlink:title="Pre&#45;defined bitvector types.">
<polygon fill="white" stroke="#666666" points="627,-459 526,-459 526,-440 627,-440 627,-459"/>
<text text-anchor="middle" x="576.5" y="-447" font-family="Helvetica,sans-Serif" font-size="10.00">bitvector_types.h</text>
</a>
</g>
</g>
<!-- Node47&#45;&gt;Node48 -->
<g id="edge51_Node000047_Node000048" class="edge">
<title>Node47&#45;&gt;Node48</title>
<g id="a_edge51_Node000047_Node000048"><a xlink:title=" ">
<path fill="none" stroke="#63b8ff" d="M702.4,-494.98C677.62,-486.23 638.8,-472.51 610.81,-462.62"/>
<polygon fill="#63b8ff" stroke="#63b8ff" points="611.63,-459.2 601.04,-459.17 609.3,-465.8 611.63,-459.2"/>
</a>
</g>
</g>
<!-- Node48&#45;&gt;Node40 -->
<g id="edge52_Node000048_Node000040" class="edge">
<title>Node48&#45;&gt;Node40</title>
<g id="a_edge52_Node000048_Node000040"><a xlink:title=" ">
<path fill="none" stroke="#63b8ff" d="M563.81,-439.98C551.67,-431.84 533.14,-419.41 518.75,-409.76"/>
<polygon fill="#63b8ff" stroke="#63b8ff" points="520.68,-406.84 510.42,-404.17 516.78,-412.65 520.68,-406.84"/>
</a>
</g>
</g>
<!-- Node49&#45;&gt;Node17 -->
<g id="edge59_Node000049_Node000017" class="edge">
<title>Node49&#45;&gt;Node17</title>
<g id="a_edge59_Node000049_Node000017"><a xlink:title=" ">
<path fill="none" stroke="#63b8ff" d="M1079.77,-329.85C1095.6,-321.26 1120.16,-307.47 1140.5,-294 1194.85,-258.01 1224.18,-247.81 1237.5,-184 1239.23,-175.73 1242.57,-171.75 1237.5,-165 1222.99,-145.66 1156.97,-131.99 1116.54,-125.26"/>
<polygon fill="#63b8ff" stroke="#63b8ff" points="1117.05,-121.79 1106.62,-123.66 1115.93,-128.7 1117.05,-121.79"/>
</a>
</g>
</g>
<!-- Node49&#45;&gt;Node34 -->
<g id="edge61_Node000049_Node000034" class="edge">
<title>Node49&#45;&gt;Node34</title>
<g id="a_edge61_Node000049_Node000034"><a xlink:title=" ">
<path fill="none" stroke="#63b8ff" d="M1057.12,-329.94C1045.03,-313.3 1018.72,-275.06 1004.5,-239 991.15,-205.15 983.98,-163.03 980.73,-139.21"/>
<polygon fill="#63b8ff" stroke="#63b8ff" points="984.17,-138.58 979.43,-129.11 977.23,-139.47 984.17,-138.58"/>
</a>
</g>
</g>
<!-- Node49&#45;&gt;Node25 -->
<g id="edge60_Node000049_Node000025" class="edge">
<title>Node49&#45;&gt;Node25</title>
<g id="a_edge60_Node000049_Node000025"><a xlink:title=" ">
<path fill="none" stroke="#63b8ff" d="M1093.54,-329.98C1129.85,-319.7 1190.32,-302.56 1224.63,-292.83"/>
<polygon fill="#63b8ff" stroke="#63b8ff" points="1225.72,-296.16 1234.39,-290.07 1223.81,-289.43 1225.72,-296.16"/>
</a>
</g>
</g>
<!-- Node50 -->
<g id="Node000050" class="node">
<title>Node50</title>
<g id="a_Node000050"><a xlink:href="ieee__float_8h.html" target="_top" xlink:title=" ">
<polygon fill="white" stroke="#666666" points="1131.5,-294 1057.5,-294 1057.5,-275 1131.5,-275 1131.5,-294"/>
<text text-anchor="middle" x="1094.5" y="-282" font-family="Helvetica,sans-Serif" font-size="10.00">ieee_float.h</text>
</a>
</g>
</g>
<!-- Node49&#45;&gt;Node50 -->
<g id="edge55_Node000049_Node000050" class="edge">
<title>Node49&#45;&gt;Node50</title>
<g id="a_edge55_Node000049_Node000050"><a xlink:title=" ">
<path fill="none" stroke="#63b8ff" d="M1068.62,-329.75C1072.86,-322.49 1079.03,-311.95 1084.28,-302.98"/>
<polygon fill="#63b8ff" stroke="#63b8ff" points="1087.45,-304.49 1089.48,-294.09 1081.41,-300.95 1087.45,-304.49"/>
</a>
</g>
</g>
<!-- Node50&#45;&gt;Node41 -->
<g id="edge57_Node000050_Node000041" class="edge">
<title>Node50&#45;&gt;Node41</title>
<g id="a_edge57_Node000050_Node000041"><a xlink:title=" ">
<path fill="none" stroke="#63b8ff" d="M1086.74,-274.75C1080.03,-267.18 1070.16,-256.05 1061.99,-246.84"/>
<polygon fill="#63b8ff" stroke="#63b8ff" points="1064.37,-244.25 1055.12,-239.09 1059.13,-248.89 1064.37,-244.25"/>
</a>
</g>
</g>
<!-- Node50&#45;&gt;Node21 -->
<g id="edge56_Node000050_Node000021" class="edge">
<title>Node50&#45;&gt;Node21</title>
<g id="a_edge56_Node000050_Node000021"><a xlink:title=" ">
<path fill="none" stroke="#63b8ff" d="M1131.88,-276.48C1153.85,-270.36 1180.23,-259.16 1195.5,-239 1205.06,-226.38 1206.78,-208.19 1206.41,-194.51"/>
<polygon fill="#63b8ff" stroke="#63b8ff" points="1209.89,-194.05 1205.75,-184.3 1202.91,-194.51 1209.89,-194.05"/>
</a>
</g>
</g>
<!-- Node51 -->
<g id="Node000051" class="node">
<title>Node51</title>
<g id="a_Node000051"><a xlink:href="format__spec_8h.html" target="_top" xlink:title=" ">
<polygon fill="white" stroke="#666666" points="1186.5,-239 1100.5,-239 1100.5,-220 1186.5,-220 1186.5,-239"/>
<text text-anchor="middle" x="1143.5" y="-227" font-family="Helvetica,sans-Serif" font-size="10.00">format_spec.h</text>
</a>
</g>
</g>
<!-- Node50&#45;&gt;Node51 -->
<g id="edge58_Node000050_Node000051" class="edge">
<title>Node50&#45;&gt;Node51</title>
<g id="a_edge58_Node000050_Node000051"><a xlink:title=" ">
<path fill="none" stroke="#63b8ff" d="M1102.59,-274.75C1109.66,-267.11 1120.09,-255.82 1128.65,-246.56"/>
<polygon fill="#63b8ff" stroke="#63b8ff" points="1131.34,-248.81 1135.56,-239.09 1126.2,-244.06 1131.34,-248.81"/>
</a>
</g>
</g>
<!-- Node52&#45;&gt;Node7 -->
<g id="edge65_Node000052_Node000007" class="edge">
<title>Node52&#45;&gt;Node7</title>
<g id="a_edge65_Node000052_Node000007"><a xlink:title=" ">
<path fill="none" stroke="#63b8ff" d="M850.8,-219.98C813.09,-210.73 752.81,-195.94 712.22,-185.98"/>
<polygon fill="#63b8ff" stroke="#63b8ff" points="712.89,-182.54 702.35,-183.56 711.23,-189.34 712.89,-182.54"/>
</a>
</g>
</g>
<!-- Node52&#45;&gt;Node8 -->
<g id="edge63_Node000052_Node000008" class="edge">
<title>Node52&#45;&gt;Node8</title>
<g id="a_edge63_Node000052_Node000008"><a xlink:title=" ">
<path fill="none" stroke="#63b8ff" d="M855.58,-219.97C835.64,-213.02 809.98,-201.45 792.5,-184 763.78,-155.34 747.47,-109.37 740.18,-83.93"/>
<polygon fill="#63b8ff" stroke="#63b8ff" points="743.51,-82.85 737.52,-74.11 736.75,-84.68 743.51,-82.85"/>
</a>
</g>
</g>
<!-- Node52&#45;&gt;Node10 -->
<g id="edge67_Node000052_Node000010" class="edge">
<title>Node52&#45;&gt;Node10</title>
<g id="a_edge67_Node000052_Node000010"><a xlink:title=" ">
<path fill="none" stroke="#63b8ff" d="M865.92,-219.98C851.83,-212.68 833.9,-200.68 825.5,-184 821.7,-176.46 822.06,-172.71 825.5,-165 835.23,-143.15 855.77,-150.85 865.5,-129 880.36,-95.63 865.54,-52.47 854.68,-28.53"/>
<polygon fill="#63b8ff" stroke="#63b8ff" points="857.72,-26.76 850.24,-19.25 851.4,-29.78 857.72,-26.76"/>
</a>
</g>
</g>
<!-- Node52&#45;&gt;Node11 -->
<g id="edge68_Node000052_Node000011" class="edge">
<title>Node52&#45;&gt;Node11</title>
<g id="a_edge68_Node000052_Node000011"><a xlink:title=" ">
<path fill="none" stroke="#63b8ff" d="M902.93,-219.88C928.63,-207.27 978.32,-183.32 1021.5,-165 1062.68,-147.53 1090.15,-165.86 1115.5,-129 1139.12,-94.66 1099.66,-49.5 1074.64,-26.08"/>
<polygon fill="#63b8ff" stroke="#63b8ff" points="1076.89,-23.4 1067.12,-19.29 1072.2,-28.59 1076.89,-23.4"/>
</a>
</g>
</g>
<!-- Node52&#45;&gt;Node15 -->
<g id="edge64_Node000052_Node000015" class="edge">
<title>Node52&#45;&gt;Node15</title>
<g id="a_edge64_Node000052_Node000015"><a xlink:title=" ">
<path fill="none" stroke="#63b8ff" d="M885.5,-219.75C885.5,-212.8 885.5,-202.85 885.5,-194.13"/>
<polygon fill="#63b8ff" stroke="#63b8ff" points="889,-194.09 885.5,-184.09 882,-194.09 889,-194.09"/>
</a>
</g>
</g>
<!-- Node52&#45;&gt;Node21 -->
<g id="edge66_Node000052_Node000021" class="edge">
<title>Node52&#45;&gt;Node21</title>
<g id="a_edge66_Node000052_Node000021"><a xlink:title=" ">
<path fill="none" stroke="#63b8ff" d="M930.19,-221.07C994.6,-210.37 1112.14,-190.84 1170.19,-181.2"/>
<polygon fill="#63b8ff" stroke="#63b8ff" points="1171.02,-184.61 1180.31,-179.52 1169.87,-177.71 1171.02,-184.61"/>
</a>
</g>
</g>
<!-- Node53&#45;&gt;Node3 -->
<g id="edge71_Node000053_Node000003" class="edge">
<title>Node53&#45;&gt;Node3</title>
<g id="a_edge71_Node000053_Node000003"><a xlink:title=" ">
<path fill="none" stroke="#63b8ff" d="M796.39,-549.67C794.45,-536.8 789.54,-512.53 778.5,-495 771.3,-483.57 760.38,-473.25 750.67,-465.44"/>
<polygon fill="#63b8ff" stroke="#63b8ff" points="752.65,-462.54 742.58,-459.25 748.4,-468.1 752.65,-462.54"/>
</a>
</g>
</g>
<!-- Node54&#45;&gt;Node48 -->
<g id="edge73_Node000054_Node000048" class="edge">
<title>Node54&#45;&gt;Node48</title>
<g id="a_edge73_Node000054_Node000048"><a xlink:title=" ">
<path fill="none" stroke="#63b8ff" d="M582.34,-494.75C581.43,-487.8 580.11,-477.85 578.96,-469.13"/>
<polygon fill="#63b8ff" stroke="#63b8ff" points="582.41,-468.54 577.63,-459.09 575.47,-469.46 582.41,-468.54"/>
</a>
</g>
</g>
</g>
</svg>
