<?xml version="1.0" encoding="UTF-8" standalone="no"?>
<!DOCTYPE svg PUBLIC "-//W3C//DTD SVG 1.1//EN"
 "http://www.w3.org/Graphics/SVG/1.1/DTD/svg11.dtd">
<!-- Generated by graphviz version 2.43.0 (0)
 -->
<!-- Title: /home/runner/work/cbmc/cbmc/src/ansi&#45;c/ansi_c_declaration.cpp Pages: 1 -->
<svg width="959pt" height="599pt"
 viewBox="0.00 0.00 959.00 599.00" xmlns="http://www.w3.org/2000/svg" xmlns:xlink="http://www.w3.org/1999/xlink">
<g id="graph0" class="graph" transform="scale(1 1) rotate(0) translate(4 595)">
<title>/home/runner/work/cbmc/cbmc/src/ansi&#45;c/ansi_c_declaration.cpp</title>
<!-- Node1 -->
<g id="Node000001" class="node">
<title>Node1</title>
<g id="a_Node000001"><a xlink:title="ANSI&#45;C Language Type Checking.">
<polygon fill="#999999" stroke="#666666" points="516,-591 378,-591 378,-550 516,-550 516,-591"/>
<text text-anchor="start" x="386" y="-579" font-family="Helvetica,sans-Serif" font-size="10.00">/home/runner/work/cbmc</text>
<text text-anchor="start" x="386" y="-568" font-family="Helvetica,sans-Serif" font-size="10.00">/cbmc/src/ansi&#45;c/ansi</text>
<text text-anchor="middle" x="447" y="-557" font-family="Helvetica,sans-Serif" font-size="10.00">_c_declaration.cpp</text>
</a>
</g>
</g>
<!-- Node2 -->
<g id="Node000002" class="node">
<title>Node2</title>
<g id="a_Node000002"><a xlink:href="ansi__c__declaration_8h.html" target="_top" xlink:title="ANSI&#45;CC Language Type Checking.">
<polygon fill="white" stroke="#666666" points="349,-514 233,-514 233,-495 349,-495 349,-514"/>
<text text-anchor="middle" x="291" y="-502" font-family="Helvetica,sans-Serif" font-size="10.00">ansi_c_declaration.h</text>
</a>
</g>
</g>
<!-- Node1&#45;&gt;Node2 -->
<g id="edge1_Node000001_Node000002" class="edge">
<title>Node1&#45;&gt;Node2</title>
<g id="a_edge1_Node000001_Node000002"><a xlink:title=" ">
<path fill="none" stroke="#63b8ff" d="M399.35,-549.95C374.02,-539.56 343.63,-527.09 321.49,-518.01"/>
<polygon fill="#63b8ff" stroke="#63b8ff" points="322.52,-514.65 311.94,-514.09 319.87,-521.13 322.52,-514.65"/>
</a>
</g>
</g>
<!-- Node8 -->
<g id="Node000008" class="node">
<title>Node8</title>
<g id="a_Node000008"><a xlink:href="src_2util_2invariant_8h.html" target="_top" xlink:title=" ">
<polygon fill="white" stroke="#666666" points="186.5,-74 117.5,-74 117.5,-55 186.5,-55 186.5,-74"/>
<text text-anchor="middle" x="152" y="-62" font-family="Helvetica,sans-Serif" font-size="10.00">invariant.h</text>
</a>
</g>
</g>
<!-- Node1&#45;&gt;Node8 -->
<g id="edge50_Node000001_Node000008" class="edge">
<title>Node1&#45;&gt;Node8</title>
<g id="a_edge50_Node000001_Node000008"><a xlink:title=" ">
<path fill="none" stroke="#63b8ff" d="M377.65,-565.4C252.09,-556.06 0,-527.7 0,-450.5 0,-450.5 0,-450.5 0,-173.5 0,-120.38 62.45,-90.99 107.29,-76.73"/>
<polygon fill="#63b8ff" stroke="#63b8ff" points="108.57,-80 117.13,-73.75 106.54,-73.3 108.57,-80"/>
</a>
</g>
</g>
<!-- Node40 -->
<g id="Node000040" class="node">
<title>Node40</title>
<g id="a_Node000040"><a xlink:href="std__types_8h.html" target="_top" xlink:title="Pre&#45;defined types.">
<polygon fill="white" stroke="#666666" points="387.5,-404 314.5,-404 314.5,-385 387.5,-385 387.5,-404"/>
<text text-anchor="middle" x="351" y="-392" font-family="Helvetica,sans-Serif" font-size="10.00">std_types.h</text>
</a>
</g>
</g>
<!-- Node1&#45;&gt;Node40 -->
<g id="edge51_Node000001_Node000040" class="edge">
<title>Node1&#45;&gt;Node40</title>
<g id="a_edge51_Node000001_Node000040"><a xlink:title=" ">
<path fill="none" stroke="#63b8ff" d="M436.17,-549.88C417.33,-515.73 378.8,-445.89 360.74,-413.16"/>
<polygon fill="#63b8ff" stroke="#63b8ff" points="363.74,-411.34 355.84,-404.27 357.61,-414.72 363.74,-411.34"/>
</a>
</g>
</g>
<!-- Node43 -->
<g id="Node000043" class="node">
<title>Node43</title>
<g id="a_Node000043"><a xlink:title=" ">
<polygon fill="#e0e0e0" stroke="#999999" points="608.5,-514 551.5,-514 551.5,-495 608.5,-495 608.5,-514"/>
<text text-anchor="middle" x="580" y="-502" font-family="Helvetica,sans-Serif" font-size="10.00">ostream</text>
</a>
</g>
</g>
<!-- Node1&#45;&gt;Node43 -->
<g id="edge41_Node000001_Node000043" class="edge">
<title>Node1&#45;&gt;Node43</title>
<g id="a_edge41_Node000001_Node000043"><a xlink:title=" ">
<path fill="none" stroke="#63b8ff" d="M487.63,-549.95C508.83,-539.75 534.2,-527.54 552.98,-518.5"/>
<polygon fill="#63b8ff" stroke="#63b8ff" points="554.65,-521.58 562.15,-514.09 551.62,-515.27 554.65,-521.58"/>
</a>
</g>
</g>
<!-- Node44 -->
<g id="Node000044" class="node">
<title>Node44</title>
<g id="a_Node000044"><a xlink:href="config_8h.html" target="_top" xlink:title=" ">
<polygon fill="white" stroke="#666666" points="890,-459 816,-459 816,-440 890,-440 890,-459"/>
<text text-anchor="middle" x="853" y="-447" font-family="Helvetica,sans-Serif" font-size="10.00">util/config.h</text>
</a>
</g>
</g>
<!-- Node1&#45;&gt;Node44 -->
<g id="edge42_Node000001_Node000044" class="edge">
<title>Node1&#45;&gt;Node44</title>
<g id="a_edge42_Node000001_Node000044"><a xlink:title=" ">
<path fill="none" stroke="#63b8ff" d="M465.98,-549.83C484.05,-532.39 512.9,-507.77 543,-495 630.3,-457.96 742.53,-450.74 805.21,-449.89"/>
<polygon fill="#63b8ff" stroke="#63b8ff" points="805.6,-453.39 815.57,-449.81 805.54,-446.39 805.6,-453.39"/>
</a>
</g>
</g>
<!-- Node47 -->
<g id="Node000047" class="node">
<title>Node47</title>
<g id="a_Node000047"><a xlink:href="symbol_8h.html" target="_top" xlink:title="Symbol table entry.">
<polygon fill="white" stroke="#666666" points="515,-349 435,-349 435,-330 515,-330 515,-349"/>
<text text-anchor="middle" x="475" y="-337" font-family="Helvetica,sans-Serif" font-size="10.00">util/symbol.h</text>
</a>
</g>
</g>
<!-- Node1&#45;&gt;Node47 -->
<g id="edge52_Node000001_Node000047" class="edge">
<title>Node1&#45;&gt;Node47</title>
<g id="a_edge52_Node000001_Node000047"><a xlink:title=" ">
<path fill="none" stroke="#63b8ff" d="M449.39,-549.98C454.69,-506.58 467.41,-402.56 472.67,-359.58"/>
<polygon fill="#63b8ff" stroke="#63b8ff" points="476.17,-359.74 473.91,-349.39 469.22,-358.89 476.17,-359.74"/>
</a>
</g>
</g>
<!-- Node48 -->
<g id="Node000048" class="node">
<title>Node48</title>
<g id="a_Node000048"><a xlink:href="merged__type_8h.html" target="_top" xlink:title=" ">
<polygon fill="white" stroke="#666666" points="598,-459 508,-459 508,-440 598,-440 598,-459"/>
<text text-anchor="middle" x="553" y="-447" font-family="Helvetica,sans-Serif" font-size="10.00">merged_type.h</text>
</a>
</g>
</g>
<!-- Node1&#45;&gt;Node48 -->
<g id="edge56_Node000001_Node000048" class="edge">
<title>Node1&#45;&gt;Node48</title>
<g id="a_edge56_Node000001_Node000048"><a xlink:title=" ">
<path fill="none" stroke="#63b8ff" d="M462.61,-549.82C474.89,-534.57 492.6,-513.07 509,-495 517.85,-485.24 528.19,-474.75 536.62,-466.4"/>
<polygon fill="#63b8ff" stroke="#63b8ff" points="539.32,-468.65 544.01,-459.15 534.42,-463.66 539.32,-468.65"/>
</a>
</g>
</g>
<!-- Node3 -->
<g id="Node000003" class="node">
<title>Node3</title>
<g id="a_Node000003"><a xlink:href="std__expr_8h.html" target="_top" xlink:title="API to expression classes.">
<polygon fill="white" stroke="#666666" points="333,-459 247,-459 247,-440 333,-440 333,-459"/>
<text text-anchor="middle" x="290" y="-447" font-family="Helvetica,sans-Serif" font-size="10.00">util/std_expr.h</text>
</a>
</g>
</g>
<!-- Node2&#45;&gt;Node3 -->
<g id="edge2_Node000002_Node000003" class="edge">
<title>Node2&#45;&gt;Node3</title>
<g id="a_edge2_Node000002_Node000003"><a xlink:title=" ">
<path fill="none" stroke="#63b8ff" d="M290.83,-494.75C290.7,-487.8 290.52,-477.85 290.35,-469.13"/>
<polygon fill="#63b8ff" stroke="#63b8ff" points="293.85,-469.02 290.16,-459.09 286.85,-469.15 293.85,-469.02"/>
</a>
</g>
</g>
<!-- Node4 -->
<g id="Node000004" class="node">
<title>Node4</title>
<g id="a_Node000004"><a xlink:href="expr__cast_8h.html" target="_top" xlink:title="Templated functions to cast to specific exprt&#45;derived classes.">
<polygon fill="white" stroke="#666666" points="266.5,-349 193.5,-349 193.5,-330 266.5,-330 266.5,-349"/>
<text text-anchor="middle" x="230" y="-337" font-family="Helvetica,sans-Serif" font-size="10.00">expr_cast.h</text>
</a>
</g>
</g>
<!-- Node3&#45;&gt;Node4 -->
<g id="edge3_Node000003_Node000004" class="edge">
<title>Node3&#45;&gt;Node4</title>
<g id="a_edge3_Node000003_Node000004"><a xlink:title=" ">
<path fill="none" stroke="#63b8ff" d="M285.09,-439.66C275.2,-421.85 252.7,-381.37 239.73,-358.01"/>
<polygon fill="#63b8ff" stroke="#63b8ff" points="242.73,-356.2 234.81,-349.16 236.61,-359.6 242.73,-356.2"/>
</a>
</g>
</g>
<!-- Node3&#45;&gt;Node8 -->
<g id="edge30_Node000003_Node000008" class="edge">
<title>Node3&#45;&gt;Node8</title>
<g id="a_edge30_Node000003_Node000008"><a xlink:title=" ">
<path fill="none" stroke="#63b8ff" d="M246.97,-448.66C174.99,-446.41 38,-430.34 38,-340.5 38,-340.5 38,-340.5 38,-173.5 38,-127.47 87.58,-95.18 121.35,-78.53"/>
<polygon fill="#63b8ff" stroke="#63b8ff" points="123.28,-81.49 130.82,-74.05 120.29,-75.16 123.28,-81.49"/>
</a>
</g>
</g>
<!-- Node3&#45;&gt;Node40 -->
<g id="edge31_Node000003_Node000040" class="edge">
<title>Node3&#45;&gt;Node40</title>
<g id="a_edge31_Node000003_Node000040"><a xlink:title=" ">
<path fill="none" stroke="#63b8ff" d="M299.8,-439.98C308.82,-432.15 322.41,-420.34 333.32,-410.86"/>
<polygon fill="#63b8ff" stroke="#63b8ff" points="335.77,-413.37 341.02,-404.17 331.18,-408.09 335.77,-413.37"/>
</a>
</g>
</g>
<!-- Node5 -->
<g id="Node000005" class="node">
<title>Node5</title>
<g id="a_Node000005"><a xlink:title=" ">
<polygon fill="#e0e0e0" stroke="#999999" points="161.5,-294 104.5,-294 104.5,-275 161.5,-275 161.5,-294"/>
<text text-anchor="middle" x="133" y="-282" font-family="Helvetica,sans-Serif" font-size="10.00">typeinfo</text>
</a>
</g>
</g>
<!-- Node4&#45;&gt;Node5 -->
<g id="edge4_Node000004_Node000005" class="edge">
<title>Node4&#45;&gt;Node5</title>
<g id="a_edge4_Node000004_Node000005"><a xlink:title=" ">
<path fill="none" stroke="#63b8ff" d="M214.42,-329.98C199.23,-321.69 175.9,-308.94 158.1,-299.22"/>
<polygon fill="#63b8ff" stroke="#63b8ff" points="159.32,-295.89 148.87,-294.17 155.97,-302.04 159.32,-295.89"/>
</a>
</g>
</g>
<!-- Node6 -->
<g id="Node000006" class="node">
<title>Node6</title>
<g id="a_Node000006"><a xlink:title=" ">
<polygon fill="#e0e0e0" stroke="#999999" points="263.5,-19 194.5,-19 194.5,0 263.5,0 263.5,-19"/>
<text text-anchor="middle" x="229" y="-7" font-family="Helvetica,sans-Serif" font-size="10.00">type_traits</text>
</a>
</g>
</g>
<!-- Node4&#45;&gt;Node6 -->
<g id="edge5_Node000004_Node000006" class="edge">
<title>Node4&#45;&gt;Node6</title>
<g id="a_edge5_Node000004_Node000006"><a xlink:title=" ">
<path fill="none" stroke="#63b8ff" d="M229.73,-329.82C229.18,-311.48 228,-267.44 228,-230.5 228,-230.5 228,-230.5 228,-118.5 228,-87.19 228.43,-50.77 228.72,-29.23"/>
<polygon fill="#63b8ff" stroke="#63b8ff" points="232.22,-29.23 228.87,-19.18 225.22,-29.13 232.22,-29.23"/>
</a>
</g>
</g>
<!-- Node7 -->
<g id="Node000007" class="node">
<title>Node7</title>
<g id="a_Node000007"><a xlink:title=" ">
<polygon fill="#e0e0e0" stroke="#999999" points="321.5,-239 256.5,-239 256.5,-220 321.5,-220 321.5,-239"/>
<text text-anchor="middle" x="289" y="-227" font-family="Helvetica,sans-Serif" font-size="10.00">functional</text>
</a>
</g>
</g>
<!-- Node4&#45;&gt;Node7 -->
<g id="edge6_Node000004_Node000007" class="edge">
<title>Node4&#45;&gt;Node7</title>
<g id="a_edge6_Node000004_Node000007"><a xlink:title=" ">
<path fill="none" stroke="#63b8ff" d="M234.83,-329.66C244.56,-311.85 266.68,-271.37 279.44,-248.01"/>
<polygon fill="#63b8ff" stroke="#63b8ff" points="282.55,-249.61 284.27,-239.16 276.4,-246.26 282.55,-249.61"/>
</a>
</g>
</g>
<!-- Node4&#45;&gt;Node8 -->
<g id="edge7_Node000004_Node000008" class="edge">
<title>Node4&#45;&gt;Node8</title>
<g id="a_edge7_Node000004_Node000008"><a xlink:title=" ">
<path fill="none" stroke="#63b8ff" d="M223.95,-329.94C212.52,-313.29 187.84,-275.04 176,-239 158.17,-184.71 153.58,-116.63 152.41,-84.27"/>
<polygon fill="#63b8ff" stroke="#63b8ff" points="155.9,-83.94 152.11,-74.05 148.9,-84.15 155.9,-83.94"/>
</a>
</g>
</g>
<!-- Node12 -->
<g id="Node000012" class="node">
<title>Node12</title>
<g id="a_Node000012"><a xlink:href="expr_8h.html" target="_top" xlink:title=" ">
<polygon fill="white" stroke="#666666" points="435.5,-294 388.5,-294 388.5,-275 435.5,-275 435.5,-294"/>
<text text-anchor="middle" x="412" y="-282" font-family="Helvetica,sans-Serif" font-size="10.00">expr.h</text>
</a>
</g>
</g>
<!-- Node4&#45;&gt;Node12 -->
<g id="edge12_Node000004_Node000012" class="edge">
<title>Node4&#45;&gt;Node12</title>
<g id="a_edge12_Node000004_Node000012"><a xlink:title=" ">
<path fill="none" stroke="#63b8ff" d="M259.24,-329.98C291.75,-320.52 344.17,-305.25 378.36,-295.3"/>
<polygon fill="#63b8ff" stroke="#63b8ff" points="379.72,-298.55 388.34,-292.39 377.76,-291.83 379.72,-298.55"/>
</a>
</g>
</g>
<!-- Node8&#45;&gt;Node6 -->
<g id="edge11_Node000008_Node000006" class="edge">
<title>Node8&#45;&gt;Node6</title>
<g id="a_edge11_Node000008_Node000006"><a xlink:title=" ">
<path fill="none" stroke="#63b8ff" d="M164.37,-54.98C176.09,-46.92 193.92,-34.65 207.89,-25.03"/>
<polygon fill="#63b8ff" stroke="#63b8ff" points="210.15,-27.72 216.4,-19.17 206.18,-21.96 210.15,-27.72"/>
</a>
</g>
</g>
<!-- Node9 -->
<g id="Node000009" class="node">
<title>Node9</title>
<g id="a_Node000009"><a xlink:title=" ">
<polygon fill="#e0e0e0" stroke="#999999" points="176.5,-19 127.5,-19 127.5,0 176.5,0 176.5,-19"/>
<text text-anchor="middle" x="152" y="-7" font-family="Helvetica,sans-Serif" font-size="10.00">cstdlib</text>
</a>
</g>
</g>
<!-- Node8&#45;&gt;Node9 -->
<g id="edge8_Node000008_Node000009" class="edge">
<title>Node8&#45;&gt;Node9</title>
<g id="a_edge8_Node000008_Node000009"><a xlink:title=" ">
<path fill="none" stroke="#63b8ff" d="M152,-54.75C152,-47.8 152,-37.85 152,-29.13"/>
<polygon fill="#63b8ff" stroke="#63b8ff" points="155.5,-29.09 152,-19.09 148.5,-29.09 155.5,-29.09"/>
</a>
</g>
</g>
<!-- Node10 -->
<g id="Node000010" class="node">
<title>Node10</title>
<g id="a_Node000010"><a xlink:title=" ">
<polygon fill="#e0e0e0" stroke="#999999" points="109,-19 53,-19 53,0 109,0 109,-19"/>
<text text-anchor="middle" x="81" y="-7" font-family="Helvetica,sans-Serif" font-size="10.00">sstream</text>
</a>
</g>
</g>
<!-- Node8&#45;&gt;Node10 -->
<g id="edge9_Node000008_Node000010" class="edge">
<title>Node8&#45;&gt;Node10</title>
<g id="a_edge9_Node000008_Node000010"><a xlink:title=" ">
<path fill="none" stroke="#63b8ff" d="M140.59,-54.98C129.89,-47 113.66,-34.88 100.84,-25.31"/>
<polygon fill="#63b8ff" stroke="#63b8ff" points="102.72,-22.35 92.61,-19.17 98.53,-27.96 102.72,-22.35"/>
</a>
</g>
</g>
<!-- Node11 -->
<g id="Node000011" class="node">
<title>Node11</title>
<g id="a_Node000011"><a xlink:title=" ">
<polygon fill="#e0e0e0" stroke="#999999" points="788,-19 744,-19 744,0 788,0 788,-19"/>
<text text-anchor="middle" x="766" y="-7" font-family="Helvetica,sans-Serif" font-size="10.00">string</text>
</a>
</g>
</g>
<!-- Node8&#45;&gt;Node11 -->
<g id="edge10_Node000008_Node000011" class="edge">
<title>Node8&#45;&gt;Node11</title>
<g id="a_edge10_Node000008_Node000011"><a xlink:title=" ">
<path fill="none" stroke="#63b8ff" d="M186.77,-60.5C295.55,-51.11 628.36,-22.38 733.68,-13.29"/>
<polygon fill="#63b8ff" stroke="#63b8ff" points="734.05,-16.77 743.71,-12.42 733.45,-9.8 734.05,-16.77"/>
</a>
</g>
</g>
<!-- Node12&#45;&gt;Node7 -->
<g id="edge29_Node000012_Node000007" class="edge">
<title>Node12&#45;&gt;Node7</title>
<g id="a_edge29_Node000012_Node000007"><a xlink:title=" ">
<path fill="none" stroke="#63b8ff" d="M392.24,-274.98C372.27,-266.38 341.2,-252.99 318.35,-243.15"/>
<polygon fill="#63b8ff" stroke="#63b8ff" points="319.69,-239.91 309.12,-239.17 316.92,-246.34 319.69,-239.91"/>
</a>
</g>
</g>
<!-- Node13 -->
<g id="Node000013" class="node">
<title>Node13</title>
<g id="a_Node000013"><a xlink:href="as__const_8h.html" target="_top" xlink:title=" ">
<polygon fill="white" stroke="#666666" points="446,-239 378,-239 378,-220 446,-220 446,-239"/>
<text text-anchor="middle" x="412" y="-227" font-family="Helvetica,sans-Serif" font-size="10.00">as_const.h</text>
</a>
</g>
</g>
<!-- Node12&#45;&gt;Node13 -->
<g id="edge13_Node000012_Node000013" class="edge">
<title>Node12&#45;&gt;Node13</title>
<g id="a_edge13_Node000012_Node000013"><a xlink:title=" ">
<path fill="none" stroke="#63b8ff" d="M412,-274.75C412,-267.8 412,-257.85 412,-249.13"/>
<polygon fill="#63b8ff" stroke="#63b8ff" points="415.5,-249.09 412,-239.09 408.5,-249.09 415.5,-249.09"/>
</a>
</g>
</g>
<!-- Node14 -->
<g id="Node000014" class="node">
<title>Node14</title>
<g id="a_Node000014"><a xlink:href="type_8h.html" target="_top" xlink:title="Defines typet, type_with_subtypet and type_with_subtypest.">
<polygon fill="white" stroke="#666666" points="697.5,-239 650.5,-239 650.5,-220 697.5,-220 697.5,-239"/>
<text text-anchor="middle" x="674" y="-227" font-family="Helvetica,sans-Serif" font-size="10.00">type.h</text>
</a>
</g>
</g>
<!-- Node12&#45;&gt;Node14 -->
<g id="edge14_Node000012_Node000014" class="edge">
<title>Node12&#45;&gt;Node14</title>
<g id="a_edge14_Node000012_Node000014"><a xlink:title=" ">
<path fill="none" stroke="#63b8ff" d="M435.58,-279.01C476.45,-271.18 563.07,-254.4 636,-239 637.45,-238.69 638.92,-238.38 640.42,-238.06"/>
<polygon fill="#63b8ff" stroke="#63b8ff" points="641.28,-241.45 650.3,-235.89 639.79,-234.61 641.28,-241.45"/>
</a>
</g>
</g>
<!-- Node37 -->
<g id="Node000037" class="node">
<title>Node37</title>
<g id="a_Node000037"><a xlink:href="validation__mode_8h.html" target="_top" xlink:title=" ">
<polygon fill="white" stroke="#666666" points="643.5,-129 536.5,-129 536.5,-110 643.5,-110 643.5,-129"/>
<text text-anchor="middle" x="590" y="-117" font-family="Helvetica,sans-Serif" font-size="10.00">validation_mode.h</text>
</a>
</g>
</g>
<!-- Node12&#45;&gt;Node37 -->
<g id="edge28_Node000012_Node000037" class="edge">
<title>Node12&#45;&gt;Node37</title>
<g id="a_edge28_Node000012_Node000037"><a xlink:title=" ">
<path fill="none" stroke="#63b8ff" d="M398.74,-274.84C381.98,-262.77 356.72,-240.12 369,-220 402.26,-165.51 473.72,-140.66 526.42,-129.45"/>
<polygon fill="#63b8ff" stroke="#63b8ff" points="527.25,-132.86 536.36,-127.45 525.87,-126 527.25,-132.86"/>
</a>
</g>
</g>
<!-- Node38 -->
<g id="Node000038" class="node">
<title>Node38</title>
<g id="a_Node000038"><a xlink:href="validate__types_8h.html" target="_top" xlink:title=" ">
<polygon fill="white" stroke="#666666" points="583,-184 485,-184 485,-165 583,-165 583,-184"/>
<text text-anchor="middle" x="534" y="-172" font-family="Helvetica,sans-Serif" font-size="10.00">validate_types.h</text>
</a>
</g>
</g>
<!-- Node12&#45;&gt;Node38 -->
<g id="edge27_Node000012_Node000038" class="edge">
<title>Node12&#45;&gt;Node38</title>
<g id="a_edge27_Node000012_Node000038"><a xlink:title=" ">
<path fill="none" stroke="#63b8ff" d="M435.85,-281.55C482.34,-277.21 582.36,-265 603,-239 618.62,-219.33 590.35,-200.3 565.42,-188.29"/>
<polygon fill="#63b8ff" stroke="#63b8ff" points="566.67,-185.02 556.12,-184.04 563.76,-191.38 566.67,-185.02"/>
</a>
</g>
</g>
<!-- Node39 -->
<g id="Node000039" class="node">
<title>Node39</title>
<g id="a_Node000039"><a xlink:href="validate__expressions_8h.html" target="_top" xlink:title=" ">
<polygon fill="white" stroke="#666666" points="593.5,-239 464.5,-239 464.5,-220 593.5,-220 593.5,-239"/>
<text text-anchor="middle" x="529" y="-227" font-family="Helvetica,sans-Serif" font-size="10.00">validate_expressions.h</text>
</a>
</g>
</g>
<!-- Node12&#45;&gt;Node39 -->
<g id="edge26_Node000012_Node000039" class="edge">
<title>Node12&#45;&gt;Node39</title>
<g id="a_edge26_Node000012_Node000039"><a xlink:title=" ">
<path fill="none" stroke="#63b8ff" d="M430.8,-274.98C449.62,-266.46 478.82,-253.23 500.5,-243.41"/>
<polygon fill="#63b8ff" stroke="#63b8ff" points="502.2,-246.48 509.86,-239.17 499.31,-240.11 502.2,-246.48"/>
</a>
</g>
</g>
<!-- Node15 -->
<g id="Node000015" class="node">
<title>Node15</title>
<g id="a_Node000015"><a xlink:href="source__location_8h.html" target="_top" xlink:title=" ">
<polygon fill="#fff0f0" stroke="red" points="863,-184 761,-184 761,-165 863,-165 863,-184"/>
<text text-anchor="middle" x="812" y="-172" font-family="Helvetica,sans-Serif" font-size="10.00">source_location.h</text>
</a>
</g>
</g>
<!-- Node14&#45;&gt;Node15 -->
<g id="edge15_Node000014_Node000015" class="edge">
<title>Node14&#45;&gt;Node15</title>
<g id="a_edge15_Node000014_Node000015"><a xlink:title=" ">
<path fill="none" stroke="#63b8ff" d="M696.17,-219.98C718.77,-211.3 754.06,-197.75 779.75,-187.88"/>
<polygon fill="#63b8ff" stroke="#63b8ff" points="781.34,-191.02 789.42,-184.17 778.83,-184.49 781.34,-191.02"/>
</a>
</g>
</g>
<!-- Node35 -->
<g id="Node000035" class="node">
<title>Node35</title>
<g id="a_Node000035"><a xlink:href="validate_8h.html" target="_top" xlink:title=" ">
<polygon fill="#fff0f0" stroke="red" points="704.5,-184 639.5,-184 639.5,-165 704.5,-165 704.5,-184"/>
<text text-anchor="middle" x="672" y="-172" font-family="Helvetica,sans-Serif" font-size="10.00">validate.h</text>
</a>
</g>
</g>
<!-- Node14&#45;&gt;Node35 -->
<g id="edge21_Node000014_Node000035" class="edge">
<title>Node14&#45;&gt;Node35</title>
<g id="a_edge21_Node000014_Node000035"><a xlink:title=" ">
<path fill="none" stroke="#63b8ff" d="M673.67,-219.75C673.41,-212.8 673.03,-202.85 672.7,-194.13"/>
<polygon fill="#63b8ff" stroke="#63b8ff" points="676.2,-193.95 672.32,-184.09 669.2,-194.21 676.2,-193.95"/>
</a>
</g>
</g>
<!-- Node14&#45;&gt;Node37 -->
<g id="edge25_Node000014_Node000037" class="edge">
<title>Node14&#45;&gt;Node37</title>
<g id="a_edge25_Node000014_Node000037"><a xlink:title=" ">
<path fill="none" stroke="#63b8ff" d="M664.56,-219.77C655.46,-211.13 641.55,-197.3 631,-184 619.3,-169.26 607.84,-151.1 600.02,-137.98"/>
<polygon fill="#63b8ff" stroke="#63b8ff" points="602.88,-135.94 594.81,-129.07 596.84,-139.47 602.88,-135.94"/>
</a>
</g>
</g>
<!-- Node14&#45;&gt;Node38 -->
<g id="edge24_Node000014_Node000038" class="edge">
<title>Node14&#45;&gt;Node38</title>
<g id="a_edge24_Node000014_Node000038"><a xlink:title=" ">
<path fill="none" stroke="#63b8ff" d="M651.51,-219.98C628.48,-211.27 592.46,-197.63 566.37,-187.75"/>
<polygon fill="#63b8ff" stroke="#63b8ff" points="567.49,-184.44 556.9,-184.17 565.02,-190.98 567.49,-184.44"/>
</a>
</g>
</g>
<!-- Node15&#45;&gt;Node11 -->
<g id="edge20_Node000015_Node000011" class="edge">
<title>Node15&#45;&gt;Node11</title>
<g id="a_edge20_Node000015_Node000011"><a xlink:title=" ">
<path fill="none" stroke="#63b8ff" d="M809.53,-164.74C802.32,-139.2 781.22,-64.43 771.29,-29.23"/>
<polygon fill="#63b8ff" stroke="#63b8ff" points="774.57,-27.98 768.49,-19.31 767.83,-29.88 774.57,-27.98"/>
</a>
</g>
</g>
<!-- Node17 -->
<g id="Node000017" class="node">
<title>Node17</title>
<g id="a_Node000017"><a xlink:href="irep_8h.html" target="_top" xlink:title=" ">
<polygon fill="#fff0f0" stroke="red" points="762,-129 718,-129 718,-110 762,-110 762,-129"/>
<text text-anchor="middle" x="740" y="-117" font-family="Helvetica,sans-Serif" font-size="10.00">irep.h</text>
</a>
</g>
</g>
<!-- Node15&#45;&gt;Node17 -->
<g id="edge16_Node000015_Node000017" class="edge">
<title>Node15&#45;&gt;Node17</title>
<g id="a_edge16_Node000015_Node000017"><a xlink:title=" ">
<path fill="none" stroke="#63b8ff" d="M800.43,-164.98C789.58,-157 773.12,-144.88 760.12,-135.31"/>
<polygon fill="#63b8ff" stroke="#63b8ff" points="761.91,-132.28 751.78,-129.17 757.76,-137.92 761.91,-132.28"/>
</a>
</g>
</g>
<!-- Node34 -->
<g id="Node000034" class="node">
<title>Node34</title>
<g id="a_Node000034"><a xlink:title=" ">
<polygon fill="#e0e0e0" stroke="#999999" points="892,-129 836,-129 836,-110 892,-110 892,-129"/>
<text text-anchor="middle" x="864" y="-117" font-family="Helvetica,sans-Serif" font-size="10.00">optional</text>
</a>
</g>
</g>
<!-- Node15&#45;&gt;Node34 -->
<g id="edge19_Node000015_Node000034" class="edge">
<title>Node15&#45;&gt;Node34</title>
<g id="a_edge19_Node000015_Node000034"><a xlink:title=" ">
<path fill="none" stroke="#63b8ff" d="M820.59,-164.75C828.16,-157.03 839.38,-145.6 848.51,-136.28"/>
<polygon fill="#63b8ff" stroke="#63b8ff" points="851.07,-138.68 855.57,-129.09 846.07,-133.78 851.07,-138.68"/>
</a>
</g>
</g>
<!-- Node17&#45;&gt;Node8 -->
<g id="edge18_Node000017_Node000008" class="edge">
<title>Node17&#45;&gt;Node8</title>
<g id="a_edge18_Node000017_Node000008"><a xlink:title=" ">
<path fill="none" stroke="#63b8ff" d="M717.83,-116.28C700.26,-114.53 675.06,-112.06 653,-110 484.65,-94.3 284.35,-76.89 196.75,-69.34"/>
<polygon fill="#63b8ff" stroke="#63b8ff" points="196.89,-65.84 186.63,-68.47 196.29,-72.82 196.89,-65.84"/>
</a>
</g>
</g>
<!-- Node17&#45;&gt;Node11 -->
<g id="edge17_Node000017_Node000011" class="edge">
<title>Node17&#45;&gt;Node11</title>
<g id="a_edge17_Node000017_Node000011"><a xlink:title=" ">
<path fill="none" stroke="#63b8ff" d="M742.13,-109.66C746.36,-92.09 755.9,-52.45 761.56,-28.95"/>
<polygon fill="#63b8ff" stroke="#63b8ff" points="764.98,-29.7 763.92,-19.16 758.17,-28.06 764.98,-29.7"/>
</a>
</g>
</g>
<!-- Node35&#45;&gt;Node6 -->
<g id="edge22_Node000035_Node000006" class="edge">
<title>Node35&#45;&gt;Node6</title>
<g id="a_edge22_Node000035_Node000006"><a xlink:title=" ">
<path fill="none" stroke="#63b8ff" d="M671.99,-164.7C671.49,-150.97 668.42,-124.51 653,-110 598.09,-58.3 371.31,-26.76 273.85,-15.35"/>
<polygon fill="#63b8ff" stroke="#63b8ff" points="274.06,-11.85 263.72,-14.18 273.25,-18.8 274.06,-11.85"/>
</a>
</g>
</g>
<!-- Node35&#45;&gt;Node37 -->
<g id="edge23_Node000035_Node000037" class="edge">
<title>Node35&#45;&gt;Node37</title>
<g id="a_edge23_Node000035_Node000037"><a xlink:title=" ">
<path fill="none" stroke="#63b8ff" d="M658.83,-164.98C646.23,-156.84 627,-144.41 612.06,-134.76"/>
<polygon fill="#63b8ff" stroke="#63b8ff" points="613.71,-131.66 603.41,-129.17 609.91,-137.54 613.71,-131.66"/>
</a>
</g>
</g>
<!-- Node40&#45;&gt;Node4 -->
<g id="edge33_Node000040_Node000004" class="edge">
<title>Node40&#45;&gt;Node4</title>
<g id="a_edge33_Node000040_Node000004"><a xlink:title=" ">
<path fill="none" stroke="#63b8ff" d="M331.56,-384.98C312.01,-376.42 281.62,-363.11 259.18,-353.28"/>
<polygon fill="#63b8ff" stroke="#63b8ff" points="260.36,-349.98 249.79,-349.17 257.55,-356.39 260.36,-349.98"/>
</a>
</g>
</g>
<!-- Node40&#45;&gt;Node8 -->
<g id="edge34_Node000040_Node000008" class="edge">
<title>Node40&#45;&gt;Node8</title>
<g id="a_edge34_Node000040_Node000008"><a xlink:title=" ">
<path fill="none" stroke="#63b8ff" d="M314.48,-387.09C239.68,-372.93 76,-336.15 76,-285.5 76,-285.5 76,-285.5 76,-173.5 76,-134.47 109.61,-99.58 132.13,-80.6"/>
<polygon fill="#63b8ff" stroke="#63b8ff" points="134.56,-83.14 140.12,-74.12 130.15,-77.7 134.56,-83.14"/>
</a>
</g>
</g>
<!-- Node40&#45;&gt;Node12 -->
<g id="edge32_Node000040_Node000012" class="edge">
<title>Node40&#45;&gt;Node12</title>
<g id="a_edge32_Node000040_Node000012"><a xlink:title=" ">
<path fill="none" stroke="#63b8ff" d="M339.62,-384.7C324.98,-372.27 302.82,-348.99 315,-330 328.97,-308.23 356.55,-296.97 378.74,-291.23"/>
<polygon fill="#63b8ff" stroke="#63b8ff" points="379.55,-294.64 388.49,-288.96 377.96,-287.82 379.55,-294.64"/>
</a>
</g>
</g>
<!-- Node40&#45;&gt;Node35 -->
<g id="edge39_Node000040_Node000035" class="edge">
<title>Node40&#45;&gt;Node35</title>
<g id="a_edge39_Node000040_Node000035"><a xlink:title=" ">
<path fill="none" stroke="#63b8ff" d="M387.7,-389.39C424.1,-384.12 480.57,-372.68 524,-349 566.53,-325.82 562.49,-299.96 604,-275 645.56,-250.01 678.93,-278.54 707,-239 717.96,-223.55 703.95,-204.33 690.53,-191.1"/>
<polygon fill="#63b8ff" stroke="#63b8ff" points="692.62,-188.27 682.89,-184.08 687.88,-193.43 692.62,-188.27"/>
</a>
</g>
</g>
<!-- Node41 -->
<g id="Node000041" class="node">
<title>Node41</title>
<g id="a_Node000041"><a xlink:href="mp__arith_8h.html" target="_top" xlink:title=" ">
<polygon fill="white" stroke="#666666" points="720.5,-349 651.5,-349 651.5,-330 720.5,-330 720.5,-349"/>
<text text-anchor="middle" x="686" y="-337" font-family="Helvetica,sans-Serif" font-size="10.00">mp_arith.h</text>
</a>
</g>
</g>
<!-- Node40&#45;&gt;Node41 -->
<g id="edge35_Node000040_Node000041" class="edge">
<title>Node40&#45;&gt;Node41</title>
<g id="a_edge35_Node000040_Node000041"><a xlink:title=" ">
<path fill="none" stroke="#63b8ff" d="M387.81,-387.68C449.68,-377.89 574.31,-358.17 641.18,-347.59"/>
<polygon fill="#63b8ff" stroke="#63b8ff" points="642.07,-350.99 651.4,-345.97 640.97,-344.08 642.07,-350.99"/>
</a>
</g>
</g>
<!-- Node26 -->
<g id="Node000026" class="node">
<title>Node26</title>
<g id="a_Node000026"><a xlink:title=" ">
<polygon fill="#e0e0e0" stroke="#999999" points="416.5,-349 323.5,-349 323.5,-330 416.5,-330 416.5,-349"/>
<text text-anchor="middle" x="370" y="-337" font-family="Helvetica,sans-Serif" font-size="10.00">unordered_map</text>
</a>
</g>
</g>
<!-- Node40&#45;&gt;Node26 -->
<g id="edge40_Node000040_Node000026" class="edge">
<title>Node40&#45;&gt;Node26</title>
<g id="a_edge40_Node000040_Node000026"><a xlink:title=" ">
<path fill="none" stroke="#63b8ff" d="M354.14,-384.75C356.68,-377.65 360.36,-367.4 363.53,-358.56"/>
<polygon fill="#63b8ff" stroke="#63b8ff" points="366.84,-359.68 366.92,-349.09 360.25,-357.32 366.84,-359.68"/>
</a>
</g>
</g>
<!-- Node41&#45;&gt;Node11 -->
<g id="edge37_Node000041_Node000011" class="edge">
<title>Node41&#45;&gt;Node11</title>
<g id="a_edge37_Node000041_Node000011"><a xlink:title=" ">
<path fill="none" stroke="#63b8ff" d="M712.62,-329.86C732.95,-322.43 760.95,-310.32 782,-294 853.45,-238.6 879.28,-216.77 901,-129 914.55,-74.26 841.6,-37.73 797.59,-20.99"/>
<polygon fill="#63b8ff" stroke="#63b8ff" points="798.75,-17.69 788.15,-17.54 796.34,-24.26 798.75,-17.69"/>
</a>
</g>
</g>
<!-- Node21 -->
<g id="Node000021" class="node">
<title>Node21</title>
<g id="a_Node000021"><a xlink:title=" ">
<polygon fill="#e0e0e0" stroke="#999999" points="661,-294 613,-294 613,-275 661,-275 661,-294"/>
<text text-anchor="middle" x="637" y="-282" font-family="Helvetica,sans-Serif" font-size="10.00">iosfwd</text>
</a>
</g>
</g>
<!-- Node41&#45;&gt;Node21 -->
<g id="edge36_Node000041_Node000021" class="edge">
<title>Node41&#45;&gt;Node21</title>
<g id="a_edge36_Node000041_Node000021"><a xlink:title=" ">
<path fill="none" stroke="#63b8ff" d="M677.91,-329.75C670.84,-322.11 660.41,-310.82 651.85,-301.56"/>
<polygon fill="#63b8ff" stroke="#63b8ff" points="654.3,-299.06 644.94,-294.09 649.16,-303.81 654.3,-299.06"/>
</a>
</g>
</g>
<!-- Node42 -->
<g id="Node000042" class="node">
<title>Node42</title>
<g id="a_Node000042"><a xlink:title=" ">
<polygon fill="#e0e0e0" stroke="#999999" points="773,-294 679,-294 679,-275 773,-275 773,-294"/>
<text text-anchor="middle" x="726" y="-282" font-family="Helvetica,sans-Serif" font-size="10.00">big&#45;int/bigint.hh</text>
</a>
</g>
</g>
<!-- Node41&#45;&gt;Node42 -->
<g id="edge38_Node000041_Node000042" class="edge">
<title>Node41&#45;&gt;Node42</title>
<g id="a_edge38_Node000041_Node000042"><a xlink:title=" ">
<path fill="none" stroke="#63b8ff" d="M692.61,-329.75C698.26,-322.26 706.54,-311.28 713.45,-302.13"/>
<polygon fill="#63b8ff" stroke="#63b8ff" points="716.29,-304.18 719.52,-294.09 710.7,-299.96 716.29,-304.18"/>
</a>
</g>
</g>
<!-- Node44&#45;&gt;Node17 -->
<g id="edge47_Node000044_Node000017" class="edge">
<title>Node44&#45;&gt;Node17</title>
<g id="a_edge47_Node000044_Node000017"><a xlink:title=" ">
<path fill="none" stroke="#63b8ff" d="M853,-439.82C853,-421.48 853,-377.44 853,-340.5 853,-340.5 853,-340.5 853,-283.5 853,-220.49 781.65,-239.6 752,-184 744.65,-170.22 741.75,-152.65 740.63,-139.48"/>
<polygon fill="#63b8ff" stroke="#63b8ff" points="744.11,-139.04 740.03,-129.25 737.12,-139.44 744.11,-139.04"/>
</a>
</g>
</g>
<!-- Node44&#45;&gt;Node34 -->
<g id="edge49_Node000044_Node000034" class="edge">
<title>Node44&#45;&gt;Node34</title>
<g id="a_edge49_Node000044_Node000034"><a xlink:title=" ">
<path fill="none" stroke="#63b8ff" d="M858.28,-439.9C868.73,-422.07 891,-379.46 891,-340.5 891,-340.5 891,-340.5 891,-228.5 891,-196.09 879.42,-159.81 871.42,-138.63"/>
<polygon fill="#63b8ff" stroke="#63b8ff" points="874.67,-137.3 867.75,-129.27 868.15,-139.86 874.67,-137.3"/>
</a>
</g>
</g>
<!-- Node45 -->
<g id="Node000045" class="node">
<title>Node45</title>
<g id="a_Node000045"><a xlink:href="ieee__float_8h.html" target="_top" xlink:title=" ">
<polygon fill="white" stroke="#666666" points="771,-404 697,-404 697,-385 771,-385 771,-404"/>
<text text-anchor="middle" x="734" y="-392" font-family="Helvetica,sans-Serif" font-size="10.00">ieee_float.h</text>
</a>
</g>
</g>
<!-- Node44&#45;&gt;Node45 -->
<g id="edge43_Node000044_Node000045" class="edge">
<title>Node44&#45;&gt;Node45</title>
<g id="a_edge43_Node000044_Node000045"><a xlink:title=" ">
<path fill="none" stroke="#63b8ff" d="M833.88,-439.98C814.65,-431.42 784.77,-418.11 762.69,-408.28"/>
<polygon fill="#63b8ff" stroke="#63b8ff" points="764.03,-405.04 753.47,-404.17 761.18,-411.44 764.03,-405.04"/>
</a>
</g>
</g>
<!-- Node25 -->
<g id="Node000025" class="node">
<title>Node25</title>
<g id="a_Node000025"><a xlink:title=" ">
<polygon fill="#e0e0e0" stroke="#999999" points="951,-404 919,-404 919,-385 951,-385 951,-404"/>
<text text-anchor="middle" x="935" y="-392" font-family="Helvetica,sans-Serif" font-size="10.00">list</text>
</a>
</g>
</g>
<!-- Node44&#45;&gt;Node25 -->
<g id="edge48_Node000044_Node000025" class="edge">
<title>Node44&#45;&gt;Node25</title>
<g id="a_edge48_Node000044_Node000025"><a xlink:title=" ">
<path fill="none" stroke="#63b8ff" d="M866.17,-439.98C878.77,-431.84 898,-419.41 912.94,-409.76"/>
<polygon fill="#63b8ff" stroke="#63b8ff" points="915.09,-412.54 921.59,-404.17 911.29,-406.66 915.09,-412.54"/>
</a>
</g>
</g>
<!-- Node45&#45;&gt;Node41 -->
<g id="edge45_Node000045_Node000041" class="edge">
<title>Node45&#45;&gt;Node41</title>
<g id="a_edge45_Node000045_Node000041"><a xlink:title=" ">
<path fill="none" stroke="#63b8ff" d="M726.07,-384.75C719.15,-377.11 708.93,-365.82 700.55,-356.56"/>
<polygon fill="#63b8ff" stroke="#63b8ff" points="703.09,-354.15 693.78,-349.09 697.9,-358.85 703.09,-354.15"/>
</a>
</g>
</g>
<!-- Node45&#45;&gt;Node21 -->
<g id="edge44_Node000045_Node000021" class="edge">
<title>Node45&#45;&gt;Node21</title>
<g id="a_edge44_Node000045_Node000021"><a xlink:title=" ">
<path fill="none" stroke="#63b8ff" d="M697.64,-384.98C678.2,-378.46 655.7,-367.37 643,-349 634.04,-336.05 633.19,-317.9 634.19,-304.31"/>
<polygon fill="#63b8ff" stroke="#63b8ff" points="637.69,-304.53 635.34,-294.2 630.74,-303.74 637.69,-304.53"/>
</a>
</g>
</g>
<!-- Node46 -->
<g id="Node000046" class="node">
<title>Node46</title>
<g id="a_Node000046"><a xlink:href="format__spec_8h.html" target="_top" xlink:title=" ">
<polygon fill="white" stroke="#666666" points="825,-349 739,-349 739,-330 825,-330 825,-349"/>
<text text-anchor="middle" x="782" y="-337" font-family="Helvetica,sans-Serif" font-size="10.00">format_spec.h</text>
</a>
</g>
</g>
<!-- Node45&#45;&gt;Node46 -->
<g id="edge46_Node000045_Node000046" class="edge">
<title>Node45&#45;&gt;Node46</title>
<g id="a_edge46_Node000045_Node000046"><a xlink:title=" ">
<path fill="none" stroke="#63b8ff" d="M741.93,-384.75C748.85,-377.11 759.07,-365.82 767.45,-356.56"/>
<polygon fill="#63b8ff" stroke="#63b8ff" points="770.1,-358.85 774.22,-349.09 764.91,-354.15 770.1,-358.85"/>
</a>
</g>
</g>
<!-- Node47&#45;&gt;Node8 -->
<g id="edge55_Node000047_Node000008" class="edge">
<title>Node47&#45;&gt;Node8</title>
<g id="a_edge55_Node000047_Node000008"><a xlink:title=" ">
<path fill="none" stroke="#63b8ff" d="M437.08,-329.94C388.31,-317.28 303.33,-289.44 248,-239 222.55,-215.79 178.22,-122.85 160.09,-83.38"/>
<polygon fill="#63b8ff" stroke="#63b8ff" points="163.22,-81.81 155.88,-74.16 156.85,-84.71 163.22,-81.81"/>
</a>
</g>
</g>
<!-- Node47&#45;&gt;Node12 -->
<g id="edge54_Node000047_Node000012" class="edge">
<title>Node47&#45;&gt;Node12</title>
<g id="a_edge54_Node000047_Node000012"><a xlink:title=" ">
<path fill="none" stroke="#63b8ff" d="M464.88,-329.98C455.56,-322.15 441.53,-310.34 430.26,-300.86"/>
<polygon fill="#63b8ff" stroke="#63b8ff" points="432.21,-297.93 422.31,-294.17 427.71,-303.29 432.21,-297.93"/>
</a>
</g>
</g>
<!-- Node47&#45;&gt;Node21 -->
<g id="edge53_Node000047_Node000021" class="edge">
<title>Node47&#45;&gt;Node21</title>
<g id="a_edge53_Node000047_Node000021"><a xlink:title=" ">
<path fill="none" stroke="#63b8ff" d="M501.03,-329.98C528.75,-320.91 572.74,-306.52 603.14,-296.58"/>
<polygon fill="#63b8ff" stroke="#63b8ff" points="604.47,-299.82 612.89,-293.39 602.3,-293.17 604.47,-299.82"/>
</a>
</g>
</g>
<!-- Node48&#45;&gt;Node14 -->
<g id="edge57_Node000048_Node000014" class="edge">
<title>Node48&#45;&gt;Node14</title>
<g id="a_edge57_Node000048_Node000014"><a xlink:title=" ">
<path fill="none" stroke="#63b8ff" d="M553.43,-439.98C555.18,-413.06 563.78,-328.43 604,-275 614.13,-261.54 629.62,-251.09 643.46,-243.71"/>
<polygon fill="#63b8ff" stroke="#63b8ff" points="645.31,-246.69 652.69,-239.09 642.18,-240.43 645.31,-246.69"/>
</a>
</g>
</g>
</g>
</svg>
