<?xml version="1.0" encoding="UTF-8" standalone="no"?>
<!DOCTYPE svg PUBLIC "-//W3C//DTD SVG 1.1//EN"
 "http://www.w3.org/Graphics/SVG/1.1/DTD/svg11.dtd">
<!-- Generated by graphviz version 2.43.0 (0)
 -->
<!-- Title: /home/runner/work/cbmc/cbmc/src/libcprover&#45;cpp/api_options.h Pages: 1 -->
<svg width="581pt" height="203pt"
 viewBox="0.00 0.00 581.00 203.00" xmlns="http://www.w3.org/2000/svg" xmlns:xlink="http://www.w3.org/1999/xlink">
<g id="graph0" class="graph" transform="scale(1 1) rotate(0) translate(4 199)">
<title>/home/runner/work/cbmc/cbmc/src/libcprover&#45;cpp/api_options.h</title>
<!-- Node1 -->
<g id="Node000001" class="node">
<title>Node1</title>
<g id="a_Node000001"><a xlink:title=" ">
<polygon fill="#999999" stroke="#666666" points="349,-195 211,-195 211,-154 349,-154 349,-195"/>
<text text-anchor="start" x="219" y="-183" font-family="Helvetica,sans-Serif" font-size="10.00">/home/runner/work/cbmc</text>
<text text-anchor="start" x="219" y="-172" font-family="Helvetica,sans-Serif" font-size="10.00">/cbmc/src/libcprover&#45;cpp</text>
<text text-anchor="middle" x="280" y="-161" font-family="Helvetica,sans-Serif" font-size="10.00">/api_options.h</text>
</a>
</g>
</g>
<!-- Node2 -->
<g id="Node000002" class="node">
<title>Node2</title>
<g id="a_Node000002"><a xlink:href="goto__bmc__parse__options_8cpp.html" target="_top" xlink:title=" ">
<polygon fill="white" stroke="#666666" points="294,-41 156,-41 156,0 294,0 294,-41"/>
<text text-anchor="start" x="164" y="-29" font-family="Helvetica,sans-Serif" font-size="10.00">/home/runner/work/cbmc</text>
<text text-anchor="start" x="164" y="-18" font-family="Helvetica,sans-Serif" font-size="10.00">/cbmc/src/goto&#45;bmc/goto</text>
<text text-anchor="middle" x="225" y="-7" font-family="Helvetica,sans-Serif" font-size="10.00">_bmc_parse_options.cpp</text>
</a>
</g>
</g>
<!-- Node1&#45;&gt;Node2 -->
<g id="edge1_Node000001_Node000002" class="edge">
<title>Node1&#45;&gt;Node2</title>
<g id="a_edge1_Node000001_Node000002"><a xlink:title=" ">
<path fill="none" stroke="#63b8ff" d="M258.94,-145.57C253.37,-137.08 247.84,-127.48 244,-118 233.74,-92.68 228.88,-61.31 226.68,-41.35"/>
<polygon fill="#63b8ff" stroke="#63b8ff" points="256.15,-147.7 264.7,-153.97 261.93,-143.74 256.15,-147.7"/>
</a>
</g>
</g>
<!-- Node3 -->
<g id="Node000003" class="node">
<title>Node3</title>
<g id="a_Node000003"><a xlink:href="goto__bmc__parse__options_8h.html" target="_top" xlink:title=" ">
<polygon fill="white" stroke="#666666" points="197,-118 59,-118 59,-77 197,-77 197,-118"/>
<text text-anchor="start" x="67" y="-106" font-family="Helvetica,sans-Serif" font-size="10.00">/home/runner/work/cbmc</text>
<text text-anchor="start" x="67" y="-95" font-family="Helvetica,sans-Serif" font-size="10.00">/cbmc/src/goto&#45;bmc/goto</text>
<text text-anchor="middle" x="128" y="-84" font-family="Helvetica,sans-Serif" font-size="10.00">_bmc_parse_options.h</text>
</a>
</g>
</g>
<!-- Node1&#45;&gt;Node3 -->
<g id="edge2_Node000001_Node000003" class="edge">
<title>Node1&#45;&gt;Node3</title>
<g id="a_edge2_Node000001_Node000003"><a xlink:title=" ">
<path fill="none" stroke="#63b8ff" d="M231.26,-149.45C210.69,-139.3 187.07,-127.64 167.61,-118.04"/>
<polygon fill="#63b8ff" stroke="#63b8ff" points="229.94,-152.7 240.46,-153.99 233.04,-146.43 229.94,-152.7"/>
</a>
</g>
</g>
<!-- Node5 -->
<g id="Node000005" class="node">
<title>Node5</title>
<g id="a_Node000005"><a xlink:href="api_8h.html" target="_top" xlink:title=" ">
<polygon fill="white" stroke="#666666" points="416.5,-112.5 253.5,-112.5 253.5,-82.5 416.5,-82.5 416.5,-112.5"/>
<text text-anchor="start" x="261.5" y="-100.5" font-family="Helvetica,sans-Serif" font-size="10.00">/home/runner/work/cbmc</text>
<text text-anchor="middle" x="335" y="-89.5" font-family="Helvetica,sans-Serif" font-size="10.00">/cbmc/src/libcprover&#45;cpp/api.h</text>
</a>
</g>
</g>
<!-- Node1&#45;&gt;Node5 -->
<g id="edge5_Node000001_Node000005" class="edge">
<title>Node1&#45;&gt;Node5</title>
<g id="a_edge5_Node000001_Node000005"><a xlink:title=" ">
<path fill="none" stroke="#63b8ff" d="M300.47,-145.59C308.63,-134.46 317.68,-122.12 324.47,-112.86"/>
<polygon fill="#63b8ff" stroke="#63b8ff" points="297.54,-143.66 294.45,-153.79 303.19,-147.8 297.54,-143.66"/>
</a>
</g>
</g>
<!-- Node7 -->
<g id="Node000007" class="node">
<title>Node7</title>
<g id="a_Node000007"><a xlink:href="api__options_8cpp.html" target="_top" xlink:title=" ">
<polygon fill="white" stroke="#666666" points="573,-118 435,-118 435,-77 573,-77 573,-118"/>
<text text-anchor="start" x="443" y="-106" font-family="Helvetica,sans-Serif" font-size="10.00">/home/runner/work/cbmc</text>
<text text-anchor="start" x="443" y="-95" font-family="Helvetica,sans-Serif" font-size="10.00">/cbmc/src/libcprover&#45;cpp</text>
<text text-anchor="middle" x="504" y="-84" font-family="Helvetica,sans-Serif" font-size="10.00">/api_options.cpp</text>
</a>
</g>
</g>
<!-- Node1&#45;&gt;Node7 -->
<g id="edge8_Node000001_Node000007" class="edge">
<title>Node1&#45;&gt;Node7</title>
<g id="a_edge8_Node000001_Node000007"><a xlink:title=" ">
<path fill="none" stroke="#63b8ff" d="M347.77,-150.81C378.98,-140.36 415.66,-128.08 445.63,-118.04"/>
<polygon fill="#63b8ff" stroke="#63b8ff" points="346.64,-147.5 338.27,-153.99 348.86,-154.13 346.64,-147.5"/>
</a>
</g>
</g>
<!-- Node3&#45;&gt;Node2 -->
<g id="edge4_Node000003_Node000002" class="edge">
<title>Node3&#45;&gt;Node2</title>
<g id="a_edge4_Node000003_Node000002"><a xlink:title=" ">
<path fill="none" stroke="#63b8ff" d="M161.22,-70.82C173.77,-61.11 187.83,-50.24 199.56,-41.17"/>
<polygon fill="#63b8ff" stroke="#63b8ff" points="159,-68.1 153.23,-76.99 163.28,-73.64 159,-68.1"/>
</a>
</g>
</g>
<!-- Node4 -->
<g id="Node000004" class="node">
<title>Node4</title>
<g id="a_Node000004"><a xlink:href="goto__bmc__main_8cpp.html" target="_top" xlink:title=" ">
<polygon fill="white" stroke="#666666" points="138,-41 0,-41 0,0 138,0 138,-41"/>
<text text-anchor="start" x="8" y="-29" font-family="Helvetica,sans-Serif" font-size="10.00">/home/runner/work/cbmc</text>
<text text-anchor="start" x="8" y="-18" font-family="Helvetica,sans-Serif" font-size="10.00">/cbmc/src/goto&#45;bmc/goto</text>
<text text-anchor="middle" x="69" y="-7" font-family="Helvetica,sans-Serif" font-size="10.00">_bmc_main.cpp</text>
</a>
</g>
</g>
<!-- Node3&#45;&gt;Node4 -->
<g id="edge3_Node000003_Node000004" class="edge">
<title>Node3&#45;&gt;Node4</title>
<g id="a_edge3_Node000003_Node000004"><a xlink:title=" ">
<path fill="none" stroke="#63b8ff" d="M106.11,-68.67C98.89,-59.5 91.02,-49.5 84.4,-41.07"/>
<polygon fill="#63b8ff" stroke="#63b8ff" points="103.56,-71.1 112.5,-76.79 109.07,-66.77 103.56,-71.1"/>
</a>
</g>
</g>
<!-- Node5&#45;&gt;Node2 -->
<g id="edge6_Node000005_Node000002" class="edge">
<title>Node5&#45;&gt;Node2</title>
<g id="a_edge6_Node000005_Node000002"><a xlink:title=" ">
<path fill="none" stroke="#63b8ff" d="M305.83,-76.61C289.77,-65.66 269.91,-52.12 253.9,-41.2"/>
<polygon fill="#63b8ff" stroke="#63b8ff" points="304.08,-79.65 314.31,-82.39 308.02,-73.87 304.08,-79.65"/>
</a>
</g>
</g>
<!-- Node6 -->
<g id="Node000006" class="node">
<title>Node6</title>
<g id="a_Node000006"><a xlink:href="api_8cpp.html" target="_top" xlink:title=" ">
<polygon fill="white" stroke="#666666" points="450,-41 312,-41 312,0 450,0 450,-41"/>
<text text-anchor="start" x="320" y="-29" font-family="Helvetica,sans-Serif" font-size="10.00">/home/runner/work/cbmc</text>
<text text-anchor="start" x="320" y="-18" font-family="Helvetica,sans-Serif" font-size="10.00">/cbmc/src/libcprover&#45;cpp</text>
<text text-anchor="middle" x="381" y="-7" font-family="Helvetica,sans-Serif" font-size="10.00">/api.cpp</text>
</a>
</g>
</g>
<!-- Node5&#45;&gt;Node6 -->
<g id="edge7_Node000005_Node000006" class="edge">
<title>Node5&#45;&gt;Node6</title>
<g id="a_edge7_Node000005_Node000006"><a xlink:title=" ">
<path fill="none" stroke="#63b8ff" d="M348.91,-73.82C355.29,-63.42 362.78,-51.21 368.91,-41.2"/>
<polygon fill="#63b8ff" stroke="#63b8ff" points="345.9,-72.04 343.65,-82.39 351.86,-75.7 345.9,-72.04"/>
</a>
</g>
</g>
</g>
</svg>
