<?xml version="1.0" encoding="UTF-8" standalone="no"?>
<!DOCTYPE svg PUBLIC "-//W3C//DTD SVG 1.1//EN"
 "http://www.w3.org/Graphics/SVG/1.1/DTD/svg11.dtd">
<!-- Generated by graphviz version 2.43.0 (0)
 -->
<!-- Title: /home/runner/work/cbmc/cbmc/src/util/arith_tools.h Pages: 1 -->
<svg width="946pt" height="643pt"
 viewBox="0.00 0.00 946.00 643.00" xmlns="http://www.w3.org/2000/svg" xmlns:xlink="http://www.w3.org/1999/xlink">
<g id="graph0" class="graph" transform="scale(1 1) rotate(0) translate(4 639)">
<title>/home/runner/work/cbmc/cbmc/src/util/arith_tools.h</title>
<!-- Node1 -->
<g id="Node000001" class="node">
<title>Node1</title>
<g id="a_Node000001"><a xlink:title=" ">
<polygon fill="#999999" stroke="#666666" points="614,-635 468,-635 468,-605 614,-605 614,-635"/>
<text text-anchor="start" x="476" y="-623" font-family="Helvetica,sans-Serif" font-size="10.00">/home/runner/work/cbmc</text>
<text text-anchor="middle" x="541" y="-612" font-family="Helvetica,sans-Serif" font-size="10.00">/cbmc/src/util/arith_tools.h</text>
</a>
</g>
</g>
<!-- Node2 -->
<g id="Node000002" class="node">
<title>Node2</title>
<g id="a_Node000002"><a xlink:href="src_2util_2invariant_8h.html" target="_top" xlink:title=" ">
<polygon fill="white" stroke="#666666" points="364.5,-74 295.5,-74 295.5,-55 364.5,-55 364.5,-74"/>
<text text-anchor="middle" x="330" y="-62" font-family="Helvetica,sans-Serif" font-size="10.00">invariant.h</text>
</a>
</g>
</g>
<!-- Node1&#45;&gt;Node2 -->
<g id="edge1_Node000001_Node000002" class="edge">
<title>Node1&#45;&gt;Node2</title>
<g id="a_edge1_Node000001_Node000002"><a xlink:title=" ">
<path fill="none" stroke="#63b8ff" d="M467.76,-618.75C319.96,-616.26 0,-599.97 0,-505.5 0,-505.5 0,-505.5 0,-173.5 0,-114.15 195.24,-82.2 285.37,-70.62"/>
<polygon fill="#63b8ff" stroke="#63b8ff" points="285.82,-74.09 295.31,-69.37 284.95,-67.15 285.82,-74.09"/>
</a>
</g>
</g>
<!-- Node7 -->
<g id="Node000007" class="node">
<title>Node7</title>
<g id="a_Node000007"><a xlink:href="mp__arith_8h.html" target="_top" xlink:title=" ">
<polygon fill="white" stroke="#666666" points="857.5,-459 788.5,-459 788.5,-440 857.5,-440 857.5,-459"/>
<text text-anchor="middle" x="823" y="-447" font-family="Helvetica,sans-Serif" font-size="10.00">mp_arith.h</text>
</a>
</g>
</g>
<!-- Node1&#45;&gt;Node7 -->
<g id="edge6_Node000001_Node000007" class="edge">
<title>Node1&#45;&gt;Node7</title>
<g id="a_edge6_Node000001_Node000007"><a xlink:title=" ">
<path fill="none" stroke="#63b8ff" d="M556.21,-604.97C572.65,-590.21 600,-566.84 626,-550 682.33,-513.51 753.8,-480.38 793.32,-463.09"/>
<polygon fill="#63b8ff" stroke="#63b8ff" points="794.87,-466.23 802.65,-459.04 792.09,-459.81 794.87,-466.23"/>
</a>
</g>
</g>
<!-- Node10 -->
<g id="Node000010" class="node">
<title>Node10</title>
<g id="a_Node000010"><a xlink:href="std__expr_8h.html" target="_top" xlink:title="API to expression classes.">
<polygon fill="white" stroke="#666666" points="542.5,-569 475.5,-569 475.5,-550 542.5,-550 542.5,-569"/>
<text text-anchor="middle" x="509" y="-557" font-family="Helvetica,sans-Serif" font-size="10.00">std_expr.h</text>
</a>
</g>
</g>
<!-- Node1&#45;&gt;Node10 -->
<g id="edge10_Node000001_Node000010" class="edge">
<title>Node1&#45;&gt;Node10</title>
<g id="a_edge10_Node000001_Node000010"><a xlink:title=" ">
<path fill="none" stroke="#63b8ff" d="M533.25,-604.84C528.85,-596.78 523.29,-586.62 518.6,-578.06"/>
<polygon fill="#63b8ff" stroke="#63b8ff" points="521.66,-576.36 513.8,-569.27 515.52,-579.72 521.66,-576.36"/>
</a>
</g>
</g>
<!-- Node42 -->
<g id="Node000042" class="node">
<title>Node42</title>
<g id="a_Node000042"><a xlink:title=" ">
<polygon fill="#e0e0e0" stroke="#999999" points="679,-569 635,-569 635,-550 679,-550 679,-569"/>
<text text-anchor="middle" x="657" y="-557" font-family="Helvetica,sans-Serif" font-size="10.00">limits</text>
</a>
</g>
</g>
<!-- Node1&#45;&gt;Node42 -->
<g id="edge47_Node000001_Node000042" class="edge">
<title>Node1&#45;&gt;Node42</title>
<g id="a_edge47_Node000001_Node000042"><a xlink:title=" ">
<path fill="none" stroke="#63b8ff" d="M568.78,-604.99C587.62,-595.49 612.35,-583.02 630.84,-573.69"/>
<polygon fill="#63b8ff" stroke="#63b8ff" points="632.52,-576.77 639.87,-569.14 629.36,-570.52 632.52,-576.77"/>
</a>
</g>
</g>
<!-- Node3 -->
<g id="Node000003" class="node">
<title>Node3</title>
<g id="a_Node000003"><a xlink:title=" ">
<polygon fill="#e0e0e0" stroke="#999999" points="319.5,-19 270.5,-19 270.5,0 319.5,0 319.5,-19"/>
<text text-anchor="middle" x="295" y="-7" font-family="Helvetica,sans-Serif" font-size="10.00">cstdlib</text>
</a>
</g>
</g>
<!-- Node2&#45;&gt;Node3 -->
<g id="edge2_Node000002_Node000003" class="edge">
<title>Node2&#45;&gt;Node3</title>
<g id="a_edge2_Node000002_Node000003"><a xlink:title=" ">
<path fill="none" stroke="#63b8ff" d="M324.22,-54.75C319.38,-47.42 312.32,-36.73 306.36,-27.7"/>
<polygon fill="#63b8ff" stroke="#63b8ff" points="309.1,-25.5 300.67,-19.09 303.26,-29.36 309.1,-25.5"/>
</a>
</g>
</g>
<!-- Node4 -->
<g id="Node000004" class="node">
<title>Node4</title>
<g id="a_Node000004"><a xlink:title=" ">
<polygon fill="#e0e0e0" stroke="#999999" points="394,-19 338,-19 338,0 394,0 394,-19"/>
<text text-anchor="middle" x="366" y="-7" font-family="Helvetica,sans-Serif" font-size="10.00">sstream</text>
</a>
</g>
</g>
<!-- Node2&#45;&gt;Node4 -->
<g id="edge3_Node000002_Node000004" class="edge">
<title>Node2&#45;&gt;Node4</title>
<g id="a_edge3_Node000002_Node000004"><a xlink:title=" ">
<path fill="none" stroke="#63b8ff" d="M335.94,-54.75C340.98,-47.34 348.34,-36.5 354.51,-27.41"/>
<polygon fill="#63b8ff" stroke="#63b8ff" points="357.44,-29.33 360.17,-19.09 351.65,-25.39 357.44,-29.33"/>
</a>
</g>
</g>
<!-- Node5 -->
<g id="Node000005" class="node">
<title>Node5</title>
<g id="a_Node000005"><a xlink:title=" ">
<polygon fill="#e0e0e0" stroke="#999999" points="557,-19 513,-19 513,0 557,0 557,-19"/>
<text text-anchor="middle" x="535" y="-7" font-family="Helvetica,sans-Serif" font-size="10.00">string</text>
</a>
</g>
</g>
<!-- Node2&#45;&gt;Node5 -->
<g id="edge4_Node000002_Node000005" class="edge">
<title>Node2&#45;&gt;Node5</title>
<g id="a_edge4_Node000002_Node000005"><a xlink:title=" ">
<path fill="none" stroke="#63b8ff" d="M362.94,-54.98C401.42,-45.03 464.68,-28.68 502.83,-18.82"/>
<polygon fill="#63b8ff" stroke="#63b8ff" points="504.08,-22.11 512.88,-16.22 502.33,-15.33 504.08,-22.11"/>
</a>
</g>
</g>
<!-- Node6 -->
<g id="Node000006" class="node">
<title>Node6</title>
<g id="a_Node000006"><a xlink:title=" ">
<polygon fill="#e0e0e0" stroke="#999999" points="227.5,-19 158.5,-19 158.5,0 227.5,0 227.5,-19"/>
<text text-anchor="middle" x="193" y="-7" font-family="Helvetica,sans-Serif" font-size="10.00">type_traits</text>
</a>
</g>
</g>
<!-- Node2&#45;&gt;Node6 -->
<g id="edge5_Node000002_Node000006" class="edge">
<title>Node2&#45;&gt;Node6</title>
<g id="a_edge5_Node000002_Node000006"><a xlink:title=" ">
<path fill="none" stroke="#63b8ff" d="M307.99,-54.98C285.55,-46.3 250.52,-32.75 225.01,-22.88"/>
<polygon fill="#63b8ff" stroke="#63b8ff" points="226,-19.51 215.41,-19.17 223.48,-26.04 226,-19.51"/>
</a>
</g>
</g>
<!-- Node7&#45;&gt;Node5 -->
<g id="edge8_Node000007_Node000005" class="edge">
<title>Node7&#45;&gt;Node5</title>
<g id="a_edge8_Node000007_Node000005"><a xlink:title=" ">
<path fill="none" stroke="#63b8ff" d="M807.05,-439.83C780.24,-423.96 729,-387.48 729,-340.5 729,-340.5 729,-340.5 729,-118.5 729,-45.35 622.4,-21.3 567.24,-13.76"/>
<polygon fill="#63b8ff" stroke="#63b8ff" points="567.61,-10.28 557.25,-12.5 566.74,-17.22 567.61,-10.28"/>
</a>
</g>
</g>
<!-- Node8 -->
<g id="Node000008" class="node">
<title>Node8</title>
<g id="a_Node000008"><a xlink:title=" ">
<polygon fill="#e0e0e0" stroke="#999999" points="826,-404 778,-404 778,-385 826,-385 826,-404"/>
<text text-anchor="middle" x="802" y="-392" font-family="Helvetica,sans-Serif" font-size="10.00">iosfwd</text>
</a>
</g>
</g>
<!-- Node7&#45;&gt;Node8 -->
<g id="edge7_Node000007_Node000008" class="edge">
<title>Node7&#45;&gt;Node8</title>
<g id="a_edge7_Node000007_Node000008"><a xlink:title=" ">
<path fill="none" stroke="#63b8ff" d="M819.53,-439.75C816.72,-432.65 812.66,-422.4 809.15,-413.56"/>
<polygon fill="#63b8ff" stroke="#63b8ff" points="812.34,-412.1 805.4,-404.09 805.83,-414.68 812.34,-412.1"/>
</a>
</g>
</g>
<!-- Node9 -->
<g id="Node000009" class="node">
<title>Node9</title>
<g id="a_Node000009"><a xlink:title=" ">
<polygon fill="#e0e0e0" stroke="#999999" points="938,-404 844,-404 844,-385 938,-385 938,-404"/>
<text text-anchor="middle" x="891" y="-392" font-family="Helvetica,sans-Serif" font-size="10.00">big&#45;int/bigint.hh</text>
</a>
</g>
</g>
<!-- Node7&#45;&gt;Node9 -->
<g id="edge9_Node000007_Node000009" class="edge">
<title>Node7&#45;&gt;Node9</title>
<g id="a_edge9_Node000007_Node000009"><a xlink:title=" ">
<path fill="none" stroke="#63b8ff" d="M833.93,-439.98C844.08,-432.07 859.42,-420.11 871.65,-410.58"/>
<polygon fill="#63b8ff" stroke="#63b8ff" points="874.14,-413.08 879.88,-404.17 869.84,-407.56 874.14,-413.08"/>
</a>
</g>
</g>
<!-- Node10&#45;&gt;Node2 -->
<g id="edge39_Node000010_Node000002" class="edge">
<title>Node10&#45;&gt;Node2</title>
<g id="a_edge39_Node000010_Node000002"><a xlink:title=" ">
<path fill="none" stroke="#63b8ff" d="M475.13,-557.98C367.13,-555.42 38,-540.27 38,-450.5 38,-450.5 38,-450.5 38,-228.5 38,-116.59 203.55,-80.79 285.34,-69.94"/>
<polygon fill="#63b8ff" stroke="#63b8ff" points="285.87,-73.4 295.36,-68.68 285,-66.45 285.87,-73.4"/>
</a>
</g>
</g>
<!-- Node11 -->
<g id="Node000011" class="node">
<title>Node11</title>
<g id="a_Node000011"><a xlink:href="expr__cast_8h.html" target="_top" xlink:title="Templated functions to cast to specific exprt&#45;derived classes.">
<polygon fill="white" stroke="#666666" points="289.5,-459 216.5,-459 216.5,-440 289.5,-440 289.5,-459"/>
<text text-anchor="middle" x="253" y="-447" font-family="Helvetica,sans-Serif" font-size="10.00">expr_cast.h</text>
</a>
</g>
</g>
<!-- Node10&#45;&gt;Node11 -->
<g id="edge11_Node000010_Node000011" class="edge">
<title>Node10&#45;&gt;Node11</title>
<g id="a_edge11_Node000010_Node000011"><a xlink:title=" ">
<path fill="none" stroke="#63b8ff" d="M488.48,-549.84C443.34,-530.8 335.25,-485.2 282.7,-463.03"/>
<polygon fill="#63b8ff" stroke="#63b8ff" points="283.83,-459.71 273.26,-459.05 281.11,-466.16 283.83,-459.71"/>
</a>
</g>
</g>
<!-- Node41 -->
<g id="Node000041" class="node">
<title>Node41</title>
<g id="a_Node000041"><a xlink:href="std__types_8h.html" target="_top" xlink:title="Pre&#45;defined types.">
<polygon fill="white" stroke="#666666" points="578.5,-514 505.5,-514 505.5,-495 578.5,-495 578.5,-514"/>
<text text-anchor="middle" x="542" y="-502" font-family="Helvetica,sans-Serif" font-size="10.00">std_types.h</text>
</a>
</g>
</g>
<!-- Node10&#45;&gt;Node41 -->
<g id="edge40_Node000010_Node000041" class="edge">
<title>Node10&#45;&gt;Node41</title>
<g id="a_edge40_Node000010_Node000041"><a xlink:title=" ">
<path fill="none" stroke="#63b8ff" d="M514.45,-549.75C519.01,-542.42 525.67,-531.73 531.29,-522.7"/>
<polygon fill="#63b8ff" stroke="#63b8ff" points="534.34,-524.43 536.65,-514.09 528.4,-520.73 534.34,-524.43"/>
</a>
</g>
</g>
<!-- Node11&#45;&gt;Node2 -->
<g id="edge15_Node000011_Node000002" class="edge">
<title>Node11&#45;&gt;Node2</title>
<g id="a_edge15_Node000011_Node000002"><a xlink:title=" ">
<path fill="none" stroke="#63b8ff" d="M241.96,-439.73C230.8,-430.82 213.09,-416.59 198,-404 169.2,-379.98 149.65,-383.08 134,-349 130.48,-341.33 133.02,-338.39 134,-330 146.8,-220.21 165.2,-180.9 250,-110 265.25,-97.25 284.69,-86.34 300.58,-78.51"/>
<polygon fill="#63b8ff" stroke="#63b8ff" points="302.43,-81.51 309.96,-74.05 299.42,-75.19 302.43,-81.51"/>
</a>
</g>
</g>
<!-- Node11&#45;&gt;Node6 -->
<g id="edge13_Node000011_Node000006" class="edge">
<title>Node11&#45;&gt;Node6</title>
<g id="a_edge13_Node000011_Node000006"><a xlink:title=" ">
<path fill="none" stroke="#63b8ff" d="M216.33,-442.9C164.48,-432.67 76,-405.66 76,-340.5 76,-340.5 76,-340.5 76,-118.5 76,-71.75 127.05,-39.64 161.71,-23.23"/>
<polygon fill="#63b8ff" stroke="#63b8ff" points="163.33,-26.33 170.99,-19.01 160.44,-19.96 163.33,-26.33"/>
</a>
</g>
</g>
<!-- Node12 -->
<g id="Node000012" class="node">
<title>Node12</title>
<g id="a_Node000012"><a xlink:title=" ">
<polygon fill="#e0e0e0" stroke="#999999" points="281.5,-404 224.5,-404 224.5,-385 281.5,-385 281.5,-404"/>
<text text-anchor="middle" x="253" y="-392" font-family="Helvetica,sans-Serif" font-size="10.00">typeinfo</text>
</a>
</g>
</g>
<!-- Node11&#45;&gt;Node12 -->
<g id="edge12_Node000011_Node000012" class="edge">
<title>Node11&#45;&gt;Node12</title>
<g id="a_edge12_Node000011_Node000012"><a xlink:title=" ">
<path fill="none" stroke="#63b8ff" d="M253,-439.75C253,-432.8 253,-422.85 253,-414.13"/>
<polygon fill="#63b8ff" stroke="#63b8ff" points="256.5,-414.09 253,-404.09 249.5,-414.09 256.5,-414.09"/>
</a>
</g>
</g>
<!-- Node13 -->
<g id="Node000013" class="node">
<title>Node13</title>
<g id="a_Node000013"><a xlink:title=" ">
<polygon fill="#e0e0e0" stroke="#999999" points="207.5,-349 142.5,-349 142.5,-330 207.5,-330 207.5,-349"/>
<text text-anchor="middle" x="175" y="-337" font-family="Helvetica,sans-Serif" font-size="10.00">functional</text>
</a>
</g>
</g>
<!-- Node11&#45;&gt;Node13 -->
<g id="edge14_Node000011_Node000013" class="edge">
<title>Node11&#45;&gt;Node13</title>
<g id="a_edge14_Node000011_Node000013"><a xlink:title=" ">
<path fill="none" stroke="#63b8ff" d="M245.31,-439.89C237.59,-431.1 225.52,-416.96 216,-404 204.98,-389 193.59,-371.13 185.61,-358.17"/>
<polygon fill="#63b8ff" stroke="#63b8ff" points="188.44,-356.07 180.25,-349.35 182.46,-359.71 188.44,-356.07"/>
</a>
</g>
</g>
<!-- Node14 -->
<g id="Node000014" class="node">
<title>Node14</title>
<g id="a_Node000014"><a xlink:href="expr_8h.html" target="_top" xlink:title=" ">
<polygon fill="white" stroke="#666666" points="354.5,-404 307.5,-404 307.5,-385 354.5,-385 354.5,-404"/>
<text text-anchor="middle" x="331" y="-392" font-family="Helvetica,sans-Serif" font-size="10.00">expr.h</text>
</a>
</g>
</g>
<!-- Node11&#45;&gt;Node14 -->
<g id="edge16_Node000011_Node000014" class="edge">
<title>Node11&#45;&gt;Node14</title>
<g id="a_edge16_Node000011_Node000014"><a xlink:title=" ">
<path fill="none" stroke="#63b8ff" d="M265.53,-439.98C277.4,-431.92 295.46,-419.65 309.61,-410.03"/>
<polygon fill="#63b8ff" stroke="#63b8ff" points="311.94,-412.69 318.24,-404.17 308,-406.9 311.94,-412.69"/>
</a>
</g>
</g>
<!-- Node14&#45;&gt;Node13 -->
<g id="edge38_Node000014_Node000013" class="edge">
<title>Node14&#45;&gt;Node13</title>
<g id="a_edge38_Node000014_Node000013"><a xlink:title=" ">
<path fill="none" stroke="#63b8ff" d="M307.31,-385.45C281.35,-376.63 239.45,-362.4 209.77,-352.31"/>
<polygon fill="#63b8ff" stroke="#63b8ff" points="210.81,-348.97 200.21,-349.07 208.55,-355.6 210.81,-348.97"/>
</a>
</g>
</g>
<!-- Node15 -->
<g id="Node000015" class="node">
<title>Node15</title>
<g id="a_Node000015"><a xlink:href="as__const_8h.html" target="_top" xlink:title=" ">
<polygon fill="white" stroke="#666666" points="370,-349 302,-349 302,-330 370,-330 370,-349"/>
<text text-anchor="middle" x="336" y="-337" font-family="Helvetica,sans-Serif" font-size="10.00">as_const.h</text>
</a>
</g>
</g>
<!-- Node14&#45;&gt;Node15 -->
<g id="edge17_Node000014_Node000015" class="edge">
<title>Node14&#45;&gt;Node15</title>
<g id="a_edge17_Node000014_Node000015"><a xlink:title=" ">
<path fill="none" stroke="#63b8ff" d="M331.83,-384.75C332.48,-377.8 333.42,-367.85 334.24,-359.13"/>
<polygon fill="#63b8ff" stroke="#63b8ff" points="337.73,-359.37 335.19,-349.09 330.77,-358.72 337.73,-359.37"/>
</a>
</g>
</g>
<!-- Node16 -->
<g id="Node000016" class="node">
<title>Node16</title>
<g id="a_Node000016"><a xlink:href="type_8h.html" target="_top" xlink:title="Defines typet, type_with_subtypet and type_with_subtypest.">
<polygon fill="white" stroke="#666666" points="435.5,-349 388.5,-349 388.5,-330 435.5,-330 435.5,-349"/>
<text text-anchor="middle" x="412" y="-337" font-family="Helvetica,sans-Serif" font-size="10.00">type.h</text>
</a>
</g>
</g>
<!-- Node14&#45;&gt;Node16 -->
<g id="edge18_Node000014_Node000016" class="edge">
<title>Node14&#45;&gt;Node16</title>
<g id="a_edge18_Node000014_Node000016"><a xlink:title=" ">
<path fill="none" stroke="#63b8ff" d="M344.01,-384.98C356.46,-376.84 375.46,-364.41 390.21,-354.76"/>
<polygon fill="#63b8ff" stroke="#63b8ff" points="392.3,-357.57 398.75,-349.17 388.46,-351.72 392.3,-357.57"/>
</a>
</g>
</g>
<!-- Node38 -->
<g id="Node000038" class="node">
<title>Node38</title>
<g id="a_Node000038"><a xlink:href="validation__mode_8h.html" target="_top" xlink:title=" ">
<polygon fill="white" stroke="#666666" points="275.5,-239 168.5,-239 168.5,-220 275.5,-220 275.5,-239"/>
<text text-anchor="middle" x="222" y="-227" font-family="Helvetica,sans-Serif" font-size="10.00">validation_mode.h</text>
</a>
</g>
</g>
<!-- Node14&#45;&gt;Node38 -->
<g id="edge37_Node000014_Node000038" class="edge">
<title>Node14&#45;&gt;Node38</title>
<g id="a_edge37_Node000014_Node000038"><a xlink:title=" ">
<path fill="none" stroke="#63b8ff" d="M321.18,-384.94C303.37,-368.88 265.68,-332.4 245,-294 237.18,-279.48 231.01,-261.75 227.04,-248.72"/>
<polygon fill="#63b8ff" stroke="#63b8ff" points="230.38,-247.68 224.23,-239.05 223.66,-249.63 230.38,-247.68"/>
</a>
</g>
</g>
<!-- Node39 -->
<g id="Node000039" class="node">
<title>Node39</title>
<g id="a_Node000039"><a xlink:href="validate__types_8h.html" target="_top" xlink:title=" ">
<polygon fill="white" stroke="#666666" points="352,-294 254,-294 254,-275 352,-275 352,-294"/>
<text text-anchor="middle" x="303" y="-282" font-family="Helvetica,sans-Serif" font-size="10.00">validate_types.h</text>
</a>
</g>
</g>
<!-- Node14&#45;&gt;Node39 -->
<g id="edge36_Node000014_Node000039" class="edge">
<title>Node14&#45;&gt;Node39</title>
<g id="a_edge36_Node000014_Node000039"><a xlink:title=" ">
<path fill="none" stroke="#63b8ff" d="M320.29,-384.93C311.07,-376.8 298.41,-363.68 293,-349 287.63,-334.44 291.04,-316.96 295.28,-304.03"/>
<polygon fill="#63b8ff" stroke="#63b8ff" points="298.66,-304.99 298.87,-294.4 292.1,-302.55 298.66,-304.99"/>
</a>
</g>
</g>
<!-- Node40 -->
<g id="Node000040" class="node">
<title>Node40</title>
<g id="a_Node000040"><a xlink:href="validate__expressions_8h.html" target="_top" xlink:title=" ">
<polygon fill="white" stroke="#666666" points="582.5,-349 453.5,-349 453.5,-330 582.5,-330 582.5,-349"/>
<text text-anchor="middle" x="518" y="-337" font-family="Helvetica,sans-Serif" font-size="10.00">validate_expressions.h</text>
</a>
</g>
</g>
<!-- Node14&#45;&gt;Node40 -->
<g id="edge35_Node000014_Node000040" class="edge">
<title>Node14&#45;&gt;Node40</title>
<g id="a_edge35_Node000014_Node000040"><a xlink:title=" ">
<path fill="none" stroke="#63b8ff" d="M354.68,-386.79C385.59,-378.03 440.13,-362.57 477.62,-351.94"/>
<polygon fill="#63b8ff" stroke="#63b8ff" points="479.04,-355.18 487.71,-349.09 477.13,-348.44 479.04,-355.18"/>
</a>
</g>
</g>
<!-- Node17 -->
<g id="Node000017" class="node">
<title>Node17</title>
<g id="a_Node000017"><a xlink:href="source__location_8h.html" target="_top" xlink:title=" ">
<polygon fill="white" stroke="#666666" points="469,-184 367,-184 367,-165 469,-165 469,-184"/>
<text text-anchor="middle" x="418" y="-172" font-family="Helvetica,sans-Serif" font-size="10.00">source_location.h</text>
</a>
</g>
</g>
<!-- Node16&#45;&gt;Node17 -->
<g id="edge19_Node000016_Node000017" class="edge">
<title>Node16&#45;&gt;Node17</title>
<g id="a_edge19_Node000016_Node000017"><a xlink:title=" ">
<path fill="none" stroke="#63b8ff" d="M412.32,-329.74C413.26,-304.31 415.99,-230.08 417.29,-194.69"/>
<polygon fill="#63b8ff" stroke="#63b8ff" points="420.81,-194.43 417.68,-184.31 413.81,-194.17 420.81,-194.43"/>
</a>
</g>
</g>
<!-- Node36 -->
<g id="Node000036" class="node">
<title>Node36</title>
<g id="a_Node000036"><a xlink:href="validate_8h.html" target="_top" xlink:title=" ">
<polygon fill="white" stroke="#666666" points="511.5,-294 446.5,-294 446.5,-275 511.5,-275 511.5,-294"/>
<text text-anchor="middle" x="479" y="-282" font-family="Helvetica,sans-Serif" font-size="10.00">validate.h</text>
</a>
</g>
</g>
<!-- Node16&#45;&gt;Node36 -->
<g id="edge26_Node000016_Node000036" class="edge">
<title>Node16&#45;&gt;Node36</title>
<g id="a_edge26_Node000016_Node000036"><a xlink:title=" ">
<path fill="none" stroke="#63b8ff" d="M422.76,-329.98C432.77,-322.07 447.89,-310.11 459.93,-300.58"/>
<polygon fill="#63b8ff" stroke="#63b8ff" points="462.37,-303.12 468.04,-294.17 458.03,-297.63 462.37,-303.12"/>
</a>
</g>
</g>
<!-- Node16&#45;&gt;Node38 -->
<g id="edge34_Node000016_Node000038" class="edge">
<title>Node16&#45;&gt;Node38</title>
<g id="a_edge34_Node000016_Node000038"><a xlink:title=" ">
<path fill="none" stroke="#63b8ff" d="M407.26,-329.75C399.41,-316.09 382.44,-289.73 361,-275 337.39,-258.78 307.52,-248.2 281.53,-241.46"/>
<polygon fill="#63b8ff" stroke="#63b8ff" points="282.33,-238.05 271.78,-239.05 280.65,-244.84 282.33,-238.05"/>
</a>
</g>
</g>
<!-- Node16&#45;&gt;Node39 -->
<g id="edge33_Node000016_Node000039" class="edge">
<title>Node16&#45;&gt;Node39</title>
<g id="a_edge33_Node000016_Node000039"><a xlink:title=" ">
<path fill="none" stroke="#63b8ff" d="M394.49,-329.98C377.03,-321.5 349.99,-308.35 329.83,-298.54"/>
<polygon fill="#63b8ff" stroke="#63b8ff" points="331.36,-295.4 320.83,-294.17 328.29,-301.69 331.36,-295.4"/>
</a>
</g>
</g>
<!-- Node17&#45;&gt;Node5 -->
<g id="edge25_Node000017_Node000005" class="edge">
<title>Node17&#45;&gt;Node5</title>
<g id="a_edge25_Node000017_Node000005"><a xlink:title=" ">
<path fill="none" stroke="#63b8ff" d="M433.44,-164.96C446.65,-157.04 465.44,-144.2 478,-129 503.71,-97.88 521.1,-53.21 529.39,-28.56"/>
<polygon fill="#63b8ff" stroke="#63b8ff" points="532.73,-29.63 532.48,-19.04 526.07,-27.48 532.73,-29.63"/>
</a>
</g>
</g>
<!-- Node18 -->
<g id="Node000018" class="node">
<title>Node18</title>
<g id="a_Node000018"><a xlink:href="deprecate_8h.html" target="_top" xlink:title=" ">
<polygon fill="white" stroke="#666666" points="469,-129 395,-129 395,-110 469,-110 469,-129"/>
<text text-anchor="middle" x="432" y="-117" font-family="Helvetica,sans-Serif" font-size="10.00">deprecate.h</text>
</a>
</g>
</g>
<!-- Node17&#45;&gt;Node18 -->
<g id="edge20_Node000017_Node000018" class="edge">
<title>Node17&#45;&gt;Node18</title>
<g id="a_edge20_Node000017_Node000018"><a xlink:title=" ">
<path fill="none" stroke="#63b8ff" d="M420.31,-164.75C422.17,-157.72 424.84,-147.62 427.15,-138.84"/>
<polygon fill="#63b8ff" stroke="#63b8ff" points="430.56,-139.65 429.73,-129.09 423.79,-137.86 430.56,-139.65"/>
</a>
</g>
</g>
<!-- Node19 -->
<g id="Node000019" class="node">
<title>Node19</title>
<g id="a_Node000019"><a xlink:href="irep_8h.html" target="_top" xlink:title=" ">
<polygon fill="#fff0f0" stroke="red" points="377,-129 333,-129 333,-110 377,-110 377,-129"/>
<text text-anchor="middle" x="355" y="-117" font-family="Helvetica,sans-Serif" font-size="10.00">irep.h</text>
</a>
</g>
</g>
<!-- Node17&#45;&gt;Node19 -->
<g id="edge21_Node000017_Node000019" class="edge">
<title>Node17&#45;&gt;Node19</title>
<g id="a_edge21_Node000017_Node000019"><a xlink:title=" ">
<path fill="none" stroke="#63b8ff" d="M407.88,-164.98C398.56,-157.15 384.53,-145.34 373.26,-135.86"/>
<polygon fill="#63b8ff" stroke="#63b8ff" points="375.21,-132.93 365.31,-129.17 370.71,-138.29 375.21,-132.93"/>
</a>
</g>
</g>
<!-- Node35 -->
<g id="Node000035" class="node">
<title>Node35</title>
<g id="a_Node000035"><a xlink:title=" ">
<polygon fill="#e0e0e0" stroke="#999999" points="315,-129 259,-129 259,-110 315,-110 315,-129"/>
<text text-anchor="middle" x="287" y="-117" font-family="Helvetica,sans-Serif" font-size="10.00">optional</text>
</a>
</g>
</g>
<!-- Node17&#45;&gt;Node35 -->
<g id="edge24_Node000017_Node000035" class="edge">
<title>Node17&#45;&gt;Node35</title>
<g id="a_edge24_Node000017_Node000035"><a xlink:title=" ">
<path fill="none" stroke="#63b8ff" d="M396.95,-164.98C375.59,-156.34 342.3,-142.87 317.94,-133.02"/>
<polygon fill="#63b8ff" stroke="#63b8ff" points="319.01,-129.68 308.43,-129.17 316.39,-136.17 319.01,-129.68"/>
</a>
</g>
</g>
<!-- Node19&#45;&gt;Node2 -->
<g id="edge23_Node000019_Node000002" class="edge">
<title>Node19&#45;&gt;Node2</title>
<g id="a_edge23_Node000019_Node000002"><a xlink:title=" ">
<path fill="none" stroke="#63b8ff" d="M350.87,-109.75C347.49,-102.57 342.58,-92.18 338.38,-83.27"/>
<polygon fill="#63b8ff" stroke="#63b8ff" points="341.48,-81.64 334.05,-74.09 335.15,-84.63 341.48,-81.64"/>
</a>
</g>
</g>
<!-- Node19&#45;&gt;Node5 -->
<g id="edge22_Node000019_Node000005" class="edge">
<title>Node19&#45;&gt;Node5</title>
<g id="a_edge22_Node000019_Node000005"><a xlink:title=" ">
<path fill="none" stroke="#63b8ff" d="M369.43,-109.84C400.5,-91.2 473.98,-47.11 511.73,-24.46"/>
<polygon fill="#63b8ff" stroke="#63b8ff" points="513.73,-27.34 520.51,-19.2 510.13,-21.34 513.73,-27.34"/>
</a>
</g>
</g>
<!-- Node36&#45;&gt;Node6 -->
<g id="edge27_Node000036_Node000006" class="edge">
<title>Node36&#45;&gt;Node6</title>
<g id="a_edge27_Node000036_Node000006"><a xlink:title=" ">
<path fill="none" stroke="#63b8ff" d="M459.92,-274.97C417.21,-255.05 312.73,-201.57 250,-129 223.6,-98.46 206.47,-53.57 198.41,-28.73"/>
<polygon fill="#63b8ff" stroke="#63b8ff" points="201.73,-27.63 195.42,-19.13 195.05,-29.71 201.73,-27.63"/>
</a>
</g>
</g>
<!-- Node37 -->
<g id="Node000037" class="node">
<title>Node37</title>
<g id="a_Node000037"><a xlink:href="exception__utils_8h.html" target="_top" xlink:title=" ">
<polygon fill="white" stroke="#666666" points="547,-239 447,-239 447,-220 547,-220 547,-239"/>
<text text-anchor="middle" x="497" y="-227" font-family="Helvetica,sans-Serif" font-size="10.00">exception_utils.h</text>
</a>
</g>
</g>
<!-- Node36&#45;&gt;Node37 -->
<g id="edge28_Node000036_Node000037" class="edge">
<title>Node36&#45;&gt;Node37</title>
<g id="a_edge28_Node000036_Node000037"><a xlink:title=" ">
<path fill="none" stroke="#63b8ff" d="M481.97,-274.75C484.36,-267.72 487.79,-257.62 490.77,-248.84"/>
<polygon fill="#63b8ff" stroke="#63b8ff" points="494.18,-249.68 494.08,-239.09 487.55,-247.43 494.18,-249.68"/>
</a>
</g>
</g>
<!-- Node36&#45;&gt;Node38 -->
<g id="edge32_Node000036_Node000038" class="edge">
<title>Node36&#45;&gt;Node38</title>
<g id="a_edge32_Node000036_Node000038"><a xlink:title=" ">
<path fill="none" stroke="#63b8ff" d="M446.45,-276.79C402.89,-267.8 325.16,-251.77 273.58,-241.14"/>
<polygon fill="#63b8ff" stroke="#63b8ff" points="274.13,-237.68 263.63,-239.09 272.72,-244.53 274.13,-237.68"/>
</a>
</g>
</g>
<!-- Node37&#45;&gt;Node2 -->
<g id="edge30_Node000037_Node000002" class="edge">
<title>Node37&#45;&gt;Node2</title>
<g id="a_edge30_Node000037_Node000002"><a xlink:title=" ">
<path fill="none" stroke="#63b8ff" d="M498.43,-219.78C501.44,-198.24 505.99,-141.99 478,-110 452.3,-80.63 408.03,-70.27 374.58,-66.8"/>
<polygon fill="#63b8ff" stroke="#63b8ff" points="374.85,-63.31 364.58,-65.93 374.24,-70.28 374.85,-63.31"/>
</a>
</g>
</g>
<!-- Node37&#45;&gt;Node5 -->
<g id="edge29_Node000037_Node000005" class="edge">
<title>Node37&#45;&gt;Node5</title>
<g id="a_edge29_Node000037_Node000005"><a xlink:title=" ">
<path fill="none" stroke="#63b8ff" d="M501,-219.83C504.9,-211 510.72,-196.82 514,-184 528.05,-129.02 532.78,-61.77 534.31,-29.52"/>
<polygon fill="#63b8ff" stroke="#63b8ff" points="537.81,-29.45 534.74,-19.31 530.82,-29.16 537.81,-29.45"/>
</a>
</g>
</g>
<!-- Node37&#45;&gt;Node17 -->
<g id="edge31_Node000037_Node000017" class="edge">
<title>Node37&#45;&gt;Node17</title>
<g id="a_edge31_Node000037_Node000017"><a xlink:title=" ">
<path fill="none" stroke="#63b8ff" d="M484.31,-219.98C472.17,-211.84 453.64,-199.41 439.25,-189.76"/>
<polygon fill="#63b8ff" stroke="#63b8ff" points="441.18,-186.84 430.92,-184.17 437.28,-192.65 441.18,-186.84"/>
</a>
</g>
</g>
<!-- Node41&#45;&gt;Node2 -->
<g id="edge43_Node000041_Node000002" class="edge">
<title>Node41&#45;&gt;Node2</title>
<g id="a_edge43_Node000041_Node000002"><a xlink:title=" ">
<path fill="none" stroke="#63b8ff" d="M561.13,-494.95C591.91,-479.73 649,-444.86 649,-395.5 649,-395.5 649,-395.5 649,-228.5 649,-106.88 462.86,-75.95 374.96,-68.13"/>
<polygon fill="#63b8ff" stroke="#63b8ff" points="375,-64.62 364.75,-67.29 374.42,-71.6 375,-64.62"/>
</a>
</g>
</g>
<!-- Node41&#45;&gt;Node7 -->
<g id="edge44_Node000041_Node000007" class="edge">
<title>Node41&#45;&gt;Node7</title>
<g id="a_edge44_Node000041_Node000007"><a xlink:title=" ">
<path fill="none" stroke="#63b8ff" d="M578.72,-496.76C623.48,-488.51 701.7,-474.01 778.01,-459.37"/>
<polygon fill="#63b8ff" stroke="#63b8ff" points="779.11,-462.72 788.27,-457.4 777.79,-455.85 779.11,-462.72"/>
</a>
</g>
</g>
<!-- Node41&#45;&gt;Node11 -->
<g id="edge42_Node000041_Node000011" class="edge">
<title>Node41&#45;&gt;Node11</title>
<g id="a_edge42_Node000041_Node000011"><a xlink:title=" ">
<path fill="none" stroke="#63b8ff" d="M505.4,-496.79C453.1,-487.2 356.99,-469.57 299.65,-459.06"/>
<polygon fill="#63b8ff" stroke="#63b8ff" points="300.23,-455.6 289.76,-457.24 298.96,-462.49 300.23,-455.6"/>
</a>
</g>
</g>
<!-- Node41&#45;&gt;Node14 -->
<g id="edge41_Node000041_Node000014" class="edge">
<title>Node41&#45;&gt;Node14</title>
<g id="a_edge41_Node000041_Node000014"><a xlink:title=" ">
<path fill="none" stroke="#63b8ff" d="M525.09,-494.84C488.27,-476 400.64,-431.14 356.84,-408.73"/>
<polygon fill="#63b8ff" stroke="#63b8ff" points="358.19,-405.49 347.7,-404.05 355,-411.72 358.19,-405.49"/>
</a>
</g>
</g>
<!-- Node41&#45;&gt;Node36 -->
<g id="edge45_Node000041_Node000036" class="edge">
<title>Node41&#45;&gt;Node36</title>
<g id="a_edge45_Node000041_Node000036"><a xlink:title=" ">
<path fill="none" stroke="#63b8ff" d="M549.24,-494.75C570.57,-467.87 629.4,-384.93 592,-330 576.3,-306.95 546.66,-295.84 521.67,-290.48"/>
<polygon fill="#63b8ff" stroke="#63b8ff" points="522.13,-287.01 511.66,-288.58 520.83,-293.88 522.13,-287.01"/>
</a>
</g>
</g>
<!-- Node27 -->
<g id="Node000027" class="node">
<title>Node27</title>
<g id="a_Node000027"><a xlink:title=" ">
<polygon fill="#e0e0e0" stroke="#999999" points="770.5,-459 677.5,-459 677.5,-440 770.5,-440 770.5,-459"/>
<text text-anchor="middle" x="724" y="-447" font-family="Helvetica,sans-Serif" font-size="10.00">unordered_map</text>
</a>
</g>
</g>
<!-- Node41&#45;&gt;Node27 -->
<g id="edge46_Node000041_Node000027" class="edge">
<title>Node41&#45;&gt;Node27</title>
<g id="a_edge46_Node000041_Node000027"><a xlink:title=" ">
<path fill="none" stroke="#63b8ff" d="M571.24,-494.98C602.06,-486.01 650.78,-471.82 684.89,-461.89"/>
<polygon fill="#63b8ff" stroke="#63b8ff" points="685.91,-465.24 694.53,-459.08 683.95,-458.52 685.91,-465.24"/>
</a>
</g>
</g>
</g>
</svg>
