<?xml version="1.0" encoding="UTF-8" standalone="no"?>
<!DOCTYPE svg PUBLIC "-//W3C//DTD SVG 1.1//EN"
 "http://www.w3.org/Graphics/SVG/1.1/DTD/svg11.dtd">
<!-- Generated by graphviz version 2.43.0 (0)
 -->
<!-- Title: /home/runner/work/cbmc/cbmc/src/solvers/strings/array_pool.h Pages: 1 -->
<svg width="995pt" height="764pt"
 viewBox="0.00 0.00 994.50 764.00" xmlns="http://www.w3.org/2000/svg" xmlns:xlink="http://www.w3.org/1999/xlink">
<g id="graph0" class="graph" transform="scale(1 1) rotate(0) translate(4 760)">
<title>/home/runner/work/cbmc/cbmc/src/solvers/strings/array_pool.h</title>
<!-- Node1 -->
<g id="Node000001" class="node">
<title>Node1</title>
<g id="a_Node000001"><a xlink:title="Associates arrays and length to pointers, so that the string refinement can transform builtin functio...">
<polygon fill="#999999" stroke="#666666" points="411,-756 273,-756 273,-715 411,-715 411,-756"/>
<text text-anchor="start" x="281" y="-744" font-family="Helvetica,sans-Serif" font-size="10.00">/home/runner/work/cbmc</text>
<text text-anchor="start" x="281" y="-733" font-family="Helvetica,sans-Serif" font-size="10.00">/cbmc/src/solvers/strings</text>
<text text-anchor="middle" x="342" y="-722" font-family="Helvetica,sans-Serif" font-size="10.00">/array_pool.h</text>
</a>
</g>
</g>
<!-- Node2 -->
<g id="Node000002" class="node">
<title>Node2</title>
<g id="a_Node000002"><a xlink:href="std__expr_8h.html" target="_top" xlink:title="API to expression classes.">
<polygon fill="white" stroke="#666666" points="374,-569 288,-569 288,-550 374,-550 374,-569"/>
<text text-anchor="middle" x="331" y="-557" font-family="Helvetica,sans-Serif" font-size="10.00">util/std_expr.h</text>
</a>
</g>
</g>
<!-- Node1&#45;&gt;Node2 -->
<g id="edge1_Node000001_Node000002" class="edge">
<title>Node1&#45;&gt;Node2</title>
<g id="a_edge1_Node000001_Node000002"><a xlink:title=" ">
<path fill="none" stroke="#63b8ff" d="M333.51,-714.87C329.45,-704.44 325.04,-691.26 323,-679 317.18,-644.04 322.78,-602.61 327.09,-579.15"/>
<polygon fill="#63b8ff" stroke="#63b8ff" points="330.56,-579.68 329.05,-569.19 323.69,-578.33 330.56,-579.68"/>
</a>
</g>
</g>
<!-- Node42 -->
<g id="Node000042" class="node">
<title>Node42</title>
<g id="a_Node000042"><a xlink:href="string__expr_8h.html" target="_top" xlink:title="String expressions for the string solver.">
<polygon fill="white" stroke="#666666" points="430,-679 332,-679 332,-660 430,-660 430,-679"/>
<text text-anchor="middle" x="381" y="-667" font-family="Helvetica,sans-Serif" font-size="10.00">util/string_expr.h</text>
</a>
</g>
</g>
<!-- Node1&#45;&gt;Node42 -->
<g id="edge45_Node000001_Node000042" class="edge">
<title>Node1&#45;&gt;Node42</title>
<g id="a_edge45_Node000001_Node000042"><a xlink:title=" ">
<path fill="none" stroke="#63b8ff" d="M353.91,-714.95C359.19,-706.3 365.34,-696.2 370.44,-687.82"/>
<polygon fill="#63b8ff" stroke="#63b8ff" points="373.45,-689.62 375.66,-679.26 367.47,-685.98 373.45,-689.62"/>
</a>
</g>
</g>
<!-- Node3 -->
<g id="Node000003" class="node">
<title>Node3</title>
<g id="a_Node000003"><a xlink:href="expr__cast_8h.html" target="_top" xlink:title="Templated functions to cast to specific exprt&#45;derived classes.">
<polygon fill="white" stroke="#666666" points="475.5,-459 402.5,-459 402.5,-440 475.5,-440 475.5,-459"/>
<text text-anchor="middle" x="439" y="-447" font-family="Helvetica,sans-Serif" font-size="10.00">expr_cast.h</text>
</a>
</g>
</g>
<!-- Node2&#45;&gt;Node3 -->
<g id="edge2_Node000002_Node000003" class="edge">
<title>Node2&#45;&gt;Node3</title>
<g id="a_edge2_Node000002_Node000003"><a xlink:title=" ">
<path fill="none" stroke="#63b8ff" d="M339.84,-549.66C358.04,-531.46 399.95,-489.55 423.03,-466.47"/>
<polygon fill="#63b8ff" stroke="#63b8ff" points="425.75,-468.7 430.34,-459.16 420.8,-463.75 425.75,-468.7"/>
</a>
</g>
</g>
<!-- Node7 -->
<g id="Node000007" class="node">
<title>Node7</title>
<g id="a_Node000007"><a xlink:href="src_2util_2invariant_8h.html" target="_top" xlink:title=" ">
<polygon fill="white" stroke="#666666" points="294.5,-74 225.5,-74 225.5,-55 294.5,-55 294.5,-74"/>
<text text-anchor="middle" x="260" y="-62" font-family="Helvetica,sans-Serif" font-size="10.00">invariant.h</text>
</a>
</g>
</g>
<!-- Node2&#45;&gt;Node7 -->
<g id="edge34_Node000002_Node000007" class="edge">
<title>Node2&#45;&gt;Node7</title>
<g id="a_edge34_Node000002_Node000007"><a xlink:title=" ">
<path fill="none" stroke="#63b8ff" d="M298.24,-549.99C221.78,-529.68 38,-477.98 38,-450.5 38,-450.5 38,-450.5 38,-173.5 38,-95.39 150.51,-73.76 215.34,-67.78"/>
<polygon fill="#63b8ff" stroke="#63b8ff" points="215.64,-71.26 225.31,-66.95 215.06,-64.29 215.64,-71.26"/>
</a>
</g>
</g>
<!-- Node39 -->
<g id="Node000039" class="node">
<title>Node39</title>
<g id="a_Node000039"><a xlink:href="std__types_8h.html" target="_top" xlink:title="Pre&#45;defined types.">
<polygon fill="white" stroke="#666666" points="479.5,-514 406.5,-514 406.5,-495 479.5,-495 479.5,-514"/>
<text text-anchor="middle" x="443" y="-502" font-family="Helvetica,sans-Serif" font-size="10.00">std_types.h</text>
</a>
</g>
</g>
<!-- Node2&#45;&gt;Node39 -->
<g id="edge35_Node000002_Node000039" class="edge">
<title>Node2&#45;&gt;Node39</title>
<g id="a_edge35_Node000002_Node000039"><a xlink:title=" ">
<path fill="none" stroke="#63b8ff" d="M348.99,-549.98C366.93,-541.5 394.72,-528.35 415.43,-518.54"/>
<polygon fill="#63b8ff" stroke="#63b8ff" points="417.14,-521.61 424.68,-514.17 414.14,-515.28 417.14,-521.61"/>
</a>
</g>
</g>
<!-- Node4 -->
<g id="Node000004" class="node">
<title>Node4</title>
<g id="a_Node000004"><a xlink:title=" ">
<polygon fill="#e0e0e0" stroke="#999999" points="415.5,-404 358.5,-404 358.5,-385 415.5,-385 415.5,-404"/>
<text text-anchor="middle" x="387" y="-392" font-family="Helvetica,sans-Serif" font-size="10.00">typeinfo</text>
</a>
</g>
</g>
<!-- Node3&#45;&gt;Node4 -->
<g id="edge3_Node000003_Node000004" class="edge">
<title>Node3&#45;&gt;Node4</title>
<g id="a_edge3_Node000003_Node000004"><a xlink:title=" ">
<path fill="none" stroke="#63b8ff" d="M430.41,-439.75C422.84,-432.03 411.62,-420.6 402.49,-411.28"/>
<polygon fill="#63b8ff" stroke="#63b8ff" points="404.93,-408.78 395.43,-404.09 399.93,-413.68 404.93,-408.78"/>
</a>
</g>
</g>
<!-- Node5 -->
<g id="Node000005" class="node">
<title>Node5</title>
<g id="a_Node000005"><a xlink:title=" ">
<polygon fill="#e0e0e0" stroke="#999999" points="730.5,-19 661.5,-19 661.5,0 730.5,0 730.5,-19"/>
<text text-anchor="middle" x="696" y="-7" font-family="Helvetica,sans-Serif" font-size="10.00">type_traits</text>
</a>
</g>
</g>
<!-- Node3&#45;&gt;Node5 -->
<g id="edge4_Node000003_Node000005" class="edge">
<title>Node3&#45;&gt;Node5</title>
<g id="a_edge4_Node000003_Node000005"><a xlink:title=" ">
<path fill="none" stroke="#63b8ff" d="M475.5,-446.15C572.09,-438.94 827,-413.04 827,-340.5 827,-340.5 827,-340.5 827,-118.5 827,-69.18 771.04,-38.2 732.27,-22.65"/>
<polygon fill="#63b8ff" stroke="#63b8ff" points="733.42,-19.34 722.83,-19.02 730.91,-25.87 733.42,-19.34"/>
</a>
</g>
</g>
<!-- Node6 -->
<g id="Node000006" class="node">
<title>Node6</title>
<g id="a_Node000006"><a xlink:title=" ">
<polygon fill="#e0e0e0" stroke="#999999" points="423.5,-349 358.5,-349 358.5,-330 423.5,-330 423.5,-349"/>
<text text-anchor="middle" x="391" y="-337" font-family="Helvetica,sans-Serif" font-size="10.00">functional</text>
</a>
</g>
</g>
<!-- Node3&#45;&gt;Node6 -->
<g id="edge5_Node000003_Node000006" class="edge">
<title>Node3&#45;&gt;Node6</title>
<g id="a_edge5_Node000003_Node000006"><a xlink:title=" ">
<path fill="none" stroke="#63b8ff" d="M438.29,-439.91C437,-427.34 433.56,-403.43 425,-385 420.31,-374.9 413.01,-364.93 406.37,-356.99"/>
<polygon fill="#63b8ff" stroke="#63b8ff" points="408.82,-354.47 399.59,-349.27 403.56,-359.09 408.82,-354.47"/>
</a>
</g>
</g>
<!-- Node3&#45;&gt;Node7 -->
<g id="edge6_Node000003_Node000007" class="edge">
<title>Node3&#45;&gt;Node7</title>
<g id="a_edge6_Node000003_Node000007"><a xlink:title=" ">
<path fill="none" stroke="#63b8ff" d="M417.62,-439.92C361.8,-415.94 216,-342.57 216,-230.5 216,-230.5 216,-230.5 216,-173.5 216,-139.42 235.03,-103.46 248.06,-82.83"/>
<polygon fill="#63b8ff" stroke="#63b8ff" points="251.13,-84.53 253.7,-74.25 245.28,-80.68 251.13,-84.53"/>
</a>
</g>
</g>
<!-- Node11 -->
<g id="Node000011" class="node">
<title>Node11</title>
<g id="a_Node000011"><a xlink:href="expr_8h.html" target="_top" xlink:title=" ">
<polygon fill="white" stroke="#666666" points="527.5,-404 480.5,-404 480.5,-385 527.5,-385 527.5,-404"/>
<text text-anchor="middle" x="504" y="-392" font-family="Helvetica,sans-Serif" font-size="10.00">expr.h</text>
</a>
</g>
</g>
<!-- Node3&#45;&gt;Node11 -->
<g id="edge11_Node000003_Node000011" class="edge">
<title>Node3&#45;&gt;Node11</title>
<g id="a_edge11_Node000003_Node000011"><a xlink:title=" ">
<path fill="none" stroke="#63b8ff" d="M449.44,-439.98C459.15,-432.07 473.82,-420.11 485.5,-410.58"/>
<polygon fill="#63b8ff" stroke="#63b8ff" points="487.83,-413.2 493.37,-404.17 483.4,-407.78 487.83,-413.2"/>
</a>
</g>
</g>
<!-- Node7&#45;&gt;Node5 -->
<g id="edge10_Node000007_Node000005" class="edge">
<title>Node7&#45;&gt;Node5</title>
<g id="a_edge10_Node000007_Node000005"><a xlink:title=" ">
<path fill="none" stroke="#63b8ff" d="M294.58,-59.3C372.96,-49.77 564.12,-26.53 651.32,-15.93"/>
<polygon fill="#63b8ff" stroke="#63b8ff" points="651.92,-19.38 661.42,-14.7 651.07,-12.44 651.92,-19.38"/>
</a>
</g>
</g>
<!-- Node8 -->
<g id="Node000008" class="node">
<title>Node8</title>
<g id="a_Node000008"><a xlink:title=" ">
<polygon fill="#e0e0e0" stroke="#999999" points="249.5,-19 200.5,-19 200.5,0 249.5,0 249.5,-19"/>
<text text-anchor="middle" x="225" y="-7" font-family="Helvetica,sans-Serif" font-size="10.00">cstdlib</text>
</a>
</g>
</g>
<!-- Node7&#45;&gt;Node8 -->
<g id="edge7_Node000007_Node000008" class="edge">
<title>Node7&#45;&gt;Node8</title>
<g id="a_edge7_Node000007_Node000008"><a xlink:title=" ">
<path fill="none" stroke="#63b8ff" d="M254.22,-54.75C249.38,-47.42 242.32,-36.73 236.36,-27.7"/>
<polygon fill="#63b8ff" stroke="#63b8ff" points="239.1,-25.5 230.67,-19.09 233.26,-29.36 239.1,-25.5"/>
</a>
</g>
</g>
<!-- Node9 -->
<g id="Node000009" class="node">
<title>Node9</title>
<g id="a_Node000009"><a xlink:title=" ">
<polygon fill="#e0e0e0" stroke="#999999" points="324,-19 268,-19 268,0 324,0 324,-19"/>
<text text-anchor="middle" x="296" y="-7" font-family="Helvetica,sans-Serif" font-size="10.00">sstream</text>
</a>
</g>
</g>
<!-- Node7&#45;&gt;Node9 -->
<g id="edge8_Node000007_Node000009" class="edge">
<title>Node7&#45;&gt;Node9</title>
<g id="a_edge8_Node000007_Node000009"><a xlink:title=" ">
<path fill="none" stroke="#63b8ff" d="M265.94,-54.75C270.98,-47.34 278.34,-36.5 284.51,-27.41"/>
<polygon fill="#63b8ff" stroke="#63b8ff" points="287.44,-29.33 290.17,-19.09 281.65,-25.39 287.44,-29.33"/>
</a>
</g>
</g>
<!-- Node10 -->
<g id="Node000010" class="node">
<title>Node10</title>
<g id="a_Node000010"><a xlink:title=" ">
<polygon fill="#e0e0e0" stroke="#999999" points="568,-19 524,-19 524,0 568,0 568,-19"/>
<text text-anchor="middle" x="546" y="-7" font-family="Helvetica,sans-Serif" font-size="10.00">string</text>
</a>
</g>
</g>
<!-- Node7&#45;&gt;Node10 -->
<g id="edge9_Node000007_Node000010" class="edge">
<title>Node7&#45;&gt;Node10</title>
<g id="a_edge9_Node000007_Node000010"><a xlink:title=" ">
<path fill="none" stroke="#63b8ff" d="M294.78,-57.05C350.61,-46.71 459.42,-26.54 513.66,-16.49"/>
<polygon fill="#63b8ff" stroke="#63b8ff" points="514.55,-19.89 523.74,-14.62 513.27,-13.01 514.55,-19.89"/>
</a>
</g>
</g>
<!-- Node11&#45;&gt;Node6 -->
<g id="edge33_Node000011_Node000006" class="edge">
<title>Node11&#45;&gt;Node6</title>
<g id="a_edge33_Node000011_Node000006"><a xlink:title=" ">
<path fill="none" stroke="#63b8ff" d="M485.84,-384.98C467.75,-376.5 439.72,-363.35 418.81,-353.54"/>
<polygon fill="#63b8ff" stroke="#63b8ff" points="420.03,-350.25 409.49,-349.17 417.05,-356.59 420.03,-350.25"/>
</a>
</g>
</g>
<!-- Node12 -->
<g id="Node000012" class="node">
<title>Node12</title>
<g id="a_Node000012"><a xlink:href="as__const_8h.html" target="_top" xlink:title=" ">
<polygon fill="white" stroke="#666666" points="761,-349 693,-349 693,-330 761,-330 761,-349"/>
<text text-anchor="middle" x="727" y="-337" font-family="Helvetica,sans-Serif" font-size="10.00">as_const.h</text>
</a>
</g>
</g>
<!-- Node11&#45;&gt;Node12 -->
<g id="edge12_Node000011_Node000012" class="edge">
<title>Node11&#45;&gt;Node12</title>
<g id="a_edge12_Node000011_Node000012"><a xlink:title=" ">
<path fill="none" stroke="#63b8ff" d="M527.86,-387.83C564.82,-379.05 636.46,-362.02 682.98,-350.96"/>
<polygon fill="#63b8ff" stroke="#63b8ff" points="683.87,-354.35 692.79,-348.63 682.25,-347.54 683.87,-354.35"/>
</a>
</g>
</g>
<!-- Node13 -->
<g id="Node000013" class="node">
<title>Node13</title>
<g id="a_Node000013"><a xlink:href="type_8h.html" target="_top" xlink:title="Defines typet, type_with_subtypet and type_with_subtypest.">
<polygon fill="white" stroke="#666666" points="527.5,-349 480.5,-349 480.5,-330 527.5,-330 527.5,-349"/>
<text text-anchor="middle" x="504" y="-337" font-family="Helvetica,sans-Serif" font-size="10.00">type.h</text>
</a>
</g>
</g>
<!-- Node11&#45;&gt;Node13 -->
<g id="edge13_Node000011_Node000013" class="edge">
<title>Node11&#45;&gt;Node13</title>
<g id="a_edge13_Node000011_Node000013"><a xlink:title=" ">
<path fill="none" stroke="#63b8ff" d="M504,-384.75C504,-377.8 504,-367.85 504,-359.13"/>
<polygon fill="#63b8ff" stroke="#63b8ff" points="507.5,-359.09 504,-349.09 500.5,-359.09 507.5,-359.09"/>
</a>
</g>
</g>
<!-- Node36 -->
<g id="Node000036" class="node">
<title>Node36</title>
<g id="a_Node000036"><a xlink:href="validation__mode_8h.html" target="_top" xlink:title=" ">
<polygon fill="white" stroke="#666666" points="549.5,-239 442.5,-239 442.5,-220 549.5,-220 549.5,-239"/>
<text text-anchor="middle" x="496" y="-227" font-family="Helvetica,sans-Serif" font-size="10.00">validation_mode.h</text>
</a>
</g>
</g>
<!-- Node11&#45;&gt;Node36 -->
<g id="edge32_Node000011_Node000036" class="edge">
<title>Node11&#45;&gt;Node36</title>
<g id="a_edge32_Node000011_Node000036"><a xlink:title=" ">
<path fill="none" stroke="#63b8ff" d="M495.25,-384.9C487.44,-376.56 476.55,-363.13 472,-349 460.78,-314.19 475.95,-271.88 486.78,-248.4"/>
<polygon fill="#63b8ff" stroke="#63b8ff" points="489.98,-249.82 491.21,-239.29 483.69,-246.76 489.98,-249.82"/>
</a>
</g>
</g>
<!-- Node37 -->
<g id="Node000037" class="node">
<title>Node37</title>
<g id="a_Node000037"><a xlink:href="validate__types_8h.html" target="_top" xlink:title=" ">
<polygon fill="white" stroke="#666666" points="622,-294 524,-294 524,-275 622,-275 622,-294"/>
<text text-anchor="middle" x="573" y="-282" font-family="Helvetica,sans-Serif" font-size="10.00">validate_types.h</text>
</a>
</g>
</g>
<!-- Node11&#45;&gt;Node37 -->
<g id="edge31_Node000011_Node000037" class="edge">
<title>Node11&#45;&gt;Node37</title>
<g id="a_edge31_Node000011_Node000037"><a xlink:title=" ">
<path fill="none" stroke="#63b8ff" d="M527.77,-393.27C587.07,-392.13 738.99,-385.63 770,-349 775.46,-342.56 775.27,-336.6 770,-330 761.27,-319.07 686.88,-304.48 632.08,-295.03"/>
<polygon fill="#63b8ff" stroke="#63b8ff" points="632.54,-291.56 622.1,-293.33 631.37,-298.46 632.54,-291.56"/>
</a>
</g>
</g>
<!-- Node38 -->
<g id="Node000038" class="node">
<title>Node38</title>
<g id="a_Node000038"><a xlink:href="validate__expressions_8h.html" target="_top" xlink:title=" ">
<polygon fill="white" stroke="#666666" points="674.5,-349 545.5,-349 545.5,-330 674.5,-330 674.5,-349"/>
<text text-anchor="middle" x="610" y="-337" font-family="Helvetica,sans-Serif" font-size="10.00">validate_expressions.h</text>
</a>
</g>
</g>
<!-- Node11&#45;&gt;Node38 -->
<g id="edge30_Node000011_Node000038" class="edge">
<title>Node11&#45;&gt;Node38</title>
<g id="a_edge30_Node000011_Node000038"><a xlink:title=" ">
<path fill="none" stroke="#63b8ff" d="M521.03,-384.98C537.93,-376.54 564.06,-363.47 583.64,-353.68"/>
<polygon fill="#63b8ff" stroke="#63b8ff" points="585.28,-356.77 592.66,-349.17 582.15,-350.51 585.28,-356.77"/>
</a>
</g>
</g>
<!-- Node14 -->
<g id="Node000014" class="node">
<title>Node14</title>
<g id="a_Node000014"><a xlink:href="source__location_8h.html" target="_top" xlink:title=" ">
<polygon fill="white" stroke="#666666" points="563,-184 461,-184 461,-165 563,-165 563,-184"/>
<text text-anchor="middle" x="512" y="-172" font-family="Helvetica,sans-Serif" font-size="10.00">source_location.h</text>
</a>
</g>
</g>
<!-- Node13&#45;&gt;Node14 -->
<g id="edge14_Node000013_Node000014" class="edge">
<title>Node13&#45;&gt;Node14</title>
<g id="a_edge14_Node000013_Node000014"><a xlink:title=" ">
<path fill="none" stroke="#63b8ff" d="M491.97,-329.9C466.22,-310.41 410,-261.32 434,-220 442.54,-205.29 457.97,-195.04 472.86,-188.11"/>
<polygon fill="#63b8ff" stroke="#63b8ff" points="474.66,-191.15 482.5,-184.03 471.92,-184.71 474.66,-191.15"/>
</a>
</g>
</g>
<!-- Node34 -->
<g id="Node000034" class="node">
<title>Node34</title>
<g id="a_Node000034"><a xlink:href="validate_8h.html" target="_top" xlink:title=" ">
<polygon fill="white" stroke="#666666" points="705.5,-294 640.5,-294 640.5,-275 705.5,-275 705.5,-294"/>
<text text-anchor="middle" x="673" y="-282" font-family="Helvetica,sans-Serif" font-size="10.00">validate.h</text>
</a>
</g>
</g>
<!-- Node13&#45;&gt;Node34 -->
<g id="edge21_Node000013_Node000034" class="edge">
<title>Node13&#45;&gt;Node34</title>
<g id="a_edge21_Node000013_Node000034"><a xlink:title=" ">
<path fill="none" stroke="#63b8ff" d="M527.86,-331.02C555.97,-322.2 603.03,-307.44 635.91,-297.13"/>
<polygon fill="#63b8ff" stroke="#63b8ff" points="637.13,-300.42 645.63,-294.08 635.04,-293.74 637.13,-300.42"/>
</a>
</g>
</g>
<!-- Node13&#45;&gt;Node36 -->
<g id="edge29_Node000013_Node000036" class="edge">
<title>Node13&#45;&gt;Node36</title>
<g id="a_edge29_Node000013_Node000036"><a xlink:title=" ">
<path fill="none" stroke="#63b8ff" d="M503.35,-329.66C502.05,-312.17 499.13,-272.8 497.39,-249.27"/>
<polygon fill="#63b8ff" stroke="#63b8ff" points="500.87,-248.87 496.64,-239.16 493.89,-249.39 500.87,-248.87"/>
</a>
</g>
</g>
<!-- Node13&#45;&gt;Node37 -->
<g id="edge28_Node000013_Node000037" class="edge">
<title>Node13&#45;&gt;Node37</title>
<g id="a_edge28_Node000013_Node000037"><a xlink:title=" ">
<path fill="none" stroke="#63b8ff" d="M515.09,-329.98C525.49,-322 541.26,-309.88 553.72,-300.31"/>
<polygon fill="#63b8ff" stroke="#63b8ff" points="555.91,-303.04 561.71,-294.17 551.65,-297.49 555.91,-303.04"/>
</a>
</g>
</g>
<!-- Node14&#45;&gt;Node10 -->
<g id="edge20_Node000014_Node000010" class="edge">
<title>Node14&#45;&gt;Node10</title>
<g id="a_edge20_Node000014_Node000010"><a xlink:title=" ">
<path fill="none" stroke="#63b8ff" d="M534.12,-164.95C549.2,-157.82 568.01,-146.06 577,-129 594.61,-95.6 572.88,-51.54 557.91,-27.66"/>
<polygon fill="#63b8ff" stroke="#63b8ff" points="560.65,-25.45 552.23,-19.02 554.8,-29.3 560.65,-25.45"/>
</a>
</g>
</g>
<!-- Node15 -->
<g id="Node000015" class="node">
<title>Node15</title>
<g id="a_Node000015"><a xlink:href="deprecate_8h.html" target="_top" xlink:title=" ">
<polygon fill="white" stroke="#666666" points="432,-129 358,-129 358,-110 432,-110 432,-129"/>
<text text-anchor="middle" x="395" y="-117" font-family="Helvetica,sans-Serif" font-size="10.00">deprecate.h</text>
</a>
</g>
</g>
<!-- Node14&#45;&gt;Node15 -->
<g id="edge15_Node000014_Node000015" class="edge">
<title>Node14&#45;&gt;Node15</title>
<g id="a_edge15_Node000014_Node000015"><a xlink:title=" ">
<path fill="none" stroke="#63b8ff" d="M493.2,-164.98C474.38,-156.46 445.18,-143.23 423.5,-133.41"/>
<polygon fill="#63b8ff" stroke="#63b8ff" points="424.69,-130.11 414.14,-129.17 421.8,-136.48 424.69,-130.11"/>
</a>
</g>
</g>
<!-- Node16 -->
<g id="Node000016" class="node">
<title>Node16</title>
<g id="a_Node000016"><a xlink:href="irep_8h.html" target="_top" xlink:title=" ">
<polygon fill="#fff0f0" stroke="red" points="568,-129 524,-129 524,-110 568,-110 568,-129"/>
<text text-anchor="middle" x="546" y="-117" font-family="Helvetica,sans-Serif" font-size="10.00">irep.h</text>
</a>
</g>
</g>
<!-- Node14&#45;&gt;Node16 -->
<g id="edge16_Node000014_Node000016" class="edge">
<title>Node14&#45;&gt;Node16</title>
<g id="a_edge16_Node000014_Node000016"><a xlink:title=" ">
<path fill="none" stroke="#63b8ff" d="M517.61,-164.75C522.32,-157.42 529.17,-146.73 534.97,-137.7"/>
<polygon fill="#63b8ff" stroke="#63b8ff" points="538.04,-139.4 540.49,-129.09 532.14,-135.62 538.04,-139.4"/>
</a>
</g>
</g>
<!-- Node33 -->
<g id="Node000033" class="node">
<title>Node33</title>
<g id="a_Node000033"><a xlink:title=" ">
<polygon fill="#e0e0e0" stroke="#999999" points="506,-129 450,-129 450,-110 506,-110 506,-129"/>
<text text-anchor="middle" x="478" y="-117" font-family="Helvetica,sans-Serif" font-size="10.00">optional</text>
</a>
</g>
</g>
<!-- Node14&#45;&gt;Node33 -->
<g id="edge19_Node000014_Node000033" class="edge">
<title>Node14&#45;&gt;Node33</title>
<g id="a_edge19_Node000014_Node000033"><a xlink:title=" ">
<path fill="none" stroke="#63b8ff" d="M506.39,-164.75C501.68,-157.42 494.83,-146.73 489.03,-137.7"/>
<polygon fill="#63b8ff" stroke="#63b8ff" points="491.86,-135.62 483.51,-129.09 485.96,-139.4 491.86,-135.62"/>
</a>
</g>
</g>
<!-- Node16&#45;&gt;Node7 -->
<g id="edge18_Node000016_Node000007" class="edge">
<title>Node16&#45;&gt;Node7</title>
<g id="a_edge18_Node000016_Node000007"><a xlink:title=" ">
<path fill="none" stroke="#63b8ff" d="M523.71,-112.12C520.79,-111.36 517.83,-110.63 515,-110 441.97,-93.65 356.05,-79.74 304.91,-72.02"/>
<polygon fill="#63b8ff" stroke="#63b8ff" points="305.26,-68.53 294.85,-70.51 304.22,-75.45 305.26,-68.53"/>
</a>
</g>
</g>
<!-- Node16&#45;&gt;Node10 -->
<g id="edge17_Node000016_Node000010" class="edge">
<title>Node16&#45;&gt;Node10</title>
<g id="a_edge17_Node000016_Node000010"><a xlink:title=" ">
<path fill="none" stroke="#63b8ff" d="M546,-109.66C546,-92.17 546,-52.8 546,-29.27"/>
<polygon fill="#63b8ff" stroke="#63b8ff" points="549.5,-29.16 546,-19.16 542.5,-29.16 549.5,-29.16"/>
</a>
</g>
</g>
<!-- Node34&#45;&gt;Node5 -->
<g id="edge22_Node000034_Node000005" class="edge">
<title>Node34&#45;&gt;Node5</title>
<g id="a_edge22_Node000034_Node000005"><a xlink:title=" ">
<path fill="none" stroke="#63b8ff" d="M676.1,-274.95C682.38,-256.86 696,-213.27 696,-175.5 696,-175.5 696,-175.5 696,-118.5 696,-87.19 696,-50.77 696,-29.23"/>
<polygon fill="#63b8ff" stroke="#63b8ff" points="699.5,-29.18 696,-19.18 692.5,-29.18 699.5,-29.18"/>
</a>
</g>
</g>
<!-- Node35 -->
<g id="Node000035" class="node">
<title>Node35</title>
<g id="a_Node000035"><a xlink:href="exception__utils_8h.html" target="_top" xlink:title=" ">
<polygon fill="white" stroke="#666666" points="668,-239 568,-239 568,-220 668,-220 668,-239"/>
<text text-anchor="middle" x="618" y="-227" font-family="Helvetica,sans-Serif" font-size="10.00">exception_utils.h</text>
</a>
</g>
</g>
<!-- Node34&#45;&gt;Node35 -->
<g id="edge23_Node000034_Node000035" class="edge">
<title>Node34&#45;&gt;Node35</title>
<g id="a_edge23_Node000034_Node000035"><a xlink:title=" ">
<path fill="none" stroke="#63b8ff" d="M663.92,-274.75C655.91,-267.03 644.04,-255.6 634.38,-246.28"/>
<polygon fill="#63b8ff" stroke="#63b8ff" points="636.54,-243.51 626.91,-239.09 631.69,-248.55 636.54,-243.51"/>
</a>
</g>
</g>
<!-- Node34&#45;&gt;Node36 -->
<g id="edge27_Node000034_Node000036" class="edge">
<title>Node34&#45;&gt;Node36</title>
<g id="a_edge27_Node000034_Node000036"><a xlink:title=" ">
<path fill="none" stroke="#63b8ff" d="M644.56,-274.98C614.72,-266.05 567.62,-251.94 534.47,-242.02"/>
<polygon fill="#63b8ff" stroke="#63b8ff" points="535.24,-238.6 524.66,-239.08 533.24,-245.3 535.24,-238.6"/>
</a>
</g>
</g>
<!-- Node35&#45;&gt;Node7 -->
<g id="edge25_Node000035_Node000007" class="edge">
<title>Node35&#45;&gt;Node7</title>
<g id="a_edge25_Node000035_Node000007"><a xlink:title=" ">
<path fill="none" stroke="#63b8ff" d="M575.53,-219.93C541.47,-212.39 492.79,-200.11 452,-184 403.73,-164.93 393.1,-156.35 349,-129 324.27,-113.67 297.25,-93.93 279.55,-80.56"/>
<polygon fill="#63b8ff" stroke="#63b8ff" points="281.27,-77.48 271.2,-74.21 277.03,-83.05 281.27,-77.48"/>
</a>
</g>
</g>
<!-- Node35&#45;&gt;Node10 -->
<g id="edge24_Node000035_Node000010" class="edge">
<title>Node35&#45;&gt;Node10</title>
<g id="a_edge24_Node000035_Node000010"><a xlink:title=" ">
<path fill="none" stroke="#63b8ff" d="M618.4,-220C619.27,-193.81 619.29,-112.67 590,-55 584.28,-43.73 574.66,-33.51 565.88,-25.71"/>
<polygon fill="#63b8ff" stroke="#63b8ff" points="568.1,-23.01 558.18,-19.28 563.61,-28.38 568.1,-23.01"/>
</a>
</g>
</g>
<!-- Node35&#45;&gt;Node14 -->
<g id="edge26_Node000035_Node000014" class="edge">
<title>Node35&#45;&gt;Node14</title>
<g id="a_edge26_Node000035_Node000014"><a xlink:title=" ">
<path fill="none" stroke="#63b8ff" d="M600.97,-219.98C584.07,-211.54 557.94,-198.47 538.36,-188.68"/>
<polygon fill="#63b8ff" stroke="#63b8ff" points="539.85,-185.51 529.34,-184.17 536.72,-191.77 539.85,-185.51"/>
</a>
</g>
</g>
<!-- Node39&#45;&gt;Node3 -->
<g id="edge37_Node000039_Node000003" class="edge">
<title>Node39&#45;&gt;Node3</title>
<g id="a_edge37_Node000039_Node000003"><a xlink:title=" ">
<path fill="none" stroke="#63b8ff" d="M442.34,-494.75C441.82,-487.8 441.06,-477.85 440.41,-469.13"/>
<polygon fill="#63b8ff" stroke="#63b8ff" points="443.89,-468.8 439.65,-459.09 436.91,-469.32 443.89,-468.8"/>
</a>
</g>
</g>
<!-- Node39&#45;&gt;Node7 -->
<g id="edge38_Node000039_Node000007" class="edge">
<title>Node39&#45;&gt;Node7</title>
<g id="a_edge38_Node000039_Node000007"><a xlink:title=" ">
<path fill="none" stroke="#63b8ff" d="M407.6,-494.96C362.97,-481.83 292,-452.06 292,-395.5 292,-395.5 292,-395.5 292,-283.5 292,-208.97 273.46,-121.6 264.61,-84.12"/>
<polygon fill="#63b8ff" stroke="#63b8ff" points="267.95,-83.05 262.2,-74.16 261.15,-84.7 267.95,-83.05"/>
</a>
</g>
</g>
<!-- Node39&#45;&gt;Node11 -->
<g id="edge36_Node000039_Node000011" class="edge">
<title>Node39&#45;&gt;Node11</title>
<g id="a_edge36_Node000039_Node000011"><a xlink:title=" ">
<path fill="none" stroke="#63b8ff" d="M453.79,-494.68C463.28,-486.39 476.82,-473.17 485,-459 493.01,-445.13 497.93,-427.56 500.75,-414.43"/>
<polygon fill="#63b8ff" stroke="#63b8ff" points="504.26,-414.71 502.71,-404.22 497.38,-413.38 504.26,-414.71"/>
</a>
</g>
</g>
<!-- Node39&#45;&gt;Node34 -->
<g id="edge43_Node000039_Node000034" class="edge">
<title>Node39&#45;&gt;Node34</title>
<g id="a_edge43_Node000039_Node000034"><a xlink:title=" ">
<path fill="none" stroke="#63b8ff" d="M479.52,-499.7C552.79,-489.87 716.6,-456.37 786,-349 805.82,-318.34 755.13,-301.03 715.34,-292.47"/>
<polygon fill="#63b8ff" stroke="#63b8ff" points="716,-289.04 705.51,-290.48 714.61,-295.9 716,-289.04"/>
</a>
</g>
</g>
<!-- Node40 -->
<g id="Node000040" class="node">
<title>Node40</title>
<g id="a_Node000040"><a xlink:href="mp__arith_8h.html" target="_top" xlink:title=" ">
<polygon fill="white" stroke="#666666" points="236.5,-459 167.5,-459 167.5,-440 236.5,-440 236.5,-459"/>
<text text-anchor="middle" x="202" y="-447" font-family="Helvetica,sans-Serif" font-size="10.00">mp_arith.h</text>
</a>
</g>
</g>
<!-- Node39&#45;&gt;Node40 -->
<g id="edge39_Node000039_Node000040" class="edge">
<title>Node39&#45;&gt;Node40</title>
<g id="a_edge39_Node000039_Node000040"><a xlink:title=" ">
<path fill="none" stroke="#63b8ff" d="M406.4,-495.45C363.55,-486.03 292.61,-470.43 246.59,-460.31"/>
<polygon fill="#63b8ff" stroke="#63b8ff" points="247.12,-456.84 236.6,-458.11 245.61,-463.67 247.12,-456.84"/>
</a>
</g>
</g>
<!-- Node25 -->
<g id="Node000025" class="node">
<title>Node25</title>
<g id="a_Node000025"><a xlink:title=" ">
<polygon fill="#e0e0e0" stroke="#999999" points="986.5,-459 893.5,-459 893.5,-440 986.5,-440 986.5,-459"/>
<text text-anchor="middle" x="940" y="-447" font-family="Helvetica,sans-Serif" font-size="10.00">unordered_map</text>
</a>
</g>
</g>
<!-- Node39&#45;&gt;Node25 -->
<g id="edge44_Node000039_Node000025" class="edge">
<title>Node39&#45;&gt;Node25</title>
<g id="a_edge44_Node000039_Node000025"><a xlink:title=" ">
<path fill="none" stroke="#63b8ff" d="M479.51,-500.23C554.47,-493.42 731.13,-476.84 879,-459 880.46,-458.82 881.94,-458.64 883.43,-458.46"/>
<polygon fill="#63b8ff" stroke="#63b8ff" points="883.92,-461.92 893.4,-457.17 883.03,-454.98 883.92,-461.92"/>
</a>
</g>
</g>
<!-- Node40&#45;&gt;Node10 -->
<g id="edge41_Node000040_Node000010" class="edge">
<title>Node40&#45;&gt;Node10</title>
<g id="a_edge41_Node000040_Node000010"><a xlink:title=" ">
<path fill="none" stroke="#63b8ff" d="M209.81,-439.9C217.22,-431.35 228.19,-417.59 235,-404 248.19,-377.66 254,-369.96 254,-340.5 254,-340.5 254,-340.5 254,-283.5 254,-195.59 285.81,-171.12 349,-110 397.34,-63.24 472.01,-33.83 514.17,-19.95"/>
<polygon fill="#63b8ff" stroke="#63b8ff" points="515.45,-23.22 523.9,-16.84 513.31,-16.55 515.45,-23.22"/>
</a>
</g>
</g>
<!-- Node20 -->
<g id="Node000020" class="node">
<title>Node20</title>
<g id="a_Node000020"><a xlink:title=" ">
<polygon fill="#e0e0e0" stroke="#999999" points="226,-404 178,-404 178,-385 226,-385 226,-404"/>
<text text-anchor="middle" x="202" y="-392" font-family="Helvetica,sans-Serif" font-size="10.00">iosfwd</text>
</a>
</g>
</g>
<!-- Node40&#45;&gt;Node20 -->
<g id="edge40_Node000040_Node000020" class="edge">
<title>Node40&#45;&gt;Node20</title>
<g id="a_edge40_Node000040_Node000020"><a xlink:title=" ">
<path fill="none" stroke="#63b8ff" d="M202,-439.75C202,-432.8 202,-422.85 202,-414.13"/>
<polygon fill="#63b8ff" stroke="#63b8ff" points="205.5,-414.09 202,-404.09 198.5,-414.09 205.5,-414.09"/>
</a>
</g>
</g>
<!-- Node41 -->
<g id="Node000041" class="node">
<title>Node41</title>
<g id="a_Node000041"><a xlink:title=" ">
<polygon fill="#e0e0e0" stroke="#999999" points="160,-404 66,-404 66,-385 160,-385 160,-404"/>
<text text-anchor="middle" x="113" y="-392" font-family="Helvetica,sans-Serif" font-size="10.00">big&#45;int/bigint.hh</text>
</a>
</g>
</g>
<!-- Node40&#45;&gt;Node41 -->
<g id="edge42_Node000040_Node000041" class="edge">
<title>Node40&#45;&gt;Node41</title>
<g id="a_edge42_Node000040_Node000041"><a xlink:title=" ">
<path fill="none" stroke="#63b8ff" d="M187.7,-439.98C173.9,-431.77 152.76,-419.18 136.49,-409.49"/>
<polygon fill="#63b8ff" stroke="#63b8ff" points="137.94,-406.28 127.56,-404.17 134.36,-412.29 137.94,-406.28"/>
</a>
</g>
</g>
<!-- Node42&#45;&gt;Node2 -->
<g id="edge58_Node000042_Node000002" class="edge">
<title>Node42&#45;&gt;Node2</title>
<g id="a_edge58_Node000042_Node000002"><a xlink:title=" ">
<path fill="none" stroke="#63b8ff" d="M376.91,-659.66C368.7,-641.93 350.09,-601.73 339.25,-578.32"/>
<polygon fill="#63b8ff" stroke="#63b8ff" points="342.39,-576.76 335.01,-569.16 336.03,-579.7 342.39,-576.76"/>
</a>
</g>
</g>
<!-- Node43 -->
<g id="Node000043" class="node">
<title>Node43</title>
<g id="a_Node000043"><a xlink:href="arith__tools_8h.html" target="_top" xlink:title=" ">
<polygon fill="white" stroke="#666666" points="275.5,-624 198.5,-624 198.5,-605 275.5,-605 275.5,-624"/>
<text text-anchor="middle" x="237" y="-612" font-family="Helvetica,sans-Serif" font-size="10.00">arith_tools.h</text>
</a>
</g>
</g>
<!-- Node42&#45;&gt;Node43 -->
<g id="edge46_Node000042_Node000043" class="edge">
<title>Node42&#45;&gt;Node43</title>
<g id="a_edge46_Node000042_Node000043"><a xlink:title=" ">
<path fill="none" stroke="#63b8ff" d="M357.86,-659.98C334.18,-651.27 297.13,-637.63 270.29,-627.75"/>
<polygon fill="#63b8ff" stroke="#63b8ff" points="271.15,-624.34 260.56,-624.17 268.73,-630.91 271.15,-624.34"/>
</a>
</g>
</g>
<!-- Node45 -->
<g id="Node000045" class="node">
<title>Node45</title>
<g id="a_Node000045"><a xlink:href="pointer__expr_8h.html" target="_top" xlink:title="API to expression classes for Pointers.">
<polygon fill="white" stroke="#666666" points="456,-624 370,-624 370,-605 456,-605 456,-624"/>
<text text-anchor="middle" x="413" y="-612" font-family="Helvetica,sans-Serif" font-size="10.00">pointer_expr.h</text>
</a>
</g>
</g>
<!-- Node42&#45;&gt;Node45 -->
<g id="edge51_Node000042_Node000045" class="edge">
<title>Node42&#45;&gt;Node45</title>
<g id="a_edge51_Node000042_Node000045"><a xlink:title=" ">
<path fill="none" stroke="#63b8ff" d="M386.28,-659.75C390.71,-652.42 397.16,-641.73 402.62,-632.7"/>
<polygon fill="#63b8ff" stroke="#63b8ff" points="405.64,-634.46 407.81,-624.09 399.65,-630.84 405.64,-634.46"/>
</a>
</g>
</g>
<!-- Node47 -->
<g id="Node000047" class="node">
<title>Node47</title>
<g id="a_Node000047"><a xlink:href="refined__string__type_8h.html" target="_top" xlink:title="Type for string expressions used by the string solver.">
<polygon fill="white" stroke="#666666" points="593.5,-624 474.5,-624 474.5,-605 593.5,-605 593.5,-624"/>
<text text-anchor="middle" x="534" y="-612" font-family="Helvetica,sans-Serif" font-size="10.00">refined_string_type.h</text>
</a>
</g>
</g>
<!-- Node42&#45;&gt;Node47 -->
<g id="edge55_Node000042_Node000047" class="edge">
<title>Node42&#45;&gt;Node47</title>
<g id="a_edge55_Node000042_Node000047"><a xlink:title=" ">
<path fill="none" stroke="#63b8ff" d="M405.58,-659.98C431.05,-651.16 471.04,-637.31 499.63,-627.41"/>
<polygon fill="#63b8ff" stroke="#63b8ff" points="500.92,-630.66 509.23,-624.08 498.63,-624.05 500.92,-630.66"/>
</a>
</g>
</g>
<!-- Node43&#45;&gt;Node2 -->
<g id="edge49_Node000043_Node000002" class="edge">
<title>Node43&#45;&gt;Node2</title>
<g id="a_edge49_Node000043_Node000002"><a xlink:title=" ">
<path fill="none" stroke="#63b8ff" d="M252.1,-604.98C266.82,-596.69 289.42,-583.94 306.67,-574.22"/>
<polygon fill="#63b8ff" stroke="#63b8ff" points="308.63,-577.13 315.62,-569.17 305.19,-571.03 308.63,-577.13"/>
</a>
</g>
</g>
<!-- Node43&#45;&gt;Node7 -->
<g id="edge47_Node000043_Node000007" class="edge">
<title>Node43&#45;&gt;Node7</title>
<g id="a_edge47_Node000043_Node000007"><a xlink:title=" ">
<path fill="none" stroke="#63b8ff" d="M198.39,-612.82C131.24,-609.38 0,-591.64 0,-505.5 0,-505.5 0,-505.5 0,-173.5 0,-81.3 141.16,-66.34 215.46,-64.85"/>
<polygon fill="#63b8ff" stroke="#63b8ff" points="215.52,-68.35 225.47,-64.72 215.43,-61.35 215.52,-68.35"/>
</a>
</g>
</g>
<!-- Node43&#45;&gt;Node40 -->
<g id="edge48_Node000043_Node000040" class="edge">
<title>Node43&#45;&gt;Node40</title>
<g id="a_edge48_Node000043_Node000040"><a xlink:title=" ">
<path fill="none" stroke="#63b8ff" d="M232.22,-604.92C227.56,-596.17 220.67,-582.05 217,-569 207.3,-534.52 203.86,-492.62 202.65,-469.01"/>
<polygon fill="#63b8ff" stroke="#63b8ff" points="206.15,-468.84 202.22,-459 199.15,-469.14 206.15,-468.84"/>
</a>
</g>
</g>
<!-- Node44 -->
<g id="Node000044" class="node">
<title>Node44</title>
<g id="a_Node000044"><a xlink:title=" ">
<polygon fill="#e0e0e0" stroke="#999999" points="270,-569 226,-569 226,-550 270,-550 270,-569"/>
<text text-anchor="middle" x="248" y="-557" font-family="Helvetica,sans-Serif" font-size="10.00">limits</text>
</a>
</g>
</g>
<!-- Node43&#45;&gt;Node44 -->
<g id="edge50_Node000043_Node000044" class="edge">
<title>Node43&#45;&gt;Node44</title>
<g id="a_edge50_Node000043_Node000044"><a xlink:title=" ">
<path fill="none" stroke="#63b8ff" d="M238.82,-604.75C240.26,-597.8 242.32,-587.85 244.13,-579.13"/>
<polygon fill="#63b8ff" stroke="#63b8ff" points="247.61,-579.59 246.22,-569.09 240.76,-578.17 247.61,-579.59"/>
</a>
</g>
</g>
<!-- Node45&#45;&gt;Node2 -->
<g id="edge54_Node000045_Node000002" class="edge">
<title>Node45&#45;&gt;Node2</title>
<g id="a_edge54_Node000045_Node000002"><a xlink:title=" ">
<path fill="none" stroke="#63b8ff" d="M399.83,-604.98C387.23,-596.84 368,-584.41 353.06,-574.76"/>
<polygon fill="#63b8ff" stroke="#63b8ff" points="354.71,-571.66 344.41,-569.17 350.91,-577.54 354.71,-571.66"/>
</a>
</g>
</g>
<!-- Node46 -->
<g id="Node000046" class="node">
<title>Node46</title>
<g id="a_Node000046"><a xlink:href="bitvector__types_8h.html" target="_top" xlink:title="Pre&#45;defined bitvector types.">
<polygon fill="white" stroke="#666666" points="493.5,-569 392.5,-569 392.5,-550 493.5,-550 493.5,-569"/>
<text text-anchor="middle" x="443" y="-557" font-family="Helvetica,sans-Serif" font-size="10.00">bitvector_types.h</text>
</a>
</g>
</g>
<!-- Node45&#45;&gt;Node46 -->
<g id="edge52_Node000045_Node000046" class="edge">
<title>Node45&#45;&gt;Node46</title>
<g id="a_edge52_Node000045_Node000046"><a xlink:title=" ">
<path fill="none" stroke="#63b8ff" d="M417.95,-604.75C422.06,-597.49 428.03,-586.95 433.1,-577.98"/>
<polygon fill="#63b8ff" stroke="#63b8ff" points="436.26,-579.52 438.14,-569.09 430.17,-576.07 436.26,-579.52"/>
</a>
</g>
</g>
<!-- Node46&#45;&gt;Node39 -->
<g id="edge53_Node000046_Node000039" class="edge">
<title>Node46&#45;&gt;Node39</title>
<g id="a_edge53_Node000046_Node000039"><a xlink:title=" ">
<path fill="none" stroke="#63b8ff" d="M443,-549.75C443,-542.8 443,-532.85 443,-524.13"/>
<polygon fill="#63b8ff" stroke="#63b8ff" points="446.5,-524.09 443,-514.09 439.5,-524.09 446.5,-524.09"/>
</a>
</g>
</g>
<!-- Node47&#45;&gt;Node39 -->
<g id="edge57_Node000047_Node000039" class="edge">
<title>Node47&#45;&gt;Node39</title>
<g id="a_edge57_Node000047_Node000039"><a xlink:title=" ">
<path fill="none" stroke="#63b8ff" d="M531.3,-604.95C526.92,-592.02 517.27,-567.17 503,-550 492.96,-537.92 478.99,-527.31 467.05,-519.48"/>
<polygon fill="#63b8ff" stroke="#63b8ff" points="468.75,-516.41 458.42,-514.06 465.03,-522.34 468.75,-516.41"/>
</a>
</g>
</g>
<!-- Node48 -->
<g id="Node000048" class="node">
<title>Node48</title>
<g id="a_Node000048"><a xlink:href="cprover__prefix_8h.html" target="_top" xlink:title=" ">
<polygon fill="white" stroke="#666666" points="645.5,-569 550.5,-569 550.5,-550 645.5,-550 645.5,-569"/>
<text text-anchor="middle" x="598" y="-557" font-family="Helvetica,sans-Serif" font-size="10.00">cprover_prefix.h</text>
</a>
</g>
</g>
<!-- Node47&#45;&gt;Node48 -->
<g id="edge56_Node000047_Node000048" class="edge">
<title>Node47&#45;&gt;Node48</title>
<g id="a_edge56_Node000047_Node000048"><a xlink:title=" ">
<path fill="none" stroke="#63b8ff" d="M544.28,-604.98C553.84,-597.07 568.28,-585.11 579.78,-575.58"/>
<polygon fill="#63b8ff" stroke="#63b8ff" points="582.06,-578.24 587.53,-569.17 577.6,-572.85 582.06,-578.24"/>
</a>
</g>
</g>
</g>
</svg>
