<?xml version="1.0" encoding="UTF-8" standalone="no"?>
<!DOCTYPE svg PUBLIC "-//W3C//DTD SVG 1.1//EN"
 "http://www.w3.org/Graphics/SVG/1.1/DTD/svg11.dtd">
<!-- Generated by graphviz version 2.43.0 (0)
 -->
<!-- Title: /home/runner/work/cbmc/cbmc/src/solvers/flattening/bv_utils.h Pages: 1 -->
<svg width="999pt" height="489pt"
 viewBox="0.00 0.00 999.00 489.00" xmlns="http://www.w3.org/2000/svg" xmlns:xlink="http://www.w3.org/1999/xlink">
<g id="graph0" class="graph" transform="scale(1 1) rotate(0) translate(4 485)">
<title>/home/runner/work/cbmc/cbmc/src/solvers/flattening/bv_utils.h</title>
<!-- Node1 -->
<g id="Node000001" class="node">
<title>Node1</title>
<g id="a_Node000001"><a xlink:title=" ">
<polygon fill="#999999" stroke="#666666" points="183.5,-481 32.5,-481 32.5,-440 183.5,-440 183.5,-481"/>
<text text-anchor="start" x="40.5" y="-469" font-family="Helvetica,sans-Serif" font-size="10.00">/home/runner/work/cbmc</text>
<text text-anchor="start" x="40.5" y="-458" font-family="Helvetica,sans-Serif" font-size="10.00">/cbmc/src/solvers/flattening</text>
<text text-anchor="middle" x="108" y="-447" font-family="Helvetica,sans-Serif" font-size="10.00">/bv_utils.h</text>
</a>
</g>
</g>
<!-- Node2 -->
<g id="Node000002" class="node">
<title>Node2</title>
<g id="a_Node000002"><a xlink:href="mp__arith_8h.html" target="_top" xlink:title=" ">
<polygon fill="white" stroke="#666666" points="99,-129 11,-129 11,-110 99,-110 99,-129"/>
<text text-anchor="middle" x="55" y="-117" font-family="Helvetica,sans-Serif" font-size="10.00">util/mp_arith.h</text>
</a>
</g>
</g>
<!-- Node1&#45;&gt;Node2 -->
<g id="edge1_Node000001_Node000002" class="edge">
<title>Node1&#45;&gt;Node2</title>
<g id="a_edge1_Node000001_Node000002"><a xlink:title=" ">
<path fill="none" stroke="#63b8ff" d="M92.95,-439.64C77.28,-416.93 55,-378.04 55,-340.5 55,-340.5 55,-340.5 55,-228.5 55,-197.19 55,-160.77 55,-139.23"/>
<polygon fill="#63b8ff" stroke="#63b8ff" points="58.5,-139.18 55,-129.18 51.5,-139.18 58.5,-139.18"/>
</a>
</g>
</g>
<!-- Node6 -->
<g id="Node000006" class="node">
<title>Node6</title>
<g id="a_Node000006"><a xlink:href="prop_8h.html" target="_top" xlink:title=" ">
<polygon fill="white" stroke="#666666" points="327,-404 217,-404 217,-385 327,-385 327,-404"/>
<text text-anchor="middle" x="272" y="-392" font-family="Helvetica,sans-Serif" font-size="10.00">solvers/prop/prop.h</text>
</a>
</g>
</g>
<!-- Node1&#45;&gt;Node6 -->
<g id="edge5_Node000001_Node000006" class="edge">
<title>Node1&#45;&gt;Node6</title>
<g id="a_edge5_Node000001_Node000006"><a xlink:title=" ">
<path fill="none" stroke="#63b8ff" d="M158.1,-439.95C184.97,-429.46 217.25,-416.87 240.58,-407.76"/>
<polygon fill="#63b8ff" stroke="#63b8ff" points="241.94,-410.99 249.98,-404.09 239.4,-404.47 241.94,-410.99"/>
</a>
</g>
</g>
<!-- Node3 -->
<g id="Node000003" class="node">
<title>Node3</title>
<g id="a_Node000003"><a xlink:title=" ">
<polygon fill="#e0e0e0" stroke="#999999" points="198,-74 150,-74 150,-55 198,-55 198,-74"/>
<text text-anchor="middle" x="174" y="-62" font-family="Helvetica,sans-Serif" font-size="10.00">iosfwd</text>
</a>
</g>
</g>
<!-- Node2&#45;&gt;Node3 -->
<g id="edge2_Node000002_Node000003" class="edge">
<title>Node2&#45;&gt;Node3</title>
<g id="a_edge2_Node000002_Node000003"><a xlink:title=" ">
<path fill="none" stroke="#63b8ff" d="M74.12,-109.98C93.35,-101.42 123.23,-88.11 145.31,-78.28"/>
<polygon fill="#63b8ff" stroke="#63b8ff" points="146.82,-81.44 154.53,-74.17 143.97,-75.04 146.82,-81.44"/>
</a>
</g>
</g>
<!-- Node4 -->
<g id="Node000004" class="node">
<title>Node4</title>
<g id="a_Node000004"><a xlink:title=" ">
<polygon fill="#e0e0e0" stroke="#999999" points="409,-19 365,-19 365,0 409,0 409,-19"/>
<text text-anchor="middle" x="387" y="-7" font-family="Helvetica,sans-Serif" font-size="10.00">string</text>
</a>
</g>
</g>
<!-- Node2&#45;&gt;Node4 -->
<g id="edge3_Node000002_Node000004" class="edge">
<title>Node2&#45;&gt;Node4</title>
<g id="a_edge3_Node000002_Node000004"><a xlink:title=" ">
<path fill="none" stroke="#63b8ff" d="M63.66,-109.92C78.27,-96 109.31,-68.68 141,-55 213.24,-23.82 306.53,-14.48 354.83,-11.69"/>
<polygon fill="#63b8ff" stroke="#63b8ff" points="355.18,-15.18 364.99,-11.16 354.82,-8.19 355.18,-15.18"/>
</a>
</g>
</g>
<!-- Node5 -->
<g id="Node000005" class="node">
<title>Node5</title>
<g id="a_Node000005"><a xlink:title=" ">
<polygon fill="#e0e0e0" stroke="#999999" points="94,-74 0,-74 0,-55 94,-55 94,-74"/>
<text text-anchor="middle" x="47" y="-62" font-family="Helvetica,sans-Serif" font-size="10.00">big&#45;int/bigint.hh</text>
</a>
</g>
</g>
<!-- Node2&#45;&gt;Node5 -->
<g id="edge4_Node000002_Node000005" class="edge">
<title>Node2&#45;&gt;Node5</title>
<g id="a_edge4_Node000002_Node000005"><a xlink:title=" ">
<path fill="none" stroke="#63b8ff" d="M53.68,-109.75C52.63,-102.8 51.13,-92.85 49.81,-84.13"/>
<polygon fill="#63b8ff" stroke="#63b8ff" points="53.25,-83.45 48.3,-74.09 46.33,-84.5 53.25,-83.45"/>
</a>
</g>
</g>
<!-- Node7 -->
<g id="Node000007" class="node">
<title>Node7</title>
<g id="a_Node000007"><a xlink:href="src_2util_2message_8h.html" target="_top" xlink:title=" ">
<polygon fill="white" stroke="#666666" points="847.5,-349 758.5,-349 758.5,-330 847.5,-330 847.5,-349"/>
<text text-anchor="middle" x="803" y="-337" font-family="Helvetica,sans-Serif" font-size="10.00">util/message.h</text>
</a>
</g>
</g>
<!-- Node6&#45;&gt;Node7 -->
<g id="edge6_Node000006_Node000007" class="edge">
<title>Node6&#45;&gt;Node7</title>
<g id="a_edge6_Node000006_Node000007"><a xlink:title=" ">
<path fill="none" stroke="#63b8ff" d="M327.32,-387.98C429.53,-377.78 646.78,-356.09 748.42,-345.95"/>
<polygon fill="#63b8ff" stroke="#63b8ff" points="748.88,-349.42 758.48,-344.94 748.18,-342.45 748.88,-349.42"/>
</a>
</g>
</g>
<!-- Node33 -->
<g id="Node000033" class="node">
<title>Node33</title>
<g id="a_Node000033"><a xlink:href="threeval_8h.html" target="_top" xlink:title=" ">
<polygon fill="white" stroke="#666666" points="168.5,-294 83.5,-294 83.5,-275 168.5,-275 168.5,-294"/>
<text text-anchor="middle" x="126" y="-282" font-family="Helvetica,sans-Serif" font-size="10.00">util/threeval.h</text>
</a>
</g>
</g>
<!-- Node6&#45;&gt;Node33 -->
<g id="edge36_Node000006_Node000033" class="edge">
<title>Node6&#45;&gt;Node33</title>
<g id="a_edge36_Node000006_Node000033"><a xlink:title=" ">
<path fill="none" stroke="#63b8ff" d="M271.81,-384.89C271.04,-371.42 267.62,-345.31 253,-330 241.43,-317.88 202.94,-305.37 171.33,-296.71"/>
<polygon fill="#63b8ff" stroke="#63b8ff" points="171.92,-293.24 161.36,-294.04 170.11,-300.01 171.92,-293.24"/>
</a>
</g>
</g>
<!-- Node34 -->
<g id="Node000034" class="node">
<title>Node34</title>
<g id="a_Node000034"><a xlink:href="literal_8h.html" target="_top" xlink:title=" ">
<polygon fill="white" stroke="#666666" points="451,-239 397,-239 397,-220 451,-220 451,-239"/>
<text text-anchor="middle" x="424" y="-227" font-family="Helvetica,sans-Serif" font-size="10.00">literal.h</text>
</a>
</g>
</g>
<!-- Node6&#45;&gt;Node34 -->
<g id="edge38_Node000006_Node000034" class="edge">
<title>Node6&#45;&gt;Node34</title>
<g id="a_edge38_Node000006_Node000034"><a xlink:title=" ">
<path fill="none" stroke="#63b8ff" d="M288.9,-384.86C316.45,-369.96 371.05,-336.85 402,-294 411.71,-280.55 417.42,-262.45 420.58,-249.02"/>
<polygon fill="#63b8ff" stroke="#63b8ff" points="424.05,-249.54 422.66,-239.04 417.2,-248.11 424.05,-249.54"/>
</a>
</g>
</g>
<!-- Node35 -->
<g id="Node000035" class="node">
<title>Node35</title>
<g id="a_Node000035"><a xlink:title=" ">
<polygon fill="#e0e0e0" stroke="#999999" points="244,-349 194,-349 194,-330 244,-330 244,-349"/>
<text text-anchor="middle" x="219" y="-337" font-family="Helvetica,sans-Serif" font-size="10.00">cstdint</text>
</a>
</g>
</g>
<!-- Node6&#45;&gt;Node35 -->
<g id="edge42_Node000006_Node000035" class="edge">
<title>Node6&#45;&gt;Node35</title>
<g id="a_edge42_Node000006_Node000035"><a xlink:title=" ">
<path fill="none" stroke="#63b8ff" d="M263.25,-384.75C255.53,-377.03 244.1,-365.6 234.78,-356.28"/>
<polygon fill="#63b8ff" stroke="#63b8ff" points="237.14,-353.69 227.59,-349.09 232.19,-358.64 237.14,-353.69"/>
</a>
</g>
</g>
<!-- Node7&#45;&gt;Node3 -->
<g id="edge33_Node000007_Node000003" class="edge">
<title>Node7&#45;&gt;Node3</title>
<g id="a_edge33_Node000007_Node000003"><a xlink:title=" ">
<path fill="none" stroke="#63b8ff" d="M758.2,-337.11C648.8,-333.31 370.51,-321.21 282,-294 234.26,-279.32 210.47,-281.36 184,-239 153.55,-190.26 162.87,-118.01 169.64,-84.21"/>
<polygon fill="#63b8ff" stroke="#63b8ff" points="173.09,-84.82 171.78,-74.31 166.25,-83.34 173.09,-84.82"/>
</a>
</g>
</g>
<!-- Node7&#45;&gt;Node4 -->
<g id="edge35_Node000007_Node000004" class="edge">
<title>Node7&#45;&gt;Node4</title>
<g id="a_edge35_Node000007_Node000004"><a xlink:title=" ">
<path fill="none" stroke="#63b8ff" d="M805.06,-329.82C813.73,-292.33 845.59,-144.69 818,-110 767.88,-46.99 510.68,-20.44 419.28,-12.9"/>
<polygon fill="#63b8ff" stroke="#63b8ff" points="419.47,-9.41 409.23,-12.1 418.91,-16.39 419.47,-9.41"/>
</a>
</g>
</g>
<!-- Node8 -->
<g id="Node000008" class="node">
<title>Node8</title>
<g id="a_Node000008"><a xlink:href="src_2util_2invariant_8h.html" target="_top" xlink:title=" ">
<polygon fill="white" stroke="#666666" points="919.5,-74 850.5,-74 850.5,-55 919.5,-55 919.5,-74"/>
<text text-anchor="middle" x="885" y="-62" font-family="Helvetica,sans-Serif" font-size="10.00">invariant.h</text>
</a>
</g>
</g>
<!-- Node7&#45;&gt;Node8 -->
<g id="edge7_Node000007_Node000008" class="edge">
<title>Node7&#45;&gt;Node8</title>
<g id="a_edge7_Node000007_Node000008"><a xlink:title=" ">
<path fill="none" stroke="#63b8ff" d="M841.85,-329.97C863.17,-323.43 888.53,-312.32 905,-294 924.78,-272 925,-260.09 925,-230.5 925,-230.5 925,-230.5 925,-173.5 925,-139.67 907.53,-103.38 895.68,-82.66"/>
<polygon fill="#63b8ff" stroke="#63b8ff" points="898.68,-80.86 890.56,-74.06 892.66,-84.44 898.68,-80.86"/>
</a>
</g>
</g>
<!-- Node10 -->
<g id="Node000010" class="node">
<title>Node10</title>
<g id="a_Node000010"><a xlink:title=" ">
<polygon fill="#e0e0e0" stroke="#999999" points="991,-19 935,-19 935,0 991,0 991,-19"/>
<text text-anchor="middle" x="963" y="-7" font-family="Helvetica,sans-Serif" font-size="10.00">sstream</text>
</a>
</g>
</g>
<!-- Node7&#45;&gt;Node10 -->
<g id="edge34_Node000007_Node000010" class="edge">
<title>Node7&#45;&gt;Node10</title>
<g id="a_edge34_Node000007_Node000010"><a xlink:title=" ">
<path fill="none" stroke="#63b8ff" d="M847.76,-330.21C872.93,-323.74 903.68,-312.62 926,-294 951.08,-273.08 963,-263.16 963,-230.5 963,-230.5 963,-230.5 963,-118.5 963,-87.19 963,-50.77 963,-29.23"/>
<polygon fill="#63b8ff" stroke="#63b8ff" points="966.5,-29.18 963,-19.18 959.5,-29.18 966.5,-29.18"/>
</a>
</g>
</g>
<!-- Node12 -->
<g id="Node000012" class="node">
<title>Node12</title>
<g id="a_Node000012"><a xlink:href="source__location_8h.html" target="_top" xlink:title=" ">
<polygon fill="white" stroke="#666666" points="393,-294 291,-294 291,-275 393,-275 393,-294"/>
<text text-anchor="middle" x="342" y="-282" font-family="Helvetica,sans-Serif" font-size="10.00">source_location.h</text>
</a>
</g>
</g>
<!-- Node7&#45;&gt;Node12 -->
<g id="edge12_Node000007_Node000012" class="edge">
<title>Node7&#45;&gt;Node12</title>
<g id="a_edge12_Node000007_Node000012"><a xlink:title=" ">
<path fill="none" stroke="#63b8ff" d="M758.38,-333.37C675.42,-323.83 497.35,-303.36 403.22,-292.54"/>
<polygon fill="#63b8ff" stroke="#63b8ff" points="403.61,-289.06 393.28,-291.4 402.81,-296.01 403.61,-289.06"/>
</a>
</g>
</g>
<!-- Node32 -->
<g id="Node000032" class="node">
<title>Node32</title>
<g id="a_Node000032"><a xlink:title=" ">
<polygon fill="#e0e0e0" stroke="#999999" points="896.5,-294 831.5,-294 831.5,-275 896.5,-275 896.5,-294"/>
<text text-anchor="middle" x="864" y="-282" font-family="Helvetica,sans-Serif" font-size="10.00">functional</text>
</a>
</g>
</g>
<!-- Node7&#45;&gt;Node32 -->
<g id="edge32_Node000007_Node000032" class="edge">
<title>Node7&#45;&gt;Node32</title>
<g id="a_edge32_Node000007_Node000032"><a xlink:title=" ">
<path fill="none" stroke="#63b8ff" d="M812.8,-329.98C821.82,-322.15 835.41,-310.34 846.32,-300.86"/>
<polygon fill="#63b8ff" stroke="#63b8ff" points="848.77,-303.37 854.02,-294.17 844.18,-298.09 848.77,-303.37"/>
</a>
</g>
</g>
<!-- Node8&#45;&gt;Node4 -->
<g id="edge10_Node000008_Node000004" class="edge">
<title>Node8&#45;&gt;Node4</title>
<g id="a_edge10_Node000008_Node000004"><a xlink:title=" ">
<path fill="none" stroke="#63b8ff" d="M850.38,-59.82C758.28,-50.01 508.24,-23.4 419.1,-13.92"/>
<polygon fill="#63b8ff" stroke="#63b8ff" points="419.36,-10.42 409.05,-12.85 418.62,-17.39 419.36,-10.42"/>
</a>
</g>
</g>
<!-- Node9 -->
<g id="Node000009" class="node">
<title>Node9</title>
<g id="a_Node000009"><a xlink:title=" ">
<polygon fill="#e0e0e0" stroke="#999999" points="916.5,-19 867.5,-19 867.5,0 916.5,0 916.5,-19"/>
<text text-anchor="middle" x="892" y="-7" font-family="Helvetica,sans-Serif" font-size="10.00">cstdlib</text>
</a>
</g>
</g>
<!-- Node8&#45;&gt;Node9 -->
<g id="edge8_Node000008_Node000009" class="edge">
<title>Node8&#45;&gt;Node9</title>
<g id="a_edge8_Node000008_Node000009"><a xlink:title=" ">
<path fill="none" stroke="#63b8ff" d="M886.16,-54.75C887.07,-47.8 888.39,-37.85 889.54,-29.13"/>
<polygon fill="#63b8ff" stroke="#63b8ff" points="893.03,-29.46 890.87,-19.09 886.09,-28.54 893.03,-29.46"/>
</a>
</g>
</g>
<!-- Node8&#45;&gt;Node10 -->
<g id="edge9_Node000008_Node000010" class="edge">
<title>Node8&#45;&gt;Node10</title>
<g id="a_edge9_Node000008_Node000010"><a xlink:title=" ">
<path fill="none" stroke="#63b8ff" d="M897.53,-54.98C909.4,-46.92 927.46,-34.65 941.61,-25.03"/>
<polygon fill="#63b8ff" stroke="#63b8ff" points="943.94,-27.69 950.24,-19.17 940,-21.9 943.94,-27.69"/>
</a>
</g>
</g>
<!-- Node11 -->
<g id="Node000011" class="node">
<title>Node11</title>
<g id="a_Node000011"><a xlink:title=" ">
<polygon fill="#e0e0e0" stroke="#999999" points="849.5,-19 780.5,-19 780.5,0 849.5,0 849.5,-19"/>
<text text-anchor="middle" x="815" y="-7" font-family="Helvetica,sans-Serif" font-size="10.00">type_traits</text>
</a>
</g>
</g>
<!-- Node8&#45;&gt;Node11 -->
<g id="edge11_Node000008_Node000011" class="edge">
<title>Node8&#45;&gt;Node11</title>
<g id="a_edge11_Node000008_Node000011"><a xlink:title=" ">
<path fill="none" stroke="#63b8ff" d="M873.75,-54.98C863.2,-47 847.2,-34.88 834.56,-25.31"/>
<polygon fill="#63b8ff" stroke="#63b8ff" points="836.54,-22.42 826.45,-19.17 832.31,-28 836.54,-22.42"/>
</a>
</g>
</g>
<!-- Node12&#45;&gt;Node4 -->
<g id="edge31_Node000012_Node000004" class="edge">
<title>Node12&#45;&gt;Node4</title>
<g id="a_edge31_Node000012_Node000004"><a xlink:title=" ">
<path fill="none" stroke="#63b8ff" d="M329.43,-274.76C318.84,-266.7 304.16,-253.79 296,-239 267.87,-188.01 248.9,-163.02 273,-110 291.07,-70.25 333.73,-40.17 361.43,-23.96"/>
<polygon fill="#63b8ff" stroke="#63b8ff" points="363.22,-26.98 370.2,-19.01 359.77,-20.88 363.22,-26.98"/>
</a>
</g>
</g>
<!-- Node13 -->
<g id="Node000013" class="node">
<title>Node13</title>
<g id="a_Node000013"><a xlink:href="deprecate_8h.html" target="_top" xlink:title=" ">
<polygon fill="white" stroke="#666666" points="379,-239 305,-239 305,-220 379,-220 379,-239"/>
<text text-anchor="middle" x="342" y="-227" font-family="Helvetica,sans-Serif" font-size="10.00">deprecate.h</text>
</a>
</g>
</g>
<!-- Node12&#45;&gt;Node13 -->
<g id="edge13_Node000012_Node000013" class="edge">
<title>Node12&#45;&gt;Node13</title>
<g id="a_edge13_Node000012_Node000013"><a xlink:title=" ">
<path fill="none" stroke="#63b8ff" d="M342,-274.75C342,-267.8 342,-257.85 342,-249.13"/>
<polygon fill="#63b8ff" stroke="#63b8ff" points="345.5,-249.09 342,-239.09 338.5,-249.09 345.5,-249.09"/>
</a>
</g>
</g>
<!-- Node14 -->
<g id="Node000014" class="node">
<title>Node14</title>
<g id="a_Node000014"><a xlink:href="irep_8h.html" target="_top" xlink:title=" ">
<polygon fill="white" stroke="#666666" points="513,-239 469,-239 469,-220 513,-220 513,-239"/>
<text text-anchor="middle" x="491" y="-227" font-family="Helvetica,sans-Serif" font-size="10.00">irep.h</text>
</a>
</g>
</g>
<!-- Node12&#45;&gt;Node14 -->
<g id="edge14_Node000012_Node000014" class="edge">
<title>Node12&#45;&gt;Node14</title>
<g id="a_edge14_Node000012_Node000014"><a xlink:title=" ">
<path fill="none" stroke="#63b8ff" d="M365.94,-274.98C391.14,-266.02 430.96,-251.86 458.88,-241.92"/>
<polygon fill="#63b8ff" stroke="#63b8ff" points="460.33,-245.12 468.58,-238.47 457.99,-238.53 460.33,-245.12"/>
</a>
</g>
</g>
<!-- Node31 -->
<g id="Node000031" class="node">
<title>Node31</title>
<g id="a_Node000031"><a xlink:title=" ">
<polygon fill="#e0e0e0" stroke="#999999" points="249,-239 193,-239 193,-220 249,-220 249,-239"/>
<text text-anchor="middle" x="221" y="-227" font-family="Helvetica,sans-Serif" font-size="10.00">optional</text>
</a>
</g>
</g>
<!-- Node12&#45;&gt;Node31 -->
<g id="edge30_Node000012_Node000031" class="edge">
<title>Node12&#45;&gt;Node31</title>
<g id="a_edge30_Node000012_Node000031"><a xlink:title=" ">
<path fill="none" stroke="#63b8ff" d="M322.56,-274.98C303.01,-266.42 272.62,-253.11 250.18,-243.28"/>
<polygon fill="#63b8ff" stroke="#63b8ff" points="251.36,-239.98 240.79,-239.17 248.55,-246.39 251.36,-239.98"/>
</a>
</g>
</g>
<!-- Node14&#45;&gt;Node4 -->
<g id="edge15_Node000014_Node000004" class="edge">
<title>Node14&#45;&gt;Node4</title>
<g id="a_edge15_Node000014_Node000004"><a xlink:title=" ">
<path fill="none" stroke="#63b8ff" d="M487.88,-219.71C480.72,-199.83 462.26,-150 443,-110 428.73,-80.36 409.43,-47.33 397.61,-27.77"/>
<polygon fill="#63b8ff" stroke="#63b8ff" points="400.52,-25.81 392.33,-19.08 394.54,-29.45 400.52,-25.81"/>
</a>
</g>
</g>
<!-- Node14&#45;&gt;Node8 -->
<g id="edge17_Node000014_Node000008" class="edge">
<title>Node14&#45;&gt;Node8</title>
<g id="a_edge17_Node000014_Node000008"><a xlink:title=" ">
<path fill="none" stroke="#63b8ff" d="M513.09,-226.24C553.79,-221.6 642.96,-209.27 714,-184 763.26,-166.48 775.52,-159.49 818,-129 837.62,-114.92 857.36,-95.41 870.28,-81.74"/>
<polygon fill="#63b8ff" stroke="#63b8ff" points="873.15,-83.8 877.38,-74.09 868.01,-79.04 873.15,-83.8"/>
</a>
</g>
</g>
<!-- Node15 -->
<g id="Node000015" class="node">
<title>Node15</title>
<g id="a_Node000015"><a xlink:title=" ">
<polygon fill="#e0e0e0" stroke="#999999" points="367.5,-184 320.5,-184 320.5,-165 367.5,-165 367.5,-184"/>
<text text-anchor="middle" x="344" y="-172" font-family="Helvetica,sans-Serif" font-size="10.00">vector</text>
</a>
</g>
</g>
<!-- Node14&#45;&gt;Node15 -->
<g id="edge16_Node000014_Node000015" class="edge">
<title>Node14&#45;&gt;Node15</title>
<g id="a_edge16_Node000014_Node000015"><a xlink:title=" ">
<path fill="none" stroke="#63b8ff" d="M468.99,-220.57C444.63,-211.78 405.11,-197.53 377.03,-187.41"/>
<polygon fill="#63b8ff" stroke="#63b8ff" points="378.22,-184.12 367.62,-184.02 375.84,-190.7 378.22,-184.12"/>
</a>
</g>
</g>
<!-- Node16 -->
<g id="Node000016" class="node">
<title>Node16</title>
<g id="a_Node000016"><a xlink:href="irep__ids_8h.html" target="_top" xlink:title="util">
<polygon fill="white" stroke="#666666" points="450,-184 386,-184 386,-165 450,-165 450,-184"/>
<text text-anchor="middle" x="418" y="-172" font-family="Helvetica,sans-Serif" font-size="10.00">irep_ids.h</text>
</a>
</g>
</g>
<!-- Node14&#45;&gt;Node16 -->
<g id="edge18_Node000014_Node000016" class="edge">
<title>Node14&#45;&gt;Node16</title>
<g id="a_edge18_Node000014_Node000016"><a xlink:title=" ">
<path fill="none" stroke="#63b8ff" d="M479.27,-219.98C468.27,-212 451.58,-199.88 438.4,-190.31"/>
<polygon fill="#63b8ff" stroke="#63b8ff" points="440.09,-187.21 429.94,-184.17 435.98,-192.88 440.09,-187.21"/>
</a>
</g>
</g>
<!-- Node26 -->
<g id="Node000026" class="node">
<title>Node26</title>
<g id="a_Node000026"><a xlink:href="forward__list__as__map_8h.html" target="_top" xlink:title=" ">
<polygon fill="white" stroke="#666666" points="672.5,-184 545.5,-184 545.5,-165 672.5,-165 672.5,-184"/>
<text text-anchor="middle" x="609" y="-172" font-family="Helvetica,sans-Serif" font-size="10.00">forward_list_as_map.h</text>
</a>
</g>
</g>
<!-- Node14&#45;&gt;Node26 -->
<g id="edge23_Node000014_Node000026" class="edge">
<title>Node14&#45;&gt;Node26</title>
<g id="a_edge23_Node000014_Node000026"><a xlink:title=" ">
<path fill="none" stroke="#63b8ff" d="M509.96,-219.98C529.03,-211.42 558.66,-198.11 580.55,-188.28"/>
<polygon fill="#63b8ff" stroke="#63b8ff" points="582.01,-191.46 589.7,-184.17 579.14,-185.07 582.01,-191.46"/>
</a>
</g>
</g>
<!-- Node17 -->
<g id="Node000017" class="node">
<title>Node17</title>
<g id="a_Node000017"><a xlink:href="dstring_8h.html" target="_top" xlink:title="Container for C&#45;Strings.">
<polygon fill="#fff0f0" stroke="red" points="341.5,-129 282.5,-129 282.5,-110 341.5,-110 341.5,-129"/>
<text text-anchor="middle" x="312" y="-117" font-family="Helvetica,sans-Serif" font-size="10.00">dstring.h</text>
</a>
</g>
</g>
<!-- Node16&#45;&gt;Node17 -->
<g id="edge19_Node000016_Node000017" class="edge">
<title>Node16&#45;&gt;Node17</title>
<g id="a_edge19_Node000016_Node000017"><a xlink:title=" ">
<path fill="none" stroke="#63b8ff" d="M400.97,-164.98C384.07,-156.54 357.94,-143.47 338.36,-133.68"/>
<polygon fill="#63b8ff" stroke="#63b8ff" points="339.85,-130.51 329.34,-129.17 336.72,-136.77 339.85,-130.51"/>
</a>
</g>
</g>
<!-- Node25 -->
<g id="Node000025" class="node">
<title>Node25</title>
<g id="a_Node000025"><a xlink:title=" ">
<polygon fill="#e0e0e0" stroke="#999999" points="434,-129 360,-129 360,-110 434,-110 434,-129"/>
<text text-anchor="middle" x="397" y="-117" font-family="Helvetica,sans-Serif" font-size="10.00">irep_ids.def</text>
</a>
</g>
</g>
<!-- Node16&#45;&gt;Node25 -->
<g id="edge22_Node000016_Node000025" class="edge">
<title>Node16&#45;&gt;Node25</title>
<g id="a_edge22_Node000016_Node000025"><a xlink:title=" ">
<path fill="none" stroke="#63b8ff" d="M414.53,-164.75C411.72,-157.65 407.66,-147.4 404.15,-138.56"/>
<polygon fill="#63b8ff" stroke="#63b8ff" points="407.34,-137.1 400.4,-129.09 400.83,-139.68 407.34,-137.1"/>
</a>
</g>
</g>
<!-- Node17&#45;&gt;Node3 -->
<g id="edge20_Node000017_Node000003" class="edge">
<title>Node17&#45;&gt;Node3</title>
<g id="a_edge20_Node000017_Node000003"><a xlink:title=" ">
<path fill="none" stroke="#63b8ff" d="M289.83,-109.98C267.23,-101.3 231.94,-87.75 206.25,-77.88"/>
<polygon fill="#63b8ff" stroke="#63b8ff" points="207.17,-74.49 196.58,-74.17 204.66,-81.02 207.17,-74.49"/>
</a>
</g>
</g>
<!-- Node17&#45;&gt;Node4 -->
<g id="edge21_Node000017_Node000004" class="edge">
<title>Node17&#45;&gt;Node4</title>
<g id="a_edge21_Node000017_Node000004"><a xlink:title=" ">
<path fill="none" stroke="#63b8ff" d="M318.14,-109.66C330.62,-91.69 359.12,-50.64 375.28,-27.38"/>
<polygon fill="#63b8ff" stroke="#63b8ff" points="378.16,-29.37 380.99,-19.16 372.41,-25.38 378.16,-29.37"/>
</a>
</g>
</g>
<!-- Node27 -->
<g id="Node000027" class="node">
<title>Node27</title>
<g id="a_Node000027"><a xlink:title=" ">
<polygon fill="#e0e0e0" stroke="#999999" points="554,-129 490,-129 490,-110 554,-110 554,-129"/>
<text text-anchor="middle" x="522" y="-117" font-family="Helvetica,sans-Serif" font-size="10.00">algorithm</text>
</a>
</g>
</g>
<!-- Node26&#45;&gt;Node27 -->
<g id="edge24_Node000026_Node000027" class="edge">
<title>Node26&#45;&gt;Node27</title>
<g id="a_edge24_Node000026_Node000027"><a xlink:title=" ">
<path fill="none" stroke="#63b8ff" d="M595.02,-164.98C581.53,-156.77 560.87,-144.18 544.96,-134.49"/>
<polygon fill="#63b8ff" stroke="#63b8ff" points="546.59,-131.38 536.23,-129.17 542.95,-137.36 546.59,-131.38"/>
</a>
</g>
</g>
<!-- Node28 -->
<g id="Node000028" class="node">
<title>Node28</title>
<g id="a_Node000028"><a xlink:title=" ">
<polygon fill="#e0e0e0" stroke="#999999" points="646,-129 572,-129 572,-110 646,-110 646,-129"/>
<text text-anchor="middle" x="609" y="-117" font-family="Helvetica,sans-Serif" font-size="10.00">forward_list</text>
</a>
</g>
</g>
<!-- Node26&#45;&gt;Node28 -->
<g id="edge25_Node000026_Node000028" class="edge">
<title>Node26&#45;&gt;Node28</title>
<g id="a_edge25_Node000026_Node000028"><a xlink:title=" ">
<path fill="none" stroke="#63b8ff" d="M609,-164.75C609,-157.8 609,-147.85 609,-139.13"/>
<polygon fill="#63b8ff" stroke="#63b8ff" points="612.5,-139.09 609,-129.09 605.5,-139.09 612.5,-139.09"/>
</a>
</g>
</g>
<!-- Node29 -->
<g id="Node000029" class="node">
<title>Node29</title>
<g id="a_Node000029"><a xlink:href="as__const_8h.html" target="_top" xlink:title=" ">
<polygon fill="white" stroke="#666666" points="732,-129 664,-129 664,-110 732,-110 732,-129"/>
<text text-anchor="middle" x="698" y="-117" font-family="Helvetica,sans-Serif" font-size="10.00">as_const.h</text>
</a>
</g>
</g>
<!-- Node26&#45;&gt;Node29 -->
<g id="edge26_Node000026_Node000029" class="edge">
<title>Node26&#45;&gt;Node29</title>
<g id="a_edge26_Node000026_Node000029"><a xlink:title=" ">
<path fill="none" stroke="#63b8ff" d="M623.3,-164.98C637.1,-156.77 658.24,-144.18 674.51,-134.49"/>
<polygon fill="#63b8ff" stroke="#63b8ff" points="676.64,-137.29 683.44,-129.17 673.06,-131.28 676.64,-137.29"/>
</a>
</g>
</g>
<!-- Node30 -->
<g id="Node000030" class="node">
<title>Node30</title>
<g id="a_Node000030"><a xlink:href="narrow_8h.html" target="_top" xlink:title=" ">
<polygon fill="white" stroke="#666666" points="809.5,-129 750.5,-129 750.5,-110 809.5,-110 809.5,-129"/>
<text text-anchor="middle" x="780" y="-117" font-family="Helvetica,sans-Serif" font-size="10.00">narrow.h</text>
</a>
</g>
</g>
<!-- Node26&#45;&gt;Node30 -->
<g id="edge27_Node000026_Node000030" class="edge">
<title>Node26&#45;&gt;Node30</title>
<g id="a_edge27_Node000026_Node000030"><a xlink:title=" ">
<path fill="none" stroke="#63b8ff" d="M636.47,-164.98C665.18,-156.09 710.42,-142.07 742.42,-132.15"/>
<polygon fill="#63b8ff" stroke="#63b8ff" points="743.8,-135.39 752.31,-129.08 741.72,-128.7 743.8,-135.39"/>
</a>
</g>
</g>
<!-- Node30&#45;&gt;Node8 -->
<g id="edge29_Node000030_Node000008" class="edge">
<title>Node30&#45;&gt;Node8</title>
<g id="a_edge29_Node000030_Node000008"><a xlink:title=" ">
<path fill="none" stroke="#63b8ff" d="M796.87,-109.98C813.61,-101.54 839.5,-88.47 858.89,-78.68"/>
<polygon fill="#63b8ff" stroke="#63b8ff" points="860.47,-81.8 867.82,-74.17 857.32,-75.55 860.47,-81.8"/>
</a>
</g>
</g>
<!-- Node30&#45;&gt;Node11 -->
<g id="edge28_Node000030_Node000011" class="edge">
<title>Node30&#45;&gt;Node11</title>
<g id="a_edge28_Node000030_Node000011"><a xlink:title=" ">
<path fill="none" stroke="#63b8ff" d="M782.86,-109.66C788.56,-92.09 801.41,-52.45 809.02,-28.95"/>
<polygon fill="#63b8ff" stroke="#63b8ff" points="812.44,-29.75 812.19,-19.16 805.78,-27.59 812.44,-29.75"/>
</a>
</g>
</g>
<!-- Node33&#45;&gt;Node3 -->
<g id="edge37_Node000033_Node000003" class="edge">
<title>Node33&#45;&gt;Node3</title>
<g id="a_edge37_Node000033_Node000003"><a xlink:title=" ">
<path fill="none" stroke="#63b8ff" d="M126.23,-274.97C127.13,-249.36 131.41,-171.15 151,-110 153.98,-100.7 158.77,-90.99 163.21,-83.03"/>
<polygon fill="#63b8ff" stroke="#63b8ff" points="166.28,-84.72 168.31,-74.32 160.24,-81.18 166.28,-84.72"/>
</a>
</g>
</g>
<!-- Node34&#45;&gt;Node3 -->
<g id="edge39_Node000034_Node000003" class="edge">
<title>Node34&#45;&gt;Node3</title>
<g id="a_edge39_Node000034_Node000003"><a xlink:title=" ">
<path fill="none" stroke="#63b8ff" d="M396.78,-220.65C373.12,-213.17 338.42,-200.59 311,-184 261.69,-154.16 212.76,-106.31 188.95,-81.53"/>
<polygon fill="#63b8ff" stroke="#63b8ff" points="191.29,-78.92 181.87,-74.07 186.21,-83.73 191.29,-78.92"/>
</a>
</g>
</g>
<!-- Node34&#45;&gt;Node15 -->
<g id="edge41_Node000034_Node000015" class="edge">
<title>Node34&#45;&gt;Node15</title>
<g id="a_edge41_Node000034_Node000015"><a xlink:title=" ">
<path fill="none" stroke="#63b8ff" d="M411.15,-219.98C398.86,-211.84 380.09,-199.41 365.52,-189.76"/>
<polygon fill="#63b8ff" stroke="#63b8ff" points="367.36,-186.78 357.09,-184.17 363.49,-192.61 367.36,-186.78"/>
</a>
</g>
</g>
<!-- Node34&#45;&gt;Node30 -->
<g id="edge40_Node000034_Node000030" class="edge">
<title>Node34&#45;&gt;Node30</title>
<g id="a_edge40_Node000034_Node000030"><a xlink:title=" ">
<path fill="none" stroke="#63b8ff" d="M451.08,-221.89C454.08,-221.22 457.1,-220.58 460,-220 557.6,-200.55 588.07,-219.61 681,-184 711.62,-172.27 742.77,-150.27 761.75,-135.5"/>
<polygon fill="#63b8ff" stroke="#63b8ff" points="764.15,-138.06 769.8,-129.1 759.79,-132.59 764.15,-138.06"/>
</a>
</g>
</g>
</g>
</svg>
