<?xml version="1.0" encoding="UTF-8" standalone="no"?>
<!DOCTYPE svg PUBLIC "-//W3C//DTD SVG 1.1//EN"
 "http://www.w3.org/Graphics/SVG/1.1/DTD/svg11.dtd">
<!-- Generated by graphviz version 2.43.0 (0)
 -->
<!-- Title: /home/runner/work/cbmc/cbmc/src/libcprover&#45;rust/include/c_api.h Pages: 1 -->
<svg width="393pt" height="159pt"
 viewBox="0.00 0.00 392.50 159.00" xmlns="http://www.w3.org/2000/svg" xmlns:xlink="http://www.w3.org/1999/xlink">
<g id="graph0" class="graph" transform="scale(1 1) rotate(0) translate(4 155)">
<title>/home/runner/work/cbmc/cbmc/src/libcprover&#45;rust/include/c_api.h</title>
<!-- Node1 -->
<g id="Node000001" class="node">
<title>Node1</title>
<g id="a_Node000001"><a xlink:title=" ">
<polygon fill="#999999" stroke="#666666" points="239,-151 101,-151 101,-110 239,-110 239,-151"/>
<text text-anchor="start" x="109" y="-139" font-family="Helvetica,sans-Serif" font-size="10.00">/home/runner/work/cbmc</text>
<text text-anchor="start" x="109" y="-128" font-family="Helvetica,sans-Serif" font-size="10.00">/cbmc/src/libcprover&#45;rust</text>
<text text-anchor="middle" x="170" y="-117" font-family="Helvetica,sans-Serif" font-size="10.00">/include/c_api.h</text>
</a>
</g>
</g>
<!-- Node2 -->
<g id="Node000002" class="node">
<title>Node2</title>
<g id="a_Node000002"><a xlink:title=" ">
<polygon fill="#e0e0e0" stroke="#999999" points="58,-74 0,-74 0,-55 58,-55 58,-74"/>
<text text-anchor="middle" x="29" y="-62" font-family="Helvetica,sans-Serif" font-size="10.00">memory</text>
</a>
</g>
</g>
<!-- Node1&#45;&gt;Node2 -->
<g id="edge1_Node000001_Node000002" class="edge">
<title>Node1&#45;&gt;Node2</title>
<g id="a_edge1_Node000001_Node000002"><a xlink:title=" ">
<path fill="none" stroke="#63b8ff" d="M126.93,-109.95C104.24,-99.65 77.06,-87.31 57.1,-78.25"/>
<polygon fill="#63b8ff" stroke="#63b8ff" points="58.48,-75.04 47.93,-74.09 55.59,-81.41 58.48,-75.04"/>
</a>
</g>
</g>
<!-- Node3 -->
<g id="Node000003" class="node">
<title>Node3</title>
<g id="a_Node000003"><a xlink:title=" ">
<polygon fill="#e0e0e0" stroke="#999999" points="141.5,-74 76.5,-74 76.5,-55 141.5,-55 141.5,-74"/>
<text text-anchor="middle" x="109" y="-62" font-family="Helvetica,sans-Serif" font-size="10.00">stdexcept</text>
</a>
</g>
</g>
<!-- Node1&#45;&gt;Node3 -->
<g id="edge2_Node000001_Node000003" class="edge">
<title>Node1&#45;&gt;Node3</title>
<g id="a_edge2_Node000001_Node000003"><a xlink:title=" ">
<path fill="none" stroke="#63b8ff" d="M151.37,-109.95C142.76,-100.92 132.67,-90.33 124.49,-81.75"/>
<polygon fill="#63b8ff" stroke="#63b8ff" points="126.78,-79.08 117.35,-74.26 121.72,-83.91 126.78,-79.08"/>
</a>
</g>
</g>
<!-- Node4 -->
<g id="Node000004" class="node">
<title>Node4</title>
<g id="a_Node000004"><a xlink:title=" ">
<polygon fill="#e0e0e0" stroke="#999999" points="273,-19 229,-19 229,0 273,0 273,-19"/>
<text text-anchor="middle" x="251" y="-7" font-family="Helvetica,sans-Serif" font-size="10.00">string</text>
</a>
</g>
</g>
<!-- Node1&#45;&gt;Node4 -->
<g id="edge3_Node000001_Node000004" class="edge">
<title>Node1&#45;&gt;Node4</title>
<g id="a_edge3_Node000001_Node000004"><a xlink:title=" ">
<path fill="none" stroke="#63b8ff" d="M171.64,-109.96C173.79,-93.99 178.71,-71.45 190,-55 198.75,-42.25 212.38,-31.81 224.54,-24.25"/>
<polygon fill="#63b8ff" stroke="#63b8ff" points="226.59,-27.11 233.45,-19.04 223.05,-21.06 226.59,-27.11"/>
</a>
</g>
</g>
<!-- Node5 -->
<g id="Node000005" class="node">
<title>Node5</title>
<g id="a_Node000005"><a xlink:title=" ">
<polygon fill="#e0e0e0" stroke="#999999" points="263.5,-74 198.5,-74 198.5,-55 263.5,-55 263.5,-74"/>
<text text-anchor="middle" x="231" y="-62" font-family="Helvetica,sans-Serif" font-size="10.00">rust/cxx.h</text>
</a>
</g>
</g>
<!-- Node1&#45;&gt;Node5 -->
<g id="edge4_Node000001_Node000005" class="edge">
<title>Node1&#45;&gt;Node5</title>
<g id="a_edge4_Node000001_Node000005"><a xlink:title=" ">
<path fill="none" stroke="#63b8ff" d="M188.63,-109.95C197.24,-100.92 207.33,-90.33 215.51,-81.75"/>
<polygon fill="#63b8ff" stroke="#63b8ff" points="218.28,-83.91 222.65,-74.26 213.22,-79.08 218.28,-83.91"/>
</a>
</g>
</g>
<!-- Node6 -->
<g id="Node000006" class="node">
<title>Node6</title>
<g id="a_Node000006"><a xlink:href="c__errors_8h.html" target="_top" xlink:title=" ">
<polygon fill="white" stroke="#666666" points="384.5,-74 281.5,-74 281.5,-55 384.5,-55 384.5,-74"/>
<text text-anchor="middle" x="333" y="-62" font-family="Helvetica,sans-Serif" font-size="10.00">include/c_errors.h</text>
</a>
</g>
</g>
<!-- Node1&#45;&gt;Node6 -->
<g id="edge5_Node000001_Node000006" class="edge">
<title>Node1&#45;&gt;Node6</title>
<g id="a_edge5_Node000001_Node000006"><a xlink:title=" ">
<path fill="none" stroke="#63b8ff" d="M219.79,-109.95C246.5,-99.46 278.59,-86.87 301.77,-77.76"/>
<polygon fill="#63b8ff" stroke="#63b8ff" points="303.09,-81 311.12,-74.09 300.53,-74.49 303.09,-81"/>
</a>
</g>
</g>
<!-- Node6&#45;&gt;Node4 -->
<g id="edge6_Node000006_Node000004" class="edge">
<title>Node6&#45;&gt;Node4</title>
<g id="a_edge6_Node000006_Node000004"><a xlink:title=" ">
<path fill="none" stroke="#63b8ff" d="M319.83,-54.98C307.23,-46.84 288,-34.41 273.06,-24.76"/>
<polygon fill="#63b8ff" stroke="#63b8ff" points="274.71,-21.66 264.41,-19.17 270.91,-27.54 274.71,-21.66"/>
</a>
</g>
</g>
</g>
</svg>
