<?xml version="1.0" encoding="UTF-8" standalone="no"?>
<!DOCTYPE svg PUBLIC "-//W3C//DTD SVG 1.1//EN"
 "http://www.w3.org/Graphics/SVG/1.1/DTD/svg11.dtd">
<!-- Generated by graphviz version 2.43.0 (0)
 -->
<!-- Title: /home/runner/work/cbmc/cbmc/src/crangler/c_defines.h Pages: 1 -->
<svg width="384pt" height="104pt"
 viewBox="0.00 0.00 383.50 104.00" xmlns="http://www.w3.org/2000/svg" xmlns:xlink="http://www.w3.org/1999/xlink">
<g id="graph0" class="graph" transform="scale(1 1) rotate(0) translate(4 100)">
<title>/home/runner/work/cbmc/cbmc/src/crangler/c_defines.h</title>
<!-- Node1 -->
<g id="Node000001" class="node">
<title>Node1</title>
<g id="a_Node000001"><a xlink:title="c_defines">
<polygon fill="#999999" stroke="#666666" points="267.5,-96 103.5,-96 103.5,-66 267.5,-66 267.5,-96"/>
<text text-anchor="start" x="111.5" y="-84" font-family="Helvetica,sans-Serif" font-size="10.00">/home/runner/work/cbmc</text>
<text text-anchor="middle" x="185.5" y="-73" font-family="Helvetica,sans-Serif" font-size="10.00">/cbmc/src/crangler/c_defines.h</text>
</a>
</g>
</g>
<!-- Node2 -->
<g id="Node000002" class="node">
<title>Node2</title>
<g id="a_Node000002"><a xlink:href="c__defines_8cpp.html" target="_top" xlink:title="c_defines">
<polygon fill="white" stroke="#666666" points="175,-30 0,-30 0,0 175,0 175,-30"/>
<text text-anchor="start" x="8" y="-18" font-family="Helvetica,sans-Serif" font-size="10.00">/home/runner/work/cbmc</text>
<text text-anchor="middle" x="87.5" y="-7" font-family="Helvetica,sans-Serif" font-size="10.00">/cbmc/src/crangler/c_defines.cpp</text>
</a>
</g>
</g>
<!-- Node1&#45;&gt;Node2 -->
<g id="edge1_Node000001_Node000002" class="edge">
<title>Node1&#45;&gt;Node2</title>
<g id="a_edge1_Node000001_Node000002"><a xlink:title=" ">
<path fill="none" stroke="#63b8ff" d="M155.34,-60.3C140.42,-50.56 122.75,-39.02 109.19,-30.16"/>
<polygon fill="#63b8ff" stroke="#63b8ff" points="153.46,-63.26 163.75,-65.8 157.29,-57.4 153.46,-63.26"/>
</a>
</g>
</g>
<!-- Node3 -->
<g id="Node000003" class="node">
<title>Node3</title>
<g id="a_Node000003"><a xlink:href="c__wrangler_8cpp.html" target="_top" xlink:title="C Wrangler.">
<polygon fill="white" stroke="#666666" points="375.5,-30 193.5,-30 193.5,0 375.5,0 375.5,-30"/>
<text text-anchor="start" x="201.5" y="-18" font-family="Helvetica,sans-Serif" font-size="10.00">/home/runner/work/cbmc</text>
<text text-anchor="middle" x="284.5" y="-7" font-family="Helvetica,sans-Serif" font-size="10.00">/cbmc/src/crangler/c_wrangler.cpp</text>
</a>
</g>
</g>
<!-- Node1&#45;&gt;Node3 -->
<g id="edge2_Node000001_Node000003" class="edge">
<title>Node1&#45;&gt;Node3</title>
<g id="a_edge2_Node000001_Node000003"><a xlink:title=" ">
<path fill="none" stroke="#63b8ff" d="M215.97,-60.3C231.04,-50.56 248.89,-39.02 262.59,-30.16"/>
<polygon fill="#63b8ff" stroke="#63b8ff" points="213.97,-57.43 207.47,-65.8 217.77,-63.31 213.97,-57.43"/>
</a>
</g>
</g>
</g>
</svg>
