<?xml version="1.0" encoding="UTF-8" standalone="no"?>
<!DOCTYPE svg PUBLIC "-//W3C//DTD SVG 1.1//EN"
 "http://www.w3.org/Graphics/SVG/1.1/DTD/svg11.dtd">
<!-- Generated by graphviz version 2.43.0 (0)
 -->
<!-- Title: /home/runner/work/cbmc/cbmc/src/ansi&#45;c/c_nondet_symbol_factory.h Pages: 1 -->
<svg width="492pt" height="126pt"
 viewBox="0.00 0.00 492.00 126.00" xmlns="http://www.w3.org/2000/svg" xmlns:xlink="http://www.w3.org/1999/xlink">
<g id="graph0" class="graph" transform="scale(1 1) rotate(0) translate(4 122)">
<title>/home/runner/work/cbmc/cbmc/src/ansi&#45;c/c_nondet_symbol_factory.h</title>
<!-- Node1 -->
<g id="Node000001" class="node">
<title>Node1</title>
<g id="a_Node000001"><a xlink:title="C Nondet Symbol Factory.">
<polygon fill="#999999" stroke="#666666" points="299.5,-118 156.5,-118 156.5,-77 299.5,-77 299.5,-118"/>
<text text-anchor="start" x="164.5" y="-106" font-family="Helvetica,sans-Serif" font-size="10.00">/home/runner/work/cbmc</text>
<text text-anchor="start" x="164.5" y="-95" font-family="Helvetica,sans-Serif" font-size="10.00">/cbmc/src/ansi&#45;c/c_nondet</text>
<text text-anchor="middle" x="228" y="-84" font-family="Helvetica,sans-Serif" font-size="10.00">_symbol_factory.h</text>
</a>
</g>
</g>
<!-- Node2 -->
<g id="Node000002" class="node">
<title>Node2</title>
<g id="a_Node000002"><a xlink:href="ansi__c__entry__point_8cpp.html" target="_top" xlink:title=" ">
<polygon fill="white" stroke="#666666" points="138,-41 0,-41 0,0 138,0 138,-41"/>
<text text-anchor="start" x="8" y="-29" font-family="Helvetica,sans-Serif" font-size="10.00">/home/runner/work/cbmc</text>
<text text-anchor="start" x="8" y="-18" font-family="Helvetica,sans-Serif" font-size="10.00">/cbmc/src/ansi&#45;c/ansi</text>
<text text-anchor="middle" x="69" y="-7" font-family="Helvetica,sans-Serif" font-size="10.00">_c_entry_point.cpp</text>
</a>
</g>
</g>
<!-- Node1&#45;&gt;Node2 -->
<g id="edge1_Node000001_Node000002" class="edge">
<title>Node1&#45;&gt;Node2</title>
<g id="a_edge1_Node000001_Node000002"><a xlink:title=" ">
<path fill="none" stroke="#63b8ff" d="M177.59,-72.72C155.95,-62.51 130.97,-50.73 110.43,-41.04"/>
<polygon fill="#63b8ff" stroke="#63b8ff" points="176.1,-75.89 186.64,-76.99 179.09,-69.56 176.1,-75.89"/>
</a>
</g>
</g>
<!-- Node3 -->
<g id="Node000003" class="node">
<title>Node3</title>
<g id="a_Node000003"><a xlink:href="c__nondet__symbol__factory_8cpp.html" target="_top" xlink:title="C Nondet Symbol Factory.">
<polygon fill="white" stroke="#666666" points="299.5,-41 156.5,-41 156.5,0 299.5,0 299.5,-41"/>
<text text-anchor="start" x="164.5" y="-29" font-family="Helvetica,sans-Serif" font-size="10.00">/home/runner/work/cbmc</text>
<text text-anchor="start" x="164.5" y="-18" font-family="Helvetica,sans-Serif" font-size="10.00">/cbmc/src/ansi&#45;c/c_nondet</text>
<text text-anchor="middle" x="228" y="-7" font-family="Helvetica,sans-Serif" font-size="10.00">_symbol_factory.cpp</text>
</a>
</g>
</g>
<!-- Node1&#45;&gt;Node3 -->
<g id="edge2_Node000001_Node000003" class="edge">
<title>Node1&#45;&gt;Node3</title>
<g id="a_edge2_Node000001_Node000003"><a xlink:title=" ">
<path fill="none" stroke="#63b8ff" d="M228,-66.69C228,-58.08 228,-48.9 228,-41.07"/>
<polygon fill="#63b8ff" stroke="#63b8ff" points="224.5,-66.79 228,-76.79 231.5,-66.79 224.5,-66.79"/>
</a>
</g>
</g>
<!-- Node4 -->
<g id="Node000004" class="node">
<title>Node4</title>
<g id="a_Node000004"><a xlink:href="generate__function__bodies_8cpp.html" target="_top" xlink:title=" ">
<polygon fill="white" stroke="#666666" points="484,-41 318,-41 318,0 484,0 484,-41"/>
<text text-anchor="start" x="326" y="-29" font-family="Helvetica,sans-Serif" font-size="10.00">/home/runner/work/cbmc</text>
<text text-anchor="start" x="326" y="-18" font-family="Helvetica,sans-Serif" font-size="10.00">/cbmc/src/goto&#45;instrument</text>
<text text-anchor="middle" x="401" y="-7" font-family="Helvetica,sans-Serif" font-size="10.00">/generate_function_bodies.cpp</text>
</a>
</g>
</g>
<!-- Node1&#45;&gt;Node4 -->
<g id="edge3_Node000001_Node000004" class="edge">
<title>Node1&#45;&gt;Node4</title>
<g id="a_edge3_Node000001_Node000004"><a xlink:title=" ">
<path fill="none" stroke="#63b8ff" d="M282.22,-73C305.91,-62.72 333.37,-50.82 355.92,-41.04"/>
<polygon fill="#63b8ff" stroke="#63b8ff" points="280.78,-69.8 273,-76.99 283.57,-76.22 280.78,-69.8"/>
</a>
</g>
</g>
</g>
</svg>
