<?xml version="1.0" encoding="UTF-8" standalone="no"?>
<!DOCTYPE svg PUBLIC "-//W3C//DTD SVG 1.1//EN"
 "http://www.w3.org/Graphics/SVG/1.1/DTD/svg11.dtd">
<!-- Generated by graphviz version 2.43.0 (0)
 -->
<!-- Title: /home/runner/work/cbmc/cbmc/src/cbmc/cbmc_parse_options.h Pages: 1 -->
<svg width="783pt" height="126pt"
 viewBox="0.00 0.00 783.00 126.00" xmlns="http://www.w3.org/2000/svg" xmlns:xlink="http://www.w3.org/1999/xlink">
<g id="graph0" class="graph" transform="scale(1 1) rotate(0) translate(4 122)">
<title>/home/runner/work/cbmc/cbmc/src/cbmc/cbmc_parse_options.h</title>
<!-- Node1 -->
<g id="Node000001" class="node">
<title>Node1</title>
<g id="a_Node000001"><a xlink:title="CBMC Command Line Option Processing.">
<polygon fill="#999999" stroke="#666666" points="468.5,-118 314.5,-118 314.5,-77 468.5,-77 468.5,-118"/>
<text text-anchor="start" x="322.5" y="-106" font-family="Helvetica,sans-Serif" font-size="10.00">/home/runner/work/cbmc</text>
<text text-anchor="start" x="322.5" y="-95" font-family="Helvetica,sans-Serif" font-size="10.00">/cbmc/src/cbmc/cbmc_parse</text>
<text text-anchor="middle" x="391.5" y="-84" font-family="Helvetica,sans-Serif" font-size="10.00">_options.h</text>
</a>
</g>
</g>
<!-- Node2 -->
<g id="Node000002" class="node">
<title>Node2</title>
<g id="a_Node000002"><a xlink:href="cbmc__languages_8cpp.html" target="_top" xlink:title="Language Registration.">
<polygon fill="white" stroke="#666666" points="197,-35.5 0,-35.5 0,-5.5 197,-5.5 197,-35.5"/>
<text text-anchor="start" x="8" y="-23.5" font-family="Helvetica,sans-Serif" font-size="10.00">/home/runner/work/cbmc</text>
<text text-anchor="middle" x="98.5" y="-12.5" font-family="Helvetica,sans-Serif" font-size="10.00">/cbmc/src/cbmc/cbmc_languages.cpp</text>
</a>
</g>
</g>
<!-- Node1&#45;&gt;Node2 -->
<g id="edge1_Node000001_Node000002" class="edge">
<title>Node1&#45;&gt;Node2</title>
<g id="a_edge1_Node000001_Node000002"><a xlink:title=" ">
<path fill="none" stroke="#63b8ff" d="M305.31,-74.44C256.23,-61.88 196.23,-46.52 153.52,-35.58"/>
<polygon fill="#63b8ff" stroke="#63b8ff" points="304.73,-77.9 315.28,-76.99 306.46,-71.12 304.73,-77.9"/>
</a>
</g>
</g>
<!-- Node3 -->
<g id="Node000003" class="node">
<title>Node3</title>
<g id="a_Node000003"><a xlink:href="cbmc__main_8cpp.html" target="_top" xlink:title="CBMC Main Module.">
<polygon fill="white" stroke="#666666" points="387.5,-35.5 215.5,-35.5 215.5,-5.5 387.5,-5.5 387.5,-35.5"/>
<text text-anchor="start" x="223.5" y="-23.5" font-family="Helvetica,sans-Serif" font-size="10.00">/home/runner/work/cbmc</text>
<text text-anchor="middle" x="301.5" y="-12.5" font-family="Helvetica,sans-Serif" font-size="10.00">/cbmc/src/cbmc/cbmc_main.cpp</text>
</a>
</g>
</g>
<!-- Node1&#45;&gt;Node3 -->
<g id="edge2_Node000001_Node000003" class="edge">
<title>Node1&#45;&gt;Node3</title>
<g id="a_edge2_Node000001_Node000003"><a xlink:title=" ">
<path fill="none" stroke="#63b8ff" d="M359.9,-70.17C345.95,-58.55 330.11,-45.34 318.45,-35.63"/>
<polygon fill="#63b8ff" stroke="#63b8ff" points="357.93,-73.08 367.85,-76.79 362.41,-67.7 357.93,-73.08"/>
</a>
</g>
</g>
<!-- Node4 -->
<g id="Node000004" class="node">
<title>Node4</title>
<g id="a_Node000004"><a xlink:href="cbmc__parse__options_8cpp.html" target="_top" xlink:title="CBMC Command Line Option Processing.">
<polygon fill="white" stroke="#666666" points="559.5,-41 405.5,-41 405.5,0 559.5,0 559.5,-41"/>
<text text-anchor="start" x="413.5" y="-29" font-family="Helvetica,sans-Serif" font-size="10.00">/home/runner/work/cbmc</text>
<text text-anchor="start" x="413.5" y="-18" font-family="Helvetica,sans-Serif" font-size="10.00">/cbmc/src/cbmc/cbmc_parse</text>
<text text-anchor="middle" x="482.5" y="-7" font-family="Helvetica,sans-Serif" font-size="10.00">_options.cpp</text>
</a>
</g>
</g>
<!-- Node1&#45;&gt;Node4 -->
<g id="edge3_Node000001_Node000004" class="edge">
<title>Node1&#45;&gt;Node4</title>
<g id="a_edge3_Node000001_Node000004"><a xlink:title=" ">
<path fill="none" stroke="#63b8ff" d="M423.23,-70.35C434.9,-60.73 447.9,-50.01 458.75,-41.07"/>
<polygon fill="#63b8ff" stroke="#63b8ff" points="420.9,-67.73 415.41,-76.79 425.35,-73.14 420.9,-67.73"/>
</a>
</g>
</g>
<!-- Node5 -->
<g id="Node000005" class="node">
<title>Node5</title>
<g id="a_Node000005"><a xlink:href="goto__synthesizer__parse__options_8cpp.html" target="_top" xlink:title="Main Module.">
<polygon fill="white" stroke="#666666" points="775,-41 578,-41 578,0 775,0 775,-41"/>
<text text-anchor="start" x="586" y="-29" font-family="Helvetica,sans-Serif" font-size="10.00">/home/runner/work/cbmc</text>
<text text-anchor="start" x="586" y="-18" font-family="Helvetica,sans-Serif" font-size="10.00">/cbmc/src/goto&#45;synthesizer</text>
<text text-anchor="middle" x="676.5" y="-7" font-family="Helvetica,sans-Serif" font-size="10.00">/goto_synthesizer_parse_options.cpp</text>
</a>
</g>
</g>
<!-- Node1&#45;&gt;Node5 -->
<g id="edge4_Node000001_Node000005" class="edge">
<title>Node1&#45;&gt;Node5</title>
<g id="a_edge4_Node000001_Node000005"><a xlink:title=" ">
<path fill="none" stroke="#63b8ff" d="M475.42,-74.42C515.63,-63.84 563.37,-51.27 602.24,-41.04"/>
<polygon fill="#63b8ff" stroke="#63b8ff" points="474.42,-71.06 465.64,-76.99 476.2,-77.83 474.42,-71.06"/>
</a>
</g>
</g>
</g>
</svg>
