<?xml version="1.0" encoding="UTF-8" standalone="no"?>
<!DOCTYPE svg PUBLIC "-//W3C//DTD SVG 1.1//EN"
 "http://www.w3.org/Graphics/SVG/1.1/DTD/svg11.dtd">
<!-- Generated by graphviz version 2.43.0 (0)
 -->
<!-- Title: binary_functional_enumeratort Pages: 1 -->
<svg width="469pt" height="524pt"
 viewBox="0.00 0.00 468.50 524.00" xmlns="http://www.w3.org/2000/svg" xmlns:xlink="http://www.w3.org/1999/xlink">
<g id="graph0" class="graph" transform="scale(1 1) rotate(0) translate(4 520)">
<title>binary_functional_enumeratort</title>
<!-- Node1 -->
<g id="Node000001" class="node">
<title>Node1</title>
<g id="a_Node000001"><a xlink:title="Enumerator that enumerates binary functional expressions.">
<polygon fill="#999999" stroke="#666666" points="382,-19 215,-19 215,0 382,0 382,-19"/>
<text text-anchor="middle" x="298.5" y="-7" font-family="Helvetica,sans-Serif" font-size="10.00">binary_functional_enumeratort</text>
</a>
</g>
</g>
<!-- Node2 -->
<g id="Node000002" class="node">
<title>Node2</title>
<g id="a_Node000002"><a xlink:href="classnon__leaf__enumeratort.html" target="_top" xlink:title="Non&#45;leaf enumerator enumerates expressions of form f(a_1, a_2, ..., a_n) where a_i&#39;s are sub&#45;expressi...">
<polygon fill="white" stroke="#666666" points="243,-75 118,-75 118,-56 243,-56 243,-75"/>
<text text-anchor="middle" x="180.5" y="-63" font-family="Helvetica,sans-Serif" font-size="10.00">non_leaf_enumeratort</text>
</a>
</g>
</g>
<!-- Node2&#45;&gt;Node1 -->
<g id="edge1_Node000001_Node000002" class="edge">
<title>Node2&#45;&gt;Node1</title>
<g id="a_edge1_Node000001_Node000002"><a xlink:title=" ">
<path fill="none" stroke="#63b8ff" d="M208.4,-51.73C230.47,-41.63 260.68,-27.81 279.89,-19.02"/>
<polygon fill="#63b8ff" stroke="#63b8ff" points="206.83,-48.6 199.2,-55.94 209.75,-54.96 206.83,-48.6"/>
</a>
</g>
</g>
<!-- Node3 -->
<g id="Node000003" class="node">
<title>Node3</title>
<g id="a_Node000003"><a xlink:href="classenumerator__baset.html" target="_top" xlink:title="A base class for expression enumerators.">
<polygon fill="white" stroke="#666666" points="233.5,-131 127.5,-131 127.5,-112 233.5,-112 233.5,-131"/>
<text text-anchor="middle" x="180.5" y="-119" font-family="Helvetica,sans-Serif" font-size="10.00">enumerator_baset</text>
</a>
</g>
</g>
<!-- Node3&#45;&gt;Node2 -->
<g id="edge2_Node000002_Node000003" class="edge">
<title>Node3&#45;&gt;Node2</title>
<g id="a_edge2_Node000002_Node000003"><a xlink:title=" ">
<path fill="none" stroke="#63b8ff" d="M180.5,-101.3C180.5,-92.41 180.5,-82.28 180.5,-75.25"/>
<polygon fill="#63b8ff" stroke="#63b8ff" points="177,-101.58 180.5,-111.58 184,-101.58 177,-101.58"/>
</a>
</g>
</g>
<!-- Node4 -->
<g id="Node000004" class="node">
<title>Node4</title>
<g id="a_Node000004"><a xlink:href="classnamespacet.html" target="_top" xlink:title="A namespacet is essentially one or two symbol tables bound together, to allow for symbol lookups in t...">
<polygon fill="white" stroke="#666666" points="219,-197 142,-197 142,-178 219,-178 219,-197"/>
<text text-anchor="middle" x="180.5" y="-185" font-family="Helvetica,sans-Serif" font-size="10.00">namespacet</text>
</a>
</g>
</g>
<!-- Node4&#45;&gt;Node3 -->
<g id="edge3_Node000003_Node000004" class="edge">
<title>Node4&#45;&gt;Node3</title>
<g id="a_edge3_Node000003_Node000004"><a xlink:title=" ">
<path fill="none" stroke="#9a32cd" stroke-dasharray="5,2" d="M180.5,-167.58C180.5,-155.63 180.5,-140.72 180.5,-131.41"/>
<polygon fill="#9a32cd" stroke="#9a32cd" points="177,-167.87 180.5,-177.87 184,-167.87 177,-167.87"/>
</a>
</g>
<text text-anchor="middle" x="188" y="-152" font-family="Helvetica,sans-Serif" font-size="10.00" fill="grey"> ns</text>
</g>
<!-- Node5 -->
<g id="Node000005" class="node">
<title>Node5</title>
<g id="a_Node000005"><a xlink:href="classnamespace__baset.html" target="_top" xlink:title="Basic interface for a namespace.">
<polygon fill="white" stroke="#666666" points="185,-274 80,-274 80,-255 185,-255 185,-274"/>
<text text-anchor="middle" x="132.5" y="-262" font-family="Helvetica,sans-Serif" font-size="10.00">namespace_baset</text>
</a>
</g>
</g>
<!-- Node5&#45;&gt;Node4 -->
<g id="edge4_Node000004_Node000005" class="edge">
<title>Node5&#45;&gt;Node4</title>
<g id="a_edge4_Node000004_Node000005"><a xlink:title=" ">
<path fill="none" stroke="#63b8ff" d="M143.51,-246.29C153.37,-230.88 167.43,-208.93 175.06,-197"/>
<polygon fill="#63b8ff" stroke="#63b8ff" points="140.45,-244.59 138.01,-254.9 146.34,-248.36 140.45,-244.59"/>
</a>
</g>
</g>
<!-- Node6 -->
<g id="Node000006" class="node">
<title>Node6</title>
<g id="a_Node000006"><a xlink:href="classsymbol__table__baset.html" target="_top" xlink:title="The symbol table base class interface.">
<polygon fill="white" stroke="#666666" points="318,-274 203,-274 203,-255 318,-255 318,-274"/>
<text text-anchor="middle" x="260.5" y="-262" font-family="Helvetica,sans-Serif" font-size="10.00">symbol_table_baset</text>
</a>
</g>
</g>
<!-- Node6&#45;&gt;Node4 -->
<g id="edge5_Node000004_Node000006" class="edge">
<title>Node6&#45;&gt;Node4</title>
<g id="a_edge5_Node000004_Node000006"><a xlink:title=" ">
<path fill="none" stroke="#9a32cd" stroke-dasharray="5,2" d="M243.98,-248.01C227.49,-232.55 202.77,-209.38 189.57,-197"/>
<polygon fill="#9a32cd" stroke="#9a32cd" points="241.63,-250.61 251.32,-254.9 246.42,-245.5 241.63,-250.61"/>
</a>
</g>
<text text-anchor="middle" x="267.5" y="-229" font-family="Helvetica,sans-Serif" font-size="10.00" fill="grey"> symbol_table1</text>
<text text-anchor="middle" x="267.5" y="-218" font-family="Helvetica,sans-Serif" font-size="10.00" fill="grey">symbol_table2</text>
</g>
<!-- Node7 -->
<g id="Node000007" class="node">
<title>Node7</title>
<g id="a_Node000007"><a xlink:title=" ">
<polygon fill="white" stroke="#666666" points="183.5,-450 69.5,-450 69.5,-420 183.5,-420 183.5,-450"/>
<text text-anchor="start" x="77.5" y="-438" font-family="Helvetica,sans-Serif" font-size="10.00">std::unordered_map</text>
<text text-anchor="middle" x="126.5" y="-427" font-family="Helvetica,sans-Serif" font-size="10.00">&lt; K, T &gt;</text>
</a>
</g>
</g>
<!-- Node7&#45;&gt;Node6 -->
<g id="edge6_Node000006_Node000007" class="edge">
<title>Node7&#45;&gt;Node6</title>
<g id="a_edge6_Node000006_Node000007"><a xlink:title=" ">
<path fill="none" stroke="#9a32cd" stroke-dasharray="5,2" d="M126.72,-409.47C128.06,-387.31 133.02,-354.77 149.5,-332 170.7,-302.7 209.14,-283.95 234.75,-274.07"/>
<polygon fill="#9a32cd" stroke="#9a32cd" points="123.21,-409.59 126.31,-419.72 130.2,-409.87 123.21,-409.59"/>
</a>
</g>
<text text-anchor="middle" x="172" y="-344.5" font-family="Helvetica,sans-Serif" font-size="10.00" fill="grey"> symbols</text>
</g>
<!-- Node8 -->
<g id="Node000008" class="node">
<title>Node8</title>
<g id="a_Node000008"><a xlink:title=" ">
<polygon fill="white" stroke="#666666" points="295,-516 266,-516 266,-497 295,-497 295,-516"/>
<text text-anchor="middle" x="280.5" y="-504" font-family="Helvetica,sans-Serif" font-size="10.00">K</text>
</a>
</g>
</g>
<!-- Node8&#45;&gt;Node7 -->
<g id="edge7_Node000007_Node000008" class="edge">
<title>Node8&#45;&gt;Node7</title>
<g id="a_edge7_Node000007_Node000008"><a xlink:title=" ">
<path fill="none" stroke="#9a32cd" stroke-dasharray="5,2" d="M264.6,-489.88C256.22,-482.38 245.43,-473.78 234.5,-468 218.76,-459.69 200.57,-453.24 183.65,-448.38"/>
<polygon fill="#9a32cd" stroke="#9a32cd" points="262.4,-492.61 272.09,-496.88 267.18,-487.5 262.4,-492.61"/>
</a>
</g>
<text text-anchor="middle" x="263.5" y="-471" font-family="Helvetica,sans-Serif" font-size="10.00" fill="grey"> keys</text>
</g>
<!-- Node12 -->
<g id="Node000012" class="node">
<title>Node12</title>
<g id="a_Node000012"><a xlink:title=" ">
<polygon fill="white" stroke="#666666" points="327.5,-444.5 201.5,-444.5 201.5,-425.5 327.5,-425.5 327.5,-444.5"/>
<text text-anchor="middle" x="264.5" y="-432.5" font-family="Helvetica,sans-Serif" font-size="10.00">std::multimap&lt; K, T &gt;</text>
</a>
</g>
</g>
<!-- Node8&#45;&gt;Node12 -->
<g id="edge12_Node000012_Node000008" class="edge">
<title>Node8&#45;&gt;Node12</title>
<g id="a_edge12_Node000012_Node000008"><a xlink:title=" ">
<path fill="none" stroke="#9a32cd" stroke-dasharray="5,2" d="M284.52,-486.76C285.15,-480.69 285.14,-473.98 283.5,-468 281.14,-459.4 275.8,-450.77 271.38,-444.65"/>
<polygon fill="#9a32cd" stroke="#9a32cd" points="281.05,-486.27 282.88,-496.7 287.96,-487.4 281.05,-486.27"/>
</a>
</g>
<text text-anchor="middle" x="297.5" y="-471" font-family="Helvetica,sans-Serif" font-size="10.00" fill="grey"> keys</text>
</g>
<!-- Node9 -->
<g id="Node000009" class="node">
<title>Node9</title>
<g id="a_Node000009"><a xlink:title=" ">
<polygon fill="white" stroke="#666666" points="127,-516 98,-516 98,-497 127,-497 127,-516"/>
<text text-anchor="middle" x="112.5" y="-504" font-family="Helvetica,sans-Serif" font-size="10.00">T</text>
</a>
</g>
</g>
<!-- Node9&#45;&gt;Node7 -->
<g id="edge8_Node000007_Node000009" class="edge">
<title>Node9&#45;&gt;Node7</title>
<g id="a_edge8_Node000007_Node000009"><a xlink:title=" ">
<path fill="none" stroke="#9a32cd" stroke-dasharray="5,2" d="M111.69,-486.39C111.79,-480.45 112.26,-473.9 113.5,-468 114.75,-462.01 117.07,-455.72 119.41,-450.31"/>
<polygon fill="#9a32cd" stroke="#9a32cd" points="108.2,-486.82 111.86,-496.76 115.2,-486.7 108.2,-486.82"/>
</a>
</g>
<text text-anchor="middle" x="138" y="-471" font-family="Helvetica,sans-Serif" font-size="10.00" fill="grey"> elements</text>
</g>
<!-- Node9&#45;&gt;Node12 -->
<g id="edge13_Node000012_Node000009" class="edge">
<title>Node9&#45;&gt;Node12</title>
<g id="a_edge13_Node000012_Node000009"><a xlink:title=" ">
<path fill="none" stroke="#9a32cd" stroke-dasharray="5,2" d="M136.17,-492.66C150.33,-485.15 168.77,-475.67 185.5,-468 204.2,-459.43 225.88,-450.73 241.8,-444.57"/>
<polygon fill="#9a32cd" stroke="#9a32cd" points="134.3,-489.69 127.13,-497.49 137.6,-495.86 134.3,-489.69"/>
</a>
</g>
<text text-anchor="middle" x="210" y="-471" font-family="Helvetica,sans-Serif" font-size="10.00" fill="grey"> elements</text>
</g>
<!-- Node13 -->
<g id="Node000013" class="node">
<title>Node13</title>
<g id="a_Node000013"><a xlink:title=" ">
<polygon fill="white" stroke="#666666" points="81,-400.5 0,-400.5 0,-381.5 81,-381.5 81,-400.5"/>
<text text-anchor="middle" x="40.5" y="-388.5" font-family="Helvetica,sans-Serif" font-size="10.00">std::list&lt; T &gt;</text>
</a>
</g>
</g>
<!-- Node9&#45;&gt;Node13 -->
<g id="edge15_Node000013_Node000009" class="edge">
<title>Node9&#45;&gt;Node13</title>
<g id="a_edge15_Node000013_Node000009"><a xlink:title=" ">
<path fill="none" stroke="#9a32cd" stroke-dasharray="5,2" d="M88.15,-498.9C77.54,-494.82 65.87,-488.51 58.5,-479 40.17,-455.35 39.28,-417.58 39.93,-400.68"/>
<polygon fill="#9a32cd" stroke="#9a32cd" points="87.23,-502.28 97.82,-502.14 89.45,-495.64 87.23,-502.28"/>
</a>
</g>
<text text-anchor="middle" x="83" y="-471" font-family="Helvetica,sans-Serif" font-size="10.00" fill="grey"> elements</text>
</g>
<!-- Node10 -->
<g id="Node000010" class="node">
<title>Node10</title>
<g id="a_Node000010"><a xlink:title=" ">
<polygon fill="white" stroke="#666666" points="318,-362 203,-362 203,-332 318,-332 318,-362"/>
<text text-anchor="start" x="211" y="-350" font-family="Helvetica,sans-Serif" font-size="10.00">std::multimap&lt; irep</text>
<text text-anchor="middle" x="260.5" y="-339" font-family="Helvetica,sans-Serif" font-size="10.00">_idt, irep_idt &gt;</text>
</a>
</g>
</g>
<!-- Node10&#45;&gt;Node6 -->
<g id="edge9_Node000006_Node000010" class="edge">
<title>Node10&#45;&gt;Node6</title>
<g id="a_edge9_Node000006_Node000010"><a xlink:title=" ">
<path fill="none" stroke="#9a32cd" stroke-dasharray="5,2" d="M260.5,-321.7C260.5,-305.7 260.5,-285.7 260.5,-274.38"/>
<polygon fill="#9a32cd" stroke="#9a32cd" points="257,-321.98 260.5,-331.98 264,-321.98 257,-321.98"/>
</a>
</g>
<text text-anchor="middle" x="313.5" y="-306" font-family="Helvetica,sans-Serif" font-size="10.00" fill="grey"> symbol_base_map</text>
<text text-anchor="middle" x="313.5" y="-295" font-family="Helvetica,sans-Serif" font-size="10.00" fill="grey">symbol_module_map</text>
</g>
<!-- Node11 -->
<g id="Node000011" class="node">
<title>Node11</title>
<g id="a_Node000011"><a xlink:href="classdstringt.html" target="_top" xlink:title="dstringt has one field, an unsigned integer no which is an index into a static table of strings.">
<polygon fill="white" stroke="#666666" points="434.5,-444.5 380.5,-444.5 380.5,-425.5 434.5,-425.5 434.5,-444.5"/>
<text text-anchor="middle" x="407.5" y="-432.5" font-family="Helvetica,sans-Serif" font-size="10.00">dstringt</text>
</a>
</g>
</g>
<!-- Node11&#45;&gt;Node1 -->
<g id="edge16_Node000001_Node000011" class="edge">
<title>Node11&#45;&gt;Node1</title>
<g id="a_edge16_Node000001_Node000011"><a xlink:title=" ">
<path fill="none" stroke="#9a32cd" stroke-dasharray="5,2" d="M415.33,-415.82C421.99,-398.66 430.5,-372.06 430.5,-348 430.5,-348 430.5,-348 430.5,-64.5 430.5,-38.5 408.29,-24.75 382.1,-17.56"/>
<polygon fill="#9a32cd" stroke="#9a32cd" points="412.05,-414.59 411.51,-425.17 418.53,-417.24 412.05,-414.59"/>
</a>
</g>
<text text-anchor="middle" x="445.5" y="-185" font-family="Helvetica,sans-Serif" font-size="10.00" fill="grey"> op_id</text>
</g>
<!-- Node11&#45;&gt;Node10 -->
<g id="edge10_Node000010_Node000011" class="edge">
<title>Node11&#45;&gt;Node10</title>
<g id="a_edge10_Node000010_Node000011"><a xlink:title=" ">
<path fill="none" stroke="#9a32cd" stroke-dasharray="5,2" d="M388.18,-419.11C381.52,-413.83 374.09,-407.77 367.5,-402 356.86,-392.68 356.46,-387.56 344.5,-380 333.15,-372.83 319.95,-366.87 307.42,-362.11"/>
<polygon fill="#9a32cd" stroke="#9a32cd" points="386.05,-421.88 396.08,-425.29 390.36,-416.37 386.05,-421.88"/>
</a>
</g>
<text text-anchor="middle" x="392" y="-394" font-family="Helvetica,sans-Serif" font-size="10.00" fill="grey"> elements</text>
<text text-anchor="middle" x="392" y="-383" font-family="Helvetica,sans-Serif" font-size="10.00" fill="grey">keys</text>
</g>
<!-- Node12&#45;&gt;Node10 -->
<g id="edge11_Node000010_Node000012" class="edge">
<title>Node12&#45;&gt;Node10</title>
<g id="a_edge11_Node000010_Node000012"><a xlink:title=" ">
<path fill="none" stroke="orange" stroke-dasharray="5,2" d="M247.75,-417.71C243.98,-413.03 240.51,-407.65 238.5,-402 235.23,-392.79 235.6,-389.34 238.5,-380 240.46,-373.69 244.14,-367.52 247.94,-362.31"/>
<polygon fill="orange" stroke="orange" points="245.3,-420.21 254.6,-425.28 250.49,-415.52 245.3,-420.21"/>
</a>
</g>
<text text-anchor="middle" x="291.5" y="-388.5" font-family="Helvetica,sans-Serif" font-size="10.00" fill="grey"> &lt; irep_idt, irep_idt &gt;</text>
</g>
<!-- Node13&#45;&gt;Node2 -->
<g id="edge14_Node000002_Node000013" class="edge">
<title>Node13&#45;&gt;Node2</title>
<g id="a_edge14_Node000002_Node000013"><a xlink:title=" ">
<path fill="none" stroke="#9a32cd" stroke-dasharray="5,2" d="M40.5,-371C40.5,-353.57 40.5,-327.05 40.5,-304 40.5,-304 40.5,-304 40.5,-120.5 40.5,-84.81 80.59,-71.85 117.87,-67.52"/>
<polygon fill="#9a32cd" stroke="#9a32cd" points="37,-371.46 40.5,-381.46 44,-371.46 37,-371.46"/>
</a>
</g>
<text text-anchor="middle" x="84.5" y="-223.5" font-family="Helvetica,sans-Serif" font-size="10.00" fill="grey"> sub_enumerators</text>
</g>
</g>
</svg>
