<?xml version="1.0" encoding="UTF-8" standalone="no"?>
<!DOCTYPE svg PUBLIC "-//W3C//DTD SVG 1.1//EN"
 "http://www.w3.org/Graphics/SVG/1.1/DTD/svg11.dtd">
<!-- Generated by graphviz version 2.43.0 (0)
 -->
<!-- Title: cover_basic_blocks_javat Pages: 1 -->
<svg width="2257pt" height="410pt"
 viewBox="0.00 0.00 2257.00 410.00" xmlns="http://www.w3.org/2000/svg" xmlns:xlink="http://www.w3.org/1999/xlink">
<g id="graph0" class="graph" transform="scale(1 1) rotate(0) translate(4 406)">
<title>cover_basic_blocks_javat</title>
<!-- Node1 -->
<g id="Node000001" class="node">
<title>Node1</title>
<g id="a_Node000001"><a xlink:title=" ">
<polygon fill="#999999" stroke="#666666" points="2249,-305 2138,-305 2138,-275 2249,-275 2249,-305"/>
<text text-anchor="start" x="2146" y="-293" font-family="Helvetica,sans-Serif" font-size="10.00">cover_basic_blocks</text>
<text text-anchor="middle" x="2193.5" y="-282" font-family="Helvetica,sans-Serif" font-size="10.00">_javat</text>
</a>
</g>
</g>
<!-- Node2 -->
<g id="Node000002" class="node">
<title>Node2</title>
<g id="a_Node000002"><a xlink:href="classcover__blocks__baset.html" target="_top" xlink:title=" ">
<polygon fill="white" stroke="#666666" points="2023,-394.5 1910,-394.5 1910,-375.5 2023,-375.5 2023,-394.5"/>
<text text-anchor="middle" x="1966.5" y="-382.5" font-family="Helvetica,sans-Serif" font-size="10.00">cover_blocks_baset</text>
</a>
</g>
</g>
<!-- Node2&#45;&gt;Node1 -->
<g id="edge1_Node000001_Node000002" class="edge">
<title>Node2&#45;&gt;Node1</title>
<g id="a_edge1_Node000001_Node000002"><a xlink:title=" ">
<path fill="none" stroke="#63b8ff" d="M2033.35,-383.47C2061.28,-380.63 2093.44,-374.34 2120,-361 2146.13,-347.87 2168.86,-321.92 2181.61,-305.29"/>
<polygon fill="#63b8ff" stroke="#63b8ff" points="2032.92,-379.99 2023.27,-384.36 2033.55,-386.96 2032.92,-379.99"/>
</a>
</g>
</g>
<!-- Node3 -->
<g id="Node000003" class="node">
<title>Node3</title>
<g id="a_Node000003"><a xlink:title=" ">
<polygon fill="white" stroke="#666666" points="610,-367 458,-367 458,-337 610,-337 610,-367"/>
<text text-anchor="start" x="466" y="-355" font-family="Helvetica,sans-Serif" font-size="10.00">std::vector&lt; goto_programt</text>
<text text-anchor="middle" x="534" y="-344" font-family="Helvetica,sans-Serif" font-size="10.00">::const_targett &gt;</text>
</a>
</g>
</g>
<!-- Node3&#45;&gt;Node1 -->
<g id="edge2_Node000001_Node000003" class="edge">
<title>Node3&#45;&gt;Node1</title>
<g id="a_edge2_Node000001_Node000003"><a xlink:title=" ">
<path fill="none" stroke="#9a32cd" stroke-dasharray="5,2" d="M620.3,-349.69C675.76,-348.38 749.66,-347 815,-347 815,-347 815,-347 1967.5,-347 2035.8,-347 2112.3,-322.01 2156.19,-305.13"/>
<polygon fill="#9a32cd" stroke="#9a32cd" points="620.07,-346.19 610.16,-349.93 620.24,-353.19 620.07,-346.19"/>
</a>
</g>
<text text-anchor="middle" x="1471.5" y="-350" font-family="Helvetica,sans-Serif" font-size="10.00" fill="grey"> block_infos</text>
</g>
<!-- Node4 -->
<g id="Node000004" class="node">
<title>Node4</title>
<g id="a_Node000004"><a xlink:title=" ">
<polygon fill="white" stroke="#666666" points="302.5,-402 189.5,-402 189.5,-372 302.5,-372 302.5,-402"/>
<text text-anchor="start" x="197.5" y="-390" font-family="Helvetica,sans-Serif" font-size="10.00">std::list&lt; T &gt;::const</text>
<text text-anchor="middle" x="246" y="-379" font-family="Helvetica,sans-Serif" font-size="10.00">_iterator</text>
</a>
</g>
</g>
<!-- Node4&#45;&gt;Node3 -->
<g id="edge3_Node000003_Node000004" class="edge">
<title>Node4&#45;&gt;Node3</title>
<g id="a_edge3_Node000003_Node000004"><a xlink:title=" ">
<path fill="none" stroke="#9a32cd" stroke-dasharray="5,2" d="M313.03,-379.89C350.33,-375.77 397.8,-370.35 440,-365 445.82,-364.26 451.85,-363.47 457.9,-362.66"/>
<polygon fill="#9a32cd" stroke="#9a32cd" points="312.34,-376.45 302.79,-381.02 313.11,-383.41 312.34,-376.45"/>
</a>
</g>
<text text-anchor="middle" x="380.5" y="-381" font-family="Helvetica,sans-Serif" font-size="10.00" fill="grey"> elements</text>
</g>
<!-- Node5 -->
<g id="Node000005" class="node">
<title>Node5</title>
<g id="a_Node000005"><a xlink:title=" ">
<polygon fill="white" stroke="#666666" points="294.5,-280.5 197.5,-280.5 197.5,-261.5 294.5,-261.5 294.5,-280.5"/>
<text text-anchor="middle" x="246" y="-268.5" font-family="Helvetica,sans-Serif" font-size="10.00">std::vector&lt; T &gt;</text>
</a>
</g>
</g>
<!-- Node5&#45;&gt;Node3 -->
<g id="edge4_Node000003_Node000005" class="edge">
<title>Node5&#45;&gt;Node3</title>
<g id="a_edge4_Node000003_Node000005"><a xlink:title=" ">
<path fill="none" stroke="orange" stroke-dasharray="5,2" d="M266.17,-287.11C280.4,-298.17 300.76,-312.21 321,-320 327.54,-322.51 399.66,-333.13 457.99,-341.46"/>
<polygon fill="orange" stroke="orange" points="268.16,-284.21 258.17,-280.69 263.78,-289.67 268.16,-284.21"/>
</a>
</g>
<text text-anchor="start" x="321" y="-352" font-family="Helvetica,sans-Serif" font-size="10.00" fill="grey"> &lt; goto_programt::const</text>
<text text-anchor="middle" x="380.5" y="-341" font-family="Helvetica,sans-Serif" font-size="10.00" fill="grey">_targett &gt;</text>
</g>
<!-- Node7 -->
<g id="Node000007" class="node">
<title>Node7</title>
<g id="a_Node000007"><a xlink:title=" ">
<polygon fill="white" stroke="#666666" points="2022.5,-305 1910.5,-305 1910.5,-275 2022.5,-275 2022.5,-305"/>
<text text-anchor="start" x="1918.5" y="-293" font-family="Helvetica,sans-Serif" font-size="10.00">std::vector&lt; source</text>
<text text-anchor="middle" x="1966.5" y="-282" font-family="Helvetica,sans-Serif" font-size="10.00">_locationt &gt;</text>
</a>
</g>
</g>
<!-- Node5&#45;&gt;Node7 -->
<g id="edge17_Node000007_Node000005" class="edge">
<title>Node5&#45;&gt;Node7</title>
<g id="a_edge17_Node000007_Node000005"><a xlink:title=" ">
<path fill="none" stroke="orange" stroke-dasharray="5,2" d="M301.27,-282.55C358.58,-293.73 451.73,-309 533,-309 533,-309 533,-309 1777.5,-309 1822.28,-309 1872.75,-303.6 1910.12,-298.56"/>
<polygon fill="orange" stroke="orange" points="301.83,-279.1 291.34,-280.59 300.47,-285.96 301.83,-279.1"/>
</a>
</g>
<text text-anchor="middle" x="1207.5" y="-312" font-family="Helvetica,sans-Serif" font-size="10.00" fill="grey"> &lt; source_locationt &gt;</text>
</g>
<!-- Node14 -->
<g id="Node000014" class="node">
<title>Node14</title>
<g id="a_Node000014"><a xlink:title=" ">
<polygon fill="white" stroke="#666666" points="591,-280.5 477,-280.5 477,-261.5 591,-261.5 591,-280.5"/>
<text text-anchor="middle" x="534" y="-268.5" font-family="Helvetica,sans-Serif" font-size="10.00">std::vector&lt; treet &gt;</text>
</a>
</g>
</g>
<!-- Node5&#45;&gt;Node14 -->
<g id="edge14_Node000014_Node000005" class="edge">
<title>Node5&#45;&gt;Node14</title>
<g id="a_edge14_Node000014_Node000005"><a xlink:title=" ">
<path fill="none" stroke="orange" stroke-dasharray="5,2" d="M304.6,-271C354.83,-271 427.24,-271 476.99,-271"/>
<polygon fill="orange" stroke="orange" points="304.55,-267.5 294.55,-271 304.55,-274.5 304.55,-267.5"/>
</a>
</g>
<text text-anchor="middle" x="380.5" y="-274" font-family="Helvetica,sans-Serif" font-size="10.00" fill="grey"> &lt; treet &gt;</text>
</g>
<!-- Node19 -->
<g id="Node000019" class="node">
<title>Node19</title>
<g id="a_Node000019"><a xlink:title=" ">
<polygon fill="white" stroke="#666666" points="1104,-130 992,-130 992,-100 1104,-100 1104,-130"/>
<text text-anchor="start" x="1000" y="-118" font-family="Helvetica,sans-Serif" font-size="10.00">std::vector&lt; source</text>
<text text-anchor="middle" x="1048" y="-107" font-family="Helvetica,sans-Serif" font-size="10.00">_linest &gt;</text>
</a>
</g>
</g>
<!-- Node5&#45;&gt;Node19 -->
<g id="edge32_Node000019_Node000005" class="edge">
<title>Node5&#45;&gt;Node19</title>
<g id="a_edge32_Node000019_Node000005"><a xlink:title=" ">
<path fill="none" stroke="orange" stroke-dasharray="5,2" d="M273.59,-256.47C312.77,-235.73 388.85,-197.93 458,-178 557.56,-149.31 865.3,-126.75 991.82,-118.45"/>
<polygon fill="orange" stroke="orange" points="271.62,-253.56 264.45,-261.36 274.92,-259.73 271.62,-253.56"/>
</a>
</g>
<text text-anchor="middle" x="673.5" y="-153" font-family="Helvetica,sans-Serif" font-size="10.00" fill="grey"> &lt; source_linest &gt;</text>
</g>
<!-- Node6 -->
<g id="Node000006" class="node">
<title>Node6</title>
<g id="a_Node000006"><a xlink:title=" ">
<polygon fill="white" stroke="#666666" points="66.5,-177.5 37.5,-177.5 37.5,-158.5 66.5,-158.5 66.5,-177.5"/>
<text text-anchor="middle" x="52" y="-165.5" font-family="Helvetica,sans-Serif" font-size="10.00">T</text>
</a>
</g>
</g>
<!-- Node6&#45;&gt;Node5 -->
<g id="edge5_Node000005_Node000006" class="edge">
<title>Node6&#45;&gt;Node5</title>
<g id="a_edge5_Node000005_Node000006"><a xlink:title=" ">
<path fill="none" stroke="#9a32cd" stroke-dasharray="5,2" d="M75.4,-180.01C113.93,-200.69 192.02,-242.58 227.16,-261.43"/>
<polygon fill="#9a32cd" stroke="#9a32cd" points="76.97,-176.89 66.5,-175.24 73.66,-183.05 76.97,-176.89"/>
</a>
</g>
<text text-anchor="middle" x="146.5" y="-232" font-family="Helvetica,sans-Serif" font-size="10.00" fill="grey"> elements</text>
</g>
<!-- Node17 -->
<g id="Node000017" class="node">
<title>Node17</title>
<g id="a_Node000017"><a xlink:title=" ">
<polygon fill="white" stroke="#666666" points="303,-149 189,-149 189,-119 303,-119 303,-149"/>
<text text-anchor="start" x="197" y="-137" font-family="Helvetica,sans-Serif" font-size="10.00">std::unordered_map</text>
<text text-anchor="middle" x="246" y="-126" font-family="Helvetica,sans-Serif" font-size="10.00">&lt; K, T &gt;</text>
</a>
</g>
</g>
<!-- Node6&#45;&gt;Node17 -->
<g id="edge22_Node000017_Node000006" class="edge">
<title>Node6&#45;&gt;Node17</title>
<g id="a_edge22_Node000017_Node000006"><a xlink:title=" ">
<path fill="none" stroke="#9a32cd" stroke-dasharray="5,2" d="M76.45,-163.85C104.19,-158.93 151.31,-150.59 188.69,-143.97"/>
<polygon fill="#9a32cd" stroke="#9a32cd" points="75.74,-160.42 66.5,-165.61 76.96,-167.31 75.74,-160.42"/>
</a>
</g>
<text text-anchor="middle" x="146.5" y="-159" font-family="Helvetica,sans-Serif" font-size="10.00" fill="grey"> elements</text>
</g>
<!-- Node24 -->
<g id="Node000024" class="node">
<title>Node24</title>
<g id="a_Node000024"><a xlink:title=" ">
<polygon fill="white" stroke="#666666" points="296.5,-88.5 195.5,-88.5 195.5,-69.5 296.5,-69.5 296.5,-88.5"/>
<text text-anchor="middle" x="246" y="-76.5" font-family="Helvetica,sans-Serif" font-size="10.00">std::map&lt; K, T &gt;</text>
</a>
</g>
</g>
<!-- Node6&#45;&gt;Node24 -->
<g id="edge30_Node000024_Node000006" class="edge">
<title>Node6&#45;&gt;Node24</title>
<g id="a_edge30_Node000024_Node000006"><a xlink:title=" ">
<path fill="none" stroke="#9a32cd" stroke-dasharray="5,2" d="M71.42,-151.35C81.27,-142.27 93.51,-130.73 104,-120 112.36,-111.45 111.53,-105.77 122,-100 144.2,-87.77 171.8,-82.33 195.23,-80.03"/>
<polygon fill="#9a32cd" stroke="#9a32cd" points="68.81,-148.99 63.79,-158.32 73.54,-154.16 68.81,-148.99"/>
</a>
</g>
<text text-anchor="middle" x="146.5" y="-103" font-family="Helvetica,sans-Serif" font-size="10.00" fill="grey"> elements</text>
</g>
<!-- Node7&#45;&gt;Node1 -->
<g id="edge6_Node000001_Node000007" class="edge">
<title>Node7&#45;&gt;Node1</title>
<g id="a_edge6_Node000001_Node000007"><a xlink:title=" ">
<path fill="none" stroke="#9a32cd" stroke-dasharray="5,2" d="M2032.63,-290C2065.91,-290 2105.95,-290 2137.64,-290"/>
<polygon fill="#9a32cd" stroke="#9a32cd" points="2032.54,-286.5 2022.54,-290 2032.54,-293.5 2032.54,-286.5"/>
</a>
</g>
<text text-anchor="middle" x="2080.5" y="-293" font-family="Helvetica,sans-Serif" font-size="10.00" fill="grey"> block_locations</text>
</g>
<!-- Node8 -->
<g id="Node000008" class="node">
<title>Node8</title>
<g id="a_Node000008"><a xlink:href="classsource__locationt.html" target="_top" xlink:title=" ">
<polygon fill="white" stroke="#666666" points="1825,-274.5 1728,-274.5 1728,-255.5 1825,-255.5 1825,-274.5"/>
<text text-anchor="middle" x="1776.5" y="-262.5" font-family="Helvetica,sans-Serif" font-size="10.00">source_locationt</text>
</a>
</g>
</g>
<!-- Node8&#45;&gt;Node7 -->
<g id="edge7_Node000007_Node000008" class="edge">
<title>Node8&#45;&gt;Node7</title>
<g id="a_edge7_Node000007_Node000008"><a xlink:title=" ">
<path fill="none" stroke="#9a32cd" stroke-dasharray="5,2" d="M1835.4,-272.7C1859.26,-275.87 1886.77,-279.53 1910.33,-282.66"/>
<polygon fill="#9a32cd" stroke="#9a32cd" points="1835.8,-269.22 1825.43,-271.37 1834.88,-276.16 1835.8,-269.22"/>
</a>
</g>
<text text-anchor="middle" x="1867.5" y="-283" font-family="Helvetica,sans-Serif" font-size="10.00" fill="grey"> elements</text>
</g>
<!-- Node9 -->
<g id="Node000009" class="node">
<title>Node9</title>
<g id="a_Node000009"><a xlink:href="classirept.html" target="_top" xlink:title="There are a large number of kinds of tree structured or tree&#45;like data in CPROVER.">
<polygon fill="white" stroke="#666666" points="1577,-272.5 1538,-272.5 1538,-253.5 1577,-253.5 1577,-272.5"/>
<text text-anchor="middle" x="1557.5" y="-260.5" font-family="Helvetica,sans-Serif" font-size="10.00">irept</text>
</a>
</g>
</g>
<!-- Node9&#45;&gt;Node8 -->
<g id="edge8_Node000008_Node000009" class="edge">
<title>Node9&#45;&gt;Node8</title>
<g id="a_edge8_Node000008_Node000009"><a xlink:title=" ">
<path fill="none" stroke="#63b8ff" d="M1587.24,-263.26C1623.09,-263.6 1684.89,-264.16 1727.86,-264.56"/>
<polygon fill="#63b8ff" stroke="#63b8ff" points="1587.03,-259.76 1577,-263.17 1586.97,-266.76 1587.03,-259.76"/>
</a>
</g>
</g>
<!-- Node10 -->
<g id="Node000010" class="node">
<title>Node10</title>
<g id="a_Node000010"><a xlink:href="classsharing__treet.html" target="_top" xlink:title=" ">
<polygon fill="white" stroke="#666666" points="1424,-279.5 1299,-279.5 1299,-238.5 1424,-238.5 1424,-279.5"/>
<text text-anchor="start" x="1307" y="-267.5" font-family="Helvetica,sans-Serif" font-size="10.00">sharing_treet&lt; irept,</text>
<text text-anchor="start" x="1307" y="-256.5" font-family="Helvetica,sans-Serif" font-size="10.00"> forward_list_as_mapt</text>
<text text-anchor="middle" x="1361.5" y="-245.5" font-family="Helvetica,sans-Serif" font-size="10.00">&lt; irep_idt, irept &gt; &gt;</text>
</a>
</g>
</g>
<!-- Node10&#45;&gt;Node9 -->
<g id="edge9_Node000009_Node000010" class="edge">
<title>Node10&#45;&gt;Node9</title>
<g id="a_edge9_Node000009_Node000010"><a xlink:title=" ">
<path fill="none" stroke="#63b8ff" d="M1434.45,-260.48C1471.55,-261.25 1513.9,-262.12 1537.69,-262.61"/>
<polygon fill="#63b8ff" stroke="#63b8ff" points="1434.22,-256.98 1424.15,-260.27 1434.08,-263.98 1434.22,-256.98"/>
</a>
</g>
</g>
<!-- Node11 -->
<g id="Node000011" class="node">
<title>Node11</title>
<g id="a_Node000011"><a xlink:href="classtree__nodet.html" target="_top" xlink:title="A node with data in a tree, it contains:">
<polygon fill="white" stroke="#666666" points="895,-249 737,-249 737,-219 895,-219 895,-249"/>
<text text-anchor="start" x="745" y="-237" font-family="Helvetica,sans-Serif" font-size="10.00">tree_nodet&lt; treet,</text>
<text text-anchor="middle" x="816" y="-226" font-family="Helvetica,sans-Serif" font-size="10.00"> named_subtreest, sharing &gt;</text>
</a>
</g>
</g>
<!-- Node11&#45;&gt;Node10 -->
<g id="edge10_Node000010_Node000011" class="edge">
<title>Node11&#45;&gt;Node10</title>
<g id="a_edge10_Node000010_Node000011"><a xlink:title=" ">
<path fill="none" stroke="#9a32cd" stroke-dasharray="5,2" d="M905.22,-244.39C907.84,-244.61 910.44,-244.81 913,-245 1050.6,-255.02 1212.52,-257.87 1298.89,-258.68"/>
<polygon fill="#9a32cd" stroke="#9a32cd" points="905.29,-240.88 895.01,-243.49 904.67,-247.86 905.29,-240.88"/>
</a>
</g>
<text text-anchor="middle" x="1048" y="-269" font-family="Helvetica,sans-Serif" font-size="10.00" fill="grey"> data</text>
<text text-anchor="middle" x="1048" y="-258" font-family="Helvetica,sans-Serif" font-size="10.00" fill="grey">empty_d</text>
</g>
<!-- Node15 -->
<g id="Node000015" class="node">
<title>Node15</title>
<g id="a_Node000015"><a xlink:href="classsharing__treet.html" target="_top" xlink:title="Base class for tree&#45;like data structures with sharing.">
<polygon fill="white" stroke="#666666" points="1116,-223 980,-223 980,-193 1116,-193 1116,-223"/>
<text text-anchor="start" x="988" y="-211" font-family="Helvetica,sans-Serif" font-size="10.00">sharing_treet&lt; derivedt,</text>
<text text-anchor="middle" x="1048" y="-200" font-family="Helvetica,sans-Serif" font-size="10.00"> named_subtreest &gt;</text>
</a>
</g>
</g>
<!-- Node11&#45;&gt;Node15 -->
<g id="edge16_Node000015_Node000011" class="edge">
<title>Node11&#45;&gt;Node15</title>
<g id="a_edge16_Node000015_Node000011"><a xlink:title=" ">
<path fill="none" stroke="#9a32cd" stroke-dasharray="5,2" d="M905.24,-223.88C907.86,-223.58 910.45,-223.29 913,-223 934.75,-220.54 958.49,-217.87 979.86,-215.48"/>
<polygon fill="#9a32cd" stroke="#9a32cd" points="904.6,-220.43 895.06,-225.04 905.4,-227.39 904.6,-220.43"/>
</a>
</g>
<text text-anchor="middle" x="937.5" y="-237" font-family="Helvetica,sans-Serif" font-size="10.00" fill="grey"> data</text>
<text text-anchor="middle" x="937.5" y="-226" font-family="Helvetica,sans-Serif" font-size="10.00" fill="grey">empty_d</text>
</g>
<!-- Node12 -->
<g id="Node000012" class="node">
<title>Node12</title>
<g id="a_Node000012"><a xlink:href="structref__count__ift.html" target="_top" xlink:title="Used in tree_nodet for activating or not reference counting.">
<polygon fill="white" stroke="#666666" points="603.5,-243.5 464.5,-243.5 464.5,-224.5 603.5,-224.5 603.5,-243.5"/>
<text text-anchor="middle" x="534" y="-231.5" font-family="Helvetica,sans-Serif" font-size="10.00">ref_count_ift&lt; enabled &gt;</text>
</a>
</g>
</g>
<!-- Node12&#45;&gt;Node11 -->
<g id="edge11_Node000011_Node000012" class="edge">
<title>Node12&#45;&gt;Node11</title>
<g id="a_edge11_Node000011_Node000012"><a xlink:title=" ">
<path fill="none" stroke="#63b8ff" d="M613.96,-234C652.38,-234 698.44,-234 736.76,-234"/>
<polygon fill="#63b8ff" stroke="#63b8ff" points="613.85,-230.5 603.85,-234 613.85,-237.5 613.85,-230.5"/>
</a>
</g>
</g>
<!-- Node13 -->
<g id="Node000013" class="node">
<title>Node13</title>
<g id="a_Node000013"><a xlink:href="classdstringt.html" target="_top" xlink:title="dstringt has one field, an unsigned integer no which is an index into a static table of strings.">
<polygon fill="white" stroke="#666666" points="561,-206.5 507,-206.5 507,-187.5 561,-187.5 561,-206.5"/>
<text text-anchor="middle" x="534" y="-194.5" font-family="Helvetica,sans-Serif" font-size="10.00">dstringt</text>
</a>
</g>
</g>
<!-- Node13&#45;&gt;Node11 -->
<g id="edge12_Node000011_Node000013" class="edge">
<title>Node13&#45;&gt;Node11</title>
<g id="a_edge12_Node000011_Node000013"><a xlink:title=" ">
<path fill="none" stroke="#9a32cd" stroke-dasharray="5,2" d="M571.58,-200.98C608.74,-205.12 667.95,-211.96 719,-219 724.85,-219.81 730.89,-220.67 736.97,-221.57"/>
<polygon fill="#9a32cd" stroke="#9a32cd" points="571.57,-197.46 561.24,-199.84 570.8,-204.42 571.57,-197.46"/>
</a>
</g>
<text text-anchor="middle" x="673.5" y="-222" font-family="Helvetica,sans-Serif" font-size="10.00" fill="grey"> data</text>
</g>
<!-- Node16 -->
<g id="Node000016" class="node">
<title>Node16</title>
<g id="a_Node000016"><a xlink:title=" ">
<polygon fill="white" stroke="#666666" points="882,-180 750,-180 750,-150 882,-150 882,-180"/>
<text text-anchor="start" x="758" y="-168" font-family="Helvetica,sans-Serif" font-size="10.00">std::unordered_map</text>
<text text-anchor="middle" x="816" y="-157" font-family="Helvetica,sans-Serif" font-size="10.00">&lt; dstringt, std::size_t &gt;</text>
</a>
</g>
</g>
<!-- Node13&#45;&gt;Node16 -->
<g id="edge19_Node000016_Node000013" class="edge">
<title>Node13&#45;&gt;Node16</title>
<g id="a_edge19_Node000016_Node000013"><a xlink:title=" ">
<path fill="none" stroke="#9a32cd" stroke-dasharray="5,2" d="M571.32,-186.81C588.39,-182.44 609.1,-177.72 628,-175 668.23,-169.21 713.75,-166.69 749.81,-165.63"/>
<polygon fill="#9a32cd" stroke="#9a32cd" points="570,-183.54 561.22,-189.47 571.78,-190.31 570,-183.54"/>
</a>
</g>
<text text-anchor="middle" x="673.5" y="-178" font-family="Helvetica,sans-Serif" font-size="10.00" fill="grey"> keys</text>
</g>
<!-- Node14&#45;&gt;Node11 -->
<g id="edge13_Node000011_Node000014" class="edge">
<title>Node14&#45;&gt;Node11</title>
<g id="a_edge13_Node000011_Node000014"><a xlink:title=" ">
<path fill="none" stroke="#9a32cd" stroke-dasharray="5,2" d="M601.47,-262.41C636.45,-257.87 680.05,-252.18 719,-247 724.84,-246.22 730.87,-245.42 736.94,-244.6"/>
<polygon fill="#9a32cd" stroke="#9a32cd" points="600.85,-258.96 591.38,-263.72 601.75,-265.9 600.85,-258.96"/>
</a>
</g>
<text text-anchor="middle" x="673.5" y="-262" font-family="Helvetica,sans-Serif" font-size="10.00" fill="grey"> sub</text>
</g>
<!-- Node15&#45;&gt;Node10 -->
<g id="edge15_Node000010_Node000015" class="edge">
<title>Node15&#45;&gt;Node10</title>
<g id="a_edge15_Node000010_Node000015"><a xlink:title=" ">
<path fill="none" stroke="orange" stroke-dasharray="5,2" d="M1126.35,-206.09C1171.98,-206.67 1230.49,-210.38 1281,-223 1294.96,-226.49 1309.51,-232.35 1322.29,-238.33"/>
<polygon fill="orange" stroke="orange" points="1126.26,-202.59 1116.23,-206.01 1126.2,-209.59 1126.26,-202.59"/>
</a>
</g>
<text text-anchor="start" x="1134" y="-237" font-family="Helvetica,sans-Serif" font-size="10.00" fill="grey"> &lt; irept, forward_list</text>
<text text-anchor="middle" x="1207.5" y="-226" font-family="Helvetica,sans-Serif" font-size="10.00" fill="grey">_as_mapt&lt; irep_idt, irept &gt; &gt;</text>
</g>
<!-- Node16&#45;&gt;Node1 -->
<g id="edge18_Node000001_Node000016" class="edge">
<title>Node16&#45;&gt;Node1</title>
<g id="a_edge18_Node000001_Node000016"><a xlink:title=" ">
<path fill="none" stroke="#9a32cd" stroke-dasharray="5,2" d="M892.67,-165C937.53,-165 995.51,-165 1047,-165 1047,-165 1047,-165 1967.5,-165 2056.87,-165 2143.93,-241.29 2177.74,-274.67"/>
<polygon fill="#9a32cd" stroke="#9a32cd" points="892.43,-161.5 882.43,-165 892.43,-168.5 892.43,-161.5"/>
</a>
</g>
<text text-anchor="middle" x="1557.5" y="-168" font-family="Helvetica,sans-Serif" font-size="10.00" fill="grey"> index_to_block</text>
</g>
<!-- Node17&#45;&gt;Node16 -->
<g id="edge20_Node000016_Node000017" class="edge">
<title>Node17&#45;&gt;Node16</title>
<g id="a_edge20_Node000016_Node000017"><a xlink:title=" ">
<path fill="none" stroke="orange" stroke-dasharray="5,2" d="M313.29,-137.62C422.99,-143.6 640.97,-155.5 749.89,-161.45"/>
<polygon fill="orange" stroke="orange" points="313.19,-134.11 303.02,-137.06 312.81,-141.1 313.19,-134.11"/>
</a>
</g>
<text text-anchor="middle" x="534" y="-157" font-family="Helvetica,sans-Serif" font-size="10.00" fill="grey"> &lt; dstringt, std::size_t &gt;</text>
</g>
<!-- Node18 -->
<g id="Node000018" class="node">
<title>Node18</title>
<g id="a_Node000018"><a xlink:title=" ">
<polygon fill="white" stroke="#666666" points="66.5,-111.5 37.5,-111.5 37.5,-92.5 66.5,-92.5 66.5,-111.5"/>
<text text-anchor="middle" x="52" y="-99.5" font-family="Helvetica,sans-Serif" font-size="10.00">K</text>
</a>
</g>
</g>
<!-- Node18&#45;&gt;Node17 -->
<g id="edge21_Node000017_Node000018" class="edge">
<title>Node18&#45;&gt;Node17</title>
<g id="a_edge21_Node000017_Node000018"><a xlink:title=" ">
<path fill="none" stroke="#9a32cd" stroke-dasharray="5,2" d="M76.45,-105.91C104.19,-110.53 151.31,-118.39 188.69,-124.62"/>
<polygon fill="#9a32cd" stroke="#9a32cd" points="76.94,-102.44 66.5,-104.25 75.79,-109.35 76.94,-102.44"/>
</a>
</g>
<text text-anchor="middle" x="146.5" y="-124" font-family="Helvetica,sans-Serif" font-size="10.00" fill="grey"> keys</text>
</g>
<!-- Node18&#45;&gt;Node24 -->
<g id="edge29_Node000024_Node000018" class="edge">
<title>Node18&#45;&gt;Node24</title>
<g id="a_edge29_Node000024_Node000018"><a xlink:title=" ">
<path fill="none" stroke="#9a32cd" stroke-dasharray="5,2" d="M75.22,-87.34C88.26,-79.63 105.39,-70.97 122,-67 151.11,-60.04 185.02,-64.23 209.85,-69.48"/>
<polygon fill="#9a32cd" stroke="#9a32cd" points="73.19,-84.48 66.52,-92.71 76.87,-90.44 73.19,-84.48"/>
</a>
</g>
<text text-anchor="middle" x="146.5" y="-70" font-family="Helvetica,sans-Serif" font-size="10.00" fill="grey"> keys</text>
</g>
<!-- Node19&#45;&gt;Node1 -->
<g id="edge23_Node000001_Node000019" class="edge">
<title>Node19&#45;&gt;Node1</title>
<g id="a_edge23_Node000001_Node000019"><a xlink:title=" ">
<path fill="none" stroke="#9a32cd" stroke-dasharray="5,2" d="M1114.33,-115.66C1177.36,-116.25 1275.46,-117 1360.5,-117 1360.5,-117 1360.5,-117 1967.5,-117 2036.94,-117 2064.92,-108.72 2120,-151 2161.67,-182.99 2181.72,-245.75 2189.06,-274.7"/>
<polygon fill="#9a32cd" stroke="#9a32cd" points="1114.18,-112.16 1104.14,-115.57 1114.11,-119.16 1114.18,-112.16"/>
</a>
</g>
<text text-anchor="middle" x="1662" y="-120" font-family="Helvetica,sans-Serif" font-size="10.00" fill="grey"> block_source_lines</text>
</g>
<!-- Node20 -->
<g id="Node000020" class="node">
<title>Node20</title>
<g id="a_Node000020"><a xlink:href="classsource__linest.html" target="_top" xlink:title=" ">
<polygon fill="white" stroke="#666666" points="856.5,-74.5 775.5,-74.5 775.5,-55.5 856.5,-55.5 856.5,-74.5"/>
<text text-anchor="middle" x="816" y="-62.5" font-family="Helvetica,sans-Serif" font-size="10.00">source_linest</text>
</a>
</g>
</g>
<!-- Node20&#45;&gt;Node19 -->
<g id="edge24_Node000019_Node000020" class="edge">
<title>Node20&#45;&gt;Node19</title>
<g id="a_edge24_Node000019_Node000020"><a xlink:title=" ">
<path fill="none" stroke="#9a32cd" stroke-dasharray="5,2" d="M866.63,-72.11C894.77,-76.5 930.53,-82.69 962,-90 974.14,-92.82 987.1,-96.36 999.16,-99.88"/>
<polygon fill="#9a32cd" stroke="#9a32cd" points="867.05,-68.63 856.63,-70.57 865.99,-75.55 867.05,-68.63"/>
</a>
</g>
<text text-anchor="middle" x="937.5" y="-93" font-family="Helvetica,sans-Serif" font-size="10.00" fill="grey"> elements</text>
</g>
<!-- Node21 -->
<g id="Node000021" class="node">
<title>Node21</title>
<g id="a_Node000021"><a xlink:title=" ">
<polygon fill="white" stroke="#666666" points="595,-74 473,-74 473,-44 595,-44 595,-74"/>
<text text-anchor="start" x="481" y="-62" font-family="Helvetica,sans-Serif" font-size="10.00">std::map&lt; std::string,</text>
<text text-anchor="middle" x="534" y="-51" font-family="Helvetica,sans-Serif" font-size="10.00"> function_linest &gt;</text>
</a>
</g>
</g>
<!-- Node21&#45;&gt;Node20 -->
<g id="edge25_Node000020_Node000021" class="edge">
<title>Node21&#45;&gt;Node20</title>
<g id="a_edge25_Node000020_Node000021"><a xlink:title=" ">
<path fill="none" stroke="#9a32cd" stroke-dasharray="5,2" d="M605.22,-60.5C658.96,-61.66 731.14,-63.2 775.3,-64.15"/>
<polygon fill="#9a32cd" stroke="#9a32cd" points="605.14,-57 595.07,-60.29 604.99,-64 605.14,-57"/>
</a>
</g>
<text text-anchor="middle" x="673.5" y="-66" font-family="Helvetica,sans-Serif" font-size="10.00" fill="grey"> block_lines</text>
</g>
<!-- Node22 -->
<g id="Node000022" class="node">
<title>Node22</title>
<g id="a_Node000022"><a xlink:title=" ">
<polygon fill="white" stroke="#666666" points="278.5,-24.5 213.5,-24.5 213.5,-5.5 278.5,-5.5 278.5,-24.5"/>
<text text-anchor="middle" x="246" y="-12.5" font-family="Helvetica,sans-Serif" font-size="10.00">std::string</text>
</a>
</g>
</g>
<!-- Node22&#45;&gt;Node21 -->
<g id="edge26_Node000021_Node000022" class="edge">
<title>Node22&#45;&gt;Node21</title>
<g id="a_edge26_Node000021_Node000022"><a xlink:title=" ">
<path fill="none" stroke="#9a32cd" stroke-dasharray="5,2" d="M288.82,-13.6C328.22,-13.12 388.7,-14.54 440,-25 460.21,-29.12 481.91,-36.85 499.26,-43.9"/>
<polygon fill="#9a32cd" stroke="#9a32cd" points="288.73,-10.1 278.79,-13.77 288.84,-17.1 288.73,-10.1"/>
</a>
</g>
<text text-anchor="middle" x="380.5" y="-28" font-family="Helvetica,sans-Serif" font-size="10.00" fill="grey"> keys</text>
</g>
<!-- Node23 -->
<g id="Node000023" class="node">
<title>Node23</title>
<g id="a_Node000023"><a xlink:title=" ">
<polygon fill="white" stroke="#666666" points="104,-30 0,-30 0,0 104,0 104,-30"/>
<text text-anchor="start" x="8" y="-18" font-family="Helvetica,sans-Serif" font-size="10.00">std::basic_string&lt;</text>
<text text-anchor="middle" x="52" y="-7" font-family="Helvetica,sans-Serif" font-size="10.00"> Char &gt;</text>
</a>
</g>
</g>
<!-- Node23&#45;&gt;Node22 -->
<g id="edge27_Node000022_Node000023" class="edge">
<title>Node23&#45;&gt;Node22</title>
<g id="a_edge27_Node000022_Node000023"><a xlink:title=" ">
<path fill="none" stroke="#63b8ff" d="M114.23,-15C147.25,-15 186.63,-15 213.48,-15"/>
<polygon fill="#63b8ff" stroke="#63b8ff" points="114.2,-11.5 104.2,-15 114.2,-18.5 114.2,-11.5"/>
</a>
</g>
</g>
<!-- Node24&#45;&gt;Node21 -->
<g id="edge28_Node000021_Node000024" class="edge">
<title>Node24&#45;&gt;Node21</title>
<g id="a_edge28_Node000021_Node000024"><a xlink:title=" ">
<path fill="none" stroke="#9a32cd" stroke-dasharray="5,2" d="M307.09,-78.41C345.22,-77.64 395.58,-75.9 440,-72 450.56,-71.07 461.75,-69.78 472.57,-68.36"/>
<polygon fill="#9a32cd" stroke="#9a32cd" points="306.6,-74.91 296.67,-78.6 306.73,-81.91 306.6,-74.91"/>
</a>
</g>
<text text-anchor="middle" x="380.5" y="-81" font-family="Helvetica,sans-Serif" font-size="10.00" fill="grey"> elements</text>
</g>
<!-- Node24&#45;&gt;Node21 -->
<g id="edge31_Node000021_Node000024" class="edge">
<title>Node24&#45;&gt;Node21</title>
<g id="a_edge31_Node000021_Node000024"><a xlink:title=" ">
<path fill="none" stroke="orange" stroke-dasharray="5,2" d="M272.02,-64.68C285.95,-57.53 303.9,-49.64 321,-46 371.49,-35.25 430.16,-40.15 472.96,-46.79"/>
<polygon fill="orange" stroke="orange" points="270.25,-61.65 263.07,-69.45 273.55,-67.83 270.25,-61.65"/>
</a>
</g>
<text text-anchor="start" x="326" y="-60" font-family="Helvetica,sans-Serif" font-size="10.00" fill="grey"> &lt; std::string, function</text>
<text text-anchor="middle" x="380.5" y="-49" font-family="Helvetica,sans-Serif" font-size="10.00" fill="grey">_linest &gt;</text>
</g>
</g>
</svg>
