<?xml version="1.0" encoding="UTF-8" standalone="no"?>
<!DOCTYPE svg PUBLIC "-//W3C//DTD SVG 1.1//EN"
 "http://www.w3.org/Graphics/SVG/1.1/DTD/svg11.dtd">
<!-- Generated by graphviz version 2.43.0 (0)
 -->
<!-- Title: mz_zip_archive_statet Pages: 1 -->
<svg width="187pt" height="248pt"
 viewBox="0.00 0.00 186.50 248.00" xmlns="http://www.w3.org/2000/svg" xmlns:xlink="http://www.w3.org/1999/xlink">
<g id="graph0" class="graph" transform="scale(1 1) rotate(0) translate(4 244)">
<title>mz_zip_archive_statet</title>
<!-- Node1 -->
<g id="Node000001" class="node">
<title>Node1</title>
<g id="a_Node000001"><a xlink:title=" ">
<polygon fill="#999999" stroke="#666666" points="135.5,-19 9.5,-19 9.5,0 135.5,0 135.5,-19"/>
<text text-anchor="middle" x="72.5" y="-7" font-family="Helvetica,sans-Serif" font-size="10.00">mz_zip_archive_statet</text>
</a>
</g>
</g>
<!-- Node2 -->
<g id="Node000002" class="node">
<title>Node2</title>
<g id="a_Node000002"><a xlink:href="structmz__zip__archive.html" target="_top" xlink:title=" ">
<polygon fill="white" stroke="#666666" points="118.5,-75 26.5,-75 26.5,-56 118.5,-56 118.5,-75"/>
<text text-anchor="middle" x="72.5" y="-63" font-family="Helvetica,sans-Serif" font-size="10.00">mz_zip_archive</text>
</a>
</g>
</g>
<!-- Node2&#45;&gt;Node1 -->
<g id="edge1_Node000001_Node000002" class="edge">
<title>Node2&#45;&gt;Node1</title>
<g id="a_edge1_Node000001_Node000002"><a xlink:title=" ">
<path fill="none" stroke="#63b8ff" d="M72.5,-45.3C72.5,-36.41 72.5,-26.28 72.5,-19.25"/>
<polygon fill="#63b8ff" stroke="#63b8ff" points="69,-45.58 72.5,-55.58 76,-45.58 69,-45.58"/>
</a>
</g>
</g>
<!-- Node3 -->
<g id="Node000003" class="node">
<title>Node3</title>
<g id="a_Node000003"><a xlink:href="structmz__zip__internal__state__tag.html" target="_top" xlink:title=" ">
<polygon fill="white" stroke="#666666" points="145,-141 0,-141 0,-122 145,-122 145,-141"/>
<text text-anchor="middle" x="72.5" y="-129" font-family="Helvetica,sans-Serif" font-size="10.00">mz_zip_internal_state_tag</text>
</a>
</g>
</g>
<!-- Node3&#45;&gt;Node2 -->
<g id="edge2_Node000002_Node000003" class="edge">
<title>Node3&#45;&gt;Node2</title>
<g id="a_edge2_Node000002_Node000003"><a xlink:title=" ">
<path fill="none" stroke="#9a32cd" stroke-dasharray="5,2" d="M72.5,-111.58C72.5,-99.63 72.5,-84.72 72.5,-75.41"/>
<polygon fill="#9a32cd" stroke="#9a32cd" points="69,-111.87 72.5,-121.87 76,-111.87 69,-111.87"/>
</a>
</g>
<text text-anchor="middle" x="97.5" y="-96" font-family="Helvetica,sans-Serif" font-size="10.00" fill="grey"> m_pState</text>
</g>
<!-- Node4 -->
<g id="Node000004" class="node">
<title>Node4</title>
<g id="a_Node000004"><a xlink:href="structmz__zip__array.html" target="_top" xlink:title=" ">
<polygon fill="white" stroke="#666666" points="113.5,-240 31.5,-240 31.5,-221 113.5,-221 113.5,-240"/>
<text text-anchor="middle" x="72.5" y="-228" font-family="Helvetica,sans-Serif" font-size="10.00">mz_zip_array</text>
</a>
</g>
</g>
<!-- Node4&#45;&gt;Node3 -->
<g id="edge3_Node000003_Node000004" class="edge">
<title>Node4&#45;&gt;Node3</title>
<g id="a_edge3_Node000003_Node000004"><a xlink:title=" ">
<path fill="none" stroke="#9a32cd" stroke-dasharray="5,2" d="M72.5,-210.68C72.5,-189.74 72.5,-156.81 72.5,-141.23"/>
<polygon fill="#9a32cd" stroke="#9a32cd" points="69,-210.89 72.5,-220.89 76,-210.89 69,-210.89"/>
</a>
</g>
<text text-anchor="middle" x="125.5" y="-195" font-family="Helvetica,sans-Serif" font-size="10.00" fill="grey"> m_central_dir</text>
<text text-anchor="middle" x="125.5" y="-184" font-family="Helvetica,sans-Serif" font-size="10.00" fill="grey">m_central_dir_offsets</text>
<text text-anchor="start" x="72.5" y="-173" font-family="Helvetica,sans-Serif" font-size="10.00" fill="grey">m_sorted_central_dir</text>
<text text-anchor="middle" x="125.5" y="-162" font-family="Helvetica,sans-Serif" font-size="10.00" fill="grey">_offsets</text>
</g>
</g>
</svg>
