<?xml version="1.0" encoding="UTF-8" standalone="no"?>
<!DOCTYPE svg PUBLIC "-//W3C//DTD SVG 1.1//EN"
 "http://www.w3.org/Graphics/SVG/1.1/DTD/svg11.dtd">
<!-- Generated by graphviz version 2.43.0 (0)
 -->
<!-- Title: ui_message_handlert Pages: 1 -->
<svg width="1817pt" height="476pt"
 viewBox="0.00 0.00 1817.00 476.00" xmlns="http://www.w3.org/2000/svg" xmlns:xlink="http://www.w3.org/1999/xlink">
<g id="graph0" class="graph" transform="scale(1 1) rotate(0) translate(4 472)">
<title>ui_message_handlert</title>
<!-- Node1 -->
<g id="Node000001" class="node">
<title>Node1</title>
<g id="a_Node000001"><a xlink:title=" ">
<polygon fill="#999999" stroke="#666666" points="1809,-269.5 1688,-269.5 1688,-250.5 1809,-250.5 1809,-269.5"/>
<text text-anchor="middle" x="1748.5" y="-257.5" font-family="Helvetica,sans-Serif" font-size="10.00">ui_message_handlert</text>
</a>
</g>
</g>
<!-- Node2 -->
<g id="Node000002" class="node">
<title>Node2</title>
<g id="a_Node000002"><a xlink:href="classmessage__handlert.html" target="_top" xlink:title=" ">
<polygon fill="white" stroke="#666666" points="995,-173.5 888,-173.5 888,-154.5 995,-154.5 995,-173.5"/>
<text text-anchor="middle" x="941.5" y="-161.5" font-family="Helvetica,sans-Serif" font-size="10.00">message_handlert</text>
</a>
</g>
</g>
<!-- Node2&#45;&gt;Node1 -->
<g id="edge1_Node000001_Node000002" class="edge">
<title>Node2&#45;&gt;Node1</title>
<g id="a_edge1_Node000001_Node000002"><a xlink:title=" ">
<path fill="none" stroke="#63b8ff" d="M1005.32,-155.1C1160.23,-134.37 1556.16,-89.06 1670,-150 1711.6,-172.27 1735.8,-227.88 1744.16,-250.35"/>
<polygon fill="#63b8ff" stroke="#63b8ff" points="1004.47,-151.69 995.03,-156.49 1005.41,-158.62 1004.47,-151.69"/>
</a>
</g>
</g>
<!-- Node2&#45;&gt;Node1 -->
<g id="edge10_Node000001_Node000002" class="edge">
<title>Node2&#45;&gt;Node1</title>
<g id="a_edge10_Node000001_Node000002"><a xlink:title=" ">
<path fill="none" stroke="#9a32cd" stroke-dasharray="5,2" d="M1005.74,-163.98C1133.24,-165.26 1429.51,-174.86 1670,-233 1688.42,-237.45 1708.62,-244.57 1723.78,-250.37"/>
<polygon fill="#9a32cd" stroke="#9a32cd" points="1005.42,-160.48 995.39,-163.89 1005.36,-167.48 1005.42,-160.48"/>
</a>
</g>
<text text-anchor="middle" x="1318" y="-185" font-family="Helvetica,sans-Serif" font-size="10.00" fill="grey"> message_handler</text>
</g>
<!-- Node7 -->
<g id="Node000007" class="node">
<title>Node7</title>
<g id="a_Node000007"><a xlink:href="classconsole__message__handlert.html" target="_top" xlink:title=" ">
<polygon fill="white" stroke="#666666" points="1255,-211.5 1106,-211.5 1106,-192.5 1255,-192.5 1255,-211.5"/>
<text text-anchor="middle" x="1180.5" y="-199.5" font-family="Helvetica,sans-Serif" font-size="10.00">console_message_handlert</text>
</a>
</g>
</g>
<!-- Node2&#45;&gt;Node7 -->
<g id="edge7_Node000007_Node000002" class="edge">
<title>Node2&#45;&gt;Node7</title>
<g id="a_edge7_Node000007_Node000002"><a xlink:title=" ">
<path fill="none" stroke="#63b8ff" d="M1005.35,-174.08C1040.86,-179.77 1085,-186.85 1119.96,-192.45"/>
<polygon fill="#63b8ff" stroke="#63b8ff" points="1005.53,-170.56 995.1,-172.43 1004.42,-177.47 1005.53,-170.56"/>
</a>
</g>
</g>
<!-- Node3 -->
<g id="Node000003" class="node">
<title>Node3</title>
<g id="a_Node000003"><a xlink:title=" ">
<polygon fill="white" stroke="#666666" points="746,-173.5 606,-173.5 606,-154.5 746,-154.5 746,-173.5"/>
<text text-anchor="middle" x="676" y="-161.5" font-family="Helvetica,sans-Serif" font-size="10.00">std::vector&lt; std::size_t &gt;</text>
</a>
</g>
</g>
<!-- Node3&#45;&gt;Node2 -->
<g id="edge2_Node000002_Node000003" class="edge">
<title>Node3&#45;&gt;Node2</title>
<g id="a_edge2_Node000002_Node000003"><a xlink:title=" ">
<path fill="none" stroke="#9a32cd" stroke-dasharray="5,2" d="M756.3,-164C798.93,-164 850.31,-164 887.96,-164"/>
<polygon fill="#9a32cd" stroke="#9a32cd" points="756.23,-160.5 746.23,-164 756.23,-167.5 756.23,-160.5"/>
</a>
</g>
<text text-anchor="middle" x="804" y="-167" font-family="Helvetica,sans-Serif" font-size="10.00" fill="grey"> message_count</text>
</g>
<!-- Node4 -->
<g id="Node000004" class="node">
<title>Node4</title>
<g id="a_Node000004"><a xlink:title=" ">
<polygon fill="white" stroke="#666666" points="437.5,-169.5 340.5,-169.5 340.5,-150.5 437.5,-150.5 437.5,-169.5"/>
<text text-anchor="middle" x="389" y="-157.5" font-family="Helvetica,sans-Serif" font-size="10.00">std::vector&lt; T &gt;</text>
</a>
</g>
</g>
<!-- Node4&#45;&gt;Node3 -->
<g id="edge3_Node000003_Node000004" class="edge">
<title>Node4&#45;&gt;Node3</title>
<g id="a_edge3_Node000003_Node000004"><a xlink:title=" ">
<path fill="none" stroke="orange" stroke-dasharray="5,2" d="M447.74,-160.81C493.42,-161.45 557.34,-162.35 605.77,-163.03"/>
<polygon fill="orange" stroke="orange" points="447.75,-157.31 437.7,-160.67 447.65,-164.31 447.75,-157.31"/>
</a>
</g>
<text text-anchor="middle" x="527" y="-165" font-family="Helvetica,sans-Serif" font-size="10.00" fill="grey"> &lt; std::size_t &gt;</text>
</g>
<!-- Node22 -->
<g id="Node000022" class="node">
<title>Node22</title>
<g id="a_Node000022"><a xlink:title=" ">
<polygon fill="white" stroke="#666666" points="1238,-91.5 1123,-91.5 1123,-72.5 1238,-72.5 1238,-91.5"/>
<text text-anchor="middle" x="1180.5" y="-79.5" font-family="Helvetica,sans-Serif" font-size="10.00">std::vector&lt; jsont &gt;</text>
</a>
</g>
</g>
<!-- Node4&#45;&gt;Node22 -->
<g id="edge30_Node000022_Node000004" class="edge">
<title>Node4&#45;&gt;Node22</title>
<g id="a_edge30_Node000022_Node000004"><a xlink:title=" ">
<path fill="none" stroke="orange" stroke-dasharray="5,2" d="M447.73,-154.3C594.03,-139.84 978.02,-101.91 1123,-87.58"/>
<polygon fill="orange" stroke="orange" points="447.22,-150.83 437.61,-155.3 447.9,-157.8 447.22,-150.83"/>
</a>
</g>
<text text-anchor="middle" x="804" y="-125" font-family="Helvetica,sans-Serif" font-size="10.00" fill="grey"> &lt; jsont &gt;</text>
</g>
<!-- Node5 -->
<g id="Node000005" class="node">
<title>Node5</title>
<g id="a_Node000005"><a xlink:title=" ">
<polygon fill="white" stroke="#666666" points="195.5,-169.5 166.5,-169.5 166.5,-150.5 195.5,-150.5 195.5,-169.5"/>
<text text-anchor="middle" x="181" y="-157.5" font-family="Helvetica,sans-Serif" font-size="10.00">T</text>
</a>
</g>
</g>
<!-- Node5&#45;&gt;Node4 -->
<g id="edge4_Node000004_Node000005" class="edge">
<title>Node5&#45;&gt;Node4</title>
<g id="a_edge4_Node000004_Node000005"><a xlink:title=" ">
<path fill="none" stroke="#9a32cd" stroke-dasharray="5,2" d="M205.93,-160C238.75,-160 298.43,-160 340.5,-160"/>
<polygon fill="#9a32cd" stroke="#9a32cd" points="205.52,-156.5 195.52,-160 205.52,-163.5 205.52,-156.5"/>
</a>
</g>
<text text-anchor="middle" x="287.5" y="-163" font-family="Helvetica,sans-Serif" font-size="10.00" fill="grey"> elements</text>
</g>
<!-- Node8 -->
<g id="Node000008" class="node">
<title>Node8</title>
<g id="a_Node000008"><a xlink:title=" ">
<polygon fill="white" stroke="#666666" points="448,-292.5 330,-292.5 330,-273.5 448,-273.5 448,-292.5"/>
<text text-anchor="middle" x="389" y="-280.5" font-family="Helvetica,sans-Serif" font-size="10.00">std::unique_ptr&lt; T &gt;</text>
</a>
</g>
</g>
<!-- Node5&#45;&gt;Node8 -->
<g id="edge9_Node000008_Node000005" class="edge">
<title>Node5&#45;&gt;Node8</title>
<g id="a_edge9_Node000008_Node000005"><a xlink:title=" ">
<path fill="none" stroke="#9a32cd" stroke-dasharray="5,2" d="M204.13,-173.21C245.87,-198.14 335.35,-251.56 371.92,-273.4"/>
<polygon fill="#9a32cd" stroke="#9a32cd" points="205.9,-170.19 195.52,-168.07 202.31,-176.2 205.9,-170.19"/>
</a>
</g>
<text text-anchor="middle" x="287.5" y="-239" font-family="Helvetica,sans-Serif" font-size="10.00" fill="grey"> ptr</text>
</g>
<!-- Node23 -->
<g id="Node000023" class="node">
<title>Node23</title>
<g id="a_Node000023"><a xlink:title=" ">
<polygon fill="white" stroke="#666666" points="439.5,-101.5 338.5,-101.5 338.5,-82.5 439.5,-82.5 439.5,-101.5"/>
<text text-anchor="middle" x="389" y="-89.5" font-family="Helvetica,sans-Serif" font-size="10.00">std::map&lt; K, T &gt;</text>
</a>
</g>
</g>
<!-- Node5&#45;&gt;Node23 -->
<g id="edge34_Node000023_Node000005" class="edge">
<title>Node5&#45;&gt;Node23</title>
<g id="a_edge34_Node000023_Node000005"><a xlink:title=" ">
<path fill="none" stroke="#9a32cd" stroke-dasharray="5,2" d="M205.13,-152.36C242.93,-139.89 317.82,-115.17 359.07,-101.55"/>
<polygon fill="#9a32cd" stroke="#9a32cd" points="203.92,-149.08 195.52,-155.54 206.11,-155.73 203.92,-149.08"/>
</a>
</g>
<text text-anchor="middle" x="287.5" y="-135" font-family="Helvetica,sans-Serif" font-size="10.00" fill="grey"> elements</text>
</g>
<!-- Node6 -->
<g id="Node000006" class="node">
<title>Node6</title>
<g id="a_Node000006"><a xlink:title=" ">
<polygon fill="white" stroke="#666666" points="1519,-252 1381,-252 1381,-222 1519,-222 1519,-252"/>
<text text-anchor="start" x="1389" y="-240" font-family="Helvetica,sans-Serif" font-size="10.00">std::unique_ptr&lt; console</text>
<text text-anchor="middle" x="1450" y="-229" font-family="Helvetica,sans-Serif" font-size="10.00">_message_handlert &gt;</text>
</a>
</g>
</g>
<!-- Node6&#45;&gt;Node1 -->
<g id="edge5_Node000001_Node000006" class="edge">
<title>Node6&#45;&gt;Node1</title>
<g id="a_edge5_Node000001_Node000006"><a xlink:title=" ">
<path fill="none" stroke="#9a32cd" stroke-dasharray="5,2" d="M1529.4,-236.93C1571.25,-237.63 1623.56,-239.69 1670,-245 1681.3,-246.29 1693.42,-248.32 1704.64,-250.48"/>
<polygon fill="#9a32cd" stroke="#9a32cd" points="1529.32,-233.43 1519.27,-236.78 1529.22,-240.43 1529.32,-233.43"/>
</a>
</g>
<text text-anchor="middle" x="1603.5" y="-248" font-family="Helvetica,sans-Serif" font-size="10.00" fill="grey"> console_message_handler</text>
</g>
<!-- Node7&#45;&gt;Node6 -->
<g id="edge6_Node000006_Node000007" class="edge">
<title>Node7&#45;&gt;Node6</title>
<g id="a_edge6_Node000006_Node000007"><a xlink:title=" ">
<path fill="none" stroke="#9a32cd" stroke-dasharray="5,2" d="M1265.42,-204.87C1296.25,-206.75 1331.34,-209.86 1363,-215 1373.95,-216.78 1385.55,-219.3 1396.56,-222"/>
<polygon fill="#9a32cd" stroke="#9a32cd" points="1265.33,-201.36 1255.14,-204.28 1264.93,-208.35 1265.33,-201.36"/>
</a>
</g>
<text text-anchor="middle" x="1318" y="-218" font-family="Helvetica,sans-Serif" font-size="10.00" fill="grey"> ptr</text>
</g>
<!-- Node8&#45;&gt;Node6 -->
<g id="edge8_Node000006_Node000008" class="edge">
<title>Node8&#45;&gt;Node6</title>
<g id="a_edge8_Node000006_Node000008"><a xlink:title=" ">
<path fill="none" stroke="orange" stroke-dasharray="5,2" d="M458.34,-272.31C533.15,-261.19 656.76,-244.51 764,-238 989.54,-224.31 1257.62,-230.39 1380.86,-234.44"/>
<polygon fill="orange" stroke="orange" points="457.48,-268.9 448.11,-273.85 458.52,-275.83 457.48,-268.9"/>
</a>
</g>
<text text-anchor="middle" x="941.5" y="-236" font-family="Helvetica,sans-Serif" font-size="10.00" fill="grey"> &lt; console_message_handlert &gt;</text>
</g>
<!-- Node9 -->
<g id="Node000009" class="node">
<title>Node9</title>
<g id="a_Node000009"><a xlink:title=" ">
<polygon fill="white" stroke="#666666" points="739.5,-461 612.5,-461 612.5,-431 739.5,-431 739.5,-461"/>
<text text-anchor="start" x="620.5" y="-449" font-family="Helvetica,sans-Serif" font-size="10.00">std::unique_ptr&lt; const</text>
<text text-anchor="middle" x="676" y="-438" font-family="Helvetica,sans-Serif" font-size="10.00"> timestampert &gt;</text>
</a>
</g>
</g>
<!-- Node8&#45;&gt;Node9 -->
<g id="edge13_Node000009_Node000008" class="edge">
<title>Node8&#45;&gt;Node9</title>
<g id="a_edge13_Node000009_Node000008"><a xlink:title=" ">
<path fill="none" stroke="orange" stroke-dasharray="5,2" d="M414.23,-297.95C429.09,-307.05 448.56,-318.85 466,-329 530.5,-366.56 607.3,-408.97 647.44,-430.96"/>
<polygon fill="orange" stroke="orange" points="415.98,-294.92 405.63,-292.67 412.32,-300.89 415.98,-294.92"/>
</a>
</g>
<text text-anchor="middle" x="527" y="-399" font-family="Helvetica,sans-Serif" font-size="10.00" fill="grey"> &lt; const timestampert &gt;</text>
</g>
<!-- Node15 -->
<g id="Node000015" class="node">
<title>Node15</title>
<g id="a_Node000015"><a xlink:title=" ">
<polygon fill="white" stroke="#666666" points="1510.5,-300 1389.5,-300 1389.5,-270 1510.5,-270 1510.5,-300"/>
<text text-anchor="start" x="1397.5" y="-288" font-family="Helvetica,sans-Serif" font-size="10.00">std::unique_ptr&lt; json</text>
<text text-anchor="middle" x="1450" y="-277" font-family="Helvetica,sans-Serif" font-size="10.00">_stream_arrayt &gt;</text>
</a>
</g>
</g>
<!-- Node8&#45;&gt;Node15 -->
<g id="edge38_Node000015_Node000008" class="edge">
<title>Node8&#45;&gt;Node15</title>
<g id="a_edge38_Node000015_Node000008"><a xlink:title=" ">
<path fill="none" stroke="orange" stroke-dasharray="5,2" d="M458.23,-283C515.96,-283 600.9,-283 675,-283 675,-283 675,-283 1181.5,-283 1252.9,-283 1335.03,-283.72 1389.24,-284.3"/>
<polygon fill="orange" stroke="orange" points="458.13,-279.5 448.13,-283 458.13,-286.5 458.13,-279.5"/>
</a>
</g>
<text text-anchor="middle" x="941.5" y="-286" font-family="Helvetica,sans-Serif" font-size="10.00" fill="grey"> &lt; json_stream_arrayt &gt;</text>
</g>
<!-- Node25 -->
<g id="Node000025" class="node">
<title>Node25</title>
<g id="a_Node000025"><a xlink:title=" ">
<polygon fill="white" stroke="#666666" points="736.5,-341 615.5,-341 615.5,-311 736.5,-311 736.5,-341"/>
<text text-anchor="start" x="623.5" y="-329" font-family="Helvetica,sans-Serif" font-size="10.00">std::unique_ptr&lt; json</text>
<text text-anchor="middle" x="676" y="-318" font-family="Helvetica,sans-Serif" font-size="10.00">_streamt &gt;</text>
</a>
</g>
</g>
<!-- Node8&#45;&gt;Node25 -->
<g id="edge37_Node000025_Node000008" class="edge">
<title>Node8&#45;&gt;Node25</title>
<g id="a_edge37_Node000025_Node000008"><a xlink:title=" ">
<path fill="none" stroke="orange" stroke-dasharray="5,2" d="M449.7,-294.26C455.2,-295.22 460.7,-296.14 466,-297 516.27,-305.11 573.56,-312.97 615.44,-318.45"/>
<polygon fill="orange" stroke="orange" points="450.28,-290.8 439.82,-292.5 449.06,-297.7 450.28,-290.8"/>
</a>
</g>
<text text-anchor="middle" x="527" y="-317" font-family="Helvetica,sans-Serif" font-size="10.00" fill="grey"> &lt; json_streamt &gt;</text>
</g>
<!-- Node9&#45;&gt;Node1 -->
<g id="edge11_Node000001_Node000009" class="edge">
<title>Node9&#45;&gt;Node1</title>
<g id="a_edge11_Node000001_Node000009"><a xlink:title=" ">
<path fill="none" stroke="#9a32cd" stroke-dasharray="5,2" d="M749.82,-450.67C802.71,-453.67 876.01,-457 940.5,-457 940.5,-457 940.5,-457 1451,-457 1555.09,-457 1588.28,-438.47 1670,-374 1707.58,-344.35 1733.74,-291.45 1743.39,-269.72"/>
<polygon fill="#9a32cd" stroke="#9a32cd" points="749.71,-447.16 739.53,-450.08 749.31,-454.15 749.71,-447.16"/>
</a>
</g>
<text text-anchor="middle" x="1180.5" y="-460" font-family="Helvetica,sans-Serif" font-size="10.00" fill="grey"> time</text>
</g>
<!-- Node10 -->
<g id="Node000010" class="node">
<title>Node10</title>
<g id="a_Node000010"><a xlink:href="classtimestampert.html" target="_top" xlink:title="Timestamp class hierarchy.">
<polygon fill="white" stroke="#666666" points="430.5,-455.5 347.5,-455.5 347.5,-436.5 430.5,-436.5 430.5,-455.5"/>
<text text-anchor="middle" x="389" y="-443.5" font-family="Helvetica,sans-Serif" font-size="10.00">timestampert</text>
</a>
</g>
</g>
<!-- Node10&#45;&gt;Node9 -->
<g id="edge12_Node000009_Node000010" class="edge">
<title>Node10&#45;&gt;Node9</title>
<g id="a_edge12_Node000009_Node000010"><a xlink:title=" ">
<path fill="none" stroke="#9a32cd" stroke-dasharray="5,2" d="M440.68,-446C488.64,-446 560.76,-446 612.31,-446"/>
<polygon fill="#9a32cd" stroke="#9a32cd" points="440.53,-442.5 430.53,-446 440.53,-449.5 440.53,-442.5"/>
</a>
</g>
<text text-anchor="middle" x="527" y="-449" font-family="Helvetica,sans-Serif" font-size="10.00" fill="grey"> ptr</text>
</g>
<!-- Node11 -->
<g id="Node000011" class="node">
<title>Node11</title>
<g id="a_Node000011"><a xlink:title=" ">
<polygon fill="white" stroke="#666666" points="715,-397.5 637,-397.5 637,-378.5 715,-378.5 715,-397.5"/>
<text text-anchor="middle" x="676" y="-385.5" font-family="Helvetica,sans-Serif" font-size="10.00">std::ostream</text>
</a>
</g>
</g>
<!-- Node11&#45;&gt;Node1 -->
<g id="edge14_Node000001_Node000011" class="edge">
<title>Node11&#45;&gt;Node1</title>
<g id="a_edge14_Node000001_Node000011"><a xlink:title=" ">
<path fill="none" stroke="#9a32cd" stroke-dasharray="5,2" d="M725.4,-394.47C778.18,-400.96 865.19,-410 940.5,-410 940.5,-410 940.5,-410 1451,-410 1575.61,-410 1701.02,-303.21 1737.17,-269.84"/>
<polygon fill="#9a32cd" stroke="#9a32cd" points="725.68,-390.98 715.32,-393.21 724.81,-397.93 725.68,-390.98"/>
</a>
</g>
<text text-anchor="middle" x="1180.5" y="-413" font-family="Helvetica,sans-Serif" font-size="10.00" fill="grey"> out</text>
</g>
<!-- Node17 -->
<g id="Node000017" class="node">
<title>Node17</title>
<g id="a_Node000017"><a xlink:href="classjson__streamt.html" target="_top" xlink:title="This class provides a facility for streaming JSON objects directly to the output instead of waiting f...">
<polygon fill="white" stroke="#666666" points="981.5,-331.5 901.5,-331.5 901.5,-312.5 981.5,-312.5 981.5,-331.5"/>
<text text-anchor="middle" x="941.5" y="-319.5" font-family="Helvetica,sans-Serif" font-size="10.00">json_streamt</text>
</a>
</g>
</g>
<!-- Node11&#45;&gt;Node17 -->
<g id="edge21_Node000017_Node000011" class="edge">
<title>Node11&#45;&gt;Node17</title>
<g id="a_edge21_Node000017_Node000011"><a xlink:title=" ">
<path fill="none" stroke="#9a32cd" stroke-dasharray="5,2" d="M724.83,-376.02C775.84,-363.24 855.58,-343.27 902.48,-331.52"/>
<polygon fill="#9a32cd" stroke="#9a32cd" points="723.88,-372.65 715.03,-378.47 725.58,-379.44 723.88,-372.65"/>
</a>
</g>
<text text-anchor="middle" x="804" y="-367" font-family="Helvetica,sans-Serif" font-size="10.00" fill="grey"> out</text>
</g>
<!-- Node12 -->
<g id="Node000012" class="node">
<title>Node12</title>
<g id="a_Node000012"><a xlink:title=" ">
<polygon fill="white" stroke="#666666" points="443.5,-403 334.5,-403 334.5,-373 443.5,-373 443.5,-403"/>
<text text-anchor="start" x="342.5" y="-391" font-family="Helvetica,sans-Serif" font-size="10.00">std::basic_ostream</text>
<text text-anchor="middle" x="389" y="-380" font-family="Helvetica,sans-Serif" font-size="10.00">&lt; Char &gt;</text>
</a>
</g>
</g>
<!-- Node12&#45;&gt;Node11 -->
<g id="edge15_Node000011_Node000012" class="edge">
<title>Node12&#45;&gt;Node11</title>
<g id="a_edge15_Node000011_Node000012"><a xlink:title=" ">
<path fill="none" stroke="#63b8ff" d="M453.8,-388C509.96,-388 589.86,-388 636.69,-388"/>
<polygon fill="#63b8ff" stroke="#63b8ff" points="453.61,-384.5 443.61,-388 453.61,-391.5 453.61,-384.5"/>
</a>
</g>
</g>
<!-- Node13 -->
<g id="Node000013" class="node">
<title>Node13</title>
<g id="a_Node000013"><a xlink:title=" ">
<polygon fill="white" stroke="#666666" points="245,-397.5 117,-397.5 117,-378.5 245,-378.5 245,-397.5"/>
<text text-anchor="middle" x="181" y="-385.5" font-family="Helvetica,sans-Serif" font-size="10.00">std::basic_ios&lt; Char &gt;</text>
</a>
</g>
</g>
<!-- Node13&#45;&gt;Node12 -->
<g id="edge16_Node000012_Node000013" class="edge">
<title>Node13&#45;&gt;Node12</title>
<g id="a_edge16_Node000012_Node000013"><a xlink:title=" ">
<path fill="none" stroke="#63b8ff" d="M255.41,-388C281.43,-388 310.21,-388 334.29,-388"/>
<polygon fill="#63b8ff" stroke="#63b8ff" points="255.21,-384.5 245.21,-388 255.21,-391.5 255.21,-384.5"/>
</a>
</g>
</g>
<!-- Node14 -->
<g id="Node000014" class="node">
<title>Node14</title>
<g id="a_Node000014"><a xlink:title=" ">
<polygon fill="white" stroke="#666666" points="80,-397.5 0,-397.5 0,-378.5 80,-378.5 80,-397.5"/>
<text text-anchor="middle" x="40" y="-385.5" font-family="Helvetica,sans-Serif" font-size="10.00">std::ios_base</text>
</a>
</g>
</g>
<!-- Node14&#45;&gt;Node13 -->
<g id="edge17_Node000013_Node000014" class="edge">
<title>Node14&#45;&gt;Node13</title>
<g id="a_edge17_Node000013_Node000014"><a xlink:title=" ">
<path fill="none" stroke="#63b8ff" d="M90.28,-388C98.85,-388 107.87,-388 116.75,-388"/>
<polygon fill="#63b8ff" stroke="#63b8ff" points="90.09,-384.5 80.09,-388 90.09,-391.5 90.09,-384.5"/>
</a>
</g>
</g>
<!-- Node15&#45;&gt;Node1 -->
<g id="edge18_Node000001_Node000015" class="edge">
<title>Node15&#45;&gt;Node1</title>
<g id="a_edge18_Node000001_Node000015"><a xlink:title=" ">
<path fill="none" stroke="#9a32cd" stroke-dasharray="5,2" d="M1520.89,-279.11C1571.69,-274.82 1639.72,-269.09 1687.95,-265.02"/>
<polygon fill="#9a32cd" stroke="#9a32cd" points="1520.32,-275.64 1510.64,-279.97 1520.9,-282.62 1520.32,-275.64"/>
</a>
</g>
<text text-anchor="middle" x="1603.5" y="-280" font-family="Helvetica,sans-Serif" font-size="10.00" fill="grey"> json_stream</text>
</g>
<!-- Node16 -->
<g id="Node000016" class="node">
<title>Node16</title>
<g id="a_Node000016"><a xlink:href="classjson__stream__arrayt.html" target="_top" xlink:title="Provides methods for streaming JSON arrays.">
<polygon fill="white" stroke="#666666" points="1236,-330.5 1125,-330.5 1125,-311.5 1236,-311.5 1236,-330.5"/>
<text text-anchor="middle" x="1180.5" y="-318.5" font-family="Helvetica,sans-Serif" font-size="10.00">json_stream_arrayt</text>
</a>
</g>
</g>
<!-- Node16&#45;&gt;Node15 -->
<g id="edge19_Node000015_Node000016" class="edge">
<title>Node16&#45;&gt;Node15</title>
<g id="a_edge19_Node000015_Node000016"><a xlink:title=" ">
<path fill="none" stroke="#9a32cd" stroke-dasharray="5,2" d="M1246.31,-312.55C1280.94,-308 1324.3,-302.26 1363,-297 1371.51,-295.84 1380.5,-294.61 1389.33,-293.38"/>
<polygon fill="#9a32cd" stroke="#9a32cd" points="1245.78,-309.08 1236.32,-313.86 1246.69,-316.03 1245.78,-309.08"/>
</a>
</g>
<text text-anchor="middle" x="1318" y="-311" font-family="Helvetica,sans-Serif" font-size="10.00" fill="grey"> ptr</text>
</g>
<!-- Node17&#45;&gt;Node16 -->
<g id="edge20_Node000016_Node000017" class="edge">
<title>Node17&#45;&gt;Node16</title>
<g id="a_edge20_Node000016_Node000017"><a xlink:title=" ">
<path fill="none" stroke="#63b8ff" d="M991.65,-321.79C1030.47,-321.63 1084.6,-321.4 1124.79,-321.23"/>
<polygon fill="#63b8ff" stroke="#63b8ff" points="991.62,-318.29 981.64,-321.83 991.65,-325.29 991.62,-318.29"/>
</a>
</g>
</g>
<!-- Node17&#45;&gt;Node25 -->
<g id="edge36_Node000025_Node000017" class="edge">
<title>Node17&#45;&gt;Node25</title>
<g id="a_edge36_Node000025_Node000017"><a xlink:title=" ">
<path fill="none" stroke="#9a32cd" stroke-dasharray="5,2" d="M890.94,-325.67C875.87,-326.63 859.27,-327.53 844,-328 808.46,-329.1 799.55,-328.41 764,-328 755.24,-327.9 745.98,-327.74 736.9,-327.56"/>
<polygon fill="#9a32cd" stroke="#9a32cd" points="891.34,-329.15 901.09,-325.01 890.88,-322.17 891.34,-329.15"/>
</a>
</g>
<text text-anchor="middle" x="804" y="-331" font-family="Helvetica,sans-Serif" font-size="10.00" fill="grey"> ptr</text>
</g>
<!-- Node18 -->
<g id="Node000018" class="node">
<title>Node18</title>
<g id="a_Node000018"><a xlink:title=" ">
<polygon fill="white" stroke="#666666" points="737,-30 615,-30 615,0 737,0 737,-30"/>
<text text-anchor="start" x="623" y="-18" font-family="Helvetica,sans-Serif" font-size="10.00">std::map&lt; std::string,</text>
<text text-anchor="middle" x="676" y="-7" font-family="Helvetica,sans-Serif" font-size="10.00"> jsont &gt;</text>
</a>
</g>
</g>
<!-- Node18&#45;&gt;Node17 -->
<g id="edge22_Node000017_Node000018" class="edge">
<title>Node18&#45;&gt;Node17</title>
<g id="a_edge22_Node000017_Node000018"><a xlink:title=" ">
<path fill="none" stroke="#9a32cd" stroke-dasharray="5,2" d="M738.08,-35.85C741.02,-38.28 743.69,-40.98 746,-44 782.76,-92.09 739.83,-123.5 764,-179 791.36,-241.82 805.04,-259.92 862,-298 873.73,-305.84 888.13,-311.21 901.37,-314.84"/>
<polygon fill="#9a32cd" stroke="#9a32cd" points="739.99,-32.92 729.79,-30.06 735.98,-38.65 739.99,-32.92"/>
</a>
</g>
<text text-anchor="middle" x="804" y="-288" font-family="Helvetica,sans-Serif" font-size="10.00" fill="grey"> object</text>
</g>
<!-- Node21 -->
<g id="Node000021" class="node">
<title>Node21</title>
<g id="a_Node000021"><a xlink:href="classjsont.html" target="_top" xlink:title=" ">
<polygon fill="white" stroke="#666666" points="962,-57.5 921,-57.5 921,-38.5 962,-38.5 962,-57.5"/>
<text text-anchor="middle" x="941.5" y="-45.5" font-family="Helvetica,sans-Serif" font-size="10.00">jsont</text>
</a>
</g>
</g>
<!-- Node18&#45;&gt;Node21 -->
<g id="edge31_Node000021_Node000018" class="edge">
<title>Node18&#45;&gt;Node21</title>
<g id="a_edge31_Node000021_Node000018"><a xlink:title=" ">
<path fill="none" stroke="#9a32cd" stroke-dasharray="5,2" d="M747.71,-7.64C777.63,-6.09 812.73,-6.36 844,-12 871.8,-17.02 902.05,-29.55 921.13,-38.42"/>
<polygon fill="#9a32cd" stroke="#9a32cd" points="747.13,-4.17 737.36,-8.26 747.55,-11.16 747.13,-4.17"/>
</a>
</g>
<text text-anchor="middle" x="804" y="-15" font-family="Helvetica,sans-Serif" font-size="10.00" fill="grey"> object</text>
</g>
<!-- Node19 -->
<g id="Node000019" class="node">
<title>Node19</title>
<g id="a_Node000019"><a xlink:title=" ">
<polygon fill="white" stroke="#666666" points="421.5,-50.5 356.5,-50.5 356.5,-31.5 421.5,-31.5 421.5,-50.5"/>
<text text-anchor="middle" x="389" y="-38.5" font-family="Helvetica,sans-Serif" font-size="10.00">std::string</text>
</a>
</g>
</g>
<!-- Node19&#45;&gt;Node18 -->
<g id="edge23_Node000018_Node000019" class="edge">
<title>Node19&#45;&gt;Node18</title>
<g id="a_edge23_Node000018_Node000019"><a xlink:title=" ">
<path fill="none" stroke="#9a32cd" stroke-dasharray="5,2" d="M432.07,-37.12C443.11,-36.1 455,-35.01 466,-34 516.07,-29.42 572.89,-24.25 614.64,-20.47"/>
<polygon fill="#9a32cd" stroke="#9a32cd" points="431.44,-33.66 421.8,-38.06 432.08,-40.63 431.44,-33.66"/>
</a>
</g>
<text text-anchor="middle" x="527" y="-37" font-family="Helvetica,sans-Serif" font-size="10.00" fill="grey"> keys</text>
</g>
<!-- Node19&#45;&gt;Node21 -->
<g id="edge27_Node000021_Node000019" class="edge">
<title>Node19&#45;&gt;Node21</title>
<g id="a_edge27_Node000021_Node000019"><a xlink:title=" ">
<path fill="none" stroke="#9a32cd" stroke-dasharray="5,2" d="M432.06,-43.46C443.1,-44.04 454.99,-44.6 466,-45 633.91,-51.11 676,-53.61 844,-51 870.65,-50.59 901.42,-49.53 920.91,-48.79"/>
<polygon fill="#9a32cd" stroke="#9a32cd" points="431.96,-39.95 421.79,-42.9 431.59,-46.94 431.96,-39.95"/>
</a>
</g>
<text text-anchor="middle" x="676" y="-56" font-family="Helvetica,sans-Serif" font-size="10.00" fill="grey"> value</text>
</g>
<!-- Node20 -->
<g id="Node000020" class="node">
<title>Node20</title>
<g id="a_Node000020"><a xlink:title=" ">
<polygon fill="white" stroke="#666666" points="233,-56 129,-56 129,-26 233,-26 233,-56"/>
<text text-anchor="start" x="137" y="-44" font-family="Helvetica,sans-Serif" font-size="10.00">std::basic_string&lt;</text>
<text text-anchor="middle" x="181" y="-33" font-family="Helvetica,sans-Serif" font-size="10.00"> Char &gt;</text>
</a>
</g>
</g>
<!-- Node20&#45;&gt;Node19 -->
<g id="edge24_Node000019_Node000020" class="edge">
<title>Node20&#45;&gt;Node19</title>
<g id="a_edge24_Node000019_Node000020"><a xlink:title=" ">
<path fill="none" stroke="#63b8ff" d="M243.41,-41C280.55,-41 326.35,-41 356.33,-41"/>
<polygon fill="#63b8ff" stroke="#63b8ff" points="243.19,-37.5 233.19,-41 243.19,-44.5 243.19,-37.5"/>
</a>
</g>
</g>
<!-- Node21&#45;&gt;Node18 -->
<g id="edge25_Node000018_Node000021" class="edge">
<title>Node21&#45;&gt;Node18</title>
<g id="a_edge25_Node000018_Node000021"><a xlink:title=" ">
<path fill="none" stroke="#9a32cd" stroke-dasharray="5,2" d="M910.75,-44.27C868.8,-39.02 791.34,-29.32 737.12,-22.53"/>
<polygon fill="#9a32cd" stroke="#9a32cd" points="910.5,-47.77 920.86,-45.54 911.37,-40.82 910.5,-47.77"/>
</a>
</g>
<text text-anchor="middle" x="804" y="-39" font-family="Helvetica,sans-Serif" font-size="10.00" fill="grey"> elements</text>
</g>
<!-- Node21&#45;&gt;Node21 -->
<g id="edge26_Node000021_Node000021" class="edge">
<title>Node21&#45;&gt;Node21</title>
<g id="a_edge26_Node000021_Node000021"><a xlink:title=" ">
<path fill="none" stroke="#9a32cd" stroke-dasharray="5,2" d="M918.91,-67.05C920.42,-71.88 927.95,-75.5 941.5,-75.5 963.18,-75.5 969.45,-66.23 960.3,-57.58"/>
<polygon fill="#9a32cd" stroke="#9a32cd" points="922.23,-68.17 922.7,-57.58 915.73,-65.57 922.23,-68.17"/>
</a>
</g>
<text text-anchor="middle" x="941.5" y="-78.5" font-family="Helvetica,sans-Serif" font-size="10.00" fill="grey"> null_json_object</text>
</g>
<!-- Node21&#45;&gt;Node22 -->
<g id="edge29_Node000022_Node000021" class="edge">
<title>Node21&#45;&gt;Node22</title>
<g id="a_edge29_Node000022_Node000021"><a xlink:title=" ">
<path fill="none" stroke="#9a32cd" stroke-dasharray="5,2" d="M972.09,-44.56C1001.69,-41.87 1048.4,-39.68 1088,-47 1114.09,-51.82 1142.36,-63.76 1160.47,-72.36"/>
<polygon fill="#9a32cd" stroke="#9a32cd" points="971.61,-41.09 962,-45.55 972.3,-48.05 971.61,-41.09"/>
</a>
</g>
<text text-anchor="middle" x="1063.5" y="-50" font-family="Helvetica,sans-Serif" font-size="10.00" fill="grey"> elements</text>
</g>
<!-- Node22&#45;&gt;Node21 -->
<g id="edge28_Node000021_Node000022" class="edge">
<title>Node22&#45;&gt;Node21</title>
<g id="a_edge28_Node000021_Node000022"><a xlink:title=" ">
<path fill="none" stroke="#9a32cd" stroke-dasharray="5,2" d="M1112.89,-72.44C1061.94,-65.13 995.05,-55.54 962.3,-50.84"/>
<polygon fill="#9a32cd" stroke="#9a32cd" points="1112.45,-75.92 1122.85,-73.87 1113.45,-68.99 1112.45,-75.92"/>
</a>
</g>
<text text-anchor="middle" x="1063.5" y="-71" font-family="Helvetica,sans-Serif" font-size="10.00" fill="grey"> array</text>
</g>
<!-- Node23&#45;&gt;Node18 -->
<g id="edge32_Node000018_Node000023" class="edge">
<title>Node23&#45;&gt;Node18</title>
<g id="a_edge32_Node000018_Node000023"><a xlink:title=" ">
<path fill="none" stroke="orange" stroke-dasharray="5,2" d="M449.81,-81.58C489.43,-74.05 542.31,-62.79 588,-49 605.54,-43.7 624.55,-36.46 640.31,-30.02"/>
<polygon fill="orange" stroke="orange" points="448.97,-78.17 439.78,-83.46 450.26,-85.05 448.97,-78.17"/>
</a>
</g>
<text text-anchor="middle" x="527" y="-81" font-family="Helvetica,sans-Serif" font-size="10.00" fill="grey"> &lt; std::string, jsont &gt;</text>
</g>
<!-- Node24 -->
<g id="Node000024" class="node">
<title>Node24</title>
<g id="a_Node000024"><a xlink:title=" ">
<polygon fill="white" stroke="#666666" points="195.5,-101.5 166.5,-101.5 166.5,-82.5 195.5,-82.5 195.5,-101.5"/>
<text text-anchor="middle" x="181" y="-89.5" font-family="Helvetica,sans-Serif" font-size="10.00">K</text>
</a>
</g>
</g>
<!-- Node24&#45;&gt;Node23 -->
<g id="edge33_Node000023_Node000024" class="edge">
<title>Node24&#45;&gt;Node23</title>
<g id="a_edge33_Node000023_Node000024"><a xlink:title=" ">
<path fill="none" stroke="#9a32cd" stroke-dasharray="5,2" d="M205.75,-92C237.96,-92 296.29,-92 338.3,-92"/>
<polygon fill="#9a32cd" stroke="#9a32cd" points="205.52,-88.5 195.52,-92 205.52,-95.5 205.52,-88.5"/>
</a>
</g>
<text text-anchor="middle" x="287.5" y="-95" font-family="Helvetica,sans-Serif" font-size="10.00" fill="grey"> keys</text>
</g>
<!-- Node25&#45;&gt;Node17 -->
<g id="edge35_Node000017_Node000025" class="edge">
<title>Node25&#45;&gt;Node17</title>
<g id="a_edge35_Node000017_Node000025"><a xlink:title=" ">
<path fill="none" stroke="#9a32cd" stroke-dasharray="5,2" d="M747.11,-318.12C752.82,-317.67 758.5,-317.28 764,-317 811.15,-314.57 865.44,-316.87 901.22,-319.09"/>
<polygon fill="#9a32cd" stroke="#9a32cd" points="746.51,-314.66 736.84,-318.99 747.1,-321.63 746.51,-314.66"/>
</a>
</g>
<text text-anchor="middle" x="804" y="-320" font-family="Helvetica,sans-Serif" font-size="10.00" fill="grey"> child_stream</text>
</g>
</g>
</svg>
