<?xml version="1.0" encoding="UTF-8" standalone="no"?>
<!DOCTYPE svg PUBLIC "-//W3C//DTD SVG 1.1//EN"
 "http://www.w3.org/Graphics/SVG/1.1/DTD/svg11.dtd">
<!-- Generated by graphviz version 2.43.0 (0)
 -->
<!-- Title: string_set_char_builtin_functiont Pages: 1 -->
<svg width="2051pt" height="333pt"
 viewBox="0.00 0.00 2051.00 332.76" xmlns="http://www.w3.org/2000/svg" xmlns:xlink="http://www.w3.org/1999/xlink">
<g id="graph0" class="graph" transform="scale(1 1) rotate(0) translate(4 328.76)">
<title>string_set_char_builtin_functiont</title>
<!-- Node1 -->
<g id="Node000001" class="node">
<title>Node1</title>
<g id="a_Node000001"><a xlink:title="Setting a character at a particular position of a string.">
<polygon fill="#999999" stroke="#666666" points="2043,-295.76 1916,-295.76 1916,-265.76 2043,-265.76 2043,-295.76"/>
<text text-anchor="start" x="1924" y="-283.76" font-family="Helvetica,sans-Serif" font-size="10.00">string_set_char_builtin</text>
<text text-anchor="middle" x="1979.5" y="-272.76" font-family="Helvetica,sans-Serif" font-size="10.00">_functiont</text>
</a>
</g>
</g>
<!-- Node2 -->
<g id="Node000002" class="node">
<title>Node2</title>
<g id="a_Node000002"><a xlink:href="classstring__transformation__builtin__functiont.html" target="_top" xlink:title="String builtin_function transforming one string into another.">
<polygon fill="white" stroke="#666666" points="1879,-250.76 1757,-250.76 1757,-220.76 1879,-220.76 1879,-250.76"/>
<text text-anchor="start" x="1765" y="-238.76" font-family="Helvetica,sans-Serif" font-size="10.00">string_transformation</text>
<text text-anchor="middle" x="1818" y="-227.76" font-family="Helvetica,sans-Serif" font-size="10.00">_builtin_functiont</text>
</a>
</g>
</g>
<!-- Node2&#45;&gt;Node1 -->
<g id="edge1_Node000001_Node000002" class="edge">
<title>Node2&#45;&gt;Node1</title>
<g id="a_edge1_Node000001_Node000002"><a xlink:title=" ">
<path fill="none" stroke="#63b8ff" d="M1882.24,-253.6C1896.43,-257.6 1911.34,-261.81 1925.09,-265.69"/>
<polygon fill="#63b8ff" stroke="#63b8ff" points="1883.13,-250.21 1872.55,-250.87 1881.23,-256.95 1883.13,-250.21"/>
</a>
</g>
</g>
<!-- Node3 -->
<g id="Node000003" class="node">
<title>Node3</title>
<g id="a_Node000003"><a xlink:href="classstring__builtin__functiont.html" target="_top" xlink:title="Base class for string functions that are built in the solver.">
<polygon fill="white" stroke="#666666" points="1720,-207.26 1591,-207.26 1591,-188.26 1720,-188.26 1720,-207.26"/>
<text text-anchor="middle" x="1655.5" y="-195.26" font-family="Helvetica,sans-Serif" font-size="10.00">string_builtin_functiont</text>
</a>
</g>
</g>
<!-- Node3&#45;&gt;Node2 -->
<g id="edge2_Node000002_Node000003" class="edge">
<title>Node3&#45;&gt;Node2</title>
<g id="a_edge2_Node000002_Node000003"><a xlink:title=" ">
<path fill="none" stroke="#63b8ff" d="M1707.08,-209.73C1722.86,-213.47 1740.42,-217.63 1756.79,-221.5"/>
<polygon fill="#63b8ff" stroke="#63b8ff" points="1707.54,-206.24 1697,-207.35 1705.93,-213.06 1707.54,-206.24"/>
</a>
</g>
</g>
<!-- Node4 -->
<g id="Node000004" class="node">
<title>Node4</title>
<g id="a_Node000004"><a xlink:href="classexprt.html" target="_top" xlink:title="Base class for all expressions.">
<polygon fill="white" stroke="#666666" points="836,-196.26 794,-196.26 794,-177.26 836,-177.26 836,-196.26"/>
<text text-anchor="middle" x="815" y="-184.26" font-family="Helvetica,sans-Serif" font-size="10.00">exprt</text>
</a>
</g>
</g>
<!-- Node4&#45;&gt;Node1 -->
<g id="edge23_Node000001_Node000004" class="edge">
<title>Node4&#45;&gt;Node1</title>
<g id="a_edge23_Node000001_Node000004"><a xlink:title=" ">
<path fill="none" stroke="#9a32cd" stroke-dasharray="5,2" d="M826.22,-205.28C833,-216.33 842.72,-230.04 854,-239.76 900.54,-279.84 915.58,-302.76 977,-302.76 977,-302.76 977,-302.76 1819,-302.76 1851.15,-302.76 1886.6,-298.32 1915.9,-293.43"/>
<polygon fill="#9a32cd" stroke="#9a32cd" points="829.11,-203.3 821.05,-196.43 823.07,-206.83 829.11,-203.3"/>
</a>
</g>
<text text-anchor="middle" x="1464" y="-316.76" font-family="Helvetica,sans-Serif" font-size="10.00" fill="grey"> character</text>
<text text-anchor="middle" x="1464" y="-305.76" font-family="Helvetica,sans-Serif" font-size="10.00" fill="grey">position</text>
</g>
<!-- Node4&#45;&gt;Node3 -->
<g id="edge3_Node000003_Node000004" class="edge">
<title>Node4&#45;&gt;Node3</title>
<g id="a_edge3_Node000003_Node000004"><a xlink:title=" ">
<path fill="none" stroke="#9a32cd" stroke-dasharray="5,2" d="M836.81,-202.42C866.34,-223.06 922.86,-256.76 977,-256.76 977,-256.76 977,-256.76 1364,-256.76 1462.04,-256.76 1575.03,-224.09 1626.43,-207.37"/>
<polygon fill="#9a32cd" stroke="#9a32cd" points="838.71,-199.48 828.54,-196.49 834.63,-205.16 838.71,-199.48"/>
</a>
</g>
<text text-anchor="middle" x="1238" y="-259.76" font-family="Helvetica,sans-Serif" font-size="10.00" fill="grey"> return_code</text>
</g>
<!-- Node15 -->
<g id="Node000015" class="node">
<title>Node15</title>
<g id="a_Node000015"><a xlink:title=" ">
<polygon fill="white" stroke="#666666" points="1297,-82.26 1179,-82.26 1179,-41.26 1297,-41.26 1297,-82.26"/>
<text text-anchor="start" x="1187" y="-70.26" font-family="Helvetica,sans-Serif" font-size="10.00">std::unordered_map</text>
<text text-anchor="start" x="1187" y="-59.26" font-family="Helvetica,sans-Serif" font-size="10.00">&lt; exprt, array_string</text>
<text text-anchor="middle" x="1238" y="-48.26" font-family="Helvetica,sans-Serif" font-size="10.00">_exprt, irep_hash &gt;</text>
</a>
</g>
</g>
<!-- Node4&#45;&gt;Node15 -->
<g id="edge11_Node000015_Node000004" class="edge">
<title>Node4&#45;&gt;Node15</title>
<g id="a_edge11_Node000015_Node000004"><a xlink:title=" ">
<path fill="none" stroke="#9a32cd" stroke-dasharray="5,2" d="M835.08,-170.76C840.94,-166.24 847.55,-161.54 854,-157.76 881.99,-141.35 890.09,-138.62 921,-128.76 968.29,-113.68 1101.25,-87.42 1178.8,-72.65"/>
<polygon fill="#9a32cd" stroke="#9a32cd" points="832.76,-168.13 827.13,-177.11 837.13,-173.6 832.76,-168.13"/>
</a>
</g>
<text text-anchor="middle" x="978" y="-131.76" font-family="Helvetica,sans-Serif" font-size="10.00" fill="grey"> keys</text>
</g>
<!-- Node16 -->
<g id="Node000016" class="node">
<title>Node16</title>
<g id="a_Node000016"><a xlink:href="classarray__string__exprt.html" target="_top" xlink:title=" ">
<polygon fill="white" stroke="#666666" points="1031,-196.26 925,-196.26 925,-177.26 1031,-177.26 1031,-196.26"/>
<text text-anchor="middle" x="978" y="-184.26" font-family="Helvetica,sans-Serif" font-size="10.00">array_string_exprt</text>
</a>
</g>
</g>
<!-- Node4&#45;&gt;Node16 -->
<g id="edge13_Node000016_Node000004" class="edge">
<title>Node4&#45;&gt;Node16</title>
<g id="a_edge13_Node000016_Node000004"><a xlink:title=" ">
<path fill="none" stroke="#63b8ff" d="M846.17,-186.76C868.26,-186.76 898.79,-186.76 924.81,-186.76"/>
<polygon fill="#63b8ff" stroke="#63b8ff" points="846.07,-183.26 836.07,-186.76 846.07,-190.26 846.07,-183.26"/>
</a>
</g>
</g>
<!-- Node19 -->
<g id="Node000019" class="node">
<title>Node19</title>
<g id="a_Node000019"><a xlink:title=" ">
<polygon fill="white" stroke="#666666" points="1298,-141.26 1178,-141.26 1178,-100.26 1298,-100.26 1298,-141.26"/>
<text text-anchor="start" x="1186" y="-129.26" font-family="Helvetica,sans-Serif" font-size="10.00">std::unordered_map</text>
<text text-anchor="start" x="1186" y="-118.26" font-family="Helvetica,sans-Serif" font-size="10.00">&lt; array_string_exprt,</text>
<text text-anchor="middle" x="1238" y="-107.26" font-family="Helvetica,sans-Serif" font-size="10.00"> exprt, irep_hash &gt;</text>
</a>
</g>
</g>
<!-- Node4&#45;&gt;Node19 -->
<g id="edge19_Node000019_Node000004" class="edge">
<title>Node4&#45;&gt;Node19</title>
<g id="a_edge19_Node000019_Node000004"><a xlink:title=" ">
<path fill="none" stroke="#9a32cd" stroke-dasharray="5,2" d="M845.81,-176.67C866.64,-170.01 895.23,-161.64 921,-156.76 1025.85,-136.91 1054.21,-147.76 1160,-133.76 1165.78,-132.99 1171.79,-132.12 1177.79,-131.19"/>
<polygon fill="#9a32cd" stroke="#9a32cd" points="844.68,-173.35 836.26,-179.78 846.85,-180.01 844.68,-173.35"/>
</a>
</g>
<text text-anchor="middle" x="978" y="-159.76" font-family="Helvetica,sans-Serif" font-size="10.00" fill="grey"> elements</text>
</g>
<!-- Node5 -->
<g id="Node000005" class="node">
<title>Node5</title>
<g id="a_Node000005"><a xlink:href="classirept.html" target="_top" xlink:title="There are a large number of kinds of tree structured or tree&#45;like data in CPROVER.">
<polygon fill="white" stroke="#666666" points="757,-196.26 718,-196.26 718,-177.26 757,-177.26 757,-196.26"/>
<text text-anchor="middle" x="737.5" y="-184.26" font-family="Helvetica,sans-Serif" font-size="10.00">irept</text>
</a>
</g>
</g>
<!-- Node5&#45;&gt;Node4 -->
<g id="edge4_Node000004_Node000005" class="edge">
<title>Node5&#45;&gt;Node4</title>
<g id="a_edge4_Node000004_Node000005"><a xlink:title=" ">
<path fill="none" stroke="#63b8ff" d="M767.18,-186.76C776.11,-186.76 785.76,-186.76 793.97,-186.76"/>
<polygon fill="#63b8ff" stroke="#63b8ff" points="767.16,-183.26 757.16,-186.76 767.16,-190.26 767.16,-183.26"/>
</a>
</g>
</g>
<!-- Node6 -->
<g id="Node000006" class="node">
<title>Node6</title>
<g id="a_Node000006"><a xlink:href="classsharing__treet.html" target="_top" xlink:title=" ">
<polygon fill="white" stroke="#666666" points="681,-207.26 556,-207.26 556,-166.26 681,-166.26 681,-207.26"/>
<text text-anchor="start" x="564" y="-195.26" font-family="Helvetica,sans-Serif" font-size="10.00">sharing_treet&lt; irept,</text>
<text text-anchor="start" x="564" y="-184.26" font-family="Helvetica,sans-Serif" font-size="10.00"> forward_list_as_mapt</text>
<text text-anchor="middle" x="618.5" y="-173.26" font-family="Helvetica,sans-Serif" font-size="10.00">&lt; irep_idt, irept &gt; &gt;</text>
</a>
</g>
</g>
<!-- Node6&#45;&gt;Node5 -->
<g id="edge5_Node000005_Node000006" class="edge">
<title>Node6&#45;&gt;Node5</title>
<g id="a_edge5_Node000005_Node000006"><a xlink:title=" ">
<path fill="none" stroke="#63b8ff" d="M691.38,-186.76C701.13,-186.76 710.35,-186.76 717.89,-186.76"/>
<polygon fill="#63b8ff" stroke="#63b8ff" points="691.08,-183.26 681.08,-186.76 691.08,-190.26 691.08,-183.26"/>
</a>
</g>
</g>
<!-- Node7 -->
<g id="Node000007" class="node">
<title>Node7</title>
<g id="a_Node000007"><a xlink:href="classtree__nodet.html" target="_top" xlink:title="A node with data in a tree, it contains:">
<polygon fill="#fff0f0" stroke="red" points="158,-197.76 0,-197.76 0,-167.76 158,-167.76 158,-197.76"/>
<text text-anchor="start" x="8" y="-185.76" font-family="Helvetica,sans-Serif" font-size="10.00">tree_nodet&lt; treet,</text>
<text text-anchor="middle" x="79" y="-174.76" font-family="Helvetica,sans-Serif" font-size="10.00"> named_subtreest, sharing &gt;</text>
</a>
</g>
</g>
<!-- Node7&#45;&gt;Node6 -->
<g id="edge6_Node000006_Node000007" class="edge">
<title>Node7&#45;&gt;Node6</title>
<g id="a_edge6_Node000006_Node000007"><a xlink:title=" ">
<path fill="none" stroke="#9a32cd" stroke-dasharray="5,2" d="M168.32,-194.22C170.9,-194.42 173.47,-194.6 176,-194.76 336.58,-204.75 377.31,-202.82 538,-194.76 543.82,-194.47 549.87,-194.05 555.92,-193.57"/>
<polygon fill="#9a32cd" stroke="#9a32cd" points="168.51,-190.72 158.25,-193.35 167.91,-197.7 168.51,-190.72"/>
</a>
</g>
<text text-anchor="middle" x="305" y="-214.76" font-family="Helvetica,sans-Serif" font-size="10.00" fill="grey"> data</text>
<text text-anchor="middle" x="305" y="-203.76" font-family="Helvetica,sans-Serif" font-size="10.00" fill="grey">empty_d</text>
</g>
<!-- Node13 -->
<g id="Node000013" class="node">
<title>Node13</title>
<g id="a_Node000013"><a xlink:href="classsharing__treet.html" target="_top" xlink:title="Base class for tree&#45;like data structures with sharing.">
<polygon fill="white" stroke="#666666" points="373,-172.76 237,-172.76 237,-142.76 373,-142.76 373,-172.76"/>
<text text-anchor="start" x="245" y="-160.76" font-family="Helvetica,sans-Serif" font-size="10.00">sharing_treet&lt; derivedt,</text>
<text text-anchor="middle" x="305" y="-149.76" font-family="Helvetica,sans-Serif" font-size="10.00"> named_subtreest &gt;</text>
</a>
</g>
</g>
<!-- Node7&#45;&gt;Node13 -->
<g id="edge8_Node000013_Node000007" class="edge">
<title>Node7&#45;&gt;Node13</title>
<g id="a_edge8_Node000013_Node000007"><a xlink:title=" ">
<path fill="none" stroke="#9a32cd" stroke-dasharray="5,2" d="M168.06,-172.93C190.89,-170.38 215.11,-167.68 236.68,-165.27"/>
<polygon fill="#9a32cd" stroke="#9a32cd" points="167.58,-169.46 158.03,-174.05 168.36,-176.42 167.58,-169.46"/>
</a>
</g>
<text text-anchor="middle" x="197.5" y="-185.76" font-family="Helvetica,sans-Serif" font-size="10.00" fill="grey"> data</text>
<text text-anchor="middle" x="197.5" y="-174.76" font-family="Helvetica,sans-Serif" font-size="10.00" fill="grey">empty_d</text>
</g>
<!-- Node13&#45;&gt;Node6 -->
<g id="edge7_Node000006_Node000013" class="edge">
<title>Node13&#45;&gt;Node6</title>
<g id="a_edge7_Node000006_Node000013"><a xlink:title=" ">
<path fill="none" stroke="orange" stroke-dasharray="5,2" d="M383.21,-160.63C428.44,-162.83 486.59,-166.59 538,-172.76 543.84,-173.46 549.91,-174.31 555.97,-175.23"/>
<polygon fill="orange" stroke="orange" points="383.34,-157.13 373.18,-160.15 383.01,-164.12 383.34,-157.13"/>
</a>
</g>
<text text-anchor="start" x="391" y="-186.76" font-family="Helvetica,sans-Serif" font-size="10.00" fill="grey"> &lt; irept, forward_list</text>
<text text-anchor="middle" x="464.5" y="-175.76" font-family="Helvetica,sans-Serif" font-size="10.00" fill="grey">_as_mapt&lt; irep_idt, irept &gt; &gt;</text>
</g>
<!-- Node14 -->
<g id="Node000014" class="node">
<title>Node14</title>
<g id="a_Node000014"><a xlink:href="classarray__poolt.html" target="_top" xlink:title="Correspondance between arrays and pointers string representations.">
<polygon fill="white" stroke="#666666" points="1500,-157.26 1428,-157.26 1428,-138.26 1500,-138.26 1500,-157.26"/>
<text text-anchor="middle" x="1464" y="-145.26" font-family="Helvetica,sans-Serif" font-size="10.00">array_poolt</text>
</a>
</g>
</g>
<!-- Node14&#45;&gt;Node3 -->
<g id="edge9_Node000003_Node000014" class="edge">
<title>Node14&#45;&gt;Node3</title>
<g id="a_edge9_Node000003_Node000014"><a xlink:title=" ">
<path fill="none" stroke="#9a32cd" stroke-dasharray="5,2" d="M1510.07,-159.65C1543.12,-168.37 1587.41,-180.06 1618.2,-188.18"/>
<polygon fill="#9a32cd" stroke="#9a32cd" points="1510.76,-156.21 1500.2,-157.04 1508.98,-162.98 1510.76,-156.21"/>
</a>
</g>
<text text-anchor="middle" x="1545.5" y="-178.76" font-family="Helvetica,sans-Serif" font-size="10.00" fill="grey"> array_pool</text>
</g>
<!-- Node15&#45;&gt;Node14 -->
<g id="edge10_Node000014_Node000015" class="edge">
<title>Node15&#45;&gt;Node14</title>
<g id="a_edge10_Node000014_Node000015"><a xlink:title=" ">
<path fill="none" stroke="#9a32cd" stroke-dasharray="5,2" d="M1306.8,-77.76C1338.85,-86.47 1377.2,-98.6 1410,-113.76 1424.49,-120.45 1439.69,-130.57 1450.08,-138.03"/>
<polygon fill="#9a32cd" stroke="#9a32cd" points="1307.63,-74.36 1297.06,-75.16 1305.82,-81.12 1307.63,-74.36"/>
</a>
</g>
<text text-anchor="middle" x="1363" y="-116.76" font-family="Helvetica,sans-Serif" font-size="10.00" fill="grey"> arrays_of_pointers</text>
</g>
<!-- Node16&#45;&gt;Node2 -->
<g id="edge22_Node000002_Node000016" class="edge">
<title>Node16&#45;&gt;Node2</title>
<g id="a_edge22_Node000002_Node000016"><a xlink:title=" ">
<path fill="none" stroke="#9a32cd" stroke-dasharray="5,2" d="M1041.14,-191.91C1045.15,-192.21 1049.13,-192.49 1053,-192.76 1314.76,-210.73 1627.36,-226.57 1756.55,-232.86"/>
<polygon fill="#9a32cd" stroke="#9a32cd" points="1041.38,-188.42 1031.14,-191.15 1040.85,-195.4 1041.38,-188.42"/>
</a>
</g>
<text text-anchor="middle" x="1464" y="-232.76" font-family="Helvetica,sans-Serif" font-size="10.00" fill="grey"> input</text>
<text text-anchor="middle" x="1464" y="-221.76" font-family="Helvetica,sans-Serif" font-size="10.00" fill="grey">result</text>
</g>
<!-- Node16&#45;&gt;Node15 -->
<g id="edge12_Node000015_Node000016" class="edge">
<title>Node16&#45;&gt;Node15</title>
<g id="a_edge12_Node000015_Node000016"><a xlink:title=" ">
<path fill="none" stroke="#9a32cd" stroke-dasharray="5,2" d="M1016.73,-173.11C1023.07,-170.12 1029.4,-166.66 1035,-162.76 1044.54,-156.11 1043.41,-150.34 1053,-143.76 1095.4,-114.67 1113.2,-121.05 1160,-99.76 1168.14,-96.05 1169.99,-94.73 1178,-90.76 1183.52,-88.02 1189.34,-85.15 1195.08,-82.32"/>
<polygon fill="#9a32cd" stroke="#9a32cd" points="1015.27,-169.93 1007.52,-177.15 1018.08,-176.34 1015.27,-169.93"/>
</a>
</g>
<text text-anchor="middle" x="1106.5" y="-146.76" font-family="Helvetica,sans-Serif" font-size="10.00" fill="grey"> elements</text>
</g>
<!-- Node16&#45;&gt;Node19 -->
<g id="edge18_Node000019_Node000016" class="edge">
<title>Node16&#45;&gt;Node19</title>
<g id="a_edge18_Node000019_Node000016"><a xlink:title=" ">
<path fill="none" stroke="#9a32cd" stroke-dasharray="5,2" d="M1041.28,-181.93C1076.7,-178 1121.53,-171.02 1160,-158.76 1168.52,-156.04 1169.99,-153.73 1178,-149.76 1183.52,-147.02 1189.34,-144.15 1195.08,-141.32"/>
<polygon fill="#9a32cd" stroke="#9a32cd" points="1040.66,-178.48 1031.08,-183.01 1041.39,-185.44 1040.66,-178.48"/>
</a>
</g>
<text text-anchor="middle" x="1106.5" y="-183.76" font-family="Helvetica,sans-Serif" font-size="10.00" fill="grey"> keys</text>
</g>
<!-- Node17 -->
<g id="Node000017" class="node">
<title>Node17</title>
<g id="a_Node000017"><a xlink:title=" ">
<polygon fill="white" stroke="#666666" points="1035,-40.76 921,-40.76 921,-10.76 1035,-10.76 1035,-40.76"/>
<text text-anchor="start" x="929" y="-28.76" font-family="Helvetica,sans-Serif" font-size="10.00">std::unordered_map</text>
<text text-anchor="middle" x="978" y="-17.76" font-family="Helvetica,sans-Serif" font-size="10.00">&lt; K, T &gt;</text>
</a>
</g>
</g>
<!-- Node17&#45;&gt;Node15 -->
<g id="edge14_Node000015_Node000017" class="edge">
<title>Node17&#45;&gt;Node15</title>
<g id="a_edge14_Node000015_Node000017"><a xlink:title=" ">
<path fill="none" stroke="orange" stroke-dasharray="5,2" d="M1037.21,-8.36C1073.31,-0.39 1120.23,4.8 1160,-7.76 1180.86,-14.34 1200.98,-28.83 1215.42,-41.14"/>
<polygon fill="orange" stroke="orange" points="1036.28,-4.99 1027.33,-10.67 1037.87,-11.8 1036.28,-4.99"/>
</a>
</g>
<text text-anchor="start" x="1054" y="-21.76" font-family="Helvetica,sans-Serif" font-size="10.00" fill="grey"> &lt; exprt, array_string</text>
<text text-anchor="middle" x="1106.5" y="-10.76" font-family="Helvetica,sans-Serif" font-size="10.00" fill="grey">_exprt, irep_hash &gt;</text>
</g>
<!-- Node17&#45;&gt;Node19 -->
<g id="edge20_Node000019_Node000017" class="edge">
<title>Node17&#45;&gt;Node19</title>
<g id="a_edge20_Node000019_Node000017"><a xlink:title=" ">
<path fill="none" stroke="orange" stroke-dasharray="5,2" d="M1045.24,-38.97C1080.41,-47.41 1123.74,-60.12 1160,-77.76 1168.87,-82.07 1169.58,-85.62 1178,-90.76 1183.3,-93.99 1188.98,-97.19 1194.66,-100.24"/>
<polygon fill="orange" stroke="orange" points="1045.61,-35.46 1035.07,-36.6 1044.01,-42.28 1045.61,-35.46"/>
</a>
</g>
<text text-anchor="start" x="1053" y="-91.76" font-family="Helvetica,sans-Serif" font-size="10.00" fill="grey"> &lt; array_string_exprt,</text>
<text text-anchor="middle" x="1106.5" y="-80.76" font-family="Helvetica,sans-Serif" font-size="10.00" fill="grey"> exprt, irep_hash &gt;</text>
</g>
<!-- Node18 -->
<g id="Node000018" class="node">
<title>Node18</title>
<g id="a_Node000018"><a xlink:title=" ">
<polygon fill="white" stroke="#666666" points="829.5,-23.26 800.5,-23.26 800.5,-4.26 829.5,-4.26 829.5,-23.26"/>
<text text-anchor="middle" x="815" y="-11.26" font-family="Helvetica,sans-Serif" font-size="10.00">K</text>
</a>
</g>
</g>
<!-- Node18&#45;&gt;Node17 -->
<g id="edge15_Node000017_Node000018" class="edge">
<title>Node18&#45;&gt;Node17</title>
<g id="a_edge15_Node000017_Node000018"><a xlink:title=" ">
<path fill="none" stroke="#9a32cd" stroke-dasharray="5,2" d="M839.99,-14.46C857.48,-15.07 881.73,-16.12 903,-17.76 908.8,-18.2 914.84,-18.74 920.87,-19.32"/>
<polygon fill="#9a32cd" stroke="#9a32cd" points="839.69,-10.95 829.58,-14.12 839.46,-17.95 839.69,-10.95"/>
</a>
</g>
<text text-anchor="middle" x="878.5" y="-20.76" font-family="Helvetica,sans-Serif" font-size="10.00" fill="grey"> keys</text>
</g>
<!-- Node12 -->
<g id="Node000012" class="node">
<title>Node12</title>
<g id="a_Node000012"><a xlink:title=" ">
<polygon fill="white" stroke="#666666" points="829.5,-60.26 800.5,-60.26 800.5,-41.26 829.5,-41.26 829.5,-60.26"/>
<text text-anchor="middle" x="815" y="-48.26" font-family="Helvetica,sans-Serif" font-size="10.00">T</text>
</a>
</g>
</g>
<!-- Node12&#45;&gt;Node17 -->
<g id="edge16_Node000017_Node000012" class="edge">
<title>Node12&#45;&gt;Node17</title>
<g id="a_edge16_Node000017_Node000012"><a xlink:title=" ">
<path fill="none" stroke="#9a32cd" stroke-dasharray="5,2" d="M839.81,-47.06C861.11,-43.75 893.17,-38.77 920.94,-34.46"/>
<polygon fill="#9a32cd" stroke="#9a32cd" points="839.07,-43.63 829.73,-48.63 840.15,-50.55 839.07,-43.63"/>
</a>
</g>
<text text-anchor="middle" x="878.5" y="-47.76" font-family="Helvetica,sans-Serif" font-size="10.00" fill="grey"> elements</text>
</g>
<!-- Node19&#45;&gt;Node14 -->
<g id="edge17_Node000014_Node000019" class="edge">
<title>Node19&#45;&gt;Node14</title>
<g id="a_edge17_Node000014_Node000019"><a xlink:title=" ">
<path fill="none" stroke="#9a32cd" stroke-dasharray="5,2" d="M1308.38,-127.05C1339.51,-130.14 1376.65,-134.18 1410,-138.76 1415.83,-139.56 1421.99,-140.51 1427.98,-141.49"/>
<polygon fill="#9a32cd" stroke="#9a32cd" points="1308.36,-123.54 1298.07,-126.05 1307.68,-130.5 1308.36,-123.54"/>
</a>
</g>
<text text-anchor="middle" x="1363" y="-141.76" font-family="Helvetica,sans-Serif" font-size="10.00" fill="grey"> length_of_array</text>
</g>
<!-- Node20 -->
<g id="Node000020" class="node">
<title>Node20</title>
<g id="a_Node000020"><a xlink:href="classsymbol__generatort.html" target="_top" xlink:title="Generation of fresh symbols of a given type.">
<polygon fill="white" stroke="#666666" points="1292.5,-178.26 1183.5,-178.26 1183.5,-159.26 1292.5,-159.26 1292.5,-178.26"/>
<text text-anchor="middle" x="1238" y="-166.26" font-family="Helvetica,sans-Serif" font-size="10.00">symbol_generatort</text>
</a>
</g>
</g>
<!-- Node20&#45;&gt;Node14 -->
<g id="edge21_Node000014_Node000020" class="edge">
<title>Node20&#45;&gt;Node14</title>
<g id="a_edge21_Node000014_Node000020"><a xlink:title=" ">
<path fill="none" stroke="#9a32cd" stroke-dasharray="5,2" d="M1302.74,-162.78C1343.38,-158.97 1394.5,-154.18 1427.93,-151.05"/>
<polygon fill="#9a32cd" stroke="#9a32cd" points="1302.28,-159.31 1292.65,-163.73 1302.94,-166.28 1302.28,-159.31"/>
</a>
</g>
<text text-anchor="middle" x="1363" y="-164.76" font-family="Helvetica,sans-Serif" font-size="10.00" fill="grey"> fresh_symbol</text>
</g>
</g>
</svg>
