<?xml version="1.0" encoding="UTF-8" standalone="no"?>
<!DOCTYPE svg PUBLIC "-//W3C//DTD SVG 1.1//EN"
 "http://www.w3.org/Graphics/SVG/1.1/DTD/svg11.dtd">
<!-- Generated by graphviz version 2.43.0 (0)
 -->
<!-- Title: concurrent_cfg_baset&lt; T, P, I &gt; Pages: 1 -->
<svg width="760pt" height="98pt"
 viewBox="0.00 0.00 760.00 97.50" xmlns="http://www.w3.org/2000/svg" xmlns:xlink="http://www.w3.org/1999/xlink">
<g id="graph0" class="graph" transform="scale(1 1) rotate(0) translate(4 93.5)">
<title>concurrent_cfg_baset&lt; T, P, I &gt;</title>
<!-- Node1 -->
<g id="Node000001" class="node">
<title>Node1</title>
<g id="a_Node000001"><a xlink:title=" ">
<polygon fill="#999999" stroke="#666666" points="386,-62.5 265,-62.5 265,-32.5 386,-32.5 386,-62.5"/>
<text text-anchor="start" x="273" y="-50.5" font-family="Helvetica,sans-Serif" font-size="10.00">concurrent_cfg_baset</text>
<text text-anchor="middle" x="325.5" y="-39.5" font-family="Helvetica,sans-Serif" font-size="10.00">&lt; T, P, I &gt;</text>
</a>
</g>
</g>
<!-- Node4 -->
<g id="Node000004" class="node">
<title>Node4</title>
<g id="a_Node000004"><a xlink:href="classprocedure__local__concurrent__cfg__baset.html" target="_top" xlink:title=" ">
<polygon fill="white" stroke="#666666" points="741,-89.5 590,-89.5 590,-59.5 741,-59.5 741,-89.5"/>
<text text-anchor="start" x="598" y="-77.5" font-family="Helvetica,sans-Serif" font-size="10.00">procedure_local_concurrent</text>
<text text-anchor="middle" x="665.5" y="-66.5" font-family="Helvetica,sans-Serif" font-size="10.00">_cfg_baset&lt; T, P, I &gt;</text>
</a>
</g>
</g>
<!-- Node1&#45;&gt;Node4 -->
<g id="edge3_Node000001_Node000004" class="edge">
<title>Node1&#45;&gt;Node4</title>
<g id="a_edge3_Node000001_Node000004"><a xlink:title=" ">
<path fill="none" stroke="#63b8ff" d="M396.41,-53.08C452.86,-57.59 532.1,-63.92 589.79,-68.53"/>
<polygon fill="#63b8ff" stroke="#63b8ff" points="396.4,-49.57 386.15,-52.26 395.84,-56.55 396.4,-49.57"/>
</a>
</g>
</g>
<!-- Node5 -->
<g id="Node000005" class="node">
<title>Node5</title>
<g id="a_Node000005"><a xlink:href="classconcurrent__cfg__baset.html" target="_top" xlink:title=" ">
<polygon fill="white" stroke="#666666" points="752,-41 579,-41 579,0 752,0 752,-41"/>
<text text-anchor="start" x="587" y="-29" font-family="Helvetica,sans-Serif" font-size="10.00">concurrent_cfg_baset</text>
<text text-anchor="start" x="587" y="-18" font-family="Helvetica,sans-Serif" font-size="10.00">&lt; T, const goto_programt,</text>
<text text-anchor="middle" x="665.5" y="-7" font-family="Helvetica,sans-Serif" font-size="10.00"> goto_programt::const_targett &gt;</text>
</a>
</g>
</g>
<!-- Node1&#45;&gt;Node5 -->
<g id="edge4_Node000001_Node000005" class="edge">
<title>Node1&#45;&gt;Node5</title>
<g id="a_edge4_Node000001_Node000005"><a xlink:title=" ">
<path fill="none" stroke="orange" stroke-dasharray="5,2" d="M391.51,-30.52C395.72,-29.74 399.91,-29.06 404,-28.5 461.95,-20.6 527.78,-18.63 578.77,-18.63"/>
<polygon fill="orange" stroke="orange" points="390.81,-27.09 381.69,-32.48 392.18,-33.96 390.81,-27.09"/>
</a>
</g>
<text text-anchor="start" x="404" y="-42.5" font-family="Helvetica,sans-Serif" font-size="10.00" fill="grey"> &lt; T, const goto_programt,</text>
<text text-anchor="middle" x="482.5" y="-31.5" font-family="Helvetica,sans-Serif" font-size="10.00" fill="grey"> goto_programt::const_targett &gt;</text>
</g>
<!-- Node2 -->
<g id="Node000002" class="node">
<title>Node2</title>
<g id="a_Node000002"><a xlink:href="classcfg__baset.html" target="_top" xlink:title="A multi&#45;procedural control flow graph (CFG) whose nodes store references to instructions in a GOTO pr...">
<polygon fill="white" stroke="#666666" points="228,-57 115,-57 115,-38 228,-38 228,-57"/>
<text text-anchor="middle" x="171.5" y="-45" font-family="Helvetica,sans-Serif" font-size="10.00">cfg_baset&lt; T, P, I &gt;</text>
</a>
</g>
</g>
<!-- Node2&#45;&gt;Node1 -->
<g id="edge1_Node000001_Node000002" class="edge">
<title>Node2&#45;&gt;Node1</title>
<g id="a_edge1_Node000001_Node000002"><a xlink:title=" ">
<path fill="none" stroke="#63b8ff" d="M238.46,-47.5C247.26,-47.5 256.25,-47.5 264.94,-47.5"/>
<polygon fill="#63b8ff" stroke="#63b8ff" points="238.24,-44 228.24,-47.5 238.24,-51 238.24,-44"/>
</a>
</g>
</g>
<!-- Node3 -->
<g id="Node000003" class="node">
<title>Node3</title>
<g id="a_Node000003"><a xlink:href="classgrapht.html" target="_top" xlink:title="A generic directed graph with a parametric node type.">
<polygon fill="white" stroke="#666666" points="78,-57 0,-57 0,-38 78,-38 78,-57"/>
<text text-anchor="middle" x="39" y="-45" font-family="Helvetica,sans-Serif" font-size="10.00">grapht&lt; N &gt;</text>
</a>
</g>
</g>
<!-- Node3&#45;&gt;Node2 -->
<g id="edge2_Node000002_Node000003" class="edge">
<title>Node3&#45;&gt;Node2</title>
<g id="a_edge2_Node000002_Node000003"><a xlink:title=" ">
<path fill="none" stroke="#63b8ff" d="M88.31,-47.5C96.89,-47.5 105.89,-47.5 114.65,-47.5"/>
<polygon fill="#63b8ff" stroke="#63b8ff" points="88.1,-44 78.1,-47.5 88.1,-51 88.1,-44"/>
</a>
</g>
</g>
</g>
</svg>
