<?xml version="1.0" encoding="UTF-8" standalone="no"?>
<!DOCTYPE svg PUBLIC "-//W3C//DTD SVG 1.1//EN"
 "http://www.w3.org/Graphics/SVG/1.1/DTD/svg11.dtd">
<!-- Generated by graphviz version 2.43.0 (0)
 -->
<!-- Title: language_filest Pages: 1 -->
<svg width="1424pt" height="345pt"
 viewBox="0.00 0.00 1424.00 344.50" xmlns="http://www.w3.org/2000/svg" xmlns:xlink="http://www.w3.org/1999/xlink">
<g id="graph0" class="graph" transform="scale(1 1) rotate(0) translate(4 340.5)">
<title>language_filest</title>
<!-- Node1 -->
<g id="Node000001" class="node">
<title>Node1</title>
<g id="a_Node000001"><a xlink:title=" ">
<polygon fill="#999999" stroke="#666666" points="1416,-163.5 1325,-163.5 1325,-144.5 1416,-144.5 1416,-163.5"/>
<text text-anchor="middle" x="1370.5" y="-151.5" font-family="Helvetica,sans-Serif" font-size="10.00">language_filest</text>
</a>
</g>
</g>
<!-- Node2 -->
<g id="Node000002" class="node">
<title>Node2</title>
<g id="a_Node000002"><a xlink:title=" ">
<polygon fill="white" stroke="#666666" points="1015,-165 893,-165 893,-135 1015,-135 1015,-165"/>
<text text-anchor="start" x="901" y="-153" font-family="Helvetica,sans-Serif" font-size="10.00">std::map&lt; std::string,</text>
<text text-anchor="middle" x="954" y="-142" font-family="Helvetica,sans-Serif" font-size="10.00"> language_filet &gt;</text>
</a>
</g>
</g>
<!-- Node2&#45;&gt;Node1 -->
<g id="edge1_Node000001_Node000002" class="edge">
<title>Node2&#45;&gt;Node1</title>
<g id="a_edge1_Node000001_Node000002"><a xlink:title=" ">
<path fill="none" stroke="#9a32cd" stroke-dasharray="5,2" d="M1025.42,-150.68C1111.01,-151.51 1252.88,-152.87 1324.77,-153.57"/>
<polygon fill="#9a32cd" stroke="#9a32cd" points="1025.31,-147.18 1015.27,-150.58 1025.24,-154.18 1025.31,-147.18"/>
</a>
</g>
<text text-anchor="middle" x="1161" y="-155" font-family="Helvetica,sans-Serif" font-size="10.00" fill="grey"> file_map</text>
</g>
<!-- Node3 -->
<g id="Node000003" class="node">
<title>Node3</title>
<g id="a_Node000003"><a xlink:title=" ">
<polygon fill="white" stroke="#666666" points="257.5,-86.5 192.5,-86.5 192.5,-67.5 257.5,-67.5 257.5,-86.5"/>
<text text-anchor="middle" x="225" y="-74.5" font-family="Helvetica,sans-Serif" font-size="10.00">std::string</text>
</a>
</g>
</g>
<!-- Node3&#45;&gt;Node2 -->
<g id="edge2_Node000002_Node000003" class="edge">
<title>Node3&#45;&gt;Node2</title>
<g id="a_edge2_Node000002_Node000003"><a xlink:title=" ">
<path fill="none" stroke="#9a32cd" stroke-dasharray="5,2" d="M267.91,-75.04C393.54,-69.75 765.11,-58.54 875,-105 885.14,-109.28 883.9,-115.82 893,-122 900.04,-126.78 908.02,-131.14 915.81,-134.91"/>
<polygon fill="#9a32cd" stroke="#9a32cd" points="267.4,-71.56 257.56,-75.49 267.7,-78.55 267.4,-71.56"/>
</a>
</g>
<text text-anchor="middle" x="598.5" y="-75" font-family="Helvetica,sans-Serif" font-size="10.00" fill="grey"> keys</text>
</g>
<!-- Node5 -->
<g id="Node000005" class="node">
<title>Node5</title>
<g id="a_Node000005"><a xlink:href="classlanguage__filet.html" target="_top" xlink:title=" ">
<polygon fill="white" stroke="#666666" points="734.5,-159.5 648.5,-159.5 648.5,-140.5 734.5,-140.5 734.5,-159.5"/>
<text text-anchor="middle" x="691.5" y="-147.5" font-family="Helvetica,sans-Serif" font-size="10.00">language_filet</text>
</a>
</g>
</g>
<!-- Node3&#45;&gt;Node5 -->
<g id="edge13_Node000005_Node000003" class="edge">
<title>Node3&#45;&gt;Node5</title>
<g id="a_edge13_Node000005_Node000003"><a xlink:title=" ">
<path fill="none" stroke="#9a32cd" stroke-dasharray="5,2" d="M267.68,-84.92C278.82,-86.97 290.86,-89.13 302,-91 427.81,-112.14 577.12,-133.87 648.46,-144.06"/>
<polygon fill="#9a32cd" stroke="#9a32cd" points="268.23,-81.46 257.76,-83.08 266.95,-88.35 268.23,-81.46"/>
</a>
</g>
<text text-anchor="middle" x="475.5" y="-133" font-family="Helvetica,sans-Serif" font-size="10.00" fill="grey"> filename</text>
</g>
<!-- Node6 -->
<g id="Node000006" class="node">
<title>Node6</title>
<g id="a_Node000006"><a xlink:title=" ">
<polygon fill="white" stroke="#666666" points="537.5,-218.5 413.5,-218.5 413.5,-199.5 537.5,-199.5 537.5,-218.5"/>
<text text-anchor="middle" x="475.5" y="-206.5" font-family="Helvetica,sans-Serif" font-size="10.00">std::set&lt; std::string &gt;</text>
</a>
</g>
</g>
<!-- Node3&#45;&gt;Node6 -->
<g id="edge6_Node000006_Node000003" class="edge">
<title>Node3&#45;&gt;Node6</title>
<g id="a_edge6_Node000006_Node000003"><a xlink:title=" ">
<path fill="none" stroke="#9a32cd" stroke-dasharray="5,2" d="M250.84,-92.38C262.45,-100.72 275.54,-111.99 284,-125 300.11,-149.77 279.52,-169.83 302,-189 318.46,-203.03 370.67,-207.62 413.38,-208.94"/>
<polygon fill="#9a32cd" stroke="#9a32cd" points="252.59,-89.34 242.36,-86.59 248.65,-95.12 252.59,-89.34"/>
</a>
</g>
<text text-anchor="middle" x="339.5" y="-209" font-family="Helvetica,sans-Serif" font-size="10.00" fill="grey"> keys</text>
</g>
<!-- Node14 -->
<g id="Node000014" class="node">
<title>Node14</title>
<g id="a_Node000014"><a xlink:title=" ">
<polygon fill="white" stroke="#666666" points="1222,-118 1100,-118 1100,-88 1222,-88 1222,-118"/>
<text text-anchor="start" x="1108" y="-106" font-family="Helvetica,sans-Serif" font-size="10.00">std::map&lt; std::string,</text>
<text text-anchor="middle" x="1161" y="-95" font-family="Helvetica,sans-Serif" font-size="10.00"> language_modulet &gt;</text>
</a>
</g>
</g>
<!-- Node3&#45;&gt;Node14 -->
<g id="edge18_Node000014_Node000003" class="edge">
<title>Node3&#45;&gt;Node14</title>
<g id="a_edge18_Node000014_Node000003"><a xlink:title=" ">
<path fill="none" stroke="#9a32cd" stroke-dasharray="5,2" d="M252.83,-62.83C297.51,-40.59 390.55,0 474.5,0 474.5,0 474.5,0 955,0 1032.27,0 1110.16,-59.15 1143.35,-87.8"/>
<polygon fill="#9a32cd" stroke="#9a32cd" points="251.14,-59.76 243.8,-67.4 254.31,-66.01 251.14,-59.76"/>
</a>
</g>
<text text-anchor="middle" x="691.5" y="-3" font-family="Helvetica,sans-Serif" font-size="10.00" fill="grey"> keys</text>
</g>
<!-- Node15 -->
<g id="Node000015" class="node">
<title>Node15</title>
<g id="a_Node000015"><a xlink:href="classlanguage__modulet.html" target="_top" xlink:title=" ">
<polygon fill="white" stroke="#666666" points="1007.5,-112.5 900.5,-112.5 900.5,-93.5 1007.5,-93.5 1007.5,-112.5"/>
<text text-anchor="middle" x="954" y="-100.5" font-family="Helvetica,sans-Serif" font-size="10.00">language_modulet</text>
</a>
</g>
</g>
<!-- Node3&#45;&gt;Node15 -->
<g id="edge20_Node000015_Node000003" class="edge">
<title>Node3&#45;&gt;Node15</title>
<g id="a_edge20_Node000015_Node000003"><a xlink:title=" ">
<path fill="none" stroke="#9a32cd" stroke-dasharray="5,2" d="M267.38,-67.92C371.76,-46.77 653.22,-0.53 875,-63 898.73,-69.68 923.66,-83.93 938.77,-93.48"/>
<polygon fill="#9a32cd" stroke="#9a32cd" points="266.64,-64.5 257.55,-69.95 268.05,-71.36 266.64,-64.5"/>
</a>
</g>
<text text-anchor="middle" x="598.5" y="-35" font-family="Helvetica,sans-Serif" font-size="10.00" fill="grey"> name</text>
</g>
<!-- Node4 -->
<g id="Node000004" class="node">
<title>Node4</title>
<g id="a_Node000004"><a xlink:title=" ">
<polygon fill="white" stroke="#666666" points="104,-92 0,-92 0,-62 104,-62 104,-92"/>
<text text-anchor="start" x="8" y="-80" font-family="Helvetica,sans-Serif" font-size="10.00">std::basic_string&lt;</text>
<text text-anchor="middle" x="52" y="-69" font-family="Helvetica,sans-Serif" font-size="10.00"> Char &gt;</text>
</a>
</g>
</g>
<!-- Node4&#45;&gt;Node3 -->
<g id="edge3_Node000003_Node000004" class="edge">
<title>Node4&#45;&gt;Node3</title>
<g id="a_edge3_Node000003_Node000004"><a xlink:title=" ">
<path fill="none" stroke="#63b8ff" d="M114.6,-77C140.94,-77 170.58,-77 192.35,-77"/>
<polygon fill="#63b8ff" stroke="#63b8ff" points="114.31,-73.5 104.31,-77 114.31,-80.5 114.31,-73.5"/>
</a>
</g>
</g>
<!-- Node5&#45;&gt;Node2 -->
<g id="edge4_Node000002_Node000005" class="edge">
<title>Node5&#45;&gt;Node2</title>
<g id="a_edge4_Node000002_Node000005"><a xlink:title=" ">
<path fill="none" stroke="#9a32cd" stroke-dasharray="5,2" d="M744.97,-145.73C750.04,-145.43 755.12,-145.18 760,-145 811.08,-143.11 823.92,-143.36 875,-145 880.83,-145.19 886.91,-145.45 892.97,-145.76"/>
<polygon fill="#9a32cd" stroke="#9a32cd" points="744.36,-142.26 734.6,-146.4 744.81,-149.25 744.36,-142.26"/>
</a>
</g>
<text text-anchor="middle" x="817.5" y="-148" font-family="Helvetica,sans-Serif" font-size="10.00" fill="grey"> elements</text>
</g>
<!-- Node5&#45;&gt;Node15 -->
<g id="edge21_Node000015_Node000005" class="edge">
<title>Node5&#45;&gt;Node15</title>
<g id="a_edge21_Node000015_Node000005"><a xlink:title=" ">
<path fill="none" stroke="#9a32cd" stroke-dasharray="5,2" d="M727.65,-137.17C737.97,-133.78 749.34,-130.41 760,-128 806.8,-117.44 861.06,-110.9 900.11,-107.17"/>
<polygon fill="#9a32cd" stroke="#9a32cd" points="726.5,-133.87 718.15,-140.39 728.74,-140.5 726.5,-133.87"/>
</a>
</g>
<text text-anchor="middle" x="817.5" y="-131" font-family="Helvetica,sans-Serif" font-size="10.00" fill="grey"> file</text>
</g>
<!-- Node16 -->
<g id="Node000016" class="node">
<title>Node16</title>
<g id="a_Node000016"><a xlink:title=" ">
<polygon fill="white" stroke="#666666" points="1009,-291 899,-291 899,-261 1009,-261 1009,-291"/>
<text text-anchor="start" x="907" y="-279" font-family="Helvetica,sans-Serif" font-size="10.00">std::map&lt; irep_idt,</text>
<text text-anchor="middle" x="954" y="-268" font-family="Helvetica,sans-Serif" font-size="10.00"> language_filet * &gt;</text>
</a>
</g>
</g>
<!-- Node5&#45;&gt;Node16 -->
<g id="edge25_Node000016_Node000005" class="edge">
<title>Node5&#45;&gt;Node16</title>
<g id="a_edge25_Node000016_Node000005"><a xlink:title=" ">
<path fill="none" stroke="#9a32cd" stroke-dasharray="5,2" d="M709.51,-166.58C722.5,-178.53 741.28,-194.36 760,-205 807.3,-231.89 823.94,-228.19 875,-247 887.2,-251.5 900.46,-256.41 912.53,-260.9"/>
<polygon fill="#9a32cd" stroke="#9a32cd" points="711.91,-164.04 702.23,-159.73 707.11,-169.13 711.91,-164.04"/>
</a>
</g>
<text text-anchor="middle" x="817.5" y="-250" font-family="Helvetica,sans-Serif" font-size="10.00" fill="grey"> elements</text>
</g>
<!-- Node6&#45;&gt;Node5 -->
<g id="edge5_Node000005_Node000006" class="edge">
<title>Node6&#45;&gt;Node5</title>
<g id="a_edge5_Node000005_Node000006"><a xlink:title=" ">
<path fill="none" stroke="#9a32cd" stroke-dasharray="5,2" d="M525.25,-196.98C553.82,-189.77 590.56,-180.25 623,-171 635.51,-167.43 649.23,-163.22 661.02,-159.51"/>
<polygon fill="#9a32cd" stroke="#9a32cd" points="524.35,-193.59 515.5,-199.42 526.05,-200.38 524.35,-193.59"/>
</a>
</g>
<text text-anchor="middle" x="598.5" y="-187" font-family="Helvetica,sans-Serif" font-size="10.00" fill="grey"> modules</text>
</g>
<!-- Node7 -->
<g id="Node000007" class="node">
<title>Node7</title>
<g id="a_Node000007"><a xlink:title=" ">
<polygon fill="white" stroke="#666666" points="266,-294.5 184,-294.5 184,-275.5 266,-275.5 266,-294.5"/>
<text text-anchor="middle" x="225" y="-282.5" font-family="Helvetica,sans-Serif" font-size="10.00">std::set&lt; K &gt;</text>
</a>
</g>
</g>
<!-- Node7&#45;&gt;Node6 -->
<g id="edge7_Node000006_Node000007" class="edge">
<title>Node7&#45;&gt;Node6</title>
<g id="a_edge7_Node000006_Node000007"><a xlink:title=" ">
<path fill="none" stroke="orange" stroke-dasharray="5,2" d="M276.47,-281.2C306.3,-277.93 344.47,-271.92 377,-261 408.46,-250.44 441.93,-230.41 460.32,-218.52"/>
<polygon fill="orange" stroke="orange" points="275.88,-277.75 266.29,-282.25 276.59,-284.71 275.88,-277.75"/>
</a>
</g>
<text text-anchor="middle" x="339.5" y="-280" font-family="Helvetica,sans-Serif" font-size="10.00" fill="grey"> &lt; std::string &gt;</text>
</g>
<!-- Node8 -->
<g id="Node000008" class="node">
<title>Node8</title>
<g id="a_Node000008"><a xlink:title=" ">
<polygon fill="white" stroke="#666666" points="66.5,-319.5 37.5,-319.5 37.5,-300.5 66.5,-300.5 66.5,-319.5"/>
<text text-anchor="middle" x="52" y="-307.5" font-family="Helvetica,sans-Serif" font-size="10.00">K</text>
</a>
</g>
</g>
<!-- Node8&#45;&gt;Node7 -->
<g id="edge8_Node000007_Node000008" class="edge">
<title>Node8&#45;&gt;Node7</title>
<g id="a_edge8_Node000007_Node000008"><a xlink:title=" ">
<path fill="none" stroke="#9a32cd" stroke-dasharray="5,2" d="M76.91,-305.57C90.17,-303.18 106.97,-300.26 122,-298 142.3,-294.94 164.95,-292.01 183.73,-289.7"/>
<polygon fill="#9a32cd" stroke="#9a32cd" points="75.93,-302.19 66.72,-307.43 77.18,-309.07 75.93,-302.19"/>
</a>
</g>
<text text-anchor="middle" x="135" y="-301" font-family="Helvetica,sans-Serif" font-size="10.00" fill="grey"> keys</text>
</g>
<!-- Node13 -->
<g id="Node000013" class="node">
<title>Node13</title>
<g id="a_Node000013"><a xlink:title=" ">
<polygon fill="white" stroke="#666666" points="742,-256.5 641,-256.5 641,-237.5 742,-237.5 742,-256.5"/>
<text text-anchor="middle" x="691.5" y="-244.5" font-family="Helvetica,sans-Serif" font-size="10.00">std::map&lt; K, T &gt;</text>
</a>
</g>
</g>
<!-- Node8&#45;&gt;Node13 -->
<g id="edge15_Node000013_Node000008" class="edge">
<title>Node8&#45;&gt;Node13</title>
<g id="a_edge15_Node000013_Node000008"><a xlink:title=" ">
<path fill="none" stroke="#9a32cd" stroke-dasharray="5,2" d="M76.77,-309.92C95.99,-309.82 123.74,-309.57 148,-309 208.47,-307.57 223.72,-308.99 284,-304 328.21,-300.34 491.53,-279.49 623,-259 628.76,-258.1 634.79,-257.11 640.78,-256.09"/>
<polygon fill="#9a32cd" stroke="#9a32cd" points="76.52,-306.42 66.53,-309.97 76.55,-313.42 76.52,-306.42"/>
</a>
</g>
<text text-anchor="middle" x="339.5" y="-305" font-family="Helvetica,sans-Serif" font-size="10.00" fill="grey"> keys</text>
</g>
<!-- Node9 -->
<g id="Node000009" class="node">
<title>Node9</title>
<g id="a_Node000009"><a xlink:title=" ">
<polygon fill="white" stroke="#666666" points="556,-171.5 395,-171.5 395,-152.5 556,-152.5 556,-171.5"/>
<text text-anchor="middle" x="475.5" y="-159.5" font-family="Helvetica,sans-Serif" font-size="10.00">std::unique_ptr&lt; languaget &gt;</text>
</a>
</g>
</g>
<!-- Node9&#45;&gt;Node5 -->
<g id="edge9_Node000005_Node000009" class="edge">
<title>Node9&#45;&gt;Node5</title>
<g id="a_edge9_Node000005_Node000009"><a xlink:title=" ">
<path fill="none" stroke="#9a32cd" stroke-dasharray="5,2" d="M566.17,-156.97C594.64,-155.38 624.79,-153.68 648.27,-152.37"/>
<polygon fill="#9a32cd" stroke="#9a32cd" points="565.97,-153.48 556.19,-157.53 566.37,-160.47 565.97,-153.48"/>
</a>
</g>
<text text-anchor="middle" x="598.5" y="-159" font-family="Helvetica,sans-Serif" font-size="10.00" fill="grey"> language</text>
</g>
<!-- Node10 -->
<g id="Node000010" class="node">
<title>Node10</title>
<g id="a_Node000010"><a xlink:href="classlanguaget.html" target="_top" xlink:title=" ">
<polygon fill="white" stroke="#666666" points="257.5,-189.5 192.5,-189.5 192.5,-170.5 257.5,-170.5 257.5,-189.5"/>
<text text-anchor="middle" x="225" y="-177.5" font-family="Helvetica,sans-Serif" font-size="10.00">languaget</text>
</a>
</g>
</g>
<!-- Node10&#45;&gt;Node9 -->
<g id="edge10_Node000009_Node000010" class="edge">
<title>Node10&#45;&gt;Node9</title>
<g id="a_edge10_Node000009_Node000010"><a xlink:title=" ">
<path fill="none" stroke="#9a32cd" stroke-dasharray="5,2" d="M267.95,-176.96C302.6,-174.45 352.76,-170.82 394.97,-167.76"/>
<polygon fill="#9a32cd" stroke="#9a32cd" points="267.45,-173.49 257.73,-177.7 267.95,-180.47 267.45,-173.49"/>
</a>
</g>
<text text-anchor="middle" x="339.5" y="-177" font-family="Helvetica,sans-Serif" font-size="10.00" fill="grey"> ptr</text>
</g>
<!-- Node11 -->
<g id="Node000011" class="node">
<title>Node11</title>
<g id="a_Node000011"><a xlink:title=" ">
<polygon fill="white" stroke="#666666" points="284,-152.5 166,-152.5 166,-133.5 284,-133.5 284,-152.5"/>
<text text-anchor="middle" x="225" y="-140.5" font-family="Helvetica,sans-Serif" font-size="10.00">std::unique_ptr&lt; T &gt;</text>
</a>
</g>
</g>
<!-- Node11&#45;&gt;Node9 -->
<g id="edge11_Node000009_Node000011" class="edge">
<title>Node11&#45;&gt;Node9</title>
<g id="a_edge11_Node000009_Node000011"><a xlink:title=" ">
<path fill="none" stroke="orange" stroke-dasharray="5,2" d="M294.2,-147.83C320.12,-149.71 349.93,-151.9 377,-154 382.84,-154.45 388.88,-154.93 394.96,-155.41"/>
<polygon fill="orange" stroke="orange" points="294.32,-144.33 284.09,-147.11 293.81,-151.32 294.32,-144.33"/>
</a>
</g>
<text text-anchor="middle" x="339.5" y="-157" font-family="Helvetica,sans-Serif" font-size="10.00" fill="grey"> &lt; languaget &gt;</text>
</g>
<!-- Node12 -->
<g id="Node000012" class="node">
<title>Node12</title>
<g id="a_Node000012"><a xlink:title=" ">
<polygon fill="white" stroke="#666666" points="66.5,-243.5 37.5,-243.5 37.5,-224.5 66.5,-224.5 66.5,-243.5"/>
<text text-anchor="middle" x="52" y="-231.5" font-family="Helvetica,sans-Serif" font-size="10.00">T</text>
</a>
</g>
</g>
<!-- Node12&#45;&gt;Node11 -->
<g id="edge12_Node000011_Node000012" class="edge">
<title>Node12&#45;&gt;Node11</title>
<g id="a_edge12_Node000011_Node000012"><a xlink:title=" ">
<path fill="none" stroke="#9a32cd" stroke-dasharray="5,2" d="M73.85,-218.44C95.86,-202.58 132,-178.09 166,-162 173.57,-158.42 181.99,-155.24 190.01,-152.55"/>
<polygon fill="#9a32cd" stroke="#9a32cd" points="71.62,-215.74 65.61,-224.46 75.75,-221.39 71.62,-215.74"/>
</a>
</g>
<text text-anchor="middle" x="135" y="-187" font-family="Helvetica,sans-Serif" font-size="10.00" fill="grey"> ptr</text>
</g>
<!-- Node12&#45;&gt;Node13 -->
<g id="edge16_Node000013_Node000012" class="edge">
<title>Node12&#45;&gt;Node13</title>
<g id="a_edge16_Node000013_Node000012"><a xlink:title=" ">
<path fill="none" stroke="#9a32cd" stroke-dasharray="5,2" d="M76.7,-234.48C169.84,-236.38 511.87,-243.36 640.84,-245.99"/>
<polygon fill="#9a32cd" stroke="#9a32cd" points="76.68,-230.98 66.61,-234.28 76.54,-237.98 76.68,-230.98"/>
</a>
</g>
<text text-anchor="middle" x="339.5" y="-243" font-family="Helvetica,sans-Serif" font-size="10.00" fill="grey"> elements</text>
</g>
<!-- Node13&#45;&gt;Node2 -->
<g id="edge14_Node000002_Node000013" class="edge">
<title>Node13&#45;&gt;Node2</title>
<g id="a_edge14_Node000002_Node000013"><a xlink:title=" ">
<path fill="none" stroke="orange" stroke-dasharray="5,2" d="M705.27,-228.67C717.41,-212.78 737.18,-190.57 760,-179 782.67,-167.51 845.03,-159.53 892.79,-154.89"/>
<polygon fill="orange" stroke="orange" points="702.13,-227.04 699.04,-237.17 707.77,-231.18 702.13,-227.04"/>
</a>
</g>
<text text-anchor="start" x="760" y="-193" font-family="Helvetica,sans-Serif" font-size="10.00" fill="grey"> &lt; std::string, language</text>
<text text-anchor="middle" x="817.5" y="-182" font-family="Helvetica,sans-Serif" font-size="10.00" fill="grey">_filet &gt;</text>
</g>
<!-- Node13&#45;&gt;Node14 -->
<g id="edge22_Node000014_Node000013" class="edge">
<title>Node13&#45;&gt;Node14</title>
<g id="a_edge22_Node000014_Node000013"><a xlink:title=" ">
<path fill="none" stroke="orange" stroke-dasharray="5,2" d="M736.98,-234.81C744.64,-232.81 752.54,-230.8 760,-229 872.71,-201.83 905.46,-212 1015,-174 1058.43,-158.94 1105.72,-134.03 1134.11,-118.08"/>
<polygon fill="orange" stroke="orange" points="735.87,-231.49 727.1,-237.43 737.67,-238.25 735.87,-231.49"/>
</a>
</g>
<text text-anchor="start" x="896.5" y="-218" font-family="Helvetica,sans-Serif" font-size="10.00" fill="grey"> &lt; std::string, language</text>
<text text-anchor="middle" x="954" y="-207" font-family="Helvetica,sans-Serif" font-size="10.00" fill="grey">_modulet &gt;</text>
</g>
<!-- Node13&#45;&gt;Node16 -->
<g id="edge26_Node000016_Node000013" class="edge">
<title>Node13&#45;&gt;Node16</title>
<g id="a_edge26_Node000016_Node000013"><a xlink:title=" ">
<path fill="none" stroke="orange" stroke-dasharray="5,2" d="M748.65,-258.29C752.48,-258.91 756.29,-259.49 760,-260 806.63,-266.4 859.98,-270.59 898.75,-273.07"/>
<polygon fill="orange" stroke="orange" points="748.95,-254.79 738.5,-256.54 747.77,-261.69 748.95,-254.79"/>
</a>
</g>
<text text-anchor="start" x="766" y="-285" font-family="Helvetica,sans-Serif" font-size="10.00" fill="grey"> &lt; irep_idt, language</text>
<text text-anchor="middle" x="817.5" y="-274" font-family="Helvetica,sans-Serif" font-size="10.00" fill="grey">_filet * &gt;</text>
</g>
<!-- Node14&#45;&gt;Node1 -->
<g id="edge17_Node000001_Node000014" class="edge">
<title>Node14&#45;&gt;Node1</title>
<g id="a_edge17_Node000001_Node000014"><a xlink:title=" ">
<path fill="none" stroke="#9a32cd" stroke-dasharray="5,2" d="M1232.31,-112.65C1256.25,-116.72 1283.01,-122.13 1307,-129 1321.27,-133.09 1336.76,-139.27 1348.75,-144.47"/>
<polygon fill="#9a32cd" stroke="#9a32cd" points="1232.67,-109.17 1222.24,-110.99 1231.54,-116.07 1232.67,-109.17"/>
</a>
</g>
<text text-anchor="middle" x="1273.5" y="-132" font-family="Helvetica,sans-Serif" font-size="10.00" fill="grey"> module_map</text>
</g>
<!-- Node15&#45;&gt;Node14 -->
<g id="edge19_Node000014_Node000015" class="edge">
<title>Node15&#45;&gt;Node14</title>
<g id="a_edge19_Node000014_Node000015"><a xlink:title=" ">
<path fill="none" stroke="#9a32cd" stroke-dasharray="5,2" d="M1017.71,-103C1043.87,-103 1074.13,-103 1099.99,-103"/>
<polygon fill="#9a32cd" stroke="#9a32cd" points="1017.53,-99.5 1007.53,-103 1017.53,-106.5 1017.53,-99.5"/>
</a>
</g>
<text text-anchor="middle" x="1057.5" y="-106" font-family="Helvetica,sans-Serif" font-size="10.00" fill="grey"> elements</text>
</g>
<!-- Node16&#45;&gt;Node1 -->
<g id="edge23_Node000001_Node000016" class="edge">
<title>Node16&#45;&gt;Node1</title>
<g id="a_edge23_Node000001_Node000016"><a xlink:title=" ">
<path fill="none" stroke="#9a32cd" stroke-dasharray="5,2" d="M1015.95,-258.06C1105.12,-231.82 1268.02,-183.87 1337.13,-163.53"/>
<polygon fill="#9a32cd" stroke="#9a32cd" points="1014.85,-254.74 1006.24,-260.92 1016.82,-261.45 1014.85,-254.74"/>
</a>
</g>
<text text-anchor="middle" x="1161" y="-236" font-family="Helvetica,sans-Serif" font-size="10.00" fill="grey"> lazy_method_map</text>
</g>
<!-- Node17 -->
<g id="Node000017" class="node">
<title>Node17</title>
<g id="a_Node000017"><a xlink:href="classdstringt.html" target="_top" xlink:title="dstringt has one field, an unsigned integer no which is an index into a static table of strings.">
<polygon fill="white" stroke="#666666" points="718.5,-336.5 664.5,-336.5 664.5,-317.5 718.5,-317.5 718.5,-336.5"/>
<text text-anchor="middle" x="691.5" y="-324.5" font-family="Helvetica,sans-Serif" font-size="10.00">dstringt</text>
</a>
</g>
</g>
<!-- Node17&#45;&gt;Node16 -->
<g id="edge24_Node000016_Node000017" class="edge">
<title>Node17&#45;&gt;Node16</title>
<g id="a_edge24_Node000016_Node000017"><a xlink:title=" ">
<path fill="none" stroke="#9a32cd" stroke-dasharray="5,2" d="M728.93,-322.11C765.91,-316.88 824.73,-307.87 875,-297 883.09,-295.25 891.59,-293.19 899.89,-291.06"/>
<polygon fill="#9a32cd" stroke="#9a32cd" points="728.07,-318.69 718.65,-323.54 729.03,-325.63 728.07,-318.69"/>
</a>
</g>
<text text-anchor="middle" x="817.5" y="-320" font-family="Helvetica,sans-Serif" font-size="10.00" fill="grey"> keys</text>
</g>
</g>
</svg>
