<?xml version="1.0" encoding="UTF-8" standalone="no"?>
<!DOCTYPE svg PUBLIC "-//W3C//DTD SVG 1.1//EN"
 "http://www.w3.org/Graphics/SVG/1.1/DTD/svg11.dtd">
<!-- Generated by graphviz version 2.43.0 (0)
 -->
<!-- Title: satcheck_zchafft Pages: 1 -->
<svg width="672pt" height="569pt"
 viewBox="0.00 0.00 671.50 569.00" xmlns="http://www.w3.org/2000/svg" xmlns:xlink="http://www.w3.org/1999/xlink">
<g id="graph0" class="graph" transform="scale(1 1) rotate(0) translate(4 565)">
<title>satcheck_zchafft</title>
<!-- Node1 -->
<g id="Node000001" class="node">
<title>Node1</title>
<g id="a_Node000001"><a xlink:title=" ">
<polygon fill="#999999" stroke="#666666" points="185.5,-19 87.5,-19 87.5,0 185.5,0 185.5,-19"/>
<text text-anchor="middle" x="136.5" y="-7" font-family="Helvetica,sans-Serif" font-size="10.00">satcheck_zchafft</text>
</a>
</g>
</g>
<!-- Node2 -->
<g id="Node000002" class="node">
<title>Node2</title>
<g id="a_Node000002"><a xlink:href="classsatcheck__zchaff__baset.html" target="_top" xlink:title=" ">
<polygon fill="white" stroke="#666666" points="200,-75 73,-75 73,-56 200,-56 200,-75"/>
<text text-anchor="middle" x="136.5" y="-63" font-family="Helvetica,sans-Serif" font-size="10.00">satcheck_zchaff_baset</text>
</a>
</g>
</g>
<!-- Node2&#45;&gt;Node1 -->
<g id="edge1_Node000001_Node000002" class="edge">
<title>Node2&#45;&gt;Node1</title>
<g id="a_edge1_Node000001_Node000002"><a xlink:title=" ">
<path fill="none" stroke="#63b8ff" d="M136.5,-45.3C136.5,-36.41 136.5,-26.28 136.5,-19.25"/>
<polygon fill="#63b8ff" stroke="#63b8ff" points="133,-45.58 136.5,-55.58 140,-45.58 133,-45.58"/>
</a>
</g>
</g>
<!-- Node3 -->
<g id="Node000003" class="node">
<title>Node3</title>
<g id="a_Node000003"><a xlink:href="classcnf__clause__listt.html" target="_top" xlink:title=" ">
<polygon fill="white" stroke="#666666" points="182.5,-131 90.5,-131 90.5,-112 182.5,-112 182.5,-131"/>
<text text-anchor="middle" x="136.5" y="-119" font-family="Helvetica,sans-Serif" font-size="10.00">cnf_clause_listt</text>
</a>
</g>
</g>
<!-- Node3&#45;&gt;Node2 -->
<g id="edge2_Node000002_Node000003" class="edge">
<title>Node3&#45;&gt;Node2</title>
<g id="a_edge2_Node000002_Node000003"><a xlink:title=" ">
<path fill="none" stroke="#63b8ff" d="M136.5,-101.3C136.5,-92.41 136.5,-82.28 136.5,-75.25"/>
<polygon fill="#63b8ff" stroke="#63b8ff" points="133,-101.58 136.5,-111.58 140,-101.58 133,-101.58"/>
</a>
</g>
</g>
<!-- Node4 -->
<g id="Node000004" class="node">
<title>Node4</title>
<g id="a_Node000004"><a xlink:href="classcnft.html" target="_top" xlink:title=" ">
<polygon fill="white" stroke="#666666" points="192,-187 157,-187 157,-168 192,-168 192,-187"/>
<text text-anchor="middle" x="174.5" y="-175" font-family="Helvetica,sans-Serif" font-size="10.00">cnft</text>
</a>
</g>
</g>
<!-- Node4&#45;&gt;Node3 -->
<g id="edge3_Node000003_Node000004" class="edge">
<title>Node4&#45;&gt;Node3</title>
<g id="a_edge3_Node000003_Node000004"><a xlink:title=" ">
<path fill="none" stroke="#63b8ff" d="M162.44,-159.36C155.86,-150 147.99,-138.83 142.66,-131.25"/>
<polygon fill="#63b8ff" stroke="#63b8ff" points="159.61,-161.42 168.23,-167.58 165.33,-157.39 159.61,-161.42"/>
</a>
</g>
</g>
<!-- Node5 -->
<g id="Node000005" class="node">
<title>Node5</title>
<g id="a_Node000005"><a xlink:href="classpropt.html" target="_top" xlink:title="TO_BE_DOCUMENTED.">
<polygon fill="white" stroke="#666666" points="254.5,-253 212.5,-253 212.5,-234 254.5,-234 254.5,-253"/>
<text text-anchor="middle" x="233.5" y="-241" font-family="Helvetica,sans-Serif" font-size="10.00">propt</text>
</a>
</g>
</g>
<!-- Node5&#45;&gt;Node4 -->
<g id="edge4_Node000004_Node000005" class="edge">
<title>Node5&#45;&gt;Node4</title>
<g id="a_edge4_Node000004_Node000005"><a xlink:title=" ">
<path fill="none" stroke="#63b8ff" d="M218.73,-226.48C207.34,-214.12 192.01,-197.49 182.71,-187.41"/>
<polygon fill="#63b8ff" stroke="#63b8ff" points="216.19,-228.89 225.54,-233.87 221.34,-224.14 216.19,-228.89"/>
</a>
</g>
</g>
<!-- Node6 -->
<g id="Node000006" class="node">
<title>Node6</title>
<g id="a_Node000006"><a xlink:title=" ">
<polygon fill="white" stroke="#666666" points="295,-319 172,-319 172,-300 295,-300 295,-319"/>
<text text-anchor="middle" x="233.5" y="-307" font-family="Helvetica,sans-Serif" font-size="10.00">std::vector&lt; literalt &gt;</text>
</a>
</g>
</g>
<!-- Node6&#45;&gt;Node5 -->
<g id="edge5_Node000005_Node000006" class="edge">
<title>Node6&#45;&gt;Node5</title>
<g id="a_edge5_Node000005_Node000006"><a xlink:title=" ">
<path fill="none" stroke="#9a32cd" stroke-dasharray="5,2" d="M233.5,-289.58C233.5,-277.63 233.5,-262.72 233.5,-253.41"/>
<polygon fill="#9a32cd" stroke="#9a32cd" points="230,-289.87 233.5,-299.87 237,-289.87 230,-289.87"/>
</a>
</g>
<text text-anchor="middle" x="253" y="-274" font-family="Helvetica,sans-Serif" font-size="10.00" fill="grey"> lcnf_bv</text>
</g>
<!-- Node7 -->
<g id="Node000007" class="node">
<title>Node7</title>
<g id="a_Node000007"><a xlink:href="classliteralt.html" target="_top" xlink:title=" ">
<polygon fill="white" stroke="#666666" points="283,-495 234,-495 234,-476 283,-476 283,-495"/>
<text text-anchor="middle" x="258.5" y="-483" font-family="Helvetica,sans-Serif" font-size="10.00">literalt</text>
</a>
</g>
</g>
<!-- Node7&#45;&gt;Node6 -->
<g id="edge6_Node000006_Node000007" class="edge">
<title>Node7&#45;&gt;Node6</title>
<g id="a_edge6_Node000006_Node000007"><a xlink:title=" ">
<path fill="none" stroke="#9a32cd" stroke-dasharray="5,2" d="M255.78,-465.56C250.4,-428.12 238.59,-345.95 234.74,-319.14"/>
<polygon fill="#9a32cd" stroke="#9a32cd" points="252.34,-466.23 257.23,-475.63 259.27,-465.24 252.34,-466.23"/>
</a>
</g>
<text text-anchor="middle" x="279" y="-395" font-family="Helvetica,sans-Serif" font-size="10.00" fill="grey"> elements</text>
</g>
<!-- Node8 -->
<g id="Node000008" class="node">
<title>Node8</title>
<g id="a_Node000008"><a xlink:title=" ">
<polygon fill="white" stroke="#666666" points="196,-495 99,-495 99,-476 196,-476 196,-495"/>
<text text-anchor="middle" x="147.5" y="-483" font-family="Helvetica,sans-Serif" font-size="10.00">std::vector&lt; T &gt;</text>
</a>
</g>
</g>
<!-- Node8&#45;&gt;Node6 -->
<g id="edge7_Node000006_Node000008" class="edge">
<title>Node8&#45;&gt;Node6</title>
<g id="a_edge7_Node000006_Node000008"><a xlink:title=" ">
<path fill="none" stroke="orange" stroke-dasharray="5,2" d="M153.38,-466.04C154.15,-463.36 154.88,-460.62 155.5,-458 168.08,-404.89 143.31,-380.33 176.5,-337 182.74,-328.86 192.08,-323.12 201.41,-319.12"/>
<polygon fill="orange" stroke="orange" points="150,-465.15 150.44,-475.74 156.69,-467.19 150,-465.15"/>
</a>
</g>
<text text-anchor="middle" x="205.5" y="-395" font-family="Helvetica,sans-Serif" font-size="10.00" fill="grey"> &lt; literalt &gt;</text>
</g>
<!-- Node29 -->
<g id="Node000029" class="node">
<title>Node29</title>
<g id="a_Node000029"><a xlink:title=" ">
<polygon fill="white" stroke="#666666" points="151,-319 60,-319 60,-300 151,-300 151,-319"/>
<text text-anchor="middle" x="105.5" y="-307" font-family="Helvetica,sans-Serif" font-size="10.00">std::list&lt; bvt &gt;</text>
</a>
</g>
</g>
<!-- Node8&#45;&gt;Node29 -->
<g id="edge16_Node000029_Node000008" class="edge">
<title>Node8&#45;&gt;Node29</title>
<g id="a_edge16_Node000029_Node000008"><a xlink:title=" ">
<path fill="none" stroke="#9a32cd" stroke-dasharray="5,2" d="M117.77,-470.52C113.25,-467.07 109.2,-462.92 106.5,-458 80.88,-411.3 96.23,-343.12 102.89,-319.19"/>
<polygon fill="#9a32cd" stroke="#9a32cd" points="115.92,-473.49 126.22,-475.98 119.72,-467.61 115.92,-473.49"/>
</a>
</g>
<text text-anchor="middle" x="131" y="-395" font-family="Helvetica,sans-Serif" font-size="10.00" fill="grey"> elements</text>
</g>
<!-- Node9 -->
<g id="Node000009" class="node">
<title>Node9</title>
<g id="a_Node000009"><a xlink:title=" ">
<polygon fill="white" stroke="#666666" points="108,-561 79,-561 79,-542 108,-542 108,-561"/>
<text text-anchor="middle" x="93.5" y="-549" font-family="Helvetica,sans-Serif" font-size="10.00">T</text>
</a>
</g>
</g>
<!-- Node9&#45;&gt;Node8 -->
<g id="edge8_Node000008_Node000009" class="edge">
<title>Node9&#45;&gt;Node8</title>
<g id="a_edge8_Node000008_Node000009"><a xlink:title=" ">
<path fill="none" stroke="#9a32cd" stroke-dasharray="5,2" d="M107.92,-534.01C110.78,-530.71 113.74,-527.25 116.5,-524 124.8,-514.2 134.17,-502.82 140.42,-495.19"/>
<polygon fill="#9a32cd" stroke="#9a32cd" points="105.14,-531.87 101.22,-541.71 110.42,-536.46 105.14,-531.87"/>
</a>
</g>
<text text-anchor="middle" x="150" y="-516" font-family="Helvetica,sans-Serif" font-size="10.00" fill="grey"> elements</text>
</g>
<!-- Node30 -->
<g id="Node000030" class="node">
<title>Node30</title>
<g id="a_Node000030"><a xlink:title=" ">
<polygon fill="white" stroke="#666666" points="81,-495 0,-495 0,-476 81,-476 81,-495"/>
<text text-anchor="middle" x="40.5" y="-483" font-family="Helvetica,sans-Serif" font-size="10.00">std::list&lt; T &gt;</text>
</a>
</g>
</g>
<!-- Node9&#45;&gt;Node30 -->
<g id="edge18_Node000030_Node000009" class="edge">
<title>Node9&#45;&gt;Node30</title>
<g id="a_edge18_Node000030_Node000009"><a xlink:title=" ">
<path fill="none" stroke="#9a32cd" stroke-dasharray="5,2" d="M77.42,-534.89C74.04,-531.4 70.57,-527.65 67.5,-524 59.54,-514.55 51.39,-502.9 46.15,-495.12"/>
<polygon fill="#9a32cd" stroke="#9a32cd" points="74.95,-537.37 84.49,-541.98 79.9,-532.43 74.95,-537.37"/>
</a>
</g>
<text text-anchor="middle" x="92" y="-516" font-family="Helvetica,sans-Serif" font-size="10.00" fill="grey"> elements</text>
</g>
<!-- Node10 -->
<g id="Node000010" class="node">
<title>Node10</title>
<g id="a_Node000010"><a xlink:href="classmessaget.html" target="_top" xlink:title="Class that provides messages with a built&#45;in verbosity &#39;level&#39;.">
<polygon fill="white" stroke="#666666" points="428,-319 363,-319 363,-300 428,-300 428,-319"/>
<text text-anchor="middle" x="395.5" y="-307" font-family="Helvetica,sans-Serif" font-size="10.00">messaget</text>
</a>
</g>
</g>
<!-- Node10&#45;&gt;Node5 -->
<g id="edge9_Node000005_Node000010" class="edge">
<title>Node10&#45;&gt;Node5</title>
<g id="a_edge9_Node000005_Node000010"><a xlink:title=" ">
<path fill="none" stroke="#9a32cd" stroke-dasharray="5,2" d="M364.25,-296.15C332.04,-283.43 282.7,-263.94 254.74,-252.89"/>
<polygon fill="#9a32cd" stroke="#9a32cd" points="363.07,-299.45 373.65,-299.87 365.64,-292.94 363.07,-299.45"/>
</a>
</g>
<text text-anchor="middle" x="334" y="-274" font-family="Helvetica,sans-Serif" font-size="10.00" fill="grey"> log</text>
</g>
<!-- Node15 -->
<g id="Node000015" class="node">
<title>Node15</title>
<g id="a_Node000015"><a xlink:href="classmessaget_1_1mstreamt.html" target="_top" xlink:title=" ">
<polygon fill="#fff0f0" stroke="red" points="453,-253 334,-253 334,-234 453,-234 453,-253"/>
<text text-anchor="middle" x="393.5" y="-241" font-family="Helvetica,sans-Serif" font-size="10.00">messaget::mstreamt</text>
</a>
</g>
</g>
<!-- Node10&#45;&gt;Node15 -->
<g id="edge14_Node000015_Node000010" class="edge">
<title>Node10&#45;&gt;Node15</title>
<g id="a_edge14_Node000015_Node000010"><a xlink:title=" ">
<path fill="none" stroke="#9a32cd" stroke-dasharray="5,2" d="M366.12,-294.16C361.85,-290.78 358.05,-286.74 355.5,-282 349.19,-270.24 362,-259.85 374.42,-253"/>
<polygon fill="#9a32cd" stroke="#9a32cd" points="364.44,-297.24 374.7,-299.88 368.32,-291.42 364.44,-297.24"/>
</a>
</g>
<text text-anchor="middle" x="379.5" y="-274" font-family="Helvetica,sans-Serif" font-size="10.00" fill="grey"> message</text>
</g>
<!-- Node11 -->
<g id="Node000011" class="node">
<title>Node11</title>
<g id="a_Node000011"><a xlink:href="classmessaget_1_1eomt.html" target="_top" xlink:title=" ">
<polygon fill="white" stroke="#666666" points="663.5,-495 567.5,-495 567.5,-476 663.5,-476 663.5,-495"/>
<text text-anchor="middle" x="615.5" y="-483" font-family="Helvetica,sans-Serif" font-size="10.00">messaget::eomt</text>
</a>
</g>
</g>
<!-- Node11&#45;&gt;Node10 -->
<g id="edge10_Node000010_Node000011" class="edge">
<title>Node11&#45;&gt;Node10</title>
<g id="a_edge10_Node000010_Node000011"><a xlink:title=" ">
<path fill="none" stroke="#9a32cd" stroke-dasharray="5,2" d="M619.01,-466C623.79,-434.64 628.16,-371.14 593.5,-337 570.77,-314.61 478.43,-310.71 428.28,-310.3"/>
<polygon fill="#9a32cd" stroke="#9a32cd" points="615.54,-465.54 617.31,-475.98 622.44,-466.72 615.54,-465.54"/>
</a>
</g>
<text text-anchor="middle" x="634" y="-395" font-family="Helvetica,sans-Serif" font-size="10.00" fill="grey"> eom</text>
</g>
<!-- Node12 -->
<g id="Node000012" class="node">
<title>Node12</title>
<g id="a_Node000012"><a xlink:href="classmessaget_1_1commandt.html" target="_top" xlink:title=" ">
<polygon fill="white" stroke="#666666" points="424,-495 301,-495 301,-476 424,-476 424,-495"/>
<text text-anchor="middle" x="362.5" y="-483" font-family="Helvetica,sans-Serif" font-size="10.00">messaget::commandt</text>
</a>
</g>
</g>
<!-- Node12&#45;&gt;Node10 -->
<g id="edge11_Node000010_Node000012" class="edge">
<title>Node12&#45;&gt;Node10</title>
<g id="a_edge11_Node000010_Node000012"><a xlink:title=" ">
<path fill="none" stroke="#9a32cd" stroke-dasharray="5,2" d="M366.09,-465.56C373.19,-428.12 388.78,-345.95 393.86,-319.14"/>
<polygon fill="#9a32cd" stroke="#9a32cd" points="362.61,-465.16 364.18,-475.63 369.48,-466.46 362.61,-465.16"/>
</a>
</g>
<text text-anchor="middle" x="428.5" y="-450" font-family="Helvetica,sans-Serif" font-size="10.00" fill="grey"> blue</text>
<text text-anchor="middle" x="428.5" y="-439" font-family="Helvetica,sans-Serif" font-size="10.00" fill="grey">bold</text>
<text text-anchor="middle" x="428.5" y="-428" font-family="Helvetica,sans-Serif" font-size="10.00" fill="grey">bright_blue</text>
<text text-anchor="middle" x="428.5" y="-417" font-family="Helvetica,sans-Serif" font-size="10.00" fill="grey">bright_cyan</text>
<text text-anchor="middle" x="428.5" y="-406" font-family="Helvetica,sans-Serif" font-size="10.00" fill="grey">bright_green</text>
<text text-anchor="middle" x="428.5" y="-395" font-family="Helvetica,sans-Serif" font-size="10.00" fill="grey">bright_magenta</text>
<text text-anchor="middle" x="428.5" y="-384" font-family="Helvetica,sans-Serif" font-size="10.00" fill="grey">bright_red</text>
<text text-anchor="middle" x="428.5" y="-373" font-family="Helvetica,sans-Serif" font-size="10.00" fill="grey">bright_yellow</text>
<text text-anchor="middle" x="428.5" y="-362" font-family="Helvetica,sans-Serif" font-size="10.00" fill="grey">cyan</text>
<text text-anchor="middle" x="428.5" y="-351" font-family="Helvetica,sans-Serif" font-size="10.00" fill="grey">faint</text>
<text text-anchor="middle" x="428.5" y="-340" font-family="Helvetica,sans-Serif" font-size="10.00" fill="grey">...</text>
</g>
<!-- Node13 -->
<g id="Node000013" class="node">
<title>Node13</title>
<g id="a_Node000013"><a xlink:href="classmessage__handlert.html" target="_top" xlink:title=" ">
<polygon fill="#fff0f0" stroke="red" points="549,-495 442,-495 442,-476 549,-476 549,-495"/>
<text text-anchor="middle" x="495.5" y="-483" font-family="Helvetica,sans-Serif" font-size="10.00">message_handlert</text>
</a>
</g>
</g>
<!-- Node13&#45;&gt;Node10 -->
<g id="edge12_Node000010_Node000013" class="edge">
<title>Node13&#45;&gt;Node10</title>
<g id="a_edge12_Node000010_Node000013"><a xlink:title=" ">
<path fill="none" stroke="#9a32cd" stroke-dasharray="5,2" d="M498.05,-465.84C501.13,-435.22 502.56,-374 471.5,-337 460.81,-324.26 443.64,-317.64 428.32,-314.2"/>
<polygon fill="#9a32cd" stroke="#9a32cd" points="494.55,-465.62 496.85,-475.97 501.5,-466.45 494.55,-465.62"/>
</a>
</g>
<text text-anchor="middle" x="544.5" y="-395" font-family="Helvetica,sans-Serif" font-size="10.00" fill="grey"> message_handler</text>
</g>
<!-- Node15&#45;&gt;Node10 -->
<g id="edge13_Node000010_Node000015" class="edge">
<title>Node15&#45;&gt;Node10</title>
<g id="a_edge13_Node000010_Node000015"><a xlink:title=" ">
<path fill="none" stroke="#9a32cd" stroke-dasharray="5,2" d="M404.36,-262.26C405.65,-265.1 406.77,-268.06 407.5,-271 410,-281.08 405.3,-292.41 401.07,-299.95"/>
<polygon fill="#9a32cd" stroke="#9a32cd" points="407.4,-260.53 399.59,-253.38 401.23,-263.84 407.4,-260.53"/>
</a>
</g>
<text text-anchor="middle" x="431.5" y="-274" font-family="Helvetica,sans-Serif" font-size="10.00" fill="grey"> mstream</text>
</g>
<!-- Node29&#45;&gt;Node3 -->
<g id="edge15_Node000003_Node000029" class="edge">
<title>Node29&#45;&gt;Node3</title>
<g id="a_edge15_Node000003_Node000029"><a xlink:title=" ">
<path fill="none" stroke="#9a32cd" stroke-dasharray="5,2" d="M108.65,-289.61C115.23,-250.1 130.25,-159.98 135.02,-131.38"/>
<polygon fill="#9a32cd" stroke="#9a32cd" points="105.19,-289.09 107,-299.53 112.09,-290.24 105.19,-289.09"/>
</a>
</g>
<text text-anchor="middle" x="142.5" y="-208" font-family="Helvetica,sans-Serif" font-size="10.00" fill="grey"> clauses</text>
</g>
<!-- Node30&#45;&gt;Node29 -->
<g id="edge17_Node000029_Node000030" class="edge">
<title>Node30&#45;&gt;Node29</title>
<g id="a_edge17_Node000029_Node000030"><a xlink:title=" ">
<path fill="none" stroke="orange" stroke-dasharray="5,2" d="M35.54,-465.98C28.66,-436.02 19.89,-376.34 46.5,-337 52.1,-328.72 60.94,-323 70.08,-319.05"/>
<polygon fill="orange" stroke="orange" points="32.19,-467.03 38,-475.9 38.99,-465.35 32.19,-467.03"/>
</a>
</g>
<text text-anchor="middle" x="67.5" y="-395" font-family="Helvetica,sans-Serif" font-size="10.00" fill="grey"> &lt; bvt &gt;</text>
</g>
</g>
</svg>
