<?xml version="1.0" encoding="UTF-8" standalone="no"?>
<!DOCTYPE svg PUBLIC "-//W3C//DTD SVG 1.1//EN"
 "http://www.w3.org/Graphics/SVG/1.1/DTD/svg11.dtd">
<!-- Generated by graphviz version 2.43.0 (0)
 -->
<!-- Title: bad_cast_exceptiont Pages: 1 -->
<svg width="125pt" height="260pt"
 viewBox="0.00 0.00 125.00 260.00" xmlns="http://www.w3.org/2000/svg" xmlns:xlink="http://www.w3.org/1999/xlink">
<g id="graph0" class="graph" transform="scale(1 1) rotate(0) translate(4 256)">
<title>bad_cast_exceptiont</title>
<!-- Node1 -->
<g id="Node000001" class="node">
<title>Node1</title>
<g id="a_Node000001"><a xlink:title=" ">
<polygon fill="#999999" stroke="#666666" points="117,-19 0,-19 0,0 117,0 117,-19"/>
<text text-anchor="middle" x="58.5" y="-7" font-family="Helvetica,sans-Serif" font-size="10.00">bad_cast_exceptiont</text>
</a>
</g>
</g>
<!-- Node2 -->
<g id="Node000002" class="node">
<title>Node2</title>
<g id="a_Node000002"><a xlink:href="classinvariant__failedt.html" target="_top" xlink:title="A logic error, augmented with a distinguished field to hold a backtrace.">
<polygon fill="white" stroke="#666666" points="107,-75 10,-75 10,-56 107,-56 107,-75"/>
<text text-anchor="middle" x="58.5" y="-63" font-family="Helvetica,sans-Serif" font-size="10.00">invariant_failedt</text>
</a>
</g>
</g>
<!-- Node2&#45;&gt;Node1 -->
<g id="edge1_Node000001_Node000002" class="edge">
<title>Node2&#45;&gt;Node1</title>
<g id="a_edge1_Node000001_Node000002"><a xlink:title=" ">
<path fill="none" stroke="#63b8ff" d="M58.5,-45.3C58.5,-36.41 58.5,-26.28 58.5,-19.25"/>
<polygon fill="#63b8ff" stroke="#63b8ff" points="55,-45.58 58.5,-55.58 62,-45.58 55,-45.58"/>
</a>
</g>
</g>
<!-- Node3 -->
<g id="Node000003" class="node">
<title>Node3</title>
<g id="a_Node000003"><a xlink:title=" ">
<polygon fill="white" stroke="#666666" points="91,-185 26,-185 26,-166 91,-166 91,-185"/>
<text text-anchor="middle" x="58.5" y="-173" font-family="Helvetica,sans-Serif" font-size="10.00">std::string</text>
</a>
</g>
</g>
<!-- Node3&#45;&gt;Node2 -->
<g id="edge2_Node000002_Node000003" class="edge">
<title>Node3&#45;&gt;Node2</title>
<g id="a_edge2_Node000002_Node000003"><a xlink:title=" ">
<path fill="none" stroke="#9a32cd" stroke-dasharray="5,2" d="M58.5,-155.48C58.5,-131.84 58.5,-92.5 58.5,-75.16"/>
<polygon fill="#9a32cd" stroke="#9a32cd" points="55,-155.66 58.5,-165.66 62,-155.66 55,-155.66"/>
</a>
</g>
<text text-anchor="middle" x="84.5" y="-140" font-family="Helvetica,sans-Serif" font-size="10.00" fill="grey"> backtrace</text>
<text text-anchor="middle" x="84.5" y="-129" font-family="Helvetica,sans-Serif" font-size="10.00" fill="grey">condition</text>
<text text-anchor="middle" x="84.5" y="-118" font-family="Helvetica,sans-Serif" font-size="10.00" fill="grey">file</text>
<text text-anchor="middle" x="84.5" y="-107" font-family="Helvetica,sans-Serif" font-size="10.00" fill="grey">function</text>
<text text-anchor="middle" x="84.5" y="-96" font-family="Helvetica,sans-Serif" font-size="10.00" fill="grey">reason</text>
</g>
<!-- Node4 -->
<g id="Node000004" class="node">
<title>Node4</title>
<g id="a_Node000004"><a xlink:title=" ">
<polygon fill="white" stroke="#666666" points="110.5,-252 6.5,-252 6.5,-222 110.5,-222 110.5,-252"/>
<text text-anchor="start" x="14.5" y="-240" font-family="Helvetica,sans-Serif" font-size="10.00">std::basic_string&lt;</text>
<text text-anchor="middle" x="58.5" y="-229" font-family="Helvetica,sans-Serif" font-size="10.00"> Char &gt;</text>
</a>
</g>
</g>
<!-- Node4&#45;&gt;Node3 -->
<g id="edge3_Node000003_Node000004" class="edge">
<title>Node4&#45;&gt;Node3</title>
<g id="a_edge3_Node000003_Node000004"><a xlink:title=" ">
<path fill="none" stroke="#63b8ff" d="M58.5,-211.79C58.5,-202.36 58.5,-192.15 58.5,-185.16"/>
<polygon fill="#63b8ff" stroke="#63b8ff" points="55,-211.9 58.5,-221.9 62,-211.9 55,-211.9"/>
</a>
</g>
</g>
</g>
</svg>
