<?xml version="1.0" encoding="UTF-8" standalone="no"?>
<!DOCTYPE svg PUBLIC "-//W3C//DTD SVG 1.1//EN"
 "http://www.w3.org/Graphics/SVG/1.1/DTD/svg11.dtd">
<!-- Generated by graphviz version 2.43.0 (0)
 -->
<!-- Title: havoc_utilst Pages: 1 -->
<svg width="436pt" height="555pt"
 viewBox="0.00 0.00 436.00 555.00" xmlns="http://www.w3.org/2000/svg" xmlns:xlink="http://www.w3.org/1999/xlink">
<g id="graph0" class="graph" transform="scale(1 1) rotate(0) translate(4 551)">
<title>havoc_utilst</title>
<!-- Node1 -->
<g id="Node000001" class="node">
<title>Node1</title>
<g id="a_Node000001"><a xlink:title=" ">
<polygon fill="#999999" stroke="#666666" points="95,-19 19,-19 19,0 95,0 95,-19"/>
<text text-anchor="middle" x="57" y="-7" font-family="Helvetica,sans-Serif" font-size="10.00">havoc_utilst</text>
</a>
</g>
</g>
<!-- Node2 -->
<g id="Node000002" class="node">
<title>Node2</title>
<g id="a_Node000002"><a xlink:title=" ">
<polygon fill="white" stroke="#666666" points="82,-162 0,-162 0,-143 82,-143 82,-162"/>
<text text-anchor="middle" x="41" y="-150" font-family="Helvetica,sans-Serif" font-size="10.00">std::set&lt; K &gt;</text>
</a>
</g>
</g>
<!-- Node2&#45;&gt;Node1 -->
<g id="edge1_Node000001_Node000002" class="edge">
<title>Node2&#45;&gt;Node1</title>
<g id="a_edge1_Node000001_Node000002"><a xlink:title=" ">
<path fill="none" stroke="#9a32cd" stroke-dasharray="5,2" d="M43.17,-132.39C46.67,-101.49 53.45,-41.77 56,-19.32"/>
<polygon fill="#9a32cd" stroke="#9a32cd" points="39.65,-132.35 42,-142.68 46.61,-133.14 39.65,-132.35"/>
</a>
</g>
<text text-anchor="middle" x="71" y="-78.5" font-family="Helvetica,sans-Serif" font-size="10.00" fill="grey"> assigns</text>
</g>
<!-- Node4 -->
<g id="Node000004" class="node">
<title>Node4</title>
<g id="a_Node000004"><a xlink:href="classhavoc__utils__can__forward__propagatet.html" target="_top" xlink:title="A class containing utility functions for havocing expressions.">
<polygon fill="white" stroke="#666666" points="236.5,-96 99.5,-96 99.5,-66 236.5,-66 236.5,-96"/>
<text text-anchor="start" x="107.5" y="-84" font-family="Helvetica,sans-Serif" font-size="10.00">havoc_utils_can_forward</text>
<text text-anchor="middle" x="168" y="-73" font-family="Helvetica,sans-Serif" font-size="10.00">_propagatet</text>
</a>
</g>
</g>
<!-- Node2&#45;&gt;Node4 -->
<g id="edge16_Node000004_Node000002" class="edge">
<title>Node2&#45;&gt;Node4</title>
<g id="a_edge16_Node000004_Node000002"><a xlink:title=" ">
<path fill="none" stroke="#9a32cd" stroke-dasharray="5,2" d="M65.62,-138.03C87.63,-125.98 119.79,-108.38 142.17,-96.14"/>
<polygon fill="#9a32cd" stroke="#9a32cd" points="63.66,-135.11 56.57,-142.98 67.03,-141.25 63.66,-135.11"/>
</a>
</g>
<text text-anchor="middle" x="128" y="-117" font-family="Helvetica,sans-Serif" font-size="10.00" fill="grey"> assigns</text>
</g>
<!-- Node3 -->
<g id="Node000003" class="node">
<title>Node3</title>
<g id="a_Node000003"><a xlink:title=" ">
<polygon fill="white" stroke="#666666" points="108.5,-547 79.5,-547 79.5,-528 108.5,-528 108.5,-547"/>
<text text-anchor="middle" x="94" y="-535" font-family="Helvetica,sans-Serif" font-size="10.00">K</text>
</a>
</g>
</g>
<!-- Node3&#45;&gt;Node2 -->
<g id="edge2_Node000002_Node000003" class="edge">
<title>Node3&#45;&gt;Node2</title>
<g id="a_edge2_Node000002_Node000003"><a xlink:title=" ">
<path fill="none" stroke="#9a32cd" stroke-dasharray="5,2" d="M73.3,-521.51C58.43,-508.86 41,-489.28 41,-467 41,-467 41,-467 41,-217.5 41,-197.72 41,-174.51 41,-162.2"/>
<polygon fill="#9a32cd" stroke="#9a32cd" points="71.17,-524.29 81.17,-527.8 75.54,-518.83 71.17,-524.29"/>
</a>
</g>
<text text-anchor="middle" x="54" y="-331.5" font-family="Helvetica,sans-Serif" font-size="10.00" fill="grey"> keys</text>
</g>
<!-- Node9 -->
<g id="Node000009" class="node">
<title>Node9</title>
<g id="a_Node000009"><a xlink:title=" ">
<polygon fill="white" stroke="#666666" points="183,-481 69,-481 69,-451 183,-451 183,-481"/>
<text text-anchor="start" x="77" y="-469" font-family="Helvetica,sans-Serif" font-size="10.00">std::unordered_map</text>
<text text-anchor="middle" x="126" y="-458" font-family="Helvetica,sans-Serif" font-size="10.00">&lt; K, T &gt;</text>
</a>
</g>
</g>
<!-- Node3&#45;&gt;Node9 -->
<g id="edge9_Node000009_Node000003" class="edge">
<title>Node3&#45;&gt;Node9</title>
<g id="a_edge9_Node000009_Node000003"><a xlink:title=" ">
<path fill="none" stroke="#9a32cd" stroke-dasharray="5,2" d="M91.84,-517.67C91.83,-511.51 92.57,-504.78 95,-499 97.82,-492.3 102.75,-486.2 107.86,-481.17"/>
<polygon fill="#9a32cd" stroke="#9a32cd" points="88.36,-518.03 92.5,-527.79 95.35,-517.58 88.36,-518.03"/>
</a>
</g>
<text text-anchor="middle" x="108" y="-502" font-family="Helvetica,sans-Serif" font-size="10.00" fill="grey"> keys</text>
</g>
<!-- Node13 -->
<g id="Node000013" class="node">
<title>Node13</title>
<g id="a_Node000013"><a xlink:title=" ">
<polygon fill="white" stroke="#666666" points="327,-475.5 201,-475.5 201,-456.5 327,-456.5 327,-475.5"/>
<text text-anchor="middle" x="264" y="-463.5" font-family="Helvetica,sans-Serif" font-size="10.00">std::multimap&lt; K, T &gt;</text>
</a>
</g>
</g>
<!-- Node3&#45;&gt;Node13 -->
<g id="edge14_Node000013_Node000003" class="edge">
<title>Node3&#45;&gt;Node13</title>
<g id="a_edge14_Node000013_Node000003"><a xlink:title=" ">
<path fill="none" stroke="#9a32cd" stroke-dasharray="5,2" d="M110.74,-521.02C119.73,-513.43 131.34,-504.72 143,-499 165.24,-488.09 191.67,-480.56 214.14,-475.55"/>
<polygon fill="#9a32cd" stroke="#9a32cd" points="108.21,-518.59 103.01,-527.82 112.83,-523.84 108.21,-518.59"/>
</a>
</g>
<text text-anchor="middle" x="156" y="-502" font-family="Helvetica,sans-Serif" font-size="10.00" fill="grey"> keys</text>
</g>
<!-- Node4&#45;&gt;Node1 -->
<g id="edge3_Node000001_Node000004" class="edge">
<title>Node4&#45;&gt;Node1</title>
<g id="a_edge3_Node000001_Node000004"><a xlink:title=" ">
<path fill="none" stroke="#9a32cd" stroke-dasharray="5,2" d="M136.94,-60.55C115.16,-46.92 87.11,-29.35 70.68,-19.07"/>
<polygon fill="#9a32cd" stroke="#9a32cd" points="135.2,-63.6 145.54,-65.94 138.92,-57.66 135.2,-63.6"/>
</a>
</g>
<text text-anchor="middle" x="144.5" y="-40" font-family="Helvetica,sans-Serif" font-size="10.00" fill="grey"> is_constant</text>
</g>
<!-- Node5 -->
<g id="Node000005" class="node">
<title>Node5</title>
<g id="a_Node000005"><a xlink:href="classcan__forward__propagatet.html" target="_top" xlink:title="Determine whether an expression is constant.">
<polygon fill="white" stroke="#666666" points="235.5,-162 100.5,-162 100.5,-143 235.5,-143 235.5,-162"/>
<text text-anchor="middle" x="168" y="-150" font-family="Helvetica,sans-Serif" font-size="10.00">can_forward_propagatet</text>
</a>
</g>
</g>
<!-- Node5&#45;&gt;Node4 -->
<g id="edge4_Node000004_Node000005" class="edge">
<title>Node5&#45;&gt;Node4</title>
<g id="a_edge4_Node000004_Node000005"><a xlink:title=" ">
<path fill="none" stroke="#63b8ff" d="M168,-132.71C168,-121.19 168,-106.68 168,-96.14"/>
<polygon fill="#63b8ff" stroke="#63b8ff" points="164.5,-132.98 168,-142.98 171.5,-132.98 164.5,-132.98"/>
</a>
</g>
</g>
<!-- Node6 -->
<g id="Node000006" class="node">
<title>Node6</title>
<g id="a_Node000006"><a xlink:href="classnamespacet.html" target="_top" xlink:title="A namespacet is essentially one or two symbol tables bound together, to allow for symbol lookups in t...">
<polygon fill="white" stroke="#666666" points="206.5,-228 129.5,-228 129.5,-209 206.5,-209 206.5,-228"/>
<text text-anchor="middle" x="168" y="-216" font-family="Helvetica,sans-Serif" font-size="10.00">namespacet</text>
</a>
</g>
</g>
<!-- Node6&#45;&gt;Node5 -->
<g id="edge5_Node000005_Node000006" class="edge">
<title>Node6&#45;&gt;Node5</title>
<g id="a_edge5_Node000005_Node000006"><a xlink:title=" ">
<path fill="none" stroke="#9a32cd" stroke-dasharray="5,2" d="M168,-198.58C168,-186.63 168,-171.72 168,-162.41"/>
<polygon fill="#9a32cd" stroke="#9a32cd" points="164.5,-198.87 168,-208.87 171.5,-198.87 164.5,-198.87"/>
</a>
</g>
<text text-anchor="middle" x="175.5" y="-183" font-family="Helvetica,sans-Serif" font-size="10.00" fill="grey"> ns</text>
</g>
<!-- Node7 -->
<g id="Node000007" class="node">
<title>Node7</title>
<g id="a_Node000007"><a xlink:href="classnamespace__baset.html" target="_top" xlink:title="Basic interface for a namespace.">
<polygon fill="white" stroke="#666666" points="327.5,-305 222.5,-305 222.5,-286 327.5,-286 327.5,-305"/>
<text text-anchor="middle" x="275" y="-293" font-family="Helvetica,sans-Serif" font-size="10.00">namespace_baset</text>
</a>
</g>
</g>
<!-- Node7&#45;&gt;Node6 -->
<g id="edge6_Node000006_Node000007" class="edge">
<title>Node7&#45;&gt;Node6</title>
<g id="a_edge6_Node000006_Node000007"><a xlink:title=" ">
<path fill="none" stroke="#63b8ff" d="M265.39,-276.85C259.06,-266.64 249.92,-254.21 239,-246 228.38,-238.01 215.09,-232.2 202.89,-228.1"/>
<polygon fill="#63b8ff" stroke="#63b8ff" points="262.52,-278.88 270.57,-285.76 268.57,-275.36 262.52,-278.88"/>
</a>
</g>
</g>
<!-- Node8 -->
<g id="Node000008" class="node">
<title>Node8</title>
<g id="a_Node000008"><a xlink:href="classsymbol__table__baset.html" target="_top" xlink:title="The symbol table base class interface.">
<polygon fill="white" stroke="#666666" points="204.5,-305 89.5,-305 89.5,-286 204.5,-286 204.5,-305"/>
<text text-anchor="middle" x="147" y="-293" font-family="Helvetica,sans-Serif" font-size="10.00">symbol_table_baset</text>
</a>
</g>
</g>
<!-- Node8&#45;&gt;Node6 -->
<g id="edge7_Node000006_Node000008" class="edge">
<title>Node8&#45;&gt;Node6</title>
<g id="a_edge7_Node000006_Node000008"><a xlink:title=" ">
<path fill="none" stroke="#9a32cd" stroke-dasharray="5,2" d="M152.19,-275.97C156.48,-260.65 162.37,-239.59 165.62,-228"/>
<polygon fill="#9a32cd" stroke="#9a32cd" points="148.73,-275.32 149.41,-285.9 155.48,-277.21 148.73,-275.32"/>
</a>
</g>
<text text-anchor="middle" x="197" y="-260" font-family="Helvetica,sans-Serif" font-size="10.00" fill="grey"> symbol_table1</text>
<text text-anchor="middle" x="197" y="-249" font-family="Helvetica,sans-Serif" font-size="10.00" fill="grey">symbol_table2</text>
</g>
<!-- Node9&#45;&gt;Node8 -->
<g id="edge8_Node000008_Node000009" class="edge">
<title>Node9&#45;&gt;Node8</title>
<g id="a_edge8_Node000008_Node000009"><a xlink:title=" ">
<path fill="none" stroke="#9a32cd" stroke-dasharray="5,2" d="M129.03,-440.69C133.79,-402.5 142.8,-330.23 145.91,-305.25"/>
<polygon fill="#9a32cd" stroke="#9a32cd" points="125.52,-440.57 127.75,-450.92 132.46,-441.43 125.52,-440.57"/>
</a>
</g>
<text text-anchor="middle" x="160.5" y="-375.5" font-family="Helvetica,sans-Serif" font-size="10.00" fill="grey"> symbols</text>
</g>
<!-- Node10 -->
<g id="Node000010" class="node">
<title>Node10</title>
<g id="a_Node000010"><a xlink:title=" ">
<polygon fill="white" stroke="#666666" points="242.5,-547 213.5,-547 213.5,-528 242.5,-528 242.5,-547"/>
<text text-anchor="middle" x="228" y="-535" font-family="Helvetica,sans-Serif" font-size="10.00">T</text>
</a>
</g>
</g>
<!-- Node10&#45;&gt;Node9 -->
<g id="edge10_Node000009_Node000010" class="edge">
<title>Node10&#45;&gt;Node9</title>
<g id="a_edge10_Node000009_Node000010"><a xlink:title=" ">
<path fill="none" stroke="#9a32cd" stroke-dasharray="5,2" d="M206.81,-522.11C201.03,-518.18 194.77,-513.93 189,-510 174.88,-500.38 158.99,-489.54 146.71,-481.15"/>
<polygon fill="#9a32cd" stroke="#9a32cd" points="205.11,-525.19 215.35,-527.91 209.04,-519.4 205.11,-525.19"/>
</a>
</g>
<text text-anchor="middle" x="213.5" y="-502" font-family="Helvetica,sans-Serif" font-size="10.00" fill="grey"> elements</text>
</g>
<!-- Node10&#45;&gt;Node13 -->
<g id="edge15_Node000013_Node000010" class="edge">
<title>Node10&#45;&gt;Node13</title>
<g id="a_edge15_Node000013_Node000010"><a xlink:title=" ">
<path fill="none" stroke="#9a32cd" stroke-dasharray="5,2" d="M237.37,-518.84C238.92,-515.89 240.51,-512.86 242,-510 248.19,-498.1 255.24,-484.28 259.65,-475.58"/>
<polygon fill="#9a32cd" stroke="#9a32cd" points="234.28,-517.21 232.7,-527.68 240.46,-520.48 234.28,-517.21"/>
</a>
</g>
<text text-anchor="middle" x="271.5" y="-502" font-family="Helvetica,sans-Serif" font-size="10.00" fill="grey"> elements</text>
</g>
<!-- Node11 -->
<g id="Node000011" class="node">
<title>Node11</title>
<g id="a_Node000011"><a xlink:title=" ">
<polygon fill="white" stroke="#666666" points="316.5,-393 201.5,-393 201.5,-363 316.5,-363 316.5,-393"/>
<text text-anchor="start" x="209.5" y="-381" font-family="Helvetica,sans-Serif" font-size="10.00">std::multimap&lt; irep</text>
<text text-anchor="middle" x="259" y="-370" font-family="Helvetica,sans-Serif" font-size="10.00">_idt, irep_idt &gt;</text>
</a>
</g>
</g>
<!-- Node11&#45;&gt;Node8 -->
<g id="edge11_Node000008_Node000011" class="edge">
<title>Node11&#45;&gt;Node8</title>
<g id="a_edge11_Node000008_Node000011"><a xlink:title=" ">
<path fill="none" stroke="#9a32cd" stroke-dasharray="5,2" d="M231.09,-356.94C207.94,-340.3 176.14,-317.45 159.05,-305.16"/>
<polygon fill="#9a32cd" stroke="#9a32cd" points="229.33,-359.98 239.49,-362.98 233.41,-354.3 229.33,-359.98"/>
</a>
</g>
<text text-anchor="middle" x="266" y="-337" font-family="Helvetica,sans-Serif" font-size="10.00" fill="grey"> symbol_base_map</text>
<text text-anchor="middle" x="266" y="-326" font-family="Helvetica,sans-Serif" font-size="10.00" fill="grey">symbol_module_map</text>
</g>
<!-- Node12 -->
<g id="Node000012" class="node">
<title>Node12</title>
<g id="a_Node000012"><a xlink:href="classdstringt.html" target="_top" xlink:title="dstringt has one field, an unsigned integer no which is an index into a static table of strings.">
<polygon fill="white" stroke="#666666" points="415,-475.5 361,-475.5 361,-456.5 415,-456.5 415,-475.5"/>
<text text-anchor="middle" x="388" y="-463.5" font-family="Helvetica,sans-Serif" font-size="10.00">dstringt</text>
</a>
</g>
</g>
<!-- Node12&#45;&gt;Node11 -->
<g id="edge12_Node000011_Node000012" class="edge">
<title>Node12&#45;&gt;Node11</title>
<g id="a_edge12_Node000011_Node000012"><a xlink:title=" ">
<path fill="none" stroke="#9a32cd" stroke-dasharray="5,2" d="M384.67,-446.34C381.67,-434.68 376.11,-420.18 366,-411 352.36,-398.62 334.11,-391.02 316.55,-386.36"/>
<polygon fill="#9a32cd" stroke="#9a32cd" points="381.31,-447.35 386.83,-456.39 388.15,-445.88 381.31,-447.35"/>
</a>
</g>
<text text-anchor="middle" x="403.5" y="-425" font-family="Helvetica,sans-Serif" font-size="10.00" fill="grey"> elements</text>
<text text-anchor="middle" x="403.5" y="-414" font-family="Helvetica,sans-Serif" font-size="10.00" fill="grey">keys</text>
</g>
<!-- Node13&#45;&gt;Node11 -->
<g id="edge13_Node000011_Node000013" class="edge">
<title>Node13&#45;&gt;Node11</title>
<g id="a_edge13_Node000011_Node000013"><a xlink:title=" ">
<path fill="none" stroke="orange" stroke-dasharray="5,2" d="M261.33,-446.36C260.8,-441.99 260.31,-437.34 260,-433 259.04,-419.53 258.84,-404.13 258.85,-393.23"/>
<polygon fill="orange" stroke="orange" points="257.87,-446.88 262.66,-456.33 264.81,-445.96 257.87,-446.88"/>
</a>
</g>
<text text-anchor="middle" x="313" y="-419.5" font-family="Helvetica,sans-Serif" font-size="10.00" fill="grey"> &lt; irep_idt, irep_idt &gt;</text>
</g>
</g>
</svg>
