<?xml version="1.0" encoding="UTF-8" standalone="no"?>
<!DOCTYPE svg PUBLIC "-//W3C//DTD SVG 1.1//EN"
 "http://www.w3.org/Graphics/SVG/1.1/DTD/svg11.dtd">
<!-- Generated by graphviz version 2.43.0 (0)
 -->
<!-- Title: polynomial_acceleratort Pages: 1 -->
<svg width="2868pt" height="470pt"
 viewBox="0.00 0.00 2868.00 470.00" xmlns="http://www.w3.org/2000/svg" xmlns:xlink="http://www.w3.org/1999/xlink">
<g id="graph0" class="graph" transform="scale(1 1) rotate(0) translate(4 466)">
<title>polynomial_acceleratort</title>
<!-- Node1 -->
<g id="Node000001" class="node">
<title>Node1</title>
<g id="a_Node000001"><a xlink:title=" ">
<polygon fill="#999999" stroke="#666666" points="2860,-164 2725,-164 2725,-145 2860,-145 2860,-164"/>
<text text-anchor="middle" x="2792.5" y="-152" font-family="Helvetica,sans-Serif" font-size="10.00">polynomial_acceleratort</text>
</a>
</g>
</g>
<!-- Node2 -->
<g id="Node000002" class="node">
<title>Node2</title>
<g id="a_Node000002"><a xlink:href="classmessage__handlert.html" target="_top" xlink:title=" ">
<polygon fill="white" stroke="#666666" points="2359,-141 2252,-141 2252,-122 2359,-122 2359,-141"/>
<text text-anchor="middle" x="2305.5" y="-129" font-family="Helvetica,sans-Serif" font-size="10.00">message_handlert</text>
</a>
</g>
</g>
<!-- Node2&#45;&gt;Node1 -->
<g id="edge1_Node000001_Node000002" class="edge">
<title>Node2&#45;&gt;Node1</title>
<g id="a_edge1_Node000001_Node000002"><a xlink:title=" ">
<path fill="none" stroke="#9a32cd" stroke-dasharray="5,2" d="M2369.5,-134.36C2430.69,-137.15 2526.22,-141.54 2609,-145.5 2647.34,-147.33 2690.21,-149.44 2724.76,-151.16"/>
<polygon fill="#9a32cd" stroke="#9a32cd" points="2369.38,-130.85 2359.24,-133.89 2369.07,-137.84 2369.38,-130.85"/>
</a>
</g>
<text text-anchor="middle" x="2547" y="-148.5" font-family="Helvetica,sans-Serif" font-size="10.00" fill="grey"> message_handler</text>
</g>
<!-- Node23 -->
<g id="Node000023" class="node">
<title>Node23</title>
<g id="a_Node000023"><a xlink:href="classacceleration__utilst.html" target="_top" xlink:title=" ">
<polygon fill="white" stroke="#666666" points="2600.5,-258 2493.5,-258 2493.5,-239 2600.5,-239 2600.5,-258"/>
<text text-anchor="middle" x="2547" y="-246" font-family="Helvetica,sans-Serif" font-size="10.00">acceleration_utilst</text>
</a>
</g>
</g>
<!-- Node2&#45;&gt;Node23 -->
<g id="edge34_Node000023_Node000002" class="edge">
<title>Node2&#45;&gt;Node23</title>
<g id="a_edge34_Node000023_Node000002"><a xlink:title=" ">
<path fill="none" stroke="#9a32cd" stroke-dasharray="5,2" d="M2350.72,-144.06C2383.78,-154.32 2429.55,-170.39 2467,-190.5 2493.23,-204.59 2520.52,-226.52 2535.16,-238.99"/>
<polygon fill="#9a32cd" stroke="#9a32cd" points="2351.47,-140.63 2340.89,-141.06 2349.43,-147.33 2351.47,-140.63"/>
</a>
</g>
<text text-anchor="middle" x="2422" y="-193.5" font-family="Helvetica,sans-Serif" font-size="10.00" fill="grey"> message_handler</text>
</g>
<!-- Node3 -->
<g id="Node000003" class="node">
<title>Node3</title>
<g id="a_Node000003"><a xlink:title=" ">
<polygon fill="white" stroke="#666666" points="957,-158 817,-158 817,-139 957,-139 957,-158"/>
<text text-anchor="middle" x="887" y="-146" font-family="Helvetica,sans-Serif" font-size="10.00">std::vector&lt; std::size_t &gt;</text>
</a>
</g>
</g>
<!-- Node3&#45;&gt;Node2 -->
<g id="edge2_Node000002_Node000003" class="edge">
<title>Node3&#45;&gt;Node2</title>
<g id="a_edge2_Node000002_Node000003"><a xlink:title=" ">
<path fill="none" stroke="#9a32cd" stroke-dasharray="5,2" d="M967.23,-147C1134.16,-143.91 1534.33,-136.84 1870,-133.5 2007.85,-132.13 2170.31,-131.7 2252,-131.56"/>
<polygon fill="#9a32cd" stroke="#9a32cd" points="966.98,-143.51 957.05,-147.19 967.11,-150.51 966.98,-143.51"/>
</a>
</g>
<text text-anchor="middle" x="1664" y="-138.5" font-family="Helvetica,sans-Serif" font-size="10.00" fill="grey"> message_count</text>
</g>
<!-- Node4 -->
<g id="Node000004" class="node">
<title>Node4</title>
<g id="a_Node000004"><a xlink:title=" ">
<polygon fill="white" stroke="#666666" points="211,-305 114,-305 114,-286 211,-286 211,-305"/>
<text text-anchor="middle" x="162.5" y="-293" font-family="Helvetica,sans-Serif" font-size="10.00">std::vector&lt; T &gt;</text>
</a>
</g>
</g>
<!-- Node4&#45;&gt;Node3 -->
<g id="edge3_Node000003_Node000004" class="edge">
<title>Node4&#45;&gt;Node3</title>
<g id="a_edge3_Node000003_Node000004"><a xlink:title=" ">
<path fill="none" stroke="orange" stroke-dasharray="5,2" d="M185.94,-279.94C216.67,-259.5 274.29,-224.25 329,-207.5 498.69,-155.54 709.51,-147.68 816.59,-147.45"/>
<polygon fill="orange" stroke="orange" points="183.63,-277.27 177.3,-285.77 187.55,-283.08 183.63,-277.27"/>
</a>
</g>
<text text-anchor="middle" x="398.5" y="-210.5" font-family="Helvetica,sans-Serif" font-size="10.00" fill="grey"> &lt; std::size_t &gt;</text>
</g>
<!-- Node18 -->
<g id="Node000018" class="node">
<title>Node18</title>
<g id="a_Node000018"><a xlink:title=" ">
<polygon fill="white" stroke="#666666" points="464,-425 333,-425 333,-406 464,-406 464,-425"/>
<text text-anchor="middle" x="398.5" y="-413" font-family="Helvetica,sans-Serif" font-size="10.00">std::list&lt; instructiont &gt;</text>
</a>
</g>
</g>
<!-- Node4&#45;&gt;Node18 -->
<g id="edge23_Node000018_Node000004" class="edge">
<title>Node4&#45;&gt;Node18</title>
<g id="a_edge23_Node000018_Node000004"><a xlink:title=" ">
<path fill="none" stroke="#9a32cd" stroke-dasharray="5,2" d="M181.8,-312.37C191,-321.25 202.06,-332.54 211,-343.5 220.11,-354.68 217.23,-362.16 229,-370.5 259.69,-392.26 274.65,-381.8 311,-391.5 328.47,-396.16 347.87,-401.52 363.86,-406"/>
<polygon fill="#9a32cd" stroke="#9a32cd" points="183.96,-309.6 174.29,-305.26 179.14,-314.68 183.96,-309.6"/>
</a>
</g>
<text text-anchor="middle" x="270" y="-394.5" font-family="Helvetica,sans-Serif" font-size="10.00" fill="grey"> elements</text>
</g>
<!-- Node20 -->
<g id="Node000020" class="node">
<title>Node20</title>
<g id="a_Node000020"><a xlink:title=" ">
<polygon fill="white" stroke="#666666" points="784,-387 656,-387 656,-368 784,-368 784,-387"/>
<text text-anchor="middle" x="720" y="-375" font-family="Helvetica,sans-Serif" font-size="10.00">std::vector&lt; irep_idt &gt;</text>
</a>
</g>
</g>
<!-- Node4&#45;&gt;Node20 -->
<g id="edge28_Node000020_Node000004" class="edge">
<title>Node4&#45;&gt;Node20</title>
<g id="a_edge28_Node000020_Node000004"><a xlink:title=" ">
<path fill="none" stroke="orange" stroke-dasharray="5,2" d="M179.92,-312.13C192.29,-323.55 210.27,-337.97 229,-345.5 304.74,-375.94 541.36,-378.75 655.78,-378.23"/>
<polygon fill="orange" stroke="orange" points="182.29,-309.55 172.65,-305.15 177.45,-314.6 182.29,-309.55"/>
</a>
</g>
<text text-anchor="middle" x="398.5" y="-377.5" font-family="Helvetica,sans-Serif" font-size="10.00" fill="grey"> &lt; irep_idt &gt;</text>
</g>
<!-- Node29 -->
<g id="Node000029" class="node">
<title>Node29</title>
<g id="a_Node000029"><a xlink:title=" ">
<polygon fill="white" stroke="#666666" points="455.5,-288 341.5,-288 341.5,-269 455.5,-269 455.5,-288"/>
<text text-anchor="middle" x="398.5" y="-276" font-family="Helvetica,sans-Serif" font-size="10.00">std::vector&lt; treet &gt;</text>
</a>
</g>
</g>
<!-- Node4&#45;&gt;Node29 -->
<g id="edge45_Node000029_Node000004" class="edge">
<title>Node4&#45;&gt;Node29</title>
<g id="a_edge45_Node000029_Node000004"><a xlink:title=" ">
<path fill="none" stroke="orange" stroke-dasharray="5,2" d="M221.25,-291.08C223.87,-290.88 226.46,-290.69 229,-290.5 266.44,-287.74 308.56,-284.74 341.33,-282.43"/>
<polygon fill="orange" stroke="orange" points="220.79,-287.6 211.08,-291.84 221.31,-294.58 220.79,-287.6"/>
</a>
</g>
<text text-anchor="middle" x="270" y="-293.5" font-family="Helvetica,sans-Serif" font-size="10.00" fill="grey"> &lt; treet &gt;</text>
</g>
<!-- Node5 -->
<g id="Node000005" class="node">
<title>Node5</title>
<g id="a_Node000005"><a xlink:title=" ">
<polygon fill="white" stroke="#666666" points="29,-305 0,-305 0,-286 29,-286 29,-305"/>
<text text-anchor="middle" x="14.5" y="-293" font-family="Helvetica,sans-Serif" font-size="10.00">T</text>
</a>
</g>
</g>
<!-- Node5&#45;&gt;Node4 -->
<g id="edge4_Node000004_Node000005" class="edge">
<title>Node5&#45;&gt;Node4</title>
<g id="a_edge4_Node000004_Node000005"><a xlink:title=" ">
<path fill="none" stroke="#9a32cd" stroke-dasharray="5,2" d="M39.39,-295.5C59.54,-295.5 89.02,-295.5 113.96,-295.5"/>
<polygon fill="#9a32cd" stroke="#9a32cd" points="39.24,-292 29.24,-295.5 39.24,-299 39.24,-292"/>
</a>
</g>
<text text-anchor="middle" x="71.5" y="-298.5" font-family="Helvetica,sans-Serif" font-size="10.00" fill="grey"> elements</text>
</g>
<!-- Node7 -->
<g id="Node000007" class="node">
<title>Node7</title>
<g id="a_Node000007"><a xlink:title=" ">
<polygon fill="white" stroke="#666666" points="455.5,-113.5 341.5,-113.5 341.5,-83.5 455.5,-83.5 455.5,-113.5"/>
<text text-anchor="start" x="349.5" y="-101.5" font-family="Helvetica,sans-Serif" font-size="10.00">std::unordered_map</text>
<text text-anchor="middle" x="398.5" y="-90.5" font-family="Helvetica,sans-Serif" font-size="10.00">&lt; K, T &gt;</text>
</a>
</g>
</g>
<!-- Node5&#45;&gt;Node7 -->
<g id="edge8_Node000007_Node000005" class="edge">
<title>Node5&#45;&gt;Node7</title>
<g id="a_edge8_Node000007_Node000005"><a xlink:title=" ">
<path fill="none" stroke="#9a32cd" stroke-dasharray="5,2" d="M17.86,-275.71C24.22,-232.18 46.15,-128.62 114,-85.5 189.27,-37.67 299.82,-63.97 358.14,-83.49"/>
<polygon fill="#9a32cd" stroke="#9a32cd" points="14.39,-275.25 16.53,-285.63 21.32,-276.18 14.39,-275.25"/>
</a>
</g>
<text text-anchor="middle" x="162.5" y="-88.5" font-family="Helvetica,sans-Serif" font-size="10.00" fill="grey"> elements</text>
</g>
<!-- Node11 -->
<g id="Node000011" class="node">
<title>Node11</title>
<g id="a_Node000011"><a xlink:title=" ">
<polygon fill="white" stroke="#666666" points="461.5,-151 335.5,-151 335.5,-132 461.5,-132 461.5,-151"/>
<text text-anchor="middle" x="398.5" y="-139" font-family="Helvetica,sans-Serif" font-size="10.00">std::multimap&lt; K, T &gt;</text>
</a>
</g>
</g>
<!-- Node5&#45;&gt;Node11 -->
<g id="edge13_Node000011_Node000005" class="edge">
<title>Node5&#45;&gt;Node11</title>
<g id="a_edge13_Node000011_Node000005"><a xlink:title=" ">
<path fill="none" stroke="#9a32cd" stroke-dasharray="5,2" d="M38.01,-280.32C75.85,-255.47 155.3,-206.13 229,-178.5 263.21,-165.67 303.09,-156.67 335.45,-150.76"/>
<polygon fill="#9a32cd" stroke="#9a32cd" points="35.72,-277.64 29.32,-286.08 39.59,-283.47 35.72,-277.64"/>
</a>
</g>
<text text-anchor="middle" x="162.5" y="-235.5" font-family="Helvetica,sans-Serif" font-size="10.00" fill="grey"> elements</text>
</g>
<!-- Node19 -->
<g id="Node000019" class="node">
<title>Node19</title>
<g id="a_Node000019"><a xlink:title=" ">
<polygon fill="white" stroke="#666666" points="203,-371 122,-371 122,-352 203,-352 203,-371"/>
<text text-anchor="middle" x="162.5" y="-359" font-family="Helvetica,sans-Serif" font-size="10.00">std::list&lt; T &gt;</text>
</a>
</g>
</g>
<!-- Node5&#45;&gt;Node19 -->
<g id="edge25_Node000019_Node000005" class="edge">
<title>Node5&#45;&gt;Node19</title>
<g id="a_edge25_Node000019_Node000005"><a xlink:title=" ">
<path fill="none" stroke="#9a32cd" stroke-dasharray="5,2" d="M38.57,-306.57C41.41,-307.91 44.27,-309.24 47,-310.5 79.02,-325.25 116.37,-341.76 139.47,-351.89"/>
<polygon fill="#9a32cd" stroke="#9a32cd" points="39.8,-303.28 29.26,-302.15 36.8,-309.6 39.8,-303.28"/>
</a>
</g>
<text text-anchor="middle" x="71.5" y="-334.5" font-family="Helvetica,sans-Serif" font-size="10.00" fill="grey"> elements</text>
</g>
<!-- Node21 -->
<g id="Node000021" class="node">
<title>Node21</title>
<g id="a_Node000021"><a xlink:title=" ">
<polygon fill="white" stroke="#666666" points="449,-462 348,-462 348,-443 449,-443 449,-462"/>
<text text-anchor="middle" x="398.5" y="-450" font-family="Helvetica,sans-Serif" font-size="10.00">std::map&lt; K, T &gt;</text>
</a>
</g>
</g>
<!-- Node5&#45;&gt;Node21 -->
<g id="edge31_Node000021_Node000005" class="edge">
<title>Node5&#45;&gt;Node21</title>
<g id="a_edge31_Node000021_Node000005"><a xlink:title=" ">
<path fill="none" stroke="#9a32cd" stroke-dasharray="5,2" d="M23.98,-314.41C29.4,-324.87 37.25,-337.53 47,-346.5 67.14,-365.02 212.5,-427.91 229,-432.5 268.02,-443.36 313.74,-448.32 347.7,-450.59"/>
<polygon fill="#9a32cd" stroke="#9a32cd" points="27.05,-312.72 19.55,-305.24 20.75,-315.77 27.05,-312.72"/>
</a>
</g>
<text text-anchor="middle" x="162.5" y="-427.5" font-family="Helvetica,sans-Serif" font-size="10.00" fill="grey"> elements</text>
</g>
<!-- Node6 -->
<g id="Node000006" class="node">
<title>Node6</title>
<g id="a_Node000006"><a xlink:href="classsymbol__table__baset.html" target="_top" xlink:title="The symbol table base class interface.">
<polygon fill="white" stroke="#666666" points="2140,-185 2025,-185 2025,-166 2140,-166 2140,-185"/>
<text text-anchor="middle" x="2082.5" y="-173" font-family="Helvetica,sans-Serif" font-size="10.00">symbol_table_baset</text>
</a>
</g>
</g>
<!-- Node6&#45;&gt;Node1 -->
<g id="edge5_Node000001_Node000006" class="edge">
<title>Node6&#45;&gt;Node1</title>
<g id="a_edge5_Node000001_Node000006"><a xlink:title=" ">
<path fill="none" stroke="#9a32cd" stroke-dasharray="5,2" d="M2112,-161.47C2144.83,-146.16 2200.83,-122.62 2252,-113.5 2437.65,-80.43 2663.89,-124.44 2752.9,-144.97"/>
<polygon fill="#9a32cd" stroke="#9a32cd" points="2110.13,-158.49 2102.59,-165.93 2113.12,-164.81 2110.13,-158.49"/>
</a>
</g>
<text text-anchor="middle" x="2422" y="-105.5" font-family="Helvetica,sans-Serif" font-size="10.00" fill="grey"> symbol_table</text>
</g>
<!-- Node12 -->
<g id="Node000012" class="node">
<title>Node12</title>
<g id="a_Node000012"><a xlink:href="classnamespacet.html" target="_top" xlink:title="A namespacet is essentially one or two symbol tables bound together, to allow for symbol lookups in t...">
<polygon fill="white" stroke="#666666" points="2344,-239 2267,-239 2267,-220 2344,-220 2344,-239"/>
<text text-anchor="middle" x="2305.5" y="-227" font-family="Helvetica,sans-Serif" font-size="10.00">namespacet</text>
</a>
</g>
</g>
<!-- Node6&#45;&gt;Node12 -->
<g id="edge16_Node000012_Node000006" class="edge">
<title>Node6&#45;&gt;Node12</title>
<g id="a_edge16_Node000012_Node000006"><a xlink:title=" ">
<path fill="none" stroke="#9a32cd" stroke-dasharray="5,2" d="M2149.9,-186.79C2176.26,-191.78 2206.74,-198.18 2234,-205.5 2249.11,-209.56 2265.69,-215.14 2278.97,-219.9"/>
<polygon fill="#9a32cd" stroke="#9a32cd" points="2150.48,-183.34 2140.01,-184.95 2149.2,-190.22 2150.48,-183.34"/>
</a>
</g>
<text text-anchor="middle" x="2196" y="-219.5" font-family="Helvetica,sans-Serif" font-size="10.00" fill="grey"> symbol_table1</text>
<text text-anchor="middle" x="2196" y="-208.5" font-family="Helvetica,sans-Serif" font-size="10.00" fill="grey">symbol_table2</text>
</g>
<!-- Node6&#45;&gt;Node23 -->
<g id="edge35_Node000023_Node000006" class="edge">
<title>Node6&#45;&gt;Node23</title>
<g id="a_edge35_Node000023_Node000006"><a xlink:title=" ">
<path fill="none" stroke="#9a32cd" stroke-dasharray="5,2" d="M2150.19,-178.54C2206.23,-181.82 2288.27,-188.29 2359,-200.5 2414.82,-210.13 2478.44,-227.97 2515.23,-238.97"/>
<polygon fill="#9a32cd" stroke="#9a32cd" points="2150.22,-175.04 2140.04,-177.97 2149.83,-182.03 2150.22,-175.04"/>
</a>
</g>
<text text-anchor="middle" x="2305.5" y="-203.5" font-family="Helvetica,sans-Serif" font-size="10.00" fill="grey"> symbol_table</text>
</g>
<!-- Node7&#45;&gt;Node6 -->
<g id="edge6_Node000006_Node000007" class="edge">
<title>Node7&#45;&gt;Node6</title>
<g id="a_edge6_Node000006_Node000007"><a xlink:title=" ">
<path fill="none" stroke="#9a32cd" stroke-dasharray="5,2" d="M465.82,-98.83C530.44,-99.12 631.47,-99.5 719,-99.5 719,-99.5 719,-99.5 1460.5,-99.5 1533.88,-99.5 1551.21,-113.17 1624,-122.5 1768.14,-140.99 1938.22,-159.94 2024.74,-169.38"/>
<polygon fill="#9a32cd" stroke="#9a32cd" points="465.79,-95.33 455.77,-98.78 465.76,-102.33 465.79,-95.33"/>
</a>
</g>
<text text-anchor="middle" x="1459.5" y="-102.5" font-family="Helvetica,sans-Serif" font-size="10.00" fill="grey"> symbols</text>
</g>
<!-- Node8 -->
<g id="Node000008" class="node">
<title>Node8</title>
<g id="a_Node000008"><a xlink:title=" ">
<polygon fill="white" stroke="#666666" points="177,-124 148,-124 148,-105 177,-105 177,-124"/>
<text text-anchor="middle" x="162.5" y="-112" font-family="Helvetica,sans-Serif" font-size="10.00">K</text>
</a>
</g>
</g>
<!-- Node8&#45;&gt;Node7 -->
<g id="edge7_Node000007_Node000008" class="edge">
<title>Node8&#45;&gt;Node7</title>
<g id="a_edge7_Node000007_Node000008"><a xlink:title=" ">
<path fill="none" stroke="#9a32cd" stroke-dasharray="5,2" d="M187.02,-110.72C199.47,-108.85 215.03,-106.75 229,-105.5 266.33,-102.17 308.45,-100.42 341.25,-99.5"/>
<polygon fill="#9a32cd" stroke="#9a32cd" points="186.36,-107.28 177.01,-112.26 187.42,-114.2 186.36,-107.28"/>
</a>
</g>
<text text-anchor="middle" x="270" y="-108.5" font-family="Helvetica,sans-Serif" font-size="10.00" fill="grey"> keys</text>
</g>
<!-- Node8&#45;&gt;Node11 -->
<g id="edge12_Node000011_Node000008" class="edge">
<title>Node8&#45;&gt;Node11</title>
<g id="a_edge12_Node000011_Node000008"><a xlink:title=" ">
<path fill="none" stroke="#9a32cd" stroke-dasharray="5,2" d="M187.12,-117.23C221.5,-121.19 286.54,-128.7 335.24,-134.32"/>
<polygon fill="#9a32cd" stroke="#9a32cd" points="187.43,-113.74 177.09,-116.07 186.63,-120.69 187.43,-113.74"/>
</a>
</g>
<text text-anchor="middle" x="270" y="-133.5" font-family="Helvetica,sans-Serif" font-size="10.00" fill="grey"> keys</text>
</g>
<!-- Node8&#45;&gt;Node21 -->
<g id="edge30_Node000021_Node000008" class="edge">
<title>Node8&#45;&gt;Node21</title>
<g id="a_edge30_Node000021_Node000008"><a xlink:title=" ">
<path fill="none" stroke="#9a32cd" stroke-dasharray="5,2" d="M186.6,-122.79C195.67,-127.24 205.26,-133.65 211,-142.5 249.7,-202.16 191.79,-240.89 229,-301.5 251.83,-338.69 286.14,-319.64 311,-355.5 331.52,-385.09 303.96,-408.62 329,-434.5 334.22,-439.89 340.84,-443.73 347.89,-446.46"/>
<polygon fill="#9a32cd" stroke="#9a32cd" points="187.74,-119.47 177.17,-118.73 184.97,-125.9 187.74,-119.47"/>
</a>
</g>
<text text-anchor="middle" x="270" y="-358.5" font-family="Helvetica,sans-Serif" font-size="10.00" fill="grey"> keys</text>
</g>
<!-- Node35 -->
<g id="Node000035" class="node">
<title>Node35</title>
<g id="a_Node000035"><a xlink:title=" ">
<polygon fill="white" stroke="#666666" points="623,-55 486,-55 486,-36 623,-36 623,-55"/>
<text text-anchor="middle" x="554.5" y="-43" font-family="Helvetica,sans-Serif" font-size="10.00">std::unordered_set&lt; K &gt;</text>
</a>
</g>
</g>
<!-- Node8&#45;&gt;Node35 -->
<g id="edge56_Node000035_Node000008" class="edge">
<title>Node8&#45;&gt;Node35</title>
<g id="a_edge56_Node000035_Node000008"><a xlink:title=" ">
<path fill="none" stroke="#9a32cd" stroke-dasharray="5,2" d="M186.2,-102.47C198.54,-96.44 214.25,-89.58 229,-85.5 315.72,-61.53 419.45,-51.91 485.88,-48.05"/>
<polygon fill="#9a32cd" stroke="#9a32cd" points="184.47,-99.42 177.12,-107.05 187.62,-105.67 184.47,-99.42"/>
</a>
</g>
<text text-anchor="middle" x="270" y="-88.5" font-family="Helvetica,sans-Serif" font-size="10.00" fill="grey"> keys</text>
</g>
<!-- Node9 -->
<g id="Node000009" class="node">
<title>Node9</title>
<g id="a_Node000009"><a xlink:title=" ">
<polygon fill="white" stroke="#666666" points="777.5,-219.5 662.5,-219.5 662.5,-189.5 777.5,-189.5 777.5,-219.5"/>
<text text-anchor="start" x="670.5" y="-207.5" font-family="Helvetica,sans-Serif" font-size="10.00">std::multimap&lt; irep</text>
<text text-anchor="middle" x="720" y="-196.5" font-family="Helvetica,sans-Serif" font-size="10.00">_idt, irep_idt &gt;</text>
</a>
</g>
</g>
<!-- Node9&#45;&gt;Node6 -->
<g id="edge9_Node000006_Node000009" class="edge">
<title>Node9&#45;&gt;Node6</title>
<g id="a_edge9_Node000006_Node000009"><a xlink:title=" ">
<path fill="none" stroke="#9a32cd" stroke-dasharray="5,2" d="M787.86,-198.23C852.74,-192.7 954.03,-185.5 1042,-185.5 1042,-185.5 1042,-185.5 1930,-185.5 1961.37,-185.5 1996.31,-183.34 2024.72,-181.03"/>
<polygon fill="#9a32cd" stroke="#9a32cd" points="787.43,-194.76 777.77,-199.11 788.03,-201.73 787.43,-194.76"/>
</a>
</g>
<text text-anchor="middle" x="1553" y="-199.5" font-family="Helvetica,sans-Serif" font-size="10.00" fill="grey"> symbol_base_map</text>
<text text-anchor="middle" x="1553" y="-188.5" font-family="Helvetica,sans-Serif" font-size="10.00" fill="grey">symbol_module_map</text>
</g>
<!-- Node10 -->
<g id="Node000010" class="node">
<title>Node10</title>
<g id="a_Node000010"><a xlink:href="classdstringt.html" target="_top" xlink:title="dstringt has one field, an unsigned integer no which is an index into a static table of strings.">
<polygon fill="white" stroke="#666666" points="425.5,-333 371.5,-333 371.5,-314 425.5,-314 425.5,-333"/>
<text text-anchor="middle" x="398.5" y="-321" font-family="Helvetica,sans-Serif" font-size="10.00">dstringt</text>
</a>
</g>
</g>
<!-- Node10&#45;&gt;Node9 -->
<g id="edge10_Node000009_Node000010" class="edge">
<title>Node10&#45;&gt;Node9</title>
<g id="a_edge10_Node000009_Node000010"><a xlink:title=" ">
<path fill="none" stroke="#9a32cd" stroke-dasharray="5,2" d="M435.33,-316.49C447.07,-312.62 459.31,-306.65 468,-297.5 486,-278.54 466.15,-258.51 486,-241.5 534.51,-199.92 610.42,-195.27 662.32,-197.99"/>
<polygon fill="#9a32cd" stroke="#9a32cd" points="434.32,-313.14 425.68,-319.27 436.26,-319.86 434.32,-313.14"/>
</a>
</g>
<text text-anchor="middle" x="554.5" y="-255.5" font-family="Helvetica,sans-Serif" font-size="10.00" fill="grey"> elements</text>
<text text-anchor="middle" x="554.5" y="-244.5" font-family="Helvetica,sans-Serif" font-size="10.00" fill="grey">keys</text>
</g>
<!-- Node15 -->
<g id="Node000015" class="node">
<title>Node15</title>
<g id="a_Node000015"><a xlink:title=" ">
<polygon fill="white" stroke="#666666" points="1411.5,-410.5 1301.5,-410.5 1301.5,-380.5 1411.5,-380.5 1411.5,-410.5"/>
<text text-anchor="start" x="1309.5" y="-398.5" font-family="Helvetica,sans-Serif" font-size="10.00">std::map&lt; irep_idt,</text>
<text text-anchor="middle" x="1356.5" y="-387.5" font-family="Helvetica,sans-Serif" font-size="10.00"> goto_functiont &gt;</text>
</a>
</g>
</g>
<!-- Node10&#45;&gt;Node15 -->
<g id="edge19_Node000015_Node000010" class="edge">
<title>Node10&#45;&gt;Node15</title>
<g id="a_edge19_Node000015_Node000010"><a xlink:title=" ">
<path fill="none" stroke="#9a32cd" stroke-dasharray="5,2" d="M435.74,-325.52C524.61,-330.54 760.47,-344.28 957,-359.5 1080.28,-369.05 1224.78,-382.72 1301.39,-390.17"/>
<polygon fill="#9a32cd" stroke="#9a32cd" points="435.82,-322.02 425.64,-324.95 435.43,-329.01 435.82,-322.02"/>
</a>
</g>
<text text-anchor="middle" x="887" y="-362.5" font-family="Helvetica,sans-Serif" font-size="10.00" fill="grey"> keys</text>
</g>
<!-- Node10&#45;&gt;Node20 -->
<g id="edge27_Node000020_Node000010" class="edge">
<title>Node10&#45;&gt;Node20</title>
<g id="a_edge27_Node000020_Node000010"><a xlink:title=" ">
<path fill="none" stroke="#9a32cd" stroke-dasharray="5,2" d="M435.77,-330.93C451.23,-334.02 469.47,-337.56 486,-340.5 543.26,-350.67 608.69,-360.94 655.6,-368.07"/>
<polygon fill="#9a32cd" stroke="#9a32cd" points="436.07,-327.42 425.57,-328.88 434.68,-334.29 436.07,-327.42"/>
</a>
</g>
<text text-anchor="middle" x="554.5" y="-364.5" font-family="Helvetica,sans-Serif" font-size="10.00" fill="grey"> elements</text>
</g>
<!-- Node27 -->
<g id="Node000027" class="node">
<title>Node27</title>
<g id="a_Node000027"><a xlink:href="classtree__nodet.html" target="_top" xlink:title="A node with data in a tree, it contains:">
<polygon fill="white" stroke="#666666" points="799,-284.5 641,-284.5 641,-254.5 799,-254.5 799,-284.5"/>
<text text-anchor="start" x="649" y="-272.5" font-family="Helvetica,sans-Serif" font-size="10.00">tree_nodet&lt; treet,</text>
<text text-anchor="middle" x="720" y="-261.5" font-family="Helvetica,sans-Serif" font-size="10.00"> named_subtreest, sharing &gt;</text>
</a>
</g>
</g>
<!-- Node10&#45;&gt;Node27 -->
<g id="edge43_Node000027_Node000010" class="edge">
<title>Node10&#45;&gt;Node27</title>
<g id="a_edge43_Node000027_Node000010"><a xlink:title=" ">
<path fill="none" stroke="#9a32cd" stroke-dasharray="5,2" d="M435.72,-314.98C451.16,-311.49 469.42,-307.56 486,-304.5 537.39,-295.01 595.51,-286.27 640.85,-279.9"/>
<polygon fill="#9a32cd" stroke="#9a32cd" points="434.49,-311.67 425.53,-317.31 436.05,-318.49 434.49,-311.67"/>
</a>
</g>
<text text-anchor="middle" x="554.5" y="-307.5" font-family="Helvetica,sans-Serif" font-size="10.00" fill="grey"> data</text>
</g>
<!-- Node11&#45;&gt;Node9 -->
<g id="edge11_Node000009_Node000011" class="edge">
<title>Node11&#45;&gt;Node9</title>
<g id="a_edge11_Node000009_Node000011"><a xlink:title=" ">
<path fill="none" stroke="orange" stroke-dasharray="5,2" d="M472.02,-144.73C516.17,-147.9 573.44,-154.15 623,-166.5 645.09,-172 668.89,-181.4 687.26,-189.47"/>
<polygon fill="orange" stroke="orange" points="472.16,-141.23 461.94,-144.05 471.68,-148.22 472.16,-141.23"/>
</a>
</g>
<text text-anchor="middle" x="554.5" y="-169.5" font-family="Helvetica,sans-Serif" font-size="10.00" fill="grey"> &lt; irep_idt, irep_idt &gt;</text>
</g>
<!-- Node12&#45;&gt;Node1 -->
<g id="edge14_Node000001_Node000012" class="edge">
<title>Node12&#45;&gt;Node1</title>
<g id="a_edge14_Node000001_Node000012"><a xlink:title=" ">
<path fill="none" stroke="#9a32cd" stroke-dasharray="5,2" d="M2353.44,-219.6C2355.41,-218.39 2357.28,-217.03 2359,-215.5 2375.12,-201.21 2359.33,-182.82 2377,-170.5 2392.05,-160.01 2688.69,-162.51 2707,-161.5 2712.73,-161.18 2718.68,-160.8 2724.64,-160.38"/>
<polygon fill="#9a32cd" stroke="#9a32cd" points="2351.73,-216.54 2344.25,-224.05 2354.78,-222.84 2351.73,-216.54"/>
</a>
</g>
<text text-anchor="middle" x="2547" y="-165.5" font-family="Helvetica,sans-Serif" font-size="10.00" fill="grey"> ns</text>
</g>
<!-- Node12&#45;&gt;Node23 -->
<g id="edge36_Node000023_Node000012" class="edge">
<title>Node12&#45;&gt;Node23</title>
<g id="a_edge36_Node000023_Node000012"><a xlink:title=" ">
<path fill="none" stroke="#9a32cd" stroke-dasharray="5,2" d="M2354.27,-233.29C2394.48,-236.48 2451.9,-241.04 2493.41,-244.33"/>
<polygon fill="#9a32cd" stroke="#9a32cd" points="2354.43,-229.79 2344.19,-232.49 2353.88,-236.77 2354.43,-229.79"/>
</a>
</g>
<text text-anchor="middle" x="2422" y="-244.5" font-family="Helvetica,sans-Serif" font-size="10.00" fill="grey"> ns</text>
</g>
<!-- Node13 -->
<g id="Node000013" class="node">
<title>Node13</title>
<g id="a_Node000013"><a xlink:href="classnamespace__baset.html" target="_top" xlink:title="Basic interface for a namespace.">
<polygon fill="white" stroke="#666666" points="2135,-235 2030,-235 2030,-216 2135,-216 2135,-235"/>
<text text-anchor="middle" x="2082.5" y="-223" font-family="Helvetica,sans-Serif" font-size="10.00">namespace_baset</text>
</a>
</g>
</g>
<!-- Node13&#45;&gt;Node12 -->
<g id="edge15_Node000012_Node000013" class="edge">
<title>Node13&#45;&gt;Node12</title>
<g id="a_edge15_Node000012_Node000013"><a xlink:title=" ">
<path fill="none" stroke="#63b8ff" d="M2145.24,-230.86C2149.56,-231.11 2153.84,-231.33 2158,-231.5 2191.75,-232.86 2200.23,-231.98 2234,-231.5 2244.65,-231.35 2256.21,-231.07 2266.82,-230.77"/>
<polygon fill="#63b8ff" stroke="#63b8ff" points="2145.37,-227.36 2135.17,-230.2 2144.92,-234.34 2145.37,-227.36"/>
</a>
</g>
</g>
<!-- Node14 -->
<g id="Node000014" class="node">
<title>Node14</title>
<g id="a_Node000014"><a xlink:href="classgoto__functionst.html" target="_top" xlink:title="A collection of goto functions.">
<polygon fill="white" stroke="#666666" points="2351.5,-405 2259.5,-405 2259.5,-386 2351.5,-386 2351.5,-405"/>
<text text-anchor="middle" x="2305.5" y="-393" font-family="Helvetica,sans-Serif" font-size="10.00">goto_functionst</text>
</a>
</g>
</g>
<!-- Node14&#45;&gt;Node1 -->
<g id="edge17_Node000001_Node000014" class="edge">
<title>Node14&#45;&gt;Node1</title>
<g id="a_edge17_Node000001_Node000014"><a xlink:title=" ">
<path fill="none" stroke="#9a32cd" stroke-dasharray="5,2" d="M2358.17,-406.88C2440.66,-421.9 2603.36,-438.23 2707,-361.5 2774.38,-311.61 2788.21,-198.54 2790.89,-164.43"/>
<polygon fill="#9a32cd" stroke="#9a32cd" points="2358.75,-403.43 2348.27,-405.02 2357.45,-410.31 2358.75,-403.43"/>
</a>
</g>
<text text-anchor="middle" x="2547" y="-422.5" font-family="Helvetica,sans-Serif" font-size="10.00" fill="grey"> goto_functions</text>
</g>
<!-- Node14&#45;&gt;Node23 -->
<g id="edge37_Node000023_Node000014" class="edge">
<title>Node14&#45;&gt;Node23</title>
<g id="a_edge37_Node000023_Node000014"><a xlink:title=" ">
<path fill="none" stroke="#9a32cd" stroke-dasharray="5,2" d="M2344.1,-382.41C2377.82,-369.76 2427.87,-348.69 2467,-322.5 2495.74,-303.27 2523.98,-273.45 2537.59,-258.2"/>
<polygon fill="#9a32cd" stroke="#9a32cd" points="2342.79,-379.16 2334.61,-385.91 2345.21,-385.73 2342.79,-379.16"/>
</a>
</g>
<text text-anchor="middle" x="2422" y="-371.5" font-family="Helvetica,sans-Serif" font-size="10.00" fill="grey"> goto_functions</text>
</g>
<!-- Node15&#45;&gt;Node14 -->
<g id="edge18_Node000014_Node000015" class="edge">
<title>Node15&#45;&gt;Node14</title>
<g id="a_edge18_Node000014_Node000015"><a xlink:title=" ">
<path fill="none" stroke="#9a32cd" stroke-dasharray="5,2" d="M1421.96,-395.5C1459.83,-395.5 1508.63,-395.5 1552,-395.5 1552,-395.5 1552,-395.5 2083.5,-395.5 2144.31,-395.5 2214.54,-395.5 2259.21,-395.5"/>
<polygon fill="#9a32cd" stroke="#9a32cd" points="1421.58,-392 1411.58,-395.5 1421.58,-399 1421.58,-392"/>
</a>
</g>
<text text-anchor="middle" x="1817" y="-398.5" font-family="Helvetica,sans-Serif" font-size="10.00" fill="grey"> function_map</text>
</g>
<!-- Node16 -->
<g id="Node000016" class="node">
<title>Node16</title>
<g id="a_Node000016"><a xlink:href="classgoto__functiont.html" target="_top" xlink:title="A goto function, consisting of function body (see body) and parameter identifiers (see parameter_iden...">
<polygon fill="white" stroke="#666666" points="1086.5,-405 999.5,-405 999.5,-386 1086.5,-386 1086.5,-405"/>
<text text-anchor="middle" x="1043" y="-393" font-family="Helvetica,sans-Serif" font-size="10.00">goto_functiont</text>
</a>
</g>
</g>
<!-- Node16&#45;&gt;Node15 -->
<g id="edge20_Node000015_Node000016" class="edge">
<title>Node16&#45;&gt;Node15</title>
<g id="a_edge20_Node000015_Node000016"><a xlink:title=" ">
<path fill="none" stroke="#9a32cd" stroke-dasharray="5,2" d="M1096.89,-395.5C1153.82,-395.5 1243.92,-395.5 1301.34,-395.5"/>
<polygon fill="#9a32cd" stroke="#9a32cd" points="1096.66,-392 1086.66,-395.5 1096.66,-399 1096.66,-392"/>
</a>
</g>
<text text-anchor="middle" x="1202.5" y="-398.5" font-family="Helvetica,sans-Serif" font-size="10.00" fill="grey"> elements</text>
</g>
<!-- Node17 -->
<g id="Node000017" class="node">
<title>Node17</title>
<g id="a_Node000017"><a xlink:href="classgoto__programt.html" target="_top" xlink:title="A generic container class for the GOTO intermediate representation of one function.">
<polygon fill="white" stroke="#666666" points="764.5,-424 675.5,-424 675.5,-405 764.5,-405 764.5,-424"/>
<text text-anchor="middle" x="720" y="-412" font-family="Helvetica,sans-Serif" font-size="10.00">goto_programt</text>
</a>
</g>
</g>
<!-- Node17&#45;&gt;Node16 -->
<g id="edge21_Node000016_Node000017" class="edge">
<title>Node17&#45;&gt;Node16</title>
<g id="a_edge21_Node000016_Node000017"><a xlink:title=" ">
<path fill="none" stroke="#9a32cd" stroke-dasharray="5,2" d="M774.79,-411.32C838.01,-407.57 941.62,-401.44 999.49,-398.02"/>
<polygon fill="#9a32cd" stroke="#9a32cd" points="774.4,-407.83 764.63,-411.92 774.81,-414.82 774.4,-407.83"/>
</a>
</g>
<text text-anchor="middle" x="887" y="-410.5" font-family="Helvetica,sans-Serif" font-size="10.00" fill="grey"> body</text>
</g>
<!-- Node18&#45;&gt;Node17 -->
<g id="edge22_Node000017_Node000018" class="edge">
<title>Node18&#45;&gt;Node17</title>
<g id="a_edge22_Node000017_Node000018"><a xlink:title=" ">
<path fill="none" stroke="#9a32cd" stroke-dasharray="5,2" d="M474.36,-415.27C536.85,-415.07 623.78,-414.8 675.43,-414.64"/>
<polygon fill="#9a32cd" stroke="#9a32cd" points="474.14,-411.77 464.16,-415.3 474.17,-418.77 474.14,-411.77"/>
</a>
</g>
<text text-anchor="middle" x="554.5" y="-417.5" font-family="Helvetica,sans-Serif" font-size="10.00" fill="grey"> instructions</text>
</g>
<!-- Node19&#45;&gt;Node18 -->
<g id="edge24_Node000018_Node000019" class="edge">
<title>Node19&#45;&gt;Node18</title>
<g id="a_edge24_Node000018_Node000019"><a xlink:title=" ">
<path fill="none" stroke="orange" stroke-dasharray="5,2" d="M181.93,-377.36C194.36,-387.05 211.6,-398.68 229,-404.5 262.08,-415.58 300.82,-418.73 332.8,-418.94"/>
<polygon fill="orange" stroke="orange" points="184.13,-374.63 174.15,-371.05 179.71,-380.07 184.13,-374.63"/>
</a>
</g>
<text text-anchor="middle" x="270" y="-420.5" font-family="Helvetica,sans-Serif" font-size="10.00" fill="grey"> &lt; instructiont &gt;</text>
</g>
<!-- Node20&#45;&gt;Node16 -->
<g id="edge26_Node000016_Node000020" class="edge">
<title>Node20&#45;&gt;Node16</title>
<g id="a_edge26_Node000016_Node000020"><a xlink:title=" ">
<path fill="none" stroke="#9a32cd" stroke-dasharray="5,2" d="M794.28,-375.38C840.95,-374.79 902.65,-375.39 957,-380.5 970.87,-381.8 985.89,-384.14 999.38,-386.59"/>
<polygon fill="#9a32cd" stroke="#9a32cd" points="794.2,-371.88 784.25,-375.53 794.3,-378.88 794.2,-371.88"/>
</a>
</g>
<text text-anchor="middle" x="887" y="-383.5" font-family="Helvetica,sans-Serif" font-size="10.00" fill="grey"> parameter_identifiers</text>
</g>
<!-- Node21&#45;&gt;Node15 -->
<g id="edge29_Node000015_Node000021" class="edge">
<title>Node21&#45;&gt;Node15</title>
<g id="a_edge29_Node000015_Node000021"><a xlink:title=" ">
<path fill="none" stroke="orange" stroke-dasharray="5,2" d="M459.36,-452.49C601.54,-451.85 970.46,-446.52 1276,-410.5 1284.23,-409.53 1292.89,-408.21 1301.34,-406.75"/>
<polygon fill="orange" stroke="orange" points="459.11,-448.99 449.12,-452.53 459.13,-455.99 459.11,-448.99"/>
</a>
</g>
<text text-anchor="middle" x="887" y="-446.5" font-family="Helvetica,sans-Serif" font-size="10.00" fill="grey"> &lt; irep_idt, goto_functiont &gt;</text>
</g>
<!-- Node22 -->
<g id="Node000022" class="node">
<title>Node22</title>
<g id="a_Node000022"><a xlink:href="structguard__expr__managert.html" target="_top" xlink:title="This is unused by this implementation of guards, but can be used by other implementations of the same...">
<polygon fill="white" stroke="#666666" points="2609,-19 2485,-19 2485,0 2609,0 2609,-19"/>
<text text-anchor="middle" x="2547" y="-7" font-family="Helvetica,sans-Serif" font-size="10.00">guard_expr_managert</text>
</a>
</g>
</g>
<!-- Node22&#45;&gt;Node1 -->
<g id="edge32_Node000001_Node000022" class="edge">
<title>Node22&#45;&gt;Node1</title>
<g id="a_edge32_Node000001_Node000022"><a xlink:title=" ">
<path fill="none" stroke="#9a32cd" stroke-dasharray="5,2" d="M2619.37,-2.04C2648.38,-2.26 2681.1,-6.92 2707,-22.5 2755.03,-51.39 2780.48,-119.26 2788.59,-144.67"/>
<polygon fill="#9a32cd" stroke="#9a32cd" points="2619.25,1.45 2609.29,-2.14 2619.32,-5.55 2619.25,1.45"/>
</a>
</g>
<text text-anchor="middle" x="2667" y="-25.5" font-family="Helvetica,sans-Serif" font-size="10.00" fill="grey"> guard_manager</text>
</g>
<!-- Node23&#45;&gt;Node1 -->
<g id="edge33_Node000001_Node000023" class="edge">
<title>Node23&#45;&gt;Node1</title>
<g id="a_edge33_Node000001_Node000023"><a xlink:title=" ">
<path fill="none" stroke="#9a32cd" stroke-dasharray="5,2" d="M2587.14,-235.74C2619.53,-224.93 2666.62,-208.66 2707,-192.5 2729.4,-183.54 2754.56,-172.03 2771.56,-164.04"/>
<polygon fill="#9a32cd" stroke="#9a32cd" points="2585.97,-232.44 2577.58,-238.91 2588.17,-239.08 2585.97,-232.44"/>
</a>
</g>
<text text-anchor="middle" x="2667" y="-223.5" font-family="Helvetica,sans-Serif" font-size="10.00" fill="grey"> utils</text>
</g>
<!-- Node24 -->
<g id="Node000024" class="node">
<title>Node24</title>
<g id="a_Node000024"><a xlink:href="classexprt.html" target="_top" xlink:title="Base class for all expressions.">
<polygon fill="white" stroke="#666666" points="1764,-285 1722,-285 1722,-266 1764,-266 1764,-285"/>
<text text-anchor="middle" x="1743" y="-273" font-family="Helvetica,sans-Serif" font-size="10.00">exprt</text>
</a>
</g>
</g>
<!-- Node24&#45;&gt;Node1 -->
<g id="edge52_Node000001_Node000024" class="edge">
<title>Node24&#45;&gt;Node1</title>
<g id="a_edge52_Node000001_Node000024"><a xlink:title=" ">
<path fill="none" stroke="#9a32cd" stroke-dasharray="5,2" d="M1760.82,-292.36C1767.05,-297.84 1774.44,-303.53 1782,-307.5 1841.56,-338.79 1860.72,-347.5 1928,-347.5 1928,-347.5 1928,-347.5 2548,-347.5 2667.48,-347.5 2762.5,-203.01 2785.93,-164.07"/>
<polygon fill="#9a32cd" stroke="#9a32cd" points="1762.84,-289.47 1753.14,-285.2 1758.06,-294.58 1762.84,-289.47"/>
</a>
</g>
<text text-anchor="middle" x="2196" y="-350.5" font-family="Helvetica,sans-Serif" font-size="10.00" fill="grey"> loop_counter</text>
</g>
<!-- Node24&#45;&gt;Node23 -->
<g id="edge38_Node000023_Node000024" class="edge">
<title>Node24&#45;&gt;Node23</title>
<g id="a_edge38_Node000023_Node000024"><a xlink:title=" ">
<path fill="none" stroke="#9a32cd" stroke-dasharray="5,2" d="M1774.12,-284.29C1810.32,-294.07 1873.06,-308.5 1928,-308.5 1928,-308.5 1928,-308.5 2306.5,-308.5 2388.59,-308.5 2481.88,-274.93 2523.68,-258.01"/>
<polygon fill="#9a32cd" stroke="#9a32cd" points="1774.78,-280.84 1764.21,-281.55 1772.91,-287.59 1774.78,-280.84"/>
</a>
</g>
<text text-anchor="middle" x="2082.5" y="-311.5" font-family="Helvetica,sans-Serif" font-size="10.00" fill="grey"> loop_counter</text>
</g>
<!-- Node33 -->
<g id="Node000033" class="node">
<title>Node33</title>
<g id="a_Node000033"><a xlink:href="classexpr__protectedt.html" target="_top" xlink:title="Base class for all expressions.">
<polygon fill="white" stroke="#666666" points="1976,-276 1882,-276 1882,-257 1976,-257 1976,-276"/>
<text text-anchor="middle" x="1929" y="-264" font-family="Helvetica,sans-Serif" font-size="10.00">expr_protectedt</text>
</a>
</g>
</g>
<!-- Node24&#45;&gt;Node33 -->
<g id="edge51_Node000033_Node000024" class="edge">
<title>Node24&#45;&gt;Node33</title>
<g id="a_edge51_Node000033_Node000024"><a xlink:title=" ">
<path fill="none" stroke="#63b8ff" d="M1774.04,-274.03C1803.23,-272.6 1847.96,-270.42 1881.7,-268.76"/>
<polygon fill="#63b8ff" stroke="#63b8ff" points="1773.86,-270.54 1764.04,-274.52 1774.2,-277.53 1773.86,-270.54"/>
</a>
</g>
</g>
<!-- Node34 -->
<g id="Node000034" class="node">
<title>Node34</title>
<g id="a_Node000034"><a xlink:title=" ">
<polygon fill="white" stroke="#666666" points="1988,-60.5 1870,-60.5 1870,-30.5 1988,-30.5 1988,-60.5"/>
<text text-anchor="start" x="1878" y="-48.5" font-family="Helvetica,sans-Serif" font-size="10.00">std::unordered_set</text>
<text text-anchor="middle" x="1929" y="-37.5" font-family="Helvetica,sans-Serif" font-size="10.00">&lt; exprt, irep_hash &gt;</text>
</a>
</g>
</g>
<!-- Node24&#45;&gt;Node34 -->
<g id="edge54_Node000034_Node000024" class="edge">
<title>Node24&#45;&gt;Node34</title>
<g id="a_edge54_Node000034_Node000024"><a xlink:title=" ">
<path fill="none" stroke="#9a32cd" stroke-dasharray="5,2" d="M1758.07,-257.91C1793.02,-214.22 1883.32,-101.35 1915.98,-60.52"/>
<polygon fill="#9a32cd" stroke="#9a32cd" points="1755.19,-255.91 1751.67,-265.91 1760.65,-260.29 1755.19,-255.91"/>
</a>
</g>
<text text-anchor="middle" x="1817" y="-228.5" font-family="Helvetica,sans-Serif" font-size="10.00" fill="grey"> keys</text>
</g>
<!-- Node25 -->
<g id="Node000025" class="node">
<title>Node25</title>
<g id="a_Node000025"><a xlink:href="classirept.html" target="_top" xlink:title="There are a large number of kinds of tree structured or tree&#45;like data in CPROVER.">
<polygon fill="white" stroke="#666666" points="1572.5,-285 1533.5,-285 1533.5,-266 1572.5,-266 1572.5,-285"/>
<text text-anchor="middle" x="1553" y="-273" font-family="Helvetica,sans-Serif" font-size="10.00">irept</text>
</a>
</g>
</g>
<!-- Node25&#45;&gt;Node24 -->
<g id="edge39_Node000024_Node000025" class="edge">
<title>Node25&#45;&gt;Node24</title>
<g id="a_edge39_Node000024_Node000025"><a xlink:title=" ">
<path fill="none" stroke="#63b8ff" d="M1582.75,-275.5C1621.23,-275.5 1688.51,-275.5 1721.95,-275.5"/>
<polygon fill="#63b8ff" stroke="#63b8ff" points="1582.71,-272 1572.71,-275.5 1582.71,-279 1582.71,-272"/>
</a>
</g>
</g>
<!-- Node26 -->
<g id="Node000026" class="node">
<title>Node26</title>
<g id="a_Node000026"><a xlink:href="classsharing__treet.html" target="_top" xlink:title=" ">
<polygon fill="white" stroke="#666666" points="1419,-296 1294,-296 1294,-255 1419,-255 1419,-296"/>
<text text-anchor="start" x="1302" y="-284" font-family="Helvetica,sans-Serif" font-size="10.00">sharing_treet&lt; irept,</text>
<text text-anchor="start" x="1302" y="-273" font-family="Helvetica,sans-Serif" font-size="10.00"> forward_list_as_mapt</text>
<text text-anchor="middle" x="1356.5" y="-262" font-family="Helvetica,sans-Serif" font-size="10.00">&lt; irep_idt, irept &gt; &gt;</text>
</a>
</g>
</g>
<!-- Node26&#45;&gt;Node25 -->
<g id="edge40_Node000025_Node000026" class="edge">
<title>Node26&#45;&gt;Node25</title>
<g id="a_edge40_Node000025_Node000026"><a xlink:title=" ">
<path fill="none" stroke="#63b8ff" d="M1429.38,-275.5C1466.61,-275.5 1509.17,-275.5 1533.09,-275.5"/>
<polygon fill="#63b8ff" stroke="#63b8ff" points="1429.04,-272 1419.04,-275.5 1429.04,-279 1429.04,-272"/>
</a>
</g>
</g>
<!-- Node27&#45;&gt;Node26 -->
<g id="edge41_Node000026_Node000027" class="edge">
<title>Node27&#45;&gt;Node26</title>
<g id="a_edge41_Node000026_Node000027"><a xlink:title=" ">
<path fill="none" stroke="#9a32cd" stroke-dasharray="5,2" d="M809.47,-270.34C939.95,-271.57 1180.69,-273.85 1293.78,-274.92"/>
<polygon fill="#9a32cd" stroke="#9a32cd" points="809.15,-266.83 799.12,-270.24 809.09,-273.83 809.15,-266.83"/>
</a>
</g>
<text text-anchor="middle" x="1043" y="-286.5" font-family="Helvetica,sans-Serif" font-size="10.00" fill="grey"> data</text>
<text text-anchor="middle" x="1043" y="-275.5" font-family="Helvetica,sans-Serif" font-size="10.00" fill="grey">empty_d</text>
</g>
<!-- Node30 -->
<g id="Node000030" class="node">
<title>Node30</title>
<g id="a_Node000030"><a xlink:href="classsharing__treet.html" target="_top" xlink:title="Base class for tree&#45;like data structures with sharing.">
<polygon fill="white" stroke="#666666" points="1111,-243.5 975,-243.5 975,-213.5 1111,-213.5 1111,-243.5"/>
<text text-anchor="start" x="983" y="-231.5" font-family="Helvetica,sans-Serif" font-size="10.00">sharing_treet&lt; derivedt,</text>
<text text-anchor="middle" x="1043" y="-220.5" font-family="Helvetica,sans-Serif" font-size="10.00"> named_subtreest &gt;</text>
</a>
</g>
</g>
<!-- Node27&#45;&gt;Node30 -->
<g id="edge47_Node000030_Node000027" class="edge">
<title>Node27&#45;&gt;Node30</title>
<g id="a_edge47_Node000030_Node000027"><a xlink:title=" ">
<path fill="none" stroke="#9a32cd" stroke-dasharray="5,2" d="M779.18,-251.77C791.57,-248.55 804.64,-245.57 817,-243.5 869.52,-234.73 929.73,-231.04 974.65,-229.51"/>
<polygon fill="#9a32cd" stroke="#9a32cd" points="778.18,-248.41 769.42,-254.38 779.99,-255.17 778.18,-248.41"/>
</a>
</g>
<text text-anchor="middle" x="887" y="-257.5" font-family="Helvetica,sans-Serif" font-size="10.00" fill="grey"> data</text>
<text text-anchor="middle" x="887" y="-246.5" font-family="Helvetica,sans-Serif" font-size="10.00" fill="grey">empty_d</text>
</g>
<!-- Node28 -->
<g id="Node000028" class="node">
<title>Node28</title>
<g id="a_Node000028"><a xlink:href="structref__count__ift.html" target="_top" xlink:title="Used in tree_nodet for activating or not reference counting.">
<polygon fill="white" stroke="#666666" points="468,-246 329,-246 329,-227 468,-227 468,-246"/>
<text text-anchor="middle" x="398.5" y="-234" font-family="Helvetica,sans-Serif" font-size="10.00">ref_count_ift&lt; enabled &gt;</text>
</a>
</g>
</g>
<!-- Node28&#45;&gt;Node27 -->
<g id="edge42_Node000027_Node000028" class="edge">
<title>Node28&#45;&gt;Node27</title>
<g id="a_edge42_Node000027_Node000028"><a xlink:title=" ">
<path fill="none" stroke="#63b8ff" d="M478.06,-244.61C527.58,-249.73 591.28,-256.31 640.74,-261.42"/>
<polygon fill="#63b8ff" stroke="#63b8ff" points="478.35,-241.13 468.04,-243.58 477.63,-248.09 478.35,-241.13"/>
</a>
</g>
</g>
<!-- Node29&#45;&gt;Node27 -->
<g id="edge44_Node000027_Node000029" class="edge">
<title>Node29&#45;&gt;Node27</title>
<g id="a_edge44_Node000027_Node000029"><a xlink:title=" ">
<path fill="none" stroke="#9a32cd" stroke-dasharray="5,2" d="M465.73,-271.77C472.57,-271.26 479.42,-270.82 486,-270.5 537.52,-268.01 595.51,-267.75 640.76,-268.12"/>
<polygon fill="#9a32cd" stroke="#9a32cd" points="465.44,-268.29 455.75,-272.58 466,-275.26 465.44,-268.29"/>
</a>
</g>
<text text-anchor="middle" x="554.5" y="-273.5" font-family="Helvetica,sans-Serif" font-size="10.00" fill="grey"> sub</text>
</g>
<!-- Node30&#45;&gt;Node26 -->
<g id="edge46_Node000026_Node000030" class="edge">
<title>Node30&#45;&gt;Node26</title>
<g id="a_edge46_Node000026_Node000030"><a xlink:title=" ">
<path fill="none" stroke="orange" stroke-dasharray="5,2" d="M1121.16,-227.39C1166.72,-228.24 1225.23,-231.95 1276,-243.5 1287.9,-246.21 1300.33,-250.46 1311.73,-255"/>
<polygon fill="orange" stroke="orange" points="1121.11,-223.89 1111.06,-227.24 1121,-230.89 1121.11,-223.89"/>
</a>
</g>
<text text-anchor="start" x="1129" y="-257.5" font-family="Helvetica,sans-Serif" font-size="10.00" fill="grey"> &lt; irept, forward_list</text>
<text text-anchor="middle" x="1202.5" y="-246.5" font-family="Helvetica,sans-Serif" font-size="10.00" fill="grey">_as_mapt&lt; irep_idt, irept &gt; &gt;</text>
</g>
<!-- Node31 -->
<g id="Node000031" class="node">
<title>Node31</title>
<g id="a_Node000031"><a xlink:href="classnil__exprt.html" target="_top" xlink:title="The NIL expression.">
<polygon fill="white" stroke="#666666" points="2335,-280 2276,-280 2276,-261 2335,-261 2335,-280"/>
<text text-anchor="middle" x="2305.5" y="-268" font-family="Helvetica,sans-Serif" font-size="10.00">nil_exprt</text>
</a>
</g>
</g>
<!-- Node31&#45;&gt;Node23 -->
<g id="edge48_Node000023_Node000031" class="edge">
<title>Node31&#45;&gt;Node23</title>
<g id="a_edge48_Node000023_Node000031"><a xlink:title=" ">
<path fill="none" stroke="#9a32cd" stroke-dasharray="5,2" d="M2345.21,-267.28C2377.73,-264.53 2425.41,-260.42 2467,-256.5 2475.51,-255.7 2484.53,-254.82 2493.32,-253.94"/>
<polygon fill="#9a32cd" stroke="#9a32cd" points="2344.89,-263.79 2335.21,-268.12 2345.47,-270.77 2344.89,-263.79"/>
</a>
</g>
<text text-anchor="middle" x="2422" y="-266.5" font-family="Helvetica,sans-Serif" font-size="10.00" fill="grey"> nil</text>
</g>
<!-- Node32 -->
<g id="Node000032" class="node">
<title>Node32</title>
<g id="a_Node000032"><a xlink:href="classnullary__exprt.html" target="_top" xlink:title="An expression without operands.">
<polygon fill="white" stroke="#666666" points="2123,-272 2042,-272 2042,-253 2123,-253 2123,-272"/>
<text text-anchor="middle" x="2082.5" y="-260" font-family="Helvetica,sans-Serif" font-size="10.00">nullary_exprt</text>
</a>
</g>
</g>
<!-- Node32&#45;&gt;Node31 -->
<g id="edge49_Node000031_Node000032" class="edge">
<title>Node32&#45;&gt;Node31</title>
<g id="a_edge49_Node000031_Node000032"><a xlink:title=" ">
<path fill="none" stroke="#63b8ff" d="M2133.2,-264.3C2177.17,-265.89 2239.79,-268.16 2275.87,-269.46"/>
<polygon fill="#63b8ff" stroke="#63b8ff" points="2133.13,-260.79 2123.01,-263.93 2132.88,-267.79 2133.13,-260.79"/>
</a>
</g>
</g>
<!-- Node33&#45;&gt;Node32 -->
<g id="edge50_Node000032_Node000033" class="edge">
<title>Node33&#45;&gt;Node32</title>
<g id="a_edge50_Node000032_Node000033"><a xlink:title=" ">
<path fill="none" stroke="#63b8ff" d="M1986.3,-265.01C2004.69,-264.53 2024.72,-264 2041.65,-263.55"/>
<polygon fill="#63b8ff" stroke="#63b8ff" points="1986.18,-261.52 1976.28,-265.28 1986.37,-268.51 1986.18,-261.52"/>
</a>
</g>
</g>
<!-- Node34&#45;&gt;Node1 -->
<g id="edge53_Node000001_Node000034" class="edge">
<title>Node34&#45;&gt;Node1</title>
<g id="a_edge53_Node000001_Node000034"><a xlink:title=" ">
<path fill="none" stroke="#9a32cd" stroke-dasharray="5,2" d="M1998.41,-46.79C2024.42,-47.17 2054.33,-47.5 2081.5,-47.5 2081.5,-47.5 2081.5,-47.5 2548,-47.5 2644.05,-47.5 2744.77,-118.14 2779.16,-144.63"/>
<polygon fill="#9a32cd" stroke="#9a32cd" points="1998.32,-43.28 1988.27,-46.63 1998.22,-50.28 1998.32,-43.28"/>
</a>
</g>
<text text-anchor="middle" x="2305.5" y="-50.5" font-family="Helvetica,sans-Serif" font-size="10.00" fill="grey"> nonrecursive</text>
</g>
<!-- Node35&#45;&gt;Node34 -->
<g id="edge55_Node000034_Node000035" class="edge">
<title>Node35&#45;&gt;Node34</title>
<g id="a_edge55_Node000034_Node000035"><a xlink:title=" ">
<path fill="none" stroke="orange" stroke-dasharray="5,2" d="M633.28,-45.5C700.26,-45.5 799.5,-45.5 886,-45.5 886,-45.5 886,-45.5 1744,-45.5 1786.17,-45.5 1833.77,-45.5 1869.99,-45.5"/>
<polygon fill="orange" stroke="orange" points="633.23,-42 623.23,-45.5 633.23,-49 633.23,-42"/>
</a>
</g>
<text text-anchor="middle" x="1356.5" y="-48.5" font-family="Helvetica,sans-Serif" font-size="10.00" fill="grey"> &lt; exprt, irep_hash &gt;</text>
</g>
</g>
</svg>
