<?xml version="1.0" encoding="UTF-8" standalone="no"?>
<!DOCTYPE svg PUBLIC "-//W3C//DTD SVG 1.1//EN"
 "http://www.w3.org/Graphics/SVG/1.1/DTD/svg11.dtd">
<!-- Generated by graphviz version 2.43.0 (0)
 -->
<!-- Title: enumerator_baset Pages: 1 -->
<svg width="338pt" height="412pt"
 viewBox="0.00 0.00 338.00 412.00" xmlns="http://www.w3.org/2000/svg" xmlns:xlink="http://www.w3.org/1999/xlink">
<g id="graph0" class="graph" transform="scale(1 1) rotate(0) translate(4 408)">
<title>enumerator_baset</title>
<!-- Node1 -->
<g id="Node000001" class="node">
<title>Node1</title>
<g id="a_Node000001"><a xlink:title="A base class for expression enumerators.">
<polygon fill="#999999" stroke="#666666" points="144,-19 38,-19 38,0 144,0 144,-19"/>
<text text-anchor="middle" x="91" y="-7" font-family="Helvetica,sans-Serif" font-size="10.00">enumerator_baset</text>
</a>
</g>
</g>
<!-- Node2 -->
<g id="Node000002" class="node">
<title>Node2</title>
<g id="a_Node000002"><a xlink:href="classnamespacet.html" target="_top" xlink:title="A namespacet is essentially one or two symbol tables bound together, to allow for symbol lookups in t...">
<polygon fill="white" stroke="#666666" points="129.5,-85 52.5,-85 52.5,-66 129.5,-66 129.5,-85"/>
<text text-anchor="middle" x="91" y="-73" font-family="Helvetica,sans-Serif" font-size="10.00">namespacet</text>
</a>
</g>
</g>
<!-- Node2&#45;&gt;Node1 -->
<g id="edge1_Node000001_Node000002" class="edge">
<title>Node2&#45;&gt;Node1</title>
<g id="a_edge1_Node000001_Node000002"><a xlink:title=" ">
<path fill="none" stroke="#9a32cd" stroke-dasharray="5,2" d="M91,-55.58C91,-43.63 91,-28.72 91,-19.41"/>
<polygon fill="#9a32cd" stroke="#9a32cd" points="87.5,-55.87 91,-65.87 94.5,-55.87 87.5,-55.87"/>
</a>
</g>
<text text-anchor="middle" x="98.5" y="-40" font-family="Helvetica,sans-Serif" font-size="10.00" fill="grey"> ns</text>
</g>
<!-- Node3 -->
<g id="Node000003" class="node">
<title>Node3</title>
<g id="a_Node000003"><a xlink:href="classnamespace__baset.html" target="_top" xlink:title="Basic interface for a namespace.">
<polygon fill="white" stroke="#666666" points="127.5,-162 22.5,-162 22.5,-143 127.5,-143 127.5,-162"/>
<text text-anchor="middle" x="75" y="-150" font-family="Helvetica,sans-Serif" font-size="10.00">namespace_baset</text>
</a>
</g>
</g>
<!-- Node3&#45;&gt;Node2 -->
<g id="edge2_Node000002_Node000003" class="edge">
<title>Node3&#45;&gt;Node2</title>
<g id="a_edge2_Node000002_Node000003"><a xlink:title=" ">
<path fill="none" stroke="#63b8ff" d="M78.95,-132.97C82.22,-117.65 86.71,-96.59 89.19,-85"/>
<polygon fill="#63b8ff" stroke="#63b8ff" points="75.5,-132.39 76.84,-142.9 82.34,-133.85 75.5,-132.39"/>
</a>
</g>
</g>
<!-- Node4 -->
<g id="Node000004" class="node">
<title>Node4</title>
<g id="a_Node000004"><a xlink:href="classsymbol__table__baset.html" target="_top" xlink:title="The symbol table base class interface.">
<polygon fill="white" stroke="#666666" points="260.5,-162 145.5,-162 145.5,-143 260.5,-143 260.5,-162"/>
<text text-anchor="middle" x="203" y="-150" font-family="Helvetica,sans-Serif" font-size="10.00">symbol_table_baset</text>
</a>
</g>
</g>
<!-- Node4&#45;&gt;Node2 -->
<g id="edge3_Node000002_Node000004" class="edge">
<title>Node4&#45;&gt;Node2</title>
<g id="a_edge3_Node000002_Node000004"><a xlink:title=" ">
<path fill="none" stroke="#9a32cd" stroke-dasharray="5,2" d="M181.73,-137.26C158.69,-121.83 122.68,-97.72 103.7,-85"/>
<polygon fill="#9a32cd" stroke="#9a32cd" points="179.9,-140.24 190.15,-142.9 183.79,-134.42 179.9,-140.24"/>
</a>
</g>
<text text-anchor="middle" x="198" y="-117" font-family="Helvetica,sans-Serif" font-size="10.00" fill="grey"> symbol_table1</text>
<text text-anchor="middle" x="198" y="-106" font-family="Helvetica,sans-Serif" font-size="10.00" fill="grey">symbol_table2</text>
</g>
<!-- Node5 -->
<g id="Node000005" class="node">
<title>Node5</title>
<g id="a_Node000005"><a xlink:title=" ">
<polygon fill="white" stroke="#666666" points="330,-338 216,-338 216,-308 330,-308 330,-338"/>
<text text-anchor="start" x="224" y="-326" font-family="Helvetica,sans-Serif" font-size="10.00">std::unordered_map</text>
<text text-anchor="middle" x="273" y="-315" font-family="Helvetica,sans-Serif" font-size="10.00">&lt; K, T &gt;</text>
</a>
</g>
</g>
<!-- Node5&#45;&gt;Node4 -->
<g id="edge4_Node000004_Node000005" class="edge">
<title>Node5&#45;&gt;Node4</title>
<g id="a_edge4_Node000004_Node000005"><a xlink:title=" ">
<path fill="none" stroke="#9a32cd" stroke-dasharray="5,2" d="M275.14,-297.49C276.51,-267.16 274.56,-215.21 250,-180 244.53,-172.16 235.96,-166.36 227.63,-162.22"/>
<polygon fill="#9a32cd" stroke="#9a32cd" points="271.63,-297.42 274.52,-307.62 278.62,-297.85 271.63,-297.42"/>
</a>
</g>
<text text-anchor="middle" x="295.5" y="-232.5" font-family="Helvetica,sans-Serif" font-size="10.00" fill="grey"> symbols</text>
</g>
<!-- Node6 -->
<g id="Node000006" class="node">
<title>Node6</title>
<g id="a_Node000006"><a xlink:title=" ">
<polygon fill="white" stroke="#666666" points="158.5,-404 129.5,-404 129.5,-385 158.5,-385 158.5,-404"/>
<text text-anchor="middle" x="144" y="-392" font-family="Helvetica,sans-Serif" font-size="10.00">K</text>
</a>
</g>
</g>
<!-- Node6&#45;&gt;Node5 -->
<g id="edge5_Node000005_Node000006" class="edge">
<title>Node6&#45;&gt;Node5</title>
<g id="a_edge5_Node000005_Node000006"><a xlink:title=" ">
<path fill="none" stroke="#9a32cd" stroke-dasharray="5,2" d="M150.68,-375.34C154.03,-368.42 158.73,-361.01 165,-356 173.4,-349.29 194.52,-342.43 215.88,-336.8"/>
<polygon fill="#9a32cd" stroke="#9a32cd" points="147.36,-374.2 146.71,-384.78 153.81,-376.91 147.36,-374.2"/>
</a>
</g>
<text text-anchor="middle" x="178" y="-359" font-family="Helvetica,sans-Serif" font-size="10.00" fill="grey"> keys</text>
</g>
<!-- Node10 -->
<g id="Node000010" class="node">
<title>Node10</title>
<g id="a_Node000010"><a xlink:title=" ">
<polygon fill="white" stroke="#666666" points="198,-332.5 72,-332.5 72,-313.5 198,-313.5 198,-332.5"/>
<text text-anchor="middle" x="135" y="-320.5" font-family="Helvetica,sans-Serif" font-size="10.00">std::multimap&lt; K, T &gt;</text>
</a>
</g>
</g>
<!-- Node6&#45;&gt;Node10 -->
<g id="edge10_Node000010_Node000006" class="edge">
<title>Node6&#45;&gt;Node10</title>
<g id="a_edge10_Node000010_Node000006"><a xlink:title=" ">
<path fill="none" stroke="#9a32cd" stroke-dasharray="5,2" d="M126.13,-377.36C123.63,-374.19 121.42,-370.69 120,-367 115.45,-355.2 122.45,-341.35 128.33,-332.63"/>
<polygon fill="#9a32cd" stroke="#9a32cd" points="123.77,-379.96 133.15,-384.89 128.89,-375.19 123.77,-379.96"/>
</a>
</g>
<text text-anchor="middle" x="133" y="-359" font-family="Helvetica,sans-Serif" font-size="10.00" fill="grey"> keys</text>
</g>
<!-- Node7 -->
<g id="Node000007" class="node">
<title>Node7</title>
<g id="a_Node000007"><a xlink:title=" ">
<polygon fill="white" stroke="#666666" points="267.5,-404 238.5,-404 238.5,-385 267.5,-385 267.5,-404"/>
<text text-anchor="middle" x="253" y="-392" font-family="Helvetica,sans-Serif" font-size="10.00">T</text>
</a>
</g>
</g>
<!-- Node7&#45;&gt;Node5 -->
<g id="edge6_Node000005_Node000007" class="edge">
<title>Node7&#45;&gt;Node5</title>
<g id="a_edge6_Node000005_Node000007"><a xlink:title=" ">
<path fill="none" stroke="#9a32cd" stroke-dasharray="5,2" d="M263.5,-375.64C264.84,-372.82 266.07,-369.88 267,-367 270.01,-357.68 271.51,-346.73 272.26,-338.22"/>
<polygon fill="#9a32cd" stroke="#9a32cd" points="260.37,-374.06 258.75,-384.53 266.55,-377.36 260.37,-374.06"/>
</a>
</g>
<text text-anchor="middle" x="293.5" y="-359" font-family="Helvetica,sans-Serif" font-size="10.00" fill="grey"> elements</text>
</g>
<!-- Node7&#45;&gt;Node10 -->
<g id="edge11_Node000010_Node000007" class="edge">
<title>Node7&#45;&gt;Node10</title>
<g id="a_edge11_Node000010_Node000007"><a xlink:title=" ">
<path fill="none" stroke="#9a32cd" stroke-dasharray="5,2" d="M231.87,-379.23C220.99,-372.04 207.43,-363.32 195,-356 180.76,-347.62 164.15,-338.83 152.02,-332.59"/>
<polygon fill="#9a32cd" stroke="#9a32cd" points="230.03,-382.21 240.29,-384.85 233.91,-376.39 230.03,-382.21"/>
</a>
</g>
<text text-anchor="middle" x="236.5" y="-359" font-family="Helvetica,sans-Serif" font-size="10.00" fill="grey"> elements</text>
</g>
<!-- Node8 -->
<g id="Node000008" class="node">
<title>Node8</title>
<g id="a_Node000008"><a xlink:title=" ">
<polygon fill="white" stroke="#666666" points="192.5,-250 77.5,-250 77.5,-220 192.5,-220 192.5,-250"/>
<text text-anchor="start" x="85.5" y="-238" font-family="Helvetica,sans-Serif" font-size="10.00">std::multimap&lt; irep</text>
<text text-anchor="middle" x="135" y="-227" font-family="Helvetica,sans-Serif" font-size="10.00">_idt, irep_idt &gt;</text>
</a>
</g>
</g>
<!-- Node8&#45;&gt;Node4 -->
<g id="edge7_Node000004_Node000008" class="edge">
<title>Node8&#45;&gt;Node4</title>
<g id="a_edge7_Node000004_Node000008"><a xlink:title=" ">
<path fill="none" stroke="#9a32cd" stroke-dasharray="5,2" d="M134.21,-209.46C135.05,-199.44 137.61,-188.29 144,-180 150.31,-171.82 159.7,-166.1 169.15,-162.12"/>
<polygon fill="#9a32cd" stroke="#9a32cd" points="130.7,-209.59 133.87,-219.7 137.7,-209.82 130.7,-209.59"/>
</a>
</g>
<text text-anchor="middle" x="197" y="-194" font-family="Helvetica,sans-Serif" font-size="10.00" fill="grey"> symbol_base_map</text>
<text text-anchor="middle" x="197" y="-183" font-family="Helvetica,sans-Serif" font-size="10.00" fill="grey">symbol_module_map</text>
</g>
<!-- Node9 -->
<g id="Node000009" class="node">
<title>Node9</title>
<g id="a_Node000009"><a xlink:href="classdstringt.html" target="_top" xlink:title="dstringt has one field, an unsigned integer no which is an index into a static table of strings.">
<polygon fill="white" stroke="#666666" points="54,-332.5 0,-332.5 0,-313.5 54,-313.5 54,-332.5"/>
<text text-anchor="middle" x="27" y="-320.5" font-family="Helvetica,sans-Serif" font-size="10.00">dstringt</text>
</a>
</g>
</g>
<!-- Node9&#45;&gt;Node8 -->
<g id="edge8_Node000008_Node000009" class="edge">
<title>Node9&#45;&gt;Node8</title>
<g id="a_edge8_Node000008_Node000009"><a xlink:title=" ">
<path fill="none" stroke="#9a32cd" stroke-dasharray="5,2" d="M41.52,-305.86C52.13,-294.56 67.2,-279.48 82,-268 90.32,-261.54 100.04,-255.34 108.87,-250.14"/>
<polygon fill="#9a32cd" stroke="#9a32cd" points="38.85,-303.59 34.65,-313.32 44,-308.34 38.85,-303.59"/>
</a>
</g>
<text text-anchor="middle" x="106.5" y="-282" font-family="Helvetica,sans-Serif" font-size="10.00" fill="grey"> elements</text>
<text text-anchor="middle" x="106.5" y="-271" font-family="Helvetica,sans-Serif" font-size="10.00" fill="grey">keys</text>
</g>
<!-- Node10&#45;&gt;Node8 -->
<g id="edge9_Node000008_Node000010" class="edge">
<title>Node10&#45;&gt;Node8</title>
<g id="a_edge9_Node000008_Node000010"><a xlink:title=" ">
<path fill="none" stroke="orange" stroke-dasharray="5,2" d="M135,-303.19C135,-287.23 135,-264.68 135,-250.2"/>
<polygon fill="orange" stroke="orange" points="131.5,-303.44 135,-313.44 138.5,-303.44 131.5,-303.44"/>
</a>
</g>
<text text-anchor="middle" x="188" y="-276.5" font-family="Helvetica,sans-Serif" font-size="10.00" fill="grey"> &lt; irep_idt, irep_idt &gt;</text>
</g>
</g>
</svg>
