<?xml version="1.0" encoding="UTF-8" standalone="no"?>
<!DOCTYPE svg PUBLIC "-//W3C//DTD SVG 1.1//EN"
 "http://www.w3.org/Graphics/SVG/1.1/DTD/svg11.dtd">
<!-- Generated by graphviz version 2.43.0 (0)
 -->
<!-- Title: ci_lazy_methods_neededt Pages: 1 -->
<svg width="1062pt" height="176pt"
 viewBox="0.00 0.00 1062.00 175.50" xmlns="http://www.w3.org/2000/svg" xmlns:xlink="http://www.w3.org/1999/xlink">
<g id="graph0" class="graph" transform="scale(1 1) rotate(0) translate(4 171.5)">
<title>ci_lazy_methods_neededt</title>
<!-- Node1 -->
<g id="Node000001" class="node">
<title>Node1</title>
<g id="a_Node000001"><a xlink:title=" ">
<polygon fill="#999999" stroke="#666666" points="1054,-78.5 911,-78.5 911,-59.5 1054,-59.5 1054,-78.5"/>
<text text-anchor="middle" x="982.5" y="-66.5" font-family="Helvetica,sans-Serif" font-size="10.00">ci_lazy_methods_neededt</text>
</a>
</g>
</g>
<!-- Node2 -->
<g id="Node000002" class="node">
<title>Node2</title>
<g id="a_Node000002"><a xlink:title=" ">
<polygon fill="white" stroke="#666666" points="504,-142 397,-142 397,-112 504,-112 504,-142"/>
<text text-anchor="start" x="405" y="-130" font-family="Helvetica,sans-Serif" font-size="10.00">std::unordered_set</text>
<text text-anchor="middle" x="450.5" y="-119" font-family="Helvetica,sans-Serif" font-size="10.00">&lt; dstringt &gt;</text>
</a>
</g>
</g>
<!-- Node2&#45;&gt;Node1 -->
<g id="edge1_Node000001_Node000002" class="edge">
<title>Node2&#45;&gt;Node1</title>
<g id="a_edge1_Node000001_Node000002"><a xlink:title=" ">
<path fill="none" stroke="#9a32cd" stroke-dasharray="5,2" d="M514.4,-122.28C600.19,-115.53 758.58,-101.92 893,-84 904.59,-82.46 916.98,-80.53 928.71,-78.58"/>
<polygon fill="#9a32cd" stroke="#9a32cd" points="514,-118.8 504.31,-123.07 514.55,-125.78 514,-118.8"/>
</a>
</g>
<text text-anchor="middle" x="708" y="-124" font-family="Helvetica,sans-Serif" font-size="10.00" fill="grey"> callable_methods</text>
<text text-anchor="middle" x="708" y="-113" font-family="Helvetica,sans-Serif" font-size="10.00" fill="grey">instantiated_classes</text>
</g>
<!-- Node3 -->
<g id="Node000003" class="node">
<title>Node3</title>
<g id="a_Node000003"><a xlink:href="classdstringt.html" target="_top" xlink:title="dstringt has one field, an unsigned integer no which is an index into a static table of strings.">
<polygon fill="white" stroke="#666666" points="209.5,-118.5 155.5,-118.5 155.5,-99.5 209.5,-99.5 209.5,-118.5"/>
<text text-anchor="middle" x="182.5" y="-106.5" font-family="Helvetica,sans-Serif" font-size="10.00">dstringt</text>
</a>
</g>
</g>
<!-- Node3&#45;&gt;Node2 -->
<g id="edge2_Node000002_Node000003" class="edge">
<title>Node3&#45;&gt;Node2</title>
<g id="a_edge2_Node000002_Node000003"><a xlink:title=" ">
<path fill="none" stroke="#9a32cd" stroke-dasharray="5,2" d="M220.05,-111.47C265.85,-114.57 344.65,-119.9 396.91,-123.44"/>
<polygon fill="#9a32cd" stroke="#9a32cd" points="220.19,-107.97 209.98,-110.79 219.72,-114.96 220.19,-107.97"/>
</a>
</g>
<text text-anchor="middle" x="322" y="-124" font-family="Helvetica,sans-Serif" font-size="10.00" fill="grey"> keys</text>
</g>
<!-- Node9 -->
<g id="Node000009" class="node">
<title>Node9</title>
<g id="a_Node000009"><a xlink:title=" ">
<polygon fill="white" stroke="#666666" points="508,-84 393,-84 393,-54 508,-54 508,-84"/>
<text text-anchor="start" x="401" y="-72" font-family="Helvetica,sans-Serif" font-size="10.00">std::multimap&lt; irep</text>
<text text-anchor="middle" x="450.5" y="-61" font-family="Helvetica,sans-Serif" font-size="10.00">_idt, irep_idt &gt;</text>
</a>
</g>
</g>
<!-- Node3&#45;&gt;Node9 -->
<g id="edge10_Node000009_Node000003" class="edge">
<title>Node3&#45;&gt;Node9</title>
<g id="a_edge10_Node000009_Node000003"><a xlink:title=" ">
<path fill="none" stroke="#9a32cd" stroke-dasharray="5,2" d="M219.86,-98.91C234.96,-95.03 252.73,-90.84 269,-88 310.13,-80.82 357.04,-75.98 392.72,-72.99"/>
<polygon fill="#9a32cd" stroke="#9a32cd" points="218.66,-95.61 209.88,-101.54 220.44,-102.38 218.66,-95.61"/>
</a>
</g>
<text text-anchor="middle" x="322" y="-102" font-family="Helvetica,sans-Serif" font-size="10.00" fill="grey"> elements</text>
<text text-anchor="middle" x="322" y="-91" font-family="Helvetica,sans-Serif" font-size="10.00" fill="grey">keys</text>
</g>
<!-- Node4 -->
<g id="Node000004" class="node">
<title>Node4</title>
<g id="a_Node000004"><a xlink:title=" ">
<polygon fill="white" stroke="#666666" points="251,-167.5 114,-167.5 114,-148.5 251,-148.5 251,-167.5"/>
<text text-anchor="middle" x="182.5" y="-155.5" font-family="Helvetica,sans-Serif" font-size="10.00">std::unordered_set&lt; K &gt;</text>
</a>
</g>
</g>
<!-- Node4&#45;&gt;Node2 -->
<g id="edge3_Node000002_Node000004" class="edge">
<title>Node4&#45;&gt;Node2</title>
<g id="a_edge3_Node000002_Node000004"><a xlink:title=" ">
<path fill="none" stroke="orange" stroke-dasharray="5,2" d="M261.4,-149.15C296.17,-145.18 337.64,-140.4 375,-136 382.12,-135.16 389.61,-134.27 397,-133.38"/>
<polygon fill="orange" stroke="orange" points="260.85,-145.7 251.31,-150.31 261.64,-152.65 260.85,-145.7"/>
</a>
</g>
<text text-anchor="middle" x="322" y="-151" font-family="Helvetica,sans-Serif" font-size="10.00" fill="grey"> &lt; dstringt &gt;</text>
</g>
<!-- Node5 -->
<g id="Node000005" class="node">
<title>Node5</title>
<g id="a_Node000005"><a xlink:title=" ">
<polygon fill="white" stroke="#666666" points="29,-126.5 0,-126.5 0,-107.5 29,-107.5 29,-126.5"/>
<text text-anchor="middle" x="14.5" y="-114.5" font-family="Helvetica,sans-Serif" font-size="10.00">K</text>
</a>
</g>
</g>
<!-- Node5&#45;&gt;Node4 -->
<g id="edge4_Node000004_Node000005" class="edge">
<title>Node5&#45;&gt;Node4</title>
<g id="a_edge4_Node000004_Node000005"><a xlink:title=" ">
<path fill="none" stroke="#9a32cd" stroke-dasharray="5,2" d="M38.49,-128.76C41.32,-129.96 44.19,-131.08 47,-132 68.46,-139.06 92.52,-144.46 114.29,-148.46"/>
<polygon fill="#9a32cd" stroke="#9a32cd" points="39.84,-125.53 29.3,-124.5 36.9,-131.88 39.84,-125.53"/>
</a>
</g>
<text text-anchor="middle" x="71.5" y="-147" font-family="Helvetica,sans-Serif" font-size="10.00" fill="grey"> keys</text>
</g>
<!-- Node7 -->
<g id="Node000007" class="node">
<title>Node7</title>
<g id="a_Node000007"><a xlink:title=" ">
<polygon fill="white" stroke="#666666" points="239.5,-30 125.5,-30 125.5,0 239.5,0 239.5,-30"/>
<text text-anchor="start" x="133.5" y="-18" font-family="Helvetica,sans-Serif" font-size="10.00">std::unordered_map</text>
<text text-anchor="middle" x="182.5" y="-7" font-family="Helvetica,sans-Serif" font-size="10.00">&lt; K, T &gt;</text>
</a>
</g>
</g>
<!-- Node5&#45;&gt;Node7 -->
<g id="edge7_Node000007_Node000005" class="edge">
<title>Node5&#45;&gt;Node7</title>
<g id="a_edge7_Node000007_Node000005"><a xlink:title=" ">
<path fill="none" stroke="#9a32cd" stroke-dasharray="5,2" d="M28.75,-99.59C33.97,-93.5 40.32,-86.96 47,-82 66.32,-67.66 76.5,-73.09 96,-59 105.43,-52.19 104.29,-46.41 114,-40 119.74,-36.21 126.12,-32.9 132.62,-30.03"/>
<polygon fill="#9a32cd" stroke="#9a32cd" points="25.98,-97.45 22.4,-107.42 31.42,-101.86 25.98,-97.45"/>
</a>
</g>
<text text-anchor="middle" x="71.5" y="-85" font-family="Helvetica,sans-Serif" font-size="10.00" fill="grey"> keys</text>
</g>
<!-- Node10 -->
<g id="Node000010" class="node">
<title>Node10</title>
<g id="a_Node000010"><a xlink:title=" ">
<polygon fill="white" stroke="#666666" points="245.5,-67.5 119.5,-67.5 119.5,-48.5 245.5,-48.5 245.5,-67.5"/>
<text text-anchor="middle" x="182.5" y="-55.5" font-family="Helvetica,sans-Serif" font-size="10.00">std::multimap&lt; K, T &gt;</text>
</a>
</g>
</g>
<!-- Node5&#45;&gt;Node10 -->
<g id="edge12_Node000010_Node000005" class="edge">
<title>Node5&#45;&gt;Node10</title>
<g id="a_edge12_Node000010_Node000005"><a xlink:title=" ">
<path fill="none" stroke="#9a32cd" stroke-dasharray="5,2" d="M38.8,-111.56C55.02,-107.55 77.05,-101.65 96,-95 118.89,-86.96 144.31,-75.64 161.44,-67.64"/>
<polygon fill="#9a32cd" stroke="#9a32cd" points="37.97,-108.16 29.07,-113.91 39.61,-114.97 37.97,-108.16"/>
</a>
</g>
<text text-anchor="middle" x="71.5" y="-112" font-family="Helvetica,sans-Serif" font-size="10.00" fill="grey"> keys</text>
</g>
<!-- Node6 -->
<g id="Node000006" class="node">
<title>Node6</title>
<g id="a_Node000006"><a xlink:href="classsymbol__table__baset.html" target="_top" xlink:title="The symbol table base class interface.">
<polygon fill="white" stroke="#666666" points="765.5,-78.5 650.5,-78.5 650.5,-59.5 765.5,-59.5 765.5,-78.5"/>
<text text-anchor="middle" x="708" y="-66.5" font-family="Helvetica,sans-Serif" font-size="10.00">symbol_table_baset</text>
</a>
</g>
</g>
<!-- Node6&#45;&gt;Node1 -->
<g id="edge5_Node000001_Node000006" class="edge">
<title>Node6&#45;&gt;Node1</title>
<g id="a_edge5_Node000001_Node000006"><a xlink:title=" ">
<path fill="none" stroke="#9a32cd" stroke-dasharray="5,2" d="M775.95,-69C816.94,-69 869.33,-69 910.96,-69"/>
<polygon fill="#9a32cd" stroke="#9a32cd" points="775.79,-65.5 765.79,-69 775.79,-72.5 775.79,-65.5"/>
</a>
</g>
<text text-anchor="middle" x="838.5" y="-72" font-family="Helvetica,sans-Serif" font-size="10.00" fill="grey"> symbol_table</text>
</g>
<!-- Node7&#45;&gt;Node6 -->
<g id="edge6_Node000006_Node000007" class="edge">
<title>Node7&#45;&gt;Node6</title>
<g id="a_edge6_Node000006_Node000007"><a xlink:title=" ">
<path fill="none" stroke="#9a32cd" stroke-dasharray="5,2" d="M249.88,-16.64C315.6,-18.8 419.01,-23.6 508,-34 560.96,-40.19 621.19,-51.37 661.38,-59.43"/>
<polygon fill="#9a32cd" stroke="#9a32cd" points="249.76,-13.14 239.66,-16.32 249.54,-20.13 249.76,-13.14"/>
</a>
</g>
<text text-anchor="middle" x="450.5" y="-37" font-family="Helvetica,sans-Serif" font-size="10.00" fill="grey"> symbols</text>
</g>
<!-- Node8 -->
<g id="Node000008" class="node">
<title>Node8</title>
<g id="a_Node000008"><a xlink:title=" ">
<polygon fill="white" stroke="#666666" points="29,-41.5 0,-41.5 0,-22.5 29,-22.5 29,-41.5"/>
<text text-anchor="middle" x="14.5" y="-29.5" font-family="Helvetica,sans-Serif" font-size="10.00">T</text>
</a>
</g>
</g>
<!-- Node8&#45;&gt;Node7 -->
<g id="edge8_Node000007_Node000008" class="edge">
<title>Node8&#45;&gt;Node7</title>
<g id="a_edge8_Node000007_Node000008"><a xlink:title=" ">
<path fill="none" stroke="#9a32cd" stroke-dasharray="5,2" d="M38.3,-18.91C41.15,-17.72 44.09,-16.71 47,-16 72.3,-9.84 101.07,-8.86 125.5,-9.71"/>
<polygon fill="#9a32cd" stroke="#9a32cd" points="36.55,-15.87 29.07,-23.37 39.6,-22.17 36.55,-15.87"/>
</a>
</g>
<text text-anchor="middle" x="71.5" y="-19" font-family="Helvetica,sans-Serif" font-size="10.00" fill="grey"> elements</text>
</g>
<!-- Node8&#45;&gt;Node10 -->
<g id="edge13_Node000010_Node000008" class="edge">
<title>Node8&#45;&gt;Node10</title>
<g id="a_edge13_Node000010_Node000008"><a xlink:title=" ">
<path fill="none" stroke="#9a32cd" stroke-dasharray="5,2" d="M39.09,-35.69C60.25,-39.01 92.24,-44.02 120.55,-48.45"/>
<polygon fill="#9a32cd" stroke="#9a32cd" points="39.51,-32.22 29.08,-34.13 38.42,-39.13 39.51,-32.22"/>
</a>
</g>
<text text-anchor="middle" x="71.5" y="-47" font-family="Helvetica,sans-Serif" font-size="10.00" fill="grey"> elements</text>
</g>
<!-- Node9&#45;&gt;Node6 -->
<g id="edge9_Node000006_Node000009" class="edge">
<title>Node9&#45;&gt;Node6</title>
<g id="a_edge9_Node000006_Node000009"><a xlink:title=" ">
<path fill="none" stroke="#9a32cd" stroke-dasharray="5,2" d="M518.39,-69C559.45,-69 611.46,-69 650.45,-69"/>
<polygon fill="#9a32cd" stroke="#9a32cd" points="518.2,-65.5 508.2,-69 518.2,-72.5 518.2,-65.5"/>
</a>
</g>
<text text-anchor="middle" x="579" y="-83" font-family="Helvetica,sans-Serif" font-size="10.00" fill="grey"> symbol_base_map</text>
<text text-anchor="middle" x="579" y="-72" font-family="Helvetica,sans-Serif" font-size="10.00" fill="grey">symbol_module_map</text>
</g>
<!-- Node10&#45;&gt;Node9 -->
<g id="edge11_Node000009_Node000010" class="edge">
<title>Node10&#45;&gt;Node9</title>
<g id="a_edge11_Node000009_Node000010"><a xlink:title=" ">
<path fill="none" stroke="orange" stroke-dasharray="5,2" d="M256.21,-48.52C292.1,-45.38 335.96,-43.85 375,-49 383.36,-50.1 392.12,-51.87 400.58,-53.92"/>
<polygon fill="orange" stroke="orange" points="255.46,-45.08 245.83,-49.49 256.11,-52.05 255.46,-45.08"/>
</a>
</g>
<text text-anchor="middle" x="322" y="-52" font-family="Helvetica,sans-Serif" font-size="10.00" fill="grey"> &lt; irep_idt, irep_idt &gt;</text>
</g>
<!-- Node11 -->
<g id="Node000011" class="node">
<title>Node11</title>
<g id="a_Node000011"><a xlink:href="classselect__pointer__typet.html" target="_top" xlink:title=" ">
<polygon fill="white" stroke="#666666" points="766,-41.5 650,-41.5 650,-22.5 766,-22.5 766,-41.5"/>
<text text-anchor="middle" x="708" y="-29.5" font-family="Helvetica,sans-Serif" font-size="10.00">select_pointer_typet</text>
</a>
</g>
</g>
<!-- Node11&#45;&gt;Node1 -->
<g id="edge14_Node000001_Node000011" class="edge">
<title>Node11&#45;&gt;Node1</title>
<g id="a_edge14_Node000001_Node000011"><a xlink:title=" ">
<path fill="none" stroke="#9a32cd" stroke-dasharray="5,2" d="M776.35,-39.25C811.22,-43.21 854.46,-48.43 893,-54 904.26,-55.63 916.29,-57.54 927.75,-59.46"/>
<polygon fill="#9a32cd" stroke="#9a32cd" points="776.61,-35.76 766.28,-38.12 775.83,-42.72 776.61,-35.76"/>
</a>
</g>
<text text-anchor="middle" x="838.5" y="-57" font-family="Helvetica,sans-Serif" font-size="10.00" fill="grey"> pointer_type_selector</text>
</g>
</g>
</svg>
