<?xml version="1.0" encoding="UTF-8" standalone="no"?>
<!DOCTYPE svg PUBLIC "-//W3C//DTD SVG 1.1//EN"
 "http://www.w3.org/Graphics/SVG/1.1/DTD/svg11.dtd">
<!-- Generated by graphviz version 2.43.0 (0)
 -->
<!-- Title: bdd_managert Pages: 1 -->
<svg width="2118pt" height="536pt"
 viewBox="0.00 0.00 2118.00 535.50" xmlns="http://www.w3.org/2000/svg" xmlns:xlink="http://www.w3.org/1999/xlink">
<g id="graph0" class="graph" transform="scale(1 1) rotate(0) translate(4 531.5)">
<title>bdd_managert</title>
<!-- Node1 -->
<g id="Node000001" class="node">
<title>Node1</title>
<g id="a_Node000001"><a xlink:title="Manager for BDD creation.">
<polygon fill="#999999" stroke="#666666" points="2110,-80 2023,-80 2023,-61 2110,-61 2110,-80"/>
<text text-anchor="middle" x="2066.5" y="-68" font-family="Helvetica,sans-Serif" font-size="10.00">bdd_managert</text>
</a>
</g>
</g>
<!-- Node2 -->
<g id="Node000002" class="node">
<title>Node2</title>
<g id="a_Node000002"><a xlink:href="classmini__bdd__mgrt.html" target="_top" xlink:title=" ">
<polygon fill="white" stroke="#666666" points="895,-301 805,-301 805,-282 895,-282 895,-301"/>
<text text-anchor="middle" x="850" y="-289" font-family="Helvetica,sans-Serif" font-size="10.00">mini_bdd_mgrt</text>
</a>
</g>
</g>
<!-- Node2&#45;&gt;Node1 -->
<g id="edge1_Node000001_Node000002" class="edge">
<title>Node2&#45;&gt;Node1</title>
<g id="a_edge1_Node000001_Node000002"><a xlink:title=" ">
<path fill="none" stroke="#8b1a1a" d="M867.37,-274.37C899.18,-242.26 973,-173.43 1050,-141.5 1140.86,-103.82 1841.67,-77.98 2022.85,-71.88"/>
<polygon fill="#8b1a1a" stroke="#8b1a1a" points="864.7,-272.09 860.21,-281.69 869.71,-276.99 864.7,-272.09"/>
</a>
</g>
</g>
<!-- Node10 -->
<g id="Node000010" class="node">
<title>Node10</title>
<g id="a_Node000010"><a xlink:href="classmini__bdd__nodet.html" target="_top" xlink:title=" ">
<polygon fill="white" stroke="#666666" points="1177,-399 1082,-399 1082,-380 1177,-380 1177,-399"/>
<text text-anchor="middle" x="1129.5" y="-387" font-family="Helvetica,sans-Serif" font-size="10.00">mini_bdd_nodet</text>
</a>
</g>
</g>
<!-- Node2&#45;&gt;Node10 -->
<g id="edge10_Node000010_Node000002" class="edge">
<title>Node2&#45;&gt;Node10</title>
<g id="a_edge10_Node000010_Node000002"><a xlink:title=" ">
<path fill="none" stroke="#9a32cd" stroke-dasharray="5,2" d="M862.63,-309.75C874.71,-327.01 895.29,-352.06 920,-364.5 970.96,-390.16 1037.53,-393.79 1081.59,-392.73"/>
<polygon fill="#9a32cd" stroke="#9a32cd" points="865.3,-307.45 856.82,-301.09 859.49,-311.35 865.3,-307.45"/>
</a>
</g>
<text text-anchor="middle" x="976" y="-394.5" font-family="Helvetica,sans-Serif" font-size="10.00" fill="grey"> mgr</text>
</g>
<!-- Node3 -->
<g id="Node000003" class="node">
<title>Node3</title>
<g id="a_Node000003"><a xlink:title=" ">
<polygon fill="white" stroke="#666666" points="670,-298.5 545,-298.5 545,-268.5 670,-268.5 670,-298.5"/>
<text text-anchor="start" x="553" y="-286.5" font-family="Helvetica,sans-Serif" font-size="10.00">std::vector&lt; var_table</text>
<text text-anchor="middle" x="607.5" y="-275.5" font-family="Helvetica,sans-Serif" font-size="10.00">_entryt &gt;</text>
</a>
</g>
</g>
<!-- Node3&#45;&gt;Node2 -->
<g id="edge2_Node000002_Node000003" class="edge">
<title>Node3&#45;&gt;Node2</title>
<g id="a_edge2_Node000002_Node000003"><a xlink:title=" ">
<path fill="none" stroke="#9a32cd" stroke-dasharray="5,2" d="M680.22,-285.89C720.77,-287.23 770.15,-288.88 805,-290.04"/>
<polygon fill="#9a32cd" stroke="#9a32cd" points="680.23,-282.38 670.12,-285.55 680,-289.38 680.23,-282.38"/>
</a>
</g>
<text text-anchor="middle" x="734" y="-292.5" font-family="Helvetica,sans-Serif" font-size="10.00" fill="grey"> var_table</text>
</g>
<!-- Node4 -->
<g id="Node000004" class="node">
<title>Node4</title>
<g id="a_Node000004"><a xlink:href="structmini__bdd__mgrt_1_1var__table__entryt.html" target="_top" xlink:title=" ">
<polygon fill="white" stroke="#666666" points="403,-385.5 291,-385.5 291,-355.5 403,-355.5 403,-385.5"/>
<text text-anchor="start" x="299" y="-373.5" font-family="Helvetica,sans-Serif" font-size="10.00">mini_bdd_mgrt::var</text>
<text text-anchor="middle" x="347" y="-362.5" font-family="Helvetica,sans-Serif" font-size="10.00">_table_entryt</text>
</a>
</g>
</g>
<!-- Node4&#45;&gt;Node3 -->
<g id="edge3_Node000003_Node000004" class="edge">
<title>Node4&#45;&gt;Node3</title>
<g id="a_edge3_Node000003_Node000004"><a xlink:title=" ">
<path fill="none" stroke="#9a32cd" stroke-dasharray="5,2" d="M402.22,-352.25C449.61,-336.3 517.58,-313.43 561.88,-298.52"/>
<polygon fill="#9a32cd" stroke="#9a32cd" points="401.09,-348.94 392.73,-355.45 403.33,-355.57 401.09,-348.94"/>
</a>
</g>
<text text-anchor="middle" x="474" y="-348.5" font-family="Helvetica,sans-Serif" font-size="10.00" fill="grey"> elements</text>
</g>
<!-- Node5 -->
<g id="Node000005" class="node">
<title>Node5</title>
<g id="a_Node000005"><a xlink:title=" ">
<polygon fill="white" stroke="#666666" points="206,-380 141,-380 141,-361 206,-361 206,-380"/>
<text text-anchor="middle" x="173.5" y="-368" font-family="Helvetica,sans-Serif" font-size="10.00">std::string</text>
</a>
</g>
</g>
<!-- Node5&#45;&gt;Node4 -->
<g id="edge4_Node000004_Node000005" class="edge">
<title>Node5&#45;&gt;Node4</title>
<g id="a_edge4_Node000004_Node000005"><a xlink:title=" ">
<path fill="none" stroke="#9a32cd" stroke-dasharray="5,2" d="M216.53,-370.5C238.87,-370.5 266.63,-370.5 290.7,-370.5"/>
<polygon fill="#9a32cd" stroke="#9a32cd" points="216.36,-367 206.36,-370.5 216.36,-374 216.36,-367"/>
</a>
</g>
<text text-anchor="middle" x="248.5" y="-373.5" font-family="Helvetica,sans-Serif" font-size="10.00" fill="grey"> label</text>
</g>
<!-- Node6 -->
<g id="Node000006" class="node">
<title>Node6</title>
<g id="a_Node000006"><a xlink:title=" ">
<polygon fill="white" stroke="#666666" points="104,-385.5 0,-385.5 0,-355.5 104,-355.5 104,-385.5"/>
<text text-anchor="start" x="8" y="-373.5" font-family="Helvetica,sans-Serif" font-size="10.00">std::basic_string&lt;</text>
<text text-anchor="middle" x="52" y="-362.5" font-family="Helvetica,sans-Serif" font-size="10.00"> Char &gt;</text>
</a>
</g>
</g>
<!-- Node6&#45;&gt;Node5 -->
<g id="edge5_Node000005_Node000006" class="edge">
<title>Node6&#45;&gt;Node5</title>
<g id="a_edge5_Node000005_Node000006"><a xlink:title=" ">
<path fill="none" stroke="#63b8ff" d="M114.1,-370.5C123.41,-370.5 132.68,-370.5 141,-370.5"/>
<polygon fill="#63b8ff" stroke="#63b8ff" points="114.03,-367 104.03,-370.5 114.03,-374 114.03,-367"/>
</a>
</g>
</g>
<!-- Node7 -->
<g id="Node000007" class="node">
<title>Node7</title>
<g id="a_Node000007"><a xlink:title=" ">
<polygon fill="white" stroke="#666666" points="395.5,-220 298.5,-220 298.5,-201 395.5,-201 395.5,-220"/>
<text text-anchor="middle" x="347" y="-208" font-family="Helvetica,sans-Serif" font-size="10.00">std::vector&lt; T &gt;</text>
</a>
</g>
</g>
<!-- Node7&#45;&gt;Node3 -->
<g id="edge6_Node000003_Node000007" class="edge">
<title>Node7&#45;&gt;Node3</title>
<g id="a_edge6_Node000003_Node000007"><a xlink:title=" ">
<path fill="none" stroke="orange" stroke-dasharray="5,2" d="M393.86,-222.7C430.08,-232.42 481.86,-246.51 527,-259.5 536.84,-262.33 547.33,-265.44 557.37,-268.45"/>
<polygon fill="orange" stroke="orange" points="394.64,-219.29 384.08,-220.08 392.83,-226.05 394.64,-219.29"/>
</a>
</g>
<text text-anchor="middle" x="474" y="-262.5" font-family="Helvetica,sans-Serif" font-size="10.00" fill="grey"> &lt; var_table_entryt &gt;</text>
</g>
<!-- Node8 -->
<g id="Node000008" class="node">
<title>Node8</title>
<g id="a_Node000008"><a xlink:title=" ">
<polygon fill="white" stroke="#666666" points="188,-166 159,-166 159,-147 188,-147 188,-166"/>
<text text-anchor="middle" x="173.5" y="-154" font-family="Helvetica,sans-Serif" font-size="10.00">T</text>
</a>
</g>
</g>
<!-- Node8&#45;&gt;Node7 -->
<g id="edge7_Node000007_Node000008" class="edge">
<title>Node8&#45;&gt;Node7</title>
<g id="a_edge7_Node000007_Node000008"><a xlink:title=" ">
<path fill="none" stroke="#9a32cd" stroke-dasharray="5,2" d="M198.04,-163.91C228.63,-173.54 282.08,-190.37 315.68,-200.95"/>
<polygon fill="#9a32cd" stroke="#9a32cd" points="198.83,-160.49 188.24,-160.83 196.73,-167.17 198.83,-160.49"/>
</a>
</g>
<text text-anchor="middle" x="248.5" y="-190.5" font-family="Helvetica,sans-Serif" font-size="10.00" fill="grey"> elements</text>
</g>
<!-- Node12 -->
<g id="Node000012" class="node">
<title>Node12</title>
<g id="a_Node000012"><a xlink:title=" ">
<polygon fill="white" stroke="#666666" points="514.5,-166 433.5,-166 433.5,-147 514.5,-147 514.5,-166"/>
<text text-anchor="middle" x="474" y="-154" font-family="Helvetica,sans-Serif" font-size="10.00">std::list&lt; T &gt;</text>
</a>
</g>
</g>
<!-- Node8&#45;&gt;Node12 -->
<g id="edge14_Node000012_Node000008" class="edge">
<title>Node8&#45;&gt;Node12</title>
<g id="a_edge14_Node000012_Node000008"><a xlink:title=" ">
<path fill="none" stroke="#9a32cd" stroke-dasharray="5,2" d="M198.16,-156.5C249.23,-156.5 370.22,-156.5 433.26,-156.5"/>
<polygon fill="#9a32cd" stroke="#9a32cd" points="198.1,-153 188.1,-156.5 198.1,-160 198.1,-153"/>
</a>
</g>
<text text-anchor="middle" x="248.5" y="-159.5" font-family="Helvetica,sans-Serif" font-size="10.00" fill="grey"> elements</text>
</g>
<!-- Node15 -->
<g id="Node000015" class="node">
<title>Node15</title>
<g id="a_Node000015"><a xlink:title=" ">
<polygon fill="white" stroke="#666666" points="1180,-94 1079,-94 1079,-75 1180,-75 1180,-94"/>
<text text-anchor="middle" x="1129.5" y="-82" font-family="Helvetica,sans-Serif" font-size="10.00">std::map&lt; K, T &gt;</text>
</a>
</g>
</g>
<!-- Node8&#45;&gt;Node15 -->
<g id="edge21_Node000015_Node000008" class="edge">
<title>Node8&#45;&gt;Node15</title>
<g id="a_edge21_Node000015_Node000008"><a xlink:title=" ">
<path fill="none" stroke="#9a32cd" stroke-dasharray="5,2" d="M197.91,-146.03C230.44,-132.46 291.48,-110.5 346,-110.5 346,-110.5 346,-110.5 851,-110.5 930.96,-110.5 1023.32,-99.67 1078.75,-91.99"/>
<polygon fill="#9a32cd" stroke="#9a32cd" points="196.2,-142.95 188.39,-150.1 198.96,-149.39 196.2,-142.95"/>
</a>
</g>
<text text-anchor="middle" x="607.5" y="-113.5" font-family="Helvetica,sans-Serif" font-size="10.00" fill="grey"> elements</text>
</g>
<!-- Node18 -->
<g id="Node000018" class="node">
<title>Node18</title>
<g id="a_Node000018"><a xlink:title=" ">
<polygon fill="white" stroke="#666666" points="780,-417 688,-417 688,-398 780,-398 780,-417"/>
<text text-anchor="middle" x="734" y="-405" font-family="Helvetica,sans-Serif" font-size="10.00">std::stack&lt; T &gt;</text>
</a>
</g>
</g>
<!-- Node8&#45;&gt;Node18 -->
<g id="edge25_Node000018_Node000008" class="edge">
<title>Node8&#45;&gt;Node18</title>
<g id="a_edge25_Node000018_Node000008"><a xlink:title=" ">
<path fill="none" stroke="#9a32cd" stroke-dasharray="5,2" d="M190.46,-173.19C199.76,-182.42 211.99,-193.76 224,-202.5 305.09,-261.5 328.73,-273.23 421,-312.5 514.91,-352.47 631.25,-383.25 691.88,-397.97"/>
<polygon fill="#9a32cd" stroke="#9a32cd" points="192.92,-170.7 183.4,-166.03 187.93,-175.61 192.92,-170.7"/>
</a>
</g>
<text text-anchor="middle" x="347" y="-307.5" font-family="Helvetica,sans-Serif" font-size="10.00" fill="grey"> elements</text>
</g>
<!-- Node21 -->
<g id="Node000021" class="node">
<title>Node21</title>
<g id="a_Node000021"><a xlink:title=" ">
<polygon fill="white" stroke="#666666" points="1186.5,-47.5 1072.5,-47.5 1072.5,-17.5 1186.5,-17.5 1186.5,-47.5"/>
<text text-anchor="start" x="1080.5" y="-35.5" font-family="Helvetica,sans-Serif" font-size="10.00">std::unordered_map</text>
<text text-anchor="middle" x="1129.5" y="-24.5" font-family="Helvetica,sans-Serif" font-size="10.00">&lt; K, T &gt;</text>
</a>
</g>
</g>
<!-- Node8&#45;&gt;Node21 -->
<g id="edge31_Node000021_Node000008" class="edge">
<title>Node8&#45;&gt;Node21</title>
<g id="a_edge31_Node000021_Node000008"><a xlink:title=" ">
<path fill="none" stroke="#9a32cd" stroke-dasharray="5,2" d="M185.47,-137.96C209.42,-100.12 270.36,-17.5 346,-17.5 346,-17.5 346,-17.5 851,-17.5 927.83,-17.5 1016.46,-23.3 1072.48,-27.69"/>
<polygon fill="#9a32cd" stroke="#9a32cd" points="182.2,-136.59 179.95,-146.95 188.16,-140.26 182.2,-136.59"/>
</a>
</g>
<text text-anchor="middle" x="607.5" y="-20.5" font-family="Helvetica,sans-Serif" font-size="10.00" fill="grey"> elements</text>
</g>
<!-- Node9 -->
<g id="Node000009" class="node">
<title>Node9</title>
<g id="a_Node000009"><a xlink:title=" ">
<polygon fill="white" stroke="#666666" points="1474,-306.5 1365,-306.5 1365,-276.5 1474,-276.5 1474,-306.5"/>
<text text-anchor="start" x="1373" y="-294.5" font-family="Helvetica,sans-Serif" font-size="10.00">std::list&lt; mini_bdd</text>
<text text-anchor="middle" x="1419.5" y="-283.5" font-family="Helvetica,sans-Serif" font-size="10.00">_nodet &gt;</text>
</a>
</g>
</g>
<!-- Node9&#45;&gt;Node2 -->
<g id="edge8_Node000002_Node000009" class="edge">
<title>Node9&#45;&gt;Node2</title>
<g id="a_edge8_Node000002_Node000009"><a xlink:title=" ">
<path fill="none" stroke="#9a32cd" stroke-dasharray="5,2" d="M1354.5,-291.5C1238.15,-291.5 994.79,-291.5 895.06,-291.5"/>
<polygon fill="#9a32cd" stroke="#9a32cd" points="1354.68,-295 1364.68,-291.5 1354.68,-288 1354.68,-295"/>
</a>
</g>
<text text-anchor="middle" x="1129.5" y="-294.5" font-family="Helvetica,sans-Serif" font-size="10.00" fill="grey"> nodes</text>
</g>
<!-- Node10&#45;&gt;Node9 -->
<g id="edge9_Node000009_Node000010" class="edge">
<title>Node10&#45;&gt;Node9</title>
<g id="a_edge9_Node000009_Node000010"><a xlink:title=" ">
<path fill="none" stroke="#9a32cd" stroke-dasharray="5,2" d="M1172.68,-376.97C1184.47,-373.37 1197.26,-369.37 1209,-365.5 1267.8,-346.14 1335.22,-321.96 1377.34,-306.63"/>
<polygon fill="#9a32cd" stroke="#9a32cd" points="1171.62,-373.63 1163.06,-379.89 1173.65,-380.33 1171.62,-373.63"/>
</a>
</g>
<text text-anchor="middle" x="1280" y="-361.5" font-family="Helvetica,sans-Serif" font-size="10.00" fill="grey"> elements</text>
</g>
<!-- Node11 -->
<g id="Node000011" class="node">
<title>Node11</title>
<g id="a_Node000011"><a xlink:href="classmini__bddt.html" target="_top" xlink:title=" ">
<polygon fill="white" stroke="#666666" points="1452,-448 1387,-448 1387,-429 1452,-429 1452,-448"/>
<text text-anchor="middle" x="1419.5" y="-436" font-family="Helvetica,sans-Serif" font-size="10.00">mini_bddt</text>
</a>
</g>
</g>
<!-- Node10&#45;&gt;Node11 -->
<g id="edge12_Node000011_Node000010" class="edge">
<title>Node10&#45;&gt;Node11</title>
<g id="a_edge12_Node000011_Node000010"><a xlink:title=" ">
<path fill="none" stroke="#9a32cd" stroke-dasharray="5,2" d="M1187.02,-395.21C1227.8,-399.77 1284.06,-406.98 1333,-416.5 1350.9,-419.98 1370.64,-424.98 1386.63,-429.34"/>
<polygon fill="#9a32cd" stroke="#9a32cd" points="1187.32,-391.72 1177,-394.11 1186.56,-398.68 1187.32,-391.72"/>
</a>
</g>
<text text-anchor="middle" x="1280" y="-419.5" font-family="Helvetica,sans-Serif" font-size="10.00" fill="grey"> node</text>
</g>
<!-- Node13 -->
<g id="Node000013" class="node">
<title>Node13</title>
<g id="a_Node000013"><a xlink:title=" ">
<polygon fill="white" stroke="#666666" points="1488,-208.5 1351,-208.5 1351,-178.5 1488,-178.5 1488,-208.5"/>
<text text-anchor="start" x="1359" y="-196.5" font-family="Helvetica,sans-Serif" font-size="10.00">std::map&lt; reverse_keyt,</text>
<text text-anchor="middle" x="1419.5" y="-185.5" font-family="Helvetica,sans-Serif" font-size="10.00"> mini_bdd_nodet * &gt;</text>
</a>
</g>
</g>
<!-- Node10&#45;&gt;Node13 -->
<g id="edge18_Node000013_Node000010" class="edge">
<title>Node10&#45;&gt;Node13</title>
<g id="a_edge18_Node000013_Node000010"><a xlink:title=" ">
<path fill="none" stroke="#9a32cd" stroke-dasharray="5,2" d="M1186.67,-379.69C1194.92,-376.27 1202.73,-371.68 1209,-365.5 1227.62,-347.15 1210.79,-330.01 1227,-309.5 1266.27,-259.78 1333.17,-226.35 1376.59,-208.62"/>
<polygon fill="#9a32cd" stroke="#9a32cd" points="1185.47,-376.4 1177.24,-383.06 1187.83,-382.99 1185.47,-376.4"/>
</a>
</g>
<text text-anchor="middle" x="1280" y="-312.5" font-family="Helvetica,sans-Serif" font-size="10.00" fill="grey"> elements</text>
</g>
<!-- Node17 -->
<g id="Node000017" class="node">
<title>Node17</title>
<g id="a_Node000017"><a xlink:title=" ">
<polygon fill="white" stroke="#666666" points="1479.5,-398.5 1359.5,-398.5 1359.5,-368.5 1479.5,-368.5 1479.5,-398.5"/>
<text text-anchor="start" x="1367.5" y="-386.5" font-family="Helvetica,sans-Serif" font-size="10.00">std::stack&lt; mini_bdd</text>
<text text-anchor="middle" x="1419.5" y="-375.5" font-family="Helvetica,sans-Serif" font-size="10.00">_nodet * &gt;</text>
</a>
</g>
</g>
<!-- Node10&#45;&gt;Node17 -->
<g id="edge23_Node000017_Node000010" class="edge">
<title>Node10&#45;&gt;Node17</title>
<g id="a_edge23_Node000017_Node000010"><a xlink:title=" ">
<path fill="none" stroke="#9a32cd" stroke-dasharray="5,2" d="M1187.36,-386.11C1200.38,-385.46 1214.17,-384.87 1227,-384.5 1271.37,-383.24 1321.54,-383.02 1359.39,-383.1"/>
<polygon fill="#9a32cd" stroke="#9a32cd" points="1186.92,-382.63 1177.11,-386.65 1187.28,-389.62 1186.92,-382.63"/>
</a>
</g>
<text text-anchor="middle" x="1280" y="-387.5" font-family="Helvetica,sans-Serif" font-size="10.00" fill="grey"> elements</text>
</g>
<!-- Node11&#45;&gt;Node2 -->
<g id="edge15_Node000002_Node000011" class="edge">
<title>Node11&#45;&gt;Node2</title>
<g id="a_edge15_Node000002_Node000011"><a xlink:title=" ">
<path fill="none" stroke="#9a32cd" stroke-dasharray="5,2" d="M1389.58,-452.28C1373.35,-459.25 1352.5,-466.97 1333,-470.5 1241.61,-487.04 995.7,-460.31 920,-406.5 881.67,-379.25 860.87,-323.4 853.8,-301.05"/>
<polygon fill="#9a32cd" stroke="#9a32cd" points="1391.32,-455.34 1399.03,-448.08 1388.47,-448.94 1391.32,-455.34"/>
</a>
</g>
<text text-anchor="middle" x="1129.5" y="-487.5" font-family="Helvetica,sans-Serif" font-size="10.00" fill="grey"> false_bdd</text>
<text text-anchor="middle" x="1129.5" y="-476.5" font-family="Helvetica,sans-Serif" font-size="10.00" fill="grey">true_bdd</text>
</g>
<!-- Node11&#45;&gt;Node10 -->
<g id="edge11_Node000010_Node000011" class="edge">
<title>Node11&#45;&gt;Node10</title>
<g id="a_edge11_Node000010_Node000011"><a xlink:title=" ">
<path fill="none" stroke="#9a32cd" stroke-dasharray="5,2" d="M1376.84,-443.24C1337.16,-446.22 1276.32,-446.74 1227,-429.5 1217.68,-426.24 1217.76,-421.04 1209,-416.5 1195.31,-409.4 1179.35,-403.52 1165.41,-399.08"/>
<polygon fill="#9a32cd" stroke="#9a32cd" points="1377.28,-446.72 1386.95,-442.39 1376.7,-439.74 1377.28,-446.72"/>
</a>
</g>
<text text-anchor="middle" x="1280" y="-458.5" font-family="Helvetica,sans-Serif" font-size="10.00" fill="grey"> high</text>
<text text-anchor="middle" x="1280" y="-447.5" font-family="Helvetica,sans-Serif" font-size="10.00" fill="grey">low</text>
</g>
<!-- Node20 -->
<g id="Node000020" class="node">
<title>Node20</title>
<g id="a_Node000020"><a xlink:href="classbddt.html" target="_top" xlink:title="Logical operations on BDDs.">
<polygon fill="white" stroke="#666666" points="1676,-293 1638,-293 1638,-274 1676,-274 1676,-293"/>
<text text-anchor="middle" x="1657" y="-281" font-family="Helvetica,sans-Serif" font-size="10.00">bddt</text>
</a>
</g>
</g>
<!-- Node11&#45;&gt;Node20 -->
<g id="edge28_Node000020_Node000011" class="edge">
<title>Node11&#45;&gt;Node20</title>
<g id="a_edge28_Node000020_Node000011"><a xlink:title=" ">
<path fill="none" stroke="#8b1a1a" d="M1453.91,-424.79C1465.01,-419.81 1477.26,-413.84 1488,-407.5 1550.75,-370.46 1618.53,-315.14 1644.76,-293.08"/>
<polygon fill="#8b1a1a" stroke="#8b1a1a" points="1452.29,-421.68 1444.53,-428.89 1455.1,-428.09 1452.29,-421.68"/>
</a>
</g>
</g>
<!-- Node12&#45;&gt;Node9 -->
<g id="edge13_Node000009_Node000012" class="edge">
<title>Node12&#45;&gt;Node9</title>
<g id="a_edge13_Node000009_Node000012"><a xlink:title=" ">
<path fill="none" stroke="orange" stroke-dasharray="5,2" d="M524.68,-164.29C624.13,-179.59 854.9,-213.63 1050,-231.5 1112.71,-237.24 1272.28,-229.78 1333,-246.5 1355.96,-252.82 1379.76,-265.98 1396.4,-276.44"/>
<polygon fill="orange" stroke="orange" points="525.04,-160.8 514.62,-162.73 523.97,-167.72 525.04,-160.8"/>
</a>
</g>
<text text-anchor="middle" x="850" y="-218.5" font-family="Helvetica,sans-Serif" font-size="10.00" fill="grey"> &lt; mini_bdd_nodet &gt;</text>
</g>
<!-- Node13&#45;&gt;Node2 -->
<g id="edge16_Node000002_Node000013" class="edge">
<title>Node13&#45;&gt;Node2</title>
<g id="a_edge16_Node000002_Node000013"><a xlink:title=" ">
<path fill="none" stroke="#9a32cd" stroke-dasharray="5,2" d="M1340.61,-206.91C1305.84,-212.9 1264.37,-220.05 1227,-226.5 1107.05,-247.2 965.58,-271.67 895.28,-283.84"/>
<polygon fill="#9a32cd" stroke="#9a32cd" points="1341.44,-210.32 1350.7,-205.17 1340.25,-203.42 1341.44,-210.32"/>
</a>
</g>
<text text-anchor="middle" x="1129.5" y="-259.5" font-family="Helvetica,sans-Serif" font-size="10.00" fill="grey"> reverse_map</text>
</g>
<!-- Node14 -->
<g id="Node000014" class="node">
<title>Node14</title>
<g id="a_Node000014"><a xlink:href="structmini__bdd__mgrt_1_1reverse__keyt.html" target="_top" xlink:title=" ">
<polygon fill="white" stroke="#666666" points="1209,-170 1050,-170 1050,-151 1209,-151 1209,-170"/>
<text text-anchor="middle" x="1129.5" y="-158" font-family="Helvetica,sans-Serif" font-size="10.00">mini_bdd_mgrt::reverse_keyt</text>
</a>
</g>
</g>
<!-- Node14&#45;&gt;Node13 -->
<g id="edge17_Node000013_Node000014" class="edge">
<title>Node14&#45;&gt;Node13</title>
<g id="a_edge17_Node000013_Node000014"><a xlink:title=" ">
<path fill="none" stroke="#9a32cd" stroke-dasharray="5,2" d="M1219.72,-169.05C1255.03,-172.62 1295.96,-176.98 1333,-181.5 1338.8,-182.21 1344.82,-182.98 1350.86,-183.78"/>
<polygon fill="#9a32cd" stroke="#9a32cd" points="1219.73,-165.53 1209.43,-168.02 1219.03,-172.5 1219.73,-165.53"/>
</a>
</g>
<text text-anchor="middle" x="1280" y="-184.5" font-family="Helvetica,sans-Serif" font-size="10.00" fill="grey"> keys</text>
</g>
<!-- Node15&#45;&gt;Node13 -->
<g id="edge19_Node000013_Node000015" class="edge">
<title>Node15&#45;&gt;Node13</title>
<g id="a_edge19_Node000013_Node000015"><a xlink:title=" ">
<path fill="none" stroke="orange" stroke-dasharray="5,2" d="M1182.91,-96.46C1224.49,-106.79 1283.64,-123.38 1333,-144.5 1355.18,-153.99 1378.86,-167.89 1395.67,-178.46"/>
<polygon fill="orange" stroke="orange" points="1183.54,-93.01 1172.99,-94.03 1181.87,-99.81 1183.54,-93.01"/>
</a>
</g>
<text text-anchor="start" x="1227" y="-158.5" font-family="Helvetica,sans-Serif" font-size="10.00" fill="grey"> &lt; reverse_keyt, mini</text>
<text text-anchor="middle" x="1280" y="-147.5" font-family="Helvetica,sans-Serif" font-size="10.00" fill="grey">_bdd_nodet * &gt;</text>
</g>
<!-- Node16 -->
<g id="Node000016" class="node">
<title>Node16</title>
<g id="a_Node000016"><a xlink:title=" ">
<polygon fill="white" stroke="#666666" points="864.5,-74 835.5,-74 835.5,-55 864.5,-55 864.5,-74"/>
<text text-anchor="middle" x="850" y="-62" font-family="Helvetica,sans-Serif" font-size="10.00">K</text>
</a>
</g>
</g>
<!-- Node16&#45;&gt;Node15 -->
<g id="edge20_Node000015_Node000016" class="edge">
<title>Node16&#45;&gt;Node15</title>
<g id="a_edge20_Node000015_Node000016"><a xlink:title=" ">
<path fill="none" stroke="#9a32cd" stroke-dasharray="5,2" d="M874.77,-66.21C919.88,-69.46 1018.75,-76.59 1078.89,-80.92"/>
<polygon fill="#9a32cd" stroke="#9a32cd" points="874.99,-62.72 864.76,-65.49 874.48,-69.7 874.99,-62.72"/>
</a>
</g>
<text text-anchor="middle" x="976" y="-80.5" font-family="Helvetica,sans-Serif" font-size="10.00" fill="grey"> keys</text>
</g>
<!-- Node16&#45;&gt;Node21 -->
<g id="edge30_Node000021_Node000016" class="edge">
<title>Node16&#45;&gt;Node21</title>
<g id="a_edge30_Node000021_Node000016"><a xlink:title=" ">
<path fill="none" stroke="#9a32cd" stroke-dasharray="5,2" d="M874.93,-61.26C888.21,-59.49 905.01,-57.3 920,-55.5 971.52,-49.3 1030.29,-42.87 1072.27,-38.4"/>
<polygon fill="#9a32cd" stroke="#9a32cd" points="874.18,-57.83 864.74,-62.63 875.11,-64.77 874.18,-57.83"/>
</a>
</g>
<text text-anchor="middle" x="976" y="-58.5" font-family="Helvetica,sans-Serif" font-size="10.00" fill="grey"> keys</text>
</g>
<!-- Node17&#45;&gt;Node2 -->
<g id="edge22_Node000002_Node000017" class="edge">
<title>Node17&#45;&gt;Node2</title>
<g id="a_edge22_Node000002_Node000017"><a xlink:title=" ">
<path fill="none" stroke="#9a32cd" stroke-dasharray="5,2" d="M1349.35,-373.68C1252.96,-359.77 1072.8,-332.94 920,-305.5 911.94,-304.05 903.37,-302.4 895.11,-300.76"/>
<polygon fill="#9a32cd" stroke="#9a32cd" points="1348.87,-377.15 1359.27,-375.11 1349.87,-370.22 1348.87,-377.15"/>
</a>
</g>
<text text-anchor="middle" x="1129.5" y="-355.5" font-family="Helvetica,sans-Serif" font-size="10.00" fill="grey"> free</text>
</g>
<!-- Node18&#45;&gt;Node17 -->
<g id="edge24_Node000017_Node000018" class="edge">
<title>Node18&#45;&gt;Node17</title>
<g id="a_edge24_Node000017_Node000018"><a xlink:title=" ">
<path fill="none" stroke="orange" stroke-dasharray="5,2" d="M761.66,-421.77C852.08,-468.02 1151.55,-603.32 1333,-470.5 1352.4,-456.3 1335.33,-437.73 1351,-419.5 1358.45,-410.84 1368.51,-403.93 1378.59,-398.58"/>
<polygon fill="orange" stroke="orange" points="763.11,-418.58 752.62,-417.09 759.89,-424.8 763.11,-418.58"/>
</a>
</g>
<text text-anchor="middle" x="976" y="-519.5" font-family="Helvetica,sans-Serif" font-size="10.00" fill="grey"> &lt; mini_bdd_nodet * &gt;</text>
</g>
<!-- Node19 -->
<g id="Node000019" class="node">
<title>Node19</title>
<g id="a_Node000019"><a xlink:title=" ">
<polygon fill="white" stroke="#666666" points="1918,-128.5 1802,-128.5 1802,-98.5 1918,-98.5 1918,-128.5"/>
<text text-anchor="start" x="1810" y="-116.5" font-family="Helvetica,sans-Serif" font-size="10.00">std::unordered_map</text>
<text text-anchor="middle" x="1860" y="-105.5" font-family="Helvetica,sans-Serif" font-size="10.00">&lt; std::size_t, bddt &gt;</text>
</a>
</g>
</g>
<!-- Node19&#45;&gt;Node1 -->
<g id="edge26_Node000001_Node000019" class="edge">
<title>Node19&#45;&gt;Node1</title>
<g id="a_edge26_Node000001_Node000019"><a xlink:title=" ">
<path fill="none" stroke="#9a32cd" stroke-dasharray="5,2" d="M1928.02,-100.42C1952.3,-95.57 1979.92,-89.93 2005,-84.5 2011.43,-83.11 2018.23,-81.59 2024.86,-80.07"/>
<polygon fill="#9a32cd" stroke="#9a32cd" points="1927.32,-96.99 1918.19,-102.37 1928.68,-103.85 1927.32,-96.99"/>
</a>
</g>
<text text-anchor="middle" x="1970.5" y="-101.5" font-family="Helvetica,sans-Serif" font-size="10.00" fill="grey"> index_to_bdd</text>
</g>
<!-- Node20&#45;&gt;Node19 -->
<g id="edge27_Node000019_Node000020" class="edge">
<title>Node20&#45;&gt;Node19</title>
<g id="a_edge27_Node000019_Node000020"><a xlink:title=" ">
<path fill="none" stroke="#9a32cd" stroke-dasharray="5,2" d="M1677.34,-267.14C1716.24,-234.24 1803.47,-160.47 1841.13,-128.62"/>
<polygon fill="#9a32cd" stroke="#9a32cd" points="1674.76,-264.74 1669.38,-273.87 1679.28,-270.09 1674.76,-264.74"/>
</a>
</g>
<text text-anchor="middle" x="1739" y="-254.5" font-family="Helvetica,sans-Serif" font-size="10.00" fill="grey"> elements</text>
</g>
<!-- Node21&#45;&gt;Node19 -->
<g id="edge29_Node000019_Node000021" class="edge">
<title>Node21&#45;&gt;Node19</title>
<g id="a_edge29_Node000019_Node000021"><a xlink:title=" ">
<path fill="none" stroke="orange" stroke-dasharray="5,2" d="M1196.76,-45.63C1206.87,-47.41 1217.19,-49.1 1227,-50.5 1437.95,-80.63 1690.56,-101.17 1801.72,-109.43"/>
<polygon fill="orange" stroke="orange" points="1197.21,-42.15 1186.75,-43.83 1195.97,-49.04 1197.21,-42.15"/>
</a>
</g>
<text text-anchor="middle" x="1563" y="-97.5" font-family="Helvetica,sans-Serif" font-size="10.00" fill="grey"> &lt; std::size_t, bddt &gt;</text>
</g>
<!-- Node22 -->
<g id="Node000022" class="node">
<title>Node22</title>
<g id="a_Node000022"><a xlink:title=" ">
<polygon fill="white" stroke="#666666" points="1620,-41 1506,-41 1506,0 1620,0 1620,-41"/>
<text text-anchor="start" x="1514" y="-29" font-family="Helvetica,sans-Serif" font-size="10.00">std::unordered_map</text>
<text text-anchor="start" x="1514" y="-18" font-family="Helvetica,sans-Serif" font-size="10.00">&lt; std::size_t, std::</text>
<text text-anchor="middle" x="1563" y="-7" font-family="Helvetica,sans-Serif" font-size="10.00">size_t &gt;</text>
</a>
</g>
</g>
<!-- Node21&#45;&gt;Node22 -->
<g id="edge33_Node000022_Node000021" class="edge">
<title>Node21&#45;&gt;Node22</title>
<g id="a_edge33_Node000022_Node000021"><a xlink:title=" ">
<path fill="none" stroke="orange" stroke-dasharray="5,2" d="M1196.68,-29.6C1206.83,-29.2 1217.2,-28.82 1227,-28.5 1325.12,-25.3 1439.45,-22.84 1505.98,-21.54"/>
<polygon fill="orange" stroke="orange" points="1196.48,-26.11 1186.62,-30.01 1196.76,-33.1 1196.48,-26.11"/>
</a>
</g>
<text text-anchor="start" x="1237.5" y="-42.5" font-family="Helvetica,sans-Serif" font-size="10.00" fill="grey"> &lt; std::size_t, std</text>
<text text-anchor="middle" x="1280" y="-31.5" font-family="Helvetica,sans-Serif" font-size="10.00" fill="grey">::size_t &gt;</text>
</g>
<!-- Node22&#45;&gt;Node1 -->
<g id="edge32_Node000001_Node000022" class="edge">
<title>Node22&#45;&gt;Node1</title>
<g id="a_edge32_Node000001_Node000022"><a xlink:title=" ">
<path fill="none" stroke="#9a32cd" stroke-dasharray="5,2" d="M1630.21,-22.89C1716.79,-26.71 1872.98,-35.95 2005,-56.5 2012.56,-57.68 2020.59,-59.28 2028.23,-60.98"/>
<polygon fill="#9a32cd" stroke="#9a32cd" points="1630.14,-19.39 1620,-22.45 1629.84,-26.38 1630.14,-19.39"/>
</a>
</g>
<text text-anchor="middle" x="1739" y="-35.5" font-family="Helvetica,sans-Serif" font-size="10.00" fill="grey"> bdd_var_to_index</text>
</g>
</g>
</svg>
