<?xml version="1.0" encoding="UTF-8" standalone="no"?>
<!DOCTYPE svg PUBLIC "-//W3C//DTD SVG 1.1//EN"
 "http://www.w3.org/Graphics/SVG/1.1/DTD/svg11.dtd">
<!-- Generated by graphviz version 2.43.0 (0)
 -->
<!-- Title: rd_range_domaint Pages: 1 -->
<svg width="1363pt" height="371pt"
 viewBox="0.00 0.00 1363.00 371.00" xmlns="http://www.w3.org/2000/svg" xmlns:xlink="http://www.w3.org/1999/xlink">
<g id="graph0" class="graph" transform="scale(1 1) rotate(0) translate(4 367)">
<title>rd_range_domaint</title>
<!-- Node1 -->
<g id="Node000001" class="node">
<title>Node1</title>
<g id="a_Node000001"><a xlink:title="Because the class is inherited from ai_domain_baset, its instance represents an element of a domain o...">
<polygon fill="#999999" stroke="#666666" points="1355,-273 1250,-273 1250,-254 1355,-254 1355,-273"/>
<text text-anchor="middle" x="1302.5" y="-261" font-family="Helvetica,sans-Serif" font-size="10.00">rd_range_domaint</text>
</a>
</g>
</g>
<!-- Node2 -->
<g id="Node000002" class="node">
<title>Node2</title>
<g id="a_Node000002"><a xlink:href="classai__domain__baset.html" target="_top" xlink:title="The interface offered by a domain, allows code to manipulate domains without knowing their exact type...">
<polygon fill="white" stroke="#666666" points="1123.5,-363 1023.5,-363 1023.5,-344 1123.5,-344 1123.5,-363"/>
<text text-anchor="middle" x="1073.5" y="-351" font-family="Helvetica,sans-Serif" font-size="10.00">ai_domain_baset</text>
</a>
</g>
</g>
<!-- Node2&#45;&gt;Node1 -->
<g id="edge1_Node000001_Node000002" class="edge">
<title>Node2&#45;&gt;Node1</title>
<g id="a_edge1_Node000001_Node000002"><a xlink:title=" ">
<path fill="none" stroke="#63b8ff" d="M1133.66,-347.36C1164.15,-342.58 1201.27,-334.17 1232,-319.5 1256.61,-307.75 1280.23,-285.69 1292.59,-273.05"/>
<polygon fill="#63b8ff" stroke="#63b8ff" points="1132.98,-343.92 1123.6,-348.85 1134,-350.85 1132.98,-343.92"/>
</a>
</g>
</g>
<!-- Node3 -->
<g id="Node000003" class="node">
<title>Node3</title>
<g id="a_Node000003"><a xlink:href="classtvt.html" target="_top" xlink:title=" ">
<polygon fill="white" stroke="#666666" points="1088.5,-326 1058.5,-326 1058.5,-307 1088.5,-307 1088.5,-326"/>
<text text-anchor="middle" x="1073.5" y="-314" font-family="Helvetica,sans-Serif" font-size="10.00">tvt</text>
</a>
</g>
</g>
<!-- Node3&#45;&gt;Node1 -->
<g id="edge2_Node000001_Node000003" class="edge">
<title>Node3&#45;&gt;Node1</title>
<g id="a_edge2_Node000001_Node000003"><a xlink:title=" ">
<path fill="none" stroke="#9a32cd" stroke-dasharray="5,2" d="M1098.99,-314.34C1130.28,-311.19 1185.9,-304.27 1232,-291.5 1249.05,-286.78 1267.6,-279.17 1281.24,-273.08"/>
<polygon fill="#9a32cd" stroke="#9a32cd" points="1098.25,-310.9 1088.63,-315.33 1098.92,-317.86 1098.25,-310.9"/>
</a>
</g>
<text text-anchor="middle" x="1198.5" y="-307.5" font-family="Helvetica,sans-Serif" font-size="10.00" fill="grey"> has_values</text>
</g>
<!-- Node4 -->
<g id="Node000004" class="node">
<title>Node4</title>
<g id="a_Node000004"><a xlink:href="classsparse__bitvector__analysist.html" target="_top" xlink:title=" ">
<polygon fill="white" stroke="#666666" points="1147,-241.5 1000,-241.5 1000,-211.5 1147,-211.5 1147,-241.5"/>
<text text-anchor="start" x="1008" y="-229.5" font-family="Helvetica,sans-Serif" font-size="10.00">sparse_bitvector_analysist</text>
<text text-anchor="middle" x="1073.5" y="-218.5" font-family="Helvetica,sans-Serif" font-size="10.00">&lt; reaching_definitiont &gt;</text>
</a>
</g>
</g>
<!-- Node4&#45;&gt;Node1 -->
<g id="edge3_Node000001_Node000004" class="edge">
<title>Node4&#45;&gt;Node1</title>
<g id="a_edge3_Node000001_Node000004"><a xlink:title=" ">
<path fill="none" stroke="#9a32cd" stroke-dasharray="5,2" d="M1157.21,-239.98C1188.24,-245.04 1222.59,-250.64 1249.99,-255.1"/>
<polygon fill="#9a32cd" stroke="#9a32cd" points="1157.69,-236.51 1147.26,-238.36 1156.57,-243.42 1157.69,-236.51"/>
</a>
</g>
<text text-anchor="middle" x="1198.5" y="-255.5" font-family="Helvetica,sans-Serif" font-size="10.00" fill="grey"> bv_container</text>
</g>
<!-- Node5 -->
<g id="Node000005" class="node">
<title>Node5</title>
<g id="a_Node000005"><a xlink:title=" ">
<polygon fill="white" stroke="#666666" points="549,-309.5 389,-309.5 389,-279.5 549,-279.5 549,-309.5"/>
<text text-anchor="start" x="397" y="-297.5" font-family="Helvetica,sans-Serif" font-size="10.00">std::vector&lt; typename</text>
<text text-anchor="middle" x="469" y="-286.5" font-family="Helvetica,sans-Serif" font-size="10.00"> inner_mapt::const_iterator &gt;</text>
</a>
</g>
</g>
<!-- Node5&#45;&gt;Node4 -->
<g id="edge4_Node000004_Node000005" class="edge">
<title>Node5&#45;&gt;Node4</title>
<g id="a_edge4_Node000004_Node000005"><a xlink:title=" ">
<path fill="none" stroke="#9a32cd" stroke-dasharray="5,2" d="M559.34,-293.97C662.22,-291.87 835.84,-283.77 982,-254.5 997.97,-251.3 1015.12,-246.39 1030.15,-241.57"/>
<polygon fill="#9a32cd" stroke="#9a32cd" points="559.24,-290.47 549.31,-294.16 559.37,-297.47 559.24,-290.47"/>
</a>
</g>
<text text-anchor="middle" x="753" y="-292.5" font-family="Helvetica,sans-Serif" font-size="10.00" fill="grey"> values</text>
</g>
<!-- Node12 -->
<g id="Node000012" class="node">
<title>Node12</title>
<g id="a_Node000012"><a xlink:href="classsparse__bitvector__analysist.html" target="_top" xlink:title="An instance of this class provides an assignment of unique numeric ID to each inserted reaching_defin...">
<polygon fill="white" stroke="#666666" points="841,-256 665,-256 665,-237 841,-237 841,-256"/>
<text text-anchor="middle" x="753" y="-244" font-family="Helvetica,sans-Serif" font-size="10.00">sparse_bitvector_analysist&lt; V &gt;</text>
</a>
</g>
</g>
<!-- Node5&#45;&gt;Node12 -->
<g id="edge13_Node000012_Node000005" class="edge">
<title>Node5&#45;&gt;Node12</title>
<g id="a_edge13_Node000012_Node000005"><a xlink:title=" ">
<path fill="none" stroke="#9a32cd" stroke-dasharray="5,2" d="M555.15,-277.63C559.15,-276.9 563.12,-276.18 567,-275.5 606.86,-268.47 651.71,-261.42 687.26,-256.03"/>
<polygon fill="#9a32cd" stroke="#9a32cd" points="554.34,-274.22 545.14,-279.49 555.61,-281.11 554.34,-274.22"/>
</a>
</g>
<text text-anchor="middle" x="607" y="-278.5" font-family="Helvetica,sans-Serif" font-size="10.00" fill="grey"> values</text>
</g>
<!-- Node6 -->
<g id="Node000006" class="node">
<title>Node6</title>
<g id="a_Node000006"><a xlink:title=" ">
<polygon fill="white" stroke="#666666" points="219.5,-304 122.5,-304 122.5,-285 219.5,-285 219.5,-304"/>
<text text-anchor="middle" x="171" y="-292" font-family="Helvetica,sans-Serif" font-size="10.00">std::vector&lt; T &gt;</text>
</a>
</g>
</g>
<!-- Node6&#45;&gt;Node5 -->
<g id="edge5_Node000005_Node000006" class="edge">
<title>Node6&#45;&gt;Node5</title>
<g id="a_edge5_Node000005_Node000006"><a xlink:title=" ">
<path fill="none" stroke="orange" stroke-dasharray="5,2" d="M229.8,-294.5C275.14,-294.5 338.73,-294.5 388.8,-294.5"/>
<polygon fill="orange" stroke="orange" points="229.56,-291 219.56,-294.5 229.56,-298 229.56,-291"/>
</a>
</g>
<text text-anchor="start" x="247" y="-308.5" font-family="Helvetica,sans-Serif" font-size="10.00" fill="grey"> &lt; typename inner_mapt</text>
<text text-anchor="middle" x="308.5" y="-297.5" font-family="Helvetica,sans-Serif" font-size="10.00" fill="grey">::const_iterator &gt;</text>
</g>
<!-- Node19 -->
<g id="Node000019" class="node">
<title>Node19</title>
<g id="a_Node000019"><a xlink:title=" ">
<polygon fill="white" stroke="#666666" points="539,-349 399,-349 399,-330 539,-330 539,-349"/>
<text text-anchor="middle" x="469" y="-337" font-family="Helvetica,sans-Serif" font-size="10.00">std::vector&lt; std::size_t &gt;</text>
</a>
</g>
</g>
<!-- Node6&#45;&gt;Node19 -->
<g id="edge29_Node000019_Node000006" class="edge">
<title>Node6&#45;&gt;Node19</title>
<g id="a_edge29_Node000019_Node000006"><a xlink:title=" ">
<path fill="none" stroke="orange" stroke-dasharray="5,2" d="M207.72,-307.2C219.75,-311.05 233.33,-314.93 246,-317.5 296.67,-327.78 354.87,-333.32 398.96,-336.27"/>
<polygon fill="orange" stroke="orange" points="208.63,-303.82 198.03,-304.01 206.44,-310.47 208.63,-303.82"/>
</a>
</g>
<text text-anchor="middle" x="308.5" y="-336.5" font-family="Helvetica,sans-Serif" font-size="10.00" fill="grey"> &lt; std::size_t &gt;</text>
</g>
<!-- Node7 -->
<g id="Node000007" class="node">
<title>Node7</title>
<g id="a_Node000007"><a xlink:title=" ">
<polygon fill="white" stroke="#666666" points="29,-261 0,-261 0,-242 29,-242 29,-261"/>
<text text-anchor="middle" x="14.5" y="-249" font-family="Helvetica,sans-Serif" font-size="10.00">T</text>
</a>
</g>
</g>
<!-- Node7&#45;&gt;Node6 -->
<g id="edge6_Node000006_Node000007" class="edge">
<title>Node7&#45;&gt;Node6</title>
<g id="a_edge6_Node000006_Node000007"><a xlink:title=" ">
<path fill="none" stroke="#9a32cd" stroke-dasharray="5,2" d="M38.36,-263.1C41.23,-264.34 44.16,-265.51 47,-266.5 71.31,-274.94 99.22,-281.53 122.3,-286.19"/>
<polygon fill="#9a32cd" stroke="#9a32cd" points="39.57,-259.8 29.02,-258.75 36.61,-266.14 39.57,-259.8"/>
</a>
</g>
<text text-anchor="middle" x="71.5" y="-282.5" font-family="Helvetica,sans-Serif" font-size="10.00" fill="grey"> elements</text>
</g>
<!-- Node10 -->
<g id="Node000010" class="node">
<title>Node10</title>
<g id="a_Node000010"><a xlink:title=" ">
<polygon fill="white" stroke="#666666" points="228,-266.5 114,-266.5 114,-236.5 228,-236.5 228,-266.5"/>
<text text-anchor="start" x="122" y="-254.5" font-family="Helvetica,sans-Serif" font-size="10.00">std::unordered_map</text>
<text text-anchor="middle" x="171" y="-243.5" font-family="Helvetica,sans-Serif" font-size="10.00">&lt; K, T &gt;</text>
</a>
</g>
</g>
<!-- Node7&#45;&gt;Node10 -->
<g id="edge11_Node000010_Node000007" class="edge">
<title>Node7&#45;&gt;Node10</title>
<g id="a_edge11_Node000010_Node000007"><a xlink:title=" ">
<path fill="none" stroke="#9a32cd" stroke-dasharray="5,2" d="M39.46,-251.5C59.27,-251.5 88.19,-251.5 113.78,-251.5"/>
<polygon fill="#9a32cd" stroke="#9a32cd" points="39.21,-248 29.21,-251.5 39.21,-255 39.21,-248"/>
</a>
</g>
<text text-anchor="middle" x="71.5" y="-254.5" font-family="Helvetica,sans-Serif" font-size="10.00" fill="grey"> elements</text>
</g>
<!-- Node16 -->
<g id="Node000016" class="node">
<title>Node16</title>
<g id="a_Node000016"><a xlink:title=" ">
<polygon fill="white" stroke="#666666" points="221.5,-158 120.5,-158 120.5,-139 221.5,-139 221.5,-158"/>
<text text-anchor="middle" x="171" y="-146" font-family="Helvetica,sans-Serif" font-size="10.00">std::map&lt; K, T &gt;</text>
</a>
</g>
</g>
<!-- Node7&#45;&gt;Node16 -->
<g id="edge22_Node000016_Node000007" class="edge">
<title>Node7&#45;&gt;Node16</title>
<g id="a_edge22_Node000016_Node000007"><a xlink:title=" ">
<path fill="none" stroke="#9a32cd" stroke-dasharray="5,2" d="M37.93,-236.55C70.16,-215.06 128.66,-176.06 155.65,-158.07"/>
<polygon fill="#9a32cd" stroke="#9a32cd" points="35.59,-233.9 29.21,-242.36 39.47,-239.72 35.59,-233.9"/>
</a>
</g>
<text text-anchor="middle" x="71.5" y="-232.5" font-family="Helvetica,sans-Serif" font-size="10.00" fill="grey"> elements</text>
</g>
<!-- Node8 -->
<g id="Node000008" class="node">
<title>Node8</title>
<g id="a_Node000008"><a xlink:title=" ">
<polygon fill="white" stroke="#666666" points="538,-243.5 400,-243.5 400,-213.5 538,-213.5 538,-243.5"/>
<text text-anchor="start" x="408" y="-231.5" font-family="Helvetica,sans-Serif" font-size="10.00">std::unordered_map</text>
<text text-anchor="middle" x="469" y="-220.5" font-family="Helvetica,sans-Serif" font-size="10.00">&lt; dstringt, inner_mapt &gt;</text>
</a>
</g>
</g>
<!-- Node8&#45;&gt;Node4 -->
<g id="edge7_Node000004_Node000008" class="edge">
<title>Node8&#45;&gt;Node4</title>
<g id="a_edge7_Node000004_Node000008"><a xlink:title=" ">
<path fill="none" stroke="#9a32cd" stroke-dasharray="5,2" d="M548.4,-222.57C583.97,-220.17 626.58,-217.68 665,-216.5 782.24,-212.9 918.49,-218.15 999.99,-222.3"/>
<polygon fill="#9a32cd" stroke="#9a32cd" points="547.82,-219.1 538.09,-223.28 548.3,-226.09 547.82,-219.1"/>
</a>
</g>
<text text-anchor="middle" x="753" y="-219.5" font-family="Helvetica,sans-Serif" font-size="10.00" fill="grey"> value_map</text>
</g>
<!-- Node8&#45;&gt;Node12 -->
<g id="edge14_Node000012_Node000008" class="edge">
<title>Node8&#45;&gt;Node12</title>
<g id="a_edge14_Node000012_Node000008"><a xlink:title=" ">
<path fill="none" stroke="#9a32cd" stroke-dasharray="5,2" d="M548.28,-233.5C584.49,-235.81 627.63,-238.56 664.86,-240.94"/>
<polygon fill="#9a32cd" stroke="#9a32cd" points="548.47,-230 538.26,-232.86 548.02,-236.99 548.47,-230"/>
</a>
</g>
<text text-anchor="middle" x="607" y="-243.5" font-family="Helvetica,sans-Serif" font-size="10.00" fill="grey"> value_map</text>
</g>
<!-- Node9 -->
<g id="Node000009" class="node">
<title>Node9</title>
<g id="a_Node000009"><a xlink:href="classdstringt.html" target="_top" xlink:title="dstringt has one field, an unsigned integer no which is an index into a static table of strings.">
<polygon fill="white" stroke="#666666" points="198,-98 144,-98 144,-79 198,-79 198,-98"/>
<text text-anchor="middle" x="171" y="-86" font-family="Helvetica,sans-Serif" font-size="10.00">dstringt</text>
</a>
</g>
</g>
<!-- Node9&#45;&gt;Node8 -->
<g id="edge8_Node000008_Node000009" class="edge">
<title>Node9&#45;&gt;Node8</title>
<g id="a_edge8_Node000008_Node000009"><a xlink:title=" ">
<path fill="none" stroke="#9a32cd" stroke-dasharray="5,2" d="M197.2,-103.77C207.51,-110.79 219.08,-119.72 228,-129.5 238.48,-140.99 233.15,-150.74 246,-159.5 292.55,-191.23 319.02,-158.77 371,-180.5 380.1,-184.31 380.44,-188.59 389,-193.5 401.88,-200.9 416.61,-207.81 429.84,-213.5"/>
<polygon fill="#9a32cd" stroke="#9a32cd" points="198.85,-100.67 188.56,-98.13 195.02,-106.53 198.85,-100.67"/>
</a>
</g>
<text text-anchor="middle" x="308.5" y="-183.5" font-family="Helvetica,sans-Serif" font-size="10.00" fill="grey"> keys</text>
</g>
<!-- Node13 -->
<g id="Node000013" class="node">
<title>Node13</title>
<g id="a_Node000013"><a xlink:title=" ">
<polygon fill="white" stroke="#666666" points="808,-100.5 698,-100.5 698,-70.5 808,-70.5 808,-100.5"/>
<text text-anchor="start" x="706" y="-88.5" font-family="Helvetica,sans-Serif" font-size="10.00">std::map&lt; irep_idt,</text>
<text text-anchor="middle" x="753" y="-77.5" font-family="Helvetica,sans-Serif" font-size="10.00"> values_innert &gt;</text>
</a>
</g>
</g>
<!-- Node9&#45;&gt;Node13 -->
<g id="edge16_Node000013_Node000009" class="edge">
<title>Node9&#45;&gt;Node13</title>
<g id="a_edge16_Node000013_Node000009"><a xlink:title=" ">
<path fill="none" stroke="#9a32cd" stroke-dasharray="5,2" d="M208.31,-86.97C251.4,-85.24 325.42,-82.53 389,-81.5 460.1,-80.35 477.89,-80.8 549,-81.5 599.4,-82 656.84,-83.19 697.72,-84.14"/>
<polygon fill="#9a32cd" stroke="#9a32cd" points="207.9,-83.48 198.05,-87.39 208.18,-90.48 207.9,-83.48"/>
</a>
</g>
<text text-anchor="middle" x="469" y="-84.5" font-family="Helvetica,sans-Serif" font-size="10.00" fill="grey"> keys</text>
</g>
<!-- Node17 -->
<g id="Node000017" class="node">
<title>Node17</title>
<g id="a_Node000017"><a xlink:title=" ">
<polygon fill="white" stroke="#666666" points="524,-184.5 414,-184.5 414,-154.5 524,-154.5 524,-184.5"/>
<text text-anchor="start" x="422" y="-172.5" font-family="Helvetica,sans-Serif" font-size="10.00">std::map&lt; irep_idt,</text>
<text text-anchor="middle" x="469" y="-161.5" font-family="Helvetica,sans-Serif" font-size="10.00"> ranges_at_loct &gt;</text>
</a>
</g>
</g>
<!-- Node9&#45;&gt;Node17 -->
<g id="edge24_Node000017_Node000009" class="edge">
<title>Node9&#45;&gt;Node17</title>
<g id="a_edge24_Node000017_Node000009"><a xlink:title=" ">
<path fill="none" stroke="#9a32cd" stroke-dasharray="5,2" d="M208.26,-92.17C248.99,-97.14 316.52,-108 371,-129.5 379.72,-132.94 380.56,-136.42 389,-140.5 399.52,-145.59 411.18,-150.33 422.24,-154.44"/>
<polygon fill="#9a32cd" stroke="#9a32cd" points="208.6,-88.68 198.26,-91 207.79,-95.63 208.6,-88.68"/>
</a>
</g>
<text text-anchor="middle" x="308.5" y="-132.5" font-family="Helvetica,sans-Serif" font-size="10.00" fill="grey"> keys</text>
</g>
<!-- Node10&#45;&gt;Node8 -->
<g id="edge9_Node000008_Node000010" class="edge">
<title>Node10&#45;&gt;Node8</title>
<g id="a_edge9_Node000008_Node000010"><a xlink:title=" ">
<path fill="none" stroke="orange" stroke-dasharray="5,2" d="M238.04,-246.37C286.23,-242.62 351.35,-237.56 399.99,-233.78"/>
<polygon fill="orange" stroke="orange" points="237.72,-242.88 228.02,-247.15 238.26,-249.86 237.72,-242.88"/>
</a>
</g>
<text text-anchor="middle" x="308.5" y="-248.5" font-family="Helvetica,sans-Serif" font-size="10.00" fill="grey"> &lt; dstringt, inner_mapt &gt;</text>
</g>
<!-- Node11 -->
<g id="Node000011" class="node">
<title>Node11</title>
<g id="a_Node000011"><a xlink:title=" ">
<polygon fill="white" stroke="#666666" points="29,-158 0,-158 0,-139 29,-139 29,-158"/>
<text text-anchor="middle" x="14.5" y="-146" font-family="Helvetica,sans-Serif" font-size="10.00">K</text>
</a>
</g>
</g>
<!-- Node11&#45;&gt;Node10 -->
<g id="edge10_Node000010_Node000011" class="edge">
<title>Node11&#45;&gt;Node10</title>
<g id="a_edge10_Node000010_Node000011"><a xlink:title=" ">
<path fill="none" stroke="#9a32cd" stroke-dasharray="5,2" d="M38.63,-158.4C60.55,-167.86 90.86,-181.14 96,-184.5 119.08,-199.56 142.03,-221.76 156.12,-236.42"/>
<polygon fill="#9a32cd" stroke="#9a32cd" points="39.84,-155.11 29.27,-154.38 37.08,-161.54 39.84,-155.11"/>
</a>
</g>
<text text-anchor="middle" x="71.5" y="-187.5" font-family="Helvetica,sans-Serif" font-size="10.00" fill="grey"> keys</text>
</g>
<!-- Node15 -->
<g id="Node000015" class="node">
<title>Node15</title>
<g id="a_Node000015"><a xlink:title=" ">
<polygon fill="white" stroke="#666666" points="212,-50 130,-50 130,-31 212,-31 212,-50"/>
<text text-anchor="middle" x="171" y="-38" font-family="Helvetica,sans-Serif" font-size="10.00">std::set&lt; K &gt;</text>
</a>
</g>
</g>
<!-- Node11&#45;&gt;Node15 -->
<g id="edge19_Node000015_Node000011" class="edge">
<title>Node11&#45;&gt;Node15</title>
<g id="a_edge19_Node000015_Node000011"><a xlink:title=" ">
<path fill="none" stroke="#9a32cd" stroke-dasharray="5,2" d="M33.54,-132.21C52.69,-115.37 84.23,-88.87 114,-69.5 125.2,-62.21 138.44,-55.29 149.23,-50.03"/>
<polygon fill="#9a32cd" stroke="#9a32cd" points="31.05,-129.74 25.9,-139 35.7,-134.97 31.05,-129.74"/>
</a>
</g>
<text text-anchor="middle" x="71.5" y="-123.5" font-family="Helvetica,sans-Serif" font-size="10.00" fill="grey"> keys</text>
</g>
<!-- Node11&#45;&gt;Node16 -->
<g id="edge21_Node000016_Node000011" class="edge">
<title>Node11&#45;&gt;Node16</title>
<g id="a_edge21_Node000016_Node000011"><a xlink:title=" ">
<path fill="none" stroke="#9a32cd" stroke-dasharray="5,2" d="M39.41,-148.5C60.97,-148.5 93.36,-148.5 120.48,-148.5"/>
<polygon fill="#9a32cd" stroke="#9a32cd" points="39.21,-145 29.21,-148.5 39.21,-152 39.21,-145"/>
</a>
</g>
<text text-anchor="middle" x="71.5" y="-151.5" font-family="Helvetica,sans-Serif" font-size="10.00" fill="grey"> keys</text>
</g>
<!-- Node12&#45;&gt;Node4 -->
<g id="edge12_Node000004_Node000012" class="edge">
<title>Node12&#45;&gt;Node4</title>
<g id="a_edge12_Node000004_Node000012"><a xlink:title=" ">
<path fill="none" stroke="orange" stroke-dasharray="5,2" d="M851.11,-240.4C898.99,-237.4 955.77,-233.83 999.84,-231.06"/>
<polygon fill="orange" stroke="orange" points="850.79,-236.91 841.03,-241.03 851.23,-243.9 850.79,-236.91"/>
</a>
</g>
<text text-anchor="middle" x="920.5" y="-242.5" font-family="Helvetica,sans-Serif" font-size="10.00" fill="grey"> &lt; reaching_definitiont &gt;</text>
</g>
<!-- Node13&#45;&gt;Node1 -->
<g id="edge15_Node000001_Node000013" class="edge">
<title>Node13&#45;&gt;Node1</title>
<g id="a_edge15_Node000001_Node000013"><a xlink:title=" ">
<path fill="none" stroke="#9a32cd" stroke-dasharray="5,2" d="M818.32,-77.17C916.14,-67.92 1104.4,-63.9 1232,-147.5 1271.67,-173.49 1292.01,-230.69 1298.82,-253.66"/>
<polygon fill="#9a32cd" stroke="#9a32cd" points="817.88,-73.7 808.28,-78.17 818.57,-80.66 817.88,-73.7"/>
</a>
</g>
<text text-anchor="middle" x="1073.5" y="-107.5" font-family="Helvetica,sans-Serif" font-size="10.00" fill="grey"> values</text>
</g>
<!-- Node14 -->
<g id="Node000014" class="node">
<title>Node14</title>
<g id="a_Node000014"><a xlink:title=" ">
<polygon fill="white" stroke="#666666" points="531.5,-19 406.5,-19 406.5,0 531.5,0 531.5,-19"/>
<text text-anchor="middle" x="469" y="-7" font-family="Helvetica,sans-Serif" font-size="10.00">std::set&lt; std::size_t &gt;</text>
</a>
</g>
</g>
<!-- Node14&#45;&gt;Node13 -->
<g id="edge17_Node000013_Node000014" class="edge">
<title>Node14&#45;&gt;Node13</title>
<g id="a_edge17_Node000013_Node000014"><a xlink:title=" ">
<path fill="none" stroke="#9a32cd" stroke-dasharray="5,2" d="M542.12,-12.11C574.72,-14.79 613.39,-20.09 647,-30.5 677.08,-39.81 708.71,-57.64 729.29,-70.48"/>
<polygon fill="#9a32cd" stroke="#9a32cd" points="542,-8.59 531.76,-11.32 541.47,-15.57 542,-8.59"/>
</a>
</g>
<text text-anchor="middle" x="607" y="-33.5" font-family="Helvetica,sans-Serif" font-size="10.00" fill="grey"> elements</text>
</g>
<!-- Node15&#45;&gt;Node14 -->
<g id="edge18_Node000014_Node000015" class="edge">
<title>Node15&#45;&gt;Node14</title>
<g id="a_edge18_Node000014_Node000015"><a xlink:title=" ">
<path fill="none" stroke="orange" stroke-dasharray="5,2" d="M222.21,-33.44C230.17,-32.4 238.3,-31.38 246,-30.5 300.04,-24.3 361.63,-18.58 406.21,-14.68"/>
<polygon fill="orange" stroke="orange" points="221.74,-29.97 212.29,-34.76 222.66,-36.91 221.74,-29.97"/>
</a>
</g>
<text text-anchor="middle" x="308.5" y="-33.5" font-family="Helvetica,sans-Serif" font-size="10.00" fill="grey"> &lt; std::size_t &gt;</text>
</g>
<!-- Node16&#45;&gt;Node13 -->
<g id="edge20_Node000013_Node000016" class="edge">
<title>Node16&#45;&gt;Node13</title>
<g id="a_edge20_Node000013_Node000016"><a xlink:title=" ">
<path fill="none" stroke="orange" stroke-dasharray="5,2" d="M231.68,-141.45C275.26,-136.35 335.78,-129.35 389,-123.5 503.6,-110.9 532.33,-108.51 647,-96.5 663.5,-94.77 681.45,-92.89 697.77,-91.18"/>
<polygon fill="orange" stroke="orange" points="231.06,-138 221.54,-142.64 231.88,-144.96 231.06,-138"/>
</a>
</g>
<text text-anchor="start" x="424" y="-137.5" font-family="Helvetica,sans-Serif" font-size="10.00" fill="grey"> &lt; irep_idt, values</text>
<text text-anchor="middle" x="469" y="-126.5" font-family="Helvetica,sans-Serif" font-size="10.00" fill="grey">_innert &gt;</text>
</g>
<!-- Node16&#45;&gt;Node17 -->
<g id="edge25_Node000017_Node000016" class="edge">
<title>Node16&#45;&gt;Node17</title>
<g id="a_edge25_Node000017_Node000016"><a xlink:title=" ">
<path fill="none" stroke="#9a32cd" stroke-dasharray="5,2" d="M231.66,-145.19C271.28,-143.81 324.39,-143.51 371,-148.5 385.05,-150 400.05,-152.7 413.95,-155.67"/>
<polygon fill="#9a32cd" stroke="#9a32cd" points="231.49,-141.7 221.63,-145.58 231.76,-148.69 231.49,-141.7"/>
</a>
</g>
<text text-anchor="middle" x="308.5" y="-151.5" font-family="Helvetica,sans-Serif" font-size="10.00" fill="grey"> elements</text>
</g>
<!-- Node16&#45;&gt;Node17 -->
<g id="edge26_Node000017_Node000016" class="edge">
<title>Node16&#45;&gt;Node17</title>
<g id="a_edge26_Node000017_Node000016"><a xlink:title=" ">
<path fill="none" stroke="orange" stroke-dasharray="5,2" d="M191.59,-164.54C205.75,-175.06 225.86,-187.86 246,-193.5 305.17,-210.08 376.17,-196.93 421.67,-184.51"/>
<polygon fill="orange" stroke="orange" points="193.65,-161.72 183.6,-158.38 189.38,-167.26 193.65,-161.72"/>
</a>
</g>
<text text-anchor="start" x="263" y="-215.5" font-family="Helvetica,sans-Serif" font-size="10.00" fill="grey"> &lt; irep_idt, ranges</text>
<text text-anchor="middle" x="308.5" y="-204.5" font-family="Helvetica,sans-Serif" font-size="10.00" fill="grey">_at_loct &gt;</text>
</g>
<!-- Node17&#45;&gt;Node1 -->
<g id="edge23_Node000001_Node000017" class="edge">
<title>Node17&#45;&gt;Node1</title>
<g id="a_edge23_Node000001_Node000017"><a xlink:title=" ">
<path fill="none" stroke="#9a32cd" stroke-dasharray="5,2" d="M534.55,-165.72C656.02,-160.12 926.25,-154.9 1147,-202.5 1198.31,-213.56 1254.75,-239.73 1283.1,-253.93"/>
<polygon fill="#9a32cd" stroke="#9a32cd" points="534.13,-162.23 524.31,-166.21 534.47,-169.23 534.13,-162.23"/>
</a>
</g>
<text text-anchor="middle" x="920.5" y="-179.5" font-family="Helvetica,sans-Serif" font-size="10.00" fill="grey"> export_cache</text>
</g>
<!-- Node18 -->
<g id="Node000018" class="node">
<title>Node18</title>
<g id="a_Node000018"><a xlink:href="classmessage__handlert.html" target="_top" xlink:title=" ">
<polygon fill="white" stroke="#666666" points="974,-342 867,-342 867,-323 974,-323 974,-342"/>
<text text-anchor="middle" x="920.5" y="-330" font-family="Helvetica,sans-Serif" font-size="10.00">message_handlert</text>
</a>
</g>
</g>
<!-- Node18&#45;&gt;Node1 -->
<g id="edge27_Node000001_Node000018" class="edge">
<title>Node18&#45;&gt;Node1</title>
<g id="a_edge27_Node000001_Node000018"><a xlink:title=" ">
<path fill="none" stroke="#9a32cd" stroke-dasharray="5,2" d="M976.13,-318.32C978.17,-317.15 980.14,-315.88 982,-314.5 993.6,-305.93 987.56,-294.8 1000,-287.5 1020.97,-275.18 1169.47,-268.12 1249.95,-265.16"/>
<polygon fill="#9a32cd" stroke="#9a32cd" points="974.25,-315.34 966.79,-322.87 977.31,-321.64 974.25,-315.34"/>
</a>
</g>
<text text-anchor="middle" x="1073.5" y="-290.5" font-family="Helvetica,sans-Serif" font-size="10.00" fill="grey"> message_handler</text>
</g>
<!-- Node19&#45;&gt;Node18 -->
<g id="edge28_Node000018_Node000019" class="edge">
<title>Node19&#45;&gt;Node18</title>
<g id="a_edge28_Node000018_Node000019"><a xlink:title=" ">
<path fill="none" stroke="#9a32cd" stroke-dasharray="5,2" d="M549.28,-338.27C640.67,-336.84 788.33,-334.54 866.7,-333.32"/>
<polygon fill="#9a32cd" stroke="#9a32cd" points="549.19,-334.77 539.25,-338.42 549.3,-341.77 549.19,-334.77"/>
</a>
</g>
<text text-anchor="middle" x="607" y="-340.5" font-family="Helvetica,sans-Serif" font-size="10.00" fill="grey"> message_count</text>
</g>
</g>
</svg>
