<?xml version="1.0" encoding="UTF-8" standalone="no"?>
<!DOCTYPE svg PUBLIC "-//W3C//DTD SVG 1.1//EN"
 "http://www.w3.org/Graphics/SVG/1.1/DTD/svg11.dtd">
<!-- Generated by graphviz version 2.43.0 (0)
 -->
<!-- Title: deserialization_exceptiont Pages: 1 -->
<svg width="154pt" height="216pt"
 viewBox="0.00 0.00 154.00 216.00" xmlns="http://www.w3.org/2000/svg" xmlns:xlink="http://www.w3.org/1999/xlink">
<g id="graph0" class="graph" transform="scale(1 1) rotate(0) translate(4 212)">
<title>deserialization_exceptiont</title>
<!-- Node1 -->
<g id="Node000001" class="node">
<title>Node1</title>
<g id="a_Node000001"><a xlink:title="Thrown when failing to deserialize a value from some low level format, like JSON or raw bytes.">
<polygon fill="#999999" stroke="#666666" points="146,-19 0,-19 0,0 146,0 146,-19"/>
<text text-anchor="middle" x="73" y="-7" font-family="Helvetica,sans-Serif" font-size="10.00">deserialization_exceptiont</text>
</a>
</g>
</g>
<!-- Node2 -->
<g id="Node000002" class="node">
<title>Node2</title>
<g id="a_Node000002"><a xlink:href="classcprover__exception__baset.html" target="_top" xlink:title="Base class for exceptions thrown in the cprover project.">
<polygon fill="white" stroke="#666666" points="142.5,-75 3.5,-75 3.5,-56 142.5,-56 142.5,-75"/>
<text text-anchor="middle" x="73" y="-63" font-family="Helvetica,sans-Serif" font-size="10.00">cprover_exception_baset</text>
</a>
</g>
</g>
<!-- Node2&#45;&gt;Node1 -->
<g id="edge1_Node000001_Node000002" class="edge">
<title>Node2&#45;&gt;Node1</title>
<g id="a_edge1_Node000001_Node000002"><a xlink:title=" ">
<path fill="none" stroke="#63b8ff" d="M73,-45.3C73,-36.41 73,-26.28 73,-19.25"/>
<polygon fill="#63b8ff" stroke="#63b8ff" points="69.5,-45.58 73,-55.58 76.5,-45.58 69.5,-45.58"/>
</a>
</g>
</g>
<!-- Node3 -->
<g id="Node000003" class="node">
<title>Node3</title>
<g id="a_Node000003"><a xlink:title=" ">
<polygon fill="white" stroke="#666666" points="105.5,-141 40.5,-141 40.5,-122 105.5,-122 105.5,-141"/>
<text text-anchor="middle" x="73" y="-129" font-family="Helvetica,sans-Serif" font-size="10.00">std::string</text>
</a>
</g>
</g>
<!-- Node3&#45;&gt;Node2 -->
<g id="edge2_Node000002_Node000003" class="edge">
<title>Node3&#45;&gt;Node2</title>
<g id="a_edge2_Node000002_Node000003"><a xlink:title=" ">
<path fill="none" stroke="#9a32cd" stroke-dasharray="5,2" d="M73,-111.58C73,-99.63 73,-84.72 73,-75.41"/>
<polygon fill="#9a32cd" stroke="#9a32cd" points="69.5,-111.87 73,-121.87 76.5,-111.87 69.5,-111.87"/>
</a>
</g>
<text text-anchor="middle" x="91.5" y="-96" font-family="Helvetica,sans-Serif" font-size="10.00" fill="grey"> reason</text>
</g>
<!-- Node4 -->
<g id="Node000004" class="node">
<title>Node4</title>
<g id="a_Node000004"><a xlink:title=" ">
<polygon fill="white" stroke="#666666" points="125,-208 21,-208 21,-178 125,-178 125,-208"/>
<text text-anchor="start" x="29" y="-196" font-family="Helvetica,sans-Serif" font-size="10.00">std::basic_string&lt;</text>
<text text-anchor="middle" x="73" y="-185" font-family="Helvetica,sans-Serif" font-size="10.00"> Char &gt;</text>
</a>
</g>
</g>
<!-- Node4&#45;&gt;Node3 -->
<g id="edge3_Node000003_Node000004" class="edge">
<title>Node4&#45;&gt;Node3</title>
<g id="a_edge3_Node000003_Node000004"><a xlink:title=" ">
<path fill="none" stroke="#63b8ff" d="M73,-167.79C73,-158.36 73,-148.15 73,-141.16"/>
<polygon fill="#63b8ff" stroke="#63b8ff" points="69.5,-167.9 73,-177.9 76.5,-167.9 69.5,-167.9"/>
</a>
</g>
</g>
</g>
</svg>
