<?xml version="1.0" encoding="UTF-8" standalone="no"?>
<!DOCTYPE svg PUBLIC "-//W3C//DTD SVG 1.1//EN"
 "http://www.w3.org/Graphics/SVG/1.1/DTD/svg11.dtd">
<!-- Generated by graphviz version 2.43.0 (0)
 -->
<!-- Title: remove_returnst Pages: 1 -->
<svg width="338pt" height="335pt"
 viewBox="0.00 0.00 338.00 335.00" xmlns="http://www.w3.org/2000/svg" xmlns:xlink="http://www.w3.org/1999/xlink">
<g id="graph0" class="graph" transform="scale(1 1) rotate(0) translate(4 331)">
<title>remove_returnst</title>
<!-- Node1 -->
<g id="Node000001" class="node">
<title>Node1</title>
<g id="a_Node000001"><a xlink:title=" ">
<polygon fill="#999999" stroke="#666666" points="252,-19 154,-19 154,0 252,0 252,-19"/>
<text text-anchor="middle" x="203" y="-7" font-family="Helvetica,sans-Serif" font-size="10.00">remove_returnst</text>
</a>
</g>
</g>
<!-- Node2 -->
<g id="Node000002" class="node">
<title>Node2</title>
<g id="a_Node000002"><a xlink:href="classsymbol__table__baset.html" target="_top" xlink:title="The symbol table base class interface.">
<polygon fill="white" stroke="#666666" points="260.5,-85 145.5,-85 145.5,-66 260.5,-66 260.5,-85"/>
<text text-anchor="middle" x="203" y="-73" font-family="Helvetica,sans-Serif" font-size="10.00">symbol_table_baset</text>
</a>
</g>
</g>
<!-- Node2&#45;&gt;Node1 -->
<g id="edge1_Node000001_Node000002" class="edge">
<title>Node2&#45;&gt;Node1</title>
<g id="a_edge1_Node000001_Node000002"><a xlink:title=" ">
<path fill="none" stroke="#9a32cd" stroke-dasharray="5,2" d="M203,-55.58C203,-43.63 203,-28.72 203,-19.41"/>
<polygon fill="#9a32cd" stroke="#9a32cd" points="199.5,-55.87 203,-65.87 206.5,-55.87 199.5,-55.87"/>
</a>
</g>
<text text-anchor="middle" x="238" y="-40" font-family="Helvetica,sans-Serif" font-size="10.00" fill="grey"> symbol_table</text>
</g>
<!-- Node3 -->
<g id="Node000003" class="node">
<title>Node3</title>
<g id="a_Node000003"><a xlink:title=" ">
<polygon fill="white" stroke="#666666" points="330,-261 216,-261 216,-231 330,-231 330,-261"/>
<text text-anchor="start" x="224" y="-249" font-family="Helvetica,sans-Serif" font-size="10.00">std::unordered_map</text>
<text text-anchor="middle" x="273" y="-238" font-family="Helvetica,sans-Serif" font-size="10.00">&lt; K, T &gt;</text>
</a>
</g>
</g>
<!-- Node3&#45;&gt;Node2 -->
<g id="edge2_Node000002_Node000003" class="edge">
<title>Node3&#45;&gt;Node2</title>
<g id="a_edge2_Node000002_Node000003"><a xlink:title=" ">
<path fill="none" stroke="#9a32cd" stroke-dasharray="5,2" d="M275.14,-220.49C276.51,-190.16 274.56,-138.21 250,-103 244.53,-95.16 235.96,-89.36 227.63,-85.22"/>
<polygon fill="#9a32cd" stroke="#9a32cd" points="271.63,-220.42 274.52,-230.62 278.62,-220.85 271.63,-220.42"/>
</a>
</g>
<text text-anchor="middle" x="295.5" y="-155.5" font-family="Helvetica,sans-Serif" font-size="10.00" fill="grey"> symbols</text>
</g>
<!-- Node4 -->
<g id="Node000004" class="node">
<title>Node4</title>
<g id="a_Node000004"><a xlink:title=" ">
<polygon fill="white" stroke="#666666" points="158.5,-327 129.5,-327 129.5,-308 158.5,-308 158.5,-327"/>
<text text-anchor="middle" x="144" y="-315" font-family="Helvetica,sans-Serif" font-size="10.00">K</text>
</a>
</g>
</g>
<!-- Node4&#45;&gt;Node3 -->
<g id="edge3_Node000003_Node000004" class="edge">
<title>Node4&#45;&gt;Node3</title>
<g id="a_edge3_Node000003_Node000004"><a xlink:title=" ">
<path fill="none" stroke="#9a32cd" stroke-dasharray="5,2" d="M150.68,-298.34C154.03,-291.42 158.73,-284.01 165,-279 173.4,-272.29 194.52,-265.43 215.88,-259.8"/>
<polygon fill="#9a32cd" stroke="#9a32cd" points="147.36,-297.2 146.71,-307.78 153.81,-299.91 147.36,-297.2"/>
</a>
</g>
<text text-anchor="middle" x="178" y="-282" font-family="Helvetica,sans-Serif" font-size="10.00" fill="grey"> keys</text>
</g>
<!-- Node8 -->
<g id="Node000008" class="node">
<title>Node8</title>
<g id="a_Node000008"><a xlink:title=" ">
<polygon fill="white" stroke="#666666" points="198,-255.5 72,-255.5 72,-236.5 198,-236.5 198,-255.5"/>
<text text-anchor="middle" x="135" y="-243.5" font-family="Helvetica,sans-Serif" font-size="10.00">std::multimap&lt; K, T &gt;</text>
</a>
</g>
</g>
<!-- Node4&#45;&gt;Node8 -->
<g id="edge8_Node000008_Node000004" class="edge">
<title>Node4&#45;&gt;Node8</title>
<g id="a_edge8_Node000008_Node000004"><a xlink:title=" ">
<path fill="none" stroke="#9a32cd" stroke-dasharray="5,2" d="M126.13,-300.36C123.63,-297.19 121.42,-293.69 120,-290 115.45,-278.2 122.45,-264.35 128.33,-255.63"/>
<polygon fill="#9a32cd" stroke="#9a32cd" points="123.77,-302.96 133.15,-307.89 128.89,-298.19 123.77,-302.96"/>
</a>
</g>
<text text-anchor="middle" x="133" y="-282" font-family="Helvetica,sans-Serif" font-size="10.00" fill="grey"> keys</text>
</g>
<!-- Node5 -->
<g id="Node000005" class="node">
<title>Node5</title>
<g id="a_Node000005"><a xlink:title=" ">
<polygon fill="white" stroke="#666666" points="267.5,-327 238.5,-327 238.5,-308 267.5,-308 267.5,-327"/>
<text text-anchor="middle" x="253" y="-315" font-family="Helvetica,sans-Serif" font-size="10.00">T</text>
</a>
</g>
</g>
<!-- Node5&#45;&gt;Node3 -->
<g id="edge4_Node000003_Node000005" class="edge">
<title>Node5&#45;&gt;Node3</title>
<g id="a_edge4_Node000003_Node000005"><a xlink:title=" ">
<path fill="none" stroke="#9a32cd" stroke-dasharray="5,2" d="M263.5,-298.64C264.84,-295.82 266.07,-292.88 267,-290 270.01,-280.68 271.51,-269.73 272.26,-261.22"/>
<polygon fill="#9a32cd" stroke="#9a32cd" points="260.37,-297.06 258.75,-307.53 266.55,-300.36 260.37,-297.06"/>
</a>
</g>
<text text-anchor="middle" x="293.5" y="-282" font-family="Helvetica,sans-Serif" font-size="10.00" fill="grey"> elements</text>
</g>
<!-- Node5&#45;&gt;Node8 -->
<g id="edge9_Node000008_Node000005" class="edge">
<title>Node5&#45;&gt;Node8</title>
<g id="a_edge9_Node000008_Node000005"><a xlink:title=" ">
<path fill="none" stroke="#9a32cd" stroke-dasharray="5,2" d="M231.87,-302.23C220.99,-295.04 207.43,-286.32 195,-279 180.76,-270.62 164.15,-261.83 152.02,-255.59"/>
<polygon fill="#9a32cd" stroke="#9a32cd" points="230.03,-305.21 240.29,-307.85 233.91,-299.39 230.03,-305.21"/>
</a>
</g>
<text text-anchor="middle" x="236.5" y="-282" font-family="Helvetica,sans-Serif" font-size="10.00" fill="grey"> elements</text>
</g>
<!-- Node6 -->
<g id="Node000006" class="node">
<title>Node6</title>
<g id="a_Node000006"><a xlink:title=" ">
<polygon fill="white" stroke="#666666" points="192.5,-173 77.5,-173 77.5,-143 192.5,-143 192.5,-173"/>
<text text-anchor="start" x="85.5" y="-161" font-family="Helvetica,sans-Serif" font-size="10.00">std::multimap&lt; irep</text>
<text text-anchor="middle" x="135" y="-150" font-family="Helvetica,sans-Serif" font-size="10.00">_idt, irep_idt &gt;</text>
</a>
</g>
</g>
<!-- Node6&#45;&gt;Node2 -->
<g id="edge5_Node000002_Node000006" class="edge">
<title>Node6&#45;&gt;Node2</title>
<g id="a_edge5_Node000002_Node000006"><a xlink:title=" ">
<path fill="none" stroke="#9a32cd" stroke-dasharray="5,2" d="M134.21,-132.46C135.05,-122.44 137.61,-111.29 144,-103 150.31,-94.82 159.7,-89.1 169.15,-85.12"/>
<polygon fill="#9a32cd" stroke="#9a32cd" points="130.7,-132.59 133.87,-142.7 137.7,-132.82 130.7,-132.59"/>
</a>
</g>
<text text-anchor="middle" x="197" y="-117" font-family="Helvetica,sans-Serif" font-size="10.00" fill="grey"> symbol_base_map</text>
<text text-anchor="middle" x="197" y="-106" font-family="Helvetica,sans-Serif" font-size="10.00" fill="grey">symbol_module_map</text>
</g>
<!-- Node7 -->
<g id="Node000007" class="node">
<title>Node7</title>
<g id="a_Node000007"><a xlink:href="classdstringt.html" target="_top" xlink:title="dstringt has one field, an unsigned integer no which is an index into a static table of strings.">
<polygon fill="white" stroke="#666666" points="54,-255.5 0,-255.5 0,-236.5 54,-236.5 54,-255.5"/>
<text text-anchor="middle" x="27" y="-243.5" font-family="Helvetica,sans-Serif" font-size="10.00">dstringt</text>
</a>
</g>
</g>
<!-- Node7&#45;&gt;Node6 -->
<g id="edge6_Node000006_Node000007" class="edge">
<title>Node7&#45;&gt;Node6</title>
<g id="a_edge6_Node000006_Node000007"><a xlink:title=" ">
<path fill="none" stroke="#9a32cd" stroke-dasharray="5,2" d="M41.52,-228.86C52.13,-217.56 67.2,-202.48 82,-191 90.32,-184.54 100.04,-178.34 108.87,-173.14"/>
<polygon fill="#9a32cd" stroke="#9a32cd" points="38.85,-226.59 34.65,-236.32 44,-231.34 38.85,-226.59"/>
</a>
</g>
<text text-anchor="middle" x="106.5" y="-205" font-family="Helvetica,sans-Serif" font-size="10.00" fill="grey"> elements</text>
<text text-anchor="middle" x="106.5" y="-194" font-family="Helvetica,sans-Serif" font-size="10.00" fill="grey">keys</text>
</g>
<!-- Node8&#45;&gt;Node6 -->
<g id="edge7_Node000006_Node000008" class="edge">
<title>Node8&#45;&gt;Node6</title>
<g id="a_edge7_Node000006_Node000008"><a xlink:title=" ">
<path fill="none" stroke="orange" stroke-dasharray="5,2" d="M135,-226.19C135,-210.23 135,-187.68 135,-173.2"/>
<polygon fill="orange" stroke="orange" points="131.5,-226.44 135,-236.44 138.5,-226.44 131.5,-226.44"/>
</a>
</g>
<text text-anchor="middle" x="188" y="-199.5" font-family="Helvetica,sans-Serif" font-size="10.00" fill="grey"> &lt; irep_idt, irep_idt &gt;</text>
</g>
</g>
</svg>
