<?xml version="1.0" encoding="UTF-8" standalone="no"?>
<!DOCTYPE svg PUBLIC "-//W3C//DTD SVG 1.1//EN"
 "http://www.w3.org/Graphics/SVG/1.1/DTD/svg11.dtd">
<!-- Generated by graphviz version 2.43.0 (0)
 -->
<!-- Title: ait&lt; domainT &gt; Pages: 1 -->
<svg width="1170pt" height="492pt"
 viewBox="0.00 0.00 1170.00 491.54" xmlns="http://www.w3.org/2000/svg" xmlns:xlink="http://www.w3.org/1999/xlink">
<g id="graph0" class="graph" transform="scale(1 1) rotate(0) translate(4 487.54)">
<title>ait&lt; domainT &gt;</title>
<!-- Node1 -->
<g id="Node000001" class="node">
<title>Node1</title>
<g id="a_Node000001"><a xlink:title="ait supplies three of the four components needed: an abstract interpreter (in this case handling func...">
<polygon fill="#999999" stroke="#666666" points="386,-243.71 291,-243.71 291,-224.71 386,-224.71 386,-243.71"/>
<text text-anchor="middle" x="338.5" y="-231.71" font-family="Helvetica,sans-Serif" font-size="10.00">ait&lt; domainT &gt;</text>
</a>
</g>
</g>
<!-- Node4 -->
<g id="Node000004" class="node">
<title>Node4</title>
<g id="a_Node000004"><a xlink:href="classconcurrency__aware__ait.html" target="_top" xlink:title=" ">
<polygon fill="white" stroke="#666666" points="998.5,-445.21 869.5,-445.21 869.5,-415.21 998.5,-415.21 998.5,-445.21"/>
<text text-anchor="start" x="877.5" y="-433.21" font-family="Helvetica,sans-Serif" font-size="10.00">concurrency_aware_ait</text>
<text text-anchor="middle" x="934" y="-422.21" font-family="Helvetica,sans-Serif" font-size="10.00">&lt; rd_range_domaint &gt;</text>
</a>
</g>
</g>
<!-- Node1&#45;&gt;Node4 -->
<g id="edge3_Node000001_Node000004" class="edge">
<title>Node1&#45;&gt;Node4</title>
<g id="a_edge3_Node000001_Node000004"><a xlink:title=" ">
<path fill="none" stroke="#63b8ff" d="M340.24,-254.15C342.82,-291.87 354.17,-373.43 404,-413.21 546.53,-527.03 786.08,-474.56 886.5,-445.25"/>
<polygon fill="#63b8ff" stroke="#63b8ff" points="343.73,-253.75 339.69,-243.95 336.74,-254.13 343.73,-253.75"/>
</a>
</g>
</g>
<!-- Node6 -->
<g id="Node000006" class="node">
<title>Node6</title>
<g id="a_Node000006"><a xlink:href="classconcurrency__aware__ait.html" target="_top" xlink:title="Base class for concurrency&#45;aware abstract interpretation.">
<polygon fill="white" stroke="#666666" points="697,-423.21 568,-423.21 568,-393.21 697,-393.21 697,-423.21"/>
<text text-anchor="start" x="576" y="-411.21" font-family="Helvetica,sans-Serif" font-size="10.00">concurrency_aware_ait</text>
<text text-anchor="middle" x="632.5" y="-400.21" font-family="Helvetica,sans-Serif" font-size="10.00">&lt; domainT &gt;</text>
</a>
</g>
</g>
<!-- Node1&#45;&gt;Node6 -->
<g id="edge5_Node000001_Node000006" class="edge">
<title>Node1&#45;&gt;Node6</title>
<g id="a_edge5_Node000001_Node000006"><a xlink:title=" ">
<path fill="none" stroke="#63b8ff" d="M341.85,-253.9C346.87,-286.47 361.87,-351.06 404,-382.21 450.82,-416.85 518.56,-420.35 567.94,-417.02"/>
<polygon fill="#63b8ff" stroke="#63b8ff" points="345.29,-253.25 340.46,-243.83 338.36,-254.21 345.29,-253.25"/>
</a>
</g>
</g>
<!-- Node7 -->
<g id="Node000007" class="node">
<title>Node7</title>
<g id="a_Node000007"><a xlink:href="classait.html" target="_top" xlink:title=" ">
<polygon fill="white" stroke="#666666" points="703,-375.21 562,-375.21 562,-345.21 703,-345.21 703,-375.21"/>
<text text-anchor="start" x="570" y="-363.21" font-family="Helvetica,sans-Serif" font-size="10.00">ait&lt; constant_propagator</text>
<text text-anchor="middle" x="632.5" y="-352.21" font-family="Helvetica,sans-Serif" font-size="10.00">_domaint &gt;</text>
</a>
</g>
</g>
<!-- Node1&#45;&gt;Node7 -->
<g id="edge7_Node000001_Node000007" class="edge">
<title>Node1&#45;&gt;Node7</title>
<g id="a_edge7_Node000001_Node000007"><a xlink:title=" ">
<path fill="none" stroke="orange" stroke-dasharray="5,2" d="M346.14,-253.3C355.28,-276.44 374.08,-314.63 404,-333.21 429.64,-349.14 504.82,-355.67 561.8,-358.35"/>
<polygon fill="orange" stroke="orange" points="349.39,-252 342.62,-243.86 342.83,-254.45 349.39,-252"/>
</a>
</g>
<text text-anchor="start" x="414.5" y="-370.21" font-family="Helvetica,sans-Serif" font-size="10.00" fill="grey"> &lt; constant_propagator</text>
<text text-anchor="middle" x="472" y="-359.21" font-family="Helvetica,sans-Serif" font-size="10.00" fill="grey">_domaint &gt;</text>
</g>
<!-- Node9 -->
<g id="Node000009" class="node">
<title>Node9</title>
<g id="a_Node000009"><a xlink:href="classait.html" target="_top" xlink:title=" ">
<polygon fill="white" stroke="#666666" points="695,-327.21 570,-327.21 570,-297.21 695,-297.21 695,-327.21"/>
<text text-anchor="start" x="578" y="-315.21" font-family="Helvetica,sans-Serif" font-size="10.00">ait&lt; custom_bitvector</text>
<text text-anchor="middle" x="632.5" y="-304.21" font-family="Helvetica,sans-Serif" font-size="10.00">_domaint &gt;</text>
</a>
</g>
</g>
<!-- Node1&#45;&gt;Node9 -->
<g id="edge9_Node000001_Node000009" class="edge">
<title>Node1&#45;&gt;Node9</title>
<g id="a_edge9_Node000001_Node000009"><a xlink:title=" ">
<path fill="none" stroke="orange" stroke-dasharray="5,2" d="M358.52,-250.6C370.72,-260.2 387.34,-271.69 404,-278.21 457.54,-299.2 522.83,-307.33 569.71,-310.43"/>
<polygon fill="orange" stroke="orange" points="360.44,-247.65 350.48,-244.04 356.02,-253.07 360.44,-247.65"/>
</a>
</g>
<text text-anchor="start" x="422" y="-321.21" font-family="Helvetica,sans-Serif" font-size="10.00" fill="grey"> &lt; custom_bitvector</text>
<text text-anchor="middle" x="472" y="-310.21" font-family="Helvetica,sans-Serif" font-size="10.00" fill="grey">_domaint &gt;</text>
</g>
<!-- Node11 -->
<g id="Node000011" class="node">
<title>Node11</title>
<g id="a_Node000011"><a xlink:href="classait.html" target="_top" xlink:title=" ">
<polygon fill="white" stroke="#666666" points="707,-278.71 558,-278.71 558,-259.71 707,-259.71 707,-278.71"/>
<text text-anchor="middle" x="632.5" y="-266.71" font-family="Helvetica,sans-Serif" font-size="10.00">ait&lt; dep_graph_domaint &gt;</text>
</a>
</g>
</g>
<!-- Node1&#45;&gt;Node11 -->
<g id="edge11_Node000001_Node000011" class="edge">
<title>Node1&#45;&gt;Node11</title>
<g id="a_edge11_Node000001_Node000011"><a xlink:title=" ">
<path fill="none" stroke="orange" stroke-dasharray="5,2" d="M393.66,-245.55C397.15,-246.15 400.62,-246.71 404,-247.21 455.12,-254.82 513.12,-260.38 557.75,-264.01"/>
<polygon fill="orange" stroke="orange" points="394.27,-242.1 383.81,-243.77 393.02,-248.99 394.27,-242.1"/>
</a>
</g>
<text text-anchor="middle" x="472" y="-266.21" font-family="Helvetica,sans-Serif" font-size="10.00" fill="grey"> &lt; dep_graph_domaint &gt;</text>
</g>
<!-- Node13 -->
<g id="Node000013" class="node">
<title>Node13</title>
<g id="a_Node000013"><a xlink:href="classait.html" target="_top" xlink:title=" ">
<polygon fill="white" stroke="#666666" points="698.5,-241.71 566.5,-241.71 566.5,-222.71 698.5,-222.71 698.5,-241.71"/>
<text text-anchor="middle" x="632.5" y="-229.71" font-family="Helvetica,sans-Serif" font-size="10.00">ait&lt; escape_domaint &gt;</text>
</a>
</g>
</g>
<!-- Node1&#45;&gt;Node13 -->
<g id="edge13_Node000001_Node000013" class="edge">
<title>Node1&#45;&gt;Node13</title>
<g id="a_edge13_Node000001_Node000013"><a xlink:title=" ">
<path fill="none" stroke="orange" stroke-dasharray="5,2" d="M396.15,-233.83C444.9,-233.49 515.25,-233.01 566.32,-232.66"/>
<polygon fill="orange" stroke="orange" points="396.07,-230.33 386.09,-233.9 396.11,-237.33 396.07,-230.33"/>
</a>
</g>
<text text-anchor="middle" x="472" y="-237.21" font-family="Helvetica,sans-Serif" font-size="10.00" fill="grey"> &lt; escape_domaint &gt;</text>
</g>
<!-- Node15 -->
<g id="Node000015" class="node">
<title>Node15</title>
<g id="a_Node000015"><a xlink:href="classait.html" target="_top" xlink:title=" ">
<polygon fill="white" stroke="#666666" points="695.5,-204.21 569.5,-204.21 569.5,-174.21 695.5,-174.21 695.5,-204.21"/>
<text text-anchor="start" x="577.5" y="-192.21" font-family="Helvetica,sans-Serif" font-size="10.00">ait&lt; global_may_alias</text>
<text text-anchor="middle" x="632.5" y="-181.21" font-family="Helvetica,sans-Serif" font-size="10.00">_domaint &gt;</text>
</a>
</g>
</g>
<!-- Node1&#45;&gt;Node15 -->
<g id="edge15_Node000001_Node000015" class="edge">
<title>Node1&#45;&gt;Node15</title>
<g id="a_edge15_Node000001_Node000015"><a xlink:title=" ">
<path fill="none" stroke="orange" stroke-dasharray="5,2" d="M367.11,-220.38C378.3,-215.39 391.5,-210.24 404,-207.21 458.87,-193.92 523.15,-189.85 569.35,-188.85"/>
<polygon fill="orange" stroke="orange" points="365.47,-217.29 357.88,-224.67 368.42,-223.64 365.47,-217.29"/>
</a>
</g>
<text text-anchor="start" x="422" y="-221.21" font-family="Helvetica,sans-Serif" font-size="10.00" fill="grey"> &lt; global_may_alias</text>
<text text-anchor="middle" x="472" y="-210.21" font-family="Helvetica,sans-Serif" font-size="10.00" fill="grey">_domaint &gt;</text>
</g>
<!-- Node17 -->
<g id="Node000017" class="node">
<title>Node17</title>
<g id="a_Node000017"><a xlink:href="classait.html" target="_top" xlink:title=" ">
<polygon fill="white" stroke="#666666" points="684.5,-156.21 580.5,-156.21 580.5,-126.21 684.5,-126.21 684.5,-156.21"/>
<text text-anchor="start" x="588.5" y="-144.21" font-family="Helvetica,sans-Serif" font-size="10.00">ait&lt; invariant_set</text>
<text text-anchor="middle" x="632.5" y="-133.21" font-family="Helvetica,sans-Serif" font-size="10.00">_domaint &gt;</text>
</a>
</g>
</g>
<!-- Node1&#45;&gt;Node17 -->
<g id="edge17_Node000001_Node000017" class="edge">
<title>Node1&#45;&gt;Node17</title>
<g id="a_edge17_Node000001_Node000017"><a xlink:title=" ">
<path fill="none" stroke="orange" stroke-dasharray="5,2" d="M353.57,-216.57C365.48,-202.94 383.8,-184.84 404,-175.21 460.24,-148.42 532.42,-141.66 580.22,-140.46"/>
<polygon fill="orange" stroke="orange" points="350.78,-214.45 347.02,-224.36 356.14,-218.95 350.78,-214.45"/>
</a>
</g>
<text text-anchor="middle" x="472" y="-178.21" font-family="Helvetica,sans-Serif" font-size="10.00" fill="grey"> &lt; invariant_set_domaint &gt;</text>
</g>
<!-- Node19 -->
<g id="Node000019" class="node">
<title>Node19</title>
<g id="a_Node000019"><a xlink:href="classait.html" target="_top" xlink:title=" ">
<polygon fill="white" stroke="#666666" points="702.5,-107.71 562.5,-107.71 562.5,-88.71 702.5,-88.71 702.5,-107.71"/>
<text text-anchor="middle" x="632.5" y="-95.71" font-family="Helvetica,sans-Serif" font-size="10.00">ait&lt; rd_range_domaint &gt;</text>
</a>
</g>
</g>
<!-- Node1&#45;&gt;Node19 -->
<g id="edge19_Node000001_Node000019" class="edge">
<title>Node1&#45;&gt;Node19</title>
<g id="a_edge19_Node000001_Node000019"><a xlink:title=" ">
<path fill="none" stroke="orange" stroke-dasharray="5,2" d="M345.42,-214.95C354.04,-190.4 372.56,-148.71 404,-128.21 450.72,-97.76 514.38,-91.64 562.48,-92.35"/>
<polygon fill="orange" stroke="orange" points="342.04,-214 342.23,-224.59 348.69,-216.2 342.04,-214"/>
</a>
</g>
<text text-anchor="middle" x="472" y="-131.21" font-family="Helvetica,sans-Serif" font-size="10.00" fill="grey"> &lt; rd_range_domaint &gt;</text>
</g>
<!-- Node20 -->
<g id="Node000020" class="node">
<title>Node20</title>
<g id="a_Node000020"><a xlink:href="classait.html" target="_top" xlink:title=" ">
<polygon fill="white" stroke="#666666" points="671.5,-70.71 593.5,-70.71 593.5,-51.71 671.5,-51.71 671.5,-70.71"/>
<text text-anchor="middle" x="632.5" y="-58.71" font-family="Helvetica,sans-Serif" font-size="10.00">ait&lt; VSDT &gt;</text>
</a>
</g>
</g>
<!-- Node1&#45;&gt;Node20 -->
<g id="edge20_Node000001_Node000020" class="edge">
<title>Node1&#45;&gt;Node20</title>
<g id="a_edge20_Node000001_Node000020"><a xlink:title=" ">
<path fill="none" stroke="orange" stroke-dasharray="5,2" d="M341.24,-214.25C345.41,-180.01 359.21,-110.64 404,-78.21 459.66,-37.92 544.37,-44.43 593.19,-52.82"/>
<polygon fill="orange" stroke="orange" points="337.74,-214.1 340.17,-224.41 344.7,-214.83 337.74,-214.1"/>
</a>
</g>
<text text-anchor="middle" x="472" y="-81.21" font-family="Helvetica,sans-Serif" font-size="10.00" fill="grey"> &lt; VSDT &gt;</text>
</g>
<!-- Node22 -->
<g id="Node000022" class="node">
<title>Node22</title>
<g id="a_Node000022"><a xlink:href="classait.html" target="_top" xlink:title=" ">
<polygon fill="white" stroke="#666666" points="683,-33.21 582,-33.21 582,-3.21 683,-3.21 683,-33.21"/>
<text text-anchor="start" x="590" y="-21.21" font-family="Helvetica,sans-Serif" font-size="10.00">ait&lt; uninitialized</text>
<text text-anchor="middle" x="632.5" y="-10.21" font-family="Helvetica,sans-Serif" font-size="10.00">_domaint &gt;</text>
</a>
</g>
</g>
<!-- Node1&#45;&gt;Node22 -->
<g id="edge22_Node000001_Node000022" class="edge">
<title>Node1&#45;&gt;Node22</title>
<g id="a_edge22_Node000001_Node000022"><a xlink:title=" ">
<path fill="none" stroke="orange" stroke-dasharray="5,2" d="M339.08,-214.35C339.4,-172.8 346.65,-76.87 404,-32.21 454.42,7.05 531.77,2.34 582,-6.48"/>
<polygon fill="orange" stroke="orange" points="335.58,-214.56 339.14,-224.54 342.58,-214.52 335.58,-214.56"/>
</a>
</g>
<text text-anchor="middle" x="472" y="-35.21" font-family="Helvetica,sans-Serif" font-size="10.00" fill="grey"> &lt; uninitialized_domaint &gt;</text>
</g>
<!-- Node2 -->
<g id="Node000002" class="node">
<title>Node2</title>
<g id="a_Node000002"><a xlink:href="classai__recursive__interproceduralt.html" target="_top" xlink:title=" ">
<polygon fill="white" stroke="#666666" points="254,-243.71 95,-243.71 95,-224.71 254,-224.71 254,-243.71"/>
<text text-anchor="middle" x="174.5" y="-231.71" font-family="Helvetica,sans-Serif" font-size="10.00">ai_recursive_interproceduralt</text>
</a>
</g>
</g>
<!-- Node2&#45;&gt;Node1 -->
<g id="edge1_Node000001_Node000002" class="edge">
<title>Node2&#45;&gt;Node1</title>
<g id="a_edge1_Node000001_Node000002"><a xlink:title=" ">
<path fill="none" stroke="#63b8ff" d="M264.14,-234.21C273.34,-234.21 282.41,-234.21 290.87,-234.21"/>
<polygon fill="#63b8ff" stroke="#63b8ff" points="264.13,-230.71 254.13,-234.21 264.13,-237.71 264.13,-230.71"/>
</a>
</g>
</g>
<!-- Node3 -->
<g id="Node000003" class="node">
<title>Node3</title>
<g id="a_Node000003"><a xlink:href="classai__baset.html" target="_top" xlink:title="This is the basic interface of the abstract interpreter with default implementations of the core func...">
<polygon fill="white" stroke="#666666" points="58,-243.71 0,-243.71 0,-224.71 58,-224.71 58,-243.71"/>
<text text-anchor="middle" x="29" y="-231.71" font-family="Helvetica,sans-Serif" font-size="10.00">ai_baset</text>
</a>
</g>
</g>
<!-- Node3&#45;&gt;Node2 -->
<g id="edge2_Node000002_Node000003" class="edge">
<title>Node3&#45;&gt;Node2</title>
<g id="a_edge2_Node000002_Node000003"><a xlink:title=" ">
<path fill="none" stroke="#63b8ff" d="M68.11,-234.21C76.46,-234.21 85.59,-234.21 94.87,-234.21"/>
<polygon fill="#63b8ff" stroke="#63b8ff" points="68.01,-230.71 58.01,-234.21 68.01,-237.71 68.01,-230.71"/>
</a>
</g>
</g>
<!-- Node5 -->
<g id="Node000005" class="node">
<title>Node5</title>
<g id="a_Node000005"><a xlink:href="classreaching__definitions__analysist.html" target="_top" xlink:title=" ">
<polygon fill="white" stroke="#666666" points="1162,-445.21 1047,-445.21 1047,-415.21 1162,-415.21 1162,-445.21"/>
<text text-anchor="start" x="1055" y="-433.21" font-family="Helvetica,sans-Serif" font-size="10.00">reaching_definitions</text>
<text text-anchor="middle" x="1104.5" y="-422.21" font-family="Helvetica,sans-Serif" font-size="10.00">_analysist</text>
</a>
</g>
</g>
<!-- Node4&#45;&gt;Node5 -->
<g id="edge4_Node000004_Node000005" class="edge">
<title>Node4&#45;&gt;Node5</title>
<g id="a_edge4_Node000004_Node000005"><a xlink:title=" ">
<path fill="none" stroke="#63b8ff" d="M1008.84,-430.21C1021.6,-430.21 1034.69,-430.21 1046.9,-430.21"/>
<polygon fill="#63b8ff" stroke="#63b8ff" points="1008.7,-426.71 998.7,-430.21 1008.7,-433.71 1008.7,-426.71"/>
</a>
</g>
</g>
<!-- Node6&#45;&gt;Node4 -->
<g id="edge6_Node000006_Node000004" class="edge">
<title>Node6&#45;&gt;Node4</title>
<g id="a_edge6_Node000006_Node000004"><a xlink:title=" ">
<path fill="none" stroke="orange" stroke-dasharray="5,2" d="M707.07,-413.62C756.8,-417.27 821.81,-422.05 869.32,-425.54"/>
<polygon fill="orange" stroke="orange" points="707.25,-410.12 697.02,-412.88 706.73,-417.1 707.25,-410.12"/>
</a>
</g>
<text text-anchor="middle" x="782.5" y="-425.21" font-family="Helvetica,sans-Serif" font-size="10.00" fill="grey"> &lt; rd_range_domaint &gt;</text>
</g>
<!-- Node8 -->
<g id="Node000008" class="node">
<title>Node8</title>
<g id="a_Node000008"><a xlink:href="classconstant__propagator__ait.html" target="_top" xlink:title=" ">
<polygon fill="white" stroke="#666666" points="1001.5,-369.71 866.5,-369.71 866.5,-350.71 1001.5,-350.71 1001.5,-369.71"/>
<text text-anchor="middle" x="934" y="-357.71" font-family="Helvetica,sans-Serif" font-size="10.00">constant_propagator_ait</text>
</a>
</g>
</g>
<!-- Node7&#45;&gt;Node8 -->
<g id="edge8_Node000007_Node000008" class="edge">
<title>Node7&#45;&gt;Node8</title>
<g id="a_edge8_Node000007_Node000008"><a xlink:title=" ">
<path fill="none" stroke="#63b8ff" d="M713.34,-360.21C761.13,-360.21 821.17,-360.21 866.39,-360.21"/>
<polygon fill="#63b8ff" stroke="#63b8ff" points="713.34,-356.71 703.34,-360.21 713.34,-363.71 713.34,-356.71"/>
</a>
</g>
</g>
<!-- Node10 -->
<g id="Node000010" class="node">
<title>Node10</title>
<g id="a_Node000010"><a xlink:href="classcustom__bitvector__analysist.html" target="_top" xlink:title=" ">
<polygon fill="white" stroke="#666666" points="1009.5,-321.71 858.5,-321.71 858.5,-302.71 1009.5,-302.71 1009.5,-321.71"/>
<text text-anchor="middle" x="934" y="-309.71" font-family="Helvetica,sans-Serif" font-size="10.00">custom_bitvector_analysist</text>
</a>
</g>
</g>
<!-- Node9&#45;&gt;Node10 -->
<g id="edge10_Node000009_Node000010" class="edge">
<title>Node9&#45;&gt;Node10</title>
<g id="a_edge10_Node000009_Node000010"><a xlink:title=" ">
<path fill="none" stroke="#63b8ff" d="M705.44,-312.21C751.69,-312.21 811.64,-312.21 858.4,-312.21"/>
<polygon fill="#63b8ff" stroke="#63b8ff" points="705.19,-308.71 695.19,-312.21 705.19,-315.71 705.19,-308.71"/>
</a>
</g>
</g>
<!-- Node12 -->
<g id="Node000012" class="node">
<title>Node12</title>
<g id="a_Node000012"><a xlink:href="classdependence__grapht.html" target="_top" xlink:title=" ">
<polygon fill="white" stroke="#666666" points="990.5,-278.71 877.5,-278.71 877.5,-259.71 990.5,-259.71 990.5,-278.71"/>
<text text-anchor="middle" x="934" y="-266.71" font-family="Helvetica,sans-Serif" font-size="10.00">dependence_grapht</text>
</a>
</g>
</g>
<!-- Node11&#45;&gt;Node12 -->
<g id="edge12_Node000011_Node000012" class="edge">
<title>Node11&#45;&gt;Node12</title>
<g id="a_edge12_Node000011_Node000012"><a xlink:title=" ">
<path fill="none" stroke="#63b8ff" d="M717.18,-269.21C768.23,-269.21 832.09,-269.21 877.06,-269.21"/>
<polygon fill="#63b8ff" stroke="#63b8ff" points="717.15,-265.71 707.15,-269.21 717.15,-272.71 717.15,-265.71"/>
</a>
</g>
</g>
<!-- Node14 -->
<g id="Node000014" class="node">
<title>Node14</title>
<g id="a_Node000014"><a xlink:href="classescape__analysist.html" target="_top" xlink:title=" ">
<polygon fill="white" stroke="#666666" points="984.5,-241.71 883.5,-241.71 883.5,-222.71 984.5,-222.71 984.5,-241.71"/>
<text text-anchor="middle" x="934" y="-229.71" font-family="Helvetica,sans-Serif" font-size="10.00">escape_analysist</text>
</a>
</g>
</g>
<!-- Node13&#45;&gt;Node14 -->
<g id="edge14_Node000013_Node000014" class="edge">
<title>Node13&#45;&gt;Node14</title>
<g id="a_edge14_Node000013_Node000014"><a xlink:title=" ">
<path fill="none" stroke="#63b8ff" d="M709.16,-232.21C763.66,-232.21 835.66,-232.21 883.1,-232.21"/>
<polygon fill="#63b8ff" stroke="#63b8ff" points="708.86,-228.71 698.86,-232.21 708.86,-235.71 708.86,-228.71"/>
</a>
</g>
</g>
<!-- Node16 -->
<g id="Node000016" class="node">
<title>Node16</title>
<g id="a_Node000016"><a xlink:href="classglobal__may__alias__analysist.html" target="_top" xlink:title="This is a may analysis (i.e.">
<polygon fill="white" stroke="#666666" points="1010,-198.71 858,-198.71 858,-179.71 1010,-179.71 1010,-198.71"/>
<text text-anchor="middle" x="934" y="-186.71" font-family="Helvetica,sans-Serif" font-size="10.00">global_may_alias_analysist</text>
</a>
</g>
</g>
<!-- Node15&#45;&gt;Node16 -->
<g id="edge16_Node000015_Node000016" class="edge">
<title>Node15&#45;&gt;Node16</title>
<g id="a_edge16_Node000015_Node000016"><a xlink:title=" ">
<path fill="none" stroke="#63b8ff" d="M705.75,-189.21C751.74,-189.21 811.2,-189.21 857.76,-189.21"/>
<polygon fill="#63b8ff" stroke="#63b8ff" points="705.56,-185.71 695.56,-189.21 705.56,-192.71 705.56,-185.71"/>
</a>
</g>
</g>
<!-- Node18 -->
<g id="Node000018" class="node">
<title>Node18</title>
<g id="a_Node000018"><a xlink:href="classinvariant__propagationt.html" target="_top" xlink:title=" ">
<polygon fill="white" stroke="#666666" points="998,-150.71 870,-150.71 870,-131.71 998,-131.71 998,-150.71"/>
<text text-anchor="middle" x="934" y="-138.71" font-family="Helvetica,sans-Serif" font-size="10.00">invariant_propagationt</text>
</a>
</g>
</g>
<!-- Node17&#45;&gt;Node18 -->
<g id="edge18_Node000017_Node000018" class="edge">
<title>Node17&#45;&gt;Node18</title>
<g id="a_edge18_Node000017_Node000018"><a xlink:title=" ">
<path fill="none" stroke="#63b8ff" d="M694.88,-141.21C745.92,-141.21 818.3,-141.21 869.84,-141.21"/>
<polygon fill="#63b8ff" stroke="#63b8ff" points="694.65,-137.71 684.65,-141.21 694.65,-144.71 694.65,-137.71"/>
</a>
</g>
</g>
<!-- Node21 -->
<g id="Node000021" class="node">
<title>Node21</title>
<g id="a_Node000021"><a xlink:href="classvalue__set__analysis__templatet.html" target="_top" xlink:title="This template class implements a data&#45;flow analysis which keeps track of what values different variab...">
<polygon fill="white" stroke="#666666" points="993.5,-76.21 874.5,-76.21 874.5,-46.21 993.5,-46.21 993.5,-76.21"/>
<text text-anchor="start" x="882.5" y="-64.21" font-family="Helvetica,sans-Serif" font-size="10.00">value_set_analysis</text>
<text text-anchor="middle" x="934" y="-53.21" font-family="Helvetica,sans-Serif" font-size="10.00">_templatet&lt; VSDT &gt;</text>
</a>
</g>
</g>
<!-- Node20&#45;&gt;Node21 -->
<g id="edge21_Node000020_Node000021" class="edge">
<title>Node20&#45;&gt;Node21</title>
<g id="a_edge21_Node000020_Node000021"><a xlink:title=" ">
<path fill="none" stroke="#63b8ff" d="M681.8,-61.21C734.3,-61.21 818.19,-61.21 874.41,-61.21"/>
<polygon fill="#63b8ff" stroke="#63b8ff" points="681.74,-57.71 671.74,-61.21 681.74,-64.71 681.74,-57.71"/>
</a>
</g>
</g>
</g>
</svg>
