<?xml version="1.0" encoding="UTF-8" standalone="no"?>
<!DOCTYPE svg PUBLIC "-//W3C//DTD SVG 1.1//EN"
 "http://www.w3.org/Graphics/SVG/1.1/DTD/svg11.dtd">
<!-- Generated by graphviz version 2.43.0 (0)
 -->
<!-- Title: automatont Pages: 1 -->
<svg width="361pt" height="225pt"
 viewBox="0.00 0.00 360.50 225.00" xmlns="http://www.w3.org/2000/svg" xmlns:xlink="http://www.w3.org/1999/xlink">
<g id="graph0" class="graph" transform="scale(1 1) rotate(0) translate(4 221)">
<title>automatont</title>
<!-- Node1 -->
<g id="Node000001" class="node">
<title>Node1</title>
<g id="a_Node000001"><a xlink:title=" ">
<polygon fill="#999999" stroke="#666666" points="166,-19 92,-19 92,0 166,0 166,-19"/>
<text text-anchor="middle" x="129" y="-7" font-family="Helvetica,sans-Serif" font-size="10.00">automatont</text>
</a>
</g>
</g>
<!-- Node2 -->
<g id="Node000002" class="node">
<title>Node2</title>
<g id="a_Node000002"><a xlink:title=" ">
<polygon fill="white" stroke="#666666" points="268,-85 122,-85 122,-66 268,-66 268,-85"/>
<text text-anchor="middle" x="195" y="-73" font-family="Helvetica,sans-Serif" font-size="10.00">std::vector&lt; transitionst &gt;</text>
</a>
</g>
</g>
<!-- Node2&#45;&gt;Node1 -->
<g id="edge1_Node000001_Node000002" class="edge">
<title>Node2&#45;&gt;Node1</title>
<g id="a_edge1_Node000001_Node000002"><a xlink:title=" ">
<path fill="none" stroke="#9a32cd" stroke-dasharray="5,2" d="M178.84,-58.83C166.06,-46.44 148.68,-29.59 138.18,-19.41"/>
<polygon fill="#9a32cd" stroke="#9a32cd" points="176.48,-61.42 186.1,-65.87 181.36,-56.39 176.48,-61.42"/>
</a>
</g>
<text text-anchor="middle" x="193.5" y="-40" font-family="Helvetica,sans-Serif" font-size="10.00" fill="grey"> transitions</text>
</g>
<!-- Node3 -->
<g id="Node000003" class="node">
<title>Node3</title>
<g id="a_Node000003"><a xlink:title=" ">
<polygon fill="white" stroke="#666666" points="237,-151 111,-151 111,-132 237,-132 237,-151"/>
<text text-anchor="middle" x="174" y="-139" font-family="Helvetica,sans-Serif" font-size="10.00">std::multimap&lt; K, T &gt;</text>
</a>
</g>
</g>
<!-- Node3&#45;&gt;Node2 -->
<g id="edge2_Node000002_Node000003" class="edge">
<title>Node3&#45;&gt;Node2</title>
<g id="a_edge2_Node000002_Node000003"><a xlink:title=" ">
<path fill="none" stroke="#9a32cd" stroke-dasharray="5,2" d="M179.97,-122.32C183.93,-110.24 188.96,-94.91 192.08,-85.41"/>
<polygon fill="#9a32cd" stroke="#9a32cd" points="176.62,-121.28 176.83,-131.87 183.28,-123.46 176.62,-121.28"/>
</a>
</g>
<text text-anchor="middle" x="210.5" y="-106" font-family="Helvetica,sans-Serif" font-size="10.00" fill="grey"> elements</text>
</g>
<!-- Node4 -->
<g id="Node000004" class="node">
<title>Node4</title>
<g id="a_Node000004"><a xlink:title=" ">
<polygon fill="white" stroke="#666666" points="123.5,-217 94.5,-217 94.5,-198 123.5,-198 123.5,-217"/>
<text text-anchor="middle" x="109" y="-205" font-family="Helvetica,sans-Serif" font-size="10.00">K</text>
</a>
</g>
</g>
<!-- Node4&#45;&gt;Node3 -->
<g id="edge3_Node000003_Node000004" class="edge">
<title>Node4&#45;&gt;Node3</title>
<g id="a_edge3_Node000003_Node000004"><a xlink:title=" ">
<path fill="none" stroke="#9a32cd" stroke-dasharray="5,2" d="M124.92,-190.83C137.5,-178.44 154.62,-161.59 164.96,-151.41"/>
<polygon fill="#9a32cd" stroke="#9a32cd" points="122.44,-188.36 117.77,-197.87 127.35,-193.35 122.44,-188.36"/>
</a>
</g>
<text text-anchor="middle" x="159" y="-172" font-family="Helvetica,sans-Serif" font-size="10.00" fill="grey"> keys</text>
</g>
<!-- Node8 -->
<g id="Node000008" class="node">
<title>Node8</title>
<g id="a_Node000008"><a xlink:title=" ">
<polygon fill="white" stroke="#666666" points="93,-151 11,-151 11,-132 93,-132 93,-151"/>
<text text-anchor="middle" x="52" y="-139" font-family="Helvetica,sans-Serif" font-size="10.00">std::set&lt; K &gt;</text>
</a>
</g>
</g>
<!-- Node4&#45;&gt;Node8 -->
<g id="edge9_Node000008_Node000004" class="edge">
<title>Node4&#45;&gt;Node8</title>
<g id="a_edge9_Node000008_Node000004"><a xlink:title=" ">
<path fill="none" stroke="#9a32cd" stroke-dasharray="5,2" d="M94.24,-190.28C91.18,-186.89 87.98,-183.33 85,-180 76.22,-170.17 66.23,-158.79 59.57,-151.17"/>
<polygon fill="#9a32cd" stroke="#9a32cd" points="91.66,-192.64 100.97,-197.7 96.84,-187.94 91.66,-192.64"/>
</a>
</g>
<text text-anchor="middle" x="98" y="-172" font-family="Helvetica,sans-Serif" font-size="10.00" fill="grey"> keys</text>
</g>
<!-- Node5 -->
<g id="Node000005" class="node">
<title>Node5</title>
<g id="a_Node000005"><a xlink:title=" ">
<polygon fill="white" stroke="#666666" points="252.5,-217 223.5,-217 223.5,-198 252.5,-198 252.5,-217"/>
<text text-anchor="middle" x="238" y="-205" font-family="Helvetica,sans-Serif" font-size="10.00">T</text>
</a>
</g>
</g>
<!-- Node5&#45;&gt;Node3 -->
<g id="edge4_Node000003_Node000005" class="edge">
<title>Node5&#45;&gt;Node3</title>
<g id="a_edge4_Node000003_Node000005"><a xlink:title=" ">
<path fill="none" stroke="#9a32cd" stroke-dasharray="5,2" d="M221.98,-190.48C209.62,-178.12 192.99,-161.49 182.91,-151.41"/>
<polygon fill="#9a32cd" stroke="#9a32cd" points="219.82,-193.27 229.37,-197.87 224.77,-188.32 219.82,-193.27"/>
</a>
</g>
<text text-anchor="middle" x="233.5" y="-172" font-family="Helvetica,sans-Serif" font-size="10.00" fill="grey"> elements</text>
</g>
<!-- Node6 -->
<g id="Node000006" class="node">
<title>Node6</title>
<g id="a_Node000006"><a xlink:title=" ">
<polygon fill="white" stroke="#666666" points="352.5,-151 255.5,-151 255.5,-132 352.5,-132 352.5,-151"/>
<text text-anchor="middle" x="304" y="-139" font-family="Helvetica,sans-Serif" font-size="10.00">std::vector&lt; T &gt;</text>
</a>
</g>
</g>
<!-- Node5&#45;&gt;Node6 -->
<g id="edge6_Node000006_Node000005" class="edge">
<title>Node5&#45;&gt;Node6</title>
<g id="a_edge6_Node000006_Node000005"><a xlink:title=" ">
<path fill="none" stroke="#9a32cd" stroke-dasharray="5,2" d="M254.16,-190.83C266.94,-178.44 284.32,-161.59 294.82,-151.41"/>
<polygon fill="#9a32cd" stroke="#9a32cd" points="251.64,-188.39 246.9,-197.87 256.52,-193.42 251.64,-188.39"/>
</a>
</g>
<text text-anchor="middle" x="298.5" y="-172" font-family="Helvetica,sans-Serif" font-size="10.00" fill="grey"> elements</text>
</g>
<!-- Node6&#45;&gt;Node2 -->
<g id="edge5_Node000002_Node000006" class="edge">
<title>Node6&#45;&gt;Node2</title>
<g id="a_edge5_Node000002_Node000006"><a xlink:title=" ">
<path fill="none" stroke="orange" stroke-dasharray="5,2" d="M280.48,-126.69C259.03,-114.09 227.99,-95.87 209.82,-85.2"/>
<polygon fill="orange" stroke="orange" points="278.9,-129.82 289.3,-131.87 282.45,-123.79 278.9,-129.82"/>
</a>
</g>
<text text-anchor="middle" x="297" y="-106" font-family="Helvetica,sans-Serif" font-size="10.00" fill="grey"> &lt; transitionst &gt;</text>
</g>
<!-- Node7 -->
<g id="Node000007" class="node">
<title>Node7</title>
<g id="a_Node000007"><a xlink:title=" ">
<polygon fill="white" stroke="#666666" points="104,-85 0,-85 0,-66 104,-66 104,-85"/>
<text text-anchor="middle" x="52" y="-73" font-family="Helvetica,sans-Serif" font-size="10.00">std::set&lt; statet &gt;</text>
</a>
</g>
</g>
<!-- Node7&#45;&gt;Node1 -->
<g id="edge7_Node000001_Node000007" class="edge">
<title>Node7&#45;&gt;Node1</title>
<g id="a_edge7_Node000001_Node000007"><a xlink:title=" ">
<path fill="none" stroke="#9a32cd" stroke-dasharray="5,2" d="M64.36,-57.67C69.91,-50.78 76.81,-43.04 84,-37 92.33,-30.01 102.74,-23.75 111.45,-19.07"/>
<polygon fill="#9a32cd" stroke="#9a32cd" points="61.48,-55.68 58.15,-65.73 67.03,-59.95 61.48,-55.68"/>
</a>
</g>
<text text-anchor="middle" x="119.5" y="-40" font-family="Helvetica,sans-Serif" font-size="10.00" fill="grey"> accept_states</text>
</g>
<!-- Node8&#45;&gt;Node7 -->
<g id="edge8_Node000007_Node000008" class="edge">
<title>Node8&#45;&gt;Node7</title>
<g id="a_edge8_Node000007_Node000008"><a xlink:title=" ">
<path fill="none" stroke="orange" stroke-dasharray="5,2" d="M52,-121.58C52,-109.63 52,-94.72 52,-85.41"/>
<polygon fill="orange" stroke="orange" points="48.5,-121.87 52,-131.87 55.5,-121.87 48.5,-121.87"/>
</a>
</g>
<text text-anchor="middle" x="79.5" y="-106" font-family="Helvetica,sans-Serif" font-size="10.00" fill="grey"> &lt; statet &gt;</text>
</g>
</g>
</svg>
