<?xml version="1.0" encoding="UTF-8" standalone="no"?>
<!DOCTYPE svg PUBLIC "-//W3C//DTD SVG 1.1//EN"
 "http://www.w3.org/Graphics/SVG/1.1/DTD/svg11.dtd">
<!-- Generated by graphviz version 2.43.0 (0)
 -->
<!-- Title: constant_propagator_domaint Pages: 1 -->
<svg width="404pt" height="458pt"
 viewBox="0.00 0.00 404.00 458.00" xmlns="http://www.w3.org/2000/svg" xmlns:xlink="http://www.w3.org/1999/xlink">
<g id="graph0" class="graph" transform="scale(1 1) rotate(0) translate(4 454)">
<title>constant_propagator_domaint</title>
<!-- Node1 -->
<g id="Node000001" class="node">
<title>Node1</title>
<g id="a_Node000001"><a xlink:title=" ">
<polygon fill="#999999" stroke="#666666" points="124.5,-30 7.5,-30 7.5,0 124.5,0 124.5,-30"/>
<text text-anchor="start" x="15.5" y="-18" font-family="Helvetica,sans-Serif" font-size="10.00">constant_propagator</text>
<text text-anchor="middle" x="66" y="-7" font-family="Helvetica,sans-Serif" font-size="10.00">_domaint</text>
</a>
</g>
</g>
<!-- Node2 -->
<g id="Node000002" class="node">
<title>Node2</title>
<g id="a_Node000002"><a xlink:href="classai__domain__baset.html" target="_top" xlink:title="The interface offered by a domain, allows code to manipulate domains without knowing their exact type...">
<polygon fill="white" stroke="#666666" points="100,-101.5 0,-101.5 0,-82.5 100,-82.5 100,-101.5"/>
<text text-anchor="middle" x="50" y="-89.5" font-family="Helvetica,sans-Serif" font-size="10.00">ai_domain_baset</text>
</a>
</g>
</g>
<!-- Node2&#45;&gt;Node1 -->
<g id="edge1_Node000001_Node000002" class="edge">
<title>Node2&#45;&gt;Node1</title>
<g id="a_edge1_Node000001_Node000002"><a xlink:title=" ">
<path fill="none" stroke="#63b8ff" d="M53.93,-72.59C56.72,-59.49 60.43,-42.13 62.99,-30.11"/>
<polygon fill="#63b8ff" stroke="#63b8ff" points="50.5,-71.89 51.84,-82.4 57.34,-73.35 50.5,-71.89"/>
</a>
</g>
</g>
<!-- Node3 -->
<g id="Node000003" class="node">
<title>Node3</title>
<g id="a_Node000003"><a xlink:href="structconstant__propagator__domaint_1_1valuest.html" target="_top" xlink:title=" ">
<polygon fill="white" stroke="#666666" points="235.5,-107 118.5,-107 118.5,-77 235.5,-77 235.5,-107"/>
<text text-anchor="start" x="126.5" y="-95" font-family="Helvetica,sans-Serif" font-size="10.00">constant_propagator</text>
<text text-anchor="middle" x="177" y="-84" font-family="Helvetica,sans-Serif" font-size="10.00">_domaint::valuest</text>
</a>
</g>
</g>
<!-- Node3&#45;&gt;Node1 -->
<g id="edge2_Node000001_Node000003" class="edge">
<title>Node3&#45;&gt;Node1</title>
<g id="a_edge2_Node000001_Node000003"><a xlink:title=" ">
<path fill="none" stroke="#9a32cd" stroke-dasharray="5,2" d="M147.74,-71.23C128.57,-58.28 103.97,-41.65 86.78,-30.04"/>
<polygon fill="#9a32cd" stroke="#9a32cd" points="145.88,-74.19 156.12,-76.89 149.8,-68.39 145.88,-74.19"/>
</a>
</g>
<text text-anchor="middle" x="147" y="-51" font-family="Helvetica,sans-Serif" font-size="10.00" fill="grey"> values</text>
</g>
<!-- Node4 -->
<g id="Node000004" class="node">
<title>Node4</title>
<g id="a_Node000004"><a xlink:href="classaddress__of__aware__replace__symbolt.html" target="_top" xlink:title="Replace symbols with constants while maintaining syntactically valid expressions.">
<polygon fill="white" stroke="#666666" points="250,-184 104,-184 104,-154 250,-154 250,-184"/>
<text text-anchor="start" x="112" y="-172" font-family="Helvetica,sans-Serif" font-size="10.00">address_of_aware_replace</text>
<text text-anchor="middle" x="177" y="-161" font-family="Helvetica,sans-Serif" font-size="10.00">_symbolt</text>
</a>
</g>
</g>
<!-- Node4&#45;&gt;Node3 -->
<g id="edge3_Node000003_Node000004" class="edge">
<title>Node4&#45;&gt;Node3</title>
<g id="a_edge3_Node000003_Node000004"><a xlink:title=" ">
<path fill="none" stroke="#9a32cd" stroke-dasharray="5,2" d="M177,-143.54C177,-131.45 177,-117.29 177,-107.04"/>
<polygon fill="#9a32cd" stroke="#9a32cd" points="173.5,-143.89 177,-153.89 180.5,-143.89 173.5,-143.89"/>
</a>
</g>
<text text-anchor="middle" x="212.5" y="-128" font-family="Helvetica,sans-Serif" font-size="10.00" fill="grey"> replace_const</text>
</g>
<!-- Node5 -->
<g id="Node000005" class="node">
<title>Node5</title>
<g id="a_Node000005"><a xlink:href="classunchecked__replace__symbolt.html" target="_top" xlink:title=" ">
<polygon fill="white" stroke="#666666" points="254.5,-240 99.5,-240 99.5,-221 254.5,-221 254.5,-240"/>
<text text-anchor="middle" x="177" y="-228" font-family="Helvetica,sans-Serif" font-size="10.00">unchecked_replace_symbolt</text>
</a>
</g>
</g>
<!-- Node5&#45;&gt;Node4 -->
<g id="edge4_Node000004_Node000005" class="edge">
<title>Node5&#45;&gt;Node4</title>
<g id="a_edge4_Node000004_Node000005"><a xlink:title=" ">
<path fill="none" stroke="#63b8ff" d="M177,-210.73C177,-202.09 177,-192 177,-184.02"/>
<polygon fill="#63b8ff" stroke="#63b8ff" points="173.5,-210.98 177,-220.98 180.5,-210.98 173.5,-210.98"/>
</a>
</g>
</g>
<!-- Node6 -->
<g id="Node000006" class="node">
<title>Node6</title>
<g id="a_Node000006"><a xlink:href="classreplace__symbolt.html" target="_top" xlink:title="Replace a symbol expression by a given expression.">
<polygon fill="white" stroke="#666666" points="226,-296 128,-296 128,-277 226,-277 226,-296"/>
<text text-anchor="middle" x="177" y="-284" font-family="Helvetica,sans-Serif" font-size="10.00">replace_symbolt</text>
</a>
</g>
</g>
<!-- Node6&#45;&gt;Node5 -->
<g id="edge5_Node000005_Node000006" class="edge">
<title>Node6&#45;&gt;Node5</title>
<g id="a_edge5_Node000005_Node000006"><a xlink:title=" ">
<path fill="none" stroke="#63b8ff" d="M177,-266.3C177,-257.41 177,-247.28 177,-240.25"/>
<polygon fill="#63b8ff" stroke="#63b8ff" points="173.5,-266.58 177,-276.58 180.5,-266.58 173.5,-266.58"/>
</a>
</g>
</g>
<!-- Node7 -->
<g id="Node000007" class="node">
<title>Node7</title>
<g id="a_Node000007"><a xlink:title=" ">
<polygon fill="white" stroke="#666666" points="300,-373 186,-373 186,-343 300,-343 300,-373"/>
<text text-anchor="start" x="194" y="-361" font-family="Helvetica,sans-Serif" font-size="10.00">std::unordered_map</text>
<text text-anchor="middle" x="243" y="-350" font-family="Helvetica,sans-Serif" font-size="10.00">&lt; irep_idt, exprt &gt;</text>
</a>
</g>
</g>
<!-- Node7&#45;&gt;Node6 -->
<g id="edge6_Node000006_Node000007" class="edge">
<title>Node7&#45;&gt;Node6</title>
<g id="a_edge6_Node000006_Node000007"><a xlink:title=" ">
<path fill="none" stroke="#9a32cd" stroke-dasharray="5,2" d="M222.65,-335.57C210.09,-322.34 194.65,-306.08 185.33,-296.27"/>
<polygon fill="#9a32cd" stroke="#9a32cd" points="220.22,-338.09 229.64,-342.94 225.3,-333.27 220.22,-338.09"/>
</a>
</g>
<text text-anchor="middle" x="237" y="-317" font-family="Helvetica,sans-Serif" font-size="10.00" fill="grey"> expr_map</text>
</g>
<!-- Node8 -->
<g id="Node000008" class="node">
<title>Node8</title>
<g id="a_Node000008"><a xlink:href="classdstringt.html" target="_top" xlink:title="dstringt has one field, an unsigned integer no which is an index into a static table of strings.">
<polygon fill="white" stroke="#666666" points="168,-444.5 114,-444.5 114,-425.5 168,-425.5 168,-444.5"/>
<text text-anchor="middle" x="141" y="-432.5" font-family="Helvetica,sans-Serif" font-size="10.00">dstringt</text>
</a>
</g>
</g>
<!-- Node8&#45;&gt;Node7 -->
<g id="edge7_Node000007_Node000008" class="edge">
<title>Node8&#45;&gt;Node7</title>
<g id="a_edge7_Node000007_Node000008"><a xlink:title=" ">
<path fill="none" stroke="#9a32cd" stroke-dasharray="5,2" d="M160.87,-419.39C179.07,-406.01 205.83,-386.33 223.81,-373.11"/>
<polygon fill="#9a32cd" stroke="#9a32cd" points="158.68,-416.65 152.7,-425.4 162.83,-422.29 158.68,-416.65"/>
</a>
</g>
<text text-anchor="middle" x="211" y="-394" font-family="Helvetica,sans-Serif" font-size="10.00" fill="grey"> keys</text>
</g>
<!-- Node20 -->
<g id="Node000020" class="node">
<title>Node20</title>
<g id="a_Node000020"><a xlink:title=" ">
<polygon fill="white" stroke="#666666" points="167.5,-367.5 54.5,-367.5 54.5,-348.5 167.5,-348.5 167.5,-367.5"/>
<text text-anchor="middle" x="111" y="-355.5" font-family="Helvetica,sans-Serif" font-size="10.00">std::set&lt; dstringt &gt;</text>
</a>
</g>
</g>
<!-- Node8&#45;&gt;Node20 -->
<g id="edge11_Node000020_Node000008" class="edge">
<title>Node8&#45;&gt;Node20</title>
<g id="a_edge11_Node000020_Node000008"><a xlink:title=" ">
<path fill="none" stroke="#9a32cd" stroke-dasharray="5,2" d="M133.77,-415.92C127.62,-400.56 119.08,-379.2 114.4,-367.5"/>
<polygon fill="#9a32cd" stroke="#9a32cd" points="130.59,-417.41 137.56,-425.4 137.09,-414.81 130.59,-417.41"/>
</a>
</g>
<text text-anchor="middle" x="141" y="-394" font-family="Helvetica,sans-Serif" font-size="10.00" fill="grey"> keys</text>
</g>
<!-- Node9 -->
<g id="Node000009" class="node">
<title>Node9</title>
<g id="a_Node000009"><a xlink:href="classexprt.html" target="_top" xlink:title="Base class for all expressions.">
<polygon fill="#fff0f0" stroke="red" points="381,-444.5 339,-444.5 339,-425.5 381,-425.5 381,-444.5"/>
<text text-anchor="middle" x="360" y="-432.5" font-family="Helvetica,sans-Serif" font-size="10.00">exprt</text>
</a>
</g>
</g>
<!-- Node9&#45;&gt;Node7 -->
<g id="edge8_Node000007_Node000009" class="edge">
<title>Node9&#45;&gt;Node7</title>
<g id="a_edge8_Node000007_Node000009"><a xlink:title=" ">
<path fill="none" stroke="#9a32cd" stroke-dasharray="5,2" d="M354.25,-415.62C350.76,-407.1 345.5,-397.46 338,-391 327.19,-381.68 313.56,-375.05 300.02,-370.34"/>
<polygon fill="#9a32cd" stroke="#9a32cd" points="351,-416.93 357.66,-425.16 357.59,-414.57 351,-416.93"/>
</a>
</g>
<text text-anchor="middle" x="371.5" y="-394" font-family="Helvetica,sans-Serif" font-size="10.00" fill="grey"> elements</text>
</g>
<!-- Node18 -->
<g id="Node000018" class="node">
<title>Node18</title>
<g id="a_Node000018"><a xlink:title=" ">
<polygon fill="#fff0f0" stroke="red" points="300,-450 186,-450 186,-420 300,-420 300,-450"/>
<text text-anchor="start" x="194" y="-438" font-family="Helvetica,sans-Serif" font-size="10.00">std::unordered_map</text>
<text text-anchor="middle" x="243" y="-427" font-family="Helvetica,sans-Serif" font-size="10.00">&lt; K, T &gt;</text>
</a>
</g>
</g>
<!-- Node18&#45;&gt;Node7 -->
<g id="edge9_Node000007_Node000018" class="edge">
<title>Node18&#45;&gt;Node7</title>
<g id="a_edge9_Node000007_Node000018"><a xlink:title=" ">
<path fill="none" stroke="orange" stroke-dasharray="5,2" d="M243,-409.54C243,-397.45 243,-383.29 243,-373.04"/>
<polygon fill="orange" stroke="orange" points="239.5,-409.89 243,-419.89 246.5,-409.89 239.5,-409.89"/>
</a>
</g>
<text text-anchor="middle" x="290" y="-394" font-family="Helvetica,sans-Serif" font-size="10.00" fill="grey"> &lt; irep_idt, exprt &gt;</text>
</g>
<!-- Node20&#45;&gt;Node6 -->
<g id="edge10_Node000006_Node000020" class="edge">
<title>Node20&#45;&gt;Node6</title>
<g id="a_edge10_Node000006_Node000020"><a xlink:title=" ">
<path fill="none" stroke="#9a32cd" stroke-dasharray="5,2" d="M126.17,-341.03C139.44,-327.05 158.22,-307.28 168.84,-296.09"/>
<polygon fill="#9a32cd" stroke="#9a32cd" points="123.44,-338.82 119.09,-348.48 128.52,-343.64 123.44,-338.82"/>
</a>
</g>
<text text-anchor="middle" x="172.5" y="-317" font-family="Helvetica,sans-Serif" font-size="10.00" fill="grey"> bindings</text>
</g>
<!-- Node21 -->
<g id="Node000021" class="node">
<title>Node21</title>
<g id="a_Node000021"><a xlink:title=" ">
<polygon fill="#fff0f0" stroke="red" points="95,-444.5 13,-444.5 13,-425.5 95,-425.5 95,-444.5"/>
<text text-anchor="middle" x="54" y="-432.5" font-family="Helvetica,sans-Serif" font-size="10.00">std::set&lt; K &gt;</text>
</a>
</g>
</g>
<!-- Node21&#45;&gt;Node20 -->
<g id="edge12_Node000020_Node000021" class="edge">
<title>Node21&#45;&gt;Node20</title>
<g id="a_edge12_Node000020_Node000021"><a xlink:title=" ">
<path fill="none" stroke="orange" stroke-dasharray="5,2" d="M51.6,-415.15C51.49,-407.17 52.62,-398.1 57,-391 63.64,-380.24 75.35,-372.66 86.17,-367.59"/>
<polygon fill="orange" stroke="orange" points="48.13,-415.68 52.39,-425.38 55.11,-415.14 48.13,-415.68"/>
</a>
</g>
<text text-anchor="middle" x="89" y="-394" font-family="Helvetica,sans-Serif" font-size="10.00" fill="grey"> &lt; dstringt &gt;</text>
</g>
</g>
</svg>
