<?xml version="1.0" encoding="UTF-8" standalone="no"?>
<!DOCTYPE svg PUBLIC "-//W3C//DTD SVG 1.1//EN"
 "http://www.w3.org/Graphics/SVG/1.1/DTD/svg11.dtd">
<!-- Generated by graphviz version 2.43.0 (0)
 -->
<!-- Title: smt_indext::storert&lt; derivedt &gt; Pages: 1 -->
<svg width="204pt" height="171pt"
 viewBox="0.00 0.00 203.50 171.00" xmlns="http://www.w3.org/2000/svg" xmlns:xlink="http://www.w3.org/1999/xlink">
<g id="graph0" class="graph" transform="scale(1 1) rotate(0) translate(4 167)">
<title>smt_indext::storert&lt; derivedt &gt;</title>
<!-- Node1 -->
<g id="Node000001" class="node">
<title>Node1</title>
<g id="a_Node000001"><a xlink:title="Class for adding the ability to up and down cast smt_indext to and from irept.">
<polygon fill="#999999" stroke="#666666" points="124.5,-163 14.5,-163 14.5,-133 124.5,-133 124.5,-163"/>
<text text-anchor="start" x="22.5" y="-151" font-family="Helvetica,sans-Serif" font-size="10.00">smt_indext::storert</text>
<text text-anchor="middle" x="69.5" y="-140" font-family="Helvetica,sans-Serif" font-size="10.00">&lt; derivedt &gt;</text>
</a>
</g>
</g>
<!-- Node2 -->
<g id="Node000002" class="node">
<title>Node2</title>
<g id="a_Node000002"><a xlink:href="classsmt__indext_1_1storert.html" target="_top" xlink:title=" ">
<polygon fill="white" stroke="#666666" points="139,-86 0,-86 0,-56 139,-56 139,-86"/>
<text text-anchor="start" x="8" y="-74" font-family="Helvetica,sans-Serif" font-size="10.00">smt_indext::storert</text>
<text text-anchor="middle" x="69.5" y="-63" font-family="Helvetica,sans-Serif" font-size="10.00">&lt; smt_identifier_termt &gt;</text>
</a>
</g>
</g>
<!-- Node1&#45;&gt;Node2 -->
<g id="edge1_Node000001_Node000002" class="edge">
<title>Node1&#45;&gt;Node2</title>
<g id="a_edge1_Node000001_Node000002"><a xlink:title=" ">
<path fill="none" stroke="orange" stroke-dasharray="5,2" d="M69.5,-122.54C69.5,-110.45 69.5,-96.29 69.5,-86.04"/>
<polygon fill="orange" stroke="orange" points="66,-122.89 69.5,-132.89 73,-122.89 66,-122.89"/>
</a>
</g>
<text text-anchor="middle" x="132.5" y="-107" font-family="Helvetica,sans-Serif" font-size="10.00" fill="grey"> &lt; smt_identifier_termt &gt;</text>
</g>
<!-- Node3 -->
<g id="Node000003" class="node">
<title>Node3</title>
<g id="a_Node000003"><a xlink:href="classsmt__identifier__termt.html" target="_top" xlink:title="Stores identifiers in unescaped and unquoted form.">
<polygon fill="white" stroke="#666666" points="127.5,-19 11.5,-19 11.5,0 127.5,0 127.5,-19"/>
<text text-anchor="middle" x="69.5" y="-7" font-family="Helvetica,sans-Serif" font-size="10.00">smt_identifier_termt</text>
</a>
</g>
</g>
<!-- Node2&#45;&gt;Node3 -->
<g id="edge2_Node000002_Node000003" class="edge">
<title>Node2&#45;&gt;Node3</title>
<g id="a_edge2_Node000002_Node000003"><a xlink:title=" ">
<path fill="none" stroke="#8b1a1a" d="M69.5,-45.79C69.5,-36.36 69.5,-26.15 69.5,-19.16"/>
<polygon fill="#8b1a1a" stroke="#8b1a1a" points="66,-45.9 69.5,-55.9 73,-45.9 66,-45.9"/>
</a>
</g>
</g>
</g>
</svg>
