<?xml version="1.0" encoding="UTF-8" standalone="no"?>
<!DOCTYPE svg PUBLIC "-//W3C//DTD SVG 1.1//EN"
 "http://www.w3.org/Graphics/SVG/1.1/DTD/svg11.dtd">
<!-- Generated by graphviz version 2.43.0 (0)
 -->
<!-- Title: symbol_table_buildert Pages: 1 -->
<svg width="1103pt" height="218pt"
 viewBox="0.00 0.00 1103.00 218.00" xmlns="http://www.w3.org/2000/svg" xmlns:xlink="http://www.w3.org/1999/xlink">
<g id="graph0" class="graph" transform="scale(1 1) rotate(0) translate(4 214)">
<title>symbol_table_buildert</title>
<!-- Node1 -->
<g id="Node000001" class="node">
<title>Node1</title>
<g id="a_Node000001"><a xlink:title="Author: Diffblue Ltd.">
<polygon fill="#999999" stroke="#666666" points="1095,-80.5 970,-80.5 970,-61.5 1095,-61.5 1095,-80.5"/>
<text text-anchor="middle" x="1032.5" y="-68.5" font-family="Helvetica,sans-Serif" font-size="10.00">symbol_table_buildert</text>
</a>
</g>
</g>
<!-- Node2 -->
<g id="Node000002" class="node">
<title>Node2</title>
<g id="a_Node000002"><a xlink:href="classsymbol__table__baset.html" target="_top" xlink:title="The symbol table base class interface.">
<polygon fill="white" stroke="#666666" points="836,-111.5 721,-111.5 721,-92.5 836,-92.5 836,-111.5"/>
<text text-anchor="middle" x="778.5" y="-99.5" font-family="Helvetica,sans-Serif" font-size="10.00">symbol_table_baset</text>
</a>
</g>
</g>
<!-- Node2&#45;&gt;Node1 -->
<g id="edge1_Node000001_Node000002" class="edge">
<title>Node2&#45;&gt;Node1</title>
<g id="a_edge1_Node000001_Node000002"><a xlink:title=" ">
<path fill="none" stroke="#63b8ff" d="M826.48,-90.19C835.56,-88.22 845.04,-86.37 854,-85 892.2,-79.17 935.41,-75.69 969.64,-73.66"/>
<polygon fill="#63b8ff" stroke="#63b8ff" points="825.42,-86.84 816.43,-92.45 826.96,-93.67 825.42,-86.84"/>
</a>
</g>
</g>
<!-- Node2&#45;&gt;Node1 -->
<g id="edge10_Node000001_Node000002" class="edge">
<title>Node2&#45;&gt;Node1</title>
<g id="a_edge10_Node000001_Node000002"><a xlink:title=" ">
<path fill="none" stroke="#9a32cd" stroke-dasharray="5,2" d="M846.38,-94.59C878.37,-90.96 917.19,-86.43 952,-82 957.81,-81.26 963.85,-80.47 969.89,-79.66"/>
<polygon fill="#9a32cd" stroke="#9a32cd" points="845.8,-91.14 836.25,-95.74 846.58,-98.09 845.8,-91.14"/>
</a>
</g>
<text text-anchor="middle" x="903" y="-96" font-family="Helvetica,sans-Serif" font-size="10.00" fill="grey"> base_symbol_table</text>
</g>
<!-- Node3 -->
<g id="Node000003" class="node">
<title>Node3</title>
<g id="a_Node000003"><a xlink:title=" ">
<polygon fill="white" stroke="#666666" points="309,-114 195,-114 195,-84 309,-84 309,-114"/>
<text text-anchor="start" x="203" y="-102" font-family="Helvetica,sans-Serif" font-size="10.00">std::unordered_map</text>
<text text-anchor="middle" x="252" y="-91" font-family="Helvetica,sans-Serif" font-size="10.00">&lt; K, T &gt;</text>
</a>
</g>
</g>
<!-- Node3&#45;&gt;Node2 -->
<g id="edge2_Node000002_Node000003" class="edge">
<title>Node3&#45;&gt;Node2</title>
<g id="a_edge2_Node000002_Node000003"><a xlink:title=" ">
<path fill="none" stroke="#9a32cd" stroke-dasharray="5,2" d="M319.2,-99.38C423.25,-99.97 623.27,-101.12 720.98,-101.68"/>
<polygon fill="#9a32cd" stroke="#9a32cd" points="319.15,-95.88 309.13,-99.32 319.11,-102.88 319.15,-95.88"/>
</a>
</g>
<text text-anchor="middle" x="518" y="-103" font-family="Helvetica,sans-Serif" font-size="10.00" fill="grey"> symbols</text>
</g>
<!-- Node4 -->
<g id="Node000004" class="node">
<title>Node4</title>
<g id="a_Node000004"><a xlink:title=" ">
<polygon fill="white" stroke="#666666" points="66.5,-93.5 37.5,-93.5 37.5,-74.5 66.5,-74.5 66.5,-93.5"/>
<text text-anchor="middle" x="52" y="-81.5" font-family="Helvetica,sans-Serif" font-size="10.00">K</text>
</a>
</g>
</g>
<!-- Node4&#45;&gt;Node3 -->
<g id="edge3_Node000003_Node000004" class="edge">
<title>Node4&#45;&gt;Node3</title>
<g id="a_edge3_Node000003_Node000004"><a xlink:title=" ">
<path fill="none" stroke="#9a32cd" stroke-dasharray="5,2" d="M77.08,-83.05C100.97,-82.37 138.59,-82.05 171,-85 178.72,-85.7 186.82,-86.75 194.77,-87.96"/>
<polygon fill="#9a32cd" stroke="#9a32cd" points="76.72,-79.56 66.84,-83.38 76.95,-86.55 76.72,-79.56"/>
</a>
</g>
<text text-anchor="middle" x="146.5" y="-88" font-family="Helvetica,sans-Serif" font-size="10.00" fill="grey"> keys</text>
</g>
<!-- Node8 -->
<g id="Node000008" class="node">
<title>Node8</title>
<g id="a_Node000008"><a xlink:title=" ">
<polygon fill="white" stroke="#666666" points="315,-197.5 189,-197.5 189,-178.5 315,-178.5 315,-197.5"/>
<text text-anchor="middle" x="252" y="-185.5" font-family="Helvetica,sans-Serif" font-size="10.00">std::multimap&lt; K, T &gt;</text>
</a>
</g>
</g>
<!-- Node4&#45;&gt;Node8 -->
<g id="edge8_Node000008_Node000004" class="edge">
<title>Node4&#45;&gt;Node8</title>
<g id="a_edge8_Node000008_Node000004"><a xlink:title=" ">
<path fill="none" stroke="#9a32cd" stroke-dasharray="5,2" d="M74.24,-99.63C87.57,-109.07 105.34,-120.97 122,-130 142.83,-141.29 149.95,-140.13 171,-151 179.33,-155.3 180.65,-157.73 189,-162 200.85,-168.06 214.44,-173.88 225.87,-178.47"/>
<polygon fill="#9a32cd" stroke="#9a32cd" points="75.95,-96.55 65.78,-93.56 71.86,-102.24 75.95,-96.55"/>
</a>
</g>
<text text-anchor="middle" x="146.5" y="-154" font-family="Helvetica,sans-Serif" font-size="10.00" fill="grey"> keys</text>
</g>
<!-- Node12 -->
<g id="Node000012" class="node">
<title>Node12</title>
<g id="a_Node000012"><a xlink:title=" ">
<polygon fill="white" stroke="#666666" points="302.5,-61.5 201.5,-61.5 201.5,-42.5 302.5,-42.5 302.5,-61.5"/>
<text text-anchor="middle" x="252" y="-49.5" font-family="Helvetica,sans-Serif" font-size="10.00">std::map&lt; K, T &gt;</text>
</a>
</g>
</g>
<!-- Node4&#45;&gt;Node12 -->
<g id="edge15_Node000012_Node000004" class="edge">
<title>Node4&#45;&gt;Node12</title>
<g id="a_edge15_Node000012_Node000004"><a xlink:title=" ">
<path fill="none" stroke="#9a32cd" stroke-dasharray="5,2" d="M76.39,-77.46C89.68,-73.94 106.67,-69.77 122,-67 148.07,-62.29 177.39,-58.75 201.47,-56.29"/>
<polygon fill="#9a32cd" stroke="#9a32cd" points="75.37,-74.11 66.64,-80.1 77.2,-80.87 75.37,-74.11"/>
</a>
</g>
<text text-anchor="middle" x="146.5" y="-70" font-family="Helvetica,sans-Serif" font-size="10.00" fill="grey"> keys</text>
</g>
<!-- Node5 -->
<g id="Node000005" class="node">
<title>Node5</title>
<g id="a_Node000005"><a xlink:title=" ">
<polygon fill="white" stroke="#666666" points="66.5,-195.5 37.5,-195.5 37.5,-176.5 66.5,-176.5 66.5,-195.5"/>
<text text-anchor="middle" x="52" y="-183.5" font-family="Helvetica,sans-Serif" font-size="10.00">T</text>
</a>
</g>
</g>
<!-- Node5&#45;&gt;Node3 -->
<g id="edge4_Node000003_Node000005" class="edge">
<title>Node5&#45;&gt;Node3</title>
<g id="a_edge4_Node000003_Node000005"><a xlink:title=" ">
<path fill="none" stroke="#9a32cd" stroke-dasharray="5,2" d="M76.67,-187.64C102.5,-188.17 143.8,-185.17 171,-164 186.07,-152.27 175.26,-138.26 189,-125 193.45,-120.7 198.72,-117.07 204.27,-114.01"/>
<polygon fill="#9a32cd" stroke="#9a32cd" points="76.76,-184.14 66.63,-187.24 76.48,-191.13 76.76,-184.14"/>
</a>
</g>
<text text-anchor="middle" x="146.5" y="-186" font-family="Helvetica,sans-Serif" font-size="10.00" fill="grey"> elements</text>
</g>
<!-- Node5&#45;&gt;Node8 -->
<g id="edge9_Node000008_Node000005" class="edge">
<title>Node5&#45;&gt;Node8</title>
<g id="a_edge9_Node000008_Node000005"><a xlink:title=" ">
<path fill="none" stroke="#9a32cd" stroke-dasharray="5,2" d="M76.82,-191.18C90.05,-193.8 106.86,-196.69 122,-198 143.82,-199.88 167.73,-198.88 188.98,-196.92"/>
<polygon fill="#9a32cd" stroke="#9a32cd" points="77.16,-187.68 66.66,-189.09 75.74,-194.54 77.16,-187.68"/>
</a>
</g>
<text text-anchor="middle" x="146.5" y="-202" font-family="Helvetica,sans-Serif" font-size="10.00" fill="grey"> elements</text>
</g>
<!-- Node5&#45;&gt;Node12 -->
<g id="edge16_Node000012_Node000005" class="edge">
<title>Node5&#45;&gt;Node12</title>
<g id="a_edge16_Node000012_Node000005"><a xlink:title=" ">
<path fill="none" stroke="#9a32cd" stroke-dasharray="5,2" d="M67.32,-168.28C80.31,-153.09 100.66,-131.45 122,-117 141.62,-103.72 151.9,-110.03 171,-96 180.91,-88.72 178.92,-82.03 189,-75 197.01,-69.42 206.53,-65.01 215.68,-61.61"/>
<polygon fill="#9a32cd" stroke="#9a32cd" points="64.28,-166.45 60.56,-176.37 69.66,-170.94 64.28,-166.45"/>
</a>
</g>
<text text-anchor="middle" x="146.5" y="-120" font-family="Helvetica,sans-Serif" font-size="10.00" fill="grey"> elements</text>
</g>
<!-- Node6 -->
<g id="Node000006" class="node">
<title>Node6</title>
<g id="a_Node000006"><a xlink:title=" ">
<polygon fill="white" stroke="#666666" points="575.5,-158 460.5,-158 460.5,-128 575.5,-128 575.5,-158"/>
<text text-anchor="start" x="468.5" y="-146" font-family="Helvetica,sans-Serif" font-size="10.00">std::multimap&lt; irep</text>
<text text-anchor="middle" x="518" y="-135" font-family="Helvetica,sans-Serif" font-size="10.00">_idt, irep_idt &gt;</text>
</a>
</g>
</g>
<!-- Node6&#45;&gt;Node2 -->
<g id="edge5_Node000002_Node000006" class="edge">
<title>Node6&#45;&gt;Node2</title>
<g id="a_edge5_Node000002_Node000006"><a xlink:title=" ">
<path fill="none" stroke="#9a32cd" stroke-dasharray="5,2" d="M585.84,-132.4C627.73,-125.76 681.12,-117.29 720.9,-110.98"/>
<polygon fill="#9a32cd" stroke="#9a32cd" points="585.06,-128.98 575.73,-134 586.15,-135.89 585.06,-128.98"/>
</a>
</g>
<text text-anchor="middle" x="650" y="-143" font-family="Helvetica,sans-Serif" font-size="10.00" fill="grey"> symbol_base_map</text>
<text text-anchor="middle" x="650" y="-132" font-family="Helvetica,sans-Serif" font-size="10.00" fill="grey">symbol_module_map</text>
</g>
<!-- Node7 -->
<g id="Node000007" class="node">
<title>Node7</title>
<g id="a_Node000007"><a xlink:href="classdstringt.html" target="_top" xlink:title="dstringt has one field, an unsigned integer no which is an index into a static table of strings.">
<polygon fill="white" stroke="#666666" points="279,-152.5 225,-152.5 225,-133.5 279,-133.5 279,-152.5"/>
<text text-anchor="middle" x="252" y="-140.5" font-family="Helvetica,sans-Serif" font-size="10.00">dstringt</text>
</a>
</g>
</g>
<!-- Node7&#45;&gt;Node6 -->
<g id="edge6_Node000006_Node000007" class="edge">
<title>Node7&#45;&gt;Node6</title>
<g id="a_edge6_Node000006_Node000007"><a xlink:title=" ">
<path fill="none" stroke="#9a32cd" stroke-dasharray="5,2" d="M289.28,-143C333.47,-143 408.63,-143 460.44,-143"/>
<polygon fill="#9a32cd" stroke="#9a32cd" points="289.28,-139.5 279.28,-143 289.28,-146.5 289.28,-139.5"/>
</a>
</g>
<text text-anchor="middle" x="386" y="-157" font-family="Helvetica,sans-Serif" font-size="10.00" fill="grey"> elements</text>
<text text-anchor="middle" x="386" y="-146" font-family="Helvetica,sans-Serif" font-size="10.00" fill="grey">keys</text>
</g>
<!-- Node8&#45;&gt;Node6 -->
<g id="edge7_Node000006_Node000008" class="edge">
<title>Node8&#45;&gt;Node6</title>
<g id="a_edge7_Node000006_Node000008"><a xlink:title=" ">
<path fill="none" stroke="orange" stroke-dasharray="5,2" d="M325.44,-182.3C360.04,-178.85 401.89,-173.61 439,-166 449.37,-163.87 460.36,-161.02 470.72,-158.04"/>
<polygon fill="orange" stroke="orange" points="325.04,-178.82 315.42,-183.27 325.71,-185.79 325.04,-178.82"/>
</a>
</g>
<text text-anchor="middle" x="386" y="-184" font-family="Helvetica,sans-Serif" font-size="10.00" fill="grey"> &lt; irep_idt, irep_idt &gt;</text>
</g>
<!-- Node9 -->
<g id="Node000009" class="node">
<title>Node9</title>
<g id="a_Node000009"><a xlink:title=" ">
<polygon fill="white" stroke="#666666" points="579,-61 457,-61 457,-31 579,-31 579,-61"/>
<text text-anchor="start" x="465" y="-49" font-family="Helvetica,sans-Serif" font-size="10.00">std::map&lt; std::string,</text>
<text text-anchor="middle" x="518" y="-38" font-family="Helvetica,sans-Serif" font-size="10.00"> std::size_t &gt;</text>
</a>
</g>
</g>
<!-- Node9&#45;&gt;Node1 -->
<g id="edge11_Node000001_Node000009" class="edge">
<title>Node9&#45;&gt;Node1</title>
<g id="a_edge11_Node000001_Node000009"><a xlink:title=" ">
<path fill="none" stroke="#9a32cd" stroke-dasharray="5,2" d="M589.12,-49.42C689.86,-54.33 873.91,-63.31 969.77,-67.99"/>
<polygon fill="#9a32cd" stroke="#9a32cd" points="589.2,-45.92 579.05,-48.93 588.86,-52.91 589.2,-45.92"/>
</a>
</g>
<text text-anchor="start" x="728" y="-75" font-family="Helvetica,sans-Serif" font-size="10.00" fill="grey"> next_free_suffix_for</text>
<text text-anchor="middle" x="778.5" y="-64" font-family="Helvetica,sans-Serif" font-size="10.00" fill="grey">_prefix</text>
</g>
<!-- Node10 -->
<g id="Node000010" class="node">
<title>Node10</title>
<g id="a_Node000010"><a xlink:title=" ">
<polygon fill="white" stroke="#666666" points="284.5,-24.5 219.5,-24.5 219.5,-5.5 284.5,-5.5 284.5,-24.5"/>
<text text-anchor="middle" x="252" y="-12.5" font-family="Helvetica,sans-Serif" font-size="10.00">std::string</text>
</a>
</g>
</g>
<!-- Node10&#45;&gt;Node9 -->
<g id="edge12_Node000009_Node000010" class="edge">
<title>Node10&#45;&gt;Node9</title>
<g id="a_edge12_Node000009_Node000010"><a xlink:title=" ">
<path fill="none" stroke="#9a32cd" stroke-dasharray="5,2" d="M294.81,-17.78C332.58,-20.54 389.65,-25.33 439,-32 444.73,-32.77 450.67,-33.67 456.61,-34.63"/>
<polygon fill="#9a32cd" stroke="#9a32cd" points="294.91,-14.28 284.69,-17.06 294.41,-21.26 294.91,-14.28"/>
</a>
</g>
<text text-anchor="middle" x="386" y="-35" font-family="Helvetica,sans-Serif" font-size="10.00" fill="grey"> keys</text>
</g>
<!-- Node11 -->
<g id="Node000011" class="node">
<title>Node11</title>
<g id="a_Node000011"><a xlink:title=" ">
<polygon fill="white" stroke="#666666" points="104,-30 0,-30 0,0 104,0 104,-30"/>
<text text-anchor="start" x="8" y="-18" font-family="Helvetica,sans-Serif" font-size="10.00">std::basic_string&lt;</text>
<text text-anchor="middle" x="52" y="-7" font-family="Helvetica,sans-Serif" font-size="10.00"> Char &gt;</text>
</a>
</g>
</g>
<!-- Node11&#45;&gt;Node10 -->
<g id="edge13_Node000010_Node000011" class="edge">
<title>Node11&#45;&gt;Node10</title>
<g id="a_edge13_Node000010_Node000011"><a xlink:title=" ">
<path fill="none" stroke="#63b8ff" d="M114.32,-15C149.14,-15 191.25,-15 219.45,-15"/>
<polygon fill="#63b8ff" stroke="#63b8ff" points="114.25,-11.5 104.25,-15 114.25,-18.5 114.25,-11.5"/>
</a>
</g>
</g>
<!-- Node12&#45;&gt;Node9 -->
<g id="edge14_Node000009_Node000012" class="edge">
<title>Node12&#45;&gt;Node9</title>
<g id="a_edge14_Node000009_Node000012"><a xlink:title=" ">
<path fill="none" stroke="orange" stroke-dasharray="5,2" d="M312.72,-50.64C355.81,-49.66 413.75,-48.35 456.92,-47.37"/>
<polygon fill="orange" stroke="orange" points="312.57,-47.15 302.66,-50.87 312.73,-54.14 312.57,-47.15"/>
</a>
</g>
<text text-anchor="start" x="343.5" y="-64" font-family="Helvetica,sans-Serif" font-size="10.00" fill="grey"> &lt; std::string, std</text>
<text text-anchor="middle" x="386" y="-53" font-family="Helvetica,sans-Serif" font-size="10.00" fill="grey">::size_t &gt;</text>
</g>
</g>
</svg>
