<?xml version="1.0" encoding="UTF-8" standalone="no"?>
<!DOCTYPE svg PUBLIC "-//W3C//DTD SVG 1.1//EN"
 "http://www.w3.org/Graphics/SVG/1.1/DTD/svg11.dtd">
<!-- Generated by graphviz version 2.43.0 (0)
 -->
<!-- Title: abstract_value_objectt Pages: 1 -->
<svg width="429pt" height="225pt"
 viewBox="0.00 0.00 428.50 225.00" xmlns="http://www.w3.org/2000/svg" xmlns:xlink="http://www.w3.org/1999/xlink">
<g id="graph0" class="graph" transform="scale(1 1) rotate(0) translate(4 221)">
<title>abstract_value_objectt</title>
<!-- Node1 -->
<g id="Node000001" class="node">
<title>Node1</title>
<g id="a_Node000001"><a xlink:title=" ">
<polygon fill="#999999" stroke="#666666" points="290,-85 162,-85 162,-66 290,-66 290,-85"/>
<text text-anchor="middle" x="226" y="-73" font-family="Helvetica,sans-Serif" font-size="10.00">abstract_value_objectt</text>
</a>
</g>
</g>
<!-- Node5 -->
<g id="Node000005" class="node">
<title>Node5</title>
<g id="a_Node000005"><a xlink:href="classconstant__abstract__valuet.html" target="_top" xlink:title=" ">
<polygon fill="white" stroke="#666666" points="140,-24.5 0,-24.5 0,-5.5 140,-5.5 140,-24.5"/>
<text text-anchor="middle" x="70" y="-12.5" font-family="Helvetica,sans-Serif" font-size="10.00">constant_abstract_valuet</text>
</a>
</g>
</g>
<!-- Node1&#45;&gt;Node5 -->
<g id="edge4_Node000001_Node000005" class="edge">
<title>Node1&#45;&gt;Node5</title>
<g id="a_edge4_Node000001_Node000005"><a xlink:title=" ">
<path fill="none" stroke="#63b8ff" d="M193.67,-62.38C163.52,-51.07 119.3,-34.49 92.71,-24.52"/>
<polygon fill="#63b8ff" stroke="#63b8ff" points="192.72,-65.76 203.32,-65.99 195.18,-59.21 192.72,-65.76"/>
</a>
</g>
</g>
<!-- Node6 -->
<g id="Node000006" class="node">
<title>Node6</title>
<g id="a_Node000006"><a xlink:href="classinterval__abstract__valuet.html" target="_top" xlink:title=" ">
<polygon fill="white" stroke="#666666" points="293.5,-24.5 158.5,-24.5 158.5,-5.5 293.5,-5.5 293.5,-24.5"/>
<text text-anchor="middle" x="226" y="-12.5" font-family="Helvetica,sans-Serif" font-size="10.00">interval_abstract_valuet</text>
</a>
</g>
</g>
<!-- Node1&#45;&gt;Node6 -->
<g id="edge5_Node000001_Node000006" class="edge">
<title>Node1&#45;&gt;Node6</title>
<g id="a_edge5_Node000001_Node000006"><a xlink:title=" ">
<path fill="none" stroke="#63b8ff" d="M226,-55.66C226,-45.24 226,-32.8 226,-24.67"/>
<polygon fill="#63b8ff" stroke="#63b8ff" points="222.5,-55.87 226,-65.87 229.5,-55.87 222.5,-55.87"/>
</a>
</g>
</g>
<!-- Node7 -->
<g id="Node000007" class="node">
<title>Node7</title>
<g id="a_Node000007"><a xlink:href="classvalue__set__abstract__objectt.html" target="_top" xlink:title=" ">
<polygon fill="white" stroke="#666666" points="420.5,-30 311.5,-30 311.5,0 420.5,0 420.5,-30"/>
<text text-anchor="start" x="319.5" y="-18" font-family="Helvetica,sans-Serif" font-size="10.00">value_set_abstract</text>
<text text-anchor="middle" x="366" y="-7" font-family="Helvetica,sans-Serif" font-size="10.00">_objectt</text>
</a>
</g>
</g>
<!-- Node1&#45;&gt;Node7 -->
<g id="edge6_Node000001_Node000007" class="edge">
<title>Node1&#45;&gt;Node7</title>
<g id="a_edge6_Node000001_Node000007"><a xlink:title=" ">
<path fill="none" stroke="#63b8ff" d="M255.72,-62.08C278.17,-52.7 308.99,-39.82 332.34,-30.06"/>
<polygon fill="#63b8ff" stroke="#63b8ff" points="254.23,-58.91 246.36,-65.99 256.93,-65.37 254.23,-58.91"/>
</a>
</g>
</g>
<!-- Node2 -->
<g id="Node000002" class="node">
<title>Node2</title>
<g id="a_Node000002"><a xlink:href="classabstract__objectt.html" target="_top" xlink:title=" ">
<polygon fill="white" stroke="#666666" points="213.5,-140 118.5,-140 118.5,-121 213.5,-121 213.5,-140"/>
<text text-anchor="middle" x="166" y="-128" font-family="Helvetica,sans-Serif" font-size="10.00">abstract_objectt</text>
</a>
</g>
</g>
<!-- Node2&#45;&gt;Node1 -->
<g id="edge1_Node000001_Node000002" class="edge">
<title>Node2&#45;&gt;Node1</title>
<g id="a_edge1_Node000001_Node000002"><a xlink:title=" ">
<path fill="none" stroke="#63b8ff" d="M183.18,-114.32C193.88,-104.87 207.26,-93.06 216.18,-85.17"/>
<polygon fill="#63b8ff" stroke="#63b8ff" points="180.82,-111.74 175.64,-120.98 185.45,-116.99 180.82,-111.74"/>
</a>
</g>
</g>
<!-- Node3 -->
<g id="Node000003" class="node">
<title>Node3</title>
<g id="a_Node000003"><a xlink:title=" ">
<polygon fill="white" stroke="#666666" points="225.5,-217 106.5,-217 106.5,-176 225.5,-176 225.5,-217"/>
<text text-anchor="start" x="114.5" y="-205" font-family="Helvetica,sans-Serif" font-size="10.00">std::enable_shared</text>
<text text-anchor="start" x="114.5" y="-194" font-family="Helvetica,sans-Serif" font-size="10.00">_from_this&lt; abstract</text>
<text text-anchor="middle" x="166" y="-183" font-family="Helvetica,sans-Serif" font-size="10.00">_objectt &gt;</text>
</a>
</g>
</g>
<!-- Node3&#45;&gt;Node2 -->
<g id="edge2_Node000002_Node000003" class="edge">
<title>Node3&#45;&gt;Node2</title>
<g id="a_edge2_Node000002_Node000003"><a xlink:title=" ">
<path fill="none" stroke="#63b8ff" d="M166,-165.74C166,-156.45 166,-146.9 166,-140.26"/>
<polygon fill="#63b8ff" stroke="#63b8ff" points="162.5,-165.95 166,-175.95 169.5,-165.95 162.5,-165.95"/>
</a>
</g>
</g>
<!-- Node4 -->
<g id="Node000004" class="node">
<title>Node4</title>
<g id="a_Node000004"><a xlink:href="classabstract__value__tag.html" target="_top" xlink:title=" ">
<polygon fill="white" stroke="#666666" points="342,-140 232,-140 232,-121 342,-121 342,-140"/>
<text text-anchor="middle" x="287" y="-128" font-family="Helvetica,sans-Serif" font-size="10.00">abstract_value_tag</text>
</a>
</g>
</g>
<!-- Node4&#45;&gt;Node1 -->
<g id="edge3_Node000001_Node000004" class="edge">
<title>Node4&#45;&gt;Node1</title>
<g id="a_edge3_Node000001_Node000004"><a xlink:title=" ">
<path fill="none" stroke="#63b8ff" d="M269.53,-114.32C258.66,-104.87 245.06,-93.06 235.98,-85.17"/>
<polygon fill="#63b8ff" stroke="#63b8ff" points="267.35,-117.07 277.2,-120.98 271.95,-111.78 267.35,-117.07"/>
</a>
</g>
</g>
</g>
</svg>
