<?xml version="1.0" encoding="UTF-8" standalone="no"?>
<!DOCTYPE svg PUBLIC "-//W3C//DTD SVG 1.1//EN"
 "http://www.w3.org/Graphics/SVG/1.1/DTD/svg11.dtd">
<!-- Generated by graphviz version 2.43.0 (0)
 -->
<!-- Title: onehot0_exprt Pages: 1 -->
<svg width="134pt" height="379pt"
 viewBox="0.00 0.00 134.00 379.00" xmlns="http://www.w3.org/2000/svg" xmlns:xlink="http://www.w3.org/1999/xlink">
<g id="graph0" class="graph" transform="scale(1 1) rotate(0) translate(4 375)">
<title>onehot0_exprt</title>
<!-- Node1 -->
<g id="Node000001" class="node">
<title>Node1</title>
<g id="a_Node000001"><a xlink:title="A Boolean expression returning true iff the given operand consists of exactly one &#39;0&#39; and &#39;1&#39; otherwi...">
<polygon fill="#999999" stroke="#666666" points="106.5,-19 19.5,-19 19.5,0 106.5,0 106.5,-19"/>
<text text-anchor="middle" x="63" y="-7" font-family="Helvetica,sans-Serif" font-size="10.00">onehot0_exprt</text>
</a>
</g>
</g>
<!-- Node2 -->
<g id="Node000002" class="node">
<title>Node2</title>
<g id="a_Node000002"><a xlink:href="classunary__predicate__exprt.html" target="_top" xlink:title="A base class for expressions that are predicates, i.e., Boolean&#45;typed, and that take exactly one argu...">
<polygon fill="white" stroke="#666666" points="126,-74 0,-74 0,-55 126,-55 126,-74"/>
<text text-anchor="middle" x="63" y="-62" font-family="Helvetica,sans-Serif" font-size="10.00">unary_predicate_exprt</text>
</a>
</g>
</g>
<!-- Node2&#45;&gt;Node1 -->
<g id="edge1_Node000001_Node000002" class="edge">
<title>Node2&#45;&gt;Node1</title>
<g id="a_edge1_Node000001_Node000002"><a xlink:title=" ">
<path fill="none" stroke="#63b8ff" d="M63,-44.66C63,-35.93 63,-25.99 63,-19.09"/>
<polygon fill="#63b8ff" stroke="#63b8ff" points="59.5,-44.75 63,-54.75 66.5,-44.75 59.5,-44.75"/>
</a>
</g>
</g>
<!-- Node3 -->
<g id="Node000003" class="node">
<title>Node3</title>
<g id="a_Node000003"><a xlink:href="classunary__exprt.html" target="_top" xlink:title="Generic base class for unary expressions.">
<polygon fill="white" stroke="#666666" points="100.5,-129 25.5,-129 25.5,-110 100.5,-110 100.5,-129"/>
<text text-anchor="middle" x="63" y="-117" font-family="Helvetica,sans-Serif" font-size="10.00">unary_exprt</text>
</a>
</g>
</g>
<!-- Node3&#45;&gt;Node2 -->
<g id="edge2_Node000002_Node000003" class="edge">
<title>Node3&#45;&gt;Node2</title>
<g id="a_edge2_Node000002_Node000003"><a xlink:title=" ">
<path fill="none" stroke="#63b8ff" d="M63,-99.66C63,-90.93 63,-80.99 63,-74.09"/>
<polygon fill="#63b8ff" stroke="#63b8ff" points="59.5,-99.75 63,-109.75 66.5,-99.75 59.5,-99.75"/>
</a>
</g>
</g>
<!-- Node4 -->
<g id="Node000004" class="node">
<title>Node4</title>
<g id="a_Node000004"><a xlink:href="classexpr__protectedt.html" target="_top" xlink:title="Base class for all expressions.">
<polygon fill="white" stroke="#666666" points="110,-184 16,-184 16,-165 110,-165 110,-184"/>
<text text-anchor="middle" x="63" y="-172" font-family="Helvetica,sans-Serif" font-size="10.00">expr_protectedt</text>
</a>
</g>
</g>
<!-- Node4&#45;&gt;Node3 -->
<g id="edge3_Node000003_Node000004" class="edge">
<title>Node4&#45;&gt;Node3</title>
<g id="a_edge3_Node000003_Node000004"><a xlink:title=" ">
<path fill="none" stroke="#63b8ff" d="M63,-154.66C63,-145.93 63,-135.99 63,-129.09"/>
<polygon fill="#63b8ff" stroke="#63b8ff" points="59.5,-154.75 63,-164.75 66.5,-154.75 59.5,-154.75"/>
</a>
</g>
</g>
<!-- Node5 -->
<g id="Node000005" class="node">
<title>Node5</title>
<g id="a_Node000005"><a xlink:href="classexprt.html" target="_top" xlink:title="Base class for all expressions.">
<polygon fill="white" stroke="#666666" points="84,-239 42,-239 42,-220 84,-220 84,-239"/>
<text text-anchor="middle" x="63" y="-227" font-family="Helvetica,sans-Serif" font-size="10.00">exprt</text>
</a>
</g>
</g>
<!-- Node5&#45;&gt;Node4 -->
<g id="edge4_Node000004_Node000005" class="edge">
<title>Node5&#45;&gt;Node4</title>
<g id="a_edge4_Node000004_Node000005"><a xlink:title=" ">
<path fill="none" stroke="#63b8ff" d="M63,-209.66C63,-200.93 63,-190.99 63,-184.09"/>
<polygon fill="#63b8ff" stroke="#63b8ff" points="59.5,-209.75 63,-219.75 66.5,-209.75 59.5,-209.75"/>
</a>
</g>
</g>
<!-- Node6 -->
<g id="Node000006" class="node">
<title>Node6</title>
<g id="a_Node000006"><a xlink:href="classirept.html" target="_top" xlink:title="There are a large number of kinds of tree structured or tree&#45;like data in CPROVER.">
<polygon fill="white" stroke="#666666" points="82.5,-294 43.5,-294 43.5,-275 82.5,-275 82.5,-294"/>
<text text-anchor="middle" x="63" y="-282" font-family="Helvetica,sans-Serif" font-size="10.00">irept</text>
</a>
</g>
</g>
<!-- Node6&#45;&gt;Node5 -->
<g id="edge5_Node000005_Node000006" class="edge">
<title>Node6&#45;&gt;Node5</title>
<g id="a_edge5_Node000005_Node000006"><a xlink:title=" ">
<path fill="none" stroke="#63b8ff" d="M63,-264.66C63,-255.93 63,-245.99 63,-239.09"/>
<polygon fill="#63b8ff" stroke="#63b8ff" points="59.5,-264.75 63,-274.75 66.5,-264.75 59.5,-264.75"/>
</a>
</g>
</g>
<!-- Node7 -->
<g id="Node000007" class="node">
<title>Node7</title>
<g id="a_Node000007"><a xlink:href="classsharing__treet.html" target="_top" xlink:title=" ">
<polygon fill="#fff0f0" stroke="red" points="125.5,-371 0.5,-371 0.5,-330 125.5,-330 125.5,-371"/>
<text text-anchor="start" x="8.5" y="-359" font-family="Helvetica,sans-Serif" font-size="10.00">sharing_treet&lt; irept,</text>
<text text-anchor="start" x="8.5" y="-348" font-family="Helvetica,sans-Serif" font-size="10.00"> forward_list_as_mapt</text>
<text text-anchor="middle" x="63" y="-337" font-family="Helvetica,sans-Serif" font-size="10.00">&lt; irep_idt, irept &gt; &gt;</text>
</a>
</g>
</g>
<!-- Node7&#45;&gt;Node6 -->
<g id="edge6_Node000006_Node000007" class="edge">
<title>Node7&#45;&gt;Node6</title>
<g id="a_edge6_Node000006_Node000007"><a xlink:title=" ">
<path fill="none" stroke="#63b8ff" d="M63,-319.74C63,-310.45 63,-300.9 63,-294.26"/>
<polygon fill="#63b8ff" stroke="#63b8ff" points="59.5,-319.95 63,-329.95 66.5,-319.95 59.5,-319.95"/>
</a>
</g>
</g>
</g>
</svg>
