<?xml version="1.0" encoding="UTF-8" standalone="no"?>
<!DOCTYPE svg PUBLIC "-//W3C//DTD SVG 1.1//EN"
 "http://www.w3.org/Graphics/SVG/1.1/DTD/svg11.dtd">
<!-- Generated by graphviz version 2.43.0 (0)
 -->
<!-- Title: local_cfgt Pages: 1 -->
<svg width="714pt" height="134pt"
 viewBox="0.00 0.00 714.00 133.50" xmlns="http://www.w3.org/2000/svg" xmlns:xlink="http://www.w3.org/1999/xlink">
<g id="graph0" class="graph" transform="scale(1 1) rotate(0) translate(4 129.5)">
<title>local_cfgt</title>
<!-- Node1 -->
<g id="Node000001" class="node">
<title>Node1</title>
<g id="a_Node000001"><a xlink:title=" ">
<polygon fill="#999999" stroke="#666666" points="706,-48 642,-48 642,-29 706,-29 706,-48"/>
<text text-anchor="middle" x="674" y="-36" font-family="Helvetica,sans-Serif" font-size="10.00">local_cfgt</text>
</a>
</g>
</g>
<!-- Node2 -->
<g id="Node000002" class="node">
<title>Node2</title>
<g id="a_Node000002"><a xlink:title=" ">
<polygon fill="white" stroke="#666666" points="561,-89.5 412,-89.5 412,-37.5 561,-37.5 561,-89.5"/>
<text text-anchor="start" x="420" y="-77.5" font-family="Helvetica,sans-Serif" font-size="10.00">std::map&lt; goto_programt</text>
<text text-anchor="start" x="420" y="-66.5" font-family="Helvetica,sans-Serif" font-size="10.00">::const_targett, node</text>
<text text-anchor="start" x="420" y="-55.5" font-family="Helvetica,sans-Serif" font-size="10.00">_nrt, goto_programt::target</text>
<text text-anchor="middle" x="486.5" y="-44.5" font-family="Helvetica,sans-Serif" font-size="10.00">_less_than &gt;</text>
</a>
</g>
</g>
<!-- Node2&#45;&gt;Node1 -->
<g id="edge1_Node000001_Node000002" class="edge">
<title>Node2&#45;&gt;Node1</title>
<g id="a_edge1_Node000001_Node000002"><a xlink:title=" ">
<path fill="none" stroke="#9a32cd" stroke-dasharray="5,2" d="M571.05,-52.24C596.25,-48.84 622.37,-45.32 641.86,-42.7"/>
<polygon fill="#9a32cd" stroke="#9a32cd" points="570.52,-48.78 561.08,-53.58 571.46,-55.72 570.52,-48.78"/>
</a>
</g>
<text text-anchor="middle" x="601.5" y="-54.5" font-family="Helvetica,sans-Serif" font-size="10.00" fill="grey"> loc_map</text>
</g>
<!-- Node3 -->
<g id="Node000003" class="node">
<title>Node3</title>
<g id="a_Node000003"><a xlink:title=" ">
<polygon fill="white" stroke="#666666" points="227,-125.5 114,-125.5 114,-95.5 227,-95.5 227,-125.5"/>
<text text-anchor="start" x="122" y="-113.5" font-family="Helvetica,sans-Serif" font-size="10.00">std::list&lt; T &gt;::const</text>
<text text-anchor="middle" x="170.5" y="-102.5" font-family="Helvetica,sans-Serif" font-size="10.00">_iterator</text>
</a>
</g>
</g>
<!-- Node3&#45;&gt;Node2 -->
<g id="edge2_Node000002_Node000003" class="edge">
<title>Node3&#45;&gt;Node2</title>
<g id="a_edge2_Node000002_Node000003"><a xlink:title=" ">
<path fill="none" stroke="#9a32cd" stroke-dasharray="5,2" d="M237.29,-106.91C281.8,-103.77 341.77,-98.15 394,-88.5 399.83,-87.42 405.83,-86.16 411.84,-84.77"/>
<polygon fill="#9a32cd" stroke="#9a32cd" points="236.92,-103.43 227.18,-107.6 237.4,-110.41 236.92,-103.43"/>
</a>
</g>
<text text-anchor="middle" x="319.5" y="-108.5" font-family="Helvetica,sans-Serif" font-size="10.00" fill="grey"> keys</text>
</g>
<!-- Node4 -->
<g id="Node000004" class="node">
<title>Node4</title>
<g id="a_Node000004"><a xlink:title=" ">
<polygon fill="white" stroke="#666666" points="221,-64 120,-64 120,-45 221,-45 221,-64"/>
<text text-anchor="middle" x="170.5" y="-52" font-family="Helvetica,sans-Serif" font-size="10.00">std::map&lt; K, T &gt;</text>
</a>
</g>
</g>
<!-- Node4&#45;&gt;Node2 -->
<g id="edge3_Node000002_Node000004" class="edge">
<title>Node4&#45;&gt;Node2</title>
<g id="a_edge3_Node000002_Node000004"><a xlink:title=" ">
<path fill="none" stroke="orange" stroke-dasharray="5,2" d="M231.15,-53.43C275.97,-52.95 338.87,-52.97 394,-55.5 399.73,-55.76 405.67,-56.11 411.62,-56.51"/>
<polygon fill="orange" stroke="orange" points="230.98,-49.93 221.02,-53.55 231.06,-56.93 230.98,-49.93"/>
</a>
</g>
<text text-anchor="start" x="245" y="-80.5" font-family="Helvetica,sans-Serif" font-size="10.00" fill="grey"> &lt; goto_programt::const</text>
<text text-anchor="start" x="245" y="-69.5" font-family="Helvetica,sans-Serif" font-size="10.00" fill="grey">_targett, node_nrt, goto</text>
<text text-anchor="middle" x="319.5" y="-58.5" font-family="Helvetica,sans-Serif" font-size="10.00" fill="grey">_programt::target_less_than &gt;</text>
</g>
<!-- Node5 -->
<g id="Node000005" class="node">
<title>Node5</title>
<g id="a_Node000005"><a xlink:title=" ">
<polygon fill="white" stroke="#666666" points="29,-87 0,-87 0,-68 29,-68 29,-87"/>
<text text-anchor="middle" x="14.5" y="-75" font-family="Helvetica,sans-Serif" font-size="10.00">K</text>
</a>
</g>
</g>
<!-- Node5&#45;&gt;Node4 -->
<g id="edge4_Node000004_Node000005" class="edge">
<title>Node5&#45;&gt;Node4</title>
<g id="a_edge4_Node000004_Node000005"><a xlink:title=" ">
<path fill="none" stroke="#9a32cd" stroke-dasharray="5,2" d="M39.29,-73.95C60.69,-70.75 92.81,-65.95 119.8,-61.92"/>
<polygon fill="#9a32cd" stroke="#9a32cd" points="38.54,-70.52 29.17,-75.46 39.57,-77.44 38.54,-70.52"/>
</a>
</g>
<text text-anchor="middle" x="71.5" y="-75.5" font-family="Helvetica,sans-Serif" font-size="10.00" fill="grey"> keys</text>
</g>
<!-- Node6 -->
<g id="Node000006" class="node">
<title>Node6</title>
<g id="a_Node000006"><a xlink:title=" ">
<polygon fill="white" stroke="#666666" points="29,-35 0,-35 0,-16 29,-16 29,-35"/>
<text text-anchor="middle" x="14.5" y="-23" font-family="Helvetica,sans-Serif" font-size="10.00">T</text>
</a>
</g>
</g>
<!-- Node6&#45;&gt;Node4 -->
<g id="edge5_Node000004_Node000006" class="edge">
<title>Node6&#45;&gt;Node4</title>
<g id="a_edge5_Node000004_Node000006"><a xlink:title=" ">
<path fill="none" stroke="#9a32cd" stroke-dasharray="5,2" d="M39,-29.93C60.4,-33.95 92.69,-40.04 119.8,-45.14"/>
<polygon fill="#9a32cd" stroke="#9a32cd" points="39.64,-26.48 29.17,-28.07 38.35,-33.36 39.64,-26.48"/>
</a>
</g>
<text text-anchor="middle" x="71.5" y="-43.5" font-family="Helvetica,sans-Serif" font-size="10.00" fill="grey"> elements</text>
</g>
<!-- Node8 -->
<g id="Node000008" class="node">
<title>Node8</title>
<g id="a_Node000008"><a xlink:title=" ">
<polygon fill="white" stroke="#666666" points="219,-19 122,-19 122,0 219,0 219,-19"/>
<text text-anchor="middle" x="170.5" y="-7" font-family="Helvetica,sans-Serif" font-size="10.00">std::vector&lt; T &gt;</text>
</a>
</g>
</g>
<!-- Node6&#45;&gt;Node8 -->
<g id="edge8_Node000008_Node000006" class="edge">
<title>Node6&#45;&gt;Node8</title>
<g id="a_edge8_Node000008_Node000006"><a xlink:title=" ">
<path fill="none" stroke="#9a32cd" stroke-dasharray="5,2" d="M38.35,-13.23C41.2,-12.12 44.12,-11.16 47,-10.5 71.25,-4.92 98.92,-4.23 121.82,-5.13"/>
<polygon fill="#9a32cd" stroke="#9a32cd" points="36.79,-10.09 29.14,-17.41 39.69,-16.46 36.79,-10.09"/>
</a>
</g>
<text text-anchor="middle" x="71.5" y="-13.5" font-family="Helvetica,sans-Serif" font-size="10.00" fill="grey"> elements</text>
</g>
<!-- Node7 -->
<g id="Node000007" class="node">
<title>Node7</title>
<g id="a_Node000007"><a xlink:title=" ">
<polygon fill="white" stroke="#666666" points="546,-19 427,-19 427,0 546,0 546,-19"/>
<text text-anchor="middle" x="486.5" y="-7" font-family="Helvetica,sans-Serif" font-size="10.00">std::vector&lt; nodet &gt;</text>
</a>
</g>
</g>
<!-- Node7&#45;&gt;Node1 -->
<g id="edge6_Node000001_Node000007" class="edge">
<title>Node7&#45;&gt;Node1</title>
<g id="a_edge6_Node000001_Node000007"><a xlink:title=" ">
<path fill="none" stroke="#9a32cd" stroke-dasharray="5,2" d="M556.4,-19.97C578.04,-23.3 602.02,-27.02 624,-30.5 629.79,-31.42 635.96,-32.41 641.9,-33.38"/>
<polygon fill="#9a32cd" stroke="#9a32cd" points="556.72,-16.48 546.31,-18.43 555.66,-23.4 556.72,-16.48"/>
</a>
</g>
<text text-anchor="middle" x="601.5" y="-33.5" font-family="Helvetica,sans-Serif" font-size="10.00" fill="grey"> nodes</text>
</g>
<!-- Node8&#45;&gt;Node7 -->
<g id="edge7_Node000007_Node000008" class="edge">
<title>Node8&#45;&gt;Node7</title>
<g id="a_edge7_Node000007_Node000008"><a xlink:title=" ">
<path fill="none" stroke="orange" stroke-dasharray="5,2" d="M229.34,-9.5C285.54,-9.5 370.45,-9.5 426.91,-9.5"/>
<polygon fill="orange" stroke="orange" points="229.19,-6 219.19,-9.5 229.19,-13 229.19,-6"/>
</a>
</g>
<text text-anchor="middle" x="319.5" y="-12.5" font-family="Helvetica,sans-Serif" font-size="10.00" fill="grey"> &lt; nodet &gt;</text>
</g>
</g>
</svg>
