<?xml version="1.0" encoding="UTF-8" standalone="no"?>
<!DOCTYPE svg PUBLIC "-//W3C//DTD SVG 1.1//EN"
 "http://www.w3.org/Graphics/SVG/1.1/DTD/svg11.dtd">
<!-- Generated by graphviz version 2.43.0 (0)
 -->
<!-- Title: cpp_usingt Pages: 1 -->
<svg width="223pt" height="249pt"
 viewBox="0.00 0.00 223.00 249.00" xmlns="http://www.w3.org/2000/svg" xmlns:xlink="http://www.w3.org/1999/xlink">
<g id="graph0" class="graph" transform="scale(1 1) rotate(0) translate(4 245)">
<title>cpp_usingt</title>
<!-- Node1 -->
<g id="Node000001" class="node">
<title>Node1</title>
<g id="a_Node000001"><a xlink:title=" ">
<polygon fill="#999999" stroke="#666666" points="102.5,-19 33.5,-19 33.5,0 102.5,0 102.5,-19"/>
<text text-anchor="middle" x="68" y="-7" font-family="Helvetica,sans-Serif" font-size="10.00">cpp_usingt</text>
</a>
</g>
</g>
<!-- Node2 -->
<g id="Node000002" class="node">
<title>Node2</title>
<g id="a_Node000002"><a xlink:href="classirept.html" target="_top" xlink:title="There are a large number of kinds of tree structured or tree&#45;like data in CPROVER.">
<polygon fill="white" stroke="#666666" points="87.5,-75 48.5,-75 48.5,-56 87.5,-56 87.5,-75"/>
<text text-anchor="middle" x="68" y="-63" font-family="Helvetica,sans-Serif" font-size="10.00">irept</text>
</a>
</g>
</g>
<!-- Node2&#45;&gt;Node1 -->
<g id="edge1_Node000001_Node000002" class="edge">
<title>Node2&#45;&gt;Node1</title>
<g id="a_edge1_Node000001_Node000002"><a xlink:title=" ">
<path fill="none" stroke="#63b8ff" d="M68,-45.3C68,-36.41 68,-26.28 68,-19.25"/>
<polygon fill="#63b8ff" stroke="#63b8ff" points="64.5,-45.58 68,-55.58 71.5,-45.58 64.5,-45.58"/>
</a>
</g>
</g>
<!-- Node3 -->
<g id="Node000003" class="node">
<title>Node3</title>
<g id="a_Node000003"><a xlink:href="classsharing__treet.html" target="_top" xlink:title=" ">
<polygon fill="white" stroke="#666666" points="130.5,-153 5.5,-153 5.5,-112 130.5,-112 130.5,-153"/>
<text text-anchor="start" x="13.5" y="-141" font-family="Helvetica,sans-Serif" font-size="10.00">sharing_treet&lt; irept,</text>
<text text-anchor="start" x="13.5" y="-130" font-family="Helvetica,sans-Serif" font-size="10.00"> forward_list_as_mapt</text>
<text text-anchor="middle" x="68" y="-119" font-family="Helvetica,sans-Serif" font-size="10.00">&lt; irep_idt, irept &gt; &gt;</text>
</a>
</g>
</g>
<!-- Node3&#45;&gt;Node2 -->
<g id="edge2_Node000002_Node000003" class="edge">
<title>Node3&#45;&gt;Node2</title>
<g id="a_edge2_Node000002_Node000003"><a xlink:title=" ">
<path fill="none" stroke="#63b8ff" d="M68,-101.76C68,-92.06 68,-82.02 68,-75.15"/>
<polygon fill="#63b8ff" stroke="#63b8ff" points="64.5,-102 68,-112 71.5,-102 64.5,-102"/>
</a>
</g>
</g>
<!-- Node4 -->
<g id="Node000004" class="node">
<title>Node4</title>
<g id="a_Node000004"><a xlink:href="classsharing__treet.html" target="_top" xlink:title="Base class for tree&#45;like data structures with sharing.">
<polygon fill="white" stroke="#666666" points="136,-241 0,-241 0,-211 136,-211 136,-241"/>
<text text-anchor="start" x="8" y="-229" font-family="Helvetica,sans-Serif" font-size="10.00">sharing_treet&lt; derivedt,</text>
<text text-anchor="middle" x="68" y="-218" font-family="Helvetica,sans-Serif" font-size="10.00"> named_subtreest &gt;</text>
</a>
</g>
</g>
<!-- Node4&#45;&gt;Node3 -->
<g id="edge3_Node000003_Node000004" class="edge">
<title>Node4&#45;&gt;Node3</title>
<g id="a_edge3_Node000003_Node000004"><a xlink:title=" ">
<path fill="none" stroke="orange" stroke-dasharray="5,2" d="M68,-200.69C68,-185.82 68,-167.05 68,-153.13"/>
<polygon fill="orange" stroke="orange" points="64.5,-200.7 68,-210.7 71.5,-200.7 64.5,-200.7"/>
</a>
</g>
<text text-anchor="start" x="68" y="-185" font-family="Helvetica,sans-Serif" font-size="10.00" fill="grey"> &lt; irept, forward_list</text>
<text text-anchor="middle" x="141.5" y="-174" font-family="Helvetica,sans-Serif" font-size="10.00" fill="grey">_as_mapt&lt; irep_idt, irept &gt; &gt;</text>
</g>
</g>
</svg>
