<?xml version="1.0" encoding="UTF-8" standalone="no"?>
<!DOCTYPE svg PUBLIC "-//W3C//DTD SVG 1.1//EN"
 "http://www.w3.org/Graphics/SVG/1.1/DTD/svg11.dtd">
<!-- Generated by graphviz version 2.43.0 (0)
 -->
<!-- Title: guarded_range_domaint Pages: 1 -->
<svg width="365pt" height="269pt"
 viewBox="0.00 0.00 364.50 269.00" xmlns="http://www.w3.org/2000/svg" xmlns:xlink="http://www.w3.org/1999/xlink">
<g id="graph0" class="graph" transform="scale(1 1) rotate(0) translate(4 265)">
<title>guarded_range_domaint</title>
<!-- Node1 -->
<g id="Node000001" class="node">
<title>Node1</title>
<g id="a_Node000001"><a xlink:title=" ">
<polygon fill="#999999" stroke="#666666" points="171,-19 36,-19 36,0 171,0 171,-19"/>
<text text-anchor="middle" x="103.5" y="-7" font-family="Helvetica,sans-Serif" font-size="10.00">guarded_range_domaint</text>
</a>
</g>
</g>
<!-- Node2 -->
<g id="Node000002" class="node">
<title>Node2</title>
<g id="a_Node000002"><a xlink:href="classrange__domain__baset.html" target="_top" xlink:title=" ">
<polygon fill="white" stroke="#666666" points="119,-96 0,-96 0,-77 119,-77 119,-96"/>
<text text-anchor="middle" x="59.5" y="-84" font-family="Helvetica,sans-Serif" font-size="10.00">range_domain_baset</text>
</a>
</g>
</g>
<!-- Node2&#45;&gt;Node1 -->
<g id="edge1_Node000001_Node000002" class="edge">
<title>Node2&#45;&gt;Node1</title>
<g id="a_edge1_Node000001_Node000002"><a xlink:title=" ">
<path fill="none" stroke="#63b8ff" d="M69.85,-67.86C78.88,-52.47 91.58,-30.82 98.51,-19"/>
<polygon fill="#63b8ff" stroke="#63b8ff" points="66.59,-66.5 64.55,-76.9 72.63,-70.04 66.59,-66.5"/>
</a>
</g>
</g>
<!-- Node3 -->
<g id="Node000003" class="node">
<title>Node3</title>
<g id="a_Node000003"><a xlink:title=" ">
<polygon fill="white" stroke="#666666" points="270,-107 137,-107 137,-66 270,-66 270,-107"/>
<text text-anchor="start" x="145" y="-95" font-family="Helvetica,sans-Serif" font-size="10.00">std::multimap&lt; range</text>
<text text-anchor="start" x="145" y="-84" font-family="Helvetica,sans-Serif" font-size="10.00">_spect, std::pair&lt; range</text>
<text text-anchor="middle" x="203.5" y="-73" font-family="Helvetica,sans-Serif" font-size="10.00">_spect, exprt &gt; &gt;</text>
</a>
</g>
</g>
<!-- Node3&#45;&gt;Node1 -->
<g id="edge2_Node000001_Node000003" class="edge">
<title>Node3&#45;&gt;Node1</title>
<g id="a_edge2_Node000001_Node000003"><a xlink:title=" ">
<path fill="none" stroke="#9a32cd" stroke-dasharray="5,2" d="M169.35,-59.89C150.44,-45.7 128.14,-28.98 114.95,-19.09"/>
<polygon fill="#9a32cd" stroke="#9a32cd" points="167.39,-62.79 177.49,-65.99 171.59,-57.19 167.39,-62.79"/>
</a>
</g>
<text text-anchor="middle" x="166" y="-40" font-family="Helvetica,sans-Serif" font-size="10.00" fill="grey"> data</text>
</g>
<!-- Node4 -->
<g id="Node000004" class="node">
<title>Node4</title>
<g id="a_Node000004"><a xlink:href="classrange__spect.html" target="_top" xlink:title="Data type to describe upper and lower bounds of the range of bits that a read or write access may aff...">
<polygon fill="white" stroke="#666666" points="199.5,-195 123.5,-195 123.5,-176 199.5,-176 199.5,-195"/>
<text text-anchor="middle" x="161.5" y="-183" font-family="Helvetica,sans-Serif" font-size="10.00">range_spect</text>
</a>
</g>
</g>
<!-- Node4&#45;&gt;Node3 -->
<g id="edge3_Node000003_Node000004" class="edge">
<title>Node4&#45;&gt;Node3</title>
<g id="a_edge3_Node000003_Node000004"><a xlink:title=" ">
<path fill="none" stroke="#9a32cd" stroke-dasharray="5,2" d="M169.23,-166.64C176.52,-149.82 187.4,-124.68 194.94,-107.27"/>
<polygon fill="#9a32cd" stroke="#9a32cd" points="165.99,-165.32 165.23,-175.89 172.41,-168.11 165.99,-165.32"/>
</a>
</g>
<text text-anchor="middle" x="199.5" y="-139" font-family="Helvetica,sans-Serif" font-size="10.00" fill="grey"> keys</text>
</g>
<!-- Node5 -->
<g id="Node000005" class="node">
<title>Node5</title>
<g id="a_Node000005"><a xlink:title=" ">
<polygon fill="white" stroke="#666666" points="343.5,-195 217.5,-195 217.5,-176 343.5,-176 343.5,-195"/>
<text text-anchor="middle" x="280.5" y="-183" font-family="Helvetica,sans-Serif" font-size="10.00">std::multimap&lt; K, T &gt;</text>
</a>
</g>
</g>
<!-- Node5&#45;&gt;Node3 -->
<g id="edge4_Node000003_Node000005" class="edge">
<title>Node5&#45;&gt;Node3</title>
<g id="a_edge4_Node000003_Node000005"><a xlink:title=" ">
<path fill="none" stroke="orange" stroke-dasharray="5,2" d="M267.44,-168.05C254.11,-151.25 233.41,-125.17 219.19,-107.27"/>
<polygon fill="orange" stroke="orange" points="264.71,-170.24 273.67,-175.89 270.19,-165.88 264.71,-170.24"/>
</a>
</g>
<text text-anchor="start" x="257.5" y="-150" font-family="Helvetica,sans-Serif" font-size="10.00" fill="grey"> &lt; range_spect, std</text>
<text text-anchor="start" x="257.5" y="-139" font-family="Helvetica,sans-Serif" font-size="10.00" fill="grey">::pair&lt; range_spect,</text>
<text text-anchor="middle" x="307" y="-128" font-family="Helvetica,sans-Serif" font-size="10.00" fill="grey"> exprt &gt; &gt;</text>
</g>
<!-- Node6 -->
<g id="Node000006" class="node">
<title>Node6</title>
<g id="a_Node000006"><a xlink:title=" ">
<polygon fill="white" stroke="#666666" points="270,-261 241,-261 241,-242 270,-242 270,-261"/>
<text text-anchor="middle" x="255.5" y="-249" font-family="Helvetica,sans-Serif" font-size="10.00">K</text>
</a>
</g>
</g>
<!-- Node6&#45;&gt;Node5 -->
<g id="edge5_Node000005_Node000006" class="edge">
<title>Node6&#45;&gt;Node5</title>
<g id="a_edge5_Node000005_Node000006"><a xlink:title=" ">
<path fill="none" stroke="#9a32cd" stroke-dasharray="5,2" d="M256.11,-231.75C256.8,-225.6 258.1,-218.85 260.5,-213 263.21,-206.39 267.99,-199.96 272.2,-195.1"/>
<polygon fill="#9a32cd" stroke="#9a32cd" points="252.61,-231.63 255.42,-241.84 259.59,-232.1 252.61,-231.63"/>
</a>
</g>
<text text-anchor="middle" x="273.5" y="-216" font-family="Helvetica,sans-Serif" font-size="10.00" fill="grey"> keys</text>
</g>
<!-- Node7 -->
<g id="Node000007" class="node">
<title>Node7</title>
<g id="a_Node000007"><a xlink:title=" ">
<polygon fill="white" stroke="#666666" points="319,-261 290,-261 290,-242 319,-242 319,-261"/>
<text text-anchor="middle" x="304.5" y="-249" font-family="Helvetica,sans-Serif" font-size="10.00">T</text>
</a>
</g>
</g>
<!-- Node7&#45;&gt;Node5 -->
<g id="edge6_Node000005_Node000007" class="edge">
<title>Node7&#45;&gt;Node5</title>
<g id="a_edge6_Node000005_Node000007"><a xlink:title=" ">
<path fill="none" stroke="#9a32cd" stroke-dasharray="5,2" d="M297.68,-232.32C293.15,-220.24 287.4,-204.91 283.84,-195.41"/>
<polygon fill="#9a32cd" stroke="#9a32cd" points="294.47,-233.73 301.26,-241.87 301.03,-231.28 294.47,-233.73"/>
</a>
</g>
<text text-anchor="middle" x="318" y="-216" font-family="Helvetica,sans-Serif" font-size="10.00" fill="grey"> elements</text>
</g>
</g>
</svg>
