<?xml version="1.0" encoding="UTF-8" standalone="no"?>
<!DOCTYPE svg PUBLIC "-//W3C//DTD SVG 1.1//EN"
 "http://www.w3.org/Graphics/SVG/1.1/DTD/svg11.dtd">
<!-- Generated by graphviz version 2.43.0 (0)
 -->
<!-- Title: goto_harness_generatort Pages: 1 -->
<svg width="300pt" height="93pt"
 viewBox="0.00 0.00 299.50 93.00" xmlns="http://www.w3.org/2000/svg" xmlns:xlink="http://www.w3.org/1999/xlink">
<g id="graph0" class="graph" transform="scale(1 1) rotate(0) translate(4 89)">
<title>goto_harness_generatort</title>
<!-- Node1 -->
<g id="Node000001" class="node">
<title>Node1</title>
<g id="a_Node000001"><a xlink:title=" ">
<polygon fill="#999999" stroke="#666666" points="207,-85 69,-85 69,-66 207,-66 207,-85"/>
<text text-anchor="middle" x="138" y="-73" font-family="Helvetica,sans-Serif" font-size="10.00">goto_harness_generatort</text>
</a>
</g>
</g>
<!-- Node2 -->
<g id="Node000002" class="node">
<title>Node2</title>
<g id="a_Node000002"><a xlink:href="classfunction__call__harness__generatort.html" target="_top" xlink:title="Function harness generator that for a specified goto&#45;function generates a harness that sets up its ar...">
<polygon fill="white" stroke="#666666" points="122,-30 0,-30 0,0 122,0 122,-30"/>
<text text-anchor="start" x="8" y="-18" font-family="Helvetica,sans-Serif" font-size="10.00">function_call_harness</text>
<text text-anchor="middle" x="61" y="-7" font-family="Helvetica,sans-Serif" font-size="10.00">_generatort</text>
</a>
</g>
</g>
<!-- Node1&#45;&gt;Node2 -->
<g id="edge1_Node000001_Node000002" class="edge">
<title>Node1&#45;&gt;Node2</title>
<g id="a_edge1_Node000001_Node000002"><a xlink:title=" ">
<path fill="none" stroke="#63b8ff" d="M118.61,-59.77C106.65,-50.68 91.39,-39.09 79.58,-30.11"/>
<polygon fill="#63b8ff" stroke="#63b8ff" points="116.56,-62.61 126.64,-65.87 120.79,-57.03 116.56,-62.61"/>
</a>
</g>
</g>
<!-- Node3 -->
<g id="Node000003" class="node">
<title>Node3</title>
<g id="a_Node000003"><a xlink:href="classmemory__snapshot__harness__generatort.html" target="_top" xlink:title="Generates a harness which first assigns global variables with values from a given memory snapshot and...">
<polygon fill="white" stroke="#666666" points="291.5,-30 140.5,-30 140.5,0 291.5,0 291.5,-30"/>
<text text-anchor="start" x="148.5" y="-18" font-family="Helvetica,sans-Serif" font-size="10.00">memory_snapshot_harness</text>
<text text-anchor="middle" x="216" y="-7" font-family="Helvetica,sans-Serif" font-size="10.00">_generatort</text>
</a>
</g>
</g>
<!-- Node1&#45;&gt;Node3 -->
<g id="edge2_Node000001_Node000003" class="edge">
<title>Node1&#45;&gt;Node3</title>
<g id="a_edge2_Node000001_Node000003"><a xlink:title=" ">
<path fill="none" stroke="#63b8ff" d="M157.64,-59.77C169.76,-50.68 185.22,-39.09 197.18,-30.11"/>
<polygon fill="#63b8ff" stroke="#63b8ff" points="155.41,-57.07 149.51,-65.87 159.61,-62.67 155.41,-57.07"/>
</a>
</g>
</g>
</g>
</svg>
