<?xml version="1.0" encoding="UTF-8" standalone="no"?>
<!DOCTYPE svg PUBLIC "-//W3C//DTD SVG 1.1//EN"
 "http://www.w3.org/Graphics/SVG/1.1/DTD/svg11.dtd">
<!-- Generated by graphviz version 2.43.0 (0)
 -->
<!-- Title: hardness_collectort Pages: 1 -->
<svg width="338pt" height="236pt"
 viewBox="0.00 0.00 337.50 236.00" xmlns="http://www.w3.org/2000/svg" xmlns:xlink="http://www.w3.org/1999/xlink">
<g id="graph0" class="graph" transform="scale(1 1) rotate(0) translate(4 232)">
<title>hardness_collectort</title>
<!-- Node1 -->
<g id="Node000001" class="node">
<title>Node1</title>
<g id="a_Node000001"><a xlink:title=" ">
<polygon fill="#999999" stroke="#666666" points="150.5,-19 38.5,-19 38.5,0 150.5,0 150.5,-19"/>
<text text-anchor="middle" x="94.5" y="-7" font-family="Helvetica,sans-Serif" font-size="10.00">hardness_collectort</text>
</a>
</g>
</g>
<!-- Node2 -->
<g id="Node000002" class="node">
<title>Node2</title>
<g id="a_Node000002"><a xlink:title=" ">
<polygon fill="white" stroke="#666666" points="160.5,-96 28.5,-96 28.5,-66 160.5,-66 160.5,-96"/>
<text text-anchor="start" x="36.5" y="-84" font-family="Helvetica,sans-Serif" font-size="10.00">std::unique_ptr&lt; clause</text>
<text text-anchor="middle" x="94.5" y="-73" font-family="Helvetica,sans-Serif" font-size="10.00">_hardness_collectort &gt;</text>
</a>
</g>
</g>
<!-- Node2&#45;&gt;Node1 -->
<g id="edge1_Node000001_Node000002" class="edge">
<title>Node2&#45;&gt;Node1</title>
<g id="a_edge1_Node000001_Node000002"><a xlink:title=" ">
<path fill="none" stroke="#9a32cd" stroke-dasharray="5,2" d="M94.5,-55.56C94.5,-42.95 94.5,-28.35 94.5,-19.27"/>
<polygon fill="#9a32cd" stroke="#9a32cd" points="91,-55.94 94.5,-65.94 98,-55.94 91,-55.94"/>
</a>
</g>
<text text-anchor="middle" x="136" y="-40" font-family="Helvetica,sans-Serif" font-size="10.00" fill="grey"> solver_hardness</text>
</g>
<!-- Node3 -->
<g id="Node000003" class="node">
<title>Node3</title>
<g id="a_Node000003"><a xlink:href="classclause__hardness__collectort.html" target="_top" xlink:title=" ">
<polygon fill="white" stroke="#666666" points="149,-162 0,-162 0,-143 149,-143 149,-162"/>
<text text-anchor="middle" x="74.5" y="-150" font-family="Helvetica,sans-Serif" font-size="10.00">clause_hardness_collectort</text>
</a>
</g>
</g>
<!-- Node3&#45;&gt;Node2 -->
<g id="edge2_Node000002_Node000003" class="edge">
<title>Node3&#45;&gt;Node2</title>
<g id="a_edge2_Node000002_Node000003"><a xlink:title=" ">
<path fill="none" stroke="#9a32cd" stroke-dasharray="5,2" d="M79.8,-133.07C83.13,-121.5 87.37,-106.79 90.43,-96.14"/>
<polygon fill="#9a32cd" stroke="#9a32cd" points="76.35,-132.4 76.95,-142.98 83.08,-134.34 76.35,-132.4"/>
</a>
</g>
<text text-anchor="middle" x="94" y="-117" font-family="Helvetica,sans-Serif" font-size="10.00" fill="grey"> ptr</text>
</g>
<!-- Node4 -->
<g id="Node000004" class="node">
<title>Node4</title>
<g id="a_Node000004"><a xlink:title=" ">
<polygon fill="white" stroke="#666666" points="285.5,-162 167.5,-162 167.5,-143 285.5,-143 285.5,-162"/>
<text text-anchor="middle" x="226.5" y="-150" font-family="Helvetica,sans-Serif" font-size="10.00">std::unique_ptr&lt; T &gt;</text>
</a>
</g>
</g>
<!-- Node4&#45;&gt;Node2 -->
<g id="edge3_Node000002_Node000004" class="edge">
<title>Node4&#45;&gt;Node2</title>
<g id="a_edge3_Node000002_Node000004"><a xlink:title=" ">
<path fill="none" stroke="orange" stroke-dasharray="5,2" d="M201.22,-138.19C178.33,-126.14 144.72,-108.44 121.35,-96.14"/>
<polygon fill="orange" stroke="orange" points="199.84,-141.42 210.31,-142.98 203.1,-135.22 199.84,-141.42"/>
</a>
</g>
<text text-anchor="middle" x="250.5" y="-117" font-family="Helvetica,sans-Serif" font-size="10.00" fill="grey"> &lt; clause_hardness_collectort &gt;</text>
</g>
<!-- Node5 -->
<g id="Node000005" class="node">
<title>Node5</title>
<g id="a_Node000005"><a xlink:title=" ">
<polygon fill="white" stroke="#666666" points="241,-228 212,-228 212,-209 241,-209 241,-228"/>
<text text-anchor="middle" x="226.5" y="-216" font-family="Helvetica,sans-Serif" font-size="10.00">T</text>
</a>
</g>
</g>
<!-- Node5&#45;&gt;Node4 -->
<g id="edge4_Node000004_Node000005" class="edge">
<title>Node5&#45;&gt;Node4</title>
<g id="a_edge4_Node000004_Node000005"><a xlink:title=" ">
<path fill="none" stroke="#9a32cd" stroke-dasharray="5,2" d="M226.5,-198.58C226.5,-186.63 226.5,-171.72 226.5,-162.41"/>
<polygon fill="#9a32cd" stroke="#9a32cd" points="223,-198.87 226.5,-208.87 230,-198.87 223,-198.87"/>
</a>
</g>
<text text-anchor="middle" x="235" y="-183" font-family="Helvetica,sans-Serif" font-size="10.00" fill="grey"> ptr</text>
</g>
</g>
</svg>
