<?xml version="1.0" encoding="UTF-8" standalone="no"?>
<!DOCTYPE svg PUBLIC "-//W3C//DTD SVG 1.1//EN"
 "http://www.w3.org/Graphics/SVG/1.1/DTD/svg11.dtd">
<!-- Generated by graphviz version 2.43.0 (0)
 -->
<!-- Title: can_forward_propagatet Pages: 1 -->
<svg width="321pt" height="134pt"
 viewBox="0.00 0.00 321.00 134.00" xmlns="http://www.w3.org/2000/svg" xmlns:xlink="http://www.w3.org/1999/xlink">
<g id="graph0" class="graph" transform="scale(1 1) rotate(0) translate(4 130)">
<title>can_forward_propagatet</title>
<!-- Node1 -->
<g id="Node000001" class="node">
<title>Node1</title>
<g id="a_Node000001"><a xlink:title="Determine whether an expression is constant.">
<polygon fill="#999999" stroke="#666666" points="135,-72.5 0,-72.5 0,-53.5 135,-53.5 135,-72.5"/>
<text text-anchor="middle" x="67.5" y="-60.5" font-family="Helvetica,sans-Serif" font-size="10.00">can_forward_propagatet</text>
</a>
</g>
</g>
<!-- Node2 -->
<g id="Node000002" class="node">
<title>Node2</title>
<g id="a_Node000002"><a xlink:href="classconstant__propagator__can__forward__propagatet.html" target="_top" xlink:title=" ">
<polygon fill="white" stroke="#666666" points="312,-126 172,-126 172,-96 312,-96 312,-126"/>
<text text-anchor="start" x="180" y="-114" font-family="Helvetica,sans-Serif" font-size="10.00">constant_propagator</text>
<text text-anchor="middle" x="242" y="-103" font-family="Helvetica,sans-Serif" font-size="10.00">_can_forward_propagatet</text>
</a>
</g>
</g>
<!-- Node1&#45;&gt;Node2 -->
<g id="edge1_Node000001_Node000002" class="edge">
<title>Node1&#45;&gt;Node2</title>
<g id="a_edge1_Node000001_Node000002"><a xlink:title=" ">
<path fill="none" stroke="#63b8ff" d="M112.66,-75.29C135.27,-81.58 162.99,-89.29 186.87,-95.94"/>
<polygon fill="#63b8ff" stroke="#63b8ff" points="113.57,-71.91 102.99,-72.6 111.69,-78.65 113.57,-71.91"/>
</a>
</g>
</g>
<!-- Node3 -->
<g id="Node000003" class="node">
<title>Node3</title>
<g id="a_Node000003"><a xlink:href="classgoto__symex__can__forward__propagatet.html" target="_top" xlink:title=" ">
<polygon fill="white" stroke="#666666" points="313,-78 171,-78 171,-48 313,-48 313,-78"/>
<text text-anchor="start" x="179" y="-66" font-family="Helvetica,sans-Serif" font-size="10.00">goto_symex_can_forward</text>
<text text-anchor="middle" x="242" y="-55" font-family="Helvetica,sans-Serif" font-size="10.00">_propagatet</text>
</a>
</g>
</g>
<!-- Node1&#45;&gt;Node3 -->
<g id="edge2_Node000001_Node000003" class="edge">
<title>Node1&#45;&gt;Node3</title>
<g id="a_edge2_Node000001_Node000003"><a xlink:title=" ">
<path fill="none" stroke="#63b8ff" d="M145.41,-63C153.85,-63 162.42,-63 170.77,-63"/>
<polygon fill="#63b8ff" stroke="#63b8ff" points="145.19,-59.5 135.19,-63 145.19,-66.5 145.19,-59.5"/>
</a>
</g>
</g>
<!-- Node4 -->
<g id="Node000004" class="node">
<title>Node4</title>
<g id="a_Node000004"><a xlink:href="classhavoc__utils__can__forward__propagatet.html" target="_top" xlink:title="A class containing utility functions for havocing expressions.">
<polygon fill="white" stroke="#666666" points="310.5,-30 173.5,-30 173.5,0 310.5,0 310.5,-30"/>
<text text-anchor="start" x="181.5" y="-18" font-family="Helvetica,sans-Serif" font-size="10.00">havoc_utils_can_forward</text>
<text text-anchor="middle" x="242" y="-7" font-family="Helvetica,sans-Serif" font-size="10.00">_propagatet</text>
</a>
</g>
</g>
<!-- Node1&#45;&gt;Node4 -->
<g id="edge3_Node000001_Node000004" class="edge">
<title>Node1&#45;&gt;Node4</title>
<g id="a_edge3_Node000001_Node000004"><a xlink:title=" ">
<path fill="none" stroke="#63b8ff" d="M112.66,-50.71C135.27,-44.42 162.99,-36.71 186.87,-30.06"/>
<polygon fill="#63b8ff" stroke="#63b8ff" points="111.69,-47.35 102.99,-53.4 113.57,-54.09 111.69,-47.35"/>
</a>
</g>
</g>
</g>
</svg>
