<?xml version="1.0" encoding="UTF-8" standalone="no"?>
<!DOCTYPE svg PUBLIC "-//W3C//DTD SVG 1.1//EN"
 "http://www.w3.org/Graphics/SVG/1.1/DTD/svg11.dtd">
<!-- Generated by graphviz version 2.43.0 (0)
 -->
<!-- Title: cout_message_handlert Pages: 1 -->
<svg width="285pt" height="358pt"
 viewBox="0.00 0.00 285.00 358.00" xmlns="http://www.w3.org/2000/svg" xmlns:xlink="http://www.w3.org/1999/xlink">
<g id="graph0" class="graph" transform="scale(1 1) rotate(0) translate(4 354)">
<title>cout_message_handlert</title>
<!-- Node1 -->
<g id="Node000001" class="node">
<title>Node1</title>
<g id="a_Node000001"><a xlink:title=" ">
<polygon fill="#999999" stroke="#666666" points="215.5,-19 82.5,-19 82.5,0 215.5,0 215.5,-19"/>
<text text-anchor="middle" x="149" y="-7" font-family="Helvetica,sans-Serif" font-size="10.00">cout_message_handlert</text>
</a>
</g>
</g>
<!-- Node2 -->
<g id="Node000002" class="node">
<title>Node2</title>
<g id="a_Node000002"><a xlink:href="classstream__message__handlert.html" target="_top" xlink:title=" ">
<polygon fill="white" stroke="#666666" points="222,-75 76,-75 76,-56 222,-56 222,-75"/>
<text text-anchor="middle" x="149" y="-63" font-family="Helvetica,sans-Serif" font-size="10.00">stream_message_handlert</text>
</a>
</g>
</g>
<!-- Node2&#45;&gt;Node1 -->
<g id="edge1_Node000001_Node000002" class="edge">
<title>Node2&#45;&gt;Node1</title>
<g id="a_edge1_Node000001_Node000002"><a xlink:title=" ">
<path fill="none" stroke="#63b8ff" d="M149,-45.3C149,-36.41 149,-26.28 149,-19.25"/>
<polygon fill="#63b8ff" stroke="#63b8ff" points="145.5,-45.58 149,-55.58 152.5,-45.58 145.5,-45.58"/>
</a>
</g>
</g>
<!-- Node3 -->
<g id="Node000003" class="node">
<title>Node3</title>
<g id="a_Node000003"><a xlink:href="classmessage__handlert.html" target="_top" xlink:title=" ">
<polygon fill="white" stroke="#666666" points="147.5,-141 40.5,-141 40.5,-122 147.5,-122 147.5,-141"/>
<text text-anchor="middle" x="94" y="-129" font-family="Helvetica,sans-Serif" font-size="10.00">message_handlert</text>
</a>
</g>
</g>
<!-- Node3&#45;&gt;Node2 -->
<g id="edge2_Node000002_Node000003" class="edge">
<title>Node3&#45;&gt;Node2</title>
<g id="a_edge2_Node000002_Node000003"><a xlink:title=" ">
<path fill="none" stroke="#63b8ff" d="M108.07,-114.12C118.66,-101.81 132.76,-85.39 141.35,-75.41"/>
<polygon fill="#63b8ff" stroke="#63b8ff" points="105.28,-112 101.42,-121.87 110.59,-116.57 105.28,-112"/>
</a>
</g>
</g>
<!-- Node4 -->
<g id="Node000004" class="node">
<title>Node4</title>
<g id="a_Node000004"><a xlink:title=" ">
<polygon fill="white" stroke="#666666" points="140,-212.5 0,-212.5 0,-193.5 140,-193.5 140,-212.5"/>
<text text-anchor="middle" x="70" y="-200.5" font-family="Helvetica,sans-Serif" font-size="10.00">std::vector&lt; std::size_t &gt;</text>
</a>
</g>
</g>
<!-- Node4&#45;&gt;Node3 -->
<g id="edge3_Node000003_Node000004" class="edge">
<title>Node4&#45;&gt;Node3</title>
<g id="a_edge3_Node000003_Node000004"><a xlink:title=" ">
<path fill="none" stroke="#9a32cd" stroke-dasharray="5,2" d="M76.35,-183.62C81.1,-169.86 87.39,-151.65 91.03,-141.09"/>
<polygon fill="#9a32cd" stroke="#9a32cd" points="72.9,-182.88 72.94,-193.48 79.52,-185.17 72.9,-182.88"/>
</a>
</g>
<text text-anchor="middle" x="125" y="-162" font-family="Helvetica,sans-Serif" font-size="10.00" fill="grey"> message_count</text>
</g>
<!-- Node5 -->
<g id="Node000005" class="node">
<title>Node5</title>
<g id="a_Node000005"><a xlink:title=" ">
<polygon fill="white" stroke="#666666" points="118.5,-284 21.5,-284 21.5,-265 118.5,-265 118.5,-284"/>
<text text-anchor="middle" x="70" y="-272" font-family="Helvetica,sans-Serif" font-size="10.00">std::vector&lt; T &gt;</text>
</a>
</g>
</g>
<!-- Node5&#45;&gt;Node4 -->
<g id="edge4_Node000004_Node000005" class="edge">
<title>Node5&#45;&gt;Node4</title>
<g id="a_edge4_Node000004_Node000005"><a xlink:title=" ">
<path fill="none" stroke="orange" stroke-dasharray="5,2" d="M70,-254.71C70,-241 70,-223.05 70,-212.59"/>
<polygon fill="orange" stroke="orange" points="66.5,-254.98 70,-264.98 73.5,-254.98 66.5,-254.98"/>
</a>
</g>
<text text-anchor="middle" x="108" y="-239" font-family="Helvetica,sans-Serif" font-size="10.00" fill="grey"> &lt; std::size_t &gt;</text>
</g>
<!-- Node6 -->
<g id="Node000006" class="node">
<title>Node6</title>
<g id="a_Node000006"><a xlink:title=" ">
<polygon fill="white" stroke="#666666" points="84.5,-350 55.5,-350 55.5,-331 84.5,-331 84.5,-350"/>
<text text-anchor="middle" x="70" y="-338" font-family="Helvetica,sans-Serif" font-size="10.00">T</text>
</a>
</g>
</g>
<!-- Node6&#45;&gt;Node5 -->
<g id="edge5_Node000005_Node000006" class="edge">
<title>Node6&#45;&gt;Node5</title>
<g id="a_edge5_Node000005_Node000006"><a xlink:title=" ">
<path fill="none" stroke="#9a32cd" stroke-dasharray="5,2" d="M70,-320.58C70,-308.63 70,-293.72 70,-284.41"/>
<polygon fill="#9a32cd" stroke="#9a32cd" points="66.5,-320.87 70,-330.87 73.5,-320.87 66.5,-320.87"/>
</a>
</g>
<text text-anchor="middle" x="94.5" y="-305" font-family="Helvetica,sans-Serif" font-size="10.00" fill="grey"> elements</text>
</g>
<!-- Node7 -->
<g id="Node000007" class="node">
<title>Node7</title>
<g id="a_Node000007"><a xlink:title=" ">
<polygon fill="white" stroke="#666666" points="248,-141 170,-141 170,-122 248,-122 248,-141"/>
<text text-anchor="middle" x="209" y="-129" font-family="Helvetica,sans-Serif" font-size="10.00">std::ostream</text>
</a>
</g>
</g>
<!-- Node7&#45;&gt;Node2 -->
<g id="edge6_Node000002_Node000007" class="edge">
<title>Node7&#45;&gt;Node2</title>
<g id="a_edge6_Node000002_Node000007"><a xlink:title=" ">
<path fill="none" stroke="#9a32cd" stroke-dasharray="5,2" d="M193.98,-114.48C182.4,-102.12 166.8,-85.49 157.35,-75.41"/>
<polygon fill="#9a32cd" stroke="#9a32cd" points="191.52,-116.97 200.91,-121.87 196.62,-112.18 191.52,-116.97"/>
</a>
</g>
<text text-anchor="middle" x="192.5" y="-96" font-family="Helvetica,sans-Serif" font-size="10.00" fill="grey"> out</text>
</g>
<!-- Node8 -->
<g id="Node000008" class="node">
<title>Node8</title>
<g id="a_Node000008"><a xlink:title=" ">
<polygon fill="white" stroke="#666666" points="267.5,-218 158.5,-218 158.5,-188 267.5,-188 267.5,-218"/>
<text text-anchor="start" x="166.5" y="-206" font-family="Helvetica,sans-Serif" font-size="10.00">std::basic_ostream</text>
<text text-anchor="middle" x="213" y="-195" font-family="Helvetica,sans-Serif" font-size="10.00">&lt; Char &gt;</text>
</a>
</g>
</g>
<!-- Node8&#45;&gt;Node7 -->
<g id="edge7_Node000007_Node000008" class="edge">
<title>Node8&#45;&gt;Node7</title>
<g id="a_edge7_Node000007_Node000008"><a xlink:title=" ">
<path fill="none" stroke="#63b8ff" d="M211.62,-177.94C210.88,-165.24 210.03,-150.44 209.5,-141.27"/>
<polygon fill="#63b8ff" stroke="#63b8ff" points="208.12,-178.15 212.19,-187.94 215.11,-177.75 208.12,-178.15"/>
</a>
</g>
</g>
<!-- Node9 -->
<g id="Node000009" class="node">
<title>Node9</title>
<g id="a_Node000009"><a xlink:title=" ">
<polygon fill="white" stroke="#666666" points="277,-284 149,-284 149,-265 277,-265 277,-284"/>
<text text-anchor="middle" x="213" y="-272" font-family="Helvetica,sans-Serif" font-size="10.00">std::basic_ios&lt; Char &gt;</text>
</a>
</g>
</g>
<!-- Node9&#45;&gt;Node8 -->
<g id="edge8_Node000008_Node000009" class="edge">
<title>Node9&#45;&gt;Node8</title>
<g id="a_edge8_Node000008_Node000009"><a xlink:title=" ">
<path fill="none" stroke="#63b8ff" d="M213,-254.71C213,-243.19 213,-228.68 213,-218.14"/>
<polygon fill="#63b8ff" stroke="#63b8ff" points="209.5,-254.98 213,-264.98 216.5,-254.98 209.5,-254.98"/>
</a>
</g>
</g>
<!-- Node10 -->
<g id="Node000010" class="node">
<title>Node10</title>
<g id="a_Node000010"><a xlink:title=" ">
<polygon fill="white" stroke="#666666" points="253,-350 173,-350 173,-331 253,-331 253,-350"/>
<text text-anchor="middle" x="213" y="-338" font-family="Helvetica,sans-Serif" font-size="10.00">std::ios_base</text>
</a>
</g>
</g>
<!-- Node10&#45;&gt;Node9 -->
<g id="edge9_Node000009_Node000010" class="edge">
<title>Node10&#45;&gt;Node9</title>
<g id="a_edge9_Node000009_Node000010"><a xlink:title=" ">
<path fill="none" stroke="#63b8ff" d="M213,-320.58C213,-308.63 213,-293.72 213,-284.41"/>
<polygon fill="#63b8ff" stroke="#63b8ff" points="209.5,-320.87 213,-330.87 216.5,-320.87 209.5,-320.87"/>
</a>
</g>
</g>
</g>
</svg>
