<?xml version="1.0" encoding="UTF-8" standalone="no"?>
<!DOCTYPE svg PUBLIC "-//W3C//DTD SVG 1.1//EN"
 "http://www.w3.org/Graphics/SVG/1.1/DTD/svg11.dtd">
<!-- Generated by graphviz version 2.43.0 (0)
 -->
<!-- Title: java_generic_parameter_tagt Pages: 1 -->
<svg width="168pt" height="390pt"
 viewBox="0.00 0.00 168.00 390.00" xmlns="http://www.w3.org/2000/svg" xmlns:xlink="http://www.w3.org/1999/xlink">
<g id="graph0" class="graph" transform="scale(1 1) rotate(0) translate(4 386)">
<title>java_generic_parameter_tagt</title>
<!-- Node1 -->
<g id="Node000001" class="node">
<title>Node1</title>
<g id="a_Node000001"><a xlink:title="Class to hold a Java generic type parameter (also called type variable), e.g., T in List&lt;T&gt;.">
<polygon fill="#999999" stroke="#666666" points="160,-19 0,-19 0,0 160,0 160,-19"/>
<text text-anchor="middle" x="80" y="-7" font-family="Helvetica,sans-Serif" font-size="10.00">java_generic_parameter_tagt</text>
</a>
</g>
</g>
<!-- Node2 -->
<g id="Node000002" class="node">
<title>Node2</title>
<g id="a_Node000002"><a xlink:href="classstruct__tag__typet.html" target="_top" xlink:title="A struct tag type, i.e., struct_typet with an identifier.">
<polygon fill="white" stroke="#666666" points="128,-74 32,-74 32,-55 128,-55 128,-74"/>
<text text-anchor="middle" x="80" y="-62" font-family="Helvetica,sans-Serif" font-size="10.00">struct_tag_typet</text>
</a>
</g>
</g>
<!-- Node2&#45;&gt;Node1 -->
<g id="edge1_Node000001_Node000002" class="edge">
<title>Node2&#45;&gt;Node1</title>
<g id="a_edge1_Node000001_Node000002"><a xlink:title=" ">
<path fill="none" stroke="#63b8ff" d="M80,-44.66C80,-35.93 80,-25.99 80,-19.09"/>
<polygon fill="#63b8ff" stroke="#63b8ff" points="76.5,-44.75 80,-54.75 83.5,-44.75 76.5,-44.75"/>
</a>
</g>
</g>
<!-- Node3 -->
<g id="Node000003" class="node">
<title>Node3</title>
<g id="a_Node000003"><a xlink:href="classstruct__or__union__tag__typet.html" target="_top" xlink:title="A struct or union tag type.">
<polygon fill="white" stroke="#666666" points="136.5,-140 23.5,-140 23.5,-110 136.5,-110 136.5,-140"/>
<text text-anchor="start" x="31.5" y="-128" font-family="Helvetica,sans-Serif" font-size="10.00">struct_or_union_tag</text>
<text text-anchor="middle" x="80" y="-117" font-family="Helvetica,sans-Serif" font-size="10.00">_typet</text>
</a>
</g>
</g>
<!-- Node3&#45;&gt;Node2 -->
<g id="edge2_Node000002_Node000003" class="edge">
<title>Node3&#45;&gt;Node2</title>
<g id="a_edge2_Node000002_Node000003"><a xlink:title=" ">
<path fill="none" stroke="#63b8ff" d="M80,-99.75C80,-90.72 80,-81.03 80,-74.27"/>
<polygon fill="#63b8ff" stroke="#63b8ff" points="76.5,-99.84 80,-109.84 83.5,-99.84 76.5,-99.84"/>
</a>
</g>
</g>
<!-- Node4 -->
<g id="Node000004" class="node">
<title>Node4</title>
<g id="a_Node000004"><a xlink:href="classtag__typet.html" target="_top" xlink:title="A tag&#45;based type, i.e., typet with an identifier.">
<polygon fill="white" stroke="#666666" points="111.5,-195 48.5,-195 48.5,-176 111.5,-176 111.5,-195"/>
<text text-anchor="middle" x="80" y="-183" font-family="Helvetica,sans-Serif" font-size="10.00">tag_typet</text>
</a>
</g>
</g>
<!-- Node4&#45;&gt;Node3 -->
<g id="edge3_Node000003_Node000004" class="edge">
<title>Node4&#45;&gt;Node3</title>
<g id="a_edge3_Node000003_Node000004"><a xlink:title=" ">
<path fill="none" stroke="#63b8ff" d="M80,-165.65C80,-157.36 80,-147.78 80,-140.11"/>
<polygon fill="#63b8ff" stroke="#63b8ff" points="76.5,-165.87 80,-175.87 83.5,-165.87 76.5,-165.87"/>
</a>
</g>
</g>
<!-- Node5 -->
<g id="Node000005" class="node">
<title>Node5</title>
<g id="a_Node000005"><a xlink:href="classtypet.html" target="_top" xlink:title="The type of an expression, extends irept.">
<polygon fill="white" stroke="#666666" points="101,-250 59,-250 59,-231 101,-231 101,-250"/>
<text text-anchor="middle" x="80" y="-238" font-family="Helvetica,sans-Serif" font-size="10.00">typet</text>
</a>
</g>
</g>
<!-- Node5&#45;&gt;Node4 -->
<g id="edge4_Node000004_Node000005" class="edge">
<title>Node5&#45;&gt;Node4</title>
<g id="a_edge4_Node000004_Node000005"><a xlink:title=" ">
<path fill="none" stroke="#63b8ff" d="M80,-220.66C80,-211.93 80,-201.99 80,-195.09"/>
<polygon fill="#63b8ff" stroke="#63b8ff" points="76.5,-220.75 80,-230.75 83.5,-220.75 76.5,-220.75"/>
</a>
</g>
</g>
<!-- Node6 -->
<g id="Node000006" class="node">
<title>Node6</title>
<g id="a_Node000006"><a xlink:href="classirept.html" target="_top" xlink:title="There are a large number of kinds of tree structured or tree&#45;like data in CPROVER.">
<polygon fill="white" stroke="#666666" points="99.5,-305 60.5,-305 60.5,-286 99.5,-286 99.5,-305"/>
<text text-anchor="middle" x="80" y="-293" font-family="Helvetica,sans-Serif" font-size="10.00">irept</text>
</a>
</g>
</g>
<!-- Node6&#45;&gt;Node5 -->
<g id="edge5_Node000005_Node000006" class="edge">
<title>Node6&#45;&gt;Node5</title>
<g id="a_edge5_Node000005_Node000006"><a xlink:title=" ">
<path fill="none" stroke="#63b8ff" d="M80,-275.66C80,-266.93 80,-256.99 80,-250.09"/>
<polygon fill="#63b8ff" stroke="#63b8ff" points="76.5,-275.75 80,-285.75 83.5,-275.75 76.5,-275.75"/>
</a>
</g>
</g>
<!-- Node7 -->
<g id="Node000007" class="node">
<title>Node7</title>
<g id="a_Node000007"><a xlink:href="classsharing__treet.html" target="_top" xlink:title=" ">
<polygon fill="#fff0f0" stroke="red" points="142.5,-382 17.5,-382 17.5,-341 142.5,-341 142.5,-382"/>
<text text-anchor="start" x="25.5" y="-370" font-family="Helvetica,sans-Serif" font-size="10.00">sharing_treet&lt; irept,</text>
<text text-anchor="start" x="25.5" y="-359" font-family="Helvetica,sans-Serif" font-size="10.00"> forward_list_as_mapt</text>
<text text-anchor="middle" x="80" y="-348" font-family="Helvetica,sans-Serif" font-size="10.00">&lt; irep_idt, irept &gt; &gt;</text>
</a>
</g>
</g>
<!-- Node7&#45;&gt;Node6 -->
<g id="edge6_Node000006_Node000007" class="edge">
<title>Node7&#45;&gt;Node6</title>
<g id="a_edge6_Node000006_Node000007"><a xlink:title=" ">
<path fill="none" stroke="#63b8ff" d="M80,-330.74C80,-321.45 80,-311.9 80,-305.26"/>
<polygon fill="#63b8ff" stroke="#63b8ff" points="76.5,-330.95 80,-340.95 83.5,-330.95 76.5,-330.95"/>
</a>
</g>
</g>
</g>
</svg>
