<?xml version="1.0" encoding="UTF-8" standalone="no"?>
<!DOCTYPE svg PUBLIC "-//W3C//DTD SVG 1.1//EN"
 "http://www.w3.org/Graphics/SVG/1.1/DTD/svg11.dtd">
<!-- Generated by graphviz version 2.43.0 (0)
 -->
<!-- Title: call_grapht Pages: 1 -->
<svg width="718pt" height="225pt"
 viewBox="0.00 0.00 718.00 224.82" xmlns="http://www.w3.org/2000/svg" xmlns:xlink="http://www.w3.org/1999/xlink">
<g id="graph0" class="graph" transform="scale(1 1) rotate(0) translate(4 220.82)">
<title>call_grapht</title>
<!-- Node1 -->
<g id="Node000001" class="node">
<title>Node1</title>
<g id="a_Node000001"><a xlink:title="A call graph (https://en.wikipedia.org/wiki/Call_graph) for a GOTO model or GOTO functions collection...">
<polygon fill="#999999" stroke="#666666" points="710,-127.32 639,-127.32 639,-108.32 710,-108.32 710,-127.32"/>
<text text-anchor="middle" x="674.5" y="-115.32" font-family="Helvetica,sans-Serif" font-size="10.00">call_grapht</text>
</a>
</g>
</g>
<!-- Node2 -->
<g id="Node000002" class="node">
<title>Node2</title>
<g id="a_Node000002"><a xlink:title=" ">
<polygon fill="white" stroke="#666666" points="534.5,-132.82 419.5,-132.82 419.5,-102.82 534.5,-102.82 534.5,-132.82"/>
<text text-anchor="start" x="427.5" y="-120.82" font-family="Helvetica,sans-Serif" font-size="10.00">std::multimap&lt; irep</text>
<text text-anchor="middle" x="477" y="-109.82" font-family="Helvetica,sans-Serif" font-size="10.00">_idt, irep_idt &gt;</text>
</a>
</g>
</g>
<!-- Node2&#45;&gt;Node1 -->
<g id="edge1_Node000001_Node000002" class="edge">
<title>Node2&#45;&gt;Node1</title>
<g id="a_edge1_Node000001_Node000002"><a xlink:title=" ">
<path fill="none" stroke="#9a32cd" stroke-dasharray="5,2" d="M544.63,-117.82C576.29,-117.82 612.81,-117.82 638.87,-117.82"/>
<polygon fill="#9a32cd" stroke="#9a32cd" points="544.55,-114.32 534.55,-117.82 544.55,-121.32 544.55,-114.32"/>
</a>
</g>
<text text-anchor="middle" x="599" y="-120.82" font-family="Helvetica,sans-Serif" font-size="10.00" fill="grey"> edges</text>
</g>
<!-- Node3 -->
<g id="Node000003" class="node">
<title>Node3</title>
<g id="a_Node000003"><a xlink:href="classdstringt.html" target="_top" xlink:title="dstringt has one field, an unsigned integer no which is an index into a static table of strings.">
<polygon fill="white" stroke="#666666" points="209.5,-163.32 155.5,-163.32 155.5,-144.32 209.5,-144.32 209.5,-163.32"/>
<text text-anchor="middle" x="182.5" y="-151.32" font-family="Helvetica,sans-Serif" font-size="10.00">dstringt</text>
</a>
</g>
</g>
<!-- Node3&#45;&gt;Node2 -->
<g id="edge2_Node000002_Node000003" class="edge">
<title>Node3&#45;&gt;Node2</title>
<g id="a_edge2_Node000002_Node000003"><a xlink:title=" ">
<path fill="none" stroke="#9a32cd" stroke-dasharray="5,2" d="M219.54,-144.66C234.72,-141.1 252.63,-137.3 269,-134.82 319.45,-127.18 377.37,-122.79 419.09,-120.39"/>
<polygon fill="#9a32cd" stroke="#9a32cd" points="218.43,-141.33 209.52,-147.06 220.06,-148.14 218.43,-141.33"/>
</a>
</g>
<text text-anchor="middle" x="323" y="-148.82" font-family="Helvetica,sans-Serif" font-size="10.00" fill="grey"> elements</text>
<text text-anchor="middle" x="323" y="-137.82" font-family="Helvetica,sans-Serif" font-size="10.00" fill="grey">keys</text>
</g>
<!-- Node7 -->
<g id="Node000007" class="node">
<title>Node7</title>
<g id="a_Node000007"><a xlink:title=" ">
<polygon fill="white" stroke="#666666" points="530.5,-198.32 423.5,-198.32 423.5,-157.32 530.5,-157.32 530.5,-198.32"/>
<text text-anchor="start" x="431.5" y="-186.32" font-family="Helvetica,sans-Serif" font-size="10.00">std::unordered_set</text>
<text text-anchor="start" x="431.5" y="-175.32" font-family="Helvetica,sans-Serif" font-size="10.00">&lt; irep_idt, irep_id</text>
<text text-anchor="middle" x="477" y="-164.32" font-family="Helvetica,sans-Serif" font-size="10.00">_hash &gt;</text>
</a>
</g>
</g>
<!-- Node3&#45;&gt;Node7 -->
<g id="edge7_Node000007_Node000003" class="edge">
<title>Node3&#45;&gt;Node7</title>
<g id="a_edge7_Node000007_Node000003"><a xlink:title=" ">
<path fill="none" stroke="#9a32cd" stroke-dasharray="5,2" d="M219.97,-156.81C271.14,-161.01 364.55,-168.67 423.29,-173.49"/>
<polygon fill="#9a32cd" stroke="#9a32cd" points="219.97,-153.3 209.71,-155.97 219.4,-160.28 219.97,-153.3"/>
</a>
</g>
<text text-anchor="middle" x="323" y="-171.82" font-family="Helvetica,sans-Serif" font-size="10.00" fill="grey"> keys</text>
</g>
<!-- Node4 -->
<g id="Node000004" class="node">
<title>Node4</title>
<g id="a_Node000004"><a xlink:title=" ">
<polygon fill="white" stroke="#666666" points="245.5,-112.32 119.5,-112.32 119.5,-93.32 245.5,-93.32 245.5,-112.32"/>
<text text-anchor="middle" x="182.5" y="-100.32" font-family="Helvetica,sans-Serif" font-size="10.00">std::multimap&lt; K, T &gt;</text>
</a>
</g>
</g>
<!-- Node4&#45;&gt;Node2 -->
<g id="edge3_Node000002_Node000004" class="edge">
<title>Node4&#45;&gt;Node2</title>
<g id="a_edge3_Node000002_Node000004"><a xlink:title=" ">
<path fill="none" stroke="orange" stroke-dasharray="5,2" d="M255.94,-100.1C260.36,-99.99 264.74,-99.89 269,-99.82 316.99,-98.98 329.19,-95.51 377,-99.82 390.83,-101.07 405.62,-103.27 419.44,-105.73"/>
<polygon fill="orange" stroke="orange" points="255.5,-96.61 245.6,-100.38 255.69,-103.61 255.5,-96.61"/>
</a>
</g>
<text text-anchor="middle" x="323" y="-102.82" font-family="Helvetica,sans-Serif" font-size="10.00" fill="grey"> &lt; irep_idt, irep_idt &gt;</text>
</g>
<!-- Node5 -->
<g id="Node000005" class="node">
<title>Node5</title>
<g id="a_Node000005"><a xlink:title=" ">
<polygon fill="white" stroke="#666666" points="29,-137.32 0,-137.32 0,-118.32 29,-118.32 29,-137.32"/>
<text text-anchor="middle" x="14.5" y="-125.32" font-family="Helvetica,sans-Serif" font-size="10.00">K</text>
</a>
</g>
</g>
<!-- Node5&#45;&gt;Node4 -->
<g id="edge4_Node000004_Node000005" class="edge">
<title>Node5&#45;&gt;Node4</title>
<g id="a_edge4_Node000004_Node000005"><a xlink:title=" ">
<path fill="none" stroke="#9a32cd" stroke-dasharray="5,2" d="M39.38,-127.38C55.46,-126.83 77.09,-125.6 96,-122.82 112.89,-120.34 131.37,-116.2 146.81,-112.33"/>
<polygon fill="#9a32cd" stroke="#9a32cd" points="39.15,-123.89 29.25,-127.66 39.34,-130.89 39.15,-123.89"/>
</a>
</g>
<text text-anchor="middle" x="71.5" y="-129.82" font-family="Helvetica,sans-Serif" font-size="10.00" fill="grey"> keys</text>
</g>
<!-- Node8 -->
<g id="Node000008" class="node">
<title>Node8</title>
<g id="a_Node000008"><a xlink:title=" ">
<polygon fill="white" stroke="#666666" points="251,-207.32 114,-207.32 114,-188.32 251,-188.32 251,-207.32"/>
<text text-anchor="middle" x="182.5" y="-195.32" font-family="Helvetica,sans-Serif" font-size="10.00">std::unordered_set&lt; K &gt;</text>
</a>
</g>
</g>
<!-- Node5&#45;&gt;Node8 -->
<g id="edge9_Node000008_Node000005" class="edge">
<title>Node5&#45;&gt;Node8</title>
<g id="a_edge9_Node000008_Node000005"><a xlink:title=" ">
<path fill="none" stroke="#9a32cd" stroke-dasharray="5,2" d="M38.21,-138.77C58.04,-148.2 87.69,-161.95 114,-172.82 127.17,-178.26 141.99,-183.81 154.39,-188.29"/>
<polygon fill="#9a32cd" stroke="#9a32cd" points="39.6,-135.55 29.06,-134.4 36.58,-141.87 39.6,-135.55"/>
</a>
</g>
<text text-anchor="middle" x="71.5" y="-166.82" font-family="Helvetica,sans-Serif" font-size="10.00" fill="grey"> keys</text>
</g>
<!-- Node10 -->
<g id="Node000010" class="node">
<title>Node10</title>
<g id="a_Node000010"><a xlink:title=" ">
<polygon fill="white" stroke="#666666" points="223.5,-75.32 141.5,-75.32 141.5,-56.32 223.5,-56.32 223.5,-75.32"/>
<text text-anchor="middle" x="182.5" y="-63.32" font-family="Helvetica,sans-Serif" font-size="10.00">std::set&lt; K &gt;</text>
</a>
</g>
</g>
<!-- Node5&#45;&gt;Node10 -->
<g id="edge12_Node000010_Node000005" class="edge">
<title>Node5&#45;&gt;Node10</title>
<g id="a_edge12_Node000010_Node000005"><a xlink:title=" ">
<path fill="none" stroke="#9a32cd" stroke-dasharray="5,2" d="M37.81,-114.49C40.86,-112.84 43.98,-111.23 47,-109.82 78.7,-94.97 116.79,-83.01 144.32,-75.34"/>
<polygon fill="#9a32cd" stroke="#9a32cd" points="36.03,-111.47 29.04,-119.44 39.47,-117.56 36.03,-111.47"/>
</a>
</g>
<text text-anchor="middle" x="71.5" y="-112.82" font-family="Helvetica,sans-Serif" font-size="10.00" fill="grey"> keys</text>
</g>
<!-- Node11 -->
<g id="Node000011" class="node">
<title>Node11</title>
<g id="a_Node000011"><a xlink:title=" ">
<polygon fill="white" stroke="#666666" points="233,-38.32 132,-38.32 132,-19.32 233,-19.32 233,-38.32"/>
<text text-anchor="middle" x="182.5" y="-26.32" font-family="Helvetica,sans-Serif" font-size="10.00">std::map&lt; K, T &gt;</text>
</a>
</g>
</g>
<!-- Node5&#45;&gt;Node11 -->
<g id="edge14_Node000011_Node000005" class="edge">
<title>Node5&#45;&gt;Node11</title>
<g id="a_edge14_Node000011_Node000005"><a xlink:title=" ">
<path fill="none" stroke="#9a32cd" stroke-dasharray="5,2" d="M20.92,-108.49C27.07,-87.93 37.5,-57.36 47,-49.82 70.6,-31.08 104.06,-25.8 131.7,-25.22"/>
<polygon fill="#9a32cd" stroke="#9a32cd" points="17.54,-107.57 18.11,-118.15 24.26,-109.52 17.54,-107.57"/>
</a>
</g>
<text text-anchor="middle" x="71.5" y="-52.82" font-family="Helvetica,sans-Serif" font-size="10.00" fill="grey"> keys</text>
</g>
<!-- Node6 -->
<g id="Node000006" class="node">
<title>Node6</title>
<g id="a_Node000006"><a xlink:title=" ">
<polygon fill="white" stroke="#666666" points="29,-68.32 0,-68.32 0,-49.32 29,-49.32 29,-68.32"/>
<text text-anchor="middle" x="14.5" y="-56.32" font-family="Helvetica,sans-Serif" font-size="10.00">T</text>
</a>
</g>
</g>
<!-- Node6&#45;&gt;Node4 -->
<g id="edge5_Node000004_Node000006" class="edge">
<title>Node6&#45;&gt;Node4</title>
<g id="a_edge5_Node000004_Node000006"><a xlink:title=" ">
<path fill="none" stroke="#9a32cd" stroke-dasharray="5,2" d="M39.22,-63.51C55.38,-66.93 77.17,-71.97 96,-77.82 104.2,-80.37 105.84,-82.15 114,-84.82 123.22,-87.83 133.27,-90.72 142.73,-93.27"/>
<polygon fill="#9a32cd" stroke="#9a32cd" points="39.54,-60 29.04,-61.41 38.13,-66.86 39.54,-60"/>
</a>
</g>
<text text-anchor="middle" x="71.5" y="-80.82" font-family="Helvetica,sans-Serif" font-size="10.00" fill="grey"> elements</text>
</g>
<!-- Node6&#45;&gt;Node11 -->
<g id="edge15_Node000011_Node000006" class="edge">
<title>Node6&#45;&gt;Node11</title>
<g id="a_edge15_Node000011_Node000006"><a xlink:title=" ">
<path fill="none" stroke="#9a32cd" stroke-dasharray="5,2" d="M22.45,-39.56C27.48,-28.72 35.43,-16.13 47,-9.82 84.05,10.41 135.05,-6.94 162.37,-19.21"/>
<polygon fill="#9a32cd" stroke="#9a32cd" points="19.08,-38.57 18.52,-49.15 25.55,-41.22 19.08,-38.57"/>
</a>
</g>
<text text-anchor="middle" x="71.5" y="-12.82" font-family="Helvetica,sans-Serif" font-size="10.00" fill="grey"> elements</text>
</g>
<!-- Node7&#45;&gt;Node1 -->
<g id="edge6_Node000001_Node000007" class="edge">
<title>Node7&#45;&gt;Node1</title>
<g id="a_edge6_Node000001_Node000007"><a xlink:title=" ">
<path fill="none" stroke="#9a32cd" stroke-dasharray="5,2" d="M540.51,-158.63C574.53,-148.19 615.12,-135.74 642.44,-127.35"/>
<polygon fill="#9a32cd" stroke="#9a32cd" points="539.18,-155.38 530.65,-161.66 541.23,-162.07 539.18,-155.38"/>
</a>
</g>
<text text-anchor="middle" x="599" y="-148.82" font-family="Helvetica,sans-Serif" font-size="10.00" fill="grey"> nodes</text>
</g>
<!-- Node8&#45;&gt;Node7 -->
<g id="edge8_Node000007_Node000008" class="edge">
<title>Node8&#45;&gt;Node7</title>
<g id="a_edge8_Node000007_Node000008"><a xlink:title=" ">
<path fill="none" stroke="orange" stroke-dasharray="5,2" d="M261.44,-196C296.76,-194.82 339.03,-192.9 377,-189.82 392.1,-188.59 408.44,-186.8 423.42,-184.98"/>
<polygon fill="orange" stroke="orange" points="261.07,-192.51 251.19,-196.33 261.3,-199.51 261.07,-192.51"/>
</a>
</g>
<text text-anchor="start" x="277.5" y="-208.82" font-family="Helvetica,sans-Serif" font-size="10.00" fill="grey"> &lt; irep_idt, irep_id</text>
<text text-anchor="middle" x="323" y="-197.82" font-family="Helvetica,sans-Serif" font-size="10.00" fill="grey">_hash &gt;</text>
</g>
<!-- Node9 -->
<g id="Node000009" class="node">
<title>Node9</title>
<g id="a_Node000009"><a xlink:title=" ">
<polygon fill="white" stroke="#666666" points="559,-74.32 395,-74.32 395,-55.32 559,-55.32 559,-74.32"/>
<text text-anchor="middle" x="477" y="-62.32" font-family="Helvetica,sans-Serif" font-size="10.00">std::map&lt; edget, locationst &gt;</text>
</a>
</g>
</g>
<!-- Node9&#45;&gt;Node1 -->
<g id="edge10_Node000001_Node000009" class="edge">
<title>Node9&#45;&gt;Node1</title>
<g id="a_edge10_Node000001_Node000009"><a xlink:title=" ">
<path fill="none" stroke="#9a32cd" stroke-dasharray="5,2" d="M524.7,-76.99C552.67,-84.34 588.91,-93.97 621,-102.82 627.31,-104.56 634.03,-106.45 640.48,-108.28"/>
<polygon fill="#9a32cd" stroke="#9a32cd" points="525.35,-73.55 514.79,-74.39 523.57,-80.32 525.35,-73.55"/>
</a>
</g>
<text text-anchor="middle" x="599" y="-105.82" font-family="Helvetica,sans-Serif" font-size="10.00" fill="grey"> callsites</text>
</g>
<!-- Node10&#45;&gt;Node9 -->
<g id="edge11_Node000009_Node000010" class="edge">
<title>Node10&#45;&gt;Node9</title>
<g id="a_edge11_Node000009_Node000010"><a xlink:title=" ">
<path fill="none" stroke="#9a32cd" stroke-dasharray="5,2" d="M233.77,-65.65C277.98,-65.5 343.15,-65.27 394.76,-65.1"/>
<polygon fill="#9a32cd" stroke="#9a32cd" points="233.55,-62.15 223.56,-65.68 233.57,-69.15 233.55,-62.15"/>
</a>
</g>
<text text-anchor="middle" x="323" y="-67.82" font-family="Helvetica,sans-Serif" font-size="10.00" fill="grey"> elements</text>
</g>
<!-- Node11&#45;&gt;Node9 -->
<g id="edge13_Node000009_Node000011" class="edge">
<title>Node11&#45;&gt;Node9</title>
<g id="a_edge13_Node000009_Node000011"><a xlink:title=" ">
<path fill="none" stroke="orange" stroke-dasharray="5,2" d="M243.23,-34.64C281.52,-38.54 332.24,-44 377,-49.82 389.58,-51.45 403.04,-53.38 415.85,-55.29"/>
<polygon fill="orange" stroke="orange" points="243.58,-31.16 233.28,-33.64 242.88,-38.12 243.58,-31.16"/>
</a>
</g>
<text text-anchor="middle" x="323" y="-52.82" font-family="Helvetica,sans-Serif" font-size="10.00" fill="grey"> &lt; edget, locationst &gt;</text>
</g>
</g>
</svg>
