<?xml version="1.0" encoding="UTF-8" standalone="no"?>
<!DOCTYPE svg PUBLIC "-//W3C//DTD SVG 1.1//EN"
 "http://www.w3.org/Graphics/SVG/1.1/DTD/svg11.dtd">
<!-- Generated by graphviz version 2.43.0 (0)
 -->
<!-- Title: smt_define_function_commandt Pages: 1 -->
<svg width="318pt" height="370pt"
 viewBox="0.00 0.00 318.00 370.00" xmlns="http://www.w3.org/2000/svg" xmlns:xlink="http://www.w3.org/1999/xlink">
<g id="graph0" class="graph" transform="scale(1 1) rotate(0) translate(4 366)">
<title>smt_define_function_commandt</title>
<!-- Node1 -->
<g id="Node000001" class="node">
<title>Node1</title>
<g id="a_Node000001"><a xlink:title=" ">
<polygon fill="#999999" stroke="#666666" points="189,-30 73,-30 73,0 189,0 189,-30"/>
<text text-anchor="start" x="81" y="-18" font-family="Helvetica,sans-Serif" font-size="10.00">smt_define_function</text>
<text text-anchor="middle" x="131" y="-7" font-family="Helvetica,sans-Serif" font-size="10.00">_commandt</text>
</a>
</g>
</g>
<!-- Node2 -->
<g id="Node000002" class="node">
<title>Node2</title>
<g id="a_Node000002"><a xlink:href="classsmt__commandt.html" target="_top" xlink:title=" ">
<polygon fill="white" stroke="#666666" points="114.5,-97 21.5,-97 21.5,-78 114.5,-78 114.5,-97"/>
<text text-anchor="middle" x="68" y="-85" font-family="Helvetica,sans-Serif" font-size="10.00">smt_commandt</text>
</a>
</g>
</g>
<!-- Node2&#45;&gt;Node1 -->
<g id="edge1_Node000001_Node000002" class="edge">
<title>Node2&#45;&gt;Node1</title>
<g id="a_edge1_Node000001_Node000002"><a xlink:title=" ">
<path fill="none" stroke="#63b8ff" d="M82.53,-70.24C93.38,-58.1 108.07,-41.66 118.42,-30.08"/>
<polygon fill="#63b8ff" stroke="#63b8ff" points="79.78,-68.07 75.73,-77.86 85,-72.73 79.78,-68.07"/>
</a>
</g>
</g>
<!-- Node3 -->
<g id="Node000003" class="node">
<title>Node3</title>
<g id="a_Node000003"><a xlink:href="classirept.html" target="_top" xlink:title="There are a large number of kinds of tree structured or tree&#45;like data in CPROVER.">
<polygon fill="white" stroke="#666666" points="87.5,-190.5 48.5,-190.5 48.5,-171.5 87.5,-171.5 87.5,-190.5"/>
<text text-anchor="middle" x="68" y="-178.5" font-family="Helvetica,sans-Serif" font-size="10.00">irept</text>
</a>
</g>
</g>
<!-- Node3&#45;&gt;Node2 -->
<g id="edge2_Node000002_Node000003" class="edge">
<title>Node3&#45;&gt;Node2</title>
<g id="a_edge2_Node000002_Node000003"><a xlink:title=" ">
<path fill="none" stroke="darkgreen" d="M68,-161.04C68,-141.42 68,-111.66 68,-97.11"/>
<polygon fill="darkgreen" stroke="darkgreen" points="64.5,-161.23 68,-171.23 71.5,-161.23 64.5,-161.23"/>
</a>
</g>
</g>
<!-- Node4 -->
<g id="Node000004" class="node">
<title>Node4</title>
<g id="a_Node000004"><a xlink:href="classsharing__treet.html" target="_top" xlink:title=" ">
<polygon fill="white" stroke="#666666" points="130.5,-274 5.5,-274 5.5,-233 130.5,-233 130.5,-274"/>
<text text-anchor="start" x="13.5" y="-262" font-family="Helvetica,sans-Serif" font-size="10.00">sharing_treet&lt; irept,</text>
<text text-anchor="start" x="13.5" y="-251" font-family="Helvetica,sans-Serif" font-size="10.00"> forward_list_as_mapt</text>
<text text-anchor="middle" x="68" y="-240" font-family="Helvetica,sans-Serif" font-size="10.00">&lt; irep_idt, irept &gt; &gt;</text>
</a>
</g>
</g>
<!-- Node4&#45;&gt;Node3 -->
<g id="edge3_Node000003_Node000004" class="edge">
<title>Node4&#45;&gt;Node3</title>
<g id="a_edge3_Node000003_Node000004"><a xlink:title=" ">
<path fill="none" stroke="#63b8ff" d="M68,-222.6C68,-211.03 68,-198.68 68,-190.67"/>
<polygon fill="#63b8ff" stroke="#63b8ff" points="64.5,-222.86 68,-232.86 71.5,-222.86 64.5,-222.86"/>
</a>
</g>
</g>
<!-- Node5 -->
<g id="Node000005" class="node">
<title>Node5</title>
<g id="a_Node000005"><a xlink:href="classsharing__treet.html" target="_top" xlink:title="Base class for tree&#45;like data structures with sharing.">
<polygon fill="white" stroke="#666666" points="136,-362 0,-362 0,-332 136,-332 136,-362"/>
<text text-anchor="start" x="8" y="-350" font-family="Helvetica,sans-Serif" font-size="10.00">sharing_treet&lt; derivedt,</text>
<text text-anchor="middle" x="68" y="-339" font-family="Helvetica,sans-Serif" font-size="10.00"> named_subtreest &gt;</text>
</a>
</g>
</g>
<!-- Node5&#45;&gt;Node4 -->
<g id="edge4_Node000004_Node000005" class="edge">
<title>Node5&#45;&gt;Node4</title>
<g id="a_edge4_Node000004_Node000005"><a xlink:title=" ">
<path fill="none" stroke="orange" stroke-dasharray="5,2" d="M68,-321.69C68,-306.82 68,-288.05 68,-274.13"/>
<polygon fill="orange" stroke="orange" points="64.5,-321.7 68,-331.7 71.5,-321.7 64.5,-321.7"/>
</a>
</g>
<text text-anchor="start" x="68" y="-306" font-family="Helvetica,sans-Serif" font-size="10.00" fill="grey"> &lt; irept, forward_list</text>
<text text-anchor="middle" x="141.5" y="-295" font-family="Helvetica,sans-Serif" font-size="10.00" fill="grey">_as_mapt&lt; irep_idt, irept &gt; &gt;</text>
</g>
<!-- Node6 -->
<g id="Node000006" class="node">
<title>Node6</title>
<g id="a_Node000006"><a xlink:href="classsmt__termt_1_1storert.html" target="_top" xlink:title=" ">
<polygon fill="white" stroke="#666666" points="259.5,-108 132.5,-108 132.5,-67 259.5,-67 259.5,-108"/>
<text text-anchor="start" x="140.5" y="-96" font-family="Helvetica,sans-Serif" font-size="10.00">smt_termt::storert</text>
<text text-anchor="start" x="140.5" y="-85" font-family="Helvetica,sans-Serif" font-size="10.00">&lt; smt_define_function</text>
<text text-anchor="middle" x="196" y="-74" font-family="Helvetica,sans-Serif" font-size="10.00">_commandt &gt;</text>
</a>
</g>
</g>
<!-- Node6&#45;&gt;Node1 -->
<g id="edge5_Node000001_Node000006" class="edge">
<title>Node6&#45;&gt;Node1</title>
<g id="a_edge5_Node000001_Node000006"><a xlink:title=" ">
<path fill="none" stroke="#8b1a1a" d="M170.85,-59.23C161.79,-49.39 151.92,-38.69 144.27,-30.39"/>
<polygon fill="#8b1a1a" stroke="#8b1a1a" points="168.54,-61.88 177.89,-66.86 173.69,-57.14 168.54,-61.88"/>
</a>
</g>
</g>
<!-- Node7 -->
<g id="Node000007" class="node">
<title>Node7</title>
<g id="a_Node000007"><a xlink:href="classsmt__termt_1_1storert.html" target="_top" xlink:title="Class for adding the ability to up and down cast smt_termt to and from irept.">
<polygon fill="white" stroke="#666666" points="249,-196 143,-196 143,-166 249,-166 249,-196"/>
<text text-anchor="start" x="151" y="-184" font-family="Helvetica,sans-Serif" font-size="10.00">smt_termt::storert</text>
<text text-anchor="middle" x="196" y="-173" font-family="Helvetica,sans-Serif" font-size="10.00">&lt; derivedt &gt;</text>
</a>
</g>
</g>
<!-- Node7&#45;&gt;Node6 -->
<g id="edge6_Node000006_Node000007" class="edge">
<title>Node7&#45;&gt;Node6</title>
<g id="a_edge6_Node000006_Node000007"><a xlink:title=" ">
<path fill="none" stroke="orange" stroke-dasharray="5,2" d="M196,-155.69C196,-140.82 196,-122.05 196,-108.13"/>
<polygon fill="orange" stroke="orange" points="192.5,-155.7 196,-165.7 199.5,-155.7 192.5,-155.7"/>
</a>
</g>
<text text-anchor="start" x="196" y="-140" font-family="Helvetica,sans-Serif" font-size="10.00" fill="grey"> &lt; smt_define_function</text>
<text text-anchor="middle" x="253" y="-129" font-family="Helvetica,sans-Serif" font-size="10.00" fill="grey">_commandt &gt;</text>
</g>
</g>
</svg>
