<?xml version="1.0" encoding="UTF-8" standalone="no"?>
<!DOCTYPE svg PUBLIC "-//W3C//DTD SVG 1.1//EN"
 "http://www.w3.org/Graphics/SVG/1.1/DTD/svg11.dtd">
<!-- Generated by graphviz version 2.43.0 (0)
 -->
<!-- Title: interval_evaluator Pages: 1 -->
<svg width="2350pt" height="630pt"
 viewBox="0.00 0.00 2350.00 629.50" xmlns="http://www.w3.org/2000/svg" xmlns:xlink="http://www.w3.org/1999/xlink">
<g id="graph0" class="graph" transform="scale(1 1) rotate(0) translate(4 625.5)">
<title>interval_evaluator</title>
<!-- Node1 -->
<g id="Node000001" class="node">
<title>Node1</title>
<g id="a_Node000001"><a xlink:title=" ">
<polygon fill="#999999" stroke="#666666" points="2342,-482 2236,-482 2236,-463 2342,-463 2342,-482"/>
<text text-anchor="middle" x="2289" y="-470" font-family="Helvetica,sans-Serif" font-size="10.00">interval_evaluator</text>
</a>
</g>
</g>
<!-- Node2 -->
<g id="Node000002" class="node">
<title>Node2</title>
<g id="a_Node000002"><a xlink:href="classexprt.html" target="_top" xlink:title="Base class for all expressions.">
<polygon fill="white" stroke="#666666" points="2091,-543 2049,-543 2049,-524 2091,-524 2091,-543"/>
<text text-anchor="middle" x="2070" y="-531" font-family="Helvetica,sans-Serif" font-size="10.00">exprt</text>
</a>
</g>
</g>
<!-- Node2&#45;&gt;Node1 -->
<g id="edge1_Node000001_Node000002" class="edge">
<title>Node2&#45;&gt;Node1</title>
<g id="a_edge1_Node000001_Node000002"><a xlink:title=" ">
<path fill="none" stroke="#9a32cd" stroke-dasharray="5,2" d="M2101.77,-531.03C2131.98,-527.97 2179.07,-521.48 2218,-508.5 2237.84,-501.89 2258.97,-490.32 2272.76,-482.08"/>
<polygon fill="#9a32cd" stroke="#9a32cd" points="2101.07,-527.58 2091.45,-532.01 2101.74,-534.55 2101.07,-527.58"/>
</a>
</g>
<text text-anchor="middle" x="2185" y="-526.5" font-family="Helvetica,sans-Serif" font-size="10.00" fill="grey"> expression</text>
</g>
<!-- Node3 -->
<g id="Node000003" class="node">
<title>Node3</title>
<g id="a_Node000003"><a xlink:href="classirept.html" target="_top" xlink:title="There are a large number of kinds of tree structured or tree&#45;like data in CPROVER.">
<polygon fill="white" stroke="#666666" points="1890,-549 1851,-549 1851,-530 1890,-530 1890,-549"/>
<text text-anchor="middle" x="1870.5" y="-537" font-family="Helvetica,sans-Serif" font-size="10.00">irept</text>
</a>
</g>
</g>
<!-- Node3&#45;&gt;Node2 -->
<g id="edge2_Node000002_Node000003" class="edge">
<title>Node3&#45;&gt;Node2</title>
<g id="a_edge2_Node000002_Node000003"><a xlink:title=" ">
<path fill="none" stroke="#63b8ff" d="M1900.1,-538.63C1940.59,-537.4 2013.6,-535.18 2048.86,-534.11"/>
<polygon fill="#63b8ff" stroke="#63b8ff" points="1899.97,-535.13 1890.08,-538.94 1900.18,-542.13 1899.97,-535.13"/>
</a>
</g>
</g>
<!-- Node4 -->
<g id="Node000004" class="node">
<title>Node4</title>
<g id="a_Node000004"><a xlink:href="classsharing__treet.html" target="_top" xlink:title=" ">
<polygon fill="white" stroke="#666666" points="1643,-566 1518,-566 1518,-525 1643,-525 1643,-566"/>
<text text-anchor="start" x="1526" y="-554" font-family="Helvetica,sans-Serif" font-size="10.00">sharing_treet&lt; irept,</text>
<text text-anchor="start" x="1526" y="-543" font-family="Helvetica,sans-Serif" font-size="10.00"> forward_list_as_mapt</text>
<text text-anchor="middle" x="1580.5" y="-532" font-family="Helvetica,sans-Serif" font-size="10.00">&lt; irep_idt, irept &gt; &gt;</text>
</a>
</g>
</g>
<!-- Node4&#45;&gt;Node3 -->
<g id="edge3_Node000003_Node000004" class="edge">
<title>Node4&#45;&gt;Node3</title>
<g id="a_edge3_Node000003_Node000004"><a xlink:title=" ">
<path fill="none" stroke="#63b8ff" d="M1653.59,-544C1719.29,-542.63 1811.87,-540.7 1850.94,-539.89"/>
<polygon fill="#63b8ff" stroke="#63b8ff" points="1653.21,-540.51 1643.28,-544.21 1653.35,-547.5 1653.21,-540.51"/>
</a>
</g>
</g>
<!-- Node5 -->
<g id="Node000005" class="node">
<title>Node5</title>
<g id="a_Node000005"><a xlink:href="classtree__nodet.html" target="_top" xlink:title="A node with data in a tree, it contains:">
<polygon fill="white" stroke="#666666" points="1039,-590.5 881,-590.5 881,-560.5 1039,-560.5 1039,-590.5"/>
<text text-anchor="start" x="889" y="-578.5" font-family="Helvetica,sans-Serif" font-size="10.00">tree_nodet&lt; treet,</text>
<text text-anchor="middle" x="960" y="-567.5" font-family="Helvetica,sans-Serif" font-size="10.00"> named_subtreest, sharing &gt;</text>
</a>
</g>
</g>
<!-- Node5&#45;&gt;Node4 -->
<g id="edge4_Node000004_Node000005" class="edge">
<title>Node5&#45;&gt;Node4</title>
<g id="a_edge4_Node000004_Node000005"><a xlink:title=" ">
<path fill="none" stroke="#9a32cd" stroke-dasharray="5,2" d="M1049.09,-563.39C1088.98,-558.43 1136.78,-553.23 1180,-550.5 1299.41,-542.96 1439.29,-543.31 1517.83,-544.34"/>
<polygon fill="#9a32cd" stroke="#9a32cd" points="1048.61,-559.92 1039.13,-564.64 1049.49,-566.86 1048.61,-559.92"/>
</a>
</g>
<text text-anchor="middle" x="1248" y="-564.5" font-family="Helvetica,sans-Serif" font-size="10.00" fill="grey"> data</text>
<text text-anchor="middle" x="1248" y="-553.5" font-family="Helvetica,sans-Serif" font-size="10.00" fill="grey">empty_d</text>
</g>
<!-- Node11 -->
<g id="Node000011" class="node">
<title>Node11</title>
<g id="a_Node000011"><a xlink:href="classsharing__treet.html" target="_top" xlink:title="Base class for tree&#45;like data structures with sharing.">
<polygon fill="white" stroke="#666666" points="1316,-611.5 1180,-611.5 1180,-581.5 1316,-581.5 1316,-611.5"/>
<text text-anchor="start" x="1188" y="-599.5" font-family="Helvetica,sans-Serif" font-size="10.00">sharing_treet&lt; derivedt,</text>
<text text-anchor="middle" x="1248" y="-588.5" font-family="Helvetica,sans-Serif" font-size="10.00"> named_subtreest &gt;</text>
</a>
</g>
</g>
<!-- Node5&#45;&gt;Node11 -->
<g id="edge11_Node000011_Node000005" class="edge">
<title>Node5&#45;&gt;Node11</title>
<g id="a_edge11_Node000011_Node000005"><a xlink:title=" ">
<path fill="none" stroke="#9a32cd" stroke-dasharray="5,2" d="M1049.37,-581.99C1091.36,-585.07 1140.73,-588.7 1179.63,-591.55"/>
<polygon fill="#9a32cd" stroke="#9a32cd" points="1049.38,-578.48 1039.15,-581.24 1048.87,-585.46 1049.38,-578.48"/>
</a>
</g>
<text text-anchor="middle" x="1109.5" y="-603.5" font-family="Helvetica,sans-Serif" font-size="10.00" fill="grey"> data</text>
<text text-anchor="middle" x="1109.5" y="-592.5" font-family="Helvetica,sans-Serif" font-size="10.00" fill="grey">empty_d</text>
</g>
<!-- Node6 -->
<g id="Node000006" class="node">
<title>Node6</title>
<g id="a_Node000006"><a xlink:href="structref__count__ift.html" target="_top" xlink:title="Used in tree_nodet for activating or not reference counting.">
<polygon fill="white" stroke="#666666" points="691.5,-548 552.5,-548 552.5,-529 691.5,-529 691.5,-548"/>
<text text-anchor="middle" x="622" y="-536" font-family="Helvetica,sans-Serif" font-size="10.00">ref_count_ift&lt; enabled &gt;</text>
</a>
</g>
</g>
<!-- Node6&#45;&gt;Node5 -->
<g id="edge5_Node000005_Node000006" class="edge">
<title>Node6&#45;&gt;Node5</title>
<g id="a_edge5_Node000005_Node000006"><a xlink:title=" ">
<path fill="none" stroke="#63b8ff" d="M702.01,-547.2C755.96,-553.14 827.12,-560.98 880.88,-566.9"/>
<polygon fill="#63b8ff" stroke="#63b8ff" points="702.13,-543.69 691.81,-546.08 701.36,-550.65 702.13,-543.69"/>
</a>
</g>
</g>
<!-- Node7 -->
<g id="Node000007" class="node">
<title>Node7</title>
<g id="a_Node000007"><a xlink:href="classdstringt.html" target="_top" xlink:title="dstringt has one field, an unsigned integer no which is an index into a static table of strings.">
<polygon fill="white" stroke="#666666" points="325,-612 271,-612 271,-593 325,-593 325,-612"/>
<text text-anchor="middle" x="298" y="-600" font-family="Helvetica,sans-Serif" font-size="10.00">dstringt</text>
</a>
</g>
</g>
<!-- Node7&#45;&gt;Node5 -->
<g id="edge6_Node000005_Node000007" class="edge">
<title>Node7&#45;&gt;Node5</title>
<g id="a_edge6_Node000005_Node000007"><a xlink:title=" ">
<path fill="none" stroke="#9a32cd" stroke-dasharray="5,2" d="M335.3,-605.25C348.99,-606.16 364.7,-607.05 379,-607.5 594.14,-614.22 648.89,-612.53 863,-590.5 868.79,-589.9 874.76,-589.2 880.76,-588.42"/>
<polygon fill="#9a32cd" stroke="#9a32cd" points="335.5,-601.75 325.28,-604.56 335.02,-608.74 335.5,-601.75"/>
</a>
</g>
<text text-anchor="middle" x="622" y="-613.5" font-family="Helvetica,sans-Serif" font-size="10.00" fill="grey"> data</text>
</g>
<!-- Node35 -->
<g id="Node000035" class="node">
<title>Node35</title>
<g id="a_Node000035"><a xlink:title=" ">
<polygon fill="white" stroke="#666666" points="679.5,-462.5 564.5,-462.5 564.5,-432.5 679.5,-432.5 679.5,-462.5"/>
<text text-anchor="start" x="572.5" y="-450.5" font-family="Helvetica,sans-Serif" font-size="10.00">std::multimap&lt; irep</text>
<text text-anchor="middle" x="622" y="-439.5" font-family="Helvetica,sans-Serif" font-size="10.00">_idt, irep_idt &gt;</text>
</a>
</g>
</g>
<!-- Node7&#45;&gt;Node35 -->
<g id="edge46_Node000035_Node000007" class="edge">
<title>Node7&#45;&gt;Node35</title>
<g id="a_edge46_Node000035_Node000007"><a xlink:title=" ">
<path fill="none" stroke="#9a32cd" stroke-dasharray="5,2" d="M335.27,-594.54C348.96,-591.6 364.68,-588.31 379,-585.5 443.25,-572.92 477.14,-605.23 524,-559.5 552.57,-531.62 515.12,-501.01 542,-471.5 548.08,-464.82 555.95,-459.98 564.37,-456.47"/>
<polygon fill="#9a32cd" stroke="#9a32cd" points="334.3,-591.17 325.26,-596.7 335.77,-598.01 334.3,-591.17"/>
</a>
</g>
<text text-anchor="middle" x="451.5" y="-599.5" font-family="Helvetica,sans-Serif" font-size="10.00" fill="grey"> elements</text>
<text text-anchor="middle" x="451.5" y="-588.5" font-family="Helvetica,sans-Serif" font-size="10.00" fill="grey">keys</text>
</g>
<!-- Node8 -->
<g id="Node000008" class="node">
<title>Node8</title>
<g id="a_Node000008"><a xlink:title=" ">
<polygon fill="white" stroke="#666666" points="679,-585 565,-585 565,-566 679,-566 679,-585"/>
<text text-anchor="middle" x="622" y="-573" font-family="Helvetica,sans-Serif" font-size="10.00">std::vector&lt; treet &gt;</text>
</a>
</g>
</g>
<!-- Node8&#45;&gt;Node5 -->
<g id="edge7_Node000005_Node000008" class="edge">
<title>Node8&#45;&gt;Node5</title>
<g id="a_edge7_Node000005_Node000008"><a xlink:title=" ">
<path fill="none" stroke="#9a32cd" stroke-dasharray="5,2" d="M689.58,-575.5C744.61,-575.5 822.85,-575.5 880.85,-575.5"/>
<polygon fill="#9a32cd" stroke="#9a32cd" points="689.24,-572 679.24,-575.5 689.24,-579 689.24,-572"/>
</a>
</g>
<text text-anchor="middle" x="791.5" y="-578.5" font-family="Helvetica,sans-Serif" font-size="10.00" fill="grey"> sub</text>
</g>
<!-- Node9 -->
<g id="Node000009" class="node">
<title>Node9</title>
<g id="a_Node000009"><a xlink:title=" ">
<polygon fill="white" stroke="#666666" points="346.5,-509 249.5,-509 249.5,-490 346.5,-490 346.5,-509"/>
<text text-anchor="middle" x="298" y="-497" font-family="Helvetica,sans-Serif" font-size="10.00">std::vector&lt; T &gt;</text>
</a>
</g>
</g>
<!-- Node9&#45;&gt;Node8 -->
<g id="edge8_Node000008_Node000009" class="edge">
<title>Node9&#45;&gt;Node8</title>
<g id="a_edge8_Node000008_Node000009"><a xlink:title=" ">
<path fill="none" stroke="orange" stroke-dasharray="5,2" d="M356.93,-510.41C412.98,-521.28 493.74,-537.83 524,-548.5 532.44,-551.47 533.58,-554.48 542,-557.5 551.14,-560.77 561.09,-563.59 570.75,-565.96"/>
<polygon fill="orange" stroke="orange" points="357.26,-506.91 346.77,-508.45 355.93,-513.78 357.26,-506.91"/>
</a>
</g>
<text text-anchor="middle" x="451.5" y="-551.5" font-family="Helvetica,sans-Serif" font-size="10.00" fill="grey"> &lt; treet &gt;</text>
</g>
<!-- Node12 -->
<g id="Node000012" class="node">
<title>Node12</title>
<g id="a_Node000012"><a xlink:title=" ">
<polygon fill="white" stroke="#666666" points="681.5,-510.5 562.5,-510.5 562.5,-480.5 681.5,-480.5 681.5,-510.5"/>
<text text-anchor="start" x="570.5" y="-498.5" font-family="Helvetica,sans-Serif" font-size="10.00">std::vector&lt; abstract</text>
<text text-anchor="middle" x="622" y="-487.5" font-family="Helvetica,sans-Serif" font-size="10.00">_object_pointert &gt;</text>
</a>
</g>
</g>
<!-- Node9&#45;&gt;Node12 -->
<g id="edge15_Node000012_Node000009" class="edge">
<title>Node9&#45;&gt;Node12</title>
<g id="a_edge15_Node000012_Node000009"><a xlink:title=" ">
<path fill="none" stroke="orange" stroke-dasharray="5,2" d="M356.63,-498.78C414.71,-498.06 503.91,-496.95 562.36,-496.23"/>
<polygon fill="orange" stroke="orange" points="356.47,-495.29 346.51,-498.91 356.55,-502.29 356.47,-495.29"/>
</a>
</g>
<text text-anchor="middle" x="451.5" y="-500.5" font-family="Helvetica,sans-Serif" font-size="10.00" fill="grey"> &lt; abstract_object_pointert &gt;</text>
</g>
<!-- Node10 -->
<g id="Node000010" class="node">
<title>Node10</title>
<g id="a_Node000010"><a xlink:title=" ">
<polygon fill="white" stroke="#666666" points="89.5,-439 60.5,-439 60.5,-420 89.5,-420 89.5,-439"/>
<text text-anchor="middle" x="75" y="-427" font-family="Helvetica,sans-Serif" font-size="10.00">T</text>
</a>
</g>
</g>
<!-- Node10&#45;&gt;Node9 -->
<g id="edge9_Node000009_Node000010" class="edge">
<title>Node10&#45;&gt;Node9</title>
<g id="a_edge9_Node000009_Node000010"><a xlink:title=" ">
<path fill="none" stroke="#9a32cd" stroke-dasharray="5,2" d="M98.91,-438.94C117.39,-446.37 144.14,-456.75 168,-464.5 197.9,-474.22 232.29,-483.45 258.04,-490"/>
<polygon fill="#9a32cd" stroke="#9a32cd" points="100.15,-435.66 89.57,-435.14 97.51,-442.15 100.15,-435.66"/>
</a>
</g>
<text text-anchor="middle" x="192.5" y="-480.5" font-family="Helvetica,sans-Serif" font-size="10.00" fill="grey"> elements</text>
</g>
<!-- Node13 -->
<g id="Node000013" class="node">
<title>Node13</title>
<g id="a_Node000013"><a xlink:title=" ">
<polygon fill="white" stroke="#666666" points="357,-472 239,-472 239,-453 357,-453 357,-472"/>
<text text-anchor="middle" x="298" y="-460" font-family="Helvetica,sans-Serif" font-size="10.00">std::shared_ptr&lt; T &gt;</text>
</a>
</g>
</g>
<!-- Node10&#45;&gt;Node13 -->
<g id="edge14_Node000013_Node000010" class="edge">
<title>Node10&#45;&gt;Node13</title>
<g id="a_edge14_Node000013_Node000010"><a xlink:title=" ">
<path fill="none" stroke="#9a32cd" stroke-dasharray="5,2" d="M99.9,-433.07C132.93,-438 193.56,-447.05 238.89,-453.82"/>
<polygon fill="#9a32cd" stroke="#9a32cd" points="100.23,-429.58 89.82,-431.56 99.2,-436.5 100.23,-429.58"/>
</a>
</g>
<text text-anchor="middle" x="192.5" y="-452.5" font-family="Helvetica,sans-Serif" font-size="10.00" fill="grey"> ptr</text>
</g>
<!-- Node26 -->
<g id="Node000026" class="node">
<title>Node26</title>
<g id="a_Node000026"><a xlink:title=" ">
<polygon fill="white" stroke="#666666" points="348.5,-279 247.5,-279 247.5,-260 348.5,-260 348.5,-279"/>
<text text-anchor="middle" x="298" y="-267" font-family="Helvetica,sans-Serif" font-size="10.00">std::map&lt; K, T &gt;</text>
</a>
</g>
</g>
<!-- Node10&#45;&gt;Node26 -->
<g id="edge34_Node000026_Node000010" class="edge">
<title>Node10&#45;&gt;Node26</title>
<g id="a_edge34_Node000026_Node000010"><a xlink:title=" ">
<path fill="none" stroke="#9a32cd" stroke-dasharray="5,2" d="M89.11,-411.59C105.62,-389.98 135.74,-353.58 168,-329.5 187.43,-314.99 195.5,-316.73 217,-305.5 225.11,-301.26 226.77,-299.5 235,-295.5 247.18,-289.59 261.05,-283.69 272.58,-279.02"/>
<polygon fill="#9a32cd" stroke="#9a32cd" points="86.1,-409.76 82.9,-419.86 91.7,-413.96 86.1,-409.76"/>
</a>
</g>
<text text-anchor="middle" x="192.5" y="-332.5" font-family="Helvetica,sans-Serif" font-size="10.00" fill="grey"> elements</text>
</g>
<!-- Node34 -->
<g id="Node000034" class="node">
<title>Node34</title>
<g id="a_Node000034"><a xlink:title=" ">
<polygon fill="white" stroke="#666666" points="355,-376.5 241,-376.5 241,-346.5 355,-346.5 355,-376.5"/>
<text text-anchor="start" x="249" y="-364.5" font-family="Helvetica,sans-Serif" font-size="10.00">std::unordered_map</text>
<text text-anchor="middle" x="298" y="-353.5" font-family="Helvetica,sans-Serif" font-size="10.00">&lt; K, T &gt;</text>
</a>
</g>
</g>
<!-- Node10&#45;&gt;Node34 -->
<g id="edge44_Node000034_Node000010" class="edge">
<title>Node10&#45;&gt;Node34</title>
<g id="a_edge44_Node000034_Node000010"><a xlink:title=" ">
<path fill="none" stroke="#9a32cd" stroke-dasharray="5,2" d="M99.33,-421.69C117.9,-415.52 144.55,-406.77 168,-399.5 193.2,-391.68 221.28,-383.36 244.8,-376.51"/>
<polygon fill="#9a32cd" stroke="#9a32cd" points="98.06,-418.42 89.68,-424.9 100.27,-425.06 98.06,-418.42"/>
</a>
</g>
<text text-anchor="middle" x="192.5" y="-402.5" font-family="Helvetica,sans-Serif" font-size="10.00" fill="grey"> elements</text>
</g>
<!-- Node36 -->
<g id="Node000036" class="node">
<title>Node36</title>
<g id="a_Node000036"><a xlink:title=" ">
<polygon fill="white" stroke="#666666" points="361,-414 235,-414 235,-395 361,-395 361,-414"/>
<text text-anchor="middle" x="298" y="-402" font-family="Helvetica,sans-Serif" font-size="10.00">std::multimap&lt; K, T &gt;</text>
</a>
</g>
</g>
<!-- Node10&#45;&gt;Node36 -->
<g id="edge49_Node000036_Node000010" class="edge">
<title>Node10&#45;&gt;Node36</title>
<g id="a_edge49_Node000036_Node000010"><a xlink:title=" ">
<path fill="none" stroke="#9a32cd" stroke-dasharray="5,2" d="M100.03,-426.78C132.13,-423.15 190.15,-416.59 234.94,-411.52"/>
<polygon fill="#9a32cd" stroke="#9a32cd" points="99.37,-423.33 89.82,-427.94 100.15,-430.29 99.37,-423.33"/>
</a>
</g>
<text text-anchor="middle" x="192.5" y="-421.5" font-family="Helvetica,sans-Serif" font-size="10.00" fill="grey"> elements</text>
</g>
<!-- Node11&#45;&gt;Node4 -->
<g id="edge10_Node000004_Node000011" class="edge">
<title>Node11&#45;&gt;Node4</title>
<g id="a_edge10_Node000004_Node000011"><a xlink:title=" ">
<path fill="none" stroke="orange" stroke-dasharray="5,2" d="M1326.2,-584.59C1384.59,-575.58 1463.71,-563.37 1517.89,-555.01"/>
<polygon fill="orange" stroke="orange" points="1325.63,-581.13 1316.28,-586.12 1326.7,-588.05 1325.63,-581.13"/>
</a>
</g>
<text text-anchor="start" x="1334" y="-596.5" font-family="Helvetica,sans-Serif" font-size="10.00" fill="grey"> &lt; irept, forward_list</text>
<text text-anchor="middle" x="1407.5" y="-585.5" font-family="Helvetica,sans-Serif" font-size="10.00" fill="grey">_as_mapt&lt; irep_idt, irept &gt; &gt;</text>
</g>
<!-- Node12&#45;&gt;Node1 -->
<g id="edge12_Node000001_Node000012" class="edge">
<title>Node12&#45;&gt;Node1</title>
<g id="a_edge12_Node000001_Node000012"><a xlink:title=" ">
<path fill="none" stroke="#9a32cd" stroke-dasharray="5,2" d="M691.72,-495.5C759.63,-495.5 866.48,-495.5 959,-495.5 959,-495.5 959,-495.5 2071,-495.5 2127.64,-495.5 2192.13,-487.66 2235.99,-481.13"/>
<polygon fill="#9a32cd" stroke="#9a32cd" points="691.57,-492 681.57,-495.5 691.57,-499 691.57,-492"/>
</a>
</g>
<text text-anchor="middle" x="1580.5" y="-498.5" font-family="Helvetica,sans-Serif" font-size="10.00" fill="grey"> operands</text>
</g>
<!-- Node13&#45;&gt;Node12 -->
<g id="edge13_Node000012_Node000013" class="edge">
<title>Node13&#45;&gt;Node12</title>
<g id="a_edge13_Node000012_Node000013"><a xlink:title=" ">
<path fill="none" stroke="#9a32cd" stroke-dasharray="5,2" d="M367.52,-467.23C412.15,-470.57 471.61,-475.51 524,-481.5 536.42,-482.92 549.71,-484.68 562.34,-486.46"/>
<polygon fill="#9a32cd" stroke="#9a32cd" points="367.6,-463.73 357.37,-466.48 367.08,-470.71 367.6,-463.73"/>
</a>
</g>
<text text-anchor="middle" x="451.5" y="-484.5" font-family="Helvetica,sans-Serif" font-size="10.00" fill="grey"> elements</text>
</g>
<!-- Node23 -->
<g id="Node000023" class="node">
<title>Node23</title>
<g id="a_Node000023"><a xlink:title=" ">
<polygon fill="white" stroke="#666666" points="1662,-364.5 1499,-364.5 1499,-334.5 1662,-334.5 1662,-364.5"/>
<text text-anchor="start" x="1507" y="-352.5" font-family="Helvetica,sans-Serif" font-size="10.00">std::shared_ptr&lt; variable</text>
<text text-anchor="middle" x="1580.5" y="-341.5" font-family="Helvetica,sans-Serif" font-size="10.00">_sensitivity_object_factoryt &gt;</text>
</a>
</g>
</g>
<!-- Node13&#45;&gt;Node23 -->
<g id="edge38_Node000023_Node000013" class="edge">
<title>Node13&#45;&gt;Node23</title>
<g id="a_edge38_Node000023_Node000013"><a xlink:title=" ">
<path fill="none" stroke="orange" stroke-dasharray="5,2" d="M365.5,-451.27C414.3,-443.17 482.19,-432.18 542,-423.5 692.36,-401.68 729.61,-392.33 881,-379.5 1146.93,-356.97 1214.46,-368.95 1481,-355.5 1486.82,-355.21 1492.83,-354.89 1498.88,-354.55"/>
<polygon fill="orange" stroke="orange" points="364.68,-447.86 355.39,-452.96 365.83,-454.77 364.68,-447.86"/>
</a>
</g>
<text text-anchor="start" x="904.5" y="-393.5" font-family="Helvetica,sans-Serif" font-size="10.00" fill="grey"> &lt; variable_sensitivity</text>
<text text-anchor="middle" x="960" y="-382.5" font-family="Helvetica,sans-Serif" font-size="10.00" fill="grey">_object_factoryt &gt;</text>
</g>
<!-- Node14 -->
<g id="Node000014" class="node">
<title>Node14</title>
<g id="a_Node000014"><a xlink:href="classabstract__environmentt.html" target="_top" xlink:title=" ">
<polygon fill="white" stroke="#666666" points="2134,-359 2006,-359 2006,-340 2134,-340 2134,-359"/>
<text text-anchor="middle" x="2070" y="-347" font-family="Helvetica,sans-Serif" font-size="10.00">abstract_environmentt</text>
</a>
</g>
</g>
<!-- Node14&#45;&gt;Node1 -->
<g id="edge16_Node000001_Node000014" class="edge">
<title>Node14&#45;&gt;Node1</title>
<g id="a_edge16_Node000001_Node000014"><a xlink:title=" ">
<path fill="none" stroke="#9a32cd" stroke-dasharray="5,2" d="M2101.05,-363.42C2131.2,-377.72 2178.67,-401.11 2218,-424.5 2238.65,-436.78 2261.38,-452.88 2275.17,-462.96"/>
<polygon fill="#9a32cd" stroke="#9a32cd" points="2102.44,-360.21 2091.9,-359.11 2099.46,-366.54 2102.44,-360.21"/>
</a>
</g>
<text text-anchor="middle" x="2185" y="-427.5" font-family="Helvetica,sans-Serif" font-size="10.00" fill="grey"> environment</text>
</g>
<!-- Node15 -->
<g id="Node000015" class="node">
<title>Node15</title>
<g id="a_Node000015"><a xlink:href="classsharing__mapt.html" target="_top" xlink:title=" ">
<polygon fill="white" stroke="#666666" points="1945,-212.5 1796,-212.5 1796,-182.5 1945,-182.5 1945,-212.5"/>
<text text-anchor="start" x="1804" y="-200.5" font-family="Helvetica,sans-Serif" font-size="10.00">sharing_mapt&lt; dstringt,</text>
<text text-anchor="middle" x="1870.5" y="-189.5" font-family="Helvetica,sans-Serif" font-size="10.00"> abstract_object_pointert &gt;</text>
</a>
</g>
</g>
<!-- Node15&#45;&gt;Node14 -->
<g id="edge17_Node000014_Node000015" class="edge">
<title>Node15&#45;&gt;Node14</title>
<g id="a_edge17_Node000014_Node000015"><a xlink:title=" ">
<path fill="none" stroke="#9a32cd" stroke-dasharray="5,2" d="M1899.3,-218.9C1942.74,-252.33 2024.99,-315.63 2056.39,-339.79"/>
<polygon fill="#9a32cd" stroke="#9a32cd" points="1901.22,-215.96 1891.16,-212.63 1896.95,-221.5 1901.22,-215.96"/>
</a>
</g>
<text text-anchor="middle" x="1975.5" y="-290.5" font-family="Helvetica,sans-Serif" font-size="10.00" fill="grey"> map</text>
</g>
<!-- Node16 -->
<g id="Node000016" class="node">
<title>Node16</title>
<g id="a_Node000016"><a xlink:href="classsharing__nodet.html" target="_top" xlink:title=" ">
<polygon fill="white" stroke="#666666" points="1312,-162.5 1184,-162.5 1184,-132.5 1312,-132.5 1312,-162.5"/>
<text text-anchor="start" x="1192" y="-150.5" font-family="Helvetica,sans-Serif" font-size="10.00">sharing_nodet&lt; key</text>
<text text-anchor="middle" x="1248" y="-139.5" font-family="Helvetica,sans-Serif" font-size="10.00">_type, mapped_type &gt;</text>
</a>
</g>
</g>
<!-- Node16&#45;&gt;Node15 -->
<g id="edge18_Node000015_Node000016" class="edge">
<title>Node16&#45;&gt;Node15</title>
<g id="a_edge18_Node000015_Node000016"><a xlink:title=" ">
<path fill="none" stroke="#9a32cd" stroke-dasharray="5,2" d="M1322.25,-145.28C1405.01,-143.66 1543.59,-143.61 1662,-156.5 1711.65,-161.9 1767.11,-173.14 1808.19,-182.48"/>
<polygon fill="#9a32cd" stroke="#9a32cd" points="1322.12,-141.78 1312.19,-145.49 1322.26,-148.78 1322.12,-141.78"/>
</a>
</g>
<text text-anchor="middle" x="1580.5" y="-159.5" font-family="Helvetica,sans-Serif" font-size="10.00" fill="grey"> map</text>
</g>
<!-- Node22 -->
<g id="Node000022" class="node">
<title>Node22</title>
<g id="a_Node000022"><a xlink:href="classsharing__mapt.html" target="_top" xlink:title="A map implemented as a tree where subtrees can be shared between different maps.">
<polygon fill="white" stroke="#666666" points="1641.5,-218 1519.5,-218 1519.5,-177 1641.5,-177 1641.5,-218"/>
<text text-anchor="start" x="1527.5" y="-206" font-family="Helvetica,sans-Serif" font-size="10.00">sharing_mapt&lt; keyT,</text>
<text text-anchor="start" x="1527.5" y="-195" font-family="Helvetica,sans-Serif" font-size="10.00"> valueT, fail_if_equal,</text>
<text text-anchor="middle" x="1580.5" y="-184" font-family="Helvetica,sans-Serif" font-size="10.00"> hashT, equalT &gt;</text>
</a>
</g>
</g>
<!-- Node16&#45;&gt;Node22 -->
<g id="edge28_Node000022_Node000016" class="edge">
<title>Node16&#45;&gt;Node22</title>
<g id="a_edge28_Node000022_Node000016"><a xlink:title=" ">
<path fill="none" stroke="#9a32cd" stroke-dasharray="5,2" d="M1322.13,-159.63C1326.14,-160.27 1330.12,-160.9 1334,-161.5 1397.21,-171.34 1469.69,-181.88 1519.42,-188.99"/>
<polygon fill="#9a32cd" stroke="#9a32cd" points="1322.54,-156.15 1312.11,-158.02 1321.43,-163.06 1322.54,-156.15"/>
</a>
</g>
<text text-anchor="middle" x="1407.5" y="-186.5" font-family="Helvetica,sans-Serif" font-size="10.00" fill="grey"> map</text>
</g>
<!-- Node17 -->
<g id="Node000017" class="node">
<title>Node17</title>
<g id="a_Node000017"><a xlink:href="classsmall__shared__n__way__ptrt.html" target="_top" xlink:title=" ">
<polygon fill="white" stroke="#666666" points="699.5,-85 544.5,-85 544.5,0 699.5,0 699.5,-85"/>
<text text-anchor="start" x="552.5" y="-73" font-family="Helvetica,sans-Serif" font-size="10.00">small_shared_n_way</text>
<text text-anchor="start" x="552.5" y="-62" font-family="Helvetica,sans-Serif" font-size="10.00">_ptrt&lt; d_containert</text>
<text text-anchor="start" x="552.5" y="-51" font-family="Helvetica,sans-Serif" font-size="10.00">&lt; key_type, mapped_type,</text>
<text text-anchor="start" x="552.5" y="-40" font-family="Helvetica,sans-Serif" font-size="10.00"> equalT &gt;, d_leaft&lt; key</text>
<text text-anchor="start" x="552.5" y="-29" font-family="Helvetica,sans-Serif" font-size="10.00">_type, mapped_type, equalT</text>
<text text-anchor="start" x="552.5" y="-18" font-family="Helvetica,sans-Serif" font-size="10.00"> &gt;, d_internalt&lt; key_type,</text>
<text text-anchor="middle" x="622" y="-7" font-family="Helvetica,sans-Serif" font-size="10.00"> mapped_type, equalT &gt; &gt;</text>
</a>
</g>
</g>
<!-- Node17&#45;&gt;Node16 -->
<g id="edge19_Node000016_Node000017" class="edge">
<title>Node17&#45;&gt;Node16</title>
<g id="a_edge19_Node000016_Node000017"><a xlink:title=" ">
<path fill="none" stroke="#9a32cd" stroke-dasharray="5,2" d="M709.62,-57.08C836.96,-78.5 1071.72,-118.01 1183.99,-136.9"/>
<polygon fill="#9a32cd" stroke="#9a32cd" points="709.96,-53.58 699.51,-55.38 708.8,-60.49 709.96,-53.58"/>
</a>
</g>
<text text-anchor="middle" x="960" y="-115.5" font-family="Helvetica,sans-Serif" font-size="10.00" fill="grey"> data</text>
</g>
<!-- Node18 -->
<g id="Node000018" class="node">
<title>Node18</title>
<g id="a_Node000018"><a xlink:href="classsmall__shared__n__way__pointee__baset.html" target="_top" xlink:title=" ">
<polygon fill="white" stroke="#666666" points="150,-107.5 0,-107.5 0,-77.5 150,-77.5 150,-107.5"/>
<text text-anchor="start" x="8" y="-95.5" font-family="Helvetica,sans-Serif" font-size="10.00">small_shared_n_way</text>
<text text-anchor="middle" x="75" y="-84.5" font-family="Helvetica,sans-Serif" font-size="10.00">_pointee_baset&lt; N, Num &gt;</text>
</a>
</g>
</g>
<!-- Node18&#45;&gt;Node17 -->
<g id="edge20_Node000017_Node000018" class="edge">
<title>Node18&#45;&gt;Node17</title>
<g id="a_edge20_Node000017_Node000018"><a xlink:title=" ">
<path fill="none" stroke="#9a32cd" stroke-dasharray="5,2" d="M154.15,-75.22C179.9,-69.55 208.67,-63.23 235,-57.5 298.97,-43.57 313.9,-33.43 379,-26.5 443.08,-19.68 459.77,-21.24 524,-26.5 530.63,-27.04 537.5,-27.79 544.37,-28.67"/>
<polygon fill="#9a32cd" stroke="#9a32cd" points="153.09,-71.87 144.07,-77.44 154.59,-78.71 153.09,-71.87"/>
</a>
</g>
<text text-anchor="middle" x="298" y="-60.5" font-family="Helvetica,sans-Serif" font-size="10.00" fill="grey"> p</text>
</g>
<!-- Node19 -->
<g id="Node000019" class="node">
<title>Node19</title>
<g id="a_Node000019"><a xlink:href="classsmall__shared__n__way__ptrt.html" target="_top" xlink:title="This class is similar to small_shared_ptrt and boost&#39;s intrusive_ptr.">
<polygon fill="white" stroke="#666666" points="357.5,-107.5 238.5,-107.5 238.5,-77.5 357.5,-77.5 357.5,-107.5"/>
<text text-anchor="start" x="246.5" y="-95.5" font-family="Helvetica,sans-Serif" font-size="10.00">small_shared_n_way</text>
<text text-anchor="middle" x="298" y="-84.5" font-family="Helvetica,sans-Serif" font-size="10.00">_ptrt&lt; Ts &gt;</text>
</a>
</g>
</g>
<!-- Node18&#45;&gt;Node19 -->
<g id="edge22_Node000019_Node000018" class="edge">
<title>Node18&#45;&gt;Node19</title>
<g id="a_edge22_Node000019_Node000018"><a xlink:title=" ">
<path fill="none" stroke="#9a32cd" stroke-dasharray="5,2" d="M160.44,-92.5C186.44,-92.5 214.48,-92.5 238.35,-92.5"/>
<polygon fill="#9a32cd" stroke="#9a32cd" points="160.2,-89 150.2,-92.5 160.2,-96 160.2,-89"/>
</a>
</g>
<text text-anchor="middle" x="192.5" y="-95.5" font-family="Helvetica,sans-Serif" font-size="10.00" fill="grey"> p</text>
</g>
<!-- Node21 -->
<g id="Node000021" class="node">
<title>Node21</title>
<g id="a_Node000021"><a xlink:href="classsmall__shared__n__way__ptrt.html" target="_top" xlink:title=" ">
<polygon fill="white" stroke="#666666" points="702,-184.5 542,-184.5 542,-110.5 702,-110.5 702,-184.5"/>
<text text-anchor="start" x="550" y="-172.5" font-family="Helvetica,sans-Serif" font-size="10.00">small_shared_n_way</text>
<text text-anchor="start" x="550" y="-161.5" font-family="Helvetica,sans-Serif" font-size="10.00">_ptrt&lt; d_containert</text>
<text text-anchor="start" x="550" y="-150.5" font-family="Helvetica,sans-Serif" font-size="10.00">&lt; keyT, valueT, equalT</text>
<text text-anchor="start" x="550" y="-139.5" font-family="Helvetica,sans-Serif" font-size="10.00"> &gt;, d_leaft&lt; keyT, valueT,</text>
<text text-anchor="start" x="550" y="-128.5" font-family="Helvetica,sans-Serif" font-size="10.00"> equalT &gt;, d_internalt&lt; keyT,</text>
<text text-anchor="middle" x="622" y="-117.5" font-family="Helvetica,sans-Serif" font-size="10.00"> valueT, equalT &gt; &gt;</text>
</a>
</g>
</g>
<!-- Node18&#45;&gt;Node21 -->
<g id="edge25_Node000021_Node000018" class="edge">
<title>Node18&#45;&gt;Node21</title>
<g id="a_edge25_Node000021_Node000018"><a xlink:title=" ">
<path fill="none" stroke="#9a32cd" stroke-dasharray="5,2" d="M115.82,-111.95C193.96,-147.67 372.92,-217.43 524,-187.5 529.9,-186.33 535.88,-184.8 541.84,-183.02"/>
<polygon fill="#9a32cd" stroke="#9a32cd" points="116.91,-108.59 106.36,-107.56 113.96,-114.94 116.91,-108.59"/>
</a>
</g>
<text text-anchor="middle" x="298" y="-191.5" font-family="Helvetica,sans-Serif" font-size="10.00" fill="grey"> p</text>
</g>
<!-- Node19&#45;&gt;Node17 -->
<g id="edge21_Node000017_Node000019" class="edge">
<title>Node19&#45;&gt;Node17</title>
<g id="a_edge21_Node000017_Node000019"><a xlink:title=" ">
<path fill="none" stroke="orange" stroke-dasharray="5,2" d="M325.18,-71.4C340.02,-60.79 359.49,-49.04 379,-43.5 432.75,-28.23 495.97,-28.55 544.31,-32.39"/>
<polygon fill="orange" stroke="orange" points="322.96,-68.69 317.01,-77.45 327.13,-74.31 322.96,-68.69"/>
</a>
</g>
<text text-anchor="start" x="382" y="-101.5" font-family="Helvetica,sans-Serif" font-size="10.00" fill="grey"> &lt; d_containert&lt; key</text>
<text text-anchor="start" x="382" y="-90.5" font-family="Helvetica,sans-Serif" font-size="10.00" fill="grey">_type, mapped_type,</text>
<text text-anchor="start" x="382" y="-79.5" font-family="Helvetica,sans-Serif" font-size="10.00" fill="grey"> equalT &gt;, d_leaft&lt; key</text>
<text text-anchor="start" x="382" y="-68.5" font-family="Helvetica,sans-Serif" font-size="10.00" fill="grey">_type, mapped_type, equalT</text>
<text text-anchor="start" x="382" y="-57.5" font-family="Helvetica,sans-Serif" font-size="10.00" fill="grey"> &gt;, d_internalt&lt; key_type,</text>
<text text-anchor="middle" x="451.5" y="-46.5" font-family="Helvetica,sans-Serif" font-size="10.00" fill="grey"> mapped_type, equalT &gt; &gt;</text>
</g>
<!-- Node19&#45;&gt;Node21 -->
<g id="edge26_Node000021_Node000019" class="edge">
<title>Node19&#45;&gt;Node21</title>
<g id="a_edge26_Node000021_Node000019"><a xlink:title=" ">
<path fill="none" stroke="orange" stroke-dasharray="5,2" d="M367.89,-107.38C371.64,-108.12 375.37,-108.83 379,-109.5 387.12,-111 474.39,-124.65 541.83,-135.17"/>
<polygon fill="orange" stroke="orange" points="368.4,-103.92 357.91,-105.39 367.03,-110.78 368.4,-103.92"/>
</a>
</g>
<text text-anchor="start" x="383.5" y="-179.5" font-family="Helvetica,sans-Serif" font-size="10.00" fill="grey"> &lt; d_containert&lt; keyT,</text>
<text text-anchor="start" x="383.5" y="-168.5" font-family="Helvetica,sans-Serif" font-size="10.00" fill="grey"> valueT, equalT &gt;, d</text>
<text text-anchor="start" x="383.5" y="-157.5" font-family="Helvetica,sans-Serif" font-size="10.00" fill="grey">_leaft&lt; keyT, valueT,</text>
<text text-anchor="start" x="383.5" y="-146.5" font-family="Helvetica,sans-Serif" font-size="10.00" fill="grey"> equalT &gt;, d_internalt</text>
<text text-anchor="middle" x="451.5" y="-135.5" font-family="Helvetica,sans-Serif" font-size="10.00" fill="grey">&lt; keyT, valueT, equalT &gt; &gt;</text>
</g>
<!-- Node20 -->
<g id="Node000020" class="node">
<title>Node20</title>
<g id="a_Node000020"><a xlink:href="classsharing__nodet.html" target="_top" xlink:title=" ">
<polygon fill="white" stroke="#666666" points="1021.5,-162.5 898.5,-162.5 898.5,-132.5 1021.5,-132.5 1021.5,-162.5"/>
<text text-anchor="start" x="906.5" y="-150.5" font-family="Helvetica,sans-Serif" font-size="10.00">sharing_nodet&lt; keyT,</text>
<text text-anchor="middle" x="960" y="-139.5" font-family="Helvetica,sans-Serif" font-size="10.00"> valueT, equalT &gt;</text>
</a>
</g>
</g>
<!-- Node20&#45;&gt;Node16 -->
<g id="edge23_Node000016_Node000020" class="edge">
<title>Node20&#45;&gt;Node16</title>
<g id="a_edge23_Node000016_Node000020"><a xlink:title=" ">
<path fill="none" stroke="orange" stroke-dasharray="5,2" d="M1031.69,-147.5C1078.35,-147.5 1138.94,-147.5 1183.96,-147.5"/>
<polygon fill="orange" stroke="orange" points="1031.65,-144 1021.65,-147.5 1031.65,-151 1031.65,-144"/>
</a>
</g>
<text text-anchor="start" x="1057" y="-161.5" font-family="Helvetica,sans-Serif" font-size="10.00" fill="grey"> &lt; key_type, mapped</text>
<text text-anchor="middle" x="1109.5" y="-150.5" font-family="Helvetica,sans-Serif" font-size="10.00" fill="grey">_type &gt;</text>
</g>
<!-- Node21&#45;&gt;Node20 -->
<g id="edge24_Node000020_Node000021" class="edge">
<title>Node21&#45;&gt;Node20</title>
<g id="a_edge24_Node000020_Node000021"><a xlink:title=" ">
<path fill="none" stroke="#9a32cd" stroke-dasharray="5,2" d="M712.24,-147.5C771.06,-147.5 846.54,-147.5 898.44,-147.5"/>
<polygon fill="#9a32cd" stroke="#9a32cd" points="712.2,-144 702.2,-147.5 712.2,-151 712.2,-144"/>
</a>
</g>
<text text-anchor="middle" x="791.5" y="-150.5" font-family="Helvetica,sans-Serif" font-size="10.00" fill="grey"> data</text>
</g>
<!-- Node22&#45;&gt;Node15 -->
<g id="edge27_Node000015_Node000022" class="edge">
<title>Node22&#45;&gt;Node15</title>
<g id="a_edge27_Node000015_Node000022"><a xlink:title=" ">
<path fill="none" stroke="orange" stroke-dasharray="5,2" d="M1651.77,-197.5C1695.42,-197.5 1751.45,-197.5 1795.74,-197.5"/>
<polygon fill="orange" stroke="orange" points="1651.52,-194 1641.52,-197.5 1651.52,-201 1651.52,-194"/>
</a>
</g>
<text text-anchor="start" x="1680" y="-211.5" font-family="Helvetica,sans-Serif" font-size="10.00" fill="grey"> &lt; dstringt, abstract</text>
<text text-anchor="middle" x="1729" y="-200.5" font-family="Helvetica,sans-Serif" font-size="10.00" fill="grey">_object_pointert &gt;</text>
</g>
<!-- Node23&#45;&gt;Node14 -->
<g id="edge29_Node000014_Node000023" class="edge">
<title>Node23&#45;&gt;Node14</title>
<g id="a_edge29_Node000014_Node000023"><a xlink:title=" ">
<path fill="none" stroke="#9a32cd" stroke-dasharray="5,2" d="M1672.1,-349.5C1769.23,-349.5 1920.89,-349.5 2005.86,-349.5"/>
<polygon fill="#9a32cd" stroke="#9a32cd" points="1672,-346 1662,-349.5 1672,-353 1672,-346"/>
</a>
</g>
<text text-anchor="middle" x="1870.5" y="-352.5" font-family="Helvetica,sans-Serif" font-size="10.00" fill="grey"> object_factory</text>
</g>
<!-- Node24 -->
<g id="Node000024" class="node">
<title>Node24</title>
<g id="a_Node000024"><a xlink:href="classvariable__sensitivity__object__factoryt.html" target="_top" xlink:title=" ">
<polygon fill="white" stroke="#666666" points="1304.5,-336.5 1191.5,-336.5 1191.5,-306.5 1304.5,-306.5 1304.5,-336.5"/>
<text text-anchor="start" x="1199.5" y="-324.5" font-family="Helvetica,sans-Serif" font-size="10.00">variable_sensitivity</text>
<text text-anchor="middle" x="1248" y="-313.5" font-family="Helvetica,sans-Serif" font-size="10.00">_object_factoryt</text>
</a>
</g>
</g>
<!-- Node24&#45;&gt;Node23 -->
<g id="edge30_Node000023_Node000024" class="edge">
<title>Node24&#45;&gt;Node23</title>
<g id="a_edge30_Node000023_Node000024"><a xlink:title=" ">
<path fill="none" stroke="#9a32cd" stroke-dasharray="5,2" d="M1314.97,-327.09C1367.86,-331.57 1442.32,-337.88 1498.77,-342.66"/>
<polygon fill="#9a32cd" stroke="#9a32cd" points="1314.95,-323.57 1304.69,-326.22 1314.36,-330.55 1314.95,-323.57"/>
</a>
</g>
<text text-anchor="middle" x="1407.5" y="-343.5" font-family="Helvetica,sans-Serif" font-size="10.00" fill="grey"> ptr</text>
</g>
<!-- Node25 -->
<g id="Node000025" class="node">
<title>Node25</title>
<g id="a_Node000025"><a xlink:href="structvsd__configt.html" target="_top" xlink:title=" ">
<polygon fill="white" stroke="#666666" points="996,-324 924,-324 924,-305 996,-305 996,-324"/>
<text text-anchor="middle" x="960" y="-312" font-family="Helvetica,sans-Serif" font-size="10.00">vsd_configt</text>
</a>
</g>
</g>
<!-- Node25&#45;&gt;Node24 -->
<g id="edge31_Node000024_Node000025" class="edge">
<title>Node25&#45;&gt;Node24</title>
<g id="a_edge31_Node000024_Node000025"><a xlink:title=" ">
<path fill="none" stroke="#9a32cd" stroke-dasharray="5,2" d="M1006.3,-315.61C1056.51,-316.84 1137.51,-318.82 1191.5,-320.14"/>
<polygon fill="#9a32cd" stroke="#9a32cd" points="1006.15,-312.1 996.07,-315.36 1005.98,-319.1 1006.15,-312.1"/>
</a>
</g>
<text text-anchor="middle" x="1109.5" y="-322.5" font-family="Helvetica,sans-Serif" font-size="10.00" fill="grey"> configuration</text>
</g>
<!-- Node26&#45;&gt;Node25 -->
<g id="edge32_Node000025_Node000026" class="edge">
<title>Node26&#45;&gt;Node25</title>
<g id="a_edge32_Node000025_Node000026"><a xlink:title=" ">
<path fill="none" stroke="#9a32cd" stroke-dasharray="5,2" d="M348.78,-257.88C425.13,-241.73 575.58,-216.51 702,-235.5 791.09,-248.88 891.92,-286.99 936.15,-304.93"/>
<polygon fill="#9a32cd" stroke="#9a32cd" points="347.99,-254.47 338.95,-260 349.47,-261.31 347.99,-254.47"/>
</a>
</g>
<text text-anchor="middle" x="622" y="-282.5" font-family="Helvetica,sans-Serif" font-size="10.00" fill="grey"> array_option_mappings</text>
<text text-anchor="middle" x="622" y="-271.5" font-family="Helvetica,sans-Serif" font-size="10.00" fill="grey">pointer_option_mappings</text>
<text text-anchor="middle" x="622" y="-260.5" font-family="Helvetica,sans-Serif" font-size="10.00" fill="grey">struct_option_mappings</text>
<text text-anchor="middle" x="622" y="-249.5" font-family="Helvetica,sans-Serif" font-size="10.00" fill="grey">union_option_mappings</text>
<text text-anchor="middle" x="622" y="-238.5" font-family="Helvetica,sans-Serif" font-size="10.00" fill="grey">value_option_mappings</text>
</g>
<!-- Node28 -->
<g id="Node000028" class="node">
<title>Node28</title>
<g id="a_Node000028"><a xlink:title=" ">
<polygon fill="white" stroke="#666666" points="683,-329.5 561,-329.5 561,-299.5 683,-299.5 683,-329.5"/>
<text text-anchor="start" x="569" y="-317.5" font-family="Helvetica,sans-Serif" font-size="10.00">std::map&lt; std::string,</text>
<text text-anchor="middle" x="622" y="-306.5" font-family="Helvetica,sans-Serif" font-size="10.00"> size_t &gt;</text>
</a>
</g>
</g>
<!-- Node26&#45;&gt;Node28 -->
<g id="edge37_Node000028_Node000026" class="edge">
<title>Node26&#45;&gt;Node28</title>
<g id="a_edge37_Node000028_Node000026"><a xlink:title=" ">
<path fill="none" stroke="orange" stroke-dasharray="5,2" d="M358.61,-277.1C403.98,-282.97 467.97,-291.43 524,-299.5 535.89,-301.21 548.59,-303.12 560.75,-304.98"/>
<polygon fill="orange" stroke="orange" points="359.01,-273.63 348.64,-275.82 358.11,-280.57 359.01,-273.63"/>
</a>
</g>
<text text-anchor="middle" x="451.5" y="-302.5" font-family="Helvetica,sans-Serif" font-size="10.00" fill="grey"> &lt; std::string, size_t &gt;</text>
</g>
<!-- Node27 -->
<g id="Node000027" class="node">
<title>Node27</title>
<g id="a_Node000027"><a xlink:title=" ">
<polygon fill="white" stroke="#666666" points="89.5,-303 60.5,-303 60.5,-284 89.5,-284 89.5,-303"/>
<text text-anchor="middle" x="75" y="-291" font-family="Helvetica,sans-Serif" font-size="10.00">K</text>
</a>
</g>
</g>
<!-- Node27&#45;&gt;Node26 -->
<g id="edge33_Node000026_Node000027" class="edge">
<title>Node27&#45;&gt;Node26</title>
<g id="a_edge33_Node000026_Node000027"><a xlink:title=" ">
<path fill="none" stroke="#9a32cd" stroke-dasharray="5,2" d="M98.85,-282.8C117.11,-274.88 143.6,-264.74 168,-260.5 193.99,-255.98 223.3,-257.51 247.4,-260.48"/>
<polygon fill="#9a32cd" stroke="#9a32cd" points="97.32,-279.65 89.62,-286.93 100.18,-286.04 97.32,-279.65"/>
</a>
</g>
<text text-anchor="middle" x="192.5" y="-263.5" font-family="Helvetica,sans-Serif" font-size="10.00" fill="grey"> keys</text>
</g>
<!-- Node27&#45;&gt;Node34 -->
<g id="edge43_Node000034_Node000027" class="edge">
<title>Node27&#45;&gt;Node34</title>
<g id="a_edge43_Node000034_Node000027"><a xlink:title=" ">
<path fill="none" stroke="#9a32cd" stroke-dasharray="5,2" d="M99.71,-286.54C129.59,-279.26 181.34,-271.76 217,-294.5 232.76,-304.55 221.75,-319.32 235,-332.5 240.56,-338.03 247.37,-342.64 254.42,-346.43"/>
<polygon fill="#9a32cd" stroke="#9a32cd" points="98.54,-283.23 89.76,-289.15 100.32,-290 98.54,-283.23"/>
</a>
</g>
<text text-anchor="middle" x="192.5" y="-297.5" font-family="Helvetica,sans-Serif" font-size="10.00" fill="grey"> keys</text>
</g>
<!-- Node27&#45;&gt;Node36 -->
<g id="edge48_Node000036_Node000027" class="edge">
<title>Node27&#45;&gt;Node36</title>
<g id="a_edge48_Node000036_Node000027"><a xlink:title=" ">
<path fill="none" stroke="#9a32cd" stroke-dasharray="5,2" d="M98.73,-304.69C127.14,-318.98 176.89,-345.04 217,-371.5 225.46,-377.08 226.01,-380.83 235,-385.5 242.19,-389.24 250.24,-392.38 258.1,-394.96"/>
<polygon fill="#9a32cd" stroke="#9a32cd" points="100.14,-301.48 89.62,-300.14 97.01,-307.74 100.14,-301.48"/>
</a>
</g>
<text text-anchor="middle" x="192.5" y="-374.5" font-family="Helvetica,sans-Serif" font-size="10.00" fill="grey"> keys</text>
</g>
<!-- Node28&#45;&gt;Node25 -->
<g id="edge35_Node000025_Node000028" class="edge">
<title>Node28&#45;&gt;Node25</title>
<g id="a_edge35_Node000025_Node000028"><a xlink:title=" ">
<path fill="none" stroke="#9a32cd" stroke-dasharray="5,2" d="M693.19,-314.5C763.61,-314.5 869.2,-314.5 923.68,-314.5"/>
<polygon fill="#9a32cd" stroke="#9a32cd" points="693.07,-311 683.07,-314.5 693.07,-318 693.07,-311"/>
</a>
</g>
<text text-anchor="middle" x="791.5" y="-317.5" font-family="Helvetica,sans-Serif" font-size="10.00" fill="grey"> array_option_size_mappings</text>
</g>
<!-- Node29 -->
<g id="Node000029" class="node">
<title>Node29</title>
<g id="a_Node000029"><a xlink:title=" ">
<polygon fill="#fff0f0" stroke="red" points="330.5,-324 265.5,-324 265.5,-305 330.5,-305 330.5,-324"/>
<text text-anchor="middle" x="298" y="-312" font-family="Helvetica,sans-Serif" font-size="10.00">std::string</text>
</a>
</g>
</g>
<!-- Node29&#45;&gt;Node28 -->
<g id="edge36_Node000028_Node000029" class="edge">
<title>Node29&#45;&gt;Node28</title>
<g id="a_edge36_Node000028_Node000029"><a xlink:title=" ">
<path fill="none" stroke="#9a32cd" stroke-dasharray="5,2" d="M341.04,-314.5C397.15,-314.5 496.85,-314.5 560.89,-314.5"/>
<polygon fill="#9a32cd" stroke="#9a32cd" points="340.76,-311 330.76,-314.5 340.76,-318 340.76,-311"/>
</a>
</g>
<text text-anchor="middle" x="451.5" y="-317.5" font-family="Helvetica,sans-Serif" font-size="10.00" fill="grey"> keys</text>
</g>
<!-- Node31 -->
<g id="Node000031" class="node">
<title>Node31</title>
<g id="a_Node000031"><a xlink:href="classnamespacet.html" target="_top" xlink:title="A namespacet is essentially one or two symbol tables bound together, to allow for symbol lookups in t...">
<polygon fill="white" stroke="#666666" points="1286.5,-459 1209.5,-459 1209.5,-440 1286.5,-440 1286.5,-459"/>
<text text-anchor="middle" x="1248" y="-447" font-family="Helvetica,sans-Serif" font-size="10.00">namespacet</text>
</a>
</g>
</g>
<!-- Node31&#45;&gt;Node1 -->
<g id="edge39_Node000001_Node000031" class="edge">
<title>Node31&#45;&gt;Node1</title>
<g id="a_edge39_Node000001_Node000031"><a xlink:title=" ">
<path fill="none" stroke="#9a32cd" stroke-dasharray="5,2" d="M1296.9,-449.5C1361.19,-449.5 1478.95,-449.5 1579.5,-449.5 1579.5,-449.5 1579.5,-449.5 2071,-449.5 2127.64,-449.5 2192.13,-457.34 2235.99,-463.87"/>
<polygon fill="#9a32cd" stroke="#9a32cd" points="1296.67,-446 1286.67,-449.5 1296.67,-453 1296.67,-446"/>
</a>
</g>
<text text-anchor="middle" x="1870.5" y="-452.5" font-family="Helvetica,sans-Serif" font-size="10.00" fill="grey"> ns</text>
</g>
<!-- Node32 -->
<g id="Node000032" class="node">
<title>Node32</title>
<g id="a_Node000032"><a xlink:href="classnamespace__baset.html" target="_top" xlink:title="Basic interface for a namespace.">
<polygon fill="white" stroke="#666666" points="1012.5,-430 907.5,-430 907.5,-411 1012.5,-411 1012.5,-430"/>
<text text-anchor="middle" x="960" y="-418" font-family="Helvetica,sans-Serif" font-size="10.00">namespace_baset</text>
</a>
</g>
</g>
<!-- Node32&#45;&gt;Node31 -->
<g id="edge40_Node000031_Node000032" class="edge">
<title>Node32&#45;&gt;Node31</title>
<g id="a_edge40_Node000031_Node000032"><a xlink:title=" ">
<path fill="none" stroke="#63b8ff" d="M1023.08,-426.79C1079.8,-432.55 1161.86,-440.87 1209.28,-445.68"/>
<polygon fill="#63b8ff" stroke="#63b8ff" points="1023.09,-423.28 1012.79,-425.75 1022.39,-430.24 1023.09,-423.28"/>
</a>
</g>
</g>
<!-- Node33 -->
<g id="Node000033" class="node">
<title>Node33</title>
<g id="a_Node000033"><a xlink:href="classsymbol__table__baset.html" target="_top" xlink:title="The symbol table base class interface.">
<polygon fill="white" stroke="#666666" points="1017.5,-467 902.5,-467 902.5,-448 1017.5,-448 1017.5,-467"/>
<text text-anchor="middle" x="960" y="-455" font-family="Helvetica,sans-Serif" font-size="10.00">symbol_table_baset</text>
</a>
</g>
</g>
<!-- Node33&#45;&gt;Node31 -->
<g id="edge41_Node000031_Node000033" class="edge">
<title>Node33&#45;&gt;Node31</title>
<g id="a_edge41_Node000031_Node000033"><a xlink:title=" ">
<path fill="none" stroke="#9a32cd" stroke-dasharray="5,2" d="M1027.78,-455.63C1084.27,-454.05 1163.18,-451.84 1209.3,-450.55"/>
<polygon fill="#9a32cd" stroke="#9a32cd" points="1027.4,-452.14 1017.5,-455.92 1027.6,-459.14 1027.4,-452.14"/>
</a>
</g>
<text text-anchor="middle" x="1109.5" y="-468.5" font-family="Helvetica,sans-Serif" font-size="10.00" fill="grey"> symbol_table1</text>
<text text-anchor="middle" x="1109.5" y="-457.5" font-family="Helvetica,sans-Serif" font-size="10.00" fill="grey">symbol_table2</text>
</g>
<!-- Node34&#45;&gt;Node33 -->
<g id="edge42_Node000033_Node000034" class="edge">
<title>Node34&#45;&gt;Node33</title>
<g id="a_edge42_Node000033_Node000034"><a xlink:title=" ">
<path fill="none" stroke="#9a32cd" stroke-dasharray="5,2" d="M365.6,-368.95C445.62,-378.12 583.87,-394.69 702,-412.5 774.11,-423.37 857.17,-438.37 908.88,-448"/>
<polygon fill="#9a32cd" stroke="#9a32cd" points="365.52,-365.42 355.18,-367.76 364.72,-372.37 365.52,-365.42"/>
</a>
</g>
<text text-anchor="middle" x="622" y="-415.5" font-family="Helvetica,sans-Serif" font-size="10.00" fill="grey"> symbols</text>
</g>
<!-- Node35&#45;&gt;Node33 -->
<g id="edge45_Node000033_Node000035" class="edge">
<title>Node35&#45;&gt;Node33</title>
<g id="a_edge45_Node000033_Node000035"><a xlink:title=" ">
<path fill="none" stroke="#9a32cd" stroke-dasharray="5,2" d="M689.72,-449.49C751.94,-451.34 843.72,-454.07 902.43,-455.82"/>
<polygon fill="#9a32cd" stroke="#9a32cd" points="689.72,-445.98 679.62,-449.19 689.51,-452.98 689.72,-445.98"/>
</a>
</g>
<text text-anchor="middle" x="791.5" y="-468.5" font-family="Helvetica,sans-Serif" font-size="10.00" fill="grey"> symbol_base_map</text>
<text text-anchor="middle" x="791.5" y="-457.5" font-family="Helvetica,sans-Serif" font-size="10.00" fill="grey">symbol_module_map</text>
</g>
<!-- Node36&#45;&gt;Node35 -->
<g id="edge47_Node000035_Node000036" class="edge">
<title>Node36&#45;&gt;Node35</title>
<g id="a_edge47_Node000035_Node000036"><a xlink:title=" ">
<path fill="none" stroke="orange" stroke-dasharray="5,2" d="M371.35,-414.16C429.76,-421.96 510.79,-432.78 564.5,-439.95"/>
<polygon fill="orange" stroke="orange" points="371.46,-410.65 361.08,-412.79 370.53,-417.58 371.46,-410.65"/>
</a>
</g>
<text text-anchor="middle" x="451.5" y="-436.5" font-family="Helvetica,sans-Serif" font-size="10.00" fill="grey"> &lt; irep_idt, irep_idt &gt;</text>
</g>
</g>
</svg>
