<?xml version="1.0" encoding="UTF-8" standalone="no"?>
<!DOCTYPE svg PUBLIC "-//W3C//DTD SVG 1.1//EN"
 "http://www.w3.org/Graphics/SVG/1.1/DTD/svg11.dtd">
<!-- Generated by graphviz version 2.43.0 (0)
 -->
<!-- Title: union_find&lt; T, hasht &gt; Pages: 1 -->
<svg width="260pt" height="104pt"
 viewBox="0.00 0.00 259.50 104.00" xmlns="http://www.w3.org/2000/svg" xmlns:xlink="http://www.w3.org/1999/xlink">
<g id="graph0" class="graph" transform="scale(1 1) rotate(0) translate(4 100)">
<title>union_find&lt; T, hasht &gt;</title>
<!-- Node1 -->
<g id="Node000001" class="node">
<title>Node1</title>
<g id="a_Node000001"><a xlink:title=" ">
<polygon fill="#999999" stroke="#666666" points="184.5,-96 56.5,-96 56.5,-77 184.5,-77 184.5,-96"/>
<text text-anchor="middle" x="120.5" y="-84" font-family="Helvetica,sans-Serif" font-size="10.00">union_find&lt; T, hasht &gt;</text>
</a>
</g>
</g>
<!-- Node2 -->
<g id="Node000002" class="node">
<title>Node2</title>
<g id="a_Node000002"><a xlink:href="classunion__find.html" target="_top" xlink:title=" ">
<polygon fill="white" stroke="#666666" points="107,-30 0,-30 0,0 107,0 107,-30"/>
<text text-anchor="start" x="8" y="-18" font-family="Helvetica,sans-Serif" font-size="10.00">union_find&lt; exprt,</text>
<text text-anchor="middle" x="53.5" y="-7" font-family="Helvetica,sans-Serif" font-size="10.00"> irep_hash &gt;</text>
</a>
</g>
</g>
<!-- Node1&#45;&gt;Node2 -->
<g id="edge1_Node000001_Node000002" class="edge">
<title>Node1&#45;&gt;Node2</title>
<g id="a_edge1_Node000001_Node000002"><a xlink:title=" ">
<path fill="none" stroke="orange" stroke-dasharray="5,2" d="M77.76,-72.42C71.57,-68.92 65.84,-64.52 61.5,-59 55.12,-50.88 53.26,-39.25 52.92,-30.14"/>
<polygon fill="orange" stroke="orange" points="76.53,-75.71 87.05,-76.94 79.59,-69.42 76.53,-75.71"/>
</a>
</g>
<text text-anchor="middle" x="114" y="-51" font-family="Helvetica,sans-Serif" font-size="10.00" fill="grey"> &lt; exprt, irep_hash &gt;</text>
</g>
<!-- Node3 -->
<g id="Node000003" class="node">
<title>Node3</title>
<g id="a_Node000003"><a xlink:href="classunion__find.html" target="_top" xlink:title=" ">
<polygon fill="white" stroke="#666666" points="251.5,-24.5 125.5,-24.5 125.5,-5.5 251.5,-5.5 251.5,-24.5"/>
<text text-anchor="middle" x="188.5" y="-12.5" font-family="Helvetica,sans-Serif" font-size="10.00">union_find&lt; irep_idt &gt;</text>
</a>
</g>
</g>
<!-- Node1&#45;&gt;Node3 -->
<g id="edge2_Node000001_Node000003" class="edge">
<title>Node1&#45;&gt;Node3</title>
<g id="a_edge2_Node000001_Node000003"><a xlink:title=" ">
<path fill="none" stroke="orange" stroke-dasharray="5,2" d="M150.18,-71.78C156.05,-68.18 161.83,-63.91 166.5,-59 175.98,-49.04 182.34,-34.19 185.69,-24.81"/>
<polygon fill="orange" stroke="orange" points="148.07,-68.95 141.04,-76.88 151.48,-75.07 148.07,-68.95"/>
</a>
</g>
<text text-anchor="middle" x="205" y="-51" font-family="Helvetica,sans-Serif" font-size="10.00" fill="grey"> &lt; irep_idt &gt;</text>
</g>
</g>
</svg>
