<?xml version="1.0" encoding="UTF-8" standalone="no"?>
<!DOCTYPE svg PUBLIC "-//W3C//DTD SVG 1.1//EN"
 "http://www.w3.org/Graphics/SVG/1.1/DTD/svg11.dtd">
<!-- Generated by graphviz version 2.43.0 (0)
 -->
<!-- Title: symbol_factoryt Pages: 1 -->
<svg width="2299pt" height="400pt"
 viewBox="0.00 0.00 2299.00 400.00" xmlns="http://www.w3.org/2000/svg" xmlns:xlink="http://www.w3.org/1999/xlink">
<g id="graph0" class="graph" transform="scale(1 1) rotate(0) translate(4 396)">
<title>symbol_factoryt</title>
<!-- Node1 -->
<g id="Node000001" class="node">
<title>Node1</title>
<g id="a_Node000001"><a xlink:title=" ">
<polygon fill="#999999" stroke="#666666" points="2291,-235.5 2195,-235.5 2195,-216.5 2291,-216.5 2291,-235.5"/>
<text text-anchor="middle" x="2243" y="-223.5" font-family="Helvetica,sans-Serif" font-size="10.00">symbol_factoryt</text>
</a>
</g>
</g>
<!-- Node2 -->
<g id="Node000002" class="node">
<title>Node2</title>
<g id="a_Node000002"><a xlink:href="classsymbol__table__baset.html" target="_top" xlink:title="The symbol table base class interface.">
<polygon fill="white" stroke="#666666" points="1612,-324.5 1497,-324.5 1497,-305.5 1612,-305.5 1612,-324.5"/>
<text text-anchor="middle" x="1554.5" y="-312.5" font-family="Helvetica,sans-Serif" font-size="10.00">symbol_table_baset</text>
</a>
</g>
</g>
<!-- Node2&#45;&gt;Node1 -->
<g id="edge1_Node000001_Node000002" class="edge">
<title>Node2&#45;&gt;Node1</title>
<g id="a_edge1_Node000001_Node000002"><a xlink:title=" ">
<path fill="none" stroke="#9a32cd" stroke-dasharray="5,2" d="M1592.01,-327.45C1603.97,-330.94 1617.42,-334.26 1630,-336 1826.74,-363.2 1882.65,-353.41 2076,-308 2122.69,-297.03 2134.4,-292.04 2177,-270 2196.36,-259.98 2216.91,-245.3 2229.6,-235.7"/>
<polygon fill="#9a32cd" stroke="#9a32cd" points="1592.95,-324.08 1582.37,-324.5 1590.91,-330.77 1592.95,-324.08"/>
</a>
</g>
<text text-anchor="middle" x="1918" y="-349" font-family="Helvetica,sans-Serif" font-size="10.00" fill="grey"> symbol_table</text>
</g>
<!-- Node17 -->
<g id="Node000017" class="node">
<title>Node17</title>
<g id="a_Node000017"><a xlink:href="classnamespacet.html" target="_top" xlink:title="A namespacet is essentially one or two symbol tables bound together, to allow for symbol lookups in t...">
<polygon fill="white" stroke="#666666" points="1850,-320.5 1773,-320.5 1773,-301.5 1850,-301.5 1850,-320.5"/>
<text text-anchor="middle" x="1811.5" y="-308.5" font-family="Helvetica,sans-Serif" font-size="10.00">namespacet</text>
</a>
</g>
</g>
<!-- Node2&#45;&gt;Node17 -->
<g id="edge23_Node000017_Node000002" class="edge">
<title>Node2&#45;&gt;Node17</title>
<g id="a_edge23_Node000017_Node000002"><a xlink:title=" ">
<path fill="none" stroke="#9a32cd" stroke-dasharray="5,2" d="M1622.38,-313.95C1670.29,-313.2 1733.09,-312.21 1772.62,-311.59"/>
<polygon fill="#9a32cd" stroke="#9a32cd" points="1622.04,-310.46 1612.09,-314.11 1622.15,-317.45 1622.04,-310.46"/>
</a>
</g>
<text text-anchor="middle" x="1687.5" y="-327" font-family="Helvetica,sans-Serif" font-size="10.00" fill="grey"> symbol_table1</text>
<text text-anchor="middle" x="1687.5" y="-316" font-family="Helvetica,sans-Serif" font-size="10.00" fill="grey">symbol_table2</text>
</g>
<!-- Node25 -->
<g id="Node000025" class="node">
<title>Node25</title>
<g id="a_Node000025"><a xlink:href="classallocate__objectst.html" target="_top" xlink:title=" ">
<polygon fill="white" stroke="#666666" points="2076,-235.5 1976,-235.5 1976,-216.5 2076,-216.5 2076,-235.5"/>
<text text-anchor="middle" x="2026" y="-223.5" font-family="Helvetica,sans-Serif" font-size="10.00">allocate_objectst</text>
</a>
</g>
</g>
<!-- Node2&#45;&gt;Node25 -->
<g id="edge35_Node000025_Node000002" class="edge">
<title>Node2&#45;&gt;Node25</title>
<g id="a_edge35_Node000025_Node000002"><a xlink:title=" ">
<path fill="none" stroke="#9a32cd" stroke-dasharray="5,2" d="M1615.66,-303.6C1709.56,-285.8 1889.16,-251.75 1975.82,-235.32"/>
<polygon fill="#9a32cd" stroke="#9a32cd" points="1614.92,-300.17 1605.74,-305.48 1616.22,-307.05 1614.92,-300.17"/>
</a>
</g>
<text text-anchor="middle" x="1811.5" y="-277" font-family="Helvetica,sans-Serif" font-size="10.00" fill="grey"> symbol_table</text>
</g>
<!-- Node3 -->
<g id="Node000003" class="node">
<title>Node3</title>
<g id="a_Node000003"><a xlink:title=" ">
<polygon fill="white" stroke="#666666" points="523.5,-385 409.5,-385 409.5,-355 523.5,-355 523.5,-385"/>
<text text-anchor="start" x="417.5" y="-373" font-family="Helvetica,sans-Serif" font-size="10.00">std::unordered_map</text>
<text text-anchor="middle" x="466.5" y="-362" font-family="Helvetica,sans-Serif" font-size="10.00">&lt; K, T &gt;</text>
</a>
</g>
</g>
<!-- Node3&#45;&gt;Node2 -->
<g id="edge2_Node000002_Node000003" class="edge">
<title>Node3&#45;&gt;Node2</title>
<g id="a_edge2_Node000002_Node000003"><a xlink:title=" ">
<path fill="none" stroke="#9a32cd" stroke-dasharray="5,2" d="M533.82,-368.56C592.3,-367.41 679.8,-366 756,-366 756,-366 756,-366 1312.5,-366 1391.62,-366 1482.24,-339.37 1526.43,-324.59"/>
<polygon fill="#9a32cd" stroke="#9a32cd" points="533.54,-365.06 523.61,-368.76 533.68,-372.06 533.54,-365.06"/>
</a>
</g>
<text text-anchor="middle" x="983" y="-369" font-family="Helvetica,sans-Serif" font-size="10.00" fill="grey"> symbols</text>
</g>
<!-- Node4 -->
<g id="Node000004" class="node">
<title>Node4</title>
<g id="a_Node000004"><a xlink:title=" ">
<polygon fill="white" stroke="#666666" points="252,-355.5 223,-355.5 223,-336.5 252,-336.5 252,-355.5"/>
<text text-anchor="middle" x="237.5" y="-343.5" font-family="Helvetica,sans-Serif" font-size="10.00">K</text>
</a>
</g>
</g>
<!-- Node4&#45;&gt;Node3 -->
<g id="edge3_Node000003_Node000004" class="edge">
<title>Node4&#45;&gt;Node3</title>
<g id="a_edge3_Node000003_Node000004"><a xlink:title=" ">
<path fill="none" stroke="#9a32cd" stroke-dasharray="5,2" d="M262.09,-348.49C296.64,-352.15 362.02,-359.06 409.36,-364.06"/>
<polygon fill="#9a32cd" stroke="#9a32cd" points="262.33,-345 252.02,-347.43 261.6,-351.96 262.33,-345"/>
</a>
</g>
<text text-anchor="middle" x="341.5" y="-363" font-family="Helvetica,sans-Serif" font-size="10.00" fill="grey"> keys</text>
</g>
<!-- Node8 -->
<g id="Node000008" class="node">
<title>Node8</title>
<g id="a_Node000008"><a xlink:title=" ">
<polygon fill="white" stroke="#666666" points="529.5,-326.5 403.5,-326.5 403.5,-307.5 529.5,-307.5 529.5,-326.5"/>
<text text-anchor="middle" x="466.5" y="-314.5" font-family="Helvetica,sans-Serif" font-size="10.00">std::multimap&lt; K, T &gt;</text>
</a>
</g>
</g>
<!-- Node4&#45;&gt;Node8 -->
<g id="edge8_Node000008_Node000004" class="edge">
<title>Node4&#45;&gt;Node8</title>
<g id="a_edge8_Node000008_Node000004"><a xlink:title=" ">
<path fill="none" stroke="#9a32cd" stroke-dasharray="5,2" d="M262.1,-342.99C295.2,-338.76 356.6,-330.91 403.31,-324.95"/>
<polygon fill="#9a32cd" stroke="#9a32cd" points="261.5,-339.53 252.02,-344.27 262.38,-346.48 261.5,-339.53"/>
</a>
</g>
<text text-anchor="middle" x="341.5" y="-340" font-family="Helvetica,sans-Serif" font-size="10.00" fill="grey"> keys</text>
</g>
<!-- Node5 -->
<g id="Node000005" class="node">
<title>Node5</title>
<g id="a_Node000005"><a xlink:title=" ">
<polygon fill="white" stroke="#666666" points="66.5,-299.5 37.5,-299.5 37.5,-280.5 66.5,-280.5 66.5,-299.5"/>
<text text-anchor="middle" x="52" y="-287.5" font-family="Helvetica,sans-Serif" font-size="10.00">T</text>
</a>
</g>
</g>
<!-- Node5&#45;&gt;Node3 -->
<g id="edge4_Node000003_Node000005" class="edge">
<title>Node5&#45;&gt;Node3</title>
<g id="a_edge4_Node000003_Node000005"><a xlink:title=" ">
<path fill="none" stroke="#9a32cd" stroke-dasharray="5,2" d="M74.31,-305.48C100.06,-323.28 145.39,-351.73 189,-365 262.61,-387.4 352.41,-383.71 409.28,-377.82"/>
<polygon fill="#9a32cd" stroke="#9a32cd" points="76.25,-302.56 66.05,-299.67 72.22,-308.29 76.25,-302.56"/>
</a>
</g>
<text text-anchor="middle" x="237.5" y="-384" font-family="Helvetica,sans-Serif" font-size="10.00" fill="grey"> elements</text>
</g>
<!-- Node5&#45;&gt;Node8 -->
<g id="edge9_Node000008_Node000005" class="edge">
<title>Node5&#45;&gt;Node8</title>
<g id="a_edge9_Node000008_Node000005"><a xlink:title=" ">
<path fill="none" stroke="#9a32cd" stroke-dasharray="5,2" d="M76.79,-291.56C139.39,-295.65 310.25,-306.84 403.23,-312.92"/>
<polygon fill="#9a32cd" stroke="#9a32cd" points="76.93,-288.06 66.72,-290.9 76.47,-295.04 76.93,-288.06"/>
</a>
</g>
<text text-anchor="middle" x="237.5" y="-307" font-family="Helvetica,sans-Serif" font-size="10.00" fill="grey"> elements</text>
</g>
<!-- Node15 -->
<g id="Node000015" class="node">
<title>Node15</title>
<g id="a_Node000015"><a xlink:title=" ">
<polygon fill="white" stroke="#666666" points="286,-266.5 189,-266.5 189,-247.5 286,-247.5 286,-266.5"/>
<text text-anchor="middle" x="237.5" y="-254.5" font-family="Helvetica,sans-Serif" font-size="10.00">std::vector&lt; T &gt;</text>
</a>
</g>
</g>
<!-- Node5&#45;&gt;Node15 -->
<g id="edge18_Node000015_Node000005" class="edge">
<title>Node5&#45;&gt;Node15</title>
<g id="a_edge18_Node000015_Node000005"><a xlink:title=" ">
<path fill="none" stroke="#9a32cd" stroke-dasharray="5,2" d="M76.96,-285.69C105.28,-280.6 153.06,-272 188.97,-265.55"/>
<polygon fill="#9a32cd" stroke="#9a32cd" points="76.01,-282.3 66.79,-287.52 77.25,-289.19 76.01,-282.3"/>
</a>
</g>
<text text-anchor="middle" x="146.5" y="-280" font-family="Helvetica,sans-Serif" font-size="10.00" fill="grey"> elements</text>
</g>
<!-- Node24 -->
<g id="Node000024" class="node">
<title>Node24</title>
<g id="a_Node000024"><a xlink:title=" ">
<polygon fill="white" stroke="#666666" points="278,-152.5 197,-152.5 197,-133.5 278,-133.5 278,-152.5"/>
<text text-anchor="middle" x="237.5" y="-140.5" font-family="Helvetica,sans-Serif" font-size="10.00">std::list&lt; T &gt;</text>
</a>
</g>
</g>
<!-- Node5&#45;&gt;Node24 -->
<g id="edge30_Node000024_Node000005" class="edge">
<title>Node5&#45;&gt;Node24</title>
<g id="a_edge30_Node000024_Node000005"><a xlink:title=" ">
<path fill="none" stroke="#9a32cd" stroke-dasharray="5,2" d="M72.87,-274.08C110.92,-243.6 193.02,-177.83 224.18,-152.87"/>
<polygon fill="#9a32cd" stroke="#9a32cd" points="70.66,-271.37 65.04,-280.35 75.03,-276.83 70.66,-271.37"/>
</a>
</g>
<text text-anchor="middle" x="146.5" y="-237" font-family="Helvetica,sans-Serif" font-size="10.00" fill="grey"> elements</text>
</g>
<!-- Node6 -->
<g id="Node000006" class="node">
<title>Node6</title>
<g id="a_Node000006"><a xlink:title=" ">
<polygon fill="white" stroke="#666666" points="814.5,-330 699.5,-330 699.5,-300 814.5,-300 814.5,-330"/>
<text text-anchor="start" x="707.5" y="-318" font-family="Helvetica,sans-Serif" font-size="10.00">std::multimap&lt; irep</text>
<text text-anchor="middle" x="757" y="-307" font-family="Helvetica,sans-Serif" font-size="10.00">_idt, irep_idt &gt;</text>
</a>
</g>
</g>
<!-- Node6&#45;&gt;Node2 -->
<g id="edge5_Node000002_Node000006" class="edge">
<title>Node6&#45;&gt;Node2</title>
<g id="a_edge5_Node000002_Node000006"><a xlink:title=" ">
<path fill="none" stroke="#9a32cd" stroke-dasharray="5,2" d="M824.8,-315C978.29,-315 1353.93,-315 1496.95,-315"/>
<polygon fill="#9a32cd" stroke="#9a32cd" points="824.57,-311.5 814.57,-315 824.57,-318.5 824.57,-311.5"/>
</a>
</g>
<text text-anchor="middle" x="1150" y="-329" font-family="Helvetica,sans-Serif" font-size="10.00" fill="grey"> symbol_base_map</text>
<text text-anchor="middle" x="1150" y="-318" font-family="Helvetica,sans-Serif" font-size="10.00" fill="grey">symbol_module_map</text>
</g>
<!-- Node7 -->
<g id="Node000007" class="node">
<title>Node7</title>
<g id="a_Node000007"><a xlink:href="classdstringt.html" target="_top" xlink:title="dstringt has one field, an unsigned integer no which is an index into a static table of strings.">
<polygon fill="white" stroke="#666666" points="493.5,-185.5 439.5,-185.5 439.5,-166.5 493.5,-166.5 493.5,-185.5"/>
<text text-anchor="middle" x="466.5" y="-173.5" font-family="Helvetica,sans-Serif" font-size="10.00">dstringt</text>
</a>
</g>
</g>
<!-- Node7&#45;&gt;Node6 -->
<g id="edge6_Node000006_Node000007" class="edge">
<title>Node7&#45;&gt;Node6</title>
<g id="a_edge6_Node000006_Node000007"><a xlink:title=" ">
<path fill="none" stroke="#9a32cd" stroke-dasharray="5,2" d="M494.11,-190.23C511.14,-199.24 533.75,-211.03 554,-221 612.82,-249.97 682.3,-281.78 722.54,-299.98"/>
<polygon fill="#9a32cd" stroke="#9a32cd" points="495.75,-187.14 485.27,-185.54 492.47,-193.32 495.75,-187.14"/>
</a>
</g>
<text text-anchor="middle" x="607" y="-284" font-family="Helvetica,sans-Serif" font-size="10.00" fill="grey"> elements</text>
<text text-anchor="middle" x="607" y="-273" font-family="Helvetica,sans-Serif" font-size="10.00" fill="grey">keys</text>
</g>
<!-- Node12 -->
<g id="Node000012" class="node">
<title>Node12</title>
<g id="a_Node000012"><a xlink:href="classtree__nodet.html" target="_top" xlink:title="A node with data in a tree, it contains:">
<polygon fill="white" stroke="#666666" points="836,-97 678,-97 678,-67 836,-67 836,-97"/>
<text text-anchor="start" x="686" y="-85" font-family="Helvetica,sans-Serif" font-size="10.00">tree_nodet&lt; treet,</text>
<text text-anchor="middle" x="757" y="-74" font-family="Helvetica,sans-Serif" font-size="10.00"> named_subtreest, sharing &gt;</text>
</a>
</g>
</g>
<!-- Node7&#45;&gt;Node12 -->
<g id="edge15_Node000012_Node000007" class="edge">
<title>Node7&#45;&gt;Node12</title>
<g id="a_edge15_Node000012_Node000007"><a xlink:title=" ">
<path fill="none" stroke="#9a32cd" stroke-dasharray="5,2" d="M503.58,-164.98C519.04,-160.41 537.34,-155.21 554,-151 600.74,-139.19 614.4,-143.63 660,-128 684.13,-119.73 710.14,-107.01 728.99,-97.04"/>
<polygon fill="#9a32cd" stroke="#9a32cd" points="502.46,-161.66 493.87,-167.87 504.46,-168.37 502.46,-161.66"/>
</a>
</g>
<text text-anchor="middle" x="607" y="-154" font-family="Helvetica,sans-Serif" font-size="10.00" fill="grey"> data</text>
</g>
<!-- Node20 -->
<g id="Node000020" class="node">
<title>Node20</title>
<g id="a_Node000020"><a xlink:href="structobject__factory__parameterst.html" target="_top" xlink:title=" ">
<polygon fill="white" stroke="#666666" points="833,-41.5 681,-41.5 681,-22.5 833,-22.5 833,-41.5"/>
<text text-anchor="middle" x="757" y="-29.5" font-family="Helvetica,sans-Serif" font-size="10.00">object_factory_parameterst</text>
</a>
</g>
</g>
<!-- Node7&#45;&gt;Node20 -->
<g id="edge31_Node000020_Node000007" class="edge">
<title>Node7&#45;&gt;Node20</title>
<g id="a_edge31_Node000020_Node000007"><a xlink:title=" ">
<path fill="none" stroke="#9a32cd" stroke-dasharray="5,2" d="M493.03,-161.16C506.26,-153.1 522.43,-142.61 536,-132 544.67,-125.22 544.22,-120.04 554,-115 596.68,-92.98 621.81,-123.12 660,-94 674.23,-83.15 664.49,-69.72 678,-58 686.52,-50.61 697.21,-45.31 707.92,-41.5"/>
<polygon fill="#9a32cd" stroke="#9a32cd" points="491.19,-158.19 484.42,-166.34 494.79,-164.19 491.19,-158.19"/>
</a>
</g>
<text text-anchor="middle" x="607" y="-118" font-family="Helvetica,sans-Serif" font-size="10.00" fill="grey"> function_id</text>
</g>
<!-- Node7&#45;&gt;Node25 -->
<g id="edge33_Node000025_Node000007" class="edge">
<title>Node7&#45;&gt;Node25</title>
<g id="a_edge33_Node000025_Node000007"><a xlink:title=" ">
<path fill="none" stroke="#9a32cd" stroke-dasharray="5,2" d="M503.99,-176C558.74,-176 665.37,-176 756,-176 756,-176 756,-176 1812.5,-176 1882.43,-176 1961.94,-201.97 2000.89,-216.48"/>
<polygon fill="#9a32cd" stroke="#9a32cd" points="503.75,-172.5 493.75,-176 503.75,-179.5 503.75,-172.5"/>
</a>
</g>
<text text-anchor="middle" x="1311.5" y="-190" font-family="Helvetica,sans-Serif" font-size="10.00" fill="grey"> name_prefix</text>
<text text-anchor="middle" x="1311.5" y="-179" font-family="Helvetica,sans-Serif" font-size="10.00" fill="grey">symbol_mode</text>
</g>
<!-- Node26 -->
<g id="Node000026" class="node">
<title>Node26</title>
<g id="a_Node000026"><a xlink:title=" ">
<polygon fill="white" stroke="#666666" points="821,-235.5 693,-235.5 693,-216.5 821,-216.5 821,-235.5"/>
<text text-anchor="middle" x="757" y="-223.5" font-family="Helvetica,sans-Serif" font-size="10.00">std::vector&lt; dstringt &gt;</text>
</a>
</g>
</g>
<!-- Node7&#45;&gt;Node26 -->
<g id="edge38_Node000026_Node000007" class="edge">
<title>Node7&#45;&gt;Node26</title>
<g id="a_edge38_Node000026_Node000007"><a xlink:title=" ">
<path fill="none" stroke="#9a32cd" stroke-dasharray="5,2" d="M503.57,-182.25C553.23,-190.86 643.07,-206.43 701.1,-216.49"/>
<polygon fill="#9a32cd" stroke="#9a32cd" points="504.06,-178.78 493.61,-180.53 502.87,-185.68 504.06,-178.78"/>
</a>
</g>
<text text-anchor="middle" x="607" y="-212" font-family="Helvetica,sans-Serif" font-size="10.00" fill="grey"> elements</text>
</g>
<!-- Node8&#45;&gt;Node6 -->
<g id="edge7_Node000006_Node000008" class="edge">
<title>Node8&#45;&gt;Node6</title>
<g id="a_edge7_Node000006_Node000008"><a xlink:title=" ">
<path fill="none" stroke="orange" stroke-dasharray="5,2" d="M540.03,-316.5C589.35,-316.16 653.67,-315.71 699.25,-315.39"/>
<polygon fill="orange" stroke="orange" points="539.72,-313 529.75,-316.57 539.77,-320 539.72,-313"/>
</a>
</g>
<text text-anchor="middle" x="607" y="-319" font-family="Helvetica,sans-Serif" font-size="10.00" fill="grey"> &lt; irep_idt, irep_idt &gt;</text>
</g>
<!-- Node9 -->
<g id="Node000009" class="node">
<title>Node9</title>
<g id="a_Node000009"><a xlink:href="classsource__locationt.html" target="_top" xlink:title=" ">
<polygon fill="white" stroke="#666666" points="1860,-127.5 1763,-127.5 1763,-108.5 1860,-108.5 1860,-127.5"/>
<text text-anchor="middle" x="1811.5" y="-115.5" font-family="Helvetica,sans-Serif" font-size="10.00">source_locationt</text>
</a>
</g>
</g>
<!-- Node9&#45;&gt;Node1 -->
<g id="edge10_Node000001_Node000009" class="edge">
<title>Node9&#45;&gt;Node1</title>
<g id="a_edge10_Node000001_Node000009"><a xlink:title=" ">
<path fill="none" stroke="#9a32cd" stroke-dasharray="5,2" d="M1870.12,-120.05C1897.04,-121.79 1929.38,-125.02 1958,-131 2058,-151.89 2171.81,-196.68 2219.31,-216.38"/>
<polygon fill="#9a32cd" stroke="#9a32cd" points="1870.28,-116.55 1860.09,-119.45 1869.86,-123.54 1870.28,-116.55"/>
</a>
</g>
<text text-anchor="middle" x="2026" y="-166" font-family="Helvetica,sans-Serif" font-size="10.00" fill="grey"> loc</text>
</g>
<!-- Node9&#45;&gt;Node25 -->
<g id="edge34_Node000025_Node000009" class="edge">
<title>Node9&#45;&gt;Node25</title>
<g id="a_edge34_Node000025_Node000009"><a xlink:title=" ">
<path fill="none" stroke="#9a32cd" stroke-dasharray="5,2" d="M1870.11,-127.37C1904,-133.59 1943.07,-142.21 1958,-151 1986.28,-167.66 2009.16,-200.3 2019.32,-216.46"/>
<polygon fill="#9a32cd" stroke="#9a32cd" points="1870.71,-123.92 1860.25,-125.6 1869.47,-130.81 1870.71,-123.92"/>
</a>
</g>
<text text-anchor="middle" x="1918" y="-154" font-family="Helvetica,sans-Serif" font-size="10.00" fill="grey"> source_location</text>
</g>
<!-- Node10 -->
<g id="Node000010" class="node">
<title>Node10</title>
<g id="a_Node000010"><a xlink:href="classirept.html" target="_top" xlink:title="There are a large number of kinds of tree structured or tree&#45;like data in CPROVER.">
<polygon fill="white" stroke="#666666" points="1574,-127.5 1535,-127.5 1535,-108.5 1574,-108.5 1574,-127.5"/>
<text text-anchor="middle" x="1554.5" y="-115.5" font-family="Helvetica,sans-Serif" font-size="10.00">irept</text>
</a>
</g>
</g>
<!-- Node10&#45;&gt;Node9 -->
<g id="edge11_Node000009_Node000010" class="edge">
<title>Node10&#45;&gt;Node9</title>
<g id="a_edge11_Node000009_Node000010"><a xlink:title=" ">
<path fill="none" stroke="#63b8ff" d="M1584.4,-118C1627.78,-118 1710.23,-118 1762.67,-118"/>
<polygon fill="#63b8ff" stroke="#63b8ff" points="1584.25,-114.5 1574.25,-118 1584.25,-121.5 1584.25,-114.5"/>
</a>
</g>
</g>
<!-- Node11 -->
<g id="Node000011" class="node">
<title>Node11</title>
<g id="a_Node000011"><a xlink:href="classsharing__treet.html" target="_top" xlink:title=" ">
<polygon fill="white" stroke="#666666" points="1374,-138.5 1249,-138.5 1249,-97.5 1374,-97.5 1374,-138.5"/>
<text text-anchor="start" x="1257" y="-126.5" font-family="Helvetica,sans-Serif" font-size="10.00">sharing_treet&lt; irept,</text>
<text text-anchor="start" x="1257" y="-115.5" font-family="Helvetica,sans-Serif" font-size="10.00"> forward_list_as_mapt</text>
<text text-anchor="middle" x="1311.5" y="-104.5" font-family="Helvetica,sans-Serif" font-size="10.00">&lt; irep_idt, irept &gt; &gt;</text>
</a>
</g>
</g>
<!-- Node11&#45;&gt;Node10 -->
<g id="edge12_Node000010_Node000011" class="edge">
<title>Node11&#45;&gt;Node10</title>
<g id="a_edge12_Node000010_Node000011"><a xlink:title=" ">
<path fill="none" stroke="#63b8ff" d="M1384.44,-118C1436.4,-118 1502.83,-118 1534.74,-118"/>
<polygon fill="#63b8ff" stroke="#63b8ff" points="1384.25,-114.5 1374.25,-118 1384.25,-121.5 1384.25,-114.5"/>
</a>
</g>
</g>
<!-- Node12&#45;&gt;Node11 -->
<g id="edge13_Node000011_Node000012" class="edge">
<title>Node12&#45;&gt;Node11</title>
<g id="a_edge13_Node000011_Node000012"><a xlink:title=" ">
<path fill="none" stroke="#9a32cd" stroke-dasharray="5,2" d="M846.39,-81.17C904.59,-81.2 982.41,-82.33 1051,-87 1118.9,-91.62 1196.32,-101.47 1248.8,-108.83"/>
<polygon fill="#9a32cd" stroke="#9a32cd" points="846.13,-77.67 836.13,-81.17 846.13,-84.67 846.13,-77.67"/>
</a>
</g>
<text text-anchor="middle" x="983" y="-101" font-family="Helvetica,sans-Serif" font-size="10.00" fill="grey"> data</text>
<text text-anchor="middle" x="983" y="-90" font-family="Helvetica,sans-Serif" font-size="10.00" fill="grey">empty_d</text>
</g>
<!-- Node16 -->
<g id="Node000016" class="node">
<title>Node16</title>
<g id="a_Node000016"><a xlink:href="classsharing__treet.html" target="_top" xlink:title="Base class for tree&#45;like data structures with sharing.">
<polygon fill="white" stroke="#666666" points="1051,-148 915,-148 915,-118 1051,-118 1051,-148"/>
<text text-anchor="start" x="923" y="-136" font-family="Helvetica,sans-Serif" font-size="10.00">sharing_treet&lt; derivedt,</text>
<text text-anchor="middle" x="983" y="-125" font-family="Helvetica,sans-Serif" font-size="10.00"> named_subtreest &gt;</text>
</a>
</g>
</g>
<!-- Node12&#45;&gt;Node16 -->
<g id="edge20_Node000016_Node000012" class="edge">
<title>Node12&#45;&gt;Node16</title>
<g id="a_edge20_Node000016_Node000012"><a xlink:title=" ">
<path fill="none" stroke="#9a32cd" stroke-dasharray="5,2" d="M834.04,-99.31C860.68,-105.38 890.35,-112.13 916.09,-117.99"/>
<polygon fill="#9a32cd" stroke="#9a32cd" points="834.52,-95.83 824,-97.03 832.97,-102.66 834.52,-95.83"/>
</a>
</g>
<text text-anchor="middle" x="875.5" y="-128" font-family="Helvetica,sans-Serif" font-size="10.00" fill="grey"> data</text>
<text text-anchor="middle" x="875.5" y="-117" font-family="Helvetica,sans-Serif" font-size="10.00" fill="grey">empty_d</text>
</g>
<!-- Node13 -->
<g id="Node000013" class="node">
<title>Node13</title>
<g id="a_Node000013"><a xlink:href="structref__count__ift.html" target="_top" xlink:title="Used in tree_nodet for activating or not reference counting.">
<polygon fill="white" stroke="#666666" points="536,-61.5 397,-61.5 397,-42.5 536,-42.5 536,-61.5"/>
<text text-anchor="middle" x="466.5" y="-49.5" font-family="Helvetica,sans-Serif" font-size="10.00">ref_count_ift&lt; enabled &gt;</text>
</a>
</g>
</g>
<!-- Node13&#45;&gt;Node12 -->
<g id="edge14_Node000012_Node000013" class="edge">
<title>Node13&#45;&gt;Node12</title>
<g id="a_edge14_Node000012_Node000013"><a xlink:title=" ">
<path fill="none" stroke="#63b8ff" d="M546.45,-54.05C581.35,-55.59 622.82,-58.28 660,-63 668.43,-64.07 677.22,-65.45 685.93,-66.97"/>
<polygon fill="#63b8ff" stroke="#63b8ff" points="546.45,-50.54 536.31,-53.62 546.16,-57.54 546.45,-50.54"/>
</a>
</g>
</g>
<!-- Node14 -->
<g id="Node000014" class="node">
<title>Node14</title>
<g id="a_Node000014"><a xlink:title=" ">
<polygon fill="white" stroke="#666666" points="523.5,-123.5 409.5,-123.5 409.5,-104.5 523.5,-104.5 523.5,-123.5"/>
<text text-anchor="middle" x="466.5" y="-111.5" font-family="Helvetica,sans-Serif" font-size="10.00">std::vector&lt; treet &gt;</text>
</a>
</g>
</g>
<!-- Node14&#45;&gt;Node12 -->
<g id="edge16_Node000012_Node000014" class="edge">
<title>Node14&#45;&gt;Node12</title>
<g id="a_edge16_Node000012_Node000014"><a xlink:title=" ">
<path fill="none" stroke="#9a32cd" stroke-dasharray="5,2" d="M497.48,-100.41C513.82,-93.74 534.62,-86.42 554,-83 594.41,-75.87 640.07,-75.05 677.75,-76.26"/>
<polygon fill="#9a32cd" stroke="#9a32cd" points="495.79,-97.33 487.93,-104.44 498.51,-103.78 495.79,-97.33"/>
</a>
</g>
<text text-anchor="middle" x="607" y="-86" font-family="Helvetica,sans-Serif" font-size="10.00" fill="grey"> sub</text>
</g>
<!-- Node15&#45;&gt;Node14 -->
<g id="edge17_Node000014_Node000015" class="edge">
<title>Node15&#45;&gt;Node14</title>
<g id="a_edge17_Node000014_Node000015"><a xlink:title=" ">
<path fill="none" stroke="orange" stroke-dasharray="5,2" d="M262.61,-241.77C293.66,-222.15 349.33,-187 397,-157 415.3,-145.48 436.37,-132.26 450.26,-123.55"/>
<polygon fill="orange" stroke="orange" points="260.38,-239.03 253.79,-247.33 264.12,-244.95 260.38,-239.03"/>
</a>
</g>
<text text-anchor="middle" x="341.5" y="-217" font-family="Helvetica,sans-Serif" font-size="10.00" fill="grey"> &lt; treet &gt;</text>
</g>
<!-- Node15&#45;&gt;Node26 -->
<g id="edge39_Node000026_Node000015" class="edge">
<title>Node15&#45;&gt;Node26</title>
<g id="a_edge39_Node000026_Node000015"><a xlink:title=" ">
<path fill="none" stroke="orange" stroke-dasharray="5,2" d="M296.28,-266.09C378.14,-277.2 532.15,-291.57 660,-266 689.04,-260.19 720.27,-245.41 738.97,-235.53"/>
<polygon fill="orange" stroke="orange" points="296.57,-262.6 286.18,-264.68 295.61,-269.53 296.57,-262.6"/>
</a>
</g>
<text text-anchor="middle" x="466.5" y="-283" font-family="Helvetica,sans-Serif" font-size="10.00" fill="grey"> &lt; dstringt &gt;</text>
</g>
<!-- Node16&#45;&gt;Node11 -->
<g id="edge19_Node000011_Node000016" class="edge">
<title>Node16&#45;&gt;Node11</title>
<g id="a_edge19_Node000011_Node000016"><a xlink:title=" ">
<path fill="none" stroke="orange" stroke-dasharray="5,2" d="M1061.35,-129.45C1118.65,-126.81 1195.68,-123.27 1248.85,-120.83"/>
<polygon fill="orange" stroke="orange" points="1061.08,-125.95 1051.26,-129.91 1061.41,-132.95 1061.08,-125.95"/>
</a>
</g>
<text text-anchor="start" x="1076.5" y="-143" font-family="Helvetica,sans-Serif" font-size="10.00" fill="grey"> &lt; irept, forward_list</text>
<text text-anchor="middle" x="1150" y="-132" font-family="Helvetica,sans-Serif" font-size="10.00" fill="grey">_as_mapt&lt; irep_idt, irept &gt; &gt;</text>
</g>
<!-- Node17&#45;&gt;Node1 -->
<g id="edge21_Node000001_Node000017" class="edge">
<title>Node17&#45;&gt;Node1</title>
<g id="a_edge21_Node000001_Node000017"><a xlink:title=" ">
<path fill="none" stroke="#9a32cd" stroke-dasharray="5,2" d="M1860.19,-308.21C1888.71,-306.1 1925.59,-302.58 1958,-297 2050.91,-281.01 2158.29,-250.91 2210.39,-235.55"/>
<polygon fill="#9a32cd" stroke="#9a32cd" points="1859.81,-304.73 1850.08,-308.93 1860.31,-311.71 1859.81,-304.73"/>
</a>
</g>
<text text-anchor="middle" x="2026" y="-296" font-family="Helvetica,sans-Serif" font-size="10.00" fill="grey"> ns</text>
</g>
<!-- Node17&#45;&gt;Node25 -->
<g id="edge36_Node000025_Node000017" class="edge">
<title>Node17&#45;&gt;Node25</title>
<g id="a_edge36_Node000025_Node000017"><a xlink:title=" ">
<path fill="none" stroke="#9a32cd" stroke-dasharray="5,2" d="M1845.47,-297.79C1855.82,-293.81 1867.33,-289.56 1878,-286 1913.09,-274.28 1923.81,-277.14 1958,-263 1976.66,-255.28 1996.78,-243.68 2010.05,-235.54"/>
<polygon fill="#9a32cd" stroke="#9a32cd" points="1844.02,-294.6 1835.97,-301.49 1846.56,-301.12 1844.02,-294.6"/>
</a>
</g>
<text text-anchor="middle" x="1918" y="-289" font-family="Helvetica,sans-Serif" font-size="10.00" fill="grey"> ns</text>
</g>
<!-- Node18 -->
<g id="Node000018" class="node">
<title>Node18</title>
<g id="a_Node000018"><a xlink:href="classnamespace__baset.html" target="_top" xlink:title="Basic interface for a namespace.">
<polygon fill="white" stroke="#666666" points="1607,-273.5 1502,-273.5 1502,-254.5 1607,-254.5 1607,-273.5"/>
<text text-anchor="middle" x="1554.5" y="-261.5" font-family="Helvetica,sans-Serif" font-size="10.00">namespace_baset</text>
</a>
</g>
</g>
<!-- Node18&#45;&gt;Node17 -->
<g id="edge22_Node000017_Node000018" class="edge">
<title>Node18&#45;&gt;Node17</title>
<g id="a_edge22_Node000017_Node000018"><a xlink:title=" ">
<path fill="none" stroke="#63b8ff" d="M1617.17,-275.37C1665.66,-284.3 1731.66,-296.47 1772.65,-304.02"/>
<polygon fill="#63b8ff" stroke="#63b8ff" points="1617.57,-271.88 1607.1,-273.51 1616.3,-278.77 1617.57,-271.88"/>
</a>
</g>
</g>
<!-- Node19 -->
<g id="Node000019" class="node">
<title>Node19</title>
<g id="a_Node000019"><a xlink:href="structc__object__factory__parameterst.html" target="_top" xlink:title=" ">
<polygon fill="white" stroke="#666666" points="1231,-52.5 1069,-52.5 1069,-33.5 1231,-33.5 1231,-52.5"/>
<text text-anchor="middle" x="1150" y="-40.5" font-family="Helvetica,sans-Serif" font-size="10.00">c_object_factory_parameterst</text>
</a>
</g>
</g>
<!-- Node19&#45;&gt;Node1 -->
<g id="edge24_Node000001_Node000019" class="edge">
<title>Node19&#45;&gt;Node1</title>
<g id="a_edge24_Node000001_Node000019"><a xlink:title=" ">
<path fill="none" stroke="#9a32cd" stroke-dasharray="5,2" d="M1241.44,-51.67C1297.07,-56.28 1369.85,-61 1434.5,-61 1434.5,-61 1434.5,-61 2027,-61 2129.57,-61 2213.36,-180.65 2235.97,-216.17"/>
<polygon fill="#9a32cd" stroke="#9a32cd" points="1241.52,-48.17 1231.26,-50.82 1240.93,-55.14 1241.52,-48.17"/>
</a>
</g>
<text text-anchor="middle" x="1687.5" y="-64" font-family="Helvetica,sans-Serif" font-size="10.00" fill="grey"> object_factory_params</text>
</g>
<!-- Node20&#45;&gt;Node19 -->
<g id="edge25_Node000019_Node000020" class="edge">
<title>Node20&#45;&gt;Node19</title>
<g id="a_edge25_Node000019_Node000020"><a xlink:title=" ">
<path fill="none" stroke="#63b8ff" d="M843.5,-34.41C910.54,-36.29 1003.16,-38.9 1068.8,-40.74"/>
<polygon fill="#63b8ff" stroke="#63b8ff" points="843.48,-30.9 833.39,-34.12 843.29,-37.9 843.48,-30.9"/>
</a>
</g>
</g>
<!-- Node21 -->
<g id="Node000021" class="node">
<title>Node21</title>
<g id="a_Node000021"><a xlink:title=" ">
<polygon fill="white" stroke="#666666" points="528.5,-24.5 404.5,-24.5 404.5,-5.5 528.5,-5.5 528.5,-24.5"/>
<text text-anchor="middle" x="466.5" y="-12.5" font-family="Helvetica,sans-Serif" font-size="10.00">std::list&lt; std::string &gt;</text>
</a>
</g>
</g>
<!-- Node21&#45;&gt;Node20 -->
<g id="edge26_Node000020_Node000021" class="edge">
<title>Node21&#45;&gt;Node20</title>
<g id="a_edge26_Node000020_Node000021"><a xlink:title=" ">
<path fill="none" stroke="#9a32cd" stroke-dasharray="5,2" d="M538.66,-17.71C574.99,-19.25 619.87,-21.39 660,-24 666.76,-24.44 673.78,-24.94 680.82,-25.47"/>
<polygon fill="#9a32cd" stroke="#9a32cd" points="538.79,-14.21 528.65,-17.29 538.5,-21.2 538.79,-14.21"/>
</a>
</g>
<text text-anchor="middle" x="607" y="-27" font-family="Helvetica,sans-Serif" font-size="10.00" fill="grey"> string_input_values</text>
</g>
<!-- Node22 -->
<g id="Node000022" class="node">
<title>Node22</title>
<g id="a_Node000022"><a xlink:title=" ">
<polygon fill="white" stroke="#666666" points="270,-24.5 205,-24.5 205,-5.5 270,-5.5 270,-24.5"/>
<text text-anchor="middle" x="237.5" y="-12.5" font-family="Helvetica,sans-Serif" font-size="10.00">std::string</text>
</a>
</g>
</g>
<!-- Node22&#45;&gt;Node21 -->
<g id="edge27_Node000021_Node000022" class="edge">
<title>Node22&#45;&gt;Node21</title>
<g id="a_edge27_Node000021_Node000022"><a xlink:title=" ">
<path fill="none" stroke="#9a32cd" stroke-dasharray="5,2" d="M280.34,-15C315.11,-15 365.07,-15 404.33,-15"/>
<polygon fill="#9a32cd" stroke="#9a32cd" points="280.06,-11.5 270.06,-15 280.06,-18.5 280.06,-11.5"/>
</a>
</g>
<text text-anchor="middle" x="341.5" y="-18" font-family="Helvetica,sans-Serif" font-size="10.00" fill="grey"> elements</text>
</g>
<!-- Node23 -->
<g id="Node000023" class="node">
<title>Node23</title>
<g id="a_Node000023"><a xlink:title=" ">
<polygon fill="white" stroke="#666666" points="104,-30 0,-30 0,0 104,0 104,-30"/>
<text text-anchor="start" x="8" y="-18" font-family="Helvetica,sans-Serif" font-size="10.00">std::basic_string&lt;</text>
<text text-anchor="middle" x="52" y="-7" font-family="Helvetica,sans-Serif" font-size="10.00"> Char &gt;</text>
</a>
</g>
</g>
<!-- Node23&#45;&gt;Node22 -->
<g id="edge28_Node000022_Node000023" class="edge">
<title>Node23&#45;&gt;Node22</title>
<g id="a_edge28_Node000022_Node000023"><a xlink:title=" ">
<path fill="none" stroke="#63b8ff" d="M114.21,-15C144.61,-15 180.06,-15 204.94,-15"/>
<polygon fill="#63b8ff" stroke="#63b8ff" points="114.12,-11.5 104.11,-15 114.11,-18.5 114.12,-11.5"/>
</a>
</g>
</g>
<!-- Node24&#45;&gt;Node21 -->
<g id="edge29_Node000021_Node000024" class="edge">
<title>Node24&#45;&gt;Node21</title>
<g id="a_edge29_Node000021_Node000024"><a xlink:title=" ">
<path fill="none" stroke="orange" stroke-dasharray="5,2" d="M257.47,-126.48C285.91,-102.53 342.14,-58.28 397,-33 404.26,-29.65 412.25,-26.85 420.13,-24.52"/>
<polygon fill="orange" stroke="orange" points="254.91,-124.07 249.57,-133.22 259.45,-129.39 254.91,-124.07"/>
</a>
</g>
<text text-anchor="middle" x="341.5" y="-91" font-family="Helvetica,sans-Serif" font-size="10.00" fill="grey"> &lt; std::string &gt;</text>
</g>
<!-- Node25&#45;&gt;Node1 -->
<g id="edge32_Node000001_Node000025" class="edge">
<title>Node25&#45;&gt;Node1</title>
<g id="a_edge32_Node000001_Node000025"><a xlink:title=" ">
<path fill="none" stroke="#9a32cd" stroke-dasharray="5,2" d="M2086.36,-226C2120.48,-226 2162.76,-226 2194.63,-226"/>
<polygon fill="#9a32cd" stroke="#9a32cd" points="2086.06,-222.5 2076.06,-226 2086.06,-229.5 2086.06,-222.5"/>
</a>
</g>
<text text-anchor="middle" x="2135.5" y="-229" font-family="Helvetica,sans-Serif" font-size="10.00" fill="grey"> allocate_objects</text>
</g>
<!-- Node26&#45;&gt;Node25 -->
<g id="edge37_Node000025_Node000026" class="edge">
<title>Node26&#45;&gt;Node25</title>
<g id="a_edge37_Node000025_Node000026"><a xlink:title=" ">
<path fill="none" stroke="#9a32cd" stroke-dasharray="5,2" d="M831.5,-226C875.22,-226 931.78,-226 982,-226 982,-226 982,-226 1812.5,-226 1868.39,-226 1932.55,-226 1975.62,-226"/>
<polygon fill="#9a32cd" stroke="#9a32cd" points="831.24,-222.5 821.24,-226 831.24,-229.5 831.24,-222.5"/>
</a>
</g>
<text text-anchor="middle" x="1435.5" y="-229" font-family="Helvetica,sans-Serif" font-size="10.00" fill="grey"> symbols_created</text>
</g>
</g>
</svg>
