<?xml version="1.0" encoding="UTF-8" standalone="no"?>
<!DOCTYPE svg PUBLIC "-//W3C//DTD SVG 1.1//EN"
 "http://www.w3.org/Graphics/SVG/1.1/DTD/svg11.dtd">
<!-- Generated by graphviz version 2.43.0 (0)
 -->
<!-- Title: side_effect_expr_overflowt Pages: 1 -->
<svg width="229pt" height="361pt"
 viewBox="0.00 0.00 229.00 361.00" xmlns="http://www.w3.org/2000/svg" xmlns:xlink="http://www.w3.org/1999/xlink">
<g id="graph0" class="graph" transform="scale(1 1) rotate(0) translate(4 357)">
<title>side_effect_expr_overflowt</title>
<!-- Node1 -->
<g id="Node000001" class="node">
<title>Node1</title>
<g id="a_Node000001"><a xlink:title="A Boolean expression returning true, iff the result of performing operation kind on operands a and b ...">
<polygon fill="#999999" stroke="#666666" points="148,-19 0,-19 0,0 148,0 148,-19"/>
<text text-anchor="middle" x="74" y="-7" font-family="Helvetica,sans-Serif" font-size="10.00">side_effect_expr_overflowt</text>
</a>
</g>
</g>
<!-- Node2 -->
<g id="Node000002" class="node">
<title>Node2</title>
<g id="a_Node000002"><a xlink:href="classside__effect__exprt.html" target="_top" xlink:title="An expression containing a side effect.">
<polygon fill="white" stroke="#666666" points="124.5,-75 23.5,-75 23.5,-56 124.5,-56 124.5,-75"/>
<text text-anchor="middle" x="74" y="-63" font-family="Helvetica,sans-Serif" font-size="10.00">side_effect_exprt</text>
</a>
</g>
</g>
<!-- Node2&#45;&gt;Node1 -->
<g id="edge1_Node000001_Node000002" class="edge">
<title>Node2&#45;&gt;Node1</title>
<g id="a_edge1_Node000001_Node000002"><a xlink:title=" ">
<path fill="none" stroke="#63b8ff" d="M74,-45.3C74,-36.41 74,-26.28 74,-19.25"/>
<polygon fill="#63b8ff" stroke="#63b8ff" points="70.5,-45.58 74,-55.58 77.5,-45.58 70.5,-45.58"/>
</a>
</g>
</g>
<!-- Node3 -->
<g id="Node000003" class="node">
<title>Node3</title>
<g id="a_Node000003"><a xlink:href="classexprt.html" target="_top" xlink:title="Base class for all expressions.">
<polygon fill="white" stroke="#666666" points="95,-131 53,-131 53,-112 95,-112 95,-131"/>
<text text-anchor="middle" x="74" y="-119" font-family="Helvetica,sans-Serif" font-size="10.00">exprt</text>
</a>
</g>
</g>
<!-- Node3&#45;&gt;Node2 -->
<g id="edge2_Node000002_Node000003" class="edge">
<title>Node3&#45;&gt;Node2</title>
<g id="a_edge2_Node000002_Node000003"><a xlink:title=" ">
<path fill="none" stroke="#63b8ff" d="M74,-101.3C74,-92.41 74,-82.28 74,-75.25"/>
<polygon fill="#63b8ff" stroke="#63b8ff" points="70.5,-101.58 74,-111.58 77.5,-101.58 70.5,-101.58"/>
</a>
</g>
</g>
<!-- Node4 -->
<g id="Node000004" class="node">
<title>Node4</title>
<g id="a_Node000004"><a xlink:href="classirept.html" target="_top" xlink:title="There are a large number of kinds of tree structured or tree&#45;like data in CPROVER.">
<polygon fill="white" stroke="#666666" points="93.5,-187 54.5,-187 54.5,-168 93.5,-168 93.5,-187"/>
<text text-anchor="middle" x="74" y="-175" font-family="Helvetica,sans-Serif" font-size="10.00">irept</text>
</a>
</g>
</g>
<!-- Node4&#45;&gt;Node3 -->
<g id="edge3_Node000003_Node000004" class="edge">
<title>Node4&#45;&gt;Node3</title>
<g id="a_edge3_Node000003_Node000004"><a xlink:title=" ">
<path fill="none" stroke="#63b8ff" d="M74,-157.3C74,-148.41 74,-138.28 74,-131.25"/>
<polygon fill="#63b8ff" stroke="#63b8ff" points="70.5,-157.58 74,-167.58 77.5,-157.58 70.5,-157.58"/>
</a>
</g>
</g>
<!-- Node5 -->
<g id="Node000005" class="node">
<title>Node5</title>
<g id="a_Node000005"><a xlink:href="classsharing__treet.html" target="_top" xlink:title=" ">
<polygon fill="white" stroke="#666666" points="136.5,-265 11.5,-265 11.5,-224 136.5,-224 136.5,-265"/>
<text text-anchor="start" x="19.5" y="-253" font-family="Helvetica,sans-Serif" font-size="10.00">sharing_treet&lt; irept,</text>
<text text-anchor="start" x="19.5" y="-242" font-family="Helvetica,sans-Serif" font-size="10.00"> forward_list_as_mapt</text>
<text text-anchor="middle" x="74" y="-231" font-family="Helvetica,sans-Serif" font-size="10.00">&lt; irep_idt, irept &gt; &gt;</text>
</a>
</g>
</g>
<!-- Node5&#45;&gt;Node4 -->
<g id="edge4_Node000004_Node000005" class="edge">
<title>Node5&#45;&gt;Node4</title>
<g id="a_edge4_Node000004_Node000005"><a xlink:title=" ">
<path fill="none" stroke="#63b8ff" d="M74,-213.76C74,-204.06 74,-194.02 74,-187.15"/>
<polygon fill="#63b8ff" stroke="#63b8ff" points="70.5,-214 74,-224 77.5,-214 70.5,-214"/>
</a>
</g>
</g>
<!-- Node6 -->
<g id="Node000006" class="node">
<title>Node6</title>
<g id="a_Node000006"><a xlink:href="classsharing__treet.html" target="_top" xlink:title="Base class for tree&#45;like data structures with sharing.">
<polygon fill="white" stroke="#666666" points="142,-353 6,-353 6,-323 142,-323 142,-353"/>
<text text-anchor="start" x="14" y="-341" font-family="Helvetica,sans-Serif" font-size="10.00">sharing_treet&lt; derivedt,</text>
<text text-anchor="middle" x="74" y="-330" font-family="Helvetica,sans-Serif" font-size="10.00"> named_subtreest &gt;</text>
</a>
</g>
</g>
<!-- Node6&#45;&gt;Node5 -->
<g id="edge5_Node000005_Node000006" class="edge">
<title>Node6&#45;&gt;Node5</title>
<g id="a_edge5_Node000005_Node000006"><a xlink:title=" ">
<path fill="none" stroke="orange" stroke-dasharray="5,2" d="M74,-312.69C74,-297.82 74,-279.05 74,-265.13"/>
<polygon fill="orange" stroke="orange" points="70.5,-312.7 74,-322.7 77.5,-312.7 70.5,-312.7"/>
</a>
</g>
<text text-anchor="start" x="74" y="-297" font-family="Helvetica,sans-Serif" font-size="10.00" fill="grey"> &lt; irept, forward_list</text>
<text text-anchor="middle" x="147.5" y="-286" font-family="Helvetica,sans-Serif" font-size="10.00" fill="grey">_as_mapt&lt; irep_idt, irept &gt; &gt;</text>
</g>
</g>
</svg>
