<?xml version="1.0" encoding="UTF-8" standalone="no"?>
<!DOCTYPE svg PUBLIC "-//W3C//DTD SVG 1.1//EN"
 "http://www.w3.org/Graphics/SVG/1.1/DTD/svg11.dtd">
<!-- Generated by graphviz version 2.43.0 (0)
 -->
<!-- Title: uninitialized_domaint Pages: 1 -->
<svg width="317pt" height="225pt"
 viewBox="0.00 0.00 317.00 225.00" xmlns="http://www.w3.org/2000/svg" xmlns:xlink="http://www.w3.org/1999/xlink">
<g id="graph0" class="graph" transform="scale(1 1) rotate(0) translate(4 221)">
<title>uninitialized_domaint</title>
<!-- Node1 -->
<g id="Node000001" class="node">
<title>Node1</title>
<g id="a_Node000001"><a xlink:title=" ">
<polygon fill="#999999" stroke="#666666" points="235,-19 113,-19 113,0 235,0 235,-19"/>
<text text-anchor="middle" x="174" y="-7" font-family="Helvetica,sans-Serif" font-size="10.00">uninitialized_domaint</text>
</a>
</g>
</g>
<!-- Node2 -->
<g id="Node000002" class="node">
<title>Node2</title>
<g id="a_Node000002"><a xlink:href="classai__domain__baset.html" target="_top" xlink:title="The interface offered by a domain, allows code to manipulate domains without knowing their exact type...">
<polygon fill="white" stroke="#666666" points="100,-85 0,-85 0,-66 100,-66 100,-85"/>
<text text-anchor="middle" x="50" y="-73" font-family="Helvetica,sans-Serif" font-size="10.00">ai_domain_baset</text>
</a>
</g>
</g>
<!-- Node2&#45;&gt;Node1 -->
<g id="edge1_Node000001_Node000002" class="edge">
<title>Node2&#45;&gt;Node1</title>
<g id="a_edge1_Node000001_Node000002"><a xlink:title=" ">
<path fill="none" stroke="#63b8ff" d="M75.78,-61.19C100.21,-48.59 136.19,-30.01 157.15,-19.2"/>
<polygon fill="#63b8ff" stroke="#63b8ff" points="74,-58.17 66.72,-65.87 77.21,-64.39 74,-58.17"/>
</a>
</g>
</g>
<!-- Node3 -->
<g id="Node000003" class="node">
<title>Node3</title>
<g id="a_Node000003"><a xlink:title=" ">
<polygon fill="white" stroke="#666666" points="230,-85 118,-85 118,-66 230,-66 230,-85"/>
<text text-anchor="middle" x="174" y="-73" font-family="Helvetica,sans-Serif" font-size="10.00">std::set&lt; irep_idt &gt;</text>
</a>
</g>
</g>
<!-- Node3&#45;&gt;Node1 -->
<g id="edge2_Node000001_Node000003" class="edge">
<title>Node3&#45;&gt;Node1</title>
<g id="a_edge2_Node000001_Node000003"><a xlink:title=" ">
<path fill="none" stroke="#9a32cd" stroke-dasharray="5,2" d="M174,-55.58C174,-43.63 174,-28.72 174,-19.41"/>
<polygon fill="#9a32cd" stroke="#9a32cd" points="170.5,-55.87 174,-65.87 177.5,-55.87 170.5,-55.87"/>
</a>
</g>
<text text-anchor="middle" x="206" y="-40" font-family="Helvetica,sans-Serif" font-size="10.00" fill="grey"> uninitialized</text>
</g>
<!-- Node4 -->
<g id="Node000004" class="node">
<title>Node4</title>
<g id="a_Node000004"><a xlink:href="classdstringt.html" target="_top" xlink:title="dstringt has one field, an unsigned integer no which is an index into a static table of strings.">
<polygon fill="white" stroke="#666666" points="167,-151 113,-151 113,-132 167,-132 167,-151"/>
<text text-anchor="middle" x="140" y="-139" font-family="Helvetica,sans-Serif" font-size="10.00">dstringt</text>
</a>
</g>
</g>
<!-- Node4&#45;&gt;Node3 -->
<g id="edge3_Node000003_Node000004" class="edge">
<title>Node4&#45;&gt;Node3</title>
<g id="a_edge3_Node000003_Node000004"><a xlink:title=" ">
<path fill="none" stroke="#9a32cd" stroke-dasharray="5,2" d="M148.75,-122.81C151.92,-116.53 155.56,-109.42 159,-103 162.2,-97.04 165.95,-90.41 168.9,-85.28"/>
<polygon fill="#9a32cd" stroke="#9a32cd" points="145.6,-121.29 144.26,-131.8 151.86,-124.42 145.6,-121.29"/>
</a>
</g>
<text text-anchor="middle" x="172" y="-106" font-family="Helvetica,sans-Serif" font-size="10.00" fill="grey"> keys</text>
</g>
<!-- Node5 -->
<g id="Node000005" class="node">
<title>Node5</title>
<g id="a_Node000005"><a xlink:title=" ">
<polygon fill="white" stroke="#666666" points="267,-151 185,-151 185,-132 267,-132 267,-151"/>
<text text-anchor="middle" x="226" y="-139" font-family="Helvetica,sans-Serif" font-size="10.00">std::set&lt; K &gt;</text>
</a>
</g>
</g>
<!-- Node5&#45;&gt;Node3 -->
<g id="edge4_Node000003_Node000005" class="edge">
<title>Node5&#45;&gt;Node3</title>
<g id="a_edge4_Node000003_Node000005"><a xlink:title=" ">
<path fill="none" stroke="orange" stroke-dasharray="5,2" d="M212.4,-123.77C202.43,-111.49 189.27,-95.3 181.24,-85.41"/>
<polygon fill="orange" stroke="orange" points="209.96,-126.31 218.99,-131.87 215.4,-121.9 209.96,-126.31"/>
</a>
</g>
<text text-anchor="middle" x="235.5" y="-106" font-family="Helvetica,sans-Serif" font-size="10.00" fill="grey"> &lt; irep_idt &gt;</text>
</g>
<!-- Node6 -->
<g id="Node000006" class="node">
<title>Node6</title>
<g id="a_Node000006"><a xlink:title=" ">
<polygon fill="white" stroke="#666666" points="240.5,-217 211.5,-217 211.5,-198 240.5,-198 240.5,-217"/>
<text text-anchor="middle" x="226" y="-205" font-family="Helvetica,sans-Serif" font-size="10.00">K</text>
</a>
</g>
</g>
<!-- Node6&#45;&gt;Node5 -->
<g id="edge5_Node000005_Node000006" class="edge">
<title>Node6&#45;&gt;Node5</title>
<g id="a_edge5_Node000005_Node000006"><a xlink:title=" ">
<path fill="none" stroke="#9a32cd" stroke-dasharray="5,2" d="M226,-187.58C226,-175.63 226,-160.72 226,-151.41"/>
<polygon fill="#9a32cd" stroke="#9a32cd" points="222.5,-187.87 226,-197.87 229.5,-187.87 222.5,-187.87"/>
</a>
</g>
<text text-anchor="middle" x="239" y="-172" font-family="Helvetica,sans-Serif" font-size="10.00" fill="grey"> keys</text>
</g>
<!-- Node7 -->
<g id="Node000007" class="node">
<title>Node7</title>
<g id="a_Node000007"><a xlink:href="classtvt.html" target="_top" xlink:title=" ">
<polygon fill="white" stroke="#666666" points="278,-85 248,-85 248,-66 278,-66 278,-85"/>
<text text-anchor="middle" x="263" y="-73" font-family="Helvetica,sans-Serif" font-size="10.00">tvt</text>
</a>
</g>
</g>
<!-- Node7&#45;&gt;Node1 -->
<g id="edge6_Node000001_Node000007" class="edge">
<title>Node7&#45;&gt;Node1</title>
<g id="a_edge6_Node000001_Node000007"><a xlink:title=" ">
<path fill="none" stroke="#9a32cd" stroke-dasharray="5,2" d="M255.6,-56.61C252.03,-49.74 247.16,-42.28 241,-37 231.6,-28.94 219.45,-23.15 208.08,-19.08"/>
<polygon fill="#9a32cd" stroke="#9a32cd" points="252.54,-58.34 259.91,-65.95 258.9,-55.4 252.54,-58.34"/>
</a>
</g>
<text text-anchor="middle" x="280" y="-40" font-family="Helvetica,sans-Serif" font-size="10.00" fill="grey"> has_values</text>
</g>
</g>
</svg>
