<?xml version="1.0" encoding="UTF-8" standalone="no"?>
<!DOCTYPE svg PUBLIC "-//W3C//DTD SVG 1.1//EN"
 "http://www.w3.org/Graphics/SVG/1.1/DTD/svg11.dtd">
<!-- Generated by graphviz version 2.43.0 (0)
 -->
<!-- Title: smt2irept Pages: 1 -->
<svg width="1712pt" height="341pt"
 viewBox="0.00 0.00 1712.00 341.00" xmlns="http://www.w3.org/2000/svg" xmlns:xlink="http://www.w3.org/1999/xlink">
<g id="graph0" class="graph" transform="scale(1 1) rotate(0) translate(4 337)">
<title>smt2irept</title>
<!-- Node1 -->
<g id="Node000001" class="node">
<title>Node1</title>
<g id="a_Node000001"><a xlink:title=" ">
<polygon fill="#999999" stroke="#666666" points="1704,-61.5 1640,-61.5 1640,-42.5 1704,-42.5 1704,-61.5"/>
<text text-anchor="middle" x="1672" y="-49.5" font-family="Helvetica,sans-Serif" font-size="10.00">smt2irept</text>
</a>
</g>
</g>
<!-- Node2 -->
<g id="Node000002" class="node">
<title>Node2</title>
<g id="a_Node000002"><a xlink:href="classsmt2__tokenizert.html" target="_top" xlink:title=" ">
<polygon fill="white" stroke="#666666" points="1132.5,-45.5 1037.5,-45.5 1037.5,-26.5 1132.5,-26.5 1132.5,-45.5"/>
<text text-anchor="middle" x="1085" y="-33.5" font-family="Helvetica,sans-Serif" font-size="10.00">smt2_tokenizert</text>
</a>
</g>
</g>
<!-- Node2&#45;&gt;Node1 -->
<g id="edge1_Node000001_Node000002" class="edge">
<title>Node2&#45;&gt;Node1</title>
<g id="a_edge1_Node000001_Node000002"><a xlink:title=" ">
<path fill="none" stroke="#63b8ff" d="M1143.11,-37.56C1264.81,-40.89 1546.25,-48.59 1639.99,-51.15"/>
<polygon fill="#63b8ff" stroke="#63b8ff" points="1142.98,-34.06 1132.88,-37.28 1142.78,-41.05 1142.98,-34.06"/>
</a>
</g>
</g>
<!-- Node3 -->
<g id="Node000003" class="node">
<title>Node3</title>
<g id="a_Node000003"><a xlink:title=" ">
<polygon fill="white" stroke="#666666" points="872,-69.5 797,-69.5 797,-50.5 872,-50.5 872,-69.5"/>
<text text-anchor="middle" x="834.5" y="-57.5" font-family="Helvetica,sans-Serif" font-size="10.00">std::istream</text>
</a>
</g>
</g>
<!-- Node3&#45;&gt;Node2 -->
<g id="edge2_Node000002_Node000003" class="edge">
<title>Node3&#45;&gt;Node2</title>
<g id="a_edge2_Node000002_Node000003"><a xlink:title=" ">
<path fill="none" stroke="#9a32cd" stroke-dasharray="5,2" d="M882.12,-55.5C926.54,-51.21 993.03,-44.79 1037.43,-40.5"/>
<polygon fill="#9a32cd" stroke="#9a32cd" points="881.78,-52.01 872.17,-56.46 882.46,-58.98 881.78,-52.01"/>
</a>
</g>
<text text-anchor="middle" x="959" y="-55" font-family="Helvetica,sans-Serif" font-size="10.00" fill="grey"> in</text>
</g>
<!-- Node4 -->
<g id="Node000004" class="node">
<title>Node4</title>
<g id="a_Node000004"><a xlink:title=" ">
<polygon fill="white" stroke="#666666" points="671.5,-78 565.5,-78 565.5,-48 671.5,-48 671.5,-78"/>
<text text-anchor="start" x="573.5" y="-66" font-family="Helvetica,sans-Serif" font-size="10.00">std::basic_istream</text>
<text text-anchor="middle" x="618.5" y="-55" font-family="Helvetica,sans-Serif" font-size="10.00">&lt; Char &gt;</text>
</a>
</g>
</g>
<!-- Node4&#45;&gt;Node3 -->
<g id="edge3_Node000003_Node000004" class="edge">
<title>Node4&#45;&gt;Node3</title>
<g id="a_edge3_Node000003_Node000004"><a xlink:title=" ">
<path fill="none" stroke="#63b8ff" d="M681.83,-62.13C719.09,-61.6 765.16,-60.96 796.68,-60.52"/>
<polygon fill="#63b8ff" stroke="#63b8ff" points="681.53,-58.63 671.58,-62.27 681.62,-65.63 681.53,-58.63"/>
</a>
</g>
</g>
<!-- Node5 -->
<g id="Node000005" class="node">
<title>Node5</title>
<g id="a_Node000005"><a xlink:title=" ">
<polygon fill="white" stroke="#666666" points="369,-149.5 241,-149.5 241,-130.5 369,-130.5 369,-149.5"/>
<text text-anchor="middle" x="305" y="-137.5" font-family="Helvetica,sans-Serif" font-size="10.00">std::basic_ios&lt; Char &gt;</text>
</a>
</g>
</g>
<!-- Node5&#45;&gt;Node4 -->
<g id="edge4_Node000004_Node000005" class="edge">
<title>Node5&#45;&gt;Node4</title>
<g id="a_edge4_Node000004_Node000005"><a xlink:title=" ">
<path fill="none" stroke="#63b8ff" d="M354.39,-128.04C411.62,-113.89 506.51,-90.44 565.34,-75.89"/>
<polygon fill="#63b8ff" stroke="#63b8ff" points="353.38,-124.68 344.51,-130.48 355.06,-131.48 353.38,-124.68"/>
</a>
</g>
</g>
<!-- Node19 -->
<g id="Node000019" class="node">
<title>Node19</title>
<g id="a_Node000019"><a xlink:title=" ">
<polygon fill="white" stroke="#666666" points="673,-211 564,-211 564,-181 673,-181 673,-211"/>
<text text-anchor="start" x="572" y="-199" font-family="Helvetica,sans-Serif" font-size="10.00">std::basic_ostream</text>
<text text-anchor="middle" x="618.5" y="-188" font-family="Helvetica,sans-Serif" font-size="10.00">&lt; Char &gt;</text>
</a>
</g>
</g>
<!-- Node5&#45;&gt;Node19 -->
<g id="edge19_Node000019_Node000005" class="edge">
<title>Node5&#45;&gt;Node19</title>
<g id="a_edge19_Node000019_Node000005"><a xlink:title=" ">
<path fill="none" stroke="#63b8ff" d="M369.2,-151.36C426.39,-161.64 509.69,-176.62 563.74,-186.34"/>
<polygon fill="#63b8ff" stroke="#63b8ff" points="369.66,-147.89 359.19,-149.56 368.42,-154.78 369.66,-147.89"/>
</a>
</g>
</g>
<!-- Node6 -->
<g id="Node000006" class="node">
<title>Node6</title>
<g id="a_Node000006"><a xlink:title=" ">
<polygon fill="white" stroke="#666666" points="119,-149.5 39,-149.5 39,-130.5 119,-130.5 119,-149.5"/>
<text text-anchor="middle" x="79" y="-137.5" font-family="Helvetica,sans-Serif" font-size="10.00">std::ios_base</text>
</a>
</g>
</g>
<!-- Node6&#45;&gt;Node5 -->
<g id="edge5_Node000005_Node000006" class="edge">
<title>Node6&#45;&gt;Node5</title>
<g id="a_edge5_Node000005_Node000006"><a xlink:title=" ">
<path fill="none" stroke="#63b8ff" d="M129.28,-140C162.11,-140 205.54,-140 240.9,-140"/>
<polygon fill="#63b8ff" stroke="#63b8ff" points="129.02,-136.5 119.02,-140 129.02,-143.5 129.02,-136.5"/>
</a>
</g>
</g>
<!-- Node7 -->
<g id="Node000007" class="node">
<title>Node7</title>
<g id="a_Node000007"><a xlink:title=" ">
<polygon fill="white" stroke="#666666" points="867,-27.5 802,-27.5 802,-8.5 867,-8.5 867,-27.5"/>
<text text-anchor="middle" x="834.5" y="-15.5" font-family="Helvetica,sans-Serif" font-size="10.00">std::string</text>
</a>
</g>
</g>
<!-- Node7&#45;&gt;Node2 -->
<g id="edge6_Node000002_Node000007" class="edge">
<title>Node7&#45;&gt;Node2</title>
<g id="a_edge6_Node000002_Node000007"><a xlink:title=" ">
<path fill="none" stroke="#9a32cd" stroke-dasharray="5,2" d="M877.19,-19.32C909.83,-20.54 956.35,-22.66 997,-26 1010.03,-27.07 1024.13,-28.55 1037.1,-30.04"/>
<polygon fill="#9a32cd" stroke="#9a32cd" points="877.22,-15.82 867.1,-18.96 876.97,-22.82 877.22,-15.82"/>
</a>
</g>
<text text-anchor="middle" x="959" y="-29" font-family="Helvetica,sans-Serif" font-size="10.00" fill="grey"> buffer</text>
</g>
<!-- Node8 -->
<g id="Node000008" class="node">
<title>Node8</title>
<g id="a_Node000008"><a xlink:title=" ">
<polygon fill="white" stroke="#666666" points="670.5,-30 566.5,-30 566.5,0 670.5,0 670.5,-30"/>
<text text-anchor="start" x="574.5" y="-18" font-family="Helvetica,sans-Serif" font-size="10.00">std::basic_string&lt;</text>
<text text-anchor="middle" x="618.5" y="-7" font-family="Helvetica,sans-Serif" font-size="10.00"> Char &gt;</text>
</a>
</g>
</g>
<!-- Node8&#45;&gt;Node7 -->
<g id="edge7_Node000007_Node000008" class="edge">
<title>Node8&#45;&gt;Node7</title>
<g id="a_edge7_Node000007_Node000008"><a xlink:title=" ">
<path fill="none" stroke="#63b8ff" d="M680.83,-15.86C720.37,-16.41 770.14,-17.11 801.9,-17.56"/>
<polygon fill="#63b8ff" stroke="#63b8ff" points="680.81,-12.36 670.76,-15.72 680.71,-19.36 680.81,-12.36"/>
</a>
</g>
</g>
<!-- Node9 -->
<g id="Node000009" class="node">
<title>Node9</title>
<g id="a_Node000009"><a xlink:href="classmessaget.html" target="_top" xlink:title="Class that provides messages with a built&#45;in verbosity &#39;level&#39;.">
<polygon fill="white" stroke="#666666" points="1585,-189.5 1520,-189.5 1520,-170.5 1585,-170.5 1585,-189.5"/>
<text text-anchor="middle" x="1552.5" y="-177.5" font-family="Helvetica,sans-Serif" font-size="10.00">messaget</text>
</a>
</g>
</g>
<!-- Node9&#45;&gt;Node1 -->
<g id="edge8_Node000001_Node000009" class="edge">
<title>Node9&#45;&gt;Node1</title>
<g id="a_edge8_Node000001_Node000009"><a xlink:title=" ">
<path fill="none" stroke="#9a32cd" stroke-dasharray="5,2" d="M1569.3,-162.78C1594.32,-135.53 1642.23,-83.34 1662.07,-61.73"/>
<polygon fill="#9a32cd" stroke="#9a32cd" points="1566.52,-160.65 1562.33,-170.38 1571.67,-165.38 1566.52,-160.65"/>
</a>
</g>
<text text-anchor="middle" x="1612.5" y="-126" font-family="Helvetica,sans-Serif" font-size="10.00" fill="grey"> log</text>
</g>
<!-- Node16 -->
<g id="Node000016" class="node">
<title>Node16</title>
<g id="a_Node000016"><a xlink:href="classmessaget_1_1mstreamt.html" target="_top" xlink:title=" ">
<polygon fill="white" stroke="#666666" points="1392,-261.5 1273,-261.5 1273,-242.5 1392,-242.5 1392,-261.5"/>
<text text-anchor="middle" x="1332.5" y="-249.5" font-family="Helvetica,sans-Serif" font-size="10.00">messaget::mstreamt</text>
</a>
</g>
</g>
<!-- Node9&#45;&gt;Node16 -->
<g id="edge20_Node000016_Node000009" class="edge">
<title>Node9&#45;&gt;Node16</title>
<g id="a_edge20_Node000016_Node000009"><a xlink:title=" ">
<path fill="none" stroke="#9a32cd" stroke-dasharray="5,2" d="M1538.82,-197.87C1529.87,-209.03 1516.85,-222.64 1502,-230 1483.17,-239.33 1433.09,-245.09 1392.39,-248.37"/>
<polygon fill="#9a32cd" stroke="#9a32cd" points="1541.84,-199.69 1545.09,-189.6 1536.26,-195.46 1541.84,-199.69"/>
</a>
</g>
<text text-anchor="middle" x="1457" y="-249" font-family="Helvetica,sans-Serif" font-size="10.00" fill="grey"> message</text>
</g>
<!-- Node10 -->
<g id="Node000010" class="node">
<title>Node10</title>
<g id="a_Node000010"><a xlink:href="classmessaget_1_1eomt.html" target="_top" xlink:title=" ">
<polygon fill="white" stroke="#666666" points="1380.5,-329.5 1284.5,-329.5 1284.5,-310.5 1380.5,-310.5 1380.5,-329.5"/>
<text text-anchor="middle" x="1332.5" y="-317.5" font-family="Helvetica,sans-Serif" font-size="10.00">messaget::eomt</text>
</a>
</g>
</g>
<!-- Node10&#45;&gt;Node9 -->
<g id="edge9_Node000009_Node000010" class="edge">
<title>Node10&#45;&gt;Node9</title>
<g id="a_edge9_Node000009_Node000010"><a xlink:title=" ">
<path fill="none" stroke="#9a32cd" stroke-dasharray="5,2" d="M1390.96,-323.57C1426.35,-322.82 1470.75,-316.23 1502,-292 1535.77,-265.81 1547.02,-211.7 1550.3,-189.66"/>
<polygon fill="#9a32cd" stroke="#9a32cd" points="1390.75,-320.07 1380.77,-323.63 1390.79,-327.07 1390.75,-320.07"/>
</a>
</g>
<text text-anchor="middle" x="1457" y="-325" font-family="Helvetica,sans-Serif" font-size="10.00" fill="grey"> eom</text>
</g>
<!-- Node11 -->
<g id="Node000011" class="node">
<title>Node11</title>
<g id="a_Node000011"><a xlink:href="classmessaget_1_1commandt.html" target="_top" xlink:title=" ">
<polygon fill="white" stroke="#666666" points="1394,-120.5 1271,-120.5 1271,-101.5 1394,-101.5 1394,-120.5"/>
<text text-anchor="middle" x="1332.5" y="-108.5" font-family="Helvetica,sans-Serif" font-size="10.00">messaget::commandt</text>
</a>
</g>
</g>
<!-- Node11&#45;&gt;Node9 -->
<g id="edge10_Node000009_Node000011" class="edge">
<title>Node11&#45;&gt;Node9</title>
<g id="a_edge10_Node000009_Node000011"><a xlink:title=" ">
<path fill="none" stroke="#9a32cd" stroke-dasharray="5,2" d="M1378.4,-99.4C1413.98,-92.72 1463.88,-89.1 1502,-109 1527.04,-122.07 1542,-154.23 1548.18,-170.4"/>
<polygon fill="#9a32cd" stroke="#9a32cd" points="1377.41,-96.03 1368.31,-101.45 1378.8,-102.89 1377.41,-96.03"/>
</a>
</g>
<text text-anchor="middle" x="1457" y="-222" font-family="Helvetica,sans-Serif" font-size="10.00" fill="grey"> blue</text>
<text text-anchor="middle" x="1457" y="-211" font-family="Helvetica,sans-Serif" font-size="10.00" fill="grey">bold</text>
<text text-anchor="middle" x="1457" y="-200" font-family="Helvetica,sans-Serif" font-size="10.00" fill="grey">bright_blue</text>
<text text-anchor="middle" x="1457" y="-189" font-family="Helvetica,sans-Serif" font-size="10.00" fill="grey">bright_cyan</text>
<text text-anchor="middle" x="1457" y="-178" font-family="Helvetica,sans-Serif" font-size="10.00" fill="grey">bright_green</text>
<text text-anchor="middle" x="1457" y="-167" font-family="Helvetica,sans-Serif" font-size="10.00" fill="grey">bright_magenta</text>
<text text-anchor="middle" x="1457" y="-156" font-family="Helvetica,sans-Serif" font-size="10.00" fill="grey">bright_red</text>
<text text-anchor="middle" x="1457" y="-145" font-family="Helvetica,sans-Serif" font-size="10.00" fill="grey">bright_yellow</text>
<text text-anchor="middle" x="1457" y="-134" font-family="Helvetica,sans-Serif" font-size="10.00" fill="grey">cyan</text>
<text text-anchor="middle" x="1457" y="-123" font-family="Helvetica,sans-Serif" font-size="10.00" fill="grey">faint</text>
<text text-anchor="middle" x="1457" y="-112" font-family="Helvetica,sans-Serif" font-size="10.00" fill="grey">...</text>
</g>
<!-- Node12 -->
<g id="Node000012" class="node">
<title>Node12</title>
<g id="a_Node000012"><a xlink:href="classmessage__handlert.html" target="_top" xlink:title=" ">
<polygon fill="white" stroke="#666666" points="1386,-83.5 1279,-83.5 1279,-64.5 1386,-64.5 1386,-83.5"/>
<text text-anchor="middle" x="1332.5" y="-71.5" font-family="Helvetica,sans-Serif" font-size="10.00">message_handlert</text>
</a>
</g>
</g>
<!-- Node12&#45;&gt;Node9 -->
<g id="edge11_Node000009_Node000012" class="edge">
<title>Node12&#45;&gt;Node9</title>
<g id="a_edge11_Node000009_Node000012"><a xlink:title=" ">
<path fill="none" stroke="#9a32cd" stroke-dasharray="5,2" d="M1382.52,-62.8C1418.44,-57.43 1466.85,-56.35 1502,-79 1534.67,-100.05 1546.46,-149.4 1550.09,-170.34"/>
<polygon fill="#9a32cd" stroke="#9a32cd" points="1381.57,-59.41 1372.28,-64.5 1382.72,-66.32 1381.57,-59.41"/>
</a>
</g>
<text text-anchor="middle" x="1457" y="-82" font-family="Helvetica,sans-Serif" font-size="10.00" fill="grey"> message_handler</text>
</g>
<!-- Node13 -->
<g id="Node000013" class="node">
<title>Node13</title>
<g id="a_Node000013"><a xlink:title=" ">
<polygon fill="white" stroke="#666666" points="1155,-102.5 1015,-102.5 1015,-83.5 1155,-83.5 1155,-102.5"/>
<text text-anchor="middle" x="1085" y="-90.5" font-family="Helvetica,sans-Serif" font-size="10.00">std::vector&lt; std::size_t &gt;</text>
</a>
</g>
</g>
<!-- Node13&#45;&gt;Node12 -->
<g id="edge12_Node000012_Node000013" class="edge">
<title>Node13&#45;&gt;Node12</title>
<g id="a_edge12_Node000012_Node000013"><a xlink:title=" ">
<path fill="none" stroke="#9a32cd" stroke-dasharray="5,2" d="M1165.36,-86.86C1202.56,-83.98 1245.86,-80.63 1278.93,-78.07"/>
<polygon fill="#9a32cd" stroke="#9a32cd" points="1164.74,-83.4 1155.04,-87.66 1165.28,-90.37 1164.74,-83.4"/>
</a>
</g>
<text text-anchor="middle" x="1213" y="-88" font-family="Helvetica,sans-Serif" font-size="10.00" fill="grey"> message_count</text>
</g>
<!-- Node14 -->
<g id="Node000014" class="node">
<title>Node14</title>
<g id="a_Node000014"><a xlink:title=" ">
<polygon fill="white" stroke="#666666" points="883,-112.5 786,-112.5 786,-93.5 883,-93.5 883,-112.5"/>
<text text-anchor="middle" x="834.5" y="-100.5" font-family="Helvetica,sans-Serif" font-size="10.00">std::vector&lt; T &gt;</text>
</a>
</g>
</g>
<!-- Node14&#45;&gt;Node13 -->
<g id="edge13_Node000013_Node000014" class="edge">
<title>Node14&#45;&gt;Node13</title>
<g id="a_edge13_Node000013_Node000014"><a xlink:title=" ">
<path fill="none" stroke="orange" stroke-dasharray="5,2" d="M893.53,-100.66C929.81,-99.2 976.74,-97.32 1014.93,-95.78"/>
<polygon fill="orange" stroke="orange" points="892.97,-97.18 883.12,-101.08 893.25,-104.18 892.97,-97.18"/>
</a>
</g>
<text text-anchor="middle" x="959" y="-102" font-family="Helvetica,sans-Serif" font-size="10.00" fill="grey"> &lt; std::size_t &gt;</text>
</g>
<!-- Node15 -->
<g id="Node000015" class="node">
<title>Node15</title>
<g id="a_Node000015"><a xlink:title=" ">
<polygon fill="white" stroke="#666666" points="633,-115.5 604,-115.5 604,-96.5 633,-96.5 633,-115.5"/>
<text text-anchor="middle" x="618.5" y="-103.5" font-family="Helvetica,sans-Serif" font-size="10.00">T</text>
</a>
</g>
</g>
<!-- Node15&#45;&gt;Node14 -->
<g id="edge14_Node000014_Node000015" class="edge">
<title>Node15&#45;&gt;Node14</title>
<g id="a_edge14_Node000014_Node000015"><a xlink:title=" ">
<path fill="none" stroke="#9a32cd" stroke-dasharray="5,2" d="M643.22,-105.67C677.47,-105.19 741.5,-104.29 785.76,-103.67"/>
<polygon fill="#9a32cd" stroke="#9a32cd" points="643.16,-102.17 633.21,-105.81 643.26,-109.17 643.16,-102.17"/>
</a>
</g>
<text text-anchor="middle" x="723.5" y="-107" font-family="Helvetica,sans-Serif" font-size="10.00" fill="grey"> elements</text>
</g>
<!-- Node16&#45;&gt;Node9 -->
<g id="edge15_Node000009_Node000016" class="edge">
<title>Node16&#45;&gt;Node9</title>
<g id="a_edge15_Node000009_Node000016"><a xlink:title=" ">
<path fill="none" stroke="#9a32cd" stroke-dasharray="5,2" d="M1366.92,-264.77C1402.78,-276.22 1460.22,-287.87 1502,-264 1530.51,-247.71 1544.24,-207.87 1549.21,-189.53"/>
<polygon fill="#9a32cd" stroke="#9a32cd" points="1368,-261.44 1357.4,-261.57 1365.77,-268.07 1368,-261.44"/>
</a>
</g>
<text text-anchor="middle" x="1457" y="-280" font-family="Helvetica,sans-Serif" font-size="10.00" fill="grey"> mstream</text>
</g>
<!-- Node17 -->
<g id="Node000017" class="node">
<title>Node17</title>
<g id="a_Node000017"><a xlink:title=" ">
<polygon fill="white" stroke="#666666" points="1138,-221.5 1032,-221.5 1032,-202.5 1138,-202.5 1138,-221.5"/>
<text text-anchor="middle" x="1085" y="-209.5" font-family="Helvetica,sans-Serif" font-size="10.00">std::ostringstream</text>
</a>
</g>
</g>
<!-- Node17&#45;&gt;Node16 -->
<g id="edge16_Node000016_Node000017" class="edge">
<title>Node17&#45;&gt;Node16</title>
<g id="a_edge16_Node000016_Node000017"><a xlink:title=" ">
<path fill="none" stroke="#63b8ff" d="M1148.08,-222.12C1186.45,-228.37 1235.38,-236.34 1273.06,-242.48"/>
<polygon fill="#63b8ff" stroke="#63b8ff" points="1148.5,-218.64 1138.06,-220.48 1147.37,-225.55 1148.5,-218.64"/>
</a>
</g>
</g>
<!-- Node18 -->
<g id="Node000018" class="node">
<title>Node18</title>
<g id="a_Node000018"><a xlink:title=" ">
<polygon fill="white" stroke="#666666" points="903,-218 766,-218 766,-188 903,-188 903,-218"/>
<text text-anchor="start" x="774" y="-206" font-family="Helvetica,sans-Serif" font-size="10.00">std::basic_ostringstream</text>
<text text-anchor="middle" x="834.5" y="-195" font-family="Helvetica,sans-Serif" font-size="10.00">&lt; Char &gt;</text>
</a>
</g>
</g>
<!-- Node18&#45;&gt;Node17 -->
<g id="edge17_Node000017_Node000018" class="edge">
<title>Node18&#45;&gt;Node17</title>
<g id="a_edge17_Node000017_Node000018"><a xlink:title=" ">
<path fill="none" stroke="#63b8ff" d="M913.24,-205.82C951.84,-207.21 997.44,-208.87 1031.81,-210.11"/>
<polygon fill="#63b8ff" stroke="#63b8ff" points="913.2,-202.31 903.08,-205.45 912.94,-209.31 913.2,-202.31"/>
</a>
</g>
</g>
<!-- Node19&#45;&gt;Node18 -->
<g id="edge18_Node000018_Node000019" class="edge">
<title>Node19&#45;&gt;Node18</title>
<g id="a_edge18_Node000018_Node000019"><a xlink:title=" ">
<path fill="none" stroke="#63b8ff" d="M683.36,-198.09C709.39,-198.94 739.52,-199.93 765.93,-200.79"/>
<polygon fill="#63b8ff" stroke="#63b8ff" points="683.33,-194.59 673.23,-197.76 683.11,-201.58 683.33,-194.59"/>
</a>
</g>
</g>
<!-- Node20 -->
<g id="Node000020" class="node">
<title>Node20</title>
<g id="a_Node000020"><a xlink:href="classsource__locationt.html" target="_top" xlink:title=" ">
<polygon fill="white" stroke="#666666" points="1133.5,-261.5 1036.5,-261.5 1036.5,-242.5 1133.5,-242.5 1133.5,-261.5"/>
<text text-anchor="middle" x="1085" y="-249.5" font-family="Helvetica,sans-Serif" font-size="10.00">source_locationt</text>
</a>
</g>
</g>
<!-- Node20&#45;&gt;Node16 -->
<g id="edge21_Node000016_Node000020" class="edge">
<title>Node20&#45;&gt;Node16</title>
<g id="a_edge21_Node000016_Node000020"><a xlink:title=" ">
<path fill="none" stroke="#9a32cd" stroke-dasharray="5,2" d="M1143.73,-252C1182.59,-252 1233.67,-252 1272.74,-252"/>
<polygon fill="#9a32cd" stroke="#9a32cd" points="1143.63,-248.5 1133.63,-252 1143.63,-255.5 1143.63,-248.5"/>
</a>
</g>
<text text-anchor="middle" x="1213" y="-255" font-family="Helvetica,sans-Serif" font-size="10.00" fill="grey"> source_location</text>
</g>
<!-- Node21 -->
<g id="Node000021" class="node">
<title>Node21</title>
<g id="a_Node000021"><a xlink:href="classirept.html" target="_top" xlink:title="There are a large number of kinds of tree structured or tree&#45;like data in CPROVER.">
<polygon fill="white" stroke="#666666" points="854,-261.5 815,-261.5 815,-242.5 854,-242.5 854,-261.5"/>
<text text-anchor="middle" x="834.5" y="-249.5" font-family="Helvetica,sans-Serif" font-size="10.00">irept</text>
</a>
</g>
</g>
<!-- Node21&#45;&gt;Node20 -->
<g id="edge22_Node000020_Node000021" class="edge">
<title>Node21&#45;&gt;Node20</title>
<g id="a_edge22_Node000020_Node000021"><a xlink:title=" ">
<path fill="none" stroke="#63b8ff" d="M864.29,-252C906.38,-252 985.22,-252 1036.12,-252"/>
<polygon fill="#63b8ff" stroke="#63b8ff" points="864.18,-248.5 854.18,-252 864.18,-255.5 864.18,-248.5"/>
</a>
</g>
</g>
<!-- Node22 -->
<g id="Node000022" class="node">
<title>Node22</title>
<g id="a_Node000022"><a xlink:href="classsharing__treet.html" target="_top" xlink:title=" ">
<polygon fill="white" stroke="#666666" points="681,-272.5 556,-272.5 556,-231.5 681,-231.5 681,-272.5"/>
<text text-anchor="start" x="564" y="-260.5" font-family="Helvetica,sans-Serif" font-size="10.00">sharing_treet&lt; irept,</text>
<text text-anchor="start" x="564" y="-249.5" font-family="Helvetica,sans-Serif" font-size="10.00"> forward_list_as_mapt</text>
<text text-anchor="middle" x="618.5" y="-238.5" font-family="Helvetica,sans-Serif" font-size="10.00">&lt; irep_idt, irept &gt; &gt;</text>
</a>
</g>
</g>
<!-- Node22&#45;&gt;Node21 -->
<g id="edge23_Node000021_Node000022" class="edge">
<title>Node22&#45;&gt;Node21</title>
<g id="a_edge23_Node000021_Node000022"><a xlink:title=" ">
<path fill="none" stroke="#63b8ff" d="M691.16,-252C734.9,-252 787.53,-252 814.9,-252"/>
<polygon fill="#63b8ff" stroke="#63b8ff" points="691.11,-248.5 681.11,-252 691.11,-255.5 691.11,-248.5"/>
</a>
</g>
</g>
<!-- Node23 -->
<g id="Node000023" class="node">
<title>Node23</title>
<g id="a_Node000023"><a xlink:href="classtree__nodet.html" target="_top" xlink:title="A node with data in a tree, it contains:">
<polygon fill="#fff0f0" stroke="red" points="158,-250 0,-250 0,-220 158,-220 158,-250"/>
<text text-anchor="start" x="8" y="-238" font-family="Helvetica,sans-Serif" font-size="10.00">tree_nodet&lt; treet,</text>
<text text-anchor="middle" x="79" y="-227" font-family="Helvetica,sans-Serif" font-size="10.00"> named_subtreest, sharing &gt;</text>
</a>
</g>
</g>
<!-- Node23&#45;&gt;Node22 -->
<g id="edge24_Node000022_Node000023" class="edge">
<title>Node23&#45;&gt;Node22</title>
<g id="a_edge24_Node000022_Node000023"><a xlink:title=" ">
<path fill="none" stroke="#9a32cd" stroke-dasharray="5,2" d="M168.39,-230.37C190.77,-229.39 214.76,-228.5 237,-228 297.43,-226.65 312.63,-225.04 373,-228 435.41,-231.06 506.46,-238.47 555.82,-244.26"/>
<polygon fill="#9a32cd" stroke="#9a32cd" points="168.07,-226.88 158.24,-230.82 168.39,-233.87 168.07,-226.88"/>
</a>
</g>
<text text-anchor="middle" x="305" y="-242" font-family="Helvetica,sans-Serif" font-size="10.00" fill="grey"> data</text>
<text text-anchor="middle" x="305" y="-231" font-family="Helvetica,sans-Serif" font-size="10.00" fill="grey">empty_d</text>
</g>
<!-- Node27 -->
<g id="Node000027" class="node">
<title>Node27</title>
<g id="a_Node000027"><a xlink:href="classsharing__treet.html" target="_top" xlink:title="Base class for tree&#45;like data structures with sharing.">
<polygon fill="white" stroke="#666666" points="373,-289 237,-289 237,-259 373,-259 373,-289"/>
<text text-anchor="start" x="245" y="-277" font-family="Helvetica,sans-Serif" font-size="10.00">sharing_treet&lt; derivedt,</text>
<text text-anchor="middle" x="305" y="-266" font-family="Helvetica,sans-Serif" font-size="10.00"> named_subtreest &gt;</text>
</a>
</g>
</g>
<!-- Node23&#45;&gt;Node27 -->
<g id="edge26_Node000027_Node000023" class="edge">
<title>Node23&#45;&gt;Node27</title>
<g id="a_edge26_Node000027_Node000023"><a xlink:title=" ">
<path fill="none" stroke="#9a32cd" stroke-dasharray="5,2" d="M168.06,-250.33C190.89,-254.31 215.11,-258.52 236.68,-262.28"/>
<polygon fill="#9a32cd" stroke="#9a32cd" points="168.48,-246.85 158.03,-248.59 167.28,-253.75 168.48,-246.85"/>
</a>
</g>
<text text-anchor="middle" x="197.5" y="-273" font-family="Helvetica,sans-Serif" font-size="10.00" fill="grey"> data</text>
<text text-anchor="middle" x="197.5" y="-262" font-family="Helvetica,sans-Serif" font-size="10.00" fill="grey">empty_d</text>
</g>
<!-- Node27&#45;&gt;Node22 -->
<g id="edge25_Node000022_Node000027" class="edge">
<title>Node27&#45;&gt;Node22</title>
<g id="a_edge25_Node000022_Node000027"><a xlink:title=" ">
<path fill="none" stroke="orange" stroke-dasharray="5,2" d="M383.29,-268.54C436.58,-264.78 506.45,-259.84 555.96,-256.35"/>
<polygon fill="orange" stroke="orange" points="382.94,-265.06 373.21,-269.25 383.43,-272.04 382.94,-265.06"/>
</a>
</g>
<text text-anchor="start" x="391" y="-281" font-family="Helvetica,sans-Serif" font-size="10.00" fill="grey"> &lt; irept, forward_list</text>
<text text-anchor="middle" x="464.5" y="-270" font-family="Helvetica,sans-Serif" font-size="10.00" fill="grey">_as_mapt&lt; irep_idt, irept &gt; &gt;</text>
</g>
</g>
</svg>
