<?xml version="1.0" encoding="UTF-8" standalone="no"?>
<!DOCTYPE svg PUBLIC "-//W3C//DTD SVG 1.1//EN"
 "http://www.w3.org/Graphics/SVG/1.1/DTD/svg11.dtd">
<!-- Generated by graphviz version 2.43.0 (0)
 -->
<!-- Title: symbol_exprt Pages: 1 -->
<svg width="283pt" height="473pt"
 viewBox="0.00 0.00 282.50 473.00" xmlns="http://www.w3.org/2000/svg" xmlns:xlink="http://www.w3.org/1999/xlink">
<g id="graph0" class="graph" transform="scale(1 1) rotate(0) translate(4 469)">
<title>symbol_exprt</title>
<!-- Node1 -->
<g id="Node000001" class="node">
<title>Node1</title>
<g id="a_Node000001"><a xlink:title="Expression to hold a symbol (variable)">
<polygon fill="#999999" stroke="#666666" points="169,-75 86,-75 86,-56 169,-56 169,-75"/>
<text text-anchor="middle" x="127.5" y="-63" font-family="Helvetica,sans-Serif" font-size="10.00">symbol_exprt</text>
</a>
</g>
</g>
<!-- Node8 -->
<g id="Node000008" class="node">
<title>Node8</title>
<g id="a_Node000008"><a xlink:href="classdecorated__symbol__exprt.html" target="_top" xlink:title="Expression to hold a symbol (variable) with extra accessors to ID_c_static_lifetime and ID_C_thread_l...">
<polygon fill="white" stroke="#666666" points="137,-19 0,-19 0,0 137,0 137,-19"/>
<text text-anchor="middle" x="68.5" y="-7" font-family="Helvetica,sans-Serif" font-size="10.00">decorated_symbol_exprt</text>
</a>
</g>
</g>
<!-- Node1&#45;&gt;Node8 -->
<g id="edge7_Node000001_Node000008" class="edge">
<title>Node1&#45;&gt;Node8</title>
<g id="a_edge7_Node000001_Node000008"><a xlink:title=" ">
<path fill="none" stroke="#63b8ff" d="M110.61,-49.04C100.09,-39.41 86.93,-27.37 78.15,-19.33"/>
<polygon fill="#63b8ff" stroke="#63b8ff" points="108.28,-51.65 118.02,-55.82 113.01,-46.49 108.28,-51.65"/>
</a>
</g>
</g>
<!-- Node9 -->
<g id="Node000009" class="node">
<title>Node9</title>
<g id="a_Node000009"><a xlink:href="classssa__exprt.html" target="_top" xlink:title="Expression providing an SSA&#45;renamed symbol of expressions.">
<polygon fill="white" stroke="#666666" points="219.5,-19 155.5,-19 155.5,0 219.5,0 219.5,-19"/>
<text text-anchor="middle" x="187.5" y="-7" font-family="Helvetica,sans-Serif" font-size="10.00">ssa_exprt</text>
</a>
</g>
</g>
<!-- Node1&#45;&gt;Node9 -->
<g id="edge8_Node000001_Node000009" class="edge">
<title>Node1&#45;&gt;Node9</title>
<g id="a_edge8_Node000001_Node000009"><a xlink:title=" ">
<path fill="none" stroke="#63b8ff" d="M144.68,-49.04C155.38,-39.41 168.76,-27.37 177.68,-19.33"/>
<polygon fill="#63b8ff" stroke="#63b8ff" points="142.23,-46.53 137.14,-55.82 146.91,-51.74 142.23,-46.53"/>
</a>
</g>
</g>
<!-- Node2 -->
<g id="Node000002" class="node">
<title>Node2</title>
<g id="a_Node000002"><a xlink:href="classnullary__exprt.html" target="_top" xlink:title="An expression without operands.">
<polygon fill="white" stroke="#666666" points="168,-131 87,-131 87,-112 168,-112 168,-131"/>
<text text-anchor="middle" x="127.5" y="-119" font-family="Helvetica,sans-Serif" font-size="10.00">nullary_exprt</text>
</a>
</g>
</g>
<!-- Node2&#45;&gt;Node1 -->
<g id="edge1_Node000001_Node000002" class="edge">
<title>Node2&#45;&gt;Node1</title>
<g id="a_edge1_Node000001_Node000002"><a xlink:title=" ">
<path fill="none" stroke="#63b8ff" d="M127.5,-101.3C127.5,-92.41 127.5,-82.28 127.5,-75.25"/>
<polygon fill="#63b8ff" stroke="#63b8ff" points="124,-101.58 127.5,-111.58 131,-101.58 124,-101.58"/>
</a>
</g>
</g>
<!-- Node3 -->
<g id="Node000003" class="node">
<title>Node3</title>
<g id="a_Node000003"><a xlink:href="classexpr__protectedt.html" target="_top" xlink:title="Base class for all expressions.">
<polygon fill="white" stroke="#666666" points="174.5,-187 80.5,-187 80.5,-168 174.5,-168 174.5,-187"/>
<text text-anchor="middle" x="127.5" y="-175" font-family="Helvetica,sans-Serif" font-size="10.00">expr_protectedt</text>
</a>
</g>
</g>
<!-- Node3&#45;&gt;Node2 -->
<g id="edge2_Node000002_Node000003" class="edge">
<title>Node3&#45;&gt;Node2</title>
<g id="a_edge2_Node000002_Node000003"><a xlink:title=" ">
<path fill="none" stroke="#63b8ff" d="M127.5,-157.3C127.5,-148.41 127.5,-138.28 127.5,-131.25"/>
<polygon fill="#63b8ff" stroke="#63b8ff" points="124,-157.58 127.5,-167.58 131,-157.58 124,-157.58"/>
</a>
</g>
</g>
<!-- Node4 -->
<g id="Node000004" class="node">
<title>Node4</title>
<g id="a_Node000004"><a xlink:href="classexprt.html" target="_top" xlink:title="Base class for all expressions.">
<polygon fill="white" stroke="#666666" points="148.5,-243 106.5,-243 106.5,-224 148.5,-224 148.5,-243"/>
<text text-anchor="middle" x="127.5" y="-231" font-family="Helvetica,sans-Serif" font-size="10.00">exprt</text>
</a>
</g>
</g>
<!-- Node4&#45;&gt;Node3 -->
<g id="edge3_Node000003_Node000004" class="edge">
<title>Node4&#45;&gt;Node3</title>
<g id="a_edge3_Node000003_Node000004"><a xlink:title=" ">
<path fill="none" stroke="#63b8ff" d="M127.5,-213.3C127.5,-204.41 127.5,-194.28 127.5,-187.25"/>
<polygon fill="#63b8ff" stroke="#63b8ff" points="124,-213.58 127.5,-223.58 131,-213.58 124,-213.58"/>
</a>
</g>
</g>
<!-- Node5 -->
<g id="Node000005" class="node">
<title>Node5</title>
<g id="a_Node000005"><a xlink:href="classirept.html" target="_top" xlink:title="There are a large number of kinds of tree structured or tree&#45;like data in CPROVER.">
<polygon fill="white" stroke="#666666" points="147,-299 108,-299 108,-280 147,-280 147,-299"/>
<text text-anchor="middle" x="127.5" y="-287" font-family="Helvetica,sans-Serif" font-size="10.00">irept</text>
</a>
</g>
</g>
<!-- Node5&#45;&gt;Node4 -->
<g id="edge4_Node000004_Node000005" class="edge">
<title>Node5&#45;&gt;Node4</title>
<g id="a_edge4_Node000004_Node000005"><a xlink:title=" ">
<path fill="none" stroke="#63b8ff" d="M127.5,-269.3C127.5,-260.41 127.5,-250.28 127.5,-243.25"/>
<polygon fill="#63b8ff" stroke="#63b8ff" points="124,-269.58 127.5,-279.58 131,-269.58 124,-269.58"/>
</a>
</g>
</g>
<!-- Node6 -->
<g id="Node000006" class="node">
<title>Node6</title>
<g id="a_Node000006"><a xlink:href="classsharing__treet.html" target="_top" xlink:title=" ">
<polygon fill="white" stroke="#666666" points="190,-377 65,-377 65,-336 190,-336 190,-377"/>
<text text-anchor="start" x="73" y="-365" font-family="Helvetica,sans-Serif" font-size="10.00">sharing_treet&lt; irept,</text>
<text text-anchor="start" x="73" y="-354" font-family="Helvetica,sans-Serif" font-size="10.00"> forward_list_as_mapt</text>
<text text-anchor="middle" x="127.5" y="-343" font-family="Helvetica,sans-Serif" font-size="10.00">&lt; irep_idt, irept &gt; &gt;</text>
</a>
</g>
</g>
<!-- Node6&#45;&gt;Node5 -->
<g id="edge5_Node000005_Node000006" class="edge">
<title>Node6&#45;&gt;Node5</title>
<g id="a_edge5_Node000005_Node000006"><a xlink:title=" ">
<path fill="none" stroke="#63b8ff" d="M127.5,-325.76C127.5,-316.06 127.5,-306.02 127.5,-299.15"/>
<polygon fill="#63b8ff" stroke="#63b8ff" points="124,-326 127.5,-336 131,-326 124,-326"/>
</a>
</g>
</g>
<!-- Node7 -->
<g id="Node000007" class="node">
<title>Node7</title>
<g id="a_Node000007"><a xlink:href="classsharing__treet.html" target="_top" xlink:title="Base class for tree&#45;like data structures with sharing.">
<polygon fill="white" stroke="#666666" points="195.5,-465 59.5,-465 59.5,-435 195.5,-435 195.5,-465"/>
<text text-anchor="start" x="67.5" y="-453" font-family="Helvetica,sans-Serif" font-size="10.00">sharing_treet&lt; derivedt,</text>
<text text-anchor="middle" x="127.5" y="-442" font-family="Helvetica,sans-Serif" font-size="10.00"> named_subtreest &gt;</text>
</a>
</g>
</g>
<!-- Node7&#45;&gt;Node6 -->
<g id="edge6_Node000006_Node000007" class="edge">
<title>Node7&#45;&gt;Node6</title>
<g id="a_edge6_Node000006_Node000007"><a xlink:title=" ">
<path fill="none" stroke="orange" stroke-dasharray="5,2" d="M127.5,-424.69C127.5,-409.82 127.5,-391.05 127.5,-377.13"/>
<polygon fill="orange" stroke="orange" points="124,-424.7 127.5,-434.7 131,-424.7 124,-424.7"/>
</a>
</g>
<text text-anchor="start" x="127.5" y="-409" font-family="Helvetica,sans-Serif" font-size="10.00" fill="grey"> &lt; irept, forward_list</text>
<text text-anchor="middle" x="201" y="-398" font-family="Helvetica,sans-Serif" font-size="10.00" fill="grey">_as_mapt&lt; irep_idt, irept &gt; &gt;</text>
</g>
</g>
</svg>
