<?xml version="1.0" encoding="UTF-8" standalone="no"?>
<!DOCTYPE svg PUBLIC "-//W3C//DTD SVG 1.1//EN"
 "http://www.w3.org/Graphics/SVG/1.1/DTD/svg11.dtd">
<!-- Generated by graphviz version 2.43.0 (0)
 -->
<!-- Title: smt_set_option_commandt Pages: 1 -->
<svg width="386pt" height="337pt"
 viewBox="0.00 0.00 386.00 337.00" xmlns="http://www.w3.org/2000/svg" xmlns:xlink="http://www.w3.org/1999/xlink">
<g id="graph0" class="graph" transform="scale(1 1) rotate(0) translate(4 333)">
<title>smt_set_option_commandt</title>
<!-- Node1 -->
<g id="Node000001" class="node">
<title>Node1</title>
<g id="a_Node000001"><a xlink:title=" ">
<polygon fill="#999999" stroke="#666666" points="217.5,-19 68.5,-19 68.5,0 217.5,0 217.5,-19"/>
<text text-anchor="middle" x="143" y="-7" font-family="Helvetica,sans-Serif" font-size="10.00">smt_set_option_commandt</text>
</a>
</g>
</g>
<!-- Node2 -->
<g id="Node000002" class="node">
<title>Node2</title>
<g id="a_Node000002"><a xlink:href="classsmt__commandt.html" target="_top" xlink:title=" ">
<polygon fill="white" stroke="#666666" points="114.5,-80.5 21.5,-80.5 21.5,-61.5 114.5,-61.5 114.5,-80.5"/>
<text text-anchor="middle" x="68" y="-68.5" font-family="Helvetica,sans-Serif" font-size="10.00">smt_commandt</text>
</a>
</g>
</g>
<!-- Node2&#45;&gt;Node1 -->
<g id="edge1_Node000001_Node000002" class="edge">
<title>Node2&#45;&gt;Node1</title>
<g id="a_edge1_Node000001_Node000002"><a xlink:title=" ">
<path fill="none" stroke="#63b8ff" d="M86.94,-54.97C101.29,-43.59 120.48,-28.37 132.27,-19.01"/>
<polygon fill="#63b8ff" stroke="#63b8ff" points="84.4,-52.52 78.75,-61.48 88.76,-58 84.4,-52.52"/>
</a>
</g>
</g>
<!-- Node3 -->
<g id="Node000003" class="node">
<title>Node3</title>
<g id="a_Node000003"><a xlink:href="classirept.html" target="_top" xlink:title="There are a large number of kinds of tree structured or tree&#45;like data in CPROVER.">
<polygon fill="white" stroke="#666666" points="87.5,-157.5 48.5,-157.5 48.5,-138.5 87.5,-138.5 87.5,-157.5"/>
<text text-anchor="middle" x="68" y="-145.5" font-family="Helvetica,sans-Serif" font-size="10.00">irept</text>
</a>
</g>
</g>
<!-- Node3&#45;&gt;Node2 -->
<g id="edge2_Node000002_Node000003" class="edge">
<title>Node3&#45;&gt;Node2</title>
<g id="a_edge2_Node000002_Node000003"><a xlink:title=" ">
<path fill="none" stroke="darkgreen" d="M68,-128.02C68,-112.74 68,-91.98 68,-80.5"/>
<polygon fill="darkgreen" stroke="darkgreen" points="64.5,-128.4 68,-138.4 71.5,-128.4 64.5,-128.4"/>
</a>
</g>
</g>
<!-- Node4 -->
<g id="Node000004" class="node">
<title>Node4</title>
<g id="a_Node000004"><a xlink:href="classsharing__treet.html" target="_top" xlink:title=" ">
<polygon fill="white" stroke="#666666" points="130.5,-241 5.5,-241 5.5,-200 130.5,-200 130.5,-241"/>
<text text-anchor="start" x="13.5" y="-229" font-family="Helvetica,sans-Serif" font-size="10.00">sharing_treet&lt; irept,</text>
<text text-anchor="start" x="13.5" y="-218" font-family="Helvetica,sans-Serif" font-size="10.00"> forward_list_as_mapt</text>
<text text-anchor="middle" x="68" y="-207" font-family="Helvetica,sans-Serif" font-size="10.00">&lt; irep_idt, irept &gt; &gt;</text>
</a>
</g>
</g>
<!-- Node4&#45;&gt;Node3 -->
<g id="edge3_Node000003_Node000004" class="edge">
<title>Node4&#45;&gt;Node3</title>
<g id="a_edge3_Node000003_Node000004"><a xlink:title=" ">
<path fill="none" stroke="#63b8ff" d="M68,-189.6C68,-178.03 68,-165.68 68,-157.67"/>
<polygon fill="#63b8ff" stroke="#63b8ff" points="64.5,-189.86 68,-199.86 71.5,-189.86 64.5,-189.86"/>
</a>
</g>
</g>
<!-- Node5 -->
<g id="Node000005" class="node">
<title>Node5</title>
<g id="a_Node000005"><a xlink:href="classsharing__treet.html" target="_top" xlink:title="Base class for tree&#45;like data structures with sharing.">
<polygon fill="white" stroke="#666666" points="136,-329 0,-329 0,-299 136,-299 136,-329"/>
<text text-anchor="start" x="8" y="-317" font-family="Helvetica,sans-Serif" font-size="10.00">sharing_treet&lt; derivedt,</text>
<text text-anchor="middle" x="68" y="-306" font-family="Helvetica,sans-Serif" font-size="10.00"> named_subtreest &gt;</text>
</a>
</g>
</g>
<!-- Node5&#45;&gt;Node4 -->
<g id="edge4_Node000004_Node000005" class="edge">
<title>Node5&#45;&gt;Node4</title>
<g id="a_edge4_Node000004_Node000005"><a xlink:title=" ">
<path fill="none" stroke="orange" stroke-dasharray="5,2" d="M68,-288.69C68,-273.82 68,-255.05 68,-241.13"/>
<polygon fill="orange" stroke="orange" points="64.5,-288.7 68,-298.7 71.5,-288.7 64.5,-288.7"/>
</a>
</g>
<text text-anchor="start" x="68" y="-273" font-family="Helvetica,sans-Serif" font-size="10.00" fill="grey"> &lt; irept, forward_list</text>
<text text-anchor="middle" x="141.5" y="-262" font-family="Helvetica,sans-Serif" font-size="10.00" fill="grey">_as_mapt&lt; irep_idt, irept &gt; &gt;</text>
</g>
<!-- Node6 -->
<g id="Node000006" class="node">
<title>Node6</title>
<g id="a_Node000006"><a xlink:href="classsmt__optiont_1_1storert.html" target="_top" xlink:title=" ">
<polygon fill="white" stroke="#666666" points="305,-86 133,-86 133,-56 305,-56 305,-86"/>
<text text-anchor="start" x="141" y="-74" font-family="Helvetica,sans-Serif" font-size="10.00">smt_optiont::storert</text>
<text text-anchor="middle" x="219" y="-63" font-family="Helvetica,sans-Serif" font-size="10.00">&lt; smt_set_option_commandt &gt;</text>
</a>
</g>
</g>
<!-- Node6&#45;&gt;Node1 -->
<g id="edge5_Node000001_Node000006" class="edge">
<title>Node6&#45;&gt;Node1</title>
<g id="a_edge5_Node000001_Node000006"><a xlink:title=" ">
<path fill="none" stroke="#8b1a1a" d="M193.06,-49.69C179.75,-39.27 164.25,-27.13 154.06,-19.16"/>
<polygon fill="#8b1a1a" stroke="#8b1a1a" points="190.96,-52.49 200.99,-55.9 195.27,-46.98 190.96,-52.49"/>
</a>
</g>
</g>
<!-- Node7 -->
<g id="Node000007" class="node">
<title>Node7</title>
<g id="a_Node000007"><a xlink:href="classsmt__optiont_1_1storert.html" target="_top" xlink:title="Class for adding the ability to up and down cast smt_optiont to and from irept.">
<polygon fill="white" stroke="#666666" points="275.5,-163 162.5,-163 162.5,-133 275.5,-133 275.5,-163"/>
<text text-anchor="start" x="170.5" y="-151" font-family="Helvetica,sans-Serif" font-size="10.00">smt_optiont::storert</text>
<text text-anchor="middle" x="219" y="-140" font-family="Helvetica,sans-Serif" font-size="10.00">&lt; derivedt &gt;</text>
</a>
</g>
</g>
<!-- Node7&#45;&gt;Node6 -->
<g id="edge6_Node000006_Node000007" class="edge">
<title>Node7&#45;&gt;Node6</title>
<g id="a_edge6_Node000006_Node000007"><a xlink:title=" ">
<path fill="none" stroke="orange" stroke-dasharray="5,2" d="M219,-122.54C219,-110.45 219,-96.29 219,-86.04"/>
<polygon fill="orange" stroke="orange" points="215.5,-122.89 219,-132.89 222.5,-122.89 215.5,-122.89"/>
</a>
</g>
<text text-anchor="middle" x="298.5" y="-107" font-family="Helvetica,sans-Serif" font-size="10.00" fill="grey"> &lt; smt_set_option_commandt &gt;</text>
</g>
</g>
</svg>
