<?xml version="1.0" encoding="UTF-8" standalone="no"?>
<!DOCTYPE svg PUBLIC "-//W3C//DTD SVG 1.1//EN"
 "http://www.w3.org/Graphics/SVG/1.1/DTD/svg11.dtd">
<!-- Generated by graphviz version 2.43.0 (0)
 -->
<!-- Title: statement_list_languaget Pages: 1 -->
<svg width="1856pt" height="492pt"
 viewBox="0.00 0.00 1856.00 491.50" xmlns="http://www.w3.org/2000/svg" xmlns:xlink="http://www.w3.org/1999/xlink">
<g id="graph0" class="graph" transform="scale(1 1) rotate(0) translate(4 487.5)">
<title>statement_list_languaget</title>
<!-- Node1 -->
<g id="Node000001" class="node">
<title>Node1</title>
<g id="a_Node000001"><a xlink:title="Implements the language interface for the Statement List language.">
<polygon fill="#999999" stroke="#666666" points="1848,-411.5 1707,-411.5 1707,-392.5 1848,-392.5 1848,-411.5"/>
<text text-anchor="middle" x="1777.5" y="-399.5" font-family="Helvetica,sans-Serif" font-size="10.00">statement_list_languaget</text>
</a>
</g>
</g>
<!-- Node2 -->
<g id="Node000002" class="node">
<title>Node2</title>
<g id="a_Node000002"><a xlink:href="classlanguaget.html" target="_top" xlink:title=" ">
<polygon fill="white" stroke="#666666" points="1589,-483.5 1524,-483.5 1524,-464.5 1589,-464.5 1589,-483.5"/>
<text text-anchor="middle" x="1556.5" y="-471.5" font-family="Helvetica,sans-Serif" font-size="10.00">languaget</text>
</a>
</g>
</g>
<!-- Node2&#45;&gt;Node1 -->
<g id="edge1_Node000001_Node000002" class="edge">
<title>Node2&#45;&gt;Node1</title>
<g id="a_edge1_Node000001_Node000002"><a xlink:title=" ">
<path fill="none" stroke="#63b8ff" d="M1599.07,-469.88C1625.4,-466.43 1659.85,-460.35 1689,-450 1716.43,-440.26 1745.54,-422.63 1762.31,-411.66"/>
<polygon fill="#63b8ff" stroke="#63b8ff" points="1598.55,-466.42 1589.05,-471.12 1599.41,-473.36 1598.55,-466.42"/>
</a>
</g>
</g>
<!-- Node3 -->
<g id="Node000003" class="node">
<title>Node3</title>
<g id="a_Node000003"><a xlink:href="classstatement__list__parse__treet.html" target="_top" xlink:title="Intermediate representation of a parsed Statement List file before converting it into a goto program.">
<polygon fill="white" stroke="#666666" points="1616,-124 1497,-124 1497,-94 1616,-94 1616,-124"/>
<text text-anchor="start" x="1505" y="-112" font-family="Helvetica,sans-Serif" font-size="10.00">statement_list_parse</text>
<text text-anchor="middle" x="1556.5" y="-101" font-family="Helvetica,sans-Serif" font-size="10.00">_treet</text>
</a>
</g>
</g>
<!-- Node3&#45;&gt;Node1 -->
<g id="edge2_Node000001_Node000003" class="edge">
<title>Node3&#45;&gt;Node1</title>
<g id="a_edge2_Node000001_Node000003"><a xlink:title=" ">
<path fill="none" stroke="#9a32cd" stroke-dasharray="5,2" d="M1575.07,-132.51C1620.17,-192.85 1738.64,-351.35 1769.22,-392.26"/>
<polygon fill="#9a32cd" stroke="#9a32cd" points="1577.76,-130.25 1568.97,-124.34 1572.15,-134.45 1577.76,-130.25"/>
</a>
</g>
<text text-anchor="middle" x="1661.5" y="-284" font-family="Helvetica,sans-Serif" font-size="10.00" fill="grey"> parse_tree</text>
</g>
<!-- Node4 -->
<g id="Node000004" class="node">
<title>Node4</title>
<g id="a_Node000004"><a xlink:title=" ">
<polygon fill="white" stroke="#666666" points="1373.5,-147 1269.5,-147 1269.5,-117 1373.5,-117 1373.5,-147"/>
<text text-anchor="start" x="1277.5" y="-135" font-family="Helvetica,sans-Serif" font-size="10.00">std::list&lt; function</text>
<text text-anchor="middle" x="1321.5" y="-124" font-family="Helvetica,sans-Serif" font-size="10.00">_blockt &gt;</text>
</a>
</g>
</g>
<!-- Node4&#45;&gt;Node3 -->
<g id="edge3_Node000003_Node000004" class="edge">
<title>Node4&#45;&gt;Node3</title>
<g id="a_edge3_Node000003_Node000004"><a xlink:title=" ">
<path fill="none" stroke="#9a32cd" stroke-dasharray="5,2" d="M1383.7,-125.96C1418.62,-122.51 1462.17,-118.21 1496.68,-114.81"/>
<polygon fill="#9a32cd" stroke="#9a32cd" points="1383.24,-122.49 1373.63,-126.95 1383.93,-129.45 1383.24,-122.49"/>
</a>
</g>
<text text-anchor="middle" x="1439" y="-126" font-family="Helvetica,sans-Serif" font-size="10.00" fill="grey"> function_blocks</text>
</g>
<!-- Node5 -->
<g id="Node000005" class="node">
<title>Node5</title>
<g id="a_Node000005"><a xlink:href="structstatement__list__parse__treet_1_1function__blockt.html" target="_top" xlink:title="Structure for a simple function block in Statement List.">
<polygon fill="white" stroke="#666666" points="1155,-204 1029,-204 1029,-174 1155,-174 1155,-204"/>
<text text-anchor="start" x="1037" y="-192" font-family="Helvetica,sans-Serif" font-size="10.00">statement_list_parse</text>
<text text-anchor="middle" x="1092" y="-181" font-family="Helvetica,sans-Serif" font-size="10.00">_treet::function_blockt</text>
</a>
</g>
</g>
<!-- Node5&#45;&gt;Node4 -->
<g id="edge4_Node000004_Node000005" class="edge">
<title>Node5&#45;&gt;Node4</title>
<g id="a_edge4_Node000004_Node000005"><a xlink:title=" ">
<path fill="none" stroke="#9a32cd" stroke-dasharray="5,2" d="M1163.04,-171.45C1197.38,-162.85 1237.98,-152.67 1269.36,-144.81"/>
<polygon fill="#9a32cd" stroke="#9a32cd" points="1161.92,-168.12 1153.07,-173.95 1163.62,-174.91 1161.92,-168.12"/>
</a>
</g>
<text text-anchor="middle" x="1215" y="-168" font-family="Helvetica,sans-Serif" font-size="10.00" fill="grey"> elements</text>
</g>
<!-- Node6 -->
<g id="Node000006" class="node">
<title>Node6</title>
<g id="a_Node000006"><a xlink:href="structstatement__list__parse__treet_1_1tia__modulet.html" target="_top" xlink:title="Base element of all modules in the Totally Integrated Automation (TIA) portal by Siemens.">
<polygon fill="white" stroke="#666666" points="878.5,-204 759.5,-204 759.5,-174 878.5,-174 878.5,-204"/>
<text text-anchor="start" x="767.5" y="-192" font-family="Helvetica,sans-Serif" font-size="10.00">statement_list_parse</text>
<text text-anchor="middle" x="819" y="-181" font-family="Helvetica,sans-Serif" font-size="10.00">_treet::tia_modulet</text>
</a>
</g>
</g>
<!-- Node6&#45;&gt;Node5 -->
<g id="edge5_Node000005_Node000006" class="edge">
<title>Node6&#45;&gt;Node5</title>
<g id="a_edge5_Node000005_Node000006"><a xlink:title=" ">
<path fill="none" stroke="#63b8ff" d="M888.9,-189C931.9,-189 986.81,-189 1028.54,-189"/>
<polygon fill="#63b8ff" stroke="#63b8ff" points="888.8,-185.5 878.8,-189 888.8,-192.5 888.8,-185.5"/>
</a>
</g>
</g>
<!-- Node29 -->
<g id="Node000029" class="node">
<title>Node29</title>
<g id="a_Node000029"><a xlink:href="structstatement__list__parse__treet_1_1functiont.html" target="_top" xlink:title="Structure for a simple function in Statement List.">
<polygon fill="white" stroke="#666666" points="1151.5,-104 1032.5,-104 1032.5,-74 1151.5,-74 1151.5,-104"/>
<text text-anchor="start" x="1040.5" y="-92" font-family="Helvetica,sans-Serif" font-size="10.00">statement_list_parse</text>
<text text-anchor="middle" x="1092" y="-81" font-family="Helvetica,sans-Serif" font-size="10.00">_treet::functiont</text>
</a>
</g>
</g>
<!-- Node6&#45;&gt;Node29 -->
<g id="edge20_Node000029_Node000006" class="edge">
<title>Node6&#45;&gt;Node29</title>
<g id="a_edge20_Node000029_Node000006"><a xlink:title=" ">
<path fill="none" stroke="#63b8ff" d="M870.54,-170.35C922.44,-151.2 1002.23,-121.76 1050.25,-104.04"/>
<polygon fill="#63b8ff" stroke="#63b8ff" points="869.03,-167.18 860.86,-173.92 871.46,-173.74 869.03,-167.18"/>
</a>
</g>
</g>
<!-- Node7 -->
<g id="Node000007" class="node">
<title>Node7</title>
<g id="a_Node000007"><a xlink:href="classdstringt.html" target="_top" xlink:title="dstringt has one field, an unsigned integer no which is an index into a static table of strings.">
<polygon fill="white" stroke="#666666" points="603.5,-291.5 549.5,-291.5 549.5,-272.5 603.5,-272.5 603.5,-291.5"/>
<text text-anchor="middle" x="576.5" y="-279.5" font-family="Helvetica,sans-Serif" font-size="10.00">dstringt</text>
</a>
</g>
</g>
<!-- Node7&#45;&gt;Node6 -->
<g id="edge6_Node000006_Node000007" class="edge">
<title>Node7&#45;&gt;Node6</title>
<g id="a_edge6_Node000006_Node000007"><a xlink:title=" ">
<path fill="none" stroke="#9a32cd" stroke-dasharray="5,2" d="M613.94,-277.79C647.55,-272.96 698.25,-263.24 739,-245 762.32,-234.56 785.8,-216.77 801.03,-204.05"/>
<polygon fill="#9a32cd" stroke="#9a32cd" points="613.1,-274.38 603.67,-279.19 614.05,-281.31 613.1,-274.38"/>
</a>
</g>
<text text-anchor="middle" x="705.5" y="-269" font-family="Helvetica,sans-Serif" font-size="10.00" fill="grey"> name</text>
</g>
<!-- Node32 -->
<g id="Node000032" class="node">
<title>Node32</title>
<g id="a_Node000032"><a xlink:href="structobject__factory__parameterst.html" target="_top" xlink:title=" ">
<polygon fill="white" stroke="#666666" points="1168,-392.5 1016,-392.5 1016,-373.5 1168,-373.5 1168,-392.5"/>
<text text-anchor="middle" x="1092" y="-380.5" font-family="Helvetica,sans-Serif" font-size="10.00">object_factory_parameterst</text>
</a>
</g>
</g>
<!-- Node7&#45;&gt;Node32 -->
<g id="edge32_Node000032_Node000007" class="edge">
<title>Node7&#45;&gt;Node32</title>
<g id="a_edge32_Node000032_Node000007"><a xlink:title=" ">
<path fill="none" stroke="#9a32cd" stroke-dasharray="5,2" d="M613.72,-289.12C704.22,-306.93 940.3,-353.36 1042.58,-373.48"/>
<polygon fill="#9a32cd" stroke="#9a32cd" points="614.16,-285.64 603.67,-287.15 612.81,-292.51 614.16,-285.64"/>
</a>
</g>
<text text-anchor="middle" x="819" y="-343" font-family="Helvetica,sans-Serif" font-size="10.00" fill="grey"> function_id</text>
</g>
<!-- Node8 -->
<g id="Node000008" class="node">
<title>Node8</title>
<g id="a_Node000008"><a xlink:title=" ">
<polygon fill="white" stroke="#666666" points="609,-419.5 544,-419.5 544,-400.5 609,-400.5 609,-419.5"/>
<text text-anchor="middle" x="576.5" y="-407.5" font-family="Helvetica,sans-Serif" font-size="10.00">std::string</text>
</a>
</g>
</g>
<!-- Node8&#45;&gt;Node1 -->
<g id="edge27_Node000001_Node000008" class="edge">
<title>Node8&#45;&gt;Node1</title>
<g id="a_edge27_Node000001_Node000008"><a xlink:title=" ">
<path fill="none" stroke="#9a32cd" stroke-dasharray="5,2" d="M619.27,-417.28C667.12,-424.97 747.96,-436 818,-436 818,-436 818,-436 1557.5,-436 1621.56,-436 1694.93,-421.62 1738.4,-411.56"/>
<polygon fill="#9a32cd" stroke="#9a32cd" points="619.72,-413.8 609.28,-415.64 618.59,-420.71 619.72,-413.8"/>
</a>
</g>
<text text-anchor="middle" x="1215" y="-439" font-family="Helvetica,sans-Serif" font-size="10.00" fill="grey"> parse_path</text>
</g>
<!-- Node8&#45;&gt;Node6 -->
<g id="edge7_Node000006_Node000008" class="edge">
<title>Node8&#45;&gt;Node6</title>
<g id="a_edge7_Node000006_Node000008"><a xlink:title=" ">
<path fill="none" stroke="#9a32cd" stroke-dasharray="5,2" d="M601.34,-395.02C616.74,-385.05 637.01,-371.36 654,-358 694.06,-326.48 703.45,-317.53 739,-281 747.57,-272.19 748.99,-269.33 757,-260 773.51,-240.76 792.55,-218.6 804.91,-204.23"/>
<polygon fill="#9a32cd" stroke="#9a32cd" points="599.42,-392.09 592.89,-400.44 603.2,-397.99 599.42,-392.09"/>
</a>
</g>
<text text-anchor="middle" x="705.5" y="-345" font-family="Helvetica,sans-Serif" font-size="10.00" fill="grey"> version</text>
</g>
<!-- Node33 -->
<g id="Node000033" class="node">
<title>Node33</title>
<g id="a_Node000033"><a xlink:title=" ">
<polygon fill="white" stroke="#666666" points="881,-392.5 757,-392.5 757,-373.5 881,-373.5 881,-392.5"/>
<text text-anchor="middle" x="819" y="-380.5" font-family="Helvetica,sans-Serif" font-size="10.00">std::list&lt; std::string &gt;</text>
</a>
</g>
</g>
<!-- Node8&#45;&gt;Node33 -->
<g id="edge30_Node000033_Node000008" class="edge">
<title>Node8&#45;&gt;Node33</title>
<g id="a_edge30_Node000033_Node000008"><a xlink:title=" ">
<path fill="none" stroke="#9a32cd" stroke-dasharray="5,2" d="M619.63,-405.27C657.57,-401.01 713.8,-394.7 756.72,-389.88"/>
<polygon fill="#9a32cd" stroke="#9a32cd" points="618.98,-401.82 609.44,-406.41 619.76,-408.78 618.98,-401.82"/>
</a>
</g>
<text text-anchor="middle" x="705.5" y="-401" font-family="Helvetica,sans-Serif" font-size="10.00" fill="grey"> elements</text>
</g>
<!-- Node9 -->
<g id="Node000009" class="node">
<title>Node9</title>
<g id="a_Node000009"><a xlink:title=" ">
<polygon fill="white" stroke="#666666" points="343.5,-425 239.5,-425 239.5,-395 343.5,-395 343.5,-425"/>
<text text-anchor="start" x="247.5" y="-413" font-family="Helvetica,sans-Serif" font-size="10.00">std::basic_string&lt;</text>
<text text-anchor="middle" x="291.5" y="-402" font-family="Helvetica,sans-Serif" font-size="10.00"> Char &gt;</text>
</a>
</g>
</g>
<!-- Node9&#45;&gt;Node8 -->
<g id="edge8_Node000008_Node000009" class="edge">
<title>Node9&#45;&gt;Node8</title>
<g id="a_edge8_Node000008_Node000009"><a xlink:title=" ">
<path fill="none" stroke="#63b8ff" d="M353.98,-410C412.48,-410 498.17,-410 543.93,-410"/>
<polygon fill="#63b8ff" stroke="#63b8ff" points="353.75,-406.5 343.75,-410 353.75,-413.5 353.75,-406.5"/>
</a>
</g>
</g>
<!-- Node10 -->
<g id="Node000010" class="node">
<title>Node10</title>
<g id="a_Node000010"><a xlink:title=" ">
<polygon fill="white" stroke="#666666" points="654,-222.5 499,-222.5 499,-203.5 654,-203.5 654,-222.5"/>
<text text-anchor="middle" x="576.5" y="-210.5" font-family="Helvetica,sans-Serif" font-size="10.00">std::list&lt; var_declarationt &gt;</text>
</a>
</g>
</g>
<!-- Node10&#45;&gt;Node5 -->
<g id="edge16_Node000005_Node000010" class="edge">
<title>Node10&#45;&gt;Node5</title>
<g id="a_edge16_Node000005_Node000010"><a xlink:title=" ">
<path fill="none" stroke="#9a32cd" stroke-dasharray="5,2" d="M601.62,-228.14C616.91,-237.96 636.95,-251.27 654,-264 662.34,-270.23 662.21,-275.45 672,-279 700,-289.14 709.46,-282.72 739,-279 852.12,-264.77 980.98,-225.77 1046.96,-204.07"/>
<polygon fill="#9a32cd" stroke="#9a32cd" points="603.09,-224.93 592.78,-222.51 599.33,-230.83 603.09,-224.93"/>
</a>
</g>
<text text-anchor="middle" x="819" y="-279" font-family="Helvetica,sans-Serif" font-size="10.00" fill="grey"> var_static</text>
</g>
<!-- Node10&#45;&gt;Node6 -->
<g id="edge9_Node000006_Node000010" class="edge">
<title>Node10&#45;&gt;Node6</title>
<g id="a_edge9_Node000006_Node000010"><a xlink:title=" ">
<path fill="none" stroke="#9a32cd" stroke-dasharray="5,2" d="M618.52,-200.82C634.98,-196.51 654.24,-192.19 672,-190 700.55,-186.48 732.49,-185.88 759.19,-186.31"/>
<polygon fill="#9a32cd" stroke="#9a32cd" points="617.4,-197.5 608.66,-203.49 619.23,-204.26 617.4,-197.5"/>
</a>
</g>
<text text-anchor="middle" x="705.5" y="-237" font-family="Helvetica,sans-Serif" font-size="10.00" fill="grey"> var_constant</text>
<text text-anchor="middle" x="705.5" y="-226" font-family="Helvetica,sans-Serif" font-size="10.00" fill="grey">var_inout</text>
<text text-anchor="middle" x="705.5" y="-215" font-family="Helvetica,sans-Serif" font-size="10.00" fill="grey">var_input</text>
<text text-anchor="middle" x="705.5" y="-204" font-family="Helvetica,sans-Serif" font-size="10.00" fill="grey">var_output</text>
<text text-anchor="middle" x="705.5" y="-193" font-family="Helvetica,sans-Serif" font-size="10.00" fill="grey">var_temp</text>
</g>
<!-- Node11 -->
<g id="Node000011" class="node">
<title>Node11</title>
<g id="a_Node000011"><a xlink:href="structstatement__list__parse__treet_1_1var__declarationt.html" target="_top" xlink:title="Struct for a single variable declaration in Statement List.">
<polygon fill="white" stroke="#666666" points="357,-306 226,-306 226,-276 357,-276 357,-306"/>
<text text-anchor="start" x="234" y="-294" font-family="Helvetica,sans-Serif" font-size="10.00">statement_list_parse</text>
<text text-anchor="middle" x="291.5" y="-283" font-family="Helvetica,sans-Serif" font-size="10.00">_treet::var_declarationt</text>
</a>
</g>
</g>
<!-- Node11&#45;&gt;Node10 -->
<g id="edge10_Node000010_Node000011" class="edge">
<title>Node11&#45;&gt;Node10</title>
<g id="a_edge10_Node000010_Node000011"><a xlink:title=" ">
<path fill="none" stroke="#9a32cd" stroke-dasharray="5,2" d="M356.71,-273.3C413.76,-257.58 494.99,-235.19 540.73,-222.58"/>
<polygon fill="#9a32cd" stroke="#9a32cd" points="355.78,-269.93 347.07,-275.96 357.64,-276.68 355.78,-269.93"/>
</a>
</g>
<text text-anchor="middle" x="428" y="-270" font-family="Helvetica,sans-Serif" font-size="10.00" fill="grey"> elements</text>
</g>
<!-- Node12 -->
<g id="Node000012" class="node">
<title>Node12</title>
<g id="a_Node000012"><a xlink:href="classsymbol__exprt.html" target="_top" xlink:title="Expression to hold a symbol (variable)">
<polygon fill="#fff0f0" stroke="red" points="90,-85.5 7,-85.5 7,-66.5 90,-66.5 90,-85.5"/>
<text text-anchor="middle" x="48.5" y="-73.5" font-family="Helvetica,sans-Serif" font-size="10.00">symbol_exprt</text>
</a>
</g>
</g>
<!-- Node12&#45;&gt;Node11 -->
<g id="edge11_Node000011_Node000012" class="edge">
<title>Node12&#45;&gt;Node11</title>
<g id="a_edge11_Node000011_Node000012"><a xlink:title=" ">
<path fill="none" stroke="#9a32cd" stroke-dasharray="5,2" d="M67.75,-92.28C112.98,-132.63 229.78,-236.83 273.58,-275.9"/>
<polygon fill="#9a32cd" stroke="#9a32cd" points="69.96,-89.56 60.17,-85.52 65.3,-94.78 69.96,-89.56"/>
</a>
</g>
<text text-anchor="middle" x="161.5" y="-218" font-family="Helvetica,sans-Serif" font-size="10.00" fill="grey"> variable</text>
</g>
<!-- Node31 -->
<g id="Node000031" class="node">
<title>Node31</title>
<g id="a_Node000031"><a xlink:title=" ">
<polygon fill="white" stroke="#666666" points="349.5,-39 233.5,-39 233.5,-9 349.5,-9 349.5,-39"/>
<text text-anchor="start" x="241.5" y="-27" font-family="Helvetica,sans-Serif" font-size="10.00">std::vector&lt; symbol</text>
<text text-anchor="middle" x="291.5" y="-16" font-family="Helvetica,sans-Serif" font-size="10.00">_exprt &gt;</text>
</a>
</g>
</g>
<!-- Node12&#45;&gt;Node31 -->
<g id="edge25_Node000031_Node000012" class="edge">
<title>Node12&#45;&gt;Node31</title>
<g id="a_edge25_Node000031_Node000012"><a xlink:title=" ">
<path fill="none" stroke="#9a32cd" stroke-dasharray="5,2" d="M100.18,-65.07C139.14,-56.66 192.98,-45.04 233.45,-36.31"/>
<polygon fill="#9a32cd" stroke="#9a32cd" points="99.15,-61.71 90.11,-67.24 100.62,-68.55 99.15,-61.71"/>
</a>
</g>
<text text-anchor="middle" x="161.5" y="-64" font-family="Helvetica,sans-Serif" font-size="10.00" fill="grey"> elements</text>
</g>
<!-- Node24 -->
<g id="Node000024" class="node">
<title>Node24</title>
<g id="a_Node000024"><a xlink:title=" ">
<polygon fill="#fff0f0" stroke="red" points="332,-169.5 251,-169.5 251,-150.5 332,-150.5 332,-169.5"/>
<text text-anchor="middle" x="291.5" y="-157.5" font-family="Helvetica,sans-Serif" font-size="10.00">std::list&lt; T &gt;</text>
</a>
</g>
</g>
<!-- Node24&#45;&gt;Node4 -->
<g id="edge17_Node000004_Node000024" class="edge">
<title>Node24&#45;&gt;Node4</title>
<g id="a_edge17_Node000004_Node000024"><a xlink:title=" ">
<path fill="none" stroke="orange" stroke-dasharray="5,2" d="M342.21,-154.62C384,-150.34 445.32,-144.66 499,-142 789.97,-127.57 1139.58,-129.8 1269.03,-131.29"/>
<polygon fill="orange" stroke="orange" points="341.61,-151.16 332.03,-155.67 342.33,-158.12 341.61,-151.16"/>
</a>
</g>
<text text-anchor="middle" x="819" y="-136" font-family="Helvetica,sans-Serif" font-size="10.00" fill="grey"> &lt; function_blockt &gt;</text>
</g>
<!-- Node24&#45;&gt;Node10 -->
<g id="edge12_Node000010_Node000024" class="edge">
<title>Node24&#45;&gt;Node10</title>
<g id="a_edge12_Node000010_Node000024"><a xlink:title=" ">
<path fill="none" stroke="orange" stroke-dasharray="5,2" d="M342,-169.27C393.25,-178.87 472.9,-193.79 524.64,-203.48"/>
<polygon fill="orange" stroke="orange" points="342.62,-165.83 332.15,-167.43 341.33,-172.71 342.62,-165.83"/>
</a>
</g>
<text text-anchor="middle" x="428" y="-197" font-family="Helvetica,sans-Serif" font-size="10.00" fill="grey"> &lt; var_declarationt &gt;</text>
</g>
<!-- Node25 -->
<g id="Node000025" class="node">
<title>Node25</title>
<g id="a_Node000025"><a xlink:title=" ">
<polygon fill="white" stroke="#666666" points="636,-169.5 517,-169.5 517,-150.5 636,-150.5 636,-169.5"/>
<text text-anchor="middle" x="576.5" y="-157.5" font-family="Helvetica,sans-Serif" font-size="10.00">std::list&lt; networkt &gt;</text>
</a>
</g>
</g>
<!-- Node24&#45;&gt;Node25 -->
<g id="edge15_Node000025_Node000024" class="edge">
<title>Node24&#45;&gt;Node25</title>
<g id="a_edge15_Node000025_Node000024"><a xlink:title=" ">
<path fill="none" stroke="orange" stroke-dasharray="5,2" d="M342.15,-160C390.92,-160 465.32,-160 516.95,-160"/>
<polygon fill="orange" stroke="orange" points="342.15,-156.5 332.15,-160 342.15,-163.5 342.15,-156.5"/>
</a>
</g>
<text text-anchor="middle" x="428" y="-163" font-family="Helvetica,sans-Serif" font-size="10.00" fill="grey"> &lt; networkt &gt;</text>
</g>
<!-- Node28 -->
<g id="Node000028" class="node">
<title>Node28</title>
<g id="a_Node000028"><a xlink:title=" ">
<polygon fill="white" stroke="#666666" points="1381,-98.5 1262,-98.5 1262,-79.5 1381,-79.5 1381,-98.5"/>
<text text-anchor="middle" x="1321.5" y="-86.5" font-family="Helvetica,sans-Serif" font-size="10.00">std::list&lt; functiont &gt;</text>
</a>
</g>
</g>
<!-- Node24&#45;&gt;Node28 -->
<g id="edge23_Node000028_Node000024" class="edge">
<title>Node24&#45;&gt;Node28</title>
<g id="a_edge23_Node000028_Node000024"><a xlink:title=" ">
<path fill="none" stroke="orange" stroke-dasharray="5,2" d="M316.44,-145.16C338.59,-131.49 368.99,-112.88 375,-110 459.37,-69.61 481.96,-46 575.5,-46 575.5,-46 575.5,-46 1093,-46 1164.55,-46 1246.59,-66.79 1289.94,-79.46"/>
<polygon fill="orange" stroke="orange" points="314.5,-142.25 307.83,-150.48 318.18,-148.2 314.5,-142.25"/>
</a>
</g>
<text text-anchor="middle" x="819" y="-49" font-family="Helvetica,sans-Serif" font-size="10.00" fill="grey"> &lt; functiont &gt;</text>
</g>
<!-- Node24&#45;&gt;Node33 -->
<g id="edge31_Node000033_Node000024" class="edge">
<title>Node24&#45;&gt;Node33</title>
<g id="a_edge31_Node000033_Node000024"><a xlink:title=" ">
<path fill="none" stroke="orange" stroke-dasharray="5,2" d="M311.09,-176.28C345.64,-205.68 423.16,-267.66 499,-301 599.27,-345.08 633.54,-327.41 739,-357 756.52,-361.92 775.93,-368.29 791.13,-373.5"/>
<polygon fill="orange" stroke="orange" points="313.12,-173.41 303.26,-169.55 308.56,-178.72 313.12,-173.41"/>
</a>
</g>
<text text-anchor="middle" x="576.5" y="-342" font-family="Helvetica,sans-Serif" font-size="10.00" fill="grey"> &lt; std::string &gt;</text>
</g>
<!-- Node25&#45;&gt;Node6 -->
<g id="edge13_Node000006_Node000025" class="edge">
<title>Node25&#45;&gt;Node6</title>
<g id="a_edge13_Node000006_Node000025"><a xlink:title=" ">
<path fill="none" stroke="#9a32cd" stroke-dasharray="5,2" d="M646.39,-162.32C675.13,-163.9 708.79,-166.56 739,-171 745.54,-171.96 752.34,-173.18 759.09,-174.52"/>
<polygon fill="#9a32cd" stroke="#9a32cd" points="646.21,-158.81 636.04,-161.79 645.85,-165.8 646.21,-158.81"/>
</a>
</g>
<text text-anchor="middle" x="705.5" y="-174" font-family="Helvetica,sans-Serif" font-size="10.00" fill="grey"> networks</text>
</g>
<!-- Node26 -->
<g id="Node000026" class="node">
<title>Node26</title>
<g id="a_Node000026"><a xlink:href="structstatement__list__parse__treet_1_1networkt.html" target="_top" xlink:title="Representation of a network in Siemens TIA.">
<polygon fill="#fff0f0" stroke="red" points="351,-111 232,-111 232,-81 351,-81 351,-111"/>
<text text-anchor="start" x="240" y="-99" font-family="Helvetica,sans-Serif" font-size="10.00">statement_list_parse</text>
<text text-anchor="middle" x="291.5" y="-88" font-family="Helvetica,sans-Serif" font-size="10.00">_treet::networkt</text>
</a>
</g>
</g>
<!-- Node26&#45;&gt;Node25 -->
<g id="edge14_Node000025_Node000026" class="edge">
<title>Node26&#45;&gt;Node25</title>
<g id="a_edge14_Node000025_Node000026"><a xlink:title=" ">
<path fill="none" stroke="#9a32cd" stroke-dasharray="5,2" d="M360.95,-111.48C414.76,-123.65 487.99,-140.21 533.48,-150.5"/>
<polygon fill="#9a32cd" stroke="#9a32cd" points="361.66,-108.05 351.14,-109.26 360.12,-114.88 361.66,-108.05"/>
</a>
</g>
<text text-anchor="middle" x="428" y="-140" font-family="Helvetica,sans-Serif" font-size="10.00" fill="grey"> elements</text>
</g>
<!-- Node28&#45;&gt;Node3 -->
<g id="edge18_Node000003_Node000028" class="edge">
<title>Node28&#45;&gt;Node3</title>
<g id="a_edge18_Node000003_Node000028"><a xlink:title=" ">
<path fill="none" stroke="#9a32cd" stroke-dasharray="5,2" d="M1391.59,-89.53C1418.88,-90.29 1450.48,-91.86 1479,-95 1484.77,-95.64 1490.76,-96.45 1496.74,-97.37"/>
<polygon fill="#9a32cd" stroke="#9a32cd" points="1391.44,-86.02 1381.36,-89.27 1391.27,-93.02 1391.44,-86.02"/>
</a>
</g>
<text text-anchor="middle" x="1439" y="-98" font-family="Helvetica,sans-Serif" font-size="10.00" fill="grey"> functions</text>
</g>
<!-- Node29&#45;&gt;Node28 -->
<g id="edge19_Node000028_Node000029" class="edge">
<title>Node29&#45;&gt;Node28</title>
<g id="a_edge19_Node000028_Node000029"><a xlink:title=" ">
<path fill="none" stroke="#9a32cd" stroke-dasharray="5,2" d="M1161.73,-89C1193.63,-89 1231.16,-89 1261.72,-89"/>
<polygon fill="#9a32cd" stroke="#9a32cd" points="1161.59,-85.5 1151.59,-89 1161.59,-92.5 1161.59,-85.5"/>
</a>
</g>
<text text-anchor="middle" x="1215" y="-92" font-family="Helvetica,sans-Serif" font-size="10.00" fill="grey"> elements</text>
</g>
<!-- Node30 -->
<g id="Node000030" class="node">
<title>Node30</title>
<g id="a_Node000030"><a xlink:href="classtypet.html" target="_top" xlink:title="The type of an expression, extends irept.">
<polygon fill="white" stroke="#666666" points="840,-94.5 798,-94.5 798,-75.5 840,-75.5 840,-94.5"/>
<text text-anchor="middle" x="819" y="-82.5" font-family="Helvetica,sans-Serif" font-size="10.00">typet</text>
</a>
</g>
</g>
<!-- Node30&#45;&gt;Node29 -->
<g id="edge21_Node000029_Node000030" class="edge">
<title>Node30&#45;&gt;Node29</title>
<g id="a_edge21_Node000029_Node000030"><a xlink:title=" ">
<path fill="none" stroke="#9a32cd" stroke-dasharray="5,2" d="M850.42,-85.45C894.32,-86.1 976.3,-87.31 1032.25,-88.13"/>
<polygon fill="#9a32cd" stroke="#9a32cd" points="850.42,-81.95 840.37,-85.3 850.32,-88.95 850.42,-81.95"/>
</a>
</g>
<text text-anchor="middle" x="948.5" y="-90" font-family="Helvetica,sans-Serif" font-size="10.00" fill="grey"> return_type</text>
</g>
<!-- Node16 -->
<g id="Node000016" class="node">
<title>Node16</title>
<g id="a_Node000016"><a xlink:href="classirept.html" target="_top" xlink:title="There are a large number of kinds of tree structured or tree&#45;like data in CPROVER.">
<polygon fill="#fff0f0" stroke="red" points="596,-93.5 557,-93.5 557,-74.5 596,-74.5 596,-93.5"/>
<text text-anchor="middle" x="576.5" y="-81.5" font-family="Helvetica,sans-Serif" font-size="10.00">irept</text>
</a>
</g>
</g>
<!-- Node16&#45;&gt;Node30 -->
<g id="edge22_Node000030_Node000016" class="edge">
<title>Node16&#45;&gt;Node30</title>
<g id="a_edge22_Node000030_Node000016"><a xlink:title=" ">
<path fill="none" stroke="#63b8ff" d="M606.39,-84.12C655.79,-84.33 755.25,-84.74 797.87,-84.92"/>
<polygon fill="#63b8ff" stroke="#63b8ff" points="606.39,-80.62 596.37,-84.08 606.36,-87.62 606.39,-80.62"/>
</a>
</g>
</g>
<!-- Node31&#45;&gt;Node3 -->
<g id="edge24_Node000003_Node000031" class="edge">
<title>Node31&#45;&gt;Node3</title>
<g id="a_edge24_Node000003_Node000031"><a xlink:title=" ">
<path fill="none" stroke="#9a32cd" stroke-dasharray="5,2" d="M359.57,-15.09C416.83,-8.27 501.42,0 575.5,0 575.5,0 575.5,0 1322.5,0 1410.03,0 1500.11,-63.89 1537.53,-93.84"/>
<polygon fill="#9a32cd" stroke="#9a32cd" points="359.07,-11.63 349.56,-16.31 359.91,-18.58 359.07,-11.63"/>
</a>
</g>
<text text-anchor="middle" x="948.5" y="-3" font-family="Helvetica,sans-Serif" font-size="10.00" fill="grey"> tags</text>
</g>
<!-- Node21 -->
<g id="Node000021" class="node">
<title>Node21</title>
<g id="a_Node000021"><a xlink:title=" ">
<polygon fill="#fff0f0" stroke="red" points="97,-33.5 0,-33.5 0,-14.5 97,-14.5 97,-33.5"/>
<text text-anchor="middle" x="48.5" y="-21.5" font-family="Helvetica,sans-Serif" font-size="10.00">std::vector&lt; T &gt;</text>
</a>
</g>
</g>
<!-- Node21&#45;&gt;Node31 -->
<g id="edge26_Node000031_Node000021" class="edge">
<title>Node21&#45;&gt;Node31</title>
<g id="a_edge26_Node000031_Node000021"><a xlink:title=" ">
<path fill="none" stroke="orange" stroke-dasharray="5,2" d="M107.54,-24C145.64,-24 195.27,-24 233.22,-24"/>
<polygon fill="orange" stroke="orange" points="107.11,-20.5 97.11,-24 107.11,-27.5 107.11,-20.5"/>
</a>
</g>
<text text-anchor="middle" x="161.5" y="-27" font-family="Helvetica,sans-Serif" font-size="10.00" fill="grey"> &lt; symbol_exprt &gt;</text>
</g>
<!-- Node32&#45;&gt;Node1 -->
<g id="edge28_Node000001_Node000032" class="edge">
<title>Node32&#45;&gt;Node1</title>
<g id="a_edge28_Node000001_Node000032"><a xlink:title=" ">
<path fill="none" stroke="#9a32cd" stroke-dasharray="5,2" d="M1178.12,-385.37C1314.84,-389.17 1580.78,-396.56 1706.91,-400.07"/>
<polygon fill="#9a32cd" stroke="#9a32cd" points="1178.2,-381.87 1168.1,-385.09 1178,-388.86 1178.2,-381.87"/>
</a>
</g>
<text text-anchor="middle" x="1439" y="-396" font-family="Helvetica,sans-Serif" font-size="10.00" fill="grey"> params</text>
</g>
<!-- Node33&#45;&gt;Node32 -->
<g id="edge29_Node000032_Node000033" class="edge">
<title>Node33&#45;&gt;Node32</title>
<g id="a_edge29_Node000032_Node000033"><a xlink:title=" ">
<path fill="none" stroke="#9a32cd" stroke-dasharray="5,2" d="M891.19,-383C929.46,-383 976.65,-383 1015.55,-383"/>
<polygon fill="#9a32cd" stroke="#9a32cd" points="891.16,-379.5 881.16,-383 891.16,-386.5 891.16,-379.5"/>
</a>
</g>
<text text-anchor="middle" x="948.5" y="-386" font-family="Helvetica,sans-Serif" font-size="10.00" fill="grey"> string_input_values</text>
</g>
</g>
</svg>
