<?xml version="1.0" encoding="UTF-8" standalone="no"?>
<!DOCTYPE svg PUBLIC "-//W3C//DTD SVG 1.1//EN"
 "http://www.w3.org/Graphics/SVG/1.1/DTD/svg11.dtd">
<!-- Generated by graphviz version 2.43.0 (0)
 -->
<!-- Title: map_iteratort&lt; iteratort, outputt &gt; Pages: 1 -->
<svg width="755pt" height="98pt"
 viewBox="0.00 0.00 755.00 97.50" xmlns="http://www.w3.org/2000/svg" xmlns:xlink="http://www.w3.org/1999/xlink">
<g id="graph0" class="graph" transform="scale(1 1) rotate(0) translate(4 93.5)">
<title>map_iteratort&lt; iteratort, outputt &gt;</title>
<!-- Node1 -->
<g id="Node000001" class="node">
<title>Node1</title>
<g id="a_Node000001"><a xlink:title="Iterator which applies some given function f after each increment and returns its result on dereferen...">
<polygon fill="#999999" stroke="#666666" points="747,-51.5 610,-51.5 610,-21.5 747,-21.5 747,-51.5"/>
<text text-anchor="start" x="618" y="-39.5" font-family="Helvetica,sans-Serif" font-size="10.00">map_iteratort&lt; iteratort,</text>
<text text-anchor="middle" x="678.5" y="-28.5" font-family="Helvetica,sans-Serif" font-size="10.00"> outputt &gt;</text>
</a>
</g>
</g>
<!-- Node2 -->
<g id="Node000002" class="node">
<title>Node2</title>
<g id="a_Node000002"><a xlink:title=" ">
<polygon fill="white" stroke="#666666" points="533.5,-89.5 391.5,-89.5 391.5,-37.5 533.5,-37.5 533.5,-89.5"/>
<text text-anchor="start" x="399.5" y="-77.5" font-family="Helvetica,sans-Serif" font-size="10.00">std::shared_ptr&lt; std</text>
<text text-anchor="start" x="399.5" y="-66.5" font-family="Helvetica,sans-Serif" font-size="10.00">::function&lt; value_type</text>
<text text-anchor="start" x="399.5" y="-55.5" font-family="Helvetica,sans-Serif" font-size="10.00">(const typename iteratort</text>
<text text-anchor="middle" x="462.5" y="-44.5" font-family="Helvetica,sans-Serif" font-size="10.00">::value_type &amp;)&gt; &gt;</text>
</a>
</g>
</g>
<!-- Node2&#45;&gt;Node1 -->
<g id="edge1_Node000001_Node000002" class="edge">
<title>Node2&#45;&gt;Node1</title>
<g id="a_edge1_Node000001_Node000002"><a xlink:title=" ">
<path fill="none" stroke="#9a32cd" stroke-dasharray="5,2" d="M543.77,-53.37C565.52,-50.63 588.84,-47.69 609.82,-45.04"/>
<polygon fill="#9a32cd" stroke="#9a32cd" points="543.05,-49.93 533.57,-54.66 543.93,-56.88 543.05,-49.93"/>
</a>
</g>
<text text-anchor="middle" x="573" y="-55.5" font-family="Helvetica,sans-Serif" font-size="10.00" fill="grey"> f</text>
</g>
<!-- Node3 -->
<g id="Node000003" class="node">
<title>Node3</title>
<g id="a_Node000003"><a xlink:title=" ">
<polygon fill="white" stroke="#666666" points="200,-46 82,-46 82,-27 200,-27 200,-46"/>
<text text-anchor="middle" x="141" y="-34" font-family="Helvetica,sans-Serif" font-size="10.00">std::shared_ptr&lt; T &gt;</text>
</a>
</g>
</g>
<!-- Node3&#45;&gt;Node2 -->
<g id="edge2_Node000002_Node000003" class="edge">
<title>Node3&#45;&gt;Node2</title>
<g id="a_edge2_Node000002_Node000003"><a xlink:title=" ">
<path fill="none" stroke="orange" stroke-dasharray="5,2" d="M210.28,-42.27C263.66,-46.78 337.58,-53.03 391.41,-57.58"/>
<polygon fill="orange" stroke="orange" points="210.49,-38.78 200.23,-41.42 209.9,-45.75 210.49,-38.78"/>
</a>
</g>
<text text-anchor="start" x="218" y="-81.5" font-family="Helvetica,sans-Serif" font-size="10.00" fill="grey"> &lt; std::function&lt; value</text>
<text text-anchor="start" x="218" y="-70.5" font-family="Helvetica,sans-Serif" font-size="10.00" fill="grey">_type(const typename iteratort</text>
<text text-anchor="middle" x="294.5" y="-59.5" font-family="Helvetica,sans-Serif" font-size="10.00" fill="grey">::value_type &amp;)&gt; &gt;</text>
</g>
<!-- Node5 -->
<g id="Node000005" class="node">
<title>Node5</title>
<g id="a_Node000005"><a xlink:title=" ">
<polygon fill="white" stroke="#666666" points="536,-19 389,-19 389,0 536,0 536,-19"/>
<text text-anchor="middle" x="462.5" y="-7" font-family="Helvetica,sans-Serif" font-size="10.00">std::shared_ptr&lt; outputt &gt;</text>
</a>
</g>
</g>
<!-- Node3&#45;&gt;Node5 -->
<g id="edge5_Node000005_Node000003" class="edge">
<title>Node3&#45;&gt;Node5</title>
<g id="a_edge5_Node000005_Node000003"><a xlink:title=" ">
<path fill="none" stroke="orange" stroke-dasharray="5,2" d="M210.25,-29.23C212.87,-28.98 215.46,-28.73 218,-28.5 275.32,-23.25 340.32,-18.22 388.74,-14.66"/>
<polygon fill="orange" stroke="orange" points="209.69,-25.77 200.08,-30.22 210.37,-32.73 209.69,-25.77"/>
</a>
</g>
<text text-anchor="middle" x="294.5" y="-31.5" font-family="Helvetica,sans-Serif" font-size="10.00" fill="grey"> &lt; outputt &gt;</text>
</g>
<!-- Node4 -->
<g id="Node000004" class="node">
<title>Node4</title>
<g id="a_Node000004"><a xlink:title=" ">
<polygon fill="white" stroke="#666666" points="29,-46 0,-46 0,-27 29,-27 29,-46"/>
<text text-anchor="middle" x="14.5" y="-34" font-family="Helvetica,sans-Serif" font-size="10.00">T</text>
</a>
</g>
</g>
<!-- Node4&#45;&gt;Node3 -->
<g id="edge3_Node000003_Node000004" class="edge">
<title>Node4&#45;&gt;Node3</title>
<g id="a_edge3_Node000003_Node000004"><a xlink:title=" ">
<path fill="none" stroke="#9a32cd" stroke-dasharray="5,2" d="M39.42,-36.5C51.53,-36.5 66.79,-36.5 81.75,-36.5"/>
<polygon fill="#9a32cd" stroke="#9a32cd" points="39.3,-33 29.3,-36.5 39.3,-40 39.3,-33"/>
</a>
</g>
<text text-anchor="middle" x="55.5" y="-39.5" font-family="Helvetica,sans-Serif" font-size="10.00" fill="grey"> ptr</text>
</g>
<!-- Node5&#45;&gt;Node1 -->
<g id="edge4_Node000001_Node000005" class="edge">
<title>Node5&#45;&gt;Node1</title>
<g id="a_edge4_Node000001_Node000005"><a xlink:title=" ">
<path fill="none" stroke="#9a32cd" stroke-dasharray="5,2" d="M546.46,-19.97C567.49,-22.62 589.83,-25.44 610,-27.98"/>
<polygon fill="#9a32cd" stroke="#9a32cd" points="546.61,-16.46 536.25,-18.68 545.73,-23.4 546.61,-16.46"/>
</a>
</g>
<text text-anchor="middle" x="573" y="-28.5" font-family="Helvetica,sans-Serif" font-size="10.00" fill="grey"> current</text>
</g>
</g>
</svg>
