<?xml version="1.0" encoding="UTF-8" standalone="no"?>
<!DOCTYPE svg PUBLIC "-//W3C//DTD SVG 1.1//EN"
 "http://www.w3.org/Graphics/SVG/1.1/DTD/svg11.dtd">
<!-- Generated by graphviz version 2.43.0 (0)
 -->
<!-- Title: qdimacs_coret Pages: 1 -->
<svg width="401pt" height="412pt"
 viewBox="0.00 0.00 401.00 412.00" xmlns="http://www.w3.org/2000/svg" xmlns:xlink="http://www.w3.org/1999/xlink">
<g id="graph0" class="graph" transform="scale(1 1) rotate(0) translate(4 408)">
<title>qdimacs_coret</title>
<!-- Node1 -->
<g id="Node000001" class="node">
<title>Node1</title>
<g id="a_Node000001"><a xlink:title=" ">
<polygon fill="#999999" stroke="#666666" points="263,-129 175,-129 175,-110 263,-110 263,-129"/>
<text text-anchor="middle" x="219" y="-117" font-family="Helvetica,sans-Serif" font-size="10.00">qdimacs_coret</text>
</a>
</g>
</g>
<!-- Node7 -->
<g id="Node000007" class="node">
<title>Node7</title>
<g id="a_Node000007"><a xlink:href="classqbf__bdd__certificatet.html" target="_top" xlink:title=" ">
<polygon fill="white" stroke="#666666" points="154.5,-74 41.5,-74 41.5,-55 154.5,-55 154.5,-74"/>
<text text-anchor="middle" x="98" y="-62" font-family="Helvetica,sans-Serif" font-size="10.00">qbf_bdd_certificatet</text>
</a>
</g>
</g>
<!-- Node1&#45;&gt;Node7 -->
<g id="edge6_Node000001_Node000007" class="edge">
<title>Node1&#45;&gt;Node7</title>
<g id="a_edge6_Node000001_Node000007"><a xlink:title=" ">
<path fill="none" stroke="#63b8ff" d="M190.23,-105.9C167.88,-96.11 137.48,-82.79 117.79,-74.17"/>
<polygon fill="#63b8ff" stroke="#63b8ff" points="189,-109.18 199.56,-109.98 191.8,-102.77 189,-109.18"/>
</a>
</g>
</g>
<!-- Node10 -->
<g id="Node000010" class="node">
<title>Node10</title>
<g id="a_Node000010"><a xlink:href="classqbf__qube__coret.html" target="_top" xlink:title=" ">
<polygon fill="white" stroke="#666666" points="265,-74 173,-74 173,-55 265,-55 265,-74"/>
<text text-anchor="middle" x="219" y="-62" font-family="Helvetica,sans-Serif" font-size="10.00">qbf_qube_coret</text>
</a>
</g>
</g>
<!-- Node1&#45;&gt;Node10 -->
<g id="edge9_Node000001_Node000010" class="edge">
<title>Node1&#45;&gt;Node10</title>
<g id="a_edge9_Node000001_Node000010"><a xlink:title=" ">
<path fill="none" stroke="#63b8ff" d="M219,-99.66C219,-90.93 219,-80.99 219,-74.09"/>
<polygon fill="#63b8ff" stroke="#63b8ff" points="215.5,-99.75 219,-109.75 222.5,-99.75 215.5,-99.75"/>
</a>
</g>
</g>
<!-- Node11 -->
<g id="Node000011" class="node">
<title>Node11</title>
<g id="a_Node000011"><a xlink:href="classqbf__squolem__coret.html" target="_top" xlink:title=" ">
<polygon fill="white" stroke="#666666" points="393,-74 283,-74 283,-55 393,-55 393,-74"/>
<text text-anchor="middle" x="338" y="-62" font-family="Helvetica,sans-Serif" font-size="10.00">qbf_squolem_coret</text>
</a>
</g>
</g>
<!-- Node1&#45;&gt;Node11 -->
<g id="edge10_Node000001_Node000011" class="edge">
<title>Node1&#45;&gt;Node11</title>
<g id="a_edge10_Node000001_Node000011"><a xlink:title=" ">
<path fill="none" stroke="#63b8ff" d="M247.3,-105.9C269.28,-96.11 299.18,-82.79 318.53,-74.17"/>
<polygon fill="#63b8ff" stroke="#63b8ff" points="245.83,-102.72 238.12,-109.98 248.68,-109.11 245.83,-102.72"/>
</a>
</g>
</g>
<!-- Node2 -->
<g id="Node000002" class="node">
<title>Node2</title>
<g id="a_Node000002"><a xlink:href="classqdimacs__cnft.html" target="_top" xlink:title=" ">
<polygon fill="white" stroke="#666666" points="259.5,-184 178.5,-184 178.5,-165 259.5,-165 259.5,-184"/>
<text text-anchor="middle" x="219" y="-172" font-family="Helvetica,sans-Serif" font-size="10.00">qdimacs_cnft</text>
</a>
</g>
</g>
<!-- Node2&#45;&gt;Node1 -->
<g id="edge1_Node000001_Node000002" class="edge">
<title>Node2&#45;&gt;Node1</title>
<g id="a_edge1_Node000001_Node000002"><a xlink:title=" ">
<path fill="none" stroke="#63b8ff" d="M219,-154.66C219,-145.93 219,-135.99 219,-129.09"/>
<polygon fill="#63b8ff" stroke="#63b8ff" points="215.5,-154.75 219,-164.75 222.5,-154.75 215.5,-154.75"/>
</a>
</g>
</g>
<!-- Node3 -->
<g id="Node000003" class="node">
<title>Node3</title>
<g id="a_Node000003"><a xlink:href="classdimacs__cnft.html" target="_top" xlink:title=" ">
<polygon fill="white" stroke="#666666" points="256.5,-239 181.5,-239 181.5,-220 256.5,-220 256.5,-239"/>
<text text-anchor="middle" x="219" y="-227" font-family="Helvetica,sans-Serif" font-size="10.00">dimacs_cnft</text>
</a>
</g>
</g>
<!-- Node3&#45;&gt;Node2 -->
<g id="edge2_Node000002_Node000003" class="edge">
<title>Node3&#45;&gt;Node2</title>
<g id="a_edge2_Node000002_Node000003"><a xlink:title=" ">
<path fill="none" stroke="#63b8ff" d="M219,-209.66C219,-200.93 219,-190.99 219,-184.09"/>
<polygon fill="#63b8ff" stroke="#63b8ff" points="215.5,-209.75 219,-219.75 222.5,-209.75 215.5,-209.75"/>
</a>
</g>
</g>
<!-- Node4 -->
<g id="Node000004" class="node">
<title>Node4</title>
<g id="a_Node000004"><a xlink:href="classcnf__clause__listt.html" target="_top" xlink:title=" ">
<polygon fill="white" stroke="#666666" points="265,-294 173,-294 173,-275 265,-275 265,-294"/>
<text text-anchor="middle" x="219" y="-282" font-family="Helvetica,sans-Serif" font-size="10.00">cnf_clause_listt</text>
</a>
</g>
</g>
<!-- Node4&#45;&gt;Node3 -->
<g id="edge3_Node000003_Node000004" class="edge">
<title>Node4&#45;&gt;Node3</title>
<g id="a_edge3_Node000003_Node000004"><a xlink:title=" ">
<path fill="none" stroke="#63b8ff" d="M219,-264.66C219,-255.93 219,-245.99 219,-239.09"/>
<polygon fill="#63b8ff" stroke="#63b8ff" points="215.5,-264.75 219,-274.75 222.5,-264.75 215.5,-264.75"/>
</a>
</g>
</g>
<!-- Node5 -->
<g id="Node000005" class="node">
<title>Node5</title>
<g id="a_Node000005"><a xlink:href="classcnft.html" target="_top" xlink:title=" ">
<polygon fill="white" stroke="#666666" points="236.5,-349 201.5,-349 201.5,-330 236.5,-330 236.5,-349"/>
<text text-anchor="middle" x="219" y="-337" font-family="Helvetica,sans-Serif" font-size="10.00">cnft</text>
</a>
</g>
</g>
<!-- Node5&#45;&gt;Node4 -->
<g id="edge4_Node000004_Node000005" class="edge">
<title>Node5&#45;&gt;Node4</title>
<g id="a_edge4_Node000004_Node000005"><a xlink:title=" ">
<path fill="none" stroke="#63b8ff" d="M219,-319.66C219,-310.93 219,-300.99 219,-294.09"/>
<polygon fill="#63b8ff" stroke="#63b8ff" points="215.5,-319.75 219,-329.75 222.5,-319.75 215.5,-319.75"/>
</a>
</g>
</g>
<!-- Node6 -->
<g id="Node000006" class="node">
<title>Node6</title>
<g id="a_Node000006"><a xlink:href="classpropt.html" target="_top" xlink:title="TO_BE_DOCUMENTED.">
<polygon fill="white" stroke="#666666" points="240,-404 198,-404 198,-385 240,-385 240,-404"/>
<text text-anchor="middle" x="219" y="-392" font-family="Helvetica,sans-Serif" font-size="10.00">propt</text>
</a>
</g>
</g>
<!-- Node6&#45;&gt;Node5 -->
<g id="edge5_Node000005_Node000006" class="edge">
<title>Node6&#45;&gt;Node5</title>
<g id="a_edge5_Node000005_Node000006"><a xlink:title=" ">
<path fill="none" stroke="#63b8ff" d="M219,-374.66C219,-365.93 219,-355.99 219,-349.09"/>
<polygon fill="#63b8ff" stroke="#63b8ff" points="215.5,-374.75 219,-384.75 222.5,-374.75 215.5,-374.75"/>
</a>
</g>
</g>
<!-- Node8 -->
<g id="Node000008" class="node">
<title>Node8</title>
<g id="a_Node000008"><a xlink:href="classqbf__bdd__coret.html" target="_top" xlink:title=" ">
<polygon fill="white" stroke="#666666" points="86,-19 0,-19 0,0 86,0 86,-19"/>
<text text-anchor="middle" x="43" y="-7" font-family="Helvetica,sans-Serif" font-size="10.00">qbf_bdd_coret</text>
</a>
</g>
</g>
<!-- Node7&#45;&gt;Node8 -->
<g id="edge7_Node000007_Node000008" class="edge">
<title>Node7&#45;&gt;Node8</title>
<g id="a_edge7_Node000007_Node000008"><a xlink:title=" ">
<path fill="none" stroke="#63b8ff" d="M81.71,-47.8C71.96,-38.41 59.95,-26.83 51.91,-19.09"/>
<polygon fill="#63b8ff" stroke="#63b8ff" points="79.29,-50.33 88.92,-54.75 84.15,-45.29 79.29,-50.33"/>
</a>
</g>
</g>
<!-- Node9 -->
<g id="Node000009" class="node">
<title>Node9</title>
<g id="a_Node000009"><a xlink:href="classqbf__skizzo__coret.html" target="_top" xlink:title=" ">
<polygon fill="white" stroke="#666666" points="202,-19 104,-19 104,0 202,0 202,-19"/>
<text text-anchor="middle" x="153" y="-7" font-family="Helvetica,sans-Serif" font-size="10.00">qbf_skizzo_coret</text>
</a>
</g>
</g>
<!-- Node7&#45;&gt;Node9 -->
<g id="edge8_Node000007_Node000009" class="edge">
<title>Node7&#45;&gt;Node9</title>
<g id="a_edge8_Node000007_Node000009"><a xlink:title=" ">
<path fill="none" stroke="#63b8ff" d="M114.29,-47.8C124.04,-38.41 136.05,-26.83 144.09,-19.09"/>
<polygon fill="#63b8ff" stroke="#63b8ff" points="111.85,-45.29 107.08,-54.75 116.71,-50.33 111.85,-45.29"/>
</a>
</g>
</g>
</g>
</svg>
