<?xml version="1.0" encoding="UTF-8" standalone="no"?>
<!DOCTYPE svg PUBLIC "-//W3C//DTD SVG 1.1//EN"
 "http://www.w3.org/Graphics/SVG/1.1/DTD/svg11.dtd">
<!-- Generated by graphviz version 2.43.0 (0)
 -->
<!-- Title: smt_sortt Pages: 1 -->
<svg width="345pt" height="305pt"
 viewBox="0.00 0.00 344.50 305.00" xmlns="http://www.w3.org/2000/svg" xmlns:xlink="http://www.w3.org/1999/xlink">
<g id="graph0" class="graph" transform="scale(1 1) rotate(0) translate(4 301)">
<title>smt_sortt</title>
<!-- Node1 -->
<g id="Node000001" class="node">
<title>Node1</title>
<g id="a_Node000001"><a xlink:title=" ">
<polygon fill="#999999" stroke="#666666" points="202.5,-75 139.5,-75 139.5,-56 202.5,-56 202.5,-75"/>
<text text-anchor="middle" x="171" y="-63" font-family="Helvetica,sans-Serif" font-size="10.00">smt_sortt</text>
</a>
</g>
</g>
<!-- Node5 -->
<g id="Node000005" class="node">
<title>Node5</title>
<g id="a_Node000005"><a xlink:href="classsmt__array__sortt.html" target="_top" xlink:title=" ">
<polygon fill="white" stroke="#666666" points="94,-19 0,-19 0,0 94,0 94,-19"/>
<text text-anchor="middle" x="47" y="-7" font-family="Helvetica,sans-Serif" font-size="10.00">smt_array_sortt</text>
</a>
</g>
</g>
<!-- Node1&#45;&gt;Node5 -->
<g id="edge4_Node000001_Node000005" class="edge">
<title>Node1&#45;&gt;Node5</title>
<g id="a_edge4_Node000001_Node000005"><a xlink:title=" ">
<path fill="none" stroke="#63b8ff" d="M141.99,-51.87C118.77,-41.76 86.84,-27.85 66.56,-19.02"/>
<polygon fill="#63b8ff" stroke="#63b8ff" points="140.79,-55.16 151.35,-55.94 143.58,-48.74 140.79,-55.16"/>
</a>
</g>
</g>
<!-- Node6 -->
<g id="Node000006" class="node">
<title>Node6</title>
<g id="a_Node000006"><a xlink:href="classsmt__bit__vector__sortt.html" target="_top" xlink:title=" ">
<polygon fill="white" stroke="#666666" points="229.5,-19 112.5,-19 112.5,0 229.5,0 229.5,-19"/>
<text text-anchor="middle" x="171" y="-7" font-family="Helvetica,sans-Serif" font-size="10.00">smt_bit_vector_sortt</text>
</a>
</g>
</g>
<!-- Node1&#45;&gt;Node6 -->
<g id="edge5_Node000001_Node000006" class="edge">
<title>Node1&#45;&gt;Node6</title>
<g id="a_edge5_Node000001_Node000006"><a xlink:title=" ">
<path fill="none" stroke="#63b8ff" d="M171,-45.3C171,-36.41 171,-26.28 171,-19.25"/>
<polygon fill="#63b8ff" stroke="#63b8ff" points="167.5,-45.58 171,-55.58 174.5,-45.58 167.5,-45.58"/>
</a>
</g>
</g>
<!-- Node7 -->
<g id="Node000007" class="node">
<title>Node7</title>
<g id="a_Node000007"><a xlink:href="classsmt__bool__sortt.html" target="_top" xlink:title=" ">
<polygon fill="white" stroke="#666666" points="336.5,-19 247.5,-19 247.5,0 336.5,0 336.5,-19"/>
<text text-anchor="middle" x="292" y="-7" font-family="Helvetica,sans-Serif" font-size="10.00">smt_bool_sortt</text>
</a>
</g>
</g>
<!-- Node1&#45;&gt;Node7 -->
<g id="edge6_Node000001_Node000007" class="edge">
<title>Node1&#45;&gt;Node7</title>
<g id="a_edge6_Node000001_Node000007"><a xlink:title=" ">
<path fill="none" stroke="#63b8ff" d="M199.31,-51.87C221.97,-41.76 253.13,-27.85 272.92,-19.02"/>
<polygon fill="#63b8ff" stroke="#63b8ff" points="197.88,-48.67 190.17,-55.94 200.73,-55.06 197.88,-48.67"/>
</a>
</g>
</g>
<!-- Node2 -->
<g id="Node000002" class="node">
<title>Node2</title>
<g id="a_Node000002"><a xlink:href="classirept.html" target="_top" xlink:title="There are a large number of kinds of tree structured or tree&#45;like data in CPROVER.">
<polygon fill="white" stroke="#666666" points="190.5,-131 151.5,-131 151.5,-112 190.5,-112 190.5,-131"/>
<text text-anchor="middle" x="171" y="-119" font-family="Helvetica,sans-Serif" font-size="10.00">irept</text>
</a>
</g>
</g>
<!-- Node2&#45;&gt;Node1 -->
<g id="edge1_Node000001_Node000002" class="edge">
<title>Node2&#45;&gt;Node1</title>
<g id="a_edge1_Node000001_Node000002"><a xlink:title=" ">
<path fill="none" stroke="darkgreen" d="M171,-101.3C171,-92.41 171,-82.28 171,-75.25"/>
<polygon fill="darkgreen" stroke="darkgreen" points="167.5,-101.58 171,-111.58 174.5,-101.58 167.5,-101.58"/>
</a>
</g>
</g>
<!-- Node3 -->
<g id="Node000003" class="node">
<title>Node3</title>
<g id="a_Node000003"><a xlink:href="classsharing__treet.html" target="_top" xlink:title=" ">
<polygon fill="white" stroke="#666666" points="233.5,-209 108.5,-209 108.5,-168 233.5,-168 233.5,-209"/>
<text text-anchor="start" x="116.5" y="-197" font-family="Helvetica,sans-Serif" font-size="10.00">sharing_treet&lt; irept,</text>
<text text-anchor="start" x="116.5" y="-186" font-family="Helvetica,sans-Serif" font-size="10.00"> forward_list_as_mapt</text>
<text text-anchor="middle" x="171" y="-175" font-family="Helvetica,sans-Serif" font-size="10.00">&lt; irep_idt, irept &gt; &gt;</text>
</a>
</g>
</g>
<!-- Node3&#45;&gt;Node2 -->
<g id="edge2_Node000002_Node000003" class="edge">
<title>Node3&#45;&gt;Node2</title>
<g id="a_edge2_Node000002_Node000003"><a xlink:title=" ">
<path fill="none" stroke="#63b8ff" d="M171,-157.76C171,-148.06 171,-138.02 171,-131.15"/>
<polygon fill="#63b8ff" stroke="#63b8ff" points="167.5,-158 171,-168 174.5,-158 167.5,-158"/>
</a>
</g>
</g>
<!-- Node4 -->
<g id="Node000004" class="node">
<title>Node4</title>
<g id="a_Node000004"><a xlink:href="classsharing__treet.html" target="_top" xlink:title="Base class for tree&#45;like data structures with sharing.">
<polygon fill="white" stroke="#666666" points="239,-297 103,-297 103,-267 239,-267 239,-297"/>
<text text-anchor="start" x="111" y="-285" font-family="Helvetica,sans-Serif" font-size="10.00">sharing_treet&lt; derivedt,</text>
<text text-anchor="middle" x="171" y="-274" font-family="Helvetica,sans-Serif" font-size="10.00"> named_subtreest &gt;</text>
</a>
</g>
</g>
<!-- Node4&#45;&gt;Node3 -->
<g id="edge3_Node000003_Node000004" class="edge">
<title>Node4&#45;&gt;Node3</title>
<g id="a_edge3_Node000003_Node000004"><a xlink:title=" ">
<path fill="none" stroke="orange" stroke-dasharray="5,2" d="M171,-256.69C171,-241.82 171,-223.05 171,-209.13"/>
<polygon fill="orange" stroke="orange" points="167.5,-256.7 171,-266.7 174.5,-256.7 167.5,-256.7"/>
</a>
</g>
<text text-anchor="start" x="171" y="-241" font-family="Helvetica,sans-Serif" font-size="10.00" fill="grey"> &lt; irept, forward_list</text>
<text text-anchor="middle" x="244.5" y="-230" font-family="Helvetica,sans-Serif" font-size="10.00" fill="grey">_as_mapt&lt; irep_idt, irept &gt; &gt;</text>
</g>
</g>
</svg>
