<?xml version="1.0" encoding="UTF-8" standalone="no"?>
<!DOCTYPE svg PUBLIC "-//W3C//DTD SVG 1.1//EN"
 "http://www.w3.org/Graphics/SVG/1.1/DTD/svg11.dtd">
<!-- Generated by graphviz version 2.43.0 (0)
 -->
<!-- Title: smt_sort_output_visitort Pages: 1 -->
<svg width="273pt" height="283pt"
 viewBox="0.00 0.00 272.50 283.00" xmlns="http://www.w3.org/2000/svg" xmlns:xlink="http://www.w3.org/1999/xlink">
<g id="graph0" class="graph" transform="scale(1 1) rotate(0) translate(4 279)">
<title>smt_sort_output_visitort</title>
<!-- Node1 -->
<g id="Node000001" class="node">
<title>Node1</title>
<g id="a_Node000001"><a xlink:title=" ">
<polygon fill="#999999" stroke="#666666" points="155.5,-19 19.5,-19 19.5,0 155.5,0 155.5,-19"/>
<text text-anchor="middle" x="87.5" y="-7" font-family="Helvetica,sans-Serif" font-size="10.00">smt_sort_output_visitort</text>
</a>
</g>
</g>
<!-- Node2 -->
<g id="Node000002" class="node">
<title>Node2</title>
<g id="a_Node000002"><a xlink:href="classsmt__sort__const__downcast__visitort.html" target="_top" xlink:title=" ">
<polygon fill="white" stroke="#666666" points="143,-96 0,-96 0,-66 143,-66 143,-96"/>
<text text-anchor="start" x="8" y="-84" font-family="Helvetica,sans-Serif" font-size="10.00">smt_sort_const_downcast</text>
<text text-anchor="middle" x="71.5" y="-73" font-family="Helvetica,sans-Serif" font-size="10.00">_visitort</text>
</a>
</g>
</g>
<!-- Node2&#45;&gt;Node1 -->
<g id="edge1_Node000001_Node000002" class="edge">
<title>Node2&#45;&gt;Node1</title>
<g id="a_edge1_Node000001_Node000002"><a xlink:title=" ">
<path fill="none" stroke="#63b8ff" d="M77.04,-55.94C79.96,-43.24 83.37,-28.44 85.48,-19.27"/>
<polygon fill="#63b8ff" stroke="#63b8ff" points="73.57,-55.41 74.74,-65.94 80.39,-56.98 73.57,-55.41"/>
</a>
</g>
</g>
<!-- Node3 -->
<g id="Node000003" class="node">
<title>Node3</title>
<g id="a_Node000003"><a xlink:title=" ">
<polygon fill="white" stroke="#666666" points="239.5,-90.5 161.5,-90.5 161.5,-71.5 239.5,-71.5 239.5,-90.5"/>
<text text-anchor="middle" x="200.5" y="-78.5" font-family="Helvetica,sans-Serif" font-size="10.00">std::ostream</text>
</a>
</g>
</g>
<!-- Node3&#45;&gt;Node1 -->
<g id="edge2_Node000001_Node000003" class="edge">
<title>Node3&#45;&gt;Node1</title>
<g id="a_edge2_Node000001_Node000003"><a xlink:title=" ">
<path fill="none" stroke="#9a32cd" stroke-dasharray="5,2" d="M177.95,-66.13C155.14,-52.1 120.59,-30.85 101.47,-19.09"/>
<polygon fill="#9a32cd" stroke="#9a32cd" points="176.29,-69.22 186.64,-71.48 179.96,-63.26 176.29,-69.22"/>
</a>
</g>
<text text-anchor="middle" x="154" y="-40" font-family="Helvetica,sans-Serif" font-size="10.00" fill="grey"> os</text>
</g>
<!-- Node4 -->
<g id="Node000004" class="node">
<title>Node4</title>
<g id="a_Node000004"><a xlink:title=" ">
<polygon fill="white" stroke="#666666" points="255,-163 146,-163 146,-133 255,-133 255,-163"/>
<text text-anchor="start" x="154" y="-151" font-family="Helvetica,sans-Serif" font-size="10.00">std::basic_ostream</text>
<text text-anchor="middle" x="200.5" y="-140" font-family="Helvetica,sans-Serif" font-size="10.00">&lt; Char &gt;</text>
</a>
</g>
</g>
<!-- Node4&#45;&gt;Node3 -->
<g id="edge3_Node000003_Node000004" class="edge">
<title>Node4&#45;&gt;Node3</title>
<g id="a_edge3_Node000003_Node000004"><a xlink:title=" ">
<path fill="none" stroke="#63b8ff" d="M200.5,-122.75C200.5,-111.52 200.5,-98.88 200.5,-90.69"/>
<polygon fill="#63b8ff" stroke="#63b8ff" points="197,-122.9 200.5,-132.9 204,-122.9 197,-122.9"/>
</a>
</g>
</g>
<!-- Node5 -->
<g id="Node000005" class="node">
<title>Node5</title>
<g id="a_Node000005"><a xlink:title=" ">
<polygon fill="white" stroke="#666666" points="264.5,-219 136.5,-219 136.5,-200 264.5,-200 264.5,-219"/>
<text text-anchor="middle" x="200.5" y="-207" font-family="Helvetica,sans-Serif" font-size="10.00">std::basic_ios&lt; Char &gt;</text>
</a>
</g>
</g>
<!-- Node5&#45;&gt;Node4 -->
<g id="edge4_Node000004_Node000005" class="edge">
<title>Node5&#45;&gt;Node4</title>
<g id="a_edge4_Node000004_Node000005"><a xlink:title=" ">
<path fill="none" stroke="#63b8ff" d="M200.5,-189.73C200.5,-181.09 200.5,-171 200.5,-163.02"/>
<polygon fill="#63b8ff" stroke="#63b8ff" points="197,-189.98 200.5,-199.98 204,-189.98 197,-189.98"/>
</a>
</g>
</g>
<!-- Node6 -->
<g id="Node000006" class="node">
<title>Node6</title>
<g id="a_Node000006"><a xlink:title=" ">
<polygon fill="white" stroke="#666666" points="240.5,-275 160.5,-275 160.5,-256 240.5,-256 240.5,-275"/>
<text text-anchor="middle" x="200.5" y="-263" font-family="Helvetica,sans-Serif" font-size="10.00">std::ios_base</text>
</a>
</g>
</g>
<!-- Node6&#45;&gt;Node5 -->
<g id="edge5_Node000005_Node000006" class="edge">
<title>Node6&#45;&gt;Node5</title>
<g id="a_edge5_Node000005_Node000006"><a xlink:title=" ">
<path fill="none" stroke="#63b8ff" d="M200.5,-245.3C200.5,-236.41 200.5,-226.28 200.5,-219.25"/>
<polygon fill="#63b8ff" stroke="#63b8ff" points="197,-245.58 200.5,-255.58 204,-245.58 197,-245.58"/>
</a>
</g>
</g>
</g>
</svg>
