<?xml version="1.0" encoding="UTF-8" standalone="no"?>
<!DOCTYPE svg PUBLIC "-//W3C//DTD SVG 1.1//EN"
 "http://www.w3.org/Graphics/SVG/1.1/DTD/svg11.dtd">
<!-- Generated by graphviz version 2.43.0 (0)
 -->
<!-- Title: language_modulet Pages: 1 -->
<svg width="513pt" height="302pt"
 viewBox="0.00 0.00 512.50 302.00" xmlns="http://www.w3.org/2000/svg" xmlns:xlink="http://www.w3.org/1999/xlink">
<g id="graph0" class="graph" transform="scale(1 1) rotate(0) translate(4 298)">
<title>language_modulet</title>
<!-- Node1 -->
<g id="Node000001" class="node">
<title>Node1</title>
<g id="a_Node000001"><a xlink:title=" ">
<polygon fill="#999999" stroke="#666666" points="504.5,-19 397.5,-19 397.5,0 504.5,0 504.5,-19"/>
<text text-anchor="middle" x="451" y="-7" font-family="Helvetica,sans-Serif" font-size="10.00">language_modulet</text>
</a>
</g>
</g>
<!-- Node2 -->
<g id="Node000002" class="node">
<title>Node2</title>
<g id="a_Node000002"><a xlink:title=" ">
<polygon fill="white" stroke="#666666" points="446.5,-217 381.5,-217 381.5,-198 446.5,-198 446.5,-217"/>
<text text-anchor="middle" x="414" y="-205" font-family="Helvetica,sans-Serif" font-size="10.00">std::string</text>
</a>
</g>
</g>
<!-- Node2&#45;&gt;Node1 -->
<g id="edge1_Node000001_Node000002" class="edge">
<title>Node2&#45;&gt;Node1</title>
<g id="a_edge1_Node000001_Node000002"><a xlink:title=" ">
<path fill="none" stroke="#9a32cd" stroke-dasharray="5,2" d="M433.13,-191.21C444.16,-181.12 457,-166.87 463,-151 480.84,-103.83 462.2,-41.6 454.24,-19.09"/>
<polygon fill="#9a32cd" stroke="#9a32cd" points="430.81,-188.59 425.55,-197.79 435.4,-193.88 430.81,-188.59"/>
</a>
</g>
<text text-anchor="middle" x="485.5" y="-106" font-family="Helvetica,sans-Serif" font-size="10.00" fill="grey"> name</text>
</g>
<!-- Node4 -->
<g id="Node000004" class="node">
<title>Node4</title>
<g id="a_Node000004"><a xlink:href="classlanguage__filet.html" target="_top" xlink:title=" ">
<polygon fill="white" stroke="#666666" points="418,-85 332,-85 332,-66 418,-66 418,-85"/>
<text text-anchor="middle" x="375" y="-73" font-family="Helvetica,sans-Serif" font-size="10.00">language_filet</text>
</a>
</g>
</g>
<!-- Node2&#45;&gt;Node4 -->
<g id="edge12_Node000004_Node000002" class="edge">
<title>Node2&#45;&gt;Node4</title>
<g id="a_edge12_Node000004_Node000002"><a xlink:title=" ">
<path fill="none" stroke="#9a32cd" stroke-dasharray="5,2" d="M414.83,-187.9C415.05,-166.4 413.11,-130.46 400,-103 396.73,-96.15 391.03,-89.9 385.9,-85.19"/>
<polygon fill="#9a32cd" stroke="#9a32cd" points="411.33,-187.87 414.55,-197.96 418.32,-188.06 411.33,-187.87"/>
</a>
</g>
<text text-anchor="middle" x="436" y="-139" font-family="Helvetica,sans-Serif" font-size="10.00" fill="grey"> filename</text>
</g>
<!-- Node5 -->
<g id="Node000005" class="node">
<title>Node5</title>
<g id="a_Node000005"><a xlink:title=" ">
<polygon fill="white" stroke="#666666" points="378,-151 254,-151 254,-132 378,-132 378,-151"/>
<text text-anchor="middle" x="316" y="-139" font-family="Helvetica,sans-Serif" font-size="10.00">std::set&lt; std::string &gt;</text>
</a>
</g>
</g>
<!-- Node2&#45;&gt;Node5 -->
<g id="edge5_Node000005_Node000002" class="edge">
<title>Node2&#45;&gt;Node5</title>
<g id="a_edge5_Node000005_Node000002"><a xlink:title=" ">
<path fill="none" stroke="#9a32cd" stroke-dasharray="5,2" d="M392.33,-192.35C373.07,-179.77 345.52,-161.78 329.32,-151.2"/>
<polygon fill="#9a32cd" stroke="#9a32cd" points="390.5,-195.33 400.78,-197.87 394.32,-189.47 390.5,-195.33"/>
</a>
</g>
<text text-anchor="middle" x="384" y="-172" font-family="Helvetica,sans-Serif" font-size="10.00" fill="grey"> keys</text>
</g>
<!-- Node3 -->
<g id="Node000003" class="node">
<title>Node3</title>
<g id="a_Node000003"><a xlink:title=" ">
<polygon fill="white" stroke="#666666" points="466,-294 362,-294 362,-264 466,-264 466,-294"/>
<text text-anchor="start" x="370" y="-282" font-family="Helvetica,sans-Serif" font-size="10.00">std::basic_string&lt;</text>
<text text-anchor="middle" x="414" y="-271" font-family="Helvetica,sans-Serif" font-size="10.00"> Char &gt;</text>
</a>
</g>
</g>
<!-- Node3&#45;&gt;Node2 -->
<g id="edge2_Node000002_Node000003" class="edge">
<title>Node3&#45;&gt;Node2</title>
<g id="a_edge2_Node000002_Node000003"><a xlink:title=" ">
<path fill="none" stroke="#63b8ff" d="M414,-253.56C414,-240.95 414,-226.35 414,-217.27"/>
<polygon fill="#63b8ff" stroke="#63b8ff" points="410.5,-253.94 414,-263.94 417.5,-253.94 410.5,-253.94"/>
</a>
</g>
</g>
<!-- Node4&#45;&gt;Node1 -->
<g id="edge3_Node000001_Node000004" class="edge">
<title>Node4&#45;&gt;Node1</title>
<g id="a_edge3_Node000001_Node000004"><a xlink:title=" ">
<path fill="none" stroke="#9a32cd" stroke-dasharray="5,2" d="M393.19,-59.18C407.94,-46.76 428.22,-29.68 440.43,-19.41"/>
<polygon fill="#9a32cd" stroke="#9a32cd" points="390.64,-56.75 385.25,-65.87 395.15,-62.1 390.64,-56.75"/>
</a>
</g>
<text text-anchor="middle" x="426.5" y="-40" font-family="Helvetica,sans-Serif" font-size="10.00" fill="grey"> file</text>
</g>
<!-- Node5&#45;&gt;Node4 -->
<g id="edge4_Node000004_Node000005" class="edge">
<title>Node5&#45;&gt;Node4</title>
<g id="a_edge4_Node000004_Node000005"><a xlink:title=" ">
<path fill="none" stroke="#9a32cd" stroke-dasharray="5,2" d="M330.77,-124.48C342.16,-112.12 357.49,-95.49 366.79,-85.41"/>
<polygon fill="#9a32cd" stroke="#9a32cd" points="328.16,-122.14 323.96,-131.87 333.31,-126.89 328.16,-122.14"/>
</a>
</g>
<text text-anchor="middle" x="373" y="-106" font-family="Helvetica,sans-Serif" font-size="10.00" fill="grey"> modules</text>
</g>
<!-- Node6 -->
<g id="Node000006" class="node">
<title>Node6</title>
<g id="a_Node000006"><a xlink:title=" ">
<polygon fill="white" stroke="#666666" points="316,-217 234,-217 234,-198 316,-198 316,-217"/>
<text text-anchor="middle" x="275" y="-205" font-family="Helvetica,sans-Serif" font-size="10.00">std::set&lt; K &gt;</text>
</a>
</g>
</g>
<!-- Node6&#45;&gt;Node5 -->
<g id="edge6_Node000005_Node000006" class="edge">
<title>Node6&#45;&gt;Node5</title>
<g id="a_edge6_Node000005_Node000006"><a xlink:title=" ">
<path fill="none" stroke="orange" stroke-dasharray="5,2" d="M272.13,-187.56C272.04,-181.32 272.92,-174.55 276,-169 280.28,-161.28 287.87,-155.41 295.3,-151.18"/>
<polygon fill="orange" stroke="orange" points="268.68,-188.23 273.08,-197.87 275.65,-187.59 268.68,-188.23"/>
</a>
</g>
<text text-anchor="middle" x="313.5" y="-172" font-family="Helvetica,sans-Serif" font-size="10.00" fill="grey"> &lt; std::string &gt;</text>
</g>
<!-- Node7 -->
<g id="Node000007" class="node">
<title>Node7</title>
<g id="a_Node000007"><a xlink:title=" ">
<polygon fill="white" stroke="#666666" points="289.5,-288.5 260.5,-288.5 260.5,-269.5 289.5,-269.5 289.5,-288.5"/>
<text text-anchor="middle" x="275" y="-276.5" font-family="Helvetica,sans-Serif" font-size="10.00">K</text>
</a>
</g>
</g>
<!-- Node7&#45;&gt;Node6 -->
<g id="edge7_Node000006_Node000007" class="edge">
<title>Node7&#45;&gt;Node6</title>
<g id="a_edge7_Node000006_Node000007"><a xlink:title=" ">
<path fill="none" stroke="#9a32cd" stroke-dasharray="5,2" d="M275,-259.21C275,-245.5 275,-227.55 275,-217.09"/>
<polygon fill="#9a32cd" stroke="#9a32cd" points="271.5,-259.48 275,-269.48 278.5,-259.48 271.5,-259.48"/>
</a>
</g>
<text text-anchor="middle" x="288" y="-238" font-family="Helvetica,sans-Serif" font-size="10.00" fill="grey"> keys</text>
</g>
<!-- Node8 -->
<g id="Node000008" class="node">
<title>Node8</title>
<g id="a_Node000008"><a xlink:title=" ">
<polygon fill="white" stroke="#666666" points="235.5,-151 74.5,-151 74.5,-132 235.5,-132 235.5,-151"/>
<text text-anchor="middle" x="155" y="-139" font-family="Helvetica,sans-Serif" font-size="10.00">std::unique_ptr&lt; languaget &gt;</text>
</a>
</g>
</g>
<!-- Node8&#45;&gt;Node4 -->
<g id="edge8_Node000004_Node000008" class="edge">
<title>Node8&#45;&gt;Node4</title>
<g id="a_edge8_Node000004_Node000008"><a xlink:title=" ">
<path fill="none" stroke="#9a32cd" stroke-dasharray="5,2" d="M194.31,-129.06C237.67,-116.45 306.45,-96.44 345.45,-85.1"/>
<polygon fill="#9a32cd" stroke="#9a32cd" points="193.29,-125.71 184.67,-131.87 195.25,-132.44 193.29,-125.71"/>
</a>
</g>
<text text-anchor="middle" x="303.5" y="-106" font-family="Helvetica,sans-Serif" font-size="10.00" fill="grey"> language</text>
</g>
<!-- Node9 -->
<g id="Node000009" class="node">
<title>Node9</title>
<g id="a_Node000009"><a xlink:href="classlanguaget.html" target="_top" xlink:title=" ">
<polygon fill="white" stroke="#666666" points="201.5,-217 136.5,-217 136.5,-198 201.5,-198 201.5,-217"/>
<text text-anchor="middle" x="169" y="-205" font-family="Helvetica,sans-Serif" font-size="10.00">languaget</text>
</a>
</g>
</g>
<!-- Node9&#45;&gt;Node8 -->
<g id="edge9_Node000008_Node000009" class="edge">
<title>Node9&#45;&gt;Node8</title>
<g id="a_edge9_Node000008_Node000009"><a xlink:title=" ">
<path fill="none" stroke="#9a32cd" stroke-dasharray="5,2" d="M164.94,-187.95C162.31,-175.93 159.01,-160.82 156.95,-151.41"/>
<polygon fill="#9a32cd" stroke="#9a32cd" points="161.56,-188.85 167.11,-197.87 168.39,-187.35 161.56,-188.85"/>
</a>
</g>
<text text-anchor="middle" x="171.5" y="-172" font-family="Helvetica,sans-Serif" font-size="10.00" fill="grey"> ptr</text>
</g>
<!-- Node10 -->
<g id="Node000010" class="node">
<title>Node10</title>
<g id="a_Node000010"><a xlink:title=" ">
<polygon fill="white" stroke="#666666" points="118,-217 0,-217 0,-198 118,-198 118,-217"/>
<text text-anchor="middle" x="59" y="-205" font-family="Helvetica,sans-Serif" font-size="10.00">std::unique_ptr&lt; T &gt;</text>
</a>
</g>
</g>
<!-- Node10&#45;&gt;Node8 -->
<g id="edge10_Node000008_Node000010" class="edge">
<title>Node10&#45;&gt;Node8</title>
<g id="a_edge10_Node000008_Node000010"><a xlink:title=" ">
<path fill="none" stroke="orange" stroke-dasharray="5,2" d="M67.32,-188.54C71.25,-181.65 76.52,-174.21 83,-169 93.07,-160.91 105.85,-155.14 117.83,-151.1"/>
<polygon fill="orange" stroke="orange" points="63.97,-187.41 62.53,-197.9 70.2,-190.6 63.97,-187.41"/>
</a>
</g>
<text text-anchor="middle" x="120.5" y="-172" font-family="Helvetica,sans-Serif" font-size="10.00" fill="grey"> &lt; languaget &gt;</text>
</g>
<!-- Node11 -->
<g id="Node000011" class="node">
<title>Node11</title>
<g id="a_Node000011"><a xlink:title=" ">
<polygon fill="white" stroke="#666666" points="73.5,-288.5 44.5,-288.5 44.5,-269.5 73.5,-269.5 73.5,-288.5"/>
<text text-anchor="middle" x="59" y="-276.5" font-family="Helvetica,sans-Serif" font-size="10.00">T</text>
</a>
</g>
</g>
<!-- Node11&#45;&gt;Node10 -->
<g id="edge11_Node000010_Node000011" class="edge">
<title>Node11&#45;&gt;Node10</title>
<g id="a_edge11_Node000010_Node000011"><a xlink:title=" ">
<path fill="none" stroke="#9a32cd" stroke-dasharray="5,2" d="M59,-259.21C59,-245.5 59,-227.55 59,-217.09"/>
<polygon fill="#9a32cd" stroke="#9a32cd" points="55.5,-259.48 59,-269.48 62.5,-259.48 55.5,-259.48"/>
</a>
</g>
<text text-anchor="middle" x="67.5" y="-238" font-family="Helvetica,sans-Serif" font-size="10.00" fill="grey"> ptr</text>
</g>
</g>
</svg>
