<?xml version="1.0" encoding="UTF-8" standalone="no"?>
<!DOCTYPE svg PUBLIC "-//W3C//DTD SVG 1.1//EN"
 "http://www.w3.org/Graphics/SVG/1.1/DTD/svg11.dtd">
<!-- Generated by graphviz version 2.43.0 (0)
 -->
<!-- Title: messaget Pages: 1 -->
<svg width="529pt" height="193pt"
 viewBox="0.00 0.00 529.00 193.00" xmlns="http://www.w3.org/2000/svg" xmlns:xlink="http://www.w3.org/1999/xlink">
<g id="graph0" class="graph" transform="scale(1 1) rotate(0) translate(4 189)">
<title>messaget</title>
<!-- Node1 -->
<g id="Node000001" class="node">
<title>Node1</title>
<g id="a_Node000001"><a xlink:title="Class that provides messages with a built&#45;in verbosity &#39;level&#39;.">
<polygon fill="#999999" stroke="#666666" points="65,-111 0,-111 0,-92 65,-92 65,-111"/>
<text text-anchor="middle" x="32.5" y="-99" font-family="Helvetica,sans-Serif" font-size="10.00">messaget</text>
</a>
</g>
</g>
<!-- Node2 -->
<g id="Node000002" class="node">
<title>Node2</title>
<g id="a_Node000002"><a xlink:href="classgoto__convertt.html" target="_top" xlink:title=" ">
<polygon fill="white" stroke="#666666" points="190,-167 106,-167 106,-148 190,-148 190,-167"/>
<text text-anchor="middle" x="148" y="-155" font-family="Helvetica,sans-Serif" font-size="10.00">goto_convertt</text>
</a>
</g>
</g>
<!-- Node1&#45;&gt;Node2 -->
<g id="edge1_Node000001_Node000002" class="edge">
<title>Node1&#45;&gt;Node2</title>
<g id="a_edge1_Node000001_Node000002"><a xlink:title=" ">
<path fill="none" stroke="#63b8ff" d="M57.96,-116.36C70.59,-123.75 86.38,-132.57 101,-139.5 107.2,-142.44 114.02,-145.3 120.46,-147.84"/>
<polygon fill="#63b8ff" stroke="#63b8ff" points="59.38,-113.13 48.99,-111.04 55.81,-119.15 59.38,-113.13"/>
</a>
</g>
</g>
<!-- Node5 -->
<g id="Node000005" class="node">
<title>Node5</title>
<g id="a_Node000005"><a xlink:href="classpreprocessort.html" target="_top" xlink:title=" ">
<polygon fill="white" stroke="#666666" points="189.5,-130 106.5,-130 106.5,-111 189.5,-111 189.5,-130"/>
<text text-anchor="middle" x="148" y="-118" font-family="Helvetica,sans-Serif" font-size="10.00">preprocessort</text>
</a>
</g>
</g>
<!-- Node1&#45;&gt;Node5 -->
<g id="edge4_Node000001_Node000005" class="edge">
<title>Node1&#45;&gt;Node5</title>
<g id="a_edge4_Node000001_Node000005"><a xlink:title=" ">
<path fill="none" stroke="#63b8ff" d="M75,-108.45C85.18,-110.15 96.06,-111.97 106.2,-113.67"/>
<polygon fill="#63b8ff" stroke="#63b8ff" points="75.56,-104.99 65.12,-106.79 74.4,-111.9 75.56,-104.99"/>
</a>
</g>
</g>
<!-- Node6 -->
<g id="Node000006" class="node">
<title>Node6</title>
<g id="a_Node000006"><a xlink:href="classsafety__checkert.html" target="_top" xlink:title=" ">
<polygon fill="white" stroke="#666666" points="195,-93 101,-93 101,-74 195,-74 195,-93"/>
<text text-anchor="middle" x="148" y="-81" font-family="Helvetica,sans-Serif" font-size="10.00">safety_checkert</text>
</a>
</g>
</g>
<!-- Node1&#45;&gt;Node6 -->
<g id="edge5_Node000001_Node000006" class="edge">
<title>Node1&#45;&gt;Node6</title>
<g id="a_edge5_Node000001_Node000006"><a xlink:title=" ">
<path fill="none" stroke="#63b8ff" d="M75.02,-94.92C83.37,-93.59 92.2,-92.19 100.7,-90.84"/>
<polygon fill="#63b8ff" stroke="#63b8ff" points="74.44,-91.46 65.12,-96.49 75.54,-98.38 74.44,-91.46"/>
</a>
</g>
</g>
<!-- Node7 -->
<g id="Node000007" class="node">
<title>Node7</title>
<g id="a_Node000007"><a xlink:href="classtypecheckt.html" target="_top" xlink:title=" ">
<polygon fill="white" stroke="#666666" points="183.5,-56 112.5,-56 112.5,-37 183.5,-37 183.5,-56"/>
<text text-anchor="middle" x="148" y="-44" font-family="Helvetica,sans-Serif" font-size="10.00">typecheckt</text>
</a>
</g>
</g>
<!-- Node1&#45;&gt;Node7 -->
<g id="edge6_Node000001_Node000007" class="edge">
<title>Node1&#45;&gt;Node7</title>
<g id="a_edge6_Node000001_Node000007"><a xlink:title=" ">
<path fill="none" stroke="#63b8ff" d="M59.37,-86.93C71.81,-80.13 87.03,-72.09 101,-65.5 107.88,-62.26 115.46,-59 122.45,-56.12"/>
<polygon fill="#63b8ff" stroke="#63b8ff" points="57.52,-83.96 50.46,-91.85 60.91,-90.08 57.52,-83.96"/>
</a>
</g>
</g>
<!-- Node3 -->
<g id="Node000003" class="node">
<title>Node3</title>
<g id="a_Node000003"><a xlink:href="classcleanert.html" target="_top" xlink:title="Class that allows to clean expressions of side effects and to generate havoc_slice expressions.">
<polygon fill="white" stroke="#666666" points="332.5,-185 276.5,-185 276.5,-166 332.5,-166 332.5,-185"/>
<text text-anchor="middle" x="304.5" y="-173" font-family="Helvetica,sans-Serif" font-size="10.00">cleanert</text>
</a>
</g>
</g>
<!-- Node2&#45;&gt;Node3 -->
<g id="edge2_Node000002_Node000003" class="edge">
<title>Node2&#45;&gt;Node3</title>
<g id="a_edge2_Node000002_Node000003"><a xlink:title=" ">
<path fill="none" stroke="#63b8ff" d="M200.58,-163.51C225.84,-166.45 255.23,-169.88 276.12,-172.31"/>
<polygon fill="#63b8ff" stroke="#63b8ff" points="200.74,-160 190.4,-162.32 199.93,-166.96 200.74,-160"/>
</a>
</g>
</g>
<!-- Node4 -->
<g id="Node000004" class="node">
<title>Node4</title>
<g id="a_Node000004"><a xlink:href="classgoto__convert__functionst.html" target="_top" xlink:title=" ">
<polygon fill="white" stroke="#666666" points="371.5,-148 237.5,-148 237.5,-129 371.5,-129 371.5,-148"/>
<text text-anchor="middle" x="304.5" y="-136" font-family="Helvetica,sans-Serif" font-size="10.00">goto_convert_functionst</text>
</a>
</g>
</g>
<!-- Node2&#45;&gt;Node4 -->
<g id="edge3_Node000002_Node000004" class="edge">
<title>Node2&#45;&gt;Node4</title>
<g id="a_edge3_Node000002_Node000004"><a xlink:title=" ">
<path fill="none" stroke="#63b8ff" d="M200.48,-151.17C212.25,-149.72 224.92,-148.16 237.21,-146.65"/>
<polygon fill="#63b8ff" stroke="#63b8ff" points="199.9,-147.71 190.4,-152.41 200.76,-154.66 199.9,-147.71"/>
</a>
</g>
</g>
<!-- Node8 -->
<g id="Node000008" class="node">
<title>Node8</title>
<g id="a_Node000008"><a xlink:href="classc__typecheck__baset.html" target="_top" xlink:title=" ">
<polygon fill="white" stroke="#666666" points="359.5,-93 249.5,-93 249.5,-74 359.5,-74 359.5,-93"/>
<text text-anchor="middle" x="304.5" y="-81" font-family="Helvetica,sans-Serif" font-size="10.00">c_typecheck_baset</text>
</a>
</g>
</g>
<!-- Node7&#45;&gt;Node8 -->
<g id="edge7_Node000007_Node000008" class="edge">
<title>Node7&#45;&gt;Node8</title>
<g id="a_edge7_Node000007_Node000008"><a xlink:title=" ">
<path fill="none" stroke="#63b8ff" d="M193.52,-57.16C215.69,-62.47 242.28,-68.84 263.76,-73.98"/>
<polygon fill="#63b8ff" stroke="#63b8ff" points="194.21,-53.73 183.67,-54.8 192.58,-60.54 194.21,-53.73"/>
</a>
</g>
</g>
<!-- Node11 -->
<g id="Node000011" class="node">
<title>Node11</title>
<g id="a_Node000011"><a xlink:href="classjava__bytecode__typecheckt.html" target="_top" xlink:title=" ">
<polygon fill="white" stroke="#666666" points="378,-56 231,-56 231,-37 378,-37 378,-56"/>
<text text-anchor="middle" x="304.5" y="-44" font-family="Helvetica,sans-Serif" font-size="10.00">java_bytecode_typecheckt</text>
</a>
</g>
</g>
<!-- Node7&#45;&gt;Node11 -->
<g id="edge10_Node000007_Node000011" class="edge">
<title>Node7&#45;&gt;Node11</title>
<g id="a_edge10_Node000007_Node000011"><a xlink:title=" ">
<path fill="none" stroke="#63b8ff" d="M193.9,-46.5C205.44,-46.5 218.15,-46.5 230.71,-46.5"/>
<polygon fill="#63b8ff" stroke="#63b8ff" points="193.67,-43 183.67,-46.5 193.67,-50 193.67,-43"/>
</a>
</g>
</g>
<!-- Node12 -->
<g id="Node000012" class="node">
<title>Node12</title>
<g id="a_Node000012"><a xlink:href="classstatement__list__typecheckt.html" target="_top" xlink:title="Class for encapsulating the current state of the type check.">
<polygon fill="white" stroke="#666666" points="377.5,-19 231.5,-19 231.5,0 377.5,0 377.5,-19"/>
<text text-anchor="middle" x="304.5" y="-7" font-family="Helvetica,sans-Serif" font-size="10.00">statement_list_typecheckt</text>
</a>
</g>
</g>
<!-- Node7&#45;&gt;Node12 -->
<g id="edge11_Node000007_Node000012" class="edge">
<title>Node7&#45;&gt;Node12</title>
<g id="a_edge11_Node000007_Node000012"><a xlink:title=" ">
<path fill="none" stroke="#63b8ff" d="M193.52,-35.84C215.69,-30.53 242.28,-24.16 263.76,-19.02"/>
<polygon fill="#63b8ff" stroke="#63b8ff" points="192.58,-32.46 183.67,-38.2 194.21,-39.27 192.58,-32.46"/>
</a>
</g>
</g>
<!-- Node9 -->
<g id="Node000009" class="node">
<title>Node9</title>
<g id="a_Node000009"><a xlink:href="classansi__c__typecheckt.html" target="_top" xlink:title=" ">
<polygon fill="white" stroke="#666666" points="521,-111 414,-111 414,-92 521,-92 521,-111"/>
<text text-anchor="middle" x="467.5" y="-99" font-family="Helvetica,sans-Serif" font-size="10.00">ansi_c_typecheckt</text>
</a>
</g>
</g>
<!-- Node8&#45;&gt;Node9 -->
<g id="edge8_Node000008_Node000009" class="edge">
<title>Node8&#45;&gt;Node9</title>
<g id="a_edge8_Node000008_Node000009"><a xlink:title=" ">
<path fill="none" stroke="#63b8ff" d="M369.6,-90.67C384.31,-92.31 399.79,-94.04 413.95,-95.62"/>
<polygon fill="#63b8ff" stroke="#63b8ff" points="369.89,-87.18 359.56,-89.54 369.11,-94.13 369.89,-87.18"/>
</a>
</g>
</g>
<!-- Node10 -->
<g id="Node000010" class="node">
<title>Node10</title>
<g id="a_Node000010"><a xlink:href="classcpp__typecheckt.html" target="_top" xlink:title=" ">
<polygon fill="white" stroke="#666666" points="514,-74 421,-74 421,-55 514,-55 514,-74"/>
<text text-anchor="middle" x="467.5" y="-62" font-family="Helvetica,sans-Serif" font-size="10.00">cpp_typecheckt</text>
</a>
</g>
</g>
<!-- Node8&#45;&gt;Node10 -->
<g id="edge9_Node000008_Node000010" class="edge">
<title>Node8&#45;&gt;Node10</title>
<g id="a_edge9_Node000008_Node000010"><a xlink:title=" ">
<path fill="none" stroke="#63b8ff" d="M369.53,-75.94C386.72,-73.92 404.95,-71.76 420.91,-69.88"/>
<polygon fill="#63b8ff" stroke="#63b8ff" points="369.08,-72.47 359.56,-77.12 369.9,-79.42 369.08,-72.47"/>
</a>
</g>
</g>
</g>
</svg>
