<?xml version="1.0" encoding="UTF-8" standalone="no"?>
<!DOCTYPE svg PUBLIC "-//W3C//DTD SVG 1.1//EN"
 "http://www.w3.org/Graphics/SVG/1.1/DTD/svg11.dtd">
<!-- Generated by graphviz version 2.43.0 (0)
 -->
<!-- Title: configt Pages: 1 -->
<svg width="1614pt" height="477pt"
 viewBox="0.00 0.00 1614.00 477.00" xmlns="http://www.w3.org/2000/svg" xmlns:xlink="http://www.w3.org/1999/xlink">
<g id="graph0" class="graph" transform="scale(1 1) rotate(0) translate(4 473)">
<title>configt</title>
<!-- Node1 -->
<g id="Node000001" class="node">
<title>Node1</title>
<g id="a_Node000001"><a xlink:title="Globally accessible architectural configuration.">
<polygon fill="#999999" stroke="#666666" points="1606,-301.5 1556,-301.5 1556,-282.5 1606,-282.5 1606,-301.5"/>
<text text-anchor="middle" x="1581" y="-289.5" font-family="Helvetica,sans-Serif" font-size="10.00">configt</text>
</a>
</g>
</g>
<!-- Node2 -->
<g id="Node000002" class="node">
<title>Node2</title>
<g id="a_Node000002"><a xlink:href="structconfigt_1_1ansi__ct.html" target="_top" xlink:title=" ">
<polygon fill="white" stroke="#666666" points="1439.5,-409.5 1349.5,-409.5 1349.5,-390.5 1439.5,-390.5 1439.5,-409.5"/>
<text text-anchor="middle" x="1394.5" y="-397.5" font-family="Helvetica,sans-Serif" font-size="10.00">configt::ansi_ct</text>
</a>
</g>
</g>
<!-- Node2&#45;&gt;Node1 -->
<g id="edge1_Node000001_Node000002" class="edge">
<title>Node2&#45;&gt;Node1</title>
<g id="a_edge1_Node000001_Node000002"><a xlink:title=" ">
<path fill="none" stroke="#9a32cd" stroke-dasharray="5,2" d="M1432.92,-386.85C1462.83,-375.39 1505.06,-357 1538,-334 1551.36,-324.67 1564.23,-310.86 1572.12,-301.65"/>
<polygon fill="#9a32cd" stroke="#9a32cd" points="1431.41,-383.68 1423.28,-390.47 1433.87,-390.23 1431.41,-383.68"/>
</a>
</g>
<text text-anchor="middle" x="1505.5" y="-372" font-family="Helvetica,sans-Serif" font-size="10.00" fill="grey"> ansi_c</text>
</g>
<!-- Node3 -->
<g id="Node000003" class="node">
<title>Node3</title>
<g id="a_Node000003"><a xlink:href="classdstringt.html" target="_top" xlink:title="dstringt has one field, an unsigned integer no which is an index into a static table of strings.">
<polygon fill="white" stroke="#666666" points="1158,-368.5 1104,-368.5 1104,-349.5 1158,-349.5 1158,-368.5"/>
<text text-anchor="middle" x="1131" y="-356.5" font-family="Helvetica,sans-Serif" font-size="10.00">dstringt</text>
</a>
</g>
</g>
<!-- Node3&#45;&gt;Node2 -->
<g id="edge2_Node000002_Node000003" class="edge">
<title>Node3&#45;&gt;Node2</title>
<g id="a_edge2_Node000002_Node000003"><a xlink:title=" ">
<path fill="none" stroke="#9a32cd" stroke-dasharray="5,2" d="M1159.26,-373.2C1179.85,-383.8 1205.49,-396.68 1211,-398 1257.23,-409.06 1311.94,-407.84 1349.32,-404.94"/>
<polygon fill="#9a32cd" stroke="#9a32cd" points="1160.73,-370.02 1150.24,-368.54 1157.52,-376.24 1160.73,-370.02"/>
</a>
</g>
<text text-anchor="middle" x="1263.5" y="-409" font-family="Helvetica,sans-Serif" font-size="10.00" fill="grey"> arch</text>
</g>
<!-- Node35 -->
<g id="Node000035" class="node">
<title>Node35</title>
<g id="a_Node000035"><a xlink:href="structconfigt_1_1javat.html" target="_top" xlink:title=" ">
<polygon fill="white" stroke="#666666" points="1434.5,-301.5 1354.5,-301.5 1354.5,-282.5 1434.5,-282.5 1434.5,-301.5"/>
<text text-anchor="middle" x="1394.5" y="-289.5" font-family="Helvetica,sans-Serif" font-size="10.00">configt::javat</text>
</a>
</g>
</g>
<!-- Node3&#45;&gt;Node35 -->
<g id="edge34_Node000035_Node000003" class="edge">
<title>Node3&#45;&gt;Node35</title>
<g id="a_edge34_Node000035_Node000003"><a xlink:title=" ">
<path fill="none" stroke="#9a32cd" stroke-dasharray="5,2" d="M1163.26,-344.89C1173.15,-339.84 1183.87,-333.71 1193,-327 1202.11,-320.3 1200.76,-313.81 1211,-309 1256.8,-287.49 1316.1,-286.14 1354.48,-288.21"/>
<polygon fill="#9a32cd" stroke="#9a32cd" points="1161.54,-341.84 1154.11,-349.4 1164.63,-348.12 1161.54,-341.84"/>
</a>
</g>
<text text-anchor="middle" x="1263.5" y="-312" font-family="Helvetica,sans-Serif" font-size="10.00" fill="grey"> main_class</text>
</g>
<!-- Node4 -->
<g id="Node000004" class="node">
<title>Node4</title>
<g id="a_Node000004"><a xlink:href="classpreprocessort.html" target="_top" xlink:title=" ">
<polygon fill="white" stroke="#666666" points="1172.5,-418.5 1089.5,-418.5 1089.5,-399.5 1172.5,-399.5 1172.5,-418.5"/>
<text text-anchor="middle" x="1131" y="-406.5" font-family="Helvetica,sans-Serif" font-size="10.00">preprocessort</text>
</a>
</g>
</g>
<!-- Node4&#45;&gt;Node2 -->
<g id="edge3_Node000002_Node000004" class="edge">
<title>Node4&#45;&gt;Node2</title>
<g id="a_edge3_Node000002_Node000004"><a xlink:title=" ">
<path fill="none" stroke="#9a32cd" stroke-dasharray="5,2" d="M1167.71,-421.72C1181.1,-425.87 1196.58,-429.94 1211,-432 1257.2,-438.59 1270.22,-441.08 1316,-432 1337.56,-427.72 1360.65,-417.36 1375.96,-409.58"/>
<polygon fill="#9a32cd" stroke="#9a32cd" points="1168.52,-418.3 1157.92,-418.56 1166.37,-424.97 1168.52,-418.3"/>
</a>
</g>
<text text-anchor="middle" x="1263.5" y="-440" font-family="Helvetica,sans-Serif" font-size="10.00" fill="grey"> preprocessor</text>
</g>
<!-- Node5 -->
<g id="Node000005" class="node">
<title>Node5</title>
<g id="a_Node000005"><a xlink:href="classmessaget.html" target="_top" xlink:title="Class that provides messages with a built&#45;in verbosity &#39;level&#39;.">
<polygon fill="white" stroke="#666666" points="932.5,-136.5 867.5,-136.5 867.5,-117.5 932.5,-117.5 932.5,-136.5"/>
<text text-anchor="middle" x="900" y="-124.5" font-family="Helvetica,sans-Serif" font-size="10.00">messaget</text>
</a>
</g>
</g>
<!-- Node5&#45;&gt;Node4 -->
<g id="edge4_Node000004_Node000005" class="edge">
<title>Node5&#45;&gt;Node4</title>
<g id="a_edge4_Node000004_Node000005"><a xlink:title=" ">
<path fill="none" stroke="#63b8ff" d="M917.88,-144.14C948.51,-176.12 1013.53,-248.16 1051,-320 1063.48,-343.93 1051.6,-357.37 1069,-378 1077.12,-387.62 1088.97,-394.59 1100.08,-399.46"/>
<polygon fill="#63b8ff" stroke="#63b8ff" points="920.01,-141.31 910.54,-136.56 914.98,-146.18 920.01,-141.31"/>
</a>
</g>
</g>
<!-- Node12 -->
<g id="Node000012" class="node">
<title>Node12</title>
<g id="a_Node000012"><a xlink:href="classmessaget_1_1mstreamt.html" target="_top" xlink:title=" ">
<polygon fill="white" stroke="#666666" points="1190.5,-85.5 1071.5,-85.5 1071.5,-66.5 1190.5,-66.5 1190.5,-85.5"/>
<text text-anchor="middle" x="1131" y="-73.5" font-family="Helvetica,sans-Serif" font-size="10.00">messaget::mstreamt</text>
</a>
</g>
</g>
<!-- Node5&#45;&gt;Node12 -->
<g id="edge14_Node000012_Node000005" class="edge">
<title>Node5&#45;&gt;Node12</title>
<g id="a_edge14_Node000012_Node000005"><a xlink:title=" ">
<path fill="none" stroke="#9a32cd" stroke-dasharray="5,2" d="M925.01,-112.26C938.13,-104.93 954.93,-96.65 971,-92 1003.38,-82.62 1040.84,-78.54 1071.26,-76.84"/>
<polygon fill="#9a32cd" stroke="#9a32cd" points="923.08,-109.33 916.18,-117.37 926.59,-115.39 923.08,-109.33"/>
</a>
</g>
<text text-anchor="middle" x="1011" y="-95" font-family="Helvetica,sans-Serif" font-size="10.00" fill="grey"> message</text>
</g>
<!-- Node6 -->
<g id="Node000006" class="node">
<title>Node6</title>
<g id="a_Node000006"><a xlink:href="classmessaget_1_1eomt.html" target="_top" xlink:title=" ">
<polygon fill="white" stroke="#666666" points="700.5,-271.5 604.5,-271.5 604.5,-252.5 700.5,-252.5 700.5,-271.5"/>
<text text-anchor="middle" x="652.5" y="-259.5" font-family="Helvetica,sans-Serif" font-size="10.00">messaget::eomt</text>
</a>
</g>
</g>
<!-- Node6&#45;&gt;Node5 -->
<g id="edge5_Node000005_Node000006" class="edge">
<title>Node6&#45;&gt;Node5</title>
<g id="a_edge5_Node000005_Node000006"><a xlink:title=" ">
<path fill="none" stroke="#9a32cd" stroke-dasharray="5,2" d="M710.8,-271.2C747.31,-274.06 794.13,-271.9 829,-250 871.65,-223.21 890.88,-160.45 896.85,-136.51"/>
<polygon fill="#9a32cd" stroke="#9a32cd" points="711.08,-267.71 700.8,-270.27 710.43,-274.68 711.08,-267.71"/>
</a>
</g>
<text text-anchor="middle" x="784" y="-276" font-family="Helvetica,sans-Serif" font-size="10.00" fill="grey"> eom</text>
</g>
<!-- Node7 -->
<g id="Node000007" class="node">
<title>Node7</title>
<g id="a_Node000007"><a xlink:href="classmessaget_1_1commandt.html" target="_top" xlink:title=" ">
<polygon fill="white" stroke="#666666" points="714,-141.5 591,-141.5 591,-122.5 714,-122.5 714,-141.5"/>
<text text-anchor="middle" x="652.5" y="-129.5" font-family="Helvetica,sans-Serif" font-size="10.00">messaget::commandt</text>
</a>
</g>
</g>
<!-- Node7&#45;&gt;Node5 -->
<g id="edge6_Node000005_Node000007" class="edge">
<title>Node7&#45;&gt;Node5</title>
<g id="a_edge6_Node000005_Node000007"><a xlink:title=" ">
<path fill="none" stroke="#9a32cd" stroke-dasharray="5,2" d="M724.38,-129.39C729.33,-129.25 734.24,-129.11 739,-129 783.57,-127.94 835.15,-127.42 867.42,-127.18"/>
<polygon fill="#9a32cd" stroke="#9a32cd" points="724.1,-125.9 714.22,-129.7 724.32,-132.89 724.1,-125.9"/>
</a>
</g>
<text text-anchor="middle" x="784" y="-242" font-family="Helvetica,sans-Serif" font-size="10.00" fill="grey"> blue</text>
<text text-anchor="middle" x="784" y="-231" font-family="Helvetica,sans-Serif" font-size="10.00" fill="grey">bold</text>
<text text-anchor="middle" x="784" y="-220" font-family="Helvetica,sans-Serif" font-size="10.00" fill="grey">bright_blue</text>
<text text-anchor="middle" x="784" y="-209" font-family="Helvetica,sans-Serif" font-size="10.00" fill="grey">bright_cyan</text>
<text text-anchor="middle" x="784" y="-198" font-family="Helvetica,sans-Serif" font-size="10.00" fill="grey">bright_green</text>
<text text-anchor="middle" x="784" y="-187" font-family="Helvetica,sans-Serif" font-size="10.00" fill="grey">bright_magenta</text>
<text text-anchor="middle" x="784" y="-176" font-family="Helvetica,sans-Serif" font-size="10.00" fill="grey">bright_red</text>
<text text-anchor="middle" x="784" y="-165" font-family="Helvetica,sans-Serif" font-size="10.00" fill="grey">bright_yellow</text>
<text text-anchor="middle" x="784" y="-154" font-family="Helvetica,sans-Serif" font-size="10.00" fill="grey">cyan</text>
<text text-anchor="middle" x="784" y="-143" font-family="Helvetica,sans-Serif" font-size="10.00" fill="grey">faint</text>
<text text-anchor="middle" x="784" y="-132" font-family="Helvetica,sans-Serif" font-size="10.00" fill="grey">...</text>
</g>
<!-- Node8 -->
<g id="Node000008" class="node">
<title>Node8</title>
<g id="a_Node000008"><a xlink:href="classmessage__handlert.html" target="_top" xlink:title=" ">
<polygon fill="white" stroke="#666666" points="706,-104.5 599,-104.5 599,-85.5 706,-85.5 706,-104.5"/>
<text text-anchor="middle" x="652.5" y="-92.5" font-family="Helvetica,sans-Serif" font-size="10.00">message_handlert</text>
</a>
</g>
</g>
<!-- Node8&#45;&gt;Node5 -->
<g id="edge7_Node000005_Node000008" class="edge">
<title>Node8&#45;&gt;Node5</title>
<g id="a_edge7_Node000005_Node000008"><a xlink:title=" ">
<path fill="none" stroke="#9a32cd" stroke-dasharray="5,2" d="M716.39,-99.99C749.92,-103.02 791.81,-107.39 829,-113 841.62,-114.91 855.42,-117.54 867.4,-120.02"/>
<polygon fill="#9a32cd" stroke="#9a32cd" points="716.54,-96.49 706.27,-99.09 715.92,-103.46 716.54,-96.49"/>
</a>
</g>
<text text-anchor="middle" x="784" y="-116" font-family="Helvetica,sans-Serif" font-size="10.00" fill="grey"> message_handler</text>
</g>
<!-- Node9 -->
<g id="Node000009" class="node">
<title>Node9</title>
<g id="a_Node000009"><a xlink:title=" ">
<polygon fill="white" stroke="#666666" points="468,-238.5 328,-238.5 328,-219.5 468,-219.5 468,-238.5"/>
<text text-anchor="middle" x="398" y="-226.5" font-family="Helvetica,sans-Serif" font-size="10.00">std::vector&lt; std::size_t &gt;</text>
</a>
</g>
</g>
<!-- Node9&#45;&gt;Node8 -->
<g id="edge8_Node000008_Node000009" class="edge">
<title>Node9&#45;&gt;Node8</title>
<g id="a_edge8_Node000008_Node000009"><a xlink:title=" ">
<path fill="none" stroke="#9a32cd" stroke-dasharray="5,2" d="M419.64,-213.13C452.65,-188.44 520.13,-140.78 584,-113 591.56,-109.71 599.87,-106.9 607.99,-104.54"/>
<polygon fill="#9a32cd" stroke="#9a32cd" points="417.14,-210.63 411.27,-219.45 421.36,-216.21 417.14,-210.63"/>
</a>
</g>
<text text-anchor="middle" x="526" y="-168" font-family="Helvetica,sans-Serif" font-size="10.00" fill="grey"> message_count</text>
</g>
<!-- Node10 -->
<g id="Node000010" class="node">
<title>Node10</title>
<g id="a_Node000010"><a xlink:title=" ">
<polygon fill="white" stroke="#666666" points="211,-238.5 114,-238.5 114,-219.5 211,-219.5 211,-238.5"/>
<text text-anchor="middle" x="162.5" y="-226.5" font-family="Helvetica,sans-Serif" font-size="10.00">std::vector&lt; T &gt;</text>
</a>
</g>
</g>
<!-- Node10&#45;&gt;Node9 -->
<g id="edge9_Node000009_Node000010" class="edge">
<title>Node10&#45;&gt;Node9</title>
<g id="a_edge9_Node000009_Node000010"><a xlink:title=" ">
<path fill="none" stroke="orange" stroke-dasharray="5,2" d="M221.2,-229C253.46,-229 293.89,-229 327.83,-229"/>
<polygon fill="orange" stroke="orange" points="221.03,-225.5 211.03,-229 221.03,-232.5 221.03,-225.5"/>
</a>
</g>
<text text-anchor="middle" x="269.5" y="-232" font-family="Helvetica,sans-Serif" font-size="10.00" fill="grey"> &lt; std::size_t &gt;</text>
</g>
<!-- Node11 -->
<g id="Node000011" class="node">
<title>Node11</title>
<g id="a_Node000011"><a xlink:title=" ">
<polygon fill="white" stroke="#666666" points="29,-267.5 0,-267.5 0,-248.5 29,-248.5 29,-267.5"/>
<text text-anchor="middle" x="14.5" y="-255.5" font-family="Helvetica,sans-Serif" font-size="10.00">T</text>
</a>
</g>
</g>
<!-- Node11&#45;&gt;Node10 -->
<g id="edge10_Node000010_Node000011" class="edge">
<title>Node11&#45;&gt;Node10</title>
<g id="a_edge10_Node000010_Node000011"><a xlink:title=" ">
<path fill="none" stroke="#9a32cd" stroke-dasharray="5,2" d="M39.11,-253.31C59.27,-249.31 88.9,-243.42 113.96,-238.44"/>
<polygon fill="#9a32cd" stroke="#9a32cd" points="38.36,-249.89 29.24,-255.27 39.73,-256.76 38.36,-249.89"/>
</a>
</g>
<text text-anchor="middle" x="71.5" y="-255" font-family="Helvetica,sans-Serif" font-size="10.00" fill="grey"> elements</text>
</g>
<!-- Node32 -->
<g id="Node000032" class="node">
<title>Node32</title>
<g id="a_Node000032"><a xlink:title=" ">
<polygon fill="white" stroke="#666666" points="310,-306.5 229,-306.5 229,-287.5 310,-287.5 310,-306.5"/>
<text text-anchor="middle" x="269.5" y="-294.5" font-family="Helvetica,sans-Serif" font-size="10.00">std::list&lt; T &gt;</text>
</a>
</g>
</g>
<!-- Node11&#45;&gt;Node32 -->
<g id="edge28_Node000032_Node000011" class="edge">
<title>Node11&#45;&gt;Node32</title>
<g id="a_edge28_Node000032_Node000011"><a xlink:title=" ">
<path fill="none" stroke="#9a32cd" stroke-dasharray="5,2" d="M39.13,-263.45C41.78,-264 44.44,-264.53 47,-265 110.25,-276.58 184.3,-286.56 228.74,-292.17"/>
<polygon fill="#9a32cd" stroke="#9a32cd" points="39.77,-260.01 29.25,-261.29 38.28,-266.85 39.77,-260.01"/>
</a>
</g>
<text text-anchor="middle" x="71.5" y="-277" font-family="Helvetica,sans-Serif" font-size="10.00" fill="grey"> elements</text>
</g>
<!-- Node12&#45;&gt;Node5 -->
<g id="edge11_Node000005_Node000012" class="edge">
<title>Node12&#45;&gt;Node5</title>
<g id="a_edge11_Node000005_Node000012"><a xlink:title=" ">
<path fill="none" stroke="#9a32cd" stroke-dasharray="5,2" d="M1098.54,-89.24C1084.25,-94.82 1066.99,-100.94 1051,-105 1010.82,-115.2 963.3,-121.18 932.69,-124.27"/>
<polygon fill="#9a32cd" stroke="#9a32cd" points="1099.92,-92.46 1107.91,-85.5 1097.33,-85.96 1099.92,-92.46"/>
</a>
</g>
<text text-anchor="middle" x="1011" y="-123" font-family="Helvetica,sans-Serif" font-size="10.00" fill="grey"> mstream</text>
</g>
<!-- Node13 -->
<g id="Node000013" class="node">
<title>Node13</title>
<g id="a_Node000013"><a xlink:title=" ">
<polygon fill="white" stroke="#666666" points="953,-28.5 847,-28.5 847,-9.5 953,-9.5 953,-28.5"/>
<text text-anchor="middle" x="900" y="-16.5" font-family="Helvetica,sans-Serif" font-size="10.00">std::ostringstream</text>
</a>
</g>
</g>
<!-- Node13&#45;&gt;Node12 -->
<g id="edge12_Node000012_Node000013" class="edge">
<title>Node13&#45;&gt;Node12</title>
<g id="a_edge12_Node000012_Node000013"><a xlink:title=" ">
<path fill="none" stroke="#63b8ff" d="M956.59,-30.76C984.94,-36.97 1019.92,-44.96 1051,-53 1066.9,-57.11 1084.46,-62.17 1098.98,-66.5"/>
<polygon fill="#63b8ff" stroke="#63b8ff" points="956.98,-27.26 946.46,-28.56 955.49,-34.1 956.98,-27.26"/>
</a>
</g>
</g>
<!-- Node14 -->
<g id="Node000014" class="node">
<title>Node14</title>
<g id="a_Node000014"><a xlink:title=" ">
<polygon fill="#fff0f0" stroke="red" points="721,-30 584,-30 584,0 721,0 721,-30"/>
<text text-anchor="start" x="592" y="-18" font-family="Helvetica,sans-Serif" font-size="10.00">std::basic_ostringstream</text>
<text text-anchor="middle" x="652.5" y="-7" font-family="Helvetica,sans-Serif" font-size="10.00">&lt; Char &gt;</text>
</a>
</g>
</g>
<!-- Node14&#45;&gt;Node13 -->
<g id="edge13_Node000013_Node000014" class="edge">
<title>Node14&#45;&gt;Node13</title>
<g id="a_edge13_Node000013_Node000014"><a xlink:title=" ">
<path fill="none" stroke="#63b8ff" d="M731.64,-16.27C769.2,-16.89 813.21,-17.6 846.66,-18.15"/>
<polygon fill="#63b8ff" stroke="#63b8ff" points="731.29,-12.77 721.23,-16.1 731.18,-19.77 731.29,-12.77"/>
</a>
</g>
</g>
<!-- Node18 -->
<g id="Node000018" class="node">
<title>Node18</title>
<g id="a_Node000018"><a xlink:href="classsource__locationt.html" target="_top" xlink:title=" ">
<polygon fill="white" stroke="#666666" points="948.5,-68.5 851.5,-68.5 851.5,-49.5 948.5,-49.5 948.5,-68.5"/>
<text text-anchor="middle" x="900" y="-56.5" font-family="Helvetica,sans-Serif" font-size="10.00">source_locationt</text>
</a>
</g>
</g>
<!-- Node18&#45;&gt;Node12 -->
<g id="edge15_Node000012_Node000018" class="edge">
<title>Node18&#45;&gt;Node12</title>
<g id="a_edge15_Node000012_Node000018"><a xlink:title=" ">
<path fill="none" stroke="#9a32cd" stroke-dasharray="5,2" d="M958.76,-56.79C986.69,-56.38 1020.66,-56.86 1051,-60 1063.94,-61.34 1077.91,-63.82 1090.45,-66.43"/>
<polygon fill="#9a32cd" stroke="#9a32cd" points="958.69,-53.29 948.76,-56.98 958.82,-60.29 958.69,-53.29"/>
</a>
</g>
<text text-anchor="middle" x="1011" y="-63" font-family="Helvetica,sans-Serif" font-size="10.00" fill="grey"> source_location</text>
</g>
<!-- Node19 -->
<g id="Node000019" class="node">
<title>Node19</title>
<g id="a_Node000019"><a xlink:href="classirept.html" target="_top" xlink:title="There are a large number of kinds of tree structured or tree&#45;like data in CPROVER.">
<polygon fill="#fff0f0" stroke="red" points="672,-67.5 633,-67.5 633,-48.5 672,-48.5 672,-67.5"/>
<text text-anchor="middle" x="652.5" y="-55.5" font-family="Helvetica,sans-Serif" font-size="10.00">irept</text>
</a>
</g>
</g>
<!-- Node19&#45;&gt;Node18 -->
<g id="edge16_Node000018_Node000019" class="edge">
<title>Node19&#45;&gt;Node18</title>
<g id="a_edge16_Node000018_Node000019"><a xlink:title=" ">
<path fill="none" stroke="#63b8ff" d="M682.37,-58.12C723.97,-58.29 801.29,-58.6 851.41,-58.81"/>
<polygon fill="#63b8ff" stroke="#63b8ff" points="682.37,-54.62 672.36,-58.08 682.34,-61.62 682.37,-54.62"/>
</a>
</g>
</g>
<!-- Node25 -->
<g id="Node000025" class="node">
<title>Node25</title>
<g id="a_Node000025"><a xlink:title=" ">
<polygon fill="white" stroke="#666666" points="937.5,-417.5 862.5,-417.5 862.5,-398.5 937.5,-398.5 937.5,-417.5"/>
<text text-anchor="middle" x="900" y="-405.5" font-family="Helvetica,sans-Serif" font-size="10.00">std::istream</text>
</a>
</g>
</g>
<!-- Node25&#45;&gt;Node4 -->
<g id="edge17_Node000004_Node000025" class="edge">
<title>Node25&#45;&gt;Node4</title>
<g id="a_edge17_Node000004_Node000025"><a xlink:title=" ">
<path fill="none" stroke="#9a32cd" stroke-dasharray="5,2" d="M947.7,-408.2C989.33,-408.39 1049.66,-408.65 1089.34,-408.82"/>
<polygon fill="#9a32cd" stroke="#9a32cd" points="947.55,-404.7 937.54,-408.16 947.52,-411.7 947.55,-404.7"/>
</a>
</g>
<text text-anchor="middle" x="1011" y="-411" font-family="Helvetica,sans-Serif" font-size="10.00" fill="grey"> in</text>
</g>
<!-- Node26 -->
<g id="Node000026" class="node">
<title>Node26</title>
<g id="a_Node000026"><a xlink:title=" ">
<polygon fill="white" stroke="#666666" points="705.5,-421 599.5,-421 599.5,-391 705.5,-391 705.5,-421"/>
<text text-anchor="start" x="607.5" y="-409" font-family="Helvetica,sans-Serif" font-size="10.00">std::basic_istream</text>
<text text-anchor="middle" x="652.5" y="-398" font-family="Helvetica,sans-Serif" font-size="10.00">&lt; Char &gt;</text>
</a>
</g>
</g>
<!-- Node26&#45;&gt;Node25 -->
<g id="edge18_Node000025_Node000026" class="edge">
<title>Node26&#45;&gt;Node25</title>
<g id="a_edge18_Node000025_Node000026"><a xlink:title=" ">
<path fill="none" stroke="#63b8ff" d="M715.78,-406.51C762.01,-406.88 823.49,-407.38 862.16,-407.7"/>
<polygon fill="#63b8ff" stroke="#63b8ff" points="715.59,-403.01 705.56,-406.42 715.54,-410.01 715.59,-403.01"/>
</a>
</g>
</g>
<!-- Node16 -->
<g id="Node000016" class="node">
<title>Node16</title>
<g id="a_Node000016"><a xlink:title=" ">
<polygon fill="#fff0f0" stroke="red" points="462,-433.5 334,-433.5 334,-414.5 462,-414.5 462,-433.5"/>
<text text-anchor="middle" x="398" y="-421.5" font-family="Helvetica,sans-Serif" font-size="10.00">std::basic_ios&lt; Char &gt;</text>
</a>
</g>
</g>
<!-- Node16&#45;&gt;Node26 -->
<g id="edge19_Node000026_Node000016" class="edge">
<title>Node16&#45;&gt;Node26</title>
<g id="a_edge19_Node000026_Node000016"><a xlink:title=" ">
<path fill="none" stroke="#63b8ff" d="M472.21,-418.78C512.95,-415.88 562.69,-412.33 599.43,-409.71"/>
<polygon fill="#63b8ff" stroke="#63b8ff" points="471.79,-415.3 462.07,-419.5 472.29,-422.28 471.79,-415.3"/>
</a>
</g>
</g>
<!-- Node28 -->
<g id="Node000028" class="node">
<title>Node28</title>
<g id="a_Node000028"><a xlink:title=" ">
<polygon fill="white" stroke="#666666" points="707,-469 598,-469 598,-439 707,-439 707,-469"/>
<text text-anchor="start" x="606" y="-457" font-family="Helvetica,sans-Serif" font-size="10.00">std::basic_ostream</text>
<text text-anchor="middle" x="652.5" y="-446" font-family="Helvetica,sans-Serif" font-size="10.00">&lt; Char &gt;</text>
</a>
</g>
</g>
<!-- Node16&#45;&gt;Node28 -->
<g id="edge22_Node000028_Node000016" class="edge">
<title>Node16&#45;&gt;Node28</title>
<g id="a_edge22_Node000028_Node000016"><a xlink:title=" ">
<path fill="none" stroke="#63b8ff" d="M472.07,-432.68C512.22,-437.45 561.16,-443.27 597.78,-447.62"/>
<polygon fill="#63b8ff" stroke="#63b8ff" points="472.41,-429.2 462.07,-431.49 471.58,-436.15 472.41,-429.2"/>
</a>
</g>
</g>
<!-- Node27 -->
<g id="Node000027" class="node">
<title>Node27</title>
<g id="a_Node000027"><a xlink:title=" ">
<polygon fill="white" stroke="#666666" points="939,-458.5 861,-458.5 861,-439.5 939,-439.5 939,-458.5"/>
<text text-anchor="middle" x="900" y="-446.5" font-family="Helvetica,sans-Serif" font-size="10.00">std::ostream</text>
</a>
</g>
</g>
<!-- Node27&#45;&gt;Node4 -->
<g id="edge20_Node000004_Node000027" class="edge">
<title>Node27&#45;&gt;Node4</title>
<g id="a_edge20_Node000004_Node000027"><a xlink:title=" ">
<path fill="none" stroke="#9a32cd" stroke-dasharray="5,2" d="M949.24,-440.69C978.65,-435.61 1017,-428.96 1051,-423 1063.49,-420.81 1077.08,-418.41 1089.41,-416.22"/>
<polygon fill="#9a32cd" stroke="#9a32cd" points="948.49,-437.26 939.23,-442.41 949.68,-444.16 948.49,-437.26"/>
</a>
</g>
<text text-anchor="middle" x="1011" y="-439" font-family="Helvetica,sans-Serif" font-size="10.00" fill="grey"> out</text>
</g>
<!-- Node28&#45;&gt;Node27 -->
<g id="edge21_Node000027_Node000028" class="edge">
<title>Node28&#45;&gt;Node27</title>
<g id="a_edge21_Node000027_Node000028"><a xlink:title=" ">
<path fill="none" stroke="#63b8ff" d="M717.14,-452.7C762.65,-451.78 822.4,-450.56 860.76,-449.78"/>
<polygon fill="#63b8ff" stroke="#63b8ff" points="717,-449.21 707.07,-452.91 717.14,-456.2 717,-449.21"/>
</a>
</g>
</g>
<!-- Node29 -->
<g id="Node000029" class="node">
<title>Node29</title>
<g id="a_Node000029"><a xlink:title=" ">
<polygon fill="white" stroke="#666666" points="932.5,-365.5 867.5,-365.5 867.5,-346.5 932.5,-346.5 932.5,-365.5"/>
<text text-anchor="middle" x="900" y="-353.5" font-family="Helvetica,sans-Serif" font-size="10.00">std::string</text>
</a>
</g>
</g>
<!-- Node29&#45;&gt;Node4 -->
<g id="edge23_Node000004_Node000029" class="edge">
<title>Node29&#45;&gt;Node4</title>
<g id="a_edge23_Node000004_Node000029"><a xlink:title=" ">
<path fill="none" stroke="#9a32cd" stroke-dasharray="5,2" d="M942.66,-365.64C984.28,-375.27 1047.84,-389.98 1089.16,-399.55"/>
<polygon fill="#9a32cd" stroke="#9a32cd" points="943.37,-362.21 932.84,-363.37 941.79,-369.03 943.37,-362.21"/>
</a>
</g>
<text text-anchor="middle" x="1011" y="-393" font-family="Helvetica,sans-Serif" font-size="10.00" fill="grey"> filename</text>
</g>
<!-- Node31 -->
<g id="Node000031" class="node">
<title>Node31</title>
<g id="a_Node000031"><a xlink:title=" ">
<polygon fill="white" stroke="#666666" points="1193,-317.5 1069,-317.5 1069,-298.5 1193,-298.5 1193,-317.5"/>
<text text-anchor="middle" x="1131" y="-305.5" font-family="Helvetica,sans-Serif" font-size="10.00">std::list&lt; std::string &gt;</text>
</a>
</g>
</g>
<!-- Node29&#45;&gt;Node31 -->
<g id="edge26_Node000031_Node000029" class="edge">
<title>Node29&#45;&gt;Node31</title>
<g id="a_edge26_Node000031_Node000029"><a xlink:title=" ">
<path fill="none" stroke="#9a32cd" stroke-dasharray="5,2" d="M942.83,-347.23C982.95,-338.82 1043.36,-326.16 1084.63,-317.51"/>
<polygon fill="#9a32cd" stroke="#9a32cd" points="941.91,-343.85 932.84,-349.33 943.35,-350.7 941.91,-343.85"/>
</a>
</g>
<text text-anchor="middle" x="1011" y="-343" font-family="Helvetica,sans-Serif" font-size="10.00" fill="grey"> elements</text>
</g>
<!-- Node30 -->
<g id="Node000030" class="node">
<title>Node30</title>
<g id="a_Node000030"><a xlink:title=" ">
<polygon fill="white" stroke="#666666" points="704.5,-371 600.5,-371 600.5,-341 704.5,-341 704.5,-371"/>
<text text-anchor="start" x="608.5" y="-359" font-family="Helvetica,sans-Serif" font-size="10.00">std::basic_string&lt;</text>
<text text-anchor="middle" x="652.5" y="-348" font-family="Helvetica,sans-Serif" font-size="10.00"> Char &gt;</text>
</a>
</g>
</g>
<!-- Node30&#45;&gt;Node29 -->
<g id="edge24_Node000029_Node000030" class="edge">
<title>Node30&#45;&gt;Node29</title>
<g id="a_edge24_Node000029_Node000030"><a xlink:title=" ">
<path fill="none" stroke="#63b8ff" d="M714.73,-356C763.2,-356 828.92,-356 867.36,-356"/>
<polygon fill="#63b8ff" stroke="#63b8ff" points="714.67,-352.5 704.67,-356 714.67,-359.5 714.67,-352.5"/>
</a>
</g>
</g>
<!-- Node31&#45;&gt;Node2 -->
<g id="edge25_Node000002_Node000031" class="edge">
<title>Node31&#45;&gt;Node2</title>
<g id="a_edge25_Node000002_Node000031"><a xlink:title=" ">
<path fill="none" stroke="#9a32cd" stroke-dasharray="5,2" d="M1203.22,-319.16C1252.68,-327.05 1310.65,-336.63 1316,-339 1344.18,-351.48 1371.05,-376.57 1384.52,-390.36"/>
<polygon fill="#9a32cd" stroke="#9a32cd" points="1203.57,-315.68 1193.14,-317.56 1202.47,-322.59 1203.57,-315.68"/>
</a>
</g>
<text text-anchor="middle" x="1263.5" y="-386" font-family="Helvetica,sans-Serif" font-size="10.00" fill="grey"> defines</text>
<text text-anchor="middle" x="1263.5" y="-375" font-family="Helvetica,sans-Serif" font-size="10.00" fill="grey">include_files</text>
<text text-anchor="middle" x="1263.5" y="-364" font-family="Helvetica,sans-Serif" font-size="10.00" fill="grey">include_paths</text>
<text text-anchor="middle" x="1263.5" y="-353" font-family="Helvetica,sans-Serif" font-size="10.00" fill="grey">preprocessor_options</text>
<text text-anchor="middle" x="1263.5" y="-342" font-family="Helvetica,sans-Serif" font-size="10.00" fill="grey">undefines</text>
</g>
<!-- Node34 -->
<g id="Node000034" class="node">
<title>Node34</title>
<g id="a_Node000034"><a xlink:href="structconfigt_1_1verilogt.html" target="_top" xlink:title=" ">
<polygon fill="white" stroke="#666666" points="1441,-264.5 1348,-264.5 1348,-245.5 1441,-245.5 1441,-264.5"/>
<text text-anchor="middle" x="1394.5" y="-252.5" font-family="Helvetica,sans-Serif" font-size="10.00">configt::verilogt</text>
</a>
</g>
</g>
<!-- Node31&#45;&gt;Node34 -->
<g id="edge31_Node000034_Node000031" class="edge">
<title>Node31&#45;&gt;Node34</title>
<g id="a_edge31_Node000034_Node000031"><a xlink:title=" ">
<path fill="none" stroke="#9a32cd" stroke-dasharray="5,2" d="M1150.17,-291.58C1165.24,-279.13 1187.88,-263 1211,-256 1256.04,-242.37 1310.23,-244.22 1347.81,-248.17"/>
<polygon fill="#9a32cd" stroke="#9a32cd" points="1147.53,-289.23 1142.22,-298.39 1152.09,-294.54 1147.53,-289.23"/>
</a>
</g>
<text text-anchor="middle" x="1263.5" y="-259" font-family="Helvetica,sans-Serif" font-size="10.00" fill="grey"> include_paths</text>
</g>
<!-- Node31&#45;&gt;Node35 -->
<g id="edge33_Node000035_Node000031" class="edge">
<title>Node31&#45;&gt;Node35</title>
<g id="a_edge33_Node000035_Node000031"><a xlink:title=" ">
<path fill="none" stroke="#9a32cd" stroke-dasharray="5,2" d="M1158.4,-293.88C1173.36,-286.67 1192.71,-278.67 1211,-275 1261.08,-264.96 1320.1,-274.19 1357.16,-282.48"/>
<polygon fill="#9a32cd" stroke="#9a32cd" points="1156.63,-290.85 1149.25,-298.44 1159.76,-297.11 1156.63,-290.85"/>
</a>
</g>
<text text-anchor="middle" x="1263.5" y="-278" font-family="Helvetica,sans-Serif" font-size="10.00" fill="grey"> classpath</text>
</g>
<!-- Node32&#45;&gt;Node31 -->
<g id="edge27_Node000031_Node000032" class="edge">
<title>Node32&#45;&gt;Node31</title>
<g id="a_edge27_Node000031_Node000032"><a xlink:title=" ">
<path fill="none" stroke="orange" stroke-dasharray="5,2" d="M320.3,-300.43C371.58,-303.65 453.84,-308 525,-308 525,-308 525,-308 901,-308 957.85,-308 1022.64,-308 1068.77,-308"/>
<polygon fill="orange" stroke="orange" points="320.35,-296.92 310.15,-299.78 319.91,-303.91 320.35,-296.92"/>
</a>
</g>
<text text-anchor="middle" x="652.5" y="-311" font-family="Helvetica,sans-Serif" font-size="10.00" fill="grey"> &lt; std::string &gt;</text>
</g>
<!-- Node33 -->
<g id="Node000033" class="node">
<title>Node33</title>
<g id="a_Node000033"><a xlink:href="structconfigt_1_1cppt.html" target="_top" xlink:title=" ">
<polygon fill="white" stroke="#666666" points="1433,-338.5 1356,-338.5 1356,-319.5 1433,-319.5 1433,-338.5"/>
<text text-anchor="middle" x="1394.5" y="-326.5" font-family="Helvetica,sans-Serif" font-size="10.00">configt::cppt</text>
</a>
</g>
</g>
<!-- Node33&#45;&gt;Node1 -->
<g id="edge29_Node000001_Node000033" class="edge">
<title>Node33&#45;&gt;Node1</title>
<g id="a_edge29_Node000001_Node000033"><a xlink:title=" ">
<path fill="none" stroke="#9a32cd" stroke-dasharray="5,2" d="M1443.37,-323.91C1471.24,-320.38 1506.91,-314.88 1538,-307 1543.85,-305.52 1550.04,-303.55 1555.81,-301.52"/>
<polygon fill="#9a32cd" stroke="#9a32cd" points="1442.59,-320.48 1433.09,-325.17 1443.45,-327.43 1442.59,-320.48"/>
</a>
</g>
<text text-anchor="middle" x="1505.5" y="-322" font-family="Helvetica,sans-Serif" font-size="10.00" fill="grey"> cpp</text>
</g>
<!-- Node34&#45;&gt;Node1 -->
<g id="edge30_Node000001_Node000034" class="edge">
<title>Node34&#45;&gt;Node1</title>
<g id="a_edge30_Node000001_Node000034"><a xlink:title=" ">
<path fill="none" stroke="#9a32cd" stroke-dasharray="5,2" d="M1451.42,-261.14C1477.9,-264.68 1509.83,-269.86 1538,-277 1543.85,-278.48 1550.04,-280.45 1555.81,-282.48"/>
<polygon fill="#9a32cd" stroke="#9a32cd" points="1451.55,-257.62 1441.19,-259.81 1450.66,-264.57 1451.55,-257.62"/>
</a>
</g>
<text text-anchor="middle" x="1505.5" y="-280" font-family="Helvetica,sans-Serif" font-size="10.00" fill="grey"> verilog</text>
</g>
<!-- Node35&#45;&gt;Node1 -->
<g id="edge32_Node000001_Node000035" class="edge">
<title>Node35&#45;&gt;Node1</title>
<g id="a_edge32_Node000001_Node000035"><a xlink:title=" ">
<path fill="none" stroke="#9a32cd" stroke-dasharray="5,2" d="M1444.9,-292C1480.8,-292 1527.83,-292 1555.87,-292"/>
<polygon fill="#9a32cd" stroke="#9a32cd" points="1444.63,-288.5 1434.63,-292 1444.63,-295.5 1444.63,-288.5"/>
</a>
</g>
<text text-anchor="middle" x="1505.5" y="-295" font-family="Helvetica,sans-Serif" font-size="10.00" fill="grey"> java</text>
</g>
<!-- Node36 -->
<g id="Node000036" class="node">
<title>Node36</title>
<g id="a_Node000036"><a xlink:href="structconfigt_1_1bv__encodingt.html" target="_top" xlink:title=" ">
<polygon fill="white" stroke="#666666" points="1455,-227.5 1334,-227.5 1334,-208.5 1455,-208.5 1455,-227.5"/>
<text text-anchor="middle" x="1394.5" y="-215.5" font-family="Helvetica,sans-Serif" font-size="10.00">configt::bv_encodingt</text>
</a>
</g>
</g>
<!-- Node36&#45;&gt;Node1 -->
<g id="edge35_Node000001_Node000036" class="edge">
<title>Node36&#45;&gt;Node1</title>
<g id="a_edge35_Node000001_Node000036"><a xlink:title=" ">
<path fill="none" stroke="#9a32cd" stroke-dasharray="5,2" d="M1464.87,-225.52C1489.08,-230.19 1515.74,-237.75 1538,-250 1552.64,-258.06 1565.57,-272.73 1573.09,-282.43"/>
<polygon fill="#9a32cd" stroke="#9a32cd" points="1465.48,-222.07 1455.02,-223.75 1464.24,-228.96 1465.48,-222.07"/>
</a>
</g>
<text text-anchor="middle" x="1505.5" y="-253" font-family="Helvetica,sans-Serif" font-size="10.00" fill="grey"> bv_encoding</text>
</g>
</g>
</svg>
