<?xml version="1.0" encoding="UTF-8" standalone="no"?>
<!DOCTYPE svg PUBLIC "-//W3C//DTD SVG 1.1//EN"
 "http://www.w3.org/Graphics/SVG/1.1/DTD/svg11.dtd">
<!-- Generated by graphviz version 2.43.0 (0)
 -->
<!-- Title: qbf_squolemt Pages: 1 -->
<svg width="100pt" height="302pt"
 viewBox="0.00 0.00 100.00 302.00" xmlns="http://www.w3.org/2000/svg" xmlns:xlink="http://www.w3.org/1999/xlink">
<g id="graph0" class="graph" transform="scale(1 1) rotate(0) translate(4 298)">
<title>qbf_squolemt</title>
<!-- Node1 -->
<g id="Node000001" class="node">
<title>Node1</title>
<g id="a_Node000001"><a xlink:title=" ">
<polygon fill="#999999" stroke="#666666" points="87.5,-19 4.5,-19 4.5,0 87.5,0 87.5,-19"/>
<text text-anchor="middle" x="46" y="-7" font-family="Helvetica,sans-Serif" font-size="10.00">qbf_squolemt</text>
</a>
</g>
</g>
<!-- Node2 -->
<g id="Node000002" class="node">
<title>Node2</title>
<g id="a_Node000002"><a xlink:href="classqdimacs__cnft.html" target="_top" xlink:title=" ">
<polygon fill="white" stroke="#666666" points="86.5,-74 5.5,-74 5.5,-55 86.5,-55 86.5,-74"/>
<text text-anchor="middle" x="46" y="-62" font-family="Helvetica,sans-Serif" font-size="10.00">qdimacs_cnft</text>
</a>
</g>
</g>
<!-- Node2&#45;&gt;Node1 -->
<g id="edge1_Node000001_Node000002" class="edge">
<title>Node2&#45;&gt;Node1</title>
<g id="a_edge1_Node000001_Node000002"><a xlink:title=" ">
<path fill="none" stroke="#63b8ff" d="M46,-44.66C46,-35.93 46,-25.99 46,-19.09"/>
<polygon fill="#63b8ff" stroke="#63b8ff" points="42.5,-44.75 46,-54.75 49.5,-44.75 42.5,-44.75"/>
</a>
</g>
</g>
<!-- Node3 -->
<g id="Node000003" class="node">
<title>Node3</title>
<g id="a_Node000003"><a xlink:href="classdimacs__cnft.html" target="_top" xlink:title=" ">
<polygon fill="white" stroke="#666666" points="83.5,-129 8.5,-129 8.5,-110 83.5,-110 83.5,-129"/>
<text text-anchor="middle" x="46" y="-117" font-family="Helvetica,sans-Serif" font-size="10.00">dimacs_cnft</text>
</a>
</g>
</g>
<!-- Node3&#45;&gt;Node2 -->
<g id="edge2_Node000002_Node000003" class="edge">
<title>Node3&#45;&gt;Node2</title>
<g id="a_edge2_Node000002_Node000003"><a xlink:title=" ">
<path fill="none" stroke="#63b8ff" d="M46,-99.66C46,-90.93 46,-80.99 46,-74.09"/>
<polygon fill="#63b8ff" stroke="#63b8ff" points="42.5,-99.75 46,-109.75 49.5,-99.75 42.5,-99.75"/>
</a>
</g>
</g>
<!-- Node4 -->
<g id="Node000004" class="node">
<title>Node4</title>
<g id="a_Node000004"><a xlink:href="classcnf__clause__listt.html" target="_top" xlink:title=" ">
<polygon fill="white" stroke="#666666" points="92,-184 0,-184 0,-165 92,-165 92,-184"/>
<text text-anchor="middle" x="46" y="-172" font-family="Helvetica,sans-Serif" font-size="10.00">cnf_clause_listt</text>
</a>
</g>
</g>
<!-- Node4&#45;&gt;Node3 -->
<g id="edge3_Node000003_Node000004" class="edge">
<title>Node4&#45;&gt;Node3</title>
<g id="a_edge3_Node000003_Node000004"><a xlink:title=" ">
<path fill="none" stroke="#63b8ff" d="M46,-154.66C46,-145.93 46,-135.99 46,-129.09"/>
<polygon fill="#63b8ff" stroke="#63b8ff" points="42.5,-154.75 46,-164.75 49.5,-154.75 42.5,-154.75"/>
</a>
</g>
</g>
<!-- Node5 -->
<g id="Node000005" class="node">
<title>Node5</title>
<g id="a_Node000005"><a xlink:href="classcnft.html" target="_top" xlink:title=" ">
<polygon fill="white" stroke="#666666" points="63.5,-239 28.5,-239 28.5,-220 63.5,-220 63.5,-239"/>
<text text-anchor="middle" x="46" y="-227" font-family="Helvetica,sans-Serif" font-size="10.00">cnft</text>
</a>
</g>
</g>
<!-- Node5&#45;&gt;Node4 -->
<g id="edge4_Node000004_Node000005" class="edge">
<title>Node5&#45;&gt;Node4</title>
<g id="a_edge4_Node000004_Node000005"><a xlink:title=" ">
<path fill="none" stroke="#63b8ff" d="M46,-209.66C46,-200.93 46,-190.99 46,-184.09"/>
<polygon fill="#63b8ff" stroke="#63b8ff" points="42.5,-209.75 46,-219.75 49.5,-209.75 42.5,-209.75"/>
</a>
</g>
</g>
<!-- Node6 -->
<g id="Node000006" class="node">
<title>Node6</title>
<g id="a_Node000006"><a xlink:href="classpropt.html" target="_top" xlink:title="TO_BE_DOCUMENTED.">
<polygon fill="white" stroke="#666666" points="67,-294 25,-294 25,-275 67,-275 67,-294"/>
<text text-anchor="middle" x="46" y="-282" font-family="Helvetica,sans-Serif" font-size="10.00">propt</text>
</a>
</g>
</g>
<!-- Node6&#45;&gt;Node5 -->
<g id="edge5_Node000005_Node000006" class="edge">
<title>Node6&#45;&gt;Node5</title>
<g id="a_edge5_Node000005_Node000006"><a xlink:title=" ">
<path fill="none" stroke="#63b8ff" d="M46,-264.66C46,-255.93 46,-245.99 46,-239.09"/>
<polygon fill="#63b8ff" stroke="#63b8ff" points="42.5,-264.75 46,-274.75 49.5,-264.75 42.5,-264.75"/>
</a>
</g>
</g>
</g>
</svg>
