<?xml version="1.0" encoding="UTF-8" standalone="no"?>
<!DOCTYPE svg PUBLIC "-//W3C//DTD SVG 1.1//EN"
 "http://www.w3.org/Graphics/SVG/1.1/DTD/svg11.dtd">
<!-- Generated by graphviz version 2.43.0 (0)
 -->
<!-- Title: rw_range_sett Pages: 1 -->
<svg width="1210pt" height="286pt"
 viewBox="0.00 0.00 1210.00 286.00" xmlns="http://www.w3.org/2000/svg" xmlns:xlink="http://www.w3.org/1999/xlink">
<g id="graph0" class="graph" transform="scale(1 1) rotate(0) translate(4 282)">
<title>rw_range_sett</title>
<!-- Node1 -->
<g id="Node000001" class="node">
<title>Node1</title>
<g id="a_Node000001"><a xlink:title=" ">
<polygon fill="#999999" stroke="#666666" points="1202,-173.5 1116,-173.5 1116,-154.5 1202,-154.5 1202,-173.5"/>
<text text-anchor="middle" x="1159" y="-161.5" font-family="Helvetica,sans-Serif" font-size="10.00">rw_range_sett</text>
</a>
</g>
</g>
<!-- Node2 -->
<g id="Node000002" class="node">
<title>Node2</title>
<g id="a_Node000002"><a xlink:href="classnamespacet.html" target="_top" xlink:title="A namespacet is essentially one or two symbol tables bound together, to allow for symbol lookups in t...">
<polygon fill="white" stroke="#666666" points="1058.5,-116.5 981.5,-116.5 981.5,-97.5 1058.5,-97.5 1058.5,-116.5"/>
<text text-anchor="middle" x="1020" y="-104.5" font-family="Helvetica,sans-Serif" font-size="10.00">namespacet</text>
</a>
</g>
</g>
<!-- Node2&#45;&gt;Node1 -->
<g id="edge1_Node000001_Node000002" class="edge">
<title>Node2&#45;&gt;Node1</title>
<g id="a_edge1_Node000001_Node000002"><a xlink:title=" ">
<path fill="none" stroke="#9a32cd" stroke-dasharray="5,2" d="M1053.43,-120.47C1067.18,-126.18 1083.37,-132.91 1098,-139 1110.29,-144.12 1124,-149.83 1135.21,-154.5"/>
<polygon fill="#9a32cd" stroke="#9a32cd" points="1054.49,-117.12 1043.91,-116.52 1051.81,-123.58 1054.49,-117.12"/>
</a>
</g>
<text text-anchor="middle" x="1090.5" y="-142" font-family="Helvetica,sans-Serif" font-size="10.00" fill="grey"> ns</text>
</g>
<!-- Node3 -->
<g id="Node000003" class="node">
<title>Node3</title>
<g id="a_Node000003"><a xlink:href="classnamespace__baset.html" target="_top" xlink:title="Basic interface for a namespace.">
<polygon fill="white" stroke="#666666" points="819,-116.5 714,-116.5 714,-97.5 819,-97.5 819,-116.5"/>
<text text-anchor="middle" x="766.5" y="-104.5" font-family="Helvetica,sans-Serif" font-size="10.00">namespace_baset</text>
</a>
</g>
</g>
<!-- Node3&#45;&gt;Node2 -->
<g id="edge2_Node000002_Node000003" class="edge">
<title>Node3&#45;&gt;Node2</title>
<g id="a_edge2_Node000002_Node000003"><a xlink:title=" ">
<path fill="none" stroke="#63b8ff" d="M829.21,-107C876.87,-107 941.28,-107 981.47,-107"/>
<polygon fill="#63b8ff" stroke="#63b8ff" points="829,-103.5 819,-107 829,-110.5 829,-103.5"/>
</a>
</g>
</g>
<!-- Node4 -->
<g id="Node000004" class="node">
<title>Node4</title>
<g id="a_Node000004"><a xlink:href="classsymbol__table__baset.html" target="_top" xlink:title="The symbol table base class interface.">
<polygon fill="white" stroke="#666666" points="824,-70.5 709,-70.5 709,-51.5 824,-51.5 824,-70.5"/>
<text text-anchor="middle" x="766.5" y="-58.5" font-family="Helvetica,sans-Serif" font-size="10.00">symbol_table_baset</text>
</a>
</g>
</g>
<!-- Node4&#45;&gt;Node2 -->
<g id="edge3_Node000002_Node000004" class="edge">
<title>Node4&#45;&gt;Node2</title>
<g id="a_edge3_Node000002_Node000004"><a xlink:title=" ">
<path fill="none" stroke="#9a32cd" stroke-dasharray="5,2" d="M834.32,-63.29C871,-65.73 917.02,-70.74 957,-81 972.04,-84.86 988.18,-91.72 1000.23,-97.43"/>
<polygon fill="#9a32cd" stroke="#9a32cd" points="834.43,-59.79 824.23,-62.67 834,-66.78 834.43,-59.79"/>
</a>
</g>
<text text-anchor="middle" x="903.5" y="-95" font-family="Helvetica,sans-Serif" font-size="10.00" fill="grey"> symbol_table1</text>
<text text-anchor="middle" x="903.5" y="-84" font-family="Helvetica,sans-Serif" font-size="10.00" fill="grey">symbol_table2</text>
</g>
<!-- Node5 -->
<g id="Node000005" class="node">
<title>Node5</title>
<g id="a_Node000005"><a xlink:title=" ">
<polygon fill="white" stroke="#666666" points="234,-30 120,-30 120,0 234,0 234,-30"/>
<text text-anchor="start" x="128" y="-18" font-family="Helvetica,sans-Serif" font-size="10.00">std::unordered_map</text>
<text text-anchor="middle" x="177" y="-7" font-family="Helvetica,sans-Serif" font-size="10.00">&lt; K, T &gt;</text>
</a>
</g>
</g>
<!-- Node5&#45;&gt;Node4 -->
<g id="edge4_Node000004_Node000005" class="edge">
<title>Node5&#45;&gt;Node4</title>
<g id="a_edge4_Node000004_Node000005"><a xlink:title=" ">
<path fill="none" stroke="#9a32cd" stroke-dasharray="5,2" d="M244.72,-14.13C320.92,-13.78 449.25,-15.17 559,-26 614.91,-31.52 678.55,-43.12 720.22,-51.46"/>
<polygon fill="#9a32cd" stroke="#9a32cd" points="244.3,-10.63 234.32,-14.19 244.34,-17.63 244.3,-10.63"/>
</a>
</g>
<text text-anchor="middle" x="481.5" y="-29" font-family="Helvetica,sans-Serif" font-size="10.00" fill="grey"> symbols</text>
</g>
<!-- Node6 -->
<g id="Node000006" class="node">
<title>Node6</title>
<g id="a_Node000006"><a xlink:title=" ">
<polygon fill="white" stroke="#666666" points="29,-64.5 0,-64.5 0,-45.5 29,-45.5 29,-64.5"/>
<text text-anchor="middle" x="14.5" y="-52.5" font-family="Helvetica,sans-Serif" font-size="10.00">K</text>
</a>
</g>
</g>
<!-- Node6&#45;&gt;Node5 -->
<g id="edge5_Node000005_Node000006" class="edge">
<title>Node6&#45;&gt;Node5</title>
<g id="a_edge5_Node000005_Node000006"><a xlink:title=" ">
<path fill="none" stroke="#9a32cd" stroke-dasharray="5,2" d="M38.38,-44.14C41.25,-42.98 44.17,-41.9 47,-41 70.4,-33.54 96.89,-27.76 119.76,-23.57"/>
<polygon fill="#9a32cd" stroke="#9a32cd" points="36.82,-41 29.05,-48.2 39.61,-47.42 36.82,-41"/>
</a>
</g>
<text text-anchor="middle" x="71.5" y="-44" font-family="Helvetica,sans-Serif" font-size="10.00" fill="grey"> keys</text>
</g>
<!-- Node10 -->
<g id="Node000010" class="node">
<title>Node10</title>
<g id="a_Node000010"><a xlink:title=" ">
<polygon fill="white" stroke="#666666" points="240,-67.5 114,-67.5 114,-48.5 240,-48.5 240,-67.5"/>
<text text-anchor="middle" x="177" y="-55.5" font-family="Helvetica,sans-Serif" font-size="10.00">std::multimap&lt; K, T &gt;</text>
</a>
</g>
</g>
<!-- Node6&#45;&gt;Node10 -->
<g id="edge10_Node000010_Node000006" class="edge">
<title>Node6&#45;&gt;Node10</title>
<g id="a_edge10_Node000010_Node000006"><a xlink:title=" ">
<path fill="none" stroke="#9a32cd" stroke-dasharray="5,2" d="M39.28,-55.22C55.31,-55.38 76.93,-55.64 96,-56 101.83,-56.11 107.91,-56.24 113.98,-56.37"/>
<polygon fill="#9a32cd" stroke="#9a32cd" points="39.21,-51.72 29.17,-55.12 39.14,-58.72 39.21,-51.72"/>
</a>
</g>
<text text-anchor="middle" x="71.5" y="-59" font-family="Helvetica,sans-Serif" font-size="10.00" fill="grey"> keys</text>
</g>
<!-- Node18 -->
<g id="Node000018" class="node">
<title>Node18</title>
<g id="a_Node000018"><a xlink:title=" ">
<polygon fill="white" stroke="#666666" points="227.5,-166.5 126.5,-166.5 126.5,-147.5 227.5,-147.5 227.5,-166.5"/>
<text text-anchor="middle" x="177" y="-154.5" font-family="Helvetica,sans-Serif" font-size="10.00">std::map&lt; K, T &gt;</text>
</a>
</g>
</g>
<!-- Node6&#45;&gt;Node18 -->
<g id="edge23_Node000018_Node000006" class="edge">
<title>Node6&#45;&gt;Node18</title>
<g id="a_edge23_Node000018_Node000006"><a xlink:title=" ">
<path fill="none" stroke="#9a32cd" stroke-dasharray="5,2" d="M24.91,-73.5C30.35,-82.73 37.91,-93.5 47,-101 51.37,-104.6 117.14,-132.39 153.03,-147.42"/>
<polygon fill="#9a32cd" stroke="#9a32cd" points="27.92,-71.72 20.04,-64.64 21.79,-75.09 27.92,-71.72"/>
</a>
</g>
<text text-anchor="middle" x="71.5" y="-125" font-family="Helvetica,sans-Serif" font-size="10.00" fill="grey"> keys</text>
</g>
<!-- Node7 -->
<g id="Node000007" class="node">
<title>Node7</title>
<g id="a_Node000007"><a xlink:title=" ">
<polygon fill="white" stroke="#666666" points="29,-200.5 0,-200.5 0,-181.5 29,-181.5 29,-200.5"/>
<text text-anchor="middle" x="14.5" y="-188.5" font-family="Helvetica,sans-Serif" font-size="10.00">T</text>
</a>
</g>
</g>
<!-- Node7&#45;&gt;Node5 -->
<g id="edge6_Node000005_Node000007" class="edge">
<title>Node7&#45;&gt;Node5</title>
<g id="a_edge6_Node000005_Node000007"><a xlink:title=" ">
<path fill="none" stroke="#9a32cd" stroke-dasharray="5,2" d="M16.65,-171.36C18.97,-148.67 25.95,-111.45 47,-88 62.82,-70.37 77.91,-82.3 96,-67 107.29,-57.44 102.54,-48.35 114,-39 118.2,-35.57 122.95,-32.59 127.91,-30.01"/>
<polygon fill="#9a32cd" stroke="#9a32cd" points="13.15,-171.23 15.83,-181.48 20.12,-171.79 13.15,-171.23"/>
</a>
</g>
<text text-anchor="middle" x="71.5" y="-91" font-family="Helvetica,sans-Serif" font-size="10.00" fill="grey"> elements</text>
</g>
<!-- Node7&#45;&gt;Node10 -->
<g id="edge11_Node000010_Node000007" class="edge">
<title>Node7&#45;&gt;Node10</title>
<g id="a_edge11_Node000010_Node000007"><a xlink:title=" ">
<path fill="none" stroke="#9a32cd" stroke-dasharray="5,2" d="M30.36,-173.79C35.33,-168.64 41.11,-163.25 47,-159 66.67,-144.82 79.64,-152.9 96,-135 111.09,-118.49 98.87,-104.47 114,-88 122.33,-78.93 134,-72.3 144.96,-67.62"/>
<polygon fill="#9a32cd" stroke="#9a32cd" points="27.51,-171.73 23.33,-181.46 32.67,-176.45 27.51,-171.73"/>
</a>
</g>
<text text-anchor="middle" x="71.5" y="-162" font-family="Helvetica,sans-Serif" font-size="10.00" fill="grey"> elements</text>
</g>
<!-- Node13 -->
<g id="Node000013" class="node">
<title>Node13</title>
<g id="a_Node000013"><a xlink:title=" ">
<polygon fill="white" stroke="#666666" points="225.5,-277.5 128.5,-277.5 128.5,-258.5 225.5,-258.5 225.5,-277.5"/>
<text text-anchor="middle" x="177" y="-265.5" font-family="Helvetica,sans-Serif" font-size="10.00">std::vector&lt; T &gt;</text>
</a>
</g>
</g>
<!-- Node7&#45;&gt;Node13 -->
<g id="edge15_Node000013_Node000007" class="edge">
<title>Node7&#45;&gt;Node13</title>
<g id="a_edge15_Node000013_Node000007"><a xlink:title=" ">
<path fill="none" stroke="#9a32cd" stroke-dasharray="5,2" d="M28.29,-208.51C33.53,-214.71 40,-221.3 47,-226 71.45,-242.4 102.78,-252.8 128.44,-259.15"/>
<polygon fill="#9a32cd" stroke="#9a32cd" points="30.93,-206.2 21.99,-200.52 25.43,-210.54 30.93,-206.2"/>
</a>
</g>
<text text-anchor="middle" x="71.5" y="-251" font-family="Helvetica,sans-Serif" font-size="10.00" fill="grey"> elements</text>
</g>
<!-- Node17 -->
<g id="Node000017" class="node">
<title>Node17</title>
<g id="a_Node000017"><a xlink:title=" ">
<polygon fill="white" stroke="#666666" points="236,-240.5 118,-240.5 118,-221.5 236,-221.5 236,-240.5"/>
<text text-anchor="middle" x="177" y="-228.5" font-family="Helvetica,sans-Serif" font-size="10.00">std::unique_ptr&lt; T &gt;</text>
</a>
</g>
</g>
<!-- Node7&#45;&gt;Node17 -->
<g id="edge21_Node000017_Node000007" class="edge">
<title>Node7&#45;&gt;Node17</title>
<g id="a_edge21_Node000017_Node000007"><a xlink:title=" ">
<path fill="none" stroke="#9a32cd" stroke-dasharray="5,2" d="M38.9,-196.83C64.84,-203.3 107.05,-213.82 137.79,-221.48"/>
<polygon fill="#9a32cd" stroke="#9a32cd" points="39.73,-193.43 29.18,-194.41 38.04,-200.22 39.73,-193.43"/>
</a>
</g>
<text text-anchor="middle" x="71.5" y="-214" font-family="Helvetica,sans-Serif" font-size="10.00" fill="grey"> ptr</text>
</g>
<!-- Node7&#45;&gt;Node18 -->
<g id="edge24_Node000018_Node000007" class="edge">
<title>Node7&#45;&gt;Node18</title>
<g id="a_edge24_Node000018_Node000007"><a xlink:title=" ">
<path fill="none" stroke="#9a32cd" stroke-dasharray="5,2" d="M39.19,-185.98C63.26,-180.88 101.14,-172.86 130.94,-166.55"/>
<polygon fill="#9a32cd" stroke="#9a32cd" points="38.24,-182.6 29.18,-188.1 39.69,-189.45 38.24,-182.6"/>
</a>
</g>
<text text-anchor="middle" x="71.5" y="-186" font-family="Helvetica,sans-Serif" font-size="10.00" fill="grey"> elements</text>
</g>
<!-- Node8 -->
<g id="Node000008" class="node">
<title>Node8</title>
<g id="a_Node000008"><a xlink:title=" ">
<polygon fill="white" stroke="#666666" points="539,-76 424,-76 424,-46 539,-46 539,-76"/>
<text text-anchor="start" x="432" y="-64" font-family="Helvetica,sans-Serif" font-size="10.00">std::multimap&lt; irep</text>
<text text-anchor="middle" x="481.5" y="-53" font-family="Helvetica,sans-Serif" font-size="10.00">_idt, irep_idt &gt;</text>
</a>
</g>
</g>
<!-- Node8&#45;&gt;Node4 -->
<g id="edge7_Node000004_Node000008" class="edge">
<title>Node8&#45;&gt;Node4</title>
<g id="a_edge7_Node000004_Node000008"><a xlink:title=" ">
<path fill="none" stroke="#9a32cd" stroke-dasharray="5,2" d="M549.16,-61C597.61,-61 662.49,-61 708.52,-61"/>
<polygon fill="#9a32cd" stroke="#9a32cd" points="549.09,-57.5 539.09,-61 549.09,-64.5 549.09,-57.5"/>
</a>
</g>
<text text-anchor="middle" x="630" y="-75" font-family="Helvetica,sans-Serif" font-size="10.00" fill="grey"> symbol_base_map</text>
<text text-anchor="middle" x="630" y="-64" font-family="Helvetica,sans-Serif" font-size="10.00" fill="grey">symbol_module_map</text>
</g>
<!-- Node9 -->
<g id="Node000009" class="node">
<title>Node9</title>
<g id="a_Node000009"><a xlink:href="classdstringt.html" target="_top" xlink:title="dstringt has one field, an unsigned integer no which is an index into a static table of strings.">
<polygon fill="white" stroke="#666666" points="204,-116.5 150,-116.5 150,-97.5 204,-97.5 204,-116.5"/>
<text text-anchor="middle" x="177" y="-104.5" font-family="Helvetica,sans-Serif" font-size="10.00">dstringt</text>
</a>
</g>
</g>
<!-- Node9&#45;&gt;Node8 -->
<g id="edge8_Node000008_Node000009" class="edge">
<title>Node9&#45;&gt;Node8</title>
<g id="a_edge8_Node000008_Node000009"><a xlink:title=" ">
<path fill="none" stroke="#9a32cd" stroke-dasharray="5,2" d="M212.19,-94.02C226.2,-89.19 242.69,-84.13 258,-81 313.66,-69.6 378.49,-64.7 423.75,-62.59"/>
<polygon fill="#9a32cd" stroke="#9a32cd" points="210.74,-90.82 202.48,-97.46 213.07,-97.42 210.74,-90.82"/>
</a>
</g>
<text text-anchor="middle" x="322" y="-95" font-family="Helvetica,sans-Serif" font-size="10.00" fill="grey"> elements</text>
<text text-anchor="middle" x="322" y="-84" font-family="Helvetica,sans-Serif" font-size="10.00" fill="grey">keys</text>
</g>
<!-- Node14 -->
<g id="Node000014" class="node">
<title>Node14</title>
<g id="a_Node000014"><a xlink:title=" ">
<polygon fill="white" stroke="#666666" points="832,-184.5 701,-184.5 701,-143.5 832,-143.5 832,-184.5"/>
<text text-anchor="start" x="709" y="-172.5" font-family="Helvetica,sans-Serif" font-size="10.00">std::map&lt; irep_idt,</text>
<text text-anchor="start" x="709" y="-161.5" font-family="Helvetica,sans-Serif" font-size="10.00"> std::unique_ptr&lt; range</text>
<text text-anchor="middle" x="766.5" y="-150.5" font-family="Helvetica,sans-Serif" font-size="10.00">_domain_baset &gt; &gt;</text>
</a>
</g>
</g>
<!-- Node9&#45;&gt;Node14 -->
<g id="edge17_Node000014_Node000009" class="edge">
<title>Node9&#45;&gt;Node14</title>
<g id="a_edge17_Node000014_Node000009"><a xlink:title=" ">
<path fill="none" stroke="#9a32cd" stroke-dasharray="5,2" d="M214.16,-110.51C310.99,-119.9 577.14,-145.73 700.79,-157.72"/>
<polygon fill="#9a32cd" stroke="#9a32cd" points="214.29,-107 204,-109.52 213.62,-113.97 214.29,-107"/>
</a>
</g>
<text text-anchor="middle" x="481.5" y="-146" font-family="Helvetica,sans-Serif" font-size="10.00" fill="grey"> keys</text>
</g>
<!-- Node10&#45;&gt;Node8 -->
<g id="edge9_Node000008_Node000010" class="edge">
<title>Node10&#45;&gt;Node8</title>
<g id="a_edge9_Node000008_Node000010"><a xlink:title=" ">
<path fill="none" stroke="orange" stroke-dasharray="5,2" d="M250.37,-47.6C252.94,-47.37 255.49,-47.17 258,-47 314.76,-43.12 329.26,-42.82 386,-47 398.32,-47.91 411.48,-49.47 423.93,-51.24"/>
<polygon fill="orange" stroke="orange" points="249.97,-44.12 240.37,-48.59 250.66,-51.09 249.97,-44.12"/>
</a>
</g>
<text text-anchor="middle" x="322" y="-50" font-family="Helvetica,sans-Serif" font-size="10.00" fill="grey"> &lt; irep_idt, irep_idt &gt;</text>
</g>
<!-- Node11 -->
<g id="Node000011" class="node">
<title>Node11</title>
<g id="a_Node000011"><a xlink:href="classmessage__handlert.html" target="_top" xlink:title=" ">
<polygon fill="white" stroke="#666666" points="957,-255.5 850,-255.5 850,-236.5 957,-236.5 957,-255.5"/>
<text text-anchor="middle" x="903.5" y="-243.5" font-family="Helvetica,sans-Serif" font-size="10.00">message_handlert</text>
</a>
</g>
</g>
<!-- Node11&#45;&gt;Node1 -->
<g id="edge12_Node000001_Node000011" class="edge">
<title>Node11&#45;&gt;Node1</title>
<g id="a_edge12_Node000001_Node000011"><a xlink:title=" ">
<path fill="none" stroke="#9a32cd" stroke-dasharray="5,2" d="M943.77,-233.3C994.86,-216.77 1082.93,-188.28 1128.61,-173.51"/>
<polygon fill="#9a32cd" stroke="#9a32cd" points="942.51,-230.03 934.08,-236.43 944.67,-236.69 942.51,-230.03"/>
</a>
</g>
<text text-anchor="middle" x="1020" y="-225" font-family="Helvetica,sans-Serif" font-size="10.00" fill="grey"> message_handler</text>
</g>
<!-- Node12 -->
<g id="Node000012" class="node">
<title>Node12</title>
<g id="a_Node000012"><a xlink:title=" ">
<polygon fill="white" stroke="#666666" points="551.5,-274.5 411.5,-274.5 411.5,-255.5 551.5,-255.5 551.5,-274.5"/>
<text text-anchor="middle" x="481.5" y="-262.5" font-family="Helvetica,sans-Serif" font-size="10.00">std::vector&lt; std::size_t &gt;</text>
</a>
</g>
</g>
<!-- Node12&#45;&gt;Node11 -->
<g id="edge13_Node000011_Node000012" class="edge">
<title>Node12&#45;&gt;Node11</title>
<g id="a_edge13_Node000011_Node000012"><a xlink:title=" ">
<path fill="none" stroke="#9a32cd" stroke-dasharray="5,2" d="M561.9,-261.41C646.24,-257.59 777.18,-251.67 849.69,-248.39"/>
<polygon fill="#9a32cd" stroke="#9a32cd" points="561.69,-257.91 551.85,-261.86 562,-264.91 561.69,-257.91"/>
</a>
</g>
<text text-anchor="middle" x="630" y="-263" font-family="Helvetica,sans-Serif" font-size="10.00" fill="grey"> message_count</text>
</g>
<!-- Node13&#45;&gt;Node12 -->
<g id="edge14_Node000012_Node000013" class="edge">
<title>Node13&#45;&gt;Node12</title>
<g id="a_edge14_Node000012_Node000013"><a xlink:title=" ">
<path fill="none" stroke="orange" stroke-dasharray="5,2" d="M235.91,-267.43C285.9,-266.93 358.22,-266.21 411.26,-265.69"/>
<polygon fill="orange" stroke="orange" points="235.56,-263.93 225.6,-267.53 235.63,-270.93 235.56,-263.93"/>
</a>
</g>
<text text-anchor="middle" x="322" y="-270" font-family="Helvetica,sans-Serif" font-size="10.00" fill="grey"> &lt; std::size_t &gt;</text>
</g>
<!-- Node14&#45;&gt;Node1 -->
<g id="edge16_Node000001_Node000014" class="edge">
<title>Node14&#45;&gt;Node1</title>
<g id="a_edge16_Node000001_Node000014"><a xlink:title=" ">
<path fill="none" stroke="#9a32cd" stroke-dasharray="5,2" d="M842.59,-164C923.83,-164 1050.48,-164 1115.83,-164"/>
<polygon fill="#9a32cd" stroke="#9a32cd" points="842.42,-160.5 832.42,-164 842.42,-167.5 842.42,-160.5"/>
</a>
</g>
<text text-anchor="middle" x="1020" y="-178" font-family="Helvetica,sans-Serif" font-size="10.00" fill="grey"> r_range_set</text>
<text text-anchor="middle" x="1020" y="-167" font-family="Helvetica,sans-Serif" font-size="10.00" fill="grey">w_range_set</text>
</g>
<!-- Node15 -->
<g id="Node000015" class="node">
<title>Node15</title>
<g id="a_Node000015"><a xlink:title=" ">
<polygon fill="white" stroke="#666666" points="545.5,-234 417.5,-234 417.5,-204 545.5,-204 545.5,-234"/>
<text text-anchor="start" x="425.5" y="-222" font-family="Helvetica,sans-Serif" font-size="10.00">std::unique_ptr&lt; range</text>
<text text-anchor="middle" x="481.5" y="-211" font-family="Helvetica,sans-Serif" font-size="10.00">_domain_baset &gt;</text>
</a>
</g>
</g>
<!-- Node15&#45;&gt;Node14 -->
<g id="edge18_Node000014_Node000015" class="edge">
<title>Node15&#45;&gt;Node14</title>
<g id="a_edge18_Node000014_Node000015"><a xlink:title=" ">
<path fill="none" stroke="#9a32cd" stroke-dasharray="5,2" d="M555.61,-204.79C600.44,-196.08 657.33,-185.02 700.57,-176.62"/>
<polygon fill="#9a32cd" stroke="#9a32cd" points="554.81,-201.38 545.66,-206.73 556.14,-208.25 554.81,-201.38"/>
</a>
</g>
<text text-anchor="middle" x="630" y="-202" font-family="Helvetica,sans-Serif" font-size="10.00" fill="grey"> elements</text>
</g>
<!-- Node16 -->
<g id="Node000016" class="node">
<title>Node16</title>
<g id="a_Node000016"><a xlink:href="classrange__domain__baset.html" target="_top" xlink:title=" ">
<polygon fill="white" stroke="#666666" points="236.5,-203.5 117.5,-203.5 117.5,-184.5 236.5,-184.5 236.5,-203.5"/>
<text text-anchor="middle" x="177" y="-191.5" font-family="Helvetica,sans-Serif" font-size="10.00">range_domain_baset</text>
</a>
</g>
</g>
<!-- Node16&#45;&gt;Node15 -->
<g id="edge19_Node000015_Node000016" class="edge">
<title>Node16&#45;&gt;Node15</title>
<g id="a_edge19_Node000015_Node000016"><a xlink:title=" ">
<path fill="none" stroke="#9a32cd" stroke-dasharray="5,2" d="M246.85,-197.2C287.4,-199.36 339.68,-202.62 386,-207 396.13,-207.96 406.84,-209.15 417.28,-210.4"/>
<polygon fill="#9a32cd" stroke="#9a32cd" points="246.97,-193.7 236.8,-196.67 246.61,-200.69 246.97,-193.7"/>
</a>
</g>
<text text-anchor="middle" x="322" y="-210" font-family="Helvetica,sans-Serif" font-size="10.00" fill="grey"> ptr</text>
</g>
<!-- Node17&#45;&gt;Node15 -->
<g id="edge20_Node000015_Node000017" class="edge">
<title>Node17&#45;&gt;Node15</title>
<g id="a_edge20_Node000015_Node000017"><a xlink:title=" ">
<path fill="none" stroke="orange" stroke-dasharray="5,2" d="M246.33,-228.29C297.65,-226.25 367.39,-223.49 417.4,-221.5"/>
<polygon fill="orange" stroke="orange" points="246.18,-224.79 236.33,-228.69 246.46,-231.79 246.18,-224.79"/>
</a>
</g>
<text text-anchor="middle" x="322" y="-230" font-family="Helvetica,sans-Serif" font-size="10.00" fill="grey"> &lt; range_domain_baset &gt;</text>
</g>
<!-- Node18&#45;&gt;Node14 -->
<g id="edge22_Node000014_Node000018" class="edge">
<title>Node18&#45;&gt;Node14</title>
<g id="a_edge22_Node000014_Node000018"><a xlink:title=" ">
<path fill="none" stroke="orange" stroke-dasharray="5,2" d="M237.6,-157.71C348.63,-159.03 586.21,-161.86 700.91,-163.23"/>
<polygon fill="orange" stroke="orange" points="237.62,-154.21 227.58,-157.59 237.54,-161.21 237.62,-154.21"/>
</a>
</g>
<text text-anchor="start" x="404" y="-175" font-family="Helvetica,sans-Serif" font-size="10.00" fill="grey"> &lt; irep_idt, std::unique</text>
<text text-anchor="middle" x="481.5" y="-164" font-family="Helvetica,sans-Serif" font-size="10.00" fill="grey">_ptr&lt; range_domain_baset &gt; &gt;</text>
</g>
</g>
</svg>
