<?xml version="1.0" encoding="UTF-8" standalone="no"?>
<!DOCTYPE svg PUBLIC "-//W3C//DTD SVG 1.1//EN"
 "http://www.w3.org/Graphics/SVG/1.1/DTD/svg11.dtd">
<!-- Generated by graphviz version 2.43.0 (0)
 -->
<!-- Title: memory_snapshot_harness_generatort Pages: 1 -->
<svg width="1448pt" height="608pt"
 viewBox="0.00 0.00 1448.00 608.27" xmlns="http://www.w3.org/2000/svg" xmlns:xlink="http://www.w3.org/1999/xlink">
<g id="graph0" class="graph" transform="scale(1 1) rotate(0) translate(4 604.27)">
<title>memory_snapshot_harness_generatort</title>
<!-- Node1 -->
<g id="Node000001" class="node">
<title>Node1</title>
<g id="a_Node000001"><a xlink:title="Generates a harness which first assigns global variables with values from a given memory snapshot and...">
<polygon fill="#999999" stroke="#666666" points="1440,-465.5 1289,-465.5 1289,-435.5 1440,-435.5 1440,-465.5"/>
<text text-anchor="start" x="1297" y="-453.5" font-family="Helvetica,sans-Serif" font-size="10.00">memory_snapshot_harness</text>
<text text-anchor="middle" x="1364.5" y="-442.5" font-family="Helvetica,sans-Serif" font-size="10.00">_generatort</text>
</a>
</g>
</g>
<!-- Node2 -->
<g id="Node000002" class="node">
<title>Node2</title>
<g id="a_Node000002"><a xlink:href="classgoto__harness__generatort.html" target="_top" xlink:title=" ">
<polygon fill="white" stroke="#666666" points="1138,-600 1000,-600 1000,-581 1138,-581 1138,-600"/>
<text text-anchor="middle" x="1069" y="-588" font-family="Helvetica,sans-Serif" font-size="10.00">goto_harness_generatort</text>
</a>
</g>
</g>
<!-- Node2&#45;&gt;Node1 -->
<g id="edge1_Node000001_Node000002" class="edge">
<title>Node2&#45;&gt;Node1</title>
<g id="a_edge1_Node000001_Node000002"><a xlink:title=" ">
<path fill="none" stroke="#63b8ff" d="M1148.53,-599.99C1187.57,-601.12 1234.16,-596.8 1271,-576.5 1316.4,-551.49 1345.54,-493.66 1357.42,-465.91"/>
<polygon fill="#63b8ff" stroke="#63b8ff" points="1148.4,-596.48 1138.26,-599.56 1148.11,-603.47 1148.4,-596.48"/>
</a>
</g>
</g>
<!-- Node3 -->
<g id="Node000003" class="node">
<title>Node3</title>
<g id="a_Node000003"><a xlink:title=" ">
<polygon fill="white" stroke="#666666" points="1101.5,-538 1036.5,-538 1036.5,-519 1101.5,-519 1101.5,-538"/>
<text text-anchor="middle" x="1069" y="-526" font-family="Helvetica,sans-Serif" font-size="10.00">std::string</text>
</a>
</g>
</g>
<!-- Node3&#45;&gt;Node1 -->
<g id="edge2_Node000001_Node000003" class="edge">
<title>Node3&#45;&gt;Node1</title>
<g id="a_edge2_Node000001_Node000003"><a xlink:title=" ">
<path fill="none" stroke="#9a32cd" stroke-dasharray="5,2" d="M1112,-523.88C1161.97,-518.1 1242.25,-507.82 1271,-498.5 1295.61,-490.52 1321.59,-476.48 1339.73,-465.64"/>
<polygon fill="#9a32cd" stroke="#9a32cd" points="1111.36,-520.43 1101.82,-525.05 1112.16,-527.39 1111.36,-520.43"/>
</a>
</g>
<text text-anchor="start" x="1157.5" y="-564.5" font-family="Helvetica,sans-Serif" font-size="10.00" fill="grey"> initial_goto_location</text>
<text text-anchor="middle" x="1213.5" y="-553.5" font-family="Helvetica,sans-Serif" font-size="10.00" fill="grey">_line</text>
<text text-anchor="start" x="1157.5" y="-542.5" font-family="Helvetica,sans-Serif" font-size="10.00" fill="grey">initial_source_location</text>
<text text-anchor="middle" x="1213.5" y="-531.5" font-family="Helvetica,sans-Serif" font-size="10.00" fill="grey">_line</text>
<text text-anchor="middle" x="1213.5" y="-520.5" font-family="Helvetica,sans-Serif" font-size="10.00" fill="grey">memory_snapshot_file</text>
</g>
<!-- Node4 -->
<g id="Node000004" class="node">
<title>Node4</title>
<g id="a_Node000004"><a xlink:title=" ">
<polygon fill="white" stroke="#666666" points="796.5,-545.5 692.5,-545.5 692.5,-515.5 796.5,-515.5 796.5,-545.5"/>
<text text-anchor="start" x="700.5" y="-533.5" font-family="Helvetica,sans-Serif" font-size="10.00">std::basic_string&lt;</text>
<text text-anchor="middle" x="744.5" y="-522.5" font-family="Helvetica,sans-Serif" font-size="10.00"> Char &gt;</text>
</a>
</g>
</g>
<!-- Node4&#45;&gt;Node3 -->
<g id="edge3_Node000003_Node000004" class="edge">
<title>Node4&#45;&gt;Node3</title>
<g id="a_edge3_Node000003_Node000004"><a xlink:title=" ">
<path fill="none" stroke="#63b8ff" d="M806.8,-530.12C875.14,-529.7 983.02,-529.03 1036.2,-528.7"/>
<polygon fill="#63b8ff" stroke="#63b8ff" points="806.58,-526.62 796.6,-530.18 806.62,-533.62 806.58,-526.62"/>
</a>
</g>
</g>
<!-- Node5 -->
<g id="Node000005" class="node">
<title>Node5</title>
<g id="a_Node000005"><a xlink:title=" ">
<polygon fill="white" stroke="#666666" points="659,-467.5 552,-467.5 552,-437.5 659,-437.5 659,-467.5"/>
<text text-anchor="start" x="560" y="-455.5" font-family="Helvetica,sans-Serif" font-size="10.00">std::unordered_set</text>
<text text-anchor="middle" x="605.5" y="-444.5" font-family="Helvetica,sans-Serif" font-size="10.00">&lt; dstringt &gt;</text>
</a>
</g>
</g>
<!-- Node5&#45;&gt;Node1 -->
<g id="edge4_Node000001_Node000005" class="edge">
<title>Node5&#45;&gt;Node1</title>
<g id="a_edge4_Node000001_Node000005"><a xlink:title=" ">
<path fill="none" stroke="#9a32cd" stroke-dasharray="5,2" d="M659.45,-470.05C665.32,-471.46 671.25,-472.66 677,-473.5 736.37,-482.15 752.01,-474.75 812,-473.5 982.54,-469.95 1182.55,-460.21 1288.6,-454.61"/>
<polygon fill="#9a32cd" stroke="#9a32cd" points="660.24,-466.64 649.68,-467.5 658.48,-473.41 660.24,-466.64"/>
</a>
</g>
<text text-anchor="middle" x="906" y="-475.5" font-family="Helvetica,sans-Serif" font-size="10.00" fill="grey"> variables_to_havoc</text>
</g>
<!-- Node14 -->
<g id="Node000014" class="node">
<title>Node14</title>
<g id="a_Node000014"><a xlink:href="structrecursive__initialization__configt.html" target="_top" xlink:title=" ">
<polygon fill="white" stroke="#666666" points="1133,-356.5 1005,-356.5 1005,-326.5 1133,-326.5 1133,-356.5"/>
<text text-anchor="start" x="1013" y="-344.5" font-family="Helvetica,sans-Serif" font-size="10.00">recursive_initialization</text>
<text text-anchor="middle" x="1069" y="-333.5" font-family="Helvetica,sans-Serif" font-size="10.00">_configt</text>
</a>
</g>
</g>
<!-- Node5&#45;&gt;Node14 -->
<g id="edge16_Node000014_Node000005" class="edge">
<title>Node5&#45;&gt;Node14</title>
<g id="a_edge16_Node000014_Node000005"><a xlink:title=" ">
<path fill="none" stroke="#9a32cd" stroke-dasharray="5,2" d="M669.05,-448.54C760.71,-442.1 926.62,-427.76 982,-405.5 1009.98,-394.26 1036.98,-371.61 1053.05,-356.5"/>
<polygon fill="#9a32cd" stroke="#9a32cd" points="668.8,-445.05 659.07,-449.24 669.29,-452.04 668.8,-445.05"/>
</a>
</g>
<text text-anchor="start" x="687" y="-461.5" font-family="Helvetica,sans-Serif" font-size="10.00" fill="grey"> potential_null_function</text>
<text text-anchor="middle" x="744.5" y="-450.5" font-family="Helvetica,sans-Serif" font-size="10.00" fill="grey">_pointers</text>
</g>
<!-- Node6 -->
<g id="Node000006" class="node">
<title>Node6</title>
<g id="a_Node000006"><a xlink:href="classdstringt.html" target="_top" xlink:title="dstringt has one field, an unsigned integer no which is an index into a static table of strings.">
<polygon fill="white" stroke="#666666" points="209.5,-320 155.5,-320 155.5,-301 209.5,-301 209.5,-320"/>
<text text-anchor="middle" x="182.5" y="-308" font-family="Helvetica,sans-Serif" font-size="10.00">dstringt</text>
</a>
</g>
</g>
<!-- Node6&#45;&gt;Node5 -->
<g id="edge5_Node000005_Node000006" class="edge">
<title>Node6&#45;&gt;Node5</title>
<g id="a_edge5_Node000005_Node000006"><a xlink:title=" ">
<path fill="none" stroke="#9a32cd" stroke-dasharray="5,2" d="M219.09,-320.2C230.68,-324.93 242.69,-331.77 251,-341.5 270.2,-363.96 246.74,-386.06 269,-405.5 279.55,-414.71 460.18,-436.24 551.92,-446.65"/>
<polygon fill="#9a32cd" stroke="#9a32cd" points="220.13,-316.85 209.54,-316.7 217.73,-323.42 220.13,-316.85"/>
</a>
</g>
<text text-anchor="middle" x="322.5" y="-427.5" font-family="Helvetica,sans-Serif" font-size="10.00" fill="grey"> keys</text>
</g>
<!-- Node9 -->
<g id="Node000009" class="node">
<title>Node9</title>
<g id="a_Node000009"><a xlink:href="structmemory__snapshot__harness__generatort_1_1entry__locationt.html" target="_top" xlink:title="Wraps the information needed to identify the entry point.">
<polygon fill="white" stroke="#666666" points="982,-128.5 830,-128.5 830,-98.5 982,-98.5 982,-128.5"/>
<text text-anchor="start" x="838" y="-116.5" font-family="Helvetica,sans-Serif" font-size="10.00">memory_snapshot_harness</text>
<text text-anchor="middle" x="906" y="-105.5" font-family="Helvetica,sans-Serif" font-size="10.00">_generatort::entry_locationt</text>
</a>
</g>
</g>
<!-- Node6&#45;&gt;Node9 -->
<g id="edge9_Node000009_Node000006" class="edge">
<title>Node6&#45;&gt;Node9</title>
<g id="a_edge9_Node000009_Node000006"><a xlink:title=" ">
<path fill="none" stroke="#9a32cd" stroke-dasharray="5,2" d="M219.05,-300.75C231.01,-295.72 243.26,-288.29 251,-277.5 287.55,-226.51 226.21,-183.37 269,-137.5 343.05,-58.11 678.14,-86.46 829.9,-103.92"/>
<polygon fill="#9a32cd" stroke="#9a32cd" points="217.75,-297.5 209.62,-304.29 220.21,-304.05 217.75,-297.5"/>
</a>
</g>
<text text-anchor="middle" x="464" y="-94.5" font-family="Helvetica,sans-Serif" font-size="10.00" fill="grey"> function_name</text>
</g>
<!-- Node6&#45;&gt;Node14 -->
<g id="edge15_Node000014_Node000006" class="edge">
<title>Node6&#45;&gt;Node14</title>
<g id="a_edge15_Node000014_Node000006"><a xlink:title=" ">
<path fill="none" stroke="#9a32cd" stroke-dasharray="5,2" d="M219.18,-322.52C230.14,-327.31 241.75,-333.6 251,-341.5 261.97,-350.86 256.28,-361.69 269,-368.5 281.22,-375.04 119.73,-392.7 812,-367.5 887.69,-364.74 906.76,-364.26 982,-355.5 989.36,-354.64 997.06,-353.6 1004.69,-352.48"/>
<polygon fill="#9a32cd" stroke="#9a32cd" points="220.37,-319.22 209.79,-318.69 217.73,-325.71 220.37,-319.22"/>
</a>
</g>
<text text-anchor="middle" x="605.5" y="-378.5" font-family="Helvetica,sans-Serif" font-size="10.00" fill="grey"> mode</text>
</g>
<!-- Node15 -->
<g id="Node000015" class="node">
<title>Node15</title>
<g id="a_Node000015"><a xlink:title=" ">
<polygon fill="white" stroke="#666666" points="520.5,-259 407.5,-259 407.5,-240 520.5,-240 520.5,-259"/>
<text text-anchor="middle" x="464" y="-247" font-family="Helvetica,sans-Serif" font-size="10.00">std::set&lt; dstringt &gt;</text>
</a>
</g>
</g>
<!-- Node6&#45;&gt;Node15 -->
<g id="edge18_Node000015_Node000006" class="edge">
<title>Node6&#45;&gt;Node15</title>
<g id="a_edge18_Node000015_Node000006"><a xlink:title=" ">
<path fill="none" stroke="#9a32cd" stroke-dasharray="5,2" d="M219.48,-302.65C270.59,-291.49 364.11,-271.08 419.19,-259.06"/>
<polygon fill="#9a32cd" stroke="#9a32cd" points="218.57,-299.26 209.54,-304.82 220.06,-306.1 218.57,-299.26"/>
</a>
</g>
<text text-anchor="middle" x="322.5" y="-293.5" font-family="Helvetica,sans-Serif" font-size="10.00" fill="grey"> keys</text>
</g>
<!-- Node17 -->
<g id="Node000017" class="node">
<title>Node17</title>
<g id="a_Node000017"><a xlink:title=" ">
<polygon fill="white" stroke="#666666" points="519.5,-356.5 408.5,-356.5 408.5,-326.5 519.5,-326.5 519.5,-356.5"/>
<text text-anchor="start" x="416.5" y="-344.5" font-family="Helvetica,sans-Serif" font-size="10.00">std::map&lt; dstringt,</text>
<text text-anchor="middle" x="464" y="-333.5" font-family="Helvetica,sans-Serif" font-size="10.00"> dstringt &gt;</text>
</a>
</g>
</g>
<!-- Node6&#45;&gt;Node17 -->
<g id="edge22_Node000017_Node000006" class="edge">
<title>Node6&#45;&gt;Node17</title>
<g id="a_edge22_Node000017_Node000006"><a xlink:title=" ">
<path fill="none" stroke="#9a32cd" stroke-dasharray="5,2" d="M220.1,-310.4C258.97,-310.75 322.12,-312.67 376,-320.5 386.46,-322.02 397.5,-324.21 408.07,-326.62"/>
<polygon fill="#9a32cd" stroke="#9a32cd" points="219.83,-306.89 209.8,-310.33 219.78,-313.89 219.83,-306.89"/>
</a>
</g>
<text text-anchor="middle" x="322.5" y="-334.5" font-family="Helvetica,sans-Serif" font-size="10.00" fill="grey"> elements</text>
<text text-anchor="middle" x="322.5" y="-323.5" font-family="Helvetica,sans-Serif" font-size="10.00" fill="grey">keys</text>
</g>
<!-- Node21 -->
<g id="Node000021" class="node">
<title>Node21</title>
<g id="a_Node000021"><a xlink:title=" ">
<polygon fill="white" stroke="#666666" points="528,-151 400,-151 400,-132 528,-132 528,-151"/>
<text text-anchor="middle" x="464" y="-139" font-family="Helvetica,sans-Serif" font-size="10.00">std::vector&lt; dstringt &gt;</text>
</a>
</g>
</g>
<!-- Node6&#45;&gt;Node21 -->
<g id="edge31_Node000021_Node000006" class="edge">
<title>Node6&#45;&gt;Node21</title>
<g id="a_edge31_Node000021_Node000006"><a xlink:title=" ">
<path fill="none" stroke="#9a32cd" stroke-dasharray="5,2" d="M218.95,-298.84C230.32,-293.72 242.22,-286.73 251,-277.5 265,-262.79 255.42,-250.6 269,-235.5 311.59,-188.16 335.93,-191.62 394,-165.5 406.03,-160.09 419.67,-155.11 431.63,-151.11"/>
<polygon fill="#9a32cd" stroke="#9a32cd" points="217.51,-295.64 209.61,-302.7 220.19,-302.11 217.51,-295.64"/>
</a>
</g>
<text text-anchor="middle" x="322.5" y="-238.5" font-family="Helvetica,sans-Serif" font-size="10.00" fill="grey"> elements</text>
</g>
<!-- Node7 -->
<g id="Node000007" class="node">
<title>Node7</title>
<g id="a_Node000007"><a xlink:title=" ">
<polygon fill="white" stroke="#666666" points="251,-444 114,-444 114,-425 251,-425 251,-444"/>
<text text-anchor="middle" x="182.5" y="-432" font-family="Helvetica,sans-Serif" font-size="10.00">std::unordered_set&lt; K &gt;</text>
</a>
</g>
</g>
<!-- Node7&#45;&gt;Node5 -->
<g id="edge6_Node000005_Node000007" class="edge">
<title>Node7&#45;&gt;Node5</title>
<g id="a_edge6_Node000005_Node000007"><a xlink:title=" ">
<path fill="none" stroke="orange" stroke-dasharray="5,2" d="M261.26,-443.91C263.87,-444.12 266.46,-444.32 269,-444.5 368.82,-451.51 485.71,-452.72 551.84,-452.75"/>
<polygon fill="orange" stroke="orange" points="261.39,-440.4 251.12,-442.99 260.77,-447.38 261.39,-440.4"/>
</a>
</g>
<text text-anchor="middle" x="322.5" y="-452.5" font-family="Helvetica,sans-Serif" font-size="10.00" fill="grey"> &lt; dstringt &gt;</text>
</g>
<!-- Node8 -->
<g id="Node000008" class="node">
<title>Node8</title>
<g id="a_Node000008"><a xlink:title=" ">
<polygon fill="white" stroke="#666666" points="29,-369 0,-369 0,-350 29,-350 29,-369"/>
<text text-anchor="middle" x="14.5" y="-357" font-family="Helvetica,sans-Serif" font-size="10.00">K</text>
</a>
</g>
</g>
<!-- Node8&#45;&gt;Node7 -->
<g id="edge7_Node000007_Node000008" class="edge">
<title>Node8&#45;&gt;Node7</title>
<g id="a_edge7_Node000007_Node000008"><a xlink:title=" ">
<path fill="none" stroke="#9a32cd" stroke-dasharray="5,2" d="M38.58,-370.57C41.41,-371.9 44.27,-373.24 47,-374.5 86.47,-392.7 132.83,-413.19 159.53,-424.9"/>
<polygon fill="#9a32cd" stroke="#9a32cd" points="39.8,-367.28 29.27,-366.15 36.8,-373.6 39.8,-367.28"/>
</a>
</g>
<text text-anchor="middle" x="71.5" y="-398.5" font-family="Helvetica,sans-Serif" font-size="10.00" fill="grey"> keys</text>
</g>
<!-- Node16 -->
<g id="Node000016" class="node">
<title>Node16</title>
<g id="a_Node000016"><a xlink:title=" ">
<polygon fill="white" stroke="#666666" points="223.5,-268 141.5,-268 141.5,-249 223.5,-249 223.5,-268"/>
<text text-anchor="middle" x="182.5" y="-256" font-family="Helvetica,sans-Serif" font-size="10.00">std::set&lt; K &gt;</text>
</a>
</g>
</g>
<!-- Node8&#45;&gt;Node16 -->
<g id="edge20_Node000016_Node000008" class="edge">
<title>Node8&#45;&gt;Node16</title>
<g id="a_edge20_Node000016_Node000008"><a xlink:title=" ">
<path fill="none" stroke="#9a32cd" stroke-dasharray="5,2" d="M17.29,-339.88C20.16,-320.59 27.62,-291.87 47,-276.5 73.39,-255.56 112.27,-252.4 141.45,-253.69"/>
<polygon fill="#9a32cd" stroke="#9a32cd" points="13.79,-339.63 16.07,-349.98 20.74,-340.47 13.79,-339.63"/>
</a>
</g>
<text text-anchor="middle" x="71.5" y="-279.5" font-family="Helvetica,sans-Serif" font-size="10.00" fill="grey"> keys</text>
</g>
<!-- Node18 -->
<g id="Node000018" class="node">
<title>Node18</title>
<g id="a_Node000018"><a xlink:title=" ">
<polygon fill="white" stroke="#666666" points="233,-369 132,-369 132,-350 233,-350 233,-369"/>
<text text-anchor="middle" x="182.5" y="-357" font-family="Helvetica,sans-Serif" font-size="10.00">std::map&lt; K, T &gt;</text>
</a>
</g>
</g>
<!-- Node8&#45;&gt;Node18 -->
<g id="edge24_Node000018_Node000008" class="edge">
<title>Node8&#45;&gt;Node18</title>
<g id="a_edge24_Node000018_Node000008"><a xlink:title=" ">
<path fill="none" stroke="#9a32cd" stroke-dasharray="5,2" d="M39.4,-359.5C63.48,-359.5 101.35,-359.5 131.94,-359.5"/>
<polygon fill="#9a32cd" stroke="#9a32cd" points="39.08,-356 29.08,-359.5 39.08,-363 39.08,-356"/>
</a>
</g>
<text text-anchor="middle" x="71.5" y="-362.5" font-family="Helvetica,sans-Serif" font-size="10.00" fill="grey"> keys</text>
</g>
<!-- Node9&#45;&gt;Node1 -->
<g id="edge8_Node000001_Node000009" class="edge">
<title>Node9&#45;&gt;Node1</title>
<g id="a_edge8_Node000001_Node000009"><a xlink:title=" ">
<path fill="none" stroke="#9a32cd" stroke-dasharray="5,2" d="M975.45,-133.29C977.71,-134.61 979.9,-136.01 982,-137.5 992.86,-145.23 990.62,-152.02 1000,-161.5 1106.76,-269.46 1153.6,-273.21 1271,-369.5 1298.07,-391.7 1328.42,-418.7 1346.73,-435.24"/>
<polygon fill="#9a32cd" stroke="#9a32cd" points="976.91,-130.1 966.42,-128.62 973.69,-136.32 976.91,-130.1"/>
</a>
</g>
<text text-anchor="middle" x="1069" y="-274.5" font-family="Helvetica,sans-Serif" font-size="10.00" fill="grey"> entry_location</text>
</g>
<!-- Node10 -->
<g id="Node000010" class="node">
<title>Node10</title>
<g id="a_Node000010"><a xlink:href="classmessage__handlert.html" target="_top" xlink:title=" ">
<polygon fill="white" stroke="#666666" points="959.5,-61 852.5,-61 852.5,-42 959.5,-42 959.5,-61"/>
<text text-anchor="middle" x="906" y="-49" font-family="Helvetica,sans-Serif" font-size="10.00">message_handlert</text>
</a>
</g>
</g>
<!-- Node10&#45;&gt;Node1 -->
<g id="edge10_Node000001_Node000010" class="edge">
<title>Node10&#45;&gt;Node1</title>
<g id="a_edge10_Node000001_Node000010"><a xlink:title=" ">
<path fill="none" stroke="#9a32cd" stroke-dasharray="5,2" d="M952.07,-63.99C1000.69,-78.79 1079.05,-106.58 1138,-146.5 1208.27,-194.08 1220.44,-215.34 1271,-283.5 1309.5,-335.41 1343.02,-405.13 1356.81,-435.41"/>
<polygon fill="#9a32cd" stroke="#9a32cd" points="953.05,-60.63 942.47,-61.12 951.04,-67.33 953.05,-60.63"/>
</a>
</g>
<text text-anchor="middle" x="1069" y="-149.5" font-family="Helvetica,sans-Serif" font-size="10.00" fill="grey"> message_handler</text>
</g>
<!-- Node11 -->
<g id="Node000011" class="node">
<title>Node11</title>
<g id="a_Node000011"><a xlink:title=" ">
<polygon fill="white" stroke="#666666" points="534,-19 394,-19 394,0 534,0 534,-19"/>
<text text-anchor="middle" x="464" y="-7" font-family="Helvetica,sans-Serif" font-size="10.00">std::vector&lt; std::size_t &gt;</text>
</a>
</g>
</g>
<!-- Node11&#45;&gt;Node10 -->
<g id="edge11_Node000010_Node000011" class="edge">
<title>Node11&#45;&gt;Node10</title>
<g id="a_edge11_Node000010_Node000011"><a xlink:title=" ">
<path fill="none" stroke="#9a32cd" stroke-dasharray="5,2" d="M544.31,-17.07C633.52,-25.59 775.92,-39.18 852.38,-46.48"/>
<polygon fill="#9a32cd" stroke="#9a32cd" points="544.52,-13.57 534.23,-16.11 543.86,-20.54 544.52,-13.57"/>
</a>
</g>
<text text-anchor="middle" x="605.5" y="-31.5" font-family="Helvetica,sans-Serif" font-size="10.00" fill="grey"> message_count</text>
</g>
<!-- Node12 -->
<g id="Node000012" class="node">
<title>Node12</title>
<g id="a_Node000012"><a xlink:title=" ">
<polygon fill="white" stroke="#666666" points="231,-151 134,-151 134,-132 231,-132 231,-151"/>
<text text-anchor="middle" x="182.5" y="-139" font-family="Helvetica,sans-Serif" font-size="10.00">std::vector&lt; T &gt;</text>
</a>
</g>
</g>
<!-- Node12&#45;&gt;Node11 -->
<g id="edge12_Node000011_Node000012" class="edge">
<title>Node12&#45;&gt;Node11</title>
<g id="a_edge12_Node000011_Node000012"><a xlink:title=" ">
<path fill="none" stroke="orange" stroke-dasharray="5,2" d="M191.89,-122.91C204.55,-97.24 231.17,-51.72 269,-30.5 306.67,-9.37 354.94,-4.08 393.91,-4.09"/>
<polygon fill="orange" stroke="orange" points="188.71,-121.44 187.59,-131.98 195.03,-124.44 188.71,-121.44"/>
</a>
</g>
<text text-anchor="middle" x="322.5" y="-33.5" font-family="Helvetica,sans-Serif" font-size="10.00" fill="grey"> &lt; std::size_t &gt;</text>
</g>
<!-- Node19 -->
<g id="Node000019" class="node">
<title>Node19</title>
<g id="a_Node000019"><a xlink:title=" ">
<polygon fill="white" stroke="#666666" points="802.5,-203.5 686.5,-203.5 686.5,-173.5 802.5,-173.5 802.5,-203.5"/>
<text text-anchor="start" x="694.5" y="-191.5" font-family="Helvetica,sans-Serif" font-size="10.00">std::vector&lt; std::set</text>
<text text-anchor="middle" x="744.5" y="-180.5" font-family="Helvetica,sans-Serif" font-size="10.00">&lt; dstringt &gt; &gt;</text>
</a>
</g>
</g>
<!-- Node12&#45;&gt;Node19 -->
<g id="edge28_Node000019_Node000012" class="edge">
<title>Node12&#45;&gt;Node19</title>
<g id="a_edge28_Node000019_Node000012"><a xlink:title=" ">
<path fill="none" stroke="orange" stroke-dasharray="5,2" d="M241.22,-152.49C250.49,-154 259.99,-155.41 269,-156.5 419,-174.66 597.02,-183.21 686.35,-186.61"/>
<polygon fill="orange" stroke="orange" points="241.74,-149.02 231.3,-150.81 240.58,-155.93 241.74,-149.02"/>
</a>
</g>
<text text-anchor="middle" x="464" y="-181.5" font-family="Helvetica,sans-Serif" font-size="10.00" fill="grey"> &lt; std::set&lt; dstringt &gt; &gt;</text>
</g>
<!-- Node20 -->
<g id="Node000020" class="node">
<title>Node20</title>
<g id="a_Node000020"><a xlink:title=" ">
<polygon fill="white" stroke="#666666" points="810,-155.5 679,-155.5 679,-125.5 810,-125.5 810,-155.5"/>
<text text-anchor="start" x="687" y="-143.5" font-family="Helvetica,sans-Serif" font-size="10.00">std::vector&lt; std::vector</text>
<text text-anchor="middle" x="744.5" y="-132.5" font-family="Helvetica,sans-Serif" font-size="10.00">&lt; dstringt &gt; &gt;</text>
</a>
</g>
</g>
<!-- Node12&#45;&gt;Node20 -->
<g id="edge33_Node000020_Node000012" class="edge">
<title>Node12&#45;&gt;Node20</title>
<g id="a_edge33_Node000020_Node000012"><a xlink:title=" ">
<path fill="none" stroke="orange" stroke-dasharray="5,2" d="M213.32,-127.79C253.38,-110.18 327.3,-80.59 394,-69.5 455.38,-59.29 472.61,-59.38 534,-69.5 598.42,-80.12 669.66,-107.94 710.27,-125.44"/>
<polygon fill="orange" stroke="orange" points="211.83,-124.62 204.12,-131.88 214.68,-131.01 211.83,-124.62"/>
</a>
</g>
<text text-anchor="middle" x="464" y="-72.5" font-family="Helvetica,sans-Serif" font-size="10.00" fill="grey"> &lt; std::vector&lt; dstringt &gt; &gt;</text>
</g>
<!-- Node12&#45;&gt;Node21 -->
<g id="edge32_Node000021_Node000012" class="edge">
<title>Node12&#45;&gt;Node21</title>
<g id="a_edge32_Node000021_Node000012"><a xlink:title=" ">
<path fill="none" stroke="orange" stroke-dasharray="5,2" d="M241.4,-141.5C287.66,-141.5 352.42,-141.5 399.99,-141.5"/>
<polygon fill="orange" stroke="orange" points="241.23,-138 231.23,-141.5 241.23,-145 241.23,-138"/>
</a>
</g>
<text text-anchor="middle" x="322.5" y="-144.5" font-family="Helvetica,sans-Serif" font-size="10.00" fill="grey"> &lt; dstringt &gt;</text>
</g>
<!-- Node13 -->
<g id="Node000013" class="node">
<title>Node13</title>
<g id="a_Node000013"><a xlink:title=" ">
<polygon fill="white" stroke="#666666" points="29,-239 0,-239 0,-220 29,-220 29,-239"/>
<text text-anchor="middle" x="14.5" y="-227" font-family="Helvetica,sans-Serif" font-size="10.00">T</text>
</a>
</g>
</g>
<!-- Node13&#45;&gt;Node12 -->
<g id="edge13_Node000012_Node000013" class="edge">
<title>Node13&#45;&gt;Node12</title>
<g id="a_edge13_Node000012_Node000013"><a xlink:title=" ">
<path fill="none" stroke="#9a32cd" stroke-dasharray="5,2" d="M38.06,-217.54C71.38,-199.88 133.06,-167.18 163.52,-151.03"/>
<polygon fill="#9a32cd" stroke="#9a32cd" points="36.28,-214.52 29.08,-222.3 39.56,-220.71 36.28,-214.52"/>
</a>
</g>
<text text-anchor="middle" x="71.5" y="-215.5" font-family="Helvetica,sans-Serif" font-size="10.00" fill="grey"> elements</text>
</g>
<!-- Node13&#45;&gt;Node18 -->
<g id="edge25_Node000018_Node000013" class="edge">
<title>Node13&#45;&gt;Node18</title>
<g id="a_edge25_Node000018_Node000013"><a xlink:title=" ">
<path fill="none" stroke="#9a32cd" stroke-dasharray="5,2" d="M22.75,-248.31C28.11,-260.5 36.33,-276.15 47,-287.5 76.2,-318.58 121.87,-339.04 151.74,-349.95"/>
<polygon fill="#9a32cd" stroke="#9a32cd" points="25.98,-246.97 18.92,-239.07 19.51,-249.65 25.98,-246.97"/>
</a>
</g>
<text text-anchor="middle" x="71.5" y="-325.5" font-family="Helvetica,sans-Serif" font-size="10.00" fill="grey"> elements</text>
</g>
<!-- Node14&#45;&gt;Node1 -->
<g id="edge14_Node000001_Node000014" class="edge">
<title>Node14&#45;&gt;Node1</title>
<g id="a_edge14_Node000001_Node000014"><a xlink:title=" ">
<path fill="none" stroke="#9a32cd" stroke-dasharray="5,2" d="M1120.07,-360.1C1177.34,-381.36 1269.99,-415.77 1322.94,-435.44"/>
<polygon fill="#9a32cd" stroke="#9a32cd" points="1121.09,-356.74 1110.5,-356.54 1118.66,-363.3 1121.09,-356.74"/>
</a>
</g>
<text text-anchor="start" x="1156" y="-428.5" font-family="Helvetica,sans-Serif" font-size="10.00" fill="grey"> recursive_initialization</text>
<text text-anchor="middle" x="1213.5" y="-417.5" font-family="Helvetica,sans-Serif" font-size="10.00" fill="grey">_config</text>
</g>
<!-- Node15&#45;&gt;Node14 -->
<g id="edge17_Node000014_Node000015" class="edge">
<title>Node15&#45;&gt;Node14</title>
<g id="a_edge17_Node000014_Node000015"><a xlink:title=" ">
<path fill="none" stroke="#9a32cd" stroke-dasharray="5,2" d="M530.71,-249.7C600.83,-250.83 714.95,-255.33 812,-271.5 887.67,-284.11 973.2,-309.93 1023.76,-326.44"/>
<polygon fill="#9a32cd" stroke="#9a32cd" points="530.74,-246.2 520.69,-249.55 530.63,-253.2 530.74,-246.2"/>
</a>
</g>
<text text-anchor="start" x="693" y="-329.5" font-family="Helvetica,sans-Serif" font-size="10.00" fill="grey"> pointers_to_treat_as</text>
<text text-anchor="middle" x="744.5" y="-318.5" font-family="Helvetica,sans-Serif" font-size="10.00" fill="grey">_arrays</text>
<text text-anchor="start" x="693" y="-307.5" font-family="Helvetica,sans-Serif" font-size="10.00" fill="grey">pointers_to_treat</text>
<text text-anchor="middle" x="744.5" y="-296.5" font-family="Helvetica,sans-Serif" font-size="10.00" fill="grey">_as_cstrings</text>
<text text-anchor="start" x="693" y="-285.5" font-family="Helvetica,sans-Serif" font-size="10.00" fill="grey">variables_that_hold</text>
<text text-anchor="middle" x="744.5" y="-274.5" font-family="Helvetica,sans-Serif" font-size="10.00" fill="grey">_array_sizes</text>
</g>
<!-- Node15&#45;&gt;Node19 -->
<g id="edge27_Node000019_Node000015" class="edge">
<title>Node15&#45;&gt;Node19</title>
<g id="a_edge27_Node000019_Node000015"><a xlink:title=" ">
<path fill="none" stroke="#9a32cd" stroke-dasharray="5,2" d="M501.11,-236.62C516.63,-231.41 535.06,-225.66 552,-221.5 596.56,-210.55 647.82,-201.92 686.09,-196.24"/>
<polygon fill="#9a32cd" stroke="#9a32cd" points="499.71,-233.4 491.38,-239.94 501.97,-240.02 499.71,-233.4"/>
</a>
</g>
<text text-anchor="middle" x="605.5" y="-224.5" font-family="Helvetica,sans-Serif" font-size="10.00" fill="grey"> elements</text>
</g>
<!-- Node16&#45;&gt;Node15 -->
<g id="edge19_Node000015_Node000016" class="edge">
<title>Node16&#45;&gt;Node15</title>
<g id="a_edge19_Node000015_Node000016"><a xlink:title=" ">
<path fill="none" stroke="orange" stroke-dasharray="5,2" d="M233.51,-255.26C245.16,-254.59 257.51,-253.95 269,-253.5 315.62,-251.66 368.58,-250.64 407.37,-250.09"/>
<polygon fill="orange" stroke="orange" points="233.28,-251.76 223.5,-255.85 233.69,-258.75 233.28,-251.76"/>
</a>
</g>
<text text-anchor="middle" x="322.5" y="-256.5" font-family="Helvetica,sans-Serif" font-size="10.00" fill="grey"> &lt; dstringt &gt;</text>
</g>
<!-- Node17&#45;&gt;Node14 -->
<g id="edge21_Node000014_Node000017" class="edge">
<title>Node17&#45;&gt;Node14</title>
<g id="a_edge21_Node000014_Node000017"><a xlink:title=" ">
<path fill="none" stroke="#9a32cd" stroke-dasharray="5,2" d="M529.76,-341.5C646.12,-341.5 889.19,-341.5 1004.58,-341.5"/>
<polygon fill="#9a32cd" stroke="#9a32cd" points="529.58,-338 519.58,-341.5 529.58,-345 529.58,-338"/>
</a>
</g>
<text text-anchor="start" x="677" y="-355.5" font-family="Helvetica,sans-Serif" font-size="10.00" fill="grey"> array_name_to_associated</text>
<text text-anchor="middle" x="744.5" y="-344.5" font-family="Helvetica,sans-Serif" font-size="10.00" fill="grey">_array_size_variable</text>
</g>
<!-- Node18&#45;&gt;Node17 -->
<g id="edge23_Node000017_Node000018" class="edge">
<title>Node18&#45;&gt;Node17</title>
<g id="a_edge23_Node000017_Node000018"><a xlink:title=" ">
<path fill="none" stroke="orange" stroke-dasharray="5,2" d="M243.26,-355.65C292.1,-352.51 360.59,-348.1 408.07,-345.04"/>
<polygon fill="orange" stroke="orange" points="242.9,-352.17 233.15,-356.3 243.35,-359.15 242.9,-352.17"/>
</a>
</g>
<text text-anchor="middle" x="322.5" y="-356.5" font-family="Helvetica,sans-Serif" font-size="10.00" fill="grey"> &lt; dstringt, dstringt &gt;</text>
</g>
<!-- Node19&#45;&gt;Node14 -->
<g id="edge26_Node000014_Node000019" class="edge">
<title>Node19&#45;&gt;Node14</title>
<g id="a_edge26_Node000014_Node000019"><a xlink:title=" ">
<path fill="none" stroke="#9a32cd" stroke-dasharray="5,2" d="M812.95,-187.77C873.72,-188.54 957.2,-193.57 982,-214.5 1004.25,-233.28 984.85,-252.63 1000,-277.5 1011.97,-297.16 1031.59,-314.7 1046.68,-326.43"/>
<polygon fill="#9a32cd" stroke="#9a32cd" points="812.68,-184.27 802.65,-187.68 812.62,-191.27 812.68,-184.27"/>
</a>
</g>
<text text-anchor="middle" x="906" y="-217.5" font-family="Helvetica,sans-Serif" font-size="10.00" fill="grey"> pointers_to_treat_equal</text>
</g>
<!-- Node20&#45;&gt;Node14 -->
<g id="edge29_Node000014_Node000020" class="edge">
<title>Node20&#45;&gt;Node14</title>
<g id="a_edge29_Node000014_Node000020"><a xlink:title=" ">
<path fill="none" stroke="#9a32cd" stroke-dasharray="5,2" d="M820.56,-141.26C881,-143.52 959.46,-150.74 982,-172.5 1016.07,-205.38 977.6,-235.78 1000,-277.5 1010.74,-297.5 1030.07,-314.76 1045.38,-326.3"/>
<polygon fill="#9a32cd" stroke="#9a32cd" points="820.38,-137.75 810.27,-140.91 820.15,-144.75 820.38,-137.75"/>
</a>
</g>
<text text-anchor="middle" x="906" y="-175.5" font-family="Helvetica,sans-Serif" font-size="10.00" fill="grey"> selection_specs</text>
</g>
<!-- Node21&#45;&gt;Node20 -->
<g id="edge30_Node000020_Node000021" class="edge">
<title>Node21&#45;&gt;Node20</title>
<g id="a_edge30_Node000020_Node000021"><a xlink:title=" ">
<path fill="none" stroke="#9a32cd" stroke-dasharray="5,2" d="M538.44,-141.24C581.98,-141.08 636.67,-140.88 678.62,-140.73"/>
<polygon fill="#9a32cd" stroke="#9a32cd" points="538.18,-137.74 528.2,-141.27 538.21,-144.74 538.18,-137.74"/>
</a>
</g>
<text text-anchor="middle" x="605.5" y="-143.5" font-family="Helvetica,sans-Serif" font-size="10.00" fill="grey"> elements</text>
</g>
</g>
</svg>
