<?xml version="1.0" encoding="UTF-8" standalone="no"?>
<!DOCTYPE svg PUBLIC "-//W3C//DTD SVG 1.1//EN"
 "http://www.w3.org/Graphics/SVG/1.1/DTD/svg11.dtd">
<!-- Generated by graphviz version 2.43.0 (0)
 -->
<!-- Title: scope_treet::scope_nodet Pages: 1 -->
<svg width="207pt" height="394pt"
 viewBox="0.00 0.00 207.00 394.00" xmlns="http://www.w3.org/2000/svg" xmlns:xlink="http://www.w3.org/1999/xlink">
<g id="graph0" class="graph" transform="scale(1 1) rotate(0) translate(4 390)">
<title>scope_treet::scope_nodet</title>
<!-- Node1 -->
<g id="Node000001" class="node">
<title>Node1</title>
<g id="a_Node000001"><a xlink:title=" ">
<polygon fill="#999999" stroke="#666666" points="121,-30 13,-30 13,0 121,0 121,-30"/>
<text text-anchor="start" x="21" y="-18" font-family="Helvetica,sans-Serif" font-size="10.00">scope_treet::scope</text>
<text text-anchor="middle" x="67" y="-7" font-family="Helvetica,sans-Serif" font-size="10.00">_nodet</text>
</a>
</g>
</g>
<!-- Node2 -->
<g id="Node000002" class="node">
<title>Node2</title>
<g id="a_Node000002"><a xlink:href="classgraph__nodet.html" target="_top" xlink:title=" ">
<polygon fill="white" stroke="#666666" points="127,-97 7,-97 7,-67 127,-67 127,-97"/>
<text text-anchor="start" x="15" y="-85" font-family="Helvetica,sans-Serif" font-size="10.00">graph_nodet&lt; empty</text>
<text text-anchor="middle" x="67" y="-74" font-family="Helvetica,sans-Serif" font-size="10.00">_edget &gt;</text>
</a>
</g>
</g>
<!-- Node2&#45;&gt;Node1 -->
<g id="edge1_Node000001_Node000002" class="edge">
<title>Node2&#45;&gt;Node1</title>
<g id="a_edge1_Node000001_Node000002"><a xlink:title=" ">
<path fill="none" stroke="#63b8ff" d="M67,-56.61C67,-47.65 67,-37.82 67,-30.08"/>
<polygon fill="#63b8ff" stroke="#63b8ff" points="63.5,-56.9 67,-66.9 70.5,-56.9 63.5,-56.9"/>
</a>
</g>
</g>
<!-- Node3 -->
<g id="Node000003" class="node">
<title>Node3</title>
<g id="a_Node000003"><a xlink:title=" ">
<polygon fill="white" stroke="#666666" points="134,-254 0,-254 0,-224 134,-224 134,-254"/>
<text text-anchor="start" x="8" y="-242" font-family="Helvetica,sans-Serif" font-size="10.00">std::map&lt; node_indext,</text>
<text text-anchor="middle" x="67" y="-231" font-family="Helvetica,sans-Serif" font-size="10.00"> edget &gt;</text>
</a>
</g>
</g>
<!-- Node3&#45;&gt;Node2 -->
<g id="edge2_Node000002_Node000003" class="edge">
<title>Node3&#45;&gt;Node2</title>
<g id="a_edge2_Node000002_Node000003"><a xlink:title=" ">
<path fill="none" stroke="#9a32cd" stroke-dasharray="5,2" d="M63.45,-213.85C61.09,-194.87 58.64,-167.76 60,-144 60.93,-127.82 63.22,-109.35 64.93,-97.01"/>
<polygon fill="#9a32cd" stroke="#9a32cd" points="60.01,-214.55 64.81,-224 66.95,-213.62 60.01,-214.55"/>
</a>
</g>
<text text-anchor="middle" x="68" y="-158" font-family="Helvetica,sans-Serif" font-size="10.00" fill="grey"> in</text>
<text text-anchor="middle" x="68" y="-147" font-family="Helvetica,sans-Serif" font-size="10.00" fill="grey">out</text>
</g>
<!-- Node7 -->
<g id="Node000007" class="node">
<title>Node7</title>
<g id="a_Node000007"><a xlink:href="classgraph__nodet.html" target="_top" xlink:title="This class represents a node in a directed graph.">
<polygon fill="white" stroke="#666666" points="191,-164.5 85,-164.5 85,-145.5 191,-145.5 191,-164.5"/>
<text text-anchor="middle" x="138" y="-152.5" font-family="Helvetica,sans-Serif" font-size="10.00">graph_nodet&lt; E &gt;</text>
</a>
</g>
</g>
<!-- Node3&#45;&gt;Node7 -->
<g id="edge7_Node000007_Node000003" class="edge">
<title>Node3&#45;&gt;Node7</title>
<g id="a_edge7_Node000007_Node000003"><a xlink:title=" ">
<path fill="none" stroke="#9a32cd" stroke-dasharray="5,2" d="M86.1,-215.94C100.73,-199.04 120.11,-176.66 130.56,-164.59"/>
<polygon fill="#9a32cd" stroke="#9a32cd" points="83.27,-213.87 79.37,-223.72 88.56,-218.45 83.27,-213.87"/>
</a>
</g>
<text text-anchor="middle" x="121" y="-198" font-family="Helvetica,sans-Serif" font-size="10.00" fill="grey"> in</text>
<text text-anchor="middle" x="121" y="-187" font-family="Helvetica,sans-Serif" font-size="10.00" fill="grey">out</text>
</g>
<!-- Node4 -->
<g id="Node000004" class="node">
<title>Node4</title>
<g id="a_Node000004"><a xlink:title=" ">
<polygon fill="white" stroke="#666666" points="117.5,-320 16.5,-320 16.5,-301 117.5,-301 117.5,-320"/>
<text text-anchor="middle" x="67" y="-308" font-family="Helvetica,sans-Serif" font-size="10.00">std::map&lt; K, T &gt;</text>
</a>
</g>
</g>
<!-- Node4&#45;&gt;Node3 -->
<g id="edge3_Node000003_Node000004" class="edge">
<title>Node4&#45;&gt;Node3</title>
<g id="a_edge3_Node000003_Node000004"><a xlink:title=" ">
<path fill="none" stroke="orange" stroke-dasharray="5,2" d="M67,-290.71C67,-279.19 67,-264.68 67,-254.14"/>
<polygon fill="orange" stroke="orange" points="63.5,-290.98 67,-300.98 70.5,-290.98 63.5,-290.98"/>
</a>
</g>
<text text-anchor="middle" x="127" y="-275" font-family="Helvetica,sans-Serif" font-size="10.00" fill="grey"> &lt; node_indext, edget &gt;</text>
</g>
<!-- Node5 -->
<g id="Node000005" class="node">
<title>Node5</title>
<g id="a_Node000005"><a xlink:title=" ">
<polygon fill="white" stroke="#666666" points="57.5,-386 28.5,-386 28.5,-367 57.5,-367 57.5,-386"/>
<text text-anchor="middle" x="43" y="-374" font-family="Helvetica,sans-Serif" font-size="10.00">K</text>
</a>
</g>
</g>
<!-- Node5&#45;&gt;Node4 -->
<g id="edge4_Node000004_Node000005" class="edge">
<title>Node5&#45;&gt;Node4</title>
<g id="a_edge4_Node000004_Node000005"><a xlink:title=" ">
<path fill="none" stroke="#9a32cd" stroke-dasharray="5,2" d="M41.03,-356.74C41.02,-350.59 41.73,-343.84 44,-338 46.65,-331.19 51.87,-324.94 56.67,-320.22"/>
<polygon fill="#9a32cd" stroke="#9a32cd" points="37.54,-357.06 41.62,-366.84 44.53,-356.65 37.54,-357.06"/>
</a>
</g>
<text text-anchor="middle" x="57" y="-341" font-family="Helvetica,sans-Serif" font-size="10.00" fill="grey"> keys</text>
</g>
<!-- Node6 -->
<g id="Node000006" class="node">
<title>Node6</title>
<g id="a_Node000006"><a xlink:title=" ">
<polygon fill="white" stroke="#666666" points="106.5,-386 77.5,-386 77.5,-367 106.5,-367 106.5,-386"/>
<text text-anchor="middle" x="92" y="-374" font-family="Helvetica,sans-Serif" font-size="10.00">T</text>
</a>
</g>
</g>
<!-- Node6&#45;&gt;Node4 -->
<g id="edge5_Node000004_Node000006" class="edge">
<title>Node6&#45;&gt;Node4</title>
<g id="a_edge5_Node000004_Node000006"><a xlink:title=" ">
<path fill="none" stroke="#9a32cd" stroke-dasharray="5,2" d="M84.9,-357.32C80.18,-345.24 74.19,-329.91 70.48,-320.41"/>
<polygon fill="#9a32cd" stroke="#9a32cd" points="81.73,-358.83 88.63,-366.87 88.25,-356.28 81.73,-358.83"/>
</a>
</g>
<text text-anchor="middle" x="104.5" y="-341" font-family="Helvetica,sans-Serif" font-size="10.00" fill="grey"> elements</text>
</g>
<!-- Node7&#45;&gt;Node2 -->
<g id="edge6_Node000002_Node000007" class="edge">
<title>Node7&#45;&gt;Node2</title>
<g id="a_edge6_Node000002_Node000007"><a xlink:title=" ">
<path fill="none" stroke="orange" stroke-dasharray="5,2" d="M121.98,-137.98C109.72,-125.72 92.96,-108.96 81.18,-97.18"/>
<polygon fill="orange" stroke="orange" points="119.75,-140.7 129.29,-145.29 124.7,-135.75 119.75,-140.7"/>
</a>
</g>
<text text-anchor="middle" x="153.5" y="-118" font-family="Helvetica,sans-Serif" font-size="10.00" fill="grey"> &lt; empty_edget &gt;</text>
</g>
</g>
</svg>
