<?xml version="1.0" encoding="UTF-8" standalone="no"?>
<!DOCTYPE svg PUBLIC "-//W3C//DTD SVG 1.1//EN"
 "http://www.w3.org/Graphics/SVG/1.1/DTD/svg11.dtd">
<!-- Generated by graphviz version 2.43.0 (0)
 -->
<!-- Title: rename_symbolt Pages: 1 -->
<svg width="220pt" height="269pt"
 viewBox="0.00 0.00 220.00 269.00" xmlns="http://www.w3.org/2000/svg" xmlns:xlink="http://www.w3.org/1999/xlink">
<g id="graph0" class="graph" transform="scale(1 1) rotate(0) translate(4 265)">
<title>rename_symbolt</title>
<!-- Node1 -->
<g id="Node000001" class="node">
<title>Node1</title>
<g id="a_Node000001"><a xlink:title=" ">
<polygon fill="#999999" stroke="#666666" points="119.5,-19 20.5,-19 20.5,0 119.5,0 119.5,-19"/>
<text text-anchor="middle" x="70" y="-7" font-family="Helvetica,sans-Serif" font-size="10.00">rename_symbolt</text>
</a>
</g>
</g>
<!-- Node2 -->
<g id="Node000002" class="node">
<title>Node2</title>
<g id="a_Node000002"><a xlink:title=" ">
<polygon fill="white" stroke="#666666" points="129.5,-107 10.5,-107 10.5,-77 129.5,-77 129.5,-107"/>
<text text-anchor="start" x="18.5" y="-95" font-family="Helvetica,sans-Serif" font-size="10.00">std::unordered_map</text>
<text text-anchor="middle" x="70" y="-84" font-family="Helvetica,sans-Serif" font-size="10.00">&lt; irep_idt, irep_idt &gt;</text>
</a>
</g>
</g>
<!-- Node2&#45;&gt;Node1 -->
<g id="edge1_Node000001_Node000002" class="edge">
<title>Node2&#45;&gt;Node1</title>
<g id="a_edge1_Node000001_Node000002"><a xlink:title=" ">
<path fill="none" stroke="#9a32cd" stroke-dasharray="5,2" d="M70,-66.7C70,-50.7 70,-30.7 70,-19.38"/>
<polygon fill="#9a32cd" stroke="#9a32cd" points="66.5,-66.98 70,-76.98 73.5,-66.98 66.5,-66.98"/>
</a>
</g>
<text text-anchor="middle" x="96" y="-51" font-family="Helvetica,sans-Serif" font-size="10.00" fill="grey"> expr_map</text>
<text text-anchor="middle" x="96" y="-40" font-family="Helvetica,sans-Serif" font-size="10.00" fill="grey">type_map</text>
</g>
<!-- Node3 -->
<g id="Node000003" class="node">
<title>Node3</title>
<g id="a_Node000003"><a xlink:href="classdstringt.html" target="_top" xlink:title="dstringt has one field, an unsigned integer no which is an index into a static table of strings.">
<polygon fill="white" stroke="#666666" points="54,-189.5 0,-189.5 0,-170.5 54,-170.5 54,-189.5"/>
<text text-anchor="middle" x="27" y="-177.5" font-family="Helvetica,sans-Serif" font-size="10.00">dstringt</text>
</a>
</g>
</g>
<!-- Node3&#45;&gt;Node2 -->
<g id="edge2_Node000002_Node000003" class="edge">
<title>Node3&#45;&gt;Node2</title>
<g id="a_edge2_Node000002_Node000003"><a xlink:title=" ">
<path fill="none" stroke="#9a32cd" stroke-dasharray="5,2" d="M30.57,-160.18C33.08,-149.44 37.08,-135.99 43,-125 46.45,-118.6 51.32,-112.32 55.98,-107.04"/>
<polygon fill="#9a32cd" stroke="#9a32cd" points="27.1,-159.65 28.46,-170.16 33.95,-161.09 27.1,-159.65"/>
</a>
</g>
<text text-anchor="middle" x="67.5" y="-139" font-family="Helvetica,sans-Serif" font-size="10.00" fill="grey"> elements</text>
<text text-anchor="middle" x="67.5" y="-128" font-family="Helvetica,sans-Serif" font-size="10.00" fill="grey">keys</text>
</g>
<!-- Node4 -->
<g id="Node000004" class="node">
<title>Node4</title>
<g id="a_Node000004"><a xlink:title=" ">
<polygon fill="white" stroke="#666666" points="186,-195 72,-195 72,-165 186,-165 186,-195"/>
<text text-anchor="start" x="80" y="-183" font-family="Helvetica,sans-Serif" font-size="10.00">std::unordered_map</text>
<text text-anchor="middle" x="129" y="-172" font-family="Helvetica,sans-Serif" font-size="10.00">&lt; K, T &gt;</text>
</a>
</g>
</g>
<!-- Node4&#45;&gt;Node2 -->
<g id="edge3_Node000002_Node000004" class="edge">
<title>Node4&#45;&gt;Node2</title>
<g id="a_edge3_Node000002_Node000004"><a xlink:title=" ">
<path fill="none" stroke="orange" stroke-dasharray="5,2" d="M113.57,-156.47C106.94,-146.78 99.09,-135.33 92,-125 87.96,-119.11 83.49,-112.61 79.64,-107.02"/>
<polygon fill="orange" stroke="orange" points="110.73,-158.51 119.27,-164.78 116.51,-154.56 110.73,-158.51"/>
</a>
</g>
<text text-anchor="middle" x="159" y="-133.5" font-family="Helvetica,sans-Serif" font-size="10.00" fill="grey"> &lt; irep_idt, irep_idt &gt;</text>
</g>
<!-- Node5 -->
<g id="Node000005" class="node">
<title>Node5</title>
<g id="a_Node000005"><a xlink:title=" ">
<polygon fill="white" stroke="#666666" points="118.5,-261 89.5,-261 89.5,-242 118.5,-242 118.5,-261"/>
<text text-anchor="middle" x="104" y="-249" font-family="Helvetica,sans-Serif" font-size="10.00">K</text>
</a>
</g>
</g>
<!-- Node5&#45;&gt;Node4 -->
<g id="edge4_Node000004_Node000005" class="edge">
<title>Node5&#45;&gt;Node4</title>
<g id="a_edge4_Node000004_Node000005"><a xlink:title=" ">
<path fill="none" stroke="#9a32cd" stroke-dasharray="5,2" d="M105.57,-231.89C106.46,-225.75 107.84,-218.97 110,-213 112.24,-206.8 115.71,-200.46 119.08,-195.08"/>
<polygon fill="#9a32cd" stroke="#9a32cd" points="102.08,-231.61 104.45,-241.93 109.04,-232.38 102.08,-231.61"/>
</a>
</g>
<text text-anchor="middle" x="123" y="-216" font-family="Helvetica,sans-Serif" font-size="10.00" fill="grey"> keys</text>
</g>
<!-- Node6 -->
<g id="Node000006" class="node">
<title>Node6</title>
<g id="a_Node000006"><a xlink:title=" ">
<polygon fill="white" stroke="#666666" points="167.5,-261 138.5,-261 138.5,-242 167.5,-242 167.5,-261"/>
<text text-anchor="middle" x="153" y="-249" font-family="Helvetica,sans-Serif" font-size="10.00">T</text>
</a>
</g>
</g>
<!-- Node6&#45;&gt;Node4 -->
<g id="edge5_Node000004_Node000006" class="edge">
<title>Node6&#45;&gt;Node4</title>
<g id="a_edge5_Node000004_Node000006"><a xlink:title=" ">
<path fill="none" stroke="#9a32cd" stroke-dasharray="5,2" d="M146.76,-232.43C142.74,-220.8 137.6,-205.9 133.88,-195.14"/>
<polygon fill="#9a32cd" stroke="#9a32cd" points="143.48,-233.67 150.06,-241.98 150.1,-231.38 143.48,-233.67"/>
</a>
</g>
<text text-anchor="middle" x="167.5" y="-216" font-family="Helvetica,sans-Serif" font-size="10.00" fill="grey"> elements</text>
</g>
</g>
</svg>
