<?xml version="1.0" encoding="UTF-8" standalone="no"?>
<!DOCTYPE svg PUBLIC "-//W3C//DTD SVG 1.1//EN"
 "http://www.w3.org/Graphics/SVG/1.1/DTD/svg11.dtd">
<!-- Generated by graphviz version 2.43.0 (0)
 -->
<!-- Title: designatort Pages: 1 -->
<svg width="1400pt" height="91pt"
 viewBox="0.00 0.00 1400.00 90.50" xmlns="http://www.w3.org/2000/svg" xmlns:xlink="http://www.w3.org/1999/xlink">
<g id="graph0" class="graph" transform="scale(1 1) rotate(0) translate(4 86.5)">
<title>designatort</title>
<!-- Node1 -->
<g id="Node000001" class="node">
<title>Node1</title>
<g id="a_Node000001"><a xlink:title=" ">
<polygon fill="#999999" stroke="#666666" points="1392,-36 1320,-36 1320,-17 1392,-17 1392,-36"/>
<text text-anchor="middle" x="1356" y="-24" font-family="Helvetica,sans-Serif" font-size="10.00">designatort</text>
</a>
</g>
</g>
<!-- Node2 -->
<g id="Node000002" class="node">
<title>Node2</title>
<g id="a_Node000002"><a xlink:title=" ">
<polygon fill="white" stroke="#666666" points="1233,-36 1113,-36 1113,-17 1233,-17 1233,-36"/>
<text text-anchor="middle" x="1173" y="-24" font-family="Helvetica,sans-Serif" font-size="10.00">std::vector&lt; entryt &gt;</text>
</a>
</g>
</g>
<!-- Node2&#45;&gt;Node1 -->
<g id="edge1_Node000001_Node000002" class="edge">
<title>Node2&#45;&gt;Node1</title>
<g id="a_edge1_Node000001_Node000002"><a xlink:title=" ">
<path fill="none" stroke="#9a32cd" stroke-dasharray="5,2" d="M1243.52,-26.5C1269.64,-26.5 1298.23,-26.5 1319.92,-26.5"/>
<polygon fill="#9a32cd" stroke="#9a32cd" points="1243.27,-23 1233.27,-26.5 1243.27,-30 1243.27,-23"/>
</a>
</g>
<text text-anchor="middle" x="1276.5" y="-29.5" font-family="Helvetica,sans-Serif" font-size="10.00" fill="grey"> index_list</text>
</g>
<!-- Node3 -->
<g id="Node000003" class="node">
<title>Node3</title>
<g id="a_Node000003"><a xlink:href="structdesignatort_1_1entryt.html" target="_top" xlink:title=" ">
<polygon fill="white" stroke="#666666" points="1022,-56 915,-56 915,-37 1022,-37 1022,-56"/>
<text text-anchor="middle" x="968.5" y="-44" font-family="Helvetica,sans-Serif" font-size="10.00">designatort::entryt</text>
</a>
</g>
</g>
<!-- Node3&#45;&gt;Node2 -->
<g id="edge2_Node000002_Node000003" class="edge">
<title>Node3&#45;&gt;Node2</title>
<g id="a_edge2_Node000002_Node000003"><a xlink:title=" ">
<path fill="none" stroke="#9a32cd" stroke-dasharray="5,2" d="M1032.18,-40.31C1057.88,-37.77 1087.47,-34.85 1112.8,-32.35"/>
<polygon fill="#9a32cd" stroke="#9a32cd" points="1031.78,-36.83 1022.18,-41.3 1032.47,-43.8 1031.78,-36.83"/>
</a>
</g>
<text text-anchor="middle" x="1067.5" y="-42.5" font-family="Helvetica,sans-Serif" font-size="10.00" fill="grey"> elements</text>
</g>
<!-- Node4 -->
<g id="Node000004" class="node">
<title>Node4</title>
<g id="a_Node000004"><a xlink:href="classtypet.html" target="_top" xlink:title="The type of an expression, extends irept.">
<polygon fill="white" stroke="#666666" points="836,-56 794,-56 794,-37 836,-37 836,-56"/>
<text text-anchor="middle" x="815" y="-44" font-family="Helvetica,sans-Serif" font-size="10.00">typet</text>
</a>
</g>
</g>
<!-- Node4&#45;&gt;Node3 -->
<g id="edge3_Node000003_Node000004" class="edge">
<title>Node4&#45;&gt;Node3</title>
<g id="a_edge3_Node000003_Node000004"><a xlink:title=" ">
<path fill="none" stroke="#9a32cd" stroke-dasharray="5,2" d="M846.3,-46.5C865.93,-46.5 892.03,-46.5 914.98,-46.5"/>
<polygon fill="#9a32cd" stroke="#9a32cd" points="846.12,-43 836.12,-46.5 846.12,-50 846.12,-43"/>
</a>
</g>
<text text-anchor="middle" x="875.5" y="-60.5" font-family="Helvetica,sans-Serif" font-size="10.00" fill="grey"> subtype</text>
<text text-anchor="middle" x="875.5" y="-49.5" font-family="Helvetica,sans-Serif" font-size="10.00" fill="grey">type</text>
</g>
<!-- Node5 -->
<g id="Node000005" class="node">
<title>Node5</title>
<g id="a_Node000005"><a xlink:href="classirept.html" target="_top" xlink:title="There are a large number of kinds of tree structured or tree&#45;like data in CPROVER.">
<polygon fill="white" stroke="#666666" points="757,-56 718,-56 718,-37 757,-37 757,-56"/>
<text text-anchor="middle" x="737.5" y="-44" font-family="Helvetica,sans-Serif" font-size="10.00">irept</text>
</a>
</g>
</g>
<!-- Node5&#45;&gt;Node4 -->
<g id="edge4_Node000004_Node000005" class="edge">
<title>Node5&#45;&gt;Node4</title>
<g id="a_edge4_Node000004_Node000005"><a xlink:title=" ">
<path fill="none" stroke="#63b8ff" d="M767.18,-46.5C776.11,-46.5 785.76,-46.5 793.97,-46.5"/>
<polygon fill="#63b8ff" stroke="#63b8ff" points="767.16,-43 757.16,-46.5 767.16,-50 767.16,-43"/>
</a>
</g>
</g>
<!-- Node6 -->
<g id="Node000006" class="node">
<title>Node6</title>
<g id="a_Node000006"><a xlink:href="classsharing__treet.html" target="_top" xlink:title=" ">
<polygon fill="white" stroke="#666666" points="681,-67 556,-67 556,-26 681,-26 681,-67"/>
<text text-anchor="start" x="564" y="-55" font-family="Helvetica,sans-Serif" font-size="10.00">sharing_treet&lt; irept,</text>
<text text-anchor="start" x="564" y="-44" font-family="Helvetica,sans-Serif" font-size="10.00"> forward_list_as_mapt</text>
<text text-anchor="middle" x="618.5" y="-33" font-family="Helvetica,sans-Serif" font-size="10.00">&lt; irep_idt, irept &gt; &gt;</text>
</a>
</g>
</g>
<!-- Node6&#45;&gt;Node5 -->
<g id="edge5_Node000005_Node000006" class="edge">
<title>Node6&#45;&gt;Node5</title>
<g id="a_edge5_Node000005_Node000006"><a xlink:title=" ">
<path fill="none" stroke="#63b8ff" d="M691.38,-46.5C701.13,-46.5 710.35,-46.5 717.89,-46.5"/>
<polygon fill="#63b8ff" stroke="#63b8ff" points="691.08,-43 681.08,-46.5 691.08,-50 691.08,-43"/>
</a>
</g>
</g>
<!-- Node7 -->
<g id="Node000007" class="node">
<title>Node7</title>
<g id="a_Node000007"><a xlink:href="classtree__nodet.html" target="_top" xlink:title="A node with data in a tree, it contains:">
<polygon fill="#fff0f0" stroke="red" points="158,-57.5 0,-57.5 0,-27.5 158,-27.5 158,-57.5"/>
<text text-anchor="start" x="8" y="-45.5" font-family="Helvetica,sans-Serif" font-size="10.00">tree_nodet&lt; treet,</text>
<text text-anchor="middle" x="79" y="-34.5" font-family="Helvetica,sans-Serif" font-size="10.00"> named_subtreest, sharing &gt;</text>
</a>
</g>
</g>
<!-- Node7&#45;&gt;Node6 -->
<g id="edge6_Node000006_Node000007" class="edge">
<title>Node7&#45;&gt;Node6</title>
<g id="a_edge6_Node000006_Node000007"><a xlink:title=" ">
<path fill="none" stroke="#9a32cd" stroke-dasharray="5,2" d="M168.32,-53.96C170.9,-54.16 173.47,-54.34 176,-54.5 336.58,-64.5 377.31,-62.56 538,-54.5 543.82,-54.21 549.87,-53.8 555.92,-53.31"/>
<polygon fill="#9a32cd" stroke="#9a32cd" points="168.51,-50.47 158.25,-53.1 167.91,-57.44 168.51,-50.47"/>
</a>
</g>
<text text-anchor="middle" x="305" y="-74.5" font-family="Helvetica,sans-Serif" font-size="10.00" fill="grey"> data</text>
<text text-anchor="middle" x="305" y="-63.5" font-family="Helvetica,sans-Serif" font-size="10.00" fill="grey">empty_d</text>
</g>
<!-- Node13 -->
<g id="Node000013" class="node">
<title>Node13</title>
<g id="a_Node000013"><a xlink:href="classsharing__treet.html" target="_top" xlink:title="Base class for tree&#45;like data structures with sharing.">
<polygon fill="white" stroke="#666666" points="373,-32.5 237,-32.5 237,-2.5 373,-2.5 373,-32.5"/>
<text text-anchor="start" x="245" y="-20.5" font-family="Helvetica,sans-Serif" font-size="10.00">sharing_treet&lt; derivedt,</text>
<text text-anchor="middle" x="305" y="-9.5" font-family="Helvetica,sans-Serif" font-size="10.00"> named_subtreest &gt;</text>
</a>
</g>
</g>
<!-- Node7&#45;&gt;Node13 -->
<g id="edge8_Node000013_Node000007" class="edge">
<title>Node7&#45;&gt;Node13</title>
<g id="a_edge8_Node000013_Node000007"><a xlink:title=" ">
<path fill="none" stroke="#9a32cd" stroke-dasharray="5,2" d="M168.06,-32.67C190.89,-30.12 215.11,-27.42 236.68,-25.01"/>
<polygon fill="#9a32cd" stroke="#9a32cd" points="167.58,-29.2 158.03,-33.79 168.36,-36.16 167.58,-29.2"/>
</a>
</g>
<text text-anchor="middle" x="197.5" y="-45.5" font-family="Helvetica,sans-Serif" font-size="10.00" fill="grey"> data</text>
<text text-anchor="middle" x="197.5" y="-34.5" font-family="Helvetica,sans-Serif" font-size="10.00" fill="grey">empty_d</text>
</g>
<!-- Node13&#45;&gt;Node6 -->
<g id="edge7_Node000006_Node000013" class="edge">
<title>Node13&#45;&gt;Node6</title>
<g id="a_edge7_Node000006_Node000013"><a xlink:title=" ">
<path fill="none" stroke="orange" stroke-dasharray="5,2" d="M383.21,-20.37C428.44,-22.58 486.59,-26.33 538,-32.5 543.84,-33.2 549.91,-34.05 555.97,-34.98"/>
<polygon fill="orange" stroke="orange" points="383.34,-16.87 373.18,-19.89 383.01,-23.86 383.34,-16.87"/>
</a>
</g>
<text text-anchor="start" x="391" y="-46.5" font-family="Helvetica,sans-Serif" font-size="10.00" fill="grey"> &lt; irept, forward_list</text>
<text text-anchor="middle" x="464.5" y="-35.5" font-family="Helvetica,sans-Serif" font-size="10.00" fill="grey">_as_mapt&lt; irep_idt, irept &gt; &gt;</text>
</g>
<!-- Node11 -->
<g id="Node000011" class="node">
<title>Node11</title>
<g id="a_Node000011"><a xlink:title=" ">
<polygon fill="#fff0f0" stroke="red" points="1017,-19 920,-19 920,0 1017,0 1017,-19"/>
<text text-anchor="middle" x="968.5" y="-7" font-family="Helvetica,sans-Serif" font-size="10.00">std::vector&lt; T &gt;</text>
</a>
</g>
</g>
<!-- Node11&#45;&gt;Node2 -->
<g id="edge9_Node000002_Node000011" class="edge">
<title>Node11&#45;&gt;Node2</title>
<g id="a_edge9_Node000002_Node000011"><a xlink:title=" ">
<path fill="none" stroke="orange" stroke-dasharray="5,2" d="M1027.48,-8.29C1048.76,-8.41 1073.02,-9.2 1095,-11.5 1106.51,-12.7 1118.87,-14.76 1130.24,-16.97"/>
<polygon fill="orange" stroke="orange" points="1027.3,-4.79 1017.29,-8.29 1027.29,-11.79 1027.3,-4.79"/>
</a>
</g>
<text text-anchor="middle" x="1067.5" y="-14.5" font-family="Helvetica,sans-Serif" font-size="10.00" fill="grey"> &lt; entryt &gt;</text>
</g>
</g>
</svg>
