<?xml version="1.0" encoding="UTF-8" standalone="no"?>
<!DOCTYPE svg PUBLIC "-//W3C//DTD SVG 1.1//EN"
 "http://www.w3.org/Graphics/SVG/1.1/DTD/svg11.dtd">
<!-- Generated by graphviz version 2.43.0 (0)
 -->
<!-- Title: interpretert::stack_framet Pages: 1 -->
<svg width="387pt" height="258pt"
 viewBox="0.00 0.00 386.50 258.00" xmlns="http://www.w3.org/2000/svg" xmlns:xlink="http://www.w3.org/1999/xlink">
<g id="graph0" class="graph" transform="scale(1 1) rotate(0) translate(4 254)">
<title>interpretert::stack_framet</title>
<!-- Node1 -->
<g id="Node000001" class="node">
<title>Node1</title>
<g id="a_Node000001"><a xlink:title=" ">
<polygon fill="#999999" stroke="#666666" points="181.5,-30 77.5,-30 77.5,0 181.5,0 181.5,-30"/>
<text text-anchor="start" x="85.5" y="-18" font-family="Helvetica,sans-Serif" font-size="10.00">interpretert::stack</text>
<text text-anchor="middle" x="129.5" y="-7" font-family="Helvetica,sans-Serif" font-size="10.00">_framet</text>
</a>
</g>
</g>
<!-- Node2 -->
<g id="Node000002" class="node">
<title>Node2</title>
<g id="a_Node000002"><a xlink:title=" ">
<polygon fill="white" stroke="#666666" points="133,-107 0,-107 0,-77 133,-77 133,-107"/>
<text text-anchor="start" x="8" y="-95" font-family="Helvetica,sans-Serif" font-size="10.00">std::map&lt; K, T &gt;::const</text>
<text text-anchor="middle" x="66.5" y="-84" font-family="Helvetica,sans-Serif" font-size="10.00">_iterator</text>
</a>
</g>
</g>
<!-- Node2&#45;&gt;Node1 -->
<g id="edge1_Node000001_Node000002" class="edge">
<title>Node2&#45;&gt;Node1</title>
<g id="a_edge1_Node000001_Node000002"><a xlink:title=" ">
<path fill="none" stroke="#9a32cd" stroke-dasharray="5,2" d="M79.27,-68.01C83.43,-61.29 88.33,-54.11 93.5,-48 98.9,-41.62 105.58,-35.34 111.71,-30.06"/>
<polygon fill="#9a32cd" stroke="#9a32cd" points="76.17,-66.37 74.08,-76.76 82.19,-69.94 76.17,-66.37"/>
</a>
</g>
<text text-anchor="middle" x="132.5" y="-51" font-family="Helvetica,sans-Serif" font-size="10.00" fill="grey"> return_function</text>
</g>
<!-- Node3 -->
<g id="Node000003" class="node">
<title>Node3</title>
<g id="a_Node000003"><a xlink:title=" ">
<polygon fill="white" stroke="#666666" points="288,-107 151,-107 151,-77 288,-77 288,-107"/>
<text text-anchor="start" x="159" y="-95" font-family="Helvetica,sans-Serif" font-size="10.00">std::unordered_map</text>
<text text-anchor="middle" x="219.5" y="-84" font-family="Helvetica,sans-Serif" font-size="10.00">&lt; irep_idt, mp_integer &gt;</text>
</a>
</g>
</g>
<!-- Node3&#45;&gt;Node1 -->
<g id="edge2_Node000001_Node000003" class="edge">
<title>Node3&#45;&gt;Node1</title>
<g id="a_edge2_Node000001_Node000003"><a xlink:title=" ">
<path fill="none" stroke="#9a32cd" stroke-dasharray="5,2" d="M196.75,-69.95C188.87,-62.84 179.91,-54.95 171.5,-48 164.15,-41.93 155.84,-35.51 148.57,-30.02"/>
<polygon fill="#9a32cd" stroke="#9a32cd" points="194.46,-72.6 204.21,-76.74 199.17,-67.42 194.46,-72.6"/>
</a>
</g>
<text text-anchor="middle" x="211.5" y="-51" font-family="Helvetica,sans-Serif" font-size="10.00" fill="grey"> local_map</text>
</g>
<!-- Node4 -->
<g id="Node000004" class="node">
<title>Node4</title>
<g id="a_Node000004"><a xlink:href="classdstringt.html" target="_top" xlink:title="dstringt has one field, an unsigned integer no which is an index into a static table of strings.">
<polygon fill="white" stroke="#666666" points="208.5,-178.5 154.5,-178.5 154.5,-159.5 208.5,-159.5 208.5,-178.5"/>
<text text-anchor="middle" x="181.5" y="-166.5" font-family="Helvetica,sans-Serif" font-size="10.00">dstringt</text>
</a>
</g>
</g>
<!-- Node4&#45;&gt;Node3 -->
<g id="edge3_Node000003_Node000004" class="edge">
<title>Node4&#45;&gt;Node3</title>
<g id="a_edge3_Node000003_Node000004"><a xlink:title=" ">
<path fill="none" stroke="#9a32cd" stroke-dasharray="5,2" d="M190.43,-150.38C197.11,-137.18 206.14,-119.37 212.35,-107.11"/>
<polygon fill="#9a32cd" stroke="#9a32cd" points="187.26,-148.89 185.86,-159.4 193.5,-152.06 187.26,-148.89"/>
</a>
</g>
<text text-anchor="middle" x="216.5" y="-128" font-family="Helvetica,sans-Serif" font-size="10.00" fill="grey"> keys</text>
</g>
<!-- Node5 -->
<g id="Node000005" class="node">
<title>Node5</title>
<g id="a_Node000005"><a xlink:title=" ">
<polygon fill="white" stroke="#666666" points="340.5,-184 226.5,-184 226.5,-154 340.5,-154 340.5,-184"/>
<text text-anchor="start" x="234.5" y="-172" font-family="Helvetica,sans-Serif" font-size="10.00">std::unordered_map</text>
<text text-anchor="middle" x="283.5" y="-161" font-family="Helvetica,sans-Serif" font-size="10.00">&lt; K, T &gt;</text>
</a>
</g>
</g>
<!-- Node5&#45;&gt;Node3 -->
<g id="edge4_Node000003_Node000005" class="edge">
<title>Node5&#45;&gt;Node3</title>
<g id="a_edge4_Node000003_Node000005"><a xlink:title=" ">
<path fill="none" stroke="orange" stroke-dasharray="5,2" d="M264.81,-146.1C254.05,-133.49 240.86,-118.03 231.48,-107.04"/>
<polygon fill="orange" stroke="orange" points="262.31,-148.56 271.46,-153.89 267.63,-144.01 262.31,-148.56"/>
</a>
</g>
<text text-anchor="middle" x="316.5" y="-128" font-family="Helvetica,sans-Serif" font-size="10.00" fill="grey"> &lt; irep_idt, mp_integer &gt;</text>
</g>
<!-- Node6 -->
<g id="Node000006" class="node">
<title>Node6</title>
<g id="a_Node000006"><a xlink:title=" ">
<polygon fill="white" stroke="#666666" points="273,-250 244,-250 244,-231 273,-231 273,-250"/>
<text text-anchor="middle" x="258.5" y="-238" font-family="Helvetica,sans-Serif" font-size="10.00">K</text>
</a>
</g>
</g>
<!-- Node6&#45;&gt;Node5 -->
<g id="edge5_Node000005_Node000006" class="edge">
<title>Node6&#45;&gt;Node5</title>
<g id="a_edge5_Node000005_Node000006"><a xlink:title=" ">
<path fill="none" stroke="#9a32cd" stroke-dasharray="5,2" d="M260.07,-220.89C260.96,-214.75 262.34,-207.97 264.5,-202 266.74,-195.8 270.21,-189.46 273.58,-184.08"/>
<polygon fill="#9a32cd" stroke="#9a32cd" points="256.58,-220.61 258.95,-230.93 263.54,-221.38 256.58,-220.61"/>
</a>
</g>
<text text-anchor="middle" x="277.5" y="-205" font-family="Helvetica,sans-Serif" font-size="10.00" fill="grey"> keys</text>
</g>
<!-- Node7 -->
<g id="Node000007" class="node">
<title>Node7</title>
<g id="a_Node000007"><a xlink:title=" ">
<polygon fill="white" stroke="#666666" points="322,-250 293,-250 293,-231 322,-231 322,-250"/>
<text text-anchor="middle" x="307.5" y="-238" font-family="Helvetica,sans-Serif" font-size="10.00">T</text>
</a>
</g>
</g>
<!-- Node7&#45;&gt;Node5 -->
<g id="edge6_Node000005_Node000007" class="edge">
<title>Node7&#45;&gt;Node5</title>
<g id="a_edge6_Node000005_Node000007"><a xlink:title=" ">
<path fill="none" stroke="#9a32cd" stroke-dasharray="5,2" d="M301.26,-221.43C297.24,-209.8 292.1,-194.9 288.38,-184.14"/>
<polygon fill="#9a32cd" stroke="#9a32cd" points="297.98,-222.67 304.56,-230.98 304.6,-220.38 297.98,-222.67"/>
</a>
</g>
<text text-anchor="middle" x="322" y="-205" font-family="Helvetica,sans-Serif" font-size="10.00" fill="grey"> elements</text>
</g>
</g>
</svg>
