<?xml version="1.0" encoding="UTF-8" standalone="no"?>
<!DOCTYPE svg PUBLIC "-//W3C//DTD SVG 1.1//EN"
 "http://www.w3.org/Graphics/SVG/1.1/DTD/svg11.dtd">
<!-- Generated by graphviz version 2.43.0 (0)
 -->
<!-- Title: goto_model_functiont Pages: 1 -->
<svg width="1711pt" height="375pt"
 viewBox="0.00 0.00 1711.00 375.20" xmlns="http://www.w3.org/2000/svg" xmlns:xlink="http://www.w3.org/1999/xlink">
<g id="graph0" class="graph" transform="scale(1 1) rotate(0) translate(4 371.2)">
<title>goto_model_functiont</title>
<!-- Node1 -->
<g id="Node000001" class="node">
<title>Node1</title>
<g id="a_Node000001"><a xlink:title="Interface providing access to a single function in a GOTO model, plus its associated symbol table.">
<polygon fill="#999999" stroke="#666666" points="1703,-192.7 1580,-192.7 1580,-173.7 1703,-173.7 1703,-192.7"/>
<text text-anchor="middle" x="1641.5" y="-180.7" font-family="Helvetica,sans-Serif" font-size="10.00">goto_model_functiont</text>
</a>
</g>
</g>
<!-- Node2 -->
<g id="Node000002" class="node">
<title>Node2</title>
<g id="a_Node000002"><a xlink:href="classjournalling__symbol__tablet.html" target="_top" xlink:title="A symbol table wrapper that records which entries have been updated/removedA caller can pass a journa...">
<polygon fill="white" stroke="#666666" points="1270,-265.2 1160,-265.2 1160,-235.2 1270,-235.2 1270,-265.2"/>
<text text-anchor="start" x="1168" y="-253.2" font-family="Helvetica,sans-Serif" font-size="10.00">journalling_symbol</text>
<text text-anchor="middle" x="1215" y="-242.2" font-family="Helvetica,sans-Serif" font-size="10.00">_tablet</text>
</a>
</g>
</g>
<!-- Node2&#45;&gt;Node1 -->
<g id="edge1_Node000001_Node000002" class="edge">
<title>Node2&#45;&gt;Node1</title>
<g id="a_edge1_Node000001_Node000002"><a xlink:title=" ">
<path fill="none" stroke="#9a32cd" stroke-dasharray="5,2" d="M1279.92,-240.89C1349.42,-230.65 1463.72,-213.49 1562,-197.2 1570.47,-195.8 1579.44,-194.25 1588.17,-192.72"/>
<polygon fill="#9a32cd" stroke="#9a32cd" points="1279.39,-237.43 1270,-242.35 1280.41,-244.35 1279.39,-237.43"/>
</a>
</g>
<text text-anchor="middle" x="1422" y="-228.2" font-family="Helvetica,sans-Serif" font-size="10.00" fill="grey"> symbol_table</text>
</g>
<!-- Node3 -->
<g id="Node000003" class="node">
<title>Node3</title>
<g id="a_Node000003"><a xlink:href="classsymbol__table__baset.html" target="_top" xlink:title="The symbol table base class interface.">
<polygon fill="white" stroke="#666666" points="1026,-275.7 911,-275.7 911,-256.7 1026,-256.7 1026,-275.7"/>
<text text-anchor="middle" x="968.5" y="-263.7" font-family="Helvetica,sans-Serif" font-size="10.00">symbol_table_baset</text>
</a>
</g>
</g>
<!-- Node3&#45;&gt;Node2 -->
<g id="edge2_Node000002_Node000003" class="edge">
<title>Node3&#45;&gt;Node2</title>
<g id="a_edge2_Node000002_Node000003"><a xlink:title=" ">
<path fill="none" stroke="#63b8ff" d="M1019.33,-254.79C1027.53,-253.31 1035.98,-252.02 1044,-251.2 1082.61,-247.24 1126.41,-247.08 1159.88,-247.87"/>
<polygon fill="#63b8ff" stroke="#63b8ff" points="1018.66,-251.36 1009.49,-256.67 1019.97,-258.23 1018.66,-251.36"/>
</a>
</g>
</g>
<!-- Node3&#45;&gt;Node2 -->
<g id="edge11_Node000002_Node000003" class="edge">
<title>Node3&#45;&gt;Node2</title>
<g id="a_edge11_Node000002_Node000003"><a xlink:title=" ">
<path fill="none" stroke="#9a32cd" stroke-dasharray="5,2" d="M1036.36,-261.83C1075.12,-259.29 1123.3,-256.14 1159.7,-253.75"/>
<polygon fill="#9a32cd" stroke="#9a32cd" points="1035.96,-258.34 1026.21,-262.49 1036.42,-265.33 1035.96,-258.34"/>
</a>
</g>
<text text-anchor="middle" x="1093" y="-263.2" font-family="Helvetica,sans-Serif" font-size="10.00" fill="grey"> base_symbol_table</text>
</g>
<!-- Node4 -->
<g id="Node000004" class="node">
<title>Node4</title>
<g id="a_Node000004"><a xlink:title=" ">
<polygon fill="white" stroke="#666666" points="454.5,-319.2 340.5,-319.2 340.5,-289.2 454.5,-289.2 454.5,-319.2"/>
<text text-anchor="start" x="348.5" y="-307.2" font-family="Helvetica,sans-Serif" font-size="10.00">std::unordered_map</text>
<text text-anchor="middle" x="397.5" y="-296.2" font-family="Helvetica,sans-Serif" font-size="10.00">&lt; K, T &gt;</text>
</a>
</g>
</g>
<!-- Node4&#45;&gt;Node3 -->
<g id="edge3_Node000003_Node000004" class="edge">
<title>Node4&#45;&gt;Node3</title>
<g id="a_edge3_Node000003_Node000004"><a xlink:title=" ">
<path fill="none" stroke="#9a32cd" stroke-dasharray="5,2" d="M464.67,-307.8C560.05,-311.72 741.36,-314.43 893,-289.2 909.82,-286.4 928.13,-280.79 942.39,-275.8"/>
<polygon fill="#9a32cd" stroke="#9a32cd" points="464.74,-304.3 454.59,-307.36 464.44,-311.29 464.74,-304.3"/>
</a>
</g>
<text text-anchor="middle" x="672" y="-313.2" font-family="Helvetica,sans-Serif" font-size="10.00" fill="grey"> symbols</text>
</g>
<!-- Node5 -->
<g id="Node000005" class="node">
<title>Node5</title>
<g id="a_Node000005"><a xlink:title=" ">
<polygon fill="white" stroke="#666666" points="177,-263.7 148,-263.7 148,-244.7 177,-244.7 177,-263.7"/>
<text text-anchor="middle" x="162.5" y="-251.7" font-family="Helvetica,sans-Serif" font-size="10.00">K</text>
</a>
</g>
</g>
<!-- Node5&#45;&gt;Node4 -->
<g id="edge4_Node000004_Node000005" class="edge">
<title>Node5&#45;&gt;Node4</title>
<g id="a_edge4_Node000004_Node000005"><a xlink:title=" ">
<path fill="none" stroke="#9a32cd" stroke-dasharray="5,2" d="M187.1,-257.34C216.36,-261.42 267.68,-269.23 311,-279.2 323.36,-282.04 336.57,-285.63 348.83,-289.19"/>
<polygon fill="#9a32cd" stroke="#9a32cd" points="187.41,-253.84 177.03,-255.96 186.46,-260.78 187.41,-253.84"/>
</a>
</g>
<text text-anchor="middle" x="270" y="-282.2" font-family="Helvetica,sans-Serif" font-size="10.00" fill="grey"> keys</text>
</g>
<!-- Node9 -->
<g id="Node000009" class="node">
<title>Node9</title>
<g id="a_Node000009"><a xlink:title=" ">
<polygon fill="white" stroke="#666666" points="460.5,-253.7 334.5,-253.7 334.5,-234.7 460.5,-234.7 460.5,-253.7"/>
<text text-anchor="middle" x="397.5" y="-241.7" font-family="Helvetica,sans-Serif" font-size="10.00">std::multimap&lt; K, T &gt;</text>
</a>
</g>
</g>
<!-- Node5&#45;&gt;Node9 -->
<g id="edge9_Node000009_Node000005" class="edge">
<title>Node5&#45;&gt;Node9</title>
<g id="a_edge9_Node000009_Node000005"><a xlink:title=" ">
<path fill="none" stroke="#9a32cd" stroke-dasharray="5,2" d="M187.24,-250.18C199.65,-248.27 215.1,-246.19 229,-245.2 263.81,-242.72 302.79,-242.34 334.38,-242.64"/>
<polygon fill="#9a32cd" stroke="#9a32cd" points="186.57,-246.74 177.25,-251.78 187.67,-253.65 186.57,-246.74"/>
</a>
</g>
<text text-anchor="middle" x="270" y="-248.2" font-family="Helvetica,sans-Serif" font-size="10.00" fill="grey"> keys</text>
</g>
<!-- Node11 -->
<g id="Node000011" class="node">
<title>Node11</title>
<g id="a_Node000011"><a xlink:title=" ">
<polygon fill="white" stroke="#666666" points="466,-359.7 329,-359.7 329,-340.7 466,-340.7 466,-359.7"/>
<text text-anchor="middle" x="397.5" y="-347.7" font-family="Helvetica,sans-Serif" font-size="10.00">std::unordered_set&lt; K &gt;</text>
</a>
</g>
</g>
<!-- Node5&#45;&gt;Node11 -->
<g id="edge15_Node000011_Node000005" class="edge">
<title>Node5&#45;&gt;Node11</title>
<g id="a_edge15_Node000011_Node000005"><a xlink:title=" ">
<path fill="none" stroke="#9a32cd" stroke-dasharray="5,2" d="M186.08,-267.17C194.02,-271.82 202.96,-277.15 211,-282.2 219.14,-287.31 220.38,-289.95 229,-294.2 271.11,-314.95 284.46,-313.37 329,-328.2 341.4,-332.33 355.1,-336.81 366.9,-340.64"/>
<polygon fill="#9a32cd" stroke="#9a32cd" points="187.74,-264.09 177.34,-262.09 184.23,-270.14 187.74,-264.09"/>
</a>
</g>
<text text-anchor="middle" x="270" y="-324.2" font-family="Helvetica,sans-Serif" font-size="10.00" fill="grey"> keys</text>
</g>
<!-- Node20 -->
<g id="Node000020" class="node">
<title>Node20</title>
<g id="a_Node000020"><a xlink:title=" ">
<polygon fill="white" stroke="#666666" points="448,-130.7 347,-130.7 347,-111.7 448,-111.7 448,-130.7"/>
<text text-anchor="middle" x="397.5" y="-118.7" font-family="Helvetica,sans-Serif" font-size="10.00">std::map&lt; K, T &gt;</text>
</a>
</g>
</g>
<!-- Node5&#45;&gt;Node20 -->
<g id="edge30_Node000020_Node000005" class="edge">
<title>Node5&#45;&gt;Node20</title>
<g id="a_edge30_Node000020_Node000005"><a xlink:title=" ">
<path fill="none" stroke="#9a32cd" stroke-dasharray="5,2" d="M185.75,-239.28C217.06,-218.57 276.19,-180.47 329,-152.2 343.67,-144.35 360.69,-136.54 373.97,-130.72"/>
<polygon fill="#9a32cd" stroke="#9a32cd" points="183.72,-236.43 177.33,-244.88 187.59,-242.26 183.72,-236.43"/>
</a>
</g>
<text text-anchor="middle" x="270" y="-213.2" font-family="Helvetica,sans-Serif" font-size="10.00" fill="grey"> keys</text>
</g>
<!-- Node6 -->
<g id="Node000006" class="node">
<title>Node6</title>
<g id="a_Node000006"><a xlink:title=" ">
<polygon fill="white" stroke="#666666" points="29,-130.7 0,-130.7 0,-111.7 29,-111.7 29,-130.7"/>
<text text-anchor="middle" x="14.5" y="-118.7" font-family="Helvetica,sans-Serif" font-size="10.00">T</text>
</a>
</g>
</g>
<!-- Node6&#45;&gt;Node4 -->
<g id="edge5_Node000004_Node000006" class="edge">
<title>Node6&#45;&gt;Node4</title>
<g id="a_edge5_Node000004_Node000006"><a xlink:title=" ">
<path fill="none" stroke="#9a32cd" stroke-dasharray="5,2" d="M22,-140.56C34.25,-173.77 64.09,-241.12 114,-273.2 182.38,-317.15 279.75,-317.37 340.47,-311.95"/>
<polygon fill="#9a32cd" stroke="#9a32cd" points="25.15,-138.96 18.52,-130.7 18.55,-141.3 25.15,-138.96"/>
</a>
</g>
<text text-anchor="middle" x="162.5" y="-310.2" font-family="Helvetica,sans-Serif" font-size="10.00" fill="grey"> elements</text>
</g>
<!-- Node6&#45;&gt;Node9 -->
<g id="edge10_Node000009_Node000006" class="edge">
<title>Node6&#45;&gt;Node9</title>
<g id="a_edge10_Node000009_Node000006"><a xlink:title=" ">
<path fill="none" stroke="#9a32cd" stroke-dasharray="5,2" d="M38.49,-131.76C41.33,-132.97 44.22,-134.14 47,-135.2 159.73,-178.07 297.36,-217.27 361.04,-234.69"/>
<polygon fill="#9a32cd" stroke="#9a32cd" points="39.73,-128.49 29.16,-127.67 36.91,-134.89 39.73,-128.49"/>
</a>
</g>
<text text-anchor="middle" x="162.5" y="-193.2" font-family="Helvetica,sans-Serif" font-size="10.00" fill="grey"> elements</text>
</g>
<!-- Node17 -->
<g id="Node000017" class="node">
<title>Node17</title>
<g id="a_Node000017"><a xlink:title=" ">
<polygon fill="white" stroke="#666666" points="211,-70.7 114,-70.7 114,-51.7 211,-51.7 211,-70.7"/>
<text text-anchor="middle" x="162.5" y="-58.7" font-family="Helvetica,sans-Serif" font-size="10.00">std::vector&lt; T &gt;</text>
</a>
</g>
</g>
<!-- Node6&#45;&gt;Node17 -->
<g id="edge23_Node000017_Node000006" class="edge">
<title>Node6&#45;&gt;Node17</title>
<g id="a_edge23_Node000017_Node000006"><a xlink:title=" ">
<path fill="none" stroke="#9a32cd" stroke-dasharray="5,2" d="M33.55,-105.01C37.76,-101.77 42.38,-98.63 47,-96.2 68.81,-84.74 94.96,-76.39 116.76,-70.73"/>
<polygon fill="#9a32cd" stroke="#9a32cd" points="31.08,-102.51 25.59,-111.57 35.54,-107.91 31.08,-102.51"/>
</a>
</g>
<text text-anchor="middle" x="71.5" y="-99.2" font-family="Helvetica,sans-Serif" font-size="10.00" fill="grey"> elements</text>
</g>
<!-- Node18 -->
<g id="Node000018" class="node">
<title>Node18</title>
<g id="a_Node000018"><a xlink:title=" ">
<polygon fill="white" stroke="#666666" points="203,-22.7 122,-22.7 122,-3.7 203,-3.7 203,-22.7"/>
<text text-anchor="middle" x="162.5" y="-10.7" font-family="Helvetica,sans-Serif" font-size="10.00">std::list&lt; T &gt;</text>
</a>
</g>
</g>
<!-- Node6&#45;&gt;Node18 -->
<g id="edge25_Node000018_Node000006" class="edge">
<title>Node6&#45;&gt;Node18</title>
<g id="a_edge25_Node000018_Node000006"><a xlink:title=" ">
<path fill="none" stroke="#9a32cd" stroke-dasharray="5,2" d="M21.69,-101.95C26.71,-88.96 34.96,-72.24 47,-61.2 68.05,-41.9 97.98,-29.72 121.96,-22.46"/>
<polygon fill="#9a32cd" stroke="#9a32cd" points="18.38,-100.79 18.33,-111.39 24.98,-103.13 18.38,-100.79"/>
</a>
</g>
<text text-anchor="middle" x="71.5" y="-64.2" font-family="Helvetica,sans-Serif" font-size="10.00" fill="grey"> elements</text>
</g>
<!-- Node6&#45;&gt;Node20 -->
<g id="edge31_Node000020_Node000006" class="edge">
<title>Node6&#45;&gt;Node20</title>
<g id="a_edge31_Node000020_Node000006"><a xlink:title=" ">
<path fill="none" stroke="#9a32cd" stroke-dasharray="5,2" d="M39.23,-121.2C100.32,-121.2 264,-121.2 346.91,-121.2"/>
<polygon fill="#9a32cd" stroke="#9a32cd" points="39.06,-117.7 29.06,-121.2 39.06,-124.7 39.06,-117.7"/>
</a>
</g>
<text text-anchor="middle" x="162.5" y="-124.2" font-family="Helvetica,sans-Serif" font-size="10.00" fill="grey"> elements</text>
</g>
<!-- Node7 -->
<g id="Node000007" class="node">
<title>Node7</title>
<g id="a_Node000007"><a xlink:title=" ">
<polygon fill="white" stroke="#666666" points="729.5,-272.2 614.5,-272.2 614.5,-242.2 729.5,-242.2 729.5,-272.2"/>
<text text-anchor="start" x="622.5" y="-260.2" font-family="Helvetica,sans-Serif" font-size="10.00">std::multimap&lt; irep</text>
<text text-anchor="middle" x="672" y="-249.2" font-family="Helvetica,sans-Serif" font-size="10.00">_idt, irep_idt &gt;</text>
</a>
</g>
</g>
<!-- Node7&#45;&gt;Node3 -->
<g id="edge6_Node000003_Node000007" class="edge">
<title>Node7&#45;&gt;Node3</title>
<g id="a_edge6_Node000003_Node000007"><a xlink:title=" ">
<path fill="none" stroke="#9a32cd" stroke-dasharray="5,2" d="M739.84,-259.24C791.44,-260.82 862.05,-262.98 910.89,-264.47"/>
<polygon fill="#9a32cd" stroke="#9a32cd" points="739.88,-255.74 729.78,-258.94 739.67,-262.74 739.88,-255.74"/>
</a>
</g>
<text text-anchor="middle" x="823.5" y="-277.2" font-family="Helvetica,sans-Serif" font-size="10.00" fill="grey"> symbol_base_map</text>
<text text-anchor="middle" x="823.5" y="-266.2" font-family="Helvetica,sans-Serif" font-size="10.00" fill="grey">symbol_module_map</text>
</g>
<!-- Node8 -->
<g id="Node000008" class="node">
<title>Node8</title>
<g id="a_Node000008"><a xlink:href="classdstringt.html" target="_top" xlink:title="dstringt has one field, an unsigned integer no which is an index into a static table of strings.">
<polygon fill="white" stroke="#666666" points="424.5,-179.7 370.5,-179.7 370.5,-160.7 424.5,-160.7 424.5,-179.7"/>
<text text-anchor="middle" x="397.5" y="-167.7" font-family="Helvetica,sans-Serif" font-size="10.00">dstringt</text>
</a>
</g>
</g>
<!-- Node8&#45;&gt;Node1 -->
<g id="edge32_Node000001_Node000008" class="edge">
<title>Node8&#45;&gt;Node1</title>
<g id="a_edge32_Node000001_Node000008"><a xlink:title=" ">
<path fill="none" stroke="#9a32cd" stroke-dasharray="5,2" d="M434.88,-172.07C508.2,-175.66 678.95,-183.2 822.5,-183.2 822.5,-183.2 822.5,-183.2 1423,-183.2 1475.86,-183.2 1535.96,-183.2 1579.56,-183.2"/>
<polygon fill="#9a32cd" stroke="#9a32cd" points="434.95,-168.57 424.79,-171.57 434.6,-175.56 434.95,-168.57"/>
</a>
</g>
<text text-anchor="middle" x="1093" y="-186.2" font-family="Helvetica,sans-Serif" font-size="10.00" fill="grey"> function_id</text>
</g>
<!-- Node8&#45;&gt;Node7 -->
<g id="edge7_Node000007_Node000008" class="edge">
<title>Node8&#45;&gt;Node7</title>
<g id="a_edge7_Node000007_Node000008"><a xlink:title=" ">
<path fill="none" stroke="#9a32cd" stroke-dasharray="5,2" d="M434.68,-174.86C482.06,-181.26 562.35,-193.24 590,-204.2 613.28,-213.43 636.9,-229.87 652.58,-242"/>
<polygon fill="#9a32cd" stroke="#9a32cd" points="434.91,-171.36 424.53,-173.5 433.98,-178.3 434.91,-171.36"/>
</a>
</g>
<text text-anchor="middle" x="537" y="-218.2" font-family="Helvetica,sans-Serif" font-size="10.00" fill="grey"> elements</text>
<text text-anchor="middle" x="537" y="-207.2" font-family="Helvetica,sans-Serif" font-size="10.00" fill="grey">keys</text>
</g>
<!-- Node10 -->
<g id="Node000010" class="node">
<title>Node10</title>
<g id="a_Node000010"><a xlink:title=" ">
<polygon fill="white" stroke="#666666" points="725.5,-367.2 618.5,-367.2 618.5,-337.2 725.5,-337.2 725.5,-367.2"/>
<text text-anchor="start" x="626.5" y="-355.2" font-family="Helvetica,sans-Serif" font-size="10.00">std::unordered_set</text>
<text text-anchor="middle" x="672" y="-344.2" font-family="Helvetica,sans-Serif" font-size="10.00">&lt; irep_idt &gt;</text>
</a>
</g>
</g>
<!-- Node8&#45;&gt;Node10 -->
<g id="edge13_Node000010_Node000008" class="edge">
<title>Node8&#45;&gt;Node10</title>
<g id="a_edge13_Node000010_Node000008"><a xlink:title=" ">
<path fill="none" stroke="#9a32cd" stroke-dasharray="5,2" d="M418.16,-186.26C434.74,-198.99 459.61,-216.24 484,-226.2 528.46,-244.36 555.42,-213.87 590,-247.2 614.99,-271.29 586.01,-296.34 608,-323.2 612.58,-328.79 618.47,-333.35 624.81,-337.06"/>
<polygon fill="#9a32cd" stroke="#9a32cd" points="419.88,-183.16 409.86,-179.73 415.56,-188.66 419.88,-183.16"/>
</a>
</g>
<text text-anchor="middle" x="537" y="-250.2" font-family="Helvetica,sans-Serif" font-size="10.00" fill="grey"> keys</text>
</g>
<!-- Node13 -->
<g id="Node000013" class="node">
<title>Node13</title>
<g id="a_Node000013"><a xlink:title=" ">
<polygon fill="white" stroke="#666666" points="1270,-139.2 1160,-139.2 1160,-109.2 1270,-109.2 1270,-139.2"/>
<text text-anchor="start" x="1168" y="-127.2" font-family="Helvetica,sans-Serif" font-size="10.00">std::map&lt; irep_idt,</text>
<text text-anchor="middle" x="1215" y="-116.2" font-family="Helvetica,sans-Serif" font-size="10.00"> goto_functiont &gt;</text>
</a>
</g>
</g>
<!-- Node8&#45;&gt;Node13 -->
<g id="edge18_Node000013_Node000008" class="edge">
<title>Node8&#45;&gt;Node13</title>
<g id="a_edge18_Node000013_Node000008"><a xlink:title=" ">
<path fill="none" stroke="#9a32cd" stroke-dasharray="5,2" d="M434.67,-164.85C449.87,-162.79 467.76,-160.59 484,-159.2 775.65,-134.28 850,-151.59 1142,-131.2 1147.76,-130.8 1153.78,-130.31 1159.77,-129.79"/>
<polygon fill="#9a32cd" stroke="#9a32cd" points="434.05,-161.4 424.63,-166.25 435.02,-168.34 434.05,-161.4"/>
</a>
</g>
<text text-anchor="middle" x="823.5" y="-147.2" font-family="Helvetica,sans-Serif" font-size="10.00" fill="grey"> keys</text>
</g>
<!-- Node19 -->
<g id="Node000019" class="node">
<title>Node19</title>
<g id="a_Node000019"><a xlink:title=" ">
<polygon fill="white" stroke="#666666" points="736,-76.7 608,-76.7 608,-57.7 736,-57.7 736,-76.7"/>
<text text-anchor="middle" x="672" y="-64.7" font-family="Helvetica,sans-Serif" font-size="10.00">std::vector&lt; irep_idt &gt;</text>
</a>
</g>
</g>
<!-- Node8&#45;&gt;Node19 -->
<g id="edge27_Node000019_Node000008" class="edge">
<title>Node8&#45;&gt;Node19</title>
<g id="a_edge27_Node000019_Node000008"><a xlink:title=" ">
<path fill="none" stroke="#9a32cd" stroke-dasharray="5,2" d="M433.81,-157.81C444.66,-153.16 456.29,-147.25 466,-140.2 475.68,-133.17 473.85,-126.52 484,-120.2 521.52,-96.83 569.61,-83.5 607.62,-76.05"/>
<polygon fill="#9a32cd" stroke="#9a32cd" points="432.49,-154.57 424.54,-161.58 435.12,-161.06 432.49,-154.57"/>
</a>
</g>
<text text-anchor="middle" x="537" y="-123.2" font-family="Helvetica,sans-Serif" font-size="10.00" fill="grey"> elements</text>
</g>
<!-- Node9&#45;&gt;Node7 -->
<g id="edge8_Node000007_Node000009" class="edge">
<title>Node9&#45;&gt;Node7</title>
<g id="a_edge8_Node000007_Node000009"><a xlink:title=" ">
<path fill="none" stroke="orange" stroke-dasharray="5,2" d="M450.75,-255.56C461.68,-257.49 473.18,-259.2 484,-260.2 527.65,-264.25 577.26,-263.19 614.41,-261.29"/>
<polygon fill="orange" stroke="orange" points="451.37,-252.12 440.9,-253.74 450.1,-259 451.37,-252.12"/>
</a>
</g>
<text text-anchor="middle" x="537" y="-265.2" font-family="Helvetica,sans-Serif" font-size="10.00" fill="grey"> &lt; irep_idt, irep_idt &gt;</text>
</g>
<!-- Node10&#45;&gt;Node2 -->
<g id="edge12_Node000002_Node000010" class="edge">
<title>Node10&#45;&gt;Node2</title>
<g id="a_edge12_Node000002_Node000010"><a xlink:title=" ">
<path fill="none" stroke="#9a32cd" stroke-dasharray="5,2" d="M735.76,-345.37C826.39,-334.72 998.76,-311.54 1142,-275.2 1152.65,-272.5 1163.96,-268.92 1174.38,-265.32"/>
<polygon fill="#9a32cd" stroke="#9a32cd" points="735.18,-341.91 725.65,-346.54 735.99,-348.87 735.18,-341.91"/>
</a>
</g>
<text text-anchor="middle" x="968.5" y="-345.2" font-family="Helvetica,sans-Serif" font-size="10.00" fill="grey"> inserted</text>
<text text-anchor="middle" x="968.5" y="-334.2" font-family="Helvetica,sans-Serif" font-size="10.00" fill="grey">removed</text>
<text text-anchor="middle" x="968.5" y="-323.2" font-family="Helvetica,sans-Serif" font-size="10.00" fill="grey">updated</text>
</g>
<!-- Node11&#45;&gt;Node10 -->
<g id="edge14_Node000010_Node000011" class="edge">
<title>Node11&#45;&gt;Node10</title>
<g id="a_edge14_Node000010_Node000011"><a xlink:title=" ">
<path fill="none" stroke="orange" stroke-dasharray="5,2" d="M476.32,-350.77C521.76,-351.11 577.9,-351.52 618.2,-351.81"/>
<polygon fill="orange" stroke="orange" points="476.24,-347.27 466.21,-350.7 476.18,-354.27 476.24,-347.27"/>
</a>
</g>
<text text-anchor="middle" x="537" y="-354.2" font-family="Helvetica,sans-Serif" font-size="10.00" fill="grey"> &lt; irep_idt &gt;</text>
</g>
<!-- Node12 -->
<g id="Node000012" class="node">
<title>Node12</title>
<g id="a_Node000012"><a xlink:href="classgoto__functionst.html" target="_top" xlink:title="A collection of goto functions.">
<polygon fill="white" stroke="#666666" points="1468,-153.7 1376,-153.7 1376,-134.7 1468,-134.7 1468,-153.7"/>
<text text-anchor="middle" x="1422" y="-141.7" font-family="Helvetica,sans-Serif" font-size="10.00">goto_functionst</text>
</a>
</g>
</g>
<!-- Node12&#45;&gt;Node1 -->
<g id="edge16_Node000001_Node000012" class="edge">
<title>Node12&#45;&gt;Node1</title>
<g id="a_edge16_Node000001_Node000012"><a xlink:title=" ">
<path fill="none" stroke="#9a32cd" stroke-dasharray="5,2" d="M1478.4,-147.13C1504.03,-149.16 1534.76,-152.56 1562,-158.2 1580.07,-161.95 1599.86,-168.26 1615.05,-173.61"/>
<polygon fill="#9a32cd" stroke="#9a32cd" points="1478.35,-143.62 1468.12,-146.36 1477.83,-150.6 1478.35,-143.62"/>
</a>
</g>
<text text-anchor="middle" x="1524" y="-161.2" font-family="Helvetica,sans-Serif" font-size="10.00" fill="grey"> goto_functions</text>
</g>
<!-- Node13&#45;&gt;Node12 -->
<g id="edge17_Node000012_Node000013" class="edge">
<title>Node13&#45;&gt;Node12</title>
<g id="a_edge17_Node000012_Node000013"><a xlink:title=" ">
<path fill="none" stroke="#9a32cd" stroke-dasharray="5,2" d="M1280.43,-130.49C1311.46,-133.51 1347.92,-137.07 1375.93,-139.8"/>
<polygon fill="#9a32cd" stroke="#9a32cd" points="1280.42,-126.97 1270.13,-129.48 1279.74,-133.94 1280.42,-126.97"/>
</a>
</g>
<text text-anchor="middle" x="1323" y="-140.2" font-family="Helvetica,sans-Serif" font-size="10.00" fill="grey"> function_map</text>
</g>
<!-- Node14 -->
<g id="Node000014" class="node">
<title>Node14</title>
<g id="a_Node000014"><a xlink:href="classgoto__functiont.html" target="_top" xlink:title="A goto function, consisting of function body (see body) and parameter identifiers (see parameter_iden...">
<polygon fill="white" stroke="#666666" points="1012,-76.7 925,-76.7 925,-57.7 1012,-57.7 1012,-76.7"/>
<text text-anchor="middle" x="968.5" y="-64.7" font-family="Helvetica,sans-Serif" font-size="10.00">goto_functiont</text>
</a>
</g>
</g>
<!-- Node14&#45;&gt;Node13 -->
<g id="edge19_Node000013_Node000014" class="edge">
<title>Node14&#45;&gt;Node13</title>
<g id="a_edge19_Node000013_Node000014"><a xlink:title=" ">
<path fill="none" stroke="#9a32cd" stroke-dasharray="5,2" d="M1022.73,-65.86C1057.44,-66.42 1103.31,-69.92 1142,-82.2 1160.76,-88.16 1179.91,-99.64 1193.74,-109.09"/>
<polygon fill="#9a32cd" stroke="#9a32cd" points="1022.37,-62.35 1012.34,-65.77 1022.31,-69.35 1022.37,-62.35"/>
</a>
</g>
<text text-anchor="middle" x="1093" y="-85.2" font-family="Helvetica,sans-Serif" font-size="10.00" fill="grey"> elements</text>
</g>
<!-- Node15 -->
<g id="Node000015" class="node">
<title>Node15</title>
<g id="a_Node000015"><a xlink:href="classgoto__programt.html" target="_top" xlink:title="A generic container class for the GOTO intermediate representation of one function.">
<polygon fill="white" stroke="#666666" points="716.5,-35.7 627.5,-35.7 627.5,-16.7 716.5,-16.7 716.5,-35.7"/>
<text text-anchor="middle" x="672" y="-23.7" font-family="Helvetica,sans-Serif" font-size="10.00">goto_programt</text>
</a>
</g>
</g>
<!-- Node15&#45;&gt;Node14 -->
<g id="edge20_Node000014_Node000015" class="edge">
<title>Node15&#45;&gt;Node14</title>
<g id="a_edge20_Node000014_Node000015"><a xlink:title=" ">
<path fill="none" stroke="#9a32cd" stroke-dasharray="5,2" d="M726.6,-31.31C771.25,-35.86 836.45,-43.18 893,-52.2 903.29,-53.84 914.33,-55.9 924.67,-57.96"/>
<polygon fill="#9a32cd" stroke="#9a32cd" points="726.86,-27.82 716.56,-30.3 726.16,-34.78 726.86,-27.82"/>
</a>
</g>
<text text-anchor="middle" x="823.5" y="-55.2" font-family="Helvetica,sans-Serif" font-size="10.00" fill="grey"> body</text>
</g>
<!-- Node16 -->
<g id="Node000016" class="node">
<title>Node16</title>
<g id="a_Node000016"><a xlink:title=" ">
<polygon fill="white" stroke="#666666" points="463,-24.7 332,-24.7 332,-5.7 463,-5.7 463,-24.7"/>
<text text-anchor="middle" x="397.5" y="-12.7" font-family="Helvetica,sans-Serif" font-size="10.00">std::list&lt; instructiont &gt;</text>
</a>
</g>
</g>
<!-- Node16&#45;&gt;Node15 -->
<g id="edge21_Node000015_Node000016" class="edge">
<title>Node16&#45;&gt;Node15</title>
<g id="a_edge21_Node000015_Node000016"><a xlink:title=" ">
<path fill="none" stroke="#9a32cd" stroke-dasharray="5,2" d="M473.1,-18.21C522.57,-20.21 585.79,-22.76 627.29,-24.44"/>
<polygon fill="#9a32cd" stroke="#9a32cd" points="473.21,-14.71 463.08,-17.81 472.93,-21.71 473.21,-14.71"/>
</a>
</g>
<text text-anchor="middle" x="537" y="-26.2" font-family="Helvetica,sans-Serif" font-size="10.00" fill="grey"> instructions</text>
</g>
<!-- Node17&#45;&gt;Node16 -->
<g id="edge22_Node000016_Node000017" class="edge">
<title>Node17&#45;&gt;Node16</title>
<g id="a_edge22_Node000016_Node000017"><a xlink:title=" ">
<path fill="none" stroke="#9a32cd" stroke-dasharray="5,2" d="M194.08,-47.79C204.92,-43.5 217.34,-39.11 229,-36.2 262.41,-27.86 300.44,-22.75 331.81,-19.67"/>
<polygon fill="#9a32cd" stroke="#9a32cd" points="192.55,-44.63 184.62,-51.66 195.2,-51.11 192.55,-44.63"/>
</a>
</g>
<text text-anchor="middle" x="270" y="-39.2" font-family="Helvetica,sans-Serif" font-size="10.00" fill="grey"> elements</text>
</g>
<!-- Node17&#45;&gt;Node19 -->
<g id="edge28_Node000019_Node000017" class="edge">
<title>Node17&#45;&gt;Node19</title>
<g id="a_edge28_Node000019_Node000017"><a xlink:title=" ">
<path fill="none" stroke="orange" stroke-dasharray="5,2" d="M221.34,-61.88C317.21,-63.02 508.31,-65.28 607.68,-66.45"/>
<polygon fill="orange" stroke="orange" points="221.29,-58.38 211.24,-61.77 221.2,-65.38 221.29,-58.38"/>
</a>
</g>
<text text-anchor="middle" x="397.5" y="-67.2" font-family="Helvetica,sans-Serif" font-size="10.00" fill="grey"> &lt; irep_idt &gt;</text>
</g>
<!-- Node18&#45;&gt;Node16 -->
<g id="edge24_Node000016_Node000018" class="edge">
<title>Node18&#45;&gt;Node16</title>
<g id="a_edge24_Node000016_Node000018"><a xlink:title=" ">
<path fill="none" stroke="orange" stroke-dasharray="5,2" d="M213.29,-3.95C218.58,-3.24 223.89,-2.63 229,-2.2 265.32,0.83 274.66,0.55 311,-2.2 321.03,-2.96 331.67,-4.21 341.91,-5.65"/>
<polygon fill="orange" stroke="orange" points="212.58,-0.52 203.2,-5.45 213.6,-7.45 212.58,-0.52"/>
</a>
</g>
<text text-anchor="middle" x="270" y="-5.2" font-family="Helvetica,sans-Serif" font-size="10.00" fill="grey"> &lt; instructiont &gt;</text>
</g>
<!-- Node19&#45;&gt;Node14 -->
<g id="edge26_Node000014_Node000019" class="edge">
<title>Node19&#45;&gt;Node14</title>
<g id="a_edge26_Node000014_Node000019"><a xlink:title=" ">
<path fill="none" stroke="#9a32cd" stroke-dasharray="5,2" d="M746.44,-67.2C802.65,-67.2 878.23,-67.2 924.86,-67.2"/>
<polygon fill="#9a32cd" stroke="#9a32cd" points="746.18,-63.7 736.18,-67.2 746.18,-70.7 746.18,-63.7"/>
</a>
</g>
<text text-anchor="middle" x="823.5" y="-70.2" font-family="Helvetica,sans-Serif" font-size="10.00" fill="grey"> parameter_identifiers</text>
</g>
<!-- Node20&#45;&gt;Node13 -->
<g id="edge29_Node000013_Node000020" class="edge">
<title>Node20&#45;&gt;Node13</title>
<g id="a_edge29_Node000013_Node000020"><a xlink:title=" ">
<path fill="none" stroke="orange" stroke-dasharray="5,2" d="M458.4,-118.69C551.41,-115.1 736.19,-109.27 893,-112.2 986.81,-113.95 1095.97,-118.59 1159.78,-121.56"/>
<polygon fill="orange" stroke="orange" points="458.19,-115.19 448.33,-119.08 458.46,-122.19 458.19,-115.19"/>
</a>
</g>
<text text-anchor="middle" x="823.5" y="-115.2" font-family="Helvetica,sans-Serif" font-size="10.00" fill="grey"> &lt; irep_idt, goto_functiont &gt;</text>
</g>
</g>
</svg>
