<?xml version="1.0" encoding="UTF-8" standalone="no"?>
<!DOCTYPE svg PUBLIC "-//W3C//DTD SVG 1.1//EN"
 "http://www.w3.org/Graphics/SVG/1.1/DTD/svg11.dtd">
<!-- Generated by graphviz version 2.43.0 (0)
 -->
<!-- Title: mini_bddt Pages: 1 -->
<svg width="936pt" height="381pt"
 viewBox="0.00 0.00 936.00 381.00" xmlns="http://www.w3.org/2000/svg" xmlns:xlink="http://www.w3.org/1999/xlink">
<g id="graph0" class="graph" transform="scale(1 1) rotate(0) translate(4 377)">
<title>mini_bddt</title>
<!-- Node1 -->
<g id="Node000001" class="node">
<title>Node1</title>
<g id="a_Node000001"><a xlink:title=" ">
<polygon fill="#999999" stroke="#666666" points="206,-358.5 141,-358.5 141,-339.5 206,-339.5 206,-358.5"/>
<text text-anchor="middle" x="173.5" y="-346.5" font-family="Helvetica,sans-Serif" font-size="10.00">mini_bddt</text>
</a>
</g>
</g>
<!-- Node2 -->
<g id="Node000002" class="node">
<title>Node2</title>
<g id="a_Node000002"><a xlink:href="classmini__bdd__nodet.html" target="_top" xlink:title=" ">
<polygon fill="white" stroke="#666666" points="418,-318.5 323,-318.5 323,-299.5 418,-299.5 418,-318.5"/>
<text text-anchor="middle" x="370.5" y="-306.5" font-family="Helvetica,sans-Serif" font-size="10.00">mini_bdd_nodet</text>
</a>
</g>
</g>
<!-- Node1&#45;&gt;Node2 -->
<g id="edge24_Node000002_Node000001" class="edge">
<title>Node1&#45;&gt;Node2</title>
<g id="a_edge24_Node000002_Node000001"><a xlink:title=" ">
<path fill="none" stroke="#9a32cd" stroke-dasharray="5,2" d="M187.51,-331.57C196.47,-321.11 209.35,-308.75 224,-303 258.94,-289.27 302.31,-293.49 332.56,-299.45"/>
<polygon fill="#9a32cd" stroke="#9a32cd" points="184.77,-329.4 181.22,-339.38 190.22,-333.79 184.77,-329.4"/>
</a>
</g>
<text text-anchor="middle" x="248.5" y="-317" font-family="Helvetica,sans-Serif" font-size="10.00" fill="grey"> high</text>
<text text-anchor="middle" x="248.5" y="-306" font-family="Helvetica,sans-Serif" font-size="10.00" fill="grey">low</text>
</g>
<!-- Node3 -->
<g id="Node000003" class="node">
<title>Node3</title>
<g id="a_Node000003"><a xlink:href="classmini__bdd__mgrt.html" target="_top" xlink:title=" ">
<polygon fill="white" stroke="#666666" points="928,-268.5 838,-268.5 838,-249.5 928,-249.5 928,-268.5"/>
<text text-anchor="middle" x="883" y="-256.5" font-family="Helvetica,sans-Serif" font-size="10.00">mini_bdd_mgrt</text>
</a>
</g>
</g>
<!-- Node1&#45;&gt;Node3 -->
<g id="edge13_Node000003_Node000001" class="edge">
<title>Node1&#45;&gt;Node3</title>
<g id="a_edge13_Node000003_Node000001"><a xlink:title=" ">
<path fill="none" stroke="#9a32cd" stroke-dasharray="5,2" d="M216.26,-352.62C218.88,-352.77 221.47,-352.9 224,-353 245.76,-353.88 251.23,-353.57 273,-353 478.54,-347.66 531.78,-360.25 735,-329 773.57,-323.07 784.97,-324.19 820,-307 840.53,-296.93 860.82,-279.4 872.34,-268.55"/>
<polygon fill="#9a32cd" stroke="#9a32cd" points="216.38,-349.12 206.16,-351.94 215.91,-356.1 216.38,-349.12"/>
</a>
</g>
<text text-anchor="middle" x="524" y="-365" font-family="Helvetica,sans-Serif" font-size="10.00" fill="grey"> false_bdd</text>
<text text-anchor="middle" x="524" y="-354" font-family="Helvetica,sans-Serif" font-size="10.00" fill="grey">true_bdd</text>
</g>
<!-- Node2&#45;&gt;Node1 -->
<g id="edge1_Node000001_Node000002" class="edge">
<title>Node2&#45;&gt;Node1</title>
<g id="a_edge1_Node000001_Node000002"><a xlink:title=" ">
<path fill="none" stroke="#9a32cd" stroke-dasharray="5,2" d="M313.16,-320.56C278.42,-327.68 235.14,-336.56 206.26,-342.48"/>
<polygon fill="#9a32cd" stroke="#9a32cd" points="314.08,-323.94 323.18,-318.5 312.68,-317.08 314.08,-323.94"/>
</a>
</g>
<text text-anchor="middle" x="248.5" y="-341" font-family="Helvetica,sans-Serif" font-size="10.00" fill="grey"> node</text>
</g>
<!-- Node10 -->
<g id="Node000010" class="node">
<title>Node10</title>
<g id="a_Node000010"><a xlink:title=" ">
<polygon fill="white" stroke="#666666" points="721,-295 612,-295 612,-265 721,-265 721,-295"/>
<text text-anchor="start" x="620" y="-283" font-family="Helvetica,sans-Serif" font-size="10.00">std::list&lt; mini_bdd</text>
<text text-anchor="middle" x="666.5" y="-272" font-family="Helvetica,sans-Serif" font-size="10.00">_nodet &gt;</text>
</a>
</g>
</g>
<!-- Node2&#45;&gt;Node10 -->
<g id="edge10_Node000010_Node000002" class="edge">
<title>Node2&#45;&gt;Node10</title>
<g id="a_edge10_Node000010_Node000002"><a xlink:title=" ">
<path fill="none" stroke="#9a32cd" stroke-dasharray="5,2" d="M428.34,-303.39C481.38,-298.16 559.94,-290.41 611.91,-285.29"/>
<polygon fill="#9a32cd" stroke="#9a32cd" points="427.69,-299.94 418.09,-304.4 428.38,-306.91 427.69,-299.94"/>
</a>
</g>
<text text-anchor="middle" x="524" y="-301" font-family="Helvetica,sans-Serif" font-size="10.00" fill="grey"> elements</text>
</g>
<!-- Node12 -->
<g id="Node000012" class="node">
<title>Node12</title>
<g id="a_Node000012"><a xlink:title=" ">
<polygon fill="white" stroke="#666666" points="735,-167 598,-167 598,-137 735,-137 735,-167"/>
<text text-anchor="start" x="606" y="-155" font-family="Helvetica,sans-Serif" font-size="10.00">std::map&lt; reverse_keyt,</text>
<text text-anchor="middle" x="666.5" y="-144" font-family="Helvetica,sans-Serif" font-size="10.00"> mini_bdd_nodet * &gt;</text>
</a>
</g>
</g>
<!-- Node2&#45;&gt;Node12 -->
<g id="edge16_Node000012_Node000002" class="edge">
<title>Node2&#45;&gt;Node12</title>
<g id="a_edge16_Node000012_Node000002"><a xlink:title=" ">
<path fill="none" stroke="#9a32cd" stroke-dasharray="5,2" d="M427.56,-298.71C436.04,-294.98 443.96,-289.9 450,-283 478.31,-250.67 437.51,-218.28 468,-188 486.12,-170.01 548.18,-160.82 597.95,-156.25"/>
<polygon fill="#9a32cd" stroke="#9a32cd" points="426.32,-295.44 418.21,-302.25 428.8,-301.98 426.32,-295.44"/>
</a>
</g>
<text text-anchor="middle" x="524" y="-191" font-family="Helvetica,sans-Serif" font-size="10.00" fill="grey"> elements</text>
</g>
<!-- Node16 -->
<g id="Node000016" class="node">
<title>Node16</title>
<g id="a_Node000016"><a xlink:title=" ">
<polygon fill="white" stroke="#666666" points="726.5,-247 606.5,-247 606.5,-217 726.5,-217 726.5,-247"/>
<text text-anchor="start" x="614.5" y="-235" font-family="Helvetica,sans-Serif" font-size="10.00">std::stack&lt; mini_bdd</text>
<text text-anchor="middle" x="666.5" y="-224" font-family="Helvetica,sans-Serif" font-size="10.00">_nodet * &gt;</text>
</a>
</g>
</g>
<!-- Node2&#45;&gt;Node16 -->
<g id="edge21_Node000016_Node000002" class="edge">
<title>Node2&#45;&gt;Node16</title>
<g id="a_edge21_Node000016_Node000002"><a xlink:title=" ">
<path fill="none" stroke="#9a32cd" stroke-dasharray="5,2" d="M427.62,-295.81C435.61,-292.44 443.36,-288.24 450,-283 461.91,-273.61 455.17,-262.1 468,-254 508.99,-228.12 564.48,-224.02 606.2,-225.59"/>
<polygon fill="#9a32cd" stroke="#9a32cd" points="426.29,-292.57 418.18,-299.39 428.78,-299.12 426.29,-292.57"/>
</a>
</g>
<text text-anchor="middle" x="524" y="-257" font-family="Helvetica,sans-Serif" font-size="10.00" fill="grey"> elements</text>
</g>
<!-- Node3&#45;&gt;Node2 -->
<g id="edge2_Node000002_Node000003" class="edge">
<title>Node3&#45;&gt;Node2</title>
<g id="a_edge2_Node000002_Node000003"><a xlink:title=" ">
<path fill="none" stroke="#9a32cd" stroke-dasharray="5,2" d="M853.46,-272.87C843.1,-277.52 831.19,-282.42 820,-286 783.22,-297.77 773.27,-298.87 735,-304 622.09,-319.15 487.69,-315.42 418.24,-311.9"/>
<polygon fill="#9a32cd" stroke="#9a32cd" points="855.22,-275.91 862.84,-268.54 852.29,-269.55 855.22,-275.91"/>
</a>
</g>
<text text-anchor="middle" x="666.5" y="-317" font-family="Helvetica,sans-Serif" font-size="10.00" fill="grey"> mgr</text>
</g>
<!-- Node4 -->
<g id="Node000004" class="node">
<title>Node4</title>
<g id="a_Node000004"><a xlink:title=" ">
<polygon fill="white" stroke="#666666" points="729,-73 604,-73 604,-43 729,-43 729,-73"/>
<text text-anchor="start" x="612" y="-61" font-family="Helvetica,sans-Serif" font-size="10.00">std::vector&lt; var_table</text>
<text text-anchor="middle" x="666.5" y="-50" font-family="Helvetica,sans-Serif" font-size="10.00">_entryt &gt;</text>
</a>
</g>
</g>
<!-- Node4&#45;&gt;Node3 -->
<g id="edge3_Node000003_Node000004" class="edge">
<title>Node4&#45;&gt;Node3</title>
<g id="a_edge3_Node000003_Node000004"><a xlink:title=" ">
<path fill="none" stroke="#9a32cd" stroke-dasharray="5,2" d="M699.04,-78.95C731.32,-101.19 781.98,-138.4 820,-177 843.29,-200.65 865.47,-233.22 875.85,-249.27"/>
<polygon fill="#9a32cd" stroke="#9a32cd" points="700.69,-75.83 690.45,-73.08 696.74,-81.61 700.69,-75.83"/>
</a>
</g>
<text text-anchor="middle" x="786.5" y="-180" font-family="Helvetica,sans-Serif" font-size="10.00" fill="grey"> var_table</text>
</g>
<!-- Node5 -->
<g id="Node000005" class="node">
<title>Node5</title>
<g id="a_Node000005"><a xlink:href="structmini__bdd__mgrt_1_1var__table__entryt.html" target="_top" xlink:title=" ">
<polygon fill="white" stroke="#666666" points="426.5,-30 314.5,-30 314.5,0 426.5,0 426.5,-30"/>
<text text-anchor="start" x="322.5" y="-18" font-family="Helvetica,sans-Serif" font-size="10.00">mini_bdd_mgrt::var</text>
<text text-anchor="middle" x="370.5" y="-7" font-family="Helvetica,sans-Serif" font-size="10.00">_table_entryt</text>
</a>
</g>
</g>
<!-- Node5&#45;&gt;Node4 -->
<g id="edge4_Node000004_Node000005" class="edge">
<title>Node5&#45;&gt;Node4</title>
<g id="a_edge4_Node000004_Node000005"><a xlink:title=" ">
<path fill="none" stroke="#9a32cd" stroke-dasharray="5,2" d="M437.06,-23.12C478.18,-28.38 532.25,-35.61 580,-43 587.74,-44.2 595.87,-45.53 603.9,-46.89"/>
<polygon fill="#9a32cd" stroke="#9a32cd" points="437.26,-19.62 426.9,-21.82 436.38,-26.56 437.26,-19.62"/>
</a>
</g>
<text text-anchor="middle" x="524" y="-46" font-family="Helvetica,sans-Serif" font-size="10.00" fill="grey"> elements</text>
</g>
<!-- Node6 -->
<g id="Node000006" class="node">
<title>Node6</title>
<g id="a_Node000006"><a xlink:title=" ">
<polygon fill="white" stroke="#666666" points="206,-24.5 141,-24.5 141,-5.5 206,-5.5 206,-24.5"/>
<text text-anchor="middle" x="173.5" y="-12.5" font-family="Helvetica,sans-Serif" font-size="10.00">std::string</text>
</a>
</g>
</g>
<!-- Node6&#45;&gt;Node5 -->
<g id="edge5_Node000005_Node000006" class="edge">
<title>Node6&#45;&gt;Node5</title>
<g id="a_edge5_Node000005_Node000006"><a xlink:title=" ">
<path fill="none" stroke="#9a32cd" stroke-dasharray="5,2" d="M216.36,-15C245.03,-15 283.35,-15 314.49,-15"/>
<polygon fill="#9a32cd" stroke="#9a32cd" points="216.26,-11.5 206.26,-15 216.26,-18.5 216.26,-11.5"/>
</a>
</g>
<text text-anchor="middle" x="248.5" y="-18" font-family="Helvetica,sans-Serif" font-size="10.00" fill="grey"> label</text>
</g>
<!-- Node7 -->
<g id="Node000007" class="node">
<title>Node7</title>
<g id="a_Node000007"><a xlink:title=" ">
<polygon fill="white" stroke="#666666" points="104,-30 0,-30 0,0 104,0 104,-30"/>
<text text-anchor="start" x="8" y="-18" font-family="Helvetica,sans-Serif" font-size="10.00">std::basic_string&lt;</text>
<text text-anchor="middle" x="52" y="-7" font-family="Helvetica,sans-Serif" font-size="10.00"> Char &gt;</text>
</a>
</g>
</g>
<!-- Node7&#45;&gt;Node6 -->
<g id="edge6_Node000006_Node000007" class="edge">
<title>Node7&#45;&gt;Node6</title>
<g id="a_edge6_Node000006_Node000007"><a xlink:title=" ">
<path fill="none" stroke="#63b8ff" d="M114.1,-15C123.41,-15 132.68,-15 141,-15"/>
<polygon fill="#63b8ff" stroke="#63b8ff" points="114.03,-11.5 104.03,-15 114.03,-18.5 114.03,-11.5"/>
</a>
</g>
</g>
<!-- Node8 -->
<g id="Node000008" class="node">
<title>Node8</title>
<g id="a_Node000008"><a xlink:title=" ">
<polygon fill="white" stroke="#666666" points="419,-67.5 322,-67.5 322,-48.5 419,-48.5 419,-67.5"/>
<text text-anchor="middle" x="370.5" y="-55.5" font-family="Helvetica,sans-Serif" font-size="10.00">std::vector&lt; T &gt;</text>
</a>
</g>
</g>
<!-- Node8&#45;&gt;Node4 -->
<g id="edge7_Node000004_Node000008" class="edge">
<title>Node8&#45;&gt;Node4</title>
<g id="a_edge7_Node000004_Node000008"><a xlink:title=" ">
<path fill="none" stroke="orange" stroke-dasharray="5,2" d="M429.14,-58C479.51,-58 552.45,-58 603.95,-58"/>
<polygon fill="orange" stroke="orange" points="429.06,-54.5 419.06,-58 429.06,-61.5 429.06,-54.5"/>
</a>
</g>
<text text-anchor="middle" x="524" y="-61" font-family="Helvetica,sans-Serif" font-size="10.00" fill="grey"> &lt; var_table_entryt &gt;</text>
</g>
<!-- Node9 -->
<g id="Node000009" class="node">
<title>Node9</title>
<g id="a_Node000009"><a xlink:title=" ">
<polygon fill="white" stroke="#666666" points="188,-200.5 159,-200.5 159,-181.5 188,-181.5 188,-200.5"/>
<text text-anchor="middle" x="173.5" y="-188.5" font-family="Helvetica,sans-Serif" font-size="10.00">T</text>
</a>
</g>
</g>
<!-- Node9&#45;&gt;Node8 -->
<g id="edge8_Node000008_Node000009" class="edge">
<title>Node9&#45;&gt;Node8</title>
<g id="a_edge8_Node000008_Node000009"><a xlink:title=" ">
<path fill="none" stroke="#9a32cd" stroke-dasharray="5,2" d="M191.63,-174.29C200.86,-165.69 212.65,-155.28 224,-147 244.44,-132.08 256.3,-137.01 273,-118 286.4,-102.74 275.41,-89.02 291,-76 299.69,-68.74 310.75,-64.27 321.79,-61.56"/>
<polygon fill="#9a32cd" stroke="#9a32cd" points="189.09,-171.88 184.26,-181.3 193.92,-176.95 189.09,-171.88"/>
</a>
</g>
<text text-anchor="middle" x="248.5" y="-150" font-family="Helvetica,sans-Serif" font-size="10.00" fill="grey"> elements</text>
</g>
<!-- Node11 -->
<g id="Node000011" class="node">
<title>Node11</title>
<g id="a_Node000011"><a xlink:title=" ">
<polygon fill="white" stroke="#666666" points="411,-273.5 330,-273.5 330,-254.5 411,-254.5 411,-273.5"/>
<text text-anchor="middle" x="370.5" y="-261.5" font-family="Helvetica,sans-Serif" font-size="10.00">std::list&lt; T &gt;</text>
</a>
</g>
</g>
<!-- Node9&#45;&gt;Node11 -->
<g id="edge12_Node000011_Node000009" class="edge">
<title>Node9&#45;&gt;Node11</title>
<g id="a_edge12_Node000011_Node000009"><a xlink:title=" ">
<path fill="none" stroke="#9a32cd" stroke-dasharray="5,2" d="M197.29,-202.2C205.62,-206.12 215.16,-210.44 224,-214 263.02,-229.72 309.1,-245.02 338.79,-254.47"/>
<polygon fill="#9a32cd" stroke="#9a32cd" points="198.73,-199 188.2,-197.83 195.7,-205.31 198.73,-199"/>
</a>
</g>
<text text-anchor="middle" x="248.5" y="-234" font-family="Helvetica,sans-Serif" font-size="10.00" fill="grey"> elements</text>
</g>
<!-- Node14 -->
<g id="Node000014" class="node">
<title>Node14</title>
<g id="a_Node000014"><a xlink:title=" ">
<polygon fill="white" stroke="#666666" points="421,-141.5 320,-141.5 320,-122.5 421,-122.5 421,-141.5"/>
<text text-anchor="middle" x="370.5" y="-129.5" font-family="Helvetica,sans-Serif" font-size="10.00">std::map&lt; K, T &gt;</text>
</a>
</g>
</g>
<!-- Node9&#45;&gt;Node14 -->
<g id="edge19_Node000014_Node000009" class="edge">
<title>Node9&#45;&gt;Node14</title>
<g id="a_edge19_Node000014_Node000009"><a xlink:title=" ">
<path fill="none" stroke="#9a32cd" stroke-dasharray="5,2" d="M198.01,-183.89C232.96,-173.31 298.71,-153.42 337.86,-141.57"/>
<polygon fill="#9a32cd" stroke="#9a32cd" points="196.77,-180.61 188.21,-186.85 198.8,-187.31 196.77,-180.61"/>
</a>
</g>
<text text-anchor="middle" x="248.5" y="-179" font-family="Helvetica,sans-Serif" font-size="10.00" fill="grey"> elements</text>
</g>
<!-- Node17 -->
<g id="Node000017" class="node">
<title>Node17</title>
<g id="a_Node000017"><a xlink:title=" ">
<polygon fill="white" stroke="#666666" points="416.5,-217.5 324.5,-217.5 324.5,-198.5 416.5,-198.5 416.5,-217.5"/>
<text text-anchor="middle" x="370.5" y="-205.5" font-family="Helvetica,sans-Serif" font-size="10.00">std::stack&lt; T &gt;</text>
</a>
</g>
</g>
<!-- Node9&#45;&gt;Node17 -->
<g id="edge23_Node000017_Node000009" class="edge">
<title>Node9&#45;&gt;Node17</title>
<g id="a_edge23_Node000017_Node000009"><a xlink:title=" ">
<path fill="none" stroke="#9a32cd" stroke-dasharray="5,2" d="M198.57,-193.1C229.84,-195.82 285.05,-200.64 324.25,-204.06"/>
<polygon fill="#9a32cd" stroke="#9a32cd" points="198.48,-189.58 188.21,-192.2 197.87,-196.55 198.48,-189.58"/>
</a>
</g>
<text text-anchor="middle" x="248.5" y="-202" font-family="Helvetica,sans-Serif" font-size="10.00" fill="grey"> elements</text>
</g>
<!-- Node10&#45;&gt;Node3 -->
<g id="edge9_Node000003_Node000010" class="edge">
<title>Node10&#45;&gt;Node3</title>
<g id="a_edge9_Node000003_Node000010"><a xlink:title=" ">
<path fill="none" stroke="#9a32cd" stroke-dasharray="5,2" d="M731.46,-273.74C765.73,-270.38 807.08,-266.33 837.77,-263.33"/>
<polygon fill="#9a32cd" stroke="#9a32cd" points="730.69,-270.3 721.07,-274.75 731.37,-277.26 730.69,-270.3"/>
</a>
</g>
<text text-anchor="middle" x="786.5" y="-274" font-family="Helvetica,sans-Serif" font-size="10.00" fill="grey"> nodes</text>
</g>
<!-- Node11&#45;&gt;Node10 -->
<g id="edge11_Node000010_Node000011" class="edge">
<title>Node11&#45;&gt;Node10</title>
<g id="a_edge11_Node000010_Node000011"><a xlink:title=" ">
<path fill="none" stroke="orange" stroke-dasharray="5,2" d="M421.3,-266.71C474.19,-269.59 557.48,-274.12 611.8,-277.08"/>
<polygon fill="orange" stroke="orange" points="421.33,-263.21 411.15,-266.16 420.95,-270.2 421.33,-263.21"/>
</a>
</g>
<text text-anchor="middle" x="524" y="-278" font-family="Helvetica,sans-Serif" font-size="10.00" fill="grey"> &lt; mini_bdd_nodet &gt;</text>
</g>
<!-- Node12&#45;&gt;Node3 -->
<g id="edge14_Node000003_Node000012" class="edge">
<title>Node12&#45;&gt;Node3</title>
<g id="a_edge14_Node000003_Node000012"><a xlink:title=" ">
<path fill="none" stroke="#9a32cd" stroke-dasharray="5,2" d="M708.65,-171.46C739.46,-186.15 782.56,-206.96 820,-226 835.11,-233.68 852.09,-242.75 864.45,-249.44"/>
<polygon fill="#9a32cd" stroke="#9a32cd" points="710.04,-168.24 699.51,-167.1 707.03,-174.56 710.04,-168.24"/>
</a>
</g>
<text text-anchor="middle" x="786.5" y="-229" font-family="Helvetica,sans-Serif" font-size="10.00" fill="grey"> reverse_map</text>
</g>
<!-- Node13 -->
<g id="Node000013" class="node">
<title>Node13</title>
<g id="a_Node000013"><a xlink:href="structmini__bdd__mgrt_1_1reverse__keyt.html" target="_top" xlink:title=" ">
<polygon fill="white" stroke="#666666" points="450,-104.5 291,-104.5 291,-85.5 450,-85.5 450,-104.5"/>
<text text-anchor="middle" x="370.5" y="-92.5" font-family="Helvetica,sans-Serif" font-size="10.00">mini_bdd_mgrt::reverse_keyt</text>
</a>
</g>
</g>
<!-- Node13&#45;&gt;Node12 -->
<g id="edge15_Node000012_Node000013" class="edge">
<title>Node13&#45;&gt;Node12</title>
<g id="a_edge15_Node000012_Node000013"><a xlink:title=" ">
<path fill="none" stroke="#9a32cd" stroke-dasharray="5,2" d="M460.75,-94.62C498.12,-96.32 541.7,-100.73 580,-111 601.31,-116.71 623.73,-127.68 640.27,-136.83"/>
<polygon fill="#9a32cd" stroke="#9a32cd" points="460.51,-91.11 450.38,-94.22 460.23,-98.11 460.51,-91.11"/>
</a>
</g>
<text text-anchor="middle" x="524" y="-114" font-family="Helvetica,sans-Serif" font-size="10.00" fill="grey"> keys</text>
</g>
<!-- Node14&#45;&gt;Node12 -->
<g id="edge17_Node000012_Node000014" class="edge">
<title>Node14&#45;&gt;Node12</title>
<g id="a_edge17_Node000012_Node000014"><a xlink:title=" ">
<path fill="none" stroke="orange" stroke-dasharray="5,2" d="M431.03,-127.17C472.87,-124.81 530.07,-123.68 580,-130 591.71,-131.48 604.11,-134.06 615.73,-136.95"/>
<polygon fill="orange" stroke="orange" points="430.78,-123.68 421.01,-127.77 431.2,-130.67 430.78,-123.68"/>
</a>
</g>
<text text-anchor="start" x="471" y="-144" font-family="Helvetica,sans-Serif" font-size="10.00" fill="grey"> &lt; reverse_keyt, mini</text>
<text text-anchor="middle" x="524" y="-133" font-family="Helvetica,sans-Serif" font-size="10.00" fill="grey">_bdd_nodet * &gt;</text>
</g>
<!-- Node15 -->
<g id="Node000015" class="node">
<title>Node15</title>
<g id="a_Node000015"><a xlink:title=" ">
<polygon fill="white" stroke="#666666" points="188,-115.5 159,-115.5 159,-96.5 188,-96.5 188,-115.5"/>
<text text-anchor="middle" x="173.5" y="-103.5" font-family="Helvetica,sans-Serif" font-size="10.00">K</text>
</a>
</g>
</g>
<!-- Node15&#45;&gt;Node14 -->
<g id="edge18_Node000014_Node000015" class="edge">
<title>Node15&#45;&gt;Node14</title>
<g id="a_edge18_Node000014_Node000015"><a xlink:title=" ">
<path fill="none" stroke="#9a32cd" stroke-dasharray="5,2" d="M198.43,-104.18C218.49,-103.14 247.81,-102.78 273,-107 281.32,-108.39 282.89,-110.67 291,-113 302.73,-116.37 315.55,-119.64 327.37,-122.49"/>
<polygon fill="#9a32cd" stroke="#9a32cd" points="198.09,-100.69 188.32,-104.8 198.52,-107.68 198.09,-100.69"/>
</a>
</g>
<text text-anchor="middle" x="248.5" y="-110" font-family="Helvetica,sans-Serif" font-size="10.00" fill="grey"> keys</text>
</g>
<!-- Node16&#45;&gt;Node3 -->
<g id="edge20_Node000003_Node000016" class="edge">
<title>Node16&#45;&gt;Node3</title>
<g id="a_edge20_Node000003_Node000016"><a xlink:title=" ">
<path fill="none" stroke="#9a32cd" stroke-dasharray="5,2" d="M736.75,-239.78C762.86,-242.82 792.82,-246.42 820,-250 825.82,-250.77 831.95,-251.61 837.99,-252.46"/>
<polygon fill="#9a32cd" stroke="#9a32cd" points="736.9,-236.27 726.57,-238.6 736.1,-243.23 736.9,-236.27"/>
</a>
</g>
<text text-anchor="middle" x="786.5" y="-253" font-family="Helvetica,sans-Serif" font-size="10.00" fill="grey"> free</text>
</g>
<!-- Node17&#45;&gt;Node16 -->
<g id="edge22_Node000016_Node000017" class="edge">
<title>Node17&#45;&gt;Node16</title>
<g id="a_edge22_Node000016_Node000017"><a xlink:title=" ">
<path fill="none" stroke="orange" stroke-dasharray="5,2" d="M426.94,-204.4C469.11,-202.6 528.46,-202.06 580,-209 592.49,-210.68 605.75,-213.65 618.01,-216.9"/>
<polygon fill="orange" stroke="orange" points="426.7,-200.91 416.88,-204.87 427.03,-207.9 426.7,-200.91"/>
</a>
</g>
<text text-anchor="middle" x="524" y="-212" font-family="Helvetica,sans-Serif" font-size="10.00" fill="grey"> &lt; mini_bdd_nodet * &gt;</text>
</g>
</g>
</svg>
