<?xml version="1.0" encoding="UTF-8" standalone="no"?>
<!DOCTYPE svg PUBLIC "-//W3C//DTD SVG 1.1//EN"
 "http://www.w3.org/Graphics/SVG/1.1/DTD/svg11.dtd">
<!-- Generated by graphviz version 2.43.0 (0)
 -->
<!-- Title: method_bytecodet Pages: 1 -->
<svg width="2144pt" height="706pt"
 viewBox="0.00 0.00 2144.00 705.50" xmlns="http://www.w3.org/2000/svg" xmlns:xlink="http://www.w3.org/1999/xlink">
<g id="graph0" class="graph" transform="scale(1 1) rotate(0) translate(4 701.5)">
<title>method_bytecodet</title>
<!-- Node1 -->
<g id="Node000001" class="node">
<title>Node1</title>
<g id="a_Node000001"><a xlink:title=" ">
<polygon fill="#999999" stroke="#666666" points="2136,-331 2028,-331 2028,-312 2136,-312 2136,-331"/>
<text text-anchor="middle" x="2082" y="-319" font-family="Helvetica,sans-Serif" font-size="10.00">method_bytecodet</text>
</a>
</g>
</g>
<!-- Node2 -->
<g id="Node000002" class="node">
<title>Node2</title>
<g id="a_Node000002"><a xlink:title=" ">
<polygon fill="white" stroke="#666666" points="1967,-336.5 1791,-336.5 1791,-306.5 1967,-306.5 1967,-336.5"/>
<text text-anchor="start" x="1799" y="-324.5" font-family="Helvetica,sans-Serif" font-size="10.00">std::map&lt; irep_idt,</text>
<text text-anchor="middle" x="1879" y="-313.5" font-family="Helvetica,sans-Serif" font-size="10.00"> class_method_and_bytecodet &gt;</text>
</a>
</g>
</g>
<!-- Node2&#45;&gt;Node1 -->
<g id="edge1_Node000001_Node000002" class="edge">
<title>Node2&#45;&gt;Node1</title>
<g id="a_edge1_Node000001_Node000002"><a xlink:title=" ">
<path fill="none" stroke="#9a32cd" stroke-dasharray="5,2" d="M1977.5,-321.5C1994.9,-321.5 2012.41,-321.5 2027.96,-321.5"/>
<polygon fill="#9a32cd" stroke="#9a32cd" points="1977.28,-318 1967.28,-321.5 1977.28,-325 1977.28,-318"/>
</a>
</g>
<text text-anchor="middle" x="1997.5" y="-324.5" font-family="Helvetica,sans-Serif" font-size="10.00" fill="grey"> map</text>
</g>
<!-- Node3 -->
<g id="Node000003" class="node">
<title>Node3</title>
<g id="a_Node000003"><a xlink:href="classdstringt.html" target="_top" xlink:title="dstringt has one field, an unsigned integer no which is an index into a static table of strings.">
<polygon fill="white" stroke="#666666" points="575,-369 521,-369 521,-350 575,-350 575,-369"/>
<text text-anchor="middle" x="548" y="-357" font-family="Helvetica,sans-Serif" font-size="10.00">dstringt</text>
</a>
</g>
</g>
<!-- Node3&#45;&gt;Node2 -->
<g id="edge2_Node000002_Node000003" class="edge">
<title>Node3&#45;&gt;Node2</title>
<g id="a_edge2_Node000002_Node000003"><a xlink:title=" ">
<path fill="none" stroke="#9a32cd" stroke-dasharray="5,2" d="M565.72,-376.57C582.54,-394.6 608.21,-424.51 624,-454.5 636.57,-478.38 620.58,-496.08 642,-512.5 704.61,-560.5 1275.15,-535.35 1352,-517.5 1546.13,-472.42 1765.76,-374.29 1846.27,-336.63"/>
<polygon fill="#9a32cd" stroke="#9a32cd" points="568.1,-374 558.67,-369.17 563.03,-378.82 568.1,-374"/>
</a>
</g>
<text text-anchor="middle" x="1301" y="-531.5" font-family="Helvetica,sans-Serif" font-size="10.00" fill="grey"> keys</text>
</g>
<!-- Node4 -->
<g id="Node000004" class="node">
<title>Node4</title>
<g id="a_Node000004"><a xlink:href="structmethod__bytecodet_1_1class__method__and__bytecodet.html" target="_top" xlink:title="Pair of class id and methodt.">
<polygon fill="white" stroke="#666666" points="1706,-336.5 1567,-336.5 1567,-306.5 1706,-306.5 1706,-336.5"/>
<text text-anchor="start" x="1575" y="-324.5" font-family="Helvetica,sans-Serif" font-size="10.00">method_bytecodet::class</text>
<text text-anchor="middle" x="1636.5" y="-313.5" font-family="Helvetica,sans-Serif" font-size="10.00">_method_and_bytecodet</text>
</a>
</g>
</g>
<!-- Node3&#45;&gt;Node4 -->
<g id="edge4_Node000004_Node000003" class="edge">
<title>Node3&#45;&gt;Node4</title>
<g id="a_edge4_Node000004_Node000003"><a xlink:title=" ">
<path fill="none" stroke="#9a32cd" stroke-dasharray="5,2" d="M566.44,-342.51C583.95,-326.66 612.48,-303.93 642,-293.5 736.47,-260.12 766.81,-279.5 867,-279.5 867,-279.5 867,-279.5 1431,-279.5 1486.27,-279.5 1548.26,-294.4 1589.35,-306.46"/>
<polygon fill="#9a32cd" stroke="#9a32cd" points="563.71,-340.27 558.78,-349.65 568.48,-345.39 563.71,-340.27"/>
</a>
</g>
<text text-anchor="middle" x="1159" y="-293.5" font-family="Helvetica,sans-Serif" font-size="10.00" fill="grey"> class_id</text>
<text text-anchor="middle" x="1159" y="-282.5" font-family="Helvetica,sans-Serif" font-size="10.00" fill="grey">method_id</text>
</g>
<!-- Node5 -->
<g id="Node000005" class="node">
<title>Node5</title>
<g id="a_Node000005"><a xlink:href="structjava__bytecode__parse__treet_1_1methodt.html" target="_top" xlink:title=" ">
<polygon fill="white" stroke="#666666" points="1490,-413.5 1370,-413.5 1370,-383.5 1490,-383.5 1490,-413.5"/>
<text text-anchor="start" x="1378" y="-401.5" font-family="Helvetica,sans-Serif" font-size="10.00">java_bytecode_parse</text>
<text text-anchor="middle" x="1430" y="-390.5" font-family="Helvetica,sans-Serif" font-size="10.00">_treet::methodt</text>
</a>
</g>
</g>
<!-- Node3&#45;&gt;Node5 -->
<g id="edge14_Node000005_Node000003" class="edge">
<title>Node3&#45;&gt;Node5</title>
<g id="a_edge14_Node000005_Node000003"><a xlink:title=" ">
<path fill="none" stroke="#9a32cd" stroke-dasharray="5,2" d="M585.3,-362.82C688.92,-372.06 995.1,-397.62 1250,-401.5 1295.33,-402.19 1306.68,-402.38 1352,-401.5 1357.75,-401.39 1363.74,-401.23 1369.73,-401.04"/>
<polygon fill="#9a32cd" stroke="#9a32cd" points="585.34,-359.31 575.07,-361.9 584.71,-366.28 585.34,-359.31"/>
</a>
</g>
<text text-anchor="middle" x="1009" y="-398.5" font-family="Helvetica,sans-Serif" font-size="10.00" fill="grey"> base_name</text>
</g>
<!-- Node6 -->
<g id="Node000006" class="node">
<title>Node6</title>
<g id="a_Node000006"><a xlink:href="structjava__bytecode__parse__treet_1_1membert.html" target="_top" xlink:title=" ">
<polygon fill="white" stroke="#666666" points="928,-243.5 808,-243.5 808,-213.5 928,-213.5 928,-243.5"/>
<text text-anchor="start" x="816" y="-231.5" font-family="Helvetica,sans-Serif" font-size="10.00">java_bytecode_parse</text>
<text text-anchor="middle" x="868" y="-220.5" font-family="Helvetica,sans-Serif" font-size="10.00">_treet::membert</text>
</a>
</g>
</g>
<!-- Node3&#45;&gt;Node6 -->
<g id="edge9_Node000006_Node000003" class="edge">
<title>Node3&#45;&gt;Node6</title>
<g id="a_edge9_Node000006_Node000003"><a xlink:title=" ">
<path fill="none" stroke="#9a32cd" stroke-dasharray="5,2" d="M559.29,-341.18C574.1,-316.78 603.87,-274.37 642,-254.5 669.94,-239.94 751.07,-233.42 807.84,-230.58"/>
<polygon fill="#9a32cd" stroke="#9a32cd" points="556.25,-339.46 554.2,-349.86 562.28,-343 556.25,-339.46"/>
</a>
</g>
<text text-anchor="middle" x="714" y="-257.5" font-family="Helvetica,sans-Serif" font-size="10.00" fill="grey"> name</text>
</g>
<!-- Node33 -->
<g id="Node000033" class="node">
<title>Node33</title>
<g id="a_Node000033"><a xlink:title=" ">
<polygon fill="white" stroke="#666666" points="932,-463 804,-463 804,-444 932,-444 932,-463"/>
<text text-anchor="middle" x="868" y="-451" font-family="Helvetica,sans-Serif" font-size="10.00">std::vector&lt; dstringt &gt;</text>
</a>
</g>
</g>
<!-- Node3&#45;&gt;Node33 -->
<g id="edge31_Node000033_Node000003" class="edge">
<title>Node3&#45;&gt;Node33</title>
<g id="a_edge31_Node000033_Node000003"><a xlink:title=" ">
<path fill="none" stroke="#9a32cd" stroke-dasharray="5,2" d="M585.43,-369.75C602.51,-374.34 623.21,-379.58 642,-383.5 705.45,-396.72 730.16,-373.59 786,-406.5 797.18,-413.09 793.55,-421.8 804,-429.5 812.29,-435.61 822.32,-440.36 831.93,-443.96"/>
<polygon fill="#9a32cd" stroke="#9a32cd" points="585.87,-366.24 575.3,-366.99 584.03,-373 585.87,-366.24"/>
</a>
</g>
<text text-anchor="middle" x="714" y="-409.5" font-family="Helvetica,sans-Serif" font-size="10.00" fill="grey"> elements</text>
</g>
<!-- Node35 -->
<g id="Node000035" class="node">
<title>Node35</title>
<g id="a_Node000035"><a xlink:href="structjava__bytecode__parse__treet_1_1methodt_1_1local__variablet.html" target="_top" xlink:title=" ">
<polygon fill="white" stroke="#666666" points="929,-349 807,-349 807,-308 929,-308 929,-349"/>
<text text-anchor="start" x="815" y="-337" font-family="Helvetica,sans-Serif" font-size="10.00">java_bytecode_parse</text>
<text text-anchor="start" x="815" y="-326" font-family="Helvetica,sans-Serif" font-size="10.00">_treet::methodt::local</text>
<text text-anchor="middle" x="868" y="-315" font-family="Helvetica,sans-Serif" font-size="10.00">_variablet</text>
</a>
</g>
</g>
<!-- Node3&#45;&gt;Node35 -->
<g id="edge35_Node000035_Node000003" class="edge">
<title>Node3&#45;&gt;Node35</title>
<g id="a_edge35_Node000035_Node000003"><a xlink:title=" ">
<path fill="none" stroke="#9a32cd" stroke-dasharray="5,2" d="M585.2,-354.45C602.39,-352.15 623.23,-349.5 642,-347.5 697.74,-341.55 761.42,-336.32 806.77,-332.86"/>
<polygon fill="#9a32cd" stroke="#9a32cd" points="584.46,-351.02 575.02,-355.83 585.4,-357.96 584.46,-351.02"/>
</a>
</g>
<text text-anchor="middle" x="714" y="-350.5" font-family="Helvetica,sans-Serif" font-size="10.00" fill="grey"> name</text>
</g>
<!-- Node4&#45;&gt;Node2 -->
<g id="edge3_Node000002_Node000004" class="edge">
<title>Node4&#45;&gt;Node2</title>
<g id="a_edge3_Node000002_Node000004"><a xlink:title=" ">
<path fill="none" stroke="#9a32cd" stroke-dasharray="5,2" d="M1716.17,-321.5C1740.05,-321.5 1766.44,-321.5 1790.85,-321.5"/>
<polygon fill="#9a32cd" stroke="#9a32cd" points="1716.1,-318 1706.1,-321.5 1716.1,-325 1716.1,-318"/>
</a>
</g>
<text text-anchor="middle" x="1748.5" y="-324.5" font-family="Helvetica,sans-Serif" font-size="10.00" fill="grey"> elements</text>
</g>
<!-- Node5&#45;&gt;Node4 -->
<g id="edge5_Node000004_Node000005" class="edge">
<title>Node5&#45;&gt;Node4</title>
<g id="a_edge5_Node000004_Node000005"><a xlink:title=" ">
<path fill="none" stroke="#9a32cd" stroke-dasharray="5,2" d="M1480.52,-379.85C1515.74,-366.59 1562.44,-349.01 1595.34,-336.62"/>
<polygon fill="#9a32cd" stroke="#9a32cd" points="1479.04,-376.67 1470.92,-383.47 1481.51,-383.22 1479.04,-376.67"/>
</a>
</g>
<text text-anchor="middle" x="1528.5" y="-371.5" font-family="Helvetica,sans-Serif" font-size="10.00" fill="grey"> method</text>
</g>
<!-- Node6&#45;&gt;Node5 -->
<g id="edge6_Node000005_Node000006" class="edge">
<title>Node6&#45;&gt;Node5</title>
<g id="a_edge6_Node000005_Node000006"><a xlink:title=" ">
<path fill="none" stroke="#63b8ff" d="M917.81,-247.08C961.54,-263.43 1027.61,-287.38 1086,-305.5 1202.86,-341.77 1234.06,-343.91 1352,-376.5 1360.04,-378.72 1368.54,-381.11 1376.85,-383.47"/>
<polygon fill="#63b8ff" stroke="#63b8ff" points="918.87,-243.74 908.28,-243.51 916.41,-250.3 918.87,-243.74"/>
</a>
</g>
</g>
<!-- Node7 -->
<g id="Node000007" class="node">
<title>Node7</title>
<g id="a_Node000007"><a xlink:title=" ">
<polygon fill="white" stroke="#666666" points="580.5,-236 515.5,-236 515.5,-217 580.5,-217 580.5,-236"/>
<text text-anchor="middle" x="548" y="-224" font-family="Helvetica,sans-Serif" font-size="10.00">std::string</text>
</a>
</g>
</g>
<!-- Node7&#45;&gt;Node6 -->
<g id="edge7_Node000006_Node000007" class="edge">
<title>Node7&#45;&gt;Node6</title>
<g id="a_edge7_Node000006_Node000007"><a xlink:title=" ">
<path fill="none" stroke="#9a32cd" stroke-dasharray="5,2" d="M590.93,-223.22C606.91,-222.12 625.29,-221.04 642,-220.5 705.97,-218.44 722.08,-217.35 786,-220.5 793.06,-220.85 800.45,-221.36 807.77,-221.97"/>
<polygon fill="#9a32cd" stroke="#9a32cd" points="590.55,-219.74 580.83,-223.94 591.05,-226.72 590.55,-219.74"/>
</a>
</g>
<text text-anchor="middle" x="714" y="-223.5" font-family="Helvetica,sans-Serif" font-size="10.00" fill="grey"> descriptor</text>
</g>
<!-- Node7&#45;&gt;Node35 -->
<g id="edge36_Node000035_Node000007" class="edge">
<title>Node7&#45;&gt;Node35</title>
<g id="a_edge36_Node000035_Node000007"><a xlink:title=" ">
<path fill="none" stroke="#9a32cd" stroke-dasharray="5,2" d="M577.03,-240.61C595.23,-249.41 619.65,-260.53 642,-268.5 696.84,-288.05 761.17,-304.59 806.97,-315.32"/>
<polygon fill="#9a32cd" stroke="#9a32cd" points="578.38,-237.37 567.86,-236.12 575.3,-243.66 578.38,-237.37"/>
</a>
</g>
<text text-anchor="middle" x="714" y="-312.5" font-family="Helvetica,sans-Serif" font-size="10.00" fill="grey"> descriptor</text>
</g>
<!-- Node8 -->
<g id="Node000008" class="node">
<title>Node8</title>
<g id="a_Node000008"><a xlink:title=" ">
<polygon fill="white" stroke="#666666" points="316,-241.5 212,-241.5 212,-211.5 316,-211.5 316,-241.5"/>
<text text-anchor="start" x="220" y="-229.5" font-family="Helvetica,sans-Serif" font-size="10.00">std::basic_string&lt;</text>
<text text-anchor="middle" x="264" y="-218.5" font-family="Helvetica,sans-Serif" font-size="10.00"> Char &gt;</text>
</a>
</g>
</g>
<!-- Node8&#45;&gt;Node7 -->
<g id="edge8_Node000007_Node000008" class="edge">
<title>Node8&#45;&gt;Node7</title>
<g id="a_edge8_Node000007_Node000008"><a xlink:title=" ">
<path fill="none" stroke="#63b8ff" d="M326.23,-226.5C384.36,-226.5 469.44,-226.5 515.15,-226.5"/>
<polygon fill="#63b8ff" stroke="#63b8ff" points="326.07,-223 316.07,-226.5 326.07,-230 326.07,-223"/>
</a>
</g>
</g>
<!-- Node9 -->
<g id="Node000009" class="node">
<title>Node9</title>
<g id="a_Node000009"><a xlink:title=" ">
<polygon fill="white" stroke="#666666" points="621.5,-199 474.5,-199 474.5,-180 621.5,-180 621.5,-199"/>
<text text-anchor="middle" x="548" y="-187" font-family="Helvetica,sans-Serif" font-size="10.00">std::vector&lt; annotationt &gt;</text>
</a>
</g>
</g>
<!-- Node9&#45;&gt;Node6 -->
<g id="edge10_Node000006_Node000009" class="edge">
<title>Node9&#45;&gt;Node6</title>
<g id="a_edge10_Node000006_Node000009"><a xlink:title=" ">
<path fill="none" stroke="#9a32cd" stroke-dasharray="5,2" d="M631.76,-190.19C677.52,-191.71 735.24,-195.49 786,-204.5 798.13,-206.65 811.02,-209.98 822.87,-213.47"/>
<polygon fill="#9a32cd" stroke="#9a32cd" points="631.69,-186.68 621.59,-189.88 631.48,-193.68 631.69,-186.68"/>
</a>
</g>
<text text-anchor="middle" x="714" y="-207.5" font-family="Helvetica,sans-Serif" font-size="10.00" fill="grey"> annotations</text>
</g>
<!-- Node10 -->
<g id="Node000010" class="node">
<title>Node10</title>
<g id="a_Node000010"><a xlink:href="structjava__bytecode__parse__treet_1_1annotationt.html" target="_top" xlink:title=" ">
<polygon fill="#fff0f0" stroke="red" points="324,-144.5 204,-144.5 204,-114.5 324,-114.5 324,-144.5"/>
<text text-anchor="start" x="212" y="-132.5" font-family="Helvetica,sans-Serif" font-size="10.00">java_bytecode_parse</text>
<text text-anchor="middle" x="264" y="-121.5" font-family="Helvetica,sans-Serif" font-size="10.00">_treet::annotationt</text>
</a>
</g>
</g>
<!-- Node10&#45;&gt;Node9 -->
<g id="edge11_Node000009_Node000010" class="edge">
<title>Node10&#45;&gt;Node9</title>
<g id="a_edge11_Node000009_Node000010"><a xlink:title=" ">
<path fill="none" stroke="#9a32cd" stroke-dasharray="5,2" d="M333.93,-140.29C369.89,-146.32 414.49,-154.45 454,-163.5 474.75,-168.26 497.8,-174.69 515.76,-179.97"/>
<polygon fill="#9a32cd" stroke="#9a32cd" points="334.47,-136.83 324.03,-138.64 333.32,-143.74 334.47,-136.83"/>
</a>
</g>
<text text-anchor="middle" x="405.5" y="-166.5" font-family="Helvetica,sans-Serif" font-size="10.00" fill="grey"> elements</text>
</g>
<!-- Node17 -->
<g id="Node000017" class="node">
<title>Node17</title>
<g id="a_Node000017"><a xlink:title=" ">
<polygon fill="white" stroke="#666666" points="312.5,-475 215.5,-475 215.5,-456 312.5,-456 312.5,-475"/>
<text text-anchor="middle" x="264" y="-463" font-family="Helvetica,sans-Serif" font-size="10.00">std::vector&lt; T &gt;</text>
</a>
</g>
</g>
<!-- Node17&#45;&gt;Node9 -->
<g id="edge12_Node000009_Node000017" class="edge">
<title>Node17&#45;&gt;Node9</title>
<g id="a_edge12_Node000009_Node000017"><a xlink:title=" ">
<path fill="none" stroke="orange" stroke-dasharray="5,2" d="M274.22,-446.97C299.04,-399.13 372.16,-270.8 472,-207.5 477.43,-204.06 483.46,-201.27 489.67,-199.02"/>
<polygon fill="orange" stroke="orange" points="271.09,-445.4 269.67,-455.9 277.33,-448.58 271.09,-445.4"/>
</a>
</g>
<text text-anchor="middle" x="405.5" y="-314.5" font-family="Helvetica,sans-Serif" font-size="10.00" fill="grey"> &lt; annotationt &gt;</text>
</g>
<!-- Node24 -->
<g id="Node000024" class="node">
<title>Node24</title>
<g id="a_Node000024"><a xlink:title=" ">
<polygon fill="white" stroke="#666666" points="1232,-161 1086,-161 1086,-142 1232,-142 1232,-161"/>
<text text-anchor="middle" x="1159" y="-149" font-family="Helvetica,sans-Serif" font-size="10.00">std::vector&lt; instructiont &gt;</text>
</a>
</g>
</g>
<!-- Node17&#45;&gt;Node24 -->
<g id="edge22_Node000024_Node000017" class="edge">
<title>Node17&#45;&gt;Node24</title>
<g id="a_edge22_Node000024_Node000017"><a xlink:title=" ">
<path fill="none" stroke="orange" stroke-dasharray="5,2" d="M271.24,-446.2C289.15,-391.25 340.46,-236.8 357,-219.5 395.39,-179.34 417.72,-182.37 472,-170.5 587.16,-145.32 934.14,-147.72 1085.77,-150.1"/>
<polygon fill="orange" stroke="orange" points="267.89,-445.2 268.13,-455.79 274.54,-447.37 267.89,-445.2"/>
</a>
</g>
<text text-anchor="middle" x="714" y="-157.5" font-family="Helvetica,sans-Serif" font-size="10.00" fill="grey"> &lt; instructiont &gt;</text>
</g>
<!-- Node26 -->
<g id="Node000026" class="node">
<title>Node26</title>
<g id="a_Node000026"><a xlink:title=" ">
<polygon fill="#fff0f0" stroke="red" points="606,-122 490,-122 490,-103 606,-103 606,-122"/>
<text text-anchor="middle" x="548" y="-110" font-family="Helvetica,sans-Serif" font-size="10.00">std::vector&lt; exprt &gt;</text>
</a>
</g>
</g>
<!-- Node17&#45;&gt;Node26 -->
<g id="edge21_Node000026_Node000017" class="edge">
<title>Node17&#45;&gt;Node26</title>
<g id="a_edge21_Node000026_Node000017"><a xlink:title=" ">
<path fill="none" stroke="orange" stroke-dasharray="5,2" d="M272.96,-446.26C288.04,-409.08 320.88,-324.48 339,-250.5 345.41,-224.31 337.42,-149.04 357,-130.5 395.73,-93.82 460.9,-96.16 503.93,-102.94"/>
<polygon fill="orange" stroke="orange" points="269.59,-445.25 269.04,-455.83 276.07,-447.9 269.59,-445.25"/>
</a>
</g>
<text text-anchor="middle" x="405.5" y="-133.5" font-family="Helvetica,sans-Serif" font-size="10.00" fill="grey"> &lt; exprt &gt;</text>
</g>
<!-- Node27 -->
<g id="Node000027" class="node">
<title>Node27</title>
<g id="a_Node000027"><a xlink:title=" ">
<polygon fill="white" stroke="#666666" points="624,-675 472,-675 472,-656 624,-656 624,-675"/>
<text text-anchor="middle" x="548" y="-663" font-family="Helvetica,sans-Serif" font-size="10.00">std::vector&lt; annotationst &gt;</text>
</a>
</g>
</g>
<!-- Node17&#45;&gt;Node27 -->
<g id="edge24_Node000027_Node000017" class="edge">
<title>Node17&#45;&gt;Node27</title>
<g id="a_edge24_Node000027_Node000017"><a xlink:title=" ">
<path fill="none" stroke="#9a32cd" stroke-dasharray="5,2" d="M276.21,-483.88C291.04,-508.4 317.79,-553.26 339,-592.5 347.51,-608.24 342.76,-617.68 357,-628.5 367.17,-636.23 432.24,-647.82 483.44,-655.97"/>
<polygon fill="#9a32cd" stroke="#9a32cd" points="279.16,-481.99 270.97,-475.26 273.17,-485.62 279.16,-481.99"/>
</a>
</g>
<text text-anchor="middle" x="405.5" y="-653.5" font-family="Helvetica,sans-Serif" font-size="10.00" fill="grey"> elements</text>
</g>
<!-- Node17&#45;&gt;Node27 -->
<g id="edge25_Node000027_Node000017" class="edge">
<title>Node17&#45;&gt;Node27</title>
<g id="a_edge25_Node000027_Node000017"><a xlink:title=" ">
<path fill="none" stroke="orange" stroke-dasharray="5,2" d="M277.75,-483.64C294.04,-507.56 322.14,-551.45 339,-592.5 351.2,-622.22 331.77,-642.62 357,-662.5 402.99,-698.75 476.55,-686.17 517.33,-675.05"/>
<polygon fill="orange" stroke="orange" points="280.5,-481.46 271.94,-475.22 274.74,-485.44 280.5,-481.46"/>
</a>
</g>
<text text-anchor="middle" x="405.5" y="-689.5" font-family="Helvetica,sans-Serif" font-size="10.00" fill="grey"> &lt; annotationst &gt;</text>
</g>
<!-- Node28 -->
<g id="Node000028" class="node">
<title>Node28</title>
<g id="a_Node000028"><a xlink:title=" ">
<polygon fill="white" stroke="#666666" points="619.5,-626 476.5,-626 476.5,-607 619.5,-607 619.5,-626"/>
<text text-anchor="middle" x="548" y="-614" font-family="Helvetica,sans-Serif" font-size="10.00">std::vector&lt; exceptiont &gt;</text>
</a>
</g>
</g>
<!-- Node17&#45;&gt;Node28 -->
<g id="edge29_Node000028_Node000017" class="edge">
<title>Node17&#45;&gt;Node28</title>
<g id="a_edge29_Node000028_Node000017"><a xlink:title=" ">
<path fill="none" stroke="orange" stroke-dasharray="5,2" d="M277.69,-483.38C293.77,-504.77 323.48,-540.22 357,-560.5 396.87,-584.62 447.76,-598.89 486.84,-606.99"/>
<polygon fill="orange" stroke="orange" points="280.39,-481.16 271.66,-475.16 274.75,-485.3 280.39,-481.16"/>
</a>
</g>
<text text-anchor="middle" x="405.5" y="-601.5" font-family="Helvetica,sans-Serif" font-size="10.00" fill="grey"> &lt; exceptiont &gt;</text>
</g>
<!-- Node17&#45;&gt;Node33 -->
<g id="edge32_Node000033_Node000017" class="edge">
<title>Node17&#45;&gt;Node33</title>
<g id="a_edge32_Node000033_Node000017"><a xlink:title=" ">
<path fill="none" stroke="orange" stroke-dasharray="5,2" d="M322.94,-464.34C436.25,-462.09 686.3,-457.1 803.74,-454.76"/>
<polygon fill="orange" stroke="orange" points="322.67,-460.85 312.74,-464.55 322.81,-467.85 322.67,-460.85"/>
</a>
</g>
<text text-anchor="middle" x="548" y="-463.5" font-family="Helvetica,sans-Serif" font-size="10.00" fill="grey"> &lt; dstringt &gt;</text>
</g>
<!-- Node34 -->
<g id="Node000034" class="node">
<title>Node34</title>
<g id="a_Node000034"><a xlink:title=" ">
<polygon fill="white" stroke="#666666" points="1210.5,-387.5 1107.5,-387.5 1107.5,-357.5 1210.5,-357.5 1210.5,-387.5"/>
<text text-anchor="start" x="1115.5" y="-375.5" font-family="Helvetica,sans-Serif" font-size="10.00">std::vector&lt; local</text>
<text text-anchor="middle" x="1159" y="-364.5" font-family="Helvetica,sans-Serif" font-size="10.00">_variablet &gt;</text>
</a>
</g>
</g>
<!-- Node17&#45;&gt;Node34 -->
<g id="edge37_Node000034_Node000017" class="edge">
<title>Node17&#45;&gt;Node34</title>
<g id="a_edge37_Node000034_Node000017"><a xlink:title=" ">
<path fill="none" stroke="orange" stroke-dasharray="5,2" d="M323.1,-460.36C449.35,-449.17 741.02,-423.13 786,-417.5 859.23,-408.33 876.77,-400.64 950,-391.5 1003.61,-384.81 1065.28,-379.47 1107.46,-376.18"/>
<polygon fill="orange" stroke="orange" points="322.51,-456.9 312.86,-461.27 323.12,-463.87 322.51,-456.9"/>
</a>
</g>
<text text-anchor="middle" x="714" y="-434.5" font-family="Helvetica,sans-Serif" font-size="10.00" fill="grey"> &lt; local_variablet &gt;</text>
</g>
<!-- Node36 -->
<g id="Node000036" class="node">
<title>Node36</title>
<g id="a_Node000036"><a xlink:title=" ">
<polygon fill="white" stroke="#666666" points="1218.5,-520.5 1099.5,-520.5 1099.5,-490.5 1218.5,-490.5 1218.5,-520.5"/>
<text text-anchor="start" x="1107.5" y="-508.5" font-family="Helvetica,sans-Serif" font-size="10.00">std::vector&lt; stack</text>
<text text-anchor="middle" x="1159" y="-497.5" font-family="Helvetica,sans-Serif" font-size="10.00">_map_table_entryt &gt;</text>
</a>
</g>
</g>
<!-- Node17&#45;&gt;Node36 -->
<g id="edge42_Node000036_Node000017" class="edge">
<title>Node17&#45;&gt;Node36</title>
<g id="a_edge42_Node000036_Node000017"><a xlink:title=" ">
<path fill="none" stroke="orange" stroke-dasharray="5,2" d="M322.88,-473.16C334.18,-474.45 345.95,-475.64 357,-476.5 634.12,-498.05 966.45,-503.62 1099.12,-505.04"/>
<polygon fill="orange" stroke="orange" points="323.02,-469.65 312.68,-471.96 322.2,-476.6 323.02,-469.65"/>
</a>
</g>
<text text-anchor="middle" x="714" y="-500.5" font-family="Helvetica,sans-Serif" font-size="10.00" fill="grey"> &lt; stack_map_table_entryt &gt;</text>
</g>
<!-- Node38 -->
<g id="Node000038" class="node">
<title>Node38</title>
<g id="a_Node000038"><a xlink:title=" ">
<polygon fill="#fff0f0" stroke="red" points="615,-572.5 481,-572.5 481,-542.5 615,-542.5 615,-572.5"/>
<text text-anchor="start" x="489" y="-560.5" font-family="Helvetica,sans-Serif" font-size="10.00">std::vector&lt; verification</text>
<text text-anchor="middle" x="548" y="-549.5" font-family="Helvetica,sans-Serif" font-size="10.00">_type_infot &gt;</text>
</a>
</g>
</g>
<!-- Node17&#45;&gt;Node38 -->
<g id="edge41_Node000038_Node000017" class="edge">
<title>Node17&#45;&gt;Node38</title>
<g id="a_edge41_Node000038_Node000017"><a xlink:title=" ">
<path fill="none" stroke="orange" stroke-dasharray="5,2" d="M288.37,-480.59C306.47,-491.68 332.49,-506.34 357,-515.5 368.75,-519.89 430.8,-533.32 480.84,-543.82"/>
<polygon fill="orange" stroke="orange" points="290.02,-477.5 279.68,-475.17 286.31,-483.44 290.02,-477.5"/>
</a>
</g>
<text text-anchor="start" x="357" y="-550.5" font-family="Helvetica,sans-Serif" font-size="10.00" fill="grey"> &lt; verification_type</text>
<text text-anchor="middle" x="405.5" y="-539.5" font-family="Helvetica,sans-Serif" font-size="10.00" fill="grey">_infot &gt;</text>
</g>
<!-- Node18 -->
<g id="Node000018" class="node">
<title>Node18</title>
<g id="a_Node000018"><a xlink:title=" ">
<polygon fill="white" stroke="#666666" points="62.5,-216 33.5,-216 33.5,-197 62.5,-197 62.5,-216"/>
<text text-anchor="middle" x="48" y="-204" font-family="Helvetica,sans-Serif" font-size="10.00">T</text>
</a>
</g>
</g>
<!-- Node18&#45;&gt;Node17 -->
<g id="edge13_Node000017_Node000018" class="edge">
<title>Node18&#45;&gt;Node17</title>
<g id="a_edge13_Node000017_Node000018"><a xlink:title=" ">
<path fill="none" stroke="#9a32cd" stroke-dasharray="5,2" d="M63.47,-224.02C104.95,-274.21 223.27,-417.42 255.06,-455.89"/>
<polygon fill="#9a32cd" stroke="#9a32cd" points="65.94,-221.5 56.87,-216.03 60.54,-225.96 65.94,-221.5"/>
</a>
</g>
<text text-anchor="middle" x="142.5" y="-354.5" font-family="Helvetica,sans-Serif" font-size="10.00" fill="grey"> elements</text>
</g>
<!-- Node40 -->
<g id="Node000040" class="node">
<title>Node40</title>
<g id="a_Node000040"><a xlink:title=" ">
<polygon fill="white" stroke="#666666" points="314.5,-19 213.5,-19 213.5,0 314.5,0 314.5,-19"/>
<text text-anchor="middle" x="264" y="-7" font-family="Helvetica,sans-Serif" font-size="10.00">std::map&lt; K, T &gt;</text>
</a>
</g>
</g>
<!-- Node18&#45;&gt;Node40 -->
<g id="edge45_Node000040_Node000018" class="edge">
<title>Node18&#45;&gt;Node40</title>
<g id="a_edge45_Node000040_Node000018"><a xlink:title=" ">
<path fill="none" stroke="#9a32cd" stroke-dasharray="5,2" d="M59.55,-187.73C80.07,-152.86 128.66,-77.79 189,-35.5 199.15,-28.39 211.43,-23.05 223.05,-19.12"/>
<polygon fill="#9a32cd" stroke="#9a32cd" points="56.28,-186.4 54.31,-196.81 62.34,-189.9 56.28,-186.4"/>
</a>
</g>
<text text-anchor="middle" x="142.5" y="-109.5" font-family="Helvetica,sans-Serif" font-size="10.00" fill="grey"> elements</text>
</g>
<!-- Node23 -->
<g id="Node000023" class="node">
<title>Node23</title>
<g id="a_Node000023"><a xlink:href="classsource__locationt.html" target="_top" xlink:title=" ">
<polygon fill="white" stroke="#666666" points="596.5,-64 499.5,-64 499.5,-45 596.5,-45 596.5,-64"/>
<text text-anchor="middle" x="548" y="-52" font-family="Helvetica,sans-Serif" font-size="10.00">source_locationt</text>
</a>
</g>
</g>
<!-- Node23&#45;&gt;Node5 -->
<g id="edge15_Node000005_Node000023" class="edge">
<title>Node23&#45;&gt;Node5</title>
<g id="a_edge15_Node000005_Node000023"><a xlink:title=" ">
<path fill="none" stroke="#9a32cd" stroke-dasharray="5,2" d="M606.99,-49.52C728.86,-41.47 1017.95,-35.21 1232,-132.5 1292.94,-160.2 1310.53,-170.96 1352,-223.5 1392.52,-274.83 1416.27,-350.79 1425.07,-383.08"/>
<polygon fill="#9a32cd" stroke="#9a32cd" points="606.5,-46.04 596.77,-50.22 606.98,-53.03 606.5,-46.04"/>
</a>
</g>
<text text-anchor="middle" x="1009" y="-80.5" font-family="Helvetica,sans-Serif" font-size="10.00" fill="grey"> source_location</text>
</g>
<!-- Node25 -->
<g id="Node000025" class="node">
<title>Node25</title>
<g id="a_Node000025"><a xlink:href="structjava__bytecode__parse__treet_1_1instructiont.html" target="_top" xlink:title=" ">
<polygon fill="white" stroke="#666666" points="928,-123.5 808,-123.5 808,-93.5 928,-93.5 928,-123.5"/>
<text text-anchor="start" x="816" y="-111.5" font-family="Helvetica,sans-Serif" font-size="10.00">java_bytecode_parse</text>
<text text-anchor="middle" x="868" y="-100.5" font-family="Helvetica,sans-Serif" font-size="10.00">_treet::instructiont</text>
</a>
</g>
</g>
<!-- Node23&#45;&gt;Node25 -->
<g id="edge19_Node000025_Node000023" class="edge">
<title>Node23&#45;&gt;Node25</title>
<g id="a_edge19_Node000025_Node000023"><a xlink:title=" ">
<path fill="none" stroke="#9a32cd" stroke-dasharray="5,2" d="M606.54,-64.27C663.54,-73.95 750.43,-88.71 807.96,-98.47"/>
<polygon fill="#9a32cd" stroke="#9a32cd" points="607.05,-60.81 596.61,-62.58 605.88,-67.71 607.05,-60.81"/>
</a>
</g>
<text text-anchor="middle" x="714" y="-97.5" font-family="Helvetica,sans-Serif" font-size="10.00" fill="grey"> source_location</text>
</g>
<!-- Node12 -->
<g id="Node000012" class="node">
<title>Node12</title>
<g id="a_Node000012"><a xlink:href="classirept.html" target="_top" xlink:title="There are a large number of kinds of tree structured or tree&#45;like data in CPROVER.">
<polygon fill="#fff0f0" stroke="red" points="283.5,-64 244.5,-64 244.5,-45 283.5,-45 283.5,-64"/>
<text text-anchor="middle" x="264" y="-52" font-family="Helvetica,sans-Serif" font-size="10.00">irept</text>
</a>
</g>
</g>
<!-- Node12&#45;&gt;Node23 -->
<g id="edge16_Node000023_Node000012" class="edge">
<title>Node12&#45;&gt;Node23</title>
<g id="a_edge16_Node000023_Node000012"><a xlink:title=" ">
<path fill="none" stroke="#63b8ff" d="M293.58,-54.5C341.94,-54.5 440.39,-54.5 499.33,-54.5"/>
<polygon fill="#63b8ff" stroke="#63b8ff" points="293.5,-51 283.5,-54.5 293.5,-58 293.5,-51"/>
</a>
</g>
</g>
<!-- Node24&#45;&gt;Node5 -->
<g id="edge17_Node000005_Node000024" class="edge">
<title>Node24&#45;&gt;Node5</title>
<g id="a_edge17_Node000005_Node000024"><a xlink:title=" ">
<path fill="none" stroke="#9a32cd" stroke-dasharray="5,2" d="M1180.92,-167.64C1217.06,-195.84 1292.99,-256.53 1352,-313.5 1375.92,-336.6 1401.4,-365.73 1416.23,-383.2"/>
<polygon fill="#9a32cd" stroke="#9a32cd" points="1182.67,-164.56 1172.62,-161.19 1178.37,-170.09 1182.67,-164.56"/>
</a>
</g>
<text text-anchor="middle" x="1301" y="-316.5" font-family="Helvetica,sans-Serif" font-size="10.00" fill="grey"> instructions</text>
</g>
<!-- Node25&#45;&gt;Node24 -->
<g id="edge18_Node000024_Node000025" class="edge">
<title>Node25&#45;&gt;Node24</title>
<g id="a_edge18_Node000024_Node000025"><a xlink:title=" ">
<path fill="none" stroke="#9a32cd" stroke-dasharray="5,2" d="M938.21,-111.68C976.66,-114.22 1025.24,-118.69 1068,-126.5 1088.58,-130.26 1111.27,-136.58 1128.72,-141.92"/>
<polygon fill="#9a32cd" stroke="#9a32cd" points="938.35,-108.18 928.15,-111.05 937.91,-115.17 938.35,-108.18"/>
</a>
</g>
<text text-anchor="middle" x="1009" y="-129.5" font-family="Helvetica,sans-Serif" font-size="10.00" fill="grey"> elements</text>
</g>
<!-- Node26&#45;&gt;Node25 -->
<g id="edge20_Node000025_Node000026" class="edge">
<title>Node26&#45;&gt;Node25</title>
<g id="a_edge20_Node000025_Node000026"><a xlink:title=" ">
<path fill="none" stroke="#9a32cd" stroke-dasharray="5,2" d="M616.53,-111.65C673.27,-110.94 753.56,-109.93 807.82,-109.24"/>
<polygon fill="#9a32cd" stroke="#9a32cd" points="616.17,-108.15 606.22,-111.78 616.26,-115.15 616.17,-108.15"/>
</a>
</g>
<text text-anchor="middle" x="714" y="-114.5" font-family="Helvetica,sans-Serif" font-size="10.00" fill="grey"> args</text>
</g>
<!-- Node27&#45;&gt;Node5 -->
<g id="edge23_Node000005_Node000027" class="edge">
<title>Node27&#45;&gt;Node5</title>
<g id="a_edge23_Node000005_Node000027"><a xlink:title=" ">
<path fill="none" stroke="#9a32cd" stroke-dasharray="5,2" d="M634.45,-665.39C764.99,-663.52 1021.12,-653.1 1232,-603.5 1287.45,-590.46 1309.96,-596.93 1352,-558.5 1396.83,-517.53 1418.26,-444.87 1425.76,-413.55"/>
<polygon fill="#9a32cd" stroke="#9a32cd" points="634.08,-661.89 624.13,-665.52 634.17,-668.89 634.08,-661.89"/>
</a>
</g>
<text text-anchor="middle" x="1009" y="-650.5" font-family="Helvetica,sans-Serif" font-size="10.00" fill="grey"> parameter_annotations</text>
</g>
<!-- Node28&#45;&gt;Node5 -->
<g id="edge26_Node000005_Node000028" class="edge">
<title>Node28&#45;&gt;Node5</title>
<g id="a_edge26_Node000005_Node000028"><a xlink:title=" ">
<path fill="none" stroke="#9a32cd" stroke-dasharray="5,2" d="M629.72,-619.3C707.45,-620.95 828.17,-620.72 932,-608.5 1121.69,-586.18 1194.9,-626.12 1352,-517.5 1390.05,-491.19 1413.74,-439.35 1423.64,-413.66"/>
<polygon fill="#9a32cd" stroke="#9a32cd" points="629.6,-615.8 619.52,-619.07 629.44,-622.8 629.6,-615.8"/>
</a>
</g>
<text text-anchor="middle" x="1009" y="-608.5" font-family="Helvetica,sans-Serif" font-size="10.00" fill="grey"> exception_table</text>
</g>
<!-- Node29 -->
<g id="Node000029" class="node">
<title>Node29</title>
<g id="a_Node000029"><a xlink:href="structjava__bytecode__parse__treet_1_1methodt_1_1exceptiont.html" target="_top" xlink:title=" ">
<polygon fill="white" stroke="#666666" points="339,-631.5 189,-631.5 189,-601.5 339,-601.5 339,-631.5"/>
<text text-anchor="start" x="197" y="-619.5" font-family="Helvetica,sans-Serif" font-size="10.00">java_bytecode_parse</text>
<text text-anchor="middle" x="264" y="-608.5" font-family="Helvetica,sans-Serif" font-size="10.00">_treet::methodt::exceptiont</text>
</a>
</g>
</g>
<!-- Node29&#45;&gt;Node28 -->
<g id="edge27_Node000028_Node000029" class="edge">
<title>Node29&#45;&gt;Node28</title>
<g id="a_edge27_Node000028_Node000029"><a xlink:title=" ">
<path fill="none" stroke="#9a32cd" stroke-dasharray="5,2" d="M349.22,-616.5C389.73,-616.5 437.74,-616.5 476.32,-616.5"/>
<polygon fill="#9a32cd" stroke="#9a32cd" points="349.09,-613 339.09,-616.5 349.09,-620 349.09,-613"/>
</a>
</g>
<text text-anchor="middle" x="405.5" y="-619.5" font-family="Helvetica,sans-Serif" font-size="10.00" fill="grey"> elements</text>
</g>
<!-- Node30 -->
<g id="Node000030" class="node">
<title>Node30</title>
<g id="a_Node000030"><a xlink:href="classstruct__tag__typet.html" target="_top" xlink:title="A struct tag type, i.e., struct_typet with an identifier.">
<polygon fill="#fff0f0" stroke="red" points="96,-626 0,-626 0,-607 96,-607 96,-626"/>
<text text-anchor="middle" x="48" y="-614" font-family="Helvetica,sans-Serif" font-size="10.00">struct_tag_typet</text>
</a>
</g>
</g>
<!-- Node30&#45;&gt;Node29 -->
<g id="edge28_Node000029_Node000030" class="edge">
<title>Node30&#45;&gt;Node29</title>
<g id="a_edge28_Node000029_Node000030"><a xlink:title=" ">
<path fill="none" stroke="#9a32cd" stroke-dasharray="5,2" d="M106.42,-616.5C131.8,-616.5 161.95,-616.5 188.98,-616.5"/>
<polygon fill="#9a32cd" stroke="#9a32cd" points="106.23,-613 96.23,-616.5 106.23,-620 106.23,-613"/>
</a>
</g>
<text text-anchor="middle" x="142.5" y="-619.5" font-family="Helvetica,sans-Serif" font-size="10.00" fill="grey"> catch_type</text>
</g>
<!-- Node33&#45;&gt;Node5 -->
<g id="edge30_Node000005_Node000033" class="edge">
<title>Node33&#45;&gt;Node5</title>
<g id="a_edge30_Node000005_Node000033"><a xlink:title=" ">
<path fill="none" stroke="#9a32cd" stroke-dasharray="5,2" d="M942.15,-457.34C1037.63,-460.66 1209.39,-460.82 1352,-429.5 1367.76,-426.04 1384.47,-419.67 1398.28,-413.6"/>
<polygon fill="#9a32cd" stroke="#9a32cd" points="942.14,-453.84 932.02,-456.97 941.88,-460.83 942.14,-453.84"/>
</a>
</g>
<text text-anchor="middle" x="1159" y="-460.5" font-family="Helvetica,sans-Serif" font-size="10.00" fill="grey"> throws_exception_table</text>
</g>
<!-- Node34&#45;&gt;Node5 -->
<g id="edge33_Node000005_Node000034" class="edge">
<title>Node34&#45;&gt;Node5</title>
<g id="a_edge33_Node000005_Node000034"><a xlink:title=" ">
<path fill="none" stroke="#9a32cd" stroke-dasharray="5,2" d="M1220.87,-378.05C1258.63,-381.53 1308.15,-386.17 1352,-390.5 1357.75,-391.07 1363.74,-391.67 1369.73,-392.28"/>
<polygon fill="#9a32cd" stroke="#9a32cd" points="1220.82,-374.53 1210.54,-377.1 1220.18,-381.5 1220.82,-374.53"/>
</a>
</g>
<text text-anchor="middle" x="1301" y="-393.5" font-family="Helvetica,sans-Serif" font-size="10.00" fill="grey"> local_variable_table</text>
</g>
<!-- Node35&#45;&gt;Node34 -->
<g id="edge34_Node000034_Node000035" class="edge">
<title>Node35&#45;&gt;Node34</title>
<g id="a_edge34_Node000034_Node000035"><a xlink:title=" ">
<path fill="none" stroke="#9a32cd" stroke-dasharray="5,2" d="M939.31,-335.27C977.51,-339.38 1025.49,-345.23 1068,-352.5 1080.78,-354.69 1094.48,-357.49 1107.24,-360.3"/>
<polygon fill="#9a32cd" stroke="#9a32cd" points="939.62,-331.78 929.31,-334.21 938.89,-338.74 939.62,-331.78"/>
</a>
</g>
<text text-anchor="middle" x="1009" y="-355.5" font-family="Helvetica,sans-Serif" font-size="10.00" fill="grey"> elements</text>
</g>
<!-- Node36&#45;&gt;Node5 -->
<g id="edge38_Node000005_Node000036" class="edge">
<title>Node36&#45;&gt;Node5</title>
<g id="a_edge38_Node000005_Node000036"><a xlink:title=" ">
<path fill="none" stroke="#9a32cd" stroke-dasharray="5,2" d="M1228.73,-505.06C1266.83,-502.35 1314.04,-494.79 1352,-475.5 1380.65,-460.94 1405.21,-431.76 1418.47,-413.8"/>
<polygon fill="#9a32cd" stroke="#9a32cd" points="1228.51,-501.57 1218.75,-505.68 1228.95,-508.56 1228.51,-501.57"/>
</a>
</g>
<text text-anchor="middle" x="1301" y="-505.5" font-family="Helvetica,sans-Serif" font-size="10.00" fill="grey"> stack_map_table</text>
</g>
<!-- Node37 -->
<g id="Node000037" class="node">
<title>Node37</title>
<g id="a_Node000037"><a xlink:href="structjava__bytecode__parse__treet_1_1methodt_1_1stack__map__table__entryt.html" target="_top" xlink:title=" ">
<polygon fill="white" stroke="#666666" points="930.5,-599 805.5,-599 805.5,-558 930.5,-558 930.5,-599"/>
<text text-anchor="start" x="813.5" y="-587" font-family="Helvetica,sans-Serif" font-size="10.00">java_bytecode_parse</text>
<text text-anchor="start" x="813.5" y="-576" font-family="Helvetica,sans-Serif" font-size="10.00">_treet::methodt::stack</text>
<text text-anchor="middle" x="868" y="-565" font-family="Helvetica,sans-Serif" font-size="10.00">_map_table_entryt</text>
</a>
</g>
</g>
<!-- Node37&#45;&gt;Node36 -->
<g id="edge39_Node000036_Node000037" class="edge">
<title>Node37&#45;&gt;Node36</title>
<g id="a_edge39_Node000036_Node000037"><a xlink:title=" ">
<path fill="none" stroke="#9a32cd" stroke-dasharray="5,2" d="M940.53,-560.43C989.45,-548.07 1053.51,-531.89 1099.41,-520.3"/>
<polygon fill="#9a32cd" stroke="#9a32cd" points="939.48,-557.09 930.64,-562.93 941.2,-563.87 939.48,-557.09"/>
</a>
</g>
<text text-anchor="middle" x="1009" y="-559.5" font-family="Helvetica,sans-Serif" font-size="10.00" fill="grey"> elements</text>
</g>
<!-- Node38&#45;&gt;Node37 -->
<g id="edge40_Node000037_Node000038" class="edge">
<title>Node38&#45;&gt;Node37</title>
<g id="a_edge40_Node000037_Node000038"><a xlink:title=" ">
<path fill="none" stroke="#9a32cd" stroke-dasharray="5,2" d="M625.35,-562.54C680.48,-566.18 753.99,-571.04 805.39,-574.43"/>
<polygon fill="#9a32cd" stroke="#9a32cd" points="625.49,-559.04 615.28,-561.88 625.02,-566.03 625.49,-559.04"/>
</a>
</g>
<text text-anchor="middle" x="714" y="-586.5" font-family="Helvetica,sans-Serif" font-size="10.00" fill="grey"> locals</text>
<text text-anchor="middle" x="714" y="-575.5" font-family="Helvetica,sans-Serif" font-size="10.00" fill="grey">stack</text>
</g>
<!-- Node40&#45;&gt;Node2 -->
<g id="edge43_Node000002_Node000040" class="edge">
<title>Node40&#45;&gt;Node2</title>
<g id="a_edge43_Node000002_Node000040"><a xlink:title=" ">
<path fill="none" stroke="orange" stroke-dasharray="5,2" d="M324.94,-6.48C382.01,-3.86 470.34,-0.5 547,-0.5 547,-0.5 547,-0.5 1637.5,-0.5 1792.44,-0.5 1859.73,-242.99 1874.68,-306.45"/>
<polygon fill="orange" stroke="orange" points="324.48,-3 314.65,-6.96 324.8,-9.99 324.48,-3"/>
</a>
</g>
<text text-anchor="start" x="1096.5" y="-14.5" font-family="Helvetica,sans-Serif" font-size="10.00" fill="grey"> &lt; irep_idt, class_method</text>
<text text-anchor="middle" x="1159" y="-3.5" font-family="Helvetica,sans-Serif" font-size="10.00" fill="grey">_and_bytecodet &gt;</text>
</g>
<!-- Node41 -->
<g id="Node000041" class="node">
<title>Node41</title>
<g id="a_Node000041"><a xlink:title=" ">
<polygon fill="white" stroke="#666666" points="62.5,-19 33.5,-19 33.5,0 62.5,0 62.5,-19"/>
<text text-anchor="middle" x="48" y="-7" font-family="Helvetica,sans-Serif" font-size="10.00">K</text>
</a>
</g>
</g>
<!-- Node41&#45;&gt;Node40 -->
<g id="edge44_Node000040_Node000041" class="edge">
<title>Node41&#45;&gt;Node40</title>
<g id="a_edge44_Node000040_Node000041"><a xlink:title=" ">
<path fill="none" stroke="#9a32cd" stroke-dasharray="5,2" d="M73.03,-9.5C106.88,-9.5 169.4,-9.5 213.45,-9.5"/>
<polygon fill="#9a32cd" stroke="#9a32cd" points="72.71,-6 62.71,-9.5 72.71,-13 72.71,-6"/>
</a>
</g>
<text text-anchor="middle" x="142.5" y="-12.5" font-family="Helvetica,sans-Serif" font-size="10.00" fill="grey"> keys</text>
</g>
</g>
</svg>
