<?xml version="1.0" encoding="UTF-8" standalone="no"?>
<!DOCTYPE svg PUBLIC "-//W3C//DTD SVG 1.1//EN"
 "http://www.w3.org/Graphics/SVG/1.1/DTD/svg11.dtd">
<!-- Generated by graphviz version 2.43.0 (0)
 -->
<!-- Title: check_call_sequencet Pages: 1 -->
<svg width="1788pt" height="357pt"
 viewBox="0.00 0.00 1788.00 357.00" xmlns="http://www.w3.org/2000/svg" xmlns:xlink="http://www.w3.org/1999/xlink">
<g id="graph0" class="graph" transform="scale(1 1) rotate(0) translate(4 353)">
<title>check_call_sequencet</title>
<!-- Node1 -->
<g id="Node000001" class="node">
<title>Node1</title>
<g id="a_Node000001"><a xlink:title=" ">
<polygon fill="#999999" stroke="#666666" points="1780,-160.5 1657,-160.5 1657,-141.5 1780,-141.5 1780,-160.5"/>
<text text-anchor="middle" x="1718.5" y="-148.5" font-family="Helvetica,sans-Serif" font-size="10.00">check_call_sequencet</text>
</a>
</g>
</g>
<!-- Node2 -->
<g id="Node000002" class="node">
<title>Node2</title>
<g id="a_Node000002"><a xlink:href="classgoto__functionst.html" target="_top" xlink:title="A collection of goto functions.">
<polygon fill="white" stroke="#666666" points="1545,-160.5 1453,-160.5 1453,-141.5 1545,-141.5 1545,-160.5"/>
<text text-anchor="middle" x="1499" y="-148.5" font-family="Helvetica,sans-Serif" font-size="10.00">goto_functionst</text>
</a>
</g>
</g>
<!-- Node2&#45;&gt;Node1 -->
<g id="edge1_Node000001_Node000002" class="edge">
<title>Node2&#45;&gt;Node1</title>
<g id="a_edge1_Node000001_Node000002"><a xlink:title=" ">
<path fill="none" stroke="#9a32cd" stroke-dasharray="5,2" d="M1555.26,-151C1586.26,-151 1624.98,-151 1656.81,-151"/>
<polygon fill="#9a32cd" stroke="#9a32cd" points="1555.07,-147.5 1545.07,-151 1555.07,-154.5 1555.07,-147.5"/>
</a>
</g>
<text text-anchor="middle" x="1601" y="-154" font-family="Helvetica,sans-Serif" font-size="10.00" fill="grey"> goto_functions</text>
</g>
<!-- Node3 -->
<g id="Node000003" class="node">
<title>Node3</title>
<g id="a_Node000003"><a xlink:title=" ">
<polygon fill="white" stroke="#666666" points="1347,-166 1237,-166 1237,-136 1347,-136 1347,-166"/>
<text text-anchor="start" x="1245" y="-154" font-family="Helvetica,sans-Serif" font-size="10.00">std::map&lt; irep_idt,</text>
<text text-anchor="middle" x="1292" y="-143" font-family="Helvetica,sans-Serif" font-size="10.00"> goto_functiont &gt;</text>
</a>
</g>
</g>
<!-- Node3&#45;&gt;Node2 -->
<g id="edge2_Node000002_Node000003" class="edge">
<title>Node3&#45;&gt;Node2</title>
<g id="a_edge2_Node000002_Node000003"><a xlink:title=" ">
<path fill="none" stroke="#9a32cd" stroke-dasharray="5,2" d="M1357.43,-151C1388.46,-151 1424.92,-151 1452.93,-151"/>
<polygon fill="#9a32cd" stroke="#9a32cd" points="1357.13,-147.5 1347.13,-151 1357.13,-154.5 1357.13,-147.5"/>
</a>
</g>
<text text-anchor="middle" x="1400" y="-154" font-family="Helvetica,sans-Serif" font-size="10.00" fill="grey"> function_map</text>
</g>
<!-- Node4 -->
<g id="Node000004" class="node">
<title>Node4</title>
<g id="a_Node000004"><a xlink:href="classdstringt.html" target="_top" xlink:title="dstringt has one field, an unsigned integer no which is an index into a static table of strings.">
<polygon fill="white" stroke="#666666" points="590.5,-200.5 536.5,-200.5 536.5,-181.5 590.5,-181.5 590.5,-200.5"/>
<text text-anchor="middle" x="563.5" y="-188.5" font-family="Helvetica,sans-Serif" font-size="10.00">dstringt</text>
</a>
</g>
</g>
<!-- Node4&#45;&gt;Node3 -->
<g id="edge3_Node000003_Node000004" class="edge">
<title>Node4&#45;&gt;Node3</title>
<g id="a_edge3_Node000003_Node000004"><a xlink:title=" ">
<path fill="none" stroke="#9a32cd" stroke-dasharray="5,2" d="M600.55,-188.77C614.99,-187.88 631.78,-186.87 647,-186 865.54,-173.44 1125.87,-159.65 1236.71,-153.84"/>
<polygon fill="#9a32cd" stroke="#9a32cd" points="600.27,-185.28 590.51,-189.38 600.7,-192.26 600.27,-185.28"/>
</a>
</g>
<text text-anchor="middle" x="938" y="-175" font-family="Helvetica,sans-Serif" font-size="10.00" fill="grey"> keys</text>
</g>
<!-- Node11 -->
<g id="Node000011" class="node">
<title>Node11</title>
<g id="a_Node000011"><a xlink:title=" ">
<polygon fill="white" stroke="#666666" points="858.5,-269.5 730.5,-269.5 730.5,-250.5 858.5,-250.5 858.5,-269.5"/>
<text text-anchor="middle" x="794.5" y="-257.5" font-family="Helvetica,sans-Serif" font-size="10.00">std::vector&lt; irep_idt &gt;</text>
</a>
</g>
</g>
<!-- Node4&#45;&gt;Node11 -->
<g id="edge12_Node000011_Node000004" class="edge">
<title>Node4&#45;&gt;Node11</title>
<g id="a_edge12_Node000011_Node000004"><a xlink:title=" ">
<path fill="none" stroke="#9a32cd" stroke-dasharray="5,2" d="M600.55,-201.86C644.87,-215.22 719.4,-237.67 761.69,-250.41"/>
<polygon fill="#9a32cd" stroke="#9a32cd" points="601.35,-198.45 590.77,-198.92 599.33,-205.15 601.35,-198.45"/>
</a>
</g>
<text text-anchor="middle" x="677.5" y="-236" font-family="Helvetica,sans-Serif" font-size="10.00" fill="grey"> elements</text>
</g>
<!-- Node14 -->
<g id="Node000014" class="node">
<title>Node14</title>
<g id="a_Node000014"><a xlink:title=" ">
<polygon fill="white" stroke="#666666" points="858.5,-211.5 730.5,-211.5 730.5,-192.5 858.5,-192.5 858.5,-211.5"/>
<text text-anchor="middle" x="794.5" y="-199.5" font-family="Helvetica,sans-Serif" font-size="10.00">std::vector&lt; dstringt &gt;</text>
</a>
</g>
</g>
<!-- Node4&#45;&gt;Node14 -->
<g id="edge18_Node000014_Node000004" class="edge">
<title>Node4&#45;&gt;Node14</title>
<g id="a_edge18_Node000014_Node000004"><a xlink:title=" ">
<path fill="none" stroke="#9a32cd" stroke-dasharray="5,2" d="M600.8,-190.16C629.84,-189.75 671.57,-189.75 708,-192 715.16,-192.44 722.64,-193.07 730.07,-193.8"/>
<polygon fill="#9a32cd" stroke="#9a32cd" points="600.66,-186.66 590.71,-190.32 600.77,-193.66 600.66,-186.66"/>
</a>
</g>
<text text-anchor="middle" x="677.5" y="-195" font-family="Helvetica,sans-Serif" font-size="10.00" fill="grey"> elements</text>
</g>
<!-- Node5 -->
<g id="Node000005" class="node">
<title>Node5</title>
<g id="a_Node000005"><a xlink:href="classgoto__functiont.html" target="_top" xlink:title="A goto function, consisting of function body (see body) and parameter identifiers (see parameter_iden...">
<polygon fill="white" stroke="#666666" points="1126,-269.5 1039,-269.5 1039,-250.5 1126,-250.5 1126,-269.5"/>
<text text-anchor="middle" x="1082.5" y="-257.5" font-family="Helvetica,sans-Serif" font-size="10.00">goto_functiont</text>
</a>
</g>
</g>
<!-- Node5&#45;&gt;Node3 -->
<g id="edge4_Node000003_Node000005" class="edge">
<title>Node5&#45;&gt;Node3</title>
<g id="a_edge4_Node000003_Node000005"><a xlink:title=" ">
<path fill="none" stroke="#9a32cd" stroke-dasharray="5,2" d="M1111.17,-245.46C1150.5,-224.81 1222.18,-187.15 1262.14,-166.16"/>
<polygon fill="#9a32cd" stroke="#9a32cd" points="1109.14,-242.58 1101.91,-250.33 1112.39,-248.78 1109.14,-242.58"/>
</a>
</g>
<text text-anchor="middle" x="1194.5" y="-215" font-family="Helvetica,sans-Serif" font-size="10.00" fill="grey"> elements</text>
</g>
<!-- Node6 -->
<g id="Node000006" class="node">
<title>Node6</title>
<g id="a_Node000006"><a xlink:href="classgoto__programt.html" target="_top" xlink:title="A generic container class for the GOTO intermediate representation of one function.">
<polygon fill="white" stroke="#666666" points="839,-316.5 750,-316.5 750,-297.5 839,-297.5 839,-316.5"/>
<text text-anchor="middle" x="794.5" y="-304.5" font-family="Helvetica,sans-Serif" font-size="10.00">goto_programt</text>
</a>
</g>
</g>
<!-- Node6&#45;&gt;Node5 -->
<g id="edge5_Node000005_Node000006" class="edge">
<title>Node6&#45;&gt;Node5</title>
<g id="a_edge5_Node000005_Node000006"><a xlink:title=" ">
<path fill="none" stroke="#9a32cd" stroke-dasharray="5,2" d="M849.14,-298.19C903.99,-289.17 988.13,-275.34 1038.69,-267.03"/>
<polygon fill="#9a32cd" stroke="#9a32cd" points="848.55,-294.74 839.25,-299.81 849.68,-301.64 848.55,-294.74"/>
</a>
</g>
<text text-anchor="middle" x="938" y="-294" font-family="Helvetica,sans-Serif" font-size="10.00" fill="grey"> body</text>
</g>
<!-- Node7 -->
<g id="Node000007" class="node">
<title>Node7</title>
<g id="a_Node000007"><a xlink:title=" ">
<polygon fill="white" stroke="#666666" points="629,-339.5 498,-339.5 498,-320.5 629,-320.5 629,-339.5"/>
<text text-anchor="middle" x="563.5" y="-327.5" font-family="Helvetica,sans-Serif" font-size="10.00">std::list&lt; instructiont &gt;</text>
</a>
</g>
</g>
<!-- Node7&#45;&gt;Node6 -->
<g id="edge6_Node000006_Node000007" class="edge">
<title>Node7&#45;&gt;Node6</title>
<g id="a_edge6_Node000006_Node000007"><a xlink:title=" ">
<path fill="none" stroke="#9a32cd" stroke-dasharray="5,2" d="M639.35,-322.48C675.97,-318.8 718.76,-314.51 749.96,-311.37"/>
<polygon fill="#9a32cd" stroke="#9a32cd" points="638.8,-319.02 629.2,-323.5 639.5,-325.98 638.8,-319.02"/>
</a>
</g>
<text text-anchor="middle" x="677.5" y="-324" font-family="Helvetica,sans-Serif" font-size="10.00" fill="grey"> instructions</text>
</g>
<!-- Node8 -->
<g id="Node000008" class="node">
<title>Node8</title>
<g id="a_Node000008"><a xlink:title=" ">
<polygon fill="white" stroke="#666666" points="328,-272.5 231,-272.5 231,-253.5 328,-253.5 328,-272.5"/>
<text text-anchor="middle" x="279.5" y="-260.5" font-family="Helvetica,sans-Serif" font-size="10.00">std::vector&lt; T &gt;</text>
</a>
</g>
</g>
<!-- Node8&#45;&gt;Node7 -->
<g id="edge7_Node000007_Node000008" class="edge">
<title>Node8&#45;&gt;Node7</title>
<g id="a_edge7_Node000007_Node000008"><a xlink:title=" ">
<path fill="none" stroke="#9a32cd" stroke-dasharray="5,2" d="M304.8,-277.65C319.89,-286.08 339.97,-296.14 359,-302 384.22,-309.77 448.3,-317.92 497.87,-323.4"/>
<polygon fill="#9a32cd" stroke="#9a32cd" points="306.52,-274.6 296.1,-272.66 303.03,-280.67 306.52,-274.6"/>
</a>
</g>
<text text-anchor="middle" x="419.5" y="-324" font-family="Helvetica,sans-Serif" font-size="10.00" fill="grey"> elements</text>
</g>
<!-- Node8&#45;&gt;Node11 -->
<g id="edge13_Node000011_Node000008" class="edge">
<title>Node8&#45;&gt;Node11</title>
<g id="a_edge13_Node000011_Node000008"><a xlink:title=" ">
<path fill="none" stroke="orange" stroke-dasharray="5,2" d="M338.42,-264.51C420.62,-266.38 575.85,-268.86 708,-265 715.28,-264.79 722.91,-264.47 730.48,-264.1"/>
<polygon fill="orange" stroke="orange" points="338.36,-261.01 328.28,-264.28 338.19,-268.01 338.36,-261.01"/>
</a>
</g>
<text text-anchor="middle" x="563.5" y="-270" font-family="Helvetica,sans-Serif" font-size="10.00" fill="grey"> &lt; irep_idt &gt;</text>
</g>
<!-- Node8&#45;&gt;Node14 -->
<g id="edge19_Node000014_Node000008" class="edge">
<title>Node8&#45;&gt;Node14</title>
<g id="a_edge19_Node000014_Node000008"><a xlink:title=" ">
<path fill="none" stroke="orange" stroke-dasharray="5,2" d="M338.33,-259.73C453.04,-253.2 699.12,-239.03 708,-237 732.08,-231.5 758.13,-219.95 775.06,-211.62"/>
<polygon fill="orange" stroke="orange" points="338.1,-256.23 328.32,-260.3 338.5,-263.22 338.1,-256.23"/>
</a>
</g>
<text text-anchor="middle" x="563.5" y="-253" font-family="Helvetica,sans-Serif" font-size="10.00" fill="grey"> &lt; dstringt &gt;</text>
</g>
<!-- Node18 -->
<g id="Node000018" class="node">
<title>Node18</title>
<g id="a_Node000018"><a xlink:title=" ">
<polygon fill="white" stroke="#666666" points="622.5,-67.5 504.5,-67.5 504.5,-26.5 622.5,-26.5 622.5,-67.5"/>
<text text-anchor="start" x="512.5" y="-55.5" font-family="Helvetica,sans-Serif" font-size="10.00">std::vector&lt; check</text>
<text text-anchor="start" x="512.5" y="-44.5" font-family="Helvetica,sans-Serif" font-size="10.00">_call_sequencet::call</text>
<text text-anchor="middle" x="563.5" y="-33.5" font-family="Helvetica,sans-Serif" font-size="10.00">_stack_entryt &gt;</text>
</a>
</g>
</g>
<!-- Node8&#45;&gt;Node18 -->
<g id="edge26_Node000018_Node000008" class="edge">
<title>Node8&#45;&gt;Node18</title>
<g id="a_edge26_Node000018_Node000008"><a xlink:title=" ">
<path fill="none" stroke="orange" stroke-dasharray="5,2" d="M301.21,-247.2C316.72,-235.69 338.67,-220.07 359,-208 410.62,-177.36 442.29,-194.7 480,-148 500.45,-122.67 477.23,-102.07 498,-77 500.92,-73.48 504.34,-70.35 508.05,-67.58"/>
<polygon fill="orange" stroke="orange" points="298.79,-244.64 292.89,-253.44 302.99,-250.24 298.79,-244.64"/>
</a>
</g>
<text text-anchor="start" x="359" y="-222" font-family="Helvetica,sans-Serif" font-size="10.00" fill="grey"> &lt; check_call_sequencet</text>
<text text-anchor="middle" x="419.5" y="-211" font-family="Helvetica,sans-Serif" font-size="10.00" fill="grey">::call_stack_entryt &gt;</text>
</g>
<!-- Node9 -->
<g id="Node000009" class="node">
<title>Node9</title>
<g id="a_Node000009"><a xlink:title=" ">
<polygon fill="white" stroke="#666666" points="81,-272.5 52,-272.5 52,-253.5 81,-253.5 81,-272.5"/>
<text text-anchor="middle" x="66.5" y="-260.5" font-family="Helvetica,sans-Serif" font-size="10.00">T</text>
</a>
</g>
</g>
<!-- Node9&#45;&gt;Node8 -->
<g id="edge8_Node000008_Node000009" class="edge">
<title>Node9&#45;&gt;Node8</title>
<g id="a_edge8_Node000008_Node000009"><a xlink:title=" ">
<path fill="none" stroke="#9a32cd" stroke-dasharray="5,2" d="M91.29,-263C125.04,-263 187.54,-263 230.99,-263"/>
<polygon fill="#9a32cd" stroke="#9a32cd" points="91.02,-259.5 81.02,-263 91.02,-266.5 91.02,-259.5"/>
</a>
</g>
<text text-anchor="middle" x="175.5" y="-266" font-family="Helvetica,sans-Serif" font-size="10.00" fill="grey"> elements</text>
</g>
<!-- Node10 -->
<g id="Node000010" class="node">
<title>Node10</title>
<g id="a_Node000010"><a xlink:title=" ">
<polygon fill="white" stroke="#666666" points="320,-347.5 239,-347.5 239,-328.5 320,-328.5 320,-347.5"/>
<text text-anchor="middle" x="279.5" y="-335.5" font-family="Helvetica,sans-Serif" font-size="10.00">std::list&lt; T &gt;</text>
</a>
</g>
</g>
<!-- Node9&#45;&gt;Node10 -->
<g id="edge10_Node000010_Node000009" class="edge">
<title>Node9&#45;&gt;Node10</title>
<g id="a_edge10_Node000010_Node000009"><a xlink:title=" ">
<path fill="none" stroke="#9a32cd" stroke-dasharray="5,2" d="M90.54,-271.19C129.91,-285.18 209.91,-313.62 251.7,-328.48"/>
<polygon fill="#9a32cd" stroke="#9a32cd" points="91.61,-267.86 81.02,-267.81 89.27,-274.45 91.61,-267.86"/>
</a>
</g>
<text text-anchor="middle" x="175.5" y="-312" font-family="Helvetica,sans-Serif" font-size="10.00" fill="grey"> elements</text>
</g>
<!-- Node12 -->
<g id="Node000012" class="node">
<title>Node12</title>
<g id="a_Node000012"><a xlink:title=" ">
<polygon fill="white" stroke="#666666" points="845,-128.5 744,-128.5 744,-109.5 845,-109.5 845,-128.5"/>
<text text-anchor="middle" x="794.5" y="-116.5" font-family="Helvetica,sans-Serif" font-size="10.00">std::map&lt; K, T &gt;</text>
</a>
</g>
</g>
<!-- Node9&#45;&gt;Node12 -->
<g id="edge16_Node000012_Node000009" class="edge">
<title>Node9&#45;&gt;Node12</title>
<g id="a_edge16_Node000012_Node000009"><a xlink:title=" ">
<path fill="none" stroke="#9a32cd" stroke-dasharray="5,2" d="M89.91,-249.33C137.42,-221.21 252.65,-157.44 359,-133 395.59,-124.59 637.85,-120.8 743.91,-119.52"/>
<polygon fill="#9a32cd" stroke="#9a32cd" points="87.86,-246.48 81.08,-254.62 91.46,-252.49 87.86,-246.48"/>
</a>
</g>
<text text-anchor="middle" x="419.5" y="-136" font-family="Helvetica,sans-Serif" font-size="10.00" fill="grey"> elements</text>
</g>
<!-- Node10&#45;&gt;Node7 -->
<g id="edge9_Node000007_Node000010" class="edge">
<title>Node10&#45;&gt;Node7</title>
<g id="a_edge9_Node000007_Node000010"><a xlink:title=" ">
<path fill="none" stroke="orange" stroke-dasharray="5,2" d="M330.38,-338.36C370.75,-338.45 429.06,-338.11 480,-336 485.74,-335.76 491.7,-335.45 497.67,-335.1"/>
<polygon fill="orange" stroke="orange" points="330.27,-334.86 320.26,-338.33 330.25,-341.86 330.27,-334.86"/>
</a>
</g>
<text text-anchor="middle" x="419.5" y="-341" font-family="Helvetica,sans-Serif" font-size="10.00" fill="grey"> &lt; instructiont &gt;</text>
</g>
<!-- Node11&#45;&gt;Node5 -->
<g id="edge11_Node000005_Node000011" class="edge">
<title>Node11&#45;&gt;Node5</title>
<g id="a_edge11_Node000005_Node000011"><a xlink:title=" ">
<path fill="none" stroke="#9a32cd" stroke-dasharray="5,2" d="M868.81,-260C922.71,-260 994.09,-260 1038.91,-260"/>
<polygon fill="#9a32cd" stroke="#9a32cd" points="868.62,-256.5 858.62,-260 868.62,-263.5 868.62,-256.5"/>
</a>
</g>
<text text-anchor="middle" x="938" y="-263" font-family="Helvetica,sans-Serif" font-size="10.00" fill="grey"> parameter_identifiers</text>
</g>
<!-- Node12&#45;&gt;Node3 -->
<g id="edge14_Node000003_Node000012" class="edge">
<title>Node12&#45;&gt;Node3</title>
<g id="a_edge14_Node000003_Node000012"><a xlink:title=" ">
<path fill="none" stroke="orange" stroke-dasharray="5,2" d="M855.27,-119.71C926.17,-120.94 1047.87,-124.23 1152,-133 1180.13,-135.37 1211.3,-139.29 1236.99,-142.86"/>
<polygon fill="orange" stroke="orange" points="855.24,-116.21 845.18,-119.55 855.13,-123.21 855.24,-116.21"/>
</a>
</g>
<text text-anchor="middle" x="1082.5" y="-136" font-family="Helvetica,sans-Serif" font-size="10.00" fill="grey"> &lt; irep_idt, goto_functiont &gt;</text>
</g>
<!-- Node13 -->
<g id="Node000013" class="node">
<title>Node13</title>
<g id="a_Node000013"><a xlink:title=" ">
<polygon fill="white" stroke="#666666" points="578,-104.5 549,-104.5 549,-85.5 578,-85.5 578,-104.5"/>
<text text-anchor="middle" x="563.5" y="-92.5" font-family="Helvetica,sans-Serif" font-size="10.00">K</text>
</a>
</g>
</g>
<!-- Node13&#45;&gt;Node12 -->
<g id="edge15_Node000012_Node000013" class="edge">
<title>Node13&#45;&gt;Node12</title>
<g id="a_edge15_Node000012_Node000013"><a xlink:title=" ">
<path fill="none" stroke="#9a32cd" stroke-dasharray="5,2" d="M588.59,-96.9C617.12,-99.22 666.07,-103.41 708,-108 719.6,-109.27 732.07,-110.79 743.81,-112.29"/>
<polygon fill="#9a32cd" stroke="#9a32cd" points="588.62,-93.4 578.37,-96.08 588.06,-100.37 588.62,-93.4"/>
</a>
</g>
<text text-anchor="middle" x="677.5" y="-111" font-family="Helvetica,sans-Serif" font-size="10.00" fill="grey"> keys</text>
</g>
<!-- Node20 -->
<g id="Node000020" class="node">
<title>Node20</title>
<g id="a_Node000020"><a xlink:title=" ">
<polygon fill="white" stroke="#666666" points="863,-82.5 726,-82.5 726,-63.5 863,-63.5 863,-82.5"/>
<text text-anchor="middle" x="794.5" y="-70.5" font-family="Helvetica,sans-Serif" font-size="10.00">std::unordered_set&lt; K &gt;</text>
</a>
</g>
</g>
<!-- Node13&#45;&gt;Node20 -->
<g id="edge28_Node000020_Node000013" class="edge">
<title>Node13&#45;&gt;Node20</title>
<g id="a_edge28_Node000020_Node000013"><a xlink:title=" ">
<path fill="none" stroke="#9a32cd" stroke-dasharray="5,2" d="M587.81,-87.46C604.17,-82.56 626.68,-76.62 647,-74 672.6,-70.7 700.94,-69.86 725.81,-70.05"/>
<polygon fill="#9a32cd" stroke="#9a32cd" points="586.55,-84.18 578.03,-90.48 588.61,-90.87 586.55,-84.18"/>
</a>
</g>
<text text-anchor="middle" x="677.5" y="-77" font-family="Helvetica,sans-Serif" font-size="10.00" fill="grey"> keys</text>
</g>
<!-- Node14&#45;&gt;Node1 -->
<g id="edge17_Node000001_Node000014" class="edge">
<title>Node14&#45;&gt;Node1</title>
<g id="a_edge17_Node000001_Node000014"><a xlink:title=" ">
<path fill="none" stroke="#9a32cd" stroke-dasharray="5,2" d="M868.68,-202C926.46,-202 1009.13,-202 1081.5,-202 1081.5,-202 1081.5,-202 1500,-202 1571.75,-202 1653.39,-175.37 1693.15,-160.59"/>
<polygon fill="#9a32cd" stroke="#9a32cd" points="868.55,-198.5 858.55,-202 868.55,-205.5 868.55,-198.5"/>
</a>
</g>
<text text-anchor="middle" x="1292" y="-205" font-family="Helvetica,sans-Serif" font-size="10.00" fill="grey"> sequence</text>
</g>
<!-- Node15 -->
<g id="Node000015" class="node">
<title>Node15</title>
<g id="a_Node000015"><a xlink:title=" ">
<polygon fill="white" stroke="#666666" points="1146,-83 1019,-83 1019,-53 1146,-53 1146,-83"/>
<text text-anchor="start" x="1027" y="-71" font-family="Helvetica,sans-Serif" font-size="10.00">std::unordered_set</text>
<text text-anchor="middle" x="1082.5" y="-60" font-family="Helvetica,sans-Serif" font-size="10.00">&lt; statet, state_hash &gt;</text>
</a>
</g>
</g>
<!-- Node15&#45;&gt;Node1 -->
<g id="edge20_Node000001_Node000015" class="edge">
<title>Node15&#45;&gt;Node1</title>
<g id="a_edge20_Node000001_Node000015"><a xlink:title=" ">
<path fill="none" stroke="#9a32cd" stroke-dasharray="5,2" d="M1155.98,-77.49C1282.07,-94 1539.53,-127.7 1656.84,-143.06"/>
<polygon fill="#9a32cd" stroke="#9a32cd" points="1156.4,-74.01 1146.03,-76.19 1155.49,-80.95 1156.4,-74.01"/>
</a>
</g>
<text text-anchor="middle" x="1400" y="-116" font-family="Helvetica,sans-Serif" font-size="10.00" fill="grey"> states</text>
</g>
<!-- Node16 -->
<g id="Node000016" class="node">
<title>Node16</title>
<g id="a_Node000016"><a xlink:href="structcheck__call__sequencet_1_1statet.html" target="_top" xlink:title=" ">
<polygon fill="white" stroke="#666666" points="856,-45 733,-45 733,-15 856,-15 856,-45"/>
<text text-anchor="start" x="741" y="-33" font-family="Helvetica,sans-Serif" font-size="10.00">check_call_sequencet</text>
<text text-anchor="middle" x="794.5" y="-22" font-family="Helvetica,sans-Serif" font-size="10.00">::statet</text>
</a>
</g>
</g>
<!-- Node16&#45;&gt;Node15 -->
<g id="edge21_Node000015_Node000016" class="edge">
<title>Node16&#45;&gt;Node15</title>
<g id="a_edge21_Node000015_Node000016"><a xlink:title=" ">
<path fill="none" stroke="#9a32cd" stroke-dasharray="5,2" d="M866.25,-37.8C904.44,-42.19 952.35,-47.99 995,-54 1002.68,-55.08 1010.74,-56.29 1018.71,-57.53"/>
<polygon fill="#9a32cd" stroke="#9a32cd" points="866.59,-34.32 856.26,-36.66 865.8,-41.27 866.59,-34.32"/>
</a>
</g>
<text text-anchor="middle" x="938" y="-57" font-family="Helvetica,sans-Serif" font-size="10.00" fill="grey"> keys</text>
</g>
<!-- Node17 -->
<g id="Node000017" class="node">
<title>Node17</title>
<g id="a_Node000017"><a xlink:title=" ">
<polygon fill="white" stroke="#666666" points="133,-30 0,-30 0,0 133,0 133,-30"/>
<text text-anchor="start" x="8" y="-18" font-family="Helvetica,sans-Serif" font-size="10.00">std::map&lt; K, T &gt;::const</text>
<text text-anchor="middle" x="66.5" y="-7" font-family="Helvetica,sans-Serif" font-size="10.00">_iterator</text>
</a>
</g>
</g>
<!-- Node17&#45;&gt;Node16 -->
<g id="edge22_Node000016_Node000017" class="edge">
<title>Node17&#45;&gt;Node16</title>
<g id="a_edge22_Node000016_Node000017"><a xlink:title=" ">
<path fill="none" stroke="#9a32cd" stroke-dasharray="5,2" d="M143.38,-13.46C251.32,-11.68 455.38,-9.84 629,-17 663.35,-18.42 701.64,-21.36 732.63,-24.09"/>
<polygon fill="#9a32cd" stroke="#9a32cd" points="143.17,-9.96 133.23,-13.63 143.29,-16.96 143.17,-9.96"/>
</a>
</g>
<text text-anchor="middle" x="419.5" y="-16" font-family="Helvetica,sans-Serif" font-size="10.00" fill="grey"> f</text>
</g>
<!-- Node19 -->
<g id="Node000019" class="node">
<title>Node19</title>
<g id="a_Node000019"><a xlink:href="structcheck__call__sequencet_1_1call__stack__entryt.html" target="_top" xlink:title=" ">
<polygon fill="white" stroke="#666666" points="341,-59 218,-59 218,-29 341,-29 341,-59"/>
<text text-anchor="start" x="226" y="-47" font-family="Helvetica,sans-Serif" font-size="10.00">check_call_sequencet</text>
<text text-anchor="middle" x="279.5" y="-36" font-family="Helvetica,sans-Serif" font-size="10.00">::call_stack_entryt</text>
</a>
</g>
</g>
<!-- Node17&#45;&gt;Node19 -->
<g id="edge25_Node000019_Node000017" class="edge">
<title>Node17&#45;&gt;Node19</title>
<g id="a_edge25_Node000019_Node000017"><a xlink:title=" ">
<path fill="none" stroke="#9a32cd" stroke-dasharray="5,2" d="M143.12,-25.39C167.7,-28.77 194.63,-32.47 217.97,-35.68"/>
<polygon fill="#9a32cd" stroke="#9a32cd" points="143.49,-21.91 133.11,-24.02 142.54,-28.85 143.49,-21.91"/>
</a>
</g>
<text text-anchor="middle" x="175.5" y="-36" font-family="Helvetica,sans-Serif" font-size="10.00" fill="grey"> f</text>
</g>
<!-- Node18&#45;&gt;Node16 -->
<g id="edge23_Node000016_Node000018" class="edge">
<title>Node18&#45;&gt;Node16</title>
<g id="a_edge23_Node000016_Node000018"><a xlink:title=" ">
<path fill="none" stroke="#9a32cd" stroke-dasharray="5,2" d="M632.63,-41.13C637.49,-40.74 642.32,-40.36 647,-40 675.21,-37.84 706.5,-35.67 732.9,-33.91"/>
<polygon fill="#9a32cd" stroke="#9a32cd" points="632.32,-37.64 622.63,-41.95 632.89,-44.62 632.32,-37.64"/>
</a>
</g>
<text text-anchor="middle" x="677.5" y="-43" font-family="Helvetica,sans-Serif" font-size="10.00" fill="grey"> call_stack</text>
</g>
<!-- Node19&#45;&gt;Node18 -->
<g id="edge24_Node000018_Node000019" class="edge">
<title>Node19&#45;&gt;Node18</title>
<g id="a_edge24_Node000018_Node000019"><a xlink:title=" ">
<path fill="none" stroke="#9a32cd" stroke-dasharray="5,2" d="M351.49,-44.76C398.66,-45.26 459.85,-45.91 504.18,-46.38"/>
<polygon fill="#9a32cd" stroke="#9a32cd" points="351.38,-41.25 341.34,-44.65 351.3,-48.25 351.38,-41.25"/>
</a>
</g>
<text text-anchor="middle" x="419.5" y="-49" font-family="Helvetica,sans-Serif" font-size="10.00" fill="grey"> elements</text>
</g>
<!-- Node20&#45;&gt;Node15 -->
<g id="edge27_Node000015_Node000020" class="edge">
<title>Node20&#45;&gt;Node15</title>
<g id="a_edge27_Node000015_Node000020"><a xlink:title=" ">
<path fill="none" stroke="orange" stroke-dasharray="5,2" d="M873.42,-71.64C919.03,-70.84 975.87,-69.85 1018.61,-69.1"/>
<polygon fill="orange" stroke="orange" points="873.22,-68.14 863.28,-71.82 873.34,-75.14 873.22,-68.14"/>
</a>
</g>
<text text-anchor="middle" x="938" y="-74" font-family="Helvetica,sans-Serif" font-size="10.00" fill="grey"> &lt; statet, state_hash &gt;</text>
</g>
</g>
</svg>
