<?xml version="1.0" encoding="UTF-8" standalone="no"?>
<!DOCTYPE svg PUBLIC "-//W3C//DTD SVG 1.1//EN"
 "http://www.w3.org/Graphics/SVG/1.1/DTD/svg11.dtd">
<!-- Generated by graphviz version 2.43.0 (0)
 -->
<!-- Title: variable_sensitivity_dependence_grapht Pages: 1 -->
<svg width="330pt" height="216pt"
 viewBox="0.00 0.00 329.50 216.00" xmlns="http://www.w3.org/2000/svg" xmlns:xlink="http://www.w3.org/1999/xlink">
<g id="graph0" class="graph" transform="scale(1 1) rotate(0) translate(4 212)">
<title>variable_sensitivity_dependence_grapht</title>
<!-- Node1 -->
<g id="Node000001" class="node">
<title>Node1</title>
<g id="a_Node000001"><a xlink:title=" ">
<polygon fill="#999999" stroke="#666666" points="211.5,-30 93.5,-30 93.5,0 211.5,0 211.5,-30"/>
<text text-anchor="start" x="101.5" y="-18" font-family="Helvetica,sans-Serif" font-size="10.00">variable_sensitivity</text>
<text text-anchor="middle" x="152.5" y="-7" font-family="Helvetica,sans-Serif" font-size="10.00">_dependence_grapht</text>
</a>
</g>
</g>
<!-- Node2 -->
<g id="Node000002" class="node">
<title>Node2</title>
<g id="a_Node000002"><a xlink:href="classai__three__way__merget.html" target="_top" xlink:title=" ">
<polygon fill="white" stroke="#666666" points="140.5,-86 18.5,-86 18.5,-67 140.5,-67 140.5,-86"/>
<text text-anchor="middle" x="79.5" y="-74" font-family="Helvetica,sans-Serif" font-size="10.00">ai_three_way_merget</text>
</a>
</g>
</g>
<!-- Node2&#45;&gt;Node1 -->
<g id="edge1_Node000001_Node000002" class="edge">
<title>Node2&#45;&gt;Node1</title>
<g id="a_edge1_Node000001_Node000002"><a xlink:title=" ">
<path fill="none" stroke="#63b8ff" d="M98,-60.42C109.46,-51.08 124.08,-39.16 135.3,-30.02"/>
<polygon fill="#63b8ff" stroke="#63b8ff" points="95.5,-57.94 89.96,-66.98 99.92,-63.37 95.5,-57.94"/>
</a>
</g>
</g>
<!-- Node3 -->
<g id="Node000003" class="node">
<title>Node3</title>
<g id="a_Node000003"><a xlink:href="classai__recursive__interproceduralt.html" target="_top" xlink:title=" ">
<polygon fill="white" stroke="#666666" points="159,-152 0,-152 0,-133 159,-133 159,-152"/>
<text text-anchor="middle" x="79.5" y="-140" font-family="Helvetica,sans-Serif" font-size="10.00">ai_recursive_interproceduralt</text>
</a>
</g>
</g>
<!-- Node3&#45;&gt;Node2 -->
<g id="edge2_Node000002_Node000003" class="edge">
<title>Node3&#45;&gt;Node2</title>
<g id="a_edge2_Node000002_Node000003"><a xlink:title=" ">
<path fill="none" stroke="#63b8ff" d="M79.5,-122.58C79.5,-110.63 79.5,-95.72 79.5,-86.41"/>
<polygon fill="#63b8ff" stroke="#63b8ff" points="76,-122.87 79.5,-132.87 83,-122.87 76,-122.87"/>
</a>
</g>
</g>
<!-- Node4 -->
<g id="Node000004" class="node">
<title>Node4</title>
<g id="a_Node000004"><a xlink:href="classai__baset.html" target="_top" xlink:title="This is the basic interface of the abstract interpreter with default implementations of the core func...">
<polygon fill="white" stroke="#666666" points="108.5,-208 50.5,-208 50.5,-189 108.5,-189 108.5,-208"/>
<text text-anchor="middle" x="79.5" y="-196" font-family="Helvetica,sans-Serif" font-size="10.00">ai_baset</text>
</a>
</g>
</g>
<!-- Node4&#45;&gt;Node3 -->
<g id="edge3_Node000003_Node000004" class="edge">
<title>Node4&#45;&gt;Node3</title>
<g id="a_edge3_Node000003_Node000004"><a xlink:title=" ">
<path fill="none" stroke="#63b8ff" d="M79.5,-178.3C79.5,-169.41 79.5,-159.28 79.5,-152.25"/>
<polygon fill="#63b8ff" stroke="#63b8ff" points="76,-178.58 79.5,-188.58 83,-178.58 76,-178.58"/>
</a>
</g>
</g>
<!-- Node5 -->
<g id="Node000005" class="node">
<title>Node5</title>
<g id="a_Node000005"><a xlink:href="classgrapht.html" target="_top" xlink:title=" ">
<polygon fill="white" stroke="#666666" points="296.5,-86 158.5,-86 158.5,-67 296.5,-67 296.5,-86"/>
<text text-anchor="middle" x="227.5" y="-74" font-family="Helvetica,sans-Serif" font-size="10.00">grapht&lt; vs_dep_nodet &gt;</text>
</a>
</g>
</g>
<!-- Node5&#45;&gt;Node1 -->
<g id="edge4_Node000001_Node000005" class="edge">
<title>Node5&#45;&gt;Node1</title>
<g id="a_edge4_Node000001_Node000005"><a xlink:title=" ">
<path fill="none" stroke="#63b8ff" d="M208.84,-60.7C197.01,-51.31 181.81,-39.25 170.18,-30.02"/>
<polygon fill="#63b8ff" stroke="#63b8ff" points="206.74,-63.5 216.75,-66.98 211.1,-58.02 206.74,-63.5"/>
</a>
</g>
</g>
<!-- Node6 -->
<g id="Node000006" class="node">
<title>Node6</title>
<g id="a_Node000006"><a xlink:href="classgrapht.html" target="_top" xlink:title="A generic directed graph with a parametric node type.">
<polygon fill="white" stroke="#666666" points="266.5,-152 188.5,-152 188.5,-133 266.5,-133 266.5,-152"/>
<text text-anchor="middle" x="227.5" y="-140" font-family="Helvetica,sans-Serif" font-size="10.00">grapht&lt; N &gt;</text>
</a>
</g>
</g>
<!-- Node6&#45;&gt;Node5 -->
<g id="edge5_Node000005_Node000006" class="edge">
<title>Node6&#45;&gt;Node5</title>
<g id="a_edge5_Node000005_Node000006"><a xlink:title=" ">
<path fill="none" stroke="orange" stroke-dasharray="5,2" d="M227.5,-122.58C227.5,-110.63 227.5,-95.72 227.5,-86.41"/>
<polygon fill="orange" stroke="orange" points="224,-122.87 227.5,-132.87 231,-122.87 224,-122.87"/>
</a>
</g>
<text text-anchor="middle" x="274.5" y="-107" font-family="Helvetica,sans-Serif" font-size="10.00" fill="grey"> &lt; vs_dep_nodet &gt;</text>
</g>
</g>
</svg>
