<?xml version="1.0" encoding="UTF-8" standalone="no"?>
<!DOCTYPE svg PUBLIC "-//W3C//DTD SVG 1.1//EN"
 "http://www.w3.org/Graphics/SVG/1.1/DTD/svg11.dtd">
<!-- Generated by graphviz version 2.43.0 (0)
 -->
<!-- Title: constant_pointer_abstract_objectt Pages: 1 -->
<svg width="1857pt" height="209pt"
 viewBox="0.00 0.00 1857.00 209.00" xmlns="http://www.w3.org/2000/svg" xmlns:xlink="http://www.w3.org/1999/xlink">
<g id="graph0" class="graph" transform="scale(1 1) rotate(0) translate(4 205)">
<title>constant_pointer_abstract_objectt</title>
<!-- Node1 -->
<g id="Node000001" class="node">
<title>Node1</title>
<g id="a_Node000001"><a xlink:title=" ">
<polygon fill="#999999" stroke="#666666" points="1849,-97.5 1706,-97.5 1706,-67.5 1849,-67.5 1849,-97.5"/>
<text text-anchor="start" x="1714" y="-85.5" font-family="Helvetica,sans-Serif" font-size="10.00">constant_pointer_abstract</text>
<text text-anchor="middle" x="1777.5" y="-74.5" font-family="Helvetica,sans-Serif" font-size="10.00">_objectt</text>
</a>
</g>
</g>
<!-- Node2 -->
<g id="Node000002" class="node">
<title>Node2</title>
<g id="a_Node000002"><a xlink:href="classabstract__pointer__objectt.html" target="_top" xlink:title=" ">
<polygon fill="white" stroke="#666666" points="1608,-112 1473,-112 1473,-93 1608,-93 1608,-112"/>
<text text-anchor="middle" x="1540.5" y="-100" font-family="Helvetica,sans-Serif" font-size="10.00">abstract_pointer_objectt</text>
</a>
</g>
</g>
<!-- Node2&#45;&gt;Node1 -->
<g id="edge1_Node000001_Node000002" class="edge">
<title>Node2&#45;&gt;Node1</title>
<g id="a_edge1_Node000001_Node000002"><a xlink:title=" ">
<path fill="none" stroke="#63b8ff" d="M1618.42,-95.95C1646.6,-93.56 1678.33,-90.85 1705.93,-88.51"/>
<polygon fill="#63b8ff" stroke="#63b8ff" points="1617.88,-92.49 1608.21,-96.82 1618.47,-99.46 1617.88,-92.49"/>
</a>
</g>
</g>
<!-- Node3 -->
<g id="Node000003" class="node">
<title>Node3</title>
<g id="a_Node000003"><a xlink:href="classabstract__objectt.html" target="_top" xlink:title=" ">
<polygon fill="white" stroke="#666666" points="1374.5,-149 1279.5,-149 1279.5,-130 1374.5,-130 1374.5,-149"/>
<text text-anchor="middle" x="1327" y="-137" font-family="Helvetica,sans-Serif" font-size="10.00">abstract_objectt</text>
</a>
</g>
</g>
<!-- Node3&#45;&gt;Node2 -->
<g id="edge2_Node000002_Node000003" class="edge">
<title>Node3&#45;&gt;Node2</title>
<g id="a_edge2_Node000002_Node000003"><a xlink:title=" ">
<path fill="none" stroke="#63b8ff" d="M1384.93,-129.54C1416.04,-124.1 1454.38,-117.39 1485.09,-112.02"/>
<polygon fill="#63b8ff" stroke="#63b8ff" points="1383.92,-126.16 1374.68,-131.33 1385.13,-133.06 1383.92,-126.16"/>
</a>
</g>
</g>
<!-- Node4 -->
<g id="Node000004" class="node">
<title>Node4</title>
<g id="a_Node000004"><a xlink:title=" ">
<polygon fill="white" stroke="#666666" points="1159,-201 1040,-201 1040,-160 1159,-160 1159,-201"/>
<text text-anchor="start" x="1048" y="-189" font-family="Helvetica,sans-Serif" font-size="10.00">std::enable_shared</text>
<text text-anchor="start" x="1048" y="-178" font-family="Helvetica,sans-Serif" font-size="10.00">_from_this&lt; abstract</text>
<text text-anchor="middle" x="1099.5" y="-167" font-family="Helvetica,sans-Serif" font-size="10.00">_objectt &gt;</text>
</a>
</g>
</g>
<!-- Node4&#45;&gt;Node3 -->
<g id="edge3_Node000003_Node000004" class="edge">
<title>Node4&#45;&gt;Node3</title>
<g id="a_edge3_Node000003_Node000004"><a xlink:title=" ">
<path fill="none" stroke="#63b8ff" d="M1169.03,-168.04C1204.75,-161.55 1247.5,-153.77 1279.36,-147.98"/>
<polygon fill="#63b8ff" stroke="#63b8ff" points="1168.37,-164.6 1159.16,-169.83 1169.62,-171.49 1168.37,-164.6"/>
</a>
</g>
</g>
<!-- Node5 -->
<g id="Node000005" class="node">
<title>Node5</title>
<g id="a_Node000005"><a xlink:href="classtypet.html" target="_top" xlink:title="The type of an expression, extends irept.">
<polygon fill="white" stroke="#666666" points="1120.5,-142 1078.5,-142 1078.5,-123 1120.5,-123 1120.5,-142"/>
<text text-anchor="middle" x="1099.5" y="-130" font-family="Helvetica,sans-Serif" font-size="10.00">typet</text>
</a>
</g>
</g>
<!-- Node5&#45;&gt;Node3 -->
<g id="edge4_Node000003_Node000005" class="edge">
<title>Node5&#45;&gt;Node3</title>
<g id="a_edge4_Node000003_Node000005"><a xlink:title=" ">
<path fill="none" stroke="#9a32cd" stroke-dasharray="5,2" d="M1130.94,-133.44C1169.03,-134.63 1234.65,-136.66 1279.16,-138.05"/>
<polygon fill="#9a32cd" stroke="#9a32cd" points="1130.62,-129.93 1120.51,-133.12 1130.4,-136.93 1130.62,-129.93"/>
</a>
</g>
<text text-anchor="middle" x="1204.5" y="-138.5" font-family="Helvetica,sans-Serif" font-size="10.00" fill="grey"> t</text>
</g>
<!-- Node6 -->
<g id="Node000006" class="node">
<title>Node6</title>
<g id="a_Node000006"><a xlink:href="classirept.html" target="_top" xlink:title="There are a large number of kinds of tree structured or tree&#45;like data in CPROVER.">
<polygon fill="white" stroke="#666666" points="844.5,-142 805.5,-142 805.5,-123 844.5,-123 844.5,-142"/>
<text text-anchor="middle" x="825" y="-130" font-family="Helvetica,sans-Serif" font-size="10.00">irept</text>
</a>
</g>
</g>
<!-- Node6&#45;&gt;Node5 -->
<g id="edge5_Node000005_Node000006" class="edge">
<title>Node6&#45;&gt;Node5</title>
<g id="a_edge5_Node000005_Node000006"><a xlink:title=" ">
<path fill="none" stroke="#63b8ff" d="M854.92,-132.5C910.34,-132.5 1030.29,-132.5 1078.17,-132.5"/>
<polygon fill="#63b8ff" stroke="#63b8ff" points="854.73,-129 844.73,-132.5 854.73,-136 854.73,-129"/>
</a>
</g>
</g>
<!-- Node7 -->
<g id="Node000007" class="node">
<title>Node7</title>
<g id="a_Node000007"><a xlink:href="classsharing__treet.html" target="_top" xlink:title=" ">
<polygon fill="white" stroke="#666666" points="681,-153 556,-153 556,-112 681,-112 681,-153"/>
<text text-anchor="start" x="564" y="-141" font-family="Helvetica,sans-Serif" font-size="10.00">sharing_treet&lt; irept,</text>
<text text-anchor="start" x="564" y="-130" font-family="Helvetica,sans-Serif" font-size="10.00"> forward_list_as_mapt</text>
<text text-anchor="middle" x="618.5" y="-119" font-family="Helvetica,sans-Serif" font-size="10.00">&lt; irep_idt, irept &gt; &gt;</text>
</a>
</g>
</g>
<!-- Node7&#45;&gt;Node6 -->
<g id="edge6_Node000006_Node000007" class="edge">
<title>Node7&#45;&gt;Node6</title>
<g id="a_edge6_Node000006_Node000007"><a xlink:title=" ">
<path fill="none" stroke="#63b8ff" d="M691.3,-132.5C731.95,-132.5 779.67,-132.5 805.36,-132.5"/>
<polygon fill="#63b8ff" stroke="#63b8ff" points="691.13,-129 681.13,-132.5 691.13,-136 691.13,-129"/>
</a>
</g>
</g>
<!-- Node8 -->
<g id="Node000008" class="node">
<title>Node8</title>
<g id="a_Node000008"><a xlink:href="classtree__nodet.html" target="_top" xlink:title="A node with data in a tree, it contains:">
<polygon fill="#fff0f0" stroke="red" points="158,-143.5 0,-143.5 0,-113.5 158,-113.5 158,-143.5"/>
<text text-anchor="start" x="8" y="-131.5" font-family="Helvetica,sans-Serif" font-size="10.00">tree_nodet&lt; treet,</text>
<text text-anchor="middle" x="79" y="-120.5" font-family="Helvetica,sans-Serif" font-size="10.00"> named_subtreest, sharing &gt;</text>
</a>
</g>
</g>
<!-- Node8&#45;&gt;Node7 -->
<g id="edge7_Node000007_Node000008" class="edge">
<title>Node8&#45;&gt;Node7</title>
<g id="a_edge7_Node000007_Node000008"><a xlink:title=" ">
<path fill="none" stroke="#9a32cd" stroke-dasharray="5,2" d="M168.32,-139.96C170.9,-140.16 173.47,-140.34 176,-140.5 336.58,-150.5 377.31,-148.56 538,-140.5 543.82,-140.21 549.87,-139.8 555.92,-139.31"/>
<polygon fill="#9a32cd" stroke="#9a32cd" points="168.51,-136.47 158.25,-139.1 167.91,-143.44 168.51,-136.47"/>
</a>
</g>
<text text-anchor="middle" x="305" y="-160.5" font-family="Helvetica,sans-Serif" font-size="10.00" fill="grey"> data</text>
<text text-anchor="middle" x="305" y="-149.5" font-family="Helvetica,sans-Serif" font-size="10.00" fill="grey">empty_d</text>
</g>
<!-- Node14 -->
<g id="Node000014" class="node">
<title>Node14</title>
<g id="a_Node000014"><a xlink:href="classsharing__treet.html" target="_top" xlink:title="Base class for tree&#45;like data structures with sharing.">
<polygon fill="white" stroke="#666666" points="373,-118.5 237,-118.5 237,-88.5 373,-88.5 373,-118.5"/>
<text text-anchor="start" x="245" y="-106.5" font-family="Helvetica,sans-Serif" font-size="10.00">sharing_treet&lt; derivedt,</text>
<text text-anchor="middle" x="305" y="-95.5" font-family="Helvetica,sans-Serif" font-size="10.00"> named_subtreest &gt;</text>
</a>
</g>
</g>
<!-- Node8&#45;&gt;Node14 -->
<g id="edge9_Node000014_Node000008" class="edge">
<title>Node8&#45;&gt;Node14</title>
<g id="a_edge9_Node000014_Node000008"><a xlink:title=" ">
<path fill="none" stroke="#9a32cd" stroke-dasharray="5,2" d="M168.06,-118.67C190.89,-116.12 215.11,-113.42 236.68,-111.01"/>
<polygon fill="#9a32cd" stroke="#9a32cd" points="167.58,-115.2 158.03,-119.79 168.36,-122.16 167.58,-115.2"/>
</a>
</g>
<text text-anchor="middle" x="197.5" y="-130.5" font-family="Helvetica,sans-Serif" font-size="10.00" fill="grey"> data</text>
<text text-anchor="middle" x="197.5" y="-119.5" font-family="Helvetica,sans-Serif" font-size="10.00" fill="grey">empty_d</text>
</g>
<!-- Node14&#45;&gt;Node7 -->
<g id="edge8_Node000007_Node000014" class="edge">
<title>Node14&#45;&gt;Node7</title>
<g id="a_edge8_Node000007_Node000014"><a xlink:title=" ">
<path fill="none" stroke="orange" stroke-dasharray="5,2" d="M383.21,-106.37C428.44,-108.58 486.59,-112.33 538,-118.5 543.84,-119.2 549.91,-120.05 555.97,-120.98"/>
<polygon fill="orange" stroke="orange" points="383.34,-102.87 373.18,-105.89 383.01,-109.86 383.34,-102.87"/>
</a>
</g>
<text text-anchor="start" x="391" y="-132.5" font-family="Helvetica,sans-Serif" font-size="10.00" fill="grey"> &lt; irept, forward_list</text>
<text text-anchor="middle" x="464.5" y="-121.5" font-family="Helvetica,sans-Serif" font-size="10.00" fill="grey">_as_mapt&lt; irep_idt, irept &gt; &gt;</text>
</g>
<!-- Node15 -->
<g id="Node000015" class="node">
<title>Node15</title>
<g id="a_Node000015"><a xlink:href="classabstract__pointer__tag.html" target="_top" xlink:title=" ">
<polygon fill="white" stroke="#666666" points="1385.5,-112 1268.5,-112 1268.5,-93 1385.5,-93 1385.5,-112"/>
<text text-anchor="middle" x="1327" y="-100" font-family="Helvetica,sans-Serif" font-size="10.00">abstract_pointer_tag</text>
</a>
</g>
</g>
<!-- Node15&#45;&gt;Node2 -->
<g id="edge10_Node000002_Node000015" class="edge">
<title>Node15&#45;&gt;Node2</title>
<g id="a_edge10_Node000002_Node000015"><a xlink:title=" ">
<path fill="none" stroke="#63b8ff" d="M1395.84,-102.5C1420.41,-102.5 1448.14,-102.5 1472.63,-102.5"/>
<polygon fill="#63b8ff" stroke="#63b8ff" points="1395.51,-99 1385.51,-102.5 1395.51,-106 1395.51,-99"/>
</a>
</g>
</g>
<!-- Node16 -->
<g id="Node000016" class="node">
<title>Node16</title>
<g id="a_Node000016"><a xlink:href="classwrite__stackt.html" target="_top" xlink:title=" ">
<polygon fill="white" stroke="#666666" points="1579,-74 1502,-74 1502,-55 1579,-55 1579,-74"/>
<text text-anchor="middle" x="1540.5" y="-62" font-family="Helvetica,sans-Serif" font-size="10.00">write_stackt</text>
</a>
</g>
</g>
<!-- Node16&#45;&gt;Node1 -->
<g id="edge11_Node000001_Node000016" class="edge">
<title>Node16&#45;&gt;Node1</title>
<g id="a_edge11_Node000001_Node000016"><a xlink:title=" ">
<path fill="none" stroke="#9a32cd" stroke-dasharray="5,2" d="M1589.31,-66.95C1617.96,-68.54 1655.09,-70.82 1688,-73.5 1693.85,-73.98 1699.91,-74.51 1706,-75.07"/>
<polygon fill="#9a32cd" stroke="#9a32cd" points="1589.34,-63.45 1579.17,-66.4 1588.96,-70.44 1589.34,-63.45"/>
</a>
</g>
<text text-anchor="middle" x="1657" y="-76.5" font-family="Helvetica,sans-Serif" font-size="10.00" fill="grey"> value_stack</text>
</g>
<!-- Node17 -->
<g id="Node000017" class="node">
<title>Node17</title>
<g id="a_Node000017"><a xlink:title=" ">
<polygon fill="white" stroke="#666666" points="1407,-74.5 1247,-74.5 1247,-44.5 1407,-44.5 1407,-74.5"/>
<text text-anchor="start" x="1255" y="-62.5" font-family="Helvetica,sans-Serif" font-size="10.00">std::vector&lt; std::shared</text>
<text text-anchor="middle" x="1327" y="-51.5" font-family="Helvetica,sans-Serif" font-size="10.00">_ptr&lt; write_stack_entryt &gt; &gt;</text>
</a>
</g>
</g>
<!-- Node17&#45;&gt;Node16 -->
<g id="edge12_Node000016_Node000017" class="edge">
<title>Node17&#45;&gt;Node16</title>
<g id="a_edge12_Node000016_Node000017"><a xlink:title=" ">
<path fill="none" stroke="#9a32cd" stroke-dasharray="5,2" d="M1417.06,-61.61C1446.79,-62.31 1478.33,-63.05 1501.95,-63.61"/>
<polygon fill="#9a32cd" stroke="#9a32cd" points="1417.14,-58.11 1407.06,-61.37 1416.97,-65.1 1417.14,-58.11"/>
</a>
</g>
<text text-anchor="middle" x="1440" y="-64.5" font-family="Helvetica,sans-Serif" font-size="10.00" fill="grey"> stack</text>
</g>
<!-- Node18 -->
<g id="Node000018" class="node">
<title>Node18</title>
<g id="a_Node000018"><a xlink:title=" ">
<polygon fill="white" stroke="#666666" points="1162,-79.5 1037,-79.5 1037,-49.5 1162,-49.5 1162,-79.5"/>
<text text-anchor="start" x="1045" y="-67.5" font-family="Helvetica,sans-Serif" font-size="10.00">std::shared_ptr&lt; write</text>
<text text-anchor="middle" x="1099.5" y="-56.5" font-family="Helvetica,sans-Serif" font-size="10.00">_stack_entryt &gt;</text>
</a>
</g>
</g>
<!-- Node18&#45;&gt;Node17 -->
<g id="edge13_Node000017_Node000018" class="edge">
<title>Node18&#45;&gt;Node17</title>
<g id="a_edge13_Node000017_Node000018"><a xlink:title=" ">
<path fill="none" stroke="#9a32cd" stroke-dasharray="5,2" d="M1172.42,-62.91C1196.07,-62.38 1222.49,-61.8 1246.66,-61.26"/>
<polygon fill="#9a32cd" stroke="#9a32cd" points="1172.04,-59.41 1162.12,-63.13 1172.19,-66.41 1172.04,-59.41"/>
</a>
</g>
<text text-anchor="middle" x="1204.5" y="-65.5" font-family="Helvetica,sans-Serif" font-size="10.00" fill="grey"> elements</text>
</g>
<!-- Node19 -->
<g id="Node000019" class="node">
<title>Node19</title>
<g id="a_Node000019"><a xlink:href="classwrite__stack__entryt.html" target="_top" xlink:title=" ">
<polygon fill="white" stroke="#666666" points="878.5,-94 771.5,-94 771.5,-75 878.5,-75 878.5,-94"/>
<text text-anchor="middle" x="825" y="-82" font-family="Helvetica,sans-Serif" font-size="10.00">write_stack_entryt</text>
</a>
</g>
</g>
<!-- Node19&#45;&gt;Node18 -->
<g id="edge14_Node000018_Node000019" class="edge">
<title>Node19&#45;&gt;Node18</title>
<g id="a_edge14_Node000018_Node000019"><a xlink:title=" ">
<path fill="none" stroke="#9a32cd" stroke-dasharray="5,2" d="M888.63,-79.9C933.03,-76.64 992.34,-72.29 1036.58,-69.04"/>
<polygon fill="#9a32cd" stroke="#9a32cd" points="888.26,-76.42 878.54,-80.64 888.77,-83.4 888.26,-76.42"/>
</a>
</g>
<text text-anchor="middle" x="960.5" y="-81.5" font-family="Helvetica,sans-Serif" font-size="10.00" fill="grey"> ptr</text>
</g>
<!-- Node20 -->
<g id="Node000020" class="node">
<title>Node20</title>
<g id="a_Node000020"><a xlink:title=" ">
<polygon fill="white" stroke="#666666" points="884,-57 766,-57 766,-38 884,-38 884,-57"/>
<text text-anchor="middle" x="825" y="-45" font-family="Helvetica,sans-Serif" font-size="10.00">std::shared_ptr&lt; T &gt;</text>
</a>
</g>
</g>
<!-- Node20&#45;&gt;Node18 -->
<g id="edge15_Node000018_Node000020" class="edge">
<title>Node20&#45;&gt;Node18</title>
<g id="a_edge15_Node000018_Node000020"><a xlink:title=" ">
<path fill="none" stroke="orange" stroke-dasharray="5,2" d="M894.55,-46.57C931.49,-46.66 977.82,-47.73 1019,-51.5 1024.85,-52.04 1030.92,-52.75 1036.98,-53.56"/>
<polygon fill="orange" stroke="orange" points="894.4,-43.07 884.4,-46.57 894.39,-50.07 894.4,-43.07"/>
</a>
</g>
<text text-anchor="middle" x="960.5" y="-54.5" font-family="Helvetica,sans-Serif" font-size="10.00" fill="grey"> &lt; write_stack_entryt &gt;</text>
</g>
<!-- Node13 -->
<g id="Node000013" class="node">
<title>Node13</title>
<g id="a_Node000013"><a xlink:title=" ">
<polygon fill="white" stroke="#666666" points="633,-37 604,-37 604,-18 633,-18 633,-37"/>
<text text-anchor="middle" x="618.5" y="-25" font-family="Helvetica,sans-Serif" font-size="10.00">T</text>
</a>
</g>
</g>
<!-- Node13&#45;&gt;Node20 -->
<g id="edge16_Node000020_Node000013" class="edge">
<title>Node13&#45;&gt;Node20</title>
<g id="a_edge16_Node000020_Node000013"><a xlink:title=" ">
<path fill="none" stroke="#9a32cd" stroke-dasharray="5,2" d="M643.53,-29.85C673.38,-32.77 725.34,-37.85 765.87,-41.81"/>
<polygon fill="#9a32cd" stroke="#9a32cd" points="643.53,-26.33 633.24,-28.84 642.85,-33.3 643.53,-26.33"/>
</a>
</g>
<text text-anchor="middle" x="723.5" y="-43.5" font-family="Helvetica,sans-Serif" font-size="10.00" fill="grey"> ptr</text>
</g>
<!-- Node12 -->
<g id="Node000012" class="node">
<title>Node12</title>
<g id="a_Node000012"><a xlink:title=" ">
<polygon fill="white" stroke="#666666" points="1009,-19 912,-19 912,0 1009,0 1009,-19"/>
<text text-anchor="middle" x="960.5" y="-7" font-family="Helvetica,sans-Serif" font-size="10.00">std::vector&lt; T &gt;</text>
</a>
</g>
</g>
<!-- Node13&#45;&gt;Node12 -->
<g id="edge18_Node000012_Node000013" class="edge">
<title>Node13&#45;&gt;Node12</title>
<g id="a_edge18_Node000012_Node000013"><a xlink:title=" ">
<path fill="none" stroke="#9a32cd" stroke-dasharray="5,2" d="M643.25,-25.52C659.05,-24.26 680.25,-22.64 699,-21.5 773.34,-16.98 859.7,-13.32 911.94,-11.27"/>
<polygon fill="#9a32cd" stroke="#9a32cd" points="642.96,-22.04 633.28,-26.34 643.53,-29.01 642.96,-22.04"/>
</a>
</g>
<text text-anchor="middle" x="723.5" y="-24.5" font-family="Helvetica,sans-Serif" font-size="10.00" fill="grey"> elements</text>
</g>
<!-- Node12&#45;&gt;Node17 -->
<g id="edge17_Node000017_Node000012" class="edge">
<title>Node12&#45;&gt;Node17</title>
<g id="a_edge17_Node000017_Node000012"><a xlink:title=" ">
<path fill="none" stroke="orange" stroke-dasharray="5,2" d="M1019.31,-9.04C1059.52,-9.47 1114.26,-11.53 1162,-18.5 1201.06,-24.2 1244.35,-35.23 1276.64,-44.41"/>
<polygon fill="orange" stroke="orange" points="1019.18,-5.54 1009.15,-8.97 1019.12,-12.54 1019.18,-5.54"/>
</a>
</g>
<text text-anchor="start" x="1041" y="-32.5" font-family="Helvetica,sans-Serif" font-size="10.00" fill="grey"> &lt; std::shared_ptr&lt;</text>
<text text-anchor="middle" x="1099.5" y="-21.5" font-family="Helvetica,sans-Serif" font-size="10.00" fill="grey"> write_stack_entryt &gt; &gt;</text>
</g>
</g>
</svg>
