<?xml version="1.0" encoding="UTF-8" standalone="no"?>
<!DOCTYPE svg PUBLIC "-//W3C//DTD SVG 1.1//EN"
 "http://www.w3.org/Graphics/SVG/1.1/DTD/svg11.dtd">
<!-- Generated by graphviz version 2.43.0 (0)
 -->
<!-- Title: call_grapht::directed_grapht Pages: 1 -->
<svg width="382pt" height="380pt"
 viewBox="0.00 0.00 381.50 380.00" xmlns="http://www.w3.org/2000/svg" xmlns:xlink="http://www.w3.org/1999/xlink">
<g id="graph0" class="graph" transform="scale(1 1) rotate(0) translate(4 376)">
<title>call_grapht::directed_grapht</title>
<!-- Node1 -->
<g id="Node000001" class="node">
<title>Node1</title>
<g id="a_Node000001"><a xlink:title="Directed graph representation of this call graph.">
<polygon fill="#999999" stroke="#666666" points="209.5,-30 93.5,-30 93.5,0 209.5,0 209.5,-30"/>
<text text-anchor="start" x="101.5" y="-18" font-family="Helvetica,sans-Serif" font-size="10.00">call_grapht::directed</text>
<text text-anchor="middle" x="151.5" y="-7" font-family="Helvetica,sans-Serif" font-size="10.00">_grapht</text>
</a>
</g>
</g>
<!-- Node2 -->
<g id="Node000002" class="node">
<title>Node2</title>
<g id="a_Node000002"><a xlink:href="classgrapht.html" target="_top" xlink:title=" ">
<polygon fill="white" stroke="#666666" points="162,-86 19,-86 19,-67 162,-67 162,-86"/>
<text text-anchor="middle" x="90.5" y="-74" font-family="Helvetica,sans-Serif" font-size="10.00">grapht&lt; function_nodet &gt;</text>
</a>
</g>
</g>
<!-- Node2&#45;&gt;Node1 -->
<g id="edge1_Node000001_Node000002" class="edge">
<title>Node2&#45;&gt;Node1</title>
<g id="a_edge1_Node000001_Node000002"><a xlink:title=" ">
<path fill="none" stroke="#63b8ff" d="M106.53,-59.87C116.01,-50.61 127.94,-38.98 137.12,-30.02"/>
<polygon fill="#63b8ff" stroke="#63b8ff" points="103.95,-57.49 99.24,-66.98 108.84,-62.5 103.95,-57.49"/>
</a>
</g>
</g>
<!-- Node3 -->
<g id="Node000003" class="node">
<title>Node3</title>
<g id="a_Node000003"><a xlink:title=" ">
<polygon fill="white" stroke="#666666" points="119,-223.5 0,-223.5 0,-204.5 119,-204.5 119,-223.5"/>
<text text-anchor="middle" x="59.5" y="-211.5" font-family="Helvetica,sans-Serif" font-size="10.00">std::vector&lt; nodet &gt;</text>
</a>
</g>
</g>
<!-- Node3&#45;&gt;Node2 -->
<g id="edge2_Node000002_Node000003" class="edge">
<title>Node3&#45;&gt;Node2</title>
<g id="a_edge2_Node000002_Node000003"><a xlink:title=" ">
<path fill="none" stroke="#9a32cd" stroke-dasharray="5,2" d="M48.17,-195.36C39.1,-178.9 29.16,-153.82 37.5,-133 45.53,-112.97 64.62,-96.06 77.56,-86.35"/>
<polygon fill="#9a32cd" stroke="#9a32cd" points="45.42,-197.58 53.54,-204.39 51.43,-194 45.42,-197.58"/>
</a>
</g>
<text text-anchor="middle" x="54" y="-140" font-family="Helvetica,sans-Serif" font-size="10.00" fill="grey"> nodes</text>
</g>
<!-- Node6 -->
<g id="Node000006" class="node">
<title>Node6</title>
<g id="a_Node000006"><a xlink:href="classgrapht.html" target="_top" xlink:title="A generic directed graph with a parametric node type.">
<polygon fill="white" stroke="#666666" points="157.5,-152 79.5,-152 79.5,-133 157.5,-133 157.5,-152"/>
<text text-anchor="middle" x="118.5" y="-140" font-family="Helvetica,sans-Serif" font-size="10.00">grapht&lt; N &gt;</text>
</a>
</g>
</g>
<!-- Node3&#45;&gt;Node6 -->
<g id="edge6_Node000006_Node000003" class="edge">
<title>Node3&#45;&gt;Node6</title>
<g id="a_edge6_Node000006_Node000003"><a xlink:title=" ">
<path fill="none" stroke="#9a32cd" stroke-dasharray="5,2" d="M73.39,-196.63C85.24,-182.68 101.8,-163.17 111.21,-152.09"/>
<polygon fill="#9a32cd" stroke="#9a32cd" points="70.54,-194.59 66.73,-204.48 75.87,-199.12 70.54,-194.59"/>
</a>
</g>
<text text-anchor="middle" x="111" y="-173" font-family="Helvetica,sans-Serif" font-size="10.00" fill="grey"> nodes</text>
</g>
<!-- Node4 -->
<g id="Node000004" class="node">
<title>Node4</title>
<g id="a_Node000004"><a xlink:title=" ">
<polygon fill="white" stroke="#666666" points="108,-300.5 11,-300.5 11,-281.5 108,-281.5 108,-300.5"/>
<text text-anchor="middle" x="59.5" y="-288.5" font-family="Helvetica,sans-Serif" font-size="10.00">std::vector&lt; T &gt;</text>
</a>
</g>
</g>
<!-- Node4&#45;&gt;Node3 -->
<g id="edge3_Node000003_Node000004" class="edge">
<title>Node4&#45;&gt;Node3</title>
<g id="a_edge3_Node000003_Node000004"><a xlink:title=" ">
<path fill="none" stroke="orange" stroke-dasharray="5,2" d="M59.5,-271.02C59.5,-255.74 59.5,-234.98 59.5,-223.5"/>
<polygon fill="orange" stroke="orange" points="56,-271.4 59.5,-281.4 63,-271.4 56,-271.4"/>
</a>
</g>
<text text-anchor="middle" x="86.5" y="-250" font-family="Helvetica,sans-Serif" font-size="10.00" fill="grey"> &lt; nodet &gt;</text>
</g>
<!-- Node5 -->
<g id="Node000005" class="node">
<title>Node5</title>
<g id="a_Node000005"><a xlink:title=" ">
<polygon fill="white" stroke="#666666" points="110,-372 81,-372 81,-353 110,-353 110,-372"/>
<text text-anchor="middle" x="95.5" y="-360" font-family="Helvetica,sans-Serif" font-size="10.00">T</text>
</a>
</g>
</g>
<!-- Node5&#45;&gt;Node4 -->
<g id="edge4_Node000004_Node000005" class="edge">
<title>Node5&#45;&gt;Node4</title>
<g id="a_edge4_Node000004_Node000005"><a xlink:title=" ">
<path fill="none" stroke="#9a32cd" stroke-dasharray="5,2" d="M72.69,-348.94C67.82,-345.13 63.3,-340.48 60.5,-335 54.99,-324.23 56.05,-309.87 57.58,-300.78"/>
<polygon fill="#9a32cd" stroke="#9a32cd" points="70.73,-351.85 80.97,-354.55 74.65,-346.05 70.73,-351.85"/>
</a>
</g>
<text text-anchor="middle" x="85" y="-327" font-family="Helvetica,sans-Serif" font-size="10.00" fill="grey"> elements</text>
</g>
<!-- Node9 -->
<g id="Node000009" class="node">
<title>Node9</title>
<g id="a_Node000009"><a xlink:title=" ">
<polygon fill="white" stroke="#666666" points="250.5,-306 136.5,-306 136.5,-276 250.5,-276 250.5,-306"/>
<text text-anchor="start" x="144.5" y="-294" font-family="Helvetica,sans-Serif" font-size="10.00">std::unordered_map</text>
<text text-anchor="middle" x="193.5" y="-283" font-family="Helvetica,sans-Serif" font-size="10.00">&lt; K, T &gt;</text>
</a>
</g>
</g>
<!-- Node5&#45;&gt;Node9 -->
<g id="edge11_Node000009_Node000005" class="edge">
<title>Node5&#45;&gt;Node9</title>
<g id="a_edge11_Node000009_Node000005"><a xlink:title=" ">
<path fill="none" stroke="#9a32cd" stroke-dasharray="5,2" d="M114.62,-346.77C123.86,-339.75 135.16,-331.31 145.5,-324 154,-317.98 163.52,-311.57 171.82,-306.08"/>
<polygon fill="#9a32cd" stroke="#9a32cd" points="112.31,-344.13 106.49,-352.98 116.56,-349.69 112.31,-344.13"/>
</a>
</g>
<text text-anchor="middle" x="170" y="-327" font-family="Helvetica,sans-Serif" font-size="10.00" fill="grey"> elements</text>
</g>
<!-- Node6&#45;&gt;Node2 -->
<g id="edge5_Node000002_Node000006" class="edge">
<title>Node6&#45;&gt;Node2</title>
<g id="a_edge5_Node000002_Node000006"><a xlink:title=" ">
<path fill="none" stroke="orange" stroke-dasharray="5,2" d="M98.87,-126C95.89,-122.7 93.24,-119 91.5,-115 87.5,-105.8 87.95,-94.1 88.94,-86.24"/>
<polygon fill="orange" stroke="orange" points="96.46,-128.54 106.12,-132.89 101.28,-123.47 96.46,-128.54"/>
</a>
</g>
<text text-anchor="middle" x="141" y="-107" font-family="Helvetica,sans-Serif" font-size="10.00" fill="grey"> &lt; function_nodet &gt;</text>
</g>
<!-- Node7 -->
<g id="Node000007" class="node">
<title>Node7</title>
<g id="a_Node000007"><a xlink:title=" ">
<polygon fill="white" stroke="#666666" points="284,-229 141,-229 141,-199 284,-199 284,-229"/>
<text text-anchor="start" x="149" y="-217" font-family="Helvetica,sans-Serif" font-size="10.00">std::unordered_map</text>
<text text-anchor="middle" x="212.5" y="-206" font-family="Helvetica,sans-Serif" font-size="10.00">&lt; dstringt, node_indext &gt;</text>
</a>
</g>
</g>
<!-- Node7&#45;&gt;Node1 -->
<g id="edge7_Node000001_Node000007" class="edge">
<title>Node7&#45;&gt;Node1</title>
<g id="a_edge7_Node000001_Node000007"><a xlink:title=" ">
<path fill="none" stroke="#9a32cd" stroke-dasharray="5,2" d="M209.2,-189.04C205.77,-166.7 199.61,-132.61 190.5,-104 181.93,-77.09 167.68,-47.36 158.98,-30.26"/>
<polygon fill="#9a32cd" stroke="#9a32cd" points="205.75,-189.61 210.67,-198.99 212.67,-188.59 205.75,-189.61"/>
</a>
</g>
<text text-anchor="middle" x="235" y="-107" font-family="Helvetica,sans-Serif" font-size="10.00" fill="grey"> nodes_by_name</text>
</g>
<!-- Node8 -->
<g id="Node000008" class="node">
<title>Node8</title>
<g id="a_Node000008"><a xlink:href="classdstringt.html" target="_top" xlink:title="dstringt has one field, an unsigned integer no which is an index into a static table of strings.">
<polygon fill="white" stroke="#666666" points="373.5,-300.5 319.5,-300.5 319.5,-281.5 373.5,-281.5 373.5,-300.5"/>
<text text-anchor="middle" x="346.5" y="-288.5" font-family="Helvetica,sans-Serif" font-size="10.00">dstringt</text>
</a>
</g>
</g>
<!-- Node8&#45;&gt;Node7 -->
<g id="edge8_Node000007_Node000008" class="edge">
<title>Node8&#45;&gt;Node7</title>
<g id="a_edge8_Node000007_Node000008"><a xlink:title=" ">
<path fill="none" stroke="#9a32cd" stroke-dasharray="5,2" d="M341,-271.78C337.54,-263.15 332.24,-253.36 324.5,-247 312.86,-237.43 298.51,-230.72 284.02,-226.02"/>
<polygon fill="#9a32cd" stroke="#9a32cd" points="337.76,-273.12 344.35,-281.42 344.38,-270.83 337.76,-273.12"/>
</a>
</g>
<text text-anchor="middle" x="346.5" y="-250" font-family="Helvetica,sans-Serif" font-size="10.00" fill="grey"> keys</text>
</g>
<!-- Node9&#45;&gt;Node7 -->
<g id="edge9_Node000007_Node000009" class="edge">
<title>Node9&#45;&gt;Node7</title>
<g id="a_edge9_Node000007_Node000009"><a xlink:title=" ">
<path fill="none" stroke="orange" stroke-dasharray="5,2" d="M192.02,-265.42C192.21,-259.32 192.89,-252.85 194.5,-247 196.22,-240.73 199.43,-234.38 202.66,-229"/>
<polygon fill="orange" stroke="orange" points="188.52,-265.84 192.12,-275.81 195.52,-265.77 188.52,-265.84"/>
</a>
</g>
<text text-anchor="middle" x="259.5" y="-250" font-family="Helvetica,sans-Serif" font-size="10.00" fill="grey"> &lt; dstringt, node_indext &gt;</text>
</g>
<!-- Node10 -->
<g id="Node000010" class="node">
<title>Node10</title>
<g id="a_Node000010"><a xlink:title=" ">
<polygon fill="white" stroke="#666666" points="218,-372 189,-372 189,-353 218,-353 218,-372"/>
<text text-anchor="middle" x="203.5" y="-360" font-family="Helvetica,sans-Serif" font-size="10.00">K</text>
</a>
</g>
</g>
<!-- Node10&#45;&gt;Node9 -->
<g id="edge10_Node000009_Node000010" class="edge">
<title>Node10&#45;&gt;Node9</title>
<g id="a_edge10_Node000009_Node000010"><a xlink:title=" ">
<path fill="none" stroke="#9a32cd" stroke-dasharray="5,2" d="M200.85,-343.07C199.18,-331.5 197.07,-316.79 195.53,-306.14"/>
<polygon fill="#9a32cd" stroke="#9a32cd" points="197.39,-343.58 202.27,-352.98 204.31,-342.58 197.39,-343.58"/>
</a>
</g>
<text text-anchor="middle" x="212.5" y="-327" font-family="Helvetica,sans-Serif" font-size="10.00" fill="grey"> keys</text>
</g>
</g>
</svg>
