<?xml version="1.0" encoding="UTF-8" standalone="no"?>
<!DOCTYPE svg PUBLIC "-//W3C//DTD SVG 1.1//EN"
 "http://www.w3.org/Graphics/SVG/1.1/DTD/svg11.dtd">
<!-- Generated by graphviz version 2.43.0 (0)
 -->
<!-- Title: grapht&lt; N &gt; Pages: 1 -->
<svg width="127pt" height="225pt"
 viewBox="0.00 0.00 127.00 225.00" xmlns="http://www.w3.org/2000/svg" xmlns:xlink="http://www.w3.org/1999/xlink">
<g id="graph0" class="graph" transform="scale(1 1) rotate(0) translate(4 221)">
<title>grapht&lt; N &gt;</title>
<!-- Node1 -->
<g id="Node000001" class="node">
<title>Node1</title>
<g id="a_Node000001"><a xlink:title="A generic directed graph with a parametric node type.">
<polygon fill="#999999" stroke="#666666" points="98.5,-19 20.5,-19 20.5,0 98.5,0 98.5,-19"/>
<text text-anchor="middle" x="59.5" y="-7" font-family="Helvetica,sans-Serif" font-size="10.00">grapht&lt; N &gt;</text>
</a>
</g>
</g>
<!-- Node2 -->
<g id="Node000002" class="node">
<title>Node2</title>
<g id="a_Node000002"><a xlink:title=" ">
<polygon fill="white" stroke="#666666" points="119,-85 0,-85 0,-66 119,-66 119,-85"/>
<text text-anchor="middle" x="59.5" y="-73" font-family="Helvetica,sans-Serif" font-size="10.00">std::vector&lt; nodet &gt;</text>
</a>
</g>
</g>
<!-- Node2&#45;&gt;Node1 -->
<g id="edge1_Node000001_Node000002" class="edge">
<title>Node2&#45;&gt;Node1</title>
<g id="a_edge1_Node000001_Node000002"><a xlink:title=" ">
<path fill="none" stroke="#9a32cd" stroke-dasharray="5,2" d="M59.5,-55.58C59.5,-43.63 59.5,-28.72 59.5,-19.41"/>
<polygon fill="#9a32cd" stroke="#9a32cd" points="56,-55.87 59.5,-65.87 63,-55.87 56,-55.87"/>
</a>
</g>
<text text-anchor="middle" x="76" y="-40" font-family="Helvetica,sans-Serif" font-size="10.00" fill="grey"> nodes</text>
</g>
<!-- Node3 -->
<g id="Node000003" class="node">
<title>Node3</title>
<g id="a_Node000003"><a xlink:title=" ">
<polygon fill="white" stroke="#666666" points="108,-151 11,-151 11,-132 108,-132 108,-151"/>
<text text-anchor="middle" x="59.5" y="-139" font-family="Helvetica,sans-Serif" font-size="10.00">std::vector&lt; T &gt;</text>
</a>
</g>
</g>
<!-- Node3&#45;&gt;Node2 -->
<g id="edge2_Node000002_Node000003" class="edge">
<title>Node3&#45;&gt;Node2</title>
<g id="a_edge2_Node000002_Node000003"><a xlink:title=" ">
<path fill="none" stroke="orange" stroke-dasharray="5,2" d="M59.5,-121.58C59.5,-109.63 59.5,-94.72 59.5,-85.41"/>
<polygon fill="orange" stroke="orange" points="56,-121.87 59.5,-131.87 63,-121.87 56,-121.87"/>
</a>
</g>
<text text-anchor="middle" x="86.5" y="-106" font-family="Helvetica,sans-Serif" font-size="10.00" fill="grey"> &lt; nodet &gt;</text>
</g>
<!-- Node4 -->
<g id="Node000004" class="node">
<title>Node4</title>
<g id="a_Node000004"><a xlink:title=" ">
<polygon fill="white" stroke="#666666" points="74,-217 45,-217 45,-198 74,-198 74,-217"/>
<text text-anchor="middle" x="59.5" y="-205" font-family="Helvetica,sans-Serif" font-size="10.00">T</text>
</a>
</g>
</g>
<!-- Node4&#45;&gt;Node3 -->
<g id="edge3_Node000003_Node000004" class="edge">
<title>Node4&#45;&gt;Node3</title>
<g id="a_edge3_Node000003_Node000004"><a xlink:title=" ">
<path fill="none" stroke="#9a32cd" stroke-dasharray="5,2" d="M59.5,-187.58C59.5,-175.63 59.5,-160.72 59.5,-151.41"/>
<polygon fill="#9a32cd" stroke="#9a32cd" points="56,-187.87 59.5,-197.87 63,-187.87 56,-187.87"/>
</a>
</g>
<text text-anchor="middle" x="84" y="-172" font-family="Helvetica,sans-Serif" font-size="10.00" fill="grey"> elements</text>
</g>
</g>
</svg>
