<?xml version="1.0" encoding="UTF-8" standalone="no"?>
<!DOCTYPE svg PUBLIC "-//W3C//DTD SVG 1.1//EN"
 "http://www.w3.org/Graphics/SVG/1.1/DTD/svg11.dtd">
<!-- Generated by graphviz version 2.43.0 (0)
 -->
<!-- Title: prop_convt Pages: 1 -->
<svg width="338pt" height="467pt"
 viewBox="0.00 0.00 337.50 467.00" xmlns="http://www.w3.org/2000/svg" xmlns:xlink="http://www.w3.org/1999/xlink">
<g id="graph0" class="graph" transform="scale(1 1) rotate(0) translate(4 463)">
<title>prop_convt</title>
<!-- Node1 -->
<g id="Node000001" class="node">
<title>Node1</title>
<g id="a_Node000001"><a xlink:title=" ">
<polygon fill="#999999" stroke="#666666" points="143.5,-349 72.5,-349 72.5,-330 143.5,-330 143.5,-349"/>
<text text-anchor="middle" x="108" y="-337" font-family="Helvetica,sans-Serif" font-size="10.00">prop_convt</text>
</a>
</g>
</g>
<!-- Node4 -->
<g id="Node000004" class="node">
<title>Node4</title>
<g id="a_Node000004"><a xlink:href="classprop__conv__solvert.html" target="_top" xlink:title=" ">
<polygon fill="white" stroke="#666666" points="161,-294 55,-294 55,-275 161,-275 161,-294"/>
<text text-anchor="middle" x="108" y="-282" font-family="Helvetica,sans-Serif" font-size="10.00">prop_conv_solvert</text>
</a>
</g>
</g>
<!-- Node1&#45;&gt;Node4 -->
<g id="edge3_Node000001_Node000004" class="edge">
<title>Node1&#45;&gt;Node4</title>
<g id="a_edge3_Node000001_Node000004"><a xlink:title=" ">
<path fill="none" stroke="#63b8ff" d="M108,-319.66C108,-310.93 108,-300.99 108,-294.09"/>
<polygon fill="#63b8ff" stroke="#63b8ff" points="104.5,-319.75 108,-329.75 111.5,-319.75 104.5,-319.75"/>
</a>
</g>
</g>
<!-- Node2 -->
<g id="Node000002" class="node">
<title>Node2</title>
<g id="a_Node000002"><a xlink:href="classstack__decision__proceduret.html" target="_top" xlink:title=" ">
<polygon fill="white" stroke="#666666" points="181,-404 35,-404 35,-385 181,-385 181,-404"/>
<text text-anchor="middle" x="108" y="-392" font-family="Helvetica,sans-Serif" font-size="10.00">stack_decision_proceduret</text>
</a>
</g>
</g>
<!-- Node2&#45;&gt;Node1 -->
<g id="edge1_Node000001_Node000002" class="edge">
<title>Node2&#45;&gt;Node1</title>
<g id="a_edge1_Node000001_Node000002"><a xlink:title=" ">
<path fill="none" stroke="#63b8ff" d="M108,-374.66C108,-365.93 108,-355.99 108,-349.09"/>
<polygon fill="#63b8ff" stroke="#63b8ff" points="104.5,-374.75 108,-384.75 111.5,-374.75 104.5,-374.75"/>
</a>
</g>
</g>
<!-- Node3 -->
<g id="Node000003" class="node">
<title>Node3</title>
<g id="a_Node000003"><a xlink:href="classdecision__proceduret.html" target="_top" xlink:title="An interface for a decision procedure for satisfiability problems.">
<polygon fill="white" stroke="#666666" points="165.5,-459 50.5,-459 50.5,-440 165.5,-440 165.5,-459"/>
<text text-anchor="middle" x="108" y="-447" font-family="Helvetica,sans-Serif" font-size="10.00">decision_proceduret</text>
</a>
</g>
</g>
<!-- Node3&#45;&gt;Node2 -->
<g id="edge2_Node000002_Node000003" class="edge">
<title>Node3&#45;&gt;Node2</title>
<g id="a_edge2_Node000002_Node000003"><a xlink:title=" ">
<path fill="none" stroke="#63b8ff" d="M108,-429.66C108,-420.93 108,-410.99 108,-404.09"/>
<polygon fill="#63b8ff" stroke="#63b8ff" points="104.5,-429.75 108,-439.75 111.5,-429.75 104.5,-429.75"/>
</a>
</g>
</g>
<!-- Node5 -->
<g id="Node000005" class="node">
<title>Node5</title>
<g id="a_Node000005"><a xlink:href="classequalityt.html" target="_top" xlink:title=" ">
<polygon fill="white" stroke="#666666" points="138,-239 78,-239 78,-220 138,-220 138,-239"/>
<text text-anchor="middle" x="108" y="-227" font-family="Helvetica,sans-Serif" font-size="10.00">equalityt</text>
</a>
</g>
</g>
<!-- Node4&#45;&gt;Node5 -->
<g id="edge4_Node000004_Node000005" class="edge">
<title>Node4&#45;&gt;Node5</title>
<g id="a_edge4_Node000004_Node000005"><a xlink:title=" ">
<path fill="none" stroke="#63b8ff" d="M108,-264.66C108,-255.93 108,-245.99 108,-239.09"/>
<polygon fill="#63b8ff" stroke="#63b8ff" points="104.5,-264.75 108,-274.75 111.5,-264.75 104.5,-264.75"/>
</a>
</g>
</g>
<!-- Node6 -->
<g id="Node000006" class="node">
<title>Node6</title>
<g id="a_Node000006"><a xlink:href="classarrayst.html" target="_top" xlink:title=" ">
<polygon fill="white" stroke="#666666" points="133.5,-184 82.5,-184 82.5,-165 133.5,-165 133.5,-184"/>
<text text-anchor="middle" x="108" y="-172" font-family="Helvetica,sans-Serif" font-size="10.00">arrayst</text>
</a>
</g>
</g>
<!-- Node5&#45;&gt;Node6 -->
<g id="edge5_Node000005_Node000006" class="edge">
<title>Node5&#45;&gt;Node6</title>
<g id="a_edge5_Node000005_Node000006"><a xlink:title=" ">
<path fill="none" stroke="#63b8ff" d="M108,-209.66C108,-200.93 108,-190.99 108,-184.09"/>
<polygon fill="#63b8ff" stroke="#63b8ff" points="104.5,-209.75 108,-219.75 111.5,-209.75 104.5,-209.75"/>
</a>
</g>
</g>
<!-- Node7 -->
<g id="Node000007" class="node">
<title>Node7</title>
<g id="a_Node000007"><a xlink:href="classboolbvt.html" target="_top" xlink:title=" ">
<polygon fill="white" stroke="#666666" points="134.5,-129 81.5,-129 81.5,-110 134.5,-110 134.5,-129"/>
<text text-anchor="middle" x="108" y="-117" font-family="Helvetica,sans-Serif" font-size="10.00">boolbvt</text>
</a>
</g>
</g>
<!-- Node6&#45;&gt;Node7 -->
<g id="edge6_Node000006_Node000007" class="edge">
<title>Node6&#45;&gt;Node7</title>
<g id="a_edge6_Node000006_Node000007"><a xlink:title=" ">
<path fill="none" stroke="#63b8ff" d="M108,-154.66C108,-145.93 108,-135.99 108,-129.09"/>
<polygon fill="#63b8ff" stroke="#63b8ff" points="104.5,-154.75 108,-164.75 111.5,-154.75 104.5,-154.75"/>
</a>
</g>
</g>
<!-- Node8 -->
<g id="Node000008" class="node">
<title>Node8</title>
<g id="a_Node000008"><a xlink:href="classbv__pointers__widet.html" target="_top" xlink:title=" ">
<polygon fill="white" stroke="#666666" points="106,-74 0,-74 0,-55 106,-55 106,-74"/>
<text text-anchor="middle" x="53" y="-62" font-family="Helvetica,sans-Serif" font-size="10.00">bv_pointers_widet</text>
</a>
</g>
</g>
<!-- Node7&#45;&gt;Node8 -->
<g id="edge7_Node000007_Node000008" class="edge">
<title>Node7&#45;&gt;Node8</title>
<g id="a_edge7_Node000007_Node000008"><a xlink:title=" ">
<path fill="none" stroke="#63b8ff" d="M91.71,-102.8C81.96,-93.41 69.95,-81.83 61.91,-74.09"/>
<polygon fill="#63b8ff" stroke="#63b8ff" points="89.29,-105.33 98.92,-109.75 94.15,-100.29 89.29,-105.33"/>
</a>
</g>
</g>
<!-- Node9 -->
<g id="Node000009" class="node">
<title>Node9</title>
<g id="a_Node000009"><a xlink:href="classbv__pointerst.html" target="_top" xlink:title=" ">
<polygon fill="white" stroke="#666666" points="201.5,-74 124.5,-74 124.5,-55 201.5,-55 201.5,-74"/>
<text text-anchor="middle" x="163" y="-62" font-family="Helvetica,sans-Serif" font-size="10.00">bv_pointerst</text>
</a>
</g>
</g>
<!-- Node7&#45;&gt;Node9 -->
<g id="edge8_Node000007_Node000009" class="edge">
<title>Node7&#45;&gt;Node9</title>
<g id="a_edge8_Node000007_Node000009"><a xlink:title=" ">
<path fill="none" stroke="#63b8ff" d="M124.29,-102.8C134.04,-93.41 146.05,-81.83 154.09,-74.09"/>
<polygon fill="#63b8ff" stroke="#63b8ff" points="121.85,-100.29 117.08,-109.75 126.71,-105.33 121.85,-100.29"/>
</a>
</g>
</g>
<!-- Node10 -->
<g id="Node000010" class="node">
<title>Node10</title>
<g id="a_Node000010"><a xlink:href="classbv__dimacst.html" target="_top" xlink:title=" ">
<polygon fill="white" stroke="#666666" points="87.5,-19 14.5,-19 14.5,0 87.5,0 87.5,-19"/>
<text text-anchor="middle" x="51" y="-7" font-family="Helvetica,sans-Serif" font-size="10.00">bv_dimacst</text>
</a>
</g>
</g>
<!-- Node9&#45;&gt;Node10 -->
<g id="edge9_Node000009_Node000010" class="edge">
<title>Node9&#45;&gt;Node10</title>
<g id="a_edge9_Node000009_Node000010"><a xlink:title=" ">
<path fill="none" stroke="#63b8ff" d="M135.81,-50.63C115.18,-40.87 87.38,-27.71 69.32,-19.17"/>
<polygon fill="#63b8ff" stroke="#63b8ff" points="134.47,-53.87 145.01,-54.98 137.46,-47.54 134.47,-53.87"/>
</a>
</g>
</g>
<!-- Node11 -->
<g id="Node000011" class="node">
<title>Node11</title>
<g id="a_Node000011"><a xlink:href="classbv__minimizing__dect.html" target="_top" xlink:title=" ">
<polygon fill="white" stroke="#666666" points="220.5,-19 105.5,-19 105.5,0 220.5,0 220.5,-19"/>
<text text-anchor="middle" x="163" y="-7" font-family="Helvetica,sans-Serif" font-size="10.00">bv_minimizing_dect</text>
</a>
</g>
</g>
<!-- Node9&#45;&gt;Node11 -->
<g id="edge10_Node000009_Node000011" class="edge">
<title>Node9&#45;&gt;Node11</title>
<g id="a_edge10_Node000009_Node000011"><a xlink:title=" ">
<path fill="none" stroke="#63b8ff" d="M163,-44.66C163,-35.93 163,-25.99 163,-19.09"/>
<polygon fill="#63b8ff" stroke="#63b8ff" points="159.5,-44.75 163,-54.75 166.5,-44.75 159.5,-44.75"/>
</a>
</g>
</g>
<!-- Node12 -->
<g id="Node000012" class="node">
<title>Node12</title>
<g id="a_Node000012"><a xlink:href="classbv__refinementt.html" target="_top" xlink:title=" ">
<polygon fill="#fff0f0" stroke="red" points="329.5,-19 238.5,-19 238.5,0 329.5,0 329.5,-19"/>
<text text-anchor="middle" x="284" y="-7" font-family="Helvetica,sans-Serif" font-size="10.00">bv_refinementt</text>
</a>
</g>
</g>
<!-- Node9&#45;&gt;Node12 -->
<g id="edge11_Node000009_Node000012" class="edge">
<title>Node9&#45;&gt;Node12</title>
<g id="a_edge11_Node000009_Node000012"><a xlink:title=" ">
<path fill="none" stroke="#63b8ff" d="M191.77,-50.9C214.12,-41.11 244.52,-27.79 264.21,-19.17"/>
<polygon fill="#63b8ff" stroke="#63b8ff" points="190.2,-47.77 182.44,-54.98 193,-54.18 190.2,-47.77"/>
</a>
</g>
</g>
</g>
</svg>
