<?xml version="1.0" encoding="UTF-8" standalone="no"?>
<!DOCTYPE svg PUBLIC "-//W3C//DTD SVG 1.1//EN"
 "http://www.w3.org/Graphics/SVG/1.1/DTD/svg11.dtd">
<!-- Generated by graphviz version 2.43.0 (0)
 -->
<!-- Title: binary_predicate_exprt Pages: 1 -->
<svg width="1358pt" height="651pt"
 viewBox="0.00 0.00 1358.00 650.50" xmlns="http://www.w3.org/2000/svg" xmlns:xlink="http://www.w3.org/1999/xlink">
<g id="graph0" class="graph" transform="scale(1 1) rotate(0) translate(4 646.5)">
<title>binary_predicate_exprt</title>
<!-- Node1 -->
<g id="Node000001" class="node">
<title>Node1</title>
<g id="a_Node000001"><a xlink:title="A base class for expressions that are predicates, i.e., Boolean&#45;typed, and that take exactly two argu...">
<polygon fill="#999999" stroke="#666666" points="1011,-190.5 882,-190.5 882,-171.5 1011,-171.5 1011,-190.5"/>
<text text-anchor="middle" x="946.5" y="-178.5" font-family="Helvetica,sans-Serif" font-size="10.00">binary_predicate_exprt</text>
</a>
</g>
</g>
<!-- Node8 -->
<g id="Node000008" class="node">
<title>Node8</title>
<g id="a_Node000008"><a xlink:href="classbinary__overflow__exprt.html" target="_top" xlink:title="A Boolean expression returning true, iff operation kind would result in an overflow when applied to o...">
<polygon fill="white" stroke="#666666" points="1179,-568.5 1054,-568.5 1054,-549.5 1179,-549.5 1179,-568.5"/>
<text text-anchor="middle" x="1116.5" y="-556.5" font-family="Helvetica,sans-Serif" font-size="10.00">binary_overflow_exprt</text>
</a>
</g>
</g>
<!-- Node1&#45;&gt;Node8 -->
<g id="edge7_Node000001_Node000008" class="edge">
<title>Node1&#45;&gt;Node8</title>
<g id="a_edge7_Node000001_Node000008"><a xlink:title=" ">
<path fill="none" stroke="#63b8ff" d="M956.07,-200.28C986.53,-268.82 1088.95,-499.26 1111.21,-549.34"/>
<polygon fill="#63b8ff" stroke="#63b8ff" points="959.08,-198.44 951.82,-190.72 952.68,-201.28 959.08,-198.44"/>
</a>
</g>
</g>
<!-- Node13 -->
<g id="Node000013" class="node">
<title>Node13</title>
<g id="a_Node000013"><a xlink:href="classbinary__relation__exprt.html" target="_top" xlink:title="A base class for relations, i.e., binary predicates whose two operands have the same type.">
<polygon fill="white" stroke="#666666" points="1177,-328.5 1056,-328.5 1056,-309.5 1177,-309.5 1177,-328.5"/>
<text text-anchor="middle" x="1116.5" y="-316.5" font-family="Helvetica,sans-Serif" font-size="10.00">binary_relation_exprt</text>
</a>
</g>
</g>
<!-- Node1&#45;&gt;Node13 -->
<g id="edge12_Node000001_Node000013" class="edge">
<title>Node1&#45;&gt;Node13</title>
<g id="a_edge12_Node000001_Node000013"><a xlink:title=" ">
<path fill="none" stroke="#63b8ff" d="M963.89,-197.7C983.2,-217.01 1016.65,-249.3 1048,-274 1064.93,-287.34 1085.73,-300.81 1099.73,-309.48"/>
<polygon fill="#63b8ff" stroke="#63b8ff" points="966.28,-195.14 956.75,-190.51 961.31,-200.07 966.28,-195.14"/>
</a>
</g>
</g>
<!-- Node22 -->
<g id="Node000022" class="node">
<title>Node22</title>
<g id="a_Node000022"><a xlink:href="classextractbit__exprt.html" target="_top" xlink:title="Extracts a single bit of a bit&#45;vector operand.">
<polygon fill="white" stroke="#666666" points="1164,-264.5 1069,-264.5 1069,-245.5 1164,-245.5 1164,-264.5"/>
<text text-anchor="middle" x="1116.5" y="-252.5" font-family="Helvetica,sans-Serif" font-size="10.00">extractbit_exprt</text>
</a>
</g>
</g>
<!-- Node1&#45;&gt;Node22 -->
<g id="edge21_Node000001_Node000022" class="edge">
<title>Node1&#45;&gt;Node22</title>
<g id="a_edge21_Node000001_Node000022"><a xlink:title=" ">
<path fill="none" stroke="#63b8ff" d="M970.55,-196.02C990.41,-208.42 1020.19,-225.75 1048,-237 1055.98,-240.23 1064.73,-243.05 1073.2,-245.45"/>
<polygon fill="#63b8ff" stroke="#63b8ff" points="972.23,-192.94 961.91,-190.54 968.49,-198.85 972.23,-192.94"/>
</a>
</g>
</g>
<!-- Node23 -->
<g id="Node000023" class="node">
<title>Node23</title>
<g id="a_Node000023"><a xlink:href="classjava__instanceof__exprt.html" target="_top" xlink:title=" ">
<polygon fill="white" stroke="#666666" points="1179,-227.5 1054,-227.5 1054,-208.5 1179,-208.5 1179,-227.5"/>
<text text-anchor="middle" x="1116.5" y="-215.5" font-family="Helvetica,sans-Serif" font-size="10.00">java_instanceof_exprt</text>
</a>
</g>
</g>
<!-- Node1&#45;&gt;Node23 -->
<g id="edge22_Node000001_Node000023" class="edge">
<title>Node1&#45;&gt;Node23</title>
<g id="a_edge22_Node000001_Node000023"><a xlink:title=" ">
<path fill="none" stroke="#63b8ff" d="M1000.72,-192.72C1023.72,-197.79 1050.3,-203.64 1072.09,-208.44"/>
<polygon fill="#63b8ff" stroke="#63b8ff" points="1001.28,-189.26 990.76,-190.53 999.78,-196.1 1001.28,-189.26"/>
</a>
</g>
</g>
<!-- Node24 -->
<g id="Node000024" class="node">
<title>Node24</title>
<g id="a_Node000024"><a xlink:href="classr__or__w__ok__exprt.html" target="_top" xlink:title="A base class for a predicate that indicates that an address range is ok to read or write or both.">
<polygon fill="white" stroke="#666666" points="1165,-190.5 1068,-190.5 1068,-171.5 1165,-171.5 1165,-190.5"/>
<text text-anchor="middle" x="1116.5" y="-178.5" font-family="Helvetica,sans-Serif" font-size="10.00">r_or_w_ok_exprt</text>
</a>
</g>
</g>
<!-- Node1&#45;&gt;Node24 -->
<g id="edge23_Node000001_Node000024" class="edge">
<title>Node1&#45;&gt;Node24</title>
<g id="a_edge23_Node000001_Node000024"><a xlink:title=" ">
<path fill="none" stroke="#63b8ff" d="M1021.3,-181C1037.1,-181 1053.38,-181 1067.88,-181"/>
<polygon fill="#63b8ff" stroke="#63b8ff" points="1021.01,-177.5 1011.01,-181 1021.01,-184.5 1021.01,-177.5"/>
</a>
</g>
</g>
<!-- Node27 -->
<g id="Node000027" class="node">
<title>Node27</title>
<g id="a_Node000027"><a xlink:href="classstate__is__cstring__exprt.html" target="_top" xlink:title=" ">
<polygon fill="white" stroke="#666666" points="1178.5,-153.5 1054.5,-153.5 1054.5,-134.5 1178.5,-134.5 1178.5,-153.5"/>
<text text-anchor="middle" x="1116.5" y="-141.5" font-family="Helvetica,sans-Serif" font-size="10.00">state_is_cstring_exprt</text>
</a>
</g>
</g>
<!-- Node1&#45;&gt;Node27 -->
<g id="edge26_Node000001_Node000027" class="edge">
<title>Node1&#45;&gt;Node27</title>
<g id="a_edge26_Node000001_Node000027"><a xlink:title=" ">
<path fill="none" stroke="#63b8ff" d="M1000.72,-169.28C1023.72,-164.21 1050.3,-158.36 1072.09,-153.56"/>
<polygon fill="#63b8ff" stroke="#63b8ff" points="999.78,-165.9 990.76,-171.47 1001.28,-172.74 999.78,-165.9"/>
</a>
</g>
</g>
<!-- Node28 -->
<g id="Node000028" class="node">
<title>Node28</title>
<g id="a_Node000028"><a xlink:href="classstate__is__dynamic__object__exprt.html" target="_top" xlink:title=" ">
<polygon fill="white" stroke="#666666" points="1185,-116 1048,-116 1048,-86 1185,-86 1185,-116"/>
<text text-anchor="start" x="1056" y="-104" font-family="Helvetica,sans-Serif" font-size="10.00">state_is_dynamic_object</text>
<text text-anchor="middle" x="1116.5" y="-93" font-family="Helvetica,sans-Serif" font-size="10.00">_exprt</text>
</a>
</g>
</g>
<!-- Node1&#45;&gt;Node28 -->
<g id="edge27_Node000001_Node000028" class="edge">
<title>Node1&#45;&gt;Node28</title>
<g id="a_edge27_Node000001_Node000028"><a xlink:title=" ">
<path fill="none" stroke="#63b8ff" d="M971.49,-166.13C991.49,-154.11 1020.98,-137.23 1048,-125 1054.91,-121.87 1062.36,-118.87 1069.7,-116.12"/>
<polygon fill="#63b8ff" stroke="#63b8ff" points="969.48,-163.26 962.75,-171.44 973.11,-169.24 969.48,-163.26"/>
</a>
</g>
</g>
<!-- Node29 -->
<g id="Node000029" class="node">
<title>Node29</title>
<g id="a_Node000029"><a xlink:href="classstate__live__object__exprt.html" target="_top" xlink:title=" ">
<polygon fill="white" stroke="#666666" points="1182,-67.5 1051,-67.5 1051,-48.5 1182,-48.5 1182,-67.5"/>
<text text-anchor="middle" x="1116.5" y="-55.5" font-family="Helvetica,sans-Serif" font-size="10.00">state_live_object_exprt</text>
</a>
</g>
</g>
<!-- Node1&#45;&gt;Node29 -->
<g id="edge28_Node000001_Node000029" class="edge">
<title>Node1&#45;&gt;Node29</title>
<g id="a_edge28_Node000001_Node000029"><a xlink:title=" ">
<path fill="none" stroke="#63b8ff" d="M960.05,-163.04C977.24,-139.76 1010.32,-99.51 1048,-77 1054.48,-73.13 1061.78,-70.02 1069.12,-67.53"/>
<polygon fill="#63b8ff" stroke="#63b8ff" points="957.08,-161.17 954.07,-171.33 962.76,-165.27 957.08,-161.17"/>
</a>
</g>
</g>
<!-- Node30 -->
<g id="Node000030" class="node">
<title>Node30</title>
<g id="a_Node000030"><a xlink:href="classstate__writeable__object__exprt.html" target="_top" xlink:title=" ">
<polygon fill="white" stroke="#666666" points="1180.5,-30 1052.5,-30 1052.5,0 1180.5,0 1180.5,-30"/>
<text text-anchor="start" x="1060.5" y="-18" font-family="Helvetica,sans-Serif" font-size="10.00">state_writeable_object</text>
<text text-anchor="middle" x="1116.5" y="-7" font-family="Helvetica,sans-Serif" font-size="10.00">_exprt</text>
</a>
</g>
</g>
<!-- Node1&#45;&gt;Node30 -->
<g id="edge29_Node000001_Node000030" class="edge">
<title>Node1&#45;&gt;Node30</title>
<g id="a_edge29_Node000001_Node000030"><a xlink:title=" ">
<path fill="none" stroke="#63b8ff" d="M956.11,-162.11C970.78,-131.92 1003.44,-72.75 1048,-39 1052.46,-35.62 1057.44,-32.69 1062.62,-30.15"/>
<polygon fill="#63b8ff" stroke="#63b8ff" points="952.94,-160.63 951.83,-171.16 959.27,-163.62 952.94,-160.63"/>
</a>
</g>
</g>
<!-- Node2 -->
<g id="Node000002" class="node">
<title>Node2</title>
<g id="a_Node000002"><a xlink:href="classbinary__exprt.html" target="_top" xlink:title="A base class for binary expressions.">
<polygon fill="white" stroke="#666666" points="845,-190.5 767,-190.5 767,-171.5 845,-171.5 845,-190.5"/>
<text text-anchor="middle" x="806" y="-178.5" font-family="Helvetica,sans-Serif" font-size="10.00">binary_exprt</text>
</a>
</g>
</g>
<!-- Node2&#45;&gt;Node1 -->
<g id="edge1_Node000001_Node000002" class="edge">
<title>Node2&#45;&gt;Node1</title>
<g id="a_edge1_Node000001_Node000002"><a xlink:title=" ">
<path fill="none" stroke="#63b8ff" d="M855.38,-181C863.95,-181 872.98,-181 881.89,-181"/>
<polygon fill="#63b8ff" stroke="#63b8ff" points="855.21,-177.5 845.21,-181 855.21,-184.5 855.21,-177.5"/>
</a>
</g>
</g>
<!-- Node3 -->
<g id="Node000003" class="node">
<title>Node3</title>
<g id="a_Node000003"><a xlink:href="classexpr__protectedt.html" target="_top" xlink:title="Base class for all expressions.">
<polygon fill="white" stroke="#666666" points="730,-190.5 636,-190.5 636,-171.5 730,-171.5 730,-190.5"/>
<text text-anchor="middle" x="683" y="-178.5" font-family="Helvetica,sans-Serif" font-size="10.00">expr_protectedt</text>
</a>
</g>
</g>
<!-- Node3&#45;&gt;Node2 -->
<g id="edge2_Node000002_Node000003" class="edge">
<title>Node3&#45;&gt;Node2</title>
<g id="a_edge2_Node000002_Node000003"><a xlink:title=" ">
<path fill="none" stroke="#63b8ff" d="M740.2,-181C749.25,-181 758.42,-181 766.91,-181"/>
<polygon fill="#63b8ff" stroke="#63b8ff" points="740.09,-177.5 730.09,-181 740.09,-184.5 740.09,-177.5"/>
</a>
</g>
</g>
<!-- Node4 -->
<g id="Node000004" class="node">
<title>Node4</title>
<g id="a_Node000004"><a xlink:href="classexprt.html" target="_top" xlink:title="Base class for all expressions.">
<polygon fill="white" stroke="#666666" points="599,-190.5 557,-190.5 557,-171.5 599,-171.5 599,-190.5"/>
<text text-anchor="middle" x="578" y="-178.5" font-family="Helvetica,sans-Serif" font-size="10.00">exprt</text>
</a>
</g>
</g>
<!-- Node4&#45;&gt;Node3 -->
<g id="edge3_Node000003_Node000004" class="edge">
<title>Node4&#45;&gt;Node3</title>
<g id="a_edge3_Node000003_Node000004"><a xlink:title=" ">
<path fill="none" stroke="#63b8ff" d="M609.56,-181C617.77,-181 626.84,-181 635.7,-181"/>
<polygon fill="#63b8ff" stroke="#63b8ff" points="609.35,-177.5 599.35,-181 609.35,-184.5 609.35,-177.5"/>
</a>
</g>
</g>
<!-- Node5 -->
<g id="Node000005" class="node">
<title>Node5</title>
<g id="a_Node000005"><a xlink:href="classirept.html" target="_top" xlink:title="There are a large number of kinds of tree structured or tree&#45;like data in CPROVER.">
<polygon fill="white" stroke="#666666" points="520,-190.5 481,-190.5 481,-171.5 520,-171.5 520,-190.5"/>
<text text-anchor="middle" x="500.5" y="-178.5" font-family="Helvetica,sans-Serif" font-size="10.00">irept</text>
</a>
</g>
</g>
<!-- Node5&#45;&gt;Node4 -->
<g id="edge4_Node000004_Node000005" class="edge">
<title>Node5&#45;&gt;Node4</title>
<g id="a_edge4_Node000004_Node000005"><a xlink:title=" ">
<path fill="none" stroke="#63b8ff" d="M530.18,-181C539.11,-181 548.76,-181 556.97,-181"/>
<polygon fill="#63b8ff" stroke="#63b8ff" points="530.16,-177.5 520.16,-181 530.16,-184.5 530.16,-177.5"/>
</a>
</g>
</g>
<!-- Node6 -->
<g id="Node000006" class="node">
<title>Node6</title>
<g id="a_Node000006"><a xlink:href="classsharing__treet.html" target="_top" xlink:title=" ">
<polygon fill="white" stroke="#666666" points="444,-201.5 319,-201.5 319,-160.5 444,-160.5 444,-201.5"/>
<text text-anchor="start" x="327" y="-189.5" font-family="Helvetica,sans-Serif" font-size="10.00">sharing_treet&lt; irept,</text>
<text text-anchor="start" x="327" y="-178.5" font-family="Helvetica,sans-Serif" font-size="10.00"> forward_list_as_mapt</text>
<text text-anchor="middle" x="381.5" y="-167.5" font-family="Helvetica,sans-Serif" font-size="10.00">&lt; irep_idt, irept &gt; &gt;</text>
</a>
</g>
</g>
<!-- Node6&#45;&gt;Node5 -->
<g id="edge5_Node000005_Node000006" class="edge">
<title>Node6&#45;&gt;Node5</title>
<g id="a_edge5_Node000005_Node000006"><a xlink:title=" ">
<path fill="none" stroke="#63b8ff" d="M454.38,-181C464.13,-181 473.35,-181 480.89,-181"/>
<polygon fill="#63b8ff" stroke="#63b8ff" points="454.08,-177.5 444.08,-181 454.08,-184.5 454.08,-177.5"/>
</a>
</g>
</g>
<!-- Node7 -->
<g id="Node000007" class="node">
<title>Node7</title>
<g id="a_Node000007"><a xlink:href="classsharing__treet.html" target="_top" xlink:title="Base class for tree&#45;like data structures with sharing.">
<polygon fill="white" stroke="#666666" points="136,-196 0,-196 0,-166 136,-166 136,-196"/>
<text text-anchor="start" x="8" y="-184" font-family="Helvetica,sans-Serif" font-size="10.00">sharing_treet&lt; derivedt,</text>
<text text-anchor="middle" x="68" y="-173" font-family="Helvetica,sans-Serif" font-size="10.00"> named_subtreest &gt;</text>
</a>
</g>
</g>
<!-- Node7&#45;&gt;Node6 -->
<g id="edge6_Node000006_Node000007" class="edge">
<title>Node7&#45;&gt;Node6</title>
<g id="a_edge6_Node000006_Node000007"><a xlink:title=" ">
<path fill="none" stroke="orange" stroke-dasharray="5,2" d="M146.29,-181C199.58,-181 269.45,-181 318.96,-181"/>
<polygon fill="orange" stroke="orange" points="146.21,-177.5 136.21,-181 146.21,-184.5 146.21,-177.5"/>
</a>
</g>
<text text-anchor="start" x="154" y="-195" font-family="Helvetica,sans-Serif" font-size="10.00" fill="grey"> &lt; irept, forward_list</text>
<text text-anchor="middle" x="227.5" y="-184" font-family="Helvetica,sans-Serif" font-size="10.00" fill="grey">_as_mapt&lt; irep_idt, irept &gt; &gt;</text>
</g>
<!-- Node9 -->
<g id="Node000009" class="node">
<title>Node9</title>
<g id="a_Node000009"><a xlink:href="classminus__overflow__exprt.html" target="_top" xlink:title=" ">
<polygon fill="white" stroke="#666666" points="1348.5,-642.5 1223.5,-642.5 1223.5,-623.5 1348.5,-623.5 1348.5,-642.5"/>
<text text-anchor="middle" x="1286" y="-630.5" font-family="Helvetica,sans-Serif" font-size="10.00">minus_overflow_exprt</text>
</a>
</g>
</g>
<!-- Node8&#45;&gt;Node9 -->
<g id="edge8_Node000008_Node000009" class="edge">
<title>Node8&#45;&gt;Node9</title>
<g id="a_edge8_Node000008_Node000009"><a xlink:title=" ">
<path fill="none" stroke="#63b8ff" d="M1141.69,-573.88C1162.42,-586.16 1193.38,-603.4 1222,-615 1229.8,-618.16 1238.36,-621 1246.58,-623.44"/>
<polygon fill="#63b8ff" stroke="#63b8ff" points="1143.3,-570.77 1132.92,-568.62 1139.7,-576.77 1143.3,-570.77"/>
</a>
</g>
</g>
<!-- Node10 -->
<g id="Node000010" class="node">
<title>Node10</title>
<g id="a_Node000010"><a xlink:href="classmult__overflow__exprt.html" target="_top" xlink:title=" ">
<polygon fill="white" stroke="#666666" points="1344.5,-605.5 1227.5,-605.5 1227.5,-586.5 1344.5,-586.5 1344.5,-605.5"/>
<text text-anchor="middle" x="1286" y="-593.5" font-family="Helvetica,sans-Serif" font-size="10.00">mult_overflow_exprt</text>
</a>
</g>
</g>
<!-- Node8&#45;&gt;Node10 -->
<g id="edge9_Node000008_Node000010" class="edge">
<title>Node8&#45;&gt;Node10</title>
<g id="a_edge9_Node000008_Node000010"><a xlink:title=" ">
<path fill="none" stroke="#63b8ff" d="M1170.56,-570.72C1193.5,-575.79 1220,-581.64 1241.72,-586.44"/>
<polygon fill="#63b8ff" stroke="#63b8ff" points="1171.15,-567.27 1160.64,-568.53 1169.65,-574.1 1171.15,-567.27"/>
</a>
</g>
</g>
<!-- Node11 -->
<g id="Node000011" class="node">
<title>Node11</title>
<g id="a_Node000011"><a xlink:href="classplus__overflow__exprt.html" target="_top" xlink:title=" ">
<polygon fill="white" stroke="#666666" points="1343.5,-568.5 1228.5,-568.5 1228.5,-549.5 1343.5,-549.5 1343.5,-568.5"/>
<text text-anchor="middle" x="1286" y="-556.5" font-family="Helvetica,sans-Serif" font-size="10.00">plus_overflow_exprt</text>
</a>
</g>
</g>
<!-- Node8&#45;&gt;Node11 -->
<g id="edge10_Node000008_Node000011" class="edge">
<title>Node8&#45;&gt;Node11</title>
<g id="a_edge10_Node000008_Node000011"><a xlink:title=" ">
<path fill="none" stroke="#63b8ff" d="M1189.67,-559C1202.61,-559 1215.92,-559 1228.35,-559"/>
<polygon fill="#63b8ff" stroke="#63b8ff" points="1189.39,-555.5 1179.39,-559 1189.39,-562.5 1189.39,-555.5"/>
</a>
</g>
</g>
<!-- Node12 -->
<g id="Node000012" class="node">
<title>Node12</title>
<g id="a_Node000012"><a xlink:href="classshl__overflow__exprt.html" target="_top" xlink:title=" ">
<polygon fill="white" stroke="#666666" points="1340.5,-531.5 1231.5,-531.5 1231.5,-512.5 1340.5,-512.5 1340.5,-531.5"/>
<text text-anchor="middle" x="1286" y="-519.5" font-family="Helvetica,sans-Serif" font-size="10.00">shl_overflow_exprt</text>
</a>
</g>
</g>
<!-- Node8&#45;&gt;Node12 -->
<g id="edge11_Node000008_Node000012" class="edge">
<title>Node8&#45;&gt;Node12</title>
<g id="a_edge11_Node000008_Node000012"><a xlink:title=" ">
<path fill="none" stroke="#63b8ff" d="M1170.56,-547.28C1193.5,-542.21 1220,-536.36 1241.72,-531.56"/>
<polygon fill="#63b8ff" stroke="#63b8ff" points="1169.65,-543.9 1160.64,-549.47 1171.15,-550.73 1169.65,-543.9"/>
</a>
</g>
</g>
<!-- Node14 -->
<g id="Node000014" class="node">
<title>Node14</title>
<g id="a_Node000014"><a xlink:href="classequal__exprt.html" target="_top" xlink:title="Equality.">
<polygon fill="white" stroke="#666666" points="1323,-494.5 1249,-494.5 1249,-475.5 1323,-475.5 1323,-494.5"/>
<text text-anchor="middle" x="1286" y="-482.5" font-family="Helvetica,sans-Serif" font-size="10.00">equal_exprt</text>
</a>
</g>
</g>
<!-- Node13&#45;&gt;Node14 -->
<g id="edge13_Node000013_Node000014" class="edge">
<title>Node13&#45;&gt;Node14</title>
<g id="a_edge13_Node000013_Node000014"><a xlink:title=" ">
<path fill="none" stroke="#63b8ff" d="M1125.76,-338.1C1140.43,-369.76 1174.06,-432.98 1222,-467 1229.89,-472.6 1239.48,-476.46 1248.78,-479.13"/>
<polygon fill="#63b8ff" stroke="#63b8ff" points="1128.81,-336.35 1121.52,-328.66 1122.42,-339.22 1128.81,-336.35"/>
</a>
</g>
</g>
<!-- Node15 -->
<g id="Node000015" class="node">
<title>Node15</title>
<g id="a_Node000015"><a xlink:href="classgreater__than__exprt.html" target="_top" xlink:title="Binary greater than operator expression.">
<polygon fill="white" stroke="#666666" points="1341,-457.5 1231,-457.5 1231,-438.5 1341,-438.5 1341,-457.5"/>
<text text-anchor="middle" x="1286" y="-445.5" font-family="Helvetica,sans-Serif" font-size="10.00">greater_than_exprt</text>
</a>
</g>
</g>
<!-- Node13&#45;&gt;Node15 -->
<g id="edge14_Node000013_Node000015" class="edge">
<title>Node13&#45;&gt;Node15</title>
<g id="a_edge14_Node000013_Node000015"><a xlink:title=" ">
<path fill="none" stroke="#63b8ff" d="M1129.77,-336.83C1147.41,-361.16 1182.22,-404.5 1222,-429 1228.23,-432.83 1235.28,-435.94 1242.35,-438.44"/>
<polygon fill="#63b8ff" stroke="#63b8ff" points="1132.51,-334.66 1123.87,-328.52 1126.8,-338.7 1132.51,-334.66"/>
</a>
</g>
</g>
<!-- Node16 -->
<g id="Node000016" class="node">
<title>Node16</title>
<g id="a_Node000016"><a xlink:href="classgreater__than__or__equal__exprt.html" target="_top" xlink:title="Binary greater than or equal operator expression.">
<polygon fill="white" stroke="#666666" points="1349,-420 1223,-420 1223,-390 1349,-390 1349,-420"/>
<text text-anchor="start" x="1231" y="-408" font-family="Helvetica,sans-Serif" font-size="10.00">greater_than_or_equal</text>
<text text-anchor="middle" x="1286" y="-397" font-family="Helvetica,sans-Serif" font-size="10.00">_exprt</text>
</a>
</g>
</g>
<!-- Node13&#45;&gt;Node16 -->
<g id="edge15_Node000013_Node000016" class="edge">
<title>Node13&#45;&gt;Node16</title>
<g id="a_edge15_Node000013_Node000016"><a xlink:title=" ">
<path fill="none" stroke="#63b8ff" d="M1140.39,-334.14C1161.15,-347.48 1192.87,-366.94 1222,-381 1228.54,-384.15 1235.6,-387.19 1242.55,-389.98"/>
<polygon fill="#63b8ff" stroke="#63b8ff" points="1142.23,-331.16 1131.94,-328.65 1138.42,-337.03 1142.23,-331.16"/>
</a>
</g>
</g>
<!-- Node17 -->
<g id="Node000017" class="node">
<title>Node17</title>
<g id="a_Node000017"><a xlink:href="classieee__float__equal__exprt.html" target="_top" xlink:title="IEEE&#45;floating&#45;point equality.">
<polygon fill="white" stroke="#666666" points="1350,-371.5 1222,-371.5 1222,-352.5 1350,-352.5 1350,-371.5"/>
<text text-anchor="middle" x="1286" y="-359.5" font-family="Helvetica,sans-Serif" font-size="10.00">ieee_float_equal_exprt</text>
</a>
</g>
</g>
<!-- Node13&#45;&gt;Node17 -->
<g id="edge16_Node000013_Node000017" class="edge">
<title>Node13&#45;&gt;Node17</title>
<g id="a_edge16_Node000013_Node000017"><a xlink:title=" ">
<path fill="none" stroke="#63b8ff" d="M1164.46,-331.06C1190.86,-337.83 1223.34,-346.17 1247.93,-352.48"/>
<polygon fill="#63b8ff" stroke="#63b8ff" points="1165.23,-327.64 1154.67,-328.54 1163.49,-334.42 1165.23,-327.64"/>
</a>
</g>
</g>
<!-- Node18 -->
<g id="Node000018" class="node">
<title>Node18</title>
<g id="a_Node000018"><a xlink:href="classieee__float__notequal__exprt.html" target="_top" xlink:title="IEEE floating&#45;point disequality.">
<polygon fill="white" stroke="#666666" points="1342.5,-334 1229.5,-334 1229.5,-304 1342.5,-304 1342.5,-334"/>
<text text-anchor="start" x="1237.5" y="-322" font-family="Helvetica,sans-Serif" font-size="10.00">ieee_float_notequal</text>
<text text-anchor="middle" x="1286" y="-311" font-family="Helvetica,sans-Serif" font-size="10.00">_exprt</text>
</a>
</g>
</g>
<!-- Node13&#45;&gt;Node18 -->
<g id="edge17_Node000013_Node000018" class="edge">
<title>Node13&#45;&gt;Node18</title>
<g id="a_edge17_Node000013_Node000018"><a xlink:title=" ">
<path fill="none" stroke="#63b8ff" d="M1187.14,-319C1201.2,-319 1215.8,-319 1229.31,-319"/>
<polygon fill="#63b8ff" stroke="#63b8ff" points="1187.03,-315.5 1177.03,-319 1187.03,-322.5 1187.03,-315.5"/>
</a>
</g>
</g>
<!-- Node19 -->
<g id="Node000019" class="node">
<title>Node19</title>
<g id="a_Node000019"><a xlink:href="classless__than__exprt.html" target="_top" xlink:title="Binary less than operator expression.">
<polygon fill="white" stroke="#666666" points="1333,-285.5 1239,-285.5 1239,-266.5 1333,-266.5 1333,-285.5"/>
<text text-anchor="middle" x="1286" y="-273.5" font-family="Helvetica,sans-Serif" font-size="10.00">less_than_exprt</text>
</a>
</g>
</g>
<!-- Node13&#45;&gt;Node19 -->
<g id="edge18_Node000013_Node000019" class="edge">
<title>Node13&#45;&gt;Node19</title>
<g id="a_edge18_Node000013_Node000019"><a xlink:title=" ">
<path fill="none" stroke="#63b8ff" d="M1164.46,-306.94C1190.86,-300.17 1223.34,-291.83 1247.93,-285.52"/>
<polygon fill="#63b8ff" stroke="#63b8ff" points="1163.49,-303.58 1154.67,-309.46 1165.23,-310.36 1163.49,-303.58"/>
</a>
</g>
</g>
<!-- Node20 -->
<g id="Node000020" class="node">
<title>Node20</title>
<g id="a_Node000020"><a xlink:href="classless__than__or__equal__exprt.html" target="_top" xlink:title="Binary less than or equal operator expression.">
<polygon fill="white" stroke="#666666" points="1341,-248 1231,-248 1231,-218 1341,-218 1341,-248"/>
<text text-anchor="start" x="1239" y="-236" font-family="Helvetica,sans-Serif" font-size="10.00">less_than_or_equal</text>
<text text-anchor="middle" x="1286" y="-225" font-family="Helvetica,sans-Serif" font-size="10.00">_exprt</text>
</a>
</g>
</g>
<!-- Node13&#45;&gt;Node20 -->
<g id="edge19_Node000013_Node000020" class="edge">
<title>Node13&#45;&gt;Node20</title>
<g id="a_edge19_Node000013_Node000020"><a xlink:title=" ">
<path fill="none" stroke="#63b8ff" d="M1140.83,-304.01C1161.65,-290.97 1193.21,-272.02 1222,-258 1229.09,-254.55 1236.78,-251.19 1244.28,-248.12"/>
<polygon fill="#63b8ff" stroke="#63b8ff" points="1138.92,-301.08 1132.34,-309.38 1142.66,-307 1138.92,-301.08"/>
</a>
</g>
</g>
<!-- Node21 -->
<g id="Node000021" class="node">
<title>Node21</title>
<g id="a_Node000021"><a xlink:href="classnotequal__exprt.html" target="_top" xlink:title="Disequality.">
<polygon fill="white" stroke="#666666" points="1331,-199.5 1241,-199.5 1241,-180.5 1331,-180.5 1331,-199.5"/>
<text text-anchor="middle" x="1286" y="-187.5" font-family="Helvetica,sans-Serif" font-size="10.00">notequal_exprt</text>
</a>
</g>
</g>
<!-- Node13&#45;&gt;Node21 -->
<g id="edge20_Node000013_Node000021" class="edge">
<title>Node13&#45;&gt;Node21</title>
<g id="a_edge20_Node000013_Node000021"><a xlink:title=" ">
<path fill="none" stroke="#63b8ff" d="M1145.76,-304.21C1158.78,-296.43 1173.8,-286.02 1185,-274 1207.66,-249.68 1196.01,-229.72 1222,-209 1227.54,-204.58 1234.09,-201.19 1240.84,-198.59"/>
<polygon fill="#63b8ff" stroke="#63b8ff" points="1143.65,-301.38 1136.71,-309.38 1147.13,-307.45 1143.65,-301.38"/>
</a>
</g>
</g>
<!-- Node25 -->
<g id="Node000025" class="node">
<title>Node25</title>
<g id="a_Node000025"><a xlink:href="classr__ok__exprt.html" target="_top" xlink:title="A predicate that indicates that an address range is ok to read.">
<polygon fill="white" stroke="#666666" points="1320,-162.5 1252,-162.5 1252,-143.5 1320,-143.5 1320,-162.5"/>
<text text-anchor="middle" x="1286" y="-150.5" font-family="Helvetica,sans-Serif" font-size="10.00">r_ok_exprt</text>
</a>
</g>
</g>
<!-- Node24&#45;&gt;Node25 -->
<g id="edge24_Node000024_Node000025" class="edge">
<title>Node24&#45;&gt;Node25</title>
<g id="a_edge24_Node000024_Node000025"><a xlink:title=" ">
<path fill="none" stroke="#63b8ff" d="M1175.05,-171.38C1200.72,-167.09 1230.04,-162.19 1251.95,-158.53"/>
<polygon fill="#63b8ff" stroke="#63b8ff" points="1174.34,-167.95 1165.05,-173.05 1175.49,-174.85 1174.34,-167.95"/>
</a>
</g>
</g>
<!-- Node26 -->
<g id="Node000026" class="node">
<title>Node26</title>
<g id="a_Node000026"><a xlink:href="classw__ok__exprt.html" target="_top" xlink:title="A predicate that indicates that an address range is ok to write.">
<polygon fill="white" stroke="#666666" points="1322.5,-125.5 1249.5,-125.5 1249.5,-106.5 1322.5,-106.5 1322.5,-125.5"/>
<text text-anchor="middle" x="1286" y="-113.5" font-family="Helvetica,sans-Serif" font-size="10.00">w_ok_exprt</text>
</a>
</g>
</g>
<!-- Node24&#45;&gt;Node26 -->
<g id="edge25_Node000024_Node000026" class="edge">
<title>Node24&#45;&gt;Node26</title>
<g id="a_edge25_Node000024_Node000026"><a xlink:title=" ">
<path fill="none" stroke="#63b8ff" d="M1170.31,-168.22C1175.37,-166.38 1180.35,-164.31 1185,-162 1203.47,-152.82 1203.55,-143.21 1222,-134 1230.55,-129.73 1240.27,-126.33 1249.47,-123.68"/>
<polygon fill="#63b8ff" stroke="#63b8ff" points="1168.91,-165 1160.53,-171.49 1171.13,-171.64 1168.91,-165"/>
</a>
</g>
</g>
</g>
</svg>
