<?xml version="1.0" encoding="UTF-8" standalone="no"?>
<!DOCTYPE svg PUBLIC "-//W3C//DTD SVG 1.1//EN"
 "http://www.w3.org/Graphics/SVG/1.1/DTD/svg11.dtd">
<!-- Generated by graphviz version 2.43.0 (0)
 -->
<!-- Title: parsert Pages: 1 -->
<svg width="2161pt" height="445pt"
 viewBox="0.00 0.00 2161.00 445.15" xmlns="http://www.w3.org/2000/svg" xmlns:xlink="http://www.w3.org/1999/xlink">
<g id="graph0" class="graph" transform="scale(1 1) rotate(0) translate(4 441.15)">
<title>parsert</title>
<!-- Node1 -->
<g id="Node000001" class="node">
<title>Node1</title>
<g id="a_Node000001"><a xlink:title=" ">
<polygon fill="#999999" stroke="#666666" points="2153,-172.65 2102,-172.65 2102,-153.65 2153,-153.65 2153,-172.65"/>
<text text-anchor="middle" x="2127.5" y="-160.65" font-family="Helvetica,sans-Serif" font-size="10.00">parsert</text>
</a>
</g>
</g>
<!-- Node2 -->
<g id="Node000002" class="node">
<title>Node2</title>
<g id="a_Node000002"><a xlink:title=" ">
<polygon fill="white" stroke="#666666" points="1477,-389.65 1402,-389.65 1402,-370.65 1477,-370.65 1477,-389.65"/>
<text text-anchor="middle" x="1439.5" y="-377.65" font-family="Helvetica,sans-Serif" font-size="10.00">std::istream</text>
</a>
</g>
</g>
<!-- Node2&#45;&gt;Node1 -->
<g id="edge1_Node000001_Node000002" class="edge">
<title>Node2&#45;&gt;Node1</title>
<g id="a_edge1_Node000001_Node000002"><a xlink:title=" ">
<path fill="none" stroke="#9a32cd" stroke-dasharray="5,2" d="M1487.17,-379.48C1531.22,-378.9 1599.09,-378.15 1658,-378.15 1658,-378.15 1658,-378.15 1989.5,-378.15 2088.42,-378.15 2119.04,-214.28 2125.22,-172.67"/>
<polygon fill="#9a32cd" stroke="#9a32cd" points="1487.01,-375.98 1477.06,-379.61 1487.1,-382.98 1487.01,-375.98"/>
</a>
</g>
<text text-anchor="middle" x="1778.5" y="-381.15" font-family="Helvetica,sans-Serif" font-size="10.00" fill="grey"> in</text>
</g>
<!-- Node3 -->
<g id="Node000003" class="node">
<title>Node3</title>
<g id="a_Node000003"><a xlink:title=" ">
<polygon fill="white" stroke="#666666" points="1200.5,-400.15 1094.5,-400.15 1094.5,-370.15 1200.5,-370.15 1200.5,-400.15"/>
<text text-anchor="start" x="1102.5" y="-388.15" font-family="Helvetica,sans-Serif" font-size="10.00">std::basic_istream</text>
<text text-anchor="middle" x="1147.5" y="-377.15" font-family="Helvetica,sans-Serif" font-size="10.00">&lt; Char &gt;</text>
</a>
</g>
</g>
<!-- Node3&#45;&gt;Node2 -->
<g id="edge2_Node000002_Node000003" class="edge">
<title>Node3&#45;&gt;Node2</title>
<g id="a_edge2_Node000002_Node000003"><a xlink:title=" ">
<path fill="none" stroke="#63b8ff" d="M1210.86,-384.08C1269.06,-383.07 1353.91,-381.61 1401.89,-380.78"/>
<polygon fill="#63b8ff" stroke="#63b8ff" points="1210.62,-380.58 1200.68,-384.25 1210.74,-387.58 1210.62,-380.58"/>
</a>
</g>
</g>
<!-- Node4 -->
<g id="Node000004" class="node">
<title>Node4</title>
<g id="a_Node000004"><a xlink:title=" ">
<polygon fill="white" stroke="#666666" points="898,-364.65 770,-364.65 770,-345.65 898,-345.65 898,-364.65"/>
<text text-anchor="middle" x="834" y="-352.65" font-family="Helvetica,sans-Serif" font-size="10.00">std::basic_ios&lt; Char &gt;</text>
</a>
</g>
</g>
<!-- Node4&#45;&gt;Node3 -->
<g id="edge3_Node000003_Node000004" class="edge">
<title>Node4&#45;&gt;Node3</title>
<g id="a_edge3_Node000003_Node000004"><a xlink:title=" ">
<path fill="none" stroke="#63b8ff" d="M908.1,-362.19C965.29,-367.7 1043.41,-375.22 1094.4,-380.13"/>
<polygon fill="#63b8ff" stroke="#63b8ff" points="908.33,-358.7 898.04,-361.22 907.66,-365.67 908.33,-358.7"/>
</a>
</g>
</g>
<!-- Node27 -->
<g id="Node000027" class="node">
<title>Node27</title>
<g id="a_Node000027"><a xlink:title=" ">
<polygon fill="white" stroke="#666666" points="1202,-352.15 1093,-352.15 1093,-322.15 1202,-322.15 1202,-352.15"/>
<text text-anchor="start" x="1101" y="-340.15" font-family="Helvetica,sans-Serif" font-size="10.00">std::basic_ostream</text>
<text text-anchor="middle" x="1147.5" y="-329.15" font-family="Helvetica,sans-Serif" font-size="10.00">&lt; Char &gt;</text>
</a>
</g>
</g>
<!-- Node4&#45;&gt;Node27 -->
<g id="edge29_Node000027_Node000004" class="edge">
<title>Node4&#45;&gt;Node27</title>
<g id="a_edge29_Node000027_Node000004"><a xlink:title=" ">
<path fill="none" stroke="#63b8ff" d="M908.36,-350.91C964.97,-347.64 1041.97,-343.19 1092.9,-340.25"/>
<polygon fill="#63b8ff" stroke="#63b8ff" points="907.82,-347.44 898.04,-351.51 908.22,-354.43 907.82,-347.44"/>
</a>
</g>
</g>
<!-- Node5 -->
<g id="Node000005" class="node">
<title>Node5</title>
<g id="a_Node000005"><a xlink:title=" ">
<polygon fill="white" stroke="#666666" points="584,-364.65 504,-364.65 504,-345.65 584,-345.65 584,-364.65"/>
<text text-anchor="middle" x="544" y="-352.65" font-family="Helvetica,sans-Serif" font-size="10.00">std::ios_base</text>
</a>
</g>
</g>
<!-- Node5&#45;&gt;Node4 -->
<g id="edge4_Node000004_Node000005" class="edge">
<title>Node5&#45;&gt;Node4</title>
<g id="a_edge4_Node000004_Node000005"><a xlink:title=" ">
<path fill="none" stroke="#63b8ff" d="M594.39,-355.15C642.9,-355.15 717.12,-355.15 769.89,-355.15"/>
<polygon fill="#63b8ff" stroke="#63b8ff" points="594.14,-351.65 584.14,-355.15 594.14,-358.65 594.14,-351.65"/>
</a>
</g>
</g>
<!-- Node6 -->
<g id="Node000006" class="node">
<title>Node6</title>
<g id="a_Node000006"><a xlink:title=" ">
<polygon fill="white" stroke="#666666" points="2021,-428.65 1956,-428.65 1956,-409.65 2021,-409.65 2021,-428.65"/>
<text text-anchor="middle" x="1988.5" y="-416.65" font-family="Helvetica,sans-Serif" font-size="10.00">std::string</text>
</a>
</g>
</g>
<!-- Node6&#45;&gt;Node1 -->
<g id="edge5_Node000001_Node000006" class="edge">
<title>Node6&#45;&gt;Node1</title>
<g id="a_edge5_Node000001_Node000006"><a xlink:title=" ">
<path fill="none" stroke="#9a32cd" stroke-dasharray="5,2" d="M2031.22,-416.93C2049.88,-413.76 2070.63,-406.85 2084,-392.15 2114.13,-359.02 2123.94,-211.79 2126.03,-172.7"/>
<polygon fill="#9a32cd" stroke="#9a32cd" points="2030.55,-413.49 2021.13,-418.33 2031.51,-420.43 2030.55,-413.49"/>
</a>
</g>
<text text-anchor="middle" x="2061.5" y="-428.15" font-family="Helvetica,sans-Serif" font-size="10.00" fill="grey"> last_line</text>
<text text-anchor="middle" x="2061.5" y="-417.15" font-family="Helvetica,sans-Serif" font-size="10.00" fill="grey">this_line</text>
</g>
<!-- Node7 -->
<g id="Node000007" class="node">
<title>Node7</title>
<g id="a_Node000007"><a xlink:title=" ">
<polygon fill="white" stroke="#666666" points="1830.5,-437.15 1726.5,-437.15 1726.5,-407.15 1830.5,-407.15 1830.5,-437.15"/>
<text text-anchor="start" x="1734.5" y="-425.15" font-family="Helvetica,sans-Serif" font-size="10.00">std::basic_string&lt;</text>
<text text-anchor="middle" x="1778.5" y="-414.15" font-family="Helvetica,sans-Serif" font-size="10.00"> Char &gt;</text>
</a>
</g>
</g>
<!-- Node7&#45;&gt;Node6 -->
<g id="edge6_Node000006_Node000007" class="edge">
<title>Node7&#45;&gt;Node6</title>
<g id="a_edge6_Node000006_Node000007"><a xlink:title=" ">
<path fill="none" stroke="#63b8ff" d="M1841.04,-421.26C1878.8,-420.72 1925.59,-420.05 1955.96,-419.61"/>
<polygon fill="#63b8ff" stroke="#63b8ff" points="1840.6,-417.77 1830.65,-421.41 1840.7,-424.77 1840.6,-417.77"/>
</a>
</g>
</g>
<!-- Node8 -->
<g id="Node000008" class="node">
<title>Node8</title>
<g id="a_Node000008"><a xlink:title=" ">
<polygon fill="white" stroke="#666666" points="1836.5,-31.65 1720.5,-31.65 1720.5,-12.65 1836.5,-12.65 1836.5,-31.65"/>
<text text-anchor="middle" x="1778.5" y="-19.65" font-family="Helvetica,sans-Serif" font-size="10.00">std::vector&lt; exprt &gt;</text>
</a>
</g>
</g>
<!-- Node8&#45;&gt;Node1 -->
<g id="edge7_Node000001_Node000008" class="edge">
<title>Node8&#45;&gt;Node1</title>
<g id="a_edge7_Node000001_Node000008"><a xlink:title=" ">
<path fill="none" stroke="#9a32cd" stroke-dasharray="5,2" d="M1827.98,-10.63C1893.94,1.96 2011.95,13.07 2084,-47.15 2117.24,-74.94 2124.49,-131.1 2126.06,-153.55"/>
<polygon fill="#9a32cd" stroke="#9a32cd" points="1826.98,-7.26 1817.86,-12.65 1828.35,-14.13 1826.98,-7.26"/>
</a>
</g>
<text text-anchor="middle" x="1988.5" y="-17.15" font-family="Helvetica,sans-Serif" font-size="10.00" fill="grey"> stack</text>
</g>
<!-- Node9 -->
<g id="Node000009" class="node">
<title>Node9</title>
<g id="a_Node000009"><a xlink:href="classexprt.html" target="_top" xlink:title="Base class for all expressions.">
<polygon fill="white" stroke="#666666" points="1569,-49.65 1527,-49.65 1527,-30.65 1569,-30.65 1569,-49.65"/>
<text text-anchor="middle" x="1548" y="-37.65" font-family="Helvetica,sans-Serif" font-size="10.00">exprt</text>
</a>
</g>
</g>
<!-- Node9&#45;&gt;Node8 -->
<g id="edge8_Node000008_Node000009" class="edge">
<title>Node9&#45;&gt;Node8</title>
<g id="a_edge8_Node000008_Node000009"><a xlink:title=" ">
<path fill="none" stroke="#9a32cd" stroke-dasharray="5,2" d="M1579.58,-37.74C1615.43,-34.92 1675.61,-30.18 1720.22,-26.67"/>
<polygon fill="#9a32cd" stroke="#9a32cd" points="1578.97,-34.28 1569.28,-38.56 1579.52,-41.26 1578.97,-34.28"/>
</a>
</g>
<text text-anchor="middle" x="1659" y="-38.15" font-family="Helvetica,sans-Serif" font-size="10.00" fill="grey"> elements</text>
</g>
<!-- Node10 -->
<g id="Node000010" class="node">
<title>Node10</title>
<g id="a_Node000010"><a xlink:href="classirept.html" target="_top" xlink:title="There are a large number of kinds of tree structured or tree&#45;like data in CPROVER.">
<polygon fill="white" stroke="#666666" points="1335,-86.65 1296,-86.65 1296,-67.65 1335,-67.65 1335,-86.65"/>
<text text-anchor="middle" x="1315.5" y="-74.65" font-family="Helvetica,sans-Serif" font-size="10.00">irept</text>
</a>
</g>
</g>
<!-- Node10&#45;&gt;Node9 -->
<g id="edge9_Node000009_Node000010" class="edge">
<title>Node10&#45;&gt;Node9</title>
<g id="a_edge9_Node000009_Node000010"><a xlink:title=" ">
<path fill="none" stroke="#63b8ff" d="M1345.28,-72.53C1392.67,-64.93 1485.93,-49.96 1526.89,-43.38"/>
<polygon fill="#63b8ff" stroke="#63b8ff" points="1344.68,-69.08 1335.36,-74.12 1345.79,-76 1344.68,-69.08"/>
</a>
</g>
</g>
<!-- Node28 -->
<g id="Node000028" class="node">
<title>Node28</title>
<g id="a_Node000028"><a xlink:href="classsource__locationt.html" target="_top" xlink:title=" ">
<polygon fill="white" stroke="#666666" points="1596.5,-86.65 1499.5,-86.65 1499.5,-67.65 1596.5,-67.65 1596.5,-86.65"/>
<text text-anchor="middle" x="1548" y="-74.65" font-family="Helvetica,sans-Serif" font-size="10.00">source_locationt</text>
</a>
</g>
</g>
<!-- Node10&#45;&gt;Node28 -->
<g id="edge32_Node000028_Node000010" class="edge">
<title>Node10&#45;&gt;Node28</title>
<g id="a_edge32_Node000028_Node000010"><a xlink:title=" ">
<path fill="none" stroke="#63b8ff" d="M1345.4,-77.15C1383.99,-77.15 1452.87,-77.15 1499.24,-77.15"/>
<polygon fill="#63b8ff" stroke="#63b8ff" points="1345.36,-73.65 1335.36,-77.15 1345.36,-80.65 1345.36,-73.65"/>
</a>
</g>
</g>
<!-- Node11 -->
<g id="Node000011" class="node">
<title>Node11</title>
<g id="a_Node000011"><a xlink:href="classsharing__treet.html" target="_top" xlink:title=" ">
<polygon fill="white" stroke="#666666" points="1210,-97.65 1085,-97.65 1085,-56.65 1210,-56.65 1210,-97.65"/>
<text text-anchor="start" x="1093" y="-85.65" font-family="Helvetica,sans-Serif" font-size="10.00">sharing_treet&lt; irept,</text>
<text text-anchor="start" x="1093" y="-74.65" font-family="Helvetica,sans-Serif" font-size="10.00"> forward_list_as_mapt</text>
<text text-anchor="middle" x="1147.5" y="-63.65" font-family="Helvetica,sans-Serif" font-size="10.00">&lt; irep_idt, irept &gt; &gt;</text>
</a>
</g>
</g>
<!-- Node11&#45;&gt;Node10 -->
<g id="edge10_Node000010_Node000011" class="edge">
<title>Node11&#45;&gt;Node10</title>
<g id="a_edge10_Node000010_Node000011"><a xlink:title=" ">
<path fill="none" stroke="#63b8ff" d="M1220.42,-77.15C1248.11,-77.15 1277.48,-77.15 1295.9,-77.15"/>
<polygon fill="#63b8ff" stroke="#63b8ff" points="1220.31,-73.65 1210.31,-77.15 1220.31,-80.65 1220.31,-73.65"/>
</a>
</g>
</g>
<!-- Node12 -->
<g id="Node000012" class="node">
<title>Node12</title>
<g id="a_Node000012"><a xlink:href="classtree__nodet.html" target="_top" xlink:title="A node with data in a tree, it contains:">
<polygon fill="white" stroke="#666666" points="623,-110.15 465,-110.15 465,-80.15 623,-80.15 623,-110.15"/>
<text text-anchor="start" x="473" y="-98.15" font-family="Helvetica,sans-Serif" font-size="10.00">tree_nodet&lt; treet,</text>
<text text-anchor="middle" x="544" y="-87.15" font-family="Helvetica,sans-Serif" font-size="10.00"> named_subtreest, sharing &gt;</text>
</a>
</g>
</g>
<!-- Node12&#45;&gt;Node11 -->
<g id="edge11_Node000011_Node000012" class="edge">
<title>Node12&#45;&gt;Node11</title>
<g id="a_edge11_Node000011_Node000012"><a xlink:title=" ">
<path fill="none" stroke="#9a32cd" stroke-dasharray="5,2" d="M633.33,-91.21C673.76,-89.49 722.3,-87.56 766,-86.15 878.44,-82.53 1009.61,-79.75 1084.87,-78.29"/>
<polygon fill="#9a32cd" stroke="#9a32cd" points="633.07,-87.72 623.23,-91.64 633.37,-94.71 633.07,-87.72"/>
</a>
</g>
<text text-anchor="middle" x="834" y="-100.15" font-family="Helvetica,sans-Serif" font-size="10.00" fill="grey"> data</text>
<text text-anchor="middle" x="834" y="-89.15" font-family="Helvetica,sans-Serif" font-size="10.00" fill="grey">empty_d</text>
</g>
<!-- Node18 -->
<g id="Node000018" class="node">
<title>Node18</title>
<g id="a_Node000018"><a xlink:href="classsharing__treet.html" target="_top" xlink:title="Base class for tree&#45;like data structures with sharing.">
<polygon fill="white" stroke="#666666" points="902,-147.15 766,-147.15 766,-117.15 902,-117.15 902,-147.15"/>
<text text-anchor="start" x="774" y="-135.15" font-family="Helvetica,sans-Serif" font-size="10.00">sharing_treet&lt; derivedt,</text>
<text text-anchor="middle" x="834" y="-124.15" font-family="Helvetica,sans-Serif" font-size="10.00"> named_subtreest &gt;</text>
</a>
</g>
</g>
<!-- Node12&#45;&gt;Node18 -->
<g id="edge17_Node000018_Node000012" class="edge">
<title>Node12&#45;&gt;Node18</title>
<g id="a_edge17_Node000018_Node000012"><a xlink:title=" ">
<path fill="none" stroke="#9a32cd" stroke-dasharray="5,2" d="M633.42,-106.51C676.1,-112 726.48,-118.47 765.94,-123.54"/>
<polygon fill="#9a32cd" stroke="#9a32cd" points="633.68,-103.02 623.32,-105.21 632.79,-109.96 633.68,-103.02"/>
</a>
</g>
<text text-anchor="middle" x="694.5" y="-136.15" font-family="Helvetica,sans-Serif" font-size="10.00" fill="grey"> data</text>
<text text-anchor="middle" x="694.5" y="-125.15" font-family="Helvetica,sans-Serif" font-size="10.00" fill="grey">empty_d</text>
</g>
<!-- Node13 -->
<g id="Node000013" class="node">
<title>Node13</title>
<g id="a_Node000013"><a xlink:href="structref__count__ift.html" target="_top" xlink:title="Used in tree_nodet for activating or not reference counting.">
<polygon fill="white" stroke="#666666" points="348.5,-67.65 209.5,-67.65 209.5,-48.65 348.5,-48.65 348.5,-67.65"/>
<text text-anchor="middle" x="279" y="-55.65" font-family="Helvetica,sans-Serif" font-size="10.00">ref_count_ift&lt; enabled &gt;</text>
</a>
</g>
</g>
<!-- Node13&#45;&gt;Node12 -->
<g id="edge12_Node000012_Node000013" class="edge">
<title>Node13&#45;&gt;Node12</title>
<g id="a_edge12_Node000012_Node000013"><a xlink:title=" ">
<path fill="none" stroke="#63b8ff" d="M357.99,-69.13C391.7,-73.87 431.06,-79.4 464.78,-84.15"/>
<polygon fill="#63b8ff" stroke="#63b8ff" points="358.12,-65.61 347.73,-67.68 357.14,-72.54 358.12,-65.61"/>
</a>
</g>
</g>
<!-- Node14 -->
<g id="Node000014" class="node">
<title>Node14</title>
<g id="a_Node000014"><a xlink:href="classdstringt.html" target="_top" xlink:title="dstringt has one field, an unsigned integer no which is an index into a static table of strings.">
<polygon fill="white" stroke="#666666" points="306,-141.65 252,-141.65 252,-122.65 306,-122.65 306,-141.65"/>
<text text-anchor="middle" x="279" y="-129.65" font-family="Helvetica,sans-Serif" font-size="10.00">dstringt</text>
</a>
</g>
</g>
<!-- Node14&#45;&gt;Node12 -->
<g id="edge13_Node000012_Node000014" class="edge">
<title>Node14&#45;&gt;Node12</title>
<g id="a_edge13_Node000012_Node000014"><a xlink:title=" ">
<path fill="none" stroke="#9a32cd" stroke-dasharray="5,2" d="M316.39,-127.61C350.24,-123.33 402.08,-116.62 447,-110.15 452.84,-109.31 458.88,-108.42 464.96,-107.51"/>
<polygon fill="#9a32cd" stroke="#9a32cd" points="315.54,-124.19 306.06,-128.92 316.42,-131.14 315.54,-124.19"/>
</a>
</g>
<text text-anchor="middle" x="407" y="-124.15" font-family="Helvetica,sans-Serif" font-size="10.00" fill="grey"> data</text>
</g>
<!-- Node15 -->
<g id="Node000015" class="node">
<title>Node15</title>
<g id="a_Node000015"><a xlink:title=" ">
<polygon fill="white" stroke="#666666" points="336,-104.65 222,-104.65 222,-85.65 336,-85.65 336,-104.65"/>
<text text-anchor="middle" x="279" y="-92.65" font-family="Helvetica,sans-Serif" font-size="10.00">std::vector&lt; treet &gt;</text>
</a>
</g>
</g>
<!-- Node15&#45;&gt;Node12 -->
<g id="edge14_Node000012_Node000015" class="edge">
<title>Node15&#45;&gt;Node12</title>
<g id="a_edge14_Node000012_Node000015"><a xlink:title=" ">
<path fill="none" stroke="#9a32cd" stroke-dasharray="5,2" d="M346.46,-95.15C382.38,-95.15 426.94,-95.15 464.54,-95.15"/>
<polygon fill="#9a32cd" stroke="#9a32cd" points="346.1,-91.65 336.1,-95.15 346.1,-98.65 346.1,-91.65"/>
</a>
</g>
<text text-anchor="middle" x="407" y="-98.15" font-family="Helvetica,sans-Serif" font-size="10.00" fill="grey"> sub</text>
</g>
<!-- Node16 -->
<g id="Node000016" class="node">
<title>Node16</title>
<g id="a_Node000016"><a xlink:title=" ">
<polygon fill="#fff0f0" stroke="red" points="97,-104.65 0,-104.65 0,-85.65 97,-85.65 97,-104.65"/>
<text text-anchor="middle" x="48.5" y="-92.65" font-family="Helvetica,sans-Serif" font-size="10.00">std::vector&lt; T &gt;</text>
</a>
</g>
</g>
<!-- Node16&#45;&gt;Node8 -->
<g id="edge18_Node000008_Node000016" class="edge">
<title>Node16&#45;&gt;Node8</title>
<g id="a_edge18_Node000008_Node000016"><a xlink:title=" ">
<path fill="none" stroke="orange" stroke-dasharray="5,2" d="M71.14,-79.71C110.37,-53.27 196.72,-2.15 278,-2.15 278,-2.15 278,-2.15 1549,-2.15 1607.54,-2.15 1674.19,-8.75 1720.34,-14.36"/>
<polygon fill="orange" stroke="orange" points="68.9,-77 62.64,-85.55 72.86,-82.77 68.9,-77"/>
</a>
</g>
<text text-anchor="middle" x="993.5" y="-5.15" font-family="Helvetica,sans-Serif" font-size="10.00" fill="grey"> &lt; exprt &gt;</text>
</g>
<!-- Node16&#45;&gt;Node15 -->
<g id="edge15_Node000015_Node000016" class="edge">
<title>Node16&#45;&gt;Node15</title>
<g id="a_edge15_Node000015_Node000016"><a xlink:title=" ">
<path fill="none" stroke="orange" stroke-dasharray="5,2" d="M107.24,-95.15C142.41,-95.15 187.12,-95.15 221.98,-95.15"/>
<polygon fill="orange" stroke="orange" points="107.12,-91.65 97.12,-95.15 107.12,-98.65 107.12,-91.65"/>
</a>
</g>
<text text-anchor="middle" x="153" y="-98.15" font-family="Helvetica,sans-Serif" font-size="10.00" fill="grey"> &lt; treet &gt;</text>
</g>
<!-- Node23 -->
<g id="Node000023" class="node">
<title>Node23</title>
<g id="a_Node000023"><a xlink:title=" ">
<polygon fill="white" stroke="#666666" points="349,-249.65 209,-249.65 209,-230.65 349,-230.65 349,-249.65"/>
<text text-anchor="middle" x="279" y="-237.65" font-family="Helvetica,sans-Serif" font-size="10.00">std::vector&lt; std::size_t &gt;</text>
</a>
</g>
</g>
<!-- Node16&#45;&gt;Node23 -->
<g id="edge24_Node000023_Node000016" class="edge">
<title>Node16&#45;&gt;Node23</title>
<g id="a_edge24_Node000023_Node000016"><a xlink:title=" ">
<path fill="none" stroke="orange" stroke-dasharray="5,2" d="M73.09,-110.12C120.05,-139.92 224.08,-205.93 262.95,-230.6"/>
<polygon fill="orange" stroke="orange" points="74.81,-107.07 64.49,-104.67 71.06,-112.98 74.81,-107.07"/>
</a>
</g>
<text text-anchor="middle" x="153" y="-188.15" font-family="Helvetica,sans-Serif" font-size="10.00" fill="grey"> &lt; std::size_t &gt;</text>
</g>
<!-- Node18&#45;&gt;Node11 -->
<g id="edge16_Node000011_Node000018" class="edge">
<title>Node18&#45;&gt;Node11</title>
<g id="a_edge16_Node000011_Node000018"><a xlink:title=" ">
<path fill="none" stroke="orange" stroke-dasharray="5,2" d="M912.29,-118.51C965.58,-109.1 1035.45,-96.76 1084.96,-88.02"/>
<polygon fill="orange" stroke="orange" points="911.45,-115.1 902.21,-120.29 912.66,-121.99 911.45,-115.1"/>
</a>
</g>
<text text-anchor="start" x="920" y="-130.15" font-family="Helvetica,sans-Serif" font-size="10.00" fill="grey"> &lt; irept, forward_list</text>
<text text-anchor="middle" x="993.5" y="-119.15" font-family="Helvetica,sans-Serif" font-size="10.00" fill="grey">_as_mapt&lt; irep_idt, irept &gt; &gt;</text>
</g>
<!-- Node19 -->
<g id="Node000019" class="node">
<title>Node19</title>
<g id="a_Node000019"><a xlink:href="classmessaget.html" target="_top" xlink:title="Class that provides messages with a built&#45;in verbosity &#39;level&#39;.">
<polygon fill="white" stroke="#666666" points="2021,-172.65 1956,-172.65 1956,-153.65 2021,-153.65 2021,-172.65"/>
<text text-anchor="middle" x="1988.5" y="-160.65" font-family="Helvetica,sans-Serif" font-size="10.00">messaget</text>
</a>
</g>
</g>
<!-- Node19&#45;&gt;Node1 -->
<g id="edge19_Node000001_Node000019" class="edge">
<title>Node19&#45;&gt;Node1</title>
<g id="a_edge19_Node000001_Node000019"><a xlink:title=" ">
<path fill="none" stroke="#9a32cd" stroke-dasharray="5,2" d="M2031.46,-163.15C2054.46,-163.15 2082.18,-163.15 2101.73,-163.15"/>
<polygon fill="#9a32cd" stroke="#9a32cd" points="2031.27,-159.65 2021.27,-163.15 2031.27,-166.65 2031.27,-159.65"/>
</a>
</g>
<text text-anchor="middle" x="2061.5" y="-166.15" font-family="Helvetica,sans-Serif" font-size="10.00" fill="grey"> log</text>
</g>
<!-- Node24 -->
<g id="Node000024" class="node">
<title>Node24</title>
<g id="a_Node000024"><a xlink:href="classmessaget_1_1mstreamt.html" target="_top" xlink:title=" ">
<polygon fill="white" stroke="#666666" points="1838,-127.65 1719,-127.65 1719,-108.65 1838,-108.65 1838,-127.65"/>
<text text-anchor="middle" x="1778.5" y="-115.65" font-family="Helvetica,sans-Serif" font-size="10.00">messaget::mstreamt</text>
</a>
</g>
</g>
<!-- Node19&#45;&gt;Node24 -->
<g id="edge30_Node000024_Node000019" class="edge">
<title>Node19&#45;&gt;Node24</title>
<g id="a_edge30_Node000024_Node000019"><a xlink:title=" ">
<path fill="none" stroke="#9a32cd" stroke-dasharray="5,2" d="M1974.49,-145.72C1965.53,-135.26 1952.65,-122.91 1938,-117.15 1903.3,-103.52 1860.92,-104.6 1828.73,-108.63"/>
<polygon fill="#9a32cd" stroke="#9a32cd" points="1971.78,-147.94 1980.78,-153.54 1977.23,-143.55 1971.78,-147.94"/>
</a>
</g>
<text text-anchor="middle" x="1898" y="-120.15" font-family="Helvetica,sans-Serif" font-size="10.00" fill="grey"> message</text>
</g>
<!-- Node20 -->
<g id="Node000020" class="node">
<title>Node20</title>
<g id="a_Node000020"><a xlink:href="classmessaget_1_1eomt.html" target="_top" xlink:title=" ">
<polygon fill="white" stroke="#666666" points="1826.5,-341.65 1730.5,-341.65 1730.5,-322.65 1826.5,-322.65 1826.5,-341.65"/>
<text text-anchor="middle" x="1778.5" y="-329.65" font-family="Helvetica,sans-Serif" font-size="10.00">messaget::eomt</text>
</a>
</g>
</g>
<!-- Node20&#45;&gt;Node19 -->
<g id="edge20_Node000019_Node000020" class="edge">
<title>Node20&#45;&gt;Node19</title>
<g id="a_edge20_Node000019_Node000020"><a xlink:title=" ">
<path fill="none" stroke="#9a32cd" stroke-dasharray="5,2" d="M1836.65,-338.16C1869.72,-338.51 1910.18,-333.2 1938,-310.15 1981.13,-274.41 1986.85,-199.71 1987.48,-172.95"/>
<polygon fill="#9a32cd" stroke="#9a32cd" points="1836.73,-334.66 1826.64,-337.88 1836.54,-341.65 1836.73,-334.66"/>
</a>
</g>
<text text-anchor="middle" x="1898" y="-340.15" font-family="Helvetica,sans-Serif" font-size="10.00" fill="grey"> eom</text>
</g>
<!-- Node21 -->
<g id="Node000021" class="node">
<title>Node21</title>
<g id="a_Node000021"><a xlink:href="classmessaget_1_1commandt.html" target="_top" xlink:title=" ">
<polygon fill="white" stroke="#666666" points="1840,-172.65 1717,-172.65 1717,-153.65 1840,-153.65 1840,-172.65"/>
<text text-anchor="middle" x="1778.5" y="-160.65" font-family="Helvetica,sans-Serif" font-size="10.00">messaget::commandt</text>
</a>
</g>
</g>
<!-- Node21&#45;&gt;Node19 -->
<g id="edge21_Node000019_Node000021" class="edge">
<title>Node21&#45;&gt;Node19</title>
<g id="a_edge21_Node000019_Node000021"><a xlink:title=" ">
<path fill="none" stroke="#9a32cd" stroke-dasharray="5,2" d="M1850.64,-163.15C1886.46,-163.15 1928.08,-163.15 1955.93,-163.15"/>
<polygon fill="#9a32cd" stroke="#9a32cd" points="1850.22,-159.65 1840.22,-163.15 1850.22,-166.65 1850.22,-159.65"/>
</a>
</g>
<text text-anchor="middle" x="1898" y="-276.15" font-family="Helvetica,sans-Serif" font-size="10.00" fill="grey"> blue</text>
<text text-anchor="middle" x="1898" y="-265.15" font-family="Helvetica,sans-Serif" font-size="10.00" fill="grey">bold</text>
<text text-anchor="middle" x="1898" y="-254.15" font-family="Helvetica,sans-Serif" font-size="10.00" fill="grey">bright_blue</text>
<text text-anchor="middle" x="1898" y="-243.15" font-family="Helvetica,sans-Serif" font-size="10.00" fill="grey">bright_cyan</text>
<text text-anchor="middle" x="1898" y="-232.15" font-family="Helvetica,sans-Serif" font-size="10.00" fill="grey">bright_green</text>
<text text-anchor="middle" x="1898" y="-221.15" font-family="Helvetica,sans-Serif" font-size="10.00" fill="grey">bright_magenta</text>
<text text-anchor="middle" x="1898" y="-210.15" font-family="Helvetica,sans-Serif" font-size="10.00" fill="grey">bright_red</text>
<text text-anchor="middle" x="1898" y="-199.15" font-family="Helvetica,sans-Serif" font-size="10.00" fill="grey">bright_yellow</text>
<text text-anchor="middle" x="1898" y="-188.15" font-family="Helvetica,sans-Serif" font-size="10.00" fill="grey">cyan</text>
<text text-anchor="middle" x="1898" y="-177.15" font-family="Helvetica,sans-Serif" font-size="10.00" fill="grey">faint</text>
<text text-anchor="middle" x="1898" y="-166.15" font-family="Helvetica,sans-Serif" font-size="10.00" fill="grey">...</text>
</g>
<!-- Node22 -->
<g id="Node000022" class="node">
<title>Node22</title>
<g id="a_Node000022"><a xlink:href="classmessage__handlert.html" target="_top" xlink:title=" ">
<polygon fill="white" stroke="#666666" points="748,-267.65 641,-267.65 641,-248.65 748,-248.65 748,-267.65"/>
<text text-anchor="middle" x="694.5" y="-255.65" font-family="Helvetica,sans-Serif" font-size="10.00">message_handlert</text>
</a>
</g>
</g>
<!-- Node22&#45;&gt;Node19 -->
<g id="edge22_Node000019_Node000022" class="edge">
<title>Node22&#45;&gt;Node19</title>
<g id="a_edge22_Node000019_Node000022"><a xlink:title=" ">
<path fill="none" stroke="#9a32cd" stroke-dasharray="5,2" d="M753.89,-269.45C813.6,-280.01 909.15,-294.15 992.5,-294.15 992.5,-294.15 992.5,-294.15 1660,-294.15 1721.81,-294.15 1887.3,-320.5 1938,-285.15 1976.25,-258.48 1984.97,-196.85 1986.94,-172.91"/>
<polygon fill="#9a32cd" stroke="#9a32cd" points="754.36,-265.98 743.9,-267.66 753.12,-272.87 754.36,-265.98"/>
</a>
</g>
<text text-anchor="middle" x="1315.5" y="-297.15" font-family="Helvetica,sans-Serif" font-size="10.00" fill="grey"> message_handler</text>
</g>
<!-- Node23&#45;&gt;Node22 -->
<g id="edge23_Node000022_Node000023" class="edge">
<title>Node23&#45;&gt;Node22</title>
<g id="a_edge23_Node000022_Node000023"><a xlink:title=" ">
<path fill="none" stroke="#9a32cd" stroke-dasharray="5,2" d="M359.33,-243.61C442.14,-247.21 569.64,-252.76 640.82,-255.86"/>
<polygon fill="#9a32cd" stroke="#9a32cd" points="359.35,-240.1 349.21,-243.17 359.05,-247.1 359.35,-240.1"/>
</a>
</g>
<text text-anchor="middle" x="407" y="-251.15" font-family="Helvetica,sans-Serif" font-size="10.00" fill="grey"> message_count</text>
</g>
<!-- Node24&#45;&gt;Node19 -->
<g id="edge25_Node000019_Node000024" class="edge">
<title>Node24&#45;&gt;Node19</title>
<g id="a_edge25_Node000019_Node000024"><a xlink:title=" ">
<path fill="none" stroke="#9a32cd" stroke-dasharray="5,2" d="M1848.25,-129.51C1876.24,-134.56 1908.81,-140.99 1938,-148.15 1944.45,-149.74 1951.31,-151.66 1957.8,-153.59"/>
<polygon fill="#9a32cd" stroke="#9a32cd" points="1848.62,-126.02 1838.16,-127.71 1847.39,-132.91 1848.62,-126.02"/>
</a>
</g>
<text text-anchor="middle" x="1898" y="-151.15" font-family="Helvetica,sans-Serif" font-size="10.00" fill="grey"> mstream</text>
</g>
<!-- Node25 -->
<g id="Node000025" class="node">
<title>Node25</title>
<g id="a_Node000025"><a xlink:title=" ">
<polygon fill="white" stroke="#666666" points="1601,-343.65 1495,-343.65 1495,-324.65 1601,-324.65 1601,-343.65"/>
<text text-anchor="middle" x="1548" y="-331.65" font-family="Helvetica,sans-Serif" font-size="10.00">std::ostringstream</text>
</a>
</g>
</g>
<!-- Node25&#45;&gt;Node24 -->
<g id="edge26_Node000024_Node000025" class="edge">
<title>Node25&#45;&gt;Node24</title>
<g id="a_edge26_Node000024_Node000025"><a xlink:title=" ">
<path fill="none" stroke="#63b8ff" d="M1561.02,-315.8C1586.04,-278.83 1647.25,-194.62 1717,-144.15 1726.35,-137.38 1737.75,-131.91 1748.11,-127.76"/>
<polygon fill="#63b8ff" stroke="#63b8ff" points="1557.84,-314.26 1555.2,-324.52 1563.66,-318.15 1557.84,-314.26"/>
</a>
</g>
</g>
<!-- Node26 -->
<g id="Node000026" class="node">
<title>Node26</title>
<g id="a_Node000026"><a xlink:title=" ">
<polygon fill="white" stroke="#666666" points="1384,-353.15 1247,-353.15 1247,-323.15 1384,-323.15 1384,-353.15"/>
<text text-anchor="start" x="1255" y="-341.15" font-family="Helvetica,sans-Serif" font-size="10.00">std::basic_ostringstream</text>
<text text-anchor="middle" x="1315.5" y="-330.15" font-family="Helvetica,sans-Serif" font-size="10.00">&lt; Char &gt;</text>
</a>
</g>
</g>
<!-- Node26&#45;&gt;Node25 -->
<g id="edge27_Node000025_Node000026" class="edge">
<title>Node26&#45;&gt;Node25</title>
<g id="a_edge27_Node000025_Node000026"><a xlink:title=" ">
<path fill="none" stroke="#63b8ff" d="M1394.22,-336.8C1427.33,-336.23 1465.1,-335.57 1494.79,-335.06"/>
<polygon fill="#63b8ff" stroke="#63b8ff" points="1394.04,-333.31 1384.1,-336.98 1394.16,-340.31 1394.04,-333.31"/>
</a>
</g>
</g>
<!-- Node27&#45;&gt;Node26 -->
<g id="edge28_Node000026_Node000027" class="edge">
<title>Node27&#45;&gt;Node26</title>
<g id="a_edge28_Node000026_Node000027"><a xlink:title=" ">
<path fill="none" stroke="#63b8ff" d="M1212.57,-337.54C1223.83,-337.61 1235.57,-337.68 1246.92,-337.75"/>
<polygon fill="#63b8ff" stroke="#63b8ff" points="1212.42,-334.04 1202.4,-337.48 1212.37,-341.04 1212.42,-334.04"/>
</a>
</g>
</g>
<!-- Node28&#45;&gt;Node1 -->
<g id="edge33_Node000001_Node000028" class="edge">
<title>Node28&#45;&gt;Node1</title>
<g id="a_edge33_Node000001_Node000028"><a xlink:title=" ">
<path fill="none" stroke="#9a32cd" stroke-dasharray="5,2" d="M1606.98,-73.37C1683.61,-69.7 1822.41,-67.67 1938,-91.15 2002.88,-104.33 2074.71,-137.3 2107.86,-153.65"/>
<polygon fill="#9a32cd" stroke="#9a32cd" points="1606.4,-69.9 1596.59,-73.9 1606.76,-76.89 1606.4,-69.9"/>
</a>
</g>
<text text-anchor="middle" x="1898" y="-94.15" font-family="Helvetica,sans-Serif" font-size="10.00" fill="grey"> source_location</text>
</g>
<!-- Node28&#45;&gt;Node24 -->
<g id="edge31_Node000024_Node000028" class="edge">
<title>Node28&#45;&gt;Node24</title>
<g id="a_edge31_Node000024_Node000028"><a xlink:title=" ">
<path fill="none" stroke="#9a32cd" stroke-dasharray="5,2" d="M1606.54,-87.48C1642.71,-93.97 1689.04,-102.28 1724.35,-108.61"/>
<polygon fill="#9a32cd" stroke="#9a32cd" points="1607.08,-84.02 1596.62,-85.7 1605.85,-90.91 1607.08,-84.02"/>
</a>
</g>
<text text-anchor="middle" x="1659" y="-107.15" font-family="Helvetica,sans-Serif" font-size="10.00" fill="grey"> source_location</text>
</g>
</g>
</svg>
