<?xml version="1.0" encoding="UTF-8" standalone="no"?>
<!DOCTYPE svg PUBLIC "-//W3C//DTD SVG 1.1//EN"
 "http://www.w3.org/Graphics/SVG/1.1/DTD/svg11.dtd">
<!-- Generated by graphviz version 2.43.0 (0)
 -->
<!-- Title: /home/runner/work/cbmc/cbmc/src/goto&#45;programs/compute_called_functions.h Pages: 1 -->
<svg width="724pt" height="126pt"
 viewBox="0.00 0.00 724.00 126.00" xmlns="http://www.w3.org/2000/svg" xmlns:xlink="http://www.w3.org/1999/xlink">
<g id="graph0" class="graph" transform="scale(1 1) rotate(0) translate(4 122)">
<title>/home/runner/work/cbmc/cbmc/src/goto&#45;programs/compute_called_functions.h</title>
<!-- Node1 -->
<g id="Node000001" class="node">
<title>Node1</title>
<g id="a_Node000001"><a xlink:title="Query Called Functions.">
<polygon fill="#999999" stroke="#666666" points="433.5,-118 277.5,-118 277.5,-77 433.5,-77 433.5,-118"/>
<text text-anchor="start" x="285.5" y="-106" font-family="Helvetica,sans-Serif" font-size="10.00">/home/runner/work/cbmc</text>
<text text-anchor="start" x="285.5" y="-95" font-family="Helvetica,sans-Serif" font-size="10.00">/cbmc/src/goto&#45;programs</text>
<text text-anchor="middle" x="355.5" y="-84" font-family="Helvetica,sans-Serif" font-size="10.00">/compute_called_functions.h</text>
</a>
</g>
</g>
<!-- Node2 -->
<g id="Node000002" class="node">
<title>Node2</title>
<g id="a_Node000002"><a xlink:href="link__to__library_8cpp.html" target="_top" xlink:title="Library Linking.">
<polygon fill="white" stroke="#666666" points="165,-41 0,-41 0,0 165,0 165,-41"/>
<text text-anchor="start" x="8" y="-29" font-family="Helvetica,sans-Serif" font-size="10.00">/home/runner/work/cbmc</text>
<text text-anchor="start" x="8" y="-18" font-family="Helvetica,sans-Serif" font-size="10.00">/cbmc/src/ansi&#45;c/goto</text>
<text text-anchor="middle" x="82.5" y="-7" font-family="Helvetica,sans-Serif" font-size="10.00">&#45;conversion/link_to_library.cpp</text>
</a>
</g>
</g>
<!-- Node1&#45;&gt;Node2 -->
<g id="edge1_Node000001_Node000002" class="edge">
<title>Node1&#45;&gt;Node2</title>
<g id="a_edge1_Node000001_Node000002"><a xlink:title=" ">
<path fill="none" stroke="#63b8ff" d="M274.38,-74.21C236.02,-63.68 190.63,-51.21 153.63,-41.04"/>
<polygon fill="#63b8ff" stroke="#63b8ff" points="273.92,-77.72 284.49,-76.99 275.77,-70.97 273.92,-77.72"/>
</a>
</g>
</g>
<!-- Node3 -->
<g id="Node000003" class="node">
<title>Node3</title>
<g id="a_Node000003"><a xlink:href="unreachable__instructions_8cpp.html" target="_top" xlink:title="List all unreachable instructions.">
<polygon fill="white" stroke="#666666" points="345.5,-41 183.5,-41 183.5,0 345.5,0 345.5,-41"/>
<text text-anchor="start" x="191.5" y="-29" font-family="Helvetica,sans-Serif" font-size="10.00">/home/runner/work/cbmc</text>
<text text-anchor="start" x="191.5" y="-18" font-family="Helvetica,sans-Serif" font-size="10.00">/cbmc/src/goto&#45;analyzer</text>
<text text-anchor="middle" x="264.5" y="-7" font-family="Helvetica,sans-Serif" font-size="10.00">/unreachable_instructions.cpp</text>
</a>
</g>
</g>
<!-- Node1&#45;&gt;Node3 -->
<g id="edge2_Node000001_Node000003" class="edge">
<title>Node1&#45;&gt;Node3</title>
<g id="a_edge2_Node000001_Node000003"><a xlink:title=" ">
<path fill="none" stroke="#63b8ff" d="M323.77,-70.35C312.1,-60.73 299.1,-50.01 288.25,-41.07"/>
<polygon fill="#63b8ff" stroke="#63b8ff" points="321.65,-73.14 331.59,-76.79 326.1,-67.73 321.65,-73.14"/>
</a>
</g>
</g>
<!-- Node4 -->
<g id="Node000004" class="node">
<title>Node4</title>
<g id="a_Node000004"><a xlink:href="compute__called__functions_8cpp.html" target="_top" xlink:title="Query Called Functions.">
<polygon fill="white" stroke="#666666" points="531,-41 364,-41 364,0 531,0 531,-41"/>
<text text-anchor="start" x="372" y="-29" font-family="Helvetica,sans-Serif" font-size="10.00">/home/runner/work/cbmc</text>
<text text-anchor="start" x="372" y="-18" font-family="Helvetica,sans-Serif" font-size="10.00">/cbmc/src/goto&#45;programs</text>
<text text-anchor="middle" x="447.5" y="-7" font-family="Helvetica,sans-Serif" font-size="10.00">/compute_called_functions.cpp</text>
</a>
</g>
</g>
<!-- Node1&#45;&gt;Node4 -->
<g id="edge3_Node000001_Node000004" class="edge">
<title>Node1&#45;&gt;Node4</title>
<g id="a_edge3_Node000001_Node000004"><a xlink:title=" ">
<path fill="none" stroke="#63b8ff" d="M387.58,-70.35C399.38,-60.73 412.52,-50.01 423.49,-41.07"/>
<polygon fill="#63b8ff" stroke="#63b8ff" points="385.21,-67.76 379.67,-76.79 389.63,-73.19 385.21,-67.76"/>
</a>
</g>
</g>
<!-- Node5 -->
<g id="Node000005" class="node">
<title>Node5</title>
<g id="a_Node000005"><a xlink:href="remove__function__pointers_8cpp.html" target="_top" xlink:title="Program Transformation.">
<polygon fill="white" stroke="#666666" points="716,-41 549,-41 549,0 716,0 716,-41"/>
<text text-anchor="start" x="557" y="-29" font-family="Helvetica,sans-Serif" font-size="10.00">/home/runner/work/cbmc</text>
<text text-anchor="start" x="557" y="-18" font-family="Helvetica,sans-Serif" font-size="10.00">/cbmc/src/goto&#45;programs</text>
<text text-anchor="middle" x="632.5" y="-7" font-family="Helvetica,sans-Serif" font-size="10.00">/remove_function_pointers.cpp</text>
</a>
</g>
</g>
<!-- Node1&#45;&gt;Node5 -->
<g id="edge4_Node000001_Node000005" class="edge">
<title>Node1&#45;&gt;Node5</title>
<g id="a_edge4_Node000001_Node000005"><a xlink:title=" ">
<path fill="none" stroke="#63b8ff" d="M437.31,-74.35C476.34,-63.78 522.62,-51.25 560.32,-41.04"/>
<polygon fill="#63b8ff" stroke="#63b8ff" points="436.29,-71 427.56,-76.99 438.12,-77.76 436.29,-71"/>
</a>
</g>
</g>
</g>
</svg>
