<?xml version="1.0" encoding="UTF-8" standalone="no"?>
<!DOCTYPE svg PUBLIC "-//W3C//DTD SVG 1.1//EN"
 "http://www.w3.org/Graphics/SVG/1.1/DTD/svg11.dtd">
<!-- Generated by graphviz version 2.43.0 (0)
 -->
<!-- Title: /home/runner/work/cbmc/cbmc/src/ansi&#45;c/literals/convert_string_literal.cpp Pages: 1 -->
<svg width="934pt" height="764pt"
 viewBox="0.00 0.00 934.00 764.00" xmlns="http://www.w3.org/2000/svg" xmlns:xlink="http://www.w3.org/1999/xlink">
<g id="graph0" class="graph" transform="scale(1 1) rotate(0) translate(4 760)">
<title>/home/runner/work/cbmc/cbmc/src/ansi&#45;c/literals/convert_string_literal.cpp</title>
<!-- Node1 -->
<g id="Node000001" class="node">
<title>Node1</title>
<g id="a_Node000001"><a xlink:title="C/C++ Language Conversion.">
<polygon fill="#999999" stroke="#666666" points="715.5,-756 572.5,-756 572.5,-715 715.5,-715 715.5,-756"/>
<text text-anchor="start" x="580.5" y="-744" font-family="Helvetica,sans-Serif" font-size="10.00">/home/runner/work/cbmc</text>
<text text-anchor="start" x="580.5" y="-733" font-family="Helvetica,sans-Serif" font-size="10.00">/cbmc/src/ansi&#45;c/literals</text>
<text text-anchor="middle" x="644" y="-722" font-family="Helvetica,sans-Serif" font-size="10.00">/convert_string_literal.cpp</text>
</a>
</g>
</g>
<!-- Node2 -->
<g id="Node000002" class="node">
<title>Node2</title>
<g id="a_Node000002"><a xlink:href="convert__string__literal_8h.html" target="_top" xlink:title="C/C++ Language Conversion.">
<polygon fill="white" stroke="#666666" points="312.5,-459 183.5,-459 183.5,-440 312.5,-440 312.5,-459"/>
<text text-anchor="middle" x="248" y="-447" font-family="Helvetica,sans-Serif" font-size="10.00">convert_string_literal.h</text>
</a>
</g>
</g>
<!-- Node1&#45;&gt;Node2 -->
<g id="edge1_Node000001_Node000002" class="edge">
<title>Node1&#45;&gt;Node2</title>
<g id="a_edge1_Node000001_Node000002"><a xlink:title=" ">
<path fill="none" stroke="#63b8ff" d="M572.35,-720.53C484.74,-701.34 348,-663.69 348,-615.5 348,-615.5 348,-615.5 348,-558.5 348,-515.15 304.09,-481.83 274.46,-464.28"/>
<polygon fill="#63b8ff" stroke="#63b8ff" points="275.84,-461.04 265.42,-459.14 272.39,-467.13 275.84,-461.04"/>
</a>
</g>
</g>
<!-- Node37 -->
<g id="Node000037" class="node">
<title>Node37</title>
<g id="a_Node000037"><a xlink:href="arith__tools_8h.html" target="_top" xlink:title=" ">
<polygon fill="white" stroke="#666666" points="618,-624 522,-624 522,-605 618,-605 618,-624"/>
<text text-anchor="middle" x="570" y="-612" font-family="Helvetica,sans-Serif" font-size="10.00">util/arith_tools.h</text>
</a>
</g>
</g>
<!-- Node1&#45;&gt;Node37 -->
<g id="edge33_Node000001_Node000037" class="edge">
<title>Node1&#45;&gt;Node37</title>
<g id="a_edge33_Node000001_Node000037"><a xlink:title=" ">
<path fill="none" stroke="#63b8ff" d="M631.78,-714.85C617.55,-691.96 594.26,-654.52 580.71,-632.72"/>
<polygon fill="#63b8ff" stroke="#63b8ff" points="583.65,-630.82 575.39,-624.18 577.7,-634.52 583.65,-630.82"/>
</a>
</g>
</g>
<!-- Node45 -->
<g id="Node000045" class="node">
<title>Node45</title>
<g id="a_Node000045"><a xlink:href="c__types_8h.html" target="_top" xlink:title=" ">
<polygon fill="white" stroke="#666666" points="720,-679 638,-679 638,-660 720,-660 720,-679"/>
<text text-anchor="middle" x="679" y="-667" font-family="Helvetica,sans-Serif" font-size="10.00">util/c_types.h</text>
</a>
</g>
</g>
<!-- Node1&#45;&gt;Node45 -->
<g id="edge55_Node000001_Node000045" class="edge">
<title>Node1&#45;&gt;Node45</title>
<g id="a_edge55_Node000001_Node000045"><a xlink:title=" ">
<path fill="none" stroke="#63b8ff" d="M654.69,-714.95C659.37,-706.39 664.82,-696.42 669.38,-688.1"/>
<polygon fill="#63b8ff" stroke="#63b8ff" points="672.48,-689.71 674.21,-679.26 666.34,-686.35 672.48,-689.71"/>
</a>
</g>
</g>
<!-- Node48 -->
<g id="Node000048" class="node">
<title>Node48</title>
<g id="a_Node000048"><a xlink:href="unicode_8h.html" target="_top" xlink:title=" ">
<polygon fill="white" stroke="#666666" points="593.5,-129 510.5,-129 510.5,-110 593.5,-110 593.5,-129"/>
<text text-anchor="middle" x="552" y="-117" font-family="Helvetica,sans-Serif" font-size="10.00">util/unicode.h</text>
</a>
</g>
</g>
<!-- Node1&#45;&gt;Node48 -->
<g id="edge61_Node000001_Node000048" class="edge">
<title>Node1&#45;&gt;Node48</title>
<g id="a_edge61_Node000001_Node000048"><a xlink:title=" ">
<path fill="none" stroke="#63b8ff" d="M715.53,-733.97C799.07,-729.13 926,-706.77 926,-615.5 926,-615.5 926,-615.5 926,-393.5 926,-234.17 701.83,-157.92 600.6,-131.6"/>
<polygon fill="#63b8ff" stroke="#63b8ff" points="601.17,-128.14 590.62,-129.07 599.45,-134.92 601.17,-128.14"/>
</a>
</g>
</g>
<!-- Node49 -->
<g id="Node000049" class="node">
<title>Node49</title>
<g id="a_Node000049"><a xlink:href="string__constant_8h.html" target="_top" xlink:title=" ">
<polygon fill="white" stroke="#666666" points="859.5,-624 740.5,-624 740.5,-605 859.5,-605 859.5,-624"/>
<text text-anchor="middle" x="800" y="-612" font-family="Helvetica,sans-Serif" font-size="10.00">util/string_constant.h</text>
</a>
</g>
</g>
<!-- Node1&#45;&gt;Node49 -->
<g id="edge65_Node000001_Node000049" class="edge">
<title>Node1&#45;&gt;Node49</title>
<g id="a_edge65_Node000001_Node000049"><a xlink:title=" ">
<path fill="none" stroke="#63b8ff" d="M676.67,-714.79C692.82,-704.65 712.36,-691.76 729,-679 748.75,-663.86 769.81,-644.58 783.82,-631.26"/>
<polygon fill="#63b8ff" stroke="#63b8ff" points="786.4,-633.63 791.19,-624.18 781.55,-628.58 786.4,-633.63"/>
</a>
</g>
</g>
<!-- Node50 -->
<g id="Node000050" class="node">
<title>Node50</title>
<g id="a_Node000050"><a xlink:href="unescape__string_8h.html" target="_top" xlink:title="ANSI&#45;C Language Conversion.">
<polygon fill="white" stroke="#666666" points="119.5,-514 14.5,-514 14.5,-495 119.5,-495 119.5,-514"/>
<text text-anchor="middle" x="67" y="-502" font-family="Helvetica,sans-Serif" font-size="10.00">unescape_string.h</text>
</a>
</g>
</g>
<!-- Node1&#45;&gt;Node50 -->
<g id="edge67_Node000001_Node000050" class="edge">
<title>Node1&#45;&gt;Node50</title>
<g id="a_edge67_Node000001_Node000050"><a xlink:title=" ">
<path fill="none" stroke="#63b8ff" d="M572.24,-729.78C507.95,-723.68 412.04,-709.87 334,-679 230.82,-638.18 125.3,-554.71 84.54,-520.57"/>
<polygon fill="#63b8ff" stroke="#63b8ff" points="86.74,-517.85 76.85,-514.06 82.22,-523.19 86.74,-517.85"/>
</a>
</g>
</g>
<!-- Node3 -->
<g id="Node000003" class="node">
<title>Node3</title>
<g id="a_Node000003"><a xlink:title=" ">
<polygon fill="#e0e0e0" stroke="#999999" points="155,-19 111,-19 111,0 155,0 155,-19"/>
<text text-anchor="middle" x="133" y="-7" font-family="Helvetica,sans-Serif" font-size="10.00">string</text>
</a>
</g>
</g>
<!-- Node2&#45;&gt;Node3 -->
<g id="edge2_Node000002_Node000003" class="edge">
<title>Node2&#45;&gt;Node3</title>
<g id="a_edge2_Node000002_Node000003"><a xlink:title=" ">
<path fill="none" stroke="#63b8ff" d="M185.51,-439.94C138.92,-432.41 80.31,-420.13 62,-404 39.36,-384.06 38,-370.67 38,-340.5 38,-340.5 38,-340.5 38,-118.5 38,-88.33 42.89,-78.34 62,-55 72.86,-41.74 88.76,-31.26 102.76,-23.81"/>
<polygon fill="#63b8ff" stroke="#63b8ff" points="104.7,-26.75 112.07,-19.14 101.56,-20.5 104.7,-26.75"/>
</a>
</g>
</g>
<!-- Node4 -->
<g id="Node000004" class="node">
<title>Node4</title>
<g id="a_Node000004"><a xlink:href="expr_8h.html" target="_top" xlink:title=" ">
<polygon fill="white" stroke="#666666" points="460.5,-404 395.5,-404 395.5,-385 460.5,-385 460.5,-404"/>
<text text-anchor="middle" x="428" y="-392" font-family="Helvetica,sans-Serif" font-size="10.00">util/expr.h</text>
</a>
</g>
</g>
<!-- Node2&#45;&gt;Node4 -->
<g id="edge3_Node000002_Node000004" class="edge">
<title>Node2&#45;&gt;Node4</title>
<g id="a_edge3_Node000002_Node000004"><a xlink:title=" ">
<path fill="none" stroke="#63b8ff" d="M276.92,-439.98C307.27,-431.05 355.17,-416.94 388.88,-407.02"/>
<polygon fill="#63b8ff" stroke="#63b8ff" points="390.25,-410.26 398.85,-404.08 388.27,-403.55 390.25,-410.26"/>
</a>
</g>
</g>
<!-- Node5 -->
<g id="Node000005" class="node">
<title>Node5</title>
<g id="a_Node000005"><a xlink:href="as__const_8h.html" target="_top" xlink:title=" ">
<polygon fill="white" stroke="#666666" points="242,-19 174,-19 174,0 242,0 242,-19"/>
<text text-anchor="middle" x="208" y="-7" font-family="Helvetica,sans-Serif" font-size="10.00">as_const.h</text>
</a>
</g>
</g>
<!-- Node4&#45;&gt;Node5 -->
<g id="edge4_Node000004_Node000005" class="edge">
<title>Node4&#45;&gt;Node5</title>
<g id="a_edge4_Node000004_Node000005"><a xlink:title=" ">
<path fill="none" stroke="#63b8ff" d="M395.32,-386.85C337.06,-374.97 220.95,-351.11 217,-349 181.38,-329.96 152,-325.89 152,-285.5 152,-285.5 152,-285.5 152,-173.5 152,-118.09 181.3,-57.56 197.51,-28.31"/>
<polygon fill="#63b8ff" stroke="#63b8ff" points="200.72,-29.74 202.63,-19.32 194.64,-26.28 200.72,-29.74"/>
</a>
</g>
</g>
<!-- Node6 -->
<g id="Node000006" class="node">
<title>Node6</title>
<g id="a_Node000006"><a xlink:href="type_8h.html" target="_top" xlink:title="Defines typet, type_with_subtypet and type_with_subtypest.">
<polygon fill="white" stroke="#666666" points="451.5,-349 404.5,-349 404.5,-330 451.5,-330 451.5,-349"/>
<text text-anchor="middle" x="428" y="-337" font-family="Helvetica,sans-Serif" font-size="10.00">type.h</text>
</a>
</g>
</g>
<!-- Node4&#45;&gt;Node6 -->
<g id="edge5_Node000004_Node000006" class="edge">
<title>Node4&#45;&gt;Node6</title>
<g id="a_edge5_Node000004_Node000006"><a xlink:title=" ">
<path fill="none" stroke="#63b8ff" d="M428,-384.75C428,-377.8 428,-367.85 428,-359.13"/>
<polygon fill="#63b8ff" stroke="#63b8ff" points="431.5,-359.09 428,-349.09 424.5,-359.09 431.5,-359.09"/>
</a>
</g>
</g>
<!-- Node33 -->
<g id="Node000033" class="node">
<title>Node33</title>
<g id="a_Node000033"><a xlink:href="validation__mode_8h.html" target="_top" xlink:title=" ">
<polygon fill="white" stroke="#666666" points="491.5,-239 384.5,-239 384.5,-220 491.5,-220 491.5,-239"/>
<text text-anchor="middle" x="438" y="-227" font-family="Helvetica,sans-Serif" font-size="10.00">validation_mode.h</text>
</a>
</g>
</g>
<!-- Node4&#45;&gt;Node33 -->
<g id="edge31_Node000004_Node000033" class="edge">
<title>Node4&#45;&gt;Node33</title>
<g id="a_edge31_Node000004_Node000033"><a xlink:title=" ">
<path fill="none" stroke="#63b8ff" d="M395.3,-386.53C343.08,-375.29 246.08,-353.92 240,-349 212.91,-327.06 191.88,-301.94 214,-275 233.98,-250.67 315.37,-239.4 374.3,-234.35"/>
<polygon fill="#63b8ff" stroke="#63b8ff" points="374.6,-237.84 384.28,-233.53 374.03,-230.86 374.6,-237.84"/>
</a>
</g>
</g>
<!-- Node34 -->
<g id="Node000034" class="node">
<title>Node34</title>
<g id="a_Node000034"><a xlink:href="validate__types_8h.html" target="_top" xlink:title=" ">
<polygon fill="white" stroke="#666666" points="321,-294 223,-294 223,-275 321,-275 321,-294"/>
<text text-anchor="middle" x="272" y="-282" font-family="Helvetica,sans-Serif" font-size="10.00">validate_types.h</text>
</a>
</g>
</g>
<!-- Node4&#45;&gt;Node34 -->
<g id="edge30_Node000004_Node000034" class="edge">
<title>Node4&#45;&gt;Node34</title>
<g id="a_edge30_Node000004_Node000034"><a xlink:title=" ">
<path fill="none" stroke="#63b8ff" d="M395.2,-386.48C344.55,-375.49 252.59,-354.86 248,-349 237.15,-335.15 247.12,-315.85 257.31,-302.18"/>
<polygon fill="#63b8ff" stroke="#63b8ff" points="260.27,-304.09 263.83,-294.12 254.82,-299.69 260.27,-304.09"/>
</a>
</g>
</g>
<!-- Node35 -->
<g id="Node000035" class="node">
<title>Node35</title>
<g id="a_Node000035"><a xlink:href="validate__expressions_8h.html" target="_top" xlink:title=" ">
<polygon fill="white" stroke="#666666" points="386.5,-349 257.5,-349 257.5,-330 386.5,-330 386.5,-349"/>
<text text-anchor="middle" x="322" y="-337" font-family="Helvetica,sans-Serif" font-size="10.00">validate_expressions.h</text>
</a>
</g>
</g>
<!-- Node4&#45;&gt;Node35 -->
<g id="edge29_Node000004_Node000035" class="edge">
<title>Node4&#45;&gt;Node35</title>
<g id="a_edge29_Node000004_Node000035"><a xlink:title=" ">
<path fill="none" stroke="#63b8ff" d="M410.97,-384.98C394.07,-376.54 367.94,-363.47 348.36,-353.68"/>
<polygon fill="#63b8ff" stroke="#63b8ff" points="349.85,-350.51 339.34,-349.17 346.72,-356.77 349.85,-350.51"/>
</a>
</g>
</g>
<!-- Node36 -->
<g id="Node000036" class="node">
<title>Node36</title>
<g id="a_Node000036"><a xlink:title=" ">
<polygon fill="#e0e0e0" stroke="#999999" points="534.5,-349 469.5,-349 469.5,-330 534.5,-330 534.5,-349"/>
<text text-anchor="middle" x="502" y="-337" font-family="Helvetica,sans-Serif" font-size="10.00">functional</text>
</a>
</g>
</g>
<!-- Node4&#45;&gt;Node36 -->
<g id="edge32_Node000004_Node000036" class="edge">
<title>Node4&#45;&gt;Node36</title>
<g id="a_edge32_Node000004_Node000036"><a xlink:title=" ">
<path fill="none" stroke="#63b8ff" d="M439.89,-384.98C451.15,-376.92 468.29,-364.65 481.71,-355.03"/>
<polygon fill="#63b8ff" stroke="#63b8ff" points="483.8,-357.84 489.89,-349.17 479.73,-352.15 483.8,-357.84"/>
</a>
</g>
</g>
<!-- Node7 -->
<g id="Node000007" class="node">
<title>Node7</title>
<g id="a_Node000007"><a xlink:href="source__location_8h.html" target="_top" xlink:title=" ">
<polygon fill="white" stroke="#666666" points="414,-184 312,-184 312,-165 414,-165 414,-184"/>
<text text-anchor="middle" x="363" y="-172" font-family="Helvetica,sans-Serif" font-size="10.00">source_location.h</text>
</a>
</g>
</g>
<!-- Node6&#45;&gt;Node7 -->
<g id="edge6_Node000006_Node000007" class="edge">
<title>Node6&#45;&gt;Node7</title>
<g id="a_edge6_Node000006_Node000007"><a xlink:title=" ">
<path fill="none" stroke="#63b8ff" d="M422.39,-329.83C411.76,-313 388.61,-274.44 376,-239 370.81,-224.4 367.44,-207.14 365.44,-194.3"/>
<polygon fill="#63b8ff" stroke="#63b8ff" points="368.89,-193.74 364.02,-184.34 361.96,-194.73 368.89,-193.74"/>
</a>
</g>
</g>
<!-- Node31 -->
<g id="Node000031" class="node">
<title>Node31</title>
<g id="a_Node000031"><a xlink:href="validate_8h.html" target="_top" xlink:title=" ">
<polygon fill="white" stroke="#666666" points="592.5,-294 527.5,-294 527.5,-275 592.5,-275 592.5,-294"/>
<text text-anchor="middle" x="560" y="-282" font-family="Helvetica,sans-Serif" font-size="10.00">validate.h</text>
</a>
</g>
</g>
<!-- Node6&#45;&gt;Node31 -->
<g id="edge20_Node000006_Node000031" class="edge">
<title>Node6&#45;&gt;Node31</title>
<g id="a_edge20_Node000006_Node000031"><a xlink:title=" ">
<path fill="none" stroke="#63b8ff" d="M449.21,-329.98C470.73,-321.34 504.28,-307.87 528.83,-298.02"/>
<polygon fill="#63b8ff" stroke="#63b8ff" points="530.43,-301.14 538.41,-294.17 527.82,-294.65 530.43,-301.14"/>
</a>
</g>
</g>
<!-- Node6&#45;&gt;Node33 -->
<g id="edge28_Node000006_Node000033" class="edge">
<title>Node6&#45;&gt;Node33</title>
<g id="a_edge28_Node000006_Node000033"><a xlink:title=" ">
<path fill="none" stroke="#63b8ff" d="M428.82,-329.66C430.44,-312.17 434.08,-272.8 436.26,-249.27"/>
<polygon fill="#63b8ff" stroke="#63b8ff" points="439.76,-249.44 437.2,-239.16 432.79,-248.79 439.76,-249.44"/>
</a>
</g>
</g>
<!-- Node6&#45;&gt;Node34 -->
<g id="edge27_Node000006_Node000034" class="edge">
<title>Node6&#45;&gt;Node34</title>
<g id="a_edge27_Node000006_Node000034"><a xlink:title=" ">
<path fill="none" stroke="#63b8ff" d="M404.31,-330.45C378.35,-321.63 336.45,-307.4 306.77,-297.31"/>
<polygon fill="#63b8ff" stroke="#63b8ff" points="307.81,-293.97 297.21,-294.07 305.55,-300.6 307.81,-293.97"/>
</a>
</g>
</g>
<!-- Node7&#45;&gt;Node3 -->
<g id="edge19_Node000007_Node000003" class="edge">
<title>Node7&#45;&gt;Node3</title>
<g id="a_edge19_Node000007_Node000003"><a xlink:title=" ">
<path fill="none" stroke="#63b8ff" d="M342.65,-164.99C323.95,-156.81 295.75,-143.57 273,-129 224.09,-97.68 173.81,-50.84 148.94,-26.49"/>
<polygon fill="#63b8ff" stroke="#63b8ff" points="151.09,-23.69 141.52,-19.15 146.17,-28.67 151.09,-23.69"/>
</a>
</g>
</g>
<!-- Node8 -->
<g id="Node000008" class="node">
<title>Node8</title>
<g id="a_Node000008"><a xlink:href="deprecate_8h.html" target="_top" xlink:title=" ">
<polygon fill="white" stroke="#666666" points="492,-129 418,-129 418,-110 492,-110 492,-129"/>
<text text-anchor="middle" x="455" y="-117" font-family="Helvetica,sans-Serif" font-size="10.00">deprecate.h</text>
</a>
</g>
</g>
<!-- Node7&#45;&gt;Node8 -->
<g id="edge7_Node000007_Node000008" class="edge">
<title>Node7&#45;&gt;Node8</title>
<g id="a_edge7_Node000007_Node000008"><a xlink:title=" ">
<path fill="none" stroke="#63b8ff" d="M377.78,-164.98C392.18,-156.69 414.31,-143.94 431.19,-134.22"/>
<polygon fill="#63b8ff" stroke="#63b8ff" points="433.03,-137.19 439.95,-129.17 429.54,-131.13 433.03,-137.19"/>
</a>
</g>
</g>
<!-- Node9 -->
<g id="Node000009" class="node">
<title>Node9</title>
<g id="a_Node000009"><a xlink:href="irep_8h.html" target="_top" xlink:title=" ">
<polygon fill="white" stroke="#666666" points="326,-129 282,-129 282,-110 326,-110 326,-129"/>
<text text-anchor="middle" x="304" y="-117" font-family="Helvetica,sans-Serif" font-size="10.00">irep.h</text>
</a>
</g>
</g>
<!-- Node7&#45;&gt;Node9 -->
<g id="edge8_Node000007_Node000009" class="edge">
<title>Node7&#45;&gt;Node9</title>
<g id="a_edge8_Node000007_Node000009"><a xlink:title=" ">
<path fill="none" stroke="#63b8ff" d="M353.52,-164.98C344.8,-157.15 331.66,-145.34 321.1,-135.86"/>
<polygon fill="#63b8ff" stroke="#63b8ff" points="323.43,-133.25 313.65,-129.17 318.75,-138.46 323.43,-133.25"/>
</a>
</g>
</g>
<!-- Node30 -->
<g id="Node000030" class="node">
<title>Node30</title>
<g id="a_Node000030"><a xlink:title=" ">
<polygon fill="#e0e0e0" stroke="#999999" points="400,-129 344,-129 344,-110 400,-110 400,-129"/>
<text text-anchor="middle" x="372" y="-117" font-family="Helvetica,sans-Serif" font-size="10.00">optional</text>
</a>
</g>
</g>
<!-- Node7&#45;&gt;Node30 -->
<g id="edge18_Node000007_Node000030" class="edge">
<title>Node7&#45;&gt;Node30</title>
<g id="a_edge18_Node000007_Node000030"><a xlink:title=" ">
<path fill="none" stroke="#63b8ff" d="M364.49,-164.75C365.67,-157.8 367.36,-147.85 368.84,-139.13"/>
<polygon fill="#63b8ff" stroke="#63b8ff" points="372.32,-139.53 370.54,-129.09 365.42,-138.36 372.32,-139.53"/>
</a>
</g>
</g>
<!-- Node9&#45;&gt;Node3 -->
<g id="edge9_Node000009_Node000003" class="edge">
<title>Node9&#45;&gt;Node3</title>
<g id="a_edge9_Node000009_Node000003"><a xlink:title=" ">
<path fill="none" stroke="#63b8ff" d="M290.3,-109.84C260.9,-91.28 191.56,-47.49 155.57,-24.75"/>
<polygon fill="#63b8ff" stroke="#63b8ff" points="157.09,-21.58 146.77,-19.2 153.36,-27.5 157.09,-21.58"/>
</a>
</g>
</g>
<!-- Node10 -->
<g id="Node000010" class="node">
<title>Node10</title>
<g id="a_Node000010"><a xlink:title=" ">
<polygon fill="#e0e0e0" stroke="#999999" points="568.5,-74 521.5,-74 521.5,-55 568.5,-55 568.5,-74"/>
<text text-anchor="middle" x="545" y="-62" font-family="Helvetica,sans-Serif" font-size="10.00">vector</text>
</a>
</g>
</g>
<!-- Node9&#45;&gt;Node10 -->
<g id="edge10_Node000009_Node000010" class="edge">
<title>Node9&#45;&gt;Node10</title>
<g id="a_edge10_Node000009_Node000010"><a xlink:title=" ">
<path fill="none" stroke="#63b8ff" d="M326.3,-112.19C329.22,-111.42 332.18,-110.67 335,-110 410.45,-92.05 432.69,-92.32 511.39,-74.27"/>
<polygon fill="#63b8ff" stroke="#63b8ff" points="512.32,-77.64 521.27,-71.97 510.74,-70.82 512.32,-77.64"/>
</a>
</g>
</g>
<!-- Node11 -->
<g id="Node000011" class="node">
<title>Node11</title>
<g id="a_Node000011"><a xlink:href="src_2util_2invariant_8h.html" target="_top" xlink:title=" ">
<polygon fill="#fff0f0" stroke="red" points="694.5,-74 625.5,-74 625.5,-55 694.5,-55 694.5,-74"/>
<text text-anchor="middle" x="660" y="-62" font-family="Helvetica,sans-Serif" font-size="10.00">invariant.h</text>
</a>
</g>
</g>
<!-- Node9&#45;&gt;Node11 -->
<g id="edge11_Node000009_Node000011" class="edge">
<title>Node9&#45;&gt;Node11</title>
<g id="a_edge11_Node000009_Node000011"><a xlink:title=" ">
<path fill="none" stroke="#63b8ff" d="M326.27,-112.02C329.19,-111.28 332.16,-110.58 335,-110 387.62,-99.23 539.14,-80.17 615.25,-70.89"/>
<polygon fill="#63b8ff" stroke="#63b8ff" points="615.97,-74.33 625.47,-69.64 615.12,-67.38 615.97,-74.33"/>
</a>
</g>
</g>
<!-- Node15 -->
<g id="Node000015" class="node">
<title>Node15</title>
<g id="a_Node000015"><a xlink:href="irep__ids_8h.html" target="_top" xlink:title="util">
<polygon fill="#fff0f0" stroke="red" points="320,-74 256,-74 256,-55 320,-55 320,-74"/>
<text text-anchor="middle" x="288" y="-62" font-family="Helvetica,sans-Serif" font-size="10.00">irep_ids.h</text>
</a>
</g>
</g>
<!-- Node9&#45;&gt;Node15 -->
<g id="edge14_Node000009_Node000015" class="edge">
<title>Node9&#45;&gt;Node15</title>
<g id="a_edge14_Node000009_Node000015"><a xlink:title=" ">
<path fill="none" stroke="#63b8ff" d="M301.36,-109.75C299.24,-102.72 296.19,-92.62 293.54,-83.84"/>
<polygon fill="#63b8ff" stroke="#63b8ff" points="296.83,-82.65 290.59,-74.09 290.13,-84.67 296.83,-82.65"/>
</a>
</g>
</g>
<!-- Node26 -->
<g id="Node000026" class="node">
<title>Node26</title>
<g id="a_Node000026"><a xlink:href="forward__list__as__map_8h.html" target="_top" xlink:title=" ">
<polygon fill="#fff0f0" stroke="red" points="503.5,-74 376.5,-74 376.5,-55 503.5,-55 503.5,-74"/>
<text text-anchor="middle" x="440" y="-62" font-family="Helvetica,sans-Serif" font-size="10.00">forward_list_as_map.h</text>
</a>
</g>
</g>
<!-- Node9&#45;&gt;Node26 -->
<g id="edge15_Node000009_Node000026" class="edge">
<title>Node9&#45;&gt;Node26</title>
<g id="a_edge15_Node000009_Node000026"><a xlink:title=" ">
<path fill="none" stroke="#63b8ff" d="M325.85,-109.98C348.12,-101.3 382.9,-87.75 408.22,-77.88"/>
<polygon fill="#63b8ff" stroke="#63b8ff" points="409.71,-81.06 417.75,-74.17 407.16,-74.54 409.71,-81.06"/>
</a>
</g>
</g>
<!-- Node11&#45;&gt;Node3 -->
<g id="edge12_Node000011_Node000003" class="edge">
<title>Node11&#45;&gt;Node3</title>
<g id="a_edge12_Node000011_Node000003"><a xlink:title=" ">
<path fill="none" stroke="#63b8ff" d="M625.3,-59.78C610.7,-58.24 593.53,-56.48 578,-55 397.81,-37.81 348.22,-50.31 165.22,-18.68"/>
<polygon fill="#63b8ff" stroke="#63b8ff" points="165.72,-15.22 155.27,-16.94 164.52,-22.11 165.72,-15.22"/>
</a>
</g>
</g>
<!-- Node14 -->
<g id="Node000014" class="node">
<title>Node14</title>
<g id="a_Node000014"><a xlink:title=" ">
<polygon fill="#e0e0e0" stroke="#999999" points="757.5,-19 688.5,-19 688.5,0 757.5,0 757.5,-19"/>
<text text-anchor="middle" x="723" y="-7" font-family="Helvetica,sans-Serif" font-size="10.00">type_traits</text>
</a>
</g>
</g>
<!-- Node11&#45;&gt;Node14 -->
<g id="edge13_Node000011_Node000014" class="edge">
<title>Node11&#45;&gt;Node14</title>
<g id="a_edge13_Node000011_Node000014"><a xlink:title=" ">
<path fill="none" stroke="#63b8ff" d="M670.12,-54.98C679.44,-47.15 693.47,-35.34 704.74,-25.86"/>
<polygon fill="#63b8ff" stroke="#63b8ff" points="707.29,-28.29 712.69,-19.17 702.79,-22.93 707.29,-28.29"/>
</a>
</g>
</g>
<!-- Node26&#45;&gt;Node5 -->
<g id="edge17_Node000026_Node000005" class="edge">
<title>Node26&#45;&gt;Node5</title>
<g id="a_edge17_Node000026_Node000005"><a xlink:title=" ">
<path fill="none" stroke="#63b8ff" d="M402.73,-54.98C361.61,-45.59 295.51,-30.49 251.91,-20.53"/>
<polygon fill="#63b8ff" stroke="#63b8ff" points="252.69,-17.12 242.16,-18.3 251.13,-23.94 252.69,-17.12"/>
</a>
</g>
</g>
<!-- Node27 -->
<g id="Node000027" class="node">
<title>Node27</title>
<g id="a_Node000027"><a xlink:title=" ">
<polygon fill="#e0e0e0" stroke="#999999" points="550,-19 486,-19 486,0 550,0 550,-19"/>
<text text-anchor="middle" x="518" y="-7" font-family="Helvetica,sans-Serif" font-size="10.00">algorithm</text>
</a>
</g>
</g>
<!-- Node26&#45;&gt;Node27 -->
<g id="edge16_Node000026_Node000027" class="edge">
<title>Node26&#45;&gt;Node27</title>
<g id="a_edge16_Node000026_Node000027"><a xlink:title=" ">
<path fill="none" stroke="#63b8ff" d="M452.53,-54.98C464.4,-46.92 482.46,-34.65 496.61,-25.03"/>
<polygon fill="#63b8ff" stroke="#63b8ff" points="498.94,-27.69 505.24,-19.17 495,-21.9 498.94,-27.69"/>
</a>
</g>
</g>
<!-- Node31&#45;&gt;Node14 -->
<g id="edge21_Node000031_Node000014" class="edge">
<title>Node31&#45;&gt;Node14</title>
<g id="a_edge21_Node000031_Node000014"><a xlink:title=" ">
<path fill="none" stroke="#63b8ff" d="M574.82,-274.98C587.75,-266.97 606.35,-254.01 619,-239 675.08,-172.44 706.95,-70.68 718.26,-29.14"/>
<polygon fill="#63b8ff" stroke="#63b8ff" points="721.69,-29.87 720.85,-19.31 714.92,-28.08 721.69,-29.87"/>
</a>
</g>
</g>
<!-- Node32 -->
<g id="Node000032" class="node">
<title>Node32</title>
<g id="a_Node000032"><a xlink:href="exception__utils_8h.html" target="_top" xlink:title=" ">
<polygon fill="white" stroke="#666666" points="610,-239 510,-239 510,-220 610,-220 610,-239"/>
<text text-anchor="middle" x="560" y="-227" font-family="Helvetica,sans-Serif" font-size="10.00">exception_utils.h</text>
</a>
</g>
</g>
<!-- Node31&#45;&gt;Node32 -->
<g id="edge22_Node000031_Node000032" class="edge">
<title>Node31&#45;&gt;Node32</title>
<g id="a_edge22_Node000031_Node000032"><a xlink:title=" ">
<path fill="none" stroke="#63b8ff" d="M560,-274.75C560,-267.8 560,-257.85 560,-249.13"/>
<polygon fill="#63b8ff" stroke="#63b8ff" points="563.5,-249.09 560,-239.09 556.5,-249.09 563.5,-249.09"/>
</a>
</g>
</g>
<!-- Node31&#45;&gt;Node33 -->
<g id="edge26_Node000031_Node000033" class="edge">
<title>Node31&#45;&gt;Node33</title>
<g id="a_edge26_Node000031_Node000033"><a xlink:title=" ">
<path fill="none" stroke="#63b8ff" d="M540.4,-274.98C520.68,-266.42 490.05,-253.11 467.42,-243.28"/>
<polygon fill="#63b8ff" stroke="#63b8ff" points="468.52,-239.94 457.96,-239.17 465.74,-246.37 468.52,-239.94"/>
</a>
</g>
</g>
<!-- Node32&#45;&gt;Node3 -->
<g id="edge23_Node000032_Node000003" class="edge">
<title>Node32&#45;&gt;Node3</title>
<g id="a_edge23_Node000032_Node000003"><a xlink:title=" ">
<path fill="none" stroke="#63b8ff" d="M509.79,-221.29C440.33,-211.08 321.36,-192.7 303,-184 235.52,-152.02 225.58,-129.84 176,-74 163.2,-59.58 151.12,-41.15 143.04,-27.86"/>
<polygon fill="#63b8ff" stroke="#63b8ff" points="146.03,-26.04 137.91,-19.23 140.01,-29.61 146.03,-26.04"/>
</a>
</g>
</g>
<!-- Node32&#45;&gt;Node7 -->
<g id="edge25_Node000032_Node000007" class="edge">
<title>Node32&#45;&gt;Node7</title>
<g id="a_edge25_Node000032_Node000007"><a xlink:title=" ">
<path fill="none" stroke="#63b8ff" d="M528.35,-219.98C494.84,-210.97 441.8,-196.7 404.86,-186.76"/>
<polygon fill="#63b8ff" stroke="#63b8ff" points="405.47,-183.3 394.9,-184.08 403.65,-190.06 405.47,-183.3"/>
</a>
</g>
</g>
<!-- Node32&#45;&gt;Node11 -->
<g id="edge24_Node000032_Node000011" class="edge">
<title>Node32&#45;&gt;Node11</title>
<g id="a_edge24_Node000032_Node000011"><a xlink:title=" ">
<path fill="none" stroke="#63b8ff" d="M565.38,-219.74C581.25,-193.87 628.11,-117.48 649.34,-82.88"/>
<polygon fill="#63b8ff" stroke="#63b8ff" points="652.35,-84.66 654.6,-74.31 646.38,-81 652.35,-84.66"/>
</a>
</g>
</g>
<!-- Node37&#45;&gt;Node11 -->
<g id="edge34_Node000037_Node000011" class="edge">
<title>Node37&#45;&gt;Node11</title>
<g id="a_edge34_Node000037_Node000011"><a xlink:title=" ">
<path fill="none" stroke="#63b8ff" d="M577.14,-604.61C587.81,-591.68 608.89,-567.32 630,-550 712.03,-482.7 812,-501.6 812,-395.5 812,-395.5 812,-395.5 812,-338.5 812,-229.02 794.6,-190.13 720,-110 709.16,-98.35 694.92,-87.65 683.04,-79.65"/>
<polygon fill="#63b8ff" stroke="#63b8ff" points="684.79,-76.62 674.5,-74.1 680.98,-82.49 684.79,-76.62"/>
</a>
</g>
</g>
<!-- Node38 -->
<g id="Node000038" class="node">
<title>Node38</title>
<g id="a_Node000038"><a xlink:href="mp__arith_8h.html" target="_top" xlink:title=" ">
<polygon fill="white" stroke="#666666" points="399.5,-459 330.5,-459 330.5,-440 399.5,-440 399.5,-459"/>
<text text-anchor="middle" x="365" y="-447" font-family="Helvetica,sans-Serif" font-size="10.00">mp_arith.h</text>
</a>
</g>
</g>
<!-- Node37&#45;&gt;Node38 -->
<g id="edge35_Node000037_Node000038" class="edge">
<title>Node37&#45;&gt;Node38</title>
<g id="a_edge35_Node000037_Node000038"><a xlink:title=" ">
<path fill="none" stroke="#63b8ff" d="M559.27,-604.97C526.28,-578.74 426.07,-499.06 383.96,-465.58"/>
<polygon fill="#63b8ff" stroke="#63b8ff" points="386.13,-462.83 376.12,-459.34 381.77,-468.31 386.13,-462.83"/>
</a>
</g>
</g>
<!-- Node40 -->
<g id="Node000040" class="node">
<title>Node40</title>
<g id="a_Node000040"><a xlink:href="std__expr_8h.html" target="_top" xlink:title="API to expression classes.">
<polygon fill="white" stroke="#666666" points="824.5,-569 757.5,-569 757.5,-550 824.5,-550 824.5,-569"/>
<text text-anchor="middle" x="791" y="-557" font-family="Helvetica,sans-Serif" font-size="10.00">std_expr.h</text>
</a>
</g>
</g>
<!-- Node37&#45;&gt;Node40 -->
<g id="edge39_Node000037_Node000040" class="edge">
<title>Node37&#45;&gt;Node40</title>
<g id="a_edge39_Node000037_Node000040"><a xlink:title=" ">
<path fill="none" stroke="#63b8ff" d="M605.51,-604.98C644.17,-595.71 706.03,-580.88 747.56,-570.92"/>
<polygon fill="#63b8ff" stroke="#63b8ff" points="748.48,-574.3 757.39,-568.56 746.85,-567.49 748.48,-574.3"/>
</a>
</g>
</g>
<!-- Node44 -->
<g id="Node000044" class="node">
<title>Node44</title>
<g id="a_Node000044"><a xlink:title=" ">
<polygon fill="#e0e0e0" stroke="#999999" points="582,-569 538,-569 538,-550 582,-550 582,-569"/>
<text text-anchor="middle" x="560" y="-557" font-family="Helvetica,sans-Serif" font-size="10.00">limits</text>
</a>
</g>
</g>
<!-- Node37&#45;&gt;Node44 -->
<g id="edge54_Node000037_Node000044" class="edge">
<title>Node37&#45;&gt;Node44</title>
<g id="a_edge54_Node000037_Node000044"><a xlink:title=" ">
<path fill="none" stroke="#63b8ff" d="M568.35,-604.75C567.04,-597.8 565.16,-587.85 563.52,-579.13"/>
<polygon fill="#63b8ff" stroke="#63b8ff" points="566.91,-578.27 561.62,-569.09 560.04,-579.56 566.91,-578.27"/>
</a>
</g>
</g>
<!-- Node38&#45;&gt;Node3 -->
<g id="edge37_Node000038_Node000003" class="edge">
<title>Node38&#45;&gt;Node3</title>
<g id="a_edge37_Node000038_Node000003"><a xlink:title=" ">
<path fill="none" stroke="#63b8ff" d="M330.46,-440.53C298.27,-432.68 249.19,-419.61 208,-404 147.12,-380.93 76,-405.6 76,-340.5 76,-340.5 76,-340.5 76,-118.5 76,-82.51 101.06,-46.76 117.95,-26.76"/>
<polygon fill="#63b8ff" stroke="#63b8ff" points="120.62,-29.02 124.59,-19.2 115.36,-24.4 120.62,-29.02"/>
</a>
</g>
</g>
<!-- Node17 -->
<g id="Node000017" class="node">
<title>Node17</title>
<g id="a_Node000017"><a xlink:title=" ">
<polygon fill="#e0e0e0" stroke="#999999" points="265,-404 217,-404 217,-385 265,-385 265,-404"/>
<text text-anchor="middle" x="241" y="-392" font-family="Helvetica,sans-Serif" font-size="10.00">iosfwd</text>
</a>
</g>
</g>
<!-- Node38&#45;&gt;Node17 -->
<g id="edge36_Node000038_Node000017" class="edge">
<title>Node38&#45;&gt;Node17</title>
<g id="a_edge36_Node000038_Node000017"><a xlink:title=" ">
<path fill="none" stroke="#63b8ff" d="M345.08,-439.98C324.95,-431.38 293.62,-417.99 270.59,-408.15"/>
<polygon fill="#63b8ff" stroke="#63b8ff" points="271.86,-404.88 261.29,-404.17 269.1,-411.32 271.86,-404.88"/>
</a>
</g>
</g>
<!-- Node39 -->
<g id="Node000039" class="node">
<title>Node39</title>
<g id="a_Node000039"><a xlink:title=" ">
<polygon fill="#e0e0e0" stroke="#999999" points="377,-404 283,-404 283,-385 377,-385 377,-404"/>
<text text-anchor="middle" x="330" y="-392" font-family="Helvetica,sans-Serif" font-size="10.00">big&#45;int/bigint.hh</text>
</a>
</g>
</g>
<!-- Node38&#45;&gt;Node39 -->
<g id="edge38_Node000038_Node000039" class="edge">
<title>Node38&#45;&gt;Node39</title>
<g id="a_edge38_Node000038_Node000039"><a xlink:title=" ">
<path fill="none" stroke="#63b8ff" d="M359.22,-439.75C354.38,-432.42 347.32,-421.73 341.36,-412.7"/>
<polygon fill="#63b8ff" stroke="#63b8ff" points="344.1,-410.5 335.67,-404.09 338.26,-414.36 344.1,-410.5"/>
</a>
</g>
</g>
<!-- Node40&#45;&gt;Node11 -->
<g id="edge46_Node000040_Node000011" class="edge">
<title>Node40&#45;&gt;Node11</title>
<g id="a_edge46_Node000040_Node000011"><a xlink:title=" ">
<path fill="none" stroke="#63b8ff" d="M799.71,-549.86C816.12,-532.6 850,-491.95 850,-450.5 850,-450.5 850,-450.5 850,-393.5 850,-313.57 926,-310.43 926,-230.5 926,-230.5 926,-230.5 926,-173.5 926,-143.33 925.16,-129.34 902,-110 872.71,-85.54 766.43,-73.55 704.89,-68.53"/>
<polygon fill="#63b8ff" stroke="#63b8ff" points="704.93,-65.03 694.68,-67.73 704.38,-72 704.93,-65.03"/>
</a>
</g>
</g>
<!-- Node41 -->
<g id="Node000041" class="node">
<title>Node41</title>
<g id="a_Node000041"><a xlink:href="expr__cast_8h.html" target="_top" xlink:title="Templated functions to cast to specific exprt&#45;derived classes.">
<polygon fill="white" stroke="#666666" points="745.5,-459 672.5,-459 672.5,-440 745.5,-440 745.5,-459"/>
<text text-anchor="middle" x="709" y="-447" font-family="Helvetica,sans-Serif" font-size="10.00">expr_cast.h</text>
</a>
</g>
</g>
<!-- Node40&#45;&gt;Node41 -->
<g id="edge40_Node000040_Node000041" class="edge">
<title>Node40&#45;&gt;Node41</title>
<g id="a_edge40_Node000040_Node000041"><a xlink:title=" ">
<path fill="none" stroke="#63b8ff" d="M784.29,-549.66C770.65,-531.69 739.48,-490.64 721.82,-467.38"/>
<polygon fill="#63b8ff" stroke="#63b8ff" points="724.41,-465.01 715.57,-459.16 718.83,-469.24 724.41,-465.01"/>
</a>
</g>
</g>
<!-- Node43 -->
<g id="Node000043" class="node">
<title>Node43</title>
<g id="a_Node000043"><a xlink:href="std__types_8h.html" target="_top" xlink:title="Pre&#45;defined types.">
<polygon fill="white" stroke="#666666" points="670.5,-514 597.5,-514 597.5,-495 670.5,-495 670.5,-514"/>
<text text-anchor="middle" x="634" y="-502" font-family="Helvetica,sans-Serif" font-size="10.00">std_types.h</text>
</a>
</g>
</g>
<!-- Node40&#45;&gt;Node43 -->
<g id="edge47_Node000040_Node000043" class="edge">
<title>Node40&#45;&gt;Node43</title>
<g id="a_edge47_Node000040_Node000043"><a xlink:title=" ">
<path fill="none" stroke="#63b8ff" d="M765.78,-549.98C739.64,-541.16 698.6,-527.31 669.27,-517.41"/>
<polygon fill="#63b8ff" stroke="#63b8ff" points="670.02,-513.96 659.42,-514.08 667.78,-520.6 670.02,-513.96"/>
</a>
</g>
</g>
<!-- Node41&#45;&gt;Node4 -->
<g id="edge45_Node000041_Node000004" class="edge">
<title>Node41&#45;&gt;Node4</title>
<g id="a_edge45_Node000041_Node000004"><a xlink:title=" ">
<path fill="none" stroke="#63b8ff" d="M672.16,-441.54C669.4,-441.02 666.66,-440.5 664,-440 596.44,-427.25 517.99,-412.46 470.72,-403.55"/>
<polygon fill="#63b8ff" stroke="#63b8ff" points="471.31,-400.1 460.83,-401.69 470.01,-406.98 471.31,-400.1"/>
</a>
</g>
</g>
<!-- Node41&#45;&gt;Node11 -->
<g id="edge44_Node000041_Node000011" class="edge">
<title>Node41&#45;&gt;Node11</title>
<g id="a_edge44_Node000041_Node000011"><a xlink:title=" ">
<path fill="none" stroke="#63b8ff" d="M701.98,-439.87C688.43,-422.3 660,-380.65 660,-340.5 660,-340.5 660,-340.5 660,-173.5 660,-142.19 660,-105.77 660,-84.23"/>
<polygon fill="#63b8ff" stroke="#63b8ff" points="663.5,-84.18 660,-74.18 656.5,-84.18 663.5,-84.18"/>
</a>
</g>
</g>
<!-- Node41&#45;&gt;Node14 -->
<g id="edge42_Node000041_Node000014" class="edge">
<title>Node41&#45;&gt;Node14</title>
<g id="a_edge42_Node000041_Node000014"><a xlink:title=" ">
<path fill="none" stroke="#63b8ff" d="M712.75,-439.73C720.17,-421.56 736,-378.38 736,-340.5 736,-340.5 736,-340.5 736,-228.5 736,-154.63 728.47,-66.92 724.87,-29.23"/>
<polygon fill="#63b8ff" stroke="#63b8ff" points="728.35,-28.82 723.89,-19.21 721.38,-29.5 728.35,-28.82"/>
</a>
</g>
</g>
<!-- Node41&#45;&gt;Node36 -->
<g id="edge43_Node000041_Node000036" class="edge">
<title>Node41&#45;&gt;Node36</title>
<g id="a_edge43_Node000041_Node000036"><a xlink:title=" ">
<path fill="none" stroke="#63b8ff" d="M675.26,-439.99C639.13,-430.53 584.49,-415.12 566,-404 545.56,-391.71 526.78,-371.55 514.92,-357.25"/>
<polygon fill="#63b8ff" stroke="#63b8ff" points="517.47,-354.83 508.48,-349.22 512.01,-359.21 517.47,-354.83"/>
</a>
</g>
</g>
<!-- Node42 -->
<g id="Node000042" class="node">
<title>Node42</title>
<g id="a_Node000042"><a xlink:title=" ">
<polygon fill="#e0e0e0" stroke="#999999" points="631.5,-404 574.5,-404 574.5,-385 631.5,-385 631.5,-404"/>
<text text-anchor="middle" x="603" y="-392" font-family="Helvetica,sans-Serif" font-size="10.00">typeinfo</text>
</a>
</g>
</g>
<!-- Node41&#45;&gt;Node42 -->
<g id="edge41_Node000041_Node000042" class="edge">
<title>Node41&#45;&gt;Node42</title>
<g id="a_edge41_Node000041_Node000042"><a xlink:title=" ">
<path fill="none" stroke="#63b8ff" d="M691.97,-439.98C675.07,-431.54 648.94,-418.47 629.36,-408.68"/>
<polygon fill="#63b8ff" stroke="#63b8ff" points="630.85,-405.51 620.34,-404.17 627.72,-411.77 630.85,-405.51"/>
</a>
</g>
</g>
<!-- Node43&#45;&gt;Node4 -->
<g id="edge48_Node000043_Node000004" class="edge">
<title>Node43&#45;&gt;Node4</title>
<g id="a_edge48_Node000043_Node000004"><a xlink:title=" ">
<path fill="none" stroke="#63b8ff" d="M606.23,-494.85C582.42,-486.94 547.53,-474.19 519,-459 492.5,-444.89 464.54,-424.43 446.72,-410.58"/>
<polygon fill="#63b8ff" stroke="#63b8ff" points="448.41,-407.45 438.39,-404 444.07,-412.94 448.41,-407.45"/>
</a>
</g>
</g>
<!-- Node43&#45;&gt;Node11 -->
<g id="edge50_Node000043_Node000011" class="edge">
<title>Node43&#45;&gt;Node11</title>
<g id="a_edge50_Node000043_Node000011"><a xlink:title=" ">
<path fill="none" stroke="#63b8ff" d="M670.54,-498.88C697.4,-493.63 732.92,-482.48 755,-459 775.18,-437.54 774,-424.96 774,-395.5 774,-395.5 774,-395.5 774,-283.5 774,-199.64 706.93,-116.17 675.68,-81.83"/>
<polygon fill="#63b8ff" stroke="#63b8ff" points="677.94,-79.12 668.57,-74.19 672.82,-83.89 677.94,-79.12"/>
</a>
</g>
</g>
<!-- Node43&#45;&gt;Node31 -->
<g id="edge52_Node000043_Node000031" class="edge">
<title>Node43&#45;&gt;Node31</title>
<g id="a_edge52_Node000043_Node000031"><a xlink:title=" ">
<path fill="none" stroke="#63b8ff" d="M602.58,-494.97C584.66,-488.32 563.7,-477.09 553,-459 537.81,-433.32 550.29,-343.64 556.74,-304.27"/>
<polygon fill="#63b8ff" stroke="#63b8ff" points="560.19,-304.84 558.4,-294.39 553.29,-303.67 560.19,-304.84"/>
</a>
</g>
</g>
<!-- Node43&#45;&gt;Node38 -->
<g id="edge51_Node000043_Node000038" class="edge">
<title>Node43&#45;&gt;Node38</title>
<g id="a_edge51_Node000043_Node000038"><a xlink:title=" ">
<path fill="none" stroke="#63b8ff" d="M597.44,-496.3C548.69,-486.69 462.44,-469.7 409.83,-459.33"/>
<polygon fill="#63b8ff" stroke="#63b8ff" points="410.26,-455.85 399.77,-457.35 408.91,-462.72 410.26,-455.85"/>
</a>
</g>
</g>
<!-- Node43&#45;&gt;Node41 -->
<g id="edge49_Node000043_Node000041" class="edge">
<title>Node43&#45;&gt;Node41</title>
<g id="a_edge49_Node000043_Node000041"><a xlink:title=" ">
<path fill="none" stroke="#63b8ff" d="M646.05,-494.98C657.46,-486.92 674.83,-474.65 688.43,-465.03"/>
<polygon fill="#63b8ff" stroke="#63b8ff" points="690.58,-467.8 696.73,-459.17 686.54,-462.08 690.58,-467.8"/>
</a>
</g>
</g>
<!-- Node22 -->
<g id="Node000022" class="node">
<title>Node22</title>
<g id="a_Node000022"><a xlink:title=" ">
<polygon fill="#e0e0e0" stroke="#999999" points="654.5,-459 561.5,-459 561.5,-440 654.5,-440 654.5,-459"/>
<text text-anchor="middle" x="608" y="-447" font-family="Helvetica,sans-Serif" font-size="10.00">unordered_map</text>
</a>
</g>
</g>
<!-- Node43&#45;&gt;Node22 -->
<g id="edge53_Node000043_Node000022" class="edge">
<title>Node43&#45;&gt;Node22</title>
<g id="a_edge53_Node000043_Node000022"><a xlink:title=" ">
<path fill="none" stroke="#63b8ff" d="M629.71,-494.75C626.19,-487.57 621.09,-477.18 616.72,-468.27"/>
<polygon fill="#63b8ff" stroke="#63b8ff" points="619.76,-466.53 612.21,-459.09 613.48,-469.61 619.76,-466.53"/>
</a>
</g>
</g>
<!-- Node45&#45;&gt;Node8 -->
<g id="edge56_Node000045_Node000008" class="edge">
<title>Node45&#45;&gt;Node8</title>
<g id="a_edge56_Node000045_Node000008"><a xlink:title=" ">
<path fill="none" stroke="#63b8ff" d="M720.09,-663.72C769.31,-657.19 847.78,-643.97 869,-624 890.45,-603.81 888,-589.96 888,-560.5 888,-560.5 888,-560.5 888,-393.5 888,-298.67 587.06,-172.22 486.95,-132.77"/>
<polygon fill="#63b8ff" stroke="#63b8ff" points="487.96,-129.41 477.37,-129.02 485.4,-135.93 487.96,-129.41"/>
</a>
</g>
</g>
<!-- Node46 -->
<g id="Node000046" class="node">
<title>Node46</title>
<g id="a_Node000046"><a xlink:href="pointer__expr_8h.html" target="_top" xlink:title="API to expression classes for Pointers.">
<polygon fill="white" stroke="#666666" points="722,-624 636,-624 636,-605 722,-605 722,-624"/>
<text text-anchor="middle" x="679" y="-612" font-family="Helvetica,sans-Serif" font-size="10.00">pointer_expr.h</text>
</a>
</g>
</g>
<!-- Node45&#45;&gt;Node46 -->
<g id="edge57_Node000045_Node000046" class="edge">
<title>Node45&#45;&gt;Node46</title>
<g id="a_edge57_Node000045_Node000046"><a xlink:title=" ">
<path fill="none" stroke="#63b8ff" d="M679,-659.75C679,-652.8 679,-642.85 679,-634.13"/>
<polygon fill="#63b8ff" stroke="#63b8ff" points="682.5,-634.09 679,-624.09 675.5,-634.09 682.5,-634.09"/>
</a>
</g>
</g>
<!-- Node46&#45;&gt;Node40 -->
<g id="edge60_Node000046_Node000040" class="edge">
<title>Node46&#45;&gt;Node40</title>
<g id="a_edge60_Node000046_Node000040"><a xlink:title=" ">
<path fill="none" stroke="#63b8ff" d="M696.99,-604.98C714.93,-596.5 742.72,-583.35 763.43,-573.54"/>
<polygon fill="#63b8ff" stroke="#63b8ff" points="765.14,-576.61 772.68,-569.17 762.14,-570.28 765.14,-576.61"/>
</a>
</g>
</g>
<!-- Node47 -->
<g id="Node000047" class="node">
<title>Node47</title>
<g id="a_Node000047"><a xlink:href="bitvector__types_8h.html" target="_top" xlink:title="Pre&#45;defined bitvector types.">
<polygon fill="white" stroke="#666666" points="739.5,-569 638.5,-569 638.5,-550 739.5,-550 739.5,-569"/>
<text text-anchor="middle" x="689" y="-557" font-family="Helvetica,sans-Serif" font-size="10.00">bitvector_types.h</text>
</a>
</g>
</g>
<!-- Node46&#45;&gt;Node47 -->
<g id="edge58_Node000046_Node000047" class="edge">
<title>Node46&#45;&gt;Node47</title>
<g id="a_edge58_Node000046_Node000047"><a xlink:title=" ">
<path fill="none" stroke="#63b8ff" d="M680.65,-604.75C681.96,-597.8 683.84,-587.85 685.48,-579.13"/>
<polygon fill="#63b8ff" stroke="#63b8ff" points="688.96,-579.56 687.38,-569.09 682.09,-578.27 688.96,-579.56"/>
</a>
</g>
</g>
<!-- Node47&#45;&gt;Node43 -->
<g id="edge59_Node000047_Node000043" class="edge">
<title>Node47&#45;&gt;Node43</title>
<g id="a_edge59_Node000047_Node000043"><a xlink:title=" ">
<path fill="none" stroke="#63b8ff" d="M679.92,-549.75C671.91,-542.03 660.04,-530.6 650.38,-521.28"/>
<polygon fill="#63b8ff" stroke="#63b8ff" points="652.54,-518.51 642.91,-514.09 647.69,-523.55 652.54,-518.51"/>
</a>
</g>
</g>
<!-- Node48&#45;&gt;Node3 -->
<g id="edge63_Node000048_Node000003" class="edge">
<title>Node48&#45;&gt;Node3</title>
<g id="a_edge63_Node000048_Node000003"><a xlink:title=" ">
<path fill="none" stroke="#63b8ff" d="M510.43,-111.31C472.4,-104.08 414.95,-91.49 367,-74 349.26,-67.53 346.8,-61.29 329,-55 258.64,-30.12 237.52,-36.58 165,-19 164.9,-18.98 164.8,-18.95 164.7,-18.93"/>
<polygon fill="#63b8ff" stroke="#63b8ff" points="165.55,-15.53 155,-16.48 163.84,-22.32 165.55,-15.53"/>
</a>
</g>
</g>
<!-- Node48&#45;&gt;Node10 -->
<g id="edge64_Node000048_Node000010" class="edge">
<title>Node48&#45;&gt;Node10</title>
<g id="a_edge64_Node000048_Node000010"><a xlink:title=" ">
<path fill="none" stroke="#63b8ff" d="M550.84,-109.75C549.93,-102.8 548.61,-92.85 547.46,-84.13"/>
<polygon fill="#63b8ff" stroke="#63b8ff" points="550.91,-83.54 546.13,-74.09 543.97,-84.46 550.91,-83.54"/>
</a>
</g>
</g>
<!-- Node48&#45;&gt;Node27 -->
<g id="edge62_Node000048_Node000027" class="edge">
<title>Node48&#45;&gt;Node27</title>
<g id="a_edge62_Node000048_Node000027"><a xlink:title=" ">
<path fill="none" stroke="#63b8ff" d="M560.43,-109.68C571.24,-97.24 587.53,-73.94 578,-55 571.31,-41.71 558.56,-31.39 546.53,-24.05"/>
<polygon fill="#63b8ff" stroke="#63b8ff" points="548.01,-20.87 537.58,-19.02 544.58,-26.97 548.01,-20.87"/>
</a>
</g>
</g>
<!-- Node49&#45;&gt;Node40 -->
<g id="edge66_Node000049_Node000040" class="edge">
<title>Node49&#45;&gt;Node40</title>
<g id="a_edge66_Node000049_Node000040"><a xlink:title=" ">
<path fill="none" stroke="#63b8ff" d="M798.51,-604.75C797.33,-597.8 795.64,-587.85 794.16,-579.13"/>
<polygon fill="#63b8ff" stroke="#63b8ff" points="797.58,-578.36 792.46,-569.09 790.68,-579.53 797.58,-578.36"/>
</a>
</g>
</g>
<!-- Node50&#45;&gt;Node3 -->
<g id="edge68_Node000050_Node000003" class="edge">
<title>Node50&#45;&gt;Node3</title>
<g id="a_edge68_Node000050_Node000003"><a xlink:title=" ">
<path fill="none" stroke="#63b8ff" d="M56.82,-494.83C38.08,-477.84 0,-438.09 0,-395.5 0,-395.5 0,-395.5 0,-118.5 0,-66.54 61.93,-35.2 101.28,-20.54"/>
<polygon fill="#63b8ff" stroke="#63b8ff" points="102.49,-23.82 110.74,-17.17 100.14,-17.23 102.49,-23.82"/>
</a>
</g>
</g>
</g>
</svg>
