<?xml version="1.0" encoding="UTF-8" standalone="no"?>
<!DOCTYPE svg PUBLIC "-//W3C//DTD SVG 1.1//EN"
 "http://www.w3.org/Graphics/SVG/1.1/DTD/svg11.dtd">
<!-- Generated by graphviz version 2.43.0 (0)
 -->
<!-- Title: /home/runner/work/cbmc/cbmc/src/goto&#45;checker/cover_goals_report_util.h Pages: 1 -->
<svg width="329pt" height="214pt"
 viewBox="0.00 0.00 329.00 214.00" xmlns="http://www.w3.org/2000/svg" xmlns:xlink="http://www.w3.org/1999/xlink">
<g id="graph0" class="graph" transform="scale(1 1) rotate(0) translate(4 210)">
<title>/home/runner/work/cbmc/cbmc/src/goto&#45;checker/cover_goals_report_util.h</title>
<!-- Node1 -->
<g id="Node000001" class="node">
<title>Node1</title>
<g id="a_Node000001"><a xlink:title="Cover Goals Reporting Utilities.">
<polygon fill="#999999" stroke="#666666" points="231.5,-206 88.5,-206 88.5,-165 231.5,-165 231.5,-206"/>
<text text-anchor="start" x="96.5" y="-194" font-family="Helvetica,sans-Serif" font-size="10.00">/home/runner/work/cbmc</text>
<text text-anchor="start" x="96.5" y="-183" font-family="Helvetica,sans-Serif" font-size="10.00">/cbmc/src/goto&#45;checker</text>
<text text-anchor="middle" x="160" y="-172" font-family="Helvetica,sans-Serif" font-size="10.00">/cover_goals_report_util.h</text>
</a>
</g>
</g>
<!-- Node2 -->
<g id="Node000002" class="node">
<title>Node2</title>
<g id="a_Node000002"><a xlink:href="cover__goals__report__util_8cpp.html" target="_top" xlink:title="Cover Goals Reporting Utilities.">
<polygon fill="white" stroke="#666666" points="154,-123.5 0,-123.5 0,-82.5 154,-82.5 154,-123.5"/>
<text text-anchor="start" x="8" y="-111.5" font-family="Helvetica,sans-Serif" font-size="10.00">/home/runner/work/cbmc</text>
<text text-anchor="start" x="8" y="-100.5" font-family="Helvetica,sans-Serif" font-size="10.00">/cbmc/src/goto&#45;checker</text>
<text text-anchor="middle" x="77" y="-89.5" font-family="Helvetica,sans-Serif" font-size="10.00">/cover_goals_report_util.cpp</text>
</a>
</g>
</g>
<!-- Node1&#45;&gt;Node2 -->
<g id="edge1_Node000001_Node000002" class="edge">
<title>Node1&#45;&gt;Node2</title>
<g id="a_edge1_Node000001_Node000002"><a xlink:title=" ">
<path fill="none" stroke="#63b8ff" d="M132.24,-157.57C120.8,-146.48 107.8,-133.87 97.28,-123.67"/>
<polygon fill="#63b8ff" stroke="#63b8ff" points="129.87,-160.15 139.48,-164.6 134.74,-155.13 129.87,-160.15"/>
</a>
</g>
</g>
<!-- Node3 -->
<g id="Node000003" class="node">
<title>Node3</title>
<g id="a_Node000003"><a xlink:href="cover__goals__verifier__with__trace__storage_8h.html" target="_top" xlink:title="Goto verifier for covering goals that stores traces.">
<polygon fill="white" stroke="#666666" points="316,-129 172,-129 172,-77 316,-77 316,-129"/>
<text text-anchor="start" x="180" y="-117" font-family="Helvetica,sans-Serif" font-size="10.00">/home/runner/work/cbmc</text>
<text text-anchor="start" x="180" y="-106" font-family="Helvetica,sans-Serif" font-size="10.00">/cbmc/src/goto&#45;checker</text>
<text text-anchor="start" x="180" y="-95" font-family="Helvetica,sans-Serif" font-size="10.00">/cover_goals_verifier_with</text>
<text text-anchor="middle" x="244" y="-84" font-family="Helvetica,sans-Serif" font-size="10.00">_trace_storage.h</text>
</a>
</g>
</g>
<!-- Node1&#45;&gt;Node3 -->
<g id="edge2_Node000001_Node000003" class="edge">
<title>Node1&#45;&gt;Node3</title>
<g id="a_edge2_Node000001_Node000003"><a xlink:title=" ">
<path fill="none" stroke="#63b8ff" d="M188.15,-157.52C197.71,-148.36 208.35,-138.17 217.75,-129.16"/>
<polygon fill="#63b8ff" stroke="#63b8ff" points="185.56,-155.16 180.76,-164.6 190.41,-160.21 185.56,-155.16"/>
</a>
</g>
</g>
<!-- Node4 -->
<g id="Node000004" class="node">
<title>Node4</title>
<g id="a_Node000004"><a xlink:href="cbmc__parse__options_8cpp.html" target="_top" xlink:title="CBMC Command Line Option Processing.">
<polygon fill="white" stroke="#666666" points="321,-41 167,-41 167,0 321,0 321,-41"/>
<text text-anchor="start" x="175" y="-29" font-family="Helvetica,sans-Serif" font-size="10.00">/home/runner/work/cbmc</text>
<text text-anchor="start" x="175" y="-18" font-family="Helvetica,sans-Serif" font-size="10.00">/cbmc/src/cbmc/cbmc_parse</text>
<text text-anchor="middle" x="244" y="-7" font-family="Helvetica,sans-Serif" font-size="10.00">_options.cpp</text>
</a>
</g>
</g>
<!-- Node3&#45;&gt;Node4 -->
<g id="edge3_Node000003_Node000004" class="edge">
<title>Node3&#45;&gt;Node4</title>
<g id="a_edge3_Node000003_Node000004"><a xlink:title=" ">
<path fill="none" stroke="#63b8ff" d="M244,-66.87C244,-58.05 244,-48.9 244,-41.15"/>
<polygon fill="#63b8ff" stroke="#63b8ff" points="240.5,-66.97 244,-76.97 247.5,-66.97 240.5,-66.97"/>
</a>
</g>
</g>
</g>
</svg>
