<?xml version="1.0" encoding="UTF-8" standalone="no"?>
<!DOCTYPE svg PUBLIC "-//W3C//DTD SVG 1.1//EN"
 "http://www.w3.org/Graphics/SVG/1.1/DTD/svg11.dtd">
<!-- Generated by graphviz version 2.43.0 (0)
 -->
<!-- Title: /home/runner/work/cbmc/cbmc/src/goto&#45;instrument/cover_instrument_other.cpp Pages: 1 -->
<svg width="1342pt" height="500pt"
 viewBox="0.00 0.00 1341.50 500.00" xmlns="http://www.w3.org/2000/svg" xmlns:xlink="http://www.w3.org/1999/xlink">
<g id="graph0" class="graph" transform="scale(1 1) rotate(0) translate(4 496)">
<title>/home/runner/work/cbmc/cbmc/src/goto&#45;instrument/cover_instrument_other.cpp</title>
<!-- Node1 -->
<g id="Node000001" class="node">
<title>Node1</title>
<g id="a_Node000001"><a xlink:title="Further coverage instrumentations.">
<polygon fill="#999999" stroke="#666666" points="728.5,-492 573.5,-492 573.5,-451 728.5,-451 728.5,-492"/>
<text text-anchor="start" x="581.5" y="-480" font-family="Helvetica,sans-Serif" font-size="10.00">/home/runner/work/cbmc</text>
<text text-anchor="start" x="581.5" y="-469" font-family="Helvetica,sans-Serif" font-size="10.00">/cbmc/src/goto&#45;instrument</text>
<text text-anchor="middle" x="651" y="-458" font-family="Helvetica,sans-Serif" font-size="10.00">/cover_instrument_other.cpp</text>
</a>
</g>
</g>
<!-- Node2 -->
<g id="Node000002" class="node">
<title>Node2</title>
<g id="a_Node000002"><a xlink:href="cover__instrument_8h.html" target="_top" xlink:title="Coverage Instrumentation.">
<polygon fill="white" stroke="#666666" points="474.5,-415 363.5,-415 363.5,-396 474.5,-396 474.5,-415"/>
<text text-anchor="middle" x="419" y="-403" font-family="Helvetica,sans-Serif" font-size="10.00">cover_instrument.h</text>
</a>
</g>
</g>
<!-- Node1&#45;&gt;Node2 -->
<g id="edge1_Node000001_Node000002" class="edge">
<title>Node1&#45;&gt;Node2</title>
<g id="a_edge1_Node000001_Node000002"><a xlink:title=" ">
<path fill="none" stroke="#63b8ff" d="M580.13,-450.95C540.64,-440.06 492.89,-426.88 459.66,-417.72"/>
<polygon fill="#63b8ff" stroke="#63b8ff" points="460.41,-414.29 449.84,-415.01 458.55,-421.04 460.41,-414.29"/>
</a>
</g>
</g>
<!-- Node24 -->
<g id="Node000024" class="node">
<title>Node24</title>
<g id="a_Node000024"><a xlink:title=" ">
<polygon fill="#e0e0e0" stroke="#999999" points="559,-129 495,-129 495,-110 559,-110 559,-129"/>
<text text-anchor="middle" x="527" y="-117" font-family="Helvetica,sans-Serif" font-size="10.00">algorithm</text>
</a>
</g>
</g>
<!-- Node1&#45;&gt;Node24 -->
<g id="edge72_Node000001_Node000024" class="edge">
<title>Node1&#45;&gt;Node24</title>
<g id="a_edge72_Node000001_Node000024"><a xlink:title=" ">
<path fill="none" stroke="#63b8ff" d="M690.29,-450.87C725.62,-430.12 772,-393.77 772,-346 772,-346 772,-346 772,-283.5 772,-232.36 622.13,-161.5 556.82,-133.06"/>
<polygon fill="#63b8ff" stroke="#63b8ff" points="558.04,-129.77 547.47,-129.02 555.26,-136.2 558.04,-129.77"/>
</a>
</g>
</g>
<!-- Node50 -->
<g id="Node000050" class="node">
<title>Node50</title>
<g id="a_Node000050"><a xlink:href="cprover__prefix_8h.html" target="_top" xlink:title=" ">
<polygon fill="white" stroke="#666666" points="914,-415 800,-415 800,-396 914,-396 914,-415"/>
<text text-anchor="middle" x="857" y="-403" font-family="Helvetica,sans-Serif" font-size="10.00">util/cprover_prefix.h</text>
</a>
</g>
</g>
<!-- Node1&#45;&gt;Node50 -->
<g id="edge69_Node000001_Node000050" class="edge">
<title>Node1&#45;&gt;Node50</title>
<g id="a_edge69_Node000001_Node000050"><a xlink:title=" ">
<path fill="none" stroke="#63b8ff" d="M713.93,-450.95C748.54,-440.2 790.3,-427.22 819.75,-418.07"/>
<polygon fill="#63b8ff" stroke="#63b8ff" points="821.1,-421.32 829.61,-415.01 819.03,-414.63 821.1,-421.32"/>
</a>
</g>
</g>
<!-- Node51 -->
<g id="Node000051" class="node">
<title>Node51</title>
<g id="a_Node000051"><a xlink:href="language__util_8h.html" target="_top" xlink:title=" ">
<polygon fill="white" stroke="#666666" points="515.5,-354.5 384.5,-354.5 384.5,-335.5 515.5,-335.5 515.5,-354.5"/>
<text text-anchor="middle" x="450" y="-342.5" font-family="Helvetica,sans-Serif" font-size="10.00">langapi/language_util.h</text>
</a>
</g>
</g>
<!-- Node1&#45;&gt;Node51 -->
<g id="edge70_Node000001_Node000051" class="edge">
<title>Node1&#45;&gt;Node51</title>
<g id="a_edge70_Node000001_Node000051"><a xlink:title=" ">
<path fill="none" stroke="#63b8ff" d="M619.15,-450.77C578.3,-425.47 508.47,-382.21 472.65,-360.03"/>
<polygon fill="#63b8ff" stroke="#63b8ff" points="474.25,-356.9 463.91,-354.61 470.56,-362.85 474.25,-356.9"/>
</a>
</g>
</g>
<!-- Node3 -->
<g id="Node000003" class="node">
<title>Node3</title>
<g id="a_Node000003"><a xlink:href="namespace_8h.html" target="_top" xlink:title=" ">
<polygon fill="white" stroke="#666666" points="416.5,-294 315.5,-294 315.5,-275 416.5,-275 416.5,-294"/>
<text text-anchor="middle" x="366" y="-282" font-family="Helvetica,sans-Serif" font-size="10.00">util/namespace.h</text>
</a>
</g>
</g>
<!-- Node2&#45;&gt;Node3 -->
<g id="edge2_Node000002_Node000003" class="edge">
<title>Node2&#45;&gt;Node3</title>
<g id="a_edge2_Node000002_Node000003"><a xlink:title=" ">
<path fill="none" stroke="#63b8ff" d="M363.48,-398.04C339.51,-392.18 313.66,-381.07 299,-360 291.39,-349.05 292.7,-341.75 299,-330 306.51,-316 320.57,-305.66 333.88,-298.48"/>
<polygon fill="#63b8ff" stroke="#63b8ff" points="335.48,-301.6 342.89,-294.02 332.37,-295.33 335.48,-301.6"/>
</a>
</g>
</g>
<!-- Node28 -->
<g id="Node000028" class="node">
<title>Node28</title>
<g id="a_Node000028"><a xlink:href="goto__program_8h.html" target="_top" xlink:title="Concrete Goto Program.">
<polygon fill="white" stroke="#666666" points="646.5,-360 533.5,-360 533.5,-330 646.5,-330 646.5,-360"/>
<text text-anchor="start" x="541.5" y="-348" font-family="Helvetica,sans-Serif" font-size="10.00">goto&#45;programs/goto</text>
<text text-anchor="middle" x="590" y="-337" font-family="Helvetica,sans-Serif" font-size="10.00">_program.h</text>
</a>
</g>
</g>
<!-- Node2&#45;&gt;Node28 -->
<g id="edge30_Node000002_Node000028" class="edge">
<title>Node2&#45;&gt;Node28</title>
<g id="a_edge30_Node000002_Node000028"><a xlink:title=" ">
<path fill="none" stroke="#63b8ff" d="M443.86,-395.99C468.8,-387.46 507.9,-374.09 539.39,-363.32"/>
<polygon fill="#63b8ff" stroke="#63b8ff" points="540.56,-366.61 548.89,-360.06 538.29,-359.99 540.56,-366.61"/>
</a>
</g>
</g>
<!-- Node49 -->
<g id="Node000049" class="node">
<title>Node49</title>
<g id="a_Node000049"><a xlink:title=" ">
<polygon fill="#e0e0e0" stroke="#999999" points="366,-354.5 308,-354.5 308,-335.5 366,-335.5 366,-354.5"/>
<text text-anchor="middle" x="337" y="-342.5" font-family="Helvetica,sans-Serif" font-size="10.00">memory</text>
</a>
</g>
</g>
<!-- Node2&#45;&gt;Node49 -->
<g id="edge68_Node000002_Node000049" class="edge">
<title>Node2&#45;&gt;Node49</title>
<g id="a_edge68_Node000002_Node000049"><a xlink:title=" ">
<path fill="none" stroke="#63b8ff" d="M406.9,-395.87C393.94,-386.62 373.14,-371.78 357.6,-360.69"/>
<polygon fill="#63b8ff" stroke="#63b8ff" points="359.32,-357.63 349.15,-354.67 355.26,-363.32 359.32,-357.63"/>
</a>
</g>
</g>
<!-- Node4 -->
<g id="Node000004" class="node">
<title>Node4</title>
<g id="a_Node000004"><a xlink:href="deprecate_8h.html" target="_top" xlink:title=" ">
<polygon fill="white" stroke="#666666" points="367,-239 293,-239 293,-220 367,-220 367,-239"/>
<text text-anchor="middle" x="330" y="-227" font-family="Helvetica,sans-Serif" font-size="10.00">deprecate.h</text>
</a>
</g>
</g>
<!-- Node3&#45;&gt;Node4 -->
<g id="edge3_Node000003_Node000004" class="edge">
<title>Node3&#45;&gt;Node4</title>
<g id="a_edge3_Node000003_Node000004"><a xlink:title=" ">
<path fill="none" stroke="#63b8ff" d="M360.06,-274.75C355.02,-267.34 347.66,-256.5 341.49,-247.41"/>
<polygon fill="#63b8ff" stroke="#63b8ff" points="344.35,-245.39 335.83,-239.09 338.56,-249.33 344.35,-245.39"/>
</a>
</g>
</g>
<!-- Node5 -->
<g id="Node000005" class="node">
<title>Node5</title>
<g id="a_Node000005"><a xlink:href="src_2util_2invariant_8h.html" target="_top" xlink:title=" ">
<polygon fill="white" stroke="#666666" points="1041.5,-74 972.5,-74 972.5,-55 1041.5,-55 1041.5,-74"/>
<text text-anchor="middle" x="1007" y="-62" font-family="Helvetica,sans-Serif" font-size="10.00">invariant.h</text>
</a>
</g>
</g>
<!-- Node3&#45;&gt;Node5 -->
<g id="edge4_Node000003_Node000005" class="edge">
<title>Node3&#45;&gt;Node5</title>
<g id="a_edge4_Node000003_Node000005"><a xlink:title=" ">
<path fill="none" stroke="#63b8ff" d="M416.81,-278.9C536.07,-267.38 830.15,-234.55 914,-184 935.22,-171.21 975.98,-112.43 995.73,-82.75"/>
<polygon fill="#63b8ff" stroke="#63b8ff" points="998.76,-84.5 1001.35,-74.23 992.92,-80.65 998.76,-84.5"/>
</a>
</g>
</g>
<!-- Node10 -->
<g id="Node000010" class="node">
<title>Node10</title>
<g id="a_Node000010"><a xlink:href="irep_8h.html" target="_top" xlink:title=" ">
<polygon fill="white" stroke="#666666" points="444,-239 400,-239 400,-220 444,-220 444,-239"/>
<text text-anchor="middle" x="422" y="-227" font-family="Helvetica,sans-Serif" font-size="10.00">irep.h</text>
</a>
</g>
</g>
<!-- Node3&#45;&gt;Node10 -->
<g id="edge9_Node000003_Node000010" class="edge">
<title>Node3&#45;&gt;Node10</title>
<g id="a_edge9_Node000003_Node000010"><a xlink:title=" ">
<path fill="none" stroke="#63b8ff" d="M375,-274.98C383.19,-267.23 395.51,-255.58 405.47,-246.14"/>
<polygon fill="#63b8ff" stroke="#63b8ff" points="407.98,-248.59 412.84,-239.17 403.17,-243.5 407.98,-248.59"/>
</a>
</g>
</g>
<!-- Node6 -->
<g id="Node000006" class="node">
<title>Node6</title>
<g id="a_Node000006"><a xlink:title=" ">
<polygon fill="#e0e0e0" stroke="#999999" points="1052.5,-19 1003.5,-19 1003.5,0 1052.5,0 1052.5,-19"/>
<text text-anchor="middle" x="1028" y="-7" font-family="Helvetica,sans-Serif" font-size="10.00">cstdlib</text>
</a>
</g>
</g>
<!-- Node5&#45;&gt;Node6 -->
<g id="edge5_Node000005_Node000006" class="edge">
<title>Node5&#45;&gt;Node6</title>
<g id="a_edge5_Node000005_Node000006"><a xlink:title=" ">
<path fill="none" stroke="#63b8ff" d="M1010.47,-54.75C1013.28,-47.65 1017.34,-37.4 1020.85,-28.56"/>
<polygon fill="#63b8ff" stroke="#63b8ff" points="1024.17,-29.68 1024.6,-19.09 1017.66,-27.1 1024.17,-29.68"/>
</a>
</g>
</g>
<!-- Node7 -->
<g id="Node000007" class="node">
<title>Node7</title>
<g id="a_Node000007"><a xlink:title=" ">
<polygon fill="#e0e0e0" stroke="#999999" points="899,-19 843,-19 843,0 899,0 899,-19"/>
<text text-anchor="middle" x="871" y="-7" font-family="Helvetica,sans-Serif" font-size="10.00">sstream</text>
</a>
</g>
</g>
<!-- Node5&#45;&gt;Node7 -->
<g id="edge6_Node000005_Node000007" class="edge">
<title>Node5&#45;&gt;Node7</title>
<g id="a_edge6_Node000005_Node000007"><a xlink:title=" ">
<path fill="none" stroke="#63b8ff" d="M985.15,-54.98C962.88,-46.3 928.1,-32.75 902.78,-22.88"/>
<polygon fill="#63b8ff" stroke="#63b8ff" points="903.84,-19.54 893.25,-19.17 901.29,-26.06 903.84,-19.54"/>
</a>
</g>
</g>
<!-- Node8 -->
<g id="Node000008" class="node">
<title>Node8</title>
<g id="a_Node000008"><a xlink:title=" ">
<polygon fill="#e0e0e0" stroke="#999999" points="425,-19 381,-19 381,0 425,0 425,-19"/>
<text text-anchor="middle" x="403" y="-7" font-family="Helvetica,sans-Serif" font-size="10.00">string</text>
</a>
</g>
</g>
<!-- Node5&#45;&gt;Node8 -->
<g id="edge7_Node000005_Node000008" class="edge">
<title>Node5&#45;&gt;Node8</title>
<g id="a_edge7_Node000005_Node000008"><a xlink:title=" ">
<path fill="none" stroke="#63b8ff" d="M972.36,-60.46C865.11,-51.05 539.51,-22.48 435.39,-13.34"/>
<polygon fill="#63b8ff" stroke="#63b8ff" points="435.45,-9.83 425.18,-12.45 434.84,-16.81 435.45,-9.83"/>
</a>
</g>
</g>
<!-- Node9 -->
<g id="Node000009" class="node">
<title>Node9</title>
<g id="a_Node000009"><a xlink:title=" ">
<polygon fill="#e0e0e0" stroke="#999999" points="1180.5,-19 1111.5,-19 1111.5,0 1180.5,0 1180.5,-19"/>
<text text-anchor="middle" x="1146" y="-7" font-family="Helvetica,sans-Serif" font-size="10.00">type_traits</text>
</a>
</g>
</g>
<!-- Node5&#45;&gt;Node9 -->
<g id="edge8_Node000005_Node000009" class="edge">
<title>Node5&#45;&gt;Node9</title>
<g id="a_edge8_Node000005_Node000009"><a xlink:title=" ">
<path fill="none" stroke="#63b8ff" d="M1029.33,-54.98C1052.2,-46.27 1087.96,-32.63 1113.86,-22.75"/>
<polygon fill="#63b8ff" stroke="#63b8ff" points="1115.16,-26 1123.26,-19.17 1112.67,-19.46 1115.16,-26"/>
</a>
</g>
</g>
<!-- Node10&#45;&gt;Node5 -->
<g id="edge12_Node000010_Node000005" class="edge">
<title>Node10&#45;&gt;Node5</title>
<g id="a_edge12_Node000010_Node000005"><a xlink:title=" ">
<path fill="none" stroke="#63b8ff" d="M444.18,-228.73C526.31,-229.24 812.32,-227.78 890,-184 925.7,-163.88 915.78,-138.73 945,-110 956.67,-98.52 971.51,-87.76 983.75,-79.7"/>
<polygon fill="#63b8ff" stroke="#63b8ff" points="985.97,-82.43 992.5,-74.09 982.19,-76.54 985.97,-82.43"/>
</a>
</g>
</g>
<!-- Node10&#45;&gt;Node8 -->
<g id="edge10_Node000010_Node000008" class="edge">
<title>Node10&#45;&gt;Node8</title>
<g id="a_edge10_Node000010_Node000008"><a xlink:title=" ">
<path fill="none" stroke="#63b8ff" d="M421.26,-219.95C418.47,-187.95 408.59,-74.68 404.65,-29.4"/>
<polygon fill="#63b8ff" stroke="#63b8ff" points="408.12,-28.88 403.76,-19.22 401.14,-29.49 408.12,-28.88"/>
</a>
</g>
</g>
<!-- Node11 -->
<g id="Node000011" class="node">
<title>Node11</title>
<g id="a_Node000011"><a xlink:title=" ">
<polygon fill="#e0e0e0" stroke="#999999" points="127.5,-19 80.5,-19 80.5,0 127.5,0 127.5,-19"/>
<text text-anchor="middle" x="104" y="-7" font-family="Helvetica,sans-Serif" font-size="10.00">vector</text>
</a>
</g>
</g>
<!-- Node10&#45;&gt;Node11 -->
<g id="edge11_Node000010_Node000011" class="edge">
<title>Node10&#45;&gt;Node11</title>
<g id="a_edge11_Node000010_Node000011"><a xlink:title=" ">
<path fill="none" stroke="#63b8ff" d="M399.86,-222.55C327.26,-202.53 98.69,-135.47 58,-74 46.67,-56.89 64.63,-37.92 81.32,-25.2"/>
<polygon fill="#63b8ff" stroke="#63b8ff" points="83.66,-27.83 89.76,-19.17 79.59,-22.13 83.66,-27.83"/>
</a>
</g>
</g>
<!-- Node12 -->
<g id="Node000012" class="node">
<title>Node12</title>
<g id="a_Node000012"><a xlink:href="irep__ids_8h.html" target="_top" xlink:title="util">
<polygon fill="white" stroke="#666666" points="396,-184 332,-184 332,-165 396,-165 396,-184"/>
<text text-anchor="middle" x="364" y="-172" font-family="Helvetica,sans-Serif" font-size="10.00">irep_ids.h</text>
</a>
</g>
</g>
<!-- Node10&#45;&gt;Node12 -->
<g id="edge13_Node000010_Node000012" class="edge">
<title>Node10&#45;&gt;Node12</title>
<g id="a_edge13_Node000010_Node000012"><a xlink:title=" ">
<path fill="none" stroke="#63b8ff" d="M412.68,-219.98C404.19,-212.23 391.44,-200.58 381.12,-191.14"/>
<polygon fill="#63b8ff" stroke="#63b8ff" points="383.23,-188.33 373.49,-184.17 378.51,-193.5 383.23,-188.33"/>
</a>
</g>
</g>
<!-- Node23 -->
<g id="Node000023" class="node">
<title>Node23</title>
<g id="a_Node000023"><a xlink:href="forward__list__as__map_8h.html" target="_top" xlink:title=" ">
<polygon fill="white" stroke="#666666" points="880.5,-184 753.5,-184 753.5,-165 880.5,-165 880.5,-184"/>
<text text-anchor="middle" x="817" y="-172" font-family="Helvetica,sans-Serif" font-size="10.00">forward_list_as_map.h</text>
</a>
</g>
</g>
<!-- Node10&#45;&gt;Node23 -->
<g id="edge23_Node000010_Node000023" class="edge">
<title>Node10&#45;&gt;Node23</title>
<g id="a_edge23_Node000010_Node000023"><a xlink:title=" ">
<path fill="none" stroke="#63b8ff" d="M444.08,-225.54C500.46,-217.97 651.7,-197.68 743.33,-185.38"/>
<polygon fill="#63b8ff" stroke="#63b8ff" points="743.93,-188.84 753.38,-184.04 743,-181.9 743.93,-188.84"/>
</a>
</g>
</g>
<!-- Node13 -->
<g id="Node000013" class="node">
<title>Node13</title>
<g id="a_Node000013"><a xlink:href="dstring_8h.html" target="_top" xlink:title="Container for C&#45;Strings.">
<polygon fill="white" stroke="#666666" points="308.5,-129 249.5,-129 249.5,-110 308.5,-110 308.5,-129"/>
<text text-anchor="middle" x="279" y="-117" font-family="Helvetica,sans-Serif" font-size="10.00">dstring.h</text>
</a>
</g>
</g>
<!-- Node12&#45;&gt;Node13 -->
<g id="edge14_Node000012_Node000013" class="edge">
<title>Node12&#45;&gt;Node13</title>
<g id="a_edge14_Node000012_Node000013"><a xlink:title=" ">
<path fill="none" stroke="#63b8ff" d="M350.34,-164.98C337.16,-156.77 316.97,-144.18 301.43,-134.49"/>
<polygon fill="#63b8ff" stroke="#63b8ff" points="303.24,-131.49 292.91,-129.17 299.54,-137.43 303.24,-131.49"/>
</a>
</g>
</g>
<!-- Node22 -->
<g id="Node000022" class="node">
<title>Node22</title>
<g id="a_Node000022"><a xlink:title=" ">
<polygon fill="#e0e0e0" stroke="#999999" points="401,-129 327,-129 327,-110 401,-110 401,-129"/>
<text text-anchor="middle" x="364" y="-117" font-family="Helvetica,sans-Serif" font-size="10.00">irep_ids.def</text>
</a>
</g>
</g>
<!-- Node12&#45;&gt;Node22 -->
<g id="edge22_Node000012_Node000022" class="edge">
<title>Node12&#45;&gt;Node22</title>
<g id="a_edge22_Node000012_Node000022"><a xlink:title=" ">
<path fill="none" stroke="#63b8ff" d="M364,-164.75C364,-157.8 364,-147.85 364,-139.13"/>
<polygon fill="#63b8ff" stroke="#63b8ff" points="367.5,-139.09 364,-129.09 360.5,-139.09 367.5,-139.09"/>
</a>
</g>
</g>
<!-- Node13&#45;&gt;Node8 -->
<g id="edge16_Node000013_Node000008" class="edge">
<title>Node13&#45;&gt;Node8</title>
<g id="a_edge16_Node000013_Node000008"><a xlink:title=" ">
<path fill="none" stroke="#63b8ff" d="M289.15,-109.66C310.23,-91.3 359.01,-48.81 385.36,-25.87"/>
<polygon fill="#63b8ff" stroke="#63b8ff" points="387.82,-28.37 393.06,-19.16 383.22,-23.09 387.82,-28.37"/>
</a>
</g>
</g>
<!-- Node14 -->
<g id="Node000014" class="node">
<title>Node14</title>
<g id="a_Node000014"><a xlink:title=" ">
<polygon fill="#e0e0e0" stroke="#999999" points="505,-74 457,-74 457,-55 505,-55 505,-74"/>
<text text-anchor="middle" x="481" y="-62" font-family="Helvetica,sans-Serif" font-size="10.00">iosfwd</text>
</a>
</g>
</g>
<!-- Node13&#45;&gt;Node14 -->
<g id="edge15_Node000013_Node000014" class="edge">
<title>Node13&#45;&gt;Node14</title>
<g id="a_edge15_Node000013_Node000014"><a xlink:title=" ">
<path fill="none" stroke="#63b8ff" d="M308.81,-110.68C345.68,-101.01 408.31,-84.57 447.01,-74.42"/>
<polygon fill="#63b8ff" stroke="#63b8ff" points="447.99,-77.78 456.78,-71.86 446.22,-71.01 447.99,-77.78"/>
</a>
</g>
</g>
<!-- Node15 -->
<g id="Node000015" class="node">
<title>Node15</title>
<g id="a_Node000015"><a xlink:href="magic_8h.html" target="_top" xlink:title="Magic numbers used throughout the codebase.">
<polygon fill="#fff0f0" stroke="red" points="321,-74 265,-74 265,-55 321,-55 321,-74"/>
<text text-anchor="middle" x="293" y="-62" font-family="Helvetica,sans-Serif" font-size="10.00">magic.h</text>
</a>
</g>
</g>
<!-- Node13&#45;&gt;Node15 -->
<g id="edge17_Node000013_Node000015" class="edge">
<title>Node13&#45;&gt;Node15</title>
<g id="a_edge17_Node000013_Node000015"><a xlink:title=" ">
<path fill="none" stroke="#63b8ff" d="M281.31,-109.75C283.17,-102.72 285.84,-92.62 288.15,-83.84"/>
<polygon fill="#63b8ff" stroke="#63b8ff" points="291.56,-84.65 290.73,-74.09 284.79,-82.86 291.56,-84.65"/>
</a>
</g>
</g>
<!-- Node17 -->
<g id="Node000017" class="node">
<title>Node17</title>
<g id="a_Node000017"><a xlink:href="string__container_8h.html" target="_top" xlink:title="Container for C&#45;Strings.">
<polygon fill="#fff0f0" stroke="red" points="171,-74 67,-74 67,-55 171,-55 171,-74"/>
<text text-anchor="middle" x="119" y="-62" font-family="Helvetica,sans-Serif" font-size="10.00">string_container.h</text>
</a>
</g>
</g>
<!-- Node13&#45;&gt;Node17 -->
<g id="edge18_Node000013_Node000017" class="edge">
<title>Node13&#45;&gt;Node17</title>
<g id="a_edge18_Node000013_Node000017"><a xlink:title=" ">
<path fill="none" stroke="#63b8ff" d="M253.29,-109.98C226.55,-101.13 184.47,-87.19 154.55,-77.28"/>
<polygon fill="#63b8ff" stroke="#63b8ff" points="155.5,-73.9 144.91,-74.08 153.3,-80.55 155.5,-73.9"/>
</a>
</g>
</g>
<!-- Node17&#45;&gt;Node11 -->
<g id="edge21_Node000017_Node000011" class="edge">
<title>Node17&#45;&gt;Node11</title>
<g id="a_edge21_Node000017_Node000011"><a xlink:title=" ">
<path fill="none" stroke="#63b8ff" d="M116.52,-54.75C114.54,-47.72 111.68,-37.62 109.19,-28.84"/>
<polygon fill="#63b8ff" stroke="#63b8ff" points="112.52,-27.76 106.43,-19.09 105.79,-29.66 112.52,-27.76"/>
</a>
</g>
</g>
<!-- Node18 -->
<g id="Node000018" class="node">
<title>Node18</title>
<g id="a_Node000018"><a xlink:title=" ">
<polygon fill="#e0e0e0" stroke="#999999" points="32,-19 0,-19 0,0 32,0 32,-19"/>
<text text-anchor="middle" x="16" y="-7" font-family="Helvetica,sans-Serif" font-size="10.00">list</text>
</a>
</g>
</g>
<!-- Node17&#45;&gt;Node18 -->
<g id="edge19_Node000017_Node000018" class="edge">
<title>Node17&#45;&gt;Node18</title>
<g id="a_edge19_Node000017_Node000018"><a xlink:title=" ">
<path fill="none" stroke="#63b8ff" d="M102.45,-54.98C85.91,-46.47 60.26,-33.28 41.19,-23.46"/>
<polygon fill="#63b8ff" stroke="#63b8ff" points="42.66,-20.28 32.17,-18.82 39.46,-26.51 42.66,-20.28"/>
</a>
</g>
</g>
<!-- Node19 -->
<g id="Node000019" class="node">
<title>Node19</title>
<g id="a_Node000019"><a xlink:title=" ">
<polygon fill="#e0e0e0" stroke="#999999" points="321.5,-19 228.5,-19 228.5,0 321.5,0 321.5,-19"/>
<text text-anchor="middle" x="275" y="-7" font-family="Helvetica,sans-Serif" font-size="10.00">unordered_map</text>
</a>
</g>
</g>
<!-- Node17&#45;&gt;Node19 -->
<g id="edge20_Node000017_Node000019" class="edge">
<title>Node17&#45;&gt;Node19</title>
<g id="a_edge20_Node000017_Node000019"><a xlink:title=" ">
<path fill="none" stroke="#63b8ff" d="M144.06,-54.98C170.03,-46.16 210.81,-32.31 239.96,-22.41"/>
<polygon fill="#63b8ff" stroke="#63b8ff" points="241.4,-25.61 249.74,-19.08 239.15,-18.99 241.4,-25.61"/>
</a>
</g>
</g>
<!-- Node23&#45;&gt;Node24 -->
<g id="edge24_Node000023_Node000024" class="edge">
<title>Node23&#45;&gt;Node24</title>
<g id="a_edge24_Node000023_Node000024"><a xlink:title=" ">
<path fill="none" stroke="#63b8ff" d="M766.85,-164.96C718.67,-156.65 643.57,-143.47 569.22,-129.19"/>
<polygon fill="#63b8ff" stroke="#63b8ff" points="569.69,-125.72 559.21,-127.27 568.37,-132.59 569.69,-125.72"/>
</a>
</g>
</g>
<!-- Node25 -->
<g id="Node000025" class="node">
<title>Node25</title>
<g id="a_Node000025"><a xlink:title=" ">
<polygon fill="#e0e0e0" stroke="#999999" points="651,-129 577,-129 577,-110 651,-110 651,-129"/>
<text text-anchor="middle" x="614" y="-117" font-family="Helvetica,sans-Serif" font-size="10.00">forward_list</text>
</a>
</g>
</g>
<!-- Node23&#45;&gt;Node25 -->
<g id="edge25_Node000023_Node000025" class="edge">
<title>Node23&#45;&gt;Node25</title>
<g id="a_edge25_Node000023_Node000025"><a xlink:title=" ">
<path fill="none" stroke="#63b8ff" d="M784.38,-164.98C749.71,-155.93 694.74,-141.58 656.65,-131.64"/>
<polygon fill="#63b8ff" stroke="#63b8ff" points="657.43,-128.22 646.87,-129.08 655.66,-134.99 657.43,-128.22"/>
</a>
</g>
</g>
<!-- Node26 -->
<g id="Node000026" class="node">
<title>Node26</title>
<g id="a_Node000026"><a xlink:href="as__const_8h.html" target="_top" xlink:title=" ">
<polygon fill="white" stroke="#666666" points="985,-19 917,-19 917,0 985,0 985,-19"/>
<text text-anchor="middle" x="951" y="-7" font-family="Helvetica,sans-Serif" font-size="10.00">as_const.h</text>
</a>
</g>
</g>
<!-- Node23&#45;&gt;Node26 -->
<g id="edge26_Node000023_Node000026" class="edge">
<title>Node23&#45;&gt;Node26</title>
<g id="a_edge26_Node000023_Node000026"><a xlink:title=" ">
<path fill="none" stroke="#63b8ff" d="M815.92,-164.65C814.77,-151.75 814.29,-127.44 824,-110 846.5,-69.59 892.81,-39.91 922.86,-23.94"/>
<polygon fill="#63b8ff" stroke="#63b8ff" points="924.7,-26.92 931.99,-19.23 921.5,-20.7 924.7,-26.92"/>
</a>
</g>
</g>
<!-- Node27 -->
<g id="Node000027" class="node">
<title>Node27</title>
<g id="a_Node000027"><a xlink:href="narrow_8h.html" target="_top" xlink:title=" ">
<polygon fill="white" stroke="#666666" points="892.5,-129 833.5,-129 833.5,-110 892.5,-110 892.5,-129"/>
<text text-anchor="middle" x="863" y="-117" font-family="Helvetica,sans-Serif" font-size="10.00">narrow.h</text>
</a>
</g>
</g>
<!-- Node23&#45;&gt;Node27 -->
<g id="edge27_Node000023_Node000027" class="edge">
<title>Node23&#45;&gt;Node27</title>
<g id="a_edge27_Node000023_Node000027"><a xlink:title=" ">
<path fill="none" stroke="#63b8ff" d="M824.6,-164.75C831.16,-157.18 840.82,-146.05 848.81,-136.84"/>
<polygon fill="#63b8ff" stroke="#63b8ff" points="851.63,-138.94 855.55,-129.09 846.35,-134.35 851.63,-138.94"/>
</a>
</g>
</g>
<!-- Node27&#45;&gt;Node5 -->
<g id="edge29_Node000027_Node000005" class="edge">
<title>Node27&#45;&gt;Node5</title>
<g id="a_edge29_Node000027_Node000005"><a xlink:title=" ">
<path fill="none" stroke="#63b8ff" d="M886.14,-109.98C909.82,-101.27 946.87,-87.63 973.71,-77.75"/>
<polygon fill="#63b8ff" stroke="#63b8ff" points="975.27,-80.91 983.44,-74.17 972.85,-74.34 975.27,-80.91"/>
</a>
</g>
</g>
<!-- Node27&#45;&gt;Node9 -->
<g id="edge28_Node000027_Node000009" class="edge">
<title>Node27&#45;&gt;Node9</title>
<g id="a_edge28_Node000027_Node000009"><a xlink:title=" ">
<path fill="none" stroke="#63b8ff" d="M874.15,-109.78C892.08,-96.16 928.91,-69.86 964,-55 1008.9,-35.99 1063.62,-23.98 1101.27,-17.3"/>
<polygon fill="#63b8ff" stroke="#63b8ff" points="1102.15,-20.7 1111.41,-15.55 1100.96,-13.8 1102.15,-20.7"/>
</a>
</g>
</g>
<!-- Node28&#45;&gt;Node5 -->
<g id="edge31_Node000028_Node000005" class="edge">
<title>Node28&#45;&gt;Node5</title>
<g id="a_edge31_Node000028_Node000005"><a xlink:title=" ">
<path fill="none" stroke="#63b8ff" d="M637,-329.99C707.5,-307.38 842.51,-257.81 938,-184 962.99,-164.69 967.21,-156.35 983,-129 991.29,-114.65 997.71,-96.9 1001.82,-83.82"/>
<polygon fill="#63b8ff" stroke="#63b8ff" points="1005.21,-84.69 1004.71,-74.11 998.5,-82.69 1005.21,-84.69"/>
</a>
</g>
</g>
<!-- Node28&#45;&gt;Node8 -->
<g id="edge67_Node000028_Node000008" class="edge">
<title>Node28&#45;&gt;Node8</title>
<g id="a_edge67_Node000028_Node000008"><a xlink:title=" ">
<path fill="none" stroke="#63b8ff" d="M533.19,-331.54C530.09,-330.99 527.01,-330.47 524,-330 445.22,-317.71 229.55,-343.45 167,-294 143.57,-275.48 145,-260.37 145,-230.5 145,-230.5 145,-230.5 145,-173.5 145,-107.1 180.75,-91.84 236,-55 277.29,-27.47 334.93,-16.94 370.56,-12.93"/>
<polygon fill="#63b8ff" stroke="#63b8ff" points="371.28,-16.38 380.87,-11.88 370.57,-9.41 371.28,-16.38"/>
</a>
</g>
</g>
<!-- Node28&#45;&gt;Node14 -->
<g id="edge63_Node000028_Node000014" class="edge">
<title>Node28&#45;&gt;Node14</title>
<g id="a_edge63_Node000028_Node000014"><a xlink:title=" ">
<path fill="none" stroke="#63b8ff" d="M588.6,-329.84C586.86,-315.59 583.19,-293.19 576,-275 547.99,-204.11 509.65,-201.46 486,-129 481.28,-114.53 480.19,-97.26 480.19,-84.38"/>
<polygon fill="#63b8ff" stroke="#63b8ff" points="483.69,-84.46 480.41,-74.38 476.69,-84.3 483.69,-84.46"/>
</a>
</g>
</g>
<!-- Node28&#45;&gt;Node18 -->
<g id="edge65_Node000028_Node000018" class="edge">
<title>Node28&#45;&gt;Node18</title>
<g id="a_edge65_Node000028_Node000018"><a xlink:title=" ">
<path fill="none" stroke="#63b8ff" d="M533.19,-331.52C530.09,-330.97 527.01,-330.46 524,-330 357.63,-304.5 309.97,-336.09 147,-294 78.49,-276.31 1,-301.26 1,-230.5 1,-230.5 1,-230.5 1,-118.5 1,-86.89 7.38,-50.56 11.82,-29.13"/>
<polygon fill="#63b8ff" stroke="#63b8ff" points="15.29,-29.64 13.98,-19.12 8.45,-28.16 15.29,-29.64"/>
</a>
</g>
</g>
<!-- Node29 -->
<g id="Node000029" class="node">
<title>Node29</title>
<g id="a_Node000029"><a xlink:href="source__location_8h.html" target="_top" xlink:title=" ">
<polygon fill="white" stroke="#666666" points="297.5,-294 176.5,-294 176.5,-275 297.5,-275 297.5,-294"/>
<text text-anchor="middle" x="237" y="-282" font-family="Helvetica,sans-Serif" font-size="10.00">util/source_location.h</text>
</a>
</g>
</g>
<!-- Node28&#45;&gt;Node29 -->
<g id="edge32_Node000028_Node000029" class="edge">
<title>Node28&#45;&gt;Node29</title>
<g id="a_edge32_Node000028_Node000029"><a xlink:title=" ">
<path fill="none" stroke="#63b8ff" d="M533.16,-331.73C530.06,-331.13 527,-330.55 524,-330 450.55,-316.53 366.02,-303.75 307.82,-295.37"/>
<polygon fill="#63b8ff" stroke="#63b8ff" points="308.03,-291.86 297.63,-293.91 307.04,-298.79 308.03,-291.86"/>
</a>
</g>
</g>
<!-- Node31 -->
<g id="Node000031" class="node">
<title>Node31</title>
<g id="a_Node000031"><a xlink:href="goto__instruction__code_8h.html" target="_top" xlink:title=" ">
<polygon fill="white" stroke="#666666" points="1144.5,-294 1011.5,-294 1011.5,-275 1144.5,-275 1144.5,-294"/>
<text text-anchor="middle" x="1078" y="-282" font-family="Helvetica,sans-Serif" font-size="10.00">goto_instruction_code.h</text>
</a>
</g>
</g>
<!-- Node28&#45;&gt;Node31 -->
<g id="edge37_Node000028_Node000031" class="edge">
<title>Node28&#45;&gt;Node31</title>
<g id="a_edge37_Node000028_Node000031"><a xlink:title=" ">
<path fill="none" stroke="#63b8ff" d="M646.93,-337.17C734.6,-326.67 902.77,-306.51 1001.14,-294.71"/>
<polygon fill="#63b8ff" stroke="#63b8ff" points="1001.81,-298.16 1011.32,-293.49 1000.97,-291.21 1001.81,-298.16"/>
</a>
</g>
</g>
<!-- Node47 -->
<g id="Node000047" class="node">
<title>Node47</title>
<g id="a_Node000047"><a xlink:title=" ">
<polygon fill="#e0e0e0" stroke="#999999" points="517,-294 473,-294 473,-275 517,-275 517,-294"/>
<text text-anchor="middle" x="495" y="-282" font-family="Helvetica,sans-Serif" font-size="10.00">limits</text>
</a>
</g>
</g>
<!-- Node28&#45;&gt;Node47 -->
<g id="edge64_Node000028_Node000047" class="edge">
<title>Node28&#45;&gt;Node47</title>
<g id="a_edge64_Node000028_Node000047"><a xlink:title=" ">
<path fill="none" stroke="#63b8ff" d="M567,-329.84C552,-320.6 532.5,-308.59 517.57,-299.4"/>
<polygon fill="#63b8ff" stroke="#63b8ff" points="519.31,-296.36 508.96,-294.09 515.64,-302.32 519.31,-296.36"/>
</a>
</g>
</g>
<!-- Node48 -->
<g id="Node000048" class="node">
<title>Node48</title>
<g id="a_Node000048"><a xlink:title=" ">
<polygon fill="#e0e0e0" stroke="#999999" points="567,-294 535,-294 535,-275 567,-275 567,-294"/>
<text text-anchor="middle" x="551" y="-282" font-family="Helvetica,sans-Serif" font-size="10.00">set</text>
</a>
</g>
</g>
<!-- Node28&#45;&gt;Node48 -->
<g id="edge66_Node000028_Node000048" class="edge">
<title>Node28&#45;&gt;Node48</title>
<g id="a_edge66_Node000028_Node000048"><a xlink:title=" ">
<path fill="none" stroke="#63b8ff" d="M580.56,-329.84C575.13,-321.69 568.27,-311.4 562.52,-302.78"/>
<polygon fill="#63b8ff" stroke="#63b8ff" points="565.3,-300.65 556.84,-294.27 559.48,-304.53 565.3,-300.65"/>
</a>
</g>
</g>
<!-- Node29&#45;&gt;Node4 -->
<g id="edge33_Node000029_Node000004" class="edge">
<title>Node29&#45;&gt;Node4</title>
<g id="a_edge33_Node000029_Node000004"><a xlink:title=" ">
<path fill="none" stroke="#63b8ff" d="M251.94,-274.98C266.5,-266.69 288.87,-253.94 305.93,-244.22"/>
<polygon fill="#63b8ff" stroke="#63b8ff" points="307.83,-247.16 314.79,-239.17 304.36,-241.08 307.83,-247.16"/>
</a>
</g>
</g>
<!-- Node29&#45;&gt;Node8 -->
<g id="edge36_Node000029_Node000008" class="edge">
<title>Node29&#45;&gt;Node8</title>
<g id="a_edge36_Node000029_Node000008"><a xlink:title=" ">
<path fill="none" stroke="#63b8ff" d="M227.12,-274.75C218.61,-266.5 206.95,-253.3 202,-239 199.24,-231.02 200.67,-228.34 202,-220 214.15,-143.8 200.83,-108.95 256,-55 272.34,-39.02 332.68,-24.49 370.79,-16.63"/>
<polygon fill="#63b8ff" stroke="#63b8ff" points="371.78,-20.01 380.9,-14.6 370.4,-13.14 371.78,-20.01"/>
</a>
</g>
</g>
<!-- Node29&#45;&gt;Node10 -->
<g id="edge34_Node000029_Node000010" class="edge">
<title>Node29&#45;&gt;Node10</title>
<g id="a_edge34_Node000029_Node000010"><a xlink:title=" ">
<path fill="none" stroke="#63b8ff" d="M266.72,-274.98C300.56,-265.29 355.62,-249.52 390.27,-239.59"/>
<polygon fill="#63b8ff" stroke="#63b8ff" points="391.25,-242.95 399.9,-236.83 389.32,-236.22 391.25,-242.95"/>
</a>
</g>
</g>
<!-- Node30 -->
<g id="Node000030" class="node">
<title>Node30</title>
<g id="a_Node000030"><a xlink:title=" ">
<polygon fill="#e0e0e0" stroke="#999999" points="267,-239 211,-239 211,-220 267,-220 267,-239"/>
<text text-anchor="middle" x="239" y="-227" font-family="Helvetica,sans-Serif" font-size="10.00">optional</text>
</a>
</g>
</g>
<!-- Node29&#45;&gt;Node30 -->
<g id="edge35_Node000029_Node000030" class="edge">
<title>Node29&#45;&gt;Node30</title>
<g id="a_edge35_Node000029_Node000030"><a xlink:title=" ">
<path fill="none" stroke="#63b8ff" d="M237.33,-274.75C237.59,-267.8 237.97,-257.85 238.3,-249.13"/>
<polygon fill="#63b8ff" stroke="#63b8ff" points="241.8,-249.21 238.68,-239.09 234.8,-248.95 241.8,-249.21"/>
</a>
</g>
</g>
<!-- Node32 -->
<g id="Node000032" class="node">
<title>Node32</title>
<g id="a_Node000032"><a xlink:href="std__code__base_8h.html" target="_top" xlink:title=" ">
<polygon fill="white" stroke="#666666" points="1255,-239 1139,-239 1139,-220 1255,-220 1255,-239"/>
<text text-anchor="middle" x="1197" y="-227" font-family="Helvetica,sans-Serif" font-size="10.00">util/std_code_base.h</text>
</a>
</g>
</g>
<!-- Node31&#45;&gt;Node32 -->
<g id="edge38_Node000031_Node000032" class="edge">
<title>Node31&#45;&gt;Node32</title>
<g id="a_edge38_Node000031_Node000032"><a xlink:title=" ">
<path fill="none" stroke="#63b8ff" d="M1097.12,-274.98C1116.35,-266.42 1146.23,-253.11 1168.31,-243.28"/>
<polygon fill="#63b8ff" stroke="#63b8ff" points="1169.82,-246.44 1177.53,-239.17 1166.97,-240.04 1169.82,-246.44"/>
</a>
</g>
</g>
<!-- Node46 -->
<g id="Node000046" class="node">
<title>Node46</title>
<g id="a_Node000046"><a xlink:href="std__expr_8h.html" target="_top" xlink:title="API to expression classes.">
<polygon fill="white" stroke="#666666" points="1121,-239 1035,-239 1035,-220 1121,-220 1121,-239"/>
<text text-anchor="middle" x="1078" y="-227" font-family="Helvetica,sans-Serif" font-size="10.00">util/std_expr.h</text>
</a>
</g>
</g>
<!-- Node31&#45;&gt;Node46 -->
<g id="edge59_Node000031_Node000046" class="edge">
<title>Node31&#45;&gt;Node46</title>
<g id="a_edge59_Node000031_Node000046"><a xlink:title=" ">
<path fill="none" stroke="#63b8ff" d="M1078,-274.75C1078,-267.8 1078,-257.85 1078,-249.13"/>
<polygon fill="#63b8ff" stroke="#63b8ff" points="1081.5,-249.09 1078,-239.09 1074.5,-249.09 1081.5,-249.09"/>
</a>
</g>
</g>
<!-- Node32&#45;&gt;Node5 -->
<g id="edge47_Node000032_Node000005" class="edge">
<title>Node32&#45;&gt;Node5</title>
<g id="a_edge47_Node000032_Node000005"><a xlink:title=" ">
<path fill="none" stroke="#63b8ff" d="M1164.35,-219.92C1142.41,-212.93 1113.81,-201.36 1093,-184 1062.71,-158.74 1067.53,-141.66 1044,-110 1036.88,-100.42 1028.41,-90.16 1021.36,-81.9"/>
<polygon fill="#63b8ff" stroke="#63b8ff" points="1023.85,-79.42 1014.66,-74.14 1018.55,-83.99 1023.85,-79.42"/>
</a>
</g>
</g>
<!-- Node33 -->
<g id="Node000033" class="node">
<title>Node33</title>
<g id="a_Node000033"><a xlink:href="expr__cast_8h.html" target="_top" xlink:title="Templated functions to cast to specific exprt&#45;derived classes.">
<polygon fill="white" stroke="#666666" points="1250.5,-129 1177.5,-129 1177.5,-110 1250.5,-110 1250.5,-129"/>
<text text-anchor="middle" x="1214" y="-117" font-family="Helvetica,sans-Serif" font-size="10.00">expr_cast.h</text>
</a>
</g>
</g>
<!-- Node32&#45;&gt;Node33 -->
<g id="edge39_Node000032_Node000033" class="edge">
<title>Node32&#45;&gt;Node33</title>
<g id="a_edge39_Node000032_Node000033"><a xlink:title=" ">
<path fill="none" stroke="#63b8ff" d="M1202.32,-219.68C1207.23,-210.97 1214.19,-197.09 1217,-184 1220.19,-169.14 1219.08,-151.9 1217.37,-139.14"/>
<polygon fill="#63b8ff" stroke="#63b8ff" points="1220.83,-138.58 1215.81,-129.24 1213.91,-139.67 1220.83,-138.58"/>
</a>
</g>
</g>
<!-- Node43 -->
<g id="Node000043" class="node">
<title>Node43</title>
<g id="a_Node000043"><a xlink:href="std__types_8h.html" target="_top" xlink:title="Pre&#45;defined types.">
<polygon fill="white" stroke="#666666" points="1174.5,-184 1101.5,-184 1101.5,-165 1174.5,-165 1174.5,-184"/>
<text text-anchor="middle" x="1138" y="-172" font-family="Helvetica,sans-Serif" font-size="10.00">std_types.h</text>
</a>
</g>
</g>
<!-- Node32&#45;&gt;Node43 -->
<g id="edge48_Node000032_Node000043" class="edge">
<title>Node32&#45;&gt;Node43</title>
<g id="a_edge48_Node000032_Node000043"><a xlink:title=" ">
<path fill="none" stroke="#63b8ff" d="M1187.52,-219.98C1178.8,-212.15 1165.66,-200.34 1155.1,-190.86"/>
<polygon fill="#63b8ff" stroke="#63b8ff" points="1157.43,-188.25 1147.65,-184.17 1152.75,-193.46 1157.43,-188.25"/>
</a>
</g>
</g>
<!-- Node38 -->
<g id="Node000038" class="node">
<title>Node38</title>
<g id="a_Node000038"><a xlink:href="validate_8h.html" target="_top" xlink:title=" ">
<polygon fill="#fff0f0" stroke="red" points="1333.5,-129 1268.5,-129 1268.5,-110 1333.5,-110 1333.5,-129"/>
<text text-anchor="middle" x="1301" y="-117" font-family="Helvetica,sans-Serif" font-size="10.00">validate.h</text>
</a>
</g>
</g>
<!-- Node32&#45;&gt;Node38 -->
<g id="edge58_Node000032_Node000038" class="edge">
<title>Node32&#45;&gt;Node38</title>
<g id="a_edge58_Node000032_Node000038"><a xlink:title=" ">
<path fill="none" stroke="#63b8ff" d="M1205.51,-219.66C1223.04,-201.46 1263.4,-159.55 1285.62,-136.47"/>
<polygon fill="#63b8ff" stroke="#63b8ff" points="1288.25,-138.79 1292.66,-129.16 1283.2,-133.93 1288.25,-138.79"/>
</a>
</g>
</g>
<!-- Node33&#45;&gt;Node5 -->
<g id="edge43_Node000033_Node000005" class="edge">
<title>Node33&#45;&gt;Node5</title>
<g id="a_edge43_Node000033_Node000005"><a xlink:title=" ">
<path fill="none" stroke="#63b8ff" d="M1180.74,-109.98C1145.39,-100.93 1089.33,-86.58 1050.49,-76.64"/>
<polygon fill="#63b8ff" stroke="#63b8ff" points="1051.07,-73.17 1040.52,-74.08 1049.34,-79.95 1051.07,-73.17"/>
</a>
</g>
</g>
<!-- Node33&#45;&gt;Node9 -->
<g id="edge41_Node000033_Node000009" class="edge">
<title>Node33&#45;&gt;Node9</title>
<g id="a_edge41_Node000033_Node000009"><a xlink:title=" ">
<path fill="none" stroke="#63b8ff" d="M1205.67,-109.79C1197.69,-101.16 1185.62,-87.33 1177,-74 1167.54,-59.37 1159.04,-41.43 1153.34,-28.35"/>
<polygon fill="#63b8ff" stroke="#63b8ff" points="1156.53,-26.91 1149.4,-19.06 1150.08,-29.64 1156.53,-26.91"/>
</a>
</g>
</g>
<!-- Node34 -->
<g id="Node000034" class="node">
<title>Node34</title>
<g id="a_Node000034"><a xlink:title=" ">
<polygon fill="#e0e0e0" stroke="#999999" points="1242.5,-74 1185.5,-74 1185.5,-55 1242.5,-55 1242.5,-74"/>
<text text-anchor="middle" x="1214" y="-62" font-family="Helvetica,sans-Serif" font-size="10.00">typeinfo</text>
</a>
</g>
</g>
<!-- Node33&#45;&gt;Node34 -->
<g id="edge40_Node000033_Node000034" class="edge">
<title>Node33&#45;&gt;Node34</title>
<g id="a_edge40_Node000033_Node000034"><a xlink:title=" ">
<path fill="none" stroke="#63b8ff" d="M1214,-109.75C1214,-102.8 1214,-92.85 1214,-84.13"/>
<polygon fill="#63b8ff" stroke="#63b8ff" points="1217.5,-84.09 1214,-74.09 1210.5,-84.09 1217.5,-84.09"/>
</a>
</g>
</g>
<!-- Node35 -->
<g id="Node000035" class="node">
<title>Node35</title>
<g id="a_Node000035"><a xlink:title=" ">
<polygon fill="#e0e0e0" stroke="#999999" points="1317.5,-19 1252.5,-19 1252.5,0 1317.5,0 1317.5,-19"/>
<text text-anchor="middle" x="1285" y="-7" font-family="Helvetica,sans-Serif" font-size="10.00">functional</text>
</a>
</g>
</g>
<!-- Node33&#45;&gt;Node35 -->
<g id="edge42_Node000033_Node000035" class="edge">
<title>Node33&#45;&gt;Node35</title>
<g id="a_edge42_Node000033_Node000035"><a xlink:title=" ">
<path fill="none" stroke="#63b8ff" d="M1222.5,-109.78C1230.66,-101.14 1243.03,-87.31 1252,-74 1261.86,-59.37 1270.94,-41.42 1277.07,-28.35"/>
<polygon fill="#63b8ff" stroke="#63b8ff" points="1280.34,-29.61 1281.31,-19.06 1273.97,-26.71 1280.34,-29.61"/>
</a>
</g>
</g>
<!-- Node36 -->
<g id="Node000036" class="node">
<title>Node36</title>
<g id="a_Node000036"><a xlink:href="expr_8h.html" target="_top" xlink:title=" ">
<polygon fill="#fff0f0" stroke="red" points="1128.5,-74 1081.5,-74 1081.5,-55 1128.5,-55 1128.5,-74"/>
<text text-anchor="middle" x="1105" y="-62" font-family="Helvetica,sans-Serif" font-size="10.00">expr.h</text>
</a>
</g>
</g>
<!-- Node33&#45;&gt;Node36 -->
<g id="edge44_Node000033_Node000036" class="edge">
<title>Node33&#45;&gt;Node36</title>
<g id="a_edge44_Node000033_Node000036"><a xlink:title=" ">
<path fill="none" stroke="#63b8ff" d="M1196.49,-109.98C1179.03,-101.5 1151.99,-88.35 1131.83,-78.54"/>
<polygon fill="#63b8ff" stroke="#63b8ff" points="1133.36,-75.4 1122.83,-74.17 1130.29,-81.69 1133.36,-75.4"/>
</a>
</g>
</g>
<!-- Node36&#45;&gt;Node26 -->
<g id="edge45_Node000036_Node000026" class="edge">
<title>Node36&#45;&gt;Node26</title>
<g id="a_edge45_Node000036_Node000026"><a xlink:title=" ">
<path fill="none" stroke="#63b8ff" d="M1081.27,-55.33C1055.69,-46.53 1014.71,-32.43 985.55,-22.39"/>
<polygon fill="#63b8ff" stroke="#63b8ff" points="986.37,-18.97 975.77,-19.03 984.09,-25.59 986.37,-18.97"/>
</a>
</g>
</g>
<!-- Node36&#45;&gt;Node35 -->
<g id="edge46_Node000036_Node000035" class="edge">
<title>Node36&#45;&gt;Node35</title>
<g id="a_edge46_Node000036_Node000035"><a xlink:title=" ">
<path fill="none" stroke="#63b8ff" d="M1128.53,-56.57C1158.5,-47.75 1210.67,-32.39 1246.47,-21.84"/>
<polygon fill="#63b8ff" stroke="#63b8ff" points="1247.5,-25.19 1256.1,-19.01 1245.52,-18.48 1247.5,-25.19"/>
</a>
</g>
</g>
<!-- Node43&#45;&gt;Node5 -->
<g id="edge51_Node000043_Node000005" class="edge">
<title>Node43&#45;&gt;Node5</title>
<g id="a_edge51_Node000043_Node000005"><a xlink:title=" ">
<path fill="none" stroke="#63b8ff" d="M1132.61,-164.81C1124.15,-151.69 1106.67,-126.6 1087,-110 1071.81,-97.18 1052.37,-86.27 1036.46,-78.46"/>
<polygon fill="#63b8ff" stroke="#63b8ff" points="1037.61,-75.13 1027.08,-74.01 1034.61,-81.46 1037.61,-75.13"/>
</a>
</g>
</g>
<!-- Node43&#45;&gt;Node19 -->
<g id="edge57_Node000043_Node000019" class="edge">
<title>Node43&#45;&gt;Node19</title>
<g id="a_edge57_Node000043_Node000019"><a xlink:title=" ">
<path fill="none" stroke="#63b8ff" d="M1101.06,-169.49C1042.16,-162.83 923.46,-148.27 824,-129 789.39,-122.3 781.26,-118.27 747,-110 643.57,-85.03 618.11,-76.97 514,-55 451.93,-41.9 380.35,-28.84 331.83,-20.29"/>
<polygon fill="#63b8ff" stroke="#63b8ff" points="332.3,-16.82 321.84,-18.54 331.09,-23.72 332.3,-16.82"/>
</a>
</g>
</g>
<!-- Node43&#45;&gt;Node33 -->
<g id="edge50_Node000043_Node000033" class="edge">
<title>Node43&#45;&gt;Node33</title>
<g id="a_edge50_Node000043_Node000033"><a xlink:title=" ">
<path fill="none" stroke="#63b8ff" d="M1150.21,-164.98C1161.78,-156.92 1179.38,-144.65 1193.16,-135.03"/>
<polygon fill="#63b8ff" stroke="#63b8ff" points="1195.37,-137.76 1201.57,-129.17 1191.36,-132.02 1195.37,-137.76"/>
</a>
</g>
</g>
<!-- Node43&#45;&gt;Node36 -->
<g id="edge49_Node000043_Node000036" class="edge">
<title>Node43&#45;&gt;Node36</title>
<g id="a_edge49_Node000043_Node000036"><a xlink:title=" ">
<path fill="none" stroke="#63b8ff" d="M1136.83,-164.72C1135.03,-152.32 1131.15,-129.06 1125,-110 1122.07,-100.93 1117.86,-91.24 1114.05,-83.22"/>
<polygon fill="#63b8ff" stroke="#63b8ff" points="1117.13,-81.56 1109.57,-74.14 1110.85,-84.66 1117.13,-81.56"/>
</a>
</g>
</g>
<!-- Node44 -->
<g id="Node000044" class="node">
<title>Node44</title>
<g id="a_Node000044"><a xlink:href="mp__arith_8h.html" target="_top" xlink:title=" ">
<polygon fill="#fff0f0" stroke="red" points="738.5,-129 669.5,-129 669.5,-110 738.5,-110 738.5,-129"/>
<text text-anchor="middle" x="704" y="-117" font-family="Helvetica,sans-Serif" font-size="10.00">mp_arith.h</text>
</a>
</g>
</g>
<!-- Node43&#45;&gt;Node44 -->
<g id="edge52_Node000043_Node000044" class="edge">
<title>Node43&#45;&gt;Node44</title>
<g id="a_edge52_Node000043_Node000044"><a xlink:title=" ">
<path fill="none" stroke="#63b8ff" d="M1101.28,-169.96C1032.7,-163.18 880.53,-147.42 753,-129 751.7,-128.81 750.39,-128.62 749.06,-128.42"/>
<polygon fill="#63b8ff" stroke="#63b8ff" points="749.19,-124.89 738.76,-126.78 748.09,-131.81 749.19,-124.89"/>
</a>
</g>
</g>
<!-- Node43&#45;&gt;Node38 -->
<g id="edge55_Node000043_Node000038" class="edge">
<title>Node43&#45;&gt;Node38</title>
<g id="a_edge55_Node000043_Node000038"><a xlink:title=" ">
<path fill="none" stroke="#63b8ff" d="M1164.19,-164.98C1191.44,-156.13 1234.3,-142.19 1264.78,-132.28"/>
<polygon fill="#63b8ff" stroke="#63b8ff" points="1266.18,-135.5 1274.61,-129.08 1264.01,-128.85 1266.18,-135.5"/>
</a>
</g>
</g>
<!-- Node44&#45;&gt;Node8 -->
<g id="edge54_Node000044_Node000008" class="edge">
<title>Node44&#45;&gt;Node8</title>
<g id="a_edge54_Node000044_Node000008"><a xlink:title=" ">
<path fill="none" stroke="#63b8ff" d="M680.13,-109.94C626.26,-90.61 495.23,-43.59 434.66,-21.86"/>
<polygon fill="#63b8ff" stroke="#63b8ff" points="435.82,-18.56 425.23,-18.48 433.46,-25.15 435.82,-18.56"/>
</a>
</g>
</g>
<!-- Node44&#45;&gt;Node14 -->
<g id="edge53_Node000044_Node000014" class="edge">
<title>Node44&#45;&gt;Node14</title>
<g id="a_edge53_Node000044_Node000014"><a xlink:title=" ">
<path fill="none" stroke="#63b8ff" d="M669.16,-110.22C627.15,-100.23 557,-83.56 515.26,-73.64"/>
<polygon fill="#63b8ff" stroke="#63b8ff" points="515.83,-70.18 505.29,-71.27 514.21,-76.99 515.83,-70.18"/>
</a>
</g>
</g>
<!-- Node38&#45;&gt;Node9 -->
<g id="edge56_Node000038_Node000009" class="edge">
<title>Node38&#45;&gt;Node9</title>
<g id="a_edge56_Node000038_Node000009"><a xlink:title=" ">
<path fill="none" stroke="#63b8ff" d="M1296.37,-109.96C1288.74,-96.59 1272.31,-70.62 1252,-55 1232.88,-40.3 1208.19,-29.56 1187.44,-22.32"/>
<polygon fill="#63b8ff" stroke="#63b8ff" points="1188.52,-18.99 1177.92,-19.14 1186.3,-25.63 1188.52,-18.99"/>
</a>
</g>
</g>
<!-- Node46&#45;&gt;Node5 -->
<g id="edge61_Node000046_Node000005" class="edge">
<title>Node46&#45;&gt;Node5</title>
<g id="a_edge61_Node000046_Node000005"><a xlink:title=" ">
<path fill="none" stroke="#63b8ff" d="M1074.18,-219.74C1063.01,-194.09 1030.21,-118.78 1014.96,-83.78"/>
<polygon fill="#63b8ff" stroke="#63b8ff" points="1018.04,-82.08 1010.84,-74.31 1011.62,-84.87 1018.04,-82.08"/>
</a>
</g>
</g>
<!-- Node46&#45;&gt;Node33 -->
<g id="edge60_Node000046_Node000033" class="edge">
<title>Node46&#45;&gt;Node33</title>
<g id="a_edge60_Node000046_Node000033"><a xlink:title=" ">
<path fill="none" stroke="#63b8ff" d="M1115.63,-219.96C1137.8,-213.31 1165.11,-202.08 1184,-184 1196.79,-171.76 1204.72,-152.98 1209.19,-139.01"/>
<polygon fill="#63b8ff" stroke="#63b8ff" points="1212.65,-139.64 1212.06,-129.06 1205.93,-137.7 1212.65,-139.64"/>
</a>
</g>
</g>
<!-- Node46&#45;&gt;Node43 -->
<g id="edge62_Node000046_Node000043" class="edge">
<title>Node46&#45;&gt;Node43</title>
<g id="a_edge62_Node000046_Node000043"><a xlink:title=" ">
<path fill="none" stroke="#63b8ff" d="M1087.64,-219.98C1096.51,-212.15 1109.87,-200.34 1120.61,-190.86"/>
<polygon fill="#63b8ff" stroke="#63b8ff" points="1123.01,-193.41 1128.18,-184.17 1118.37,-188.17 1123.01,-193.41"/>
</a>
</g>
</g>
<!-- Node51&#45;&gt;Node10 -->
<g id="edge71_Node000051_Node000010" class="edge">
<title>Node51&#45;&gt;Node10</title>
<g id="a_edge71_Node000051_Node000010"><a xlink:title=" ">
<path fill="none" stroke="#63b8ff" d="M447.9,-335.47C443.4,-317.23 432.75,-274.07 426.6,-249.14"/>
<polygon fill="#63b8ff" stroke="#63b8ff" points="429.92,-248 424.13,-239.13 423.13,-249.68 429.92,-248"/>
</a>
</g>
</g>
</g>
</svg>
