<?xml version="1.0" encoding="UTF-8" standalone="no"?>
<!DOCTYPE svg PUBLIC "-//W3C//DTD SVG 1.1//EN"
 "http://www.w3.org/Graphics/SVG/1.1/DTD/svg11.dtd">
<!-- Generated by graphviz version 2.43.0 (0)
 -->
<!-- Title: /home/runner/work/cbmc/cbmc/src/cpp/cpp_exception_id.cpp Pages: 1 -->
<svg width="1512pt" height="544pt"
 viewBox="0.00 0.00 1511.50 544.00" xmlns="http://www.w3.org/2000/svg" xmlns:xlink="http://www.w3.org/1999/xlink">
<g id="graph0" class="graph" transform="scale(1 1) rotate(0) translate(4 540)">
<title>/home/runner/work/cbmc/cbmc/src/cpp/cpp_exception_id.cpp</title>
<!-- Node1 -->
<g id="Node000001" class="node">
<title>Node1</title>
<g id="a_Node000001"><a xlink:title="C++ Language Type Checking.">
<polygon fill="#999999" stroke="#666666" points="1012.5,-536 855.5,-536 855.5,-495 1012.5,-495 1012.5,-536"/>
<text text-anchor="start" x="863.5" y="-524" font-family="Helvetica,sans-Serif" font-size="10.00">/home/runner/work/cbmc</text>
<text text-anchor="start" x="863.5" y="-513" font-family="Helvetica,sans-Serif" font-size="10.00">/cbmc/src/cpp/cpp_exception</text>
<text text-anchor="middle" x="934" y="-502" font-family="Helvetica,sans-Serif" font-size="10.00">_id.cpp</text>
</a>
</g>
</g>
<!-- Node2 -->
<g id="Node000002" class="node">
<title>Node2</title>
<g id="a_Node000002"><a xlink:href="cpp__exception__id_8h.html" target="_top" xlink:title="C++ Language Type Checking.">
<polygon fill="white" stroke="#666666" points="718,-459 608,-459 608,-440 718,-440 718,-459"/>
<text text-anchor="middle" x="663" y="-447" font-family="Helvetica,sans-Serif" font-size="10.00">cpp_exception_id.h</text>
</a>
</g>
</g>
<!-- Node1&#45;&gt;Node2 -->
<g id="edge1_Node000001_Node000002" class="edge">
<title>Node1&#45;&gt;Node2</title>
<g id="a_edge1_Node000001_Node000002"><a xlink:title=" ">
<path fill="none" stroke="#63b8ff" d="M855.25,-495.9C807.71,-484.67 748.79,-470.76 708.8,-461.32"/>
<polygon fill="#63b8ff" stroke="#63b8ff" points="709.59,-457.91 699.06,-459.02 707.99,-464.72 709.59,-457.91"/>
</a>
</g>
</g>
<!-- Node6 -->
<g id="Node000006" class="node">
<title>Node6</title>
<g id="a_Node000006"><a xlink:href="src_2util_2invariant_8h.html" target="_top" xlink:title=" ">
<polygon fill="white" stroke="#666666" points="917.5,-184 848.5,-184 848.5,-165 917.5,-165 917.5,-184"/>
<text text-anchor="middle" x="883" y="-172" font-family="Helvetica,sans-Serif" font-size="10.00">invariant.h</text>
</a>
</g>
</g>
<!-- Node1&#45;&gt;Node6 -->
<g id="edge67_Node000001_Node000006" class="edge">
<title>Node1&#45;&gt;Node6</title>
<g id="a_edge67_Node000001_Node000006"><a xlink:title=" ">
<path fill="none" stroke="#63b8ff" d="M955.64,-494.88C965.48,-484.96 976.57,-472.23 984,-459 998.43,-433.32 1003,-424.96 1003,-395.5 1003,-395.5 1003,-395.5 1003,-283.5 1003,-236.36 951.2,-204.54 915.67,-188.26"/>
<polygon fill="#63b8ff" stroke="#63b8ff" points="916.7,-184.89 906.14,-184.09 913.89,-191.31 916.7,-184.89"/>
</a>
</g>
</g>
<!-- Node26 -->
<g id="Node000026" class="node">
<title>Node26</title>
<g id="a_Node000026"><a xlink:href="c__types_8h.html" target="_top" xlink:title=" ">
<polygon fill="white" stroke="#666666" points="975,-459 893,-459 893,-440 975,-440 975,-459"/>
<text text-anchor="middle" x="934" y="-447" font-family="Helvetica,sans-Serif" font-size="10.00">util/c_types.h</text>
</a>
</g>
</g>
<!-- Node1&#45;&gt;Node26 -->
<g id="edge33_Node000001_Node000026" class="edge">
<title>Node1&#45;&gt;Node26</title>
<g id="a_edge33_Node000001_Node000026"><a xlink:title=" ">
<path fill="none" stroke="#63b8ff" d="M934,-494.95C934,-486.85 934,-477.5 934,-469.47"/>
<polygon fill="#63b8ff" stroke="#63b8ff" points="937.5,-469.26 934,-459.26 930.5,-469.26 937.5,-469.26"/>
</a>
</g>
</g>
<!-- Node30 -->
<g id="Node000030" class="node">
<title>Node30</title>
<g id="a_Node000030"><a xlink:href="std__types_8h.html" target="_top" xlink:title="Pre&#45;defined types.">
<polygon fill="white" stroke="#666666" points="1157.5,-294 1084.5,-294 1084.5,-275 1157.5,-275 1157.5,-294"/>
<text text-anchor="middle" x="1121" y="-282" font-family="Helvetica,sans-Serif" font-size="10.00">std_types.h</text>
</a>
</g>
</g>
<!-- Node1&#45;&gt;Node30 -->
<g id="edge72_Node000001_Node000030" class="edge">
<title>Node1&#45;&gt;Node30</title>
<g id="a_edge72_Node000001_Node000030"><a xlink:title=" ">
<path fill="none" stroke="#63b8ff" d="M1010.82,-494.93C1081.04,-472.52 1180.76,-428.22 1227,-349 1243.41,-320.89 1203.13,-303.79 1167.59,-294.53"/>
<polygon fill="#63b8ff" stroke="#63b8ff" points="1168.29,-291.1 1157.75,-292.12 1166.63,-297.9 1168.29,-291.1"/>
</a>
</g>
</g>
<!-- Node46 -->
<g id="Node000046" class="node">
<title>Node46</title>
<g id="a_Node000046"><a xlink:href="namespace_8h.html" target="_top" xlink:title=" ">
<polygon fill="white" stroke="#666666" points="874.5,-459 773.5,-459 773.5,-440 874.5,-440 874.5,-459"/>
<text text-anchor="middle" x="824" y="-447" font-family="Helvetica,sans-Serif" font-size="10.00">util/namespace.h</text>
</a>
</g>
</g>
<!-- Node1&#45;&gt;Node46 -->
<g id="edge68_Node000001_Node000046" class="edge">
<title>Node1&#45;&gt;Node46</title>
<g id="a_edge68_Node000001_Node000046"><a xlink:title=" ">
<path fill="none" stroke="#63b8ff" d="M900.4,-494.95C883.34,-485.03 863.03,-473.21 847.64,-464.25"/>
<polygon fill="#63b8ff" stroke="#63b8ff" points="849.17,-461.1 838.77,-459.09 845.65,-467.15 849.17,-461.1"/>
</a>
</g>
</g>
<!-- Node3 -->
<g id="Node000003" class="node">
<title>Node3</title>
<g id="a_Node000003"><a xlink:href="irep_8h.html" target="_top" xlink:title=" ">
<polygon fill="white" stroke="#666666" points="673.5,-404 610.5,-404 610.5,-385 673.5,-385 673.5,-404"/>
<text text-anchor="middle" x="642" y="-392" font-family="Helvetica,sans-Serif" font-size="10.00">util/irep.h</text>
</a>
</g>
</g>
<!-- Node2&#45;&gt;Node3 -->
<g id="edge2_Node000002_Node000003" class="edge">
<title>Node2&#45;&gt;Node3</title>
<g id="a_edge2_Node000002_Node000003"><a xlink:title=" ">
<path fill="none" stroke="#63b8ff" d="M659.53,-439.75C656.72,-432.65 652.66,-422.4 649.15,-413.56"/>
<polygon fill="#63b8ff" stroke="#63b8ff" points="652.34,-412.1 645.4,-404.09 645.83,-414.68 652.34,-412.1"/>
</a>
</g>
</g>
<!-- Node4 -->
<g id="Node000004" class="node">
<title>Node4</title>
<g id="a_Node000004"><a xlink:title=" ">
<polygon fill="#e0e0e0" stroke="#999999" points="418,-129 374,-129 374,-110 418,-110 418,-129"/>
<text text-anchor="middle" x="396" y="-117" font-family="Helvetica,sans-Serif" font-size="10.00">string</text>
</a>
</g>
</g>
<!-- Node3&#45;&gt;Node4 -->
<g id="edge3_Node000003_Node000004" class="edge">
<title>Node3&#45;&gt;Node4</title>
<g id="a_edge3_Node000003_Node000004"><a xlink:title=" ">
<path fill="none" stroke="#63b8ff" d="M610.41,-391.57C551.55,-386.08 431,-365.13 431,-285.5 431,-285.5 431,-285.5 431,-228.5 431,-195.3 415.85,-159.03 405.48,-138.11"/>
<polygon fill="#63b8ff" stroke="#63b8ff" points="408.56,-136.44 400.87,-129.15 402.34,-139.64 408.56,-136.44"/>
</a>
</g>
</g>
<!-- Node5 -->
<g id="Node000005" class="node">
<title>Node5</title>
<g id="a_Node000005"><a xlink:title=" ">
<polygon fill="#e0e0e0" stroke="#999999" points="100.5,-184 53.5,-184 53.5,-165 100.5,-165 100.5,-184"/>
<text text-anchor="middle" x="77" y="-172" font-family="Helvetica,sans-Serif" font-size="10.00">vector</text>
</a>
</g>
</g>
<!-- Node3&#45;&gt;Node5 -->
<g id="edge4_Node000003_Node000005" class="edge">
<title>Node3&#45;&gt;Node5</title>
<g id="a_edge4_Node000003_Node000005"><a xlink:title=" ">
<path fill="none" stroke="#63b8ff" d="M610.29,-393.55C551.94,-392.67 424.41,-386.22 325,-349 226.64,-312.17 130.69,-227.08 93.35,-191.55"/>
<polygon fill="#63b8ff" stroke="#63b8ff" points="95.53,-188.8 85.9,-184.38 90.68,-193.84 95.53,-188.8"/>
</a>
</g>
</g>
<!-- Node3&#45;&gt;Node6 -->
<g id="edge5_Node000003_Node000006" class="edge">
<title>Node3&#45;&gt;Node6</title>
<g id="a_edge5_Node000003_Node000006"><a xlink:title=" ">
<path fill="none" stroke="#63b8ff" d="M662.63,-384.9C706.49,-365.54 809.47,-314.3 864,-239 873.6,-225.75 878.39,-207.63 880.76,-194.14"/>
<polygon fill="#63b8ff" stroke="#63b8ff" points="884.25,-194.5 882.23,-184.1 877.32,-193.48 884.25,-194.5"/>
</a>
</g>
</g>
<!-- Node10 -->
<g id="Node000010" class="node">
<title>Node10</title>
<g id="a_Node000010"><a xlink:href="irep__ids_8h.html" target="_top" xlink:title="util">
<polygon fill="white" stroke="#666666" points="398,-349 334,-349 334,-330 398,-330 398,-349"/>
<text text-anchor="middle" x="366" y="-337" font-family="Helvetica,sans-Serif" font-size="10.00">irep_ids.h</text>
</a>
</g>
</g>
<!-- Node3&#45;&gt;Node10 -->
<g id="edge10_Node000003_Node000010" class="edge">
<title>Node3&#45;&gt;Node10</title>
<g id="a_edge10_Node000003_Node000010"><a xlink:title=" ">
<path fill="none" stroke="#63b8ff" d="M610.34,-387.42C560.49,-377.85 463.65,-359.25 408.03,-348.57"/>
<polygon fill="#63b8ff" stroke="#63b8ff" points="408.62,-345.12 398.14,-346.67 407.3,-352 408.62,-345.12"/>
</a>
</g>
</g>
<!-- Node21 -->
<g id="Node000021" class="node">
<title>Node21</title>
<g id="a_Node000021"><a xlink:href="forward__list__as__map_8h.html" target="_top" xlink:title=" ">
<polygon fill="white" stroke="#666666" points="705.5,-294 578.5,-294 578.5,-275 705.5,-275 705.5,-294"/>
<text text-anchor="middle" x="642" y="-282" font-family="Helvetica,sans-Serif" font-size="10.00">forward_list_as_map.h</text>
</a>
</g>
</g>
<!-- Node3&#45;&gt;Node21 -->
<g id="edge26_Node000003_Node000021" class="edge">
<title>Node3&#45;&gt;Node21</title>
<g id="a_edge26_Node000003_Node000021"><a xlink:title=" ">
<path fill="none" stroke="#63b8ff" d="M642,-384.66C642,-367.17 642,-327.8 642,-304.27"/>
<polygon fill="#63b8ff" stroke="#63b8ff" points="645.5,-304.16 642,-294.16 638.5,-304.16 645.5,-304.16"/>
</a>
</g>
</g>
<!-- Node6&#45;&gt;Node4 -->
<g id="edge8_Node000006_Node000004" class="edge">
<title>Node6&#45;&gt;Node4</title>
<g id="a_edge8_Node000006_Node000004"><a xlink:title=" ">
<path fill="none" stroke="#63b8ff" d="M848.37,-169.73C758.04,-159.9 516.23,-133.58 428.43,-124.03"/>
<polygon fill="#63b8ff" stroke="#63b8ff" points="428.59,-120.53 418.27,-122.92 427.83,-127.48 428.59,-120.53"/>
</a>
</g>
</g>
<!-- Node7 -->
<g id="Node000007" class="node">
<title>Node7</title>
<g id="a_Node000007"><a xlink:title=" ">
<polygon fill="#e0e0e0" stroke="#999999" points="968.5,-129 919.5,-129 919.5,-110 968.5,-110 968.5,-129"/>
<text text-anchor="middle" x="944" y="-117" font-family="Helvetica,sans-Serif" font-size="10.00">cstdlib</text>
</a>
</g>
</g>
<!-- Node6&#45;&gt;Node7 -->
<g id="edge6_Node000006_Node000007" class="edge">
<title>Node6&#45;&gt;Node7</title>
<g id="a_edge6_Node000006_Node000007"><a xlink:title=" ">
<path fill="none" stroke="#63b8ff" d="M892.8,-164.98C901.82,-157.15 915.41,-145.34 926.32,-135.86"/>
<polygon fill="#63b8ff" stroke="#63b8ff" points="928.77,-138.37 934.02,-129.17 924.18,-133.09 928.77,-138.37"/>
</a>
</g>
</g>
<!-- Node8 -->
<g id="Node000008" class="node">
<title>Node8</title>
<g id="a_Node000008"><a xlink:title=" ">
<polygon fill="#e0e0e0" stroke="#999999" points="901,-129 845,-129 845,-110 901,-110 901,-129"/>
<text text-anchor="middle" x="873" y="-117" font-family="Helvetica,sans-Serif" font-size="10.00">sstream</text>
</a>
</g>
</g>
<!-- Node6&#45;&gt;Node8 -->
<g id="edge7_Node000006_Node000008" class="edge">
<title>Node6&#45;&gt;Node8</title>
<g id="a_edge7_Node000006_Node000008"><a xlink:title=" ">
<path fill="none" stroke="#63b8ff" d="M881.35,-164.75C880.04,-157.8 878.16,-147.85 876.52,-139.13"/>
<polygon fill="#63b8ff" stroke="#63b8ff" points="879.91,-138.27 874.62,-129.09 873.04,-139.56 879.91,-138.27"/>
</a>
</g>
</g>
<!-- Node9 -->
<g id="Node000009" class="node">
<title>Node9</title>
<g id="a_Node000009"><a xlink:title=" ">
<polygon fill="#e0e0e0" stroke="#999999" points="941.5,-19 872.5,-19 872.5,0 941.5,0 941.5,-19"/>
<text text-anchor="middle" x="907" y="-7" font-family="Helvetica,sans-Serif" font-size="10.00">type_traits</text>
</a>
</g>
</g>
<!-- Node6&#45;&gt;Node9 -->
<g id="edge9_Node000006_Node000009" class="edge">
<title>Node6&#45;&gt;Node9</title>
<g id="a_edge9_Node000006_Node000009"><a xlink:title=" ">
<path fill="none" stroke="#63b8ff" d="M868.93,-164.89C857.65,-157.1 842.66,-144.48 836,-129 832.66,-121.24 833.42,-118.04 836,-110 846.72,-76.52 873.29,-44.71 890.71,-26.43"/>
<polygon fill="#63b8ff" stroke="#63b8ff" points="893.48,-28.61 897.98,-19.02 888.48,-23.71 893.48,-28.61"/>
</a>
</g>
</g>
<!-- Node11 -->
<g id="Node000011" class="node">
<title>Node11</title>
<g id="a_Node000011"><a xlink:href="dstring_8h.html" target="_top" xlink:title="Container for C&#45;Strings.">
<polygon fill="white" stroke="#666666" points="310.5,-294 251.5,-294 251.5,-275 310.5,-275 310.5,-294"/>
<text text-anchor="middle" x="281" y="-282" font-family="Helvetica,sans-Serif" font-size="10.00">dstring.h</text>
</a>
</g>
</g>
<!-- Node10&#45;&gt;Node11 -->
<g id="edge11_Node000010_Node000011" class="edge">
<title>Node10&#45;&gt;Node11</title>
<g id="a_edge11_Node000010_Node000011"><a xlink:title=" ">
<path fill="none" stroke="#63b8ff" d="M352.34,-329.98C339.16,-321.77 318.97,-309.18 303.43,-299.49"/>
<polygon fill="#63b8ff" stroke="#63b8ff" points="305.24,-296.49 294.91,-294.17 301.54,-302.43 305.24,-296.49"/>
</a>
</g>
</g>
<!-- Node20 -->
<g id="Node000020" class="node">
<title>Node20</title>
<g id="a_Node000020"><a xlink:title=" ">
<polygon fill="#e0e0e0" stroke="#999999" points="403,-294 329,-294 329,-275 403,-275 403,-294"/>
<text text-anchor="middle" x="366" y="-282" font-family="Helvetica,sans-Serif" font-size="10.00">irep_ids.def</text>
</a>
</g>
</g>
<!-- Node10&#45;&gt;Node20 -->
<g id="edge25_Node000010_Node000020" class="edge">
<title>Node10&#45;&gt;Node20</title>
<g id="a_edge25_Node000010_Node000020"><a xlink:title=" ">
<path fill="none" stroke="#63b8ff" d="M366,-329.75C366,-322.8 366,-312.85 366,-304.13"/>
<polygon fill="#63b8ff" stroke="#63b8ff" points="369.5,-304.09 366,-294.09 362.5,-304.09 369.5,-304.09"/>
</a>
</g>
</g>
<!-- Node11&#45;&gt;Node4 -->
<g id="edge13_Node000011_Node000004" class="edge">
<title>Node11&#45;&gt;Node4</title>
<g id="a_edge13_Node000011_Node000004"><a xlink:title=" ">
<path fill="none" stroke="#63b8ff" d="M256.83,-274.96C208.74,-256.71 108.91,-211.73 148,-165 175.14,-132.56 302.8,-123.74 363.62,-121.36"/>
<polygon fill="#63b8ff" stroke="#63b8ff" points="363.95,-124.85 373.82,-121 363.7,-117.86 363.95,-124.85"/>
</a>
</g>
</g>
<!-- Node12 -->
<g id="Node000012" class="node">
<title>Node12</title>
<g id="a_Node000012"><a xlink:title=" ">
<polygon fill="#e0e0e0" stroke="#999999" points="619,-184 571,-184 571,-165 619,-165 619,-184"/>
<text text-anchor="middle" x="595" y="-172" font-family="Helvetica,sans-Serif" font-size="10.00">iosfwd</text>
</a>
</g>
</g>
<!-- Node11&#45;&gt;Node12 -->
<g id="edge12_Node000011_Node000012" class="edge">
<title>Node11&#45;&gt;Node12</title>
<g id="a_edge12_Node000011_Node000012"><a xlink:title=" ">
<path fill="none" stroke="#63b8ff" d="M305.9,-274.94C361.94,-255.66 498.01,-208.86 561.43,-187.05"/>
<polygon fill="#63b8ff" stroke="#63b8ff" points="562.64,-190.33 570.96,-183.77 560.37,-183.71 562.64,-190.33"/>
</a>
</g>
</g>
<!-- Node13 -->
<g id="Node000013" class="node">
<title>Node13</title>
<g id="a_Node000013"><a xlink:href="magic_8h.html" target="_top" xlink:title="Magic numbers used throughout the codebase.">
<polygon fill="white" stroke="#666666" points="56,-239 0,-239 0,-220 56,-220 56,-239"/>
<text text-anchor="middle" x="28" y="-227" font-family="Helvetica,sans-Serif" font-size="10.00">magic.h</text>
</a>
</g>
</g>
<!-- Node11&#45;&gt;Node13 -->
<g id="edge14_Node000011_Node000013" class="edge">
<title>Node11&#45;&gt;Node13</title>
<g id="a_edge14_Node000011_Node000013"><a xlink:title=" ">
<path fill="none" stroke="#63b8ff" d="M251.48,-277.32C205.51,-267.69 116.82,-249.11 66.09,-238.48"/>
<polygon fill="#63b8ff" stroke="#63b8ff" points="66.67,-235.03 56.17,-236.4 65.24,-241.88 66.67,-235.03"/>
</a>
</g>
</g>
<!-- Node15 -->
<g id="Node000015" class="node">
<title>Node15</title>
<g id="a_Node000015"><a xlink:href="string__container_8h.html" target="_top" xlink:title="Container for C&#45;Strings.">
<polygon fill="white" stroke="#666666" points="336,-239 232,-239 232,-220 336,-220 336,-239"/>
<text text-anchor="middle" x="284" y="-227" font-family="Helvetica,sans-Serif" font-size="10.00">string_container.h</text>
</a>
</g>
</g>
<!-- Node11&#45;&gt;Node15 -->
<g id="edge16_Node000011_Node000015" class="edge">
<title>Node11&#45;&gt;Node15</title>
<g id="a_edge16_Node000011_Node000015"><a xlink:title=" ">
<path fill="none" stroke="#63b8ff" d="M281.5,-274.75C281.89,-267.8 282.45,-257.85 282.95,-249.13"/>
<polygon fill="#63b8ff" stroke="#63b8ff" points="286.44,-249.27 283.51,-239.09 279.45,-248.88 286.44,-249.27"/>
</a>
</g>
</g>
<!-- Node14 -->
<g id="Node000014" class="node">
<title>Node14</title>
<g id="a_Node000014"><a xlink:title=" ">
<polygon fill="#e0e0e0" stroke="#999999" points="141.5,-129 88.5,-129 88.5,-110 141.5,-110 141.5,-129"/>
<text text-anchor="middle" x="115" y="-117" font-family="Helvetica,sans-Serif" font-size="10.00">cstddef</text>
</a>
</g>
</g>
<!-- Node13&#45;&gt;Node14 -->
<g id="edge15_Node000013_Node000014" class="edge">
<title>Node13&#45;&gt;Node14</title>
<g id="a_edge15_Node000013_Node000014"><a xlink:title=" ">
<path fill="none" stroke="#63b8ff" d="M28.19,-219.84C28.88,-206.77 31.83,-181.73 44,-165 53.94,-151.33 69.49,-140.9 83.5,-133.59"/>
<polygon fill="#63b8ff" stroke="#63b8ff" points="85.41,-136.55 92.86,-129.02 82.34,-130.26 85.41,-136.55"/>
</a>
</g>
</g>
<!-- Node15&#45;&gt;Node5 -->
<g id="edge19_Node000015_Node000005" class="edge">
<title>Node15&#45;&gt;Node5</title>
<g id="a_edge19_Node000015_Node000005"><a xlink:title=" ">
<path fill="none" stroke="#63b8ff" d="M250.74,-219.98C212.13,-210.1 148.84,-193.89 110.24,-184.01"/>
<polygon fill="#63b8ff" stroke="#63b8ff" points="111.07,-180.61 100.52,-181.52 109.34,-187.39 111.07,-180.61"/>
</a>
</g>
</g>
<!-- Node16 -->
<g id="Node000016" class="node">
<title>Node16</title>
<g id="a_Node000016"><a xlink:title=" ">
<polygon fill="#e0e0e0" stroke="#999999" points="303,-184 271,-184 271,-165 303,-165 303,-184"/>
<text text-anchor="middle" x="287" y="-172" font-family="Helvetica,sans-Serif" font-size="10.00">list</text>
</a>
</g>
</g>
<!-- Node15&#45;&gt;Node16 -->
<g id="edge17_Node000015_Node000016" class="edge">
<title>Node15&#45;&gt;Node16</title>
<g id="a_edge17_Node000015_Node000016"><a xlink:title=" ">
<path fill="none" stroke="#63b8ff" d="M284.5,-219.75C284.89,-212.8 285.45,-202.85 285.95,-194.13"/>
<polygon fill="#63b8ff" stroke="#63b8ff" points="289.44,-194.27 286.51,-184.09 282.45,-193.88 289.44,-194.27"/>
</a>
</g>
</g>
<!-- Node17 -->
<g id="Node000017" class="node">
<title>Node17</title>
<g id="a_Node000017"><a xlink:title=" ">
<polygon fill="#e0e0e0" stroke="#999999" points="552.5,-184 459.5,-184 459.5,-165 552.5,-165 552.5,-184"/>
<text text-anchor="middle" x="506" y="-172" font-family="Helvetica,sans-Serif" font-size="10.00">unordered_map</text>
</a>
</g>
</g>
<!-- Node15&#45;&gt;Node17 -->
<g id="edge18_Node000015_Node000017" class="edge">
<title>Node15&#45;&gt;Node17</title>
<g id="a_edge18_Node000015_Node000017"><a xlink:title=" ">
<path fill="none" stroke="#63b8ff" d="M319.67,-219.98C357.83,-210.87 418.47,-196.4 460.15,-186.45"/>
<polygon fill="#63b8ff" stroke="#63b8ff" points="461.14,-189.81 470.05,-184.08 459.51,-183 461.14,-189.81"/>
</a>
</g>
</g>
<!-- Node18 -->
<g id="Node000018" class="node">
<title>Node18</title>
<g id="a_Node000018"><a xlink:href="memory__units_8h.html" target="_top" xlink:title=" ">
<polygon fill="white" stroke="#666666" points="253,-184 157,-184 157,-165 253,-165 253,-184"/>
<text text-anchor="middle" x="205" y="-172" font-family="Helvetica,sans-Serif" font-size="10.00">memory_units.h</text>
</a>
</g>
</g>
<!-- Node15&#45;&gt;Node18 -->
<g id="edge20_Node000015_Node000018" class="edge">
<title>Node15&#45;&gt;Node18</title>
<g id="a_edge20_Node000015_Node000018"><a xlink:title=" ">
<path fill="none" stroke="#63b8ff" d="M271.31,-219.98C259.17,-211.84 240.64,-199.41 226.25,-189.76"/>
<polygon fill="#63b8ff" stroke="#63b8ff" points="228.18,-186.84 217.92,-184.17 224.28,-192.65 228.18,-186.84"/>
</a>
</g>
</g>
<!-- Node19 -->
<g id="Node000019" class="node">
<title>Node19</title>
<g id="a_Node000019"><a xlink:href="string__hash_8h.html" target="_top" xlink:title="string hashing">
<polygon fill="white" stroke="#666666" points="403,-184 321,-184 321,-165 403,-165 403,-184"/>
<text text-anchor="middle" x="362" y="-172" font-family="Helvetica,sans-Serif" font-size="10.00">string_hash.h</text>
</a>
</g>
</g>
<!-- Node15&#45;&gt;Node19 -->
<g id="edge23_Node000015_Node000019" class="edge">
<title>Node15&#45;&gt;Node19</title>
<g id="a_edge23_Node000015_Node000019"><a xlink:title=" ">
<path fill="none" stroke="#63b8ff" d="M296.53,-219.98C308.4,-211.92 326.46,-199.65 340.61,-190.03"/>
<polygon fill="#63b8ff" stroke="#63b8ff" points="342.94,-192.69 349.24,-184.17 339,-186.9 342.94,-192.69"/>
</a>
</g>
</g>
<!-- Node18&#45;&gt;Node4 -->
<g id="edge22_Node000018_Node000004" class="edge">
<title>Node18&#45;&gt;Node4</title>
<g id="a_edge22_Node000018_Node000004"><a xlink:title=" ">
<path fill="none" stroke="#63b8ff" d="M235.69,-164.98C270.82,-155.24 328.09,-139.34 363.83,-129.43"/>
<polygon fill="#63b8ff" stroke="#63b8ff" points="365.04,-132.72 373.74,-126.68 363.17,-125.98 365.04,-132.72"/>
</a>
</g>
</g>
<!-- Node18&#45;&gt;Node14 -->
<g id="edge21_Node000018_Node000014" class="edge">
<title>Node18&#45;&gt;Node14</title>
<g id="a_edge21_Node000018_Node000014"><a xlink:title=" ">
<path fill="none" stroke="#63b8ff" d="M190.54,-164.98C176.58,-156.77 155.21,-144.18 138.75,-134.49"/>
<polygon fill="#63b8ff" stroke="#63b8ff" points="140.12,-131.23 129.72,-129.17 136.56,-137.26 140.12,-131.23"/>
</a>
</g>
</g>
<!-- Node19&#45;&gt;Node4 -->
<g id="edge24_Node000019_Node000004" class="edge">
<title>Node19&#45;&gt;Node4</title>
<g id="a_edge24_Node000019_Node000004"><a xlink:title=" ">
<path fill="none" stroke="#63b8ff" d="M367.61,-164.75C372.32,-157.42 379.17,-146.73 384.97,-137.7"/>
<polygon fill="#63b8ff" stroke="#63b8ff" points="388.04,-139.4 390.49,-129.09 382.14,-135.62 388.04,-139.4"/>
</a>
</g>
</g>
<!-- Node22 -->
<g id="Node000022" class="node">
<title>Node22</title>
<g id="a_Node000022"><a xlink:title=" ">
<polygon fill="#e0e0e0" stroke="#999999" points="653,-239 589,-239 589,-220 653,-220 653,-239"/>
<text text-anchor="middle" x="621" y="-227" font-family="Helvetica,sans-Serif" font-size="10.00">algorithm</text>
</a>
</g>
</g>
<!-- Node21&#45;&gt;Node22 -->
<g id="edge27_Node000021_Node000022" class="edge">
<title>Node21&#45;&gt;Node22</title>
<g id="a_edge27_Node000021_Node000022"><a xlink:title=" ">
<path fill="none" stroke="#63b8ff" d="M638.53,-274.75C635.72,-267.65 631.66,-257.4 628.15,-248.56"/>
<polygon fill="#63b8ff" stroke="#63b8ff" points="631.34,-247.1 624.4,-239.09 624.83,-249.68 631.34,-247.1"/>
</a>
</g>
</g>
<!-- Node23 -->
<g id="Node000023" class="node">
<title>Node23</title>
<g id="a_Node000023"><a xlink:title=" ">
<polygon fill="#e0e0e0" stroke="#999999" points="571,-239 497,-239 497,-220 571,-220 571,-239"/>
<text text-anchor="middle" x="534" y="-227" font-family="Helvetica,sans-Serif" font-size="10.00">forward_list</text>
</a>
</g>
</g>
<!-- Node21&#45;&gt;Node23 -->
<g id="edge28_Node000021_Node000023" class="edge">
<title>Node21&#45;&gt;Node23</title>
<g id="a_edge28_Node000021_Node000023"><a xlink:title=" ">
<path fill="none" stroke="#63b8ff" d="M624.65,-274.98C607.43,-266.54 580.8,-253.47 560.85,-243.68"/>
<polygon fill="#63b8ff" stroke="#63b8ff" points="562.19,-240.43 551.67,-239.17 559.1,-246.72 562.19,-240.43"/>
</a>
</g>
</g>
<!-- Node24 -->
<g id="Node000024" class="node">
<title>Node24</title>
<g id="a_Node000024"><a xlink:href="as__const_8h.html" target="_top" xlink:title=" ">
<polygon fill="white" stroke="#666666" points="1093,-129 1025,-129 1025,-110 1093,-110 1093,-129"/>
<text text-anchor="middle" x="1059" y="-117" font-family="Helvetica,sans-Serif" font-size="10.00">as_const.h</text>
</a>
</g>
</g>
<!-- Node21&#45;&gt;Node24 -->
<g id="edge29_Node000021_Node000024" class="edge">
<title>Node21&#45;&gt;Node24</title>
<g id="a_edge29_Node000021_Node000024"><a xlink:title=" ">
<path fill="none" stroke="#63b8ff" d="M705.86,-276.69C751.14,-270.43 812.73,-259 864,-239 933.45,-211.91 1006.17,-160.61 1039.82,-135.34"/>
<polygon fill="#63b8ff" stroke="#63b8ff" points="1042.03,-138.06 1047.87,-129.22 1037.79,-132.48 1042.03,-138.06"/>
</a>
</g>
</g>
<!-- Node25 -->
<g id="Node000025" class="node">
<title>Node25</title>
<g id="a_Node000025"><a xlink:href="narrow_8h.html" target="_top" xlink:title=" ">
<polygon fill="white" stroke="#666666" points="855.5,-239 796.5,-239 796.5,-220 855.5,-220 855.5,-239"/>
<text text-anchor="middle" x="826" y="-227" font-family="Helvetica,sans-Serif" font-size="10.00">narrow.h</text>
</a>
</g>
</g>
<!-- Node21&#45;&gt;Node25 -->
<g id="edge30_Node000021_Node000025" class="edge">
<title>Node21&#45;&gt;Node25</title>
<g id="a_edge30_Node000021_Node000025"><a xlink:title=" ">
<path fill="none" stroke="#63b8ff" d="M671.56,-274.98C702.72,-266.01 751.97,-251.82 786.46,-241.89"/>
<polygon fill="#63b8ff" stroke="#63b8ff" points="787.57,-245.21 796.21,-239.08 785.63,-238.49 787.57,-245.21"/>
</a>
</g>
</g>
<!-- Node25&#45;&gt;Node6 -->
<g id="edge32_Node000025_Node000006" class="edge">
<title>Node25&#45;&gt;Node6</title>
<g id="a_edge32_Node000025_Node000006"><a xlink:title=" ">
<path fill="none" stroke="#63b8ff" d="M835.16,-219.98C843.5,-212.23 856.03,-200.58 866.18,-191.14"/>
<polygon fill="#63b8ff" stroke="#63b8ff" points="868.74,-193.54 873.68,-184.17 863.97,-188.42 868.74,-193.54"/>
</a>
</g>
</g>
<!-- Node25&#45;&gt;Node9 -->
<g id="edge31_Node000025_Node000009" class="edge">
<title>Node25&#45;&gt;Node9</title>
<g id="a_edge31_Node000025_Node000009"><a xlink:title=" ">
<path fill="none" stroke="#63b8ff" d="M824.58,-219.89C820.6,-192.71 811.93,-107.4 850,-55 858.79,-42.9 871.75,-32.42 883.09,-24.68"/>
<polygon fill="#63b8ff" stroke="#63b8ff" points="885.24,-27.46 891.72,-19.08 881.43,-21.58 885.24,-27.46"/>
</a>
</g>
</g>
<!-- Node27 -->
<g id="Node000027" class="node">
<title>Node27</title>
<g id="a_Node000027"><a xlink:href="deprecate_8h.html" target="_top" xlink:title=" ">
<polygon fill="white" stroke="#666666" points="975,-404 901,-404 901,-385 975,-385 975,-404"/>
<text text-anchor="middle" x="938" y="-392" font-family="Helvetica,sans-Serif" font-size="10.00">deprecate.h</text>
</a>
</g>
</g>
<!-- Node26&#45;&gt;Node27 -->
<g id="edge34_Node000026_Node000027" class="edge">
<title>Node26&#45;&gt;Node27</title>
<g id="a_edge34_Node000026_Node000027"><a xlink:title=" ">
<path fill="none" stroke="#63b8ff" d="M934.66,-439.75C935.18,-432.8 935.94,-422.85 936.59,-414.13"/>
<polygon fill="#63b8ff" stroke="#63b8ff" points="940.09,-414.32 937.35,-404.09 933.11,-413.8 940.09,-414.32"/>
</a>
</g>
</g>
<!-- Node28 -->
<g id="Node000028" class="node">
<title>Node28</title>
<g id="a_Node000028"><a xlink:href="pointer__expr_8h.html" target="_top" xlink:title="API to expression classes for Pointers.">
<polygon fill="white" stroke="#666666" points="1117,-404 1031,-404 1031,-385 1117,-385 1117,-404"/>
<text text-anchor="middle" x="1074" y="-392" font-family="Helvetica,sans-Serif" font-size="10.00">pointer_expr.h</text>
</a>
</g>
</g>
<!-- Node26&#45;&gt;Node28 -->
<g id="edge35_Node000026_Node000028" class="edge">
<title>Node26&#45;&gt;Node28</title>
<g id="a_edge35_Node000026_Node000028"><a xlink:title=" ">
<path fill="none" stroke="#63b8ff" d="M956.49,-439.98C979.52,-431.27 1015.54,-417.63 1041.63,-407.75"/>
<polygon fill="#63b8ff" stroke="#63b8ff" points="1042.98,-410.98 1051.1,-404.17 1040.51,-404.44 1042.98,-410.98"/>
</a>
</g>
</g>
<!-- Node29 -->
<g id="Node000029" class="node">
<title>Node29</title>
<g id="a_Node000029"><a xlink:href="bitvector__types_8h.html" target="_top" xlink:title="Pre&#45;defined bitvector types.">
<polygon fill="white" stroke="#666666" points="1217.5,-349 1116.5,-349 1116.5,-330 1217.5,-330 1217.5,-349"/>
<text text-anchor="middle" x="1167" y="-337" font-family="Helvetica,sans-Serif" font-size="10.00">bitvector_types.h</text>
</a>
</g>
</g>
<!-- Node28&#45;&gt;Node29 -->
<g id="edge36_Node000028_Node000029" class="edge">
<title>Node28&#45;&gt;Node29</title>
<g id="a_edge36_Node000028_Node000029"><a xlink:title=" ">
<path fill="none" stroke="#63b8ff" d="M1088.94,-384.98C1103.5,-376.69 1125.87,-363.94 1142.93,-354.22"/>
<polygon fill="#63b8ff" stroke="#63b8ff" points="1144.83,-357.16 1151.79,-349.17 1141.36,-351.08 1144.83,-357.16"/>
</a>
</g>
</g>
<!-- Node45 -->
<g id="Node000045" class="node">
<title>Node45</title>
<g id="a_Node000045"><a xlink:href="std__expr_8h.html" target="_top" xlink:title="API to expression classes.">
<polygon fill="white" stroke="#666666" points="1098.5,-349 1031.5,-349 1031.5,-330 1098.5,-330 1098.5,-349"/>
<text text-anchor="middle" x="1065" y="-337" font-family="Helvetica,sans-Serif" font-size="10.00">std_expr.h</text>
</a>
</g>
</g>
<!-- Node28&#45;&gt;Node45 -->
<g id="edge63_Node000028_Node000045" class="edge">
<title>Node28&#45;&gt;Node45</title>
<g id="a_edge63_Node000028_Node000045"><a xlink:title=" ">
<path fill="none" stroke="#63b8ff" d="M1072.51,-384.75C1071.33,-377.8 1069.64,-367.85 1068.16,-359.13"/>
<polygon fill="#63b8ff" stroke="#63b8ff" points="1071.58,-358.36 1066.46,-349.09 1064.68,-359.53 1071.58,-358.36"/>
</a>
</g>
</g>
<!-- Node29&#45;&gt;Node30 -->
<g id="edge37_Node000029_Node000030" class="edge">
<title>Node29&#45;&gt;Node30</title>
<g id="a_edge37_Node000029_Node000030"><a xlink:title=" ">
<path fill="none" stroke="#63b8ff" d="M1159.4,-329.75C1152.84,-322.18 1143.18,-311.05 1135.19,-301.84"/>
<polygon fill="#63b8ff" stroke="#63b8ff" points="1137.65,-299.35 1128.45,-294.09 1132.37,-303.94 1137.65,-299.35"/>
</a>
</g>
</g>
<!-- Node30&#45;&gt;Node6 -->
<g id="edge56_Node000030_Node000006" class="edge">
<title>Node30&#45;&gt;Node6</title>
<g id="a_edge56_Node000030_Node000006"><a xlink:title=" ">
<path fill="none" stroke="#63b8ff" d="M1114.47,-274.64C1103.81,-260.81 1081.29,-234.24 1056,-220 1016.03,-197.5 964.5,-186.14 928.11,-180.57"/>
<polygon fill="#63b8ff" stroke="#63b8ff" points="928.2,-177.04 917.8,-179.08 927.2,-183.97 928.2,-177.04"/>
</a>
</g>
</g>
<!-- Node30&#45;&gt;Node17 -->
<g id="edge62_Node000030_Node000017" class="edge">
<title>Node30&#45;&gt;Node17</title>
<g id="a_edge62_Node000030_Node000017"><a xlink:title=" ">
<path fill="none" stroke="#63b8ff" d="M1084.4,-283.98C1010.27,-284 837.74,-279.28 700,-239 681.88,-233.7 679.6,-226.84 662,-220 626.23,-206.1 584.35,-194.39 552.99,-186.47"/>
<polygon fill="#63b8ff" stroke="#63b8ff" points="553.75,-183.06 543.2,-184.04 552.06,-189.85 553.75,-183.06"/>
</a>
</g>
</g>
<!-- Node31 -->
<g id="Node000031" class="node">
<title>Node31</title>
<g id="a_Node000031"><a xlink:href="expr_8h.html" target="_top" xlink:title=" ">
<polygon fill="white" stroke="#666666" points="1247.5,-184 1200.5,-184 1200.5,-165 1247.5,-165 1247.5,-184"/>
<text text-anchor="middle" x="1224" y="-172" font-family="Helvetica,sans-Serif" font-size="10.00">expr.h</text>
</a>
</g>
</g>
<!-- Node30&#45;&gt;Node31 -->
<g id="edge38_Node000030_Node000031" class="edge">
<title>Node30&#45;&gt;Node31</title>
<g id="a_edge38_Node000030_Node000031"><a xlink:title=" ">
<path fill="none" stroke="#63b8ff" d="M1128.74,-274.74C1139.74,-262.38 1160.58,-239.16 1179,-220 1188.33,-210.3 1199.03,-199.69 1207.66,-191.27"/>
<polygon fill="#63b8ff" stroke="#63b8ff" points="1210.17,-193.71 1214.9,-184.23 1205.29,-188.69 1210.17,-193.71"/>
</a>
</g>
</g>
<!-- Node35 -->
<g id="Node000035" class="node">
<title>Node35</title>
<g id="a_Node000035"><a xlink:href="validate_8h.html" target="_top" xlink:title=" ">
<polygon fill="#fff0f0" stroke="red" points="1153.5,-74 1088.5,-74 1088.5,-55 1153.5,-55 1153.5,-74"/>
<text text-anchor="middle" x="1121" y="-62" font-family="Helvetica,sans-Serif" font-size="10.00">validate.h</text>
</a>
</g>
</g>
<!-- Node30&#45;&gt;Node35 -->
<g id="edge61_Node000030_Node000035" class="edge">
<title>Node30&#45;&gt;Node35</title>
<g id="a_edge61_Node000030_Node000035"><a xlink:title=" ">
<path fill="none" stroke="#63b8ff" d="M1121,-274.95C1121,-242.95 1121,-129.68 1121,-84.4"/>
<polygon fill="#63b8ff" stroke="#63b8ff" points="1124.5,-84.22 1121,-74.22 1117.5,-84.22 1124.5,-84.22"/>
</a>
</g>
</g>
<!-- Node41 -->
<g id="Node000041" class="node">
<title>Node41</title>
<g id="a_Node000041"><a xlink:href="expr__cast_8h.html" target="_top" xlink:title="Templated functions to cast to specific exprt&#45;derived classes.">
<polygon fill="white" stroke="#666666" points="1260.5,-239 1187.5,-239 1187.5,-220 1260.5,-220 1260.5,-239"/>
<text text-anchor="middle" x="1224" y="-227" font-family="Helvetica,sans-Serif" font-size="10.00">expr_cast.h</text>
</a>
</g>
</g>
<!-- Node30&#45;&gt;Node41 -->
<g id="edge50_Node000030_Node000041" class="edge">
<title>Node30&#45;&gt;Node41</title>
<g id="a_edge50_Node000030_Node000041"><a xlink:title=" ">
<path fill="none" stroke="#63b8ff" d="M1137.55,-274.98C1153.89,-266.57 1179.13,-253.59 1198.13,-243.81"/>
<polygon fill="#63b8ff" stroke="#63b8ff" points="1199.86,-246.86 1207.15,-239.17 1196.66,-240.63 1199.86,-246.86"/>
</a>
</g>
</g>
<!-- Node43 -->
<g id="Node000043" class="node">
<title>Node43</title>
<g id="a_Node000043"><a xlink:href="mp__arith_8h.html" target="_top" xlink:title=" ">
<polygon fill="white" stroke="#666666" points="778.5,-239 709.5,-239 709.5,-220 778.5,-220 778.5,-239"/>
<text text-anchor="middle" x="744" y="-227" font-family="Helvetica,sans-Serif" font-size="10.00">mp_arith.h</text>
</a>
</g>
</g>
<!-- Node30&#45;&gt;Node43 -->
<g id="edge57_Node000030_Node000043" class="edge">
<title>Node30&#45;&gt;Node43</title>
<g id="a_edge57_Node000030_Node000043"><a xlink:title=" ">
<path fill="none" stroke="#63b8ff" d="M1084.32,-279.38C1024.45,-272.48 901.84,-257.66 788.58,-239.18"/>
<polygon fill="#63b8ff" stroke="#63b8ff" points="789.14,-235.72 778.7,-237.55 788,-242.63 789.14,-235.72"/>
</a>
</g>
</g>
<!-- Node31&#45;&gt;Node24 -->
<g id="edge39_Node000031_Node000024" class="edge">
<title>Node31&#45;&gt;Node24</title>
<g id="a_edge39_Node000031_Node000024"><a xlink:title=" ">
<path fill="none" stroke="#63b8ff" d="M1200.36,-165.91C1172.94,-157.1 1127.42,-142.48 1095.46,-132.21"/>
<polygon fill="#63b8ff" stroke="#63b8ff" points="1096.19,-128.77 1085.6,-129.05 1094.05,-135.44 1096.19,-128.77"/>
</a>
</g>
</g>
<!-- Node32 -->
<g id="Node000032" class="node">
<title>Node32</title>
<g id="a_Node000032"><a xlink:href="type_8h.html" target="_top" xlink:title="Defines typet, type_with_subtypet and type_with_subtypest.">
<polygon fill="#fff0f0" stroke="red" points="1196.5,-129 1149.5,-129 1149.5,-110 1196.5,-110 1196.5,-129"/>
<text text-anchor="middle" x="1173" y="-117" font-family="Helvetica,sans-Serif" font-size="10.00">type.h</text>
</a>
</g>
</g>
<!-- Node31&#45;&gt;Node32 -->
<g id="edge40_Node000031_Node000032" class="edge">
<title>Node31&#45;&gt;Node32</title>
<g id="a_edge40_Node000031_Node000032"><a xlink:title=" ">
<path fill="none" stroke="#63b8ff" d="M1215.58,-164.75C1208.23,-157.11 1197.37,-145.82 1188.46,-136.56"/>
<polygon fill="#63b8ff" stroke="#63b8ff" points="1190.72,-133.87 1181.26,-129.09 1185.68,-138.72 1190.72,-133.87"/>
</a>
</g>
</g>
<!-- Node37 -->
<g id="Node000037" class="node">
<title>Node37</title>
<g id="a_Node000037"><a xlink:href="validation__mode_8h.html" target="_top" xlink:title=" ">
<polygon fill="white" stroke="#666666" points="1235.5,-19 1128.5,-19 1128.5,0 1235.5,0 1235.5,-19"/>
<text text-anchor="middle" x="1182" y="-7" font-family="Helvetica,sans-Serif" font-size="10.00">validation_mode.h</text>
</a>
</g>
</g>
<!-- Node31&#45;&gt;Node37 -->
<g id="edge48_Node000031_Node000037" class="edge">
<title>Node31&#45;&gt;Node37</title>
<g id="a_edge48_Node000031_Node000037"><a xlink:title=" ">
<path fill="none" stroke="#63b8ff" d="M1247.67,-166.97C1287.59,-155.86 1364.33,-133.97 1368,-129 1373.01,-122.2 1369.05,-118.38 1368,-110 1364.86,-84.97 1371.8,-72.87 1354,-55 1325.75,-26.64 1281.93,-15.59 1245.59,-11.6"/>
<polygon fill="#63b8ff" stroke="#63b8ff" points="1245.84,-8.11 1235.56,-10.65 1245.18,-15.08 1245.84,-8.11"/>
</a>
</g>
</g>
<!-- Node38 -->
<g id="Node000038" class="node">
<title>Node38</title>
<g id="a_Node000038"><a xlink:href="validate__types_8h.html" target="_top" xlink:title=" ">
<polygon fill="white" stroke="#666666" points="1345,-74 1247,-74 1247,-55 1345,-55 1345,-74"/>
<text text-anchor="middle" x="1296" y="-62" font-family="Helvetica,sans-Serif" font-size="10.00">validate_types.h</text>
</a>
</g>
</g>
<!-- Node31&#45;&gt;Node38 -->
<g id="edge47_Node000031_Node000038" class="edge">
<title>Node31&#45;&gt;Node38</title>
<g id="a_edge47_Node000031_Node000038"><a xlink:title=" ">
<path fill="none" stroke="#63b8ff" d="M1247.66,-166.94C1283.15,-156.88 1346.69,-137.85 1353,-129 1366.18,-110.51 1343.13,-91.39 1322.52,-79.03"/>
<polygon fill="#63b8ff" stroke="#63b8ff" points="1324.08,-75.89 1313.65,-74.01 1320.63,-81.98 1324.08,-75.89"/>
</a>
</g>
</g>
<!-- Node39 -->
<g id="Node000039" class="node">
<title>Node39</title>
<g id="a_Node000039"><a xlink:href="validate__expressions_8h.html" target="_top" xlink:title=" ">
<polygon fill="white" stroke="#666666" points="1343.5,-129 1214.5,-129 1214.5,-110 1343.5,-110 1343.5,-129"/>
<text text-anchor="middle" x="1279" y="-117" font-family="Helvetica,sans-Serif" font-size="10.00">validate_expressions.h</text>
</a>
</g>
</g>
<!-- Node31&#45;&gt;Node39 -->
<g id="edge46_Node000031_Node000039" class="edge">
<title>Node31&#45;&gt;Node39</title>
<g id="a_edge46_Node000031_Node000039"><a xlink:title=" ">
<path fill="none" stroke="#63b8ff" d="M1233.08,-164.75C1241.09,-157.03 1252.96,-145.6 1262.62,-136.28"/>
<polygon fill="#63b8ff" stroke="#63b8ff" points="1265.31,-138.55 1270.09,-129.09 1260.46,-133.51 1265.31,-138.55"/>
</a>
</g>
</g>
<!-- Node40 -->
<g id="Node000040" class="node">
<title>Node40</title>
<g id="a_Node000040"><a xlink:title=" ">
<polygon fill="#e0e0e0" stroke="#999999" points="1503.5,-129 1438.5,-129 1438.5,-110 1503.5,-110 1503.5,-129"/>
<text text-anchor="middle" x="1471" y="-117" font-family="Helvetica,sans-Serif" font-size="10.00">functional</text>
</a>
</g>
</g>
<!-- Node31&#45;&gt;Node40 -->
<g id="edge49_Node000031_Node000040" class="edge">
<title>Node31&#45;&gt;Node40</title>
<g id="a_edge49_Node000031_Node000040"><a xlink:title=" ">
<path fill="none" stroke="#63b8ff" d="M1247.76,-167.24C1250.86,-166.46 1254,-165.7 1257,-165 1316.2,-151.23 1385.08,-137.27 1428.37,-128.75"/>
<polygon fill="#63b8ff" stroke="#63b8ff" points="1429.13,-132.17 1438.27,-126.81 1427.78,-125.3 1429.13,-132.17"/>
</a>
</g>
</g>
<!-- Node32&#45;&gt;Node35 -->
<g id="edge41_Node000032_Node000035" class="edge">
<title>Node32&#45;&gt;Node35</title>
<g id="a_edge41_Node000032_Node000035"><a xlink:title=" ">
<path fill="none" stroke="#63b8ff" d="M1164.41,-109.75C1156.84,-102.03 1145.62,-90.6 1136.49,-81.28"/>
<polygon fill="#63b8ff" stroke="#63b8ff" points="1138.93,-78.78 1129.43,-74.09 1133.93,-83.68 1138.93,-78.78"/>
</a>
</g>
</g>
<!-- Node32&#45;&gt;Node37 -->
<g id="edge45_Node000032_Node000037" class="edge">
<title>Node32&#45;&gt;Node37</title>
<g id="a_edge45_Node000032_Node000037"><a xlink:title=" ">
<path fill="none" stroke="#63b8ff" d="M1173.74,-109.66C1175.19,-92.17 1178.47,-52.8 1180.44,-29.27"/>
<polygon fill="#63b8ff" stroke="#63b8ff" points="1183.94,-29.41 1181.28,-19.16 1176.96,-28.83 1183.94,-29.41"/>
</a>
</g>
</g>
<!-- Node32&#45;&gt;Node38 -->
<g id="edge44_Node000032_Node000038" class="edge">
<title>Node32&#45;&gt;Node38</title>
<g id="a_edge44_Node000032_Node000038"><a xlink:title=" ">
<path fill="none" stroke="#63b8ff" d="M1192.76,-109.98C1212.73,-101.38 1243.8,-87.99 1266.65,-78.15"/>
<polygon fill="#63b8ff" stroke="#63b8ff" points="1268.08,-81.34 1275.88,-74.17 1265.31,-74.91 1268.08,-81.34"/>
</a>
</g>
</g>
<!-- Node35&#45;&gt;Node9 -->
<g id="edge42_Node000035_Node000009" class="edge">
<title>Node35&#45;&gt;Node9</title>
<g id="a_edge42_Node000035_Node000009"><a xlink:title=" ">
<path fill="none" stroke="#63b8ff" d="M1088.5,-55.45C1051.96,-46.4 992.4,-31.65 951.54,-21.53"/>
<polygon fill="#63b8ff" stroke="#63b8ff" points="952.13,-18.07 941.59,-19.07 950.45,-24.87 952.13,-18.07"/>
</a>
</g>
</g>
<!-- Node35&#45;&gt;Node37 -->
<g id="edge43_Node000035_Node000037" class="edge">
<title>Node35&#45;&gt;Node37</title>
<g id="a_edge43_Node000035_Node000037"><a xlink:title=" ">
<path fill="none" stroke="#63b8ff" d="M1130.8,-54.98C1139.82,-47.15 1153.41,-35.34 1164.32,-25.86"/>
<polygon fill="#63b8ff" stroke="#63b8ff" points="1166.77,-28.37 1172.02,-19.17 1162.18,-23.09 1166.77,-28.37"/>
</a>
</g>
</g>
<!-- Node41&#45;&gt;Node6 -->
<g id="edge54_Node000041_Node000006" class="edge">
<title>Node41&#45;&gt;Node6</title>
<g id="a_edge54_Node000041_Node000006"><a xlink:title=" ">
<path fill="none" stroke="#63b8ff" d="M1187.18,-222.78C1124.12,-212.98 995.66,-193.01 927.61,-182.43"/>
<polygon fill="#63b8ff" stroke="#63b8ff" points="928.04,-178.96 917.62,-180.88 926.97,-185.88 928.04,-178.96"/>
</a>
</g>
</g>
<!-- Node41&#45;&gt;Node9 -->
<g id="edge52_Node000041_Node000009" class="edge">
<title>Node41&#45;&gt;Node9</title>
<g id="a_edge52_Node000041_Node000009"><a xlink:title=" ">
<path fill="none" stroke="#63b8ff" d="M1198.62,-219.94C1157.65,-205.38 1075.55,-173.03 1016,-129 975.36,-98.95 937.76,-52.24 919.17,-27.39"/>
<polygon fill="#63b8ff" stroke="#63b8ff" points="921.96,-25.28 913.21,-19.3 916.32,-29.43 921.96,-25.28"/>
</a>
</g>
</g>
<!-- Node41&#45;&gt;Node31 -->
<g id="edge55_Node000041_Node000031" class="edge">
<title>Node41&#45;&gt;Node31</title>
<g id="a_edge55_Node000041_Node000031"><a xlink:title=" ">
<path fill="none" stroke="#63b8ff" d="M1224,-219.75C1224,-212.8 1224,-202.85 1224,-194.13"/>
<polygon fill="#63b8ff" stroke="#63b8ff" points="1227.5,-194.09 1224,-184.09 1220.5,-194.09 1227.5,-194.09"/>
</a>
</g>
</g>
<!-- Node41&#45;&gt;Node40 -->
<g id="edge53_Node000041_Node000040" class="edge">
<title>Node41&#45;&gt;Node40</title>
<g id="a_edge53_Node000041_Node000040"><a xlink:title=" ">
<path fill="none" stroke="#63b8ff" d="M1245.62,-219.87C1267.49,-211.08 1302.24,-196.92 1332,-184 1370.97,-167.08 1415.57,-146.48 1443.51,-133.43"/>
<polygon fill="#63b8ff" stroke="#63b8ff" points="1445.09,-136.55 1452.66,-129.14 1442.12,-130.21 1445.09,-136.55"/>
</a>
</g>
</g>
<!-- Node42 -->
<g id="Node000042" class="node">
<title>Node42</title>
<g id="a_Node000042"><a xlink:title=" ">
<polygon fill="#e0e0e0" stroke="#999999" points="1322.5,-184 1265.5,-184 1265.5,-165 1322.5,-165 1322.5,-184"/>
<text text-anchor="middle" x="1294" y="-172" font-family="Helvetica,sans-Serif" font-size="10.00">typeinfo</text>
</a>
</g>
</g>
<!-- Node41&#45;&gt;Node42 -->
<g id="edge51_Node000041_Node000042" class="edge">
<title>Node41&#45;&gt;Node42</title>
<g id="a_edge51_Node000041_Node000042"><a xlink:title=" ">
<path fill="none" stroke="#63b8ff" d="M1235.25,-219.98C1245.8,-212 1261.8,-199.88 1274.44,-190.31"/>
<polygon fill="#63b8ff" stroke="#63b8ff" points="1276.69,-193 1282.55,-184.17 1272.46,-187.42 1276.69,-193"/>
</a>
</g>
</g>
<!-- Node43&#45;&gt;Node4 -->
<g id="edge59_Node000043_Node000004" class="edge">
<title>Node43&#45;&gt;Node4</title>
<g id="a_edge59_Node000043_Node000004"><a xlink:title=" ">
<path fill="none" stroke="#63b8ff" d="M728.73,-219.79C699.69,-203.29 638.48,-168.77 628,-165 559.22,-140.27 473.77,-128.41 428.19,-123.48"/>
<polygon fill="#63b8ff" stroke="#63b8ff" points="428.34,-119.98 418.03,-122.42 427.61,-126.94 428.34,-119.98"/>
</a>
</g>
</g>
<!-- Node43&#45;&gt;Node12 -->
<g id="edge58_Node000043_Node000012" class="edge">
<title>Node43&#45;&gt;Node12</title>
<g id="a_edge58_Node000043_Node000012"><a xlink:title=" ">
<path fill="none" stroke="#63b8ff" d="M720.06,-219.98C695.44,-211.23 656.88,-197.51 629.08,-187.62"/>
<polygon fill="#63b8ff" stroke="#63b8ff" points="629.97,-184.22 619.38,-184.17 627.62,-190.82 629.97,-184.22"/>
</a>
</g>
</g>
<!-- Node44 -->
<g id="Node000044" class="node">
<title>Node44</title>
<g id="a_Node000044"><a xlink:title=" ">
<polygon fill="#e0e0e0" stroke="#999999" points="769,-184 675,-184 675,-165 769,-165 769,-184"/>
<text text-anchor="middle" x="722" y="-172" font-family="Helvetica,sans-Serif" font-size="10.00">big&#45;int/bigint.hh</text>
</a>
</g>
</g>
<!-- Node43&#45;&gt;Node44 -->
<g id="edge60_Node000043_Node000044" class="edge">
<title>Node43&#45;&gt;Node44</title>
<g id="a_edge60_Node000043_Node000044"><a xlink:title=" ">
<path fill="none" stroke="#63b8ff" d="M740.37,-219.75C737.42,-212.65 733.17,-202.4 729.49,-193.56"/>
<polygon fill="#63b8ff" stroke="#63b8ff" points="732.63,-191.98 725.57,-184.09 726.17,-194.67 732.63,-191.98"/>
</a>
</g>
</g>
<!-- Node45&#45;&gt;Node6 -->
<g id="edge65_Node000045_Node000006" class="edge">
<title>Node45&#45;&gt;Node6</title>
<g id="a_edge65_Node000045_Node000006"><a xlink:title=" ">
<path fill="none" stroke="#63b8ff" d="M1064,-329.97C1061.01,-308.39 1050.19,-251.13 1017,-220 992.71,-197.23 956.48,-186.09 927.81,-180.66"/>
<polygon fill="#63b8ff" stroke="#63b8ff" points="928.08,-177.15 917.63,-178.9 926.89,-184.05 928.08,-177.15"/>
</a>
</g>
</g>
<!-- Node45&#45;&gt;Node30 -->
<g id="edge66_Node000045_Node000030" class="edge">
<title>Node45&#45;&gt;Node30</title>
<g id="a_edge66_Node000045_Node000030"><a xlink:title=" ">
<path fill="none" stroke="#63b8ff" d="M1074,-329.98C1082.19,-322.23 1094.51,-310.58 1104.47,-301.14"/>
<polygon fill="#63b8ff" stroke="#63b8ff" points="1106.98,-303.59 1111.84,-294.17 1102.17,-298.5 1106.98,-303.59"/>
</a>
</g>
</g>
<!-- Node45&#45;&gt;Node41 -->
<g id="edge64_Node000045_Node000041" class="edge">
<title>Node45&#45;&gt;Node41</title>
<g id="a_edge64_Node000045_Node000041"><a xlink:title=" ">
<path fill="none" stroke="#63b8ff" d="M1093.09,-329.91C1114.58,-322.5 1144.29,-310.4 1167,-294 1184.93,-281.05 1201.33,-261.61 1211.89,-247.65"/>
<polygon fill="#63b8ff" stroke="#63b8ff" points="1214.86,-249.53 1217.94,-239.39 1209.21,-245.39 1214.86,-249.53"/>
</a>
</g>
</g>
<!-- Node46&#45;&gt;Node3 -->
<g id="edge71_Node000046_Node000003" class="edge">
<title>Node46&#45;&gt;Node3</title>
<g id="a_edge71_Node000046_Node000003"><a xlink:title=" ">
<path fill="none" stroke="#63b8ff" d="M794.76,-439.98C763.94,-431.01 715.22,-416.82 681.11,-406.89"/>
<polygon fill="#63b8ff" stroke="#63b8ff" points="682.05,-403.52 671.47,-404.08 680.09,-410.24 682.05,-403.52"/>
</a>
</g>
</g>
<!-- Node46&#45;&gt;Node6 -->
<g id="edge70_Node000046_Node000006" class="edge">
<title>Node46&#45;&gt;Node6</title>
<g id="a_edge70_Node000046_Node000006"><a xlink:title=" ">
<path fill="none" stroke="#63b8ff" d="M827.35,-439.9C838.14,-411.68 871.94,-319.1 883,-239 885.06,-224.12 884.92,-207.08 884.35,-194.41"/>
<polygon fill="#63b8ff" stroke="#63b8ff" points="887.83,-193.96 883.75,-184.18 880.84,-194.37 887.83,-193.96"/>
</a>
</g>
</g>
<!-- Node46&#45;&gt;Node27 -->
<g id="edge69_Node000046_Node000027" class="edge">
<title>Node46&#45;&gt;Node27</title>
<g id="a_edge69_Node000046_Node000027"><a xlink:title=" ">
<path fill="none" stroke="#63b8ff" d="M842.32,-439.98C860.66,-431.46 889.11,-418.23 910.23,-408.41"/>
<polygon fill="#63b8ff" stroke="#63b8ff" points="911.76,-411.56 919.35,-404.17 908.81,-405.21 911.76,-411.56"/>
</a>
</g>
</g>
</g>
</svg>
