<?xml version="1.0" encoding="UTF-8" standalone="no"?>
<!DOCTYPE svg PUBLIC "-//W3C//DTD SVG 1.1//EN"
 "http://www.w3.org/Graphics/SVG/1.1/DTD/svg11.dtd">
<!-- Generated by graphviz version 2.43.0 (0)
 -->
<!-- Title: /home/runner/work/cbmc/cbmc/src/cpp/cpp_declarator_converter.h Pages: 1 -->
<svg width="874pt" height="126pt"
 viewBox="0.00 0.00 873.50 126.00" xmlns="http://www.w3.org/2000/svg" xmlns:xlink="http://www.w3.org/1999/xlink">
<g id="graph0" class="graph" transform="scale(1 1) rotate(0) translate(4 122)">
<title>/home/runner/work/cbmc/cbmc/src/cpp/cpp_declarator_converter.h</title>
<!-- Node1 -->
<g id="Node000001" class="node">
<title>Node1</title>
<g id="a_Node000001"><a xlink:title="C++ Language Type Checking.">
<polygon fill="#999999" stroke="#666666" points="511,-118 353,-118 353,-77 511,-77 511,-118"/>
<text text-anchor="start" x="361" y="-106" font-family="Helvetica,sans-Serif" font-size="10.00">/home/runner/work/cbmc</text>
<text text-anchor="start" x="361" y="-95" font-family="Helvetica,sans-Serif" font-size="10.00">/cbmc/src/cpp/cpp_declarator</text>
<text text-anchor="middle" x="432" y="-84" font-family="Helvetica,sans-Serif" font-size="10.00">_converter.h</text>
</a>
</g>
</g>
<!-- Node2 -->
<g id="Node000002" class="node">
<title>Node2</title>
<g id="a_Node000002"><a xlink:href="cpp__declarator__converter_8cpp.html" target="_top" xlink:title="C++ Language Type Checking.">
<polygon fill="white" stroke="#666666" points="158,-41 0,-41 0,0 158,0 158,-41"/>
<text text-anchor="start" x="8" y="-29" font-family="Helvetica,sans-Serif" font-size="10.00">/home/runner/work/cbmc</text>
<text text-anchor="start" x="8" y="-18" font-family="Helvetica,sans-Serif" font-size="10.00">/cbmc/src/cpp/cpp_declarator</text>
<text text-anchor="middle" x="79" y="-7" font-family="Helvetica,sans-Serif" font-size="10.00">_converter.cpp</text>
</a>
</g>
</g>
<!-- Node1&#45;&gt;Node2 -->
<g id="edge1_Node000001_Node000002" class="edge">
<title>Node1&#45;&gt;Node2</title>
<g id="a_edge1_Node000001_Node000002"><a xlink:title=" ">
<path fill="none" stroke="#63b8ff" d="M342.98,-78.27C291.27,-67.59 224.91,-53.75 166,-41 163.43,-40.44 160.81,-39.87 158.18,-39.3"/>
<polygon fill="#63b8ff" stroke="#63b8ff" points="342.29,-81.7 352.79,-80.29 343.7,-74.84 342.29,-81.7"/>
</a>
</g>
</g>
<!-- Node3 -->
<g id="Node000003" class="node">
<title>Node3</title>
<g id="a_Node000003"><a xlink:href="cpp__typecheck__code_8cpp.html" target="_top" xlink:title="C++ Language Type Checking.">
<polygon fill="white" stroke="#666666" points="334.5,-41 175.5,-41 175.5,0 334.5,0 334.5,-41"/>
<text text-anchor="start" x="183.5" y="-29" font-family="Helvetica,sans-Serif" font-size="10.00">/home/runner/work/cbmc</text>
<text text-anchor="start" x="183.5" y="-18" font-family="Helvetica,sans-Serif" font-size="10.00">/cbmc/src/cpp/cpp_typecheck</text>
<text text-anchor="middle" x="255" y="-7" font-family="Helvetica,sans-Serif" font-size="10.00">_code.cpp</text>
</a>
</g>
</g>
<!-- Node1&#45;&gt;Node3 -->
<g id="edge2_Node000001_Node000003" class="edge">
<title>Node1&#45;&gt;Node3</title>
<g id="a_edge2_Node000001_Node000003"><a xlink:title=" ">
<path fill="none" stroke="#63b8ff" d="M376.53,-73C352.29,-62.72 324.19,-50.82 301.12,-41.04"/>
<polygon fill="#63b8ff" stroke="#63b8ff" points="375.38,-76.31 385.96,-76.99 378.12,-69.87 375.38,-76.31"/>
</a>
</g>
</g>
<!-- Node4 -->
<g id="Node000004" class="node">
<title>Node4</title>
<g id="a_Node000004"><a xlink:href="cpp__typecheck__compound__type_8cpp.html" target="_top" xlink:title="C++ Language Type Checking.">
<polygon fill="white" stroke="#666666" points="511.5,-41 352.5,-41 352.5,0 511.5,0 511.5,-41"/>
<text text-anchor="start" x="360.5" y="-29" font-family="Helvetica,sans-Serif" font-size="10.00">/home/runner/work/cbmc</text>
<text text-anchor="start" x="360.5" y="-18" font-family="Helvetica,sans-Serif" font-size="10.00">/cbmc/src/cpp/cpp_typecheck</text>
<text text-anchor="middle" x="432" y="-7" font-family="Helvetica,sans-Serif" font-size="10.00">_compound_type.cpp</text>
</a>
</g>
</g>
<!-- Node1&#45;&gt;Node4 -->
<g id="edge3_Node000001_Node000004" class="edge">
<title>Node1&#45;&gt;Node4</title>
<g id="a_edge3_Node000001_Node000004"><a xlink:title=" ">
<path fill="none" stroke="#63b8ff" d="M432,-66.69C432,-58.08 432,-48.9 432,-41.07"/>
<polygon fill="#63b8ff" stroke="#63b8ff" points="428.5,-66.79 432,-76.79 435.5,-66.79 428.5,-66.79"/>
</a>
</g>
</g>
<!-- Node5 -->
<g id="Node000005" class="node">
<title>Node5</title>
<g id="a_Node000005"><a xlink:href="cpp__typecheck__declaration_8cpp.html" target="_top" xlink:title="C++ Language Type Checking.">
<polygon fill="white" stroke="#666666" points="688.5,-41 529.5,-41 529.5,0 688.5,0 688.5,-41"/>
<text text-anchor="start" x="537.5" y="-29" font-family="Helvetica,sans-Serif" font-size="10.00">/home/runner/work/cbmc</text>
<text text-anchor="start" x="537.5" y="-18" font-family="Helvetica,sans-Serif" font-size="10.00">/cbmc/src/cpp/cpp_typecheck</text>
<text text-anchor="middle" x="609" y="-7" font-family="Helvetica,sans-Serif" font-size="10.00">_declaration.cpp</text>
</a>
</g>
</g>
<!-- Node1&#45;&gt;Node5 -->
<g id="edge4_Node000001_Node000005" class="edge">
<title>Node1&#45;&gt;Node5</title>
<g id="a_edge4_Node000001_Node000005"><a xlink:title=" ">
<path fill="none" stroke="#63b8ff" d="M487.47,-73C511.71,-62.72 539.81,-50.82 562.88,-41.04"/>
<polygon fill="#63b8ff" stroke="#63b8ff" points="485.88,-69.87 478.04,-76.99 488.62,-76.31 485.88,-69.87"/>
</a>
</g>
</g>
<!-- Node6 -->
<g id="Node000006" class="node">
<title>Node6</title>
<g id="a_Node000006"><a xlink:href="cpp__typecheck__template_8cpp.html" target="_top" xlink:title="C++ Language Type Checking.">
<polygon fill="white" stroke="#666666" points="865.5,-41 706.5,-41 706.5,0 865.5,0 865.5,-41"/>
<text text-anchor="start" x="714.5" y="-29" font-family="Helvetica,sans-Serif" font-size="10.00">/home/runner/work/cbmc</text>
<text text-anchor="start" x="714.5" y="-18" font-family="Helvetica,sans-Serif" font-size="10.00">/cbmc/src/cpp/cpp_typecheck</text>
<text text-anchor="middle" x="786" y="-7" font-family="Helvetica,sans-Serif" font-size="10.00">_template.cpp</text>
</a>
</g>
</g>
<!-- Node1&#45;&gt;Node6 -->
<g id="edge5_Node000001_Node000006" class="edge">
<title>Node1&#45;&gt;Node6</title>
<g id="a_edge5_Node000001_Node000006"><a xlink:title=" ">
<path fill="none" stroke="#63b8ff" d="M521.01,-78.22C572.71,-67.52 639.07,-53.68 698,-41 700.75,-40.41 703.56,-39.8 706.38,-39.19"/>
<polygon fill="#63b8ff" stroke="#63b8ff" points="520.29,-74.79 511.2,-80.24 521.7,-81.65 520.29,-74.79"/>
</a>
</g>
</g>
</g>
</svg>
