<?xml version="1.0" encoding="UTF-8" standalone="no"?>
<!DOCTYPE svg PUBLIC "-//W3C//DTD SVG 1.1//EN"
 "http://www.w3.org/Graphics/SVG/1.1/DTD/svg11.dtd">
<!-- Generated by graphviz version 2.43.0 (0)
 -->
<!-- Title: /home/runner/work/cbmc/cbmc/src/cpp/cpp_scope.cpp Pages: 1 -->
<svg width="765pt" height="588pt"
 viewBox="0.00 0.00 764.99 588.00" xmlns="http://www.w3.org/2000/svg" xmlns:xlink="http://www.w3.org/1999/xlink">
<g id="graph0" class="graph" transform="scale(1 1) rotate(0) translate(4 584)">
<title>/home/runner/work/cbmc/cbmc/src/cpp/cpp_scope.cpp</title>
<!-- Node1 -->
<g id="Node000001" class="node">
<title>Node1</title>
<g id="a_Node000001"><a xlink:title="C++ Language Type Checking.">
<polygon fill="#999999" stroke="#666666" points="191,-580 33,-580 33,-550 191,-550 191,-580"/>
<text text-anchor="start" x="41" y="-568" font-family="Helvetica,sans-Serif" font-size="10.00">/home/runner/work/cbmc</text>
<text text-anchor="middle" x="112" y="-557" font-family="Helvetica,sans-Serif" font-size="10.00">/cbmc/src/cpp/cpp_scope.cpp</text>
</a>
</g>
</g>
<!-- Node2 -->
<g id="Node000002" class="node">
<title>Node2</title>
<g id="a_Node000002"><a xlink:href="cpp__scope_8h.html" target="_top" xlink:title="C++ Language Type Checking.">
<polygon fill="white" stroke="#666666" points="150.5,-514 73.5,-514 73.5,-495 150.5,-495 150.5,-514"/>
<text text-anchor="middle" x="112" y="-502" font-family="Helvetica,sans-Serif" font-size="10.00">cpp_scope.h</text>
</a>
</g>
</g>
<!-- Node1&#45;&gt;Node2 -->
<g id="edge1_Node000001_Node000002" class="edge">
<title>Node1&#45;&gt;Node2</title>
<g id="a_edge1_Node000001_Node000002"><a xlink:title=" ">
<path fill="none" stroke="#63b8ff" d="M112,-549.84C112,-542.21 112,-532.7 112,-524.45"/>
<polygon fill="#63b8ff" stroke="#63b8ff" points="115.5,-524.27 112,-514.27 108.5,-524.27 115.5,-524.27"/>
</a>
</g>
</g>
<!-- Node3 -->
<g id="Node000003" class="node">
<title>Node3</title>
<g id="a_Node000003"><a xlink:title=" ">
<polygon fill="#e0e0e0" stroke="#999999" points="48,-404 0,-404 0,-385 48,-385 48,-404"/>
<text text-anchor="middle" x="24" y="-392" font-family="Helvetica,sans-Serif" font-size="10.00">iosfwd</text>
</a>
</g>
</g>
<!-- Node2&#45;&gt;Node3 -->
<g id="edge2_Node000002_Node000003" class="edge">
<title>Node2&#45;&gt;Node3</title>
<g id="a_edge2_Node000002_Node000003"><a xlink:title=" ">
<path fill="none" stroke="#63b8ff" d="M104.33,-494.72C96.57,-485.81 84.31,-471.57 74,-459 61.13,-443.31 46.84,-425.08 36.85,-412.19"/>
<polygon fill="#63b8ff" stroke="#63b8ff" points="39.57,-409.99 30.69,-404.21 34.03,-414.27 39.57,-409.99"/>
</a>
</g>
</g>
<!-- Node4 -->
<g id="Node000004" class="node">
<title>Node4</title>
<g id="a_Node000004"><a xlink:title=" ">
<polygon fill="#e0e0e0" stroke="#999999" points="191,-459 159,-459 159,-440 191,-440 191,-459"/>
<text text-anchor="middle" x="175" y="-447" font-family="Helvetica,sans-Serif" font-size="10.00">set</text>
</a>
</g>
</g>
<!-- Node2&#45;&gt;Node4 -->
<g id="edge3_Node000002_Node000004" class="edge">
<title>Node2&#45;&gt;Node4</title>
<g id="a_edge3_Node000002_Node000004"><a xlink:title=" ">
<path fill="none" stroke="#63b8ff" d="M122.12,-494.98C131.44,-487.15 145.47,-475.34 156.74,-465.86"/>
<polygon fill="#63b8ff" stroke="#63b8ff" points="159.29,-468.29 164.69,-459.17 154.79,-462.93 159.29,-468.29"/>
</a>
</g>
</g>
<!-- Node5 -->
<g id="Node000005" class="node">
<title>Node5</title>
<g id="a_Node000005"><a xlink:href="cpp__id_8h.html" target="_top" xlink:title="C++ Language Type Checking.">
<polygon fill="white" stroke="#666666" points="140.5,-459 83.5,-459 83.5,-440 140.5,-440 140.5,-459"/>
<text text-anchor="middle" x="112" y="-447" font-family="Helvetica,sans-Serif" font-size="10.00">cpp_id.h</text>
</a>
</g>
</g>
<!-- Node2&#45;&gt;Node5 -->
<g id="edge4_Node000002_Node000005" class="edge">
<title>Node2&#45;&gt;Node5</title>
<g id="a_edge4_Node000002_Node000005"><a xlink:title=" ">
<path fill="none" stroke="#63b8ff" d="M112,-494.75C112,-487.8 112,-477.85 112,-469.13"/>
<polygon fill="#63b8ff" stroke="#63b8ff" points="115.5,-469.09 112,-459.09 108.5,-469.09 115.5,-469.09"/>
</a>
</g>
</g>
<!-- Node5&#45;&gt;Node3 -->
<g id="edge7_Node000005_Node000003" class="edge">
<title>Node5&#45;&gt;Node3</title>
<g id="a_edge7_Node000005_Node000003"><a xlink:title=" ">
<path fill="none" stroke="#63b8ff" d="M97.86,-439.98C84.21,-431.77 63.31,-419.18 47.22,-409.49"/>
<polygon fill="#63b8ff" stroke="#63b8ff" points="48.77,-406.33 38.4,-404.17 45.16,-412.33 48.77,-406.33"/>
</a>
</g>
</g>
<!-- Node6 -->
<g id="Node000006" class="node">
<title>Node6</title>
<g id="a_Node000006"><a xlink:title=" ">
<polygon fill="#e0e0e0" stroke="#999999" points="142,-404 104,-404 104,-385 142,-385 142,-404"/>
<text text-anchor="middle" x="123" y="-392" font-family="Helvetica,sans-Serif" font-size="10.00">map</text>
</a>
</g>
</g>
<!-- Node5&#45;&gt;Node6 -->
<g id="edge5_Node000005_Node000006" class="edge">
<title>Node5&#45;&gt;Node6</title>
<g id="a_edge5_Node000005_Node000006"><a xlink:title=" ">
<path fill="none" stroke="#63b8ff" d="M113.82,-439.75C115.26,-432.8 117.32,-422.85 119.13,-414.13"/>
<polygon fill="#63b8ff" stroke="#63b8ff" points="122.61,-414.59 121.22,-404.09 115.76,-413.17 122.61,-414.59"/>
</a>
</g>
</g>
<!-- Node7 -->
<g id="Node000007" class="node">
<title>Node7</title>
<g id="a_Node000007"><a xlink:title=" ">
<polygon fill="#e0e0e0" stroke="#999999" points="278,-19 234,-19 234,0 278,0 278,-19"/>
<text text-anchor="middle" x="256" y="-7" font-family="Helvetica,sans-Serif" font-size="10.00">string</text>
</a>
</g>
</g>
<!-- Node5&#45;&gt;Node7 -->
<g id="edge6_Node000005_Node000007" class="edge">
<title>Node5&#45;&gt;Node7</title>
<g id="a_edge6_Node000005_Node000007"><a xlink:title=" ">
<path fill="none" stroke="#63b8ff" d="M106.99,-439.87C97.1,-421.97 76,-379.24 76,-340.5 76,-340.5 76,-340.5 76,-118.5 76,-50.31 172.16,-24.11 223.91,-14.94"/>
<polygon fill="#63b8ff" stroke="#63b8ff" points="224.64,-18.37 233.93,-13.28 223.49,-11.46 224.64,-18.37"/>
</a>
</g>
</g>
<!-- Node8 -->
<g id="Node000008" class="node">
<title>Node8</title>
<g id="a_Node000008"><a xlink:href="expr_8h.html" target="_top" xlink:title=" ">
<polygon fill="white" stroke="#666666" points="626.5,-404 561.5,-404 561.5,-385 626.5,-385 626.5,-404"/>
<text text-anchor="middle" x="594" y="-392" font-family="Helvetica,sans-Serif" font-size="10.00">util/expr.h</text>
</a>
</g>
</g>
<!-- Node5&#45;&gt;Node8 -->
<g id="edge8_Node000005_Node000008" class="edge">
<title>Node5&#45;&gt;Node8</title>
<g id="a_edge8_Node000005_Node000008"><a xlink:title=" ">
<path fill="none" stroke="#63b8ff" d="M140.56,-441.72C143.74,-441.09 146.93,-440.5 150,-440 296.21,-416.41 471.64,-403.24 551.12,-398.08"/>
<polygon fill="#63b8ff" stroke="#63b8ff" points="551.48,-401.56 561.24,-397.43 551.04,-394.58 551.48,-401.56"/>
</a>
</g>
</g>
<!-- Node15 -->
<g id="Node000015" class="node">
<title>Node15</title>
<g id="a_Node000015"><a xlink:href="src_2util_2invariant_8h.html" target="_top" xlink:title=" ">
<polygon fill="#fff0f0" stroke="red" points="477.5,-74 408.5,-74 408.5,-55 477.5,-55 477.5,-74"/>
<text text-anchor="middle" x="443" y="-62" font-family="Helvetica,sans-Serif" font-size="10.00">invariant.h</text>
</a>
</g>
</g>
<!-- Node5&#45;&gt;Node15 -->
<g id="edge33_Node000005_Node000015" class="edge">
<title>Node5&#45;&gt;Node15</title>
<g id="a_edge33_Node000005_Node000015"><a xlink:title=" ">
<path fill="none" stroke="#63b8ff" d="M129.83,-439.8C192.52,-408.83 401.04,-302.34 437,-239 465.34,-189.08 454.83,-117.4 447.59,-83.97"/>
<polygon fill="#63b8ff" stroke="#63b8ff" points="450.99,-83.14 445.33,-74.19 444.17,-84.72 450.99,-83.14"/>
</a>
</g>
</g>
<!-- Node9 -->
<g id="Node000009" class="node">
<title>Node9</title>
<g id="a_Node000009"><a xlink:href="as__const_8h.html" target="_top" xlink:title=" ">
<polygon fill="white" stroke="#666666" points="742,-349 674,-349 674,-330 742,-330 742,-349"/>
<text text-anchor="middle" x="708" y="-337" font-family="Helvetica,sans-Serif" font-size="10.00">as_const.h</text>
</a>
</g>
</g>
<!-- Node8&#45;&gt;Node9 -->
<g id="edge9_Node000008_Node000009" class="edge">
<title>Node8&#45;&gt;Node9</title>
<g id="a_edge9_Node000008_Node000009"><a xlink:title=" ">
<path fill="none" stroke="#63b8ff" d="M612.32,-384.98C630.66,-376.46 659.11,-363.23 680.23,-353.41"/>
<polygon fill="#63b8ff" stroke="#63b8ff" points="681.76,-356.56 689.35,-349.17 678.81,-350.21 681.76,-356.56"/>
</a>
</g>
</g>
<!-- Node10 -->
<g id="Node000010" class="node">
<title>Node10</title>
<g id="a_Node000010"><a xlink:href="type_8h.html" target="_top" xlink:title="Defines typet, type_with_subtypet and type_with_subtypest.">
<polygon fill="white" stroke="#666666" points="617.5,-349 570.5,-349 570.5,-330 617.5,-330 617.5,-349"/>
<text text-anchor="middle" x="594" y="-337" font-family="Helvetica,sans-Serif" font-size="10.00">type.h</text>
</a>
</g>
</g>
<!-- Node8&#45;&gt;Node10 -->
<g id="edge10_Node000008_Node000010" class="edge">
<title>Node8&#45;&gt;Node10</title>
<g id="a_edge10_Node000008_Node000010"><a xlink:title=" ">
<path fill="none" stroke="#63b8ff" d="M594,-384.75C594,-377.8 594,-367.85 594,-359.13"/>
<polygon fill="#63b8ff" stroke="#63b8ff" points="597.5,-359.09 594,-349.09 590.5,-359.09 597.5,-359.09"/>
</a>
</g>
</g>
<!-- Node36 -->
<g id="Node000036" class="node">
<title>Node36</title>
<g id="a_Node000036"><a xlink:href="validation__mode_8h.html" target="_top" xlink:title=" ">
<polygon fill="white" stroke="#666666" points="641.5,-239 534.5,-239 534.5,-220 641.5,-220 641.5,-239"/>
<text text-anchor="middle" x="588" y="-227" font-family="Helvetica,sans-Serif" font-size="10.00">validation_mode.h</text>
</a>
</g>
</g>
<!-- Node8&#45;&gt;Node36 -->
<g id="edge31_Node000008_Node000036" class="edge">
<title>Node8&#45;&gt;Node36</title>
<g id="a_edge31_Node000008_Node000036"><a xlink:title=" ">
<path fill="none" stroke="#63b8ff" d="M626.72,-388.89C668.17,-382.31 736.05,-368.77 751,-349 770.84,-322.76 734.74,-289.19 717,-275 696.76,-258.81 670.27,-248.34 646.56,-241.64"/>
<polygon fill="#63b8ff" stroke="#63b8ff" points="647.16,-238.18 636.6,-239 645.37,-244.95 647.16,-238.18"/>
</a>
</g>
</g>
<!-- Node37 -->
<g id="Node000037" class="node">
<title>Node37</title>
<g id="a_Node000037"><a xlink:href="validate__types_8h.html" target="_top" xlink:title=" ">
<polygon fill="white" stroke="#666666" points="708,-294 610,-294 610,-275 708,-275 708,-294"/>
<text text-anchor="middle" x="659" y="-282" font-family="Helvetica,sans-Serif" font-size="10.00">validate_types.h</text>
</a>
</g>
</g>
<!-- Node8&#45;&gt;Node37 -->
<g id="edge30_Node000008_Node000037" class="edge">
<title>Node8&#45;&gt;Node37</title>
<g id="a_edge30_Node000008_Node000037"><a xlink:title=" ">
<path fill="none" stroke="#63b8ff" d="M601.03,-384.95C608.05,-376.21 618.92,-362.1 627,-349 636.1,-334.24 644.85,-316.56 650.89,-303.61"/>
<polygon fill="#63b8ff" stroke="#63b8ff" points="654.13,-304.93 655.11,-294.38 647.77,-302.02 654.13,-304.93"/>
</a>
</g>
</g>
<!-- Node38 -->
<g id="Node000038" class="node">
<title>Node38</title>
<g id="a_Node000038"><a xlink:href="validate__expressions_8h.html" target="_top" xlink:title=" ">
<polygon fill="white" stroke="#666666" points="469.5,-349 340.5,-349 340.5,-330 469.5,-330 469.5,-349"/>
<text text-anchor="middle" x="405" y="-337" font-family="Helvetica,sans-Serif" font-size="10.00">validate_expressions.h</text>
</a>
</g>
</g>
<!-- Node8&#45;&gt;Node38 -->
<g id="edge29_Node000008_Node000038" class="edge">
<title>Node8&#45;&gt;Node38</title>
<g id="a_edge29_Node000008_Node000038"><a xlink:title=" ">
<path fill="none" stroke="#63b8ff" d="M563.63,-384.98C531.63,-376.01 481.04,-361.82 445.62,-351.89"/>
<polygon fill="#63b8ff" stroke="#63b8ff" points="446.18,-348.41 435.6,-349.08 444.29,-355.15 446.18,-348.41"/>
</a>
</g>
</g>
<!-- Node39 -->
<g id="Node000039" class="node">
<title>Node39</title>
<g id="a_Node000039"><a xlink:title=" ">
<polygon fill="#e0e0e0" stroke="#999999" points="552.5,-349 487.5,-349 487.5,-330 552.5,-330 552.5,-349"/>
<text text-anchor="middle" x="520" y="-337" font-family="Helvetica,sans-Serif" font-size="10.00">functional</text>
</a>
</g>
</g>
<!-- Node8&#45;&gt;Node39 -->
<g id="edge32_Node000008_Node000039" class="edge">
<title>Node8&#45;&gt;Node39</title>
<g id="a_edge32_Node000008_Node000039"><a xlink:title=" ">
<path fill="none" stroke="#63b8ff" d="M582.11,-384.98C570.85,-376.92 553.71,-364.65 540.29,-355.03"/>
<polygon fill="#63b8ff" stroke="#63b8ff" points="542.27,-352.15 532.11,-349.17 538.2,-357.84 542.27,-352.15"/>
</a>
</g>
</g>
<!-- Node11 -->
<g id="Node000011" class="node">
<title>Node11</title>
<g id="a_Node000011"><a xlink:href="source__location_8h.html" target="_top" xlink:title=" ">
<polygon fill="white" stroke="#666666" points="329,-184 227,-184 227,-165 329,-165 329,-184"/>
<text text-anchor="middle" x="278" y="-172" font-family="Helvetica,sans-Serif" font-size="10.00">source_location.h</text>
</a>
</g>
</g>
<!-- Node10&#45;&gt;Node11 -->
<g id="edge11_Node000010_Node000011" class="edge">
<title>Node10&#45;&gt;Node11</title>
<g id="a_edge11_Node000010_Node000011"><a xlink:title=" ">
<path fill="none" stroke="#63b8ff" d="M570.45,-332.09C511.55,-315.74 359.68,-271.45 319,-239 303.81,-226.88 292.48,-207.54 285.62,-193.38"/>
<polygon fill="#63b8ff" stroke="#63b8ff" points="288.75,-191.82 281.43,-184.17 282.38,-194.72 288.75,-191.82"/>
</a>
</g>
</g>
<!-- Node34 -->
<g id="Node000034" class="node">
<title>Node34</title>
<g id="a_Node000034"><a xlink:href="validate_8h.html" target="_top" xlink:title=" ">
<polygon fill="white" stroke="#666666" points="543.5,-294 478.5,-294 478.5,-275 543.5,-275 543.5,-294"/>
<text text-anchor="middle" x="511" y="-282" font-family="Helvetica,sans-Serif" font-size="10.00">validate.h</text>
</a>
</g>
</g>
<!-- Node10&#45;&gt;Node34 -->
<g id="edge20_Node000010_Node000034" class="edge">
<title>Node10&#45;&gt;Node34</title>
<g id="a_edge20_Node000010_Node000034"><a xlink:title=" ">
<path fill="none" stroke="#63b8ff" d="M580.66,-329.98C567.91,-321.84 548.45,-309.41 533.33,-299.76"/>
<polygon fill="#63b8ff" stroke="#63b8ff" points="534.89,-296.6 524.58,-294.17 531.12,-302.5 534.89,-296.6"/>
</a>
</g>
</g>
<!-- Node10&#45;&gt;Node36 -->
<g id="edge28_Node000010_Node000036" class="edge">
<title>Node10&#45;&gt;Node36</title>
<g id="a_edge28_Node000010_Node000036"><a xlink:title=" ">
<path fill="none" stroke="#63b8ff" d="M593.51,-329.66C592.54,-312.17 590.35,-272.8 589.04,-249.27"/>
<polygon fill="#63b8ff" stroke="#63b8ff" points="592.53,-248.95 588.48,-239.16 585.54,-249.34 592.53,-248.95"/>
</a>
</g>
</g>
<!-- Node10&#45;&gt;Node37 -->
<g id="edge27_Node000010_Node000037" class="edge">
<title>Node10&#45;&gt;Node37</title>
<g id="a_edge27_Node000010_Node000037"><a xlink:title=" ">
<path fill="none" stroke="#63b8ff" d="M604.44,-329.98C614.15,-322.07 628.82,-310.11 640.5,-300.58"/>
<polygon fill="#63b8ff" stroke="#63b8ff" points="642.83,-303.2 648.37,-294.17 638.4,-297.78 642.83,-303.2"/>
</a>
</g>
</g>
<!-- Node11&#45;&gt;Node7 -->
<g id="edge19_Node000011_Node000007" class="edge">
<title>Node11&#45;&gt;Node7</title>
<g id="a_edge19_Node000011_Node000007"><a xlink:title=" ">
<path fill="none" stroke="#63b8ff" d="M226.68,-172.36C194.17,-168.64 154.36,-157.91 133,-129 100.58,-85.14 178.23,-43.14 224.53,-22.96"/>
<polygon fill="#63b8ff" stroke="#63b8ff" points="226.04,-26.12 233.88,-19 223.31,-19.68 226.04,-26.12"/>
</a>
</g>
</g>
<!-- Node12 -->
<g id="Node000012" class="node">
<title>Node12</title>
<g id="a_Node000012"><a xlink:href="deprecate_8h.html" target="_top" xlink:title=" ">
<polygon fill="white" stroke="#666666" points="216,-129 142,-129 142,-110 216,-110 216,-129"/>
<text text-anchor="middle" x="179" y="-117" font-family="Helvetica,sans-Serif" font-size="10.00">deprecate.h</text>
</a>
</g>
</g>
<!-- Node11&#45;&gt;Node12 -->
<g id="edge12_Node000011_Node000012" class="edge">
<title>Node11&#45;&gt;Node12</title>
<g id="a_edge12_Node000011_Node000012"><a xlink:title=" ">
<path fill="none" stroke="#63b8ff" d="M262.09,-164.98C246.45,-156.61 222.34,-143.7 204.12,-133.95"/>
<polygon fill="#63b8ff" stroke="#63b8ff" points="205.66,-130.8 195.2,-129.17 202.36,-136.98 205.66,-130.8"/>
</a>
</g>
</g>
<!-- Node13 -->
<g id="Node000013" class="node">
<title>Node13</title>
<g id="a_Node000013"><a xlink:href="irep_8h.html" target="_top" xlink:title=" ">
<polygon fill="#fff0f0" stroke="red" points="278,-129 234,-129 234,-110 278,-110 278,-129"/>
<text text-anchor="middle" x="256" y="-117" font-family="Helvetica,sans-Serif" font-size="10.00">irep.h</text>
</a>
</g>
</g>
<!-- Node11&#45;&gt;Node13 -->
<g id="edge13_Node000011_Node000013" class="edge">
<title>Node11&#45;&gt;Node13</title>
<g id="a_edge13_Node000011_Node000013"><a xlink:title=" ">
<path fill="none" stroke="#63b8ff" d="M274.37,-164.75C271.42,-157.65 267.17,-147.4 263.49,-138.56"/>
<polygon fill="#63b8ff" stroke="#63b8ff" points="266.63,-136.98 259.57,-129.09 260.17,-139.67 266.63,-136.98"/>
</a>
</g>
</g>
<!-- Node33 -->
<g id="Node000033" class="node">
<title>Node33</title>
<g id="a_Node000033"><a xlink:title=" ">
<polygon fill="#e0e0e0" stroke="#999999" points="352,-129 296,-129 296,-110 352,-110 352,-129"/>
<text text-anchor="middle" x="324" y="-117" font-family="Helvetica,sans-Serif" font-size="10.00">optional</text>
</a>
</g>
</g>
<!-- Node11&#45;&gt;Node33 -->
<g id="edge18_Node000011_Node000033" class="edge">
<title>Node11&#45;&gt;Node33</title>
<g id="a_edge18_Node000011_Node000033"><a xlink:title=" ">
<path fill="none" stroke="#63b8ff" d="M285.6,-164.75C292.16,-157.18 301.82,-146.05 309.81,-136.84"/>
<polygon fill="#63b8ff" stroke="#63b8ff" points="312.63,-138.94 316.55,-129.09 307.35,-134.35 312.63,-138.94"/>
</a>
</g>
</g>
<!-- Node13&#45;&gt;Node7 -->
<g id="edge14_Node000013_Node000007" class="edge">
<title>Node13&#45;&gt;Node7</title>
<g id="a_edge14_Node000013_Node000007"><a xlink:title=" ">
<path fill="none" stroke="#63b8ff" d="M256,-109.66C256,-92.17 256,-52.8 256,-29.27"/>
<polygon fill="#63b8ff" stroke="#63b8ff" points="259.5,-29.16 256,-19.16 252.5,-29.16 259.5,-29.16"/>
</a>
</g>
</g>
<!-- Node13&#45;&gt;Node15 -->
<g id="edge15_Node000013_Node000015" class="edge">
<title>Node13&#45;&gt;Node15</title>
<g id="a_edge15_Node000013_Node000015"><a xlink:title=" ">
<path fill="none" stroke="#63b8ff" d="M278.19,-112.21C308.91,-103.5 364.94,-87.62 403.06,-76.82"/>
<polygon fill="#63b8ff" stroke="#63b8ff" points="404.15,-80.15 412.82,-74.05 402.24,-73.41 404.15,-80.15"/>
</a>
</g>
</g>
<!-- Node15&#45;&gt;Node7 -->
<g id="edge16_Node000015_Node000007" class="edge">
<title>Node15&#45;&gt;Node7</title>
<g id="a_edge16_Node000015_Node000007"><a xlink:title=" ">
<path fill="none" stroke="#63b8ff" d="M412.96,-54.98C378.66,-45.26 322.79,-29.43 287.78,-19.51"/>
<polygon fill="#63b8ff" stroke="#63b8ff" points="288.64,-16.11 278.07,-16.75 286.73,-22.85 288.64,-16.11"/>
</a>
</g>
</g>
<!-- Node18 -->
<g id="Node000018" class="node">
<title>Node18</title>
<g id="a_Node000018"><a xlink:title=" ">
<polygon fill="#e0e0e0" stroke="#999999" points="508.5,-19 439.5,-19 439.5,0 508.5,0 508.5,-19"/>
<text text-anchor="middle" x="474" y="-7" font-family="Helvetica,sans-Serif" font-size="10.00">type_traits</text>
</a>
</g>
</g>
<!-- Node15&#45;&gt;Node18 -->
<g id="edge17_Node000015_Node000018" class="edge">
<title>Node15&#45;&gt;Node18</title>
<g id="a_edge17_Node000015_Node000018"><a xlink:title=" ">
<path fill="none" stroke="#63b8ff" d="M448.12,-54.75C452.36,-47.49 458.53,-36.95 463.78,-27.98"/>
<polygon fill="#63b8ff" stroke="#63b8ff" points="466.95,-29.49 468.98,-19.09 460.91,-25.95 466.95,-29.49"/>
</a>
</g>
</g>
<!-- Node34&#45;&gt;Node18 -->
<g id="edge21_Node000034_Node000018" class="edge">
<title>Node34&#45;&gt;Node18</title>
<g id="a_edge21_Node000034_Node000018"><a xlink:title=" ">
<path fill="none" stroke="#63b8ff" d="M510.33,-274.83C508.96,-256.5 506,-212.48 506,-175.5 506,-175.5 506,-175.5 506,-118.5 506,-85.71 492.27,-49.54 482.8,-28.49"/>
<polygon fill="#63b8ff" stroke="#63b8ff" points="485.86,-26.77 478.45,-19.2 479.52,-29.74 485.86,-26.77"/>
</a>
</g>
</g>
<!-- Node35 -->
<g id="Node000035" class="node">
<title>Node35</title>
<g id="a_Node000035"><a xlink:href="exception__utils_8h.html" target="_top" xlink:title=" ">
<polygon fill="white" stroke="#666666" points="428,-239 328,-239 328,-220 428,-220 428,-239"/>
<text text-anchor="middle" x="378" y="-227" font-family="Helvetica,sans-Serif" font-size="10.00">exception_utils.h</text>
</a>
</g>
</g>
<!-- Node34&#45;&gt;Node35 -->
<g id="edge22_Node000034_Node000035" class="edge">
<title>Node34&#45;&gt;Node35</title>
<g id="a_edge22_Node000034_Node000035"><a xlink:title=" ">
<path fill="none" stroke="#63b8ff" d="M489.63,-274.98C467.85,-266.3 433.84,-252.75 409.08,-242.88"/>
<polygon fill="#63b8ff" stroke="#63b8ff" points="410.34,-239.62 399.76,-239.17 407.75,-246.12 410.34,-239.62"/>
</a>
</g>
</g>
<!-- Node34&#45;&gt;Node36 -->
<g id="edge26_Node000034_Node000036" class="edge">
<title>Node34&#45;&gt;Node36</title>
<g id="a_edge26_Node000034_Node000036"><a xlink:title=" ">
<path fill="none" stroke="#63b8ff" d="M523.37,-274.98C535.09,-266.92 552.92,-254.65 566.89,-245.03"/>
<polygon fill="#63b8ff" stroke="#63b8ff" points="569.15,-247.72 575.4,-239.17 565.18,-241.96 569.15,-247.72"/>
</a>
</g>
</g>
<!-- Node35&#45;&gt;Node7 -->
<g id="edge23_Node000035_Node000007" class="edge">
<title>Node35&#45;&gt;Node7</title>
<g id="a_edge23_Node000035_Node000007"><a xlink:title=" ">
<path fill="none" stroke="#63b8ff" d="M378.62,-219.88C379.72,-199.51 380.29,-147.29 361,-110 341.78,-72.85 303.13,-41.92 278.46,-24.85"/>
<polygon fill="#63b8ff" stroke="#63b8ff" points="280.32,-21.88 270.07,-19.2 276.41,-27.69 280.32,-21.88"/>
</a>
</g>
</g>
<!-- Node35&#45;&gt;Node11 -->
<g id="edge25_Node000035_Node000011" class="edge">
<title>Node35&#45;&gt;Node11</title>
<g id="a_edge25_Node000035_Node000011"><a xlink:title=" ">
<path fill="none" stroke="#63b8ff" d="M361.93,-219.98C346.14,-211.61 321.78,-198.7 303.37,-188.95"/>
<polygon fill="#63b8ff" stroke="#63b8ff" points="304.83,-185.76 294.36,-184.17 301.56,-191.95 304.83,-185.76"/>
</a>
</g>
</g>
<!-- Node35&#45;&gt;Node15 -->
<g id="edge24_Node000035_Node000015" class="edge">
<title>Node35&#45;&gt;Node15</title>
<g id="a_edge24_Node000035_Node000015"><a xlink:title=" ">
<path fill="none" stroke="#63b8ff" d="M381.49,-219.74C391.72,-194.09 421.75,-118.78 435.71,-83.78"/>
<polygon fill="#63b8ff" stroke="#63b8ff" points="439.03,-84.89 439.49,-74.31 432.53,-82.3 439.03,-84.89"/>
</a>
</g>
</g>
</g>
</svg>
