<?xml version="1.0" encoding="UTF-8" standalone="no"?>
<!DOCTYPE svg PUBLIC "-//W3C//DTD SVG 1.1//EN"
 "http://www.w3.org/Graphics/SVG/1.1/DTD/svg11.dtd">
<!-- Generated by graphviz version 2.43.0 (0)
 -->
<!-- Title: /home/runner/work/cbmc/cbmc/src/cpp/cpp_scopes.h Pages: 1 -->
<svg width="799pt" height="588pt"
 viewBox="0.00 0.00 799.00 588.00" xmlns="http://www.w3.org/2000/svg" xmlns:xlink="http://www.w3.org/1999/xlink">
<g id="graph0" class="graph" transform="scale(1 1) rotate(0) translate(4 584)">
<title>/home/runner/work/cbmc/cbmc/src/cpp/cpp_scopes.h</title>
<!-- Node1 -->
<g id="Node000001" class="node">
<title>Node1</title>
<g id="a_Node000001"><a xlink:title="C++ Language Type Checking.">
<polygon fill="#999999" stroke="#666666" points="715,-580 563,-580 563,-550 715,-550 715,-580"/>
<text text-anchor="start" x="571" y="-568" font-family="Helvetica,sans-Serif" font-size="10.00">/home/runner/work/cbmc</text>
<text text-anchor="middle" x="639" y="-557" font-family="Helvetica,sans-Serif" font-size="10.00">/cbmc/src/cpp/cpp_scopes.h</text>
</a>
</g>
</g>
<!-- Node2 -->
<g id="Node000002" class="node">
<title>Node2</title>
<g id="a_Node000002"><a xlink:title=" ">
<polygon fill="#e0e0e0" stroke="#999999" points="624,-459 592,-459 592,-440 624,-440 624,-459"/>
<text text-anchor="middle" x="608" y="-447" font-family="Helvetica,sans-Serif" font-size="10.00">set</text>
</a>
</g>
</g>
<!-- Node1&#45;&gt;Node2 -->
<g id="edge1_Node000001_Node000002" class="edge">
<title>Node1&#45;&gt;Node2</title>
<g id="a_edge1_Node000001_Node000002"><a xlink:title=" ">
<path fill="none" stroke="#63b8ff" d="M635.07,-549.63C629.47,-529.12 619.19,-491.47 613.04,-468.93"/>
<polygon fill="#63b8ff" stroke="#63b8ff" points="616.4,-467.95 610.38,-459.23 609.64,-469.8 616.4,-467.95"/>
</a>
</g>
</g>
<!-- Node3 -->
<g id="Node000003" class="node">
<title>Node3</title>
<g id="a_Node000003"><a xlink:href="cpp__scope_8h.html" target="_top" xlink:title="C++ Language Type Checking.">
<polygon fill="white" stroke="#666666" points="711.5,-514 634.5,-514 634.5,-495 711.5,-495 711.5,-514"/>
<text text-anchor="middle" x="673" y="-502" font-family="Helvetica,sans-Serif" font-size="10.00">cpp_scope.h</text>
</a>
</g>
</g>
<!-- Node1&#45;&gt;Node3 -->
<g id="edge2_Node000001_Node000003" class="edge">
<title>Node1&#45;&gt;Node3</title>
<g id="a_edge2_Node000001_Node000003"><a xlink:title=" ">
<path fill="none" stroke="#63b8ff" d="M647.23,-549.84C651.91,-541.78 657.82,-531.62 662.8,-523.06"/>
<polygon fill="#63b8ff" stroke="#63b8ff" points="665.91,-524.67 667.91,-514.27 659.85,-521.15 665.91,-524.67"/>
</a>
</g>
</g>
<!-- Node3&#45;&gt;Node2 -->
<g id="edge4_Node000003_Node000002" class="edge">
<title>Node3&#45;&gt;Node2</title>
<g id="a_edge4_Node000003_Node000002"><a xlink:title=" ">
<path fill="none" stroke="#63b8ff" d="M662.56,-494.98C652.85,-487.07 638.18,-475.11 626.5,-465.58"/>
<polygon fill="#63b8ff" stroke="#63b8ff" points="628.6,-462.78 618.63,-459.17 624.17,-468.2 628.6,-462.78"/>
</a>
</g>
</g>
<!-- Node4 -->
<g id="Node000004" class="node">
<title>Node4</title>
<g id="a_Node000004"><a xlink:title=" ">
<polygon fill="#e0e0e0" stroke="#999999" points="791,-404 743,-404 743,-385 791,-385 791,-404"/>
<text text-anchor="middle" x="767" y="-392" font-family="Helvetica,sans-Serif" font-size="10.00">iosfwd</text>
</a>
</g>
</g>
<!-- Node3&#45;&gt;Node4 -->
<g id="edge3_Node000003_Node000004" class="edge">
<title>Node3&#45;&gt;Node4</title>
<g id="a_edge3_Node000003_Node000004"><a xlink:title=" ">
<path fill="none" stroke="#63b8ff" d="M680.69,-494.66C696.47,-476.54 732.7,-434.91 752.84,-411.77"/>
<polygon fill="#63b8ff" stroke="#63b8ff" points="755.54,-414 759.46,-404.16 750.26,-409.4 755.54,-414"/>
</a>
</g>
</g>
<!-- Node5 -->
<g id="Node000005" class="node">
<title>Node5</title>
<g id="a_Node000005"><a xlink:href="cpp__id_8h.html" target="_top" xlink:title="C++ Language Type Checking.">
<polygon fill="white" stroke="#666666" points="700.5,-459 643.5,-459 643.5,-440 700.5,-440 700.5,-459"/>
<text text-anchor="middle" x="672" y="-447" font-family="Helvetica,sans-Serif" font-size="10.00">cpp_id.h</text>
</a>
</g>
</g>
<!-- Node3&#45;&gt;Node5 -->
<g id="edge5_Node000003_Node000005" class="edge">
<title>Node3&#45;&gt;Node5</title>
<g id="a_edge5_Node000003_Node000005"><a xlink:title=" ">
<path fill="none" stroke="#63b8ff" d="M672.83,-494.75C672.7,-487.8 672.52,-477.85 672.35,-469.13"/>
<polygon fill="#63b8ff" stroke="#63b8ff" points="675.85,-469.02 672.16,-459.09 668.85,-469.15 675.85,-469.02"/>
</a>
</g>
</g>
<!-- Node5&#45;&gt;Node4 -->
<g id="edge8_Node000005_Node000004" class="edge">
<title>Node5&#45;&gt;Node4</title>
<g id="a_edge8_Node000005_Node000004"><a xlink:title=" ">
<path fill="none" stroke="#63b8ff" d="M687.26,-439.98C702.13,-431.69 724.98,-418.94 742.42,-409.22"/>
<polygon fill="#63b8ff" stroke="#63b8ff" points="744.43,-412.1 751.46,-404.17 741.02,-405.99 744.43,-412.1"/>
</a>
</g>
</g>
<!-- Node6 -->
<g id="Node000006" class="node">
<title>Node6</title>
<g id="a_Node000006"><a xlink:title=" ">
<polygon fill="#e0e0e0" stroke="#999999" points="725,-404 687,-404 687,-385 725,-385 725,-404"/>
<text text-anchor="middle" x="706" y="-392" font-family="Helvetica,sans-Serif" font-size="10.00">map</text>
</a>
</g>
</g>
<!-- Node5&#45;&gt;Node6 -->
<g id="edge6_Node000005_Node000006" class="edge">
<title>Node5&#45;&gt;Node6</title>
<g id="a_edge6_Node000005_Node000006"><a xlink:title=" ">
<path fill="none" stroke="#63b8ff" d="M677.61,-439.75C682.32,-432.42 689.17,-421.73 694.97,-412.7"/>
<polygon fill="#63b8ff" stroke="#63b8ff" points="698.04,-414.4 700.49,-404.09 692.14,-410.62 698.04,-414.4"/>
</a>
</g>
</g>
<!-- Node7 -->
<g id="Node000007" class="node">
<title>Node7</title>
<g id="a_Node000007"><a xlink:title=" ">
<polygon fill="#e0e0e0" stroke="#999999" points="402,-19 358,-19 358,0 402,0 402,-19"/>
<text text-anchor="middle" x="380" y="-7" font-family="Helvetica,sans-Serif" font-size="10.00">string</text>
</a>
</g>
</g>
<!-- Node5&#45;&gt;Node7 -->
<g id="edge7_Node000005_Node000007" class="edge">
<title>Node5&#45;&gt;Node7</title>
<g id="a_edge7_Node000005_Node000007"><a xlink:title=" ">
<path fill="none" stroke="#63b8ff" d="M670.25,-439.86C666.7,-421.6 659,-377.7 659,-340.5 659,-340.5 659,-340.5 659,-118.5 659,-66.15 486,-29.28 412.46,-15.97"/>
<polygon fill="#63b8ff" stroke="#63b8ff" points="412.82,-12.48 402.36,-14.18 411.59,-19.37 412.82,-12.48"/>
</a>
</g>
</g>
<!-- Node8 -->
<g id="Node000008" class="node">
<title>Node8</title>
<g id="a_Node000008"><a xlink:href="expr_8h.html" target="_top" xlink:title=" ">
<polygon fill="white" stroke="#666666" points="398.5,-404 333.5,-404 333.5,-385 398.5,-385 398.5,-404"/>
<text text-anchor="middle" x="366" y="-392" font-family="Helvetica,sans-Serif" font-size="10.00">util/expr.h</text>
</a>
</g>
</g>
<!-- Node5&#45;&gt;Node8 -->
<g id="edge9_Node000005_Node000008" class="edge">
<title>Node5&#45;&gt;Node8</title>
<g id="a_edge9_Node000005_Node000008"><a xlink:title=" ">
<path fill="none" stroke="#63b8ff" d="M643.49,-442.12C639.96,-441.38 636.4,-440.65 633,-440 554.04,-424.83 461.36,-410.06 408.57,-401.93"/>
<polygon fill="#63b8ff" stroke="#63b8ff" points="408.98,-398.45 398.56,-400.4 407.92,-405.37 408.98,-398.45"/>
</a>
</g>
</g>
<!-- Node15 -->
<g id="Node000015" class="node">
<title>Node15</title>
<g id="a_Node000015"><a xlink:href="src_2util_2invariant_8h.html" target="_top" xlink:title=" ">
<polygon fill="#fff0f0" stroke="red" points="173.5,-74 104.5,-74 104.5,-55 173.5,-55 173.5,-74"/>
<text text-anchor="middle" x="139" y="-62" font-family="Helvetica,sans-Serif" font-size="10.00">invariant.h</text>
</a>
</g>
</g>
<!-- Node5&#45;&gt;Node15 -->
<g id="edge34_Node000005_Node000015" class="edge">
<title>Node5&#45;&gt;Node15</title>
<g id="a_edge34_Node000005_Node000015"><a xlink:title=" ">
<path fill="none" stroke="#63b8ff" d="M643.1,-441.87C639.7,-441.19 636.28,-440.55 633,-440 492.55,-416.54 0,-482.89 0,-340.5 0,-340.5 0,-340.5 0,-173.5 0,-122.86 58.24,-92.52 99.33,-77.43"/>
<polygon fill="#63b8ff" stroke="#63b8ff" points="100.56,-80.7 108.84,-74.09 98.24,-74.1 100.56,-80.7"/>
</a>
</g>
</g>
<!-- Node9 -->
<g id="Node000009" class="node">
<title>Node9</title>
<g id="a_Node000009"><a xlink:href="as__const_8h.html" target="_top" xlink:title=" ">
<polygon fill="white" stroke="#666666" points="400,-349 332,-349 332,-330 400,-330 400,-349"/>
<text text-anchor="middle" x="366" y="-337" font-family="Helvetica,sans-Serif" font-size="10.00">as_const.h</text>
</a>
</g>
</g>
<!-- Node8&#45;&gt;Node9 -->
<g id="edge10_Node000008_Node000009" class="edge">
<title>Node8&#45;&gt;Node9</title>
<g id="a_edge10_Node000008_Node000009"><a xlink:title=" ">
<path fill="none" stroke="#63b8ff" d="M366,-384.75C366,-377.8 366,-367.85 366,-359.13"/>
<polygon fill="#63b8ff" stroke="#63b8ff" points="369.5,-359.09 366,-349.09 362.5,-359.09 369.5,-359.09"/>
</a>
</g>
</g>
<!-- Node10 -->
<g id="Node000010" class="node">
<title>Node10</title>
<g id="a_Node000010"><a xlink:href="type_8h.html" target="_top" xlink:title="Defines typet, type_with_subtypet and type_with_subtypest.">
<polygon fill="white" stroke="#666666" points="183.5,-349 136.5,-349 136.5,-330 183.5,-330 183.5,-349"/>
<text text-anchor="middle" x="160" y="-337" font-family="Helvetica,sans-Serif" font-size="10.00">type.h</text>
</a>
</g>
</g>
<!-- Node8&#45;&gt;Node10 -->
<g id="edge11_Node000008_Node000010" class="edge">
<title>Node8&#45;&gt;Node10</title>
<g id="a_edge11_Node000008_Node000010"><a xlink:title=" ">
<path fill="none" stroke="#63b8ff" d="M333.36,-385.1C295.03,-375.24 231.81,-358.98 193.23,-349.05"/>
<polygon fill="#63b8ff" stroke="#63b8ff" points="194.07,-345.65 183.52,-346.55 192.33,-352.43 194.07,-345.65"/>
</a>
</g>
</g>
<!-- Node36 -->
<g id="Node000036" class="node">
<title>Node36</title>
<g id="a_Node000036"><a xlink:href="validation__mode_8h.html" target="_top" xlink:title=" ">
<polygon fill="white" stroke="#666666" points="329.5,-239 222.5,-239 222.5,-220 329.5,-220 329.5,-239"/>
<text text-anchor="middle" x="276" y="-227" font-family="Helvetica,sans-Serif" font-size="10.00">validation_mode.h</text>
</a>
</g>
</g>
<!-- Node8&#45;&gt;Node36 -->
<g id="edge32_Node000008_Node000036" class="edge">
<title>Node8&#45;&gt;Node36</title>
<g id="a_edge32_Node000008_Node000036"><a xlink:title=" ">
<path fill="none" stroke="#63b8ff" d="M355.55,-384.91C345.98,-376.58 331.97,-363.15 323,-349 304.17,-319.3 308.13,-307.62 295,-275 291.47,-266.23 287.37,-256.58 283.89,-248.51"/>
<polygon fill="#63b8ff" stroke="#63b8ff" points="287.09,-247.09 279.89,-239.32 280.67,-249.89 287.09,-247.09"/>
</a>
</g>
</g>
<!-- Node37 -->
<g id="Node000037" class="node">
<title>Node37</title>
<g id="a_Node000037"><a xlink:href="validate__types_8h.html" target="_top" xlink:title=" ">
<polygon fill="white" stroke="#666666" points="286,-294 188,-294 188,-275 286,-275 286,-294"/>
<text text-anchor="middle" x="237" y="-282" font-family="Helvetica,sans-Serif" font-size="10.00">validate_types.h</text>
</a>
</g>
</g>
<!-- Node8&#45;&gt;Node37 -->
<g id="edge31_Node000008_Node000037" class="edge">
<title>Node8&#45;&gt;Node37</title>
<g id="a_edge31_Node000008_Node000037"><a xlink:title=" ">
<path fill="none" stroke="#63b8ff" d="M347.34,-384.87C331.21,-376.89 307.74,-364.02 290,-349 273.79,-335.28 258.63,-316.22 248.7,-302.57"/>
<polygon fill="#63b8ff" stroke="#63b8ff" points="251.36,-300.26 242.73,-294.12 245.64,-304.3 251.36,-300.26"/>
</a>
</g>
</g>
<!-- Node38 -->
<g id="Node000038" class="node">
<title>Node38</title>
<g id="a_Node000038"><a xlink:href="validate__expressions_8h.html" target="_top" xlink:title=" ">
<polygon fill="white" stroke="#666666" points="547.5,-349 418.5,-349 418.5,-330 547.5,-330 547.5,-349"/>
<text text-anchor="middle" x="483" y="-337" font-family="Helvetica,sans-Serif" font-size="10.00">validate_expressions.h</text>
</a>
</g>
</g>
<!-- Node8&#45;&gt;Node38 -->
<g id="edge30_Node000008_Node000038" class="edge">
<title>Node8&#45;&gt;Node38</title>
<g id="a_edge30_Node000008_Node000038"><a xlink:title=" ">
<path fill="none" stroke="#63b8ff" d="M384.8,-384.98C403.62,-376.46 432.82,-363.23 454.5,-353.41"/>
<polygon fill="#63b8ff" stroke="#63b8ff" points="456.2,-356.48 463.86,-349.17 453.31,-350.11 456.2,-356.48"/>
</a>
</g>
</g>
<!-- Node39 -->
<g id="Node000039" class="node">
<title>Node39</title>
<g id="a_Node000039"><a xlink:title=" ">
<polygon fill="#e0e0e0" stroke="#999999" points="630.5,-349 565.5,-349 565.5,-330 630.5,-330 630.5,-349"/>
<text text-anchor="middle" x="598" y="-337" font-family="Helvetica,sans-Serif" font-size="10.00">functional</text>
</a>
</g>
</g>
<!-- Node8&#45;&gt;Node39 -->
<g id="edge33_Node000008_Node000039" class="edge">
<title>Node8&#45;&gt;Node39</title>
<g id="a_edge33_Node000008_Node000039"><a xlink:title=" ">
<path fill="none" stroke="#63b8ff" d="M398.75,-386.02C439.86,-376.63 510.44,-360.5 555.63,-350.18"/>
<polygon fill="#63b8ff" stroke="#63b8ff" points="556.45,-353.58 565.42,-347.94 554.89,-346.76 556.45,-353.58"/>
</a>
</g>
</g>
<!-- Node11 -->
<g id="Node000011" class="node">
<title>Node11</title>
<g id="a_Node000011"><a xlink:href="source__location_8h.html" target="_top" xlink:title=" ">
<polygon fill="white" stroke="#666666" points="268,-184 166,-184 166,-165 268,-165 268,-184"/>
<text text-anchor="middle" x="217" y="-172" font-family="Helvetica,sans-Serif" font-size="10.00">source_location.h</text>
</a>
</g>
</g>
<!-- Node10&#45;&gt;Node11 -->
<g id="edge12_Node000010_Node000011" class="edge">
<title>Node10&#45;&gt;Node11</title>
<g id="a_edge12_Node000010_Node000011"><a xlink:title=" ">
<path fill="none" stroke="#63b8ff" d="M136.45,-335.73C111.88,-331.45 74.55,-320.7 57,-294 52.36,-286.94 54.49,-283.06 57,-275 65.85,-246.64 71.49,-238.17 95,-220 115.45,-204.2 142.04,-193.62 165.18,-186.77"/>
<polygon fill="#63b8ff" stroke="#63b8ff" points="166.18,-190.12 174.86,-184.05 164.28,-183.38 166.18,-190.12"/>
</a>
</g>
</g>
<!-- Node34 -->
<g id="Node000034" class="node">
<title>Node34</title>
<g id="a_Node000034"><a xlink:href="validate_8h.html" target="_top" xlink:title=" ">
<polygon fill="white" stroke="#666666" points="131.5,-294 66.5,-294 66.5,-275 131.5,-275 131.5,-294"/>
<text text-anchor="middle" x="99" y="-282" font-family="Helvetica,sans-Serif" font-size="10.00">validate.h</text>
</a>
</g>
</g>
<!-- Node10&#45;&gt;Node34 -->
<g id="edge21_Node000010_Node000034" class="edge">
<title>Node10&#45;&gt;Node34</title>
<g id="a_edge21_Node000010_Node000034"><a xlink:title=" ">
<path fill="none" stroke="#63b8ff" d="M150.2,-329.98C141.18,-322.15 127.59,-310.34 116.68,-300.86"/>
<polygon fill="#63b8ff" stroke="#63b8ff" points="118.82,-298.09 108.98,-294.17 114.23,-303.37 118.82,-298.09"/>
</a>
</g>
</g>
<!-- Node10&#45;&gt;Node36 -->
<g id="edge29_Node000010_Node000036" class="edge">
<title>Node10&#45;&gt;Node36</title>
<g id="a_edge29_Node000010_Node000036"><a xlink:title=" ">
<path fill="none" stroke="#63b8ff" d="M160.4,-329.61C161.45,-316.23 165.26,-290.8 179,-275 192.4,-259.59 212.23,-249.2 230.48,-242.37"/>
<polygon fill="#63b8ff" stroke="#63b8ff" points="231.83,-245.61 240.12,-239.02 229.53,-239 231.83,-245.61"/>
</a>
</g>
</g>
<!-- Node10&#45;&gt;Node37 -->
<g id="edge28_Node000010_Node000037" class="edge">
<title>Node10&#45;&gt;Node37</title>
<g id="a_edge28_Node000010_Node000037"><a xlink:title=" ">
<path fill="none" stroke="#63b8ff" d="M172.37,-329.98C184.09,-321.92 201.92,-309.65 215.89,-300.03"/>
<polygon fill="#63b8ff" stroke="#63b8ff" points="218.15,-302.72 224.4,-294.17 214.18,-296.96 218.15,-302.72"/>
</a>
</g>
</g>
<!-- Node11&#45;&gt;Node7 -->
<g id="edge20_Node000011_Node000007" class="edge">
<title>Node11&#45;&gt;Node7</title>
<g id="a_edge20_Node000011_Node000007"><a xlink:title=" ">
<path fill="none" stroke="#63b8ff" d="M268.28,-170.85C299.63,-166.43 338.01,-155.48 361,-129 385.17,-101.17 385.01,-55.21 382.6,-29.47"/>
<polygon fill="#63b8ff" stroke="#63b8ff" points="386.04,-28.74 381.42,-19.21 379.09,-29.54 386.04,-28.74"/>
</a>
</g>
</g>
<!-- Node12 -->
<g id="Node000012" class="node">
<title>Node12</title>
<g id="a_Node000012"><a xlink:href="deprecate_8h.html" target="_top" xlink:title=" ">
<polygon fill="white" stroke="#666666" points="278,-129 204,-129 204,-110 278,-110 278,-129"/>
<text text-anchor="middle" x="241" y="-117" font-family="Helvetica,sans-Serif" font-size="10.00">deprecate.h</text>
</a>
</g>
</g>
<!-- Node11&#45;&gt;Node12 -->
<g id="edge13_Node000011_Node000012" class="edge">
<title>Node11&#45;&gt;Node12</title>
<g id="a_edge13_Node000011_Node000012"><a xlink:title=" ">
<path fill="none" stroke="#63b8ff" d="M220.96,-164.75C224.21,-157.57 228.92,-147.18 232.95,-138.27"/>
<polygon fill="#63b8ff" stroke="#63b8ff" points="236.17,-139.64 237.11,-129.09 229.8,-136.75 236.17,-139.64"/>
</a>
</g>
</g>
<!-- Node13 -->
<g id="Node000013" class="node">
<title>Node13</title>
<g id="a_Node000013"><a xlink:href="irep_8h.html" target="_top" xlink:title=" ">
<polygon fill="#fff0f0" stroke="red" points="186,-129 142,-129 142,-110 186,-110 186,-129"/>
<text text-anchor="middle" x="164" y="-117" font-family="Helvetica,sans-Serif" font-size="10.00">irep.h</text>
</a>
</g>
</g>
<!-- Node11&#45;&gt;Node13 -->
<g id="edge14_Node000011_Node000013" class="edge">
<title>Node11&#45;&gt;Node13</title>
<g id="a_edge14_Node000011_Node000013"><a xlink:title=" ">
<path fill="none" stroke="#63b8ff" d="M208.25,-164.75C200.53,-157.03 189.1,-145.6 179.78,-136.28"/>
<polygon fill="#63b8ff" stroke="#63b8ff" points="182.14,-133.69 172.59,-129.09 177.19,-138.64 182.14,-133.69"/>
</a>
</g>
</g>
<!-- Node33 -->
<g id="Node000033" class="node">
<title>Node33</title>
<g id="a_Node000033"><a xlink:title=" ">
<polygon fill="#e0e0e0" stroke="#999999" points="352,-129 296,-129 296,-110 352,-110 352,-129"/>
<text text-anchor="middle" x="324" y="-117" font-family="Helvetica,sans-Serif" font-size="10.00">optional</text>
</a>
</g>
</g>
<!-- Node11&#45;&gt;Node33 -->
<g id="edge19_Node000011_Node000033" class="edge">
<title>Node11&#45;&gt;Node33</title>
<g id="a_edge19_Node000011_Node000033"><a xlink:title=" ">
<path fill="none" stroke="#63b8ff" d="M234.19,-164.98C251.25,-156.54 277.63,-143.47 297.4,-133.68"/>
<polygon fill="#63b8ff" stroke="#63b8ff" points="299.09,-136.75 306.5,-129.17 295.98,-130.47 299.09,-136.75"/>
</a>
</g>
</g>
<!-- Node13&#45;&gt;Node7 -->
<g id="edge15_Node000013_Node000007" class="edge">
<title>Node13&#45;&gt;Node7</title>
<g id="a_edge15_Node000013_Node000007"><a xlink:title=" ">
<path fill="none" stroke="#63b8ff" d="M181.31,-109.84C219.08,-90.96 309.09,-45.96 353.83,-23.59"/>
<polygon fill="#63b8ff" stroke="#63b8ff" points="355.53,-26.65 362.91,-19.05 352.4,-20.39 355.53,-26.65"/>
</a>
</g>
</g>
<!-- Node13&#45;&gt;Node15 -->
<g id="edge16_Node000013_Node000015" class="edge">
<title>Node13&#45;&gt;Node15</title>
<g id="a_edge16_Node000013_Node000015"><a xlink:title=" ">
<path fill="none" stroke="#63b8ff" d="M159.87,-109.75C156.49,-102.57 151.58,-92.18 147.38,-83.27"/>
<polygon fill="#63b8ff" stroke="#63b8ff" points="150.48,-81.64 143.05,-74.09 144.15,-84.63 150.48,-81.64"/>
</a>
</g>
</g>
<!-- Node15&#45;&gt;Node7 -->
<g id="edge17_Node000015_Node000007" class="edge">
<title>Node15&#45;&gt;Node7</title>
<g id="a_edge17_Node000015_Node000007"><a xlink:title=" ">
<path fill="none" stroke="#63b8ff" d="M173.53,-55.91C220.14,-45.66 302.55,-27.53 347.89,-17.56"/>
<polygon fill="#63b8ff" stroke="#63b8ff" points="348.75,-20.96 357.77,-15.39 347.25,-14.12 348.75,-20.96"/>
</a>
</g>
</g>
<!-- Node18 -->
<g id="Node000018" class="node">
<title>Node18</title>
<g id="a_Node000018"><a xlink:title=" ">
<polygon fill="#e0e0e0" stroke="#999999" points="142.5,-19 73.5,-19 73.5,0 142.5,0 142.5,-19"/>
<text text-anchor="middle" x="108" y="-7" font-family="Helvetica,sans-Serif" font-size="10.00">type_traits</text>
</a>
</g>
</g>
<!-- Node15&#45;&gt;Node18 -->
<g id="edge18_Node000015_Node000018" class="edge">
<title>Node15&#45;&gt;Node18</title>
<g id="a_edge18_Node000015_Node000018"><a xlink:title=" ">
<path fill="none" stroke="#63b8ff" d="M133.88,-54.75C129.64,-47.49 123.47,-36.95 118.22,-27.98"/>
<polygon fill="#63b8ff" stroke="#63b8ff" points="121.09,-25.95 113.02,-19.09 115.05,-29.49 121.09,-25.95"/>
</a>
</g>
</g>
<!-- Node34&#45;&gt;Node18 -->
<g id="edge22_Node000034_Node000018" class="edge">
<title>Node34&#45;&gt;Node18</title>
<g id="a_edge22_Node000034_Node000018"><a xlink:title=" ">
<path fill="none" stroke="#63b8ff" d="M95.9,-274.95C89.62,-256.86 76,-213.27 76,-175.5 76,-175.5 76,-175.5 76,-118.5 76,-85.71 89.73,-49.54 99.2,-28.49"/>
<polygon fill="#63b8ff" stroke="#63b8ff" points="102.48,-29.74 103.55,-19.2 96.14,-26.77 102.48,-29.74"/>
</a>
</g>
</g>
<!-- Node35 -->
<g id="Node000035" class="node">
<title>Node35</title>
<g id="a_Node000035"><a xlink:href="exception__utils_8h.html" target="_top" xlink:title=" ">
<polygon fill="white" stroke="#666666" points="204,-239 104,-239 104,-220 204,-220 204,-239"/>
<text text-anchor="middle" x="154" y="-227" font-family="Helvetica,sans-Serif" font-size="10.00">exception_utils.h</text>
</a>
</g>
</g>
<!-- Node34&#45;&gt;Node35 -->
<g id="edge23_Node000034_Node000035" class="edge">
<title>Node34&#45;&gt;Node35</title>
<g id="a_edge23_Node000034_Node000035"><a xlink:title=" ">
<path fill="none" stroke="#63b8ff" d="M108.08,-274.75C116.09,-267.03 127.96,-255.6 137.62,-246.28"/>
<polygon fill="#63b8ff" stroke="#63b8ff" points="140.31,-248.55 145.09,-239.09 135.46,-243.51 140.31,-248.55"/>
</a>
</g>
</g>
<!-- Node34&#45;&gt;Node36 -->
<g id="edge27_Node000034_Node000036" class="edge">
<title>Node34&#45;&gt;Node36</title>
<g id="a_edge27_Node000034_Node000036"><a xlink:title=" ">
<path fill="none" stroke="#63b8ff" d="M127.44,-274.98C157.28,-266.05 204.38,-251.94 237.53,-242.02"/>
<polygon fill="#63b8ff" stroke="#63b8ff" points="238.76,-245.3 247.34,-239.08 236.76,-238.6 238.76,-245.3"/>
</a>
</g>
</g>
<!-- Node35&#45;&gt;Node7 -->
<g id="edge24_Node000035_Node000007" class="edge">
<title>Node35&#45;&gt;Node7</title>
<g id="a_edge24_Node000035_Node000007"><a xlink:title=" ">
<path fill="none" stroke="#63b8ff" d="M204.2,-219.98C256.06,-208.49 335.52,-182.89 380,-129 401.48,-102.98 403.12,-88.19 397,-55 395.33,-45.95 391.9,-36.36 388.56,-28.41"/>
<polygon fill="#63b8ff" stroke="#63b8ff" points="391.66,-26.78 384.37,-19.09 385.27,-29.65 391.66,-26.78"/>
</a>
</g>
</g>
<!-- Node35&#45;&gt;Node11 -->
<g id="edge26_Node000035_Node000011" class="edge">
<title>Node35&#45;&gt;Node11</title>
<g id="a_edge26_Node000035_Node000011"><a xlink:title=" ">
<path fill="none" stroke="#63b8ff" d="M164.12,-219.98C173.44,-212.15 187.47,-200.34 198.74,-190.86"/>
<polygon fill="#63b8ff" stroke="#63b8ff" points="201.29,-193.29 206.69,-184.17 196.79,-187.93 201.29,-193.29"/>
</a>
</g>
</g>
<!-- Node35&#45;&gt;Node15 -->
<g id="edge25_Node000035_Node000015" class="edge">
<title>Node35&#45;&gt;Node15</title>
<g id="a_edge25_Node000035_Node000015"><a xlink:title=" ">
<path fill="none" stroke="#63b8ff" d="M151.02,-219.95C144.59,-200.57 130.2,-151.69 133,-110 133.57,-101.54 134.74,-92.24 135.89,-84.34"/>
<polygon fill="#63b8ff" stroke="#63b8ff" points="139.37,-84.75 137.45,-74.33 132.45,-83.67 139.37,-84.75"/>
</a>
</g>
</g>
</g>
</svg>
