<?xml version="1.0" encoding="UTF-8" standalone="no"?>
<!DOCTYPE svg PUBLIC "-//W3C//DTD SVG 1.1//EN"
 "http://www.w3.org/Graphics/SVG/1.1/DTD/svg11.dtd">
<!-- Generated by graphviz version 2.43.0 (0)
 -->
<!-- Title: /home/runner/work/cbmc/cbmc/src/crangler/cscanner.cpp Pages: 1 -->
<svg width="194pt" height="203pt"
 viewBox="0.00 0.00 194.00 203.00" xmlns="http://www.w3.org/2000/svg" xmlns:xlink="http://www.w3.org/1999/xlink">
<g id="graph0" class="graph" transform="scale(1 1) rotate(0) translate(4 199)">
<title>/home/runner/work/cbmc/cbmc/src/crangler/cscanner.cpp</title>
<!-- Node1 -->
<g id="Node000001" class="node">
<title>Node1</title>
<g id="a_Node000001"><a xlink:title=" ">
<polygon fill="#999999" stroke="#666666" points="172,-195 0,-195 0,-165 172,-165 172,-195"/>
<text text-anchor="start" x="8" y="-183" font-family="Helvetica,sans-Serif" font-size="10.00">/home/runner/work/cbmc</text>
<text text-anchor="middle" x="86" y="-172" font-family="Helvetica,sans-Serif" font-size="10.00">/cbmc/src/crangler/cscanner.cpp</text>
</a>
</g>
</g>
<!-- Node2 -->
<g id="Node000002" class="node">
<title>Node2</title>
<g id="a_Node000002"><a xlink:href="cscanner_8h.html" target="_top" xlink:title="cscanner">
<polygon fill="white" stroke="#666666" points="120,-129 52,-129 52,-110 120,-110 120,-129"/>
<text text-anchor="middle" x="86" y="-117" font-family="Helvetica,sans-Serif" font-size="10.00">cscanner.h</text>
</a>
</g>
</g>
<!-- Node1&#45;&gt;Node2 -->
<g id="edge1_Node000001_Node000002" class="edge">
<title>Node1&#45;&gt;Node2</title>
<g id="a_edge1_Node000001_Node000002"><a xlink:title=" ">
<path fill="none" stroke="#63b8ff" d="M86,-164.84C86,-157.21 86,-147.7 86,-139.45"/>
<polygon fill="#63b8ff" stroke="#63b8ff" points="89.5,-139.27 86,-129.27 82.5,-139.27 89.5,-139.27"/>
</a>
</g>
</g>
<!-- Node3 -->
<g id="Node000003" class="node">
<title>Node3</title>
<g id="a_Node000003"><a xlink:title=" ">
<polygon fill="#e0e0e0" stroke="#999999" points="88,-19 40,-19 40,0 88,0 88,-19"/>
<text text-anchor="middle" x="64" y="-7" font-family="Helvetica,sans-Serif" font-size="10.00">iosfwd</text>
</a>
</g>
</g>
<!-- Node2&#45;&gt;Node3 -->
<g id="edge2_Node000002_Node000003" class="edge">
<title>Node2&#45;&gt;Node3</title>
<g id="a_edge2_Node000002_Node000003"><a xlink:title=" ">
<path fill="none" stroke="#63b8ff" d="M76.98,-109.96C68.93,-101.66 57.71,-88.25 53,-74 48.12,-59.23 51.79,-41.77 56.16,-28.9"/>
<polygon fill="#63b8ff" stroke="#63b8ff" points="59.51,-29.92 59.82,-19.33 52.98,-27.41 59.51,-29.92"/>
</a>
</g>
</g>
<!-- Node4 -->
<g id="Node000004" class="node">
<title>Node4</title>
<g id="a_Node000004"><a xlink:title=" ">
<polygon fill="#e0e0e0" stroke="#999999" points="109.5,-74 62.5,-74 62.5,-55 109.5,-55 109.5,-74"/>
<text text-anchor="middle" x="86" y="-62" font-family="Helvetica,sans-Serif" font-size="10.00">vector</text>
</a>
</g>
</g>
<!-- Node2&#45;&gt;Node4 -->
<g id="edge3_Node000002_Node000004" class="edge">
<title>Node2&#45;&gt;Node4</title>
<g id="a_edge3_Node000002_Node000004"><a xlink:title=" ">
<path fill="none" stroke="#63b8ff" d="M86,-109.75C86,-102.8 86,-92.85 86,-84.13"/>
<polygon fill="#63b8ff" stroke="#63b8ff" points="89.5,-84.09 86,-74.09 82.5,-84.09 89.5,-84.09"/>
</a>
</g>
</g>
<!-- Node5 -->
<g id="Node000005" class="node">
<title>Node5</title>
<g id="a_Node000005"><a xlink:href="ctoken_8h.html" target="_top" xlink:title="ctoken">
<polygon fill="white" stroke="#666666" points="186,-74 128,-74 128,-55 186,-55 186,-74"/>
<text text-anchor="middle" x="157" y="-62" font-family="Helvetica,sans-Serif" font-size="10.00">ctoken.h</text>
</a>
</g>
</g>
<!-- Node2&#45;&gt;Node5 -->
<g id="edge4_Node000002_Node000005" class="edge">
<title>Node2&#45;&gt;Node5</title>
<g id="a_edge4_Node000002_Node000005"><a xlink:title=" ">
<path fill="none" stroke="#63b8ff" d="M97.41,-109.98C108.11,-102 124.34,-89.88 137.16,-80.31"/>
<polygon fill="#63b8ff" stroke="#63b8ff" points="139.47,-82.96 145.39,-74.17 135.28,-77.35 139.47,-82.96"/>
</a>
</g>
</g>
<!-- Node5&#45;&gt;Node3 -->
<g id="edge5_Node000005_Node000003" class="edge">
<title>Node5&#45;&gt;Node3</title>
<g id="a_edge5_Node000005_Node000003"><a xlink:title=" ">
<path fill="none" stroke="#63b8ff" d="M142.06,-54.98C127.5,-46.69 105.13,-33.94 88.07,-24.22"/>
<polygon fill="#63b8ff" stroke="#63b8ff" points="89.64,-21.08 79.21,-19.17 86.17,-27.16 89.64,-21.08"/>
</a>
</g>
</g>
<!-- Node6 -->
<g id="Node000006" class="node">
<title>Node6</title>
<g id="a_Node000006"><a xlink:title=" ">
<polygon fill="#e0e0e0" stroke="#999999" points="179,-19 135,-19 135,0 179,0 179,-19"/>
<text text-anchor="middle" x="157" y="-7" font-family="Helvetica,sans-Serif" font-size="10.00">string</text>
</a>
</g>
</g>
<!-- Node5&#45;&gt;Node6 -->
<g id="edge6_Node000005_Node000006" class="edge">
<title>Node5&#45;&gt;Node6</title>
<g id="a_edge6_Node000005_Node000006"><a xlink:title=" ">
<path fill="none" stroke="#63b8ff" d="M157,-54.75C157,-47.8 157,-37.85 157,-29.13"/>
<polygon fill="#63b8ff" stroke="#63b8ff" points="160.5,-29.09 157,-19.09 153.5,-29.09 160.5,-29.09"/>
</a>
</g>
</g>
</g>
</svg>
