<?xml version="1.0" encoding="UTF-8" standalone="no"?>
<!DOCTYPE svg PUBLIC "-//W3C//DTD SVG 1.1//EN"
 "http://www.w3.org/Graphics/SVG/1.1/DTD/svg11.dtd">
<!-- Generated by graphviz version 2.43.0 (0)
 -->
<!-- Title: /home/runner/work/cbmc/cbmc/src/pointer&#45;analysis/dereference_callback.h Pages: 1 -->
<svg width="1465pt" height="280pt"
 viewBox="0.00 0.00 1464.50 280.00" xmlns="http://www.w3.org/2000/svg" xmlns:xlink="http://www.w3.org/1999/xlink">
<g id="graph0" class="graph" transform="scale(1 1) rotate(0) translate(4 276)">
<title>/home/runner/work/cbmc/cbmc/src/pointer&#45;analysis/dereference_callback.h</title>
<!-- Node1 -->
<g id="Node000001" class="node">
<title>Node1</title>
<g id="a_Node000001"><a xlink:title="Pointer Dereferencing.">
<polygon fill="#999999" stroke="#666666" points="948,-272 803,-272 803,-231 948,-231 948,-272"/>
<text text-anchor="start" x="811" y="-260" font-family="Helvetica,sans-Serif" font-size="10.00">/home/runner/work/cbmc</text>
<text text-anchor="start" x="811" y="-249" font-family="Helvetica,sans-Serif" font-size="10.00">/cbmc/src/pointer&#45;analysis</text>
<text text-anchor="middle" x="875.5" y="-238" font-family="Helvetica,sans-Serif" font-size="10.00">/dereference_callback.h</text>
</a>
</g>
</g>
<!-- Node2 -->
<g id="Node000002" class="node">
<title>Node2</title>
<g id="a_Node000002"><a xlink:href="symex__dereference__state_8h.html" target="_top" xlink:title="Symbolic Execution of ANSI&#45;C.">
<polygon fill="white" stroke="#666666" points="430,-195 269,-195 269,-154 430,-154 430,-195"/>
<text text-anchor="start" x="277" y="-183" font-family="Helvetica,sans-Serif" font-size="10.00">/home/runner/work/cbmc</text>
<text text-anchor="start" x="277" y="-172" font-family="Helvetica,sans-Serif" font-size="10.00">/cbmc/src/goto&#45;symex/symex</text>
<text text-anchor="middle" x="349.5" y="-161" font-family="Helvetica,sans-Serif" font-size="10.00">_dereference_state.h</text>
</a>
</g>
</g>
<!-- Node1&#45;&gt;Node2 -->
<g id="edge1_Node000001_Node000002" class="edge">
<title>Node1&#45;&gt;Node2</title>
<g id="a_edge1_Node000001_Node000002"><a xlink:title=" ">
<path fill="none" stroke="#63b8ff" d="M792.94,-238.73C693.84,-224.6 528.74,-201.06 430.39,-187.03"/>
<polygon fill="#63b8ff" stroke="#63b8ff" points="792.52,-242.2 802.91,-240.15 793.51,-235.27 792.52,-242.2"/>
</a>
</g>
</g>
<!-- Node6 -->
<g id="Node000006" class="node">
<title>Node6</title>
<g id="a_Node000006"><a xlink:href="goto__program__dereference_8h.html" target="_top" xlink:title="Value Set.">
<polygon fill="white" stroke="#666666" points="956,-195 795,-195 795,-154 956,-154 956,-195"/>
<text text-anchor="start" x="803" y="-183" font-family="Helvetica,sans-Serif" font-size="10.00">/home/runner/work/cbmc</text>
<text text-anchor="start" x="803" y="-172" font-family="Helvetica,sans-Serif" font-size="10.00">/cbmc/src/pointer&#45;analysis</text>
<text text-anchor="middle" x="875.5" y="-161" font-family="Helvetica,sans-Serif" font-size="10.00">/goto_program_dereference.h</text>
</a>
</g>
</g>
<!-- Node1&#45;&gt;Node6 -->
<g id="edge5_Node000001_Node000006" class="edge">
<title>Node1&#45;&gt;Node6</title>
<g id="a_edge5_Node000001_Node000006"><a xlink:title=" ">
<path fill="none" stroke="#63b8ff" d="M875.5,-220.69C875.5,-212.08 875.5,-202.9 875.5,-195.07"/>
<polygon fill="#63b8ff" stroke="#63b8ff" points="872,-220.79 875.5,-230.79 879,-220.79 872,-220.79"/>
</a>
</g>
</g>
<!-- Node15 -->
<g id="Node000015" class="node">
<title>Node15</title>
<g id="a_Node000015"><a xlink:href="value__set__dereference_8cpp.html" target="_top" xlink:title="Symbolic Execution of ANSI&#45;C.">
<polygon fill="white" stroke="#666666" points="1125,-195 974,-195 974,-154 1125,-154 1125,-195"/>
<text text-anchor="start" x="982" y="-183" font-family="Helvetica,sans-Serif" font-size="10.00">/home/runner/work/cbmc</text>
<text text-anchor="start" x="982" y="-172" font-family="Helvetica,sans-Serif" font-size="10.00">/cbmc/src/pointer&#45;analysis</text>
<text text-anchor="middle" x="1049.5" y="-161" font-family="Helvetica,sans-Serif" font-size="10.00">/value_set_dereference.cpp</text>
</a>
</g>
</g>
<!-- Node1&#45;&gt;Node15 -->
<g id="edge14_Node000001_Node000015" class="edge">
<title>Node1&#45;&gt;Node15</title>
<g id="a_edge14_Node000001_Node000015"><a xlink:title=" ">
<path fill="none" stroke="#63b8ff" d="M930.03,-227C953.86,-216.72 981.48,-204.82 1004.16,-195.04"/>
<polygon fill="#63b8ff" stroke="#63b8ff" points="928.56,-223.82 920.76,-230.99 931.33,-230.25 928.56,-223.82"/>
</a>
</g>
</g>
<!-- Node3 -->
<g id="Node000003" class="node">
<title>Node3</title>
<g id="a_Node000003"><a xlink:href="symex__clean__expr_8cpp.html" target="_top" xlink:title="Symbolic Execution of ANSI&#45;C.">
<polygon fill="white" stroke="#666666" points="161,-118 0,-118 0,-77 161,-77 161,-118"/>
<text text-anchor="start" x="8" y="-106" font-family="Helvetica,sans-Serif" font-size="10.00">/home/runner/work/cbmc</text>
<text text-anchor="start" x="8" y="-95" font-family="Helvetica,sans-Serif" font-size="10.00">/cbmc/src/goto&#45;symex/symex</text>
<text text-anchor="middle" x="80.5" y="-84" font-family="Helvetica,sans-Serif" font-size="10.00">_clean_expr.cpp</text>
</a>
</g>
</g>
<!-- Node2&#45;&gt;Node3 -->
<g id="edge2_Node000002_Node000003" class="edge">
<title>Node2&#45;&gt;Node3</title>
<g id="a_edge2_Node000002_Node000003"><a xlink:title=" ">
<path fill="none" stroke="#63b8ff" d="M269.57,-151.21C231.77,-140.68 187.05,-128.21 150.59,-118.04"/>
<polygon fill="#63b8ff" stroke="#63b8ff" points="268.95,-154.68 279.53,-153.99 270.83,-147.93 268.95,-154.68"/>
</a>
</g>
</g>
<!-- Node4 -->
<g id="Node000004" class="node">
<title>Node4</title>
<g id="a_Node000004"><a xlink:href="symex__dereference_8cpp.html" target="_top" xlink:title="Symbolic Execution of ANSI&#45;C.">
<polygon fill="white" stroke="#666666" points="340,-118 179,-118 179,-77 340,-77 340,-118"/>
<text text-anchor="start" x="187" y="-106" font-family="Helvetica,sans-Serif" font-size="10.00">/home/runner/work/cbmc</text>
<text text-anchor="start" x="187" y="-95" font-family="Helvetica,sans-Serif" font-size="10.00">/cbmc/src/goto&#45;symex/symex</text>
<text text-anchor="middle" x="259.5" y="-84" font-family="Helvetica,sans-Serif" font-size="10.00">_dereference.cpp</text>
</a>
</g>
</g>
<!-- Node2&#45;&gt;Node4 -->
<g id="edge3_Node000002_Node000004" class="edge">
<title>Node2&#45;&gt;Node4</title>
<g id="a_edge3_Node000002_Node000004"><a xlink:title=" ">
<path fill="none" stroke="#63b8ff" d="M318.12,-147.35C306.58,-137.73 293.72,-127.01 282.99,-118.07"/>
<polygon fill="#63b8ff" stroke="#63b8ff" points="315.93,-150.08 325.85,-153.79 320.41,-144.7 315.93,-150.08"/>
</a>
</g>
</g>
<!-- Node5 -->
<g id="Node000005" class="node">
<title>Node5</title>
<g id="a_Node000005"><a xlink:href="symex__dereference__state_8cpp.html" target="_top" xlink:title="Symbolic Execution of ANSI&#45;C.">
<polygon fill="white" stroke="#666666" points="519,-118 358,-118 358,-77 519,-77 519,-118"/>
<text text-anchor="start" x="366" y="-106" font-family="Helvetica,sans-Serif" font-size="10.00">/home/runner/work/cbmc</text>
<text text-anchor="start" x="366" y="-95" font-family="Helvetica,sans-Serif" font-size="10.00">/cbmc/src/goto&#45;symex/symex</text>
<text text-anchor="middle" x="438.5" y="-84" font-family="Helvetica,sans-Serif" font-size="10.00">_dereference_state.cpp</text>
</a>
</g>
</g>
<!-- Node2&#45;&gt;Node5 -->
<g id="edge4_Node000002_Node000005" class="edge">
<title>Node2&#45;&gt;Node5</title>
<g id="a_edge4_Node000002_Node000005"><a xlink:title=" ">
<path fill="none" stroke="#63b8ff" d="M380.53,-147.35C391.95,-137.73 404.66,-127.01 415.27,-118.07"/>
<polygon fill="#63b8ff" stroke="#63b8ff" points="378.28,-144.67 372.88,-153.79 382.79,-150.03 378.28,-144.67"/>
</a>
</g>
</g>
<!-- Node7 -->
<g id="Node000007" class="node">
<title>Node7</title>
<g id="a_Node000007"><a xlink:href="goto__rw_8cpp.html" target="_top" xlink:title=" ">
<polygon fill="white" stroke="#666666" points="675.5,-118 537.5,-118 537.5,-77 675.5,-77 675.5,-118"/>
<text text-anchor="start" x="545.5" y="-106" font-family="Helvetica,sans-Serif" font-size="10.00">/home/runner/work/cbmc</text>
<text text-anchor="start" x="545.5" y="-95" font-family="Helvetica,sans-Serif" font-size="10.00">/cbmc/src/analyses/goto</text>
<text text-anchor="middle" x="606.5" y="-84" font-family="Helvetica,sans-Serif" font-size="10.00">_rw.cpp</text>
</a>
</g>
</g>
<!-- Node6&#45;&gt;Node7 -->
<g id="edge6_Node000006_Node000007" class="edge">
<title>Node6&#45;&gt;Node7</title>
<g id="a_edge6_Node000006_Node000007"><a xlink:title=" ">
<path fill="none" stroke="#63b8ff" d="M795.49,-151.19C757.38,-140.57 712.26,-127.99 675.66,-117.78"/>
<polygon fill="#63b8ff" stroke="#63b8ff" points="794.95,-154.68 805.53,-153.99 796.83,-147.93 794.95,-154.68"/>
</a>
</g>
</g>
<!-- Node8 -->
<g id="Node000008" class="node">
<title>Node8</title>
<g id="a_Node000008"><a xlink:href="goto__instrument__parse__options_8h.html" target="_top" xlink:title="Command Line Parsing.">
<polygon fill="white" stroke="#666666" points="875.5,-118 693.5,-118 693.5,-77 875.5,-77 875.5,-118"/>
<text text-anchor="start" x="701.5" y="-106" font-family="Helvetica,sans-Serif" font-size="10.00">/home/runner/work/cbmc</text>
<text text-anchor="start" x="701.5" y="-95" font-family="Helvetica,sans-Serif" font-size="10.00">/cbmc/src/goto&#45;instrument</text>
<text text-anchor="middle" x="784.5" y="-84" font-family="Helvetica,sans-Serif" font-size="10.00">/goto_instrument_parse_options.h</text>
</a>
</g>
</g>
<!-- Node6&#45;&gt;Node8 -->
<g id="edge7_Node000006_Node000008" class="edge">
<title>Node6&#45;&gt;Node8</title>
<g id="a_edge7_Node000006_Node000008"><a xlink:title=" ">
<path fill="none" stroke="#63b8ff" d="M843.77,-147.35C832.1,-137.73 819.1,-127.01 808.25,-118.07"/>
<polygon fill="#63b8ff" stroke="#63b8ff" points="841.65,-150.14 851.59,-153.79 846.1,-144.73 841.65,-150.14"/>
</a>
</g>
</g>
<!-- Node12 -->
<g id="Node000012" class="node">
<title>Node12</title>
<g id="a_Node000012"><a xlink:href="rw__set_8cpp.html" target="_top" xlink:title="Race Detection for Threaded Goto Programs.">
<polygon fill="white" stroke="#666666" points="1039,-118 894,-118 894,-77 1039,-77 1039,-118"/>
<text text-anchor="start" x="902" y="-106" font-family="Helvetica,sans-Serif" font-size="10.00">/home/runner/work/cbmc</text>
<text text-anchor="start" x="902" y="-95" font-family="Helvetica,sans-Serif" font-size="10.00">/cbmc/src/goto&#45;instrument</text>
<text text-anchor="middle" x="966.5" y="-84" font-family="Helvetica,sans-Serif" font-size="10.00">/rw_set.cpp</text>
</a>
</g>
</g>
<!-- Node6&#45;&gt;Node12 -->
<g id="edge11_Node000006_Node000012" class="edge">
<title>Node6&#45;&gt;Node12</title>
<g id="a_edge11_Node000006_Node000012"><a xlink:title=" ">
<path fill="none" stroke="#63b8ff" d="M907.23,-147.35C918.9,-137.73 931.9,-127.01 942.75,-118.07"/>
<polygon fill="#63b8ff" stroke="#63b8ff" points="904.9,-144.73 899.41,-153.79 909.35,-150.14 904.9,-144.73"/>
</a>
</g>
</g>
<!-- Node13 -->
<g id="Node000013" class="node">
<title>Node13</title>
<g id="a_Node000013"><a xlink:href="precondition_8cpp.html" target="_top" xlink:title="Symbolic Execution.">
<polygon fill="white" stroke="#666666" points="1266,-112.5 1057,-112.5 1057,-82.5 1266,-82.5 1266,-112.5"/>
<text text-anchor="start" x="1065" y="-100.5" font-family="Helvetica,sans-Serif" font-size="10.00">/home/runner/work/cbmc</text>
<text text-anchor="middle" x="1161.5" y="-89.5" font-family="Helvetica,sans-Serif" font-size="10.00">/cbmc/src/goto&#45;symex/precondition.cpp</text>
</a>
</g>
</g>
<!-- Node6&#45;&gt;Node13 -->
<g id="edge12_Node000006_Node000013" class="edge">
<title>Node6&#45;&gt;Node13</title>
<g id="a_edge12_Node000006_Node000013"><a xlink:title=" ">
<path fill="none" stroke="#63b8ff" d="M959.64,-151.44C1007.53,-138.88 1066.11,-123.52 1107.8,-112.58"/>
<polygon fill="#63b8ff" stroke="#63b8ff" points="958.68,-148.07 949.9,-153.99 960.46,-154.84 958.68,-148.07"/>
</a>
</g>
</g>
<!-- Node14 -->
<g id="Node000014" class="node">
<title>Node14</title>
<g id="a_Node000014"><a xlink:href="goto__program__dereference_8cpp.html" target="_top" xlink:title="Dereferencing Operations on GOTO Programs.">
<polygon fill="white" stroke="#666666" points="1456.5,-118 1284.5,-118 1284.5,-77 1456.5,-77 1456.5,-118"/>
<text text-anchor="start" x="1292.5" y="-106" font-family="Helvetica,sans-Serif" font-size="10.00">/home/runner/work/cbmc</text>
<text text-anchor="start" x="1292.5" y="-95" font-family="Helvetica,sans-Serif" font-size="10.00">/cbmc/src/pointer&#45;analysis</text>
<text text-anchor="middle" x="1370.5" y="-84" font-family="Helvetica,sans-Serif" font-size="10.00">/goto_program_dereference.cpp</text>
</a>
</g>
</g>
<!-- Node6&#45;&gt;Node14 -->
<g id="edge13_Node000006_Node000014" class="edge">
<title>Node6&#45;&gt;Node14</title>
<g id="a_edge13_Node000006_Node000014"><a xlink:title=" ">
<path fill="none" stroke="#63b8ff" d="M966.47,-153.93C1104.08,-131.68 1141.76,-139.45 1275.5,-118 1278.41,-117.53 1281.36,-117.04 1284.35,-116.52"/>
<polygon fill="#63b8ff" stroke="#63b8ff" points="965.68,-150.51 956.38,-155.59 966.82,-157.42 965.68,-150.51"/>
</a>
</g>
</g>
<!-- Node9 -->
<g id="Node000009" class="node">
<title>Node9</title>
<g id="a_Node000009"><a xlink:href="goto__instrument__languages_8cpp.html" target="_top" xlink:title="Language Registration.">
<polygon fill="white" stroke="#666666" points="691.5,-41 515.5,-41 515.5,0 691.5,0 691.5,-41"/>
<text text-anchor="start" x="523.5" y="-29" font-family="Helvetica,sans-Serif" font-size="10.00">/home/runner/work/cbmc</text>
<text text-anchor="start" x="523.5" y="-18" font-family="Helvetica,sans-Serif" font-size="10.00">/cbmc/src/goto&#45;instrument</text>
<text text-anchor="middle" x="603.5" y="-7" font-family="Helvetica,sans-Serif" font-size="10.00">/goto_instrument_languages.cpp</text>
</a>
</g>
</g>
<!-- Node8&#45;&gt;Node9 -->
<g id="edge8_Node000008_Node000009" class="edge">
<title>Node8&#45;&gt;Node9</title>
<g id="a_edge8_Node000008_Node000009"><a xlink:title=" ">
<path fill="none" stroke="#63b8ff" d="M728.1,-73.13C703.24,-62.83 674.36,-50.86 650.66,-41.04"/>
<polygon fill="#63b8ff" stroke="#63b8ff" points="726.84,-76.4 737.42,-76.99 729.52,-69.93 726.84,-76.4"/>
</a>
</g>
</g>
<!-- Node10 -->
<g id="Node000010" class="node">
<title>Node10</title>
<g id="a_Node000010"><a xlink:href="goto__instrument__main_8cpp.html" target="_top" xlink:title="Main Module.">
<polygon fill="white" stroke="#666666" points="859.5,-41 709.5,-41 709.5,0 859.5,0 859.5,-41"/>
<text text-anchor="start" x="717.5" y="-29" font-family="Helvetica,sans-Serif" font-size="10.00">/home/runner/work/cbmc</text>
<text text-anchor="start" x="717.5" y="-18" font-family="Helvetica,sans-Serif" font-size="10.00">/cbmc/src/goto&#45;instrument</text>
<text text-anchor="middle" x="784.5" y="-7" font-family="Helvetica,sans-Serif" font-size="10.00">/goto_instrument_main.cpp</text>
</a>
</g>
</g>
<!-- Node8&#45;&gt;Node10 -->
<g id="edge9_Node000008_Node000010" class="edge">
<title>Node8&#45;&gt;Node10</title>
<g id="a_edge9_Node000008_Node000010"><a xlink:title=" ">
<path fill="none" stroke="#63b8ff" d="M784.5,-66.69C784.5,-58.08 784.5,-48.9 784.5,-41.07"/>
<polygon fill="#63b8ff" stroke="#63b8ff" points="781,-66.79 784.5,-76.79 788,-66.79 781,-66.79"/>
</a>
</g>
</g>
<!-- Node11 -->
<g id="Node000011" class="node">
<title>Node11</title>
<g id="a_Node000011"><a xlink:href="goto__instrument__parse__options_8cpp.html" target="_top" xlink:title="Main Module.">
<polygon fill="white" stroke="#666666" points="1071.5,-41 877.5,-41 877.5,0 1071.5,0 1071.5,-41"/>
<text text-anchor="start" x="885.5" y="-29" font-family="Helvetica,sans-Serif" font-size="10.00">/home/runner/work/cbmc</text>
<text text-anchor="start" x="885.5" y="-18" font-family="Helvetica,sans-Serif" font-size="10.00">/cbmc/src/goto&#45;instrument</text>
<text text-anchor="middle" x="974.5" y="-7" font-family="Helvetica,sans-Serif" font-size="10.00">/goto_instrument_parse_options.cpp</text>
</a>
</g>
</g>
<!-- Node8&#45;&gt;Node11 -->
<g id="edge10_Node000008_Node000011" class="edge">
<title>Node8&#45;&gt;Node11</title>
<g id="a_edge10_Node000008_Node000011"><a xlink:title=" ">
<path fill="none" stroke="#63b8ff" d="M843.36,-73.27C869.53,-62.94 900.01,-50.9 924.99,-41.04"/>
<polygon fill="#63b8ff" stroke="#63b8ff" points="841.94,-70.06 833.92,-76.99 844.51,-76.57 841.94,-70.06"/>
</a>
</g>
</g>
</g>
</svg>
