<?xml version="1.0" encoding="UTF-8" standalone="no"?>
<!DOCTYPE svg PUBLIC "-//W3C//DTD SVG 1.1//EN"
 "http://www.w3.org/Graphics/SVG/1.1/DTD/svg11.dtd">
<!-- Generated by graphviz version 2.43.0 (0)
 -->
<!-- Title: /home/runner/work/cbmc/cbmc/src/ansi&#45;c/designator.h Pages: 1 -->
<svg width="939pt" height="533pt"
 viewBox="0.00 0.00 939.00 533.00" xmlns="http://www.w3.org/2000/svg" xmlns:xlink="http://www.w3.org/1999/xlink">
<g id="graph0" class="graph" transform="scale(1 1) rotate(0) translate(4 529)">
<title>/home/runner/work/cbmc/cbmc/src/ansi&#45;c/designator.h</title>
<!-- Node1 -->
<g id="Node000001" class="node">
<title>Node1</title>
<g id="a_Node000001"><a xlink:title="ANSI&#45;C Language Type Checking.">
<polygon fill="#999999" stroke="#666666" points="931,-525 773,-525 773,-495 931,-495 931,-525"/>
<text text-anchor="start" x="781" y="-513" font-family="Helvetica,sans-Serif" font-size="10.00">/home/runner/work/cbmc</text>
<text text-anchor="middle" x="852" y="-502" font-family="Helvetica,sans-Serif" font-size="10.00">/cbmc/src/ansi&#45;c/designator.h</text>
</a>
</g>
</g>
<!-- Node2 -->
<g id="Node000002" class="node">
<title>Node2</title>
<g id="a_Node000002"><a xlink:title=" ">
<polygon fill="#e0e0e0" stroke="#999999" points="823.5,-19 776.5,-19 776.5,0 823.5,0 823.5,-19"/>
<text text-anchor="middle" x="800" y="-7" font-family="Helvetica,sans-Serif" font-size="10.00">vector</text>
</a>
</g>
</g>
<!-- Node1&#45;&gt;Node2 -->
<g id="edge1_Node000001_Node000002" class="edge">
<title>Node1&#45;&gt;Node2</title>
<g id="a_edge1_Node000001_Node000002"><a xlink:title=" ">
<path fill="none" stroke="#63b8ff" d="M863.28,-494.9C878.58,-474.33 904,-434.3 904,-395.5 904,-395.5 904,-395.5 904,-118.5 904,-89.04 903.74,-77.73 885,-55 871.68,-38.84 850.94,-27.82 833.28,-20.79"/>
<polygon fill="#63b8ff" stroke="#63b8ff" points="834.45,-17.49 823.86,-17.29 832.01,-24.05 834.45,-17.49"/>
</a>
</g>
</g>
<!-- Node3 -->
<g id="Node000003" class="node">
<title>Node3</title>
<g id="a_Node000003"><a xlink:title=" ">
<polygon fill="#e0e0e0" stroke="#999999" points="876,-74 828,-74 828,-55 876,-55 876,-74"/>
<text text-anchor="middle" x="852" y="-62" font-family="Helvetica,sans-Serif" font-size="10.00">iosfwd</text>
</a>
</g>
</g>
<!-- Node1&#45;&gt;Node3 -->
<g id="edge2_Node000001_Node000003" class="edge">
<title>Node1&#45;&gt;Node3</title>
<g id="a_edge2_Node000001_Node000003"><a xlink:title=" ">
<path fill="none" stroke="#63b8ff" d="M852,-494.67C852,-473.14 852,-431.17 852,-395.5 852,-395.5 852,-395.5 852,-173.5 852,-142.19 852,-105.77 852,-84.23"/>
<polygon fill="#63b8ff" stroke="#63b8ff" points="855.5,-84.18 852,-74.18 848.5,-84.18 855.5,-84.18"/>
</a>
</g>
</g>
<!-- Node4 -->
<g id="Node000004" class="node">
<title>Node4</title>
<g id="a_Node000004"><a xlink:href="type_8h.html" target="_top" xlink:title="Defines typet, type_with_subtypet and type_with_subtypest.">
<polygon fill="white" stroke="#666666" points="527,-459 461,-459 461,-440 527,-440 527,-459"/>
<text text-anchor="middle" x="494" y="-447" font-family="Helvetica,sans-Serif" font-size="10.00">util/type.h</text>
</a>
</g>
</g>
<!-- Node1&#45;&gt;Node4 -->
<g id="edge3_Node000001_Node000004" class="edge">
<title>Node1&#45;&gt;Node4</title>
<g id="a_edge3_Node000001_Node000004"><a xlink:title=" ">
<path fill="none" stroke="#63b8ff" d="M772.99,-496.09C700.34,-484.22 595.34,-467.06 537.07,-457.54"/>
<polygon fill="#63b8ff" stroke="#63b8ff" points="537.53,-454.07 527.09,-455.91 536.4,-460.97 537.53,-454.07"/>
</a>
</g>
</g>
<!-- Node5 -->
<g id="Node000005" class="node">
<title>Node5</title>
<g id="a_Node000005"><a xlink:href="source__location_8h.html" target="_top" xlink:title=" ">
<polygon fill="white" stroke="#666666" points="563,-294 461,-294 461,-275 563,-275 563,-294"/>
<text text-anchor="middle" x="512" y="-282" font-family="Helvetica,sans-Serif" font-size="10.00">source_location.h</text>
</a>
</g>
</g>
<!-- Node4&#45;&gt;Node5 -->
<g id="edge4_Node000004_Node000005" class="edge">
<title>Node4&#45;&gt;Node5</title>
<g id="a_edge4_Node000004_Node000005"><a xlink:title=" ">
<path fill="none" stroke="#63b8ff" d="M494.97,-439.74C497.78,-414.31 505.97,-340.08 509.88,-304.69"/>
<polygon fill="#63b8ff" stroke="#63b8ff" points="513.41,-304.63 511.03,-294.31 506.45,-303.86 513.41,-304.63"/>
</a>
</g>
</g>
<!-- Node29 -->
<g id="Node000029" class="node">
<title>Node29</title>
<g id="a_Node000029"><a xlink:href="validate_8h.html" target="_top" xlink:title=" ">
<polygon fill="white" stroke="#666666" points="288.5,-404 223.5,-404 223.5,-385 288.5,-385 288.5,-404"/>
<text text-anchor="middle" x="256" y="-392" font-family="Helvetica,sans-Serif" font-size="10.00">validate.h</text>
</a>
</g>
</g>
<!-- Node4&#45;&gt;Node29 -->
<g id="edge31_Node000004_Node000029" class="edge">
<title>Node4&#45;&gt;Node29</title>
<g id="a_edge31_Node000004_Node000029"><a xlink:title=" ">
<path fill="none" stroke="#63b8ff" d="M460.91,-441.13C418.54,-431.7 345.08,-415.34 298.59,-404.98"/>
<polygon fill="#63b8ff" stroke="#63b8ff" points="299.33,-401.56 288.81,-402.81 297.81,-408.4 299.33,-401.56"/>
</a>
</g>
</g>
<!-- Node31 -->
<g id="Node000031" class="node">
<title>Node31</title>
<g id="a_Node000031"><a xlink:href="validation__mode_8h.html" target="_top" xlink:title=" ">
<polygon fill="white" stroke="#666666" points="401.5,-349 294.5,-349 294.5,-330 401.5,-330 401.5,-349"/>
<text text-anchor="middle" x="348" y="-337" font-family="Helvetica,sans-Serif" font-size="10.00">validation_mode.h</text>
</a>
</g>
</g>
<!-- Node4&#45;&gt;Node31 -->
<g id="edge39_Node000004_Node000031" class="edge">
<title>Node4&#45;&gt;Node31</title>
<g id="a_edge39_Node000004_Node000031"><a xlink:title=" ">
<path fill="none" stroke="#63b8ff" d="M482.3,-439.84C457.42,-421.44 399.01,-378.23 368.06,-355.34"/>
<polygon fill="#63b8ff" stroke="#63b8ff" points="369.88,-352.33 359.76,-349.2 365.71,-357.96 369.88,-352.33"/>
</a>
</g>
</g>
<!-- Node32 -->
<g id="Node000032" class="node">
<title>Node32</title>
<g id="a_Node000032"><a xlink:href="validate__types_8h.html" target="_top" xlink:title=" ">
<polygon fill="white" stroke="#666666" points="620,-404 522,-404 522,-385 620,-385 620,-404"/>
<text text-anchor="middle" x="571" y="-392" font-family="Helvetica,sans-Serif" font-size="10.00">validate_types.h</text>
</a>
</g>
</g>
<!-- Node4&#45;&gt;Node32 -->
<g id="edge38_Node000004_Node000032" class="edge">
<title>Node4&#45;&gt;Node32</title>
<g id="a_edge38_Node000004_Node000032"><a xlink:title=" ">
<path fill="none" stroke="#63b8ff" d="M506.37,-439.98C518.09,-431.92 535.92,-419.65 549.89,-410.03"/>
<polygon fill="#63b8ff" stroke="#63b8ff" points="552.15,-412.72 558.4,-404.17 548.18,-406.96 552.15,-412.72"/>
</a>
</g>
</g>
<!-- Node6 -->
<g id="Node000006" class="node">
<title>Node6</title>
<g id="a_Node000006"><a xlink:href="deprecate_8h.html" target="_top" xlink:title=" ">
<polygon fill="white" stroke="#666666" points="722,-239 648,-239 648,-220 722,-220 722,-239"/>
<text text-anchor="middle" x="685" y="-227" font-family="Helvetica,sans-Serif" font-size="10.00">deprecate.h</text>
</a>
</g>
</g>
<!-- Node5&#45;&gt;Node6 -->
<g id="edge5_Node000005_Node000006" class="edge">
<title>Node5&#45;&gt;Node6</title>
<g id="a_edge5_Node000005_Node000006"><a xlink:title=" ">
<path fill="none" stroke="#63b8ff" d="M539.8,-274.98C568.97,-266.05 615,-251.94 647.4,-242.02"/>
<polygon fill="#63b8ff" stroke="#63b8ff" points="648.45,-245.36 656.99,-239.08 646.4,-238.66 648.45,-245.36"/>
</a>
</g>
</g>
<!-- Node7 -->
<g id="Node000007" class="node">
<title>Node7</title>
<g id="a_Node000007"><a xlink:href="irep_8h.html" target="_top" xlink:title=" ">
<polygon fill="white" stroke="#666666" points="630,-239 586,-239 586,-220 630,-220 630,-239"/>
<text text-anchor="middle" x="608" y="-227" font-family="Helvetica,sans-Serif" font-size="10.00">irep.h</text>
</a>
</g>
</g>
<!-- Node5&#45;&gt;Node7 -->
<g id="edge6_Node000005_Node000007" class="edge">
<title>Node5&#45;&gt;Node7</title>
<g id="a_edge6_Node000005_Node000007"><a xlink:title=" ">
<path fill="none" stroke="#63b8ff" d="M527.42,-274.98C542.45,-266.69 565.54,-253.94 583.16,-244.22"/>
<polygon fill="#63b8ff" stroke="#63b8ff" points="585.23,-247.07 592.3,-239.17 581.85,-240.94 585.23,-247.07"/>
</a>
</g>
</g>
<!-- Node8 -->
<g id="Node000008" class="node">
<title>Node8</title>
<g id="a_Node000008"><a xlink:title=" ">
<polygon fill="#e0e0e0" stroke="#999999" points="512,-19 468,-19 468,0 512,0 512,-19"/>
<text text-anchor="middle" x="490" y="-7" font-family="Helvetica,sans-Serif" font-size="10.00">string</text>
</a>
</g>
</g>
<!-- Node5&#45;&gt;Node8 -->
<g id="edge30_Node000005_Node000008" class="edge">
<title>Node5&#45;&gt;Node8</title>
<g id="a_edge30_Node000005_Node000008"><a xlink:title=" ">
<path fill="none" stroke="#63b8ff" d="M509.83,-274.7C507.72,-265.76 504.61,-251.51 503,-239 493.03,-161.69 490.71,-68.69 490.17,-29.44"/>
<polygon fill="#63b8ff" stroke="#63b8ff" points="493.66,-29.22 490.05,-19.26 486.66,-29.3 493.66,-29.22"/>
</a>
</g>
</g>
<!-- Node28 -->
<g id="Node000028" class="node">
<title>Node28</title>
<g id="a_Node000028"><a xlink:title=" ">
<polygon fill="#e0e0e0" stroke="#999999" points="568,-239 512,-239 512,-220 568,-220 568,-239"/>
<text text-anchor="middle" x="540" y="-227" font-family="Helvetica,sans-Serif" font-size="10.00">optional</text>
</a>
</g>
</g>
<!-- Node5&#45;&gt;Node28 -->
<g id="edge29_Node000005_Node000028" class="edge">
<title>Node5&#45;&gt;Node28</title>
<g id="a_edge29_Node000005_Node000028"><a xlink:title=" ">
<path fill="none" stroke="#63b8ff" d="M516.62,-274.75C520.46,-267.49 526.02,-256.95 530.76,-247.98"/>
<polygon fill="#63b8ff" stroke="#63b8ff" points="533.89,-249.57 535.46,-239.09 527.7,-246.3 533.89,-249.57"/>
</a>
</g>
</g>
<!-- Node7&#45;&gt;Node2 -->
<g id="edge8_Node000007_Node000002" class="edge">
<title>Node7&#45;&gt;Node2</title>
<g id="a_edge8_Node000007_Node000002"><a xlink:title=" ">
<path fill="none" stroke="#63b8ff" d="M622.57,-219.97C656.25,-199.47 739.74,-143.87 781,-74 789.15,-60.21 794.05,-42.64 796.83,-29.47"/>
<polygon fill="#63b8ff" stroke="#63b8ff" points="800.35,-29.73 798.76,-19.25 793.47,-28.43 800.35,-29.73"/>
</a>
</g>
</g>
<!-- Node7&#45;&gt;Node8 -->
<g id="edge7_Node000007_Node000008" class="edge">
<title>Node7&#45;&gt;Node8</title>
<g id="a_edge7_Node000007_Node000008"><a xlink:title=" ">
<path fill="none" stroke="#63b8ff" d="M598.24,-219.7C589.25,-211.23 576,-197.7 567,-184 532.71,-131.78 506.98,-61.76 495.94,-28.94"/>
<polygon fill="#63b8ff" stroke="#63b8ff" points="499.22,-27.71 492.76,-19.31 492.57,-29.9 499.22,-27.71"/>
</a>
</g>
</g>
<!-- Node9 -->
<g id="Node000009" class="node">
<title>Node9</title>
<g id="a_Node000009"><a xlink:href="src_2util_2invariant_8h.html" target="_top" xlink:title=" ">
<polygon fill="white" stroke="#666666" points="156.5,-74 87.5,-74 87.5,-55 156.5,-55 156.5,-74"/>
<text text-anchor="middle" x="122" y="-62" font-family="Helvetica,sans-Serif" font-size="10.00">invariant.h</text>
</a>
</g>
</g>
<!-- Node7&#45;&gt;Node9 -->
<g id="edge9_Node000007_Node000009" class="edge">
<title>Node7&#45;&gt;Node9</title>
<g id="a_edge9_Node000007_Node000009"><a xlink:title=" ">
<path fill="none" stroke="#63b8ff" d="M585.74,-221.96C582.82,-221.23 579.85,-220.55 577,-220 469.99,-199.26 159.2,-217.09 95,-129 84.48,-114.57 95.37,-95.41 106.3,-81.93"/>
<polygon fill="#63b8ff" stroke="#63b8ff" points="108.97,-84.19 112.92,-74.36 103.7,-79.58 108.97,-84.19"/>
</a>
</g>
</g>
<!-- Node13 -->
<g id="Node000013" class="node">
<title>Node13</title>
<g id="a_Node000013"><a xlink:href="irep__ids_8h.html" target="_top" xlink:title="util">
<polygon fill="white" stroke="#666666" points="640,-184 576,-184 576,-165 640,-165 640,-184"/>
<text text-anchor="middle" x="608" y="-172" font-family="Helvetica,sans-Serif" font-size="10.00">irep_ids.h</text>
</a>
</g>
</g>
<!-- Node7&#45;&gt;Node13 -->
<g id="edge14_Node000007_Node000013" class="edge">
<title>Node7&#45;&gt;Node13</title>
<g id="a_edge14_Node000007_Node000013"><a xlink:title=" ">
<path fill="none" stroke="#63b8ff" d="M608,-219.75C608,-212.8 608,-202.85 608,-194.13"/>
<polygon fill="#63b8ff" stroke="#63b8ff" points="611.5,-194.09 608,-184.09 604.5,-194.09 611.5,-194.09"/>
</a>
</g>
</g>
<!-- Node23 -->
<g id="Node000023" class="node">
<title>Node23</title>
<g id="a_Node000023"><a xlink:href="forward__list__as__map_8h.html" target="_top" xlink:title=" ">
<polygon fill="white" stroke="#666666" points="402.5,-184 275.5,-184 275.5,-165 402.5,-165 402.5,-184"/>
<text text-anchor="middle" x="339" y="-172" font-family="Helvetica,sans-Serif" font-size="10.00">forward_list_as_map.h</text>
</a>
</g>
</g>
<!-- Node7&#45;&gt;Node23 -->
<g id="edge22_Node000007_Node000023" class="edge">
<title>Node7&#45;&gt;Node23</title>
<g id="a_edge22_Node000007_Node000023"><a xlink:title=" ">
<path fill="none" stroke="#63b8ff" d="M585.7,-222.15C582.79,-221.39 579.83,-220.65 577,-220 517.91,-206.4 449.85,-194 401.69,-185.76"/>
<polygon fill="#63b8ff" stroke="#63b8ff" points="402.17,-182.29 391.73,-184.07 401,-189.19 402.17,-182.29"/>
</a>
</g>
</g>
<!-- Node9&#45;&gt;Node8 -->
<g id="edge12_Node000009_Node000008" class="edge">
<title>Node9&#45;&gt;Node8</title>
<g id="a_edge12_Node000009_Node000008"><a xlink:title=" ">
<path fill="none" stroke="#63b8ff" d="M156.65,-58.19C163.71,-57.12 171.09,-56.02 178,-55 279.96,-39.99 400.79,-22.98 457.52,-15.03"/>
<polygon fill="#63b8ff" stroke="#63b8ff" points="458.25,-18.47 467.67,-13.61 457.28,-11.53 458.25,-18.47"/>
</a>
</g>
</g>
<!-- Node10 -->
<g id="Node000010" class="node">
<title>Node10</title>
<g id="a_Node000010"><a xlink:title=" ">
<polygon fill="#e0e0e0" stroke="#999999" points="146.5,-19 97.5,-19 97.5,0 146.5,0 146.5,-19"/>
<text text-anchor="middle" x="122" y="-7" font-family="Helvetica,sans-Serif" font-size="10.00">cstdlib</text>
</a>
</g>
</g>
<!-- Node9&#45;&gt;Node10 -->
<g id="edge10_Node000009_Node000010" class="edge">
<title>Node9&#45;&gt;Node10</title>
<g id="a_edge10_Node000009_Node000010"><a xlink:title=" ">
<path fill="none" stroke="#63b8ff" d="M122,-54.75C122,-47.8 122,-37.85 122,-29.13"/>
<polygon fill="#63b8ff" stroke="#63b8ff" points="125.5,-29.09 122,-19.09 118.5,-29.09 125.5,-29.09"/>
</a>
</g>
</g>
<!-- Node11 -->
<g id="Node000011" class="node">
<title>Node11</title>
<g id="a_Node000011"><a xlink:title=" ">
<polygon fill="#e0e0e0" stroke="#999999" points="221,-19 165,-19 165,0 221,0 221,-19"/>
<text text-anchor="middle" x="193" y="-7" font-family="Helvetica,sans-Serif" font-size="10.00">sstream</text>
</a>
</g>
</g>
<!-- Node9&#45;&gt;Node11 -->
<g id="edge11_Node000009_Node000011" class="edge">
<title>Node9&#45;&gt;Node11</title>
<g id="a_edge11_Node000009_Node000011"><a xlink:title=" ">
<path fill="none" stroke="#63b8ff" d="M133.41,-54.98C144.11,-47 160.34,-34.88 173.16,-25.31"/>
<polygon fill="#63b8ff" stroke="#63b8ff" points="175.47,-27.96 181.39,-19.17 171.28,-22.35 175.47,-27.96"/>
</a>
</g>
</g>
<!-- Node12 -->
<g id="Node000012" class="node">
<title>Node12</title>
<g id="a_Node000012"><a xlink:title=" ">
<polygon fill="#e0e0e0" stroke="#999999" points="79.5,-19 10.5,-19 10.5,0 79.5,0 79.5,-19"/>
<text text-anchor="middle" x="45" y="-7" font-family="Helvetica,sans-Serif" font-size="10.00">type_traits</text>
</a>
</g>
</g>
<!-- Node9&#45;&gt;Node12 -->
<g id="edge13_Node000009_Node000012" class="edge">
<title>Node9&#45;&gt;Node12</title>
<g id="a_edge13_Node000009_Node000012"><a xlink:title=" ">
<path fill="none" stroke="#63b8ff" d="M109.63,-54.98C97.91,-46.92 80.08,-34.65 66.11,-25.03"/>
<polygon fill="#63b8ff" stroke="#63b8ff" points="67.82,-21.96 57.6,-19.17 63.85,-27.72 67.82,-21.96"/>
</a>
</g>
</g>
<!-- Node14 -->
<g id="Node000014" class="node">
<title>Node14</title>
<g id="a_Node000014"><a xlink:href="dstring_8h.html" target="_top" xlink:title="Container for C&#45;Strings.">
<polygon fill="white" stroke="#666666" points="717.5,-129 658.5,-129 658.5,-110 717.5,-110 717.5,-129"/>
<text text-anchor="middle" x="688" y="-117" font-family="Helvetica,sans-Serif" font-size="10.00">dstring.h</text>
</a>
</g>
</g>
<!-- Node13&#45;&gt;Node14 -->
<g id="edge15_Node000013_Node000014" class="edge">
<title>Node13&#45;&gt;Node14</title>
<g id="a_edge15_Node000013_Node000014"><a xlink:title=" ">
<path fill="none" stroke="#63b8ff" d="M620.85,-164.98C633.14,-156.84 651.91,-144.41 666.48,-134.76"/>
<polygon fill="#63b8ff" stroke="#63b8ff" points="668.51,-137.61 674.91,-129.17 664.64,-131.78 668.51,-137.61"/>
</a>
</g>
</g>
<!-- Node22 -->
<g id="Node000022" class="node">
<title>Node22</title>
<g id="a_Node000022"><a xlink:title=" ">
<polygon fill="#e0e0e0" stroke="#999999" points="640,-129 566,-129 566,-110 640,-110 640,-129"/>
<text text-anchor="middle" x="603" y="-117" font-family="Helvetica,sans-Serif" font-size="10.00">irep_ids.def</text>
</a>
</g>
</g>
<!-- Node13&#45;&gt;Node22 -->
<g id="edge21_Node000013_Node000022" class="edge">
<title>Node13&#45;&gt;Node22</title>
<g id="a_edge21_Node000013_Node000022"><a xlink:title=" ">
<path fill="none" stroke="#63b8ff" d="M607.17,-164.75C606.52,-157.8 605.58,-147.85 604.76,-139.13"/>
<polygon fill="#63b8ff" stroke="#63b8ff" points="608.23,-138.72 603.81,-129.09 601.27,-139.37 608.23,-138.72"/>
</a>
</g>
</g>
<!-- Node14&#45;&gt;Node3 -->
<g id="edge16_Node000014_Node000003" class="edge">
<title>Node14&#45;&gt;Node3</title>
<g id="a_edge16_Node000014_Node000003"><a xlink:title=" ">
<path fill="none" stroke="#63b8ff" d="M714.35,-109.98C742.5,-100.89 787.21,-86.44 817.99,-76.49"/>
<polygon fill="#63b8ff" stroke="#63b8ff" points="819.41,-79.71 827.85,-73.3 817.26,-73.05 819.41,-79.71"/>
</a>
</g>
</g>
<!-- Node14&#45;&gt;Node8 -->
<g id="edge17_Node000014_Node000008" class="edge">
<title>Node14&#45;&gt;Node8</title>
<g id="a_edge17_Node000014_Node000008"><a xlink:title=" ">
<path fill="none" stroke="#63b8ff" d="M664.94,-109.93C643.68,-101.7 611.52,-88.44 585,-74 557.75,-59.16 528.33,-38.75 509.57,-25.12"/>
<polygon fill="#63b8ff" stroke="#63b8ff" points="511.41,-22.12 501.28,-19.02 507.26,-27.76 511.41,-22.12"/>
</a>
</g>
</g>
<!-- Node15 -->
<g id="Node000015" class="node">
<title>Node15</title>
<g id="a_Node000015"><a xlink:href="magic_8h.html" target="_top" xlink:title="Magic numbers used throughout the codebase.">
<polygon fill="#fff0f0" stroke="red" points="650,-74 594,-74 594,-55 650,-55 650,-74"/>
<text text-anchor="middle" x="622" y="-62" font-family="Helvetica,sans-Serif" font-size="10.00">magic.h</text>
</a>
</g>
</g>
<!-- Node14&#45;&gt;Node15 -->
<g id="edge18_Node000014_Node000015" class="edge">
<title>Node14&#45;&gt;Node15</title>
<g id="a_edge18_Node000014_Node000015"><a xlink:title=" ">
<path fill="none" stroke="#63b8ff" d="M677.4,-109.98C667.54,-102.07 652.65,-90.11 640.78,-80.58"/>
<polygon fill="#63b8ff" stroke="#63b8ff" points="642.79,-77.7 632.8,-74.17 638.4,-83.16 642.79,-77.7"/>
</a>
</g>
</g>
<!-- Node17 -->
<g id="Node000017" class="node">
<title>Node17</title>
<g id="a_Node000017"><a xlink:href="string__container_8h.html" target="_top" xlink:title="Container for C&#45;Strings.">
<polygon fill="#fff0f0" stroke="red" points="772,-74 668,-74 668,-55 772,-55 772,-74"/>
<text text-anchor="middle" x="720" y="-62" font-family="Helvetica,sans-Serif" font-size="10.00">string_container.h</text>
</a>
</g>
</g>
<!-- Node14&#45;&gt;Node17 -->
<g id="edge19_Node000014_Node000017" class="edge">
<title>Node14&#45;&gt;Node17</title>
<g id="a_edge19_Node000014_Node000017"><a xlink:title=" ">
<path fill="none" stroke="#63b8ff" d="M693.28,-109.75C697.71,-102.42 704.16,-91.73 709.62,-82.7"/>
<polygon fill="#63b8ff" stroke="#63b8ff" points="712.64,-84.46 714.81,-74.09 706.65,-80.84 712.64,-84.46"/>
</a>
</g>
</g>
<!-- Node17&#45;&gt;Node2 -->
<g id="edge20_Node000017_Node000002" class="edge">
<title>Node17&#45;&gt;Node2</title>
<g id="a_edge20_Node000017_Node000002"><a xlink:title=" ">
<path fill="none" stroke="#63b8ff" d="M732.85,-54.98C745.14,-46.84 763.91,-34.41 778.48,-24.76"/>
<polygon fill="#63b8ff" stroke="#63b8ff" points="780.51,-27.61 786.91,-19.17 776.64,-21.78 780.51,-27.61"/>
</a>
</g>
</g>
<!-- Node24 -->
<g id="Node000024" class="node">
<title>Node24</title>
<g id="a_Node000024"><a xlink:title=" ">
<polygon fill="#e0e0e0" stroke="#999999" points="284,-129 220,-129 220,-110 284,-110 284,-129"/>
<text text-anchor="middle" x="252" y="-117" font-family="Helvetica,sans-Serif" font-size="10.00">algorithm</text>
</a>
</g>
</g>
<!-- Node23&#45;&gt;Node24 -->
<g id="edge23_Node000023_Node000024" class="edge">
<title>Node23&#45;&gt;Node24</title>
<g id="a_edge23_Node000023_Node000024"><a xlink:title=" ">
<path fill="none" stroke="#63b8ff" d="M325.02,-164.98C311.53,-156.77 290.87,-144.18 274.96,-134.49"/>
<polygon fill="#63b8ff" stroke="#63b8ff" points="276.59,-131.38 266.23,-129.17 272.95,-137.36 276.59,-131.38"/>
</a>
</g>
</g>
<!-- Node25 -->
<g id="Node000025" class="node">
<title>Node25</title>
<g id="a_Node000025"><a xlink:title=" ">
<polygon fill="#e0e0e0" stroke="#999999" points="376,-129 302,-129 302,-110 376,-110 376,-129"/>
<text text-anchor="middle" x="339" y="-117" font-family="Helvetica,sans-Serif" font-size="10.00">forward_list</text>
</a>
</g>
</g>
<!-- Node23&#45;&gt;Node25 -->
<g id="edge24_Node000023_Node000025" class="edge">
<title>Node23&#45;&gt;Node25</title>
<g id="a_edge24_Node000023_Node000025"><a xlink:title=" ">
<path fill="none" stroke="#63b8ff" d="M339,-164.75C339,-157.8 339,-147.85 339,-139.13"/>
<polygon fill="#63b8ff" stroke="#63b8ff" points="342.5,-139.09 339,-129.09 335.5,-139.09 342.5,-139.09"/>
</a>
</g>
</g>
<!-- Node26 -->
<g id="Node000026" class="node">
<title>Node26</title>
<g id="a_Node000026"><a xlink:href="as__const_8h.html" target="_top" xlink:title=" ">
<polygon fill="white" stroke="#666666" points="462,-129 394,-129 394,-110 462,-110 462,-129"/>
<text text-anchor="middle" x="428" y="-117" font-family="Helvetica,sans-Serif" font-size="10.00">as_const.h</text>
</a>
</g>
</g>
<!-- Node23&#45;&gt;Node26 -->
<g id="edge25_Node000023_Node000026" class="edge">
<title>Node23&#45;&gt;Node26</title>
<g id="a_edge25_Node000023_Node000026"><a xlink:title=" ">
<path fill="none" stroke="#63b8ff" d="M353.3,-164.98C367.1,-156.77 388.24,-144.18 404.51,-134.49"/>
<polygon fill="#63b8ff" stroke="#63b8ff" points="406.64,-137.29 413.44,-129.17 403.06,-131.28 406.64,-137.29"/>
</a>
</g>
</g>
<!-- Node27 -->
<g id="Node000027" class="node">
<title>Node27</title>
<g id="a_Node000027"><a xlink:href="narrow_8h.html" target="_top" xlink:title=" ">
<polygon fill="white" stroke="#666666" points="163.5,-129 104.5,-129 104.5,-110 163.5,-110 163.5,-129"/>
<text text-anchor="middle" x="134" y="-117" font-family="Helvetica,sans-Serif" font-size="10.00">narrow.h</text>
</a>
</g>
</g>
<!-- Node23&#45;&gt;Node27 -->
<g id="edge26_Node000023_Node000027" class="edge">
<title>Node23&#45;&gt;Node27</title>
<g id="a_edge26_Node000023_Node000027"><a xlink:title=" ">
<path fill="none" stroke="#63b8ff" d="M306.06,-164.98C269.91,-155.64 211.89,-140.64 173.36,-130.68"/>
<polygon fill="#63b8ff" stroke="#63b8ff" points="174.09,-127.25 163.53,-128.13 172.33,-134.03 174.09,-127.25"/>
</a>
</g>
</g>
<!-- Node27&#45;&gt;Node9 -->
<g id="edge28_Node000027_Node000009" class="edge">
<title>Node27&#45;&gt;Node9</title>
<g id="a_edge28_Node000027_Node000009"><a xlink:title=" ">
<path fill="none" stroke="#63b8ff" d="M132.02,-109.75C130.43,-102.72 128.14,-92.62 126.15,-83.84"/>
<polygon fill="#63b8ff" stroke="#63b8ff" points="129.57,-83.07 123.94,-74.09 122.74,-84.62 129.57,-83.07"/>
</a>
</g>
</g>
<!-- Node27&#45;&gt;Node12 -->
<g id="edge27_Node000027_Node000012" class="edge">
<title>Node27&#45;&gt;Node12</title>
<g id="a_edge27_Node000027_Node000012"><a xlink:title=" ">
<path fill="none" stroke="#63b8ff" d="M120.21,-109.96C107.96,-101.86 90.16,-88.76 78,-74 66.78,-60.38 57.85,-42.33 52.12,-28.95"/>
<polygon fill="#63b8ff" stroke="#63b8ff" points="55.25,-27.35 48.24,-19.4 48.77,-29.99 55.25,-27.35"/>
</a>
</g>
</g>
<!-- Node29&#45;&gt;Node12 -->
<g id="edge32_Node000029_Node000012" class="edge">
<title>Node29&#45;&gt;Node12</title>
<g id="a_edge32_Node000029_Node000012"><a xlink:title=" ">
<path fill="none" stroke="#63b8ff" d="M223.32,-394.1C154.3,-393.48 0,-381.37 0,-285.5 0,-285.5 0,-285.5 0,-118.5 0,-84.31 19.46,-48.38 32.78,-27.79"/>
<polygon fill="#63b8ff" stroke="#63b8ff" points="35.87,-29.48 38.55,-19.23 30.06,-25.57 35.87,-29.48"/>
</a>
</g>
</g>
<!-- Node30 -->
<g id="Node000030" class="node">
<title>Node30</title>
<g id="a_Node000030"><a xlink:href="exception__utils_8h.html" target="_top" xlink:title=" ">
<polygon fill="white" stroke="#666666" points="259,-349 159,-349 159,-330 259,-330 259,-349"/>
<text text-anchor="middle" x="209" y="-337" font-family="Helvetica,sans-Serif" font-size="10.00">exception_utils.h</text>
</a>
</g>
</g>
<!-- Node29&#45;&gt;Node30 -->
<g id="edge33_Node000029_Node000030" class="edge">
<title>Node29&#45;&gt;Node30</title>
<g id="a_edge33_Node000029_Node000030"><a xlink:title=" ">
<path fill="none" stroke="#63b8ff" d="M248.24,-384.75C241.53,-377.18 231.66,-366.05 223.49,-356.84"/>
<polygon fill="#63b8ff" stroke="#63b8ff" points="225.87,-354.25 216.62,-349.09 220.63,-358.89 225.87,-354.25"/>
</a>
</g>
</g>
<!-- Node29&#45;&gt;Node31 -->
<g id="edge37_Node000029_Node000031" class="edge">
<title>Node29&#45;&gt;Node31</title>
<g id="a_edge37_Node000029_Node000031"><a xlink:title=" ">
<path fill="none" stroke="#63b8ff" d="M270.78,-384.98C285.18,-376.69 307.31,-363.94 324.19,-354.22"/>
<polygon fill="#63b8ff" stroke="#63b8ff" points="326.03,-357.19 332.95,-349.17 322.54,-351.13 326.03,-357.19"/>
</a>
</g>
</g>
<!-- Node30&#45;&gt;Node5 -->
<g id="edge36_Node000030_Node000005" class="edge">
<title>Node30&#45;&gt;Node5</title>
<g id="a_edge36_Node000030_Node000005"><a xlink:title=" ">
<path fill="none" stroke="#63b8ff" d="M257.68,-329.98C310.94,-320.67 396.31,-305.74 453.25,-295.78"/>
<polygon fill="#63b8ff" stroke="#63b8ff" points="453.94,-299.21 463.19,-294.04 452.73,-292.31 453.94,-299.21"/>
</a>
</g>
</g>
<!-- Node30&#45;&gt;Node8 -->
<g id="edge34_Node000030_Node000008" class="edge">
<title>Node30&#45;&gt;Node8</title>
<g id="a_edge34_Node000030_Node000008"><a xlink:title=" ">
<path fill="none" stroke="#63b8ff" d="M206.71,-329.89C202.07,-311.69 192,-267.89 192,-230.5 192,-230.5 192,-230.5 192,-118.5 192,-62.53 380.18,-27.31 457.46,-15.21"/>
<polygon fill="#63b8ff" stroke="#63b8ff" points="458.25,-18.63 467.6,-13.66 457.19,-11.71 458.25,-18.63"/>
</a>
</g>
</g>
<!-- Node30&#45;&gt;Node9 -->
<g id="edge35_Node000030_Node000009" class="edge">
<title>Node30&#45;&gt;Node9</title>
<g id="a_edge35_Node000030_Node000009"><a xlink:title=" ">
<path fill="none" stroke="#63b8ff" d="M162.27,-329.9C111.64,-317.57 38,-289.49 38,-230.5 38,-230.5 38,-230.5 38,-173.5 38,-132.92 75.42,-98.4 100.3,-79.93"/>
<polygon fill="#63b8ff" stroke="#63b8ff" points="102.4,-82.73 108.5,-74.08 98.33,-77.03 102.4,-82.73"/>
</a>
</g>
</g>
</g>
</svg>
