<?xml version="1.0" encoding="UTF-8" standalone="no"?>
<!DOCTYPE svg PUBLIC "-//W3C//DTD SVG 1.1//EN"
 "http://www.w3.org/Graphics/SVG/1.1/DTD/svg11.dtd">
<!-- Generated by graphviz version 2.43.0 (0)
 -->
<!-- Title: /home/runner/work/cbmc/cbmc/src/goto&#45;instrument/contracts/dynamic&#45;frames/dfcc_contract_mode.h Pages: 1 -->
<svg width="1506pt" height="577pt"
 viewBox="0.00 0.00 1505.90 577.00" xmlns="http://www.w3.org/2000/svg" xmlns:xlink="http://www.w3.org/1999/xlink">
<g id="graph0" class="graph" transform="scale(1 1) rotate(0) translate(4 573)">
<title>/home/runner/work/cbmc/cbmc/src/goto&#45;instrument/contracts/dynamic&#45;frames/dfcc_contract_mode.h</title>
<!-- Node1 -->
<g id="Node000001" class="node">
<title>Node1</title>
<g id="a_Node000001"><a xlink:title="Enum type representing the contract checking and replacement modes.">
<polygon fill="#999999" stroke="#666666" points="695.9,-569 547.9,-569 547.9,-517 695.9,-517 695.9,-569"/>
<text text-anchor="start" x="555.9" y="-557" font-family="Helvetica,sans-Serif" font-size="10.00">/home/runner/work/cbmc</text>
<text text-anchor="start" x="555.9" y="-546" font-family="Helvetica,sans-Serif" font-size="10.00">/cbmc/src/goto&#45;instrument</text>
<text text-anchor="start" x="555.9" y="-535" font-family="Helvetica,sans-Serif" font-size="10.00">/contracts/dynamic&#45;frames</text>
<text text-anchor="middle" x="621.9" y="-524" font-family="Helvetica,sans-Serif" font-size="10.00">/dfcc_contract_mode.h</text>
</a>
</g>
</g>
<!-- Node2 -->
<g id="Node000002" class="node">
<title>Node2</title>
<g id="a_Node000002"><a xlink:href="dfcc__contract__clauses__codegen_8h.html" target="_top" xlink:title="Translates assigns and frees clauses of a function contract or loop contract into goto programs that ...">
<polygon fill="white" stroke="#666666" points="1181.9,-393 999.9,-393 999.9,-341 1181.9,-341 1181.9,-393"/>
<text text-anchor="start" x="1007.9" y="-381" font-family="Helvetica,sans-Serif" font-size="10.00">/home/runner/work/cbmc</text>
<text text-anchor="start" x="1007.9" y="-370" font-family="Helvetica,sans-Serif" font-size="10.00">/cbmc/src/goto&#45;instrument</text>
<text text-anchor="start" x="1007.9" y="-359" font-family="Helvetica,sans-Serif" font-size="10.00">/contracts/dynamic&#45;frames</text>
<text text-anchor="middle" x="1090.9" y="-348" font-family="Helvetica,sans-Serif" font-size="10.00">/dfcc_contract_clauses_codegen.h</text>
</a>
</g>
</g>
<!-- Node1&#45;&gt;Node2 -->
<g id="edge1_Node000001_Node000002" class="edge">
<title>Node1&#45;&gt;Node2</title>
<g id="a_edge1_Node000001_Node000002"><a xlink:title=" ">
<path fill="none" stroke="#63b8ff" d="M630.22,-507.09C638.26,-481.32 653.11,-447.62 678.9,-429 728.73,-393.02 894.07,-377.93 999.52,-371.85"/>
<polygon fill="#63b8ff" stroke="#63b8ff" points="626.81,-506.3 627.38,-516.88 633.53,-508.26 626.81,-506.3"/>
</a>
</g>
</g>
<!-- Node13 -->
<g id="Node000013" class="node">
<title>Node13</title>
<g id="a_Node000013"><a xlink:href="dfcc__contract__functions_8h.html" target="_top" xlink:title="Translates assigns and frees clauses of a function contract into goto functions that allow to build a...">
<polygon fill="white" stroke="#666666" points="593.9,-481 445.9,-481 445.9,-429 593.9,-429 593.9,-481"/>
<text text-anchor="start" x="453.9" y="-469" font-family="Helvetica,sans-Serif" font-size="10.00">/home/runner/work/cbmc</text>
<text text-anchor="start" x="453.9" y="-458" font-family="Helvetica,sans-Serif" font-size="10.00">/cbmc/src/goto&#45;instrument</text>
<text text-anchor="start" x="453.9" y="-447" font-family="Helvetica,sans-Serif" font-size="10.00">/contracts/dynamic&#45;frames</text>
<text text-anchor="middle" x="519.9" y="-436" font-family="Helvetica,sans-Serif" font-size="10.00">/dfcc_contract_functions.h</text>
</a>
</g>
</g>
<!-- Node1&#45;&gt;Node13 -->
<g id="edge12_Node000001_Node000013" class="edge">
<title>Node1&#45;&gt;Node13</title>
<g id="a_edge12_Node000001_Node000013"><a xlink:title=" ">
<path fill="none" stroke="#63b8ff" d="M584.43,-510.41C573.06,-500.82 560.71,-490.41 549.89,-481.29"/>
<polygon fill="#63b8ff" stroke="#63b8ff" points="582.22,-513.12 592.12,-516.89 586.74,-507.77 582.22,-513.12"/>
</a>
</g>
</g>
<!-- Node19 -->
<g id="Node000019" class="node">
<title>Node19</title>
<g id="a_Node000019"><a xlink:href="dfcc__wrapper__program_8h.html" target="_top" xlink:title="Generates the body of a wrapper function from a contract for contract checking or contract replacemen...">
<polygon fill="white" stroke="#666666" points="491.9,-393 343.9,-393 343.9,-341 491.9,-341 491.9,-393"/>
<text text-anchor="start" x="351.9" y="-381" font-family="Helvetica,sans-Serif" font-size="10.00">/home/runner/work/cbmc</text>
<text text-anchor="start" x="351.9" y="-370" font-family="Helvetica,sans-Serif" font-size="10.00">/cbmc/src/goto&#45;instrument</text>
<text text-anchor="start" x="351.9" y="-359" font-family="Helvetica,sans-Serif" font-size="10.00">/contracts/dynamic&#45;frames</text>
<text text-anchor="middle" x="417.9" y="-348" font-family="Helvetica,sans-Serif" font-size="10.00">/dfcc_wrapper_program.h</text>
</a>
</g>
</g>
<!-- Node1&#45;&gt;Node19 -->
<g id="edge34_Node000001_Node000019" class="edge">
<title>Node1&#45;&gt;Node19</title>
<g id="a_edge34_Node000001_Node000019"><a xlink:title=" ">
<path fill="none" stroke="#63b8ff" d="M537.71,-533.57C501.63,-525.62 462.07,-510.32 436.9,-481 416.04,-456.7 413.9,-418.27 415.19,-393.1"/>
<polygon fill="#63b8ff" stroke="#63b8ff" points="537.29,-537.06 547.78,-535.62 538.68,-530.2 537.29,-537.06"/>
</a>
</g>
</g>
<!-- Node20 -->
<g id="Node000020" class="node">
<title>Node20</title>
<g id="a_Node000020"><a xlink:href="dfcc__contract__mode_8cpp.html" target="_top" xlink:title=" ">
<polygon fill="white" stroke="#666666" points="835.9,-481 687.9,-481 687.9,-429 835.9,-429 835.9,-481"/>
<text text-anchor="start" x="695.9" y="-469" font-family="Helvetica,sans-Serif" font-size="10.00">/home/runner/work/cbmc</text>
<text text-anchor="start" x="695.9" y="-458" font-family="Helvetica,sans-Serif" font-size="10.00">/cbmc/src/goto&#45;instrument</text>
<text text-anchor="start" x="695.9" y="-447" font-family="Helvetica,sans-Serif" font-size="10.00">/contracts/dynamic&#45;frames</text>
<text text-anchor="middle" x="761.9" y="-436" font-family="Helvetica,sans-Serif" font-size="10.00">/dfcc_contract_mode.cpp</text>
</a>
</g>
</g>
<!-- Node1&#45;&gt;Node20 -->
<g id="edge24_Node000001_Node000020" class="edge">
<title>Node1&#45;&gt;Node20</title>
<g id="a_edge24_Node000001_Node000020"><a xlink:title=" ">
<path fill="none" stroke="#63b8ff" d="M671.53,-511.51C687.64,-501.62 705.32,-490.76 720.74,-481.29"/>
<polygon fill="#63b8ff" stroke="#63b8ff" points="669.46,-508.68 662.77,-516.89 673.12,-514.64 669.46,-508.68"/>
</a>
</g>
</g>
<!-- Node21 -->
<g id="Node000021" class="node">
<title>Node21</title>
<g id="a_Node000021"><a xlink:href="dfcc__instrument_8h.html" target="_top" xlink:title="Add instrumentation to a goto program to perform frame condition checks.">
<polygon fill="white" stroke="#666666" points="695.9,-393 547.9,-393 547.9,-341 695.9,-341 695.9,-393"/>
<text text-anchor="start" x="555.9" y="-381" font-family="Helvetica,sans-Serif" font-size="10.00">/home/runner/work/cbmc</text>
<text text-anchor="start" x="555.9" y="-370" font-family="Helvetica,sans-Serif" font-size="10.00">/cbmc/src/goto&#45;instrument</text>
<text text-anchor="start" x="555.9" y="-359" font-family="Helvetica,sans-Serif" font-size="10.00">/contracts/dynamic&#45;frames</text>
<text text-anchor="middle" x="621.9" y="-348" font-family="Helvetica,sans-Serif" font-size="10.00">/dfcc_instrument.h</text>
</a>
</g>
</g>
<!-- Node1&#45;&gt;Node21 -->
<g id="edge25_Node000001_Node000021" class="edge">
<title>Node1&#45;&gt;Node21</title>
<g id="a_edge25_Node000001_Node000021"><a xlink:title=" ">
<path fill="none" stroke="#63b8ff" d="M621.9,-506.35C621.9,-472.6 621.9,-422.79 621.9,-393.05"/>
<polygon fill="#63b8ff" stroke="#63b8ff" points="618.4,-506.7 621.9,-516.7 625.4,-506.7 618.4,-506.7"/>
</a>
</g>
</g>
<!-- Node3 -->
<g id="Node000003" class="node">
<title>Node3</title>
<g id="a_Node000003"><a xlink:href="dfcc_8h.html" target="_top" xlink:title="Main class orchestrating the the whole program transformation for function contracts with Dynamic Fra...">
<polygon fill="white" stroke="#666666" points="676.9,-211.5 496.9,-211.5 496.9,-170.5 676.9,-170.5 676.9,-211.5"/>
<text text-anchor="start" x="504.9" y="-199.5" font-family="Helvetica,sans-Serif" font-size="10.00">/home/runner/work/cbmc</text>
<text text-anchor="start" x="504.9" y="-188.5" font-family="Helvetica,sans-Serif" font-size="10.00">/cbmc/src/goto&#45;instrument</text>
<text text-anchor="middle" x="586.9" y="-177.5" font-family="Helvetica,sans-Serif" font-size="10.00">/contracts/dynamic&#45;frames/dfcc.h</text>
</a>
</g>
</g>
<!-- Node2&#45;&gt;Node3 -->
<g id="edge2_Node000002_Node000003" class="edge">
<title>Node2&#45;&gt;Node3</title>
<g id="a_edge2_Node000002_Node000003"><a xlink:title=" ">
<path fill="none" stroke="#63b8ff" d="M1191.75,-350.23C1217.11,-341.22 1241.48,-327.1 1256.9,-305 1270.13,-286.05 1272.49,-270.07 1256.9,-253 1218.56,-211.01 850.8,-197.6 677.02,-193.59"/>
<polygon fill="#63b8ff" stroke="#63b8ff" points="1190.4,-346.99 1182,-353.44 1192.59,-353.64 1190.4,-346.99"/>
</a>
</g>
</g>
<!-- Node9 -->
<g id="Node000009" class="node">
<title>Node9</title>
<g id="a_Node000009"><a xlink:href="dfcc__contract__clauses__codegen_8cpp.html" target="_top" xlink:title=" ">
<polygon fill="white" stroke="#666666" points="1497.9,-305 1303.9,-305 1303.9,-253 1497.9,-253 1497.9,-305"/>
<text text-anchor="start" x="1311.9" y="-293" font-family="Helvetica,sans-Serif" font-size="10.00">/home/runner/work/cbmc</text>
<text text-anchor="start" x="1311.9" y="-282" font-family="Helvetica,sans-Serif" font-size="10.00">/cbmc/src/goto&#45;instrument</text>
<text text-anchor="start" x="1311.9" y="-271" font-family="Helvetica,sans-Serif" font-size="10.00">/contracts/dynamic&#45;frames</text>
<text text-anchor="middle" x="1400.9" y="-260" font-family="Helvetica,sans-Serif" font-size="10.00">/dfcc_contract_clauses_codegen.cpp</text>
</a>
</g>
</g>
<!-- Node2&#45;&gt;Node9 -->
<g id="edge8_Node000002_Node000009" class="edge">
<title>Node2&#45;&gt;Node9</title>
<g id="a_edge8_Node000002_Node000009"><a xlink:title=" ">
<path fill="none" stroke="#63b8ff" d="M1191.05,-338.22C1229.49,-327.55 1273.1,-315.46 1310.56,-305.06"/>
<polygon fill="#63b8ff" stroke="#63b8ff" points="1190.1,-334.85 1181.4,-340.89 1191.97,-341.59 1190.1,-334.85"/>
</a>
</g>
</g>
<!-- Node10 -->
<g id="Node000010" class="node">
<title>Node10</title>
<g id="a_Node000010"><a xlink:href="dfcc__contract__functions_8cpp.html" target="_top" xlink:title=" ">
<polygon fill="white" stroke="#666666" points="915.4,-305 760.4,-305 760.4,-253 915.4,-253 915.4,-305"/>
<text text-anchor="start" x="768.4" y="-293" font-family="Helvetica,sans-Serif" font-size="10.00">/home/runner/work/cbmc</text>
<text text-anchor="start" x="768.4" y="-282" font-family="Helvetica,sans-Serif" font-size="10.00">/cbmc/src/goto&#45;instrument</text>
<text text-anchor="start" x="768.4" y="-271" font-family="Helvetica,sans-Serif" font-size="10.00">/contracts/dynamic&#45;frames</text>
<text text-anchor="middle" x="837.9" y="-260" font-family="Helvetica,sans-Serif" font-size="10.00">/dfcc_contract_functions.cpp</text>
</a>
</g>
</g>
<!-- Node2&#45;&gt;Node10 -->
<g id="edge9_Node000002_Node000010" class="edge">
<title>Node2&#45;&gt;Node10</title>
<g id="a_edge9_Node000002_Node000010"><a xlink:title=" ">
<path fill="none" stroke="#63b8ff" d="M1007.19,-337.54C976.38,-327.07 941.74,-315.3 911.85,-305.14"/>
<polygon fill="#63b8ff" stroke="#63b8ff" points="1006.45,-340.99 1017.04,-340.89 1008.7,-334.36 1006.45,-340.99"/>
</a>
</g>
</g>
<!-- Node11 -->
<g id="Node000011" class="node">
<title>Node11</title>
<g id="a_Node000011"><a xlink:href="dfcc__instrument_8cpp.html" target="_top" xlink:title=" ">
<polygon fill="white" stroke="#666666" points="1081.9,-305 933.9,-305 933.9,-253 1081.9,-253 1081.9,-305"/>
<text text-anchor="start" x="941.9" y="-293" font-family="Helvetica,sans-Serif" font-size="10.00">/home/runner/work/cbmc</text>
<text text-anchor="start" x="941.9" y="-282" font-family="Helvetica,sans-Serif" font-size="10.00">/cbmc/src/goto&#45;instrument</text>
<text text-anchor="start" x="941.9" y="-271" font-family="Helvetica,sans-Serif" font-size="10.00">/contracts/dynamic&#45;frames</text>
<text text-anchor="middle" x="1007.9" y="-260" font-family="Helvetica,sans-Serif" font-size="10.00">/dfcc_instrument.cpp</text>
</a>
</g>
</g>
<!-- Node2&#45;&gt;Node11 -->
<g id="edge10_Node000002_Node000011" class="edge">
<title>Node2&#45;&gt;Node11</title>
<g id="a_edge10_Node000002_Node000011"><a xlink:title=" ">
<path fill="none" stroke="#63b8ff" d="M1059.4,-333.35C1050.38,-324.01 1040.69,-313.98 1032.18,-305.16"/>
<polygon fill="#63b8ff" stroke="#63b8ff" points="1056.99,-335.9 1066.45,-340.66 1062.02,-331.04 1056.99,-335.9"/>
</a>
</g>
</g>
<!-- Node12 -->
<g id="Node000012" class="node">
<title>Node12</title>
<g id="a_Node000012"><a xlink:href="dfcc__instrument__loop_8cpp.html" target="_top" xlink:title=" ">
<polygon fill="white" stroke="#666666" points="1247.9,-305 1099.9,-305 1099.9,-253 1247.9,-253 1247.9,-305"/>
<text text-anchor="start" x="1107.9" y="-293" font-family="Helvetica,sans-Serif" font-size="10.00">/home/runner/work/cbmc</text>
<text text-anchor="start" x="1107.9" y="-282" font-family="Helvetica,sans-Serif" font-size="10.00">/cbmc/src/goto&#45;instrument</text>
<text text-anchor="start" x="1107.9" y="-271" font-family="Helvetica,sans-Serif" font-size="10.00">/contracts/dynamic&#45;frames</text>
<text text-anchor="middle" x="1173.9" y="-260" font-family="Helvetica,sans-Serif" font-size="10.00">/dfcc_instrument_loop.cpp</text>
</a>
</g>
</g>
<!-- Node2&#45;&gt;Node12 -->
<g id="edge11_Node000002_Node000012" class="edge">
<title>Node2&#45;&gt;Node12</title>
<g id="a_edge11_Node000002_Node000012"><a xlink:title=" ">
<path fill="none" stroke="#63b8ff" d="M1122.41,-333.35C1131.43,-324.01 1141.11,-313.98 1149.62,-305.16"/>
<polygon fill="#63b8ff" stroke="#63b8ff" points="1119.78,-331.04 1115.36,-340.66 1124.82,-335.9 1119.78,-331.04"/>
</a>
</g>
</g>
<!-- Node4 -->
<g id="Node000004" class="node">
<title>Node4</title>
<g id="a_Node000004"><a xlink:href="dfcc_8cpp.html" target="_top" xlink:title=" ">
<polygon fill="white" stroke="#666666" points="569.9,-129 421.9,-129 421.9,-77 569.9,-77 569.9,-129"/>
<text text-anchor="start" x="429.9" y="-117" font-family="Helvetica,sans-Serif" font-size="10.00">/home/runner/work/cbmc</text>
<text text-anchor="start" x="429.9" y="-106" font-family="Helvetica,sans-Serif" font-size="10.00">/cbmc/src/goto&#45;instrument</text>
<text text-anchor="start" x="429.9" y="-95" font-family="Helvetica,sans-Serif" font-size="10.00">/contracts/dynamic&#45;frames</text>
<text text-anchor="middle" x="495.9" y="-84" font-family="Helvetica,sans-Serif" font-size="10.00">/dfcc.cpp</text>
</a>
</g>
</g>
<!-- Node3&#45;&gt;Node4 -->
<g id="edge3_Node000003_Node000004" class="edge">
<title>Node3&#45;&gt;Node4</title>
<g id="a_edge3_Node000003_Node000004"><a xlink:title=" ">
<path fill="none" stroke="#63b8ff" d="M558.96,-163.6C547.43,-152.69 534.11,-140.11 522.69,-129.32"/>
<polygon fill="#63b8ff" stroke="#63b8ff" points="556.58,-166.16 566.25,-170.49 561.39,-161.07 556.58,-166.16"/>
</a>
</g>
</g>
<!-- Node5 -->
<g id="Node000005" class="node">
<title>Node5</title>
<g id="a_Node000005"><a xlink:href="goto__instrument__parse__options_8h.html" target="_top" xlink:title="Command Line Parsing.">
<polygon fill="white" stroke="#666666" points="769.9,-123.5 587.9,-123.5 587.9,-82.5 769.9,-82.5 769.9,-123.5"/>
<text text-anchor="start" x="595.9" y="-111.5" font-family="Helvetica,sans-Serif" font-size="10.00">/home/runner/work/cbmc</text>
<text text-anchor="start" x="595.9" y="-100.5" font-family="Helvetica,sans-Serif" font-size="10.00">/cbmc/src/goto&#45;instrument</text>
<text text-anchor="middle" x="678.9" y="-89.5" font-family="Helvetica,sans-Serif" font-size="10.00">/goto_instrument_parse_options.h</text>
</a>
</g>
</g>
<!-- Node3&#45;&gt;Node5 -->
<g id="edge4_Node000003_Node000005" class="edge">
<title>Node3&#45;&gt;Node5</title>
<g id="a_edge4_Node000003_Node000005"><a xlink:title=" ">
<path fill="none" stroke="#63b8ff" d="M615.12,-163.62C628.87,-150.77 645.13,-135.57 657.79,-123.74"/>
<polygon fill="#63b8ff" stroke="#63b8ff" points="612.69,-161.1 607.78,-170.49 617.47,-166.21 612.69,-161.1"/>
</a>
</g>
</g>
<!-- Node6 -->
<g id="Node000006" class="node">
<title>Node6</title>
<g id="a_Node000006"><a xlink:href="goto__instrument__languages_8cpp.html" target="_top" xlink:title="Language Registration.">
<polygon fill="white" stroke="#666666" points="585.9,-41 409.9,-41 409.9,0 585.9,0 585.9,-41"/>
<text text-anchor="start" x="417.9" y="-29" font-family="Helvetica,sans-Serif" font-size="10.00">/home/runner/work/cbmc</text>
<text text-anchor="start" x="417.9" y="-18" font-family="Helvetica,sans-Serif" font-size="10.00">/cbmc/src/goto&#45;instrument</text>
<text text-anchor="middle" x="497.9" y="-7" font-family="Helvetica,sans-Serif" font-size="10.00">/goto_instrument_languages.cpp</text>
</a>
</g>
</g>
<!-- Node5&#45;&gt;Node6 -->
<g id="edge5_Node000005_Node000006" class="edge">
<title>Node5&#45;&gt;Node6</title>
<g id="a_edge5_Node000005_Node000006"><a xlink:title=" ">
<path fill="none" stroke="#63b8ff" d="M625.46,-78.23C598.9,-66.42 567.19,-52.32 542.04,-41.13"/>
<polygon fill="#63b8ff" stroke="#63b8ff" points="624.06,-81.44 634.62,-82.31 626.91,-75.05 624.06,-81.44"/>
</a>
</g>
</g>
<!-- Node7 -->
<g id="Node000007" class="node">
<title>Node7</title>
<g id="a_Node000007"><a xlink:href="goto__instrument__main_8cpp.html" target="_top" xlink:title="Main Module.">
<polygon fill="white" stroke="#666666" points="753.9,-41 603.9,-41 603.9,0 753.9,0 753.9,-41"/>
<text text-anchor="start" x="611.9" y="-29" font-family="Helvetica,sans-Serif" font-size="10.00">/home/runner/work/cbmc</text>
<text text-anchor="start" x="611.9" y="-18" font-family="Helvetica,sans-Serif" font-size="10.00">/cbmc/src/goto&#45;instrument</text>
<text text-anchor="middle" x="678.9" y="-7" font-family="Helvetica,sans-Serif" font-size="10.00">/goto_instrument_main.cpp</text>
</a>
</g>
</g>
<!-- Node5&#45;&gt;Node7 -->
<g id="edge6_Node000005_Node000007" class="edge">
<title>Node5&#45;&gt;Node7</title>
<g id="a_edge6_Node000005_Node000007"><a xlink:title=" ">
<path fill="none" stroke="#63b8ff" d="M678.9,-71.87C678.9,-61.6 678.9,-50.4 678.9,-41.17"/>
<polygon fill="#63b8ff" stroke="#63b8ff" points="675.4,-72.1 678.9,-82.1 682.4,-72.1 675.4,-72.1"/>
</a>
</g>
</g>
<!-- Node8 -->
<g id="Node000008" class="node">
<title>Node8</title>
<g id="a_Node000008"><a xlink:href="goto__instrument__parse__options_8cpp.html" target="_top" xlink:title="Main Module.">
<polygon fill="white" stroke="#666666" points="965.9,-41 771.9,-41 771.9,0 965.9,0 965.9,-41"/>
<text text-anchor="start" x="779.9" y="-29" font-family="Helvetica,sans-Serif" font-size="10.00">/home/runner/work/cbmc</text>
<text text-anchor="start" x="779.9" y="-18" font-family="Helvetica,sans-Serif" font-size="10.00">/cbmc/src/goto&#45;instrument</text>
<text text-anchor="middle" x="868.9" y="-7" font-family="Helvetica,sans-Serif" font-size="10.00">/goto_instrument_parse_options.cpp</text>
</a>
</g>
</g>
<!-- Node5&#45;&gt;Node8 -->
<g id="edge7_Node000005_Node000008" class="edge">
<title>Node5&#45;&gt;Node8</title>
<g id="a_edge7_Node000005_Node000008"><a xlink:title=" ">
<path fill="none" stroke="#63b8ff" d="M734.63,-78.39C762.59,-66.54 796.05,-52.37 822.57,-41.13"/>
<polygon fill="#63b8ff" stroke="#63b8ff" points="733.22,-75.18 725.38,-82.31 735.95,-81.63 733.22,-75.18"/>
</a>
</g>
</g>
<!-- Node13&#45;&gt;Node10 -->
<g id="edge13_Node000013_Node000010" class="edge">
<title>Node13&#45;&gt;Node10</title>
<g id="a_edge13_Node000013_Node000010"><a xlink:title=" ">
<path fill="none" stroke="#63b8ff" d="M604.21,-433.67C636.84,-423.91 673.76,-410.47 704.9,-393 747.44,-369.13 789.08,-330.59 814.12,-305.27"/>
<polygon fill="#63b8ff" stroke="#63b8ff" points="602.85,-430.42 594.23,-436.58 604.81,-437.14 602.85,-430.42"/>
</a>
</g>
</g>
<!-- Node14 -->
<g id="Node000014" class="node">
<title>Node14</title>
<g id="a_Node000014"><a xlink:href="dfcc__contract__handler_8h.html" target="_top" xlink:title="Specialisation of dfcc_contract_handlert for contracts.">
<polygon fill="white" stroke="#666666" points="251.9,-393 103.9,-393 103.9,-341 251.9,-341 251.9,-393"/>
<text text-anchor="start" x="111.9" y="-381" font-family="Helvetica,sans-Serif" font-size="10.00">/home/runner/work/cbmc</text>
<text text-anchor="start" x="111.9" y="-370" font-family="Helvetica,sans-Serif" font-size="10.00">/cbmc/src/goto&#45;instrument</text>
<text text-anchor="start" x="111.9" y="-359" font-family="Helvetica,sans-Serif" font-size="10.00">/contracts/dynamic&#45;frames</text>
<text text-anchor="middle" x="177.9" y="-348" font-family="Helvetica,sans-Serif" font-size="10.00">/dfcc_contract_handler.h</text>
</a>
</g>
</g>
<!-- Node13&#45;&gt;Node14 -->
<g id="edge14_Node000013_Node000014" class="edge">
<title>Node13&#45;&gt;Node14</title>
<g id="a_edge14_Node000013_Node000014"><a xlink:title=" ">
<path fill="none" stroke="#63b8ff" d="M435.74,-432.84C379.44,-418.68 306.05,-400.22 251.97,-386.62"/>
<polygon fill="#63b8ff" stroke="#63b8ff" points="435.14,-436.29 445.69,-435.34 436.85,-429.51 435.14,-436.29"/>
</a>
</g>
</g>
<!-- Node18 -->
<g id="Node000018" class="node">
<title>Node18</title>
<g id="a_Node000018"><a xlink:href="dfcc__wrapper__program_8cpp.html" target="_top" xlink:title=" ">
<polygon fill="white" stroke="#666666" points="503.9,-305 351.9,-305 351.9,-253 503.9,-253 503.9,-305"/>
<text text-anchor="start" x="359.9" y="-293" font-family="Helvetica,sans-Serif" font-size="10.00">/home/runner/work/cbmc</text>
<text text-anchor="start" x="359.9" y="-282" font-family="Helvetica,sans-Serif" font-size="10.00">/cbmc/src/goto&#45;instrument</text>
<text text-anchor="start" x="359.9" y="-271" font-family="Helvetica,sans-Serif" font-size="10.00">/contracts/dynamic&#45;frames</text>
<text text-anchor="middle" x="427.9" y="-260" font-family="Helvetica,sans-Serif" font-size="10.00">/dfcc_wrapper_program.cpp</text>
</a>
</g>
</g>
<!-- Node13&#45;&gt;Node18 -->
<g id="edge20_Node000013_Node000018" class="edge">
<title>Node13&#45;&gt;Node18</title>
<g id="a_edge20_Node000013_Node000018"><a xlink:title=" ">
<path fill="none" stroke="#63b8ff" d="M520.19,-418.78C518.95,-395.35 514.46,-364.65 500.9,-341 492.93,-327.1 480.52,-314.98 468.18,-305.28"/>
<polygon fill="#63b8ff" stroke="#63b8ff" points="516.7,-419.12 520.55,-428.99 523.7,-418.87 516.7,-419.12"/>
</a>
</g>
</g>
<!-- Node13&#45;&gt;Node19 -->
<g id="edge21_Node000013_Node000019" class="edge">
<title>Node13&#45;&gt;Node19</title>
<g id="a_edge21_Node000013_Node000019"><a xlink:title=" ">
<path fill="none" stroke="#63b8ff" d="M482.43,-422.41C471.06,-412.82 458.71,-402.41 447.89,-393.29"/>
<polygon fill="#63b8ff" stroke="#63b8ff" points="480.22,-425.12 490.12,-428.89 484.74,-419.77 480.22,-425.12"/>
</a>
</g>
</g>
<!-- Node14&#45;&gt;Node3 -->
<g id="edge15_Node000014_Node000003" class="edge">
<title>Node14&#45;&gt;Node3</title>
<g id="a_edge15_Node000014_Node000003"><a xlink:title=" ">
<path fill="none" stroke="#63b8ff" d="M93.6,-355.66C62.34,-347.27 29.9,-332.16 10.9,-305 -2.34,-286.06 -4.56,-270.18 10.9,-253 11.91,-251.88 334.99,-218.17 496.77,-201.35"/>
<polygon fill="#63b8ff" stroke="#63b8ff" points="93.15,-359.15 103.7,-358.15 94.83,-352.35 93.15,-359.15"/>
</a>
</g>
</g>
<!-- Node15 -->
<g id="Node000015" class="node">
<title>Node15</title>
<g id="a_Node000015"><a xlink:href="dfcc__contract__handler_8cpp.html" target="_top" xlink:title=" ">
<polygon fill="white" stroke="#666666" points="167.9,-305 19.9,-305 19.9,-253 167.9,-253 167.9,-305"/>
<text text-anchor="start" x="27.9" y="-293" font-family="Helvetica,sans-Serif" font-size="10.00">/home/runner/work/cbmc</text>
<text text-anchor="start" x="27.9" y="-282" font-family="Helvetica,sans-Serif" font-size="10.00">/cbmc/src/goto&#45;instrument</text>
<text text-anchor="start" x="27.9" y="-271" font-family="Helvetica,sans-Serif" font-size="10.00">/contracts/dynamic&#45;frames</text>
<text text-anchor="middle" x="93.9" y="-260" font-family="Helvetica,sans-Serif" font-size="10.00">/dfcc_contract_handler.cpp</text>
</a>
</g>
</g>
<!-- Node14&#45;&gt;Node15 -->
<g id="edge16_Node000014_Node000015" class="edge">
<title>Node14&#45;&gt;Node15</title>
<g id="a_edge16_Node000014_Node000015"><a xlink:title=" ">
<path fill="none" stroke="#63b8ff" d="M146.02,-333.35C136.89,-324.01 127.09,-313.98 118.47,-305.16"/>
<polygon fill="#63b8ff" stroke="#63b8ff" points="143.66,-335.95 153.15,-340.66 148.67,-331.06 143.66,-335.95"/>
</a>
</g>
</g>
<!-- Node16 -->
<g id="Node000016" class="node">
<title>Node16</title>
<g id="a_Node000016"><a xlink:href="dfcc__swap__and__wrap_8h.html" target="_top" xlink:title="Given a function_id and contract_id, swaps its body to a function with a fresh mangled name,...">
<polygon fill="white" stroke="#666666" points="333.9,-305 185.9,-305 185.9,-253 333.9,-253 333.9,-305"/>
<text text-anchor="start" x="193.9" y="-293" font-family="Helvetica,sans-Serif" font-size="10.00">/home/runner/work/cbmc</text>
<text text-anchor="start" x="193.9" y="-282" font-family="Helvetica,sans-Serif" font-size="10.00">/cbmc/src/goto&#45;instrument</text>
<text text-anchor="start" x="193.9" y="-271" font-family="Helvetica,sans-Serif" font-size="10.00">/contracts/dynamic&#45;frames</text>
<text text-anchor="middle" x="259.9" y="-260" font-family="Helvetica,sans-Serif" font-size="10.00">/dfcc_swap_and_wrap.h</text>
</a>
</g>
</g>
<!-- Node14&#45;&gt;Node16 -->
<g id="edge17_Node000014_Node000016" class="edge">
<title>Node14&#45;&gt;Node16</title>
<g id="a_edge17_Node000014_Node000016"><a xlink:title=" ">
<path fill="none" stroke="#63b8ff" d="M209.03,-333.35C217.94,-324.01 227.51,-313.98 235.92,-305.16"/>
<polygon fill="#63b8ff" stroke="#63b8ff" points="206.43,-331.01 202.06,-340.66 211.49,-335.84 206.43,-331.01"/>
</a>
</g>
</g>
<!-- Node16&#45;&gt;Node3 -->
<g id="edge18_Node000016_Node000003" class="edge">
<title>Node16&#45;&gt;Node3</title>
<g id="a_edge18_Node000016_Node000003"><a xlink:title=" ">
<path fill="none" stroke="#63b8ff" d="M343.94,-252.76C402.94,-236.62 459.81,-222.42 504.76,-211.5"/>
<polygon fill="#63b8ff" stroke="#63b8ff" points="342.78,-249.45 334.06,-255.47 344.63,-256.2 342.78,-249.45"/>
</a>
</g>
</g>
<!-- Node17 -->
<g id="Node000017" class="node">
<title>Node17</title>
<g id="a_Node000017"><a xlink:href="dfcc__swap__and__wrap_8cpp.html" target="_top" xlink:title=" ">
<polygon fill="white" stroke="#666666" points="333.9,-217 185.9,-217 185.9,-165 333.9,-165 333.9,-217"/>
<text text-anchor="start" x="193.9" y="-205" font-family="Helvetica,sans-Serif" font-size="10.00">/home/runner/work/cbmc</text>
<text text-anchor="start" x="193.9" y="-194" font-family="Helvetica,sans-Serif" font-size="10.00">/cbmc/src/goto&#45;instrument</text>
<text text-anchor="start" x="193.9" y="-183" font-family="Helvetica,sans-Serif" font-size="10.00">/contracts/dynamic&#45;frames</text>
<text text-anchor="middle" x="259.9" y="-172" font-family="Helvetica,sans-Serif" font-size="10.00">/dfcc_swap_and_wrap.cpp</text>
</a>
</g>
</g>
<!-- Node16&#45;&gt;Node17 -->
<g id="edge19_Node000016_Node000017" class="edge">
<title>Node16&#45;&gt;Node17</title>
<g id="a_edge19_Node000016_Node000017"><a xlink:title=" ">
<path fill="none" stroke="#63b8ff" d="M259.9,-242.56C259.9,-234.04 259.9,-225.1 259.9,-217.16"/>
<polygon fill="#63b8ff" stroke="#63b8ff" points="256.4,-242.66 259.9,-252.66 263.4,-242.66 256.4,-242.66"/>
</a>
</g>
</g>
<!-- Node19&#45;&gt;Node15 -->
<g id="edge22_Node000019_Node000015" class="edge">
<title>Node19&#45;&gt;Node15</title>
<g id="a_edge22_Node000019_Node000015"><a xlink:title=" ">
<path fill="none" stroke="#63b8ff" d="M334.12,-345.77C287.67,-334.31 228.94,-319.41 176.9,-305 174,-304.2 171.05,-303.37 168.07,-302.52"/>
<polygon fill="#63b8ff" stroke="#63b8ff" points="333.3,-349.17 343.84,-348.16 334.97,-342.37 333.3,-349.17"/>
</a>
</g>
</g>
<!-- Node19&#45;&gt;Node18 -->
<g id="edge23_Node000019_Node000018" class="edge">
<title>Node19&#45;&gt;Node18</title>
<g id="a_edge23_Node000019_Node000018"><a xlink:title=" ">
<path fill="none" stroke="#63b8ff" d="M422.02,-330.56C423.01,-322.04 424.05,-313.1 424.98,-305.16"/>
<polygon fill="#63b8ff" stroke="#63b8ff" points="418.53,-330.32 420.85,-340.66 425.48,-331.13 418.53,-330.32"/>
</a>
</g>
</g>
<!-- Node21&#45;&gt;Node3 -->
<g id="edge26_Node000021_Node000003" class="edge">
<title>Node21&#45;&gt;Node3</title>
<g id="a_edge26_Node000021_Node000003"><a xlink:title=" ">
<path fill="none" stroke="#63b8ff" d="M686.23,-334.83C696.96,-326.67 706.62,-316.77 712.9,-305 723.78,-284.61 725.18,-272.58 712.9,-253 700.96,-233.95 681.2,-220.71 660.83,-211.55"/>
<polygon fill="#63b8ff" stroke="#63b8ff" points="684.01,-332.12 677.86,-340.75 688.04,-337.84 684.01,-332.12"/>
</a>
</g>
</g>
<!-- Node21&#45;&gt;Node10 -->
<g id="edge27_Node000021_Node000010" class="edge">
<title>Node21&#45;&gt;Node10</title>
<g id="a_edge27_Node000021_Node000010"><a xlink:title=" ">
<path fill="none" stroke="#63b8ff" d="M694.4,-337.14C720.44,-326.77 749.58,-315.16 774.77,-305.14"/>
<polygon fill="#63b8ff" stroke="#63b8ff" points="692.95,-333.94 684.96,-340.89 695.54,-340.45 692.95,-333.94"/>
</a>
</g>
</g>
<!-- Node21&#45;&gt;Node11 -->
<g id="edge29_Node000021_Node000011" class="edge">
<title>Node21&#45;&gt;Node11</title>
<g id="a_edge29_Node000021_Node000011"><a xlink:title=" ">
<path fill="none" stroke="#63b8ff" d="M706.09,-351.25C767.16,-340.01 851.56,-323.38 924.9,-305 927.82,-304.27 930.79,-303.5 933.79,-302.7"/>
<polygon fill="#63b8ff" stroke="#63b8ff" points="705.32,-347.83 696.12,-353.07 706.59,-354.71 705.32,-347.83"/>
</a>
</g>
</g>
<!-- Node21&#45;&gt;Node12 -->
<g id="edge30_Node000021_Node000012" class="edge">
<title>Node21&#45;&gt;Node12</title>
<g id="a_edge30_Node000021_Node000012"><a xlink:title=" ">
<path fill="none" stroke="#63b8ff" d="M706.12,-359.22C800.54,-350.66 957.85,-333.49 1090.9,-305 1093.84,-304.37 1096.83,-303.69 1099.85,-302.96"/>
<polygon fill="#63b8ff" stroke="#63b8ff" points="705.7,-355.74 696.05,-360.12 706.32,-362.72 705.7,-355.74"/>
</a>
</g>
</g>
<!-- Node21&#45;&gt;Node15 -->
<g id="edge28_Node000021_Node000015" class="edge">
<title>Node21&#45;&gt;Node15</title>
<g id="a_edge28_Node000021_Node000015"><a xlink:title=" ">
<path fill="none" stroke="#63b8ff" d="M538,-347.61C525.59,-345.2 512.94,-342.91 500.9,-341 357.8,-318.32 318.85,-334.01 176.9,-305 173.95,-304.4 170.96,-303.74 167.94,-303.03"/>
<polygon fill="#63b8ff" stroke="#63b8ff" points="537.38,-351.06 547.87,-349.57 538.74,-344.19 537.38,-351.06"/>
</a>
</g>
</g>
<!-- Node21&#45;&gt;Node16 -->
<g id="edge32_Node000021_Node000016" class="edge">
<title>Node21&#45;&gt;Node16</title>
<g id="a_edge32_Node000021_Node000016"><a xlink:title=" ">
<path fill="none" stroke="#63b8ff" d="M537.98,-348.4C469.78,-333.95 379.15,-314.41 342.9,-305 339.99,-304.24 337.02,-303.45 334.03,-302.64"/>
<polygon fill="#63b8ff" stroke="#63b8ff" points="537.36,-351.84 547.87,-350.49 538.81,-345 537.36,-351.84"/>
</a>
</g>
</g>
<!-- Node21&#45;&gt;Node18 -->
<g id="edge33_Node000021_Node000018" class="edge">
<title>Node21&#45;&gt;Node18</title>
<g id="a_edge33_Node000021_Node000018"><a xlink:title=" ">
<path fill="none" stroke="#63b8ff" d="M555.86,-336.73C532.71,-326.46 506.93,-315.03 484.61,-305.14"/>
<polygon fill="#63b8ff" stroke="#63b8ff" points="554.71,-340.04 565.27,-340.89 557.54,-333.64 554.71,-340.04"/>
</a>
</g>
</g>
<!-- Node22 -->
<g id="Node000022" class="node">
<title>Node22</title>
<g id="a_Node000022"><a xlink:href="dfcc__lift__memory__predicates_8cpp.html" target="_top" xlink:title=" ">
<polygon fill="white" stroke="#666666" points="703.4,-305 522.4,-305 522.4,-253 703.4,-253 703.4,-305"/>
<text text-anchor="start" x="530.4" y="-293" font-family="Helvetica,sans-Serif" font-size="10.00">/home/runner/work/cbmc</text>
<text text-anchor="start" x="530.4" y="-282" font-family="Helvetica,sans-Serif" font-size="10.00">/cbmc/src/goto&#45;instrument</text>
<text text-anchor="start" x="530.4" y="-271" font-family="Helvetica,sans-Serif" font-size="10.00">/contracts/dynamic&#45;frames</text>
<text text-anchor="middle" x="612.9" y="-260" font-family="Helvetica,sans-Serif" font-size="10.00">/dfcc_lift_memory_predicates.cpp</text>
</a>
</g>
</g>
<!-- Node21&#45;&gt;Node22 -->
<g id="edge31_Node000021_Node000022" class="edge">
<title>Node21&#45;&gt;Node22</title>
<g id="a_edge31_Node000021_Node000022"><a xlink:title=" ">
<path fill="none" stroke="#63b8ff" d="M618.19,-330.56C617.3,-322.04 616.37,-313.1 615.53,-305.16"/>
<polygon fill="#63b8ff" stroke="#63b8ff" points="614.73,-331.08 619.25,-340.66 621.69,-330.35 614.73,-331.08"/>
</a>
</g>
</g>
</g>
</svg>
