<?xml version="1.0" encoding="UTF-8" standalone="no"?>
<!DOCTYPE svg PUBLIC "-//W3C//DTD SVG 1.1//EN"
 "http://www.w3.org/Graphics/SVG/1.1/DTD/svg11.dtd">
<!-- Generated by graphviz version 2.43.0 (0)
 -->
<!-- Title: /home/runner/work/cbmc/cbmc/src/solvers/sat/dimacs_cnf.h Pages: 1 -->
<svg width="1238pt" height="434pt"
 viewBox="0.00 0.00 1238.00 434.00" xmlns="http://www.w3.org/2000/svg" xmlns:xlink="http://www.w3.org/1999/xlink">
<g id="graph0" class="graph" transform="scale(1 1) rotate(0) translate(4 430)">
<title>/home/runner/work/cbmc/cbmc/src/solvers/sat/dimacs_cnf.h</title>
<!-- Node1 -->
<g id="Node000001" class="node">
<title>Node1</title>
<g id="a_Node000001"><a xlink:title=" ">
<polygon fill="#999999" stroke="#666666" points="762,-426 624,-426 624,-385 762,-385 762,-426"/>
<text text-anchor="start" x="632" y="-414" font-family="Helvetica,sans-Serif" font-size="10.00">/home/runner/work/cbmc</text>
<text text-anchor="start" x="632" y="-403" font-family="Helvetica,sans-Serif" font-size="10.00">/cbmc/src/solvers/sat</text>
<text text-anchor="middle" x="693" y="-392" font-family="Helvetica,sans-Serif" font-size="10.00">/dimacs_cnf.h</text>
</a>
</g>
</g>
<!-- Node2 -->
<g id="Node000002" class="node">
<title>Node2</title>
<g id="a_Node000002"><a xlink:href="solver__factory_8cpp.html" target="_top" xlink:title="Solver Factory.">
<polygon fill="white" stroke="#666666" points="280,-349 142,-349 142,-308 280,-308 280,-349"/>
<text text-anchor="start" x="150" y="-337" font-family="Helvetica,sans-Serif" font-size="10.00">/home/runner/work/cbmc</text>
<text text-anchor="start" x="150" y="-326" font-family="Helvetica,sans-Serif" font-size="10.00">/cbmc/src/goto&#45;checker</text>
<text text-anchor="middle" x="211" y="-315" font-family="Helvetica,sans-Serif" font-size="10.00">/solver_factory.cpp</text>
</a>
</g>
</g>
<!-- Node1&#45;&gt;Node2 -->
<g id="edge1_Node000001_Node000002" class="edge">
<title>Node1&#45;&gt;Node2</title>
<g id="a_edge1_Node000001_Node000002"><a xlink:title=" ">
<path fill="none" stroke="#63b8ff" d="M613.67,-396.18C531.91,-387 400.94,-370.62 289,-349 286.12,-348.44 283.19,-347.85 280.24,-347.22"/>
<polygon fill="#63b8ff" stroke="#63b8ff" points="613.32,-399.66 623.64,-397.29 614.09,-392.7 613.32,-399.66"/>
</a>
</g>
</g>
<!-- Node3 -->
<g id="Node000003" class="node">
<title>Node3</title>
<g id="a_Node000003"><a xlink:href="bv__dimacs_8cpp.html" target="_top" xlink:title="Writing DIMACS Files.">
<polygon fill="white" stroke="#666666" points="449.5,-349 298.5,-349 298.5,-308 449.5,-308 449.5,-349"/>
<text text-anchor="start" x="306.5" y="-337" font-family="Helvetica,sans-Serif" font-size="10.00">/home/runner/work/cbmc</text>
<text text-anchor="start" x="306.5" y="-326" font-family="Helvetica,sans-Serif" font-size="10.00">/cbmc/src/solvers/flattening</text>
<text text-anchor="middle" x="374" y="-315" font-family="Helvetica,sans-Serif" font-size="10.00">/bv_dimacs.cpp</text>
</a>
</g>
</g>
<!-- Node1&#45;&gt;Node3 -->
<g id="edge2_Node000001_Node000003" class="edge">
<title>Node1&#45;&gt;Node3</title>
<g id="a_edge2_Node000001_Node000003"><a xlink:title=" ">
<path fill="none" stroke="#63b8ff" d="M613.95,-385.92C563.8,-374.12 499.28,-358.95 449.78,-347.32"/>
<polygon fill="#63b8ff" stroke="#63b8ff" points="613.25,-389.34 623.78,-388.23 614.85,-382.53 613.25,-389.34"/>
</a>
</g>
</g>
<!-- Node4 -->
<g id="Node000004" class="node">
<title>Node4</title>
<g id="a_Node000004"><a xlink:href="qdimacs__cnf_8h.html" target="_top" xlink:title=" ">
<polygon fill="white" stroke="#666666" points="606,-349 468,-349 468,-308 606,-308 606,-349"/>
<text text-anchor="start" x="476" y="-337" font-family="Helvetica,sans-Serif" font-size="10.00">/home/runner/work/cbmc</text>
<text text-anchor="start" x="476" y="-326" font-family="Helvetica,sans-Serif" font-size="10.00">/cbmc/src/solvers/qbf</text>
<text text-anchor="middle" x="537" y="-315" font-family="Helvetica,sans-Serif" font-size="10.00">/qdimacs_cnf.h</text>
</a>
</g>
</g>
<!-- Node1&#45;&gt;Node4 -->
<g id="edge3_Node000001_Node000004" class="edge">
<title>Node1&#45;&gt;Node4</title>
<g id="a_edge3_Node000001_Node000004"><a xlink:title=" ">
<path fill="none" stroke="#63b8ff" d="M643.26,-380.59C622.09,-370.41 597.71,-358.69 577.65,-349.04"/>
<polygon fill="#63b8ff" stroke="#63b8ff" points="641.89,-383.81 652.42,-384.99 644.92,-377.5 641.89,-383.81"/>
</a>
</g>
</g>
<!-- Node24 -->
<g id="Node000024" class="node">
<title>Node24</title>
<g id="a_Node000024"><a xlink:href="dimacs__cnf_8cpp.html" target="_top" xlink:title=" ">
<polygon fill="white" stroke="#666666" points="762,-349 624,-349 624,-308 762,-308 762,-349"/>
<text text-anchor="start" x="632" y="-337" font-family="Helvetica,sans-Serif" font-size="10.00">/home/runner/work/cbmc</text>
<text text-anchor="start" x="632" y="-326" font-family="Helvetica,sans-Serif" font-size="10.00">/cbmc/src/solvers/sat</text>
<text text-anchor="middle" x="693" y="-315" font-family="Helvetica,sans-Serif" font-size="10.00">/dimacs_cnf.cpp</text>
</a>
</g>
</g>
<!-- Node1&#45;&gt;Node24 -->
<g id="edge23_Node000001_Node000024" class="edge">
<title>Node1&#45;&gt;Node24</title>
<g id="a_edge23_Node000001_Node000024"><a xlink:title=" ">
<path fill="none" stroke="#63b8ff" d="M693,-374.69C693,-366.08 693,-356.9 693,-349.07"/>
<polygon fill="#63b8ff" stroke="#63b8ff" points="689.5,-374.79 693,-384.79 696.5,-374.79 689.5,-374.79"/>
</a>
</g>
</g>
<!-- Node25 -->
<g id="Node000025" class="node">
<title>Node25</title>
<g id="a_Node000025"><a xlink:href="external__sat_8cpp.html" target="_top" xlink:title="Allows call an external SAT solver to allow faster integration of newer SAT solvers.">
<polygon fill="white" stroke="#666666" points="918,-349 780,-349 780,-308 918,-308 918,-349"/>
<text text-anchor="start" x="788" y="-337" font-family="Helvetica,sans-Serif" font-size="10.00">/home/runner/work/cbmc</text>
<text text-anchor="start" x="788" y="-326" font-family="Helvetica,sans-Serif" font-size="10.00">/cbmc/src/solvers/sat</text>
<text text-anchor="middle" x="849" y="-315" font-family="Helvetica,sans-Serif" font-size="10.00">/external_sat.cpp</text>
</a>
</g>
</g>
<!-- Node1&#45;&gt;Node25 -->
<g id="edge24_Node000001_Node000025" class="edge">
<title>Node1&#45;&gt;Node25</title>
<g id="a_edge24_Node000001_Node000025"><a xlink:title=" ">
<path fill="none" stroke="#63b8ff" d="M742.74,-380.59C763.91,-370.41 788.29,-358.69 808.35,-349.04"/>
<polygon fill="#63b8ff" stroke="#63b8ff" points="741.08,-377.5 733.58,-384.99 744.11,-383.81 741.08,-377.5"/>
</a>
</g>
</g>
<!-- Node26 -->
<g id="Node000026" class="node">
<title>Node26</title>
<g id="a_Node000026"><a xlink:href="pbs__dimacs__cnf_8h.html" target="_top" xlink:title=" ">
<polygon fill="white" stroke="#666666" points="1074,-349 936,-349 936,-308 1074,-308 1074,-349"/>
<text text-anchor="start" x="944" y="-337" font-family="Helvetica,sans-Serif" font-size="10.00">/home/runner/work/cbmc</text>
<text text-anchor="start" x="944" y="-326" font-family="Helvetica,sans-Serif" font-size="10.00">/cbmc/src/solvers/sat</text>
<text text-anchor="middle" x="1005" y="-315" font-family="Helvetica,sans-Serif" font-size="10.00">/pbs_dimacs_cnf.h</text>
</a>
</g>
</g>
<!-- Node1&#45;&gt;Node26 -->
<g id="edge25_Node000001_Node000026" class="edge">
<title>Node1&#45;&gt;Node26</title>
<g id="a_edge25_Node000001_Node000026"><a xlink:title=" ">
<path fill="none" stroke="#63b8ff" d="M771.94,-386.03C817.33,-375.34 875.41,-361.57 927,-349 929.85,-348.31 932.75,-347.6 935.69,-346.87"/>
<polygon fill="#63b8ff" stroke="#63b8ff" points="771.1,-382.63 762.17,-388.33 772.7,-389.44 771.1,-382.63"/>
</a>
</g>
</g>
<!-- Node28 -->
<g id="Node000028" class="node">
<title>Node28</title>
<g id="a_Node000028"><a xlink:href="satcheck__zcore_8h.html" target="_top" xlink:title=" ">
<polygon fill="white" stroke="#666666" points="1230,-349 1092,-349 1092,-308 1230,-308 1230,-349"/>
<text text-anchor="start" x="1100" y="-337" font-family="Helvetica,sans-Serif" font-size="10.00">/home/runner/work/cbmc</text>
<text text-anchor="start" x="1100" y="-326" font-family="Helvetica,sans-Serif" font-size="10.00">/cbmc/src/solvers/sat</text>
<text text-anchor="middle" x="1161" y="-315" font-family="Helvetica,sans-Serif" font-size="10.00">/satcheck_zcore.h</text>
</a>
</g>
</g>
<!-- Node1&#45;&gt;Node28 -->
<g id="edge27_Node000001_Node000028" class="edge">
<title>Node1&#45;&gt;Node28</title>
<g id="a_edge27_Node000001_Node000028"><a xlink:title=" ">
<path fill="none" stroke="#63b8ff" d="M772.42,-395.64C851.52,-386.25 976.21,-369.89 1083,-349 1085.88,-348.44 1088.81,-347.84 1091.76,-347.21"/>
<polygon fill="#63b8ff" stroke="#63b8ff" points="771.57,-392.22 762.05,-396.87 772.39,-399.17 771.57,-392.22"/>
</a>
</g>
</g>
<!-- Node5 -->
<g id="Node000005" class="node">
<title>Node5</title>
<g id="a_Node000005"><a xlink:href="qbf__quantor_8h.html" target="_top" xlink:title=" ">
<polygon fill="white" stroke="#666666" points="138,-272 0,-272 0,-231 138,-231 138,-272"/>
<text text-anchor="start" x="8" y="-260" font-family="Helvetica,sans-Serif" font-size="10.00">/home/runner/work/cbmc</text>
<text text-anchor="start" x="8" y="-249" font-family="Helvetica,sans-Serif" font-size="10.00">/cbmc/src/solvers/qbf</text>
<text text-anchor="middle" x="69" y="-238" font-family="Helvetica,sans-Serif" font-size="10.00">/qbf_quantor.h</text>
</a>
</g>
</g>
<!-- Node4&#45;&gt;Node5 -->
<g id="edge4_Node000004_Node000005" class="edge">
<title>Node4&#45;&gt;Node5</title>
<g id="a_edge4_Node000004_Node000005"><a xlink:title=" ">
<path fill="none" stroke="#63b8ff" d="M457.61,-308.07C319.27,-283.9 280.69,-296.34 147,-272 144.12,-271.47 141.18,-270.9 138.22,-270.3"/>
<polygon fill="#63b8ff" stroke="#63b8ff" points="457.29,-311.57 467.74,-309.88 458.51,-304.68 457.29,-311.57"/>
</a>
</g>
</g>
<!-- Node7 -->
<g id="Node000007" class="node">
<title>Node7</title>
<g id="a_Node000007"><a xlink:href="qbf__qube_8h.html" target="_top" xlink:title=" ">
<polygon fill="white" stroke="#666666" points="294,-272 156,-272 156,-231 294,-231 294,-272"/>
<text text-anchor="start" x="164" y="-260" font-family="Helvetica,sans-Serif" font-size="10.00">/home/runner/work/cbmc</text>
<text text-anchor="start" x="164" y="-249" font-family="Helvetica,sans-Serif" font-size="10.00">/cbmc/src/solvers/qbf</text>
<text text-anchor="middle" x="225" y="-238" font-family="Helvetica,sans-Serif" font-size="10.00">/qbf_qube.h</text>
</a>
</g>
</g>
<!-- Node4&#45;&gt;Node7 -->
<g id="edge6_Node000004_Node000007" class="edge">
<title>Node4&#45;&gt;Node7</title>
<g id="a_edge6_Node000004_Node000007"><a xlink:title=" ">
<path fill="none" stroke="#63b8ff" d="M457.87,-307.99C387.63,-291.25 368.8,-287.86 303,-272 300.15,-271.31 297.24,-270.61 294.31,-269.89"/>
<polygon fill="#63b8ff" stroke="#63b8ff" points="457.11,-311.4 467.65,-310.32 458.74,-304.6 457.11,-311.4"/>
</a>
</g>
</g>
<!-- Node9 -->
<g id="Node000009" class="node">
<title>Node9</title>
<g id="a_Node000009"><a xlink:href="qbf__skizzo_8h.html" target="_top" xlink:title=" ">
<polygon fill="white" stroke="#666666" points="450,-272 312,-272 312,-231 450,-231 450,-272"/>
<text text-anchor="start" x="320" y="-260" font-family="Helvetica,sans-Serif" font-size="10.00">/home/runner/work/cbmc</text>
<text text-anchor="start" x="320" y="-249" font-family="Helvetica,sans-Serif" font-size="10.00">/cbmc/src/solvers/qbf</text>
<text text-anchor="middle" x="381" y="-238" font-family="Helvetica,sans-Serif" font-size="10.00">/qbf_skizzo.h</text>
</a>
</g>
</g>
<!-- Node4&#45;&gt;Node9 -->
<g id="edge8_Node000004_Node000009" class="edge">
<title>Node4&#45;&gt;Node9</title>
<g id="a_edge8_Node000004_Node000009"><a xlink:title=" ">
<path fill="none" stroke="#63b8ff" d="M487.26,-303.59C466.09,-293.41 441.71,-281.69 421.65,-272.04"/>
<polygon fill="#63b8ff" stroke="#63b8ff" points="485.89,-306.81 496.42,-307.99 488.92,-300.5 485.89,-306.81"/>
</a>
</g>
</g>
<!-- Node11 -->
<g id="Node000011" class="node">
<title>Node11</title>
<g id="a_Node000011"><a xlink:href="qbf__squolem_8h.html" target="_top" xlink:title="Squolem Backend.">
<polygon fill="white" stroke="#666666" points="606,-272 468,-272 468,-231 606,-231 606,-272"/>
<text text-anchor="start" x="476" y="-260" font-family="Helvetica,sans-Serif" font-size="10.00">/home/runner/work/cbmc</text>
<text text-anchor="start" x="476" y="-249" font-family="Helvetica,sans-Serif" font-size="10.00">/cbmc/src/solvers/qbf</text>
<text text-anchor="middle" x="537" y="-238" font-family="Helvetica,sans-Serif" font-size="10.00">/qbf_squolem.h</text>
</a>
</g>
</g>
<!-- Node4&#45;&gt;Node11 -->
<g id="edge10_Node000004_Node000011" class="edge">
<title>Node4&#45;&gt;Node11</title>
<g id="a_edge10_Node000004_Node000011"><a xlink:title=" ">
<path fill="none" stroke="#63b8ff" d="M537,-297.69C537,-289.08 537,-279.9 537,-272.07"/>
<polygon fill="#63b8ff" stroke="#63b8ff" points="533.5,-297.79 537,-307.79 540.5,-297.79 533.5,-297.79"/>
</a>
</g>
</g>
<!-- Node13 -->
<g id="Node000013" class="node">
<title>Node13</title>
<g id="a_Node000013"><a xlink:href="qdimacs__cnf_8cpp.html" target="_top" xlink:title=" ">
<polygon fill="white" stroke="#666666" points="762,-272 624,-272 624,-231 762,-231 762,-272"/>
<text text-anchor="start" x="632" y="-260" font-family="Helvetica,sans-Serif" font-size="10.00">/home/runner/work/cbmc</text>
<text text-anchor="start" x="632" y="-249" font-family="Helvetica,sans-Serif" font-size="10.00">/cbmc/src/solvers/qbf</text>
<text text-anchor="middle" x="693" y="-238" font-family="Helvetica,sans-Serif" font-size="10.00">/qdimacs_cnf.cpp</text>
</a>
</g>
</g>
<!-- Node4&#45;&gt;Node13 -->
<g id="edge12_Node000004_Node000013" class="edge">
<title>Node4&#45;&gt;Node13</title>
<g id="a_edge12_Node000004_Node000013"><a xlink:title=" ">
<path fill="none" stroke="#63b8ff" d="M586.74,-303.59C607.91,-293.41 632.29,-281.69 652.35,-272.04"/>
<polygon fill="#63b8ff" stroke="#63b8ff" points="585.08,-300.5 577.58,-307.99 588.11,-306.81 585.08,-300.5"/>
</a>
</g>
</g>
<!-- Node14 -->
<g id="Node000014" class="node">
<title>Node14</title>
<g id="a_Node000014"><a xlink:href="qdimacs__core_8h.html" target="_top" xlink:title=" ">
<polygon fill="white" stroke="#666666" points="918,-272 780,-272 780,-231 918,-231 918,-272"/>
<text text-anchor="start" x="788" y="-260" font-family="Helvetica,sans-Serif" font-size="10.00">/home/runner/work/cbmc</text>
<text text-anchor="start" x="788" y="-249" font-family="Helvetica,sans-Serif" font-size="10.00">/cbmc/src/solvers/qbf</text>
<text text-anchor="middle" x="849" y="-238" font-family="Helvetica,sans-Serif" font-size="10.00">/qdimacs_core.h</text>
</a>
</g>
</g>
<!-- Node4&#45;&gt;Node14 -->
<g id="edge13_Node000004_Node000014" class="edge">
<title>Node4&#45;&gt;Node14</title>
<g id="a_edge13_Node000004_Node000014"><a xlink:title=" ">
<path fill="none" stroke="#63b8ff" d="M616.45,-307.67C685.87,-291.1 704.92,-287.88 771,-272 773.85,-271.31 776.76,-270.61 779.69,-269.9"/>
<polygon fill="#63b8ff" stroke="#63b8ff" points="615.22,-304.37 606.31,-310.1 616.85,-311.18 615.22,-304.37"/>
</a>
</g>
</g>
<!-- Node6 -->
<g id="Node000006" class="node">
<title>Node6</title>
<g id="a_Node000006"><a xlink:href="qbf__quantor_8cpp.html" target="_top" xlink:title=" ">
<polygon fill="white" stroke="#666666" points="138,-195 0,-195 0,-154 138,-154 138,-195"/>
<text text-anchor="start" x="8" y="-183" font-family="Helvetica,sans-Serif" font-size="10.00">/home/runner/work/cbmc</text>
<text text-anchor="start" x="8" y="-172" font-family="Helvetica,sans-Serif" font-size="10.00">/cbmc/src/solvers/qbf</text>
<text text-anchor="middle" x="69" y="-161" font-family="Helvetica,sans-Serif" font-size="10.00">/qbf_quantor.cpp</text>
</a>
</g>
</g>
<!-- Node5&#45;&gt;Node6 -->
<g id="edge5_Node000005_Node000006" class="edge">
<title>Node5&#45;&gt;Node6</title>
<g id="a_edge5_Node000005_Node000006"><a xlink:title=" ">
<path fill="none" stroke="#63b8ff" d="M69,-220.69C69,-212.08 69,-202.9 69,-195.07"/>
<polygon fill="#63b8ff" stroke="#63b8ff" points="65.5,-220.79 69,-230.79 72.5,-220.79 65.5,-220.79"/>
</a>
</g>
</g>
<!-- Node8 -->
<g id="Node000008" class="node">
<title>Node8</title>
<g id="a_Node000008"><a xlink:href="qbf__qube_8cpp.html" target="_top" xlink:title=" ">
<polygon fill="white" stroke="#666666" points="294,-195 156,-195 156,-154 294,-154 294,-195"/>
<text text-anchor="start" x="164" y="-183" font-family="Helvetica,sans-Serif" font-size="10.00">/home/runner/work/cbmc</text>
<text text-anchor="start" x="164" y="-172" font-family="Helvetica,sans-Serif" font-size="10.00">/cbmc/src/solvers/qbf</text>
<text text-anchor="middle" x="225" y="-161" font-family="Helvetica,sans-Serif" font-size="10.00">/qbf_qube.cpp</text>
</a>
</g>
</g>
<!-- Node7&#45;&gt;Node8 -->
<g id="edge7_Node000007_Node000008" class="edge">
<title>Node7&#45;&gt;Node8</title>
<g id="a_edge7_Node000007_Node000008"><a xlink:title=" ">
<path fill="none" stroke="#63b8ff" d="M225,-220.69C225,-212.08 225,-202.9 225,-195.07"/>
<polygon fill="#63b8ff" stroke="#63b8ff" points="221.5,-220.79 225,-230.79 228.5,-220.79 221.5,-220.79"/>
</a>
</g>
</g>
<!-- Node10 -->
<g id="Node000010" class="node">
<title>Node10</title>
<g id="a_Node000010"><a xlink:href="qbf__skizzo_8cpp.html" target="_top" xlink:title=" ">
<polygon fill="white" stroke="#666666" points="450,-195 312,-195 312,-154 450,-154 450,-195"/>
<text text-anchor="start" x="320" y="-183" font-family="Helvetica,sans-Serif" font-size="10.00">/home/runner/work/cbmc</text>
<text text-anchor="start" x="320" y="-172" font-family="Helvetica,sans-Serif" font-size="10.00">/cbmc/src/solvers/qbf</text>
<text text-anchor="middle" x="381" y="-161" font-family="Helvetica,sans-Serif" font-size="10.00">/qbf_skizzo.cpp</text>
</a>
</g>
</g>
<!-- Node9&#45;&gt;Node10 -->
<g id="edge9_Node000009_Node000010" class="edge">
<title>Node9&#45;&gt;Node10</title>
<g id="a_edge9_Node000009_Node000010"><a xlink:title=" ">
<path fill="none" stroke="#63b8ff" d="M381,-220.69C381,-212.08 381,-202.9 381,-195.07"/>
<polygon fill="#63b8ff" stroke="#63b8ff" points="377.5,-220.79 381,-230.79 384.5,-220.79 377.5,-220.79"/>
</a>
</g>
</g>
<!-- Node12 -->
<g id="Node000012" class="node">
<title>Node12</title>
<g id="a_Node000012"><a xlink:href="qbf__squolem_8cpp.html" target="_top" xlink:title="Squolem Backend.">
<polygon fill="white" stroke="#666666" points="606,-195 468,-195 468,-154 606,-154 606,-195"/>
<text text-anchor="start" x="476" y="-183" font-family="Helvetica,sans-Serif" font-size="10.00">/home/runner/work/cbmc</text>
<text text-anchor="start" x="476" y="-172" font-family="Helvetica,sans-Serif" font-size="10.00">/cbmc/src/solvers/qbf</text>
<text text-anchor="middle" x="537" y="-161" font-family="Helvetica,sans-Serif" font-size="10.00">/qbf_squolem.cpp</text>
</a>
</g>
</g>
<!-- Node11&#45;&gt;Node12 -->
<g id="edge11_Node000011_Node000012" class="edge">
<title>Node11&#45;&gt;Node12</title>
<g id="a_edge11_Node000011_Node000012"><a xlink:title=" ">
<path fill="none" stroke="#63b8ff" d="M537,-220.69C537,-212.08 537,-202.9 537,-195.07"/>
<polygon fill="#63b8ff" stroke="#63b8ff" points="533.5,-220.79 537,-230.79 540.5,-220.79 533.5,-220.79"/>
</a>
</g>
</g>
<!-- Node15 -->
<g id="Node000015" class="node">
<title>Node15</title>
<g id="a_Node000015"><a xlink:href="qbf__bdd__core_8h.html" target="_top" xlink:title=" ">
<polygon fill="white" stroke="#666666" points="762,-195 624,-195 624,-154 762,-154 762,-195"/>
<text text-anchor="start" x="632" y="-183" font-family="Helvetica,sans-Serif" font-size="10.00">/home/runner/work/cbmc</text>
<text text-anchor="start" x="632" y="-172" font-family="Helvetica,sans-Serif" font-size="10.00">/cbmc/src/solvers/qbf</text>
<text text-anchor="middle" x="693" y="-161" font-family="Helvetica,sans-Serif" font-size="10.00">/qbf_bdd_core.h</text>
</a>
</g>
</g>
<!-- Node14&#45;&gt;Node15 -->
<g id="edge14_Node000014_Node000015" class="edge">
<title>Node14&#45;&gt;Node15</title>
<g id="a_edge14_Node000014_Node000015"><a xlink:title=" ">
<path fill="none" stroke="#63b8ff" d="M799.26,-226.59C778.09,-216.41 753.71,-204.69 733.65,-195.04"/>
<polygon fill="#63b8ff" stroke="#63b8ff" points="797.89,-229.81 808.42,-230.99 800.92,-223.5 797.89,-229.81"/>
</a>
</g>
</g>
<!-- Node19 -->
<g id="Node000019" class="node">
<title>Node19</title>
<g id="a_Node000019"><a xlink:href="qbf__qube__core_8h.html" target="_top" xlink:title=" ">
<polygon fill="white" stroke="#666666" points="918,-195 780,-195 780,-154 918,-154 918,-195"/>
<text text-anchor="start" x="788" y="-183" font-family="Helvetica,sans-Serif" font-size="10.00">/home/runner/work/cbmc</text>
<text text-anchor="start" x="788" y="-172" font-family="Helvetica,sans-Serif" font-size="10.00">/cbmc/src/solvers/qbf</text>
<text text-anchor="middle" x="849" y="-161" font-family="Helvetica,sans-Serif" font-size="10.00">/qbf_qube_core.h</text>
</a>
</g>
</g>
<!-- Node14&#45;&gt;Node19 -->
<g id="edge18_Node000014_Node000019" class="edge">
<title>Node14&#45;&gt;Node19</title>
<g id="a_edge18_Node000014_Node000019"><a xlink:title=" ">
<path fill="none" stroke="#63b8ff" d="M849,-220.69C849,-212.08 849,-202.9 849,-195.07"/>
<polygon fill="#63b8ff" stroke="#63b8ff" points="845.5,-220.79 849,-230.79 852.5,-220.79 845.5,-220.79"/>
</a>
</g>
</g>
<!-- Node21 -->
<g id="Node000021" class="node">
<title>Node21</title>
<g id="a_Node000021"><a xlink:href="qbf__squolem__core_8h.html" target="_top" xlink:title="Squolem Backend (with Proofs)">
<polygon fill="white" stroke="#666666" points="1074,-195 936,-195 936,-154 1074,-154 1074,-195"/>
<text text-anchor="start" x="944" y="-183" font-family="Helvetica,sans-Serif" font-size="10.00">/home/runner/work/cbmc</text>
<text text-anchor="start" x="944" y="-172" font-family="Helvetica,sans-Serif" font-size="10.00">/cbmc/src/solvers/qbf</text>
<text text-anchor="middle" x="1005" y="-161" font-family="Helvetica,sans-Serif" font-size="10.00">/qbf_squolem_core.h</text>
</a>
</g>
</g>
<!-- Node14&#45;&gt;Node21 -->
<g id="edge20_Node000014_Node000021" class="edge">
<title>Node14&#45;&gt;Node21</title>
<g id="a_edge20_Node000014_Node000021"><a xlink:title=" ">
<path fill="none" stroke="#63b8ff" d="M898.74,-226.59C919.91,-216.41 944.29,-204.69 964.35,-195.04"/>
<polygon fill="#63b8ff" stroke="#63b8ff" points="897.08,-223.5 889.58,-230.99 900.11,-229.81 897.08,-223.5"/>
</a>
</g>
</g>
<!-- Node23 -->
<g id="Node000023" class="node">
<title>Node23</title>
<g id="a_Node000023"><a xlink:href="qdimacs__core_8cpp.html" target="_top" xlink:title=" ">
<polygon fill="white" stroke="#666666" points="1230,-195 1092,-195 1092,-154 1230,-154 1230,-195"/>
<text text-anchor="start" x="1100" y="-183" font-family="Helvetica,sans-Serif" font-size="10.00">/home/runner/work/cbmc</text>
<text text-anchor="start" x="1100" y="-172" font-family="Helvetica,sans-Serif" font-size="10.00">/cbmc/src/solvers/qbf</text>
<text text-anchor="middle" x="1161" y="-161" font-family="Helvetica,sans-Serif" font-size="10.00">/qdimacs_core.cpp</text>
</a>
</g>
</g>
<!-- Node14&#45;&gt;Node23 -->
<g id="edge22_Node000014_Node000023" class="edge">
<title>Node14&#45;&gt;Node23</title>
<g id="a_edge22_Node000014_Node000023"><a xlink:title=" ">
<path fill="none" stroke="#63b8ff" d="M928.45,-230.67C997.87,-214.1 1016.92,-210.88 1083,-195 1085.85,-194.31 1088.76,-193.61 1091.69,-192.9"/>
<polygon fill="#63b8ff" stroke="#63b8ff" points="927.22,-227.37 918.31,-233.1 928.85,-234.18 927.22,-227.37"/>
</a>
</g>
</g>
<!-- Node16 -->
<g id="Node000016" class="node">
<title>Node16</title>
<g id="a_Node000016"><a xlink:href="qbf__bdd__core_8cpp.html" target="_top" xlink:title=" ">
<polygon fill="white" stroke="#666666" points="606,-118 468,-118 468,-77 606,-77 606,-118"/>
<text text-anchor="start" x="476" y="-106" font-family="Helvetica,sans-Serif" font-size="10.00">/home/runner/work/cbmc</text>
<text text-anchor="start" x="476" y="-95" font-family="Helvetica,sans-Serif" font-size="10.00">/cbmc/src/solvers/qbf</text>
<text text-anchor="middle" x="537" y="-84" font-family="Helvetica,sans-Serif" font-size="10.00">/qbf_bdd_core.cpp</text>
</a>
</g>
</g>
<!-- Node15&#45;&gt;Node16 -->
<g id="edge15_Node000015_Node000016" class="edge">
<title>Node15&#45;&gt;Node16</title>
<g id="a_edge15_Node000015_Node000016"><a xlink:title=" ">
<path fill="none" stroke="#63b8ff" d="M643.26,-149.59C622.09,-139.41 597.71,-127.69 577.65,-118.04"/>
<polygon fill="#63b8ff" stroke="#63b8ff" points="641.89,-152.81 652.42,-153.99 644.92,-146.5 641.89,-152.81"/>
</a>
</g>
</g>
<!-- Node17 -->
<g id="Node000017" class="node">
<title>Node17</title>
<g id="a_Node000017"><a xlink:href="qbf__skizzo__core_8h.html" target="_top" xlink:title=" ">
<polygon fill="white" stroke="#666666" points="762,-118 624,-118 624,-77 762,-77 762,-118"/>
<text text-anchor="start" x="632" y="-106" font-family="Helvetica,sans-Serif" font-size="10.00">/home/runner/work/cbmc</text>
<text text-anchor="start" x="632" y="-95" font-family="Helvetica,sans-Serif" font-size="10.00">/cbmc/src/solvers/qbf</text>
<text text-anchor="middle" x="693" y="-84" font-family="Helvetica,sans-Serif" font-size="10.00">/qbf_skizzo_core.h</text>
</a>
</g>
</g>
<!-- Node15&#45;&gt;Node17 -->
<g id="edge16_Node000015_Node000017" class="edge">
<title>Node15&#45;&gt;Node17</title>
<g id="a_edge16_Node000015_Node000017"><a xlink:title=" ">
<path fill="none" stroke="#63b8ff" d="M693,-143.69C693,-135.08 693,-125.9 693,-118.07"/>
<polygon fill="#63b8ff" stroke="#63b8ff" points="689.5,-143.79 693,-153.79 696.5,-143.79 689.5,-143.79"/>
</a>
</g>
</g>
<!-- Node18 -->
<g id="Node000018" class="node">
<title>Node18</title>
<g id="a_Node000018"><a xlink:href="qbf__skizzo__core_8cpp.html" target="_top" xlink:title=" ">
<polygon fill="white" stroke="#666666" points="762,-41 624,-41 624,0 762,0 762,-41"/>
<text text-anchor="start" x="632" y="-29" font-family="Helvetica,sans-Serif" font-size="10.00">/home/runner/work/cbmc</text>
<text text-anchor="start" x="632" y="-18" font-family="Helvetica,sans-Serif" font-size="10.00">/cbmc/src/solvers/qbf</text>
<text text-anchor="middle" x="693" y="-7" font-family="Helvetica,sans-Serif" font-size="10.00">/qbf_skizzo_core.cpp</text>
</a>
</g>
</g>
<!-- Node17&#45;&gt;Node18 -->
<g id="edge17_Node000017_Node000018" class="edge">
<title>Node17&#45;&gt;Node18</title>
<g id="a_edge17_Node000017_Node000018"><a xlink:title=" ">
<path fill="none" stroke="#63b8ff" d="M693,-66.69C693,-58.08 693,-48.9 693,-41.07"/>
<polygon fill="#63b8ff" stroke="#63b8ff" points="689.5,-66.79 693,-76.79 696.5,-66.79 689.5,-66.79"/>
</a>
</g>
</g>
<!-- Node20 -->
<g id="Node000020" class="node">
<title>Node20</title>
<g id="a_Node000020"><a xlink:href="qbf__qube__core_8cpp.html" target="_top" xlink:title=" ">
<polygon fill="white" stroke="#666666" points="918,-118 780,-118 780,-77 918,-77 918,-118"/>
<text text-anchor="start" x="788" y="-106" font-family="Helvetica,sans-Serif" font-size="10.00">/home/runner/work/cbmc</text>
<text text-anchor="start" x="788" y="-95" font-family="Helvetica,sans-Serif" font-size="10.00">/cbmc/src/solvers/qbf</text>
<text text-anchor="middle" x="849" y="-84" font-family="Helvetica,sans-Serif" font-size="10.00">/qbf_qube_core.cpp</text>
</a>
</g>
</g>
<!-- Node19&#45;&gt;Node20 -->
<g id="edge19_Node000019_Node000020" class="edge">
<title>Node19&#45;&gt;Node20</title>
<g id="a_edge19_Node000019_Node000020"><a xlink:title=" ">
<path fill="none" stroke="#63b8ff" d="M849,-143.69C849,-135.08 849,-125.9 849,-118.07"/>
<polygon fill="#63b8ff" stroke="#63b8ff" points="845.5,-143.79 849,-153.79 852.5,-143.79 845.5,-143.79"/>
</a>
</g>
</g>
<!-- Node22 -->
<g id="Node000022" class="node">
<title>Node22</title>
<g id="a_Node000022"><a xlink:href="qbf__squolem__core_8cpp.html" target="_top" xlink:title="Squolem Backend (with proofs)">
<polygon fill="white" stroke="#666666" points="1074,-118 936,-118 936,-77 1074,-77 1074,-118"/>
<text text-anchor="start" x="944" y="-106" font-family="Helvetica,sans-Serif" font-size="10.00">/home/runner/work/cbmc</text>
<text text-anchor="start" x="944" y="-95" font-family="Helvetica,sans-Serif" font-size="10.00">/cbmc/src/solvers/qbf</text>
<text text-anchor="middle" x="1005" y="-84" font-family="Helvetica,sans-Serif" font-size="10.00">/qbf_squolem_core.cpp</text>
</a>
</g>
</g>
<!-- Node21&#45;&gt;Node22 -->
<g id="edge21_Node000021_Node000022" class="edge">
<title>Node21&#45;&gt;Node22</title>
<g id="a_edge21_Node000021_Node000022"><a xlink:title=" ">
<path fill="none" stroke="#63b8ff" d="M1005,-143.69C1005,-135.08 1005,-125.9 1005,-118.07"/>
<polygon fill="#63b8ff" stroke="#63b8ff" points="1001.5,-143.79 1005,-153.79 1008.5,-143.79 1001.5,-143.79"/>
</a>
</g>
</g>
<!-- Node27 -->
<g id="Node000027" class="node">
<title>Node27</title>
<g id="a_Node000027"><a xlink:href="pbs__dimacs__cnf_8cpp.html" target="_top" xlink:title=" ">
<polygon fill="white" stroke="#666666" points="1074,-272 936,-272 936,-231 1074,-231 1074,-272"/>
<text text-anchor="start" x="944" y="-260" font-family="Helvetica,sans-Serif" font-size="10.00">/home/runner/work/cbmc</text>
<text text-anchor="start" x="944" y="-249" font-family="Helvetica,sans-Serif" font-size="10.00">/cbmc/src/solvers/sat</text>
<text text-anchor="middle" x="1005" y="-238" font-family="Helvetica,sans-Serif" font-size="10.00">/pbs_dimacs_cnf.cpp</text>
</a>
</g>
</g>
<!-- Node26&#45;&gt;Node27 -->
<g id="edge26_Node000026_Node000027" class="edge">
<title>Node26&#45;&gt;Node27</title>
<g id="a_edge26_Node000026_Node000027"><a xlink:title=" ">
<path fill="none" stroke="#63b8ff" d="M1005,-297.69C1005,-289.08 1005,-279.9 1005,-272.07"/>
<polygon fill="#63b8ff" stroke="#63b8ff" points="1001.5,-297.79 1005,-307.79 1008.5,-297.79 1001.5,-297.79"/>
</a>
</g>
</g>
<!-- Node29 -->
<g id="Node000029" class="node">
<title>Node29</title>
<g id="a_Node000029"><a xlink:href="satcheck__zcore_8cpp.html" target="_top" xlink:title=" ">
<polygon fill="white" stroke="#666666" points="1230,-272 1092,-272 1092,-231 1230,-231 1230,-272"/>
<text text-anchor="start" x="1100" y="-260" font-family="Helvetica,sans-Serif" font-size="10.00">/home/runner/work/cbmc</text>
<text text-anchor="start" x="1100" y="-249" font-family="Helvetica,sans-Serif" font-size="10.00">/cbmc/src/solvers/sat</text>
<text text-anchor="middle" x="1161" y="-238" font-family="Helvetica,sans-Serif" font-size="10.00">/satcheck_zcore.cpp</text>
</a>
</g>
</g>
<!-- Node28&#45;&gt;Node29 -->
<g id="edge28_Node000028_Node000029" class="edge">
<title>Node28&#45;&gt;Node29</title>
<g id="a_edge28_Node000028_Node000029"><a xlink:title=" ">
<path fill="none" stroke="#63b8ff" d="M1161,-297.69C1161,-289.08 1161,-279.9 1161,-272.07"/>
<polygon fill="#63b8ff" stroke="#63b8ff" points="1157.5,-297.79 1161,-307.79 1164.5,-297.79 1157.5,-297.79"/>
</a>
</g>
</g>
</g>
</svg>
