<?xml version="1.0" encoding="UTF-8" standalone="no"?>
<!DOCTYPE svg PUBLIC "-//W3C//DTD SVG 1.1//EN"
 "http://www.w3.org/Graphics/SVG/1.1/DTD/svg11.dtd">
<!-- Generated by graphviz version 2.43.0 (0)
 -->
<!-- Title: /home/runner/work/cbmc/cbmc/jbmc/src Pages: 1 -->
<svg width="313pt" height="204pt"
 viewBox="0.00 0.00 312.50 204.00" xmlns="http://www.w3.org/2000/svg" xmlns:xlink="http://www.w3.org/1999/xlink">
<g id="graph0" class="graph" transform="scale(1 1) rotate(0) translate(4 200)">
<title>/home/runner/work/cbmc/cbmc/jbmc/src</title>
<g id="clust1" class="cluster">
<title>clusterdir_a263634046f766d6a2cc27bb1bac298e</title>
<g id="a_clust1"><a xlink:href="dir_a263634046f766d6a2cc27bb1bac298e.html" target="_top" xlink:title="jbmc">
<polygon fill="#e5e9f1" stroke="#404040" stroke-dasharray="5,2" points="8,-8 8,-188 265,-188 265,-8 8,-8"/>
<text text-anchor="middle" x="136.5" y="-176" font-family="Helvetica,sans-Serif" font-size="10.00">jbmc</text>
</a>
</g>
</g>
<g id="clust2" class="cluster">
<title>clusterdir_7d9c2272cea08e738f9482db6f677351</title>
<g id="a_clust2"><a xlink:href="dir_7d9c2272cea08e738f9482db6f677351.html" target="_top">
<polygon fill="#e5e9f1" stroke="#404040" stroke-width="2" points="16,-16 16,-161 257,-161 257,-16 16,-16"/>
</a>
</g>
</g>
<!-- dir_7d9c2272cea08e738f9482db6f677351 -->
<g id="node1" class="node">
<title>dir_7d9c2272cea08e738f9482db6f677351</title>
<text text-anchor="middle" x="233" y="-141" font-family="Helvetica,sans-Serif" font-size="10.00">src</text>
</g>
<!-- dir_ca70c801a1dd558c729ac70eda66875f -->
<g id="node2" class="node">
<title>dir_ca70c801a1dd558c729ac70eda66875f</title>
<g id="a_node2"><a xlink:href="dir_ca70c801a1dd558c729ac70eda66875f.html" target="_top" xlink:title="janalyzer">
<polygon fill="#8499bb" stroke="#404040" points="140,-153 78,-153 78,-134 140,-134 140,-153"/>
<text text-anchor="middle" x="109" y="-141" font-family="Helvetica,sans-Serif" font-size="10.00">janalyzer</text>
</a>
</g>
</g>
<!-- dir_1a9aed0dd48ec371a7d28ba0a5a70e7e -->
<g id="node3" class="node">
<title>dir_1a9aed0dd48ec371a7d28ba0a5a70e7e</title>
<g id="a_node3"><a xlink:href="dir_1a9aed0dd48ec371a7d28ba0a5a70e7e.html" target="_top" xlink:title="java_bytecode">
<polygon fill="#8499bb" stroke="#404040" points="155,-98 67,-98 67,-79 155,-79 155,-98"/>
<text text-anchor="middle" x="111" y="-86" font-family="Helvetica,sans-Serif" font-size="10.00">java_bytecode</text>
</a>
</g>
</g>
<!-- dir_ca70c801a1dd558c729ac70eda66875f&#45;&gt;dir_1a9aed0dd48ec371a7d28ba0a5a70e7e -->
<g id="edge1" class="edge">
<title>dir_ca70c801a1dd558c729ac70eda66875f&#45;&gt;dir_1a9aed0dd48ec371a7d28ba0a5a70e7e</title>
<g id="a_edge1"><a xlink:href="dir_000034_000036.html" target="_top">
<path fill="none" stroke="#63b8ff" d="M109.33,-133.75C109.59,-126.8 109.97,-116.85 110.3,-108.13"/>
<polygon fill="#63b8ff" stroke="#63b8ff" points="113.8,-108.21 110.68,-98.09 106.8,-107.95 113.8,-108.21"/>
</a>
</g>
<g id="a_edge1&#45;headlabel"><a xlink:href="dir_000034_000036.html" target="_top" xlink:title="5">
<text text-anchor="middle" x="116.5" y="-109.41" font-family="Helvetica,sans-Serif" font-size="10.00" fill="#63b8ff">5</text>
</a>
</g>
</g>
<!-- dir_68267d1309a1af8e8297ef4c3efbcdba -->
<g id="node7" class="node">
<title>dir_68267d1309a1af8e8297ef4c3efbcdba</title>
<g id="a_node7"><a xlink:href="dir_68267d1309a1af8e8297ef4c3efbcdba.html" target="_top" xlink:title="src">
<polygon fill="#e5e9f1" stroke="red" points="304.5,-43 273.5,-43 273.5,-24 304.5,-24 304.5,-43"/>
<text text-anchor="middle" x="289" y="-31" font-family="Helvetica,sans-Serif" font-size="10.00">src</text>
</a>
</g>
</g>
<!-- dir_ca70c801a1dd558c729ac70eda66875f&#45;&gt;dir_68267d1309a1af8e8297ef4c3efbcdba -->
<g id="edge2" class="edge">
<title>dir_ca70c801a1dd558c729ac70eda66875f&#45;&gt;dir_68267d1309a1af8e8297ef4c3efbcdba</title>
<g id="a_edge2"><a xlink:href="dir_000034_000063.html" target="_top">
<path fill="none" stroke="#63b8ff" d="M134.81,-133.85C156.5,-126.03 187.89,-113.4 213,-98 235.51,-84.2 258.36,-64.1 273.04,-50.23"/>
<polygon fill="#63b8ff" stroke="#63b8ff" points="275.53,-52.7 280.31,-43.25 270.67,-47.66 275.53,-52.7"/>
</a>
</g>
<g id="a_edge2&#45;headlabel"><a xlink:href="dir_000034_000063.html" target="_top" xlink:title="30">
<text text-anchor="middle" x="274.9" y="-54.74" font-family="Helvetica,sans-Serif" font-size="10.00" fill="#63b8ff">30</text>
</a>
</g>
</g>
<!-- dir_03d682e021e4c6309d130abf57ca5133 -->
<g id="node6" class="node">
<title>dir_03d682e021e4c6309d130abf57ca5133</title>
<g id="a_node6"><a xlink:href="dir_03d682e021e4c6309d130abf57ca5133.html" target="_top" xlink:title="miniz">
<polygon fill="#8499bb" stroke="#404040" points="133,-43 89,-43 89,-24 133,-24 133,-43"/>
<text text-anchor="middle" x="111" y="-31" font-family="Helvetica,sans-Serif" font-size="10.00">miniz</text>
</a>
</g>
</g>
<!-- dir_1a9aed0dd48ec371a7d28ba0a5a70e7e&#45;&gt;dir_03d682e021e4c6309d130abf57ca5133 -->
<g id="edge3" class="edge">
<title>dir_1a9aed0dd48ec371a7d28ba0a5a70e7e&#45;&gt;dir_03d682e021e4c6309d130abf57ca5133</title>
<g id="a_edge3"><a xlink:href="dir_000036_000052.html" target="_top">
<path fill="none" stroke="#63b8ff" d="M111,-78.75C111,-71.8 111,-61.85 111,-53.13"/>
<polygon fill="#63b8ff" stroke="#63b8ff" points="114.5,-53.09 111,-43.09 107.5,-53.09 114.5,-53.09"/>
</a>
</g>
<g id="a_edge3&#45;headlabel"><a xlink:href="dir_000036_000052.html" target="_top" xlink:title="1">
<text text-anchor="middle" x="117.34" y="-54.18" font-family="Helvetica,sans-Serif" font-size="10.00" fill="#63b8ff">1</text>
</a>
</g>
</g>
<!-- dir_1a9aed0dd48ec371a7d28ba0a5a70e7e&#45;&gt;dir_68267d1309a1af8e8297ef4c3efbcdba -->
<g id="edge4" class="edge">
<title>dir_1a9aed0dd48ec371a7d28ba0a5a70e7e&#45;&gt;dir_68267d1309a1af8e8297ef4c3efbcdba</title>
<g id="a_edge4"><a xlink:href="dir_000036_000063.html" target="_top">
<path fill="none" stroke="#63b8ff" d="M140.05,-78.94C170.28,-70.02 218.98,-55.61 261,-43 261.87,-42.74 262.76,-42.47 263.66,-42.2"/>
<polygon fill="#63b8ff" stroke="#63b8ff" points="264.75,-45.53 273.31,-39.28 262.72,-38.83 264.75,-45.53"/>
</a>
</g>
<g id="a_edge4&#45;headlabel"><a xlink:href="dir_000036_000063.html" target="_top" xlink:title="313">
<text text-anchor="middle" x="262.13" y="-46.79" font-family="Helvetica,sans-Serif" font-size="10.00" fill="#63b8ff">313</text>
</a>
</g>
</g>
<!-- dir_af0fb707c09587bac40b5302d50db6e8 -->
<g id="node4" class="node">
<title>dir_af0fb707c09587bac40b5302d50db6e8</title>
<g id="a_node4"><a xlink:href="dir_af0fb707c09587bac40b5302d50db6e8.html" target="_top" xlink:title="jbmc">
<polygon fill="#8499bb" stroke="#404040" points="199.5,-153 158.5,-153 158.5,-134 199.5,-134 199.5,-153"/>
<text text-anchor="middle" x="179" y="-141" font-family="Helvetica,sans-Serif" font-size="10.00">jbmc</text>
</a>
</g>
</g>
<!-- dir_af0fb707c09587bac40b5302d50db6e8&#45;&gt;dir_1a9aed0dd48ec371a7d28ba0a5a70e7e -->
<g id="edge5" class="edge">
<title>dir_af0fb707c09587bac40b5302d50db6e8&#45;&gt;dir_1a9aed0dd48ec371a7d28ba0a5a70e7e</title>
<g id="a_edge5"><a xlink:href="dir_000038_000036.html" target="_top">
<path fill="none" stroke="#63b8ff" d="M168.07,-133.98C157.92,-126.07 142.58,-114.11 130.35,-104.58"/>
<polygon fill="#63b8ff" stroke="#63b8ff" points="132.16,-101.56 122.12,-98.17 127.86,-107.08 132.16,-101.56"/>
</a>
</g>
<g id="a_edge5&#45;headlabel"><a xlink:href="dir_000038_000036.html" target="_top" xlink:title="14">
<text text-anchor="middle" x="136.74" y="-99.03" font-family="Helvetica,sans-Serif" font-size="10.00" fill="#63b8ff">14</text>
</a>
</g>
</g>
<!-- dir_af0fb707c09587bac40b5302d50db6e8&#45;&gt;dir_68267d1309a1af8e8297ef4c3efbcdba -->
<g id="edge6" class="edge">
<title>dir_af0fb707c09587bac40b5302d50db6e8&#45;&gt;dir_68267d1309a1af8e8297ef4c3efbcdba</title>
<g id="a_edge6"><a xlink:href="dir_000038_000063.html" target="_top">
<path fill="none" stroke="#63b8ff" d="M199.71,-135.17C217.39,-128.02 242.49,-115.64 259,-98 270.96,-85.22 278.95,-66.79 283.65,-53.08"/>
<polygon fill="#63b8ff" stroke="#63b8ff" points="287.07,-53.88 286.73,-43.29 280.39,-51.78 287.07,-53.88"/>
</a>
</g>
<g id="a_edge6&#45;headlabel"><a xlink:href="dir_000038_000063.html" target="_top" xlink:title="45">
<text text-anchor="middle" x="288.69" y="-55.66" font-family="Helvetica,sans-Serif" font-size="10.00" fill="#63b8ff">45</text>
</a>
</g>
</g>
<!-- dir_e9678580bdac988aac1d79c6a2c6cbf9 -->
<g id="node5" class="node">
<title>dir_e9678580bdac988aac1d79c6a2c6cbf9</title>
<g id="a_node5"><a xlink:href="dir_e9678580bdac988aac1d79c6a2c6cbf9.html" target="_top" xlink:title="jdiff">
<polygon fill="#8499bb" stroke="#404040" points="59.5,-153 24.5,-153 24.5,-134 59.5,-134 59.5,-153"/>
<text text-anchor="middle" x="42" y="-141" font-family="Helvetica,sans-Serif" font-size="10.00">jdiff</text>
</a>
</g>
</g>
<!-- dir_e9678580bdac988aac1d79c6a2c6cbf9&#45;&gt;dir_1a9aed0dd48ec371a7d28ba0a5a70e7e -->
<g id="edge7" class="edge">
<title>dir_e9678580bdac988aac1d79c6a2c6cbf9&#45;&gt;dir_1a9aed0dd48ec371a7d28ba0a5a70e7e</title>
<g id="a_edge7"><a xlink:href="dir_000039_000036.html" target="_top">
<path fill="none" stroke="#63b8ff" d="M53.09,-133.98C63.49,-126 79.26,-113.88 91.72,-104.31"/>
<polygon fill="#63b8ff" stroke="#63b8ff" points="93.91,-107.04 99.71,-98.17 89.65,-101.49 93.91,-107.04"/>
</a>
</g>
<g id="a_edge7&#45;headlabel"><a xlink:href="dir_000039_000036.html" target="_top" xlink:title="5">
<text text-anchor="middle" x="92.79" y="-108.98" font-family="Helvetica,sans-Serif" font-size="10.00" fill="#63b8ff">5</text>
</a>
</g>
</g>
<!-- dir_e9678580bdac988aac1d79c6a2c6cbf9&#45;&gt;dir_68267d1309a1af8e8297ef4c3efbcdba -->
<g id="edge8" class="edge">
<title>dir_e9678580bdac988aac1d79c6a2c6cbf9&#45;&gt;dir_68267d1309a1af8e8297ef4c3efbcdba</title>
<g id="a_edge8"><a xlink:href="dir_000039_000063.html" target="_top">
<path fill="none" stroke="#63b8ff" d="M59.63,-136.81C83.59,-128.92 127.61,-113.81 164,-98 199.67,-82.5 239.51,-61.61 264.42,-48.1"/>
<polygon fill="#63b8ff" stroke="#63b8ff" points="266.41,-51 273.5,-43.14 263.05,-44.86 266.41,-51"/>
</a>
</g>
<g id="a_edge8&#45;headlabel"><a xlink:href="dir_000039_000063.html" target="_top" xlink:title="28">
<text text-anchor="middle" x="264.61" y="-52.72" font-family="Helvetica,sans-Serif" font-size="10.00" fill="#63b8ff">28</text>
</a>
</g>
</g>
</g>
</svg>
