<?xml version="1.0" encoding="UTF-8" standalone="no"?>
<!DOCTYPE svg PUBLIC "-//W3C//DTD SVG 1.1//EN"
 "http://www.w3.org/Graphics/SVG/1.1/DTD/svg11.dtd">
<!-- Generated by graphviz version 2.43.0 (0)
 -->
<!-- Title: /home/runner/work/cbmc/cbmc/src/goto&#45;programs/elf_reader.h Pages: 1 -->
<svg width="184pt" height="104pt"
 viewBox="0.00 0.00 183.50 104.00" xmlns="http://www.w3.org/2000/svg" xmlns:xlink="http://www.w3.org/1999/xlink">
<g id="graph0" class="graph" transform="scale(1 1) rotate(0) translate(4 100)">
<title>/home/runner/work/cbmc/cbmc/src/goto&#45;programs/elf_reader.h</title>
<!-- Node1 -->
<g id="Node000001" class="node">
<title>Node1</title>
<g id="a_Node000001"><a xlink:title="Read ELF.">
<polygon fill="#999999" stroke="#666666" points="157,-96 19,-96 19,-55 157,-55 157,-96"/>
<text text-anchor="start" x="27" y="-84" font-family="Helvetica,sans-Serif" font-size="10.00">/home/runner/work/cbmc</text>
<text text-anchor="start" x="27" y="-73" font-family="Helvetica,sans-Serif" font-size="10.00">/cbmc/src/goto&#45;programs</text>
<text text-anchor="middle" x="88" y="-62" font-family="Helvetica,sans-Serif" font-size="10.00">/elf_reader.h</text>
</a>
</g>
</g>
<!-- Node2 -->
<g id="Node000002" class="node">
<title>Node2</title>
<g id="a_Node000002"><a xlink:title=" ">
<polygon fill="#e0e0e0" stroke="#999999" points="48,-19 0,-19 0,0 48,0 48,-19"/>
<text text-anchor="middle" x="24" y="-7" font-family="Helvetica,sans-Serif" font-size="10.00">iosfwd</text>
</a>
</g>
</g>
<!-- Node1&#45;&gt;Node2 -->
<g id="edge1_Node000001_Node000002" class="edge">
<title>Node1&#45;&gt;Node2</title>
<g id="a_edge1_Node000001_Node000002"><a xlink:title=" ">
<path fill="none" stroke="#63b8ff" d="M68.45,-54.95C59.33,-45.83 48.61,-35.11 39.99,-26.49"/>
<polygon fill="#63b8ff" stroke="#63b8ff" points="42.31,-23.86 32.76,-19.26 37.36,-28.81 42.31,-23.86"/>
</a>
</g>
</g>
<!-- Node3 -->
<g id="Node000003" class="node">
<title>Node3</title>
<g id="a_Node000003"><a xlink:title=" ">
<polygon fill="#e0e0e0" stroke="#999999" points="110,-19 66,-19 66,0 110,0 110,-19"/>
<text text-anchor="middle" x="88" y="-7" font-family="Helvetica,sans-Serif" font-size="10.00">string</text>
</a>
</g>
</g>
<!-- Node1&#45;&gt;Node3 -->
<g id="edge2_Node000001_Node000003" class="edge">
<title>Node1&#45;&gt;Node3</title>
<g id="a_edge2_Node000001_Node000003"><a xlink:title=" ">
<path fill="none" stroke="#63b8ff" d="M88,-54.95C88,-46.85 88,-37.5 88,-29.47"/>
<polygon fill="#63b8ff" stroke="#63b8ff" points="91.5,-29.26 88,-19.26 84.5,-29.26 91.5,-29.26"/>
</a>
</g>
</g>
<!-- Node4 -->
<g id="Node000004" class="node">
<title>Node4</title>
<g id="a_Node000004"><a xlink:title=" ">
<polygon fill="#e0e0e0" stroke="#999999" points="175.5,-19 128.5,-19 128.5,0 175.5,0 175.5,-19"/>
<text text-anchor="middle" x="152" y="-7" font-family="Helvetica,sans-Serif" font-size="10.00">vector</text>
</a>
</g>
</g>
<!-- Node1&#45;&gt;Node4 -->
<g id="edge3_Node000001_Node000004" class="edge">
<title>Node1&#45;&gt;Node4</title>
<g id="a_edge3_Node000001_Node000004"><a xlink:title=" ">
<path fill="none" stroke="#63b8ff" d="M107.55,-54.95C116.67,-45.83 127.39,-35.11 136.01,-26.49"/>
<polygon fill="#63b8ff" stroke="#63b8ff" points="138.64,-28.81 143.24,-19.26 133.69,-23.86 138.64,-28.81"/>
</a>
</g>
</g>
</g>
</svg>
