<?xml version="1.0" encoding="UTF-8" standalone="no"?>
<!DOCTYPE svg PUBLIC "-//W3C//DTD SVG 1.1//EN"
 "http://www.w3.org/Graphics/SVG/1.1/DTD/svg11.dtd">
<!-- Generated by graphviz version 2.43.0 (0)
 -->
<!-- Title: /home/runner/work/cbmc/cbmc/src/solvers/flattening/equality.h Pages: 1 -->
<svg width="1381pt" height="676pt"
 viewBox="0.00 0.00 1380.50 676.00" xmlns="http://www.w3.org/2000/svg" xmlns:xlink="http://www.w3.org/1999/xlink">
<g id="graph0" class="graph" transform="scale(1 1) rotate(0) translate(4 672)">
<title>/home/runner/work/cbmc/cbmc/src/solvers/flattening/equality.h</title>
<!-- Node1 -->
<g id="Node000001" class="node">
<title>Node1</title>
<g id="a_Node000001"><a xlink:title=" ">
<polygon fill="#999999" stroke="#666666" points="491,-668 340,-668 340,-627 491,-627 491,-668"/>
<text text-anchor="start" x="348" y="-656" font-family="Helvetica,sans-Serif" font-size="10.00">/home/runner/work/cbmc</text>
<text text-anchor="start" x="348" y="-645" font-family="Helvetica,sans-Serif" font-size="10.00">/cbmc/src/solvers/flattening</text>
<text text-anchor="middle" x="415.5" y="-634" font-family="Helvetica,sans-Serif" font-size="10.00">/equality.h</text>
</a>
</g>
</g>
<!-- Node2 -->
<g id="Node000002" class="node">
<title>Node2</title>
<g id="a_Node000002"><a xlink:title=" ">
<polygon fill="#e0e0e0" stroke="#999999" points="117.5,-525 79.5,-525 79.5,-506 117.5,-506 117.5,-525"/>
<text text-anchor="middle" x="98.5" y="-513" font-family="Helvetica,sans-Serif" font-size="10.00">map</text>
</a>
</g>
</g>
<!-- Node1&#45;&gt;Node2 -->
<g id="edge1_Node000001_Node000002" class="edge">
<title>Node1&#45;&gt;Node2</title>
<g id="a_edge1_Node000001_Node000002"><a xlink:title=" ">
<path fill="none" stroke="#63b8ff" d="M367.7,-626.9C300.94,-599.52 181.85,-550.68 127.27,-528.3"/>
<polygon fill="#63b8ff" stroke="#63b8ff" points="128.43,-524.99 117.85,-524.44 125.78,-531.47 128.43,-524.99"/>
</a>
</g>
</g>
<!-- Node3 -->
<g id="Node000003" class="node">
<title>Node3</title>
<g id="a_Node000003"><a xlink:href="expr_8h.html" target="_top" xlink:title=" ">
<polygon fill="white" stroke="#666666" points="817,-525 752,-525 752,-506 817,-506 817,-525"/>
<text text-anchor="middle" x="784.5" y="-513" font-family="Helvetica,sans-Serif" font-size="10.00">util/expr.h</text>
</a>
</g>
</g>
<!-- Node1&#45;&gt;Node3 -->
<g id="edge2_Node000001_Node000003" class="edge">
<title>Node1&#45;&gt;Node3</title>
<g id="a_edge2_Node000001_Node000003"><a xlink:title=" ">
<path fill="none" stroke="#63b8ff" d="M471.14,-626.9C548.73,-599.56 687.05,-550.83 750.72,-528.4"/>
<polygon fill="#63b8ff" stroke="#63b8ff" points="752.01,-531.66 760.28,-525.03 749.68,-525.05 752.01,-531.66"/>
</a>
</g>
</g>
<!-- Node37 -->
<g id="Node000037" class="node">
<title>Node37</title>
<g id="a_Node000037"><a xlink:href="prop__conv__solver_8h.html" target="_top" xlink:title=" ">
<polygon fill="white" stroke="#666666" points="480.5,-591 350.5,-591 350.5,-561 480.5,-561 480.5,-591"/>
<text text-anchor="start" x="358.5" y="-579" font-family="Helvetica,sans-Serif" font-size="10.00">solvers/prop/prop_conv</text>
<text text-anchor="middle" x="415.5" y="-568" font-family="Helvetica,sans-Serif" font-size="10.00">_solver.h</text>
</a>
</g>
</g>
<!-- Node1&#45;&gt;Node37 -->
<g id="edge42_Node000001_Node000037" class="edge">
<title>Node1&#45;&gt;Node37</title>
<g id="a_edge42_Node000001_Node000037"><a xlink:title=" ">
<path fill="none" stroke="#63b8ff" d="M415.5,-626.77C415.5,-618.85 415.5,-609.63 415.5,-601.3"/>
<polygon fill="#63b8ff" stroke="#63b8ff" points="419,-601.04 415.5,-591.04 412,-601.04 419,-601.04"/>
</a>
</g>
</g>
<!-- Node4 -->
<g id="Node000004" class="node">
<title>Node4</title>
<g id="a_Node000004"><a xlink:href="as__const_8h.html" target="_top" xlink:title=" ">
<polygon fill="white" stroke="#666666" points="848.5,-129 780.5,-129 780.5,-110 848.5,-110 848.5,-129"/>
<text text-anchor="middle" x="814.5" y="-117" font-family="Helvetica,sans-Serif" font-size="10.00">as_const.h</text>
</a>
</g>
</g>
<!-- Node3&#45;&gt;Node4 -->
<g id="edge3_Node000003_Node000004" class="edge">
<title>Node3&#45;&gt;Node4</title>
<g id="a_edge3_Node000003_Node000004"><a xlink:title=" ">
<path fill="none" stroke="#63b8ff" d="M763.14,-506C729.88,-491.19 669.5,-457.31 669.5,-406.5 669.5,-406.5 669.5,-406.5 669.5,-234 669.5,-180.17 732.23,-148.05 775.17,-132.37"/>
<polygon fill="#63b8ff" stroke="#63b8ff" points="776.52,-135.6 784.81,-129 774.21,-129 776.52,-135.6"/>
</a>
</g>
</g>
<!-- Node5 -->
<g id="Node000005" class="node">
<title>Node5</title>
<g id="a_Node000005"><a xlink:href="type_8h.html" target="_top" xlink:title="Defines typet, type_with_subtypet and type_with_subtypest.">
<polygon fill="white" stroke="#666666" points="982,-470 935,-470 935,-451 982,-451 982,-470"/>
<text text-anchor="middle" x="958.5" y="-458" font-family="Helvetica,sans-Serif" font-size="10.00">type.h</text>
</a>
</g>
</g>
<!-- Node3&#45;&gt;Node5 -->
<g id="edge4_Node000003_Node000005" class="edge">
<title>Node3&#45;&gt;Node5</title>
<g id="a_edge4_Node000003_Node000005"><a xlink:title=" ">
<path fill="none" stroke="#63b8ff" d="M812.46,-505.98C843.19,-496.62 892.53,-481.59 925.23,-471.63"/>
<polygon fill="#63b8ff" stroke="#63b8ff" points="926.26,-474.98 934.81,-468.72 924.22,-468.28 926.26,-474.98"/>
</a>
</g>
</g>
<!-- Node33 -->
<g id="Node000033" class="node">
<title>Node33</title>
<g id="a_Node000033"><a xlink:href="validation__mode_8h.html" target="_top" xlink:title=" ">
<polygon fill="white" stroke="#666666" points="843,-360 736,-360 736,-341 843,-341 843,-360"/>
<text text-anchor="middle" x="789.5" y="-348" font-family="Helvetica,sans-Serif" font-size="10.00">validation_mode.h</text>
</a>
</g>
</g>
<!-- Node3&#45;&gt;Node33 -->
<g id="edge40_Node000003_Node000033" class="edge">
<title>Node3&#45;&gt;Node33</title>
<g id="a_edge40_Node000003_Node000033"><a xlink:title=" ">
<path fill="none" stroke="#63b8ff" d="M817.04,-507.61C837.37,-501.44 861.99,-490.14 874.5,-470 898.8,-430.88 845.65,-387.53 812.85,-365.7"/>
<polygon fill="#63b8ff" stroke="#63b8ff" points="814.52,-362.62 804.22,-360.14 810.73,-368.5 814.52,-362.62"/>
</a>
</g>
</g>
<!-- Node34 -->
<g id="Node000034" class="node">
<title>Node34</title>
<g id="a_Node000034"><a xlink:href="validate__types_8h.html" target="_top" xlink:title=" ">
<polygon fill="white" stroke="#666666" points="1153.5,-415 1055.5,-415 1055.5,-396 1153.5,-396 1153.5,-415"/>
<text text-anchor="middle" x="1104.5" y="-403" font-family="Helvetica,sans-Serif" font-size="10.00">validate_types.h</text>
</a>
</g>
</g>
<!-- Node3&#45;&gt;Node34 -->
<g id="edge39_Node000003_Node000034" class="edge">
<title>Node3&#45;&gt;Node34</title>
<g id="a_edge39_Node000003_Node000034"><a xlink:title=" ">
<path fill="none" stroke="#63b8ff" d="M817.27,-510.55C858.83,-504.85 932.2,-492.45 991.5,-470 1025.57,-457.1 1061.73,-435.13 1083.72,-420.71"/>
<polygon fill="#63b8ff" stroke="#63b8ff" points="1085.85,-423.5 1092.23,-415.04 1081.97,-417.67 1085.85,-423.5"/>
</a>
</g>
</g>
<!-- Node35 -->
<g id="Node000035" class="node">
<title>Node35</title>
<g id="a_Node000035"><a xlink:href="validate__expressions_8h.html" target="_top" xlink:title=" ">
<polygon fill="white" stroke="#666666" points="865,-470 736,-470 736,-451 865,-451 865,-470"/>
<text text-anchor="middle" x="800.5" y="-458" font-family="Helvetica,sans-Serif" font-size="10.00">validate_expressions.h</text>
</a>
</g>
</g>
<!-- Node3&#45;&gt;Node35 -->
<g id="edge38_Node000003_Node000035" class="edge">
<title>Node3&#45;&gt;Node35</title>
<g id="a_edge38_Node000003_Node000035"><a xlink:title=" ">
<path fill="none" stroke="#63b8ff" d="M787.14,-505.75C789.26,-498.72 792.31,-488.62 794.96,-479.84"/>
<polygon fill="#63b8ff" stroke="#63b8ff" points="798.37,-480.67 797.91,-470.09 791.67,-478.65 798.37,-480.67"/>
</a>
</g>
</g>
<!-- Node36 -->
<g id="Node000036" class="node">
<title>Node36</title>
<g id="a_Node000036"><a xlink:title=" ">
<polygon fill="#e0e0e0" stroke="#999999" points="565,-305 500,-305 500,-286 565,-286 565,-305"/>
<text text-anchor="middle" x="532.5" y="-293" font-family="Helvetica,sans-Serif" font-size="10.00">functional</text>
</a>
</g>
</g>
<!-- Node3&#45;&gt;Node36 -->
<g id="edge41_Node000003_Node000036" class="edge">
<title>Node3&#45;&gt;Node36</title>
<g id="a_edge41_Node000003_Node000036"><a xlink:title=" ">
<path fill="none" stroke="#63b8ff" d="M751.92,-509.07C724.13,-503.16 684.22,-491.52 655.5,-470 598.2,-427.06 557.13,-349.6 540.58,-314.58"/>
<polygon fill="#63b8ff" stroke="#63b8ff" points="543.6,-312.77 536.24,-305.15 537.24,-315.7 543.6,-312.77"/>
</a>
</g>
</g>
<!-- Node6 -->
<g id="Node000006" class="node">
<title>Node6</title>
<g id="a_Node000006"><a xlink:href="source__location_8h.html" target="_top" xlink:title=" ">
<polygon fill="white" stroke="#666666" points="1063.5,-305 961.5,-305 961.5,-286 1063.5,-286 1063.5,-305"/>
<text text-anchor="middle" x="1012.5" y="-293" font-family="Helvetica,sans-Serif" font-size="10.00">source_location.h</text>
</a>
</g>
</g>
<!-- Node5&#45;&gt;Node6 -->
<g id="edge5_Node000005_Node000006" class="edge">
<title>Node5&#45;&gt;Node6</title>
<g id="a_edge5_Node000005_Node000006"><a xlink:title=" ">
<path fill="none" stroke="#63b8ff" d="M969.8,-450.95C979.63,-442.84 993.38,-429.73 1000.5,-415 1016.2,-382.54 1016.08,-339.32 1014.41,-315.06"/>
<polygon fill="#63b8ff" stroke="#63b8ff" points="1017.89,-314.74 1013.55,-305.07 1010.92,-315.34 1017.89,-314.74"/>
</a>
</g>
</g>
<!-- Node31 -->
<g id="Node000031" class="node">
<title>Node31</title>
<g id="a_Node000031"><a xlink:href="validate_8h.html" target="_top" xlink:title=" ">
<polygon fill="white" stroke="#666666" points="991,-415 926,-415 926,-396 991,-396 991,-415"/>
<text text-anchor="middle" x="958.5" y="-403" font-family="Helvetica,sans-Serif" font-size="10.00">validate.h</text>
</a>
</g>
</g>
<!-- Node5&#45;&gt;Node31 -->
<g id="edge29_Node000005_Node000031" class="edge">
<title>Node5&#45;&gt;Node31</title>
<g id="a_edge29_Node000005_Node000031"><a xlink:title=" ">
<path fill="none" stroke="#63b8ff" d="M958.5,-450.75C958.5,-443.8 958.5,-433.85 958.5,-425.13"/>
<polygon fill="#63b8ff" stroke="#63b8ff" points="962,-425.09 958.5,-415.09 955,-425.09 962,-425.09"/>
</a>
</g>
</g>
<!-- Node5&#45;&gt;Node33 -->
<g id="edge37_Node000005_Node000033" class="edge">
<title>Node5&#45;&gt;Node33</title>
<g id="a_edge37_Node000005_Node000033"><a xlink:title=" ">
<path fill="none" stroke="#63b8ff" d="M948.14,-450.93C932.5,-438.19 901.67,-413.83 873.5,-396 855.2,-384.41 833.59,-373.01 816.87,-364.65"/>
<polygon fill="#63b8ff" stroke="#63b8ff" points="818.17,-361.39 807.65,-360.1 815.07,-367.67 818.17,-361.39"/>
</a>
</g>
</g>
<!-- Node5&#45;&gt;Node34 -->
<g id="edge36_Node000005_Node000034" class="edge">
<title>Node5&#45;&gt;Node34</title>
<g id="a_edge36_Node000005_Node000034"><a xlink:title=" ">
<path fill="none" stroke="#63b8ff" d="M981.96,-450.98C1006.08,-442.23 1043.87,-428.51 1071.1,-418.62"/>
<polygon fill="#63b8ff" stroke="#63b8ff" points="1072.41,-421.87 1080.62,-415.17 1070.02,-415.29 1072.41,-421.87"/>
</a>
</g>
</g>
<!-- Node7 -->
<g id="Node000007" class="node">
<title>Node7</title>
<g id="a_Node000007"><a xlink:href="deprecate_8h.html" target="_top" xlink:title=" ">
<polygon fill="white" stroke="#666666" points="1049.5,-244.5 975.5,-244.5 975.5,-225.5 1049.5,-225.5 1049.5,-244.5"/>
<text text-anchor="middle" x="1012.5" y="-232.5" font-family="Helvetica,sans-Serif" font-size="10.00">deprecate.h</text>
</a>
</g>
</g>
<!-- Node6&#45;&gt;Node7 -->
<g id="edge6_Node000006_Node000007" class="edge">
<title>Node6&#45;&gt;Node7</title>
<g id="a_edge6_Node000006_Node000007"><a xlink:title=" ">
<path fill="none" stroke="#63b8ff" d="M1012.5,-285.87C1012.5,-277.75 1012.5,-265.31 1012.5,-254.89"/>
<polygon fill="#63b8ff" stroke="#63b8ff" points="1016,-254.67 1012.5,-244.67 1009,-254.67 1016,-254.67"/>
</a>
</g>
</g>
<!-- Node8 -->
<g id="Node000008" class="node">
<title>Node8</title>
<g id="a_Node000008"><a xlink:href="irep_8h.html" target="_top" xlink:title=" ">
<polygon fill="white" stroke="#666666" points="881.5,-244.5 837.5,-244.5 837.5,-225.5 881.5,-225.5 881.5,-244.5"/>
<text text-anchor="middle" x="859.5" y="-232.5" font-family="Helvetica,sans-Serif" font-size="10.00">irep.h</text>
</a>
</g>
</g>
<!-- Node6&#45;&gt;Node8 -->
<g id="edge7_Node000006_Node000008" class="edge">
<title>Node6&#45;&gt;Node8</title>
<g id="a_edge7_Node000006_Node000008"><a xlink:title=" ">
<path fill="none" stroke="#63b8ff" d="M990.25,-285.99C964.19,-276.03 920.82,-259.45 891.23,-248.13"/>
<polygon fill="#63b8ff" stroke="#63b8ff" points="892.36,-244.82 881.77,-244.52 889.86,-251.36 892.36,-244.82"/>
</a>
</g>
</g>
<!-- Node9 -->
<g id="Node000009" class="node">
<title>Node9</title>
<g id="a_Node000009"><a xlink:title=" ">
<polygon fill="#e0e0e0" stroke="#999999" points="1261.5,-19 1217.5,-19 1217.5,0 1261.5,0 1261.5,-19"/>
<text text-anchor="middle" x="1239.5" y="-7" font-family="Helvetica,sans-Serif" font-size="10.00">string</text>
</a>
</g>
</g>
<!-- Node6&#45;&gt;Node9 -->
<g id="edge28_Node000006_Node000009" class="edge">
<title>Node6&#45;&gt;Node9</title>
<g id="a_edge28_Node000006_Node000009"><a xlink:title=" ">
<path fill="none" stroke="#63b8ff" d="M1063.52,-286.51C1154.32,-270.84 1334.5,-232.57 1334.5,-175.5 1334.5,-175.5 1334.5,-175.5 1334.5,-118.5 1334.5,-88.33 1329.61,-78.34 1310.5,-55 1299.64,-41.74 1283.74,-31.26 1269.74,-23.81"/>
<polygon fill="#63b8ff" stroke="#63b8ff" points="1270.94,-20.5 1260.43,-19.14 1267.8,-26.75 1270.94,-20.5"/>
</a>
</g>
</g>
<!-- Node30 -->
<g id="Node000030" class="node">
<title>Node30</title>
<g id="a_Node000030"><a xlink:title=" ">
<polygon fill="#e0e0e0" stroke="#999999" points="1123.5,-244.5 1067.5,-244.5 1067.5,-225.5 1123.5,-225.5 1123.5,-244.5"/>
<text text-anchor="middle" x="1095.5" y="-232.5" font-family="Helvetica,sans-Serif" font-size="10.00">optional</text>
</a>
</g>
</g>
<!-- Node6&#45;&gt;Node30 -->
<g id="edge27_Node000006_Node000030" class="edge">
<title>Node6&#45;&gt;Node30</title>
<g id="a_edge27_Node000006_Node000030"><a xlink:title=" ">
<path fill="none" stroke="#63b8ff" d="M1024.75,-285.87C1037.86,-276.62 1058.92,-261.78 1074.65,-250.69"/>
<polygon fill="#63b8ff" stroke="#63b8ff" points="1077.05,-253.29 1083.2,-244.67 1073.01,-247.57 1077.05,-253.29"/>
</a>
</g>
</g>
<!-- Node8&#45;&gt;Node9 -->
<g id="edge8_Node000008_Node000009" class="edge">
<title>Node8&#45;&gt;Node9</title>
<g id="a_edge8_Node000008_Node000009"><a xlink:title=" ">
<path fill="none" stroke="#63b8ff" d="M879.44,-225.41C884.6,-223.42 890.2,-221.46 895.5,-220 1032.32,-182.43 1113.8,-240.54 1201.5,-129 1225.01,-99.1 1234.15,-54.29 1237.57,-29.21"/>
<polygon fill="#63b8ff" stroke="#63b8ff" points="1241.06,-29.55 1238.77,-19.2 1234.11,-28.71 1241.06,-29.55"/>
</a>
</g>
</g>
<!-- Node10 -->
<g id="Node000010" class="node">
<title>Node10</title>
<g id="a_Node000010"><a xlink:title=" ">
<polygon fill="#e0e0e0" stroke="#999999" points="586,-184 539,-184 539,-165 586,-165 586,-184"/>
<text text-anchor="middle" x="562.5" y="-172" font-family="Helvetica,sans-Serif" font-size="10.00">vector</text>
</a>
</g>
</g>
<!-- Node8&#45;&gt;Node10 -->
<g id="edge9_Node000008_Node000010" class="edge">
<title>Node8&#45;&gt;Node10</title>
<g id="a_edge9_Node000008_Node000010"><a xlink:title=" ">
<path fill="none" stroke="#63b8ff" d="M837.18,-229.6C785.53,-219.43 657.54,-194.22 596.25,-182.15"/>
<polygon fill="#63b8ff" stroke="#63b8ff" points="596.8,-178.69 586.32,-180.19 595.45,-185.56 596.8,-178.69"/>
</a>
</g>
</g>
<!-- Node11 -->
<g id="Node000011" class="node">
<title>Node11</title>
<g id="a_Node000011"><a xlink:href="src_2util_2invariant_8h.html" target="_top" xlink:title=" ">
<polygon fill="white" stroke="#666666" points="641,-74 572,-74 572,-55 641,-55 641,-74"/>
<text text-anchor="middle" x="606.5" y="-62" font-family="Helvetica,sans-Serif" font-size="10.00">invariant.h</text>
</a>
</g>
</g>
<!-- Node8&#45;&gt;Node11 -->
<g id="edge10_Node000008_Node000011" class="edge">
<title>Node8&#45;&gt;Node11</title>
<g id="a_edge10_Node000008_Node000011"><a xlink:title=" ">
<path fill="none" stroke="#63b8ff" d="M837.41,-226.32C797.86,-211.81 713.65,-177.43 655.5,-129 639.68,-115.82 625.78,-96.68 616.87,-82.86"/>
<polygon fill="#63b8ff" stroke="#63b8ff" points="619.79,-80.93 611.53,-74.28 613.85,-84.62 619.79,-80.93"/>
</a>
</g>
</g>
<!-- Node15 -->
<g id="Node000015" class="node">
<title>Node15</title>
<g id="a_Node000015"><a xlink:href="irep__ids_8h.html" target="_top" xlink:title="util">
<polygon fill="white" stroke="#666666" points="1102.5,-184 1038.5,-184 1038.5,-165 1102.5,-165 1102.5,-184"/>
<text text-anchor="middle" x="1070.5" y="-172" font-family="Helvetica,sans-Serif" font-size="10.00">irep_ids.h</text>
</a>
</g>
</g>
<!-- Node8&#45;&gt;Node15 -->
<g id="edge15_Node000008_Node000015" class="edge">
<title>Node8&#45;&gt;Node15</title>
<g id="a_edge15_Node000008_Node000015"><a xlink:title=" ">
<path fill="none" stroke="#63b8ff" d="M880.29,-225.42C885.23,-223.52 890.52,-221.6 895.5,-220 940.2,-205.68 992.47,-192.89 1028.17,-184.74"/>
<polygon fill="#63b8ff" stroke="#63b8ff" points="1029.25,-188.08 1038.23,-182.46 1027.71,-181.25 1029.25,-188.08"/>
</a>
</g>
</g>
<!-- Node26 -->
<g id="Node000026" class="node">
<title>Node26</title>
<g id="a_Node000026"><a xlink:href="forward__list__as__map_8h.html" target="_top" xlink:title=" ">
<polygon fill="white" stroke="#666666" points="923,-184 796,-184 796,-165 923,-165 923,-184"/>
<text text-anchor="middle" x="859.5" y="-172" font-family="Helvetica,sans-Serif" font-size="10.00">forward_list_as_map.h</text>
</a>
</g>
</g>
<!-- Node8&#45;&gt;Node26 -->
<g id="edge20_Node000008_Node000026" class="edge">
<title>Node8&#45;&gt;Node26</title>
<g id="a_edge20_Node000008_Node000026"><a xlink:title=" ">
<path fill="none" stroke="#63b8ff" d="M859.5,-225.37C859.5,-217.25 859.5,-204.81 859.5,-194.39"/>
<polygon fill="#63b8ff" stroke="#63b8ff" points="863,-194.17 859.5,-184.17 856,-194.17 863,-194.17"/>
</a>
</g>
</g>
<!-- Node11&#45;&gt;Node9 -->
<g id="edge13_Node000011_Node000009" class="edge">
<title>Node11&#45;&gt;Node9</title>
<g id="a_edge13_Node000011_Node000009"><a xlink:title=" ">
<path fill="none" stroke="#63b8ff" d="M641.24,-57.05C646.02,-56.29 650.87,-55.58 655.5,-55 864.97,-28.91 1118.74,-15.87 1207.22,-11.87"/>
<polygon fill="#63b8ff" stroke="#63b8ff" points="1207.58,-15.36 1217.41,-11.42 1207.27,-8.37 1207.58,-15.36"/>
</a>
</g>
</g>
<!-- Node12 -->
<g id="Node000012" class="node">
<title>Node12</title>
<g id="a_Node000012"><a xlink:title=" ">
<polygon fill="#e0e0e0" stroke="#999999" points="631,-19 582,-19 582,0 631,0 631,-19"/>
<text text-anchor="middle" x="606.5" y="-7" font-family="Helvetica,sans-Serif" font-size="10.00">cstdlib</text>
</a>
</g>
</g>
<!-- Node11&#45;&gt;Node12 -->
<g id="edge11_Node000011_Node000012" class="edge">
<title>Node11&#45;&gt;Node12</title>
<g id="a_edge11_Node000011_Node000012"><a xlink:title=" ">
<path fill="none" stroke="#63b8ff" d="M606.5,-54.75C606.5,-47.8 606.5,-37.85 606.5,-29.13"/>
<polygon fill="#63b8ff" stroke="#63b8ff" points="610,-29.09 606.5,-19.09 603,-29.09 610,-29.09"/>
</a>
</g>
</g>
<!-- Node13 -->
<g id="Node000013" class="node">
<title>Node13</title>
<g id="a_Node000013"><a xlink:title=" ">
<polygon fill="#e0e0e0" stroke="#999999" points="403.5,-19 347.5,-19 347.5,0 403.5,0 403.5,-19"/>
<text text-anchor="middle" x="375.5" y="-7" font-family="Helvetica,sans-Serif" font-size="10.00">sstream</text>
</a>
</g>
</g>
<!-- Node11&#45;&gt;Node13 -->
<g id="edge12_Node000011_Node000013" class="edge">
<title>Node11&#45;&gt;Node13</title>
<g id="a_edge12_Node000011_Node000013"><a xlink:title=" ">
<path fill="none" stroke="#63b8ff" d="M571.92,-55.57C529.41,-45.81 457.53,-29.32 413.52,-19.22"/>
<polygon fill="#63b8ff" stroke="#63b8ff" points="414.29,-15.81 403.76,-16.98 412.73,-22.63 414.29,-15.81"/>
</a>
</g>
</g>
<!-- Node14 -->
<g id="Node000014" class="node">
<title>Node14</title>
<g id="a_Node000014"><a xlink:title=" ">
<polygon fill="#e0e0e0" stroke="#999999" points="742,-19 673,-19 673,0 742,0 742,-19"/>
<text text-anchor="middle" x="707.5" y="-7" font-family="Helvetica,sans-Serif" font-size="10.00">type_traits</text>
</a>
</g>
</g>
<!-- Node11&#45;&gt;Node14 -->
<g id="edge14_Node000011_Node000014" class="edge">
<title>Node11&#45;&gt;Node14</title>
<g id="a_edge14_Node000011_Node000014"><a xlink:title=" ">
<path fill="none" stroke="#63b8ff" d="M622.73,-54.98C638.68,-46.61 663.28,-33.7 681.88,-23.95"/>
<polygon fill="#63b8ff" stroke="#63b8ff" points="683.75,-26.92 690.98,-19.17 680.5,-20.72 683.75,-26.92"/>
</a>
</g>
</g>
<!-- Node16 -->
<g id="Node000016" class="node">
<title>Node16</title>
<g id="a_Node000016"><a xlink:href="dstring_8h.html" target="_top" xlink:title="Container for C&#45;Strings.">
<polygon fill="#fff0f0" stroke="red" points="1100,-129 1041,-129 1041,-110 1100,-110 1100,-129"/>
<text text-anchor="middle" x="1070.5" y="-117" font-family="Helvetica,sans-Serif" font-size="10.00">dstring.h</text>
</a>
</g>
</g>
<!-- Node15&#45;&gt;Node16 -->
<g id="edge16_Node000015_Node000016" class="edge">
<title>Node15&#45;&gt;Node16</title>
<g id="a_edge16_Node000015_Node000016"><a xlink:title=" ">
<path fill="none" stroke="#63b8ff" d="M1070.5,-164.75C1070.5,-157.8 1070.5,-147.85 1070.5,-139.13"/>
<polygon fill="#63b8ff" stroke="#63b8ff" points="1074,-139.09 1070.5,-129.09 1067,-139.09 1074,-139.09"/>
</a>
</g>
</g>
<!-- Node25 -->
<g id="Node000025" class="node">
<title>Node25</title>
<g id="a_Node000025"><a xlink:title=" ">
<polygon fill="#e0e0e0" stroke="#999999" points="1192.5,-129 1118.5,-129 1118.5,-110 1192.5,-110 1192.5,-129"/>
<text text-anchor="middle" x="1155.5" y="-117" font-family="Helvetica,sans-Serif" font-size="10.00">irep_ids.def</text>
</a>
</g>
</g>
<!-- Node15&#45;&gt;Node25 -->
<g id="edge19_Node000015_Node000025" class="edge">
<title>Node15&#45;&gt;Node25</title>
<g id="a_edge19_Node000015_Node000025"><a xlink:title=" ">
<path fill="none" stroke="#63b8ff" d="M1084.16,-164.98C1097.34,-156.77 1117.53,-144.18 1133.07,-134.49"/>
<polygon fill="#63b8ff" stroke="#63b8ff" points="1134.96,-137.43 1141.59,-129.17 1131.26,-131.49 1134.96,-137.43"/>
</a>
</g>
</g>
<!-- Node16&#45;&gt;Node9 -->
<g id="edge18_Node000016_Node000009" class="edge">
<title>Node16&#45;&gt;Node9</title>
<g id="a_edge18_Node000016_Node000009"><a xlink:title=" ">
<path fill="none" stroke="#63b8ff" d="M1084.04,-109.84C1113.09,-91.28 1181.62,-47.49 1217.2,-24.75"/>
<polygon fill="#63b8ff" stroke="#63b8ff" points="1219.35,-27.53 1225.89,-19.2 1215.58,-21.63 1219.35,-27.53"/>
</a>
</g>
</g>
<!-- Node17 -->
<g id="Node000017" class="node">
<title>Node17</title>
<g id="a_Node000017"><a xlink:title=" ">
<polygon fill="#e0e0e0" stroke="#999999" points="408.5,-74 360.5,-74 360.5,-55 408.5,-55 408.5,-74"/>
<text text-anchor="middle" x="384.5" y="-62" font-family="Helvetica,sans-Serif" font-size="10.00">iosfwd</text>
</a>
</g>
</g>
<!-- Node16&#45;&gt;Node17 -->
<g id="edge17_Node000016_Node000017" class="edge">
<title>Node16&#45;&gt;Node17</title>
<g id="a_edge17_Node000016_Node000017"><a xlink:title=" ">
<path fill="none" stroke="#63b8ff" d="M1040.77,-111.55C1037.65,-110.96 1034.52,-110.43 1031.5,-110 911.39,-92.87 534.94,-73.04 418.9,-67.2"/>
<polygon fill="#63b8ff" stroke="#63b8ff" points="418.98,-63.7 408.81,-66.7 418.62,-70.69 418.98,-63.7"/>
</a>
</g>
</g>
<!-- Node26&#45;&gt;Node4 -->
<g id="edge23_Node000026_Node000004" class="edge">
<title>Node26&#45;&gt;Node4</title>
<g id="a_edge23_Node000026_Node000004"><a xlink:title=" ">
<path fill="none" stroke="#63b8ff" d="M852.07,-164.75C845.65,-157.18 836.19,-146.05 828.38,-136.84"/>
<polygon fill="#63b8ff" stroke="#63b8ff" points="830.93,-134.45 821.79,-129.09 825.6,-138.98 830.93,-134.45"/>
</a>
</g>
</g>
<!-- Node27 -->
<g id="Node000027" class="node">
<title>Node27</title>
<g id="a_Node000027"><a xlink:title=" ">
<polygon fill="#e0e0e0" stroke="#999999" points="930.5,-129 866.5,-129 866.5,-110 930.5,-110 930.5,-129"/>
<text text-anchor="middle" x="898.5" y="-117" font-family="Helvetica,sans-Serif" font-size="10.00">algorithm</text>
</a>
</g>
</g>
<!-- Node26&#45;&gt;Node27 -->
<g id="edge21_Node000026_Node000027" class="edge">
<title>Node26&#45;&gt;Node27</title>
<g id="a_edge21_Node000026_Node000027"><a xlink:title=" ">
<path fill="none" stroke="#63b8ff" d="M865.94,-164.75C871.39,-157.34 879.36,-146.5 886.06,-137.41"/>
<polygon fill="#63b8ff" stroke="#63b8ff" points="889.07,-139.22 892.18,-129.09 883.43,-135.07 889.07,-139.22"/>
</a>
</g>
</g>
<!-- Node28 -->
<g id="Node000028" class="node">
<title>Node28</title>
<g id="a_Node000028"><a xlink:title=" ">
<polygon fill="#e0e0e0" stroke="#999999" points="1022.5,-129 948.5,-129 948.5,-110 1022.5,-110 1022.5,-129"/>
<text text-anchor="middle" x="985.5" y="-117" font-family="Helvetica,sans-Serif" font-size="10.00">forward_list</text>
</a>
</g>
</g>
<!-- Node26&#45;&gt;Node28 -->
<g id="edge22_Node000026_Node000028" class="edge">
<title>Node26&#45;&gt;Node28</title>
<g id="a_edge22_Node000026_Node000028"><a xlink:title=" ">
<path fill="none" stroke="#63b8ff" d="M879.74,-164.98C900.2,-156.38 932.03,-142.99 955.43,-133.15"/>
<polygon fill="#63b8ff" stroke="#63b8ff" points="957.03,-136.27 964.89,-129.17 954.31,-129.82 957.03,-136.27"/>
</a>
</g>
</g>
<!-- Node29 -->
<g id="Node000029" class="node">
<title>Node29</title>
<g id="a_Node000029"><a xlink:href="narrow_8h.html" target="_top" xlink:title=" ">
<polygon fill="white" stroke="#666666" points="724,-129 665,-129 665,-110 724,-110 724,-129"/>
<text text-anchor="middle" x="694.5" y="-117" font-family="Helvetica,sans-Serif" font-size="10.00">narrow.h</text>
</a>
</g>
</g>
<!-- Node26&#45;&gt;Node29 -->
<g id="edge24_Node000026_Node000029" class="edge">
<title>Node26&#45;&gt;Node29</title>
<g id="a_edge24_Node000026_Node000029"><a xlink:title=" ">
<path fill="none" stroke="#63b8ff" d="M832.99,-164.98C805.29,-156.09 761.64,-142.07 730.76,-132.15"/>
<polygon fill="#63b8ff" stroke="#63b8ff" points="731.81,-128.81 721.22,-129.08 729.67,-135.47 731.81,-128.81"/>
</a>
</g>
</g>
<!-- Node29&#45;&gt;Node11 -->
<g id="edge26_Node000029_Node000011" class="edge">
<title>Node29&#45;&gt;Node11</title>
<g id="a_edge26_Node000029_Node000011"><a xlink:title=" ">
<path fill="none" stroke="#63b8ff" d="M680.36,-109.98C666.71,-101.77 645.81,-89.18 629.72,-79.49"/>
<polygon fill="#63b8ff" stroke="#63b8ff" points="631.27,-76.33 620.9,-74.17 627.66,-82.33 631.27,-76.33"/>
</a>
</g>
</g>
<!-- Node29&#45;&gt;Node14 -->
<g id="edge25_Node000029_Node000014" class="edge">
<title>Node29&#45;&gt;Node14</title>
<g id="a_edge25_Node000029_Node000014"><a xlink:title=" ">
<path fill="none" stroke="#63b8ff" d="M695.56,-109.66C697.67,-92.17 702.41,-52.8 705.24,-29.27"/>
<polygon fill="#63b8ff" stroke="#63b8ff" points="708.74,-29.51 706.46,-19.16 701.79,-28.67 708.74,-29.51"/>
</a>
</g>
</g>
<!-- Node31&#45;&gt;Node14 -->
<g id="edge30_Node000031_Node000014" class="edge">
<title>Node31&#45;&gt;Node14</title>
<g id="a_edge30_Node000031_Node000014"><a xlink:title=" ">
<path fill="none" stroke="#63b8ff" d="M942.68,-395.81C894.44,-368.79 752.5,-285.09 752.5,-236 752.5,-236 752.5,-236 752.5,-118.5 752.5,-84.31 733.04,-48.38 719.72,-27.79"/>
<polygon fill="#63b8ff" stroke="#63b8ff" points="722.44,-25.57 713.95,-19.23 716.63,-29.48 722.44,-25.57"/>
</a>
</g>
</g>
<!-- Node32 -->
<g id="Node000032" class="node">
<title>Node32</title>
<g id="a_Node000032"><a xlink:href="exception__utils_8h.html" target="_top" xlink:title=" ">
<polygon fill="white" stroke="#666666" points="999.5,-360 899.5,-360 899.5,-341 999.5,-341 999.5,-360"/>
<text text-anchor="middle" x="949.5" y="-348" font-family="Helvetica,sans-Serif" font-size="10.00">exception_utils.h</text>
</a>
</g>
</g>
<!-- Node31&#45;&gt;Node32 -->
<g id="edge31_Node000031_Node000032" class="edge">
<title>Node31&#45;&gt;Node32</title>
<g id="a_edge31_Node000031_Node000032"><a xlink:title=" ">
<path fill="none" stroke="#63b8ff" d="M957.01,-395.75C955.83,-388.8 954.14,-378.85 952.66,-370.13"/>
<polygon fill="#63b8ff" stroke="#63b8ff" points="956.08,-369.36 950.96,-360.09 949.18,-370.53 956.08,-369.36"/>
</a>
</g>
</g>
<!-- Node31&#45;&gt;Node33 -->
<g id="edge35_Node000031_Node000033" class="edge">
<title>Node31&#45;&gt;Node33</title>
<g id="a_edge35_Node000031_Node000033"><a xlink:title=" ">
<path fill="none" stroke="#63b8ff" d="M931.35,-395.98C902.97,-387.09 858.27,-373.07 826.64,-363.15"/>
<polygon fill="#63b8ff" stroke="#63b8ff" points="827.45,-359.73 816.87,-360.08 825.36,-366.41 827.45,-359.73"/>
</a>
</g>
</g>
<!-- Node32&#45;&gt;Node6 -->
<g id="edge34_Node000032_Node000006" class="edge">
<title>Node32&#45;&gt;Node6</title>
<g id="a_edge34_Node000032_Node000006"><a xlink:title=" ">
<path fill="none" stroke="#63b8ff" d="M959.62,-340.98C968.94,-333.15 982.97,-321.34 994.24,-311.86"/>
<polygon fill="#63b8ff" stroke="#63b8ff" points="996.79,-314.29 1002.19,-305.17 992.29,-308.93 996.79,-314.29"/>
</a>
</g>
</g>
<!-- Node32&#45;&gt;Node9 -->
<g id="edge32_Node000032_Node000009" class="edge">
<title>Node32&#45;&gt;Node9</title>
<g id="a_edge32_Node000032_Node000009"><a xlink:title=" ">
<path fill="none" stroke="#63b8ff" d="M999.68,-346.62C1111.73,-338.8 1372.5,-312.42 1372.5,-236 1372.5,-236 1372.5,-236 1372.5,-118.5 1372.5,-66.54 1310.57,-35.2 1271.22,-20.54"/>
<polygon fill="#63b8ff" stroke="#63b8ff" points="1272.36,-17.23 1261.76,-17.17 1270.01,-23.82 1272.36,-17.23"/>
</a>
</g>
</g>
<!-- Node32&#45;&gt;Node11 -->
<g id="edge33_Node000032_Node000011" class="edge">
<title>Node32&#45;&gt;Node11</title>
<g id="a_edge33_Node000032_Node000011"><a xlink:title=" ">
<path fill="none" stroke="#63b8ff" d="M929.81,-340.86C875.13,-315.94 719.77,-238.6 633.5,-129 622.86,-115.48 615.66,-97.15 611.39,-83.65"/>
<polygon fill="#63b8ff" stroke="#63b8ff" points="614.75,-82.67 608.58,-74.06 608.03,-84.64 614.75,-82.67"/>
</a>
</g>
</g>
<!-- Node37&#45;&gt;Node2 -->
<g id="edge43_Node000037_Node000002" class="edge">
<title>Node37&#45;&gt;Node2</title>
<g id="a_edge43_Node000037_Node000002"><a xlink:title=" ">
<path fill="none" stroke="#63b8ff" d="M350.36,-565.01C292.62,-555.8 206.12,-541.15 131.5,-525 130.23,-524.73 128.94,-524.44 127.63,-524.13"/>
<polygon fill="#63b8ff" stroke="#63b8ff" points="128.18,-520.67 117.63,-521.7 126.52,-527.47 128.18,-520.67"/>
</a>
</g>
</g>
<!-- Node37&#45;&gt;Node3 -->
<g id="edge45_Node000037_Node000003" class="edge">
<title>Node37&#45;&gt;Node3</title>
<g id="a_edge45_Node000037_Node000003"><a xlink:title=" ">
<path fill="none" stroke="#63b8ff" d="M480.62,-564.68C555.88,-552.74 677.58,-533.45 741.75,-523.28"/>
<polygon fill="#63b8ff" stroke="#63b8ff" points="742.59,-526.69 751.92,-521.67 741.49,-519.77 742.59,-526.69"/>
</a>
</g>
</g>
<!-- Node37&#45;&gt;Node9 -->
<g id="edge44_Node000037_Node000009" class="edge">
<title>Node37&#45;&gt;Node9</title>
<g id="a_edge44_Node000037_Node000009"><a xlink:title=" ">
<path fill="none" stroke="#63b8ff" d="M480.73,-567.97C545.01,-560.01 637.77,-545.44 667.5,-525 694.99,-506.1 707.5,-494.85 707.5,-461.5 707.5,-461.5 707.5,-461.5 707.5,-404.5 707.5,-375.04 707.16,-363.22 726.5,-341 790.36,-267.65 841.6,-299.19 925.5,-250 944.98,-238.58 945.65,-228.66 966.5,-220 1061.64,-180.47 1104.81,-232.89 1195.5,-184 1245.09,-157.26 1251.98,-129.96 1258.5,-74 1259.48,-65.61 1260.19,-63.27 1258.5,-55 1256.61,-45.74 1252.71,-36.03 1248.93,-28.04"/>
<polygon fill="#63b8ff" stroke="#63b8ff" points="1252.01,-26.37 1244.38,-19.02 1245.76,-29.53 1252.01,-26.37"/>
</a>
</g>
</g>
<!-- Node38 -->
<g id="Node000038" class="node">
<title>Node38</title>
<g id="a_Node000038"><a xlink:href="src_2util_2message_8h.html" target="_top" xlink:title=" ">
<polygon fill="white" stroke="#666666" points="463,-360 374,-360 374,-341 463,-341 463,-360"/>
<text text-anchor="middle" x="418.5" y="-348" font-family="Helvetica,sans-Serif" font-size="10.00">util/message.h</text>
</a>
</g>
</g>
<!-- Node37&#45;&gt;Node38 -->
<g id="edge46_Node000037_Node000038" class="edge">
<title>Node37&#45;&gt;Node38</title>
<g id="a_edge46_Node000037_Node000038"><a xlink:title=" ">
<path fill="none" stroke="#63b8ff" d="M376.43,-560.89C360.45,-552.96 343.6,-541.31 334.5,-525 330.39,-517.63 332.42,-514.18 334.5,-506 348.36,-451.5 385.75,-395.45 405.65,-368.29"/>
<polygon fill="#63b8ff" stroke="#63b8ff" points="408.49,-370.34 411.66,-360.23 402.88,-366.15 408.49,-370.34"/>
</a>
</g>
</g>
<!-- Node39 -->
<g id="Node000039" class="node">
<title>Node39</title>
<g id="a_Node000039"><a xlink:href="conflict__provider_8h.html" target="_top" xlink:title="Capability to check whether an expression is a reason for the solver returning UNSAT.">
<polygon fill="white" stroke="#666666" points="487.5,-525 343.5,-525 343.5,-506 487.5,-506 487.5,-525"/>
<text text-anchor="middle" x="415.5" y="-513" font-family="Helvetica,sans-Serif" font-size="10.00">solvers/conflict_provider.h</text>
</a>
</g>
</g>
<!-- Node37&#45;&gt;Node39 -->
<g id="edge53_Node000037_Node000039" class="edge">
<title>Node37&#45;&gt;Node39</title>
<g id="a_edge53_Node000037_Node000039"><a xlink:title=" ">
<path fill="none" stroke="#63b8ff" d="M415.5,-560.84C415.5,-553.21 415.5,-543.7 415.5,-535.45"/>
<polygon fill="#63b8ff" stroke="#63b8ff" points="419,-535.27 415.5,-525.27 412,-535.27 419,-535.27"/>
</a>
</g>
</g>
<!-- Node40 -->
<g id="Node000040" class="node">
<title>Node40</title>
<g id="a_Node000040"><a xlink:href="hardness__collector_8h.html" target="_top" xlink:title="Capability to collect the statistics of the complexity of individual solver queries.">
<polygon fill="white" stroke="#666666" points="155,-305 0,-305 0,-286 155,-286 155,-305"/>
<text text-anchor="middle" x="77.5" y="-293" font-family="Helvetica,sans-Serif" font-size="10.00">solvers/hardness_collector.h</text>
</a>
</g>
</g>
<!-- Node37&#45;&gt;Node40 -->
<g id="edge54_Node000037_Node000040" class="edge">
<title>Node37&#45;&gt;Node40</title>
<g id="a_edge54_Node000037_Node000040"><a xlink:title=" ">
<path fill="none" stroke="#63b8ff" d="M350.48,-561.22C270.59,-542.38 145.5,-505.8 145.5,-461.5 145.5,-461.5 145.5,-461.5 145.5,-404.5 145.5,-366.75 115.38,-331.41 95.23,-311.99"/>
<polygon fill="#63b8ff" stroke="#63b8ff" points="97.54,-309.36 87.83,-305.13 92.78,-314.5 97.54,-309.36"/>
</a>
</g>
</g>
<!-- Node43 -->
<g id="Node000043" class="node">
<title>Node43</title>
<g id="a_Node000043"><a xlink:href="prop_8h.html" target="_top" xlink:title=" ">
<polygon fill="white" stroke="#666666" points="287,-415 240,-415 240,-396 287,-396 287,-415"/>
<text text-anchor="middle" x="263.5" y="-403" font-family="Helvetica,sans-Serif" font-size="10.00">prop.h</text>
</a>
</g>
</g>
<!-- Node37&#45;&gt;Node43 -->
<g id="edge60_Node000037_Node000043" class="edge">
<title>Node37&#45;&gt;Node43</title>
<g id="a_edge60_Node000037_Node000043"><a xlink:title=" ">
<path fill="none" stroke="#63b8ff" d="M359.17,-560.92C338.61,-553.29 316.7,-541.85 301.5,-525 275.9,-496.62 267.54,-450.87 264.81,-425.32"/>
<polygon fill="#63b8ff" stroke="#63b8ff" points="268.28,-424.78 263.91,-415.13 261.3,-425.4 268.28,-424.78"/>
</a>
</g>
</g>
<!-- Node46 -->
<g id="Node000046" class="node">
<title>Node46</title>
<g id="a_Node000046"><a xlink:href="prop__conv_8h.html" target="_top" xlink:title=" ">
<polygon fill="white" stroke="#666666" points="603,-470 528,-470 528,-451 603,-451 603,-470"/>
<text text-anchor="middle" x="565.5" y="-458" font-family="Helvetica,sans-Serif" font-size="10.00">prop_conv.h</text>
</a>
</g>
</g>
<!-- Node37&#45;&gt;Node46 -->
<g id="edge66_Node000037_Node000046" class="edge">
<title>Node37&#45;&gt;Node46</title>
<g id="a_edge66_Node000037_Node000046"><a xlink:title=" ">
<path fill="none" stroke="#63b8ff" d="M480.71,-570.15C542.68,-564.02 629.47,-550.98 650.5,-525 668.23,-503.1 634.43,-484.71 604.35,-473.44"/>
<polygon fill="#63b8ff" stroke="#63b8ff" points="605.38,-470.09 594.78,-470.04 603.03,-476.69 605.38,-470.09"/>
</a>
</g>
</g>
<!-- Node49 -->
<g id="Node000049" class="node">
<title>Node49</title>
<g id="a_Node000049"><a xlink:href="solver__resource__limits_8h.html" target="_top" xlink:title="Solver capability to set resource limits.">
<polygon fill="white" stroke="#666666" points="641.5,-525 505.5,-525 505.5,-506 641.5,-506 641.5,-525"/>
<text text-anchor="middle" x="573.5" y="-513" font-family="Helvetica,sans-Serif" font-size="10.00">solver_resource_limits.h</text>
</a>
</g>
</g>
<!-- Node37&#45;&gt;Node49 -->
<g id="edge72_Node000037_Node000049" class="edge">
<title>Node37&#45;&gt;Node49</title>
<g id="a_edge72_Node000037_Node000049"><a xlink:title=" ">
<path fill="none" stroke="#63b8ff" d="M453.34,-560.99C479.94,-551.14 515.17,-538.1 540.6,-528.68"/>
<polygon fill="#63b8ff" stroke="#63b8ff" points="542,-531.89 550.17,-525.14 539.57,-525.33 542,-531.89"/>
</a>
</g>
</g>
<!-- Node38&#45;&gt;Node6 -->
<g id="edge48_Node000038_Node000006" class="edge">
<title>Node38&#45;&gt;Node6</title>
<g id="a_edge48_Node000038_Node000006"><a xlink:title=" ">
<path fill="none" stroke="#63b8ff" d="M463.15,-345.52C568.28,-336.14 831.55,-312.64 951.39,-301.95"/>
<polygon fill="#63b8ff" stroke="#63b8ff" points="951.84,-305.43 961.49,-301.05 951.22,-298.45 951.84,-305.43"/>
</a>
</g>
</g>
<!-- Node38&#45;&gt;Node9 -->
<g id="edge52_Node000038_Node000009" class="edge">
<title>Node38&#45;&gt;Node9</title>
<g id="a_edge52_Node000038_Node000009"><a xlink:title=" ">
<path fill="none" stroke="#63b8ff" d="M425.32,-340.6C436.92,-326.22 462.02,-298.25 490.5,-286 654.47,-215.46 722.79,-311.12 890.5,-250 912.39,-242.02 911.87,-228.67 933.5,-220 1030.76,-181.01 1073.05,-231.39 1166.5,-184 1219.95,-156.89 1232.71,-132.76 1244.5,-74 1247.5,-59.07 1245.82,-41.84 1243.64,-29.09"/>
<polygon fill="#63b8ff" stroke="#63b8ff" points="1247.06,-28.35 1241.69,-19.22 1240.19,-29.71 1247.06,-28.35"/>
</a>
</g>
</g>
<!-- Node38&#45;&gt;Node11 -->
<g id="edge47_Node000038_Node000011" class="edge">
<title>Node38&#45;&gt;Node11</title>
<g id="a_edge47_Node000038_Node000011"><a xlink:title=" ">
<path fill="none" stroke="#63b8ff" d="M418.75,-340.88C420.03,-300.12 426.3,-127.99 441.5,-110 456.92,-91.75 518.27,-78.85 561.64,-71.79"/>
<polygon fill="#63b8ff" stroke="#63b8ff" points="562.35,-75.22 571.69,-70.2 561.26,-68.3 562.35,-75.22"/>
</a>
</g>
</g>
<!-- Node38&#45;&gt;Node13 -->
<g id="edge51_Node000038_Node000013" class="edge">
<title>Node38&#45;&gt;Node13</title>
<g id="a_edge51_Node000038_Node000013"><a xlink:title=" ">
<path fill="none" stroke="#63b8ff" d="M373.8,-343.7C315.67,-333.38 221.5,-305.86 221.5,-236 221.5,-236 221.5,-236 221.5,-118.5 221.5,-62.03 291.77,-32.57 337.37,-19.4"/>
<polygon fill="#63b8ff" stroke="#63b8ff" points="338.54,-22.71 347.25,-16.68 336.68,-15.96 338.54,-22.71"/>
</a>
</g>
</g>
<!-- Node38&#45;&gt;Node17 -->
<g id="edge50_Node000038_Node000017" class="edge">
<title>Node38&#45;&gt;Node17</title>
<g id="a_edge50_Node000038_Node000017"><a xlink:title=" ">
<path fill="none" stroke="#63b8ff" d="M417.45,-340.69C412.72,-301.18 393.4,-139.86 386.76,-84.36"/>
<polygon fill="#63b8ff" stroke="#63b8ff" points="390.21,-83.72 385.54,-74.21 383.26,-84.55 390.21,-83.72"/>
</a>
</g>
</g>
<!-- Node38&#45;&gt;Node36 -->
<g id="edge49_Node000038_Node000036" class="edge">
<title>Node38&#45;&gt;Node36</title>
<g id="a_edge49_Node000038_Node000036"><a xlink:title=" ">
<path fill="none" stroke="#63b8ff" d="M436.82,-340.98C455.16,-332.46 483.61,-319.23 504.73,-309.41"/>
<polygon fill="#63b8ff" stroke="#63b8ff" points="506.26,-312.56 513.85,-305.17 503.31,-306.21 506.26,-312.56"/>
</a>
</g>
</g>
<!-- Node41 -->
<g id="Node000041" class="node">
<title>Node41</title>
<g id="a_Node000041"><a xlink:href="literal_8h.html" target="_top" xlink:title=" ">
<polygon fill="white" stroke="#666666" points="367,-244.5 250,-244.5 250,-225.5 367,-225.5 367,-244.5"/>
<text text-anchor="middle" x="308.5" y="-232.5" font-family="Helvetica,sans-Serif" font-size="10.00">solvers/prop/literal.h</text>
</a>
</g>
</g>
<!-- Node40&#45;&gt;Node41 -->
<g id="edge55_Node000040_Node000041" class="edge">
<title>Node40&#45;&gt;Node41</title>
<g id="a_edge55_Node000040_Node000041"><a xlink:title=" ">
<path fill="none" stroke="#63b8ff" d="M111.09,-285.99C151.81,-275.68 220.5,-258.28 265.17,-246.97"/>
<polygon fill="#63b8ff" stroke="#63b8ff" points="266.04,-250.36 274.87,-244.52 264.32,-243.58 266.04,-250.36"/>
</a>
</g>
</g>
<!-- Node42 -->
<g id="Node000042" class="node">
<title>Node42</title>
<g id="a_Node000042"><a xlink:title=" ">
<polygon fill="#e0e0e0" stroke="#999999" points="106.5,-244.5 48.5,-244.5 48.5,-225.5 106.5,-225.5 106.5,-244.5"/>
<text text-anchor="middle" x="77.5" y="-232.5" font-family="Helvetica,sans-Serif" font-size="10.00">memory</text>
</a>
</g>
</g>
<!-- Node40&#45;&gt;Node42 -->
<g id="edge59_Node000040_Node000042" class="edge">
<title>Node40&#45;&gt;Node42</title>
<g id="a_edge59_Node000040_Node000042"><a xlink:title=" ">
<path fill="none" stroke="#63b8ff" d="M77.5,-285.87C77.5,-277.75 77.5,-265.31 77.5,-254.89"/>
<polygon fill="#63b8ff" stroke="#63b8ff" points="81,-254.67 77.5,-244.67 74,-254.67 81,-254.67"/>
</a>
</g>
</g>
<!-- Node41&#45;&gt;Node10 -->
<g id="edge58_Node000041_Node000010" class="edge">
<title>Node41&#45;&gt;Node10</title>
<g id="a_edge58_Node000041_Node000010"><a xlink:title=" ">
<path fill="none" stroke="#63b8ff" d="M345.43,-225.49C394.78,-214.13 481.52,-194.15 529.04,-183.21"/>
<polygon fill="#63b8ff" stroke="#63b8ff" points="529.88,-186.61 538.84,-180.95 528.31,-179.78 529.88,-186.61"/>
</a>
</g>
</g>
<!-- Node41&#45;&gt;Node17 -->
<g id="edge56_Node000041_Node000017" class="edge">
<title>Node41&#45;&gt;Node17</title>
<g id="a_edge56_Node000041_Node000017"><a xlink:title=" ">
<path fill="none" stroke="#63b8ff" d="M312.37,-225.41C324.21,-199.17 360.09,-119.61 376.35,-83.58"/>
<polygon fill="#63b8ff" stroke="#63b8ff" points="379.62,-84.83 380.54,-74.27 373.24,-81.95 379.62,-84.83"/>
</a>
</g>
</g>
<!-- Node41&#45;&gt;Node29 -->
<g id="edge57_Node000041_Node000029" class="edge">
<title>Node41&#45;&gt;Node29</title>
<g id="a_edge57_Node000041_Node000029"><a xlink:title=" ">
<path fill="none" stroke="#63b8ff" d="M334.59,-225.49C375.84,-212.12 458.68,-185.6 529.5,-165 572.23,-152.57 621.53,-139.43 655.03,-130.68"/>
<polygon fill="#63b8ff" stroke="#63b8ff" points="656.1,-134.02 664.89,-128.11 654.34,-127.24 656.1,-134.02"/>
</a>
</g>
</g>
<!-- Node43&#45;&gt;Node38 -->
<g id="edge61_Node000043_Node000038" class="edge">
<title>Node43&#45;&gt;Node38</title>
<g id="a_edge61_Node000043_Node000038"><a xlink:title=" ">
<path fill="none" stroke="#63b8ff" d="M287.04,-396.45C312.83,-387.63 354.46,-373.4 383.95,-363.31"/>
<polygon fill="#63b8ff" stroke="#63b8ff" points="385.12,-366.61 393.45,-360.07 382.86,-359.99 385.12,-366.61"/>
</a>
</g>
</g>
<!-- Node43&#45;&gt;Node41 -->
<g id="edge64_Node000043_Node000041" class="edge">
<title>Node43&#45;&gt;Node41</title>
<g id="a_edge64_Node000043_Node000041"><a xlink:title=" ">
<path fill="none" stroke="#63b8ff" d="M265.79,-395.91C272.77,-369.78 293.87,-290.79 303.55,-254.54"/>
<polygon fill="#63b8ff" stroke="#63b8ff" points="306.96,-255.34 306.16,-244.77 300.2,-253.53 306.96,-255.34"/>
</a>
</g>
</g>
<!-- Node44 -->
<g id="Node000044" class="node">
<title>Node44</title>
<g id="a_Node000044"><a xlink:href="threeval_8h.html" target="_top" xlink:title=" ">
<polygon fill="white" stroke="#666666" points="193,-184 108,-184 108,-165 193,-165 193,-184"/>
<text text-anchor="middle" x="150.5" y="-172" font-family="Helvetica,sans-Serif" font-size="10.00">util/threeval.h</text>
</a>
</g>
</g>
<!-- Node43&#45;&gt;Node44 -->
<g id="edge62_Node000043_Node000044" class="edge">
<title>Node43&#45;&gt;Node44</title>
<g id="a_edge62_Node000043_Node000044"><a xlink:title=" ">
<path fill="none" stroke="#63b8ff" d="M258.26,-395.87C247.99,-378.8 224.7,-339.4 207.5,-305 187.99,-265.97 168.11,-218.76 157.77,-193.51"/>
<polygon fill="#63b8ff" stroke="#63b8ff" points="160.96,-192.06 153.95,-184.12 154.48,-194.7 160.96,-192.06"/>
</a>
</g>
</g>
<!-- Node45 -->
<g id="Node000045" class="node">
<title>Node45</title>
<g id="a_Node000045"><a xlink:title=" ">
<polygon fill="#e0e0e0" stroke="#999999" points="341.5,-360 291.5,-360 291.5,-341 341.5,-341 341.5,-360"/>
<text text-anchor="middle" x="316.5" y="-348" font-family="Helvetica,sans-Serif" font-size="10.00">cstdint</text>
</a>
</g>
</g>
<!-- Node43&#45;&gt;Node45 -->
<g id="edge65_Node000043_Node000045" class="edge">
<title>Node43&#45;&gt;Node45</title>
<g id="a_edge65_Node000043_Node000045"><a xlink:title=" ">
<path fill="none" stroke="#63b8ff" d="M272.25,-395.75C279.97,-388.03 291.4,-376.6 300.72,-367.28"/>
<polygon fill="#63b8ff" stroke="#63b8ff" points="303.31,-369.64 307.91,-360.09 298.36,-364.69 303.31,-369.64"/>
</a>
</g>
</g>
<!-- Node44&#45;&gt;Node17 -->
<g id="edge63_Node000044_Node000017" class="edge">
<title>Node44&#45;&gt;Node17</title>
<g id="a_edge63_Node000044_Node000017"><a xlink:title=" ">
<path fill="none" stroke="#63b8ff" d="M169.25,-164.84C210.35,-145.88 308.5,-100.58 356.75,-78.31"/>
<polygon fill="#63b8ff" stroke="#63b8ff" points="358.37,-81.42 365.98,-74.05 355.44,-75.06 358.37,-81.42"/>
</a>
</g>
</g>
<!-- Node47 -->
<g id="Node000047" class="node">
<title>Node47</title>
<g id="a_Node000047"><a xlink:href="stack__decision__procedure_8h.html" target="_top" xlink:title="Decision procedure with incremental solving with contexts and assumptions.">
<polygon fill="white" stroke="#666666" points="603,-250 476,-250 476,-220 603,-220 603,-250"/>
<text text-anchor="start" x="484" y="-238" font-family="Helvetica,sans-Serif" font-size="10.00">solvers/stack_decision</text>
<text text-anchor="middle" x="539.5" y="-227" font-family="Helvetica,sans-Serif" font-size="10.00">_procedure.h</text>
</a>
</g>
</g>
<!-- Node46&#45;&gt;Node47 -->
<g id="edge67_Node000046_Node000047" class="edge">
<title>Node46&#45;&gt;Node47</title>
<g id="a_edge67_Node000046_Node000047"><a xlink:title=" ">
<path fill="none" stroke="#63b8ff" d="M567.89,-450.94C574.65,-425.24 592.22,-346.81 573.5,-286 570.43,-276.02 564.61,-266.25 558.65,-258.03"/>
<polygon fill="#63b8ff" stroke="#63b8ff" points="561.38,-255.84 552.49,-250.08 555.85,-260.13 561.38,-255.84"/>
</a>
</g>
</g>
<!-- Node47&#45;&gt;Node10 -->
<g id="edge68_Node000047_Node000010" class="edge">
<title>Node47&#45;&gt;Node10</title>
<g id="a_edge68_Node000047_Node000010"><a xlink:title=" ">
<path fill="none" stroke="#63b8ff" d="M545.07,-219.84C548.17,-211.95 552.06,-202.05 555.38,-193.61"/>
<polygon fill="#63b8ff" stroke="#63b8ff" points="558.65,-194.85 559.05,-184.27 552.14,-192.29 558.65,-194.85"/>
</a>
</g>
</g>
<!-- Node48 -->
<g id="Node000048" class="node">
<title>Node48</title>
<g id="a_Node000048"><a xlink:href="decision__procedure_8h.html" target="_top" xlink:title="Decision Procedure Interface.">
<polygon fill="white" stroke="#666666" points="570.5,-129 450.5,-129 450.5,-110 570.5,-110 570.5,-129"/>
<text text-anchor="middle" x="510.5" y="-117" font-family="Helvetica,sans-Serif" font-size="10.00">decision_procedure.h</text>
</a>
</g>
</g>
<!-- Node47&#45;&gt;Node48 -->
<g id="edge69_Node000047_Node000048" class="edge">
<title>Node47&#45;&gt;Node48</title>
<g id="a_edge69_Node000047_Node000048"><a xlink:title=" ">
<path fill="none" stroke="#63b8ff" d="M535.83,-219.63C530.59,-199.12 520.97,-161.47 515.21,-138.93"/>
<polygon fill="#63b8ff" stroke="#63b8ff" points="518.6,-138.05 512.73,-129.23 511.81,-139.78 518.6,-138.05"/>
</a>
</g>
</g>
<!-- Node48&#45;&gt;Node9 -->
<g id="edge71_Node000048_Node000009" class="edge">
<title>Node48&#45;&gt;Node9</title>
<g id="a_edge71_Node000048_Node000009"><a xlink:title=" ">
<path fill="none" stroke="#63b8ff" d="M568.01,-109.98C713.76,-88.39 1094.1,-32.04 1207.28,-15.27"/>
<polygon fill="#63b8ff" stroke="#63b8ff" points="1208,-18.71 1217.38,-13.78 1206.97,-11.78 1208,-18.71"/>
</a>
</g>
</g>
<!-- Node48&#45;&gt;Node17 -->
<g id="edge70_Node000048_Node000017" class="edge">
<title>Node48&#45;&gt;Node17</title>
<g id="a_edge70_Node000048_Node000017"><a xlink:title=" ">
<path fill="none" stroke="#63b8ff" d="M490.26,-109.98C469.8,-101.38 437.97,-87.99 414.57,-78.15"/>
<polygon fill="#63b8ff" stroke="#63b8ff" points="415.69,-74.82 405.11,-74.17 412.97,-81.27 415.69,-74.82"/>
</a>
</g>
</g>
</g>
</svg>
