<?xml version="1.0" encoding="UTF-8" standalone="no"?>
<!DOCTYPE svg PUBLIC "-//W3C//DTD SVG 1.1//EN"
 "http://www.w3.org/Graphics/SVG/1.1/DTD/svg11.dtd">
<!-- Generated by graphviz version 2.43.0 (0)
 -->
<!-- Title: /home/runner/work/cbmc/cbmc/src/util/find_symbols.cpp Pages: 1 -->
<svg width="1466pt" height="533pt"
 viewBox="0.00 0.00 1466.36 533.00" xmlns="http://www.w3.org/2000/svg" xmlns:xlink="http://www.w3.org/1999/xlink">
<g id="graph0" class="graph" transform="scale(1 1) rotate(0) translate(4 529)">
<title>/home/runner/work/cbmc/cbmc/src/util/find_symbols.cpp</title>
<!-- Node1 -->
<g id="Node000001" class="node">
<title>Node1</title>
<g id="a_Node000001"><a xlink:title=" ">
<polygon fill="#999999" stroke="#666666" points="649.5,-525 479.5,-525 479.5,-495 649.5,-495 649.5,-525"/>
<text text-anchor="start" x="487.5" y="-513" font-family="Helvetica,sans-Serif" font-size="10.00">/home/runner/work/cbmc</text>
<text text-anchor="middle" x="564.5" y="-502" font-family="Helvetica,sans-Serif" font-size="10.00">/cbmc/src/util/find_symbols.cpp</text>
</a>
</g>
</g>
<!-- Node2 -->
<g id="Node000002" class="node">
<title>Node2</title>
<g id="a_Node000002"><a xlink:href="find__symbols_8h.html" target="_top" xlink:title=" ">
<polygon fill="white" stroke="#666666" points="1077.5,-459 987.5,-459 987.5,-440 1077.5,-440 1077.5,-459"/>
<text text-anchor="middle" x="1032.5" y="-447" font-family="Helvetica,sans-Serif" font-size="10.00">find_symbols.h</text>
</a>
</g>
</g>
<!-- Node1&#45;&gt;Node2 -->
<g id="edge1_Node000001_Node000002" class="edge">
<title>Node1&#45;&gt;Node2</title>
<g id="a_edge1_Node000001_Node000002"><a xlink:title=" ">
<path fill="none" stroke="#63b8ff" d="M649.52,-498.37C744.8,-486.46 896.48,-467.5 977.4,-457.39"/>
<polygon fill="#63b8ff" stroke="#63b8ff" points="977.9,-460.85 987.39,-456.14 977.03,-453.91 977.9,-460.85"/>
</a>
</g>
</g>
<!-- Node28 -->
<g id="Node000028" class="node">
<title>Node28</title>
<g id="a_Node000028"><a xlink:href="c__types_8h.html" target="_top" xlink:title=" ">
<polygon fill="white" stroke="#666666" points="596,-459 533,-459 533,-440 596,-440 596,-459"/>
<text text-anchor="middle" x="564.5" y="-447" font-family="Helvetica,sans-Serif" font-size="10.00">c_types.h</text>
</a>
</g>
</g>
<!-- Node1&#45;&gt;Node28 -->
<g id="edge35_Node000001_Node000028" class="edge">
<title>Node1&#45;&gt;Node28</title>
<g id="a_edge35_Node000001_Node000028"><a xlink:title=" ">
<path fill="none" stroke="#63b8ff" d="M564.5,-494.84C564.5,-487.21 564.5,-477.7 564.5,-469.45"/>
<polygon fill="#63b8ff" stroke="#63b8ff" points="568,-469.27 564.5,-459.27 561,-469.27 568,-469.27"/>
</a>
</g>
</g>
<!-- Node47 -->
<g id="Node000047" class="node">
<title>Node47</title>
<g id="a_Node000047"><a xlink:href="std__expr_8h.html" target="_top" xlink:title="API to expression classes.">
<polygon fill="white" stroke="#666666" points="514,-349 447,-349 447,-330 514,-330 514,-349"/>
<text text-anchor="middle" x="480.5" y="-337" font-family="Helvetica,sans-Serif" font-size="10.00">std_expr.h</text>
</a>
</g>
</g>
<!-- Node1&#45;&gt;Node47 -->
<g id="edge69_Node000001_Node000047" class="edge">
<title>Node1&#45;&gt;Node47</title>
<g id="a_edge69_Node000001_Node000047"><a xlink:title=" ">
<path fill="none" stroke="#63b8ff" d="M545.03,-494.93C521.92,-476.9 484.61,-443.23 469.5,-404 463.91,-389.48 467.64,-372 472.21,-359.06"/>
<polygon fill="#63b8ff" stroke="#63b8ff" points="475.6,-360 476.06,-349.42 469.1,-357.4 475.6,-360"/>
</a>
</g>
</g>
<!-- Node3 -->
<g id="Node000003" class="node">
<title>Node3</title>
<g id="a_Node000003"><a xlink:href="irep_8h.html" target="_top" xlink:title=" ">
<polygon fill="white" stroke="#666666" points="1026.5,-404 982.5,-404 982.5,-385 1026.5,-385 1026.5,-404"/>
<text text-anchor="middle" x="1004.5" y="-392" font-family="Helvetica,sans-Serif" font-size="10.00">irep.h</text>
</a>
</g>
</g>
<!-- Node2&#45;&gt;Node3 -->
<g id="edge2_Node000002_Node000003" class="edge">
<title>Node2&#45;&gt;Node3</title>
<g id="a_edge2_Node000002_Node000003"><a xlink:title=" ">
<path fill="none" stroke="#63b8ff" d="M1027.88,-439.75C1024.04,-432.49 1018.48,-421.95 1013.74,-412.98"/>
<polygon fill="#63b8ff" stroke="#63b8ff" points="1016.8,-411.3 1009.04,-404.09 1010.61,-414.57 1016.8,-411.3"/>
</a>
</g>
</g>
<!-- Node26 -->
<g id="Node000026" class="node">
<title>Node26</title>
<g id="a_Node000026"><a xlink:title=" ">
<polygon fill="#e0e0e0" stroke="#999999" points="1076.5,-404 1044.5,-404 1044.5,-385 1076.5,-385 1076.5,-404"/>
<text text-anchor="middle" x="1060.5" y="-392" font-family="Helvetica,sans-Serif" font-size="10.00">set</text>
</a>
</g>
</g>
<!-- Node2&#45;&gt;Node26 -->
<g id="edge33_Node000002_Node000026" class="edge">
<title>Node2&#45;&gt;Node26</title>
<g id="a_edge33_Node000002_Node000026"><a xlink:title=" ">
<path fill="none" stroke="#63b8ff" d="M1037.12,-439.75C1040.96,-432.49 1046.52,-421.95 1051.26,-412.98"/>
<polygon fill="#63b8ff" stroke="#63b8ff" points="1054.39,-414.57 1055.96,-404.09 1048.2,-411.3 1054.39,-414.57"/>
</a>
</g>
</g>
<!-- Node27 -->
<g id="Node000027" class="node">
<title>Node27</title>
<g id="a_Node000027"><a xlink:title=" ">
<polygon fill="#e0e0e0" stroke="#999999" points="1180.5,-404 1094.5,-404 1094.5,-385 1180.5,-385 1180.5,-404"/>
<text text-anchor="middle" x="1137.5" y="-392" font-family="Helvetica,sans-Serif" font-size="10.00">unordered_set</text>
</a>
</g>
</g>
<!-- Node2&#45;&gt;Node27 -->
<g id="edge34_Node000002_Node000027" class="edge">
<title>Node2&#45;&gt;Node27</title>
<g id="a_edge34_Node000002_Node000027"><a xlink:title=" ">
<path fill="none" stroke="#63b8ff" d="M1049.37,-439.98C1066.11,-431.54 1092,-418.47 1111.39,-408.68"/>
<polygon fill="#63b8ff" stroke="#63b8ff" points="1112.97,-411.8 1120.32,-404.17 1109.82,-405.55 1112.97,-411.8"/>
</a>
</g>
</g>
<!-- Node4 -->
<g id="Node000004" class="node">
<title>Node4</title>
<g id="a_Node000004"><a xlink:title=" ">
<polygon fill="#e0e0e0" stroke="#999999" points="1115.5,-129 1071.5,-129 1071.5,-110 1115.5,-110 1115.5,-129"/>
<text text-anchor="middle" x="1093.5" y="-117" font-family="Helvetica,sans-Serif" font-size="10.00">string</text>
</a>
</g>
</g>
<!-- Node3&#45;&gt;Node4 -->
<g id="edge3_Node000003_Node000004" class="edge">
<title>Node3&#45;&gt;Node4</title>
<g id="a_edge3_Node000003_Node000004"><a xlink:title=" ">
<path fill="none" stroke="#63b8ff" d="M1026.83,-387.28C1029.74,-386.49 1032.69,-385.72 1035.5,-385 1128.86,-361.2 1457.5,-381.85 1457.5,-285.5 1457.5,-285.5 1457.5,-285.5 1457.5,-228.5 1457.5,-199.04 1460.95,-184.07 1438.5,-165 1391.79,-125.32 1202.31,-120.59 1125.78,-120.33"/>
<polygon fill="#63b8ff" stroke="#63b8ff" points="1125.77,-116.83 1115.76,-120.32 1125.76,-123.83 1125.77,-116.83"/>
</a>
</g>
</g>
<!-- Node5 -->
<g id="Node000005" class="node">
<title>Node5</title>
<g id="a_Node000005"><a xlink:title=" ">
<polygon fill="#e0e0e0" stroke="#999999" points="1429,-184 1382,-184 1382,-165 1429,-165 1429,-184"/>
<text text-anchor="middle" x="1405.5" y="-172" font-family="Helvetica,sans-Serif" font-size="10.00">vector</text>
</a>
</g>
</g>
<!-- Node3&#45;&gt;Node5 -->
<g id="edge4_Node000003_Node000005" class="edge">
<title>Node3&#45;&gt;Node5</title>
<g id="a_edge4_Node000003_Node000005"><a xlink:title=" ">
<path fill="none" stroke="#63b8ff" d="M1020.22,-384.95C1081.6,-351.59 1305.41,-229.91 1380.64,-189.01"/>
<polygon fill="#63b8ff" stroke="#63b8ff" points="1382.34,-192.07 1389.45,-184.22 1379,-185.92 1382.34,-192.07"/>
</a>
</g>
</g>
<!-- Node6 -->
<g id="Node000006" class="node">
<title>Node6</title>
<g id="a_Node000006"><a xlink:href="src_2util_2invariant_8h.html" target="_top" xlink:title=" ">
<polygon fill="white" stroke="#666666" points="675,-184 606,-184 606,-165 675,-165 675,-184"/>
<text text-anchor="middle" x="640.5" y="-172" font-family="Helvetica,sans-Serif" font-size="10.00">invariant.h</text>
</a>
</g>
</g>
<!-- Node3&#45;&gt;Node6 -->
<g id="edge5_Node000003_Node000006" class="edge">
<title>Node3&#45;&gt;Node6</title>
<g id="a_edge5_Node000003_Node000006"><a xlink:title=" ">
<path fill="none" stroke="#63b8ff" d="M982.16,-387.82C925.43,-372.46 773.57,-325.3 678.5,-239 664.7,-226.48 654.34,-207.76 647.95,-193.89"/>
<polygon fill="#63b8ff" stroke="#63b8ff" points="651.03,-192.2 643.85,-184.41 644.61,-194.98 651.03,-192.2"/>
</a>
</g>
</g>
<!-- Node10 -->
<g id="Node000010" class="node">
<title>Node10</title>
<g id="a_Node000010"><a xlink:href="irep__ids_8h.html" target="_top" xlink:title="util">
<polygon fill="white" stroke="#666666" points="1067.5,-349 1003.5,-349 1003.5,-330 1067.5,-330 1067.5,-349"/>
<text text-anchor="middle" x="1035.5" y="-337" font-family="Helvetica,sans-Serif" font-size="10.00">irep_ids.h</text>
</a>
</g>
</g>
<!-- Node3&#45;&gt;Node10 -->
<g id="edge10_Node000003_Node000010" class="edge">
<title>Node3&#45;&gt;Node10</title>
<g id="a_edge10_Node000003_Node000010"><a xlink:title=" ">
<path fill="none" stroke="#63b8ff" d="M1009.62,-384.75C1013.86,-377.49 1020.03,-366.95 1025.28,-357.98"/>
<polygon fill="#63b8ff" stroke="#63b8ff" points="1028.45,-359.49 1030.48,-349.09 1022.41,-355.95 1028.45,-359.49"/>
</a>
</g>
</g>
<!-- Node21 -->
<g id="Node000021" class="node">
<title>Node21</title>
<g id="a_Node000021"><a xlink:href="forward__list__as__map_8h.html" target="_top" xlink:title=" ">
<polygon fill="white" stroke="#666666" points="980,-294 853,-294 853,-275 980,-275 980,-294"/>
<text text-anchor="middle" x="916.5" y="-282" font-family="Helvetica,sans-Serif" font-size="10.00">forward_list_as_map.h</text>
</a>
</g>
</g>
<!-- Node3&#45;&gt;Node21 -->
<g id="edge26_Node000003_Node000021" class="edge">
<title>Node3&#45;&gt;Node21</title>
<g id="a_edge26_Node000003_Node000021"><a xlink:title=" ">
<path fill="none" stroke="#63b8ff" d="M997.3,-384.66C982.59,-366.61 948.91,-325.28 930.01,-302.08"/>
<polygon fill="#63b8ff" stroke="#63b8ff" points="932.59,-299.7 923.55,-294.16 927.16,-304.12 932.59,-299.7"/>
</a>
</g>
</g>
<!-- Node6&#45;&gt;Node4 -->
<g id="edge8_Node000006_Node000004" class="edge">
<title>Node6&#45;&gt;Node4</title>
<g id="a_edge8_Node000006_Node000004"><a xlink:title=" ">
<path fill="none" stroke="#63b8ff" d="M675.29,-169.43C760.54,-159.46 978.87,-133.91 1061.32,-124.27"/>
<polygon fill="#63b8ff" stroke="#63b8ff" points="1061.83,-127.73 1071.36,-123.09 1061.02,-120.78 1061.83,-127.73"/>
</a>
</g>
</g>
<!-- Node7 -->
<g id="Node000007" class="node">
<title>Node7</title>
<g id="a_Node000007"><a xlink:title=" ">
<polygon fill="#e0e0e0" stroke="#999999" points="622,-129 573,-129 573,-110 622,-110 622,-129"/>
<text text-anchor="middle" x="597.5" y="-117" font-family="Helvetica,sans-Serif" font-size="10.00">cstdlib</text>
</a>
</g>
</g>
<!-- Node6&#45;&gt;Node7 -->
<g id="edge6_Node000006_Node000007" class="edge">
<title>Node6&#45;&gt;Node7</title>
<g id="a_edge6_Node000006_Node000007"><a xlink:title=" ">
<path fill="none" stroke="#63b8ff" d="M633.4,-164.75C627.33,-157.26 618.41,-146.28 610.99,-137.13"/>
<polygon fill="#63b8ff" stroke="#63b8ff" points="613.49,-134.65 604.47,-129.09 608.05,-139.06 613.49,-134.65"/>
</a>
</g>
</g>
<!-- Node8 -->
<g id="Node000008" class="node">
<title>Node8</title>
<g id="a_Node000008"><a xlink:title=" ">
<polygon fill="#e0e0e0" stroke="#999999" points="696.5,-129 640.5,-129 640.5,-110 696.5,-110 696.5,-129"/>
<text text-anchor="middle" x="668.5" y="-117" font-family="Helvetica,sans-Serif" font-size="10.00">sstream</text>
</a>
</g>
</g>
<!-- Node6&#45;&gt;Node8 -->
<g id="edge7_Node000006_Node000008" class="edge">
<title>Node6&#45;&gt;Node8</title>
<g id="a_edge7_Node000006_Node000008"><a xlink:title=" ">
<path fill="none" stroke="#63b8ff" d="M645.12,-164.75C648.96,-157.49 654.52,-146.95 659.26,-137.98"/>
<polygon fill="#63b8ff" stroke="#63b8ff" points="662.39,-139.57 663.96,-129.09 656.2,-136.3 662.39,-139.57"/>
</a>
</g>
</g>
<!-- Node9 -->
<g id="Node000009" class="node">
<title>Node9</title>
<g id="a_Node000009"><a xlink:title=" ">
<polygon fill="#e0e0e0" stroke="#999999" points="498,-19 429,-19 429,0 498,0 498,-19"/>
<text text-anchor="middle" x="463.5" y="-7" font-family="Helvetica,sans-Serif" font-size="10.00">type_traits</text>
</a>
</g>
</g>
<!-- Node6&#45;&gt;Node9 -->
<g id="edge9_Node000006_Node000009" class="edge">
<title>Node6&#45;&gt;Node9</title>
<g id="a_edge9_Node000006_Node000009"><a xlink:title=" ">
<path fill="none" stroke="#63b8ff" d="M621.61,-164.89C605.27,-156.93 581.5,-144.06 563.5,-129 526.34,-97.9 492,-51.95 474.88,-27.41"/>
<polygon fill="#63b8ff" stroke="#63b8ff" points="477.74,-25.39 469.2,-19.12 471.97,-29.35 477.74,-25.39"/>
</a>
</g>
</g>
<!-- Node11 -->
<g id="Node000011" class="node">
<title>Node11</title>
<g id="a_Node000011"><a xlink:href="dstring_8h.html" target="_top" xlink:title="Container for C&#45;Strings.">
<polygon fill="white" stroke="#666666" points="1150,-294 1091,-294 1091,-275 1150,-275 1150,-294"/>
<text text-anchor="middle" x="1120.5" y="-282" font-family="Helvetica,sans-Serif" font-size="10.00">dstring.h</text>
</a>
</g>
</g>
<!-- Node10&#45;&gt;Node11 -->
<g id="edge11_Node000010_Node000011" class="edge">
<title>Node10&#45;&gt;Node11</title>
<g id="a_edge11_Node000010_Node000011"><a xlink:title=" ">
<path fill="none" stroke="#63b8ff" d="M1049.16,-329.98C1062.34,-321.77 1082.53,-309.18 1098.07,-299.49"/>
<polygon fill="#63b8ff" stroke="#63b8ff" points="1099.96,-302.43 1106.59,-294.17 1096.26,-296.49 1099.96,-302.43"/>
</a>
</g>
</g>
<!-- Node20 -->
<g id="Node000020" class="node">
<title>Node20</title>
<g id="a_Node000020"><a xlink:title=" ">
<polygon fill="#e0e0e0" stroke="#999999" points="1072.5,-294 998.5,-294 998.5,-275 1072.5,-275 1072.5,-294"/>
<text text-anchor="middle" x="1035.5" y="-282" font-family="Helvetica,sans-Serif" font-size="10.00">irep_ids.def</text>
</a>
</g>
</g>
<!-- Node10&#45;&gt;Node20 -->
<g id="edge25_Node000010_Node000020" class="edge">
<title>Node10&#45;&gt;Node20</title>
<g id="a_edge25_Node000010_Node000020"><a xlink:title=" ">
<path fill="none" stroke="#63b8ff" d="M1035.5,-329.75C1035.5,-322.8 1035.5,-312.85 1035.5,-304.13"/>
<polygon fill="#63b8ff" stroke="#63b8ff" points="1039,-304.09 1035.5,-294.09 1032,-304.09 1039,-304.09"/>
</a>
</g>
</g>
<!-- Node11&#45;&gt;Node4 -->
<g id="edge13_Node000011_Node000004" class="edge">
<title>Node11&#45;&gt;Node4</title>
<g id="a_edge13_Node000011_Node000004"><a xlink:title=" ">
<path fill="none" stroke="#63b8ff" d="M1117.11,-274.96C1111.4,-261.58 1098.7,-235.61 1080.5,-220 1049.98,-193.82 1019.56,-217.62 997.5,-184 978.94,-155.72 1026.91,-137.07 1061.53,-127.69"/>
<polygon fill="#63b8ff" stroke="#63b8ff" points="1062.5,-131.05 1071.32,-125.18 1060.76,-124.27 1062.5,-131.05"/>
</a>
</g>
</g>
<!-- Node12 -->
<g id="Node000012" class="node">
<title>Node12</title>
<g id="a_Node000012"><a xlink:title=" ">
<polygon fill="#e0e0e0" stroke="#999999" points="949.5,-184 901.5,-184 901.5,-165 949.5,-165 949.5,-184"/>
<text text-anchor="middle" x="925.5" y="-172" font-family="Helvetica,sans-Serif" font-size="10.00">iosfwd</text>
</a>
</g>
</g>
<!-- Node11&#45;&gt;Node12 -->
<g id="edge12_Node000011_Node000012" class="edge">
<title>Node11&#45;&gt;Node12</title>
<g id="a_edge12_Node000011_Node000012"><a xlink:title=" ">
<path fill="none" stroke="#63b8ff" d="M1113.7,-274.88C1102.63,-261.39 1079.46,-235.27 1054.5,-220 1038.29,-210.08 991.75,-195.12 959.25,-185.33"/>
<polygon fill="#63b8ff" stroke="#63b8ff" points="960.25,-181.98 949.66,-182.47 958.24,-188.68 960.25,-181.98"/>
</a>
</g>
</g>
<!-- Node13 -->
<g id="Node000013" class="node">
<title>Node13</title>
<g id="a_Node000013"><a xlink:href="magic_8h.html" target="_top" xlink:title="Magic numbers used throughout the codebase.">
<polygon fill="white" stroke="#666666" points="1415.5,-239 1359.5,-239 1359.5,-220 1415.5,-220 1415.5,-239"/>
<text text-anchor="middle" x="1387.5" y="-227" font-family="Helvetica,sans-Serif" font-size="10.00">magic.h</text>
</a>
</g>
</g>
<!-- Node11&#45;&gt;Node13 -->
<g id="edge14_Node000011_Node000013" class="edge">
<title>Node11&#45;&gt;Node13</title>
<g id="a_edge14_Node000011_Node000013"><a xlink:title=" ">
<path fill="none" stroke="#63b8ff" d="M1150.09,-277.63C1198.82,-267.95 1295.87,-248.69 1349.57,-238.03"/>
<polygon fill="#63b8ff" stroke="#63b8ff" points="1350.26,-241.46 1359.39,-236.08 1348.9,-234.59 1350.26,-241.46"/>
</a>
</g>
</g>
<!-- Node15 -->
<g id="Node000015" class="node">
<title>Node15</title>
<g id="a_Node000015"><a xlink:href="string__container_8h.html" target="_top" xlink:title="Container for C&#45;Strings.">
<polygon fill="white" stroke="#666666" points="1252.5,-239 1148.5,-239 1148.5,-220 1252.5,-220 1252.5,-239"/>
<text text-anchor="middle" x="1200.5" y="-227" font-family="Helvetica,sans-Serif" font-size="10.00">string_container.h</text>
</a>
</g>
</g>
<!-- Node11&#45;&gt;Node15 -->
<g id="edge16_Node000011_Node000015" class="edge">
<title>Node11&#45;&gt;Node15</title>
<g id="a_edge16_Node000011_Node000015"><a xlink:title=" ">
<path fill="none" stroke="#63b8ff" d="M1133.35,-274.98C1145.64,-266.84 1164.41,-254.41 1178.98,-244.76"/>
<polygon fill="#63b8ff" stroke="#63b8ff" points="1181.01,-247.61 1187.41,-239.17 1177.14,-241.78 1181.01,-247.61"/>
</a>
</g>
</g>
<!-- Node14 -->
<g id="Node000014" class="node">
<title>Node14</title>
<g id="a_Node000014"><a xlink:title=" ">
<polygon fill="#e0e0e0" stroke="#999999" points="1432,-129 1379,-129 1379,-110 1432,-110 1432,-129"/>
<text text-anchor="middle" x="1405.5" y="-117" font-family="Helvetica,sans-Serif" font-size="10.00">cstddef</text>
</a>
</g>
</g>
<!-- Node13&#45;&gt;Node14 -->
<g id="edge15_Node000013_Node000014" class="edge">
<title>Node13&#45;&gt;Node14</title>
<g id="a_edge15_Node000013_Node000014"><a xlink:title=" ">
<path fill="none" stroke="#63b8ff" d="M1403.23,-219.88C1415.38,-212.23 1431.3,-199.83 1438.5,-184 1445.92,-167.67 1434.48,-149.56 1423.09,-136.88"/>
<polygon fill="#63b8ff" stroke="#63b8ff" points="1425.29,-134.12 1415.81,-129.4 1420.27,-139 1425.29,-134.12"/>
</a>
</g>
</g>
<!-- Node15&#45;&gt;Node5 -->
<g id="edge19_Node000015_Node000005" class="edge">
<title>Node15&#45;&gt;Node5</title>
<g id="a_edge19_Node000015_Node000005"><a xlink:title=" ">
<path fill="none" stroke="#63b8ff" d="M1233.44,-219.98C1271.4,-210.17 1333.48,-194.12 1371.78,-184.22"/>
<polygon fill="#63b8ff" stroke="#63b8ff" points="1373.1,-187.49 1381.91,-181.6 1371.35,-180.71 1373.1,-187.49"/>
</a>
</g>
</g>
<!-- Node16 -->
<g id="Node000016" class="node">
<title>Node16</title>
<g id="a_Node000016"><a xlink:title=" ">
<polygon fill="#e0e0e0" stroke="#999999" points="1149.5,-184 1117.5,-184 1117.5,-165 1149.5,-165 1149.5,-184"/>
<text text-anchor="middle" x="1133.5" y="-172" font-family="Helvetica,sans-Serif" font-size="10.00">list</text>
</a>
</g>
</g>
<!-- Node15&#45;&gt;Node16 -->
<g id="edge17_Node000015_Node000016" class="edge">
<title>Node15&#45;&gt;Node16</title>
<g id="a_edge17_Node000015_Node000016"><a xlink:title=" ">
<path fill="none" stroke="#63b8ff" d="M1189.74,-219.98C1179.73,-212.07 1164.61,-200.11 1152.57,-190.58"/>
<polygon fill="#63b8ff" stroke="#63b8ff" points="1154.47,-187.63 1144.46,-184.17 1150.13,-193.12 1154.47,-187.63"/>
</a>
</g>
</g>
<!-- Node17 -->
<g id="Node000017" class="node">
<title>Node17</title>
<g id="a_Node000017"><a xlink:title=" ">
<polygon fill="#e0e0e0" stroke="#999999" points="1099,-184 1006,-184 1006,-165 1099,-165 1099,-184"/>
<text text-anchor="middle" x="1052.5" y="-172" font-family="Helvetica,sans-Serif" font-size="10.00">unordered_map</text>
</a>
</g>
</g>
<!-- Node15&#45;&gt;Node17 -->
<g id="edge18_Node000015_Node000017" class="edge">
<title>Node15&#45;&gt;Node17</title>
<g id="a_edge18_Node000015_Node000017"><a xlink:title=" ">
<path fill="none" stroke="#63b8ff" d="M1176.72,-219.98C1152.27,-211.23 1113.97,-197.51 1086.35,-187.62"/>
<polygon fill="#63b8ff" stroke="#63b8ff" points="1087.31,-184.25 1076.71,-184.17 1084.95,-190.84 1087.31,-184.25"/>
</a>
</g>
</g>
<!-- Node18 -->
<g id="Node000018" class="node">
<title>Node18</title>
<g id="a_Node000018"><a xlink:href="memory__units_8h.html" target="_top" xlink:title=" ">
<polygon fill="white" stroke="#666666" points="1363.5,-184 1267.5,-184 1267.5,-165 1363.5,-165 1363.5,-184"/>
<text text-anchor="middle" x="1315.5" y="-172" font-family="Helvetica,sans-Serif" font-size="10.00">memory_units.h</text>
</a>
</g>
</g>
<!-- Node15&#45;&gt;Node18 -->
<g id="edge20_Node000015_Node000018" class="edge">
<title>Node15&#45;&gt;Node18</title>
<g id="a_edge20_Node000015_Node000018"><a xlink:title=" ">
<path fill="none" stroke="#63b8ff" d="M1218.98,-219.98C1237.48,-211.46 1266.18,-198.23 1287.48,-188.41"/>
<polygon fill="#63b8ff" stroke="#63b8ff" points="1289.07,-191.53 1296.69,-184.17 1286.14,-185.18 1289.07,-191.53"/>
</a>
</g>
</g>
<!-- Node19 -->
<g id="Node000019" class="node">
<title>Node19</title>
<g id="a_Node000019"><a xlink:href="string__hash_8h.html" target="_top" xlink:title="string hashing">
<polygon fill="white" stroke="#666666" points="1249.5,-184 1167.5,-184 1167.5,-165 1249.5,-165 1249.5,-184"/>
<text text-anchor="middle" x="1208.5" y="-172" font-family="Helvetica,sans-Serif" font-size="10.00">string_hash.h</text>
</a>
</g>
</g>
<!-- Node15&#45;&gt;Node19 -->
<g id="edge23_Node000015_Node000019" class="edge">
<title>Node15&#45;&gt;Node19</title>
<g id="a_edge23_Node000015_Node000019"><a xlink:title=" ">
<path fill="none" stroke="#63b8ff" d="M1201.82,-219.75C1202.87,-212.8 1204.37,-202.85 1205.69,-194.13"/>
<polygon fill="#63b8ff" stroke="#63b8ff" points="1209.17,-194.5 1207.2,-184.09 1202.25,-193.45 1209.17,-194.5"/>
</a>
</g>
</g>
<!-- Node18&#45;&gt;Node4 -->
<g id="edge22_Node000018_Node000004" class="edge">
<title>Node18&#45;&gt;Node4</title>
<g id="a_edge22_Node000018_Node000004"><a xlink:title=" ">
<path fill="none" stroke="#63b8ff" d="M1279.83,-164.98C1237.21,-154.81 1166.54,-137.94 1125.57,-128.16"/>
<polygon fill="#63b8ff" stroke="#63b8ff" points="1126.13,-124.69 1115.59,-125.77 1124.5,-131.5 1126.13,-124.69"/>
</a>
</g>
</g>
<!-- Node18&#45;&gt;Node14 -->
<g id="edge21_Node000018_Node000014" class="edge">
<title>Node18&#45;&gt;Node14</title>
<g id="a_edge21_Node000018_Node000014"><a xlink:title=" ">
<path fill="none" stroke="#63b8ff" d="M1329.96,-164.98C1343.92,-156.77 1365.29,-144.18 1381.75,-134.49"/>
<polygon fill="#63b8ff" stroke="#63b8ff" points="1383.94,-137.26 1390.78,-129.17 1380.38,-131.23 1383.94,-137.26"/>
</a>
</g>
</g>
<!-- Node19&#45;&gt;Node4 -->
<g id="edge24_Node000019_Node000004" class="edge">
<title>Node19&#45;&gt;Node4</title>
<g id="a_edge24_Node000019_Node000004"><a xlink:title=" ">
<path fill="none" stroke="#63b8ff" d="M1190.02,-164.98C1171.52,-156.46 1142.82,-143.23 1121.52,-133.41"/>
<polygon fill="#63b8ff" stroke="#63b8ff" points="1122.86,-130.18 1112.31,-129.17 1119.93,-136.53 1122.86,-130.18"/>
</a>
</g>
</g>
<!-- Node22 -->
<g id="Node000022" class="node">
<title>Node22</title>
<g id="a_Node000022"><a xlink:title=" ">
<polygon fill="#e0e0e0" stroke="#999999" points="1045.5,-239 981.5,-239 981.5,-220 1045.5,-220 1045.5,-239"/>
<text text-anchor="middle" x="1013.5" y="-227" font-family="Helvetica,sans-Serif" font-size="10.00">algorithm</text>
</a>
</g>
</g>
<!-- Node21&#45;&gt;Node22 -->
<g id="edge27_Node000021_Node000022" class="edge">
<title>Node21&#45;&gt;Node22</title>
<g id="a_edge27_Node000021_Node000022"><a xlink:title=" ">
<path fill="none" stroke="#63b8ff" d="M932.08,-274.98C947.27,-266.69 970.6,-253.94 988.4,-244.22"/>
<polygon fill="#63b8ff" stroke="#63b8ff" points="990.53,-247.04 997.63,-239.17 987.18,-240.89 990.53,-247.04"/>
</a>
</g>
</g>
<!-- Node23 -->
<g id="Node000023" class="node">
<title>Node23</title>
<g id="a_Node000023"><a xlink:title=" ">
<polygon fill="#e0e0e0" stroke="#999999" points="963.5,-239 889.5,-239 889.5,-220 963.5,-220 963.5,-239"/>
<text text-anchor="middle" x="926.5" y="-227" font-family="Helvetica,sans-Serif" font-size="10.00">forward_list</text>
</a>
</g>
</g>
<!-- Node21&#45;&gt;Node23 -->
<g id="edge28_Node000021_Node000023" class="edge">
<title>Node21&#45;&gt;Node23</title>
<g id="a_edge28_Node000021_Node000023"><a xlink:title=" ">
<path fill="none" stroke="#63b8ff" d="M918.15,-274.75C919.46,-267.8 921.34,-257.85 922.98,-249.13"/>
<polygon fill="#63b8ff" stroke="#63b8ff" points="926.46,-249.56 924.88,-239.09 919.59,-248.27 926.46,-249.56"/>
</a>
</g>
</g>
<!-- Node24 -->
<g id="Node000024" class="node">
<title>Node24</title>
<g id="a_Node000024"><a xlink:href="as__const_8h.html" target="_top" xlink:title=" ">
<polygon fill="white" stroke="#666666" points="478.5,-129 410.5,-129 410.5,-110 478.5,-110 478.5,-129"/>
<text text-anchor="middle" x="444.5" y="-117" font-family="Helvetica,sans-Serif" font-size="10.00">as_const.h</text>
</a>
</g>
</g>
<!-- Node21&#45;&gt;Node24 -->
<g id="edge29_Node000021_Node000024" class="edge">
<title>Node21&#45;&gt;Node24</title>
<g id="a_edge29_Node000021_Node000024"><a xlink:title=" ">
<path fill="none" stroke="#63b8ff" d="M852.87,-276.59C804.2,-270.12 735.93,-258.47 678.5,-239 596.28,-211.13 506.74,-159.05 466.39,-134.28"/>
<polygon fill="#63b8ff" stroke="#63b8ff" points="468.22,-131.3 457.88,-129.01 464.54,-137.25 468.22,-131.3"/>
</a>
</g>
</g>
<!-- Node25 -->
<g id="Node000025" class="node">
<title>Node25</title>
<g id="a_Node000025"><a xlink:href="narrow_8h.html" target="_top" xlink:title=" ">
<polygon fill="white" stroke="#666666" points="746,-239 687,-239 687,-220 746,-220 746,-239"/>
<text text-anchor="middle" x="716.5" y="-227" font-family="Helvetica,sans-Serif" font-size="10.00">narrow.h</text>
</a>
</g>
</g>
<!-- Node21&#45;&gt;Node25 -->
<g id="edge30_Node000021_Node000025" class="edge">
<title>Node21&#45;&gt;Node25</title>
<g id="a_edge30_Node000021_Node000025"><a xlink:title=" ">
<path fill="none" stroke="#63b8ff" d="M884.37,-274.98C849.55,-265.76 793.94,-251.02 756.36,-241.06"/>
<polygon fill="#63b8ff" stroke="#63b8ff" points="756.83,-237.57 746.27,-238.39 755.04,-244.33 756.83,-237.57"/>
</a>
</g>
</g>
<!-- Node25&#45;&gt;Node6 -->
<g id="edge32_Node000025_Node000006" class="edge">
<title>Node25&#45;&gt;Node6</title>
<g id="a_edge32_Node000025_Node000006"><a xlink:title=" ">
<path fill="none" stroke="#63b8ff" d="M704.29,-219.98C692.72,-211.92 675.12,-199.65 661.34,-190.03"/>
<polygon fill="#63b8ff" stroke="#63b8ff" points="663.14,-187.02 652.93,-184.17 659.13,-192.76 663.14,-187.02"/>
</a>
</g>
</g>
<!-- Node25&#45;&gt;Node9 -->
<g id="edge31_Node000025_Node000009" class="edge">
<title>Node25&#45;&gt;Node9</title>
<g id="a_edge31_Node000025_Node000009"><a xlink:title=" ">
<path fill="none" stroke="#63b8ff" d="M718.49,-219.7C722.74,-198.48 730.43,-143.73 705.5,-110 658.72,-46.73 564.45,-23.53 508.37,-15.14"/>
<polygon fill="#63b8ff" stroke="#63b8ff" points="508.76,-11.66 498.37,-13.74 507.79,-18.59 508.76,-11.66"/>
</a>
</g>
</g>
<!-- Node29 -->
<g id="Node000029" class="node">
<title>Node29</title>
<g id="a_Node000029"><a xlink:href="deprecate_8h.html" target="_top" xlink:title=" ">
<polygon fill="white" stroke="#666666" points="552.5,-404 478.5,-404 478.5,-385 552.5,-385 552.5,-404"/>
<text text-anchor="middle" x="515.5" y="-392" font-family="Helvetica,sans-Serif" font-size="10.00">deprecate.h</text>
</a>
</g>
</g>
<!-- Node28&#45;&gt;Node29 -->
<g id="edge36_Node000028_Node000029" class="edge">
<title>Node28&#45;&gt;Node29</title>
<g id="a_edge36_Node000028_Node000029"><a xlink:title=" ">
<path fill="none" stroke="#63b8ff" d="M556.41,-439.75C549.34,-432.11 538.91,-420.82 530.35,-411.56"/>
<polygon fill="#63b8ff" stroke="#63b8ff" points="532.8,-409.06 523.44,-404.09 527.66,-413.81 532.8,-409.06"/>
</a>
</g>
</g>
<!-- Node30 -->
<g id="Node000030" class="node">
<title>Node30</title>
<g id="a_Node000030"><a xlink:href="pointer__expr_8h.html" target="_top" xlink:title="API to expression classes for Pointers.">
<polygon fill="white" stroke="#666666" points="656.5,-404 570.5,-404 570.5,-385 656.5,-385 656.5,-404"/>
<text text-anchor="middle" x="613.5" y="-392" font-family="Helvetica,sans-Serif" font-size="10.00">pointer_expr.h</text>
</a>
</g>
</g>
<!-- Node28&#45;&gt;Node30 -->
<g id="edge37_Node000028_Node000030" class="edge">
<title>Node28&#45;&gt;Node30</title>
<g id="a_edge37_Node000028_Node000030"><a xlink:title=" ">
<path fill="none" stroke="#63b8ff" d="M572.59,-439.75C579.66,-432.11 590.09,-420.82 598.65,-411.56"/>
<polygon fill="#63b8ff" stroke="#63b8ff" points="601.34,-413.81 605.56,-404.09 596.2,-409.06 601.34,-413.81"/>
</a>
</g>
</g>
<!-- Node31 -->
<g id="Node000031" class="node">
<title>Node31</title>
<g id="a_Node000031"><a xlink:href="bitvector__types_8h.html" target="_top" xlink:title="Pre&#45;defined bitvector types.">
<polygon fill="white" stroke="#666666" points="633,-349 532,-349 532,-330 633,-330 633,-349"/>
<text text-anchor="middle" x="582.5" y="-337" font-family="Helvetica,sans-Serif" font-size="10.00">bitvector_types.h</text>
</a>
</g>
</g>
<!-- Node30&#45;&gt;Node31 -->
<g id="edge38_Node000030_Node000031" class="edge">
<title>Node30&#45;&gt;Node31</title>
<g id="a_edge38_Node000030_Node000031"><a xlink:title=" ">
<path fill="none" stroke="#63b8ff" d="M608.38,-384.75C604.14,-377.49 597.97,-366.95 592.72,-357.98"/>
<polygon fill="#63b8ff" stroke="#63b8ff" points="595.59,-355.95 587.52,-349.09 589.55,-359.49 595.59,-355.95"/>
</a>
</g>
</g>
<!-- Node30&#45;&gt;Node47 -->
<g id="edge65_Node000030_Node000047" class="edge">
<title>Node30&#45;&gt;Node47</title>
<g id="a_edge65_Node000030_Node000047"><a xlink:title=" ">
<path fill="none" stroke="#63b8ff" d="M592.13,-384.98C570.35,-376.3 536.34,-362.75 511.58,-352.88"/>
<polygon fill="#63b8ff" stroke="#63b8ff" points="512.84,-349.62 502.26,-349.17 510.25,-356.12 512.84,-349.62"/>
</a>
</g>
</g>
<!-- Node32 -->
<g id="Node000032" class="node">
<title>Node32</title>
<g id="a_Node000032"><a xlink:href="std__types_8h.html" target="_top" xlink:title="Pre&#45;defined types.">
<polygon fill="white" stroke="#666666" points="619,-294 546,-294 546,-275 619,-275 619,-294"/>
<text text-anchor="middle" x="582.5" y="-282" font-family="Helvetica,sans-Serif" font-size="10.00">std_types.h</text>
</a>
</g>
</g>
<!-- Node31&#45;&gt;Node32 -->
<g id="edge39_Node000031_Node000032" class="edge">
<title>Node31&#45;&gt;Node32</title>
<g id="a_edge39_Node000031_Node000032"><a xlink:title=" ">
<path fill="none" stroke="#63b8ff" d="M582.5,-329.75C582.5,-322.8 582.5,-312.85 582.5,-304.13"/>
<polygon fill="#63b8ff" stroke="#63b8ff" points="586,-304.09 582.5,-294.09 579,-304.09 586,-304.09"/>
</a>
</g>
</g>
<!-- Node32&#45;&gt;Node6 -->
<g id="edge58_Node000032_Node000006" class="edge">
<title>Node32&#45;&gt;Node6</title>
<g id="a_edge58_Node000032_Node000006"><a xlink:title=" ">
<path fill="none" stroke="#63b8ff" d="M584.87,-274.94C588.52,-262.41 596.2,-238.55 606.5,-220 611.98,-210.14 619.47,-200.07 626.03,-192.02"/>
<polygon fill="#63b8ff" stroke="#63b8ff" points="628.88,-194.07 632.65,-184.17 623.53,-189.56 628.88,-194.07"/>
</a>
</g>
</g>
<!-- Node32&#45;&gt;Node17 -->
<g id="edge64_Node000032_Node000017" class="edge">
<title>Node32&#45;&gt;Node17</title>
<g id="a_edge64_Node000032_Node000017"><a xlink:title=" ">
<path fill="none" stroke="#63b8ff" d="M619.06,-280.65C670.13,-275.91 765.25,-264.31 842.5,-239 860.44,-233.12 862.82,-226.62 880.5,-220 919.41,-205.43 964.99,-193.87 999.45,-186.19"/>
<polygon fill="#63b8ff" stroke="#63b8ff" points="1000.3,-189.59 1009.32,-184.03 998.8,-182.75 1000.3,-189.59"/>
</a>
</g>
</g>
<!-- Node33 -->
<g id="Node000033" class="node">
<title>Node33</title>
<g id="a_Node000033"><a xlink:href="expr_8h.html" target="_top" xlink:title=" ">
<polygon fill="white" stroke="#666666" points="313,-184 266,-184 266,-165 313,-165 313,-184"/>
<text text-anchor="middle" x="289.5" y="-172" font-family="Helvetica,sans-Serif" font-size="10.00">expr.h</text>
</a>
</g>
</g>
<!-- Node32&#45;&gt;Node33 -->
<g id="edge40_Node000032_Node000033" class="edge">
<title>Node32&#45;&gt;Node33</title>
<g id="a_edge40_Node000032_Node000033"><a xlink:title=" ">
<path fill="none" stroke="#63b8ff" d="M563.11,-274.99C533.95,-262.33 476.94,-238.07 427.5,-220 392.12,-207.07 350.96,-194.05 322.86,-185.47"/>
<polygon fill="#63b8ff" stroke="#63b8ff" points="323.71,-182.07 313.13,-182.51 321.68,-188.77 323.71,-182.07"/>
</a>
</g>
</g>
<!-- Node37 -->
<g id="Node000037" class="node">
<title>Node37</title>
<g id="a_Node000037"><a xlink:href="validate_8h.html" target="_top" xlink:title=" ">
<polygon fill="#fff0f0" stroke="red" points="348,-74 283,-74 283,-55 348,-55 348,-74"/>
<text text-anchor="middle" x="315.5" y="-62" font-family="Helvetica,sans-Serif" font-size="10.00">validate.h</text>
</a>
</g>
</g>
<!-- Node32&#45;&gt;Node37 -->
<g id="edge63_Node000032_Node000037" class="edge">
<title>Node32&#45;&gt;Node37</title>
<g id="a_edge63_Node000032_Node000037"><a xlink:title=" ">
<path fill="none" stroke="#63b8ff" d="M580.35,-274.67C572.91,-246.05 545.49,-155.15 487.5,-110 450.13,-80.9 395.7,-70.7 358.13,-67.2"/>
<polygon fill="#63b8ff" stroke="#63b8ff" points="358.26,-63.7 348.01,-66.38 357.69,-70.67 358.26,-63.7"/>
</a>
</g>
</g>
<!-- Node43 -->
<g id="Node000043" class="node">
<title>Node43</title>
<g id="a_Node000043"><a xlink:href="expr__cast_8h.html" target="_top" xlink:title="Templated functions to cast to specific exprt&#45;derived classes.">
<polygon fill="white" stroke="#666666" points="419,-239 346,-239 346,-220 419,-220 419,-239"/>
<text text-anchor="middle" x="382.5" y="-227" font-family="Helvetica,sans-Serif" font-size="10.00">expr_cast.h</text>
</a>
</g>
</g>
<!-- Node32&#45;&gt;Node43 -->
<g id="edge52_Node000032_Node000043" class="edge">
<title>Node32&#45;&gt;Node43</title>
<g id="a_edge52_Node000032_Node000043"><a xlink:title=" ">
<path fill="none" stroke="#63b8ff" d="M550.37,-274.98C516.35,-265.97 462.5,-251.7 425,-241.76"/>
<polygon fill="#63b8ff" stroke="#63b8ff" points="425.45,-238.26 414.89,-239.08 423.66,-245.03 425.45,-238.26"/>
</a>
</g>
</g>
<!-- Node45 -->
<g id="Node000045" class="node">
<title>Node45</title>
<g id="a_Node000045"><a xlink:href="mp__arith_8h.html" target="_top" xlink:title=" ">
<polygon fill="white" stroke="#666666" points="833,-239 764,-239 764,-220 833,-220 833,-239"/>
<text text-anchor="middle" x="798.5" y="-227" font-family="Helvetica,sans-Serif" font-size="10.00">mp_arith.h</text>
</a>
</g>
</g>
<!-- Node32&#45;&gt;Node45 -->
<g id="edge59_Node000032_Node000045" class="edge">
<title>Node32&#45;&gt;Node45</title>
<g id="a_edge59_Node000032_Node000045"><a xlink:title=" ">
<path fill="none" stroke="#63b8ff" d="M617.2,-274.98C654.36,-265.87 713.44,-251.37 754,-241.42"/>
<polygon fill="#63b8ff" stroke="#63b8ff" points="755,-244.78 763.88,-238.99 753.34,-237.98 755,-244.78"/>
</a>
</g>
</g>
<!-- Node33&#45;&gt;Node24 -->
<g id="edge41_Node000033_Node000024" class="edge">
<title>Node33&#45;&gt;Node24</title>
<g id="a_edge41_Node000033_Node000024"><a xlink:title=" ">
<path fill="none" stroke="#63b8ff" d="M313.04,-165.45C338.83,-156.63 380.46,-142.4 409.95,-132.31"/>
<polygon fill="#63b8ff" stroke="#63b8ff" points="411.12,-135.61 419.45,-129.07 408.86,-128.99 411.12,-135.61"/>
</a>
</g>
</g>
<!-- Node34 -->
<g id="Node000034" class="node">
<title>Node34</title>
<g id="a_Node000034"><a xlink:href="type_8h.html" target="_top" xlink:title="Defines typet, type_with_subtypet and type_with_subtypest.">
<polygon fill="#fff0f0" stroke="red" points="207,-129 160,-129 160,-110 207,-110 207,-129"/>
<text text-anchor="middle" x="183.5" y="-117" font-family="Helvetica,sans-Serif" font-size="10.00">type.h</text>
</a>
</g>
</g>
<!-- Node33&#45;&gt;Node34 -->
<g id="edge42_Node000033_Node000034" class="edge">
<title>Node33&#45;&gt;Node34</title>
<g id="a_edge42_Node000033_Node000034"><a xlink:title=" ">
<path fill="none" stroke="#63b8ff" d="M272.47,-164.98C255.57,-156.54 229.44,-143.47 209.86,-133.68"/>
<polygon fill="#63b8ff" stroke="#63b8ff" points="211.35,-130.51 200.84,-129.17 208.22,-136.77 211.35,-130.51"/>
</a>
</g>
</g>
<!-- Node39 -->
<g id="Node000039" class="node">
<title>Node39</title>
<g id="a_Node000039"><a xlink:href="validation__mode_8h.html" target="_top" xlink:title=" ">
<polygon fill="white" stroke="#666666" points="301,-19 194,-19 194,0 301,0 301,-19"/>
<text text-anchor="middle" x="247.5" y="-7" font-family="Helvetica,sans-Serif" font-size="10.00">validation_mode.h</text>
</a>
</g>
</g>
<!-- Node33&#45;&gt;Node39 -->
<g id="edge50_Node000033_Node000039" class="edge">
<title>Node33&#45;&gt;Node39</title>
<g id="a_edge50_Node000033_Node000039"><a xlink:title=" ">
<path fill="none" stroke="#63b8ff" d="M265.95,-167.42C226.94,-157.2 152.22,-136.91 142.5,-129 120.9,-111.43 119.38,-100.98 112.5,-74 110.41,-65.82 107.55,-61.84 112.5,-55 128.92,-32.3 157.31,-20.99 183.84,-15.42"/>
<polygon fill="#63b8ff" stroke="#63b8ff" points="184.69,-18.82 193.88,-13.55 183.41,-11.94 184.69,-18.82"/>
</a>
</g>
</g>
<!-- Node40 -->
<g id="Node000040" class="node">
<title>Node40</title>
<g id="a_Node000040"><a xlink:href="validate__types_8h.html" target="_top" xlink:title=" ">
<polygon fill="white" stroke="#666666" points="219.5,-74 121.5,-74 121.5,-55 219.5,-55 219.5,-74"/>
<text text-anchor="middle" x="170.5" y="-62" font-family="Helvetica,sans-Serif" font-size="10.00">validate_types.h</text>
</a>
</g>
</g>
<!-- Node33&#45;&gt;Node40 -->
<g id="edge49_Node000033_Node000040" class="edge">
<title>Node33&#45;&gt;Node40</title>
<g id="a_edge49_Node000033_Node000040"><a xlink:title=" ">
<path fill="none" stroke="#63b8ff" d="M265.72,-166.68C226.94,-155.44 154,-133.8 150.5,-129 140.42,-115.19 148.66,-96.15 157.42,-82.53"/>
<polygon fill="#63b8ff" stroke="#63b8ff" points="160.46,-84.29 163.34,-74.09 154.73,-80.26 160.46,-84.29"/>
</a>
</g>
</g>
<!-- Node41 -->
<g id="Node000041" class="node">
<title>Node41</title>
<g id="a_Node000041"><a xlink:href="validate__expressions_8h.html" target="_top" xlink:title=" ">
<polygon fill="white" stroke="#666666" points="354,-129 225,-129 225,-110 354,-110 354,-129"/>
<text text-anchor="middle" x="289.5" y="-117" font-family="Helvetica,sans-Serif" font-size="10.00">validate_expressions.h</text>
</a>
</g>
</g>
<!-- Node33&#45;&gt;Node41 -->
<g id="edge48_Node000033_Node000041" class="edge">
<title>Node33&#45;&gt;Node41</title>
<g id="a_edge48_Node000033_Node000041"><a xlink:title=" ">
<path fill="none" stroke="#63b8ff" d="M289.5,-164.75C289.5,-157.8 289.5,-147.85 289.5,-139.13"/>
<polygon fill="#63b8ff" stroke="#63b8ff" points="293,-139.09 289.5,-129.09 286,-139.09 293,-139.09"/>
</a>
</g>
</g>
<!-- Node42 -->
<g id="Node000042" class="node">
<title>Node42</title>
<g id="a_Node000042"><a xlink:title=" ">
<polygon fill="#e0e0e0" stroke="#999999" points="65,-129 0,-129 0,-110 65,-110 65,-129"/>
<text text-anchor="middle" x="32.5" y="-117" font-family="Helvetica,sans-Serif" font-size="10.00">functional</text>
</a>
</g>
</g>
<!-- Node33&#45;&gt;Node42 -->
<g id="edge51_Node000033_Node000042" class="edge">
<title>Node33&#45;&gt;Node42</title>
<g id="a_edge51_Node000033_Node000042"><a xlink:title=" ">
<path fill="none" stroke="#63b8ff" d="M265.75,-167.21C262.64,-166.44 259.5,-165.68 256.5,-165 193.74,-150.69 120.49,-136.64 75.3,-128.26"/>
<polygon fill="#63b8ff" stroke="#63b8ff" points="75.74,-124.79 65.27,-126.41 74.47,-131.67 75.74,-124.79"/>
</a>
</g>
</g>
<!-- Node34&#45;&gt;Node37 -->
<g id="edge43_Node000034_Node000037" class="edge">
<title>Node34&#45;&gt;Node37</title>
<g id="a_edge43_Node000034_Node000037"><a xlink:title=" ">
<path fill="none" stroke="#63b8ff" d="M204.71,-109.98C226.23,-101.34 259.78,-87.87 284.33,-78.02"/>
<polygon fill="#63b8ff" stroke="#63b8ff" points="285.93,-81.14 293.91,-74.17 283.32,-74.65 285.93,-81.14"/>
</a>
</g>
</g>
<!-- Node34&#45;&gt;Node39 -->
<g id="edge47_Node000034_Node000039" class="edge">
<title>Node34&#45;&gt;Node39</title>
<g id="a_edge47_Node000034_Node000039"><a xlink:title=" ">
<path fill="none" stroke="#63b8ff" d="M195.09,-109.84C205.27,-101.66 219.79,-88.51 228.5,-74 236.83,-60.13 241.74,-42.33 244.48,-29.11"/>
<polygon fill="#63b8ff" stroke="#63b8ff" points="247.92,-29.74 246.29,-19.27 241.04,-28.47 247.92,-29.74"/>
</a>
</g>
</g>
<!-- Node34&#45;&gt;Node40 -->
<g id="edge46_Node000034_Node000040" class="edge">
<title>Node34&#45;&gt;Node40</title>
<g id="a_edge46_Node000034_Node000040"><a xlink:title=" ">
<path fill="none" stroke="#63b8ff" d="M181.35,-109.75C179.63,-102.72 177.15,-92.62 175,-83.84"/>
<polygon fill="#63b8ff" stroke="#63b8ff" points="178.39,-82.97 172.61,-74.09 171.59,-84.63 178.39,-82.97"/>
</a>
</g>
</g>
<!-- Node37&#45;&gt;Node9 -->
<g id="edge44_Node000037_Node000009" class="edge">
<title>Node37&#45;&gt;Node9</title>
<g id="a_edge44_Node000037_Node000009"><a xlink:title=" ">
<path fill="none" stroke="#63b8ff" d="M339.28,-54.98C363.73,-46.23 402.03,-32.51 429.65,-22.62"/>
<polygon fill="#63b8ff" stroke="#63b8ff" points="431.05,-25.84 439.29,-19.17 428.69,-19.25 431.05,-25.84"/>
</a>
</g>
</g>
<!-- Node37&#45;&gt;Node39 -->
<g id="edge45_Node000037_Node000039" class="edge">
<title>Node37&#45;&gt;Node39</title>
<g id="a_edge45_Node000037_Node000039"><a xlink:title=" ">
<path fill="none" stroke="#63b8ff" d="M304.57,-54.98C294.42,-47.07 279.08,-35.11 266.85,-25.58"/>
<polygon fill="#63b8ff" stroke="#63b8ff" points="268.66,-22.56 258.62,-19.17 264.36,-28.08 268.66,-22.56"/>
</a>
</g>
</g>
<!-- Node43&#45;&gt;Node6 -->
<g id="edge56_Node000043_Node000006" class="edge">
<title>Node43&#45;&gt;Node6</title>
<g id="a_edge56_Node000043_Node000006"><a xlink:title=" ">
<path fill="none" stroke="#63b8ff" d="M419.19,-220.96C465.79,-211.39 546.12,-194.89 596.12,-184.62"/>
<polygon fill="#63b8ff" stroke="#63b8ff" points="596.91,-188.03 606,-182.59 595.5,-181.17 596.91,-188.03"/>
</a>
</g>
</g>
<!-- Node43&#45;&gt;Node9 -->
<g id="edge54_Node000043_Node000009" class="edge">
<title>Node43&#45;&gt;Node9</title>
<g id="a_edge54_Node000043_Node000009"><a xlink:title=" ">
<path fill="none" stroke="#63b8ff" d="M382.72,-219.87C383.48,-199.91 386.82,-149.22 401.5,-110 413.32,-78.4 435.83,-46.01 450.23,-27.1"/>
<polygon fill="#63b8ff" stroke="#63b8ff" points="453,-29.23 456.38,-19.18 447.48,-24.93 453,-29.23"/>
</a>
</g>
</g>
<!-- Node43&#45;&gt;Node33 -->
<g id="edge57_Node000043_Node000033" class="edge">
<title>Node43&#45;&gt;Node33</title>
<g id="a_edge57_Node000043_Node000033"><a xlink:title=" ">
<path fill="none" stroke="#63b8ff" d="M367.56,-219.98C353,-211.69 330.63,-198.94 313.57,-189.22"/>
<polygon fill="#63b8ff" stroke="#63b8ff" points="315.14,-186.08 304.71,-184.17 311.67,-192.16 315.14,-186.08"/>
</a>
</g>
</g>
<!-- Node43&#45;&gt;Node42 -->
<g id="edge55_Node000043_Node000042" class="edge">
<title>Node43&#45;&gt;Node42</title>
<g id="a_edge55_Node000043_Node000042"><a xlink:title=" ">
<path fill="none" stroke="#63b8ff" d="M345.65,-222.46C304.92,-215.29 237.65,-202.01 181.5,-184 137.48,-169.88 88.54,-147.7 59.16,-133.65"/>
<polygon fill="#63b8ff" stroke="#63b8ff" points="60.51,-130.41 49.98,-129.21 57.47,-136.71 60.51,-130.41"/>
</a>
</g>
</g>
<!-- Node44 -->
<g id="Node000044" class="node">
<title>Node44</title>
<g id="a_Node000044"><a xlink:title=" ">
<polygon fill="#e0e0e0" stroke="#999999" points="248,-184 191,-184 191,-165 248,-165 248,-184"/>
<text text-anchor="middle" x="219.5" y="-172" font-family="Helvetica,sans-Serif" font-size="10.00">typeinfo</text>
</a>
</g>
</g>
<!-- Node43&#45;&gt;Node44 -->
<g id="edge53_Node000043_Node000044" class="edge">
<title>Node43&#45;&gt;Node44</title>
<g id="a_edge53_Node000043_Node000044"><a xlink:title=" ">
<path fill="none" stroke="#63b8ff" d="M356.31,-219.98C329.06,-211.13 286.2,-197.19 255.72,-187.28"/>
<polygon fill="#63b8ff" stroke="#63b8ff" points="256.49,-183.85 245.89,-184.08 254.32,-190.5 256.49,-183.85"/>
</a>
</g>
</g>
<!-- Node45&#45;&gt;Node4 -->
<g id="edge61_Node000045_Node000004" class="edge">
<title>Node45&#45;&gt;Node4</title>
<g id="a_edge61_Node000045_Node000004"><a xlink:title=" ">
<path fill="none" stroke="#63b8ff" d="M808.46,-219.88C824.84,-206.14 859.03,-179.39 892.5,-165 949.02,-140.7 1020.4,-128.96 1061.11,-123.88"/>
<polygon fill="#63b8ff" stroke="#63b8ff" points="1061.74,-127.33 1071.25,-122.67 1060.91,-120.38 1061.74,-127.33"/>
</a>
</g>
</g>
<!-- Node45&#45;&gt;Node12 -->
<g id="edge60_Node000045_Node000012" class="edge">
<title>Node45&#45;&gt;Node12</title>
<g id="a_edge60_Node000045_Node000012"><a xlink:title=" ">
<path fill="none" stroke="#63b8ff" d="M818.9,-219.98C839.52,-211.38 871.61,-197.99 895.19,-188.15"/>
<polygon fill="#63b8ff" stroke="#63b8ff" points="896.84,-191.25 904.72,-184.17 894.15,-184.79 896.84,-191.25"/>
</a>
</g>
</g>
<!-- Node46 -->
<g id="Node000046" class="node">
<title>Node46</title>
<g id="a_Node000046"><a xlink:title=" ">
<polygon fill="#e0e0e0" stroke="#999999" points="845.5,-184 751.5,-184 751.5,-165 845.5,-165 845.5,-184"/>
<text text-anchor="middle" x="798.5" y="-172" font-family="Helvetica,sans-Serif" font-size="10.00">big&#45;int/bigint.hh</text>
</a>
</g>
</g>
<!-- Node45&#45;&gt;Node46 -->
<g id="edge62_Node000045_Node000046" class="edge">
<title>Node45&#45;&gt;Node46</title>
<g id="a_edge62_Node000045_Node000046"><a xlink:title=" ">
<path fill="none" stroke="#63b8ff" d="M798.5,-219.75C798.5,-212.8 798.5,-202.85 798.5,-194.13"/>
<polygon fill="#63b8ff" stroke="#63b8ff" points="802,-194.09 798.5,-184.09 795,-194.09 802,-194.09"/>
</a>
</g>
</g>
<!-- Node47&#45;&gt;Node6 -->
<g id="edge67_Node000047_Node000006" class="edge">
<title>Node47&#45;&gt;Node6</title>
<g id="a_edge67_Node000047_Node000006"><a xlink:title=" ">
<path fill="none" stroke="#63b8ff" d="M487.88,-329.66C498.38,-317.2 518.38,-293.87 536.5,-275 566.14,-244.13 602.67,-210.03 623.6,-190.84"/>
<polygon fill="#63b8ff" stroke="#63b8ff" points="626.04,-193.36 631.06,-184.03 621.32,-188.19 626.04,-193.36"/>
</a>
</g>
</g>
<!-- Node47&#45;&gt;Node32 -->
<g id="edge68_Node000047_Node000032" class="edge">
<title>Node47&#45;&gt;Node32</title>
<g id="a_edge68_Node000047_Node000032"><a xlink:title=" ">
<path fill="none" stroke="#63b8ff" d="M496.89,-329.98C513.07,-321.57 538.07,-308.59 556.88,-298.81"/>
<polygon fill="#63b8ff" stroke="#63b8ff" points="558.55,-301.89 565.81,-294.17 555.33,-295.68 558.55,-301.89"/>
</a>
</g>
</g>
<!-- Node47&#45;&gt;Node43 -->
<g id="edge66_Node000047_Node000043" class="edge">
<title>Node47&#45;&gt;Node43</title>
<g id="a_edge66_Node000047_Node000043"><a xlink:title=" ">
<path fill="none" stroke="#63b8ff" d="M472.48,-329.66C456.03,-311.54 418.26,-269.91 397.26,-246.77"/>
<polygon fill="#63b8ff" stroke="#63b8ff" points="399.67,-244.21 390.36,-239.16 394.48,-248.92 399.67,-244.21"/>
</a>
</g>
</g>
</g>
</svg>
