<?xml version="1.0" encoding="UTF-8" standalone="no"?>
<!DOCTYPE svg PUBLIC "-//W3C//DTD SVG 1.1//EN"
 "http://www.w3.org/Graphics/SVG/1.1/DTD/svg11.dtd">
<!-- Generated by graphviz version 2.43.0 (0)
 -->
<!-- Title: /home/runner/work/cbmc/cbmc/src/solvers/floatbv/float_bv.h Pages: 1 -->
<svg width="922pt" height="654pt"
 viewBox="0.00 0.00 922.00 654.00" xmlns="http://www.w3.org/2000/svg" xmlns:xlink="http://www.w3.org/1999/xlink">
<g id="graph0" class="graph" transform="scale(1 1) rotate(0) translate(4 650)">
<title>/home/runner/work/cbmc/cbmc/src/solvers/floatbv/float_bv.h</title>
<!-- Node1 -->
<g id="Node000001" class="node">
<title>Node1</title>
<g id="a_Node000001"><a xlink:title=" ">
<polygon fill="#999999" stroke="#666666" points="522,-646 384,-646 384,-605 522,-605 522,-646"/>
<text text-anchor="start" x="392" y="-634" font-family="Helvetica,sans-Serif" font-size="10.00">/home/runner/work/cbmc</text>
<text text-anchor="start" x="392" y="-623" font-family="Helvetica,sans-Serif" font-size="10.00">/cbmc/src/solvers/floatbv</text>
<text text-anchor="middle" x="453" y="-612" font-family="Helvetica,sans-Serif" font-size="10.00">/float_bv.h</text>
</a>
</g>
</g>
<!-- Node2 -->
<g id="Node000002" class="node">
<title>Node2</title>
<g id="a_Node000002"><a xlink:href="ieee__float_8h.html" target="_top" xlink:title=" ">
<polygon fill="white" stroke="#666666" points="192,-514 100,-514 100,-495 192,-495 192,-514"/>
<text text-anchor="middle" x="146" y="-502" font-family="Helvetica,sans-Serif" font-size="10.00">util/ieee_float.h</text>
</a>
</g>
</g>
<!-- Node1&#45;&gt;Node2 -->
<g id="edge1_Node000001_Node000002" class="edge">
<title>Node1&#45;&gt;Node2</title>
<g id="a_edge1_Node000001_Node000002"><a xlink:title=" ">
<path fill="none" stroke="#63b8ff" d="M402.65,-604.98C338.89,-580.27 230.93,-538.42 177.66,-517.77"/>
<polygon fill="#63b8ff" stroke="#63b8ff" points="178.66,-514.4 168.07,-514.05 176.13,-520.93 178.66,-514.4"/>
</a>
</g>
</g>
<!-- Node8 -->
<g id="Node000008" class="node">
<title>Node8</title>
<g id="a_Node000008"><a xlink:href="std__expr_8h.html" target="_top" xlink:title="API to expression classes.">
<polygon fill="white" stroke="#666666" points="709,-569 623,-569 623,-550 709,-550 709,-569"/>
<text text-anchor="middle" x="666" y="-557" font-family="Helvetica,sans-Serif" font-size="10.00">util/std_expr.h</text>
</a>
</g>
</g>
<!-- Node1&#45;&gt;Node8 -->
<g id="edge8_Node000001_Node000008" class="edge">
<title>Node1&#45;&gt;Node8</title>
<g id="a_edge8_Node000001_Node000008"><a xlink:title=" ">
<path fill="none" stroke="#63b8ff" d="M518.06,-604.95C554.01,-594.15 597.41,-581.11 627.88,-571.95"/>
<polygon fill="#63b8ff" stroke="#63b8ff" points="629.11,-575.24 637.68,-569.01 627.1,-568.53 629.11,-575.24"/>
</a>
</g>
</g>
<!-- Node3 -->
<g id="Node000003" class="node">
<title>Node3</title>
<g id="a_Node000003"><a xlink:title=" ">
<polygon fill="#e0e0e0" stroke="#999999" points="125,-404 77,-404 77,-385 125,-385 125,-404"/>
<text text-anchor="middle" x="101" y="-392" font-family="Helvetica,sans-Serif" font-size="10.00">iosfwd</text>
</a>
</g>
</g>
<!-- Node2&#45;&gt;Node3 -->
<g id="edge2_Node000002_Node000003" class="edge">
<title>Node2&#45;&gt;Node3</title>
<g id="a_edge2_Node000002_Node000003"><a xlink:title=" ">
<path fill="none" stroke="#63b8ff" d="M142.32,-494.66C134.96,-477.01 118.33,-437.09 108.56,-413.64"/>
<polygon fill="#63b8ff" stroke="#63b8ff" points="111.68,-412.04 104.61,-404.16 105.22,-414.74 111.68,-412.04"/>
</a>
</g>
</g>
<!-- Node4 -->
<g id="Node000004" class="node">
<title>Node4</title>
<g id="a_Node000004"><a xlink:href="mp__arith_8h.html" target="_top" xlink:title=" ">
<polygon fill="white" stroke="#666666" points="211.5,-459 142.5,-459 142.5,-440 211.5,-440 211.5,-459"/>
<text text-anchor="middle" x="177" y="-447" font-family="Helvetica,sans-Serif" font-size="10.00">mp_arith.h</text>
</a>
</g>
</g>
<!-- Node2&#45;&gt;Node4 -->
<g id="edge3_Node000002_Node000004" class="edge">
<title>Node2&#45;&gt;Node4</title>
<g id="a_edge3_Node000002_Node000004"><a xlink:title=" ">
<path fill="none" stroke="#63b8ff" d="M151.12,-494.75C155.36,-487.49 161.53,-476.95 166.78,-467.98"/>
<polygon fill="#63b8ff" stroke="#63b8ff" points="169.95,-469.49 171.98,-459.09 163.91,-465.95 169.95,-469.49"/>
</a>
</g>
</g>
<!-- Node7 -->
<g id="Node000007" class="node">
<title>Node7</title>
<g id="a_Node000007"><a xlink:href="format__spec_8h.html" target="_top" xlink:title=" ">
<polygon fill="white" stroke="#666666" points="86,-459 0,-459 0,-440 86,-440 86,-459"/>
<text text-anchor="middle" x="43" y="-447" font-family="Helvetica,sans-Serif" font-size="10.00">format_spec.h</text>
</a>
</g>
</g>
<!-- Node2&#45;&gt;Node7 -->
<g id="edge7_Node000002_Node000007" class="edge">
<title>Node2&#45;&gt;Node7</title>
<g id="a_edge7_Node000002_Node000007"><a xlink:title=" ">
<path fill="none" stroke="#63b8ff" d="M129.45,-494.98C113.11,-486.57 87.87,-473.59 68.87,-463.81"/>
<polygon fill="#63b8ff" stroke="#63b8ff" points="70.34,-460.63 59.85,-459.17 67.14,-466.86 70.34,-460.63"/>
</a>
</g>
</g>
<!-- Node4&#45;&gt;Node3 -->
<g id="edge4_Node000004_Node000003" class="edge">
<title>Node4&#45;&gt;Node3</title>
<g id="a_edge4_Node000004_Node000003"><a xlink:title=" ">
<path fill="none" stroke="#63b8ff" d="M164.79,-439.98C153.22,-431.92 135.62,-419.65 121.84,-410.03"/>
<polygon fill="#63b8ff" stroke="#63b8ff" points="123.64,-407.02 113.43,-404.17 119.63,-412.76 123.64,-407.02"/>
</a>
</g>
</g>
<!-- Node5 -->
<g id="Node000005" class="node">
<title>Node5</title>
<g id="a_Node000005"><a xlink:title=" ">
<polygon fill="#e0e0e0" stroke="#999999" points="404,-19 360,-19 360,0 404,0 404,-19"/>
<text text-anchor="middle" x="382" y="-7" font-family="Helvetica,sans-Serif" font-size="10.00">string</text>
</a>
</g>
</g>
<!-- Node4&#45;&gt;Node5 -->
<g id="edge5_Node000004_Node000005" class="edge">
<title>Node4&#45;&gt;Node5</title>
<g id="a_edge5_Node000004_Node000005"><a xlink:title=" ">
<path fill="none" stroke="#63b8ff" d="M197.66,-439.98C213.1,-432.61 233.58,-420.52 246,-404 263.7,-380.45 265,-369.96 265,-340.5 265,-340.5 265,-340.5 265,-118.5 265,-71.75 316.05,-39.64 350.71,-23.23"/>
<polygon fill="#63b8ff" stroke="#63b8ff" points="352.33,-26.33 359.99,-19.01 349.44,-19.96 352.33,-26.33"/>
</a>
</g>
</g>
<!-- Node6 -->
<g id="Node000006" class="node">
<title>Node6</title>
<g id="a_Node000006"><a xlink:title=" ">
<polygon fill="#e0e0e0" stroke="#999999" points="237,-404 143,-404 143,-385 237,-385 237,-404"/>
<text text-anchor="middle" x="190" y="-392" font-family="Helvetica,sans-Serif" font-size="10.00">big&#45;int/bigint.hh</text>
</a>
</g>
</g>
<!-- Node4&#45;&gt;Node6 -->
<g id="edge6_Node000004_Node000006" class="edge">
<title>Node4&#45;&gt;Node6</title>
<g id="a_edge6_Node000004_Node000006"><a xlink:title=" ">
<path fill="none" stroke="#63b8ff" d="M179.15,-439.75C180.87,-432.72 183.35,-422.62 185.5,-413.84"/>
<polygon fill="#63b8ff" stroke="#63b8ff" points="188.91,-414.63 187.89,-404.09 182.11,-412.97 188.91,-414.63"/>
</a>
</g>
</g>
<!-- Node9 -->
<g id="Node000009" class="node">
<title>Node9</title>
<g id="a_Node000009"><a xlink:href="expr__cast_8h.html" target="_top" xlink:title="Templated functions to cast to specific exprt&#45;derived classes.">
<polygon fill="white" stroke="#666666" points="787.5,-459 714.5,-459 714.5,-440 787.5,-440 787.5,-459"/>
<text text-anchor="middle" x="751" y="-447" font-family="Helvetica,sans-Serif" font-size="10.00">expr_cast.h</text>
</a>
</g>
</g>
<!-- Node8&#45;&gt;Node9 -->
<g id="edge9_Node000008_Node000009" class="edge">
<title>Node8&#45;&gt;Node9</title>
<g id="a_edge9_Node000008_Node000009"><a xlink:title=" ">
<path fill="none" stroke="#63b8ff" d="M672.96,-549.66C687.16,-531.61 719.69,-490.28 737.95,-467.08"/>
<polygon fill="#63b8ff" stroke="#63b8ff" points="740.75,-469.18 744.19,-459.16 735.25,-464.85 740.75,-469.18"/>
</a>
</g>
</g>
<!-- Node13 -->
<g id="Node000013" class="node">
<title>Node13</title>
<g id="a_Node000013"><a xlink:href="src_2util_2invariant_8h.html" target="_top" xlink:title=" ">
<polygon fill="white" stroke="#666666" points="705.5,-74 636.5,-74 636.5,-55 705.5,-55 705.5,-74"/>
<text text-anchor="middle" x="671" y="-62" font-family="Helvetica,sans-Serif" font-size="10.00">invariant.h</text>
</a>
</g>
</g>
<!-- Node8&#45;&gt;Node13 -->
<g id="edge41_Node000008_Node000013" class="edge">
<title>Node8&#45;&gt;Node13</title>
<g id="a_edge41_Node000008_Node000013"><a xlink:title=" ">
<path fill="none" stroke="#63b8ff" d="M709.2,-558.38C780.25,-555.65 914,-538.79 914,-450.5 914,-450.5 914,-450.5 914,-283.5 914,-198.77 899.57,-164.86 835,-110 801.64,-81.66 751.87,-71.22 715.91,-67.46"/>
<polygon fill="#63b8ff" stroke="#63b8ff" points="715.97,-63.95 705.7,-66.52 715.34,-70.92 715.97,-63.95"/>
</a>
</g>
</g>
<!-- Node43 -->
<g id="Node000043" class="node">
<title>Node43</title>
<g id="a_Node000043"><a xlink:href="std__types_8h.html" target="_top" xlink:title="Pre&#45;defined types.">
<polygon fill="white" stroke="#666666" points="652.5,-514 579.5,-514 579.5,-495 652.5,-495 652.5,-514"/>
<text text-anchor="middle" x="616" y="-502" font-family="Helvetica,sans-Serif" font-size="10.00">std_types.h</text>
</a>
</g>
</g>
<!-- Node8&#45;&gt;Node43 -->
<g id="edge42_Node000008_Node000043" class="edge">
<title>Node8&#45;&gt;Node43</title>
<g id="a_edge42_Node000008_Node000043"><a xlink:title=" ">
<path fill="none" stroke="#63b8ff" d="M657.74,-549.75C650.54,-542.11 639.89,-530.82 631.15,-521.56"/>
<polygon fill="#63b8ff" stroke="#63b8ff" points="633.51,-518.96 624.1,-514.09 628.42,-523.76 633.51,-518.96"/>
</a>
</g>
</g>
<!-- Node10 -->
<g id="Node000010" class="node">
<title>Node10</title>
<g id="a_Node000010"><a xlink:title=" ">
<polygon fill="#e0e0e0" stroke="#999999" points="809.5,-404 752.5,-404 752.5,-385 809.5,-385 809.5,-404"/>
<text text-anchor="middle" x="781" y="-392" font-family="Helvetica,sans-Serif" font-size="10.00">typeinfo</text>
</a>
</g>
</g>
<!-- Node9&#45;&gt;Node10 -->
<g id="edge10_Node000009_Node000010" class="edge">
<title>Node9&#45;&gt;Node10</title>
<g id="a_edge10_Node000009_Node000010"><a xlink:title=" ">
<path fill="none" stroke="#63b8ff" d="M755.95,-439.75C760.06,-432.49 766.03,-421.95 771.1,-412.98"/>
<polygon fill="#63b8ff" stroke="#63b8ff" points="774.26,-414.52 776.14,-404.09 768.17,-411.07 774.26,-414.52"/>
</a>
</g>
</g>
<!-- Node11 -->
<g id="Node000011" class="node">
<title>Node11</title>
<g id="a_Node000011"><a xlink:title=" ">
<polygon fill="#e0e0e0" stroke="#999999" points="786.5,-19 717.5,-19 717.5,0 786.5,0 786.5,-19"/>
<text text-anchor="middle" x="752" y="-7" font-family="Helvetica,sans-Serif" font-size="10.00">type_traits</text>
</a>
</g>
</g>
<!-- Node9&#45;&gt;Node11 -->
<g id="edge11_Node000009_Node000011" class="edge">
<title>Node9&#45;&gt;Node11</title>
<g id="a_edge11_Node000009_Node000011"><a xlink:title=" ">
<path fill="none" stroke="#63b8ff" d="M775.7,-439.97C812.12,-425.62 876,-392.98 876,-340.5 876,-340.5 876,-340.5 876,-283.5 876,-204.27 872.81,-179.63 835,-110 817.06,-76.96 787.17,-44.65 768.58,-26.2"/>
<polygon fill="#63b8ff" stroke="#63b8ff" points="770.98,-23.65 761.37,-19.18 766.09,-28.67 770.98,-23.65"/>
</a>
</g>
</g>
<!-- Node12 -->
<g id="Node000012" class="node">
<title>Node12</title>
<g id="a_Node000012"><a xlink:title=" ">
<polygon fill="#e0e0e0" stroke="#999999" points="771.5,-349 706.5,-349 706.5,-330 771.5,-330 771.5,-349"/>
<text text-anchor="middle" x="739" y="-337" font-family="Helvetica,sans-Serif" font-size="10.00">functional</text>
</a>
</g>
</g>
<!-- Node9&#45;&gt;Node12 -->
<g id="edge12_Node000009_Node000012" class="edge">
<title>Node9&#45;&gt;Node12</title>
<g id="a_edge12_Node000009_Node000012"><a xlink:title=" ">
<path fill="none" stroke="#63b8ff" d="M749.11,-439.68C747.26,-430.73 744.51,-416.47 743,-404 741.19,-389.06 740.18,-372.03 739.62,-359.37"/>
<polygon fill="#63b8ff" stroke="#63b8ff" points="743.11,-359.02 739.23,-349.16 736.11,-359.28 743.11,-359.02"/>
</a>
</g>
</g>
<!-- Node9&#45;&gt;Node13 -->
<g id="edge13_Node000009_Node000013" class="edge">
<title>Node9&#45;&gt;Node13</title>
<g id="a_edge13_Node000009_Node000013"><a xlink:title=" ">
<path fill="none" stroke="#63b8ff" d="M771.37,-439.9C786.58,-432.5 806.77,-420.4 819,-404 836.62,-380.39 838,-369.96 838,-340.5 838,-340.5 838,-340.5 838,-173.5 838,-143.33 835.96,-130.69 814,-110 787.39,-84.93 746.87,-73.98 715.75,-69.19"/>
<polygon fill="#63b8ff" stroke="#63b8ff" points="715.98,-65.69 705.59,-67.8 715.02,-72.63 715.98,-65.69"/>
</a>
</g>
</g>
<!-- Node16 -->
<g id="Node000016" class="node">
<title>Node16</title>
<g id="a_Node000016"><a xlink:href="expr_8h.html" target="_top" xlink:title=" ">
<polygon fill="white" stroke="#666666" points="639.5,-404 592.5,-404 592.5,-385 639.5,-385 639.5,-404"/>
<text text-anchor="middle" x="616" y="-392" font-family="Helvetica,sans-Serif" font-size="10.00">expr.h</text>
</a>
</g>
</g>
<!-- Node9&#45;&gt;Node16 -->
<g id="edge18_Node000009_Node000016" class="edge">
<title>Node9&#45;&gt;Node16</title>
<g id="a_edge18_Node000009_Node000016"><a xlink:title=" ">
<path fill="none" stroke="#63b8ff" d="M729.31,-439.98C707.2,-431.3 672.68,-417.75 647.55,-407.88"/>
<polygon fill="#63b8ff" stroke="#63b8ff" points="648.67,-404.57 638.08,-404.17 646.11,-411.08 648.67,-404.57"/>
</a>
</g>
</g>
<!-- Node13&#45;&gt;Node5 -->
<g id="edge16_Node000013_Node000005" class="edge">
<title>Node13&#45;&gt;Node5</title>
<g id="a_edge16_Node000013_Node000005"><a xlink:title=" ">
<path fill="none" stroke="#63b8ff" d="M636.43,-57.16C579.99,-46.81 468.86,-26.43 414.08,-16.38"/>
<polygon fill="#63b8ff" stroke="#63b8ff" points="414.69,-12.94 404.22,-14.57 413.42,-19.82 414.69,-12.94"/>
</a>
</g>
</g>
<!-- Node13&#45;&gt;Node11 -->
<g id="edge17_Node000013_Node000011" class="edge">
<title>Node13&#45;&gt;Node11</title>
<g id="a_edge17_Node000013_Node000011"><a xlink:title=" ">
<path fill="none" stroke="#63b8ff" d="M684.01,-54.98C696.46,-46.84 715.46,-34.41 730.21,-24.76"/>
<polygon fill="#63b8ff" stroke="#63b8ff" points="732.3,-27.57 738.75,-19.17 728.46,-21.72 732.3,-27.57"/>
</a>
</g>
</g>
<!-- Node14 -->
<g id="Node000014" class="node">
<title>Node14</title>
<g id="a_Node000014"><a xlink:title=" ">
<polygon fill="#e0e0e0" stroke="#999999" points="624.5,-19 575.5,-19 575.5,0 624.5,0 624.5,-19"/>
<text text-anchor="middle" x="600" y="-7" font-family="Helvetica,sans-Serif" font-size="10.00">cstdlib</text>
</a>
</g>
</g>
<!-- Node13&#45;&gt;Node14 -->
<g id="edge14_Node000013_Node000014" class="edge">
<title>Node13&#45;&gt;Node14</title>
<g id="a_edge14_Node000013_Node000014"><a xlink:title=" ">
<path fill="none" stroke="#63b8ff" d="M659.59,-54.98C648.89,-47 632.66,-34.88 619.84,-25.31"/>
<polygon fill="#63b8ff" stroke="#63b8ff" points="621.72,-22.35 611.61,-19.17 617.53,-27.96 621.72,-22.35"/>
</a>
</g>
</g>
<!-- Node15 -->
<g id="Node000015" class="node">
<title>Node15</title>
<g id="a_Node000015"><a xlink:title=" ">
<polygon fill="#e0e0e0" stroke="#999999" points="699,-19 643,-19 643,0 699,0 699,-19"/>
<text text-anchor="middle" x="671" y="-7" font-family="Helvetica,sans-Serif" font-size="10.00">sstream</text>
</a>
</g>
</g>
<!-- Node13&#45;&gt;Node15 -->
<g id="edge15_Node000013_Node000015" class="edge">
<title>Node13&#45;&gt;Node15</title>
<g id="a_edge15_Node000013_Node000015"><a xlink:title=" ">
<path fill="none" stroke="#63b8ff" d="M671,-54.75C671,-47.8 671,-37.85 671,-29.13"/>
<polygon fill="#63b8ff" stroke="#63b8ff" points="674.5,-29.09 671,-19.09 667.5,-29.09 674.5,-29.09"/>
</a>
</g>
</g>
<!-- Node16&#45;&gt;Node12 -->
<g id="edge40_Node000016_Node000012" class="edge">
<title>Node16&#45;&gt;Node12</title>
<g id="a_edge40_Node000016_Node000012"><a xlink:title=" ">
<path fill="none" stroke="#63b8ff" d="M635.76,-384.98C655.73,-376.38 686.8,-362.99 709.65,-353.15"/>
<polygon fill="#63b8ff" stroke="#63b8ff" points="711.08,-356.34 718.88,-349.17 708.31,-349.91 711.08,-356.34"/>
</a>
</g>
</g>
<!-- Node17 -->
<g id="Node000017" class="node">
<title>Node17</title>
<g id="a_Node000017"><a xlink:href="as__const_8h.html" target="_top" xlink:title=" ">
<polygon fill="white" stroke="#666666" points="650,-349 582,-349 582,-330 650,-330 650,-349"/>
<text text-anchor="middle" x="616" y="-337" font-family="Helvetica,sans-Serif" font-size="10.00">as_const.h</text>
</a>
</g>
</g>
<!-- Node16&#45;&gt;Node17 -->
<g id="edge19_Node000016_Node000017" class="edge">
<title>Node16&#45;&gt;Node17</title>
<g id="a_edge19_Node000016_Node000017"><a xlink:title=" ">
<path fill="none" stroke="#63b8ff" d="M616,-384.75C616,-377.8 616,-367.85 616,-359.13"/>
<polygon fill="#63b8ff" stroke="#63b8ff" points="619.5,-359.09 616,-349.09 612.5,-359.09 619.5,-359.09"/>
</a>
</g>
</g>
<!-- Node18 -->
<g id="Node000018" class="node">
<title>Node18</title>
<g id="a_Node000018"><a xlink:href="type_8h.html" target="_top" xlink:title="Defines typet, type_with_subtypet and type_with_subtypest.">
<polygon fill="white" stroke="#666666" points="416.5,-349 369.5,-349 369.5,-330 416.5,-330 416.5,-349"/>
<text text-anchor="middle" x="393" y="-337" font-family="Helvetica,sans-Serif" font-size="10.00">type.h</text>
</a>
</g>
</g>
<!-- Node16&#45;&gt;Node18 -->
<g id="edge20_Node000016_Node000018" class="edge">
<title>Node16&#45;&gt;Node18</title>
<g id="a_edge20_Node000016_Node000018"><a xlink:title=" ">
<path fill="none" stroke="#63b8ff" d="M592.42,-388.25C558.06,-380.55 491.99,-365.55 426.78,-349.39"/>
<polygon fill="#63b8ff" stroke="#63b8ff" points="427.29,-345.91 416.74,-346.89 425.6,-352.71 427.29,-345.91"/>
</a>
</g>
</g>
<!-- Node40 -->
<g id="Node000040" class="node">
<title>Node40</title>
<g id="a_Node000040"><a xlink:href="validation__mode_8h.html" target="_top" xlink:title=" ">
<polygon fill="white" stroke="#666666" points="521.5,-239 414.5,-239 414.5,-220 521.5,-220 521.5,-239"/>
<text text-anchor="middle" x="468" y="-227" font-family="Helvetica,sans-Serif" font-size="10.00">validation_mode.h</text>
</a>
</g>
</g>
<!-- Node16&#45;&gt;Node40 -->
<g id="edge39_Node000016_Node000040" class="edge">
<title>Node16&#45;&gt;Node40</title>
<g id="a_edge39_Node000016_Node000040"><a xlink:title=" ">
<path fill="none" stroke="#63b8ff" d="M592.27,-393.1C534.6,-391.56 389.62,-384.21 360,-349 326.77,-309.49 398.38,-265.03 440.36,-243.53"/>
<polygon fill="#63b8ff" stroke="#63b8ff" points="441.93,-246.66 449.32,-239.06 438.81,-240.39 441.93,-246.66"/>
</a>
</g>
</g>
<!-- Node41 -->
<g id="Node000041" class="node">
<title>Node41</title>
<g id="a_Node000041"><a xlink:href="validate__types_8h.html" target="_top" xlink:title=" ">
<polygon fill="white" stroke="#666666" points="684,-294 586,-294 586,-275 684,-275 684,-294"/>
<text text-anchor="middle" x="635" y="-282" font-family="Helvetica,sans-Serif" font-size="10.00">validate_types.h</text>
</a>
</g>
</g>
<!-- Node16&#45;&gt;Node41 -->
<g id="edge38_Node000016_Node000041" class="edge">
<title>Node16&#45;&gt;Node41</title>
<g id="a_edge38_Node000016_Node000041"><a xlink:title=" ">
<path fill="none" stroke="#63b8ff" d="M628.49,-384.93C638.87,-376.99 652.88,-364.14 659,-349 665.33,-333.35 657.06,-315.33 648.55,-302.5"/>
<polygon fill="#63b8ff" stroke="#63b8ff" points="651.22,-300.22 642.52,-294.18 645.55,-304.33 651.22,-300.22"/>
</a>
</g>
</g>
<!-- Node42 -->
<g id="Node000042" class="node">
<title>Node42</title>
<g id="a_Node000042"><a xlink:href="validate__expressions_8h.html" target="_top" xlink:title=" ">
<polygon fill="white" stroke="#666666" points="563.5,-349 434.5,-349 434.5,-330 563.5,-330 563.5,-349"/>
<text text-anchor="middle" x="499" y="-337" font-family="Helvetica,sans-Serif" font-size="10.00">validate_expressions.h</text>
</a>
</g>
</g>
<!-- Node16&#45;&gt;Node42 -->
<g id="edge37_Node000016_Node000042" class="edge">
<title>Node16&#45;&gt;Node42</title>
<g id="a_edge37_Node000016_Node000042"><a xlink:title=" ">
<path fill="none" stroke="#63b8ff" d="M597.2,-384.98C578.38,-376.46 549.18,-363.23 527.5,-353.41"/>
<polygon fill="#63b8ff" stroke="#63b8ff" points="528.69,-350.11 518.14,-349.17 525.8,-356.48 528.69,-350.11"/>
</a>
</g>
</g>
<!-- Node19 -->
<g id="Node000019" class="node">
<title>Node19</title>
<g id="a_Node000019"><a xlink:href="source__location_8h.html" target="_top" xlink:title=" ">
<polygon fill="white" stroke="#666666" points="478,-184 376,-184 376,-165 478,-165 478,-184"/>
<text text-anchor="middle" x="427" y="-172" font-family="Helvetica,sans-Serif" font-size="10.00">source_location.h</text>
</a>
</g>
</g>
<!-- Node18&#45;&gt;Node19 -->
<g id="edge21_Node000018_Node000019" class="edge">
<title>Node18&#45;&gt;Node19</title>
<g id="a_edge21_Node000018_Node000019"><a xlink:title=" ">
<path fill="none" stroke="#63b8ff" d="M392.83,-329.97C392.67,-310.22 393.51,-259.94 405,-220 407.68,-210.7 412.24,-200.99 416.52,-193.02"/>
<polygon fill="#63b8ff" stroke="#63b8ff" points="419.57,-194.74 421.45,-184.32 413.48,-191.29 419.57,-194.74"/>
</a>
</g>
</g>
<!-- Node38 -->
<g id="Node000038" class="node">
<title>Node38</title>
<g id="a_Node000038"><a xlink:href="validate_8h.html" target="_top" xlink:title=" ">
<polygon fill="white" stroke="#666666" points="517.5,-294 452.5,-294 452.5,-275 517.5,-275 517.5,-294"/>
<text text-anchor="middle" x="485" y="-282" font-family="Helvetica,sans-Serif" font-size="10.00">validate.h</text>
</a>
</g>
</g>
<!-- Node18&#45;&gt;Node38 -->
<g id="edge28_Node000018_Node000038" class="edge">
<title>Node18&#45;&gt;Node38</title>
<g id="a_edge28_Node000018_Node000038"><a xlink:title=" ">
<path fill="none" stroke="#63b8ff" d="M407.78,-329.98C422.18,-321.69 444.31,-308.94 461.19,-299.22"/>
<polygon fill="#63b8ff" stroke="#63b8ff" points="463.03,-302.19 469.95,-294.17 459.54,-296.13 463.03,-302.19"/>
</a>
</g>
</g>
<!-- Node18&#45;&gt;Node40 -->
<g id="edge36_Node000018_Node000040" class="edge">
<title>Node18&#45;&gt;Node40</title>
<g id="a_edge36_Node000018_Node000040"><a xlink:title=" ">
<path fill="none" stroke="#63b8ff" d="M399.14,-329.66C411.62,-311.69 440.12,-270.64 456.28,-247.38"/>
<polygon fill="#63b8ff" stroke="#63b8ff" points="459.16,-249.37 461.99,-239.16 453.41,-245.38 459.16,-249.37"/>
</a>
</g>
</g>
<!-- Node18&#45;&gt;Node41 -->
<g id="edge35_Node000018_Node000041" class="edge">
<title>Node18&#45;&gt;Node41</title>
<g id="a_edge35_Node000018_Node000041"><a xlink:title=" ">
<path fill="none" stroke="#63b8ff" d="M416.73,-332.05C419.51,-331.34 422.32,-330.64 425,-330 478.02,-317.35 539.01,-304.63 581.56,-296.04"/>
<polygon fill="#63b8ff" stroke="#63b8ff" points="582.3,-299.46 591.42,-294.06 580.92,-292.6 582.3,-299.46"/>
</a>
</g>
</g>
<!-- Node19&#45;&gt;Node5 -->
<g id="edge27_Node000019_Node000005" class="edge">
<title>Node19&#45;&gt;Node5</title>
<g id="a_edge27_Node000019_Node000005"><a xlink:title=" ">
<path fill="none" stroke="#63b8ff" d="M398.61,-164.92C381.54,-158.13 361.19,-146.77 351,-129 332.14,-96.1 354.6,-51.54 369.96,-27.52"/>
<polygon fill="#63b8ff" stroke="#63b8ff" points="372.93,-29.37 375.59,-19.12 367.12,-25.48 372.93,-29.37"/>
</a>
</g>
</g>
<!-- Node20 -->
<g id="Node000020" class="node">
<title>Node20</title>
<g id="a_Node000020"><a xlink:href="deprecate_8h.html" target="_top" xlink:title=" ">
<polygon fill="white" stroke="#666666" points="496,-129 422,-129 422,-110 496,-110 496,-129"/>
<text text-anchor="middle" x="459" y="-117" font-family="Helvetica,sans-Serif" font-size="10.00">deprecate.h</text>
</a>
</g>
</g>
<!-- Node19&#45;&gt;Node20 -->
<g id="edge22_Node000019_Node000020" class="edge">
<title>Node19&#45;&gt;Node20</title>
<g id="a_edge22_Node000019_Node000020"><a xlink:title=" ">
<path fill="none" stroke="#63b8ff" d="M432.28,-164.75C436.71,-157.42 443.16,-146.73 448.62,-137.7"/>
<polygon fill="#63b8ff" stroke="#63b8ff" points="451.64,-139.46 453.81,-129.09 445.65,-135.84 451.64,-139.46"/>
</a>
</g>
</g>
<!-- Node21 -->
<g id="Node000021" class="node">
<title>Node21</title>
<g id="a_Node000021"><a xlink:href="irep_8h.html" target="_top" xlink:title=" ">
<polygon fill="#fff0f0" stroke="red" points="404,-129 360,-129 360,-110 404,-110 404,-129"/>
<text text-anchor="middle" x="382" y="-117" font-family="Helvetica,sans-Serif" font-size="10.00">irep.h</text>
</a>
</g>
</g>
<!-- Node19&#45;&gt;Node21 -->
<g id="edge23_Node000019_Node000021" class="edge">
<title>Node19&#45;&gt;Node21</title>
<g id="a_edge23_Node000019_Node000021"><a xlink:title=" ">
<path fill="none" stroke="#63b8ff" d="M419.57,-164.75C413.15,-157.18 403.69,-146.05 395.88,-136.84"/>
<polygon fill="#63b8ff" stroke="#63b8ff" points="398.43,-134.45 389.29,-129.09 393.1,-138.98 398.43,-134.45"/>
</a>
</g>
</g>
<!-- Node37 -->
<g id="Node000037" class="node">
<title>Node37</title>
<g id="a_Node000037"><a xlink:title=" ">
<polygon fill="#e0e0e0" stroke="#999999" points="570,-129 514,-129 514,-110 570,-110 570,-129"/>
<text text-anchor="middle" x="542" y="-117" font-family="Helvetica,sans-Serif" font-size="10.00">optional</text>
</a>
</g>
</g>
<!-- Node19&#45;&gt;Node37 -->
<g id="edge26_Node000019_Node000037" class="edge">
<title>Node19&#45;&gt;Node37</title>
<g id="a_edge26_Node000019_Node000037"><a xlink:title=" ">
<path fill="none" stroke="#63b8ff" d="M445.48,-164.98C463.98,-156.46 492.68,-143.23 513.98,-133.41"/>
<polygon fill="#63b8ff" stroke="#63b8ff" points="515.57,-136.53 523.19,-129.17 512.64,-130.18 515.57,-136.53"/>
</a>
</g>
</g>
<!-- Node21&#45;&gt;Node5 -->
<g id="edge24_Node000021_Node000005" class="edge">
<title>Node21&#45;&gt;Node5</title>
<g id="a_edge24_Node000021_Node000005"><a xlink:title=" ">
<path fill="none" stroke="#63b8ff" d="M382,-109.66C382,-92.17 382,-52.8 382,-29.27"/>
<polygon fill="#63b8ff" stroke="#63b8ff" points="385.5,-29.16 382,-19.16 378.5,-29.16 385.5,-29.16"/>
</a>
</g>
</g>
<!-- Node21&#45;&gt;Node13 -->
<g id="edge25_Node000021_Node000013" class="edge">
<title>Node21&#45;&gt;Node13</title>
<g id="a_edge25_Node000021_Node000013"><a xlink:title=" ">
<path fill="none" stroke="#63b8ff" d="M404.29,-112.11C407.21,-111.36 410.17,-110.63 413,-110 487.09,-93.49 574.3,-79.59 625.99,-71.91"/>
<polygon fill="#63b8ff" stroke="#63b8ff" points="626.77,-75.33 636.15,-70.41 625.75,-68.41 626.77,-75.33"/>
</a>
</g>
</g>
<!-- Node38&#45;&gt;Node11 -->
<g id="edge29_Node000038_Node000011" class="edge">
<title>Node38&#45;&gt;Node11</title>
<g id="a_edge29_Node000038_Node000011"><a xlink:title=" ">
<path fill="none" stroke="#63b8ff" d="M517.68,-277.01C587.1,-262.28 743,-223.81 743,-175.5 743,-175.5 743,-175.5 743,-118.5 743,-87.08 746.83,-50.7 749.49,-29.2"/>
<polygon fill="#63b8ff" stroke="#63b8ff" points="752.98,-29.52 750.79,-19.16 746.04,-28.63 752.98,-29.52"/>
</a>
</g>
</g>
<!-- Node39 -->
<g id="Node000039" class="node">
<title>Node39</title>
<g id="a_Node000039"><a xlink:href="exception__utils_8h.html" target="_top" xlink:title=" ">
<polygon fill="white" stroke="#666666" points="643,-239 543,-239 543,-220 643,-220 643,-239"/>
<text text-anchor="middle" x="593" y="-227" font-family="Helvetica,sans-Serif" font-size="10.00">exception_utils.h</text>
</a>
</g>
</g>
<!-- Node38&#45;&gt;Node39 -->
<g id="edge30_Node000038_Node000039" class="edge">
<title>Node38&#45;&gt;Node39</title>
<g id="a_edge30_Node000038_Node000039"><a xlink:title=" ">
<path fill="none" stroke="#63b8ff" d="M502.35,-274.98C519.57,-266.54 546.2,-253.47 566.15,-243.68"/>
<polygon fill="#63b8ff" stroke="#63b8ff" points="567.9,-246.72 575.33,-239.17 564.81,-240.43 567.9,-246.72"/>
</a>
</g>
</g>
<!-- Node38&#45;&gt;Node40 -->
<g id="edge34_Node000038_Node000040" class="edge">
<title>Node38&#45;&gt;Node40</title>
<g id="a_edge34_Node000038_Node000040"><a xlink:title=" ">
<path fill="none" stroke="#63b8ff" d="M482.19,-274.75C479.94,-267.72 476.7,-257.62 473.88,-248.84"/>
<polygon fill="#63b8ff" stroke="#63b8ff" points="477.14,-247.54 470.75,-239.09 470.48,-249.68 477.14,-247.54"/>
</a>
</g>
</g>
<!-- Node39&#45;&gt;Node5 -->
<g id="edge31_Node000039_Node000005" class="edge">
<title>Node39&#45;&gt;Node5</title>
<g id="a_edge31_Node000039_Node000005"><a xlink:title=" ">
<path fill="none" stroke="#63b8ff" d="M594.55,-219.8C597.78,-198.78 603.1,-144.46 579,-110 539.68,-53.78 458.99,-27.53 414.04,-16.83"/>
<polygon fill="#63b8ff" stroke="#63b8ff" points="414.75,-13.4 404.22,-14.6 413.2,-20.23 414.75,-13.4"/>
</a>
</g>
</g>
<!-- Node39&#45;&gt;Node13 -->
<g id="edge32_Node000039_Node000013" class="edge">
<title>Node39&#45;&gt;Node13</title>
<g id="a_edge32_Node000039_Node000013"><a xlink:title=" ">
<path fill="none" stroke="#63b8ff" d="M597.19,-219.74C609.47,-194.09 645.5,-118.78 662.25,-83.78"/>
<polygon fill="#63b8ff" stroke="#63b8ff" points="665.63,-84.84 666.79,-74.31 659.31,-81.82 665.63,-84.84"/>
</a>
</g>
</g>
<!-- Node39&#45;&gt;Node19 -->
<g id="edge33_Node000039_Node000019" class="edge">
<title>Node39&#45;&gt;Node19</title>
<g id="a_edge33_Node000039_Node000019"><a xlink:title=" ">
<path fill="none" stroke="#63b8ff" d="M566.33,-219.98C538.46,-211.09 494.55,-197.07 463.48,-187.15"/>
<polygon fill="#63b8ff" stroke="#63b8ff" points="464.47,-183.79 453.88,-184.08 462.34,-190.46 464.47,-183.79"/>
</a>
</g>
</g>
<!-- Node43&#45;&gt;Node4 -->
<g id="edge46_Node000043_Node000004" class="edge">
<title>Node43&#45;&gt;Node4</title>
<g id="a_edge46_Node000043_Node000004"><a xlink:title=" ">
<path fill="none" stroke="#63b8ff" d="M579.29,-500.4C510.91,-494.42 359.25,-480.09 221.97,-459.2"/>
<polygon fill="#63b8ff" stroke="#63b8ff" points="222.11,-455.68 211.69,-457.61 221.04,-462.59 222.11,-455.68"/>
</a>
</g>
</g>
<!-- Node43&#45;&gt;Node9 -->
<g id="edge44_Node000043_Node000009" class="edge">
<title>Node43&#45;&gt;Node9</title>
<g id="a_edge44_Node000043_Node000009"><a xlink:title=" ">
<path fill="none" stroke="#63b8ff" d="M637.69,-494.98C659.8,-486.3 694.32,-472.75 719.45,-462.88"/>
<polygon fill="#63b8ff" stroke="#63b8ff" points="720.89,-466.08 728.92,-459.17 718.33,-459.57 720.89,-466.08"/>
</a>
</g>
</g>
<!-- Node43&#45;&gt;Node13 -->
<g id="edge45_Node000043_Node000013" class="edge">
<title>Node43&#45;&gt;Node13</title>
<g id="a_edge45_Node000043_Node000013"><a xlink:title=" ">
<path fill="none" stroke="#63b8ff" d="M625.58,-494.6C660.23,-462.38 777.17,-353.52 780,-349 795.72,-323.93 800,-315.09 800,-285.5 800,-285.5 800,-285.5 800,-173.5 800,-124.7 745.06,-93.6 706.89,-77.88"/>
<polygon fill="#63b8ff" stroke="#63b8ff" points="707.69,-74.43 697.11,-74.03 705.13,-80.95 707.69,-74.43"/>
</a>
</g>
</g>
<!-- Node43&#45;&gt;Node16 -->
<g id="edge43_Node000043_Node000016" class="edge">
<title>Node43&#45;&gt;Node16</title>
<g id="a_edge43_Node000043_Node000016"><a xlink:title=" ">
<path fill="none" stroke="#63b8ff" d="M616,-494.66C616,-477.17 616,-437.8 616,-414.27"/>
<polygon fill="#63b8ff" stroke="#63b8ff" points="619.5,-414.16 616,-404.16 612.5,-414.16 619.5,-414.16"/>
</a>
</g>
</g>
<!-- Node43&#45;&gt;Node38 -->
<g id="edge47_Node000043_Node000038" class="edge">
<title>Node43&#45;&gt;Node38</title>
<g id="a_edge47_Node000043_Node000038"><a xlink:title=" ">
<path fill="none" stroke="#63b8ff" d="M582.94,-494.98C525.4,-478.16 408.36,-434.67 360,-349 340.12,-313.78 398.72,-297.52 442.29,-290.46"/>
<polygon fill="#63b8ff" stroke="#63b8ff" points="443.06,-293.88 452.43,-288.93 442.02,-286.96 443.06,-293.88"/>
</a>
</g>
</g>
<!-- Node29 -->
<g id="Node000029" class="node">
<title>Node29</title>
<g id="a_Node000029"><a xlink:title=" ">
<polygon fill="#e0e0e0" stroke="#999999" points="322.5,-459 229.5,-459 229.5,-440 322.5,-440 322.5,-459"/>
<text text-anchor="middle" x="276" y="-447" font-family="Helvetica,sans-Serif" font-size="10.00">unordered_map</text>
</a>
</g>
</g>
<!-- Node43&#45;&gt;Node29 -->
<g id="edge48_Node000043_Node000029" class="edge">
<title>Node43&#45;&gt;Node29</title>
<g id="a_edge48_Node000043_Node000029"><a xlink:title=" ">
<path fill="none" stroke="#63b8ff" d="M579.29,-497.78C519.96,-488.53 402.59,-470.23 332.53,-459.31"/>
<polygon fill="#63b8ff" stroke="#63b8ff" points="332.97,-455.84 322.55,-457.76 331.89,-462.76 332.97,-455.84"/>
</a>
</g>
</g>
</g>
</svg>
