<?xml version="1.0" encoding="UTF-8" standalone="no"?>
<!DOCTYPE svg PUBLIC "-//W3C//DTD SVG 1.1//EN"
 "http://www.w3.org/Graphics/SVG/1.1/DTD/svg11.dtd">
<!-- Generated by graphviz version 2.43.0 (0)
 -->
<!-- Title: /home/runner/work/cbmc/cbmc/src/goto&#45;instrument/full_slicer.h Pages: 1 -->
<svg width="738pt" height="203pt"
 viewBox="0.00 0.00 738.00 203.00" xmlns="http://www.w3.org/2000/svg" xmlns:xlink="http://www.w3.org/1999/xlink">
<g id="graph0" class="graph" transform="scale(1 1) rotate(0) translate(4 199)">
<title>/home/runner/work/cbmc/cbmc/src/goto&#45;instrument/full_slicer.h</title>
<!-- Node1 -->
<g id="Node000001" class="node">
<title>Node1</title>
<g id="a_Node000001"><a xlink:title="Slicing.">
<polygon fill="#999999" stroke="#666666" points="416.5,-195 271.5,-195 271.5,-154 416.5,-154 416.5,-195"/>
<text text-anchor="start" x="279.5" y="-183" font-family="Helvetica,sans-Serif" font-size="10.00">/home/runner/work/cbmc</text>
<text text-anchor="start" x="279.5" y="-172" font-family="Helvetica,sans-Serif" font-size="10.00">/cbmc/src/goto&#45;instrument</text>
<text text-anchor="middle" x="344" y="-161" font-family="Helvetica,sans-Serif" font-size="10.00">/full_slicer.h</text>
</a>
</g>
</g>
<!-- Node2 -->
<g id="Node000002" class="node">
<title>Node2</title>
<g id="a_Node000002"><a xlink:href="jbmc__parse__options_8cpp.html" target="_top" xlink:title="JBMC Command Line Option Processing.">
<polygon fill="white" stroke="#666666" points="144,-118 0,-118 0,-77 144,-77 144,-118"/>
<text text-anchor="start" x="8" y="-106" font-family="Helvetica,sans-Serif" font-size="10.00">/home/runner/work/cbmc</text>
<text text-anchor="start" x="8" y="-95" font-family="Helvetica,sans-Serif" font-size="10.00">/cbmc/jbmc/src/jbmc/jbmc</text>
<text text-anchor="middle" x="72" y="-84" font-family="Helvetica,sans-Serif" font-size="10.00">_parse_options.cpp</text>
</a>
</g>
</g>
<!-- Node1&#45;&gt;Node2 -->
<g id="edge1_Node000001_Node000002" class="edge">
<title>Node1&#45;&gt;Node2</title>
<g id="a_edge1_Node000001_Node000002"><a xlink:title=" ">
<path fill="none" stroke="#63b8ff" d="M263.18,-151.21C224.96,-140.68 179.74,-128.21 142.87,-118.04"/>
<polygon fill="#63b8ff" stroke="#63b8ff" points="262.67,-154.71 273.25,-153.99 264.54,-147.96 262.67,-154.71"/>
</a>
</g>
</g>
<!-- Node3 -->
<g id="Node000003" class="node">
<title>Node3</title>
<g id="a_Node000003"><a xlink:href="cbmc__parse__options_8cpp.html" target="_top" xlink:title="CBMC Command Line Option Processing.">
<polygon fill="white" stroke="#666666" points="316,-118 162,-118 162,-77 316,-77 316,-118"/>
<text text-anchor="start" x="170" y="-106" font-family="Helvetica,sans-Serif" font-size="10.00">/home/runner/work/cbmc</text>
<text text-anchor="start" x="170" y="-95" font-family="Helvetica,sans-Serif" font-size="10.00">/cbmc/src/cbmc/cbmc_parse</text>
<text text-anchor="middle" x="239" y="-84" font-family="Helvetica,sans-Serif" font-size="10.00">_options.cpp</text>
</a>
</g>
</g>
<!-- Node1&#45;&gt;Node3 -->
<g id="edge2_Node000001_Node000003" class="edge">
<title>Node1&#45;&gt;Node3</title>
<g id="a_edge2_Node000001_Node000003"><a xlink:title=" ">
<path fill="none" stroke="#63b8ff" d="M308.43,-148.09C294.75,-138.32 279.35,-127.32 266.54,-118.17"/>
<polygon fill="#63b8ff" stroke="#63b8ff" points="306.51,-151.03 316.69,-153.99 310.58,-145.33 306.51,-151.03"/>
</a>
</g>
</g>
<!-- Node4 -->
<g id="Node000004" class="node">
<title>Node4</title>
<g id="a_Node000004"><a xlink:href="full__slicer_8cpp.html" target="_top" xlink:title="Slicing.">
<polygon fill="white" stroke="#666666" points="416.5,-41 271.5,-41 271.5,0 416.5,0 416.5,-41"/>
<text text-anchor="start" x="279.5" y="-29" font-family="Helvetica,sans-Serif" font-size="10.00">/home/runner/work/cbmc</text>
<text text-anchor="start" x="279.5" y="-18" font-family="Helvetica,sans-Serif" font-size="10.00">/cbmc/src/goto&#45;instrument</text>
<text text-anchor="middle" x="344" y="-7" font-family="Helvetica,sans-Serif" font-size="10.00">/full_slicer.cpp</text>
</a>
</g>
</g>
<!-- Node1&#45;&gt;Node4 -->
<g id="edge3_Node000001_Node000004" class="edge">
<title>Node1&#45;&gt;Node4</title>
<g id="a_edge3_Node000001_Node000004"><a xlink:title=" ">
<path fill="none" stroke="#63b8ff" d="M344,-143.58C344,-113.36 344,-67.53 344,-41.47"/>
<polygon fill="#63b8ff" stroke="#63b8ff" points="340.5,-143.94 344,-153.94 347.5,-143.94 340.5,-143.94"/>
</a>
</g>
</g>
<!-- Node5 -->
<g id="Node000005" class="node">
<title>Node5</title>
<g id="a_Node000005"><a xlink:href="full__slicer__class_8h.html" target="_top" xlink:title="Goto Program Slicing.">
<polygon fill="white" stroke="#666666" points="517.5,-118 372.5,-118 372.5,-77 517.5,-77 517.5,-118"/>
<text text-anchor="start" x="380.5" y="-106" font-family="Helvetica,sans-Serif" font-size="10.00">/home/runner/work/cbmc</text>
<text text-anchor="start" x="380.5" y="-95" font-family="Helvetica,sans-Serif" font-size="10.00">/cbmc/src/goto&#45;instrument</text>
<text text-anchor="middle" x="445" y="-84" font-family="Helvetica,sans-Serif" font-size="10.00">/full_slicer_class.h</text>
</a>
</g>
</g>
<!-- Node1&#45;&gt;Node5 -->
<g id="edge4_Node000001_Node000005" class="edge">
<title>Node1&#45;&gt;Node5</title>
<g id="a_edge4_Node000001_Node000005"><a xlink:title=" ">
<path fill="none" stroke="#63b8ff" d="M378.59,-147.82C391.65,-138.11 406.3,-127.24 418.51,-118.17"/>
<polygon fill="#63b8ff" stroke="#63b8ff" points="376.21,-145.22 370.27,-153.99 380.39,-150.84 376.21,-145.22"/>
</a>
</g>
</g>
<!-- Node7 -->
<g id="Node000007" class="node">
<title>Node7</title>
<g id="a_Node000007"><a xlink:href="goto__instrument__parse__options_8cpp.html" target="_top" xlink:title="Main Module.">
<polygon fill="white" stroke="#666666" points="730,-118 536,-118 536,-77 730,-77 730,-118"/>
<text text-anchor="start" x="544" y="-106" font-family="Helvetica,sans-Serif" font-size="10.00">/home/runner/work/cbmc</text>
<text text-anchor="start" x="544" y="-95" font-family="Helvetica,sans-Serif" font-size="10.00">/cbmc/src/goto&#45;instrument</text>
<text text-anchor="middle" x="633" y="-84" font-family="Helvetica,sans-Serif" font-size="10.00">/goto_instrument_parse_options.cpp</text>
</a>
</g>
</g>
<!-- Node1&#45;&gt;Node7 -->
<g id="edge7_Node000001_Node000007" class="edge">
<title>Node1&#45;&gt;Node7</title>
<g id="a_edge7_Node000001_Node000007"><a xlink:title=" ">
<path fill="none" stroke="#63b8ff" d="M426.32,-152.14C467.64,-141.41 517.33,-128.52 557.64,-118.06"/>
<polygon fill="#63b8ff" stroke="#63b8ff" points="425.35,-148.77 416.55,-154.67 427.11,-155.55 425.35,-148.77"/>
</a>
</g>
</g>
<!-- Node5&#45;&gt;Node4 -->
<g id="edge5_Node000005_Node000004" class="edge">
<title>Node5&#45;&gt;Node4</title>
<g id="a_edge5_Node000005_Node000004"><a xlink:title=" ">
<path fill="none" stroke="#63b8ff" d="M410.41,-70.82C397.35,-61.11 382.7,-50.24 370.49,-41.17"/>
<polygon fill="#63b8ff" stroke="#63b8ff" points="408.61,-73.84 418.73,-76.99 412.79,-68.22 408.61,-73.84"/>
</a>
</g>
</g>
<!-- Node6 -->
<g id="Node000006" class="node">
<title>Node6</title>
<g id="a_Node000006"><a xlink:href="reachability__slicer_8cpp.html" target="_top" xlink:title="Reachability Slicer Consider the control flow graph of the goto program and a criterion,...">
<polygon fill="white" stroke="#666666" points="579.5,-41 434.5,-41 434.5,0 579.5,0 579.5,-41"/>
<text text-anchor="start" x="442.5" y="-29" font-family="Helvetica,sans-Serif" font-size="10.00">/home/runner/work/cbmc</text>
<text text-anchor="start" x="442.5" y="-18" font-family="Helvetica,sans-Serif" font-size="10.00">/cbmc/src/goto&#45;instrument</text>
<text text-anchor="middle" x="507" y="-7" font-family="Helvetica,sans-Serif" font-size="10.00">/reachability_slicer.cpp</text>
</a>
</g>
</g>
<!-- Node5&#45;&gt;Node6 -->
<g id="edge6_Node000005_Node000006" class="edge">
<title>Node5&#45;&gt;Node6</title>
<g id="a_edge6_Node000005_Node000006"><a xlink:title=" ">
<path fill="none" stroke="#63b8ff" d="M467.77,-68.95C475.42,-59.7 483.78,-49.58 490.82,-41.07"/>
<polygon fill="#63b8ff" stroke="#63b8ff" points="464.96,-66.86 461.29,-76.79 470.36,-71.32 464.96,-66.86"/>
</a>
</g>
</g>
</g>
</svg>
