<?xml version="1.0" encoding="UTF-8" standalone="no"?>
<!DOCTYPE svg PUBLIC "-//W3C//DTD SVG 1.1//EN"
 "http://www.w3.org/Graphics/SVG/1.1/DTD/svg11.dtd">
<!-- Generated by graphviz version 2.43.0 (0)
 -->
<!-- Title: /home/runner/work/cbmc/cbmc/src/cprover/generalization.cpp Pages: 1 -->
<svg width="875pt" height="588pt"
 viewBox="0.00 0.00 874.50 588.00" xmlns="http://www.w3.org/2000/svg" xmlns:xlink="http://www.w3.org/1999/xlink">
<g id="graph0" class="graph" transform="scale(1 1) rotate(0) translate(4 584)">
<title>/home/runner/work/cbmc/cbmc/src/cprover/generalization.cpp</title>
<!-- Node1 -->
<g id="Node000001" class="node">
<title>Node1</title>
<g id="a_Node000001"><a xlink:title="Generalization.">
<polygon fill="#999999" stroke="#666666" points="707.5,-580 511.5,-580 511.5,-550 707.5,-550 707.5,-580"/>
<text text-anchor="start" x="519.5" y="-568" font-family="Helvetica,sans-Serif" font-size="10.00">/home/runner/work/cbmc</text>
<text text-anchor="middle" x="609.5" y="-557" font-family="Helvetica,sans-Serif" font-size="10.00">/cbmc/src/cprover/generalization.cpp</text>
</a>
</g>
</g>
<!-- Node2 -->
<g id="Node000002" class="node">
<title>Node2</title>
<g id="a_Node000002"><a xlink:href="generalization_8h.html" target="_top" xlink:title="Generalization.">
<polygon fill="white" stroke="#666666" points="389,-514 294,-514 294,-495 389,-495 389,-514"/>
<text text-anchor="middle" x="341.5" y="-502" font-family="Helvetica,sans-Serif" font-size="10.00">generalization.h</text>
</a>
</g>
</g>
<!-- Node1&#45;&gt;Node2 -->
<g id="edge1_Node000001_Node000002" class="edge">
<title>Node1&#45;&gt;Node2</title>
<g id="a_edge1_Node000001_Node000002"><a xlink:title=" ">
<path fill="none" stroke="#63b8ff" d="M545.31,-549.99C497.75,-539.61 433.93,-525.68 390.46,-516.19"/>
<polygon fill="#63b8ff" stroke="#63b8ff" points="391.2,-512.77 380.69,-514.05 389.71,-519.61 391.2,-512.77"/>
</a>
</g>
</g>
<!-- Node48 -->
<g id="Node000048" class="node">
<title>Node48</title>
<g id="a_Node000048"><a xlink:href="console_8h.html" target="_top" xlink:title="Console.">
<polygon fill="white" stroke="#666666" points="650.5,-514 568.5,-514 568.5,-495 650.5,-495 650.5,-514"/>
<text text-anchor="middle" x="609.5" y="-502" font-family="Helvetica,sans-Serif" font-size="10.00">util/console.h</text>
</a>
</g>
</g>
<!-- Node1&#45;&gt;Node48 -->
<g id="edge36_Node000001_Node000048" class="edge">
<title>Node1&#45;&gt;Node48</title>
<g id="a_edge36_Node000001_Node000048"><a xlink:title=" ">
<path fill="none" stroke="#63b8ff" d="M609.5,-549.84C609.5,-542.21 609.5,-532.7 609.5,-524.45"/>
<polygon fill="#63b8ff" stroke="#63b8ff" points="613,-524.27 609.5,-514.27 606,-524.27 613,-524.27"/>
</a>
</g>
</g>
<!-- Node49 -->
<g id="Node000049" class="node">
<title>Node49</title>
<g id="a_Node000049"><a xlink:href="format__expr_8h.html" target="_top" xlink:title=" ">
<polygon fill="white" stroke="#666666" points="547.5,-294 443.5,-294 443.5,-275 547.5,-275 547.5,-294"/>
<text text-anchor="middle" x="495.5" y="-282" font-family="Helvetica,sans-Serif" font-size="10.00">util/format_expr.h</text>
</a>
</g>
</g>
<!-- Node1&#45;&gt;Node49 -->
<g id="edge39_Node000001_Node000049" class="edge">
<title>Node1&#45;&gt;Node49</title>
<g id="a_edge39_Node000001_Node000049"><a xlink:title=" ">
<path fill="none" stroke="#63b8ff" d="M580.6,-549.97C548.01,-531.89 499.5,-497.15 499.5,-450.5 499.5,-450.5 499.5,-450.5 499.5,-393.5 499.5,-362.17 497.8,-325.76 496.61,-304.23"/>
<polygon fill="#63b8ff" stroke="#63b8ff" points="500.1,-303.96 496.04,-294.18 493.12,-304.36 500.1,-303.96"/>
</a>
</g>
</g>
<!-- Node51 -->
<g id="Node000051" class="node">
<title>Node51</title>
<g id="a_Node000051"><a xlink:href="solver_8h.html" target="_top" xlink:title="Equality Propagation.">
<polygon fill="white" stroke="#666666" points="593,-349 538,-349 538,-330 593,-330 593,-349"/>
<text text-anchor="middle" x="565.5" y="-337" font-family="Helvetica,sans-Serif" font-size="10.00">solver.h</text>
</a>
</g>
</g>
<!-- Node1&#45;&gt;Node51 -->
<g id="edge49_Node000001_Node000051" class="edge">
<title>Node1&#45;&gt;Node51</title>
<g id="a_edge49_Node000001_Node000051"><a xlink:title=" ">
<path fill="none" stroke="#63b8ff" d="M589.01,-549.89C578.01,-541.02 565.51,-528.52 559.5,-514 537.73,-461.44 551.32,-392.07 559.97,-359.25"/>
<polygon fill="#63b8ff" stroke="#63b8ff" points="563.44,-359.82 562.75,-349.25 556.7,-357.95 563.44,-359.82"/>
</a>
</g>
</g>
<!-- Node33 -->
<g id="Node000033" class="node">
<title>Node33</title>
<g id="a_Node000033"><a xlink:title=" ">
<polygon fill="#e0e0e0" stroke="#999999" points="732.5,-514 668.5,-514 668.5,-495 732.5,-495 732.5,-514"/>
<text text-anchor="middle" x="700.5" y="-502" font-family="Helvetica,sans-Serif" font-size="10.00">algorithm</text>
</a>
</g>
</g>
<!-- Node1&#45;&gt;Node33 -->
<g id="edge51_Node000001_Node000033" class="edge">
<title>Node1&#45;&gt;Node33</title>
<g id="a_edge51_Node000001_Node000033"><a xlink:title=" ">
<path fill="none" stroke="#63b8ff" d="M631.53,-549.84C645.77,-540.68 664.23,-528.82 678.47,-519.66"/>
<polygon fill="#63b8ff" stroke="#63b8ff" points="680.61,-522.45 687.13,-514.09 676.83,-516.56 680.61,-522.45"/>
</a>
</g>
</g>
<!-- Node52 -->
<g id="Node000052" class="node">
<title>Node52</title>
<g id="a_Node000052"><a xlink:title=" ">
<polygon fill="#e0e0e0" stroke="#999999" points="810.5,-514 750.5,-514 750.5,-495 810.5,-495 810.5,-514"/>
<text text-anchor="middle" x="780.5" y="-502" font-family="Helvetica,sans-Serif" font-size="10.00">iostream</text>
</a>
</g>
</g>
<!-- Node1&#45;&gt;Node52 -->
<g id="edge52_Node000001_Node000052" class="edge">
<title>Node1&#45;&gt;Node52</title>
<g id="a_edge52_Node000001_Node000052"><a xlink:title=" ">
<path fill="none" stroke="#63b8ff" d="M650.46,-549.99C679.5,-540.05 718.05,-526.86 745.62,-517.43"/>
<polygon fill="#63b8ff" stroke="#63b8ff" points="746.92,-520.69 755.25,-514.14 744.65,-514.06 746.92,-520.69"/>
</a>
</g>
</g>
<!-- Node53 -->
<g id="Node000053" class="node">
<title>Node53</title>
<g id="a_Node000053"><a xlink:title=" ">
<polygon fill="#e0e0e0" stroke="#999999" points="866.5,-514 828.5,-514 828.5,-495 866.5,-495 866.5,-514"/>
<text text-anchor="middle" x="847.5" y="-502" font-family="Helvetica,sans-Serif" font-size="10.00">map</text>
</a>
</g>
</g>
<!-- Node1&#45;&gt;Node53 -->
<g id="edge53_Node000001_Node000053" class="edge">
<title>Node1&#45;&gt;Node53</title>
<g id="a_edge53_Node000001_Node000053"><a xlink:title=" ">
<path fill="none" stroke="#63b8ff" d="M673.16,-549.9C712.57,-540.93 764.39,-528.7 818.5,-514.15"/>
<polygon fill="#63b8ff" stroke="#63b8ff" points="819.53,-517.5 828.26,-511.51 817.7,-510.74 819.53,-517.5"/>
</a>
</g>
</g>
<!-- Node3 -->
<g id="Node000003" class="node">
<title>Node3</title>
<g id="a_Node000003"><a xlink:href="solver__types_8h.html" target="_top" xlink:title="Solver.">
<polygon fill="white" stroke="#666666" points="347.5,-459 259.5,-459 259.5,-440 347.5,-440 347.5,-459"/>
<text text-anchor="middle" x="303.5" y="-447" font-family="Helvetica,sans-Serif" font-size="10.00">solver_types.h</text>
</a>
</g>
</g>
<!-- Node2&#45;&gt;Node3 -->
<g id="edge2_Node000002_Node000003" class="edge">
<title>Node2&#45;&gt;Node3</title>
<g id="a_edge2_Node000002_Node000003"><a xlink:title=" ">
<path fill="none" stroke="#63b8ff" d="M335.23,-494.75C329.91,-487.34 322.14,-476.5 315.62,-467.41"/>
<polygon fill="#63b8ff" stroke="#63b8ff" points="318.33,-465.18 309.66,-459.09 312.64,-469.26 318.33,-465.18"/>
</a>
</g>
</g>
<!-- Node4 -->
<g id="Node000004" class="node">
<title>Node4</title>
<g id="a_Node000004"><a xlink:href="mathematical__expr_8h.html" target="_top" xlink:title="API to expression classes for &#39;mathematical&#39; expressions.">
<polygon fill="white" stroke="#666666" points="139,-404 0,-404 0,-385 139,-385 139,-404"/>
<text text-anchor="middle" x="69.5" y="-392" font-family="Helvetica,sans-Serif" font-size="10.00">util/mathematical_expr.h</text>
</a>
</g>
</g>
<!-- Node3&#45;&gt;Node4 -->
<g id="edge3_Node000003_Node000004" class="edge">
<title>Node3&#45;&gt;Node4</title>
<g id="a_edge3_Node000003_Node000004"><a xlink:title=" ">
<path fill="none" stroke="#63b8ff" d="M265.9,-439.98C225.51,-430.84 161.22,-416.27 117.27,-406.32"/>
<polygon fill="#63b8ff" stroke="#63b8ff" points="117.92,-402.88 107.39,-404.08 116.37,-409.7 117.92,-402.88"/>
</a>
</g>
</g>
<!-- Node42 -->
<g id="Node000042" class="node">
<title>Node42</title>
<g id="a_Node000042"><a xlink:href="std__expr_8h.html" target="_top" xlink:title="API to expression classes.">
<polygon fill="white" stroke="#666666" points="275,-349 208,-349 208,-330 275,-330 275,-349"/>
<text text-anchor="middle" x="241.5" y="-337" font-family="Helvetica,sans-Serif" font-size="10.00">std_expr.h</text>
</a>
</g>
</g>
<!-- Node3&#45;&gt;Node42 -->
<g id="edge32_Node000003_Node000042" class="edge">
<title>Node3&#45;&gt;Node42</title>
<g id="a_edge32_Node000003_Node000042"><a xlink:title=" ">
<path fill="none" stroke="#63b8ff" d="M309.85,-439.72C318.25,-426.92 330.87,-402.74 320.5,-385 311.82,-370.14 296.15,-359.86 281.04,-352.95"/>
<polygon fill="#63b8ff" stroke="#63b8ff" points="282.35,-349.71 271.77,-349.08 279.65,-356.17 282.35,-349.71"/>
</a>
</g>
</g>
<!-- Node28 -->
<g id="Node000028" class="node">
<title>Node28</title>
<g id="a_Node000028"><a xlink:title=" ">
<polygon fill="#e0e0e0" stroke="#999999" points="379,-239 286,-239 286,-220 379,-220 379,-239"/>
<text text-anchor="middle" x="332.5" y="-227" font-family="Helvetica,sans-Serif" font-size="10.00">unordered_map</text>
</a>
</g>
</g>
<!-- Node3&#45;&gt;Node28 -->
<g id="edge34_Node000003_Node000028" class="edge">
<title>Node3&#45;&gt;Node28</title>
<g id="a_edge34_Node000003_Node000028"><a xlink:title=" ">
<path fill="none" stroke="#63b8ff" d="M312.25,-439.9C320.06,-431.56 330.95,-418.13 335.5,-404 352.94,-349.88 343.03,-281.25 336.62,-248.93"/>
<polygon fill="#63b8ff" stroke="#63b8ff" points="340.04,-248.15 334.55,-239.09 333.19,-249.6 340.04,-248.15"/>
</a>
</g>
</g>
<!-- Node46 -->
<g id="Node000046" class="node">
<title>Node46</title>
<g id="a_Node000046"><a xlink:title=" ">
<polygon fill="#e0e0e0" stroke="#999999" points="207.5,-404 157.5,-404 157.5,-385 207.5,-385 207.5,-404"/>
<text text-anchor="middle" x="182.5" y="-392" font-family="Helvetica,sans-Serif" font-size="10.00">chrono</text>
</a>
</g>
</g>
<!-- Node3&#45;&gt;Node46 -->
<g id="edge33_Node000003_Node000046" class="edge">
<title>Node3&#45;&gt;Node46</title>
<g id="a_edge33_Node000003_Node000046"><a xlink:title=" ">
<path fill="none" stroke="#63b8ff" d="M284.06,-439.98C264.51,-431.42 234.12,-418.11 211.68,-408.28"/>
<polygon fill="#63b8ff" stroke="#63b8ff" points="212.86,-404.98 202.29,-404.17 210.05,-411.39 212.86,-404.98"/>
</a>
</g>
</g>
<!-- Node47 -->
<g id="Node000047" class="node">
<title>Node47</title>
<g id="a_Node000047"><a xlink:title=" ">
<polygon fill="#e0e0e0" stroke="#999999" points="311.5,-404 225.5,-404 225.5,-385 311.5,-385 311.5,-404"/>
<text text-anchor="middle" x="268.5" y="-392" font-family="Helvetica,sans-Serif" font-size="10.00">unordered_set</text>
</a>
</g>
</g>
<!-- Node3&#45;&gt;Node47 -->
<g id="edge35_Node000003_Node000047" class="edge">
<title>Node3&#45;&gt;Node47</title>
<g id="a_edge35_Node000003_Node000047"><a xlink:title=" ">
<path fill="none" stroke="#63b8ff" d="M297.72,-439.75C292.88,-432.42 285.82,-421.73 279.86,-412.7"/>
<polygon fill="#63b8ff" stroke="#63b8ff" points="282.6,-410.5 274.17,-404.09 276.76,-414.36 282.6,-410.5"/>
</a>
</g>
</g>
<!-- Node5 -->
<g id="Node000005" class="node">
<title>Node5</title>
<g id="a_Node000005"><a xlink:href="mathematical__types_8h.html" target="_top" xlink:title="Mathematical types.">
<polygon fill="white" stroke="#666666" points="138.5,-294 12.5,-294 12.5,-275 138.5,-275 138.5,-294"/>
<text text-anchor="middle" x="75.5" y="-282" font-family="Helvetica,sans-Serif" font-size="10.00">mathematical_types.h</text>
</a>
</g>
</g>
<!-- Node4&#45;&gt;Node5 -->
<g id="edge4_Node000004_Node000005" class="edge">
<title>Node4&#45;&gt;Node5</title>
<g id="a_edge4_Node000004_Node000005"><a xlink:title=" ">
<path fill="none" stroke="#63b8ff" d="M69.99,-384.66C70.96,-367.17 73.15,-327.8 74.46,-304.27"/>
<polygon fill="#63b8ff" stroke="#63b8ff" points="77.96,-304.34 75.02,-294.16 70.97,-303.95 77.96,-304.34"/>
</a>
</g>
</g>
<!-- Node4&#45;&gt;Node42 -->
<g id="edge20_Node000004_Node000042" class="edge">
<title>Node4&#45;&gt;Node42</title>
<g id="a_edge20_Node000004_Node000042"><a xlink:title=" ">
<path fill="none" stroke="#63b8ff" d="M97.13,-384.98C126.01,-376.09 171.51,-362.07 203.7,-352.15"/>
<polygon fill="#63b8ff" stroke="#63b8ff" points="205.12,-355.37 213.65,-349.08 203.06,-348.68 205.12,-355.37"/>
</a>
</g>
</g>
<!-- Node6 -->
<g id="Node000006" class="node">
<title>Node6</title>
<g id="a_Node000006"><a xlink:href="expr__cast_8h.html" target="_top" xlink:title="Templated functions to cast to specific exprt&#45;derived classes.">
<polygon fill="white" stroke="#666666" points="115,-239 42,-239 42,-220 115,-220 115,-239"/>
<text text-anchor="middle" x="78.5" y="-227" font-family="Helvetica,sans-Serif" font-size="10.00">expr_cast.h</text>
</a>
</g>
</g>
<!-- Node5&#45;&gt;Node6 -->
<g id="edge5_Node000005_Node000006" class="edge">
<title>Node5&#45;&gt;Node6</title>
<g id="a_edge5_Node000005_Node000006"><a xlink:title=" ">
<path fill="none" stroke="#63b8ff" d="M76,-274.75C76.39,-267.8 76.95,-257.85 77.45,-249.13"/>
<polygon fill="#63b8ff" stroke="#63b8ff" points="80.94,-249.27 78.01,-239.09 73.95,-248.88 80.94,-249.27"/>
</a>
</g>
</g>
<!-- Node10 -->
<g id="Node000010" class="node">
<title>Node10</title>
<g id="a_Node000010"><a xlink:href="src_2util_2invariant_8h.html" target="_top" xlink:title=" ">
<polygon fill="#fff0f0" stroke="red" points="420,-184 351,-184 351,-165 420,-165 420,-184"/>
<text text-anchor="middle" x="385.5" y="-172" font-family="Helvetica,sans-Serif" font-size="10.00">invariant.h</text>
</a>
</g>
</g>
<!-- Node5&#45;&gt;Node10 -->
<g id="edge18_Node000005_Node000010" class="edge">
<title>Node5&#45;&gt;Node10</title>
<g id="a_edge18_Node000005_Node000010"><a xlink:title=" ">
<path fill="none" stroke="#63b8ff" d="M99.93,-274.97C134.86,-262.77 201.09,-239.65 257.5,-220 289.28,-208.93 325.5,-196.34 351.28,-187.39"/>
<polygon fill="#63b8ff" stroke="#63b8ff" points="352.66,-190.61 360.96,-184.02 350.36,-184 352.66,-190.61"/>
</a>
</g>
</g>
<!-- Node16 -->
<g id="Node000016" class="node">
<title>Node16</title>
<g id="a_Node000016"><a xlink:href="type_8h.html" target="_top" xlink:title="Defines typet, type_with_subtypet and type_with_subtypest.">
<polygon fill="#fff0f0" stroke="red" points="151,-129 104,-129 104,-110 151,-110 151,-129"/>
<text text-anchor="middle" x="127.5" y="-117" font-family="Helvetica,sans-Serif" font-size="10.00">type.h</text>
</a>
</g>
</g>
<!-- Node5&#45;&gt;Node16 -->
<g id="edge19_Node000005_Node000016" class="edge">
<title>Node5&#45;&gt;Node16</title>
<g id="a_edge19_Node000005_Node000016"><a xlink:title=" ">
<path fill="none" stroke="#63b8ff" d="M63.01,-274.93C52.63,-266.99 38.62,-254.14 32.5,-239 25.32,-221.24 31.39,-177.73 40.5,-165 53.31,-147.11 75.47,-135.92 94.21,-129.24"/>
<polygon fill="#63b8ff" stroke="#63b8ff" points="95.51,-132.5 103.92,-126.06 93.33,-125.85 95.51,-132.5"/>
</a>
</g>
</g>
<!-- Node7 -->
<g id="Node000007" class="node">
<title>Node7</title>
<g id="a_Node000007"><a xlink:title=" ">
<polygon fill="#e0e0e0" stroke="#999999" points="107,-184 50,-184 50,-165 107,-165 107,-184"/>
<text text-anchor="middle" x="78.5" y="-172" font-family="Helvetica,sans-Serif" font-size="10.00">typeinfo</text>
</a>
</g>
</g>
<!-- Node6&#45;&gt;Node7 -->
<g id="edge6_Node000006_Node000007" class="edge">
<title>Node6&#45;&gt;Node7</title>
<g id="a_edge6_Node000006_Node000007"><a xlink:title=" ">
<path fill="none" stroke="#63b8ff" d="M78.5,-219.75C78.5,-212.8 78.5,-202.85 78.5,-194.13"/>
<polygon fill="#63b8ff" stroke="#63b8ff" points="82,-194.09 78.5,-184.09 75,-194.09 82,-194.09"/>
</a>
</g>
</g>
<!-- Node8 -->
<g id="Node000008" class="node">
<title>Node8</title>
<g id="a_Node000008"><a xlink:title=" ">
<polygon fill="#e0e0e0" stroke="#999999" points="232,-19 163,-19 163,0 232,0 232,-19"/>
<text text-anchor="middle" x="197.5" y="-7" font-family="Helvetica,sans-Serif" font-size="10.00">type_traits</text>
</a>
</g>
</g>
<!-- Node6&#45;&gt;Node8 -->
<g id="edge7_Node000006_Node000008" class="edge">
<title>Node6&#45;&gt;Node8</title>
<g id="a_edge7_Node000006_Node000008"><a xlink:title=" ">
<path fill="none" stroke="#63b8ff" d="M67.15,-219.89C53.05,-208.07 31.85,-185.89 40.5,-165 67.48,-99.86 137.04,-48.41 173.84,-24.72"/>
<polygon fill="#63b8ff" stroke="#63b8ff" points="175.85,-27.59 182.45,-19.3 172.12,-21.67 175.85,-27.59"/>
</a>
</g>
</g>
<!-- Node9 -->
<g id="Node000009" class="node">
<title>Node9</title>
<g id="a_Node000009"><a xlink:title=" ">
<polygon fill="#e0e0e0" stroke="#999999" points="234,-129 169,-129 169,-110 234,-110 234,-129"/>
<text text-anchor="middle" x="201.5" y="-117" font-family="Helvetica,sans-Serif" font-size="10.00">functional</text>
</a>
</g>
</g>
<!-- Node6&#45;&gt;Node9 -->
<g id="edge8_Node000006_Node000009" class="edge">
<title>Node6&#45;&gt;Node9</title>
<g id="a_edge8_Node000006_Node000009"><a xlink:title=" ">
<path fill="none" stroke="#63b8ff" d="M88.57,-219.66C109.48,-201.3 157.87,-158.81 184,-135.87"/>
<polygon fill="#63b8ff" stroke="#63b8ff" points="186.43,-138.39 191.64,-129.16 181.82,-133.13 186.43,-138.39"/>
</a>
</g>
</g>
<!-- Node6&#45;&gt;Node10 -->
<g id="edge9_Node000006_Node000010" class="edge">
<title>Node6&#45;&gt;Node10</title>
<g id="a_edge9_Node000006_Node000010"><a xlink:title=" ">
<path fill="none" stroke="#63b8ff" d="M115.23,-222.16C171.65,-212.42 279.5,-193.8 340.52,-183.27"/>
<polygon fill="#63b8ff" stroke="#63b8ff" points="341.36,-186.67 350.62,-181.52 340.17,-179.77 341.36,-186.67"/>
</a>
</g>
</g>
<!-- Node14 -->
<g id="Node000014" class="node">
<title>Node14</title>
<g id="a_Node000014"><a xlink:href="expr_8h.html" target="_top" xlink:title=" ">
<polygon fill="#fff0f0" stroke="red" points="211,-184 164,-184 164,-165 211,-165 211,-184"/>
<text text-anchor="middle" x="187.5" y="-172" font-family="Helvetica,sans-Serif" font-size="10.00">expr.h</text>
</a>
</g>
</g>
<!-- Node6&#45;&gt;Node14 -->
<g id="edge13_Node000006_Node000014" class="edge">
<title>Node6&#45;&gt;Node14</title>
<g id="a_edge13_Node000006_Node000014"><a xlink:title=" ">
<path fill="none" stroke="#63b8ff" d="M96.01,-219.98C113.47,-211.5 140.51,-198.35 160.67,-188.54"/>
<polygon fill="#63b8ff" stroke="#63b8ff" points="162.21,-191.69 169.67,-184.17 159.14,-185.4 162.21,-191.69"/>
</a>
</g>
</g>
<!-- Node10&#45;&gt;Node8 -->
<g id="edge12_Node000010_Node000008" class="edge">
<title>Node10&#45;&gt;Node8</title>
<g id="a_edge12_Node000010_Node000008"><a xlink:title=" ">
<path fill="none" stroke="#63b8ff" d="M375.66,-164.97C345.59,-138.9 254.66,-60.06 215.62,-26.21"/>
<polygon fill="#63b8ff" stroke="#63b8ff" points="217.55,-23.25 207.7,-19.34 212.96,-28.54 217.55,-23.25"/>
</a>
</g>
</g>
<!-- Node12 -->
<g id="Node000012" class="node">
<title>Node12</title>
<g id="a_Node000012"><a xlink:title=" ">
<polygon fill="#e0e0e0" stroke="#999999" points="722.5,-129 666.5,-129 666.5,-110 722.5,-110 722.5,-129"/>
<text text-anchor="middle" x="694.5" y="-117" font-family="Helvetica,sans-Serif" font-size="10.00">sstream</text>
</a>
</g>
</g>
<!-- Node10&#45;&gt;Node12 -->
<g id="edge10_Node000010_Node000012" class="edge">
<title>Node10&#45;&gt;Node12</title>
<g id="a_edge10_Node000010_Node000012"><a xlink:title=" ">
<path fill="none" stroke="#63b8ff" d="M420.05,-167.57C478.26,-157.59 595.45,-137.49 656.14,-127.08"/>
<polygon fill="#63b8ff" stroke="#63b8ff" points="656.81,-130.52 666.08,-125.38 655.63,-123.62 656.81,-130.52"/>
</a>
</g>
</g>
<!-- Node13 -->
<g id="Node000013" class="node">
<title>Node13</title>
<g id="a_Node000013"><a xlink:title=" ">
<polygon fill="#e0e0e0" stroke="#999999" points="559.5,-129 515.5,-129 515.5,-110 559.5,-110 559.5,-129"/>
<text text-anchor="middle" x="537.5" y="-117" font-family="Helvetica,sans-Serif" font-size="10.00">string</text>
</a>
</g>
</g>
<!-- Node10&#45;&gt;Node13 -->
<g id="edge11_Node000010_Node000013" class="edge">
<title>Node10&#45;&gt;Node13</title>
<g id="a_edge11_Node000010_Node000013"><a xlink:title=" ">
<path fill="none" stroke="#63b8ff" d="M409.92,-164.98C435.9,-155.93 477.09,-141.56 505.61,-131.62"/>
<polygon fill="#63b8ff" stroke="#63b8ff" points="506.83,-134.9 515.12,-128.3 504.53,-128.29 506.83,-134.9"/>
</a>
</g>
</g>
<!-- Node14&#45;&gt;Node9 -->
<g id="edge17_Node000014_Node000009" class="edge">
<title>Node14&#45;&gt;Node9</title>
<g id="a_edge17_Node000014_Node000009"><a xlink:title=" ">
<path fill="none" stroke="#63b8ff" d="M189.81,-164.75C191.67,-157.72 194.34,-147.62 196.65,-138.84"/>
<polygon fill="#63b8ff" stroke="#63b8ff" points="200.06,-139.65 199.23,-129.09 193.29,-137.86 200.06,-139.65"/>
</a>
</g>
</g>
<!-- Node14&#45;&gt;Node16 -->
<g id="edge14_Node000014_Node000016" class="edge">
<title>Node14&#45;&gt;Node16</title>
<g id="a_edge14_Node000014_Node000016"><a xlink:title=" ">
<path fill="none" stroke="#63b8ff" d="M177.86,-164.98C168.99,-157.15 155.63,-145.34 144.89,-135.86"/>
<polygon fill="#63b8ff" stroke="#63b8ff" points="147.13,-133.17 137.32,-129.17 142.49,-138.41 147.13,-133.17"/>
</a>
</g>
</g>
<!-- Node37 -->
<g id="Node000037" class="node">
<title>Node37</title>
<g id="a_Node000037"><a xlink:href="validate_8h.html" target="_top" xlink:title=" ">
<polygon fill="#fff0f0" stroke="red" points="230,-74 165,-74 165,-55 230,-55 230,-74"/>
<text text-anchor="middle" x="197.5" y="-62" font-family="Helvetica,sans-Serif" font-size="10.00">validate.h</text>
</a>
</g>
</g>
<!-- Node16&#45;&gt;Node37 -->
<g id="edge15_Node000016_Node000037" class="edge">
<title>Node16&#45;&gt;Node37</title>
<g id="a_edge15_Node000016_Node000037"><a xlink:title=" ">
<path fill="none" stroke="#63b8ff" d="M138.75,-109.98C149.3,-102 165.3,-89.88 177.94,-80.31"/>
<polygon fill="#63b8ff" stroke="#63b8ff" points="180.19,-83 186.05,-74.17 175.96,-77.42 180.19,-83"/>
</a>
</g>
</g>
<!-- Node37&#45;&gt;Node8 -->
<g id="edge16_Node000037_Node000008" class="edge">
<title>Node37&#45;&gt;Node8</title>
<g id="a_edge16_Node000037_Node000008"><a xlink:title=" ">
<path fill="none" stroke="#63b8ff" d="M197.5,-54.75C197.5,-47.8 197.5,-37.85 197.5,-29.13"/>
<polygon fill="#63b8ff" stroke="#63b8ff" points="201,-29.09 197.5,-19.09 194,-29.09 201,-29.09"/>
</a>
</g>
</g>
<!-- Node42&#45;&gt;Node6 -->
<g id="edge21_Node000042_Node000006" class="edge">
<title>Node42&#45;&gt;Node6</title>
<g id="a_edge21_Node000042_Node000006"><a xlink:title=" ">
<path fill="none" stroke="#63b8ff" d="M229.09,-329.99C211.16,-317.73 176.92,-294.42 147.5,-275 131.94,-264.73 114.26,-253.33 100.7,-244.65"/>
<polygon fill="#63b8ff" stroke="#63b8ff" points="102.35,-241.55 92.04,-239.11 98.58,-247.45 102.35,-241.55"/>
</a>
</g>
</g>
<!-- Node42&#45;&gt;Node10 -->
<g id="edge22_Node000042_Node000010" class="edge">
<title>Node42&#45;&gt;Node10</title>
<g id="a_edge22_Node000042_Node000010"><a xlink:title=" ">
<path fill="none" stroke="#63b8ff" d="M266.96,-329.91C301.76,-316.63 362.79,-287.45 388.5,-239 395.78,-225.29 394.15,-207.48 391.21,-194.21"/>
<polygon fill="#63b8ff" stroke="#63b8ff" points="394.54,-193.1 388.6,-184.33 387.77,-194.89 394.54,-193.1"/>
</a>
</g>
</g>
<!-- Node43 -->
<g id="Node000043" class="node">
<title>Node43</title>
<g id="a_Node000043"><a xlink:href="std__types_8h.html" target="_top" xlink:title="Pre&#45;defined types.">
<polygon fill="white" stroke="#666666" points="278,-294 205,-294 205,-275 278,-275 278,-294"/>
<text text-anchor="middle" x="241.5" y="-282" font-family="Helvetica,sans-Serif" font-size="10.00">std_types.h</text>
</a>
</g>
</g>
<!-- Node42&#45;&gt;Node43 -->
<g id="edge23_Node000042_Node000043" class="edge">
<title>Node42&#45;&gt;Node43</title>
<g id="a_edge23_Node000042_Node000043"><a xlink:title=" ">
<path fill="none" stroke="#63b8ff" d="M241.5,-329.75C241.5,-322.8 241.5,-312.85 241.5,-304.13"/>
<polygon fill="#63b8ff" stroke="#63b8ff" points="245,-304.09 241.5,-294.09 238,-304.09 245,-304.09"/>
</a>
</g>
</g>
<!-- Node43&#45;&gt;Node6 -->
<g id="edge25_Node000043_Node000006" class="edge">
<title>Node43&#45;&gt;Node6</title>
<g id="a_edge25_Node000043_Node000006"><a xlink:title=" ">
<path fill="none" stroke="#63b8ff" d="M215.31,-274.98C188.06,-266.13 145.2,-252.19 114.72,-242.28"/>
<polygon fill="#63b8ff" stroke="#63b8ff" points="115.49,-238.85 104.89,-239.08 113.32,-245.5 115.49,-238.85"/>
</a>
</g>
</g>
<!-- Node43&#45;&gt;Node10 -->
<g id="edge26_Node000043_Node000010" class="edge">
<title>Node43&#45;&gt;Node10</title>
<g id="a_edge26_Node000043_Node000010"><a xlink:title=" ">
<path fill="none" stroke="#63b8ff" d="M244.29,-274.92C249.07,-261.48 260.01,-235.43 277.5,-220 295.55,-204.07 320.08,-193.35 341.2,-186.43"/>
<polygon fill="#63b8ff" stroke="#63b8ff" points="342.42,-189.71 350.94,-183.42 340.35,-183.03 342.42,-189.71"/>
</a>
</g>
</g>
<!-- Node43&#45;&gt;Node14 -->
<g id="edge24_Node000043_Node000014" class="edge">
<title>Node43&#45;&gt;Node14</title>
<g id="a_edge24_Node000043_Node000014"><a xlink:title=" ">
<path fill="none" stroke="#63b8ff" d="M232.58,-274.73C224.44,-266.28 212.63,-252.76 205.5,-239 198.16,-224.84 193.48,-207.3 190.74,-194.24"/>
<polygon fill="#63b8ff" stroke="#63b8ff" points="194.12,-193.29 188.81,-184.12 187.24,-194.6 194.12,-193.29"/>
</a>
</g>
</g>
<!-- Node43&#45;&gt;Node37 -->
<g id="edge30_Node000043_Node000037" class="edge">
<title>Node43&#45;&gt;Node37</title>
<g id="a_edge30_Node000043_Node000037"><a xlink:title=" ">
<path fill="none" stroke="#63b8ff" d="M243.96,-274.73C250.86,-248.44 268.31,-168.52 243.5,-110 238.52,-98.25 228.75,-88.09 219.49,-80.45"/>
<polygon fill="#63b8ff" stroke="#63b8ff" points="221.35,-77.47 211.28,-74.18 217.1,-83.03 221.35,-77.47"/>
</a>
</g>
</g>
<!-- Node44 -->
<g id="Node000044" class="node">
<title>Node44</title>
<g id="a_Node000044"><a xlink:href="mp__arith_8h.html" target="_top" xlink:title=" ">
<polygon fill="#fff0f0" stroke="red" points="643,-239 574,-239 574,-220 643,-220 643,-239"/>
<text text-anchor="middle" x="608.5" y="-227" font-family="Helvetica,sans-Serif" font-size="10.00">mp_arith.h</text>
</a>
</g>
</g>
<!-- Node43&#45;&gt;Node44 -->
<g id="edge27_Node000043_Node000044" class="edge">
<title>Node43&#45;&gt;Node44</title>
<g id="a_edge27_Node000043_Node000044"><a xlink:title=" ">
<path fill="none" stroke="#63b8ff" d="M278.03,-278.22C345.68,-268.45 490.26,-247.58 563.7,-236.97"/>
<polygon fill="#63b8ff" stroke="#63b8ff" points="564.6,-240.38 574,-235.48 563.6,-233.45 564.6,-240.38"/>
</a>
</g>
</g>
<!-- Node43&#45;&gt;Node28 -->
<g id="edge31_Node000043_Node000028" class="edge">
<title>Node43&#45;&gt;Node28</title>
<g id="a_edge31_Node000043_Node000028"><a xlink:title=" ">
<path fill="none" stroke="#63b8ff" d="M256.12,-274.98C270.36,-266.69 292.25,-253.94 308.95,-244.22"/>
<polygon fill="#63b8ff" stroke="#63b8ff" points="310.73,-247.23 317.61,-239.17 307.21,-241.18 310.73,-247.23"/>
</a>
</g>
</g>
<!-- Node44&#45;&gt;Node13 -->
<g id="edge29_Node000044_Node000013" class="edge">
<title>Node44&#45;&gt;Node13</title>
<g id="a_edge29_Node000044_Node000013"><a xlink:title=" ">
<path fill="none" stroke="#63b8ff" d="M605.38,-219.85C600.61,-207.2 590.76,-183.2 578.5,-165 571.54,-154.68 562.24,-144.38 554.26,-136.29"/>
<polygon fill="#63b8ff" stroke="#63b8ff" points="556.44,-133.52 546.85,-129.02 551.54,-138.52 556.44,-133.52"/>
</a>
</g>
</g>
<!-- Node23 -->
<g id="Node000023" class="node">
<title>Node23</title>
<g id="a_Node000023"><a xlink:title=" ">
<polygon fill="#e0e0e0" stroke="#999999" points="673.5,-184 625.5,-184 625.5,-165 673.5,-165 673.5,-184"/>
<text text-anchor="middle" x="649.5" y="-172" font-family="Helvetica,sans-Serif" font-size="10.00">iosfwd</text>
</a>
</g>
</g>
<!-- Node44&#45;&gt;Node23 -->
<g id="edge28_Node000044_Node000023" class="edge">
<title>Node44&#45;&gt;Node23</title>
<g id="a_edge28_Node000044_Node000023"><a xlink:title=" ">
<path fill="none" stroke="#63b8ff" d="M615.27,-219.75C621.06,-212.26 629.56,-201.28 636.64,-192.13"/>
<polygon fill="#63b8ff" stroke="#63b8ff" points="639.51,-194.14 642.86,-184.09 633.97,-189.86 639.51,-194.14"/>
</a>
</g>
</g>
<!-- Node48&#45;&gt;Node23 -->
<g id="edge38_Node000048_Node000023" class="edge">
<title>Node48&#45;&gt;Node23</title>
<g id="a_edge38_Node000048_Node000023"><a xlink:title=" ">
<path fill="none" stroke="#63b8ff" d="M618.65,-494.94C635.89,-477.84 671.5,-437.44 671.5,-395.5 671.5,-395.5 671.5,-395.5 671.5,-283.5 671.5,-251.4 662.05,-214.99 655.54,-193.71"/>
<polygon fill="#63b8ff" stroke="#63b8ff" points="658.84,-192.53 652.47,-184.06 652.17,-194.65 658.84,-192.53"/>
</a>
</g>
</g>
<!-- Node25 -->
<g id="Node000025" class="node">
<title>Node25</title>
<g id="a_Node000025"><a xlink:title=" ">
<polygon fill="#e0e0e0" stroke="#999999" points="636,-459 583,-459 583,-440 636,-440 636,-459"/>
<text text-anchor="middle" x="609.5" y="-447" font-family="Helvetica,sans-Serif" font-size="10.00">cstddef</text>
</a>
</g>
</g>
<!-- Node48&#45;&gt;Node25 -->
<g id="edge37_Node000048_Node000025" class="edge">
<title>Node48&#45;&gt;Node25</title>
<g id="a_edge37_Node000048_Node000025"><a xlink:title=" ">
<path fill="none" stroke="#63b8ff" d="M609.5,-494.75C609.5,-487.8 609.5,-477.85 609.5,-469.13"/>
<polygon fill="#63b8ff" stroke="#63b8ff" points="613,-469.09 609.5,-459.09 606,-469.09 613,-469.09"/>
</a>
</g>
</g>
<!-- Node49&#45;&gt;Node9 -->
<g id="edge48_Node000049_Node000009" class="edge">
<title>Node49&#45;&gt;Node9</title>
<g id="a_edge48_Node000049_Node000009"><a xlink:title=" ">
<path fill="none" stroke="#63b8ff" d="M481.43,-274.87C461.09,-262.45 422.2,-238.95 388.5,-220 331.42,-187.9 263.26,-152.31 227.06,-133.62"/>
<polygon fill="#63b8ff" stroke="#63b8ff" points="228.64,-130.5 218.15,-129.03 225.44,-136.72 228.64,-130.5"/>
</a>
</g>
</g>
<!-- Node50 -->
<g id="Node000050" class="node">
<title>Node50</title>
<g id="a_Node000050"><a xlink:href="format_8h.html" target="_top" xlink:title=" ">
<polygon fill="white" stroke="#666666" points="759,-239 700,-239 700,-220 759,-220 759,-239"/>
<text text-anchor="middle" x="729.5" y="-227" font-family="Helvetica,sans-Serif" font-size="10.00">format.h</text>
</a>
</g>
</g>
<!-- Node49&#45;&gt;Node50 -->
<g id="edge40_Node000049_Node000050" class="edge">
<title>Node49&#45;&gt;Node50</title>
<g id="a_edge40_Node000049_Node000050"><a xlink:title=" ">
<path fill="none" stroke="#63b8ff" d="M533.1,-274.98C576.03,-265.26 645.99,-249.42 689.79,-239.49"/>
<polygon fill="#63b8ff" stroke="#63b8ff" points="690.81,-242.85 699.79,-237.23 689.27,-236.02 690.81,-242.85"/>
</a>
</g>
</g>
<!-- Node19 -->
<g id="Node000019" class="node">
<title>Node19</title>
<g id="a_Node000019"><a xlink:href="irep_8h.html" target="_top" xlink:title=" ">
<polygon fill="#fff0f0" stroke="red" points="517.5,-239 473.5,-239 473.5,-220 517.5,-220 517.5,-239"/>
<text text-anchor="middle" x="495.5" y="-227" font-family="Helvetica,sans-Serif" font-size="10.00">irep.h</text>
</a>
</g>
</g>
<!-- Node49&#45;&gt;Node19 -->
<g id="edge44_Node000049_Node000019" class="edge">
<title>Node49&#45;&gt;Node19</title>
<g id="a_edge44_Node000049_Node000019"><a xlink:title=" ">
<path fill="none" stroke="#63b8ff" d="M495.5,-274.75C495.5,-267.8 495.5,-257.85 495.5,-249.13"/>
<polygon fill="#63b8ff" stroke="#63b8ff" points="499,-249.09 495.5,-239.09 492,-249.09 499,-249.09"/>
</a>
</g>
</g>
<!-- Node50&#45;&gt;Node12 -->
<g id="edge42_Node000050_Node000012" class="edge">
<title>Node50&#45;&gt;Node12</title>
<g id="a_edge42_Node000050_Node000012"><a xlink:title=" ">
<path fill="none" stroke="#63b8ff" d="M728.2,-219.7C726.22,-207.29 721.99,-184.02 715.5,-165 712.4,-155.9 707.96,-146.21 703.97,-138.2"/>
<polygon fill="#63b8ff" stroke="#63b8ff" points="706.98,-136.4 699.28,-129.12 700.76,-139.61 706.98,-136.4"/>
</a>
</g>
</g>
<!-- Node50&#45;&gt;Node13 -->
<g id="edge43_Node000050_Node000013" class="edge">
<title>Node50&#45;&gt;Node13</title>
<g id="a_edge43_Node000050_Node000013"><a xlink:title=" ">
<path fill="none" stroke="#63b8ff" d="M725.33,-219.72C718.37,-206 703.1,-179.57 682.5,-165 648.31,-140.82 600.65,-129.51 569.44,-124.41"/>
<polygon fill="#63b8ff" stroke="#63b8ff" points="569.94,-120.94 559.53,-122.91 568.9,-127.87 569.94,-120.94"/>
</a>
</g>
</g>
<!-- Node50&#45;&gt;Node23 -->
<g id="edge41_Node000050_Node000023" class="edge">
<title>Node50&#45;&gt;Node23</title>
<g id="a_edge41_Node000050_Node000023"><a xlink:title=" ">
<path fill="none" stroke="#63b8ff" d="M716.65,-219.98C704.36,-211.84 685.59,-199.41 671.02,-189.76"/>
<polygon fill="#63b8ff" stroke="#63b8ff" points="672.86,-186.78 662.59,-184.17 668.99,-192.61 672.86,-186.78"/>
</a>
</g>
</g>
<!-- Node19&#45;&gt;Node10 -->
<g id="edge47_Node000019_Node000010" class="edge">
<title>Node19&#45;&gt;Node10</title>
<g id="a_edge47_Node000019_Node000010"><a xlink:title=" ">
<path fill="none" stroke="#63b8ff" d="M477.83,-219.98C460.21,-211.5 432.92,-198.35 412.57,-188.54"/>
<polygon fill="#63b8ff" stroke="#63b8ff" points="414.02,-185.36 403.49,-184.17 410.98,-191.66 414.02,-185.36"/>
</a>
</g>
</g>
<!-- Node19&#45;&gt;Node13 -->
<g id="edge45_Node000019_Node000013" class="edge">
<title>Node19&#45;&gt;Node13</title>
<g id="a_edge45_Node000019_Node000013"><a xlink:title=" ">
<path fill="none" stroke="#63b8ff" d="M497.36,-219.67C500.13,-207.22 505.83,-183.9 513.5,-165 517.25,-155.75 522.41,-145.93 526.98,-137.88"/>
<polygon fill="#63b8ff" stroke="#63b8ff" points="530.1,-139.49 532.13,-129.09 524.06,-135.95 530.1,-139.49"/>
</a>
</g>
</g>
<!-- Node20 -->
<g id="Node000020" class="node">
<title>Node20</title>
<g id="a_Node000020"><a xlink:title=" ">
<polygon fill="#e0e0e0" stroke="#999999" points="569,-184 522,-184 522,-165 569,-165 569,-184"/>
<text text-anchor="middle" x="545.5" y="-172" font-family="Helvetica,sans-Serif" font-size="10.00">vector</text>
</a>
</g>
</g>
<!-- Node19&#45;&gt;Node20 -->
<g id="edge46_Node000019_Node000020" class="edge">
<title>Node19&#45;&gt;Node20</title>
<g id="a_edge46_Node000019_Node000020"><a xlink:title=" ">
<path fill="none" stroke="#63b8ff" d="M503.76,-219.75C510.96,-212.11 521.61,-200.82 530.35,-191.56"/>
<polygon fill="#63b8ff" stroke="#63b8ff" points="533.08,-193.76 537.4,-184.09 527.99,-188.96 533.08,-193.76"/>
</a>
</g>
</g>
<!-- Node51&#45;&gt;Node20 -->
<g id="edge50_Node000051_Node000020" class="edge">
<title>Node51&#45;&gt;Node20</title>
<g id="a_edge50_Node000051_Node000020"><a xlink:title=" ">
<path fill="none" stroke="#63b8ff" d="M564.42,-329.74C561.3,-304.31 552.2,-230.08 547.85,-194.69"/>
<polygon fill="#63b8ff" stroke="#63b8ff" points="551.27,-193.81 546.58,-184.31 544.32,-194.66 551.27,-193.81"/>
</a>
</g>
</g>
</g>
</svg>
