<?xml version="1.0" encoding="UTF-8" standalone="no"?>
<!DOCTYPE svg PUBLIC "-//W3C//DTD SVG 1.1//EN"
 "http://www.w3.org/Graphics/SVG/1.1/DTD/svg11.dtd">
<!-- Generated by graphviz version 2.43.0 (0)
 -->
<!-- Title: /home/runner/work/cbmc/cbmc/jbmc/src/java_bytecode/generic_parameter_specialization_map.h Pages: 1 -->
<svg width="808pt" height="225pt"
 viewBox="0.00 0.00 808.00 225.00" xmlns="http://www.w3.org/2000/svg" xmlns:xlink="http://www.w3.org/1999/xlink">
<g id="graph0" class="graph" transform="scale(1 1) rotate(0) translate(4 221)">
<title>/home/runner/work/cbmc/cbmc/jbmc/src/java_bytecode/generic_parameter_specialization_map.h</title>
<!-- Node1 -->
<g id="Node000001" class="node">
<title>Node1</title>
<g id="a_Node000001"><a xlink:title=" ">
<polygon fill="#999999" stroke="#666666" points="521.5,-217 300.5,-217 300.5,-176 521.5,-176 521.5,-217"/>
<text text-anchor="start" x="308.5" y="-205" font-family="Helvetica,sans-Serif" font-size="10.00">/home/runner/work/cbmc</text>
<text text-anchor="start" x="308.5" y="-194" font-family="Helvetica,sans-Serif" font-size="10.00">/cbmc/jbmc/src/java_bytecode</text>
<text text-anchor="middle" x="411" y="-183" font-family="Helvetica,sans-Serif" font-size="10.00">/generic_parameter_specialization_map.h</text>
</a>
</g>
</g>
<!-- Node2 -->
<g id="Node000002" class="node">
<title>Node2</title>
<g id="a_Node000002"><a xlink:href="ci__lazy__methods__needed_8cpp.html" target="_top" xlink:title="Context&#45;insensitive lazy methods container.">
<polygon fill="white" stroke="#666666" points="164,-134.5 0,-134.5 0,-93.5 164,-93.5 164,-134.5"/>
<text text-anchor="start" x="8" y="-122.5" font-family="Helvetica,sans-Serif" font-size="10.00">/home/runner/work/cbmc</text>
<text text-anchor="start" x="8" y="-111.5" font-family="Helvetica,sans-Serif" font-size="10.00">/cbmc/jbmc/src/java_bytecode</text>
<text text-anchor="middle" x="82" y="-100.5" font-family="Helvetica,sans-Serif" font-size="10.00">/ci_lazy_methods_needed.cpp</text>
</a>
</g>
</g>
<!-- Node1&#45;&gt;Node2 -->
<g id="edge1_Node000001_Node000002" class="edge">
<title>Node1&#45;&gt;Node2</title>
<g id="a_edge1_Node000001_Node000002"><a xlink:title=" ">
<path fill="none" stroke="#63b8ff" d="M313.55,-173.68C270.39,-163.78 219.07,-151.69 173,-140 166.17,-138.27 159.07,-136.41 151.98,-134.52"/>
<polygon fill="#63b8ff" stroke="#63b8ff" points="312.95,-177.13 323.48,-175.95 314.51,-170.31 312.95,-177.13"/>
</a>
</g>
</g>
<!-- Node3 -->
<g id="Node000003" class="node">
<title>Node3</title>
<g id="a_Node000003"><a xlink:href="generic__parameter__specialization__map_8cpp.html" target="_top" xlink:title=" ">
<polygon fill="white" stroke="#666666" points="414,-134.5 182,-134.5 182,-93.5 414,-93.5 414,-134.5"/>
<text text-anchor="start" x="190" y="-122.5" font-family="Helvetica,sans-Serif" font-size="10.00">/home/runner/work/cbmc</text>
<text text-anchor="start" x="190" y="-111.5" font-family="Helvetica,sans-Serif" font-size="10.00">/cbmc/jbmc/src/java_bytecode</text>
<text text-anchor="middle" x="298" y="-100.5" font-family="Helvetica,sans-Serif" font-size="10.00">/generic_parameter_specialization_map.cpp</text>
</a>
</g>
</g>
<!-- Node1&#45;&gt;Node3 -->
<g id="edge2_Node000001_Node000003" class="edge">
<title>Node1&#45;&gt;Node3</title>
<g id="a_edge2_Node000001_Node000003"><a xlink:title=" ">
<path fill="none" stroke="#63b8ff" d="M374.82,-169.72C358.92,-158.4 340.54,-145.31 325.75,-134.77"/>
<polygon fill="#63b8ff" stroke="#63b8ff" points="373.18,-172.86 383.36,-175.81 377.24,-167.15 373.18,-172.86"/>
</a>
</g>
</g>
<!-- Node4 -->
<g id="Node000004" class="node">
<title>Node4</title>
<g id="a_Node000004"><a xlink:href="generic__parameter__specialization__map__keys_8h.html" target="_top" xlink:title="Author: Diffblue Ltd.">
<polygon fill="white" stroke="#666666" points="617.5,-140 432.5,-140 432.5,-88 617.5,-88 617.5,-140"/>
<text text-anchor="start" x="440.5" y="-128" font-family="Helvetica,sans-Serif" font-size="10.00">/home/runner/work/cbmc</text>
<text text-anchor="start" x="440.5" y="-117" font-family="Helvetica,sans-Serif" font-size="10.00">/cbmc/jbmc/src/java_bytecode</text>
<text text-anchor="start" x="440.5" y="-106" font-family="Helvetica,sans-Serif" font-size="10.00">/generic_parameter_specialization</text>
<text text-anchor="middle" x="525" y="-95" font-family="Helvetica,sans-Serif" font-size="10.00">_map_keys.h</text>
</a>
</g>
</g>
<!-- Node1&#45;&gt;Node4 -->
<g id="edge3_Node000001_Node000004" class="edge">
<title>Node1&#45;&gt;Node4</title>
<g id="a_edge3_Node000001_Node000004"><a xlink:title=" ">
<path fill="none" stroke="#63b8ff" d="M447.39,-169.81C460.76,-160.36 475.88,-149.68 489.2,-140.28"/>
<polygon fill="#63b8ff" stroke="#63b8ff" points="445.04,-167.18 438.89,-175.81 449.08,-172.9 445.04,-167.18"/>
</a>
</g>
</g>
<!-- Node7 -->
<g id="Node000007" class="node">
<title>Node7</title>
<g id="a_Node000007"><a xlink:href="select__pointer__type_8cpp.html" target="_top" xlink:title="Handle selection of correct pointer type (for example changing abstract classes to concrete versions)...">
<polygon fill="white" stroke="#666666" points="800,-134.5 636,-134.5 636,-93.5 800,-93.5 800,-134.5"/>
<text text-anchor="start" x="644" y="-122.5" font-family="Helvetica,sans-Serif" font-size="10.00">/home/runner/work/cbmc</text>
<text text-anchor="start" x="644" y="-111.5" font-family="Helvetica,sans-Serif" font-size="10.00">/cbmc/jbmc/src/java_bytecode</text>
<text text-anchor="middle" x="718" y="-100.5" font-family="Helvetica,sans-Serif" font-size="10.00">/select_pointer_type.cpp</text>
</a>
</g>
</g>
<!-- Node1&#45;&gt;Node7 -->
<g id="edge6_Node000001_Node000007" class="edge">
<title>Node1&#45;&gt;Node7</title>
<g id="a_edge6_Node000001_Node000007"><a xlink:title=" ">
<path fill="none" stroke="#63b8ff" d="M498.15,-173.46C537.54,-163.4 584.66,-151.26 627,-140 633.49,-138.27 640.24,-136.46 646.99,-134.63"/>
<polygon fill="#63b8ff" stroke="#63b8ff" points="497.13,-170.11 488.31,-175.97 498.86,-176.89 497.13,-170.11"/>
</a>
</g>
</g>
<!-- Node5 -->
<g id="Node000005" class="node">
<title>Node5</title>
<g id="a_Node000005"><a xlink:href="generic__parameter__specialization__map__keys_8cpp.html" target="_top" xlink:title=" ">
<polygon fill="white" stroke="#666666" points="520.5,-52 335.5,-52 335.5,0 520.5,0 520.5,-52"/>
<text text-anchor="start" x="343.5" y="-40" font-family="Helvetica,sans-Serif" font-size="10.00">/home/runner/work/cbmc</text>
<text text-anchor="start" x="343.5" y="-29" font-family="Helvetica,sans-Serif" font-size="10.00">/cbmc/jbmc/src/java_bytecode</text>
<text text-anchor="start" x="343.5" y="-18" font-family="Helvetica,sans-Serif" font-size="10.00">/generic_parameter_specialization</text>
<text text-anchor="middle" x="428" y="-7" font-family="Helvetica,sans-Serif" font-size="10.00">_map_keys.cpp</text>
</a>
</g>
</g>
<!-- Node4&#45;&gt;Node5 -->
<g id="edge4_Node000004_Node000005" class="edge">
<title>Node4&#45;&gt;Node5</title>
<g id="a_edge4_Node000004_Node000005"><a xlink:title=" ">
<path fill="none" stroke="#63b8ff" d="M489.06,-81.13C478.32,-71.62 466.71,-61.32 456.52,-52.29"/>
<polygon fill="#63b8ff" stroke="#63b8ff" points="486.88,-83.88 496.68,-87.89 491.52,-78.64 486.88,-83.88"/>
</a>
</g>
</g>
<!-- Node6 -->
<g id="Node000006" class="node">
<title>Node6</title>
<g id="a_Node000006"><a xlink:href="java__object__factory_8cpp.html" target="_top" xlink:title=" ">
<polygon fill="white" stroke="#666666" points="703,-46.5 539,-46.5 539,-5.5 703,-5.5 703,-46.5"/>
<text text-anchor="start" x="547" y="-34.5" font-family="Helvetica,sans-Serif" font-size="10.00">/home/runner/work/cbmc</text>
<text text-anchor="start" x="547" y="-23.5" font-family="Helvetica,sans-Serif" font-size="10.00">/cbmc/jbmc/src/java_bytecode</text>
<text text-anchor="middle" x="621" y="-12.5" font-family="Helvetica,sans-Serif" font-size="10.00">/java_object_factory.cpp</text>
</a>
</g>
</g>
<!-- Node4&#45;&gt;Node6 -->
<g id="edge5_Node000004_Node000006" class="edge">
<title>Node4&#45;&gt;Node6</title>
<g id="a_edge5_Node000004_Node000006"><a xlink:title=" ">
<path fill="none" stroke="#63b8ff" d="M560.49,-81.21C573.47,-69.58 587.76,-56.77 599.2,-46.53"/>
<polygon fill="#63b8ff" stroke="#63b8ff" points="558.14,-78.61 553.03,-87.89 562.81,-83.83 558.14,-78.61"/>
</a>
</g>
</g>
</g>
</svg>
