<?xml version="1.0" encoding="UTF-8" standalone="no"?>
<!DOCTYPE svg PUBLIC "-//W3C//DTD SVG 1.1//EN"
 "http://www.w3.org/Graphics/SVG/1.1/DTD/svg11.dtd">
<!-- Generated by graphviz version 2.43.0 (0)
 -->
<!-- Title: /home/runner/work/cbmc/cbmc/src/goto&#45;cc/goto_cc_cmdline.h Pages: 1 -->
<svg width="2445pt" height="280pt"
 viewBox="0.00 0.00 2444.50 280.00" xmlns="http://www.w3.org/2000/svg" xmlns:xlink="http://www.w3.org/1999/xlink">
<g id="graph0" class="graph" transform="scale(1 1) rotate(0) translate(4 276)">
<title>/home/runner/work/cbmc/cbmc/src/goto&#45;cc/goto_cc_cmdline.h</title>
<!-- Node1 -->
<g id="Node000001" class="node">
<title>Node1</title>
<g id="a_Node000001"><a xlink:title="Command line interpretation for goto&#45;cc.">
<polygon fill="#999999" stroke="#666666" points="1382,-272 1244,-272 1244,-231 1382,-231 1382,-272"/>
<text text-anchor="start" x="1252" y="-260" font-family="Helvetica,sans-Serif" font-size="10.00">/home/runner/work/cbmc</text>
<text text-anchor="start" x="1252" y="-249" font-family="Helvetica,sans-Serif" font-size="10.00">/cbmc/src/goto&#45;cc/goto</text>
<text text-anchor="middle" x="1313" y="-238" font-family="Helvetica,sans-Serif" font-size="10.00">_cc_cmdline.h</text>
</a>
</g>
</g>
<!-- Node2 -->
<g id="Node000002" class="node">
<title>Node2</title>
<g id="a_Node000002"><a xlink:href="armcc__cmdline_8h.html" target="_top" xlink:title="A special command line object to mimic ARM&#39;s armcc.">
<polygon fill="white" stroke="#666666" points="274,-195 136,-195 136,-154 274,-154 274,-195"/>
<text text-anchor="start" x="144" y="-183" font-family="Helvetica,sans-Serif" font-size="10.00">/home/runner/work/cbmc</text>
<text text-anchor="start" x="144" y="-172" font-family="Helvetica,sans-Serif" font-size="10.00">/cbmc/src/goto&#45;cc/armcc</text>
<text text-anchor="middle" x="205" y="-161" font-family="Helvetica,sans-Serif" font-size="10.00">_cmdline.h</text>
</a>
</g>
</g>
<!-- Node1&#45;&gt;Node2 -->
<g id="edge1_Node000001_Node000002" class="edge">
<title>Node1&#45;&gt;Node2</title>
<g id="a_edge1_Node000001_Node000002"><a xlink:title=" ">
<path fill="none" stroke="#63b8ff" d="M1233.77,-251.37C1060.37,-252.14 634.59,-247.92 283,-195 280.1,-194.56 277.15,-194.07 274.18,-193.52"/>
<polygon fill="#63b8ff" stroke="#63b8ff" points="1233.85,-254.87 1243.83,-251.31 1233.81,-247.87 1233.85,-254.87"/>
</a>
</g>
</g>
<!-- Node7 -->
<g id="Node000007" class="node">
<title>Node7</title>
<g id="a_Node000007"><a xlink:href="as86__cmdline_8h.html" target="_top" xlink:title="A special command line object for as86 (of Bruce&#39;s C Compiler) Author: Michael Tautschnig Date: July ...">
<polygon fill="white" stroke="#666666" points="586,-195 448,-195 448,-154 586,-154 586,-195"/>
<text text-anchor="start" x="456" y="-183" font-family="Helvetica,sans-Serif" font-size="10.00">/home/runner/work/cbmc</text>
<text text-anchor="start" x="456" y="-172" font-family="Helvetica,sans-Serif" font-size="10.00">/cbmc/src/goto&#45;cc/as86</text>
<text text-anchor="middle" x="517" y="-161" font-family="Helvetica,sans-Serif" font-size="10.00">_cmdline.h</text>
</a>
</g>
</g>
<!-- Node1&#45;&gt;Node7 -->
<g id="edge7_Node000001_Node000007" class="edge">
<title>Node1&#45;&gt;Node7</title>
<g id="a_edge7_Node000001_Node000007"><a xlink:title=" ">
<path fill="none" stroke="#63b8ff" d="M1233.9,-248.72C1101.08,-244.76 825.17,-232.4 595,-195 592.11,-194.53 589.16,-194.01 586.2,-193.44"/>
<polygon fill="#63b8ff" stroke="#63b8ff" points="1233.89,-252.22 1243.98,-249.01 1234.09,-245.22 1233.89,-252.22"/>
</a>
</g>
</g>
<!-- Node9 -->
<g id="Node000009" class="node">
<title>Node9</title>
<g id="a_Node000009"><a xlink:href="as__cmdline_8h.html" target="_top" xlink:title="A special command line object for GNU Assembler Author: Michael Tautschnig Date: July 2016.">
<polygon fill="white" stroke="#666666" points="1148,-189.5 978,-189.5 978,-159.5 1148,-159.5 1148,-189.5"/>
<text text-anchor="start" x="986" y="-177.5" font-family="Helvetica,sans-Serif" font-size="10.00">/home/runner/work/cbmc</text>
<text text-anchor="middle" x="1063" y="-166.5" font-family="Helvetica,sans-Serif" font-size="10.00">/cbmc/src/goto&#45;cc/as_cmdline.h</text>
</a>
</g>
</g>
<!-- Node1&#45;&gt;Node9 -->
<g id="edge10_Node000001_Node000009" class="edge">
<title>Node1&#45;&gt;Node9</title>
<g id="a_edge10_Node000001_Node000009"><a xlink:title=" ">
<path fill="none" stroke="#63b8ff" d="M1238.14,-228.04C1196.52,-215.56 1146,-200.4 1109.94,-189.58"/>
<polygon fill="#63b8ff" stroke="#63b8ff" points="1237.38,-231.47 1247.97,-230.99 1239.4,-224.76 1237.38,-231.47"/>
</a>
</g>
</g>
<!-- Node11 -->
<g id="Node000011" class="node">
<title>Node11</title>
<g id="a_Node000011"><a xlink:href="as__mode_8cpp.html" target="_top" xlink:title="Assembler Mode.">
<polygon fill="white" stroke="#666666" points="774,-189.5 604,-189.5 604,-159.5 774,-159.5 774,-189.5"/>
<text text-anchor="start" x="612" y="-177.5" font-family="Helvetica,sans-Serif" font-size="10.00">/home/runner/work/cbmc</text>
<text text-anchor="middle" x="689" y="-166.5" font-family="Helvetica,sans-Serif" font-size="10.00">/cbmc/src/goto&#45;cc/as_mode.cpp</text>
</a>
</g>
</g>
<!-- Node1&#45;&gt;Node11 -->
<g id="edge13_Node000001_Node000011" class="edge">
<title>Node1&#45;&gt;Node11</title>
<g id="a_edge13_Node000001_Node000011"><a xlink:title=" ">
<path fill="none" stroke="#63b8ff" d="M1233.59,-244.68C1129.65,-236.5 942.02,-219.76 783,-195 773.04,-193.45 762.53,-191.54 752.3,-189.53"/>
<polygon fill="#63b8ff" stroke="#63b8ff" points="1233.44,-248.18 1243.68,-245.47 1233.99,-241.2 1233.44,-248.18"/>
</a>
</g>
</g>
<!-- Node12 -->
<g id="Node000012" class="node">
<title>Node12</title>
<g id="a_Node000012"><a xlink:href="bcc__cmdline_8h.html" target="_top" xlink:title="A special command line object for Bruce&#39;s C Compiler Author: Michael Tautschnig Date: July 2016.">
<polygon fill="white" stroke="#666666" points="430,-195 292,-195 292,-154 430,-154 430,-195"/>
<text text-anchor="start" x="300" y="-183" font-family="Helvetica,sans-Serif" font-size="10.00">/home/runner/work/cbmc</text>
<text text-anchor="start" x="300" y="-172" font-family="Helvetica,sans-Serif" font-size="10.00">/cbmc/src/goto&#45;cc/bcc</text>
<text text-anchor="middle" x="361" y="-161" font-family="Helvetica,sans-Serif" font-size="10.00">_cmdline.h</text>
</a>
</g>
</g>
<!-- Node1&#45;&gt;Node12 -->
<g id="edge14_Node000001_Node000012" class="edge">
<title>Node1&#45;&gt;Node12</title>
<g id="a_edge14_Node000001_Node000012"><a xlink:title=" ">
<path fill="none" stroke="#63b8ff" d="M1233.68,-250.27C1079.59,-248.75 729.42,-240.14 439,-195 436.1,-194.55 433.16,-194.04 430.19,-193.49"/>
<polygon fill="#63b8ff" stroke="#63b8ff" points="1233.96,-253.77 1243.99,-250.36 1234.02,-246.77 1233.96,-253.77"/>
</a>
</g>
</g>
<!-- Node14 -->
<g id="Node000014" class="node">
<title>Node14</title>
<g id="a_Node000014"><a xlink:href="gcc__cmdline_8h.html" target="_top" xlink:title="A special command line object for the gcc&#45;like options.">
<polygon fill="white" stroke="#666666" points="1772,-195 1634,-195 1634,-154 1772,-154 1772,-195"/>
<text text-anchor="start" x="1642" y="-183" font-family="Helvetica,sans-Serif" font-size="10.00">/home/runner/work/cbmc</text>
<text text-anchor="start" x="1642" y="-172" font-family="Helvetica,sans-Serif" font-size="10.00">/cbmc/src/goto&#45;cc/gcc</text>
<text text-anchor="middle" x="1703" y="-161" font-family="Helvetica,sans-Serif" font-size="10.00">_cmdline.h</text>
</a>
</g>
</g>
<!-- Node1&#45;&gt;Node14 -->
<g id="edge17_Node000001_Node000014" class="edge">
<title>Node1&#45;&gt;Node14</title>
<g id="a_edge17_Node000001_Node000014"><a xlink:title=" ">
<path fill="none" stroke="#63b8ff" d="M1391.95,-238C1455.2,-227.62 1546.1,-211.86 1625,-195 1627.87,-194.39 1630.79,-193.74 1633.74,-193.08"/>
<polygon fill="#63b8ff" stroke="#63b8ff" points="1391.35,-234.55 1382.05,-239.62 1392.48,-241.46 1391.35,-234.55"/>
</a>
</g>
</g>
<!-- Node18 -->
<g id="Node000018" class="node">
<title>Node18</title>
<g id="a_Node000018"><a xlink:href="gcc__mode_8cpp.html" target="_top" xlink:title="GCC Mode.">
<polygon fill="white" stroke="#666666" points="1304,-195 1166,-195 1166,-154 1304,-154 1304,-195"/>
<text text-anchor="start" x="1174" y="-183" font-family="Helvetica,sans-Serif" font-size="10.00">/home/runner/work/cbmc</text>
<text text-anchor="start" x="1174" y="-172" font-family="Helvetica,sans-Serif" font-size="10.00">/cbmc/src/goto&#45;cc/gcc</text>
<text text-anchor="middle" x="1235" y="-161" font-family="Helvetica,sans-Serif" font-size="10.00">_mode.cpp</text>
</a>
</g>
</g>
<!-- Node1&#45;&gt;Node18 -->
<g id="edge23_Node000001_Node000018" class="edge">
<title>Node1&#45;&gt;Node18</title>
<g id="a_edge23_Node000001_Node000018"><a xlink:title=" ">
<path fill="none" stroke="#63b8ff" d="M1285.22,-223.79C1275.37,-214.32 1264.47,-203.84 1255.36,-195.07"/>
<polygon fill="#63b8ff" stroke="#63b8ff" points="1282.87,-226.39 1292.51,-230.79 1287.72,-221.34 1282.87,-226.39"/>
</a>
</g>
</g>
<!-- Node19 -->
<g id="Node000019" class="node">
<title>Node19</title>
<g id="a_Node000019"><a xlink:href="goto__cc__cmdline_8cpp.html" target="_top" xlink:title="Command line interpretation for goto&#45;cc.">
<polygon fill="white" stroke="#666666" points="1460,-195 1322,-195 1322,-154 1460,-154 1460,-195"/>
<text text-anchor="start" x="1330" y="-183" font-family="Helvetica,sans-Serif" font-size="10.00">/home/runner/work/cbmc</text>
<text text-anchor="start" x="1330" y="-172" font-family="Helvetica,sans-Serif" font-size="10.00">/cbmc/src/goto&#45;cc/goto</text>
<text text-anchor="middle" x="1391" y="-161" font-family="Helvetica,sans-Serif" font-size="10.00">_cc_cmdline.cpp</text>
</a>
</g>
</g>
<!-- Node1&#45;&gt;Node19 -->
<g id="edge24_Node000001_Node000019" class="edge">
<title>Node1&#45;&gt;Node19</title>
<g id="a_edge24_Node000001_Node000019"><a xlink:title=" ">
<path fill="none" stroke="#63b8ff" d="M1340.78,-223.79C1350.63,-214.32 1361.53,-203.84 1370.64,-195.07"/>
<polygon fill="#63b8ff" stroke="#63b8ff" points="1338.28,-221.34 1333.49,-230.79 1343.13,-226.39 1338.28,-221.34"/>
</a>
</g>
</g>
<!-- Node20 -->
<g id="Node000020" class="node">
<title>Node20</title>
<g id="a_Node000020"><a xlink:href="goto__cc__mode_8cpp.html" target="_top" xlink:title="Command line option container.">
<polygon fill="white" stroke="#666666" points="1616,-195 1478,-195 1478,-154 1616,-154 1616,-195"/>
<text text-anchor="start" x="1486" y="-183" font-family="Helvetica,sans-Serif" font-size="10.00">/home/runner/work/cbmc</text>
<text text-anchor="start" x="1486" y="-172" font-family="Helvetica,sans-Serif" font-size="10.00">/cbmc/src/goto&#45;cc/goto</text>
<text text-anchor="middle" x="1547" y="-161" font-family="Helvetica,sans-Serif" font-size="10.00">_cc_mode.cpp</text>
</a>
</g>
</g>
<!-- Node1&#45;&gt;Node20 -->
<g id="edge25_Node000001_Node000020" class="edge">
<title>Node1&#45;&gt;Node20</title>
<g id="a_edge25_Node000001_Node000020"><a xlink:title=" ">
<path fill="none" stroke="#63b8ff" d="M1383.79,-227.81C1416.4,-217.36 1454.72,-205.08 1486.03,-195.04"/>
<polygon fill="#63b8ff" stroke="#63b8ff" points="1382.32,-224.61 1373.87,-230.99 1384.46,-231.27 1382.32,-224.61"/>
</a>
</g>
</g>
<!-- Node21 -->
<g id="Node000021" class="node">
<title>Node21</title>
<g id="a_Node000021"><a xlink:href="ld__cmdline_8h.html" target="_top" xlink:title="A special command line object for the ld&#45;like options.">
<polygon fill="white" stroke="#666666" points="959.5,-189.5 792.5,-189.5 792.5,-159.5 959.5,-159.5 959.5,-189.5"/>
<text text-anchor="start" x="800.5" y="-177.5" font-family="Helvetica,sans-Serif" font-size="10.00">/home/runner/work/cbmc</text>
<text text-anchor="middle" x="876" y="-166.5" font-family="Helvetica,sans-Serif" font-size="10.00">/cbmc/src/goto&#45;cc/ld_cmdline.h</text>
</a>
</g>
</g>
<!-- Node1&#45;&gt;Node21 -->
<g id="edge26_Node000001_Node000021" class="edge">
<title>Node1&#45;&gt;Node21</title>
<g id="a_edge26_Node000001_Node000021"><a xlink:title=" ">
<path fill="none" stroke="#63b8ff" d="M1233.93,-238.82C1164.09,-228.24 1059.57,-211.79 969,-195 959.92,-193.32 950.36,-191.44 940.96,-189.53"/>
<polygon fill="#63b8ff" stroke="#63b8ff" points="1233.57,-242.3 1243.98,-240.33 1234.61,-235.38 1233.57,-242.3"/>
</a>
</g>
</g>
<!-- Node23 -->
<g id="Node000023" class="node">
<title>Node23</title>
<g id="a_Node000023"><a xlink:href="ld__mode_8cpp.html" target="_top" xlink:title="LD Mode.">
<polygon fill="white" stroke="#666666" points="1957.5,-189.5 1790.5,-189.5 1790.5,-159.5 1957.5,-159.5 1957.5,-189.5"/>
<text text-anchor="start" x="1798.5" y="-177.5" font-family="Helvetica,sans-Serif" font-size="10.00">/home/runner/work/cbmc</text>
<text text-anchor="middle" x="1874" y="-166.5" font-family="Helvetica,sans-Serif" font-size="10.00">/cbmc/src/goto&#45;cc/ld_mode.cpp</text>
</a>
</g>
</g>
<!-- Node1&#45;&gt;Node23 -->
<g id="edge29_Node000001_Node000023" class="edge">
<title>Node1&#45;&gt;Node23</title>
<g id="a_edge29_Node000001_Node000023"><a xlink:title=" ">
<path fill="none" stroke="#63b8ff" d="M1392.47,-243.24C1485.82,-234.22 1645.19,-217.25 1781,-195 1790.69,-193.41 1800.89,-191.51 1810.86,-189.52"/>
<polygon fill="#63b8ff" stroke="#63b8ff" points="1391.88,-239.78 1382.26,-244.22 1392.55,-246.75 1391.88,-239.78"/>
</a>
</g>
</g>
<!-- Node24 -->
<g id="Node000024" class="node">
<title>Node24</title>
<g id="a_Node000024"><a xlink:href="ms__cl__cmdline_8h.html" target="_top" xlink:title="A special command line object for the gcc&#45;like options.">
<polygon fill="white" stroke="#666666" points="2114,-195 1976,-195 1976,-154 2114,-154 2114,-195"/>
<text text-anchor="start" x="1984" y="-183" font-family="Helvetica,sans-Serif" font-size="10.00">/home/runner/work/cbmc</text>
<text text-anchor="start" x="1984" y="-172" font-family="Helvetica,sans-Serif" font-size="10.00">/cbmc/src/goto&#45;cc/ms_cl</text>
<text text-anchor="middle" x="2045" y="-161" font-family="Helvetica,sans-Serif" font-size="10.00">_cmdline.h</text>
</a>
</g>
</g>
<!-- Node1&#45;&gt;Node24 -->
<g id="edge30_Node000001_Node000024" class="edge">
<title>Node1&#45;&gt;Node24</title>
<g id="a_edge30_Node000001_Node000024"><a xlink:title=" ">
<path fill="none" stroke="#63b8ff" d="M1392.18,-247.79C1515.53,-242.66 1760.72,-228.84 1966,-195 1969.21,-194.47 1972.47,-193.88 1975.77,-193.24"/>
<polygon fill="#63b8ff" stroke="#63b8ff" points="1391.92,-244.29 1382.07,-248.2 1392.21,-251.29 1391.92,-244.29"/>
</a>
</g>
</g>
<!-- Node28 -->
<g id="Node000028" class="node">
<title>Node28</title>
<g id="a_Node000028"><a xlink:href="ms__link__cmdline_8h.html" target="_top" xlink:title="A special command line object for LINK options.">
<polygon fill="white" stroke="#666666" points="2275.5,-195 2132.5,-195 2132.5,-154 2275.5,-154 2275.5,-195"/>
<text text-anchor="start" x="2140.5" y="-183" font-family="Helvetica,sans-Serif" font-size="10.00">/home/runner/work/cbmc</text>
<text text-anchor="start" x="2140.5" y="-172" font-family="Helvetica,sans-Serif" font-size="10.00">/cbmc/src/goto&#45;cc/ms_link</text>
<text text-anchor="middle" x="2204" y="-161" font-family="Helvetica,sans-Serif" font-size="10.00">_cmdline.h</text>
</a>
</g>
</g>
<!-- Node1&#45;&gt;Node28 -->
<g id="edge36_Node000001_Node000028" class="edge">
<title>Node1&#45;&gt;Node28</title>
<g id="a_edge36_Node000001_Node000028"><a xlink:title=" ">
<path fill="none" stroke="#63b8ff" d="M1392.42,-249.47C1538.07,-246.6 1857.35,-235.78 2123,-195 2126,-194.54 2129.06,-194.02 2132.14,-193.46"/>
<polygon fill="#63b8ff" stroke="#63b8ff" points="1392.17,-245.97 1382.24,-249.66 1392.3,-252.97 1392.17,-245.97"/>
</a>
</g>
</g>
<!-- Node30 -->
<g id="Node000030" class="node">
<title>Node30</title>
<g id="a_Node000030"><a xlink:href="ms__link__mode_8cpp.html" target="_top" xlink:title="Visual Studio Link Mode.">
<polygon fill="white" stroke="#666666" points="2436.5,-195 2293.5,-195 2293.5,-154 2436.5,-154 2436.5,-195"/>
<text text-anchor="start" x="2301.5" y="-183" font-family="Helvetica,sans-Serif" font-size="10.00">/home/runner/work/cbmc</text>
<text text-anchor="start" x="2301.5" y="-172" font-family="Helvetica,sans-Serif" font-size="10.00">/cbmc/src/goto&#45;cc/ms_link</text>
<text text-anchor="middle" x="2365" y="-161" font-family="Helvetica,sans-Serif" font-size="10.00">_mode.cpp</text>
</a>
</g>
</g>
<!-- Node1&#45;&gt;Node30 -->
<g id="edge39_Node000001_Node000030" class="edge">
<title>Node1&#45;&gt;Node30</title>
<g id="a_edge39_Node000001_Node000030"><a xlink:title=" ">
<path fill="none" stroke="#63b8ff" d="M1392.23,-250.84C1558.59,-250.49 1956.07,-244.06 2285,-195 2287.69,-194.6 2290.41,-194.15 2293.16,-193.66"/>
<polygon fill="#63b8ff" stroke="#63b8ff" points="1392.08,-247.34 1382.09,-250.86 1392.09,-254.34 1392.08,-247.34"/>
</a>
</g>
</g>
<!-- Node3 -->
<g id="Node000003" class="node">
<title>Node3</title>
<g id="a_Node000003"><a xlink:href="armcc__cmdline_8cpp.html" target="_top" xlink:title="A special command line object to mimic ARM&#39;s armcc.">
<polygon fill="white" stroke="#666666" points="294,-118 156,-118 156,-77 294,-77 294,-118"/>
<text text-anchor="start" x="164" y="-106" font-family="Helvetica,sans-Serif" font-size="10.00">/home/runner/work/cbmc</text>
<text text-anchor="start" x="164" y="-95" font-family="Helvetica,sans-Serif" font-size="10.00">/cbmc/src/goto&#45;cc/armcc</text>
<text text-anchor="middle" x="225" y="-84" font-family="Helvetica,sans-Serif" font-size="10.00">_cmdline.cpp</text>
</a>
</g>
</g>
<!-- Node2&#45;&gt;Node3 -->
<g id="edge2_Node000002_Node000003" class="edge">
<title>Node2&#45;&gt;Node3</title>
<g id="a_edge2_Node000002_Node000003"><a xlink:title=" ">
<path fill="none" stroke="#63b8ff" d="M212.87,-143.98C215.19,-135.28 217.67,-125.98 219.78,-118.07"/>
<polygon fill="#63b8ff" stroke="#63b8ff" points="209.45,-143.23 210.25,-153.79 216.21,-145.03 209.45,-143.23"/>
</a>
</g>
</g>
<!-- Node4 -->
<g id="Node000004" class="node">
<title>Node4</title>
<g id="a_Node000004"><a xlink:href="armcc__mode_8h.html" target="_top" xlink:title="Base class for command line interpretation for CL.">
<polygon fill="white" stroke="#666666" points="138,-118 0,-118 0,-77 138,-77 138,-118"/>
<text text-anchor="start" x="8" y="-106" font-family="Helvetica,sans-Serif" font-size="10.00">/home/runner/work/cbmc</text>
<text text-anchor="start" x="8" y="-95" font-family="Helvetica,sans-Serif" font-size="10.00">/cbmc/src/goto&#45;cc/armcc</text>
<text text-anchor="middle" x="69" y="-84" font-family="Helvetica,sans-Serif" font-size="10.00">_mode.h</text>
</a>
</g>
</g>
<!-- Node2&#45;&gt;Node4 -->
<g id="edge3_Node000002_Node000004" class="edge">
<title>Node2&#45;&gt;Node4</title>
<g id="a_edge3_Node000002_Node000004"><a xlink:title=" ">
<path fill="none" stroke="#63b8ff" d="M160.43,-148.92C142.34,-138.95 121.74,-127.58 104.67,-118.17"/>
<polygon fill="#63b8ff" stroke="#63b8ff" points="159.18,-152.23 169.62,-153.99 162.56,-146.1 159.18,-152.23"/>
</a>
</g>
</g>
<!-- Node6 -->
<g id="Node000006" class="node">
<title>Node6</title>
<g id="a_Node000006"><a xlink:href="goto__cc__main_8cpp.html" target="_top" xlink:title="GOTO&#45;CC Main Module.">
<polygon fill="white" stroke="#666666" points="1253,-41 1115,-41 1115,0 1253,0 1253,-41"/>
<text text-anchor="start" x="1123" y="-29" font-family="Helvetica,sans-Serif" font-size="10.00">/home/runner/work/cbmc</text>
<text text-anchor="start" x="1123" y="-18" font-family="Helvetica,sans-Serif" font-size="10.00">/cbmc/src/goto&#45;cc/goto</text>
<text text-anchor="middle" x="1184" y="-7" font-family="Helvetica,sans-Serif" font-size="10.00">_cc_main.cpp</text>
</a>
</g>
</g>
<!-- Node2&#45;&gt;Node6 -->
<g id="edge6_Node000002_Node000006" class="edge">
<title>Node2&#45;&gt;Node6</title>
<g id="a_edge6_Node000002_Node000006"><a xlink:title=" ">
<path fill="none" stroke="#63b8ff" d="M251.48,-148.96C268.05,-139.75 286.65,-128.87 303,-118 327.8,-101.51 328.16,-87.57 356,-77 494.07,-24.61 941.97,-20.54 1114.95,-20.99"/>
<polygon fill="#63b8ff" stroke="#63b8ff" points="249.59,-146.01 242.51,-153.9 252.96,-152.14 249.59,-146.01"/>
</a>
</g>
</g>
<!-- Node5 -->
<g id="Node000005" class="node">
<title>Node5</title>
<g id="a_Node000005"><a xlink:href="armcc__mode_8cpp.html" target="_top" xlink:title="Command line option container.">
<polygon fill="white" stroke="#666666" points="138,-41 0,-41 0,0 138,0 138,-41"/>
<text text-anchor="start" x="8" y="-29" font-family="Helvetica,sans-Serif" font-size="10.00">/home/runner/work/cbmc</text>
<text text-anchor="start" x="8" y="-18" font-family="Helvetica,sans-Serif" font-size="10.00">/cbmc/src/goto&#45;cc/armcc</text>
<text text-anchor="middle" x="69" y="-7" font-family="Helvetica,sans-Serif" font-size="10.00">_mode.cpp</text>
</a>
</g>
</g>
<!-- Node4&#45;&gt;Node5 -->
<g id="edge4_Node000004_Node000005" class="edge">
<title>Node4&#45;&gt;Node5</title>
<g id="a_edge4_Node000004_Node000005"><a xlink:title=" ">
<path fill="none" stroke="#63b8ff" d="M69,-66.69C69,-58.08 69,-48.9 69,-41.07"/>
<polygon fill="#63b8ff" stroke="#63b8ff" points="65.5,-66.79 69,-76.79 72.5,-66.79 65.5,-66.79"/>
</a>
</g>
</g>
<!-- Node4&#45;&gt;Node6 -->
<g id="edge5_Node000004_Node000006" class="edge">
<title>Node4&#45;&gt;Node6</title>
<g id="a_edge5_Node000004_Node000006"><a xlink:title=" ">
<path fill="none" stroke="#63b8ff" d="M148.28,-77C353.68,-48.17 917.48,-29.37 1114.8,-23.47"/>
<polygon fill="#63b8ff" stroke="#63b8ff" points="147.58,-73.57 138.18,-78.47 148.58,-80.5 147.58,-73.57"/>
</a>
</g>
</g>
<!-- Node7&#45;&gt;Node6 -->
<g id="edge9_Node000007_Node000006" class="edge">
<title>Node7&#45;&gt;Node6</title>
<g id="a_edge9_Node000007_Node000006"><a xlink:title=" ">
<path fill="none" stroke="#63b8ff" d="M525.83,-144.04C534.18,-121.68 549.07,-92.27 573,-77 617.84,-48.4 964.7,-30.64 1114.96,-24.22"/>
<polygon fill="#63b8ff" stroke="#63b8ff" points="522.44,-143.14 522.44,-153.74 529.04,-145.45 522.44,-143.14"/>
</a>
</g>
</g>
<!-- Node8 -->
<g id="Node000008" class="node">
<title>Node8</title>
<g id="a_Node000008"><a xlink:href="as86__cmdline_8cpp.html" target="_top" xlink:title="A special command line object for as86 (of Bruce&#39;s C Compiler)">
<polygon fill="white" stroke="#666666" points="720,-118 582,-118 582,-77 720,-77 720,-118"/>
<text text-anchor="start" x="590" y="-106" font-family="Helvetica,sans-Serif" font-size="10.00">/home/runner/work/cbmc</text>
<text text-anchor="start" x="590" y="-95" font-family="Helvetica,sans-Serif" font-size="10.00">/cbmc/src/goto&#45;cc/as86</text>
<text text-anchor="middle" x="651" y="-84" font-family="Helvetica,sans-Serif" font-size="10.00">_cmdline.cpp</text>
</a>
</g>
</g>
<!-- Node7&#45;&gt;Node8 -->
<g id="edge8_Node000007_Node000008" class="edge">
<title>Node7&#45;&gt;Node8</title>
<g id="a_edge8_Node000007_Node000008"><a xlink:title=" ">
<path fill="none" stroke="#63b8ff" d="M560.92,-148.92C578.74,-138.95 599.04,-127.58 615.85,-118.17"/>
<polygon fill="#63b8ff" stroke="#63b8ff" points="558.87,-146.05 551.86,-153.99 562.29,-152.16 558.87,-146.05"/>
</a>
</g>
</g>
<!-- Node9&#45;&gt;Node6 -->
<g id="edge12_Node000009_Node000006" class="edge">
<title>Node9&#45;&gt;Node6</title>
<g id="a_edge12_Node000009_Node000006"><a xlink:title=" ">
<path fill="none" stroke="#63b8ff" d="M1115.63,-155.17C1133.46,-146.5 1151.9,-134.38 1164,-118 1180.67,-95.43 1184.19,-62.18 1184.57,-41.19"/>
<polygon fill="#63b8ff" stroke="#63b8ff" points="1114.04,-152.05 1106.4,-159.39 1116.95,-158.41 1114.04,-152.05"/>
</a>
</g>
</g>
<!-- Node10 -->
<g id="Node000010" class="node">
<title>Node10</title>
<g id="a_Node000010"><a xlink:href="as__cmdline_8cpp.html" target="_top" xlink:title="A special command line object for GNU Assembler.">
<polygon fill="white" stroke="#666666" points="1155.5,-112.5 974.5,-112.5 974.5,-82.5 1155.5,-82.5 1155.5,-112.5"/>
<text text-anchor="start" x="982.5" y="-100.5" font-family="Helvetica,sans-Serif" font-size="10.00">/home/runner/work/cbmc</text>
<text text-anchor="middle" x="1065" y="-89.5" font-family="Helvetica,sans-Serif" font-size="10.00">/cbmc/src/goto&#45;cc/as_cmdline.cpp</text>
</a>
</g>
</g>
<!-- Node9&#45;&gt;Node10 -->
<g id="edge11_Node000009_Node000010" class="edge">
<title>Node9&#45;&gt;Node10</title>
<g id="a_edge11_Node000009_Node000010"><a xlink:title=" ">
<path fill="none" stroke="#63b8ff" d="M1063.65,-149.04C1063.97,-136.95 1064.35,-122.79 1064.63,-112.54"/>
<polygon fill="#63b8ff" stroke="#63b8ff" points="1060.14,-149.3 1063.38,-159.39 1067.14,-149.49 1060.14,-149.3"/>
</a>
</g>
</g>
<!-- Node12&#45;&gt;Node6 -->
<g id="edge16_Node000012_Node000006" class="edge">
<title>Node12&#45;&gt;Node6</title>
<g id="a_edge16_Node000012_Node000006"><a xlink:title=" ">
<path fill="none" stroke="#63b8ff" d="M357.8,-143.79C357.25,-121.96 360.63,-93.36 379,-77 433.33,-28.61 929.63,-22.21 1114.78,-21.51"/>
<polygon fill="#63b8ff" stroke="#63b8ff" points="354.31,-144.08 358.34,-153.88 361.3,-143.71 354.31,-144.08"/>
</a>
</g>
</g>
<!-- Node13 -->
<g id="Node000013" class="node">
<title>Node13</title>
<g id="a_Node000013"><a xlink:href="bcc__cmdline_8cpp.html" target="_top" xlink:title="A special command line object for Bruce&#39;s C Compiler.">
<polygon fill="white" stroke="#666666" points="526,-118 388,-118 388,-77 526,-77 526,-118"/>
<text text-anchor="start" x="396" y="-106" font-family="Helvetica,sans-Serif" font-size="10.00">/home/runner/work/cbmc</text>
<text text-anchor="start" x="396" y="-95" font-family="Helvetica,sans-Serif" font-size="10.00">/cbmc/src/goto&#45;cc/bcc</text>
<text text-anchor="middle" x="457" y="-84" font-family="Helvetica,sans-Serif" font-size="10.00">_cmdline.cpp</text>
</a>
</g>
</g>
<!-- Node12&#45;&gt;Node13 -->
<g id="edge15_Node000012_Node000013" class="edge">
<title>Node12&#45;&gt;Node13</title>
<g id="a_edge15_Node000012_Node000013"><a xlink:title=" ">
<path fill="none" stroke="#63b8ff" d="M393.88,-147.82C406.29,-138.11 420.22,-127.24 431.82,-118.17"/>
<polygon fill="#63b8ff" stroke="#63b8ff" points="391.7,-145.08 385.97,-153.99 396.01,-150.59 391.7,-145.08"/>
</a>
</g>
</g>
<!-- Node14&#45;&gt;Node6 -->
<g id="edge22_Node000014_Node000006" class="edge">
<title>Node14&#45;&gt;Node6</title>
<g id="a_edge22_Node000014_Node000006"><a xlink:title=" ">
<path fill="none" stroke="#63b8ff" d="M1623.78,-153.81C1540.13,-136.05 1515.8,-140.39 1437,-118 1362.16,-96.74 1278.35,-62.64 1228.44,-41.18"/>
<polygon fill="#63b8ff" stroke="#63b8ff" points="1623.21,-157.27 1633.72,-155.97 1624.69,-150.43 1623.21,-157.27"/>
</a>
</g>
</g>
<!-- Node15 -->
<g id="Node000015" class="node">
<title>Node15</title>
<g id="a_Node000015"><a xlink:href="cw__mode_8h.html" target="_top" xlink:title="Base class for command line interpretation.">
<polygon fill="white" stroke="#666666" points="1763.5,-112.5 1602.5,-112.5 1602.5,-82.5 1763.5,-82.5 1763.5,-112.5"/>
<text text-anchor="start" x="1610.5" y="-100.5" font-family="Helvetica,sans-Serif" font-size="10.00">/home/runner/work/cbmc</text>
<text text-anchor="middle" x="1683" y="-89.5" font-family="Helvetica,sans-Serif" font-size="10.00">/cbmc/src/goto&#45;cc/cw_mode.h</text>
</a>
</g>
</g>
<!-- Node14&#45;&gt;Node15 -->
<g id="edge18_Node000014_Node000015" class="edge">
<title>Node14&#45;&gt;Node15</title>
<g id="a_edge18_Node000014_Node000015"><a xlink:title=" ">
<path fill="none" stroke="#63b8ff" d="M1695.12,-143.94C1692.27,-133.25 1689.18,-121.66 1686.83,-112.86"/>
<polygon fill="#63b8ff" stroke="#63b8ff" points="1691.79,-145.03 1697.75,-153.79 1698.55,-143.23 1691.79,-145.03"/>
</a>
</g>
</g>
<!-- Node17 -->
<g id="Node000017" class="node">
<title>Node17</title>
<g id="a_Node000017"><a xlink:href="gcc__cmdline_8cpp.html" target="_top" xlink:title="A special command line object for the gcc&#45;like options.">
<polygon fill="white" stroke="#666666" points="1584,-118 1446,-118 1446,-77 1584,-77 1584,-118"/>
<text text-anchor="start" x="1454" y="-106" font-family="Helvetica,sans-Serif" font-size="10.00">/home/runner/work/cbmc</text>
<text text-anchor="start" x="1454" y="-95" font-family="Helvetica,sans-Serif" font-size="10.00">/cbmc/src/goto&#45;cc/gcc</text>
<text text-anchor="middle" x="1515" y="-84" font-family="Helvetica,sans-Serif" font-size="10.00">_cmdline.cpp</text>
</a>
</g>
</g>
<!-- Node14&#45;&gt;Node17 -->
<g id="edge21_Node000014_Node000017" class="edge">
<title>Node14&#45;&gt;Node17</title>
<g id="a_edge21_Node000014_Node000017"><a xlink:title=" ">
<path fill="none" stroke="#63b8ff" d="M1644.76,-150.27C1618.86,-139.94 1588.71,-127.9 1563.99,-118.04"/>
<polygon fill="#63b8ff" stroke="#63b8ff" points="1643.51,-153.54 1654.1,-153.99 1646.1,-147.03 1643.51,-153.54"/>
</a>
</g>
</g>
<!-- Node15&#45;&gt;Node6 -->
<g id="edge20_Node000015_Node000006" class="edge">
<title>Node15&#45;&gt;Node6</title>
<g id="a_edge20_Node000015_Node000006"><a xlink:title=" ">
<path fill="none" stroke="#63b8ff" d="M1610.96,-80.37C1604.9,-79.17 1598.85,-78.03 1593,-77 1474.08,-56.08 1334.52,-38.66 1253,-29.19"/>
<polygon fill="#63b8ff" stroke="#63b8ff" points="1610.66,-83.88 1621.16,-82.43 1612.05,-77.02 1610.66,-83.88"/>
</a>
</g>
</g>
<!-- Node16 -->
<g id="Node000016" class="node">
<title>Node16</title>
<g id="a_Node000016"><a xlink:href="cw__mode_8cpp.html" target="_top" xlink:title="Command line option container.">
<polygon fill="white" stroke="#666666" points="1769,-35.5 1597,-35.5 1597,-5.5 1769,-5.5 1769,-35.5"/>
<text text-anchor="start" x="1605" y="-23.5" font-family="Helvetica,sans-Serif" font-size="10.00">/home/runner/work/cbmc</text>
<text text-anchor="middle" x="1683" y="-12.5" font-family="Helvetica,sans-Serif" font-size="10.00">/cbmc/src/goto&#45;cc/cw_mode.cpp</text>
</a>
</g>
</g>
<!-- Node15&#45;&gt;Node16 -->
<g id="edge19_Node000015_Node000016" class="edge">
<title>Node15&#45;&gt;Node16</title>
<g id="a_edge19_Node000015_Node000016"><a xlink:title=" ">
<path fill="none" stroke="#63b8ff" d="M1683,-72.04C1683,-59.95 1683,-45.79 1683,-35.54"/>
<polygon fill="#63b8ff" stroke="#63b8ff" points="1679.5,-72.39 1683,-82.39 1686.5,-72.39 1679.5,-72.39"/>
</a>
</g>
</g>
<!-- Node21&#45;&gt;Node6 -->
<g id="edge27_Node000021_Node000006" class="edge">
<title>Node21&#45;&gt;Node6</title>
<g id="a_edge27_Node000021_Node000006"><a xlink:title=" ">
<path fill="none" stroke="#63b8ff" d="M895.52,-151.71C920.4,-124.04 960.7,-79.56 965,-77 1010.83,-49.71 1069.78,-35.75 1114.97,-28.66"/>
<polygon fill="#63b8ff" stroke="#63b8ff" points="892.74,-149.58 888.66,-159.35 897.94,-154.25 892.74,-149.58"/>
</a>
</g>
</g>
<!-- Node22 -->
<g id="Node000022" class="node">
<title>Node22</title>
<g id="a_Node000022"><a xlink:href="ld__cmdline_8cpp.html" target="_top" xlink:title="A special command line object for the ld&#45;like options.">
<polygon fill="white" stroke="#666666" points="917.5,-112.5 738.5,-112.5 738.5,-82.5 917.5,-82.5 917.5,-112.5"/>
<text text-anchor="start" x="746.5" y="-100.5" font-family="Helvetica,sans-Serif" font-size="10.00">/home/runner/work/cbmc</text>
<text text-anchor="middle" x="828" y="-89.5" font-family="Helvetica,sans-Serif" font-size="10.00">/cbmc/src/goto&#45;cc/ld_cmdline.cpp</text>
</a>
</g>
</g>
<!-- Node21&#45;&gt;Node22 -->
<g id="edge28_Node000021_Node000022" class="edge">
<title>Node21&#45;&gt;Node22</title>
<g id="a_edge28_Node000021_Node000022"><a xlink:title=" ">
<path fill="none" stroke="#63b8ff" d="M861.52,-150.88C853.54,-138.41 843.88,-123.32 836.99,-112.54"/>
<polygon fill="#63b8ff" stroke="#63b8ff" points="858.63,-152.86 866.97,-159.39 864.53,-149.08 858.63,-152.86"/>
</a>
</g>
</g>
<!-- Node24&#45;&gt;Node6 -->
<g id="edge31_Node000024_Node000006" class="edge">
<title>Node24&#45;&gt;Node6</title>
<g id="a_edge31_Node000024_Node000006"><a xlink:title=" ">
<path fill="none" stroke="#63b8ff" d="M1965.83,-154.09C1895.02,-138.77 1869.76,-151.59 1811,-118 1789.17,-105.52 1794.62,-87.99 1772,-77 1726.26,-54.78 1398.33,-33.67 1253.01,-25.29"/>
<polygon fill="#63b8ff" stroke="#63b8ff" points="1965.12,-157.51 1975.65,-156.32 1966.68,-150.69 1965.12,-157.51"/>
</a>
</g>
</g>
<!-- Node25 -->
<g id="Node000025" class="node">
<title>Node25</title>
<g id="a_Node000025"><a xlink:href="ms__cl__cmdline_8cpp.html" target="_top" xlink:title="A special command line object for the CL options.">
<polygon fill="white" stroke="#666666" points="1958,-118 1820,-118 1820,-77 1958,-77 1958,-118"/>
<text text-anchor="start" x="1828" y="-106" font-family="Helvetica,sans-Serif" font-size="10.00">/home/runner/work/cbmc</text>
<text text-anchor="start" x="1828" y="-95" font-family="Helvetica,sans-Serif" font-size="10.00">/cbmc/src/goto&#45;cc/ms_cl</text>
<text text-anchor="middle" x="1889" y="-84" font-family="Helvetica,sans-Serif" font-size="10.00">_cmdline.cpp</text>
</a>
</g>
</g>
<!-- Node24&#45;&gt;Node25 -->
<g id="edge32_Node000024_Node000025" class="edge">
<title>Node24&#45;&gt;Node25</title>
<g id="a_edge32_Node000024_Node000025"><a xlink:title=" ">
<path fill="none" stroke="#63b8ff" d="M1995.26,-149.59C1974.09,-139.41 1949.71,-127.69 1929.65,-118.04"/>
<polygon fill="#63b8ff" stroke="#63b8ff" points="1993.89,-152.81 2004.42,-153.99 1996.92,-146.5 1993.89,-152.81"/>
</a>
</g>
</g>
<!-- Node26 -->
<g id="Node000026" class="node">
<title>Node26</title>
<g id="a_Node000026"><a xlink:href="ms__cl__mode_8h.html" target="_top" xlink:title="Visual Studio CL Mode.">
<polygon fill="white" stroke="#666666" points="2114,-118 1976,-118 1976,-77 2114,-77 2114,-118"/>
<text text-anchor="start" x="1984" y="-106" font-family="Helvetica,sans-Serif" font-size="10.00">/home/runner/work/cbmc</text>
<text text-anchor="start" x="1984" y="-95" font-family="Helvetica,sans-Serif" font-size="10.00">/cbmc/src/goto&#45;cc/ms_cl</text>
<text text-anchor="middle" x="2045" y="-84" font-family="Helvetica,sans-Serif" font-size="10.00">_mode.h</text>
</a>
</g>
</g>
<!-- Node24&#45;&gt;Node26 -->
<g id="edge33_Node000024_Node000026" class="edge">
<title>Node24&#45;&gt;Node26</title>
<g id="a_edge33_Node000024_Node000026"><a xlink:title=" ">
<path fill="none" stroke="#63b8ff" d="M2045,-143.69C2045,-135.08 2045,-125.9 2045,-118.07"/>
<polygon fill="#63b8ff" stroke="#63b8ff" points="2041.5,-143.79 2045,-153.79 2048.5,-143.79 2041.5,-143.79"/>
</a>
</g>
</g>
<!-- Node26&#45;&gt;Node6 -->
<g id="edge34_Node000026_Node000006" class="edge">
<title>Node26&#45;&gt;Node6</title>
<g id="a_edge34_Node000026_Node000006"><a xlink:title=" ">
<path fill="none" stroke="#63b8ff" d="M1965.61,-76.97C1812,-54.27 1414.38,-32.91 1253.22,-24.86"/>
<polygon fill="#63b8ff" stroke="#63b8ff" points="1965.39,-80.48 1975.81,-78.54 1966.45,-73.56 1965.39,-80.48"/>
</a>
</g>
</g>
<!-- Node27 -->
<g id="Node000027" class="node">
<title>Node27</title>
<g id="a_Node000027"><a xlink:href="ms__cl__mode_8cpp.html" target="_top" xlink:title="Visual Studio CL Mode.">
<polygon fill="white" stroke="#666666" points="2114,-41 1976,-41 1976,0 2114,0 2114,-41"/>
<text text-anchor="start" x="1984" y="-29" font-family="Helvetica,sans-Serif" font-size="10.00">/home/runner/work/cbmc</text>
<text text-anchor="start" x="1984" y="-18" font-family="Helvetica,sans-Serif" font-size="10.00">/cbmc/src/goto&#45;cc/ms_cl</text>
<text text-anchor="middle" x="2045" y="-7" font-family="Helvetica,sans-Serif" font-size="10.00">_mode.cpp</text>
</a>
</g>
</g>
<!-- Node26&#45;&gt;Node27 -->
<g id="edge35_Node000026_Node000027" class="edge">
<title>Node26&#45;&gt;Node27</title>
<g id="a_edge35_Node000026_Node000027"><a xlink:title=" ">
<path fill="none" stroke="#63b8ff" d="M2045,-66.69C2045,-58.08 2045,-48.9 2045,-41.07"/>
<polygon fill="#63b8ff" stroke="#63b8ff" points="2041.5,-66.79 2045,-76.79 2048.5,-66.79 2041.5,-66.79"/>
</a>
</g>
</g>
<!-- Node28&#45;&gt;Node6 -->
<g id="edge37_Node000028_Node000006" class="edge">
<title>Node28&#45;&gt;Node6</title>
<g id="a_edge37_Node000028_Node000006"><a xlink:title=" ">
<path fill="none" stroke="#63b8ff" d="M2182.54,-145.74C2161.33,-118.67 2130.93,-80.98 2123,-77 2103.59,-67.24 1467.18,-35.34 1253.31,-24.86"/>
<polygon fill="#63b8ff" stroke="#63b8ff" points="2179.89,-148.02 2188.8,-153.75 2185.4,-143.72 2179.89,-148.02"/>
</a>
</g>
</g>
<!-- Node29 -->
<g id="Node000029" class="node">
<title>Node29</title>
<g id="a_Node000029"><a xlink:href="ms__link__cmdline_8cpp.html" target="_top" xlink:title="A special command line object for LINK options.">
<polygon fill="white" stroke="#666666" points="2313.5,-118 2170.5,-118 2170.5,-77 2313.5,-77 2313.5,-118"/>
<text text-anchor="start" x="2178.5" y="-106" font-family="Helvetica,sans-Serif" font-size="10.00">/home/runner/work/cbmc</text>
<text text-anchor="start" x="2178.5" y="-95" font-family="Helvetica,sans-Serif" font-size="10.00">/cbmc/src/goto&#45;cc/ms_link</text>
<text text-anchor="middle" x="2242" y="-84" font-family="Helvetica,sans-Serif" font-size="10.00">_cmdline.cpp</text>
</a>
</g>
</g>
<!-- Node28&#45;&gt;Node29 -->
<g id="edge38_Node000028_Node000029" class="edge">
<title>Node28&#45;&gt;Node29</title>
<g id="a_edge38_Node000028_Node000029"><a xlink:title=" ">
<path fill="none" stroke="#63b8ff" d="M2218.53,-144.83C2223.06,-135.89 2227.95,-126.24 2232.08,-118.07"/>
<polygon fill="#63b8ff" stroke="#63b8ff" points="2215.38,-143.29 2213.98,-153.79 2221.63,-146.46 2215.38,-143.29"/>
</a>
</g>
</g>
</g>
</svg>
