<?xml version="1.0" encoding="UTF-8" standalone="no"?>
<!DOCTYPE svg PUBLIC "-//W3C//DTD SVG 1.1//EN"
 "http://www.w3.org/Graphics/SVG/1.1/DTD/svg11.dtd">
<!-- Generated by graphviz version 2.43.0 (0)
 -->
<!-- Title: /home/runner/work/cbmc/cbmc/src/goto&#45;harness/goto_harness_generator.cpp Pages: 1 -->
<svg width="1070pt" height="489pt"
 viewBox="0.00 0.00 1070.00 489.00" xmlns="http://www.w3.org/2000/svg" xmlns:xlink="http://www.w3.org/1999/xlink">
<g id="graph0" class="graph" transform="scale(1 1) rotate(0) translate(4 485)">
<title>/home/runner/work/cbmc/cbmc/src/goto&#45;harness/goto_harness_generator.cpp</title>
<!-- Node1 -->
<g id="Node000001" class="node">
<title>Node1</title>
<g id="a_Node000001"><a xlink:title=" ">
<polygon fill="#999999" stroke="#666666" points="548.5,-481 391.5,-481 391.5,-440 548.5,-440 548.5,-481"/>
<text text-anchor="start" x="399.5" y="-469" font-family="Helvetica,sans-Serif" font-size="10.00">/home/runner/work/cbmc</text>
<text text-anchor="start" x="399.5" y="-458" font-family="Helvetica,sans-Serif" font-size="10.00">/cbmc/src/goto&#45;harness</text>
<text text-anchor="middle" x="470" y="-447" font-family="Helvetica,sans-Serif" font-size="10.00">/goto_harness_generator.cpp</text>
</a>
</g>
</g>
<!-- Node2 -->
<g id="Node000002" class="node">
<title>Node2</title>
<g id="a_Node000002"><a xlink:href="goto__harness__generator_8h.html" target="_top" xlink:title=" ">
<polygon fill="white" stroke="#666666" points="171.5,-349 28.5,-349 28.5,-330 171.5,-330 171.5,-349"/>
<text text-anchor="middle" x="100" y="-337" font-family="Helvetica,sans-Serif" font-size="10.00">goto_harness_generator.h</text>
</a>
</g>
</g>
<!-- Node1&#45;&gt;Node2 -->
<g id="edge1_Node000001_Node000002" class="edge">
<title>Node1&#45;&gt;Node2</title>
<g id="a_edge1_Node000001_Node000002"><a xlink:title=" ">
<path fill="none" stroke="#63b8ff" d="M391.28,-453.52C332.67,-446.86 251.76,-432.93 186,-404 159.09,-392.16 132.56,-370.66 116.24,-355.99"/>
<polygon fill="#63b8ff" stroke="#63b8ff" points="118.41,-353.23 108.69,-349.03 113.67,-358.38 118.41,-353.23"/>
</a>
</g>
</g>
<!-- Node3 -->
<g id="Node000003" class="node">
<title>Node3</title>
<g id="a_Node000003"><a xlink:title=" ">
<polygon fill="#e0e0e0" stroke="#999999" points="72,-74 40,-74 40,-55 72,-55 72,-74"/>
<text text-anchor="middle" x="56" y="-62" font-family="Helvetica,sans-Serif" font-size="10.00">list</text>
</a>
</g>
</g>
<!-- Node1&#45;&gt;Node3 -->
<g id="edge35_Node000001_Node000003" class="edge">
<title>Node1&#45;&gt;Node3</title>
<g id="a_edge35_Node000001_Node000003"><a xlink:title=" ">
<path fill="none" stroke="#63b8ff" d="M391.33,-455.73C257.54,-447.14 0,-420.25 0,-340.5 0,-340.5 0,-340.5 0,-173.5 0,-137.65 24.62,-101.86 41.21,-81.81"/>
<polygon fill="#63b8ff" stroke="#63b8ff" points="43.87,-84.09 47.74,-74.23 38.56,-79.52 43.87,-84.09"/>
</a>
</g>
</g>
<!-- Node4 -->
<g id="Node000004" class="node">
<title>Node4</title>
<g id="a_Node000004"><a xlink:title=" ">
<polygon fill="#e0e0e0" stroke="#999999" points="647,-19 603,-19 603,0 647,0 647,-19"/>
<text text-anchor="middle" x="625" y="-7" font-family="Helvetica,sans-Serif" font-size="10.00">string</text>
</a>
</g>
</g>
<!-- Node1&#45;&gt;Node4 -->
<g id="edge36_Node000001_Node000004" class="edge">
<title>Node1&#45;&gt;Node4</title>
<g id="a_edge36_Node000001_Node000004"><a xlink:title=" ">
<path fill="none" stroke="#63b8ff" d="M411.41,-439.93C316.1,-403.96 138,-317.72 138,-175.5 138,-175.5 138,-175.5 138,-118.5 138,-89.04 134.23,-73.69 157,-55 190.59,-27.42 492.24,-14.93 592.65,-11.51"/>
<polygon fill="#63b8ff" stroke="#63b8ff" points="592.93,-15 602.8,-11.17 592.69,-8.01 592.93,-15"/>
</a>
</g>
</g>
<!-- Node7 -->
<g id="Node000007" class="node">
<title>Node7</title>
<g id="a_Node000007"><a xlink:href="src_2util_2invariant_8h.html" target="_top" xlink:title=" ">
<polygon fill="white" stroke="#666666" points="944.5,-129 875.5,-129 875.5,-110 944.5,-110 944.5,-129"/>
<text text-anchor="middle" x="910" y="-117" font-family="Helvetica,sans-Serif" font-size="10.00">invariant.h</text>
</a>
</g>
</g>
<!-- Node1&#45;&gt;Node7 -->
<g id="edge45_Node000001_Node000007" class="edge">
<title>Node1&#45;&gt;Node7</title>
<g id="a_edge45_Node000001_Node000007"><a xlink:title=" ">
<path fill="none" stroke="#63b8ff" d="M548.58,-457.3C669.32,-452.81 893.96,-439.81 965,-404 999.4,-386.66 1024,-379.02 1024,-340.5 1024,-340.5 1024,-340.5 1024,-283.5 1024,-218.83 963,-161.55 930.24,-135.46"/>
<polygon fill="#63b8ff" stroke="#63b8ff" points="932.25,-132.58 922.2,-129.22 927.96,-138.12 932.25,-132.58"/>
</a>
</g>
</g>
<!-- Node26 -->
<g id="Node000026" class="node">
<title>Node26</title>
<g id="a_Node000026"><a xlink:href="exception__utils_8h.html" target="_top" xlink:title=" ">
<polygon fill="white" stroke="#666666" points="955.5,-404 836.5,-404 836.5,-385 955.5,-385 955.5,-404"/>
<text text-anchor="middle" x="896" y="-392" font-family="Helvetica,sans-Serif" font-size="10.00">util/exception_utils.h</text>
</a>
</g>
</g>
<!-- Node1&#45;&gt;Node26 -->
<g id="edge37_Node000001_Node000026" class="edge">
<title>Node1&#45;&gt;Node26</title>
<g id="a_edge37_Node000001_Node000026"><a xlink:title=" ">
<path fill="none" stroke="#63b8ff" d="M548.63,-447.69C629.27,-435.57 753.35,-416.93 829.33,-405.52"/>
<polygon fill="#63b8ff" stroke="#63b8ff" points="829.9,-408.97 839.27,-404.02 828.86,-402.05 829.9,-408.97"/>
</a>
</g>
</g>
<!-- Node30 -->
<g id="Node000030" class="node">
<title>Node30</title>
<g id="a_Node000030"><a xlink:href="string2int_8h.html" target="_top" xlink:title=" ">
<polygon fill="white" stroke="#666666" points="785.5,-239 694.5,-239 694.5,-220 785.5,-220 785.5,-239"/>
<text text-anchor="middle" x="740" y="-227" font-family="Helvetica,sans-Serif" font-size="10.00">util/string2int.h</text>
</a>
</g>
</g>
<!-- Node1&#45;&gt;Node30 -->
<g id="edge46_Node000001_Node000030" class="edge">
<title>Node1&#45;&gt;Node30</title>
<g id="a_edge46_Node000001_Node000030"><a xlink:title=" ">
<path fill="none" stroke="#63b8ff" d="M493.02,-439.98C545.72,-395.27 674.26,-286.26 721.87,-245.88"/>
<polygon fill="#63b8ff" stroke="#63b8ff" points="724.42,-248.3 729.78,-239.16 719.89,-242.96 724.42,-248.3"/>
</a>
</g>
</g>
<!-- Node2&#45;&gt;Node3 -->
<g id="edge2_Node000002_Node000003" class="edge">
<title>Node2&#45;&gt;Node3</title>
<g id="a_edge2_Node000002_Node000003"><a xlink:title=" ">
<path fill="none" stroke="#63b8ff" d="M94.3,-329.96C83.03,-312.23 59,-269.81 59,-230.5 59,-230.5 59,-230.5 59,-173.5 59,-142.18 57.72,-105.77 56.84,-84.23"/>
<polygon fill="#63b8ff" stroke="#63b8ff" points="60.33,-84.02 56.4,-74.18 53.34,-84.32 60.33,-84.02"/>
</a>
</g>
</g>
<!-- Node2&#45;&gt;Node4 -->
<g id="edge3_Node000002_Node000004" class="edge">
<title>Node2&#45;&gt;Node4</title>
<g id="a_edge3_Node000002_Node000004"><a xlink:title=" ">
<path fill="none" stroke="#63b8ff" d="M100,-329.82C100,-311.48 100,-267.44 100,-230.5 100,-230.5 100,-230.5 100,-118.5 100,-88.33 99.96,-73.24 124,-55 161.29,-26.71 487.56,-14.59 592.58,-11.4"/>
<polygon fill="#63b8ff" stroke="#63b8ff" points="592.99,-14.89 602.88,-11.1 592.78,-7.89 592.99,-14.89"/>
</a>
</g>
</g>
<!-- Node5 -->
<g id="Node000005" class="node">
<title>Node5</title>
<g id="a_Node000005"><a xlink:href="irep_8h.html" target="_top" xlink:title=" ">
<polygon fill="white" stroke="#666666" points="553.5,-294 490.5,-294 490.5,-275 553.5,-275 553.5,-294"/>
<text text-anchor="middle" x="522" y="-282" font-family="Helvetica,sans-Serif" font-size="10.00">util/irep.h</text>
</a>
</g>
</g>
<!-- Node2&#45;&gt;Node5 -->
<g id="edge4_Node000002_Node000005" class="edge">
<title>Node2&#45;&gt;Node5</title>
<g id="a_edge4_Node000002_Node000005"><a xlink:title=" ">
<path fill="none" stroke="#63b8ff" d="M167.8,-329.98C255.96,-318.91 407.27,-299.91 480.24,-290.74"/>
<polygon fill="#63b8ff" stroke="#63b8ff" points="480.93,-294.19 490.42,-289.47 480.06,-287.24 480.93,-294.19"/>
</a>
</g>
</g>
<!-- Node5&#45;&gt;Node4 -->
<g id="edge5_Node000005_Node000004" class="edge">
<title>Node5&#45;&gt;Node4</title>
<g id="a_edge5_Node000005_Node000004"><a xlink:title=" ">
<path fill="none" stroke="#63b8ff" d="M545.81,-274.91C581.32,-260.39 644,-227.41 644,-175.5 644,-175.5 644,-175.5 644,-118.5 644,-86.56 635.84,-50.1 630.22,-28.77"/>
<polygon fill="#63b8ff" stroke="#63b8ff" points="633.58,-27.81 627.56,-19.09 626.83,-29.66 633.58,-27.81"/>
</a>
</g>
</g>
<!-- Node6 -->
<g id="Node000006" class="node">
<title>Node6</title>
<g id="a_Node000006"><a xlink:title=" ">
<polygon fill="#e0e0e0" stroke="#999999" points="213.5,-74 166.5,-74 166.5,-55 213.5,-55 213.5,-74"/>
<text text-anchor="middle" x="190" y="-62" font-family="Helvetica,sans-Serif" font-size="10.00">vector</text>
</a>
</g>
</g>
<!-- Node5&#45;&gt;Node6 -->
<g id="edge6_Node000005_Node000006" class="edge">
<title>Node5&#45;&gt;Node6</title>
<g id="a_edge6_Node000005_Node000006"><a xlink:title=" ">
<path fill="none" stroke="#63b8ff" d="M490.45,-281.8C442.84,-278.36 350.5,-268.19 278,-239 236.95,-222.47 216.75,-222.54 195,-184 177.27,-152.59 181.46,-108.68 185.88,-84.09"/>
<polygon fill="#63b8ff" stroke="#63b8ff" points="189.31,-84.75 187.84,-74.26 182.45,-83.38 189.31,-84.75"/>
</a>
</g>
</g>
<!-- Node5&#45;&gt;Node7 -->
<g id="edge7_Node000005_Node000007" class="edge">
<title>Node5&#45;&gt;Node7</title>
<g id="a_edge7_Node000005_Node000007"><a xlink:title=" ">
<path fill="none" stroke="#63b8ff" d="M553.61,-282.01C605.42,-278.77 711.05,-268.78 795,-239 841.34,-222.56 860.44,-222.52 891,-184 901.17,-171.18 905.9,-153.01 908.1,-139.39"/>
<polygon fill="#63b8ff" stroke="#63b8ff" points="911.6,-139.6 909.42,-129.24 904.66,-138.7 911.6,-139.6"/>
</a>
</g>
</g>
<!-- Node11 -->
<g id="Node000011" class="node">
<title>Node11</title>
<g id="a_Node000011"><a xlink:href="irep__ids_8h.html" target="_top" xlink:title="util">
<polygon fill="white" stroke="#666666" points="351,-239 287,-239 287,-220 351,-220 351,-239"/>
<text text-anchor="middle" x="319" y="-227" font-family="Helvetica,sans-Serif" font-size="10.00">irep_ids.h</text>
</a>
</g>
</g>
<!-- Node5&#45;&gt;Node11 -->
<g id="edge12_Node000005_Node000011" class="edge">
<title>Node5&#45;&gt;Node11</title>
<g id="a_edge12_Node000005_Node000011"><a xlink:title=" ">
<path fill="none" stroke="#63b8ff" d="M490.28,-275.22C455.48,-266.13 399.46,-251.51 361.02,-241.47"/>
<polygon fill="#63b8ff" stroke="#63b8ff" points="361.73,-238.04 351.17,-238.9 359.96,-244.81 361.73,-238.04"/>
</a>
</g>
</g>
<!-- Node21 -->
<g id="Node000021" class="node">
<title>Node21</title>
<g id="a_Node000021"><a xlink:href="forward__list__as__map_8h.html" target="_top" xlink:title=" ">
<polygon fill="white" stroke="#666666" points="585.5,-239 458.5,-239 458.5,-220 585.5,-220 585.5,-239"/>
<text text-anchor="middle" x="522" y="-227" font-family="Helvetica,sans-Serif" font-size="10.00">forward_list_as_map.h</text>
</a>
</g>
</g>
<!-- Node5&#45;&gt;Node21 -->
<g id="edge28_Node000005_Node000021" class="edge">
<title>Node5&#45;&gt;Node21</title>
<g id="a_edge28_Node000005_Node000021"><a xlink:title=" ">
<path fill="none" stroke="#63b8ff" d="M522,-274.75C522,-267.8 522,-257.85 522,-249.13"/>
<polygon fill="#63b8ff" stroke="#63b8ff" points="525.5,-249.09 522,-239.09 518.5,-249.09 525.5,-249.09"/>
</a>
</g>
</g>
<!-- Node7&#45;&gt;Node4 -->
<g id="edge10_Node000007_Node000004" class="edge">
<title>Node7&#45;&gt;Node4</title>
<g id="a_edge10_Node000007_Node000004"><a xlink:title=" ">
<path fill="none" stroke="#63b8ff" d="M920.63,-109.95C935.45,-97.02 958.94,-72.17 944,-55 907,-12.48 730.47,-9.33 657.1,-9.91"/>
<polygon fill="#63b8ff" stroke="#63b8ff" points="657.01,-6.41 647.05,-10.02 657.08,-13.41 657.01,-6.41"/>
</a>
</g>
</g>
<!-- Node8 -->
<g id="Node000008" class="node">
<title>Node8</title>
<g id="a_Node000008"><a xlink:title=" ">
<polygon fill="#e0e0e0" stroke="#999999" points="934.5,-74 885.5,-74 885.5,-55 934.5,-55 934.5,-74"/>
<text text-anchor="middle" x="910" y="-62" font-family="Helvetica,sans-Serif" font-size="10.00">cstdlib</text>
</a>
</g>
</g>
<!-- Node7&#45;&gt;Node8 -->
<g id="edge8_Node000007_Node000008" class="edge">
<title>Node7&#45;&gt;Node8</title>
<g id="a_edge8_Node000007_Node000008"><a xlink:title=" ">
<path fill="none" stroke="#63b8ff" d="M910,-109.75C910,-102.8 910,-92.85 910,-84.13"/>
<polygon fill="#63b8ff" stroke="#63b8ff" points="913.5,-84.09 910,-74.09 906.5,-84.09 913.5,-84.09"/>
</a>
</g>
</g>
<!-- Node9 -->
<g id="Node000009" class="node">
<title>Node9</title>
<g id="a_Node000009"><a xlink:title=" ">
<polygon fill="#e0e0e0" stroke="#999999" points="867,-74 811,-74 811,-55 867,-55 867,-74"/>
<text text-anchor="middle" x="839" y="-62" font-family="Helvetica,sans-Serif" font-size="10.00">sstream</text>
</a>
</g>
</g>
<!-- Node7&#45;&gt;Node9 -->
<g id="edge9_Node000007_Node000009" class="edge">
<title>Node7&#45;&gt;Node9</title>
<g id="a_edge9_Node000007_Node000009"><a xlink:title=" ">
<path fill="none" stroke="#63b8ff" d="M898.59,-109.98C887.89,-102 871.66,-89.88 858.84,-80.31"/>
<polygon fill="#63b8ff" stroke="#63b8ff" points="860.72,-77.35 850.61,-74.17 856.53,-82.96 860.72,-77.35"/>
</a>
</g>
</g>
<!-- Node10 -->
<g id="Node000010" class="node">
<title>Node10</title>
<g id="a_Node000010"><a xlink:title=" ">
<polygon fill="#e0e0e0" stroke="#999999" points="792.5,-74 723.5,-74 723.5,-55 792.5,-55 792.5,-74"/>
<text text-anchor="middle" x="758" y="-62" font-family="Helvetica,sans-Serif" font-size="10.00">type_traits</text>
</a>
</g>
</g>
<!-- Node7&#45;&gt;Node10 -->
<g id="edge11_Node000007_Node000010" class="edge">
<title>Node7&#45;&gt;Node10</title>
<g id="a_edge11_Node000007_Node000010"><a xlink:title=" ">
<path fill="none" stroke="#63b8ff" d="M885.58,-109.98C860.28,-101.16 820.55,-87.31 792.14,-77.41"/>
<polygon fill="#63b8ff" stroke="#63b8ff" points="793.21,-74.07 782.61,-74.08 790.9,-80.68 793.21,-74.07"/>
</a>
</g>
</g>
<!-- Node12 -->
<g id="Node000012" class="node">
<title>Node12</title>
<g id="a_Node000012"><a xlink:href="dstring_8h.html" target="_top" xlink:title="Container for C&#45;Strings.">
<polygon fill="white" stroke="#666666" points="263.5,-184 204.5,-184 204.5,-165 263.5,-165 263.5,-184"/>
<text text-anchor="middle" x="234" y="-172" font-family="Helvetica,sans-Serif" font-size="10.00">dstring.h</text>
</a>
</g>
</g>
<!-- Node11&#45;&gt;Node12 -->
<g id="edge13_Node000011_Node000012" class="edge">
<title>Node11&#45;&gt;Node12</title>
<g id="a_edge13_Node000011_Node000012"><a xlink:title=" ">
<path fill="none" stroke="#63b8ff" d="M305.34,-219.98C292.16,-211.77 271.97,-199.18 256.43,-189.49"/>
<polygon fill="#63b8ff" stroke="#63b8ff" points="258.24,-186.49 247.91,-184.17 254.54,-192.43 258.24,-186.49"/>
</a>
</g>
</g>
<!-- Node20 -->
<g id="Node000020" class="node">
<title>Node20</title>
<g id="a_Node000020"><a xlink:title=" ">
<polygon fill="#e0e0e0" stroke="#999999" points="356,-184 282,-184 282,-165 356,-165 356,-184"/>
<text text-anchor="middle" x="319" y="-172" font-family="Helvetica,sans-Serif" font-size="10.00">irep_ids.def</text>
</a>
</g>
</g>
<!-- Node11&#45;&gt;Node20 -->
<g id="edge27_Node000011_Node000020" class="edge">
<title>Node11&#45;&gt;Node20</title>
<g id="a_edge27_Node000011_Node000020"><a xlink:title=" ">
<path fill="none" stroke="#63b8ff" d="M319,-219.75C319,-212.8 319,-202.85 319,-194.13"/>
<polygon fill="#63b8ff" stroke="#63b8ff" points="322.5,-194.09 319,-184.09 315.5,-194.09 322.5,-194.09"/>
</a>
</g>
</g>
<!-- Node12&#45;&gt;Node4 -->
<g id="edge15_Node000012_Node000004" class="edge">
<title>Node12&#45;&gt;Node4</title>
<g id="a_edge15_Node000012_Node000004"><a xlink:title=" ">
<path fill="none" stroke="#63b8ff" d="M263.8,-166.94C266.9,-166.27 270.01,-165.62 273,-165 415.29,-135.58 477.37,-169.36 587,-74 601.21,-61.64 611.61,-42.6 617.9,-28.6"/>
<polygon fill="#63b8ff" stroke="#63b8ff" points="621.26,-29.64 621.91,-19.06 614.81,-26.93 621.26,-29.64"/>
</a>
</g>
</g>
<!-- Node13 -->
<g id="Node000013" class="node">
<title>Node13</title>
<g id="a_Node000013"><a xlink:title=" ">
<polygon fill="#e0e0e0" stroke="#999999" points="448,-129 400,-129 400,-110 448,-110 448,-129"/>
<text text-anchor="middle" x="424" y="-117" font-family="Helvetica,sans-Serif" font-size="10.00">iosfwd</text>
</a>
</g>
</g>
<!-- Node12&#45;&gt;Node13 -->
<g id="edge14_Node000012_Node000013" class="edge">
<title>Node12&#45;&gt;Node13</title>
<g id="a_edge14_Node000012_Node000013"><a xlink:title=" ">
<path fill="none" stroke="#63b8ff" d="M263.69,-165.22C297.89,-155.68 353.97,-140.04 389.92,-130.01"/>
<polygon fill="#63b8ff" stroke="#63b8ff" points="391.24,-133.27 399.94,-127.21 389.36,-126.53 391.24,-133.27"/>
</a>
</g>
</g>
<!-- Node14 -->
<g id="Node000014" class="node">
<title>Node14</title>
<g id="a_Node000014"><a xlink:href="magic_8h.html" target="_top" xlink:title="Magic numbers used throughout the codebase.">
<polygon fill="white" stroke="#666666" points="260,-129 204,-129 204,-110 260,-110 260,-129"/>
<text text-anchor="middle" x="232" y="-117" font-family="Helvetica,sans-Serif" font-size="10.00">magic.h</text>
</a>
</g>
</g>
<!-- Node12&#45;&gt;Node14 -->
<g id="edge16_Node000012_Node000014" class="edge">
<title>Node12&#45;&gt;Node14</title>
<g id="a_edge16_Node000012_Node000014"><a xlink:title=" ">
<path fill="none" stroke="#63b8ff" d="M233.67,-164.75C233.41,-157.8 233.03,-147.85 232.7,-139.13"/>
<polygon fill="#63b8ff" stroke="#63b8ff" points="236.2,-138.95 232.32,-129.09 229.2,-139.21 236.2,-138.95"/>
</a>
</g>
</g>
<!-- Node16 -->
<g id="Node000016" class="node">
<title>Node16</title>
<g id="a_Node000016"><a xlink:href="string__container_8h.html" target="_top" xlink:title="Container for C&#45;Strings.">
<polygon fill="white" stroke="#666666" points="382,-129 278,-129 278,-110 382,-110 382,-129"/>
<text text-anchor="middle" x="330" y="-117" font-family="Helvetica,sans-Serif" font-size="10.00">string_container.h</text>
</a>
</g>
</g>
<!-- Node12&#45;&gt;Node16 -->
<g id="edge18_Node000012_Node000016" class="edge">
<title>Node12&#45;&gt;Node16</title>
<g id="a_edge18_Node000012_Node000016"><a xlink:title=" ">
<path fill="none" stroke="#63b8ff" d="M249.42,-164.98C264.45,-156.69 287.54,-143.94 305.16,-134.22"/>
<polygon fill="#63b8ff" stroke="#63b8ff" points="307.23,-137.07 314.3,-129.17 303.85,-130.94 307.23,-137.07"/>
</a>
</g>
</g>
<!-- Node15 -->
<g id="Node000015" class="node">
<title>Node15</title>
<g id="a_Node000015"><a xlink:title=" ">
<polygon fill="#e0e0e0" stroke="#999999" points="306.5,-19 253.5,-19 253.5,0 306.5,0 306.5,-19"/>
<text text-anchor="middle" x="280" y="-7" font-family="Helvetica,sans-Serif" font-size="10.00">cstddef</text>
</a>
</g>
</g>
<!-- Node14&#45;&gt;Node15 -->
<g id="edge17_Node000014_Node000015" class="edge">
<title>Node14&#45;&gt;Node15</title>
<g id="a_edge17_Node000014_Node000015"><a xlink:title=" ">
<path fill="none" stroke="#63b8ff" d="M235.93,-109.66C243.81,-91.93 261.68,-51.73 272.08,-28.32"/>
<polygon fill="#63b8ff" stroke="#63b8ff" points="275.29,-29.72 276.15,-19.16 268.89,-26.87 275.29,-29.72"/>
</a>
</g>
</g>
<!-- Node16&#45;&gt;Node3 -->
<g id="edge19_Node000016_Node000003" class="edge">
<title>Node16&#45;&gt;Node3</title>
<g id="a_edge19_Node000016_Node000003"><a xlink:title=" ">
<path fill="none" stroke="#63b8ff" d="M285.98,-109.98C228.3,-98.83 128.98,-79.62 82.03,-70.54"/>
<polygon fill="#63b8ff" stroke="#63b8ff" points="82.54,-67.07 72.06,-68.61 81.21,-73.94 82.54,-67.07"/>
</a>
</g>
</g>
<!-- Node16&#45;&gt;Node6 -->
<g id="edge21_Node000016_Node000006" class="edge">
<title>Node16&#45;&gt;Node6</title>
<g id="a_edge21_Node000016_Node000006"><a xlink:title=" ">
<path fill="none" stroke="#63b8ff" d="M307.51,-109.98C284.48,-101.27 248.46,-87.63 222.37,-77.75"/>
<polygon fill="#63b8ff" stroke="#63b8ff" points="223.49,-74.44 212.9,-74.17 221.02,-80.98 223.49,-74.44"/>
</a>
</g>
</g>
<!-- Node17 -->
<g id="Node000017" class="node">
<title>Node17</title>
<g id="a_Node000017"><a xlink:title=" ">
<polygon fill="#e0e0e0" stroke="#999999" points="477.5,-74 384.5,-74 384.5,-55 477.5,-55 477.5,-74"/>
<text text-anchor="middle" x="431" y="-62" font-family="Helvetica,sans-Serif" font-size="10.00">unordered_map</text>
</a>
</g>
</g>
<!-- Node16&#45;&gt;Node17 -->
<g id="edge20_Node000016_Node000017" class="edge">
<title>Node16&#45;&gt;Node17</title>
<g id="a_edge20_Node000016_Node000017"><a xlink:title=" ">
<path fill="none" stroke="#63b8ff" d="M346.23,-109.98C362.18,-101.61 386.78,-88.7 405.38,-78.95"/>
<polygon fill="#63b8ff" stroke="#63b8ff" points="407.25,-81.92 414.48,-74.17 404,-75.72 407.25,-81.92"/>
</a>
</g>
</g>
<!-- Node18 -->
<g id="Node000018" class="node">
<title>Node18</title>
<g id="a_Node000018"><a xlink:href="memory__units_8h.html" target="_top" xlink:title=" ">
<polygon fill="white" stroke="#666666" points="366,-74 270,-74 270,-55 366,-55 366,-74"/>
<text text-anchor="middle" x="318" y="-62" font-family="Helvetica,sans-Serif" font-size="10.00">memory_units.h</text>
</a>
</g>
</g>
<!-- Node16&#45;&gt;Node18 -->
<g id="edge22_Node000016_Node000018" class="edge">
<title>Node16&#45;&gt;Node18</title>
<g id="a_edge22_Node000016_Node000018"><a xlink:title=" ">
<path fill="none" stroke="#63b8ff" d="M328.02,-109.75C326.43,-102.72 324.14,-92.62 322.15,-83.84"/>
<polygon fill="#63b8ff" stroke="#63b8ff" points="325.57,-83.07 319.94,-74.09 318.74,-84.62 325.57,-83.07"/>
</a>
</g>
</g>
<!-- Node19 -->
<g id="Node000019" class="node">
<title>Node19</title>
<g id="a_Node000019"><a xlink:href="string__hash_8h.html" target="_top" xlink:title="string hashing">
<polygon fill="white" stroke="#666666" points="578,-74 496,-74 496,-55 578,-55 578,-74"/>
<text text-anchor="middle" x="537" y="-62" font-family="Helvetica,sans-Serif" font-size="10.00">string_hash.h</text>
</a>
</g>
</g>
<!-- Node16&#45;&gt;Node19 -->
<g id="edge25_Node000016_Node000019" class="edge">
<title>Node16&#45;&gt;Node19</title>
<g id="a_edge25_Node000016_Node000019"><a xlink:title=" ">
<path fill="none" stroke="#63b8ff" d="M363.26,-109.98C398.61,-100.93 454.67,-86.58 493.51,-76.64"/>
<polygon fill="#63b8ff" stroke="#63b8ff" points="494.66,-79.95 503.48,-74.08 492.93,-73.17 494.66,-79.95"/>
</a>
</g>
</g>
<!-- Node18&#45;&gt;Node4 -->
<g id="edge24_Node000018_Node000004" class="edge">
<title>Node18&#45;&gt;Node4</title>
<g id="a_edge24_Node000018_Node000004"><a xlink:title=" ">
<path fill="none" stroke="#63b8ff" d="M366.31,-55.16C429.63,-44.23 538.97,-25.35 592.95,-16.03"/>
<polygon fill="#63b8ff" stroke="#63b8ff" points="593.72,-19.45 602.98,-14.3 592.53,-12.55 593.72,-19.45"/>
</a>
</g>
</g>
<!-- Node18&#45;&gt;Node15 -->
<g id="edge23_Node000018_Node000015" class="edge">
<title>Node18&#45;&gt;Node15</title>
<g id="a_edge23_Node000018_Node000015"><a xlink:title=" ">
<path fill="none" stroke="#63b8ff" d="M311.73,-54.75C306.41,-47.34 298.64,-36.5 292.12,-27.41"/>
<polygon fill="#63b8ff" stroke="#63b8ff" points="294.83,-25.18 286.16,-19.09 289.14,-29.26 294.83,-25.18"/>
</a>
</g>
</g>
<!-- Node19&#45;&gt;Node4 -->
<g id="edge26_Node000019_Node000004" class="edge">
<title>Node19&#45;&gt;Node4</title>
<g id="a_edge26_Node000019_Node000004"><a xlink:title=" ">
<path fill="none" stroke="#63b8ff" d="M551.14,-54.98C564.79,-46.77 585.69,-34.18 601.78,-24.49"/>
<polygon fill="#63b8ff" stroke="#63b8ff" points="603.84,-27.33 610.6,-19.17 600.23,-21.33 603.84,-27.33"/>
</a>
</g>
</g>
<!-- Node22 -->
<g id="Node000022" class="node">
<title>Node22</title>
<g id="a_Node000022"><a xlink:title=" ">
<polygon fill="#e0e0e0" stroke="#999999" points="524,-184 460,-184 460,-165 524,-165 524,-184"/>
<text text-anchor="middle" x="492" y="-172" font-family="Helvetica,sans-Serif" font-size="10.00">algorithm</text>
</a>
</g>
</g>
<!-- Node21&#45;&gt;Node22 -->
<g id="edge29_Node000021_Node000022" class="edge">
<title>Node21&#45;&gt;Node22</title>
<g id="a_edge29_Node000021_Node000022"><a xlink:title=" ">
<path fill="none" stroke="#63b8ff" d="M517.05,-219.75C512.94,-212.49 506.97,-201.95 501.9,-192.98"/>
<polygon fill="#63b8ff" stroke="#63b8ff" points="504.83,-191.07 496.86,-184.09 498.74,-194.52 504.83,-191.07"/>
</a>
</g>
</g>
<!-- Node23 -->
<g id="Node000023" class="node">
<title>Node23</title>
<g id="a_Node000023"><a xlink:title=" ">
<polygon fill="#e0e0e0" stroke="#999999" points="616,-184 542,-184 542,-165 616,-165 616,-184"/>
<text text-anchor="middle" x="579" y="-172" font-family="Helvetica,sans-Serif" font-size="10.00">forward_list</text>
</a>
</g>
</g>
<!-- Node21&#45;&gt;Node23 -->
<g id="edge30_Node000021_Node000023" class="edge">
<title>Node21&#45;&gt;Node23</title>
<g id="a_edge30_Node000021_Node000023"><a xlink:title=" ">
<path fill="none" stroke="#63b8ff" d="M531.16,-219.98C539.5,-212.23 552.03,-200.58 562.18,-191.14"/>
<polygon fill="#63b8ff" stroke="#63b8ff" points="564.74,-193.54 569.68,-184.17 559.97,-188.42 564.74,-193.54"/>
</a>
</g>
</g>
<!-- Node24 -->
<g id="Node000024" class="node">
<title>Node24</title>
<g id="a_Node000024"><a xlink:href="as__const_8h.html" target="_top" xlink:title=" ">
<polygon fill="white" stroke="#666666" points="442,-184 374,-184 374,-165 442,-165 442,-184"/>
<text text-anchor="middle" x="408" y="-172" font-family="Helvetica,sans-Serif" font-size="10.00">as_const.h</text>
</a>
</g>
</g>
<!-- Node21&#45;&gt;Node24 -->
<g id="edge31_Node000021_Node000024" class="edge">
<title>Node21&#45;&gt;Node24</title>
<g id="a_edge31_Node000021_Node000024"><a xlink:title=" ">
<path fill="none" stroke="#63b8ff" d="M503.68,-219.98C485.34,-211.46 456.89,-198.23 435.77,-188.41"/>
<polygon fill="#63b8ff" stroke="#63b8ff" points="437.19,-185.21 426.65,-184.17 434.24,-191.56 437.19,-185.21"/>
</a>
</g>
</g>
<!-- Node25 -->
<g id="Node000025" class="node">
<title>Node25</title>
<g id="a_Node000025"><a xlink:href="narrow_8h.html" target="_top" xlink:title=" ">
<polygon fill="white" stroke="#666666" points="769.5,-184 710.5,-184 710.5,-165 769.5,-165 769.5,-184"/>
<text text-anchor="middle" x="740" y="-172" font-family="Helvetica,sans-Serif" font-size="10.00">narrow.h</text>
</a>
</g>
</g>
<!-- Node21&#45;&gt;Node25 -->
<g id="edge32_Node000021_Node000025" class="edge">
<title>Node21&#45;&gt;Node25</title>
<g id="a_edge32_Node000021_Node000025"><a xlink:title=" ">
<path fill="none" stroke="#63b8ff" d="M557.03,-219.98C596.19,-210.46 659.49,-195.07 700.42,-185.12"/>
<polygon fill="#63b8ff" stroke="#63b8ff" points="701.42,-188.48 710.31,-182.72 699.77,-181.68 701.42,-188.48"/>
</a>
</g>
</g>
<!-- Node25&#45;&gt;Node7 -->
<g id="edge34_Node000025_Node000007" class="edge">
<title>Node25&#45;&gt;Node7</title>
<g id="a_edge34_Node000025_Node000007"><a xlink:title=" ">
<path fill="none" stroke="#63b8ff" d="M767.31,-164.98C795.85,-156.09 840.83,-142.07 872.64,-132.15"/>
<polygon fill="#63b8ff" stroke="#63b8ff" points="873.97,-135.4 882.47,-129.08 871.88,-128.72 873.97,-135.4"/>
</a>
</g>
</g>
<!-- Node25&#45;&gt;Node10 -->
<g id="edge33_Node000025_Node000010" class="edge">
<title>Node25&#45;&gt;Node10</title>
<g id="a_edge33_Node000025_Node000010"><a xlink:title=" ">
<path fill="none" stroke="#63b8ff" d="M741.47,-164.66C744.39,-147.17 750.95,-107.8 754.87,-84.27"/>
<polygon fill="#63b8ff" stroke="#63b8ff" points="758.37,-84.6 756.56,-74.16 751.46,-83.45 758.37,-84.6"/>
</a>
</g>
</g>
<!-- Node26&#45;&gt;Node4 -->
<g id="edge38_Node000026_Node000004" class="edge">
<title>Node26&#45;&gt;Node4</title>
<g id="a_edge38_Node000026_Node000004"><a xlink:title=" ">
<path fill="none" stroke="#63b8ff" d="M939.61,-384.91C988.8,-372.4 1062,-343.95 1062,-285.5 1062,-285.5 1062,-285.5 1062,-118.5 1062,-35.18 758.82,-15.73 657.52,-11.56"/>
<polygon fill="#63b8ff" stroke="#63b8ff" points="657.4,-8.05 647.27,-11.16 657.13,-15.05 657.4,-8.05"/>
</a>
</g>
</g>
<!-- Node26&#45;&gt;Node7 -->
<g id="edge39_Node000026_Node000007" class="edge">
<title>Node26&#45;&gt;Node7</title>
<g id="a_edge39_Node000026_Node000007"><a xlink:title=" ">
<path fill="none" stroke="#63b8ff" d="M904.77,-384.92C920.5,-368.85 953.01,-332.32 965,-294 982.95,-236.61 943.82,-168.66 922.55,-137.57"/>
<polygon fill="#63b8ff" stroke="#63b8ff" points="925.24,-135.31 916.61,-129.16 919.52,-139.35 925.24,-135.31"/>
</a>
</g>
</g>
<!-- Node27 -->
<g id="Node000027" class="node">
<title>Node27</title>
<g id="a_Node000027"><a xlink:href="source__location_8h.html" target="_top" xlink:title=" ">
<polygon fill="white" stroke="#666666" points="905,-349 803,-349 803,-330 905,-330 905,-349"/>
<text text-anchor="middle" x="854" y="-337" font-family="Helvetica,sans-Serif" font-size="10.00">source_location.h</text>
</a>
</g>
</g>
<!-- Node26&#45;&gt;Node27 -->
<g id="edge40_Node000026_Node000027" class="edge">
<title>Node26&#45;&gt;Node27</title>
<g id="a_edge40_Node000026_Node000027"><a xlink:title=" ">
<path fill="none" stroke="#63b8ff" d="M889.06,-384.75C883.13,-377.26 874.43,-366.28 867.18,-357.13"/>
<polygon fill="#63b8ff" stroke="#63b8ff" points="869.76,-354.75 860.81,-349.09 864.27,-359.1 869.76,-354.75"/>
</a>
</g>
</g>
<!-- Node27&#45;&gt;Node4 -->
<g id="edge44_Node000027_Node000004" class="edge">
<title>Node27&#45;&gt;Node4</title>
<g id="a_edge44_Node000027_Node000004"><a xlink:title=" ">
<path fill="none" stroke="#63b8ff" d="M856,-329.66C858.97,-317.2 865.05,-293.88 873,-275 913.81,-178.1 1029.28,-134.09 960,-55 940.21,-32.4 737.67,-17.48 657.46,-12.42"/>
<polygon fill="#63b8ff" stroke="#63b8ff" points="657.62,-8.92 647.42,-11.79 657.19,-15.91 657.62,-8.92"/>
</a>
</g>
</g>
<!-- Node27&#45;&gt;Node5 -->
<g id="edge42_Node000027_Node000005" class="edge">
<title>Node27&#45;&gt;Node5</title>
<g id="a_edge42_Node000027_Node000005"><a xlink:title=" ">
<path fill="none" stroke="#63b8ff" d="M802.85,-330.33C737.17,-319.85 624.43,-301.85 563.69,-292.15"/>
<polygon fill="#63b8ff" stroke="#63b8ff" points="564.11,-288.68 553.69,-290.56 563.01,-295.59 564.11,-288.68"/>
</a>
</g>
</g>
<!-- Node28 -->
<g id="Node000028" class="node">
<title>Node28</title>
<g id="a_Node000028"><a xlink:href="deprecate_8h.html" target="_top" xlink:title=" ">
<polygon fill="white" stroke="#666666" points="956,-294 882,-294 882,-275 956,-275 956,-294"/>
<text text-anchor="middle" x="919" y="-282" font-family="Helvetica,sans-Serif" font-size="10.00">deprecate.h</text>
</a>
</g>
</g>
<!-- Node27&#45;&gt;Node28 -->
<g id="edge41_Node000027_Node000028" class="edge">
<title>Node27&#45;&gt;Node28</title>
<g id="a_edge41_Node000027_Node000028"><a xlink:title=" ">
<path fill="none" stroke="#63b8ff" d="M864.44,-329.98C874.15,-322.07 888.82,-310.11 900.5,-300.58"/>
<polygon fill="#63b8ff" stroke="#63b8ff" points="902.83,-303.2 908.37,-294.17 898.4,-297.78 902.83,-303.2"/>
</a>
</g>
</g>
<!-- Node29 -->
<g id="Node000029" class="node">
<title>Node29</title>
<g id="a_Node000029"><a xlink:title=" ">
<polygon fill="#e0e0e0" stroke="#999999" points="882,-184 826,-184 826,-165 882,-165 882,-184"/>
<text text-anchor="middle" x="854" y="-172" font-family="Helvetica,sans-Serif" font-size="10.00">optional</text>
</a>
</g>
</g>
<!-- Node27&#45;&gt;Node29 -->
<g id="edge43_Node000027_Node000029" class="edge">
<title>Node27&#45;&gt;Node29</title>
<g id="a_edge43_Node000027_Node000029"><a xlink:title=" ">
<path fill="none" stroke="#63b8ff" d="M850.4,-329.82C846.94,-320.99 841.97,-306.81 840,-294 834.59,-258.81 842.76,-217.46 848.71,-194.08"/>
<polygon fill="#63b8ff" stroke="#63b8ff" points="852.16,-194.72 851.38,-184.15 845.4,-192.9 852.16,-194.72"/>
</a>
</g>
</g>
<!-- Node30&#45;&gt;Node4 -->
<g id="edge49_Node000030_Node000004" class="edge">
<title>Node30&#45;&gt;Node4</title>
<g id="a_edge49_Node000030_Node000004"><a xlink:title=" ">
<path fill="none" stroke="#63b8ff" d="M730.73,-219.74C722.24,-211.28 709.84,-197.77 702,-184 672.02,-131.36 686.16,-108.64 658,-55 652.81,-45.12 645.55,-35.05 639.16,-27"/>
<polygon fill="#63b8ff" stroke="#63b8ff" points="641.76,-24.65 632.7,-19.16 636.35,-29.1 641.76,-24.65"/>
</a>
</g>
</g>
<!-- Node30&#45;&gt;Node10 -->
<g id="edge50_Node000030_Node000010" class="edge">
<title>Node30&#45;&gt;Node10</title>
<g id="a_edge50_Node000030_Node000010"><a xlink:title=" ">
<path fill="none" stroke="#63b8ff" d="M750.99,-219.99C760.45,-211.9 773.43,-198.81 779,-184 791.88,-149.76 777.32,-106.92 766.83,-83.27"/>
<polygon fill="#63b8ff" stroke="#63b8ff" points="769.95,-81.69 762.54,-74.12 763.61,-84.66 769.95,-81.69"/>
</a>
</g>
</g>
<!-- Node30&#45;&gt;Node25 -->
<g id="edge47_Node000030_Node000025" class="edge">
<title>Node30&#45;&gt;Node25</title>
<g id="a_edge47_Node000030_Node000025"><a xlink:title=" ">
<path fill="none" stroke="#63b8ff" d="M740,-219.75C740,-212.8 740,-202.85 740,-194.13"/>
<polygon fill="#63b8ff" stroke="#63b8ff" points="743.5,-194.09 740,-184.09 736.5,-194.09 743.5,-194.09"/>
</a>
</g>
</g>
<!-- Node30&#45;&gt;Node29 -->
<g id="edge48_Node000030_Node000029" class="edge">
<title>Node30&#45;&gt;Node29</title>
<g id="a_edge48_Node000030_Node000029"><a xlink:title=" ">
<path fill="none" stroke="#63b8ff" d="M758.32,-219.98C776.66,-211.46 805.11,-198.23 826.23,-188.41"/>
<polygon fill="#63b8ff" stroke="#63b8ff" points="827.76,-191.56 835.35,-184.17 824.81,-185.21 827.76,-191.56"/>
</a>
</g>
</g>
</g>
</svg>
