<?xml version="1.0" encoding="UTF-8" standalone="no"?>
<!DOCTYPE svg PUBLIC "-//W3C//DTD SVG 1.1//EN"
 "http://www.w3.org/Graphics/SVG/1.1/DTD/svg11.dtd">
<!-- Generated by graphviz version 2.43.0 (0)
 -->
<!-- Title: /home/runner/work/cbmc/cbmc/src/goto&#45;programs/goto_inline.h Pages: 1 -->
<svg width="1049pt" height="434pt"
 viewBox="0.00 0.00 1049.00 434.00" xmlns="http://www.w3.org/2000/svg" xmlns:xlink="http://www.w3.org/1999/xlink">
<g id="graph0" class="graph" transform="scale(1 1) rotate(0) translate(4 430)">
<title>/home/runner/work/cbmc/cbmc/src/goto&#45;programs/goto_inline.h</title>
<!-- Node1 -->
<g id="Node000001" class="node">
<title>Node1</title>
<g id="a_Node000001"><a xlink:title="Function Inlining This gives a number of different interfaces to the function inlining functionality ...">
<polygon fill="#999999" stroke="#666666" points="768.5,-426 630.5,-426 630.5,-385 768.5,-385 768.5,-426"/>
<text text-anchor="start" x="638.5" y="-414" font-family="Helvetica,sans-Serif" font-size="10.00">/home/runner/work/cbmc</text>
<text text-anchor="start" x="638.5" y="-403" font-family="Helvetica,sans-Serif" font-size="10.00">/cbmc/src/goto&#45;programs</text>
<text text-anchor="middle" x="699.5" y="-392" font-family="Helvetica,sans-Serif" font-size="10.00">/goto_inline.h</text>
</a>
</g>
</g>
<!-- Node2 -->
<g id="Node000002" class="node">
<title>Node2</title>
<g id="a_Node000002"><a xlink:href="json_8h.html" target="_top" xlink:title=" ">
<polygon fill="white" stroke="#666666" points="732,-349 667,-349 667,-330 732,-330 732,-349"/>
<text text-anchor="middle" x="699.5" y="-337" font-family="Helvetica,sans-Serif" font-size="10.00">util/json.h</text>
</a>
</g>
</g>
<!-- Node1&#45;&gt;Node2 -->
<g id="edge1_Node000001_Node000002" class="edge">
<title>Node1&#45;&gt;Node2</title>
<g id="a_edge1_Node000001_Node000002"><a xlink:title=" ">
<path fill="none" stroke="#63b8ff" d="M699.5,-384.95C699.5,-376.85 699.5,-367.5 699.5,-359.47"/>
<polygon fill="#63b8ff" stroke="#63b8ff" points="703,-359.26 699.5,-349.26 696,-359.26 703,-359.26"/>
</a>
</g>
</g>
<!-- Node3 -->
<g id="Node000003" class="node">
<title>Node3</title>
<g id="a_Node000003"><a xlink:title=" ">
<polygon fill="#e0e0e0" stroke="#999999" points="47,-74 0,-74 0,-55 47,-55 47,-74"/>
<text text-anchor="middle" x="23.5" y="-62" font-family="Helvetica,sans-Serif" font-size="10.00">vector</text>
</a>
</g>
</g>
<!-- Node2&#45;&gt;Node3 -->
<g id="edge2_Node000002_Node000003" class="edge">
<title>Node2&#45;&gt;Node3</title>
<g id="a_edge2_Node000002_Node000003"><a xlink:title=" ">
<path fill="none" stroke="#63b8ff" d="M666.88,-336.71C532.96,-328.94 32.5,-295.53 32.5,-230.5 32.5,-230.5 32.5,-230.5 32.5,-173.5 32.5,-142.08 28.67,-105.7 26.01,-84.2"/>
<polygon fill="#63b8ff" stroke="#63b8ff" points="29.46,-83.63 24.71,-74.16 22.52,-84.52 29.46,-83.63"/>
</a>
</g>
</g>
<!-- Node4 -->
<g id="Node000004" class="node">
<title>Node4</title>
<g id="a_Node000004"><a xlink:title=" ">
<polygon fill="#e0e0e0" stroke="#999999" points="937.5,-294 899.5,-294 899.5,-275 937.5,-275 937.5,-294"/>
<text text-anchor="middle" x="918.5" y="-282" font-family="Helvetica,sans-Serif" font-size="10.00">map</text>
</a>
</g>
</g>
<!-- Node2&#45;&gt;Node4 -->
<g id="edge3_Node000002_Node000004" class="edge">
<title>Node2&#45;&gt;Node4</title>
<g id="a_edge3_Node000002_Node000004"><a xlink:title=" ">
<path fill="none" stroke="#63b8ff" d="M732.13,-330.87C769.31,-322.14 831.85,-307.33 885.5,-294 886.76,-293.69 888.05,-293.37 889.34,-293.04"/>
<polygon fill="#63b8ff" stroke="#63b8ff" points="890.49,-296.36 899.32,-290.5 888.76,-289.57 890.49,-296.36"/>
</a>
</g>
</g>
<!-- Node5 -->
<g id="Node000005" class="node">
<title>Node5</title>
<g id="a_Node000005"><a xlink:title=" ">
<polygon fill="#e0e0e0" stroke="#999999" points="116.5,-129 68.5,-129 68.5,-110 116.5,-110 116.5,-129"/>
<text text-anchor="middle" x="92.5" y="-117" font-family="Helvetica,sans-Serif" font-size="10.00">iosfwd</text>
</a>
</g>
</g>
<!-- Node2&#45;&gt;Node5 -->
<g id="edge4_Node000002_Node000005" class="edge">
<title>Node2&#45;&gt;Node5</title>
<g id="a_edge4_Node000002_Node000005"><a xlink:title=" ">
<path fill="none" stroke="#63b8ff" d="M666.98,-335.46C593.59,-327.66 410.71,-302.84 272.5,-239 209.16,-209.75 142.59,-160.24 111.11,-135.5"/>
<polygon fill="#63b8ff" stroke="#63b8ff" points="113.2,-132.69 103.19,-129.22 108.85,-138.18 113.2,-132.69"/>
</a>
</g>
</g>
<!-- Node6 -->
<g id="Node000006" class="node">
<title>Node6</title>
<g id="a_Node000006"><a xlink:title=" ">
<polygon fill="#e0e0e0" stroke="#999999" points="530.5,-19 486.5,-19 486.5,0 530.5,0 530.5,-19"/>
<text text-anchor="middle" x="508.5" y="-7" font-family="Helvetica,sans-Serif" font-size="10.00">string</text>
</a>
</g>
</g>
<!-- Node2&#45;&gt;Node6 -->
<g id="edge5_Node000002_Node000006" class="edge">
<title>Node2&#45;&gt;Node6</title>
<g id="a_edge5_Node000002_Node000006"><a xlink:title=" ">
<path fill="none" stroke="#63b8ff" d="M727.59,-329.93C766.88,-316 833.5,-284.43 833.5,-230.5 833.5,-230.5 833.5,-230.5 833.5,-118.5 833.5,-89.04 836.8,-74.25 814.5,-55 774.01,-20.04 611.15,-12.54 540.96,-10.94"/>
<polygon fill="#63b8ff" stroke="#63b8ff" points="540.98,-7.44 530.91,-10.73 540.83,-14.44 540.98,-7.44"/>
</a>
</g>
</g>
<!-- Node7 -->
<g id="Node000007" class="node">
<title>Node7</title>
<g id="a_Node000007"><a xlink:href="irep_8h.html" target="_top" xlink:title=" ">
<polygon fill="white" stroke="#666666" points="514.5,-294 470.5,-294 470.5,-275 514.5,-275 514.5,-294"/>
<text text-anchor="middle" x="492.5" y="-282" font-family="Helvetica,sans-Serif" font-size="10.00">irep.h</text>
</a>
</g>
</g>
<!-- Node2&#45;&gt;Node7 -->
<g id="edge6_Node000002_Node000007" class="edge">
<title>Node2&#45;&gt;Node7</title>
<g id="a_edge6_Node000002_Node000007"><a xlink:title=" ">
<path fill="none" stroke="#63b8ff" d="M666.7,-330.1C627.83,-320.15 563.48,-303.67 524.82,-293.78"/>
<polygon fill="#63b8ff" stroke="#63b8ff" points="525.2,-290.26 514.64,-291.17 523.46,-297.04 525.2,-290.26"/>
</a>
</g>
</g>
<!-- Node27 -->
<g id="Node000027" class="node">
<title>Node27</title>
<g id="a_Node000027"><a xlink:href="range_8h.html" target="_top" xlink:title="Ranges: pair of begin and end iterators, which can be initialized from containers,...">
<polygon fill="white" stroke="#666666" points="915,-184 862,-184 862,-165 915,-165 915,-184"/>
<text text-anchor="middle" x="888.5" y="-172" font-family="Helvetica,sans-Serif" font-size="10.00">range.h</text>
</a>
</g>
</g>
<!-- Node2&#45;&gt;Node27 -->
<g id="edge37_Node000002_Node000027" class="edge">
<title>Node2&#45;&gt;Node27</title>
<g id="a_edge37_Node000002_Node000027"><a xlink:title=" ">
<path fill="none" stroke="#63b8ff" d="M732.03,-337.08C765.2,-333.92 816.14,-324.1 847.5,-294 875.55,-267.08 884.42,-220.06 887.21,-194.07"/>
<polygon fill="#63b8ff" stroke="#63b8ff" points="890.71,-194.33 888.1,-184.06 883.73,-193.71 890.71,-194.33"/>
</a>
</g>
</g>
<!-- Node7&#45;&gt;Node3 -->
<g id="edge8_Node000007_Node000003" class="edge">
<title>Node7&#45;&gt;Node3</title>
<g id="a_edge8_Node000007_Node000003"><a xlink:title=" ">
<path fill="none" stroke="#63b8ff" d="M470.22,-280.46C435.56,-275.2 367.14,-262.6 313.5,-239 220.74,-198.19 213.81,-159.7 125.5,-110 103.22,-97.46 76.71,-85.99 56.31,-77.84"/>
<polygon fill="#63b8ff" stroke="#63b8ff" points="57.41,-74.51 46.83,-74.11 54.85,-81.03 57.41,-74.51"/>
</a>
</g>
</g>
<!-- Node7&#45;&gt;Node6 -->
<g id="edge7_Node000007_Node000006" class="edge">
<title>Node7&#45;&gt;Node6</title>
<g id="a_edge7_Node000007_Node000006"><a xlink:title=" ">
<path fill="none" stroke="#63b8ff" d="M483.92,-274.95C465.91,-255.95 426.77,-208.44 438.5,-165 450.7,-119.81 473.51,-117.21 491.5,-74 497.54,-59.49 502,-42.23 504.83,-29.36"/>
<polygon fill="#63b8ff" stroke="#63b8ff" points="508.3,-29.87 506.9,-19.37 501.45,-28.45 508.3,-29.87"/>
</a>
</g>
</g>
<!-- Node8 -->
<g id="Node000008" class="node">
<title>Node8</title>
<g id="a_Node000008"><a xlink:href="src_2util_2invariant_8h.html" target="_top" xlink:title=" ">
<polygon fill="white" stroke="#666666" points="742,-129 673,-129 673,-110 742,-110 742,-129"/>
<text text-anchor="middle" x="707.5" y="-117" font-family="Helvetica,sans-Serif" font-size="10.00">invariant.h</text>
</a>
</g>
</g>
<!-- Node7&#45;&gt;Node8 -->
<g id="edge9_Node000007_Node000008" class="edge">
<title>Node7&#45;&gt;Node8</title>
<g id="a_edge9_Node000007_Node000008"><a xlink:title=" ">
<path fill="none" stroke="#63b8ff" d="M514.67,-283.78C570.44,-283.13 716.4,-272.65 776.5,-184 790.37,-163.54 763.51,-145.01 739.36,-133.32"/>
<polygon fill="#63b8ff" stroke="#63b8ff" points="740.54,-130.01 729.99,-129.04 737.63,-136.38 740.54,-130.01"/>
</a>
</g>
</g>
<!-- Node12 -->
<g id="Node000012" class="node">
<title>Node12</title>
<g id="a_Node000012"><a xlink:href="irep__ids_8h.html" target="_top" xlink:title="util">
<polygon fill="white" stroke="#666666" points="386.5,-239 322.5,-239 322.5,-220 386.5,-220 386.5,-239"/>
<text text-anchor="middle" x="354.5" y="-227" font-family="Helvetica,sans-Serif" font-size="10.00">irep_ids.h</text>
</a>
</g>
</g>
<!-- Node7&#45;&gt;Node12 -->
<g id="edge14_Node000007_Node000012" class="edge">
<title>Node7&#45;&gt;Node12</title>
<g id="a_edge14_Node000007_Node000012"><a xlink:title=" ">
<path fill="none" stroke="#63b8ff" d="M470.33,-274.98C447.73,-266.3 412.44,-252.75 386.75,-242.88"/>
<polygon fill="#63b8ff" stroke="#63b8ff" points="387.67,-239.49 377.08,-239.17 385.16,-246.02 387.67,-239.49"/>
</a>
</g>
</g>
<!-- Node22 -->
<g id="Node000022" class="node">
<title>Node22</title>
<g id="a_Node000022"><a xlink:href="forward__list__as__map_8h.html" target="_top" xlink:title=" ">
<polygon fill="white" stroke="#666666" points="629,-239 502,-239 502,-220 629,-220 629,-239"/>
<text text-anchor="middle" x="565.5" y="-227" font-family="Helvetica,sans-Serif" font-size="10.00">forward_list_as_map.h</text>
</a>
</g>
</g>
<!-- Node7&#45;&gt;Node22 -->
<g id="edge30_Node000007_Node000022" class="edge">
<title>Node7&#45;&gt;Node22</title>
<g id="a_edge30_Node000007_Node000022"><a xlink:title=" ">
<path fill="none" stroke="#63b8ff" d="M504.23,-274.98C515.23,-267 531.92,-254.88 545.1,-245.31"/>
<polygon fill="#63b8ff" stroke="#63b8ff" points="547.52,-247.88 553.56,-239.17 543.41,-242.21 547.52,-247.88"/>
</a>
</g>
</g>
<!-- Node8&#45;&gt;Node6 -->
<g id="edge12_Node000008_Node000006" class="edge">
<title>Node8&#45;&gt;Node6</title>
<g id="a_edge12_Node000008_Node000006"><a xlink:title=" ">
<path fill="none" stroke="#63b8ff" d="M675.11,-109.97C649.73,-102.52 614.07,-90.35 585.5,-74 562.4,-60.79 539.31,-40.58 524.53,-26.52"/>
<polygon fill="#63b8ff" stroke="#63b8ff" points="526.83,-23.88 517.22,-19.42 521.96,-28.9 526.83,-23.88"/>
</a>
</g>
</g>
<!-- Node9 -->
<g id="Node000009" class="node">
<title>Node9</title>
<g id="a_Node000009"><a xlink:title=" ">
<polygon fill="#e0e0e0" stroke="#999999" points="643,-74 594,-74 594,-55 643,-55 643,-74"/>
<text text-anchor="middle" x="618.5" y="-62" font-family="Helvetica,sans-Serif" font-size="10.00">cstdlib</text>
</a>
</g>
</g>
<!-- Node8&#45;&gt;Node9 -->
<g id="edge10_Node000008_Node000009" class="edge">
<title>Node8&#45;&gt;Node9</title>
<g id="a_edge10_Node000008_Node000009"><a xlink:title=" ">
<path fill="none" stroke="#63b8ff" d="M693.2,-109.98C679.4,-101.77 658.26,-89.18 641.99,-79.49"/>
<polygon fill="#63b8ff" stroke="#63b8ff" points="643.44,-76.28 633.06,-74.17 639.86,-82.29 643.44,-76.28"/>
</a>
</g>
</g>
<!-- Node10 -->
<g id="Node000010" class="node">
<title>Node10</title>
<g id="a_Node000010"><a xlink:title=" ">
<polygon fill="#e0e0e0" stroke="#999999" points="717.5,-74 661.5,-74 661.5,-55 717.5,-55 717.5,-74"/>
<text text-anchor="middle" x="689.5" y="-62" font-family="Helvetica,sans-Serif" font-size="10.00">sstream</text>
</a>
</g>
</g>
<!-- Node8&#45;&gt;Node10 -->
<g id="edge11_Node000008_Node000010" class="edge">
<title>Node8&#45;&gt;Node10</title>
<g id="a_edge11_Node000008_Node000010"><a xlink:title=" ">
<path fill="none" stroke="#63b8ff" d="M704.53,-109.75C702.14,-102.72 698.71,-92.62 695.73,-83.84"/>
<polygon fill="#63b8ff" stroke="#63b8ff" points="698.95,-82.43 692.42,-74.09 692.32,-84.68 698.95,-82.43"/>
</a>
</g>
</g>
<!-- Node11 -->
<g id="Node000011" class="node">
<title>Node11</title>
<g id="a_Node000011"><a xlink:title=" ">
<polygon fill="#e0e0e0" stroke="#999999" points="805,-74 736,-74 736,-55 805,-55 805,-74"/>
<text text-anchor="middle" x="770.5" y="-62" font-family="Helvetica,sans-Serif" font-size="10.00">type_traits</text>
</a>
</g>
</g>
<!-- Node8&#45;&gt;Node11 -->
<g id="edge13_Node000008_Node000011" class="edge">
<title>Node8&#45;&gt;Node11</title>
<g id="a_edge13_Node000008_Node000011"><a xlink:title=" ">
<path fill="none" stroke="#63b8ff" d="M717.62,-109.98C726.94,-102.15 740.97,-90.34 752.24,-80.86"/>
<polygon fill="#63b8ff" stroke="#63b8ff" points="754.79,-83.29 760.19,-74.17 750.29,-77.93 754.79,-83.29"/>
</a>
</g>
</g>
<!-- Node13 -->
<g id="Node000013" class="node">
<title>Node13</title>
<g id="a_Node000013"><a xlink:href="dstring_8h.html" target="_top" xlink:title="Container for C&#45;Strings.">
<polygon fill="white" stroke="#666666" points="299,-184 240,-184 240,-165 299,-165 299,-184"/>
<text text-anchor="middle" x="269.5" y="-172" font-family="Helvetica,sans-Serif" font-size="10.00">dstring.h</text>
</a>
</g>
</g>
<!-- Node12&#45;&gt;Node13 -->
<g id="edge15_Node000012_Node000013" class="edge">
<title>Node12&#45;&gt;Node13</title>
<g id="a_edge15_Node000012_Node000013"><a xlink:title=" ">
<path fill="none" stroke="#63b8ff" d="M340.84,-219.98C327.66,-211.77 307.47,-199.18 291.93,-189.49"/>
<polygon fill="#63b8ff" stroke="#63b8ff" points="293.74,-186.49 283.41,-184.17 290.04,-192.43 293.74,-186.49"/>
</a>
</g>
</g>
<!-- Node21 -->
<g id="Node000021" class="node">
<title>Node21</title>
<g id="a_Node000021"><a xlink:title=" ">
<polygon fill="#e0e0e0" stroke="#999999" points="391.5,-184 317.5,-184 317.5,-165 391.5,-165 391.5,-184"/>
<text text-anchor="middle" x="354.5" y="-172" font-family="Helvetica,sans-Serif" font-size="10.00">irep_ids.def</text>
</a>
</g>
</g>
<!-- Node12&#45;&gt;Node21 -->
<g id="edge29_Node000012_Node000021" class="edge">
<title>Node12&#45;&gt;Node21</title>
<g id="a_edge29_Node000012_Node000021"><a xlink:title=" ">
<path fill="none" stroke="#63b8ff" d="M354.5,-219.75C354.5,-212.8 354.5,-202.85 354.5,-194.13"/>
<polygon fill="#63b8ff" stroke="#63b8ff" points="358,-194.09 354.5,-184.09 351,-194.09 358,-194.09"/>
</a>
</g>
</g>
<!-- Node13&#45;&gt;Node5 -->
<g id="edge16_Node000013_Node000005" class="edge">
<title>Node13&#45;&gt;Node5</title>
<g id="a_edge16_Node000013_Node000005"><a xlink:title=" ">
<path fill="none" stroke="#63b8ff" d="M241.06,-164.98C209.8,-155.62 159.61,-140.59 126.34,-130.63"/>
<polygon fill="#63b8ff" stroke="#63b8ff" points="127.19,-127.23 116.6,-127.72 125.18,-133.94 127.19,-127.23"/>
</a>
</g>
</g>
<!-- Node13&#45;&gt;Node6 -->
<g id="edge17_Node000013_Node000006" class="edge">
<title>Node13&#45;&gt;Node6</title>
<g id="a_edge17_Node000013_Node000006"><a xlink:title=" ">
<path fill="none" stroke="#63b8ff" d="M298.51,-164.97C340.56,-151.43 419.02,-121.56 470.5,-74 484.19,-61.36 494.56,-42.66 500.98,-28.82"/>
<polygon fill="#63b8ff" stroke="#63b8ff" points="504.32,-29.94 505.12,-19.37 497.9,-27.13 504.32,-29.94"/>
</a>
</g>
</g>
<!-- Node14 -->
<g id="Node000014" class="node">
<title>Node14</title>
<g id="a_Node000014"><a xlink:href="magic_8h.html" target="_top" xlink:title="Magic numbers used throughout the codebase.">
<polygon fill="white" stroke="#666666" points="228.5,-129 172.5,-129 172.5,-110 228.5,-110 228.5,-129"/>
<text text-anchor="middle" x="200.5" y="-117" font-family="Helvetica,sans-Serif" font-size="10.00">magic.h</text>
</a>
</g>
</g>
<!-- Node13&#45;&gt;Node14 -->
<g id="edge18_Node000013_Node000014" class="edge">
<title>Node13&#45;&gt;Node14</title>
<g id="a_edge18_Node000013_Node000014"><a xlink:title=" ">
<path fill="none" stroke="#63b8ff" d="M258.41,-164.98C248.01,-157 232.24,-144.88 219.78,-135.31"/>
<polygon fill="#63b8ff" stroke="#63b8ff" points="221.85,-132.49 211.79,-129.17 217.59,-138.04 221.85,-132.49"/>
</a>
</g>
</g>
<!-- Node16 -->
<g id="Node000016" class="node">
<title>Node16</title>
<g id="a_Node000016"><a xlink:href="string__container_8h.html" target="_top" xlink:title="Container for C&#45;Strings.">
<polygon fill="white" stroke="#666666" points="350.5,-129 246.5,-129 246.5,-110 350.5,-110 350.5,-129"/>
<text text-anchor="middle" x="298.5" y="-117" font-family="Helvetica,sans-Serif" font-size="10.00">string_container.h</text>
</a>
</g>
</g>
<!-- Node13&#45;&gt;Node16 -->
<g id="edge20_Node000013_Node000016" class="edge">
<title>Node13&#45;&gt;Node16</title>
<g id="a_edge20_Node000013_Node000016"><a xlink:title=" ">
<path fill="none" stroke="#63b8ff" d="M274.29,-164.75C278.26,-157.49 284.03,-146.95 288.93,-137.98"/>
<polygon fill="#63b8ff" stroke="#63b8ff" points="292.07,-139.54 293.8,-129.09 285.93,-136.18 292.07,-139.54"/>
</a>
</g>
</g>
<!-- Node15 -->
<g id="Node000015" class="node">
<title>Node15</title>
<g id="a_Node000015"><a xlink:title=" ">
<polygon fill="#e0e0e0" stroke="#999999" points="140,-19 87,-19 87,0 140,0 140,-19"/>
<text text-anchor="middle" x="113.5" y="-7" font-family="Helvetica,sans-Serif" font-size="10.00">cstddef</text>
</a>
</g>
</g>
<!-- Node14&#45;&gt;Node15 -->
<g id="edge19_Node000014_Node000015" class="edge">
<title>Node14&#45;&gt;Node15</title>
<g id="a_edge19_Node000014_Node000015"><a xlink:title=" ">
<path fill="none" stroke="#63b8ff" d="M172.26,-110.51C144.02,-101.88 103.5,-87.55 94.5,-74 85.18,-59.98 92.71,-41.26 100.88,-27.78"/>
<polygon fill="#63b8ff" stroke="#63b8ff" points="103.82,-29.67 106.44,-19.41 97.99,-25.8 103.82,-29.67"/>
</a>
</g>
</g>
<!-- Node16&#45;&gt;Node3 -->
<g id="edge23_Node000016_Node000003" class="edge">
<title>Node16&#45;&gt;Node3</title>
<g id="a_edge23_Node000016_Node000003"><a xlink:title=" ">
<path fill="none" stroke="#63b8ff" d="M254.32,-109.98C199.32,-99.39 106.61,-81.52 57.08,-71.97"/>
<polygon fill="#63b8ff" stroke="#63b8ff" points="57.67,-68.52 47.19,-70.07 56.35,-75.4 57.67,-68.52"/>
</a>
</g>
</g>
<!-- Node17 -->
<g id="Node000017" class="node">
<title>Node17</title>
<g id="a_Node000017"><a xlink:title=" ">
<polygon fill="#e0e0e0" stroke="#999999" points="249.5,-74 217.5,-74 217.5,-55 249.5,-55 249.5,-74"/>
<text text-anchor="middle" x="233.5" y="-62" font-family="Helvetica,sans-Serif" font-size="10.00">list</text>
</a>
</g>
</g>
<!-- Node16&#45;&gt;Node17 -->
<g id="edge21_Node000016_Node000017" class="edge">
<title>Node16&#45;&gt;Node17</title>
<g id="a_edge21_Node000016_Node000017"><a xlink:title=" ">
<path fill="none" stroke="#63b8ff" d="M288.06,-109.98C278.35,-102.07 263.68,-90.11 252,-80.58"/>
<polygon fill="#63b8ff" stroke="#63b8ff" points="254.1,-77.78 244.13,-74.17 249.67,-83.2 254.1,-77.78"/>
</a>
</g>
</g>
<!-- Node18 -->
<g id="Node000018" class="node">
<title>Node18</title>
<g id="a_Node000018"><a xlink:title=" ">
<polygon fill="#e0e0e0" stroke="#999999" points="361,-74 268,-74 268,-55 361,-55 361,-74"/>
<text text-anchor="middle" x="314.5" y="-62" font-family="Helvetica,sans-Serif" font-size="10.00">unordered_map</text>
</a>
</g>
</g>
<!-- Node16&#45;&gt;Node18 -->
<g id="edge22_Node000016_Node000018" class="edge">
<title>Node16&#45;&gt;Node18</title>
<g id="a_edge22_Node000016_Node000018"><a xlink:title=" ">
<path fill="none" stroke="#63b8ff" d="M301.14,-109.75C303.26,-102.72 306.31,-92.62 308.96,-83.84"/>
<polygon fill="#63b8ff" stroke="#63b8ff" points="312.37,-84.67 311.91,-74.09 305.67,-82.65 312.37,-84.67"/>
</a>
</g>
</g>
<!-- Node19 -->
<g id="Node000019" class="node">
<title>Node19</title>
<g id="a_Node000019"><a xlink:href="memory__units_8h.html" target="_top" xlink:title=" ">
<polygon fill="white" stroke="#666666" points="199.5,-74 103.5,-74 103.5,-55 199.5,-55 199.5,-74"/>
<text text-anchor="middle" x="151.5" y="-62" font-family="Helvetica,sans-Serif" font-size="10.00">memory_units.h</text>
</a>
</g>
</g>
<!-- Node16&#45;&gt;Node19 -->
<g id="edge24_Node000016_Node000019" class="edge">
<title>Node16&#45;&gt;Node19</title>
<g id="a_edge24_Node000016_Node000019"><a xlink:title=" ">
<path fill="none" stroke="#63b8ff" d="M274.88,-109.98C250.6,-101.23 212.55,-87.51 185.13,-77.62"/>
<polygon fill="#63b8ff" stroke="#63b8ff" points="186.14,-74.27 175.55,-74.17 183.77,-80.85 186.14,-74.27"/>
</a>
</g>
</g>
<!-- Node20 -->
<g id="Node000020" class="node">
<title>Node20</title>
<g id="a_Node000020"><a xlink:href="string__hash_8h.html" target="_top" xlink:title="string hashing">
<polygon fill="white" stroke="#666666" points="461.5,-74 379.5,-74 379.5,-55 461.5,-55 461.5,-74"/>
<text text-anchor="middle" x="420.5" y="-62" font-family="Helvetica,sans-Serif" font-size="10.00">string_hash.h</text>
</a>
</g>
</g>
<!-- Node16&#45;&gt;Node20 -->
<g id="edge27_Node000016_Node000020" class="edge">
<title>Node16&#45;&gt;Node20</title>
<g id="a_edge27_Node000016_Node000020"><a xlink:title=" ">
<path fill="none" stroke="#63b8ff" d="M318.1,-109.98C337.82,-101.42 368.45,-88.11 391.08,-78.28"/>
<polygon fill="#63b8ff" stroke="#63b8ff" points="392.76,-81.37 400.54,-74.17 389.98,-74.94 392.76,-81.37"/>
</a>
</g>
</g>
<!-- Node19&#45;&gt;Node6 -->
<g id="edge26_Node000019_Node000006" class="edge">
<title>Node19&#45;&gt;Node6</title>
<g id="a_edge26_Node000019_Node000006"><a xlink:title=" ">
<path fill="none" stroke="#63b8ff" d="M199.7,-56.31C202.68,-55.87 205.63,-55.43 208.5,-55 305.91,-40.51 421.11,-23.44 476.12,-15.29"/>
<polygon fill="#63b8ff" stroke="#63b8ff" points="476.91,-18.72 486.29,-13.79 475.89,-11.79 476.91,-18.72"/>
</a>
</g>
</g>
<!-- Node19&#45;&gt;Node15 -->
<g id="edge25_Node000019_Node000015" class="edge">
<title>Node19&#45;&gt;Node15</title>
<g id="a_edge25_Node000019_Node000015"><a xlink:title=" ">
<path fill="none" stroke="#63b8ff" d="M145.23,-54.75C139.91,-47.34 132.14,-36.5 125.62,-27.41"/>
<polygon fill="#63b8ff" stroke="#63b8ff" points="128.33,-25.18 119.66,-19.09 122.64,-29.26 128.33,-25.18"/>
</a>
</g>
</g>
<!-- Node20&#45;&gt;Node6 -->
<g id="edge28_Node000020_Node000006" class="edge">
<title>Node20&#45;&gt;Node6</title>
<g id="a_edge28_Node000020_Node000006"><a xlink:title=" ">
<path fill="none" stroke="#63b8ff" d="M434.64,-54.98C448.29,-46.77 469.19,-34.18 485.28,-24.49"/>
<polygon fill="#63b8ff" stroke="#63b8ff" points="487.34,-27.33 494.1,-19.17 483.73,-21.33 487.34,-27.33"/>
</a>
</g>
</g>
<!-- Node23 -->
<g id="Node000023" class="node">
<title>Node23</title>
<g id="a_Node000023"><a xlink:title=" ">
<polygon fill="#e0e0e0" stroke="#999999" points="597.5,-184 533.5,-184 533.5,-165 597.5,-165 597.5,-184"/>
<text text-anchor="middle" x="565.5" y="-172" font-family="Helvetica,sans-Serif" font-size="10.00">algorithm</text>
</a>
</g>
</g>
<!-- Node22&#45;&gt;Node23 -->
<g id="edge31_Node000022_Node000023" class="edge">
<title>Node22&#45;&gt;Node23</title>
<g id="a_edge31_Node000022_Node000023"><a xlink:title=" ">
<path fill="none" stroke="#63b8ff" d="M565.5,-219.75C565.5,-212.8 565.5,-202.85 565.5,-194.13"/>
<polygon fill="#63b8ff" stroke="#63b8ff" points="569,-194.09 565.5,-184.09 562,-194.09 569,-194.09"/>
</a>
</g>
</g>
<!-- Node24 -->
<g id="Node000024" class="node">
<title>Node24</title>
<g id="a_Node000024"><a xlink:title=" ">
<polygon fill="#e0e0e0" stroke="#999999" points="689.5,-184 615.5,-184 615.5,-165 689.5,-165 689.5,-184"/>
<text text-anchor="middle" x="652.5" y="-172" font-family="Helvetica,sans-Serif" font-size="10.00">forward_list</text>
</a>
</g>
</g>
<!-- Node22&#45;&gt;Node24 -->
<g id="edge32_Node000022_Node000024" class="edge">
<title>Node22&#45;&gt;Node24</title>
<g id="a_edge32_Node000022_Node000024"><a xlink:title=" ">
<path fill="none" stroke="#63b8ff" d="M579.48,-219.98C592.97,-211.77 613.63,-199.18 629.54,-189.49"/>
<polygon fill="#63b8ff" stroke="#63b8ff" points="631.55,-192.36 638.27,-184.17 627.91,-186.38 631.55,-192.36"/>
</a>
</g>
</g>
<!-- Node25 -->
<g id="Node000025" class="node">
<title>Node25</title>
<g id="a_Node000025"><a xlink:href="as__const_8h.html" target="_top" xlink:title=" ">
<polygon fill="white" stroke="#666666" points="515.5,-184 447.5,-184 447.5,-165 515.5,-165 515.5,-184"/>
<text text-anchor="middle" x="481.5" y="-172" font-family="Helvetica,sans-Serif" font-size="10.00">as_const.h</text>
</a>
</g>
</g>
<!-- Node22&#45;&gt;Node25 -->
<g id="edge33_Node000022_Node000025" class="edge">
<title>Node22&#45;&gt;Node25</title>
<g id="a_edge33_Node000022_Node000025"><a xlink:title=" ">
<path fill="none" stroke="#63b8ff" d="M552,-219.98C539.1,-211.84 519.4,-199.41 504.1,-189.76"/>
<polygon fill="#63b8ff" stroke="#63b8ff" points="505.57,-186.55 495.24,-184.17 501.83,-192.47 505.57,-186.55"/>
</a>
</g>
</g>
<!-- Node26 -->
<g id="Node000026" class="node">
<title>Node26</title>
<g id="a_Node000026"><a xlink:href="narrow_8h.html" target="_top" xlink:title=" ">
<polygon fill="white" stroke="#666666" points="767,-184 708,-184 708,-165 767,-165 767,-184"/>
<text text-anchor="middle" x="737.5" y="-172" font-family="Helvetica,sans-Serif" font-size="10.00">narrow.h</text>
</a>
</g>
</g>
<!-- Node22&#45;&gt;Node26 -->
<g id="edge34_Node000022_Node000026" class="edge">
<title>Node22&#45;&gt;Node26</title>
<g id="a_edge34_Node000022_Node000026"><a xlink:title=" ">
<path fill="none" stroke="#63b8ff" d="M593.13,-219.98C622.01,-211.09 667.51,-197.07 699.7,-187.15"/>
<polygon fill="#63b8ff" stroke="#63b8ff" points="701.12,-190.37 709.65,-184.08 699.06,-183.68 701.12,-190.37"/>
</a>
</g>
</g>
<!-- Node26&#45;&gt;Node8 -->
<g id="edge36_Node000026_Node000008" class="edge">
<title>Node26&#45;&gt;Node8</title>
<g id="a_edge36_Node000026_Node000008"><a xlink:title=" ">
<path fill="none" stroke="#63b8ff" d="M732.55,-164.75C728.44,-157.49 722.47,-146.95 717.4,-137.98"/>
<polygon fill="#63b8ff" stroke="#63b8ff" points="720.33,-136.07 712.36,-129.09 714.24,-139.52 720.33,-136.07"/>
</a>
</g>
</g>
<!-- Node26&#45;&gt;Node11 -->
<g id="edge35_Node000026_Node000011" class="edge">
<title>Node26&#45;&gt;Node11</title>
<g id="a_edge35_Node000026_Node000011"><a xlink:title=" ">
<path fill="none" stroke="#63b8ff" d="M740.22,-164.98C743.07,-156.03 747.65,-141.54 751.5,-129 756.15,-113.85 761.29,-96.63 765.05,-83.95"/>
<polygon fill="#63b8ff" stroke="#63b8ff" points="768.48,-84.72 767.96,-74.14 761.76,-82.74 768.48,-84.72"/>
</a>
</g>
</g>
<!-- Node27&#45;&gt;Node8 -->
<g id="edge38_Node000027_Node000008" class="edge">
<title>Node27&#45;&gt;Node8</title>
<g id="a_edge38_Node000027_Node000008"><a xlink:title=" ">
<path fill="none" stroke="#63b8ff" d="M861.79,-165.68C831.36,-156.77 781.35,-142.13 746.55,-131.93"/>
<polygon fill="#63b8ff" stroke="#63b8ff" points="747.3,-128.51 736.72,-129.06 745.33,-135.23 747.3,-128.51"/>
</a>
</g>
</g>
<!-- Node27&#45;&gt;Node11 -->
<g id="edge41_Node000027_Node000011" class="edge">
<title>Node27&#45;&gt;Node11</title>
<g id="a_edge41_Node000027_Node000011"><a xlink:title=" ">
<path fill="none" stroke="#63b8ff" d="M878.84,-164.66C858.86,-146.38 812.76,-104.18 787.62,-81.17"/>
<polygon fill="#63b8ff" stroke="#63b8ff" points="789.7,-78.33 779.96,-74.16 784.97,-83.49 789.7,-78.33"/>
</a>
</g>
</g>
<!-- Node28 -->
<g id="Node000028" class="node">
<title>Node28</title>
<g id="a_Node000028"><a xlink:title=" ">
<polygon fill="#e0e0e0" stroke="#999999" points="1041,-129 976,-129 976,-110 1041,-110 1041,-129"/>
<text text-anchor="middle" x="1008.5" y="-117" font-family="Helvetica,sans-Serif" font-size="10.00">functional</text>
</a>
</g>
</g>
<!-- Node27&#45;&gt;Node28 -->
<g id="edge39_Node000027_Node000028" class="edge">
<title>Node27&#45;&gt;Node28</title>
<g id="a_edge39_Node000027_Node000028"><a xlink:title=" ">
<path fill="none" stroke="#63b8ff" d="M907.78,-164.98C927.17,-156.42 957.31,-143.11 979.57,-133.28"/>
<polygon fill="#63b8ff" stroke="#63b8ff" points="981.14,-136.41 988.87,-129.17 978.31,-130.01 981.14,-136.41"/>
</a>
</g>
</g>
<!-- Node29 -->
<g id="Node000029" class="node">
<title>Node29</title>
<g id="a_Node000029"><a xlink:title=" ">
<polygon fill="#e0e0e0" stroke="#999999" points="957.5,-129 899.5,-129 899.5,-110 957.5,-110 957.5,-129"/>
<text text-anchor="middle" x="928.5" y="-117" font-family="Helvetica,sans-Serif" font-size="10.00">memory</text>
</a>
</g>
</g>
<!-- Node27&#45;&gt;Node29 -->
<g id="edge40_Node000027_Node000029" class="edge">
<title>Node27&#45;&gt;Node29</title>
<g id="a_edge40_Node000027_Node000029"><a xlink:title=" ">
<path fill="none" stroke="#63b8ff" d="M895.11,-164.75C900.76,-157.26 909.04,-146.28 915.95,-137.13"/>
<polygon fill="#63b8ff" stroke="#63b8ff" points="918.79,-139.18 922.02,-129.09 913.2,-134.96 918.79,-139.18"/>
</a>
</g>
</g>
</g>
</svg>
