<?xml version="1.0" encoding="UTF-8" standalone="no"?>
<!DOCTYPE svg PUBLIC "-//W3C//DTD SVG 1.1//EN"
 "http://www.w3.org/Graphics/SVG/1.1/DTD/svg11.dtd">
<!-- Generated by graphviz version 2.43.0 (0)
 -->
<!-- Title: /home/runner/work/cbmc/cbmc/src/goto&#45;harness/goto_harness_main.cpp Pages: 1 -->
<svg width="901pt" height="533pt"
 viewBox="0.00 0.00 900.84 533.00" xmlns="http://www.w3.org/2000/svg" xmlns:xlink="http://www.w3.org/1999/xlink">
<g id="graph0" class="graph" transform="scale(1 1) rotate(0) translate(4 529)">
<title>/home/runner/work/cbmc/cbmc/src/goto&#45;harness/goto_harness_main.cpp</title>
<!-- Node1 -->
<g id="Node000001" class="node">
<title>Node1</title>
<g id="a_Node000001"><a xlink:title=" ">
<polygon fill="#999999" stroke="#666666" points="686,-525 548,-525 548,-484 686,-484 686,-525"/>
<text text-anchor="start" x="556" y="-513" font-family="Helvetica,sans-Serif" font-size="10.00">/home/runner/work/cbmc</text>
<text text-anchor="start" x="556" y="-502" font-family="Helvetica,sans-Serif" font-size="10.00">/cbmc/src/goto&#45;harness</text>
<text text-anchor="middle" x="617" y="-491" font-family="Helvetica,sans-Serif" font-size="10.00">/goto_harness_main.cpp</text>
</a>
</g>
</g>
<!-- Node2 -->
<g id="Node000002" class="node">
<title>Node2</title>
<g id="a_Node000002"><a xlink:href="goto__harness__parse__options_8h.html" target="_top" xlink:title=" ">
<polygon fill="white" stroke="#666666" points="674,-448 560,-448 560,-418 674,-418 674,-448"/>
<text text-anchor="start" x="568" y="-436" font-family="Helvetica,sans-Serif" font-size="10.00">goto_harness_parse</text>
<text text-anchor="middle" x="617" y="-425" font-family="Helvetica,sans-Serif" font-size="10.00">_options.h</text>
</a>
</g>
</g>
<!-- Node1&#45;&gt;Node2 -->
<g id="edge1_Node000001_Node000002" class="edge">
<title>Node1&#45;&gt;Node2</title>
<g id="a_edge1_Node000001_Node000002"><a xlink:title=" ">
<path fill="none" stroke="#63b8ff" d="M617,-483.77C617,-475.85 617,-466.63 617,-458.3"/>
<polygon fill="#63b8ff" stroke="#63b8ff" points="620.5,-458.04 617,-448.04 613.5,-458.04 620.5,-458.04"/>
</a>
</g>
</g>
<!-- Node3 -->
<g id="Node000003" class="node">
<title>Node3</title>
<g id="a_Node000003"><a xlink:title=" ">
<polygon fill="#e0e0e0" stroke="#999999" points="613,-19 569,-19 569,0 613,0 613,-19"/>
<text text-anchor="middle" x="591" y="-7" font-family="Helvetica,sans-Serif" font-size="10.00">string</text>
</a>
</g>
</g>
<!-- Node2&#45;&gt;Node3 -->
<g id="edge2_Node000002_Node000003" class="edge">
<title>Node2&#45;&gt;Node3</title>
<g id="a_edge2_Node000002_Node000003"><a xlink:title=" ">
<path fill="none" stroke="#63b8ff" d="M674.05,-427.91C740.37,-421.98 844.27,-408.65 872,-382 898.35,-356.68 891,-338.54 891,-302 891,-302 891,-302 891,-118.5 891,-62.06 700.67,-27.01 623.21,-15.08"/>
<polygon fill="#63b8ff" stroke="#63b8ff" points="623.47,-11.58 613.06,-13.56 622.43,-18.51 623.47,-11.58"/>
</a>
</g>
</g>
<!-- Node4 -->
<g id="Node000004" class="node">
<title>Node4</title>
<g id="a_Node000004"><a xlink:href="parse__options_8h.html" target="_top" xlink:title=" ">
<polygon fill="white" stroke="#666666" points="429.5,-376.5 316.5,-376.5 316.5,-357.5 429.5,-357.5 429.5,-376.5"/>
<text text-anchor="middle" x="373" y="-364.5" font-family="Helvetica,sans-Serif" font-size="10.00">util/parse_options.h</text>
</a>
</g>
</g>
<!-- Node2&#45;&gt;Node4 -->
<g id="edge3_Node000002_Node000004" class="edge">
<title>Node2&#45;&gt;Node4</title>
<g id="a_edge3_Node000002_Node000004"><a xlink:title=" ">
<path fill="none" stroke="#63b8ff" d="M563.45,-417.95C518.87,-406.26 456.26,-389.84 415.17,-379.06"/>
<polygon fill="#63b8ff" stroke="#63b8ff" points="416.03,-375.67 405.47,-376.52 414.26,-382.44 416.03,-375.67"/>
</a>
</g>
</g>
<!-- Node37 -->
<g id="Node000037" class="node">
<title>Node37</title>
<g id="a_Node000037"><a xlink:href="function__harness__generator__options_8h.html" target="_top" xlink:title=" ">
<polygon fill="white" stroke="#666666" points="693,-382 541,-382 541,-352 693,-352 693,-382"/>
<text text-anchor="start" x="549" y="-370" font-family="Helvetica,sans-Serif" font-size="10.00">function_harness_generator</text>
<text text-anchor="middle" x="617" y="-359" font-family="Helvetica,sans-Serif" font-size="10.00">_options.h</text>
</a>
</g>
</g>
<!-- Node2&#45;&gt;Node37 -->
<g id="edge37_Node000002_Node000037" class="edge">
<title>Node2&#45;&gt;Node37</title>
<g id="a_edge37_Node000002_Node000037"><a xlink:title=" ">
<path fill="none" stroke="#63b8ff" d="M617,-417.8C617,-410.34 617,-400.99 617,-392.41"/>
<polygon fill="#63b8ff" stroke="#63b8ff" points="620.5,-392.16 617,-382.16 613.5,-392.16 620.5,-392.16"/>
</a>
</g>
</g>
<!-- Node39 -->
<g id="Node000039" class="node">
<title>Node39</title>
<g id="a_Node000039"><a xlink:href="goto__harness__generator__factory_8h.html" target="_top" xlink:title=" ">
<polygon fill="white" stroke="#666666" points="791,-250 657,-250 657,-220 791,-220 791,-250"/>
<text text-anchor="start" x="665" y="-238" font-family="Helvetica,sans-Serif" font-size="10.00">goto_harness_generator</text>
<text text-anchor="middle" x="724" y="-227" font-family="Helvetica,sans-Serif" font-size="10.00">_factory.h</text>
</a>
</g>
</g>
<!-- Node2&#45;&gt;Node39 -->
<g id="edge39_Node000002_Node000039" class="edge">
<title>Node2&#45;&gt;Node39</title>
<g id="a_edge39_Node000002_Node000039"><a xlink:title=" ">
<path fill="none" stroke="#63b8ff" d="M575.16,-417.93C558.67,-410.09 541.44,-398.5 532,-382 525.38,-370.43 526.17,-363.99 532,-352 556.87,-300.82 615.9,-270.28 661.99,-253.48"/>
<polygon fill="#63b8ff" stroke="#63b8ff" points="663.33,-256.72 671.61,-250.11 661.01,-250.12 663.33,-256.72"/>
</a>
</g>
</g>
<!-- Node41 -->
<g id="Node000041" class="node">
<title>Node41</title>
<g id="a_Node000041"><a xlink:href="memory__snapshot__harness__generator__options_8h.html" target="_top" xlink:title=" ">
<polygon fill="white" stroke="#666666" points="862.5,-382 711.5,-382 711.5,-352 862.5,-352 862.5,-382"/>
<text text-anchor="start" x="719.5" y="-370" font-family="Helvetica,sans-Serif" font-size="10.00">memory_snapshot_harness</text>
<text text-anchor="middle" x="787" y="-359" font-family="Helvetica,sans-Serif" font-size="10.00">_generator_options.h</text>
</a>
</g>
</g>
<!-- Node2&#45;&gt;Node41 -->
<g id="edge45_Node000002_Node000041" class="edge">
<title>Node2&#45;&gt;Node41</title>
<g id="a_edge45_Node000002_Node000041"><a xlink:title=" ">
<path fill="none" stroke="#63b8ff" d="M654.31,-417.95C679.55,-408.45 713.09,-395.82 740.14,-385.64"/>
<polygon fill="#63b8ff" stroke="#63b8ff" points="741.65,-388.81 749.78,-382.01 739.19,-382.26 741.65,-388.81"/>
</a>
</g>
</g>
<!-- Node4&#45;&gt;Node3 -->
<g id="edge4_Node000004_Node000003" class="edge">
<title>Node4&#45;&gt;Node3</title>
<g id="a_edge4_Node000004_Node000003"><a xlink:title=" ">
<path fill="none" stroke="#63b8ff" d="M316.3,-359.89C245.9,-348.8 135,-318.28 135,-236 135,-236 135,-236 135,-173.5 135,-106.82 165.17,-79.96 227,-55 287.05,-30.76 481.52,-16.94 558.85,-12.29"/>
<polygon fill="#63b8ff" stroke="#63b8ff" points="559.19,-15.78 568.96,-11.7 558.77,-8.79 559.19,-15.78"/>
</a>
</g>
</g>
<!-- Node5 -->
<g id="Node000005" class="node">
<title>Node5</title>
<g id="a_Node000005"><a xlink:href="cmdline_8h.html" target="_top" xlink:title=" ">
<polygon fill="white" stroke="#666666" points="292.5,-184 227.5,-184 227.5,-165 292.5,-165 292.5,-184"/>
<text text-anchor="middle" x="260" y="-172" font-family="Helvetica,sans-Serif" font-size="10.00">cmdline.h</text>
</a>
</g>
</g>
<!-- Node4&#45;&gt;Node5 -->
<g id="edge5_Node000004_Node000005" class="edge">
<title>Node4&#45;&gt;Node5</title>
<g id="a_edge5_Node000004_Node000005"><a xlink:title=" ">
<path fill="none" stroke="#63b8ff" d="M367.85,-357.32C350.5,-328.06 293.92,-232.69 270.4,-193.04"/>
<polygon fill="#63b8ff" stroke="#63b8ff" points="273.29,-191.05 265.18,-184.23 267.27,-194.62 273.29,-191.05"/>
</a>
</g>
</g>
<!-- Node10 -->
<g id="Node000010" class="node">
<title>Node10</title>
<g id="a_Node000010"><a xlink:href="src_2util_2message_8h.html" target="_top" xlink:title=" ">
<polygon fill="white" stroke="#666666" points="443,-244.5 373,-244.5 373,-225.5 443,-225.5 443,-244.5"/>
<text text-anchor="middle" x="408" y="-232.5" font-family="Helvetica,sans-Serif" font-size="10.00">message.h</text>
</a>
</g>
</g>
<!-- Node4&#45;&gt;Node10 -->
<g id="edge11_Node000004_Node000010" class="edge">
<title>Node4&#45;&gt;Node10</title>
<g id="a_edge11_Node000004_Node000010"><a xlink:title=" ">
<path fill="none" stroke="#63b8ff" d="M374.89,-357.06C378.08,-342.22 384.88,-311.58 392,-286 394.95,-275.41 398.67,-263.7 401.78,-254.28"/>
<polygon fill="#63b8ff" stroke="#63b8ff" points="405.1,-255.38 404.96,-244.79 398.46,-253.16 405.1,-255.38"/>
</a>
</g>
</g>
<!-- Node34 -->
<g id="Node000034" class="node">
<title>Node34</title>
<g id="a_Node000034"><a xlink:href="ui__message_8h.html" target="_top" xlink:title=" ">
<polygon fill="white" stroke="#666666" points="485,-310.5 401,-310.5 401,-291.5 485,-291.5 485,-310.5"/>
<text text-anchor="middle" x="443" y="-298.5" font-family="Helvetica,sans-Serif" font-size="10.00">ui_message.h</text>
</a>
</g>
</g>
<!-- Node4&#45;&gt;Node34 -->
<g id="edge31_Node000004_Node000034" class="edge">
<title>Node4&#45;&gt;Node34</title>
<g id="a_edge31_Node000004_Node000034"><a xlink:title=" ">
<path fill="none" stroke="#63b8ff" d="M382.44,-357.37C393.55,-347.21 412.2,-330.16 425.88,-317.65"/>
<polygon fill="#63b8ff" stroke="#63b8ff" points="428.24,-320.24 433.26,-310.91 423.52,-315.07 428.24,-320.24"/>
</a>
</g>
</g>
<!-- Node5&#45;&gt;Node3 -->
<g id="edge9_Node000005_Node000003" class="edge">
<title>Node5&#45;&gt;Node3</title>
<g id="a_edge9_Node000005_Node000003"><a xlink:title=" ">
<path fill="none" stroke="#63b8ff" d="M254.38,-164.77C241.27,-143.22 211.86,-86.93 240,-55 260.94,-31.24 475.89,-16.88 558.71,-12.2"/>
<polygon fill="#63b8ff" stroke="#63b8ff" points="559.02,-15.69 568.81,-11.64 558.63,-8.7 559.02,-15.69"/>
</a>
</g>
</g>
<!-- Node6 -->
<g id="Node000006" class="node">
<title>Node6</title>
<g id="a_Node000006"><a xlink:title=" ">
<polygon fill="#e0e0e0" stroke="#999999" points="207,-129 163,-129 163,-110 207,-110 207,-129"/>
<text text-anchor="middle" x="185" y="-117" font-family="Helvetica,sans-Serif" font-size="10.00">limits</text>
</a>
</g>
</g>
<!-- Node5&#45;&gt;Node6 -->
<g id="edge6_Node000005_Node000006" class="edge">
<title>Node5&#45;&gt;Node6</title>
<g id="a_edge6_Node000005_Node000006"><a xlink:title=" ">
<path fill="none" stroke="#63b8ff" d="M247.95,-164.98C236.54,-156.92 219.17,-144.65 205.57,-135.03"/>
<polygon fill="#63b8ff" stroke="#63b8ff" points="207.46,-132.08 197.27,-129.17 203.42,-137.8 207.46,-132.08"/>
</a>
</g>
</g>
<!-- Node7 -->
<g id="Node000007" class="node">
<title>Node7</title>
<g id="a_Node000007"><a xlink:title=" ">
<polygon fill="#e0e0e0" stroke="#999999" points="333,-129 301,-129 301,-110 333,-110 333,-129"/>
<text text-anchor="middle" x="317" y="-117" font-family="Helvetica,sans-Serif" font-size="10.00">list</text>
</a>
</g>
</g>
<!-- Node5&#45;&gt;Node7 -->
<g id="edge7_Node000005_Node000007" class="edge">
<title>Node5&#45;&gt;Node7</title>
<g id="a_edge7_Node000005_Node000007"><a xlink:title=" ">
<path fill="none" stroke="#63b8ff" d="M269.16,-164.98C277.5,-157.23 290.03,-145.58 300.18,-136.14"/>
<polygon fill="#63b8ff" stroke="#63b8ff" points="302.74,-138.54 307.68,-129.17 297.97,-133.42 302.74,-138.54"/>
</a>
</g>
</g>
<!-- Node8 -->
<g id="Node000008" class="node">
<title>Node8</title>
<g id="a_Node000008"><a xlink:title=" ">
<polygon fill="#e0e0e0" stroke="#999999" points="407,-129 351,-129 351,-110 407,-110 407,-129"/>
<text text-anchor="middle" x="379" y="-117" font-family="Helvetica,sans-Serif" font-size="10.00">optional</text>
</a>
</g>
</g>
<!-- Node5&#45;&gt;Node8 -->
<g id="edge8_Node000005_Node000008" class="edge">
<title>Node5&#45;&gt;Node8</title>
<g id="a_edge8_Node000005_Node000008"><a xlink:title=" ">
<path fill="none" stroke="#63b8ff" d="M279.12,-164.98C298.35,-156.42 328.23,-143.11 350.31,-133.28"/>
<polygon fill="#63b8ff" stroke="#63b8ff" points="351.82,-136.44 359.53,-129.17 348.97,-130.04 351.82,-136.44"/>
</a>
</g>
</g>
<!-- Node9 -->
<g id="Node000009" class="node">
<title>Node9</title>
<g id="a_Node000009"><a xlink:title=" ">
<polygon fill="#e0e0e0" stroke="#999999" points="296.5,-74 249.5,-74 249.5,-55 296.5,-55 296.5,-74"/>
<text text-anchor="middle" x="273" y="-62" font-family="Helvetica,sans-Serif" font-size="10.00">vector</text>
</a>
</g>
</g>
<!-- Node5&#45;&gt;Node9 -->
<g id="edge10_Node000005_Node000009" class="edge">
<title>Node5&#45;&gt;Node9</title>
<g id="a_edge10_Node000005_Node000009"><a xlink:title=" ">
<path fill="none" stroke="#63b8ff" d="M261.06,-164.66C263.17,-147.17 267.91,-107.8 270.74,-84.27"/>
<polygon fill="#63b8ff" stroke="#63b8ff" points="274.24,-84.51 271.96,-74.16 267.29,-83.67 274.24,-84.51"/>
</a>
</g>
</g>
<!-- Node10&#45;&gt;Node3 -->
<g id="edge30_Node000010_Node000003" class="edge">
<title>Node10&#45;&gt;Node3</title>
<g id="a_edge30_Node000010_Node000003"><a xlink:title=" ">
<path fill="none" stroke="#63b8ff" d="M439.41,-225.46C481.26,-212.3 554.05,-182.76 589,-129 607.39,-100.71 611.46,-88.3 606,-55 604.53,-46.05 601.51,-36.47 598.56,-28.51"/>
<polygon fill="#63b8ff" stroke="#63b8ff" points="601.79,-27.16 594.86,-19.15 595.28,-29.74 601.79,-27.16"/>
</a>
</g>
</g>
<!-- Node11 -->
<g id="Node000011" class="node">
<title>Node11</title>
<g id="a_Node000011"><a xlink:href="src_2util_2invariant_8h.html" target="_top" xlink:title=" ">
<polygon fill="white" stroke="#666666" points="131.5,-74 62.5,-74 62.5,-55 131.5,-55 131.5,-74"/>
<text text-anchor="middle" x="97" y="-62" font-family="Helvetica,sans-Serif" font-size="10.00">invariant.h</text>
</a>
</g>
</g>
<!-- Node10&#45;&gt;Node11 -->
<g id="edge12_Node000010_Node000011" class="edge">
<title>Node10&#45;&gt;Node11</title>
<g id="a_edge12_Node000010_Node000011"><a xlink:title=" ">
<path fill="none" stroke="#63b8ff" d="M372.65,-229.57C333.14,-223.54 268.13,-210.33 218,-184 170.03,-158.81 128.43,-108.48 108.88,-82.26"/>
<polygon fill="#63b8ff" stroke="#63b8ff" points="111.63,-80.09 102.91,-74.07 105.97,-84.22 111.63,-80.09"/>
</a>
</g>
</g>
<!-- Node13 -->
<g id="Node000013" class="node">
<title>Node13</title>
<g id="a_Node000013"><a xlink:title=" ">
<polygon fill="#e0e0e0" stroke="#999999" points="56,-19 0,-19 0,0 56,0 56,-19"/>
<text text-anchor="middle" x="28" y="-7" font-family="Helvetica,sans-Serif" font-size="10.00">sstream</text>
</a>
</g>
</g>
<!-- Node10&#45;&gt;Node13 -->
<g id="edge29_Node000010_Node000013" class="edge">
<title>Node10&#45;&gt;Node13</title>
<g id="a_edge29_Node000010_Node000013"><a xlink:title=" ">
<path fill="none" stroke="#63b8ff" d="M372.65,-231.07C327.57,-226.22 248.13,-213.9 187,-184 117.78,-150.14 98.35,-136.29 53,-74 43.19,-60.53 36.62,-42.7 32.68,-29.36"/>
<polygon fill="#63b8ff" stroke="#63b8ff" points="35.98,-28.14 29.98,-19.41 29.22,-29.98 35.98,-28.14"/>
</a>
</g>
</g>
<!-- Node15 -->
<g id="Node000015" class="node">
<title>Node15</title>
<g id="a_Node000015"><a xlink:href="source__location_8h.html" target="_top" xlink:title=" ">
<polygon fill="white" stroke="#666666" points="517,-184 415,-184 415,-165 517,-165 517,-184"/>
<text text-anchor="middle" x="466" y="-172" font-family="Helvetica,sans-Serif" font-size="10.00">source_location.h</text>
</a>
</g>
</g>
<!-- Node10&#45;&gt;Node15 -->
<g id="edge17_Node000010_Node000015" class="edge">
<title>Node10&#45;&gt;Node15</title>
<g id="a_edge17_Node000010_Node000015"><a xlink:title=" ">
<path fill="none" stroke="#63b8ff" d="M416.56,-225.37C425.38,-216.47 439.34,-202.39 450.18,-191.45"/>
<polygon fill="#63b8ff" stroke="#63b8ff" points="452.85,-193.73 457.41,-184.17 447.88,-188.8 452.85,-193.73"/>
</a>
</g>
</g>
<!-- Node33 -->
<g id="Node000033" class="node">
<title>Node33</title>
<g id="a_Node000033"><a xlink:title=" ">
<polygon fill="#e0e0e0" stroke="#999999" points="638.5,-184 573.5,-184 573.5,-165 638.5,-165 638.5,-184"/>
<text text-anchor="middle" x="606" y="-172" font-family="Helvetica,sans-Serif" font-size="10.00">functional</text>
</a>
</g>
</g>
<!-- Node10&#45;&gt;Node33 -->
<g id="edge27_Node000010_Node000033" class="edge">
<title>Node10&#45;&gt;Node33</title>
<g id="a_edge27_Node000010_Node000033"><a xlink:title=" ">
<path fill="none" stroke="#63b8ff" d="M436.79,-225.49C471.25,-215.31 529.09,-198.22 567.4,-186.9"/>
<polygon fill="#63b8ff" stroke="#63b8ff" points="568.58,-190.21 577.17,-184.02 566.59,-183.49 568.58,-190.21"/>
</a>
</g>
</g>
<!-- Node20 -->
<g id="Node000020" class="node">
<title>Node20</title>
<g id="a_Node000020"><a xlink:title=" ">
<polygon fill="#e0e0e0" stroke="#999999" points="359,-184 311,-184 311,-165 359,-165 359,-184"/>
<text text-anchor="middle" x="335" y="-172" font-family="Helvetica,sans-Serif" font-size="10.00">iosfwd</text>
</a>
</g>
</g>
<!-- Node10&#45;&gt;Node20 -->
<g id="edge28_Node000010_Node000020" class="edge">
<title>Node10&#45;&gt;Node20</title>
<g id="a_edge28_Node000010_Node000020"><a xlink:title=" ">
<path fill="none" stroke="#63b8ff" d="M397.23,-225.37C385.8,-216.21 367.52,-201.56 353.72,-190.51"/>
<polygon fill="#63b8ff" stroke="#63b8ff" points="355.81,-187.69 345.82,-184.17 351.43,-193.15 355.81,-187.69"/>
</a>
</g>
</g>
<!-- Node11&#45;&gt;Node3 -->
<g id="edge15_Node000011_Node000003" class="edge">
<title>Node11&#45;&gt;Node3</title>
<g id="a_edge15_Node000011_Node000003"><a xlink:title=" ">
<path fill="none" stroke="#63b8ff" d="M131.75,-57.15C136.53,-56.37 141.38,-55.63 146,-55 299.98,-33.97 485.21,-18.62 558.69,-12.93"/>
<polygon fill="#63b8ff" stroke="#63b8ff" points="559.01,-16.41 568.71,-12.16 558.47,-9.43 559.01,-16.41"/>
</a>
</g>
</g>
<!-- Node12 -->
<g id="Node000012" class="node">
<title>Node12</title>
<g id="a_Node000012"><a xlink:title=" ">
<polygon fill="#e0e0e0" stroke="#999999" points="123.5,-19 74.5,-19 74.5,0 123.5,0 123.5,-19"/>
<text text-anchor="middle" x="99" y="-7" font-family="Helvetica,sans-Serif" font-size="10.00">cstdlib</text>
</a>
</g>
</g>
<!-- Node11&#45;&gt;Node12 -->
<g id="edge13_Node000011_Node000012" class="edge">
<title>Node11&#45;&gt;Node12</title>
<g id="a_edge13_Node000011_Node000012"><a xlink:title=" ">
<path fill="none" stroke="#63b8ff" d="M97.33,-54.75C97.59,-47.8 97.97,-37.85 98.3,-29.13"/>
<polygon fill="#63b8ff" stroke="#63b8ff" points="101.8,-29.21 98.68,-19.09 94.8,-28.95 101.8,-29.21"/>
</a>
</g>
</g>
<!-- Node11&#45;&gt;Node13 -->
<g id="edge14_Node000011_Node000013" class="edge">
<title>Node11&#45;&gt;Node13</title>
<g id="a_edge14_Node000011_Node000013"><a xlink:title=" ">
<path fill="none" stroke="#63b8ff" d="M85.91,-54.98C75.51,-47 59.74,-34.88 47.28,-25.31"/>
<polygon fill="#63b8ff" stroke="#63b8ff" points="49.35,-22.49 39.29,-19.17 45.09,-28.04 49.35,-22.49"/>
</a>
</g>
</g>
<!-- Node14 -->
<g id="Node000014" class="node">
<title>Node14</title>
<g id="a_Node000014"><a xlink:title=" ">
<polygon fill="#e0e0e0" stroke="#999999" points="210.5,-19 141.5,-19 141.5,0 210.5,0 210.5,-19"/>
<text text-anchor="middle" x="176" y="-7" font-family="Helvetica,sans-Serif" font-size="10.00">type_traits</text>
</a>
</g>
</g>
<!-- Node11&#45;&gt;Node14 -->
<g id="edge16_Node000011_Node000014" class="edge">
<title>Node11&#45;&gt;Node14</title>
<g id="a_edge16_Node000011_Node000014"><a xlink:title=" ">
<path fill="none" stroke="#63b8ff" d="M109.69,-54.98C121.83,-46.84 140.36,-34.41 154.75,-24.76"/>
<polygon fill="#63b8ff" stroke="#63b8ff" points="156.72,-27.65 163.08,-19.17 152.82,-21.84 156.72,-27.65"/>
</a>
</g>
</g>
<!-- Node15&#45;&gt;Node3 -->
<g id="edge26_Node000015_Node000003" class="edge">
<title>Node15&#45;&gt;Node3</title>
<g id="a_edge26_Node000015_Node000003"><a xlink:title=" ">
<path fill="none" stroke="#63b8ff" d="M509.94,-164.95C531.18,-158.57 555.23,-147.61 570,-129 592.98,-100.05 594.23,-54.52 592.81,-29.15"/>
<polygon fill="#63b8ff" stroke="#63b8ff" points="596.29,-28.75 592.03,-19.05 589.31,-29.29 596.29,-28.75"/>
</a>
</g>
</g>
<!-- Node15&#45;&gt;Node8 -->
<g id="edge25_Node000015_Node000008" class="edge">
<title>Node15&#45;&gt;Node8</title>
<g id="a_edge25_Node000015_Node000008"><a xlink:title=" ">
<path fill="none" stroke="#63b8ff" d="M452.02,-164.98C438.53,-156.77 417.87,-144.18 401.96,-134.49"/>
<polygon fill="#63b8ff" stroke="#63b8ff" points="403.59,-131.38 393.23,-129.17 399.95,-137.36 403.59,-131.38"/>
</a>
</g>
</g>
<!-- Node16 -->
<g id="Node000016" class="node">
<title>Node16</title>
<g id="a_Node000016"><a xlink:href="deprecate_8h.html" target="_top" xlink:title=" ">
<polygon fill="white" stroke="#666666" points="561,-129 487,-129 487,-110 561,-110 561,-129"/>
<text text-anchor="middle" x="524" y="-117" font-family="Helvetica,sans-Serif" font-size="10.00">deprecate.h</text>
</a>
</g>
</g>
<!-- Node15&#45;&gt;Node16 -->
<g id="edge18_Node000015_Node000016" class="edge">
<title>Node15&#45;&gt;Node16</title>
<g id="a_edge18_Node000015_Node000016"><a xlink:title=" ">
<path fill="none" stroke="#63b8ff" d="M475.32,-164.98C483.81,-157.23 496.56,-145.58 506.88,-136.14"/>
<polygon fill="#63b8ff" stroke="#63b8ff" points="509.49,-138.5 514.51,-129.17 504.77,-133.33 509.49,-138.5"/>
</a>
</g>
</g>
<!-- Node17 -->
<g id="Node000017" class="node">
<title>Node17</title>
<g id="a_Node000017"><a xlink:href="irep_8h.html" target="_top" xlink:title=" ">
<polygon fill="white" stroke="#666666" points="469,-129 425,-129 425,-110 469,-110 469,-129"/>
<text text-anchor="middle" x="447" y="-117" font-family="Helvetica,sans-Serif" font-size="10.00">irep.h</text>
</a>
</g>
</g>
<!-- Node15&#45;&gt;Node17 -->
<g id="edge19_Node000015_Node000017" class="edge">
<title>Node15&#45;&gt;Node17</title>
<g id="a_edge19_Node000015_Node000017"><a xlink:title=" ">
<path fill="none" stroke="#63b8ff" d="M462.86,-164.75C460.32,-157.65 456.64,-147.4 453.47,-138.56"/>
<polygon fill="#63b8ff" stroke="#63b8ff" points="456.75,-137.32 450.08,-129.09 450.16,-139.68 456.75,-137.32"/>
</a>
</g>
</g>
<!-- Node17&#45;&gt;Node3 -->
<g id="edge20_Node000017_Node000003" class="edge">
<title>Node17&#45;&gt;Node3</title>
<g id="a_edge20_Node000017_Node000003"><a xlink:title=" ">
<path fill="none" stroke="#63b8ff" d="M424.93,-112.09C397.55,-103.63 353.31,-88.16 344,-74 339.36,-66.94 338.58,-61.48 344,-55 371.02,-22.67 498.17,-13.79 558.75,-11.38"/>
<polygon fill="#63b8ff" stroke="#63b8ff" points="559.04,-14.87 568.91,-11.01 558.79,-7.88 559.04,-14.87"/>
</a>
</g>
</g>
<!-- Node17&#45;&gt;Node9 -->
<g id="edge21_Node000017_Node000009" class="edge">
<title>Node17&#45;&gt;Node9</title>
<g id="a_edge21_Node000017_Node000009"><a xlink:title=" ">
<path fill="none" stroke="#63b8ff" d="M424.96,-111.79C395,-102.66 341.15,-86.26 306.26,-75.63"/>
<polygon fill="#63b8ff" stroke="#63b8ff" points="307.11,-72.23 296.52,-72.67 305.07,-78.93 307.11,-72.23"/>
</a>
</g>
</g>
<!-- Node17&#45;&gt;Node11 -->
<g id="edge22_Node000017_Node000011" class="edge">
<title>Node17&#45;&gt;Node11</title>
<g id="a_edge22_Node000017_Node000011"><a xlink:title=" ">
<path fill="none" stroke="#63b8ff" d="M424.73,-112.02C421.81,-111.28 418.84,-110.59 416,-110 319.18,-90.06 203.97,-76.44 141.93,-69.92"/>
<polygon fill="#63b8ff" stroke="#63b8ff" points="142.02,-66.41 131.71,-68.86 141.3,-73.37 142.02,-66.41"/>
</a>
</g>
</g>
<!-- Node18 -->
<g id="Node000018" class="node">
<title>Node18</title>
<g id="a_Node000018"><a xlink:href="irep__ids_8h.html" target="_top" xlink:title="util">
<polygon fill="#fff0f0" stroke="red" points="417,-74 353,-74 353,-55 417,-55 417,-74"/>
<text text-anchor="middle" x="385" y="-62" font-family="Helvetica,sans-Serif" font-size="10.00">irep_ids.h</text>
</a>
</g>
</g>
<!-- Node17&#45;&gt;Node18 -->
<g id="edge23_Node000017_Node000018" class="edge">
<title>Node17&#45;&gt;Node18</title>
<g id="a_edge23_Node000017_Node000018"><a xlink:title=" ">
<path fill="none" stroke="#63b8ff" d="M437.04,-109.98C427.87,-102.15 414.06,-90.34 402.97,-80.86"/>
<polygon fill="#63b8ff" stroke="#63b8ff" points="405.02,-78.01 395.14,-74.17 400.47,-83.33 405.02,-78.01"/>
</a>
</g>
</g>
<!-- Node28 -->
<g id="Node000028" class="node">
<title>Node28</title>
<g id="a_Node000028"><a xlink:href="forward__list__as__map_8h.html" target="_top" xlink:title=" ">
<polygon fill="#fff0f0" stroke="red" points="562.5,-74 435.5,-74 435.5,-55 562.5,-55 562.5,-74"/>
<text text-anchor="middle" x="499" y="-62" font-family="Helvetica,sans-Serif" font-size="10.00">forward_list_as_map.h</text>
</a>
</g>
</g>
<!-- Node17&#45;&gt;Node28 -->
<g id="edge24_Node000017_Node000028" class="edge">
<title>Node17&#45;&gt;Node28</title>
<g id="a_edge24_Node000017_Node000028"><a xlink:title=" ">
<path fill="none" stroke="#63b8ff" d="M455.59,-109.75C463.16,-102.03 474.38,-90.6 483.51,-81.28"/>
<polygon fill="#63b8ff" stroke="#63b8ff" points="486.07,-83.68 490.57,-74.09 481.07,-78.78 486.07,-83.68"/>
</a>
</g>
</g>
<!-- Node34&#45;&gt;Node10 -->
<g id="edge33_Node000034_Node000010" class="edge">
<title>Node34&#45;&gt;Node10</title>
<g id="a_edge33_Node000034_Node000010"><a xlink:title=" ">
<path fill="none" stroke="#63b8ff" d="M438.28,-291.37C433.04,-281.78 424.43,-266.05 417.73,-253.8"/>
<polygon fill="#63b8ff" stroke="#63b8ff" points="420.74,-252 412.87,-244.91 414.6,-255.36 420.74,-252"/>
</a>
</g>
</g>
<!-- Node35 -->
<g id="Node000035" class="node">
<title>Node35</title>
<g id="a_Node000035"><a xlink:title=" ">
<polygon fill="#e0e0e0" stroke="#999999" points="753,-184 695,-184 695,-165 753,-165 753,-184"/>
<text text-anchor="middle" x="724" y="-172" font-family="Helvetica,sans-Serif" font-size="10.00">memory</text>
</a>
</g>
</g>
<!-- Node34&#45;&gt;Node35 -->
<g id="edge32_Node000034_Node000035" class="edge">
<title>Node34&#45;&gt;Node35</title>
<g id="a_edge32_Node000034_Node000035"><a xlink:title=" ">
<path fill="none" stroke="#63b8ff" d="M476.96,-291.45C518.67,-280.67 586.77,-262.08 610,-250 629.09,-240.07 630.23,-232.13 648,-220 664.52,-208.72 684.01,-197.35 699.11,-188.92"/>
<polygon fill="#63b8ff" stroke="#63b8ff" points="700.82,-191.98 707.89,-184.08 697.44,-185.85 700.82,-191.98"/>
</a>
</g>
</g>
<!-- Node36 -->
<g id="Node000036" class="node">
<title>Node36</title>
<g id="a_Node000036"><a xlink:href="timestamper_8h.html" target="_top" xlink:title="Emit timestamps.">
<polygon fill="white" stroke="#666666" points="601,-244.5 513,-244.5 513,-225.5 601,-225.5 601,-244.5"/>
<text text-anchor="middle" x="557" y="-232.5" font-family="Helvetica,sans-Serif" font-size="10.00">timestamper.h</text>
</a>
</g>
</g>
<!-- Node34&#45;&gt;Node36 -->
<g id="edge34_Node000034_Node000036" class="edge">
<title>Node34&#45;&gt;Node36</title>
<g id="a_edge34_Node000034_Node000036"><a xlink:title=" ">
<path fill="none" stroke="#63b8ff" d="M458.37,-291.37C477.41,-280.68 510.07,-262.35 532.56,-249.72"/>
<polygon fill="#63b8ff" stroke="#63b8ff" points="534.5,-252.65 541.5,-244.7 531.07,-246.54 534.5,-252.65"/>
</a>
</g>
</g>
<!-- Node36&#45;&gt;Node3 -->
<g id="edge36_Node000036_Node000003" class="edge">
<title>Node36&#45;&gt;Node3</title>
<g id="a_edge36_Node000036_Node000003"><a xlink:title=" ">
<path fill="none" stroke="#63b8ff" d="M589.56,-225.41C610.25,-218.08 635.43,-205.26 648,-184 661.37,-161.39 713.46,-199.31 643,-55 636.97,-42.65 625.78,-32.38 615.32,-24.83"/>
<polygon fill="#63b8ff" stroke="#63b8ff" points="617.09,-21.8 606.84,-19.14 613.19,-27.62 617.09,-21.8"/>
</a>
</g>
</g>
<!-- Node36&#45;&gt;Node35 -->
<g id="edge35_Node000036_Node000035" class="edge">
<title>Node36&#45;&gt;Node35</title>
<g id="a_edge35_Node000036_Node000035"><a xlink:title=" ">
<path fill="none" stroke="#63b8ff" d="M581.28,-225.49C609.98,-215.44 657.89,-198.66 690.2,-187.34"/>
<polygon fill="#63b8ff" stroke="#63b8ff" points="691.41,-190.63 699.69,-184.02 689.09,-184.02 691.41,-190.63"/>
</a>
</g>
</g>
<!-- Node38 -->
<g id="Node000038" class="node">
<title>Node38</title>
<g id="a_Node000038"><a xlink:href="common__harness__generator__options_8h.html" target="_top" xlink:title=" ">
<polygon fill="white" stroke="#666666" points="779.5,-316 624.5,-316 624.5,-286 779.5,-286 779.5,-316"/>
<text text-anchor="start" x="632.5" y="-304" font-family="Helvetica,sans-Serif" font-size="10.00">common_harness_generator</text>
<text text-anchor="middle" x="702" y="-293" font-family="Helvetica,sans-Serif" font-size="10.00">_options.h</text>
</a>
</g>
</g>
<!-- Node37&#45;&gt;Node38 -->
<g id="edge38_Node000037_Node000038" class="edge">
<title>Node37&#45;&gt;Node38</title>
<g id="a_edge38_Node000037_Node000038"><a xlink:title=" ">
<path fill="none" stroke="#63b8ff" d="M635.86,-351.8C647.42,-343.1 662.39,-331.82 675.17,-322.2"/>
<polygon fill="#63b8ff" stroke="#63b8ff" points="677.31,-324.98 683.19,-316.16 673.09,-319.38 677.31,-324.98"/>
</a>
</g>
</g>
<!-- Node39&#45;&gt;Node3 -->
<g id="edge44_Node000039_Node000003" class="edge">
<title>Node39&#45;&gt;Node3</title>
<g id="a_edge44_Node000039_Node000003"><a xlink:title=" ">
<path fill="none" stroke="#63b8ff" d="M740.41,-219.74C753.94,-206.15 769.74,-184.88 762,-165 735.19,-96.17 658.12,-46.26 617.22,-23.78"/>
<polygon fill="#63b8ff" stroke="#63b8ff" points="618.83,-20.67 608.36,-19.03 615.52,-26.84 618.83,-20.67"/>
</a>
</g>
</g>
<!-- Node39&#45;&gt;Node7 -->
<g id="edge41_Node000039_Node000007" class="edge">
<title>Node39&#45;&gt;Node7</title>
<g id="a_edge41_Node000039_Node000007"><a xlink:title=" ">
<path fill="none" stroke="#63b8ff" d="M656.91,-225.13C570.53,-213.45 428.76,-193.3 406,-184 378.17,-172.63 350.71,-151.02 333.81,-136.2"/>
<polygon fill="#63b8ff" stroke="#63b8ff" points="335.77,-133.25 325.99,-129.15 331.08,-138.45 335.77,-133.25"/>
</a>
</g>
</g>
<!-- Node39&#45;&gt;Node33 -->
<g id="edge40_Node000039_Node000033" class="edge">
<title>Node39&#45;&gt;Node33</title>
<g id="a_edge40_Node000039_Node000033"><a xlink:title=" ">
<path fill="none" stroke="#63b8ff" d="M695.74,-219.99C676.58,-210.49 651.42,-198.02 632.61,-188.69"/>
<polygon fill="#63b8ff" stroke="#63b8ff" points="633.94,-185.45 623.43,-184.14 630.83,-191.72 633.94,-185.45"/>
</a>
</g>
</g>
<!-- Node39&#45;&gt;Node35 -->
<g id="edge43_Node000039_Node000035" class="edge">
<title>Node39&#45;&gt;Node35</title>
<g id="a_edge43_Node000039_Node000035"><a xlink:title=" ">
<path fill="none" stroke="#63b8ff" d="M724,-219.84C724,-212.21 724,-202.7 724,-194.45"/>
<polygon fill="#63b8ff" stroke="#63b8ff" points="727.5,-194.27 724,-184.27 720.5,-194.27 727.5,-194.27"/>
</a>
</g>
</g>
<!-- Node40 -->
<g id="Node000040" class="node">
<title>Node40</title>
<g id="a_Node000040"><a xlink:title=" ">
<polygon fill="#e0e0e0" stroke="#999999" points="847,-184 809,-184 809,-165 847,-165 847,-184"/>
<text text-anchor="middle" x="828" y="-172" font-family="Helvetica,sans-Serif" font-size="10.00">map</text>
</a>
</g>
</g>
<!-- Node39&#45;&gt;Node40 -->
<g id="edge42_Node000039_Node000040" class="edge">
<title>Node39&#45;&gt;Node40</title>
<g id="a_edge42_Node000039_Node000040"><a xlink:title=" ">
<path fill="none" stroke="#63b8ff" d="M748.91,-219.99C765.49,-210.66 787.16,-198.47 803.63,-189.21"/>
<polygon fill="#63b8ff" stroke="#63b8ff" points="805.64,-192.09 812.64,-184.14 802.21,-185.99 805.64,-192.09"/>
</a>
</g>
</g>
<!-- Node41&#45;&gt;Node38 -->
<g id="edge46_Node000041_Node000038" class="edge">
<title>Node41&#45;&gt;Node38</title>
<g id="a_edge46_Node000041_Node000038"><a xlink:title=" ">
<path fill="none" stroke="#63b8ff" d="M768.14,-351.8C756.58,-343.1 741.61,-331.82 728.83,-322.2"/>
<polygon fill="#63b8ff" stroke="#63b8ff" points="730.91,-319.38 720.81,-316.16 726.69,-324.98 730.91,-319.38"/>
</a>
</g>
</g>
</g>
</svg>
