<?xml version="1.0" encoding="UTF-8" standalone="no"?>
<!DOCTYPE svg PUBLIC "-//W3C//DTD SVG 1.1//EN"
 "http://www.w3.org/Graphics/SVG/1.1/DTD/svg11.dtd">
<!-- Generated by graphviz version 2.43.0 (0)
 -->
<!-- Title: /home/runner/work/cbmc/cbmc/src/ansi&#45;c/goto&#45;conversion/goto_convert.h Pages: 1 -->
<svg width="882pt" height="126pt"
 viewBox="0.00 0.00 881.50 126.00" xmlns="http://www.w3.org/2000/svg" xmlns:xlink="http://www.w3.org/1999/xlink">
<g id="graph0" class="graph" transform="scale(1 1) rotate(0) translate(4 122)">
<title>/home/runner/work/cbmc/cbmc/src/ansi&#45;c/goto&#45;conversion/goto_convert.h</title>
<!-- Node1 -->
<g id="Node000001" class="node">
<title>Node1</title>
<g id="a_Node000001"><a xlink:title="Program Transformation.">
<polygon fill="#999999" stroke="#666666" points="519.5,-118 370.5,-118 370.5,-77 519.5,-77 519.5,-118"/>
<text text-anchor="start" x="378.5" y="-106" font-family="Helvetica,sans-Serif" font-size="10.00">/home/runner/work/cbmc</text>
<text text-anchor="start" x="378.5" y="-95" font-family="Helvetica,sans-Serif" font-size="10.00">/cbmc/src/ansi&#45;c/goto</text>
<text text-anchor="middle" x="445" y="-84" font-family="Helvetica,sans-Serif" font-size="10.00">&#45;conversion/goto_convert.h</text>
</a>
</g>
</g>
<!-- Node2 -->
<g id="Node000002" class="node">
<title>Node2</title>
<g id="a_Node000002"><a xlink:href="convert__java__nondet_8cpp.html" target="_top" xlink:title="Convert side_effect_expr_nondett expressions.">
<polygon fill="white" stroke="#666666" points="164,-41 0,-41 0,0 164,0 164,-41"/>
<text text-anchor="start" x="8" y="-29" font-family="Helvetica,sans-Serif" font-size="10.00">/home/runner/work/cbmc</text>
<text text-anchor="start" x="8" y="-18" font-family="Helvetica,sans-Serif" font-size="10.00">/cbmc/jbmc/src/java_bytecode</text>
<text text-anchor="middle" x="82" y="-7" font-family="Helvetica,sans-Serif" font-size="10.00">/convert_java_nondet.cpp</text>
</a>
</g>
</g>
<!-- Node1&#45;&gt;Node2 -->
<g id="edge1_Node000001_Node000002" class="edge">
<title>Node1&#45;&gt;Node2</title>
<g id="a_edge1_Node000001_Node000002"><a xlink:title=" ">
<path fill="none" stroke="#63b8ff" d="M360.67,-79.51C306.93,-68.64 235.84,-54.14 173,-41 170.15,-40.4 167.26,-39.8 164.33,-39.18"/>
<polygon fill="#63b8ff" stroke="#63b8ff" points="360,-82.95 370.5,-81.5 361.39,-76.09 360,-82.95"/>
</a>
</g>
</g>
<!-- Node3 -->
<g id="Node000003" class="node">
<title>Node3</title>
<g id="a_Node000003"><a xlink:href="remove__java__new_8cpp.html" target="_top" xlink:title="Remove Java New Operators.">
<polygon fill="white" stroke="#666666" points="346,-41 182,-41 182,0 346,0 346,-41"/>
<text text-anchor="start" x="190" y="-29" font-family="Helvetica,sans-Serif" font-size="10.00">/home/runner/work/cbmc</text>
<text text-anchor="start" x="190" y="-18" font-family="Helvetica,sans-Serif" font-size="10.00">/cbmc/jbmc/src/java_bytecode</text>
<text text-anchor="middle" x="264" y="-7" font-family="Helvetica,sans-Serif" font-size="10.00">/remove_java_new.cpp</text>
</a>
</g>
</g>
<!-- Node1&#45;&gt;Node3 -->
<g id="edge2_Node000001_Node000003" class="edge">
<title>Node1&#45;&gt;Node3</title>
<g id="a_edge2_Node000001_Node000003"><a xlink:title=" ">
<path fill="none" stroke="#63b8ff" d="M388.6,-73.13C363.74,-62.83 334.86,-50.86 311.16,-41.04"/>
<polygon fill="#63b8ff" stroke="#63b8ff" points="387.34,-76.4 397.92,-76.99 390.02,-69.93 387.34,-76.4"/>
</a>
</g>
</g>
<!-- Node4 -->
<g id="Node000004" class="node">
<title>Node4</title>
<g id="a_Node000004"><a xlink:href="goto__convert_8cpp.html" target="_top" xlink:title="Program Transformation.">
<polygon fill="white" stroke="#666666" points="525.5,-41 364.5,-41 364.5,0 525.5,0 525.5,-41"/>
<text text-anchor="start" x="372.5" y="-29" font-family="Helvetica,sans-Serif" font-size="10.00">/home/runner/work/cbmc</text>
<text text-anchor="start" x="372.5" y="-18" font-family="Helvetica,sans-Serif" font-size="10.00">/cbmc/src/ansi&#45;c/goto</text>
<text text-anchor="middle" x="445" y="-7" font-family="Helvetica,sans-Serif" font-size="10.00">&#45;conversion/goto_convert.cpp</text>
</a>
</g>
</g>
<!-- Node1&#45;&gt;Node4 -->
<g id="edge3_Node000001_Node000004" class="edge">
<title>Node1&#45;&gt;Node4</title>
<g id="a_edge3_Node000001_Node000004"><a xlink:title=" ">
<path fill="none" stroke="#63b8ff" d="M445,-66.69C445,-58.08 445,-48.9 445,-41.07"/>
<polygon fill="#63b8ff" stroke="#63b8ff" points="441.5,-66.79 445,-76.79 448.5,-66.79 441.5,-66.79"/>
</a>
</g>
</g>
<!-- Node5 -->
<g id="Node000005" class="node">
<title>Node5</title>
<g id="a_Node000005"><a xlink:href="generate__function__bodies_8cpp.html" target="_top" xlink:title=" ">
<polygon fill="white" stroke="#666666" points="710,-41 544,-41 544,0 710,0 710,-41"/>
<text text-anchor="start" x="552" y="-29" font-family="Helvetica,sans-Serif" font-size="10.00">/home/runner/work/cbmc</text>
<text text-anchor="start" x="552" y="-18" font-family="Helvetica,sans-Serif" font-size="10.00">/cbmc/src/goto&#45;instrument</text>
<text text-anchor="middle" x="627" y="-7" font-family="Helvetica,sans-Serif" font-size="10.00">/generate_function_bodies.cpp</text>
</a>
</g>
</g>
<!-- Node1&#45;&gt;Node5 -->
<g id="edge4_Node000001_Node000005" class="edge">
<title>Node1&#45;&gt;Node5</title>
<g id="a_edge4_Node000001_Node000005"><a xlink:title=" ">
<path fill="none" stroke="#63b8ff" d="M501.71,-73.13C526.71,-62.83 555.75,-50.86 579.58,-41.04"/>
<polygon fill="#63b8ff" stroke="#63b8ff" points="500.26,-69.94 492.34,-76.99 502.92,-76.42 500.26,-69.94"/>
</a>
</g>
</g>
<!-- Node6 -->
<g id="Node000006" class="node">
<title>Node6</title>
<g id="a_Node000006"><a xlink:href="model__argc__argv_8cpp.html" target="_top" xlink:title="Initialize command line arguments.">
<polygon fill="white" stroke="#666666" points="873.5,-41 728.5,-41 728.5,0 873.5,0 873.5,-41"/>
<text text-anchor="start" x="736.5" y="-29" font-family="Helvetica,sans-Serif" font-size="10.00">/home/runner/work/cbmc</text>
<text text-anchor="start" x="736.5" y="-18" font-family="Helvetica,sans-Serif" font-size="10.00">/cbmc/src/goto&#45;instrument</text>
<text text-anchor="middle" x="801" y="-7" font-family="Helvetica,sans-Serif" font-size="10.00">/model_argc_argv.cpp</text>
</a>
</g>
</g>
<!-- Node1&#45;&gt;Node6 -->
<g id="edge5_Node000001_Node000006" class="edge">
<title>Node1&#45;&gt;Node6</title>
<g id="a_edge5_Node000001_Node000006"><a xlink:title=" ">
<path fill="none" stroke="#63b8ff" d="M529.49,-80.15C583.73,-69.46 655.63,-54.95 719,-41 722,-40.34 725.06,-39.66 728.15,-38.96"/>
<polygon fill="#63b8ff" stroke="#63b8ff" points="528.71,-76.74 519.57,-82.1 530.06,-83.6 528.71,-76.74"/>
</a>
</g>
</g>
</g>
</svg>
