<?xml version="1.0" encoding="UTF-8" standalone="no"?>
<!DOCTYPE svg PUBLIC "-//W3C//DTD SVG 1.1//EN"
 "http://www.w3.org/Graphics/SVG/1.1/DTD/svg11.dtd">
<!-- Generated by graphviz version 2.43.0 (0)
 -->
<!-- Title: /home/runner/work/cbmc/cbmc/src/analyses/guard_bdd.cpp Pages: 1 -->
<svg width="1069pt" height="665pt"
 viewBox="0.00 0.00 1069.00 665.00" xmlns="http://www.w3.org/2000/svg" xmlns:xlink="http://www.w3.org/1999/xlink">
<g id="graph0" class="graph" transform="scale(1 1) rotate(0) translate(4 661)">
<title>/home/runner/work/cbmc/cbmc/src/analyses/guard_bdd.cpp</title>
<!-- Node1 -->
<g id="Node000001" class="node">
<title>Node1</title>
<g id="a_Node000001"><a xlink:title="Implementation of guards using BDDs.">
<polygon fill="#999999" stroke="#666666" points="497,-657 357,-657 357,-616 497,-616 497,-657"/>
<text text-anchor="start" x="365" y="-645" font-family="Helvetica,sans-Serif" font-size="10.00">/home/runner/work/cbmc</text>
<text text-anchor="start" x="365" y="-634" font-family="Helvetica,sans-Serif" font-size="10.00">/cbmc/src/analyses/guard</text>
<text text-anchor="middle" x="427" y="-623" font-family="Helvetica,sans-Serif" font-size="10.00">_bdd.cpp</text>
</a>
</g>
</g>
<!-- Node2 -->
<g id="Node000002" class="node">
<title>Node2</title>
<g id="a_Node000002"><a xlink:href="guard__bdd_8h.html" target="_top" xlink:title="Guard Data Structure Implementation using BDDs.">
<polygon fill="white" stroke="#666666" points="247.5,-580 170.5,-580 170.5,-561 247.5,-561 247.5,-580"/>
<text text-anchor="middle" x="209" y="-568" font-family="Helvetica,sans-Serif" font-size="10.00">guard_bdd.h</text>
</a>
</g>
</g>
<!-- Node1&#45;&gt;Node2 -->
<g id="edge1_Node000001_Node000002" class="edge">
<title>Node1&#45;&gt;Node2</title>
<g id="a_edge1_Node000001_Node000002"><a xlink:title=" ">
<path fill="none" stroke="#63b8ff" d="M360.41,-615.95C323.46,-605.1 278.81,-592 247.61,-582.84"/>
<polygon fill="#63b8ff" stroke="#63b8ff" points="248.56,-579.47 237.98,-580.01 246.59,-586.18 248.56,-579.47"/>
</a>
</g>
</g>
<!-- Node13 -->
<g id="Node000013" class="node">
<title>Node13</title>
<g id="a_Node000013"><a xlink:href="bdd__expr_8h.html" target="_top" xlink:title="Conversion between exprt and miniBDD.">
<polygon fill="white" stroke="#666666" points="398.5,-580 265.5,-580 265.5,-561 398.5,-561 398.5,-580"/>
<text text-anchor="middle" x="332" y="-568" font-family="Helvetica,sans-Serif" font-size="10.00">solvers/prop/bdd_expr.h</text>
</a>
</g>
</g>
<!-- Node1&#45;&gt;Node13 -->
<g id="edge12_Node000001_Node000013" class="edge">
<title>Node1&#45;&gt;Node13</title>
<g id="a_edge12_Node000001_Node000013"><a xlink:title=" ">
<path fill="none" stroke="#63b8ff" d="M397.98,-615.95C383.62,-606.27 366.58,-594.8 353.42,-585.93"/>
<polygon fill="#63b8ff" stroke="#63b8ff" points="355.25,-582.95 345,-580.26 351.34,-588.75 355.25,-582.95"/>
</a>
</g>
</g>
<!-- Node20 -->
<g id="Node000020" class="node">
<title>Node20</title>
<g id="a_Node000020"><a xlink:href="src_2util_2invariant_8h.html" target="_top" xlink:title=" ">
<polygon fill="#fff0f0" stroke="red" points="874.5,-74 805.5,-74 805.5,-55 874.5,-55 874.5,-74"/>
<text text-anchor="middle" x="840" y="-62" font-family="Helvetica,sans-Serif" font-size="10.00">invariant.h</text>
</a>
</g>
</g>
<!-- Node1&#45;&gt;Node20 -->
<g id="edge48_Node000001_Node000020" class="edge">
<title>Node1&#45;&gt;Node20</title>
<g id="a_edge48_Node000001_Node000020"><a xlink:title=" ">
<path fill="none" stroke="#63b8ff" d="M497.27,-629.62C662.34,-614.86 1061,-573.34 1061,-516.5 1061,-516.5 1061,-516.5 1061,-184.5 1061,-105.08 948.99,-78.43 884.46,-69.66"/>
<polygon fill="#63b8ff" stroke="#63b8ff" points="884.89,-66.19 874.53,-68.41 884.01,-73.14 884.89,-66.19"/>
</a>
</g>
</g>
<!-- Node44 -->
<g id="Node000044" class="node">
<title>Node44</title>
<g id="a_Node000044"><a xlink:href="expr__util_8h.html" target="_top" xlink:title="Deprecated expression utility functions.">
<polygon fill="white" stroke="#666666" points="397.5,-415 310.5,-415 310.5,-396 397.5,-396 397.5,-415"/>
<text text-anchor="middle" x="354" y="-403" font-family="Helvetica,sans-Serif" font-size="10.00">util/expr_util.h</text>
</a>
</g>
</g>
<!-- Node1&#45;&gt;Node44 -->
<g id="edge44_Node000001_Node000044" class="edge">
<title>Node1&#45;&gt;Node44</title>
<g id="a_edge44_Node000001_Node000044"><a xlink:title=" ">
<path fill="none" stroke="#63b8ff" d="M422.1,-615.79C418.26,-600.71 412.63,-579.44 407,-561 391.8,-511.22 371.15,-453.4 360.68,-424.66"/>
<polygon fill="#63b8ff" stroke="#63b8ff" points="363.92,-423.33 357.2,-415.14 357.35,-425.74 363.92,-423.33"/>
</a>
</g>
</g>
<!-- Node45 -->
<g id="Node000045" class="node">
<title>Node45</title>
<g id="a_Node000045"><a xlink:href="std__expr_8h.html" target="_top" xlink:title="API to expression classes.">
<polygon fill="white" stroke="#666666" points="818,-580 732,-580 732,-561 818,-561 818,-580"/>
<text text-anchor="middle" x="775" y="-568" font-family="Helvetica,sans-Serif" font-size="10.00">util/std_expr.h</text>
</a>
</g>
</g>
<!-- Node1&#45;&gt;Node45 -->
<g id="edge49_Node000001_Node000045" class="edge">
<title>Node1&#45;&gt;Node45</title>
<g id="a_edge49_Node000001_Node000045"><a xlink:title=" ">
<path fill="none" stroke="#63b8ff" d="M497,-622.63C563.42,-610.41 661.78,-592.32 721.95,-581.26"/>
<polygon fill="#63b8ff" stroke="#63b8ff" points="722.79,-584.66 731.99,-579.41 721.52,-577.78 722.79,-584.66"/>
</a>
</g>
</g>
<!-- Node3 -->
<g id="Node000003" class="node">
<title>Node3</title>
<g id="a_Node000003"><a xlink:href="bdd_8h.html" target="_top" xlink:title="Choice between the different interface to BDD libraries.">
<polygon fill="white" stroke="#666666" points="271.5,-525 168.5,-525 168.5,-506 271.5,-506 271.5,-525"/>
<text text-anchor="middle" x="220" y="-513" font-family="Helvetica,sans-Serif" font-size="10.00">solvers/bdd/bdd.h</text>
</a>
</g>
</g>
<!-- Node2&#45;&gt;Node3 -->
<g id="edge2_Node000002_Node000003" class="edge">
<title>Node2&#45;&gt;Node3</title>
<g id="a_edge2_Node000002_Node000003"><a xlink:title=" ">
<path fill="none" stroke="#63b8ff" d="M210.82,-560.75C212.26,-553.8 214.32,-543.85 216.13,-535.13"/>
<polygon fill="#63b8ff" stroke="#63b8ff" points="219.61,-535.59 218.22,-525.09 212.76,-534.17 219.61,-535.59"/>
</a>
</g>
</g>
<!-- Node4 -->
<g id="Node000004" class="node">
<title>Node4</title>
<g id="a_Node000004"><a xlink:href="bdd__mini_b_d_d_8h.html" target="_top" xlink:title="Interface to miniBDD functions that are used in CBMC BDD functions should only be accessed through th...">
<polygon fill="white" stroke="#666666" points="266,-470 174,-470 174,-451 266,-451 266,-470"/>
<text text-anchor="middle" x="220" y="-458" font-family="Helvetica,sans-Serif" font-size="10.00">bdd_miniBDD.h</text>
</a>
</g>
</g>
<!-- Node3&#45;&gt;Node4 -->
<g id="edge3_Node000003_Node000004" class="edge">
<title>Node3&#45;&gt;Node4</title>
<g id="a_edge3_Node000003_Node000004"><a xlink:title=" ">
<path fill="none" stroke="#63b8ff" d="M220,-505.75C220,-498.8 220,-488.85 220,-480.13"/>
<polygon fill="#63b8ff" stroke="#63b8ff" points="223.5,-480.09 220,-470.09 216.5,-480.09 223.5,-480.09"/>
</a>
</g>
</g>
<!-- Node5 -->
<g id="Node000005" class="node">
<title>Node5</title>
<g id="a_Node000005"><a xlink:title=" ">
<polygon fill="#e0e0e0" stroke="#999999" points="292.5,-415 199.5,-415 199.5,-396 292.5,-396 292.5,-415"/>
<text text-anchor="middle" x="246" y="-403" font-family="Helvetica,sans-Serif" font-size="10.00">unordered_map</text>
</a>
</g>
</g>
<!-- Node4&#45;&gt;Node5 -->
<g id="edge4_Node000004_Node000005" class="edge">
<title>Node4&#45;&gt;Node5</title>
<g id="a_edge4_Node000004_Node000005"><a xlink:title=" ">
<path fill="none" stroke="#63b8ff" d="M224.29,-450.75C227.81,-443.57 232.91,-433.18 237.28,-424.27"/>
<polygon fill="#63b8ff" stroke="#63b8ff" points="240.52,-425.61 241.79,-415.09 234.24,-422.53 240.52,-425.61"/>
</a>
</g>
</g>
<!-- Node6 -->
<g id="Node000006" class="node">
<title>Node6</title>
<g id="a_Node000006"><a xlink:href="mini_b_d_d_8h.html" target="_top" xlink:title="A minimalistic BDD library, following Bryant&#39;s original paper and Andersen&#39;s lecture notes.">
<polygon fill="white" stroke="#666666" points="230.5,-140 111.5,-140 111.5,-110 230.5,-110 230.5,-140"/>
<text text-anchor="start" x="119.5" y="-128" font-family="Helvetica,sans-Serif" font-size="10.00">solvers/bdd/miniBDD</text>
<text text-anchor="middle" x="171" y="-117" font-family="Helvetica,sans-Serif" font-size="10.00">/miniBDD.h</text>
</a>
</g>
</g>
<!-- Node4&#45;&gt;Node6 -->
<g id="edge5_Node000004_Node000006" class="edge">
<title>Node4&#45;&gt;Node6</title>
<g id="a_edge5_Node000004_Node000006"><a xlink:title=" ">
<path fill="none" stroke="#63b8ff" d="M212.98,-450.87C199.43,-433.3 171,-391.65 171,-351.5 171,-351.5 171,-351.5 171,-239.5 171,-208.85 171,-173.54 171,-150.56"/>
<polygon fill="#63b8ff" stroke="#63b8ff" points="174.5,-150.33 171,-140.33 167.5,-150.33 174.5,-150.33"/>
</a>
</g>
</g>
<!-- Node7 -->
<g id="Node000007" class="node">
<title>Node7</title>
<g id="a_Node000007"><a xlink:title=" ">
<polygon fill="#e0e0e0" stroke="#999999" points="245,-74 213,-74 213,-55 245,-55 245,-74"/>
<text text-anchor="middle" x="229" y="-62" font-family="Helvetica,sans-Serif" font-size="10.00">list</text>
</a>
</g>
</g>
<!-- Node6&#45;&gt;Node7 -->
<g id="edge6_Node000006_Node000007" class="edge">
<title>Node6&#45;&gt;Node7</title>
<g id="a_edge6_Node000006_Node000007"><a xlink:title=" ">
<path fill="none" stroke="#63b8ff" d="M185.04,-109.84C193.55,-101.26 204.41,-90.3 213.22,-81.42"/>
<polygon fill="#63b8ff" stroke="#63b8ff" points="215.75,-83.83 220.31,-74.27 210.78,-78.9 215.75,-83.83"/>
</a>
</g>
</g>
<!-- Node8 -->
<g id="Node000008" class="node">
<title>Node8</title>
<g id="a_Node000008"><a xlink:title=" ">
<polygon fill="#e0e0e0" stroke="#999999" points="38,-74 0,-74 0,-55 38,-55 38,-74"/>
<text text-anchor="middle" x="19" y="-62" font-family="Helvetica,sans-Serif" font-size="10.00">map</text>
</a>
</g>
</g>
<!-- Node6&#45;&gt;Node8 -->
<g id="edge7_Node000006_Node000008" class="edge">
<title>Node6&#45;&gt;Node8</title>
<g id="a_edge7_Node000006_Node000008"><a xlink:title=" ">
<path fill="none" stroke="#63b8ff" d="M134.59,-109.99C108.04,-99.77 72.54,-86.1 47.92,-76.63"/>
<polygon fill="#63b8ff" stroke="#63b8ff" points="49,-73.3 38.41,-72.97 46.49,-79.83 49,-73.3"/>
</a>
</g>
</g>
<!-- Node9 -->
<g id="Node000009" class="node">
<title>Node9</title>
<g id="a_Node000009"><a xlink:title=" ">
<polygon fill="#e0e0e0" stroke="#999999" points="99.5,-74 56.5,-74 56.5,-55 99.5,-55 99.5,-74"/>
<text text-anchor="middle" x="78" y="-62" font-family="Helvetica,sans-Serif" font-size="10.00">stack</text>
</a>
</g>
</g>
<!-- Node6&#45;&gt;Node9 -->
<g id="edge8_Node000006_Node000009" class="edge">
<title>Node6&#45;&gt;Node9</title>
<g id="a_edge8_Node000006_Node000009"><a xlink:title=" ">
<path fill="none" stroke="#63b8ff" d="M148.49,-109.84C133.94,-100.68 115.07,-88.82 100.51,-79.66"/>
<polygon fill="#63b8ff" stroke="#63b8ff" points="101.99,-76.46 91.66,-74.09 98.26,-82.38 101.99,-76.46"/>
</a>
</g>
</g>
<!-- Node10 -->
<g id="Node000010" class="node">
<title>Node10</title>
<g id="a_Node000010"><a xlink:title=" ">
<polygon fill="#e0e0e0" stroke="#999999" points="722,-19 678,-19 678,0 722,0 722,-19"/>
<text text-anchor="middle" x="700" y="-7" font-family="Helvetica,sans-Serif" font-size="10.00">string</text>
</a>
</g>
</g>
<!-- Node6&#45;&gt;Node10 -->
<g id="edge9_Node000006_Node000010" class="edge">
<title>Node6&#45;&gt;Node10</title>
<g id="a_edge9_Node000006_Node000010"><a xlink:title=" ">
<path fill="none" stroke="#63b8ff" d="M194.46,-109.93C226.65,-90.74 281.71,-58.34 292,-55 361.89,-32.35 583.92,-17.31 667.64,-12.32"/>
<polygon fill="#63b8ff" stroke="#63b8ff" points="668.04,-15.81 677.82,-11.73 667.63,-8.82 668.04,-15.81"/>
</a>
</g>
</g>
<!-- Node11 -->
<g id="Node000011" class="node">
<title>Node11</title>
<g id="a_Node000011"><a xlink:title=" ">
<polygon fill="#e0e0e0" stroke="#999999" points="348.5,-74 301.5,-74 301.5,-55 348.5,-55 348.5,-74"/>
<text text-anchor="middle" x="325" y="-62" font-family="Helvetica,sans-Serif" font-size="10.00">vector</text>
</a>
</g>
</g>
<!-- Node6&#45;&gt;Node11 -->
<g id="edge10_Node000006_Node000011" class="edge">
<title>Node6&#45;&gt;Node11</title>
<g id="a_edge10_Node000006_Node000011"><a xlink:title=" ">
<path fill="none" stroke="#63b8ff" d="M207.89,-109.99C233.7,-100.18 267.85,-87.21 292.6,-77.81"/>
<polygon fill="#63b8ff" stroke="#63b8ff" points="294.15,-80.96 302.26,-74.14 291.67,-74.42 294.15,-80.96"/>
</a>
</g>
</g>
<!-- Node12 -->
<g id="Node000012" class="node">
<title>Node12</title>
<g id="a_Node000012"><a xlink:title=" ">
<polygon fill="#e0e0e0" stroke="#999999" points="194.5,-74 117.5,-74 117.5,-55 194.5,-55 194.5,-74"/>
<text text-anchor="middle" x="156" y="-62" font-family="Helvetica,sans-Serif" font-size="10.00">miniBDD.inc</text>
</a>
</g>
</g>
<!-- Node6&#45;&gt;Node12 -->
<g id="edge11_Node000006_Node000012" class="edge">
<title>Node6&#45;&gt;Node12</title>
<g id="a_edge11_Node000006_Node000012"><a xlink:title=" ">
<path fill="none" stroke="#63b8ff" d="M167.37,-109.84C165.39,-102.13 162.92,-92.49 160.79,-84.17"/>
<polygon fill="#63b8ff" stroke="#63b8ff" points="164.12,-83.08 158.25,-74.27 157.34,-84.82 164.12,-83.08"/>
</a>
</g>
</g>
<!-- Node13&#45;&gt;Node3 -->
<g id="edge42_Node000013_Node000003" class="edge">
<title>Node13&#45;&gt;Node3</title>
<g id="a_edge42_Node000013_Node000003"><a xlink:title=" ">
<path fill="none" stroke="#63b8ff" d="M314.01,-560.98C296.07,-552.5 268.28,-539.35 247.57,-529.54"/>
<polygon fill="#63b8ff" stroke="#63b8ff" points="248.86,-526.28 238.32,-525.17 245.86,-532.61 248.86,-526.28"/>
</a>
</g>
</g>
<!-- Node13&#45;&gt;Node5 -->
<g id="edge43_Node000013_Node000005" class="edge">
<title>Node13&#45;&gt;Node5</title>
<g id="a_edge43_Node000013_Node000005"><a xlink:title=" ">
<path fill="none" stroke="#63b8ff" d="M328.36,-560.98C319.81,-541.23 297.52,-490.98 275,-451 269.74,-441.66 263.28,-431.63 257.79,-423.45"/>
<polygon fill="#63b8ff" stroke="#63b8ff" points="260.65,-421.44 252.12,-415.16 254.87,-425.39 260.65,-421.44"/>
</a>
</g>
</g>
<!-- Node14 -->
<g id="Node000014" class="node">
<title>Node14</title>
<g id="a_Node000014"><a xlink:href="expr_8h.html" target="_top" xlink:title=" ">
<polygon fill="white" stroke="#666666" points="550.5,-415 485.5,-415 485.5,-396 550.5,-396 550.5,-415"/>
<text text-anchor="middle" x="518" y="-403" font-family="Helvetica,sans-Serif" font-size="10.00">util/expr.h</text>
</a>
</g>
</g>
<!-- Node13&#45;&gt;Node14 -->
<g id="edge13_Node000013_Node000014" class="edge">
<title>Node13&#45;&gt;Node14</title>
<g id="a_edge13_Node000013_Node000014"><a xlink:title=" ">
<path fill="none" stroke="#63b8ff" d="M341.74,-560.97C371.48,-534.9 461.45,-456.06 500.07,-422.21"/>
<polygon fill="#63b8ff" stroke="#63b8ff" points="502.69,-424.57 507.91,-415.34 498.08,-419.3 502.69,-424.57"/>
</a>
</g>
</g>
<!-- Node15 -->
<g id="Node000015" class="node">
<title>Node15</title>
<g id="a_Node000015"><a xlink:href="as__const_8h.html" target="_top" xlink:title=" ">
<polygon fill="white" stroke="#666666" points="457,-19 389,-19 389,0 457,0 457,-19"/>
<text text-anchor="middle" x="423" y="-7" font-family="Helvetica,sans-Serif" font-size="10.00">as_const.h</text>
</a>
</g>
</g>
<!-- Node14&#45;&gt;Node15 -->
<g id="edge14_Node000014_Node000015" class="edge">
<title>Node14&#45;&gt;Node15</title>
<g id="a_edge14_Node000014_Node000015"><a xlink:title=" ">
<path fill="none" stroke="#63b8ff" d="M485.48,-396.25C455.05,-387.8 412.82,-373.96 403,-360 329.85,-256 397.56,-201.14 396,-74 395.9,-65.56 393.73,-63.13 396,-55 398.76,-45.12 404.39,-35.25 409.79,-27.32"/>
<polygon fill="#63b8ff" stroke="#63b8ff" points="412.78,-29.17 415.85,-19.03 407.13,-25.04 412.78,-29.17"/>
</a>
</g>
</g>
<!-- Node16 -->
<g id="Node000016" class="node">
<title>Node16</title>
<g id="a_Node000016"><a xlink:href="type_8h.html" target="_top" xlink:title="Defines typet, type_with_subtypet and type_with_subtypest.">
<polygon fill="white" stroke="#666666" points="606.5,-360 559.5,-360 559.5,-341 606.5,-341 606.5,-360"/>
<text text-anchor="middle" x="583" y="-348" font-family="Helvetica,sans-Serif" font-size="10.00">type.h</text>
</a>
</g>
</g>
<!-- Node14&#45;&gt;Node16 -->
<g id="edge15_Node000014_Node000016" class="edge">
<title>Node14&#45;&gt;Node16</title>
<g id="a_edge15_Node000014_Node000016"><a xlink:title=" ">
<path fill="none" stroke="#63b8ff" d="M528.44,-395.98C538.15,-388.07 552.82,-376.11 564.5,-366.58"/>
<polygon fill="#63b8ff" stroke="#63b8ff" points="566.83,-369.2 572.37,-360.17 562.4,-363.78 566.83,-369.2"/>
</a>
</g>
</g>
<!-- Node40 -->
<g id="Node000040" class="node">
<title>Node40</title>
<g id="a_Node000040"><a xlink:href="validation__mode_8h.html" target="_top" xlink:title=" ">
<polygon fill="white" stroke="#666666" points="648.5,-250 541.5,-250 541.5,-231 648.5,-231 648.5,-250"/>
<text text-anchor="middle" x="595" y="-238" font-family="Helvetica,sans-Serif" font-size="10.00">validation_mode.h</text>
</a>
</g>
</g>
<!-- Node14&#45;&gt;Node40 -->
<g id="edge40_Node000014_Node000040" class="edge">
<title>Node14&#45;&gt;Node40</title>
<g id="a_edge40_Node000014_Node000040"><a xlink:title=" ">
<path fill="none" stroke="#63b8ff" d="M550.6,-399.07C575.76,-393.32 609.9,-381.92 632,-360 656.36,-335.84 669.3,-316.71 654,-286 647.43,-272.82 634.9,-262.52 623.07,-255.16"/>
<polygon fill="#63b8ff" stroke="#63b8ff" points="624.68,-252.05 614.27,-250.1 621.2,-258.12 624.68,-252.05"/>
</a>
</g>
</g>
<!-- Node41 -->
<g id="Node000041" class="node">
<title>Node41</title>
<g id="a_Node000041"><a xlink:href="validate__types_8h.html" target="_top" xlink:title=" ">
<polygon fill="white" stroke="#666666" points="645,-305 547,-305 547,-286 645,-286 645,-305"/>
<text text-anchor="middle" x="596" y="-293" font-family="Helvetica,sans-Serif" font-size="10.00">validate_types.h</text>
</a>
</g>
</g>
<!-- Node14&#45;&gt;Node41 -->
<g id="edge39_Node000014_Node000041" class="edge">
<title>Node14&#45;&gt;Node41</title>
<g id="a_edge39_Node000014_Node000041"><a xlink:title=" ">
<path fill="none" stroke="#63b8ff" d="M550.92,-399.04C573.45,-393.4 601.73,-382.15 616,-360 625.15,-345.79 617.32,-327.09 608.92,-313.67"/>
<polygon fill="#63b8ff" stroke="#63b8ff" points="611.76,-311.62 603.22,-305.34 605.98,-315.57 611.76,-311.62"/>
</a>
</g>
</g>
<!-- Node42 -->
<g id="Node000042" class="node">
<title>Node42</title>
<g id="a_Node000042"><a xlink:href="validate__expressions_8h.html" target="_top" xlink:title=" ">
<polygon fill="white" stroke="#666666" points="541.5,-360 412.5,-360 412.5,-341 541.5,-341 541.5,-360"/>
<text text-anchor="middle" x="477" y="-348" font-family="Helvetica,sans-Serif" font-size="10.00">validate_expressions.h</text>
</a>
</g>
</g>
<!-- Node14&#45;&gt;Node42 -->
<g id="edge38_Node000014_Node000042" class="edge">
<title>Node14&#45;&gt;Node42</title>
<g id="a_edge38_Node000014_Node000042"><a xlink:title=" ">
<path fill="none" stroke="#63b8ff" d="M511.23,-395.75C505.44,-388.26 496.94,-377.28 489.86,-368.13"/>
<polygon fill="#63b8ff" stroke="#63b8ff" points="492.53,-365.86 483.64,-360.09 486.99,-370.14 492.53,-365.86"/>
</a>
</g>
</g>
<!-- Node43 -->
<g id="Node000043" class="node">
<title>Node43</title>
<g id="a_Node000043"><a xlink:title=" ">
<polygon fill="#e0e0e0" stroke="#999999" points="355.5,-360 290.5,-360 290.5,-341 355.5,-341 355.5,-360"/>
<text text-anchor="middle" x="323" y="-348" font-family="Helvetica,sans-Serif" font-size="10.00">functional</text>
</a>
</g>
</g>
<!-- Node14&#45;&gt;Node43 -->
<g id="edge41_Node000014_Node000043" class="edge">
<title>Node14&#45;&gt;Node43</title>
<g id="a_edge41_Node000014_Node000043"><a xlink:title=" ">
<path fill="none" stroke="#63b8ff" d="M486.67,-395.98C453.51,-386.97 401,-372.7 364.44,-362.76"/>
<polygon fill="#63b8ff" stroke="#63b8ff" points="365.14,-359.33 354.58,-360.08 363.31,-366.08 365.14,-359.33"/>
</a>
</g>
</g>
<!-- Node17 -->
<g id="Node000017" class="node">
<title>Node17</title>
<g id="a_Node000017"><a xlink:href="source__location_8h.html" target="_top" xlink:title=" ">
<polygon fill="white" stroke="#666666" points="632,-195 530,-195 530,-176 632,-176 632,-195"/>
<text text-anchor="middle" x="581" y="-183" font-family="Helvetica,sans-Serif" font-size="10.00">source_location.h</text>
</a>
</g>
</g>
<!-- Node16&#45;&gt;Node17 -->
<g id="edge16_Node000016_Node000017" class="edge">
<title>Node16&#45;&gt;Node17</title>
<g id="a_edge16_Node000016_Node000017"><a xlink:title=" ">
<path fill="none" stroke="#63b8ff" d="M566.97,-340.95C554.59,-333.35 538.35,-320.97 531,-305 525.53,-293.12 520.14,-259.07 533,-231 538.49,-219.02 548.87,-208.75 558.57,-201.12"/>
<polygon fill="#63b8ff" stroke="#63b8ff" points="560.78,-203.83 566.78,-195.1 556.64,-198.19 560.78,-203.83"/>
</a>
</g>
</g>
<!-- Node38 -->
<g id="Node000038" class="node">
<title>Node38</title>
<g id="a_Node000038"><a xlink:href="validate_8h.html" target="_top" xlink:title=" ">
<polygon fill="white" stroke="#666666" points="766.5,-305 701.5,-305 701.5,-286 766.5,-286 766.5,-305"/>
<text text-anchor="middle" x="734" y="-293" font-family="Helvetica,sans-Serif" font-size="10.00">validate.h</text>
</a>
</g>
</g>
<!-- Node16&#45;&gt;Node38 -->
<g id="edge29_Node000016_Node000038" class="edge">
<title>Node16&#45;&gt;Node38</title>
<g id="a_edge29_Node000016_Node000038"><a xlink:title=" ">
<path fill="none" stroke="#63b8ff" d="M606.59,-341.22C631.67,-332.42 671.56,-318.42 700.02,-308.43"/>
<polygon fill="#63b8ff" stroke="#63b8ff" points="701.29,-311.69 709.57,-305.07 698.98,-305.08 701.29,-311.69"/>
</a>
</g>
</g>
<!-- Node16&#45;&gt;Node40 -->
<g id="edge37_Node000016_Node000040" class="edge">
<title>Node16&#45;&gt;Node40</title>
<g id="a_edge37_Node000016_Node000040"><a xlink:title=" ">
<path fill="none" stroke="#63b8ff" d="M569.22,-340.83C552.47,-329.12 527.63,-307.25 538,-286 544.3,-273.09 556.35,-262.83 567.76,-255.43"/>
<polygon fill="#63b8ff" stroke="#63b8ff" points="569.86,-258.25 576.65,-250.12 566.27,-252.25 569.86,-258.25"/>
</a>
</g>
</g>
<!-- Node16&#45;&gt;Node41 -->
<g id="edge36_Node000016_Node000041" class="edge">
<title>Node16&#45;&gt;Node41</title>
<g id="a_edge36_Node000016_Node000041"><a xlink:title=" ">
<path fill="none" stroke="#63b8ff" d="M585.15,-340.75C586.87,-333.72 589.35,-323.62 591.5,-314.84"/>
<polygon fill="#63b8ff" stroke="#63b8ff" points="594.91,-315.63 593.89,-305.09 588.11,-313.97 594.91,-315.63"/>
</a>
</g>
</g>
<!-- Node17&#45;&gt;Node10 -->
<g id="edge28_Node000017_Node000010" class="edge">
<title>Node17&#45;&gt;Node10</title>
<g id="a_edge28_Node000017_Node000010"><a xlink:title=" ">
<path fill="none" stroke="#63b8ff" d="M601.96,-175.89C617.68,-168.47 638.69,-156.36 652,-140 679.27,-106.47 691.94,-55.96 697.04,-29"/>
<polygon fill="#63b8ff" stroke="#63b8ff" points="700.52,-29.46 698.79,-19.01 693.62,-28.25 700.52,-29.46"/>
</a>
</g>
</g>
<!-- Node18 -->
<g id="Node000018" class="node">
<title>Node18</title>
<g id="a_Node000018"><a xlink:href="deprecate_8h.html" target="_top" xlink:title=" ">
<polygon fill="white" stroke="#666666" points="488,-134.5 414,-134.5 414,-115.5 488,-115.5 488,-134.5"/>
<text text-anchor="middle" x="451" y="-122.5" font-family="Helvetica,sans-Serif" font-size="10.00">deprecate.h</text>
</a>
</g>
</g>
<!-- Node17&#45;&gt;Node18 -->
<g id="edge17_Node000017_Node000018" class="edge">
<title>Node17&#45;&gt;Node18</title>
<g id="a_edge17_Node000017_Node000018"><a xlink:title=" ">
<path fill="none" stroke="#63b8ff" d="M562.1,-175.99C540.34,-166.2 504.38,-150.02 479.29,-138.73"/>
<polygon fill="#63b8ff" stroke="#63b8ff" points="480.48,-135.43 469.93,-134.52 477.61,-141.81 480.48,-135.43"/>
</a>
</g>
</g>
<!-- Node19 -->
<g id="Node000019" class="node">
<title>Node19</title>
<g id="a_Node000019"><a xlink:href="irep_8h.html" target="_top" xlink:title=" ">
<polygon fill="white" stroke="#666666" points="569,-134.5 525,-134.5 525,-115.5 569,-115.5 569,-134.5"/>
<text text-anchor="middle" x="547" y="-122.5" font-family="Helvetica,sans-Serif" font-size="10.00">irep.h</text>
</a>
</g>
</g>
<!-- Node17&#45;&gt;Node19 -->
<g id="edge18_Node000017_Node000019" class="edge">
<title>Node17&#45;&gt;Node19</title>
<g id="a_edge18_Node000017_Node000019"><a xlink:title=" ">
<path fill="none" stroke="#63b8ff" d="M575.98,-175.87C571.06,-167.4 563.41,-154.24 557.21,-143.57"/>
<polygon fill="#63b8ff" stroke="#63b8ff" points="560.09,-141.55 552.04,-134.67 554.04,-145.07 560.09,-141.55"/>
</a>
</g>
</g>
<!-- Node37 -->
<g id="Node000037" class="node">
<title>Node37</title>
<g id="a_Node000037"><a xlink:title=" ">
<polygon fill="#e0e0e0" stroke="#999999" points="643,-134.5 587,-134.5 587,-115.5 643,-115.5 643,-134.5"/>
<text text-anchor="middle" x="615" y="-122.5" font-family="Helvetica,sans-Serif" font-size="10.00">optional</text>
</a>
</g>
</g>
<!-- Node17&#45;&gt;Node37 -->
<g id="edge27_Node000017_Node000037" class="edge">
<title>Node17&#45;&gt;Node37</title>
<g id="a_edge27_Node000017_Node000037"><a xlink:title=" ">
<path fill="none" stroke="#63b8ff" d="M586.02,-175.87C590.94,-167.4 598.59,-154.24 604.79,-143.57"/>
<polygon fill="#63b8ff" stroke="#63b8ff" points="607.96,-145.07 609.96,-134.67 601.91,-141.55 607.96,-145.07"/>
</a>
</g>
</g>
<!-- Node19&#45;&gt;Node10 -->
<g id="edge19_Node000019_Node000010" class="edge">
<title>Node19&#45;&gt;Node10</title>
<g id="a_edge19_Node000019_Node000010"><a xlink:title=" ">
<path fill="none" stroke="#63b8ff" d="M561.25,-115.46C576.97,-105.88 602.84,-89.62 624,-74 645.01,-58.49 667.84,-39.03 682.93,-25.77"/>
<polygon fill="#63b8ff" stroke="#63b8ff" points="685.3,-28.36 690.47,-19.11 680.66,-23.11 685.3,-28.36"/>
</a>
</g>
</g>
<!-- Node19&#45;&gt;Node11 -->
<g id="edge20_Node000019_Node000011" class="edge">
<title>Node19&#45;&gt;Node11</title>
<g id="a_edge20_Node000019_Node000011"><a xlink:title=" ">
<path fill="none" stroke="#63b8ff" d="M524.63,-117.63C516,-115.21 506.05,-112.44 497,-110 449.09,-97.1 393.48,-82.84 358.76,-74.02"/>
<polygon fill="#63b8ff" stroke="#63b8ff" points="359.24,-70.54 348.69,-71.47 357.52,-77.32 359.24,-70.54"/>
</a>
</g>
</g>
<!-- Node19&#45;&gt;Node20 -->
<g id="edge21_Node000019_Node000020" class="edge">
<title>Node19&#45;&gt;Node20</title>
<g id="a_edge21_Node000019_Node000020"><a xlink:title=" ">
<path fill="none" stroke="#63b8ff" d="M563.75,-115.49C568.29,-113.45 573.26,-111.45 578,-110 652.47,-87.27 742.6,-75.17 795.39,-69.56"/>
<polygon fill="#63b8ff" stroke="#63b8ff" points="795.85,-73.04 805.44,-68.53 795.13,-66.07 795.85,-73.04"/>
</a>
</g>
</g>
<!-- Node24 -->
<g id="Node000024" class="node">
<title>Node24</title>
<g id="a_Node000024"><a xlink:href="irep__ids_8h.html" target="_top" xlink:title="util">
<polygon fill="#fff0f0" stroke="red" points="615,-74 551,-74 551,-55 615,-55 615,-74"/>
<text text-anchor="middle" x="583" y="-62" font-family="Helvetica,sans-Serif" font-size="10.00">irep_ids.h</text>
</a>
</g>
</g>
<!-- Node19&#45;&gt;Node24 -->
<g id="edge24_Node000019_Node000024" class="edge">
<title>Node19&#45;&gt;Node24</title>
<g id="a_edge24_Node000019_Node000024"><a xlink:title=" ">
<path fill="none" stroke="#63b8ff" d="M552.31,-115.37C557.58,-106.81 565.79,-93.47 572.39,-82.74"/>
<polygon fill="#63b8ff" stroke="#63b8ff" points="575.41,-84.52 577.67,-74.17 569.44,-80.85 575.41,-84.52"/>
</a>
</g>
</g>
<!-- Node33 -->
<g id="Node000033" class="node">
<title>Node33</title>
<g id="a_Node000033"><a xlink:href="forward__list__as__map_8h.html" target="_top" xlink:title=" ">
<polygon fill="#fff0f0" stroke="red" points="532.5,-74 405.5,-74 405.5,-55 532.5,-55 532.5,-74"/>
<text text-anchor="middle" x="469" y="-62" font-family="Helvetica,sans-Serif" font-size="10.00">forward_list_as_map.h</text>
</a>
</g>
</g>
<!-- Node19&#45;&gt;Node33 -->
<g id="edge25_Node000019_Node000033" class="edge">
<title>Node19&#45;&gt;Node33</title>
<g id="a_edge25_Node000019_Node000033"><a xlink:title=" ">
<path fill="none" stroke="#63b8ff" d="M535.49,-115.37C523.16,-106.12 503.38,-91.28 488.59,-80.19"/>
<polygon fill="#63b8ff" stroke="#63b8ff" points="490.66,-77.37 480.56,-74.17 486.46,-82.97 490.66,-77.37"/>
</a>
</g>
</g>
<!-- Node20&#45;&gt;Node10 -->
<g id="edge22_Node000020_Node000010" class="edge">
<title>Node20&#45;&gt;Node10</title>
<g id="a_edge22_Node000020_Node000010"><a xlink:title=" ">
<path fill="none" stroke="#63b8ff" d="M817.51,-54.98C794.34,-46.21 758.03,-32.47 731.9,-22.58"/>
<polygon fill="#63b8ff" stroke="#63b8ff" points="733.03,-19.26 722.44,-18.99 730.55,-25.81 733.03,-19.26"/>
</a>
</g>
</g>
<!-- Node23 -->
<g id="Node000023" class="node">
<title>Node23</title>
<g id="a_Node000023"><a xlink:title=" ">
<polygon fill="#e0e0e0" stroke="#999999" points="943.5,-19 874.5,-19 874.5,0 943.5,0 943.5,-19"/>
<text text-anchor="middle" x="909" y="-7" font-family="Helvetica,sans-Serif" font-size="10.00">type_traits</text>
</a>
</g>
</g>
<!-- Node20&#45;&gt;Node23 -->
<g id="edge23_Node000020_Node000023" class="edge">
<title>Node20&#45;&gt;Node23</title>
<g id="a_edge23_Node000020_Node000023"><a xlink:title=" ">
<path fill="none" stroke="#63b8ff" d="M851.09,-54.98C861.49,-47 877.26,-34.88 889.72,-25.31"/>
<polygon fill="#63b8ff" stroke="#63b8ff" points="891.91,-28.04 897.71,-19.17 887.65,-22.49 891.91,-28.04"/>
</a>
</g>
</g>
<!-- Node33&#45;&gt;Node15 -->
<g id="edge26_Node000033_Node000015" class="edge">
<title>Node33&#45;&gt;Node15</title>
<g id="a_edge26_Node000033_Node000015"><a xlink:title=" ">
<path fill="none" stroke="#63b8ff" d="M461.4,-54.75C454.84,-47.18 445.18,-36.05 437.19,-26.84"/>
<polygon fill="#63b8ff" stroke="#63b8ff" points="439.65,-24.35 430.45,-19.09 434.37,-28.94 439.65,-24.35"/>
</a>
</g>
</g>
<!-- Node38&#45;&gt;Node23 -->
<g id="edge30_Node000038_Node000023" class="edge">
<title>Node38&#45;&gt;Node23</title>
<g id="a_edge30_Node000038_Node000023"><a xlink:title=" ">
<path fill="none" stroke="#63b8ff" d="M766.51,-289.51C817.11,-279.68 909,-252.73 909,-186.5 909,-186.5 909,-186.5 909,-124 909,-90.61 909,-51.69 909,-29.19"/>
<polygon fill="#63b8ff" stroke="#63b8ff" points="912.5,-29.04 909,-19.04 905.5,-29.04 912.5,-29.04"/>
</a>
</g>
</g>
<!-- Node39 -->
<g id="Node000039" class="node">
<title>Node39</title>
<g id="a_Node000039"><a xlink:href="exception__utils_8h.html" target="_top" xlink:title=" ">
<polygon fill="white" stroke="#666666" points="767,-250 667,-250 667,-231 767,-231 767,-250"/>
<text text-anchor="middle" x="717" y="-238" font-family="Helvetica,sans-Serif" font-size="10.00">exception_utils.h</text>
</a>
</g>
</g>
<!-- Node38&#45;&gt;Node39 -->
<g id="edge31_Node000038_Node000039" class="edge">
<title>Node38&#45;&gt;Node39</title>
<g id="a_edge31_Node000038_Node000039"><a xlink:title=" ">
<path fill="none" stroke="#63b8ff" d="M731.19,-285.75C728.94,-278.72 725.7,-268.62 722.88,-259.84"/>
<polygon fill="#63b8ff" stroke="#63b8ff" points="726.14,-258.54 719.75,-250.09 719.48,-260.68 726.14,-258.54"/>
</a>
</g>
</g>
<!-- Node38&#45;&gt;Node40 -->
<g id="edge35_Node000038_Node000040" class="edge">
<title>Node38&#45;&gt;Node40</title>
<g id="a_edge35_Node000038_Node000040"><a xlink:title=" ">
<path fill="none" stroke="#63b8ff" d="M711.67,-285.98C688.8,-277.27 653.04,-263.63 627.14,-253.75"/>
<polygon fill="#63b8ff" stroke="#63b8ff" points="628.33,-250.46 617.74,-250.17 625.84,-257 628.33,-250.46"/>
</a>
</g>
</g>
<!-- Node39&#45;&gt;Node10 -->
<g id="edge32_Node000039_Node000010" class="edge">
<title>Node39&#45;&gt;Node10</title>
<g id="a_edge32_Node000039_Node000010"><a xlink:title=" ">
<path fill="none" stroke="#63b8ff" d="M716.35,-230.8C713.87,-197.29 704.87,-76.08 701.39,-29.2"/>
<polygon fill="#63b8ff" stroke="#63b8ff" points="704.88,-28.92 700.65,-19.21 697.9,-29.44 704.88,-28.92"/>
</a>
</g>
</g>
<!-- Node39&#45;&gt;Node17 -->
<g id="edge34_Node000039_Node000017" class="edge">
<title>Node39&#45;&gt;Node17</title>
<g id="a_edge34_Node000039_Node000017"><a xlink:title=" ">
<path fill="none" stroke="#63b8ff" d="M695.15,-230.98C672.88,-222.3 638.1,-208.75 612.78,-198.88"/>
<polygon fill="#63b8ff" stroke="#63b8ff" points="613.84,-195.54 603.25,-195.17 611.29,-202.06 613.84,-195.54"/>
</a>
</g>
</g>
<!-- Node39&#45;&gt;Node20 -->
<g id="edge33_Node000039_Node000020" class="edge">
<title>Node39&#45;&gt;Node20</title>
<g id="a_edge33_Node000039_Node000020"><a xlink:title=" ">
<path fill="none" stroke="#63b8ff" d="M723.27,-230.63C742.68,-203.17 802.05,-119.18 827.83,-82.71"/>
<polygon fill="#63b8ff" stroke="#63b8ff" points="830.98,-84.33 833.89,-74.14 825.26,-80.29 830.98,-84.33"/>
</a>
</g>
</g>
<!-- Node44&#45;&gt;Node18 -->
<g id="edge45_Node000044_Node000018" class="edge">
<title>Node44&#45;&gt;Node18</title>
<g id="a_edge45_Node000044_Node000018"><a xlink:title=" ">
<path fill="none" stroke="#63b8ff" d="M314.04,-395.96C292.03,-389.43 265.67,-378.32 248,-360 227.05,-338.28 224,-326.67 224,-296.5 224,-296.5 224,-296.5 224,-239.5 224,-159.93 336.96,-136.14 403.51,-129.03"/>
<polygon fill="#63b8ff" stroke="#63b8ff" points="404.16,-132.48 413.77,-128.03 403.48,-125.52 404.16,-132.48"/>
</a>
</g>
</g>
<!-- Node44&#45;&gt;Node19 -->
<g id="edge46_Node000044_Node000019" class="edge">
<title>Node44&#45;&gt;Node19</title>
<g id="a_edge46_Node000044_Node000019"><a xlink:title=" ">
<path fill="none" stroke="#63b8ff" d="M329.28,-395.99C303.66,-385.62 268.91,-366.31 281,-341 330.95,-236.4 459.39,-166.31 517.57,-138.92"/>
<polygon fill="#63b8ff" stroke="#63b8ff" points="519.33,-141.97 526.94,-134.6 516.39,-135.61 519.33,-141.97"/>
</a>
</g>
</g>
<!-- Node44&#45;&gt;Node43 -->
<g id="edge47_Node000044_Node000043" class="edge">
<title>Node44&#45;&gt;Node43</title>
<g id="a_edge47_Node000044_Node000043"><a xlink:title=" ">
<path fill="none" stroke="#63b8ff" d="M348.88,-395.75C344.64,-388.49 338.47,-377.95 333.22,-368.98"/>
<polygon fill="#63b8ff" stroke="#63b8ff" points="336.09,-366.95 328.02,-360.09 330.05,-370.49 336.09,-366.95"/>
</a>
</g>
</g>
<!-- Node45&#45;&gt;Node20 -->
<g id="edge56_Node000045_Node000020" class="edge">
<title>Node45&#45;&gt;Node20</title>
<g id="a_edge56_Node000045_Node000020"><a xlink:title=" ">
<path fill="none" stroke="#63b8ff" d="M818.2,-569.38C889.25,-566.65 1023,-549.79 1023,-461.5 1023,-461.5 1023,-461.5 1023,-184.5 1023,-118.68 938.76,-87.39 884.59,-74.08"/>
<polygon fill="#63b8ff" stroke="#63b8ff" points="885.39,-70.67 874.85,-71.8 883.79,-77.49 885.39,-70.67"/>
</a>
</g>
</g>
<!-- Node46 -->
<g id="Node000046" class="node">
<title>Node46</title>
<g id="a_Node000046"><a xlink:href="expr__cast_8h.html" target="_top" xlink:title="Templated functions to cast to specific exprt&#45;derived classes.">
<polygon fill="white" stroke="#666666" points="921.5,-470 848.5,-470 848.5,-451 921.5,-451 921.5,-470"/>
<text text-anchor="middle" x="885" y="-458" font-family="Helvetica,sans-Serif" font-size="10.00">expr_cast.h</text>
</a>
</g>
</g>
<!-- Node45&#45;&gt;Node46 -->
<g id="edge50_Node000045_Node000046" class="edge">
<title>Node45&#45;&gt;Node46</title>
<g id="a_edge50_Node000045_Node000046"><a xlink:title=" ">
<path fill="none" stroke="#63b8ff" d="M784,-560.66C802.63,-542.38 845.6,-500.18 869.04,-477.17"/>
<polygon fill="#63b8ff" stroke="#63b8ff" points="871.5,-479.66 876.18,-470.16 866.59,-474.67 871.5,-479.66"/>
</a>
</g>
</g>
<!-- Node48 -->
<g id="Node000048" class="node">
<title>Node48</title>
<g id="a_Node000048"><a xlink:href="std__types_8h.html" target="_top" xlink:title="Pre&#45;defined types.">
<polygon fill="white" stroke="#666666" points="756.5,-525 683.5,-525 683.5,-506 756.5,-506 756.5,-525"/>
<text text-anchor="middle" x="720" y="-513" font-family="Helvetica,sans-Serif" font-size="10.00">std_types.h</text>
</a>
</g>
</g>
<!-- Node45&#45;&gt;Node48 -->
<g id="edge57_Node000045_Node000048" class="edge">
<title>Node45&#45;&gt;Node48</title>
<g id="a_edge57_Node000045_Node000048"><a xlink:title=" ">
<path fill="none" stroke="#63b8ff" d="M765.92,-560.75C757.91,-553.03 746.04,-541.6 736.38,-532.28"/>
<polygon fill="#63b8ff" stroke="#63b8ff" points="738.54,-529.51 728.91,-525.09 733.69,-534.55 738.54,-529.51"/>
</a>
</g>
</g>
<!-- Node46&#45;&gt;Node14 -->
<g id="edge55_Node000046_Node000014" class="edge">
<title>Node46&#45;&gt;Node14</title>
<g id="a_edge55_Node000046_Node000014"><a xlink:title=" ">
<path fill="none" stroke="#63b8ff" d="M848.47,-454.22C780.21,-444.37 633.65,-423.2 560.85,-412.69"/>
<polygon fill="#63b8ff" stroke="#63b8ff" points="561.06,-409.18 550.66,-411.22 560.06,-416.11 561.06,-409.18"/>
</a>
</g>
</g>
<!-- Node46&#45;&gt;Node20 -->
<g id="edge54_Node000046_Node000020" class="edge">
<title>Node46&#45;&gt;Node20</title>
<g id="a_edge54_Node000046_Node000020"><a xlink:title=" ">
<path fill="none" stroke="#63b8ff" d="M883.11,-450.87C879.29,-432.62 871,-388.75 871,-351.5 871,-351.5 871,-351.5 871,-184.5 871,-147.82 857.04,-106.78 847.86,-83.75"/>
<polygon fill="#63b8ff" stroke="#63b8ff" points="850.98,-82.16 843.93,-74.25 844.51,-84.83 850.98,-82.16"/>
</a>
</g>
</g>
<!-- Node46&#45;&gt;Node23 -->
<g id="edge52_Node000046_Node000023" class="edge">
<title>Node46&#45;&gt;Node23</title>
<g id="a_edge52_Node000046_Node000023"><a xlink:title=" ">
<path fill="none" stroke="#63b8ff" d="M911.51,-450.98C929.31,-443.98 951.98,-432.35 966,-415 984.51,-392.09 985,-380.96 985,-351.5 985,-351.5 985,-351.5 985,-124 985,-83.03 950.38,-45.66 927.87,-25.69"/>
<polygon fill="#63b8ff" stroke="#63b8ff" points="930.09,-22.99 920.21,-19.15 925.54,-28.31 930.09,-22.99"/>
</a>
</g>
</g>
<!-- Node46&#45;&gt;Node43 -->
<g id="edge53_Node000046_Node000043" class="edge">
<title>Node46&#45;&gt;Node43</title>
<g id="a_edge53_Node000046_Node000043"><a xlink:title=" ">
<path fill="none" stroke="#63b8ff" d="M848.47,-456.84C762.04,-450.34 546.99,-432.86 477,-415 430.17,-403.05 378.86,-379.64 348.87,-364.83"/>
<polygon fill="#63b8ff" stroke="#63b8ff" points="350.06,-361.51 339.56,-360.16 346.93,-367.77 350.06,-361.51"/>
</a>
</g>
</g>
<!-- Node47 -->
<g id="Node000047" class="node">
<title>Node47</title>
<g id="a_Node000047"><a xlink:title=" ">
<polygon fill="#e0e0e0" stroke="#999999" points="956.5,-415 899.5,-415 899.5,-396 956.5,-396 956.5,-415"/>
<text text-anchor="middle" x="928" y="-403" font-family="Helvetica,sans-Serif" font-size="10.00">typeinfo</text>
</a>
</g>
</g>
<!-- Node46&#45;&gt;Node47 -->
<g id="edge51_Node000046_Node000047" class="edge">
<title>Node46&#45;&gt;Node47</title>
<g id="a_edge51_Node000046_Node000047"><a xlink:title=" ">
<path fill="none" stroke="#63b8ff" d="M892.1,-450.75C898.17,-443.26 907.09,-432.28 914.51,-423.13"/>
<polygon fill="#63b8ff" stroke="#63b8ff" points="917.45,-425.06 921.03,-415.09 912.01,-420.65 917.45,-425.06"/>
</a>
</g>
</g>
<!-- Node48&#45;&gt;Node5 -->
<g id="edge66_Node000048_Node000005" class="edge">
<title>Node48&#45;&gt;Node5</title>
<g id="a_edge66_Node000048_Node000005"><a xlink:title=" ">
<path fill="none" stroke="#63b8ff" d="M683.2,-506.12C598.1,-486.72 387.77,-438.8 293.29,-417.27"/>
<polygon fill="#63b8ff" stroke="#63b8ff" points="293.96,-413.84 283.43,-415.03 292.4,-420.66 293.96,-413.84"/>
</a>
</g>
</g>
<!-- Node48&#45;&gt;Node14 -->
<g id="edge58_Node000048_Node000014" class="edge">
<title>Node48&#45;&gt;Node14</title>
<g id="a_edge58_Node000048_Node000014"><a xlink:title=" ">
<path fill="none" stroke="#63b8ff" d="M683.31,-510.74C649.95,-505.83 600.65,-494.74 565,-470 548.15,-458.31 534.95,-438.62 526.89,-424.26"/>
<polygon fill="#63b8ff" stroke="#63b8ff" points="529.93,-422.52 522.14,-415.33 523.75,-425.8 529.93,-422.52"/>
</a>
</g>
</g>
<!-- Node48&#45;&gt;Node20 -->
<g id="edge60_Node000048_Node000020" class="edge">
<title>Node48&#45;&gt;Node20</title>
<g id="a_edge60_Node000048_Node000020"><a xlink:title=" ">
<path fill="none" stroke="#63b8ff" d="M732.09,-505.75C761.24,-483.54 833,-421.74 833,-351.5 833,-351.5 833,-351.5 833,-184.5 833,-149.09 836.13,-107.86 838.2,-84.4"/>
<polygon fill="#63b8ff" stroke="#63b8ff" points="841.71,-84.43 839.14,-74.15 834.74,-83.79 841.71,-84.43"/>
</a>
</g>
</g>
<!-- Node48&#45;&gt;Node38 -->
<g id="edge65_Node000048_Node000038" class="edge">
<title>Node48&#45;&gt;Node38</title>
<g id="a_edge65_Node000048_Node000038"><a xlink:title=" ">
<path fill="none" stroke="#63b8ff" d="M697.5,-506C655.2,-488.62 570.48,-446.41 598,-396 612.18,-370.03 629.94,-377.22 654,-360 675.9,-344.33 699.97,-324.9 715.93,-311.69"/>
<polygon fill="#63b8ff" stroke="#63b8ff" points="718.45,-314.15 723.9,-305.06 713.97,-308.77 718.45,-314.15"/>
</a>
</g>
</g>
<!-- Node48&#45;&gt;Node46 -->
<g id="edge59_Node000048_Node000046" class="edge">
<title>Node48&#45;&gt;Node46</title>
<g id="a_edge59_Node000048_Node000046"><a xlink:title=" ">
<path fill="none" stroke="#63b8ff" d="M746.51,-505.98C774.21,-497.09 817.86,-483.07 848.74,-473.15"/>
<polygon fill="#63b8ff" stroke="#63b8ff" points="849.83,-476.47 858.28,-470.08 847.69,-469.81 849.83,-476.47"/>
</a>
</g>
</g>
<!-- Node49 -->
<g id="Node000049" class="node">
<title>Node49</title>
<g id="a_Node000049"><a xlink:href="mp__arith_8h.html" target="_top" xlink:title=" ">
<polygon fill="white" stroke="#666666" points="754.5,-470 685.5,-470 685.5,-451 754.5,-451 754.5,-470"/>
<text text-anchor="middle" x="720" y="-458" font-family="Helvetica,sans-Serif" font-size="10.00">mp_arith.h</text>
</a>
</g>
</g>
<!-- Node48&#45;&gt;Node49 -->
<g id="edge61_Node000048_Node000049" class="edge">
<title>Node48&#45;&gt;Node49</title>
<g id="a_edge61_Node000048_Node000049"><a xlink:title=" ">
<path fill="none" stroke="#63b8ff" d="M720,-505.75C720,-498.8 720,-488.85 720,-480.13"/>
<polygon fill="#63b8ff" stroke="#63b8ff" points="723.5,-480.09 720,-470.09 716.5,-480.09 723.5,-480.09"/>
</a>
</g>
</g>
<!-- Node49&#45;&gt;Node10 -->
<g id="edge63_Node000049_Node000010" class="edge">
<title>Node49&#45;&gt;Node10</title>
<g id="a_edge63_Node000049_Node000010"><a xlink:title=" ">
<path fill="none" stroke="#63b8ff" d="M735.48,-450.86C748.13,-443.05 765.56,-430.43 776,-415 792.51,-390.6 795,-380.96 795,-351.5 795,-351.5 795,-351.5 795,-239.5 795,-154.55 738.54,-64.48 712.67,-27.67"/>
<polygon fill="#63b8ff" stroke="#63b8ff" points="715.21,-25.2 706.53,-19.12 709.52,-29.28 715.21,-25.2"/>
</a>
</g>
</g>
<!-- Node26 -->
<g id="Node000026" class="node">
<title>Node26</title>
<g id="a_Node000026"><a xlink:title=" ">
<polygon fill="#e0e0e0" stroke="#999999" points="655,-415 607,-415 607,-396 655,-396 655,-415"/>
<text text-anchor="middle" x="631" y="-403" font-family="Helvetica,sans-Serif" font-size="10.00">iosfwd</text>
</a>
</g>
</g>
<!-- Node49&#45;&gt;Node26 -->
<g id="edge62_Node000049_Node000026" class="edge">
<title>Node49&#45;&gt;Node26</title>
<g id="a_edge62_Node000049_Node000026"><a xlink:title=" ">
<path fill="none" stroke="#63b8ff" d="M705.7,-450.98C691.9,-442.77 670.76,-430.18 654.49,-420.49"/>
<polygon fill="#63b8ff" stroke="#63b8ff" points="655.94,-417.28 645.56,-415.17 652.36,-423.29 655.94,-417.28"/>
</a>
</g>
</g>
<!-- Node50 -->
<g id="Node000050" class="node">
<title>Node50</title>
<g id="a_Node000050"><a xlink:title=" ">
<polygon fill="#e0e0e0" stroke="#999999" points="767,-415 673,-415 673,-396 767,-396 767,-415"/>
<text text-anchor="middle" x="720" y="-403" font-family="Helvetica,sans-Serif" font-size="10.00">big&#45;int/bigint.hh</text>
</a>
</g>
</g>
<!-- Node49&#45;&gt;Node50 -->
<g id="edge64_Node000049_Node000050" class="edge">
<title>Node49&#45;&gt;Node50</title>
<g id="a_edge64_Node000049_Node000050"><a xlink:title=" ">
<path fill="none" stroke="#63b8ff" d="M720,-450.75C720,-443.8 720,-433.85 720,-425.13"/>
<polygon fill="#63b8ff" stroke="#63b8ff" points="723.5,-425.09 720,-415.09 716.5,-425.09 723.5,-425.09"/>
</a>
</g>
</g>
</g>
</svg>
