<?xml version="1.0" encoding="UTF-8" standalone="no"?>
<!DOCTYPE svg PUBLIC "-//W3C//DTD SVG 1.1//EN"
 "http://www.w3.org/Graphics/SVG/1.1/DTD/svg11.dtd">
<!-- Generated by graphviz version 2.43.0 (0)
 -->
<!-- Title: /home/runner/work/cbmc/cbmc/src/goto&#45;instrument/havoc_utils.h Pages: 1 -->
<svg width="707pt" height="599pt"
 viewBox="0.00 0.00 706.50 599.00" xmlns="http://www.w3.org/2000/svg" xmlns:xlink="http://www.w3.org/1999/xlink">
<g id="graph0" class="graph" transform="scale(1 1) rotate(0) translate(4 595)">
<title>/home/runner/work/cbmc/cbmc/src/goto&#45;instrument/havoc_utils.h</title>
<!-- Node1 -->
<g id="Node000001" class="node">
<title>Node1</title>
<g id="a_Node000001"><a xlink:title="Utilities for building havoc code for expressions.">
<polygon fill="#999999" stroke="#666666" points="624.5,-591 479.5,-591 479.5,-550 624.5,-550 624.5,-591"/>
<text text-anchor="start" x="487.5" y="-579" font-family="Helvetica,sans-Serif" font-size="10.00">/home/runner/work/cbmc</text>
<text text-anchor="start" x="487.5" y="-568" font-family="Helvetica,sans-Serif" font-size="10.00">/cbmc/src/goto&#45;instrument</text>
<text text-anchor="middle" x="552" y="-557" font-family="Helvetica,sans-Serif" font-size="10.00">/havoc_utils.h</text>
</a>
</g>
</g>
<!-- Node2 -->
<g id="Node000002" class="node">
<title>Node2</title>
<g id="a_Node000002"><a xlink:href="expr_8h.html" target="_top" xlink:title=" ">
<polygon fill="white" stroke="#666666" points="400.5,-514 335.5,-514 335.5,-495 400.5,-495 400.5,-514"/>
<text text-anchor="middle" x="368" y="-502" font-family="Helvetica,sans-Serif" font-size="10.00">util/expr.h</text>
</a>
</g>
</g>
<!-- Node1&#45;&gt;Node2 -->
<g id="edge1_Node000001_Node000002" class="edge">
<title>Node1&#45;&gt;Node2</title>
<g id="a_edge1_Node000001_Node000002"><a xlink:title=" ">
<path fill="none" stroke="#63b8ff" d="M495.79,-549.95C465.24,-539.32 428.45,-526.53 402.21,-517.4"/>
<polygon fill="#63b8ff" stroke="#63b8ff" points="403.3,-514.07 392.7,-514.09 401,-520.68 403.3,-514.07"/>
</a>
</g>
</g>
<!-- Node36 -->
<g id="Node000036" class="node">
<title>Node36</title>
<g id="a_Node000036"><a xlink:href="expr__util_8h.html" target="_top" xlink:title="Deprecated expression utility functions.">
<polygon fill="white" stroke="#666666" points="595.5,-514 508.5,-514 508.5,-495 595.5,-495 595.5,-514"/>
<text text-anchor="middle" x="552" y="-502" font-family="Helvetica,sans-Serif" font-size="10.00">util/expr_util.h</text>
</a>
</g>
</g>
<!-- Node1&#45;&gt;Node36 -->
<g id="edge40_Node000001_Node000036" class="edge">
<title>Node1&#45;&gt;Node36</title>
<g id="a_edge40_Node000001_Node000036"><a xlink:title=" ">
<path fill="none" stroke="#63b8ff" d="M552,-549.95C552,-541.85 552,-532.5 552,-524.47"/>
<polygon fill="#63b8ff" stroke="#63b8ff" points="555.5,-524.26 552,-514.26 548.5,-524.26 555.5,-524.26"/>
</a>
</g>
</g>
<!-- Node37 -->
<g id="Node000037" class="node">
<title>Node37</title>
<g id="a_Node000037"><a xlink:title=" ">
<polygon fill="#e0e0e0" stroke="#999999" points="646,-514 614,-514 614,-495 646,-495 646,-514"/>
<text text-anchor="middle" x="630" y="-502" font-family="Helvetica,sans-Serif" font-size="10.00">set</text>
</a>
</g>
</g>
<!-- Node1&#45;&gt;Node37 -->
<g id="edge44_Node000001_Node000037" class="edge">
<title>Node1&#45;&gt;Node37</title>
<g id="a_edge44_Node000001_Node000037"><a xlink:title=" ">
<path fill="none" stroke="#63b8ff" d="M575.83,-549.95C587.28,-540.55 600.8,-529.46 611.47,-520.7"/>
<polygon fill="#63b8ff" stroke="#63b8ff" points="613.81,-523.31 619.32,-514.26 609.37,-517.9 613.81,-523.31"/>
</a>
</g>
</g>
<!-- Node3 -->
<g id="Node000003" class="node">
<title>Node3</title>
<g id="a_Node000003"><a xlink:href="as__const_8h.html" target="_top" xlink:title=" ">
<polygon fill="white" stroke="#666666" points="134,-129 66,-129 66,-110 134,-110 134,-129"/>
<text text-anchor="middle" x="100" y="-117" font-family="Helvetica,sans-Serif" font-size="10.00">as_const.h</text>
</a>
</g>
</g>
<!-- Node2&#45;&gt;Node3 -->
<g id="edge2_Node000002_Node000003" class="edge">
<title>Node2&#45;&gt;Node3</title>
<g id="a_edge2_Node000002_Node000003"><a xlink:title=" ">
<path fill="none" stroke="#63b8ff" d="M335.37,-498.74C258.21,-486.56 71,-451.26 71,-395.5 71,-395.5 71,-395.5 71,-338.5 71,-264.11 87.8,-176.67 95.83,-139.14"/>
<polygon fill="#63b8ff" stroke="#63b8ff" points="99.29,-139.68 98.01,-129.17 92.45,-138.19 99.29,-139.68"/>
</a>
</g>
</g>
<!-- Node4 -->
<g id="Node000004" class="node">
<title>Node4</title>
<g id="a_Node000004"><a xlink:href="type_8h.html" target="_top" xlink:title="Defines typet, type_with_subtypet and type_with_subtypest.">
<polygon fill="white" stroke="#666666" points="285.5,-459 238.5,-459 238.5,-440 285.5,-440 285.5,-459"/>
<text text-anchor="middle" x="262" y="-447" font-family="Helvetica,sans-Serif" font-size="10.00">type.h</text>
</a>
</g>
</g>
<!-- Node2&#45;&gt;Node4 -->
<g id="edge3_Node000002_Node000004" class="edge">
<title>Node2&#45;&gt;Node4</title>
<g id="a_edge3_Node000002_Node000004"><a xlink:title=" ">
<path fill="none" stroke="#63b8ff" d="M350.97,-494.98C334.07,-486.54 307.94,-473.47 288.36,-463.68"/>
<polygon fill="#63b8ff" stroke="#63b8ff" points="289.85,-460.51 279.34,-459.17 286.72,-466.77 289.85,-460.51"/>
</a>
</g>
</g>
<!-- Node32 -->
<g id="Node000032" class="node">
<title>Node32</title>
<g id="a_Node000032"><a xlink:href="validation__mode_8h.html" target="_top" xlink:title=" ">
<polygon fill="white" stroke="#666666" points="324.5,-349 217.5,-349 217.5,-330 324.5,-330 324.5,-349"/>
<text text-anchor="middle" x="271" y="-337" font-family="Helvetica,sans-Serif" font-size="10.00">validation_mode.h</text>
</a>
</g>
</g>
<!-- Node2&#45;&gt;Node32 -->
<g id="edge38_Node000002_Node000032" class="edge">
<title>Node2&#45;&gt;Node32</title>
<g id="a_edge38_Node000002_Node000032"><a xlink:title=" ">
<path fill="none" stroke="#63b8ff" d="M335.33,-503.32C302.43,-501.17 253.2,-492.16 229,-459 205.74,-427.12 236.28,-381.17 256.23,-356.92"/>
<polygon fill="#63b8ff" stroke="#63b8ff" points="259.14,-358.9 262.99,-349.03 253.82,-354.35 259.14,-358.9"/>
</a>
</g>
</g>
<!-- Node33 -->
<g id="Node000033" class="node">
<title>Node33</title>
<g id="a_Node000033"><a xlink:href="validate__types_8h.html" target="_top" xlink:title=" ">
<polygon fill="white" stroke="#666666" points="495,-404 397,-404 397,-385 495,-385 495,-404"/>
<text text-anchor="middle" x="446" y="-392" font-family="Helvetica,sans-Serif" font-size="10.00">validate_types.h</text>
</a>
</g>
</g>
<!-- Node2&#45;&gt;Node33 -->
<g id="edge37_Node000002_Node000033" class="edge">
<title>Node2&#45;&gt;Node33</title>
<g id="a_edge37_Node000002_Node000033"><a xlink:title=" ">
<path fill="none" stroke="#63b8ff" d="M394.19,-494.97C410.89,-488.06 431.33,-476.55 442,-459 450.16,-445.58 450.49,-427.48 449.17,-414.03"/>
<polygon fill="#63b8ff" stroke="#63b8ff" points="452.63,-413.48 447.81,-404.04 445.69,-414.42 452.63,-413.48"/>
</a>
</g>
</g>
<!-- Node34 -->
<g id="Node000034" class="node">
<title>Node34</title>
<g id="a_Node000034"><a xlink:href="validate__expressions_8h.html" target="_top" xlink:title=" ">
<polygon fill="white" stroke="#666666" points="432.5,-459 303.5,-459 303.5,-440 432.5,-440 432.5,-459"/>
<text text-anchor="middle" x="368" y="-447" font-family="Helvetica,sans-Serif" font-size="10.00">validate_expressions.h</text>
</a>
</g>
</g>
<!-- Node2&#45;&gt;Node34 -->
<g id="edge36_Node000002_Node000034" class="edge">
<title>Node2&#45;&gt;Node34</title>
<g id="a_edge36_Node000002_Node000034"><a xlink:title=" ">
<path fill="none" stroke="#63b8ff" d="M368,-494.75C368,-487.8 368,-477.85 368,-469.13"/>
<polygon fill="#63b8ff" stroke="#63b8ff" points="371.5,-469.09 368,-459.09 364.5,-469.09 371.5,-469.09"/>
</a>
</g>
</g>
<!-- Node35 -->
<g id="Node000035" class="node">
<title>Node35</title>
<g id="a_Node000035"><a xlink:title=" ">
<polygon fill="#e0e0e0" stroke="#999999" points="554.5,-459 489.5,-459 489.5,-440 554.5,-440 554.5,-459"/>
<text text-anchor="middle" x="522" y="-447" font-family="Helvetica,sans-Serif" font-size="10.00">functional</text>
</a>
</g>
</g>
<!-- Node2&#45;&gt;Node35 -->
<g id="edge39_Node000002_Node000035" class="edge">
<title>Node2&#45;&gt;Node35</title>
<g id="a_edge39_Node000002_Node000035"><a xlink:title=" ">
<path fill="none" stroke="#63b8ff" d="M392.74,-494.98C418.37,-486.16 458.63,-472.31 487.41,-462.41"/>
<polygon fill="#63b8ff" stroke="#63b8ff" points="488.75,-465.65 497.06,-459.08 486.47,-459.03 488.75,-465.65"/>
</a>
</g>
</g>
<!-- Node5 -->
<g id="Node000005" class="node">
<title>Node5</title>
<g id="a_Node000005"><a xlink:href="source__location_8h.html" target="_top" xlink:title=" ">
<polygon fill="white" stroke="#666666" points="494,-294 392,-294 392,-275 494,-275 494,-294"/>
<text text-anchor="middle" x="443" y="-282" font-family="Helvetica,sans-Serif" font-size="10.00">source_location.h</text>
</a>
</g>
</g>
<!-- Node4&#45;&gt;Node5 -->
<g id="edge4_Node000004_Node000005" class="edge">
<title>Node4&#45;&gt;Node5</title>
<g id="a_edge4_Node000004_Node000005"><a xlink:title=" ">
<path fill="none" stroke="#63b8ff" d="M271.73,-439.74C300.95,-413.42 388.2,-334.85 425.63,-301.14"/>
<polygon fill="#63b8ff" stroke="#63b8ff" points="428.13,-303.6 433.22,-294.31 423.45,-298.4 428.13,-303.6"/>
</a>
</g>
</g>
<!-- Node30 -->
<g id="Node000030" class="node">
<title>Node30</title>
<g id="a_Node000030"><a xlink:href="validate_8h.html" target="_top" xlink:title=" ">
<polygon fill="white" stroke="#666666" points="181.5,-404 116.5,-404 116.5,-385 181.5,-385 181.5,-404"/>
<text text-anchor="middle" x="149" y="-392" font-family="Helvetica,sans-Serif" font-size="10.00">validate.h</text>
</a>
</g>
</g>
<!-- Node4&#45;&gt;Node30 -->
<g id="edge27_Node000004_Node000030" class="edge">
<title>Node4&#45;&gt;Node30</title>
<g id="a_edge27_Node000004_Node000030"><a xlink:title=" ">
<path fill="none" stroke="#63b8ff" d="M243.84,-439.98C225.75,-431.5 197.72,-418.35 176.81,-408.54"/>
<polygon fill="#63b8ff" stroke="#63b8ff" points="178.03,-405.25 167.49,-404.17 175.05,-411.59 178.03,-405.25"/>
</a>
</g>
</g>
<!-- Node4&#45;&gt;Node32 -->
<g id="edge35_Node000004_Node000032" class="edge">
<title>Node4&#45;&gt;Node32</title>
<g id="a_edge35_Node000004_Node000032"><a xlink:title=" ">
<path fill="none" stroke="#63b8ff" d="M262.74,-439.66C264.19,-422.17 267.47,-382.8 269.44,-359.27"/>
<polygon fill="#63b8ff" stroke="#63b8ff" points="272.94,-359.41 270.28,-349.16 265.96,-358.83 272.94,-359.41"/>
</a>
</g>
</g>
<!-- Node4&#45;&gt;Node33 -->
<g id="edge34_Node000004_Node000033" class="edge">
<title>Node4&#45;&gt;Node33</title>
<g id="a_edge34_Node000004_Node000033"><a xlink:title=" ">
<path fill="none" stroke="#63b8ff" d="M285.68,-441.68C316.2,-432.89 369.7,-417.48 406.44,-406.89"/>
<polygon fill="#63b8ff" stroke="#63b8ff" points="407.69,-410.18 416.33,-404.05 405.75,-403.45 407.69,-410.18"/>
</a>
</g>
</g>
<!-- Node6 -->
<g id="Node000006" class="node">
<title>Node6</title>
<g id="a_Node000006"><a xlink:href="deprecate_8h.html" target="_top" xlink:title=" ">
<polygon fill="white" stroke="#666666" points="654,-239 580,-239 580,-220 654,-220 654,-239"/>
<text text-anchor="middle" x="617" y="-227" font-family="Helvetica,sans-Serif" font-size="10.00">deprecate.h</text>
</a>
</g>
</g>
<!-- Node5&#45;&gt;Node6 -->
<g id="edge5_Node000005_Node000006" class="edge">
<title>Node5&#45;&gt;Node6</title>
<g id="a_edge5_Node000005_Node000006"><a xlink:title=" ">
<path fill="none" stroke="#63b8ff" d="M470.96,-274.98C500.3,-266.05 546.6,-251.94 579.19,-242.02"/>
<polygon fill="#63b8ff" stroke="#63b8ff" points="580.28,-245.34 588.82,-239.08 578.24,-238.65 580.28,-245.34"/>
</a>
</g>
</g>
<!-- Node7 -->
<g id="Node000007" class="node">
<title>Node7</title>
<g id="a_Node000007"><a xlink:href="irep_8h.html" target="_top" xlink:title=" ">
<polygon fill="white" stroke="#666666" points="545,-239 501,-239 501,-220 545,-220 545,-239"/>
<text text-anchor="middle" x="523" y="-227" font-family="Helvetica,sans-Serif" font-size="10.00">irep.h</text>
</a>
</g>
</g>
<!-- Node5&#45;&gt;Node7 -->
<g id="edge6_Node000005_Node000007" class="edge">
<title>Node5&#45;&gt;Node7</title>
<g id="a_edge6_Node000005_Node000007"><a xlink:title=" ">
<path fill="none" stroke="#63b8ff" d="M455.85,-274.98C468.14,-266.84 486.91,-254.41 501.48,-244.76"/>
<polygon fill="#63b8ff" stroke="#63b8ff" points="503.51,-247.61 509.91,-239.17 499.64,-241.78 503.51,-247.61"/>
</a>
</g>
</g>
<!-- Node8 -->
<g id="Node000008" class="node">
<title>Node8</title>
<g id="a_Node000008"><a xlink:title=" ">
<polygon fill="#e0e0e0" stroke="#999999" points="512,-19 468,-19 468,0 512,0 512,-19"/>
<text text-anchor="middle" x="490" y="-7" font-family="Helvetica,sans-Serif" font-size="10.00">string</text>
</a>
</g>
</g>
<!-- Node5&#45;&gt;Node8 -->
<g id="edge26_Node000005_Node000008" class="edge">
<title>Node5&#45;&gt;Node8</title>
<g id="a_edge26_Node000005_Node000008"><a xlink:title=" ">
<path fill="none" stroke="#63b8ff" d="M444.8,-274.98C446.67,-266.04 449.65,-251.55 452,-239 466.57,-161.29 481.17,-68.18 487.16,-29.15"/>
<polygon fill="#63b8ff" stroke="#63b8ff" points="490.63,-29.65 488.68,-19.24 483.71,-28.6 490.63,-29.65"/>
</a>
</g>
</g>
<!-- Node29 -->
<g id="Node000029" class="node">
<title>Node29</title>
<g id="a_Node000029"><a xlink:title=" ">
<polygon fill="#e0e0e0" stroke="#999999" points="443,-239 387,-239 387,-220 443,-220 443,-239"/>
<text text-anchor="middle" x="415" y="-227" font-family="Helvetica,sans-Serif" font-size="10.00">optional</text>
</a>
</g>
</g>
<!-- Node5&#45;&gt;Node29 -->
<g id="edge25_Node000005_Node000029" class="edge">
<title>Node5&#45;&gt;Node29</title>
<g id="a_edge25_Node000005_Node000029"><a xlink:title=" ">
<path fill="none" stroke="#63b8ff" d="M438.38,-274.75C434.54,-267.49 428.98,-256.95 424.24,-247.98"/>
<polygon fill="#63b8ff" stroke="#63b8ff" points="427.3,-246.3 419.54,-239.09 421.11,-249.57 427.3,-246.3"/>
</a>
</g>
</g>
<!-- Node7&#45;&gt;Node8 -->
<g id="edge7_Node000007_Node000008" class="edge">
<title>Node7&#45;&gt;Node8</title>
<g id="a_edge7_Node000007_Node000008"><a xlink:title=" ">
<path fill="none" stroke="#63b8ff" d="M532.02,-219.96C540.07,-211.66 551.29,-198.25 556,-184 558.65,-175.98 557.69,-173.27 556,-165 545.27,-112.57 516.02,-55.94 500.31,-28.05"/>
<polygon fill="#63b8ff" stroke="#63b8ff" points="503.21,-26.07 495.19,-19.14 497.14,-29.56 503.21,-26.07"/>
</a>
</g>
</g>
<!-- Node9 -->
<g id="Node000009" class="node">
<title>Node9</title>
<g id="a_Node000009"><a xlink:title=" ">
<polygon fill="#e0e0e0" stroke="#999999" points="546.5,-184 499.5,-184 499.5,-165 546.5,-165 546.5,-184"/>
<text text-anchor="middle" x="523" y="-172" font-family="Helvetica,sans-Serif" font-size="10.00">vector</text>
</a>
</g>
</g>
<!-- Node7&#45;&gt;Node9 -->
<g id="edge8_Node000007_Node000009" class="edge">
<title>Node7&#45;&gt;Node9</title>
<g id="a_edge8_Node000007_Node000009"><a xlink:title=" ">
<path fill="none" stroke="#63b8ff" d="M523,-219.75C523,-212.8 523,-202.85 523,-194.13"/>
<polygon fill="#63b8ff" stroke="#63b8ff" points="526.5,-194.09 523,-184.09 519.5,-194.09 526.5,-194.09"/>
</a>
</g>
</g>
<!-- Node10 -->
<g id="Node000010" class="node">
<title>Node10</title>
<g id="a_Node000010"><a xlink:href="src_2util_2invariant_8h.html" target="_top" xlink:title=" ">
<polygon fill="white" stroke="#666666" points="232.5,-74 163.5,-74 163.5,-55 232.5,-55 232.5,-74"/>
<text text-anchor="middle" x="198" y="-62" font-family="Helvetica,sans-Serif" font-size="10.00">invariant.h</text>
</a>
</g>
</g>
<!-- Node7&#45;&gt;Node10 -->
<g id="edge9_Node000007_Node000010" class="edge">
<title>Node7&#45;&gt;Node10</title>
<g id="a_edge9_Node000007_Node000010"><a xlink:title=" ">
<path fill="none" stroke="#63b8ff" d="M500.98,-226.06C451.18,-220.23 331.58,-204.48 297,-184 254.86,-159.05 222.46,-109.37 207.34,-82.96"/>
<polygon fill="#63b8ff" stroke="#63b8ff" points="210.33,-81.12 202.42,-74.08 204.21,-84.52 210.33,-81.12"/>
</a>
</g>
</g>
<!-- Node14 -->
<g id="Node000014" class="node">
<title>Node14</title>
<g id="a_Node000014"><a xlink:href="irep__ids_8h.html" target="_top" xlink:title="util">
<polygon fill="white" stroke="#666666" points="672,-184 608,-184 608,-165 672,-165 672,-184"/>
<text text-anchor="middle" x="640" y="-172" font-family="Helvetica,sans-Serif" font-size="10.00">irep_ids.h</text>
</a>
</g>
</g>
<!-- Node7&#45;&gt;Node14 -->
<g id="edge14_Node000007_Node000014" class="edge">
<title>Node7&#45;&gt;Node14</title>
<g id="a_edge14_Node000007_Node000014"><a xlink:title=" ">
<path fill="none" stroke="#63b8ff" d="M541.8,-219.98C560.62,-211.46 589.82,-198.23 611.5,-188.41"/>
<polygon fill="#63b8ff" stroke="#63b8ff" points="613.2,-191.48 620.86,-184.17 610.31,-185.11 613.2,-191.48"/>
</a>
</g>
</g>
<!-- Node25 -->
<g id="Node000025" class="node">
<title>Node25</title>
<g id="a_Node000025"><a xlink:href="forward__list__as__map_8h.html" target="_top" xlink:title=" ">
<polygon fill="white" stroke="#666666" points="433.5,-184 306.5,-184 306.5,-165 433.5,-165 433.5,-184"/>
<text text-anchor="middle" x="370" y="-172" font-family="Helvetica,sans-Serif" font-size="10.00">forward_list_as_map.h</text>
</a>
</g>
</g>
<!-- Node7&#45;&gt;Node25 -->
<g id="edge18_Node000007_Node000025" class="edge">
<title>Node7&#45;&gt;Node25</title>
<g id="a_edge18_Node000007_Node000025"><a xlink:title=" ">
<path fill="none" stroke="#63b8ff" d="M500.75,-220.79C475.36,-212 433.54,-197.51 404.04,-187.29"/>
<polygon fill="#63b8ff" stroke="#63b8ff" points="405.15,-183.97 394.55,-184.01 402.86,-190.59 405.15,-183.97"/>
</a>
</g>
</g>
<!-- Node10&#45;&gt;Node8 -->
<g id="edge12_Node000010_Node000008" class="edge">
<title>Node10&#45;&gt;Node8</title>
<g id="a_edge12_Node000010_Node000008"><a xlink:title=" ">
<path fill="none" stroke="#63b8ff" d="M232.64,-57.21C289.7,-46.86 402.61,-26.36 457.93,-16.32"/>
<polygon fill="#63b8ff" stroke="#63b8ff" points="458.66,-19.75 467.88,-14.52 457.41,-12.86 458.66,-19.75"/>
</a>
</g>
</g>
<!-- Node11 -->
<g id="Node000011" class="node">
<title>Node11</title>
<g id="a_Node000011"><a xlink:title=" ">
<polygon fill="#e0e0e0" stroke="#999999" points="222.5,-19 173.5,-19 173.5,0 222.5,0 222.5,-19"/>
<text text-anchor="middle" x="198" y="-7" font-family="Helvetica,sans-Serif" font-size="10.00">cstdlib</text>
</a>
</g>
</g>
<!-- Node10&#45;&gt;Node11 -->
<g id="edge10_Node000010_Node000011" class="edge">
<title>Node10&#45;&gt;Node11</title>
<g id="a_edge10_Node000010_Node000011"><a xlink:title=" ">
<path fill="none" stroke="#63b8ff" d="M198,-54.75C198,-47.8 198,-37.85 198,-29.13"/>
<polygon fill="#63b8ff" stroke="#63b8ff" points="201.5,-29.09 198,-19.09 194.5,-29.09 201.5,-29.09"/>
</a>
</g>
</g>
<!-- Node12 -->
<g id="Node000012" class="node">
<title>Node12</title>
<g id="a_Node000012"><a xlink:title=" ">
<polygon fill="#e0e0e0" stroke="#999999" points="297,-19 241,-19 241,0 297,0 297,-19"/>
<text text-anchor="middle" x="269" y="-7" font-family="Helvetica,sans-Serif" font-size="10.00">sstream</text>
</a>
</g>
</g>
<!-- Node10&#45;&gt;Node12 -->
<g id="edge11_Node000010_Node000012" class="edge">
<title>Node10&#45;&gt;Node12</title>
<g id="a_edge11_Node000010_Node000012"><a xlink:title=" ">
<path fill="none" stroke="#63b8ff" d="M209.41,-54.98C220.11,-47 236.34,-34.88 249.16,-25.31"/>
<polygon fill="#63b8ff" stroke="#63b8ff" points="251.47,-27.96 257.39,-19.17 247.28,-22.35 251.47,-27.96"/>
</a>
</g>
</g>
<!-- Node13 -->
<g id="Node000013" class="node">
<title>Node13</title>
<g id="a_Node000013"><a xlink:title=" ">
<polygon fill="#e0e0e0" stroke="#999999" points="155.5,-19 86.5,-19 86.5,0 155.5,0 155.5,-19"/>
<text text-anchor="middle" x="121" y="-7" font-family="Helvetica,sans-Serif" font-size="10.00">type_traits</text>
</a>
</g>
</g>
<!-- Node10&#45;&gt;Node13 -->
<g id="edge13_Node000010_Node000013" class="edge">
<title>Node10&#45;&gt;Node13</title>
<g id="a_edge13_Node000010_Node000013"><a xlink:title=" ">
<path fill="none" stroke="#63b8ff" d="M185.63,-54.98C173.91,-46.92 156.08,-34.65 142.11,-25.03"/>
<polygon fill="#63b8ff" stroke="#63b8ff" points="143.82,-21.96 133.6,-19.17 139.85,-27.72 143.82,-21.96"/>
</a>
</g>
</g>
<!-- Node15 -->
<g id="Node000015" class="node">
<title>Node15</title>
<g id="a_Node000015"><a xlink:href="dstring_8h.html" target="_top" xlink:title="Container for C&#45;Strings.">
<polygon fill="#fff0f0" stroke="red" points="698.5,-74 639.5,-74 639.5,-55 698.5,-55 698.5,-74"/>
<text text-anchor="middle" x="669" y="-62" font-family="Helvetica,sans-Serif" font-size="10.00">dstring.h</text>
</a>
</g>
</g>
<!-- Node14&#45;&gt;Node15 -->
<g id="edge15_Node000014_Node000015" class="edge">
<title>Node14&#45;&gt;Node15</title>
<g id="a_edge15_Node000014_Node000015"><a xlink:title=" ">
<path fill="none" stroke="#63b8ff" d="M653.78,-164.82C664.82,-156.99 679.49,-144.35 686,-129 692.32,-114.1 686.42,-96.21 679.9,-83.23"/>
<polygon fill="#63b8ff" stroke="#63b8ff" points="682.9,-81.43 674.98,-74.38 676.78,-84.83 682.9,-81.43"/>
</a>
</g>
</g>
<!-- Node24 -->
<g id="Node000024" class="node">
<title>Node24</title>
<g id="a_Node000024"><a xlink:title=" ">
<polygon fill="#e0e0e0" stroke="#999999" points="677,-129 603,-129 603,-110 677,-110 677,-129"/>
<text text-anchor="middle" x="640" y="-117" font-family="Helvetica,sans-Serif" font-size="10.00">irep_ids.def</text>
</a>
</g>
</g>
<!-- Node14&#45;&gt;Node24 -->
<g id="edge17_Node000014_Node000024" class="edge">
<title>Node14&#45;&gt;Node24</title>
<g id="a_edge17_Node000014_Node000024"><a xlink:title=" ">
<path fill="none" stroke="#63b8ff" d="M640,-164.75C640,-157.8 640,-147.85 640,-139.13"/>
<polygon fill="#63b8ff" stroke="#63b8ff" points="643.5,-139.09 640,-129.09 636.5,-139.09 643.5,-139.09"/>
</a>
</g>
</g>
<!-- Node15&#45;&gt;Node8 -->
<g id="edge16_Node000015_Node000008" class="edge">
<title>Node15&#45;&gt;Node8</title>
<g id="a_edge16_Node000015_Node000008"><a xlink:title=" ">
<path fill="none" stroke="#63b8ff" d="M640.24,-54.98C607.91,-45.41 555.55,-29.91 521.96,-19.96"/>
<polygon fill="#63b8ff" stroke="#63b8ff" points="522.77,-16.55 512.19,-17.07 520.78,-23.26 522.77,-16.55"/>
</a>
</g>
</g>
<!-- Node25&#45;&gt;Node3 -->
<g id="edge21_Node000025_Node000003" class="edge">
<title>Node25&#45;&gt;Node3</title>
<g id="a_edge21_Node000025_Node000003"><a xlink:title=" ">
<path fill="none" stroke="#63b8ff" d="M326.48,-164.99C282.92,-156.47 213.7,-142.91 144.48,-129.29"/>
<polygon fill="#63b8ff" stroke="#63b8ff" points="144.75,-125.78 134.27,-127.28 143.4,-132.64 144.75,-125.78"/>
</a>
</g>
</g>
<!-- Node26 -->
<g id="Node000026" class="node">
<title>Node26</title>
<g id="a_Node000026"><a xlink:title=" ">
<polygon fill="#e0e0e0" stroke="#999999" points="462,-129 398,-129 398,-110 462,-110 462,-129"/>
<text text-anchor="middle" x="430" y="-117" font-family="Helvetica,sans-Serif" font-size="10.00">algorithm</text>
</a>
</g>
</g>
<!-- Node25&#45;&gt;Node26 -->
<g id="edge19_Node000025_Node000026" class="edge">
<title>Node25&#45;&gt;Node26</title>
<g id="a_edge19_Node000025_Node000026"><a xlink:title=" ">
<path fill="none" stroke="#63b8ff" d="M379.64,-164.98C388.51,-157.15 401.87,-145.34 412.61,-135.86"/>
<polygon fill="#63b8ff" stroke="#63b8ff" points="415.01,-138.41 420.18,-129.17 410.37,-133.17 415.01,-138.41"/>
</a>
</g>
</g>
<!-- Node27 -->
<g id="Node000027" class="node">
<title>Node27</title>
<g id="a_Node000027"><a xlink:title=" ">
<polygon fill="#e0e0e0" stroke="#999999" points="380,-129 306,-129 306,-110 380,-110 380,-129"/>
<text text-anchor="middle" x="343" y="-117" font-family="Helvetica,sans-Serif" font-size="10.00">forward_list</text>
</a>
</g>
</g>
<!-- Node25&#45;&gt;Node27 -->
<g id="edge20_Node000025_Node000027" class="edge">
<title>Node25&#45;&gt;Node27</title>
<g id="a_edge20_Node000025_Node000027"><a xlink:title=" ">
<path fill="none" stroke="#63b8ff" d="M365.54,-164.75C361.88,-157.57 356.59,-147.18 352.05,-138.27"/>
<polygon fill="#63b8ff" stroke="#63b8ff" points="355.03,-136.41 347.38,-129.09 348.8,-139.59 355.03,-136.41"/>
</a>
</g>
</g>
<!-- Node28 -->
<g id="Node000028" class="node">
<title>Node28</title>
<g id="a_Node000028"><a xlink:href="narrow_8h.html" target="_top" xlink:title=" ">
<polygon fill="white" stroke="#666666" points="211.5,-129 152.5,-129 152.5,-110 211.5,-110 211.5,-129"/>
<text text-anchor="middle" x="182" y="-117" font-family="Helvetica,sans-Serif" font-size="10.00">narrow.h</text>
</a>
</g>
</g>
<!-- Node25&#45;&gt;Node28 -->
<g id="edge22_Node000025_Node000028" class="edge">
<title>Node25&#45;&gt;Node28</title>
<g id="a_edge22_Node000025_Node000028"><a xlink:title=" ">
<path fill="none" stroke="#63b8ff" d="M339.79,-164.98C307.67,-155.93 256.74,-141.57 221.47,-131.63"/>
<polygon fill="#63b8ff" stroke="#63b8ff" points="222.09,-128.16 211.51,-128.82 220.19,-134.9 222.09,-128.16"/>
</a>
</g>
</g>
<!-- Node28&#45;&gt;Node10 -->
<g id="edge24_Node000028_Node000010" class="edge">
<title>Node28&#45;&gt;Node10</title>
<g id="a_edge24_Node000028_Node000010"><a xlink:title=" ">
<path fill="none" stroke="#63b8ff" d="M184.64,-109.75C186.76,-102.72 189.81,-92.62 192.46,-83.84"/>
<polygon fill="#63b8ff" stroke="#63b8ff" points="195.87,-84.67 195.41,-74.09 189.17,-82.65 195.87,-84.67"/>
</a>
</g>
</g>
<!-- Node28&#45;&gt;Node13 -->
<g id="edge23_Node000028_Node000013" class="edge">
<title>Node28&#45;&gt;Node13</title>
<g id="a_edge23_Node000028_Node000013"><a xlink:title=" ">
<path fill="none" stroke="#63b8ff" d="M176.2,-109.77C170.38,-100.89 161.26,-86.67 154,-74 145.32,-58.86 136.23,-41.22 129.8,-28.38"/>
<polygon fill="#63b8ff" stroke="#63b8ff" points="132.84,-26.65 125.26,-19.25 126.58,-29.76 132.84,-26.65"/>
</a>
</g>
</g>
<!-- Node30&#45;&gt;Node13 -->
<g id="edge28_Node000030_Node000013" class="edge">
<title>Node30&#45;&gt;Node13</title>
<g id="a_edge28_Node000030_Node000013"><a xlink:title=" ">
<path fill="none" stroke="#63b8ff" d="M116.3,-385.48C72.44,-372.54 0,-342.53 0,-285.5 0,-285.5 0,-285.5 0,-118.5 0,-71.14 52.23,-39.4 88.06,-23.19"/>
<polygon fill="#63b8ff" stroke="#63b8ff" points="89.88,-26.21 97.67,-19.03 87.1,-19.79 89.88,-26.21"/>
</a>
</g>
</g>
<!-- Node31 -->
<g id="Node000031" class="node">
<title>Node31</title>
<g id="a_Node000031"><a xlink:href="exception__utils_8h.html" target="_top" xlink:title=" ">
<polygon fill="white" stroke="#666666" points="199,-349 99,-349 99,-330 199,-330 199,-349"/>
<text text-anchor="middle" x="149" y="-337" font-family="Helvetica,sans-Serif" font-size="10.00">exception_utils.h</text>
</a>
</g>
</g>
<!-- Node30&#45;&gt;Node31 -->
<g id="edge29_Node000030_Node000031" class="edge">
<title>Node30&#45;&gt;Node31</title>
<g id="a_edge29_Node000030_Node000031"><a xlink:title=" ">
<path fill="none" stroke="#63b8ff" d="M149,-384.75C149,-377.8 149,-367.85 149,-359.13"/>
<polygon fill="#63b8ff" stroke="#63b8ff" points="152.5,-359.09 149,-349.09 145.5,-359.09 152.5,-359.09"/>
</a>
</g>
</g>
<!-- Node30&#45;&gt;Node32 -->
<g id="edge33_Node000030_Node000032" class="edge">
<title>Node30&#45;&gt;Node32</title>
<g id="a_edge33_Node000030_Node000032"><a xlink:title=" ">
<path fill="none" stroke="#63b8ff" d="M168.6,-384.98C188.32,-376.42 218.95,-363.11 241.58,-353.28"/>
<polygon fill="#63b8ff" stroke="#63b8ff" points="243.26,-356.37 251.04,-349.17 240.48,-349.94 243.26,-356.37"/>
</a>
</g>
</g>
<!-- Node31&#45;&gt;Node5 -->
<g id="edge32_Node000031_Node000005" class="edge">
<title>Node31&#45;&gt;Node5</title>
<g id="a_edge32_Node000031_Node000005"><a xlink:title=" ">
<path fill="none" stroke="#63b8ff" d="M196.24,-329.98C247.73,-320.7 330.16,-305.84 385.41,-295.88"/>
<polygon fill="#63b8ff" stroke="#63b8ff" points="386.17,-299.3 395.39,-294.08 384.93,-292.41 386.17,-299.3"/>
</a>
</g>
</g>
<!-- Node31&#45;&gt;Node8 -->
<g id="edge30_Node000031_Node000008" class="edge">
<title>Node31&#45;&gt;Node8</title>
<g id="a_edge30_Node000031_Node000008"><a xlink:title=" ">
<path fill="none" stroke="#63b8ff" d="M175.11,-329.97C212.8,-315.82 278,-283.66 278,-230.5 278,-230.5 278,-230.5 278,-118.5 278,-38.81 398.39,-17.9 457.73,-12.43"/>
<polygon fill="#63b8ff" stroke="#63b8ff" points="458.04,-15.91 467.71,-11.6 457.46,-8.94 458.04,-15.91"/>
</a>
</g>
</g>
<!-- Node31&#45;&gt;Node10 -->
<g id="edge31_Node000031_Node000010" class="edge">
<title>Node31&#45;&gt;Node10</title>
<g id="a_edge31_Node000031_Node000010"><a xlink:title=" ">
<path fill="none" stroke="#63b8ff" d="M139.88,-329.86C107.35,-298.02 1.88,-185.19 57,-110 78.84,-80.2 120.69,-69.85 153.15,-66.49"/>
<polygon fill="#63b8ff" stroke="#63b8ff" points="153.65,-69.96 163.32,-65.63 153.06,-62.98 153.65,-69.96"/>
</a>
</g>
</g>
<!-- Node36&#45;&gt;Node6 -->
<g id="edge41_Node000036_Node000006" class="edge">
<title>Node36&#45;&gt;Node6</title>
<g id="a_edge41_Node000036_Node000006"><a xlink:title=" ">
<path fill="none" stroke="#63b8ff" d="M562.48,-494.9C581.78,-478.02 621,-438.44 621,-395.5 621,-395.5 621,-395.5 621,-338.5 621,-307.17 619.3,-270.76 618.11,-249.23"/>
<polygon fill="#63b8ff" stroke="#63b8ff" points="621.6,-248.96 617.54,-239.18 614.62,-249.36 621.6,-248.96"/>
</a>
</g>
</g>
<!-- Node36&#45;&gt;Node7 -->
<g id="edge42_Node000036_Node000007" class="edge">
<title>Node36&#45;&gt;Node7</title>
<g id="a_edge42_Node000036_Node000007"><a xlink:title=" ">
<path fill="none" stroke="#63b8ff" d="M556.31,-494.78C564.83,-476.73 583,-433.73 583,-395.5 583,-395.5 583,-395.5 583,-338.5 583,-302.09 556.62,-266.48 538.84,-246.62"/>
<polygon fill="#63b8ff" stroke="#63b8ff" points="541.23,-244.05 531.85,-239.11 536.11,-248.82 541.23,-244.05"/>
</a>
</g>
</g>
<!-- Node36&#45;&gt;Node35 -->
<g id="edge43_Node000036_Node000035" class="edge">
<title>Node36&#45;&gt;Node35</title>
<g id="a_edge43_Node000036_Node000035"><a xlink:title=" ">
<path fill="none" stroke="#63b8ff" d="M547.05,-494.75C542.94,-487.49 536.97,-476.95 531.9,-467.98"/>
<polygon fill="#63b8ff" stroke="#63b8ff" points="534.83,-466.07 526.86,-459.09 528.74,-469.52 534.83,-466.07"/>
</a>
</g>
</g>
</g>
</svg>
