<?xml version="1.0" encoding="UTF-8" standalone="no"?>
<!DOCTYPE svg PUBLIC "-//W3C//DTD SVG 1.1//EN"
 "http://www.w3.org/Graphics/SVG/1.1/DTD/svg11.dtd">
<!-- Generated by graphviz version 2.43.0 (0)
 -->
<!-- Title: /home/runner/work/cbmc/cbmc/src/util/ieee_float.cpp Pages: 1 -->
<svg width="857pt" height="478pt"
 viewBox="0.00 0.00 856.97 478.00" xmlns="http://www.w3.org/2000/svg" xmlns:xlink="http://www.w3.org/1999/xlink">
<g id="graph0" class="graph" transform="scale(1 1) rotate(0) translate(4 474)">
<title>/home/runner/work/cbmc/cbmc/src/util/ieee_float.cpp</title>
<!-- Node1 -->
<g id="Node000001" class="node">
<title>Node1</title>
<g id="a_Node000001"><a xlink:title=" ">
<polygon fill="#999999" stroke="#666666" points="485.5,-470 332.5,-470 332.5,-440 485.5,-440 485.5,-470"/>
<text text-anchor="start" x="340.5" y="-458" font-family="Helvetica,sans-Serif" font-size="10.00">/home/runner/work/cbmc</text>
<text text-anchor="middle" x="409" y="-447" font-family="Helvetica,sans-Serif" font-size="10.00">/cbmc/src/util/ieee_float.cpp</text>
</a>
</g>
</g>
<!-- Node2 -->
<g id="Node000002" class="node">
<title>Node2</title>
<g id="a_Node000002"><a xlink:href="ieee__float_8h.html" target="_top" xlink:title=" ">
<polygon fill="white" stroke="#666666" points="182,-294 108,-294 108,-275 182,-275 182,-294"/>
<text text-anchor="middle" x="145" y="-282" font-family="Helvetica,sans-Serif" font-size="10.00">ieee_float.h</text>
</a>
</g>
</g>
<!-- Node1&#45;&gt;Node2 -->
<g id="edge1_Node000001_Node000002" class="edge">
<title>Node1&#45;&gt;Node2</title>
<g id="a_edge1_Node000001_Node000002"><a xlink:title=" ">
<path fill="none" stroke="#63b8ff" d="M332.14,-445.29C297.26,-438.4 256.98,-426.07 226,-404 189.43,-377.95 164.21,-329.87 152.48,-303.67"/>
<polygon fill="#63b8ff" stroke="#63b8ff" points="155.58,-302.01 148.41,-294.21 149.15,-304.78 155.58,-302.01"/>
</a>
</g>
</g>
<!-- Node8 -->
<g id="Node000008" class="node">
<title>Node8</title>
<g id="a_Node000008"><a xlink:href="arith__tools_8h.html" target="_top" xlink:title=" ">
<polygon fill="white" stroke="#666666" points="345.5,-404 268.5,-404 268.5,-385 345.5,-385 345.5,-404"/>
<text text-anchor="middle" x="307" y="-392" font-family="Helvetica,sans-Serif" font-size="10.00">arith_tools.h</text>
</a>
</g>
</g>
<!-- Node1&#45;&gt;Node8 -->
<g id="edge8_Node000001_Node000008" class="edge">
<title>Node1&#45;&gt;Node8</title>
<g id="a_edge8_Node000001_Node000008"><a xlink:title=" ">
<path fill="none" stroke="#63b8ff" d="M384.57,-439.99C368.31,-430.66 347.05,-418.47 330.9,-409.21"/>
<polygon fill="#63b8ff" stroke="#63b8ff" points="332.48,-406.08 322.06,-404.14 329,-412.15 332.48,-406.08"/>
</a>
</g>
</g>
<!-- Node9 -->
<g id="Node000009" class="node">
<title>Node9</title>
<g id="a_Node000009"><a xlink:href="src_2util_2invariant_8h.html" target="_top" xlink:title=" ">
<polygon fill="white" stroke="#666666" points="358.5,-184 289.5,-184 289.5,-165 358.5,-165 358.5,-184"/>
<text text-anchor="middle" x="324" y="-172" font-family="Helvetica,sans-Serif" font-size="10.00">invariant.h</text>
</a>
</g>
</g>
<!-- Node1&#45;&gt;Node9 -->
<g id="edge48_Node000001_Node000009" class="edge">
<title>Node1&#45;&gt;Node9</title>
<g id="a_edge48_Node000001_Node000009"><a xlink:title=" ">
<path fill="none" stroke="#63b8ff" d="M332.12,-442.73C306.3,-435.48 279.21,-423.57 260,-404 239.27,-382.88 240,-370.09 240,-340.5 240,-340.5 240,-340.5 240,-283.5 240,-242.92 277.42,-208.4 302.3,-189.93"/>
<polygon fill="#63b8ff" stroke="#63b8ff" points="304.4,-192.73 310.5,-184.08 300.33,-187.03 304.4,-192.73"/>
</a>
</g>
</g>
<!-- Node13 -->
<g id="Node000013" class="node">
<title>Node13</title>
<g id="a_Node000013"><a xlink:href="std__expr_8h.html" target="_top" xlink:title="API to expression classes.">
<polygon fill="white" stroke="#666666" points="416.5,-349 349.5,-349 349.5,-330 416.5,-330 416.5,-349"/>
<text text-anchor="middle" x="383" y="-337" font-family="Helvetica,sans-Serif" font-size="10.00">std_expr.h</text>
</a>
</g>
</g>
<!-- Node1&#45;&gt;Node13 -->
<g id="edge49_Node000001_Node000013" class="edge">
<title>Node1&#45;&gt;Node13</title>
<g id="a_edge49_Node000001_Node000013"><a xlink:title=" ">
<path fill="none" stroke="#63b8ff" d="M403.79,-439.72C400.33,-429.81 395.9,-416.24 393,-404 389.49,-389.2 386.88,-372.16 385.21,-359.46"/>
<polygon fill="#63b8ff" stroke="#63b8ff" points="388.64,-358.7 383.94,-349.21 381.7,-359.56 388.64,-358.7"/>
</a>
</g>
</g>
<!-- Node45 -->
<g id="Node000045" class="node">
<title>Node45</title>
<g id="a_Node000045"><a xlink:title=" ">
<polygon fill="#e0e0e0" stroke="#999999" points="482,-349 438,-349 438,-330 482,-330 482,-349"/>
<text text-anchor="middle" x="460" y="-337" font-family="Helvetica,sans-Serif" font-size="10.00">limits</text>
</a>
</g>
</g>
<!-- Node1&#45;&gt;Node45 -->
<g id="edge51_Node000001_Node000045" class="edge">
<title>Node1&#45;&gt;Node45</title>
<g id="a_edge51_Node000001_Node000045"><a xlink:title=" ">
<path fill="none" stroke="#63b8ff" d="M453.2,-439.85C469.98,-432.08 487.37,-420.55 497,-404 506.55,-387.59 492.5,-368.8 479.05,-355.95"/>
<polygon fill="#63b8ff" stroke="#63b8ff" points="481.19,-353.16 471.39,-349.13 476.53,-358.39 481.19,-353.16"/>
</a>
</g>
</g>
<!-- Node46 -->
<g id="Node000046" class="node">
<title>Node46</title>
<g id="a_Node000046"><a xlink:href="bitvector__types_8h.html" target="_top" xlink:title="Pre&#45;defined bitvector types.">
<polygon fill="white" stroke="#666666" points="602.5,-349 501.5,-349 501.5,-330 602.5,-330 602.5,-349"/>
<text text-anchor="middle" x="552" y="-337" font-family="Helvetica,sans-Serif" font-size="10.00">bitvector_types.h</text>
</a>
</g>
</g>
<!-- Node1&#45;&gt;Node46 -->
<g id="edge44_Node000001_Node000046" class="edge">
<title>Node1&#45;&gt;Node46</title>
<g id="a_edge44_Node000001_Node000046"><a xlink:title=" ">
<path fill="none" stroke="#63b8ff" d="M450.78,-439.93C470.88,-431.69 494.38,-419.78 512,-404 526.08,-391.39 537.04,-372.69 543.9,-358.84"/>
<polygon fill="#63b8ff" stroke="#63b8ff" points="547.26,-359.93 548.33,-349.38 540.92,-356.96 547.26,-359.93"/>
</a>
</g>
</g>
<!-- Node47 -->
<g id="Node000047" class="node">
<title>Node47</title>
<g id="a_Node000047"><a xlink:href="floatbv__expr_8h.html" target="_top" xlink:title="API to expression classes for floating&#45;point arithmetic.">
<polygon fill="white" stroke="#666666" points="488,-404 402,-404 402,-385 488,-385 488,-404"/>
<text text-anchor="middle" x="445" y="-392" font-family="Helvetica,sans-Serif" font-size="10.00">floatbv_expr.h</text>
</a>
</g>
</g>
<!-- Node1&#45;&gt;Node47 -->
<g id="edge46_Node000001_Node000047" class="edge">
<title>Node1&#45;&gt;Node47</title>
<g id="a_edge46_Node000001_Node000047"><a xlink:title=" ">
<path fill="none" stroke="#63b8ff" d="M417.71,-439.84C422.67,-431.78 428.93,-421.62 434.2,-413.06"/>
<polygon fill="#63b8ff" stroke="#63b8ff" points="437.35,-414.62 439.61,-404.27 431.38,-410.95 437.35,-414.62"/>
</a>
</g>
</g>
<!-- Node48 -->
<g id="Node000048" class="node">
<title>Node48</title>
<g id="a_Node000048"><a xlink:title=" ">
<polygon fill="#e0e0e0" stroke="#999999" points="632,-404 582,-404 582,-385 632,-385 632,-404"/>
<text text-anchor="middle" x="607" y="-392" font-family="Helvetica,sans-Serif" font-size="10.00">cstdint</text>
</a>
</g>
</g>
<!-- Node1&#45;&gt;Node48 -->
<g id="edge50_Node000001_Node000048" class="edge">
<title>Node1&#45;&gt;Node48</title>
<g id="a_edge50_Node000001_Node000048"><a xlink:title=" ">
<path fill="none" stroke="#63b8ff" d="M456.43,-439.99C492.04,-429.46 540.01,-415.29 572.15,-405.8"/>
<polygon fill="#63b8ff" stroke="#63b8ff" points="573.39,-409.08 581.99,-402.89 571.41,-402.37 573.39,-409.08"/>
</a>
</g>
</g>
<!-- Node3 -->
<g id="Node000003" class="node">
<title>Node3</title>
<g id="a_Node000003"><a xlink:title=" ">
<polygon fill="#e0e0e0" stroke="#999999" points="116,-184 68,-184 68,-165 116,-165 116,-184"/>
<text text-anchor="middle" x="92" y="-172" font-family="Helvetica,sans-Serif" font-size="10.00">iosfwd</text>
</a>
</g>
</g>
<!-- Node2&#45;&gt;Node3 -->
<g id="edge2_Node000002_Node000003" class="edge">
<title>Node2&#45;&gt;Node3</title>
<g id="a_edge2_Node000002_Node000003"><a xlink:title=" ">
<path fill="none" stroke="#63b8ff" d="M140.66,-274.66C131.96,-256.93 112.23,-216.73 100.74,-193.32"/>
<polygon fill="#63b8ff" stroke="#63b8ff" points="103.8,-191.59 96.25,-184.16 97.51,-194.68 103.8,-191.59"/>
</a>
</g>
</g>
<!-- Node4 -->
<g id="Node000004" class="node">
<title>Node4</title>
<g id="a_Node000004"><a xlink:href="mp__arith_8h.html" target="_top" xlink:title=" ">
<polygon fill="white" stroke="#666666" points="211.5,-239 142.5,-239 142.5,-220 211.5,-220 211.5,-239"/>
<text text-anchor="middle" x="177" y="-227" font-family="Helvetica,sans-Serif" font-size="10.00">mp_arith.h</text>
</a>
</g>
</g>
<!-- Node2&#45;&gt;Node4 -->
<g id="edge3_Node000002_Node000004" class="edge">
<title>Node2&#45;&gt;Node4</title>
<g id="a_edge3_Node000002_Node000004"><a xlink:title=" ">
<path fill="none" stroke="#63b8ff" d="M150.28,-274.75C154.71,-267.42 161.16,-256.73 166.62,-247.7"/>
<polygon fill="#63b8ff" stroke="#63b8ff" points="169.64,-249.46 171.81,-239.09 163.65,-245.84 169.64,-249.46"/>
</a>
</g>
</g>
<!-- Node7 -->
<g id="Node000007" class="node">
<title>Node7</title>
<g id="a_Node000007"><a xlink:href="format__spec_8h.html" target="_top" xlink:title=" ">
<polygon fill="white" stroke="#666666" points="86,-239 0,-239 0,-220 86,-220 86,-239"/>
<text text-anchor="middle" x="43" y="-227" font-family="Helvetica,sans-Serif" font-size="10.00">format_spec.h</text>
</a>
</g>
</g>
<!-- Node2&#45;&gt;Node7 -->
<g id="edge7_Node000002_Node000007" class="edge">
<title>Node2&#45;&gt;Node7</title>
<g id="a_edge7_Node000002_Node000007"><a xlink:title=" ">
<path fill="none" stroke="#63b8ff" d="M128.61,-274.98C112.43,-266.57 87.43,-253.59 68.62,-243.81"/>
<polygon fill="#63b8ff" stroke="#63b8ff" points="70.17,-240.68 59.69,-239.17 66.95,-246.89 70.17,-240.68"/>
</a>
</g>
</g>
<!-- Node4&#45;&gt;Node3 -->
<g id="edge4_Node000004_Node000003" class="edge">
<title>Node4&#45;&gt;Node3</title>
<g id="a_edge4_Node000004_Node000003"><a xlink:title=" ">
<path fill="none" stroke="#63b8ff" d="M163.34,-219.98C150.16,-211.77 129.97,-199.18 114.43,-189.49"/>
<polygon fill="#63b8ff" stroke="#63b8ff" points="116.24,-186.49 105.91,-184.17 112.54,-192.43 116.24,-186.49"/>
</a>
</g>
</g>
<!-- Node5 -->
<g id="Node000005" class="node">
<title>Node5</title>
<g id="a_Node000005"><a xlink:title=" ">
<polygon fill="#e0e0e0" stroke="#999999" points="346,-19 302,-19 302,0 346,0 346,-19"/>
<text text-anchor="middle" x="324" y="-7" font-family="Helvetica,sans-Serif" font-size="10.00">string</text>
</a>
</g>
</g>
<!-- Node4&#45;&gt;Node5 -->
<g id="edge5_Node000004_Node000005" class="edge">
<title>Node4&#45;&gt;Node5</title>
<g id="a_edge5_Node000004_Node000005"><a xlink:title=" ">
<path fill="none" stroke="#63b8ff" d="M172.67,-219.79C163.12,-199.2 142.62,-146.55 163,-110 190.47,-60.73 253.49,-32.8 292.03,-19.74"/>
<polygon fill="#63b8ff" stroke="#63b8ff" points="293.31,-23.01 301.74,-16.59 291.15,-16.35 293.31,-23.01"/>
</a>
</g>
</g>
<!-- Node6 -->
<g id="Node000006" class="node">
<title>Node6</title>
<g id="a_Node000006"><a xlink:title=" ">
<polygon fill="#e0e0e0" stroke="#999999" points="266,-184 172,-184 172,-165 266,-165 266,-184"/>
<text text-anchor="middle" x="219" y="-172" font-family="Helvetica,sans-Serif" font-size="10.00">big&#45;int/bigint.hh</text>
</a>
</g>
</g>
<!-- Node4&#45;&gt;Node6 -->
<g id="edge6_Node000004_Node000006" class="edge">
<title>Node4&#45;&gt;Node6</title>
<g id="a_edge6_Node000004_Node000006"><a xlink:title=" ">
<path fill="none" stroke="#63b8ff" d="M183.94,-219.75C189.87,-212.26 198.57,-201.28 205.82,-192.13"/>
<polygon fill="#63b8ff" stroke="#63b8ff" points="208.73,-194.1 212.19,-184.09 203.24,-189.75 208.73,-194.1"/>
</a>
</g>
</g>
<!-- Node8&#45;&gt;Node4 -->
<g id="edge14_Node000008_Node000004" class="edge">
<title>Node8&#45;&gt;Node4</title>
<g id="a_edge14_Node000008_Node000004"><a xlink:title=" ">
<path fill="none" stroke="#63b8ff" d="M300.01,-384.74C279.29,-358.76 217.94,-281.83 190.51,-247.44"/>
<polygon fill="#63b8ff" stroke="#63b8ff" points="193,-244.94 184.02,-239.31 187.52,-249.31 193,-244.94"/>
</a>
</g>
</g>
<!-- Node8&#45;&gt;Node9 -->
<g id="edge9_Node000008_Node000009" class="edge">
<title>Node8&#45;&gt;Node9</title>
<g id="a_edge9_Node000008_Node000009"><a xlink:title=" ">
<path fill="none" stroke="#63b8ff" d="M307.67,-384.95C310.16,-352.95 319,-239.68 322.53,-194.4"/>
<polygon fill="#63b8ff" stroke="#63b8ff" points="326.03,-194.47 323.32,-184.22 319.05,-193.92 326.03,-194.47"/>
</a>
</g>
</g>
<!-- Node8&#45;&gt;Node13 -->
<g id="edge15_Node000008_Node000013" class="edge">
<title>Node8&#45;&gt;Node13</title>
<g id="a_edge15_Node000008_Node000013"><a xlink:title=" ">
<path fill="none" stroke="#63b8ff" d="M319.21,-384.98C330.78,-376.92 348.38,-364.65 362.16,-355.03"/>
<polygon fill="#63b8ff" stroke="#63b8ff" points="364.37,-357.76 370.57,-349.17 360.36,-352.02 364.37,-357.76"/>
</a>
</g>
</g>
<!-- Node8&#45;&gt;Node45 -->
<g id="edge43_Node000008_Node000045" class="edge">
<title>Node8&#45;&gt;Node45</title>
<g id="a_edge43_Node000008_Node000045"><a xlink:title=" ">
<path fill="none" stroke="#63b8ff" d="M331.58,-384.98C357.88,-375.88 399.67,-361.4 428.39,-351.45"/>
<polygon fill="#63b8ff" stroke="#63b8ff" points="429.66,-354.71 437.96,-348.13 427.37,-348.1 429.66,-354.71"/>
</a>
</g>
</g>
<!-- Node9&#45;&gt;Node5 -->
<g id="edge12_Node000009_Node000005" class="edge">
<title>Node9&#45;&gt;Node5</title>
<g id="a_edge12_Node000009_Node000005"><a xlink:title=" ">
<path fill="none" stroke="#63b8ff" d="M324,-164.74C324,-139.31 324,-65.08 324,-29.69"/>
<polygon fill="#63b8ff" stroke="#63b8ff" points="327.5,-29.31 324,-19.31 320.5,-29.31 327.5,-29.31"/>
</a>
</g>
</g>
<!-- Node10 -->
<g id="Node000010" class="node">
<title>Node10</title>
<g id="a_Node000010"><a xlink:title=" ">
<polygon fill="#e0e0e0" stroke="#999999" points="221.5,-129 172.5,-129 172.5,-110 221.5,-110 221.5,-129"/>
<text text-anchor="middle" x="197" y="-117" font-family="Helvetica,sans-Serif" font-size="10.00">cstdlib</text>
</a>
</g>
</g>
<!-- Node9&#45;&gt;Node10 -->
<g id="edge10_Node000009_Node000010" class="edge">
<title>Node9&#45;&gt;Node10</title>
<g id="a_edge10_Node000009_Node000010"><a xlink:title=" ">
<path fill="none" stroke="#63b8ff" d="M303.6,-164.98C282.98,-156.38 250.89,-142.99 227.31,-133.15"/>
<polygon fill="#63b8ff" stroke="#63b8ff" points="228.35,-129.79 217.78,-129.17 225.66,-136.25 228.35,-129.79"/>
</a>
</g>
</g>
<!-- Node11 -->
<g id="Node000011" class="node">
<title>Node11</title>
<g id="a_Node000011"><a xlink:title=" ">
<polygon fill="#e0e0e0" stroke="#999999" points="296,-129 240,-129 240,-110 296,-110 296,-129"/>
<text text-anchor="middle" x="268" y="-117" font-family="Helvetica,sans-Serif" font-size="10.00">sstream</text>
</a>
</g>
</g>
<!-- Node9&#45;&gt;Node11 -->
<g id="edge11_Node000009_Node000011" class="edge">
<title>Node9&#45;&gt;Node11</title>
<g id="a_edge11_Node000009_Node000011"><a xlink:title=" ">
<path fill="none" stroke="#63b8ff" d="M315,-164.98C306.81,-157.23 294.49,-145.58 284.53,-136.14"/>
<polygon fill="#63b8ff" stroke="#63b8ff" points="286.83,-133.5 277.16,-129.17 282.02,-138.59 286.83,-133.5"/>
</a>
</g>
</g>
<!-- Node12 -->
<g id="Node000012" class="node">
<title>Node12</title>
<g id="a_Node000012"><a xlink:title=" ">
<polygon fill="#e0e0e0" stroke="#999999" points="434.5,-19 365.5,-19 365.5,0 434.5,0 434.5,-19"/>
<text text-anchor="middle" x="400" y="-7" font-family="Helvetica,sans-Serif" font-size="10.00">type_traits</text>
</a>
</g>
</g>
<!-- Node9&#45;&gt;Node12 -->
<g id="edge13_Node000009_Node000012" class="edge">
<title>Node9&#45;&gt;Node12</title>
<g id="a_edge13_Node000009_Node000012"><a xlink:title=" ">
<path fill="none" stroke="#63b8ff" d="M328.09,-164.74C340.05,-139.09 375.16,-63.78 391.48,-28.78"/>
<polygon fill="#63b8ff" stroke="#63b8ff" points="394.84,-29.85 395.89,-19.31 388.5,-26.89 394.84,-29.85"/>
</a>
</g>
</g>
<!-- Node13&#45;&gt;Node9 -->
<g id="edge35_Node000013_Node000009" class="edge">
<title>Node13&#45;&gt;Node9</title>
<g id="a_edge35_Node000013_Node000009"><a xlink:title=" ">
<path fill="none" stroke="#63b8ff" d="M379.83,-329.74C370.54,-304.09 343.29,-228.78 330.62,-193.78"/>
<polygon fill="#63b8ff" stroke="#63b8ff" points="333.88,-192.52 327.19,-184.31 327.3,-194.9 333.88,-192.52"/>
</a>
</g>
</g>
<!-- Node14 -->
<g id="Node000014" class="node">
<title>Node14</title>
<g id="a_Node000014"><a xlink:href="expr__cast_8h.html" target="_top" xlink:title="Templated functions to cast to specific exprt&#45;derived classes.">
<polygon fill="white" stroke="#666666" points="493.5,-239 420.5,-239 420.5,-220 493.5,-220 493.5,-239"/>
<text text-anchor="middle" x="457" y="-227" font-family="Helvetica,sans-Serif" font-size="10.00">expr_cast.h</text>
</a>
</g>
</g>
<!-- Node13&#45;&gt;Node14 -->
<g id="edge16_Node000013_Node000014" class="edge">
<title>Node13&#45;&gt;Node14</title>
<g id="a_edge16_Node000013_Node000014"><a xlink:title=" ">
<path fill="none" stroke="#63b8ff" d="M389.06,-329.66C401.31,-311.77 429.25,-271 445.22,-247.69"/>
<polygon fill="#63b8ff" stroke="#63b8ff" points="448.3,-249.39 451.07,-239.16 442.53,-245.43 448.3,-249.39"/>
</a>
</g>
</g>
<!-- Node44 -->
<g id="Node000044" class="node">
<title>Node44</title>
<g id="a_Node000044"><a xlink:href="std__types_8h.html" target="_top" xlink:title="Pre&#45;defined types.">
<polygon fill="white" stroke="#666666" points="525.5,-294 452.5,-294 452.5,-275 525.5,-275 525.5,-294"/>
<text text-anchor="middle" x="489" y="-282" font-family="Helvetica,sans-Serif" font-size="10.00">std_types.h</text>
</a>
</g>
</g>
<!-- Node13&#45;&gt;Node44 -->
<g id="edge36_Node000013_Node000044" class="edge">
<title>Node13&#45;&gt;Node44</title>
<g id="a_edge36_Node000013_Node000044"><a xlink:title=" ">
<path fill="none" stroke="#63b8ff" d="M400.03,-329.98C416.93,-321.54 443.06,-308.47 462.64,-298.68"/>
<polygon fill="#63b8ff" stroke="#63b8ff" points="464.28,-301.77 471.66,-294.17 461.15,-295.51 464.28,-301.77"/>
</a>
</g>
</g>
<!-- Node14&#45;&gt;Node9 -->
<g id="edge20_Node000014_Node000009" class="edge">
<title>Node14&#45;&gt;Node9</title>
<g id="a_edge20_Node000014_Node000009"><a xlink:title=" ">
<path fill="none" stroke="#63b8ff" d="M435.63,-219.98C413.85,-211.3 379.84,-197.75 355.08,-187.88"/>
<polygon fill="#63b8ff" stroke="#63b8ff" points="356.34,-184.62 345.76,-184.17 353.75,-191.12 356.34,-184.62"/>
</a>
</g>
</g>
<!-- Node14&#45;&gt;Node12 -->
<g id="edge18_Node000014_Node000012" class="edge">
<title>Node14&#45;&gt;Node12</title>
<g id="a_edge18_Node000014_Node000012"><a xlink:title=" ">
<path fill="none" stroke="#63b8ff" d="M446.96,-219.71C438.24,-211.44 426.09,-198.23 420,-184 397.49,-131.38 397.3,-62.04 398.76,-29.24"/>
<polygon fill="#63b8ff" stroke="#63b8ff" points="402.25,-29.42 399.3,-19.25 395.26,-29.04 402.25,-29.42"/>
</a>
</g>
</g>
<!-- Node15 -->
<g id="Node000015" class="node">
<title>Node15</title>
<g id="a_Node000015"><a xlink:title=" ">
<polygon fill="#e0e0e0" stroke="#999999" points="485.5,-184 428.5,-184 428.5,-165 485.5,-165 485.5,-184"/>
<text text-anchor="middle" x="457" y="-172" font-family="Helvetica,sans-Serif" font-size="10.00">typeinfo</text>
</a>
</g>
</g>
<!-- Node14&#45;&gt;Node15 -->
<g id="edge17_Node000014_Node000015" class="edge">
<title>Node14&#45;&gt;Node15</title>
<g id="a_edge17_Node000014_Node000015"><a xlink:title=" ">
<path fill="none" stroke="#63b8ff" d="M457,-219.75C457,-212.8 457,-202.85 457,-194.13"/>
<polygon fill="#63b8ff" stroke="#63b8ff" points="460.5,-194.09 457,-184.09 453.5,-194.09 460.5,-194.09"/>
</a>
</g>
</g>
<!-- Node16 -->
<g id="Node000016" class="node">
<title>Node16</title>
<g id="a_Node000016"><a xlink:title=" ">
<polygon fill="#e0e0e0" stroke="#999999" points="493.5,-129 428.5,-129 428.5,-110 493.5,-110 493.5,-129"/>
<text text-anchor="middle" x="461" y="-117" font-family="Helvetica,sans-Serif" font-size="10.00">functional</text>
</a>
</g>
</g>
<!-- Node14&#45;&gt;Node16 -->
<g id="edge19_Node000014_Node000016" class="edge">
<title>Node14&#45;&gt;Node16</title>
<g id="a_edge19_Node000014_Node000016"><a xlink:title=" ">
<path fill="none" stroke="#63b8ff" d="M467.71,-219.93C476.93,-211.8 489.59,-198.68 495,-184 501.25,-167.06 489.63,-149.03 478.32,-136.53"/>
<polygon fill="#63b8ff" stroke="#63b8ff" points="480.62,-133.87 471.12,-129.18 475.62,-138.77 480.62,-133.87"/>
</a>
</g>
</g>
<!-- Node17 -->
<g id="Node000017" class="node">
<title>Node17</title>
<g id="a_Node000017"><a xlink:href="expr_8h.html" target="_top" xlink:title=" ">
<polygon fill="white" stroke="#666666" points="593.5,-184 546.5,-184 546.5,-165 593.5,-165 593.5,-184"/>
<text text-anchor="middle" x="570" y="-172" font-family="Helvetica,sans-Serif" font-size="10.00">expr.h</text>
</a>
</g>
</g>
<!-- Node14&#45;&gt;Node17 -->
<g id="edge21_Node000014_Node000017" class="edge">
<title>Node14&#45;&gt;Node17</title>
<g id="a_edge21_Node000014_Node000017"><a xlink:title=" ">
<path fill="none" stroke="#63b8ff" d="M475.16,-219.98C493.25,-211.5 521.28,-198.35 542.19,-188.54"/>
<polygon fill="#63b8ff" stroke="#63b8ff" points="543.95,-191.59 551.51,-184.17 540.97,-185.25 543.95,-191.59"/>
</a>
</g>
</g>
<!-- Node17&#45;&gt;Node16 -->
<g id="edge34_Node000017_Node000016" class="edge">
<title>Node17&#45;&gt;Node16</title>
<g id="a_edge34_Node000017_Node000016"><a xlink:title=" ">
<path fill="none" stroke="#63b8ff" d="M552.49,-164.98C535.03,-156.5 507.99,-143.35 487.83,-133.54"/>
<polygon fill="#63b8ff" stroke="#63b8ff" points="489.36,-130.4 478.83,-129.17 486.29,-136.69 489.36,-130.4"/>
</a>
</g>
</g>
<!-- Node18 -->
<g id="Node000018" class="node">
<title>Node18</title>
<g id="a_Node000018"><a xlink:href="as__const_8h.html" target="_top" xlink:title=" ">
<polygon fill="white" stroke="#666666" points="831,-129 763,-129 763,-110 831,-110 831,-129"/>
<text text-anchor="middle" x="797" y="-117" font-family="Helvetica,sans-Serif" font-size="10.00">as_const.h</text>
</a>
</g>
</g>
<!-- Node17&#45;&gt;Node18 -->
<g id="edge22_Node000017_Node000018" class="edge">
<title>Node17&#45;&gt;Node18</title>
<g id="a_edge22_Node000017_Node000018"><a xlink:title=" ">
<path fill="none" stroke="#63b8ff" d="M593.86,-167.93C631.51,-159.14 705.28,-141.91 752.8,-130.82"/>
<polygon fill="#63b8ff" stroke="#63b8ff" points="753.87,-134.16 762.81,-128.48 752.28,-127.35 753.87,-134.16"/>
</a>
</g>
</g>
<!-- Node19 -->
<g id="Node000019" class="node">
<title>Node19</title>
<g id="a_Node000019"><a xlink:href="type_8h.html" target="_top" xlink:title="Defines typet, type_with_subtypet and type_with_subtypest.">
<polygon fill="white" stroke="#666666" points="597.5,-129 550.5,-129 550.5,-110 597.5,-110 597.5,-129"/>
<text text-anchor="middle" x="574" y="-117" font-family="Helvetica,sans-Serif" font-size="10.00">type.h</text>
</a>
</g>
</g>
<!-- Node17&#45;&gt;Node19 -->
<g id="edge23_Node000017_Node000019" class="edge">
<title>Node17&#45;&gt;Node19</title>
<g id="a_edge23_Node000017_Node000019"><a xlink:title=" ">
<path fill="none" stroke="#63b8ff" d="M570.66,-164.75C571.18,-157.8 571.94,-147.85 572.59,-139.13"/>
<polygon fill="#63b8ff" stroke="#63b8ff" points="576.09,-139.32 573.35,-129.09 569.11,-138.8 576.09,-139.32"/>
</a>
</g>
</g>
<!-- Node41 -->
<g id="Node000041" class="node">
<title>Node41</title>
<g id="a_Node000041"><a xlink:href="validation__mode_8h.html" target="_top" xlink:title=" ">
<polygon fill="white" stroke="#666666" points="788.5,-19 681.5,-19 681.5,0 788.5,0 788.5,-19"/>
<text text-anchor="middle" x="735" y="-7" font-family="Helvetica,sans-Serif" font-size="10.00">validation_mode.h</text>
</a>
</g>
</g>
<!-- Node17&#45;&gt;Node41 -->
<g id="edge33_Node000017_Node000041" class="edge">
<title>Node17&#45;&gt;Node41</title>
<g id="a_edge33_Node000017_Node000041"><a xlink:title=" ">
<path fill="none" stroke="#63b8ff" d="M593.69,-173.33C653.56,-172.36 808.41,-166.22 840,-129 873,-90.11 803.01,-45.35 761.98,-23.65"/>
<polygon fill="#63b8ff" stroke="#63b8ff" points="763.47,-20.48 752.98,-19.01 760.27,-26.71 763.47,-20.48"/>
</a>
</g>
</g>
<!-- Node42 -->
<g id="Node000042" class="node">
<title>Node42</title>
<g id="a_Node000042"><a xlink:href="validate__types_8h.html" target="_top" xlink:title=" ">
<polygon fill="white" stroke="#666666" points="526,-74 428,-74 428,-55 526,-55 526,-74"/>
<text text-anchor="middle" x="477" y="-62" font-family="Helvetica,sans-Serif" font-size="10.00">validate_types.h</text>
</a>
</g>
</g>
<!-- Node17&#45;&gt;Node42 -->
<g id="edge32_Node000017_Node000042" class="edge">
<title>Node17&#45;&gt;Node42</title>
<g id="a_edge32_Node000017_Node000042"><a xlink:title=" ">
<path fill="none" stroke="#63b8ff" d="M562.39,-164.66C546.78,-146.54 510.94,-104.91 491.01,-81.77"/>
<polygon fill="#63b8ff" stroke="#63b8ff" points="493.63,-79.45 484.46,-74.16 488.33,-84.02 493.63,-79.45"/>
</a>
</g>
</g>
<!-- Node43 -->
<g id="Node000043" class="node">
<title>Node43</title>
<g id="a_Node000043"><a xlink:href="validate__expressions_8h.html" target="_top" xlink:title=" ">
<polygon fill="white" stroke="#666666" points="744.5,-129 615.5,-129 615.5,-110 744.5,-110 744.5,-129"/>
<text text-anchor="middle" x="680" y="-117" font-family="Helvetica,sans-Serif" font-size="10.00">validate_expressions.h</text>
</a>
</g>
</g>
<!-- Node17&#45;&gt;Node43 -->
<g id="edge31_Node000017_Node000043" class="edge">
<title>Node17&#45;&gt;Node43</title>
<g id="a_edge31_Node000017_Node000043"><a xlink:title=" ">
<path fill="none" stroke="#63b8ff" d="M587.67,-164.98C605.29,-156.5 632.58,-143.35 652.93,-133.54"/>
<polygon fill="#63b8ff" stroke="#63b8ff" points="654.52,-136.66 662.01,-129.17 651.48,-130.36 654.52,-136.66"/>
</a>
</g>
</g>
<!-- Node20 -->
<g id="Node000020" class="node">
<title>Node20</title>
<g id="a_Node000020"><a xlink:href="source__location_8h.html" target="_top" xlink:title=" ">
<polygon fill="#fff0f0" stroke="red" points="646,-74 544,-74 544,-55 646,-55 646,-74"/>
<text text-anchor="middle" x="595" y="-62" font-family="Helvetica,sans-Serif" font-size="10.00">source_location.h</text>
</a>
</g>
</g>
<!-- Node19&#45;&gt;Node20 -->
<g id="edge24_Node000019_Node000020" class="edge">
<title>Node19&#45;&gt;Node20</title>
<g id="a_edge24_Node000019_Node000020"><a xlink:title=" ">
<path fill="none" stroke="#63b8ff" d="M577.47,-109.75C580.28,-102.65 584.34,-92.4 587.85,-83.56"/>
<polygon fill="#63b8ff" stroke="#63b8ff" points="591.17,-84.68 591.6,-74.09 584.66,-82.1 591.17,-84.68"/>
</a>
</g>
</g>
<!-- Node39 -->
<g id="Node000039" class="node">
<title>Node39</title>
<g id="a_Node000039"><a xlink:href="validate_8h.html" target="_top" xlink:title=" ">
<polygon fill="#fff0f0" stroke="red" points="767.5,-74 702.5,-74 702.5,-55 767.5,-55 767.5,-74"/>
<text text-anchor="middle" x="735" y="-62" font-family="Helvetica,sans-Serif" font-size="10.00">validate.h</text>
</a>
</g>
</g>
<!-- Node19&#45;&gt;Node39 -->
<g id="edge26_Node000019_Node000039" class="edge">
<title>Node19&#45;&gt;Node39</title>
<g id="a_edge26_Node000019_Node000039"><a xlink:title=" ">
<path fill="none" stroke="#63b8ff" d="M597.76,-110.68C624.59,-101.85 668.55,-87.38 699.47,-77.2"/>
<polygon fill="#63b8ff" stroke="#63b8ff" points="700.61,-80.51 709.01,-74.06 698.42,-73.86 700.61,-80.51"/>
</a>
</g>
</g>
<!-- Node19&#45;&gt;Node41 -->
<g id="edge30_Node000019_Node000041" class="edge">
<title>Node19&#45;&gt;Node41</title>
<g id="a_edge30_Node000019_Node000041"><a xlink:title=" ">
<path fill="none" stroke="#63b8ff" d="M591.56,-109.94C608.31,-101.52 634.02,-87.94 655,-74 677.43,-59.09 701.4,-39.52 717.19,-26.07"/>
<polygon fill="#63b8ff" stroke="#63b8ff" points="719.77,-28.47 725.06,-19.29 715.2,-23.17 719.77,-28.47"/>
</a>
</g>
</g>
<!-- Node19&#45;&gt;Node42 -->
<g id="edge29_Node000019_Node000042" class="edge">
<title>Node19&#45;&gt;Node42</title>
<g id="a_edge29_Node000019_Node000042"><a xlink:title=" ">
<path fill="none" stroke="#63b8ff" d="M558.42,-109.98C543.23,-101.69 519.9,-88.94 502.1,-79.22"/>
<polygon fill="#63b8ff" stroke="#63b8ff" points="503.32,-75.89 492.87,-74.17 499.97,-82.04 503.32,-75.89"/>
</a>
</g>
</g>
<!-- Node20&#45;&gt;Node5 -->
<g id="edge25_Node000020_Node000005" class="edge">
<title>Node20&#45;&gt;Node5</title>
<g id="a_edge25_Node000020_Node000005"><a xlink:title=" ">
<path fill="none" stroke="#63b8ff" d="M543.73,-54.94C495.39,-46.63 421.02,-33.21 357,-19 356.78,-18.95 356.57,-18.9 356.35,-18.85"/>
<polygon fill="#63b8ff" stroke="#63b8ff" points="356.86,-15.38 346.32,-16.47 355.23,-22.19 356.86,-15.38"/>
</a>
</g>
</g>
<!-- Node39&#45;&gt;Node12 -->
<g id="edge27_Node000039_Node000012" class="edge">
<title>Node39&#45;&gt;Node12</title>
<g id="a_edge27_Node000039_Node000012"><a xlink:title=" ">
<path fill="none" stroke="#63b8ff" d="M702.27,-58.32C641.9,-48.77 512.97,-28.37 444.64,-17.56"/>
<polygon fill="#63b8ff" stroke="#63b8ff" points="445.04,-14.08 434.61,-15.98 443.94,-21 445.04,-14.08"/>
</a>
</g>
</g>
<!-- Node39&#45;&gt;Node41 -->
<g id="edge28_Node000039_Node000041" class="edge">
<title>Node39&#45;&gt;Node41</title>
<g id="a_edge28_Node000039_Node000041"><a xlink:title=" ">
<path fill="none" stroke="#63b8ff" d="M735,-54.75C735,-47.8 735,-37.85 735,-29.13"/>
<polygon fill="#63b8ff" stroke="#63b8ff" points="738.5,-29.09 735,-19.09 731.5,-29.09 738.5,-29.09"/>
</a>
</g>
</g>
<!-- Node44&#45;&gt;Node4 -->
<g id="edge40_Node000044_Node000004" class="edge">
<title>Node44&#45;&gt;Node4</title>
<g id="a_edge40_Node000044_Node000004"><a xlink:title=" ">
<path fill="none" stroke="#63b8ff" d="M452.29,-277.26C394.77,-267.49 283.56,-248.6 221.54,-238.07"/>
<polygon fill="#63b8ff" stroke="#63b8ff" points="222.1,-234.61 211.66,-236.39 220.93,-241.51 222.1,-234.61"/>
</a>
</g>
</g>
<!-- Node44&#45;&gt;Node9 -->
<g id="edge39_Node000044_Node000009" class="edge">
<title>Node44&#45;&gt;Node9</title>
<g id="a_edge39_Node000044_Node000009"><a xlink:title=" ">
<path fill="none" stroke="#63b8ff" d="M473.09,-274.92C457.32,-266.28 432.61,-252.34 412,-239 387.76,-223.31 361,-203.64 343.43,-190.39"/>
<polygon fill="#63b8ff" stroke="#63b8ff" points="345.22,-187.35 335.14,-184.09 340.99,-192.93 345.22,-187.35"/>
</a>
</g>
</g>
<!-- Node44&#45;&gt;Node14 -->
<g id="edge38_Node000044_Node000014" class="edge">
<title>Node44&#45;&gt;Node14</title>
<g id="a_edge38_Node000044_Node000014"><a xlink:title=" ">
<path fill="none" stroke="#63b8ff" d="M483.72,-274.75C479.29,-267.42 472.84,-256.73 467.38,-247.7"/>
<polygon fill="#63b8ff" stroke="#63b8ff" points="470.35,-245.84 462.19,-239.09 464.36,-249.46 470.35,-245.84"/>
</a>
</g>
</g>
<!-- Node44&#45;&gt;Node17 -->
<g id="edge37_Node000044_Node000017" class="edge">
<title>Node44&#45;&gt;Node17</title>
<g id="a_edge37_Node000044_Node000017"><a xlink:title=" ">
<path fill="none" stroke="#63b8ff" d="M495.63,-274.66C509.1,-256.69 539.89,-215.64 557.34,-192.38"/>
<polygon fill="#63b8ff" stroke="#63b8ff" points="560.31,-194.26 563.51,-184.16 554.71,-190.06 560.31,-194.26"/>
</a>
</g>
</g>
<!-- Node44&#45;&gt;Node39 -->
<g id="edge41_Node000044_Node000039" class="edge">
<title>Node44&#45;&gt;Node39</title>
<g id="a_edge41_Node000044_Node000039"><a xlink:title=" ">
<path fill="none" stroke="#63b8ff" d="M525.67,-280.84C601.69,-273.05 774.8,-243 840,-129 856.58,-100.01 813.48,-82.71 777.58,-73.66"/>
<polygon fill="#63b8ff" stroke="#63b8ff" points="778.23,-70.22 767.7,-71.32 776.62,-77.03 778.23,-70.22"/>
</a>
</g>
</g>
<!-- Node30 -->
<g id="Node000030" class="node">
<title>Node30</title>
<g id="a_Node000030"><a xlink:title=" ">
<polygon fill="#e0e0e0" stroke="#999999" points="643.5,-239 550.5,-239 550.5,-220 643.5,-220 643.5,-239"/>
<text text-anchor="middle" x="597" y="-227" font-family="Helvetica,sans-Serif" font-size="10.00">unordered_map</text>
</a>
</g>
</g>
<!-- Node44&#45;&gt;Node30 -->
<g id="edge42_Node000044_Node000030" class="edge">
<title>Node44&#45;&gt;Node30</title>
<g id="a_edge42_Node000044_Node000030"><a xlink:title=" ">
<path fill="none" stroke="#63b8ff" d="M506.35,-274.98C523.57,-266.54 550.2,-253.47 570.15,-243.68"/>
<polygon fill="#63b8ff" stroke="#63b8ff" points="571.9,-246.72 579.33,-239.17 568.81,-240.43 571.9,-246.72"/>
</a>
</g>
</g>
<!-- Node46&#45;&gt;Node44 -->
<g id="edge45_Node000046_Node000044" class="edge">
<title>Node46&#45;&gt;Node44</title>
<g id="a_edge45_Node000046_Node000044"><a xlink:title=" ">
<path fill="none" stroke="#63b8ff" d="M541.88,-329.98C532.56,-322.15 518.53,-310.34 507.26,-300.86"/>
<polygon fill="#63b8ff" stroke="#63b8ff" points="509.21,-297.93 499.31,-294.17 504.71,-303.29 509.21,-297.93"/>
</a>
</g>
</g>
<!-- Node47&#45;&gt;Node13 -->
<g id="edge47_Node000047_Node000013" class="edge">
<title>Node47&#45;&gt;Node13</title>
<g id="a_edge47_Node000047_Node000013"><a xlink:title=" ">
<path fill="none" stroke="#63b8ff" d="M435.04,-384.98C425.87,-377.15 412.06,-365.34 400.97,-355.86"/>
<polygon fill="#63b8ff" stroke="#63b8ff" points="403.02,-353.01 393.14,-349.17 398.47,-358.33 403.02,-353.01"/>
</a>
</g>
</g>
</g>
</svg>
