<?xml version="1.0" encoding="UTF-8" standalone="no"?>
<!DOCTYPE svg PUBLIC "-//W3C//DTD SVG 1.1//EN"
 "http://www.w3.org/Graphics/SVG/1.1/DTD/svg11.dtd">
<!-- Generated by graphviz version 2.43.0 (0)
 -->
<!-- Title: Graphical Class Hierarchy Pages: 1 -->
<svg width="494pt" height="150pt"
 viewBox="0.00 0.00 494.00 149.50" xmlns="http://www.w3.org/2000/svg" xmlns:xlink="http://www.w3.org/1999/xlink">
<g id="graph0" class="graph" transform="scale(1 1) rotate(0) translate(4 145.5)">
<title>Graphical Class Hierarchy</title>
<!-- Node0 -->
<g id="Node000000" class="node">
<title>Node0</title>
<g id="a_Node000000"><a xlink:href="classenumerator__baset.html" target="_top" xlink:title="A base class for expression enumerators.">
<polygon fill="white" stroke="#666666" points="106,-85.5 0,-85.5 0,-66.5 106,-66.5 106,-85.5"/>
<text text-anchor="middle" x="53" y="-73.5" font-family="Helvetica,sans-Serif" font-size="10.00">enumerator_baset</text>
</a>
</g>
</g>
<!-- Node1 -->
<g id="Node000001" class="node">
<title>Node1</title>
<g id="a_Node000001"><a xlink:href="classalternatives__enumeratort.html" target="_top" xlink:title="Enumerators that enumerates expressions in the union of enumerated expressions of sub&#45;enumerators.">
<polygon fill="white" stroke="#666666" points="283,-141.5 142,-141.5 142,-122.5 283,-122.5 283,-141.5"/>
<text text-anchor="middle" x="212.5" y="-129.5" font-family="Helvetica,sans-Serif" font-size="10.00">alternatives_enumeratort</text>
</a>
</g>
</g>
<!-- Node0&#45;&gt;Node1 -->
<g id="edge191_Node000000_Node000001" class="edge">
<title>Node0&#45;&gt;Node1</title>
<g id="a_edge191_Node000000_Node000001"><a xlink:title=" ">
<path fill="none" stroke="#63b8ff" d="M83.26,-89.99C100.17,-97.73 122,-107.14 142,-114 151.08,-117.11 160.98,-119.98 170.4,-122.47"/>
<polygon fill="#63b8ff" stroke="#63b8ff" points="84.47,-86.69 73.92,-85.65 81.52,-93.04 84.47,-86.69"/>
</a>
</g>
</g>
<!-- Node2 -->
<g id="Node000002" class="node">
<title>Node2</title>
<g id="a_Node000002"><a xlink:href="classleaf__enumeratort.html" target="_top" xlink:title="Enumerator that enumerates leaf expressions from a given list.">
<polygon fill="white" stroke="#666666" points="263,-104.5 162,-104.5 162,-85.5 263,-85.5 263,-104.5"/>
<text text-anchor="middle" x="212.5" y="-92.5" font-family="Helvetica,sans-Serif" font-size="10.00">leaf_enumeratort</text>
</a>
</g>
</g>
<!-- Node0&#45;&gt;Node2 -->
<g id="edge192_Node000000_Node000002" class="edge">
<title>Node0&#45;&gt;Node2</title>
<g id="a_edge192_Node000000_Node000002"><a xlink:title=" ">
<path fill="none" stroke="#63b8ff" d="M116.33,-83.52C131.48,-85.35 147.48,-87.28 161.95,-89.02"/>
<polygon fill="#63b8ff" stroke="#63b8ff" points="116.36,-80 106.01,-82.27 115.52,-86.95 116.36,-80"/>
</a>
</g>
</g>
<!-- Node3 -->
<g id="Node000003" class="node">
<title>Node3</title>
<g id="a_Node000003"><a xlink:href="classnon__leaf__enumeratort.html" target="_top" xlink:title="Non&#45;leaf enumerator enumerates expressions of form f(a_1, a_2, ..., a_n) where a_i&#39;s are sub&#45;expressi...">
<polygon fill="white" stroke="#666666" points="275,-67.5 150,-67.5 150,-48.5 275,-48.5 275,-67.5"/>
<text text-anchor="middle" x="212.5" y="-55.5" font-family="Helvetica,sans-Serif" font-size="10.00">non_leaf_enumeratort</text>
</a>
</g>
</g>
<!-- Node0&#45;&gt;Node3 -->
<g id="edge193_Node000000_Node000003" class="edge">
<title>Node0&#45;&gt;Node3</title>
<g id="a_edge193_Node000000_Node000003"><a xlink:title=" ">
<path fill="none" stroke="#63b8ff" d="M116.08,-68.9C127.23,-67.63 138.84,-66.3 149.97,-65.03"/>
<polygon fill="#63b8ff" stroke="#63b8ff" points="115.55,-65.44 106.01,-70.06 116.34,-72.4 115.55,-65.44"/>
</a>
</g>
</g>
<!-- Node5 -->
<g id="Node000005" class="node">
<title>Node5</title>
<g id="a_Node000005"><a xlink:href="classrecursive__enumerator__placeholdert.html" target="_top" xlink:title="Placeholders for actual enumerators, which represent nonterminals.">
<polygon fill="white" stroke="#666666" points="274.5,-30 150.5,-30 150.5,0 274.5,0 274.5,-30"/>
<text text-anchor="start" x="158.5" y="-18" font-family="Helvetica,sans-Serif" font-size="10.00">recursive_enumerator</text>
<text text-anchor="middle" x="212.5" y="-7" font-family="Helvetica,sans-Serif" font-size="10.00">_placeholdert</text>
</a>
</g>
</g>
<!-- Node0&#45;&gt;Node5 -->
<g id="edge195_Node000000_Node000005" class="edge">
<title>Node0&#45;&gt;Node5</title>
<g id="a_edge195_Node000000_Node000005"><a xlink:title=" ">
<path fill="none" stroke="#63b8ff" d="M85.96,-62.54C102.6,-55.63 123.32,-47.18 142,-40 150.62,-36.69 159.89,-33.26 168.76,-30.05"/>
<polygon fill="#63b8ff" stroke="#63b8ff" points="84.57,-59.33 76.68,-66.41 87.26,-65.79 84.57,-59.33"/>
</a>
</g>
</g>
<!-- Node4 -->
<g id="Node000004" class="node">
<title>Node4</title>
<g id="a_Node000004"><a xlink:href="classbinary__functional__enumeratort.html" target="_top" xlink:title="Enumerator that enumerates binary functional expressions.">
<polygon fill="white" stroke="#666666" points="486,-67.5 319,-67.5 319,-48.5 486,-48.5 486,-67.5"/>
<text text-anchor="middle" x="402.5" y="-55.5" font-family="Helvetica,sans-Serif" font-size="10.00">binary_functional_enumeratort</text>
</a>
</g>
</g>
<!-- Node3&#45;&gt;Node4 -->
<g id="edge194_Node000003_Node000004" class="edge">
<title>Node3&#45;&gt;Node4</title>
<g id="a_edge194_Node000003_Node000004"><a xlink:title=" ">
<path fill="none" stroke="#63b8ff" d="M285.08,-58C296.16,-58 307.67,-58 318.96,-58"/>
<polygon fill="#63b8ff" stroke="#63b8ff" points="285.06,-54.5 275.06,-58 285.06,-61.5 285.06,-54.5"/>
</a>
</g>
</g>
</g>
</svg>
