<?xml version="1.0" encoding="UTF-8" standalone="no"?>
<!DOCTYPE svg PUBLIC "-//W3C//DTD SVG 1.1//EN"
 "http://www.w3.org/Graphics/SVG/1.1/DTD/svg11.dtd">
<!-- Generated by graphviz version 2.43.0 (0)
 -->
<!-- Title: Graphical Class Hierarchy Pages: 1 -->
<svg width="843pt" height="682pt"
 viewBox="0.00 0.00 843.00 682.00" xmlns="http://www.w3.org/2000/svg" xmlns:xlink="http://www.w3.org/1999/xlink">
<g id="graph0" class="graph" transform="scale(1 1) rotate(0) translate(4 678)">
<title>Graphical Class Hierarchy</title>
<!-- Node0 -->
<g id="Node000000" class="node">
<title>Node0</title>
<g id="a_Node000000"><a xlink:href="classabstract__aggregate__tag.html" target="_top" xlink:title=" ">
<polygon fill="white" stroke="#666666" points="277,-489.5 145,-489.5 145,-470.5 277,-470.5 277,-489.5"/>
<text text-anchor="middle" x="211" y="-477.5" font-family="Helvetica,sans-Serif" font-size="10.00">abstract_aggregate_tag</text>
</a>
</g>
</g>
<!-- Node1 -->
<g id="Node000001" class="node">
<title>Node1</title>
<g id="a_Node000001"><a xlink:href="classabstract__aggregate__objectt.html" target="_top" xlink:title=" ">
<polygon fill="white" stroke="#666666" points="453.5,-334 321.5,-334 321.5,-282 453.5,-282 453.5,-334"/>
<text text-anchor="start" x="329.5" y="-322" font-family="Helvetica,sans-Serif" font-size="10.00">abstract_aggregate</text>
<text text-anchor="start" x="329.5" y="-311" font-family="Helvetica,sans-Serif" font-size="10.00">_objectt&lt; full_array</text>
<text text-anchor="start" x="329.5" y="-300" font-family="Helvetica,sans-Serif" font-size="10.00">_abstract_objectt, array</text>
<text text-anchor="middle" x="387.5" y="-289" font-family="Helvetica,sans-Serif" font-size="10.00">_aggregate_typet &gt;</text>
</a>
</g>
</g>
<!-- Node0&#45;&gt;Node1 -->
<g id="edge1_Node000000_Node000001" class="edge">
<title>Node0&#45;&gt;Node1</title>
<g id="a_edge1_Node000000_Node000001"><a xlink:title=" ">
<path fill="none" stroke="#63b8ff" d="M226.1,-462.44C239.49,-445.61 260.03,-419.39 277,-396 293.72,-372.95 291.39,-361.55 313,-343 316.75,-339.78 320.85,-336.78 325.14,-334.01"/>
<polygon fill="#63b8ff" stroke="#63b8ff" points="223.31,-460.32 219.8,-470.32 228.78,-464.69 223.31,-460.32"/>
</a>
</g>
</g>
<!-- Node4 -->
<g id="Node000004" class="node">
<title>Node4</title>
<g id="a_Node000004"><a xlink:href="classabstract__aggregate__objectt.html" target="_top" xlink:title=" ">
<polygon fill="white" stroke="#666666" points="454.5,-674 320.5,-674 320.5,-622 454.5,-622 454.5,-674"/>
<text text-anchor="start" x="328.5" y="-662" font-family="Helvetica,sans-Serif" font-size="10.00">abstract_aggregate</text>
<text text-anchor="start" x="328.5" y="-651" font-family="Helvetica,sans-Serif" font-size="10.00">_objectt&lt; full_struct</text>
<text text-anchor="start" x="328.5" y="-640" font-family="Helvetica,sans-Serif" font-size="10.00">_abstract_objectt, struct</text>
<text text-anchor="middle" x="387.5" y="-629" font-family="Helvetica,sans-Serif" font-size="10.00">_aggregate_typet &gt;</text>
</a>
</g>
</g>
<!-- Node0&#45;&gt;Node4 -->
<g id="edge3_Node000000_Node000004" class="edge">
<title>Node0&#45;&gt;Node4</title>
<g id="a_edge3_Node000000_Node000004"><a xlink:title=" ">
<path fill="none" stroke="#63b8ff" d="M222.05,-498.35C238.11,-526.24 271.96,-579.61 313,-613 316.95,-616.21 321.24,-619.21 325.7,-622"/>
<polygon fill="#63b8ff" stroke="#63b8ff" points="225.09,-496.61 217.13,-489.61 218.99,-500.04 225.09,-496.61"/>
</a>
</g>
</g>
<!-- Node6 -->
<g id="Node000006" class="node">
<title>Node6</title>
<g id="a_Node000006"><a xlink:href="classabstract__aggregate__objectt.html" target="_top" xlink:title=" ">
<polygon fill="white" stroke="#666666" points="458.5,-604 316.5,-604 316.5,-552 458.5,-552 458.5,-604"/>
<text text-anchor="start" x="324.5" y="-592" font-family="Helvetica,sans-Serif" font-size="10.00">abstract_aggregate</text>
<text text-anchor="start" x="324.5" y="-581" font-family="Helvetica,sans-Serif" font-size="10.00">_objectt&lt; two_value</text>
<text text-anchor="start" x="324.5" y="-570" font-family="Helvetica,sans-Serif" font-size="10.00">_array_abstract_objectt,</text>
<text text-anchor="middle" x="387.5" y="-559" font-family="Helvetica,sans-Serif" font-size="10.00"> array_aggregate_typet &gt;</text>
</a>
</g>
</g>
<!-- Node0&#45;&gt;Node6 -->
<g id="edge5_Node000000_Node000006" class="edge">
<title>Node0&#45;&gt;Node6</title>
<g id="a_edge5_Node000000_Node000006"><a xlink:title=" ">
<path fill="none" stroke="#63b8ff" d="M234.92,-495.34C255.11,-508.59 285.49,-527.93 313,-543 318.45,-545.99 324.2,-548.98 329.99,-551.89"/>
<polygon fill="#63b8ff" stroke="#63b8ff" points="236.68,-492.31 226.41,-489.71 232.82,-498.15 236.68,-492.31"/>
</a>
</g>
</g>
<!-- Node8 -->
<g id="Node000008" class="node">
<title>Node8</title>
<g id="a_Node000008"><a xlink:href="classabstract__aggregate__objectt.html" target="_top" xlink:title=" ">
<polygon fill="white" stroke="#666666" points="459.5,-474 315.5,-474 315.5,-422 459.5,-422 459.5,-474"/>
<text text-anchor="start" x="323.5" y="-462" font-family="Helvetica,sans-Serif" font-size="10.00">abstract_aggregate</text>
<text text-anchor="start" x="323.5" y="-451" font-family="Helvetica,sans-Serif" font-size="10.00">_objectt&lt; two_value</text>
<text text-anchor="start" x="323.5" y="-440" font-family="Helvetica,sans-Serif" font-size="10.00">_struct_abstract_objectt,</text>
<text text-anchor="middle" x="387.5" y="-429" font-family="Helvetica,sans-Serif" font-size="10.00"> struct_aggregate_typet &gt;</text>
</a>
</g>
</g>
<!-- Node0&#45;&gt;Node8 -->
<g id="edge7_Node000000_Node000008" class="edge">
<title>Node0&#45;&gt;Node8</title>
<g id="a_edge7_Node000000_Node000008"><a xlink:title=" ">
<path fill="none" stroke="#63b8ff" d="M273.96,-468.64C287.39,-466.18 301.69,-463.55 315.44,-461.03"/>
<polygon fill="#63b8ff" stroke="#63b8ff" points="273.09,-465.24 263.88,-470.49 274.35,-472.12 273.09,-465.24"/>
</a>
</g>
</g>
<!-- Node10 -->
<g id="Node000010" class="node">
<title>Node10</title>
<g id="a_Node000010"><a xlink:href="classabstract__aggregate__objectt.html" target="_top" xlink:title=" ">
<polygon fill="white" stroke="#666666" points="459,-404 316,-404 316,-352 459,-352 459,-404"/>
<text text-anchor="start" x="324" y="-392" font-family="Helvetica,sans-Serif" font-size="10.00">abstract_aggregate</text>
<text text-anchor="start" x="324" y="-381" font-family="Helvetica,sans-Serif" font-size="10.00">_objectt&lt; two_value</text>
<text text-anchor="start" x="324" y="-370" font-family="Helvetica,sans-Serif" font-size="10.00">_union_abstract_objectt,</text>
<text text-anchor="middle" x="387.5" y="-359" font-family="Helvetica,sans-Serif" font-size="10.00"> union_aggregate_typet &gt;</text>
</a>
</g>
</g>
<!-- Node0&#45;&gt;Node10 -->
<g id="edge9_Node000000_Node000010" class="edge">
<title>Node0&#45;&gt;Node10</title>
<g id="a_edge9_Node000000_Node000010"><a xlink:title=" ">
<path fill="none" stroke="#63b8ff" d="M233.42,-464.51C253.49,-450.3 284.57,-429.09 313,-413 318.29,-410.01 323.87,-407.03 329.51,-404.15"/>
<polygon fill="#63b8ff" stroke="#63b8ff" points="231.13,-461.84 225.02,-470.5 235.19,-467.54 231.13,-461.84"/>
</a>
</g>
</g>
<!-- Node12 -->
<g id="Node000012" class="node">
<title>Node12</title>
<g id="a_Node000012"><a xlink:href="classabstract__aggregate__objectt.html" target="_top" xlink:title=" ">
<polygon fill="white" stroke="#666666" points="462,-533.5 313,-533.5 313,-492.5 462,-492.5 462,-533.5"/>
<text text-anchor="start" x="321" y="-521.5" font-family="Helvetica,sans-Serif" font-size="10.00">abstract_aggregate</text>
<text text-anchor="start" x="321" y="-510.5" font-family="Helvetica,sans-Serif" font-size="10.00">_objectt&lt; aggregate</text>
<text text-anchor="middle" x="387.5" y="-499.5" font-family="Helvetica,sans-Serif" font-size="10.00">_typet, aggregate_traitst &gt;</text>
</a>
</g>
</g>
<!-- Node0&#45;&gt;Node12 -->
<g id="edge11_Node000000_Node000012" class="edge">
<title>Node0&#45;&gt;Node12</title>
<g id="a_edge11_Node000000_Node000012"><a xlink:title=" ">
<path fill="none" stroke="#63b8ff" d="M272.64,-491.47C285.59,-493.92 299.4,-496.53 312.77,-499.06"/>
<polygon fill="#63b8ff" stroke="#63b8ff" points="272.95,-487.96 262.47,-489.54 271.65,-494.84 272.95,-487.96"/>
</a>
</g>
</g>
<!-- Node2 -->
<g id="Node000002" class="node">
<title>Node2</title>
<g id="a_Node000002"><a xlink:href="classfull__array__abstract__objectt.html" target="_top" xlink:title=" ">
<polygon fill="white" stroke="#666666" points="628,-334 520,-334 520,-304 628,-304 628,-334"/>
<text text-anchor="start" x="528" y="-322" font-family="Helvetica,sans-Serif" font-size="10.00">full_array_abstract</text>
<text text-anchor="middle" x="574" y="-311" font-family="Helvetica,sans-Serif" font-size="10.00">_objectt</text>
</a>
</g>
</g>
<!-- Node1&#45;&gt;Node2 -->
<g id="edge2_Node000001_Node000002" class="edge">
<title>Node1&#45;&gt;Node2</title>
<g id="a_edge2_Node000001_Node000002"><a xlink:title=" ">
<path fill="none" stroke="#63b8ff" d="M463.59,-312.48C482.43,-313.6 502.27,-314.78 519.79,-315.83"/>
<polygon fill="#63b8ff" stroke="#63b8ff" points="463.74,-308.98 453.55,-311.88 463.32,-315.97 463.74,-308.98"/>
</a>
</g>
</g>
<!-- Node5 -->
<g id="Node000005" class="node">
<title>Node5</title>
<g id="a_Node000005"><a xlink:href="classfull__struct__abstract__objectt.html" target="_top" xlink:title=" ">
<polygon fill="white" stroke="#666666" points="629,-663 519,-663 519,-633 629,-633 629,-663"/>
<text text-anchor="start" x="527" y="-651" font-family="Helvetica,sans-Serif" font-size="10.00">full_struct_abstract</text>
<text text-anchor="middle" x="574" y="-640" font-family="Helvetica,sans-Serif" font-size="10.00">_objectt</text>
</a>
</g>
</g>
<!-- Node4&#45;&gt;Node5 -->
<g id="edge4_Node000004_Node000005" class="edge">
<title>Node4&#45;&gt;Node5</title>
<g id="a_edge4_Node000004_Node000005"><a xlink:title=" ">
<path fill="none" stroke="#63b8ff" d="M464.6,-648C482.82,-648 501.91,-648 518.9,-648"/>
<polygon fill="#63b8ff" stroke="#63b8ff" points="464.59,-644.5 454.59,-648 464.59,-651.5 464.59,-644.5"/>
</a>
</g>
</g>
<!-- Node7 -->
<g id="Node000007" class="node">
<title>Node7</title>
<g id="a_Node000007"><a xlink:href="classtwo__value__array__abstract__objectt.html" target="_top" xlink:title=" ">
<polygon fill="white" stroke="#666666" points="645.5,-593 502.5,-593 502.5,-563 645.5,-563 645.5,-593"/>
<text text-anchor="start" x="510.5" y="-581" font-family="Helvetica,sans-Serif" font-size="10.00">two_value_array_abstract</text>
<text text-anchor="middle" x="574" y="-570" font-family="Helvetica,sans-Serif" font-size="10.00">_objectt</text>
</a>
</g>
</g>
<!-- Node6&#45;&gt;Node7 -->
<g id="edge6_Node000006_Node000007" class="edge">
<title>Node6&#45;&gt;Node7</title>
<g id="a_edge6_Node000006_Node000007"><a xlink:title=" ">
<path fill="none" stroke="#63b8ff" d="M468.73,-578C479.94,-578 491.4,-578 502.42,-578"/>
<polygon fill="#63b8ff" stroke="#63b8ff" points="468.51,-574.5 458.51,-578 468.51,-581.5 468.51,-574.5"/>
</a>
</g>
</g>
<!-- Node9 -->
<g id="Node000009" class="node">
<title>Node9</title>
<g id="a_Node000009"><a xlink:href="classtwo__value__struct__abstract__objectt.html" target="_top" xlink:title=" ">
<polygon fill="white" stroke="#666666" points="646.5,-463 501.5,-463 501.5,-433 646.5,-433 646.5,-463"/>
<text text-anchor="start" x="509.5" y="-451" font-family="Helvetica,sans-Serif" font-size="10.00">two_value_struct_abstract</text>
<text text-anchor="middle" x="574" y="-440" font-family="Helvetica,sans-Serif" font-size="10.00">_objectt</text>
</a>
</g>
</g>
<!-- Node8&#45;&gt;Node9 -->
<g id="edge8_Node000008_Node000009" class="edge">
<title>Node8&#45;&gt;Node9</title>
<g id="a_edge8_Node000008_Node000009"><a xlink:title=" ">
<path fill="none" stroke="#63b8ff" d="M469.62,-448C480.19,-448 490.96,-448 501.36,-448"/>
<polygon fill="#63b8ff" stroke="#63b8ff" points="469.57,-444.5 459.57,-448 469.57,-451.5 469.57,-444.5"/>
</a>
</g>
</g>
<!-- Node11 -->
<g id="Node000011" class="node">
<title>Node11</title>
<g id="a_Node000011"><a xlink:href="classtwo__value__union__abstract__objectt.html" target="_top" xlink:title=" ">
<polygon fill="white" stroke="#666666" points="646,-393 502,-393 502,-363 646,-363 646,-393"/>
<text text-anchor="start" x="510" y="-381" font-family="Helvetica,sans-Serif" font-size="10.00">two_value_union_abstract</text>
<text text-anchor="middle" x="574" y="-370" font-family="Helvetica,sans-Serif" font-size="10.00">_objectt</text>
</a>
</g>
</g>
<!-- Node10&#45;&gt;Node11 -->
<g id="edge10_Node000010_Node000011" class="edge">
<title>Node10&#45;&gt;Node11</title>
<g id="a_edge10_Node000010_Node000011"><a xlink:title=" ">
<path fill="none" stroke="#63b8ff" d="M469.35,-378C480.18,-378 491.23,-378 501.89,-378"/>
<polygon fill="#63b8ff" stroke="#63b8ff" points="469.04,-374.5 459.04,-378 469.04,-381.5 469.04,-374.5"/>
</a>
</g>
</g>
<!-- Node23 -->
<g id="Node000023" class="node">
<title>Node23</title>
<g id="a_Node000023"><a xlink:href="classabstract__pointer__tag.html" target="_top" xlink:title=" ">
<polygon fill="white" stroke="#666666" points="269.5,-99.5 152.5,-99.5 152.5,-80.5 269.5,-80.5 269.5,-99.5"/>
<text text-anchor="middle" x="211" y="-87.5" font-family="Helvetica,sans-Serif" font-size="10.00">abstract_pointer_tag</text>
</a>
</g>
</g>
<!-- Node13 -->
<g id="Node000013" class="node">
<title>Node13</title>
<g id="a_Node000013"><a xlink:href="classabstract__pointer__objectt.html" target="_top" xlink:title=" ">
<polygon fill="white" stroke="#666666" points="455,-99.5 320,-99.5 320,-80.5 455,-80.5 455,-99.5"/>
<text text-anchor="middle" x="387.5" y="-87.5" font-family="Helvetica,sans-Serif" font-size="10.00">abstract_pointer_objectt</text>
</a>
</g>
</g>
<!-- Node23&#45;&gt;Node13 -->
<g id="edge12_Node000023_Node000013" class="edge">
<title>Node23&#45;&gt;Node13</title>
<g id="a_edge12_Node000023_Node000013"><a xlink:title=" ">
<path fill="none" stroke="#63b8ff" d="M279.98,-90C293.08,-90 306.8,-90 319.87,-90"/>
<polygon fill="#63b8ff" stroke="#63b8ff" points="279.62,-86.5 269.62,-90 279.62,-93.5 279.62,-86.5"/>
</a>
</g>
</g>
<!-- Node14 -->
<g id="Node000014" class="node">
<title>Node14</title>
<g id="a_Node000014"><a xlink:href="classconstant__pointer__abstract__objectt.html" target="_top" xlink:title=" ">
<polygon fill="white" stroke="#666666" points="645.5,-30 502.5,-30 502.5,0 645.5,0 645.5,-30"/>
<text text-anchor="start" x="510.5" y="-18" font-family="Helvetica,sans-Serif" font-size="10.00">constant_pointer_abstract</text>
<text text-anchor="middle" x="574" y="-7" font-family="Helvetica,sans-Serif" font-size="10.00">_objectt</text>
</a>
</g>
</g>
<!-- Node13&#45;&gt;Node14 -->
<g id="edge13_Node000013_Node000014" class="edge">
<title>Node13&#45;&gt;Node14</title>
<g id="a_edge13_Node000013_Node000014"><a xlink:title=" ">
<path fill="none" stroke="#63b8ff" d="M416.22,-75.9C438.11,-65.06 469.59,-50.11 498,-39 506.02,-35.86 514.64,-32.82 523.07,-30.01"/>
<polygon fill="#63b8ff" stroke="#63b8ff" points="414.56,-72.82 407.18,-80.42 417.69,-79.08 414.56,-72.82"/>
</a>
</g>
</g>
<!-- Node15 -->
<g id="Node000015" class="node">
<title>Node15</title>
<g id="a_Node000015"><a xlink:href="classtwo__value__pointer__abstract__objectt.html" target="_top" xlink:title=" ">
<polygon fill="white" stroke="#666666" points="650,-78 498,-78 498,-48 650,-48 650,-78"/>
<text text-anchor="start" x="506" y="-66" font-family="Helvetica,sans-Serif" font-size="10.00">two_value_pointer_abstract</text>
<text text-anchor="middle" x="574" y="-55" font-family="Helvetica,sans-Serif" font-size="10.00">_objectt</text>
</a>
</g>
</g>
<!-- Node13&#45;&gt;Node15 -->
<g id="edge14_Node000013_Node000015" class="edge">
<title>Node13&#45;&gt;Node15</title>
<g id="a_edge14_Node000013_Node000015"><a xlink:title=" ">
<path fill="none" stroke="#63b8ff" d="M463.75,-78.99C474.99,-77.34 486.58,-75.65 497.82,-74"/>
<polygon fill="#63b8ff" stroke="#63b8ff" points="462.94,-75.57 453.55,-80.48 463.95,-82.5 462.94,-75.57"/>
</a>
</g>
</g>
<!-- Node16 -->
<g id="Node000016" class="node">
<title>Node16</title>
<g id="a_Node000016"><a xlink:href="classvalue__set__pointer__abstract__objectt.html" target="_top" xlink:title=" ">
<polygon fill="white" stroke="#666666" points="648.5,-126 499.5,-126 499.5,-96 648.5,-96 648.5,-126"/>
<text text-anchor="start" x="507.5" y="-114" font-family="Helvetica,sans-Serif" font-size="10.00">value_set_pointer_abstract</text>
<text text-anchor="middle" x="574" y="-103" font-family="Helvetica,sans-Serif" font-size="10.00">_objectt</text>
</a>
</g>
</g>
<!-- Node13&#45;&gt;Node16 -->
<g id="edge15_Node000013_Node000016" class="edge">
<title>Node13&#45;&gt;Node16</title>
<g id="a_edge15_Node000013_Node000016"><a xlink:title=" ">
<path fill="none" stroke="#63b8ff" d="M465.32,-98.74C476.57,-100.02 488.12,-101.34 499.3,-102.61"/>
<polygon fill="#63b8ff" stroke="#63b8ff" points="465.44,-95.23 455.11,-97.58 464.65,-102.19 465.44,-95.23"/>
</a>
</g>
</g>
<!-- Node22 -->
<g id="Node000022" class="node">
<title>Node22</title>
<g id="a_Node000022"><a xlink:href="classabstract__value__tag.html" target="_top" xlink:title=" ">
<polygon fill="white" stroke="#666666" points="266,-218.5 156,-218.5 156,-199.5 266,-199.5 266,-218.5"/>
<text text-anchor="middle" x="211" y="-206.5" font-family="Helvetica,sans-Serif" font-size="10.00">abstract_value_tag</text>
</a>
</g>
</g>
<!-- Node19 -->
<g id="Node000019" class="node">
<title>Node19</title>
<g id="a_Node000019"><a xlink:href="classabstract__value__objectt.html" target="_top" xlink:title=" ">
<polygon fill="white" stroke="#666666" points="451.5,-218.5 323.5,-218.5 323.5,-199.5 451.5,-199.5 451.5,-218.5"/>
<text text-anchor="middle" x="387.5" y="-206.5" font-family="Helvetica,sans-Serif" font-size="10.00">abstract_value_objectt</text>
</a>
</g>
</g>
<!-- Node22&#45;&gt;Node19 -->
<g id="edge16_Node000022_Node000019" class="edge">
<title>Node22&#45;&gt;Node19</title>
<g id="a_edge16_Node000022_Node000019"><a xlink:title=" ">
<path fill="none" stroke="#63b8ff" d="M276.65,-209C291.93,-209 308.21,-209 323.42,-209"/>
<polygon fill="#63b8ff" stroke="#63b8ff" points="276.26,-205.5 266.26,-209 276.26,-212.5 276.26,-205.5"/>
</a>
</g>
</g>
<!-- Node20 -->
<g id="Node000020" class="node">
<title>Node20</title>
<g id="a_Node000020"><a xlink:href="classconstant__abstract__valuet.html" target="_top" xlink:title=" ">
<polygon fill="white" stroke="#666666" points="644,-211.5 504,-211.5 504,-192.5 644,-192.5 644,-211.5"/>
<text text-anchor="middle" x="574" y="-199.5" font-family="Helvetica,sans-Serif" font-size="10.00">constant_abstract_valuet</text>
</a>
</g>
</g>
<!-- Node19&#45;&gt;Node20 -->
<g id="edge17_Node000019_Node000020" class="edge">
<title>Node19&#45;&gt;Node20</title>
<g id="a_edge17_Node000019_Node000020"><a xlink:title=" ">
<path fill="none" stroke="#63b8ff" d="M462.13,-206.21C475.89,-205.68 490.23,-205.14 503.85,-204.62"/>
<polygon fill="#63b8ff" stroke="#63b8ff" points="461.6,-202.72 451.74,-206.6 461.86,-209.72 461.6,-202.72"/>
</a>
</g>
</g>
<!-- Node21 -->
<g id="Node000021" class="node">
<title>Node21</title>
<g id="a_Node000021"><a xlink:href="classinterval__abstract__valuet.html" target="_top" xlink:title=" ">
<polygon fill="white" stroke="#666666" points="641.5,-248.5 506.5,-248.5 506.5,-229.5 641.5,-229.5 641.5,-248.5"/>
<text text-anchor="middle" x="574" y="-236.5" font-family="Helvetica,sans-Serif" font-size="10.00">interval_abstract_valuet</text>
</a>
</g>
</g>
<!-- Node19&#45;&gt;Node21 -->
<g id="edge18_Node000019_Node000021" class="edge">
<title>Node19&#45;&gt;Node21</title>
<g id="a_edge18_Node000019_Node000021"><a xlink:title=" ">
<path fill="none" stroke="#63b8ff" d="M457.15,-220.16C476.01,-223.23 496.29,-226.53 514.52,-229.49"/>
<polygon fill="#63b8ff" stroke="#63b8ff" points="457.56,-216.68 447.13,-218.53 456.44,-223.59 457.56,-216.68"/>
</a>
</g>
</g>
<!-- Node18 -->
<g id="Node000018" class="node">
<title>Node18</title>
<g id="a_Node000018"><a xlink:href="classvalue__set__abstract__objectt.html" target="_top" xlink:title=" ">
<polygon fill="white" stroke="#666666" points="628.5,-174 519.5,-174 519.5,-144 628.5,-144 628.5,-174"/>
<text text-anchor="start" x="527.5" y="-162" font-family="Helvetica,sans-Serif" font-size="10.00">value_set_abstract</text>
<text text-anchor="middle" x="574" y="-151" font-family="Helvetica,sans-Serif" font-size="10.00">_objectt</text>
</a>
</g>
</g>
<!-- Node19&#45;&gt;Node18 -->
<g id="edge19_Node000019_Node000018" class="edge">
<title>Node19&#45;&gt;Node18</title>
<g id="a_edge19_Node000019_Node000018"><a xlink:title=" ">
<path fill="none" stroke="#63b8ff" d="M433.57,-196.78C459.5,-189.76 492.24,-180.89 519.47,-173.51"/>
<polygon fill="#63b8ff" stroke="#63b8ff" points="432.37,-193.48 423.64,-199.48 434.2,-200.24 432.37,-193.48"/>
</a>
</g>
</g>
<!-- Node28 -->
<g id="Node000028" class="node">
<title>Node28</title>
<g id="a_Node000028"><a xlink:title=" ">
<polygon fill="#e0e0e0" stroke="#999999" points="109,-393 0,-393 0,-363 109,-363 109,-393"/>
<text text-anchor="start" x="8" y="-381" font-family="Helvetica,sans-Serif" font-size="10.00">std::enable_shared</text>
<text text-anchor="middle" x="54.5" y="-370" font-family="Helvetica,sans-Serif" font-size="10.00">_from_this</text>
</a>
</g>
</g>
<!-- Node3 -->
<g id="Node000003" class="node">
<title>Node3</title>
<g id="a_Node000003"><a xlink:href="classabstract__objectt.html" target="_top" xlink:title=" ">
<polygon fill="white" stroke="#666666" points="258.5,-387.5 163.5,-387.5 163.5,-368.5 258.5,-368.5 258.5,-387.5"/>
<text text-anchor="middle" x="211" y="-375.5" font-family="Helvetica,sans-Serif" font-size="10.00">abstract_objectt</text>
</a>
</g>
</g>
<!-- Node28&#45;&gt;Node3 -->
<g id="edge20_Node000028_Node000003" class="edge">
<title>Node28&#45;&gt;Node3</title>
<g id="a_edge20_Node000028_Node000003"><a xlink:title=" ">
<path fill="none" stroke="#63b8ff" d="M119.22,-378C134.03,-378 149.53,-378 163.44,-378"/>
<polygon fill="#63b8ff" stroke="#63b8ff" points="119.1,-374.5 109.1,-378 119.1,-381.5 119.1,-374.5"/>
</a>
</g>
</g>
<!-- Node3&#45;&gt;Node1 -->
<g id="edge21_Node000003_Node000001" class="edge">
<title>Node3&#45;&gt;Node1</title>
<g id="a_edge21_Node000003_Node000001"><a xlink:title=" ">
<path fill="none" stroke="#63b8ff" d="M245.26,-364.66C266.82,-356.01 295.62,-344.46 321.6,-334.04"/>
<polygon fill="#63b8ff" stroke="#63b8ff" points="243.88,-361.44 235.9,-368.41 246.48,-367.94 243.88,-361.44"/>
</a>
</g>
</g>
<!-- Node3&#45;&gt;Node4 -->
<g id="edge22_Node000003_Node000004" class="edge">
<title>Node3&#45;&gt;Node4</title>
<g id="a_edge22_Node000003_Node000004"><a xlink:title=" ">
<path fill="none" stroke="#63b8ff" d="M229.12,-395.15C243.94,-410.96 264.84,-435.72 277,-461 307.1,-523.56 269.38,-558.99 313,-613 315.58,-616.19 318.51,-619.1 321.69,-621.77"/>
<polygon fill="#63b8ff" stroke="#63b8ff" points="231.46,-392.54 222.01,-387.75 226.41,-397.39 231.46,-392.54"/>
</a>
</g>
</g>
<!-- Node3&#45;&gt;Node6 -->
<g id="edge23_Node000003_Node000006" class="edge">
<title>Node3&#45;&gt;Node6</title>
<g id="a_edge23_Node000003_Node000006"><a xlink:title=" ">
<path fill="none" stroke="#63b8ff" d="M227.57,-395.2C241.69,-411.37 262.44,-436.66 277,-461 297.43,-495.16 285.29,-514.43 313,-543 316.15,-546.25 319.66,-549.23 323.39,-551.96"/>
<polygon fill="#63b8ff" stroke="#63b8ff" points="230.12,-392.79 220.87,-387.63 224.88,-397.44 230.12,-392.79"/>
</a>
</g>
</g>
<!-- Node3&#45;&gt;Node8 -->
<g id="edge24_Node000003_Node000008" class="edge">
<title>Node3&#45;&gt;Node8</title>
<g id="a_edge24_Node000003_Node000008"><a xlink:title=" ">
<path fill="none" stroke="#63b8ff" d="M245.26,-391.34C266.82,-399.99 295.62,-411.54 321.6,-421.96"/>
<polygon fill="#63b8ff" stroke="#63b8ff" points="246.48,-388.06 235.9,-387.59 243.88,-394.56 246.48,-388.06"/>
</a>
</g>
</g>
<!-- Node3&#45;&gt;Node10 -->
<g id="edge25_Node000003_Node000010" class="edge">
<title>Node3&#45;&gt;Node10</title>
<g id="a_edge25_Node000003_Node000010"><a xlink:title=" ">
<path fill="none" stroke="#63b8ff" d="M268.91,-378C283.93,-378 300.32,-378 315.96,-378"/>
<polygon fill="#63b8ff" stroke="#63b8ff" points="268.76,-374.5 258.76,-378 268.76,-381.5 268.76,-374.5"/>
</a>
</g>
</g>
<!-- Node3&#45;&gt;Node12 -->
<g id="edge26_Node000003_Node000012" class="edge">
<title>Node3&#45;&gt;Node12</title>
<g id="a_edge26_Node000003_Node000012"><a xlink:title=" ">
<path fill="none" stroke="#63b8ff" d="M225.27,-395.85C243.04,-418.7 276.6,-458.3 313,-483 318.02,-486.4 323.48,-489.53 329.09,-492.36"/>
<polygon fill="#63b8ff" stroke="#63b8ff" points="227.9,-393.53 219.05,-387.7 222.34,-397.78 227.9,-393.53"/>
</a>
</g>
</g>
<!-- Node3&#45;&gt;Node13 -->
<g id="edge27_Node000003_Node000013" class="edge">
<title>Node3&#45;&gt;Node13</title>
<g id="a_edge27_Node000003_Node000013"><a xlink:title=" ">
<path fill="none" stroke="#63b8ff" d="M220.87,-359.08C234.01,-330.73 259.01,-275.36 277,-227 295.53,-177.2 275.38,-150.52 313,-113 318.87,-107.15 326.21,-102.78 333.96,-99.52"/>
<polygon fill="#63b8ff" stroke="#63b8ff" points="217.66,-357.7 216.61,-368.25 224,-360.66 217.66,-357.7"/>
</a>
</g>
</g>
<!-- Node3&#45;&gt;Node19 -->
<g id="edge28_Node000003_Node000019" class="edge">
<title>Node3&#45;&gt;Node19</title>
<g id="a_edge28_Node000003_Node000019"><a xlink:title=" ">
<path fill="none" stroke="#63b8ff" d="M220.61,-359.02C235.33,-328.61 268.13,-268.97 313,-235 322.5,-227.81 334.15,-222.49 345.35,-218.61"/>
<polygon fill="#63b8ff" stroke="#63b8ff" points="217.26,-357.92 216.17,-368.46 223.59,-360.9 217.26,-357.92"/>
</a>
</g>
</g>
<!-- Node24 -->
<g id="Node000024" class="node">
<title>Node24</title>
<g id="a_Node000024"><a xlink:href="classcontext__abstract__objectt.html" target="_top" xlink:title=" ">
<polygon fill="white" stroke="#666666" points="456,-263.5 319,-263.5 319,-244.5 456,-244.5 456,-263.5"/>
<text text-anchor="middle" x="387.5" y="-251.5" font-family="Helvetica,sans-Serif" font-size="10.00">context_abstract_objectt</text>
</a>
</g>
</g>
<!-- Node3&#45;&gt;Node24 -->
<g id="edge29_Node000003_Node000024" class="edge">
<title>Node3&#45;&gt;Node24</title>
<g id="a_edge29_Node000003_Node000024"><a xlink:title=" ">
<path fill="none" stroke="#63b8ff" d="M224.26,-360.1C241.36,-336.52 274.64,-295.42 313,-273 319.6,-269.14 326.98,-266.06 334.45,-263.59"/>
<polygon fill="#63b8ff" stroke="#63b8ff" points="221.25,-358.29 218.33,-368.48 226.96,-362.34 221.25,-358.29"/>
</a>
</g>
</g>
<!-- Node25 -->
<g id="Node000025" class="node">
<title>Node25</title>
<g id="a_Node000025"><a xlink:href="classwrite__location__contextt.html" target="_top" xlink:title="General implementation of an abstract_objectt which tracks the last written locations for a given abs...">
<polygon fill="white" stroke="#666666" points="639.5,-285.5 508.5,-285.5 508.5,-266.5 639.5,-266.5 639.5,-285.5"/>
<text text-anchor="middle" x="574" y="-273.5" font-family="Helvetica,sans-Serif" font-size="10.00">write_location_contextt</text>
</a>
</g>
</g>
<!-- Node24&#45;&gt;Node25 -->
<g id="edge30_Node000024_Node000025" class="edge">
<title>Node24&#45;&gt;Node25</title>
<g id="a_edge30_Node000024_Node000025"><a xlink:title=" ">
<path fill="none" stroke="#63b8ff" d="M466.28,-263.27C480.32,-264.95 494.81,-266.68 508.43,-268.3"/>
<polygon fill="#63b8ff" stroke="#63b8ff" points="466.5,-259.78 456.15,-262.07 465.67,-266.73 466.5,-259.78"/>
</a>
</g>
</g>
<!-- Node26 -->
<g id="Node000026" class="node">
<title>Node26</title>
<g id="a_Node000026"><a xlink:href="classdata__dependency__contextt.html" target="_top" xlink:title=" ">
<polygon fill="white" stroke="#666666" points="835,-303.5 686,-303.5 686,-284.5 835,-284.5 835,-303.5"/>
<text text-anchor="middle" x="760.5" y="-291.5" font-family="Helvetica,sans-Serif" font-size="10.00">data_dependency_contextt</text>
</a>
</g>
</g>
<!-- Node25&#45;&gt;Node26 -->
<g id="edge31_Node000025_Node000026" class="edge">
<title>Node25&#45;&gt;Node26</title>
<g id="a_edge31_Node000025_Node000026"><a xlink:title=" ">
<path fill="none" stroke="#63b8ff" d="M649.48,-283.27C661.47,-284.44 673.88,-285.65 685.85,-286.81"/>
<polygon fill="#63b8ff" stroke="#63b8ff" points="649.82,-279.78 639.53,-282.3 649.14,-286.75 649.82,-279.78"/>
</a>
</g>
</g>
<!-- Node27 -->
<g id="Node000027" class="node">
<title>Node27</title>
<g id="a_Node000027"><a xlink:href="classliveness__contextt.html" target="_top" xlink:title="General implementation of an abstract_objectt which tracks the last written locations for a given abs...">
<polygon fill="white" stroke="#666666" points="812,-266.5 709,-266.5 709,-247.5 812,-247.5 812,-266.5"/>
<text text-anchor="middle" x="760.5" y="-254.5" font-family="Helvetica,sans-Serif" font-size="10.00">liveness_contextt</text>
</a>
</g>
</g>
<!-- Node25&#45;&gt;Node27 -->
<g id="edge32_Node000025_Node000027" class="edge">
<title>Node25&#45;&gt;Node27</title>
<g id="a_edge32_Node000025_Node000027"><a xlink:title=" ">
<path fill="none" stroke="#63b8ff" d="M649.53,-268.32C669.5,-266.27 690.62,-264.09 708.96,-262.2"/>
<polygon fill="#63b8ff" stroke="#63b8ff" points="649.12,-264.85 639.53,-269.35 649.84,-271.81 649.12,-264.85"/>
</a>
</g>
</g>
<!-- Node17 -->
<g id="Node000017" class="node">
<title>Node17</title>
<g id="a_Node000017"><a xlink:href="classvalue__set__tag.html" target="_top" xlink:title=" ">
<polygon fill="white" stroke="#666666" points="430,-141.5 345,-141.5 345,-122.5 430,-122.5 430,-141.5"/>
<text text-anchor="middle" x="387.5" y="-129.5" font-family="Helvetica,sans-Serif" font-size="10.00">value_set_tag</text>
</a>
</g>
</g>
<!-- Node17&#45;&gt;Node16 -->
<g id="edge34_Node000017_Node000016" class="edge">
<title>Node17&#45;&gt;Node16</title>
<g id="a_edge34_Node000017_Node000016"><a xlink:title=" ">
<path fill="none" stroke="#63b8ff" d="M440.51,-126.08C458.8,-124 479.7,-121.62 499.42,-119.38"/>
<polygon fill="#63b8ff" stroke="#63b8ff" points="439.91,-122.63 430.37,-127.23 440.7,-129.58 439.91,-122.63"/>
</a>
</g>
</g>
<!-- Node17&#45;&gt;Node18 -->
<g id="edge33_Node000017_Node000018" class="edge">
<title>Node17&#45;&gt;Node18</title>
<g id="a_edge33_Node000017_Node000018"><a xlink:title=" ">
<path fill="none" stroke="#63b8ff" d="M440.27,-139.58C464.95,-143.19 494.45,-147.51 519.37,-151.15"/>
<polygon fill="#63b8ff" stroke="#63b8ff" points="440.77,-136.11 430.37,-138.13 439.75,-143.04 440.77,-136.11"/>
</a>
</g>
</g>
</g>
</svg>
