<?xml version="1.0" encoding="UTF-8" standalone="no"?>
<!DOCTYPE svg PUBLIC "-//W3C//DTD SVG 1.1//EN"
 "http://www.w3.org/Graphics/SVG/1.1/DTD/svg11.dtd">
<!-- Generated by graphviz version 2.43.0 (0)
 -->
<!-- Title: Graphical Class Hierarchy Pages: 1 -->
<svg width="319pt" height="76pt"
 viewBox="0.00 0.00 319.00 75.50" xmlns="http://www.w3.org/2000/svg" xmlns:xlink="http://www.w3.org/1999/xlink">
<g id="graph0" class="graph" transform="scale(1 1) rotate(0) translate(4 71.5)">
<title>Graphical Class Hierarchy</title>
<!-- Node0 -->
<g id="Node000000" class="node">
<title>Node0</title>
<g id="a_Node000000"><a xlink:href="structabstract__objectt_1_1abstract__object__visitort.html" target="_top" xlink:title="Pure virtual interface required of a client that can apply a copy&#45;on&#45;write operation to a given abstr...">
<polygon fill="white" stroke="#666666" points="141,-51 0,-51 0,-21 141,-21 141,-51"/>
<text text-anchor="start" x="8" y="-39" font-family="Helvetica,sans-Serif" font-size="10.00">abstract_objectt::abstract</text>
<text text-anchor="middle" x="70.5" y="-28" font-family="Helvetica,sans-Serif" font-size="10.00">_object_visitort</text>
</a>
</g>
</g>
<!-- Node1 -->
<g id="Node000001" class="node">
<title>Node1</title>
<g id="a_Node000001"><a xlink:href="classlocation__update__visitort.html" target="_top" xlink:title=" ">
<polygon fill="white" stroke="#666666" points="311,-67.5 177,-67.5 177,-48.5 311,-48.5 311,-67.5"/>
<text text-anchor="middle" x="244" y="-55.5" font-family="Helvetica,sans-Serif" font-size="10.00">location_update_visitort</text>
</a>
</g>
</g>
<!-- Node0&#45;&gt;Node1 -->
<g id="edge38_Node000000_Node000001" class="edge">
<title>Node0&#45;&gt;Node1</title>
<g id="a_edge38_Node000000_Node000001"><a xlink:title=" ">
<path fill="none" stroke="#63b8ff" d="M151.27,-46.23C159.85,-47.33 168.51,-48.44 176.91,-49.52"/>
<polygon fill="#63b8ff" stroke="#63b8ff" points="151.62,-42.75 141.26,-44.95 150.73,-49.69 151.62,-42.75"/>
</a>
</g>
</g>
<!-- Node2 -->
<g id="Node000002" class="node">
<title>Node2</title>
<g id="a_Node000002"><a xlink:href="classmerge__location__update__visitort.html" target="_top" xlink:title=" ">
<polygon fill="white" stroke="#666666" points="309.5,-30 178.5,-30 178.5,0 309.5,0 309.5,-30"/>
<text text-anchor="start" x="186.5" y="-18" font-family="Helvetica,sans-Serif" font-size="10.00">merge_location_update</text>
<text text-anchor="middle" x="244" y="-7" font-family="Helvetica,sans-Serif" font-size="10.00">_visitort</text>
</a>
</g>
</g>
<!-- Node0&#45;&gt;Node2 -->
<g id="edge39_Node000000_Node000002" class="edge">
<title>Node0&#45;&gt;Node2</title>
<g id="a_edge39_Node000000_Node000002"><a xlink:title=" ">
<path fill="none" stroke="#63b8ff" d="M151.38,-26.22C160.39,-25.12 169.5,-24 178.29,-22.92"/>
<polygon fill="#63b8ff" stroke="#63b8ff" points="150.76,-22.77 141.26,-27.46 151.61,-29.72 150.76,-22.77"/>
</a>
</g>
</g>
</g>
</svg>
