<?xml version="1.0" encoding="UTF-8" standalone="no"?>
<!DOCTYPE svg PUBLIC "-//W3C//DTD SVG 1.1//EN"
 "http://www.w3.org/Graphics/SVG/1.1/DTD/svg11.dtd">
<!-- Generated by graphviz version 2.43.0 (0)
 -->
<!-- Title: Graphical Class Hierarchy Pages: 1 -->
<svg width="314pt" height="64pt"
 viewBox="0.00 0.00 314.00 64.00" xmlns="http://www.w3.org/2000/svg" xmlns:xlink="http://www.w3.org/1999/xlink">
<g id="graph0" class="graph" transform="scale(1 1) rotate(0) translate(4 60)">
<title>Graphical Class Hierarchy</title>
<!-- Node0 -->
<g id="Node000000" class="node">
<title>Node0</title>
<g id="a_Node000000"><a xlink:href="classcode__with__referencest.html" target="_top" xlink:title="Base class for code which can contain references which can get replaced before generating actual code...">
<polygon fill="white" stroke="#666666" points="127,-37 0,-37 0,-18 127,-18 127,-37"/>
<text text-anchor="middle" x="63.5" y="-25" font-family="Helvetica,sans-Serif" font-size="10.00">code_with_referencest</text>
</a>
</g>
</g>
<!-- Node1 -->
<g id="Node000001" class="node">
<title>Node1</title>
<g id="a_Node000001"><a xlink:href="classcode__without__referencest.html" target="_top" xlink:title="Code that should not contain reference.">
<polygon fill="white" stroke="#666666" points="306,-56 163,-56 163,-37 306,-37 306,-56"/>
<text text-anchor="middle" x="234.5" y="-44" font-family="Helvetica,sans-Serif" font-size="10.00">code_without_referencest</text>
</a>
</g>
</g>
<!-- Node0&#45;&gt;Node1 -->
<g id="edge133_Node000000_Node000001" class="edge">
<title>Node0&#45;&gt;Node1</title>
<g id="a_edge133_Node000000_Node000001"><a xlink:title=" ">
<path fill="none" stroke="#63b8ff" d="M137.56,-35.71C145.95,-36.66 154.49,-37.62 162.84,-38.56"/>
<polygon fill="#63b8ff" stroke="#63b8ff" points="137.76,-32.21 127.43,-34.57 136.98,-39.17 137.76,-32.21"/>
</a>
</g>
</g>
<!-- Node2 -->
<g id="Node000002" class="node">
<title>Node2</title>
<g id="a_Node000002"><a xlink:href="classreference__allocationt.html" target="_top" xlink:title="Allocation code which contains a reference.">
<polygon fill="white" stroke="#666666" points="294.5,-19 174.5,-19 174.5,0 294.5,0 294.5,-19"/>
<text text-anchor="middle" x="234.5" y="-7" font-family="Helvetica,sans-Serif" font-size="10.00">reference_allocationt</text>
</a>
</g>
</g>
<!-- Node0&#45;&gt;Node2 -->
<g id="edge134_Node000000_Node000002" class="edge">
<title>Node0&#45;&gt;Node2</title>
<g id="a_edge134_Node000000_Node000002"><a xlink:title=" ">
<path fill="none" stroke="#63b8ff" d="M137.65,-19.71C149.94,-18.4 162.56,-17.06 174.44,-15.79"/>
<polygon fill="#63b8ff" stroke="#63b8ff" points="137,-16.26 127.43,-20.8 137.74,-23.22 137,-16.26"/>
</a>
</g>
</g>
</g>
</svg>
