<?xml version="1.0" encoding="UTF-8" standalone="no"?>
<!DOCTYPE svg PUBLIC "-//W3C//DTD SVG 1.1//EN"
 "http://www.w3.org/Graphics/SVG/1.1/DTD/svg11.dtd">
<!-- Generated by graphviz version 2.43.0 (0)
 -->
<!-- Title: Graphical Class Hierarchy Pages: 1 -->
<svg width="809pt" height="651pt"
 viewBox="0.00 0.00 809.00 650.50" xmlns="http://www.w3.org/2000/svg" xmlns:xlink="http://www.w3.org/1999/xlink">
<g id="graph0" class="graph" transform="scale(1 1) rotate(0) translate(4 646.5)">
<title>Graphical Class Hierarchy</title>
<!-- Node0 -->
<g id="Node000000" class="node">
<title>Node0</title>
<g id="a_Node000000"><a xlink:href="classai__baset.html" target="_top" xlink:title="This is the basic interface of the abstract interpreter with default implementations of the core func...">
<polygon fill="white" stroke="#666666" points="58,-423.5 0,-423.5 0,-404.5 58,-404.5 58,-423.5"/>
<text text-anchor="middle" x="29" y="-411.5" font-family="Helvetica,sans-Serif" font-size="10.00">ai_baset</text>
</a>
</g>
</g>
<!-- Node1 -->
<g id="Node000001" class="node">
<title>Node1</title>
<g id="a_Node000001"><a xlink:href="classai__recursive__interproceduralt.html" target="_top" xlink:title=" ">
<polygon fill="white" stroke="#666666" points="253,-423.5 94,-423.5 94,-404.5 253,-404.5 253,-423.5"/>
<text text-anchor="middle" x="173.5" y="-411.5" font-family="Helvetica,sans-Serif" font-size="10.00">ai_recursive_interproceduralt</text>
</a>
</g>
</g>
<!-- Node0&#45;&gt;Node1 -->
<g id="edge40_Node000000_Node000001" class="edge">
<title>Node0&#45;&gt;Node1</title>
<g id="a_edge40_Node000000_Node000001"><a xlink:title=" ">
<path fill="none" stroke="#63b8ff" d="M68.22,-414C76.23,-414 84.96,-414 93.84,-414"/>
<polygon fill="#63b8ff" stroke="#63b8ff" points="68.15,-410.5 58.15,-414 68.15,-417.5 68.15,-410.5"/>
</a>
</g>
</g>
<!-- Node2 -->
<g id="Node000002" class="node">
<title>Node2</title>
<g id="a_Node000002"><a xlink:href="classait.html" target="_top" xlink:title=" ">
<polygon fill="white" stroke="#666666" points="446,-520 305,-520 305,-490 446,-490 446,-520"/>
<text text-anchor="start" x="313" y="-508" font-family="Helvetica,sans-Serif" font-size="10.00">ait&lt; constant_propagator</text>
<text text-anchor="middle" x="375.5" y="-497" font-family="Helvetica,sans-Serif" font-size="10.00">_domaint &gt;</text>
</a>
</g>
</g>
<!-- Node1&#45;&gt;Node2 -->
<g id="edge41_Node000001_Node000002" class="edge">
<title>Node1&#45;&gt;Node2</title>
<g id="a_edge41_Node000001_Node000002"><a xlink:title=" ">
<path fill="none" stroke="#63b8ff" d="M196.81,-429.38C219.25,-444.28 255.28,-466.68 289,-481 296.81,-484.31 305.2,-487.31 313.58,-489.98"/>
<polygon fill="#63b8ff" stroke="#63b8ff" points="198.59,-426.37 188.34,-423.69 194.69,-432.17 198.59,-426.37"/>
</a>
</g>
</g>
<!-- Node4 -->
<g id="Node000004" class="node">
<title>Node4</title>
<g id="a_Node000004"><a xlink:href="classait.html" target="_top" xlink:title=" ">
<polygon fill="white" stroke="#666666" points="438,-472 313,-472 313,-442 438,-442 438,-472"/>
<text text-anchor="start" x="321" y="-460" font-family="Helvetica,sans-Serif" font-size="10.00">ait&lt; custom_bitvector</text>
<text text-anchor="middle" x="375.5" y="-449" font-family="Helvetica,sans-Serif" font-size="10.00">_domaint &gt;</text>
</a>
</g>
</g>
<!-- Node1&#45;&gt;Node4 -->
<g id="edge43_Node000001_Node000004" class="edge">
<title>Node1&#45;&gt;Node4</title>
<g id="a_edge43_Node000001_Node000004"><a xlink:title=" ">
<path fill="none" stroke="#63b8ff" d="M228.92,-425.7C254.85,-431.27 285.98,-437.97 312.79,-443.73"/>
<polygon fill="#63b8ff" stroke="#63b8ff" points="229.4,-422.22 218.89,-423.54 227.93,-429.07 229.4,-422.22"/>
</a>
</g>
</g>
<!-- Node6 -->
<g id="Node000006" class="node">
<title>Node6</title>
<g id="a_Node000006"><a xlink:href="classait.html" target="_top" xlink:title=" ">
<polygon fill="white" stroke="#666666" points="450,-386.5 301,-386.5 301,-367.5 450,-367.5 450,-386.5"/>
<text text-anchor="middle" x="375.5" y="-374.5" font-family="Helvetica,sans-Serif" font-size="10.00">ait&lt; dep_graph_domaint &gt;</text>
</a>
</g>
</g>
<!-- Node1&#45;&gt;Node6 -->
<g id="edge45_Node000001_Node000006" class="edge">
<title>Node1&#45;&gt;Node6</title>
<g id="a_edge45_Node000001_Node000006"><a xlink:title=" ">
<path fill="none" stroke="#63b8ff" d="M236.02,-402.62C263.82,-397.48 296.3,-391.47 322.82,-386.56"/>
<polygon fill="#63b8ff" stroke="#63b8ff" points="235.2,-399.21 226,-404.47 236.47,-406.09 235.2,-399.21"/>
</a>
</g>
</g>
<!-- Node9 -->
<g id="Node000009" class="node">
<title>Node9</title>
<g id="a_Node000009"><a xlink:href="classait.html" target="_top" xlink:title=" ">
<polygon fill="white" stroke="#666666" points="441.5,-423.5 309.5,-423.5 309.5,-404.5 441.5,-404.5 441.5,-423.5"/>
<text text-anchor="middle" x="375.5" y="-411.5" font-family="Helvetica,sans-Serif" font-size="10.00">ait&lt; escape_domaint &gt;</text>
</a>
</g>
</g>
<!-- Node1&#45;&gt;Node9 -->
<g id="edge47_Node000001_Node000009" class="edge">
<title>Node1&#45;&gt;Node9</title>
<g id="a_edge47_Node000001_Node000009"><a xlink:title=" ">
<path fill="none" stroke="#63b8ff" d="M263.36,-414C278.83,-414 294.67,-414 309.36,-414"/>
<polygon fill="#63b8ff" stroke="#63b8ff" points="263.26,-410.5 253.26,-414 263.26,-417.5 263.26,-410.5"/>
</a>
</g>
</g>
<!-- Node11 -->
<g id="Node000011" class="node">
<title>Node11</title>
<g id="a_Node000011"><a xlink:href="classait.html" target="_top" xlink:title=" ">
<polygon fill="white" stroke="#666666" points="438.5,-238 312.5,-238 312.5,-208 438.5,-208 438.5,-238"/>
<text text-anchor="start" x="320.5" y="-226" font-family="Helvetica,sans-Serif" font-size="10.00">ait&lt; global_may_alias</text>
<text text-anchor="middle" x="375.5" y="-215" font-family="Helvetica,sans-Serif" font-size="10.00">_domaint &gt;</text>
</a>
</g>
</g>
<!-- Node1&#45;&gt;Node11 -->
<g id="edge49_Node000001_Node000011" class="edge">
<title>Node1&#45;&gt;Node11</title>
<g id="a_edge49_Node000001_Node000011"><a xlink:title=" ">
<path fill="none" stroke="#63b8ff" d="M182.29,-394.85C197.46,-359.99 234.36,-286.15 289,-247 296.02,-241.97 304.06,-237.99 312.33,-234.85"/>
<polygon fill="#63b8ff" stroke="#63b8ff" points="178.95,-393.76 178.28,-404.34 185.4,-396.49 178.95,-393.76"/>
</a>
</g>
</g>
<!-- Node13 -->
<g id="Node000013" class="node">
<title>Node13</title>
<g id="a_Node000013"><a xlink:href="classait.html" target="_top" xlink:title=" ">
<polygon fill="white" stroke="#666666" points="427.5,-190 323.5,-190 323.5,-160 427.5,-160 427.5,-190"/>
<text text-anchor="start" x="331.5" y="-178" font-family="Helvetica,sans-Serif" font-size="10.00">ait&lt; invariant_set</text>
<text text-anchor="middle" x="375.5" y="-167" font-family="Helvetica,sans-Serif" font-size="10.00">_domaint &gt;</text>
</a>
</g>
</g>
<!-- Node1&#45;&gt;Node13 -->
<g id="edge51_Node000001_Node000013" class="edge">
<title>Node1&#45;&gt;Node13</title>
<g id="a_edge51_Node000001_Node000013"><a xlink:title=" ">
<path fill="none" stroke="#63b8ff" d="M179.37,-394.16C190.85,-351.68 223.67,-251.57 289,-199 298.85,-191.07 311.16,-185.76 323.35,-182.21"/>
<polygon fill="#63b8ff" stroke="#63b8ff" points="175.92,-393.53 176.8,-404.09 182.7,-395.29 175.92,-393.53"/>
</a>
</g>
</g>
<!-- Node15 -->
<g id="Node000015" class="node">
<title>Node15</title>
<g id="a_Node000015"><a xlink:href="classait.html" target="_top" xlink:title=" ">
<polygon fill="white" stroke="#666666" points="445.5,-642.5 305.5,-642.5 305.5,-623.5 445.5,-623.5 445.5,-642.5"/>
<text text-anchor="middle" x="375.5" y="-630.5" font-family="Helvetica,sans-Serif" font-size="10.00">ait&lt; rd_range_domaint &gt;</text>
</a>
</g>
</g>
<!-- Node1&#45;&gt;Node15 -->
<g id="edge53_Node000001_Node000015" class="edge">
<title>Node1&#45;&gt;Node15</title>
<g id="a_edge53_Node000001_Node000015"><a xlink:title=" ">
<path fill="none" stroke="#63b8ff" d="M179.77,-433.71C191.75,-474.53 225.1,-568.39 289,-615 293.9,-618.58 299.36,-621.47 305.08,-623.82"/>
<polygon fill="#63b8ff" stroke="#63b8ff" points="183.08,-432.58 177,-423.9 176.35,-434.47 183.08,-432.58"/>
</a>
</g>
</g>
<!-- Node16 -->
<g id="Node000016" class="node">
<title>Node16</title>
<g id="a_Node000016"><a xlink:href="classait.html" target="_top" xlink:title=" ">
<polygon fill="white" stroke="#666666" points="414.5,-141.5 336.5,-141.5 336.5,-122.5 414.5,-122.5 414.5,-141.5"/>
<text text-anchor="middle" x="375.5" y="-129.5" font-family="Helvetica,sans-Serif" font-size="10.00">ait&lt; VSDT &gt;</text>
</a>
</g>
</g>
<!-- Node1&#45;&gt;Node16 -->
<g id="edge54_Node000001_Node000016" class="edge">
<title>Node1&#45;&gt;Node16</title>
<g id="a_edge54_Node000001_Node000016"><a xlink:title=" ">
<path fill="none" stroke="#63b8ff" d="M176.99,-394.26C184.3,-344.97 210.39,-215.8 289,-151 302.14,-140.17 320.15,-135.18 336.25,-132.99"/>
<polygon fill="#63b8ff" stroke="#63b8ff" points="173.51,-393.87 175.61,-404.26 180.44,-394.83 173.51,-393.87"/>
</a>
</g>
</g>
<!-- Node23 -->
<g id="Node000023" class="node">
<title>Node23</title>
<g id="a_Node000023"><a xlink:href="classait.html" target="_top" xlink:title=" ">
<polygon fill="white" stroke="#666666" points="426,-568 325,-568 325,-538 426,-538 426,-568"/>
<text text-anchor="start" x="333" y="-556" font-family="Helvetica,sans-Serif" font-size="10.00">ait&lt; uninitialized</text>
<text text-anchor="middle" x="375.5" y="-545" font-family="Helvetica,sans-Serif" font-size="10.00">_domaint &gt;</text>
</a>
</g>
</g>
<!-- Node1&#45;&gt;Node23 -->
<g id="edge56_Node000001_Node000023" class="edge">
<title>Node1&#45;&gt;Node23</title>
<g id="a_edge56_Node000001_Node000023"><a xlink:title=" ">
<path fill="none" stroke="#63b8ff" d="M187.53,-432.02C206.85,-457.41 245.5,-503.48 289,-529 299.9,-535.4 312.59,-540.16 324.81,-543.68"/>
<polygon fill="#63b8ff" stroke="#63b8ff" points="190.1,-429.61 181.32,-423.68 184.49,-433.79 190.1,-429.61"/>
</a>
</g>
</g>
<!-- Node24 -->
<g id="Node000024" class="node">
<title>Node24</title>
<g id="a_Node000024"><a xlink:href="classai__three__way__merget.html" target="_top" xlink:title=" ">
<polygon fill="white" stroke="#666666" points="436.5,-275.5 314.5,-275.5 314.5,-256.5 436.5,-256.5 436.5,-275.5"/>
<text text-anchor="middle" x="375.5" y="-263.5" font-family="Helvetica,sans-Serif" font-size="10.00">ai_three_way_merget</text>
</a>
</g>
</g>
<!-- Node1&#45;&gt;Node24 -->
<g id="edge57_Node000001_Node000024" class="edge">
<title>Node1&#45;&gt;Node24</title>
<g id="a_edge57_Node000001_Node000024"><a xlink:title=" ">
<path fill="none" stroke="#63b8ff" d="M185.18,-395.64C202.89,-366.95 241.15,-311.91 289,-284 296.73,-279.49 305.44,-276.1 314.26,-273.56"/>
<polygon fill="#63b8ff" stroke="#63b8ff" points="182.14,-393.9 179.98,-404.28 188.14,-397.51 182.14,-393.9"/>
</a>
</g>
</g>
<!-- Node27 -->
<g id="Node000027" class="node">
<title>Node27</title>
<g id="a_Node000027"><a xlink:href="classait.html" target="_top" xlink:title="ait supplies three of the four components needed: an abstract interpreter (in this case handling func...">
<polygon fill="white" stroke="#666666" points="423,-605.5 328,-605.5 328,-586.5 423,-586.5 423,-605.5"/>
<text text-anchor="middle" x="375.5" y="-593.5" font-family="Helvetica,sans-Serif" font-size="10.00">ait&lt; domainT &gt;</text>
</a>
</g>
</g>
<!-- Node1&#45;&gt;Node27 -->
<g id="edge59_Node000001_Node000027" class="edge">
<title>Node1&#45;&gt;Node27</title>
<g id="a_edge59_Node000001_Node000027"><a xlink:title=" ">
<path fill="none" stroke="#63b8ff" d="M182.22,-432.98C197.28,-467.48 234,-540.29 289,-577 300.38,-584.6 314.33,-589.2 327.63,-591.98"/>
<polygon fill="#63b8ff" stroke="#63b8ff" points="185.36,-431.43 178.24,-423.58 178.92,-434.16 185.36,-431.43"/>
</a>
</g>
</g>
<!-- Node3 -->
<g id="Node000003" class="node">
<title>Node3</title>
<g id="a_Node000003"><a xlink:href="classconstant__propagator__ait.html" target="_top" xlink:title=" ">
<polygon fill="white" stroke="#666666" points="641.5,-514.5 506.5,-514.5 506.5,-495.5 641.5,-495.5 641.5,-514.5"/>
<text text-anchor="middle" x="574" y="-502.5" font-family="Helvetica,sans-Serif" font-size="10.00">constant_propagator_ait</text>
</a>
</g>
</g>
<!-- Node2&#45;&gt;Node3 -->
<g id="edge42_Node000002_Node000003" class="edge">
<title>Node2&#45;&gt;Node3</title>
<g id="a_edge42_Node000002_Node000003"><a xlink:title=" ">
<path fill="none" stroke="#63b8ff" d="M456.26,-505C472.83,-505 490.13,-505 506.18,-505"/>
<polygon fill="#63b8ff" stroke="#63b8ff" points="456.06,-501.5 446.06,-505 456.06,-508.5 456.06,-501.5"/>
</a>
</g>
</g>
<!-- Node5 -->
<g id="Node000005" class="node">
<title>Node5</title>
<g id="a_Node000005"><a xlink:href="classcustom__bitvector__analysist.html" target="_top" xlink:title=" ">
<polygon fill="white" stroke="#666666" points="649.5,-466.5 498.5,-466.5 498.5,-447.5 649.5,-447.5 649.5,-466.5"/>
<text text-anchor="middle" x="574" y="-454.5" font-family="Helvetica,sans-Serif" font-size="10.00">custom_bitvector_analysist</text>
</a>
</g>
</g>
<!-- Node4&#45;&gt;Node5 -->
<g id="edge44_Node000004_Node000005" class="edge">
<title>Node4&#45;&gt;Node5</title>
<g id="a_edge44_Node000004_Node000005"><a xlink:title=" ">
<path fill="none" stroke="#63b8ff" d="M448.17,-457C464.55,-457 481.99,-457 498.48,-457"/>
<polygon fill="#63b8ff" stroke="#63b8ff" points="448.13,-453.5 438.13,-457 448.13,-460.5 448.13,-453.5"/>
</a>
</g>
</g>
<!-- Node7 -->
<g id="Node000007" class="node">
<title>Node7</title>
<g id="a_Node000007"><a xlink:href="classdependence__grapht.html" target="_top" xlink:title=" ">
<polygon fill="white" stroke="#666666" points="630.5,-359.5 517.5,-359.5 517.5,-340.5 630.5,-340.5 630.5,-359.5"/>
<text text-anchor="middle" x="574" y="-347.5" font-family="Helvetica,sans-Serif" font-size="10.00">dependence_grapht</text>
</a>
</g>
</g>
<!-- Node6&#45;&gt;Node7 -->
<g id="edge46_Node000006_Node000007" class="edge">
<title>Node6&#45;&gt;Node7</title>
<g id="a_edge46_Node000006_Node000007"><a xlink:title=" ">
<path fill="none" stroke="#63b8ff" d="M455.79,-366.11C476.4,-363.27 498.17,-360.28 517.28,-357.66"/>
<polygon fill="#63b8ff" stroke="#63b8ff" points="455.21,-362.65 445.78,-367.48 456.16,-369.59 455.21,-362.65"/>
</a>
</g>
</g>
<!-- Node10 -->
<g id="Node000010" class="node">
<title>Node10</title>
<g id="a_Node000010"><a xlink:href="classescape__analysist.html" target="_top" xlink:title=" ">
<polygon fill="white" stroke="#666666" points="624.5,-423.5 523.5,-423.5 523.5,-404.5 624.5,-404.5 624.5,-423.5"/>
<text text-anchor="middle" x="574" y="-411.5" font-family="Helvetica,sans-Serif" font-size="10.00">escape_analysist</text>
</a>
</g>
</g>
<!-- Node9&#45;&gt;Node10 -->
<g id="edge48_Node000009_Node000010" class="edge">
<title>Node9&#45;&gt;Node10</title>
<g id="a_edge48_Node000009_Node000010"><a xlink:title=" ">
<path fill="none" stroke="#63b8ff" d="M451.78,-414C475.72,-414 501.59,-414 523.26,-414"/>
<polygon fill="#63b8ff" stroke="#63b8ff" points="451.66,-410.5 441.66,-414 451.66,-417.5 451.66,-410.5"/>
</a>
</g>
</g>
<!-- Node12 -->
<g id="Node000012" class="node">
<title>Node12</title>
<g id="a_Node000012"><a xlink:href="classglobal__may__alias__analysist.html" target="_top" xlink:title="This is a may analysis (i.e.">
<polygon fill="white" stroke="#666666" points="650,-232.5 498,-232.5 498,-213.5 650,-213.5 650,-232.5"/>
<text text-anchor="middle" x="574" y="-220.5" font-family="Helvetica,sans-Serif" font-size="10.00">global_may_alias_analysist</text>
</a>
</g>
</g>
<!-- Node11&#45;&gt;Node12 -->
<g id="edge50_Node000011_Node000012" class="edge">
<title>Node11&#45;&gt;Node12</title>
<g id="a_edge50_Node000011_Node000012"><a xlink:title=" ">
<path fill="none" stroke="#63b8ff" d="M448.97,-223C464.89,-223 481.78,-223 497.8,-223"/>
<polygon fill="#63b8ff" stroke="#63b8ff" points="448.67,-219.5 438.67,-223 448.67,-226.5 448.67,-219.5"/>
</a>
</g>
</g>
<!-- Node14 -->
<g id="Node000014" class="node">
<title>Node14</title>
<g id="a_Node000014"><a xlink:href="classinvariant__propagationt.html" target="_top" xlink:title=" ">
<polygon fill="white" stroke="#666666" points="638,-184.5 510,-184.5 510,-165.5 638,-165.5 638,-184.5"/>
<text text-anchor="middle" x="574" y="-172.5" font-family="Helvetica,sans-Serif" font-size="10.00">invariant_propagationt</text>
</a>
</g>
</g>
<!-- Node13&#45;&gt;Node14 -->
<g id="edge52_Node000013_Node000014" class="edge">
<title>Node13&#45;&gt;Node14</title>
<g id="a_edge52_Node000013_Node000014"><a xlink:title=" ">
<path fill="none" stroke="#63b8ff" d="M437.89,-175C460.78,-175 486.8,-175 509.85,-175"/>
<polygon fill="#63b8ff" stroke="#63b8ff" points="437.62,-171.5 427.62,-175 437.62,-178.5 437.62,-171.5"/>
</a>
</g>
</g>
<!-- Node17 -->
<g id="Node000017" class="node">
<title>Node17</title>
<g id="a_Node000017"><a xlink:href="classvalue__set__analysis__templatet.html" target="_top" xlink:title="This template class implements a data&#45;flow analysis which keeps track of what values different variab...">
<polygon fill="white" stroke="#666666" points="633.5,-147 514.5,-147 514.5,-117 633.5,-117 633.5,-147"/>
<text text-anchor="start" x="522.5" y="-135" font-family="Helvetica,sans-Serif" font-size="10.00">value_set_analysis</text>
<text text-anchor="middle" x="574" y="-124" font-family="Helvetica,sans-Serif" font-size="10.00">_templatet&lt; VSDT &gt;</text>
</a>
</g>
</g>
<!-- Node16&#45;&gt;Node17 -->
<g id="edge55_Node000016_Node000017" class="edge">
<title>Node16&#45;&gt;Node17</title>
<g id="a_edge55_Node000016_Node000017"><a xlink:title=" ">
<path fill="none" stroke="#63b8ff" d="M425.2,-132C452.15,-132 485.83,-132 514.23,-132"/>
<polygon fill="#63b8ff" stroke="#63b8ff" points="424.85,-128.5 414.85,-132 424.85,-135.5 424.85,-128.5"/>
</a>
</g>
</g>
<!-- Node25 -->
<g id="Node000025" class="node">
<title>Node25</title>
<g id="a_Node000025"><a xlink:href="classvariable__sensitivity__dependence__grapht.html" target="_top" xlink:title=" ">
<polygon fill="white" stroke="#666666" points="633,-307 515,-307 515,-277 633,-277 633,-307"/>
<text text-anchor="start" x="523" y="-295" font-family="Helvetica,sans-Serif" font-size="10.00">variable_sensitivity</text>
<text text-anchor="middle" x="574" y="-284" font-family="Helvetica,sans-Serif" font-size="10.00">_dependence_grapht</text>
</a>
</g>
</g>
<!-- Node24&#45;&gt;Node25 -->
<g id="edge58_Node000024_Node000025" class="edge">
<title>Node24&#45;&gt;Node25</title>
<g id="a_edge58_Node000024_Node000025"><a xlink:title=" ">
<path fill="none" stroke="#63b8ff" d="M446.6,-275.28C468.9,-278.23 493.32,-281.46 514.69,-284.28"/>
<polygon fill="#63b8ff" stroke="#63b8ff" points="446.9,-271.78 436.52,-273.94 445.98,-278.72 446.9,-271.78"/>
</a>
</g>
</g>
<!-- Node28 -->
<g id="Node000028" class="node">
<title>Node28</title>
<g id="a_Node000028"><a xlink:href="classconcurrency__aware__ait.html" target="_top" xlink:title=" ">
<polygon fill="white" stroke="#666666" points="638.5,-611 509.5,-611 509.5,-581 638.5,-581 638.5,-611"/>
<text text-anchor="start" x="517.5" y="-599" font-family="Helvetica,sans-Serif" font-size="10.00">concurrency_aware_ait</text>
<text text-anchor="middle" x="574" y="-588" font-family="Helvetica,sans-Serif" font-size="10.00">&lt; rd_range_domaint &gt;</text>
</a>
</g>
</g>
<!-- Node27&#45;&gt;Node28 -->
<g id="edge60_Node000027_Node000028" class="edge">
<title>Node27&#45;&gt;Node28</title>
<g id="a_edge60_Node000027_Node000028"><a xlink:title=" ">
<path fill="none" stroke="#63b8ff" d="M433.34,-596C457.11,-596 484.84,-596 509.3,-596"/>
<polygon fill="#63b8ff" stroke="#63b8ff" points="433.07,-592.5 423.07,-596 433.07,-599.5 433.07,-592.5"/>
</a>
</g>
</g>
<!-- Node31 -->
<g id="Node000031" class="node">
<title>Node31</title>
<g id="a_Node000031"><a xlink:href="classconcurrency__aware__ait.html" target="_top" xlink:title="Base class for concurrency&#45;aware abstract interpretation.">
<polygon fill="white" stroke="#666666" points="638.5,-563 509.5,-563 509.5,-533 638.5,-533 638.5,-563"/>
<text text-anchor="start" x="517.5" y="-551" font-family="Helvetica,sans-Serif" font-size="10.00">concurrency_aware_ait</text>
<text text-anchor="middle" x="574" y="-540" font-family="Helvetica,sans-Serif" font-size="10.00">&lt; domainT &gt;</text>
</a>
</g>
</g>
<!-- Node27&#45;&gt;Node31 -->
<g id="edge62_Node000027_Node000031" class="edge">
<title>Node27&#45;&gt;Node31</title>
<g id="a_edge62_Node000027_Node000031"><a xlink:title=" ">
<path fill="none" stroke="#63b8ff" d="M430.75,-584.26C441.14,-581.92 451.92,-579.44 462,-577 480.01,-572.65 499.58,-567.63 517.2,-563.01"/>
<polygon fill="#63b8ff" stroke="#63b8ff" points="429.95,-580.85 420.95,-586.45 431.47,-587.69 429.95,-580.85"/>
</a>
</g>
</g>
<!-- Node29 -->
<g id="Node000029" class="node">
<title>Node29</title>
<g id="a_Node000029"><a xlink:href="classreaching__definitions__analysist.html" target="_top" xlink:title=" ">
<polygon fill="white" stroke="#666666" points="801,-336 686,-336 686,-306 801,-306 801,-336"/>
<text text-anchor="start" x="694" y="-324" font-family="Helvetica,sans-Serif" font-size="10.00">reaching_definitions</text>
<text text-anchor="middle" x="743.5" y="-313" font-family="Helvetica,sans-Serif" font-size="10.00">_analysist</text>
</a>
</g>
</g>
<!-- Node28&#45;&gt;Node29 -->
<g id="edge61_Node000028_Node000029" class="edge">
<title>Node28&#45;&gt;Node29</title>
<g id="a_edge61_Node000028_Node000029"><a xlink:title=" ">
<path fill="none" stroke="#63b8ff" d="M646.53,-575.05C647.73,-574.08 648.89,-573.06 650,-572 720.27,-504.71 737.48,-379.46 741.41,-336.18"/>
<polygon fill="#63b8ff" stroke="#63b8ff" points="644.36,-572.29 638.09,-580.83 648.32,-578.07 644.36,-572.29"/>
</a>
</g>
</g>
<!-- Node21 -->
<g id="Node000021" class="node">
<title>Node21</title>
<g id="a_Node000021"><a xlink:href="classflow__insensitive__analysis__baset.html" target="_top" xlink:title=" ">
<polygon fill="white" stroke="#666666" points="244,-52 103,-52 103,-22 244,-22 244,-52"/>
<text text-anchor="start" x="111" y="-40" font-family="Helvetica,sans-Serif" font-size="10.00">flow_insensitive_analysis</text>
<text text-anchor="middle" x="173.5" y="-29" font-family="Helvetica,sans-Serif" font-size="10.00">_baset</text>
</a>
</g>
</g>
<!-- Node20 -->
<g id="Node000020" class="node">
<title>Node20</title>
<g id="a_Node000020"><a xlink:href="classflow__insensitive__analysist.html" target="_top" xlink:title=" ">
<polygon fill="white" stroke="#666666" points="448,-30 303,-30 303,0 448,0 448,-30"/>
<text text-anchor="start" x="311" y="-18" font-family="Helvetica,sans-Serif" font-size="10.00">flow_insensitive_analysist</text>
<text text-anchor="middle" x="375.5" y="-7" font-family="Helvetica,sans-Serif" font-size="10.00">&lt; value_set_domain_fit &gt;</text>
</a>
</g>
</g>
<!-- Node21&#45;&gt;Node20 -->
<g id="edge63_Node000021_Node000020" class="edge">
<title>Node21&#45;&gt;Node20</title>
<g id="a_edge63_Node000021_Node000020"><a xlink:title=" ">
<path fill="none" stroke="#63b8ff" d="M254.52,-28.2C270.44,-26.45 287.08,-24.62 302.71,-22.9"/>
<polygon fill="#63b8ff" stroke="#63b8ff" points="253.73,-24.76 244.17,-29.34 254.49,-31.72 253.73,-24.76"/>
</a>
</g>
</g>
<!-- Node22 -->
<g id="Node000022" class="node">
<title>Node22</title>
<g id="a_Node000022"><a xlink:href="classflow__insensitive__analysist.html" target="_top" xlink:title=" ">
<polygon fill="white" stroke="#666666" points="462,-67.5 289,-67.5 289,-48.5 462,-48.5 462,-67.5"/>
<text text-anchor="middle" x="375.5" y="-55.5" font-family="Helvetica,sans-Serif" font-size="10.00">flow_insensitive_analysist&lt; T &gt;</text>
</a>
</g>
</g>
<!-- Node21&#45;&gt;Node22 -->
<g id="edge65_Node000021_Node000022" class="edge">
<title>Node21&#45;&gt;Node22</title>
<g id="a_edge65_Node000021_Node000022"><a xlink:title=" ">
<path fill="none" stroke="#63b8ff" d="M254.45,-45.39C265.78,-46.58 277.46,-47.81 288.88,-49.01"/>
<polygon fill="#63b8ff" stroke="#63b8ff" points="254.48,-41.88 244.17,-44.32 253.75,-48.84 254.48,-41.88"/>
</a>
</g>
</g>
<!-- Node19 -->
<g id="Node000019" class="node">
<title>Node19</title>
<g id="a_Node000019"><a xlink:href="classvalue__set__analysis__fit.html" target="_top" xlink:title=" ">
<polygon fill="white" stroke="#666666" points="636.5,-98.5 511.5,-98.5 511.5,-79.5 636.5,-79.5 636.5,-98.5"/>
<text text-anchor="middle" x="574" y="-86.5" font-family="Helvetica,sans-Serif" font-size="10.00">value_set_analysis_fit</text>
</a>
</g>
</g>
<!-- Node20&#45;&gt;Node19 -->
<g id="edge64_Node000020_Node000019" class="edge">
<title>Node20&#45;&gt;Node19</title>
<g id="a_edge64_Node000020_Node000019"><a xlink:title=" ">
<path fill="none" stroke="#63b8ff" d="M451.11,-33.78C454.85,-35.39 458.51,-37.13 462,-39 480.61,-48.98 479.27,-60.26 498,-70 505.39,-73.84 513.6,-76.94 521.8,-79.42"/>
<polygon fill="#63b8ff" stroke="#63b8ff" points="452.23,-30.45 441.64,-30.02 449.65,-36.96 452.23,-30.45"/>
</a>
</g>
</g>
<!-- Node8 -->
<g id="Node000008" class="node">
<title>Node8</title>
<g id="a_Node000008"><a xlink:href="classgrapht.html" target="_top" xlink:title=" ">
<polygon fill="white" stroke="#666666" points="436.5,-349.5 314.5,-349.5 314.5,-330.5 436.5,-330.5 436.5,-349.5"/>
<text text-anchor="middle" x="375.5" y="-337.5" font-family="Helvetica,sans-Serif" font-size="10.00">grapht&lt; dep_nodet &gt;</text>
</a>
</g>
</g>
<!-- Node8&#45;&gt;Node7 -->
<g id="edge66_Node000008_Node000007" class="edge">
<title>Node8&#45;&gt;Node7</title>
<g id="a_edge66_Node000008_Node000007"><a xlink:title=" ">
<path fill="none" stroke="#63b8ff" d="M446.66,-343.57C469.88,-344.75 495.39,-346.05 517.36,-347.17"/>
<polygon fill="#63b8ff" stroke="#63b8ff" points="446.69,-340.07 436.52,-343.05 446.33,-347.06 446.69,-340.07"/>
</a>
</g>
</g>
<!-- Node26 -->
<g id="Node000026" class="node">
<title>Node26</title>
<g id="a_Node000026"><a xlink:href="classgrapht.html" target="_top" xlink:title=" ">
<polygon fill="white" stroke="#666666" points="444.5,-312.5 306.5,-312.5 306.5,-293.5 444.5,-293.5 444.5,-312.5"/>
<text text-anchor="middle" x="375.5" y="-300.5" font-family="Helvetica,sans-Serif" font-size="10.00">grapht&lt; vs_dep_nodet &gt;</text>
</a>
</g>
</g>
<!-- Node26&#45;&gt;Node25 -->
<g id="edge67_Node000026_Node000025" class="edge">
<title>Node26&#45;&gt;Node25</title>
<g id="a_edge67_Node000026_Node000025"><a xlink:title=" ">
<path fill="none" stroke="#63b8ff" d="M454.71,-298.62C474.74,-297.5 495.92,-296.31 514.75,-295.26"/>
<polygon fill="#63b8ff" stroke="#63b8ff" points="454.46,-295.13 444.67,-299.18 454.85,-302.12 454.46,-295.13"/>
</a>
</g>
</g>
<!-- Node30 -->
<g id="Node000030" class="node">
<title>Node30</title>
<g id="a_Node000030"><a xlink:href="classsparse__bitvector__analysist.html" target="_top" xlink:title=" ">
<polygon fill="white" stroke="#666666" points="647.5,-61 500.5,-61 500.5,-31 647.5,-31 647.5,-61"/>
<text text-anchor="start" x="508.5" y="-49" font-family="Helvetica,sans-Serif" font-size="10.00">sparse_bitvector_analysist</text>
<text text-anchor="middle" x="574" y="-38" font-family="Helvetica,sans-Serif" font-size="10.00">&lt; reaching_definitiont &gt;</text>
</a>
</g>
</g>
<!-- Node30&#45;&gt;Node29 -->
<g id="edge68_Node000030_Node000029" class="edge">
<title>Node30&#45;&gt;Node29</title>
<g id="a_edge68_Node000030_Node000029"><a xlink:title=" ">
<path fill="none" stroke="#63b8ff" d="M646.53,-66.95C647.73,-67.92 648.89,-68.94 650,-70 720.27,-137.29 737.48,-262.54 741.41,-305.82"/>
<polygon fill="#63b8ff" stroke="#63b8ff" points="648.32,-63.93 638.09,-61.17 644.36,-69.71 648.32,-63.93"/>
</a>
</g>
</g>
<!-- Node18 -->
<g id="Node000018" class="node">
<title>Node18</title>
<g id="a_Node000018"><a xlink:href="classvalue__setst.html" target="_top" xlink:title=" ">
<polygon fill="white" stroke="#666666" points="412,-104.5 339,-104.5 339,-85.5 412,-85.5 412,-104.5"/>
<text text-anchor="middle" x="375.5" y="-92.5" font-family="Helvetica,sans-Serif" font-size="10.00">value_setst</text>
</a>
</g>
</g>
<!-- Node18&#45;&gt;Node17 -->
<g id="edge70_Node000018_Node000017" class="edge">
<title>Node18&#45;&gt;Node17</title>
<g id="a_edge70_Node000018_Node000017"><a xlink:title=" ">
<path fill="none" stroke="#63b8ff" d="M422.18,-103.6C449.58,-108.76 484.7,-115.37 514.17,-120.92"/>
<polygon fill="#63b8ff" stroke="#63b8ff" points="422.56,-100.11 412.08,-101.7 421.26,-106.99 422.56,-100.11"/>
</a>
</g>
</g>
<!-- Node18&#45;&gt;Node19 -->
<g id="edge69_Node000018_Node000019" class="edge">
<title>Node18&#45;&gt;Node19</title>
<g id="a_edge69_Node000018_Node000019"><a xlink:title=" ">
<path fill="none" stroke="#63b8ff" d="M422.24,-93.6C448.79,-92.79 482.58,-91.76 511.43,-90.88"/>
<polygon fill="#63b8ff" stroke="#63b8ff" points="421.97,-90.11 412.08,-93.91 422.19,-97.11 421.97,-90.11"/>
</a>
</g>
</g>
</g>
</svg>
