<?xml version="1.0" encoding="UTF-8" standalone="no"?>
<!DOCTYPE svg PUBLIC "-//W3C//DTD SVG 1.1//EN"
 "http://www.w3.org/Graphics/SVG/1.1/DTD/svg11.dtd">
<!-- Generated by graphviz version 2.43.0 (0)
 -->
<!-- Title: /home/runner/work/cbmc/cbmc/src/util/interval.h Pages: 1 -->
<svg width="1116pt" height="214pt"
 viewBox="0.00 0.00 1115.50 214.00" xmlns="http://www.w3.org/2000/svg" xmlns:xlink="http://www.w3.org/1999/xlink">
<g id="graph0" class="graph" transform="scale(1 1) rotate(0) translate(4 210)">
<title>/home/runner/work/cbmc/cbmc/src/util/interval.h</title>
<!-- Node1 -->
<g id="Node000001" class="node">
<title>Node1</title>
<g id="a_Node000001"><a xlink:title=" ">
<polygon fill="#999999" stroke="#666666" points="627,-206 489,-206 489,-176 627,-176 627,-206"/>
<text text-anchor="start" x="497" y="-194" font-family="Helvetica,sans-Serif" font-size="10.00">/home/runner/work/cbmc</text>
<text text-anchor="middle" x="558" y="-183" font-family="Helvetica,sans-Serif" font-size="10.00">/cbmc/src/util/interval.h</text>
</a>
</g>
</g>
<!-- Node2 -->
<g id="Node000002" class="node">
<title>Node2</title>
<g id="a_Node000002"><a xlink:href="abstract__object__set_8cpp.html" target="_top" xlink:title=" ">
<polygon fill="white" stroke="#666666" points="261,-134.5 71,-134.5 71,-93.5 261,-93.5 261,-134.5"/>
<text text-anchor="start" x="79" y="-122.5" font-family="Helvetica,sans-Serif" font-size="10.00">/home/runner/work/cbmc</text>
<text text-anchor="start" x="79" y="-111.5" font-family="Helvetica,sans-Serif" font-size="10.00">/cbmc/src/analyses/variable</text>
<text text-anchor="middle" x="166" y="-100.5" font-family="Helvetica,sans-Serif" font-size="10.00">&#45;sensitivity/abstract_object_set.cpp</text>
</a>
</g>
</g>
<!-- Node1&#45;&gt;Node2 -->
<g id="edge1_Node000001_Node000002" class="edge">
<title>Node1&#45;&gt;Node2</title>
<g id="a_edge1_Node000001_Node000002"><a xlink:title=" ">
<path fill="none" stroke="#63b8ff" d="M478.61,-177.62C420.63,-168.24 340.21,-154.52 270,-140 261.82,-138.31 253.3,-136.44 244.81,-134.51"/>
<polygon fill="#63b8ff" stroke="#63b8ff" points="478.38,-181.13 488.81,-179.26 479.49,-174.22 478.38,-181.13"/>
</a>
</g>
</g>
<!-- Node3 -->
<g id="Node000003" class="node">
<title>Node3</title>
<g id="a_Node000003"><a xlink:href="constant__abstract__value_8cpp.html" target="_top" xlink:title=" ">
<polygon fill="white" stroke="#666666" points="440.5,-140 279.5,-140 279.5,-88 440.5,-88 440.5,-140"/>
<text text-anchor="start" x="287.5" y="-128" font-family="Helvetica,sans-Serif" font-size="10.00">/home/runner/work/cbmc</text>
<text text-anchor="start" x="287.5" y="-117" font-family="Helvetica,sans-Serif" font-size="10.00">/cbmc/src/analyses/variable</text>
<text text-anchor="start" x="287.5" y="-106" font-family="Helvetica,sans-Serif" font-size="10.00">&#45;sensitivity/constant_abstract</text>
<text text-anchor="middle" x="360" y="-95" font-family="Helvetica,sans-Serif" font-size="10.00">_value.cpp</text>
</a>
</g>
</g>
<!-- Node1&#45;&gt;Node3 -->
<g id="edge2_Node000001_Node000003" class="edge">
<title>Node1&#45;&gt;Node3</title>
<g id="a_edge2_Node000001_Node000003"><a xlink:title=" ">
<path fill="none" stroke="#63b8ff" d="M511.38,-172.34C486.02,-162.74 454.23,-150.69 426.33,-140.13"/>
<polygon fill="#63b8ff" stroke="#63b8ff" points="510.17,-175.62 520.76,-175.89 512.65,-169.08 510.17,-175.62"/>
</a>
</g>
</g>
<!-- Node4 -->
<g id="Node000004" class="node">
<title>Node4</title>
<g id="a_Node000004"><a xlink:href="interval__abstract__value_8h.html" target="_top" xlink:title="An interval to represent a set of possible values.">
<polygon fill="white" stroke="#666666" points="657,-134.5 459,-134.5 459,-93.5 657,-93.5 657,-134.5"/>
<text text-anchor="start" x="467" y="-122.5" font-family="Helvetica,sans-Serif" font-size="10.00">/home/runner/work/cbmc</text>
<text text-anchor="start" x="467" y="-111.5" font-family="Helvetica,sans-Serif" font-size="10.00">/cbmc/src/analyses/variable</text>
<text text-anchor="middle" x="558" y="-100.5" font-family="Helvetica,sans-Serif" font-size="10.00">&#45;sensitivity/interval_abstract_value.h</text>
</a>
</g>
</g>
<!-- Node1&#45;&gt;Node4 -->
<g id="edge3_Node000001_Node000004" class="edge">
<title>Node1&#45;&gt;Node4</title>
<g id="a_edge3_Node000001_Node000004"><a xlink:title=" ">
<path fill="none" stroke="#63b8ff" d="M558,-165.73C558,-155.7 558,-144.21 558,-134.7"/>
<polygon fill="#63b8ff" stroke="#63b8ff" points="554.5,-165.89 558,-175.89 561.5,-165.89 554.5,-165.89"/>
</a>
</g>
</g>
<!-- Node10 -->
<g id="Node000010" class="node">
<title>Node10</title>
<g id="a_Node000010"><a xlink:href="widened__range_8h.html" target="_top" xlink:title=" ">
<polygon fill="white" stroke="#666666" points="833,-134.5 675,-134.5 675,-93.5 833,-93.5 833,-134.5"/>
<text text-anchor="start" x="683" y="-122.5" font-family="Helvetica,sans-Serif" font-size="10.00">/home/runner/work/cbmc</text>
<text text-anchor="start" x="683" y="-111.5" font-family="Helvetica,sans-Serif" font-size="10.00">/cbmc/src/analyses/variable</text>
<text text-anchor="middle" x="754" y="-100.5" font-family="Helvetica,sans-Serif" font-size="10.00">&#45;sensitivity/widened_range.h</text>
</a>
</g>
</g>
<!-- Node1&#45;&gt;Node10 -->
<g id="edge9_Node000001_Node000010" class="edge">
<title>Node1&#45;&gt;Node10</title>
<g id="a_edge9_Node000001_Node000010"><a xlink:title=" ">
<path fill="none" stroke="#63b8ff" d="M604.54,-172.19C634.13,-160.87 672.45,-146.21 702.88,-134.56"/>
<polygon fill="#63b8ff" stroke="#63b8ff" points="602.95,-169.05 594.87,-175.89 605.46,-175.59 602.95,-169.05"/>
</a>
</g>
</g>
<!-- Node12 -->
<g id="Node000012" class="node">
<title>Node12</title>
<g id="a_Node000012"><a xlink:href="interval_8cpp.html" target="_top" xlink:title=" ">
<polygon fill="white" stroke="#666666" points="994.5,-129 851.5,-129 851.5,-99 994.5,-99 994.5,-129"/>
<text text-anchor="start" x="859.5" y="-117" font-family="Helvetica,sans-Serif" font-size="10.00">/home/runner/work/cbmc</text>
<text text-anchor="middle" x="923" y="-106" font-family="Helvetica,sans-Serif" font-size="10.00">/cbmc/src/util/interval.cpp</text>
</a>
</g>
</g>
<!-- Node1&#45;&gt;Node12 -->
<g id="edge13_Node000001_Node000012" class="edge">
<title>Node1&#45;&gt;Node12</title>
<g id="a_edge13_Node000001_Node000012"><a xlink:title=" ">
<path fill="none" stroke="#63b8ff" d="M637.15,-178.78C694.42,-170.01 773.48,-156.54 842,-140 854.73,-136.93 868.4,-132.97 880.82,-129.11"/>
<polygon fill="#63b8ff" stroke="#63b8ff" points="636.44,-175.35 627.07,-180.31 637.49,-182.27 636.44,-175.35"/>
</a>
</g>
</g>
<!-- Node5 -->
<g id="Node000005" class="node">
<title>Node5</title>
<g id="a_Node000005"><a xlink:href="abstract__environment_8cpp.html" target="_top" xlink:title=" ">
<polygon fill="white" stroke="#666666" points="202,-46.5 0,-46.5 0,-5.5 202,-5.5 202,-46.5"/>
<text text-anchor="start" x="8" y="-34.5" font-family="Helvetica,sans-Serif" font-size="10.00">/home/runner/work/cbmc</text>
<text text-anchor="start" x="8" y="-23.5" font-family="Helvetica,sans-Serif" font-size="10.00">/cbmc/src/analyses/variable</text>
<text text-anchor="middle" x="101" y="-12.5" font-family="Helvetica,sans-Serif" font-size="10.00">&#45;sensitivity/abstract_environment.cpp</text>
</a>
</g>
</g>
<!-- Node4&#45;&gt;Node5 -->
<g id="edge4_Node000004_Node000005" class="edge">
<title>Node4&#45;&gt;Node5</title>
<g id="a_edge4_Node000004_Node000005"><a xlink:title=" ">
<path fill="none" stroke="#63b8ff" d="M466.2,-91.43C460.39,-90.22 454.62,-89.07 449,-88 343.9,-68.03 316.12,-71.87 211,-52 202.24,-50.35 193.13,-48.49 184.05,-46.55"/>
<polygon fill="#63b8ff" stroke="#63b8ff" points="465.5,-94.85 476.01,-93.5 466.94,-88.01 465.5,-94.85"/>
</a>
</g>
</g>
<!-- Node6 -->
<g id="Node000006" class="node">
<title>Node6</title>
<g id="a_Node000006"><a xlink:href="abstract__value__object_8cpp.html" target="_top" xlink:title=" ">
<polygon fill="white" stroke="#666666" points="372,-52 220,-52 220,0 372,0 372,-52"/>
<text text-anchor="start" x="228" y="-40" font-family="Helvetica,sans-Serif" font-size="10.00">/home/runner/work/cbmc</text>
<text text-anchor="start" x="228" y="-29" font-family="Helvetica,sans-Serif" font-size="10.00">/cbmc/src/analyses/variable</text>
<text text-anchor="start" x="228" y="-18" font-family="Helvetica,sans-Serif" font-size="10.00">&#45;sensitivity/abstract_value</text>
<text text-anchor="middle" x="296" y="-7" font-family="Helvetica,sans-Serif" font-size="10.00">_object.cpp</text>
</a>
</g>
</g>
<!-- Node4&#45;&gt;Node6 -->
<g id="edge5_Node000004_Node000006" class="edge">
<title>Node4&#45;&gt;Node6</title>
<g id="a_edge5_Node000004_Node000006"><a xlink:title=" ">
<path fill="none" stroke="#63b8ff" d="M488.66,-90.24C452.8,-78.47 408.95,-64.08 372.16,-52"/>
<polygon fill="#63b8ff" stroke="#63b8ff" points="487.96,-93.69 498.55,-93.49 490.14,-87.04 487.96,-93.69"/>
</a>
</g>
</g>
<!-- Node7 -->
<g id="Node000007" class="node">
<title>Node7</title>
<g id="a_Node000007"><a xlink:href="interval__abstract__value_8cpp.html" target="_top" xlink:title=" ">
<polygon fill="white" stroke="#666666" points="735.5,-52 578.5,-52 578.5,0 735.5,0 735.5,-52"/>
<text text-anchor="start" x="586.5" y="-40" font-family="Helvetica,sans-Serif" font-size="10.00">/home/runner/work/cbmc</text>
<text text-anchor="start" x="586.5" y="-29" font-family="Helvetica,sans-Serif" font-size="10.00">/cbmc/src/analyses/variable</text>
<text text-anchor="start" x="586.5" y="-18" font-family="Helvetica,sans-Serif" font-size="10.00">&#45;sensitivity/interval_abstract</text>
<text text-anchor="middle" x="657" y="-7" font-family="Helvetica,sans-Serif" font-size="10.00">_value.cpp</text>
</a>
</g>
</g>
<!-- Node4&#45;&gt;Node7 -->
<g id="edge6_Node000004_Node000007" class="edge">
<title>Node4&#45;&gt;Node7</title>
<g id="a_edge6_Node000004_Node000007"><a xlink:title=" ">
<path fill="none" stroke="#63b8ff" d="M588.03,-86.91C600.67,-75.93 615.32,-63.21 627.86,-52.32"/>
<polygon fill="#63b8ff" stroke="#63b8ff" points="585.72,-84.28 580.46,-93.49 590.31,-89.57 585.72,-84.28"/>
</a>
</g>
</g>
<!-- Node8 -->
<g id="Node000008" class="node">
<title>Node8</title>
<g id="a_Node000008"><a xlink:href="value__set__abstract__object_8cpp.html" target="_top" xlink:title="Value Set Abstract Object.">
<polygon fill="white" stroke="#666666" points="920.5,-52 753.5,-52 753.5,0 920.5,0 920.5,-52"/>
<text text-anchor="start" x="761.5" y="-40" font-family="Helvetica,sans-Serif" font-size="10.00">/home/runner/work/cbmc</text>
<text text-anchor="start" x="761.5" y="-29" font-family="Helvetica,sans-Serif" font-size="10.00">/cbmc/src/analyses/variable</text>
<text text-anchor="start" x="761.5" y="-18" font-family="Helvetica,sans-Serif" font-size="10.00">&#45;sensitivity/value_set_abstract</text>
<text text-anchor="middle" x="837" y="-7" font-family="Helvetica,sans-Serif" font-size="10.00">_object.cpp</text>
</a>
</g>
</g>
<!-- Node4&#45;&gt;Node8 -->
<g id="edge7_Node000004_Node000008" class="edge">
<title>Node4&#45;&gt;Node8</title>
<g id="a_edge7_Node000004_Node000008"><a xlink:title=" ">
<path fill="none" stroke="#63b8ff" d="M631.33,-90.4C669.53,-78.62 716.34,-64.19 755.64,-52.08"/>
<polygon fill="#63b8ff" stroke="#63b8ff" points="629.83,-87.19 621.31,-93.49 631.9,-93.88 629.83,-87.19"/>
</a>
</g>
</g>
<!-- Node9 -->
<g id="Node000009" class="node">
<title>Node9</title>
<g id="a_Node000009"><a xlink:href="variable__sensitivity__object__factory_8cpp.html" target="_top" xlink:title=" ">
<polygon fill="white" stroke="#666666" points="560,-52 390,-52 390,0 560,0 560,-52"/>
<text text-anchor="start" x="398" y="-40" font-family="Helvetica,sans-Serif" font-size="10.00">/home/runner/work/cbmc</text>
<text text-anchor="start" x="398" y="-29" font-family="Helvetica,sans-Serif" font-size="10.00">/cbmc/src/analyses/variable</text>
<text text-anchor="start" x="398" y="-18" font-family="Helvetica,sans-Serif" font-size="10.00">&#45;sensitivity/variable_sensitivity</text>
<text text-anchor="middle" x="475" y="-7" font-family="Helvetica,sans-Serif" font-size="10.00">_object_factory.cpp</text>
</a>
</g>
</g>
<!-- Node4&#45;&gt;Node9 -->
<g id="edge8_Node000004_Node000009" class="edge">
<title>Node4&#45;&gt;Node9</title>
<g id="a_edge8_Node000004_Node000009"><a xlink:title=" ">
<path fill="none" stroke="#63b8ff" d="M532.22,-86.29C521.76,-75.45 509.75,-63 499.43,-52.32"/>
<polygon fill="#63b8ff" stroke="#63b8ff" points="529.7,-88.72 539.17,-93.49 534.74,-83.86 529.7,-88.72"/>
</a>
</g>
</g>
<!-- Node10&#45;&gt;Node7 -->
<g id="edge10_Node000010_Node000007" class="edge">
<title>Node10&#45;&gt;Node7</title>
<g id="a_edge10_Node000010_Node000007"><a xlink:title=" ">
<path fill="none" stroke="#63b8ff" d="M724.22,-86.6C711.92,-75.69 697.72,-63.11 685.56,-52.32"/>
<polygon fill="#63b8ff" stroke="#63b8ff" points="722.18,-89.47 731.99,-93.49 726.83,-84.23 722.18,-89.47"/>
</a>
</g>
</g>
<!-- Node10&#45;&gt;Node8 -->
<g id="edge11_Node000010_Node000008" class="edge">
<title>Node10&#45;&gt;Node8</title>
<g id="a_edge11_Node000010_Node000008"><a xlink:title=" ">
<path fill="none" stroke="#63b8ff" d="M779.78,-86.29C790.24,-75.45 802.25,-63 812.57,-52.32"/>
<polygon fill="#63b8ff" stroke="#63b8ff" points="777.26,-83.86 772.83,-93.49 782.3,-88.72 777.26,-83.86"/>
</a>
</g>
</g>
<!-- Node11 -->
<g id="Node000011" class="node">
<title>Node11</title>
<g id="a_Node000011"><a xlink:href="widened__range_8cpp.html" target="_top" xlink:title=" ">
<polygon fill="white" stroke="#666666" points="1107.5,-46.5 938.5,-46.5 938.5,-5.5 1107.5,-5.5 1107.5,-46.5"/>
<text text-anchor="start" x="946.5" y="-34.5" font-family="Helvetica,sans-Serif" font-size="10.00">/home/runner/work/cbmc</text>
<text text-anchor="start" x="946.5" y="-23.5" font-family="Helvetica,sans-Serif" font-size="10.00">/cbmc/src/analyses/variable</text>
<text text-anchor="middle" x="1023" y="-12.5" font-family="Helvetica,sans-Serif" font-size="10.00">&#45;sensitivity/widened_range.cpp</text>
</a>
</g>
</g>
<!-- Node10&#45;&gt;Node11 -->
<g id="edge12_Node000010_Node000011" class="edge">
<title>Node10&#45;&gt;Node11</title>
<g id="a_edge12_Node000010_Node000011"><a xlink:title=" ">
<path fill="none" stroke="#63b8ff" d="M824.78,-90.37C867.34,-76.76 920.99,-59.61 961.74,-46.59"/>
<polygon fill="#63b8ff" stroke="#63b8ff" points="823.5,-87.11 815.04,-93.49 825.63,-93.77 823.5,-87.11"/>
</a>
</g>
</g>
</g>
</svg>
