<?xml version="1.0" encoding="UTF-8" standalone="no"?>
<!DOCTYPE svg PUBLIC "-//W3C//DTD SVG 1.1//EN"
 "http://www.w3.org/Graphics/SVG/1.1/DTD/svg11.dtd">
<!-- Generated by graphviz version 2.43.0 (0)
 -->
<!-- Title: /home/runner/work/cbmc/cbmc/src/util/interval_union.cpp Pages: 1 -->
<svg width="1352pt" height="489pt"
 viewBox="0.00 0.00 1352.47 489.00" xmlns="http://www.w3.org/2000/svg" xmlns:xlink="http://www.w3.org/1999/xlink">
<g id="graph0" class="graph" transform="scale(1 1) rotate(0) translate(4 485)">
<title>/home/runner/work/cbmc/cbmc/src/util/interval_union.cpp</title>
<!-- Node1 -->
<g id="Node000001" class="node">
<title>Node1</title>
<g id="a_Node000001"><a xlink:title=" ">
<polygon fill="#999999" stroke="#666666" points="657.47,-481 519.47,-481 519.47,-440 657.47,-440 657.47,-481"/>
<text text-anchor="start" x="527.47" y="-469" font-family="Helvetica,sans-Serif" font-size="10.00">/home/runner/work/cbmc</text>
<text text-anchor="start" x="527.47" y="-458" font-family="Helvetica,sans-Serif" font-size="10.00">/cbmc/src/util/interval</text>
<text text-anchor="middle" x="588.47" y="-447" font-family="Helvetica,sans-Serif" font-size="10.00">_union.cpp</text>
</a>
</g>
</g>
<!-- Node2 -->
<g id="Node000002" class="node">
<title>Node2</title>
<g id="a_Node000002"><a xlink:href="interval__union_8h.html" target="_top" xlink:title="Union of intervals.">
<polygon fill="white" stroke="#666666" points="323.97,-349 228.97,-349 228.97,-330 323.97,-330 323.97,-349"/>
<text text-anchor="middle" x="276.47" y="-337" font-family="Helvetica,sans-Serif" font-size="10.00">interval_union.h</text>
</a>
</g>
</g>
<!-- Node1&#45;&gt;Node2 -->
<g id="edge1_Node000001_Node000002" class="edge">
<title>Node1&#45;&gt;Node2</title>
<g id="a_edge1_Node000001_Node000002"><a xlink:title=" ">
<path fill="none" stroke="#63b8ff" d="M536.4,-439.93C508.27,-429.34 472.95,-416 441.47,-404 395.08,-386.31 341.43,-365.62 308.23,-352.79"/>
<polygon fill="#63b8ff" stroke="#63b8ff" points="309.2,-349.41 298.61,-349.07 306.67,-355.94 309.2,-349.41"/>
</a>
</g>
</g>
<!-- Node13 -->
<g id="Node000013" class="node">
<title>Node13</title>
<g id="a_Node000013"><a xlink:href="arith__tools_8h.html" target="_top" xlink:title=" ">
<polygon fill="white" stroke="#666666" points="559.97,-404 482.97,-404 482.97,-385 559.97,-385 559.97,-404"/>
<text text-anchor="middle" x="521.47" y="-392" font-family="Helvetica,sans-Serif" font-size="10.00">arith_tools.h</text>
</a>
</g>
</g>
<!-- Node1&#45;&gt;Node13 -->
<g id="edge14_Node000001_Node000013" class="edge">
<title>Node1&#45;&gt;Node13</title>
<g id="a_edge14_Node000001_Node000013"><a xlink:title=" ">
<path fill="none" stroke="#63b8ff" d="M568.01,-439.95C558.36,-430.74 547.01,-419.9 537.94,-411.23"/>
<polygon fill="#63b8ff" stroke="#63b8ff" points="540.29,-408.64 530.65,-404.26 535.46,-413.7 540.29,-408.64"/>
</a>
</g>
</g>
<!-- Node14 -->
<g id="Node000014" class="node">
<title>Node14</title>
<g id="a_Node000014"><a xlink:href="src_2util_2invariant_8h.html" target="_top" xlink:title=" ">
<polygon fill="white" stroke="#666666" points="653.97,-184 584.97,-184 584.97,-165 653.97,-165 653.97,-184"/>
<text text-anchor="middle" x="619.47" y="-172" font-family="Helvetica,sans-Serif" font-size="10.00">invariant.h</text>
</a>
</g>
</g>
<!-- Node1&#45;&gt;Node14 -->
<g id="edge60_Node000001_Node000014" class="edge">
<title>Node1&#45;&gt;Node14</title>
<g id="a_edge60_Node000001_Node000014"><a xlink:title=" ">
<path fill="none" stroke="#63b8ff" d="M588.47,-439.71C588.47,-416.09 588.47,-375.41 588.47,-340.5 588.47,-340.5 588.47,-340.5 588.47,-283.5 588.47,-250.79 601.77,-214.6 610.95,-193.52"/>
<polygon fill="#63b8ff" stroke="#63b8ff" points="614.22,-194.77 615.16,-184.22 607.85,-191.88 614.22,-194.77"/>
</a>
</g>
</g>
<!-- Node18 -->
<g id="Node000018" class="node">
<title>Node18</title>
<g id="a_Node000018"><a xlink:href="std__expr_8h.html" target="_top" xlink:title="API to expression classes.">
<polygon fill="white" stroke="#666666" points="683.97,-349 616.97,-349 616.97,-330 683.97,-330 683.97,-349"/>
<text text-anchor="middle" x="650.47" y="-337" font-family="Helvetica,sans-Serif" font-size="10.00">std_expr.h</text>
</a>
</g>
</g>
<!-- Node1&#45;&gt;Node18 -->
<g id="edge61_Node000001_Node000018" class="edge">
<title>Node1&#45;&gt;Node18</title>
<g id="a_edge61_Node000001_Node000018"><a xlink:title=" ">
<path fill="none" stroke="#63b8ff" d="M598.71,-439.85C610.53,-417.17 629.8,-380.19 641.19,-358.31"/>
<polygon fill="#63b8ff" stroke="#63b8ff" points="644.44,-359.66 645.95,-349.18 638.23,-356.43 644.44,-359.66"/>
</a>
</g>
</g>
<!-- Node48 -->
<g id="Node000048" class="node">
<title>Node48</title>
<g id="a_Node000048"><a xlink:href="range_8h.html" target="_top" xlink:title="Ranges: pair of begin and end iterators, which can be initialized from containers,...">
<polygon fill="white" stroke="#666666" points="1185.97,-239 1132.97,-239 1132.97,-220 1185.97,-220 1185.97,-239"/>
<text text-anchor="middle" x="1159.47" y="-227" font-family="Helvetica,sans-Serif" font-size="10.00">range.h</text>
</a>
</g>
</g>
<!-- Node1&#45;&gt;Node48 -->
<g id="edge51_Node000001_Node000048" class="edge">
<title>Node1&#45;&gt;Node48</title>
<g id="a_edge51_Node000001_Node000048"><a xlink:title=" ">
<path fill="none" stroke="#63b8ff" d="M637.16,-439.98C751.52,-394.11 1034.73,-280.53 1128.66,-242.86"/>
<polygon fill="#63b8ff" stroke="#63b8ff" points="1130.17,-246.02 1138.15,-239.05 1127.57,-239.53 1130.17,-246.02"/>
</a>
</g>
</g>
<!-- Node50 -->
<g id="Node000050" class="node">
<title>Node50</title>
<g id="a_Node000050"><a xlink:href="string__utils_8h.html" target="_top" xlink:title=" ">
<polygon fill="white" stroke="#666666" points="422.47,-349 342.47,-349 342.47,-330 422.47,-330 422.47,-349"/>
<text text-anchor="middle" x="382.47" y="-337" font-family="Helvetica,sans-Serif" font-size="10.00">string_utils.h</text>
</a>
</g>
</g>
<!-- Node1&#45;&gt;Node50 -->
<g id="edge56_Node000001_Node000050" class="edge">
<title>Node1&#45;&gt;Node50</title>
<g id="a_edge56_Node000001_Node000050"><a xlink:title=" ">
<path fill="none" stroke="#63b8ff" d="M544.36,-439.92C522.88,-429.91 496.9,-417.1 474.47,-404 448.41,-388.78 420.05,-368.61 401.81,-355.13"/>
<polygon fill="#63b8ff" stroke="#63b8ff" points="403.83,-352.27 393.73,-349.1 399.65,-357.88 403.83,-352.27"/>
</a>
</g>
</g>
<!-- Node51 -->
<g id="Node000051" class="node">
<title>Node51</title>
<g id="a_Node000051"><a xlink:title=" ">
<polygon fill="#e0e0e0" stroke="#999999" points="890.47,-404 846.47,-404 846.47,-385 890.47,-385 890.47,-404"/>
<text text-anchor="middle" x="868.47" y="-392" font-family="Helvetica,sans-Serif" font-size="10.00">regex</text>
</a>
</g>
</g>
<!-- Node1&#45;&gt;Node51 -->
<g id="edge59_Node000001_Node000051" class="edge">
<title>Node1&#45;&gt;Node51</title>
<g id="a_edge59_Node000001_Node000051"><a xlink:title=" ">
<path fill="none" stroke="#63b8ff" d="M657.66,-443.92C706.53,-432.88 773.54,-417.66 832.47,-404 833.74,-403.71 835.03,-403.41 836.34,-403.1"/>
<polygon fill="#63b8ff" stroke="#63b8ff" points="837.46,-406.43 846.4,-400.74 835.86,-399.62 837.46,-406.43"/>
</a>
</g>
</g>
<!-- Node3 -->
<g id="Node000003" class="node">
<title>Node3</title>
<g id="a_Node000003"><a xlink:href="interval__template_8h.html" target="_top" xlink:title=" ">
<polygon fill="white" stroke="#666666" points="194.97,-294 63.97,-294 63.97,-275 194.97,-275 194.97,-294"/>
<text text-anchor="middle" x="129.47" y="-282" font-family="Helvetica,sans-Serif" font-size="10.00">util/interval_template.h</text>
</a>
</g>
</g>
<!-- Node2&#45;&gt;Node3 -->
<g id="edge2_Node000002_Node000003" class="edge">
<title>Node2&#45;&gt;Node3</title>
<g id="a_edge2_Node000002_Node000003"><a xlink:title=" ">
<path fill="none" stroke="#63b8ff" d="M252.86,-329.98C228.57,-321.23 190.52,-307.51 163.1,-297.62"/>
<polygon fill="#63b8ff" stroke="#63b8ff" points="164.12,-294.27 153.52,-294.17 161.74,-300.85 164.12,-294.27"/>
</a>
</g>
</g>
<!-- Node8 -->
<g id="Node000008" class="node">
<title>Node8</title>
<g id="a_Node000008"><a xlink:href="mp__arith_8h.html" target="_top" xlink:title=" ">
<polygon fill="white" stroke="#666666" points="344.47,-239 256.47,-239 256.47,-220 344.47,-220 344.47,-239"/>
<text text-anchor="middle" x="300.47" y="-227" font-family="Helvetica,sans-Serif" font-size="10.00">util/mp_arith.h</text>
</a>
</g>
</g>
<!-- Node2&#45;&gt;Node8 -->
<g id="edge8_Node000002_Node000008" class="edge">
<title>Node2&#45;&gt;Node8</title>
<g id="a_edge8_Node000002_Node000008"><a xlink:title=" ">
<path fill="none" stroke="#63b8ff" d="M278.44,-329.66C282.34,-312.09 291.15,-272.45 296.37,-248.95"/>
<polygon fill="#63b8ff" stroke="#63b8ff" points="299.8,-249.68 298.55,-239.16 292.96,-248.16 299.8,-249.68"/>
</a>
</g>
</g>
<!-- Node11 -->
<g id="Node000011" class="node">
<title>Node11</title>
<g id="a_Node000011"><a xlink:title=" ">
<polygon fill="#e0e0e0" stroke="#999999" points="589.47,-19 533.47,-19 533.47,0 589.47,0 589.47,-19"/>
<text text-anchor="middle" x="561.47" y="-7" font-family="Helvetica,sans-Serif" font-size="10.00">optional</text>
</a>
</g>
</g>
<!-- Node2&#45;&gt;Node11 -->
<g id="edge12_Node000002_Node000011" class="edge">
<title>Node2&#45;&gt;Node11</title>
<g id="a_edge12_Node000002_Node000011"><a xlink:title=" ">
<path fill="none" stroke="#63b8ff" d="M283.12,-329.82C315.34,-287.81 455.8,-105.61 506.47,-55 517.31,-44.18 530.64,-33.34 541.46,-25.07"/>
<polygon fill="#63b8ff" stroke="#63b8ff" points="543.6,-27.84 549.5,-19.04 539.4,-22.24 543.6,-27.84"/>
</a>
</g>
</g>
<!-- Node12 -->
<g id="Node000012" class="node">
<title>Node12</title>
<g id="a_Node000012"><a xlink:title=" ">
<polygon fill="#e0e0e0" stroke="#999999" points="383.97,-294 336.97,-294 336.97,-275 383.97,-275 383.97,-294"/>
<text text-anchor="middle" x="360.47" y="-282" font-family="Helvetica,sans-Serif" font-size="10.00">vector</text>
</a>
</g>
</g>
<!-- Node2&#45;&gt;Node12 -->
<g id="edge13_Node000002_Node000012" class="edge">
<title>Node2&#45;&gt;Node12</title>
<g id="a_edge13_Node000002_Node000012"><a xlink:title=" ">
<path fill="none" stroke="#63b8ff" d="M289.97,-329.98C302.87,-321.84 322.58,-309.41 337.88,-299.76"/>
<polygon fill="#63b8ff" stroke="#63b8ff" points="340.14,-302.47 346.73,-294.17 336.41,-296.55 340.14,-302.47"/>
</a>
</g>
</g>
<!-- Node4 -->
<g id="Node000004" class="node">
<title>Node4</title>
<g id="a_Node000004"><a xlink:title=" ">
<polygon fill="#e0e0e0" stroke="#999999" points="78.47,-239 14.47,-239 14.47,-220 78.47,-220 78.47,-239"/>
<text text-anchor="middle" x="46.47" y="-227" font-family="Helvetica,sans-Serif" font-size="10.00">algorithm</text>
</a>
</g>
</g>
<!-- Node3&#45;&gt;Node4 -->
<g id="edge3_Node000003_Node000004" class="edge">
<title>Node3&#45;&gt;Node4</title>
<g id="a_edge3_Node000003_Node000004"><a xlink:title=" ">
<path fill="none" stroke="#63b8ff" d="M116.14,-274.98C103.39,-266.84 83.92,-254.41 68.8,-244.76"/>
<polygon fill="#63b8ff" stroke="#63b8ff" points="70.36,-241.6 60.05,-239.17 66.6,-247.5 70.36,-241.6"/>
</a>
</g>
</g>
<!-- Node5 -->
<g id="Node000005" class="node">
<title>Node5</title>
<g id="a_Node000005"><a xlink:title=" ">
<polygon fill="#e0e0e0" stroke="#999999" points="153.47,-184 105.47,-184 105.47,-165 153.47,-165 153.47,-184"/>
<text text-anchor="middle" x="129.47" y="-172" font-family="Helvetica,sans-Serif" font-size="10.00">iosfwd</text>
</a>
</g>
</g>
<!-- Node3&#45;&gt;Node5 -->
<g id="edge4_Node000003_Node000005" class="edge">
<title>Node3&#45;&gt;Node5</title>
<g id="a_edge4_Node000003_Node000005"><a xlink:title=" ">
<path fill="none" stroke="#63b8ff" d="M63.74,-275.37C41.53,-269.13 18.96,-258.17 5.47,-239 -19.38,-203.67 50.79,-186.73 95.5,-179.72"/>
<polygon fill="#63b8ff" stroke="#63b8ff" points="96.04,-183.17 105.43,-178.25 95.02,-176.25 96.04,-183.17"/>
</a>
</g>
</g>
<!-- Node6 -->
<g id="Node000006" class="node">
<title>Node6</title>
<g id="a_Node000006"><a xlink:title=" ">
<polygon fill="#e0e0e0" stroke="#999999" points="237.97,-239 180.97,-239 180.97,-220 237.97,-220 237.97,-239"/>
<text text-anchor="middle" x="209.47" y="-227" font-family="Helvetica,sans-Serif" font-size="10.00">ostream</text>
</a>
</g>
</g>
<!-- Node3&#45;&gt;Node6 -->
<g id="edge5_Node000003_Node000006" class="edge">
<title>Node3&#45;&gt;Node6</title>
<g id="a_edge5_Node000003_Node000006"><a xlink:title=" ">
<path fill="none" stroke="#63b8ff" d="M142.33,-274.98C154.62,-266.84 173.38,-254.41 187.95,-244.76"/>
<polygon fill="#63b8ff" stroke="#63b8ff" points="189.98,-247.61 196.39,-239.17 186.12,-241.78 189.98,-247.61"/>
</a>
</g>
</g>
<!-- Node7 -->
<g id="Node000007" class="node">
<title>Node7</title>
<g id="a_Node000007"><a xlink:href="threeval_8h.html" target="_top" xlink:title=" ">
<polygon fill="white" stroke="#666666" points="162.47,-239 96.47,-239 96.47,-220 162.47,-220 162.47,-239"/>
<text text-anchor="middle" x="129.47" y="-227" font-family="Helvetica,sans-Serif" font-size="10.00">threeval.h</text>
</a>
</g>
</g>
<!-- Node3&#45;&gt;Node7 -->
<g id="edge6_Node000003_Node000007" class="edge">
<title>Node3&#45;&gt;Node7</title>
<g id="a_edge6_Node000003_Node000007"><a xlink:title=" ">
<path fill="none" stroke="#63b8ff" d="M129.47,-274.75C129.47,-267.8 129.47,-257.85 129.47,-249.13"/>
<polygon fill="#63b8ff" stroke="#63b8ff" points="132.97,-249.09 129.47,-239.09 125.97,-249.09 132.97,-249.09"/>
</a>
</g>
</g>
<!-- Node7&#45;&gt;Node5 -->
<g id="edge7_Node000007_Node000005" class="edge">
<title>Node7&#45;&gt;Node5</title>
<g id="a_edge7_Node000007_Node000005"><a xlink:title=" ">
<path fill="none" stroke="#63b8ff" d="M129.47,-219.75C129.47,-212.8 129.47,-202.85 129.47,-194.13"/>
<polygon fill="#63b8ff" stroke="#63b8ff" points="132.97,-194.09 129.47,-184.09 125.97,-194.09 132.97,-194.09"/>
</a>
</g>
</g>
<!-- Node8&#45;&gt;Node5 -->
<g id="edge9_Node000008_Node000005" class="edge">
<title>Node8&#45;&gt;Node5</title>
<g id="a_edge9_Node000008_Node000005"><a xlink:title=" ">
<path fill="none" stroke="#63b8ff" d="M273,-219.98C243.18,-210.74 195.54,-195.98 163.41,-186.02"/>
<polygon fill="#63b8ff" stroke="#63b8ff" points="164.15,-182.58 153.56,-182.97 162.08,-189.27 164.15,-182.58"/>
</a>
</g>
</g>
<!-- Node9 -->
<g id="Node000009" class="node">
<title>Node9</title>
<g id="a_Node000009"><a xlink:title=" ">
<polygon fill="#e0e0e0" stroke="#999999" points="471.47,-19 427.47,-19 427.47,0 471.47,0 471.47,-19"/>
<text text-anchor="middle" x="449.47" y="-7" font-family="Helvetica,sans-Serif" font-size="10.00">string</text>
</a>
</g>
</g>
<!-- Node8&#45;&gt;Node9 -->
<g id="edge10_Node000008_Node000009" class="edge">
<title>Node8&#45;&gt;Node9</title>
<g id="a_edge10_Node000008_Node000009"><a xlink:title=" ">
<path fill="none" stroke="#63b8ff" d="M282.41,-219.84C261.73,-208.62 232.08,-187.79 243.47,-165 280.13,-91.68 369.97,-44.13 417.99,-23.05"/>
<polygon fill="#63b8ff" stroke="#63b8ff" points="419.47,-26.22 427.29,-19.07 416.72,-19.78 419.47,-26.22"/>
</a>
</g>
</g>
<!-- Node10 -->
<g id="Node000010" class="node">
<title>Node10</title>
<g id="a_Node000010"><a xlink:title=" ">
<polygon fill="#e0e0e0" stroke="#999999" points="346.47,-184 252.47,-184 252.47,-165 346.47,-165 346.47,-184"/>
<text text-anchor="middle" x="299.47" y="-172" font-family="Helvetica,sans-Serif" font-size="10.00">big&#45;int/bigint.hh</text>
</a>
</g>
</g>
<!-- Node8&#45;&gt;Node10 -->
<g id="edge11_Node000008_Node000010" class="edge">
<title>Node8&#45;&gt;Node10</title>
<g id="a_edge11_Node000008_Node000010"><a xlink:title=" ">
<path fill="none" stroke="#63b8ff" d="M300.31,-219.75C300.18,-212.8 299.99,-202.85 299.83,-194.13"/>
<polygon fill="#63b8ff" stroke="#63b8ff" points="303.32,-194.02 299.64,-184.09 296.33,-194.15 303.32,-194.02"/>
</a>
</g>
</g>
<!-- Node13&#45;&gt;Node8 -->
<g id="edge20_Node000013_Node000008" class="edge">
<title>Node13&#45;&gt;Node8</title>
<g id="a_edge20_Node000013_Node000008"><a xlink:title=" ">
<path fill="none" stroke="#63b8ff" d="M510.94,-384.83C500.32,-376 483.51,-361.82 469.47,-349 434.66,-317.21 432.14,-301.98 393.47,-275 374.69,-261.89 351.44,-250.77 332.88,-242.92"/>
<polygon fill="#63b8ff" stroke="#63b8ff" points="333.97,-239.58 323.39,-239.01 331.31,-246.05 333.97,-239.58"/>
</a>
</g>
</g>
<!-- Node13&#45;&gt;Node14 -->
<g id="edge15_Node000013_Node000014" class="edge">
<title>Node13&#45;&gt;Node14</title>
<g id="a_edge15_Node000013_Node000014"><a xlink:title=" ">
<path fill="none" stroke="#63b8ff" d="M523.56,-384.68C531.01,-353.57 556.8,-249.24 574.47,-220 581.18,-208.91 591.25,-198.6 600.17,-190.7"/>
<polygon fill="#63b8ff" stroke="#63b8ff" points="602.52,-193.29 607.9,-184.17 598.01,-187.94 602.52,-193.29"/>
</a>
</g>
</g>
<!-- Node13&#45;&gt;Node18 -->
<g id="edge21_Node000013_Node000018" class="edge">
<title>Node13&#45;&gt;Node18</title>
<g id="a_edge21_Node000013_Node000018"><a xlink:title=" ">
<path fill="none" stroke="#63b8ff" d="M542.2,-384.98C563.23,-376.34 596.02,-362.87 620.01,-353.02"/>
<polygon fill="#63b8ff" stroke="#63b8ff" points="621.45,-356.21 629.37,-349.17 618.79,-349.73 621.45,-356.21"/>
</a>
</g>
</g>
<!-- Node47 -->
<g id="Node000047" class="node">
<title>Node47</title>
<g id="a_Node000047"><a xlink:title=" ">
<polygon fill="#e0e0e0" stroke="#999999" points="522.47,-349 478.47,-349 478.47,-330 522.47,-330 522.47,-349"/>
<text text-anchor="middle" x="500.47" y="-337" font-family="Helvetica,sans-Serif" font-size="10.00">limits</text>
</a>
</g>
</g>
<!-- Node13&#45;&gt;Node47 -->
<g id="edge50_Node000013_Node000047" class="edge">
<title>Node13&#45;&gt;Node47</title>
<g id="a_edge50_Node000013_Node000047"><a xlink:title=" ">
<path fill="none" stroke="#63b8ff" d="M518.01,-384.75C515.19,-377.65 511.13,-367.4 507.63,-358.56"/>
<polygon fill="#63b8ff" stroke="#63b8ff" points="510.82,-357.1 503.88,-349.09 504.31,-359.68 510.82,-357.1"/>
</a>
</g>
</g>
<!-- Node14&#45;&gt;Node9 -->
<g id="edge18_Node000014_Node000009" class="edge">
<title>Node14&#45;&gt;Node9</title>
<g id="a_edge18_Node000014_Node000009"><a xlink:title=" ">
<path fill="none" stroke="#63b8ff" d="M584.82,-166.69C560.67,-160.43 529.05,-148.97 507.47,-129 477.61,-101.35 461.26,-54.99 454.05,-29.21"/>
<polygon fill="#63b8ff" stroke="#63b8ff" points="457.36,-28.04 451.44,-19.25 450.59,-29.81 457.36,-28.04"/>
</a>
</g>
</g>
<!-- Node15 -->
<g id="Node000015" class="node">
<title>Node15</title>
<g id="a_Node000015"><a xlink:title=" ">
<polygon fill="#e0e0e0" stroke="#999999" points="564.97,-129 515.97,-129 515.97,-110 564.97,-110 564.97,-129"/>
<text text-anchor="middle" x="540.47" y="-117" font-family="Helvetica,sans-Serif" font-size="10.00">cstdlib</text>
</a>
</g>
</g>
<!-- Node14&#45;&gt;Node15 -->
<g id="edge16_Node000014_Node000015" class="edge">
<title>Node14&#45;&gt;Node15</title>
<g id="a_edge16_Node000014_Node000015"><a xlink:title=" ">
<path fill="none" stroke="#63b8ff" d="M606.78,-164.98C594.65,-156.84 576.12,-144.41 561.73,-134.76"/>
<polygon fill="#63b8ff" stroke="#63b8ff" points="563.65,-131.84 553.4,-129.17 559.75,-137.65 563.65,-131.84"/>
</a>
</g>
</g>
<!-- Node16 -->
<g id="Node000016" class="node">
<title>Node16</title>
<g id="a_Node000016"><a xlink:title=" ">
<polygon fill="#e0e0e0" stroke="#999999" points="639.47,-129 583.47,-129 583.47,-110 639.47,-110 639.47,-129"/>
<text text-anchor="middle" x="611.47" y="-117" font-family="Helvetica,sans-Serif" font-size="10.00">sstream</text>
</a>
</g>
</g>
<!-- Node14&#45;&gt;Node16 -->
<g id="edge17_Node000014_Node000016" class="edge">
<title>Node14&#45;&gt;Node16</title>
<g id="a_edge17_Node000014_Node000016"><a xlink:title=" ">
<path fill="none" stroke="#63b8ff" d="M618.15,-164.75C617.1,-157.8 615.6,-147.85 614.29,-139.13"/>
<polygon fill="#63b8ff" stroke="#63b8ff" points="617.72,-138.45 612.77,-129.09 610.8,-139.5 617.72,-138.45"/>
</a>
</g>
</g>
<!-- Node17 -->
<g id="Node000017" class="node">
<title>Node17</title>
<g id="a_Node000017"><a xlink:title=" ">
<polygon fill="#e0e0e0" stroke="#999999" points="1115.97,-19 1046.97,-19 1046.97,0 1115.97,0 1115.97,-19"/>
<text text-anchor="middle" x="1081.47" y="-7" font-family="Helvetica,sans-Serif" font-size="10.00">type_traits</text>
</a>
</g>
</g>
<!-- Node14&#45;&gt;Node17 -->
<g id="edge19_Node000014_Node000017" class="edge">
<title>Node14&#45;&gt;Node17</title>
<g id="a_edge19_Node000014_Node000017"><a xlink:title=" ">
<path fill="none" stroke="#63b8ff" d="M654.13,-167.27C692.43,-159.94 755.68,-146.52 808.47,-129 902.07,-97.94 1007.84,-47.33 1055.62,-23.58"/>
<polygon fill="#63b8ff" stroke="#63b8ff" points="1057.26,-26.67 1064.64,-19.07 1054.13,-20.41 1057.26,-26.67"/>
</a>
</g>
</g>
<!-- Node18&#45;&gt;Node14 -->
<g id="edge42_Node000018_Node000014" class="edge">
<title>Node18&#45;&gt;Node14</title>
<g id="a_edge42_Node000018_Node000014"><a xlink:title=" ">
<path fill="none" stroke="#63b8ff" d="M648.81,-329.74C643.95,-304.2 629.73,-229.43 623.04,-194.23"/>
<polygon fill="#63b8ff" stroke="#63b8ff" points="626.46,-193.48 621.15,-184.31 619.58,-194.78 626.46,-193.48"/>
</a>
</g>
</g>
<!-- Node19 -->
<g id="Node000019" class="node">
<title>Node19</title>
<g id="a_Node000019"><a xlink:href="expr__cast_8h.html" target="_top" xlink:title="Templated functions to cast to specific exprt&#45;derived classes.">
<polygon fill="white" stroke="#666666" points="953.97,-239 880.97,-239 880.97,-220 953.97,-220 953.97,-239"/>
<text text-anchor="middle" x="917.47" y="-227" font-family="Helvetica,sans-Serif" font-size="10.00">expr_cast.h</text>
</a>
</g>
</g>
<!-- Node18&#45;&gt;Node19 -->
<g id="edge22_Node000018_Node000019" class="edge">
<title>Node18&#45;&gt;Node19</title>
<g id="a_edge22_Node000018_Node000019"><a xlink:title=" ">
<path fill="none" stroke="#63b8ff" d="M672.68,-329.86C695.15,-321.05 730.86,-306.9 761.47,-294 780.73,-285.89 785.19,-283.05 804.47,-275 831.59,-263.68 862.68,-251.49 885.37,-242.74"/>
<polygon fill="#63b8ff" stroke="#63b8ff" points="886.77,-245.95 894.85,-239.1 884.26,-239.42 886.77,-245.95"/>
</a>
</g>
</g>
<!-- Node46 -->
<g id="Node000046" class="node">
<title>Node46</title>
<g id="a_Node000046"><a xlink:href="std__types_8h.html" target="_top" xlink:title="Pre&#45;defined types.">
<polygon fill="white" stroke="#666666" points="751.97,-294 678.97,-294 678.97,-275 751.97,-275 751.97,-294"/>
<text text-anchor="middle" x="715.47" y="-282" font-family="Helvetica,sans-Serif" font-size="10.00">std_types.h</text>
</a>
</g>
</g>
<!-- Node18&#45;&gt;Node46 -->
<g id="edge43_Node000018_Node000046" class="edge">
<title>Node18&#45;&gt;Node46</title>
<g id="a_edge43_Node000018_Node000046"><a xlink:title=" ">
<path fill="none" stroke="#63b8ff" d="M660.92,-329.98C670.62,-322.07 685.29,-310.11 696.97,-300.58"/>
<polygon fill="#63b8ff" stroke="#63b8ff" points="699.3,-303.2 704.84,-294.17 694.88,-297.78 699.3,-303.2"/>
</a>
</g>
</g>
<!-- Node19&#45;&gt;Node14 -->
<g id="edge26_Node000019_Node000014" class="edge">
<title>Node19&#45;&gt;Node14</title>
<g id="a_edge26_Node000019_Node000014"><a xlink:title=" ">
<path fill="none" stroke="#63b8ff" d="M880.93,-222C826.25,-212.27 723.24,-193.95 664.15,-183.45"/>
<polygon fill="#63b8ff" stroke="#63b8ff" points="664.46,-179.95 654,-181.64 663.24,-186.84 664.46,-179.95"/>
</a>
</g>
</g>
<!-- Node19&#45;&gt;Node17 -->
<g id="edge24_Node000019_Node000017" class="edge">
<title>Node19&#45;&gt;Node17</title>
<g id="a_edge24_Node000019_Node000017"><a xlink:title=" ">
<path fill="none" stroke="#63b8ff" d="M954.16,-228.16C1017.11,-225.35 1144.43,-209.43 1201.47,-129 1232.48,-85.28 1157.78,-43.49 1112.69,-23.23"/>
<polygon fill="#63b8ff" stroke="#63b8ff" points="1113.87,-19.92 1103.3,-19.12 1111.06,-26.34 1113.87,-19.92"/>
</a>
</g>
</g>
<!-- Node20 -->
<g id="Node000020" class="node">
<title>Node20</title>
<g id="a_Node000020"><a xlink:title=" ">
<polygon fill="#e0e0e0" stroke="#999999" points="1002.97,-184 945.97,-184 945.97,-165 1002.97,-165 1002.97,-184"/>
<text text-anchor="middle" x="974.47" y="-172" font-family="Helvetica,sans-Serif" font-size="10.00">typeinfo</text>
</a>
</g>
</g>
<!-- Node19&#45;&gt;Node20 -->
<g id="edge23_Node000019_Node000020" class="edge">
<title>Node19&#45;&gt;Node20</title>
<g id="a_edge23_Node000019_Node000020"><a xlink:title=" ">
<path fill="none" stroke="#63b8ff" d="M926.63,-219.98C934.98,-212.23 947.51,-200.58 957.65,-191.14"/>
<polygon fill="#63b8ff" stroke="#63b8ff" points="960.21,-193.54 965.15,-184.17 955.44,-188.42 960.21,-193.54"/>
</a>
</g>
</g>
<!-- Node21 -->
<g id="Node000021" class="node">
<title>Node21</title>
<g id="a_Node000021"><a xlink:title=" ">
<polygon fill="#e0e0e0" stroke="#999999" points="1191.97,-129 1126.97,-129 1126.97,-110 1191.97,-110 1191.97,-129"/>
<text text-anchor="middle" x="1159.47" y="-117" font-family="Helvetica,sans-Serif" font-size="10.00">functional</text>
</a>
</g>
</g>
<!-- Node19&#45;&gt;Node21 -->
<g id="edge25_Node000019_Node000021" class="edge">
<title>Node19&#45;&gt;Node21</title>
<g id="a_edge25_Node000019_Node000021"><a xlink:title=" ">
<path fill="none" stroke="#63b8ff" d="M917.57,-219.63C918.24,-205.79 921.64,-179.2 937.47,-165 996.15,-112.38 1034.97,-142.72 1116.63,-129.18"/>
<polygon fill="#63b8ff" stroke="#63b8ff" points="1117.61,-132.55 1126.81,-127.3 1116.34,-125.67 1117.61,-132.55"/>
</a>
</g>
</g>
<!-- Node22 -->
<g id="Node000022" class="node">
<title>Node22</title>
<g id="a_Node000022"><a xlink:href="expr_8h.html" target="_top" xlink:title=" ">
<polygon fill="white" stroke="#666666" points="888.97,-184 841.97,-184 841.97,-165 888.97,-165 888.97,-184"/>
<text text-anchor="middle" x="865.47" y="-172" font-family="Helvetica,sans-Serif" font-size="10.00">expr.h</text>
</a>
</g>
</g>
<!-- Node19&#45;&gt;Node22 -->
<g id="edge27_Node000019_Node000022" class="edge">
<title>Node19&#45;&gt;Node22</title>
<g id="a_edge27_Node000019_Node000022"><a xlink:title=" ">
<path fill="none" stroke="#63b8ff" d="M908.89,-219.75C901.32,-212.03 890.1,-200.6 880.96,-191.28"/>
<polygon fill="#63b8ff" stroke="#63b8ff" points="883.4,-188.78 873.9,-184.09 878.41,-193.68 883.4,-188.78"/>
</a>
</g>
</g>
<!-- Node22&#45;&gt;Node21 -->
<g id="edge41_Node000022_Node000021" class="edge">
<title>Node22&#45;&gt;Node21</title>
<g id="a_edge41_Node000022_Node000021"><a xlink:title=" ">
<path fill="none" stroke="#63b8ff" d="M889.15,-168C893.88,-166.95 898.83,-165.91 903.47,-165 995.4,-147.04 1021.53,-146.83 1116.76,-129.26"/>
<polygon fill="#63b8ff" stroke="#63b8ff" points="1117.63,-132.66 1126.82,-127.39 1116.35,-125.78 1117.63,-132.66"/>
</a>
</g>
</g>
<!-- Node23 -->
<g id="Node000023" class="node">
<title>Node23</title>
<g id="a_Node000023"><a xlink:href="as__const_8h.html" target="_top" xlink:title=" ">
<polygon fill="white" stroke="#666666" points="961.47,-129 893.47,-129 893.47,-110 961.47,-110 961.47,-129"/>
<text text-anchor="middle" x="927.47" y="-117" font-family="Helvetica,sans-Serif" font-size="10.00">as_const.h</text>
</a>
</g>
</g>
<!-- Node22&#45;&gt;Node23 -->
<g id="edge28_Node000022_Node000023" class="edge">
<title>Node22&#45;&gt;Node23</title>
<g id="a_edge28_Node000022_Node000023"><a xlink:title=" ">
<path fill="none" stroke="#63b8ff" d="M875.44,-164.98C884.6,-157.15 898.41,-145.34 909.5,-135.86"/>
<polygon fill="#63b8ff" stroke="#63b8ff" points="912,-138.33 917.33,-129.17 907.46,-133.01 912,-138.33"/>
</a>
</g>
</g>
<!-- Node24 -->
<g id="Node000024" class="node">
<title>Node24</title>
<g id="a_Node000024"><a xlink:href="type_8h.html" target="_top" xlink:title="Defines typet, type_with_subtypet and type_with_subtypest.">
<polygon fill="white" stroke="#666666" points="798.97,-129 751.97,-129 751.97,-110 798.97,-110 798.97,-129"/>
<text text-anchor="middle" x="775.47" y="-117" font-family="Helvetica,sans-Serif" font-size="10.00">type.h</text>
</a>
</g>
</g>
<!-- Node22&#45;&gt;Node24 -->
<g id="edge29_Node000022_Node000024" class="edge">
<title>Node22&#45;&gt;Node24</title>
<g id="a_edge29_Node000022_Node000024"><a xlink:title=" ">
<path fill="none" stroke="#63b8ff" d="M851.01,-164.98C837.06,-156.77 815.68,-144.18 799.22,-134.49"/>
<polygon fill="#63b8ff" stroke="#63b8ff" points="800.59,-131.23 790.2,-129.17 797.04,-137.26 800.59,-131.23"/>
</a>
</g>
</g>
<!-- Node43 -->
<g id="Node000043" class="node">
<title>Node43</title>
<g id="a_Node000043"><a xlink:href="validation__mode_8h.html" target="_top" xlink:title=" ">
<polygon fill="white" stroke="#666666" points="780.97,-19 673.97,-19 673.97,0 780.97,0 780.97,-19"/>
<text text-anchor="middle" x="727.47" y="-7" font-family="Helvetica,sans-Serif" font-size="10.00">validation_mode.h</text>
</a>
</g>
</g>
<!-- Node22&#45;&gt;Node43 -->
<g id="edge40_Node000022_Node000043" class="edge">
<title>Node22&#45;&gt;Node43</title>
<g id="a_edge40_Node000022_Node000043"><a xlink:title=" ">
<path fill="none" stroke="#63b8ff" d="M841.85,-169.6C799.6,-161.13 713.02,-136.51 686.47,-74 678.97,-56.33 693.43,-38.12 707.2,-25.76"/>
<polygon fill="#63b8ff" stroke="#63b8ff" points="709.62,-28.29 715.06,-19.2 705.14,-22.92 709.62,-28.29"/>
</a>
</g>
</g>
<!-- Node44 -->
<g id="Node000044" class="node">
<title>Node44</title>
<g id="a_Node000044"><a xlink:href="validate__types_8h.html" target="_top" xlink:title=" ">
<polygon fill="white" stroke="#666666" points="914.47,-74 816.47,-74 816.47,-55 914.47,-55 914.47,-74"/>
<text text-anchor="middle" x="865.47" y="-62" font-family="Helvetica,sans-Serif" font-size="10.00">validate_types.h</text>
</a>
</g>
</g>
<!-- Node22&#45;&gt;Node44 -->
<g id="edge39_Node000022_Node000044" class="edge">
<title>Node22&#45;&gt;Node44</title>
<g id="a_edge39_Node000022_Node000044"><a xlink:title=" ">
<path fill="none" stroke="#63b8ff" d="M865.47,-164.66C865.47,-147.17 865.47,-107.8 865.47,-84.27"/>
<polygon fill="#63b8ff" stroke="#63b8ff" points="868.97,-84.16 865.47,-74.16 861.97,-84.16 868.97,-84.16"/>
</a>
</g>
</g>
<!-- Node45 -->
<g id="Node000045" class="node">
<title>Node45</title>
<g id="a_Node000045"><a xlink:href="validate__expressions_8h.html" target="_top" xlink:title=" ">
<polygon fill="white" stroke="#666666" points="1108.97,-129 979.97,-129 979.97,-110 1108.97,-110 1108.97,-129"/>
<text text-anchor="middle" x="1044.47" y="-117" font-family="Helvetica,sans-Serif" font-size="10.00">validate_expressions.h</text>
</a>
</g>
</g>
<!-- Node22&#45;&gt;Node45 -->
<g id="edge38_Node000022_Node000045" class="edge">
<title>Node22&#45;&gt;Node45</title>
<g id="a_edge38_Node000022_Node000045"><a xlink:title=" ">
<path fill="none" stroke="#63b8ff" d="M889.24,-166.46C918.93,-157.67 970.13,-142.51 1005.57,-132.02"/>
<polygon fill="#63b8ff" stroke="#63b8ff" points="1006.97,-135.26 1015.56,-129.06 1004.98,-128.54 1006.97,-135.26"/>
</a>
</g>
</g>
<!-- Node25 -->
<g id="Node000025" class="node">
<title>Node25</title>
<g id="a_Node000025"><a xlink:href="source__location_8h.html" target="_top" xlink:title=" ">
<polygon fill="#fff0f0" stroke="red" points="617.47,-74 515.47,-74 515.47,-55 617.47,-55 617.47,-74"/>
<text text-anchor="middle" x="566.47" y="-62" font-family="Helvetica,sans-Serif" font-size="10.00">source_location.h</text>
</a>
</g>
</g>
<!-- Node24&#45;&gt;Node25 -->
<g id="edge30_Node000024_Node000025" class="edge">
<title>Node24&#45;&gt;Node25</title>
<g id="a_edge30_Node000024_Node000025"><a xlink:title=" ">
<path fill="none" stroke="#63b8ff" d="M751.91,-112.52C717.61,-103.83 653.35,-87.53 610.23,-76.6"/>
<polygon fill="#63b8ff" stroke="#63b8ff" points="610.85,-73.14 600.29,-74.08 609.13,-79.93 610.85,-73.14"/>
</a>
</g>
</g>
<!-- Node41 -->
<g id="Node000041" class="node">
<title>Node41</title>
<g id="a_Node000041"><a xlink:href="validate_8h.html" target="_top" xlink:title=" ">
<polygon fill="#fff0f0" stroke="red" points="759.97,-74 694.97,-74 694.97,-55 759.97,-55 759.97,-74"/>
<text text-anchor="middle" x="727.47" y="-62" font-family="Helvetica,sans-Serif" font-size="10.00">validate.h</text>
</a>
</g>
</g>
<!-- Node24&#45;&gt;Node41 -->
<g id="edge33_Node000024_Node000041" class="edge">
<title>Node24&#45;&gt;Node41</title>
<g id="a_edge33_Node000024_Node000041"><a xlink:title=" ">
<path fill="none" stroke="#63b8ff" d="M767.55,-109.75C760.63,-102.11 750.41,-90.82 742.02,-81.56"/>
<polygon fill="#63b8ff" stroke="#63b8ff" points="744.56,-79.15 735.25,-74.09 739.37,-83.85 744.56,-79.15"/>
</a>
</g>
</g>
<!-- Node24&#45;&gt;Node43 -->
<g id="edge37_Node000024_Node000043" class="edge">
<title>Node24&#45;&gt;Node43</title>
<g id="a_edge37_Node000024_Node000043"><a xlink:title=" ">
<path fill="none" stroke="#63b8ff" d="M776.38,-109.83C777.32,-97.17 777.7,-73.16 769.47,-55 764.42,-43.85 755.42,-33.73 747.03,-25.96"/>
<polygon fill="#63b8ff" stroke="#63b8ff" points="749.18,-23.19 739.34,-19.28 744.6,-28.48 749.18,-23.19"/>
</a>
</g>
</g>
<!-- Node24&#45;&gt;Node44 -->
<g id="edge36_Node000024_Node000044" class="edge">
<title>Node24&#45;&gt;Node44</title>
<g id="a_edge36_Node000024_Node000044"><a xlink:title=" ">
<path fill="none" stroke="#63b8ff" d="M789.93,-109.98C803.89,-101.77 825.27,-89.18 841.72,-79.49"/>
<polygon fill="#63b8ff" stroke="#63b8ff" points="843.91,-82.26 850.75,-74.17 840.36,-76.23 843.91,-82.26"/>
</a>
</g>
</g>
<!-- Node25&#45;&gt;Node9 -->
<g id="edge32_Node000025_Node000009" class="edge">
<title>Node25&#45;&gt;Node9</title>
<g id="a_edge32_Node000025_Node000009"><a xlink:title=" ">
<path fill="none" stroke="#63b8ff" d="M547.68,-54.98C528.85,-46.46 499.65,-33.23 477.98,-23.41"/>
<polygon fill="#63b8ff" stroke="#63b8ff" points="479.17,-20.11 468.61,-19.17 476.28,-26.48 479.17,-20.11"/>
</a>
</g>
</g>
<!-- Node25&#45;&gt;Node11 -->
<g id="edge31_Node000025_Node000011" class="edge">
<title>Node25&#45;&gt;Node11</title>
<g id="a_edge31_Node000025_Node000011"><a xlink:title=" ">
<path fill="none" stroke="#63b8ff" d="M565.65,-54.75C564.99,-47.8 564.05,-37.85 563.23,-29.13"/>
<polygon fill="#63b8ff" stroke="#63b8ff" points="566.71,-28.72 562.28,-19.09 559.74,-29.37 566.71,-28.72"/>
</a>
</g>
</g>
<!-- Node41&#45;&gt;Node17 -->
<g id="edge34_Node000041_Node000017" class="edge">
<title>Node41&#45;&gt;Node17</title>
<g id="a_edge34_Node000041_Node000017"><a xlink:title=" ">
<path fill="none" stroke="#63b8ff" d="M760.14,-58.61C823.77,-49.08 964.38,-28.03 1036.66,-17.21"/>
<polygon fill="#63b8ff" stroke="#63b8ff" points="1037.43,-20.63 1046.81,-15.69 1036.4,-13.71 1037.43,-20.63"/>
</a>
</g>
</g>
<!-- Node41&#45;&gt;Node43 -->
<g id="edge35_Node000041_Node000043" class="edge">
<title>Node41&#45;&gt;Node43</title>
<g id="a_edge35_Node000041_Node000043"><a xlink:title=" ">
<path fill="none" stroke="#63b8ff" d="M727.47,-54.75C727.47,-47.8 727.47,-37.85 727.47,-29.13"/>
<polygon fill="#63b8ff" stroke="#63b8ff" points="730.97,-29.09 727.47,-19.09 723.97,-29.09 730.97,-29.09"/>
</a>
</g>
</g>
<!-- Node46&#45;&gt;Node8 -->
<g id="edge47_Node000046_Node000008" class="edge">
<title>Node46&#45;&gt;Node8</title>
<g id="a_edge47_Node000046_Node000008"><a xlink:title=" ">
<path fill="none" stroke="#63b8ff" d="M678.65,-278.8C605.26,-269.42 440.47,-248.38 354.7,-237.42"/>
<polygon fill="#63b8ff" stroke="#63b8ff" points="355,-233.94 344.64,-236.14 354.11,-240.88 355,-233.94"/>
</a>
</g>
</g>
<!-- Node46&#45;&gt;Node14 -->
<g id="edge46_Node000046_Node000014" class="edge">
<title>Node46&#45;&gt;Node14</title>
<g id="a_edge46_Node000046_Node000014"><a xlink:title=" ">
<path fill="none" stroke="#63b8ff" d="M707.62,-274.66C691.51,-256.54 654.51,-214.91 633.94,-191.77"/>
<polygon fill="#63b8ff" stroke="#63b8ff" points="636.43,-189.31 627.17,-184.16 631.2,-193.96 636.43,-189.31"/>
</a>
</g>
</g>
<!-- Node46&#45;&gt;Node19 -->
<g id="edge45_Node000046_Node000019" class="edge">
<title>Node46&#45;&gt;Node19</title>
<g id="a_edge45_Node000046_Node000019"><a xlink:title=" ">
<path fill="none" stroke="#63b8ff" d="M747.93,-274.98C782.43,-265.93 837.14,-251.58 875.03,-241.64"/>
<polygon fill="#63b8ff" stroke="#63b8ff" points="875.98,-245.01 884.77,-239.08 874.2,-238.23 875.98,-245.01"/>
</a>
</g>
</g>
<!-- Node46&#45;&gt;Node22 -->
<g id="edge44_Node000046_Node000022" class="edge">
<title>Node46&#45;&gt;Node22</title>
<g id="a_edge44_Node000046_Node000022"><a xlink:title=" ">
<path fill="none" stroke="#63b8ff" d="M752.08,-275.71C775.96,-269.15 806.63,-257.74 828.47,-239 842.67,-226.82 852.74,-207.76 858.76,-193.7"/>
<polygon fill="#63b8ff" stroke="#63b8ff" points="862.13,-194.7 862.57,-184.12 855.62,-192.11 862.13,-194.7"/>
</a>
</g>
</g>
<!-- Node46&#45;&gt;Node41 -->
<g id="edge48_Node000046_Node000041" class="edge">
<title>Node46&#45;&gt;Node41</title>
<g id="a_edge48_Node000046_Node000041"><a xlink:title=" ">
<path fill="none" stroke="#63b8ff" d="M746.52,-274.87C764.22,-268.18 784.92,-256.95 795.47,-239 815,-205.79 777.67,-213.87 743.47,-129 737.63,-114.48 733.44,-97.21 730.82,-84.35"/>
<polygon fill="#63b8ff" stroke="#63b8ff" points="734.23,-83.53 728.92,-74.37 727.35,-84.84 734.23,-83.53"/>
</a>
</g>
</g>
<!-- Node34 -->
<g id="Node000034" class="node">
<title>Node34</title>
<g id="a_Node000034"><a xlink:title=" ">
<polygon fill="#e0e0e0" stroke="#999999" points="785.97,-239 692.97,-239 692.97,-220 785.97,-220 785.97,-239"/>
<text text-anchor="middle" x="739.47" y="-227" font-family="Helvetica,sans-Serif" font-size="10.00">unordered_map</text>
</a>
</g>
</g>
<!-- Node46&#45;&gt;Node34 -->
<g id="edge49_Node000046_Node000034" class="edge">
<title>Node46&#45;&gt;Node34</title>
<g id="a_edge49_Node000046_Node000034"><a xlink:title=" ">
<path fill="none" stroke="#63b8ff" d="M719.44,-274.75C722.69,-267.57 727.39,-257.18 731.43,-248.27"/>
<polygon fill="#63b8ff" stroke="#63b8ff" points="734.65,-249.64 735.58,-239.09 728.27,-246.75 734.65,-249.64"/>
</a>
</g>
</g>
<!-- Node48&#45;&gt;Node14 -->
<g id="edge52_Node000048_Node000014" class="edge">
<title>Node48&#45;&gt;Node14</title>
<g id="a_edge52_Node000048_Node000014"><a xlink:title=" ">
<path fill="none" stroke="#63b8ff" d="M1132.7,-225.87C1046.09,-217.37 772.93,-190.56 664.49,-179.92"/>
<polygon fill="#63b8ff" stroke="#63b8ff" points="664.51,-176.4 654.21,-178.91 663.83,-183.37 664.51,-176.4"/>
</a>
</g>
</g>
<!-- Node48&#45;&gt;Node17 -->
<g id="edge55_Node000048_Node000017" class="edge">
<title>Node48&#45;&gt;Node17</title>
<g id="a_edge55_Node000048_Node000017"><a xlink:title=" ">
<path fill="none" stroke="#63b8ff" d="M1186,-220.42C1203.15,-213.67 1224.14,-202.16 1234.47,-184 1262.84,-134.18 1268.89,-100.85 1234.47,-55 1221.39,-37.56 1166.4,-24.73 1126.08,-17.44"/>
<polygon fill="#63b8ff" stroke="#63b8ff" points="1126.63,-13.98 1116.18,-15.7 1125.43,-20.88 1126.63,-13.98"/>
</a>
</g>
</g>
<!-- Node48&#45;&gt;Node21 -->
<g id="edge53_Node000048_Node000021" class="edge">
<title>Node48&#45;&gt;Node21</title>
<g id="a_edge53_Node000048_Node000021"><a xlink:title=" ">
<path fill="none" stroke="#63b8ff" d="M1159.47,-219.66C1159.47,-202.17 1159.47,-162.8 1159.47,-139.27"/>
<polygon fill="#63b8ff" stroke="#63b8ff" points="1162.97,-139.16 1159.47,-129.16 1155.97,-139.16 1162.97,-139.16"/>
</a>
</g>
</g>
<!-- Node49 -->
<g id="Node000049" class="node">
<title>Node49</title>
<g id="a_Node000049"><a xlink:title=" ">
<polygon fill="#e0e0e0" stroke="#999999" points="1344.47,-184 1286.47,-184 1286.47,-165 1344.47,-165 1344.47,-184"/>
<text text-anchor="middle" x="1315.47" y="-172" font-family="Helvetica,sans-Serif" font-size="10.00">memory</text>
</a>
</g>
</g>
<!-- Node48&#45;&gt;Node49 -->
<g id="edge54_Node000048_Node000049" class="edge">
<title>Node48&#45;&gt;Node49</title>
<g id="a_edge54_Node000048_Node000049"><a xlink:title=" ">
<path fill="none" stroke="#63b8ff" d="M1184.54,-219.98C1210.5,-211.16 1251.28,-197.31 1280.43,-187.41"/>
<polygon fill="#63b8ff" stroke="#63b8ff" points="1281.87,-190.61 1290.21,-184.08 1279.62,-183.99 1281.87,-190.61"/>
</a>
</g>
</g>
<!-- Node50&#45;&gt;Node9 -->
<g id="edge57_Node000050_Node000009" class="edge">
<title>Node50&#45;&gt;Node9</title>
<g id="a_edge57_Node000050_Node000009"><a xlink:title=" ">
<path fill="none" stroke="#63b8ff" d="M386.65,-329.77C394.89,-311.69 412.47,-268.64 412.47,-230.5 412.47,-230.5 412.47,-230.5 412.47,-173.5 412.47,-119.74 431.85,-58.43 442.56,-28.65"/>
<polygon fill="#63b8ff" stroke="#63b8ff" points="445.88,-29.77 446.06,-19.18 439.31,-27.34 445.88,-29.77"/>
</a>
</g>
</g>
<!-- Node50&#45;&gt;Node12 -->
<g id="edge58_Node000050_Node000012" class="edge">
<title>Node50&#45;&gt;Node12</title>
<g id="a_edge58_Node000050_Node000012"><a xlink:title=" ">
<path fill="none" stroke="#63b8ff" d="M378.84,-329.75C375.89,-322.65 371.64,-312.4 367.97,-303.56"/>
<polygon fill="#63b8ff" stroke="#63b8ff" points="371.11,-301.98 364.04,-294.09 364.64,-304.67 371.11,-301.98"/>
</a>
</g>
</g>
</g>
</svg>
