<?xml version="1.0" encoding="UTF-8" standalone="no"?>
<!DOCTYPE svg PUBLIC "-//W3C//DTD SVG 1.1//EN"
 "http://www.w3.org/Graphics/SVG/1.1/DTD/svg11.dtd">
<!-- Generated by graphviz version 2.43.0 (0)
 -->
<!-- Title: /home/runner/work/cbmc/cbmc/src/util/irep_serialization.h Pages: 1 -->
<svg width="999pt" height="423pt"
 viewBox="0.00 0.00 999.00 423.00" xmlns="http://www.w3.org/2000/svg" xmlns:xlink="http://www.w3.org/1999/xlink">
<g id="graph0" class="graph" transform="scale(1 1) rotate(0) translate(4 419)">
<title>/home/runner/work/cbmc/cbmc/src/util/irep_serialization.h</title>
<!-- Node1 -->
<g id="Node000001" class="node">
<title>Node1</title>
<g id="a_Node000001"><a xlink:title="binary irep conversions with hashing">
<polygon fill="#999999" stroke="#666666" points="432,-415 254,-415 254,-385 432,-385 432,-415"/>
<text text-anchor="start" x="262" y="-403" font-family="Helvetica,sans-Serif" font-size="10.00">/home/runner/work/cbmc</text>
<text text-anchor="middle" x="343" y="-392" font-family="Helvetica,sans-Serif" font-size="10.00">/cbmc/src/util/irep_serialization.h</text>
</a>
</g>
</g>
<!-- Node2 -->
<g id="Node000002" class="node">
<title>Node2</title>
<g id="a_Node000002"><a xlink:title=" ">
<polygon fill="#e0e0e0" stroke="#999999" points="66,-294 28,-294 28,-275 66,-275 66,-294"/>
<text text-anchor="middle" x="47" y="-282" font-family="Helvetica,sans-Serif" font-size="10.00">map</text>
</a>
</g>
</g>
<!-- Node1&#45;&gt;Node2 -->
<g id="edge1_Node000001_Node000002" class="edge">
<title>Node1&#45;&gt;Node2</title>
<g id="a_edge1_Node000001_Node000002"><a xlink:title=" ">
<path fill="none" stroke="#63b8ff" d="M253.94,-390.08C189.48,-382.13 109.11,-368.69 82,-349 66.9,-338.04 57.56,-318.48 52.36,-303.96"/>
<polygon fill="#63b8ff" stroke="#63b8ff" points="55.57,-302.5 49.17,-294.06 48.91,-304.65 55.57,-302.5"/>
</a>
</g>
</g>
<!-- Node3 -->
<g id="Node000003" class="node">
<title>Node3</title>
<g id="a_Node000003"><a xlink:title=" ">
<polygon fill="#e0e0e0" stroke="#999999" points="991,-129 943,-129 943,-110 991,-110 991,-129"/>
<text text-anchor="middle" x="967" y="-117" font-family="Helvetica,sans-Serif" font-size="10.00">iosfwd</text>
</a>
</g>
</g>
<!-- Node1&#45;&gt;Node3 -->
<g id="edge2_Node000001_Node000003" class="edge">
<title>Node1&#45;&gt;Node3</title>
<g id="a_edge2_Node000001_Node000003"><a xlink:title=" ">
<path fill="none" stroke="#63b8ff" d="M432.19,-392.29C607.91,-377.86 982,-340.68 982,-285.5 982,-285.5 982,-285.5 982,-228.5 982,-196.89 975.62,-160.56 971.18,-139.13"/>
<polygon fill="#63b8ff" stroke="#63b8ff" points="974.55,-138.16 969.02,-129.12 967.71,-139.64 974.55,-138.16"/>
</a>
</g>
</g>
<!-- Node4 -->
<g id="Node000004" class="node">
<title>Node4</title>
<g id="a_Node000004"><a xlink:title=" ">
<polygon fill="#e0e0e0" stroke="#999999" points="533,-19 489,-19 489,0 533,0 533,-19"/>
<text text-anchor="middle" x="511" y="-7" font-family="Helvetica,sans-Serif" font-size="10.00">string</text>
</a>
</g>
</g>
<!-- Node1&#45;&gt;Node4 -->
<g id="edge3_Node000001_Node000004" class="edge">
<title>Node1&#45;&gt;Node4</title>
<g id="a_edge3_Node000001_Node000004"><a xlink:title=" ">
<path fill="none" stroke="#63b8ff" d="M365.22,-385C401.9,-360.49 474.24,-306 506,-239 539.71,-167.88 524.19,-69.79 515.48,-29.22"/>
<polygon fill="#63b8ff" stroke="#63b8ff" points="518.88,-28.36 513.26,-19.38 512.05,-29.9 518.88,-28.36"/>
</a>
</g>
</g>
<!-- Node5 -->
<g id="Node000005" class="node">
<title>Node5</title>
<g id="a_Node000005"><a xlink:title=" ">
<polygon fill="#e0e0e0" stroke="#999999" points="50.5,-74 3.5,-74 3.5,-55 50.5,-55 50.5,-74"/>
<text text-anchor="middle" x="27" y="-62" font-family="Helvetica,sans-Serif" font-size="10.00">vector</text>
</a>
</g>
</g>
<!-- Node1&#45;&gt;Node5 -->
<g id="edge4_Node000001_Node000005" class="edge">
<title>Node1&#45;&gt;Node5</title>
<g id="a_edge4_Node000001_Node000005"><a xlink:title=" ">
<path fill="none" stroke="#63b8ff" d="M253.88,-397.29C195.95,-392.88 120.43,-380.74 61,-349 26.48,-330.57 0,-324.63 0,-285.5 0,-285.5 0,-285.5 0,-173.5 0,-141.09 11.58,-104.81 19.58,-83.63"/>
<polygon fill="#63b8ff" stroke="#63b8ff" points="22.85,-84.86 23.25,-74.27 16.33,-82.3 22.85,-84.86"/>
</a>
</g>
</g>
<!-- Node6 -->
<g id="Node000006" class="node">
<title>Node6</title>
<g id="a_Node000006"><a xlink:href="irep__hash__container_8h.html" target="_top" xlink:title="IREP Hash Container.">
<polygon fill="white" stroke="#666666" points="214.5,-349 91.5,-349 91.5,-330 214.5,-330 214.5,-349"/>
<text text-anchor="middle" x="153" y="-337" font-family="Helvetica,sans-Serif" font-size="10.00">irep_hash_container.h</text>
</a>
</g>
</g>
<!-- Node1&#45;&gt;Node6 -->
<g id="edge5_Node000001_Node000006" class="edge">
<title>Node1&#45;&gt;Node6</title>
<g id="a_edge5_Node000001_Node000006"><a xlink:title=" ">
<path fill="none" stroke="#63b8ff" d="M297.49,-384.99C264.84,-374.94 221.37,-361.55 190.67,-352.1"/>
<polygon fill="#63b8ff" stroke="#63b8ff" points="191.37,-348.65 180.78,-349.05 189.31,-355.34 191.37,-348.65"/>
</a>
</g>
</g>
<!-- Node7 -->
<g id="Node000007" class="node">
<title>Node7</title>
<g id="a_Node000007"><a xlink:href="irep_8h.html" target="_top" xlink:title=" ">
<polygon fill="white" stroke="#666666" points="596,-294 552,-294 552,-275 596,-275 596,-294"/>
<text text-anchor="middle" x="574" y="-282" font-family="Helvetica,sans-Serif" font-size="10.00">irep.h</text>
</a>
</g>
</g>
<!-- Node1&#45;&gt;Node7 -->
<g id="edge44_Node000001_Node000007" class="edge">
<title>Node1&#45;&gt;Node7</title>
<g id="a_edge44_Node000001_Node000007"><a xlink:title=" ">
<path fill="none" stroke="#63b8ff" d="M432.12,-391.37C467.9,-384.65 507.74,-372.15 538,-349 552.76,-337.71 562.42,-318.52 567.98,-304.19"/>
<polygon fill="#63b8ff" stroke="#63b8ff" points="571.42,-304.98 571.45,-294.38 564.82,-302.64 571.42,-304.98"/>
</a>
</g>
</g>
<!-- Node6&#45;&gt;Node2 -->
<g id="edge6_Node000006_Node000002" class="edge">
<title>Node6&#45;&gt;Node2</title>
<g id="a_edge6_Node000006_Node000002"><a xlink:title=" ">
<path fill="none" stroke="#63b8ff" d="M135.97,-329.98C119.07,-321.54 92.94,-308.47 73.36,-298.68"/>
<polygon fill="#63b8ff" stroke="#63b8ff" points="74.85,-295.51 64.34,-294.17 71.72,-301.77 74.85,-295.51"/>
</a>
</g>
</g>
<!-- Node6&#45;&gt;Node5 -->
<g id="edge7_Node000006_Node000005" class="edge">
<title>Node6&#45;&gt;Node5</title>
<g id="a_edge7_Node000006_Node000005"><a xlink:title=" ">
<path fill="none" stroke="#63b8ff" d="M148.95,-329.73C131.14,-291.14 59.58,-136.09 35.19,-83.25"/>
<polygon fill="#63b8ff" stroke="#63b8ff" points="38.34,-81.72 30.97,-74.11 31.98,-84.65 38.34,-81.72"/>
</a>
</g>
</g>
<!-- Node6&#45;&gt;Node7 -->
<g id="edge8_Node000006_Node000007" class="edge">
<title>Node6&#45;&gt;Node7</title>
<g id="a_edge8_Node000006_Node000007"><a xlink:title=" ">
<path fill="none" stroke="#63b8ff" d="M214.67,-330.74C305.47,-319.3 471.93,-298.35 541.79,-289.55"/>
<polygon fill="#63b8ff" stroke="#63b8ff" points="542.28,-293.02 551.77,-288.3 541.41,-286.08 542.28,-293.02"/>
</a>
</g>
</g>
<!-- Node27 -->
<g id="Node000027" class="node">
<title>Node27</title>
<g id="a_Node000027"><a xlink:href="numbering_8h.html" target="_top" xlink:title=" ">
<polygon fill="white" stroke="#666666" points="192,-184 114,-184 114,-165 192,-165 192,-184"/>
<text text-anchor="middle" x="153" y="-172" font-family="Helvetica,sans-Serif" font-size="10.00">numbering.h</text>
</a>
</g>
</g>
<!-- Node6&#45;&gt;Node27 -->
<g id="edge39_Node000006_Node000027" class="edge">
<title>Node6&#45;&gt;Node27</title>
<g id="a_edge39_Node000006_Node000027"><a xlink:title=" ">
<path fill="none" stroke="#63b8ff" d="M153,-329.74C153,-304.31 153,-230.08 153,-194.69"/>
<polygon fill="#63b8ff" stroke="#63b8ff" points="156.5,-194.31 153,-184.31 149.5,-194.31 156.5,-194.31"/>
</a>
</g>
</g>
<!-- Node7&#45;&gt;Node4 -->
<g id="edge9_Node000007_Node000004" class="edge">
<title>Node7&#45;&gt;Node4</title>
<g id="a_edge9_Node000007_Node000004"><a xlink:title=" ">
<path fill="none" stroke="#63b8ff" d="M573.19,-274.83C571.55,-256.51 568,-212.49 568,-175.5 568,-175.5 568,-175.5 568,-118.5 568,-82.51 542.94,-46.76 526.05,-26.76"/>
<polygon fill="#63b8ff" stroke="#63b8ff" points="528.64,-24.4 519.41,-19.2 523.38,-29.02 528.64,-24.4"/>
</a>
</g>
</g>
<!-- Node7&#45;&gt;Node5 -->
<g id="edge10_Node000007_Node000005" class="edge">
<title>Node7&#45;&gt;Node5</title>
<g id="a_edge10_Node000007_Node000005"><a xlink:title=" ">
<path fill="none" stroke="#63b8ff" d="M551.97,-278.29C522.36,-270.99 468.3,-256.61 424,-239 305.97,-192.08 286.66,-157.82 169,-110 149.23,-101.97 95.85,-85.77 60.46,-75.29"/>
<polygon fill="#63b8ff" stroke="#63b8ff" points="61.14,-71.84 50.56,-72.37 59.16,-78.56 61.14,-71.84"/>
</a>
</g>
</g>
<!-- Node8 -->
<g id="Node000008" class="node">
<title>Node8</title>
<g id="a_Node000008"><a xlink:href="src_2util_2invariant_8h.html" target="_top" xlink:title=" ">
<polygon fill="white" stroke="#666666" points="693.5,-129 624.5,-129 624.5,-110 693.5,-110 693.5,-129"/>
<text text-anchor="middle" x="659" y="-117" font-family="Helvetica,sans-Serif" font-size="10.00">invariant.h</text>
</a>
</g>
</g>
<!-- Node7&#45;&gt;Node8 -->
<g id="edge11_Node000007_Node000008" class="edge">
<title>Node7&#45;&gt;Node8</title>
<g id="a_edge11_Node000007_Node000008"><a xlink:title=" ">
<path fill="none" stroke="#63b8ff" d="M576.9,-274.82C583.79,-254.75 602.26,-203.86 625,-165 630.7,-155.26 638.21,-145.21 644.73,-137.13"/>
<polygon fill="#63b8ff" stroke="#63b8ff" points="647.59,-139.17 651.28,-129.24 642.2,-134.7 647.59,-139.17"/>
</a>
</g>
</g>
<!-- Node12 -->
<g id="Node000012" class="node">
<title>Node12</title>
<g id="a_Node000012"><a xlink:href="irep__ids_8h.html" target="_top" xlink:title="util">
<polygon fill="white" stroke="#666666" points="497,-239 433,-239 433,-220 497,-220 497,-239"/>
<text text-anchor="middle" x="465" y="-227" font-family="Helvetica,sans-Serif" font-size="10.00">irep_ids.h</text>
</a>
</g>
</g>
<!-- Node7&#45;&gt;Node12 -->
<g id="edge16_Node000007_Node000012" class="edge">
<title>Node7&#45;&gt;Node12</title>
<g id="a_edge16_Node000007_Node000012"><a xlink:title=" ">
<path fill="none" stroke="#63b8ff" d="M556.49,-274.98C539.03,-266.5 511.99,-253.35 491.83,-243.54"/>
<polygon fill="#63b8ff" stroke="#63b8ff" points="493.36,-240.4 482.83,-239.17 490.29,-246.69 493.36,-240.4"/>
</a>
</g>
</g>
<!-- Node22 -->
<g id="Node000022" class="node">
<title>Node22</title>
<g id="a_Node000022"><a xlink:href="forward__list__as__map_8h.html" target="_top" xlink:title=" ">
<polygon fill="white" stroke="#666666" points="823.5,-239 696.5,-239 696.5,-220 823.5,-220 823.5,-239"/>
<text text-anchor="middle" x="760" y="-227" font-family="Helvetica,sans-Serif" font-size="10.00">forward_list_as_map.h</text>
</a>
</g>
</g>
<!-- Node7&#45;&gt;Node22 -->
<g id="edge32_Node000007_Node000022" class="edge">
<title>Node7&#45;&gt;Node22</title>
<g id="a_edge32_Node000007_Node000022"><a xlink:title=" ">
<path fill="none" stroke="#63b8ff" d="M596.07,-277.21C626.63,-268.5 682.36,-252.62 720.27,-241.82"/>
<polygon fill="#63b8ff" stroke="#63b8ff" points="721.32,-245.16 729.98,-239.05 719.4,-238.43 721.32,-245.16"/>
</a>
</g>
</g>
<!-- Node8&#45;&gt;Node4 -->
<g id="edge14_Node000008_Node000004" class="edge">
<title>Node8&#45;&gt;Node4</title>
<g id="a_edge14_Node000008_Node000004"><a xlink:title=" ">
<path fill="none" stroke="#63b8ff" d="M649.36,-109.86C635.09,-97.22 607.3,-73.24 582,-55 566.85,-44.08 549.04,-32.92 535.05,-24.51"/>
<polygon fill="#63b8ff" stroke="#63b8ff" points="536.44,-21.26 526.05,-19.16 532.86,-27.28 536.44,-21.26"/>
</a>
</g>
</g>
<!-- Node9 -->
<g id="Node000009" class="node">
<title>Node9</title>
<g id="a_Node000009"><a xlink:title=" ">
<polygon fill="#e0e0e0" stroke="#999999" points="683.5,-74 634.5,-74 634.5,-55 683.5,-55 683.5,-74"/>
<text text-anchor="middle" x="659" y="-62" font-family="Helvetica,sans-Serif" font-size="10.00">cstdlib</text>
</a>
</g>
</g>
<!-- Node8&#45;&gt;Node9 -->
<g id="edge12_Node000008_Node000009" class="edge">
<title>Node8&#45;&gt;Node9</title>
<g id="a_edge12_Node000008_Node000009"><a xlink:title=" ">
<path fill="none" stroke="#63b8ff" d="M659,-109.75C659,-102.8 659,-92.85 659,-84.13"/>
<polygon fill="#63b8ff" stroke="#63b8ff" points="662.5,-84.09 659,-74.09 655.5,-84.09 662.5,-84.09"/>
</a>
</g>
</g>
<!-- Node10 -->
<g id="Node000010" class="node">
<title>Node10</title>
<g id="a_Node000010"><a xlink:title=" ">
<polygon fill="#e0e0e0" stroke="#999999" points="758,-74 702,-74 702,-55 758,-55 758,-74"/>
<text text-anchor="middle" x="730" y="-62" font-family="Helvetica,sans-Serif" font-size="10.00">sstream</text>
</a>
</g>
</g>
<!-- Node8&#45;&gt;Node10 -->
<g id="edge13_Node000008_Node000010" class="edge">
<title>Node8&#45;&gt;Node10</title>
<g id="a_edge13_Node000008_Node000010"><a xlink:title=" ">
<path fill="none" stroke="#63b8ff" d="M670.41,-109.98C681.11,-102 697.34,-89.88 710.16,-80.31"/>
<polygon fill="#63b8ff" stroke="#63b8ff" points="712.47,-82.96 718.39,-74.17 708.28,-77.35 712.47,-82.96"/>
</a>
</g>
</g>
<!-- Node11 -->
<g id="Node000011" class="node">
<title>Node11</title>
<g id="a_Node000011"><a xlink:title=" ">
<polygon fill="#e0e0e0" stroke="#999999" points="875.5,-74 806.5,-74 806.5,-55 875.5,-55 875.5,-74"/>
<text text-anchor="middle" x="841" y="-62" font-family="Helvetica,sans-Serif" font-size="10.00">type_traits</text>
</a>
</g>
</g>
<!-- Node8&#45;&gt;Node11 -->
<g id="edge15_Node000008_Node000011" class="edge">
<title>Node8&#45;&gt;Node11</title>
<g id="a_edge15_Node000008_Node000011"><a xlink:title=" ">
<path fill="none" stroke="#63b8ff" d="M688.24,-109.98C719.06,-101.01 767.78,-86.82 801.89,-76.89"/>
<polygon fill="#63b8ff" stroke="#63b8ff" points="802.91,-80.24 811.53,-74.08 800.95,-73.52 802.91,-80.24"/>
</a>
</g>
</g>
<!-- Node13 -->
<g id="Node000013" class="node">
<title>Node13</title>
<g id="a_Node000013"><a xlink:href="dstring_8h.html" target="_top" xlink:title="Container for C&#45;Strings.">
<polygon fill="white" stroke="#666666" points="409.5,-184 350.5,-184 350.5,-165 409.5,-165 409.5,-184"/>
<text text-anchor="middle" x="380" y="-172" font-family="Helvetica,sans-Serif" font-size="10.00">dstring.h</text>
</a>
</g>
</g>
<!-- Node12&#45;&gt;Node13 -->
<g id="edge17_Node000012_Node000013" class="edge">
<title>Node12&#45;&gt;Node13</title>
<g id="a_edge17_Node000012_Node000013"><a xlink:title=" ">
<path fill="none" stroke="#63b8ff" d="M451.34,-219.98C438.16,-211.77 417.97,-199.18 402.43,-189.49"/>
<polygon fill="#63b8ff" stroke="#63b8ff" points="404.24,-186.49 393.91,-184.17 400.54,-192.43 404.24,-186.49"/>
</a>
</g>
</g>
<!-- Node21 -->
<g id="Node000021" class="node">
<title>Node21</title>
<g id="a_Node000021"><a xlink:title=" ">
<polygon fill="#e0e0e0" stroke="#999999" points="502,-184 428,-184 428,-165 502,-165 502,-184"/>
<text text-anchor="middle" x="465" y="-172" font-family="Helvetica,sans-Serif" font-size="10.00">irep_ids.def</text>
</a>
</g>
</g>
<!-- Node12&#45;&gt;Node21 -->
<g id="edge31_Node000012_Node000021" class="edge">
<title>Node12&#45;&gt;Node21</title>
<g id="a_edge31_Node000012_Node000021"><a xlink:title=" ">
<path fill="none" stroke="#63b8ff" d="M465,-219.75C465,-212.8 465,-202.85 465,-194.13"/>
<polygon fill="#63b8ff" stroke="#63b8ff" points="468.5,-194.09 465,-184.09 461.5,-194.09 468.5,-194.09"/>
</a>
</g>
</g>
<!-- Node13&#45;&gt;Node3 -->
<g id="edge18_Node000013_Node000003" class="edge">
<title>Node13&#45;&gt;Node3</title>
<g id="a_edge18_Node000013_Node000003"><a xlink:title=" ">
<path fill="none" stroke="#63b8ff" d="M409.73,-166.59C412.85,-165.99 415.98,-165.45 419,-165 612.04,-136.26 846.31,-125.04 932.8,-121.69"/>
<polygon fill="#63b8ff" stroke="#63b8ff" points="932.97,-125.19 942.83,-121.31 932.71,-118.19 932.97,-125.19"/>
</a>
</g>
</g>
<!-- Node13&#45;&gt;Node4 -->
<g id="edge19_Node000013_Node000004" class="edge">
<title>Node13&#45;&gt;Node4</title>
<g id="a_edge19_Node000013_Node000004"><a xlink:title=" ">
<path fill="none" stroke="#63b8ff" d="M395.13,-164.9C408.36,-156.85 427.52,-143.85 441,-129 469.53,-97.57 492.17,-52.71 503.36,-28.18"/>
<polygon fill="#63b8ff" stroke="#63b8ff" points="506.57,-29.58 507.43,-19.02 500.17,-26.73 506.57,-29.58"/>
</a>
</g>
</g>
<!-- Node14 -->
<g id="Node000014" class="node">
<title>Node14</title>
<g id="a_Node000014"><a xlink:href="magic_8h.html" target="_top" xlink:title="Magic numbers used throughout the codebase.">
<polygon fill="white" stroke="#666666" points="310,-129 254,-129 254,-110 310,-110 310,-129"/>
<text text-anchor="middle" x="282" y="-117" font-family="Helvetica,sans-Serif" font-size="10.00">magic.h</text>
</a>
</g>
</g>
<!-- Node13&#45;&gt;Node14 -->
<g id="edge20_Node000013_Node000014" class="edge">
<title>Node13&#45;&gt;Node14</title>
<g id="a_edge20_Node000013_Node000014"><a xlink:title=" ">
<path fill="none" stroke="#63b8ff" d="M364.25,-164.98C348.77,-156.61 324.91,-143.7 306.86,-133.95"/>
<polygon fill="#63b8ff" stroke="#63b8ff" points="308.49,-130.85 298.03,-129.17 305.16,-137.01 308.49,-130.85"/>
</a>
</g>
</g>
<!-- Node16 -->
<g id="Node000016" class="node">
<title>Node16</title>
<g id="a_Node000016"><a xlink:href="string__container_8h.html" target="_top" xlink:title="Container for C&#45;Strings.">
<polygon fill="white" stroke="#666666" points="432,-129 328,-129 328,-110 432,-110 432,-129"/>
<text text-anchor="middle" x="380" y="-117" font-family="Helvetica,sans-Serif" font-size="10.00">string_container.h</text>
</a>
</g>
</g>
<!-- Node13&#45;&gt;Node16 -->
<g id="edge22_Node000013_Node000016" class="edge">
<title>Node13&#45;&gt;Node16</title>
<g id="a_edge22_Node000013_Node000016"><a xlink:title=" ">
<path fill="none" stroke="#63b8ff" d="M380,-164.75C380,-157.8 380,-147.85 380,-139.13"/>
<polygon fill="#63b8ff" stroke="#63b8ff" points="383.5,-139.09 380,-129.09 376.5,-139.09 383.5,-139.09"/>
</a>
</g>
</g>
<!-- Node15 -->
<g id="Node000015" class="node">
<title>Node15</title>
<g id="a_Node000015"><a xlink:title=" ">
<polygon fill="#e0e0e0" stroke="#999999" points="254.5,-19 201.5,-19 201.5,0 254.5,0 254.5,-19"/>
<text text-anchor="middle" x="228" y="-7" font-family="Helvetica,sans-Serif" font-size="10.00">cstddef</text>
</a>
</g>
</g>
<!-- Node14&#45;&gt;Node15 -->
<g id="edge21_Node000014_Node000015" class="edge">
<title>Node14&#45;&gt;Node15</title>
<g id="a_edge21_Node000014_Node000015"><a xlink:title=" ">
<path fill="none" stroke="#63b8ff" d="M255.43,-109.94C238.87,-103.06 218.88,-91.6 209,-74 200.84,-59.47 208,-41.05 215.75,-27.8"/>
<polygon fill="#63b8ff" stroke="#63b8ff" points="218.82,-29.49 221.29,-19.19 212.93,-25.71 218.82,-29.49"/>
</a>
</g>
</g>
<!-- Node16&#45;&gt;Node5 -->
<g id="edge25_Node000016_Node000005" class="edge">
<title>Node16&#45;&gt;Node5</title>
<g id="a_edge25_Node000016_Node000005"><a xlink:title=" ">
<path fill="none" stroke="#63b8ff" d="M327.76,-111.22C324.79,-110.81 321.86,-110.4 319,-110 206.61,-94.39 175.07,-96.86 60.55,-74.12"/>
<polygon fill="#63b8ff" stroke="#63b8ff" points="61.18,-70.67 50.69,-72.14 59.81,-77.54 61.18,-70.67"/>
</a>
</g>
</g>
<!-- Node17 -->
<g id="Node000017" class="node">
<title>Node17</title>
<g id="a_Node000017"><a xlink:title=" ">
<polygon fill="#e0e0e0" stroke="#999999" points="364,-74 332,-74 332,-55 364,-55 364,-74"/>
<text text-anchor="middle" x="348" y="-62" font-family="Helvetica,sans-Serif" font-size="10.00">list</text>
</a>
</g>
</g>
<!-- Node16&#45;&gt;Node17 -->
<g id="edge23_Node000016_Node000017" class="edge">
<title>Node16&#45;&gt;Node17</title>
<g id="a_edge23_Node000016_Node000017"><a xlink:title=" ">
<path fill="none" stroke="#63b8ff" d="M374.72,-109.75C370.29,-102.42 363.84,-91.73 358.38,-82.7"/>
<polygon fill="#63b8ff" stroke="#63b8ff" points="361.35,-80.84 353.19,-74.09 355.36,-84.46 361.35,-80.84"/>
</a>
</g>
</g>
<!-- Node18 -->
<g id="Node000018" class="node">
<title>Node18</title>
<g id="a_Node000018"><a xlink:title=" ">
<polygon fill="#e0e0e0" stroke="#999999" points="161.5,-74 68.5,-74 68.5,-55 161.5,-55 161.5,-74"/>
<text text-anchor="middle" x="115" y="-62" font-family="Helvetica,sans-Serif" font-size="10.00">unordered_map</text>
</a>
</g>
</g>
<!-- Node16&#45;&gt;Node18 -->
<g id="edge24_Node000016_Node000018" class="edge">
<title>Node16&#45;&gt;Node18</title>
<g id="a_edge24_Node000016_Node000018"><a xlink:title=" ">
<path fill="none" stroke="#63b8ff" d="M337.42,-109.98C291.3,-100.76 217.64,-86.03 167.84,-76.07"/>
<polygon fill="#63b8ff" stroke="#63b8ff" points="168.4,-72.61 157.91,-74.08 167.03,-79.48 168.4,-72.61"/>
</a>
</g>
</g>
<!-- Node19 -->
<g id="Node000019" class="node">
<title>Node19</title>
<g id="a_Node000019"><a xlink:href="memory__units_8h.html" target="_top" xlink:title=" ">
<polygon fill="white" stroke="#666666" points="314,-74 218,-74 218,-55 314,-55 314,-74"/>
<text text-anchor="middle" x="266" y="-62" font-family="Helvetica,sans-Serif" font-size="10.00">memory_units.h</text>
</a>
</g>
</g>
<!-- Node16&#45;&gt;Node19 -->
<g id="edge26_Node000016_Node000019" class="edge">
<title>Node16&#45;&gt;Node19</title>
<g id="a_edge26_Node000016_Node000019"><a xlink:title=" ">
<path fill="none" stroke="#63b8ff" d="M361.68,-109.98C343.34,-101.46 314.89,-88.23 293.77,-78.41"/>
<polygon fill="#63b8ff" stroke="#63b8ff" points="295.19,-75.21 284.65,-74.17 292.24,-81.56 295.19,-75.21"/>
</a>
</g>
</g>
<!-- Node20 -->
<g id="Node000020" class="node">
<title>Node20</title>
<g id="a_Node000020"><a xlink:href="string__hash_8h.html" target="_top" xlink:title="string hashing">
<polygon fill="white" stroke="#666666" points="464,-74 382,-74 382,-55 464,-55 464,-74"/>
<text text-anchor="middle" x="423" y="-62" font-family="Helvetica,sans-Serif" font-size="10.00">string_hash.h</text>
</a>
</g>
</g>
<!-- Node16&#45;&gt;Node20 -->
<g id="edge29_Node000016_Node000020" class="edge">
<title>Node16&#45;&gt;Node20</title>
<g id="a_edge29_Node000016_Node000020"><a xlink:title=" ">
<path fill="none" stroke="#63b8ff" d="M387.1,-109.75C393.17,-102.26 402.09,-91.28 409.51,-82.13"/>
<polygon fill="#63b8ff" stroke="#63b8ff" points="412.45,-84.06 416.03,-74.09 407.01,-79.65 412.45,-84.06"/>
</a>
</g>
</g>
<!-- Node19&#45;&gt;Node4 -->
<g id="edge28_Node000019_Node000004" class="edge">
<title>Node19&#45;&gt;Node4</title>
<g id="a_edge28_Node000019_Node000004"><a xlink:title=" ">
<path fill="none" stroke="#63b8ff" d="M305.36,-54.98C353.58,-44.56 434.32,-27.09 478.93,-17.44"/>
<polygon fill="#63b8ff" stroke="#63b8ff" points="479.9,-20.81 488.93,-15.27 478.42,-13.97 479.9,-20.81"/>
</a>
</g>
</g>
<!-- Node19&#45;&gt;Node15 -->
<g id="edge27_Node000019_Node000015" class="edge">
<title>Node19&#45;&gt;Node15</title>
<g id="a_edge27_Node000019_Node000015"><a xlink:title=" ">
<path fill="none" stroke="#63b8ff" d="M259.73,-54.75C254.41,-47.34 246.64,-36.5 240.12,-27.41"/>
<polygon fill="#63b8ff" stroke="#63b8ff" points="242.83,-25.18 234.16,-19.09 237.14,-29.26 242.83,-25.18"/>
</a>
</g>
</g>
<!-- Node20&#45;&gt;Node4 -->
<g id="edge30_Node000020_Node000004" class="edge">
<title>Node20&#45;&gt;Node4</title>
<g id="a_edge30_Node000020_Node000004"><a xlink:title=" ">
<path fill="none" stroke="#63b8ff" d="M437.14,-54.98C450.79,-46.77 471.69,-34.18 487.78,-24.49"/>
<polygon fill="#63b8ff" stroke="#63b8ff" points="489.84,-27.33 496.6,-19.17 486.23,-21.33 489.84,-27.33"/>
</a>
</g>
</g>
<!-- Node23 -->
<g id="Node000023" class="node">
<title>Node23</title>
<g id="a_Node000023"><a xlink:title=" ">
<polygon fill="#e0e0e0" stroke="#999999" points="876,-184 812,-184 812,-165 876,-165 876,-184"/>
<text text-anchor="middle" x="844" y="-172" font-family="Helvetica,sans-Serif" font-size="10.00">algorithm</text>
</a>
</g>
</g>
<!-- Node22&#45;&gt;Node23 -->
<g id="edge33_Node000022_Node000023" class="edge">
<title>Node22&#45;&gt;Node23</title>
<g id="a_edge33_Node000022_Node000023"><a xlink:title=" ">
<path fill="none" stroke="#63b8ff" d="M773.5,-219.98C786.4,-211.84 806.1,-199.41 821.4,-189.76"/>
<polygon fill="#63b8ff" stroke="#63b8ff" points="823.67,-192.47 830.26,-184.17 819.93,-186.55 823.67,-192.47"/>
</a>
</g>
</g>
<!-- Node24 -->
<g id="Node000024" class="node">
<title>Node24</title>
<g id="a_Node000024"><a xlink:title=" ">
<polygon fill="#e0e0e0" stroke="#999999" points="708,-184 634,-184 634,-165 708,-165 708,-184"/>
<text text-anchor="middle" x="671" y="-172" font-family="Helvetica,sans-Serif" font-size="10.00">forward_list</text>
</a>
</g>
</g>
<!-- Node22&#45;&gt;Node24 -->
<g id="edge34_Node000022_Node000024" class="edge">
<title>Node22&#45;&gt;Node24</title>
<g id="a_edge34_Node000022_Node000024"><a xlink:title=" ">
<path fill="none" stroke="#63b8ff" d="M745.7,-219.98C731.9,-211.77 710.76,-199.18 694.49,-189.49"/>
<polygon fill="#63b8ff" stroke="#63b8ff" points="695.94,-186.28 685.56,-184.17 692.36,-192.29 695.94,-186.28"/>
</a>
</g>
</g>
<!-- Node25 -->
<g id="Node000025" class="node">
<title>Node25</title>
<g id="a_Node000025"><a xlink:href="as__const_8h.html" target="_top" xlink:title=" ">
<polygon fill="white" stroke="#666666" points="794,-184 726,-184 726,-165 794,-165 794,-184"/>
<text text-anchor="middle" x="760" y="-172" font-family="Helvetica,sans-Serif" font-size="10.00">as_const.h</text>
</a>
</g>
</g>
<!-- Node22&#45;&gt;Node25 -->
<g id="edge35_Node000022_Node000025" class="edge">
<title>Node22&#45;&gt;Node25</title>
<g id="a_edge35_Node000022_Node000025"><a xlink:title=" ">
<path fill="none" stroke="#63b8ff" d="M760,-219.75C760,-212.8 760,-202.85 760,-194.13"/>
<polygon fill="#63b8ff" stroke="#63b8ff" points="763.5,-194.09 760,-184.09 756.5,-194.09 763.5,-194.09"/>
</a>
</g>
</g>
<!-- Node26 -->
<g id="Node000026" class="node">
<title>Node26</title>
<g id="a_Node000026"><a xlink:href="narrow_8h.html" target="_top" xlink:title=" ">
<polygon fill="white" stroke="#666666" points="953.5,-184 894.5,-184 894.5,-165 953.5,-165 953.5,-184"/>
<text text-anchor="middle" x="924" y="-172" font-family="Helvetica,sans-Serif" font-size="10.00">narrow.h</text>
</a>
</g>
</g>
<!-- Node22&#45;&gt;Node26 -->
<g id="edge36_Node000022_Node000026" class="edge">
<title>Node22&#45;&gt;Node26</title>
<g id="a_edge36_Node000022_Node000026"><a xlink:title=" ">
<path fill="none" stroke="#63b8ff" d="M786.35,-219.98C813.76,-211.13 856.89,-197.19 887.56,-187.28"/>
<polygon fill="#63b8ff" stroke="#63b8ff" points="889,-190.49 897.44,-184.08 886.85,-183.83 889,-190.49"/>
</a>
</g>
</g>
<!-- Node26&#45;&gt;Node8 -->
<g id="edge38_Node000026_Node000008" class="edge">
<title>Node26&#45;&gt;Node8</title>
<g id="a_edge38_Node000026_Node000008"><a xlink:title=" ">
<path fill="none" stroke="#63b8ff" d="M894.2,-166.94C891.1,-166.28 887.99,-165.62 885,-165 822.02,-151.94 748.97,-137.72 703.36,-128.96"/>
<polygon fill="#63b8ff" stroke="#63b8ff" points="703.98,-125.52 693.5,-127.07 702.66,-132.39 703.98,-125.52"/>
</a>
</g>
</g>
<!-- Node26&#45;&gt;Node11 -->
<g id="edge37_Node000026_Node000011" class="edge">
<title>Node26&#45;&gt;Node11</title>
<g id="a_edge37_Node000026_Node000011"><a xlink:title=" ">
<path fill="none" stroke="#63b8ff" d="M917.21,-164.66C903.4,-146.69 871.85,-105.64 853.98,-82.38"/>
<polygon fill="#63b8ff" stroke="#63b8ff" points="856.52,-79.95 847.65,-74.16 850.97,-84.22 856.52,-79.95"/>
</a>
</g>
</g>
<!-- Node27&#45;&gt;Node5 -->
<g id="edge43_Node000027_Node000005" class="edge">
<title>Node27&#45;&gt;Node5</title>
<g id="a_edge43_Node000027_Node000005"><a xlink:title=" ">
<path fill="none" stroke="#63b8ff" d="M141.19,-164.96C129.28,-156.23 110.49,-142.13 95,-129 76.66,-113.46 56.67,-94.54 43.14,-81.41"/>
<polygon fill="#63b8ff" stroke="#63b8ff" points="45.58,-78.9 35.98,-74.42 40.69,-83.91 45.58,-78.9"/>
</a>
</g>
</g>
<!-- Node27&#45;&gt;Node8 -->
<g id="edge40_Node000027_Node000008" class="edge">
<title>Node27&#45;&gt;Node8</title>
<g id="a_edge40_Node000027_Node000008"><a xlink:title=" ">
<path fill="none" stroke="#63b8ff" d="M192.28,-169.39C284.92,-159.68 516.57,-135.42 614.35,-125.18"/>
<polygon fill="#63b8ff" stroke="#63b8ff" points="614.91,-128.64 624.49,-124.12 614.18,-121.68 614.91,-128.64"/>
</a>
</g>
</g>
<!-- Node27&#45;&gt;Node18 -->
<g id="edge42_Node000027_Node000018" class="edge">
<title>Node27&#45;&gt;Node18</title>
<g id="a_edge42_Node000027_Node000018"><a xlink:title=" ">
<path fill="none" stroke="#63b8ff" d="M158.7,-164.93C166.27,-152.38 177.73,-128.51 169,-110 162.99,-97.26 151.34,-86.92 140.39,-79.44"/>
<polygon fill="#63b8ff" stroke="#63b8ff" points="142.21,-76.44 131.89,-74.05 138.46,-82.36 142.21,-76.44"/>
</a>
</g>
</g>
<!-- Node28 -->
<g id="Node000028" class="node">
<title>Node28</title>
<g id="a_Node000028"><a xlink:title=" ">
<polygon fill="#e0e0e0" stroke="#999999" points="160,-129 104,-129 104,-110 160,-110 160,-129"/>
<text text-anchor="middle" x="132" y="-117" font-family="Helvetica,sans-Serif" font-size="10.00">optional</text>
</a>
</g>
</g>
<!-- Node27&#45;&gt;Node28 -->
<g id="edge41_Node000027_Node000028" class="edge">
<title>Node27&#45;&gt;Node28</title>
<g id="a_edge41_Node000027_Node000028"><a xlink:title=" ">
<path fill="none" stroke="#63b8ff" d="M149.53,-164.75C146.72,-157.65 142.66,-147.4 139.15,-138.56"/>
<polygon fill="#63b8ff" stroke="#63b8ff" points="142.34,-137.1 135.4,-129.09 135.83,-139.68 142.34,-137.1"/>
</a>
</g>
</g>
</g>
</svg>
