<?xml version="1.0" encoding="UTF-8" standalone="no"?>
<!DOCTYPE svg PUBLIC "-//W3C//DTD SVG 1.1//EN"
 "http://www.w3.org/Graphics/SVG/1.1/DTD/svg11.dtd">
<!-- Generated by graphviz version 2.43.0 (0)
 -->
<!-- Title: /home/runner/work/cbmc/cbmc/jbmc/src/java_bytecode/java_object_factory.h Pages: 1 -->
<svg width="970pt" height="654pt"
 viewBox="0.00 0.00 970.48 654.00" xmlns="http://www.w3.org/2000/svg" xmlns:xlink="http://www.w3.org/1999/xlink">
<g id="graph0" class="graph" transform="scale(1 1) rotate(0) translate(4 650)">
<title>/home/runner/work/cbmc/cbmc/jbmc/src/java_bytecode/java_object_factory.h</title>
<!-- Node1 -->
<g id="Node000001" class="node">
<title>Node1</title>
<g id="a_Node000001"><a xlink:title="This module is responsible for the synthesis of code (in the form of a sequence of codet statements) ...">
<polygon fill="#999999" stroke="#666666" points="427,-646 263,-646 263,-605 427,-605 427,-646"/>
<text text-anchor="start" x="271" y="-634" font-family="Helvetica,sans-Serif" font-size="10.00">/home/runner/work/cbmc</text>
<text text-anchor="start" x="271" y="-623" font-family="Helvetica,sans-Serif" font-size="10.00">/cbmc/jbmc/src/java_bytecode</text>
<text text-anchor="middle" x="345" y="-612" font-family="Helvetica,sans-Serif" font-size="10.00">/java_object_factory.h</text>
</a>
</g>
</g>
<!-- Node2 -->
<g id="Node000002" class="node">
<title>Node2</title>
<g id="a_Node000002"><a xlink:href="std__code_8h.html" target="_top" xlink:title=" ">
<polygon fill="white" stroke="#666666" points="360,-514 272,-514 272,-495 360,-495 360,-514"/>
<text text-anchor="middle" x="316" y="-502" font-family="Helvetica,sans-Serif" font-size="10.00">util/std_code.h</text>
</a>
</g>
</g>
<!-- Node1&#45;&gt;Node2 -->
<g id="edge1_Node000001_Node000002" class="edge">
<title>Node1&#45;&gt;Node2</title>
<g id="a_edge1_Node000001_Node000002"><a xlink:title=" ">
<path fill="none" stroke="#63b8ff" d="M326.67,-604.8C318.66,-594.86 310.15,-582.14 306,-569 301.32,-554.2 304.68,-536.74 308.72,-523.88"/>
<polygon fill="#63b8ff" stroke="#63b8ff" points="312.07,-524.91 312.11,-514.32 305.47,-522.57 312.07,-524.91"/>
</a>
</g>
</g>
<!-- Node44 -->
<g id="Node000044" class="node">
<title>Node44</title>
<g id="a_Node000044"><a xlink:href="allocate__objects_8h.html" target="_top" xlink:title=" ">
<polygon fill="white" stroke="#666666" points="529.5,-569 392.5,-569 392.5,-550 529.5,-550 529.5,-569"/>
<text text-anchor="middle" x="461" y="-557" font-family="Helvetica,sans-Serif" font-size="10.00">ansi&#45;c/allocate_objects.h</text>
</a>
</g>
</g>
<!-- Node1&#45;&gt;Node44 -->
<g id="edge47_Node000001_Node000044" class="edge">
<title>Node1&#45;&gt;Node44</title>
<g id="a_edge47_Node000001_Node000044"><a xlink:title=" ">
<path fill="none" stroke="#63b8ff" d="M380.43,-604.95C398.59,-594.93 420.24,-582.99 436.53,-574"/>
<polygon fill="#63b8ff" stroke="#63b8ff" points="438.36,-576.99 445.43,-569.09 434.98,-570.86 438.36,-576.99"/>
</a>
</g>
</g>
<!-- Node46 -->
<g id="Node000046" class="node">
<title>Node46</title>
<g id="a_Node000046"><a xlink:href="nondet_8h.html" target="_top" xlink:title=" ">
<polygon fill="white" stroke="#666666" points="374.5,-569 315.5,-569 315.5,-550 374.5,-550 374.5,-569"/>
<text text-anchor="middle" x="345" y="-557" font-family="Helvetica,sans-Serif" font-size="10.00">nondet.h</text>
</a>
</g>
</g>
<!-- Node1&#45;&gt;Node46 -->
<g id="edge53_Node000001_Node000046" class="edge">
<title>Node1&#45;&gt;Node46</title>
<g id="a_edge53_Node000001_Node000046"><a xlink:title=" ">
<path fill="none" stroke="#63b8ff" d="M345,-604.95C345,-596.85 345,-587.5 345,-579.47"/>
<polygon fill="#63b8ff" stroke="#63b8ff" points="348.5,-579.26 345,-569.26 341.5,-579.26 348.5,-579.26"/>
</a>
</g>
</g>
<!-- Node3 -->
<g id="Node000003" class="node">
<title>Node3</title>
<g id="a_Node000003"><a xlink:title=" ">
<polygon fill="#e0e0e0" stroke="#999999" points="298,-459 266,-459 266,-440 298,-440 298,-459"/>
<text text-anchor="middle" x="282" y="-447" font-family="Helvetica,sans-Serif" font-size="10.00">list</text>
</a>
</g>
</g>
<!-- Node2&#45;&gt;Node3 -->
<g id="edge2_Node000002_Node000003" class="edge">
<title>Node2&#45;&gt;Node3</title>
<g id="a_edge2_Node000002_Node000003"><a xlink:title=" ">
<path fill="none" stroke="#63b8ff" d="M310.39,-494.75C305.68,-487.42 298.83,-476.73 293.03,-467.7"/>
<polygon fill="#63b8ff" stroke="#63b8ff" points="295.86,-465.62 287.51,-459.09 289.96,-469.4 295.86,-465.62"/>
</a>
</g>
</g>
<!-- Node4 -->
<g id="Node000004" class="node">
<title>Node4</title>
<g id="a_Node000004"><a xlink:href="std__code__base_8h.html" target="_top" xlink:title=" ">
<polygon fill="white" stroke="#666666" points="248,-459 150,-459 150,-440 248,-440 248,-459"/>
<text text-anchor="middle" x="199" y="-447" font-family="Helvetica,sans-Serif" font-size="10.00">std_code_base.h</text>
</a>
</g>
</g>
<!-- Node2&#45;&gt;Node4 -->
<g id="edge3_Node000002_Node000004" class="edge">
<title>Node2&#45;&gt;Node4</title>
<g id="a_edge3_Node000002_Node000004"><a xlink:title=" ">
<path fill="none" stroke="#63b8ff" d="M297.2,-494.98C278.38,-486.46 249.18,-473.23 227.5,-463.41"/>
<polygon fill="#63b8ff" stroke="#63b8ff" points="228.69,-460.11 218.14,-459.17 225.8,-466.48 228.69,-460.11"/>
</a>
</g>
</g>
<!-- Node43 -->
<g id="Node000043" class="node">
<title>Node43</title>
<g id="a_Node000043"><a xlink:href="std__expr_8h.html" target="_top" xlink:title="API to expression classes.">
<polygon fill="white" stroke="#666666" points="383.5,-459 316.5,-459 316.5,-440 383.5,-440 383.5,-459"/>
<text text-anchor="middle" x="350" y="-447" font-family="Helvetica,sans-Serif" font-size="10.00">std_expr.h</text>
</a>
</g>
</g>
<!-- Node2&#45;&gt;Node43 -->
<g id="edge43_Node000002_Node000043" class="edge">
<title>Node2&#45;&gt;Node43</title>
<g id="a_edge43_Node000002_Node000043"><a xlink:title=" ">
<path fill="none" stroke="#63b8ff" d="M321.61,-494.75C326.32,-487.42 333.17,-476.73 338.97,-467.7"/>
<polygon fill="#63b8ff" stroke="#63b8ff" points="342.04,-469.4 344.49,-459.09 336.14,-465.62 342.04,-469.4"/>
</a>
</g>
</g>
<!-- Node5 -->
<g id="Node000005" class="node">
<title>Node5</title>
<g id="a_Node000005"><a xlink:href="expr__cast_8h.html" target="_top" xlink:title="Templated functions to cast to specific exprt&#45;derived classes.">
<polygon fill="white" stroke="#666666" points="272.5,-349 199.5,-349 199.5,-330 272.5,-330 272.5,-349"/>
<text text-anchor="middle" x="236" y="-337" font-family="Helvetica,sans-Serif" font-size="10.00">expr_cast.h</text>
</a>
</g>
</g>
<!-- Node4&#45;&gt;Node5 -->
<g id="edge4_Node000004_Node000005" class="edge">
<title>Node4&#45;&gt;Node5</title>
<g id="a_edge4_Node000004_Node000005"><a xlink:title=" ">
<path fill="none" stroke="#63b8ff" d="M202.03,-439.66C208.07,-422.01 221.75,-382.09 229.79,-358.64"/>
<polygon fill="#63b8ff" stroke="#63b8ff" points="233.1,-359.75 233.03,-349.16 226.48,-357.48 233.1,-359.75"/>
</a>
</g>
</g>
<!-- Node9 -->
<g id="Node000009" class="node">
<title>Node9</title>
<g id="a_Node000009"><a xlink:href="src_2util_2invariant_8h.html" target="_top" xlink:title=" ">
<polygon fill="white" stroke="#666666" points="708.5,-74 639.5,-74 639.5,-55 708.5,-55 708.5,-74"/>
<text text-anchor="middle" x="674" y="-62" font-family="Helvetica,sans-Serif" font-size="10.00">invariant.h</text>
</a>
</g>
</g>
<!-- Node4&#45;&gt;Node9 -->
<g id="edge31_Node000004_Node000009" class="edge">
<title>Node4&#45;&gt;Node9</title>
<g id="a_edge31_Node000004_Node000009"><a xlink:title=" ">
<path fill="none" stroke="#63b8ff" d="M149.81,-443.25C90.88,-433.92 0,-408.5 0,-340.5 0,-340.5 0,-340.5 0,-173.5 0,-109.63 477.95,-76.74 628.89,-67.95"/>
<polygon fill="#63b8ff" stroke="#63b8ff" points="629.4,-71.43 639.18,-67.36 629,-64.44 629.4,-71.43"/>
</a>
</g>
</g>
<!-- Node35 -->
<g id="Node000035" class="node">
<title>Node35</title>
<g id="a_Node000035"><a xlink:href="validate_8h.html" target="_top" xlink:title=" ">
<polygon fill="#fff0f0" stroke="red" points="93.5,-184 28.5,-184 28.5,-165 93.5,-165 93.5,-184"/>
<text text-anchor="middle" x="61" y="-172" font-family="Helvetica,sans-Serif" font-size="10.00">validate.h</text>
</a>
</g>
</g>
<!-- Node4&#45;&gt;Node35 -->
<g id="edge42_Node000004_Node000035" class="edge">
<title>Node4&#45;&gt;Node35</title>
<g id="a_edge42_Node000004_Node000035"><a xlink:title=" ">
<path fill="none" stroke="#63b8ff" d="M162.74,-439.99C117.5,-426.97 46,-397.4 46,-340.5 46,-340.5 46,-340.5 46,-283.5 46,-251.89 52.38,-215.56 56.82,-194.13"/>
<polygon fill="#63b8ff" stroke="#63b8ff" points="60.29,-194.64 58.98,-184.12 53.45,-193.16 60.29,-194.64"/>
</a>
</g>
</g>
<!-- Node40 -->
<g id="Node000040" class="node">
<title>Node40</title>
<g id="a_Node000040"><a xlink:href="std__types_8h.html" target="_top" xlink:title="Pre&#45;defined types.">
<polygon fill="white" stroke="#666666" points="380.5,-404 307.5,-404 307.5,-385 380.5,-385 380.5,-404"/>
<text text-anchor="middle" x="344" y="-392" font-family="Helvetica,sans-Serif" font-size="10.00">std_types.h</text>
</a>
</g>
</g>
<!-- Node4&#45;&gt;Node40 -->
<g id="edge32_Node000004_Node000040" class="edge">
<title>Node4&#45;&gt;Node40</title>
<g id="a_edge32_Node000004_Node000040"><a xlink:title=" ">
<path fill="none" stroke="#63b8ff" d="M222.3,-439.98C246.25,-431.23 283.78,-417.51 310.83,-407.62"/>
<polygon fill="#63b8ff" stroke="#63b8ff" points="312.09,-410.89 320.28,-404.17 309.69,-404.32 312.09,-410.89"/>
</a>
</g>
</g>
<!-- Node6 -->
<g id="Node000006" class="node">
<title>Node6</title>
<g id="a_Node000006"><a xlink:title=" ">
<polygon fill="#e0e0e0" stroke="#999999" points="207.5,-294 150.5,-294 150.5,-275 207.5,-275 207.5,-294"/>
<text text-anchor="middle" x="179" y="-282" font-family="Helvetica,sans-Serif" font-size="10.00">typeinfo</text>
</a>
</g>
</g>
<!-- Node5&#45;&gt;Node6 -->
<g id="edge5_Node000005_Node000006" class="edge">
<title>Node5&#45;&gt;Node6</title>
<g id="a_edge5_Node000005_Node000006"><a xlink:title=" ">
<path fill="none" stroke="#63b8ff" d="M226.84,-329.98C218.5,-322.23 205.97,-310.58 195.82,-301.14"/>
<polygon fill="#63b8ff" stroke="#63b8ff" points="198.03,-298.42 188.32,-294.17 193.26,-303.54 198.03,-298.42"/>
</a>
</g>
</g>
<!-- Node7 -->
<g id="Node000007" class="node">
<title>Node7</title>
<g id="a_Node000007"><a xlink:title=" ">
<polygon fill="#e0e0e0" stroke="#999999" points="156.5,-19 87.5,-19 87.5,0 156.5,0 156.5,-19"/>
<text text-anchor="middle" x="122" y="-7" font-family="Helvetica,sans-Serif" font-size="10.00">type_traits</text>
</a>
</g>
</g>
<!-- Node5&#45;&gt;Node7 -->
<g id="edge6_Node000005_Node000007" class="edge">
<title>Node5&#45;&gt;Node7</title>
<g id="a_edge6_Node000005_Node000007"><a xlink:title=" ">
<path fill="none" stroke="#63b8ff" d="M201.32,-329.95C181.09,-323.3 156.58,-312.07 141,-294 121.76,-271.69 122,-259.96 122,-230.5 122,-230.5 122,-230.5 122,-118.5 122,-87.19 122,-50.77 122,-29.23"/>
<polygon fill="#63b8ff" stroke="#63b8ff" points="125.5,-29.18 122,-19.18 118.5,-29.18 125.5,-29.18"/>
</a>
</g>
</g>
<!-- Node8 -->
<g id="Node000008" class="node">
<title>Node8</title>
<g id="a_Node000008"><a xlink:title=" ">
<polygon fill="#e0e0e0" stroke="#999999" points="253.5,-239 188.5,-239 188.5,-220 253.5,-220 253.5,-239"/>
<text text-anchor="middle" x="221" y="-227" font-family="Helvetica,sans-Serif" font-size="10.00">functional</text>
</a>
</g>
</g>
<!-- Node5&#45;&gt;Node8 -->
<g id="edge7_Node000005_Node000008" class="edge">
<title>Node5&#45;&gt;Node8</title>
<g id="a_edge7_Node000005_Node000008"><a xlink:title=" ">
<path fill="none" stroke="#63b8ff" d="M240.7,-329.77C246.72,-317.44 255.72,-294.26 250,-275 247.02,-264.98 241,-255.11 235.21,-247.22"/>
<polygon fill="#63b8ff" stroke="#63b8ff" points="237.87,-244.95 228.94,-239.25 232.37,-249.28 237.87,-244.95"/>
</a>
</g>
</g>
<!-- Node5&#45;&gt;Node9 -->
<g id="edge8_Node000005_Node000009" class="edge">
<title>Node5&#45;&gt;Node9</title>
<g id="a_edge8_Node000005_Node000009"><a xlink:title=" ">
<path fill="none" stroke="#63b8ff" d="M234.64,-329.72C232.37,-316.91 226.91,-292.71 216,-275 203.97,-255.47 187.93,-260.14 179,-239 160.13,-194.3 158.95,-156.58 219,-110 250.98,-85.19 520.81,-71.67 629.2,-67.19"/>
<polygon fill="#63b8ff" stroke="#63b8ff" points="629.63,-70.68 639.48,-66.78 629.34,-63.69 629.63,-70.68"/>
</a>
</g>
</g>
<!-- Node13 -->
<g id="Node000013" class="node">
<title>Node13</title>
<g id="a_Node000013"><a xlink:href="expr_8h.html" target="_top" xlink:title=" ">
<polygon fill="white" stroke="#666666" points="398.5,-294 351.5,-294 351.5,-275 398.5,-275 398.5,-294"/>
<text text-anchor="middle" x="375" y="-282" font-family="Helvetica,sans-Serif" font-size="10.00">expr.h</text>
</a>
</g>
</g>
<!-- Node5&#45;&gt;Node13 -->
<g id="edge13_Node000005_Node000013" class="edge">
<title>Node5&#45;&gt;Node13</title>
<g id="a_edge13_Node000005_Node000013"><a xlink:title=" ">
<path fill="none" stroke="#63b8ff" d="M258.33,-329.98C281.2,-321.27 316.96,-307.63 342.86,-297.75"/>
<polygon fill="#63b8ff" stroke="#63b8ff" points="344.16,-301 352.26,-294.17 341.67,-294.46 344.16,-301"/>
</a>
</g>
</g>
<!-- Node9&#45;&gt;Node7 -->
<g id="edge12_Node000009_Node000007" class="edge">
<title>Node9&#45;&gt;Node7</title>
<g id="a_edge12_Node000009_Node000007"><a xlink:title=" ">
<path fill="none" stroke="#63b8ff" d="M639.47,-60.18C543.53,-50.97 273.79,-25.07 166.67,-14.79"/>
<polygon fill="#63b8ff" stroke="#63b8ff" points="166.81,-11.29 156.52,-13.81 166.14,-18.25 166.81,-11.29"/>
</a>
</g>
</g>
<!-- Node10 -->
<g id="Node000010" class="node">
<title>Node10</title>
<g id="a_Node000010"><a xlink:title=" ">
<polygon fill="#e0e0e0" stroke="#999999" points="663.5,-19 614.5,-19 614.5,0 663.5,0 663.5,-19"/>
<text text-anchor="middle" x="639" y="-7" font-family="Helvetica,sans-Serif" font-size="10.00">cstdlib</text>
</a>
</g>
</g>
<!-- Node9&#45;&gt;Node10 -->
<g id="edge9_Node000009_Node000010" class="edge">
<title>Node9&#45;&gt;Node10</title>
<g id="a_edge9_Node000009_Node000010"><a xlink:title=" ">
<path fill="none" stroke="#63b8ff" d="M668.22,-54.75C663.38,-47.42 656.32,-36.73 650.36,-27.7"/>
<polygon fill="#63b8ff" stroke="#63b8ff" points="653.1,-25.5 644.67,-19.09 647.26,-29.36 653.1,-25.5"/>
</a>
</g>
</g>
<!-- Node11 -->
<g id="Node000011" class="node">
<title>Node11</title>
<g id="a_Node000011"><a xlink:title=" ">
<polygon fill="#e0e0e0" stroke="#999999" points="738,-19 682,-19 682,0 738,0 738,-19"/>
<text text-anchor="middle" x="710" y="-7" font-family="Helvetica,sans-Serif" font-size="10.00">sstream</text>
</a>
</g>
</g>
<!-- Node9&#45;&gt;Node11 -->
<g id="edge10_Node000009_Node000011" class="edge">
<title>Node9&#45;&gt;Node11</title>
<g id="a_edge10_Node000009_Node000011"><a xlink:title=" ">
<path fill="none" stroke="#63b8ff" d="M679.94,-54.75C684.98,-47.34 692.34,-36.5 698.51,-27.41"/>
<polygon fill="#63b8ff" stroke="#63b8ff" points="701.44,-29.33 704.17,-19.09 695.65,-25.39 701.44,-29.33"/>
</a>
</g>
</g>
<!-- Node12 -->
<g id="Node000012" class="node">
<title>Node12</title>
<g id="a_Node000012"><a xlink:title=" ">
<polygon fill="#e0e0e0" stroke="#999999" points="882,-19 838,-19 838,0 882,0 882,-19"/>
<text text-anchor="middle" x="860" y="-7" font-family="Helvetica,sans-Serif" font-size="10.00">string</text>
</a>
</g>
</g>
<!-- Node9&#45;&gt;Node12 -->
<g id="edge11_Node000009_Node000012" class="edge">
<title>Node9&#45;&gt;Node12</title>
<g id="a_edge11_Node000009_Node000012"><a xlink:title=" ">
<path fill="none" stroke="#63b8ff" d="M703.88,-54.98C737.91,-45.29 793.26,-29.52 828.1,-19.59"/>
<polygon fill="#63b8ff" stroke="#63b8ff" points="829.12,-22.94 837.78,-16.83 827.2,-16.21 829.12,-22.94"/>
</a>
</g>
</g>
<!-- Node13&#45;&gt;Node8 -->
<g id="edge30_Node000013_Node000008" class="edge">
<title>Node13&#45;&gt;Node8</title>
<g id="a_edge30_Node000013_Node000008"><a xlink:title=" ">
<path fill="none" stroke="#63b8ff" d="M351.27,-275.33C325.69,-266.53 284.71,-252.43 255.55,-242.39"/>
<polygon fill="#63b8ff" stroke="#63b8ff" points="256.37,-238.97 245.77,-239.03 254.09,-245.59 256.37,-238.97"/>
</a>
</g>
</g>
<!-- Node14 -->
<g id="Node000014" class="node">
<title>Node14</title>
<g id="a_Node000014"><a xlink:href="as__const_8h.html" target="_top" xlink:title=" ">
<polygon fill="white" stroke="#666666" points="378,-239 310,-239 310,-220 378,-220 378,-239"/>
<text text-anchor="middle" x="344" y="-227" font-family="Helvetica,sans-Serif" font-size="10.00">as_const.h</text>
</a>
</g>
</g>
<!-- Node13&#45;&gt;Node14 -->
<g id="edge14_Node000013_Node000014" class="edge">
<title>Node13&#45;&gt;Node14</title>
<g id="a_edge14_Node000013_Node000014"><a xlink:title=" ">
<path fill="none" stroke="#63b8ff" d="M369.88,-274.75C365.64,-267.49 359.47,-256.95 354.22,-247.98"/>
<polygon fill="#63b8ff" stroke="#63b8ff" points="357.09,-245.95 349.02,-239.09 351.05,-249.49 357.09,-245.95"/>
</a>
</g>
</g>
<!-- Node15 -->
<g id="Node000015" class="node">
<title>Node15</title>
<g id="a_Node000015"><a xlink:href="type_8h.html" target="_top" xlink:title="Defines typet, type_with_subtypet and type_with_subtypest.">
<polygon fill="white" stroke="#666666" points="628.5,-239 581.5,-239 581.5,-220 628.5,-220 628.5,-239"/>
<text text-anchor="middle" x="605" y="-227" font-family="Helvetica,sans-Serif" font-size="10.00">type.h</text>
</a>
</g>
</g>
<!-- Node13&#45;&gt;Node15 -->
<g id="edge15_Node000013_Node000015" class="edge">
<title>Node13&#45;&gt;Node15</title>
<g id="a_edge15_Node000013_Node000015"><a xlink:title=" ">
<path fill="none" stroke="#63b8ff" d="M398.54,-278.52C433.96,-270.95 503.3,-255.89 571.25,-239.36"/>
<polygon fill="#63b8ff" stroke="#63b8ff" points="572.38,-242.69 581.26,-236.91 570.72,-235.89 572.38,-242.69"/>
</a>
</g>
</g>
<!-- Node37 -->
<g id="Node000037" class="node">
<title>Node37</title>
<g id="a_Node000037"><a xlink:href="validation__mode_8h.html" target="_top" xlink:title=" ">
<polygon fill="white" stroke="#666666" points="335.5,-129 228.5,-129 228.5,-110 335.5,-110 335.5,-129"/>
<text text-anchor="middle" x="282" y="-117" font-family="Helvetica,sans-Serif" font-size="10.00">validation_mode.h</text>
</a>
</g>
</g>
<!-- Node13&#45;&gt;Node37 -->
<g id="edge29_Node000013_Node000037" class="edge">
<title>Node13&#45;&gt;Node37</title>
<g id="a_edge29_Node000013_Node000037"><a xlink:title=" ">
<path fill="none" stroke="#63b8ff" d="M351.49,-275.53C334.68,-268.57 313,-256.76 301,-239 280.56,-208.74 279.2,-164.38 280.38,-139.4"/>
<polygon fill="#63b8ff" stroke="#63b8ff" points="283.89,-139.34 281.06,-129.13 276.9,-138.87 283.89,-139.34"/>
</a>
</g>
</g>
<!-- Node38 -->
<g id="Node000038" class="node">
<title>Node38</title>
<g id="a_Node000038"><a xlink:href="validate__types_8h.html" target="_top" xlink:title=" ">
<polygon fill="white" stroke="#666666" points="486,-184 388,-184 388,-165 486,-165 486,-184"/>
<text text-anchor="middle" x="437" y="-172" font-family="Helvetica,sans-Serif" font-size="10.00">validate_types.h</text>
</a>
</g>
</g>
<!-- Node13&#45;&gt;Node38 -->
<g id="edge28_Node000013_Node000038" class="edge">
<title>Node13&#45;&gt;Node38</title>
<g id="a_edge28_Node000013_Node000038"><a xlink:title=" ">
<path fill="none" stroke="#63b8ff" d="M380.07,-274.66C390.3,-256.85 413.54,-216.37 426.95,-193.01"/>
<polygon fill="#63b8ff" stroke="#63b8ff" points="430.09,-194.57 432.03,-184.16 424.02,-191.09 430.09,-194.57"/>
</a>
</g>
</g>
<!-- Node39 -->
<g id="Node000039" class="node">
<title>Node39</title>
<g id="a_Node000039"><a xlink:href="validate__expressions_8h.html" target="_top" xlink:title=" ">
<polygon fill="white" stroke="#666666" points="563.5,-239 434.5,-239 434.5,-220 563.5,-220 563.5,-239"/>
<text text-anchor="middle" x="499" y="-227" font-family="Helvetica,sans-Serif" font-size="10.00">validate_expressions.h</text>
</a>
</g>
</g>
<!-- Node13&#45;&gt;Node39 -->
<g id="edge27_Node000013_Node000039" class="edge">
<title>Node13&#45;&gt;Node39</title>
<g id="a_edge27_Node000013_Node000039"><a xlink:title=" ">
<path fill="none" stroke="#63b8ff" d="M394.92,-274.98C415.05,-266.38 446.38,-252.99 469.41,-243.15"/>
<polygon fill="#63b8ff" stroke="#63b8ff" points="470.9,-246.32 478.71,-239.17 468.14,-239.88 470.9,-246.32"/>
</a>
</g>
</g>
<!-- Node16 -->
<g id="Node000016" class="node">
<title>Node16</title>
<g id="a_Node000016"><a xlink:href="source__location_8h.html" target="_top" xlink:title=" ">
<polygon fill="#fff0f0" stroke="red" points="943,-184 841,-184 841,-165 943,-165 943,-184"/>
<text text-anchor="middle" x="892" y="-172" font-family="Helvetica,sans-Serif" font-size="10.00">source_location.h</text>
</a>
</g>
</g>
<!-- Node15&#45;&gt;Node16 -->
<g id="edge16_Node000015_Node000016" class="edge">
<title>Node15&#45;&gt;Node16</title>
<g id="a_edge16_Node000015_Node000016"><a xlink:title=" ">
<path fill="none" stroke="#63b8ff" d="M628.98,-224.07C674.15,-215.73 772.98,-197.48 835.8,-185.88"/>
<polygon fill="#63b8ff" stroke="#63b8ff" points="836.74,-189.26 845.94,-184.01 835.47,-182.38 836.74,-189.26"/>
</a>
</g>
</g>
<!-- Node15&#45;&gt;Node35 -->
<g id="edge22_Node000015_Node000035" class="edge">
<title>Node15&#45;&gt;Node35</title>
<g id="a_edge22_Node000015_Node000035"><a xlink:title=" ">
<path fill="none" stroke="#63b8ff" d="M581.34,-221.73C578.54,-221.07 575.72,-220.48 573,-220 400.71,-189.86 192.06,-179.79 103.76,-176.72"/>
<polygon fill="#63b8ff" stroke="#63b8ff" points="103.71,-173.22 93.6,-176.38 103.48,-180.21 103.71,-173.22"/>
</a>
</g>
</g>
<!-- Node15&#45;&gt;Node37 -->
<g id="edge26_Node000015_Node000037" class="edge">
<title>Node15&#45;&gt;Node37</title>
<g id="a_edge26_Node000015_Node000037"><a xlink:title=" ">
<path fill="none" stroke="#63b8ff" d="M593.1,-219.91C573.58,-206.23 533.11,-179.55 495,-165 446.64,-146.54 389.03,-135.09 345.93,-128.44"/>
<polygon fill="#63b8ff" stroke="#63b8ff" points="346.26,-124.95 335.85,-126.93 345.22,-131.87 346.26,-124.95"/>
</a>
</g>
</g>
<!-- Node15&#45;&gt;Node38 -->
<g id="edge25_Node000015_Node000038" class="edge">
<title>Node15&#45;&gt;Node38</title>
<g id="a_edge25_Node000015_Node000038"><a xlink:title=" ">
<path fill="none" stroke="#63b8ff" d="M581.29,-221.02C553.33,-212.2 506.56,-197.44 473.87,-187.13"/>
<polygon fill="#63b8ff" stroke="#63b8ff" points="474.8,-183.76 464.21,-184.08 472.7,-190.43 474.8,-183.76"/>
</a>
</g>
</g>
<!-- Node16&#45;&gt;Node12 -->
<g id="edge21_Node000016_Node000012" class="edge">
<title>Node16&#45;&gt;Node12</title>
<g id="a_edge21_Node000016_Node000012"><a xlink:title=" ">
<path fill="none" stroke="#63b8ff" d="M895.81,-164.85C900.71,-152.61 908.13,-129.54 904,-110 897.58,-79.63 881.27,-47.24 870.41,-27.95"/>
<polygon fill="#63b8ff" stroke="#63b8ff" points="873.35,-26.04 865.31,-19.13 867.29,-29.54 873.35,-26.04"/>
</a>
</g>
</g>
<!-- Node17 -->
<g id="Node000017" class="node">
<title>Node17</title>
<g id="a_Node000017"><a xlink:href="deprecate_8h.html" target="_top" xlink:title=" ">
<polygon fill="white" stroke="#666666" points="895,-129 821,-129 821,-110 895,-110 895,-129"/>
<text text-anchor="middle" x="858" y="-117" font-family="Helvetica,sans-Serif" font-size="10.00">deprecate.h</text>
</a>
</g>
</g>
<!-- Node16&#45;&gt;Node17 -->
<g id="edge17_Node000016_Node000017" class="edge">
<title>Node16&#45;&gt;Node17</title>
<g id="a_edge17_Node000016_Node000017"><a xlink:title=" ">
<path fill="none" stroke="#63b8ff" d="M886.39,-164.75C881.68,-157.42 874.83,-146.73 869.03,-137.7"/>
<polygon fill="#63b8ff" stroke="#63b8ff" points="871.86,-135.62 863.51,-129.09 865.96,-139.4 871.86,-135.62"/>
</a>
</g>
</g>
<!-- Node18 -->
<g id="Node000018" class="node">
<title>Node18</title>
<g id="a_Node000018"><a xlink:href="irep_8h.html" target="_top" xlink:title=" ">
<polygon fill="#fff0f0" stroke="red" points="803,-129 759,-129 759,-110 803,-110 803,-129"/>
<text text-anchor="middle" x="781" y="-117" font-family="Helvetica,sans-Serif" font-size="10.00">irep.h</text>
</a>
</g>
</g>
<!-- Node16&#45;&gt;Node18 -->
<g id="edge18_Node000016_Node000018" class="edge">
<title>Node16&#45;&gt;Node18</title>
<g id="a_edge18_Node000016_Node000018"><a xlink:title=" ">
<path fill="none" stroke="#63b8ff" d="M874.17,-164.98C856.39,-156.5 828.85,-143.35 808.32,-133.54"/>
<polygon fill="#63b8ff" stroke="#63b8ff" points="809.69,-130.32 799.16,-129.17 806.67,-136.64 809.69,-130.32"/>
</a>
</g>
</g>
<!-- Node18&#45;&gt;Node9 -->
<g id="edge20_Node000018_Node000009" class="edge">
<title>Node18&#45;&gt;Node9</title>
<g id="a_edge20_Node000018_Node000009"><a xlink:title=" ">
<path fill="none" stroke="#63b8ff" d="M763.81,-109.98C746.75,-101.54 720.37,-88.47 700.6,-78.68"/>
<polygon fill="#63b8ff" stroke="#63b8ff" points="702.02,-75.47 691.5,-74.17 698.91,-81.75 702.02,-75.47"/>
</a>
</g>
</g>
<!-- Node18&#45;&gt;Node12 -->
<g id="edge19_Node000018_Node000012" class="edge">
<title>Node18&#45;&gt;Node12</title>
<g id="a_edge19_Node000018_Node000012"><a xlink:title=" ">
<path fill="none" stroke="#63b8ff" d="M787.46,-109.66C800.61,-91.69 830.64,-50.64 847.65,-27.38"/>
<polygon fill="#63b8ff" stroke="#63b8ff" points="850.59,-29.3 853.67,-19.16 844.94,-25.16 850.59,-29.3"/>
</a>
</g>
</g>
<!-- Node35&#45;&gt;Node7 -->
<g id="edge23_Node000035_Node000007" class="edge">
<title>Node35&#45;&gt;Node7</title>
<g id="a_edge23_Node000035_Node000007"><a xlink:title=" ">
<path fill="none" stroke="#63b8ff" d="M64.28,-164.74C73.88,-139.09 102.06,-63.78 115.16,-28.78"/>
<polygon fill="#63b8ff" stroke="#63b8ff" points="118.48,-29.9 118.7,-19.31 111.92,-27.45 118.48,-29.9"/>
</a>
</g>
</g>
<!-- Node35&#45;&gt;Node37 -->
<g id="edge24_Node000035_Node000037" class="edge">
<title>Node35&#45;&gt;Node37</title>
<g id="a_edge24_Node000035_Node000037"><a xlink:title=" ">
<path fill="none" stroke="#63b8ff" d="M93.61,-165.68C131.4,-156.62 193.93,-141.62 236.49,-131.41"/>
<polygon fill="#63b8ff" stroke="#63b8ff" points="237.42,-134.79 246.32,-129.06 235.78,-127.98 237.42,-134.79"/>
</a>
</g>
</g>
<!-- Node40&#45;&gt;Node5 -->
<g id="edge34_Node000040_Node000005" class="edge">
<title>Node40&#45;&gt;Node5</title>
<g id="a_edge34_Node000040_Node000005"><a xlink:title=" ">
<path fill="none" stroke="#63b8ff" d="M326.65,-384.98C309.43,-376.54 282.8,-363.47 262.85,-353.68"/>
<polygon fill="#63b8ff" stroke="#63b8ff" points="264.19,-350.43 253.67,-349.17 261.1,-356.72 264.19,-350.43"/>
</a>
</g>
</g>
<!-- Node40&#45;&gt;Node9 -->
<g id="edge35_Node000040_Node000009" class="edge">
<title>Node40&#45;&gt;Node9</title>
<g id="a_edge35_Node000040_Node000009"><a xlink:title=" ">
<path fill="none" stroke="#63b8ff" d="M356.95,-384.91C370.02,-376.15 390.7,-362.02 408,-349 449.65,-317.65 452.48,-298.52 499,-275 555.95,-246.21 593.99,-285.21 638,-239 678.79,-196.17 678.62,-119.81 676,-84.44"/>
<polygon fill="#63b8ff" stroke="#63b8ff" points="679.46,-83.78 675.08,-74.13 672.48,-84.4 679.46,-83.78"/>
</a>
</g>
</g>
<!-- Node40&#45;&gt;Node13 -->
<g id="edge33_Node000040_Node000013" class="edge">
<title>Node40&#45;&gt;Node13</title>
<g id="a_edge33_Node000040_Node000013"><a xlink:title=" ">
<path fill="none" stroke="#63b8ff" d="M358.37,-384.96C369.87,-377.21 385.18,-364.62 392,-349 398.48,-334.16 392.56,-316.27 385.99,-303.27"/>
<polygon fill="#63b8ff" stroke="#63b8ff" points="388.97,-301.43 381.04,-294.41 382.86,-304.84 388.97,-301.43"/>
</a>
</g>
</g>
<!-- Node40&#45;&gt;Node35 -->
<g id="edge40_Node000040_Node000035" class="edge">
<title>Node40&#45;&gt;Node35</title>
<g id="a_edge40_Node000040_Node000035"><a xlink:title=" ">
<path fill="none" stroke="#63b8ff" d="M307.24,-388.87C254.51,-380.18 158.25,-356.3 108,-294 83.54,-263.68 70.49,-219.02 64.73,-194.09"/>
<polygon fill="#63b8ff" stroke="#63b8ff" points="68.12,-193.17 62.58,-184.14 61.27,-194.65 68.12,-193.17"/>
</a>
</g>
</g>
<!-- Node41 -->
<g id="Node000041" class="node">
<title>Node41</title>
<g id="a_Node000041"><a xlink:href="mp__arith_8h.html" target="_top" xlink:title=" ">
<polygon fill="white" stroke="#666666" points="616.5,-349 547.5,-349 547.5,-330 616.5,-330 616.5,-349"/>
<text text-anchor="middle" x="582" y="-337" font-family="Helvetica,sans-Serif" font-size="10.00">mp_arith.h</text>
</a>
</g>
</g>
<!-- Node40&#45;&gt;Node41 -->
<g id="edge36_Node000040_Node000041" class="edge">
<title>Node40&#45;&gt;Node41</title>
<g id="a_edge36_Node000040_Node000041"><a xlink:title=" ">
<path fill="none" stroke="#63b8ff" d="M380.67,-385.33C422.85,-375.94 492.11,-360.52 537.39,-350.43"/>
<polygon fill="#63b8ff" stroke="#63b8ff" points="538.23,-353.83 547.23,-348.24 536.71,-347 538.23,-353.83"/>
</a>
</g>
</g>
<!-- Node26 -->
<g id="Node000026" class="node">
<title>Node26</title>
<g id="a_Node000026"><a xlink:title=" ">
<polygon fill="#e0e0e0" stroke="#999999" points="383.5,-349 290.5,-349 290.5,-330 383.5,-330 383.5,-349"/>
<text text-anchor="middle" x="337" y="-337" font-family="Helvetica,sans-Serif" font-size="10.00">unordered_map</text>
</a>
</g>
</g>
<!-- Node40&#45;&gt;Node26 -->
<g id="edge41_Node000040_Node000026" class="edge">
<title>Node40&#45;&gt;Node26</title>
<g id="a_edge41_Node000040_Node000026"><a xlink:title=" ">
<path fill="none" stroke="#63b8ff" d="M342.84,-384.75C341.93,-377.8 340.61,-367.85 339.46,-359.13"/>
<polygon fill="#63b8ff" stroke="#63b8ff" points="342.91,-358.54 338.13,-349.09 335.97,-359.46 342.91,-358.54"/>
</a>
</g>
</g>
<!-- Node41&#45;&gt;Node12 -->
<g id="edge38_Node000041_Node000012" class="edge">
<title>Node41&#45;&gt;Node12</title>
<g id="a_edge38_Node000041_Node000012"><a xlink:title=" ">
<path fill="none" stroke="#63b8ff" d="M616.58,-336.16C692.86,-328.92 874.91,-299.73 952,-184 988.92,-128.57 915.93,-56.71 879.27,-25.77"/>
<polygon fill="#63b8ff" stroke="#63b8ff" points="881.17,-22.8 871.23,-19.15 876.72,-28.21 881.17,-22.8"/>
</a>
</g>
</g>
<!-- Node22 -->
<g id="Node000022" class="node">
<title>Node22</title>
<g id="a_Node000022"><a xlink:title=" ">
<polygon fill="#e0e0e0" stroke="#999999" points="556,-294 508,-294 508,-275 556,-275 556,-294"/>
<text text-anchor="middle" x="532" y="-282" font-family="Helvetica,sans-Serif" font-size="10.00">iosfwd</text>
</a>
</g>
</g>
<!-- Node41&#45;&gt;Node22 -->
<g id="edge37_Node000041_Node000022" class="edge">
<title>Node41&#45;&gt;Node22</title>
<g id="a_edge37_Node000041_Node000022"><a xlink:title=" ">
<path fill="none" stroke="#63b8ff" d="M573.74,-329.75C566.54,-322.11 555.89,-310.82 547.15,-301.56"/>
<polygon fill="#63b8ff" stroke="#63b8ff" points="549.51,-298.96 540.1,-294.09 544.42,-303.76 549.51,-298.96"/>
</a>
</g>
</g>
<!-- Node42 -->
<g id="Node000042" class="node">
<title>Node42</title>
<g id="a_Node000042"><a xlink:title=" ">
<polygon fill="#e0e0e0" stroke="#999999" points="668,-294 574,-294 574,-275 668,-275 668,-294"/>
<text text-anchor="middle" x="621" y="-282" font-family="Helvetica,sans-Serif" font-size="10.00">big&#45;int/bigint.hh</text>
</a>
</g>
</g>
<!-- Node41&#45;&gt;Node42 -->
<g id="edge39_Node000041_Node000042" class="edge">
<title>Node41&#45;&gt;Node42</title>
<g id="a_edge39_Node000041_Node000042"><a xlink:title=" ">
<path fill="none" stroke="#63b8ff" d="M588.44,-329.75C593.89,-322.34 601.86,-311.5 608.56,-302.41"/>
<polygon fill="#63b8ff" stroke="#63b8ff" points="611.57,-304.22 614.68,-294.09 605.93,-300.07 611.57,-304.22"/>
</a>
</g>
</g>
<!-- Node43&#45;&gt;Node5 -->
<g id="edge44_Node000043_Node000005" class="edge">
<title>Node43&#45;&gt;Node5</title>
<g id="a_edge44_Node000043_Node000005"><a xlink:title=" ">
<path fill="none" stroke="#63b8ff" d="M339.4,-439.9C328.72,-431.13 311.88,-417 298,-404 281.42,-388.48 263.38,-369.78 251.05,-356.7"/>
<polygon fill="#63b8ff" stroke="#63b8ff" points="253.58,-354.28 244.18,-349.37 248.47,-359.06 253.58,-354.28"/>
</a>
</g>
</g>
<!-- Node43&#45;&gt;Node9 -->
<g id="edge45_Node000043_Node000009" class="edge">
<title>Node43&#45;&gt;Node9</title>
<g id="a_edge45_Node000043_Node000009"><a xlink:title=" ">
<path fill="none" stroke="#63b8ff" d="M383.74,-446.26C477.44,-439.12 734,-412.96 734,-340.5 734,-340.5 734,-340.5 734,-283.5 734,-243.43 695.84,-128.62 680.38,-83.76"/>
<polygon fill="#63b8ff" stroke="#63b8ff" points="683.64,-82.48 677.06,-74.18 677.03,-84.77 683.64,-82.48"/>
</a>
</g>
</g>
<!-- Node43&#45;&gt;Node40 -->
<g id="edge46_Node000043_Node000040" class="edge">
<title>Node43&#45;&gt;Node40</title>
<g id="a_edge46_Node000043_Node000040"><a xlink:title=" ">
<path fill="none" stroke="#63b8ff" d="M349.01,-439.75C348.22,-432.8 347.1,-422.85 346.11,-414.13"/>
<polygon fill="#63b8ff" stroke="#63b8ff" points="349.58,-413.63 344.97,-404.09 342.62,-414.42 349.58,-413.63"/>
</a>
</g>
</g>
<!-- Node44&#45;&gt;Node2 -->
<g id="edge52_Node000044_Node000002" class="edge">
<title>Node44&#45;&gt;Node2</title>
<g id="a_edge52_Node000044_Node000002"><a xlink:title=" ">
<path fill="none" stroke="#63b8ff" d="M437.7,-549.98C413.75,-541.23 376.22,-527.51 349.17,-517.62"/>
<polygon fill="#63b8ff" stroke="#63b8ff" points="350.31,-514.32 339.72,-514.17 347.91,-520.89 350.31,-514.32"/>
</a>
</g>
</g>
<!-- Node45 -->
<g id="Node000045" class="node">
<title>Node45</title>
<g id="a_Node000045"><a xlink:href="namespace_8h.html" target="_top" xlink:title=" ">
<polygon fill="white" stroke="#666666" points="822.5,-184 721.5,-184 721.5,-165 822.5,-165 822.5,-184"/>
<text text-anchor="middle" x="772" y="-172" font-family="Helvetica,sans-Serif" font-size="10.00">util/namespace.h</text>
</a>
</g>
</g>
<!-- Node44&#45;&gt;Node45 -->
<g id="edge48_Node000044_Node000045" class="edge">
<title>Node44&#45;&gt;Node45</title>
<g id="a_edge48_Node000044_Node000045"><a xlink:title=" ">
<path fill="none" stroke="#63b8ff" d="M522.07,-549.98C612.64,-535.6 772,-502.87 772,-450.5 772,-450.5 772,-450.5 772,-283.5 772,-252.19 772,-215.77 772,-194.23"/>
<polygon fill="#63b8ff" stroke="#63b8ff" points="775.5,-194.18 772,-184.18 768.5,-194.18 775.5,-194.18"/>
</a>
</g>
</g>
<!-- Node45&#45;&gt;Node9 -->
<g id="edge50_Node000045_Node000009" class="edge">
<title>Node45&#45;&gt;Node9</title>
<g id="a_edge50_Node000045_Node000009"><a xlink:title=" ">
<path fill="none" stroke="#63b8ff" d="M763.98,-164.66C747.53,-146.54 709.76,-104.91 688.76,-81.77"/>
<polygon fill="#63b8ff" stroke="#63b8ff" points="691.17,-79.21 681.86,-74.16 685.98,-83.92 691.17,-79.21"/>
</a>
</g>
</g>
<!-- Node45&#45;&gt;Node17 -->
<g id="edge49_Node000045_Node000017" class="edge">
<title>Node45&#45;&gt;Node17</title>
<g id="a_edge49_Node000045_Node000017"><a xlink:title=" ">
<path fill="none" stroke="#63b8ff" d="M785.82,-164.98C799.15,-156.77 819.58,-144.18 835.31,-134.49"/>
<polygon fill="#63b8ff" stroke="#63b8ff" points="837.25,-137.4 843.93,-129.17 833.58,-131.44 837.25,-137.4"/>
</a>
</g>
</g>
<!-- Node45&#45;&gt;Node18 -->
<g id="edge51_Node000045_Node000018" class="edge">
<title>Node45&#45;&gt;Node18</title>
<g id="a_edge51_Node000045_Node000018"><a xlink:title=" ">
<path fill="none" stroke="#63b8ff" d="M773.49,-164.75C774.67,-157.8 776.36,-147.85 777.84,-139.13"/>
<polygon fill="#63b8ff" stroke="#63b8ff" points="781.32,-139.53 779.54,-129.09 774.42,-138.36 781.32,-139.53"/>
</a>
</g>
</g>
<!-- Node46&#45;&gt;Node2 -->
<g id="edge54_Node000046_Node000002" class="edge">
<title>Node46&#45;&gt;Node2</title>
<g id="a_edge54_Node000046_Node000002"><a xlink:title=" ">
<path fill="none" stroke="#63b8ff" d="M340.21,-549.75C336.24,-542.49 330.47,-531.95 325.57,-522.98"/>
<polygon fill="#63b8ff" stroke="#63b8ff" points="328.57,-521.18 320.7,-514.09 322.43,-524.54 328.57,-521.18"/>
</a>
</g>
</g>
</g>
</svg>
