<?xml version="1.0" encoding="UTF-8" standalone="no"?>
<!DOCTYPE svg PUBLIC "-//W3C//DTD SVG 1.1//EN"
 "http://www.w3.org/Graphics/SVG/1.1/DTD/svg11.dtd">
<!-- Generated by graphviz version 2.43.0 (0)
 -->
<!-- Title: /home/runner/work/cbmc/cbmc/jbmc/src/java_bytecode/java_string_literal_expr.h Pages: 1 -->
<svg width="692pt" height="544pt"
 viewBox="0.00 0.00 691.50 544.00" xmlns="http://www.w3.org/2000/svg" xmlns:xlink="http://www.w3.org/1999/xlink">
<g id="graph0" class="graph" transform="scale(1 1) rotate(0) translate(4 540)">
<title>/home/runner/work/cbmc/cbmc/jbmc/src/java_bytecode/java_string_literal_expr.h</title>
<!-- Node1 -->
<g id="Node000001" class="node">
<title>Node1</title>
<g id="a_Node000001"><a xlink:title="Representation of a constant Java string.">
<polygon fill="#999999" stroke="#666666" points="205.5,-536 41.5,-536 41.5,-495 205.5,-495 205.5,-536"/>
<text text-anchor="start" x="49.5" y="-524" font-family="Helvetica,sans-Serif" font-size="10.00">/home/runner/work/cbmc</text>
<text text-anchor="start" x="49.5" y="-513" font-family="Helvetica,sans-Serif" font-size="10.00">/cbmc/jbmc/src/java_bytecode</text>
<text text-anchor="middle" x="123.5" y="-502" font-family="Helvetica,sans-Serif" font-size="10.00">/java_string_literal_expr.h</text>
</a>
</g>
</g>
<!-- Node2 -->
<g id="Node000002" class="node">
<title>Node2</title>
<g id="a_Node000002"><a xlink:href="expr__cast_8h.html" target="_top" xlink:title="Templated functions to cast to specific exprt&#45;derived classes.">
<polygon fill="white" stroke="#666666" points="169.5,-459 77.5,-459 77.5,-440 169.5,-440 169.5,-459"/>
<text text-anchor="middle" x="123.5" y="-447" font-family="Helvetica,sans-Serif" font-size="10.00">util/expr_cast.h</text>
</a>
</g>
</g>
<!-- Node1&#45;&gt;Node2 -->
<g id="edge1_Node000001_Node000002" class="edge">
<title>Node1&#45;&gt;Node2</title>
<g id="a_edge1_Node000001_Node000002"><a xlink:title=" ">
<path fill="none" stroke="#63b8ff" d="M123.5,-494.95C123.5,-486.85 123.5,-477.5 123.5,-469.47"/>
<polygon fill="#63b8ff" stroke="#63b8ff" points="127,-469.26 123.5,-459.26 120,-469.26 127,-469.26"/>
</a>
</g>
</g>
<!-- Node3 -->
<g id="Node000003" class="node">
<title>Node3</title>
<g id="a_Node000003"><a xlink:title=" ">
<polygon fill="#e0e0e0" stroke="#999999" points="57,-404 0,-404 0,-385 57,-385 57,-404"/>
<text text-anchor="middle" x="28.5" y="-392" font-family="Helvetica,sans-Serif" font-size="10.00">typeinfo</text>
</a>
</g>
</g>
<!-- Node2&#45;&gt;Node3 -->
<g id="edge2_Node000002_Node000003" class="edge">
<title>Node2&#45;&gt;Node3</title>
<g id="a_edge2_Node000002_Node000003"><a xlink:title=" ">
<path fill="none" stroke="#63b8ff" d="M108.24,-439.98C93.37,-431.69 70.52,-418.94 53.08,-409.22"/>
<polygon fill="#63b8ff" stroke="#63b8ff" points="54.48,-405.99 44.04,-404.17 51.07,-412.1 54.48,-405.99"/>
</a>
</g>
</g>
<!-- Node4 -->
<g id="Node000004" class="node">
<title>Node4</title>
<g id="a_Node000004"><a xlink:title=" ">
<polygon fill="#e0e0e0" stroke="#999999" points="132,-19 63,-19 63,0 132,0 132,-19"/>
<text text-anchor="middle" x="97.5" y="-7" font-family="Helvetica,sans-Serif" font-size="10.00">type_traits</text>
</a>
</g>
</g>
<!-- Node2&#45;&gt;Node4 -->
<g id="edge3_Node000002_Node000004" class="edge">
<title>Node2&#45;&gt;Node4</title>
<g id="a_edge3_Node000002_Node000004"><a xlink:title=" ">
<path fill="none" stroke="#63b8ff" d="M118.22,-439.9C107.77,-422.07 85.5,-379.46 85.5,-340.5 85.5,-340.5 85.5,-340.5 85.5,-118.5 85.5,-87 90.61,-50.64 94.16,-29.16"/>
<polygon fill="#63b8ff" stroke="#63b8ff" points="97.63,-29.59 95.88,-19.14 90.74,-28.4 97.63,-29.59"/>
</a>
</g>
</g>
<!-- Node5 -->
<g id="Node000005" class="node">
<title>Node5</title>
<g id="a_Node000005"><a xlink:title=" ">
<polygon fill="#e0e0e0" stroke="#999999" points="275,-349 210,-349 210,-330 275,-330 275,-349"/>
<text text-anchor="middle" x="242.5" y="-337" font-family="Helvetica,sans-Serif" font-size="10.00">functional</text>
</a>
</g>
</g>
<!-- Node2&#45;&gt;Node5 -->
<g id="edge4_Node000002_Node000005" class="edge">
<title>Node2&#45;&gt;Node5</title>
<g id="a_edge4_Node000002_Node000005"><a xlink:title=" ">
<path fill="none" stroke="#63b8ff" d="M133.24,-439.66C153.39,-421.38 199.88,-379.18 225.24,-356.17"/>
<polygon fill="#63b8ff" stroke="#63b8ff" points="227.91,-358.47 232.96,-349.16 223.2,-353.29 227.91,-358.47"/>
</a>
</g>
</g>
<!-- Node6 -->
<g id="Node000006" class="node">
<title>Node6</title>
<g id="a_Node000006"><a xlink:href="src_2util_2invariant_8h.html" target="_top" xlink:title=" ">
<polygon fill="white" stroke="#666666" points="221,-74 152,-74 152,-55 221,-55 221,-74"/>
<text text-anchor="middle" x="186.5" y="-62" font-family="Helvetica,sans-Serif" font-size="10.00">invariant.h</text>
</a>
</g>
</g>
<!-- Node2&#45;&gt;Node6 -->
<g id="edge5_Node000002_Node000006" class="edge">
<title>Node2&#45;&gt;Node6</title>
<g id="a_edge5_Node000002_Node000006"><a xlink:title=" ">
<path fill="none" stroke="#63b8ff" d="M123.5,-439.82C123.5,-421.48 123.5,-377.44 123.5,-340.5 123.5,-340.5 123.5,-340.5 123.5,-228.5 123.5,-172.08 156.75,-111.61 174.94,-82.75"/>
<polygon fill="#63b8ff" stroke="#63b8ff" points="177.96,-84.52 180.46,-74.23 172.08,-80.72 177.96,-84.52"/>
</a>
</g>
</g>
<!-- Node10 -->
<g id="Node000010" class="node">
<title>Node10</title>
<g id="a_Node000010"><a xlink:href="expr_8h.html" target="_top" xlink:title=" ">
<polygon fill="white" stroke="#666666" points="437,-404 390,-404 390,-385 437,-385 437,-404"/>
<text text-anchor="middle" x="413.5" y="-392" font-family="Helvetica,sans-Serif" font-size="10.00">expr.h</text>
</a>
</g>
</g>
<!-- Node2&#45;&gt;Node10 -->
<g id="edge10_Node000002_Node000010" class="edge">
<title>Node2&#45;&gt;Node10</title>
<g id="a_edge10_Node000002_Node000010"><a xlink:title=" ">
<path fill="none" stroke="#63b8ff" d="M169.77,-440.04C228.42,-429.33 328.1,-411.11 379.94,-401.63"/>
<polygon fill="#63b8ff" stroke="#63b8ff" points="380.73,-405.05 389.94,-399.81 379.47,-398.16 380.73,-405.05"/>
</a>
</g>
</g>
<!-- Node6&#45;&gt;Node4 -->
<g id="edge9_Node000006_Node000004" class="edge">
<title>Node6&#45;&gt;Node4</title>
<g id="a_edge9_Node000006_Node000004"><a xlink:title=" ">
<path fill="none" stroke="#63b8ff" d="M172.2,-54.98C158.4,-46.77 137.26,-34.18 120.99,-24.49"/>
<polygon fill="#63b8ff" stroke="#63b8ff" points="122.44,-21.28 112.06,-19.17 118.86,-27.29 122.44,-21.28"/>
</a>
</g>
</g>
<!-- Node7 -->
<g id="Node000007" class="node">
<title>Node7</title>
<g id="a_Node000007"><a xlink:title=" ">
<polygon fill="#e0e0e0" stroke="#999999" points="199,-19 150,-19 150,0 199,0 199,-19"/>
<text text-anchor="middle" x="174.5" y="-7" font-family="Helvetica,sans-Serif" font-size="10.00">cstdlib</text>
</a>
</g>
</g>
<!-- Node6&#45;&gt;Node7 -->
<g id="edge6_Node000006_Node000007" class="edge">
<title>Node6&#45;&gt;Node7</title>
<g id="a_edge6_Node000006_Node000007"><a xlink:title=" ">
<path fill="none" stroke="#63b8ff" d="M184.52,-54.75C182.93,-47.72 180.64,-37.62 178.65,-28.84"/>
<polygon fill="#63b8ff" stroke="#63b8ff" points="182.07,-28.07 176.44,-19.09 175.24,-29.62 182.07,-28.07"/>
</a>
</g>
</g>
<!-- Node8 -->
<g id="Node000008" class="node">
<title>Node8</title>
<g id="a_Node000008"><a xlink:title=" ">
<polygon fill="#e0e0e0" stroke="#999999" points="273.5,-19 217.5,-19 217.5,0 273.5,0 273.5,-19"/>
<text text-anchor="middle" x="245.5" y="-7" font-family="Helvetica,sans-Serif" font-size="10.00">sstream</text>
</a>
</g>
</g>
<!-- Node6&#45;&gt;Node8 -->
<g id="edge7_Node000006_Node000008" class="edge">
<title>Node6&#45;&gt;Node8</title>
<g id="a_edge7_Node000006_Node000008"><a xlink:title=" ">
<path fill="none" stroke="#63b8ff" d="M195.98,-54.98C204.7,-47.15 217.84,-35.34 228.4,-25.86"/>
<polygon fill="#63b8ff" stroke="#63b8ff" points="230.75,-28.46 235.85,-19.17 226.07,-23.25 230.75,-28.46"/>
</a>
</g>
</g>
<!-- Node9 -->
<g id="Node000009" class="node">
<title>Node9</title>
<g id="a_Node000009"><a xlink:title=" ">
<polygon fill="#e0e0e0" stroke="#999999" points="335.5,-19 291.5,-19 291.5,0 335.5,0 335.5,-19"/>
<text text-anchor="middle" x="313.5" y="-7" font-family="Helvetica,sans-Serif" font-size="10.00">string</text>
</a>
</g>
</g>
<!-- Node6&#45;&gt;Node9 -->
<g id="edge8_Node000006_Node000009" class="edge">
<title>Node6&#45;&gt;Node9</title>
<g id="a_edge8_Node000006_Node000009"><a xlink:title=" ">
<path fill="none" stroke="#63b8ff" d="M206.9,-54.98C227.52,-46.38 259.61,-32.99 283.19,-23.15"/>
<polygon fill="#63b8ff" stroke="#63b8ff" points="284.84,-26.25 292.72,-19.17 282.15,-19.79 284.84,-26.25"/>
</a>
</g>
</g>
<!-- Node10&#45;&gt;Node5 -->
<g id="edge36_Node000010_Node000005" class="edge">
<title>Node10&#45;&gt;Node5</title>
<g id="a_edge36_Node000010_Node000005"><a xlink:title=" ">
<path fill="none" stroke="#63b8ff" d="M389.72,-386.13C361.28,-377.31 313.32,-362.45 279.9,-352.09"/>
<polygon fill="#63b8ff" stroke="#63b8ff" points="280.62,-348.65 270.03,-349.03 278.55,-355.34 280.62,-348.65"/>
</a>
</g>
</g>
<!-- Node11 -->
<g id="Node000011" class="node">
<title>Node11</title>
<g id="a_Node000011"><a xlink:href="as__const_8h.html" target="_top" xlink:title=" ">
<polygon fill="white" stroke="#666666" points="671.5,-19 603.5,-19 603.5,0 671.5,0 671.5,-19"/>
<text text-anchor="middle" x="637.5" y="-7" font-family="Helvetica,sans-Serif" font-size="10.00">as_const.h</text>
</a>
</g>
</g>
<!-- Node10&#45;&gt;Node11 -->
<g id="edge11_Node000010_Node000011" class="edge">
<title>Node10&#45;&gt;Node11</title>
<g id="a_edge11_Node000010_Node000011"><a xlink:title=" ">
<path fill="none" stroke="#63b8ff" d="M437.11,-393.8C479.41,-393.29 569.55,-387.36 632.5,-349 663.41,-330.16 683.5,-321.7 683.5,-285.5 683.5,-285.5 683.5,-285.5 683.5,-118.5 683.5,-84.04 663.43,-47.98 649.8,-27.47"/>
<polygon fill="#63b8ff" stroke="#63b8ff" points="652.65,-25.44 644.09,-19.2 646.9,-29.42 652.65,-25.44"/>
</a>
</g>
</g>
<!-- Node12 -->
<g id="Node000012" class="node">
<title>Node12</title>
<g id="a_Node000012"><a xlink:href="type_8h.html" target="_top" xlink:title="Defines typet, type_with_subtypet and type_with_subtypest.">
<polygon fill="white" stroke="#666666" points="437,-349 390,-349 390,-330 437,-330 437,-349"/>
<text text-anchor="middle" x="413.5" y="-337" font-family="Helvetica,sans-Serif" font-size="10.00">type.h</text>
</a>
</g>
</g>
<!-- Node10&#45;&gt;Node12 -->
<g id="edge12_Node000010_Node000012" class="edge">
<title>Node10&#45;&gt;Node12</title>
<g id="a_edge12_Node000010_Node000012"><a xlink:title=" ">
<path fill="none" stroke="#63b8ff" d="M413.5,-384.75C413.5,-377.8 413.5,-367.85 413.5,-359.13"/>
<polygon fill="#63b8ff" stroke="#63b8ff" points="417,-359.09 413.5,-349.09 410,-359.09 417,-359.09"/>
</a>
</g>
</g>
<!-- Node35 -->
<g id="Node000035" class="node">
<title>Node35</title>
<g id="a_Node000035"><a xlink:href="validation__mode_8h.html" target="_top" xlink:title=" ">
<polygon fill="white" stroke="#666666" points="415,-239 308,-239 308,-220 415,-220 415,-239"/>
<text text-anchor="middle" x="361.5" y="-227" font-family="Helvetica,sans-Serif" font-size="10.00">validation_mode.h</text>
</a>
</g>
</g>
<!-- Node10&#45;&gt;Node35 -->
<g id="edge35_Node000010_Node000035" class="edge">
<title>Node10&#45;&gt;Node35</title>
<g id="a_edge35_Node000010_Node000035"><a xlink:title=" ">
<path fill="none" stroke="#63b8ff" d="M405.28,-384.71C397.85,-376.23 387.22,-362.7 381.5,-349 367.62,-315.74 363.37,-273.41 362.07,-249.4"/>
<polygon fill="#63b8ff" stroke="#63b8ff" points="365.55,-249.04 361.64,-239.2 358.56,-249.34 365.55,-249.04"/>
</a>
</g>
</g>
<!-- Node36 -->
<g id="Node000036" class="node">
<title>Node36</title>
<g id="a_Node000036"><a xlink:href="validate__types_8h.html" target="_top" xlink:title=" ">
<polygon fill="white" stroke="#666666" points="569.5,-294 471.5,-294 471.5,-275 569.5,-275 569.5,-294"/>
<text text-anchor="middle" x="520.5" y="-282" font-family="Helvetica,sans-Serif" font-size="10.00">validate_types.h</text>
</a>
</g>
</g>
<!-- Node10&#45;&gt;Node36 -->
<g id="edge34_Node000010_Node000036" class="edge">
<title>Node10&#45;&gt;Node36</title>
<g id="a_edge34_Node000010_Node000036"><a xlink:title=" ">
<path fill="none" stroke="#63b8ff" d="M422.26,-384.66C440.29,-366.46 481.81,-324.55 504.68,-301.47"/>
<polygon fill="#63b8ff" stroke="#63b8ff" points="507.37,-303.73 511.92,-294.16 502.4,-298.8 507.37,-303.73"/>
</a>
</g>
</g>
<!-- Node37 -->
<g id="Node000037" class="node">
<title>Node37</title>
<g id="a_Node000037"><a xlink:href="validate__expressions_8h.html" target="_top" xlink:title=" ">
<polygon fill="white" stroke="#666666" points="623,-349 494,-349 494,-330 623,-330 623,-349"/>
<text text-anchor="middle" x="558.5" y="-337" font-family="Helvetica,sans-Serif" font-size="10.00">validate_expressions.h</text>
</a>
</g>
</g>
<!-- Node10&#45;&gt;Node37 -->
<g id="edge33_Node000010_Node000037" class="edge">
<title>Node10&#45;&gt;Node37</title>
<g id="a_edge33_Node000010_Node000037"><a xlink:title=" ">
<path fill="none" stroke="#63b8ff" d="M436.8,-384.98C460.75,-376.23 498.28,-362.51 525.33,-352.62"/>
<polygon fill="#63b8ff" stroke="#63b8ff" points="526.59,-355.89 534.78,-349.17 524.19,-349.32 526.59,-355.89"/>
</a>
</g>
</g>
<!-- Node13 -->
<g id="Node000013" class="node">
<title>Node13</title>
<g id="a_Node000013"><a xlink:href="source__location_8h.html" target="_top" xlink:title=" ">
<polygon fill="white" stroke="#666666" points="432.5,-184 330.5,-184 330.5,-165 432.5,-165 432.5,-184"/>
<text text-anchor="middle" x="381.5" y="-172" font-family="Helvetica,sans-Serif" font-size="10.00">source_location.h</text>
</a>
</g>
</g>
<!-- Node12&#45;&gt;Node13 -->
<g id="edge13_Node000012_Node000013" class="edge">
<title>Node12&#45;&gt;Node13</title>
<g id="a_edge13_Node000012_Node000013"><a xlink:title=" ">
<path fill="none" stroke="#63b8ff" d="M416.96,-329.77C424.41,-309.6 440.06,-258.5 424.5,-220 419.81,-208.41 410.5,-198.16 401.74,-190.43"/>
<polygon fill="#63b8ff" stroke="#63b8ff" points="403.94,-187.71 393.99,-184.07 399.5,-193.12 403.94,-187.71"/>
</a>
</g>
</g>
<!-- Node33 -->
<g id="Node000033" class="node">
<title>Node33</title>
<g id="a_Node000033"><a xlink:href="validate_8h.html" target="_top" xlink:title=" ">
<polygon fill="white" stroke="#666666" points="302,-294 237,-294 237,-275 302,-275 302,-294"/>
<text text-anchor="middle" x="269.5" y="-282" font-family="Helvetica,sans-Serif" font-size="10.00">validate.h</text>
</a>
</g>
</g>
<!-- Node12&#45;&gt;Node33 -->
<g id="edge24_Node000012_Node000033" class="edge">
<title>Node12&#45;&gt;Node33</title>
<g id="a_edge24_Node000012_Node000033"><a xlink:title=" ">
<path fill="none" stroke="#63b8ff" d="M390.36,-329.98C366.68,-321.27 329.63,-307.63 302.79,-297.75"/>
<polygon fill="#63b8ff" stroke="#63b8ff" points="303.65,-294.34 293.06,-294.17 301.23,-300.91 303.65,-294.34"/>
</a>
</g>
</g>
<!-- Node12&#45;&gt;Node35 -->
<g id="edge32_Node000012_Node000035" class="edge">
<title>Node12&#45;&gt;Node35</title>
<g id="a_edge32_Node000012_Node000035"><a xlink:title=" ">
<path fill="none" stroke="#63b8ff" d="M409.24,-329.66C400.71,-311.93 381.35,-271.73 370.08,-248.32"/>
<polygon fill="#63b8ff" stroke="#63b8ff" points="373.16,-246.65 365.67,-239.16 366.85,-249.69 373.16,-246.65"/>
</a>
</g>
</g>
<!-- Node12&#45;&gt;Node36 -->
<g id="edge31_Node000012_Node000036" class="edge">
<title>Node12&#45;&gt;Node36</title>
<g id="a_edge31_Node000012_Node000036"><a xlink:title=" ">
<path fill="none" stroke="#63b8ff" d="M430.69,-329.98C447.75,-321.54 474.13,-308.47 493.9,-298.68"/>
<polygon fill="#63b8ff" stroke="#63b8ff" points="495.59,-301.75 503,-294.17 492.48,-295.47 495.59,-301.75"/>
</a>
</g>
</g>
<!-- Node13&#45;&gt;Node9 -->
<g id="edge23_Node000013_Node000009" class="edge">
<title>Node13&#45;&gt;Node9</title>
<g id="a_edge23_Node000013_Node000009"><a xlink:title=" ">
<path fill="none" stroke="#63b8ff" d="M376.83,-164.91C367.71,-147.9 347.21,-108.59 333.5,-74 327.64,-59.21 322.3,-41.96 318.61,-29.18"/>
<polygon fill="#63b8ff" stroke="#63b8ff" points="321.9,-27.95 315.83,-19.27 315.16,-29.84 321.9,-27.95"/>
</a>
</g>
</g>
<!-- Node14 -->
<g id="Node000014" class="node">
<title>Node14</title>
<g id="a_Node000014"><a xlink:href="deprecate_8h.html" target="_top" xlink:title=" ">
<polygon fill="white" stroke="#666666" points="520.5,-129 446.5,-129 446.5,-110 520.5,-110 520.5,-129"/>
<text text-anchor="middle" x="483.5" y="-117" font-family="Helvetica,sans-Serif" font-size="10.00">deprecate.h</text>
</a>
</g>
</g>
<!-- Node13&#45;&gt;Node14 -->
<g id="edge14_Node000013_Node000014" class="edge">
<title>Node13&#45;&gt;Node14</title>
<g id="a_edge14_Node000013_Node000014"><a xlink:title=" ">
<path fill="none" stroke="#63b8ff" d="M397.89,-164.98C414.07,-156.57 439.07,-143.59 457.88,-133.81"/>
<polygon fill="#63b8ff" stroke="#63b8ff" points="459.55,-136.89 466.81,-129.17 456.33,-130.68 459.55,-136.89"/>
</a>
</g>
</g>
<!-- Node15 -->
<g id="Node000015" class="node">
<title>Node15</title>
<g id="a_Node000015"><a xlink:href="irep_8h.html" target="_top" xlink:title=" ">
<polygon fill="white" stroke="#666666" points="428.5,-129 384.5,-129 384.5,-110 428.5,-110 428.5,-129"/>
<text text-anchor="middle" x="406.5" y="-117" font-family="Helvetica,sans-Serif" font-size="10.00">irep.h</text>
</a>
</g>
</g>
<!-- Node13&#45;&gt;Node15 -->
<g id="edge15_Node000013_Node000015" class="edge">
<title>Node13&#45;&gt;Node15</title>
<g id="a_edge15_Node000013_Node000015"><a xlink:title=" ">
<path fill="none" stroke="#63b8ff" d="M385.63,-164.75C389.01,-157.57 393.92,-147.18 398.12,-138.27"/>
<polygon fill="#63b8ff" stroke="#63b8ff" points="401.35,-139.63 402.45,-129.09 395.02,-136.64 401.35,-139.63"/>
</a>
</g>
</g>
<!-- Node32 -->
<g id="Node000032" class="node">
<title>Node32</title>
<g id="a_Node000032"><a xlink:title=" ">
<polygon fill="#e0e0e0" stroke="#999999" points="328.5,-129 272.5,-129 272.5,-110 328.5,-110 328.5,-129"/>
<text text-anchor="middle" x="300.5" y="-117" font-family="Helvetica,sans-Serif" font-size="10.00">optional</text>
</a>
</g>
</g>
<!-- Node13&#45;&gt;Node32 -->
<g id="edge22_Node000013_Node000032" class="edge">
<title>Node13&#45;&gt;Node32</title>
<g id="a_edge22_Node000013_Node000032"><a xlink:title=" ">
<path fill="none" stroke="#63b8ff" d="M368.49,-164.98C356.04,-156.84 337.04,-144.41 322.29,-134.76"/>
<polygon fill="#63b8ff" stroke="#63b8ff" points="324.04,-131.72 313.75,-129.17 320.2,-137.57 324.04,-131.72"/>
</a>
</g>
</g>
<!-- Node15&#45;&gt;Node6 -->
<g id="edge18_Node000015_Node000006" class="edge">
<title>Node15&#45;&gt;Node6</title>
<g id="a_edge18_Node000015_Node000006"><a xlink:title=" ">
<path fill="none" stroke="#63b8ff" d="M384.19,-113.13C348.37,-104.5 277.33,-87.38 230.89,-76.19"/>
<polygon fill="#63b8ff" stroke="#63b8ff" points="231.63,-72.77 221.09,-73.83 229.99,-79.58 231.63,-72.77"/>
</a>
</g>
</g>
<!-- Node15&#45;&gt;Node9 -->
<g id="edge16_Node000015_Node000009" class="edge">
<title>Node15&#45;&gt;Node9</title>
<g id="a_edge16_Node000015_Node000009"><a xlink:title=" ">
<path fill="none" stroke="#63b8ff" d="M428.51,-110.88C456.39,-100.02 498.76,-78.76 480.5,-55 464.2,-33.79 389.6,-20.54 345.81,-14.45"/>
<polygon fill="#63b8ff" stroke="#63b8ff" points="346.03,-10.95 335.66,-13.09 345.1,-17.88 346.03,-10.95"/>
</a>
</g>
</g>
<!-- Node16 -->
<g id="Node000016" class="node">
<title>Node16</title>
<g id="a_Node000016"><a xlink:title=" ">
<polygon fill="#e0e0e0" stroke="#999999" points="389,-74 342,-74 342,-55 389,-55 389,-74"/>
<text text-anchor="middle" x="365.5" y="-62" font-family="Helvetica,sans-Serif" font-size="10.00">vector</text>
</a>
</g>
</g>
<!-- Node15&#45;&gt;Node16 -->
<g id="edge17_Node000015_Node000016" class="edge">
<title>Node15&#45;&gt;Node16</title>
<g id="a_edge17_Node000015_Node000016"><a xlink:title=" ">
<path fill="none" stroke="#63b8ff" d="M399.73,-109.75C393.94,-102.26 385.44,-91.28 378.36,-82.13"/>
<polygon fill="#63b8ff" stroke="#63b8ff" points="381.03,-79.86 372.14,-74.09 375.49,-84.14 381.03,-79.86"/>
</a>
</g>
</g>
<!-- Node17 -->
<g id="Node000017" class="node">
<title>Node17</title>
<g id="a_Node000017"><a xlink:href="irep__ids_8h.html" target="_top" xlink:title="util">
<polygon fill="#fff0f0" stroke="red" points="471.5,-74 407.5,-74 407.5,-55 471.5,-55 471.5,-74"/>
<text text-anchor="middle" x="439.5" y="-62" font-family="Helvetica,sans-Serif" font-size="10.00">irep_ids.h</text>
</a>
</g>
</g>
<!-- Node15&#45;&gt;Node17 -->
<g id="edge19_Node000015_Node000017" class="edge">
<title>Node15&#45;&gt;Node17</title>
<g id="a_edge19_Node000015_Node000017"><a xlink:title=" ">
<path fill="none" stroke="#63b8ff" d="M411.95,-109.75C416.51,-102.42 423.17,-91.73 428.79,-82.7"/>
<polygon fill="#63b8ff" stroke="#63b8ff" points="431.84,-84.43 434.15,-74.09 425.9,-80.73 431.84,-84.43"/>
</a>
</g>
</g>
<!-- Node28 -->
<g id="Node000028" class="node">
<title>Node28</title>
<g id="a_Node000028"><a xlink:href="forward__list__as__map_8h.html" target="_top" xlink:title=" ">
<polygon fill="#fff0f0" stroke="red" points="655,-74 528,-74 528,-55 655,-55 655,-74"/>
<text text-anchor="middle" x="591.5" y="-62" font-family="Helvetica,sans-Serif" font-size="10.00">forward_list_as_map.h</text>
</a>
</g>
</g>
<!-- Node15&#45;&gt;Node28 -->
<g id="edge20_Node000015_Node000028" class="edge">
<title>Node15&#45;&gt;Node28</title>
<g id="a_edge20_Node000015_Node000028"><a xlink:title=" ">
<path fill="none" stroke="#63b8ff" d="M428.82,-112.11C459.34,-103.36 514.6,-87.53 552.16,-76.77"/>
<polygon fill="#63b8ff" stroke="#63b8ff" points="553.12,-80.14 561.77,-74.02 551.19,-73.41 553.12,-80.14"/>
</a>
</g>
</g>
<!-- Node28&#45;&gt;Node11 -->
<g id="edge21_Node000028_Node000011" class="edge">
<title>Node28&#45;&gt;Node11</title>
<g id="a_edge21_Node000028_Node000011"><a xlink:title=" ">
<path fill="none" stroke="#63b8ff" d="M599.1,-54.75C605.66,-47.18 615.32,-36.05 623.31,-26.84"/>
<polygon fill="#63b8ff" stroke="#63b8ff" points="626.13,-28.94 630.05,-19.09 620.85,-24.35 626.13,-28.94"/>
</a>
</g>
</g>
<!-- Node33&#45;&gt;Node4 -->
<g id="edge25_Node000033_Node000004" class="edge">
<title>Node33&#45;&gt;Node4</title>
<g id="a_edge25_Node000033_Node000004"><a xlink:title=" ">
<path fill="none" stroke="#63b8ff" d="M239.47,-274.9C220.27,-268 196.13,-256.54 180.5,-239 124.18,-175.78 105.16,-71.33 99.57,-29.09"/>
<polygon fill="#63b8ff" stroke="#63b8ff" points="103.03,-28.62 98.35,-19.11 96.09,-29.47 103.03,-28.62"/>
</a>
</g>
</g>
<!-- Node34 -->
<g id="Node000034" class="node">
<title>Node34</title>
<g id="a_Node000034"><a xlink:href="exception__utils_8h.html" target="_top" xlink:title=" ">
<polygon fill="white" stroke="#666666" points="289.5,-239 189.5,-239 189.5,-220 289.5,-220 289.5,-239"/>
<text text-anchor="middle" x="239.5" y="-227" font-family="Helvetica,sans-Serif" font-size="10.00">exception_utils.h</text>
</a>
</g>
</g>
<!-- Node33&#45;&gt;Node34 -->
<g id="edge26_Node000033_Node000034" class="edge">
<title>Node33&#45;&gt;Node34</title>
<g id="a_edge26_Node000033_Node000034"><a xlink:title=" ">
<path fill="none" stroke="#63b8ff" d="M264.55,-274.75C260.44,-267.49 254.47,-256.95 249.4,-247.98"/>
<polygon fill="#63b8ff" stroke="#63b8ff" points="252.33,-246.07 244.36,-239.09 246.24,-249.52 252.33,-246.07"/>
</a>
</g>
</g>
<!-- Node33&#45;&gt;Node35 -->
<g id="edge30_Node000033_Node000035" class="edge">
<title>Node33&#45;&gt;Node35</title>
<g id="a_edge30_Node000033_Node000035"><a xlink:title=" ">
<path fill="none" stroke="#63b8ff" d="M284.28,-274.98C298.68,-266.69 320.81,-253.94 337.69,-244.22"/>
<polygon fill="#63b8ff" stroke="#63b8ff" points="339.53,-247.19 346.45,-239.17 336.04,-241.13 339.53,-247.19"/>
</a>
</g>
</g>
<!-- Node34&#45;&gt;Node6 -->
<g id="edge28_Node000034_Node000006" class="edge">
<title>Node34&#45;&gt;Node6</title>
<g id="a_edge28_Node000034_Node000006"><a xlink:title=" ">
<path fill="none" stroke="#63b8ff" d="M236.65,-219.74C228.35,-194.2 204.04,-119.43 192.59,-84.23"/>
<polygon fill="#63b8ff" stroke="#63b8ff" points="195.78,-82.73 189.36,-74.31 189.13,-84.9 195.78,-82.73"/>
</a>
</g>
</g>
<!-- Node34&#45;&gt;Node9 -->
<g id="edge27_Node000034_Node000009" class="edge">
<title>Node34&#45;&gt;Node9</title>
<g id="a_edge27_Node000034_Node000009"><a xlink:title=" ">
<path fill="none" stroke="#63b8ff" d="M240.44,-219.96C242.78,-200.19 249.72,-149.88 263.5,-110 273.93,-79.83 291.7,-47.19 303.01,-27.81"/>
<polygon fill="#63b8ff" stroke="#63b8ff" points="306.02,-29.59 308.12,-19.2 300.01,-26.02 306.02,-29.59"/>
</a>
</g>
</g>
<!-- Node34&#45;&gt;Node13 -->
<g id="edge29_Node000034_Node000013" class="edge">
<title>Node34&#45;&gt;Node13</title>
<g id="a_edge29_Node000034_Node000013"><a xlink:title=" ">
<path fill="none" stroke="#63b8ff" d="M262.31,-219.98C285.67,-211.27 322.2,-197.63 348.67,-187.75"/>
<polygon fill="#63b8ff" stroke="#63b8ff" points="350.13,-190.95 358.27,-184.17 347.68,-184.39 350.13,-190.95"/>
</a>
</g>
</g>
</g>
</svg>
