<?xml version="1.0" encoding="UTF-8" standalone="no"?>
<!DOCTYPE svg PUBLIC "-//W3C//DTD SVG 1.1//EN"
 "http://www.w3.org/Graphics/SVG/1.1/DTD/svg11.dtd">
<!-- Generated by graphviz version 2.43.0 (0)
 -->
<!-- Title: /home/runner/work/cbmc/cbmc/jbmc/src/java_bytecode/java_string_literals.h Pages: 1 -->
<svg width="900pt" height="126pt"
 viewBox="0.00 0.00 900.00 126.00" xmlns="http://www.w3.org/2000/svg" xmlns:xlink="http://www.w3.org/1999/xlink">
<g id="graph0" class="graph" transform="scale(1 1) rotate(0) translate(4 122)">
<title>/home/runner/work/cbmc/cbmc/jbmc/src/java_bytecode/java_string_literals.h</title>
<!-- Node1 -->
<g id="Node000001" class="node">
<title>Node1</title>
<g id="a_Node000001"><a xlink:title=" ">
<polygon fill="#999999" stroke="#666666" points="528,-118 364,-118 364,-77 528,-77 528,-118"/>
<text text-anchor="start" x="372" y="-106" font-family="Helvetica,sans-Serif" font-size="10.00">/home/runner/work/cbmc</text>
<text text-anchor="start" x="372" y="-95" font-family="Helvetica,sans-Serif" font-size="10.00">/cbmc/jbmc/src/java_bytecode</text>
<text text-anchor="middle" x="446" y="-84" font-family="Helvetica,sans-Serif" font-size="10.00">/java_string_literals.h</text>
</a>
</g>
</g>
<!-- Node2 -->
<g id="Node000002" class="node">
<title>Node2</title>
<g id="a_Node000002"><a xlink:href="assignments__from__json_8cpp.html" target="_top" xlink:title=" ">
<polygon fill="white" stroke="#666666" points="164,-41 0,-41 0,0 164,0 164,-41"/>
<text text-anchor="start" x="8" y="-29" font-family="Helvetica,sans-Serif" font-size="10.00">/home/runner/work/cbmc</text>
<text text-anchor="start" x="8" y="-18" font-family="Helvetica,sans-Serif" font-size="10.00">/cbmc/jbmc/src/java_bytecode</text>
<text text-anchor="middle" x="82" y="-7" font-family="Helvetica,sans-Serif" font-size="10.00">/assignments_from_json.cpp</text>
</a>
</g>
</g>
<!-- Node1&#45;&gt;Node2 -->
<g id="edge1_Node000001_Node000002" class="edge">
<title>Node1&#45;&gt;Node2</title>
<g id="a_edge1_Node000001_Node000002"><a xlink:title=" ">
<path fill="none" stroke="#63b8ff" d="M353.78,-78C300.85,-67.32 233.16,-53.56 173,-41 170.15,-40.41 167.26,-39.8 164.33,-39.18"/>
<polygon fill="#63b8ff" stroke="#63b8ff" points="353.33,-81.48 363.82,-80.03 354.71,-74.62 353.33,-81.48"/>
</a>
</g>
</g>
<!-- Node3 -->
<g id="Node000003" class="node">
<title>Node3</title>
<g id="a_Node000003"><a xlink:href="java__bytecode__language_8cpp.html" target="_top" xlink:title=" ">
<polygon fill="white" stroke="#666666" points="346,-41 182,-41 182,0 346,0 346,-41"/>
<text text-anchor="start" x="190" y="-29" font-family="Helvetica,sans-Serif" font-size="10.00">/home/runner/work/cbmc</text>
<text text-anchor="start" x="190" y="-18" font-family="Helvetica,sans-Serif" font-size="10.00">/cbmc/jbmc/src/java_bytecode</text>
<text text-anchor="middle" x="264" y="-7" font-family="Helvetica,sans-Serif" font-size="10.00">/java_bytecode_language.cpp</text>
</a>
</g>
</g>
<!-- Node1&#45;&gt;Node3 -->
<g id="edge2_Node000001_Node000003" class="edge">
<title>Node1&#45;&gt;Node3</title>
<g id="a_edge2_Node000001_Node000003"><a xlink:title=" ">
<path fill="none" stroke="#63b8ff" d="M389.29,-73.13C364.29,-62.83 335.25,-50.86 311.42,-41.04"/>
<polygon fill="#63b8ff" stroke="#63b8ff" points="388.08,-76.42 398.66,-76.99 390.74,-69.94 388.08,-76.42"/>
</a>
</g>
</g>
<!-- Node4 -->
<g id="Node000004" class="node">
<title>Node4</title>
<g id="a_Node000004"><a xlink:href="java__entry__point_8cpp.html" target="_top" xlink:title=" ">
<polygon fill="white" stroke="#666666" points="528,-41 364,-41 364,0 528,0 528,-41"/>
<text text-anchor="start" x="372" y="-29" font-family="Helvetica,sans-Serif" font-size="10.00">/home/runner/work/cbmc</text>
<text text-anchor="start" x="372" y="-18" font-family="Helvetica,sans-Serif" font-size="10.00">/cbmc/jbmc/src/java_bytecode</text>
<text text-anchor="middle" x="446" y="-7" font-family="Helvetica,sans-Serif" font-size="10.00">/java_entry_point.cpp</text>
</a>
</g>
</g>
<!-- Node1&#45;&gt;Node4 -->
<g id="edge3_Node000001_Node000004" class="edge">
<title>Node1&#45;&gt;Node4</title>
<g id="a_edge3_Node000001_Node000004"><a xlink:title=" ">
<path fill="none" stroke="#63b8ff" d="M446,-66.69C446,-58.08 446,-48.9 446,-41.07"/>
<polygon fill="#63b8ff" stroke="#63b8ff" points="442.5,-66.79 446,-76.79 449.5,-66.79 442.5,-66.79"/>
</a>
</g>
</g>
<!-- Node5 -->
<g id="Node000005" class="node">
<title>Node5</title>
<g id="a_Node000005"><a xlink:href="java__object__factory_8cpp.html" target="_top" xlink:title=" ">
<polygon fill="white" stroke="#666666" points="710,-41 546,-41 546,0 710,0 710,-41"/>
<text text-anchor="start" x="554" y="-29" font-family="Helvetica,sans-Serif" font-size="10.00">/home/runner/work/cbmc</text>
<text text-anchor="start" x="554" y="-18" font-family="Helvetica,sans-Serif" font-size="10.00">/cbmc/jbmc/src/java_bytecode</text>
<text text-anchor="middle" x="628" y="-7" font-family="Helvetica,sans-Serif" font-size="10.00">/java_object_factory.cpp</text>
</a>
</g>
</g>
<!-- Node1&#45;&gt;Node5 -->
<g id="edge4_Node000001_Node000005" class="edge">
<title>Node1&#45;&gt;Node5</title>
<g id="a_edge4_Node000001_Node000005"><a xlink:title=" ">
<path fill="none" stroke="#63b8ff" d="M502.71,-73.13C527.71,-62.83 556.75,-50.86 580.58,-41.04"/>
<polygon fill="#63b8ff" stroke="#63b8ff" points="501.26,-69.94 493.34,-76.99 503.92,-76.42 501.26,-69.94"/>
</a>
</g>
</g>
<!-- Node6 -->
<g id="Node000006" class="node">
<title>Node6</title>
<g id="a_Node000006"><a xlink:href="java__string__literals_8cpp.html" target="_top" xlink:title=" ">
<polygon fill="white" stroke="#666666" points="892,-41 728,-41 728,0 892,0 892,-41"/>
<text text-anchor="start" x="736" y="-29" font-family="Helvetica,sans-Serif" font-size="10.00">/home/runner/work/cbmc</text>
<text text-anchor="start" x="736" y="-18" font-family="Helvetica,sans-Serif" font-size="10.00">/cbmc/jbmc/src/java_bytecode</text>
<text text-anchor="middle" x="810" y="-7" font-family="Helvetica,sans-Serif" font-size="10.00">/java_string_literals.cpp</text>
</a>
</g>
</g>
<!-- Node1&#45;&gt;Node6 -->
<g id="edge5_Node000001_Node000006" class="edge">
<title>Node1&#45;&gt;Node6</title>
<g id="a_edge5_Node000001_Node000006"><a xlink:title=" ">
<path fill="none" stroke="#63b8ff" d="M538.22,-78C591.15,-67.32 658.84,-53.56 719,-41 721.85,-40.41 724.74,-39.8 727.67,-39.18"/>
<polygon fill="#63b8ff" stroke="#63b8ff" points="537.29,-74.62 528.18,-80.03 538.67,-81.48 537.29,-74.62"/>
</a>
</g>
</g>
</g>
</svg>
