<?xml version="1.0" encoding="UTF-8" standalone="no"?>
<!DOCTYPE svg PUBLIC "-//W3C//DTD SVG 1.1//EN"
 "http://www.w3.org/Graphics/SVG/1.1/DTD/svg11.dtd">
<!-- Generated by graphviz version 2.43.0 (0)
 -->
<!-- Title: /home/runner/work/cbmc/cbmc/jbmc/src/java_bytecode/java_enum_static_init_unwind_handler.h Pages: 1 -->
<svg width="175pt" height="170pt"
 viewBox="0.00 0.00 175.00 170.00" xmlns="http://www.w3.org/2000/svg" xmlns:xlink="http://www.w3.org/1999/xlink">
<g id="graph0" class="graph" transform="scale(1 1) rotate(0) translate(4 166)">
<title>/home/runner/work/cbmc/cbmc/jbmc/src/java_bytecode/java_enum_static_init_unwind_handler.h</title>
<!-- Node1 -->
<g id="Node000001" class="node">
<title>Node1</title>
<g id="a_Node000001"><a xlink:title="Unwind loops in static initializers.">
<polygon fill="#999999" stroke="#666666" points="167,-162 0,-162 0,-110 167,-110 167,-162"/>
<text text-anchor="start" x="8" y="-150" font-family="Helvetica,sans-Serif" font-size="10.00">/home/runner/work/cbmc</text>
<text text-anchor="start" x="8" y="-139" font-family="Helvetica,sans-Serif" font-size="10.00">/cbmc/jbmc/src/java_bytecode</text>
<text text-anchor="start" x="8" y="-128" font-family="Helvetica,sans-Serif" font-size="10.00">/java_enum_static_init_unwind</text>
<text text-anchor="middle" x="83.5" y="-117" font-family="Helvetica,sans-Serif" font-size="10.00">_handler.h</text>
</a>
</g>
</g>
<!-- Node2 -->
<g id="Node000002" class="node">
<title>Node2</title>
<g id="a_Node000002"><a xlink:href="threeval_8h.html" target="_top" xlink:title=" ">
<polygon fill="white" stroke="#666666" points="126,-74 41,-74 41,-55 126,-55 126,-74"/>
<text text-anchor="middle" x="83.5" y="-62" font-family="Helvetica,sans-Serif" font-size="10.00">util/threeval.h</text>
</a>
</g>
</g>
<!-- Node1&#45;&gt;Node2 -->
<g id="edge1_Node000001_Node000002" class="edge">
<title>Node1&#45;&gt;Node2</title>
<g id="a_edge1_Node000001_Node000002"><a xlink:title=" ">
<path fill="none" stroke="#63b8ff" d="M83.5,-109.91C83.5,-101.55 83.5,-92.38 83.5,-84.55"/>
<polygon fill="#63b8ff" stroke="#63b8ff" points="87,-84.3 83.5,-74.3 80,-84.3 87,-84.3"/>
</a>
</g>
</g>
<!-- Node3 -->
<g id="Node000003" class="node">
<title>Node3</title>
<g id="a_Node000003"><a xlink:title=" ">
<polygon fill="#e0e0e0" stroke="#999999" points="107.5,-19 59.5,-19 59.5,0 107.5,0 107.5,-19"/>
<text text-anchor="middle" x="83.5" y="-7" font-family="Helvetica,sans-Serif" font-size="10.00">iosfwd</text>
</a>
</g>
</g>
<!-- Node2&#45;&gt;Node3 -->
<g id="edge2_Node000002_Node000003" class="edge">
<title>Node2&#45;&gt;Node3</title>
<g id="a_edge2_Node000002_Node000003"><a xlink:title=" ">
<path fill="none" stroke="#63b8ff" d="M83.5,-54.75C83.5,-47.8 83.5,-37.85 83.5,-29.13"/>
<polygon fill="#63b8ff" stroke="#63b8ff" points="87,-29.09 83.5,-19.09 80,-29.09 87,-29.09"/>
</a>
</g>
</g>
</g>
</svg>
