<?xml version="1.0" encoding="UTF-8" standalone="no"?>
<!DOCTYPE svg PUBLIC "-//W3C//DTD SVG 1.1//EN"
 "http://www.w3.org/Graphics/SVG/1.1/DTD/svg11.dtd">
<!-- Generated by graphviz version 2.43.0 (0)
 -->
<!-- Title: /home/runner/work/cbmc/cbmc/jbmc/src/java_bytecode/java_bytecode_language.h Pages: 1 -->
<svg width="1677pt" height="203pt"
 viewBox="0.00 0.00 1677.00 203.00" xmlns="http://www.w3.org/2000/svg" xmlns:xlink="http://www.w3.org/1999/xlink">
<g id="graph0" class="graph" transform="scale(1 1) rotate(0) translate(4 199)">
<title>/home/runner/work/cbmc/cbmc/jbmc/src/java_bytecode/java_bytecode_language.h</title>
<!-- Node1 -->
<g id="Node000001" class="node">
<title>Node1</title>
<g id="a_Node000001"><a xlink:title=" ">
<polygon fill="#999999" stroke="#666666" points="983,-195 819,-195 819,-154 983,-154 983,-195"/>
<text text-anchor="start" x="827" y="-183" font-family="Helvetica,sans-Serif" font-size="10.00">/home/runner/work/cbmc</text>
<text text-anchor="start" x="827" y="-172" font-family="Helvetica,sans-Serif" font-size="10.00">/cbmc/jbmc/src/java_bytecode</text>
<text text-anchor="middle" x="901" y="-161" font-family="Helvetica,sans-Serif" font-size="10.00">/java_bytecode_language.h</text>
</a>
</g>
</g>
<!-- Node2 -->
<g id="Node000002" class="node">
<title>Node2</title>
<g id="a_Node000002"><a xlink:href="janalyzer__parse__options_8cpp.html" target="_top" xlink:title="JANALYZER Command Line Option Processing.">
<polygon fill="white" stroke="#666666" points="158,-41 0,-41 0,0 158,0 158,-41"/>
<text text-anchor="start" x="8" y="-29" font-family="Helvetica,sans-Serif" font-size="10.00">/home/runner/work/cbmc</text>
<text text-anchor="start" x="8" y="-18" font-family="Helvetica,sans-Serif" font-size="10.00">/cbmc/jbmc/src/janalyzer</text>
<text text-anchor="middle" x="79" y="-7" font-family="Helvetica,sans-Serif" font-size="10.00">/janalyzer_parse_options.cpp</text>
</a>
</g>
</g>
<!-- Node1&#45;&gt;Node2 -->
<g id="edge1_Node000001_Node000002" class="edge">
<title>Node1&#45;&gt;Node2</title>
<g id="a_edge1_Node000001_Node000002"><a xlink:title=" ">
<path fill="none" stroke="#63b8ff" d="M808.65,-173.32C608.88,-172.06 150.28,-164.11 98,-118 76.48,-99.03 75.03,-63.4 76.56,-41.14"/>
<polygon fill="#63b8ff" stroke="#63b8ff" points="808.82,-176.82 818.84,-173.38 808.86,-169.82 808.82,-176.82"/>
</a>
</g>
</g>
<!-- Node3 -->
<g id="Node000003" class="node">
<title>Node3</title>
<g id="a_Node000003"><a xlink:href="janalyzer__parse__options_8h.html" target="_top" xlink:title="JANALYZER Command Line Option Processing.">
<polygon fill="white" stroke="#666666" points="254.5,-118 107.5,-118 107.5,-77 254.5,-77 254.5,-118"/>
<text text-anchor="start" x="115.5" y="-106" font-family="Helvetica,sans-Serif" font-size="10.00">/home/runner/work/cbmc</text>
<text text-anchor="start" x="115.5" y="-95" font-family="Helvetica,sans-Serif" font-size="10.00">/cbmc/jbmc/src/janalyzer</text>
<text text-anchor="middle" x="181" y="-84" font-family="Helvetica,sans-Serif" font-size="10.00">/janalyzer_parse_options.h</text>
</a>
</g>
</g>
<!-- Node1&#45;&gt;Node3 -->
<g id="edge2_Node000001_Node000003" class="edge">
<title>Node1&#45;&gt;Node3</title>
<g id="a_edge2_Node000001_Node000003"><a xlink:title=" ">
<path fill="none" stroke="#63b8ff" d="M808.6,-169.62C684.21,-163.45 456.31,-148.8 264,-118 260.93,-117.51 257.81,-116.97 254.66,-116.38"/>
<polygon fill="#63b8ff" stroke="#63b8ff" points="808.68,-173.13 818.84,-170.12 809.02,-166.14 808.68,-173.13"/>
</a>
</g>
</g>
<!-- Node5 -->
<g id="Node000005" class="node">
<title>Node5</title>
<g id="a_Node000005"><a xlink:href="ci__lazy__methods_8cpp.html" target="_top" xlink:title=" ">
<polygon fill="white" stroke="#666666" points="437,-118 273,-118 273,-77 437,-77 437,-118"/>
<text text-anchor="start" x="281" y="-106" font-family="Helvetica,sans-Serif" font-size="10.00">/home/runner/work/cbmc</text>
<text text-anchor="start" x="281" y="-95" font-family="Helvetica,sans-Serif" font-size="10.00">/cbmc/jbmc/src/java_bytecode</text>
<text text-anchor="middle" x="355" y="-84" font-family="Helvetica,sans-Serif" font-size="10.00">/ci_lazy_methods.cpp</text>
</a>
</g>
</g>
<!-- Node1&#45;&gt;Node5 -->
<g id="edge5_Node000001_Node000005" class="edge">
<title>Node1&#45;&gt;Node5</title>
<g id="a_edge5_Node000001_Node000005"><a xlink:title=" ">
<path fill="none" stroke="#63b8ff" d="M808.76,-164.7C716.59,-155.33 571,-138.97 446,-118 443.13,-117.52 440.22,-117.01 437.28,-116.48"/>
<polygon fill="#63b8ff" stroke="#63b8ff" points="808.6,-168.2 818.9,-165.72 809.3,-161.24 808.6,-168.2"/>
</a>
</g>
</g>
<!-- Node6 -->
<g id="Node000006" class="node">
<title>Node6</title>
<g id="a_Node000006"><a xlink:href="java__bytecode__language_8cpp.html" target="_top" xlink:title=" ">
<polygon fill="white" stroke="#666666" points="619,-118 455,-118 455,-77 619,-77 619,-118"/>
<text text-anchor="start" x="463" y="-106" font-family="Helvetica,sans-Serif" font-size="10.00">/home/runner/work/cbmc</text>
<text text-anchor="start" x="463" y="-95" font-family="Helvetica,sans-Serif" font-size="10.00">/cbmc/jbmc/src/java_bytecode</text>
<text text-anchor="middle" x="537" y="-84" font-family="Helvetica,sans-Serif" font-size="10.00">/java_bytecode_language.cpp</text>
</a>
</g>
</g>
<!-- Node1&#45;&gt;Node6 -->
<g id="edge6_Node000001_Node000006" class="edge">
<title>Node1&#45;&gt;Node6</title>
<g id="a_edge6_Node000001_Node000006"><a xlink:title=" ">
<path fill="none" stroke="#63b8ff" d="M808.78,-155C755.85,-144.32 688.16,-130.56 628,-118 625.15,-117.41 622.26,-116.8 619.33,-116.18"/>
<polygon fill="#63b8ff" stroke="#63b8ff" points="808.33,-158.48 818.82,-157.03 809.71,-151.62 808.33,-158.48"/>
</a>
</g>
</g>
<!-- Node7 -->
<g id="Node000007" class="node">
<title>Node7</title>
<g id="a_Node000007"><a xlink:href="java__entry__point_8cpp.html" target="_top" xlink:title=" ">
<polygon fill="white" stroke="#666666" points="801,-118 637,-118 637,-77 801,-77 801,-118"/>
<text text-anchor="start" x="645" y="-106" font-family="Helvetica,sans-Serif" font-size="10.00">/home/runner/work/cbmc</text>
<text text-anchor="start" x="645" y="-95" font-family="Helvetica,sans-Serif" font-size="10.00">/cbmc/jbmc/src/java_bytecode</text>
<text text-anchor="middle" x="719" y="-84" font-family="Helvetica,sans-Serif" font-size="10.00">/java_entry_point.cpp</text>
</a>
</g>
</g>
<!-- Node1&#45;&gt;Node7 -->
<g id="edge7_Node000001_Node000007" class="edge">
<title>Node1&#45;&gt;Node7</title>
<g id="a_edge7_Node000001_Node000007"><a xlink:title=" ">
<path fill="none" stroke="#63b8ff" d="M844.29,-150.13C819.29,-139.83 790.25,-127.86 766.42,-118.04"/>
<polygon fill="#63b8ff" stroke="#63b8ff" points="843.08,-153.42 853.66,-153.99 845.74,-146.94 843.08,-153.42"/>
</a>
</g>
</g>
<!-- Node8 -->
<g id="Node000008" class="node">
<title>Node8</title>
<g id="a_Node000008"><a xlink:href="lazy__goto__model_8cpp.html" target="_top" xlink:title="Author: Diffblue Ltd.">
<polygon fill="white" stroke="#666666" points="983,-118 819,-118 819,-77 983,-77 983,-118"/>
<text text-anchor="start" x="827" y="-106" font-family="Helvetica,sans-Serif" font-size="10.00">/home/runner/work/cbmc</text>
<text text-anchor="start" x="827" y="-95" font-family="Helvetica,sans-Serif" font-size="10.00">/cbmc/jbmc/src/java_bytecode</text>
<text text-anchor="middle" x="901" y="-84" font-family="Helvetica,sans-Serif" font-size="10.00">/lazy_goto_model.cpp</text>
</a>
</g>
</g>
<!-- Node1&#45;&gt;Node8 -->
<g id="edge8_Node000001_Node000008" class="edge">
<title>Node1&#45;&gt;Node8</title>
<g id="a_edge8_Node000001_Node000008"><a xlink:title=" ">
<path fill="none" stroke="#63b8ff" d="M901,-143.69C901,-135.08 901,-125.9 901,-118.07"/>
<polygon fill="#63b8ff" stroke="#63b8ff" points="897.5,-143.79 901,-153.79 904.5,-143.79 897.5,-143.79"/>
</a>
</g>
</g>
<!-- Node9 -->
<g id="Node000009" class="node">
<title>Node9</title>
<g id="a_Node000009"><a xlink:href="jbmc__parse__options_8cpp.html" target="_top" xlink:title="JBMC Command Line Option Processing.">
<polygon fill="white" stroke="#666666" points="1083,-41 939,-41 939,0 1083,0 1083,-41"/>
<text text-anchor="start" x="947" y="-29" font-family="Helvetica,sans-Serif" font-size="10.00">/home/runner/work/cbmc</text>
<text text-anchor="start" x="947" y="-18" font-family="Helvetica,sans-Serif" font-size="10.00">/cbmc/jbmc/src/jbmc/jbmc</text>
<text text-anchor="middle" x="1011" y="-7" font-family="Helvetica,sans-Serif" font-size="10.00">_parse_options.cpp</text>
</a>
</g>
</g>
<!-- Node1&#45;&gt;Node9 -->
<g id="edge9_Node000001_Node000009" class="edge">
<title>Node1&#45;&gt;Node9</title>
<g id="a_edge9_Node000001_Node000009"><a xlink:title=" ">
<path fill="none" stroke="#63b8ff" d="M957.92,-148.71C970.85,-140.63 983.32,-130.46 992,-118 1008.01,-95.03 1011.31,-61.88 1011.61,-41.03"/>
<polygon fill="#63b8ff" stroke="#63b8ff" points="955.79,-145.89 948.93,-153.96 959.33,-151.93 955.79,-145.89"/>
</a>
</g>
</g>
<!-- Node10 -->
<g id="Node000010" class="node">
<title>Node10</title>
<g id="a_Node000010"><a xlink:href="jbmc__parse__options_8h.html" target="_top" xlink:title="JBMC Command Line Option Processing.">
<polygon fill="white" stroke="#666666" points="1183,-118 1039,-118 1039,-77 1183,-77 1183,-118"/>
<text text-anchor="start" x="1047" y="-106" font-family="Helvetica,sans-Serif" font-size="10.00">/home/runner/work/cbmc</text>
<text text-anchor="start" x="1047" y="-95" font-family="Helvetica,sans-Serif" font-size="10.00">/cbmc/jbmc/src/jbmc/jbmc</text>
<text text-anchor="middle" x="1111" y="-84" font-family="Helvetica,sans-Serif" font-size="10.00">_parse_options.h</text>
</a>
</g>
</g>
<!-- Node1&#45;&gt;Node10 -->
<g id="edge10_Node000001_Node000010" class="edge">
<title>Node1&#45;&gt;Node10</title>
<g id="a_edge10_Node000001_Node000010"><a xlink:title=" ">
<path fill="none" stroke="#63b8ff" d="M965.29,-150.54C994.39,-140.15 1028.43,-127.99 1056.28,-118.04"/>
<polygon fill="#63b8ff" stroke="#63b8ff" points="963.87,-147.33 955.63,-153.99 966.22,-153.92 963.87,-147.33"/>
</a>
</g>
</g>
<!-- Node12 -->
<g id="Node000012" class="node">
<title>Node12</title>
<g id="a_Node000012"><a xlink:href="jdiff__languages_8cpp.html" target="_top" xlink:title="Language Registration.">
<polygon fill="white" stroke="#666666" points="1339,-118 1201,-118 1201,-77 1339,-77 1339,-118"/>
<text text-anchor="start" x="1209" y="-106" font-family="Helvetica,sans-Serif" font-size="10.00">/home/runner/work/cbmc</text>
<text text-anchor="start" x="1209" y="-95" font-family="Helvetica,sans-Serif" font-size="10.00">/cbmc/jbmc/src/jdiff/jdiff</text>
<text text-anchor="middle" x="1270" y="-84" font-family="Helvetica,sans-Serif" font-size="10.00">_languages.cpp</text>
</a>
</g>
</g>
<!-- Node1&#45;&gt;Node12 -->
<g id="edge13_Node000001_Node000012" class="edge">
<title>Node1&#45;&gt;Node12</title>
<g id="a_edge13_Node000001_Node000012"><a xlink:title=" ">
<path fill="none" stroke="#63b8ff" d="M993.23,-157.29C1050.59,-146.86 1125.78,-132.58 1192,-118 1194.86,-117.37 1197.78,-116.71 1200.73,-116.03"/>
<polygon fill="#63b8ff" stroke="#63b8ff" points="992.31,-153.9 983.1,-159.12 993.56,-160.78 992.31,-153.9"/>
</a>
</g>
</g>
<!-- Node13 -->
<g id="Node000013" class="node">
<title>Node13</title>
<g id="a_Node000013"><a xlink:href="jdiff__parse__options_8cpp.html" target="_top" xlink:title="JDIFF Command Line Option Processing.">
<polygon fill="white" stroke="#666666" points="1495,-118 1357,-118 1357,-77 1495,-77 1495,-118"/>
<text text-anchor="start" x="1365" y="-106" font-family="Helvetica,sans-Serif" font-size="10.00">/home/runner/work/cbmc</text>
<text text-anchor="start" x="1365" y="-95" font-family="Helvetica,sans-Serif" font-size="10.00">/cbmc/jbmc/src/jdiff/jdiff</text>
<text text-anchor="middle" x="1426" y="-84" font-family="Helvetica,sans-Serif" font-size="10.00">_parse_options.cpp</text>
</a>
</g>
</g>
<!-- Node1&#45;&gt;Node13 -->
<g id="edge14_Node000001_Node000013" class="edge">
<title>Node1&#45;&gt;Node13</title>
<g id="a_edge14_Node000001_Node000013"><a xlink:title=" ">
<path fill="none" stroke="#63b8ff" d="M993.01,-165.37C1083.73,-156.58 1226.11,-140.72 1348,-118 1350.88,-117.46 1353.82,-116.88 1356.77,-116.27"/>
<polygon fill="#63b8ff" stroke="#63b8ff" points="992.65,-161.89 983.03,-166.33 993.31,-168.86 992.65,-161.89"/>
</a>
</g>
</g>
<!-- Node14 -->
<g id="Node000014" class="node">
<title>Node14</title>
<g id="a_Node000014"><a xlink:href="load__java__class_8cpp.html" target="_top" xlink:title=" ">
<polygon fill="white" stroke="#666666" points="1669,-118 1513,-118 1513,-77 1669,-77 1669,-118"/>
<text text-anchor="start" x="1521" y="-106" font-family="Helvetica,sans-Serif" font-size="10.00">/home/runner/work/cbmc</text>
<text text-anchor="start" x="1521" y="-95" font-family="Helvetica,sans-Serif" font-size="10.00">/cbmc/jbmc/unit/java&#45;testing</text>
<text text-anchor="middle" x="1591" y="-84" font-family="Helvetica,sans-Serif" font-size="10.00">&#45;utils/load_java_class.cpp</text>
</a>
</g>
</g>
<!-- Node1&#45;&gt;Node14 -->
<g id="edge15_Node000001_Node000014" class="edge">
<title>Node1&#45;&gt;Node14</title>
<g id="a_edge15_Node000001_Node000014"><a xlink:title=" ">
<path fill="none" stroke="#63b8ff" d="M993.48,-168.69C1112.22,-161.68 1324.38,-146.28 1504,-118 1506.91,-117.54 1509.86,-117.05 1512.84,-116.52"/>
<polygon fill="#63b8ff" stroke="#63b8ff" points="993.12,-165.21 983.34,-169.29 993.53,-172.2 993.12,-165.21"/>
</a>
</g>
</g>
<!-- Node3&#45;&gt;Node2 -->
<g id="edge4_Node000003_Node000002" class="edge">
<title>Node3&#45;&gt;Node2</title>
<g id="a_edge4_Node000003_Node000002"><a xlink:title=" ">
<path fill="none" stroke="#63b8ff" d="M146.07,-70.82C132.88,-61.11 118.08,-50.24 105.75,-41.17"/>
<polygon fill="#63b8ff" stroke="#63b8ff" points="144.34,-73.89 154.47,-76.99 148.48,-68.25 144.34,-73.89"/>
</a>
</g>
</g>
<!-- Node4 -->
<g id="Node000004" class="node">
<title>Node4</title>
<g id="a_Node000004"><a xlink:href="janalyzer__main_8cpp.html" target="_top" xlink:title="JANALYZER Main Module.">
<polygon fill="white" stroke="#666666" points="314,-41 176,-41 176,0 314,0 314,-41"/>
<text text-anchor="start" x="184" y="-29" font-family="Helvetica,sans-Serif" font-size="10.00">/home/runner/work/cbmc</text>
<text text-anchor="start" x="184" y="-18" font-family="Helvetica,sans-Serif" font-size="10.00">/cbmc/jbmc/src/janalyzer</text>
<text text-anchor="middle" x="245" y="-7" font-family="Helvetica,sans-Serif" font-size="10.00">/janalyzer_main.cpp</text>
</a>
</g>
</g>
<!-- Node3&#45;&gt;Node4 -->
<g id="edge3_Node000003_Node000004" class="edge">
<title>Node3&#45;&gt;Node4</title>
<g id="a_edge3_Node000003_Node000004"><a xlink:title=" ">
<path fill="none" stroke="#63b8ff" d="M204.51,-68.95C212.4,-59.7 221.04,-49.58 228.3,-41.07"/>
<polygon fill="#63b8ff" stroke="#63b8ff" points="201.64,-66.92 197.82,-76.79 206.97,-71.46 201.64,-66.92"/>
</a>
</g>
</g>
<!-- Node10&#45;&gt;Node9 -->
<g id="edge12_Node000010_Node000009" class="edge">
<title>Node10&#45;&gt;Node9</title>
<g id="a_edge12_Node000010_Node000009"><a xlink:title=" ">
<path fill="none" stroke="#63b8ff" d="M1076.75,-70.82C1063.82,-61.11 1049.32,-50.24 1037.23,-41.17"/>
<polygon fill="#63b8ff" stroke="#63b8ff" points="1074.89,-73.79 1084.99,-76.99 1079.09,-68.19 1074.89,-73.79"/>
</a>
</g>
</g>
<!-- Node11 -->
<g id="Node000011" class="node">
<title>Node11</title>
<g id="a_Node000011"><a xlink:href="jbmc__main_8cpp.html" target="_top" xlink:title="CBMC Main Module.">
<polygon fill="white" stroke="#666666" points="1245,-41 1101,-41 1101,0 1245,0 1245,-41"/>
<text text-anchor="start" x="1109" y="-29" font-family="Helvetica,sans-Serif" font-size="10.00">/home/runner/work/cbmc</text>
<text text-anchor="start" x="1109" y="-18" font-family="Helvetica,sans-Serif" font-size="10.00">/cbmc/jbmc/src/jbmc/jbmc</text>
<text text-anchor="middle" x="1173" y="-7" font-family="Helvetica,sans-Serif" font-size="10.00">_main.cpp</text>
</a>
</g>
</g>
<!-- Node10&#45;&gt;Node11 -->
<g id="edge11_Node000010_Node000011" class="edge">
<title>Node10&#45;&gt;Node11</title>
<g id="a_edge11_Node000010_Node000011"><a xlink:title=" ">
<path fill="none" stroke="#63b8ff" d="M1133.77,-68.95C1141.42,-59.7 1149.78,-49.58 1156.82,-41.07"/>
<polygon fill="#63b8ff" stroke="#63b8ff" points="1130.96,-66.86 1127.29,-76.79 1136.36,-71.32 1130.96,-66.86"/>
</a>
</g>
</g>
</g>
</svg>
