<?xml version="1.0" encoding="UTF-8" standalone="no"?>
<!DOCTYPE svg PUBLIC "-//W3C//DTD SVG 1.1//EN"
 "http://www.w3.org/Graphics/SVG/1.1/DTD/svg11.dtd">
<!-- Generated by graphviz version 2.43.0 (0)
 -->
<!-- Title: /home/runner/work/cbmc/cbmc/src/util/journalling_symbol_table.h Pages: 1 -->
<svg width="1107pt" height="764pt"
 viewBox="0.00 0.00 1106.50 764.00" xmlns="http://www.w3.org/2000/svg" xmlns:xlink="http://www.w3.org/1999/xlink">
<g id="graph0" class="graph" transform="scale(1 1) rotate(0) translate(4 760)">
<title>/home/runner/work/cbmc/cbmc/src/util/journalling_symbol_table.h</title>
<!-- Node1 -->
<g id="Node000001" class="node">
<title>Node1</title>
<g id="a_Node000001"><a xlink:title="Author: Diffblue Ltd.">
<polygon fill="#999999" stroke="#666666" points="849,-756 711,-756 711,-715 849,-715 849,-756"/>
<text text-anchor="start" x="719" y="-744" font-family="Helvetica,sans-Serif" font-size="10.00">/home/runner/work/cbmc</text>
<text text-anchor="start" x="719" y="-733" font-family="Helvetica,sans-Serif" font-size="10.00">/cbmc/src/util/journalling</text>
<text text-anchor="middle" x="780" y="-722" font-family="Helvetica,sans-Serif" font-size="10.00">_symbol_table.h</text>
</a>
</g>
</g>
<!-- Node2 -->
<g id="Node000002" class="node">
<title>Node2</title>
<g id="a_Node000002"><a xlink:href="irep_8h.html" target="_top" xlink:title=" ">
<polygon fill="white" stroke="#666666" points="615,-294 571,-294 571,-275 615,-275 615,-294"/>
<text text-anchor="middle" x="593" y="-282" font-family="Helvetica,sans-Serif" font-size="10.00">irep.h</text>
</a>
</g>
</g>
<!-- Node1&#45;&gt;Node2 -->
<g id="edge1_Node000001_Node000002" class="edge">
<title>Node1&#45;&gt;Node2</title>
<g id="a_edge1_Node000001_Node000002"><a xlink:title=" ">
<path fill="none" stroke="#63b8ff" d="M710.96,-720.96C687.93,-712.8 664.68,-699.77 651,-679 607.64,-613.15 688,-584.35 688,-505.5 688,-505.5 688,-505.5 688,-393.5 688,-350.91 645.84,-317.14 617.69,-299.33"/>
<polygon fill="#63b8ff" stroke="#63b8ff" points="619.48,-296.32 609.12,-294.12 615.84,-302.31 619.48,-296.32"/>
</a>
</g>
</g>
<!-- Node25 -->
<g id="Node000025" class="node">
<title>Node25</title>
<g id="a_Node000025"><a xlink:href="symbol__table__base_8h.html" target="_top" xlink:title="Author: Diffblue Ltd.">
<polygon fill="white" stroke="#666666" points="780,-679 660,-679 660,-660 780,-660 780,-679"/>
<text text-anchor="middle" x="720" y="-667" font-family="Helvetica,sans-Serif" font-size="10.00">symbol_table_base.h</text>
</a>
</g>
</g>
<!-- Node1&#45;&gt;Node25 -->
<g id="edge32_Node000001_Node000025" class="edge">
<title>Node1&#45;&gt;Node25</title>
<g id="a_edge32_Node000001_Node000025"><a xlink:title=" ">
<path fill="none" stroke="#63b8ff" d="M761.67,-714.95C753.21,-705.92 743.28,-695.33 735.24,-686.75"/>
<polygon fill="#63b8ff" stroke="#63b8ff" points="737.61,-684.16 728.21,-679.26 732.5,-688.95 737.61,-684.16"/>
</a>
</g>
</g>
<!-- Node39 -->
<g id="Node000039" class="node">
<title>Node39</title>
<g id="a_Node000039"><a xlink:title=" ">
<polygon fill="#e0e0e0" stroke="#999999" points="884,-679 798,-679 798,-660 884,-660 884,-679"/>
<text text-anchor="middle" x="841" y="-667" font-family="Helvetica,sans-Serif" font-size="10.00">unordered_set</text>
</a>
</g>
</g>
<!-- Node1&#45;&gt;Node39 -->
<g id="edge60_Node000001_Node000039" class="edge">
<title>Node1&#45;&gt;Node39</title>
<g id="a_edge60_Node000001_Node000039"><a xlink:title=" ">
<path fill="none" stroke="#63b8ff" d="M798.63,-714.95C807.24,-705.92 817.33,-695.33 825.51,-686.75"/>
<polygon fill="#63b8ff" stroke="#63b8ff" points="828.28,-688.91 832.65,-679.26 823.22,-684.08 828.28,-688.91"/>
</a>
</g>
</g>
<!-- Node40 -->
<g id="Node000040" class="node">
<title>Node40</title>
<g id="a_Node000040"><a xlink:title=" ">
<polygon fill="#e0e0e0" stroke="#999999" points="947.5,-679 902.5,-679 902.5,-660 947.5,-660 947.5,-679"/>
<text text-anchor="middle" x="925" y="-667" font-family="Helvetica,sans-Serif" font-size="10.00">utility</text>
</a>
</g>
</g>
<!-- Node1&#45;&gt;Node40 -->
<g id="edge61_Node000001_Node000040" class="edge">
<title>Node1&#45;&gt;Node40</title>
<g id="a_edge61_Node000001_Node000040"><a xlink:title=" ">
<path fill="none" stroke="#63b8ff" d="M824.29,-714.95C847.73,-704.6 875.83,-692.2 896.38,-683.13"/>
<polygon fill="#63b8ff" stroke="#63b8ff" points="897.8,-686.33 905.53,-679.09 894.97,-679.93 897.8,-686.33"/>
</a>
</g>
</g>
<!-- Node3 -->
<g id="Node000003" class="node">
<title>Node3</title>
<g id="a_Node000003"><a xlink:title=" ">
<polygon fill="#e0e0e0" stroke="#999999" points="566,-19 522,-19 522,0 566,0 566,-19"/>
<text text-anchor="middle" x="544" y="-7" font-family="Helvetica,sans-Serif" font-size="10.00">string</text>
</a>
</g>
</g>
<!-- Node2&#45;&gt;Node3 -->
<g id="edge2_Node000002_Node000003" class="edge">
<title>Node2&#45;&gt;Node3</title>
<g id="a_edge2_Node000002_Node000003"><a xlink:title=" ">
<path fill="none" stroke="#63b8ff" d="M591.71,-274.86C588.78,-255.28 581.27,-206.03 574,-165 565.29,-115.83 553.73,-58.13 547.82,-29.14"/>
<polygon fill="#63b8ff" stroke="#63b8ff" points="551.22,-28.29 545.79,-19.19 544.36,-29.69 551.22,-28.29"/>
</a>
</g>
</g>
<!-- Node4 -->
<g id="Node000004" class="node">
<title>Node4</title>
<g id="a_Node000004"><a xlink:title=" ">
<polygon fill="#e0e0e0" stroke="#999999" points="1098.5,-74 1051.5,-74 1051.5,-55 1098.5,-55 1098.5,-74"/>
<text text-anchor="middle" x="1075" y="-62" font-family="Helvetica,sans-Serif" font-size="10.00">vector</text>
</a>
</g>
</g>
<!-- Node2&#45;&gt;Node4 -->
<g id="edge3_Node000002_Node000004" class="edge">
<title>Node2&#45;&gt;Node4</title>
<g id="a_edge3_Node000002_Node000004"><a xlink:title=" ">
<path fill="none" stroke="#63b8ff" d="M615.16,-282.48C663.52,-279.72 781.66,-270.09 875,-239 974.22,-205.96 1029.04,-218.58 1083,-129 1091.23,-115.33 1087.71,-97.02 1083.03,-83.57"/>
<polygon fill="#63b8ff" stroke="#63b8ff" points="1086.18,-82.01 1079.23,-74.01 1079.67,-84.59 1086.18,-82.01"/>
</a>
</g>
</g>
<!-- Node5 -->
<g id="Node000005" class="node">
<title>Node5</title>
<g id="a_Node000005"><a xlink:href="src_2util_2invariant_8h.html" target="_top" xlink:title=" ">
<polygon fill="white" stroke="#666666" points="215.5,-129 146.5,-129 146.5,-110 215.5,-110 215.5,-129"/>
<text text-anchor="middle" x="181" y="-117" font-family="Helvetica,sans-Serif" font-size="10.00">invariant.h</text>
</a>
</g>
</g>
<!-- Node2&#45;&gt;Node5 -->
<g id="edge4_Node000002_Node000005" class="edge">
<title>Node2&#45;&gt;Node5</title>
<g id="a_edge4_Node000002_Node000005"><a xlink:title=" ">
<path fill="none" stroke="#63b8ff" d="M570.81,-282.84C529.17,-280.8 437.34,-272.54 369,-239 324.03,-216.93 326.38,-191.69 284,-165 262.75,-151.62 236.79,-140.43 216.24,-132.62"/>
<polygon fill="#63b8ff" stroke="#63b8ff" points="217.23,-129.25 206.64,-129.06 214.8,-135.82 217.23,-129.25"/>
</a>
</g>
</g>
<!-- Node9 -->
<g id="Node000009" class="node">
<title>Node9</title>
<g id="a_Node000009"><a xlink:href="irep__ids_8h.html" target="_top" xlink:title="util">
<polygon fill="white" stroke="#666666" points="866,-239 802,-239 802,-220 866,-220 866,-239"/>
<text text-anchor="middle" x="834" y="-227" font-family="Helvetica,sans-Serif" font-size="10.00">irep_ids.h</text>
</a>
</g>
</g>
<!-- Node2&#45;&gt;Node9 -->
<g id="edge9_Node000002_Node000009" class="edge">
<title>Node2&#45;&gt;Node9</title>
<g id="a_edge9_Node000002_Node000009"><a xlink:title=" ">
<path fill="none" stroke="#63b8ff" d="M615.24,-278.61C655.44,-269.77 740.79,-251 792.19,-239.69"/>
<polygon fill="#63b8ff" stroke="#63b8ff" points="792.98,-243.1 802,-237.54 791.48,-236.27 792.98,-243.1"/>
</a>
</g>
</g>
<!-- Node20 -->
<g id="Node000020" class="node">
<title>Node20</title>
<g id="a_Node000020"><a xlink:href="forward__list__as__map_8h.html" target="_top" xlink:title=" ">
<polygon fill="white" stroke="#666666" points="504.5,-239 377.5,-239 377.5,-220 504.5,-220 504.5,-239"/>
<text text-anchor="middle" x="441" y="-227" font-family="Helvetica,sans-Serif" font-size="10.00">forward_list_as_map.h</text>
</a>
</g>
</g>
<!-- Node2&#45;&gt;Node20 -->
<g id="edge25_Node000002_Node000020" class="edge">
<title>Node2&#45;&gt;Node20</title>
<g id="a_edge25_Node000002_Node000020"><a xlink:title=" ">
<path fill="none" stroke="#63b8ff" d="M570.9,-275.79C545.78,-267.04 504.49,-252.64 475.2,-242.43"/>
<polygon fill="#63b8ff" stroke="#63b8ff" points="475.99,-238.99 465.39,-239.01 473.68,-245.6 475.99,-238.99"/>
</a>
</g>
</g>
<!-- Node5&#45;&gt;Node3 -->
<g id="edge7_Node000005_Node000003" class="edge">
<title>Node5&#45;&gt;Node3</title>
<g id="a_edge7_Node000005_Node000003"><a xlink:title=" ">
<path fill="none" stroke="#63b8ff" d="M176.83,-109.87C170.99,-96.37 162.5,-70.23 176,-55 198.13,-30.03 425.9,-16.31 511.62,-12"/>
<polygon fill="#63b8ff" stroke="#63b8ff" points="511.99,-15.49 521.81,-11.5 511.65,-8.5 511.99,-15.49"/>
</a>
</g>
</g>
<!-- Node6 -->
<g id="Node000006" class="node">
<title>Node6</title>
<g id="a_Node000006"><a xlink:title=" ">
<polygon fill="#e0e0e0" stroke="#999999" points="233.5,-74 184.5,-74 184.5,-55 233.5,-55 233.5,-74"/>
<text text-anchor="middle" x="209" y="-62" font-family="Helvetica,sans-Serif" font-size="10.00">cstdlib</text>
</a>
</g>
</g>
<!-- Node5&#45;&gt;Node6 -->
<g id="edge5_Node000005_Node000006" class="edge">
<title>Node5&#45;&gt;Node6</title>
<g id="a_edge5_Node000005_Node000006"><a xlink:title=" ">
<path fill="none" stroke="#63b8ff" d="M185.62,-109.75C189.46,-102.49 195.02,-91.95 199.76,-82.98"/>
<polygon fill="#63b8ff" stroke="#63b8ff" points="202.89,-84.57 204.46,-74.09 196.7,-81.3 202.89,-84.57"/>
</a>
</g>
</g>
<!-- Node7 -->
<g id="Node000007" class="node">
<title>Node7</title>
<g id="a_Node000007"><a xlink:title=" ">
<polygon fill="#e0e0e0" stroke="#999999" points="308,-74 252,-74 252,-55 308,-55 308,-74"/>
<text text-anchor="middle" x="280" y="-62" font-family="Helvetica,sans-Serif" font-size="10.00">sstream</text>
</a>
</g>
</g>
<!-- Node5&#45;&gt;Node7 -->
<g id="edge6_Node000005_Node000007" class="edge">
<title>Node5&#45;&gt;Node7</title>
<g id="a_edge6_Node000005_Node000007"><a xlink:title=" ">
<path fill="none" stroke="#63b8ff" d="M196.91,-109.98C212.55,-101.61 236.66,-88.7 254.88,-78.95"/>
<polygon fill="#63b8ff" stroke="#63b8ff" points="256.64,-81.98 263.8,-74.17 253.34,-75.8 256.64,-81.98"/>
</a>
</g>
</g>
<!-- Node8 -->
<g id="Node000008" class="node">
<title>Node8</title>
<g id="a_Node000008"><a xlink:title=" ">
<polygon fill="#e0e0e0" stroke="#999999" points="395.5,-74 326.5,-74 326.5,-55 395.5,-55 395.5,-74"/>
<text text-anchor="middle" x="361" y="-62" font-family="Helvetica,sans-Serif" font-size="10.00">type_traits</text>
</a>
</g>
</g>
<!-- Node5&#45;&gt;Node8 -->
<g id="edge8_Node000005_Node000008" class="edge">
<title>Node5&#45;&gt;Node8</title>
<g id="a_edge8_Node000005_Node000008"><a xlink:title=" ">
<path fill="none" stroke="#63b8ff" d="M209.92,-109.98C240.27,-101.05 288.17,-86.94 321.88,-77.02"/>
<polygon fill="#63b8ff" stroke="#63b8ff" points="323.25,-80.26 331.85,-74.08 321.27,-73.55 323.25,-80.26"/>
</a>
</g>
</g>
<!-- Node10 -->
<g id="Node000010" class="node">
<title>Node10</title>
<g id="a_Node000010"><a xlink:href="dstring_8h.html" target="_top" xlink:title="Container for C&#45;Strings.">
<polygon fill="white" stroke="#666666" points="953.5,-184 894.5,-184 894.5,-165 953.5,-165 953.5,-184"/>
<text text-anchor="middle" x="924" y="-172" font-family="Helvetica,sans-Serif" font-size="10.00">dstring.h</text>
</a>
</g>
</g>
<!-- Node9&#45;&gt;Node10 -->
<g id="edge10_Node000009_Node000010" class="edge">
<title>Node9&#45;&gt;Node10</title>
<g id="a_edge10_Node000009_Node000010"><a xlink:title=" ">
<path fill="none" stroke="#63b8ff" d="M848.46,-219.98C862.42,-211.77 883.79,-199.18 900.25,-189.49"/>
<polygon fill="#63b8ff" stroke="#63b8ff" points="902.44,-192.26 909.28,-184.17 898.88,-186.23 902.44,-192.26"/>
</a>
</g>
</g>
<!-- Node19 -->
<g id="Node000019" class="node">
<title>Node19</title>
<g id="a_Node000019"><a xlink:title=" ">
<polygon fill="#e0e0e0" stroke="#999999" points="871,-184 797,-184 797,-165 871,-165 871,-184"/>
<text text-anchor="middle" x="834" y="-172" font-family="Helvetica,sans-Serif" font-size="10.00">irep_ids.def</text>
</a>
</g>
</g>
<!-- Node9&#45;&gt;Node19 -->
<g id="edge24_Node000009_Node000019" class="edge">
<title>Node9&#45;&gt;Node19</title>
<g id="a_edge24_Node000009_Node000019"><a xlink:title=" ">
<path fill="none" stroke="#63b8ff" d="M834,-219.75C834,-212.8 834,-202.85 834,-194.13"/>
<polygon fill="#63b8ff" stroke="#63b8ff" points="837.5,-194.09 834,-184.09 830.5,-194.09 837.5,-194.09"/>
</a>
</g>
</g>
<!-- Node10&#45;&gt;Node3 -->
<g id="edge12_Node000010_Node000003" class="edge">
<title>Node10&#45;&gt;Node3</title>
<g id="a_edge12_Node000010_Node000003"><a xlink:title=" ">
<path fill="none" stroke="#63b8ff" d="M926.68,-164.97C934.12,-140.57 953.51,-71.24 939,-55 914.94,-28.08 666.32,-15.44 576.31,-11.72"/>
<polygon fill="#63b8ff" stroke="#63b8ff" points="576.28,-8.21 566.14,-11.31 575.99,-15.21 576.28,-8.21"/>
</a>
</g>
</g>
<!-- Node11 -->
<g id="Node000011" class="node">
<title>Node11</title>
<g id="a_Node000011"><a xlink:title=" ">
<polygon fill="#e0e0e0" stroke="#999999" points="1074,-129 1026,-129 1026,-110 1074,-110 1074,-129"/>
<text text-anchor="middle" x="1050" y="-117" font-family="Helvetica,sans-Serif" font-size="10.00">iosfwd</text>
</a>
</g>
</g>
<!-- Node10&#45;&gt;Node11 -->
<g id="edge11_Node000010_Node000011" class="edge">
<title>Node10&#45;&gt;Node11</title>
<g id="a_edge11_Node000010_Node000011"><a xlink:title=" ">
<path fill="none" stroke="#63b8ff" d="M944.24,-164.98C964.7,-156.38 996.53,-142.99 1019.93,-133.15"/>
<polygon fill="#63b8ff" stroke="#63b8ff" points="1021.53,-136.27 1029.39,-129.17 1018.81,-129.82 1021.53,-136.27"/>
</a>
</g>
</g>
<!-- Node12 -->
<g id="Node000012" class="node">
<title>Node12</title>
<g id="a_Node000012"><a xlink:href="magic_8h.html" target="_top" xlink:title="Magic numbers used throughout the codebase.">
<polygon fill="white" stroke="#666666" points="1008,-129 952,-129 952,-110 1008,-110 1008,-129"/>
<text text-anchor="middle" x="980" y="-117" font-family="Helvetica,sans-Serif" font-size="10.00">magic.h</text>
</a>
</g>
</g>
<!-- Node10&#45;&gt;Node12 -->
<g id="edge13_Node000010_Node000012" class="edge">
<title>Node10&#45;&gt;Node12</title>
<g id="a_edge13_Node000010_Node000012"><a xlink:title=" ">
<path fill="none" stroke="#63b8ff" d="M933,-164.98C941.19,-157.23 953.51,-145.58 963.47,-136.14"/>
<polygon fill="#63b8ff" stroke="#63b8ff" points="965.98,-138.59 970.84,-129.17 961.17,-133.5 965.98,-138.59"/>
</a>
</g>
</g>
<!-- Node14 -->
<g id="Node000014" class="node">
<title>Node14</title>
<g id="a_Node000014"><a xlink:href="string__container_8h.html" target="_top" xlink:title="Container for C&#45;Strings.">
<polygon fill="white" stroke="#666666" points="896,-129 792,-129 792,-110 896,-110 896,-129"/>
<text text-anchor="middle" x="844" y="-117" font-family="Helvetica,sans-Serif" font-size="10.00">string_container.h</text>
</a>
</g>
</g>
<!-- Node10&#45;&gt;Node14 -->
<g id="edge15_Node000010_Node000014" class="edge">
<title>Node10&#45;&gt;Node14</title>
<g id="a_edge15_Node000010_Node000014"><a xlink:title=" ">
<path fill="none" stroke="#63b8ff" d="M911.15,-164.98C898.86,-156.84 880.09,-144.41 865.52,-134.76"/>
<polygon fill="#63b8ff" stroke="#63b8ff" points="867.36,-131.78 857.09,-129.17 863.49,-137.61 867.36,-131.78"/>
</a>
</g>
</g>
<!-- Node13 -->
<g id="Node000013" class="node">
<title>Node13</title>
<g id="a_Node000013"><a xlink:title=" ">
<polygon fill="#e0e0e0" stroke="#999999" points="965.5,-19 912.5,-19 912.5,0 965.5,0 965.5,-19"/>
<text text-anchor="middle" x="939" y="-7" font-family="Helvetica,sans-Serif" font-size="10.00">cstddef</text>
</a>
</g>
</g>
<!-- Node12&#45;&gt;Node13 -->
<g id="edge14_Node000012_Node000013" class="edge">
<title>Node12&#45;&gt;Node13</title>
<g id="a_edge14_Node000012_Node000013"><a xlink:title=" ">
<path fill="none" stroke="#63b8ff" d="M980.27,-109.94C980.38,-97.41 979.45,-73.56 972,-55 967.9,-44.77 960.86,-34.79 954.33,-26.88"/>
<polygon fill="#63b8ff" stroke="#63b8ff" points="956.83,-24.42 947.61,-19.19 951.56,-29.02 956.83,-24.42"/>
</a>
</g>
</g>
<!-- Node14&#45;&gt;Node4 -->
<g id="edge18_Node000014_Node000004" class="edge">
<title>Node14&#45;&gt;Node4</title>
<g id="a_edge18_Node000014_Node000004"><a xlink:title=" ">
<path fill="none" stroke="#63b8ff" d="M881.11,-109.98C925.41,-99.82 998.85,-82.97 1041.49,-73.19"/>
<polygon fill="#63b8ff" stroke="#63b8ff" points="1042.41,-76.57 1051.38,-70.92 1040.85,-69.74 1042.41,-76.57"/>
</a>
</g>
</g>
<!-- Node15 -->
<g id="Node000015" class="node">
<title>Node15</title>
<g id="a_Node000015"><a xlink:title=" ">
<polygon fill="#e0e0e0" stroke="#999999" points="716,-74 684,-74 684,-55 716,-55 716,-74"/>
<text text-anchor="middle" x="700" y="-62" font-family="Helvetica,sans-Serif" font-size="10.00">list</text>
</a>
</g>
</g>
<!-- Node14&#45;&gt;Node15 -->
<g id="edge16_Node000014_Node000015" class="edge">
<title>Node14&#45;&gt;Node15</title>
<g id="a_edge16_Node000014_Node000015"><a xlink:title=" ">
<path fill="none" stroke="#63b8ff" d="M820.86,-109.98C794.92,-100.44 752.95,-84.99 725.92,-75.04"/>
<polygon fill="#63b8ff" stroke="#63b8ff" points="726.95,-71.69 716.36,-71.52 724.54,-78.26 726.95,-71.69"/>
</a>
</g>
</g>
<!-- Node16 -->
<g id="Node000016" class="node">
<title>Node16</title>
<g id="a_Node000016"><a xlink:title=" ">
<polygon fill="#e0e0e0" stroke="#999999" points="665.5,-74 572.5,-74 572.5,-55 665.5,-55 665.5,-74"/>
<text text-anchor="middle" x="619" y="-62" font-family="Helvetica,sans-Serif" font-size="10.00">unordered_map</text>
</a>
</g>
</g>
<!-- Node14&#45;&gt;Node16 -->
<g id="edge17_Node000014_Node000016" class="edge">
<title>Node14&#45;&gt;Node16</title>
<g id="a_edge17_Node000014_Node000016"><a xlink:title=" ">
<path fill="none" stroke="#63b8ff" d="M807.85,-109.98C769.09,-100.86 707.45,-86.33 665.2,-76.38"/>
<polygon fill="#63b8ff" stroke="#63b8ff" points="665.97,-72.97 655.43,-74.08 664.36,-79.78 665.97,-72.97"/>
</a>
</g>
</g>
<!-- Node17 -->
<g id="Node000017" class="node">
<title>Node17</title>
<g id="a_Node000017"><a xlink:href="memory__units_8h.html" target="_top" xlink:title=" ">
<polygon fill="white" stroke="#666666" points="930,-74 834,-74 834,-55 930,-55 930,-74"/>
<text text-anchor="middle" x="882" y="-62" font-family="Helvetica,sans-Serif" font-size="10.00">memory_units.h</text>
</a>
</g>
</g>
<!-- Node14&#45;&gt;Node17 -->
<g id="edge19_Node000014_Node000017" class="edge">
<title>Node14&#45;&gt;Node17</title>
<g id="a_edge19_Node000014_Node000017"><a xlink:title=" ">
<path fill="none" stroke="#63b8ff" d="M850.27,-109.75C855.59,-102.34 863.36,-91.5 869.88,-82.41"/>
<polygon fill="#63b8ff" stroke="#63b8ff" points="872.86,-84.26 875.84,-74.09 867.17,-80.18 872.86,-84.26"/>
</a>
</g>
</g>
<!-- Node18 -->
<g id="Node000018" class="node">
<title>Node18</title>
<g id="a_Node000018"><a xlink:href="string__hash_8h.html" target="_top" xlink:title="string hashing">
<polygon fill="white" stroke="#666666" points="816,-74 734,-74 734,-55 816,-55 816,-74"/>
<text text-anchor="middle" x="775" y="-62" font-family="Helvetica,sans-Serif" font-size="10.00">string_hash.h</text>
</a>
</g>
</g>
<!-- Node14&#45;&gt;Node18 -->
<g id="edge22_Node000014_Node000018" class="edge">
<title>Node14&#45;&gt;Node18</title>
<g id="a_edge22_Node000014_Node000018"><a xlink:title=" ">
<path fill="none" stroke="#63b8ff" d="M832.91,-109.98C822.51,-102 806.74,-89.88 794.28,-80.31"/>
<polygon fill="#63b8ff" stroke="#63b8ff" points="796.35,-77.49 786.29,-74.17 792.09,-83.04 796.35,-77.49"/>
</a>
</g>
</g>
<!-- Node17&#45;&gt;Node3 -->
<g id="edge21_Node000017_Node000003" class="edge">
<title>Node17&#45;&gt;Node3</title>
<g id="a_edge21_Node000017_Node000003"><a xlink:title=" ">
<path fill="none" stroke="#63b8ff" d="M833.93,-55.96C763.95,-44.99 635.89,-24.91 576.2,-15.55"/>
<polygon fill="#63b8ff" stroke="#63b8ff" points="576.64,-12.08 566.22,-13.98 575.56,-18.99 576.64,-12.08"/>
</a>
</g>
</g>
<!-- Node17&#45;&gt;Node13 -->
<g id="edge20_Node000017_Node000013" class="edge">
<title>Node17&#45;&gt;Node13</title>
<g id="a_edge20_Node000017_Node000013"><a xlink:title=" ">
<path fill="none" stroke="#63b8ff" d="M891.16,-54.98C899.5,-47.23 912.03,-35.58 922.18,-26.14"/>
<polygon fill="#63b8ff" stroke="#63b8ff" points="924.74,-28.54 929.68,-19.17 919.97,-23.42 924.74,-28.54"/>
</a>
</g>
</g>
<!-- Node18&#45;&gt;Node3 -->
<g id="edge23_Node000018_Node000003" class="edge">
<title>Node18&#45;&gt;Node3</title>
<g id="a_edge23_Node000018_Node000003"><a xlink:title=" ">
<path fill="none" stroke="#63b8ff" d="M737.89,-54.98C693,-44.69 618.2,-27.52 575.82,-17.8"/>
<polygon fill="#63b8ff" stroke="#63b8ff" points="576.57,-14.38 566.04,-15.56 575,-21.2 576.57,-14.38"/>
</a>
</g>
</g>
<!-- Node21 -->
<g id="Node000021" class="node">
<title>Node21</title>
<g id="a_Node000021"><a xlink:title=" ">
<polygon fill="#e0e0e0" stroke="#999999" points="473,-184 409,-184 409,-165 473,-165 473,-184"/>
<text text-anchor="middle" x="441" y="-172" font-family="Helvetica,sans-Serif" font-size="10.00">algorithm</text>
</a>
</g>
</g>
<!-- Node20&#45;&gt;Node21 -->
<g id="edge26_Node000020_Node000021" class="edge">
<title>Node20&#45;&gt;Node21</title>
<g id="a_edge26_Node000020_Node000021"><a xlink:title=" ">
<path fill="none" stroke="#63b8ff" d="M441,-219.75C441,-212.8 441,-202.85 441,-194.13"/>
<polygon fill="#63b8ff" stroke="#63b8ff" points="444.5,-194.09 441,-184.09 437.5,-194.09 444.5,-194.09"/>
</a>
</g>
</g>
<!-- Node22 -->
<g id="Node000022" class="node">
<title>Node22</title>
<g id="a_Node000022"><a xlink:title=" ">
<polygon fill="#e0e0e0" stroke="#999999" points="565,-184 491,-184 491,-165 565,-165 565,-184"/>
<text text-anchor="middle" x="528" y="-172" font-family="Helvetica,sans-Serif" font-size="10.00">forward_list</text>
</a>
</g>
</g>
<!-- Node20&#45;&gt;Node22 -->
<g id="edge27_Node000020_Node000022" class="edge">
<title>Node20&#45;&gt;Node22</title>
<g id="a_edge27_Node000020_Node000022"><a xlink:title=" ">
<path fill="none" stroke="#63b8ff" d="M454.98,-219.98C468.47,-211.77 489.13,-199.18 505.04,-189.49"/>
<polygon fill="#63b8ff" stroke="#63b8ff" points="507.05,-192.36 513.77,-184.17 503.41,-186.38 507.05,-192.36"/>
</a>
</g>
</g>
<!-- Node23 -->
<g id="Node000023" class="node">
<title>Node23</title>
<g id="a_Node000023"><a xlink:href="as__const_8h.html" target="_top" xlink:title=" ">
<polygon fill="white" stroke="#666666" points="275,-184 207,-184 207,-165 275,-165 275,-184"/>
<text text-anchor="middle" x="241" y="-172" font-family="Helvetica,sans-Serif" font-size="10.00">as_const.h</text>
</a>
</g>
</g>
<!-- Node20&#45;&gt;Node23 -->
<g id="edge28_Node000020_Node000023" class="edge">
<title>Node20&#45;&gt;Node23</title>
<g id="a_edge28_Node000020_Node000023"><a xlink:title=" ">
<path fill="none" stroke="#63b8ff" d="M408.87,-219.98C374.85,-210.97 321,-196.7 283.5,-186.76"/>
<polygon fill="#63b8ff" stroke="#63b8ff" points="283.95,-183.26 273.39,-184.08 282.16,-190.03 283.95,-183.26"/>
</a>
</g>
</g>
<!-- Node24 -->
<g id="Node000024" class="node">
<title>Node24</title>
<g id="a_Node000024"><a xlink:href="narrow_8h.html" target="_top" xlink:title=" ">
<polygon fill="white" stroke="#666666" points="390.5,-184 331.5,-184 331.5,-165 390.5,-165 390.5,-184"/>
<text text-anchor="middle" x="361" y="-172" font-family="Helvetica,sans-Serif" font-size="10.00">narrow.h</text>
</a>
</g>
</g>
<!-- Node20&#45;&gt;Node24 -->
<g id="edge29_Node000020_Node000024" class="edge">
<title>Node20&#45;&gt;Node24</title>
<g id="a_edge29_Node000020_Node000024"><a xlink:title=" ">
<path fill="none" stroke="#63b8ff" d="M428.15,-219.98C415.86,-211.84 397.09,-199.41 382.52,-189.76"/>
<polygon fill="#63b8ff" stroke="#63b8ff" points="384.36,-186.78 374.09,-184.17 380.49,-192.61 384.36,-186.78"/>
</a>
</g>
</g>
<!-- Node24&#45;&gt;Node5 -->
<g id="edge31_Node000024_Node000005" class="edge">
<title>Node24&#45;&gt;Node5</title>
<g id="a_edge31_Node000024_Node000005"><a xlink:title=" ">
<path fill="none" stroke="#63b8ff" d="M332.08,-164.98C301.73,-156.05 253.83,-141.94 220.12,-132.02"/>
<polygon fill="#63b8ff" stroke="#63b8ff" points="220.73,-128.55 210.15,-129.08 218.75,-135.26 220.73,-128.55"/>
</a>
</g>
</g>
<!-- Node24&#45;&gt;Node8 -->
<g id="edge30_Node000024_Node000008" class="edge">
<title>Node24&#45;&gt;Node8</title>
<g id="a_edge30_Node000024_Node000008"><a xlink:title=" ">
<path fill="none" stroke="#63b8ff" d="M361,-164.66C361,-147.17 361,-107.8 361,-84.27"/>
<polygon fill="#63b8ff" stroke="#63b8ff" points="364.5,-84.16 361,-74.16 357.5,-84.16 364.5,-84.16"/>
</a>
</g>
</g>
<!-- Node25&#45;&gt;Node15 -->
<g id="edge57_Node000025_Node000015" class="edge">
<title>Node25&#45;&gt;Node15</title>
<g id="a_edge57_Node000025_Node000015"><a xlink:title=" ">
<path fill="none" stroke="#63b8ff" d="M726.3,-659.75C738.47,-641.98 764,-599.98 764,-560.5 764,-560.5 764,-560.5 764,-173.5 764,-136.53 735.9,-101.14 716.94,-81.46"/>
<polygon fill="#63b8ff" stroke="#63b8ff" points="719.27,-78.84 709.72,-74.26 714.33,-83.8 719.27,-78.84"/>
</a>
</g>
</g>
<!-- Node25&#45;&gt;Node16 -->
<g id="edge59_Node000025_Node000016" class="edge">
<title>Node25&#45;&gt;Node16</title>
<g id="a_edge59_Node000025_Node000016"><a xlink:title=" ">
<path fill="none" stroke="#63b8ff" d="M720.81,-659.83C722.45,-641.51 726,-597.49 726,-560.5 726,-560.5 726,-560.5 726,-173.5 726,-128.77 679.11,-95.93 647.41,-78.84"/>
<polygon fill="#63b8ff" stroke="#63b8ff" points="648.62,-75.53 638.13,-74.05 645.41,-81.75 648.62,-75.53"/>
</a>
</g>
</g>
<!-- Node26 -->
<g id="Node000026" class="node">
<title>Node26</title>
<g id="a_Node000026"><a xlink:href="symbol_8h.html" target="_top" xlink:title="Symbol table entry.">
<polygon fill="white" stroke="#666666" points="535,-624 473,-624 473,-605 535,-605 535,-624"/>
<text text-anchor="middle" x="504" y="-612" font-family="Helvetica,sans-Serif" font-size="10.00">symbol.h</text>
</a>
</g>
</g>
<!-- Node25&#45;&gt;Node26 -->
<g id="edge33_Node000025_Node000026" class="edge">
<title>Node25&#45;&gt;Node26</title>
<g id="a_edge33_Node000025_Node000026"><a xlink:title=" ">
<path fill="none" stroke="#63b8ff" d="M685.3,-659.98C647.04,-650.6 585.54,-635.51 544.96,-625.55"/>
<polygon fill="#63b8ff" stroke="#63b8ff" points="545.66,-622.12 535.11,-623.13 543.99,-628.92 545.66,-622.12"/>
</a>
</g>
</g>
<!-- Node38 -->
<g id="Node000038" class="node">
<title>Node38</title>
<g id="a_Node000038"><a xlink:title=" ">
<polygon fill="#e0e0e0" stroke="#999999" points="698,-624 660,-624 660,-605 698,-605 698,-624"/>
<text text-anchor="middle" x="679" y="-612" font-family="Helvetica,sans-Serif" font-size="10.00">map</text>
</a>
</g>
</g>
<!-- Node25&#45;&gt;Node38 -->
<g id="edge58_Node000025_Node000038" class="edge">
<title>Node25&#45;&gt;Node38</title>
<g id="a_edge58_Node000025_Node000038"><a xlink:title=" ">
<path fill="none" stroke="#63b8ff" d="M713.23,-659.75C707.44,-652.26 698.94,-641.28 691.86,-632.13"/>
<polygon fill="#63b8ff" stroke="#63b8ff" points="694.53,-629.86 685.64,-624.09 688.99,-634.14 694.53,-629.86"/>
</a>
</g>
</g>
<!-- Node26&#45;&gt;Node5 -->
<g id="edge56_Node000026_Node000005" class="edge">
<title>Node26&#45;&gt;Node5</title>
<g id="a_edge56_Node000026_Node000005"><a xlink:title=" ">
<path fill="none" stroke="#63b8ff" d="M472.85,-613.51C362.97,-612.71 0,-602.7 0,-505.5 0,-505.5 0,-505.5 0,-283.5 0,-205.04 95.08,-154.69 147.42,-132.91"/>
<polygon fill="#63b8ff" stroke="#63b8ff" points="149,-136.05 156.96,-129.06 146.38,-129.56 149,-136.05"/>
</a>
</g>
</g>
<!-- Node26&#45;&gt;Node11 -->
<g id="edge34_Node000026_Node000011" class="edge">
<title>Node26&#45;&gt;Node11</title>
<g id="a_edge34_Node000026_Node000011"><a xlink:title=" ">
<path fill="none" stroke="#63b8ff" d="M535.32,-605.49C578.22,-592.42 650,-562.09 650,-505.5 650,-505.5 650,-505.5 650,-448.5 650,-423.64 949.36,-196.32 1030.13,-135.44"/>
<polygon fill="#63b8ff" stroke="#63b8ff" points="1032.58,-137.98 1038.46,-129.16 1028.37,-132.38 1032.58,-137.98"/>
</a>
</g>
</g>
<!-- Node27 -->
<g id="Node000027" class="node">
<title>Node27</title>
<g id="a_Node000027"><a xlink:href="expr_8h.html" target="_top" xlink:title=" ">
<polygon fill="white" stroke="#666666" points="458.5,-569 411.5,-569 411.5,-550 458.5,-550 458.5,-569"/>
<text text-anchor="middle" x="435" y="-557" font-family="Helvetica,sans-Serif" font-size="10.00">expr.h</text>
</a>
</g>
</g>
<!-- Node26&#45;&gt;Node27 -->
<g id="edge35_Node000026_Node000027" class="edge">
<title>Node26&#45;&gt;Node27</title>
<g id="a_edge35_Node000026_Node000027"><a xlink:title=" ">
<path fill="none" stroke="#63b8ff" d="M492.91,-604.98C482.51,-597 466.74,-584.88 454.28,-575.31"/>
<polygon fill="#63b8ff" stroke="#63b8ff" points="456.35,-572.49 446.29,-569.17 452.09,-578.04 456.35,-572.49"/>
</a>
</g>
</g>
<!-- Node27&#45;&gt;Node23 -->
<g id="edge36_Node000027_Node000023" class="edge">
<title>Node27&#45;&gt;Node23</title>
<g id="a_edge36_Node000027_Node000023"><a xlink:title=" ">
<path fill="none" stroke="#63b8ff" d="M411.43,-550.68C394.66,-543.81 373.19,-532.03 362,-514 305.77,-423.4 386.2,-371.58 341,-275 323.69,-238.02 286.52,-207.01 262.7,-189.88"/>
<polygon fill="#63b8ff" stroke="#63b8ff" points="264.49,-186.86 254.29,-184 260.48,-192.6 264.49,-186.86"/>
</a>
</g>
</g>
<!-- Node28 -->
<g id="Node000028" class="node">
<title>Node28</title>
<g id="a_Node000028"><a xlink:href="type_8h.html" target="_top" xlink:title="Defines typet, type_with_subtypet and type_with_subtypest.">
<polygon fill="white" stroke="#666666" points="313.5,-514 266.5,-514 266.5,-495 313.5,-495 313.5,-514"/>
<text text-anchor="middle" x="290" y="-502" font-family="Helvetica,sans-Serif" font-size="10.00">type.h</text>
</a>
</g>
</g>
<!-- Node27&#45;&gt;Node28 -->
<g id="edge37_Node000027_Node000028" class="edge">
<title>Node27&#45;&gt;Node28</title>
<g id="a_edge37_Node000027_Node000028"><a xlink:title=" ">
<path fill="none" stroke="#63b8ff" d="M411.7,-549.98C387.75,-541.23 350.22,-527.51 323.17,-517.62"/>
<polygon fill="#63b8ff" stroke="#63b8ff" points="324.31,-514.32 313.72,-514.17 321.91,-520.89 324.31,-514.32"/>
</a>
</g>
</g>
<!-- Node34 -->
<g id="Node000034" class="node">
<title>Node34</title>
<g id="a_Node000034"><a xlink:href="validation__mode_8h.html" target="_top" xlink:title=" ">
<polygon fill="white" stroke="#666666" points="291.5,-404 184.5,-404 184.5,-385 291.5,-385 291.5,-404"/>
<text text-anchor="middle" x="238" y="-392" font-family="Helvetica,sans-Serif" font-size="10.00">validation_mode.h</text>
</a>
</g>
</g>
<!-- Node27&#45;&gt;Node34 -->
<g id="edge54_Node000027_Node000034" class="edge">
<title>Node27&#45;&gt;Node34</title>
<g id="a_edge54_Node000027_Node000034"><a xlink:title=" ">
<path fill="none" stroke="#63b8ff" d="M411.21,-555.74C367.88,-550.2 278.64,-536.34 258,-514 232.84,-486.77 232.97,-440.24 235.41,-414.33"/>
<polygon fill="#63b8ff" stroke="#63b8ff" points="238.89,-414.65 236.57,-404.31 231.94,-413.84 238.89,-414.65"/>
</a>
</g>
</g>
<!-- Node35 -->
<g id="Node000035" class="node">
<title>Node35</title>
<g id="a_Node000035"><a xlink:href="validate__types_8h.html" target="_top" xlink:title=" ">
<polygon fill="white" stroke="#666666" points="531,-459 433,-459 433,-440 531,-440 531,-459"/>
<text text-anchor="middle" x="482" y="-447" font-family="Helvetica,sans-Serif" font-size="10.00">validate_types.h</text>
</a>
</g>
</g>
<!-- Node27&#45;&gt;Node35 -->
<g id="edge53_Node000027_Node000035" class="edge">
<title>Node27&#45;&gt;Node35</title>
<g id="a_edge53_Node000027_Node000035"><a xlink:title=" ">
<path fill="none" stroke="#63b8ff" d="M458.64,-551.33C475.98,-544.68 498.3,-532.92 509,-514 517.71,-498.6 507.39,-479.84 497.09,-466.72"/>
<polygon fill="#63b8ff" stroke="#63b8ff" points="499.68,-464.36 490.53,-459 494.34,-468.89 499.68,-464.36"/>
</a>
</g>
</g>
<!-- Node36 -->
<g id="Node000036" class="node">
<title>Node36</title>
<g id="a_Node000036"><a xlink:href="validate__expressions_8h.html" target="_top" xlink:title=" ">
<polygon fill="white" stroke="#666666" points="499.5,-514 370.5,-514 370.5,-495 499.5,-495 499.5,-514"/>
<text text-anchor="middle" x="435" y="-502" font-family="Helvetica,sans-Serif" font-size="10.00">validate_expressions.h</text>
</a>
</g>
</g>
<!-- Node27&#45;&gt;Node36 -->
<g id="edge52_Node000027_Node000036" class="edge">
<title>Node27&#45;&gt;Node36</title>
<g id="a_edge52_Node000027_Node000036"><a xlink:title=" ">
<path fill="none" stroke="#63b8ff" d="M435,-549.75C435,-542.8 435,-532.85 435,-524.13"/>
<polygon fill="#63b8ff" stroke="#63b8ff" points="438.5,-524.09 435,-514.09 431.5,-524.09 438.5,-524.09"/>
</a>
</g>
</g>
<!-- Node37 -->
<g id="Node000037" class="node">
<title>Node37</title>
<g id="a_Node000037"><a xlink:title=" ">
<polygon fill="#e0e0e0" stroke="#999999" points="621.5,-514 556.5,-514 556.5,-495 621.5,-495 621.5,-514"/>
<text text-anchor="middle" x="589" y="-502" font-family="Helvetica,sans-Serif" font-size="10.00">functional</text>
</a>
</g>
</g>
<!-- Node27&#45;&gt;Node37 -->
<g id="edge55_Node000027_Node000037" class="edge">
<title>Node27&#45;&gt;Node37</title>
<g id="a_edge55_Node000027_Node000037"><a xlink:title=" ">
<path fill="none" stroke="#63b8ff" d="M458.73,-550.33C484.31,-541.53 525.29,-527.43 554.45,-517.39"/>
<polygon fill="#63b8ff" stroke="#63b8ff" points="555.91,-520.59 564.23,-514.03 553.63,-513.97 555.91,-520.59"/>
</a>
</g>
</g>
<!-- Node29 -->
<g id="Node000029" class="node">
<title>Node29</title>
<g id="a_Node000029"><a xlink:href="source__location_8h.html" target="_top" xlink:title=" ">
<polygon fill="white" stroke="#666666" points="308,-349 206,-349 206,-330 308,-330 308,-349"/>
<text text-anchor="middle" x="257" y="-337" font-family="Helvetica,sans-Serif" font-size="10.00">source_location.h</text>
</a>
</g>
</g>
<!-- Node28&#45;&gt;Node29 -->
<g id="edge38_Node000028_Node000029" class="edge">
<title>Node28&#45;&gt;Node29</title>
<g id="a_edge38_Node000028_Node000029"><a xlink:title=" ">
<path fill="none" stroke="#63b8ff" d="M293.49,-494.76C301,-474.56 316.78,-423.41 301,-385 296.19,-373.31 286.67,-363.05 277.7,-355.34"/>
<polygon fill="#63b8ff" stroke="#63b8ff" points="279.77,-352.51 269.78,-349 275.4,-357.98 279.77,-352.51"/>
</a>
</g>
</g>
<!-- Node32 -->
<g id="Node000032" class="node">
<title>Node32</title>
<g id="a_Node000032"><a xlink:href="validate_8h.html" target="_top" xlink:title=" ">
<polygon fill="white" stroke="#666666" points="198.5,-459 133.5,-459 133.5,-440 198.5,-440 198.5,-459"/>
<text text-anchor="middle" x="166" y="-447" font-family="Helvetica,sans-Serif" font-size="10.00">validate.h</text>
</a>
</g>
</g>
<!-- Node28&#45;&gt;Node32 -->
<g id="edge43_Node000028_Node000032" class="edge">
<title>Node28&#45;&gt;Node32</title>
<g id="a_edge43_Node000028_Node000032"><a xlink:title=" ">
<path fill="none" stroke="#63b8ff" d="M270.08,-494.98C249.95,-486.38 218.62,-472.99 195.59,-463.15"/>
<polygon fill="#63b8ff" stroke="#63b8ff" points="196.86,-459.88 186.29,-459.17 194.1,-466.32 196.86,-459.88"/>
</a>
</g>
</g>
<!-- Node28&#45;&gt;Node34 -->
<g id="edge51_Node000028_Node000034" class="edge">
<title>Node28&#45;&gt;Node34</title>
<g id="a_edge51_Node000028_Node000034"><a xlink:title=" ">
<path fill="none" stroke="#63b8ff" d="M285.74,-494.66C277.21,-476.93 257.85,-436.73 246.58,-413.32"/>
<polygon fill="#63b8ff" stroke="#63b8ff" points="249.66,-411.65 242.17,-404.16 243.35,-414.69 249.66,-411.65"/>
</a>
</g>
</g>
<!-- Node28&#45;&gt;Node35 -->
<g id="edge50_Node000028_Node000035" class="edge">
<title>Node28&#45;&gt;Node35</title>
<g id="a_edge50_Node000028_Node000035"><a xlink:title=" ">
<path fill="none" stroke="#63b8ff" d="M313.54,-497C345.26,-488.25 402.19,-472.53 441.01,-461.82"/>
<polygon fill="#63b8ff" stroke="#63b8ff" points="442.24,-465.11 450.95,-459.07 440.38,-458.36 442.24,-465.11"/>
</a>
</g>
</g>
<!-- Node29&#45;&gt;Node2 -->
<g id="edge40_Node000029_Node000002" class="edge">
<title>Node29&#45;&gt;Node2</title>
<g id="a_edge40_Node000029_Node000002"><a xlink:title=" ">
<path fill="none" stroke="#63b8ff" d="M308.03,-330.45C378.2,-319.38 502.41,-299.79 560.88,-290.57"/>
<polygon fill="#63b8ff" stroke="#63b8ff" points="561.67,-293.99 571,-288.97 560.58,-287.07 561.67,-293.99"/>
</a>
</g>
</g>
<!-- Node29&#45;&gt;Node3 -->
<g id="edge42_Node000029_Node000003" class="edge">
<title>Node29&#45;&gt;Node3</title>
<g id="a_edge42_Node000029_Node000003"><a xlink:title=" ">
<path fill="none" stroke="#63b8ff" d="M226.84,-329.91C185.96,-316.21 118,-285.2 118,-230.5 118,-230.5 118,-230.5 118,-118.5 118,-83.39 134.62,-72.61 165,-55 223.7,-20.98 431.05,-12.91 511.63,-11.05"/>
<polygon fill="#63b8ff" stroke="#63b8ff" points="511.77,-14.54 521.7,-10.83 511.62,-7.55 511.77,-14.54"/>
</a>
</g>
</g>
<!-- Node30 -->
<g id="Node000030" class="node">
<title>Node30</title>
<g id="a_Node000030"><a xlink:href="deprecate_8h.html" target="_top" xlink:title=" ">
<polygon fill="white" stroke="#666666" points="332,-294 258,-294 258,-275 332,-275 332,-294"/>
<text text-anchor="middle" x="295" y="-282" font-family="Helvetica,sans-Serif" font-size="10.00">deprecate.h</text>
</a>
</g>
</g>
<!-- Node29&#45;&gt;Node30 -->
<g id="edge39_Node000029_Node000030" class="edge">
<title>Node29&#45;&gt;Node30</title>
<g id="a_edge39_Node000029_Node000030"><a xlink:title=" ">
<path fill="none" stroke="#63b8ff" d="M263.27,-329.75C268.59,-322.34 276.36,-311.5 282.88,-302.41"/>
<polygon fill="#63b8ff" stroke="#63b8ff" points="285.86,-304.26 288.84,-294.09 280.17,-300.18 285.86,-304.26"/>
</a>
</g>
</g>
<!-- Node31 -->
<g id="Node000031" class="node">
<title>Node31</title>
<g id="a_Node000031"><a xlink:title=" ">
<polygon fill="#e0e0e0" stroke="#999999" points="240,-294 184,-294 184,-275 240,-275 240,-294"/>
<text text-anchor="middle" x="212" y="-282" font-family="Helvetica,sans-Serif" font-size="10.00">optional</text>
</a>
</g>
</g>
<!-- Node29&#45;&gt;Node31 -->
<g id="edge41_Node000029_Node000031" class="edge">
<title>Node29&#45;&gt;Node31</title>
<g id="a_edge41_Node000029_Node000031"><a xlink:title=" ">
<path fill="none" stroke="#63b8ff" d="M249.57,-329.75C243.15,-322.18 233.69,-311.05 225.88,-301.84"/>
<polygon fill="#63b8ff" stroke="#63b8ff" points="228.43,-299.45 219.29,-294.09 223.1,-303.98 228.43,-299.45"/>
</a>
</g>
</g>
<!-- Node32&#45;&gt;Node8 -->
<g id="edge44_Node000032_Node000008" class="edge">
<title>Node32&#45;&gt;Node8</title>
<g id="a_edge44_Node000032_Node000008"><a xlink:title=" ">
<path fill="none" stroke="#63b8ff" d="M164.24,-439.83C157.2,-402.73 134.47,-255.05 198,-165 229.32,-120.61 287.32,-92.28 325.02,-77.64"/>
<polygon fill="#63b8ff" stroke="#63b8ff" points="326.48,-80.83 334.61,-74.04 324.02,-74.28 326.48,-80.83"/>
</a>
</g>
</g>
<!-- Node33 -->
<g id="Node000033" class="node">
<title>Node33</title>
<g id="a_Node000033"><a xlink:href="exception__utils_8h.html" target="_top" xlink:title=" ">
<polygon fill="white" stroke="#666666" points="128,-404 28,-404 28,-385 128,-385 128,-404"/>
<text text-anchor="middle" x="78" y="-392" font-family="Helvetica,sans-Serif" font-size="10.00">exception_utils.h</text>
</a>
</g>
</g>
<!-- Node32&#45;&gt;Node33 -->
<g id="edge45_Node000032_Node000033" class="edge">
<title>Node32&#45;&gt;Node33</title>
<g id="a_edge45_Node000032_Node000033"><a xlink:title=" ">
<path fill="none" stroke="#63b8ff" d="M151.86,-439.98C138.21,-431.77 117.31,-419.18 101.22,-409.49"/>
<polygon fill="#63b8ff" stroke="#63b8ff" points="102.77,-406.33 92.4,-404.17 99.16,-412.33 102.77,-406.33"/>
</a>
</g>
</g>
<!-- Node32&#45;&gt;Node34 -->
<g id="edge49_Node000032_Node000034" class="edge">
<title>Node32&#45;&gt;Node34</title>
<g id="a_edge49_Node000032_Node000034"><a xlink:title=" ">
<path fill="none" stroke="#63b8ff" d="M177.57,-439.98C188.42,-432 204.88,-419.88 217.88,-410.31"/>
<polygon fill="#63b8ff" stroke="#63b8ff" points="220.24,-412.92 226.22,-404.17 216.09,-407.28 220.24,-412.92"/>
</a>
</g>
</g>
<!-- Node33&#45;&gt;Node3 -->
<g id="edge46_Node000033_Node000003" class="edge">
<title>Node33&#45;&gt;Node3</title>
<g id="a_edge46_Node000033_Node000003"><a xlink:title=" ">
<path fill="none" stroke="#63b8ff" d="M75.8,-384.98C64.81,-340.19 20.71,-131.28 133,-55 194.56,-13.18 426.09,-9.91 511.82,-10.18"/>
<polygon fill="#63b8ff" stroke="#63b8ff" points="511.98,-13.68 521.99,-10.23 512.01,-6.68 511.98,-13.68"/>
</a>
</g>
</g>
<!-- Node33&#45;&gt;Node5 -->
<g id="edge47_Node000033_Node000005" class="edge">
<title>Node33&#45;&gt;Node5</title>
<g id="a_edge47_Node000033_Node000005"><a xlink:title=" ">
<path fill="none" stroke="#63b8ff" d="M78.27,-384.82C78.82,-366.48 80,-322.44 80,-285.5 80,-285.5 80,-285.5 80,-228.5 80,-184.76 124.74,-151.41 154.66,-133.99"/>
<polygon fill="#63b8ff" stroke="#63b8ff" points="156.39,-137.03 163.41,-129.1 152.97,-130.92 156.39,-137.03"/>
</a>
</g>
</g>
<!-- Node33&#45;&gt;Node29 -->
<g id="edge48_Node000033_Node000029" class="edge">
<title>Node33&#45;&gt;Node29</title>
<g id="a_edge48_Node000033_Node000029"><a xlink:title=" ">
<path fill="none" stroke="#63b8ff" d="M106.76,-384.98C136.94,-376.05 184.57,-361.94 218.1,-352.02"/>
<polygon fill="#63b8ff" stroke="#63b8ff" points="219.42,-355.28 228.02,-349.08 217.43,-348.57 219.42,-355.28"/>
</a>
</g>
</g>
</g>
</svg>
