<?xml version="1.0" encoding="UTF-8" standalone="no"?>
<!DOCTYPE svg PUBLIC "-//W3C//DTD SVG 1.1//EN"
 "http://www.w3.org/Graphics/SVG/1.1/DTD/svg11.dtd">
<!-- Generated by graphviz version 2.43.0 (0)
 -->
<!-- Title: /home/runner/work/cbmc/cbmc/src/util/json_irep.h Pages: 1 -->
<svg width="3072pt" height="280pt"
 viewBox="0.00 0.00 3072.00 280.00" xmlns="http://www.w3.org/2000/svg" xmlns:xlink="http://www.w3.org/1999/xlink">
<g id="graph0" class="graph" transform="scale(1 1) rotate(0) translate(4 276)">
<title>/home/runner/work/cbmc/cbmc/src/util/json_irep.h</title>
<!-- Node1 -->
<g id="Node000001" class="node">
<title>Node1</title>
<g id="a_Node000001"><a xlink:title="Util.">
<polygon fill="#999999" stroke="#666666" points="1530,-272 1392,-272 1392,-242 1530,-242 1530,-272"/>
<text text-anchor="start" x="1400" y="-260" font-family="Helvetica,sans-Serif" font-size="10.00">/home/runner/work/cbmc</text>
<text text-anchor="middle" x="1461" y="-249" font-family="Helvetica,sans-Serif" font-size="10.00">/cbmc/src/util/json_irep.h</text>
</a>
</g>
</g>
<!-- Node2 -->
<g id="Node000002" class="node">
<title>Node2</title>
<g id="a_Node000002"><a xlink:href="dependence__graph_8cpp.html" target="_top" xlink:title="Field&#45;Sensitive Program Dependence Analysis, Litvak et al., FSE 2010.">
<polygon fill="white" stroke="#666666" points="172,-200.5 0,-200.5 0,-159.5 172,-159.5 172,-200.5"/>
<text text-anchor="start" x="8" y="-188.5" font-family="Helvetica,sans-Serif" font-size="10.00">/home/runner/work/cbmc</text>
<text text-anchor="start" x="8" y="-177.5" font-family="Helvetica,sans-Serif" font-size="10.00">/cbmc/src/analyses/dependence</text>
<text text-anchor="middle" x="86" y="-166.5" font-family="Helvetica,sans-Serif" font-size="10.00">_graph.cpp</text>
</a>
</g>
</g>
<!-- Node1&#45;&gt;Node2 -->
<g id="edge1_Node000001_Node000002" class="edge">
<title>Node1&#45;&gt;Node2</title>
<g id="a_edge1_Node000001_Node000002"><a xlink:title=" ">
<path fill="none" stroke="#63b8ff" d="M1381.49,-255.16C1139.5,-252.26 414.24,-240.82 181,-206 171.81,-204.63 162.22,-202.71 152.83,-200.53"/>
<polygon fill="#63b8ff" stroke="#63b8ff" points="1381.58,-258.67 1391.62,-255.28 1381.66,-251.67 1381.58,-258.67"/>
</a>
</g>
</g>
<!-- Node3 -->
<g id="Node000003" class="node">
<title>Node3</title>
<g id="a_Node000003"><a xlink:href="variable__sensitivity__dependence__graph_8cpp.html" target="_top" xlink:title=" ">
<polygon fill="white" stroke="#666666" points="360,-206 190,-206 190,-154 360,-154 360,-206"/>
<text text-anchor="start" x="198" y="-194" font-family="Helvetica,sans-Serif" font-size="10.00">/home/runner/work/cbmc</text>
<text text-anchor="start" x="198" y="-183" font-family="Helvetica,sans-Serif" font-size="10.00">/cbmc/src/analyses/variable</text>
<text text-anchor="start" x="198" y="-172" font-family="Helvetica,sans-Serif" font-size="10.00">&#45;sensitivity/variable_sensitivity</text>
<text text-anchor="middle" x="275" y="-161" font-family="Helvetica,sans-Serif" font-size="10.00">_dependence_graph.cpp</text>
</a>
</g>
</g>
<!-- Node1&#45;&gt;Node3 -->
<g id="edge2_Node000001_Node000003" class="edge">
<title>Node1&#45;&gt;Node3</title>
<g id="a_edge2_Node000001_Node000003"><a xlink:title=" ">
<path fill="none" stroke="#63b8ff" d="M1381.8,-254.57C1164.88,-250.32 564.37,-236.1 369,-206 366.08,-205.55 363.12,-205.04 360.14,-204.49"/>
<polygon fill="#63b8ff" stroke="#63b8ff" points="1381.77,-258.07 1391.83,-254.77 1381.9,-251.08 1381.77,-258.07"/>
</a>
</g>
</g>
<!-- Node4 -->
<g id="Node000004" class="node">
<title>Node4</title>
<g id="a_Node000004"><a xlink:href="static__verifier_8cpp.html" target="_top" xlink:title=" ">
<polygon fill="white" stroke="#666666" points="516,-200.5 378,-200.5 378,-159.5 516,-159.5 516,-200.5"/>
<text text-anchor="start" x="386" y="-188.5" font-family="Helvetica,sans-Serif" font-size="10.00">/home/runner/work/cbmc</text>
<text text-anchor="start" x="386" y="-177.5" font-family="Helvetica,sans-Serif" font-size="10.00">/cbmc/src/goto&#45;analyzer</text>
<text text-anchor="middle" x="447" y="-166.5" font-family="Helvetica,sans-Serif" font-size="10.00">/static_verifier.cpp</text>
</a>
</g>
</g>
<!-- Node1&#45;&gt;Node4 -->
<g id="edge3_Node000001_Node000004" class="edge">
<title>Node1&#45;&gt;Node4</title>
<g id="a_edge3_Node000001_Node000004"><a xlink:title=" ">
<path fill="none" stroke="#63b8ff" d="M1381.67,-254.38C1186.77,-249.97 688.43,-236.04 525,-206 517.45,-204.61 509.61,-202.7 501.95,-200.54"/>
<polygon fill="#63b8ff" stroke="#63b8ff" points="1381.76,-257.88 1391.84,-254.6 1381.92,-250.88 1381.76,-257.88"/>
</a>
</g>
</g>
<!-- Node5 -->
<g id="Node000005" class="node">
<title>Node5</title>
<g id="a_Node000005"><a xlink:href="unreachable__instructions_8cpp.html" target="_top" xlink:title="List all unreachable instructions.">
<polygon fill="white" stroke="#666666" points="696,-200.5 534,-200.5 534,-159.5 696,-159.5 696,-200.5"/>
<text text-anchor="start" x="542" y="-188.5" font-family="Helvetica,sans-Serif" font-size="10.00">/home/runner/work/cbmc</text>
<text text-anchor="start" x="542" y="-177.5" font-family="Helvetica,sans-Serif" font-size="10.00">/cbmc/src/goto&#45;analyzer</text>
<text text-anchor="middle" x="615" y="-166.5" font-family="Helvetica,sans-Serif" font-size="10.00">/unreachable_instructions.cpp</text>
</a>
</g>
</g>
<!-- Node1&#45;&gt;Node5 -->
<g id="edge4_Node000001_Node000005" class="edge">
<title>Node1&#45;&gt;Node5</title>
<g id="a_edge4_Node000001_Node000005"><a xlink:title=" ">
<path fill="none" stroke="#63b8ff" d="M1381.82,-256.08C1243.51,-255.03 949.32,-247.56 705,-206 696.53,-204.56 687.7,-202.64 679.04,-200.51"/>
<polygon fill="#63b8ff" stroke="#63b8ff" points="1381.89,-259.58 1391.91,-256.14 1381.93,-252.58 1381.89,-259.58"/>
</a>
</g>
</g>
<!-- Node6 -->
<g id="Node000006" class="node">
<title>Node6</title>
<g id="a_Node000006"><a xlink:href="cover__goals__report__util_8cpp.html" target="_top" xlink:title="Cover Goals Reporting Utilities.">
<polygon fill="white" stroke="#666666" points="868,-200.5 714,-200.5 714,-159.5 868,-159.5 868,-200.5"/>
<text text-anchor="start" x="722" y="-188.5" font-family="Helvetica,sans-Serif" font-size="10.00">/home/runner/work/cbmc</text>
<text text-anchor="start" x="722" y="-177.5" font-family="Helvetica,sans-Serif" font-size="10.00">/cbmc/src/goto&#45;checker</text>
<text text-anchor="middle" x="791" y="-166.5" font-family="Helvetica,sans-Serif" font-size="10.00">/cover_goals_report_util.cpp</text>
</a>
</g>
</g>
<!-- Node1&#45;&gt;Node6 -->
<g id="edge5_Node000001_Node000006" class="edge">
<title>Node1&#45;&gt;Node6</title>
<g id="a_edge5_Node000001_Node000006"><a xlink:title=" ">
<path fill="none" stroke="#63b8ff" d="M1381.34,-254.15C1268.3,-250.41 1055.26,-239.2 877,-206 869.05,-204.52 860.78,-202.61 852.65,-200.5"/>
<polygon fill="#63b8ff" stroke="#63b8ff" points="1381.52,-257.66 1391.63,-254.48 1381.75,-250.66 1381.52,-257.66"/>
</a>
</g>
</g>
<!-- Node7 -->
<g id="Node000007" class="node">
<title>Node7</title>
<g id="a_Node000007"><a xlink:href="properties_8cpp.html" target="_top" xlink:title="Properties.">
<polygon fill="white" stroke="#666666" points="1024,-200.5 886,-200.5 886,-159.5 1024,-159.5 1024,-200.5"/>
<text text-anchor="start" x="894" y="-188.5" font-family="Helvetica,sans-Serif" font-size="10.00">/home/runner/work/cbmc</text>
<text text-anchor="start" x="894" y="-177.5" font-family="Helvetica,sans-Serif" font-size="10.00">/cbmc/src/goto&#45;checker</text>
<text text-anchor="middle" x="955" y="-166.5" font-family="Helvetica,sans-Serif" font-size="10.00">/properties.cpp</text>
</a>
</g>
</g>
<!-- Node1&#45;&gt;Node7 -->
<g id="edge6_Node000001_Node000007" class="edge">
<title>Node1&#45;&gt;Node7</title>
<g id="a_edge6_Node000001_Node000007"><a xlink:title=" ">
<path fill="none" stroke="#63b8ff" d="M1381.75,-250.79C1296.25,-244.21 1156.44,-230.64 1038,-206 1030.63,-204.47 1022.98,-202.58 1015.43,-200.53"/>
<polygon fill="#63b8ff" stroke="#63b8ff" points="1381.67,-254.29 1391.9,-251.56 1382.2,-247.31 1381.67,-254.29"/>
</a>
</g>
</g>
<!-- Node8 -->
<g id="Node000008" class="node">
<title>Node8</title>
<g id="a_Node000008"><a xlink:href="report__util_8cpp.html" target="_top" xlink:title="Bounded Model Checking Utilities.">
<polygon fill="white" stroke="#666666" points="1062,-118 924,-118 924,-77 1062,-77 1062,-118"/>
<text text-anchor="start" x="932" y="-106" font-family="Helvetica,sans-Serif" font-size="10.00">/home/runner/work/cbmc</text>
<text text-anchor="start" x="932" y="-95" font-family="Helvetica,sans-Serif" font-size="10.00">/cbmc/src/goto&#45;checker</text>
<text text-anchor="middle" x="993" y="-84" font-family="Helvetica,sans-Serif" font-size="10.00">/report_util.cpp</text>
</a>
</g>
</g>
<!-- Node1&#45;&gt;Node8 -->
<g id="edge7_Node000001_Node000008" class="edge">
<title>Node1&#45;&gt;Node8</title>
<g id="a_edge7_Node000001_Node000008"><a xlink:title=" ">
<path fill="none" stroke="#63b8ff" d="M1381.65,-253.19C1283.16,-248.45 1121.97,-236.23 1071,-206 1070.42,-205.66 1029.51,-149.06 1007.18,-118.14"/>
<polygon fill="#63b8ff" stroke="#63b8ff" points="1381.71,-256.7 1391.86,-253.66 1382.03,-249.7 1381.71,-256.7"/>
</a>
</g>
</g>
<!-- Node9 -->
<g id="Node000009" class="node">
<title>Node9</title>
<g id="a_Node000009"><a xlink:href="goto__diff__base_8cpp.html" target="_top" xlink:title="GOTO&#45;DIFF Base Class.">
<polygon fill="white" stroke="#666666" points="1218,-200.5 1080,-200.5 1080,-159.5 1218,-159.5 1218,-200.5"/>
<text text-anchor="start" x="1088" y="-188.5" font-family="Helvetica,sans-Serif" font-size="10.00">/home/runner/work/cbmc</text>
<text text-anchor="start" x="1088" y="-177.5" font-family="Helvetica,sans-Serif" font-size="10.00">/cbmc/src/goto&#45;diff/goto</text>
<text text-anchor="middle" x="1149" y="-166.5" font-family="Helvetica,sans-Serif" font-size="10.00">_diff_base.cpp</text>
</a>
</g>
</g>
<!-- Node1&#45;&gt;Node9 -->
<g id="edge8_Node000001_Node000009" class="edge">
<title>Node1&#45;&gt;Node9</title>
<g id="a_edge8_Node000001_Node000009"><a xlink:title=" ">
<path fill="none" stroke="#63b8ff" d="M1382.15,-241.19C1336.55,-232.12 1278.24,-219.65 1227,-206 1220.82,-204.35 1214.4,-202.51 1208.01,-200.6"/>
<polygon fill="#63b8ff" stroke="#63b8ff" points="1381.48,-244.62 1391.97,-243.13 1382.84,-237.76 1381.48,-244.62"/>
</a>
</g>
</g>
<!-- Node10 -->
<g id="Node000010" class="node">
<title>Node10</title>
<g id="a_Node000010"><a xlink:href="json__goto__trace_8h.html" target="_top" xlink:title="Traces of GOTO Programs.">
<polygon fill="white" stroke="#666666" points="1374,-200.5 1236,-200.5 1236,-159.5 1374,-159.5 1374,-200.5"/>
<text text-anchor="start" x="1244" y="-188.5" font-family="Helvetica,sans-Serif" font-size="10.00">/home/runner/work/cbmc</text>
<text text-anchor="start" x="1244" y="-177.5" font-family="Helvetica,sans-Serif" font-size="10.00">/cbmc/src/goto&#45;programs</text>
<text text-anchor="middle" x="1305" y="-166.5" font-family="Helvetica,sans-Serif" font-size="10.00">/json_goto_trace.h</text>
</a>
</g>
</g>
<!-- Node1&#45;&gt;Node10 -->
<g id="edge9_Node000001_Node000010" class="edge">
<title>Node1&#45;&gt;Node10</title>
<g id="a_edge9_Node000001_Node000010"><a xlink:title=" ">
<path fill="none" stroke="#63b8ff" d="M1422.41,-237.45C1399.09,-226.23 1369.38,-211.95 1345.69,-200.56"/>
<polygon fill="#63b8ff" stroke="#63b8ff" points="1421.13,-240.71 1431.66,-241.89 1424.16,-234.41 1421.13,-240.71"/>
</a>
</g>
</g>
<!-- Node17 -->
<g id="Node000017" class="node">
<title>Node17</title>
<g id="a_Node000017"><a xlink:href="loop__ids_8cpp.html" target="_top" xlink:title="Loop IDs.">
<polygon fill="white" stroke="#666666" points="1530,-200.5 1392,-200.5 1392,-159.5 1530,-159.5 1530,-200.5"/>
<text text-anchor="start" x="1400" y="-188.5" font-family="Helvetica,sans-Serif" font-size="10.00">/home/runner/work/cbmc</text>
<text text-anchor="start" x="1400" y="-177.5" font-family="Helvetica,sans-Serif" font-size="10.00">/cbmc/src/goto&#45;programs</text>
<text text-anchor="middle" x="1461" y="-166.5" font-family="Helvetica,sans-Serif" font-size="10.00">/loop_ids.cpp</text>
</a>
</g>
</g>
<!-- Node1&#45;&gt;Node17 -->
<g id="edge18_Node000001_Node000017" class="edge">
<title>Node1&#45;&gt;Node17</title>
<g id="a_edge18_Node000001_Node000017"><a xlink:title=" ">
<path fill="none" stroke="#63b8ff" d="M1461,-231.73C1461,-221.7 1461,-210.21 1461,-200.7"/>
<polygon fill="#63b8ff" stroke="#63b8ff" points="1457.5,-231.89 1461,-241.89 1464.5,-231.89 1457.5,-231.89"/>
</a>
</g>
</g>
<!-- Node18 -->
<g id="Node000018" class="node">
<title>Node18</title>
<g id="a_Node000018"><a xlink:href="show__goto__functions__json_8cpp.html" target="_top" xlink:title="Goto Program.">
<polygon fill="white" stroke="#666666" points="1716,-200.5 1548,-200.5 1548,-159.5 1716,-159.5 1716,-200.5"/>
<text text-anchor="start" x="1556" y="-188.5" font-family="Helvetica,sans-Serif" font-size="10.00">/home/runner/work/cbmc</text>
<text text-anchor="start" x="1556" y="-177.5" font-family="Helvetica,sans-Serif" font-size="10.00">/cbmc/src/goto&#45;programs</text>
<text text-anchor="middle" x="1632" y="-166.5" font-family="Helvetica,sans-Serif" font-size="10.00">/show_goto_functions_json.cpp</text>
</a>
</g>
</g>
<!-- Node1&#45;&gt;Node18 -->
<g id="edge19_Node000001_Node000018" class="edge">
<title>Node1&#45;&gt;Node18</title>
<g id="a_edge19_Node000001_Node000018"><a xlink:title=" ">
<path fill="none" stroke="#63b8ff" d="M1502.62,-237.75C1528.29,-226.49 1561.19,-212.06 1587.4,-200.56"/>
<polygon fill="#63b8ff" stroke="#63b8ff" points="1500.92,-234.67 1493.16,-241.89 1503.73,-241.08 1500.92,-234.67"/>
</a>
</g>
</g>
<!-- Node19 -->
<g id="Node000019" class="node">
<title>Node19</title>
<g id="a_Node000019"><a xlink:href="show__properties_8cpp.html" target="_top" xlink:title="Show Claims.">
<polygon fill="white" stroke="#666666" points="1872,-200.5 1734,-200.5 1734,-159.5 1872,-159.5 1872,-200.5"/>
<text text-anchor="start" x="1742" y="-188.5" font-family="Helvetica,sans-Serif" font-size="10.00">/home/runner/work/cbmc</text>
<text text-anchor="start" x="1742" y="-177.5" font-family="Helvetica,sans-Serif" font-size="10.00">/cbmc/src/goto&#45;programs</text>
<text text-anchor="middle" x="1803" y="-166.5" font-family="Helvetica,sans-Serif" font-size="10.00">/show_properties.cpp</text>
</a>
</g>
</g>
<!-- Node1&#45;&gt;Node19 -->
<g id="edge20_Node000001_Node000019" class="edge">
<title>Node1&#45;&gt;Node19</title>
<g id="a_edge20_Node000001_Node000019"><a xlink:title=" ">
<path fill="none" stroke="#63b8ff" d="M1540.12,-243.63C1592.86,-234.75 1663.52,-221.61 1725,-206 1731.34,-204.39 1737.92,-202.55 1744.45,-200.62"/>
<polygon fill="#63b8ff" stroke="#63b8ff" points="1539.45,-240.2 1530.16,-245.29 1540.6,-247.1 1539.45,-240.2"/>
</a>
</g>
</g>
<!-- Node20 -->
<g id="Node000020" class="node">
<title>Node20</title>
<g id="a_Node000020"><a xlink:href="show__symbol__table_8cpp.html" target="_top" xlink:title="Show the symbol table.">
<polygon fill="white" stroke="#666666" points="2028,-200.5 1890,-200.5 1890,-159.5 2028,-159.5 2028,-200.5"/>
<text text-anchor="start" x="1898" y="-188.5" font-family="Helvetica,sans-Serif" font-size="10.00">/home/runner/work/cbmc</text>
<text text-anchor="start" x="1898" y="-177.5" font-family="Helvetica,sans-Serif" font-size="10.00">/cbmc/src/goto&#45;programs</text>
<text text-anchor="middle" x="1959" y="-166.5" font-family="Helvetica,sans-Serif" font-size="10.00">/show_symbol_table.cpp</text>
</a>
</g>
</g>
<!-- Node1&#45;&gt;Node20 -->
<g id="edge21_Node000001_Node000020" class="edge">
<title>Node1&#45;&gt;Node20</title>
<g id="a_edge21_Node000001_Node000020"><a xlink:title=" ">
<path fill="none" stroke="#63b8ff" d="M1540.15,-251.12C1625.14,-244.83 1763.79,-231.51 1881,-206 1887.95,-204.49 1895.16,-202.61 1902.26,-200.57"/>
<polygon fill="#63b8ff" stroke="#63b8ff" points="1539.77,-247.64 1530.05,-251.85 1540.28,-254.62 1539.77,-247.64"/>
</a>
</g>
</g>
<!-- Node21 -->
<g id="Node000021" class="node">
<title>Node21</title>
<g id="a_Node000021"><a xlink:href="show__program_8cpp.html" target="_top" xlink:title="Output of the program (SSA) constraints.">
<polygon fill="white" stroke="#666666" points="2199.5,-200.5 2046.5,-200.5 2046.5,-159.5 2199.5,-159.5 2199.5,-200.5"/>
<text text-anchor="start" x="2054.5" y="-188.5" font-family="Helvetica,sans-Serif" font-size="10.00">/home/runner/work/cbmc</text>
<text text-anchor="start" x="2054.5" y="-177.5" font-family="Helvetica,sans-Serif" font-size="10.00">/cbmc/src/goto&#45;symex/show</text>
<text text-anchor="middle" x="2123" y="-166.5" font-family="Helvetica,sans-Serif" font-size="10.00">_program.cpp</text>
</a>
</g>
</g>
<!-- Node1&#45;&gt;Node21 -->
<g id="edge22_Node000001_Node000021" class="edge">
<title>Node1&#45;&gt;Node21</title>
<g id="a_edge22_Node000001_Node000021"><a xlink:title=" ">
<path fill="none" stroke="#63b8ff" d="M1540.48,-254.02C1652.21,-250.14 1861.66,-238.77 2037,-206 2044.79,-204.54 2052.9,-202.67 2060.87,-200.62"/>
<polygon fill="#63b8ff" stroke="#63b8ff" points="1540.18,-250.53 1530.31,-254.37 1540.42,-257.53 1540.18,-250.53"/>
</a>
</g>
</g>
<!-- Node22 -->
<g id="Node000022" class="node">
<title>Node22</title>
<g id="a_Node000022"><a xlink:href="show__vcc_8cpp.html" target="_top" xlink:title="Output of the verification conditions (VCCs)">
<polygon fill="white" stroke="#666666" points="2370.5,-200.5 2217.5,-200.5 2217.5,-159.5 2370.5,-159.5 2370.5,-200.5"/>
<text text-anchor="start" x="2225.5" y="-188.5" font-family="Helvetica,sans-Serif" font-size="10.00">/home/runner/work/cbmc</text>
<text text-anchor="start" x="2225.5" y="-177.5" font-family="Helvetica,sans-Serif" font-size="10.00">/cbmc/src/goto&#45;symex/show</text>
<text text-anchor="middle" x="2294" y="-166.5" font-family="Helvetica,sans-Serif" font-size="10.00">_vcc.cpp</text>
</a>
</g>
</g>
<!-- Node1&#45;&gt;Node22 -->
<g id="edge23_Node000001_Node000022" class="edge">
<title>Node1&#45;&gt;Node22</title>
<g id="a_edge23_Node000001_Node000022"><a xlink:title=" ">
<path fill="none" stroke="#63b8ff" d="M1540.21,-256.38C1677.49,-255.78 1968.06,-248.95 2209,-206 2217.03,-204.57 2225.37,-202.66 2233.56,-200.53"/>
<polygon fill="#63b8ff" stroke="#63b8ff" points="1540.18,-252.88 1530.19,-256.41 1540.2,-259.88 1540.18,-252.88"/>
</a>
</g>
</g>
<!-- Node23 -->
<g id="Node000023" class="node">
<title>Node23</title>
<g id="a_Node000023"><a xlink:href="solver__hardness_8cpp.html" target="_top" xlink:title=" ">
<polygon fill="white" stroke="#666666" points="2547,-200.5 2389,-200.5 2389,-159.5 2547,-159.5 2547,-200.5"/>
<text text-anchor="start" x="2397" y="-188.5" font-family="Helvetica,sans-Serif" font-size="10.00">/home/runner/work/cbmc</text>
<text text-anchor="start" x="2397" y="-177.5" font-family="Helvetica,sans-Serif" font-size="10.00">/cbmc/src/goto&#45;symex/solver</text>
<text text-anchor="middle" x="2468" y="-166.5" font-family="Helvetica,sans-Serif" font-size="10.00">_hardness.cpp</text>
</a>
</g>
</g>
<!-- Node1&#45;&gt;Node23 -->
<g id="edge24_Node000001_Node000023" class="edge">
<title>Node1&#45;&gt;Node23</title>
<g id="a_edge24_Node000001_Node000023"><a xlink:title=" ">
<path fill="none" stroke="#63b8ff" d="M1540.21,-253.95C1732.41,-248.62 2219.46,-232.83 2380,-206 2388.3,-204.61 2396.94,-202.73 2405.42,-200.61"/>
<polygon fill="#63b8ff" stroke="#63b8ff" points="1540.08,-250.46 1530.18,-254.23 1540.28,-257.45 1540.08,-250.46"/>
</a>
</g>
</g>
<!-- Node24 -->
<g id="Node000024" class="node">
<title>Node24</title>
<g id="a_Node000024"><a xlink:href="json__symbol_8cpp.html" target="_top" xlink:title=" ">
<polygon fill="white" stroke="#666666" points="2715,-200.5 2565,-200.5 2565,-159.5 2715,-159.5 2715,-200.5"/>
<text text-anchor="start" x="2573" y="-188.5" font-family="Helvetica,sans-Serif" font-size="10.00">/home/runner/work/cbmc</text>
<text text-anchor="start" x="2573" y="-177.5" font-family="Helvetica,sans-Serif" font-size="10.00">/cbmc/src/json&#45;symtab</text>
<text text-anchor="middle" x="2640" y="-166.5" font-family="Helvetica,sans-Serif" font-size="10.00">&#45;language/json_symbol.cpp</text>
</a>
</g>
</g>
<!-- Node1&#45;&gt;Node24 -->
<g id="edge25_Node000001_Node000024" class="edge">
<title>Node1&#45;&gt;Node24</title>
<g id="a_edge25_Node000001_Node000024"><a xlink:title=" ">
<path fill="none" stroke="#63b8ff" d="M1540.08,-254.89C1757.4,-251.43 2360.44,-239.06 2556,-206 2564.1,-204.63 2572.52,-202.73 2580.77,-200.57"/>
<polygon fill="#63b8ff" stroke="#63b8ff" points="1539.97,-251.39 1530.03,-255.04 1540.08,-258.39 1539.97,-251.39"/>
</a>
</g>
</g>
<!-- Node25 -->
<g id="Node000025" class="node">
<title>Node25</title>
<g id="a_Node000025"><a xlink:href="json__irep_8cpp.html" target="_top" xlink:title="Util.">
<polygon fill="white" stroke="#666666" points="2881.5,-195 2732.5,-195 2732.5,-165 2881.5,-165 2881.5,-195"/>
<text text-anchor="start" x="2740.5" y="-183" font-family="Helvetica,sans-Serif" font-size="10.00">/home/runner/work/cbmc</text>
<text text-anchor="middle" x="2807" y="-172" font-family="Helvetica,sans-Serif" font-size="10.00">/cbmc/src/util/json_irep.cpp</text>
</a>
</g>
</g>
<!-- Node1&#45;&gt;Node25 -->
<g id="edge26_Node000001_Node000025" class="edge">
<title>Node1&#45;&gt;Node25</title>
<g id="a_edge26_Node000001_Node000025"><a xlink:title=" ">
<path fill="none" stroke="#63b8ff" d="M1540.34,-255.48C1780.12,-253.49 2494.77,-244.42 2724,-206 2738.55,-203.56 2754.12,-199.33 2767.8,-195.03"/>
<polygon fill="#63b8ff" stroke="#63b8ff" points="1540.28,-251.98 1530.31,-255.56 1540.34,-258.98 1540.28,-251.98"/>
</a>
</g>
</g>
<!-- Node26 -->
<g id="Node000026" class="node">
<title>Node26</title>
<g id="a_Node000026"><a xlink:href="ui__message_8cpp.html" target="_top" xlink:title=" ">
<polygon fill="white" stroke="#666666" points="3064,-195 2900,-195 2900,-165 3064,-165 3064,-195"/>
<text text-anchor="start" x="2908" y="-183" font-family="Helvetica,sans-Serif" font-size="10.00">/home/runner/work/cbmc</text>
<text text-anchor="middle" x="2982" y="-172" font-family="Helvetica,sans-Serif" font-size="10.00">/cbmc/src/util/ui_message.cpp</text>
</a>
</g>
</g>
<!-- Node1&#45;&gt;Node26 -->
<g id="edge27_Node000001_Node000026" class="edge">
<title>Node1&#45;&gt;Node26</title>
<g id="a_edge27_Node000001_Node000026"><a xlink:title=" ">
<path fill="none" stroke="#63b8ff" d="M1540.31,-255.66C1800.64,-254.15 2627.46,-246.24 2891,-206 2906.87,-203.58 2923.93,-199.34 2938.94,-195.04"/>
<polygon fill="#63b8ff" stroke="#63b8ff" points="1540.16,-252.16 1530.18,-255.71 1540.2,-259.16 1540.16,-252.16"/>
</a>
</g>
</g>
<!-- Node10&#45;&gt;Node8 -->
<g id="edge12_Node000010_Node000008" class="edge">
<title>Node10&#45;&gt;Node8</title>
<g id="a_edge12_Node000010_Node000008"><a xlink:title=" ">
<path fill="none" stroke="#63b8ff" d="M1235.9,-156.52C1232.9,-155.65 1229.92,-154.8 1227,-154 1158.39,-135.12 1140.19,-134.63 1071,-118 1068.15,-117.31 1065.24,-116.61 1062.31,-115.9"/>
<polygon fill="#63b8ff" stroke="#63b8ff" points="1234.95,-159.89 1245.53,-159.38 1236.94,-153.18 1234.95,-159.89"/>
</a>
</g>
</g>
<!-- Node11 -->
<g id="Node000011" class="node">
<title>Node11</title>
<g id="a_Node000011"><a xlink:href="c__test__input__generator_8cpp.html" target="_top" xlink:title="Test Input Generator for C.">
<polygon fill="white" stroke="#666666" points="1218,-118 1080,-118 1080,-77 1218,-77 1218,-118"/>
<text text-anchor="start" x="1088" y="-106" font-family="Helvetica,sans-Serif" font-size="10.00">/home/runner/work/cbmc</text>
<text text-anchor="start" x="1088" y="-95" font-family="Helvetica,sans-Serif" font-size="10.00">/cbmc/src/cbmc/c_test</text>
<text text-anchor="middle" x="1149" y="-84" font-family="Helvetica,sans-Serif" font-size="10.00">_input_generator.cpp</text>
</a>
</g>
</g>
<!-- Node10&#45;&gt;Node11 -->
<g id="edge10_Node000010_Node000011" class="edge">
<title>Node10&#45;&gt;Node11</title>
<g id="a_edge10_Node000010_Node000011"><a xlink:title=" ">
<path fill="none" stroke="#63b8ff" d="M1257.74,-154.61C1235.1,-142.93 1208.34,-129.12 1187.04,-118.13"/>
<polygon fill="#63b8ff" stroke="#63b8ff" points="1256.35,-157.83 1266.84,-159.31 1259.56,-151.61 1256.35,-157.83"/>
</a>
</g>
</g>
<!-- Node12 -->
<g id="Node000012" class="node">
<title>Node12</title>
<g id="a_Node000012"><a xlink:href="bmc__util_8cpp.html" target="_top" xlink:title="Bounded Model Checking Utilities.">
<polygon fill="white" stroke="#666666" points="1374,-118 1236,-118 1236,-77 1374,-77 1374,-118"/>
<text text-anchor="start" x="1244" y="-106" font-family="Helvetica,sans-Serif" font-size="10.00">/home/runner/work/cbmc</text>
<text text-anchor="start" x="1244" y="-95" font-family="Helvetica,sans-Serif" font-size="10.00">/cbmc/src/goto&#45;checker</text>
<text text-anchor="middle" x="1305" y="-84" font-family="Helvetica,sans-Serif" font-size="10.00">/bmc_util.cpp</text>
</a>
</g>
</g>
<!-- Node10&#45;&gt;Node12 -->
<g id="edge11_Node000010_Node000012" class="edge">
<title>Node10&#45;&gt;Node12</title>
<g id="a_edge11_Node000010_Node000012"><a xlink:title=" ">
<path fill="none" stroke="#63b8ff" d="M1305,-148.87C1305,-138.6 1305,-127.4 1305,-118.17"/>
<polygon fill="#63b8ff" stroke="#63b8ff" points="1301.5,-149.1 1305,-159.1 1308.5,-149.1 1301.5,-149.1"/>
</a>
</g>
</g>
<!-- Node13 -->
<g id="Node000013" class="node">
<title>Node13</title>
<g id="a_Node000013"><a xlink:href="interpreter_8cpp.html" target="_top" xlink:title="Interpreter for GOTO Programs.">
<polygon fill="white" stroke="#666666" points="1471,-41 1333,-41 1333,0 1471,0 1471,-41"/>
<text text-anchor="start" x="1341" y="-29" font-family="Helvetica,sans-Serif" font-size="10.00">/home/runner/work/cbmc</text>
<text text-anchor="start" x="1341" y="-18" font-family="Helvetica,sans-Serif" font-size="10.00">/cbmc/src/goto&#45;programs</text>
<text text-anchor="middle" x="1402" y="-7" font-family="Helvetica,sans-Serif" font-size="10.00">/interpreter.cpp</text>
</a>
</g>
</g>
<!-- Node10&#45;&gt;Node13 -->
<g id="edge13_Node000010_Node000013" class="edge">
<title>Node10&#45;&gt;Node13</title>
<g id="a_edge13_Node000010_Node000013"><a xlink:title=" ">
<path fill="none" stroke="#63b8ff" d="M1348.54,-153.53C1361.47,-143.94 1374.44,-131.94 1383,-118 1397.57,-94.28 1401.29,-61.65 1402.07,-41.06"/>
<polygon fill="#63b8ff" stroke="#63b8ff" points="1346.27,-150.85 1340.1,-159.47 1350.3,-156.57 1346.27,-150.85"/>
</a>
</g>
</g>
<!-- Node14 -->
<g id="Node000014" class="node">
<title>Node14</title>
<g id="a_Node000014"><a xlink:href="interpreter__class_8h.html" target="_top" xlink:title="Interpreter for GOTO Programs.">
<polygon fill="white" stroke="#666666" points="1568,-118 1430,-118 1430,-77 1568,-77 1568,-118"/>
<text text-anchor="start" x="1438" y="-106" font-family="Helvetica,sans-Serif" font-size="10.00">/home/runner/work/cbmc</text>
<text text-anchor="start" x="1438" y="-95" font-family="Helvetica,sans-Serif" font-size="10.00">/cbmc/src/goto&#45;programs</text>
<text text-anchor="middle" x="1499" y="-84" font-family="Helvetica,sans-Serif" font-size="10.00">/interpreter_class.h</text>
</a>
</g>
</g>
<!-- Node10&#45;&gt;Node14 -->
<g id="edge14_Node000010_Node000014" class="edge">
<title>Node10&#45;&gt;Node14</title>
<g id="a_edge14_Node000010_Node000014"><a xlink:title=" ">
<path fill="none" stroke="#63b8ff" d="M1361.9,-155.39C1390.45,-143.54 1424.61,-129.37 1451.7,-118.13"/>
<polygon fill="#63b8ff" stroke="#63b8ff" points="1360.35,-152.24 1352.46,-159.31 1363.04,-158.71 1360.35,-152.24"/>
</a>
</g>
</g>
<!-- Node16 -->
<g id="Node000016" class="node">
<title>Node16</title>
<g id="a_Node000016"><a xlink:href="json__goto__trace_8cpp.html" target="_top" xlink:title="Traces of GOTO Programs.">
<polygon fill="white" stroke="#666666" points="1724,-118 1586,-118 1586,-77 1724,-77 1724,-118"/>
<text text-anchor="start" x="1594" y="-106" font-family="Helvetica,sans-Serif" font-size="10.00">/home/runner/work/cbmc</text>
<text text-anchor="start" x="1594" y="-95" font-family="Helvetica,sans-Serif" font-size="10.00">/cbmc/src/goto&#45;programs</text>
<text text-anchor="middle" x="1655" y="-84" font-family="Helvetica,sans-Serif" font-size="10.00">/json_goto_trace.cpp</text>
</a>
</g>
</g>
<!-- Node10&#45;&gt;Node16 -->
<g id="edge17_Node000010_Node000016" class="edge">
<title>Node10&#45;&gt;Node16</title>
<g id="a_edge17_Node000010_Node000016"><a xlink:title=" ">
<path fill="none" stroke="#63b8ff" d="M1372.82,-156.7C1376.25,-155.75 1379.66,-154.84 1383,-154 1468.04,-132.57 1491.31,-136.64 1577,-118 1579.86,-117.38 1582.78,-116.72 1585.73,-116.05"/>
<polygon fill="#63b8ff" stroke="#63b8ff" points="1371.77,-153.36 1363.12,-159.48 1373.7,-160.09 1371.77,-153.36"/>
</a>
</g>
</g>
<!-- Node14&#45;&gt;Node13 -->
<g id="edge15_Node000014_Node000013" class="edge">
<title>Node14&#45;&gt;Node13</title>
<g id="a_edge15_Node000014_Node000013"><a xlink:title=" ">
<path fill="none" stroke="#63b8ff" d="M1465.78,-70.82C1453.23,-61.11 1439.17,-50.24 1427.44,-41.17"/>
<polygon fill="#63b8ff" stroke="#63b8ff" points="1463.72,-73.64 1473.77,-76.99 1468,-68.1 1463.72,-73.64"/>
</a>
</g>
</g>
<!-- Node15 -->
<g id="Node000015" class="node">
<title>Node15</title>
<g id="a_Node000015"><a xlink:href="interpreter__evaluate_8cpp.html" target="_top" xlink:title="Interpreter for GOTO Programs.">
<polygon fill="white" stroke="#666666" points="1629,-41 1489,-41 1489,0 1629,0 1629,-41"/>
<text text-anchor="start" x="1497" y="-29" font-family="Helvetica,sans-Serif" font-size="10.00">/home/runner/work/cbmc</text>
<text text-anchor="start" x="1497" y="-18" font-family="Helvetica,sans-Serif" font-size="10.00">/cbmc/src/goto&#45;programs</text>
<text text-anchor="middle" x="1559" y="-7" font-family="Helvetica,sans-Serif" font-size="10.00">/interpreter_evaluate.cpp</text>
</a>
</g>
</g>
<!-- Node14&#45;&gt;Node15 -->
<g id="edge16_Node000014_Node000015" class="edge">
<title>Node14&#45;&gt;Node15</title>
<g id="a_edge16_Node000014_Node000015"><a xlink:title=" ">
<path fill="none" stroke="#63b8ff" d="M1521.04,-68.95C1528.44,-59.7 1536.53,-49.58 1543.34,-41.07"/>
<polygon fill="#63b8ff" stroke="#63b8ff" points="1518.28,-66.8 1514.76,-76.79 1523.74,-71.17 1518.28,-66.8"/>
</a>
</g>
</g>
</g>
</svg>
