<?xml version="1.0" encoding="UTF-8" standalone="no"?>
<!DOCTYPE svg PUBLIC "-//W3C//DTD SVG 1.1//EN"
 "http://www.w3.org/Graphics/SVG/1.1/DTD/svg11.dtd">
<!-- Generated by graphviz version 2.43.0 (0)
 -->
<!-- Title: /home/runner/work/cbmc/cbmc/jbmc/src/java_bytecode/lambda_synthesis.h Pages: 1 -->
<svg width="1075pt" height="896pt"
 viewBox="0.00 0.00 1075.00 896.00" xmlns="http://www.w3.org/2000/svg" xmlns:xlink="http://www.w3.org/1999/xlink">
<g id="graph0" class="graph" transform="scale(1 1) rotate(0) translate(4 892)">
<title>/home/runner/work/cbmc/cbmc/jbmc/src/java_bytecode/lambda_synthesis.h</title>
<!-- Node1 -->
<g id="Node000001" class="node">
<title>Node1</title>
<g id="a_Node000001"><a xlink:title="Java lambda code synthesis.">
<polygon fill="#999999" stroke="#666666" points="178,-888 14,-888 14,-847 178,-847 178,-888"/>
<text text-anchor="start" x="22" y="-876" font-family="Helvetica,sans-Serif" font-size="10.00">/home/runner/work/cbmc</text>
<text text-anchor="start" x="22" y="-865" font-family="Helvetica,sans-Serif" font-size="10.00">/cbmc/jbmc/src/java_bytecode</text>
<text text-anchor="middle" x="96" y="-854" font-family="Helvetica,sans-Serif" font-size="10.00">/lambda_synthesis.h</text>
</a>
</g>
</g>
<!-- Node2 -->
<g id="Node000002" class="node">
<title>Node2</title>
<g id="a_Node000002"><a xlink:href="java__bytecode__parse__tree_8h.html" target="_top" xlink:title=" ">
<polygon fill="white" stroke="#666666" points="903.5,-811 770.5,-811 770.5,-781 903.5,-781 903.5,-811"/>
<text text-anchor="start" x="778.5" y="-799" font-family="Helvetica,sans-Serif" font-size="10.00">java_bytecode/java</text>
<text text-anchor="middle" x="837" y="-788" font-family="Helvetica,sans-Serif" font-size="10.00">_bytecode_parse_tree.h</text>
</a>
</g>
</g>
<!-- Node1&#45;&gt;Node2 -->
<g id="edge1_Node000001_Node000002" class="edge">
<title>Node1&#45;&gt;Node2</title>
<g id="a_edge1_Node000001_Node000002"><a xlink:title=" ">
<path fill="none" stroke="#63b8ff" d="M178.13,-858.8C322.42,-845.26 619.41,-817.41 759.99,-804.22"/>
<polygon fill="#63b8ff" stroke="#63b8ff" points="760.62,-807.68 770.25,-803.26 759.97,-800.71 760.62,-807.68"/>
</a>
</g>
</g>
<!-- Node9 -->
<g id="Node000009" class="node">
<title>Node9</title>
<g id="a_Node000009"><a xlink:href="irep_8h.html" target="_top" xlink:title=" ">
<polygon fill="#fff0f0" stroke="red" points="51,-129 7,-129 7,-110 51,-110 51,-129"/>
<text text-anchor="middle" x="29" y="-117" font-family="Helvetica,sans-Serif" font-size="10.00">irep.h</text>
</a>
</g>
</g>
<!-- Node1&#45;&gt;Node9 -->
<g id="edge66_Node000001_Node000009" class="edge">
<title>Node1&#45;&gt;Node9</title>
<g id="a_edge66_Node000001_Node000009"><a xlink:title=" ">
<path fill="none" stroke="#63b8ff" d="M68.75,-846.86C40.37,-823.91 0,-783.07 0,-736.5 0,-736.5 0,-736.5 0,-228.5 0,-195.95 12.44,-159.71 21.03,-138.57"/>
<polygon fill="#63b8ff" stroke="#63b8ff" points="24.3,-139.82 24.97,-129.25 17.85,-137.09 24.3,-139.82"/>
</a>
</g>
</g>
<!-- Node51 -->
<g id="Node000051" class="node">
<title>Node51</title>
<g id="a_Node000051"><a xlink:href="synthetic__methods__map_8h.html" target="_top" xlink:title="Synthetic methods are particular methods internally generated by the Java frontend,...">
<polygon fill="white" stroke="#666666" points="164,-525 28,-525 28,-495 164,-495 164,-525"/>
<text text-anchor="start" x="36" y="-513" font-family="Helvetica,sans-Serif" font-size="10.00">java_bytecode/synthetic</text>
<text text-anchor="middle" x="96" y="-502" font-family="Helvetica,sans-Serif" font-size="10.00">_methods_map.h</text>
</a>
</g>
</g>
<!-- Node1&#45;&gt;Node51 -->
<g id="edge63_Node000001_Node000051" class="edge">
<title>Node1&#45;&gt;Node51</title>
<g id="a_edge63_Node000001_Node000051"><a xlink:title=" ">
<path fill="none" stroke="#63b8ff" d="M96,-846.68C96,-821.19 96,-775.55 96,-736.5 96,-736.5 96,-736.5 96,-624.5 96,-593.85 96,-558.54 96,-535.56"/>
<polygon fill="#63b8ff" stroke="#63b8ff" points="99.5,-535.33 96,-525.33 92.5,-535.33 99.5,-535.33"/>
</a>
</g>
</g>
<!-- Node3 -->
<g id="Node000003" class="node">
<title>Node3</title>
<g id="a_Node000003"><a xlink:href="std__types_8h.html" target="_top" xlink:title="Pre&#45;defined types.">
<polygon fill="white" stroke="#666666" points="511,-519.5 419,-519.5 419,-500.5 511,-500.5 511,-519.5"/>
<text text-anchor="middle" x="465" y="-507.5" font-family="Helvetica,sans-Serif" font-size="10.00">util/std_types.h</text>
</a>
</g>
</g>
<!-- Node2&#45;&gt;Node3 -->
<g id="edge2_Node000002_Node000003" class="edge">
<title>Node2&#45;&gt;Node3</title>
<g id="a_edge2_Node000002_Node000003"><a xlink:title=" ">
<path fill="none" stroke="#63b8ff" d="M770.27,-790.87C598.41,-779.35 154,-743.55 154,-681.5 154,-681.5 154,-681.5 154,-624.5 154,-570.89 319.16,-535.14 408.77,-519.69"/>
<polygon fill="#63b8ff" stroke="#63b8ff" points="409.5,-523.11 418.78,-517.99 408.33,-516.21 409.5,-523.11"/>
</a>
</g>
</g>
<!-- Node42 -->
<g id="Node000042" class="node">
<title>Node42</title>
<g id="a_Node000042"><a xlink:href="bytecode__info_8h.html" target="_top" xlink:title=" ">
<polygon fill="white" stroke="#666666" points="960.5,-745 865.5,-745 865.5,-726 960.5,-726 960.5,-745"/>
<text text-anchor="middle" x="913" y="-733" font-family="Helvetica,sans-Serif" font-size="10.00">bytecode_info.h</text>
</a>
</g>
</g>
<!-- Node2&#45;&gt;Node42 -->
<g id="edge41_Node000002_Node000042" class="edge">
<title>Node2&#45;&gt;Node42</title>
<g id="a_edge41_Node000002_Node000042"><a xlink:title=" ">
<path fill="none" stroke="#63b8ff" d="M855.4,-780.84C866.88,-772 881.65,-760.63 893.36,-751.62"/>
<polygon fill="#63b8ff" stroke="#63b8ff" points="895.82,-754.14 901.61,-745.27 891.55,-748.59 895.82,-754.14"/>
</a>
</g>
</g>
<!-- Node44 -->
<g id="Node000044" class="node">
<title>Node44</title>
<g id="a_Node000044"><a xlink:href="java__types_8h.html" target="_top" xlink:title=" ">
<polygon fill="white" stroke="#666666" points="808.5,-745 729.5,-745 729.5,-726 808.5,-726 808.5,-745"/>
<text text-anchor="middle" x="769" y="-733" font-family="Helvetica,sans-Serif" font-size="10.00">java_types.h</text>
</a>
</g>
</g>
<!-- Node2&#45;&gt;Node44 -->
<g id="edge43_Node000002_Node000044" class="edge">
<title>Node2&#45;&gt;Node44</title>
<g id="a_edge43_Node000002_Node000044"><a xlink:title=" ">
<path fill="none" stroke="#63b8ff" d="M820.54,-780.84C810.37,-772.09 797.31,-760.85 786.88,-751.88"/>
<polygon fill="#63b8ff" stroke="#63b8ff" points="789.05,-749.13 779.19,-745.27 784.49,-754.44 789.05,-749.13"/>
</a>
</g>
</g>
<!-- Node45 -->
<g id="Node000045" class="node">
<title>Node45</title>
<g id="a_Node000045"><a xlink:title=" ">
<polygon fill="#e0e0e0" stroke="#999999" points="899,-690 867,-690 867,-671 899,-671 899,-690"/>
<text text-anchor="middle" x="883" y="-678" font-family="Helvetica,sans-Serif" font-size="10.00">set</text>
</a>
</g>
</g>
<!-- Node2&#45;&gt;Node45 -->
<g id="edge62_Node000002_Node000045" class="edge">
<title>Node2&#45;&gt;Node45</title>
<g id="a_edge62_Node000002_Node000045"><a xlink:title=" ">
<path fill="none" stroke="#63b8ff" d="M840.01,-780.9C843.28,-766.71 849.13,-744.34 857,-726 861.06,-716.54 866.72,-706.6 871.72,-698.52"/>
<polygon fill="#63b8ff" stroke="#63b8ff" points="874.71,-700.34 877.16,-690.03 868.82,-696.57 874.71,-700.34"/>
</a>
</g>
</g>
<!-- Node22 -->
<g id="Node000022" class="node">
<title>Node22</title>
<g id="a_Node000022"><a xlink:title=" ">
<polygon fill="#e0e0e0" stroke="#999999" points="1011,-745 979,-745 979,-726 1011,-726 1011,-745"/>
<text text-anchor="middle" x="995" y="-733" font-family="Helvetica,sans-Serif" font-size="10.00">list</text>
</a>
</g>
</g>
<!-- Node2&#45;&gt;Node22 -->
<g id="edge60_Node000002_Node000022" class="edge">
<title>Node2&#45;&gt;Node22</title>
<g id="a_edge60_Node000002_Node000022"><a xlink:title=" ">
<path fill="none" stroke="#63b8ff" d="M874.84,-780.99C904.02,-770.19 943.59,-755.54 969.21,-746.05"/>
<polygon fill="#63b8ff" stroke="#63b8ff" points="970.45,-749.32 978.61,-742.57 968.02,-742.76 970.45,-749.32"/>
</a>
</g>
</g>
<!-- Node50 -->
<g id="Node000050" class="node">
<title>Node50</title>
<g id="a_Node000050"><a xlink:title=" ">
<polygon fill="#e0e0e0" stroke="#999999" points="1067,-745 1029,-745 1029,-726 1067,-726 1067,-745"/>
<text text-anchor="middle" x="1048" y="-733" font-family="Helvetica,sans-Serif" font-size="10.00">map</text>
</a>
</g>
</g>
<!-- Node2&#45;&gt;Node50 -->
<g id="edge61_Node000002_Node000050" class="edge">
<title>Node2&#45;&gt;Node50</title>
<g id="a_edge61_Node000002_Node000050"><a xlink:title=" ">
<path fill="none" stroke="#63b8ff" d="M889.96,-780.95C924.28,-771.75 970.16,-759.27 1018.95,-745.25"/>
<polygon fill="#63b8ff" stroke="#63b8ff" points="1020.1,-748.56 1028.74,-742.42 1018.16,-741.83 1020.1,-748.56"/>
</a>
</g>
</g>
<!-- Node4 -->
<g id="Node000004" class="node">
<title>Node4</title>
<g id="a_Node000004"><a xlink:href="expr_8h.html" target="_top" xlink:title=" ">
<polygon fill="white" stroke="#666666" points="488.5,-404 441.5,-404 441.5,-385 488.5,-385 488.5,-404"/>
<text text-anchor="middle" x="465" y="-392" font-family="Helvetica,sans-Serif" font-size="10.00">expr.h</text>
</a>
</g>
</g>
<!-- Node3&#45;&gt;Node4 -->
<g id="edge3_Node000003_Node000004" class="edge">
<title>Node3&#45;&gt;Node4</title>
<g id="a_edge3_Node000003_Node000004"><a xlink:title=" ">
<path fill="none" stroke="#63b8ff" d="M465,-500.47C465,-482.23 465,-439.07 465,-414.14"/>
<polygon fill="#63b8ff" stroke="#63b8ff" points="468.5,-414.13 465,-404.13 461.5,-414.13 468.5,-414.13"/>
</a>
</g>
</g>
<!-- Node12 -->
<g id="Node000012" class="node">
<title>Node12</title>
<g id="a_Node000012"><a xlink:href="src_2util_2invariant_8h.html" target="_top" xlink:title=" ">
<polygon fill="#fff0f0" stroke="red" points="721.5,-74 652.5,-74 652.5,-55 721.5,-55 721.5,-74"/>
<text text-anchor="middle" x="687" y="-62" font-family="Helvetica,sans-Serif" font-size="10.00">invariant.h</text>
</a>
</g>
</g>
<!-- Node3&#45;&gt;Node12 -->
<g id="edge34_Node000003_Node000012" class="edge">
<title>Node3&#45;&gt;Node12</title>
<g id="a_edge34_Node000003_Node000012"><a xlink:title=" ">
<path fill="none" stroke="#63b8ff" d="M459.67,-500.49C445.02,-477.84 401.71,-415.74 349,-385 290.15,-350.68 253.77,-390.84 200,-349 172.12,-327.31 147.83,-301.67 171,-275 208.53,-231.8 372.41,-259.09 426,-239 478.63,-219.27 616.3,-118.39 667.47,-80.19"/>
<polygon fill="#63b8ff" stroke="#63b8ff" points="669.81,-82.81 675.72,-74.01 665.61,-77.21 669.81,-82.81"/>
</a>
</g>
</g>
<!-- Node32 -->
<g id="Node000032" class="node">
<title>Node32</title>
<g id="a_Node000032"><a xlink:href="validate_8h.html" target="_top" xlink:title=" ">
<polygon fill="white" stroke="#666666" points="620.5,-294 555.5,-294 555.5,-275 620.5,-275 620.5,-294"/>
<text text-anchor="middle" x="588" y="-282" font-family="Helvetica,sans-Serif" font-size="10.00">validate.h</text>
</a>
</g>
</g>
<!-- Node3&#45;&gt;Node32 -->
<g id="edge39_Node000003_Node000032" class="edge">
<title>Node3&#45;&gt;Node32</title>
<g id="a_edge39_Node000003_Node000032"><a xlink:title=" ">
<path fill="none" stroke="#63b8ff" d="M469.82,-500.24C488.07,-467.07 553.15,-348.82 578.13,-303.43"/>
<polygon fill="#63b8ff" stroke="#63b8ff" points="581.32,-304.89 583.08,-294.44 575.19,-301.52 581.32,-304.89"/>
</a>
</g>
</g>
<!-- Node38 -->
<g id="Node000038" class="node">
<title>Node38</title>
<g id="a_Node000038"><a xlink:href="expr__cast_8h.html" target="_top" xlink:title="Templated functions to cast to specific exprt&#45;derived classes.">
<polygon fill="white" stroke="#666666" points="674.5,-459 601.5,-459 601.5,-440 674.5,-440 674.5,-459"/>
<text text-anchor="middle" x="638" y="-447" font-family="Helvetica,sans-Serif" font-size="10.00">expr_cast.h</text>
</a>
</g>
</g>
<!-- Node3&#45;&gt;Node38 -->
<g id="edge28_Node000003_Node000038" class="edge">
<title>Node3&#45;&gt;Node38</title>
<g id="a_edge28_Node000003_Node000038"><a xlink:title=" ">
<path fill="none" stroke="#63b8ff" d="M490.16,-500.49C519.88,-490.44 569.52,-473.66 602.99,-462.34"/>
<polygon fill="#63b8ff" stroke="#63b8ff" points="604.46,-465.54 612.81,-459.02 602.22,-458.9 604.46,-465.54"/>
</a>
</g>
</g>
<!-- Node40 -->
<g id="Node000040" class="node">
<title>Node40</title>
<g id="a_Node000040"><a xlink:href="mp__arith_8h.html" target="_top" xlink:title=" ">
<polygon fill="white" stroke="#666666" points="326.5,-459 257.5,-459 257.5,-440 326.5,-440 326.5,-459"/>
<text text-anchor="middle" x="292" y="-447" font-family="Helvetica,sans-Serif" font-size="10.00">mp_arith.h</text>
</a>
</g>
</g>
<!-- Node3&#45;&gt;Node40 -->
<g id="edge35_Node000003_Node000040" class="edge">
<title>Node3&#45;&gt;Node40</title>
<g id="a_edge35_Node000003_Node000040"><a xlink:title=" ">
<path fill="none" stroke="#63b8ff" d="M439.84,-500.49C410.12,-490.44 360.48,-473.66 327.01,-462.34"/>
<polygon fill="#63b8ff" stroke="#63b8ff" points="327.78,-458.9 317.19,-459.02 325.54,-465.54 327.78,-458.9"/>
</a>
</g>
</g>
<!-- Node23 -->
<g id="Node000023" class="node">
<title>Node23</title>
<g id="a_Node000023"><a xlink:title=" ">
<polygon fill="#e0e0e0" stroke="#999999" points="238.5,-459 145.5,-459 145.5,-440 238.5,-440 238.5,-459"/>
<text text-anchor="middle" x="192" y="-447" font-family="Helvetica,sans-Serif" font-size="10.00">unordered_map</text>
</a>
</g>
</g>
<!-- Node3&#45;&gt;Node23 -->
<g id="edge40_Node000003_Node000023" class="edge">
<title>Node3&#45;&gt;Node23</title>
<g id="a_edge40_Node000003_Node000023"><a xlink:title=" ">
<path fill="none" stroke="#63b8ff" d="M425.3,-500.49C376.68,-490.07 294.29,-472.42 241.55,-461.12"/>
<polygon fill="#63b8ff" stroke="#63b8ff" points="242.26,-457.69 231.74,-459.02 240.79,-464.53 242.26,-457.69"/>
</a>
</g>
</g>
<!-- Node5 -->
<g id="Node000005" class="node">
<title>Node5</title>
<g id="a_Node000005"><a xlink:href="as__const_8h.html" target="_top" xlink:title=" ">
<polygon fill="white" stroke="#666666" points="499,-349 431,-349 431,-330 499,-330 499,-349"/>
<text text-anchor="middle" x="465" y="-337" font-family="Helvetica,sans-Serif" font-size="10.00">as_const.h</text>
</a>
</g>
</g>
<!-- Node4&#45;&gt;Node5 -->
<g id="edge4_Node000004_Node000005" class="edge">
<title>Node4&#45;&gt;Node5</title>
<g id="a_edge4_Node000004_Node000005"><a xlink:title=" ">
<path fill="none" stroke="#63b8ff" d="M465,-384.75C465,-377.8 465,-367.85 465,-359.13"/>
<polygon fill="#63b8ff" stroke="#63b8ff" points="468.5,-359.09 465,-349.09 461.5,-359.09 468.5,-359.09"/>
</a>
</g>
</g>
<!-- Node6 -->
<g id="Node000006" class="node">
<title>Node6</title>
<g id="a_Node000006"><a xlink:href="type_8h.html" target="_top" xlink:title="Defines typet, type_with_subtypet and type_with_subtypest.">
<polygon fill="white" stroke="#666666" points="265.5,-349 218.5,-349 218.5,-330 265.5,-330 265.5,-349"/>
<text text-anchor="middle" x="242" y="-337" font-family="Helvetica,sans-Serif" font-size="10.00">type.h</text>
</a>
</g>
</g>
<!-- Node4&#45;&gt;Node6 -->
<g id="edge5_Node000004_Node000006" class="edge">
<title>Node4&#45;&gt;Node6</title>
<g id="a_edge5_Node000004_Node000006"><a xlink:title=" ">
<path fill="none" stroke="#63b8ff" d="M441.42,-388.25C407.06,-380.55 340.99,-365.55 275.78,-349.39"/>
<polygon fill="#63b8ff" stroke="#63b8ff" points="276.29,-345.91 265.74,-346.89 274.6,-352.71 276.29,-345.91"/>
</a>
</g>
</g>
<!-- Node34 -->
<g id="Node000034" class="node">
<title>Node34</title>
<g id="a_Node000034"><a xlink:href="validation__mode_8h.html" target="_top" xlink:title=" ">
<polygon fill="white" stroke="#666666" points="580.5,-239 473.5,-239 473.5,-220 580.5,-220 580.5,-239"/>
<text text-anchor="middle" x="527" y="-227" font-family="Helvetica,sans-Serif" font-size="10.00">validation_mode.h</text>
</a>
</g>
</g>
<!-- Node4&#45;&gt;Node34 -->
<g id="edge26_Node000004_Node000034" class="edge">
<title>Node4&#45;&gt;Node34</title>
<g id="a_edge26_Node000004_Node000034"><a xlink:title=" ">
<path fill="none" stroke="#63b8ff" d="M476.52,-384.98C486.54,-376.9 500.6,-363.8 508,-349 524.17,-316.65 527.15,-273.68 527.39,-249.37"/>
<polygon fill="#63b8ff" stroke="#63b8ff" points="530.89,-249.05 527.33,-239.07 523.89,-249.09 530.89,-249.05"/>
</a>
</g>
</g>
<!-- Node35 -->
<g id="Node000035" class="node">
<title>Node35</title>
<g id="a_Node000035"><a xlink:href="validate__types_8h.html" target="_top" xlink:title=" ">
<polygon fill="white" stroke="#666666" points="278,-294 180,-294 180,-275 278,-275 278,-294"/>
<text text-anchor="middle" x="229" y="-282" font-family="Helvetica,sans-Serif" font-size="10.00">validate_types.h</text>
</a>
</g>
</g>
<!-- Node4&#45;&gt;Node35 -->
<g id="edge25_Node000004_Node000035" class="edge">
<title>Node4&#45;&gt;Node35</title>
<g id="a_edge25_Node000004_Node000035"><a xlink:title=" ">
<path fill="none" stroke="#63b8ff" d="M441.23,-391.11C380.61,-384.76 223.95,-366.78 209,-349 197.89,-335.79 206.54,-316.39 215.68,-302.52"/>
<polygon fill="#63b8ff" stroke="#63b8ff" points="218.58,-304.48 221.56,-294.31 212.89,-300.41 218.58,-304.48"/>
</a>
</g>
</g>
<!-- Node36 -->
<g id="Node000036" class="node">
<title>Node36</title>
<g id="a_Node000036"><a xlink:href="validate__expressions_8h.html" target="_top" xlink:title=" ">
<polygon fill="white" stroke="#666666" points="412.5,-349 283.5,-349 283.5,-330 412.5,-330 412.5,-349"/>
<text text-anchor="middle" x="348" y="-337" font-family="Helvetica,sans-Serif" font-size="10.00">validate_expressions.h</text>
</a>
</g>
</g>
<!-- Node4&#45;&gt;Node36 -->
<g id="edge24_Node000004_Node000036" class="edge">
<title>Node4&#45;&gt;Node36</title>
<g id="a_edge24_Node000004_Node000036"><a xlink:title=" ">
<path fill="none" stroke="#63b8ff" d="M446.2,-384.98C427.38,-376.46 398.18,-363.23 376.5,-353.41"/>
<polygon fill="#63b8ff" stroke="#63b8ff" points="377.69,-350.11 367.14,-349.17 374.8,-356.48 377.69,-350.11"/>
</a>
</g>
</g>
<!-- Node37 -->
<g id="Node000037" class="node">
<title>Node37</title>
<g id="a_Node000037"><a xlink:title=" ">
<polygon fill="#e0e0e0" stroke="#999999" points="658.5,-349 593.5,-349 593.5,-330 658.5,-330 658.5,-349"/>
<text text-anchor="middle" x="626" y="-337" font-family="Helvetica,sans-Serif" font-size="10.00">functional</text>
</a>
</g>
</g>
<!-- Node4&#45;&gt;Node37 -->
<g id="edge27_Node000004_Node000037" class="edge">
<title>Node4&#45;&gt;Node37</title>
<g id="a_edge27_Node000004_Node000037"><a xlink:title=" ">
<path fill="none" stroke="#63b8ff" d="M488.76,-385.68C515.59,-376.85 559.55,-362.38 590.47,-352.2"/>
<polygon fill="#63b8ff" stroke="#63b8ff" points="591.61,-355.51 600.01,-349.06 589.42,-348.86 591.61,-355.51"/>
</a>
</g>
</g>
<!-- Node7 -->
<g id="Node000007" class="node">
<title>Node7</title>
<g id="a_Node000007"><a xlink:href="source__location_8h.html" target="_top" xlink:title=" ">
<polygon fill="white" stroke="#666666" points="324,-184 222,-184 222,-165 324,-165 324,-184"/>
<text text-anchor="middle" x="273" y="-172" font-family="Helvetica,sans-Serif" font-size="10.00">source_location.h</text>
</a>
</g>
</g>
<!-- Node6&#45;&gt;Node7 -->
<g id="edge6_Node000006_Node000007" class="edge">
<title>Node6&#45;&gt;Node7</title>
<g id="a_edge6_Node000006_Node000007"><a xlink:title=" ">
<path fill="none" stroke="#63b8ff" d="M255.49,-329.75C266.29,-321.87 280.65,-309.21 287,-294 300.91,-260.68 289.39,-217.8 280.62,-193.82"/>
<polygon fill="#63b8ff" stroke="#63b8ff" points="283.77,-192.28 276.88,-184.24 277.25,-194.83 283.77,-192.28"/>
</a>
</g>
</g>
<!-- Node6&#45;&gt;Node32 -->
<g id="edge15_Node000006_Node000032" class="edge">
<title>Node6&#45;&gt;Node32</title>
<g id="a_edge15_Node000006_Node000032"><a xlink:title=" ">
<path fill="none" stroke="#63b8ff" d="M265.69,-331.87C268.48,-331.19 271.3,-330.55 274,-330 370.15,-310.49 484.58,-296.58 545.26,-289.93"/>
<polygon fill="#63b8ff" stroke="#63b8ff" points="545.67,-293.4 555.24,-288.84 544.92,-286.44 545.67,-293.4"/>
</a>
</g>
</g>
<!-- Node6&#45;&gt;Node34 -->
<g id="edge23_Node000006_Node000034" class="edge">
<title>Node6&#45;&gt;Node34</title>
<g id="a_edge23_Node000006_Node000034"><a xlink:title=" ">
<path fill="none" stroke="#63b8ff" d="M264.84,-329.84C315.41,-310.68 436.94,-264.63 495.03,-242.62"/>
<polygon fill="#63b8ff" stroke="#63b8ff" points="496.34,-245.86 504.45,-239.05 493.85,-239.32 496.34,-245.86"/>
</a>
</g>
</g>
<!-- Node6&#45;&gt;Node35 -->
<g id="edge22_Node000006_Node000035" class="edge">
<title>Node6&#45;&gt;Node35</title>
<g id="a_edge22_Node000006_Node000035"><a xlink:title=" ">
<path fill="none" stroke="#63b8ff" d="M239.85,-329.75C238.13,-322.72 235.65,-312.62 233.5,-303.84"/>
<polygon fill="#63b8ff" stroke="#63b8ff" points="236.89,-302.97 231.11,-294.09 230.09,-304.63 236.89,-302.97"/>
</a>
</g>
</g>
<!-- Node8 -->
<g id="Node000008" class="node">
<title>Node8</title>
<g id="a_Node000008"><a xlink:href="deprecate_8h.html" target="_top" xlink:title=" ">
<polygon fill="white" stroke="#666666" points="205,-129 131,-129 131,-110 205,-110 205,-129"/>
<text text-anchor="middle" x="168" y="-117" font-family="Helvetica,sans-Serif" font-size="10.00">deprecate.h</text>
</a>
</g>
</g>
<!-- Node7&#45;&gt;Node8 -->
<g id="edge7_Node000007_Node000008" class="edge">
<title>Node7&#45;&gt;Node8</title>
<g id="a_edge7_Node000007_Node000008"><a xlink:title=" ">
<path fill="none" stroke="#63b8ff" d="M256.13,-164.98C239.39,-156.54 213.5,-143.47 194.11,-133.68"/>
<polygon fill="#63b8ff" stroke="#63b8ff" points="195.68,-130.55 185.18,-129.17 192.53,-136.8 195.68,-130.55"/>
</a>
</g>
</g>
<!-- Node7&#45;&gt;Node9 -->
<g id="edge8_Node000007_Node000009" class="edge">
<title>Node7&#45;&gt;Node9</title>
<g id="a_edge8_Node000007_Node000009"><a xlink:title=" ">
<path fill="none" stroke="#63b8ff" d="M233.8,-164.98C185.91,-154.58 105.79,-137.18 61.28,-127.51"/>
<polygon fill="#63b8ff" stroke="#63b8ff" points="61.82,-124.05 51.3,-125.34 60.33,-130.89 61.82,-124.05"/>
</a>
</g>
</g>
<!-- Node10 -->
<g id="Node000010" class="node">
<title>Node10</title>
<g id="a_Node000010"><a xlink:title=" ">
<polygon fill="#e0e0e0" stroke="#999999" points="267,-19 223,-19 223,0 267,0 267,-19"/>
<text text-anchor="middle" x="245" y="-7" font-family="Helvetica,sans-Serif" font-size="10.00">string</text>
</a>
</g>
</g>
<!-- Node7&#45;&gt;Node10 -->
<g id="edge14_Node000007_Node000010" class="edge">
<title>Node7&#45;&gt;Node10</title>
<g id="a_edge14_Node000007_Node000010"><a xlink:title=" ">
<path fill="none" stroke="#63b8ff" d="M271.17,-164.99C269.28,-156.05 266.28,-141.56 264,-129 257.61,-93.76 251.24,-52.43 247.74,-29.06"/>
<polygon fill="#63b8ff" stroke="#63b8ff" points="251.2,-28.52 246.26,-19.14 244.27,-29.55 251.2,-28.52"/>
</a>
</g>
</g>
<!-- Node31 -->
<g id="Node000031" class="node">
<title>Node31</title>
<g id="a_Node000031"><a xlink:title=" ">
<polygon fill="#e0e0e0" stroke="#999999" points="329,-129 273,-129 273,-110 329,-110 329,-129"/>
<text text-anchor="middle" x="301" y="-117" font-family="Helvetica,sans-Serif" font-size="10.00">optional</text>
</a>
</g>
</g>
<!-- Node7&#45;&gt;Node31 -->
<g id="edge13_Node000007_Node000031" class="edge">
<title>Node7&#45;&gt;Node31</title>
<g id="a_edge13_Node000007_Node000031"><a xlink:title=" ">
<path fill="none" stroke="#63b8ff" d="M277.62,-164.75C281.46,-157.49 287.02,-146.95 291.76,-137.98"/>
<polygon fill="#63b8ff" stroke="#63b8ff" points="294.89,-139.57 296.46,-129.09 288.7,-136.3 294.89,-139.57"/>
</a>
</g>
</g>
<!-- Node9&#45;&gt;Node10 -->
<g id="edge9_Node000009_Node000010" class="edge">
<title>Node9&#45;&gt;Node10</title>
<g id="a_edge9_Node000009_Node000010"><a xlink:title=" ">
<path fill="none" stroke="#63b8ff" d="M31.53,-109.6C35.95,-95.73 46.42,-69.09 65,-55 108.73,-21.85 174.04,-13.11 212.79,-10.98"/>
<polygon fill="#63b8ff" stroke="#63b8ff" points="213.14,-14.47 222.98,-10.54 212.84,-7.48 213.14,-14.47"/>
</a>
</g>
</g>
<!-- Node9&#45;&gt;Node12 -->
<g id="edge10_Node000009_Node000012" class="edge">
<title>Node9&#45;&gt;Node12</title>
<g id="a_edge10_Node000009_Node000012"><a xlink:title=" ">
<path fill="none" stroke="#63b8ff" d="M51.17,-116.4C70,-114.63 97.77,-112.06 122,-110 315.48,-93.54 546.43,-76.01 642.09,-68.84"/>
<polygon fill="#63b8ff" stroke="#63b8ff" points="642.56,-72.32 652.27,-68.08 642.04,-65.34 642.56,-72.32"/>
</a>
</g>
</g>
<!-- Node12&#45;&gt;Node10 -->
<g id="edge11_Node000012_Node000010" class="edge">
<title>Node12&#45;&gt;Node10</title>
<g id="a_edge11_Node000012_Node000010"><a xlink:title=" ">
<path fill="none" stroke="#63b8ff" d="M652.32,-59.34C568.96,-49.35 358.28,-24.08 277.35,-14.38"/>
<polygon fill="#63b8ff" stroke="#63b8ff" points="277.61,-10.88 267.26,-13.17 276.77,-17.83 277.61,-10.88"/>
</a>
</g>
</g>
<!-- Node15 -->
<g id="Node000015" class="node">
<title>Node15</title>
<g id="a_Node000015"><a xlink:title=" ">
<polygon fill="#e0e0e0" stroke="#999999" points="778.5,-19 709.5,-19 709.5,0 778.5,0 778.5,-19"/>
<text text-anchor="middle" x="744" y="-7" font-family="Helvetica,sans-Serif" font-size="10.00">type_traits</text>
</a>
</g>
</g>
<!-- Node12&#45;&gt;Node15 -->
<g id="edge12_Node000012_Node000015" class="edge">
<title>Node12&#45;&gt;Node15</title>
<g id="a_edge12_Node000012_Node000015"><a xlink:title=" ">
<path fill="none" stroke="#63b8ff" d="M696.16,-54.98C704.5,-47.23 717.03,-35.58 727.18,-26.14"/>
<polygon fill="#63b8ff" stroke="#63b8ff" points="729.74,-28.54 734.68,-19.17 724.97,-23.42 729.74,-28.54"/>
</a>
</g>
</g>
<!-- Node32&#45;&gt;Node15 -->
<g id="edge16_Node000032_Node000015" class="edge">
<title>Node32&#45;&gt;Node15</title>
<g id="a_edge16_Node000032_Node000015"><a xlink:title=" ">
<path fill="none" stroke="#63b8ff" d="M590.83,-274.93C596.56,-256.8 609,-213.13 609,-175.5 609,-175.5 609,-175.5 609,-118.5 609,-86.49 619.51,-76.75 643,-55 659.24,-39.96 681.38,-29.44 700.79,-22.41"/>
<polygon fill="#63b8ff" stroke="#63b8ff" points="702.02,-25.69 710.36,-19.15 699.76,-19.06 702.02,-25.69"/>
</a>
</g>
</g>
<!-- Node33 -->
<g id="Node000033" class="node">
<title>Node33</title>
<g id="a_Node000033"><a xlink:href="exception__utils_8h.html" target="_top" xlink:title=" ">
<polygon fill="white" stroke="#666666" points="417,-239 317,-239 317,-220 417,-220 417,-239"/>
<text text-anchor="middle" x="367" y="-227" font-family="Helvetica,sans-Serif" font-size="10.00">exception_utils.h</text>
</a>
</g>
</g>
<!-- Node32&#45;&gt;Node33 -->
<g id="edge17_Node000032_Node000033" class="edge">
<title>Node32&#45;&gt;Node33</title>
<g id="a_edge17_Node000032_Node000033"><a xlink:title=" ">
<path fill="none" stroke="#63b8ff" d="M555.39,-275.68C517.6,-266.62 455.07,-251.62 412.51,-241.41"/>
<polygon fill="#63b8ff" stroke="#63b8ff" points="413.22,-237.98 402.68,-239.06 411.58,-244.79 413.22,-237.98"/>
</a>
</g>
</g>
<!-- Node32&#45;&gt;Node34 -->
<g id="edge21_Node000032_Node000034" class="edge">
<title>Node32&#45;&gt;Node34</title>
<g id="a_edge21_Node000032_Node000034"><a xlink:title=" ">
<path fill="none" stroke="#63b8ff" d="M578.2,-274.98C569.18,-267.15 555.59,-255.34 544.68,-245.86"/>
<polygon fill="#63b8ff" stroke="#63b8ff" points="546.82,-243.09 536.98,-239.17 542.23,-248.37 546.82,-243.09"/>
</a>
</g>
</g>
<!-- Node33&#45;&gt;Node7 -->
<g id="edge20_Node000033_Node000007" class="edge">
<title>Node33&#45;&gt;Node7</title>
<g id="a_edge20_Node000033_Node000007"><a xlink:title=" ">
<path fill="none" stroke="#63b8ff" d="M351.9,-219.98C337.18,-211.69 314.58,-198.94 297.33,-189.22"/>
<polygon fill="#63b8ff" stroke="#63b8ff" points="298.81,-186.03 288.38,-184.17 295.37,-192.13 298.81,-186.03"/>
</a>
</g>
</g>
<!-- Node33&#45;&gt;Node10 -->
<g id="edge18_Node000033_Node000010" class="edge">
<title>Node33&#45;&gt;Node10</title>
<g id="a_edge18_Node000033_Node000010"><a xlink:title=" ">
<path fill="none" stroke="#63b8ff" d="M366.39,-219.93C364.64,-199.66 358.35,-147.63 338,-110 319.21,-75.27 285.36,-43.51 264.1,-25.63"/>
<polygon fill="#63b8ff" stroke="#63b8ff" points="266.04,-22.69 256.1,-19.05 261.6,-28.1 266.04,-22.69"/>
</a>
</g>
</g>
<!-- Node33&#45;&gt;Node12 -->
<g id="edge19_Node000033_Node000012" class="edge">
<title>Node33&#45;&gt;Node12</title>
<g id="a_edge19_Node000033_Node000012"><a xlink:title=" ">
<path fill="none" stroke="#63b8ff" d="M383.75,-219.97C436.23,-193.24 597.68,-111 661.07,-78.71"/>
<polygon fill="#63b8ff" stroke="#63b8ff" points="662.7,-81.8 670.03,-74.15 659.53,-75.57 662.7,-81.8"/>
</a>
</g>
</g>
<!-- Node38&#45;&gt;Node4 -->
<g id="edge33_Node000038_Node000004" class="edge">
<title>Node38&#45;&gt;Node4</title>
<g id="a_edge33_Node000038_Node000004"><a xlink:title=" ">
<path fill="none" stroke="#63b8ff" d="M610.2,-439.98C579.78,-430.66 531.01,-415.72 498.5,-405.76"/>
<polygon fill="#63b8ff" stroke="#63b8ff" points="499.14,-402.3 488.56,-402.72 497.09,-408.99 499.14,-402.3"/>
</a>
</g>
</g>
<!-- Node38&#45;&gt;Node12 -->
<g id="edge32_Node000038_Node000012" class="edge">
<title>Node38&#45;&gt;Node12</title>
<g id="a_edge32_Node000038_Node000012"><a xlink:title=" ">
<path fill="none" stroke="#63b8ff" d="M657.69,-439.94C672.68,-432.48 692.75,-420.29 705,-404 722.78,-380.35 725,-370.09 725,-340.5 725,-340.5 725,-340.5 725,-173.5 725,-140.02 708.55,-103.84 697.3,-83.01"/>
<polygon fill="#63b8ff" stroke="#63b8ff" points="700.24,-81.1 692.28,-74.1 694.13,-84.53 700.24,-81.1"/>
</a>
</g>
</g>
<!-- Node38&#45;&gt;Node15 -->
<g id="edge30_Node000038_Node000015" class="edge">
<title>Node38&#45;&gt;Node15</title>
<g id="a_edge30_Node000038_Node000015"><a xlink:title=" ">
<path fill="none" stroke="#63b8ff" d="M662.7,-439.97C699.12,-425.62 763,-392.98 763,-340.5 763,-340.5 763,-340.5 763,-283.5 763,-187.99 751.28,-74.13 746.25,-29.64"/>
<polygon fill="#63b8ff" stroke="#63b8ff" points="749.7,-28.97 745.08,-19.44 742.74,-29.77 749.7,-28.97"/>
</a>
</g>
</g>
<!-- Node38&#45;&gt;Node37 -->
<g id="edge31_Node000038_Node000037" class="edge">
<title>Node38&#45;&gt;Node37</title>
<g id="a_edge31_Node000038_Node000037"><a xlink:title=" ">
<path fill="none" stroke="#63b8ff" d="M636.11,-439.68C634.26,-430.73 631.51,-416.47 630,-404 628.19,-389.06 627.18,-372.03 626.62,-359.37"/>
<polygon fill="#63b8ff" stroke="#63b8ff" points="630.11,-359.02 626.23,-349.16 623.11,-359.28 630.11,-359.02"/>
</a>
</g>
</g>
<!-- Node39 -->
<g id="Node000039" class="node">
<title>Node39</title>
<g id="a_Node000039"><a xlink:title=" ">
<polygon fill="#e0e0e0" stroke="#999999" points="696.5,-404 639.5,-404 639.5,-385 696.5,-385 696.5,-404"/>
<text text-anchor="middle" x="668" y="-392" font-family="Helvetica,sans-Serif" font-size="10.00">typeinfo</text>
</a>
</g>
</g>
<!-- Node38&#45;&gt;Node39 -->
<g id="edge29_Node000038_Node000039" class="edge">
<title>Node38&#45;&gt;Node39</title>
<g id="a_edge29_Node000038_Node000039"><a xlink:title=" ">
<path fill="none" stroke="#63b8ff" d="M642.95,-439.75C647.06,-432.49 653.03,-421.95 658.1,-412.98"/>
<polygon fill="#63b8ff" stroke="#63b8ff" points="661.26,-414.52 663.14,-404.09 655.17,-411.07 661.26,-414.52"/>
</a>
</g>
</g>
<!-- Node40&#45;&gt;Node10 -->
<g id="edge37_Node000040_Node000010" class="edge">
<title>Node40&#45;&gt;Node10</title>
<g id="a_edge37_Node000040_Node000010"><a xlink:title=" ">
<path fill="none" stroke="#63b8ff" d="M258.25,-439.94C197.5,-422.29 76,-375.7 76,-285.5 76,-285.5 76,-285.5 76,-228.5 76,-172 88.46,-155.46 122,-110 149.42,-72.83 193.89,-41.56 221.18,-24.47"/>
<polygon fill="#63b8ff" stroke="#63b8ff" points="223.36,-27.24 230.06,-19.04 219.71,-21.27 223.36,-27.24"/>
</a>
</g>
</g>
<!-- Node18 -->
<g id="Node000018" class="node">
<title>Node18</title>
<g id="a_Node000018"><a xlink:title=" ">
<polygon fill="#e0e0e0" stroke="#999999" points="228,-404 180,-404 180,-385 228,-385 228,-404"/>
<text text-anchor="middle" x="204" y="-392" font-family="Helvetica,sans-Serif" font-size="10.00">iosfwd</text>
</a>
</g>
</g>
<!-- Node40&#45;&gt;Node18 -->
<g id="edge36_Node000040_Node000018" class="edge">
<title>Node40&#45;&gt;Node18</title>
<g id="a_edge36_Node000040_Node000018"><a xlink:title=" ">
<path fill="none" stroke="#63b8ff" d="M277.86,-439.98C264.21,-431.77 243.31,-419.18 227.22,-409.49"/>
<polygon fill="#63b8ff" stroke="#63b8ff" points="228.77,-406.33 218.4,-404.17 225.16,-412.33 228.77,-406.33"/>
</a>
</g>
</g>
<!-- Node41 -->
<g id="Node000041" class="node">
<title>Node41</title>
<g id="a_Node000041"><a xlink:title=" ">
<polygon fill="#e0e0e0" stroke="#999999" points="340,-404 246,-404 246,-385 340,-385 340,-404"/>
<text text-anchor="middle" x="293" y="-392" font-family="Helvetica,sans-Serif" font-size="10.00">big&#45;int/bigint.hh</text>
</a>
</g>
</g>
<!-- Node40&#45;&gt;Node41 -->
<g id="edge38_Node000040_Node000041" class="edge">
<title>Node40&#45;&gt;Node41</title>
<g id="a_edge38_Node000040_Node000041"><a xlink:title=" ">
<path fill="none" stroke="#63b8ff" d="M292.17,-439.75C292.3,-432.8 292.48,-422.85 292.65,-414.13"/>
<polygon fill="#63b8ff" stroke="#63b8ff" points="296.15,-414.15 292.84,-404.09 289.15,-414.02 296.15,-414.15"/>
</a>
</g>
</g>
<!-- Node43 -->
<g id="Node000043" class="node">
<title>Node43</title>
<g id="a_Node000043"><a xlink:title=" ">
<polygon fill="#e0e0e0" stroke="#999999" points="967,-690 917,-690 917,-671 967,-671 967,-690"/>
<text text-anchor="middle" x="942" y="-678" font-family="Helvetica,sans-Serif" font-size="10.00">cstdint</text>
</a>
</g>
</g>
<!-- Node42&#45;&gt;Node43 -->
<g id="edge42_Node000042_Node000043" class="edge">
<title>Node42&#45;&gt;Node43</title>
<g id="a_edge42_Node000042_Node000043"><a xlink:title=" ">
<path fill="none" stroke="#63b8ff" d="M917.79,-725.75C921.76,-718.49 927.53,-707.95 932.43,-698.98"/>
<polygon fill="#63b8ff" stroke="#63b8ff" points="935.57,-700.54 937.3,-690.09 929.43,-697.18 935.57,-700.54"/>
</a>
</g>
</g>
<!-- Node44&#45;&gt;Node12 -->
<g id="edge44_Node000044_Node000012" class="edge">
<title>Node44&#45;&gt;Node12</title>
<g id="a_edge44_Node000044_Node000012"><a xlink:title=" ">
<path fill="none" stroke="#63b8ff" d="M773.45,-725.8C782.24,-707.77 801,-664.83 801,-626.5 801,-626.5 801,-626.5 801,-283.5 801,-199.84 773.24,-180.37 728,-110 721.35,-99.66 712.22,-89.48 704.26,-81.47"/>
<polygon fill="#63b8ff" stroke="#63b8ff" points="706.44,-78.71 696.82,-74.26 701.56,-83.73 706.44,-78.71"/>
</a>
</g>
</g>
<!-- Node28 -->
<g id="Node000028" class="node">
<title>Node28</title>
<g id="a_Node000028"><a xlink:title=" ">
<polygon fill="#e0e0e0" stroke="#999999" points="773,-690 709,-690 709,-671 773,-671 773,-690"/>
<text text-anchor="middle" x="741" y="-678" font-family="Helvetica,sans-Serif" font-size="10.00">algorithm</text>
</a>
</g>
</g>
<!-- Node44&#45;&gt;Node28 -->
<g id="edge45_Node000044_Node000028" class="edge">
<title>Node44&#45;&gt;Node28</title>
<g id="a_edge45_Node000044_Node000028"><a xlink:title=" ">
<path fill="none" stroke="#63b8ff" d="M764.38,-725.75C760.54,-718.49 754.98,-707.95 750.24,-698.98"/>
<polygon fill="#63b8ff" stroke="#63b8ff" points="753.3,-697.3 745.54,-690.09 747.11,-700.57 753.3,-697.3"/>
</a>
</g>
</g>
<!-- Node44&#45;&gt;Node45 -->
<g id="edge46_Node000044_Node000045" class="edge">
<title>Node44&#45;&gt;Node45</title>
<g id="a_edge46_Node000044_Node000045"><a xlink:title=" ">
<path fill="none" stroke="#63b8ff" d="M787.32,-725.98C806.42,-717.1 836.5,-703.12 857.83,-693.2"/>
<polygon fill="#63b8ff" stroke="#63b8ff" points="859.35,-696.36 866.94,-688.97 856.4,-690.01 859.35,-696.36"/>
</a>
</g>
</g>
<!-- Node46 -->
<g id="Node000046" class="node">
<title>Node46</title>
<g id="a_Node000046"><a xlink:href="c__types_8h.html" target="_top" xlink:title=" ">
<polygon fill="white" stroke="#666666" points="560,-690 478,-690 478,-671 560,-671 560,-690"/>
<text text-anchor="middle" x="519" y="-678" font-family="Helvetica,sans-Serif" font-size="10.00">util/c_types.h</text>
</a>
</g>
</g>
<!-- Node44&#45;&gt;Node46 -->
<g id="edge47_Node000044_Node000046" class="edge">
<title>Node44&#45;&gt;Node46</title>
<g id="a_edge47_Node000044_Node000046"><a xlink:title=" ">
<path fill="none" stroke="#63b8ff" d="M729.39,-726.1C686.03,-716.91 616.42,-702.15 569.26,-692.15"/>
<polygon fill="#63b8ff" stroke="#63b8ff" points="569.76,-688.68 559.26,-690.03 568.31,-695.53 569.76,-688.68"/>
</a>
</g>
</g>
<!-- Node49 -->
<g id="Node000049" class="node">
<title>Node49</title>
<g id="a_Node000049"><a xlink:href="std__expr_8h.html" target="_top" xlink:title="API to expression classes.">
<polygon fill="white" stroke="#666666" points="606.5,-580 539.5,-580 539.5,-561 606.5,-561 606.5,-580"/>
<text text-anchor="middle" x="573" y="-568" font-family="Helvetica,sans-Serif" font-size="10.00">std_expr.h</text>
</a>
</g>
</g>
<!-- Node44&#45;&gt;Node49 -->
<g id="edge59_Node000044_Node000049" class="edge">
<title>Node44&#45;&gt;Node49</title>
<g id="a_edge59_Node000044_Node000049"><a xlink:title=" ">
<path fill="none" stroke="#63b8ff" d="M753.94,-725.85C739.61,-717.37 717.65,-703.75 700,-690 657.01,-656.51 611.44,-611.26 588.34,-587.54"/>
<polygon fill="#63b8ff" stroke="#63b8ff" points="590.62,-584.86 581.15,-580.1 585.59,-589.72 590.62,-584.86"/>
</a>
</g>
</g>
<!-- Node30 -->
<g id="Node000030" class="node">
<title>Node30</title>
<g id="a_Node000030"><a xlink:href="narrow_8h.html" target="_top" xlink:title=" ">
<polygon fill="white" stroke="#666666" points="888.5,-129 829.5,-129 829.5,-110 888.5,-110 888.5,-129"/>
<text text-anchor="middle" x="859" y="-117" font-family="Helvetica,sans-Serif" font-size="10.00">narrow.h</text>
</a>
</g>
</g>
<!-- Node44&#45;&gt;Node30 -->
<g id="edge56_Node000044_Node000030" class="edge">
<title>Node44&#45;&gt;Node30</title>
<g id="a_edge56_Node000044_Node000030"><a xlink:title=" ">
<path fill="none" stroke="#63b8ff" d="M780.61,-725.75C790.86,-717.5 805.6,-704.3 815,-690 831.58,-664.79 839,-656.67 839,-626.5 839,-626.5 839,-626.5 839,-228.5 839,-196.51 847.59,-160.07 853.51,-138.75"/>
<polygon fill="#63b8ff" stroke="#63b8ff" points="856.89,-139.66 856.3,-129.08 850.16,-137.71 856.89,-139.66"/>
</a>
</g>
</g>
<!-- Node46&#45;&gt;Node8 -->
<g id="edge48_Node000046_Node000008" class="edge">
<title>Node46&#45;&gt;Node8</title>
<g id="a_edge48_Node000046_Node000008"><a xlink:title=" ">
<path fill="none" stroke="#63b8ff" d="M499.38,-670.88C428.08,-639.16 184.32,-527.26 136,-459 105.05,-415.28 114,-394.07 114,-340.5 114,-340.5 114,-340.5 114,-228.5 114,-192.89 137.77,-156.99 153.77,-136.86"/>
<polygon fill="#63b8ff" stroke="#63b8ff" points="156.59,-138.95 160.26,-129.01 151.19,-134.49 156.59,-138.95"/>
</a>
</g>
</g>
<!-- Node47 -->
<g id="Node000047" class="node">
<title>Node47</title>
<g id="a_Node000047"><a xlink:href="pointer__expr_8h.html" target="_top" xlink:title="API to expression classes for Pointers.">
<polygon fill="white" stroke="#666666" points="562,-635 476,-635 476,-616 562,-616 562,-635"/>
<text text-anchor="middle" x="519" y="-623" font-family="Helvetica,sans-Serif" font-size="10.00">pointer_expr.h</text>
</a>
</g>
</g>
<!-- Node46&#45;&gt;Node47 -->
<g id="edge49_Node000046_Node000047" class="edge">
<title>Node46&#45;&gt;Node47</title>
<g id="a_edge49_Node000046_Node000047"><a xlink:title=" ">
<path fill="none" stroke="#63b8ff" d="M519,-670.75C519,-663.8 519,-653.85 519,-645.13"/>
<polygon fill="#63b8ff" stroke="#63b8ff" points="522.5,-645.09 519,-635.09 515.5,-645.09 522.5,-645.09"/>
</a>
</g>
</g>
<!-- Node48 -->
<g id="Node000048" class="node">
<title>Node48</title>
<g id="a_Node000048"><a xlink:href="bitvector__types_8h.html" target="_top" xlink:title="Pre&#45;defined bitvector types.">
<polygon fill="white" stroke="#666666" points="518.5,-580 417.5,-580 417.5,-561 518.5,-561 518.5,-580"/>
<text text-anchor="middle" x="468" y="-568" font-family="Helvetica,sans-Serif" font-size="10.00">bitvector_types.h</text>
</a>
</g>
</g>
<!-- Node47&#45;&gt;Node48 -->
<g id="edge50_Node000047_Node000048" class="edge">
<title>Node47&#45;&gt;Node48</title>
<g id="a_edge50_Node000047_Node000048"><a xlink:title=" ">
<path fill="none" stroke="#63b8ff" d="M510.58,-615.75C503.23,-608.11 492.37,-596.82 483.46,-587.56"/>
<polygon fill="#63b8ff" stroke="#63b8ff" points="485.72,-584.87 476.26,-580.09 480.68,-589.72 485.72,-584.87"/>
</a>
</g>
</g>
<!-- Node47&#45;&gt;Node49 -->
<g id="edge52_Node000047_Node000049" class="edge">
<title>Node47&#45;&gt;Node49</title>
<g id="a_edge52_Node000047_Node000049"><a xlink:title=" ">
<path fill="none" stroke="#63b8ff" d="M527.92,-615.75C535.78,-608.03 547.43,-596.6 556.92,-587.28"/>
<polygon fill="#63b8ff" stroke="#63b8ff" points="559.56,-589.59 564.25,-580.09 554.66,-584.6 559.56,-589.59"/>
</a>
</g>
</g>
<!-- Node48&#45;&gt;Node3 -->
<g id="edge51_Node000048_Node000003" class="edge">
<title>Node48&#45;&gt;Node3</title>
<g id="a_edge51_Node000048_Node000003"><a xlink:title=" ">
<path fill="none" stroke="#63b8ff" d="M467.56,-560.87C467.14,-552.75 466.5,-540.31 465.97,-529.89"/>
<polygon fill="#63b8ff" stroke="#63b8ff" points="469.45,-529.47 465.44,-519.67 462.46,-529.83 469.45,-529.47"/>
</a>
</g>
</g>
<!-- Node49&#45;&gt;Node3 -->
<g id="edge55_Node000049_Node000003" class="edge">
<title>Node49&#45;&gt;Node3</title>
<g id="a_edge55_Node000049_Node000003"><a xlink:title=" ">
<path fill="none" stroke="#63b8ff" d="M557.06,-560.87C539.36,-551.28 510.54,-535.67 489.86,-524.47"/>
<polygon fill="#63b8ff" stroke="#63b8ff" points="491.46,-521.35 481,-519.67 488.13,-527.51 491.46,-521.35"/>
</a>
</g>
</g>
<!-- Node49&#45;&gt;Node12 -->
<g id="edge54_Node000049_Node000012" class="edge">
<title>Node49&#45;&gt;Node12</title>
<g id="a_edge54_Node000049_Node000012"><a xlink:title=" ">
<path fill="none" stroke="#63b8ff" d="M572.93,-560.98C573.03,-539.76 575.02,-483.13 592,-440 602.89,-412.35 610.82,-407.69 630,-385 644.81,-367.48 654.97,-368.53 667,-349 682.52,-323.81 687,-315.09 687,-285.5 687,-285.5 687,-285.5 687,-173.5 687,-142.19 687,-105.77 687,-84.23"/>
<polygon fill="#63b8ff" stroke="#63b8ff" points="690.5,-84.18 687,-74.18 683.5,-84.18 690.5,-84.18"/>
</a>
</g>
</g>
<!-- Node49&#45;&gt;Node38 -->
<g id="edge53_Node000049_Node000038" class="edge">
<title>Node49&#45;&gt;Node38</title>
<g id="a_edge53_Node000049_Node000038"><a xlink:title=" ">
<path fill="none" stroke="#63b8ff" d="M577.67,-560.94C588.26,-541.57 614.23,-494.02 628.4,-468.08"/>
<polygon fill="#63b8ff" stroke="#63b8ff" points="631.47,-469.76 633.19,-459.3 625.33,-466.4 631.47,-469.76"/>
</a>
</g>
</g>
<!-- Node30&#45;&gt;Node12 -->
<g id="edge58_Node000030_Node000012" class="edge">
<title>Node30&#45;&gt;Node12</title>
<g id="a_edge58_Node000030_Node000012"><a xlink:title=" ">
<path fill="none" stroke="#63b8ff" d="M831.37,-109.98C802.49,-101.09 756.99,-87.07 724.8,-77.15"/>
<polygon fill="#63b8ff" stroke="#63b8ff" points="725.44,-73.68 714.85,-74.08 723.38,-80.37 725.44,-73.68"/>
</a>
</g>
</g>
<!-- Node30&#45;&gt;Node15 -->
<g id="edge57_Node000030_Node000015" class="edge">
<title>Node30&#45;&gt;Node15</title>
<g id="a_edge57_Node000030_Node000015"><a xlink:title=" ">
<path fill="none" stroke="#63b8ff" d="M854.52,-109.88C847.45,-96.84 832.65,-71.86 815,-55 802.01,-42.59 785.03,-31.8 770.93,-23.95"/>
<polygon fill="#63b8ff" stroke="#63b8ff" points="772.18,-20.65 761.71,-19 768.87,-26.82 772.18,-20.65"/>
</a>
</g>
</g>
<!-- Node51&#45;&gt;Node9 -->
<g id="edge65_Node000051_Node000009" class="edge">
<title>Node51&#45;&gt;Node9</title>
<g id="a_edge65_Node000051_Node000009"><a xlink:title=" ">
<path fill="none" stroke="#63b8ff" d="M83.13,-494.78C66.04,-474.38 38,-434.89 38,-395.5 38,-395.5 38,-395.5 38,-228.5 38,-197.08 34.17,-160.7 31.51,-139.2"/>
<polygon fill="#63b8ff" stroke="#63b8ff" points="34.96,-138.63 30.21,-129.16 28.02,-139.52 34.96,-138.63"/>
</a>
</g>
</g>
<!-- Node51&#45;&gt;Node23 -->
<g id="edge64_Node000051_Node000023" class="edge">
<title>Node51&#45;&gt;Node23</title>
<g id="a_edge64_Node000051_Node000023"><a xlink:title=" ">
<path fill="none" stroke="#63b8ff" d="M119.24,-494.84C134.4,-485.6 154.11,-473.59 169.19,-464.4"/>
<polygon fill="#63b8ff" stroke="#63b8ff" points="171.18,-467.29 177.9,-459.09 167.54,-461.31 171.18,-467.29"/>
</a>
</g>
</g>
</g>
</svg>
