<?xml version="1.0" encoding="UTF-8" standalone="no"?>
<!DOCTYPE svg PUBLIC "-//W3C//DTD SVG 1.1//EN"
 "http://www.w3.org/Graphics/SVG/1.1/DTD/svg11.dtd">
<!-- Generated by graphviz version 2.43.0 (0)
 -->
<!-- Title: /home/runner/work/cbmc/cbmc/src/langapi/language_file.h Pages: 1 -->
<svg width="578pt" height="599pt"
 viewBox="0.00 0.00 578.00 599.00" xmlns="http://www.w3.org/2000/svg" xmlns:xlink="http://www.w3.org/1999/xlink">
<g id="graph0" class="graph" transform="scale(1 1) rotate(0) translate(4 595)">
<title>/home/runner/work/cbmc/cbmc/src/langapi/language_file.h</title>
<!-- Node1 -->
<g id="Node000001" class="node">
<title>Node1</title>
<g id="a_Node000001"><a xlink:title=" ">
<polygon fill="#999999" stroke="#666666" points="345,-591 195,-591 195,-550 345,-550 345,-591"/>
<text text-anchor="start" x="203" y="-579" font-family="Helvetica,sans-Serif" font-size="10.00">/home/runner/work/cbmc</text>
<text text-anchor="start" x="203" y="-568" font-family="Helvetica,sans-Serif" font-size="10.00">/cbmc/src/langapi/language</text>
<text text-anchor="middle" x="270" y="-557" font-family="Helvetica,sans-Serif" font-size="10.00">_file.h</text>
</a>
</g>
</g>
<!-- Node2 -->
<g id="Node000002" class="node">
<title>Node2</title>
<g id="a_Node000002"><a xlink:title=" ">
<polygon fill="#e0e0e0" stroke="#999999" points="183,-404 135,-404 135,-385 183,-385 183,-404"/>
<text text-anchor="middle" x="159" y="-392" font-family="Helvetica,sans-Serif" font-size="10.00">iosfwd</text>
</a>
</g>
</g>
<!-- Node1&#45;&gt;Node2 -->
<g id="edge1_Node000001_Node000002" class="edge">
<title>Node1&#45;&gt;Node2</title>
<g id="a_edge1_Node000001_Node000002"><a xlink:title=" ">
<path fill="none" stroke="#63b8ff" d="M227.45,-549.76C211.09,-540.62 193.2,-528.54 180,-514 156.46,-488.08 150.66,-474.93 153,-440 153.57,-431.54 154.74,-422.24 155.89,-414.34"/>
<polygon fill="#63b8ff" stroke="#63b8ff" points="159.37,-414.75 157.45,-404.33 152.45,-413.67 159.37,-414.75"/>
</a>
</g>
</g>
<!-- Node3 -->
<g id="Node000003" class="node">
<title>Node3</title>
<g id="a_Node000003"><a xlink:title=" ">
<polygon fill="#e0e0e0" stroke="#999999" points="200,-459 162,-459 162,-440 200,-440 200,-459"/>
<text text-anchor="middle" x="181" y="-447" font-family="Helvetica,sans-Serif" font-size="10.00">map</text>
</a>
</g>
</g>
<!-- Node1&#45;&gt;Node3 -->
<g id="edge2_Node000001_Node000003" class="edge">
<title>Node1&#45;&gt;Node3</title>
<g id="a_edge2_Node000001_Node000003"><a xlink:title=" ">
<path fill="none" stroke="#63b8ff" d="M229.68,-549.94C215.27,-540.96 200.31,-528.94 191,-514 182.69,-500.67 180.5,-482.8 180.2,-469.41"/>
<polygon fill="#63b8ff" stroke="#63b8ff" points="183.71,-469.07 180.33,-459.03 176.71,-468.99 183.71,-469.07"/>
</a>
</g>
</g>
<!-- Node4 -->
<g id="Node000004" class="node">
<title>Node4</title>
<g id="a_Node000004"><a xlink:title=" ">
<polygon fill="#e0e0e0" stroke="#999999" points="416,-514 358,-514 358,-495 416,-495 416,-514"/>
<text text-anchor="middle" x="387" y="-502" font-family="Helvetica,sans-Serif" font-size="10.00">memory</text>
</a>
</g>
</g>
<!-- Node1&#45;&gt;Node4 -->
<g id="edge3_Node000001_Node000004" class="edge">
<title>Node1&#45;&gt;Node4</title>
<g id="a_edge3_Node000001_Node000004"><a xlink:title=" ">
<path fill="none" stroke="#63b8ff" d="M305.74,-549.95C324.05,-539.93 345.89,-527.99 362.32,-519"/>
<polygon fill="#63b8ff" stroke="#63b8ff" points="364.2,-521.96 371.29,-514.09 360.84,-515.82 364.2,-521.96"/>
</a>
</g>
</g>
<!-- Node5 -->
<g id="Node000005" class="node">
<title>Node5</title>
<g id="a_Node000005"><a xlink:title=" ">
<polygon fill="#e0e0e0" stroke="#999999" points="466,-514 434,-514 434,-495 466,-495 466,-514"/>
<text text-anchor="middle" x="450" y="-502" font-family="Helvetica,sans-Serif" font-size="10.00">set</text>
</a>
</g>
</g>
<!-- Node1&#45;&gt;Node5 -->
<g id="edge4_Node000001_Node000005" class="edge">
<title>Node1&#45;&gt;Node5</title>
<g id="a_edge4_Node000001_Node000005"><a xlink:title=" ">
<path fill="none" stroke="#63b8ff" d="M324.98,-549.95C358.02,-538.2 398.52,-523.8 424.3,-514.64"/>
<polygon fill="#63b8ff" stroke="#63b8ff" points="425.48,-517.93 433.73,-511.28 423.14,-511.34 425.48,-517.93"/>
</a>
</g>
</g>
<!-- Node6 -->
<g id="Node000006" class="node">
<title>Node6</title>
<g id="a_Node000006"><a xlink:title=" ">
<polygon fill="#e0e0e0" stroke="#999999" points="110,-19 66,-19 66,0 110,0 110,-19"/>
<text text-anchor="middle" x="88" y="-7" font-family="Helvetica,sans-Serif" font-size="10.00">string</text>
</a>
</g>
</g>
<!-- Node1&#45;&gt;Node6 -->
<g id="edge5_Node000001_Node000006" class="edge">
<title>Node1&#45;&gt;Node6</title>
<g id="a_edge5_Node000001_Node000006"><a xlink:title=" ">
<path fill="none" stroke="#63b8ff" d="M194.79,-567.37C114.9,-560.62 0,-536.05 0,-450.5 0,-450.5 0,-450.5 0,-118.5 0,-77.39 38.79,-43.26 64.86,-24.97"/>
<polygon fill="#63b8ff" stroke="#63b8ff" points="67.13,-27.66 73.47,-19.17 63.22,-21.85 67.13,-27.66"/>
</a>
</g>
</g>
<!-- Node7 -->
<g id="Node000007" class="node">
<title>Node7</title>
<g id="a_Node000007"><a xlink:title=" ">
<polygon fill="#e0e0e0" stroke="#999999" points="570,-514 484,-514 484,-495 570,-495 570,-514"/>
<text text-anchor="middle" x="527" y="-502" font-family="Helvetica,sans-Serif" font-size="10.00">unordered_set</text>
</a>
</g>
</g>
<!-- Node1&#45;&gt;Node7 -->
<g id="edge6_Node000001_Node000007" class="edge">
<title>Node1&#45;&gt;Node7</title>
<g id="a_edge6_Node000001_Node000007"><a xlink:title=" ">
<path fill="none" stroke="#63b8ff" d="M345.03,-550.82C389.58,-539.72 444.58,-526.03 482.38,-516.61"/>
<polygon fill="#63b8ff" stroke="#63b8ff" points="483.7,-519.89 492.56,-514.08 482.01,-513.1 483.7,-519.89"/>
</a>
</g>
</g>
<!-- Node8 -->
<g id="Node000008" class="node">
<title>Node8</title>
<g id="a_Node000008"><a xlink:href="symbol__table__base_8h.html" target="_top" xlink:title="Author: Diffblue Ltd.">
<polygon fill="white" stroke="#666666" points="339.5,-514 200.5,-514 200.5,-495 339.5,-495 339.5,-514"/>
<text text-anchor="middle" x="270" y="-502" font-family="Helvetica,sans-Serif" font-size="10.00">util/symbol_table_base.h</text>
</a>
</g>
</g>
<!-- Node1&#45;&gt;Node8 -->
<g id="edge7_Node000001_Node000008" class="edge">
<title>Node1&#45;&gt;Node8</title>
<g id="a_edge7_Node000001_Node000008"><a xlink:title=" ">
<path fill="none" stroke="#63b8ff" d="M270,-549.95C270,-541.85 270,-532.5 270,-524.47"/>
<polygon fill="#63b8ff" stroke="#63b8ff" points="273.5,-524.26 270,-514.26 266.5,-524.26 273.5,-524.26"/>
</a>
</g>
</g>
<!-- Node8&#45;&gt;Node3 -->
<g id="edge37_Node000008_Node000003" class="edge">
<title>Node8&#45;&gt;Node3</title>
<g id="a_edge37_Node000008_Node000003"><a xlink:title=" ">
<path fill="none" stroke="#63b8ff" d="M255.7,-494.98C241.9,-486.77 220.76,-474.18 204.49,-464.49"/>
<polygon fill="#63b8ff" stroke="#63b8ff" points="205.94,-461.28 195.56,-459.17 202.36,-467.29 205.94,-461.28"/>
</a>
</g>
</g>
<!-- Node9 -->
<g id="Node000009" class="node">
<title>Node9</title>
<g id="a_Node000009"><a xlink:href="symbol_8h.html" target="_top" xlink:title="Symbol table entry.">
<polygon fill="white" stroke="#666666" points="280,-459 218,-459 218,-440 280,-440 280,-459"/>
<text text-anchor="middle" x="249" y="-447" font-family="Helvetica,sans-Serif" font-size="10.00">symbol.h</text>
</a>
</g>
</g>
<!-- Node8&#45;&gt;Node9 -->
<g id="edge8_Node000008_Node000009" class="edge">
<title>Node8&#45;&gt;Node9</title>
<g id="a_edge8_Node000008_Node000009"><a xlink:title=" ">
<path fill="none" stroke="#63b8ff" d="M266.53,-494.75C263.72,-487.65 259.66,-477.4 256.15,-468.56"/>
<polygon fill="#63b8ff" stroke="#63b8ff" points="259.34,-467.1 252.4,-459.09 252.83,-469.68 259.34,-467.1"/>
</a>
</g>
</g>
<!-- Node26 -->
<g id="Node000026" class="node">
<title>Node26</title>
<g id="a_Node000026"><a xlink:title=" ">
<polygon fill="#e0e0e0" stroke="#999999" points="330,-459 298,-459 298,-440 330,-440 330,-459"/>
<text text-anchor="middle" x="314" y="-447" font-family="Helvetica,sans-Serif" font-size="10.00">list</text>
</a>
</g>
</g>
<!-- Node8&#45;&gt;Node26 -->
<g id="edge36_Node000008_Node000026" class="edge">
<title>Node8&#45;&gt;Node26</title>
<g id="a_edge36_Node000008_Node000026"><a xlink:title=" ">
<path fill="none" stroke="#63b8ff" d="M277.27,-494.75C283.54,-487.18 292.79,-476.05 300.43,-466.84"/>
<polygon fill="#63b8ff" stroke="#63b8ff" points="303.17,-469.02 306.87,-459.09 297.79,-464.55 303.17,-469.02"/>
</a>
</g>
</g>
<!-- Node27 -->
<g id="Node000027" class="node">
<title>Node27</title>
<g id="a_Node000027"><a xlink:title=" ">
<polygon fill="#e0e0e0" stroke="#999999" points="441.5,-459 348.5,-459 348.5,-440 441.5,-440 441.5,-459"/>
<text text-anchor="middle" x="395" y="-447" font-family="Helvetica,sans-Serif" font-size="10.00">unordered_map</text>
</a>
</g>
</g>
<!-- Node8&#45;&gt;Node27 -->
<g id="edge38_Node000008_Node000027" class="edge">
<title>Node8&#45;&gt;Node27</title>
<g id="a_edge38_Node000008_Node000027"><a xlink:title=" ">
<path fill="none" stroke="#63b8ff" d="M290.08,-494.98C310.37,-486.38 341.96,-472.99 365.17,-463.15"/>
<polygon fill="#63b8ff" stroke="#63b8ff" points="366.71,-466.3 374.55,-459.17 363.98,-459.85 366.71,-466.3"/>
</a>
</g>
</g>
<!-- Node9&#45;&gt;Node2 -->
<g id="edge9_Node000009_Node000002" class="edge">
<title>Node9&#45;&gt;Node2</title>
<g id="a_edge9_Node000009_Node000002"><a xlink:title=" ">
<path fill="none" stroke="#63b8ff" d="M234.54,-439.98C220.58,-431.77 199.21,-419.18 182.75,-409.49"/>
<polygon fill="#63b8ff" stroke="#63b8ff" points="184.12,-406.23 173.72,-404.17 180.56,-412.26 184.12,-406.23"/>
</a>
</g>
</g>
<!-- Node10 -->
<g id="Node000010" class="node">
<title>Node10</title>
<g id="a_Node000010"><a xlink:href="expr_8h.html" target="_top" xlink:title=" ">
<polygon fill="white" stroke="#666666" points="272.5,-404 225.5,-404 225.5,-385 272.5,-385 272.5,-404"/>
<text text-anchor="middle" x="249" y="-392" font-family="Helvetica,sans-Serif" font-size="10.00">expr.h</text>
</a>
</g>
</g>
<!-- Node9&#45;&gt;Node10 -->
<g id="edge10_Node000009_Node000010" class="edge">
<title>Node9&#45;&gt;Node10</title>
<g id="a_edge10_Node000009_Node000010"><a xlink:title=" ">
<path fill="none" stroke="#63b8ff" d="M249,-439.75C249,-432.8 249,-422.85 249,-414.13"/>
<polygon fill="#63b8ff" stroke="#63b8ff" points="252.5,-414.09 249,-404.09 245.5,-414.09 252.5,-414.09"/>
</a>
</g>
</g>
<!-- Node17 -->
<g id="Node000017" class="node">
<title>Node17</title>
<g id="a_Node000017"><a xlink:href="src_2util_2invariant_8h.html" target="_top" xlink:title=" ">
<polygon fill="#fff0f0" stroke="red" points="394.5,-74 325.5,-74 325.5,-55 394.5,-55 394.5,-74"/>
<text text-anchor="middle" x="360" y="-62" font-family="Helvetica,sans-Serif" font-size="10.00">invariant.h</text>
</a>
</g>
</g>
<!-- Node9&#45;&gt;Node17 -->
<g id="edge35_Node000009_Node000017" class="edge">
<title>Node9&#45;&gt;Node17</title>
<g id="a_edge35_Node000009_Node000017"><a xlink:title=" ">
<path fill="none" stroke="#63b8ff" d="M280.23,-440.95C358.53,-421.58 557,-369.61 557,-340.5 557,-340.5 557,-340.5 557,-173.5 557,-104.51 462.95,-79.3 404.82,-70.3"/>
<polygon fill="#63b8ff" stroke="#63b8ff" points="405.16,-66.82 394.77,-68.85 404.16,-73.74 405.16,-66.82"/>
</a>
</g>
</g>
<!-- Node11 -->
<g id="Node000011" class="node">
<title>Node11</title>
<g id="a_Node000011"><a xlink:href="as__const_8h.html" target="_top" xlink:title=" ">
<polygon fill="white" stroke="#666666" points="529,-349 461,-349 461,-330 529,-330 529,-349"/>
<text text-anchor="middle" x="495" y="-337" font-family="Helvetica,sans-Serif" font-size="10.00">as_const.h</text>
</a>
</g>
</g>
<!-- Node10&#45;&gt;Node11 -->
<g id="edge11_Node000010_Node000011" class="edge">
<title>Node10&#45;&gt;Node11</title>
<g id="a_edge11_Node000010_Node000011"><a xlink:title=" ">
<path fill="none" stroke="#63b8ff" d="M272.59,-388.42C313.63,-379.58 398.76,-361.23 450.98,-349.98"/>
<polygon fill="#63b8ff" stroke="#63b8ff" points="451.93,-353.36 460.96,-347.83 450.45,-346.52 451.93,-353.36"/>
</a>
</g>
</g>
<!-- Node12 -->
<g id="Node000012" class="node">
<title>Node12</title>
<g id="a_Node000012"><a xlink:href="type_8h.html" target="_top" xlink:title="Defines typet, type_with_subtypet and type_with_subtypest.">
<polygon fill="white" stroke="#666666" points="173.5,-349 126.5,-349 126.5,-330 173.5,-330 173.5,-349"/>
<text text-anchor="middle" x="150" y="-337" font-family="Helvetica,sans-Serif" font-size="10.00">type.h</text>
</a>
</g>
</g>
<!-- Node10&#45;&gt;Node12 -->
<g id="edge12_Node000010_Node000012" class="edge">
<title>Node10&#45;&gt;Node12</title>
<g id="a_edge12_Node000010_Node000012"><a xlink:title=" ">
<path fill="none" stroke="#63b8ff" d="M233.09,-384.98C217.45,-376.61 193.34,-363.7 175.12,-353.95"/>
<polygon fill="#63b8ff" stroke="#63b8ff" points="176.66,-350.8 166.2,-349.17 173.36,-356.98 176.66,-350.8"/>
</a>
</g>
</g>
<!-- Node38 -->
<g id="Node000038" class="node">
<title>Node38</title>
<g id="a_Node000038"><a xlink:href="validation__mode_8h.html" target="_top" xlink:title=" ">
<polygon fill="white" stroke="#666666" points="135.5,-239 28.5,-239 28.5,-220 135.5,-220 135.5,-239"/>
<text text-anchor="middle" x="82" y="-227" font-family="Helvetica,sans-Serif" font-size="10.00">validation_mode.h</text>
</a>
</g>
</g>
<!-- Node10&#45;&gt;Node38 -->
<g id="edge33_Node000010_Node000038" class="edge">
<title>Node10&#45;&gt;Node38</title>
<g id="a_edge33_Node000010_Node000038"><a xlink:title=" ">
<path fill="none" stroke="#63b8ff" d="M225.28,-388.27C191.55,-380.4 132.14,-364.72 117,-349 90.68,-321.66 84.02,-275.52 82.42,-249.62"/>
<polygon fill="#63b8ff" stroke="#63b8ff" points="85.9,-249.12 81.99,-239.28 78.91,-249.42 85.9,-249.12"/>
</a>
</g>
</g>
<!-- Node39 -->
<g id="Node000039" class="node">
<title>Node39</title>
<g id="a_Node000039"><a xlink:href="validate__types_8h.html" target="_top" xlink:title=" ">
<polygon fill="white" stroke="#666666" points="374,-294 276,-294 276,-275 374,-275 374,-294"/>
<text text-anchor="middle" x="325" y="-282" font-family="Helvetica,sans-Serif" font-size="10.00">validate_types.h</text>
</a>
</g>
</g>
<!-- Node10&#45;&gt;Node39 -->
<g id="edge32_Node000010_Node000039" class="edge">
<title>Node10&#45;&gt;Node39</title>
<g id="a_edge32_Node000010_Node000039"><a xlink:title=" ">
<path fill="none" stroke="#63b8ff" d="M239.9,-384.82C227.75,-372.14 209.06,-348.1 221,-330 231.45,-314.16 248.82,-303.94 266.41,-297.35"/>
<polygon fill="#63b8ff" stroke="#63b8ff" points="267.8,-300.58 276.15,-294.05 265.56,-293.95 267.8,-300.58"/>
</a>
</g>
</g>
<!-- Node40 -->
<g id="Node000040" class="node">
<title>Node40</title>
<g id="a_Node000040"><a xlink:href="validate__expressions_8h.html" target="_top" xlink:title=" ">
<polygon fill="white" stroke="#666666" points="359.5,-349 230.5,-349 230.5,-330 359.5,-330 359.5,-349"/>
<text text-anchor="middle" x="295" y="-337" font-family="Helvetica,sans-Serif" font-size="10.00">validate_expressions.h</text>
</a>
</g>
</g>
<!-- Node10&#45;&gt;Node40 -->
<g id="edge31_Node000010_Node000040" class="edge">
<title>Node10&#45;&gt;Node40</title>
<g id="a_edge31_Node000010_Node000040"><a xlink:title=" ">
<path fill="none" stroke="#63b8ff" d="M256.6,-384.75C263.16,-377.18 272.82,-366.05 280.81,-356.84"/>
<polygon fill="#63b8ff" stroke="#63b8ff" points="283.63,-358.94 287.55,-349.09 278.35,-354.35 283.63,-358.94"/>
</a>
</g>
</g>
<!-- Node41 -->
<g id="Node000041" class="node">
<title>Node41</title>
<g id="a_Node000041"><a xlink:title=" ">
<polygon fill="#e0e0e0" stroke="#999999" points="442.5,-349 377.5,-349 377.5,-330 442.5,-330 442.5,-349"/>
<text text-anchor="middle" x="410" y="-337" font-family="Helvetica,sans-Serif" font-size="10.00">functional</text>
</a>
</g>
</g>
<!-- Node10&#45;&gt;Node41 -->
<g id="edge34_Node000010_Node000041" class="edge">
<title>Node10&#45;&gt;Node41</title>
<g id="a_edge34_Node000010_Node000041"><a xlink:title=" ">
<path fill="none" stroke="#63b8ff" d="M272.76,-385.68C299.59,-376.85 343.55,-362.38 374.47,-352.2"/>
<polygon fill="#63b8ff" stroke="#63b8ff" points="375.61,-355.51 384.01,-349.06 373.42,-348.86 375.61,-355.51"/>
</a>
</g>
</g>
<!-- Node13 -->
<g id="Node000013" class="node">
<title>Node13</title>
<g id="a_Node000013"><a xlink:href="source__location_8h.html" target="_top" xlink:title=" ">
<polygon fill="white" stroke="#666666" points="211,-184 109,-184 109,-165 211,-165 211,-184"/>
<text text-anchor="middle" x="160" y="-172" font-family="Helvetica,sans-Serif" font-size="10.00">source_location.h</text>
</a>
</g>
</g>
<!-- Node12&#45;&gt;Node13 -->
<g id="edge13_Node000012_Node000013" class="edge">
<title>Node12&#45;&gt;Node13</title>
<g id="a_edge13_Node000012_Node000013"><a xlink:title=" ">
<path fill="none" stroke="#63b8ff" d="M150.54,-329.74C152.1,-304.31 156.65,-230.08 158.82,-194.69"/>
<polygon fill="#63b8ff" stroke="#63b8ff" points="162.34,-194.5 159.46,-184.31 155.35,-194.07 162.34,-194.5"/>
</a>
</g>
</g>
<!-- Node36 -->
<g id="Node000036" class="node">
<title>Node36</title>
<g id="a_Node000036"><a xlink:href="validate_8h.html" target="_top" xlink:title=" ">
<polygon fill="white" stroke="#666666" points="257.5,-294 192.5,-294 192.5,-275 257.5,-275 257.5,-294"/>
<text text-anchor="middle" x="225" y="-282" font-family="Helvetica,sans-Serif" font-size="10.00">validate.h</text>
</a>
</g>
</g>
<!-- Node12&#45;&gt;Node36 -->
<g id="edge22_Node000012_Node000036" class="edge">
<title>Node12&#45;&gt;Node36</title>
<g id="a_edge22_Node000012_Node000036"><a xlink:title=" ">
<path fill="none" stroke="#63b8ff" d="M162.05,-329.98C173.46,-321.92 190.83,-309.65 204.43,-300.03"/>
<polygon fill="#63b8ff" stroke="#63b8ff" points="206.58,-302.8 212.73,-294.17 202.54,-297.08 206.58,-302.8"/>
</a>
</g>
</g>
<!-- Node12&#45;&gt;Node38 -->
<g id="edge30_Node000012_Node000038" class="edge">
<title>Node12&#45;&gt;Node38</title>
<g id="a_edge30_Node000012_Node000038"><a xlink:title=" ">
<path fill="none" stroke="#63b8ff" d="M144.44,-329.66C133.17,-311.77 107.5,-271 92.83,-247.69"/>
<polygon fill="#63b8ff" stroke="#63b8ff" points="95.74,-245.76 87.45,-239.16 89.82,-249.49 95.74,-245.76"/>
</a>
</g>
</g>
<!-- Node12&#45;&gt;Node39 -->
<g id="edge29_Node000012_Node000039" class="edge">
<title>Node12&#45;&gt;Node39</title>
<g id="a_edge29_Node000012_Node000039"><a xlink:title=" ">
<path fill="none" stroke="#63b8ff" d="M173.6,-331.35C202.73,-322.53 252.62,-307.42 287.13,-296.97"/>
<polygon fill="#63b8ff" stroke="#63b8ff" points="288.31,-300.27 296.86,-294.02 286.28,-293.57 288.31,-300.27"/>
</a>
</g>
</g>
<!-- Node13&#45;&gt;Node6 -->
<g id="edge21_Node000013_Node000006" class="edge">
<title>Node13&#45;&gt;Node6</title>
<g id="a_edge21_Node000013_Node000006"><a xlink:title=" ">
<path fill="none" stroke="#63b8ff" d="M112.15,-164.99C91.53,-158.7 69.36,-147.8 57,-129 36.17,-97.31 59.4,-52.27 75.42,-27.85"/>
<polygon fill="#63b8ff" stroke="#63b8ff" points="78.52,-29.53 81.29,-19.3 72.75,-25.56 78.52,-29.53"/>
</a>
</g>
</g>
<!-- Node14 -->
<g id="Node000014" class="node">
<title>Node14</title>
<g id="a_Node000014"><a xlink:href="deprecate_8h.html" target="_top" xlink:title=" ">
<polygon fill="white" stroke="#666666" points="276,-129 202,-129 202,-110 276,-110 276,-129"/>
<text text-anchor="middle" x="239" y="-117" font-family="Helvetica,sans-Serif" font-size="10.00">deprecate.h</text>
</a>
</g>
</g>
<!-- Node13&#45;&gt;Node14 -->
<g id="edge14_Node000013_Node000014" class="edge">
<title>Node13&#45;&gt;Node14</title>
<g id="a_edge14_Node000013_Node000014"><a xlink:title=" ">
<path fill="none" stroke="#63b8ff" d="M172.69,-164.98C184.83,-156.84 203.36,-144.41 217.75,-134.76"/>
<polygon fill="#63b8ff" stroke="#63b8ff" points="219.72,-137.65 226.08,-129.17 215.82,-131.84 219.72,-137.65"/>
</a>
</g>
</g>
<!-- Node15 -->
<g id="Node000015" class="node">
<title>Node15</title>
<g id="a_Node000015"><a xlink:href="irep_8h.html" target="_top" xlink:title=" ">
<polygon fill="#fff0f0" stroke="red" points="110,-129 66,-129 66,-110 110,-110 110,-129"/>
<text text-anchor="middle" x="88" y="-117" font-family="Helvetica,sans-Serif" font-size="10.00">irep.h</text>
</a>
</g>
</g>
<!-- Node13&#45;&gt;Node15 -->
<g id="edge15_Node000013_Node000015" class="edge">
<title>Node13&#45;&gt;Node15</title>
<g id="a_edge15_Node000013_Node000015"><a xlink:title=" ">
<path fill="none" stroke="#63b8ff" d="M148.43,-164.98C137.58,-157 121.12,-144.88 108.12,-135.31"/>
<polygon fill="#63b8ff" stroke="#63b8ff" points="109.91,-132.28 99.78,-129.17 105.76,-137.92 109.91,-132.28"/>
</a>
</g>
</g>
<!-- Node35 -->
<g id="Node000035" class="node">
<title>Node35</title>
<g id="a_Node000035"><a xlink:title=" ">
<polygon fill="#e0e0e0" stroke="#999999" points="184,-129 128,-129 128,-110 184,-110 184,-129"/>
<text text-anchor="middle" x="156" y="-117" font-family="Helvetica,sans-Serif" font-size="10.00">optional</text>
</a>
</g>
</g>
<!-- Node13&#45;&gt;Node35 -->
<g id="edge20_Node000013_Node000035" class="edge">
<title>Node13&#45;&gt;Node35</title>
<g id="a_edge20_Node000013_Node000035"><a xlink:title=" ">
<path fill="none" stroke="#63b8ff" d="M159.34,-164.75C158.82,-157.8 158.06,-147.85 157.41,-139.13"/>
<polygon fill="#63b8ff" stroke="#63b8ff" points="160.89,-138.8 156.65,-129.09 153.91,-139.32 160.89,-138.8"/>
</a>
</g>
</g>
<!-- Node15&#45;&gt;Node6 -->
<g id="edge16_Node000015_Node000006" class="edge">
<title>Node15&#45;&gt;Node6</title>
<g id="a_edge16_Node000015_Node000006"><a xlink:title=" ">
<path fill="none" stroke="#63b8ff" d="M88,-109.66C88,-92.17 88,-52.8 88,-29.27"/>
<polygon fill="#63b8ff" stroke="#63b8ff" points="91.5,-29.16 88,-19.16 84.5,-29.16 91.5,-29.16"/>
</a>
</g>
</g>
<!-- Node15&#45;&gt;Node17 -->
<g id="edge17_Node000015_Node000017" class="edge">
<title>Node15&#45;&gt;Node17</title>
<g id="a_edge17_Node000015_Node000017"><a xlink:title=" ">
<path fill="none" stroke="#63b8ff" d="M110.29,-112.14C113.21,-111.38 116.17,-110.65 119,-110 187,-94.43 266.76,-80.55 315.32,-72.58"/>
<polygon fill="#63b8ff" stroke="#63b8ff" points="316.18,-75.99 325.49,-70.92 315.06,-69.08 316.18,-75.99"/>
</a>
</g>
</g>
<!-- Node17&#45;&gt;Node6 -->
<g id="edge18_Node000017_Node000006" class="edge">
<title>Node17&#45;&gt;Node6</title>
<g id="a_edge18_Node000017_Node000006"><a xlink:title=" ">
<path fill="none" stroke="#63b8ff" d="M325.27,-56.73C272.22,-46.39 171.71,-26.81 120.2,-16.77"/>
<polygon fill="#63b8ff" stroke="#63b8ff" points="120.77,-13.32 110.29,-14.84 119.43,-20.19 120.77,-13.32"/>
</a>
</g>
</g>
<!-- Node20 -->
<g id="Node000020" class="node">
<title>Node20</title>
<g id="a_Node000020"><a xlink:title=" ">
<polygon fill="#e0e0e0" stroke="#999999" points="425.5,-19 356.5,-19 356.5,0 425.5,0 425.5,-19"/>
<text text-anchor="middle" x="391" y="-7" font-family="Helvetica,sans-Serif" font-size="10.00">type_traits</text>
</a>
</g>
</g>
<!-- Node17&#45;&gt;Node20 -->
<g id="edge19_Node000017_Node000020" class="edge">
<title>Node17&#45;&gt;Node20</title>
<g id="a_edge19_Node000017_Node000020"><a xlink:title=" ">
<path fill="none" stroke="#63b8ff" d="M365.12,-54.75C369.36,-47.49 375.53,-36.95 380.78,-27.98"/>
<polygon fill="#63b8ff" stroke="#63b8ff" points="383.95,-29.49 385.98,-19.09 377.91,-25.95 383.95,-29.49"/>
</a>
</g>
</g>
<!-- Node36&#45;&gt;Node20 -->
<g id="edge23_Node000036_Node000020" class="edge">
<title>Node36&#45;&gt;Node20</title>
<g id="a_edge23_Node000036_Node000020"><a xlink:title=" ">
<path fill="none" stroke="#63b8ff" d="M252.12,-274.94C306.34,-257.01 423,-213.97 423,-175.5 423,-175.5 423,-175.5 423,-118.5 423,-85.71 409.27,-49.54 399.8,-28.49"/>
<polygon fill="#63b8ff" stroke="#63b8ff" points="402.86,-26.77 395.45,-19.2 396.52,-29.74 402.86,-26.77"/>
</a>
</g>
</g>
<!-- Node37 -->
<g id="Node000037" class="node">
<title>Node37</title>
<g id="a_Node000037"><a xlink:href="exception__utils_8h.html" target="_top" xlink:title=" ">
<polygon fill="white" stroke="#666666" points="323,-239 223,-239 223,-220 323,-220 323,-239"/>
<text text-anchor="middle" x="273" y="-227" font-family="Helvetica,sans-Serif" font-size="10.00">exception_utils.h</text>
</a>
</g>
</g>
<!-- Node36&#45;&gt;Node37 -->
<g id="edge24_Node000036_Node000037" class="edge">
<title>Node36&#45;&gt;Node37</title>
<g id="a_edge24_Node000036_Node000037"><a xlink:title=" ">
<path fill="none" stroke="#63b8ff" d="M232.93,-274.75C239.85,-267.11 250.07,-255.82 258.45,-246.56"/>
<polygon fill="#63b8ff" stroke="#63b8ff" points="261.1,-248.85 265.22,-239.09 255.91,-244.15 261.1,-248.85"/>
</a>
</g>
</g>
<!-- Node36&#45;&gt;Node38 -->
<g id="edge28_Node000036_Node000038" class="edge">
<title>Node36&#45;&gt;Node38</title>
<g id="a_edge28_Node000036_Node000038"><a xlink:title=" ">
<path fill="none" stroke="#63b8ff" d="M202.02,-274.98C178.5,-266.27 141.71,-252.63 115.06,-242.75"/>
<polygon fill="#63b8ff" stroke="#63b8ff" points="115.99,-239.36 105.39,-239.17 113.55,-245.93 115.99,-239.36"/>
</a>
</g>
</g>
<!-- Node37&#45;&gt;Node6 -->
<g id="edge25_Node000037_Node000006" class="edge">
<title>Node37&#45;&gt;Node6</title>
<g id="a_edge25_Node000037_Node000006"><a xlink:title=" ">
<path fill="none" stroke="#63b8ff" d="M277.16,-219.96C286.56,-199.32 307,-145.75 285,-110 248.86,-51.26 166.17,-25.94 120.24,-16.07"/>
<polygon fill="#63b8ff" stroke="#63b8ff" points="120.71,-12.6 110.21,-14.04 119.32,-19.46 120.71,-12.6"/>
</a>
</g>
</g>
<!-- Node37&#45;&gt;Node13 -->
<g id="edge27_Node000037_Node000013" class="edge">
<title>Node37&#45;&gt;Node13</title>
<g id="a_edge27_Node000037_Node000013"><a xlink:title=" ">
<path fill="none" stroke="#63b8ff" d="M254.84,-219.98C236.75,-211.5 208.72,-198.35 187.81,-188.54"/>
<polygon fill="#63b8ff" stroke="#63b8ff" points="189.03,-185.25 178.49,-184.17 186.05,-191.59 189.03,-185.25"/>
</a>
</g>
</g>
<!-- Node37&#45;&gt;Node17 -->
<g id="edge26_Node000037_Node000017" class="edge">
<title>Node37&#45;&gt;Node17</title>
<g id="a_edge26_Node000037_Node000017"><a xlink:title=" ">
<path fill="none" stroke="#63b8ff" d="M284.42,-219.74C294.49,-211.49 308.93,-198.28 318,-184 338.4,-151.87 350.5,-108.53 356.14,-84.16"/>
<polygon fill="#63b8ff" stroke="#63b8ff" points="359.61,-84.64 358.34,-74.13 352.78,-83.14 359.61,-84.64"/>
</a>
</g>
</g>
</g>
</svg>
