<?xml version="1.0" encoding="UTF-8" standalone="no"?>
<!DOCTYPE svg PUBLIC "-//W3C//DTD SVG 1.1//EN"
 "http://www.w3.org/Graphics/SVG/1.1/DTD/svg11.dtd">
<!-- Generated by graphviz version 2.43.0 (0)
 -->
<!-- Title: /home/runner/work/cbmc/cbmc/src/goto&#45;cc/ld_mode.h Pages: 1 -->
<svg width="582pt" height="423pt"
 viewBox="0.00 0.00 582.00 423.00" xmlns="http://www.w3.org/2000/svg" xmlns:xlink="http://www.w3.org/1999/xlink">
<g id="graph0" class="graph" transform="scale(1 1) rotate(0) translate(4 419)">
<title>/home/runner/work/cbmc/cbmc/src/goto&#45;cc/ld_mode.h</title>
<!-- Node1 -->
<g id="Node000001" class="node">
<title>Node1</title>
<g id="a_Node000001"><a xlink:title="Base class for command line interpretation.">
<polygon fill="#999999" stroke="#666666" points="531,-415 375,-415 375,-385 531,-385 531,-415"/>
<text text-anchor="start" x="383" y="-403" font-family="Helvetica,sans-Serif" font-size="10.00">/home/runner/work/cbmc</text>
<text text-anchor="middle" x="453" y="-392" font-family="Helvetica,sans-Serif" font-size="10.00">/cbmc/src/goto&#45;cc/ld_mode.h</text>
</a>
</g>
</g>
<!-- Node2 -->
<g id="Node000002" class="node">
<title>Node2</title>
<g id="a_Node000002"><a xlink:href="gcc__message__handler_8h.html" target="_top" xlink:title=" ">
<polygon fill="white" stroke="#666666" points="417.5,-349 284.5,-349 284.5,-330 417.5,-330 417.5,-349"/>
<text text-anchor="middle" x="351" y="-337" font-family="Helvetica,sans-Serif" font-size="10.00">gcc_message_handler.h</text>
</a>
</g>
</g>
<!-- Node1&#45;&gt;Node2 -->
<g id="edge1_Node000001_Node000002" class="edge">
<title>Node1&#45;&gt;Node2</title>
<g id="a_edge1_Node000001_Node000002"><a xlink:title=" ">
<path fill="none" stroke="#63b8ff" d="M428.57,-384.99C412.31,-375.66 391.05,-363.47 374.9,-354.21"/>
<polygon fill="#63b8ff" stroke="#63b8ff" points="376.48,-351.08 366.06,-349.14 373,-357.15 376.48,-351.08"/>
</a>
</g>
</g>
<!-- Node32 -->
<g id="Node000032" class="node">
<title>Node32</title>
<g id="a_Node000032"><a xlink:href="goto__cc__mode_8h.html" target="_top" xlink:title="Command line interpretation for goto&#45;cc.">
<polygon fill="white" stroke="#666666" points="564,-294 468,-294 468,-275 564,-275 564,-294"/>
<text text-anchor="middle" x="516" y="-282" font-family="Helvetica,sans-Serif" font-size="10.00">goto_cc_mode.h</text>
</a>
</g>
</g>
<!-- Node1&#45;&gt;Node32 -->
<g id="edge23_Node000001_Node000032" class="edge">
<title>Node1&#45;&gt;Node32</title>
<g id="a_edge23_Node000001_Node000032"><a xlink:title=" ">
<path fill="none" stroke="#63b8ff" d="M454.73,-384.97C456.99,-370.43 461.92,-347.43 472,-330 478.41,-318.91 488.25,-308.6 497,-300.7"/>
<polygon fill="#63b8ff" stroke="#63b8ff" points="499.3,-303.34 504.6,-294.17 494.73,-298.03 499.3,-303.34"/>
</a>
</g>
</g>
<!-- Node20 -->
<g id="Node000020" class="node">
<title>Node20</title>
<g id="a_Node000020"><a xlink:title=" ">
<polygon fill="#e0e0e0" stroke="#999999" points="513,-349 481,-349 481,-330 513,-330 513,-349"/>
<text text-anchor="middle" x="497" y="-337" font-family="Helvetica,sans-Serif" font-size="10.00">list</text>
</a>
</g>
</g>
<!-- Node1&#45;&gt;Node20 -->
<g id="edge25_Node000001_Node000020" class="edge">
<title>Node1&#45;&gt;Node20</title>
<g id="a_edge25_Node000001_Node000020"><a xlink:title=" ">
<path fill="none" stroke="#63b8ff" d="M463.65,-384.84C469.84,-376.61 477.69,-366.18 484.21,-357.51"/>
<polygon fill="#63b8ff" stroke="#63b8ff" points="487.19,-359.36 490.41,-349.27 481.6,-355.15 487.19,-359.36"/>
</a>
</g>
</g>
<!-- Node3 -->
<g id="Node000003" class="node">
<title>Node3</title>
<g id="a_Node000003"><a xlink:href="cout__message_8h.html" target="_top" xlink:title=" ">
<polygon fill="white" stroke="#666666" points="394.5,-294 279.5,-294 279.5,-275 394.5,-275 394.5,-294"/>
<text text-anchor="middle" x="337" y="-282" font-family="Helvetica,sans-Serif" font-size="10.00">util/cout_message.h</text>
</a>
</g>
</g>
<!-- Node2&#45;&gt;Node3 -->
<g id="edge2_Node000002_Node000003" class="edge">
<title>Node2&#45;&gt;Node3</title>
<g id="a_edge2_Node000002_Node000003"><a xlink:title=" ">
<path fill="none" stroke="#63b8ff" d="M348.69,-329.75C346.83,-322.72 344.16,-312.62 341.85,-303.84"/>
<polygon fill="#63b8ff" stroke="#63b8ff" points="345.21,-302.86 339.27,-294.09 338.44,-304.65 345.21,-302.86"/>
</a>
</g>
</g>
<!-- Node4 -->
<g id="Node000004" class="node">
<title>Node4</title>
<g id="a_Node000004"><a xlink:href="src_2util_2message_8h.html" target="_top" xlink:title=" ">
<polygon fill="white" stroke="#666666" points="313,-239 243,-239 243,-220 313,-220 313,-239"/>
<text text-anchor="middle" x="278" y="-227" font-family="Helvetica,sans-Serif" font-size="10.00">message.h</text>
</a>
</g>
</g>
<!-- Node3&#45;&gt;Node4 -->
<g id="edge3_Node000003_Node000004" class="edge">
<title>Node3&#45;&gt;Node4</title>
<g id="a_edge3_Node000003_Node000004"><a xlink:title=" ">
<path fill="none" stroke="#63b8ff" d="M327.52,-274.98C318.8,-267.15 305.66,-255.34 295.1,-245.86"/>
<polygon fill="#63b8ff" stroke="#63b8ff" points="297.43,-243.25 287.65,-239.17 292.75,-248.46 297.43,-243.25"/>
</a>
</g>
</g>
<!-- Node5 -->
<g id="Node000005" class="node">
<title>Node5</title>
<g id="a_Node000005"><a xlink:href="src_2util_2invariant_8h.html" target="_top" xlink:title=" ">
<polygon fill="white" stroke="#666666" points="138.5,-74 69.5,-74 69.5,-55 138.5,-55 138.5,-74"/>
<text text-anchor="middle" x="104" y="-62" font-family="Helvetica,sans-Serif" font-size="10.00">invariant.h</text>
</a>
</g>
</g>
<!-- Node4&#45;&gt;Node5 -->
<g id="edge4_Node000004_Node000005" class="edge">
<title>Node4&#45;&gt;Node5</title>
<g id="a_edge4_Node000004_Node000005"><a xlink:title=" ">
<path fill="none" stroke="#63b8ff" d="M242.85,-222.37C217.48,-216.36 183.81,-204.95 161,-184 131.12,-156.56 115.26,-110.11 108.35,-84.27"/>
<polygon fill="#63b8ff" stroke="#63b8ff" points="111.67,-83.14 105.85,-74.28 104.88,-84.83 111.67,-83.14"/>
</a>
</g>
</g>
<!-- Node7 -->
<g id="Node000007" class="node">
<title>Node7</title>
<g id="a_Node000007"><a xlink:title=" ">
<polygon fill="#e0e0e0" stroke="#999999" points="56,-19 0,-19 0,0 56,0 56,-19"/>
<text text-anchor="middle" x="28" y="-7" font-family="Helvetica,sans-Serif" font-size="10.00">sstream</text>
</a>
</g>
</g>
<!-- Node4&#45;&gt;Node7 -->
<g id="edge21_Node000004_Node000007" class="edge">
<title>Node4&#45;&gt;Node7</title>
<g id="a_edge21_Node000004_Node000007"><a xlink:title=" ">
<path fill="none" stroke="#63b8ff" d="M242.92,-223.12C213.75,-217.29 172.26,-205.75 142,-184 85.24,-143.2 49.05,-64.65 34.84,-28.95"/>
<polygon fill="#63b8ff" stroke="#63b8ff" points="38,-27.42 31.14,-19.34 31.47,-29.93 38,-27.42"/>
</a>
</g>
</g>
<!-- Node8 -->
<g id="Node000008" class="node">
<title>Node8</title>
<g id="a_Node000008"><a xlink:title=" ">
<polygon fill="#e0e0e0" stroke="#999999" points="520,-19 476,-19 476,0 520,0 520,-19"/>
<text text-anchor="middle" x="498" y="-7" font-family="Helvetica,sans-Serif" font-size="10.00">string</text>
</a>
</g>
</g>
<!-- Node4&#45;&gt;Node8 -->
<g id="edge22_Node000004_Node000008" class="edge">
<title>Node4&#45;&gt;Node8</title>
<g id="a_edge22_Node000004_Node000008"><a xlink:title=" ">
<path fill="none" stroke="#63b8ff" d="M313.3,-226.18C346.94,-222.29 397.33,-211.87 431,-184 479.25,-144.05 492.85,-65.01 496.61,-29.07"/>
<polygon fill="#63b8ff" stroke="#63b8ff" points="500.1,-29.29 497.51,-19.02 493.13,-28.66 500.1,-29.29"/>
</a>
</g>
</g>
<!-- Node10 -->
<g id="Node000010" class="node">
<title>Node10</title>
<g id="a_Node000010"><a xlink:href="source__location_8h.html" target="_top" xlink:title=" ">
<polygon fill="white" stroke="#666666" points="422,-184 320,-184 320,-165 422,-165 422,-184"/>
<text text-anchor="middle" x="371" y="-172" font-family="Helvetica,sans-Serif" font-size="10.00">source_location.h</text>
</a>
</g>
</g>
<!-- Node4&#45;&gt;Node10 -->
<g id="edge9_Node000004_Node000010" class="edge">
<title>Node4&#45;&gt;Node10</title>
<g id="a_edge9_Node000004_Node000010"><a xlink:title=" ">
<path fill="none" stroke="#63b8ff" d="M292.94,-219.98C307.5,-211.69 329.87,-198.94 346.93,-189.22"/>
<polygon fill="#63b8ff" stroke="#63b8ff" points="348.83,-192.16 355.79,-184.17 345.36,-186.08 348.83,-192.16"/>
</a>
</g>
</g>
<!-- Node31 -->
<g id="Node000031" class="node">
<title>Node31</title>
<g id="a_Node000031"><a xlink:title=" ">
<polygon fill="#e0e0e0" stroke="#999999" points="235.5,-184 170.5,-184 170.5,-165 235.5,-165 235.5,-184"/>
<text text-anchor="middle" x="203" y="-172" font-family="Helvetica,sans-Serif" font-size="10.00">functional</text>
</a>
</g>
</g>
<!-- Node4&#45;&gt;Node31 -->
<g id="edge19_Node000004_Node000031" class="edge">
<title>Node4&#45;&gt;Node31</title>
<g id="a_edge19_Node000004_Node000031"><a xlink:title=" ">
<path fill="none" stroke="#63b8ff" d="M265.95,-219.98C254.54,-211.92 237.17,-199.65 223.57,-190.03"/>
<polygon fill="#63b8ff" stroke="#63b8ff" points="225.46,-187.08 215.27,-184.17 221.42,-192.8 225.46,-187.08"/>
</a>
</g>
</g>
<!-- Node16 -->
<g id="Node000016" class="node">
<title>Node16</title>
<g id="a_Node000016"><a xlink:title=" ">
<polygon fill="#e0e0e0" stroke="#999999" points="302,-184 254,-184 254,-165 302,-165 302,-184"/>
<text text-anchor="middle" x="278" y="-172" font-family="Helvetica,sans-Serif" font-size="10.00">iosfwd</text>
</a>
</g>
</g>
<!-- Node4&#45;&gt;Node16 -->
<g id="edge20_Node000004_Node000016" class="edge">
<title>Node4&#45;&gt;Node16</title>
<g id="a_edge20_Node000004_Node000016"><a xlink:title=" ">
<path fill="none" stroke="#63b8ff" d="M278,-219.75C278,-212.8 278,-202.85 278,-194.13"/>
<polygon fill="#63b8ff" stroke="#63b8ff" points="281.5,-194.09 278,-184.09 274.5,-194.09 281.5,-194.09"/>
</a>
</g>
</g>
<!-- Node6 -->
<g id="Node000006" class="node">
<title>Node6</title>
<g id="a_Node000006"><a xlink:title=" ">
<polygon fill="#e0e0e0" stroke="#999999" points="210.5,-19 161.5,-19 161.5,0 210.5,0 210.5,-19"/>
<text text-anchor="middle" x="186" y="-7" font-family="Helvetica,sans-Serif" font-size="10.00">cstdlib</text>
</a>
</g>
</g>
<!-- Node5&#45;&gt;Node6 -->
<g id="edge5_Node000005_Node000006" class="edge">
<title>Node5&#45;&gt;Node6</title>
<g id="a_edge5_Node000005_Node000006"><a xlink:title=" ">
<path fill="none" stroke="#63b8ff" d="M117.17,-54.98C129.77,-46.84 149,-34.41 163.94,-24.76"/>
<polygon fill="#63b8ff" stroke="#63b8ff" points="166.09,-27.54 172.59,-19.17 162.29,-21.66 166.09,-27.54"/>
</a>
</g>
</g>
<!-- Node5&#45;&gt;Node7 -->
<g id="edge6_Node000005_Node000007" class="edge">
<title>Node5&#45;&gt;Node7</title>
<g id="a_edge6_Node000005_Node000007"><a xlink:title=" ">
<path fill="none" stroke="#63b8ff" d="M91.79,-54.98C80.22,-46.92 62.62,-34.65 48.84,-25.03"/>
<polygon fill="#63b8ff" stroke="#63b8ff" points="50.64,-22.02 40.43,-19.17 46.63,-27.76 50.64,-22.02"/>
</a>
</g>
</g>
<!-- Node5&#45;&gt;Node8 -->
<g id="edge7_Node000005_Node000008" class="edge">
<title>Node5&#45;&gt;Node8</title>
<g id="a_edge7_Node000005_Node000008"><a xlink:title=" ">
<path fill="none" stroke="#63b8ff" d="M138.7,-56.43C141.5,-55.92 144.3,-55.44 147,-55 263.93,-36.05 403.87,-20.4 465.8,-13.83"/>
<polygon fill="#63b8ff" stroke="#63b8ff" points="466.17,-17.31 475.75,-12.78 465.44,-10.35 466.17,-17.31"/>
</a>
</g>
</g>
<!-- Node9 -->
<g id="Node000009" class="node">
<title>Node9</title>
<g id="a_Node000009"><a xlink:title=" ">
<polygon fill="#e0e0e0" stroke="#999999" points="143.5,-19 74.5,-19 74.5,0 143.5,0 143.5,-19"/>
<text text-anchor="middle" x="109" y="-7" font-family="Helvetica,sans-Serif" font-size="10.00">type_traits</text>
</a>
</g>
</g>
<!-- Node5&#45;&gt;Node9 -->
<g id="edge8_Node000005_Node000009" class="edge">
<title>Node5&#45;&gt;Node9</title>
<g id="a_edge8_Node000005_Node000009"><a xlink:title=" ">
<path fill="none" stroke="#63b8ff" d="M104.83,-54.75C105.48,-47.8 106.42,-37.85 107.24,-29.13"/>
<polygon fill="#63b8ff" stroke="#63b8ff" points="110.73,-29.37 108.19,-19.09 103.77,-28.72 110.73,-29.37"/>
</a>
</g>
</g>
<!-- Node10&#45;&gt;Node8 -->
<g id="edge18_Node000010_Node000008" class="edge">
<title>Node10&#45;&gt;Node8</title>
<g id="a_edge18_Node000010_Node000008"><a xlink:title=" ">
<path fill="none" stroke="#63b8ff" d="M384.95,-164.76C397.42,-156.52 415.71,-143.33 429,-129 457.76,-98 479.83,-52.97 490.65,-28.3"/>
<polygon fill="#63b8ff" stroke="#63b8ff" points="493.88,-29.65 494.58,-19.08 487.44,-26.9 493.88,-29.65"/>
</a>
</g>
</g>
<!-- Node11 -->
<g id="Node000011" class="node">
<title>Node11</title>
<g id="a_Node000011"><a xlink:href="deprecate_8h.html" target="_top" xlink:title=" ">
<polygon fill="white" stroke="#666666" points="420,-129 346,-129 346,-110 420,-110 420,-129"/>
<text text-anchor="middle" x="383" y="-117" font-family="Helvetica,sans-Serif" font-size="10.00">deprecate.h</text>
</a>
</g>
</g>
<!-- Node10&#45;&gt;Node11 -->
<g id="edge10_Node000010_Node000011" class="edge">
<title>Node10&#45;&gt;Node11</title>
<g id="a_edge10_Node000010_Node000011"><a xlink:title=" ">
<path fill="none" stroke="#63b8ff" d="M372.98,-164.75C374.57,-157.72 376.86,-147.62 378.85,-138.84"/>
<polygon fill="#63b8ff" stroke="#63b8ff" points="382.26,-139.62 381.06,-129.09 375.43,-138.07 382.26,-139.62"/>
</a>
</g>
</g>
<!-- Node12 -->
<g id="Node000012" class="node">
<title>Node12</title>
<g id="a_Node000012"><a xlink:href="irep_8h.html" target="_top" xlink:title=" ">
<polygon fill="white" stroke="#666666" points="328,-129 284,-129 284,-110 328,-110 328,-129"/>
<text text-anchor="middle" x="306" y="-117" font-family="Helvetica,sans-Serif" font-size="10.00">irep.h</text>
</a>
</g>
</g>
<!-- Node10&#45;&gt;Node12 -->
<g id="edge11_Node000010_Node000012" class="edge">
<title>Node10&#45;&gt;Node12</title>
<g id="a_edge11_Node000010_Node000012"><a xlink:title=" ">
<path fill="none" stroke="#63b8ff" d="M360.56,-164.98C350.85,-157.07 336.18,-145.11 324.5,-135.58"/>
<polygon fill="#63b8ff" stroke="#63b8ff" points="326.6,-132.78 316.63,-129.17 322.17,-138.2 326.6,-132.78"/>
</a>
</g>
</g>
<!-- Node30 -->
<g id="Node000030" class="node">
<title>Node30</title>
<g id="a_Node000030"><a xlink:title=" ">
<polygon fill="#e0e0e0" stroke="#999999" points="266,-129 210,-129 210,-110 266,-110 266,-129"/>
<text text-anchor="middle" x="238" y="-117" font-family="Helvetica,sans-Serif" font-size="10.00">optional</text>
</a>
</g>
</g>
<!-- Node10&#45;&gt;Node30 -->
<g id="edge17_Node000010_Node000030" class="edge">
<title>Node10&#45;&gt;Node30</title>
<g id="a_edge17_Node000010_Node000030"><a xlink:title=" ">
<path fill="none" stroke="#63b8ff" d="M349.63,-164.98C327.85,-156.3 293.84,-142.75 269.08,-132.88"/>
<polygon fill="#63b8ff" stroke="#63b8ff" points="270.34,-129.62 259.76,-129.17 267.75,-136.12 270.34,-129.62"/>
</a>
</g>
</g>
<!-- Node12&#45;&gt;Node5 -->
<g id="edge14_Node000012_Node000005" class="edge">
<title>Node12&#45;&gt;Node5</title>
<g id="a_edge14_Node000012_Node000005"><a xlink:title=" ">
<path fill="none" stroke="#63b8ff" d="M283.99,-112.43C280.97,-111.61 277.91,-110.78 275,-110 231.57,-98.4 181.83,-85.5 147.24,-76.59"/>
<polygon fill="#63b8ff" stroke="#63b8ff" points="148.01,-73.17 137.46,-74.07 146.27,-79.95 148.01,-73.17"/>
</a>
</g>
</g>
<!-- Node12&#45;&gt;Node8 -->
<g id="edge12_Node000012_Node000008" class="edge">
<title>Node12&#45;&gt;Node8</title>
<g id="a_edge12_Node000012_Node000008"><a xlink:title=" ">
<path fill="none" stroke="#63b8ff" d="M328.03,-111.92C363.76,-101.15 431.34,-80.31 441,-74 459.72,-61.77 476.18,-41.89 486.54,-27.63"/>
<polygon fill="#63b8ff" stroke="#63b8ff" points="489.56,-29.41 492.42,-19.2 483.83,-25.39 489.56,-29.41"/>
</a>
</g>
</g>
<!-- Node13 -->
<g id="Node000013" class="node">
<title>Node13</title>
<g id="a_Node000013"><a xlink:title=" ">
<polygon fill="#e0e0e0" stroke="#999999" points="203.5,-74 156.5,-74 156.5,-55 203.5,-55 203.5,-74"/>
<text text-anchor="middle" x="180" y="-62" font-family="Helvetica,sans-Serif" font-size="10.00">vector</text>
</a>
</g>
</g>
<!-- Node12&#45;&gt;Node13 -->
<g id="edge13_Node000012_Node000013" class="edge">
<title>Node12&#45;&gt;Node13</title>
<g id="a_edge13_Node000012_Node000013"><a xlink:title=" ">
<path fill="none" stroke="#63b8ff" d="M285.76,-109.98C265.3,-101.38 233.47,-87.99 210.07,-78.15"/>
<polygon fill="#63b8ff" stroke="#63b8ff" points="211.19,-74.82 200.61,-74.17 208.47,-81.27 211.19,-74.82"/>
</a>
</g>
</g>
<!-- Node14 -->
<g id="Node000014" class="node">
<title>Node14</title>
<g id="a_Node000014"><a xlink:href="irep__ids_8h.html" target="_top" xlink:title="util">
<polygon fill="#fff0f0" stroke="red" points="286,-74 222,-74 222,-55 286,-55 286,-74"/>
<text text-anchor="middle" x="254" y="-62" font-family="Helvetica,sans-Serif" font-size="10.00">irep_ids.h</text>
</a>
</g>
</g>
<!-- Node12&#45;&gt;Node14 -->
<g id="edge15_Node000012_Node000014" class="edge">
<title>Node12&#45;&gt;Node14</title>
<g id="a_edge15_Node000012_Node000014"><a xlink:title=" ">
<path fill="none" stroke="#63b8ff" d="M297.41,-109.75C289.84,-102.03 278.62,-90.6 269.49,-81.28"/>
<polygon fill="#63b8ff" stroke="#63b8ff" points="271.93,-78.78 262.43,-74.09 266.93,-83.68 271.93,-78.78"/>
</a>
</g>
</g>
<!-- Node25 -->
<g id="Node000025" class="node">
<title>Node25</title>
<g id="a_Node000025"><a xlink:href="forward__list__as__map_8h.html" target="_top" xlink:title=" ">
<polygon fill="#fff0f0" stroke="red" points="431.5,-74 304.5,-74 304.5,-55 431.5,-55 431.5,-74"/>
<text text-anchor="middle" x="368" y="-62" font-family="Helvetica,sans-Serif" font-size="10.00">forward_list_as_map.h</text>
</a>
</g>
</g>
<!-- Node12&#45;&gt;Node25 -->
<g id="edge16_Node000012_Node000025" class="edge">
<title>Node12&#45;&gt;Node25</title>
<g id="a_edge16_Node000012_Node000025"><a xlink:title=" ">
<path fill="none" stroke="#63b8ff" d="M315.96,-109.98C325.13,-102.15 338.94,-90.34 350.03,-80.86"/>
<polygon fill="#63b8ff" stroke="#63b8ff" points="352.53,-83.33 357.86,-74.17 347.98,-78.01 352.53,-83.33"/>
</a>
</g>
</g>
<!-- Node32&#45;&gt;Node8 -->
<g id="edge24_Node000032_Node000008" class="edge">
<title>Node32&#45;&gt;Node8</title>
<g id="a_edge24_Node000032_Node000008"><a xlink:title=" ">
<path fill="none" stroke="#63b8ff" d="M524.56,-274.83C540.69,-257.52 574,-216.79 574,-175.5 574,-175.5 574,-175.5 574,-118.5 574,-79.47 540.39,-44.58 517.87,-25.6"/>
<polygon fill="#63b8ff" stroke="#63b8ff" points="519.85,-22.7 509.88,-19.12 515.44,-28.14 519.85,-22.7"/>
</a>
</g>
</g>
</g>
</svg>
