<?xml version="1.0" encoding="UTF-8" standalone="no"?>
<!DOCTYPE svg PUBLIC "-//W3C//DTD SVG 1.1//EN"
 "http://www.w3.org/Graphics/SVG/1.1/DTD/svg11.dtd">
<!-- Generated by graphviz version 2.43.0 (0)
 -->
<!-- Title: /home/runner/work/cbmc/cbmc/src/goto&#45;cc/linker_script_merge.h Pages: 1 -->
<svg width="1043pt" height="434pt"
 viewBox="0.00 0.00 1043.00 434.00" xmlns="http://www.w3.org/2000/svg" xmlns:xlink="http://www.w3.org/1999/xlink">
<g id="graph0" class="graph" transform="scale(1 1) rotate(0) translate(4 430)">
<title>/home/runner/work/cbmc/cbmc/src/goto&#45;cc/linker_script_merge.h</title>
<!-- Node1 -->
<g id="Node000001" class="node">
<title>Node1</title>
<g id="a_Node000001"><a xlink:title="Merge linker script&#45;defined symbols into a goto&#45;program.">
<polygon fill="#999999" stroke="#666666" points="1018,-426 880,-426 880,-385 1018,-385 1018,-426"/>
<text text-anchor="start" x="888" y="-414" font-family="Helvetica,sans-Serif" font-size="10.00">/home/runner/work/cbmc</text>
<text text-anchor="start" x="888" y="-403" font-family="Helvetica,sans-Serif" font-size="10.00">/cbmc/src/goto&#45;cc/linker</text>
<text text-anchor="middle" x="949" y="-392" font-family="Helvetica,sans-Serif" font-size="10.00">_script_merge.h</text>
</a>
</g>
</g>
<!-- Node2 -->
<g id="Node000002" class="node">
<title>Node2</title>
<g id="a_Node000002"><a xlink:href="src_2util_2message_8h.html" target="_top" xlink:title=" ">
<polygon fill="white" stroke="#666666" points="853.5,-349 764.5,-349 764.5,-330 853.5,-330 853.5,-349"/>
<text text-anchor="middle" x="809" y="-337" font-family="Helvetica,sans-Serif" font-size="10.00">util/message.h</text>
</a>
</g>
</g>
<!-- Node1&#45;&gt;Node2 -->
<g id="edge1_Node000001_Node000002" class="edge">
<title>Node1&#45;&gt;Node2</title>
<g id="a_edge1_Node000001_Node000002"><a xlink:title=" ">
<path fill="none" stroke="#63b8ff" d="M906.23,-384.95C883.71,-374.65 856.72,-362.31 836.9,-353.25"/>
<polygon fill="#63b8ff" stroke="#63b8ff" points="838.34,-350.07 827.79,-349.09 835.43,-356.43 838.34,-350.07"/>
</a>
</g>
</g>
<!-- Node18 -->
<g id="Node000018" class="node">
<title>Node18</title>
<g id="a_Node000018"><a xlink:title=" ">
<polygon fill="#e0e0e0" stroke="#999999" points="850,-19 818,-19 818,0 850,0 850,-19"/>
<text text-anchor="middle" x="834" y="-7" font-family="Helvetica,sans-Serif" font-size="10.00">list</text>
</a>
</g>
</g>
<!-- Node1&#45;&gt;Node18 -->
<g id="edge36_Node000001_Node000018" class="edge">
<title>Node1&#45;&gt;Node18</title>
<g id="a_edge36_Node000001_Node000018"><a xlink:title=" ">
<path fill="none" stroke="#63b8ff" d="M954.36,-384.88C960.28,-361.43 969,-320.9 969,-285.5 969,-285.5 969,-285.5 969,-118.5 969,-63.12 898.87,-31.47 859.7,-18.11"/>
<polygon fill="#63b8ff" stroke="#63b8ff" points="860.61,-14.72 850.02,-14.96 858.45,-21.38 860.61,-14.72"/>
</a>
</g>
</g>
<!-- Node29 -->
<g id="Node000029" class="node">
<title>Node29</title>
<g id="a_Node000029"><a xlink:title=" ">
<polygon fill="#e0e0e0" stroke="#999999" points="940.5,-294 875.5,-294 875.5,-275 940.5,-275 940.5,-294"/>
<text text-anchor="middle" x="908" y="-282" font-family="Helvetica,sans-Serif" font-size="10.00">functional</text>
</a>
</g>
</g>
<!-- Node1&#45;&gt;Node29 -->
<g id="edge35_Node000001_Node000029" class="edge">
<title>Node1&#45;&gt;Node29</title>
<g id="a_edge35_Node000001_Node000029"><a xlink:title=" ">
<path fill="none" stroke="#63b8ff" d="M942.23,-384.85C934.49,-362.37 921.9,-325.86 914.34,-303.91"/>
<polygon fill="#63b8ff" stroke="#63b8ff" points="917.56,-302.49 910.99,-294.18 910.94,-304.77 917.56,-302.49"/>
</a>
</g>
</g>
<!-- Node30 -->
<g id="Node000030" class="node">
<title>Node30</title>
<g id="a_Node000030"><a xlink:title=" ">
<polygon fill="#e0e0e0" stroke="#999999" points="1035,-349 997,-349 997,-330 1035,-330 1035,-349"/>
<text text-anchor="middle" x="1016" y="-337" font-family="Helvetica,sans-Serif" font-size="10.00">map</text>
</a>
</g>
</g>
<!-- Node1&#45;&gt;Node30 -->
<g id="edge37_Node000001_Node000030" class="edge">
<title>Node1&#45;&gt;Node30</title>
<g id="a_edge37_Node000001_Node000030"><a xlink:title=" ">
<path fill="none" stroke="#63b8ff" d="M969.47,-384.95C979.11,-375.74 990.46,-364.9 999.54,-356.23"/>
<polygon fill="#63b8ff" stroke="#63b8ff" points="1002.02,-358.7 1006.83,-349.26 997.18,-353.64 1002.02,-358.7"/>
</a>
</g>
</g>
<!-- Node3 -->
<g id="Node000003" class="node">
<title>Node3</title>
<g id="a_Node000003"><a xlink:href="src_2util_2invariant_8h.html" target="_top" xlink:title=" ">
<polygon fill="white" stroke="#666666" points="306.5,-74 237.5,-74 237.5,-55 306.5,-55 306.5,-74"/>
<text text-anchor="middle" x="272" y="-62" font-family="Helvetica,sans-Serif" font-size="10.00">invariant.h</text>
</a>
</g>
</g>
<!-- Node2&#45;&gt;Node3 -->
<g id="edge2_Node000002_Node000003" class="edge">
<title>Node2&#45;&gt;Node3</title>
<g id="a_edge2_Node000002_Node000003"><a xlink:title=" ">
<path fill="none" stroke="#63b8ff" d="M772.98,-329.92C728.03,-316.82 657,-287.15 657,-230.5 657,-230.5 657,-230.5 657,-173.5 657,-144.04 660.52,-128.99 638,-110 590.39,-69.85 403.69,-65.03 316.86,-65.02"/>
<polygon fill="#63b8ff" stroke="#63b8ff" points="316.77,-61.52 306.78,-65.04 316.79,-68.52 316.77,-61.52"/>
</a>
</g>
</g>
<!-- Node5 -->
<g id="Node000005" class="node">
<title>Node5</title>
<g id="a_Node000005"><a xlink:title=" ">
<polygon fill="#e0e0e0" stroke="#999999" points="770,-19 714,-19 714,0 770,0 770,-19"/>
<text text-anchor="middle" x="742" y="-7" font-family="Helvetica,sans-Serif" font-size="10.00">sstream</text>
</a>
</g>
</g>
<!-- Node2&#45;&gt;Node5 -->
<g id="edge33_Node000002_Node000005" class="edge">
<title>Node2&#45;&gt;Node5</title>
<g id="a_edge33_Node000002_Node000005"><a xlink:title=" ">
<path fill="none" stroke="#63b8ff" d="M813.76,-329.71C833.1,-292.7 901.92,-147.25 842,-55 828.36,-33.99 802.25,-22.82 780.13,-16.93"/>
<polygon fill="#63b8ff" stroke="#63b8ff" points="780.85,-13.5 770.31,-14.57 779.22,-20.31 780.85,-13.5"/>
</a>
</g>
</g>
<!-- Node6 -->
<g id="Node000006" class="node">
<title>Node6</title>
<g id="a_Node000006"><a xlink:title=" ">
<polygon fill="#e0e0e0" stroke="#999999" points="164,-19 120,-19 120,0 164,0 164,-19"/>
<text text-anchor="middle" x="142" y="-7" font-family="Helvetica,sans-Serif" font-size="10.00">string</text>
</a>
</g>
</g>
<!-- Node2&#45;&gt;Node6 -->
<g id="edge34_Node000002_Node000006" class="edge">
<title>Node2&#45;&gt;Node6</title>
<g id="a_edge34_Node000002_Node000006"><a xlink:title=" ">
<path fill="none" stroke="#63b8ff" d="M764.35,-337.28C594.75,-332.07 0,-308.26 0,-230.5 0,-230.5 0,-230.5 0,-118.5 0,-63.56 68.17,-32.91 110.04,-19.26"/>
<polygon fill="#63b8ff" stroke="#63b8ff" points="111.3,-22.53 119.81,-16.22 109.22,-15.85 111.3,-22.53"/>
</a>
</g>
</g>
<!-- Node8 -->
<g id="Node000008" class="node">
<title>Node8</title>
<g id="a_Node000008"><a xlink:href="source__location_8h.html" target="_top" xlink:title=" ">
<polygon fill="white" stroke="#666666" points="295,-294 193,-294 193,-275 295,-275 295,-294"/>
<text text-anchor="middle" x="244" y="-282" font-family="Helvetica,sans-Serif" font-size="10.00">source_location.h</text>
</a>
</g>
</g>
<!-- Node2&#45;&gt;Node8 -->
<g id="edge7_Node000002_Node000008" class="edge">
<title>Node2&#45;&gt;Node8</title>
<g id="a_edge7_Node000002_Node000008"><a xlink:title=" ">
<path fill="none" stroke="#63b8ff" d="M764.19,-334.3C663.61,-324.86 419.74,-301.99 305.26,-291.25"/>
<polygon fill="#63b8ff" stroke="#63b8ff" points="305.54,-287.76 295.26,-290.31 304.89,-294.73 305.54,-287.76"/>
</a>
</g>
</g>
<!-- Node14 -->
<g id="Node000014" class="node">
<title>Node14</title>
<g id="a_Node000014"><a xlink:title=" ">
<polygon fill="#e0e0e0" stroke="#999999" points="833,-74 785,-74 785,-55 833,-55 833,-74"/>
<text text-anchor="middle" x="809" y="-62" font-family="Helvetica,sans-Serif" font-size="10.00">iosfwd</text>
</a>
</g>
</g>
<!-- Node2&#45;&gt;Node14 -->
<g id="edge32_Node000002_Node000014" class="edge">
<title>Node2&#45;&gt;Node14</title>
<g id="a_edge32_Node000002_Node000014"><a xlink:title=" ">
<path fill="none" stroke="#63b8ff" d="M809,-329.82C809,-311.48 809,-267.44 809,-230.5 809,-230.5 809,-230.5 809,-173.5 809,-142.19 809,-105.77 809,-84.23"/>
<polygon fill="#63b8ff" stroke="#63b8ff" points="812.5,-84.18 809,-74.18 805.5,-84.18 812.5,-84.18"/>
</a>
</g>
</g>
<!-- Node2&#45;&gt;Node29 -->
<g id="edge31_Node000002_Node000029" class="edge">
<title>Node2&#45;&gt;Node29</title>
<g id="a_edge31_Node000002_Node000029"><a xlink:title=" ">
<path fill="none" stroke="#63b8ff" d="M824.91,-329.98C840.55,-321.61 864.66,-308.7 882.88,-298.95"/>
<polygon fill="#63b8ff" stroke="#63b8ff" points="884.64,-301.98 891.8,-294.17 881.34,-295.8 884.64,-301.98"/>
</a>
</g>
</g>
<!-- Node4 -->
<g id="Node000004" class="node">
<title>Node4</title>
<g id="a_Node000004"><a xlink:title=" ">
<polygon fill="#e0e0e0" stroke="#999999" points="318.5,-19 269.5,-19 269.5,0 318.5,0 318.5,-19"/>
<text text-anchor="middle" x="294" y="-7" font-family="Helvetica,sans-Serif" font-size="10.00">cstdlib</text>
</a>
</g>
</g>
<!-- Node3&#45;&gt;Node4 -->
<g id="edge3_Node000003_Node000004" class="edge">
<title>Node3&#45;&gt;Node4</title>
<g id="a_edge3_Node000003_Node000004"><a xlink:title=" ">
<path fill="none" stroke="#63b8ff" d="M275.63,-54.75C278.58,-47.65 282.83,-37.4 286.51,-28.56"/>
<polygon fill="#63b8ff" stroke="#63b8ff" points="289.83,-29.67 290.43,-19.09 283.37,-26.98 289.83,-29.67"/>
</a>
</g>
</g>
<!-- Node3&#45;&gt;Node5 -->
<g id="edge4_Node000003_Node000005" class="edge">
<title>Node3&#45;&gt;Node5</title>
<g id="a_edge4_Node000003_Node000005"><a xlink:title=" ">
<path fill="none" stroke="#63b8ff" d="M306.56,-59.6C392.31,-49.93 614.34,-24.9 703.8,-14.81"/>
<polygon fill="#63b8ff" stroke="#63b8ff" points="704.25,-18.28 713.79,-13.68 703.46,-11.32 704.25,-18.28"/>
</a>
</g>
</g>
<!-- Node3&#45;&gt;Node6 -->
<g id="edge5_Node000003_Node000006" class="edge">
<title>Node3&#45;&gt;Node6</title>
<g id="a_edge5_Node000003_Node000006"><a xlink:title=" ">
<path fill="none" stroke="#63b8ff" d="M251.11,-54.98C229.92,-46.34 196.87,-32.87 172.7,-23.02"/>
<polygon fill="#63b8ff" stroke="#63b8ff" points="173.85,-19.7 163.27,-19.17 171.21,-26.19 173.85,-19.7"/>
</a>
</g>
</g>
<!-- Node7 -->
<g id="Node000007" class="node">
<title>Node7</title>
<g id="a_Node000007"><a xlink:title=" ">
<polygon fill="#e0e0e0" stroke="#999999" points="251.5,-19 182.5,-19 182.5,0 251.5,0 251.5,-19"/>
<text text-anchor="middle" x="217" y="-7" font-family="Helvetica,sans-Serif" font-size="10.00">type_traits</text>
</a>
</g>
</g>
<!-- Node3&#45;&gt;Node7 -->
<g id="edge6_Node000003_Node000007" class="edge">
<title>Node3&#45;&gt;Node7</title>
<g id="a_edge6_Node000003_Node000007"><a xlink:title=" ">
<path fill="none" stroke="#63b8ff" d="M262.92,-54.75C254.91,-47.03 243.04,-35.6 233.38,-26.28"/>
<polygon fill="#63b8ff" stroke="#63b8ff" points="235.54,-23.51 225.91,-19.09 230.69,-28.55 235.54,-23.51"/>
</a>
</g>
</g>
<!-- Node8&#45;&gt;Node6 -->
<g id="edge30_Node000008_Node000006" class="edge">
<title>Node8&#45;&gt;Node6</title>
<g id="a_edge30_Node000008_Node000006"><a xlink:title=" ">
<path fill="none" stroke="#63b8ff" d="M235.97,-274.92C221.1,-258.54 189.2,-221.15 172,-184 150.85,-138.32 152.22,-123.82 145,-74 142.84,-59.11 142.13,-42.08 141.94,-29.41"/>
<polygon fill="#63b8ff" stroke="#63b8ff" points="145.44,-29.16 141.88,-19.18 138.44,-29.2 145.44,-29.16"/>
</a>
</g>
</g>
<!-- Node9 -->
<g id="Node000009" class="node">
<title>Node9</title>
<g id="a_Node000009"><a xlink:href="deprecate_8h.html" target="_top" xlink:title=" ">
<polygon fill="white" stroke="#666666" points="358,-239 284,-239 284,-220 358,-220 358,-239"/>
<text text-anchor="middle" x="321" y="-227" font-family="Helvetica,sans-Serif" font-size="10.00">deprecate.h</text>
</a>
</g>
</g>
<!-- Node8&#45;&gt;Node9 -->
<g id="edge8_Node000008_Node000009" class="edge">
<title>Node8&#45;&gt;Node9</title>
<g id="a_edge8_Node000008_Node000009"><a xlink:title=" ">
<path fill="none" stroke="#63b8ff" d="M256.37,-274.98C268.09,-266.92 285.92,-254.65 299.89,-245.03"/>
<polygon fill="#63b8ff" stroke="#63b8ff" points="302.15,-247.72 308.4,-239.17 298.18,-241.96 302.15,-247.72"/>
</a>
</g>
</g>
<!-- Node10 -->
<g id="Node000010" class="node">
<title>Node10</title>
<g id="a_Node000010"><a xlink:href="irep_8h.html" target="_top" xlink:title=" ">
<polygon fill="white" stroke="#666666" points="266,-239 222,-239 222,-220 266,-220 266,-239"/>
<text text-anchor="middle" x="244" y="-227" font-family="Helvetica,sans-Serif" font-size="10.00">irep.h</text>
</a>
</g>
</g>
<!-- Node8&#45;&gt;Node10 -->
<g id="edge9_Node000008_Node000010" class="edge">
<title>Node8&#45;&gt;Node10</title>
<g id="a_edge9_Node000008_Node000010"><a xlink:title=" ">
<path fill="none" stroke="#63b8ff" d="M244,-274.75C244,-267.8 244,-257.85 244,-249.13"/>
<polygon fill="#63b8ff" stroke="#63b8ff" points="247.5,-249.09 244,-239.09 240.5,-249.09 247.5,-249.09"/>
</a>
</g>
</g>
<!-- Node28 -->
<g id="Node000028" class="node">
<title>Node28</title>
<g id="a_Node000028"><a xlink:title=" ">
<polygon fill="#e0e0e0" stroke="#999999" points="84,-239 28,-239 28,-220 84,-220 84,-239"/>
<text text-anchor="middle" x="56" y="-227" font-family="Helvetica,sans-Serif" font-size="10.00">optional</text>
</a>
</g>
</g>
<!-- Node8&#45;&gt;Node28 -->
<g id="edge29_Node000008_Node000028" class="edge">
<title>Node8&#45;&gt;Node28</title>
<g id="a_edge29_Node000008_Node000028"><a xlink:title=" ">
<path fill="none" stroke="#63b8ff" d="M213.79,-274.98C181.3,-265.82 129.54,-251.23 94.23,-241.28"/>
<polygon fill="#63b8ff" stroke="#63b8ff" points="94.86,-237.82 84.29,-238.47 92.96,-244.56 94.86,-237.82"/>
</a>
</g>
</g>
<!-- Node10&#45;&gt;Node3 -->
<g id="edge12_Node000010_Node000003" class="edge">
<title>Node10&#45;&gt;Node3</title>
<g id="a_edge12_Node000010_Node000003"><a xlink:title=" ">
<path fill="none" stroke="#63b8ff" d="M231.11,-219.8C203.54,-200.08 143.43,-150.58 170,-110 182.79,-90.46 206.24,-79.46 227.43,-73.28"/>
<polygon fill="#63b8ff" stroke="#63b8ff" points="228.49,-76.62 237.28,-70.69 226.72,-69.85 228.49,-76.62"/>
</a>
</g>
</g>
<!-- Node10&#45;&gt;Node6 -->
<g id="edge10_Node000010_Node000006" class="edge">
<title>Node10&#45;&gt;Node6</title>
<g id="a_edge10_Node000010_Node000006"><a xlink:title=" ">
<path fill="none" stroke="#63b8ff" d="M235.71,-219.98C220.35,-203.7 187.45,-166.47 170,-129 154.59,-95.9 147.23,-53.52 144.07,-29.45"/>
<polygon fill="#63b8ff" stroke="#63b8ff" points="147.51,-28.74 142.84,-19.22 140.56,-29.57 147.51,-28.74"/>
</a>
</g>
</g>
<!-- Node11 -->
<g id="Node000011" class="node">
<title>Node11</title>
<g id="a_Node000011"><a xlink:title=" ">
<polygon fill="#e0e0e0" stroke="#999999" points="561.5,-19 514.5,-19 514.5,0 561.5,0 561.5,-19"/>
<text text-anchor="middle" x="538" y="-7" font-family="Helvetica,sans-Serif" font-size="10.00">vector</text>
</a>
</g>
</g>
<!-- Node10&#45;&gt;Node11 -->
<g id="edge11_Node000010_Node000011" class="edge">
<title>Node10&#45;&gt;Node11</title>
<g id="a_edge11_Node000010_Node000011"><a xlink:title=" ">
<path fill="none" stroke="#63b8ff" d="M266.14,-221.46C326.57,-202.07 490.99,-148.04 508,-129 533.01,-101 537.78,-55.11 538.34,-29.43"/>
<polygon fill="#63b8ff" stroke="#63b8ff" points="541.84,-29.19 538.36,-19.19 534.84,-29.18 541.84,-29.19"/>
</a>
</g>
</g>
<!-- Node12 -->
<g id="Node000012" class="node">
<title>Node12</title>
<g id="a_Node000012"><a xlink:href="irep__ids_8h.html" target="_top" xlink:title="util">
<polygon fill="white" stroke="#666666" points="624,-184 560,-184 560,-165 624,-165 624,-184"/>
<text text-anchor="middle" x="592" y="-172" font-family="Helvetica,sans-Serif" font-size="10.00">irep_ids.h</text>
</a>
</g>
</g>
<!-- Node10&#45;&gt;Node12 -->
<g id="edge13_Node000010_Node000012" class="edge">
<title>Node10&#45;&gt;Node12</title>
<g id="a_edge13_Node000010_Node000012"><a xlink:title=" ">
<path fill="none" stroke="#63b8ff" d="M266.27,-222.01C269.19,-221.27 272.16,-220.58 275,-220 391.9,-196.17 423.04,-201.81 541,-184 543.87,-183.57 546.83,-183.11 549.81,-182.63"/>
<polygon fill="#63b8ff" stroke="#63b8ff" points="550.61,-186.05 559.92,-181 549.49,-179.14 550.61,-186.05"/>
</a>
</g>
</g>
<!-- Node23 -->
<g id="Node000023" class="node">
<title>Node23</title>
<g id="a_Node000023"><a xlink:href="forward__list__as__map_8h.html" target="_top" xlink:title=" ">
<polygon fill="white" stroke="#666666" points="352.5,-184 225.5,-184 225.5,-165 352.5,-165 352.5,-184"/>
<text text-anchor="middle" x="289" y="-172" font-family="Helvetica,sans-Serif" font-size="10.00">forward_list_as_map.h</text>
</a>
</g>
</g>
<!-- Node10&#45;&gt;Node23 -->
<g id="edge22_Node000010_Node000023" class="edge">
<title>Node10&#45;&gt;Node23</title>
<g id="a_edge22_Node000010_Node000023"><a xlink:title=" ">
<path fill="none" stroke="#63b8ff" d="M251.43,-219.75C257.85,-212.18 267.31,-201.05 275.12,-191.84"/>
<polygon fill="#63b8ff" stroke="#63b8ff" points="277.9,-193.98 281.71,-184.09 272.57,-189.45 277.9,-193.98"/>
</a>
</g>
</g>
<!-- Node13 -->
<g id="Node000013" class="node">
<title>Node13</title>
<g id="a_Node000013"><a xlink:href="dstring_8h.html" target="_top" xlink:title="Container for C&#45;Strings.">
<polygon fill="white" stroke="#666666" points="744.5,-129 685.5,-129 685.5,-110 744.5,-110 744.5,-129"/>
<text text-anchor="middle" x="715" y="-117" font-family="Helvetica,sans-Serif" font-size="10.00">dstring.h</text>
</a>
</g>
</g>
<!-- Node12&#45;&gt;Node13 -->
<g id="edge14_Node000012_Node000013" class="edge">
<title>Node12&#45;&gt;Node13</title>
<g id="a_edge14_Node000012_Node000013"><a xlink:title=" ">
<path fill="none" stroke="#63b8ff" d="M611.76,-164.98C631.73,-156.38 662.8,-142.99 685.65,-133.15"/>
<polygon fill="#63b8ff" stroke="#63b8ff" points="687.08,-136.34 694.88,-129.17 684.31,-129.91 687.08,-136.34"/>
</a>
</g>
</g>
<!-- Node22 -->
<g id="Node000022" class="node">
<title>Node22</title>
<g id="a_Node000022"><a xlink:title=" ">
<polygon fill="#e0e0e0" stroke="#999999" points="629,-129 555,-129 555,-110 629,-110 629,-129"/>
<text text-anchor="middle" x="592" y="-117" font-family="Helvetica,sans-Serif" font-size="10.00">irep_ids.def</text>
</a>
</g>
</g>
<!-- Node12&#45;&gt;Node22 -->
<g id="edge21_Node000012_Node000022" class="edge">
<title>Node12&#45;&gt;Node22</title>
<g id="a_edge21_Node000012_Node000022"><a xlink:title=" ">
<path fill="none" stroke="#63b8ff" d="M592,-164.75C592,-157.8 592,-147.85 592,-139.13"/>
<polygon fill="#63b8ff" stroke="#63b8ff" points="595.5,-139.09 592,-129.09 588.5,-139.09 595.5,-139.09"/>
</a>
</g>
</g>
<!-- Node13&#45;&gt;Node6 -->
<g id="edge16_Node000013_Node000006" class="edge">
<title>Node13&#45;&gt;Node6</title>
<g id="a_edge16_Node000013_Node000006"><a xlink:title=" ">
<path fill="none" stroke="#63b8ff" d="M703.01,-109.75C680.97,-93.85 634.57,-61.27 616,-55 431.95,7.16 369.61,-51.26 174.25,-18.85"/>
<polygon fill="#63b8ff" stroke="#63b8ff" points="174.69,-15.38 164.24,-17.13 173.5,-22.27 174.69,-15.38"/>
</a>
</g>
</g>
<!-- Node13&#45;&gt;Node14 -->
<g id="edge15_Node000013_Node000014" class="edge">
<title>Node13&#45;&gt;Node14</title>
<g id="a_edge15_Node000013_Node000014"><a xlink:title=" ">
<path fill="none" stroke="#63b8ff" d="M730.1,-109.98C744.82,-101.69 767.42,-88.94 784.67,-79.22"/>
<polygon fill="#63b8ff" stroke="#63b8ff" points="786.63,-82.13 793.62,-74.17 783.19,-76.03 786.63,-82.13"/>
</a>
</g>
</g>
<!-- Node15 -->
<g id="Node000015" class="node">
<title>Node15</title>
<g id="a_Node000015"><a xlink:href="magic_8h.html" target="_top" xlink:title="Magic numbers used throughout the codebase.">
<polygon fill="#fff0f0" stroke="red" points="607,-74 551,-74 551,-55 607,-55 607,-74"/>
<text text-anchor="middle" x="579" y="-62" font-family="Helvetica,sans-Serif" font-size="10.00">magic.h</text>
</a>
</g>
</g>
<!-- Node13&#45;&gt;Node15 -->
<g id="edge17_Node000013_Node000015" class="edge">
<title>Node13&#45;&gt;Node15</title>
<g id="a_edge17_Node000013_Node000015"><a xlink:title=" ">
<path fill="none" stroke="#63b8ff" d="M693.15,-109.98C670.88,-101.3 636.1,-87.75 610.78,-77.88"/>
<polygon fill="#63b8ff" stroke="#63b8ff" points="611.84,-74.54 601.25,-74.17 609.29,-81.06 611.84,-74.54"/>
</a>
</g>
</g>
<!-- Node17 -->
<g id="Node000017" class="node">
<title>Node17</title>
<g id="a_Node000017"><a xlink:href="string__container_8h.html" target="_top" xlink:title="Container for C&#45;Strings.">
<polygon fill="#fff0f0" stroke="red" points="767,-74 663,-74 663,-55 767,-55 767,-74"/>
<text text-anchor="middle" x="715" y="-62" font-family="Helvetica,sans-Serif" font-size="10.00">string_container.h</text>
</a>
</g>
</g>
<!-- Node13&#45;&gt;Node17 -->
<g id="edge18_Node000013_Node000017" class="edge">
<title>Node13&#45;&gt;Node17</title>
<g id="a_edge18_Node000013_Node000017"><a xlink:title=" ">
<path fill="none" stroke="#63b8ff" d="M715,-109.75C715,-102.8 715,-92.85 715,-84.13"/>
<polygon fill="#63b8ff" stroke="#63b8ff" points="718.5,-84.09 715,-74.09 711.5,-84.09 718.5,-84.09"/>
</a>
</g>
</g>
<!-- Node17&#45;&gt;Node11 -->
<g id="edge20_Node000017_Node000011" class="edge">
<title>Node17&#45;&gt;Node11</title>
<g id="a_edge20_Node000017_Node000011"><a xlink:title=" ">
<path fill="none" stroke="#63b8ff" d="M686.56,-54.98C655.12,-45.57 604.54,-30.42 571.28,-20.46"/>
<polygon fill="#63b8ff" stroke="#63b8ff" points="572.14,-17.07 561.55,-17.55 570.13,-23.77 572.14,-17.07"/>
</a>
</g>
</g>
<!-- Node17&#45;&gt;Node18 -->
<g id="edge19_Node000017_Node000018" class="edge">
<title>Node17&#45;&gt;Node18</title>
<g id="a_edge19_Node000017_Node000018"><a xlink:title=" ">
<path fill="none" stroke="#63b8ff" d="M734.12,-54.98C754.38,-45.96 786.47,-31.67 808.78,-21.73"/>
<polygon fill="#63b8ff" stroke="#63b8ff" points="810.27,-24.9 817.98,-17.63 807.42,-18.51 810.27,-24.9"/>
</a>
</g>
</g>
<!-- Node24 -->
<g id="Node000024" class="node">
<title>Node24</title>
<g id="a_Node000024"><a xlink:title=" ">
<polygon fill="#e0e0e0" stroke="#999999" points="321,-129 257,-129 257,-110 321,-110 321,-129"/>
<text text-anchor="middle" x="289" y="-117" font-family="Helvetica,sans-Serif" font-size="10.00">algorithm</text>
</a>
</g>
</g>
<!-- Node23&#45;&gt;Node24 -->
<g id="edge23_Node000023_Node000024" class="edge">
<title>Node23&#45;&gt;Node24</title>
<g id="a_edge23_Node000023_Node000024"><a xlink:title=" ">
<path fill="none" stroke="#63b8ff" d="M289,-164.75C289,-157.8 289,-147.85 289,-139.13"/>
<polygon fill="#63b8ff" stroke="#63b8ff" points="292.5,-139.09 289,-129.09 285.5,-139.09 292.5,-139.09"/>
</a>
</g>
</g>
<!-- Node25 -->
<g id="Node000025" class="node">
<title>Node25</title>
<g id="a_Node000025"><a xlink:title=" ">
<polygon fill="#e0e0e0" stroke="#999999" points="413,-129 339,-129 339,-110 413,-110 413,-129"/>
<text text-anchor="middle" x="376" y="-117" font-family="Helvetica,sans-Serif" font-size="10.00">forward_list</text>
</a>
</g>
</g>
<!-- Node23&#45;&gt;Node25 -->
<g id="edge24_Node000023_Node000025" class="edge">
<title>Node23&#45;&gt;Node25</title>
<g id="a_edge24_Node000023_Node000025"><a xlink:title=" ">
<path fill="none" stroke="#63b8ff" d="M302.98,-164.98C316.47,-156.77 337.13,-144.18 353.04,-134.49"/>
<polygon fill="#63b8ff" stroke="#63b8ff" points="355.05,-137.36 361.77,-129.17 351.41,-131.38 355.05,-137.36"/>
</a>
</g>
</g>
<!-- Node26 -->
<g id="Node000026" class="node">
<title>Node26</title>
<g id="a_Node000026"><a xlink:href="as__const_8h.html" target="_top" xlink:title=" ">
<polygon fill="white" stroke="#666666" points="499,-129 431,-129 431,-110 499,-110 499,-129"/>
<text text-anchor="middle" x="465" y="-117" font-family="Helvetica,sans-Serif" font-size="10.00">as_const.h</text>
</a>
</g>
</g>
<!-- Node23&#45;&gt;Node26 -->
<g id="edge25_Node000023_Node000026" class="edge">
<title>Node23&#45;&gt;Node26</title>
<g id="a_edge25_Node000023_Node000026"><a xlink:title=" ">
<path fill="none" stroke="#63b8ff" d="M317.28,-164.98C346.95,-156.05 393.79,-141.94 426.75,-132.02"/>
<polygon fill="#63b8ff" stroke="#63b8ff" points="427.93,-135.32 436.5,-129.08 425.92,-128.61 427.93,-135.32"/>
</a>
</g>
</g>
<!-- Node27 -->
<g id="Node000027" class="node">
<title>Node27</title>
<g id="a_Node000027"><a xlink:href="narrow_8h.html" target="_top" xlink:title=" ">
<polygon fill="white" stroke="#666666" points="238.5,-129 179.5,-129 179.5,-110 238.5,-110 238.5,-129"/>
<text text-anchor="middle" x="209" y="-117" font-family="Helvetica,sans-Serif" font-size="10.00">narrow.h</text>
</a>
</g>
</g>
<!-- Node23&#45;&gt;Node27 -->
<g id="edge26_Node000023_Node000027" class="edge">
<title>Node23&#45;&gt;Node27</title>
<g id="a_edge26_Node000023_Node000027"><a xlink:title=" ">
<path fill="none" stroke="#63b8ff" d="M276.15,-164.98C263.86,-156.84 245.09,-144.41 230.52,-134.76"/>
<polygon fill="#63b8ff" stroke="#63b8ff" points="232.36,-131.78 222.09,-129.17 228.49,-137.61 232.36,-131.78"/>
</a>
</g>
</g>
<!-- Node27&#45;&gt;Node3 -->
<g id="edge28_Node000027_Node000003" class="edge">
<title>Node27&#45;&gt;Node3</title>
<g id="a_edge28_Node000027_Node000003"><a xlink:title=" ">
<path fill="none" stroke="#63b8ff" d="M219.12,-109.98C228.44,-102.15 242.47,-90.34 253.74,-80.86"/>
<polygon fill="#63b8ff" stroke="#63b8ff" points="256.29,-83.29 261.69,-74.17 251.79,-77.93 256.29,-83.29"/>
</a>
</g>
</g>
<!-- Node27&#45;&gt;Node7 -->
<g id="edge27_Node000027_Node000007" class="edge">
<title>Node27&#45;&gt;Node7</title>
<g id="a_edge27_Node000027_Node000007"><a xlink:title=" ">
<path fill="none" stroke="#63b8ff" d="M209.65,-109.66C210.95,-92.17 213.87,-52.8 215.61,-29.27"/>
<polygon fill="#63b8ff" stroke="#63b8ff" points="219.11,-29.39 216.36,-19.16 212.13,-28.87 219.11,-29.39"/>
</a>
</g>
</g>
</g>
</svg>
