<?xml version="1.0" encoding="UTF-8" standalone="no"?>
<!DOCTYPE svg PUBLIC "-//W3C//DTD SVG 1.1//EN"
 "http://www.w3.org/Graphics/SVG/1.1/DTD/svg11.dtd">
<!-- Generated by graphviz version 2.43.0 (0)
 -->
<!-- Title: /home/runner/work/cbmc/cbmc/src/analyses/local_control_flow_history.h Pages: 1 -->
<svg width="304pt" height="126pt"
 viewBox="0.00 0.00 303.50 126.00" xmlns="http://www.w3.org/2000/svg" xmlns:xlink="http://www.w3.org/1999/xlink">
<g id="graph0" class="graph" transform="scale(1 1) rotate(0) translate(4 122)">
<title>/home/runner/work/cbmc/cbmc/src/analyses/local_control_flow_history.h</title>
<!-- Node1 -->
<g id="Node000001" class="node">
<title>Node1</title>
<g id="a_Node000001"><a xlink:title="Track function&#45;local control flow for loop unwinding and path senstivity.">
<polygon fill="#999999" stroke="#666666" points="216.5,-118 78.5,-118 78.5,-77 216.5,-77 216.5,-118"/>
<text text-anchor="start" x="86.5" y="-106" font-family="Helvetica,sans-Serif" font-size="10.00">/home/runner/work/cbmc</text>
<text text-anchor="start" x="86.5" y="-95" font-family="Helvetica,sans-Serif" font-size="10.00">/cbmc/src/analyses/local</text>
<text text-anchor="middle" x="147.5" y="-84" font-family="Helvetica,sans-Serif" font-size="10.00">_control_flow_history.h</text>
</a>
</g>
</g>
<!-- Node2 -->
<g id="Node000002" class="node">
<title>Node2</title>
<g id="a_Node000002"><a xlink:href="local__control__flow__history_8cpp.html" target="_top" xlink:title="Track function&#45;local control flow for loop unwinding and path senstivity.">
<polygon fill="white" stroke="#666666" points="139,-41 0,-41 0,0 139,0 139,-41"/>
<text text-anchor="start" x="8" y="-29" font-family="Helvetica,sans-Serif" font-size="10.00">/home/runner/work/cbmc</text>
<text text-anchor="start" x="8" y="-18" font-family="Helvetica,sans-Serif" font-size="10.00">/cbmc/src/analyses/local</text>
<text text-anchor="middle" x="69.5" y="-7" font-family="Helvetica,sans-Serif" font-size="10.00">_control_flow_history.cpp</text>
</a>
</g>
</g>
<!-- Node1&#45;&gt;Node2 -->
<g id="edge1_Node000001_Node000002" class="edge">
<title>Node1&#45;&gt;Node2</title>
<g id="a_edge1_Node000001_Node000002"><a xlink:title=" ">
<path fill="none" stroke="#63b8ff" d="M119.72,-69.79C109.87,-60.32 98.97,-49.84 89.86,-41.07"/>
<polygon fill="#63b8ff" stroke="#63b8ff" points="117.37,-72.39 127.01,-76.79 122.22,-67.34 117.37,-72.39"/>
</a>
</g>
</g>
<!-- Node3 -->
<g id="Node000003" class="node">
<title>Node3</title>
<g id="a_Node000003"><a xlink:href="build__analyzer_8cpp.html" target="_top" xlink:title=" ">
<polygon fill="white" stroke="#666666" points="295.5,-41 157.5,-41 157.5,0 295.5,0 295.5,-41"/>
<text text-anchor="start" x="165.5" y="-29" font-family="Helvetica,sans-Serif" font-size="10.00">/home/runner/work/cbmc</text>
<text text-anchor="start" x="165.5" y="-18" font-family="Helvetica,sans-Serif" font-size="10.00">/cbmc/src/goto&#45;analyzer</text>
<text text-anchor="middle" x="226.5" y="-7" font-family="Helvetica,sans-Serif" font-size="10.00">/build_analyzer.cpp</text>
</a>
</g>
</g>
<!-- Node1&#45;&gt;Node3 -->
<g id="edge2_Node000001_Node000003" class="edge">
<title>Node1&#45;&gt;Node3</title>
<g id="a_edge2_Node000001_Node000003"><a xlink:title=" ">
<path fill="none" stroke="#63b8ff" d="M175.63,-69.79C185.61,-60.32 196.65,-49.84 205.88,-41.07"/>
<polygon fill="#63b8ff" stroke="#63b8ff" points="173.1,-67.37 168.26,-76.79 177.92,-72.45 173.1,-67.37"/>
</a>
</g>
</g>
</g>
</svg>
