<?xml version="1.0" encoding="UTF-8" standalone="no"?>
<!DOCTYPE svg PUBLIC "-//W3C//DTD SVG 1.1//EN"
 "http://www.w3.org/Graphics/SVG/1.1/DTD/svg11.dtd">
<!-- Generated by graphviz version 2.43.0 (0)
 -->
<!-- Title: /home/runner/work/cbmc/cbmc/src/goto&#45;symex/memory_model_pso.cpp Pages: 1 -->
<svg width="177pt" height="379pt"
 viewBox="0.00 0.00 177.00 379.00" xmlns="http://www.w3.org/2000/svg" xmlns:xlink="http://www.w3.org/1999/xlink">
<g id="graph0" class="graph" transform="scale(1 1) rotate(0) translate(4 375)">
<title>/home/runner/work/cbmc/cbmc/src/goto&#45;symex/memory_model_pso.cpp</title>
<!-- Node1 -->
<g id="Node000001" class="node">
<title>Node1</title>
<g id="a_Node000001"><a xlink:title="Memory model for partial order concurrency.">
<polygon fill="#999999" stroke="#666666" points="169,-371 0,-371 0,-330 169,-330 169,-371"/>
<text text-anchor="start" x="8" y="-359" font-family="Helvetica,sans-Serif" font-size="10.00">/home/runner/work/cbmc</text>
<text text-anchor="start" x="8" y="-348" font-family="Helvetica,sans-Serif" font-size="10.00">/cbmc/src/goto&#45;symex/memory</text>
<text text-anchor="middle" x="84.5" y="-337" font-family="Helvetica,sans-Serif" font-size="10.00">_model_pso.cpp</text>
</a>
</g>
</g>
<!-- Node2 -->
<g id="Node000002" class="node">
<title>Node2</title>
<g id="a_Node000002"><a xlink:href="memory__model__pso_8h.html" target="_top" xlink:title="Memory models for partial order concurrency.">
<polygon fill="white" stroke="#666666" points="147,-294 22,-294 22,-275 147,-275 147,-294"/>
<text text-anchor="middle" x="84.5" y="-282" font-family="Helvetica,sans-Serif" font-size="10.00">memory_model_pso.h</text>
</a>
</g>
</g>
<!-- Node1&#45;&gt;Node2 -->
<g id="edge1_Node000001_Node000002" class="edge">
<title>Node1&#45;&gt;Node2</title>
<g id="a_edge1_Node000001_Node000002"><a xlink:title=" ">
<path fill="none" stroke="#63b8ff" d="M84.5,-329.95C84.5,-321.85 84.5,-312.5 84.5,-304.47"/>
<polygon fill="#63b8ff" stroke="#63b8ff" points="88,-304.26 84.5,-294.26 81,-304.26 88,-304.26"/>
</a>
</g>
</g>
<!-- Node3 -->
<g id="Node000003" class="node">
<title>Node3</title>
<g id="a_Node000003"><a xlink:href="memory__model__tso_8h.html" target="_top" xlink:title="Memory models for partial order concurrency.">
<polygon fill="white" stroke="#666666" points="146,-239 23,-239 23,-220 146,-220 146,-239"/>
<text text-anchor="middle" x="84.5" y="-227" font-family="Helvetica,sans-Serif" font-size="10.00">memory_model_tso.h</text>
</a>
</g>
</g>
<!-- Node2&#45;&gt;Node3 -->
<g id="edge2_Node000002_Node000003" class="edge">
<title>Node2&#45;&gt;Node3</title>
<g id="a_edge2_Node000002_Node000003"><a xlink:title=" ">
<path fill="none" stroke="#63b8ff" d="M84.5,-274.75C84.5,-267.8 84.5,-257.85 84.5,-249.13"/>
<polygon fill="#63b8ff" stroke="#63b8ff" points="88,-249.09 84.5,-239.09 81,-249.09 88,-249.09"/>
</a>
</g>
</g>
<!-- Node4 -->
<g id="Node000004" class="node">
<title>Node4</title>
<g id="a_Node000004"><a xlink:href="memory__model__sc_8h.html" target="_top" xlink:title="Memory models for partial order concurrency.">
<polygon fill="white" stroke="#666666" points="144,-184 25,-184 25,-165 144,-165 144,-184"/>
<text text-anchor="middle" x="84.5" y="-172" font-family="Helvetica,sans-Serif" font-size="10.00">memory_model_sc.h</text>
</a>
</g>
</g>
<!-- Node3&#45;&gt;Node4 -->
<g id="edge3_Node000003_Node000004" class="edge">
<title>Node3&#45;&gt;Node4</title>
<g id="a_edge3_Node000003_Node000004"><a xlink:title=" ">
<path fill="none" stroke="#63b8ff" d="M84.5,-219.75C84.5,-212.8 84.5,-202.85 84.5,-194.13"/>
<polygon fill="#63b8ff" stroke="#63b8ff" points="88,-194.09 84.5,-184.09 81,-194.09 88,-194.09"/>
</a>
</g>
</g>
<!-- Node5 -->
<g id="Node000005" class="node">
<title>Node5</title>
<g id="a_Node000005"><a xlink:href="memory__model_8h.html" target="_top" xlink:title="Memory models for partial order concurrency.">
<polygon fill="white" stroke="#666666" points="136,-129 33,-129 33,-110 136,-110 136,-129"/>
<text text-anchor="middle" x="84.5" y="-117" font-family="Helvetica,sans-Serif" font-size="10.00">memory_model.h</text>
</a>
</g>
</g>
<!-- Node4&#45;&gt;Node5 -->
<g id="edge4_Node000004_Node000005" class="edge">
<title>Node4&#45;&gt;Node5</title>
<g id="a_edge4_Node000004_Node000005"><a xlink:title=" ">
<path fill="none" stroke="#63b8ff" d="M84.5,-164.75C84.5,-157.8 84.5,-147.85 84.5,-139.13"/>
<polygon fill="#63b8ff" stroke="#63b8ff" points="88,-139.09 84.5,-129.09 81,-139.09 88,-139.09"/>
</a>
</g>
</g>
<!-- Node6 -->
<g id="Node000006" class="node">
<title>Node6</title>
<g id="a_Node000006"><a xlink:href="partial__order__concurrency_8h.html" target="_top" xlink:title="Add constraints to equation encoding partial orders on events.">
<polygon fill="white" stroke="#666666" points="160,-74 9,-74 9,-55 160,-55 160,-74"/>
<text text-anchor="middle" x="84.5" y="-62" font-family="Helvetica,sans-Serif" font-size="10.00">partial_order_concurrency.h</text>
</a>
</g>
</g>
<!-- Node5&#45;&gt;Node6 -->
<g id="edge5_Node000005_Node000006" class="edge">
<title>Node5&#45;&gt;Node6</title>
<g id="a_edge5_Node000005_Node000006"><a xlink:title=" ">
<path fill="none" stroke="#63b8ff" d="M84.5,-109.75C84.5,-102.8 84.5,-92.85 84.5,-84.13"/>
<polygon fill="#63b8ff" stroke="#63b8ff" points="88,-84.09 84.5,-74.09 81,-84.09 88,-84.09"/>
</a>
</g>
</g>
<!-- Node7 -->
<g id="Node000007" class="node">
<title>Node7</title>
<g id="a_Node000007"><a xlink:href="symex__target__equation_8h.html" target="_top" xlink:title="Generate Equation using Symbolic Execution.">
<polygon fill="#fff0f0" stroke="red" points="155,-19 14,-19 14,0 155,0 155,-19"/>
<text text-anchor="middle" x="84.5" y="-7" font-family="Helvetica,sans-Serif" font-size="10.00">symex_target_equation.h</text>
</a>
</g>
</g>
<!-- Node6&#45;&gt;Node7 -->
<g id="edge6_Node000006_Node000007" class="edge">
<title>Node6&#45;&gt;Node7</title>
<g id="a_edge6_Node000006_Node000007"><a xlink:title=" ">
<path fill="none" stroke="#63b8ff" d="M84.5,-54.75C84.5,-47.8 84.5,-37.85 84.5,-29.13"/>
<polygon fill="#63b8ff" stroke="#63b8ff" points="88,-29.09 84.5,-19.09 81,-29.09 88,-29.09"/>
</a>
</g>
</g>
</g>
</svg>
