<?xml version="1.0" encoding="UTF-8" standalone="no"?>
<!DOCTYPE svg PUBLIC "-//W3C//DTD SVG 1.1//EN"
 "http://www.w3.org/Graphics/SVG/1.1/DTD/svg11.dtd">
<!-- Generated by graphviz version 2.43.0 (0)
 -->
<!-- Title: /home/runner/work/cbmc/cbmc/src/goto&#45;cc/ms_cl_cmdline.cpp Pages: 1 -->
<svg width="556pt" height="269pt"
 viewBox="0.00 0.00 556.00 269.00" xmlns="http://www.w3.org/2000/svg" xmlns:xlink="http://www.w3.org/1999/xlink">
<g id="graph0" class="graph" transform="scale(1 1) rotate(0) translate(4 265)">
<title>/home/runner/work/cbmc/cbmc/src/goto&#45;cc/ms_cl_cmdline.cpp</title>
<!-- Node1 -->
<g id="Node000001" class="node">
<title>Node1</title>
<g id="a_Node000001"><a xlink:title="A special command line object for the CL options.">
<polygon fill="#999999" stroke="#666666" points="407,-261 269,-261 269,-220 407,-220 407,-261"/>
<text text-anchor="start" x="277" y="-249" font-family="Helvetica,sans-Serif" font-size="10.00">/home/runner/work/cbmc</text>
<text text-anchor="start" x="277" y="-238" font-family="Helvetica,sans-Serif" font-size="10.00">/cbmc/src/goto&#45;cc/ms_cl</text>
<text text-anchor="middle" x="338" y="-227" font-family="Helvetica,sans-Serif" font-size="10.00">_cmdline.cpp</text>
</a>
</g>
</g>
<!-- Node2 -->
<g id="Node000002" class="node">
<title>Node2</title>
<g id="a_Node000002"><a xlink:href="ms__cl__cmdline_8h.html" target="_top" xlink:title="A special command line object for the gcc&#45;like options.">
<polygon fill="white" stroke="#666666" points="221,-184 123,-184 123,-165 221,-165 221,-184"/>
<text text-anchor="middle" x="172" y="-172" font-family="Helvetica,sans-Serif" font-size="10.00">ms_cl_cmdline.h</text>
</a>
</g>
</g>
<!-- Node1&#45;&gt;Node2 -->
<g id="edge1_Node000001_Node000002" class="edge">
<title>Node1&#45;&gt;Node2</title>
<g id="a_edge1_Node000001_Node000002"><a xlink:title=" ">
<path fill="none" stroke="#63b8ff" d="M287.29,-219.95C260.09,-209.46 227.42,-196.87 203.81,-187.76"/>
<polygon fill="#63b8ff" stroke="#63b8ff" points="204.87,-184.42 194.29,-184.09 202.36,-190.95 204.87,-184.42"/>
</a>
</g>
</g>
<!-- Node10 -->
<g id="Node000010" class="node">
<title>Node10</title>
<g id="a_Node000010"><a xlink:href="unicode_8h.html" target="_top" xlink:title=" ">
<polygon fill="white" stroke="#666666" points="305.5,-74 222.5,-74 222.5,-55 305.5,-55 305.5,-74"/>
<text text-anchor="middle" x="264" y="-62" font-family="Helvetica,sans-Serif" font-size="10.00">util/unicode.h</text>
</a>
</g>
</g>
<!-- Node1&#45;&gt;Node10 -->
<g id="edge9_Node000001_Node000010" class="edge">
<title>Node1&#45;&gt;Node10</title>
<g id="a_edge9_Node000001_Node000010"><a xlink:title=" ">
<path fill="none" stroke="#63b8ff" d="M303.19,-219.77C290.45,-210.63 277.36,-198.55 270,-184 253.78,-151.95 256.87,-108.58 260.5,-84.18"/>
<polygon fill="#63b8ff" stroke="#63b8ff" points="263.98,-84.58 262.18,-74.14 257.07,-83.42 263.98,-84.58"/>
</a>
</g>
</g>
<!-- Node12 -->
<g id="Node000012" class="node">
<title>Node12</title>
<g id="a_Node000012"><a xlink:title=" ">
<polygon fill="#e0e0e0" stroke="#999999" points="329,-184 279,-184 279,-165 329,-165 329,-184"/>
<text text-anchor="middle" x="304" y="-172" font-family="Helvetica,sans-Serif" font-size="10.00">climits</text>
</a>
</g>
</g>
<!-- Node1&#45;&gt;Node12 -->
<g id="edge13_Node000001_Node000012" class="edge">
<title>Node1&#45;&gt;Node12</title>
<g id="a_edge13_Node000001_Node000012"><a xlink:title=" ">
<path fill="none" stroke="#63b8ff" d="M327.61,-219.95C323.07,-211.39 317.77,-201.42 313.35,-193.1"/>
<polygon fill="#63b8ff" stroke="#63b8ff" points="316.44,-191.45 308.65,-184.26 310.25,-194.73 316.44,-191.45"/>
</a>
</g>
</g>
<!-- Node13 -->
<g id="Node000013" class="node">
<title>Node13</title>
<g id="a_Node000013"><a xlink:title=" ">
<polygon fill="#e0e0e0" stroke="#999999" points="396.5,-184 347.5,-184 347.5,-165 396.5,-165 396.5,-184"/>
<text text-anchor="middle" x="372" y="-172" font-family="Helvetica,sans-Serif" font-size="10.00">cstdlib</text>
</a>
</g>
</g>
<!-- Node1&#45;&gt;Node13 -->
<g id="edge14_Node000001_Node000013" class="edge">
<title>Node1&#45;&gt;Node13</title>
<g id="a_edge14_Node000001_Node000013"><a xlink:title=" ">
<path fill="none" stroke="#63b8ff" d="M348.39,-219.95C352.93,-211.39 358.23,-201.42 362.65,-193.1"/>
<polygon fill="#63b8ff" stroke="#63b8ff" points="365.75,-194.73 367.35,-184.26 359.56,-191.45 365.75,-194.73"/>
</a>
</g>
</g>
<!-- Node14 -->
<g id="Node000014" class="node">
<title>Node14</title>
<g id="a_Node000014"><a xlink:title=" ">
<polygon fill="#e0e0e0" stroke="#999999" points="469.5,-184 414.5,-184 414.5,-165 469.5,-165 469.5,-184"/>
<text text-anchor="middle" x="442" y="-172" font-family="Helvetica,sans-Serif" font-size="10.00">fstream</text>
</a>
</g>
</g>
<!-- Node1&#45;&gt;Node14 -->
<g id="edge15_Node000001_Node000014" class="edge">
<title>Node1&#45;&gt;Node14</title>
<g id="a_edge15_Node000001_Node000014"><a xlink:title=" ">
<path fill="none" stroke="#63b8ff" d="M369.77,-219.95C385.74,-210.12 404.74,-198.43 419.24,-189.51"/>
<polygon fill="#63b8ff" stroke="#63b8ff" points="421.36,-192.31 428.04,-184.09 417.69,-186.35 421.36,-192.31"/>
</a>
</g>
</g>
<!-- Node15 -->
<g id="Node000015" class="node">
<title>Node15</title>
<g id="a_Node000015"><a xlink:title=" ">
<polygon fill="#e0e0e0" stroke="#999999" points="548,-184 488,-184 488,-165 548,-165 548,-184"/>
<text text-anchor="middle" x="518" y="-172" font-family="Helvetica,sans-Serif" font-size="10.00">iostream</text>
</a>
</g>
</g>
<!-- Node1&#45;&gt;Node15 -->
<g id="edge16_Node000001_Node000015" class="edge">
<title>Node1&#45;&gt;Node15</title>
<g id="a_edge16_Node000001_Node000015"><a xlink:title=" ">
<path fill="none" stroke="#63b8ff" d="M392.98,-219.95C422.74,-209.37 458.54,-196.64 484.19,-187.52"/>
<polygon fill="#63b8ff" stroke="#63b8ff" points="485.59,-190.74 493.84,-184.09 483.24,-184.14 485.59,-190.74"/>
</a>
</g>
</g>
<!-- Node3 -->
<g id="Node000003" class="node">
<title>Node3</title>
<g id="a_Node000003"><a xlink:href="goto__cc__cmdline_8h.html" target="_top" xlink:title="Command line interpretation for goto&#45;cc.">
<polygon fill="white" stroke="#666666" points="217.5,-129 110.5,-129 110.5,-110 217.5,-110 217.5,-129"/>
<text text-anchor="middle" x="164" y="-117" font-family="Helvetica,sans-Serif" font-size="10.00">goto_cc_cmdline.h</text>
</a>
</g>
</g>
<!-- Node2&#45;&gt;Node3 -->
<g id="edge2_Node000002_Node000003" class="edge">
<title>Node2&#45;&gt;Node3</title>
<g id="a_edge2_Node000002_Node000003"><a xlink:title=" ">
<path fill="none" stroke="#63b8ff" d="M170.68,-164.75C169.63,-157.8 168.13,-147.85 166.81,-139.13"/>
<polygon fill="#63b8ff" stroke="#63b8ff" points="170.25,-138.45 165.3,-129.09 163.33,-139.5 170.25,-138.45"/>
</a>
</g>
</g>
<!-- Node4 -->
<g id="Node000004" class="node">
<title>Node4</title>
<g id="a_Node000004"><a xlink:href="cmdline_8h.html" target="_top" xlink:title=" ">
<polygon fill="white" stroke="#666666" points="196.5,-74 113.5,-74 113.5,-55 196.5,-55 196.5,-74"/>
<text text-anchor="middle" x="155" y="-62" font-family="Helvetica,sans-Serif" font-size="10.00">util/cmdline.h</text>
</a>
</g>
</g>
<!-- Node3&#45;&gt;Node4 -->
<g id="edge3_Node000003_Node000004" class="edge">
<title>Node3&#45;&gt;Node4</title>
<g id="a_edge3_Node000003_Node000004"><a xlink:title=" ">
<path fill="none" stroke="#63b8ff" d="M162.51,-109.75C161.33,-102.8 159.64,-92.85 158.16,-84.13"/>
<polygon fill="#63b8ff" stroke="#63b8ff" points="161.58,-83.36 156.46,-74.09 154.68,-84.53 161.58,-83.36"/>
</a>
</g>
</g>
<!-- Node5 -->
<g id="Node000005" class="node">
<title>Node5</title>
<g id="a_Node000005"><a xlink:title=" ">
<polygon fill="#e0e0e0" stroke="#999999" points="44,-19 0,-19 0,0 44,0 44,-19"/>
<text text-anchor="middle" x="22" y="-7" font-family="Helvetica,sans-Serif" font-size="10.00">limits</text>
</a>
</g>
</g>
<!-- Node4&#45;&gt;Node5 -->
<g id="edge4_Node000004_Node000005" class="edge">
<title>Node4&#45;&gt;Node5</title>
<g id="a_edge4_Node000004_Node000005"><a xlink:title=" ">
<path fill="none" stroke="#63b8ff" d="M133.63,-54.98C111.85,-46.3 77.84,-32.75 53.08,-22.88"/>
<polygon fill="#63b8ff" stroke="#63b8ff" points="54.34,-19.62 43.76,-19.17 51.75,-26.12 54.34,-19.62"/>
</a>
</g>
</g>
<!-- Node6 -->
<g id="Node000006" class="node">
<title>Node6</title>
<g id="a_Node000006"><a xlink:title=" ">
<polygon fill="#e0e0e0" stroke="#999999" points="94,-19 62,-19 62,0 94,0 94,-19"/>
<text text-anchor="middle" x="78" y="-7" font-family="Helvetica,sans-Serif" font-size="10.00">list</text>
</a>
</g>
</g>
<!-- Node4&#45;&gt;Node6 -->
<g id="edge5_Node000004_Node000006" class="edge">
<title>Node4&#45;&gt;Node6</title>
<g id="a_edge5_Node000004_Node000006"><a xlink:title=" ">
<path fill="none" stroke="#63b8ff" d="M142.63,-54.98C130.91,-46.92 113.08,-34.65 99.11,-25.03"/>
<polygon fill="#63b8ff" stroke="#63b8ff" points="100.82,-21.96 90.6,-19.17 96.85,-27.72 100.82,-21.96"/>
</a>
</g>
</g>
<!-- Node7 -->
<g id="Node000007" class="node">
<title>Node7</title>
<g id="a_Node000007"><a xlink:title=" ">
<polygon fill="#e0e0e0" stroke="#999999" points="168,-19 112,-19 112,0 168,0 168,-19"/>
<text text-anchor="middle" x="140" y="-7" font-family="Helvetica,sans-Serif" font-size="10.00">optional</text>
</a>
</g>
</g>
<!-- Node4&#45;&gt;Node7 -->
<g id="edge6_Node000004_Node000007" class="edge">
<title>Node4&#45;&gt;Node7</title>
<g id="a_edge6_Node000004_Node000007"><a xlink:title=" ">
<path fill="none" stroke="#63b8ff" d="M152.52,-54.75C150.54,-47.72 147.68,-37.62 145.19,-28.84"/>
<polygon fill="#63b8ff" stroke="#63b8ff" points="148.52,-27.76 142.43,-19.09 141.79,-29.66 148.52,-27.76"/>
</a>
</g>
</g>
<!-- Node8 -->
<g id="Node000008" class="node">
<title>Node8</title>
<g id="a_Node000008"><a xlink:title=" ">
<polygon fill="#e0e0e0" stroke="#999999" points="230,-19 186,-19 186,0 230,0 230,-19"/>
<text text-anchor="middle" x="208" y="-7" font-family="Helvetica,sans-Serif" font-size="10.00">string</text>
</a>
</g>
</g>
<!-- Node4&#45;&gt;Node8 -->
<g id="edge7_Node000004_Node000008" class="edge">
<title>Node4&#45;&gt;Node8</title>
<g id="a_edge7_Node000004_Node000008"><a xlink:title=" ">
<path fill="none" stroke="#63b8ff" d="M163.75,-54.75C171.47,-47.03 182.9,-35.6 192.22,-26.28"/>
<polygon fill="#63b8ff" stroke="#63b8ff" points="194.81,-28.64 199.41,-19.09 189.86,-23.69 194.81,-28.64"/>
</a>
</g>
</g>
<!-- Node9 -->
<g id="Node000009" class="node">
<title>Node9</title>
<g id="a_Node000009"><a xlink:title=" ">
<polygon fill="#e0e0e0" stroke="#999999" points="295.5,-19 248.5,-19 248.5,0 295.5,0 295.5,-19"/>
<text text-anchor="middle" x="272" y="-7" font-family="Helvetica,sans-Serif" font-size="10.00">vector</text>
</a>
</g>
</g>
<!-- Node4&#45;&gt;Node9 -->
<g id="edge8_Node000004_Node000009" class="edge">
<title>Node4&#45;&gt;Node9</title>
<g id="a_edge8_Node000004_Node000009"><a xlink:title=" ">
<path fill="none" stroke="#63b8ff" d="M173.8,-54.98C192.62,-46.46 221.82,-33.23 243.5,-23.41"/>
<polygon fill="#63b8ff" stroke="#63b8ff" points="245.2,-26.48 252.86,-19.17 242.31,-20.11 245.2,-26.48"/>
</a>
</g>
</g>
<!-- Node10&#45;&gt;Node8 -->
<g id="edge11_Node000010_Node000008" class="edge">
<title>Node10&#45;&gt;Node8</title>
<g id="a_edge11_Node000010_Node000008"><a xlink:title=" ">
<path fill="none" stroke="#63b8ff" d="M255,-54.98C246.81,-47.23 234.49,-35.58 224.53,-26.14"/>
<polygon fill="#63b8ff" stroke="#63b8ff" points="226.83,-23.5 217.16,-19.17 222.02,-28.59 226.83,-23.5"/>
</a>
</g>
</g>
<!-- Node10&#45;&gt;Node9 -->
<g id="edge12_Node000010_Node000009" class="edge">
<title>Node10&#45;&gt;Node9</title>
<g id="a_edge12_Node000010_Node000009"><a xlink:title=" ">
<path fill="none" stroke="#63b8ff" d="M265.32,-54.75C266.37,-47.8 267.87,-37.85 269.19,-29.13"/>
<polygon fill="#63b8ff" stroke="#63b8ff" points="272.67,-29.5 270.7,-19.09 265.75,-28.45 272.67,-29.5"/>
</a>
</g>
</g>
<!-- Node11 -->
<g id="Node000011" class="node">
<title>Node11</title>
<g id="a_Node000011"><a xlink:title=" ">
<polygon fill="#e0e0e0" stroke="#999999" points="378,-19 314,-19 314,0 378,0 378,-19"/>
<text text-anchor="middle" x="346" y="-7" font-family="Helvetica,sans-Serif" font-size="10.00">algorithm</text>
</a>
</g>
</g>
<!-- Node10&#45;&gt;Node11 -->
<g id="edge10_Node000010_Node000011" class="edge">
<title>Node10&#45;&gt;Node11</title>
<g id="a_edge10_Node000010_Node000011"><a xlink:title=" ">
<path fill="none" stroke="#63b8ff" d="M277.17,-54.98C289.77,-46.84 309,-34.41 323.94,-24.76"/>
<polygon fill="#63b8ff" stroke="#63b8ff" points="326.09,-27.54 332.59,-19.17 322.29,-21.66 326.09,-27.54"/>
</a>
</g>
</g>
</g>
</svg>
