<?xml version="1.0" encoding="UTF-8" standalone="no"?>
<!DOCTYPE svg PUBLIC "-//W3C//DTD SVG 1.1//EN"
 "http://www.w3.org/Graphics/SVG/1.1/DTD/svg11.dtd">
<!-- Generated by graphviz version 2.43.0 (0)
 -->
<!-- Title: /home/runner/work/cbmc/cbmc/jbmc/src/java_bytecode/mz_zip_archive.h Pages: 1 -->
<svg width="2043pt" height="588pt"
 viewBox="0.00 0.00 2042.50 588.00" xmlns="http://www.w3.org/2000/svg" xmlns:xlink="http://www.w3.org/1999/xlink">
<g id="graph0" class="graph" transform="scale(1 1) rotate(0) translate(4 584)">
<title>/home/runner/work/cbmc/cbmc/jbmc/src/java_bytecode/mz_zip_archive.h</title>
<!-- Node1 -->
<g id="Node000001" class="node">
<title>Node1</title>
<g id="a_Node000001"><a xlink:title=" ">
<polygon fill="#999999" stroke="#666666" points="852.5,-580 688.5,-580 688.5,-539 852.5,-539 852.5,-580"/>
<text text-anchor="start" x="696.5" y="-568" font-family="Helvetica,sans-Serif" font-size="10.00">/home/runner/work/cbmc</text>
<text text-anchor="start" x="696.5" y="-557" font-family="Helvetica,sans-Serif" font-size="10.00">/cbmc/jbmc/src/java_bytecode</text>
<text text-anchor="middle" x="770.5" y="-546" font-family="Helvetica,sans-Serif" font-size="10.00">/mz_zip_archive.h</text>
</a>
</g>
</g>
<!-- Node2 -->
<g id="Node000002" class="node">
<title>Node2</title>
<g id="a_Node000002"><a xlink:href="jar__file_8h.html" target="_top" xlink:title=" ">
<polygon fill="white" stroke="#666666" points="761.5,-503 597.5,-503 597.5,-462 761.5,-462 761.5,-503"/>
<text text-anchor="start" x="605.5" y="-491" font-family="Helvetica,sans-Serif" font-size="10.00">/home/runner/work/cbmc</text>
<text text-anchor="start" x="605.5" y="-480" font-family="Helvetica,sans-Serif" font-size="10.00">/cbmc/jbmc/src/java_bytecode</text>
<text text-anchor="middle" x="679.5" y="-469" font-family="Helvetica,sans-Serif" font-size="10.00">/jar_file.h</text>
</a>
</g>
</g>
<!-- Node1&#45;&gt;Node2 -->
<g id="edge1_Node000001_Node000002" class="edge">
<title>Node1&#45;&gt;Node2</title>
<g id="a_edge1_Node000001_Node000002"><a xlink:title=" ">
<path fill="none" stroke="#63b8ff" d="M738.77,-532.35C727.1,-522.73 714.1,-512.01 703.25,-503.07"/>
<polygon fill="#63b8ff" stroke="#63b8ff" points="736.65,-535.14 746.59,-538.79 741.1,-529.73 736.65,-535.14"/>
</a>
</g>
</g>
<!-- Node31 -->
<g id="Node000031" class="node">
<title>Node31</title>
<g id="a_Node000031"><a xlink:href="mz__zip__archive_8cpp.html" target="_top" xlink:title=" ">
<polygon fill="white" stroke="#666666" points="943.5,-503 779.5,-503 779.5,-462 943.5,-462 943.5,-503"/>
<text text-anchor="start" x="787.5" y="-491" font-family="Helvetica,sans-Serif" font-size="10.00">/home/runner/work/cbmc</text>
<text text-anchor="start" x="787.5" y="-480" font-family="Helvetica,sans-Serif" font-size="10.00">/cbmc/jbmc/src/java_bytecode</text>
<text text-anchor="middle" x="861.5" y="-469" font-family="Helvetica,sans-Serif" font-size="10.00">/mz_zip_archive.cpp</text>
</a>
</g>
</g>
<!-- Node1&#45;&gt;Node31 -->
<g id="edge31_Node000001_Node000031" class="edge">
<title>Node1&#45;&gt;Node31</title>
<g id="a_edge31_Node000001_Node000031"><a xlink:title=" ">
<path fill="none" stroke="#63b8ff" d="M802.23,-532.35C813.9,-522.73 826.9,-512.01 837.75,-503.07"/>
<polygon fill="#63b8ff" stroke="#63b8ff" points="799.9,-529.73 794.41,-538.79 804.35,-535.14 799.9,-529.73"/>
</a>
</g>
</g>
<!-- Node3 -->
<g id="Node000003" class="node">
<title>Node3</title>
<g id="a_Node000003"><a xlink:href="jar__file_8cpp.html" target="_top" xlink:title=" ">
<polygon fill="white" stroke="#666666" points="596.5,-426 432.5,-426 432.5,-385 596.5,-385 596.5,-426"/>
<text text-anchor="start" x="440.5" y="-414" font-family="Helvetica,sans-Serif" font-size="10.00">/home/runner/work/cbmc</text>
<text text-anchor="start" x="440.5" y="-403" font-family="Helvetica,sans-Serif" font-size="10.00">/cbmc/jbmc/src/java_bytecode</text>
<text text-anchor="middle" x="514.5" y="-392" font-family="Helvetica,sans-Serif" font-size="10.00">/jar_file.cpp</text>
</a>
</g>
</g>
<!-- Node2&#45;&gt;Node3 -->
<g id="edge2_Node000002_Node000003" class="edge">
<title>Node2&#45;&gt;Node3</title>
<g id="a_edge2_Node000002_Node000003"><a xlink:title=" ">
<path fill="none" stroke="#63b8ff" d="M627.19,-457.72C604.73,-447.51 578.81,-435.73 557.49,-426.04"/>
<polygon fill="#63b8ff" stroke="#63b8ff" points="626.03,-461.04 636.58,-461.99 628.92,-454.67 626.03,-461.04"/>
</a>
</g>
</g>
<!-- Node4 -->
<g id="Node000004" class="node">
<title>Node4</title>
<g id="a_Node000004"><a xlink:href="jar__pool_8cpp.html" target="_top" xlink:title=" ">
<polygon fill="white" stroke="#666666" points="670.5,-349 506.5,-349 506.5,-308 670.5,-308 670.5,-349"/>
<text text-anchor="start" x="514.5" y="-337" font-family="Helvetica,sans-Serif" font-size="10.00">/home/runner/work/cbmc</text>
<text text-anchor="start" x="514.5" y="-326" font-family="Helvetica,sans-Serif" font-size="10.00">/cbmc/jbmc/src/java_bytecode</text>
<text text-anchor="middle" x="588.5" y="-315" font-family="Helvetica,sans-Serif" font-size="10.00">/jar_pool.cpp</text>
</a>
</g>
</g>
<!-- Node2&#45;&gt;Node4 -->
<g id="edge3_Node000002_Node000004" class="edge">
<title>Node2&#45;&gt;Node4</title>
<g id="a_edge3_Node000002_Node000004"><a xlink:title=" ">
<path fill="none" stroke="#63b8ff" d="M660.74,-453.26C655.09,-444.58 648.95,-434.96 643.5,-426 627.56,-399.81 610.2,-368.93 599.34,-349.28"/>
<polygon fill="#63b8ff" stroke="#63b8ff" points="657.99,-455.45 666.39,-461.9 663.84,-451.61 657.99,-455.45"/>
</a>
</g>
</g>
<!-- Node5 -->
<g id="Node000005" class="node">
<title>Node5</title>
<g id="a_Node000005"><a xlink:href="jar__pool_8h.html" target="_top" xlink:title=" ">
<polygon fill="white" stroke="#666666" points="816.5,-426 652.5,-426 652.5,-385 816.5,-385 816.5,-426"/>
<text text-anchor="start" x="660.5" y="-414" font-family="Helvetica,sans-Serif" font-size="10.00">/home/runner/work/cbmc</text>
<text text-anchor="start" x="660.5" y="-403" font-family="Helvetica,sans-Serif" font-size="10.00">/cbmc/jbmc/src/java_bytecode</text>
<text text-anchor="middle" x="734.5" y="-392" font-family="Helvetica,sans-Serif" font-size="10.00">/jar_pool.h</text>
</a>
</g>
</g>
<!-- Node2&#45;&gt;Node5 -->
<g id="edge4_Node000002_Node000005" class="edge">
<title>Node2&#45;&gt;Node5</title>
<g id="a_edge4_Node000002_Node000005"><a xlink:title=" ">
<path fill="none" stroke="#63b8ff" d="M699.91,-453.67C706.63,-444.5 713.97,-434.5 720.15,-426.07"/>
<polygon fill="#63b8ff" stroke="#63b8ff" points="697.04,-451.66 693.95,-461.79 702.69,-455.8 697.04,-451.66"/>
</a>
</g>
</g>
<!-- Node30 -->
<g id="Node000030" class="node">
<title>Node30</title>
<g id="a_Node000030"><a xlink:href="java__class__loader__base_8cpp.html" target="_top" xlink:title=" ">
<polygon fill="white" stroke="#666666" points="962.5,-272 798.5,-272 798.5,-231 962.5,-231 962.5,-272"/>
<text text-anchor="start" x="806.5" y="-260" font-family="Helvetica,sans-Serif" font-size="10.00">/home/runner/work/cbmc</text>
<text text-anchor="start" x="806.5" y="-249" font-family="Helvetica,sans-Serif" font-size="10.00">/cbmc/jbmc/src/java_bytecode</text>
<text text-anchor="middle" x="880.5" y="-238" font-family="Helvetica,sans-Serif" font-size="10.00">/java_class_loader_base.cpp</text>
</a>
</g>
</g>
<!-- Node2&#45;&gt;Node30 -->
<g id="edge30_Node000002_Node000030" class="edge">
<title>Node2&#45;&gt;Node30</title>
<g id="a_edge30_Node000002_Node000030"><a xlink:title=" ">
<path fill="none" stroke="#63b8ff" d="M771.44,-458.85C790.94,-450.87 810.22,-440.19 825.5,-426 869.84,-384.83 878.62,-308.17 880.23,-272.15"/>
<polygon fill="#63b8ff" stroke="#63b8ff" points="769.93,-455.69 761.87,-462.56 772.46,-462.21 769.93,-455.69"/>
</a>
</g>
</g>
<!-- Node5&#45;&gt;Node4 -->
<g id="edge5_Node000005_Node000004" class="edge">
<title>Node5&#45;&gt;Node4</title>
<g id="a_edge5_Node000005_Node000004"><a xlink:title=" ">
<path fill="none" stroke="#63b8ff" d="M687.41,-380.31C667.73,-370.2 645.15,-358.6 626.54,-349.04"/>
<polygon fill="#63b8ff" stroke="#63b8ff" points="686.03,-383.53 696.52,-384.99 689.23,-377.31 686.03,-383.53"/>
</a>
</g>
</g>
<!-- Node6 -->
<g id="Node000006" class="node">
<title>Node6</title>
<g id="a_Node000006"><a xlink:href="java__class__loader__base_8h.html" target="_top" xlink:title=" ">
<polygon fill="white" stroke="#666666" points="852.5,-349 688.5,-349 688.5,-308 852.5,-308 852.5,-349"/>
<text text-anchor="start" x="696.5" y="-337" font-family="Helvetica,sans-Serif" font-size="10.00">/home/runner/work/cbmc</text>
<text text-anchor="start" x="696.5" y="-326" font-family="Helvetica,sans-Serif" font-size="10.00">/cbmc/jbmc/src/java_bytecode</text>
<text text-anchor="middle" x="770.5" y="-315" font-family="Helvetica,sans-Serif" font-size="10.00">/java_class_loader_base.h</text>
</a>
</g>
</g>
<!-- Node5&#45;&gt;Node6 -->
<g id="edge6_Node000005_Node000006" class="edge">
<title>Node5&#45;&gt;Node6</title>
<g id="a_edge6_Node000005_Node000006"><a xlink:title=" ">
<path fill="none" stroke="#63b8ff" d="M748.4,-375.55C752.65,-366.69 757.23,-357.15 761.1,-349.07"/>
<polygon fill="#63b8ff" stroke="#63b8ff" points="745.13,-374.26 743.96,-384.79 751.44,-377.29 745.13,-374.26"/>
</a>
</g>
</g>
<!-- Node7 -->
<g id="Node000007" class="node">
<title>Node7</title>
<g id="a_Node000007"><a xlink:href="java__class__loader_8h.html" target="_top" xlink:title=" ">
<polygon fill="white" stroke="#666666" points="780.5,-272 616.5,-272 616.5,-231 780.5,-231 780.5,-272"/>
<text text-anchor="start" x="624.5" y="-260" font-family="Helvetica,sans-Serif" font-size="10.00">/home/runner/work/cbmc</text>
<text text-anchor="start" x="624.5" y="-249" font-family="Helvetica,sans-Serif" font-size="10.00">/cbmc/jbmc/src/java_bytecode</text>
<text text-anchor="middle" x="698.5" y="-238" font-family="Helvetica,sans-Serif" font-size="10.00">/java_class_loader.h</text>
</a>
</g>
</g>
<!-- Node6&#45;&gt;Node7 -->
<g id="edge7_Node000006_Node000007" class="edge">
<title>Node6&#45;&gt;Node7</title>
<g id="a_edge7_Node000006_Node000007"><a xlink:title=" ">
<path fill="none" stroke="#63b8ff" d="M744.59,-300.51C735.57,-291.11 725.63,-280.76 717.29,-272.07"/>
<polygon fill="#63b8ff" stroke="#63b8ff" points="742.13,-303 751.58,-307.79 747.18,-298.16 742.13,-303"/>
</a>
</g>
</g>
<!-- Node6&#45;&gt;Node30 -->
<g id="edge29_Node000006_Node000030" class="edge">
<title>Node6&#45;&gt;Node30</title>
<g id="a_edge29_Node000006_Node000030"><a xlink:title=" ">
<path fill="none" stroke="#63b8ff" d="M807.76,-302.09C822.1,-292.32 838.22,-281.32 851.65,-272.17"/>
<polygon fill="#63b8ff" stroke="#63b8ff" points="805.4,-299.47 799.11,-307.99 809.35,-305.25 805.4,-299.47"/>
</a>
</g>
</g>
<!-- Node8 -->
<g id="Node000008" class="node">
<title>Node8</title>
<g id="a_Node000008"><a xlink:href="ci__lazy__methods_8cpp.html" target="_top" xlink:title=" ">
<polygon fill="white" stroke="#666666" points="780.5,-118 616.5,-118 616.5,-77 780.5,-77 780.5,-118"/>
<text text-anchor="start" x="624.5" y="-106" font-family="Helvetica,sans-Serif" font-size="10.00">/home/runner/work/cbmc</text>
<text text-anchor="start" x="624.5" y="-95" font-family="Helvetica,sans-Serif" font-size="10.00">/cbmc/jbmc/src/java_bytecode</text>
<text text-anchor="middle" x="698.5" y="-84" font-family="Helvetica,sans-Serif" font-size="10.00">/ci_lazy_methods.cpp</text>
</a>
</g>
</g>
<!-- Node7&#45;&gt;Node8 -->
<g id="edge8_Node000007_Node000008" class="edge">
<title>Node7&#45;&gt;Node8</title>
<g id="a_edge8_Node000007_Node000008"><a xlink:title=" ">
<path fill="none" stroke="#63b8ff" d="M698.5,-220.58C698.5,-190.36 698.5,-144.53 698.5,-118.47"/>
<polygon fill="#63b8ff" stroke="#63b8ff" points="695,-220.94 698.5,-230.94 702,-220.94 695,-220.94"/>
</a>
</g>
</g>
<!-- Node9 -->
<g id="Node000009" class="node">
<title>Node9</title>
<g id="a_Node000009"><a xlink:href="java__bytecode__convert__class_8h.html" target="_top" xlink:title="JAVA Bytecode Language Conversion.">
<polygon fill="white" stroke="#666666" points="538.5,-195 366.5,-195 366.5,-154 538.5,-154 538.5,-195"/>
<text text-anchor="start" x="374.5" y="-183" font-family="Helvetica,sans-Serif" font-size="10.00">/home/runner/work/cbmc</text>
<text text-anchor="start" x="374.5" y="-172" font-family="Helvetica,sans-Serif" font-size="10.00">/cbmc/jbmc/src/java_bytecode</text>
<text text-anchor="middle" x="452.5" y="-161" font-family="Helvetica,sans-Serif" font-size="10.00">/java_bytecode_convert_class.h</text>
</a>
</g>
</g>
<!-- Node7&#45;&gt;Node9 -->
<g id="edge9_Node000007_Node000009" class="edge">
<title>Node7&#45;&gt;Node9</title>
<g id="a_edge9_Node000007_Node000009"><a xlink:title=" ">
<path fill="none" stroke="#63b8ff" d="M624.52,-227.94C590.14,-217.46 549.65,-205.12 516.6,-195.04"/>
<polygon fill="#63b8ff" stroke="#63b8ff" points="623.92,-231.42 634.51,-230.99 625.96,-224.73 623.92,-231.42"/>
</a>
</g>
</g>
<!-- Node14 -->
<g id="Node000014" class="node">
<title>Node14</title>
<g id="a_Node000014"><a xlink:href="java__bytecode__language_8cpp.html" target="_top" xlink:title=" ">
<polygon fill="white" stroke="#666666" points="598.5,-118 434.5,-118 434.5,-77 598.5,-77 598.5,-118"/>
<text text-anchor="start" x="442.5" y="-106" font-family="Helvetica,sans-Serif" font-size="10.00">/home/runner/work/cbmc</text>
<text text-anchor="start" x="442.5" y="-95" font-family="Helvetica,sans-Serif" font-size="10.00">/cbmc/jbmc/src/java_bytecode</text>
<text text-anchor="middle" x="516.5" y="-84" font-family="Helvetica,sans-Serif" font-size="10.00">/java_bytecode_language.cpp</text>
</a>
</g>
</g>
<!-- Node7&#45;&gt;Node14 -->
<g id="edge13_Node000007_Node000014" class="edge">
<title>Node7&#45;&gt;Node14</title>
<g id="a_edge13_Node000007_Node000014"><a xlink:title=" ">
<path fill="none" stroke="#63b8ff" d="M667.3,-224.44C631.22,-194.31 572.63,-145.37 540.12,-118.23"/>
<polygon fill="#63b8ff" stroke="#63b8ff" points="665.16,-227.22 675.08,-230.94 669.65,-221.84 665.16,-227.22"/>
</a>
</g>
</g>
<!-- Node17 -->
<g id="Node000017" class="node">
<title>Node17</title>
<g id="a_Node000017"><a xlink:href="java__bytecode__language_8h.html" target="_top" xlink:title=" ">
<polygon fill="white" stroke="#666666" points="1234.5,-195 1070.5,-195 1070.5,-154 1234.5,-154 1234.5,-195"/>
<text text-anchor="start" x="1078.5" y="-183" font-family="Helvetica,sans-Serif" font-size="10.00">/home/runner/work/cbmc</text>
<text text-anchor="start" x="1078.5" y="-172" font-family="Helvetica,sans-Serif" font-size="10.00">/cbmc/jbmc/src/java_bytecode</text>
<text text-anchor="middle" x="1152.5" y="-161" font-family="Helvetica,sans-Serif" font-size="10.00">/java_bytecode_language.h</text>
</a>
</g>
</g>
<!-- Node7&#45;&gt;Node17 -->
<g id="edge14_Node000007_Node000017" class="edge">
<title>Node7&#45;&gt;Node17</title>
<g id="a_edge14_Node000007_Node000017"><a xlink:title=" ">
<path fill="none" stroke="#63b8ff" d="M790.64,-230.84C892.51,-212.35 999.03,-196.64 1070.45,-186.63"/>
<polygon fill="#63b8ff" stroke="#63b8ff" points="790,-227.4 780.8,-232.64 791.26,-234.28 790,-227.4"/>
</a>
</g>
</g>
<!-- Node29 -->
<g id="Node000029" class="node">
<title>Node29</title>
<g id="a_Node000029"><a xlink:href="java__class__loader_8cpp.html" target="_top" xlink:title=" ">
<polygon fill="white" stroke="#666666" points="1416.5,-195 1252.5,-195 1252.5,-154 1416.5,-154 1416.5,-195"/>
<text text-anchor="start" x="1260.5" y="-183" font-family="Helvetica,sans-Serif" font-size="10.00">/home/runner/work/cbmc</text>
<text text-anchor="start" x="1260.5" y="-172" font-family="Helvetica,sans-Serif" font-size="10.00">/cbmc/jbmc/src/java_bytecode</text>
<text text-anchor="middle" x="1334.5" y="-161" font-family="Helvetica,sans-Serif" font-size="10.00">/java_class_loader.cpp</text>
</a>
</g>
</g>
<!-- Node7&#45;&gt;Node29 -->
<g id="edge28_Node000007_Node000029" class="edge">
<title>Node7&#45;&gt;Node29</title>
<g id="a_edge28_Node000007_Node000029"><a xlink:title=" ">
<path fill="none" stroke="#63b8ff" d="M790.74,-230.93C991.54,-202.44 1046.44,-223.8 1243.5,-195 1246.38,-194.58 1249.3,-194.12 1252.25,-193.63"/>
<polygon fill="#63b8ff" stroke="#63b8ff" points="790.15,-227.47 780.75,-232.37 791.15,-234.4 790.15,-227.47"/>
</a>
</g>
</g>
<!-- Node10 -->
<g id="Node000010" class="node">
<title>Node10</title>
<g id="a_Node000010"><a xlink:href="java__bytecode__convert__class_8cpp.html" target="_top" xlink:title="JAVA Bytecode Language Conversion.">
<polygon fill="white" stroke="#666666" points="183,-118 0,-118 0,-77 183,-77 183,-118"/>
<text text-anchor="start" x="8" y="-106" font-family="Helvetica,sans-Serif" font-size="10.00">/home/runner/work/cbmc</text>
<text text-anchor="start" x="8" y="-95" font-family="Helvetica,sans-Serif" font-size="10.00">/cbmc/jbmc/src/java_bytecode</text>
<text text-anchor="middle" x="91.5" y="-84" font-family="Helvetica,sans-Serif" font-size="10.00">/java_bytecode_convert_class.cpp</text>
</a>
</g>
</g>
<!-- Node9&#45;&gt;Node10 -->
<g id="edge10_Node000009_Node000010" class="edge">
<title>Node9&#45;&gt;Node10</title>
<g id="a_edge10_Node000009_Node000010"><a xlink:title=" ">
<path fill="none" stroke="#63b8ff" d="M356.61,-153.58C302.87,-142.41 236.2,-128.56 183.16,-117.54"/>
<polygon fill="#63b8ff" stroke="#63b8ff" points="355.99,-157.02 366.49,-155.63 357.41,-150.17 355.99,-157.02"/>
</a>
</g>
</g>
<!-- Node11 -->
<g id="Node000011" class="node">
<title>Node11</title>
<g id="a_Node000011"><a xlink:href="java__bytecode__convert__method__class_8h.html" target="_top" xlink:title="JAVA Bytecode Language Conversion.">
<polygon fill="#fff0f0" stroke="red" points="416,-118 201,-118 201,-77 416,-77 416,-118"/>
<text text-anchor="start" x="209" y="-106" font-family="Helvetica,sans-Serif" font-size="10.00">/home/runner/work/cbmc</text>
<text text-anchor="start" x="209" y="-95" font-family="Helvetica,sans-Serif" font-size="10.00">/cbmc/jbmc/src/java_bytecode</text>
<text text-anchor="middle" x="308.5" y="-84" font-family="Helvetica,sans-Serif" font-size="10.00">/java_bytecode_convert_method_class.h</text>
</a>
</g>
</g>
<!-- Node9&#45;&gt;Node11 -->
<g id="edge11_Node000009_Node000011" class="edge">
<title>Node9&#45;&gt;Node11</title>
<g id="a_edge11_Node000009_Node000011"><a xlink:title=" ">
<path fill="none" stroke="#63b8ff" d="M406.06,-149.31C386.64,-139.2 364.37,-127.6 346.02,-118.04"/>
<polygon fill="#63b8ff" stroke="#63b8ff" points="404.56,-152.48 415.04,-153.99 407.79,-146.27 404.56,-152.48"/>
</a>
</g>
</g>
<!-- Node9&#45;&gt;Node14 -->
<g id="edge12_Node000009_Node000014" class="edge">
<title>Node9&#45;&gt;Node14</title>
<g id="a_edge12_Node000009_Node000014"><a xlink:title=" ">
<path fill="none" stroke="#63b8ff" d="M476.01,-145.95C483.9,-136.7 492.54,-126.58 499.8,-118.07"/>
<polygon fill="#63b8ff" stroke="#63b8ff" points="473.14,-143.92 469.32,-153.79 478.47,-148.46 473.14,-143.92"/>
</a>
</g>
</g>
<!-- Node17&#45;&gt;Node8 -->
<g id="edge18_Node000017_Node000008" class="edge">
<title>Node17&#45;&gt;Node8</title>
<g id="a_edge18_Node000017_Node000008"><a xlink:title=" ">
<path fill="none" stroke="#63b8ff" d="M1060.29,-160.94C986.77,-150.56 881.28,-134.83 789.5,-118 786.64,-117.48 783.73,-116.93 780.8,-116.36"/>
<polygon fill="#63b8ff" stroke="#63b8ff" points="1060.06,-164.45 1070.45,-162.37 1061.04,-157.51 1060.06,-164.45"/>
</a>
</g>
</g>
<!-- Node17&#45;&gt;Node14 -->
<g id="edge19_Node000017_Node000014" class="edge">
<title>Node17&#45;&gt;Node14</title>
<g id="a_edge19_Node000017_Node000014"><a xlink:title=" ">
<path fill="none" stroke="#63b8ff" d="M1060.15,-167.2C951.43,-159.06 765.63,-142.92 607.5,-118 604.63,-117.55 601.71,-117.06 598.76,-116.55"/>
<polygon fill="#63b8ff" stroke="#63b8ff" points="1060.19,-170.71 1070.43,-167.96 1060.71,-163.73 1060.19,-170.71"/>
</a>
</g>
</g>
<!-- Node18 -->
<g id="Node000018" class="node">
<title>Node18</title>
<g id="a_Node000018"><a xlink:href="janalyzer__parse__options_8cpp.html" target="_top" xlink:title="JANALYZER Command Line Option Processing.">
<polygon fill="white" stroke="#666666" points="1870.5,-41 1712.5,-41 1712.5,0 1870.5,0 1870.5,-41"/>
<text text-anchor="start" x="1720.5" y="-29" font-family="Helvetica,sans-Serif" font-size="10.00">/home/runner/work/cbmc</text>
<text text-anchor="start" x="1720.5" y="-18" font-family="Helvetica,sans-Serif" font-size="10.00">/cbmc/jbmc/src/janalyzer</text>
<text text-anchor="middle" x="1791.5" y="-7" font-family="Helvetica,sans-Serif" font-size="10.00">/janalyzer_parse_options.cpp</text>
</a>
</g>
</g>
<!-- Node17&#45;&gt;Node18 -->
<g id="edge15_Node000017_Node000018" class="edge">
<title>Node17&#45;&gt;Node18</title>
<g id="a_edge15_Node000017_Node000018"><a xlink:title=" ">
<path fill="none" stroke="#63b8ff" d="M1244.74,-154.27C1342.79,-146.63 1780.96,-163.26 1823.5,-118 1843.45,-96.78 1824.39,-62.82 1808.32,-41.37"/>
<polygon fill="#63b8ff" stroke="#63b8ff" points="1244.33,-150.8 1234.74,-155.3 1245.05,-157.76 1244.33,-150.8"/>
</a>
</g>
</g>
<!-- Node19 -->
<g id="Node000019" class="node">
<title>Node19</title>
<g id="a_Node000019"><a xlink:href="janalyzer__parse__options_8h.html" target="_top" xlink:title="JANALYZER Command Line Option Processing.">
<polygon fill="#fff0f0" stroke="red" points="1814,-118 1667,-118 1667,-77 1814,-77 1814,-118"/>
<text text-anchor="start" x="1675" y="-106" font-family="Helvetica,sans-Serif" font-size="10.00">/home/runner/work/cbmc</text>
<text text-anchor="start" x="1675" y="-95" font-family="Helvetica,sans-Serif" font-size="10.00">/cbmc/jbmc/src/janalyzer</text>
<text text-anchor="middle" x="1740.5" y="-84" font-family="Helvetica,sans-Serif" font-size="10.00">/janalyzer_parse_options.h</text>
</a>
</g>
</g>
<!-- Node17&#45;&gt;Node19 -->
<g id="edge16_Node000017_Node000019" class="edge">
<title>Node17&#45;&gt;Node19</title>
<g id="a_edge16_Node000017_Node000019"><a xlink:title=" ">
<path fill="none" stroke="#63b8ff" d="M1244.72,-153.92C1427.91,-127.31 1478.33,-146.68 1657.5,-118 1660.57,-117.51 1663.69,-116.97 1666.84,-116.39"/>
<polygon fill="#63b8ff" stroke="#63b8ff" points="1244.14,-150.47 1234.76,-155.39 1245.16,-157.39 1244.14,-150.47"/>
</a>
</g>
</g>
<!-- Node21 -->
<g id="Node000021" class="node">
<title>Node21</title>
<g id="a_Node000021"><a xlink:href="java__entry__point_8cpp.html" target="_top" xlink:title=" ">
<polygon fill="white" stroke="#666666" points="2034.5,-118 1870.5,-118 1870.5,-77 2034.5,-77 2034.5,-118"/>
<text text-anchor="start" x="1878.5" y="-106" font-family="Helvetica,sans-Serif" font-size="10.00">/home/runner/work/cbmc</text>
<text text-anchor="start" x="1878.5" y="-95" font-family="Helvetica,sans-Serif" font-size="10.00">/cbmc/jbmc/src/java_bytecode</text>
<text text-anchor="middle" x="1952.5" y="-84" font-family="Helvetica,sans-Serif" font-size="10.00">/java_entry_point.cpp</text>
</a>
</g>
</g>
<!-- Node17&#45;&gt;Node21 -->
<g id="edge20_Node000017_Node000021" class="edge">
<title>Node17&#45;&gt;Node21</title>
<g id="a_edge20_Node000017_Node000021"><a xlink:title=" ">
<path fill="none" stroke="#63b8ff" d="M1244.87,-153.93C1515.72,-118.17 1589.18,-152.82 1856.5,-118 1861.05,-117.41 1865.71,-116.72 1870.41,-115.97"/>
<polygon fill="#63b8ff" stroke="#63b8ff" points="1244.19,-150.49 1234.74,-155.29 1245.12,-157.43 1244.19,-150.49"/>
</a>
</g>
</g>
<!-- Node22 -->
<g id="Node000022" class="node">
<title>Node22</title>
<g id="a_Node000022"><a xlink:href="lazy__goto__model_8cpp.html" target="_top" xlink:title="Author: Diffblue Ltd.">
<polygon fill="white" stroke="#666666" points="962.5,-118 798.5,-118 798.5,-77 962.5,-77 962.5,-118"/>
<text text-anchor="start" x="806.5" y="-106" font-family="Helvetica,sans-Serif" font-size="10.00">/home/runner/work/cbmc</text>
<text text-anchor="start" x="806.5" y="-95" font-family="Helvetica,sans-Serif" font-size="10.00">/cbmc/jbmc/src/java_bytecode</text>
<text text-anchor="middle" x="880.5" y="-84" font-family="Helvetica,sans-Serif" font-size="10.00">/lazy_goto_model.cpp</text>
</a>
</g>
</g>
<!-- Node17&#45;&gt;Node22 -->
<g id="edge21_Node000017_Node000022" class="edge">
<title>Node17&#45;&gt;Node22</title>
<g id="a_edge21_Node000017_Node000022"><a xlink:title=" ">
<path fill="none" stroke="#63b8ff" d="M1071.68,-151.21C1033.46,-140.68 988.24,-128.21 951.37,-118.04"/>
<polygon fill="#63b8ff" stroke="#63b8ff" points="1071.17,-154.71 1081.75,-153.99 1073.04,-147.96 1071.17,-154.71"/>
</a>
</g>
</g>
<!-- Node23 -->
<g id="Node000023" class="node">
<title>Node23</title>
<g id="a_Node000023"><a xlink:href="jbmc__parse__options_8cpp.html" target="_top" xlink:title="JBMC Command Line Option Processing.">
<polygon fill="white" stroke="#666666" points="1174.5,-41 1030.5,-41 1030.5,0 1174.5,0 1174.5,-41"/>
<text text-anchor="start" x="1038.5" y="-29" font-family="Helvetica,sans-Serif" font-size="10.00">/home/runner/work/cbmc</text>
<text text-anchor="start" x="1038.5" y="-18" font-family="Helvetica,sans-Serif" font-size="10.00">/cbmc/jbmc/src/jbmc/jbmc</text>
<text text-anchor="middle" x="1102.5" y="-7" font-family="Helvetica,sans-Serif" font-size="10.00">_parse_options.cpp</text>
</a>
</g>
</g>
<!-- Node17&#45;&gt;Node23 -->
<g id="edge22_Node000017_Node000023" class="edge">
<title>Node17&#45;&gt;Node23</title>
<g id="a_edge22_Node000017_Node000023"><a xlink:title=" ">
<path fill="none" stroke="#63b8ff" d="M1149.1,-143.71C1146.29,-124.29 1141.45,-98.64 1133.5,-77 1128.9,-64.46 1121.72,-51.38 1115.43,-41.07"/>
<polygon fill="#63b8ff" stroke="#63b8ff" points="1145.66,-144.34 1150.46,-153.79 1152.59,-143.41 1145.66,-144.34"/>
</a>
</g>
</g>
<!-- Node24 -->
<g id="Node000024" class="node">
<title>Node24</title>
<g id="a_Node000024"><a xlink:href="jbmc__parse__options_8h.html" target="_top" xlink:title="JBMC Command Line Option Processing.">
<polygon fill="#fff0f0" stroke="red" points="1124.5,-118 980.5,-118 980.5,-77 1124.5,-77 1124.5,-118"/>
<text text-anchor="start" x="988.5" y="-106" font-family="Helvetica,sans-Serif" font-size="10.00">/home/runner/work/cbmc</text>
<text text-anchor="start" x="988.5" y="-95" font-family="Helvetica,sans-Serif" font-size="10.00">/cbmc/jbmc/src/jbmc/jbmc</text>
<text text-anchor="middle" x="1052.5" y="-84" font-family="Helvetica,sans-Serif" font-size="10.00">_parse_options.h</text>
</a>
</g>
</g>
<!-- Node17&#45;&gt;Node24 -->
<g id="edge23_Node000017_Node000024" class="edge">
<title>Node17&#45;&gt;Node24</title>
<g id="a_edge23_Node000017_Node000024"><a xlink:title=" ">
<path fill="none" stroke="#63b8ff" d="M1118.25,-147.82C1105.32,-138.11 1090.82,-127.24 1078.73,-118.17"/>
<polygon fill="#63b8ff" stroke="#63b8ff" points="1116.39,-150.79 1126.49,-153.99 1120.59,-145.19 1116.39,-150.79"/>
</a>
</g>
</g>
<!-- Node26 -->
<g id="Node000026" class="node">
<title>Node26</title>
<g id="a_Node000026"><a xlink:href="jdiff__languages_8cpp.html" target="_top" xlink:title="Language Registration.">
<polygon fill="white" stroke="#666666" points="1318.5,-118 1180.5,-118 1180.5,-77 1318.5,-77 1318.5,-118"/>
<text text-anchor="start" x="1188.5" y="-106" font-family="Helvetica,sans-Serif" font-size="10.00">/home/runner/work/cbmc</text>
<text text-anchor="start" x="1188.5" y="-95" font-family="Helvetica,sans-Serif" font-size="10.00">/cbmc/jbmc/src/jdiff/jdiff</text>
<text text-anchor="middle" x="1249.5" y="-84" font-family="Helvetica,sans-Serif" font-size="10.00">_languages.cpp</text>
</a>
</g>
</g>
<!-- Node17&#45;&gt;Node26 -->
<g id="edge25_Node000017_Node000026" class="edge">
<title>Node17&#45;&gt;Node26</title>
<g id="a_edge25_Node000017_Node000026"><a xlink:title=" ">
<path fill="none" stroke="#63b8ff" d="M1185.72,-147.82C1198.27,-138.11 1212.33,-127.24 1224.06,-118.17"/>
<polygon fill="#63b8ff" stroke="#63b8ff" points="1183.5,-145.1 1177.73,-153.99 1187.78,-150.64 1183.5,-145.1"/>
</a>
</g>
</g>
<!-- Node27 -->
<g id="Node000027" class="node">
<title>Node27</title>
<g id="a_Node000027"><a xlink:href="jdiff__parse__options_8cpp.html" target="_top" xlink:title="JDIFF Command Line Option Processing.">
<polygon fill="white" stroke="#666666" points="1474.5,-118 1336.5,-118 1336.5,-77 1474.5,-77 1474.5,-118"/>
<text text-anchor="start" x="1344.5" y="-106" font-family="Helvetica,sans-Serif" font-size="10.00">/home/runner/work/cbmc</text>
<text text-anchor="start" x="1344.5" y="-95" font-family="Helvetica,sans-Serif" font-size="10.00">/cbmc/jbmc/src/jdiff/jdiff</text>
<text text-anchor="middle" x="1405.5" y="-84" font-family="Helvetica,sans-Serif" font-size="10.00">_parse_options.cpp</text>
</a>
</g>
</g>
<!-- Node17&#45;&gt;Node27 -->
<g id="edge26_Node000017_Node000027" class="edge">
<title>Node17&#45;&gt;Node27</title>
<g id="a_edge26_Node000017_Node000027"><a xlink:title=" ">
<path fill="none" stroke="#63b8ff" d="M1228.13,-151.08C1263.58,-140.57 1305.44,-128.16 1339.58,-118.04"/>
<polygon fill="#63b8ff" stroke="#63b8ff" points="1226.91,-147.79 1218.31,-153.99 1228.89,-154.5 1226.91,-147.79"/>
</a>
</g>
</g>
<!-- Node28 -->
<g id="Node000028" class="node">
<title>Node28</title>
<g id="a_Node000028"><a xlink:href="load__java__class_8cpp.html" target="_top" xlink:title=" ">
<polygon fill="white" stroke="#666666" points="1648.5,-118 1492.5,-118 1492.5,-77 1648.5,-77 1648.5,-118"/>
<text text-anchor="start" x="1500.5" y="-106" font-family="Helvetica,sans-Serif" font-size="10.00">/home/runner/work/cbmc</text>
<text text-anchor="start" x="1500.5" y="-95" font-family="Helvetica,sans-Serif" font-size="10.00">/cbmc/jbmc/unit/java&#45;testing</text>
<text text-anchor="middle" x="1570.5" y="-84" font-family="Helvetica,sans-Serif" font-size="10.00">&#45;utils/load_java_class.cpp</text>
</a>
</g>
</g>
<!-- Node17&#45;&gt;Node28 -->
<g id="edge27_Node000017_Node000028" class="edge">
<title>Node17&#45;&gt;Node28</title>
<g id="a_edge27_Node000017_Node000028"><a xlink:title=" ">
<path fill="none" stroke="#63b8ff" d="M1244.67,-153.85C1351.32,-134.85 1380.58,-137.23 1483.5,-118 1486.39,-117.46 1489.33,-116.89 1492.3,-116.31"/>
<polygon fill="#63b8ff" stroke="#63b8ff" points="1244.01,-150.41 1234.79,-155.63 1245.26,-157.3 1244.01,-150.41"/>
</a>
</g>
</g>
<!-- Node19&#45;&gt;Node18 -->
<g id="edge17_Node000019_Node000018" class="edge">
<title>Node19&#45;&gt;Node18</title>
<g id="a_edge17_Node000019_Node000018"><a xlink:title=" ">
<path fill="none" stroke="#63b8ff" d="M1759.61,-68.39C1765.8,-59.3 1772.52,-49.41 1778.19,-41.07"/>
<polygon fill="#63b8ff" stroke="#63b8ff" points="1756.63,-66.56 1753.9,-76.79 1762.42,-70.49 1756.63,-66.56"/>
</a>
</g>
</g>
<!-- Node24&#45;&gt;Node23 -->
<g id="edge24_Node000024_Node000023" class="edge">
<title>Node24&#45;&gt;Node23</title>
<g id="a_edge24_Node000024_Node000023"><a xlink:title=" ">
<path fill="none" stroke="#63b8ff" d="M1071.24,-68.39C1077.3,-59.3 1083.89,-49.41 1089.45,-41.07"/>
<polygon fill="#63b8ff" stroke="#63b8ff" points="1068.27,-66.53 1065.64,-76.79 1074.1,-70.42 1068.27,-66.53"/>
</a>
</g>
</g>
</g>
</svg>
