<?xml version="1.0" encoding="UTF-8" standalone="no"?>
<!DOCTYPE svg PUBLIC "-//W3C//DTD SVG 1.1//EN"
 "http://www.w3.org/Graphics/SVG/1.1/DTD/svg11.dtd">
<!-- Generated by graphviz version 2.43.0 (0)
 -->
<!-- Title: /home/runner/work/cbmc/cbmc/src/goto&#45;instrument/object_id.h Pages: 1 -->
<svg width="879pt" height="654pt"
 viewBox="0.00 0.00 878.50 654.00" xmlns="http://www.w3.org/2000/svg" xmlns:xlink="http://www.w3.org/1999/xlink">
<g id="graph0" class="graph" transform="scale(1 1) rotate(0) translate(4 650)">
<title>/home/runner/work/cbmc/cbmc/src/goto&#45;instrument/object_id.h</title>
<!-- Node1 -->
<g id="Node000001" class="node">
<title>Node1</title>
<g id="a_Node000001"><a xlink:title="Object Identifiers.">
<polygon fill="#999999" stroke="#666666" points="870.5,-646 725.5,-646 725.5,-605 870.5,-605 870.5,-646"/>
<text text-anchor="start" x="733.5" y="-634" font-family="Helvetica,sans-Serif" font-size="10.00">/home/runner/work/cbmc</text>
<text text-anchor="start" x="733.5" y="-623" font-family="Helvetica,sans-Serif" font-size="10.00">/cbmc/src/goto&#45;instrument</text>
<text text-anchor="middle" x="798" y="-612" font-family="Helvetica,sans-Serif" font-size="10.00">/object_id.h</text>
</a>
</g>
</g>
<!-- Node2 -->
<g id="Node000002" class="node">
<title>Node2</title>
<g id="a_Node000002"><a xlink:title=" ">
<polygon fill="#e0e0e0" stroke="#999999" points="838,-404 790,-404 790,-385 838,-385 838,-404"/>
<text text-anchor="middle" x="814" y="-392" font-family="Helvetica,sans-Serif" font-size="10.00">iosfwd</text>
</a>
</g>
</g>
<!-- Node1&#45;&gt;Node2 -->
<g id="edge1_Node000001_Node000002" class="edge">
<title>Node1&#45;&gt;Node2</title>
<g id="a_edge1_Node000001_Node000002"><a xlink:title=" ">
<path fill="none" stroke="#63b8ff" d="M799.36,-604.98C802.4,-561.58 809.66,-457.56 812.67,-414.58"/>
<polygon fill="#63b8ff" stroke="#63b8ff" points="816.17,-414.61 813.38,-404.39 809.19,-414.13 816.17,-414.61"/>
</a>
</g>
</g>
<!-- Node3 -->
<g id="Node000003" class="node">
<title>Node3</title>
<g id="a_Node000003"><a xlink:title=" ">
<polygon fill="#e0e0e0" stroke="#999999" points="858,-569 826,-569 826,-550 858,-550 858,-569"/>
<text text-anchor="middle" x="842" y="-557" font-family="Helvetica,sans-Serif" font-size="10.00">set</text>
</a>
</g>
</g>
<!-- Node1&#45;&gt;Node3 -->
<g id="edge2_Node000001_Node000003" class="edge">
<title>Node1&#45;&gt;Node3</title>
<g id="a_edge2_Node000001_Node000003"><a xlink:title=" ">
<path fill="none" stroke="#63b8ff" d="M811.44,-604.95C817.45,-596.2 824.48,-585.99 830.27,-577.56"/>
<polygon fill="#63b8ff" stroke="#63b8ff" points="833.2,-579.48 835.98,-569.26 827.43,-575.52 833.2,-579.48"/>
</a>
</g>
</g>
<!-- Node4 -->
<g id="Node000004" class="node">
<title>Node4</title>
<g id="a_Node000004"><a xlink:href="std__expr_8h.html" target="_top" xlink:title="API to expression classes.">
<polygon fill="white" stroke="#666666" points="407,-569 321,-569 321,-550 407,-550 407,-569"/>
<text text-anchor="middle" x="364" y="-557" font-family="Helvetica,sans-Serif" font-size="10.00">util/std_expr.h</text>
</a>
</g>
</g>
<!-- Node1&#45;&gt;Node4 -->
<g id="edge3_Node000001_Node000004" class="edge">
<title>Node1&#45;&gt;Node4</title>
<g id="a_edge3_Node000001_Node000004"><a xlink:title=" ">
<path fill="none" stroke="#63b8ff" d="M725.36,-613.79C638.29,-600.95 494.49,-579.74 417.15,-568.34"/>
<polygon fill="#63b8ff" stroke="#63b8ff" points="417.55,-564.86 407.15,-566.86 416.53,-571.78 417.55,-564.86"/>
</a>
</g>
</g>
<!-- Node5 -->
<g id="Node000005" class="node">
<title>Node5</title>
<g id="a_Node000005"><a xlink:href="expr__cast_8h.html" target="_top" xlink:title="Templated functions to cast to specific exprt&#45;derived classes.">
<polygon fill="white" stroke="#666666" points="226.5,-459 153.5,-459 153.5,-440 226.5,-440 226.5,-459"/>
<text text-anchor="middle" x="190" y="-447" font-family="Helvetica,sans-Serif" font-size="10.00">expr_cast.h</text>
</a>
</g>
</g>
<!-- Node4&#45;&gt;Node5 -->
<g id="edge4_Node000004_Node000005" class="edge">
<title>Node4&#45;&gt;Node5</title>
<g id="a_edge4_Node000004_Node000005"><a xlink:title=" ">
<path fill="none" stroke="#63b8ff" d="M350.05,-549.84C320.15,-531.28 249.59,-487.49 212.96,-464.75"/>
<polygon fill="#63b8ff" stroke="#63b8ff" points="214.35,-461.5 204.01,-459.2 210.66,-467.44 214.35,-461.5"/>
</a>
</g>
</g>
<!-- Node9 -->
<g id="Node000009" class="node">
<title>Node9</title>
<g id="a_Node000009"><a xlink:href="src_2util_2invariant_8h.html" target="_top" xlink:title=" ">
<polygon fill="white" stroke="#666666" points="417.5,-74 348.5,-74 348.5,-55 417.5,-55 417.5,-74"/>
<text text-anchor="middle" x="383" y="-62" font-family="Helvetica,sans-Serif" font-size="10.00">invariant.h</text>
</a>
</g>
</g>
<!-- Node4&#45;&gt;Node9 -->
<g id="edge36_Node000004_Node000009" class="edge">
<title>Node4&#45;&gt;Node9</title>
<g id="a_edge36_Node000004_Node000009"><a xlink:title=" ">
<path fill="none" stroke="#63b8ff" d="M320.82,-554.86C224.4,-545.54 0,-516.75 0,-450.5 0,-450.5 0,-450.5 0,-393.5 0,-313.57 76,-310.43 76,-230.5 76,-230.5 76,-230.5 76,-173.5 76,-118.53 253.38,-84.73 338.48,-71.67"/>
<polygon fill="#63b8ff" stroke="#63b8ff" points="339.01,-75.13 348.38,-70.18 337.97,-68.21 339.01,-75.13"/>
</a>
</g>
</g>
<!-- Node40 -->
<g id="Node000040" class="node">
<title>Node40</title>
<g id="a_Node000040"><a xlink:href="std__types_8h.html" target="_top" xlink:title="Pre&#45;defined types.">
<polygon fill="white" stroke="#666666" points="493.5,-514 420.5,-514 420.5,-495 493.5,-495 493.5,-514"/>
<text text-anchor="middle" x="457" y="-502" font-family="Helvetica,sans-Serif" font-size="10.00">std_types.h</text>
</a>
</g>
</g>
<!-- Node4&#45;&gt;Node40 -->
<g id="edge37_Node000004_Node000040" class="edge">
<title>Node4&#45;&gt;Node40</title>
<g id="a_edge37_Node000004_Node000040"><a xlink:title=" ">
<path fill="none" stroke="#63b8ff" d="M378.94,-549.98C393.5,-541.69 415.87,-528.94 432.93,-519.22"/>
<polygon fill="#63b8ff" stroke="#63b8ff" points="434.83,-522.16 441.79,-514.17 431.36,-516.08 434.83,-522.16"/>
</a>
</g>
</g>
<!-- Node6 -->
<g id="Node000006" class="node">
<title>Node6</title>
<g id="a_Node000006"><a xlink:title=" ">
<polygon fill="#e0e0e0" stroke="#999999" points="161.5,-404 104.5,-404 104.5,-385 161.5,-385 161.5,-404"/>
<text text-anchor="middle" x="133" y="-392" font-family="Helvetica,sans-Serif" font-size="10.00">typeinfo</text>
</a>
</g>
</g>
<!-- Node5&#45;&gt;Node6 -->
<g id="edge5_Node000005_Node000006" class="edge">
<title>Node5&#45;&gt;Node6</title>
<g id="a_edge5_Node000005_Node000006"><a xlink:title=" ">
<path fill="none" stroke="#63b8ff" d="M180.84,-439.98C172.5,-432.23 159.97,-420.58 149.82,-411.14"/>
<polygon fill="#63b8ff" stroke="#63b8ff" points="152.03,-408.42 142.32,-404.17 147.26,-413.54 152.03,-408.42"/>
</a>
</g>
</g>
<!-- Node7 -->
<g id="Node000007" class="node">
<title>Node7</title>
<g id="a_Node000007"><a xlink:title=" ">
<polygon fill="#e0e0e0" stroke="#999999" points="336.5,-19 267.5,-19 267.5,0 336.5,0 336.5,-19"/>
<text text-anchor="middle" x="302" y="-7" font-family="Helvetica,sans-Serif" font-size="10.00">type_traits</text>
</a>
</g>
</g>
<!-- Node5&#45;&gt;Node7 -->
<g id="edge6_Node000005_Node000007" class="edge">
<title>Node5&#45;&gt;Node7</title>
<g id="a_edge6_Node000005_Node000007"><a xlink:title=" ">
<path fill="none" stroke="#63b8ff" d="M153.98,-439.92C109.03,-426.82 38,-397.15 38,-340.5 38,-340.5 38,-340.5 38,-118.5 38,-24.85 182.06,-10.63 257.34,-9.59"/>
<polygon fill="#63b8ff" stroke="#63b8ff" points="257.51,-13.09 267.49,-9.52 257.46,-6.09 257.51,-13.09"/>
</a>
</g>
</g>
<!-- Node8 -->
<g id="Node000008" class="node">
<title>Node8</title>
<g id="a_Node000008"><a xlink:title=" ">
<polygon fill="#e0e0e0" stroke="#999999" points="131.5,-349 66.5,-349 66.5,-330 131.5,-330 131.5,-349"/>
<text text-anchor="middle" x="99" y="-337" font-family="Helvetica,sans-Serif" font-size="10.00">functional</text>
</a>
</g>
</g>
<!-- Node5&#45;&gt;Node8 -->
<g id="edge7_Node000005_Node000008" class="edge">
<title>Node5&#45;&gt;Node8</title>
<g id="a_edge7_Node000005_Node000008"><a xlink:title=" ">
<path fill="none" stroke="#63b8ff" d="M153.33,-441.43C132.38,-435.31 107.8,-424.13 95,-404 86.49,-390.61 88.79,-372.26 92.44,-358.73"/>
<polygon fill="#63b8ff" stroke="#63b8ff" points="95.81,-359.69 95.49,-349.1 89.14,-357.58 95.81,-359.69"/>
</a>
</g>
</g>
<!-- Node5&#45;&gt;Node9 -->
<g id="edge8_Node000005_Node000009" class="edge">
<title>Node5&#45;&gt;Node9</title>
<g id="a_edge8_Node000005_Node000009"><a xlink:title=" ">
<path fill="none" stroke="#63b8ff" d="M189.6,-439.76C188.74,-413.57 188.53,-333.89 214,-275 250.23,-191.21 329.57,-113.31 365.13,-81.1"/>
<polygon fill="#63b8ff" stroke="#63b8ff" points="367.67,-83.53 372.8,-74.25 363.01,-78.31 367.67,-83.53"/>
</a>
</g>
</g>
<!-- Node13 -->
<g id="Node000013" class="node">
<title>Node13</title>
<g id="a_Node000013"><a xlink:href="expr_8h.html" target="_top" xlink:title=" ">
<polygon fill="white" stroke="#666666" points="293.5,-404 246.5,-404 246.5,-385 293.5,-385 293.5,-404"/>
<text text-anchor="middle" x="270" y="-392" font-family="Helvetica,sans-Serif" font-size="10.00">expr.h</text>
</a>
</g>
</g>
<!-- Node5&#45;&gt;Node13 -->
<g id="edge13_Node000005_Node000013" class="edge">
<title>Node5&#45;&gt;Node13</title>
<g id="a_edge13_Node000005_Node000013"><a xlink:title=" ">
<path fill="none" stroke="#63b8ff" d="M202.85,-439.98C215.14,-431.84 233.91,-419.41 248.48,-409.76"/>
<polygon fill="#63b8ff" stroke="#63b8ff" points="250.51,-412.61 256.91,-404.17 246.64,-406.78 250.51,-412.61"/>
</a>
</g>
</g>
<!-- Node9&#45;&gt;Node7 -->
<g id="edge12_Node000009_Node000007" class="edge">
<title>Node9&#45;&gt;Node7</title>
<g id="a_edge12_Node000009_Node000007"><a xlink:title=" ">
<path fill="none" stroke="#63b8ff" d="M369.99,-54.98C357.54,-46.84 338.54,-34.41 323.79,-24.76"/>
<polygon fill="#63b8ff" stroke="#63b8ff" points="325.54,-21.72 315.25,-19.17 321.7,-27.57 325.54,-21.72"/>
</a>
</g>
</g>
<!-- Node10 -->
<g id="Node000010" class="node">
<title>Node10</title>
<g id="a_Node000010"><a xlink:title=" ">
<polygon fill="#e0e0e0" stroke="#999999" points="478.5,-19 429.5,-19 429.5,0 478.5,0 478.5,-19"/>
<text text-anchor="middle" x="454" y="-7" font-family="Helvetica,sans-Serif" font-size="10.00">cstdlib</text>
</a>
</g>
</g>
<!-- Node9&#45;&gt;Node10 -->
<g id="edge9_Node000009_Node000010" class="edge">
<title>Node9&#45;&gt;Node10</title>
<g id="a_edge9_Node000009_Node000010"><a xlink:title=" ">
<path fill="none" stroke="#63b8ff" d="M394.41,-54.98C405.11,-47 421.34,-34.88 434.16,-25.31"/>
<polygon fill="#63b8ff" stroke="#63b8ff" points="436.47,-27.96 442.39,-19.17 432.28,-22.35 436.47,-27.96"/>
</a>
</g>
</g>
<!-- Node11 -->
<g id="Node000011" class="node">
<title>Node11</title>
<g id="a_Node000011"><a xlink:title=" ">
<polygon fill="#e0e0e0" stroke="#999999" points="411,-19 355,-19 355,0 411,0 411,-19"/>
<text text-anchor="middle" x="383" y="-7" font-family="Helvetica,sans-Serif" font-size="10.00">sstream</text>
</a>
</g>
</g>
<!-- Node9&#45;&gt;Node11 -->
<g id="edge10_Node000009_Node000011" class="edge">
<title>Node9&#45;&gt;Node11</title>
<g id="a_edge10_Node000009_Node000011"><a xlink:title=" ">
<path fill="none" stroke="#63b8ff" d="M383,-54.75C383,-47.8 383,-37.85 383,-29.13"/>
<polygon fill="#63b8ff" stroke="#63b8ff" points="386.5,-29.09 383,-19.09 379.5,-29.09 386.5,-29.09"/>
</a>
</g>
</g>
<!-- Node12 -->
<g id="Node000012" class="node">
<title>Node12</title>
<g id="a_Node000012"><a xlink:title=" ">
<polygon fill="#e0e0e0" stroke="#999999" points="708,-19 664,-19 664,0 708,0 708,-19"/>
<text text-anchor="middle" x="686" y="-7" font-family="Helvetica,sans-Serif" font-size="10.00">string</text>
</a>
</g>
</g>
<!-- Node9&#45;&gt;Node12 -->
<g id="edge11_Node000009_Node000012" class="edge">
<title>Node9&#45;&gt;Node12</title>
<g id="a_edge11_Node000009_Node000012"><a xlink:title=" ">
<path fill="none" stroke="#63b8ff" d="M417.76,-57.42C477.02,-47.05 596.77,-26.11 654.06,-16.09"/>
<polygon fill="#63b8ff" stroke="#63b8ff" points="654.75,-19.52 664,-14.35 653.55,-12.62 654.75,-19.52"/>
</a>
</g>
</g>
<!-- Node13&#45;&gt;Node8 -->
<g id="edge35_Node000013_Node000008" class="edge">
<title>Node13&#45;&gt;Node8</title>
<g id="a_edge35_Node000013_Node000008"><a xlink:title=" ">
<path fill="none" stroke="#63b8ff" d="M246.22,-386.13C217.78,-377.31 169.82,-362.45 136.4,-352.09"/>
<polygon fill="#63b8ff" stroke="#63b8ff" points="137.12,-348.65 126.53,-349.03 135.05,-355.34 137.12,-348.65"/>
</a>
</g>
</g>
<!-- Node14 -->
<g id="Node000014" class="node">
<title>Node14</title>
<g id="a_Node000014"><a xlink:href="as__const_8h.html" target="_top" xlink:title=" ">
<polygon fill="white" stroke="#666666" points="480,-349 412,-349 412,-330 480,-330 480,-349"/>
<text text-anchor="middle" x="446" y="-337" font-family="Helvetica,sans-Serif" font-size="10.00">as_const.h</text>
</a>
</g>
</g>
<!-- Node13&#45;&gt;Node14 -->
<g id="edge14_Node000013_Node000014" class="edge">
<title>Node13&#45;&gt;Node14</title>
<g id="a_edge14_Node000013_Node000014"><a xlink:title=" ">
<path fill="none" stroke="#63b8ff" d="M293.74,-386.35C323.03,-377.53 373.21,-362.42 407.91,-351.97"/>
<polygon fill="#63b8ff" stroke="#63b8ff" points="409.14,-355.26 417.7,-349.02 407.12,-348.55 409.14,-355.26"/>
</a>
</g>
</g>
<!-- Node15 -->
<g id="Node000015" class="node">
<title>Node15</title>
<g id="a_Node000015"><a xlink:href="type_8h.html" target="_top" xlink:title="Defines typet, type_with_subtypet and type_with_subtypest.">
<polygon fill="white" stroke="#666666" points="545.5,-349 498.5,-349 498.5,-330 545.5,-330 545.5,-349"/>
<text text-anchor="middle" x="522" y="-337" font-family="Helvetica,sans-Serif" font-size="10.00">type.h</text>
</a>
</g>
</g>
<!-- Node13&#45;&gt;Node15 -->
<g id="edge15_Node000013_Node000015" class="edge">
<title>Node13&#45;&gt;Node15</title>
<g id="a_edge15_Node000013_Node000015"><a xlink:title=" ">
<path fill="none" stroke="#63b8ff" d="M293.74,-389.09C332.38,-381.83 411.46,-366.6 488.39,-349.04"/>
<polygon fill="#63b8ff" stroke="#63b8ff" points="489.28,-352.43 498.24,-346.78 487.71,-345.6 489.28,-352.43"/>
</a>
</g>
</g>
<!-- Node37 -->
<g id="Node000037" class="node">
<title>Node37</title>
<g id="a_Node000037"><a xlink:href="validation__mode_8h.html" target="_top" xlink:title=" ">
<polygon fill="white" stroke="#666666" points="374.5,-239 267.5,-239 267.5,-220 374.5,-220 374.5,-239"/>
<text text-anchor="middle" x="321" y="-227" font-family="Helvetica,sans-Serif" font-size="10.00">validation_mode.h</text>
</a>
</g>
</g>
<!-- Node13&#45;&gt;Node37 -->
<g id="edge34_Node000013_Node000037" class="edge">
<title>Node13&#45;&gt;Node37</title>
<g id="a_edge34_Node000013_Node000037"><a xlink:title=" ">
<path fill="none" stroke="#63b8ff" d="M261.51,-384.92C242.49,-364.61 199.93,-312.52 224,-275 234.09,-259.28 251.27,-249.03 268.41,-242.4"/>
<polygon fill="#63b8ff" stroke="#63b8ff" points="269.6,-245.69 277.87,-239.07 267.28,-239.08 269.6,-245.69"/>
</a>
</g>
</g>
<!-- Node38 -->
<g id="Node000038" class="node">
<title>Node38</title>
<g id="a_Node000038"><a xlink:href="validate__types_8h.html" target="_top" xlink:title=" ">
<polygon fill="white" stroke="#666666" points="331,-294 233,-294 233,-275 331,-275 331,-294"/>
<text text-anchor="middle" x="282" y="-282" font-family="Helvetica,sans-Serif" font-size="10.00">validate_types.h</text>
</a>
</g>
</g>
<!-- Node13&#45;&gt;Node38 -->
<g id="edge33_Node000013_Node000038" class="edge">
<title>Node13&#45;&gt;Node38</title>
<g id="a_edge33_Node000013_Node000038"><a xlink:title=" ">
<path fill="none" stroke="#63b8ff" d="M265.16,-384.82C258.94,-372.53 249.57,-349.42 255,-330 257.76,-320.12 263.39,-310.25 268.79,-302.32"/>
<polygon fill="#63b8ff" stroke="#63b8ff" points="271.78,-304.17 274.85,-294.03 266.13,-300.04 271.78,-304.17"/>
</a>
</g>
</g>
<!-- Node39 -->
<g id="Node000039" class="node">
<title>Node39</title>
<g id="a_Node000039"><a xlink:href="validate__expressions_8h.html" target="_top" xlink:title=" ">
<polygon fill="white" stroke="#666666" points="393.5,-349 264.5,-349 264.5,-330 393.5,-330 393.5,-349"/>
<text text-anchor="middle" x="329" y="-337" font-family="Helvetica,sans-Serif" font-size="10.00">validate_expressions.h</text>
</a>
</g>
</g>
<!-- Node13&#45;&gt;Node39 -->
<g id="edge32_Node000013_Node000039" class="edge">
<title>Node13&#45;&gt;Node39</title>
<g id="a_edge32_Node000013_Node000039"><a xlink:title=" ">
<path fill="none" stroke="#63b8ff" d="M279.48,-384.98C288.2,-377.15 301.34,-365.34 311.9,-355.86"/>
<polygon fill="#63b8ff" stroke="#63b8ff" points="314.25,-358.46 319.35,-349.17 309.57,-353.25 314.25,-358.46"/>
</a>
</g>
</g>
<!-- Node16 -->
<g id="Node000016" class="node">
<title>Node16</title>
<g id="a_Node000016"><a xlink:href="source__location_8h.html" target="_top" xlink:title=" ">
<polygon fill="white" stroke="#666666" points="610,-184 508,-184 508,-165 610,-165 610,-184"/>
<text text-anchor="middle" x="559" y="-172" font-family="Helvetica,sans-Serif" font-size="10.00">source_location.h</text>
</a>
</g>
</g>
<!-- Node15&#45;&gt;Node16 -->
<g id="edge16_Node000015_Node000016" class="edge">
<title>Node15&#45;&gt;Node16</title>
<g id="a_edge16_Node000015_Node000016"><a xlink:title=" ">
<path fill="none" stroke="#63b8ff" d="M510.07,-329.8C500.17,-321.77 486.81,-308.87 481,-294 477.93,-286.13 479.67,-283.34 481,-275 485.05,-249.6 483.96,-240.87 499,-220 508,-207.51 521.56,-197.03 533.51,-189.39"/>
<polygon fill="#63b8ff" stroke="#63b8ff" points="535.49,-192.28 542.24,-184.11 531.87,-186.29 535.49,-192.28"/>
</a>
</g>
</g>
<!-- Node35 -->
<g id="Node000035" class="node">
<title>Node35</title>
<g id="a_Node000035"><a xlink:href="validate_8h.html" target="_top" xlink:title=" ">
<polygon fill="white" stroke="#666666" points="554.5,-294 489.5,-294 489.5,-275 554.5,-275 554.5,-294"/>
<text text-anchor="middle" x="522" y="-282" font-family="Helvetica,sans-Serif" font-size="10.00">validate.h</text>
</a>
</g>
</g>
<!-- Node15&#45;&gt;Node35 -->
<g id="edge23_Node000015_Node000035" class="edge">
<title>Node15&#45;&gt;Node35</title>
<g id="a_edge23_Node000015_Node000035"><a xlink:title=" ">
<path fill="none" stroke="#63b8ff" d="M522,-329.75C522,-322.8 522,-312.85 522,-304.13"/>
<polygon fill="#63b8ff" stroke="#63b8ff" points="525.5,-304.09 522,-294.09 518.5,-304.09 525.5,-304.09"/>
</a>
</g>
</g>
<!-- Node15&#45;&gt;Node37 -->
<g id="edge31_Node000015_Node000037" class="edge">
<title>Node15&#45;&gt;Node37</title>
<g id="a_edge31_Node000015_Node000037"><a xlink:title=" ">
<path fill="none" stroke="#63b8ff" d="M498.5,-331.95C465.61,-322.56 407.78,-305.18 389,-294 367.65,-281.29 347.41,-260.93 334.65,-246.7"/>
<polygon fill="#63b8ff" stroke="#63b8ff" points="337.26,-244.37 328.05,-239.14 331.99,-248.97 337.26,-244.37"/>
</a>
</g>
</g>
<!-- Node15&#45;&gt;Node38 -->
<g id="edge30_Node000015_Node000038" class="edge">
<title>Node15&#45;&gt;Node38</title>
<g id="a_edge30_Node000015_Node000038"><a xlink:title=" ">
<path fill="none" stroke="#63b8ff" d="M498.24,-332.26C495.13,-331.48 491.99,-330.71 489,-330 436.45,-317.59 376.06,-304.77 334.12,-296.1"/>
<polygon fill="#63b8ff" stroke="#63b8ff" points="334.64,-292.63 324.14,-294.04 333.22,-299.49 334.64,-292.63"/>
</a>
</g>
</g>
<!-- Node16&#45;&gt;Node12 -->
<g id="edge22_Node000016_Node000012" class="edge">
<title>Node16&#45;&gt;Node12</title>
<g id="a_edge22_Node000016_Node000012"><a xlink:title=" ">
<path fill="none" stroke="#63b8ff" d="M606.65,-164.93C628.25,-158.59 652.21,-147.68 667,-129 689.87,-100.1 690.21,-54.55 688.23,-29.17"/>
<polygon fill="#63b8ff" stroke="#63b8ff" points="691.7,-28.66 687.23,-19.06 684.73,-29.35 691.7,-28.66"/>
</a>
</g>
</g>
<!-- Node17 -->
<g id="Node000017" class="node">
<title>Node17</title>
<g id="a_Node000017"><a xlink:href="deprecate_8h.html" target="_top" xlink:title=" ">
<polygon fill="white" stroke="#666666" points="596,-129 522,-129 522,-110 596,-110 596,-129"/>
<text text-anchor="middle" x="559" y="-117" font-family="Helvetica,sans-Serif" font-size="10.00">deprecate.h</text>
</a>
</g>
</g>
<!-- Node16&#45;&gt;Node17 -->
<g id="edge17_Node000016_Node000017" class="edge">
<title>Node16&#45;&gt;Node17</title>
<g id="a_edge17_Node000016_Node000017"><a xlink:title=" ">
<path fill="none" stroke="#63b8ff" d="M559,-164.75C559,-157.8 559,-147.85 559,-139.13"/>
<polygon fill="#63b8ff" stroke="#63b8ff" points="562.5,-139.09 559,-129.09 555.5,-139.09 562.5,-139.09"/>
</a>
</g>
</g>
<!-- Node18 -->
<g id="Node000018" class="node">
<title>Node18</title>
<g id="a_Node000018"><a xlink:href="irep_8h.html" target="_top" xlink:title=" ">
<polygon fill="#fff0f0" stroke="red" points="658,-129 614,-129 614,-110 658,-110 658,-129"/>
<text text-anchor="middle" x="636" y="-117" font-family="Helvetica,sans-Serif" font-size="10.00">irep.h</text>
</a>
</g>
</g>
<!-- Node16&#45;&gt;Node18 -->
<g id="edge18_Node000016_Node000018" class="edge">
<title>Node16&#45;&gt;Node18</title>
<g id="a_edge18_Node000016_Node000018"><a xlink:title=" ">
<path fill="none" stroke="#63b8ff" d="M571.37,-164.98C583.09,-156.92 600.92,-144.65 614.89,-135.03"/>
<polygon fill="#63b8ff" stroke="#63b8ff" points="617.15,-137.72 623.4,-129.17 613.18,-131.96 617.15,-137.72"/>
</a>
</g>
</g>
<!-- Node34 -->
<g id="Node000034" class="node">
<title>Node34</title>
<g id="a_Node000034"><a xlink:title=" ">
<polygon fill="#e0e0e0" stroke="#999999" points="504,-129 448,-129 448,-110 504,-110 504,-129"/>
<text text-anchor="middle" x="476" y="-117" font-family="Helvetica,sans-Serif" font-size="10.00">optional</text>
</a>
</g>
</g>
<!-- Node16&#45;&gt;Node34 -->
<g id="edge21_Node000016_Node000034" class="edge">
<title>Node16&#45;&gt;Node34</title>
<g id="a_edge21_Node000016_Node000034"><a xlink:title=" ">
<path fill="none" stroke="#63b8ff" d="M545.66,-164.98C532.91,-156.84 513.45,-144.41 498.33,-134.76"/>
<polygon fill="#63b8ff" stroke="#63b8ff" points="499.89,-131.6 489.58,-129.17 496.12,-137.5 499.89,-131.6"/>
</a>
</g>
</g>
<!-- Node18&#45;&gt;Node9 -->
<g id="edge20_Node000018_Node000009" class="edge">
<title>Node18&#45;&gt;Node9</title>
<g id="a_edge20_Node000018_Node000009"><a xlink:title=" ">
<path fill="none" stroke="#63b8ff" d="M613.7,-112.18C610.78,-111.42 607.82,-110.67 605,-110 543.97,-95.53 472.77,-81.81 427.79,-73.53"/>
<polygon fill="#63b8ff" stroke="#63b8ff" points="428.24,-70.05 417.77,-71.69 426.98,-76.94 428.24,-70.05"/>
</a>
</g>
</g>
<!-- Node18&#45;&gt;Node12 -->
<g id="edge19_Node000018_Node000012" class="edge">
<title>Node18&#45;&gt;Node12</title>
<g id="a_edge19_Node000018_Node000012"><a xlink:title=" ">
<path fill="none" stroke="#63b8ff" d="M640.09,-109.66C648.3,-91.93 666.91,-51.73 677.75,-28.32"/>
<polygon fill="#63b8ff" stroke="#63b8ff" points="680.97,-29.7 681.99,-19.16 674.61,-26.76 680.97,-29.7"/>
</a>
</g>
</g>
<!-- Node35&#45;&gt;Node7 -->
<g id="edge24_Node000035_Node000007" class="edge">
<title>Node35&#45;&gt;Node7</title>
<g id="a_edge24_Node000035_Node000007"><a xlink:title=" ">
<path fill="none" stroke="#63b8ff" d="M500.51,-274.89C467.59,-260.67 404.64,-229.28 368,-184 329.2,-136.06 311.53,-62.84 305.08,-28.93"/>
<polygon fill="#63b8ff" stroke="#63b8ff" points="308.51,-28.25 303.31,-19.02 301.62,-29.48 308.51,-28.25"/>
</a>
</g>
</g>
<!-- Node36 -->
<g id="Node000036" class="node">
<title>Node36</title>
<g id="a_Node000036"><a xlink:href="exception__utils_8h.html" target="_top" xlink:title=" ">
<polygon fill="white" stroke="#666666" points="608,-239 508,-239 508,-220 608,-220 608,-239"/>
<text text-anchor="middle" x="558" y="-227" font-family="Helvetica,sans-Serif" font-size="10.00">exception_utils.h</text>
</a>
</g>
</g>
<!-- Node35&#45;&gt;Node36 -->
<g id="edge25_Node000035_Node000036" class="edge">
<title>Node35&#45;&gt;Node36</title>
<g id="a_edge25_Node000035_Node000036"><a xlink:title=" ">
<path fill="none" stroke="#63b8ff" d="M527.94,-274.75C532.98,-267.34 540.34,-256.5 546.51,-247.41"/>
<polygon fill="#63b8ff" stroke="#63b8ff" points="549.44,-249.33 552.17,-239.09 543.65,-245.39 549.44,-249.33"/>
</a>
</g>
</g>
<!-- Node35&#45;&gt;Node37 -->
<g id="edge29_Node000035_Node000037" class="edge">
<title>Node35&#45;&gt;Node37</title>
<g id="a_edge29_Node000035_Node000037"><a xlink:title=" ">
<path fill="none" stroke="#63b8ff" d="M489.71,-274.98C455.38,-265.93 400.94,-251.58 363.23,-241.64"/>
<polygon fill="#63b8ff" stroke="#63b8ff" points="364.11,-238.25 353.55,-239.08 362.32,-245.02 364.11,-238.25"/>
</a>
</g>
</g>
<!-- Node36&#45;&gt;Node9 -->
<g id="edge27_Node000036_Node000009" class="edge">
<title>Node36&#45;&gt;Node9</title>
<g id="a_edge27_Node000036_Node000009"><a xlink:title=" ">
<path fill="none" stroke="#63b8ff" d="M545.99,-219.96C533.88,-211.23 514.78,-197.13 499,-184 471.19,-160.86 464.33,-154.82 439,-129 423.97,-113.68 407.87,-95.18 396.81,-82.11"/>
<polygon fill="#63b8ff" stroke="#63b8ff" points="399.44,-79.8 390.33,-74.39 394.08,-84.3 399.44,-79.8"/>
</a>
</g>
</g>
<!-- Node36&#45;&gt;Node12 -->
<g id="edge26_Node000036_Node000012" class="edge">
<title>Node36&#45;&gt;Node12</title>
<g id="a_edge26_Node000036_Node000012"><a xlink:title=" ">
<path fill="none" stroke="#63b8ff" d="M575.46,-219.81C603.25,-205.07 657.32,-172.46 686,-129 704.53,-100.91 707.78,-88.15 702,-55 700.43,-46 697.2,-36.42 694.06,-28.46"/>
<polygon fill="#63b8ff" stroke="#63b8ff" points="697.23,-26.97 690.11,-19.12 690.78,-29.69 697.23,-26.97"/>
</a>
</g>
</g>
<!-- Node36&#45;&gt;Node16 -->
<g id="edge28_Node000036_Node000016" class="edge">
<title>Node36&#45;&gt;Node16</title>
<g id="a_edge28_Node000036_Node000016"><a xlink:title=" ">
<path fill="none" stroke="#63b8ff" d="M558.17,-219.75C558.3,-212.8 558.48,-202.85 558.65,-194.13"/>
<polygon fill="#63b8ff" stroke="#63b8ff" points="562.15,-194.15 558.84,-184.09 555.15,-194.02 562.15,-194.15"/>
</a>
</g>
</g>
<!-- Node40&#45;&gt;Node5 -->
<g id="edge39_Node000040_Node000005" class="edge">
<title>Node40&#45;&gt;Node5</title>
<g id="a_edge39_Node000040_Node000005"><a xlink:title=" ">
<path fill="none" stroke="#63b8ff" d="M420.43,-496.24C372.63,-486.75 288.86,-470.12 236.57,-459.74"/>
<polygon fill="#63b8ff" stroke="#63b8ff" points="237.04,-456.27 226.55,-457.76 235.68,-463.14 237.04,-456.27"/>
</a>
</g>
</g>
<!-- Node40&#45;&gt;Node9 -->
<g id="edge40_Node000040_Node000009" class="edge">
<title>Node40&#45;&gt;Node9</title>
<g id="a_edge40_Node000040_Node000009"><a xlink:title=" ">
<path fill="none" stroke="#63b8ff" d="M479.03,-494.88C495.64,-487.46 518.03,-475.35 533,-459 589,-397.83 609.3,-344.47 564,-275 545.96,-247.34 523.87,-260.73 499,-239 453.08,-198.88 449.7,-180.47 417,-129 407.58,-114.18 398.26,-96.5 391.77,-83.57"/>
<polygon fill="#63b8ff" stroke="#63b8ff" points="394.79,-81.78 387.22,-74.36 388.51,-84.88 394.79,-81.78"/>
</a>
</g>
</g>
<!-- Node40&#45;&gt;Node13 -->
<g id="edge38_Node000040_Node000013" class="edge">
<title>Node40&#45;&gt;Node13</title>
<g id="a_edge38_Node000040_Node000013"><a xlink:title=" ">
<path fill="none" stroke="#63b8ff" d="M442.01,-494.84C409.65,-476.16 333.02,-431.9 293.89,-409.3"/>
<polygon fill="#63b8ff" stroke="#63b8ff" points="295.21,-406.02 284.8,-404.05 291.71,-412.08 295.21,-406.02"/>
</a>
</g>
</g>
<!-- Node40&#45;&gt;Node35 -->
<g id="edge45_Node000040_Node000035" class="edge">
<title>Node40&#45;&gt;Node35</title>
<g id="a_edge45_Node000040_Node000035"><a xlink:title=" ">
<path fill="none" stroke="#63b8ff" d="M471.7,-494.97C484.2,-487.06 501.85,-474.23 513,-459 543.92,-416.78 545.51,-400.46 555,-349 556.53,-340.7 557.65,-338.02 555,-330 551.54,-319.54 544.57,-309.53 537.92,-301.66"/>
<polygon fill="#63b8ff" stroke="#63b8ff" points="540.33,-299.1 531.02,-294.04 535.14,-303.8 540.33,-299.1"/>
</a>
</g>
</g>
<!-- Node41 -->
<g id="Node000041" class="node">
<title>Node41</title>
<g id="a_Node000041"><a xlink:href="mp__arith_8h.html" target="_top" xlink:title=" ">
<polygon fill="white" stroke="#666666" points="737.5,-459 668.5,-459 668.5,-440 737.5,-440 737.5,-459"/>
<text text-anchor="middle" x="703" y="-447" font-family="Helvetica,sans-Serif" font-size="10.00">mp_arith.h</text>
</a>
</g>
</g>
<!-- Node40&#45;&gt;Node41 -->
<g id="edge41_Node000040_Node000041" class="edge">
<title>Node40&#45;&gt;Node41</title>
<g id="a_edge41_Node000040_Node000041"><a xlink:title=" ">
<path fill="none" stroke="#63b8ff" d="M493.56,-495.62C537.46,-486.17 611.04,-470.31 658.28,-460.14"/>
<polygon fill="#63b8ff" stroke="#63b8ff" points="659.19,-463.52 668.23,-457.99 657.71,-456.68 659.19,-463.52"/>
</a>
</g>
</g>
<!-- Node26 -->
<g id="Node000026" class="node">
<title>Node26</title>
<g id="a_Node000026"><a xlink:title=" ">
<polygon fill="#e0e0e0" stroke="#999999" points="503.5,-459 410.5,-459 410.5,-440 503.5,-440 503.5,-459"/>
<text text-anchor="middle" x="457" y="-447" font-family="Helvetica,sans-Serif" font-size="10.00">unordered_map</text>
</a>
</g>
</g>
<!-- Node40&#45;&gt;Node26 -->
<g id="edge46_Node000040_Node000026" class="edge">
<title>Node40&#45;&gt;Node26</title>
<g id="a_edge46_Node000040_Node000026"><a xlink:title=" ">
<path fill="none" stroke="#63b8ff" d="M457,-494.75C457,-487.8 457,-477.85 457,-469.13"/>
<polygon fill="#63b8ff" stroke="#63b8ff" points="460.5,-469.09 457,-459.09 453.5,-469.09 460.5,-469.09"/>
</a>
</g>
</g>
<!-- Node41&#45;&gt;Node2 -->
<g id="edge42_Node000041_Node000002" class="edge">
<title>Node41&#45;&gt;Node2</title>
<g id="a_edge42_Node000041_Node000002"><a xlink:title=" ">
<path fill="none" stroke="#63b8ff" d="M720.83,-439.98C738.61,-431.5 766.15,-418.35 786.68,-408.54"/>
<polygon fill="#63b8ff" stroke="#63b8ff" points="788.33,-411.64 795.84,-404.17 785.31,-405.32 788.33,-411.64"/>
</a>
</g>
</g>
<!-- Node41&#45;&gt;Node12 -->
<g id="edge43_Node000041_Node000012" class="edge">
<title>Node41&#45;&gt;Node12</title>
<g id="a_edge43_Node000041_Node000012"><a xlink:title=" ">
<path fill="none" stroke="#63b8ff" d="M712.91,-439.9C721.95,-431.56 735.07,-418.13 743,-404 757.42,-378.31 762,-369.96 762,-340.5 762,-340.5 762,-340.5 762,-118.5 762,-79.47 728.39,-44.58 705.87,-25.6"/>
<polygon fill="#63b8ff" stroke="#63b8ff" points="707.85,-22.7 697.88,-19.12 703.44,-28.14 707.85,-22.7"/>
</a>
</g>
</g>
<!-- Node42 -->
<g id="Node000042" class="node">
<title>Node42</title>
<g id="a_Node000042"><a xlink:title=" ">
<polygon fill="#e0e0e0" stroke="#999999" points="734,-404 640,-404 640,-385 734,-385 734,-404"/>
<text text-anchor="middle" x="687" y="-392" font-family="Helvetica,sans-Serif" font-size="10.00">big&#45;int/bigint.hh</text>
</a>
</g>
</g>
<!-- Node41&#45;&gt;Node42 -->
<g id="edge44_Node000041_Node000042" class="edge">
<title>Node41&#45;&gt;Node42</title>
<g id="a_edge44_Node000041_Node000042"><a xlink:title=" ">
<path fill="none" stroke="#63b8ff" d="M700.36,-439.75C698.24,-432.72 695.19,-422.62 692.54,-413.84"/>
<polygon fill="#63b8ff" stroke="#63b8ff" points="695.83,-412.65 689.59,-404.09 689.13,-414.67 695.83,-412.65"/>
</a>
</g>
</g>
</g>
</svg>
