<?xml version="1.0" encoding="UTF-8" standalone="no"?>
<!DOCTYPE svg PUBLIC "-//W3C//DTD SVG 1.1//EN"
 "http://www.w3.org/Graphics/SVG/1.1/DTD/svg11.dtd">
<!-- Generated by graphviz version 2.43.0 (0)
 -->
<!-- Title: /home/runner/work/cbmc/cbmc/src/pointer&#45;analysis/object_numbering.h Pages: 1 -->
<svg width="1631pt" height="610pt"
 viewBox="0.00 0.00 1630.50 610.00" xmlns="http://www.w3.org/2000/svg" xmlns:xlink="http://www.w3.org/1999/xlink">
<g id="graph0" class="graph" transform="scale(1 1) rotate(0) translate(4 606)">
<title>/home/runner/work/cbmc/cbmc/src/pointer&#45;analysis/object_numbering.h</title>
<!-- Node1 -->
<g id="Node000001" class="node">
<title>Node1</title>
<g id="a_Node000001"><a xlink:title="Object Numbering.">
<polygon fill="#999999" stroke="#666666" points="1171.5,-602 1026.5,-602 1026.5,-561 1171.5,-561 1171.5,-602"/>
<text text-anchor="start" x="1034.5" y="-590" font-family="Helvetica,sans-Serif" font-size="10.00">/home/runner/work/cbmc</text>
<text text-anchor="start" x="1034.5" y="-579" font-family="Helvetica,sans-Serif" font-size="10.00">/cbmc/src/pointer&#45;analysis</text>
<text text-anchor="middle" x="1099" y="-568" font-family="Helvetica,sans-Serif" font-size="10.00">/object_numbering.h</text>
</a>
</g>
</g>
<!-- Node2 -->
<g id="Node000002" class="node">
<title>Node2</title>
<g id="a_Node000002"><a xlink:href="value__set_8h.html" target="_top" xlink:title="Value Set.">
<polygon fill="white" stroke="#666666" points="973.5,-525 828.5,-525 828.5,-484 973.5,-484 973.5,-525"/>
<text text-anchor="start" x="836.5" y="-513" font-family="Helvetica,sans-Serif" font-size="10.00">/home/runner/work/cbmc</text>
<text text-anchor="start" x="836.5" y="-502" font-family="Helvetica,sans-Serif" font-size="10.00">/cbmc/src/pointer&#45;analysis</text>
<text text-anchor="middle" x="901" y="-491" font-family="Helvetica,sans-Serif" font-size="10.00">/value_set.h</text>
</a>
</g>
</g>
<!-- Node1&#45;&gt;Node2 -->
<g id="edge1_Node000001_Node000002" class="edge">
<title>Node1&#45;&gt;Node2</title>
<g id="a_edge1_Node000001_Node000002"><a xlink:title=" ">
<path fill="none" stroke="#63b8ff" d="M1038.03,-557.4C1010.67,-547.04 978.74,-534.95 952.59,-525.04"/>
<polygon fill="#63b8ff" stroke="#63b8ff" points="1036.9,-560.72 1047.49,-560.99 1039.38,-554.18 1036.9,-560.72"/>
</a>
</g>
</g>
<!-- Node81 -->
<g id="Node000081" class="node">
<title>Node81</title>
<g id="a_Node000081"><a xlink:href="value__set__fi_8h.html" target="_top" xlink:title="Value Set (Flow Insensitive, Sharing)">
<polygon fill="white" stroke="#666666" points="1370.5,-525 1225.5,-525 1225.5,-484 1370.5,-484 1370.5,-525"/>
<text text-anchor="start" x="1233.5" y="-513" font-family="Helvetica,sans-Serif" font-size="10.00">/home/runner/work/cbmc</text>
<text text-anchor="start" x="1233.5" y="-502" font-family="Helvetica,sans-Serif" font-size="10.00">/cbmc/src/pointer&#45;analysis</text>
<text text-anchor="middle" x="1298" y="-491" font-family="Helvetica,sans-Serif" font-size="10.00">/value_set_fi.h</text>
</a>
</g>
</g>
<!-- Node1&#45;&gt;Node81 -->
<g id="edge30_Node000001_Node000081" class="edge">
<title>Node1&#45;&gt;Node81</title>
<g id="a_edge30_Node000001_Node000081"><a xlink:title=" ">
<path fill="none" stroke="#63b8ff" d="M1160.28,-557.4C1187.78,-547.04 1219.87,-534.95 1246.15,-525.04"/>
<polygon fill="#63b8ff" stroke="#63b8ff" points="1158.89,-554.19 1150.77,-560.99 1161.36,-560.74 1158.89,-554.19"/>
</a>
</g>
</g>
<!-- Node3 -->
<g id="Node000003" class="node">
<title>Node3</title>
<g id="a_Node000003"><a xlink:href="goto__state_8h.html" target="_top" xlink:title="goto_statet class definition">
<polygon fill="white" stroke="#666666" points="975.5,-448 826.5,-448 826.5,-407 975.5,-407 975.5,-448"/>
<text text-anchor="start" x="834.5" y="-436" font-family="Helvetica,sans-Serif" font-size="10.00">/home/runner/work/cbmc</text>
<text text-anchor="start" x="834.5" y="-425" font-family="Helvetica,sans-Serif" font-size="10.00">/cbmc/src/goto&#45;symex/goto</text>
<text text-anchor="middle" x="901" y="-414" font-family="Helvetica,sans-Serif" font-size="10.00">_state.h</text>
</a>
</g>
</g>
<!-- Node2&#45;&gt;Node3 -->
<g id="edge2_Node000002_Node000003" class="edge">
<title>Node2&#45;&gt;Node3</title>
<g id="a_edge2_Node000002_Node000003"><a xlink:title=" ">
<path fill="none" stroke="#63b8ff" d="M901,-473.69C901,-465.08 901,-455.9 901,-448.07"/>
<polygon fill="#63b8ff" stroke="#63b8ff" points="897.5,-473.79 901,-483.79 904.5,-473.79 897.5,-473.79"/>
</a>
</g>
</g>
<!-- Node73 -->
<g id="Node000073" class="node">
<title>Node73</title>
<g id="a_Node000073"><a xlink:href="postcondition_8cpp.html" target="_top" xlink:title="Symbolic Execution.">
<polygon fill="white" stroke="#666666" points="1207,-442.5 993,-442.5 993,-412.5 1207,-412.5 1207,-442.5"/>
<text text-anchor="start" x="1001" y="-430.5" font-family="Helvetica,sans-Serif" font-size="10.00">/home/runner/work/cbmc</text>
<text text-anchor="middle" x="1100" y="-419.5" font-family="Helvetica,sans-Serif" font-size="10.00">/cbmc/src/goto&#45;symex/postcondition.cpp</text>
</a>
</g>
</g>
<!-- Node2&#45;&gt;Node73 -->
<g id="edge20_Node000002_Node000073" class="edge">
<title>Node2&#45;&gt;Node73</title>
<g id="a_edge20_Node000002_Node000073"><a xlink:title=" ">
<path fill="none" stroke="#63b8ff" d="M962.27,-480.41C995.07,-468.05 1034.41,-453.22 1062.63,-442.58"/>
<polygon fill="#63b8ff" stroke="#63b8ff" points="960.89,-477.19 952.77,-483.99 963.36,-483.74 960.89,-477.19"/>
</a>
</g>
</g>
<!-- Node74 -->
<g id="Node000074" class="node">
<title>Node74</title>
<g id="a_Node000074"><a xlink:href="value__set_8cpp.html" target="_top" xlink:title="Value Set.">
<polygon fill="white" stroke="#666666" points="645.5,-448 500.5,-448 500.5,-407 645.5,-407 645.5,-448"/>
<text text-anchor="start" x="508.5" y="-436" font-family="Helvetica,sans-Serif" font-size="10.00">/home/runner/work/cbmc</text>
<text text-anchor="start" x="508.5" y="-425" font-family="Helvetica,sans-Serif" font-size="10.00">/cbmc/src/pointer&#45;analysis</text>
<text text-anchor="middle" x="573" y="-414" font-family="Helvetica,sans-Serif" font-size="10.00">/value_set.cpp</text>
</a>
</g>
</g>
<!-- Node2&#45;&gt;Node74 -->
<g id="edge21_Node000002_Node000074" class="edge">
<title>Node2&#45;&gt;Node74</title>
<g id="a_edge21_Node000002_Node000074"><a xlink:title=" ">
<path fill="none" stroke="#63b8ff" d="M818.22,-485.23C770.22,-474.55 708.65,-460.72 654,-448 651.32,-447.38 648.6,-446.74 645.85,-446.09"/>
<polygon fill="#63b8ff" stroke="#63b8ff" points="817.73,-488.71 828.25,-487.46 819.25,-481.87 817.73,-488.71"/>
</a>
</g>
</g>
<!-- Node75 -->
<g id="Node000075" class="node">
<title>Node75</title>
<g id="a_Node000075"><a xlink:href="value__set__domain_8h.html" target="_top" xlink:title="Value Set.">
<polygon fill="white" stroke="#666666" points="808.5,-448 663.5,-448 663.5,-407 808.5,-407 808.5,-448"/>
<text text-anchor="start" x="671.5" y="-436" font-family="Helvetica,sans-Serif" font-size="10.00">/home/runner/work/cbmc</text>
<text text-anchor="start" x="671.5" y="-425" font-family="Helvetica,sans-Serif" font-size="10.00">/cbmc/src/pointer&#45;analysis</text>
<text text-anchor="middle" x="736" y="-414" font-family="Helvetica,sans-Serif" font-size="10.00">/value_set_domain.h</text>
</a>
</g>
</g>
<!-- Node2&#45;&gt;Node75 -->
<g id="edge22_Node000002_Node000075" class="edge">
<title>Node2&#45;&gt;Node75</title>
<g id="a_edge22_Node000002_Node000075"><a xlink:title=" ">
<path fill="none" stroke="#63b8ff" d="M848.69,-479.72C826.23,-469.51 800.31,-457.73 778.99,-448.04"/>
<polygon fill="#63b8ff" stroke="#63b8ff" points="847.53,-483.04 858.08,-483.99 850.42,-476.67 847.53,-483.04"/>
</a>
</g>
</g>
<!-- Node4 -->
<g id="Node000004" class="node">
<title>Node4</title>
<g id="a_Node000004"><a xlink:href="frame_8h.html" target="_top" xlink:title="Class for stack frames.">
<polygon fill="white" stroke="#666666" points="876,-365.5 710,-365.5 710,-335.5 876,-335.5 876,-365.5"/>
<text text-anchor="start" x="718" y="-353.5" font-family="Helvetica,sans-Serif" font-size="10.00">/home/runner/work/cbmc</text>
<text text-anchor="middle" x="793" y="-342.5" font-family="Helvetica,sans-Serif" font-size="10.00">/cbmc/src/goto&#45;symex/frame.h</text>
</a>
</g>
</g>
<!-- Node3&#45;&gt;Node4 -->
<g id="edge3_Node000003_Node000004" class="edge">
<title>Node3&#45;&gt;Node4</title>
<g id="a_edge3_Node000003_Node000004"><a xlink:title=" ">
<path fill="none" stroke="#63b8ff" d="M864.3,-401.01C847.31,-389.22 827.77,-375.65 813.45,-365.7"/>
<polygon fill="#63b8ff" stroke="#63b8ff" points="862.7,-404.16 872.91,-406.99 866.69,-398.41 862.7,-404.16"/>
</a>
</g>
</g>
<!-- Node7 -->
<g id="Node000007" class="node">
<title>Node7</title>
<g id="a_Node000007"><a xlink:href="goto__symex__state_8h.html" target="_top" xlink:title="Symbolic Execution.">
<polygon fill="white" stroke="#666666" points="978.5,-211.5 829.5,-211.5 829.5,-170.5 978.5,-170.5 978.5,-211.5"/>
<text text-anchor="start" x="837.5" y="-199.5" font-family="Helvetica,sans-Serif" font-size="10.00">/home/runner/work/cbmc</text>
<text text-anchor="start" x="837.5" y="-188.5" font-family="Helvetica,sans-Serif" font-size="10.00">/cbmc/src/goto&#45;symex/goto</text>
<text text-anchor="middle" x="904" y="-177.5" font-family="Helvetica,sans-Serif" font-size="10.00">_symex_state.h</text>
</a>
</g>
</g>
<!-- Node3&#45;&gt;Node7 -->
<g id="edge19_Node000003_Node000007" class="edge">
<title>Node3&#45;&gt;Node7</title>
<g id="a_edge19_Node000003_Node000007"><a xlink:title=" ">
<path fill="none" stroke="#63b8ff" d="M901.38,-396.71C902,-348.06 903.22,-252.83 903.75,-211.7"/>
<polygon fill="#63b8ff" stroke="#63b8ff" points="897.88,-396.87 901.25,-406.91 904.88,-396.96 897.88,-396.87"/>
</a>
</g>
</g>
<!-- Node10 -->
<g id="Node000010" class="node">
<title>Node10</title>
<g id="a_Node000010"><a xlink:href="goto__state_8cpp.html" target="_top" xlink:title=" ">
<polygon fill="white" stroke="#666666" points="1622.5,-123.5 1473.5,-123.5 1473.5,-82.5 1622.5,-82.5 1622.5,-123.5"/>
<text text-anchor="start" x="1481.5" y="-111.5" font-family="Helvetica,sans-Serif" font-size="10.00">/home/runner/work/cbmc</text>
<text text-anchor="start" x="1481.5" y="-100.5" font-family="Helvetica,sans-Serif" font-size="10.00">/cbmc/src/goto&#45;symex/goto</text>
<text text-anchor="middle" x="1548" y="-89.5" font-family="Helvetica,sans-Serif" font-size="10.00">_state.cpp</text>
</a>
</g>
</g>
<!-- Node3&#45;&gt;Node10 -->
<g id="edge18_Node000003_Node000010" class="edge">
<title>Node3&#45;&gt;Node10</title>
<g id="a_edge18_Node000003_Node000010"><a xlink:title=" ">
<path fill="none" stroke="#63b8ff" d="M915.99,-397.66C937.56,-358.98 981.01,-290.81 1037,-253 1201.12,-142.16 1275.07,-185.11 1465,-129 1470.92,-127.25 1477.07,-125.42 1483.23,-123.58"/>
<polygon fill="#63b8ff" stroke="#63b8ff" points="912.71,-396.37 910.98,-406.82 918.85,-399.72 912.71,-396.37"/>
</a>
</g>
</g>
<!-- Node5 -->
<g id="Node000005" class="node">
<title>Node5</title>
<g id="a_Node000005"><a xlink:href="call__stack_8h.html" target="_top" xlink:title=" ">
<polygon fill="white" stroke="#666666" points="865.5,-294 720.5,-294 720.5,-253 865.5,-253 865.5,-294"/>
<text text-anchor="start" x="728.5" y="-282" font-family="Helvetica,sans-Serif" font-size="10.00">/home/runner/work/cbmc</text>
<text text-anchor="start" x="728.5" y="-271" font-family="Helvetica,sans-Serif" font-size="10.00">/cbmc/src/goto&#45;symex/call</text>
<text text-anchor="middle" x="793" y="-260" font-family="Helvetica,sans-Serif" font-size="10.00">_stack.h</text>
</a>
</g>
</g>
<!-- Node4&#45;&gt;Node5 -->
<g id="edge4_Node000004_Node000005" class="edge">
<title>Node4&#45;&gt;Node5</title>
<g id="a_edge4_Node000004_Node000005"><a xlink:title=" ">
<path fill="none" stroke="#63b8ff" d="M793,-325.23C793,-315.2 793,-303.71 793,-294.2"/>
<polygon fill="#63b8ff" stroke="#63b8ff" points="789.5,-325.39 793,-335.39 796.5,-325.39 789.5,-325.39"/>
</a>
</g>
</g>
<!-- Node6 -->
<g id="Node000006" class="node">
<title>Node6</title>
<g id="a_Node000006"><a xlink:href="java__enum__static__init__unwind__handler_8cpp.html" target="_top" xlink:title="Unwind loops in static initializers.">
<polygon fill="white" stroke="#666666" points="811.5,-217 644.5,-217 644.5,-165 811.5,-165 811.5,-217"/>
<text text-anchor="start" x="652.5" y="-205" font-family="Helvetica,sans-Serif" font-size="10.00">/home/runner/work/cbmc</text>
<text text-anchor="start" x="652.5" y="-194" font-family="Helvetica,sans-Serif" font-size="10.00">/cbmc/jbmc/src/java_bytecode</text>
<text text-anchor="start" x="652.5" y="-183" font-family="Helvetica,sans-Serif" font-size="10.00">/java_enum_static_init_unwind</text>
<text text-anchor="middle" x="728" y="-172" font-family="Helvetica,sans-Serif" font-size="10.00">_handler.cpp</text>
</a>
</g>
</g>
<!-- Node5&#45;&gt;Node6 -->
<g id="edge5_Node000005_Node000006" class="edge">
<title>Node5&#45;&gt;Node6</title>
<g id="a_edge5_Node000005_Node000006"><a xlink:title=" ">
<path fill="none" stroke="#63b8ff" d="M770.55,-244.7C763.33,-235.75 755.37,-225.9 748.31,-217.16"/>
<polygon fill="#63b8ff" stroke="#63b8ff" points="767.93,-247.02 776.93,-252.6 773.37,-242.62 767.93,-247.02"/>
</a>
</g>
</g>
<!-- Node5&#45;&gt;Node7 -->
<g id="edge6_Node000005_Node000007" class="edge">
<title>Node5&#45;&gt;Node7</title>
<g id="a_edge6_Node000005_Node000007"><a xlink:title=" ">
<path fill="none" stroke="#63b8ff" d="M828.54,-246.72C844.16,-235.4 862.21,-222.31 876.74,-211.77"/>
<polygon fill="#63b8ff" stroke="#63b8ff" points="826.19,-244.1 820.15,-252.81 830.3,-249.77 826.19,-244.1"/>
</a>
</g>
</g>
<!-- Node8 -->
<g id="Node000008" class="node">
<title>Node8</title>
<g id="a_Node000008"><a xlink:href="complexity__limiter_8cpp.html" target="_top" xlink:title=" ">
<polygon fill="white" stroke="#666666" points="182,-123.5 0,-123.5 0,-82.5 182,-82.5 182,-123.5"/>
<text text-anchor="start" x="8" y="-111.5" font-family="Helvetica,sans-Serif" font-size="10.00">/home/runner/work/cbmc</text>
<text text-anchor="start" x="8" y="-100.5" font-family="Helvetica,sans-Serif" font-size="10.00">/cbmc/src/goto&#45;symex/complexity</text>
<text text-anchor="middle" x="91" y="-89.5" font-family="Helvetica,sans-Serif" font-size="10.00">_limiter.cpp</text>
</a>
</g>
</g>
<!-- Node7&#45;&gt;Node8 -->
<g id="edge7_Node000007_Node000008" class="edge">
<title>Node7&#45;&gt;Node8</title>
<g id="a_edge7_Node000007_Node000008"><a xlink:title=" ">
<path fill="none" stroke="#63b8ff" d="M834.38,-167.94C829.54,-166.83 824.72,-165.83 820,-165 544.18,-116.74 467.82,-171.14 191,-129 181.62,-127.57 171.84,-125.66 162.23,-123.54"/>
<polygon fill="#63b8ff" stroke="#63b8ff" points="833.75,-171.39 844.3,-170.39 835.43,-164.6 833.75,-171.39"/>
</a>
</g>
</g>
<!-- Node9 -->
<g id="Node000009" class="node">
<title>Node9</title>
<g id="a_Node000009"><a xlink:href="field__sensitivity_8cpp.html" target="_top" xlink:title=" ">
<polygon fill="white" stroke="#666666" points="349.5,-123.5 200.5,-123.5 200.5,-82.5 349.5,-82.5 349.5,-123.5"/>
<text text-anchor="start" x="208.5" y="-111.5" font-family="Helvetica,sans-Serif" font-size="10.00">/home/runner/work/cbmc</text>
<text text-anchor="start" x="208.5" y="-100.5" font-family="Helvetica,sans-Serif" font-size="10.00">/cbmc/src/goto&#45;symex/field</text>
<text text-anchor="middle" x="275" y="-89.5" font-family="Helvetica,sans-Serif" font-size="10.00">_sensitivity.cpp</text>
</a>
</g>
</g>
<!-- Node7&#45;&gt;Node9 -->
<g id="edge8_Node000007_Node000009" class="edge">
<title>Node7&#45;&gt;Node9</title>
<g id="a_edge8_Node000007_Node000009"><a xlink:title=" ">
<path fill="none" stroke="#63b8ff" d="M834.09,-167.99C829.35,-166.87 824.62,-165.86 820,-165 617.5,-127.42 560.44,-166.92 358,-129 350.31,-127.56 342.32,-125.67 334.46,-123.58"/>
<polygon fill="#63b8ff" stroke="#63b8ff" points="833.26,-171.39 843.81,-170.43 834.96,-164.6 833.26,-171.39"/>
</a>
</g>
</g>
<!-- Node7&#45;&gt;Node10 -->
<g id="edge9_Node000007_Node000010" class="edge">
<title>Node7&#45;&gt;Node10</title>
<g id="a_edge9_Node000007_Node000010"><a xlink:title=" ">
<path fill="none" stroke="#63b8ff" d="M983.7,-168.28C989.53,-167.06 995.34,-165.94 1001,-165 1205.04,-131.06 1261.69,-167.05 1465,-129 1472.69,-127.56 1480.68,-125.67 1488.54,-123.58"/>
<polygon fill="#63b8ff" stroke="#63b8ff" points="982.9,-164.87 973.89,-170.44 984.41,-171.71 982.9,-164.87"/>
</a>
</g>
</g>
<!-- Node11 -->
<g id="Node000011" class="node">
<title>Node11</title>
<g id="a_Node000011"><a xlink:href="goto__symex__state_8cpp.html" target="_top" xlink:title="Symbolic Execution.">
<polygon fill="white" stroke="#666666" points="516.5,-123.5 367.5,-123.5 367.5,-82.5 516.5,-82.5 516.5,-123.5"/>
<text text-anchor="start" x="375.5" y="-111.5" font-family="Helvetica,sans-Serif" font-size="10.00">/home/runner/work/cbmc</text>
<text text-anchor="start" x="375.5" y="-100.5" font-family="Helvetica,sans-Serif" font-size="10.00">/cbmc/src/goto&#45;symex/goto</text>
<text text-anchor="middle" x="442" y="-89.5" font-family="Helvetica,sans-Serif" font-size="10.00">_symex_state.cpp</text>
</a>
</g>
</g>
<!-- Node7&#45;&gt;Node11 -->
<g id="edge10_Node000007_Node000011" class="edge">
<title>Node7&#45;&gt;Node11</title>
<g id="a_edge10_Node000007_Node000011"><a xlink:title=" ">
<path fill="none" stroke="#63b8ff" d="M832.52,-167.85C828.3,-166.82 824.11,-165.86 820,-165 690.69,-138.07 654.26,-156.15 525,-129 517.64,-127.45 509.98,-125.56 502.43,-123.51"/>
<polygon fill="#63b8ff" stroke="#63b8ff" points="831.81,-171.28 842.37,-170.38 833.56,-164.5 831.81,-171.28"/>
</a>
</g>
</g>
<!-- Node12 -->
<g id="Node000012" class="node">
<title>Node12</title>
<g id="a_Node000012"><a xlink:href="path__storage_8h.html" target="_top" xlink:title="Storage of symbolic execution paths to resume.">
<polygon fill="#fff0f0" stroke="red" points="683.5,-123.5 534.5,-123.5 534.5,-82.5 683.5,-82.5 683.5,-123.5"/>
<text text-anchor="start" x="542.5" y="-111.5" font-family="Helvetica,sans-Serif" font-size="10.00">/home/runner/work/cbmc</text>
<text text-anchor="start" x="542.5" y="-100.5" font-family="Helvetica,sans-Serif" font-size="10.00">/cbmc/src/goto&#45;symex/path</text>
<text text-anchor="middle" x="609" y="-89.5" font-family="Helvetica,sans-Serif" font-size="10.00">_storage.h</text>
</a>
</g>
</g>
<!-- Node7&#45;&gt;Node12 -->
<g id="edge11_Node000007_Node000012" class="edge">
<title>Node7&#45;&gt;Node12</title>
<g id="a_edge11_Node000007_Node000012"><a xlink:title=" ">
<path fill="none" stroke="#63b8ff" d="M828.85,-167.58C825.86,-166.71 822.9,-165.84 820,-165 763.66,-148.63 749.34,-145.37 693,-129 687.01,-127.26 680.78,-125.44 674.55,-123.6"/>
<polygon fill="#63b8ff" stroke="#63b8ff" points="827.87,-170.94 838.45,-170.4 829.84,-164.22 827.87,-170.94"/>
</a>
</g>
</g>
<!-- Node49 -->
<g id="Node000049" class="node">
<title>Node49</title>
<g id="a_Node000049"><a xlink:href="renaming__level_8cpp.html" target="_top" xlink:title="Renaming levels.">
<polygon fill="white" stroke="#666666" points="876,-123.5 702,-123.5 702,-82.5 876,-82.5 876,-123.5"/>
<text text-anchor="start" x="710" y="-111.5" font-family="Helvetica,sans-Serif" font-size="10.00">/home/runner/work/cbmc</text>
<text text-anchor="start" x="710" y="-100.5" font-family="Helvetica,sans-Serif" font-size="10.00">/cbmc/src/goto&#45;symex/renaming</text>
<text text-anchor="middle" x="789" y="-89.5" font-family="Helvetica,sans-Serif" font-size="10.00">_level.cpp</text>
</a>
</g>
</g>
<!-- Node7&#45;&gt;Node49 -->
<g id="edge12_Node000007_Node000049" class="edge">
<title>Node7&#45;&gt;Node49</title>
<g id="a_edge12_Node000007_Node000049"><a xlink:title=" ">
<path fill="none" stroke="#63b8ff" d="M869.68,-164.33C852.29,-151.33 831.51,-135.79 815.39,-123.74"/>
<polygon fill="#63b8ff" stroke="#63b8ff" points="867.8,-167.3 877.9,-170.49 871.99,-161.69 867.8,-167.3"/>
</a>
</g>
</g>
<!-- Node50 -->
<g id="Node000050" class="node">
<title>Node50</title>
<g id="a_Node000050"><a xlink:href="shadow__memory_8cpp.html" target="_top" xlink:title="Symex Shadow Memory Instrumentation.">
<polygon fill="white" stroke="#666666" points="1041.5,-41 876.5,-41 876.5,0 1041.5,0 1041.5,-41"/>
<text text-anchor="start" x="884.5" y="-29" font-family="Helvetica,sans-Serif" font-size="10.00">/home/runner/work/cbmc</text>
<text text-anchor="start" x="884.5" y="-18" font-family="Helvetica,sans-Serif" font-size="10.00">/cbmc/src/goto&#45;symex/shadow</text>
<text text-anchor="middle" x="959" y="-7" font-family="Helvetica,sans-Serif" font-size="10.00">_memory.cpp</text>
</a>
</g>
</g>
<!-- Node7&#45;&gt;Node50 -->
<g id="edge13_Node000007_Node000050" class="edge">
<title>Node7&#45;&gt;Node50</title>
<g id="a_edge13_Node000007_Node000050"><a xlink:title=" ">
<path fill="none" stroke="#63b8ff" d="M905.69,-160.18C907.79,-136.87 912.49,-104.01 923,-77 927.96,-64.26 936.08,-51.37 943.36,-41.23"/>
<polygon fill="#63b8ff" stroke="#63b8ff" points="902.2,-159.92 904.9,-170.16 909.18,-160.47 902.2,-159.92"/>
</a>
</g>
</g>
<!-- Node51 -->
<g id="Node000051" class="node">
<title>Node51</title>
<g id="a_Node000051"><a xlink:href="shadow__memory__util_8h.html" target="_top" xlink:title="Symex Shadow Memory Instrumentation Utilities.">
<polygon fill="#fff0f0" stroke="red" points="1097.5,-123.5 932.5,-123.5 932.5,-82.5 1097.5,-82.5 1097.5,-123.5"/>
<text text-anchor="start" x="940.5" y="-111.5" font-family="Helvetica,sans-Serif" font-size="10.00">/home/runner/work/cbmc</text>
<text text-anchor="start" x="940.5" y="-100.5" font-family="Helvetica,sans-Serif" font-size="10.00">/cbmc/src/goto&#45;symex/shadow</text>
<text text-anchor="middle" x="1015" y="-89.5" font-family="Helvetica,sans-Serif" font-size="10.00">_memory_util.h</text>
</a>
</g>
</g>
<!-- Node7&#45;&gt;Node51 -->
<g id="edge14_Node000007_Node000051" class="edge">
<title>Node7&#45;&gt;Node51</title>
<g id="a_edge14_Node000007_Node000051"><a xlink:title=" ">
<path fill="none" stroke="#63b8ff" d="M937.13,-164.33C953.91,-151.33 973.97,-135.79 989.53,-123.74"/>
<polygon fill="#63b8ff" stroke="#63b8ff" points="934.95,-161.59 929.19,-170.49 939.24,-167.13 934.95,-161.59"/>
</a>
</g>
</g>
<!-- Node53 -->
<g id="Node000053" class="node">
<title>Node53</title>
<g id="a_Node000053"><a xlink:href="symex__assign_8cpp.html" target="_top" xlink:title="Symbolic Execution.">
<polygon fill="white" stroke="#666666" points="1276.5,-123.5 1115.5,-123.5 1115.5,-82.5 1276.5,-82.5 1276.5,-123.5"/>
<text text-anchor="start" x="1123.5" y="-111.5" font-family="Helvetica,sans-Serif" font-size="10.00">/home/runner/work/cbmc</text>
<text text-anchor="start" x="1123.5" y="-100.5" font-family="Helvetica,sans-Serif" font-size="10.00">/cbmc/src/goto&#45;symex/symex</text>
<text text-anchor="middle" x="1196" y="-89.5" font-family="Helvetica,sans-Serif" font-size="10.00">_assign.cpp</text>
</a>
</g>
</g>
<!-- Node7&#45;&gt;Node53 -->
<g id="edge16_Node000007_Node000053" class="edge">
<title>Node7&#45;&gt;Node53</title>
<g id="a_edge16_Node000007_Node000053"><a xlink:title=" ">
<path fill="none" stroke="#63b8ff" d="M979.97,-167.63C1026.4,-153.95 1085.22,-136.63 1129.75,-123.51"/>
<polygon fill="#63b8ff" stroke="#63b8ff" points="978.86,-164.3 970.26,-170.49 980.84,-171.02 978.86,-164.3"/>
</a>
</g>
</g>
<!-- Node54 -->
<g id="Node000054" class="node">
<title>Node54</title>
<g id="a_Node000054"><a xlink:href="symex__complexity__limit__exceeded__action_8h.html" target="_top" xlink:title=" ">
<polygon fill="#fff0f0" stroke="red" points="1455.5,-129 1294.5,-129 1294.5,-77 1455.5,-77 1455.5,-129"/>
<text text-anchor="start" x="1302.5" y="-117" font-family="Helvetica,sans-Serif" font-size="10.00">/home/runner/work/cbmc</text>
<text text-anchor="start" x="1302.5" y="-106" font-family="Helvetica,sans-Serif" font-size="10.00">/cbmc/src/goto&#45;symex/symex</text>
<text text-anchor="start" x="1302.5" y="-95" font-family="Helvetica,sans-Serif" font-size="10.00">_complexity_limit_exceeded</text>
<text text-anchor="middle" x="1375" y="-84" font-family="Helvetica,sans-Serif" font-size="10.00">_action.h</text>
</a>
</g>
</g>
<!-- Node7&#45;&gt;Node54 -->
<g id="edge17_Node000007_Node000054" class="edge">
<title>Node7&#45;&gt;Node54</title>
<g id="a_edge17_Node000007_Node000054"><a xlink:title=" ">
<path fill="none" stroke="#63b8ff" d="M985.57,-168.19C990.78,-167.04 995.95,-165.97 1001,-165 1125.96,-141.08 1160.27,-154.09 1285,-129 1288.02,-128.39 1291.09,-127.74 1294.18,-127.04"/>
<polygon fill="#63b8ff" stroke="#63b8ff" points="984.52,-164.84 975.55,-170.48 986.08,-171.67 984.52,-164.84"/>
</a>
</g>
</g>
<!-- Node51&#45;&gt;Node50 -->
<g id="edge15_Node000051_Node000050" class="edge">
<title>Node51&#45;&gt;Node50</title>
<g id="a_edge15_Node000051_Node000050"><a xlink:title=" ">
<path fill="none" stroke="#63b8ff" d="M995.38,-73.8C987.89,-63.02 979.51,-50.98 972.68,-41.17"/>
<polygon fill="#63b8ff" stroke="#63b8ff" points="992.57,-75.89 1001.16,-82.1 998.32,-71.89 992.57,-75.89"/>
</a>
</g>
</g>
<!-- Node76 -->
<g id="Node000076" class="node">
<title>Node76</title>
<g id="a_Node000076"><a xlink:href="value__set__analysis_8h.html" target="_top" xlink:title="Value Set Propagation.">
<polygon fill="white" stroke="#666666" points="539.5,-371 394.5,-371 394.5,-330 539.5,-330 539.5,-371"/>
<text text-anchor="start" x="402.5" y="-359" font-family="Helvetica,sans-Serif" font-size="10.00">/home/runner/work/cbmc</text>
<text text-anchor="start" x="402.5" y="-348" font-family="Helvetica,sans-Serif" font-size="10.00">/cbmc/src/pointer&#45;analysis</text>
<text text-anchor="middle" x="467" y="-337" font-family="Helvetica,sans-Serif" font-size="10.00">/value_set_analysis.h</text>
</a>
</g>
</g>
<!-- Node75&#45;&gt;Node76 -->
<g id="edge23_Node000075_Node000076" class="edge">
<title>Node75&#45;&gt;Node76</title>
<g id="a_edge23_Node000075_Node000076"><a xlink:title=" ">
<path fill="none" stroke="#63b8ff" d="M656.07,-404.21C618.27,-393.68 573.55,-381.21 537.09,-371.04"/>
<polygon fill="#63b8ff" stroke="#63b8ff" points="655.45,-407.68 666.03,-406.99 657.33,-400.93 655.45,-407.68"/>
</a>
</g>
</g>
<!-- Node77 -->
<g id="Node000077" class="node">
<title>Node77</title>
<g id="a_Node000077"><a xlink:href="goto__instrument__parse__options_8cpp.html" target="_top" xlink:title="Main Module.">
<polygon fill="white" stroke="#666666" points="463,-211.5 269,-211.5 269,-170.5 463,-170.5 463,-211.5"/>
<text text-anchor="start" x="277" y="-199.5" font-family="Helvetica,sans-Serif" font-size="10.00">/home/runner/work/cbmc</text>
<text text-anchor="start" x="277" y="-188.5" font-family="Helvetica,sans-Serif" font-size="10.00">/cbmc/src/goto&#45;instrument</text>
<text text-anchor="middle" x="366" y="-177.5" font-family="Helvetica,sans-Serif" font-size="10.00">/goto_instrument_parse_options.cpp</text>
</a>
</g>
</g>
<!-- Node76&#45;&gt;Node77 -->
<g id="edge24_Node000076_Node000077" class="edge">
<title>Node76&#45;&gt;Node77</title>
<g id="a_edge24_Node000076_Node000077"><a xlink:title=" ">
<path fill="none" stroke="#63b8ff" d="M416.28,-324.27C404.38,-316.13 392.88,-306.03 385,-294 368.61,-268.99 365.49,-233.53 365.32,-211.68"/>
<polygon fill="#63b8ff" stroke="#63b8ff" points="414.66,-327.39 424.97,-329.85 418.44,-321.5 414.66,-327.39"/>
</a>
</g>
</g>
<!-- Node78 -->
<g id="Node000078" class="node">
<title>Node78</title>
<g id="a_Node000078"><a xlink:href="show__value__sets_8cpp.html" target="_top" xlink:title="Show Value Sets.">
<polygon fill="white" stroke="#666666" points="626.5,-211.5 481.5,-211.5 481.5,-170.5 626.5,-170.5 626.5,-211.5"/>
<text text-anchor="start" x="489.5" y="-199.5" font-family="Helvetica,sans-Serif" font-size="10.00">/home/runner/work/cbmc</text>
<text text-anchor="start" x="489.5" y="-188.5" font-family="Helvetica,sans-Serif" font-size="10.00">/cbmc/src/pointer&#45;analysis</text>
<text text-anchor="middle" x="554" y="-177.5" font-family="Helvetica,sans-Serif" font-size="10.00">/show_value_sets.cpp</text>
</a>
</g>
</g>
<!-- Node76&#45;&gt;Node78 -->
<g id="edge25_Node000076_Node000078" class="edge">
<title>Node76&#45;&gt;Node78</title>
<g id="a_edge25_Node000076_Node000078"><a xlink:title=" ">
<path fill="none" stroke="#63b8ff" d="M518.83,-324.32C530.32,-316.26 541.12,-306.18 548,-294 562.4,-268.52 560.73,-233.51 557.72,-211.84"/>
<polygon fill="#63b8ff" stroke="#63b8ff" points="516.84,-321.44 510.38,-329.84 520.67,-327.3 516.84,-321.44"/>
</a>
</g>
</g>
<!-- Node79 -->
<g id="Node000079" class="node">
<title>Node79</title>
<g id="a_Node000079"><a xlink:href="show__value__sets_8h.html" target="_top" xlink:title="Show Value Sets.">
<polygon fill="white" stroke="#666666" points="539.5,-294 394.5,-294 394.5,-253 539.5,-253 539.5,-294"/>
<text text-anchor="start" x="402.5" y="-282" font-family="Helvetica,sans-Serif" font-size="10.00">/home/runner/work/cbmc</text>
<text text-anchor="start" x="402.5" y="-271" font-family="Helvetica,sans-Serif" font-size="10.00">/cbmc/src/pointer&#45;analysis</text>
<text text-anchor="middle" x="467" y="-260" font-family="Helvetica,sans-Serif" font-size="10.00">/show_value_sets.h</text>
</a>
</g>
</g>
<!-- Node76&#45;&gt;Node79 -->
<g id="edge26_Node000076_Node000079" class="edge">
<title>Node76&#45;&gt;Node79</title>
<g id="a_edge26_Node000076_Node000079"><a xlink:title=" ">
<path fill="none" stroke="#63b8ff" d="M467,-319.69C467,-311.08 467,-301.9 467,-294.07"/>
<polygon fill="#63b8ff" stroke="#63b8ff" points="463.5,-319.79 467,-329.79 470.5,-319.79 463.5,-319.79"/>
</a>
</g>
</g>
<!-- Node80 -->
<g id="Node000080" class="node">
<title>Node80</title>
<g id="a_Node000080"><a xlink:href="value__set__analysis_8cpp.html" target="_top" xlink:title="Value Set Propagation.">
<polygon fill="white" stroke="#666666" points="337.5,-294 192.5,-294 192.5,-253 337.5,-253 337.5,-294"/>
<text text-anchor="start" x="200.5" y="-282" font-family="Helvetica,sans-Serif" font-size="10.00">/home/runner/work/cbmc</text>
<text text-anchor="start" x="200.5" y="-271" font-family="Helvetica,sans-Serif" font-size="10.00">/cbmc/src/pointer&#45;analysis</text>
<text text-anchor="middle" x="265" y="-260" font-family="Helvetica,sans-Serif" font-size="10.00">/value_set_analysis.cpp</text>
</a>
</g>
</g>
<!-- Node76&#45;&gt;Node80 -->
<g id="edge29_Node000076_Node000080" class="edge">
<title>Node76&#45;&gt;Node80</title>
<g id="a_edge29_Node000076_Node000080"><a xlink:title=" ">
<path fill="none" stroke="#63b8ff" d="M404.79,-326.4C376.88,-316.04 344.31,-303.95 317.63,-294.04"/>
<polygon fill="#63b8ff" stroke="#63b8ff" points="403.86,-329.79 414.45,-329.99 406.3,-323.23 403.86,-329.79"/>
</a>
</g>
</g>
<!-- Node79&#45;&gt;Node77 -->
<g id="edge27_Node000079_Node000077" class="edge">
<title>Node79&#45;&gt;Node77</title>
<g id="a_edge27_Node000079_Node000077"><a xlink:title=" ">
<path fill="none" stroke="#63b8ff" d="M434.26,-246.41C420.14,-235.15 403.9,-222.21 390.8,-211.77"/>
<polygon fill="#63b8ff" stroke="#63b8ff" points="432.29,-249.31 442.29,-252.81 436.65,-243.84 432.29,-249.31"/>
</a>
</g>
</g>
<!-- Node79&#45;&gt;Node78 -->
<g id="edge28_Node000079_Node000078" class="edge">
<title>Node79&#45;&gt;Node78</title>
<g id="a_edge28_Node000079_Node000078"><a xlink:title=" ">
<path fill="none" stroke="#63b8ff" d="M496.1,-245.57C508.09,-234.48 521.72,-221.87 532.74,-211.67"/>
<polygon fill="#63b8ff" stroke="#63b8ff" points="493.47,-243.24 488.51,-252.6 498.22,-248.38 493.47,-243.24"/>
</a>
</g>
</g>
<!-- Node82 -->
<g id="Node000082" class="node">
<title>Node82</title>
<g id="a_Node000082"><a xlink:href="value__set__domain__fi_8h.html" target="_top" xlink:title="Value Set (Flow Insensitive)">
<polygon fill="white" stroke="#666666" points="1370.5,-448 1225.5,-448 1225.5,-407 1370.5,-407 1370.5,-448"/>
<text text-anchor="start" x="1233.5" y="-436" font-family="Helvetica,sans-Serif" font-size="10.00">/home/runner/work/cbmc</text>
<text text-anchor="start" x="1233.5" y="-425" font-family="Helvetica,sans-Serif" font-size="10.00">/cbmc/src/pointer&#45;analysis</text>
<text text-anchor="middle" x="1298" y="-414" font-family="Helvetica,sans-Serif" font-size="10.00">/value_set_domain_fi.h</text>
</a>
</g>
</g>
<!-- Node81&#45;&gt;Node82 -->
<g id="edge31_Node000081_Node000082" class="edge">
<title>Node81&#45;&gt;Node82</title>
<g id="a_edge31_Node000081_Node000082"><a xlink:title=" ">
<path fill="none" stroke="#63b8ff" d="M1298,-473.69C1298,-465.08 1298,-455.9 1298,-448.07"/>
<polygon fill="#63b8ff" stroke="#63b8ff" points="1294.5,-473.79 1298,-483.79 1301.5,-473.79 1294.5,-473.79"/>
</a>
</g>
</g>
<!-- Node88 -->
<g id="Node000088" class="node">
<title>Node88</title>
<g id="a_Node000088"><a xlink:href="value__set__fi_8cpp.html" target="_top" xlink:title="Value Set (Flow Insensitive, Sharing)">
<polygon fill="white" stroke="#666666" points="1533.5,-448 1388.5,-448 1388.5,-407 1533.5,-407 1533.5,-448"/>
<text text-anchor="start" x="1396.5" y="-436" font-family="Helvetica,sans-Serif" font-size="10.00">/home/runner/work/cbmc</text>
<text text-anchor="start" x="1396.5" y="-425" font-family="Helvetica,sans-Serif" font-size="10.00">/cbmc/src/pointer&#45;analysis</text>
<text text-anchor="middle" x="1461" y="-414" font-family="Helvetica,sans-Serif" font-size="10.00">/value_set_fi.cpp</text>
</a>
</g>
</g>
<!-- Node81&#45;&gt;Node88 -->
<g id="edge37_Node000081_Node000088" class="edge">
<title>Node81&#45;&gt;Node88</title>
<g id="a_edge37_Node000081_Node000088"><a xlink:title=" ">
<path fill="none" stroke="#63b8ff" d="M1349.68,-479.72C1371.86,-469.51 1397.47,-457.73 1418.53,-448.04"/>
<polygon fill="#63b8ff" stroke="#63b8ff" points="1348.02,-476.63 1340.4,-483.99 1350.95,-482.99 1348.02,-476.63"/>
</a>
</g>
</g>
<!-- Node83 -->
<g id="Node000083" class="node">
<title>Node83</title>
<g id="a_Node000083"><a xlink:href="value__set__analysis__fi_8h.html" target="_top" xlink:title="Value Set Propagation (flow insensitive)">
<polygon fill="white" stroke="#666666" points="1368.5,-371 1223.5,-371 1223.5,-330 1368.5,-330 1368.5,-371"/>
<text text-anchor="start" x="1231.5" y="-359" font-family="Helvetica,sans-Serif" font-size="10.00">/home/runner/work/cbmc</text>
<text text-anchor="start" x="1231.5" y="-348" font-family="Helvetica,sans-Serif" font-size="10.00">/cbmc/src/pointer&#45;analysis</text>
<text text-anchor="middle" x="1296" y="-337" font-family="Helvetica,sans-Serif" font-size="10.00">/value_set_analysis_fi.h</text>
</a>
</g>
</g>
<!-- Node82&#45;&gt;Node83 -->
<g id="edge32_Node000082_Node000083" class="edge">
<title>Node82&#45;&gt;Node83</title>
<g id="a_edge32_Node000082_Node000083"><a xlink:title=" ">
<path fill="none" stroke="#63b8ff" d="M1297.21,-396.69C1296.98,-388.08 1296.73,-378.9 1296.52,-371.07"/>
<polygon fill="#63b8ff" stroke="#63b8ff" points="1293.71,-396.89 1297.47,-406.79 1300.71,-396.7 1293.71,-396.89"/>
</a>
</g>
</g>
<!-- Node87 -->
<g id="Node000087" class="node">
<title>Node87</title>
<g id="a_Node000087"><a xlink:href="value__set__domain__fi_8cpp.html" target="_top" xlink:title="Value Set Domain (Flow Insensitive)">
<polygon fill="white" stroke="#666666" points="1531.5,-371 1386.5,-371 1386.5,-330 1531.5,-330 1531.5,-371"/>
<text text-anchor="start" x="1394.5" y="-359" font-family="Helvetica,sans-Serif" font-size="10.00">/home/runner/work/cbmc</text>
<text text-anchor="start" x="1394.5" y="-348" font-family="Helvetica,sans-Serif" font-size="10.00">/cbmc/src/pointer&#45;analysis</text>
<text text-anchor="middle" x="1459" y="-337" font-family="Helvetica,sans-Serif" font-size="10.00">/value_set_domain_fi.cpp</text>
</a>
</g>
</g>
<!-- Node82&#45;&gt;Node87 -->
<g id="edge36_Node000082_Node000087" class="edge">
<title>Node82&#45;&gt;Node87</title>
<g id="a_edge36_Node000082_Node000087"><a xlink:title=" ">
<path fill="none" stroke="#63b8ff" d="M1349.04,-402.72C1370.96,-392.51 1396.25,-380.73 1417.05,-371.04"/>
<polygon fill="#63b8ff" stroke="#63b8ff" points="1347.47,-399.6 1339.88,-406.99 1350.42,-405.94 1347.47,-399.6"/>
</a>
</g>
</g>
<!-- Node84 -->
<g id="Node000084" class="node">
<title>Node84</title>
<g id="a_Node000084"><a xlink:href="reaching__definitions_8cpp.html" target="_top" xlink:title="Range&#45;based reaching definitions analysis (following Field&#45; Sensitive Program Dependence Analysis,...">
<polygon fill="white" stroke="#666666" points="1541.5,-294 1386.5,-294 1386.5,-253 1541.5,-253 1541.5,-294"/>
<text text-anchor="start" x="1394.5" y="-282" font-family="Helvetica,sans-Serif" font-size="10.00">/home/runner/work/cbmc</text>
<text text-anchor="start" x="1394.5" y="-271" font-family="Helvetica,sans-Serif" font-size="10.00">/cbmc/src/analyses/reaching</text>
<text text-anchor="middle" x="1464" y="-260" font-family="Helvetica,sans-Serif" font-size="10.00">_definitions.cpp</text>
</a>
</g>
</g>
<!-- Node83&#45;&gt;Node84 -->
<g id="edge33_Node000083_Node000084" class="edge">
<title>Node83&#45;&gt;Node84</title>
<g id="a_edge33_Node000083_Node000084"><a xlink:title=" ">
<path fill="none" stroke="#63b8ff" d="M1348.96,-325.86C1371.89,-315.62 1398.43,-303.77 1420.23,-294.04"/>
<polygon fill="#63b8ff" stroke="#63b8ff" points="1347.41,-322.72 1339.7,-329.99 1350.26,-329.11 1347.41,-322.72"/>
</a>
</g>
</g>
<!-- Node85 -->
<g id="Node000085" class="node">
<title>Node85</title>
<g id="a_Node000085"><a xlink:href="value__set__fi__fp__removal_8cpp.html" target="_top" xlink:title=" ">
<polygon fill="white" stroke="#666666" points="1205.5,-294 1046.5,-294 1046.5,-253 1205.5,-253 1205.5,-294"/>
<text text-anchor="start" x="1054.5" y="-282" font-family="Helvetica,sans-Serif" font-size="10.00">/home/runner/work/cbmc</text>
<text text-anchor="start" x="1054.5" y="-271" font-family="Helvetica,sans-Serif" font-size="10.00">/cbmc/src/goto&#45;instrument</text>
<text text-anchor="middle" x="1126" y="-260" font-family="Helvetica,sans-Serif" font-size="10.00">/value_set_fi_fp_removal.cpp</text>
</a>
</g>
</g>
<!-- Node83&#45;&gt;Node85 -->
<g id="edge34_Node000083_Node000085" class="edge">
<title>Node83&#45;&gt;Node85</title>
<g id="a_edge34_Node000083_Node000085"><a xlink:title=" ">
<path fill="none" stroke="#63b8ff" d="M1242.41,-325.86C1219.2,-315.62 1192.35,-303.77 1170.3,-294.04"/>
<polygon fill="#63b8ff" stroke="#63b8ff" points="1241.22,-329.16 1251.78,-329.99 1244.04,-322.75 1241.22,-329.16"/>
</a>
</g>
</g>
<!-- Node86 -->
<g id="Node000086" class="node">
<title>Node86</title>
<g id="a_Node000086"><a xlink:href="value__set__analysis__fi_8cpp.html" target="_top" xlink:title="Value Set Propagation (Flow Insensitive)">
<polygon fill="white" stroke="#666666" points="1368.5,-294 1223.5,-294 1223.5,-253 1368.5,-253 1368.5,-294"/>
<text text-anchor="start" x="1231.5" y="-282" font-family="Helvetica,sans-Serif" font-size="10.00">/home/runner/work/cbmc</text>
<text text-anchor="start" x="1231.5" y="-271" font-family="Helvetica,sans-Serif" font-size="10.00">/cbmc/src/pointer&#45;analysis</text>
<text text-anchor="middle" x="1296" y="-260" font-family="Helvetica,sans-Serif" font-size="10.00">/value_set_analysis_fi.cpp</text>
</a>
</g>
</g>
<!-- Node83&#45;&gt;Node86 -->
<g id="edge35_Node000083_Node000086" class="edge">
<title>Node83&#45;&gt;Node86</title>
<g id="a_edge35_Node000083_Node000086"><a xlink:title=" ">
<path fill="none" stroke="#63b8ff" d="M1296,-319.69C1296,-311.08 1296,-301.9 1296,-294.07"/>
<polygon fill="#63b8ff" stroke="#63b8ff" points="1292.5,-319.79 1296,-329.79 1299.5,-319.79 1292.5,-319.79"/>
</a>
</g>
</g>
</g>
</svg>
