<?xml version="1.0" encoding="UTF-8" standalone="no"?>
<!DOCTYPE svg PUBLIC "-//W3C//DTD SVG 1.1//EN"
 "http://www.w3.org/Graphics/SVG/1.1/DTD/svg11.dtd">
<!-- Generated by graphviz version 2.43.0 (0)
 -->
<!-- Title: /home/runner/work/cbmc/cbmc/src/pointer&#45;analysis/object_numbering.h Pages: 1 -->
<svg width="861pt" height="599pt"
 viewBox="0.00 0.00 861.03 599.00" xmlns="http://www.w3.org/2000/svg" xmlns:xlink="http://www.w3.org/1999/xlink">
<g id="graph0" class="graph" transform="scale(1 1) rotate(0) translate(4 595)">
<title>/home/runner/work/cbmc/cbmc/src/pointer&#45;analysis/object_numbering.h</title>
<!-- Node1 -->
<g id="Node000001" class="node">
<title>Node1</title>
<g id="a_Node000001"><a xlink:title="Object Numbering.">
<polygon fill="#999999" stroke="#666666" points="436.5,-591 291.5,-591 291.5,-550 436.5,-550 436.5,-591"/>
<text text-anchor="start" x="299.5" y="-579" font-family="Helvetica,sans-Serif" font-size="10.00">/home/runner/work/cbmc</text>
<text text-anchor="start" x="299.5" y="-568" font-family="Helvetica,sans-Serif" font-size="10.00">/cbmc/src/pointer&#45;analysis</text>
<text text-anchor="middle" x="364" y="-557" font-family="Helvetica,sans-Serif" font-size="10.00">/object_numbering.h</text>
</a>
</g>
</g>
<!-- Node2 -->
<g id="Node000002" class="node">
<title>Node2</title>
<g id="a_Node000002"><a xlink:href="expr_8h.html" target="_top" xlink:title=" ">
<polygon fill="white" stroke="#666666" points="625.5,-514 560.5,-514 560.5,-495 625.5,-495 625.5,-514"/>
<text text-anchor="middle" x="593" y="-502" font-family="Helvetica,sans-Serif" font-size="10.00">util/expr.h</text>
</a>
</g>
</g>
<!-- Node1&#45;&gt;Node2 -->
<g id="edge1_Node000001_Node000002" class="edge">
<title>Node1&#45;&gt;Node2</title>
<g id="a_edge1_Node000001_Node000002"><a xlink:title=" ">
<path fill="none" stroke="#63b8ff" d="M433.95,-549.95C472.93,-539.06 520.07,-525.88 552.86,-516.72"/>
<polygon fill="#63b8ff" stroke="#63b8ff" points="553.87,-520.07 562.56,-514.01 551.98,-513.33 553.87,-520.07"/>
</a>
</g>
</g>
<!-- Node36 -->
<g id="Node000036" class="node">
<title>Node36</title>
<g id="a_Node000036"><a xlink:href="numbering_8h.html" target="_top" xlink:title=" ">
<polygon fill="white" stroke="#666666" points="217.5,-294 120.5,-294 120.5,-275 217.5,-275 217.5,-294"/>
<text text-anchor="middle" x="169" y="-282" font-family="Helvetica,sans-Serif" font-size="10.00">util/numbering.h</text>
</a>
</g>
</g>
<!-- Node1&#45;&gt;Node36 -->
<g id="edge40_Node000001_Node000036" class="edge">
<title>Node1&#45;&gt;Node36</title>
<g id="a_edge40_Node000001_Node000036"><a xlink:title=" ">
<path fill="none" stroke="#63b8ff" d="M291.39,-555.79C235.95,-540.62 169,-509.99 169,-450.5 169,-450.5 169,-450.5 169,-393.5 169,-362.19 169,-325.77 169,-304.23"/>
<polygon fill="#63b8ff" stroke="#63b8ff" points="172.5,-304.18 169,-294.18 165.5,-304.18 172.5,-304.18"/>
</a>
</g>
</g>
<!-- Node3 -->
<g id="Node000003" class="node">
<title>Node3</title>
<g id="a_Node000003"><a xlink:href="as__const_8h.html" target="_top" xlink:title=" ">
<polygon fill="white" stroke="#666666" points="487,-129 419,-129 419,-110 487,-110 487,-129"/>
<text text-anchor="middle" x="453" y="-117" font-family="Helvetica,sans-Serif" font-size="10.00">as_const.h</text>
</a>
</g>
</g>
<!-- Node2&#45;&gt;Node3 -->
<g id="edge2_Node000002_Node000003" class="edge">
<title>Node2&#45;&gt;Node3</title>
<g id="a_edge2_Node000002_Node000003"><a xlink:title=" ">
<path fill="none" stroke="#63b8ff" d="M561.96,-495C543.39,-488.28 520.96,-476.97 508,-459 434.68,-357.34 444.76,-193.96 450.65,-139.12"/>
<polygon fill="#63b8ff" stroke="#63b8ff" points="454.13,-139.47 451.81,-129.13 447.18,-138.66 454.13,-139.47"/>
</a>
</g>
</g>
<!-- Node4 -->
<g id="Node000004" class="node">
<title>Node4</title>
<g id="a_Node000004"><a xlink:href="type_8h.html" target="_top" xlink:title="Defines typet, type_with_subtypet and type_with_subtypest.">
<polygon fill="white" stroke="#666666" points="564.5,-459 517.5,-459 517.5,-440 564.5,-440 564.5,-459"/>
<text text-anchor="middle" x="541" y="-447" font-family="Helvetica,sans-Serif" font-size="10.00">type.h</text>
</a>
</g>
</g>
<!-- Node2&#45;&gt;Node4 -->
<g id="edge3_Node000002_Node000004" class="edge">
<title>Node2&#45;&gt;Node4</title>
<g id="a_edge3_Node000002_Node000004"><a xlink:title=" ">
<path fill="none" stroke="#63b8ff" d="M584.41,-494.75C576.84,-487.03 565.62,-475.6 556.49,-466.28"/>
<polygon fill="#63b8ff" stroke="#63b8ff" points="558.93,-463.78 549.43,-459.09 553.93,-468.68 558.93,-463.78"/>
</a>
</g>
</g>
<!-- Node32 -->
<g id="Node000032" class="node">
<title>Node32</title>
<g id="a_Node000032"><a xlink:href="validation__mode_8h.html" target="_top" xlink:title=" ">
<polygon fill="white" stroke="#666666" points="738.5,-349 631.5,-349 631.5,-330 738.5,-330 738.5,-349"/>
<text text-anchor="middle" x="685" y="-337" font-family="Helvetica,sans-Serif" font-size="10.00">validation_mode.h</text>
</a>
</g>
</g>
<!-- Node2&#45;&gt;Node32 -->
<g id="edge38_Node000002_Node000032" class="edge">
<title>Node2&#45;&gt;Node32</title>
<g id="a_edge38_Node000002_Node000032"><a xlink:title=" ">
<path fill="none" stroke="#63b8ff" d="M625.53,-502.68C686.8,-500.39 815.61,-491.7 843,-459 883.38,-410.8 784.82,-370.84 725.67,-352.06"/>
<polygon fill="#63b8ff" stroke="#63b8ff" points="726.42,-348.63 715.83,-349.01 724.35,-355.31 726.42,-348.63"/>
</a>
</g>
</g>
<!-- Node33 -->
<g id="Node000033" class="node">
<title>Node33</title>
<g id="a_Node000033"><a xlink:href="validate__types_8h.html" target="_top" xlink:title=" ">
<polygon fill="white" stroke="#666666" points="733,-404 635,-404 635,-385 733,-385 733,-404"/>
<text text-anchor="middle" x="684" y="-392" font-family="Helvetica,sans-Serif" font-size="10.00">validate_types.h</text>
</a>
</g>
</g>
<!-- Node2&#45;&gt;Node33 -->
<g id="edge37_Node000002_Node000033" class="edge">
<title>Node2&#45;&gt;Node33</title>
<g id="a_edge37_Node000002_Node000033"><a xlink:title=" ">
<path fill="none" stroke="#63b8ff" d="M593.65,-494.82C595.03,-481.7 599.26,-456.62 612,-440 622.49,-426.32 638.48,-415.83 652.73,-408.49"/>
<polygon fill="#63b8ff" stroke="#63b8ff" points="654.3,-411.62 661.77,-404.11 651.25,-405.32 654.3,-411.62"/>
</a>
</g>
</g>
<!-- Node34 -->
<g id="Node000034" class="node">
<title>Node34</title>
<g id="a_Node000034"><a xlink:href="validate__expressions_8h.html" target="_top" xlink:title=" ">
<polygon fill="white" stroke="#666666" points="750.5,-459 621.5,-459 621.5,-440 750.5,-440 750.5,-459"/>
<text text-anchor="middle" x="686" y="-447" font-family="Helvetica,sans-Serif" font-size="10.00">validate_expressions.h</text>
</a>
</g>
</g>
<!-- Node2&#45;&gt;Node34 -->
<g id="edge36_Node000002_Node000034" class="edge">
<title>Node2&#45;&gt;Node34</title>
<g id="a_edge36_Node000002_Node000034"><a xlink:title=" ">
<path fill="none" stroke="#63b8ff" d="M607.94,-494.98C622.5,-486.69 644.87,-473.94 661.93,-464.22"/>
<polygon fill="#63b8ff" stroke="#63b8ff" points="663.83,-467.16 670.79,-459.17 660.36,-461.08 663.83,-467.16"/>
</a>
</g>
</g>
<!-- Node35 -->
<g id="Node000035" class="node">
<title>Node35</title>
<g id="a_Node000035"><a xlink:title=" ">
<polygon fill="#e0e0e0" stroke="#999999" points="833.5,-459 768.5,-459 768.5,-440 833.5,-440 833.5,-459"/>
<text text-anchor="middle" x="801" y="-447" font-family="Helvetica,sans-Serif" font-size="10.00">functional</text>
</a>
</g>
</g>
<!-- Node2&#45;&gt;Node35 -->
<g id="edge39_Node000002_Node000035" class="edge">
<title>Node2&#45;&gt;Node35</title>
<g id="a_edge39_Node000002_Node000035"><a xlink:title=" ">
<path fill="none" stroke="#63b8ff" d="M625.96,-495.1C661.79,-485.97 719.16,-471.35 758.39,-461.36"/>
<polygon fill="#63b8ff" stroke="#63b8ff" points="759.37,-464.72 768.2,-458.86 757.64,-457.94 759.37,-464.72"/>
</a>
</g>
</g>
<!-- Node5 -->
<g id="Node000005" class="node">
<title>Node5</title>
<g id="a_Node000005"><a xlink:href="source__location_8h.html" target="_top" xlink:title=" ">
<polygon fill="white" stroke="#666666" points="416,-294 314,-294 314,-275 416,-275 416,-294"/>
<text text-anchor="middle" x="365" y="-282" font-family="Helvetica,sans-Serif" font-size="10.00">source_location.h</text>
</a>
</g>
</g>
<!-- Node4&#45;&gt;Node5 -->
<g id="edge4_Node000004_Node000005" class="edge">
<title>Node4&#45;&gt;Node5</title>
<g id="a_edge4_Node000004_Node000005"><a xlink:title=" ">
<path fill="none" stroke="#63b8ff" d="M531.54,-439.74C503.13,-413.42 418.29,-334.85 381.89,-301.14"/>
<polygon fill="#63b8ff" stroke="#63b8ff" points="384.22,-298.53 374.51,-294.31 379.47,-303.67 384.22,-298.53"/>
</a>
</g>
</g>
<!-- Node30 -->
<g id="Node000030" class="node">
<title>Node30</title>
<g id="a_Node000030"><a xlink:href="validate_8h.html" target="_top" xlink:title=" ">
<polygon fill="white" stroke="#666666" points="578.5,-404 513.5,-404 513.5,-385 578.5,-385 578.5,-404"/>
<text text-anchor="middle" x="546" y="-392" font-family="Helvetica,sans-Serif" font-size="10.00">validate.h</text>
</a>
</g>
</g>
<!-- Node4&#45;&gt;Node30 -->
<g id="edge27_Node000004_Node000030" class="edge">
<title>Node4&#45;&gt;Node30</title>
<g id="a_edge27_Node000004_Node000030"><a xlink:title=" ">
<path fill="none" stroke="#63b8ff" d="M541.83,-439.75C542.48,-432.8 543.42,-422.85 544.24,-414.13"/>
<polygon fill="#63b8ff" stroke="#63b8ff" points="547.73,-414.37 545.19,-404.09 540.77,-413.72 547.73,-414.37"/>
</a>
</g>
</g>
<!-- Node4&#45;&gt;Node32 -->
<g id="edge35_Node000004_Node000032" class="edge">
<title>Node4&#45;&gt;Node32</title>
<g id="a_edge35_Node000004_Node000032"><a xlink:title=" ">
<path fill="none" stroke="#63b8ff" d="M552.78,-439.66C577.48,-421.14 634.9,-378.08 665.3,-355.28"/>
<polygon fill="#63b8ff" stroke="#63b8ff" points="667.56,-357.96 673.46,-349.16 663.36,-352.36 667.56,-357.96"/>
</a>
</g>
</g>
<!-- Node4&#45;&gt;Node33 -->
<g id="edge34_Node000004_Node000033" class="edge">
<title>Node4&#45;&gt;Node33</title>
<g id="a_edge34_Node000004_Node000033"><a xlink:title=" ">
<path fill="none" stroke="#63b8ff" d="M563.98,-439.98C587.5,-431.27 624.29,-417.63 650.94,-407.75"/>
<polygon fill="#63b8ff" stroke="#63b8ff" points="652.45,-410.93 660.61,-404.17 650.01,-404.36 652.45,-410.93"/>
</a>
</g>
</g>
<!-- Node6 -->
<g id="Node000006" class="node">
<title>Node6</title>
<g id="a_Node000006"><a xlink:href="deprecate_8h.html" target="_top" xlink:title=" ">
<polygon fill="white" stroke="#666666" points="364,-239 290,-239 290,-220 364,-220 364,-239"/>
<text text-anchor="middle" x="327" y="-227" font-family="Helvetica,sans-Serif" font-size="10.00">deprecate.h</text>
</a>
</g>
</g>
<!-- Node5&#45;&gt;Node6 -->
<g id="edge5_Node000005_Node000006" class="edge">
<title>Node5&#45;&gt;Node6</title>
<g id="a_edge5_Node000005_Node000006"><a xlink:title=" ">
<path fill="none" stroke="#63b8ff" d="M358.73,-274.75C353.41,-267.34 345.64,-256.5 339.12,-247.41"/>
<polygon fill="#63b8ff" stroke="#63b8ff" points="341.83,-245.18 333.16,-239.09 336.14,-249.26 341.83,-245.18"/>
</a>
</g>
</g>
<!-- Node7 -->
<g id="Node000007" class="node">
<title>Node7</title>
<g id="a_Node000007"><a xlink:href="irep_8h.html" target="_top" xlink:title=" ">
<polygon fill="white" stroke="#666666" points="426,-239 382,-239 382,-220 426,-220 426,-239"/>
<text text-anchor="middle" x="404" y="-227" font-family="Helvetica,sans-Serif" font-size="10.00">irep.h</text>
</a>
</g>
</g>
<!-- Node5&#45;&gt;Node7 -->
<g id="edge6_Node000005_Node000007" class="edge">
<title>Node5&#45;&gt;Node7</title>
<g id="a_edge6_Node000005_Node000007"><a xlink:title=" ">
<path fill="none" stroke="#63b8ff" d="M371.44,-274.75C376.89,-267.34 384.86,-256.5 391.56,-247.41"/>
<polygon fill="#63b8ff" stroke="#63b8ff" points="394.57,-249.22 397.68,-239.09 388.93,-245.07 394.57,-249.22"/>
</a>
</g>
</g>
<!-- Node8 -->
<g id="Node000008" class="node">
<title>Node8</title>
<g id="a_Node000008"><a xlink:title=" ">
<polygon fill="#e0e0e0" stroke="#999999" points="685,-19 641,-19 641,0 685,0 685,-19"/>
<text text-anchor="middle" x="663" y="-7" font-family="Helvetica,sans-Serif" font-size="10.00">string</text>
</a>
</g>
</g>
<!-- Node5&#45;&gt;Node8 -->
<g id="edge26_Node000005_Node000008" class="edge">
<title>Node5&#45;&gt;Node8</title>
<g id="a_edge26_Node000005_Node000008"><a xlink:title=" ">
<path fill="none" stroke="#63b8ff" d="M416.13,-279.24C480.69,-271.25 591.48,-248.47 659,-184 702.71,-142.27 723.28,-111.56 702,-55 697.82,-43.89 689.48,-33.75 681.57,-25.96"/>
<polygon fill="#63b8ff" stroke="#63b8ff" points="683.72,-23.19 673.99,-19.01 678.99,-28.35 683.72,-23.19"/>
</a>
</g>
</g>
<!-- Node29 -->
<g id="Node000029" class="node">
<title>Node29</title>
<g id="a_Node000029"><a xlink:title=" ">
<polygon fill="#e0e0e0" stroke="#999999" points="272,-239 216,-239 216,-220 272,-220 272,-239"/>
<text text-anchor="middle" x="244" y="-227" font-family="Helvetica,sans-Serif" font-size="10.00">optional</text>
</a>
</g>
</g>
<!-- Node5&#45;&gt;Node29 -->
<g id="edge25_Node000005_Node000029" class="edge">
<title>Node5&#45;&gt;Node29</title>
<g id="a_edge25_Node000005_Node000029"><a xlink:title=" ">
<path fill="none" stroke="#63b8ff" d="M345.56,-274.98C326.01,-266.42 295.62,-253.11 273.18,-243.28"/>
<polygon fill="#63b8ff" stroke="#63b8ff" points="274.36,-239.98 263.79,-239.17 271.55,-246.39 274.36,-239.98"/>
</a>
</g>
</g>
<!-- Node7&#45;&gt;Node8 -->
<g id="edge7_Node000007_Node000008" class="edge">
<title>Node7&#45;&gt;Node8</title>
<g id="a_edge7_Node000007_Node000008"><a xlink:title=" ">
<path fill="none" stroke="#63b8ff" d="M414.15,-219.95C453.23,-187.06 594.25,-68.36 644.81,-25.81"/>
<polygon fill="#63b8ff" stroke="#63b8ff" points="647.24,-28.34 652.64,-19.22 642.73,-22.99 647.24,-28.34"/>
</a>
</g>
</g>
<!-- Node9 -->
<g id="Node000009" class="node">
<title>Node9</title>
<g id="a_Node000009"><a xlink:title=" ">
<polygon fill="#e0e0e0" stroke="#999999" points="188.5,-184 141.5,-184 141.5,-165 188.5,-165 188.5,-184"/>
<text text-anchor="middle" x="165" y="-172" font-family="Helvetica,sans-Serif" font-size="10.00">vector</text>
</a>
</g>
</g>
<!-- Node7&#45;&gt;Node9 -->
<g id="edge8_Node000007_Node000009" class="edge">
<title>Node7&#45;&gt;Node9</title>
<g id="a_edge8_Node000007_Node000009"><a xlink:title=" ">
<path fill="none" stroke="#63b8ff" d="M381.69,-222.21C378.77,-221.44 375.82,-220.68 373,-220 297.95,-201.78 278.46,-200.43 203,-184 201.56,-183.69 200.08,-183.36 198.59,-183.04"/>
<polygon fill="#63b8ff" stroke="#63b8ff" points="199.23,-179.59 188.71,-180.85 197.71,-186.43 199.23,-179.59"/>
</a>
</g>
</g>
<!-- Node10 -->
<g id="Node000010" class="node">
<title>Node10</title>
<g id="a_Node000010"><a xlink:href="src_2util_2invariant_8h.html" target="_top" xlink:title=" ">
<polygon fill="white" stroke="#666666" points="251.5,-74 182.5,-74 182.5,-55 251.5,-55 251.5,-74"/>
<text text-anchor="middle" x="217" y="-62" font-family="Helvetica,sans-Serif" font-size="10.00">invariant.h</text>
</a>
</g>
</g>
<!-- Node7&#45;&gt;Node10 -->
<g id="edge9_Node000007_Node000010" class="edge">
<title>Node7&#45;&gt;Node10</title>
<g id="a_edge9_Node000007_Node000010"><a xlink:title=" ">
<path fill="none" stroke="#63b8ff" d="M381.9,-222.6C344.58,-211.35 269.84,-183 236,-129 227.41,-115.29 222.52,-97.48 219.86,-84.21"/>
<polygon fill="#63b8ff" stroke="#63b8ff" points="223.3,-83.57 218.12,-74.33 216.41,-84.78 223.3,-83.57"/>
</a>
</g>
</g>
<!-- Node14 -->
<g id="Node000014" class="node">
<title>Node14</title>
<g id="a_Node000014"><a xlink:href="irep__ids_8h.html" target="_top" xlink:title="util">
<polygon fill="white" stroke="#666666" points="650,-184 586,-184 586,-165 650,-165 650,-184"/>
<text text-anchor="middle" x="618" y="-172" font-family="Helvetica,sans-Serif" font-size="10.00">irep_ids.h</text>
</a>
</g>
</g>
<!-- Node7&#45;&gt;Node14 -->
<g id="edge14_Node000007_Node000014" class="edge">
<title>Node7&#45;&gt;Node14</title>
<g id="a_edge14_Node000007_Node000014"><a xlink:title=" ">
<path fill="none" stroke="#63b8ff" d="M426.1,-223.03C461.44,-214.27 531.28,-196.98 576.25,-185.84"/>
<polygon fill="#63b8ff" stroke="#63b8ff" points="577.13,-189.23 586,-183.43 575.45,-182.43 577.13,-189.23"/>
</a>
</g>
</g>
<!-- Node25 -->
<g id="Node000025" class="node">
<title>Node25</title>
<g id="a_Node000025"><a xlink:href="forward__list__as__map_8h.html" target="_top" xlink:title=" ">
<polygon fill="white" stroke="#666666" points="432.5,-184 305.5,-184 305.5,-165 432.5,-165 432.5,-184"/>
<text text-anchor="middle" x="369" y="-172" font-family="Helvetica,sans-Serif" font-size="10.00">forward_list_as_map.h</text>
</a>
</g>
</g>
<!-- Node7&#45;&gt;Node25 -->
<g id="edge18_Node000007_Node000025" class="edge">
<title>Node7&#45;&gt;Node25</title>
<g id="a_edge18_Node000007_Node000025"><a xlink:title=" ">
<path fill="none" stroke="#63b8ff" d="M398.22,-219.75C393.38,-212.42 386.32,-201.73 380.36,-192.7"/>
<polygon fill="#63b8ff" stroke="#63b8ff" points="383.1,-190.5 374.67,-184.09 377.26,-194.36 383.1,-190.5"/>
</a>
</g>
</g>
<!-- Node10&#45;&gt;Node8 -->
<g id="edge12_Node000010_Node000008" class="edge">
<title>Node10&#45;&gt;Node8</title>
<g id="a_edge12_Node000010_Node000008"><a xlink:title=" ">
<path fill="none" stroke="#63b8ff" d="M251.63,-59.39C335.66,-49.4 549.44,-23.99 630.85,-14.32"/>
<polygon fill="#63b8ff" stroke="#63b8ff" points="631.48,-17.77 641,-13.11 630.65,-10.82 631.48,-17.77"/>
</a>
</g>
</g>
<!-- Node11 -->
<g id="Node000011" class="node">
<title>Node11</title>
<g id="a_Node000011"><a xlink:title=" ">
<polygon fill="#e0e0e0" stroke="#999999" points="241.5,-19 192.5,-19 192.5,0 241.5,0 241.5,-19"/>
<text text-anchor="middle" x="217" y="-7" font-family="Helvetica,sans-Serif" font-size="10.00">cstdlib</text>
</a>
</g>
</g>
<!-- Node10&#45;&gt;Node11 -->
<g id="edge10_Node000010_Node000011" class="edge">
<title>Node10&#45;&gt;Node11</title>
<g id="a_edge10_Node000010_Node000011"><a xlink:title=" ">
<path fill="none" stroke="#63b8ff" d="M217,-54.75C217,-47.8 217,-37.85 217,-29.13"/>
<polygon fill="#63b8ff" stroke="#63b8ff" points="220.5,-29.09 217,-19.09 213.5,-29.09 220.5,-29.09"/>
</a>
</g>
</g>
<!-- Node12 -->
<g id="Node000012" class="node">
<title>Node12</title>
<g id="a_Node000012"><a xlink:title=" ">
<polygon fill="#e0e0e0" stroke="#999999" points="316,-19 260,-19 260,0 316,0 316,-19"/>
<text text-anchor="middle" x="288" y="-7" font-family="Helvetica,sans-Serif" font-size="10.00">sstream</text>
</a>
</g>
</g>
<!-- Node10&#45;&gt;Node12 -->
<g id="edge11_Node000010_Node000012" class="edge">
<title>Node10&#45;&gt;Node12</title>
<g id="a_edge11_Node000010_Node000012"><a xlink:title=" ">
<path fill="none" stroke="#63b8ff" d="M228.41,-54.98C239.11,-47 255.34,-34.88 268.16,-25.31"/>
<polygon fill="#63b8ff" stroke="#63b8ff" points="270.47,-27.96 276.39,-19.17 266.28,-22.35 270.47,-27.96"/>
</a>
</g>
</g>
<!-- Node13 -->
<g id="Node000013" class="node">
<title>Node13</title>
<g id="a_Node000013"><a xlink:title=" ">
<polygon fill="#e0e0e0" stroke="#999999" points="174.5,-19 105.5,-19 105.5,0 174.5,0 174.5,-19"/>
<text text-anchor="middle" x="140" y="-7" font-family="Helvetica,sans-Serif" font-size="10.00">type_traits</text>
</a>
</g>
</g>
<!-- Node10&#45;&gt;Node13 -->
<g id="edge13_Node000010_Node000013" class="edge">
<title>Node10&#45;&gt;Node13</title>
<g id="a_edge13_Node000010_Node000013"><a xlink:title=" ">
<path fill="none" stroke="#63b8ff" d="M204.63,-54.98C192.91,-46.92 175.08,-34.65 161.11,-25.03"/>
<polygon fill="#63b8ff" stroke="#63b8ff" points="162.82,-21.96 152.6,-19.17 158.85,-27.72 162.82,-21.96"/>
</a>
</g>
</g>
<!-- Node15 -->
<g id="Node000015" class="node">
<title>Node15</title>
<g id="a_Node000015"><a xlink:href="dstring_8h.html" target="_top" xlink:title="Container for C&#45;Strings.">
<polygon fill="#fff0f0" stroke="red" points="692.5,-74 633.5,-74 633.5,-55 692.5,-55 692.5,-74"/>
<text text-anchor="middle" x="663" y="-62" font-family="Helvetica,sans-Serif" font-size="10.00">dstring.h</text>
</a>
</g>
</g>
<!-- Node14&#45;&gt;Node15 -->
<g id="edge15_Node000014_Node000015" class="edge">
<title>Node14&#45;&gt;Node15</title>
<g id="a_edge15_Node000014_Node000015"><a xlink:title=" ">
<path fill="none" stroke="#63b8ff" d="M631.78,-164.82C642.82,-156.99 657.49,-144.35 664,-129 669.99,-114.87 669.17,-97.33 667.17,-84.26"/>
<polygon fill="#63b8ff" stroke="#63b8ff" points="670.56,-83.31 665.26,-74.14 663.68,-84.61 670.56,-83.31"/>
</a>
</g>
</g>
<!-- Node24 -->
<g id="Node000024" class="node">
<title>Node24</title>
<g id="a_Node000024"><a xlink:title=" ">
<polygon fill="#e0e0e0" stroke="#999999" points="655,-129 581,-129 581,-110 655,-110 655,-129"/>
<text text-anchor="middle" x="618" y="-117" font-family="Helvetica,sans-Serif" font-size="10.00">irep_ids.def</text>
</a>
</g>
</g>
<!-- Node14&#45;&gt;Node24 -->
<g id="edge17_Node000014_Node000024" class="edge">
<title>Node14&#45;&gt;Node24</title>
<g id="a_edge17_Node000014_Node000024"><a xlink:title=" ">
<path fill="none" stroke="#63b8ff" d="M618,-164.75C618,-157.8 618,-147.85 618,-139.13"/>
<polygon fill="#63b8ff" stroke="#63b8ff" points="621.5,-139.09 618,-129.09 614.5,-139.09 621.5,-139.09"/>
</a>
</g>
</g>
<!-- Node15&#45;&gt;Node8 -->
<g id="edge16_Node000015_Node000008" class="edge">
<title>Node15&#45;&gt;Node8</title>
<g id="a_edge16_Node000015_Node000008"><a xlink:title=" ">
<path fill="none" stroke="#63b8ff" d="M663,-54.75C663,-47.8 663,-37.85 663,-29.13"/>
<polygon fill="#63b8ff" stroke="#63b8ff" points="666.5,-29.09 663,-19.09 659.5,-29.09 666.5,-29.09"/>
</a>
</g>
</g>
<!-- Node25&#45;&gt;Node3 -->
<g id="edge21_Node000025_Node000003" class="edge">
<title>Node25&#45;&gt;Node3</title>
<g id="a_edge21_Node000025_Node000003"><a xlink:title=" ">
<path fill="none" stroke="#63b8ff" d="M382.5,-164.98C395.4,-156.84 415.1,-144.41 430.4,-134.76"/>
<polygon fill="#63b8ff" stroke="#63b8ff" points="432.67,-137.47 439.26,-129.17 428.93,-131.55 432.67,-137.47"/>
</a>
</g>
</g>
<!-- Node26 -->
<g id="Node000026" class="node">
<title>Node26</title>
<g id="a_Node000026"><a xlink:title=" ">
<polygon fill="#e0e0e0" stroke="#999999" points="401,-129 337,-129 337,-110 401,-110 401,-129"/>
<text text-anchor="middle" x="369" y="-117" font-family="Helvetica,sans-Serif" font-size="10.00">algorithm</text>
</a>
</g>
</g>
<!-- Node25&#45;&gt;Node26 -->
<g id="edge19_Node000025_Node000026" class="edge">
<title>Node25&#45;&gt;Node26</title>
<g id="a_edge19_Node000025_Node000026"><a xlink:title=" ">
<path fill="none" stroke="#63b8ff" d="M369,-164.75C369,-157.8 369,-147.85 369,-139.13"/>
<polygon fill="#63b8ff" stroke="#63b8ff" points="372.5,-139.09 369,-129.09 365.5,-139.09 372.5,-139.09"/>
</a>
</g>
</g>
<!-- Node27 -->
<g id="Node000027" class="node">
<title>Node27</title>
<g id="a_Node000027"><a xlink:title=" ">
<polygon fill="#e0e0e0" stroke="#999999" points="319,-129 245,-129 245,-110 319,-110 319,-129"/>
<text text-anchor="middle" x="282" y="-117" font-family="Helvetica,sans-Serif" font-size="10.00">forward_list</text>
</a>
</g>
</g>
<!-- Node25&#45;&gt;Node27 -->
<g id="edge20_Node000025_Node000027" class="edge">
<title>Node25&#45;&gt;Node27</title>
<g id="a_edge20_Node000025_Node000027"><a xlink:title=" ">
<path fill="none" stroke="#63b8ff" d="M355.02,-164.98C341.53,-156.77 320.87,-144.18 304.96,-134.49"/>
<polygon fill="#63b8ff" stroke="#63b8ff" points="306.59,-131.38 296.23,-129.17 302.95,-137.36 306.59,-131.38"/>
</a>
</g>
</g>
<!-- Node28 -->
<g id="Node000028" class="node">
<title>Node28</title>
<g id="a_Node000028"><a xlink:href="narrow_8h.html" target="_top" xlink:title=" ">
<polygon fill="white" stroke="#666666" points="188.5,-129 129.5,-129 129.5,-110 188.5,-110 188.5,-129"/>
<text text-anchor="middle" x="159" y="-117" font-family="Helvetica,sans-Serif" font-size="10.00">narrow.h</text>
</a>
</g>
</g>
<!-- Node25&#45;&gt;Node28 -->
<g id="edge22_Node000025_Node000028" class="edge">
<title>Node25&#45;&gt;Node28</title>
<g id="a_edge22_Node000025_Node000028"><a xlink:title=" ">
<path fill="none" stroke="#63b8ff" d="M335.26,-164.98C297.93,-155.56 237.85,-140.4 198.39,-130.44"/>
<polygon fill="#63b8ff" stroke="#63b8ff" points="199.14,-127.02 188.58,-127.97 197.42,-133.81 199.14,-127.02"/>
</a>
</g>
</g>
<!-- Node28&#45;&gt;Node10 -->
<g id="edge24_Node000028_Node000010" class="edge">
<title>Node28&#45;&gt;Node10</title>
<g id="a_edge24_Node000028_Node000010"><a xlink:title=" ">
<path fill="none" stroke="#63b8ff" d="M168.32,-109.98C176.81,-102.23 189.56,-90.58 199.88,-81.14"/>
<polygon fill="#63b8ff" stroke="#63b8ff" points="202.49,-83.5 207.51,-74.17 197.77,-78.33 202.49,-83.5"/>
</a>
</g>
</g>
<!-- Node28&#45;&gt;Node13 -->
<g id="edge23_Node000028_Node000013" class="edge">
<title>Node28&#45;&gt;Node13</title>
<g id="a_edge23_Node000028_Node000013"><a xlink:title=" ">
<path fill="none" stroke="#63b8ff" d="M157.45,-109.66C154.37,-92.17 147.44,-52.8 143.3,-29.27"/>
<polygon fill="#63b8ff" stroke="#63b8ff" points="146.7,-28.4 141.52,-19.16 139.81,-29.61 146.7,-28.4"/>
</a>
</g>
</g>
<!-- Node30&#45;&gt;Node13 -->
<g id="edge28_Node000030_Node000013" class="edge">
<title>Node30&#45;&gt;Node13</title>
<g id="a_edge28_Node000030_Node000013"><a xlink:title=" ">
<path fill="none" stroke="#63b8ff" d="M513.3,-389.59C439.41,-379.99 254.78,-351.74 111,-294 44.03,-267.11 0,-247.66 0,-175.5 0,-175.5 0,-175.5 0,-118.5 0,-67.63 58.66,-37.36 100.04,-22.34"/>
<polygon fill="#63b8ff" stroke="#63b8ff" points="101.32,-25.6 109.62,-19.02 99.03,-18.99 101.32,-25.6"/>
</a>
</g>
</g>
<!-- Node31 -->
<g id="Node000031" class="node">
<title>Node31</title>
<g id="a_Node000031"><a xlink:href="exception__utils_8h.html" target="_top" xlink:title=" ">
<polygon fill="white" stroke="#666666" points="613,-349 513,-349 513,-330 613,-330 613,-349"/>
<text text-anchor="middle" x="563" y="-337" font-family="Helvetica,sans-Serif" font-size="10.00">exception_utils.h</text>
</a>
</g>
</g>
<!-- Node30&#45;&gt;Node31 -->
<g id="edge29_Node000030_Node000031" class="edge">
<title>Node30&#45;&gt;Node31</title>
<g id="a_edge29_Node000030_Node000031"><a xlink:title=" ">
<path fill="none" stroke="#63b8ff" d="M548.81,-384.75C551.06,-377.72 554.3,-367.62 557.12,-358.84"/>
<polygon fill="#63b8ff" stroke="#63b8ff" points="560.52,-359.68 560.25,-349.09 553.86,-357.54 560.52,-359.68"/>
</a>
</g>
</g>
<!-- Node30&#45;&gt;Node32 -->
<g id="edge33_Node000030_Node000032" class="edge">
<title>Node30&#45;&gt;Node32</title>
<g id="a_edge33_Node000030_Node000032"><a xlink:title=" ">
<path fill="none" stroke="#63b8ff" d="M568.33,-384.98C591.2,-376.27 626.96,-362.63 652.86,-352.75"/>
<polygon fill="#63b8ff" stroke="#63b8ff" points="654.16,-356 662.26,-349.17 651.67,-349.46 654.16,-356"/>
</a>
</g>
</g>
<!-- Node31&#45;&gt;Node5 -->
<g id="edge32_Node000031_Node000005" class="edge">
<title>Node31&#45;&gt;Node5</title>
<g id="a_edge32_Node000031_Node000005"><a xlink:title=" ">
<path fill="none" stroke="#63b8ff" d="M531.19,-329.98C497.51,-320.97 444.2,-306.7 407.08,-296.76"/>
<polygon fill="#63b8ff" stroke="#63b8ff" points="407.63,-293.29 397.06,-294.08 405.82,-300.05 407.63,-293.29"/>
</a>
</g>
</g>
<!-- Node31&#45;&gt;Node8 -->
<g id="edge30_Node000031_Node000008" class="edge">
<title>Node31&#45;&gt;Node8</title>
<g id="a_edge30_Node000031_Node000008"><a xlink:title=" ">
<path fill="none" stroke="#63b8ff" d="M589.84,-329.9C643.52,-311.87 759,-268.67 759,-230.5 759,-230.5 759,-230.5 759,-118.5 759,-75.72 716.4,-42.01 687.95,-24.27"/>
<polygon fill="#63b8ff" stroke="#63b8ff" points="689.66,-21.21 679.29,-19.08 686.07,-27.22 689.66,-21.21"/>
</a>
</g>
</g>
<!-- Node31&#45;&gt;Node10 -->
<g id="edge31_Node000031_Node000010" class="edge">
<title>Node31&#45;&gt;Node10</title>
<g id="a_edge31_Node000031_Node000010"><a xlink:title=" ">
<path fill="none" stroke="#63b8ff" d="M561.65,-329.85C558.92,-311.55 553,-267.6 553,-230.5 553,-230.5 553,-230.5 553,-173.5 553,-135.58 529.31,-128.14 496,-110 456.41,-88.44 329.83,-74.9 261.6,-68.98"/>
<polygon fill="#63b8ff" stroke="#63b8ff" points="261.83,-65.48 251.57,-68.12 261.24,-72.46 261.83,-65.48"/>
</a>
</g>
</g>
<!-- Node36&#45;&gt;Node9 -->
<g id="edge44_Node000036_Node000009" class="edge">
<title>Node36&#45;&gt;Node9</title>
<g id="a_edge44_Node000036_Node000009"><a xlink:title=" ">
<path fill="none" stroke="#63b8ff" d="M168.67,-274.66C168.02,-257.17 166.57,-217.8 165.7,-194.27"/>
<polygon fill="#63b8ff" stroke="#63b8ff" points="169.19,-194.02 165.32,-184.16 162.19,-194.28 169.19,-194.02"/>
</a>
</g>
</g>
<!-- Node36&#45;&gt;Node10 -->
<g id="edge41_Node000036_Node000010" class="edge">
<title>Node36&#45;&gt;Node10</title>
<g id="a_edge41_Node000036_Node000010"><a xlink:title=" ">
<path fill="none" stroke="#63b8ff" d="M164.66,-274.64C149.62,-243.37 101.66,-138.58 120,-110 131.72,-91.72 153.04,-80.85 172.72,-74.44"/>
<polygon fill="#63b8ff" stroke="#63b8ff" points="173.89,-77.74 182.49,-71.56 171.91,-71.03 173.89,-77.74"/>
</a>
</g>
</g>
<!-- Node36&#45;&gt;Node29 -->
<g id="edge42_Node000036_Node000029" class="edge">
<title>Node36&#45;&gt;Node29</title>
<g id="a_edge42_Node000036_Node000029"><a xlink:title=" ">
<path fill="none" stroke="#63b8ff" d="M181.05,-274.98C192.46,-266.92 209.83,-254.65 223.43,-245.03"/>
<polygon fill="#63b8ff" stroke="#63b8ff" points="225.58,-247.8 231.73,-239.17 221.54,-242.08 225.58,-247.8"/>
</a>
</g>
</g>
<!-- Node21 -->
<g id="Node000021" class="node">
<title>Node21</title>
<g id="a_Node000021"><a xlink:title=" ">
<polygon fill="#e0e0e0" stroke="#999999" points="121.5,-239 28.5,-239 28.5,-220 121.5,-220 121.5,-239"/>
<text text-anchor="middle" x="75" y="-227" font-family="Helvetica,sans-Serif" font-size="10.00">unordered_map</text>
</a>
</g>
</g>
<!-- Node36&#45;&gt;Node21 -->
<g id="edge43_Node000036_Node000021" class="edge">
<title>Node36&#45;&gt;Node21</title>
<g id="a_edge43_Node000036_Node000021"><a xlink:title=" ">
<path fill="none" stroke="#63b8ff" d="M153.9,-274.98C139.18,-266.69 116.58,-253.94 99.33,-244.22"/>
<polygon fill="#63b8ff" stroke="#63b8ff" points="100.81,-241.03 90.38,-239.17 97.37,-247.13 100.81,-241.03"/>
</a>
</g>
</g>
</g>
</svg>
