<?xml version="1.0" encoding="UTF-8" standalone="no"?>
<!DOCTYPE svg PUBLIC "-//W3C//DTD SVG 1.1//EN"
 "http://www.w3.org/Graphics/SVG/1.1/DTD/svg11.dtd">
<!-- Generated by graphviz version 2.43.0 (0)
 -->
<!-- Title: /home/runner/work/cbmc/cbmc/src/goto&#45;symex/path_storage.h Pages: 1 -->
<svg width="3423pt" height="390pt"
 viewBox="0.00 0.00 3422.50 390.00" xmlns="http://www.w3.org/2000/svg" xmlns:xlink="http://www.w3.org/1999/xlink">
<g id="graph0" class="graph" transform="scale(1 1) rotate(0) translate(4 386)">
<title>/home/runner/work/cbmc/cbmc/src/goto&#45;symex/path_storage.h</title>
<!-- Node1 -->
<g id="Node000001" class="node">
<title>Node1</title>
<g id="a_Node000001"><a xlink:title="Storage of symbolic execution paths to resume.">
<polygon fill="#999999" stroke="#666666" points="2068.5,-382 1919.5,-382 1919.5,-341 2068.5,-341 2068.5,-382"/>
<text text-anchor="start" x="1927.5" y="-370" font-family="Helvetica,sans-Serif" font-size="10.00">/home/runner/work/cbmc</text>
<text text-anchor="start" x="1927.5" y="-359" font-family="Helvetica,sans-Serif" font-size="10.00">/cbmc/src/goto&#45;symex/path</text>
<text text-anchor="middle" x="1994" y="-348" font-family="Helvetica,sans-Serif" font-size="10.00">_storage.h</text>
</a>
</g>
</g>
<!-- Node2 -->
<g id="Node000002" class="node">
<title>Node2</title>
<g id="a_Node000002"><a xlink:href="jbmc__parse__options_8cpp.html" target="_top" xlink:title="JBMC Command Line Option Processing.">
<polygon fill="white" stroke="#666666" points="1230,-41 1086,-41 1086,0 1230,0 1230,-41"/>
<text text-anchor="start" x="1094" y="-29" font-family="Helvetica,sans-Serif" font-size="10.00">/home/runner/work/cbmc</text>
<text text-anchor="start" x="1094" y="-18" font-family="Helvetica,sans-Serif" font-size="10.00">/cbmc/jbmc/src/jbmc/jbmc</text>
<text text-anchor="middle" x="1158" y="-7" font-family="Helvetica,sans-Serif" font-size="10.00">_parse_options.cpp</text>
</a>
</g>
</g>
<!-- Node1&#45;&gt;Node2 -->
<g id="edge1_Node000001_Node000002" class="edge">
<title>Node1&#45;&gt;Node2</title>
<g id="a_edge1_Node000001_Node000002"><a xlink:title=" ">
<path fill="none" stroke="#63b8ff" d="M1908.91,-359.31C1815.92,-355.99 1675.66,-344.38 1642,-305 1601.57,-257.7 1632.81,-226.54 1642,-165 1644.47,-148.45 1650.53,-145.55 1653,-129 1656.41,-106.14 1668.4,-94.23 1653,-77 1639.08,-61.43 1364.1,-37.74 1230.13,-27.06"/>
<polygon fill="#63b8ff" stroke="#63b8ff" points="1909.04,-362.81 1919.16,-359.65 1909.28,-355.82 1909.04,-362.81"/>
</a>
</g>
</g>
<!-- Node3 -->
<g id="Node000003" class="node">
<title>Node3</title>
<g id="a_Node000003"><a xlink:href="cbmc__parse__options_8cpp.html" target="_top" xlink:title="CBMC Command Line Option Processing.">
<polygon fill="white" stroke="#666666" points="1056,-123.5 902,-123.5 902,-82.5 1056,-82.5 1056,-123.5"/>
<text text-anchor="start" x="910" y="-111.5" font-family="Helvetica,sans-Serif" font-size="10.00">/home/runner/work/cbmc</text>
<text text-anchor="start" x="910" y="-100.5" font-family="Helvetica,sans-Serif" font-size="10.00">/cbmc/src/cbmc/cbmc_parse</text>
<text text-anchor="middle" x="979" y="-89.5" font-family="Helvetica,sans-Serif" font-size="10.00">_options.cpp</text>
</a>
</g>
</g>
<!-- Node1&#45;&gt;Node3 -->
<g id="edge2_Node000001_Node000003" class="edge">
<title>Node1&#45;&gt;Node3</title>
<g id="a_edge2_Node000001_Node000003"><a xlink:title=" ">
<path fill="none" stroke="#63b8ff" d="M1909.19,-360.93C1744.22,-360.62 1386.53,-354.11 1275,-305 1222.62,-281.94 1217.81,-260.82 1181,-217 1163.24,-195.86 1168.64,-182.15 1147,-165 1130.7,-152.09 1085.44,-135.98 1046,-123.56"/>
<polygon fill="#63b8ff" stroke="#63b8ff" points="1909.29,-364.43 1919.29,-360.94 1909.3,-357.43 1909.29,-364.43"/>
</a>
</g>
</g>
<!-- Node4 -->
<g id="Node000004" class="node">
<title>Node4</title>
<g id="a_Node000004"><a xlink:href="multi__path__symex__only__checker_8h.html" target="_top" xlink:title="Goto Checker using Multi&#45;Path Symbolic Execution only (no SAT solving)">
<polygon fill="white" stroke="#666666" points="786,-305 648,-305 648,-253 786,-253 786,-305"/>
<text text-anchor="start" x="656" y="-293" font-family="Helvetica,sans-Serif" font-size="10.00">/home/runner/work/cbmc</text>
<text text-anchor="start" x="656" y="-282" font-family="Helvetica,sans-Serif" font-size="10.00">/cbmc/src/goto&#45;checker</text>
<text text-anchor="start" x="656" y="-271" font-family="Helvetica,sans-Serif" font-size="10.00">/multi_path_symex_only</text>
<text text-anchor="middle" x="717" y="-260" font-family="Helvetica,sans-Serif" font-size="10.00">_checker.h</text>
</a>
</g>
</g>
<!-- Node1&#45;&gt;Node4 -->
<g id="edge3_Node000001_Node000004" class="edge">
<title>Node1&#45;&gt;Node4</title>
<g id="a_edge3_Node000001_Node000004"><a xlink:title=" ">
<path fill="none" stroke="#63b8ff" d="M1909.26,-356.85C1736.33,-349.17 1330.34,-329.98 990,-305 920.58,-299.9 841.38,-292.47 786.23,-287.04"/>
<polygon fill="#63b8ff" stroke="#63b8ff" points="1909.17,-360.35 1919.32,-357.29 1909.48,-353.36 1909.17,-360.35"/>
</a>
</g>
</g>
<!-- Node13 -->
<g id="Node000013" class="node">
<title>Node13</title>
<g id="a_Node000013"><a xlink:href="single__loop__incremental__symex__checker_8h.html" target="_top" xlink:title="Goto Checker using multi&#45;path symbolic execution with incremental unwinding of a specified loop.">
<polygon fill="white" stroke="#666666" points="1138.5,-305 999.5,-305 999.5,-253 1138.5,-253 1138.5,-305"/>
<text text-anchor="start" x="1007.5" y="-293" font-family="Helvetica,sans-Serif" font-size="10.00">/home/runner/work/cbmc</text>
<text text-anchor="start" x="1007.5" y="-282" font-family="Helvetica,sans-Serif" font-size="10.00">/cbmc/src/goto&#45;checker</text>
<text text-anchor="start" x="1007.5" y="-271" font-family="Helvetica,sans-Serif" font-size="10.00">/single_loop_incremental</text>
<text text-anchor="middle" x="1069" y="-260" font-family="Helvetica,sans-Serif" font-size="10.00">_symex_checker.h</text>
</a>
</g>
</g>
<!-- Node1&#45;&gt;Node13 -->
<g id="edge16_Node000001_Node000013" class="edge">
<title>Node1&#45;&gt;Node13</title>
<g id="a_edge16_Node000001_Node000013"><a xlink:title=" ">
<path fill="none" stroke="#63b8ff" d="M1909.12,-361.13C1756.54,-360.88 1426.31,-354.05 1153,-305 1148.36,-304.17 1143.61,-303.17 1138.84,-302.06"/>
<polygon fill="#63b8ff" stroke="#63b8ff" points="1909.36,-364.63 1919.36,-361.13 1909.36,-357.63 1909.36,-364.63"/>
</a>
</g>
</g>
<!-- Node15 -->
<g id="Node000015" class="node">
<title>Node15</title>
<g id="a_Node000015"><a xlink:href="single__path__symex__only__checker_8cpp.html" target="_top" xlink:title="Goto Checker using Single Path Symbolic Execution only.">
<polygon fill="white" stroke="#666666" points="1595,-217 1455,-217 1455,-165 1595,-165 1595,-217"/>
<text text-anchor="start" x="1463" y="-205" font-family="Helvetica,sans-Serif" font-size="10.00">/home/runner/work/cbmc</text>
<text text-anchor="start" x="1463" y="-194" font-family="Helvetica,sans-Serif" font-size="10.00">/cbmc/src/goto&#45;checker</text>
<text text-anchor="start" x="1463" y="-183" font-family="Helvetica,sans-Serif" font-size="10.00">/single_path_symex_only</text>
<text text-anchor="middle" x="1525" y="-172" font-family="Helvetica,sans-Serif" font-size="10.00">_checker.cpp</text>
</a>
</g>
</g>
<!-- Node1&#45;&gt;Node15 -->
<g id="edge19_Node000001_Node000015" class="edge">
<title>Node1&#45;&gt;Node15</title>
<g id="a_edge19_Node000001_Node000015"><a xlink:title=" ">
<path fill="none" stroke="#63b8ff" d="M1909.1,-355.84C1811.44,-349.17 1658.24,-334.34 1609,-305 1574.56,-284.48 1549.77,-243.88 1536.4,-217.34"/>
<polygon fill="#63b8ff" stroke="#63b8ff" points="1909.04,-359.34 1919.25,-356.51 1909.5,-352.35 1909.04,-359.34"/>
</a>
</g>
</g>
<!-- Node16 -->
<g id="Node000016" class="node">
<title>Node16</title>
<g id="a_Node000016"><a xlink:href="single__path__symex__only__checker_8h.html" target="_top" xlink:title="Goto Checker using Single Path Symbolic Execution only.">
<polygon fill="white" stroke="#666666" points="1424,-305 1284,-305 1284,-253 1424,-253 1424,-305"/>
<text text-anchor="start" x="1292" y="-293" font-family="Helvetica,sans-Serif" font-size="10.00">/home/runner/work/cbmc</text>
<text text-anchor="start" x="1292" y="-282" font-family="Helvetica,sans-Serif" font-size="10.00">/cbmc/src/goto&#45;checker</text>
<text text-anchor="start" x="1292" y="-271" font-family="Helvetica,sans-Serif" font-size="10.00">/single_path_symex_only</text>
<text text-anchor="middle" x="1354" y="-260" font-family="Helvetica,sans-Serif" font-size="10.00">_checker.h</text>
</a>
</g>
</g>
<!-- Node1&#45;&gt;Node16 -->
<g id="edge20_Node000001_Node000016" class="edge">
<title>Node1&#45;&gt;Node16</title>
<g id="a_edge20_Node000001_Node000016"><a xlink:title=" ">
<path fill="none" stroke="#63b8ff" d="M1909.43,-350.42C1818.41,-339.51 1669.4,-321.45 1541,-305 1502.34,-300.05 1459.21,-294.3 1424.13,-289.56"/>
<polygon fill="#63b8ff" stroke="#63b8ff" points="1909.07,-353.9 1919.42,-351.62 1909.91,-346.95 1909.07,-353.9"/>
</a>
</g>
</g>
<!-- Node22 -->
<g id="Node000022" class="node">
<title>Node22</title>
<g id="a_Node000022"><a xlink:href="scratch__program_8h.html" target="_top" xlink:title="Loop Acceleration.">
<polygon fill="white" stroke="#666666" points="1815,-299.5 1651,-299.5 1651,-258.5 1815,-258.5 1815,-299.5"/>
<text text-anchor="start" x="1659" y="-287.5" font-family="Helvetica,sans-Serif" font-size="10.00">/home/runner/work/cbmc</text>
<text text-anchor="start" x="1659" y="-276.5" font-family="Helvetica,sans-Serif" font-size="10.00">/cbmc/src/goto&#45;instrument</text>
<text text-anchor="middle" x="1733" y="-265.5" font-family="Helvetica,sans-Serif" font-size="10.00">/accelerate/scratch_program.h</text>
</a>
</g>
</g>
<!-- Node1&#45;&gt;Node22 -->
<g id="edge31_Node000001_Node000022" class="edge">
<title>Node1&#45;&gt;Node22</title>
<g id="a_edge31_Node000001_Node000022"><a xlink:title=" ">
<path fill="none" stroke="#63b8ff" d="M1920.73,-337.9C1881.59,-325.83 1833.87,-311.11 1796.35,-299.54"/>
<polygon fill="#63b8ff" stroke="#63b8ff" points="1919.9,-341.31 1930.49,-340.91 1921.96,-334.62 1919.9,-341.31"/>
</a>
</g>
</g>
<!-- Node29 -->
<g id="Node000029" class="node">
<title>Node29</title>
<g id="a_Node000029"><a xlink:href="path__storage_8cpp.html" target="_top" xlink:title=" ">
<polygon fill="white" stroke="#666666" points="1982.5,-299.5 1833.5,-299.5 1833.5,-258.5 1982.5,-258.5 1982.5,-299.5"/>
<text text-anchor="start" x="1841.5" y="-287.5" font-family="Helvetica,sans-Serif" font-size="10.00">/home/runner/work/cbmc</text>
<text text-anchor="start" x="1841.5" y="-276.5" font-family="Helvetica,sans-Serif" font-size="10.00">/cbmc/src/goto&#45;symex/path</text>
<text text-anchor="middle" x="1908" y="-265.5" font-family="Helvetica,sans-Serif" font-size="10.00">_storage.cpp</text>
</a>
</g>
</g>
<!-- Node1&#45;&gt;Node29 -->
<g id="edge38_Node000001_Node000029" class="edge">
<title>Node1&#45;&gt;Node29</title>
<g id="a_edge38_Node000001_Node000029"><a xlink:title=" ">
<path fill="none" stroke="#63b8ff" d="M1965.23,-333.57C1953.38,-322.48 1939.91,-309.87 1929.01,-299.67"/>
<polygon fill="#63b8ff" stroke="#63b8ff" points="1963.05,-336.32 1972.74,-340.6 1967.83,-331.21 1963.05,-336.32"/>
</a>
</g>
</g>
<!-- Node30 -->
<g id="Node000030" class="node">
<title>Node30</title>
<g id="a_Node000030"><a xlink:href="symex__builtin__functions_8cpp.html" target="_top" xlink:title="Symbolic Execution of ANSI&#45;C.">
<polygon fill="white" stroke="#666666" points="2161.5,-299.5 2000.5,-299.5 2000.5,-258.5 2161.5,-258.5 2161.5,-299.5"/>
<text text-anchor="start" x="2008.5" y="-287.5" font-family="Helvetica,sans-Serif" font-size="10.00">/home/runner/work/cbmc</text>
<text text-anchor="start" x="2008.5" y="-276.5" font-family="Helvetica,sans-Serif" font-size="10.00">/cbmc/src/goto&#45;symex/symex</text>
<text text-anchor="middle" x="2081" y="-265.5" font-family="Helvetica,sans-Serif" font-size="10.00">_builtin_functions.cpp</text>
</a>
</g>
</g>
<!-- Node1&#45;&gt;Node30 -->
<g id="edge39_Node000001_Node000030" class="edge">
<title>Node1&#45;&gt;Node30</title>
<g id="a_edge39_Node000001_Node000030"><a xlink:title=" ">
<path fill="none" stroke="#63b8ff" d="M2023.1,-333.57C2035.09,-322.48 2048.72,-309.87 2059.74,-299.67"/>
<polygon fill="#63b8ff" stroke="#63b8ff" points="2020.47,-331.24 2015.51,-340.6 2025.22,-336.38 2020.47,-331.24"/>
</a>
</g>
</g>
<!-- Node31 -->
<g id="Node000031" class="node">
<title>Node31</title>
<g id="a_Node000031"><a xlink:href="symex__clean__expr_8cpp.html" target="_top" xlink:title="Symbolic Execution of ANSI&#45;C.">
<polygon fill="white" stroke="#666666" points="2340.5,-299.5 2179.5,-299.5 2179.5,-258.5 2340.5,-258.5 2340.5,-299.5"/>
<text text-anchor="start" x="2187.5" y="-287.5" font-family="Helvetica,sans-Serif" font-size="10.00">/home/runner/work/cbmc</text>
<text text-anchor="start" x="2187.5" y="-276.5" font-family="Helvetica,sans-Serif" font-size="10.00">/cbmc/src/goto&#45;symex/symex</text>
<text text-anchor="middle" x="2260" y="-265.5" font-family="Helvetica,sans-Serif" font-size="10.00">_clean_expr.cpp</text>
</a>
</g>
</g>
<!-- Node1&#45;&gt;Node31 -->
<g id="edge40_Node000001_Node000031" class="edge">
<title>Node1&#45;&gt;Node31</title>
<g id="a_edge40_Node000001_Node000031"><a xlink:title=" ">
<path fill="none" stroke="#63b8ff" d="M2068.42,-337.98C2108.36,-325.89 2157.11,-311.14 2195.44,-299.54"/>
<polygon fill="#63b8ff" stroke="#63b8ff" points="2067.29,-334.66 2058.73,-340.91 2069.32,-341.36 2067.29,-334.66"/>
</a>
</g>
</g>
<!-- Node32 -->
<g id="Node000032" class="node">
<title>Node32</title>
<g id="a_Node000032"><a xlink:href="symex__decl_8cpp.html" target="_top" xlink:title="Symbolic Execution.">
<polygon fill="white" stroke="#666666" points="2519.5,-299.5 2358.5,-299.5 2358.5,-258.5 2519.5,-258.5 2519.5,-299.5"/>
<text text-anchor="start" x="2366.5" y="-287.5" font-family="Helvetica,sans-Serif" font-size="10.00">/home/runner/work/cbmc</text>
<text text-anchor="start" x="2366.5" y="-276.5" font-family="Helvetica,sans-Serif" font-size="10.00">/cbmc/src/goto&#45;symex/symex</text>
<text text-anchor="middle" x="2439" y="-265.5" font-family="Helvetica,sans-Serif" font-size="10.00">_decl.cpp</text>
</a>
</g>
</g>
<!-- Node1&#45;&gt;Node32 -->
<g id="edge41_Node000001_Node000032" class="edge">
<title>Node1&#45;&gt;Node32</title>
<g id="a_edge41_Node000001_Node000032"><a xlink:title=" ">
<path fill="none" stroke="#63b8ff" d="M2078.79,-350.18C2151.25,-340.66 2258.06,-325.01 2350,-305 2357.37,-303.4 2365.03,-301.54 2372.64,-299.57"/>
<polygon fill="#63b8ff" stroke="#63b8ff" points="2078.26,-346.71 2068.8,-351.48 2079.17,-353.66 2078.26,-346.71"/>
</a>
</g>
</g>
<!-- Node33 -->
<g id="Node000033" class="node">
<title>Node33</title>
<g id="a_Node000033"><a xlink:href="symex__dereference_8cpp.html" target="_top" xlink:title="Symbolic Execution of ANSI&#45;C.">
<polygon fill="white" stroke="#666666" points="2698.5,-299.5 2537.5,-299.5 2537.5,-258.5 2698.5,-258.5 2698.5,-299.5"/>
<text text-anchor="start" x="2545.5" y="-287.5" font-family="Helvetica,sans-Serif" font-size="10.00">/home/runner/work/cbmc</text>
<text text-anchor="start" x="2545.5" y="-276.5" font-family="Helvetica,sans-Serif" font-size="10.00">/cbmc/src/goto&#45;symex/symex</text>
<text text-anchor="middle" x="2618" y="-265.5" font-family="Helvetica,sans-Serif" font-size="10.00">_dereference.cpp</text>
</a>
</g>
</g>
<!-- Node1&#45;&gt;Node33 -->
<g id="edge42_Node000001_Node000033" class="edge">
<title>Node1&#45;&gt;Node33</title>
<g id="a_edge42_Node000001_Node000033"><a xlink:title=" ">
<path fill="none" stroke="#63b8ff" d="M2078.58,-356.19C2184.59,-349.77 2371.5,-335.06 2529,-305 2536.88,-303.5 2545.08,-301.62 2553.17,-299.59"/>
<polygon fill="#63b8ff" stroke="#63b8ff" points="2078.35,-352.7 2068.58,-356.79 2078.77,-359.68 2078.35,-352.7"/>
</a>
</g>
</g>
<!-- Node34 -->
<g id="Node000034" class="node">
<title>Node34</title>
<g id="a_Node000034"><a xlink:href="symex__function__call_8cpp.html" target="_top" xlink:title="Symbolic Execution of ANSI&#45;C.">
<polygon fill="white" stroke="#666666" points="2877.5,-299.5 2716.5,-299.5 2716.5,-258.5 2877.5,-258.5 2877.5,-299.5"/>
<text text-anchor="start" x="2724.5" y="-287.5" font-family="Helvetica,sans-Serif" font-size="10.00">/home/runner/work/cbmc</text>
<text text-anchor="start" x="2724.5" y="-276.5" font-family="Helvetica,sans-Serif" font-size="10.00">/cbmc/src/goto&#45;symex/symex</text>
<text text-anchor="middle" x="2797" y="-265.5" font-family="Helvetica,sans-Serif" font-size="10.00">_function_call.cpp</text>
</a>
</g>
</g>
<!-- Node1&#45;&gt;Node34 -->
<g id="edge43_Node000001_Node000034" class="edge">
<title>Node1&#45;&gt;Node34</title>
<g id="a_edge43_Node000001_Node000034"><a xlink:title=" ">
<path fill="none" stroke="#63b8ff" d="M2078.84,-359.27C2213.28,-356.13 2483.1,-344.93 2708,-305 2716.22,-303.54 2724.77,-301.64 2733.18,-299.55"/>
<polygon fill="#63b8ff" stroke="#63b8ff" points="2078.53,-355.78 2068.61,-359.5 2078.69,-362.78 2078.53,-355.78"/>
</a>
</g>
</g>
<!-- Node35 -->
<g id="Node000035" class="node">
<title>Node35</title>
<g id="a_Node000035"><a xlink:href="symex__goto_8cpp.html" target="_top" xlink:title="Symbolic Execution.">
<polygon fill="white" stroke="#666666" points="3056.5,-299.5 2895.5,-299.5 2895.5,-258.5 3056.5,-258.5 3056.5,-299.5"/>
<text text-anchor="start" x="2903.5" y="-287.5" font-family="Helvetica,sans-Serif" font-size="10.00">/home/runner/work/cbmc</text>
<text text-anchor="start" x="2903.5" y="-276.5" font-family="Helvetica,sans-Serif" font-size="10.00">/cbmc/src/goto&#45;symex/symex</text>
<text text-anchor="middle" x="2976" y="-265.5" font-family="Helvetica,sans-Serif" font-size="10.00">_goto.cpp</text>
</a>
</g>
</g>
<!-- Node1&#45;&gt;Node35 -->
<g id="edge44_Node000001_Node000035" class="edge">
<title>Node1&#45;&gt;Node35</title>
<g id="a_edge44_Node000001_Node000035"><a xlink:title=" ">
<path fill="none" stroke="#63b8ff" d="M2078.92,-361.18C2238.45,-361.13 2593.28,-354.8 2887,-305 2895.39,-303.58 2904.12,-301.67 2912.68,-299.55"/>
<polygon fill="#63b8ff" stroke="#63b8ff" points="2078.7,-357.68 2068.7,-361.17 2078.7,-364.68 2078.7,-357.68"/>
</a>
</g>
</g>
<!-- Node36 -->
<g id="Node000036" class="node">
<title>Node36</title>
<g id="a_Node000036"><a xlink:href="symex__main_8cpp.html" target="_top" xlink:title="Symbolic Execution.">
<polygon fill="white" stroke="#666666" points="3235.5,-299.5 3074.5,-299.5 3074.5,-258.5 3235.5,-258.5 3235.5,-299.5"/>
<text text-anchor="start" x="3082.5" y="-287.5" font-family="Helvetica,sans-Serif" font-size="10.00">/home/runner/work/cbmc</text>
<text text-anchor="start" x="3082.5" y="-276.5" font-family="Helvetica,sans-Serif" font-size="10.00">/cbmc/src/goto&#45;symex/symex</text>
<text text-anchor="middle" x="3155" y="-265.5" font-family="Helvetica,sans-Serif" font-size="10.00">_main.cpp</text>
</a>
</g>
</g>
<!-- Node1&#45;&gt;Node36 -->
<g id="edge45_Node000001_Node000036" class="edge">
<title>Node1&#45;&gt;Node36</title>
<g id="a_edge45_Node000001_Node000036"><a xlink:title=" ">
<path fill="none" stroke="#63b8ff" d="M2078.7,-358.54C2297.29,-353.11 2876.49,-336.12 3066,-305 3074.55,-303.6 3083.46,-301.67 3092.18,-299.51"/>
<polygon fill="#63b8ff" stroke="#63b8ff" points="2078.48,-355.05 2068.57,-358.79 2078.65,-362.05 2078.48,-355.05"/>
</a>
</g>
</g>
<!-- Node37 -->
<g id="Node000037" class="node">
<title>Node37</title>
<g id="a_Node000037"><a xlink:href="symex__start__thread_8cpp.html" target="_top" xlink:title="Symbolic Execution.">
<polygon fill="white" stroke="#666666" points="3414.5,-299.5 3253.5,-299.5 3253.5,-258.5 3414.5,-258.5 3414.5,-299.5"/>
<text text-anchor="start" x="3261.5" y="-287.5" font-family="Helvetica,sans-Serif" font-size="10.00">/home/runner/work/cbmc</text>
<text text-anchor="start" x="3261.5" y="-276.5" font-family="Helvetica,sans-Serif" font-size="10.00">/cbmc/src/goto&#45;symex/symex</text>
<text text-anchor="middle" x="3334" y="-265.5" font-family="Helvetica,sans-Serif" font-size="10.00">_start_thread.cpp</text>
</a>
</g>
</g>
<!-- Node1&#45;&gt;Node37 -->
<g id="edge46_Node000001_Node000037" class="edge">
<title>Node1&#45;&gt;Node37</title>
<g id="a_edge46_Node000001_Node000037"><a xlink:title=" ">
<path fill="none" stroke="#63b8ff" d="M2078.88,-359.27C2322.29,-355.34 3019.63,-341.16 3245,-305 3253.56,-303.63 3262.46,-301.72 3271.19,-299.57"/>
<polygon fill="#63b8ff" stroke="#63b8ff" points="2078.62,-355.77 2068.68,-359.43 2078.73,-362.77 2078.62,-355.77"/>
</a>
</g>
</g>
<!-- Node4&#45;&gt;Node3 -->
<g id="edge6_Node000004_Node000003" class="edge">
<title>Node4&#45;&gt;Node3</title>
<g id="a_edge6_Node000004_Node000003"><a xlink:title=" ">
<path fill="none" stroke="#63b8ff" d="M763.47,-247.14C817.19,-211.46 904.01,-153.81 949.32,-123.71"/>
<polygon fill="#63b8ff" stroke="#63b8ff" points="761.21,-244.44 754.82,-252.88 765.08,-250.27 761.21,-244.44"/>
</a>
</g>
</g>
<!-- Node5 -->
<g id="Node000005" class="node">
<title>Node5</title>
<g id="a_Node000005"><a xlink:href="java__multi__path__symex__only__checker_8h.html" target="_top" xlink:title="Goto Checker using Bounded Model Checking for Java.">
<polygon fill="white" stroke="#666666" points="164,-129 0,-129 0,-77 164,-77 164,-129"/>
<text text-anchor="start" x="8" y="-117" font-family="Helvetica,sans-Serif" font-size="10.00">/home/runner/work/cbmc</text>
<text text-anchor="start" x="8" y="-106" font-family="Helvetica,sans-Serif" font-size="10.00">/cbmc/jbmc/src/java_bytecode</text>
<text text-anchor="start" x="8" y="-95" font-family="Helvetica,sans-Serif" font-size="10.00">/java_multi_path_symex_only</text>
<text text-anchor="middle" x="82" y="-84" font-family="Helvetica,sans-Serif" font-size="10.00">_checker.h</text>
</a>
</g>
</g>
<!-- Node4&#45;&gt;Node5 -->
<g id="edge4_Node000004_Node000005" class="edge">
<title>Node4&#45;&gt;Node5</title>
<g id="a_edge4_Node000004_Node000005"><a xlink:title=" ">
<path fill="none" stroke="#63b8ff" d="M665.01,-247.2C651.91,-238.28 638.36,-227.97 627,-217 606.4,-197.12 613.94,-179.05 589,-165 508.16,-119.46 264.34,-145.36 173,-129 170.1,-128.48 167.15,-127.91 164.19,-127.3"/>
<polygon fill="#63b8ff" stroke="#63b8ff" points="663.25,-250.24 673.52,-252.85 667.12,-244.4 663.25,-250.24"/>
</a>
</g>
</g>
<!-- Node6 -->
<g id="Node000006" class="node">
<title>Node6</title>
<g id="a_Node000006"><a xlink:href="multi__path__symex__checker_8h.html" target="_top" xlink:title="Goto Checker using Multi&#45;Path Symbolic Execution.">
<polygon fill="white" stroke="#666666" points="797.5,-211.5 636.5,-211.5 636.5,-170.5 797.5,-170.5 797.5,-211.5"/>
<text text-anchor="start" x="644.5" y="-199.5" font-family="Helvetica,sans-Serif" font-size="10.00">/home/runner/work/cbmc</text>
<text text-anchor="start" x="644.5" y="-188.5" font-family="Helvetica,sans-Serif" font-size="10.00">/cbmc/src/goto&#45;checker</text>
<text text-anchor="middle" x="717" y="-177.5" font-family="Helvetica,sans-Serif" font-size="10.00">/multi_path_symex_checker.h</text>
</a>
</g>
</g>
<!-- Node4&#45;&gt;Node6 -->
<g id="edge7_Node000004_Node000006" class="edge">
<title>Node4&#45;&gt;Node6</title>
<g id="a_edge7_Node000004_Node000006"><a xlink:title=" ">
<path fill="none" stroke="#63b8ff" d="M717,-242.45C717,-231.94 717,-220.82 717,-211.7"/>
<polygon fill="#63b8ff" stroke="#63b8ff" points="713.5,-242.66 717,-252.66 720.5,-242.66 713.5,-242.66"/>
</a>
</g>
</g>
<!-- Node12 -->
<g id="Node000012" class="node">
<title>Node12</title>
<g id="a_Node000012"><a xlink:href="multi__path__symex__only__checker_8cpp.html" target="_top" xlink:title="Goto Checker using Multi&#45;Path Symbolic Execution only (no SAT solving)">
<polygon fill="white" stroke="#666666" points="580,-217 442,-217 442,-165 580,-165 580,-217"/>
<text text-anchor="start" x="450" y="-205" font-family="Helvetica,sans-Serif" font-size="10.00">/home/runner/work/cbmc</text>
<text text-anchor="start" x="450" y="-194" font-family="Helvetica,sans-Serif" font-size="10.00">/cbmc/src/goto&#45;checker</text>
<text text-anchor="start" x="450" y="-183" font-family="Helvetica,sans-Serif" font-size="10.00">/multi_path_symex_only</text>
<text text-anchor="middle" x="511" y="-172" font-family="Helvetica,sans-Serif" font-size="10.00">_checker.cpp</text>
</a>
</g>
</g>
<!-- Node4&#45;&gt;Node12 -->
<g id="edge15_Node000004_Node000012" class="edge">
<title>Node4&#45;&gt;Node12</title>
<g id="a_edge15_Node000004_Node000012"><a xlink:title=" ">
<path fill="none" stroke="#63b8ff" d="M647.53,-249C622.78,-238.66 595.12,-227.12 571.21,-217.14"/>
<polygon fill="#63b8ff" stroke="#63b8ff" points="646.29,-252.27 656.86,-252.89 648.98,-245.81 646.29,-252.27"/>
</a>
</g>
</g>
<!-- Node5&#45;&gt;Node2 -->
<g id="edge5_Node000005_Node000002" class="edge">
<title>Node5&#45;&gt;Node2</title>
<g id="a_edge5_Node000005_Node000002"><a xlink:title=" ">
<path fill="none" stroke="#63b8ff" d="M174.08,-77.14C297.64,-60.77 879.71,-33.89 1085.66,-24.69"/>
<polygon fill="#63b8ff" stroke="#63b8ff" points="173.55,-73.68 164.17,-78.59 174.57,-80.6 173.55,-73.68"/>
</a>
</g>
</g>
<!-- Node6&#45;&gt;Node3 -->
<g id="edge11_Node000006_Node000003" class="edge">
<title>Node6&#45;&gt;Node3</title>
<g id="a_edge11_Node000006_Node000003"><a xlink:title=" ">
<path fill="none" stroke="#63b8ff" d="M786.2,-167.29C827.61,-153.69 879.73,-136.59 919.33,-123.59"/>
<polygon fill="#63b8ff" stroke="#63b8ff" points="784.86,-164.04 776.45,-170.49 787.04,-170.69 784.86,-164.04"/>
</a>
</g>
</g>
<!-- Node7 -->
<g id="Node000007" class="node">
<title>Node7</title>
<g id="a_Node000007"><a xlink:href="java__multi__path__symex__checker_8h.html" target="_top" xlink:title="Goto Checker using Bounded Model Checking for Java.">
<polygon fill="white" stroke="#666666" points="718,-123.5 530,-123.5 530,-82.5 718,-82.5 718,-123.5"/>
<text text-anchor="start" x="538" y="-111.5" font-family="Helvetica,sans-Serif" font-size="10.00">/home/runner/work/cbmc</text>
<text text-anchor="start" x="538" y="-100.5" font-family="Helvetica,sans-Serif" font-size="10.00">/cbmc/jbmc/src/java_bytecode</text>
<text text-anchor="middle" x="624" y="-89.5" font-family="Helvetica,sans-Serif" font-size="10.00">/java_multi_path_symex_checker.h</text>
</a>
</g>
</g>
<!-- Node6&#45;&gt;Node7 -->
<g id="edge8_Node000006_Node000007" class="edge">
<title>Node6&#45;&gt;Node7</title>
<g id="a_edge8_Node000006_Node000007"><a xlink:title=" ">
<path fill="none" stroke="#63b8ff" d="M688.47,-163.62C674.57,-150.77 658.14,-135.57 645.34,-123.74"/>
<polygon fill="#63b8ff" stroke="#63b8ff" points="686.18,-166.27 695.9,-170.49 690.93,-161.13 686.18,-166.27"/>
</a>
</g>
</g>
<!-- Node9 -->
<g id="Node000009" class="node">
<title>Node9</title>
<g id="a_Node000009"><a xlink:href="multi__path__symex__checker_8cpp.html" target="_top" xlink:title="Goto Checker using Bounded Model Checking.">
<polygon fill="white" stroke="#666666" points="511.5,-123.5 338.5,-123.5 338.5,-82.5 511.5,-82.5 511.5,-123.5"/>
<text text-anchor="start" x="346.5" y="-111.5" font-family="Helvetica,sans-Serif" font-size="10.00">/home/runner/work/cbmc</text>
<text text-anchor="start" x="346.5" y="-100.5" font-family="Helvetica,sans-Serif" font-size="10.00">/cbmc/src/goto&#45;checker</text>
<text text-anchor="middle" x="425" y="-89.5" font-family="Helvetica,sans-Serif" font-size="10.00">/multi_path_symex_checker.cpp</text>
</a>
</g>
</g>
<!-- Node6&#45;&gt;Node9 -->
<g id="edge12_Node000006_Node000009" class="edge">
<title>Node6&#45;&gt;Node9</title>
<g id="a_edge12_Node000006_Node000009"><a xlink:title=" ">
<path fill="none" stroke="#63b8ff" d="M641.03,-167.63C594.6,-153.95 535.78,-136.63 491.25,-123.51"/>
<polygon fill="#63b8ff" stroke="#63b8ff" points="640.16,-171.02 650.74,-170.49 642.14,-164.3 640.16,-171.02"/>
</a>
</g>
</g>
<!-- Node10 -->
<g id="Node000010" class="node">
<title>Node10</title>
<g id="a_Node000010"><a xlink:href="cegis__verifier_8cpp.html" target="_top" xlink:title="Verifier for Counterexample&#45;Guided Synthesis.">
<polygon fill="white" stroke="#666666" points="884,-123.5 736,-123.5 736,-82.5 884,-82.5 884,-123.5"/>
<text text-anchor="start" x="744" y="-111.5" font-family="Helvetica,sans-Serif" font-size="10.00">/home/runner/work/cbmc</text>
<text text-anchor="start" x="744" y="-100.5" font-family="Helvetica,sans-Serif" font-size="10.00">/cbmc/src/goto&#45;synthesizer</text>
<text text-anchor="middle" x="810" y="-89.5" font-family="Helvetica,sans-Serif" font-size="10.00">/cegis_verifier.cpp</text>
</a>
</g>
</g>
<!-- Node6&#45;&gt;Node10 -->
<g id="edge13_Node000006_Node000010" class="edge">
<title>Node6&#45;&gt;Node10</title>
<g id="a_edge13_Node000006_Node000010"><a xlink:title=" ">
<path fill="none" stroke="#63b8ff" d="M745.53,-163.62C759.43,-150.77 775.86,-135.57 788.66,-123.74"/>
<polygon fill="#63b8ff" stroke="#63b8ff" points="743.07,-161.13 738.1,-170.49 747.82,-166.27 743.07,-161.13"/>
</a>
</g>
</g>
<!-- Node11 -->
<g id="Node000011" class="node">
<title>Node11</title>
<g id="a_Node000011"><a xlink:href="api_8cpp.html" target="_top" xlink:title=" ">
<polygon fill="white" stroke="#666666" points="320,-123.5 182,-123.5 182,-82.5 320,-82.5 320,-123.5"/>
<text text-anchor="start" x="190" y="-111.5" font-family="Helvetica,sans-Serif" font-size="10.00">/home/runner/work/cbmc</text>
<text text-anchor="start" x="190" y="-100.5" font-family="Helvetica,sans-Serif" font-size="10.00">/cbmc/src/libcprover&#45;cpp</text>
<text text-anchor="middle" x="251" y="-89.5" font-family="Helvetica,sans-Serif" font-size="10.00">/api.cpp</text>
</a>
</g>
</g>
<!-- Node6&#45;&gt;Node11 -->
<g id="edge14_Node000006_Node000011" class="edge">
<title>Node6&#45;&gt;Node11</title>
<g id="a_edge14_Node000006_Node000011"><a xlink:title=" ">
<path fill="none" stroke="#63b8ff" d="M637.28,-168.19C632.13,-167.04 627,-165.96 622,-165 493.15,-140.25 457.15,-157.15 329,-129 322.06,-127.47 314.85,-125.59 307.75,-123.55"/>
<polygon fill="#63b8ff" stroke="#63b8ff" points="636.67,-171.64 647.21,-170.49 638.25,-164.82 636.67,-171.64"/>
</a>
</g>
</g>
<!-- Node7&#45;&gt;Node2 -->
<g id="edge10_Node000007_Node000002" class="edge">
<title>Node7&#45;&gt;Node2</title>
<g id="a_edge10_Node000007_Node000002"><a xlink:title=" ">
<path fill="none" stroke="#63b8ff" d="M710.4,-80.3C716,-79.12 721.57,-78.01 727,-77 852.37,-53.79 1000.04,-37.03 1085.94,-28.33"/>
<polygon fill="#63b8ff" stroke="#63b8ff" points="709.32,-76.95 700.29,-82.49 710.81,-83.79 709.32,-76.95"/>
</a>
</g>
</g>
<!-- Node8 -->
<g id="Node000008" class="node">
<title>Node8</title>
<g id="a_Node000008"><a xlink:href="java__multi__path__symex__checker_8cpp.html" target="_top" xlink:title=" ">
<polygon fill="white" stroke="#666666" points="723.5,-41 524.5,-41 524.5,0 723.5,0 723.5,-41"/>
<text text-anchor="start" x="532.5" y="-29" font-family="Helvetica,sans-Serif" font-size="10.00">/home/runner/work/cbmc</text>
<text text-anchor="start" x="532.5" y="-18" font-family="Helvetica,sans-Serif" font-size="10.00">/cbmc/jbmc/src/java_bytecode</text>
<text text-anchor="middle" x="624" y="-7" font-family="Helvetica,sans-Serif" font-size="10.00">/java_multi_path_symex_checker.cpp</text>
</a>
</g>
</g>
<!-- Node7&#45;&gt;Node8 -->
<g id="edge9_Node000007_Node000008" class="edge">
<title>Node7&#45;&gt;Node8</title>
<g id="a_edge9_Node000007_Node000008"><a xlink:title=" ">
<path fill="none" stroke="#63b8ff" d="M624,-71.87C624,-61.6 624,-50.4 624,-41.17"/>
<polygon fill="#63b8ff" stroke="#63b8ff" points="620.5,-72.1 624,-82.1 627.5,-72.1 620.5,-72.1"/>
</a>
</g>
</g>
<!-- Node13&#45;&gt;Node3 -->
<g id="edge17_Node000013_Node000003" class="edge">
<title>Node13&#45;&gt;Node3</title>
<g id="a_edge17_Node000013_Node000003"><a xlink:title=" ">
<path fill="none" stroke="#63b8ff" d="M1015.47,-246.42C1005.47,-238.1 996.22,-228.25 990,-217 973.78,-187.68 974.25,-147.47 976.4,-123.76"/>
<polygon fill="#63b8ff" stroke="#63b8ff" points="1013.56,-249.37 1023.6,-252.76 1017.87,-243.85 1013.56,-249.37"/>
</a>
</g>
</g>
<!-- Node14 -->
<g id="Node000014" class="node">
<title>Node14</title>
<g id="a_Node000014"><a xlink:href="single__loop__incremental__symex__checker_8cpp.html" target="_top" xlink:title="Goto Checker using multi&#45;path symbolic execution with incremental unwinding of a specified loop.">
<polygon fill="white" stroke="#666666" points="1138.5,-217 999.5,-217 999.5,-165 1138.5,-165 1138.5,-217"/>
<text text-anchor="start" x="1007.5" y="-205" font-family="Helvetica,sans-Serif" font-size="10.00">/home/runner/work/cbmc</text>
<text text-anchor="start" x="1007.5" y="-194" font-family="Helvetica,sans-Serif" font-size="10.00">/cbmc/src/goto&#45;checker</text>
<text text-anchor="start" x="1007.5" y="-183" font-family="Helvetica,sans-Serif" font-size="10.00">/single_loop_incremental</text>
<text text-anchor="middle" x="1069" y="-172" font-family="Helvetica,sans-Serif" font-size="10.00">_symex_checker.cpp</text>
</a>
</g>
</g>
<!-- Node13&#45;&gt;Node14 -->
<g id="edge18_Node000013_Node000014" class="edge">
<title>Node13&#45;&gt;Node14</title>
<g id="a_edge18_Node000013_Node000014"><a xlink:title=" ">
<path fill="none" stroke="#63b8ff" d="M1069,-242.56C1069,-234.04 1069,-225.1 1069,-217.16"/>
<polygon fill="#63b8ff" stroke="#63b8ff" points="1065.5,-242.66 1069,-252.66 1072.5,-242.66 1065.5,-242.66"/>
</a>
</g>
</g>
<!-- Node16&#45;&gt;Node3 -->
<g id="edge23_Node000016_Node000003" class="edge">
<title>Node16&#45;&gt;Node3</title>
<g id="a_edge23_Node000016_Node000003"><a xlink:title=" ">
<path fill="none" stroke="#63b8ff" d="M1274.68,-250.34C1255.32,-241.45 1235.46,-230.37 1219,-217 1196.78,-198.96 1204.35,-181.55 1181,-165 1178.08,-162.93 1103.24,-140.59 1045.5,-123.54"/>
<polygon fill="#63b8ff" stroke="#63b8ff" points="1273.27,-253.54 1283.83,-254.39 1276.11,-247.14 1273.27,-253.54"/>
</a>
</g>
</g>
<!-- Node16&#45;&gt;Node15 -->
<g id="edge30_Node000016_Node000015" class="edge">
<title>Node16&#45;&gt;Node15</title>
<g id="a_edge30_Node000016_Node000015"><a xlink:title=" ">
<path fill="none" stroke="#63b8ff" d="M1413.03,-248.31C1433.22,-238.16 1455.61,-226.9 1475.02,-217.14"/>
<polygon fill="#63b8ff" stroke="#63b8ff" points="1411.28,-245.27 1403.92,-252.89 1414.43,-251.53 1411.28,-245.27"/>
</a>
</g>
</g>
<!-- Node17 -->
<g id="Node000017" class="node">
<title>Node17</title>
<g id="a_Node000017"><a xlink:href="java__single__path__symex__only__checker_8h.html" target="_top" xlink:title="Goto Checker using Single Path Symbolic Execution for Java.">
<polygon fill="white" stroke="#666666" points="1241.5,-129 1074.5,-129 1074.5,-77 1241.5,-77 1241.5,-129"/>
<text text-anchor="start" x="1082.5" y="-117" font-family="Helvetica,sans-Serif" font-size="10.00">/home/runner/work/cbmc</text>
<text text-anchor="start" x="1082.5" y="-106" font-family="Helvetica,sans-Serif" font-size="10.00">/cbmc/jbmc/src/java_bytecode</text>
<text text-anchor="start" x="1082.5" y="-95" font-family="Helvetica,sans-Serif" font-size="10.00">/java_single_path_symex_only</text>
<text text-anchor="middle" x="1158" y="-84" font-family="Helvetica,sans-Serif" font-size="10.00">_checker.h</text>
</a>
</g>
</g>
<!-- Node16&#45;&gt;Node17 -->
<g id="edge21_Node000016_Node000017" class="edge">
<title>Node16&#45;&gt;Node17</title>
<g id="a_edge21_Node000016_Node000017"><a xlink:title=" ">
<path fill="none" stroke="#63b8ff" d="M1301.66,-247.13C1288.15,-238.16 1274.04,-227.83 1262,-217 1239.71,-196.94 1239.18,-187.18 1219,-165 1207.91,-152.81 1195.09,-139.84 1184.07,-129"/>
<polygon fill="#63b8ff" stroke="#63b8ff" points="1300.13,-250.31 1310.42,-252.83 1303.94,-244.44 1300.13,-250.31"/>
</a>
</g>
</g>
<!-- Node18 -->
<g id="Node000018" class="node">
<title>Node18</title>
<g id="a_Node000018"><a xlink:href="single__path__symex__checker_8h.html" target="_top" xlink:title="Goto Checker using Single Path Symbolic Execution.">
<polygon fill="white" stroke="#666666" points="1436.5,-211.5 1271.5,-211.5 1271.5,-170.5 1436.5,-170.5 1436.5,-211.5"/>
<text text-anchor="start" x="1279.5" y="-199.5" font-family="Helvetica,sans-Serif" font-size="10.00">/home/runner/work/cbmc</text>
<text text-anchor="start" x="1279.5" y="-188.5" font-family="Helvetica,sans-Serif" font-size="10.00">/cbmc/src/goto&#45;checker</text>
<text text-anchor="middle" x="1354" y="-177.5" font-family="Helvetica,sans-Serif" font-size="10.00">/single_path_symex_checker.h</text>
</a>
</g>
</g>
<!-- Node16&#45;&gt;Node18 -->
<g id="edge24_Node000016_Node000018" class="edge">
<title>Node16&#45;&gt;Node18</title>
<g id="a_edge24_Node000016_Node000018"><a xlink:title=" ">
<path fill="none" stroke="#63b8ff" d="M1354,-242.45C1354,-231.94 1354,-220.82 1354,-211.7"/>
<polygon fill="#63b8ff" stroke="#63b8ff" points="1350.5,-242.66 1354,-252.66 1357.5,-242.66 1350.5,-242.66"/>
</a>
</g>
</g>
<!-- Node17&#45;&gt;Node2 -->
<g id="edge22_Node000017_Node000002" class="edge">
<title>Node17&#45;&gt;Node2</title>
<g id="a_edge22_Node000017_Node000002"><a xlink:title=" ">
<path fill="none" stroke="#63b8ff" d="M1158,-66.87C1158,-58.05 1158,-48.9 1158,-41.15"/>
<polygon fill="#63b8ff" stroke="#63b8ff" points="1154.5,-66.97 1158,-76.97 1161.5,-66.97 1154.5,-66.97"/>
</a>
</g>
</g>
<!-- Node18&#45;&gt;Node3 -->
<g id="edge28_Node000018_Node000003" class="edge">
<title>Node18&#45;&gt;Node3</title>
<g id="a_edge28_Node000018_Node000003"><a xlink:title=" ">
<path fill="none" stroke="#63b8ff" d="M1261.35,-172.28C1204.45,-160.94 1130.23,-145.34 1065,-129 1058.36,-127.34 1051.47,-125.51 1044.6,-123.62"/>
<polygon fill="#63b8ff" stroke="#63b8ff" points="1260.92,-175.76 1271.41,-174.28 1262.28,-168.9 1260.92,-175.76"/>
</a>
</g>
</g>
<!-- Node19 -->
<g id="Node000019" class="node">
<title>Node19</title>
<g id="a_Node000019"><a xlink:href="java__single__path__symex__checker_8h.html" target="_top" xlink:title="Goto Checker using Single Path Symbolic Execution for Java.">
<polygon fill="white" stroke="#666666" points="1644.5,-123.5 1453.5,-123.5 1453.5,-82.5 1644.5,-82.5 1644.5,-123.5"/>
<text text-anchor="start" x="1461.5" y="-111.5" font-family="Helvetica,sans-Serif" font-size="10.00">/home/runner/work/cbmc</text>
<text text-anchor="start" x="1461.5" y="-100.5" font-family="Helvetica,sans-Serif" font-size="10.00">/cbmc/jbmc/src/java_bytecode</text>
<text text-anchor="middle" x="1549" y="-89.5" font-family="Helvetica,sans-Serif" font-size="10.00">/java_single_path_symex_checker.h</text>
</a>
</g>
</g>
<!-- Node18&#45;&gt;Node19 -->
<g id="edge25_Node000018_Node000019" class="edge">
<title>Node18&#45;&gt;Node19</title>
<g id="a_edge25_Node000018_Node000019"><a xlink:title=" ">
<path fill="none" stroke="#63b8ff" d="M1407.46,-166.42C1437.96,-152.97 1475.74,-136.31 1504.59,-123.59"/>
<polygon fill="#63b8ff" stroke="#63b8ff" points="1405.99,-163.25 1398.25,-170.49 1408.81,-169.65 1405.99,-163.25"/>
</a>
</g>
</g>
<!-- Node21 -->
<g id="Node000021" class="node">
<title>Node21</title>
<g id="a_Node000021"><a xlink:href="single__path__symex__checker_8cpp.html" target="_top" xlink:title="Goto Checker using Single Path Symbolic Execution.">
<polygon fill="white" stroke="#666666" points="1435,-123.5 1259,-123.5 1259,-82.5 1435,-82.5 1435,-123.5"/>
<text text-anchor="start" x="1267" y="-111.5" font-family="Helvetica,sans-Serif" font-size="10.00">/home/runner/work/cbmc</text>
<text text-anchor="start" x="1267" y="-100.5" font-family="Helvetica,sans-Serif" font-size="10.00">/cbmc/src/goto&#45;checker</text>
<text text-anchor="middle" x="1347" y="-89.5" font-family="Helvetica,sans-Serif" font-size="10.00">/single_path_symex_checker.cpp</text>
</a>
</g>
</g>
<!-- Node18&#45;&gt;Node21 -->
<g id="edge29_Node000018_Node000021" class="edge">
<title>Node18&#45;&gt;Node21</title>
<g id="a_edge29_Node000018_Node000021"><a xlink:title=" ">
<path fill="none" stroke="#63b8ff" d="M1351.59,-160.36C1350.6,-148.26 1349.49,-134.58 1348.61,-123.74"/>
<polygon fill="#63b8ff" stroke="#63b8ff" points="1348.11,-160.8 1352.41,-170.49 1355.09,-160.23 1348.11,-160.8"/>
</a>
</g>
</g>
<!-- Node19&#45;&gt;Node2 -->
<g id="edge27_Node000019_Node000002" class="edge">
<title>Node19&#45;&gt;Node2</title>
<g id="a_edge27_Node000019_Node000002"><a xlink:title=" ">
<path fill="none" stroke="#63b8ff" d="M1458.46,-80.19C1453.58,-79.09 1448.73,-78.02 1444,-77 1371.45,-61.33 1288.09,-45.39 1230.16,-34.63"/>
<polygon fill="#63b8ff" stroke="#63b8ff" points="1458.01,-83.68 1468.53,-82.48 1459.56,-76.85 1458.01,-83.68"/>
</a>
</g>
</g>
<!-- Node20 -->
<g id="Node000020" class="node">
<title>Node20</title>
<g id="a_Node000020"><a xlink:href="java__single__path__symex__checker_8cpp.html" target="_top" xlink:title=" ">
<polygon fill="white" stroke="#666666" points="1650.5,-41 1447.5,-41 1447.5,0 1650.5,0 1650.5,-41"/>
<text text-anchor="start" x="1455.5" y="-29" font-family="Helvetica,sans-Serif" font-size="10.00">/home/runner/work/cbmc</text>
<text text-anchor="start" x="1455.5" y="-18" font-family="Helvetica,sans-Serif" font-size="10.00">/cbmc/jbmc/src/java_bytecode</text>
<text text-anchor="middle" x="1549" y="-7" font-family="Helvetica,sans-Serif" font-size="10.00">/java_single_path_symex_checker.cpp</text>
</a>
</g>
</g>
<!-- Node19&#45;&gt;Node20 -->
<g id="edge26_Node000019_Node000020" class="edge">
<title>Node19&#45;&gt;Node20</title>
<g id="a_edge26_Node000019_Node000020"><a xlink:title=" ">
<path fill="none" stroke="#63b8ff" d="M1549,-71.87C1549,-61.6 1549,-50.4 1549,-41.17"/>
<polygon fill="#63b8ff" stroke="#63b8ff" points="1545.5,-72.1 1549,-82.1 1552.5,-72.1 1545.5,-72.1"/>
</a>
</g>
</g>
<!-- Node23 -->
<g id="Node000023" class="node">
<title>Node23</title>
<g id="a_Node000023"><a xlink:href="accelerate_8cpp.html" target="_top" xlink:title="Loop Acceleration.">
<polygon fill="white" stroke="#666666" points="1796.5,-211.5 1651.5,-211.5 1651.5,-170.5 1796.5,-170.5 1796.5,-211.5"/>
<text text-anchor="start" x="1659.5" y="-199.5" font-family="Helvetica,sans-Serif" font-size="10.00">/home/runner/work/cbmc</text>
<text text-anchor="start" x="1659.5" y="-188.5" font-family="Helvetica,sans-Serif" font-size="10.00">/cbmc/src/goto&#45;instrument</text>
<text text-anchor="middle" x="1724" y="-177.5" font-family="Helvetica,sans-Serif" font-size="10.00">/accelerate/accelerate.cpp</text>
</a>
</g>
</g>
<!-- Node22&#45;&gt;Node23 -->
<g id="edge32_Node000022_Node000023" class="edge">
<title>Node22&#45;&gt;Node23</title>
<g id="a_edge32_Node000022_Node000023"><a xlink:title=" ">
<path fill="none" stroke="#63b8ff" d="M1729.9,-248.36C1728.63,-236.26 1727.2,-222.58 1726.07,-211.74"/>
<polygon fill="#63b8ff" stroke="#63b8ff" points="1726.44,-248.9 1730.96,-258.49 1733.4,-248.18 1726.44,-248.9"/>
</a>
</g>
</g>
<!-- Node24 -->
<g id="Node000024" class="node">
<title>Node24</title>
<g id="a_Node000024"><a xlink:href="acceleration__utils_8cpp.html" target="_top" xlink:title="Loop Acceleration.">
<polygon fill="white" stroke="#666666" points="1959.5,-217 1814.5,-217 1814.5,-165 1959.5,-165 1959.5,-217"/>
<text text-anchor="start" x="1822.5" y="-205" font-family="Helvetica,sans-Serif" font-size="10.00">/home/runner/work/cbmc</text>
<text text-anchor="start" x="1822.5" y="-194" font-family="Helvetica,sans-Serif" font-size="10.00">/cbmc/src/goto&#45;instrument</text>
<text text-anchor="start" x="1822.5" y="-183" font-family="Helvetica,sans-Serif" font-size="10.00">/accelerate/acceleration</text>
<text text-anchor="middle" x="1887" y="-172" font-family="Helvetica,sans-Serif" font-size="10.00">_utils.cpp</text>
</a>
</g>
</g>
<!-- Node22&#45;&gt;Node24 -->
<g id="edge33_Node000022_Node000024" class="edge">
<title>Node22&#45;&gt;Node24</title>
<g id="a_edge33_Node000022_Node000024"><a xlink:title=" ">
<path fill="none" stroke="#63b8ff" d="M1776.72,-253.58C1797.13,-242.19 1821.39,-228.64 1841.95,-217.16"/>
<polygon fill="#63b8ff" stroke="#63b8ff" points="1774.97,-250.55 1767.94,-258.49 1778.38,-256.67 1774.97,-250.55"/>
</a>
</g>
</g>
<!-- Node25 -->
<g id="Node000025" class="node">
<title>Node25</title>
<g id="a_Node000025"><a xlink:href="disjunctive__polynomial__acceleration_8cpp.html" target="_top" xlink:title="Loop Acceleration.">
<polygon fill="white" stroke="#666666" points="2164.5,-217 1977.5,-217 1977.5,-165 2164.5,-165 2164.5,-217"/>
<text text-anchor="start" x="1985.5" y="-205" font-family="Helvetica,sans-Serif" font-size="10.00">/home/runner/work/cbmc</text>
<text text-anchor="start" x="1985.5" y="-194" font-family="Helvetica,sans-Serif" font-size="10.00">/cbmc/src/goto&#45;instrument</text>
<text text-anchor="start" x="1985.5" y="-183" font-family="Helvetica,sans-Serif" font-size="10.00">/accelerate/disjunctive_polynomial</text>
<text text-anchor="middle" x="2071" y="-172" font-family="Helvetica,sans-Serif" font-size="10.00">_acceleration.cpp</text>
</a>
</g>
</g>
<!-- Node22&#45;&gt;Node25 -->
<g id="edge34_Node000022_Node000025" class="edge">
<title>Node22&#45;&gt;Node25</title>
<g id="a_edge34_Node000022_Node000025"><a xlink:title=" ">
<path fill="none" stroke="#63b8ff" d="M1814.09,-255.86C1817.78,-254.89 1821.43,-253.93 1825,-253 1853.75,-245.53 1920.59,-228.98 1977.35,-214.99"/>
<polygon fill="#63b8ff" stroke="#63b8ff" points="1813.05,-252.51 1804.28,-258.46 1814.84,-259.28 1813.05,-252.51"/>
</a>
</g>
</g>
<!-- Node26 -->
<g id="Node000026" class="node">
<title>Node26</title>
<g id="a_Node000026"><a xlink:href="polynomial__accelerator_8cpp.html" target="_top" xlink:title="Loop Acceleration.">
<polygon fill="white" stroke="#666666" points="2391,-211.5 2183,-211.5 2183,-170.5 2391,-170.5 2391,-211.5"/>
<text text-anchor="start" x="2191" y="-199.5" font-family="Helvetica,sans-Serif" font-size="10.00">/home/runner/work/cbmc</text>
<text text-anchor="start" x="2191" y="-188.5" font-family="Helvetica,sans-Serif" font-size="10.00">/cbmc/src/goto&#45;instrument</text>
<text text-anchor="middle" x="2287" y="-177.5" font-family="Helvetica,sans-Serif" font-size="10.00">/accelerate/polynomial_accelerator.cpp</text>
</a>
</g>
</g>
<!-- Node22&#45;&gt;Node26 -->
<g id="edge35_Node000022_Node000026" class="edge">
<title>Node22&#45;&gt;Node26</title>
<g id="a_edge35_Node000022_Node000026"><a xlink:title=" ">
<path fill="none" stroke="#63b8ff" d="M1809.7,-256.16C1814.86,-255 1819.99,-253.93 1825,-253 1978.3,-224.46 2020.06,-241.88 2174,-217 2183.72,-215.43 2193.86,-213.54 2203.9,-211.52"/>
<polygon fill="#63b8ff" stroke="#63b8ff" points="1808.72,-252.8 1799.79,-258.49 1810.32,-259.61 1808.72,-252.8"/>
</a>
</g>
</g>
<!-- Node27 -->
<g id="Node000027" class="node">
<title>Node27</title>
<g id="a_Node000027"><a xlink:href="sat__path__enumerator_8cpp.html" target="_top" xlink:title="Loop Acceleration.">
<polygon fill="white" stroke="#666666" points="2606.5,-211.5 2409.5,-211.5 2409.5,-170.5 2606.5,-170.5 2606.5,-211.5"/>
<text text-anchor="start" x="2417.5" y="-199.5" font-family="Helvetica,sans-Serif" font-size="10.00">/home/runner/work/cbmc</text>
<text text-anchor="start" x="2417.5" y="-188.5" font-family="Helvetica,sans-Serif" font-size="10.00">/cbmc/src/goto&#45;instrument</text>
<text text-anchor="middle" x="2508" y="-177.5" font-family="Helvetica,sans-Serif" font-size="10.00">/accelerate/sat_path_enumerator.cpp</text>
</a>
</g>
</g>
<!-- Node22&#45;&gt;Node27 -->
<g id="edge36_Node000022_Node000027" class="edge">
<title>Node22&#45;&gt;Node27</title>
<g id="a_edge36_Node000022_Node000027"><a xlink:title=" ">
<path fill="none" stroke="#63b8ff" d="M1808.48,-256.18C1814.04,-254.98 1819.59,-253.89 1825,-253 2077.62,-211.21 2146.63,-254 2400,-217 2410,-215.54 2420.44,-213.63 2430.72,-211.51"/>
<polygon fill="#63b8ff" stroke="#63b8ff" points="1807.44,-252.83 1798.48,-258.47 1809.01,-259.65 1807.44,-252.83"/>
</a>
</g>
</g>
<!-- Node28 -->
<g id="Node000028" class="node">
<title>Node28</title>
<g id="a_Node000028"><a xlink:href="scratch__program_8cpp.html" target="_top" xlink:title="Loop Acceleration.">
<polygon fill="white" stroke="#666666" points="2801,-211.5 2625,-211.5 2625,-170.5 2801,-170.5 2801,-211.5"/>
<text text-anchor="start" x="2633" y="-199.5" font-family="Helvetica,sans-Serif" font-size="10.00">/home/runner/work/cbmc</text>
<text text-anchor="start" x="2633" y="-188.5" font-family="Helvetica,sans-Serif" font-size="10.00">/cbmc/src/goto&#45;instrument</text>
<text text-anchor="middle" x="2713" y="-177.5" font-family="Helvetica,sans-Serif" font-size="10.00">/accelerate/scratch_program.cpp</text>
</a>
</g>
</g>
<!-- Node22&#45;&gt;Node28 -->
<g id="edge37_Node000022_Node000028" class="edge">
<title>Node22&#45;&gt;Node28</title>
<g id="a_edge37_Node000022_Node000028"><a xlink:title=" ">
<path fill="none" stroke="#63b8ff" d="M1807.72,-256.23C1813.54,-254.99 1819.34,-253.89 1825,-253 2172.68,-198.53 2267.97,-269.19 2616,-217 2625.29,-215.61 2634.97,-213.69 2644.47,-211.53"/>
<polygon fill="#63b8ff" stroke="#63b8ff" points="1806.93,-252.83 1797.95,-258.45 1808.48,-259.65 1806.93,-252.83"/>
</a>
</g>
</g>
</g>
</svg>
