<?xml version="1.0" encoding="UTF-8" standalone="no"?>
<!DOCTYPE svg PUBLIC "-//W3C//DTD SVG 1.1//EN"
 "http://www.w3.org/Graphics/SVG/1.1/DTD/svg11.dtd">
<!-- Generated by graphviz version 2.43.0 (0)
 -->
<!-- Title: /home/runner/work/cbmc/cbmc/src/goto&#45;instrument/accelerate/polynomial.cpp Pages: 1 -->
<svg width="1043pt" height="709pt"
 viewBox="0.00 0.00 1043.00 709.00" xmlns="http://www.w3.org/2000/svg" xmlns:xlink="http://www.w3.org/1999/xlink">
<g id="graph0" class="graph" transform="scale(1 1) rotate(0) translate(4 705)">
<title>/home/runner/work/cbmc/cbmc/src/goto&#45;instrument/accelerate/polynomial.cpp</title>
<!-- Node1 -->
<g id="Node000001" class="node">
<title>Node1</title>
<g id="a_Node000001"><a xlink:title="Loop Acceleration.">
<polygon fill="#999999" stroke="#666666" points="395.5,-701 246.5,-701 246.5,-660 395.5,-660 395.5,-701"/>
<text text-anchor="start" x="254.5" y="-689" font-family="Helvetica,sans-Serif" font-size="10.00">/home/runner/work/cbmc</text>
<text text-anchor="start" x="254.5" y="-678" font-family="Helvetica,sans-Serif" font-size="10.00">/cbmc/src/goto&#45;instrument</text>
<text text-anchor="middle" x="321" y="-667" font-family="Helvetica,sans-Serif" font-size="10.00">/accelerate/polynomial.cpp</text>
</a>
</g>
</g>
<!-- Node2 -->
<g id="Node000002" class="node">
<title>Node2</title>
<g id="a_Node000002"><a xlink:href="polynomial_8h.html" target="_top" xlink:title="Loop Acceleration.">
<polygon fill="white" stroke="#666666" points="80,-459 0,-459 0,-440 80,-440 80,-459"/>
<text text-anchor="middle" x="40" y="-447" font-family="Helvetica,sans-Serif" font-size="10.00">polynomial.h</text>
</a>
</g>
</g>
<!-- Node1&#45;&gt;Node2 -->
<g id="edge1_Node000001_Node000002" class="edge">
<title>Node1&#45;&gt;Node2</title>
<g id="a_edge1_Node000001_Node000002"><a xlink:title=" ">
<path fill="none" stroke="#63b8ff" d="M246.43,-669.32C189.06,-660.05 115.99,-644.67 94,-624 49.8,-582.46 41.53,-505.45 40.16,-469.68"/>
<polygon fill="#63b8ff" stroke="#63b8ff" points="43.65,-469.16 39.91,-459.24 36.65,-469.32 43.65,-469.16"/>
</a>
</g>
</g>
<!-- Node3 -->
<g id="Node000003" class="node">
<title>Node3</title>
<g id="a_Node000003"><a xlink:title=" ">
<polygon fill="#e0e0e0" stroke="#999999" points="117.5,-74 70.5,-74 70.5,-55 117.5,-55 117.5,-74"/>
<text text-anchor="middle" x="94" y="-62" font-family="Helvetica,sans-Serif" font-size="10.00">vector</text>
</a>
</g>
</g>
<!-- Node1&#45;&gt;Node3 -->
<g id="edge34_Node000001_Node000003" class="edge">
<title>Node1&#45;&gt;Node3</title>
<g id="a_edge34_Node000001_Node000003"><a xlink:title=" ">
<path fill="none" stroke="#63b8ff" d="M246.41,-673.36C208.05,-666.64 162.97,-652.71 132,-624 109.87,-603.49 108,-590.67 108,-560.5 108,-560.5 108,-560.5 108,-173.5 108,-141.93 102.04,-105.59 97.9,-84.14"/>
<polygon fill="#63b8ff" stroke="#63b8ff" points="101.29,-83.24 95.89,-74.13 94.43,-84.62 101.29,-83.24"/>
</a>
</g>
</g>
<!-- Node28 -->
<g id="Node000028" class="node">
<title>Node28</title>
<g id="a_Node000028"><a xlink:title=" ">
<polygon fill="#e0e0e0" stroke="#999999" points="190,-19 126,-19 126,0 190,0 190,-19"/>
<text text-anchor="middle" x="158" y="-7" font-family="Helvetica,sans-Serif" font-size="10.00">algorithm</text>
</a>
</g>
</g>
<!-- Node1&#45;&gt;Node28 -->
<g id="edge35_Node000001_Node000028" class="edge">
<title>Node1&#45;&gt;Node28</title>
<g id="a_edge35_Node000001_Node000028"><a xlink:title=" ">
<path fill="none" stroke="#63b8ff" d="M246.28,-660.21C198.71,-642.92 146,-612.12 146,-560.5 146,-560.5 146,-560.5 146,-118.5 146,-87 151.11,-50.64 154.66,-29.16"/>
<polygon fill="#63b8ff" stroke="#63b8ff" points="158.13,-29.59 156.38,-19.14 151.24,-28.4 158.13,-29.59"/>
</a>
</g>
</g>
<!-- Node38 -->
<g id="Node000038" class="node">
<title>Node38</title>
<g id="a_Node000038"><a xlink:href="std__expr_8h.html" target="_top" xlink:title="API to expression classes.">
<polygon fill="white" stroke="#666666" points="664,-569 578,-569 578,-550 664,-550 664,-569"/>
<text text-anchor="middle" x="621" y="-557" font-family="Helvetica,sans-Serif" font-size="10.00">util/std_expr.h</text>
</a>
</g>
</g>
<!-- Node1&#45;&gt;Node38 -->
<g id="edge36_Node000001_Node000038" class="edge">
<title>Node1&#45;&gt;Node38</title>
<g id="a_edge36_Node000001_Node000038"><a xlink:title=" ">
<path fill="none" stroke="#63b8ff" d="M370.2,-659.98C432.51,-635.27 538.01,-593.42 590.06,-572.77"/>
<polygon fill="#63b8ff" stroke="#63b8ff" points="591.43,-575.99 599.44,-569.05 588.85,-569.49 591.43,-575.99"/>
</a>
</g>
</g>
<!-- Node44 -->
<g id="Node000044" class="node">
<title>Node44</title>
<g id="a_Node000044"><a xlink:href="arith__tools_8h.html" target="_top" xlink:title=" ">
<polygon fill="white" stroke="#666666" points="829,-624 733,-624 733,-605 829,-605 829,-624"/>
<text text-anchor="middle" x="781" y="-612" font-family="Helvetica,sans-Serif" font-size="10.00">util/arith_tools.h</text>
</a>
</g>
</g>
<!-- Node1&#45;&gt;Node44 -->
<g id="edge54_Node000001_Node000044" class="edge">
<title>Node1&#45;&gt;Node44</title>
<g id="a_edge54_Node000001_Node000044"><a xlink:title=" ">
<path fill="none" stroke="#63b8ff" d="M395.67,-669.11C487.02,-656.4 639.73,-635.16 722.83,-623.59"/>
<polygon fill="#63b8ff" stroke="#63b8ff" points="723.43,-627.04 732.85,-622.2 722.46,-620.11 723.43,-627.04"/>
</a>
</g>
</g>
<!-- Node46 -->
<g id="Node000046" class="node">
<title>Node46</title>
<g id="a_Node000046"><a xlink:href="util_8h.html" target="_top" xlink:title="Loop Acceleration.">
<polygon fill="white" stroke="#666666" points="387.5,-624 346.5,-624 346.5,-605 387.5,-605 387.5,-624"/>
<text text-anchor="middle" x="367" y="-612" font-family="Helvetica,sans-Serif" font-size="10.00">util.h</text>
</a>
</g>
</g>
<!-- Node1&#45;&gt;Node46 -->
<g id="edge59_Node000001_Node000046" class="edge">
<title>Node1&#45;&gt;Node46</title>
<g id="a_edge59_Node000001_Node000046"><a xlink:title=" ">
<path fill="none" stroke="#63b8ff" d="M335.05,-659.95C341.34,-651.2 348.68,-640.99 354.74,-632.56"/>
<polygon fill="#63b8ff" stroke="#63b8ff" points="357.71,-634.42 360.7,-624.26 352.02,-630.34 357.71,-634.42"/>
</a>
</g>
</g>
<!-- Node2&#45;&gt;Node3 -->
<g id="edge2_Node000002_Node000003" class="edge">
<title>Node2&#45;&gt;Node3</title>
<g id="a_edge2_Node000002_Node000003"><a xlink:title=" ">
<path fill="none" stroke="#63b8ff" d="M36.49,-439.99C29.4,-421.97 14,-378.49 14,-340.5 14,-340.5 14,-340.5 14,-173.5 14,-133.81 49.32,-99.18 73.03,-80.41"/>
<polygon fill="#63b8ff" stroke="#63b8ff" points="75.31,-83.07 81.15,-74.23 71.07,-77.5 75.31,-83.07"/>
</a>
</g>
</g>
<!-- Node4 -->
<g id="Node000004" class="node">
<title>Node4</title>
<g id="a_Node000004"><a xlink:title=" ">
<polygon fill="#e0e0e0" stroke="#999999" points="80,-404 42,-404 42,-385 80,-385 80,-404"/>
<text text-anchor="middle" x="61" y="-392" font-family="Helvetica,sans-Serif" font-size="10.00">map</text>
</a>
</g>
</g>
<!-- Node2&#45;&gt;Node4 -->
<g id="edge3_Node000002_Node000004" class="edge">
<title>Node2&#45;&gt;Node4</title>
<g id="a_edge3_Node000002_Node000004"><a xlink:title=" ">
<path fill="none" stroke="#63b8ff" d="M43.47,-439.75C46.28,-432.65 50.34,-422.4 53.85,-413.56"/>
<polygon fill="#63b8ff" stroke="#63b8ff" points="57.17,-414.68 57.6,-404.09 50.66,-412.1 57.17,-414.68"/>
</a>
</g>
</g>
<!-- Node5 -->
<g id="Node000005" class="node">
<title>Node5</title>
<g id="a_Node000005"><a xlink:href="expr_8h.html" target="_top" xlink:title=" ">
<polygon fill="white" stroke="#666666" points="385.5,-404 320.5,-404 320.5,-385 385.5,-385 385.5,-404"/>
<text text-anchor="middle" x="353" y="-392" font-family="Helvetica,sans-Serif" font-size="10.00">util/expr.h</text>
</a>
</g>
</g>
<!-- Node2&#45;&gt;Node5 -->
<g id="edge4_Node000002_Node000005" class="edge">
<title>Node2&#45;&gt;Node5</title>
<g id="a_edge4_Node000002_Node000005"><a xlink:title=" ">
<path fill="none" stroke="#63b8ff" d="M80.28,-441.68C139.59,-431.64 249.92,-412.95 310.48,-402.7"/>
<polygon fill="#63b8ff" stroke="#63b8ff" points="311.2,-406.13 320.48,-401.01 310.03,-399.23 311.2,-406.13"/>
</a>
</g>
</g>
<!-- Node6 -->
<g id="Node000006" class="node">
<title>Node6</title>
<g id="a_Node000006"><a xlink:href="as__const_8h.html" target="_top" xlink:title=" ">
<polygon fill="white" stroke="#666666" points="287,-19 219,-19 219,0 287,0 287,-19"/>
<text text-anchor="middle" x="253" y="-7" font-family="Helvetica,sans-Serif" font-size="10.00">as_const.h</text>
</a>
</g>
</g>
<!-- Node5&#45;&gt;Node6 -->
<g id="edge5_Node000005_Node000006" class="edge">
<title>Node5&#45;&gt;Node6</title>
<g id="a_edge5_Node000005_Node000006"><a xlink:title=" ">
<path fill="none" stroke="#63b8ff" d="M320.42,-387.88C271.31,-377.33 184,-349.57 184,-285.5 184,-285.5 184,-285.5 184,-118.5 184,-89.04 187.17,-79.85 203,-55 210.34,-43.48 221.48,-33.15 231.39,-25.36"/>
<polygon fill="#63b8ff" stroke="#63b8ff" points="233.73,-27.98 239.65,-19.19 229.54,-22.37 233.73,-27.98"/>
</a>
</g>
</g>
<!-- Node7 -->
<g id="Node000007" class="node">
<title>Node7</title>
<g id="a_Node000007"><a xlink:href="type_8h.html" target="_top" xlink:title="Defines typet, type_with_subtypet and type_with_subtypest.">
<polygon fill="white" stroke="#666666" points="482.5,-349 435.5,-349 435.5,-330 482.5,-330 482.5,-349"/>
<text text-anchor="middle" x="459" y="-337" font-family="Helvetica,sans-Serif" font-size="10.00">type.h</text>
</a>
</g>
</g>
<!-- Node5&#45;&gt;Node7 -->
<g id="edge6_Node000005_Node000007" class="edge">
<title>Node5&#45;&gt;Node7</title>
<g id="a_edge6_Node000005_Node000007"><a xlink:title=" ">
<path fill="none" stroke="#63b8ff" d="M370.03,-384.98C386.93,-376.54 413.06,-363.47 432.64,-353.68"/>
<polygon fill="#63b8ff" stroke="#63b8ff" points="434.28,-356.77 441.66,-349.17 431.15,-350.51 434.28,-356.77"/>
</a>
</g>
</g>
<!-- Node34 -->
<g id="Node000034" class="node">
<title>Node34</title>
<g id="a_Node000034"><a xlink:href="validation__mode_8h.html" target="_top" xlink:title=" ">
<polygon fill="white" stroke="#666666" points="425.5,-239 318.5,-239 318.5,-220 425.5,-220 425.5,-239"/>
<text text-anchor="middle" x="372" y="-227" font-family="Helvetica,sans-Serif" font-size="10.00">validation_mode.h</text>
</a>
</g>
</g>
<!-- Node5&#45;&gt;Node34 -->
<g id="edge32_Node000005_Node000034" class="edge">
<title>Node5&#45;&gt;Node34</title>
<g id="a_edge32_Node000005_Node000034"><a xlink:title=" ">
<path fill="none" stroke="#63b8ff" d="M326.63,-384.87C308.89,-377.81 286.24,-366.17 272,-349 250.39,-322.95 234.75,-302.84 254,-275 266.58,-256.81 287.6,-246.05 308.45,-239.68"/>
<polygon fill="#63b8ff" stroke="#63b8ff" points="309.58,-243 318.3,-236.98 307.73,-236.25 309.58,-243"/>
</a>
</g>
</g>
<!-- Node35 -->
<g id="Node000035" class="node">
<title>Node35</title>
<g id="a_Node000035"><a xlink:href="validate__types_8h.html" target="_top" xlink:title=" ">
<polygon fill="white" stroke="#666666" points="361,-294 263,-294 263,-275 361,-275 361,-294"/>
<text text-anchor="middle" x="312" y="-282" font-family="Helvetica,sans-Serif" font-size="10.00">validate_types.h</text>
</a>
</g>
</g>
<!-- Node5&#45;&gt;Node35 -->
<g id="edge31_Node000005_Node000035" class="edge">
<title>Node5&#45;&gt;Node35</title>
<g id="a_edge31_Node000005_Node000035"><a xlink:title=" ">
<path fill="none" stroke="#63b8ff" d="M325.71,-384.88C309,-378.03 288.96,-366.62 279,-349 269.98,-333.06 282.29,-314.42 294.36,-301.48"/>
<polygon fill="#63b8ff" stroke="#63b8ff" points="297.02,-303.77 301.64,-294.23 292.09,-298.8 297.02,-303.77"/>
</a>
</g>
</g>
<!-- Node36 -->
<g id="Node000036" class="node">
<title>Node36</title>
<g id="a_Node000036"><a xlink:href="validate__expressions_8h.html" target="_top" xlink:title=" ">
<polygon fill="white" stroke="#666666" points="417.5,-349 288.5,-349 288.5,-330 417.5,-330 417.5,-349"/>
<text text-anchor="middle" x="353" y="-337" font-family="Helvetica,sans-Serif" font-size="10.00">validate_expressions.h</text>
</a>
</g>
</g>
<!-- Node5&#45;&gt;Node36 -->
<g id="edge30_Node000005_Node000036" class="edge">
<title>Node5&#45;&gt;Node36</title>
<g id="a_edge30_Node000005_Node000036"><a xlink:title=" ">
<path fill="none" stroke="#63b8ff" d="M353,-384.75C353,-377.8 353,-367.85 353,-359.13"/>
<polygon fill="#63b8ff" stroke="#63b8ff" points="356.5,-359.09 353,-349.09 349.5,-359.09 356.5,-359.09"/>
</a>
</g>
</g>
<!-- Node37 -->
<g id="Node000037" class="node">
<title>Node37</title>
<g id="a_Node000037"><a xlink:title=" ">
<polygon fill="#e0e0e0" stroke="#999999" points="604.5,-349 539.5,-349 539.5,-330 604.5,-330 604.5,-349"/>
<text text-anchor="middle" x="572" y="-337" font-family="Helvetica,sans-Serif" font-size="10.00">functional</text>
</a>
</g>
</g>
<!-- Node5&#45;&gt;Node37 -->
<g id="edge33_Node000005_Node000037" class="edge">
<title>Node5&#45;&gt;Node37</title>
<g id="a_edge33_Node000005_Node000037"><a xlink:title=" ">
<path fill="none" stroke="#63b8ff" d="M385.79,-385.57C424.04,-376.31 487.39,-360.98 529.41,-350.81"/>
<polygon fill="#63b8ff" stroke="#63b8ff" points="530.45,-354.16 539.35,-348.4 528.8,-347.35 530.45,-354.16"/>
</a>
</g>
</g>
<!-- Node8 -->
<g id="Node000008" class="node">
<title>Node8</title>
<g id="a_Node000008"><a xlink:href="source__location_8h.html" target="_top" xlink:title=" ">
<polygon fill="white" stroke="#666666" points="498,-184 396,-184 396,-165 498,-165 498,-184"/>
<text text-anchor="middle" x="447" y="-172" font-family="Helvetica,sans-Serif" font-size="10.00">source_location.h</text>
</a>
</g>
</g>
<!-- Node7&#45;&gt;Node8 -->
<g id="edge7_Node000007_Node000008" class="edge">
<title>Node7&#45;&gt;Node8</title>
<g id="a_edge7_Node000007_Node000008"><a xlink:title=" ">
<path fill="none" stroke="#63b8ff" d="M458.35,-329.74C456.48,-304.31 451.02,-230.08 448.41,-194.69"/>
<polygon fill="#63b8ff" stroke="#63b8ff" points="451.87,-194.02 447.65,-184.31 444.89,-194.54 451.87,-194.02"/>
</a>
</g>
</g>
<!-- Node32 -->
<g id="Node000032" class="node">
<title>Node32</title>
<g id="a_Node000032"><a xlink:href="validate_8h.html" target="_top" xlink:title=" ">
<polygon fill="white" stroke="#666666" points="547.5,-294 482.5,-294 482.5,-275 547.5,-275 547.5,-294"/>
<text text-anchor="middle" x="515" y="-282" font-family="Helvetica,sans-Serif" font-size="10.00">validate.h</text>
</a>
</g>
</g>
<!-- Node7&#45;&gt;Node32 -->
<g id="edge21_Node000007_Node000032" class="edge">
<title>Node7&#45;&gt;Node32</title>
<g id="a_edge21_Node000007_Node000032"><a xlink:title=" ">
<path fill="none" stroke="#63b8ff" d="M468,-329.98C476.19,-322.23 488.51,-310.58 498.47,-301.14"/>
<polygon fill="#63b8ff" stroke="#63b8ff" points="500.98,-303.59 505.84,-294.17 496.17,-298.5 500.98,-303.59"/>
</a>
</g>
</g>
<!-- Node7&#45;&gt;Node34 -->
<g id="edge29_Node000007_Node000034" class="edge">
<title>Node7&#45;&gt;Node34</title>
<g id="a_edge29_Node000007_Node000034"><a xlink:title=" ">
<path fill="none" stroke="#63b8ff" d="M451.88,-329.66C437.34,-311.61 404.04,-270.28 385.35,-247.08"/>
<polygon fill="#63b8ff" stroke="#63b8ff" points="387.97,-244.75 378.97,-239.16 382.52,-249.14 387.97,-244.75"/>
</a>
</g>
</g>
<!-- Node7&#45;&gt;Node35 -->
<g id="edge28_Node000007_Node000035" class="edge">
<title>Node7&#45;&gt;Node35</title>
<g id="a_edge28_Node000007_Node000035"><a xlink:title=" ">
<path fill="none" stroke="#63b8ff" d="M435.38,-329.98C411.1,-321.23 373.05,-307.51 345.63,-297.62"/>
<polygon fill="#63b8ff" stroke="#63b8ff" points="346.64,-294.27 336.05,-294.17 344.27,-300.85 346.64,-294.27"/>
</a>
</g>
</g>
<!-- Node9 -->
<g id="Node000009" class="node">
<title>Node9</title>
<g id="a_Node000009"><a xlink:href="deprecate_8h.html" target="_top" xlink:title=" ">
<polygon fill="white" stroke="#666666" points="394,-129 320,-129 320,-110 394,-110 394,-129"/>
<text text-anchor="middle" x="357" y="-117" font-family="Helvetica,sans-Serif" font-size="10.00">deprecate.h</text>
</a>
</g>
</g>
<!-- Node8&#45;&gt;Node9 -->
<g id="edge8_Node000008_Node000009" class="edge">
<title>Node8&#45;&gt;Node9</title>
<g id="a_edge8_Node000008_Node000009"><a xlink:title=" ">
<path fill="none" stroke="#63b8ff" d="M432.54,-164.98C418.58,-156.77 397.21,-144.18 380.75,-134.49"/>
<polygon fill="#63b8ff" stroke="#63b8ff" points="382.12,-131.23 371.72,-129.17 378.56,-137.26 382.12,-131.23"/>
</a>
</g>
</g>
<!-- Node10 -->
<g id="Node000010" class="node">
<title>Node10</title>
<g id="a_Node000010"><a xlink:href="irep_8h.html" target="_top" xlink:title=" ">
<polygon fill="white" stroke="#666666" points="302,-129 258,-129 258,-110 302,-110 302,-129"/>
<text text-anchor="middle" x="280" y="-117" font-family="Helvetica,sans-Serif" font-size="10.00">irep.h</text>
</a>
</g>
</g>
<!-- Node8&#45;&gt;Node10 -->
<g id="edge9_Node000008_Node000010" class="edge">
<title>Node8&#45;&gt;Node10</title>
<g id="a_edge9_Node000008_Node000010"><a xlink:title=" ">
<path fill="none" stroke="#63b8ff" d="M420.17,-164.98C390.63,-155.61 343.19,-140.55 311.81,-130.59"/>
<polygon fill="#63b8ff" stroke="#63b8ff" points="312.81,-127.24 302.22,-127.55 310.7,-133.91 312.81,-127.24"/>
</a>
</g>
</g>
<!-- Node11 -->
<g id="Node000011" class="node">
<title>Node11</title>
<g id="a_Node000011"><a xlink:title=" ">
<polygon fill="#e0e0e0" stroke="#999999" points="556,-19 512,-19 512,0 556,0 556,-19"/>
<text text-anchor="middle" x="534" y="-7" font-family="Helvetica,sans-Serif" font-size="10.00">string</text>
</a>
</g>
</g>
<!-- Node8&#45;&gt;Node11 -->
<g id="edge20_Node000008_Node000011" class="edge">
<title>Node8&#45;&gt;Node11</title>
<g id="a_edge20_Node000008_Node000011"><a xlink:title=" ">
<path fill="none" stroke="#63b8ff" d="M453.36,-164.88C459.72,-156.08 469.58,-141.93 477,-129 496.8,-94.48 516.06,-52.03 526.34,-28.46"/>
<polygon fill="#63b8ff" stroke="#63b8ff" points="529.65,-29.62 530.4,-19.05 523.22,-26.84 529.65,-29.62"/>
</a>
</g>
</g>
<!-- Node31 -->
<g id="Node000031" class="node">
<title>Node31</title>
<g id="a_Node000031"><a xlink:title=" ">
<polygon fill="#e0e0e0" stroke="#999999" points="468,-129 412,-129 412,-110 468,-110 468,-129"/>
<text text-anchor="middle" x="440" y="-117" font-family="Helvetica,sans-Serif" font-size="10.00">optional</text>
</a>
</g>
</g>
<!-- Node8&#45;&gt;Node31 -->
<g id="edge19_Node000008_Node000031" class="edge">
<title>Node8&#45;&gt;Node31</title>
<g id="a_edge19_Node000008_Node000031"><a xlink:title=" ">
<path fill="none" stroke="#63b8ff" d="M445.84,-164.75C444.93,-157.8 443.61,-147.85 442.46,-139.13"/>
<polygon fill="#63b8ff" stroke="#63b8ff" points="445.91,-138.54 441.13,-129.09 438.97,-139.46 445.91,-138.54"/>
</a>
</g>
</g>
<!-- Node10&#45;&gt;Node3 -->
<g id="edge11_Node000010_Node000003" class="edge">
<title>Node10&#45;&gt;Node3</title>
<g id="a_edge11_Node000010_Node000003"><a xlink:title=" ">
<path fill="none" stroke="#63b8ff" d="M257.93,-112.21C225.74,-103.04 165.63,-85.91 127.82,-75.14"/>
<polygon fill="#63b8ff" stroke="#63b8ff" points="128.37,-71.66 117.8,-72.28 126.45,-78.39 128.37,-71.66"/>
</a>
</g>
</g>
<!-- Node10&#45;&gt;Node11 -->
<g id="edge10_Node000010_Node000011" class="edge">
<title>Node10&#45;&gt;Node11</title>
<g id="a_edge10_Node000010_Node000011"><a xlink:title=" ">
<path fill="none" stroke="#63b8ff" d="M302.26,-112.29C341.3,-101.35 419.11,-79.3 431,-74 461.61,-60.35 494.08,-39.04 514.2,-24.93"/>
<polygon fill="#63b8ff" stroke="#63b8ff" points="516.4,-27.66 522.52,-19.01 512.34,-21.96 516.4,-27.66"/>
</a>
</g>
</g>
<!-- Node12 -->
<g id="Node000012" class="node">
<title>Node12</title>
<g id="a_Node000012"><a xlink:href="src_2util_2invariant_8h.html" target="_top" xlink:title=" ">
<polygon fill="#fff0f0" stroke="red" points="631.5,-74 562.5,-74 562.5,-55 631.5,-55 631.5,-74"/>
<text text-anchor="middle" x="597" y="-62" font-family="Helvetica,sans-Serif" font-size="10.00">invariant.h</text>
</a>
</g>
</g>
<!-- Node10&#45;&gt;Node12 -->
<g id="edge12_Node000010_Node000012" class="edge">
<title>Node10&#45;&gt;Node12</title>
<g id="a_edge12_Node000010_Node000012"><a xlink:title=" ">
<path fill="none" stroke="#63b8ff" d="M302.28,-112.07C305.2,-111.32 308.16,-110.61 311,-110 395.65,-91.87 495.89,-77.99 552.4,-70.85"/>
<polygon fill="#63b8ff" stroke="#63b8ff" points="552.94,-74.31 562.43,-69.59 552.07,-67.36 552.94,-74.31"/>
</a>
</g>
</g>
<!-- Node16 -->
<g id="Node000016" class="node">
<title>Node16</title>
<g id="a_Node000016"><a xlink:href="irep__ids_8h.html" target="_top" xlink:title="util">
<polygon fill="#fff0f0" stroke="red" points="422,-74 358,-74 358,-55 422,-55 422,-74"/>
<text text-anchor="middle" x="390" y="-62" font-family="Helvetica,sans-Serif" font-size="10.00">irep_ids.h</text>
</a>
</g>
</g>
<!-- Node10&#45;&gt;Node16 -->
<g id="edge15_Node000010_Node000016" class="edge">
<title>Node10&#45;&gt;Node16</title>
<g id="a_edge15_Node000010_Node000016"><a xlink:title=" ">
<path fill="none" stroke="#63b8ff" d="M297.67,-109.98C315.29,-101.5 342.58,-88.35 362.93,-78.54"/>
<polygon fill="#63b8ff" stroke="#63b8ff" points="364.52,-81.66 372.01,-74.17 361.48,-75.36 364.52,-81.66"/>
</a>
</g>
</g>
<!-- Node27 -->
<g id="Node000027" class="node">
<title>Node27</title>
<g id="a_Node000027"><a xlink:href="forward__list__as__map_8h.html" target="_top" xlink:title=" ">
<polygon fill="#fff0f0" stroke="red" points="339.5,-74 212.5,-74 212.5,-55 339.5,-55 339.5,-74"/>
<text text-anchor="middle" x="276" y="-62" font-family="Helvetica,sans-Serif" font-size="10.00">forward_list_as_map.h</text>
</a>
</g>
</g>
<!-- Node10&#45;&gt;Node27 -->
<g id="edge16_Node000010_Node000027" class="edge">
<title>Node10&#45;&gt;Node27</title>
<g id="a_edge16_Node000010_Node000027"><a xlink:title=" ">
<path fill="none" stroke="#63b8ff" d="M279.34,-109.75C278.82,-102.8 278.06,-92.85 277.41,-84.13"/>
<polygon fill="#63b8ff" stroke="#63b8ff" points="280.89,-83.8 276.65,-74.09 273.91,-84.32 280.89,-83.8"/>
</a>
</g>
</g>
<!-- Node12&#45;&gt;Node11 -->
<g id="edge13_Node000012_Node000011" class="edge">
<title>Node12&#45;&gt;Node11</title>
<g id="a_edge13_Node000012_Node000011"><a xlink:title=" ">
<path fill="none" stroke="#63b8ff" d="M586.88,-54.98C577.56,-47.15 563.53,-35.34 552.26,-25.86"/>
<polygon fill="#63b8ff" stroke="#63b8ff" points="554.21,-22.93 544.31,-19.17 549.71,-28.29 554.21,-22.93"/>
</a>
</g>
</g>
<!-- Node15 -->
<g id="Node000015" class="node">
<title>Node15</title>
<g id="a_Node000015"><a xlink:title=" ">
<polygon fill="#e0e0e0" stroke="#999999" points="694.5,-19 625.5,-19 625.5,0 694.5,0 694.5,-19"/>
<text text-anchor="middle" x="660" y="-7" font-family="Helvetica,sans-Serif" font-size="10.00">type_traits</text>
</a>
</g>
</g>
<!-- Node12&#45;&gt;Node15 -->
<g id="edge14_Node000012_Node000015" class="edge">
<title>Node12&#45;&gt;Node15</title>
<g id="a_edge14_Node000012_Node000015"><a xlink:title=" ">
<path fill="none" stroke="#63b8ff" d="M607.12,-54.98C616.44,-47.15 630.47,-35.34 641.74,-25.86"/>
<polygon fill="#63b8ff" stroke="#63b8ff" points="644.29,-28.29 649.69,-19.17 639.79,-22.93 644.29,-28.29"/>
</a>
</g>
</g>
<!-- Node27&#45;&gt;Node6 -->
<g id="edge18_Node000027_Node000006" class="edge">
<title>Node27&#45;&gt;Node6</title>
<g id="a_edge18_Node000027_Node000006"><a xlink:title=" ">
<path fill="none" stroke="#63b8ff" d="M272.2,-54.75C269.09,-47.57 264.58,-37.18 260.71,-28.27"/>
<polygon fill="#63b8ff" stroke="#63b8ff" points="263.92,-26.87 256.73,-19.09 257.5,-29.66 263.92,-26.87"/>
</a>
</g>
</g>
<!-- Node27&#45;&gt;Node28 -->
<g id="edge17_Node000027_Node000028" class="edge">
<title>Node27&#45;&gt;Node28</title>
<g id="a_edge17_Node000027_Node000028"><a xlink:title=" ">
<path fill="none" stroke="#63b8ff" d="M257.04,-54.98C237.97,-46.42 208.34,-33.11 186.45,-23.28"/>
<polygon fill="#63b8ff" stroke="#63b8ff" points="187.86,-20.07 177.3,-19.17 184.99,-26.46 187.86,-20.07"/>
</a>
</g>
</g>
<!-- Node32&#45;&gt;Node15 -->
<g id="edge22_Node000032_Node000015" class="edge">
<title>Node32&#45;&gt;Node15</title>
<g id="a_edge22_Node000032_Node000015"><a xlink:title=" ">
<path fill="none" stroke="#63b8ff" d="M539.15,-274.88C555.96,-267.72 577.66,-255.94 591,-239 642.09,-174.13 655.45,-71.8 658.86,-29.64"/>
<polygon fill="#63b8ff" stroke="#63b8ff" points="662.37,-29.64 659.59,-19.42 655.39,-29.15 662.37,-29.64"/>
</a>
</g>
</g>
<!-- Node33 -->
<g id="Node000033" class="node">
<title>Node33</title>
<g id="a_Node000033"><a xlink:href="exception__utils_8h.html" target="_top" xlink:title=" ">
<polygon fill="white" stroke="#666666" points="582,-239 482,-239 482,-220 582,-220 582,-239"/>
<text text-anchor="middle" x="532" y="-227" font-family="Helvetica,sans-Serif" font-size="10.00">exception_utils.h</text>
</a>
</g>
</g>
<!-- Node32&#45;&gt;Node33 -->
<g id="edge23_Node000032_Node000033" class="edge">
<title>Node32&#45;&gt;Node33</title>
<g id="a_edge23_Node000032_Node000033"><a xlink:title=" ">
<path fill="none" stroke="#63b8ff" d="M517.81,-274.75C520.06,-267.72 523.3,-257.62 526.12,-248.84"/>
<polygon fill="#63b8ff" stroke="#63b8ff" points="529.52,-249.68 529.25,-239.09 522.86,-247.54 529.52,-249.68"/>
</a>
</g>
</g>
<!-- Node32&#45;&gt;Node34 -->
<g id="edge27_Node000032_Node000034" class="edge">
<title>Node32&#45;&gt;Node34</title>
<g id="a_edge27_Node000032_Node000034"><a xlink:title=" ">
<path fill="none" stroke="#63b8ff" d="M492.02,-274.98C468.5,-266.27 431.71,-252.63 405.06,-242.75"/>
<polygon fill="#63b8ff" stroke="#63b8ff" points="405.99,-239.36 395.39,-239.17 403.55,-245.93 405.99,-239.36"/>
</a>
</g>
</g>
<!-- Node33&#45;&gt;Node8 -->
<g id="edge26_Node000033_Node000008" class="edge">
<title>Node33&#45;&gt;Node8</title>
<g id="a_edge26_Node000033_Node000008"><a xlink:title=" ">
<path fill="none" stroke="#63b8ff" d="M518.34,-219.98C505.16,-211.77 484.97,-199.18 469.43,-189.49"/>
<polygon fill="#63b8ff" stroke="#63b8ff" points="471.24,-186.49 460.91,-184.17 467.54,-192.43 471.24,-186.49"/>
</a>
</g>
</g>
<!-- Node33&#45;&gt;Node11 -->
<g id="edge24_Node000033_Node000011" class="edge">
<title>Node33&#45;&gt;Node11</title>
<g id="a_edge24_Node000033_Node000011"><a xlink:title=" ">
<path fill="none" stroke="#63b8ff" d="M532.08,-219.95C532.37,-187.95 533.41,-74.68 533.83,-29.4"/>
<polygon fill="#63b8ff" stroke="#63b8ff" points="537.33,-29.26 533.92,-19.22 530.33,-29.19 537.33,-29.26"/>
</a>
</g>
</g>
<!-- Node33&#45;&gt;Node12 -->
<g id="edge25_Node000033_Node000012" class="edge">
<title>Node33&#45;&gt;Node12</title>
<g id="a_edge25_Node000033_Node000012"><a xlink:title=" ">
<path fill="none" stroke="#63b8ff" d="M535.49,-219.74C545.72,-194.09 575.75,-118.78 589.71,-83.78"/>
<polygon fill="#63b8ff" stroke="#63b8ff" points="593.03,-84.89 593.49,-74.31 586.53,-82.3 593.03,-84.89"/>
</a>
</g>
</g>
<!-- Node38&#45;&gt;Node12 -->
<g id="edge43_Node000038_Node000012" class="edge">
<title>Node38&#45;&gt;Node12</title>
<g id="a_edge43_Node000038_Node000012"><a xlink:title=" ">
<path fill="none" stroke="#63b8ff" d="M638.94,-550C668.45,-534.62 724,-499.21 724,-450.5 724,-450.5 724,-450.5 724,-173.5 724,-125.01 669.61,-93.73 632.02,-77.91"/>
<polygon fill="#63b8ff" stroke="#63b8ff" points="632.98,-74.52 622.4,-74.03 630.36,-81.01 632.98,-74.52"/>
</a>
</g>
</g>
<!-- Node39 -->
<g id="Node000039" class="node">
<title>Node39</title>
<g id="a_Node000039"><a xlink:href="expr__cast_8h.html" target="_top" xlink:title="Templated functions to cast to specific exprt&#45;derived classes.">
<polygon fill="white" stroke="#666666" points="657.5,-459 584.5,-459 584.5,-440 657.5,-440 657.5,-459"/>
<text text-anchor="middle" x="621" y="-447" font-family="Helvetica,sans-Serif" font-size="10.00">expr_cast.h</text>
</a>
</g>
</g>
<!-- Node38&#45;&gt;Node39 -->
<g id="edge37_Node000038_Node000039" class="edge">
<title>Node38&#45;&gt;Node39</title>
<g id="a_edge37_Node000038_Node000039"><a xlink:title=" ">
<path fill="none" stroke="#63b8ff" d="M621,-549.66C621,-532.17 621,-492.8 621,-469.27"/>
<polygon fill="#63b8ff" stroke="#63b8ff" points="624.5,-469.16 621,-459.16 617.5,-469.16 624.5,-469.16"/>
</a>
</g>
</g>
<!-- Node41 -->
<g id="Node000041" class="node">
<title>Node41</title>
<g id="a_Node000041"><a xlink:href="std__types_8h.html" target="_top" xlink:title="Pre&#45;defined types.">
<polygon fill="white" stroke="#666666" points="574.5,-514 501.5,-514 501.5,-495 574.5,-495 574.5,-514"/>
<text text-anchor="middle" x="538" y="-502" font-family="Helvetica,sans-Serif" font-size="10.00">std_types.h</text>
</a>
</g>
</g>
<!-- Node38&#45;&gt;Node41 -->
<g id="edge44_Node000038_Node000041" class="edge">
<title>Node38&#45;&gt;Node41</title>
<g id="a_edge44_Node000038_Node000041"><a xlink:title=" ">
<path fill="none" stroke="#63b8ff" d="M607.66,-549.98C594.91,-541.84 575.45,-529.41 560.33,-519.76"/>
<polygon fill="#63b8ff" stroke="#63b8ff" points="561.89,-516.6 551.58,-514.17 558.12,-522.5 561.89,-516.6"/>
</a>
</g>
</g>
<!-- Node39&#45;&gt;Node5 -->
<g id="edge42_Node000039_Node000005" class="edge">
<title>Node39&#45;&gt;Node5</title>
<g id="a_edge42_Node000039_Node000005"><a xlink:title=" ">
<path fill="none" stroke="#63b8ff" d="M584.3,-441.24C535.11,-431.51 447.97,-414.28 395.84,-403.97"/>
<polygon fill="#63b8ff" stroke="#63b8ff" points="396.39,-400.51 385.9,-402.01 395.03,-407.38 396.39,-400.51"/>
</a>
</g>
</g>
<!-- Node39&#45;&gt;Node12 -->
<g id="edge41_Node000039_Node000012" class="edge">
<title>Node39&#45;&gt;Node12</title>
<g id="a_edge41_Node000039_Node000012"><a xlink:title=" ">
<path fill="none" stroke="#63b8ff" d="M620.45,-439.78C617.41,-391.15 602.49,-153.16 598.17,-84.23"/>
<polygon fill="#63b8ff" stroke="#63b8ff" points="601.65,-83.8 597.54,-74.04 594.67,-84.24 601.65,-83.8"/>
</a>
</g>
</g>
<!-- Node39&#45;&gt;Node15 -->
<g id="edge39_Node000039_Node000015" class="edge">
<title>Node39&#45;&gt;Node15</title>
<g id="a_edge39_Node000039_Node000015"><a xlink:title=" ">
<path fill="none" stroke="#63b8ff" d="M631.17,-439.7C655.42,-417.96 716.25,-358.75 738,-294 764.04,-216.48 764.69,-187.3 738,-110 726.09,-75.51 696.75,-43.85 677.65,-25.9"/>
<polygon fill="#63b8ff" stroke="#63b8ff" points="679.91,-23.22 670.17,-19.07 675.2,-28.4 679.91,-23.22"/>
</a>
</g>
</g>
<!-- Node39&#45;&gt;Node37 -->
<g id="edge40_Node000039_Node000037" class="edge">
<title>Node39&#45;&gt;Node37</title>
<g id="a_edge40_Node000039_Node000037"><a xlink:title=" ">
<path fill="none" stroke="#63b8ff" d="M587.98,-439.87C569.82,-433.26 548.83,-422.1 538,-404 528.53,-388.18 541.24,-369.53 553.73,-356.55"/>
<polygon fill="#63b8ff" stroke="#63b8ff" points="556.5,-358.73 561.27,-349.27 551.64,-353.69 556.5,-358.73"/>
</a>
</g>
</g>
<!-- Node40 -->
<g id="Node000040" class="node">
<title>Node40</title>
<g id="a_Node000040"><a xlink:title=" ">
<polygon fill="#e0e0e0" stroke="#999999" points="604.5,-404 547.5,-404 547.5,-385 604.5,-385 604.5,-404"/>
<text text-anchor="middle" x="576" y="-392" font-family="Helvetica,sans-Serif" font-size="10.00">typeinfo</text>
</a>
</g>
</g>
<!-- Node39&#45;&gt;Node40 -->
<g id="edge38_Node000039_Node000040" class="edge">
<title>Node39&#45;&gt;Node40</title>
<g id="a_edge38_Node000039_Node000040"><a xlink:title=" ">
<path fill="none" stroke="#63b8ff" d="M613.57,-439.75C607.15,-432.18 597.69,-421.05 589.88,-411.84"/>
<polygon fill="#63b8ff" stroke="#63b8ff" points="592.43,-409.45 583.29,-404.09 587.1,-413.98 592.43,-409.45"/>
</a>
</g>
</g>
<!-- Node41&#45;&gt;Node5 -->
<g id="edge45_Node000041_Node000005" class="edge">
<title>Node41&#45;&gt;Node5</title>
<g id="a_edge45_Node000041_Node000005"><a xlink:title=" ">
<path fill="none" stroke="#63b8ff" d="M511.48,-494.89C489.19,-487.1 456.9,-474.48 431,-459 407.98,-445.24 384.51,-425.14 369.42,-411.26"/>
<polygon fill="#63b8ff" stroke="#63b8ff" points="371.64,-408.54 361.95,-404.26 366.85,-413.65 371.64,-408.54"/>
</a>
</g>
</g>
<!-- Node41&#45;&gt;Node12 -->
<g id="edge47_Node000041_Node000012" class="edge">
<title>Node41&#45;&gt;Node12</title>
<g id="a_edge47_Node000041_Node000012"><a xlink:title=" ">
<path fill="none" stroke="#63b8ff" d="M574.75,-499.66C603.28,-494.8 641.91,-483.81 666,-459 686.61,-437.77 686,-425.09 686,-395.5 686,-395.5 686,-395.5 686,-173.5 686,-132.03 646.43,-97.84 620.06,-79.67"/>
<polygon fill="#63b8ff" stroke="#63b8ff" points="621.97,-76.73 611.7,-74.13 618.1,-82.57 621.97,-76.73"/>
</a>
</g>
</g>
<!-- Node41&#45;&gt;Node32 -->
<g id="edge52_Node000041_Node000032" class="edge">
<title>Node41&#45;&gt;Node32</title>
<g id="a_edge52_Node000041_Node000032"><a xlink:title=" ">
<path fill="none" stroke="#63b8ff" d="M510.71,-494.88C494,-488.03 473.96,-476.62 464,-459 459.84,-451.65 462.66,-448.34 464,-440 468.33,-413.07 495.15,-338.86 508.06,-304.02"/>
<polygon fill="#63b8ff" stroke="#63b8ff" points="511.51,-304.79 511.72,-294.2 504.95,-302.35 511.51,-304.79"/>
</a>
</g>
</g>
<!-- Node41&#45;&gt;Node39 -->
<g id="edge46_Node000041_Node000039" class="edge">
<title>Node41&#45;&gt;Node39</title>
<g id="a_edge46_Node000041_Node000039"><a xlink:title=" ">
<path fill="none" stroke="#63b8ff" d="M551.34,-494.98C564.09,-486.84 583.55,-474.41 598.67,-464.76"/>
<polygon fill="#63b8ff" stroke="#63b8ff" points="600.88,-467.5 607.42,-459.17 597.11,-461.6 600.88,-467.5"/>
</a>
</g>
</g>
<!-- Node42 -->
<g id="Node000042" class="node">
<title>Node42</title>
<g id="a_Node000042"><a xlink:href="mp__arith_8h.html" target="_top" xlink:title=" ">
<polygon fill="white" stroke="#666666" points="853.5,-459 784.5,-459 784.5,-440 853.5,-440 853.5,-459"/>
<text text-anchor="middle" x="819" y="-447" font-family="Helvetica,sans-Serif" font-size="10.00">mp_arith.h</text>
</a>
</g>
</g>
<!-- Node41&#45;&gt;Node42 -->
<g id="edge48_Node000041_Node000042" class="edge">
<title>Node41&#45;&gt;Node42</title>
<g id="a_edge48_Node000041_Node000042"><a xlink:title=" ">
<path fill="none" stroke="#63b8ff" d="M574.74,-496.57C626.13,-486.88 719.39,-469.29 774.61,-458.87"/>
<polygon fill="#63b8ff" stroke="#63b8ff" points="775.28,-462.31 784.46,-457.01 773.98,-455.43 775.28,-462.31"/>
</a>
</g>
</g>
<!-- Node23 -->
<g id="Node000023" class="node">
<title>Node23</title>
<g id="a_Node000023"><a xlink:title=" ">
<polygon fill="#e0e0e0" stroke="#999999" points="566.5,-459 473.5,-459 473.5,-440 566.5,-440 566.5,-459"/>
<text text-anchor="middle" x="520" y="-447" font-family="Helvetica,sans-Serif" font-size="10.00">unordered_map</text>
</a>
</g>
</g>
<!-- Node41&#45;&gt;Node23 -->
<g id="edge53_Node000041_Node000023" class="edge">
<title>Node41&#45;&gt;Node23</title>
<g id="a_edge53_Node000041_Node000023"><a xlink:title=" ">
<path fill="none" stroke="#63b8ff" d="M535.03,-494.75C532.64,-487.72 529.21,-477.62 526.23,-468.84"/>
<polygon fill="#63b8ff" stroke="#63b8ff" points="529.45,-467.43 522.92,-459.09 522.82,-469.68 529.45,-467.43"/>
</a>
</g>
</g>
<!-- Node42&#45;&gt;Node11 -->
<g id="edge50_Node000042_Node000011" class="edge">
<title>Node42&#45;&gt;Node11</title>
<g id="a_edge50_Node000042_Node000011"><a xlink:title=" ">
<path fill="none" stroke="#63b8ff" d="M819.88,-439.9C823.73,-397.27 834.87,-206.69 738,-110 688.56,-60.65 609.76,-31.93 565.98,-18.94"/>
<polygon fill="#63b8ff" stroke="#63b8ff" points="566.73,-15.51 556.15,-16.11 564.8,-22.24 566.73,-15.51"/>
</a>
</g>
</g>
<!-- Node18 -->
<g id="Node000018" class="node">
<title>Node18</title>
<g id="a_Node000018"><a xlink:title=" ">
<polygon fill="#e0e0e0" stroke="#999999" points="1007,-404 959,-404 959,-385 1007,-385 1007,-404"/>
<text text-anchor="middle" x="983" y="-392" font-family="Helvetica,sans-Serif" font-size="10.00">iosfwd</text>
</a>
</g>
</g>
<!-- Node42&#45;&gt;Node18 -->
<g id="edge49_Node000042_Node000018" class="edge">
<title>Node42&#45;&gt;Node18</title>
<g id="a_edge49_Node000042_Node000018"><a xlink:title=" ">
<path fill="none" stroke="#63b8ff" d="M845.35,-439.98C873.5,-430.89 918.21,-416.44 948.99,-406.49"/>
<polygon fill="#63b8ff" stroke="#63b8ff" points="950.41,-409.71 958.85,-403.3 948.26,-403.05 950.41,-409.71"/>
</a>
</g>
</g>
<!-- Node43 -->
<g id="Node000043" class="node">
<title>Node43</title>
<g id="a_Node000043"><a xlink:title=" ">
<polygon fill="#e0e0e0" stroke="#999999" points="941,-404 847,-404 847,-385 941,-385 941,-404"/>
<text text-anchor="middle" x="894" y="-392" font-family="Helvetica,sans-Serif" font-size="10.00">big&#45;int/bigint.hh</text>
</a>
</g>
</g>
<!-- Node42&#45;&gt;Node43 -->
<g id="edge51_Node000042_Node000043" class="edge">
<title>Node42&#45;&gt;Node43</title>
<g id="a_edge51_Node000042_Node000043"><a xlink:title=" ">
<path fill="none" stroke="#63b8ff" d="M831.05,-439.98C842.46,-431.92 859.83,-419.65 873.43,-410.03"/>
<polygon fill="#63b8ff" stroke="#63b8ff" points="875.58,-412.8 881.73,-404.17 871.54,-407.08 875.58,-412.8"/>
</a>
</g>
</g>
<!-- Node44&#45;&gt;Node12 -->
<g id="edge55_Node000044_Node000012" class="edge">
<title>Node44&#45;&gt;Node12</title>
<g id="a_edge55_Node000044_Node000012"><a xlink:title=" ">
<path fill="none" stroke="#63b8ff" d="M829.07,-613.63C902.71,-611.03 1035,-594.03 1035,-505.5 1035,-505.5 1035,-505.5 1035,-448.5 1035,-235.91 738.97,-114.01 633.65,-77.37"/>
<polygon fill="#63b8ff" stroke="#63b8ff" points="634.66,-74.01 624.07,-74.09 632.4,-80.64 634.66,-74.01"/>
</a>
</g>
</g>
<!-- Node44&#45;&gt;Node38 -->
<g id="edge57_Node000044_Node000038" class="edge">
<title>Node44&#45;&gt;Node38</title>
<g id="a_edge57_Node000044_Node000038"><a xlink:title=" ">
<path fill="none" stroke="#63b8ff" d="M755.29,-604.98C728.55,-596.13 686.47,-582.19 656.55,-572.28"/>
<polygon fill="#63b8ff" stroke="#63b8ff" points="657.5,-568.9 646.91,-569.08 655.3,-575.55 657.5,-568.9"/>
</a>
</g>
</g>
<!-- Node44&#45;&gt;Node42 -->
<g id="edge56_Node000044_Node000042" class="edge">
<title>Node44&#45;&gt;Node42</title>
<g id="a_edge56_Node000044_Node000042"><a xlink:title=" ">
<path fill="none" stroke="#63b8ff" d="M783.04,-604.74C789,-579.2 806.43,-504.43 814.63,-469.23"/>
<polygon fill="#63b8ff" stroke="#63b8ff" points="818.08,-469.84 816.95,-459.31 811.27,-468.25 818.08,-469.84"/>
</a>
</g>
</g>
<!-- Node45 -->
<g id="Node000045" class="node">
<title>Node45</title>
<g id="a_Node000045"><a xlink:title=" ">
<polygon fill="#e0e0e0" stroke="#999999" points="853,-569 809,-569 809,-550 853,-550 853,-569"/>
<text text-anchor="middle" x="831" y="-557" font-family="Helvetica,sans-Serif" font-size="10.00">limits</text>
</a>
</g>
</g>
<!-- Node44&#45;&gt;Node45 -->
<g id="edge58_Node000044_Node000045" class="edge">
<title>Node44&#45;&gt;Node45</title>
<g id="a_edge58_Node000044_Node000045"><a xlink:title=" ">
<path fill="none" stroke="#63b8ff" d="M789.26,-604.75C796.46,-597.11 807.11,-585.82 815.85,-576.56"/>
<polygon fill="#63b8ff" stroke="#63b8ff" points="818.58,-578.76 822.9,-569.09 813.49,-573.96 818.58,-578.76"/>
</a>
</g>
</g>
<!-- Node47 -->
<g id="Node000047" class="node">
<title>Node47</title>
<g id="a_Node000047"><a xlink:href="bitvector__types_8h.html" target="_top" xlink:title="Pre&#45;defined bitvector types.">
<polygon fill="white" stroke="#666666" points="473,-569 353,-569 353,-550 473,-550 473,-569"/>
<text text-anchor="middle" x="413" y="-557" font-family="Helvetica,sans-Serif" font-size="10.00">util/bitvector_types.h</text>
</a>
</g>
</g>
<!-- Node46&#45;&gt;Node47 -->
<g id="edge60_Node000046_Node000047" class="edge">
<title>Node46&#45;&gt;Node47</title>
<g id="a_edge60_Node000046_Node000047"><a xlink:title=" ">
<path fill="none" stroke="#63b8ff" d="M374.6,-604.75C381.16,-597.18 390.82,-586.05 398.81,-576.84"/>
<polygon fill="#63b8ff" stroke="#63b8ff" points="401.63,-578.94 405.55,-569.09 396.35,-574.35 401.63,-578.94"/>
</a>
</g>
</g>
<!-- Node47&#45;&gt;Node41 -->
<g id="edge61_Node000047_Node000041" class="edge">
<title>Node47&#45;&gt;Node41</title>
<g id="a_edge61_Node000047_Node000041"><a xlink:title=" ">
<path fill="none" stroke="#63b8ff" d="M433.08,-549.98C453.37,-541.38 484.96,-527.99 508.17,-518.15"/>
<polygon fill="#63b8ff" stroke="#63b8ff" points="509.71,-521.3 517.55,-514.17 506.98,-514.85 509.71,-521.3"/>
</a>
</g>
</g>
</g>
</svg>
