<?xml version="1.0" encoding="UTF-8" standalone="no"?>
<!DOCTYPE svg PUBLIC "-//W3C//DTD SVG 1.1//EN"
 "http://www.w3.org/Graphics/SVG/1.1/DTD/svg11.dtd">
<!-- Generated by graphviz version 2.43.0 (0)
 -->
<!-- Title: /home/runner/work/cbmc/cbmc/src/solvers/qbf/qbf_squolem_core.cpp Pages: 1 -->
<svg width="1049pt" height="775pt"
 viewBox="0.00 0.00 1048.76 775.00" xmlns="http://www.w3.org/2000/svg" xmlns:xlink="http://www.w3.org/1999/xlink">
<g id="graph0" class="graph" transform="scale(1 1) rotate(0) translate(4 771)">
<title>/home/runner/work/cbmc/cbmc/src/solvers/qbf/qbf_squolem_core.cpp</title>
<!-- Node1 -->
<g id="Node000001" class="node">
<title>Node1</title>
<g id="a_Node000001"><a xlink:title="Squolem Backend (with proofs)">
<polygon fill="#999999" stroke="#666666" points="630.76,-767 492.76,-767 492.76,-726 630.76,-726 630.76,-767"/>
<text text-anchor="start" x="500.76" y="-755" font-family="Helvetica,sans-Serif" font-size="10.00">/home/runner/work/cbmc</text>
<text text-anchor="start" x="500.76" y="-744" font-family="Helvetica,sans-Serif" font-size="10.00">/cbmc/src/solvers/qbf</text>
<text text-anchor="middle" x="561.76" y="-733" font-family="Helvetica,sans-Serif" font-size="10.00">/qbf_squolem_core.cpp</text>
</a>
</g>
</g>
<!-- Node2 -->
<g id="Node000002" class="node">
<title>Node2</title>
<g id="a_Node000002"><a xlink:href="qbf__squolem__core_8h.html" target="_top" xlink:title="Squolem Backend (with Proofs)">
<polygon fill="white" stroke="#666666" points="298.26,-690 183.26,-690 183.26,-671 298.26,-671 298.26,-690"/>
<text text-anchor="middle" x="240.76" y="-678" font-family="Helvetica,sans-Serif" font-size="10.00">qbf_squolem_core.h</text>
</a>
</g>
</g>
<!-- Node1&#45;&gt;Node2 -->
<g id="edge1_Node000001_Node000002" class="edge">
<title>Node1&#45;&gt;Node2</title>
<g id="a_edge1_Node000001_Node000002"><a xlink:title=" ">
<path fill="none" stroke="#63b8ff" d="M492.5,-731.69C432.94,-719.82 348.27,-702.94 293.92,-692.1"/>
<polygon fill="#63b8ff" stroke="#63b8ff" points="294.3,-688.61 283.81,-690.08 292.93,-695.47 294.3,-688.61"/>
</a>
</g>
</g>
<!-- Node30 -->
<g id="Node000030" class="node">
<title>Node30</title>
<g id="a_Node000030"><a xlink:title=" ">
<polygon fill="#e0e0e0" stroke="#999999" points="502.76,-690 438.76,-690 438.76,-671 502.76,-671 502.76,-690"/>
<text text-anchor="middle" x="470.76" y="-678" font-family="Helvetica,sans-Serif" font-size="10.00">algorithm</text>
</a>
</g>
</g>
<!-- Node1&#45;&gt;Node30 -->
<g id="edge39_Node000001_Node000030" class="edge">
<title>Node1&#45;&gt;Node30</title>
<g id="a_edge39_Node000001_Node000030"><a xlink:title=" ">
<path fill="none" stroke="#63b8ff" d="M533.96,-725.95C520.33,-716.37 504.2,-705.02 491.64,-696.19"/>
<polygon fill="#63b8ff" stroke="#63b8ff" points="493.41,-693.15 483.22,-690.26 489.38,-698.88 493.41,-693.15"/>
</a>
</g>
</g>
<!-- Node49 -->
<g id="Node000049" class="node">
<title>Node49</title>
<g id="a_Node000049"><a xlink:href="std__expr_8h.html" target="_top" xlink:title="API to expression classes.">
<polygon fill="white" stroke="#666666" points="716.76,-580 630.76,-580 630.76,-561 716.76,-561 716.76,-580"/>
<text text-anchor="middle" x="673.76" y="-568" font-family="Helvetica,sans-Serif" font-size="10.00">util/std_expr.h</text>
</a>
</g>
</g>
<!-- Node1&#45;&gt;Node49 -->
<g id="edge40_Node000001_Node000049" class="edge">
<title>Node1&#45;&gt;Node49</title>
<g id="a_edge40_Node000001_Node000049"><a xlink:title=" ">
<path fill="none" stroke="#63b8ff" d="M581.58,-725.97C591.33,-715.77 602.87,-702.78 611.76,-690 618.04,-680.97 649.02,-620.33 664.67,-589.47"/>
<polygon fill="#63b8ff" stroke="#63b8ff" points="667.94,-590.77 669.33,-580.27 661.69,-587.6 667.94,-590.77"/>
</a>
</g>
</g>
<!-- Node55 -->
<g id="Node000055" class="node">
<title>Node55</title>
<g id="a_Node000055"><a xlink:href="arith__tools_8h.html" target="_top" xlink:title=" ">
<polygon fill="white" stroke="#666666" points="756.76,-635 660.76,-635 660.76,-616 756.76,-616 756.76,-635"/>
<text text-anchor="middle" x="708.76" y="-623" font-family="Helvetica,sans-Serif" font-size="10.00">util/arith_tools.h</text>
</a>
</g>
</g>
<!-- Node1&#45;&gt;Node55 -->
<g id="edge58_Node000001_Node000055" class="edge">
<title>Node1&#45;&gt;Node55</title>
<g id="a_edge58_Node000001_Node000055"><a xlink:title=" ">
<path fill="none" stroke="#63b8ff" d="M595.63,-725.76C611.71,-715.81 630.83,-703.09 646.76,-690 664.5,-675.42 682.6,-656.29 694.63,-642.85"/>
<polygon fill="#63b8ff" stroke="#63b8ff" points="697.29,-645.13 701.28,-635.31 692.04,-640.5 697.29,-645.13"/>
</a>
</g>
</g>
<!-- Node57 -->
<g id="Node000057" class="node">
<title>Node57</title>
<g id="a_Node000057"><a xlink:href="c__types_8h.html" target="_top" xlink:title=" ">
<polygon fill="white" stroke="#666666" points="602.76,-690 520.76,-690 520.76,-671 602.76,-671 602.76,-690"/>
<text text-anchor="middle" x="561.76" y="-678" font-family="Helvetica,sans-Serif" font-size="10.00">util/c_types.h</text>
</a>
</g>
</g>
<!-- Node1&#45;&gt;Node57 -->
<g id="edge63_Node000001_Node000057" class="edge">
<title>Node1&#45;&gt;Node57</title>
<g id="a_edge63_Node000001_Node000057"><a xlink:title=" ">
<path fill="none" stroke="#63b8ff" d="M561.76,-725.95C561.76,-717.85 561.76,-708.5 561.76,-700.47"/>
<polygon fill="#63b8ff" stroke="#63b8ff" points="565.26,-700.26 561.76,-690.26 558.26,-700.26 565.26,-700.26"/>
</a>
</g>
</g>
<!-- Node3 -->
<g id="Node000003" class="node">
<title>Node3</title>
<g id="a_Node000003"><a xlink:title=" ">
<polygon fill="#e0e0e0" stroke="#999999" points="175.76,-635 5.76,-635 5.76,-616 175.76,-616 175.76,-635"/>
<text text-anchor="middle" x="90.76" y="-623" font-family="Helvetica,sans-Serif" font-size="10.00">quannon/squolem2/squolem2.h</text>
</a>
</g>
</g>
<!-- Node2&#45;&gt;Node3 -->
<g id="edge2_Node000002_Node000003" class="edge">
<title>Node2&#45;&gt;Node3</title>
<g id="a_edge2_Node000002_Node000003"><a xlink:title=" ">
<path fill="none" stroke="#63b8ff" d="M216.66,-670.98C191.88,-662.23 153.06,-648.51 125.07,-638.62"/>
<polygon fill="#63b8ff" stroke="#63b8ff" points="125.89,-635.2 115.3,-635.17 123.56,-641.8 125.89,-635.2"/>
</a>
</g>
</g>
<!-- Node4 -->
<g id="Node000004" class="node">
<title>Node4</title>
<g id="a_Node000004"><a xlink:href="qdimacs__core_8h.html" target="_top" xlink:title=" ">
<polygon fill="white" stroke="#666666" points="287.26,-635 194.26,-635 194.26,-616 287.26,-616 287.26,-635"/>
<text text-anchor="middle" x="240.76" y="-623" font-family="Helvetica,sans-Serif" font-size="10.00">qdimacs_core.h</text>
</a>
</g>
</g>
<!-- Node2&#45;&gt;Node4 -->
<g id="edge3_Node000002_Node000004" class="edge">
<title>Node2&#45;&gt;Node4</title>
<g id="a_edge3_Node000002_Node000004"><a xlink:title=" ">
<path fill="none" stroke="#63b8ff" d="M240.76,-670.75C240.76,-663.8 240.76,-653.85 240.76,-645.13"/>
<polygon fill="#63b8ff" stroke="#63b8ff" points="244.26,-645.09 240.76,-635.09 237.26,-645.09 244.26,-645.09"/>
</a>
</g>
</g>
<!-- Node5 -->
<g id="Node000005" class="node">
<title>Node5</title>
<g id="a_Node000005"><a xlink:title=" ">
<polygon fill="#e0e0e0" stroke="#999999" points="273.76,-580 235.76,-580 235.76,-561 273.76,-561 273.76,-580"/>
<text text-anchor="middle" x="254.76" y="-568" font-family="Helvetica,sans-Serif" font-size="10.00">map</text>
</a>
</g>
</g>
<!-- Node4&#45;&gt;Node5 -->
<g id="edge4_Node000004_Node000005" class="edge">
<title>Node4&#45;&gt;Node5</title>
<g id="a_edge4_Node000004_Node000005"><a xlink:title=" ">
<path fill="none" stroke="#63b8ff" d="M243.07,-615.75C244.93,-608.72 247.59,-598.62 249.91,-589.84"/>
<polygon fill="#63b8ff" stroke="#63b8ff" points="253.32,-590.65 252.49,-580.09 246.55,-588.86 253.32,-590.65"/>
</a>
</g>
</g>
<!-- Node6 -->
<g id="Node000006" class="node">
<title>Node6</title>
<g id="a_Node000006"><a xlink:href="expr_8h.html" target="_top" xlink:title=" ">
<polygon fill="white" stroke="#666666" points="712.26,-404 647.26,-404 647.26,-385 712.26,-385 712.26,-404"/>
<text text-anchor="middle" x="679.76" y="-392" font-family="Helvetica,sans-Serif" font-size="10.00">util/expr.h</text>
</a>
</g>
</g>
<!-- Node4&#45;&gt;Node6 -->
<g id="edge5_Node000004_Node000006" class="edge">
<title>Node4&#45;&gt;Node6</title>
<g id="a_edge5_Node000004_Node000006"><a xlink:title=" ">
<path fill="none" stroke="#63b8ff" d="M252.9,-615.97C293.4,-587.8 428.17,-496.36 549.76,-440 578.8,-426.54 613.12,-414.96 639.2,-406.99"/>
<polygon fill="#63b8ff" stroke="#63b8ff" points="640.54,-410.24 649.11,-404.02 638.53,-403.54 640.54,-410.24"/>
</a>
</g>
</g>
<!-- Node40 -->
<g id="Node000040" class="node">
<title>Node40</title>
<g id="a_Node000040"><a xlink:href="qdimacs__cnf_8h.html" target="_top" xlink:title=" ">
<polygon fill="white" stroke="#666666" points="217.76,-580 131.76,-580 131.76,-561 217.76,-561 217.76,-580"/>
<text text-anchor="middle" x="174.76" y="-568" font-family="Helvetica,sans-Serif" font-size="10.00">qdimacs_cnf.h</text>
</a>
</g>
</g>
<!-- Node4&#45;&gt;Node40 -->
<g id="edge30_Node000004_Node000040" class="edge">
<title>Node4&#45;&gt;Node40</title>
<g id="a_edge30_Node000004_Node000040"><a xlink:title=" ">
<path fill="none" stroke="#63b8ff" d="M230.16,-615.98C220.3,-608.07 205.41,-596.11 193.54,-586.58"/>
<polygon fill="#63b8ff" stroke="#63b8ff" points="195.55,-583.7 185.56,-580.17 191.16,-589.16 195.55,-583.7"/>
</a>
</g>
</g>
<!-- Node7 -->
<g id="Node000007" class="node">
<title>Node7</title>
<g id="a_Node000007"><a xlink:href="as__const_8h.html" target="_top" xlink:title=" ">
<polygon fill="white" stroke="#666666" points="700.76,-349 632.76,-349 632.76,-330 700.76,-330 700.76,-349"/>
<text text-anchor="middle" x="666.76" y="-337" font-family="Helvetica,sans-Serif" font-size="10.00">as_const.h</text>
</a>
</g>
</g>
<!-- Node6&#45;&gt;Node7 -->
<g id="edge6_Node000006_Node000007" class="edge">
<title>Node6&#45;&gt;Node7</title>
<g id="a_edge6_Node000006_Node000007"><a xlink:title=" ">
<path fill="none" stroke="#63b8ff" d="M677.61,-384.75C675.89,-377.72 673.41,-367.62 671.26,-358.84"/>
<polygon fill="#63b8ff" stroke="#63b8ff" points="674.65,-357.97 668.87,-349.09 667.85,-359.63 674.65,-357.97"/>
</a>
</g>
</g>
<!-- Node8 -->
<g id="Node000008" class="node">
<title>Node8</title>
<g id="a_Node000008"><a xlink:href="type_8h.html" target="_top" xlink:title="Defines typet, type_with_subtypet and type_with_subtypest.">
<polygon fill="white" stroke="#666666" points="614.26,-349 567.26,-349 567.26,-330 614.26,-330 614.26,-349"/>
<text text-anchor="middle" x="590.76" y="-337" font-family="Helvetica,sans-Serif" font-size="10.00">type.h</text>
</a>
</g>
</g>
<!-- Node6&#45;&gt;Node8 -->
<g id="edge7_Node000006_Node000008" class="edge">
<title>Node6&#45;&gt;Node8</title>
<g id="a_edge7_Node000006_Node000008"><a xlink:title=" ">
<path fill="none" stroke="#63b8ff" d="M665.46,-384.98C651.66,-376.77 630.52,-364.18 614.25,-354.49"/>
<polygon fill="#63b8ff" stroke="#63b8ff" points="615.7,-351.28 605.32,-349.17 612.12,-357.29 615.7,-351.28"/>
</a>
</g>
</g>
<!-- Node36 -->
<g id="Node000036" class="node">
<title>Node36</title>
<g id="a_Node000036"><a xlink:href="validation__mode_8h.html" target="_top" xlink:title=" ">
<polygon fill="white" stroke="#666666" points="766.26,-239 659.26,-239 659.26,-220 766.26,-220 766.26,-239"/>
<text text-anchor="middle" x="712.76" y="-227" font-family="Helvetica,sans-Serif" font-size="10.00">validation_mode.h</text>
</a>
</g>
</g>
<!-- Node6&#45;&gt;Node36 -->
<g id="edge28_Node000006_Node000036" class="edge">
<title>Node6&#45;&gt;Node36</title>
<g id="a_edge28_Node000006_Node000036"><a xlink:title=" ">
<path fill="none" stroke="#63b8ff" d="M690.3,-384.86C699.99,-376.49 714.25,-363.03 723.76,-349 738.72,-326.92 742.31,-320.11 747.76,-294 749.48,-285.73 750.52,-282.98 747.76,-275 744.08,-264.38 736.71,-254.38 729.68,-246.55"/>
<polygon fill="#63b8ff" stroke="#63b8ff" points="732.1,-244.02 722.64,-239.25 727.06,-248.88 732.1,-244.02"/>
</a>
</g>
</g>
<!-- Node37 -->
<g id="Node000037" class="node">
<title>Node37</title>
<g id="a_Node000037"><a xlink:href="validate__types_8h.html" target="_top" xlink:title=" ">
<polygon fill="white" stroke="#666666" points="738.76,-294 640.76,-294 640.76,-275 738.76,-275 738.76,-294"/>
<text text-anchor="middle" x="689.76" y="-282" font-family="Helvetica,sans-Serif" font-size="10.00">validate_types.h</text>
</a>
</g>
</g>
<!-- Node6&#45;&gt;Node37 -->
<g id="edge27_Node000006_Node000037" class="edge">
<title>Node6&#45;&gt;Node37</title>
<g id="a_edge27_Node000006_Node000037"><a xlink:title=" ">
<path fill="none" stroke="#63b8ff" d="M687.97,-384.8C695.3,-376.38 705.51,-362.9 709.76,-349 714.55,-333.32 707.89,-315.52 701,-302.77"/>
<polygon fill="#63b8ff" stroke="#63b8ff" points="703.98,-300.93 695.87,-294.11 697.96,-304.5 703.98,-300.93"/>
</a>
</g>
</g>
<!-- Node38 -->
<g id="Node000038" class="node">
<title>Node38</title>
<g id="a_Node000038"><a xlink:href="validate__expressions_8h.html" target="_top" xlink:title=" ">
<polygon fill="white" stroke="#666666" points="549.26,-349 420.26,-349 420.26,-330 549.26,-330 549.26,-349"/>
<text text-anchor="middle" x="484.76" y="-337" font-family="Helvetica,sans-Serif" font-size="10.00">validate_expressions.h</text>
</a>
</g>
</g>
<!-- Node6&#45;&gt;Node38 -->
<g id="edge26_Node000006_Node000038" class="edge">
<title>Node6&#45;&gt;Node38</title>
<g id="a_edge26_Node000006_Node000038"><a xlink:title=" ">
<path fill="none" stroke="#63b8ff" d="M648.43,-384.98C615.27,-375.97 562.76,-361.7 526.2,-351.76"/>
<polygon fill="#63b8ff" stroke="#63b8ff" points="526.9,-348.33 516.34,-349.08 525.07,-355.08 526.9,-348.33"/>
</a>
</g>
</g>
<!-- Node39 -->
<g id="Node000039" class="node">
<title>Node39</title>
<g id="a_Node000039"><a xlink:title=" ">
<polygon fill="#e0e0e0" stroke="#999999" points="860.26,-349 795.26,-349 795.26,-330 860.26,-330 860.26,-349"/>
<text text-anchor="middle" x="827.76" y="-337" font-family="Helvetica,sans-Serif" font-size="10.00">functional</text>
</a>
</g>
</g>
<!-- Node6&#45;&gt;Node39 -->
<g id="edge29_Node000006_Node000039" class="edge">
<title>Node6&#45;&gt;Node39</title>
<g id="a_edge29_Node000006_Node000039"><a xlink:title=" ">
<path fill="none" stroke="#63b8ff" d="M703.54,-384.98C727.99,-376.23 766.29,-362.51 793.91,-352.62"/>
<polygon fill="#63b8ff" stroke="#63b8ff" points="795.31,-355.84 803.55,-349.17 792.95,-349.25 795.31,-355.84"/>
</a>
</g>
</g>
<!-- Node9 -->
<g id="Node000009" class="node">
<title>Node9</title>
<g id="a_Node000009"><a xlink:href="source__location_8h.html" target="_top" xlink:title=" ">
<polygon fill="white" stroke="#666666" points="482.76,-184 380.76,-184 380.76,-165 482.76,-165 482.76,-184"/>
<text text-anchor="middle" x="431.76" y="-172" font-family="Helvetica,sans-Serif" font-size="10.00">source_location.h</text>
</a>
</g>
</g>
<!-- Node8&#45;&gt;Node9 -->
<g id="edge8_Node000008_Node000009" class="edge">
<title>Node8&#45;&gt;Node9</title>
<g id="a_edge8_Node000008_Node000009"><a xlink:title=" ">
<path fill="none" stroke="#63b8ff" d="M568.64,-329.87C551.22,-322.3 527.09,-310 509.76,-294 477.47,-264.19 452.3,-218.37 440.01,-193.34"/>
<polygon fill="#63b8ff" stroke="#63b8ff" points="443.15,-191.79 435.68,-184.27 436.83,-194.81 443.15,-191.79"/>
</a>
</g>
</g>
<!-- Node34 -->
<g id="Node000034" class="node">
<title>Node34</title>
<g id="a_Node000034"><a xlink:href="validate_8h.html" target="_top" xlink:title=" ">
<polygon fill="white" stroke="#666666" points="584.26,-294 519.26,-294 519.26,-275 584.26,-275 584.26,-294"/>
<text text-anchor="middle" x="551.76" y="-282" font-family="Helvetica,sans-Serif" font-size="10.00">validate.h</text>
</a>
</g>
</g>
<!-- Node8&#45;&gt;Node34 -->
<g id="edge17_Node000008_Node000034" class="edge">
<title>Node8&#45;&gt;Node34</title>
<g id="a_edge17_Node000008_Node000034"><a xlink:title=" ">
<path fill="none" stroke="#63b8ff" d="M584.32,-329.75C578.87,-322.34 570.89,-311.5 564.2,-302.41"/>
<polygon fill="#63b8ff" stroke="#63b8ff" points="566.83,-300.07 558.08,-294.09 561.19,-304.22 566.83,-300.07"/>
</a>
</g>
</g>
<!-- Node8&#45;&gt;Node36 -->
<g id="edge25_Node000008_Node000036" class="edge">
<title>Node8&#45;&gt;Node36</title>
<g id="a_edge25_Node000008_Node000036"><a xlink:title=" ">
<path fill="none" stroke="#63b8ff" d="M594.68,-329.73C600.93,-316.51 614.28,-291.28 631.76,-275 646.05,-261.69 665.07,-250.97 681.08,-243.4"/>
<polygon fill="#63b8ff" stroke="#63b8ff" points="682.93,-246.4 690.6,-239.09 680.04,-240.02 682.93,-246.4"/>
</a>
</g>
</g>
<!-- Node8&#45;&gt;Node37 -->
<g id="edge24_Node000008_Node000037" class="edge">
<title>Node8&#45;&gt;Node37</title>
<g id="a_edge24_Node000008_Node000037"><a xlink:title=" ">
<path fill="none" stroke="#63b8ff" d="M606.67,-329.98C622.3,-321.61 646.41,-308.7 664.64,-298.95"/>
<polygon fill="#63b8ff" stroke="#63b8ff" points="666.4,-301.98 673.56,-294.17 663.1,-295.8 666.4,-301.98"/>
</a>
</g>
</g>
<!-- Node10 -->
<g id="Node000010" class="node">
<title>Node10</title>
<g id="a_Node000010"><a xlink:href="deprecate_8h.html" target="_top" xlink:title=" ">
<polygon fill="white" stroke="#666666" points="352.76,-129 278.76,-129 278.76,-110 352.76,-110 352.76,-129"/>
<text text-anchor="middle" x="315.76" y="-117" font-family="Helvetica,sans-Serif" font-size="10.00">deprecate.h</text>
</a>
</g>
</g>
<!-- Node9&#45;&gt;Node10 -->
<g id="edge9_Node000009_Node000010" class="edge">
<title>Node9&#45;&gt;Node10</title>
<g id="a_edge9_Node000009_Node000010"><a xlink:title=" ">
<path fill="none" stroke="#63b8ff" d="M413.12,-164.98C394.46,-156.46 365.51,-143.23 344.02,-133.41"/>
<polygon fill="#63b8ff" stroke="#63b8ff" points="345.29,-130.14 334.74,-129.17 342.38,-136.51 345.29,-130.14"/>
</a>
</g>
</g>
<!-- Node11 -->
<g id="Node000011" class="node">
<title>Node11</title>
<g id="a_Node000011"><a xlink:href="irep_8h.html" target="_top" xlink:title=" ">
<polygon fill="#fff0f0" stroke="red" points="452.76,-129 408.76,-129 408.76,-110 452.76,-110 452.76,-129"/>
<text text-anchor="middle" x="430.76" y="-117" font-family="Helvetica,sans-Serif" font-size="10.00">irep.h</text>
</a>
</g>
</g>
<!-- Node9&#45;&gt;Node11 -->
<g id="edge10_Node000009_Node000011" class="edge">
<title>Node9&#45;&gt;Node11</title>
<g id="a_edge10_Node000009_Node000011"><a xlink:title=" ">
<path fill="none" stroke="#63b8ff" d="M431.59,-164.75C431.46,-157.8 431.28,-147.85 431.11,-139.13"/>
<polygon fill="#63b8ff" stroke="#63b8ff" points="434.61,-139.02 430.92,-129.09 427.61,-139.15 434.61,-139.02"/>
</a>
</g>
</g>
<!-- Node12 -->
<g id="Node000012" class="node">
<title>Node12</title>
<g id="a_Node000012"><a xlink:title=" ">
<polygon fill="#e0e0e0" stroke="#999999" points="452.76,-19 408.76,-19 408.76,0 452.76,0 452.76,-19"/>
<text text-anchor="middle" x="430.76" y="-7" font-family="Helvetica,sans-Serif" font-size="10.00">string</text>
</a>
</g>
</g>
<!-- Node9&#45;&gt;Node12 -->
<g id="edge16_Node000009_Node000012" class="edge">
<title>Node9&#45;&gt;Node12</title>
<g id="a_edge16_Node000009_Node000012"><a xlink:title=" ">
<path fill="none" stroke="#63b8ff" d="M423.01,-164.9C415.2,-156.56 404.31,-143.13 399.76,-129 388.35,-93.58 407.02,-51.21 419.99,-27.94"/>
<polygon fill="#63b8ff" stroke="#63b8ff" points="423.06,-29.62 425.09,-19.22 417.02,-26.09 423.06,-29.62"/>
</a>
</g>
</g>
<!-- Node33 -->
<g id="Node000033" class="node">
<title>Node33</title>
<g id="a_Node000033"><a xlink:title=" ">
<polygon fill="#e0e0e0" stroke="#999999" points="526.76,-129 470.76,-129 470.76,-110 526.76,-110 526.76,-129"/>
<text text-anchor="middle" x="498.76" y="-117" font-family="Helvetica,sans-Serif" font-size="10.00">optional</text>
</a>
</g>
</g>
<!-- Node9&#45;&gt;Node33 -->
<g id="edge15_Node000009_Node000033" class="edge">
<title>Node9&#45;&gt;Node33</title>
<g id="a_edge15_Node000009_Node000033"><a xlink:title=" ">
<path fill="none" stroke="#63b8ff" d="M442.52,-164.98C452.53,-157.07 467.65,-145.11 479.69,-135.58"/>
<polygon fill="#63b8ff" stroke="#63b8ff" points="482.13,-138.12 487.8,-129.17 477.78,-132.63 482.13,-138.12"/>
</a>
</g>
</g>
<!-- Node11&#45;&gt;Node12 -->
<g id="edge11_Node000011_Node000012" class="edge">
<title>Node11&#45;&gt;Node12</title>
<g id="a_edge11_Node000011_Node000012"><a xlink:title=" ">
<path fill="none" stroke="#63b8ff" d="M430.76,-109.66C430.76,-92.17 430.76,-52.8 430.76,-29.27"/>
<polygon fill="#63b8ff" stroke="#63b8ff" points="434.26,-29.16 430.76,-19.16 427.26,-29.16 434.26,-29.16"/>
</a>
</g>
</g>
<!-- Node14 -->
<g id="Node000014" class="node">
<title>Node14</title>
<g id="a_Node000014"><a xlink:href="src_2util_2invariant_8h.html" target="_top" xlink:title=" ">
<polygon fill="#fff0f0" stroke="red" points="923.26,-74 854.26,-74 854.26,-55 923.26,-55 923.26,-74"/>
<text text-anchor="middle" x="888.76" y="-62" font-family="Helvetica,sans-Serif" font-size="10.00">invariant.h</text>
</a>
</g>
</g>
<!-- Node11&#45;&gt;Node14 -->
<g id="edge12_Node000011_Node000014" class="edge">
<title>Node11&#45;&gt;Node14</title>
<g id="a_edge12_Node000011_Node000014"><a xlink:title=" ">
<path fill="none" stroke="#63b8ff" d="M453.01,-111.93C455.94,-111.2 458.91,-110.54 461.76,-110 599.58,-84.1 765.47,-72.24 843.72,-67.76"/>
<polygon fill="#63b8ff" stroke="#63b8ff" points="844.38,-71.23 854.17,-67.18 843.99,-64.24 844.38,-71.23"/>
</a>
</g>
</g>
<!-- Node14&#45;&gt;Node12 -->
<g id="edge13_Node000014_Node000012" class="edge">
<title>Node14&#45;&gt;Node12</title>
<g id="a_edge13_Node000014_Node000012"><a xlink:title=" ">
<path fill="none" stroke="#63b8ff" d="M853.96,-59.47C767.97,-49.52 546.39,-23.88 463.08,-14.24"/>
<polygon fill="#63b8ff" stroke="#63b8ff" points="463.28,-10.74 452.94,-13.07 462.47,-17.69 463.28,-10.74"/>
</a>
</g>
</g>
<!-- Node17 -->
<g id="Node000017" class="node">
<title>Node17</title>
<g id="a_Node000017"><a xlink:title=" ">
<polygon fill="#e0e0e0" stroke="#999999" points="923.26,-19 854.26,-19 854.26,0 923.26,0 923.26,-19"/>
<text text-anchor="middle" x="888.76" y="-7" font-family="Helvetica,sans-Serif" font-size="10.00">type_traits</text>
</a>
</g>
</g>
<!-- Node14&#45;&gt;Node17 -->
<g id="edge14_Node000014_Node000017" class="edge">
<title>Node14&#45;&gt;Node17</title>
<g id="a_edge14_Node000014_Node000017"><a xlink:title=" ">
<path fill="none" stroke="#63b8ff" d="M888.76,-54.75C888.76,-47.8 888.76,-37.85 888.76,-29.13"/>
<polygon fill="#63b8ff" stroke="#63b8ff" points="892.26,-29.09 888.76,-19.09 885.26,-29.09 892.26,-29.09"/>
</a>
</g>
</g>
<!-- Node34&#45;&gt;Node17 -->
<g id="edge18_Node000034_Node000017" class="edge">
<title>Node34&#45;&gt;Node17</title>
<g id="a_edge18_Node000034_Node000017"><a xlink:title=" ">
<path fill="none" stroke="#63b8ff" d="M568.29,-274.86C581.55,-267.13 599.73,-254.62 610.76,-239 627.83,-214.83 630.76,-205.09 630.76,-175.5 630.76,-175.5 630.76,-175.5 630.76,-118.5 630.76,-27.21 769.91,-11.76 843.82,-9.99"/>
<polygon fill="#63b8ff" stroke="#63b8ff" points="844.29,-13.48 854.23,-9.82 844.18,-6.48 844.29,-13.48"/>
</a>
</g>
</g>
<!-- Node35 -->
<g id="Node000035" class="node">
<title>Node35</title>
<g id="a_Node000035"><a xlink:href="exception__utils_8h.html" target="_top" xlink:title=" ">
<polygon fill="white" stroke="#666666" points="601.76,-239 501.76,-239 501.76,-220 601.76,-220 601.76,-239"/>
<text text-anchor="middle" x="551.76" y="-227" font-family="Helvetica,sans-Serif" font-size="10.00">exception_utils.h</text>
</a>
</g>
</g>
<!-- Node34&#45;&gt;Node35 -->
<g id="edge19_Node000034_Node000035" class="edge">
<title>Node34&#45;&gt;Node35</title>
<g id="a_edge19_Node000034_Node000035"><a xlink:title=" ">
<path fill="none" stroke="#63b8ff" d="M551.76,-274.75C551.76,-267.8 551.76,-257.85 551.76,-249.13"/>
<polygon fill="#63b8ff" stroke="#63b8ff" points="555.26,-249.09 551.76,-239.09 548.26,-249.09 555.26,-249.09"/>
</a>
</g>
</g>
<!-- Node34&#45;&gt;Node36 -->
<g id="edge23_Node000034_Node000036" class="edge">
<title>Node34&#45;&gt;Node36</title>
<g id="a_edge23_Node000034_Node000036"><a xlink:title=" ">
<path fill="none" stroke="#63b8ff" d="M577.63,-274.98C604.54,-266.13 646.88,-252.19 676.99,-242.28"/>
<polygon fill="#63b8ff" stroke="#63b8ff" points="678.29,-245.53 686.69,-239.08 676.1,-238.88 678.29,-245.53"/>
</a>
</g>
</g>
<!-- Node35&#45;&gt;Node9 -->
<g id="edge22_Node000035_Node000009" class="edge">
<title>Node35&#45;&gt;Node9</title>
<g id="a_edge22_Node000035_Node000009"><a xlink:title=" ">
<path fill="none" stroke="#63b8ff" d="M532.48,-219.98C513.09,-211.42 482.95,-198.11 460.69,-188.28"/>
<polygon fill="#63b8ff" stroke="#63b8ff" points="461.95,-185.01 451.39,-184.17 459.12,-191.41 461.95,-185.01"/>
</a>
</g>
</g>
<!-- Node35&#45;&gt;Node12 -->
<g id="edge20_Node000035_Node000012" class="edge">
<title>Node35&#45;&gt;Node12</title>
<g id="a_edge20_Node000035_Node000012"><a xlink:title=" ">
<path fill="none" stroke="#63b8ff" d="M501.51,-228.48C433.97,-225.31 316.92,-208.02 269.76,-129 235.68,-71.91 342.77,-33.9 398.83,-18.39"/>
<polygon fill="#63b8ff" stroke="#63b8ff" points="399.9,-21.73 408.66,-15.76 398.09,-14.96 399.9,-21.73"/>
</a>
</g>
</g>
<!-- Node35&#45;&gt;Node14 -->
<g id="edge21_Node000035_Node000014" class="edge">
<title>Node35&#45;&gt;Node14</title>
<g id="a_edge21_Node000035_Node000014"><a xlink:title=" ">
<path fill="none" stroke="#63b8ff" d="M569.4,-219.97C624.78,-193.18 795.39,-110.66 861.86,-78.51"/>
<polygon fill="#63b8ff" stroke="#63b8ff" points="863.41,-81.65 870.88,-74.15 860.36,-75.35 863.41,-81.65"/>
</a>
</g>
</g>
<!-- Node20 -->
<g id="Node000020" class="node">
<title>Node20</title>
<g id="a_Node000020"><a xlink:title=" ">
<polygon fill="#e0e0e0" stroke="#999999" points="228.76,-349 180.76,-349 180.76,-330 228.76,-330 228.76,-349"/>
<text text-anchor="middle" x="204.76" y="-337" font-family="Helvetica,sans-Serif" font-size="10.00">iosfwd</text>
</a>
</g>
</g>
<!-- Node40&#45;&gt;Node20 -->
<g id="edge31_Node000040_Node000020" class="edge">
<title>Node40&#45;&gt;Node20</title>
<g id="a_edge31_Node000040_Node000020"><a xlink:title=" ">
<path fill="none" stroke="#63b8ff" d="M178.05,-560.7C186.98,-536.28 211.56,-465.39 219.76,-404 220.88,-395.63 221.13,-393.33 219.76,-385 218.29,-376.05 215.27,-366.47 212.32,-358.51"/>
<polygon fill="#63b8ff" stroke="#63b8ff" points="215.55,-357.16 208.62,-349.15 209.04,-359.74 215.55,-357.16"/>
</a>
</g>
</g>
<!-- Node41 -->
<g id="Node000041" class="node">
<title>Node41</title>
<g id="a_Node000041"><a xlink:href="dimacs__cnf_8h.html" target="_top" xlink:title=" ">
<polygon fill="white" stroke="#666666" points="141.76,-525 33.76,-525 33.76,-495 141.76,-495 141.76,-525"/>
<text text-anchor="start" x="41.76" y="-513" font-family="Helvetica,sans-Serif" font-size="10.00">solvers/sat/dimacs</text>
<text text-anchor="middle" x="87.76" y="-502" font-family="Helvetica,sans-Serif" font-size="10.00">_cnf.h</text>
</a>
</g>
</g>
<!-- Node40&#45;&gt;Node41 -->
<g id="edge32_Node000040_Node000041" class="edge">
<title>Node40&#45;&gt;Node41</title>
<g id="a_edge32_Node000040_Node000041"><a xlink:title=" ">
<path fill="none" stroke="#63b8ff" d="M161.92,-560.87C150.23,-553 132.51,-541.09 117.33,-530.89"/>
<polygon fill="#63b8ff" stroke="#63b8ff" points="119,-527.79 108.75,-525.11 115.1,-533.6 119,-527.79"/>
</a>
</g>
</g>
<!-- Node41&#45;&gt;Node20 -->
<g id="edge33_Node000041_Node000020" class="edge">
<title>Node41&#45;&gt;Node20</title>
<g id="a_edge33_Node000041_Node000020"><a xlink:title=" ">
<path fill="none" stroke="#63b8ff" d="M67.15,-494.96C34.86,-471.27 -21.02,-422.3 8.76,-385 28.63,-360.11 119.79,-348.09 170.49,-343.24"/>
<polygon fill="#63b8ff" stroke="#63b8ff" points="171.02,-346.71 180.66,-342.32 170.38,-339.74 171.02,-346.71"/>
</a>
</g>
</g>
<!-- Node42 -->
<g id="Node000042" class="node">
<title>Node42</title>
<g id="a_Node000042"><a xlink:href="cnf__clause__list_8h.html" target="_top" xlink:title="CNF Generation.">
<polygon fill="white" stroke="#666666" points="136.76,-459 38.76,-459 38.76,-440 136.76,-440 136.76,-459"/>
<text text-anchor="middle" x="87.76" y="-447" font-family="Helvetica,sans-Serif" font-size="10.00">cnf_clause_list.h</text>
</a>
</g>
</g>
<!-- Node41&#45;&gt;Node42 -->
<g id="edge34_Node000041_Node000042" class="edge">
<title>Node41&#45;&gt;Node42</title>
<g id="a_edge34_Node000041_Node000042"><a xlink:title=" ">
<path fill="none" stroke="#63b8ff" d="M87.76,-494.84C87.76,-487.21 87.76,-477.7 87.76,-469.45"/>
<polygon fill="#63b8ff" stroke="#63b8ff" points="91.26,-469.27 87.76,-459.27 84.26,-469.27 91.26,-469.27"/>
</a>
</g>
</g>
<!-- Node24 -->
<g id="Node000024" class="node">
<title>Node24</title>
<g id="a_Node000024"><a xlink:title=" ">
<polygon fill="#e0e0e0" stroke="#999999" points="49.76,-404 17.76,-404 17.76,-385 49.76,-385 49.76,-404"/>
<text text-anchor="middle" x="33.76" y="-392" font-family="Helvetica,sans-Serif" font-size="10.00">list</text>
</a>
</g>
</g>
<!-- Node42&#45;&gt;Node24 -->
<g id="edge35_Node000042_Node000024" class="edge">
<title>Node42&#45;&gt;Node24</title>
<g id="a_edge35_Node000042_Node000024"><a xlink:title=" ">
<path fill="none" stroke="#63b8ff" d="M78.84,-439.75C70.98,-432.03 59.33,-420.6 49.84,-411.28"/>
<polygon fill="#63b8ff" stroke="#63b8ff" points="52.1,-408.6 42.51,-404.09 47.2,-413.59 52.1,-408.6"/>
</a>
</g>
</g>
<!-- Node43 -->
<g id="Node000043" class="node">
<title>Node43</title>
<g id="a_Node000043"><a xlink:href="threeval_8h.html" target="_top" xlink:title=" ">
<polygon fill="white" stroke="#666666" points="211.26,-404 126.26,-404 126.26,-385 211.26,-385 211.26,-404"/>
<text text-anchor="middle" x="168.76" y="-392" font-family="Helvetica,sans-Serif" font-size="10.00">util/threeval.h</text>
</a>
</g>
</g>
<!-- Node42&#45;&gt;Node43 -->
<g id="edge36_Node000042_Node000043" class="edge">
<title>Node42&#45;&gt;Node43</title>
<g id="a_edge36_Node000042_Node000043"><a xlink:title=" ">
<path fill="none" stroke="#63b8ff" d="M100.77,-439.98C113.22,-431.84 132.21,-419.41 146.97,-409.76"/>
<polygon fill="#63b8ff" stroke="#63b8ff" points="149.06,-412.57 155.51,-404.17 145.22,-406.72 149.06,-412.57"/>
</a>
</g>
</g>
<!-- Node44 -->
<g id="Node000044" class="node">
<title>Node44</title>
<g id="a_Node000044"><a xlink:href="cnf_8h.html" target="_top" xlink:title="CNF Generation, via Tseitin.">
<polygon fill="#fff0f0" stroke="red" points="107.76,-404 67.76,-404 67.76,-385 107.76,-385 107.76,-404"/>
<text text-anchor="middle" x="87.76" y="-392" font-family="Helvetica,sans-Serif" font-size="10.00">cnf.h</text>
</a>
</g>
</g>
<!-- Node42&#45;&gt;Node44 -->
<g id="edge38_Node000042_Node000044" class="edge">
<title>Node42&#45;&gt;Node44</title>
<g id="a_edge38_Node000042_Node000044"><a xlink:title=" ">
<path fill="none" stroke="#63b8ff" d="M87.76,-439.75C87.76,-432.8 87.76,-422.85 87.76,-414.13"/>
<polygon fill="#63b8ff" stroke="#63b8ff" points="91.26,-414.09 87.76,-404.09 84.26,-414.09 91.26,-414.09"/>
</a>
</g>
</g>
<!-- Node43&#45;&gt;Node20 -->
<g id="edge37_Node000043_Node000020" class="edge">
<title>Node43&#45;&gt;Node20</title>
<g id="a_edge37_Node000043_Node000020"><a xlink:title=" ">
<path fill="none" stroke="#63b8ff" d="M174.7,-384.75C179.74,-377.34 187.1,-366.5 193.27,-357.41"/>
<polygon fill="#63b8ff" stroke="#63b8ff" points="196.2,-359.33 198.93,-349.09 190.41,-355.39 196.2,-359.33"/>
</a>
</g>
</g>
<!-- Node49&#45;&gt;Node14 -->
<g id="edge47_Node000049_Node000014" class="edge">
<title>Node49&#45;&gt;Node14</title>
<g id="a_edge47_Node000049_Node000014"><a xlink:title=" ">
<path fill="none" stroke="#63b8ff" d="M717.01,-561.19C798.07,-544.38 964.76,-503.38 964.76,-450.5 964.76,-450.5 964.76,-450.5 964.76,-173.5 964.76,-134.47 931.15,-99.58 908.63,-80.6"/>
<polygon fill="#63b8ff" stroke="#63b8ff" points="910.61,-77.7 900.63,-74.12 906.2,-83.14 910.61,-77.7"/>
</a>
</g>
</g>
<!-- Node50 -->
<g id="Node000050" class="node">
<title>Node50</title>
<g id="a_Node000050"><a xlink:href="expr__cast_8h.html" target="_top" xlink:title="Templated functions to cast to specific exprt&#45;derived classes.">
<polygon fill="white" stroke="#666666" points="876.26,-459 803.26,-459 803.26,-440 876.26,-440 876.26,-459"/>
<text text-anchor="middle" x="839.76" y="-447" font-family="Helvetica,sans-Serif" font-size="10.00">expr_cast.h</text>
</a>
</g>
</g>
<!-- Node49&#45;&gt;Node50 -->
<g id="edge41_Node000049_Node000050" class="edge">
<title>Node49&#45;&gt;Node50</title>
<g id="a_edge41_Node000049_Node000050"><a xlink:title=" ">
<path fill="none" stroke="#63b8ff" d="M685.7,-560.94C713.68,-540.88 783.77,-490.64 818.94,-465.42"/>
<polygon fill="#63b8ff" stroke="#63b8ff" points="821.39,-467.97 827.48,-459.3 817.31,-462.28 821.39,-467.97"/>
</a>
</g>
</g>
<!-- Node52 -->
<g id="Node000052" class="node">
<title>Node52</title>
<g id="a_Node000052"><a xlink:href="std__types_8h.html" target="_top" xlink:title="Pre&#45;defined types.">
<polygon fill="white" stroke="#666666" points="685.26,-519.5 612.26,-519.5 612.26,-500.5 685.26,-500.5 685.26,-519.5"/>
<text text-anchor="middle" x="648.76" y="-507.5" font-family="Helvetica,sans-Serif" font-size="10.00">std_types.h</text>
</a>
</g>
</g>
<!-- Node49&#45;&gt;Node52 -->
<g id="edge48_Node000049_Node000052" class="edge">
<title>Node49&#45;&gt;Node52</title>
<g id="a_edge48_Node000049_Node000052"><a xlink:title=" ">
<path fill="none" stroke="#63b8ff" d="M670.07,-560.87C666.49,-552.49 660.94,-539.51 656.41,-528.89"/>
<polygon fill="#63b8ff" stroke="#63b8ff" points="659.61,-527.49 652.46,-519.67 653.17,-530.24 659.61,-527.49"/>
</a>
</g>
</g>
<!-- Node50&#45;&gt;Node6 -->
<g id="edge46_Node000050_Node000006" class="edge">
<title>Node50&#45;&gt;Node6</title>
<g id="a_edge46_Node000050_Node000006"><a xlink:title=" ">
<path fill="none" stroke="#63b8ff" d="M814.05,-439.98C787.31,-431.13 745.23,-417.19 715.31,-407.28"/>
<polygon fill="#63b8ff" stroke="#63b8ff" points="716.26,-403.9 705.67,-404.08 714.06,-410.55 716.26,-403.9"/>
</a>
</g>
</g>
<!-- Node50&#45;&gt;Node14 -->
<g id="edge45_Node000050_Node000014" class="edge">
<title>Node50&#45;&gt;Node14</title>
<g id="a_edge45_Node000050_Node000014"><a xlink:title=" ">
<path fill="none" stroke="#63b8ff" d="M854.13,-439.79C878.84,-423.58 926.76,-386.25 926.76,-340.5 926.76,-340.5 926.76,-340.5 926.76,-173.5 926.76,-140.02 910.31,-103.84 899.06,-83.01"/>
<polygon fill="#63b8ff" stroke="#63b8ff" points="902,-81.1 894.04,-74.1 895.89,-84.53 902,-81.1"/>
</a>
</g>
</g>
<!-- Node50&#45;&gt;Node17 -->
<g id="edge43_Node000050_Node000017" class="edge">
<title>Node50&#45;&gt;Node17</title>
<g id="a_edge43_Node000050_Node000017"><a xlink:title=" ">
<path fill="none" stroke="#63b8ff" d="M876.63,-445.22C934.65,-437.81 1040.76,-414.18 1040.76,-340.5 1040.76,-340.5 1040.76,-340.5 1040.76,-118.5 1040.76,-65.38 978.31,-35.99 933.47,-21.73"/>
<polygon fill="#63b8ff" stroke="#63b8ff" points="934.22,-18.3 923.63,-18.75 932.19,-25 934.22,-18.3"/>
</a>
</g>
</g>
<!-- Node50&#45;&gt;Node39 -->
<g id="edge44_Node000050_Node000039" class="edge">
<title>Node50&#45;&gt;Node39</title>
<g id="a_edge44_Node000050_Node000039"><a xlink:title=" ">
<path fill="none" stroke="#63b8ff" d="M849.04,-439.61C860.53,-427.48 877.68,-404.94 869.76,-385 865.24,-373.63 856.29,-363.48 847.8,-355.76"/>
<polygon fill="#63b8ff" stroke="#63b8ff" points="849.87,-352.92 839.97,-349.14 845.35,-358.27 849.87,-352.92"/>
</a>
</g>
</g>
<!-- Node51 -->
<g id="Node000051" class="node">
<title>Node51</title>
<g id="a_Node000051"><a xlink:title=" ">
<polygon fill="#e0e0e0" stroke="#999999" points="860.26,-404 803.26,-404 803.26,-385 860.26,-385 860.26,-404"/>
<text text-anchor="middle" x="831.76" y="-392" font-family="Helvetica,sans-Serif" font-size="10.00">typeinfo</text>
</a>
</g>
</g>
<!-- Node50&#45;&gt;Node51 -->
<g id="edge42_Node000050_Node000051" class="edge">
<title>Node50&#45;&gt;Node51</title>
<g id="a_edge42_Node000050_Node000051"><a xlink:title=" ">
<path fill="none" stroke="#63b8ff" d="M838.44,-439.75C837.39,-432.8 835.89,-422.85 834.57,-414.13"/>
<polygon fill="#63b8ff" stroke="#63b8ff" points="838.01,-413.45 833.06,-404.09 831.09,-414.5 838.01,-413.45"/>
</a>
</g>
</g>
<!-- Node52&#45;&gt;Node6 -->
<g id="edge49_Node000052_Node000006" class="edge">
<title>Node52&#45;&gt;Node6</title>
<g id="a_edge49_Node000052_Node000006"><a xlink:title=" ">
<path fill="none" stroke="#63b8ff" d="M651.09,-500.47C656.09,-482.15 667.97,-438.68 674.76,-413.81"/>
<polygon fill="#63b8ff" stroke="#63b8ff" points="678.14,-414.7 677.4,-404.13 671.39,-412.85 678.14,-414.7"/>
</a>
</g>
</g>
<!-- Node52&#45;&gt;Node14 -->
<g id="edge51_Node000052_Node000014" class="edge">
<title>Node52&#45;&gt;Node14</title>
<g id="a_edge51_Node000052_Node000014"><a xlink:title=" ">
<path fill="none" stroke="#63b8ff" d="M657.34,-500.3C678.93,-478.75 737.86,-421.94 794.76,-385 825.77,-364.87 845.74,-377.11 869.76,-349 888.89,-326.6 888.76,-314.96 888.76,-285.5 888.76,-285.5 888.76,-285.5 888.76,-173.5 888.76,-142.19 888.76,-105.77 888.76,-84.23"/>
<polygon fill="#63b8ff" stroke="#63b8ff" points="892.26,-84.18 888.76,-74.18 885.26,-84.18 892.26,-84.18"/>
</a>
</g>
</g>
<!-- Node52&#45;&gt;Node34 -->
<g id="edge56_Node000052_Node000034" class="edge">
<title>Node52&#45;&gt;Node34</title>
<g id="a_edge56_Node000052_Node000034"><a xlink:title=" ">
<path fill="none" stroke="#63b8ff" d="M626.11,-500.49C605.08,-491.93 573.51,-477.39 549.76,-459 515.15,-432.2 519.57,-411.54 484.76,-385 455.67,-362.82 430.16,-380.01 410.76,-349 386.12,-309.61 459.24,-294.45 509.2,-288.77"/>
<polygon fill="#63b8ff" stroke="#63b8ff" points="509.58,-292.25 519.16,-287.73 508.85,-285.29 509.58,-292.25"/>
</a>
</g>
</g>
<!-- Node52&#45;&gt;Node50 -->
<g id="edge50_Node000052_Node000050" class="edge">
<title>Node52&#45;&gt;Node50</title>
<g id="a_edge50_Node000052_Node000050"><a xlink:title=" ">
<path fill="none" stroke="#63b8ff" d="M676.53,-500.49C709.63,-490.36 765.1,-473.37 802.05,-462.05"/>
<polygon fill="#63b8ff" stroke="#63b8ff" points="803.42,-465.29 811.95,-459.02 801.37,-458.6 803.42,-465.29"/>
</a>
</g>
</g>
<!-- Node53 -->
<g id="Node000053" class="node">
<title>Node53</title>
<g id="a_Node000053"><a xlink:href="mp__arith_8h.html" target="_top" xlink:title=" ">
<polygon fill="white" stroke="#666666" points="437.26,-459 368.26,-459 368.26,-440 437.26,-440 437.26,-459"/>
<text text-anchor="middle" x="402.76" y="-447" font-family="Helvetica,sans-Serif" font-size="10.00">mp_arith.h</text>
</a>
</g>
</g>
<!-- Node52&#45;&gt;Node53 -->
<g id="edge52_Node000052_Node000053" class="edge">
<title>Node52&#45;&gt;Node53</title>
<g id="a_edge52_Node000052_Node000053"><a xlink:title=" ">
<path fill="none" stroke="#63b8ff" d="M612.99,-500.49C569.16,-490.07 494.9,-472.41 447.39,-461.11"/>
<polygon fill="#63b8ff" stroke="#63b8ff" points="447.92,-457.64 437.38,-458.73 446.3,-464.45 447.92,-457.64"/>
</a>
</g>
</g>
<!-- Node25 -->
<g id="Node000025" class="node">
<title>Node25</title>
<g id="a_Node000025"><a xlink:title=" ">
<polygon fill="#e0e0e0" stroke="#999999" points="651.26,-459 558.26,-459 558.26,-440 651.26,-440 651.26,-459"/>
<text text-anchor="middle" x="604.76" y="-447" font-family="Helvetica,sans-Serif" font-size="10.00">unordered_map</text>
</a>
</g>
</g>
<!-- Node52&#45;&gt;Node25 -->
<g id="edge57_Node000052_Node000025" class="edge">
<title>Node52&#45;&gt;Node25</title>
<g id="a_edge57_Node000052_Node000025"><a xlink:title=" ">
<path fill="none" stroke="#63b8ff" d="M642.27,-500.37C635.77,-491.73 625.6,-478.2 617.48,-467.42"/>
<polygon fill="#63b8ff" stroke="#63b8ff" points="620.09,-465.06 611.28,-459.17 614.49,-469.26 620.09,-465.06"/>
</a>
</g>
</g>
<!-- Node53&#45;&gt;Node12 -->
<g id="edge54_Node000053_Node000012" class="edge">
<title>Node53&#45;&gt;Node12</title>
<g id="a_edge54_Node000053_Node000012"><a xlink:title=" ">
<path fill="none" stroke="#63b8ff" d="M394.55,-439.8C387.22,-431.38 377.01,-417.9 372.76,-404 370.29,-395.92 370.67,-393.18 372.76,-385 406.09,-254.3 496.9,-258.16 535.76,-129 549.83,-82.25 493.82,-43.32 458.21,-23.87"/>
<polygon fill="#63b8ff" stroke="#63b8ff" points="459.7,-20.7 449.22,-19.13 456.43,-26.89 459.7,-20.7"/>
</a>
</g>
</g>
<!-- Node53&#45;&gt;Node20 -->
<g id="edge53_Node000053_Node000020" class="edge">
<title>Node53&#45;&gt;Node20</title>
<g id="a_edge53_Node000053_Node000020"><a xlink:title=" ">
<path fill="none" stroke="#63b8ff" d="M386.89,-439.84C352.41,-421.04 270.45,-376.33 229.27,-353.87"/>
<polygon fill="#63b8ff" stroke="#63b8ff" points="230.88,-350.76 220.43,-349.05 227.53,-356.91 230.88,-350.76"/>
</a>
</g>
</g>
<!-- Node54 -->
<g id="Node000054" class="node">
<title>Node54</title>
<g id="a_Node000054"><a xlink:title=" ">
<polygon fill="#e0e0e0" stroke="#999999" points="475.76,-404 381.76,-404 381.76,-385 475.76,-385 475.76,-404"/>
<text text-anchor="middle" x="428.76" y="-392" font-family="Helvetica,sans-Serif" font-size="10.00">big&#45;int/bigint.hh</text>
</a>
</g>
</g>
<!-- Node53&#45;&gt;Node54 -->
<g id="edge55_Node000053_Node000054" class="edge">
<title>Node53&#45;&gt;Node54</title>
<g id="a_edge55_Node000053_Node000054"><a xlink:title=" ">
<path fill="none" stroke="#63b8ff" d="M407.05,-439.75C410.57,-432.57 415.67,-422.18 420.04,-413.27"/>
<polygon fill="#63b8ff" stroke="#63b8ff" points="423.28,-414.61 424.55,-404.09 417,-411.53 423.28,-414.61"/>
</a>
</g>
</g>
<!-- Node55&#45;&gt;Node14 -->
<g id="edge59_Node000055_Node000014" class="edge">
<title>Node55&#45;&gt;Node14</title>
<g id="a_edge59_Node000055_Node000014"><a xlink:title=" ">
<path fill="none" stroke="#63b8ff" d="M756.98,-616.18C840.39,-600.42 1002.76,-563.05 1002.76,-511 1002.76,-511 1002.76,-511 1002.76,-173.5 1002.76,-127.47 953.18,-95.18 919.41,-78.53"/>
<polygon fill="#63b8ff" stroke="#63b8ff" points="920.47,-75.16 909.93,-74.05 917.48,-81.49 920.47,-75.16"/>
</a>
</g>
</g>
<!-- Node55&#45;&gt;Node49 -->
<g id="edge61_Node000055_Node000049" class="edge">
<title>Node55&#45;&gt;Node49</title>
<g id="a_edge61_Node000055_Node000049"><a xlink:title=" ">
<path fill="none" stroke="#63b8ff" d="M702.98,-615.75C698.14,-608.42 691.08,-597.73 685.12,-588.7"/>
<polygon fill="#63b8ff" stroke="#63b8ff" points="687.86,-586.5 679.43,-580.09 682.02,-590.36 687.86,-586.5"/>
</a>
</g>
</g>
<!-- Node55&#45;&gt;Node53 -->
<g id="edge60_Node000055_Node000053" class="edge">
<title>Node55&#45;&gt;Node53</title>
<g id="a_edge60_Node000055_Node000053"><a xlink:title=" ">
<path fill="none" stroke="#63b8ff" d="M660.5,-618.06C607.87,-610.36 527.68,-596.43 501.76,-580 457.48,-551.93 425.44,-496.68 411.12,-468.28"/>
<polygon fill="#63b8ff" stroke="#63b8ff" points="414.18,-466.58 406.65,-459.13 407.89,-469.65 414.18,-466.58"/>
</a>
</g>
</g>
<!-- Node56 -->
<g id="Node000056" class="node">
<title>Node56</title>
<g id="a_Node000056"><a xlink:title=" ">
<polygon fill="#e0e0e0" stroke="#999999" points="778.76,-580 734.76,-580 734.76,-561 778.76,-561 778.76,-580"/>
<text text-anchor="middle" x="756.76" y="-568" font-family="Helvetica,sans-Serif" font-size="10.00">limits</text>
</a>
</g>
</g>
<!-- Node55&#45;&gt;Node56 -->
<g id="edge62_Node000055_Node000056" class="edge">
<title>Node55&#45;&gt;Node56</title>
<g id="a_edge62_Node000055_Node000056"><a xlink:title=" ">
<path fill="none" stroke="#63b8ff" d="M716.69,-615.75C723.61,-608.11 733.82,-596.82 742.21,-587.56"/>
<polygon fill="#63b8ff" stroke="#63b8ff" points="744.86,-589.85 748.98,-580.09 739.67,-585.15 744.86,-589.85"/>
</a>
</g>
</g>
<!-- Node57&#45;&gt;Node10 -->
<g id="edge64_Node000057_Node000010" class="edge">
<title>Node57&#45;&gt;Node10</title>
<g id="a_edge64_Node000057_Node000010"><a xlink:title=" ">
<path fill="none" stroke="#63b8ff" d="M523.05,-670.96C453.77,-654.54 315.76,-616.22 315.76,-571.5 315.76,-571.5 315.76,-571.5 315.76,-228.5 315.76,-197.19 315.76,-160.77 315.76,-139.23"/>
<polygon fill="#63b8ff" stroke="#63b8ff" points="319.26,-139.18 315.76,-129.18 312.26,-139.18 319.26,-139.18"/>
</a>
</g>
</g>
<!-- Node58 -->
<g id="Node000058" class="node">
<title>Node58</title>
<g id="a_Node000058"><a xlink:href="pointer__expr_8h.html" target="_top" xlink:title="API to expression classes for Pointers.">
<polygon fill="white" stroke="#666666" points="604.76,-635 518.76,-635 518.76,-616 604.76,-616 604.76,-635"/>
<text text-anchor="middle" x="561.76" y="-623" font-family="Helvetica,sans-Serif" font-size="10.00">pointer_expr.h</text>
</a>
</g>
</g>
<!-- Node57&#45;&gt;Node58 -->
<g id="edge65_Node000057_Node000058" class="edge">
<title>Node57&#45;&gt;Node58</title>
<g id="a_edge65_Node000057_Node000058"><a xlink:title=" ">
<path fill="none" stroke="#63b8ff" d="M561.76,-670.75C561.76,-663.8 561.76,-653.85 561.76,-645.13"/>
<polygon fill="#63b8ff" stroke="#63b8ff" points="565.26,-645.09 561.76,-635.09 558.26,-645.09 565.26,-645.09"/>
</a>
</g>
</g>
<!-- Node58&#45;&gt;Node49 -->
<g id="edge68_Node000058_Node000049" class="edge">
<title>Node58&#45;&gt;Node49</title>
<g id="a_edge68_Node000058_Node000049"><a xlink:title=" ">
<path fill="none" stroke="#63b8ff" d="M579.75,-615.98C597.69,-607.5 625.48,-594.35 646.19,-584.54"/>
<polygon fill="#63b8ff" stroke="#63b8ff" points="647.9,-587.61 655.44,-580.17 644.9,-581.28 647.9,-587.61"/>
</a>
</g>
</g>
<!-- Node59 -->
<g id="Node000059" class="node">
<title>Node59</title>
<g id="a_Node000059"><a xlink:href="bitvector__types_8h.html" target="_top" xlink:title="Pre&#45;defined bitvector types.">
<polygon fill="white" stroke="#666666" points="612.26,-580 511.26,-580 511.26,-561 612.26,-561 612.26,-580"/>
<text text-anchor="middle" x="561.76" y="-568" font-family="Helvetica,sans-Serif" font-size="10.00">bitvector_types.h</text>
</a>
</g>
</g>
<!-- Node58&#45;&gt;Node59 -->
<g id="edge66_Node000058_Node000059" class="edge">
<title>Node58&#45;&gt;Node59</title>
<g id="a_edge66_Node000058_Node000059"><a xlink:title=" ">
<path fill="none" stroke="#63b8ff" d="M561.76,-615.75C561.76,-608.8 561.76,-598.85 561.76,-590.13"/>
<polygon fill="#63b8ff" stroke="#63b8ff" points="565.26,-590.09 561.76,-580.09 558.26,-590.09 565.26,-590.09"/>
</a>
</g>
</g>
<!-- Node59&#45;&gt;Node52 -->
<g id="edge67_Node000059_Node000052" class="edge">
<title>Node59&#45;&gt;Node52</title>
<g id="a_edge67_Node000059_Node000052"><a xlink:title=" ">
<path fill="none" stroke="#63b8ff" d="M574.6,-560.87C588.48,-551.54 610.83,-536.51 627.37,-525.38"/>
<polygon fill="#63b8ff" stroke="#63b8ff" points="629.52,-528.15 635.87,-519.67 625.62,-522.34 629.52,-528.15"/>
</a>
</g>
</g>
</g>
</svg>
