<?xml version="1.0" encoding="UTF-8" standalone="no"?>
<!DOCTYPE svg PUBLIC "-//W3C//DTD SVG 1.1//EN"
 "http://www.w3.org/Graphics/SVG/1.1/DTD/svg11.dtd">
<!-- Generated by graphviz version 2.43.0 (0)
 -->
<!-- Title: /home/runner/work/cbmc/cbmc/src/solvers/qbf/qbf_skizzo.h Pages: 1 -->
<svg width="435pt" height="445pt"
 viewBox="0.00 0.00 435.00 445.00" xmlns="http://www.w3.org/2000/svg" xmlns:xlink="http://www.w3.org/1999/xlink">
<g id="graph0" class="graph" transform="scale(1 1) rotate(0) translate(4 441)">
<title>/home/runner/work/cbmc/cbmc/src/solvers/qbf/qbf_skizzo.h</title>
<!-- Node1 -->
<g id="Node000001" class="node">
<title>Node1</title>
<g id="a_Node000001"><a xlink:title=" ">
<polygon fill="#999999" stroke="#666666" points="138,-437 0,-437 0,-396 138,-396 138,-437"/>
<text text-anchor="start" x="8" y="-425" font-family="Helvetica,sans-Serif" font-size="10.00">/home/runner/work/cbmc</text>
<text text-anchor="start" x="8" y="-414" font-family="Helvetica,sans-Serif" font-size="10.00">/cbmc/src/solvers/qbf</text>
<text text-anchor="middle" x="69" y="-403" font-family="Helvetica,sans-Serif" font-size="10.00">/qbf_skizzo.h</text>
</a>
</g>
</g>
<!-- Node2 -->
<g id="Node000002" class="node">
<title>Node2</title>
<g id="a_Node000002"><a xlink:href="qdimacs__cnf_8h.html" target="_top" xlink:title=" ">
<polygon fill="white" stroke="#666666" points="112,-360 26,-360 26,-341 112,-341 112,-360"/>
<text text-anchor="middle" x="69" y="-348" font-family="Helvetica,sans-Serif" font-size="10.00">qdimacs_cnf.h</text>
</a>
</g>
</g>
<!-- Node1&#45;&gt;Node2 -->
<g id="edge1_Node000001_Node000002" class="edge">
<title>Node1&#45;&gt;Node2</title>
<g id="a_edge1_Node000001_Node000002"><a xlink:title=" ">
<path fill="none" stroke="#63b8ff" d="M69,-395.95C69,-387.85 69,-378.5 69,-370.47"/>
<polygon fill="#63b8ff" stroke="#63b8ff" points="72.5,-370.26 69,-360.26 65.5,-370.26 72.5,-370.26"/>
</a>
</g>
</g>
<!-- Node3 -->
<g id="Node000003" class="node">
<title>Node3</title>
<g id="a_Node000003"><a xlink:title=" ">
<polygon fill="#e0e0e0" stroke="#999999" points="161,-19 113,-19 113,0 161,0 161,-19"/>
<text text-anchor="middle" x="137" y="-7" font-family="Helvetica,sans-Serif" font-size="10.00">iosfwd</text>
</a>
</g>
</g>
<!-- Node2&#45;&gt;Node3 -->
<g id="edge2_Node000002_Node000003" class="edge">
<title>Node2&#45;&gt;Node3</title>
<g id="a_edge2_Node000002_Node000003"><a xlink:title=" ">
<path fill="none" stroke="#63b8ff" d="M63.81,-340.9C52.77,-321.77 28,-273.98 28,-230.5 28,-230.5 28,-230.5 28,-118.5 28,-73.28 75.92,-40.55 108.22,-23.62"/>
<polygon fill="#63b8ff" stroke="#63b8ff" points="109.9,-26.69 117.26,-19.07 106.75,-20.44 109.9,-26.69"/>
</a>
</g>
</g>
<!-- Node4 -->
<g id="Node000004" class="node">
<title>Node4</title>
<g id="a_Node000004"><a xlink:href="dimacs__cnf_8h.html" target="_top" xlink:title=" ">
<polygon fill="white" stroke="#666666" points="164,-305 56,-305 56,-275 164,-275 164,-305"/>
<text text-anchor="start" x="64" y="-293" font-family="Helvetica,sans-Serif" font-size="10.00">solvers/sat/dimacs</text>
<text text-anchor="middle" x="110" y="-282" font-family="Helvetica,sans-Serif" font-size="10.00">_cnf.h</text>
</a>
</g>
</g>
<!-- Node2&#45;&gt;Node4 -->
<g id="edge3_Node000002_Node000004" class="edge">
<title>Node2&#45;&gt;Node4</title>
<g id="a_edge3_Node000002_Node000004"><a xlink:title=" ">
<path fill="none" stroke="#63b8ff" d="M75.05,-340.87C80.1,-333.67 87.52,-323.07 94.24,-313.49"/>
<polygon fill="#63b8ff" stroke="#63b8ff" points="97.23,-315.31 100.11,-305.11 91.5,-311.29 97.23,-315.31"/>
</a>
</g>
</g>
<!-- Node4&#45;&gt;Node3 -->
<g id="edge4_Node000004_Node000003" class="edge">
<title>Node4&#45;&gt;Node3</title>
<g id="a_edge4_Node000004_Node000003"><a xlink:title=" ">
<path fill="none" stroke="#63b8ff" d="M100.67,-274.99C87.75,-254.2 66,-213.54 66,-175.5 66,-175.5 66,-175.5 66,-118.5 66,-88.91 69.8,-79.76 86,-55 93.64,-43.32 105.16,-32.9 115.33,-25.09"/>
<polygon fill="#63b8ff" stroke="#63b8ff" points="117.42,-27.89 123.43,-19.16 113.29,-22.24 117.42,-27.89"/>
</a>
</g>
</g>
<!-- Node5 -->
<g id="Node000005" class="node">
<title>Node5</title>
<g id="a_Node000005"><a xlink:href="cnf__clause__list_8h.html" target="_top" xlink:title="CNF Generation.">
<polygon fill="white" stroke="#666666" points="197,-239 99,-239 99,-220 197,-220 197,-239"/>
<text text-anchor="middle" x="148" y="-227" font-family="Helvetica,sans-Serif" font-size="10.00">cnf_clause_list.h</text>
</a>
</g>
</g>
<!-- Node4&#45;&gt;Node5 -->
<g id="edge5_Node000004_Node000005" class="edge">
<title>Node4&#45;&gt;Node5</title>
<g id="a_edge5_Node000004_Node000005"><a xlink:title=" ">
<path fill="none" stroke="#63b8ff" d="M119.2,-274.84C124.49,-266.69 131.18,-256.4 136.78,-247.78"/>
<polygon fill="#63b8ff" stroke="#63b8ff" points="139.79,-249.56 142.31,-239.27 133.92,-245.75 139.79,-249.56"/>
</a>
</g>
</g>
<!-- Node6 -->
<g id="Node000006" class="node">
<title>Node6</title>
<g id="a_Node000006"><a xlink:title=" ">
<polygon fill="#e0e0e0" stroke="#999999" points="126,-184 94,-184 94,-165 126,-165 126,-184"/>
<text text-anchor="middle" x="110" y="-172" font-family="Helvetica,sans-Serif" font-size="10.00">list</text>
</a>
</g>
</g>
<!-- Node5&#45;&gt;Node6 -->
<g id="edge6_Node000005_Node000006" class="edge">
<title>Node5&#45;&gt;Node6</title>
<g id="a_edge6_Node000005_Node000006"><a xlink:title=" ">
<path fill="none" stroke="#63b8ff" d="M141.73,-219.75C136.41,-212.34 128.64,-201.5 122.12,-192.41"/>
<polygon fill="#63b8ff" stroke="#63b8ff" points="124.83,-190.18 116.16,-184.09 119.14,-194.26 124.83,-190.18"/>
</a>
</g>
</g>
<!-- Node7 -->
<g id="Node000007" class="node">
<title>Node7</title>
<g id="a_Node000007"><a xlink:href="threeval_8h.html" target="_top" xlink:title=" ">
<polygon fill="white" stroke="#666666" points="179.5,-74 94.5,-74 94.5,-55 179.5,-55 179.5,-74"/>
<text text-anchor="middle" x="137" y="-62" font-family="Helvetica,sans-Serif" font-size="10.00">util/threeval.h</text>
</a>
</g>
</g>
<!-- Node5&#45;&gt;Node7 -->
<g id="edge7_Node000005_Node000007" class="edge">
<title>Node5&#45;&gt;Node7</title>
<g id="a_edge7_Node000005_Node000007"><a xlink:title=" ">
<path fill="none" stroke="#63b8ff" d="M147.41,-219.74C145.69,-194.31 140.68,-120.08 138.3,-84.69"/>
<polygon fill="#63b8ff" stroke="#63b8ff" points="141.76,-84.05 137.59,-74.31 134.78,-84.52 141.76,-84.05"/>
</a>
</g>
</g>
<!-- Node8 -->
<g id="Node000008" class="node">
<title>Node8</title>
<g id="a_Node000008"><a xlink:href="cnf_8h.html" target="_top" xlink:title="CNF Generation, via Tseitin.">
<polygon fill="white" stroke="#666666" points="242,-184 202,-184 202,-165 242,-165 242,-184"/>
<text text-anchor="middle" x="222" y="-172" font-family="Helvetica,sans-Serif" font-size="10.00">cnf.h</text>
</a>
</g>
</g>
<!-- Node5&#45;&gt;Node8 -->
<g id="edge9_Node000005_Node000008" class="edge">
<title>Node5&#45;&gt;Node8</title>
<g id="a_edge9_Node000005_Node000008"><a xlink:title=" ">
<path fill="none" stroke="#63b8ff" d="M159.89,-219.98C171.15,-211.92 188.29,-199.65 201.71,-190.03"/>
<polygon fill="#63b8ff" stroke="#63b8ff" points="203.8,-192.84 209.89,-184.17 199.73,-187.15 203.8,-192.84"/>
</a>
</g>
</g>
<!-- Node7&#45;&gt;Node3 -->
<g id="edge8_Node000007_Node000003" class="edge">
<title>Node7&#45;&gt;Node3</title>
<g id="a_edge8_Node000007_Node000003"><a xlink:title=" ">
<path fill="none" stroke="#63b8ff" d="M137,-54.75C137,-47.8 137,-37.85 137,-29.13"/>
<polygon fill="#63b8ff" stroke="#63b8ff" points="140.5,-29.09 137,-19.09 133.5,-29.09 140.5,-29.09"/>
</a>
</g>
</g>
<!-- Node9 -->
<g id="Node000009" class="node">
<title>Node9</title>
<g id="a_Node000009"><a xlink:href="prop_8h.html" target="_top" xlink:title=" ">
<polygon fill="white" stroke="#666666" points="297,-129 187,-129 187,-110 297,-110 297,-129"/>
<text text-anchor="middle" x="242" y="-117" font-family="Helvetica,sans-Serif" font-size="10.00">solvers/prop/prop.h</text>
</a>
</g>
</g>
<!-- Node8&#45;&gt;Node9 -->
<g id="edge10_Node000008_Node000009" class="edge">
<title>Node8&#45;&gt;Node9</title>
<g id="a_edge10_Node000008_Node000009"><a xlink:title=" ">
<path fill="none" stroke="#63b8ff" d="M225.3,-164.75C227.98,-157.65 231.85,-147.4 235.19,-138.56"/>
<polygon fill="#63b8ff" stroke="#63b8ff" points="238.5,-139.68 238.76,-129.09 231.95,-137.21 238.5,-139.68"/>
</a>
</g>
</g>
<!-- Node9&#45;&gt;Node7 -->
<g id="edge13_Node000009_Node000007" class="edge">
<title>Node9&#45;&gt;Node7</title>
<g id="a_edge13_Node000009_Node000007"><a xlink:title=" ">
<path fill="none" stroke="#63b8ff" d="M225.13,-109.98C208.39,-101.54 182.5,-88.47 163.11,-78.68"/>
<polygon fill="#63b8ff" stroke="#63b8ff" points="164.68,-75.55 154.18,-74.17 161.53,-81.8 164.68,-75.55"/>
</a>
</g>
</g>
<!-- Node10 -->
<g id="Node000010" class="node">
<title>Node10</title>
<g id="a_Node000010"><a xlink:href="src_2util_2message_8h.html" target="_top" xlink:title=" ">
<polygon fill="#fff0f0" stroke="red" points="286.5,-74 197.5,-74 197.5,-55 286.5,-55 286.5,-74"/>
<text text-anchor="middle" x="242" y="-62" font-family="Helvetica,sans-Serif" font-size="10.00">util/message.h</text>
</a>
</g>
</g>
<!-- Node9&#45;&gt;Node10 -->
<g id="edge11_Node000009_Node000010" class="edge">
<title>Node9&#45;&gt;Node10</title>
<g id="a_edge11_Node000009_Node000010"><a xlink:title=" ">
<path fill="none" stroke="#63b8ff" d="M242,-109.75C242,-102.8 242,-92.85 242,-84.13"/>
<polygon fill="#63b8ff" stroke="#63b8ff" points="245.5,-84.09 242,-74.09 238.5,-84.09 245.5,-84.09"/>
</a>
</g>
</g>
<!-- Node36 -->
<g id="Node000036" class="node">
<title>Node36</title>
<g id="a_Node000036"><a xlink:href="literal_8h.html" target="_top" xlink:title=" ">
<polygon fill="#fff0f0" stroke="red" points="359,-74 305,-74 305,-55 359,-55 359,-74"/>
<text text-anchor="middle" x="332" y="-62" font-family="Helvetica,sans-Serif" font-size="10.00">literal.h</text>
</a>
</g>
</g>
<!-- Node9&#45;&gt;Node36 -->
<g id="edge14_Node000009_Node000036" class="edge">
<title>Node9&#45;&gt;Node36</title>
<g id="a_edge14_Node000009_Node000036"><a xlink:title=" ">
<path fill="none" stroke="#63b8ff" d="M256.46,-109.98C270.42,-101.77 291.79,-89.18 308.25,-79.49"/>
<polygon fill="#63b8ff" stroke="#63b8ff" points="310.44,-82.26 317.28,-74.17 306.88,-76.23 310.44,-82.26"/>
</a>
</g>
</g>
<!-- Node37 -->
<g id="Node000037" class="node">
<title>Node37</title>
<g id="a_Node000037"><a xlink:title=" ">
<polygon fill="#e0e0e0" stroke="#999999" points="427,-74 377,-74 377,-55 427,-55 427,-74"/>
<text text-anchor="middle" x="402" y="-62" font-family="Helvetica,sans-Serif" font-size="10.00">cstdint</text>
</a>
</g>
</g>
<!-- Node9&#45;&gt;Node37 -->
<g id="edge16_Node000009_Node000037" class="edge">
<title>Node9&#45;&gt;Node37</title>
<g id="a_edge16_Node000009_Node000037"><a xlink:title=" ">
<path fill="none" stroke="#63b8ff" d="M267.71,-109.98C294.69,-101.05 337.28,-86.94 367.25,-77.01"/>
<polygon fill="#63b8ff" stroke="#63b8ff" points="368.49,-80.29 376.88,-73.82 366.29,-73.64 368.49,-80.29"/>
</a>
</g>
</g>
<!-- Node10&#45;&gt;Node3 -->
<g id="edge12_Node000010_Node000003" class="edge">
<title>Node10&#45;&gt;Node3</title>
<g id="a_edge12_Node000010_Node000003"><a xlink:title=" ">
<path fill="none" stroke="#63b8ff" d="M225.13,-54.98C208.39,-46.54 182.5,-33.47 163.11,-23.68"/>
<polygon fill="#63b8ff" stroke="#63b8ff" points="164.68,-20.55 154.18,-19.17 161.53,-26.8 164.68,-20.55"/>
</a>
</g>
</g>
<!-- Node36&#45;&gt;Node3 -->
<g id="edge15_Node000036_Node000003" class="edge">
<title>Node36&#45;&gt;Node3</title>
<g id="a_edge15_Node000036_Node000003"><a xlink:title=" ">
<path fill="none" stroke="#63b8ff" d="M304.89,-56.13C269.97,-46.64 209.27,-30.14 171.22,-19.8"/>
<polygon fill="#63b8ff" stroke="#63b8ff" points="171.69,-16.3 161.12,-17.06 169.86,-23.06 171.69,-16.3"/>
</a>
</g>
</g>
</g>
</svg>
