<?xml version="1.0" encoding="UTF-8" standalone="no"?>
<!DOCTYPE svg PUBLIC "-//W3C//DTD SVG 1.1//EN"
 "http://www.w3.org/Graphics/SVG/1.1/DTD/svg11.dtd">
<!-- Generated by graphviz version 2.43.0 (0)
 -->
<!-- Title: /home/runner/work/cbmc/cbmc/src/solvers/qbf/qdimacs_core.h Pages: 1 -->
<svg width="1016pt" height="720pt"
 viewBox="0.00 0.00 1016.00 720.00" xmlns="http://www.w3.org/2000/svg" xmlns:xlink="http://www.w3.org/1999/xlink">
<g id="graph0" class="graph" transform="scale(1 1) rotate(0) translate(4 716)">
<title>/home/runner/work/cbmc/cbmc/src/solvers/qbf/qdimacs_core.h</title>
<!-- Node1 -->
<g id="Node000001" class="node">
<title>Node1</title>
<g id="a_Node000001"><a xlink:title=" ">
<polygon fill="#999999" stroke="#666666" points="703,-712 565,-712 565,-671 703,-671 703,-712"/>
<text text-anchor="start" x="573" y="-700" font-family="Helvetica,sans-Serif" font-size="10.00">/home/runner/work/cbmc</text>
<text text-anchor="start" x="573" y="-689" font-family="Helvetica,sans-Serif" font-size="10.00">/cbmc/src/solvers/qbf</text>
<text text-anchor="middle" x="634" y="-678" font-family="Helvetica,sans-Serif" font-size="10.00">/qdimacs_core.h</text>
</a>
</g>
</g>
<!-- Node2 -->
<g id="Node000002" class="node">
<title>Node2</title>
<g id="a_Node000002"><a xlink:title=" ">
<polygon fill="#e0e0e0" stroke="#999999" points="606,-635 568,-635 568,-616 606,-616 606,-635"/>
<text text-anchor="middle" x="587" y="-623" font-family="Helvetica,sans-Serif" font-size="10.00">map</text>
</a>
</g>
</g>
<!-- Node1&#45;&gt;Node2 -->
<g id="edge1_Node000001_Node000002" class="edge">
<title>Node1&#45;&gt;Node2</title>
<g id="a_edge1_Node000001_Node000002"><a xlink:title=" ">
<path fill="none" stroke="#63b8ff" d="M619.64,-670.95C613.22,-662.2 605.72,-651.99 599.52,-643.56"/>
<polygon fill="#63b8ff" stroke="#63b8ff" points="602.17,-641.25 593.43,-635.26 596.53,-645.39 602.17,-641.25"/>
</a>
</g>
</g>
<!-- Node3 -->
<g id="Node000003" class="node">
<title>Node3</title>
<g id="a_Node000003"><a xlink:href="expr_8h.html" target="_top" xlink:title=" ">
<polygon fill="white" stroke="#666666" points="453.5,-514 388.5,-514 388.5,-495 453.5,-495 453.5,-514"/>
<text text-anchor="middle" x="421" y="-502" font-family="Helvetica,sans-Serif" font-size="10.00">util/expr.h</text>
</a>
</g>
</g>
<!-- Node1&#45;&gt;Node3 -->
<g id="edge2_Node000001_Node000003" class="edge">
<title>Node1&#45;&gt;Node3</title>
<g id="a_edge2_Node000001_Node000003"><a xlink:title=" ">
<path fill="none" stroke="#63b8ff" d="M633.17,-670.95C631.58,-654.76 627.14,-631.92 615,-616 575.46,-564.13 504.08,-532.71 459.8,-517.26"/>
<polygon fill="#63b8ff" stroke="#63b8ff" points="460.84,-513.92 450.24,-514.03 458.6,-520.55 460.84,-513.92"/>
</a>
</g>
</g>
<!-- Node37 -->
<g id="Node000037" class="node">
<title>Node37</title>
<g id="a_Node000037"><a xlink:href="qdimacs__cnf_8h.html" target="_top" xlink:title=" ">
<polygon fill="white" stroke="#666666" points="915,-635 829,-635 829,-616 915,-616 915,-635"/>
<text text-anchor="middle" x="872" y="-623" font-family="Helvetica,sans-Serif" font-size="10.00">qdimacs_cnf.h</text>
</a>
</g>
</g>
<!-- Node1&#45;&gt;Node37 -->
<g id="edge42_Node000001_Node000037" class="edge">
<title>Node1&#45;&gt;Node37</title>
<g id="a_edge42_Node000001_Node000037"><a xlink:title=" ">
<path fill="none" stroke="#63b8ff" d="M703.16,-671.9C744.38,-660.82 795.34,-647.11 830.43,-637.68"/>
<polygon fill="#63b8ff" stroke="#63b8ff" points="831.58,-640.99 840.33,-635.02 829.77,-634.23 831.58,-640.99"/>
</a>
</g>
</g>
<!-- Node4 -->
<g id="Node000004" class="node">
<title>Node4</title>
<g id="a_Node000004"><a xlink:href="as__const_8h.html" target="_top" xlink:title=" ">
<polygon fill="white" stroke="#666666" points="630,-129 562,-129 562,-110 630,-110 630,-129"/>
<text text-anchor="middle" x="596" y="-117" font-family="Helvetica,sans-Serif" font-size="10.00">as_const.h</text>
</a>
</g>
</g>
<!-- Node3&#45;&gt;Node4 -->
<g id="edge3_Node000003_Node000004" class="edge">
<title>Node3&#45;&gt;Node4</title>
<g id="a_edge3_Node000003_Node000004"><a xlink:title=" ">
<path fill="none" stroke="#63b8ff" d="M433.03,-494.91C454.69,-478.36 498,-439.71 498,-395.5 498,-395.5 498,-395.5 498,-338.5 498,-308.91 504.15,-301.15 518,-275 542.15,-229.43 570.79,-231.86 590,-184 595.74,-169.69 597.01,-152.17 596.98,-139.16"/>
<polygon fill="#63b8ff" stroke="#63b8ff" points="600.48,-138.97 596.69,-129.08 593.48,-139.17 600.48,-138.97"/>
</a>
</g>
</g>
<!-- Node5 -->
<g id="Node000005" class="node">
<title>Node5</title>
<g id="a_Node000005"><a xlink:href="type_8h.html" target="_top" xlink:title="Defines typet, type_with_subtypet and type_with_subtypest.">
<polygon fill="white" stroke="#666666" points="367.5,-459 320.5,-459 320.5,-440 367.5,-440 367.5,-459"/>
<text text-anchor="middle" x="344" y="-447" font-family="Helvetica,sans-Serif" font-size="10.00">type.h</text>
</a>
</g>
</g>
<!-- Node3&#45;&gt;Node5 -->
<g id="edge4_Node000003_Node000005" class="edge">
<title>Node3&#45;&gt;Node5</title>
<g id="a_edge4_Node000003_Node000005"><a xlink:title=" ">
<path fill="none" stroke="#63b8ff" d="M408.63,-494.98C396.91,-486.92 379.08,-474.65 365.11,-465.03"/>
<polygon fill="#63b8ff" stroke="#63b8ff" points="366.82,-461.96 356.6,-459.17 362.85,-467.72 366.82,-461.96"/>
</a>
</g>
</g>
<!-- Node33 -->
<g id="Node000033" class="node">
<title>Node33</title>
<g id="a_Node000033"><a xlink:href="validation__mode_8h.html" target="_top" xlink:title=" ">
<polygon fill="white" stroke="#666666" points="197.5,-349 90.5,-349 90.5,-330 197.5,-330 197.5,-349"/>
<text text-anchor="middle" x="144" y="-337" font-family="Helvetica,sans-Serif" font-size="10.00">validation_mode.h</text>
</a>
</g>
</g>
<!-- Node3&#45;&gt;Node33 -->
<g id="edge40_Node000003_Node000033" class="edge">
<title>Node3&#45;&gt;Node33</title>
<g id="a_edge40_Node000003_Node000033"><a xlink:title=" ">
<path fill="none" stroke="#63b8ff" d="M394.13,-494.94C351.67,-480.59 267.65,-448.78 207,-404 188.17,-390.1 169.67,-370.56 157.65,-356.83"/>
<polygon fill="#63b8ff" stroke="#63b8ff" points="160.22,-354.45 151.05,-349.14 154.9,-359.01 160.22,-354.45"/>
</a>
</g>
</g>
<!-- Node34 -->
<g id="Node000034" class="node">
<title>Node34</title>
<g id="a_Node000034"><a xlink:href="validate__types_8h.html" target="_top" xlink:title=" ">
<polygon fill="white" stroke="#666666" points="470,-404 372,-404 372,-385 470,-385 470,-404"/>
<text text-anchor="middle" x="421" y="-392" font-family="Helvetica,sans-Serif" font-size="10.00">validate_types.h</text>
</a>
</g>
</g>
<!-- Node3&#45;&gt;Node34 -->
<g id="edge39_Node000003_Node000034" class="edge">
<title>Node3&#45;&gt;Node34</title>
<g id="a_edge39_Node000003_Node000034"><a xlink:title=" ">
<path fill="none" stroke="#63b8ff" d="M421,-494.66C421,-477.17 421,-437.8 421,-414.27"/>
<polygon fill="#63b8ff" stroke="#63b8ff" points="424.5,-414.16 421,-404.16 417.5,-414.16 424.5,-414.16"/>
</a>
</g>
</g>
<!-- Node35 -->
<g id="Node000035" class="node">
<title>Node35</title>
<g id="a_Node000035"><a xlink:href="validate__expressions_8h.html" target="_top" xlink:title=" ">
<polygon fill="white" stroke="#666666" points="155.5,-459 26.5,-459 26.5,-440 155.5,-440 155.5,-459"/>
<text text-anchor="middle" x="91" y="-447" font-family="Helvetica,sans-Serif" font-size="10.00">validate_expressions.h</text>
</a>
</g>
</g>
<!-- Node3&#45;&gt;Node35 -->
<g id="edge38_Node000003_Node000035" class="edge">
<title>Node3&#45;&gt;Node35</title>
<g id="a_edge38_Node000003_Node000035"><a xlink:title=" ">
<path fill="none" stroke="#63b8ff" d="M388.46,-498.27C334.13,-489.55 224.06,-471.87 154.12,-460.64"/>
<polygon fill="#63b8ff" stroke="#63b8ff" points="154.53,-457.16 144.1,-459.03 153.42,-464.07 154.53,-457.16"/>
</a>
</g>
</g>
<!-- Node36 -->
<g id="Node000036" class="node">
<title>Node36</title>
<g id="a_Node000036"><a xlink:title=" ">
<polygon fill="#e0e0e0" stroke="#999999" points="591.5,-294 526.5,-294 526.5,-275 591.5,-275 591.5,-294"/>
<text text-anchor="middle" x="559" y="-282" font-family="Helvetica,sans-Serif" font-size="10.00">functional</text>
</a>
</g>
</g>
<!-- Node3&#45;&gt;Node36 -->
<g id="edge41_Node000003_Node000036" class="edge">
<title>Node3&#45;&gt;Node36</title>
<g id="a_edge41_Node000003_Node000036"><a xlink:title=" ">
<path fill="none" stroke="#63b8ff" d="M453.52,-495.04C473.13,-488.34 497.11,-477.04 512,-459 550.03,-412.95 557.46,-338.8 558.8,-304.29"/>
<polygon fill="#63b8ff" stroke="#63b8ff" points="562.3,-304.29 559.05,-294.2 555.3,-304.11 562.3,-304.29"/>
</a>
</g>
</g>
<!-- Node6 -->
<g id="Node000006" class="node">
<title>Node6</title>
<g id="a_Node000006"><a xlink:href="source__location_8h.html" target="_top" xlink:title=" ">
<polygon fill="white" stroke="#666666" points="317,-294 215,-294 215,-275 317,-275 317,-294"/>
<text text-anchor="middle" x="266" y="-282" font-family="Helvetica,sans-Serif" font-size="10.00">source_location.h</text>
</a>
</g>
</g>
<!-- Node5&#45;&gt;Node6 -->
<g id="edge5_Node000005_Node000006" class="edge">
<title>Node5&#45;&gt;Node6</title>
<g id="a_edge5_Node000005_Node000006"><a xlink:title=" ">
<path fill="none" stroke="#63b8ff" d="M344.72,-439.72C345.99,-418.99 346.7,-366.06 325,-330 317.25,-317.12 304.24,-306.71 292.4,-299.21"/>
<polygon fill="#63b8ff" stroke="#63b8ff" points="294.08,-296.13 283.69,-294.04 290.51,-302.15 294.08,-296.13"/>
</a>
</g>
</g>
<!-- Node31 -->
<g id="Node000031" class="node">
<title>Node31</title>
<g id="a_Node000031"><a xlink:href="validate_8h.html" target="_top" xlink:title=" ">
<polygon fill="white" stroke="#666666" points="315.5,-404 250.5,-404 250.5,-385 315.5,-385 315.5,-404"/>
<text text-anchor="middle" x="283" y="-392" font-family="Helvetica,sans-Serif" font-size="10.00">validate.h</text>
</a>
</g>
</g>
<!-- Node5&#45;&gt;Node31 -->
<g id="edge29_Node000005_Node000031" class="edge">
<title>Node5&#45;&gt;Node31</title>
<g id="a_edge29_Node000005_Node000031"><a xlink:title=" ">
<path fill="none" stroke="#63b8ff" d="M334.2,-439.98C325.18,-432.15 311.59,-420.34 300.68,-410.86"/>
<polygon fill="#63b8ff" stroke="#63b8ff" points="302.82,-408.09 292.98,-404.17 298.23,-413.37 302.82,-408.09"/>
</a>
</g>
</g>
<!-- Node5&#45;&gt;Node33 -->
<g id="edge37_Node000005_Node000033" class="edge">
<title>Node5&#45;&gt;Node33</title>
<g id="a_edge37_Node000005_Node000033"><a xlink:title=" ">
<path fill="none" stroke="#63b8ff" d="M321.62,-439.97C300.62,-431.67 268.55,-418.27 242,-404 214.1,-389 183.75,-368.66 164.33,-355.08"/>
<polygon fill="#63b8ff" stroke="#63b8ff" points="166.17,-352.09 155.98,-349.18 162.13,-357.81 166.17,-352.09"/>
</a>
</g>
</g>
<!-- Node5&#45;&gt;Node34 -->
<g id="edge36_Node000005_Node000034" class="edge">
<title>Node5&#45;&gt;Node34</title>
<g id="a_edge36_Node000005_Node000034"><a xlink:title=" ">
<path fill="none" stroke="#63b8ff" d="M356.37,-439.98C368.09,-431.92 385.92,-419.65 399.89,-410.03"/>
<polygon fill="#63b8ff" stroke="#63b8ff" points="402.15,-412.72 408.4,-404.17 398.18,-406.96 402.15,-412.72"/>
</a>
</g>
</g>
<!-- Node7 -->
<g id="Node000007" class="node">
<title>Node7</title>
<g id="a_Node000007"><a xlink:href="deprecate_8h.html" target="_top" xlink:title=" ">
<polygon fill="white" stroke="#666666" points="214,-239 140,-239 140,-220 214,-220 214,-239"/>
<text text-anchor="middle" x="177" y="-227" font-family="Helvetica,sans-Serif" font-size="10.00">deprecate.h</text>
</a>
</g>
</g>
<!-- Node6&#45;&gt;Node7 -->
<g id="edge6_Node000006_Node000007" class="edge">
<title>Node6&#45;&gt;Node7</title>
<g id="a_edge6_Node000006_Node000007"><a xlink:title=" ">
<path fill="none" stroke="#63b8ff" d="M251.7,-274.98C237.9,-266.77 216.76,-254.18 200.49,-244.49"/>
<polygon fill="#63b8ff" stroke="#63b8ff" points="201.94,-241.28 191.56,-239.17 198.36,-247.29 201.94,-241.28"/>
</a>
</g>
</g>
<!-- Node8 -->
<g id="Node000008" class="node">
<title>Node8</title>
<g id="a_Node000008"><a xlink:href="irep_8h.html" target="_top" xlink:title=" ">
<polygon fill="white" stroke="#666666" points="388,-239 344,-239 344,-220 388,-220 388,-239"/>
<text text-anchor="middle" x="366" y="-227" font-family="Helvetica,sans-Serif" font-size="10.00">irep.h</text>
</a>
</g>
</g>
<!-- Node6&#45;&gt;Node8 -->
<g id="edge7_Node000006_Node000008" class="edge">
<title>Node6&#45;&gt;Node8</title>
<g id="a_edge7_Node000006_Node000008"><a xlink:title=" ">
<path fill="none" stroke="#63b8ff" d="M282.07,-274.98C297.86,-266.61 322.22,-253.7 340.63,-243.95"/>
<polygon fill="#63b8ff" stroke="#63b8ff" points="342.44,-246.95 349.64,-239.17 339.17,-240.76 342.44,-246.95"/>
</a>
</g>
</g>
<!-- Node9 -->
<g id="Node000009" class="node">
<title>Node9</title>
<g id="a_Node000009"><a xlink:title=" ">
<polygon fill="#e0e0e0" stroke="#999999" points="117,-19 73,-19 73,0 117,0 117,-19"/>
<text text-anchor="middle" x="95" y="-7" font-family="Helvetica,sans-Serif" font-size="10.00">string</text>
</a>
</g>
</g>
<!-- Node6&#45;&gt;Node9 -->
<g id="edge28_Node000006_Node000009" class="edge">
<title>Node6&#45;&gt;Node9</title>
<g id="a_edge28_Node000006_Node000009"><a xlink:title=" ">
<path fill="none" stroke="#63b8ff" d="M214.88,-275.34C187.78,-268.99 155.19,-257.95 131,-239 85.57,-203.41 77.96,-184.46 62,-129 52.91,-97.39 51.68,-86.23 62,-55 65.46,-44.54 72.43,-34.53 79.08,-26.66"/>
<polygon fill="#63b8ff" stroke="#63b8ff" points="81.86,-28.8 85.98,-19.04 76.67,-24.1 81.86,-28.8"/>
</a>
</g>
</g>
<!-- Node30 -->
<g id="Node000030" class="node">
<title>Node30</title>
<g id="a_Node000030"><a xlink:title=" ">
<polygon fill="#e0e0e0" stroke="#999999" points="288,-239 232,-239 232,-220 288,-220 288,-239"/>
<text text-anchor="middle" x="260" y="-227" font-family="Helvetica,sans-Serif" font-size="10.00">optional</text>
</a>
</g>
</g>
<!-- Node6&#45;&gt;Node30 -->
<g id="edge27_Node000006_Node000030" class="edge">
<title>Node6&#45;&gt;Node30</title>
<g id="a_edge27_Node000006_Node000030"><a xlink:title=" ">
<path fill="none" stroke="#63b8ff" d="M265.01,-274.75C264.22,-267.8 263.1,-257.85 262.11,-249.13"/>
<polygon fill="#63b8ff" stroke="#63b8ff" points="265.58,-248.63 260.97,-239.09 258.62,-249.42 265.58,-248.63"/>
</a>
</g>
</g>
<!-- Node8&#45;&gt;Node9 -->
<g id="edge8_Node000008_Node000009" class="edge">
<title>Node8&#45;&gt;Node9</title>
<g id="a_edge8_Node000008_Node000009"><a xlink:title=" ">
<path fill="none" stroke="#63b8ff" d="M343.73,-222.1C304.46,-209.82 222.22,-179.63 171,-129 140.12,-98.48 115.51,-53.27 103.33,-28.44"/>
<polygon fill="#63b8ff" stroke="#63b8ff" points="106.36,-26.66 98.89,-19.15 100.04,-29.68 106.36,-26.66"/>
</a>
</g>
</g>
<!-- Node10 -->
<g id="Node000010" class="node">
<title>Node10</title>
<g id="a_Node000010"><a xlink:title=" ">
<polygon fill="#e0e0e0" stroke="#999999" points="580.5,-184 533.5,-184 533.5,-165 580.5,-165 580.5,-184"/>
<text text-anchor="middle" x="557" y="-172" font-family="Helvetica,sans-Serif" font-size="10.00">vector</text>
</a>
</g>
</g>
<!-- Node8&#45;&gt;Node10 -->
<g id="edge9_Node000008_Node000010" class="edge">
<title>Node8&#45;&gt;Node10</title>
<g id="a_edge9_Node000008_Node000010"><a xlink:title=" ">
<path fill="none" stroke="#63b8ff" d="M388.28,-222.32C421.62,-213.07 484.69,-195.56 523.56,-184.78"/>
<polygon fill="#63b8ff" stroke="#63b8ff" points="524.67,-188.1 533.37,-182.06 522.79,-181.36 524.67,-188.1"/>
</a>
</g>
</g>
<!-- Node11 -->
<g id="Node000011" class="node">
<title>Node11</title>
<g id="a_Node000011"><a xlink:href="src_2util_2invariant_8h.html" target="_top" xlink:title=" ">
<polygon fill="white" stroke="#666666" points="668.5,-74 599.5,-74 599.5,-55 668.5,-55 668.5,-74"/>
<text text-anchor="middle" x="634" y="-62" font-family="Helvetica,sans-Serif" font-size="10.00">invariant.h</text>
</a>
</g>
</g>
<!-- Node8&#45;&gt;Node11 -->
<g id="edge10_Node000008_Node000011" class="edge">
<title>Node8&#45;&gt;Node11</title>
<g id="a_edge10_Node000008_Node000011"><a xlink:title=" ">
<path fill="none" stroke="#63b8ff" d="M363.89,-219.95C359.1,-198.32 349.97,-140.94 379,-110 406.95,-80.22 523.78,-70.29 589.17,-67.04"/>
<polygon fill="#63b8ff" stroke="#63b8ff" points="589.38,-70.54 599.2,-66.58 589.05,-63.54 589.38,-70.54"/>
</a>
</g>
</g>
<!-- Node15 -->
<g id="Node000015" class="node">
<title>Node15</title>
<g id="a_Node000015"><a xlink:href="irep__ids_8h.html" target="_top" xlink:title="util">
<polygon fill="white" stroke="#666666" points="332,-184 268,-184 268,-165 332,-165 332,-184"/>
<text text-anchor="middle" x="300" y="-172" font-family="Helvetica,sans-Serif" font-size="10.00">irep_ids.h</text>
</a>
</g>
</g>
<!-- Node8&#45;&gt;Node15 -->
<g id="edge15_Node000008_Node000015" class="edge">
<title>Node8&#45;&gt;Node15</title>
<g id="a_edge15_Node000008_Node000015"><a xlink:title=" ">
<path fill="none" stroke="#63b8ff" d="M355.4,-219.98C345.54,-212.07 330.65,-200.11 318.78,-190.58"/>
<polygon fill="#63b8ff" stroke="#63b8ff" points="320.79,-187.7 310.8,-184.17 316.4,-193.16 320.79,-187.7"/>
</a>
</g>
</g>
<!-- Node26 -->
<g id="Node000026" class="node">
<title>Node26</title>
<g id="a_Node000026"><a xlink:href="forward__list__as__map_8h.html" target="_top" xlink:title=" ">
<polygon fill="white" stroke="#666666" points="515.5,-184 388.5,-184 388.5,-165 515.5,-165 515.5,-184"/>
<text text-anchor="middle" x="452" y="-172" font-family="Helvetica,sans-Serif" font-size="10.00">forward_list_as_map.h</text>
</a>
</g>
</g>
<!-- Node8&#45;&gt;Node26 -->
<g id="edge20_Node000008_Node000026" class="edge">
<title>Node8&#45;&gt;Node26</title>
<g id="a_edge20_Node000008_Node000026"><a xlink:title=" ">
<path fill="none" stroke="#63b8ff" d="M379.82,-219.98C393.15,-211.77 413.58,-199.18 429.31,-189.49"/>
<polygon fill="#63b8ff" stroke="#63b8ff" points="431.25,-192.4 437.93,-184.17 427.58,-186.44 431.25,-192.4"/>
</a>
</g>
</g>
<!-- Node11&#45;&gt;Node9 -->
<g id="edge13_Node000011_Node000009" class="edge">
<title>Node11&#45;&gt;Node9</title>
<g id="a_edge13_Node000011_Node000009"><a xlink:title=" ">
<path fill="none" stroke="#63b8ff" d="M599.46,-60.1C501.47,-50.47 222.63,-23.05 127.37,-13.68"/>
<polygon fill="#63b8ff" stroke="#63b8ff" points="127.48,-10.18 117.19,-12.68 126.8,-17.14 127.48,-10.18"/>
</a>
</g>
</g>
<!-- Node12 -->
<g id="Node000012" class="node">
<title>Node12</title>
<g id="a_Node000012"><a xlink:title=" ">
<polygon fill="#e0e0e0" stroke="#999999" points="622.5,-19 573.5,-19 573.5,0 622.5,0 622.5,-19"/>
<text text-anchor="middle" x="598" y="-7" font-family="Helvetica,sans-Serif" font-size="10.00">cstdlib</text>
</a>
</g>
</g>
<!-- Node11&#45;&gt;Node12 -->
<g id="edge11_Node000011_Node000012" class="edge">
<title>Node11&#45;&gt;Node12</title>
<g id="a_edge11_Node000011_Node000012"><a xlink:title=" ">
<path fill="none" stroke="#63b8ff" d="M628.06,-54.75C623.02,-47.34 615.66,-36.5 609.49,-27.41"/>
<polygon fill="#63b8ff" stroke="#63b8ff" points="612.35,-25.39 603.83,-19.09 606.56,-29.33 612.35,-25.39"/>
</a>
</g>
</g>
<!-- Node13 -->
<g id="Node000013" class="node">
<title>Node13</title>
<g id="a_Node000013"><a xlink:title=" ">
<polygon fill="#e0e0e0" stroke="#999999" points="697,-19 641,-19 641,0 697,0 697,-19"/>
<text text-anchor="middle" x="669" y="-7" font-family="Helvetica,sans-Serif" font-size="10.00">sstream</text>
</a>
</g>
</g>
<!-- Node11&#45;&gt;Node13 -->
<g id="edge12_Node000011_Node000013" class="edge">
<title>Node11&#45;&gt;Node13</title>
<g id="a_edge12_Node000011_Node000013"><a xlink:title=" ">
<path fill="none" stroke="#63b8ff" d="M639.78,-54.75C644.62,-47.42 651.68,-36.73 657.64,-27.7"/>
<polygon fill="#63b8ff" stroke="#63b8ff" points="660.74,-29.36 663.33,-19.09 654.9,-25.5 660.74,-29.36"/>
</a>
</g>
</g>
<!-- Node14 -->
<g id="Node000014" class="node">
<title>Node14</title>
<g id="a_Node000014"><a xlink:title=" ">
<polygon fill="#e0e0e0" stroke="#999999" points="784.5,-19 715.5,-19 715.5,0 784.5,0 784.5,-19"/>
<text text-anchor="middle" x="750" y="-7" font-family="Helvetica,sans-Serif" font-size="10.00">type_traits</text>
</a>
</g>
</g>
<!-- Node11&#45;&gt;Node14 -->
<g id="edge14_Node000011_Node000014" class="edge">
<title>Node11&#45;&gt;Node14</title>
<g id="a_edge14_Node000011_Node000014"><a xlink:title=" ">
<path fill="none" stroke="#63b8ff" d="M652.64,-54.98C671.3,-46.46 700.25,-33.23 721.74,-23.41"/>
<polygon fill="#63b8ff" stroke="#63b8ff" points="723.38,-26.51 731.02,-19.17 720.47,-20.14 723.38,-26.51"/>
</a>
</g>
</g>
<!-- Node16 -->
<g id="Node000016" class="node">
<title>Node16</title>
<g id="a_Node000016"><a xlink:href="dstring_8h.html" target="_top" xlink:title="Container for C&#45;Strings.">
<polygon fill="#fff0f0" stroke="red" points="331.5,-129 272.5,-129 272.5,-110 331.5,-110 331.5,-129"/>
<text text-anchor="middle" x="302" y="-117" font-family="Helvetica,sans-Serif" font-size="10.00">dstring.h</text>
</a>
</g>
</g>
<!-- Node15&#45;&gt;Node16 -->
<g id="edge16_Node000015_Node000016" class="edge">
<title>Node15&#45;&gt;Node16</title>
<g id="a_edge16_Node000015_Node000016"><a xlink:title=" ">
<path fill="none" stroke="#63b8ff" d="M300.33,-164.75C300.59,-157.8 300.97,-147.85 301.3,-139.13"/>
<polygon fill="#63b8ff" stroke="#63b8ff" points="304.8,-139.21 301.68,-129.09 297.8,-138.95 304.8,-139.21"/>
</a>
</g>
</g>
<!-- Node25 -->
<g id="Node000025" class="node">
<title>Node25</title>
<g id="a_Node000025"><a xlink:title=" ">
<polygon fill="#e0e0e0" stroke="#999999" points="254,-129 180,-129 180,-110 254,-110 254,-129"/>
<text text-anchor="middle" x="217" y="-117" font-family="Helvetica,sans-Serif" font-size="10.00">irep_ids.def</text>
</a>
</g>
</g>
<!-- Node15&#45;&gt;Node25 -->
<g id="edge19_Node000015_Node000025" class="edge">
<title>Node15&#45;&gt;Node25</title>
<g id="a_edge19_Node000015_Node000025"><a xlink:title=" ">
<path fill="none" stroke="#63b8ff" d="M286.66,-164.98C273.91,-156.84 254.45,-144.41 239.33,-134.76"/>
<polygon fill="#63b8ff" stroke="#63b8ff" points="240.89,-131.6 230.58,-129.17 237.12,-137.5 240.89,-131.6"/>
</a>
</g>
</g>
<!-- Node16&#45;&gt;Node9 -->
<g id="edge18_Node000016_Node000009" class="edge">
<title>Node16&#45;&gt;Node9</title>
<g id="a_edge18_Node000016_Node000009"><a xlink:title=" ">
<path fill="none" stroke="#63b8ff" d="M285.41,-109.84C249.29,-91 163.32,-46.14 120.35,-23.73"/>
<polygon fill="#63b8ff" stroke="#63b8ff" points="121.87,-20.57 111.38,-19.05 118.63,-26.78 121.87,-20.57"/>
</a>
</g>
</g>
<!-- Node17 -->
<g id="Node000017" class="node">
<title>Node17</title>
<g id="a_Node000017"><a xlink:title=" ">
<polygon fill="#e0e0e0" stroke="#999999" points="855,-74 807,-74 807,-55 855,-55 855,-74"/>
<text text-anchor="middle" x="831" y="-62" font-family="Helvetica,sans-Serif" font-size="10.00">iosfwd</text>
</a>
</g>
</g>
<!-- Node16&#45;&gt;Node17 -->
<g id="edge17_Node000016_Node000017" class="edge">
<title>Node16&#45;&gt;Node17</title>
<g id="a_edge17_Node000016_Node000017"><a xlink:title=" ">
<path fill="none" stroke="#63b8ff" d="M331.61,-115.15C345.92,-113.55 363.35,-111.63 379,-110 534.85,-93.73 721.11,-75.9 796.65,-68.74"/>
<polygon fill="#63b8ff" stroke="#63b8ff" points="797.35,-72.19 806.98,-67.76 796.69,-65.22 797.35,-72.19"/>
</a>
</g>
</g>
<!-- Node26&#45;&gt;Node4 -->
<g id="edge23_Node000026_Node000004" class="edge">
<title>Node26&#45;&gt;Node4</title>
<g id="a_edge23_Node000026_Node000004"><a xlink:title=" ">
<path fill="none" stroke="#63b8ff" d="M475.14,-164.98C498.82,-156.27 535.87,-142.63 562.71,-132.75"/>
<polygon fill="#63b8ff" stroke="#63b8ff" points="564.27,-135.91 572.44,-129.17 561.85,-129.34 564.27,-135.91"/>
</a>
</g>
</g>
<!-- Node27 -->
<g id="Node000027" class="node">
<title>Node27</title>
<g id="a_Node000027"><a xlink:title=" ">
<polygon fill="#e0e0e0" stroke="#999999" points="452,-129 388,-129 388,-110 452,-110 452,-129"/>
<text text-anchor="middle" x="420" y="-117" font-family="Helvetica,sans-Serif" font-size="10.00">algorithm</text>
</a>
</g>
</g>
<!-- Node26&#45;&gt;Node27 -->
<g id="edge21_Node000026_Node000027" class="edge">
<title>Node26&#45;&gt;Node27</title>
<g id="a_edge21_Node000026_Node000027"><a xlink:title=" ">
<path fill="none" stroke="#63b8ff" d="M446.72,-164.75C442.29,-157.42 435.84,-146.73 430.38,-137.7"/>
<polygon fill="#63b8ff" stroke="#63b8ff" points="433.35,-135.84 425.19,-129.09 427.36,-139.46 433.35,-135.84"/>
</a>
</g>
</g>
<!-- Node28 -->
<g id="Node000028" class="node">
<title>Node28</title>
<g id="a_Node000028"><a xlink:title=" ">
<polygon fill="#e0e0e0" stroke="#999999" points="544,-129 470,-129 470,-110 544,-110 544,-129"/>
<text text-anchor="middle" x="507" y="-117" font-family="Helvetica,sans-Serif" font-size="10.00">forward_list</text>
</a>
</g>
</g>
<!-- Node26&#45;&gt;Node28 -->
<g id="edge22_Node000026_Node000028" class="edge">
<title>Node26&#45;&gt;Node28</title>
<g id="a_edge22_Node000026_Node000028"><a xlink:title=" ">
<path fill="none" stroke="#63b8ff" d="M461.08,-164.75C469.09,-157.03 480.96,-145.6 490.62,-136.28"/>
<polygon fill="#63b8ff" stroke="#63b8ff" points="493.31,-138.55 498.09,-129.09 488.46,-133.51 493.31,-138.55"/>
</a>
</g>
</g>
<!-- Node29 -->
<g id="Node000029" class="node">
<title>Node29</title>
<g id="a_Node000029"><a xlink:href="narrow_8h.html" target="_top" xlink:title=" ">
<polygon fill="white" stroke="#666666" points="745.5,-129 686.5,-129 686.5,-110 745.5,-110 745.5,-129"/>
<text text-anchor="middle" x="716" y="-117" font-family="Helvetica,sans-Serif" font-size="10.00">narrow.h</text>
</a>
</g>
</g>
<!-- Node26&#45;&gt;Node29 -->
<g id="edge24_Node000026_Node000029" class="edge">
<title>Node26&#45;&gt;Node29</title>
<g id="a_edge24_Node000026_Node000029"><a xlink:title=" ">
<path fill="none" stroke="#63b8ff" d="M494.42,-164.98C544.63,-154.9 627.59,-138.25 676.49,-128.43"/>
<polygon fill="#63b8ff" stroke="#63b8ff" points="677.27,-131.85 686.39,-126.45 675.89,-124.98 677.27,-131.85"/>
</a>
</g>
</g>
<!-- Node29&#45;&gt;Node11 -->
<g id="edge26_Node000029_Node000011" class="edge">
<title>Node29&#45;&gt;Node11</title>
<g id="a_edge26_Node000029_Node000011"><a xlink:title=" ">
<path fill="none" stroke="#63b8ff" d="M702.83,-109.98C690.23,-101.84 671,-89.41 656.06,-79.76"/>
<polygon fill="#63b8ff" stroke="#63b8ff" points="657.71,-76.66 647.41,-74.17 653.91,-82.54 657.71,-76.66"/>
</a>
</g>
</g>
<!-- Node29&#45;&gt;Node14 -->
<g id="edge25_Node000029_Node000014" class="edge">
<title>Node29&#45;&gt;Node14</title>
<g id="a_edge25_Node000029_Node000014"><a xlink:title=" ">
<path fill="none" stroke="#63b8ff" d="M718.78,-109.66C724.31,-92.09 736.79,-52.45 744.19,-28.95"/>
<polygon fill="#63b8ff" stroke="#63b8ff" points="747.61,-29.75 747.27,-19.16 740.93,-27.65 747.61,-29.75"/>
</a>
</g>
</g>
<!-- Node31&#45;&gt;Node14 -->
<g id="edge30_Node000031_Node000014" class="edge">
<title>Node31&#45;&gt;Node14</title>
<g id="a_edge30_Node000031_Node000014"><a xlink:title=" ">
<path fill="none" stroke="#63b8ff" d="M315.7,-390.02C330.19,-388.48 347.44,-386.65 363,-385 438.55,-376.99 635.07,-383.02 703,-349 832.75,-284.02 859.74,-217.83 879,-74 880.12,-65.63 883.9,-61.88 879,-55 859.99,-28.34 823.91,-17.49 794.73,-13.16"/>
<polygon fill="#63b8ff" stroke="#63b8ff" points="795.1,-9.68 784.74,-11.88 794.21,-16.62 795.1,-9.68"/>
</a>
</g>
</g>
<!-- Node32 -->
<g id="Node000032" class="node">
<title>Node32</title>
<g id="a_Node000032"><a xlink:href="exception__utils_8h.html" target="_top" xlink:title=" ">
<polygon fill="white" stroke="#666666" points="316,-349 216,-349 216,-330 316,-330 316,-349"/>
<text text-anchor="middle" x="266" y="-337" font-family="Helvetica,sans-Serif" font-size="10.00">exception_utils.h</text>
</a>
</g>
</g>
<!-- Node31&#45;&gt;Node32 -->
<g id="edge31_Node000031_Node000032" class="edge">
<title>Node31&#45;&gt;Node32</title>
<g id="a_edge31_Node000031_Node000032"><a xlink:title=" ">
<path fill="none" stroke="#63b8ff" d="M280.19,-384.75C277.94,-377.72 274.7,-367.62 271.88,-358.84"/>
<polygon fill="#63b8ff" stroke="#63b8ff" points="275.14,-357.54 268.75,-349.09 268.48,-359.68 275.14,-357.54"/>
</a>
</g>
</g>
<!-- Node31&#45;&gt;Node33 -->
<g id="edge35_Node000031_Node000033" class="edge">
<title>Node31&#45;&gt;Node33</title>
<g id="a_edge35_Node000031_Node000033"><a xlink:title=" ">
<path fill="none" stroke="#63b8ff" d="M260.67,-384.98C237.8,-376.27 202.04,-362.63 176.14,-352.75"/>
<polygon fill="#63b8ff" stroke="#63b8ff" points="177.33,-349.46 166.74,-349.17 174.84,-356 177.33,-349.46"/>
</a>
</g>
</g>
<!-- Node32&#45;&gt;Node6 -->
<g id="edge34_Node000032_Node000006" class="edge">
<title>Node32&#45;&gt;Node6</title>
<g id="a_edge34_Node000032_Node000006"><a xlink:title=" ">
<path fill="none" stroke="#63b8ff" d="M266,-329.75C266,-322.8 266,-312.85 266,-304.13"/>
<polygon fill="#63b8ff" stroke="#63b8ff" points="269.5,-304.09 266,-294.09 262.5,-304.09 269.5,-304.09"/>
</a>
</g>
</g>
<!-- Node32&#45;&gt;Node9 -->
<g id="edge32_Node000032_Node000009" class="edge">
<title>Node32&#45;&gt;Node9</title>
<g id="a_edge32_Node000032_Node000009"><a xlink:title=" ">
<path fill="none" stroke="#63b8ff" d="M221.48,-329.98C145.75,-314.21 0,-277.73 0,-230.5 0,-230.5 0,-230.5 0,-118.5 0,-75.91 42.16,-42.14 70.31,-24.33"/>
<polygon fill="#63b8ff" stroke="#63b8ff" points="72.16,-27.31 78.88,-19.12 68.52,-21.32 72.16,-27.31"/>
</a>
</g>
</g>
<!-- Node32&#45;&gt;Node11 -->
<g id="edge33_Node000032_Node000011" class="edge">
<title>Node32&#45;&gt;Node11</title>
<g id="a_edge33_Node000032_Node000011"><a xlink:title=" ">
<path fill="none" stroke="#63b8ff" d="M244.15,-330C212.41,-316.3 154.76,-286.04 131,-239 109.46,-196.36 94.5,-169.24 171,-110 203.63,-84.73 479.33,-71.45 589.14,-67.12"/>
<polygon fill="#63b8ff" stroke="#63b8ff" points="589.38,-70.61 599.23,-66.72 589.1,-63.61 589.38,-70.61"/>
</a>
</g>
</g>
<!-- Node37&#45;&gt;Node17 -->
<g id="edge43_Node000037_Node000017" class="edge">
<title>Node37&#45;&gt;Node17</title>
<g id="a_edge43_Node000037_Node000017"><a xlink:title=" ">
<path fill="none" stroke="#63b8ff" d="M896.63,-615.89C935.82,-600.43 1008,-564.01 1008,-505.5 1008,-505.5 1008,-505.5 1008,-393.5 1008,-255.97 971.1,-216.43 884,-110 874.85,-98.81 862.59,-88.31 852.17,-80.32"/>
<polygon fill="#63b8ff" stroke="#63b8ff" points="854.08,-77.38 843.96,-74.24 849.91,-83.01 854.08,-77.38"/>
</a>
</g>
</g>
<!-- Node38 -->
<g id="Node000038" class="node">
<title>Node38</title>
<g id="a_Node000038"><a xlink:href="dimacs__cnf_8h.html" target="_top" xlink:title=" ">
<polygon fill="white" stroke="#666666" points="926,-580 818,-580 818,-550 926,-550 926,-580"/>
<text text-anchor="start" x="826" y="-568" font-family="Helvetica,sans-Serif" font-size="10.00">solvers/sat/dimacs</text>
<text text-anchor="middle" x="872" y="-557" font-family="Helvetica,sans-Serif" font-size="10.00">_cnf.h</text>
</a>
</g>
</g>
<!-- Node37&#45;&gt;Node38 -->
<g id="edge44_Node000037_Node000038" class="edge">
<title>Node37&#45;&gt;Node38</title>
<g id="a_edge44_Node000037_Node000038"><a xlink:title=" ">
<path fill="none" stroke="#63b8ff" d="M872,-615.87C872,-609.11 872,-599.35 872,-590.26"/>
<polygon fill="#63b8ff" stroke="#63b8ff" points="875.5,-590.11 872,-580.11 868.5,-590.11 875.5,-590.11"/>
</a>
</g>
</g>
<!-- Node38&#45;&gt;Node17 -->
<g id="edge45_Node000038_Node000017" class="edge">
<title>Node38&#45;&gt;Node17</title>
<g id="a_edge45_Node000038_Node000017"><a xlink:title=" ">
<path fill="none" stroke="#63b8ff" d="M865.8,-549.79C861.69,-539.91 856.44,-526.35 853,-514 846.34,-490.06 845.23,-483.74 843,-459 840.8,-434.59 845.64,-428.47 847,-404 853.75,-282.2 839.07,-135.64 833.24,-84.33"/>
<polygon fill="#63b8ff" stroke="#63b8ff" points="836.69,-83.66 832.06,-74.13 829.74,-84.47 836.69,-83.66"/>
</a>
</g>
</g>
<!-- Node39 -->
<g id="Node000039" class="node">
<title>Node39</title>
<g id="a_Node000039"><a xlink:href="cnf__clause__list_8h.html" target="_top" xlink:title="CNF Generation.">
<polygon fill="white" stroke="#666666" points="960,-514 862,-514 862,-495 960,-495 960,-514"/>
<text text-anchor="middle" x="911" y="-502" font-family="Helvetica,sans-Serif" font-size="10.00">cnf_clause_list.h</text>
</a>
</g>
</g>
<!-- Node38&#45;&gt;Node39 -->
<g id="edge46_Node000038_Node000039" class="edge">
<title>Node38&#45;&gt;Node39</title>
<g id="a_edge46_Node000038_Node000039"><a xlink:title=" ">
<path fill="none" stroke="#63b8ff" d="M881.44,-549.84C886.87,-541.69 893.73,-531.4 899.48,-522.78"/>
<polygon fill="#63b8ff" stroke="#63b8ff" points="902.52,-524.53 905.16,-514.27 896.7,-520.65 902.52,-524.53"/>
</a>
</g>
</g>
<!-- Node21 -->
<g id="Node000021" class="node">
<title>Node21</title>
<g id="a_Node000021"><a xlink:title=" ">
<polygon fill="#e0e0e0" stroke="#999999" points="980,-459 948,-459 948,-440 980,-440 980,-459"/>
<text text-anchor="middle" x="964" y="-447" font-family="Helvetica,sans-Serif" font-size="10.00">list</text>
</a>
</g>
</g>
<!-- Node39&#45;&gt;Node21 -->
<g id="edge47_Node000039_Node000021" class="edge">
<title>Node39&#45;&gt;Node21</title>
<g id="a_edge47_Node000039_Node000021"><a xlink:title=" ">
<path fill="none" stroke="#63b8ff" d="M919.75,-494.75C927.47,-487.03 938.9,-475.6 948.22,-466.28"/>
<polygon fill="#63b8ff" stroke="#63b8ff" points="950.81,-468.64 955.41,-459.09 945.86,-463.69 950.81,-468.64"/>
</a>
</g>
</g>
<!-- Node40 -->
<g id="Node000040" class="node">
<title>Node40</title>
<g id="a_Node000040"><a xlink:href="threeval_8h.html" target="_top" xlink:title=" ">
<polygon fill="white" stroke="#666666" points="979.5,-349 894.5,-349 894.5,-330 979.5,-330 979.5,-349"/>
<text text-anchor="middle" x="937" y="-337" font-family="Helvetica,sans-Serif" font-size="10.00">util/threeval.h</text>
</a>
</g>
</g>
<!-- Node39&#45;&gt;Node40 -->
<g id="edge48_Node000039_Node000040" class="edge">
<title>Node39&#45;&gt;Node40</title>
<g id="a_edge48_Node000039_Node000040"><a xlink:title=" ">
<path fill="none" stroke="#63b8ff" d="M912.4,-494.74C916.47,-469.2 928.4,-394.43 934.01,-359.23"/>
<polygon fill="#63b8ff" stroke="#63b8ff" points="937.48,-359.73 935.6,-349.31 930.56,-358.63 937.48,-359.73"/>
</a>
</g>
</g>
<!-- Node41 -->
<g id="Node000041" class="node">
<title>Node41</title>
<g id="a_Node000041"><a xlink:href="cnf_8h.html" target="_top" xlink:title="CNF Generation, via Tseitin.">
<polygon fill="white" stroke="#666666" points="892,-459 852,-459 852,-440 892,-440 892,-459"/>
<text text-anchor="middle" x="872" y="-447" font-family="Helvetica,sans-Serif" font-size="10.00">cnf.h</text>
</a>
</g>
</g>
<!-- Node39&#45;&gt;Node41 -->
<g id="edge50_Node000039_Node000041" class="edge">
<title>Node39&#45;&gt;Node41</title>
<g id="a_edge50_Node000039_Node000041"><a xlink:title=" ">
<path fill="none" stroke="#63b8ff" d="M904.56,-494.75C899.11,-487.34 891.14,-476.5 884.44,-467.41"/>
<polygon fill="#63b8ff" stroke="#63b8ff" points="887.07,-465.07 878.32,-459.09 881.43,-469.22 887.07,-465.07"/>
</a>
</g>
</g>
<!-- Node40&#45;&gt;Node17 -->
<g id="edge49_Node000040_Node000017" class="edge">
<title>Node40&#45;&gt;Node17</title>
<g id="a_edge49_Node000040_Node000017"><a xlink:title=" ">
<path fill="none" stroke="#63b8ff" d="M935.99,-329.91C932.75,-304.13 921.4,-225.49 897,-165 886.33,-138.56 879.84,-133.7 864,-110 857.72,-100.6 850.25,-90.46 844.01,-82.23"/>
<polygon fill="#63b8ff" stroke="#63b8ff" points="846.7,-79.98 837.83,-74.18 841.15,-84.25 846.7,-79.98"/>
</a>
</g>
</g>
<!-- Node42 -->
<g id="Node000042" class="node">
<title>Node42</title>
<g id="a_Node000042"><a xlink:href="prop_8h.html" target="_top" xlink:title=" ">
<polygon fill="white" stroke="#666666" points="838,-404 728,-404 728,-385 838,-385 838,-404"/>
<text text-anchor="middle" x="783" y="-392" font-family="Helvetica,sans-Serif" font-size="10.00">solvers/prop/prop.h</text>
</a>
</g>
</g>
<!-- Node41&#45;&gt;Node42 -->
<g id="edge51_Node000041_Node000042" class="edge">
<title>Node41&#45;&gt;Node42</title>
<g id="a_edge51_Node000041_Node000042"><a xlink:title=" ">
<path fill="none" stroke="#63b8ff" d="M857.7,-439.98C843.9,-431.77 822.76,-419.18 806.49,-409.49"/>
<polygon fill="#63b8ff" stroke="#63b8ff" points="807.94,-406.28 797.56,-404.17 804.36,-412.29 807.94,-406.28"/>
</a>
</g>
</g>
<!-- Node42&#45;&gt;Node40 -->
<g id="edge59_Node000042_Node000040" class="edge">
<title>Node42&#45;&gt;Node40</title>
<g id="a_edge59_Node000042_Node000040"><a xlink:title=" ">
<path fill="none" stroke="#63b8ff" d="M807.74,-384.98C833.37,-376.16 873.63,-362.31 902.41,-352.41"/>
<polygon fill="#63b8ff" stroke="#63b8ff" points="903.75,-355.65 912.06,-349.08 901.47,-349.03 903.75,-355.65"/>
</a>
</g>
</g>
<!-- Node43 -->
<g id="Node000043" class="node">
<title>Node43</title>
<g id="a_Node000043"><a xlink:href="src_2util_2message_8h.html" target="_top" xlink:title=" ">
<polygon fill="white" stroke="#666666" points="693.5,-349 604.5,-349 604.5,-330 693.5,-330 693.5,-349"/>
<text text-anchor="middle" x="649" y="-337" font-family="Helvetica,sans-Serif" font-size="10.00">util/message.h</text>
</a>
</g>
</g>
<!-- Node42&#45;&gt;Node43 -->
<g id="edge52_Node000042_Node000043" class="edge">
<title>Node42&#45;&gt;Node43</title>
<g id="a_edge52_Node000042_Node000043"><a xlink:title=" ">
<path fill="none" stroke="#63b8ff" d="M761.47,-384.98C739.53,-376.3 705.26,-362.75 680.31,-352.88"/>
<polygon fill="#63b8ff" stroke="#63b8ff" points="681.51,-349.59 670.92,-349.17 678.93,-356.1 681.51,-349.59"/>
</a>
</g>
</g>
<!-- Node44 -->
<g id="Node000044" class="node">
<title>Node44</title>
<g id="a_Node000044"><a xlink:href="literal_8h.html" target="_top" xlink:title=" ">
<polygon fill="white" stroke="#666666" points="741,-239 687,-239 687,-220 741,-220 741,-239"/>
<text text-anchor="middle" x="714" y="-227" font-family="Helvetica,sans-Serif" font-size="10.00">literal.h</text>
</a>
</g>
</g>
<!-- Node42&#45;&gt;Node44 -->
<g id="edge60_Node000042_Node000044" class="edge">
<title>Node42&#45;&gt;Node44</title>
<g id="a_edge60_Node000042_Node000044"><a xlink:title=" ">
<path fill="none" stroke="#63b8ff" d="M779.29,-384.74C768.43,-359.09 736.56,-283.78 721.74,-248.78"/>
<polygon fill="#63b8ff" stroke="#63b8ff" points="724.85,-247.15 717.73,-239.31 718.4,-249.88 724.85,-247.15"/>
</a>
</g>
</g>
<!-- Node45 -->
<g id="Node000045" class="node">
<title>Node45</title>
<g id="a_Node000045"><a xlink:title=" ">
<polygon fill="#e0e0e0" stroke="#999999" points="838,-349 788,-349 788,-330 838,-330 838,-349"/>
<text text-anchor="middle" x="813" y="-337" font-family="Helvetica,sans-Serif" font-size="10.00">cstdint</text>
</a>
</g>
</g>
<!-- Node42&#45;&gt;Node45 -->
<g id="edge64_Node000042_Node000045" class="edge">
<title>Node42&#45;&gt;Node45</title>
<g id="a_edge64_Node000042_Node000045"><a xlink:title=" ">
<path fill="none" stroke="#63b8ff" d="M787.95,-384.75C792.06,-377.49 798.03,-366.95 803.1,-357.98"/>
<polygon fill="#63b8ff" stroke="#63b8ff" points="806.26,-359.52 808.14,-349.09 800.17,-356.07 806.26,-359.52"/>
</a>
</g>
</g>
<!-- Node43&#45;&gt;Node6 -->
<g id="edge54_Node000043_Node000006" class="edge">
<title>Node43&#45;&gt;Node6</title>
<g id="a_edge54_Node000043_Node000006"><a xlink:title=" ">
<path fill="none" stroke="#63b8ff" d="M604.32,-332.32C535.76,-322.83 404.48,-304.66 327.16,-293.96"/>
<polygon fill="#63b8ff" stroke="#63b8ff" points="327.47,-290.47 317.08,-292.57 326.51,-297.41 327.47,-290.47"/>
</a>
</g>
</g>
<!-- Node43&#45;&gt;Node9 -->
<g id="edge58_Node000043_Node000009" class="edge">
<title>Node43&#45;&gt;Node9</title>
<g id="a_edge58_Node000043_Node000009"><a xlink:title=" ">
<path fill="none" stroke="#63b8ff" d="M645.17,-329.76C638.47,-315.62 623.19,-287.97 601,-275 498.01,-214.79 449,-274.15 335,-239 316.96,-233.44 314.13,-227.94 297,-220 260.15,-202.91 247.39,-205.62 213,-184 157.57,-149.15 142.65,-133.35 115,-74 108.28,-59.58 103,-42.3 99.56,-29.41"/>
<polygon fill="#63b8ff" stroke="#63b8ff" points="102.87,-28.23 97.02,-19.4 96.09,-29.95 102.87,-28.23"/>
</a>
</g>
</g>
<!-- Node43&#45;&gt;Node11 -->
<g id="edge53_Node000043_Node000011" class="edge">
<title>Node43&#45;&gt;Node11</title>
<g id="a_edge53_Node000043_Node000011"><a xlink:title=" ">
<path fill="none" stroke="#63b8ff" d="M650.21,-329.84C652.67,-311.54 658,-267.57 658,-230.5 658,-230.5 658,-230.5 658,-173.5 658,-141.28 647.69,-104.91 640.59,-83.66"/>
<polygon fill="#63b8ff" stroke="#63b8ff" points="643.83,-82.33 637.24,-74.04 637.22,-84.63 643.83,-82.33"/>
</a>
</g>
</g>
<!-- Node43&#45;&gt;Node13 -->
<g id="edge57_Node000043_Node000013" class="edge">
<title>Node43&#45;&gt;Node13</title>
<g id="a_edge57_Node000043_Node000013"><a xlink:title=" ">
<path fill="none" stroke="#63b8ff" d="M667.44,-329.86C683.38,-321.88 706.55,-309.01 724,-294 811.87,-218.43 834.07,-185.97 864,-74 866.18,-65.84 869.27,-61.6 864,-55 863.38,-54.22 763.89,-31.79 707.28,-19.08"/>
<polygon fill="#63b8ff" stroke="#63b8ff" points="707.76,-15.6 697.24,-16.83 706.23,-22.43 707.76,-15.6"/>
</a>
</g>
</g>
<!-- Node43&#45;&gt;Node17 -->
<g id="edge56_Node000043_Node000017" class="edge">
<title>Node43&#45;&gt;Node17</title>
<g id="a_edge56_Node000043_Node000017"><a xlink:title=" ">
<path fill="none" stroke="#63b8ff" d="M659.98,-329.94C680.01,-313.89 722.88,-277.4 750,-239 786.52,-187.28 813.54,-116.48 824.97,-83.62"/>
<polygon fill="#63b8ff" stroke="#63b8ff" points="828.33,-84.61 828.25,-74.01 821.71,-82.35 828.33,-84.61"/>
</a>
</g>
</g>
<!-- Node43&#45;&gt;Node36 -->
<g id="edge55_Node000043_Node000036" class="edge">
<title>Node43&#45;&gt;Node36</title>
<g id="a_edge55_Node000043_Node000036"><a xlink:title=" ">
<path fill="none" stroke="#63b8ff" d="M634.54,-329.98C620.58,-321.77 599.21,-309.18 582.75,-299.49"/>
<polygon fill="#63b8ff" stroke="#63b8ff" points="584.12,-296.23 573.72,-294.17 580.56,-302.26 584.12,-296.23"/>
</a>
</g>
</g>
<!-- Node44&#45;&gt;Node10 -->
<g id="edge63_Node000044_Node000010" class="edge">
<title>Node44&#45;&gt;Node10</title>
<g id="a_edge63_Node000044_Node000010"><a xlink:title=" ">
<path fill="none" stroke="#63b8ff" d="M688.78,-219.98C662.1,-210.98 619.89,-196.73 590.45,-186.79"/>
<polygon fill="#63b8ff" stroke="#63b8ff" points="591.22,-183.36 580.62,-183.47 588.98,-189.99 591.22,-183.36"/>
</a>
</g>
</g>
<!-- Node44&#45;&gt;Node17 -->
<g id="edge61_Node000044_Node000017" class="edge">
<title>Node44&#45;&gt;Node17</title>
<g id="a_edge61_Node000044_Node000017"><a xlink:title=" ">
<path fill="none" stroke="#63b8ff" d="M720.05,-219.83C733.78,-200.19 768.39,-150.83 798,-110 804.63,-100.85 812.13,-90.73 818.3,-82.45"/>
<polygon fill="#63b8ff" stroke="#63b8ff" points="821.19,-84.43 824.37,-74.32 815.58,-80.24 821.19,-84.43"/>
</a>
</g>
</g>
<!-- Node44&#45;&gt;Node29 -->
<g id="edge62_Node000044_Node000029" class="edge">
<title>Node44&#45;&gt;Node29</title>
<g id="a_edge62_Node000044_Node000029"><a xlink:title=" ">
<path fill="none" stroke="#63b8ff" d="M714.16,-219.66C714.49,-202.17 715.22,-162.8 715.65,-139.27"/>
<polygon fill="#63b8ff" stroke="#63b8ff" points="719.15,-139.22 715.84,-129.16 712.16,-139.09 719.15,-139.22"/>
</a>
</g>
</g>
</g>
</svg>
