<?xml version="1.0" encoding="UTF-8" standalone="no"?>
<!DOCTYPE svg PUBLIC "-//W3C//DTD SVG 1.1//EN"
 "http://www.w3.org/Graphics/SVG/1.1/DTD/svg11.dtd">
<!-- Generated by graphviz version 2.43.0 (0)
 -->
<!-- Title: /home/runner/work/cbmc/cbmc/src/analyses/reaching_definitions.h Pages: 1 -->
<svg width="1376pt" height="280pt"
 viewBox="0.00 0.00 1376.00 280.00" xmlns="http://www.w3.org/2000/svg" xmlns:xlink="http://www.w3.org/1999/xlink">
<g id="graph0" class="graph" transform="scale(1 1) rotate(0) translate(4 276)">
<title>/home/runner/work/cbmc/cbmc/src/analyses/reaching_definitions.h</title>
<!-- Node1 -->
<g id="Node000001" class="node">
<title>Node1</title>
<g id="a_Node000001"><a xlink:title="Range&#45;based reaching definitions analysis (following Field&#45; Sensitive Program Dependence Analysis,...">
<polygon fill="#999999" stroke="#666666" points="1146.5,-272 991.5,-272 991.5,-231 1146.5,-231 1146.5,-272"/>
<text text-anchor="start" x="999.5" y="-260" font-family="Helvetica,sans-Serif" font-size="10.00">/home/runner/work/cbmc</text>
<text text-anchor="start" x="999.5" y="-249" font-family="Helvetica,sans-Serif" font-size="10.00">/cbmc/src/analyses/reaching</text>
<text text-anchor="middle" x="1069" y="-238" font-family="Helvetica,sans-Serif" font-size="10.00">_definitions.h</text>
</a>
</g>
</g>
<!-- Node2 -->
<g id="Node000002" class="node">
<title>Node2</title>
<g id="a_Node000002"><a xlink:href="dependence__graph_8h.html" target="_top" xlink:title="Field&#45;Sensitive Program Dependence Analysis, Litvak et al., FSE 2010.">
<polygon fill="white" stroke="#666666" points="839,-195 667,-195 667,-154 839,-154 839,-195"/>
<text text-anchor="start" x="675" y="-183" font-family="Helvetica,sans-Serif" font-size="10.00">/home/runner/work/cbmc</text>
<text text-anchor="start" x="675" y="-172" font-family="Helvetica,sans-Serif" font-size="10.00">/cbmc/src/analyses/dependence</text>
<text text-anchor="middle" x="753" y="-161" font-family="Helvetica,sans-Serif" font-size="10.00">_graph.h</text>
</a>
</g>
</g>
<!-- Node1&#45;&gt;Node2 -->
<g id="edge1_Node000001_Node000002" class="edge">
<title>Node1&#45;&gt;Node2</title>
<g id="a_edge1_Node000001_Node000002"><a xlink:title=" ">
<path fill="none" stroke="#63b8ff" d="M981.41,-229.71C935.76,-218.88 880.25,-205.7 835.38,-195.05"/>
<polygon fill="#63b8ff" stroke="#63b8ff" points="980.75,-233.15 991.29,-232.06 982.37,-226.34 980.75,-233.15"/>
</a>
</g>
</g>
<!-- Node11 -->
<g id="Node000011" class="node">
<title>Node11</title>
<g id="a_Node000011"><a xlink:href="goto__instrument__parse__options_8cpp.html" target="_top" xlink:title="Main Module.">
<polygon fill="white" stroke="#666666" points="1368,-118 1174,-118 1174,-77 1368,-77 1368,-118"/>
<text text-anchor="start" x="1182" y="-106" font-family="Helvetica,sans-Serif" font-size="10.00">/home/runner/work/cbmc</text>
<text text-anchor="start" x="1182" y="-95" font-family="Helvetica,sans-Serif" font-size="10.00">/cbmc/src/goto&#45;instrument</text>
<text text-anchor="middle" x="1271" y="-84" font-family="Helvetica,sans-Serif" font-size="10.00">/goto_instrument_parse_options.cpp</text>
</a>
</g>
</g>
<!-- Node1&#45;&gt;Node11 -->
<g id="edge13_Node000001_Node000011" class="edge">
<title>Node1&#45;&gt;Node11</title>
<g id="a_edge13_Node000001_Node000011"><a xlink:title=" ">
<path fill="none" stroke="#63b8ff" d="M1067.27,-220.83C1067.67,-199.71 1071.73,-171.98 1088,-154 1100.58,-140.09 1137.71,-127.65 1175.27,-118.08"/>
<polygon fill="#63b8ff" stroke="#63b8ff" points="1063.77,-220.92 1067.34,-230.9 1070.77,-220.87 1063.77,-220.92"/>
</a>
</g>
</g>
<!-- Node13 -->
<g id="Node000013" class="node">
<title>Node13</title>
<g id="a_Node000013"><a xlink:href="reaching__definitions_8cpp.html" target="_top" xlink:title="Range&#45;based reaching definitions analysis (following Field&#45; Sensitive Program Dependence Analysis,...">
<polygon fill="white" stroke="#666666" points="1252.5,-195 1097.5,-195 1097.5,-154 1252.5,-154 1252.5,-195"/>
<text text-anchor="start" x="1105.5" y="-183" font-family="Helvetica,sans-Serif" font-size="10.00">/home/runner/work/cbmc</text>
<text text-anchor="start" x="1105.5" y="-172" font-family="Helvetica,sans-Serif" font-size="10.00">/cbmc/src/analyses/reaching</text>
<text text-anchor="middle" x="1175" y="-161" font-family="Helvetica,sans-Serif" font-size="10.00">_definitions.cpp</text>
</a>
</g>
</g>
<!-- Node1&#45;&gt;Node13 -->
<g id="edge12_Node000001_Node000013" class="edge">
<title>Node1&#45;&gt;Node13</title>
<g id="a_edge12_Node000001_Node000013"><a xlink:title=" ">
<path fill="none" stroke="#63b8ff" d="M1104.91,-225.09C1118.72,-215.32 1134.26,-204.32 1147.2,-195.17"/>
<polygon fill="#63b8ff" stroke="#63b8ff" points="1102.72,-222.36 1096.57,-230.99 1106.76,-228.07 1102.72,-222.36"/>
</a>
</g>
</g>
<!-- Node3 -->
<g id="Node000003" class="node">
<title>Node3</title>
<g id="a_Node000003"><a xlink:href="janalyzer__parse__options_8cpp.html" target="_top" xlink:title="JANALYZER Command Line Option Processing.">
<polygon fill="white" stroke="#666666" points="158,-118 0,-118 0,-77 158,-77 158,-118"/>
<text text-anchor="start" x="8" y="-106" font-family="Helvetica,sans-Serif" font-size="10.00">/home/runner/work/cbmc</text>
<text text-anchor="start" x="8" y="-95" font-family="Helvetica,sans-Serif" font-size="10.00">/cbmc/jbmc/src/janalyzer</text>
<text text-anchor="middle" x="79" y="-84" font-family="Helvetica,sans-Serif" font-size="10.00">/janalyzer_parse_options.cpp</text>
</a>
</g>
</g>
<!-- Node2&#45;&gt;Node3 -->
<g id="edge2_Node000002_Node000003" class="edge">
<title>Node2&#45;&gt;Node3</title>
<g id="a_edge2_Node000002_Node000003"><a xlink:title=" ">
<path fill="none" stroke="#63b8ff" d="M656.38,-168.02C539.83,-160.57 338.24,-144.98 167,-118 164.06,-117.54 161.08,-117.04 158.07,-116.5"/>
<polygon fill="#63b8ff" stroke="#63b8ff" points="656.49,-171.54 666.69,-168.67 656.93,-164.55 656.49,-171.54"/>
</a>
</g>
</g>
<!-- Node4 -->
<g id="Node000004" class="node">
<title>Node4</title>
<g id="a_Node000004"><a xlink:href="dependence__graph_8cpp.html" target="_top" xlink:title="Field&#45;Sensitive Program Dependence Analysis, Litvak et al., FSE 2010.">
<polygon fill="white" stroke="#666666" points="348,-118 176,-118 176,-77 348,-77 348,-118"/>
<text text-anchor="start" x="184" y="-106" font-family="Helvetica,sans-Serif" font-size="10.00">/home/runner/work/cbmc</text>
<text text-anchor="start" x="184" y="-95" font-family="Helvetica,sans-Serif" font-size="10.00">/cbmc/src/analyses/dependence</text>
<text text-anchor="middle" x="262" y="-84" font-family="Helvetica,sans-Serif" font-size="10.00">_graph.cpp</text>
</a>
</g>
</g>
<!-- Node2&#45;&gt;Node4 -->
<g id="edge3_Node000002_Node000004" class="edge">
<title>Node2&#45;&gt;Node4</title>
<g id="a_edge3_Node000002_Node000004"><a xlink:title=" ">
<path fill="none" stroke="#63b8ff" d="M656.52,-161.71C576.17,-151.48 458.85,-135.57 357,-118 354.1,-117.5 351.15,-116.98 348.17,-116.43"/>
<polygon fill="#63b8ff" stroke="#63b8ff" points="656.26,-165.21 666.62,-162.99 657.14,-158.26 656.26,-165.21"/>
</a>
</g>
</g>
<!-- Node5 -->
<g id="Node000005" class="node">
<title>Node5</title>
<g id="a_Node000005"><a xlink:href="build__analyzer_8cpp.html" target="_top" xlink:title=" ">
<polygon fill="white" stroke="#666666" points="504,-118 366,-118 366,-77 504,-77 504,-118"/>
<text text-anchor="start" x="374" y="-106" font-family="Helvetica,sans-Serif" font-size="10.00">/home/runner/work/cbmc</text>
<text text-anchor="start" x="374" y="-95" font-family="Helvetica,sans-Serif" font-size="10.00">/cbmc/src/goto&#45;analyzer</text>
<text text-anchor="middle" x="435" y="-84" font-family="Helvetica,sans-Serif" font-size="10.00">/build_analyzer.cpp</text>
</a>
</g>
</g>
<!-- Node2&#45;&gt;Node5 -->
<g id="edge4_Node000002_Node000005" class="edge">
<title>Node2&#45;&gt;Node5</title>
<g id="a_edge4_Node000002_Node000005"><a xlink:title=" ">
<path fill="none" stroke="#63b8ff" d="M657.01,-151.71C613.07,-141.63 560.35,-129.39 513,-118 510.15,-117.31 507.24,-116.61 504.31,-115.89"/>
<polygon fill="#63b8ff" stroke="#63b8ff" points="656.3,-155.14 666.83,-153.96 657.86,-148.32 656.3,-155.14"/>
</a>
</g>
</g>
<!-- Node6 -->
<g id="Node000006" class="node">
<title>Node6</title>
<g id="a_Node000006"><a xlink:href="static__show__domain_8cpp.html" target="_top" xlink:title=" ">
<polygon fill="white" stroke="#666666" points="662,-118 522,-118 522,-77 662,-77 662,-118"/>
<text text-anchor="start" x="530" y="-106" font-family="Helvetica,sans-Serif" font-size="10.00">/home/runner/work/cbmc</text>
<text text-anchor="start" x="530" y="-95" font-family="Helvetica,sans-Serif" font-size="10.00">/cbmc/src/goto&#45;analyzer</text>
<text text-anchor="middle" x="592" y="-84" font-family="Helvetica,sans-Serif" font-size="10.00">/static_show_domain.cpp</text>
</a>
</g>
</g>
<!-- Node2&#45;&gt;Node6 -->
<g id="edge5_Node000002_Node000006" class="edge">
<title>Node2&#45;&gt;Node6</title>
<g id="a_edge5_Node000002_Node000006"><a xlink:title=" ">
<path fill="none" stroke="#63b8ff" d="M701.96,-149.72C680.04,-139.51 654.75,-127.73 633.95,-118.04"/>
<polygon fill="#63b8ff" stroke="#63b8ff" points="700.58,-152.94 711.12,-153.99 703.53,-146.6 700.58,-152.94"/>
</a>
</g>
</g>
<!-- Node7 -->
<g id="Node000007" class="node">
<title>Node7</title>
<g id="a_Node000007"><a xlink:href="change__impact_8cpp.html" target="_top" xlink:title="Data and control&#45;dependencies of syntactic diff.">
<polygon fill="white" stroke="#666666" points="826,-118 680,-118 680,-77 826,-77 826,-118"/>
<text text-anchor="start" x="688" y="-106" font-family="Helvetica,sans-Serif" font-size="10.00">/home/runner/work/cbmc</text>
<text text-anchor="start" x="688" y="-95" font-family="Helvetica,sans-Serif" font-size="10.00">/cbmc/src/goto&#45;diff/change</text>
<text text-anchor="middle" x="753" y="-84" font-family="Helvetica,sans-Serif" font-size="10.00">_impact.cpp</text>
</a>
</g>
</g>
<!-- Node2&#45;&gt;Node7 -->
<g id="edge6_Node000002_Node000007" class="edge">
<title>Node2&#45;&gt;Node7</title>
<g id="a_edge6_Node000002_Node000007"><a xlink:title=" ">
<path fill="none" stroke="#63b8ff" d="M753,-143.69C753,-135.08 753,-125.9 753,-118.07"/>
<polygon fill="#63b8ff" stroke="#63b8ff" points="749.5,-143.79 753,-153.79 756.5,-143.79 749.5,-143.79"/>
</a>
</g>
</g>
<!-- Node8 -->
<g id="Node000008" class="node">
<title>Node8</title>
<g id="a_Node000008"><a xlink:href="full__slicer__class_8h.html" target="_top" xlink:title="Goto Program Slicing.">
<polygon fill="white" stroke="#666666" points="989.5,-118 844.5,-118 844.5,-77 989.5,-77 989.5,-118"/>
<text text-anchor="start" x="852.5" y="-106" font-family="Helvetica,sans-Serif" font-size="10.00">/home/runner/work/cbmc</text>
<text text-anchor="start" x="852.5" y="-95" font-family="Helvetica,sans-Serif" font-size="10.00">/cbmc/src/goto&#45;instrument</text>
<text text-anchor="middle" x="917" y="-84" font-family="Helvetica,sans-Serif" font-size="10.00">/full_slicer_class.h</text>
</a>
</g>
</g>
<!-- Node2&#45;&gt;Node8 -->
<g id="edge7_Node000002_Node000008" class="edge">
<title>Node2&#45;&gt;Node8</title>
<g id="a_edge7_Node000002_Node000008"><a xlink:title=" ">
<path fill="none" stroke="#63b8ff" d="M804.99,-149.72C827.32,-139.51 853.08,-127.73 874.27,-118.04"/>
<polygon fill="#63b8ff" stroke="#63b8ff" points="803.3,-146.65 795.66,-153.99 806.21,-153.01 803.3,-146.65"/>
</a>
</g>
</g>
<!-- Node2&#45;&gt;Node11 -->
<g id="edge10_Node000002_Node000011" class="edge">
<title>Node2&#45;&gt;Node11</title>
<g id="a_edge10_Node000002_Node000011"><a xlink:title=" ">
<path fill="none" stroke="#63b8ff" d="M849.18,-161.87C932.8,-151.44 1057.13,-135.18 1165,-118 1167.96,-117.53 1170.96,-117.04 1173.99,-116.54"/>
<polygon fill="#63b8ff" stroke="#63b8ff" points="848.68,-158.41 839.19,-163.11 849.54,-165.35 848.68,-158.41"/>
</a>
</g>
</g>
<!-- Node12 -->
<g id="Node000012" class="node">
<title>Node12</title>
<g id="a_Node000012"><a xlink:href="cegis__verifier_8cpp.html" target="_top" xlink:title="Verifier for Counterexample&#45;Guided Synthesis.">
<polygon fill="white" stroke="#666666" points="1156,-118 1008,-118 1008,-77 1156,-77 1156,-118"/>
<text text-anchor="start" x="1016" y="-106" font-family="Helvetica,sans-Serif" font-size="10.00">/home/runner/work/cbmc</text>
<text text-anchor="start" x="1016" y="-95" font-family="Helvetica,sans-Serif" font-size="10.00">/cbmc/src/goto&#45;synthesizer</text>
<text text-anchor="middle" x="1082" y="-84" font-family="Helvetica,sans-Serif" font-size="10.00">/cegis_verifier.cpp</text>
</a>
</g>
</g>
<!-- Node2&#45;&gt;Node12 -->
<g id="edge11_Node000002_Node000012" class="edge">
<title>Node2&#45;&gt;Node12</title>
<g id="a_edge11_Node000002_Node000012"><a xlink:title=" ">
<path fill="none" stroke="#63b8ff" d="M848.99,-151.88C894.21,-141.66 948.89,-129.26 998,-118 1001.21,-117.26 1004.49,-116.51 1007.8,-115.75"/>
<polygon fill="#63b8ff" stroke="#63b8ff" points="848.18,-148.47 839.2,-154.09 849.72,-155.3 848.18,-148.47"/>
</a>
</g>
</g>
<!-- Node9 -->
<g id="Node000009" class="node">
<title>Node9</title>
<g id="a_Node000009"><a xlink:href="full__slicer_8cpp.html" target="_top" xlink:title="Slicing.">
<polygon fill="white" stroke="#666666" points="908.5,-41 763.5,-41 763.5,0 908.5,0 908.5,-41"/>
<text text-anchor="start" x="771.5" y="-29" font-family="Helvetica,sans-Serif" font-size="10.00">/home/runner/work/cbmc</text>
<text text-anchor="start" x="771.5" y="-18" font-family="Helvetica,sans-Serif" font-size="10.00">/cbmc/src/goto&#45;instrument</text>
<text text-anchor="middle" x="836" y="-7" font-family="Helvetica,sans-Serif" font-size="10.00">/full_slicer.cpp</text>
</a>
</g>
</g>
<!-- Node8&#45;&gt;Node9 -->
<g id="edge8_Node000008_Node000009" class="edge">
<title>Node8&#45;&gt;Node9</title>
<g id="a_edge8_Node000008_Node000009"><a xlink:title=" ">
<path fill="none" stroke="#63b8ff" d="M888.15,-69.79C877.92,-60.32 866.61,-49.84 857.14,-41.07"/>
<polygon fill="#63b8ff" stroke="#63b8ff" points="886,-72.57 895.72,-76.79 890.76,-67.43 886,-72.57"/>
</a>
</g>
</g>
<!-- Node10 -->
<g id="Node000010" class="node">
<title>Node10</title>
<g id="a_Node000010"><a xlink:href="reachability__slicer_8cpp.html" target="_top" xlink:title="Reachability Slicer Consider the control flow graph of the goto program and a criterion,...">
<polygon fill="white" stroke="#666666" points="1071.5,-41 926.5,-41 926.5,0 1071.5,0 1071.5,-41"/>
<text text-anchor="start" x="934.5" y="-29" font-family="Helvetica,sans-Serif" font-size="10.00">/home/runner/work/cbmc</text>
<text text-anchor="start" x="934.5" y="-18" font-family="Helvetica,sans-Serif" font-size="10.00">/cbmc/src/goto&#45;instrument</text>
<text text-anchor="middle" x="999" y="-7" font-family="Helvetica,sans-Serif" font-size="10.00">/reachability_slicer.cpp</text>
</a>
</g>
</g>
<!-- Node8&#45;&gt;Node10 -->
<g id="edge9_Node000008_Node000010" class="edge">
<title>Node8&#45;&gt;Node10</title>
<g id="a_edge9_Node000008_Node000010"><a xlink:title=" ">
<path fill="none" stroke="#63b8ff" d="M946.2,-69.79C956.56,-60.32 968.01,-49.84 977.6,-41.07"/>
<polygon fill="#63b8ff" stroke="#63b8ff" points="943.56,-67.46 938.54,-76.79 948.29,-72.63 943.56,-67.46"/>
</a>
</g>
</g>
</g>
</svg>
