<?xml version="1.0" encoding="UTF-8" standalone="no"?>
<!DOCTYPE svg PUBLIC "-//W3C//DTD SVG 1.1//EN"
 "http://www.w3.org/Graphics/SVG/1.1/DTD/svg11.dtd">
<!-- Generated by graphviz version 2.43.0 (0)
 -->
<!-- Title: /home/runner/work/cbmc/cbmc/src/util/reference_counting.h Pages: 1 -->
<svg width="1808pt" height="610pt"
 viewBox="0.00 0.00 1808.00 610.00" xmlns="http://www.w3.org/2000/svg" xmlns:xlink="http://www.w3.org/1999/xlink">
<g id="graph0" class="graph" transform="scale(1 1) rotate(0) translate(4 606)">
<title>/home/runner/work/cbmc/cbmc/src/util/reference_counting.h</title>
<!-- Node1 -->
<g id="Node000001" class="node">
<title>Node1</title>
<g id="a_Node000001"><a xlink:title="Reference Counting.">
<polygon fill="#999999" stroke="#666666" points="1516,-602 1378,-602 1378,-561 1516,-561 1516,-602"/>
<text text-anchor="start" x="1386" y="-590" font-family="Helvetica,sans-Serif" font-size="10.00">/home/runner/work/cbmc</text>
<text text-anchor="start" x="1386" y="-579" font-family="Helvetica,sans-Serif" font-size="10.00">/cbmc/src/util/reference</text>
<text text-anchor="middle" x="1447" y="-568" font-family="Helvetica,sans-Serif" font-size="10.00">_counting.h</text>
</a>
</g>
</g>
<!-- Node2 -->
<g id="Node000002" class="node">
<title>Node2</title>
<g id="a_Node000002"><a xlink:href="value__set_8h.html" target="_top" xlink:title="Value Set.">
<polygon fill="white" stroke="#666666" points="1119.5,-525 974.5,-525 974.5,-484 1119.5,-484 1119.5,-525"/>
<text text-anchor="start" x="982.5" y="-513" font-family="Helvetica,sans-Serif" font-size="10.00">/home/runner/work/cbmc</text>
<text text-anchor="start" x="982.5" y="-502" font-family="Helvetica,sans-Serif" font-size="10.00">/cbmc/src/pointer&#45;analysis</text>
<text text-anchor="middle" x="1047" y="-491" font-family="Helvetica,sans-Serif" font-size="10.00">/value_set.h</text>
</a>
</g>
</g>
<!-- Node1&#45;&gt;Node2 -->
<g id="edge1_Node000001_Node000002" class="edge">
<title>Node1&#45;&gt;Node2</title>
<g id="a_edge1_Node000001_Node000002"><a xlink:title=" ">
<path fill="none" stroke="#63b8ff" d="M1367.83,-565.65C1295.64,-552.12 1189.87,-532.29 1119.76,-519.14"/>
<polygon fill="#63b8ff" stroke="#63b8ff" points="1367.31,-569.12 1377.78,-567.52 1368.6,-562.24 1367.31,-569.12"/>
</a>
</g>
</g>
<!-- Node81 -->
<g id="Node000081" class="node">
<title>Node81</title>
<g id="a_Node000081"><a xlink:href="value__set__fi_8h.html" target="_top" xlink:title="Value Set (Flow Insensitive, Sharing)">
<polygon fill="white" stroke="#666666" points="1519.5,-525 1374.5,-525 1374.5,-484 1519.5,-484 1519.5,-525"/>
<text text-anchor="start" x="1382.5" y="-513" font-family="Helvetica,sans-Serif" font-size="10.00">/home/runner/work/cbmc</text>
<text text-anchor="start" x="1382.5" y="-502" font-family="Helvetica,sans-Serif" font-size="10.00">/cbmc/src/pointer&#45;analysis</text>
<text text-anchor="middle" x="1447" y="-491" font-family="Helvetica,sans-Serif" font-size="10.00">/value_set_fi.h</text>
</a>
</g>
</g>
<!-- Node1&#45;&gt;Node81 -->
<g id="edge30_Node000001_Node000081" class="edge">
<title>Node1&#45;&gt;Node81</title>
<g id="a_edge30_Node000001_Node000081"><a xlink:title=" ">
<path fill="none" stroke="#63b8ff" d="M1447,-550.69C1447,-542.08 1447,-532.9 1447,-525.07"/>
<polygon fill="#63b8ff" stroke="#63b8ff" points="1443.5,-550.79 1447,-560.79 1450.5,-550.79 1443.5,-550.79"/>
</a>
</g>
</g>
<!-- Node89 -->
<g id="Node000089" class="node">
<title>Node89</title>
<g id="a_Node000089"><a xlink:href="ref__expr__set_8h.html" target="_top" xlink:title="Value Set.">
<polygon fill="white" stroke="#666666" points="1769.5,-519.5 1614.5,-519.5 1614.5,-489.5 1769.5,-489.5 1769.5,-519.5"/>
<text text-anchor="start" x="1622.5" y="-507.5" font-family="Helvetica,sans-Serif" font-size="10.00">/home/runner/work/cbmc</text>
<text text-anchor="middle" x="1692" y="-496.5" font-family="Helvetica,sans-Serif" font-size="10.00">/cbmc/src/util/ref_expr_set.h</text>
</a>
</g>
</g>
<!-- Node1&#45;&gt;Node89 -->
<g id="edge38_Node000001_Node000089" class="edge">
<title>Node1&#45;&gt;Node89</title>
<g id="a_edge38_Node000001_Node000089"><a xlink:title=" ">
<path fill="none" stroke="#63b8ff" d="M1520.36,-558.04C1561.15,-545.56 1610.66,-530.4 1646,-519.58"/>
<polygon fill="#63b8ff" stroke="#63b8ff" points="1519.27,-554.72 1510.73,-560.99 1521.32,-561.41 1519.27,-554.72"/>
</a>
</g>
</g>
<!-- Node3 -->
<g id="Node000003" class="node">
<title>Node3</title>
<g id="a_Node000003"><a xlink:href="goto__state_8h.html" target="_top" xlink:title="goto_statet class definition">
<polygon fill="white" stroke="#666666" points="922.5,-448 773.5,-448 773.5,-407 922.5,-407 922.5,-448"/>
<text text-anchor="start" x="781.5" y="-436" font-family="Helvetica,sans-Serif" font-size="10.00">/home/runner/work/cbmc</text>
<text text-anchor="start" x="781.5" y="-425" font-family="Helvetica,sans-Serif" font-size="10.00">/cbmc/src/goto&#45;symex/goto</text>
<text text-anchor="middle" x="848" y="-414" font-family="Helvetica,sans-Serif" font-size="10.00">_state.h</text>
</a>
</g>
</g>
<!-- Node2&#45;&gt;Node3 -->
<g id="edge2_Node000002_Node000003" class="edge">
<title>Node2&#45;&gt;Node3</title>
<g id="a_edge2_Node000002_Node000003"><a xlink:title=" ">
<path fill="none" stroke="#63b8ff" d="M985.72,-480.4C958.22,-470.04 926.13,-457.95 899.85,-448.04"/>
<polygon fill="#63b8ff" stroke="#63b8ff" points="984.64,-483.74 995.23,-483.99 987.11,-477.19 984.64,-483.74"/>
</a>
</g>
</g>
<!-- Node73 -->
<g id="Node000073" class="node">
<title>Node73</title>
<g id="a_Node000073"><a xlink:href="postcondition_8cpp.html" target="_top" xlink:title="Symbolic Execution.">
<polygon fill="white" stroke="#666666" points="1154,-442.5 940,-442.5 940,-412.5 1154,-412.5 1154,-442.5"/>
<text text-anchor="start" x="948" y="-430.5" font-family="Helvetica,sans-Serif" font-size="10.00">/home/runner/work/cbmc</text>
<text text-anchor="middle" x="1047" y="-419.5" font-family="Helvetica,sans-Serif" font-size="10.00">/cbmc/src/goto&#45;symex/postcondition.cpp</text>
</a>
</g>
</g>
<!-- Node2&#45;&gt;Node73 -->
<g id="edge20_Node000002_Node000073" class="edge">
<title>Node2&#45;&gt;Node73</title>
<g id="a_edge20_Node000002_Node000073"><a xlink:title=" ">
<path fill="none" stroke="#63b8ff" d="M1047,-473.61C1047,-463.01 1047,-451.57 1047,-442.86"/>
<polygon fill="#63b8ff" stroke="#63b8ff" points="1043.5,-473.79 1047,-483.79 1050.5,-473.79 1043.5,-473.79"/>
</a>
</g>
</g>
<!-- Node74 -->
<g id="Node000074" class="node">
<title>Node74</title>
<g id="a_Node000074"><a xlink:href="value__set_8cpp.html" target="_top" xlink:title="Value Set.">
<polygon fill="white" stroke="#666666" points="1317.5,-448 1172.5,-448 1172.5,-407 1317.5,-407 1317.5,-448"/>
<text text-anchor="start" x="1180.5" y="-436" font-family="Helvetica,sans-Serif" font-size="10.00">/home/runner/work/cbmc</text>
<text text-anchor="start" x="1180.5" y="-425" font-family="Helvetica,sans-Serif" font-size="10.00">/cbmc/src/pointer&#45;analysis</text>
<text text-anchor="middle" x="1245" y="-414" font-family="Helvetica,sans-Serif" font-size="10.00">/value_set.cpp</text>
</a>
</g>
</g>
<!-- Node2&#45;&gt;Node74 -->
<g id="edge21_Node000002_Node000074" class="edge">
<title>Node2&#45;&gt;Node74</title>
<g id="a_edge21_Node000002_Node000074"><a xlink:title=" ">
<path fill="none" stroke="#63b8ff" d="M1107.97,-480.4C1135.33,-470.04 1167.26,-457.95 1193.41,-448.04"/>
<polygon fill="#63b8ff" stroke="#63b8ff" points="1106.62,-477.18 1098.51,-483.99 1109.1,-483.72 1106.62,-477.18"/>
</a>
</g>
</g>
<!-- Node75 -->
<g id="Node000075" class="node">
<title>Node75</title>
<g id="a_Node000075"><a xlink:href="value__set__domain_8h.html" target="_top" xlink:title="Value Set.">
<polygon fill="white" stroke="#666666" points="675.5,-448 530.5,-448 530.5,-407 675.5,-407 675.5,-448"/>
<text text-anchor="start" x="538.5" y="-436" font-family="Helvetica,sans-Serif" font-size="10.00">/home/runner/work/cbmc</text>
<text text-anchor="start" x="538.5" y="-425" font-family="Helvetica,sans-Serif" font-size="10.00">/cbmc/src/pointer&#45;analysis</text>
<text text-anchor="middle" x="603" y="-414" font-family="Helvetica,sans-Serif" font-size="10.00">/value_set_domain.h</text>
</a>
</g>
</g>
<!-- Node2&#45;&gt;Node75 -->
<g id="edge22_Node000002_Node000075" class="edge">
<title>Node2&#45;&gt;Node75</title>
<g id="a_edge22_Node000002_Node000075"><a xlink:title=" ">
<path fill="none" stroke="#63b8ff" d="M964.29,-489.53C881.41,-475.53 755.07,-454.19 675.86,-440.81"/>
<polygon fill="#63b8ff" stroke="#63b8ff" points="963.74,-492.98 974.18,-491.2 964.9,-486.08 963.74,-492.98"/>
</a>
</g>
</g>
<!-- Node4 -->
<g id="Node000004" class="node">
<title>Node4</title>
<g id="a_Node000004"><a xlink:href="frame_8h.html" target="_top" xlink:title="Class for stack frames.">
<polygon fill="white" stroke="#666666" points="876,-365.5 710,-365.5 710,-335.5 876,-335.5 876,-365.5"/>
<text text-anchor="start" x="718" y="-353.5" font-family="Helvetica,sans-Serif" font-size="10.00">/home/runner/work/cbmc</text>
<text text-anchor="middle" x="793" y="-342.5" font-family="Helvetica,sans-Serif" font-size="10.00">/cbmc/src/goto&#45;symex/frame.h</text>
</a>
</g>
</g>
<!-- Node3&#45;&gt;Node4 -->
<g id="edge3_Node000003_Node000004" class="edge">
<title>Node3&#45;&gt;Node4</title>
<g id="a_edge3_Node000003_Node000004"><a xlink:title=" ">
<path fill="none" stroke="#63b8ff" d="M827.53,-398.59C819.37,-387.46 810.32,-375.12 803.53,-365.86"/>
<polygon fill="#63b8ff" stroke="#63b8ff" points="824.81,-400.8 833.55,-406.79 830.46,-396.66 824.81,-400.8"/>
</a>
</g>
</g>
<!-- Node7 -->
<g id="Node000007" class="node">
<title>Node7</title>
<g id="a_Node000007"><a xlink:href="goto__symex__state_8h.html" target="_top" xlink:title="Symbolic Execution.">
<polygon fill="white" stroke="#666666" points="978.5,-211.5 829.5,-211.5 829.5,-170.5 978.5,-170.5 978.5,-211.5"/>
<text text-anchor="start" x="837.5" y="-199.5" font-family="Helvetica,sans-Serif" font-size="10.00">/home/runner/work/cbmc</text>
<text text-anchor="start" x="837.5" y="-188.5" font-family="Helvetica,sans-Serif" font-size="10.00">/cbmc/src/goto&#45;symex/goto</text>
<text text-anchor="middle" x="904" y="-177.5" font-family="Helvetica,sans-Serif" font-size="10.00">_symex_state.h</text>
</a>
</g>
</g>
<!-- Node3&#45;&gt;Node7 -->
<g id="edge19_Node000003_Node000007" class="edge">
<title>Node3&#45;&gt;Node7</title>
<g id="a_edge19_Node000003_Node000007"><a xlink:title=" ">
<path fill="none" stroke="#63b8ff" d="M870.35,-398.64C876.04,-390.21 881.52,-380.62 885,-371 904.92,-315.89 905.85,-245.49 904.93,-211.75"/>
<polygon fill="#63b8ff" stroke="#63b8ff" points="867.37,-396.79 864.42,-406.96 873.08,-400.85 867.37,-396.79"/>
</a>
</g>
</g>
<!-- Node10 -->
<g id="Node000010" class="node">
<title>Node10</title>
<g id="a_Node000010"><a xlink:href="goto__state_8cpp.html" target="_top" xlink:title=" ">
<polygon fill="white" stroke="#666666" points="1622.5,-123.5 1473.5,-123.5 1473.5,-82.5 1622.5,-82.5 1622.5,-123.5"/>
<text text-anchor="start" x="1481.5" y="-111.5" font-family="Helvetica,sans-Serif" font-size="10.00">/home/runner/work/cbmc</text>
<text text-anchor="start" x="1481.5" y="-100.5" font-family="Helvetica,sans-Serif" font-size="10.00">/cbmc/src/goto&#45;symex/goto</text>
<text text-anchor="middle" x="1548" y="-89.5" font-family="Helvetica,sans-Serif" font-size="10.00">_state.cpp</text>
</a>
</g>
</g>
<!-- Node3&#45;&gt;Node10 -->
<g id="edge18_Node000003_Node000010" class="edge">
<title>Node3&#45;&gt;Node10</title>
<g id="a_edge18_Node000003_Node000010"><a xlink:title=" ">
<path fill="none" stroke="#63b8ff" d="M899.64,-402.71C1032.3,-341.59 1383.17,-179.94 1505.33,-123.66"/>
<polygon fill="#63b8ff" stroke="#63b8ff" points="898.09,-399.57 890.47,-406.93 901.02,-405.93 898.09,-399.57"/>
</a>
</g>
</g>
<!-- Node5 -->
<g id="Node000005" class="node">
<title>Node5</title>
<g id="a_Node000005"><a xlink:href="call__stack_8h.html" target="_top" xlink:title=" ">
<polygon fill="white" stroke="#666666" points="865.5,-294 720.5,-294 720.5,-253 865.5,-253 865.5,-294"/>
<text text-anchor="start" x="728.5" y="-282" font-family="Helvetica,sans-Serif" font-size="10.00">/home/runner/work/cbmc</text>
<text text-anchor="start" x="728.5" y="-271" font-family="Helvetica,sans-Serif" font-size="10.00">/cbmc/src/goto&#45;symex/call</text>
<text text-anchor="middle" x="793" y="-260" font-family="Helvetica,sans-Serif" font-size="10.00">_stack.h</text>
</a>
</g>
</g>
<!-- Node4&#45;&gt;Node5 -->
<g id="edge4_Node000004_Node000005" class="edge">
<title>Node4&#45;&gt;Node5</title>
<g id="a_edge4_Node000004_Node000005"><a xlink:title=" ">
<path fill="none" stroke="#63b8ff" d="M793,-325.23C793,-315.2 793,-303.71 793,-294.2"/>
<polygon fill="#63b8ff" stroke="#63b8ff" points="789.5,-325.39 793,-335.39 796.5,-325.39 789.5,-325.39"/>
</a>
</g>
</g>
<!-- Node6 -->
<g id="Node000006" class="node">
<title>Node6</title>
<g id="a_Node000006"><a xlink:href="java__enum__static__init__unwind__handler_8cpp.html" target="_top" xlink:title="Unwind loops in static initializers.">
<polygon fill="white" stroke="#666666" points="811.5,-217 644.5,-217 644.5,-165 811.5,-165 811.5,-217"/>
<text text-anchor="start" x="652.5" y="-205" font-family="Helvetica,sans-Serif" font-size="10.00">/home/runner/work/cbmc</text>
<text text-anchor="start" x="652.5" y="-194" font-family="Helvetica,sans-Serif" font-size="10.00">/cbmc/jbmc/src/java_bytecode</text>
<text text-anchor="start" x="652.5" y="-183" font-family="Helvetica,sans-Serif" font-size="10.00">/java_enum_static_init_unwind</text>
<text text-anchor="middle" x="728" y="-172" font-family="Helvetica,sans-Serif" font-size="10.00">_handler.cpp</text>
</a>
</g>
</g>
<!-- Node5&#45;&gt;Node6 -->
<g id="edge5_Node000005_Node000006" class="edge">
<title>Node5&#45;&gt;Node6</title>
<g id="a_edge5_Node000005_Node000006"><a xlink:title=" ">
<path fill="none" stroke="#63b8ff" d="M770.55,-244.7C763.33,-235.75 755.37,-225.9 748.31,-217.16"/>
<polygon fill="#63b8ff" stroke="#63b8ff" points="767.93,-247.02 776.93,-252.6 773.37,-242.62 767.93,-247.02"/>
</a>
</g>
</g>
<!-- Node5&#45;&gt;Node7 -->
<g id="edge6_Node000005_Node000007" class="edge">
<title>Node5&#45;&gt;Node7</title>
<g id="a_edge6_Node000005_Node000007"><a xlink:title=" ">
<path fill="none" stroke="#63b8ff" d="M828.54,-246.72C844.16,-235.4 862.21,-222.31 876.74,-211.77"/>
<polygon fill="#63b8ff" stroke="#63b8ff" points="826.19,-244.1 820.15,-252.81 830.3,-249.77 826.19,-244.1"/>
</a>
</g>
</g>
<!-- Node8 -->
<g id="Node000008" class="node">
<title>Node8</title>
<g id="a_Node000008"><a xlink:href="complexity__limiter_8cpp.html" target="_top" xlink:title=" ">
<polygon fill="white" stroke="#666666" points="182,-123.5 0,-123.5 0,-82.5 182,-82.5 182,-123.5"/>
<text text-anchor="start" x="8" y="-111.5" font-family="Helvetica,sans-Serif" font-size="10.00">/home/runner/work/cbmc</text>
<text text-anchor="start" x="8" y="-100.5" font-family="Helvetica,sans-Serif" font-size="10.00">/cbmc/src/goto&#45;symex/complexity</text>
<text text-anchor="middle" x="91" y="-89.5" font-family="Helvetica,sans-Serif" font-size="10.00">_limiter.cpp</text>
</a>
</g>
</g>
<!-- Node7&#45;&gt;Node8 -->
<g id="edge7_Node000007_Node000008" class="edge">
<title>Node7&#45;&gt;Node8</title>
<g id="a_edge7_Node000007_Node000008"><a xlink:title=" ">
<path fill="none" stroke="#63b8ff" d="M834.38,-167.94C829.54,-166.83 824.72,-165.83 820,-165 544.18,-116.74 467.82,-171.14 191,-129 181.62,-127.57 171.84,-125.66 162.23,-123.54"/>
<polygon fill="#63b8ff" stroke="#63b8ff" points="833.75,-171.39 844.3,-170.39 835.43,-164.6 833.75,-171.39"/>
</a>
</g>
</g>
<!-- Node9 -->
<g id="Node000009" class="node">
<title>Node9</title>
<g id="a_Node000009"><a xlink:href="field__sensitivity_8cpp.html" target="_top" xlink:title=" ">
<polygon fill="white" stroke="#666666" points="349.5,-123.5 200.5,-123.5 200.5,-82.5 349.5,-82.5 349.5,-123.5"/>
<text text-anchor="start" x="208.5" y="-111.5" font-family="Helvetica,sans-Serif" font-size="10.00">/home/runner/work/cbmc</text>
<text text-anchor="start" x="208.5" y="-100.5" font-family="Helvetica,sans-Serif" font-size="10.00">/cbmc/src/goto&#45;symex/field</text>
<text text-anchor="middle" x="275" y="-89.5" font-family="Helvetica,sans-Serif" font-size="10.00">_sensitivity.cpp</text>
</a>
</g>
</g>
<!-- Node7&#45;&gt;Node9 -->
<g id="edge8_Node000007_Node000009" class="edge">
<title>Node7&#45;&gt;Node9</title>
<g id="a_edge8_Node000007_Node000009"><a xlink:title=" ">
<path fill="none" stroke="#63b8ff" d="M834.09,-167.99C829.35,-166.87 824.62,-165.86 820,-165 617.5,-127.42 560.44,-166.92 358,-129 350.31,-127.56 342.32,-125.67 334.46,-123.58"/>
<polygon fill="#63b8ff" stroke="#63b8ff" points="833.26,-171.39 843.81,-170.43 834.96,-164.6 833.26,-171.39"/>
</a>
</g>
</g>
<!-- Node7&#45;&gt;Node10 -->
<g id="edge9_Node000007_Node000010" class="edge">
<title>Node7&#45;&gt;Node10</title>
<g id="a_edge9_Node000007_Node000010"><a xlink:title=" ">
<path fill="none" stroke="#63b8ff" d="M988.93,-181.6C1134.06,-167.13 1418.62,-138.15 1464,-129 1471.46,-127.5 1479.21,-125.63 1486.85,-123.59"/>
<polygon fill="#63b8ff" stroke="#63b8ff" points="988.33,-178.15 978.72,-182.62 989.02,-185.11 988.33,-178.15"/>
</a>
</g>
</g>
<!-- Node11 -->
<g id="Node000011" class="node">
<title>Node11</title>
<g id="a_Node000011"><a xlink:href="goto__symex__state_8cpp.html" target="_top" xlink:title="Symbolic Execution.">
<polygon fill="white" stroke="#666666" points="516.5,-123.5 367.5,-123.5 367.5,-82.5 516.5,-82.5 516.5,-123.5"/>
<text text-anchor="start" x="375.5" y="-111.5" font-family="Helvetica,sans-Serif" font-size="10.00">/home/runner/work/cbmc</text>
<text text-anchor="start" x="375.5" y="-100.5" font-family="Helvetica,sans-Serif" font-size="10.00">/cbmc/src/goto&#45;symex/goto</text>
<text text-anchor="middle" x="442" y="-89.5" font-family="Helvetica,sans-Serif" font-size="10.00">_symex_state.cpp</text>
</a>
</g>
</g>
<!-- Node7&#45;&gt;Node11 -->
<g id="edge10_Node000007_Node000011" class="edge">
<title>Node7&#45;&gt;Node11</title>
<g id="a_edge10_Node000007_Node000011"><a xlink:title=" ">
<path fill="none" stroke="#63b8ff" d="M832.52,-167.85C828.3,-166.82 824.11,-165.86 820,-165 690.69,-138.07 654.26,-156.15 525,-129 517.64,-127.45 509.98,-125.56 502.43,-123.51"/>
<polygon fill="#63b8ff" stroke="#63b8ff" points="831.81,-171.28 842.37,-170.38 833.56,-164.5 831.81,-171.28"/>
</a>
</g>
</g>
<!-- Node12 -->
<g id="Node000012" class="node">
<title>Node12</title>
<g id="a_Node000012"><a xlink:href="path__storage_8h.html" target="_top" xlink:title="Storage of symbolic execution paths to resume.">
<polygon fill="#fff0f0" stroke="red" points="683.5,-123.5 534.5,-123.5 534.5,-82.5 683.5,-82.5 683.5,-123.5"/>
<text text-anchor="start" x="542.5" y="-111.5" font-family="Helvetica,sans-Serif" font-size="10.00">/home/runner/work/cbmc</text>
<text text-anchor="start" x="542.5" y="-100.5" font-family="Helvetica,sans-Serif" font-size="10.00">/cbmc/src/goto&#45;symex/path</text>
<text text-anchor="middle" x="609" y="-89.5" font-family="Helvetica,sans-Serif" font-size="10.00">_storage.h</text>
</a>
</g>
</g>
<!-- Node7&#45;&gt;Node12 -->
<g id="edge11_Node000007_Node000012" class="edge">
<title>Node7&#45;&gt;Node12</title>
<g id="a_edge11_Node000007_Node000012"><a xlink:title=" ">
<path fill="none" stroke="#63b8ff" d="M828.85,-167.58C825.86,-166.71 822.9,-165.84 820,-165 763.66,-148.63 749.34,-145.37 693,-129 687.01,-127.26 680.78,-125.44 674.55,-123.6"/>
<polygon fill="#63b8ff" stroke="#63b8ff" points="827.87,-170.94 838.45,-170.4 829.84,-164.22 827.87,-170.94"/>
</a>
</g>
</g>
<!-- Node49 -->
<g id="Node000049" class="node">
<title>Node49</title>
<g id="a_Node000049"><a xlink:href="renaming__level_8cpp.html" target="_top" xlink:title="Renaming levels.">
<polygon fill="white" stroke="#666666" points="876,-123.5 702,-123.5 702,-82.5 876,-82.5 876,-123.5"/>
<text text-anchor="start" x="710" y="-111.5" font-family="Helvetica,sans-Serif" font-size="10.00">/home/runner/work/cbmc</text>
<text text-anchor="start" x="710" y="-100.5" font-family="Helvetica,sans-Serif" font-size="10.00">/cbmc/src/goto&#45;symex/renaming</text>
<text text-anchor="middle" x="789" y="-89.5" font-family="Helvetica,sans-Serif" font-size="10.00">_level.cpp</text>
</a>
</g>
</g>
<!-- Node7&#45;&gt;Node49 -->
<g id="edge12_Node000007_Node000049" class="edge">
<title>Node7&#45;&gt;Node49</title>
<g id="a_edge12_Node000007_Node000049"><a xlink:title=" ">
<path fill="none" stroke="#63b8ff" d="M869.68,-164.33C852.29,-151.33 831.51,-135.79 815.39,-123.74"/>
<polygon fill="#63b8ff" stroke="#63b8ff" points="867.8,-167.3 877.9,-170.49 871.99,-161.69 867.8,-167.3"/>
</a>
</g>
</g>
<!-- Node50 -->
<g id="Node000050" class="node">
<title>Node50</title>
<g id="a_Node000050"><a xlink:href="shadow__memory_8cpp.html" target="_top" xlink:title="Symex Shadow Memory Instrumentation.">
<polygon fill="white" stroke="#666666" points="1041.5,-41 876.5,-41 876.5,0 1041.5,0 1041.5,-41"/>
<text text-anchor="start" x="884.5" y="-29" font-family="Helvetica,sans-Serif" font-size="10.00">/home/runner/work/cbmc</text>
<text text-anchor="start" x="884.5" y="-18" font-family="Helvetica,sans-Serif" font-size="10.00">/cbmc/src/goto&#45;symex/shadow</text>
<text text-anchor="middle" x="959" y="-7" font-family="Helvetica,sans-Serif" font-size="10.00">_memory.cpp</text>
</a>
</g>
</g>
<!-- Node7&#45;&gt;Node50 -->
<g id="edge13_Node000007_Node000050" class="edge">
<title>Node7&#45;&gt;Node50</title>
<g id="a_edge13_Node000007_Node000050"><a xlink:title=" ">
<path fill="none" stroke="#63b8ff" d="M905.69,-160.18C907.79,-136.87 912.49,-104.01 923,-77 927.96,-64.26 936.08,-51.37 943.36,-41.23"/>
<polygon fill="#63b8ff" stroke="#63b8ff" points="902.2,-159.92 904.9,-170.16 909.18,-160.47 902.2,-159.92"/>
</a>
</g>
</g>
<!-- Node51 -->
<g id="Node000051" class="node">
<title>Node51</title>
<g id="a_Node000051"><a xlink:href="shadow__memory__util_8h.html" target="_top" xlink:title="Symex Shadow Memory Instrumentation Utilities.">
<polygon fill="#fff0f0" stroke="red" points="1097.5,-123.5 932.5,-123.5 932.5,-82.5 1097.5,-82.5 1097.5,-123.5"/>
<text text-anchor="start" x="940.5" y="-111.5" font-family="Helvetica,sans-Serif" font-size="10.00">/home/runner/work/cbmc</text>
<text text-anchor="start" x="940.5" y="-100.5" font-family="Helvetica,sans-Serif" font-size="10.00">/cbmc/src/goto&#45;symex/shadow</text>
<text text-anchor="middle" x="1015" y="-89.5" font-family="Helvetica,sans-Serif" font-size="10.00">_memory_util.h</text>
</a>
</g>
</g>
<!-- Node7&#45;&gt;Node51 -->
<g id="edge14_Node000007_Node000051" class="edge">
<title>Node7&#45;&gt;Node51</title>
<g id="a_edge14_Node000007_Node000051"><a xlink:title=" ">
<path fill="none" stroke="#63b8ff" d="M937.13,-164.33C953.91,-151.33 973.97,-135.79 989.53,-123.74"/>
<polygon fill="#63b8ff" stroke="#63b8ff" points="934.95,-161.59 929.19,-170.49 939.24,-167.13 934.95,-161.59"/>
</a>
</g>
</g>
<!-- Node53 -->
<g id="Node000053" class="node">
<title>Node53</title>
<g id="a_Node000053"><a xlink:href="symex__assign_8cpp.html" target="_top" xlink:title="Symbolic Execution.">
<polygon fill="white" stroke="#666666" points="1276.5,-123.5 1115.5,-123.5 1115.5,-82.5 1276.5,-82.5 1276.5,-123.5"/>
<text text-anchor="start" x="1123.5" y="-111.5" font-family="Helvetica,sans-Serif" font-size="10.00">/home/runner/work/cbmc</text>
<text text-anchor="start" x="1123.5" y="-100.5" font-family="Helvetica,sans-Serif" font-size="10.00">/cbmc/src/goto&#45;symex/symex</text>
<text text-anchor="middle" x="1196" y="-89.5" font-family="Helvetica,sans-Serif" font-size="10.00">_assign.cpp</text>
</a>
</g>
</g>
<!-- Node7&#45;&gt;Node53 -->
<g id="edge16_Node000007_Node000053" class="edge">
<title>Node7&#45;&gt;Node53</title>
<g id="a_edge16_Node000007_Node000053"><a xlink:title=" ">
<path fill="none" stroke="#63b8ff" d="M979.97,-167.63C1026.4,-153.95 1085.22,-136.63 1129.75,-123.51"/>
<polygon fill="#63b8ff" stroke="#63b8ff" points="978.86,-164.3 970.26,-170.49 980.84,-171.02 978.86,-164.3"/>
</a>
</g>
</g>
<!-- Node54 -->
<g id="Node000054" class="node">
<title>Node54</title>
<g id="a_Node000054"><a xlink:href="symex__complexity__limit__exceeded__action_8h.html" target="_top" xlink:title=" ">
<polygon fill="#fff0f0" stroke="red" points="1455.5,-129 1294.5,-129 1294.5,-77 1455.5,-77 1455.5,-129"/>
<text text-anchor="start" x="1302.5" y="-117" font-family="Helvetica,sans-Serif" font-size="10.00">/home/runner/work/cbmc</text>
<text text-anchor="start" x="1302.5" y="-106" font-family="Helvetica,sans-Serif" font-size="10.00">/cbmc/src/goto&#45;symex/symex</text>
<text text-anchor="start" x="1302.5" y="-95" font-family="Helvetica,sans-Serif" font-size="10.00">_complexity_limit_exceeded</text>
<text text-anchor="middle" x="1375" y="-84" font-family="Helvetica,sans-Serif" font-size="10.00">_action.h</text>
</a>
</g>
</g>
<!-- Node7&#45;&gt;Node54 -->
<g id="edge17_Node000007_Node000054" class="edge">
<title>Node7&#45;&gt;Node54</title>
<g id="a_edge17_Node000007_Node000054"><a xlink:title=" ">
<path fill="none" stroke="#63b8ff" d="M988.77,-179.21C1066.32,-168.67 1184,-151.04 1285,-129 1288.01,-128.34 1291.07,-127.65 1294.15,-126.92"/>
<polygon fill="#63b8ff" stroke="#63b8ff" points="988.01,-175.78 978.57,-180.58 988.95,-182.71 988.01,-175.78"/>
</a>
</g>
</g>
<!-- Node51&#45;&gt;Node50 -->
<g id="edge15_Node000051_Node000050" class="edge">
<title>Node51&#45;&gt;Node50</title>
<g id="a_edge15_Node000051_Node000050"><a xlink:title=" ">
<path fill="none" stroke="#63b8ff" d="M995.38,-73.8C987.89,-63.02 979.51,-50.98 972.68,-41.17"/>
<polygon fill="#63b8ff" stroke="#63b8ff" points="992.57,-75.89 1001.16,-82.1 998.32,-71.89 992.57,-75.89"/>
</a>
</g>
</g>
<!-- Node76 -->
<g id="Node000076" class="node">
<title>Node76</title>
<g id="a_Node000076"><a xlink:href="value__set__analysis_8h.html" target="_top" xlink:title="Value Set Propagation.">
<polygon fill="white" stroke="#666666" points="539.5,-371 394.5,-371 394.5,-330 539.5,-330 539.5,-371"/>
<text text-anchor="start" x="402.5" y="-359" font-family="Helvetica,sans-Serif" font-size="10.00">/home/runner/work/cbmc</text>
<text text-anchor="start" x="402.5" y="-348" font-family="Helvetica,sans-Serif" font-size="10.00">/cbmc/src/pointer&#45;analysis</text>
<text text-anchor="middle" x="467" y="-337" font-family="Helvetica,sans-Serif" font-size="10.00">/value_set_analysis.h</text>
</a>
</g>
</g>
<!-- Node75&#45;&gt;Node76 -->
<g id="edge23_Node000075_Node000076" class="edge">
<title>Node75&#45;&gt;Node76</title>
<g id="a_edge23_Node000075_Node000076"><a xlink:title=" ">
<path fill="none" stroke="#63b8ff" d="M558.43,-401.92C540.34,-391.95 519.74,-380.58 502.67,-371.17"/>
<polygon fill="#63b8ff" stroke="#63b8ff" points="557.18,-405.23 567.62,-406.99 560.56,-399.1 557.18,-405.23"/>
</a>
</g>
</g>
<!-- Node77 -->
<g id="Node000077" class="node">
<title>Node77</title>
<g id="a_Node000077"><a xlink:href="goto__instrument__parse__options_8cpp.html" target="_top" xlink:title="Main Module.">
<polygon fill="white" stroke="#666666" points="463,-211.5 269,-211.5 269,-170.5 463,-170.5 463,-211.5"/>
<text text-anchor="start" x="277" y="-199.5" font-family="Helvetica,sans-Serif" font-size="10.00">/home/runner/work/cbmc</text>
<text text-anchor="start" x="277" y="-188.5" font-family="Helvetica,sans-Serif" font-size="10.00">/cbmc/src/goto&#45;instrument</text>
<text text-anchor="middle" x="366" y="-177.5" font-family="Helvetica,sans-Serif" font-size="10.00">/goto_instrument_parse_options.cpp</text>
</a>
</g>
</g>
<!-- Node76&#45;&gt;Node77 -->
<g id="edge24_Node000076_Node000077" class="edge">
<title>Node76&#45;&gt;Node77</title>
<g id="a_edge24_Node000076_Node000077"><a xlink:title=" ">
<path fill="none" stroke="#63b8ff" d="M416.28,-324.27C404.38,-316.13 392.88,-306.03 385,-294 368.61,-268.99 365.49,-233.53 365.32,-211.68"/>
<polygon fill="#63b8ff" stroke="#63b8ff" points="414.66,-327.39 424.97,-329.85 418.44,-321.5 414.66,-327.39"/>
</a>
</g>
</g>
<!-- Node78 -->
<g id="Node000078" class="node">
<title>Node78</title>
<g id="a_Node000078"><a xlink:href="show__value__sets_8cpp.html" target="_top" xlink:title="Show Value Sets.">
<polygon fill="white" stroke="#666666" points="626.5,-211.5 481.5,-211.5 481.5,-170.5 626.5,-170.5 626.5,-211.5"/>
<text text-anchor="start" x="489.5" y="-199.5" font-family="Helvetica,sans-Serif" font-size="10.00">/home/runner/work/cbmc</text>
<text text-anchor="start" x="489.5" y="-188.5" font-family="Helvetica,sans-Serif" font-size="10.00">/cbmc/src/pointer&#45;analysis</text>
<text text-anchor="middle" x="554" y="-177.5" font-family="Helvetica,sans-Serif" font-size="10.00">/show_value_sets.cpp</text>
</a>
</g>
</g>
<!-- Node76&#45;&gt;Node78 -->
<g id="edge25_Node000076_Node000078" class="edge">
<title>Node76&#45;&gt;Node78</title>
<g id="a_edge25_Node000076_Node000078"><a xlink:title=" ">
<path fill="none" stroke="#63b8ff" d="M518.83,-324.32C530.32,-316.26 541.12,-306.18 548,-294 562.4,-268.52 560.73,-233.51 557.72,-211.84"/>
<polygon fill="#63b8ff" stroke="#63b8ff" points="516.84,-321.44 510.38,-329.84 520.67,-327.3 516.84,-321.44"/>
</a>
</g>
</g>
<!-- Node79 -->
<g id="Node000079" class="node">
<title>Node79</title>
<g id="a_Node000079"><a xlink:href="show__value__sets_8h.html" target="_top" xlink:title="Show Value Sets.">
<polygon fill="white" stroke="#666666" points="539.5,-294 394.5,-294 394.5,-253 539.5,-253 539.5,-294"/>
<text text-anchor="start" x="402.5" y="-282" font-family="Helvetica,sans-Serif" font-size="10.00">/home/runner/work/cbmc</text>
<text text-anchor="start" x="402.5" y="-271" font-family="Helvetica,sans-Serif" font-size="10.00">/cbmc/src/pointer&#45;analysis</text>
<text text-anchor="middle" x="467" y="-260" font-family="Helvetica,sans-Serif" font-size="10.00">/show_value_sets.h</text>
</a>
</g>
</g>
<!-- Node76&#45;&gt;Node79 -->
<g id="edge26_Node000076_Node000079" class="edge">
<title>Node76&#45;&gt;Node79</title>
<g id="a_edge26_Node000076_Node000079"><a xlink:title=" ">
<path fill="none" stroke="#63b8ff" d="M467,-319.69C467,-311.08 467,-301.9 467,-294.07"/>
<polygon fill="#63b8ff" stroke="#63b8ff" points="463.5,-319.79 467,-329.79 470.5,-319.79 463.5,-319.79"/>
</a>
</g>
</g>
<!-- Node80 -->
<g id="Node000080" class="node">
<title>Node80</title>
<g id="a_Node000080"><a xlink:href="value__set__analysis_8cpp.html" target="_top" xlink:title="Value Set Propagation.">
<polygon fill="white" stroke="#666666" points="337.5,-294 192.5,-294 192.5,-253 337.5,-253 337.5,-294"/>
<text text-anchor="start" x="200.5" y="-282" font-family="Helvetica,sans-Serif" font-size="10.00">/home/runner/work/cbmc</text>
<text text-anchor="start" x="200.5" y="-271" font-family="Helvetica,sans-Serif" font-size="10.00">/cbmc/src/pointer&#45;analysis</text>
<text text-anchor="middle" x="265" y="-260" font-family="Helvetica,sans-Serif" font-size="10.00">/value_set_analysis.cpp</text>
</a>
</g>
</g>
<!-- Node76&#45;&gt;Node80 -->
<g id="edge29_Node000076_Node000080" class="edge">
<title>Node76&#45;&gt;Node80</title>
<g id="a_edge29_Node000076_Node000080"><a xlink:title=" ">
<path fill="none" stroke="#63b8ff" d="M404.79,-326.4C376.88,-316.04 344.31,-303.95 317.63,-294.04"/>
<polygon fill="#63b8ff" stroke="#63b8ff" points="403.86,-329.79 414.45,-329.99 406.3,-323.23 403.86,-329.79"/>
</a>
</g>
</g>
<!-- Node79&#45;&gt;Node77 -->
<g id="edge27_Node000079_Node000077" class="edge">
<title>Node79&#45;&gt;Node77</title>
<g id="a_edge27_Node000079_Node000077"><a xlink:title=" ">
<path fill="none" stroke="#63b8ff" d="M434.26,-246.41C420.14,-235.15 403.9,-222.21 390.8,-211.77"/>
<polygon fill="#63b8ff" stroke="#63b8ff" points="432.29,-249.31 442.29,-252.81 436.65,-243.84 432.29,-249.31"/>
</a>
</g>
</g>
<!-- Node79&#45;&gt;Node78 -->
<g id="edge28_Node000079_Node000078" class="edge">
<title>Node79&#45;&gt;Node78</title>
<g id="a_edge28_Node000079_Node000078"><a xlink:title=" ">
<path fill="none" stroke="#63b8ff" d="M496.1,-245.57C508.09,-234.48 521.72,-221.87 532.74,-211.67"/>
<polygon fill="#63b8ff" stroke="#63b8ff" points="493.47,-243.24 488.51,-252.6 498.22,-248.38 493.47,-243.24"/>
</a>
</g>
</g>
<!-- Node82 -->
<g id="Node000082" class="node">
<title>Node82</title>
<g id="a_Node000082"><a xlink:href="value__set__domain__fi_8h.html" target="_top" xlink:title="Value Set (Flow Insensitive)">
<polygon fill="white" stroke="#666666" points="1643.5,-448 1498.5,-448 1498.5,-407 1643.5,-407 1643.5,-448"/>
<text text-anchor="start" x="1506.5" y="-436" font-family="Helvetica,sans-Serif" font-size="10.00">/home/runner/work/cbmc</text>
<text text-anchor="start" x="1506.5" y="-425" font-family="Helvetica,sans-Serif" font-size="10.00">/cbmc/src/pointer&#45;analysis</text>
<text text-anchor="middle" x="1571" y="-414" font-family="Helvetica,sans-Serif" font-size="10.00">/value_set_domain_fi.h</text>
</a>
</g>
</g>
<!-- Node81&#45;&gt;Node82 -->
<g id="edge31_Node000081_Node000082" class="edge">
<title>Node81&#45;&gt;Node82</title>
<g id="a_edge31_Node000081_Node000082"><a xlink:title=" ">
<path fill="none" stroke="#63b8ff" d="M1488.09,-478.64C1504.47,-468.74 1523.06,-457.5 1538.47,-448.17"/>
<polygon fill="#63b8ff" stroke="#63b8ff" points="1486,-475.82 1479.26,-483.99 1489.62,-481.81 1486,-475.82"/>
</a>
</g>
</g>
<!-- Node88 -->
<g id="Node000088" class="node">
<title>Node88</title>
<g id="a_Node000088"><a xlink:href="value__set__fi_8cpp.html" target="_top" xlink:title="Value Set (Flow Insensitive, Sharing)">
<polygon fill="white" stroke="#666666" points="1480.5,-448 1335.5,-448 1335.5,-407 1480.5,-407 1480.5,-448"/>
<text text-anchor="start" x="1343.5" y="-436" font-family="Helvetica,sans-Serif" font-size="10.00">/home/runner/work/cbmc</text>
<text text-anchor="start" x="1343.5" y="-425" font-family="Helvetica,sans-Serif" font-size="10.00">/cbmc/src/pointer&#45;analysis</text>
<text text-anchor="middle" x="1408" y="-414" font-family="Helvetica,sans-Serif" font-size="10.00">/value_set_fi.cpp</text>
</a>
</g>
</g>
<!-- Node81&#45;&gt;Node88 -->
<g id="edge37_Node000081_Node000088" class="edge">
<title>Node81&#45;&gt;Node88</title>
<g id="a_edge37_Node000081_Node000088"><a xlink:title=" ">
<path fill="none" stroke="#63b8ff" d="M1432.09,-474.83C1427.44,-465.89 1422.42,-456.24 1418.18,-448.07"/>
<polygon fill="#63b8ff" stroke="#63b8ff" points="1429.03,-476.54 1436.75,-483.79 1435.24,-473.31 1429.03,-476.54"/>
</a>
</g>
</g>
<!-- Node83 -->
<g id="Node000083" class="node">
<title>Node83</title>
<g id="a_Node000083"><a xlink:href="value__set__analysis__fi_8h.html" target="_top" xlink:title="Value Set Propagation (flow insensitive)">
<polygon fill="white" stroke="#666666" points="1561.5,-371 1416.5,-371 1416.5,-330 1561.5,-330 1561.5,-371"/>
<text text-anchor="start" x="1424.5" y="-359" font-family="Helvetica,sans-Serif" font-size="10.00">/home/runner/work/cbmc</text>
<text text-anchor="start" x="1424.5" y="-348" font-family="Helvetica,sans-Serif" font-size="10.00">/cbmc/src/pointer&#45;analysis</text>
<text text-anchor="middle" x="1489" y="-337" font-family="Helvetica,sans-Serif" font-size="10.00">/value_set_analysis_fi.h</text>
</a>
</g>
</g>
<!-- Node82&#45;&gt;Node83 -->
<g id="edge32_Node000082_Node000083" class="edge">
<title>Node82&#45;&gt;Node83</title>
<g id="a_edge32_Node000082_Node000083"><a xlink:title=" ">
<path fill="none" stroke="#63b8ff" d="M1541.8,-399.79C1531.44,-390.32 1519.99,-379.84 1510.4,-371.07"/>
<polygon fill="#63b8ff" stroke="#63b8ff" points="1539.71,-402.63 1549.46,-406.79 1544.44,-397.46 1539.71,-402.63"/>
</a>
</g>
</g>
<!-- Node87 -->
<g id="Node000087" class="node">
<title>Node87</title>
<g id="a_Node000087"><a xlink:href="value__set__domain__fi_8cpp.html" target="_top" xlink:title="Value Set Domain (Flow Insensitive)">
<polygon fill="white" stroke="#666666" points="1724.5,-371 1579.5,-371 1579.5,-330 1724.5,-330 1724.5,-371"/>
<text text-anchor="start" x="1587.5" y="-359" font-family="Helvetica,sans-Serif" font-size="10.00">/home/runner/work/cbmc</text>
<text text-anchor="start" x="1587.5" y="-348" font-family="Helvetica,sans-Serif" font-size="10.00">/cbmc/src/pointer&#45;analysis</text>
<text text-anchor="middle" x="1652" y="-337" font-family="Helvetica,sans-Serif" font-size="10.00">/value_set_domain_fi.cpp</text>
</a>
</g>
</g>
<!-- Node82&#45;&gt;Node87 -->
<g id="edge36_Node000082_Node000087" class="edge">
<title>Node82&#45;&gt;Node87</title>
<g id="a_edge36_Node000082_Node000087"><a xlink:title=" ">
<path fill="none" stroke="#63b8ff" d="M1599.85,-399.79C1610.08,-390.32 1621.39,-379.84 1630.86,-371.07"/>
<polygon fill="#63b8ff" stroke="#63b8ff" points="1597.24,-397.43 1592.28,-406.79 1602,-402.57 1597.24,-397.43"/>
</a>
</g>
</g>
<!-- Node84 -->
<g id="Node000084" class="node">
<title>Node84</title>
<g id="a_Node000084"><a xlink:href="reaching__definitions_8cpp.html" target="_top" xlink:title="Range&#45;based reaching definitions analysis (following Field&#45; Sensitive Program Dependence Analysis,...">
<polygon fill="white" stroke="#666666" points="1734.5,-294 1579.5,-294 1579.5,-253 1734.5,-253 1734.5,-294"/>
<text text-anchor="start" x="1587.5" y="-282" font-family="Helvetica,sans-Serif" font-size="10.00">/home/runner/work/cbmc</text>
<text text-anchor="start" x="1587.5" y="-271" font-family="Helvetica,sans-Serif" font-size="10.00">/cbmc/src/analyses/reaching</text>
<text text-anchor="middle" x="1657" y="-260" font-family="Helvetica,sans-Serif" font-size="10.00">_definitions.cpp</text>
</a>
</g>
</g>
<!-- Node83&#45;&gt;Node84 -->
<g id="edge33_Node000083_Node000084" class="edge">
<title>Node83&#45;&gt;Node84</title>
<g id="a_edge33_Node000083_Node000084"><a xlink:title=" ">
<path fill="none" stroke="#63b8ff" d="M1541.96,-325.86C1564.89,-315.62 1591.43,-303.77 1613.23,-294.04"/>
<polygon fill="#63b8ff" stroke="#63b8ff" points="1540.41,-322.72 1532.7,-329.99 1543.26,-329.11 1540.41,-322.72"/>
</a>
</g>
</g>
<!-- Node85 -->
<g id="Node000085" class="node">
<title>Node85</title>
<g id="a_Node000085"><a xlink:href="value__set__fi__fp__removal_8cpp.html" target="_top" xlink:title=" ">
<polygon fill="white" stroke="#666666" points="1398.5,-294 1239.5,-294 1239.5,-253 1398.5,-253 1398.5,-294"/>
<text text-anchor="start" x="1247.5" y="-282" font-family="Helvetica,sans-Serif" font-size="10.00">/home/runner/work/cbmc</text>
<text text-anchor="start" x="1247.5" y="-271" font-family="Helvetica,sans-Serif" font-size="10.00">/cbmc/src/goto&#45;instrument</text>
<text text-anchor="middle" x="1319" y="-260" font-family="Helvetica,sans-Serif" font-size="10.00">/value_set_fi_fp_removal.cpp</text>
</a>
</g>
</g>
<!-- Node83&#45;&gt;Node85 -->
<g id="edge34_Node000083_Node000085" class="edge">
<title>Node83&#45;&gt;Node85</title>
<g id="a_edge34_Node000083_Node000085"><a xlink:title=" ">
<path fill="none" stroke="#63b8ff" d="M1435.41,-325.86C1412.2,-315.62 1385.35,-303.77 1363.3,-294.04"/>
<polygon fill="#63b8ff" stroke="#63b8ff" points="1434.22,-329.16 1444.78,-329.99 1437.04,-322.75 1434.22,-329.16"/>
</a>
</g>
</g>
<!-- Node86 -->
<g id="Node000086" class="node">
<title>Node86</title>
<g id="a_Node000086"><a xlink:href="value__set__analysis__fi_8cpp.html" target="_top" xlink:title="Value Set Propagation (Flow Insensitive)">
<polygon fill="white" stroke="#666666" points="1561.5,-294 1416.5,-294 1416.5,-253 1561.5,-253 1561.5,-294"/>
<text text-anchor="start" x="1424.5" y="-282" font-family="Helvetica,sans-Serif" font-size="10.00">/home/runner/work/cbmc</text>
<text text-anchor="start" x="1424.5" y="-271" font-family="Helvetica,sans-Serif" font-size="10.00">/cbmc/src/pointer&#45;analysis</text>
<text text-anchor="middle" x="1489" y="-260" font-family="Helvetica,sans-Serif" font-size="10.00">/value_set_analysis_fi.cpp</text>
</a>
</g>
</g>
<!-- Node83&#45;&gt;Node86 -->
<g id="edge35_Node000083_Node000086" class="edge">
<title>Node83&#45;&gt;Node86</title>
<g id="a_edge35_Node000083_Node000086"><a xlink:title=" ">
<path fill="none" stroke="#63b8ff" d="M1489,-319.69C1489,-311.08 1489,-301.9 1489,-294.07"/>
<polygon fill="#63b8ff" stroke="#63b8ff" points="1485.5,-319.79 1489,-329.79 1492.5,-319.79 1485.5,-319.79"/>
</a>
</g>
</g>
<!-- Node90 -->
<g id="Node000090" class="node">
<title>Node90</title>
<g id="a_Node000090"><a xlink:href="ref__expr__set_8cpp.html" target="_top" xlink:title="Value Set.">
<polygon fill="white" stroke="#666666" points="1800,-448 1662,-448 1662,-407 1800,-407 1800,-448"/>
<text text-anchor="start" x="1670" y="-436" font-family="Helvetica,sans-Serif" font-size="10.00">/home/runner/work/cbmc</text>
<text text-anchor="start" x="1670" y="-425" font-family="Helvetica,sans-Serif" font-size="10.00">/cbmc/src/util/ref_expr</text>
<text text-anchor="middle" x="1731" y="-414" font-family="Helvetica,sans-Serif" font-size="10.00">_set.cpp</text>
</a>
</g>
</g>
<!-- Node89&#45;&gt;Node90 -->
<g id="edge39_Node000089_Node000090" class="edge">
<title>Node89&#45;&gt;Node90</title>
<g id="a_edge39_Node000089_Node000090"><a xlink:title=" ">
<path fill="none" stroke="#63b8ff" d="M1703.96,-480.51C1709.33,-470.18 1715.6,-458.11 1720.75,-448.2"/>
<polygon fill="#63b8ff" stroke="#63b8ff" points="1700.84,-478.91 1699.34,-489.39 1707.05,-482.14 1700.84,-478.91"/>
</a>
</g>
</g>
</g>
</svg>
