<?xml version="1.0" encoding="UTF-8" standalone="no"?>
<!DOCTYPE svg PUBLIC "-//W3C//DTD SVG 1.1//EN"
 "http://www.w3.org/Graphics/SVG/1.1/DTD/svg11.dtd">
<!-- Generated by graphviz version 2.43.0 (0)
 -->
<!-- Title: /home/runner/work/cbmc/cbmc/jbmc/unit/java&#45;testing&#45;utils/require_type.cpp Pages: 1 -->
<svg width="1251pt" height="896pt"
 viewBox="0.00 0.00 1251.00 896.00" xmlns="http://www.w3.org/2000/svg" xmlns:xlink="http://www.w3.org/1999/xlink">
<g id="graph0" class="graph" transform="scale(1 1) rotate(0) translate(4 892)">
<title>/home/runner/work/cbmc/cbmc/jbmc/unit/java&#45;testing&#45;utils/require_type.cpp</title>
<!-- Node1 -->
<g id="Node000001" class="node">
<title>Node1</title>
<g id="a_Node000001"><a xlink:title=" ">
<polygon fill="#999999" stroke="#666666" points="840.5,-888 684.5,-888 684.5,-847 840.5,-847 840.5,-888"/>
<text text-anchor="start" x="692.5" y="-876" font-family="Helvetica,sans-Serif" font-size="10.00">/home/runner/work/cbmc</text>
<text text-anchor="start" x="692.5" y="-865" font-family="Helvetica,sans-Serif" font-size="10.00">/cbmc/jbmc/unit/java&#45;testing</text>
<text text-anchor="middle" x="762.5" y="-854" font-family="Helvetica,sans-Serif" font-size="10.00">&#45;utils/require_type.cpp</text>
</a>
</g>
</g>
<!-- Node2 -->
<g id="Node000002" class="node">
<title>Node2</title>
<g id="a_Node000002"><a xlink:href="require__type_8h.html" target="_top" xlink:title="Helper functions for requiring specific types If the type is of the wrong type, throw a CATCH excepti...">
<polygon fill="white" stroke="#666666" points="616,-811 529,-811 529,-792 616,-792 616,-811"/>
<text text-anchor="middle" x="572.5" y="-799" font-family="Helvetica,sans-Serif" font-size="10.00">require_type.h</text>
</a>
</g>
</g>
<!-- Node1&#45;&gt;Node2 -->
<g id="edge1_Node000001_Node000002" class="edge">
<title>Node1&#45;&gt;Node2</title>
<g id="a_edge1_Node000001_Node000002"><a xlink:title=" ">
<path fill="none" stroke="#63b8ff" d="M704.46,-846.95C672.82,-836.29 634.69,-823.45 607.58,-814.31"/>
<polygon fill="#63b8ff" stroke="#63b8ff" points="608.35,-810.88 597.76,-811.01 606.12,-817.52 608.35,-810.88"/>
</a>
</g>
</g>
<!-- Node48 -->
<g id="Node000048" class="node">
<title>Node48</title>
<g id="a_Node000048"><a xlink:href="use__catch_8h.html" target="_top" xlink:title=" ">
<polygon fill="white" stroke="#666666" points="1128.5,-525 992.5,-525 992.5,-506 1128.5,-506 1128.5,-525"/>
<text text-anchor="middle" x="1060.5" y="-513" font-family="Helvetica,sans-Serif" font-size="10.00">testing&#45;utils/use_catch.h</text>
</a>
</g>
</g>
<!-- Node1&#45;&gt;Node48 -->
<g id="edge58_Node000001_Node000048" class="edge">
<title>Node1&#45;&gt;Node48</title>
<g id="a_edge58_Node000001_Node000048"><a xlink:title=" ">
<path fill="none" stroke="#63b8ff" d="M840.8,-862.36C919.59,-853.47 1029.5,-826.01 1029.5,-742 1029.5,-742 1029.5,-742 1029.5,-624.5 1029.5,-591.79 1042.8,-555.6 1051.98,-534.52"/>
<polygon fill="#63b8ff" stroke="#63b8ff" points="1055.25,-535.77 1056.19,-525.22 1048.87,-532.88 1055.25,-535.77"/>
</a>
</g>
</g>
<!-- Node3 -->
<g id="Node000003" class="node">
<title>Node3</title>
<g id="a_Node000003"><a xlink:href="std__types_8h.html" target="_top" xlink:title="Pre&#45;defined types.">
<polygon fill="white" stroke="#666666" points="618.5,-525 526.5,-525 526.5,-506 618.5,-506 618.5,-525"/>
<text text-anchor="middle" x="572.5" y="-513" font-family="Helvetica,sans-Serif" font-size="10.00">util/std_types.h</text>
</a>
</g>
</g>
<!-- Node2&#45;&gt;Node3 -->
<g id="edge2_Node000002_Node000003" class="edge">
<title>Node2&#45;&gt;Node3</title>
<g id="a_edge2_Node000002_Node000003"><a xlink:title=" ">
<path fill="none" stroke="#63b8ff" d="M572.5,-791.84C572.5,-772.21 572.5,-722.82 572.5,-681.5 572.5,-681.5 572.5,-681.5 572.5,-624.5 572.5,-593.19 572.5,-556.77 572.5,-535.23"/>
<polygon fill="#63b8ff" stroke="#63b8ff" points="576,-535.18 572.5,-525.18 569,-535.18 576,-535.18"/>
</a>
</g>
</g>
<!-- Node42 -->
<g id="Node000042" class="node">
<title>Node42</title>
<g id="a_Node000042"><a xlink:href="java__types_8h.html" target="_top" xlink:title=" ">
<polygon fill="white" stroke="#666666" points="395.5,-756 283.5,-756 283.5,-726 395.5,-726 395.5,-756"/>
<text text-anchor="start" x="291.5" y="-744" font-family="Helvetica,sans-Serif" font-size="10.00">java_bytecode/java</text>
<text text-anchor="middle" x="339.5" y="-733" font-family="Helvetica,sans-Serif" font-size="10.00">_types.h</text>
</a>
</g>
</g>
<!-- Node2&#45;&gt;Node42 -->
<g id="edge41_Node000002_Node000042" class="edge">
<title>Node2&#45;&gt;Node42</title>
<g id="a_edge41_Node000002_Node000042"><a xlink:title=" ">
<path fill="none" stroke="#63b8ff" d="M538.62,-791.99C503.84,-783.26 448.83,-769.45 405.43,-758.55"/>
<polygon fill="#63b8ff" stroke="#63b8ff" points="406.07,-755.1 395.52,-756.06 404.36,-761.89 406.07,-755.1"/>
</a>
</g>
</g>
<!-- Node4 -->
<g id="Node000004" class="node">
<title>Node4</title>
<g id="a_Node000004"><a xlink:href="expr_8h.html" target="_top" xlink:title=" ">
<polygon fill="white" stroke="#666666" points="473,-404 426,-404 426,-385 473,-385 473,-404"/>
<text text-anchor="middle" x="449.5" y="-392" font-family="Helvetica,sans-Serif" font-size="10.00">expr.h</text>
</a>
</g>
</g>
<!-- Node3&#45;&gt;Node4 -->
<g id="edge3_Node000003_Node000004" class="edge">
<title>Node3&#45;&gt;Node4</title>
<g id="a_edge3_Node000003_Node000004"><a xlink:title=" ">
<path fill="none" stroke="#63b8ff" d="M563.65,-505.94C543.19,-486.14 492.31,-436.91 465.93,-411.4"/>
<polygon fill="#63b8ff" stroke="#63b8ff" points="468.22,-408.74 458.6,-404.3 463.35,-413.77 468.22,-408.74"/>
</a>
</g>
</g>
<!-- Node12 -->
<g id="Node000012" class="node">
<title>Node12</title>
<g id="a_Node000012"><a xlink:href="src_2util_2invariant_8h.html" target="_top" xlink:title=" ">
<polygon fill="#fff0f0" stroke="red" points="274,-74 205,-74 205,-55 274,-55 274,-74"/>
<text text-anchor="middle" x="239.5" y="-62" font-family="Helvetica,sans-Serif" font-size="10.00">invariant.h</text>
</a>
</g>
</g>
<!-- Node3&#45;&gt;Node12 -->
<g id="edge34_Node000003_Node000012" class="edge">
<title>Node3&#45;&gt;Node12</title>
<g id="a_edge34_Node000003_Node000012"><a xlink:title=" ">
<path fill="none" stroke="#63b8ff" d="M618.8,-511.99C651.03,-507.78 692.7,-497.02 718.5,-470 742.1,-445.29 737.5,-429.67 737.5,-395.5 737.5,-395.5 737.5,-395.5 737.5,-228.5 737.5,-171.68 736.65,-141.71 689.5,-110 624.15,-66.05 384.79,-63.66 284.35,-64.68"/>
<polygon fill="#63b8ff" stroke="#63b8ff" points="284.18,-61.18 274.22,-64.8 284.26,-68.18 284.18,-61.18"/>
</a>
</g>
</g>
<!-- Node32 -->
<g id="Node000032" class="node">
<title>Node32</title>
<g id="a_Node000032"><a xlink:href="validate_8h.html" target="_top" xlink:title=" ">
<polygon fill="white" stroke="#666666" points="680,-294 615,-294 615,-275 680,-275 680,-294"/>
<text text-anchor="middle" x="647.5" y="-282" font-family="Helvetica,sans-Serif" font-size="10.00">validate.h</text>
</a>
</g>
</g>
<!-- Node3&#45;&gt;Node32 -->
<g id="edge39_Node000003_Node000032" class="edge">
<title>Node3&#45;&gt;Node32</title>
<g id="a_edge39_Node000003_Node000032"><a xlink:title=" ">
<path fill="none" stroke="#63b8ff" d="M575.76,-505.89C581.33,-491.66 593.43,-462.55 607.5,-440 634.94,-396.01 663.3,-397.92 680.5,-349 686.45,-332.08 675.19,-314.05 664.24,-301.54"/>
<polygon fill="#63b8ff" stroke="#63b8ff" points="666.7,-299.04 657.28,-294.18 661.61,-303.85 666.7,-299.04"/>
</a>
</g>
</g>
<!-- Node38 -->
<g id="Node000038" class="node">
<title>Node38</title>
<g id="a_Node000038"><a xlink:href="expr__cast_8h.html" target="_top" xlink:title="Templated functions to cast to specific exprt&#45;derived classes.">
<polygon fill="white" stroke="#666666" points="251,-464.5 178,-464.5 178,-445.5 251,-445.5 251,-464.5"/>
<text text-anchor="middle" x="214.5" y="-452.5" font-family="Helvetica,sans-Serif" font-size="10.00">expr_cast.h</text>
</a>
</g>
</g>
<!-- Node3&#45;&gt;Node38 -->
<g id="edge28_Node000003_Node000038" class="edge">
<title>Node3&#45;&gt;Node38</title>
<g id="a_edge28_Node000003_Node000038"><a xlink:title=" ">
<path fill="none" stroke="#63b8ff" d="M526.43,-506.97C457.99,-495.79 330.16,-474.9 261.3,-463.65"/>
<polygon fill="#63b8ff" stroke="#63b8ff" points="261.61,-460.15 251.18,-461.99 260.49,-467.06 261.61,-460.15"/>
</a>
</g>
</g>
<!-- Node40 -->
<g id="Node000040" class="node">
<title>Node40</title>
<g id="a_Node000040"><a xlink:href="mp__arith_8h.html" target="_top" xlink:title=" ">
<polygon fill="white" stroke="#666666" points="900,-464.5 831,-464.5 831,-445.5 900,-445.5 900,-464.5"/>
<text text-anchor="middle" x="865.5" y="-452.5" font-family="Helvetica,sans-Serif" font-size="10.00">mp_arith.h</text>
</a>
</g>
</g>
<!-- Node3&#45;&gt;Node40 -->
<g id="edge35_Node000003_Node000040" class="edge">
<title>Node3&#45;&gt;Node40</title>
<g id="a_edge35_Node000003_Node000040"><a xlink:title=" ">
<path fill="none" stroke="#63b8ff" d="M615.1,-505.99C669.94,-495.05 764.79,-476.11 820.68,-464.95"/>
<polygon fill="#63b8ff" stroke="#63b8ff" points="821.52,-468.35 830.64,-462.96 820.15,-461.49 821.52,-468.35"/>
</a>
</g>
</g>
<!-- Node23 -->
<g id="Node000023" class="node">
<title>Node23</title>
<g id="a_Node000023"><a xlink:title=" ">
<polygon fill="#e0e0e0" stroke="#999999" points="709,-464.5 616,-464.5 616,-445.5 709,-445.5 709,-464.5"/>
<text text-anchor="middle" x="662.5" y="-452.5" font-family="Helvetica,sans-Serif" font-size="10.00">unordered_map</text>
</a>
</g>
</g>
<!-- Node3&#45;&gt;Node23 -->
<g id="edge40_Node000003_Node000023" class="edge">
<title>Node3&#45;&gt;Node23</title>
<g id="a_edge40_Node000003_Node000023"><a xlink:title=" ">
<path fill="none" stroke="#63b8ff" d="M585.78,-505.87C600.14,-496.54 623.26,-481.51 640.37,-470.38"/>
<polygon fill="#63b8ff" stroke="#63b8ff" points="642.69,-473.05 649.17,-464.67 638.87,-467.18 642.69,-473.05"/>
</a>
</g>
</g>
<!-- Node5 -->
<g id="Node000005" class="node">
<title>Node5</title>
<g id="a_Node000005"><a xlink:href="as__const_8h.html" target="_top" xlink:title=" ">
<polygon fill="white" stroke="#666666" points="567.5,-349 499.5,-349 499.5,-330 567.5,-330 567.5,-349"/>
<text text-anchor="middle" x="533.5" y="-337" font-family="Helvetica,sans-Serif" font-size="10.00">as_const.h</text>
</a>
</g>
</g>
<!-- Node4&#45;&gt;Node5 -->
<g id="edge4_Node000004_Node000005" class="edge">
<title>Node4&#45;&gt;Node5</title>
<g id="a_edge4_Node000004_Node000005"><a xlink:title=" ">
<path fill="none" stroke="#63b8ff" d="M463,-384.98C475.9,-376.84 495.6,-364.41 510.9,-354.76"/>
<polygon fill="#63b8ff" stroke="#63b8ff" points="513.17,-357.47 519.76,-349.17 509.43,-351.55 513.17,-357.47"/>
</a>
</g>
</g>
<!-- Node6 -->
<g id="Node000006" class="node">
<title>Node6</title>
<g id="a_Node000006"><a xlink:href="type_8h.html" target="_top" xlink:title="Defines typet, type_with_subtypet and type_with_subtypest.">
<polygon fill="white" stroke="#666666" points="671,-349 624,-349 624,-330 671,-330 671,-349"/>
<text text-anchor="middle" x="647.5" y="-337" font-family="Helvetica,sans-Serif" font-size="10.00">type.h</text>
</a>
</g>
</g>
<!-- Node4&#45;&gt;Node6 -->
<g id="edge5_Node000004_Node000006" class="edge">
<title>Node4&#45;&gt;Node6</title>
<g id="a_edge5_Node000004_Node000006"><a xlink:title=" ">
<path fill="none" stroke="#63b8ff" d="M473.38,-387.11C508.49,-377.71 574.16,-360.13 614.05,-349.45"/>
<polygon fill="#63b8ff" stroke="#63b8ff" points="615.09,-352.8 623.84,-346.83 613.28,-346.04 615.09,-352.8"/>
</a>
</g>
</g>
<!-- Node34 -->
<g id="Node000034" class="node">
<title>Node34</title>
<g id="a_Node000034"><a xlink:href="validation__mode_8h.html" target="_top" xlink:title=" ">
<polygon fill="white" stroke="#666666" points="445,-239 338,-239 338,-220 445,-220 445,-239"/>
<text text-anchor="middle" x="391.5" y="-227" font-family="Helvetica,sans-Serif" font-size="10.00">validation_mode.h</text>
</a>
</g>
</g>
<!-- Node4&#45;&gt;Node34 -->
<g id="edge26_Node000004_Node000034" class="edge">
<title>Node4&#45;&gt;Node34</title>
<g id="a_edge26_Node000004_Node000034"><a xlink:title=" ">
<path fill="none" stroke="#63b8ff" d="M473.22,-391.28C516.33,-386.19 600.91,-370.84 576.5,-330 567.53,-315 468.24,-266.66 418.94,-243.33"/>
<polygon fill="#63b8ff" stroke="#63b8ff" points="420.33,-240.12 409.79,-239.02 417.34,-246.45 420.33,-240.12"/>
</a>
</g>
</g>
<!-- Node35 -->
<g id="Node000035" class="node">
<title>Node35</title>
<g id="a_Node000035"><a xlink:href="validate__types_8h.html" target="_top" xlink:title=" ">
<polygon fill="white" stroke="#666666" points="425.5,-294 327.5,-294 327.5,-275 425.5,-275 425.5,-294"/>
<text text-anchor="middle" x="376.5" y="-282" font-family="Helvetica,sans-Serif" font-size="10.00">validate_types.h</text>
</a>
</g>
</g>
<!-- Node4&#45;&gt;Node35 -->
<g id="edge25_Node000004_Node000035" class="edge">
<title>Node4&#45;&gt;Node35</title>
<g id="a_edge25_Node000004_Node000035"><a xlink:title=" ">
<path fill="none" stroke="#63b8ff" d="M426,-391.17C400.52,-387.25 361.03,-376.78 342.5,-349 332.06,-333.35 345.64,-314.16 358.61,-301"/>
<polygon fill="#63b8ff" stroke="#63b8ff" points="361.13,-303.43 365.99,-294.02 356.32,-298.34 361.13,-303.43"/>
</a>
</g>
</g>
<!-- Node36 -->
<g id="Node000036" class="node">
<title>Node36</title>
<g id="a_Node000036"><a xlink:href="validate__expressions_8h.html" target="_top" xlink:title=" ">
<polygon fill="white" stroke="#666666" points="481,-349 352,-349 352,-330 481,-330 481,-349"/>
<text text-anchor="middle" x="416.5" y="-337" font-family="Helvetica,sans-Serif" font-size="10.00">validate_expressions.h</text>
</a>
</g>
</g>
<!-- Node4&#45;&gt;Node36 -->
<g id="edge24_Node000004_Node000036" class="edge">
<title>Node4&#45;&gt;Node36</title>
<g id="a_edge24_Node000004_Node000036"><a xlink:title=" ">
<path fill="none" stroke="#63b8ff" d="M444.05,-384.75C439.49,-377.42 432.83,-366.73 427.21,-357.7"/>
<polygon fill="#63b8ff" stroke="#63b8ff" points="430.1,-355.73 421.85,-349.09 424.16,-359.43 430.1,-355.73"/>
</a>
</g>
</g>
<!-- Node37 -->
<g id="Node000037" class="node">
<title>Node37</title>
<g id="a_Node000037"><a xlink:title=" ">
<polygon fill="#e0e0e0" stroke="#999999" points="295,-349 230,-349 230,-330 295,-330 295,-349"/>
<text text-anchor="middle" x="262.5" y="-337" font-family="Helvetica,sans-Serif" font-size="10.00">functional</text>
</a>
</g>
</g>
<!-- Node4&#45;&gt;Node37 -->
<g id="edge27_Node000004_Node000037" class="edge">
<title>Node4&#45;&gt;Node37</title>
<g id="a_edge27_Node000004_Node000037"><a xlink:title=" ">
<path fill="none" stroke="#63b8ff" d="M425.82,-386.79C394.91,-378.03 340.37,-362.57 302.88,-351.94"/>
<polygon fill="#63b8ff" stroke="#63b8ff" points="303.37,-348.44 292.79,-349.09 301.46,-355.18 303.37,-348.44"/>
</a>
</g>
</g>
<!-- Node7 -->
<g id="Node000007" class="node">
<title>Node7</title>
<g id="a_Node000007"><a xlink:href="source__location_8h.html" target="_top" xlink:title=" ">
<polygon fill="white" stroke="#666666" points="709.5,-184 607.5,-184 607.5,-165 709.5,-165 709.5,-184"/>
<text text-anchor="middle" x="658.5" y="-172" font-family="Helvetica,sans-Serif" font-size="10.00">source_location.h</text>
</a>
</g>
</g>
<!-- Node6&#45;&gt;Node7 -->
<g id="edge6_Node000006_Node000007" class="edge">
<title>Node6&#45;&gt;Node7</title>
<g id="a_edge6_Node000006_Node000007"><a xlink:title=" ">
<path fill="none" stroke="#63b8ff" d="M636.35,-329.95C626.67,-321.84 613.19,-308.73 606.5,-294 592.85,-263.96 585.91,-249.59 600.5,-220 606.99,-206.85 619.43,-196.5 631.14,-189.11"/>
<polygon fill="#63b8ff" stroke="#63b8ff" points="632.96,-192.1 639.83,-184.03 629.43,-186.05 632.96,-192.1"/>
</a>
</g>
</g>
<!-- Node6&#45;&gt;Node32 -->
<g id="edge15_Node000006_Node000032" class="edge">
<title>Node6&#45;&gt;Node32</title>
<g id="a_edge15_Node000006_Node000032"><a xlink:title=" ">
<path fill="none" stroke="#63b8ff" d="M647.5,-329.75C647.5,-322.8 647.5,-312.85 647.5,-304.13"/>
<polygon fill="#63b8ff" stroke="#63b8ff" points="651,-304.09 647.5,-294.09 644,-304.09 651,-304.09"/>
</a>
</g>
</g>
<!-- Node6&#45;&gt;Node34 -->
<g id="edge23_Node000006_Node000034" class="edge">
<title>Node6&#45;&gt;Node34</title>
<g id="a_edge23_Node000006_Node000034"><a xlink:title=" ">
<path fill="none" stroke="#63b8ff" d="M632.44,-329.96C609.28,-317.04 563.33,-292.2 522.5,-275 492.08,-262.18 456.56,-250.3 430.19,-242.05"/>
<polygon fill="#63b8ff" stroke="#63b8ff" points="431.15,-238.68 420.56,-239.06 429.08,-245.37 431.15,-238.68"/>
</a>
</g>
</g>
<!-- Node6&#45;&gt;Node35 -->
<g id="edge22_Node000006_Node000035" class="edge">
<title>Node6&#45;&gt;Node35</title>
<g id="a_edge22_Node000006_Node000035"><a xlink:title=" ">
<path fill="none" stroke="#63b8ff" d="M623.92,-333.89C580.95,-325.49 488.89,-307.48 429.99,-295.96"/>
<polygon fill="#63b8ff" stroke="#63b8ff" points="430.6,-292.51 420.11,-294.03 429.25,-299.38 430.6,-292.51"/>
</a>
</g>
</g>
<!-- Node8 -->
<g id="Node000008" class="node">
<title>Node8</title>
<g id="a_Node000008"><a xlink:href="deprecate_8h.html" target="_top" xlink:title=" ">
<polygon fill="white" stroke="#666666" points="848.5,-129 774.5,-129 774.5,-110 848.5,-110 848.5,-129"/>
<text text-anchor="middle" x="811.5" y="-117" font-family="Helvetica,sans-Serif" font-size="10.00">deprecate.h</text>
</a>
</g>
</g>
<!-- Node7&#45;&gt;Node8 -->
<g id="edge7_Node000007_Node000008" class="edge">
<title>Node7&#45;&gt;Node8</title>
<g id="a_edge7_Node000007_Node000008"><a xlink:title=" ">
<path fill="none" stroke="#63b8ff" d="M683.08,-164.98C708.55,-156.16 748.54,-142.31 777.13,-132.41"/>
<polygon fill="#63b8ff" stroke="#63b8ff" points="778.42,-135.66 786.73,-129.08 776.13,-129.05 778.42,-135.66"/>
</a>
</g>
</g>
<!-- Node9 -->
<g id="Node000009" class="node">
<title>Node9</title>
<g id="a_Node000009"><a xlink:href="irep_8h.html" target="_top" xlink:title=" ">
<polygon fill="#fff0f0" stroke="red" points="680.5,-129 636.5,-129 636.5,-110 680.5,-110 680.5,-129"/>
<text text-anchor="middle" x="658.5" y="-117" font-family="Helvetica,sans-Serif" font-size="10.00">irep.h</text>
</a>
</g>
</g>
<!-- Node7&#45;&gt;Node9 -->
<g id="edge8_Node000007_Node000009" class="edge">
<title>Node7&#45;&gt;Node9</title>
<g id="a_edge8_Node000007_Node000009"><a xlink:title=" ">
<path fill="none" stroke="#63b8ff" d="M658.5,-164.75C658.5,-157.8 658.5,-147.85 658.5,-139.13"/>
<polygon fill="#63b8ff" stroke="#63b8ff" points="662,-139.09 658.5,-129.09 655,-139.09 662,-139.09"/>
</a>
</g>
</g>
<!-- Node10 -->
<g id="Node000010" class="node">
<title>Node10</title>
<g id="a_Node000010"><a xlink:title=" ">
<polygon fill="#e0e0e0" stroke="#999999" points="833.5,-19 789.5,-19 789.5,0 833.5,0 833.5,-19"/>
<text text-anchor="middle" x="811.5" y="-7" font-family="Helvetica,sans-Serif" font-size="10.00">string</text>
</a>
</g>
</g>
<!-- Node7&#45;&gt;Node10 -->
<g id="edge14_Node000007_Node000010" class="edge">
<title>Node7&#45;&gt;Node10</title>
<g id="a_edge14_Node000007_Node000010"><a xlink:title=" ">
<path fill="none" stroke="#63b8ff" d="M666.73,-164.74C691.22,-138.65 763.94,-61.17 796.01,-27"/>
<polygon fill="#63b8ff" stroke="#63b8ff" points="798.94,-28.99 803.23,-19.31 793.84,-24.2 798.94,-28.99"/>
</a>
</g>
</g>
<!-- Node31 -->
<g id="Node000031" class="node">
<title>Node31</title>
<g id="a_Node000031"><a xlink:title=" ">
<polygon fill="#e0e0e0" stroke="#999999" points="618.5,-129 562.5,-129 562.5,-110 618.5,-110 618.5,-129"/>
<text text-anchor="middle" x="590.5" y="-117" font-family="Helvetica,sans-Serif" font-size="10.00">optional</text>
</a>
</g>
</g>
<!-- Node7&#45;&gt;Node31 -->
<g id="edge13_Node000007_Node000031" class="edge">
<title>Node7&#45;&gt;Node31</title>
<g id="a_edge13_Node000007_Node000031"><a xlink:title=" ">
<path fill="none" stroke="#63b8ff" d="M647.57,-164.98C637.42,-157.07 622.08,-145.11 609.85,-135.58"/>
<polygon fill="#63b8ff" stroke="#63b8ff" points="611.66,-132.56 601.62,-129.17 607.36,-138.08 611.66,-132.56"/>
</a>
</g>
</g>
<!-- Node9&#45;&gt;Node10 -->
<g id="edge9_Node000009_Node000010" class="edge">
<title>Node9&#45;&gt;Node10</title>
<g id="a_edge9_Node000009_Node000010"><a xlink:title=" ">
<path fill="none" stroke="#63b8ff" d="M667.59,-109.66C681.1,-96.77 707.54,-72.48 732.5,-55 749.16,-43.33 769.12,-32.11 784.81,-23.85"/>
<polygon fill="#63b8ff" stroke="#63b8ff" points="786.69,-26.82 793.96,-19.12 783.47,-20.6 786.69,-26.82"/>
</a>
</g>
</g>
<!-- Node9&#45;&gt;Node12 -->
<g id="edge10_Node000009_Node000012" class="edge">
<title>Node9&#45;&gt;Node12</title>
<g id="a_edge10_Node000009_Node000012"><a xlink:title=" ">
<path fill="none" stroke="#63b8ff" d="M636.25,-111.96C633.32,-111.23 630.35,-110.55 627.5,-110 504.41,-86.21 356.71,-73.57 284.17,-68.39"/>
<polygon fill="#63b8ff" stroke="#63b8ff" points="284.25,-64.88 274.03,-67.67 283.76,-71.87 284.25,-64.88"/>
</a>
</g>
</g>
<!-- Node12&#45;&gt;Node10 -->
<g id="edge11_Node000012_Node000010" class="edge">
<title>Node12&#45;&gt;Node10</title>
<g id="a_edge11_Node000012_Node000010"><a xlink:title=" ">
<path fill="none" stroke="#63b8ff" d="M274.42,-60.26C377.51,-50.71 679.54,-22.73 779.19,-13.49"/>
<polygon fill="#63b8ff" stroke="#63b8ff" points="779.62,-16.97 789.25,-12.56 778.97,-10 779.62,-16.97"/>
</a>
</g>
</g>
<!-- Node15 -->
<g id="Node000015" class="node">
<title>Node15</title>
<g id="a_Node000015"><a xlink:title=" ">
<polygon fill="#e0e0e0" stroke="#999999" points="141,-19 72,-19 72,0 141,0 141,-19"/>
<text text-anchor="middle" x="106.5" y="-7" font-family="Helvetica,sans-Serif" font-size="10.00">type_traits</text>
</a>
</g>
</g>
<!-- Node12&#45;&gt;Node15 -->
<g id="edge12_Node000012_Node000015" class="edge">
<title>Node12&#45;&gt;Node15</title>
<g id="a_edge12_Node000012_Node000015"><a xlink:title=" ">
<path fill="none" stroke="#63b8ff" d="M218.13,-54.98C196.35,-46.3 162.34,-32.75 137.58,-22.88"/>
<polygon fill="#63b8ff" stroke="#63b8ff" points="138.84,-19.62 128.26,-19.17 136.25,-26.12 138.84,-19.62"/>
</a>
</g>
</g>
<!-- Node32&#45;&gt;Node15 -->
<g id="edge16_Node000032_Node000015" class="edge">
<title>Node32&#45;&gt;Node15</title>
<g id="a_edge16_Node000032_Node000015"><a xlink:title=" ">
<path fill="none" stroke="#63b8ff" d="M625.13,-274.86C558.02,-248.58 353.25,-165.76 195.5,-74 170.21,-59.29 143.11,-39.27 125.55,-25.67"/>
<polygon fill="#63b8ff" stroke="#63b8ff" points="127.33,-22.62 117.29,-19.21 123.01,-28.13 127.33,-22.62"/>
</a>
</g>
</g>
<!-- Node33 -->
<g id="Node000033" class="node">
<title>Node33</title>
<g id="a_Node000033"><a xlink:href="exception__utils_8h.html" target="_top" xlink:title=" ">
<polygon fill="white" stroke="#666666" points="709.5,-239 609.5,-239 609.5,-220 709.5,-220 709.5,-239"/>
<text text-anchor="middle" x="659.5" y="-227" font-family="Helvetica,sans-Serif" font-size="10.00">exception_utils.h</text>
</a>
</g>
</g>
<!-- Node32&#45;&gt;Node33 -->
<g id="edge17_Node000032_Node000033" class="edge">
<title>Node32&#45;&gt;Node33</title>
<g id="a_edge17_Node000032_Node000033"><a xlink:title=" ">
<path fill="none" stroke="#63b8ff" d="M649.48,-274.75C651.07,-267.72 653.36,-257.62 655.35,-248.84"/>
<polygon fill="#63b8ff" stroke="#63b8ff" points="658.76,-249.62 657.56,-239.09 651.93,-248.07 658.76,-249.62"/>
</a>
</g>
</g>
<!-- Node32&#45;&gt;Node34 -->
<g id="edge21_Node000032_Node000034" class="edge">
<title>Node32&#45;&gt;Node34</title>
<g id="a_edge21_Node000032_Node000034"><a xlink:title=" ">
<path fill="none" stroke="#63b8ff" d="M614.82,-276.73C571.35,-267.73 494.04,-251.73 442.76,-241.11"/>
<polygon fill="#63b8ff" stroke="#63b8ff" points="443.38,-237.67 432.88,-239.07 441.96,-244.52 443.38,-237.67"/>
</a>
</g>
</g>
<!-- Node33&#45;&gt;Node7 -->
<g id="edge20_Node000033_Node000007" class="edge">
<title>Node33&#45;&gt;Node7</title>
<g id="a_edge20_Node000033_Node000007"><a xlink:title=" ">
<path fill="none" stroke="#63b8ff" d="M659.33,-219.75C659.2,-212.8 659.02,-202.85 658.85,-194.13"/>
<polygon fill="#63b8ff" stroke="#63b8ff" points="662.35,-194.02 658.66,-184.09 655.35,-194.15 662.35,-194.02"/>
</a>
</g>
</g>
<!-- Node33&#45;&gt;Node10 -->
<g id="edge18_Node000033_Node000010" class="edge">
<title>Node33&#45;&gt;Node10</title>
<g id="a_edge18_Node000033_Node000010"><a xlink:title=" ">
<path fill="none" stroke="#63b8ff" d="M705,-219.99C752.44,-208.43 824.38,-182.7 857.5,-129 878.34,-95.21 847.17,-50.39 826.8,-26.73"/>
<polygon fill="#63b8ff" stroke="#63b8ff" points="829.18,-24.14 819.9,-19.03 823.97,-28.81 829.18,-24.14"/>
</a>
</g>
</g>
<!-- Node33&#45;&gt;Node12 -->
<g id="edge19_Node000033_Node000012" class="edge">
<title>Node33&#45;&gt;Node12</title>
<g id="a_edge19_Node000033_Node000012"><a xlink:title=" ">
<path fill="none" stroke="#63b8ff" d="M637.51,-219.97C567.99,-192.99 352.75,-109.45 271.23,-77.81"/>
<polygon fill="#63b8ff" stroke="#63b8ff" points="272.11,-74.4 261.52,-74.05 269.58,-80.93 272.11,-74.4"/>
</a>
</g>
</g>
<!-- Node38&#45;&gt;Node4 -->
<g id="edge33_Node000038_Node000004" class="edge">
<title>Node38&#45;&gt;Node4</title>
<g id="a_edge33_Node000038_Node000004"><a xlink:title=" ">
<path fill="none" stroke="#63b8ff" d="M248.67,-445.49C293.55,-434.32 371.84,-414.83 416.25,-403.78"/>
<polygon fill="#63b8ff" stroke="#63b8ff" points="417.12,-407.17 425.98,-401.35 415.43,-400.37 417.12,-407.17"/>
</a>
</g>
</g>
<!-- Node38&#45;&gt;Node12 -->
<g id="edge32_Node000038_Node000012" class="edge">
<title>Node38&#45;&gt;Node12</title>
<g id="a_edge32_Node000038_Node000012"><a xlink:title=" ">
<path fill="none" stroke="#63b8ff" d="M206.62,-445.21C198.76,-435.79 187.19,-420.02 182.5,-404 180.13,-395.9 182.12,-393.44 182.5,-385 188.11,-261.42 196.34,-230.22 225.5,-110 227.6,-101.34 230.48,-91.91 233.08,-83.96"/>
<polygon fill="#63b8ff" stroke="#63b8ff" points="236.47,-84.86 236.36,-74.27 229.84,-82.62 236.47,-84.86"/>
</a>
</g>
</g>
<!-- Node38&#45;&gt;Node15 -->
<g id="edge30_Node000038_Node000015" class="edge">
<title>Node38&#45;&gt;Node15</title>
<g id="a_edge30_Node000038_Node000015"><a xlink:title=" ">
<path fill="none" stroke="#63b8ff" d="M200.91,-445.22C168.15,-422.86 87.5,-360.23 87.5,-285.5 87.5,-285.5 87.5,-285.5 87.5,-118.5 87.5,-86.56 95.66,-50.1 101.28,-28.77"/>
<polygon fill="#63b8ff" stroke="#63b8ff" points="104.67,-29.66 103.94,-19.09 97.92,-27.81 104.67,-29.66"/>
</a>
</g>
</g>
<!-- Node38&#45;&gt;Node37 -->
<g id="edge31_Node000038_Node000037" class="edge">
<title>Node38&#45;&gt;Node37</title>
<g id="a_edge31_Node000038_Node000037"><a xlink:title=" ">
<path fill="none" stroke="#63b8ff" d="M225.14,-445.31C235.42,-436.22 250.46,-420.91 257.5,-404 263.42,-389.79 264.38,-372.25 264.02,-359.21"/>
<polygon fill="#63b8ff" stroke="#63b8ff" points="267.51,-358.9 263.46,-349.11 260.52,-359.29 267.51,-358.9"/>
</a>
</g>
</g>
<!-- Node39 -->
<g id="Node000039" class="node">
<title>Node39</title>
<g id="a_Node000039"><a xlink:title=" ">
<polygon fill="#e0e0e0" stroke="#999999" points="249,-404 192,-404 192,-385 249,-385 249,-404"/>
<text text-anchor="middle" x="220.5" y="-392" font-family="Helvetica,sans-Serif" font-size="10.00">typeinfo</text>
</a>
</g>
</g>
<!-- Node38&#45;&gt;Node39 -->
<g id="edge29_Node000038_Node000039" class="edge">
<title>Node38&#45;&gt;Node39</title>
<g id="a_edge29_Node000038_Node000039"><a xlink:title=" ">
<path fill="none" stroke="#63b8ff" d="M215.39,-445.37C216.22,-437.25 217.49,-424.81 218.56,-414.39"/>
<polygon fill="#63b8ff" stroke="#63b8ff" points="222.07,-414.47 219.61,-404.17 215.11,-413.76 222.07,-414.47"/>
</a>
</g>
</g>
<!-- Node40&#45;&gt;Node10 -->
<g id="edge37_Node000040_Node000010" class="edge">
<title>Node40&#45;&gt;Node10</title>
<g id="a_edge37_Node000040_Node000010"><a xlink:title=" ">
<path fill="none" stroke="#63b8ff" d="M870.43,-445.18C888.83,-411.38 952.5,-286.43 952.5,-175.5 952.5,-175.5 952.5,-175.5 952.5,-118.5 952.5,-63.81 884.81,-33.06 843.23,-19.33"/>
<polygon fill="#63b8ff" stroke="#63b8ff" points="844.12,-15.94 833.53,-16.27 842.02,-22.62 844.12,-15.94"/>
</a>
</g>
</g>
<!-- Node18 -->
<g id="Node000018" class="node">
<title>Node18</title>
<g id="a_Node000018"><a xlink:title=" ">
<polygon fill="#e0e0e0" stroke="#999999" points="963.5,-404 915.5,-404 915.5,-385 963.5,-385 963.5,-404"/>
<text text-anchor="middle" x="939.5" y="-392" font-family="Helvetica,sans-Serif" font-size="10.00">iosfwd</text>
</a>
</g>
</g>
<!-- Node40&#45;&gt;Node18 -->
<g id="edge36_Node000040_Node000018" class="edge">
<title>Node40&#45;&gt;Node18</title>
<g id="a_edge36_Node000040_Node000018"><a xlink:title=" ">
<path fill="none" stroke="#63b8ff" d="M876.42,-445.37C888.01,-436.21 906.53,-421.56 920.52,-410.51"/>
<polygon fill="#63b8ff" stroke="#63b8ff" points="922.86,-413.11 928.54,-404.17 918.52,-407.62 922.86,-413.11"/>
</a>
</g>
</g>
<!-- Node41 -->
<g id="Node000041" class="node">
<title>Node41</title>
<g id="a_Node000041"><a xlink:title=" ">
<polygon fill="#e0e0e0" stroke="#999999" points="859.5,-404 765.5,-404 765.5,-385 859.5,-385 859.5,-404"/>
<text text-anchor="middle" x="812.5" y="-392" font-family="Helvetica,sans-Serif" font-size="10.00">big&#45;int/bigint.hh</text>
</a>
</g>
</g>
<!-- Node40&#45;&gt;Node41 -->
<g id="edge38_Node000040_Node000041" class="edge">
<title>Node40&#45;&gt;Node41</title>
<g id="a_edge38_Node000040_Node000041"><a xlink:title=" ">
<path fill="none" stroke="#63b8ff" d="M857.68,-445.37C849.69,-436.55 837.11,-422.66 827.24,-411.77"/>
<polygon fill="#63b8ff" stroke="#63b8ff" points="829.66,-409.23 820.35,-404.17 824.47,-413.93 829.66,-409.23"/>
</a>
</g>
</g>
<!-- Node42&#45;&gt;Node12 -->
<g id="edge42_Node000042_Node000012" class="edge">
<title>Node42&#45;&gt;Node12</title>
<g id="a_edge42_Node000042_Node000012"><a xlink:title=" ">
<path fill="none" stroke="#63b8ff" d="M325.25,-725.81C316.47,-716.36 305.56,-703.28 298.5,-690 284.67,-663.99 279.5,-655.96 279.5,-626.5 279.5,-626.5 279.5,-626.5 279.5,-514.5 279.5,-456.12 284.65,-436.68 257.5,-385 246.83,-364.69 229.43,-370.14 220.5,-349 210.25,-324.72 230.36,-143.34 237.28,-84.13"/>
<polygon fill="#63b8ff" stroke="#63b8ff" points="240.78,-84.34 238.48,-74 233.83,-83.52 240.78,-84.34"/>
</a>
</g>
</g>
<!-- Node28 -->
<g id="Node000028" class="node">
<title>Node28</title>
<g id="a_Node000028"><a xlink:title=" ">
<polygon fill="#e0e0e0" stroke="#999999" points="371.5,-690 307.5,-690 307.5,-671 371.5,-671 371.5,-690"/>
<text text-anchor="middle" x="339.5" y="-678" font-family="Helvetica,sans-Serif" font-size="10.00">algorithm</text>
</a>
</g>
</g>
<!-- Node42&#45;&gt;Node28 -->
<g id="edge43_Node000042_Node000028" class="edge">
<title>Node42&#45;&gt;Node28</title>
<g id="a_edge43_Node000042_Node000028"><a xlink:title=" ">
<path fill="none" stroke="#63b8ff" d="M339.5,-725.84C339.5,-718.21 339.5,-708.7 339.5,-700.45"/>
<polygon fill="#63b8ff" stroke="#63b8ff" points="343,-700.27 339.5,-690.27 336,-700.27 343,-700.27"/>
</a>
</g>
</g>
<!-- Node43 -->
<g id="Node000043" class="node">
<title>Node43</title>
<g id="a_Node000043"><a xlink:title=" ">
<polygon fill="#e0e0e0" stroke="#999999" points="421.5,-690 389.5,-690 389.5,-671 421.5,-671 421.5,-690"/>
<text text-anchor="middle" x="405.5" y="-678" font-family="Helvetica,sans-Serif" font-size="10.00">set</text>
</a>
</g>
</g>
<!-- Node42&#45;&gt;Node43 -->
<g id="edge44_Node000042_Node000043" class="edge">
<title>Node42&#45;&gt;Node43</title>
<g id="a_edge44_Node000042_Node000043"><a xlink:title=" ">
<path fill="none" stroke="#63b8ff" d="M355.48,-725.84C365.25,-717.17 377.77,-706.08 387.84,-697.15"/>
<polygon fill="#63b8ff" stroke="#63b8ff" points="390.45,-699.52 395.61,-690.27 385.81,-694.28 390.45,-699.52"/>
</a>
</g>
</g>
<!-- Node44 -->
<g id="Node000044" class="node">
<title>Node44</title>
<g id="a_Node000044"><a xlink:href="c__types_8h.html" target="_top" xlink:title=" ">
<polygon fill="white" stroke="#666666" points="525.5,-690 443.5,-690 443.5,-671 525.5,-671 525.5,-690"/>
<text text-anchor="middle" x="484.5" y="-678" font-family="Helvetica,sans-Serif" font-size="10.00">util/c_types.h</text>
</a>
</g>
</g>
<!-- Node42&#45;&gt;Node44 -->
<g id="edge45_Node000042_Node000044" class="edge">
<title>Node42&#45;&gt;Node44</title>
<g id="a_edge45_Node000042_Node000044"><a xlink:title=" ">
<path fill="none" stroke="#63b8ff" d="M374.23,-725.99C398.42,-716.23 430.4,-703.33 453.69,-693.93"/>
<polygon fill="#63b8ff" stroke="#63b8ff" points="455.12,-697.13 463.09,-690.14 452.5,-690.63 455.12,-697.13"/>
</a>
</g>
</g>
<!-- Node47 -->
<g id="Node000047" class="node">
<title>Node47</title>
<g id="a_Node000047"><a xlink:href="std__expr_8h.html" target="_top" xlink:title="API to expression classes.">
<polygon fill="white" stroke="#666666" points="251,-580 184,-580 184,-561 251,-561 251,-580"/>
<text text-anchor="middle" x="217.5" y="-568" font-family="Helvetica,sans-Serif" font-size="10.00">std_expr.h</text>
</a>
</g>
</g>
<!-- Node42&#45;&gt;Node47 -->
<g id="edge57_Node000042_Node000047" class="edge">
<title>Node42&#45;&gt;Node47</title>
<g id="a_edge57_Node000042_Node000047"><a xlink:title=" ">
<path fill="none" stroke="#63b8ff" d="M310.78,-725.95C295.63,-717.34 277.7,-705.06 265.5,-690 240.91,-659.63 227.44,-615 221.43,-590.07"/>
<polygon fill="#63b8ff" stroke="#63b8ff" points="224.8,-589.11 219.17,-580.13 217.97,-590.66 224.8,-589.11"/>
</a>
</g>
</g>
<!-- Node30 -->
<g id="Node000030" class="node">
<title>Node30</title>
<g id="a_Node000030"><a xlink:href="narrow_8h.html" target="_top" xlink:title=" ">
<polygon fill="white" stroke="#666666" points="59,-129 0,-129 0,-110 59,-110 59,-129"/>
<text text-anchor="middle" x="29.5" y="-117" font-family="Helvetica,sans-Serif" font-size="10.00">narrow.h</text>
</a>
</g>
</g>
<!-- Node42&#45;&gt;Node30 -->
<g id="edge54_Node000042_Node000030" class="edge">
<title>Node42&#45;&gt;Node30</title>
<g id="a_edge54_Node000042_Node000030"><a xlink:title=" ">
<path fill="none" stroke="#63b8ff" d="M283.42,-730.6C196.59,-714.44 39.5,-678.08 39.5,-626.5 39.5,-626.5 39.5,-626.5 39.5,-228.5 39.5,-197.06 35.25,-160.68 32.29,-139.19"/>
<polygon fill="#63b8ff" stroke="#63b8ff" points="35.73,-138.56 30.85,-129.15 28.8,-139.55 35.73,-138.56"/>
</a>
</g>
</g>
<!-- Node44&#45;&gt;Node8 -->
<g id="edge46_Node000044_Node000008" class="edge">
<title>Node44&#45;&gt;Node8</title>
<g id="a_edge46_Node000044_Node000008"><a xlink:title=" ">
<path fill="none" stroke="#63b8ff" d="M525.91,-678.89C641.72,-676.08 960.5,-660.26 960.5,-571.5 960.5,-571.5 960.5,-571.5 960.5,-514.5 960.5,-456.7 988.11,-440.66 972.5,-385 943.22,-280.58 860.1,-176.47 826.18,-137.04"/>
<polygon fill="#63b8ff" stroke="#63b8ff" points="828.59,-134.46 819.38,-129.23 823.31,-139.06 828.59,-134.46"/>
</a>
</g>
</g>
<!-- Node45 -->
<g id="Node000045" class="node">
<title>Node45</title>
<g id="a_Node000045"><a xlink:href="pointer__expr_8h.html" target="_top" xlink:title="API to expression classes for Pointers.">
<polygon fill="white" stroke="#666666" points="527.5,-635 441.5,-635 441.5,-616 527.5,-616 527.5,-635"/>
<text text-anchor="middle" x="484.5" y="-623" font-family="Helvetica,sans-Serif" font-size="10.00">pointer_expr.h</text>
</a>
</g>
</g>
<!-- Node44&#45;&gt;Node45 -->
<g id="edge47_Node000044_Node000045" class="edge">
<title>Node44&#45;&gt;Node45</title>
<g id="a_edge47_Node000044_Node000045"><a xlink:title=" ">
<path fill="none" stroke="#63b8ff" d="M484.5,-670.75C484.5,-663.8 484.5,-653.85 484.5,-645.13"/>
<polygon fill="#63b8ff" stroke="#63b8ff" points="488,-645.09 484.5,-635.09 481,-645.09 488,-645.09"/>
</a>
</g>
</g>
<!-- Node46 -->
<g id="Node000046" class="node">
<title>Node46</title>
<g id="a_Node000046"><a xlink:href="bitvector__types_8h.html" target="_top" xlink:title="Pre&#45;defined bitvector types.">
<polygon fill="white" stroke="#666666" points="537,-580 436,-580 436,-561 537,-561 537,-580"/>
<text text-anchor="middle" x="486.5" y="-568" font-family="Helvetica,sans-Serif" font-size="10.00">bitvector_types.h</text>
</a>
</g>
</g>
<!-- Node45&#45;&gt;Node46 -->
<g id="edge48_Node000045_Node000046" class="edge">
<title>Node45&#45;&gt;Node46</title>
<g id="a_edge48_Node000045_Node000046"><a xlink:title=" ">
<path fill="none" stroke="#63b8ff" d="M484.83,-615.75C485.09,-608.8 485.47,-598.85 485.8,-590.13"/>
<polygon fill="#63b8ff" stroke="#63b8ff" points="489.3,-590.21 486.18,-580.09 482.3,-589.95 489.3,-590.21"/>
</a>
</g>
</g>
<!-- Node45&#45;&gt;Node47 -->
<g id="edge50_Node000045_Node000047" class="edge">
<title>Node45&#45;&gt;Node47</title>
<g id="a_edge50_Node000045_Node000047"><a xlink:title=" ">
<path fill="none" stroke="#63b8ff" d="M441.6,-615.98C392.09,-606.16 311.1,-590.08 261.24,-580.18"/>
<polygon fill="#63b8ff" stroke="#63b8ff" points="261.89,-576.74 251.4,-578.23 260.53,-583.61 261.89,-576.74"/>
</a>
</g>
</g>
<!-- Node46&#45;&gt;Node3 -->
<g id="edge49_Node000046_Node000003" class="edge">
<title>Node46&#45;&gt;Node3</title>
<g id="a_edge49_Node000046_Node000003"><a xlink:title=" ">
<path fill="none" stroke="#63b8ff" d="M500.32,-560.98C513.65,-552.77 534.08,-540.18 549.81,-530.49"/>
<polygon fill="#63b8ff" stroke="#63b8ff" points="551.75,-533.4 558.43,-525.17 548.08,-527.44 551.75,-533.4"/>
</a>
</g>
</g>
<!-- Node47&#45;&gt;Node3 -->
<g id="edge53_Node000047_Node000003" class="edge">
<title>Node47&#45;&gt;Node3</title>
<g id="a_edge53_Node000047_Node000003"><a xlink:title=" ">
<path fill="none" stroke="#63b8ff" d="M251.22,-564.47C312.21,-555.36 441.46,-536.06 516.1,-524.92"/>
<polygon fill="#63b8ff" stroke="#63b8ff" points="516.89,-528.34 526.26,-523.4 515.85,-521.42 516.89,-528.34"/>
</a>
</g>
</g>
<!-- Node47&#45;&gt;Node12 -->
<g id="edge52_Node000047_Node000012" class="edge">
<title>Node47&#45;&gt;Node12</title>
<g id="a_edge52_Node000047_Node000012"><a xlink:title=" ">
<path fill="none" stroke="#63b8ff" d="M212.55,-561C193.44,-527.31 125.5,-399.52 125.5,-285.5 125.5,-285.5 125.5,-285.5 125.5,-228.5 125.5,-163.83 186.5,-106.55 219.26,-80.46"/>
<polygon fill="#63b8ff" stroke="#63b8ff" points="221.54,-83.12 227.3,-74.22 217.25,-77.58 221.54,-83.12"/>
</a>
</g>
</g>
<!-- Node47&#45;&gt;Node38 -->
<g id="edge51_Node000047_Node000038" class="edge">
<title>Node47&#45;&gt;Node38</title>
<g id="a_edge51_Node000047_Node000038"><a xlink:title=" ">
<path fill="none" stroke="#63b8ff" d="M217.27,-560.97C216.79,-542.73 215.65,-499.57 214.99,-474.64"/>
<polygon fill="#63b8ff" stroke="#63b8ff" points="218.49,-474.53 214.73,-464.63 211.49,-474.72 218.49,-474.53"/>
</a>
</g>
</g>
<!-- Node30&#45;&gt;Node12 -->
<g id="edge56_Node000030_Node000012" class="edge">
<title>Node30&#45;&gt;Node12</title>
<g id="a_edge56_Node000030_Node000012"><a xlink:title=" ">
<path fill="none" stroke="#63b8ff" d="M59.14,-111.02C94.76,-102.03 154.83,-86.87 195.77,-76.54"/>
<polygon fill="#63b8ff" stroke="#63b8ff" points="196.65,-79.93 205.49,-74.08 194.93,-73.14 196.65,-79.93"/>
</a>
</g>
</g>
<!-- Node30&#45;&gt;Node15 -->
<g id="edge55_Node000030_Node000015" class="edge">
<title>Node30&#45;&gt;Node15</title>
<g id="a_edge55_Node000030_Node000015"><a xlink:title=" ">
<path fill="none" stroke="#63b8ff" d="M35.39,-109.81C43.75,-97.52 59.59,-74.4 73.5,-55 80.09,-45.82 87.58,-35.69 93.76,-27.42"/>
<polygon fill="#63b8ff" stroke="#63b8ff" points="96.64,-29.4 99.84,-19.3 91.04,-25.2 96.64,-29.4"/>
</a>
</g>
</g>
<!-- Node49 -->
<g id="Node000049" class="node">
<title>Node49</title>
<g id="a_Node000049"><a xlink:title=" ">
<polygon fill="#e0e0e0" stroke="#999999" points="1243,-464.5 1150,-464.5 1150,-445.5 1243,-445.5 1243,-464.5"/>
<text text-anchor="middle" x="1196.5" y="-452.5" font-family="Helvetica,sans-Serif" font-size="10.00">catch/catch.hpp</text>
</a>
</g>
</g>
<!-- Node48&#45;&gt;Node49 -->
<g id="edge59_Node000048_Node000049" class="edge">
<title>Node48&#45;&gt;Node49</title>
<g id="a_edge59_Node000048_Node000049"><a xlink:title=" ">
<path fill="none" stroke="#63b8ff" d="M1080.28,-505.99C1103.14,-496.16 1140.99,-479.88 1167.26,-468.58"/>
<polygon fill="#63b8ff" stroke="#63b8ff" points="1168.9,-471.68 1176.7,-464.52 1166.13,-465.25 1168.9,-471.68"/>
</a>
</g>
</g>
<!-- Node50 -->
<g id="Node000050" class="node">
<title>Node50</title>
<g id="a_Node000050"><a xlink:href="smt__to__smt2__string_8h.html" target="_top" xlink:title="Streaming SMT data structures to a string based output stream.">
<polygon fill="white" stroke="#666666" points="1132,-470 989,-470 989,-440 1132,-440 1132,-470"/>
<text text-anchor="start" x="997" y="-458" font-family="Helvetica,sans-Serif" font-size="10.00">solvers/smt2_incremental</text>
<text text-anchor="middle" x="1060.5" y="-447" font-family="Helvetica,sans-Serif" font-size="10.00">/smt_to_smt2_string.h</text>
</a>
</g>
</g>
<!-- Node48&#45;&gt;Node50 -->
<g id="edge60_Node000048_Node000050" class="edge">
<title>Node48&#45;&gt;Node50</title>
<g id="a_edge60_Node000048_Node000050"><a xlink:title=" ">
<path fill="none" stroke="#63b8ff" d="M1060.5,-505.87C1060.5,-499.11 1060.5,-489.35 1060.5,-480.26"/>
<polygon fill="#63b8ff" stroke="#63b8ff" points="1064,-480.11 1060.5,-470.11 1057,-480.11 1064,-480.11"/>
</a>
</g>
</g>
<!-- Node50&#45;&gt;Node10 -->
<g id="edge62_Node000050_Node000010" class="edge">
<title>Node50&#45;&gt;Node10</title>
<g id="a_edge62_Node000050_Node000010"><a xlink:title=" ">
<path fill="none" stroke="#63b8ff" d="M1056.15,-439.82C1050,-418.49 1039.5,-376.77 1039.5,-340.5 1039.5,-340.5 1039.5,-340.5 1039.5,-118.5 1039.5,-33 906.93,-15.1 843.97,-11.41"/>
<polygon fill="#63b8ff" stroke="#63b8ff" points="843.94,-7.91 833.78,-10.91 843.59,-14.9 843.94,-7.91"/>
</a>
</g>
</g>
<!-- Node50&#45;&gt;Node18 -->
<g id="edge61_Node000050_Node000018" class="edge">
<title>Node50&#45;&gt;Node18</title>
<g id="a_edge61_Node000050_Node000018"><a xlink:title=" ">
<path fill="none" stroke="#63b8ff" d="M1031.52,-439.99C1011.78,-430.45 985.83,-417.9 966.53,-408.57"/>
<polygon fill="#63b8ff" stroke="#63b8ff" points="967.9,-405.34 957.37,-404.14 964.85,-411.64 967.9,-405.34"/>
</a>
</g>
</g>
</g>
</svg>
