<?xml version="1.0" encoding="UTF-8" standalone="no"?>
<!DOCTYPE svg PUBLIC "-//W3C//DTD SVG 1.1//EN"
 "http://www.w3.org/Graphics/SVG/1.1/DTD/svg11.dtd">
<!-- Generated by graphviz version 2.43.0 (0)
 -->
<!-- Title: /home/runner/work/cbmc/cbmc/unit/testing&#45;utils/require_vectors_equal_unordered.h Pages: 1 -->
<svg width="273pt" height="225pt"
 viewBox="0.00 0.00 273.00 225.00" xmlns="http://www.w3.org/2000/svg" xmlns:xlink="http://www.w3.org/1999/xlink">
<g id="graph0" class="graph" transform="scale(1 1) rotate(0) translate(4 221)">
<title>/home/runner/work/cbmc/cbmc/unit/testing&#45;utils/require_vectors_equal_unordered.h</title>
<!-- Node1 -->
<g id="Node000001" class="node">
<title>Node1</title>
<g id="a_Node000001"><a xlink:title=" ">
<polygon fill="#999999" stroke="#666666" points="265,-217 74,-217 74,-176 265,-176 265,-217"/>
<text text-anchor="start" x="82" y="-205" font-family="Helvetica,sans-Serif" font-size="10.00">/home/runner/work/cbmc</text>
<text text-anchor="start" x="82" y="-194" font-family="Helvetica,sans-Serif" font-size="10.00">/cbmc/unit/testing&#45;utils</text>
<text text-anchor="middle" x="169.5" y="-183" font-family="Helvetica,sans-Serif" font-size="10.00">/require_vectors_equal_unordered.h</text>
</a>
</g>
</g>
<!-- Node2 -->
<g id="Node000002" class="node">
<title>Node2</title>
<g id="a_Node000002"><a xlink:href="use__catch_8h.html" target="_top" xlink:title=" ">
<polygon fill="white" stroke="#666666" points="182.5,-140 46.5,-140 46.5,-121 182.5,-121 182.5,-140"/>
<text text-anchor="middle" x="114.5" y="-128" font-family="Helvetica,sans-Serif" font-size="10.00">testing&#45;utils/use_catch.h</text>
</a>
</g>
</g>
<!-- Node1&#45;&gt;Node2 -->
<g id="edge1_Node000001_Node000002" class="edge">
<title>Node1&#45;&gt;Node2</title>
<g id="a_edge1_Node000001_Node000002"><a xlink:title=" ">
<path fill="none" stroke="#63b8ff" d="M152.7,-175.95C145.02,-167.02 136.03,-156.55 128.7,-148.02"/>
<polygon fill="#63b8ff" stroke="#63b8ff" points="131.2,-145.56 122.03,-140.26 125.89,-150.13 131.2,-145.56"/>
</a>
</g>
</g>
<!-- Node7 -->
<g id="Node000007" class="node">
<title>Node7</title>
<g id="a_Node000007"><a xlink:title=" ">
<polygon fill="#e0e0e0" stroke="#999999" points="248,-140 201,-140 201,-121 248,-121 248,-140"/>
<text text-anchor="middle" x="224.5" y="-128" font-family="Helvetica,sans-Serif" font-size="10.00">vector</text>
</a>
</g>
</g>
<!-- Node1&#45;&gt;Node7 -->
<g id="edge6_Node000001_Node000007" class="edge">
<title>Node1&#45;&gt;Node7</title>
<g id="a_edge6_Node000001_Node000007"><a xlink:title=" ">
<path fill="none" stroke="#63b8ff" d="M186.3,-175.95C193.98,-167.02 202.97,-156.55 210.3,-148.02"/>
<polygon fill="#63b8ff" stroke="#63b8ff" points="213.11,-150.13 216.97,-140.26 207.8,-145.56 213.11,-150.13"/>
</a>
</g>
</g>
<!-- Node3 -->
<g id="Node000003" class="node">
<title>Node3</title>
<g id="a_Node000003"><a xlink:title=" ">
<polygon fill="#e0e0e0" stroke="#999999" points="93,-79.5 0,-79.5 0,-60.5 93,-60.5 93,-79.5"/>
<text text-anchor="middle" x="46.5" y="-67.5" font-family="Helvetica,sans-Serif" font-size="10.00">catch/catch.hpp</text>
</a>
</g>
</g>
<!-- Node2&#45;&gt;Node3 -->
<g id="edge2_Node000002_Node000003" class="edge">
<title>Node2&#45;&gt;Node3</title>
<g id="a_edge2_Node000002_Node000003"><a xlink:title=" ">
<path fill="none" stroke="#63b8ff" d="M104.47,-120.87C93.92,-111.8 77.11,-97.34 64.31,-86.32"/>
<polygon fill="#63b8ff" stroke="#63b8ff" points="66.44,-83.54 56.57,-79.67 61.87,-88.84 66.44,-83.54"/>
</a>
</g>
</g>
<!-- Node4 -->
<g id="Node000004" class="node">
<title>Node4</title>
<g id="a_Node000004"><a xlink:href="smt__to__smt2__string_8h.html" target="_top" xlink:title="Streaming SMT data structures to a string based output stream.">
<polygon fill="white" stroke="#666666" points="254,-85 111,-85 111,-55 254,-55 254,-85"/>
<text text-anchor="start" x="119" y="-73" font-family="Helvetica,sans-Serif" font-size="10.00">solvers/smt2_incremental</text>
<text text-anchor="middle" x="182.5" y="-62" font-family="Helvetica,sans-Serif" font-size="10.00">/smt_to_smt2_string.h</text>
</a>
</g>
</g>
<!-- Node2&#45;&gt;Node4 -->
<g id="edge3_Node000002_Node000004" class="edge">
<title>Node2&#45;&gt;Node4</title>
<g id="a_edge3_Node000002_Node000004"><a xlink:title=" ">
<path fill="none" stroke="#63b8ff" d="M124.53,-120.87C133.42,-113.22 146.75,-101.76 158.38,-91.75"/>
<polygon fill="#63b8ff" stroke="#63b8ff" points="160.8,-94.29 166.09,-85.11 156.23,-88.98 160.8,-94.29"/>
</a>
</g>
</g>
<!-- Node5 -->
<g id="Node000005" class="node">
<title>Node5</title>
<g id="a_Node000005"><a xlink:title=" ">
<polygon fill="#e0e0e0" stroke="#999999" points="174.5,-19 126.5,-19 126.5,0 174.5,0 174.5,-19"/>
<text text-anchor="middle" x="150.5" y="-7" font-family="Helvetica,sans-Serif" font-size="10.00">iosfwd</text>
</a>
</g>
</g>
<!-- Node4&#45;&gt;Node5 -->
<g id="edge4_Node000004_Node000005" class="edge">
<title>Node4&#45;&gt;Node5</title>
<g id="a_edge4_Node000004_Node000005"><a xlink:title=" ">
<path fill="none" stroke="#63b8ff" d="M174.75,-54.84C170.35,-46.78 164.79,-36.62 160.1,-28.06"/>
<polygon fill="#63b8ff" stroke="#63b8ff" points="163.16,-26.36 155.3,-19.27 157.02,-29.72 163.16,-26.36"/>
</a>
</g>
</g>
<!-- Node6 -->
<g id="Node000006" class="node">
<title>Node6</title>
<g id="a_Node000006"><a xlink:title=" ">
<polygon fill="#e0e0e0" stroke="#999999" points="236.5,-19 192.5,-19 192.5,0 236.5,0 236.5,-19"/>
<text text-anchor="middle" x="214.5" y="-7" font-family="Helvetica,sans-Serif" font-size="10.00">string</text>
</a>
</g>
</g>
<!-- Node4&#45;&gt;Node6 -->
<g id="edge5_Node000004_Node000006" class="edge">
<title>Node4&#45;&gt;Node6</title>
<g id="a_edge5_Node000004_Node000006"><a xlink:title=" ">
<path fill="none" stroke="#63b8ff" d="M190.25,-54.84C194.65,-46.78 200.21,-36.62 204.9,-28.06"/>
<polygon fill="#63b8ff" stroke="#63b8ff" points="207.98,-29.72 209.7,-19.27 201.84,-26.36 207.98,-29.72"/>
</a>
</g>
</g>
</g>
</svg>
