<?xml version="1.0" encoding="UTF-8" standalone="no"?>
<!DOCTYPE svg PUBLIC "-//W3C//DTD SVG 1.1//EN"
 "http://www.w3.org/Graphics/SVG/1.1/DTD/svg11.dtd">
<!-- Generated by graphviz version 2.43.0 (0)
 -->
<!-- Title: /home/runner/work/cbmc/cbmc/jbmc/unit/java&#45;testing&#45;utils/require_parse_tree.cpp Pages: 1 -->
<svg width="1011pt" height="731pt"
 viewBox="0.00 0.00 1011.00 731.00" xmlns="http://www.w3.org/2000/svg" xmlns:xlink="http://www.w3.org/1999/xlink">
<g id="graph0" class="graph" transform="scale(1 1) rotate(0) translate(4 727)">
<title>/home/runner/work/cbmc/cbmc/jbmc/unit/java&#45;testing&#45;utils/require_parse_tree.cpp</title>
<!-- Node1 -->
<g id="Node000001" class="node">
<title>Node1</title>
<g id="a_Node000001"><a xlink:title=" ">
<polygon fill="#999999" stroke="#666666" points="747.5,-723 591.5,-723 591.5,-682 747.5,-682 747.5,-723"/>
<text text-anchor="start" x="599.5" y="-711" font-family="Helvetica,sans-Serif" font-size="10.00">/home/runner/work/cbmc</text>
<text text-anchor="start" x="599.5" y="-700" font-family="Helvetica,sans-Serif" font-size="10.00">/cbmc/jbmc/unit/java&#45;testing</text>
<text text-anchor="middle" x="669.5" y="-689" font-family="Helvetica,sans-Serif" font-size="10.00">&#45;utils/require_parse_tree.cpp</text>
</a>
</g>
</g>
<!-- Node2 -->
<g id="Node000002" class="node">
<title>Node2</title>
<g id="a_Node000002"><a xlink:href="require__parse__tree_8h.html" target="_top" xlink:title="Utilties for inspecting java_parse_treet.">
<polygon fill="white" stroke="#666666" points="590,-646 473,-646 473,-627 590,-627 590,-646"/>
<text text-anchor="middle" x="531.5" y="-634" font-family="Helvetica,sans-Serif" font-size="10.00">require_parse_tree.h</text>
</a>
</g>
</g>
<!-- Node1&#45;&gt;Node2 -->
<g id="edge1_Node000001_Node000002" class="edge">
<title>Node1&#45;&gt;Node2</title>
<g id="a_edge1_Node000001_Node000002"><a xlink:title=" ">
<path fill="none" stroke="#63b8ff" d="M627.35,-681.95C605.24,-671.7 578.78,-659.43 559.27,-650.38"/>
<polygon fill="#63b8ff" stroke="#63b8ff" points="560.57,-647.12 550.03,-646.09 557.63,-653.47 560.57,-647.12"/>
</a>
</g>
</g>
<!-- Node52 -->
<g id="Node000052" class="node">
<title>Node52</title>
<g id="a_Node000052"><a xlink:href="use__catch_8h.html" target="_top" xlink:title=" ">
<polygon fill="white" stroke="#666666" points="863.5,-305 727.5,-305 727.5,-286 863.5,-286 863.5,-305"/>
<text text-anchor="middle" x="795.5" y="-293" font-family="Helvetica,sans-Serif" font-size="10.00">testing&#45;utils/use_catch.h</text>
</a>
</g>
</g>
<!-- Node1&#45;&gt;Node52 -->
<g id="edge56_Node000001_Node000052" class="edge">
<title>Node1&#45;&gt;Node52</title>
<g id="a_edge56_Node000001_Node000052"><a xlink:title=" ">
<path fill="none" stroke="#63b8ff" d="M669.5,-681.66C669.5,-657.09 669.5,-613.96 669.5,-577 669.5,-577 669.5,-577 669.5,-404.5 669.5,-356.23 723.46,-324.89 760.76,-308.99"/>
<polygon fill="#63b8ff" stroke="#63b8ff" points="762.37,-312.11 770.3,-305.09 759.72,-305.63 762.37,-312.11"/>
</a>
</g>
</g>
<!-- Node55 -->
<g id="Node000055" class="node">
<title>Node55</title>
<g id="a_Node000055"><a xlink:title=" ">
<polygon fill="#e0e0e0" stroke="#999999" points="751,-646 698,-646 698,-627 751,-627 751,-646"/>
<text text-anchor="middle" x="724.5" y="-634" font-family="Helvetica,sans-Serif" font-size="10.00">iterator</text>
</a>
</g>
</g>
<!-- Node1&#45;&gt;Node55 -->
<g id="edge61_Node000001_Node000055" class="edge">
<title>Node1&#45;&gt;Node55</title>
<g id="a_edge61_Node000001_Node000055"><a xlink:title=" ">
<path fill="none" stroke="#63b8ff" d="M686.3,-681.95C693.98,-673.02 702.97,-662.55 710.3,-654.02"/>
<polygon fill="#63b8ff" stroke="#63b8ff" points="713.11,-656.13 716.97,-646.26 707.8,-651.56 713.11,-656.13"/>
</a>
</g>
</g>
<!-- Node3 -->
<g id="Node000003" class="node">
<title>Node3</title>
<g id="a_Node000003"><a xlink:href="java__bytecode__parse__tree_8h.html" target="_top" xlink:title=" ">
<polygon fill="white" stroke="#666666" points="404,-591 271,-591 271,-561 404,-561 404,-591"/>
<text text-anchor="start" x="279" y="-579" font-family="Helvetica,sans-Serif" font-size="10.00">java_bytecode/java</text>
<text text-anchor="middle" x="337.5" y="-568" font-family="Helvetica,sans-Serif" font-size="10.00">_bytecode_parse_tree.h</text>
</a>
</g>
</g>
<!-- Node2&#45;&gt;Node3 -->
<g id="edge2_Node000002_Node000003" class="edge">
<title>Node2&#45;&gt;Node3</title>
<g id="a_edge2_Node000002_Node000003"><a xlink:title=" ">
<path fill="none" stroke="#63b8ff" d="M503.29,-626.99C474.76,-618.39 429.88,-604.86 394,-594.04"/>
<polygon fill="#63b8ff" stroke="#63b8ff" points="394.73,-590.6 384.14,-591.06 392.7,-597.3 394.73,-590.6"/>
</a>
</g>
</g>
<!-- Node4 -->
<g id="Node000004" class="node">
<title>Node4</title>
<g id="a_Node000004"><a xlink:href="std__types_8h.html" target="_top" xlink:title="Pre&#45;defined types.">
<polygon fill="white" stroke="#666666" points="500.5,-305 408.5,-305 408.5,-286 500.5,-286 500.5,-305"/>
<text text-anchor="middle" x="454.5" y="-293" font-family="Helvetica,sans-Serif" font-size="10.00">util/std_types.h</text>
</a>
</g>
</g>
<!-- Node3&#45;&gt;Node4 -->
<g id="edge3_Node000003_Node000004" class="edge">
<title>Node3&#45;&gt;Node4</title>
<g id="a_edge3_Node000003_Node000004"><a xlink:title=" ">
<path fill="none" stroke="#63b8ff" d="M396.38,-560.86C444.46,-545.4 504.5,-515.31 504.5,-461.5 504.5,-461.5 504.5,-461.5 504.5,-404.5 504.5,-369.56 482.68,-333.66 467.87,-313.31"/>
<polygon fill="#63b8ff" stroke="#63b8ff" points="470.49,-310.97 461.66,-305.11 464.91,-315.2 470.49,-310.97"/>
</a>
</g>
</g>
<!-- Node43 -->
<g id="Node000043" class="node">
<title>Node43</title>
<g id="a_Node000043"><a xlink:href="bytecode__info_8h.html" target="_top" xlink:title=" ">
<polygon fill="white" stroke="#666666" points="95,-525 0,-525 0,-506 95,-506 95,-525"/>
<text text-anchor="middle" x="47.5" y="-513" font-family="Helvetica,sans-Serif" font-size="10.00">bytecode_info.h</text>
</a>
</g>
</g>
<!-- Node3&#45;&gt;Node43 -->
<g id="edge34_Node000003_Node000043" class="edge">
<title>Node3&#45;&gt;Node43</title>
<g id="a_edge34_Node000003_Node000043"><a xlink:title=" ">
<path fill="none" stroke="#63b8ff" d="M270.97,-561.58C218.98,-551.09 147.74,-536.72 99.79,-527.05"/>
<polygon fill="#63b8ff" stroke="#63b8ff" points="100.42,-523.6 89.92,-525.06 99.03,-530.47 100.42,-523.6"/>
</a>
</g>
</g>
<!-- Node45 -->
<g id="Node000045" class="node">
<title>Node45</title>
<g id="a_Node000045"><a xlink:href="java__types_8h.html" target="_top" xlink:title=" ">
<polygon fill="white" stroke="#666666" points="303,-525 224,-525 224,-506 303,-506 303,-525"/>
<text text-anchor="middle" x="263.5" y="-513" font-family="Helvetica,sans-Serif" font-size="10.00">java_types.h</text>
</a>
</g>
</g>
<!-- Node3&#45;&gt;Node45 -->
<g id="edge36_Node000003_Node000045" class="edge">
<title>Node3&#45;&gt;Node45</title>
<g id="a_edge36_Node000003_Node000045"><a xlink:title=" ">
<path fill="none" stroke="#63b8ff" d="M319.59,-560.84C308.41,-552 294.02,-540.63 282.62,-531.62"/>
<polygon fill="#63b8ff" stroke="#63b8ff" points="284.6,-528.72 274.59,-525.27 280.26,-534.21 284.6,-528.72"/>
</a>
</g>
</g>
<!-- Node46 -->
<g id="Node000046" class="node">
<title>Node46</title>
<g id="a_Node000046"><a xlink:title=" ">
<polygon fill="#e0e0e0" stroke="#999999" points="109.5,-470 77.5,-470 77.5,-451 109.5,-451 109.5,-470"/>
<text text-anchor="middle" x="93.5" y="-458" font-family="Helvetica,sans-Serif" font-size="10.00">set</text>
</a>
</g>
</g>
<!-- Node3&#45;&gt;Node46 -->
<g id="edge55_Node000003_Node000046" class="edge">
<title>Node3&#45;&gt;Node46</title>
<g id="a_edge55_Node000003_Node000046"><a xlink:title=" ">
<path fill="none" stroke="#63b8ff" d="M300.23,-560.94C275.63,-551.39 242.83,-538.15 214.5,-525 180.12,-509.04 141.52,-488.26 117.36,-474.9"/>
<polygon fill="#63b8ff" stroke="#63b8ff" points="118.98,-471.8 108.54,-470 115.58,-477.92 118.98,-471.8"/>
</a>
</g>
</g>
<!-- Node23 -->
<g id="Node000023" class="node">
<title>Node23</title>
<g id="a_Node000023"><a xlink:title=" ">
<polygon fill="#e0e0e0" stroke="#999999" points="353.5,-525 321.5,-525 321.5,-506 353.5,-506 353.5,-525"/>
<text text-anchor="middle" x="337.5" y="-513" font-family="Helvetica,sans-Serif" font-size="10.00">list</text>
</a>
</g>
</g>
<!-- Node3&#45;&gt;Node23 -->
<g id="edge53_Node000003_Node000023" class="edge">
<title>Node3&#45;&gt;Node23</title>
<g id="a_edge53_Node000003_Node000023"><a xlink:title=" ">
<path fill="none" stroke="#63b8ff" d="M337.5,-560.84C337.5,-553.21 337.5,-543.7 337.5,-535.45"/>
<polygon fill="#63b8ff" stroke="#63b8ff" points="341,-535.27 337.5,-525.27 334,-535.27 341,-535.27"/>
</a>
</g>
</g>
<!-- Node51 -->
<g id="Node000051" class="node">
<title>Node51</title>
<g id="a_Node000051"><a xlink:title=" ">
<polygon fill="#e0e0e0" stroke="#999999" points="409.5,-525 371.5,-525 371.5,-506 409.5,-506 409.5,-525"/>
<text text-anchor="middle" x="390.5" y="-513" font-family="Helvetica,sans-Serif" font-size="10.00">map</text>
</a>
</g>
</g>
<!-- Node3&#45;&gt;Node51 -->
<g id="edge54_Node000003_Node000051" class="edge">
<title>Node3&#45;&gt;Node51</title>
<g id="a_edge54_Node000003_Node000051"><a xlink:title=" ">
<path fill="none" stroke="#63b8ff" d="M350.33,-560.84C358.02,-552.35 367.83,-541.52 375.83,-532.69"/>
<polygon fill="#63b8ff" stroke="#63b8ff" points="378.44,-535.03 382.56,-525.27 373.25,-530.33 378.44,-535.03"/>
</a>
</g>
</g>
<!-- Node5 -->
<g id="Node000005" class="node">
<title>Node5</title>
<g id="a_Node000005"><a xlink:href="expr_8h.html" target="_top" xlink:title=" ">
<polygon fill="white" stroke="#666666" points="630,-184 583,-184 583,-165 630,-165 630,-184"/>
<text text-anchor="middle" x="606.5" y="-172" font-family="Helvetica,sans-Serif" font-size="10.00">expr.h</text>
</a>
</g>
</g>
<!-- Node4&#45;&gt;Node5 -->
<g id="edge4_Node000004_Node000005" class="edge">
<title>Node4&#45;&gt;Node5</title>
<g id="a_edge4_Node000004_Node000005"><a xlink:title=" ">
<path fill="none" stroke="#63b8ff" d="M500.81,-289.36C528.58,-283.94 562.63,-272.82 584.5,-250 598.9,-234.97 603.94,-210.97 605.66,-194.29"/>
<polygon fill="#63b8ff" stroke="#63b8ff" points="609.17,-194.34 606.4,-184.11 602.19,-193.83 609.17,-194.34"/>
</a>
</g>
</g>
<!-- Node33 -->
<g id="Node000033" class="node">
<title>Node33</title>
<g id="a_Node000033"><a xlink:href="validate_8h.html" target="_top" xlink:title=" ">
<polygon fill="#fff0f0" stroke="red" points="464,-74 399,-74 399,-55 464,-55 464,-74"/>
<text text-anchor="middle" x="431.5" y="-62" font-family="Helvetica,sans-Serif" font-size="10.00">validate.h</text>
</a>
</g>
</g>
<!-- Node4&#45;&gt;Node33 -->
<g id="edge32_Node000004_Node000033" class="edge">
<title>Node4&#45;&gt;Node33</title>
<g id="a_edge32_Node000004_Node000033"><a xlink:title=" ">
<path fill="none" stroke="#63b8ff" d="M454.09,-285.84C452.78,-264.3 447.41,-207.01 426.5,-165 417.09,-146.1 402.85,-148.79 395.5,-129 389.07,-111.68 401.63,-93.5 413.64,-81.05"/>
<polygon fill="#63b8ff" stroke="#63b8ff" points="416.09,-83.55 420.88,-74.1 411.24,-78.51 416.09,-83.55"/>
</a>
</g>
</g>
<!-- Node39 -->
<g id="Node000039" class="node">
<title>Node39</title>
<g id="a_Node000039"><a xlink:href="expr__cast_8h.html" target="_top" xlink:title="Templated functions to cast to specific exprt&#45;derived classes.">
<polygon fill="white" stroke="#666666" points="426,-244.5 353,-244.5 353,-225.5 426,-225.5 426,-244.5"/>
<text text-anchor="middle" x="389.5" y="-232.5" font-family="Helvetica,sans-Serif" font-size="10.00">expr_cast.h</text>
</a>
</g>
</g>
<!-- Node4&#45;&gt;Node39 -->
<g id="edge19_Node000004_Node000039" class="edge">
<title>Node4&#45;&gt;Node39</title>
<g id="a_edge19_Node000004_Node000039"><a xlink:title=" ">
<path fill="none" stroke="#63b8ff" d="M444.91,-285.87C434.92,-276.88 419.07,-262.61 406.87,-251.64"/>
<polygon fill="#63b8ff" stroke="#63b8ff" points="408.9,-248.76 399.13,-244.67 404.22,-253.96 408.9,-248.76"/>
</a>
</g>
</g>
<!-- Node13 -->
<g id="Node000013" class="node">
<title>Node13</title>
<g id="a_Node000013"><a xlink:href="src_2util_2invariant_8h.html" target="_top" xlink:title=" ">
<polygon fill="#fff0f0" stroke="red" points="304,-184 235,-184 235,-165 304,-165 304,-184"/>
<text text-anchor="middle" x="269.5" y="-172" font-family="Helvetica,sans-Serif" font-size="10.00">invariant.h</text>
</a>
</g>
</g>
<!-- Node4&#45;&gt;Node13 -->
<g id="edge27_Node000004_Node000013" class="edge">
<title>Node4&#45;&gt;Node13</title>
<g id="a_edge27_Node000004_Node000013"><a xlink:title=" ">
<path fill="none" stroke="#63b8ff" d="M423.66,-285.88C400.43,-278.53 368.43,-266.51 343.5,-250 319.17,-233.88 296.33,-208.79 282.63,-192.25"/>
<polygon fill="#63b8ff" stroke="#63b8ff" points="285.35,-190.05 276.34,-184.47 279.91,-194.45 285.35,-190.05"/>
</a>
</g>
</g>
<!-- Node41 -->
<g id="Node000041" class="node">
<title>Node41</title>
<g id="a_Node000041"><a xlink:href="mp__arith_8h.html" target="_top" xlink:title=" ">
<polygon fill="white" stroke="#666666" points="731,-244.5 662,-244.5 662,-225.5 731,-225.5 731,-244.5"/>
<text text-anchor="middle" x="696.5" y="-232.5" font-family="Helvetica,sans-Serif" font-size="10.00">mp_arith.h</text>
</a>
</g>
</g>
<!-- Node4&#45;&gt;Node41 -->
<g id="edge28_Node000004_Node000041" class="edge">
<title>Node4&#45;&gt;Node41</title>
<g id="a_edge28_Node000004_Node000041"><a xlink:title=" ">
<path fill="none" stroke="#63b8ff" d="M489.69,-285.99C532.56,-275.63 605.03,-258.11 651.8,-246.81"/>
<polygon fill="#63b8ff" stroke="#63b8ff" points="652.76,-250.17 661.66,-244.42 651.12,-243.37 652.76,-250.17"/>
</a>
</g>
</g>
<!-- Node24 -->
<g id="Node000024" class="node">
<title>Node24</title>
<g id="a_Node000024"><a xlink:title=" ">
<polygon fill="#e0e0e0" stroke="#999999" points="576,-244.5 483,-244.5 483,-225.5 576,-225.5 576,-244.5"/>
<text text-anchor="middle" x="529.5" y="-232.5" font-family="Helvetica,sans-Serif" font-size="10.00">unordered_map</text>
</a>
</g>
</g>
<!-- Node4&#45;&gt;Node24 -->
<g id="edge33_Node000004_Node000024" class="edge">
<title>Node4&#45;&gt;Node24</title>
<g id="a_edge33_Node000004_Node000024"><a xlink:title=" ">
<path fill="none" stroke="#63b8ff" d="M465.57,-285.87C477.31,-276.71 496.09,-262.06 510.26,-251.01"/>
<polygon fill="#63b8ff" stroke="#63b8ff" points="512.66,-253.58 518.39,-244.67 508.35,-248.06 512.66,-253.58"/>
</a>
</g>
</g>
<!-- Node6 -->
<g id="Node000006" class="node">
<title>Node6</title>
<g id="a_Node000006"><a xlink:href="as__const_8h.html" target="_top" xlink:title=" ">
<polygon fill="white" stroke="#666666" points="703.5,-129 635.5,-129 635.5,-110 703.5,-110 703.5,-129"/>
<text text-anchor="middle" x="669.5" y="-117" font-family="Helvetica,sans-Serif" font-size="10.00">as_const.h</text>
</a>
</g>
</g>
<!-- Node5&#45;&gt;Node6 -->
<g id="edge5_Node000005_Node000006" class="edge">
<title>Node5&#45;&gt;Node6</title>
<g id="a_edge5_Node000005_Node000006"><a xlink:title=" ">
<path fill="none" stroke="#63b8ff" d="M616.62,-164.98C625.94,-157.15 639.97,-145.34 651.24,-135.86"/>
<polygon fill="#63b8ff" stroke="#63b8ff" points="653.79,-138.29 659.19,-129.17 649.29,-132.93 653.79,-138.29"/>
</a>
</g>
</g>
<!-- Node7 -->
<g id="Node000007" class="node">
<title>Node7</title>
<g id="a_Node000007"><a xlink:href="type_8h.html" target="_top" xlink:title="Defines typet, type_with_subtypet and type_with_subtypest.">
<polygon fill="white" stroke="#666666" points="807,-129 760,-129 760,-110 807,-110 807,-129"/>
<text text-anchor="middle" x="783.5" y="-117" font-family="Helvetica,sans-Serif" font-size="10.00">type.h</text>
</a>
</g>
</g>
<!-- Node5&#45;&gt;Node7 -->
<g id="edge6_Node000005_Node000007" class="edge">
<title>Node5&#45;&gt;Node7</title>
<g id="a_edge6_Node000005_Node000007"><a xlink:title=" ">
<path fill="none" stroke="#63b8ff" d="M630,-166.46C660.82,-157.24 715.05,-140.99 750.12,-130.5"/>
<polygon fill="#63b8ff" stroke="#63b8ff" points="751.32,-133.79 759.9,-127.57 749.31,-127.08 751.32,-133.79"/>
</a>
</g>
</g>
<!-- Node35 -->
<g id="Node000035" class="node">
<title>Node35</title>
<g id="a_Node000035"><a xlink:href="validation__mode_8h.html" target="_top" xlink:title=" ">
<polygon fill="white" stroke="#666666" points="577,-19 470,-19 470,0 577,0 577,-19"/>
<text text-anchor="middle" x="523.5" y="-7" font-family="Helvetica,sans-Serif" font-size="10.00">validation_mode.h</text>
</a>
</g>
</g>
<!-- Node5&#45;&gt;Node35 -->
<g id="edge17_Node000005_Node000035" class="edge">
<title>Node5&#45;&gt;Node35</title>
<g id="a_edge17_Node000005_Node000035"><a xlink:title=" ">
<path fill="none" stroke="#63b8ff" d="M630.18,-166.89C658.41,-158.47 703,-143.29 712.5,-129 717.17,-121.97 717.82,-116.56 712.5,-110 663.87,-50 599.3,-126.32 542.5,-74 530.21,-62.68 525.75,-43.78 524.19,-29.53"/>
<polygon fill="#63b8ff" stroke="#63b8ff" points="527.67,-29.07 523.47,-19.34 520.68,-29.56 527.67,-29.07"/>
</a>
</g>
</g>
<!-- Node36 -->
<g id="Node000036" class="node">
<title>Node36</title>
<g id="a_Node000036"><a xlink:href="validate__types_8h.html" target="_top" xlink:title=" ">
<polygon fill="white" stroke="#666666" points="845.5,-74 747.5,-74 747.5,-55 845.5,-55 845.5,-74"/>
<text text-anchor="middle" x="796.5" y="-62" font-family="Helvetica,sans-Serif" font-size="10.00">validate_types.h</text>
</a>
</g>
</g>
<!-- Node5&#45;&gt;Node36 -->
<g id="edge16_Node000005_Node000036" class="edge">
<title>Node5&#45;&gt;Node36</title>
<g id="a_edge16_Node000005_Node000036"><a xlink:title=" ">
<path fill="none" stroke="#63b8ff" d="M630.25,-167.42C633.68,-166.59 637.18,-165.75 640.5,-165 718.36,-147.31 766.02,-190.86 816.5,-129 827.41,-115.63 818.79,-96.26 809.71,-82.43"/>
<polygon fill="#63b8ff" stroke="#63b8ff" points="812.54,-80.37 803.88,-74.26 806.85,-84.44 812.54,-80.37"/>
</a>
</g>
</g>
<!-- Node37 -->
<g id="Node000037" class="node">
<title>Node37</title>
<g id="a_Node000037"><a xlink:href="validate__expressions_8h.html" target="_top" xlink:title=" ">
<polygon fill="white" stroke="#666666" points="617,-129 488,-129 488,-110 617,-110 617,-129"/>
<text text-anchor="middle" x="552.5" y="-117" font-family="Helvetica,sans-Serif" font-size="10.00">validate_expressions.h</text>
</a>
</g>
</g>
<!-- Node5&#45;&gt;Node37 -->
<g id="edge15_Node000005_Node000037" class="edge">
<title>Node5&#45;&gt;Node37</title>
<g id="a_edge15_Node000005_Node000037"><a xlink:title=" ">
<path fill="none" stroke="#63b8ff" d="M597.58,-164.75C589.72,-157.03 578.07,-145.6 568.58,-136.28"/>
<polygon fill="#63b8ff" stroke="#63b8ff" points="570.84,-133.6 561.25,-129.09 565.94,-138.59 570.84,-133.6"/>
</a>
</g>
</g>
<!-- Node38 -->
<g id="Node000038" class="node">
<title>Node38</title>
<g id="a_Node000038"><a xlink:title=" ">
<polygon fill="#e0e0e0" stroke="#999999" points="470,-129 405,-129 405,-110 470,-110 470,-129"/>
<text text-anchor="middle" x="437.5" y="-117" font-family="Helvetica,sans-Serif" font-size="10.00">functional</text>
</a>
</g>
</g>
<!-- Node5&#45;&gt;Node38 -->
<g id="edge18_Node000005_Node000038" class="edge">
<title>Node5&#45;&gt;Node38</title>
<g id="a_edge18_Node000005_Node000038"><a xlink:title=" ">
<path fill="none" stroke="#63b8ff" d="M582.64,-166.02C554.53,-157.2 507.47,-142.44 474.59,-132.13"/>
<polygon fill="#63b8ff" stroke="#63b8ff" points="475.46,-128.74 464.87,-129.08 473.37,-135.42 475.46,-128.74"/>
</a>
</g>
</g>
<!-- Node8 -->
<g id="Node000008" class="node">
<title>Node8</title>
<g id="a_Node000008"><a xlink:href="source__location_8h.html" target="_top" xlink:title=" ">
<polygon fill="#fff0f0" stroke="red" points="653.5,-74 551.5,-74 551.5,-55 653.5,-55 653.5,-74"/>
<text text-anchor="middle" x="602.5" y="-62" font-family="Helvetica,sans-Serif" font-size="10.00">source_location.h</text>
</a>
</g>
</g>
<!-- Node7&#45;&gt;Node8 -->
<g id="edge7_Node000007_Node000008" class="edge">
<title>Node7&#45;&gt;Node8</title>
<g id="a_edge7_Node000007_Node000008"><a xlink:title=" ">
<path fill="none" stroke="#63b8ff" d="M759.84,-111.57C729.71,-102.75 677.24,-87.39 641.24,-76.84"/>
<polygon fill="#63b8ff" stroke="#63b8ff" points="642.14,-73.46 631.56,-74.01 640.17,-80.18 642.14,-73.46"/>
</a>
</g>
</g>
<!-- Node7&#45;&gt;Node33 -->
<g id="edge10_Node000007_Node000033" class="edge">
<title>Node7&#45;&gt;Node33</title>
<g id="a_edge10_Node000007_Node000033"><a xlink:title=" ">
<path fill="none" stroke="#63b8ff" d="M759.86,-114.94C701.34,-106.13 549.07,-83.2 474.25,-71.94"/>
<polygon fill="#63b8ff" stroke="#63b8ff" points="474.64,-68.46 464.23,-70.43 473.59,-75.38 474.64,-68.46"/>
</a>
</g>
</g>
<!-- Node7&#45;&gt;Node35 -->
<g id="edge14_Node000007_Node000035" class="edge">
<title>Node7&#45;&gt;Node35</title>
<g id="a_edge14_Node000007_Node000035"><a xlink:title=" ">
<path fill="none" stroke="#63b8ff" d="M769,-109.83C746.68,-96.74 702.33,-71.68 662.5,-55 630.65,-41.66 593.33,-29.92 565.38,-21.85"/>
<polygon fill="#63b8ff" stroke="#63b8ff" points="566.11,-18.41 555.53,-19.04 564.19,-25.15 566.11,-18.41"/>
</a>
</g>
</g>
<!-- Node7&#45;&gt;Node36 -->
<g id="edge13_Node000007_Node000036" class="edge">
<title>Node7&#45;&gt;Node36</title>
<g id="a_edge13_Node000007_Node000036"><a xlink:title=" ">
<path fill="none" stroke="#63b8ff" d="M785.65,-109.75C787.37,-102.72 789.85,-92.62 792,-83.84"/>
<polygon fill="#63b8ff" stroke="#63b8ff" points="795.41,-84.63 794.39,-74.09 788.61,-82.97 795.41,-84.63"/>
</a>
</g>
</g>
<!-- Node9 -->
<g id="Node000009" class="node">
<title>Node9</title>
<g id="a_Node000009"><a xlink:href="deprecate_8h.html" target="_top" xlink:title=" ">
<polygon fill="white" stroke="#666666" points="439.5,-19 365.5,-19 365.5,0 439.5,0 439.5,-19"/>
<text text-anchor="middle" x="402.5" y="-7" font-family="Helvetica,sans-Serif" font-size="10.00">deprecate.h</text>
</a>
</g>
</g>
<!-- Node8&#45;&gt;Node9 -->
<g id="edge8_Node000008_Node000009" class="edge">
<title>Node8&#45;&gt;Node9</title>
<g id="a_edge8_Node000008_Node000009"><a xlink:title=" ">
<path fill="none" stroke="#63b8ff" d="M570.37,-54.98C536.35,-45.97 482.5,-31.7 445,-21.76"/>
<polygon fill="#63b8ff" stroke="#63b8ff" points="445.45,-18.26 434.89,-19.08 443.66,-25.03 445.45,-18.26"/>
</a>
</g>
</g>
<!-- Node11 -->
<g id="Node000011" class="node">
<title>Node11</title>
<g id="a_Node000011"><a xlink:title=" ">
<polygon fill="#e0e0e0" stroke="#999999" points="818.5,-19 774.5,-19 774.5,0 818.5,0 818.5,-19"/>
<text text-anchor="middle" x="796.5" y="-7" font-family="Helvetica,sans-Serif" font-size="10.00">string</text>
</a>
</g>
</g>
<!-- Node8&#45;&gt;Node11 -->
<g id="edge9_Node000008_Node000011" class="edge">
<title>Node8&#45;&gt;Node11</title>
<g id="a_edge9_Node000008_Node000011"><a xlink:title=" ">
<path fill="none" stroke="#63b8ff" d="M633.67,-54.98C669.54,-45.18 728.16,-29.17 764.42,-19.26"/>
<polygon fill="#63b8ff" stroke="#63b8ff" points="765.73,-22.53 774.46,-16.52 763.89,-15.78 765.73,-22.53"/>
</a>
</g>
</g>
<!-- Node16 -->
<g id="Node000016" class="node">
<title>Node16</title>
<g id="a_Node000016"><a xlink:title=" ">
<polygon fill="#e0e0e0" stroke="#999999" points="316,-19 247,-19 247,0 316,0 316,-19"/>
<text text-anchor="middle" x="281.5" y="-7" font-family="Helvetica,sans-Serif" font-size="10.00">type_traits</text>
</a>
</g>
</g>
<!-- Node33&#45;&gt;Node16 -->
<g id="edge11_Node000033_Node000016" class="edge">
<title>Node33&#45;&gt;Node16</title>
<g id="a_edge11_Node000033_Node000016"><a xlink:title=" ">
<path fill="none" stroke="#63b8ff" d="M407.4,-54.98C382.62,-46.23 343.8,-32.51 315.81,-22.62"/>
<polygon fill="#63b8ff" stroke="#63b8ff" points="316.63,-19.2 306.04,-19.17 314.3,-25.8 316.63,-19.2"/>
</a>
</g>
</g>
<!-- Node33&#45;&gt;Node35 -->
<g id="edge12_Node000033_Node000035" class="edge">
<title>Node33&#45;&gt;Node35</title>
<g id="a_edge12_Node000033_Node000035"><a xlink:title=" ">
<path fill="none" stroke="#63b8ff" d="M446.28,-54.98C460.68,-46.69 482.81,-33.94 499.69,-24.22"/>
<polygon fill="#63b8ff" stroke="#63b8ff" points="501.53,-27.19 508.45,-19.17 498.04,-21.13 501.53,-27.19"/>
</a>
</g>
</g>
<!-- Node39&#45;&gt;Node5 -->
<g id="edge26_Node000039_Node000005" class="edge">
<title>Node39&#45;&gt;Node5</title>
<g id="a_edge26_Node000039_Node000005"><a xlink:title=" ">
<path fill="none" stroke="#63b8ff" d="M421.05,-225.49C461.58,-214.57 531.62,-195.69 573.05,-184.52"/>
<polygon fill="#63b8ff" stroke="#63b8ff" points="574.18,-187.84 582.93,-181.85 572.36,-181.08 574.18,-187.84"/>
</a>
</g>
</g>
<!-- Node39&#45;&gt;Node16 -->
<g id="edge21_Node000039_Node000016" class="edge">
<title>Node39&#45;&gt;Node16</title>
<g id="a_edge21_Node000039_Node000016"><a xlink:title=" ">
<path fill="none" stroke="#63b8ff" d="M381.73,-225.29C373.44,-215.69 360.33,-199.55 351.5,-184 321.22,-130.7 297.54,-61.68 287.18,-29.1"/>
<polygon fill="#63b8ff" stroke="#63b8ff" points="290.41,-27.68 284.09,-19.17 283.73,-29.76 290.41,-27.68"/>
</a>
</g>
</g>
<!-- Node39&#45;&gt;Node38 -->
<g id="edge22_Node000039_Node000038" class="edge">
<title>Node39&#45;&gt;Node38</title>
<g id="a_edge22_Node000039_Node000038"><a xlink:title=" ">
<path fill="none" stroke="#63b8ff" d="M398.02,-225.23C406.63,-215.83 419.62,-200.08 426.5,-184 432.63,-169.68 435.34,-152.15 436.55,-139.15"/>
<polygon fill="#63b8ff" stroke="#63b8ff" points="440.04,-139.29 437.26,-129.07 433.06,-138.8 440.04,-139.29"/>
</a>
</g>
</g>
<!-- Node40 -->
<g id="Node000040" class="node">
<title>Node40</title>
<g id="a_Node000040"><a xlink:title=" ">
<polygon fill="#e0e0e0" stroke="#999999" points="418,-184 361,-184 361,-165 418,-165 418,-184"/>
<text text-anchor="middle" x="389.5" y="-172" font-family="Helvetica,sans-Serif" font-size="10.00">typeinfo</text>
</a>
</g>
</g>
<!-- Node39&#45;&gt;Node40 -->
<g id="edge20_Node000039_Node000040" class="edge">
<title>Node39&#45;&gt;Node40</title>
<g id="a_edge20_Node000039_Node000040"><a xlink:title=" ">
<path fill="none" stroke="#63b8ff" d="M389.5,-225.37C389.5,-217.25 389.5,-204.81 389.5,-194.39"/>
<polygon fill="#63b8ff" stroke="#63b8ff" points="393,-194.17 389.5,-184.17 386,-194.17 393,-194.17"/>
</a>
</g>
</g>
<!-- Node39&#45;&gt;Node13 -->
<g id="edge23_Node000039_Node000013" class="edge">
<title>Node39&#45;&gt;Node13</title>
<g id="a_edge23_Node000039_Node000013"><a xlink:title=" ">
<path fill="none" stroke="#63b8ff" d="M372.05,-225.49C352.14,-215.79 319.36,-199.81 296.23,-188.53"/>
<polygon fill="#63b8ff" stroke="#63b8ff" points="297.49,-185.25 286.97,-184.02 294.43,-191.54 297.49,-185.25"/>
</a>
</g>
</g>
<!-- Node13&#45;&gt;Node11 -->
<g id="edge24_Node000013_Node000011" class="edge">
<title>Node13&#45;&gt;Node11</title>
<g id="a_edge24_Node000013_Node000011"><a xlink:title=" ">
<path fill="none" stroke="#63b8ff" d="M282.85,-164.88C305.18,-150.89 351.98,-123.48 395.5,-110 509.88,-74.57 547.7,-108.04 662.5,-74 703.39,-61.88 747.47,-38.85 773.49,-24.11"/>
<polygon fill="#63b8ff" stroke="#63b8ff" points="775.3,-27.11 782.22,-19.09 771.81,-21.04 775.3,-27.11"/>
</a>
</g>
</g>
<!-- Node13&#45;&gt;Node16 -->
<g id="edge25_Node000013_Node000016" class="edge">
<title>Node13&#45;&gt;Node16</title>
<g id="a_edge25_Node000013_Node000016"><a xlink:title=" ">
<path fill="none" stroke="#63b8ff" d="M270.15,-164.74C272.02,-139.31 277.48,-65.08 280.09,-29.69"/>
<polygon fill="#63b8ff" stroke="#63b8ff" points="283.61,-29.54 280.85,-19.31 276.63,-29.02 283.61,-29.54"/>
</a>
</g>
</g>
<!-- Node41&#45;&gt;Node11 -->
<g id="edge30_Node000041_Node000011" class="edge">
<title>Node41&#45;&gt;Node11</title>
<g id="a_edge30_Node000041_Node000011"><a xlink:title=" ">
<path fill="none" stroke="#63b8ff" d="M712.59,-225.43C740.59,-209.78 798.52,-173.99 832.5,-129 853.18,-101.62 869.68,-85.77 854.5,-55 848.01,-41.85 835.57,-31.5 823.86,-24.11"/>
<polygon fill="#63b8ff" stroke="#63b8ff" points="825.57,-21.05 815.17,-19.03 822.04,-27.1 825.57,-21.05"/>
</a>
</g>
</g>
<!-- Node19 -->
<g id="Node000019" class="node">
<title>Node19</title>
<g id="a_Node000019"><a xlink:title=" ">
<polygon fill="#e0e0e0" stroke="#999999" points="949.5,-184 901.5,-184 901.5,-165 949.5,-165 949.5,-184"/>
<text text-anchor="middle" x="925.5" y="-172" font-family="Helvetica,sans-Serif" font-size="10.00">iosfwd</text>
</a>
</g>
</g>
<!-- Node41&#45;&gt;Node19 -->
<g id="edge29_Node000041_Node000019" class="edge">
<title>Node41&#45;&gt;Node19</title>
<g id="a_edge29_Node000041_Node000019"><a xlink:title=" ">
<path fill="none" stroke="#63b8ff" d="M722.47,-225.4C728.37,-223.54 734.63,-221.64 740.5,-220 768.62,-212.16 846.08,-193.93 891.36,-183.4"/>
<polygon fill="#63b8ff" stroke="#63b8ff" points="892.37,-186.76 901.32,-181.09 890.78,-179.94 892.37,-186.76"/>
</a>
</g>
</g>
<!-- Node42 -->
<g id="Node000042" class="node">
<title>Node42</title>
<g id="a_Node000042"><a xlink:title=" ">
<polygon fill="#e0e0e0" stroke="#999999" points="743.5,-184 649.5,-184 649.5,-165 743.5,-165 743.5,-184"/>
<text text-anchor="middle" x="696.5" y="-172" font-family="Helvetica,sans-Serif" font-size="10.00">big&#45;int/bigint.hh</text>
</a>
</g>
</g>
<!-- Node41&#45;&gt;Node42 -->
<g id="edge31_Node000041_Node000042" class="edge">
<title>Node41&#45;&gt;Node42</title>
<g id="a_edge31_Node000041_Node000042"><a xlink:title=" ">
<path fill="none" stroke="#63b8ff" d="M696.5,-225.37C696.5,-217.25 696.5,-204.81 696.5,-194.39"/>
<polygon fill="#63b8ff" stroke="#63b8ff" points="700,-194.17 696.5,-184.17 693,-194.17 700,-194.17"/>
</a>
</g>
</g>
<!-- Node44 -->
<g id="Node000044" class="node">
<title>Node44</title>
<g id="a_Node000044"><a xlink:title=" ">
<polygon fill="#e0e0e0" stroke="#999999" points="59.5,-470 9.5,-470 9.5,-451 59.5,-451 59.5,-470"/>
<text text-anchor="middle" x="34.5" y="-458" font-family="Helvetica,sans-Serif" font-size="10.00">cstdint</text>
</a>
</g>
</g>
<!-- Node43&#45;&gt;Node44 -->
<g id="edge35_Node000043_Node000044" class="edge">
<title>Node43&#45;&gt;Node44</title>
<g id="a_edge35_Node000043_Node000044"><a xlink:title=" ">
<path fill="none" stroke="#63b8ff" d="M45.35,-505.75C43.63,-498.72 41.15,-488.62 39,-479.84"/>
<polygon fill="#63b8ff" stroke="#63b8ff" points="42.39,-478.97 36.61,-470.09 35.59,-480.63 42.39,-478.97"/>
</a>
</g>
</g>
<!-- Node45&#45;&gt;Node13 -->
<g id="edge37_Node000045_Node000013" class="edge">
<title>Node45&#45;&gt;Node13</title>
<g id="a_edge37_Node000045_Node000013"><a xlink:title=" ">
<path fill="none" stroke="#63b8ff" d="M263.65,-505.78C264.45,-461.1 268.05,-257.45 269.17,-194.26"/>
<polygon fill="#63b8ff" stroke="#63b8ff" points="272.67,-194.22 269.35,-184.16 265.67,-194.1 272.67,-194.22"/>
</a>
</g>
</g>
<!-- Node29 -->
<g id="Node000029" class="node">
<title>Node29</title>
<g id="a_Node000029"><a xlink:title=" ">
<polygon fill="#e0e0e0" stroke="#999999" points="367.5,-470 303.5,-470 303.5,-451 367.5,-451 367.5,-470"/>
<text text-anchor="middle" x="335.5" y="-458" font-family="Helvetica,sans-Serif" font-size="10.00">algorithm</text>
</a>
</g>
</g>
<!-- Node45&#45;&gt;Node29 -->
<g id="edge38_Node000045_Node000029" class="edge">
<title>Node45&#45;&gt;Node29</title>
<g id="a_edge38_Node000045_Node000029"><a xlink:title=" ">
<path fill="none" stroke="#63b8ff" d="M275.07,-505.98C285.92,-498 302.38,-485.88 315.38,-476.31"/>
<polygon fill="#63b8ff" stroke="#63b8ff" points="317.74,-478.92 323.72,-470.17 313.59,-473.28 317.74,-478.92"/>
</a>
</g>
</g>
<!-- Node45&#45;&gt;Node46 -->
<g id="edge39_Node000045_Node000046" class="edge">
<title>Node45&#45;&gt;Node46</title>
<g id="a_edge39_Node000045_Node000046"><a xlink:title=" ">
<path fill="none" stroke="#63b8ff" d="M236.19,-505.98C204.14,-495.99 151.39,-479.55 119.79,-469.7"/>
<polygon fill="#63b8ff" stroke="#63b8ff" points="120.54,-466.26 109.95,-466.63 118.45,-472.95 120.54,-466.26"/>
</a>
</g>
</g>
<!-- Node47 -->
<g id="Node000047" class="node">
<title>Node47</title>
<g id="a_Node000047"><a xlink:href="c__types_8h.html" target="_top" xlink:title=" ">
<polygon fill="white" stroke="#666666" points="247.5,-470 165.5,-470 165.5,-451 247.5,-451 247.5,-470"/>
<text text-anchor="middle" x="206.5" y="-458" font-family="Helvetica,sans-Serif" font-size="10.00">util/c_types.h</text>
</a>
</g>
</g>
<!-- Node45&#45;&gt;Node47 -->
<g id="edge40_Node000045_Node000047" class="edge">
<title>Node45&#45;&gt;Node47</title>
<g id="a_edge40_Node000045_Node000047"><a xlink:title=" ">
<path fill="none" stroke="#63b8ff" d="M254.34,-505.98C246,-498.23 233.47,-486.58 223.32,-477.14"/>
<polygon fill="#63b8ff" stroke="#63b8ff" points="225.53,-474.42 215.82,-470.17 220.76,-479.54 225.53,-474.42"/>
</a>
</g>
</g>
<!-- Node50 -->
<g id="Node000050" class="node">
<title>Node50</title>
<g id="a_Node000050"><a xlink:href="std__expr_8h.html" target="_top" xlink:title="API to expression classes.">
<polygon fill="white" stroke="#666666" points="357,-360 290,-360 290,-341 357,-341 357,-360"/>
<text text-anchor="middle" x="323.5" y="-348" font-family="Helvetica,sans-Serif" font-size="10.00">std_expr.h</text>
</a>
</g>
</g>
<!-- Node45&#45;&gt;Node50 -->
<g id="edge52_Node000045_Node000050" class="edge">
<title>Node45&#45;&gt;Node50</title>
<g id="a_edge52_Node000045_Node000050"><a xlink:title=" ">
<path fill="none" stroke="#63b8ff" d="M296.38,-505.98C326.28,-497.49 367.12,-483.77 376.5,-470 382.8,-460.74 392.26,-431.55 375.5,-396 369.64,-383.57 358.47,-373.29 347.97,-365.76"/>
<polygon fill="#63b8ff" stroke="#63b8ff" points="349.72,-362.71 339.45,-360.08 345.84,-368.54 349.72,-362.71"/>
</a>
</g>
</g>
<!-- Node31 -->
<g id="Node000031" class="node">
<title>Node31</title>
<g id="a_Node000031"><a xlink:href="narrow_8h.html" target="_top" xlink:title=" ">
<polygon fill="white" stroke="#666666" points="178,-244.5 119,-244.5 119,-225.5 178,-225.5 178,-244.5"/>
<text text-anchor="middle" x="148.5" y="-232.5" font-family="Helvetica,sans-Serif" font-size="10.00">narrow.h</text>
</a>
</g>
</g>
<!-- Node45&#45;&gt;Node31 -->
<g id="edge49_Node000045_Node000031" class="edge">
<title>Node45&#45;&gt;Node31</title>
<g id="a_edge49_Node000045_Node000031"><a xlink:title=" ">
<path fill="none" stroke="#63b8ff" d="M223.98,-506.89C201.33,-500.6 174.01,-489.42 156.5,-470 136.77,-448.12 137.5,-435.96 137.5,-406.5 137.5,-406.5 137.5,-406.5 137.5,-349.5 137.5,-315.95 142.32,-277.08 145.58,-254.64"/>
<polygon fill="#63b8ff" stroke="#63b8ff" points="149.08,-254.93 147.11,-244.52 142.15,-253.88 149.08,-254.93"/>
</a>
</g>
</g>
<!-- Node47&#45;&gt;Node9 -->
<g id="edge41_Node000047_Node000009" class="edge">
<title>Node47&#45;&gt;Node9</title>
<g id="a_edge41_Node000047_Node000009"><a xlink:title=" ">
<path fill="none" stroke="#63b8ff" d="M206.5,-450.82C206.5,-432.48 206.5,-388.44 206.5,-351.5 206.5,-351.5 206.5,-351.5 206.5,-234 206.5,-131.76 323.87,-53.92 376.96,-23.94"/>
<polygon fill="#63b8ff" stroke="#63b8ff" points="378.73,-26.96 385.79,-19.06 375.34,-20.83 378.73,-26.96"/>
</a>
</g>
</g>
<!-- Node48 -->
<g id="Node000048" class="node">
<title>Node48</title>
<g id="a_Node000048"><a xlink:href="pointer__expr_8h.html" target="_top" xlink:title="API to expression classes for Pointers.">
<polygon fill="white" stroke="#666666" points="366.5,-415 280.5,-415 280.5,-396 366.5,-396 366.5,-415"/>
<text text-anchor="middle" x="323.5" y="-403" font-family="Helvetica,sans-Serif" font-size="10.00">pointer_expr.h</text>
</a>
</g>
</g>
<!-- Node47&#45;&gt;Node48 -->
<g id="edge42_Node000047_Node000048" class="edge">
<title>Node47&#45;&gt;Node48</title>
<g id="a_edge42_Node000047_Node000048"><a xlink:title=" ">
<path fill="none" stroke="#63b8ff" d="M225.3,-450.98C244.12,-442.46 273.32,-429.23 295,-419.41"/>
<polygon fill="#63b8ff" stroke="#63b8ff" points="296.7,-422.48 304.36,-415.17 293.81,-416.11 296.7,-422.48"/>
</a>
</g>
</g>
<!-- Node49 -->
<g id="Node000049" class="node">
<title>Node49</title>
<g id="a_Node000049"><a xlink:href="bitvector__types_8h.html" target="_top" xlink:title="Pre&#45;defined bitvector types.">
<polygon fill="white" stroke="#666666" points="476,-360 375,-360 375,-341 476,-341 476,-360"/>
<text text-anchor="middle" x="425.5" y="-348" font-family="Helvetica,sans-Serif" font-size="10.00">bitvector_types.h</text>
</a>
</g>
</g>
<!-- Node48&#45;&gt;Node49 -->
<g id="edge43_Node000048_Node000049" class="edge">
<title>Node48&#45;&gt;Node49</title>
<g id="a_edge43_Node000048_Node000049"><a xlink:title=" ">
<path fill="none" stroke="#63b8ff" d="M339.89,-395.98C356.07,-387.57 381.07,-374.59 399.88,-364.81"/>
<polygon fill="#63b8ff" stroke="#63b8ff" points="401.55,-367.89 408.81,-360.17 398.33,-361.68 401.55,-367.89"/>
</a>
</g>
</g>
<!-- Node48&#45;&gt;Node50 -->
<g id="edge45_Node000048_Node000050" class="edge">
<title>Node48&#45;&gt;Node50</title>
<g id="a_edge45_Node000048_Node000050"><a xlink:title=" ">
<path fill="none" stroke="#63b8ff" d="M323.5,-395.75C323.5,-388.8 323.5,-378.85 323.5,-370.13"/>
<polygon fill="#63b8ff" stroke="#63b8ff" points="327,-370.09 323.5,-360.09 320,-370.09 327,-370.09"/>
</a>
</g>
</g>
<!-- Node49&#45;&gt;Node4 -->
<g id="edge44_Node000049_Node000004" class="edge">
<title>Node49&#45;&gt;Node4</title>
<g id="a_edge44_Node000049_Node000004"><a xlink:title=" ">
<path fill="none" stroke="#63b8ff" d="M430.29,-340.75C434.26,-333.49 440.03,-322.95 444.93,-313.98"/>
<polygon fill="#63b8ff" stroke="#63b8ff" points="448.07,-315.54 449.8,-305.09 441.93,-312.18 448.07,-315.54"/>
</a>
</g>
</g>
<!-- Node50&#45;&gt;Node4 -->
<g id="edge48_Node000050_Node000004" class="edge">
<title>Node50&#45;&gt;Node4</title>
<g id="a_edge48_Node000050_Node000004"><a xlink:title=" ">
<path fill="none" stroke="#63b8ff" d="M344.55,-340.98C365.91,-332.34 399.2,-318.87 423.56,-309.02"/>
<polygon fill="#63b8ff" stroke="#63b8ff" points="425.11,-312.17 433.07,-305.17 422.49,-305.68 425.11,-312.17"/>
</a>
</g>
</g>
<!-- Node50&#45;&gt;Node39 -->
<g id="edge46_Node000050_Node000039" class="edge">
<title>Node50&#45;&gt;Node39</title>
<g id="a_edge46_Node000050_Node000039"><a xlink:title=" ">
<path fill="none" stroke="#63b8ff" d="M328.46,-340.97C339.26,-322.4 365.07,-278.01 379.43,-253.32"/>
<polygon fill="#63b8ff" stroke="#63b8ff" points="382.48,-255.03 384.48,-244.63 376.43,-251.52 382.48,-255.03"/>
</a>
</g>
</g>
<!-- Node50&#45;&gt;Node13 -->
<g id="edge47_Node000050_Node000013" class="edge">
<title>Node50&#45;&gt;Node13</title>
<g id="a_edge47_Node000050_Node000013"><a xlink:title=" ">
<path fill="none" stroke="#63b8ff" d="M320.75,-340.63C312.33,-313.52 286.82,-231.32 275.28,-194.13"/>
<polygon fill="#63b8ff" stroke="#63b8ff" points="278.49,-192.66 272.18,-184.14 271.8,-194.73 278.49,-192.66"/>
</a>
</g>
</g>
<!-- Node31&#45;&gt;Node16 -->
<g id="edge50_Node000031_Node000016" class="edge">
<title>Node31&#45;&gt;Node16</title>
<g id="a_edge50_Node000031_Node000016"><a xlink:title=" ">
<path fill="none" stroke="#63b8ff" d="M150.93,-225.46C157.04,-204.71 174.3,-150.43 198.5,-110 217.82,-77.72 247.32,-45.15 265.46,-26.44"/>
<polygon fill="#63b8ff" stroke="#63b8ff" points="268.17,-28.68 272.69,-19.1 263.18,-23.77 268.17,-28.68"/>
</a>
</g>
</g>
<!-- Node31&#45;&gt;Node13 -->
<g id="edge51_Node000031_Node000013" class="edge">
<title>Node31&#45;&gt;Node13</title>
<g id="a_edge51_Node000031_Node000013"><a xlink:title=" ">
<path fill="none" stroke="#63b8ff" d="M166.09,-225.49C186.26,-215.75 219.52,-199.66 242.86,-188.38"/>
<polygon fill="#63b8ff" stroke="#63b8ff" points="244.4,-191.52 251.88,-184.02 241.36,-185.22 244.4,-191.52"/>
</a>
</g>
</g>
<!-- Node53 -->
<g id="Node000053" class="node">
<title>Node53</title>
<g id="a_Node000053"><a xlink:title=" ">
<polygon fill="#e0e0e0" stroke="#999999" points="842,-244.5 749,-244.5 749,-225.5 842,-225.5 842,-244.5"/>
<text text-anchor="middle" x="795.5" y="-232.5" font-family="Helvetica,sans-Serif" font-size="10.00">catch/catch.hpp</text>
</a>
</g>
</g>
<!-- Node52&#45;&gt;Node53 -->
<g id="edge57_Node000052_Node000053" class="edge">
<title>Node52&#45;&gt;Node53</title>
<g id="a_edge57_Node000052_Node000053"><a xlink:title=" ">
<path fill="none" stroke="#63b8ff" d="M795.5,-285.87C795.5,-277.75 795.5,-265.31 795.5,-254.89"/>
<polygon fill="#63b8ff" stroke="#63b8ff" points="799,-254.67 795.5,-244.67 792,-254.67 799,-254.67"/>
</a>
</g>
</g>
<!-- Node54 -->
<g id="Node000054" class="node">
<title>Node54</title>
<g id="a_Node000054"><a xlink:href="smt__to__smt2__string_8h.html" target="_top" xlink:title="Streaming SMT data structures to a string based output stream.">
<polygon fill="white" stroke="#666666" points="1003,-250 860,-250 860,-220 1003,-220 1003,-250"/>
<text text-anchor="start" x="868" y="-238" font-family="Helvetica,sans-Serif" font-size="10.00">solvers/smt2_incremental</text>
<text text-anchor="middle" x="931.5" y="-227" font-family="Helvetica,sans-Serif" font-size="10.00">/smt_to_smt2_string.h</text>
</a>
</g>
</g>
<!-- Node52&#45;&gt;Node54 -->
<g id="edge58_Node000052_Node000054" class="edge">
<title>Node52&#45;&gt;Node54</title>
<g id="a_edge58_Node000052_Node000054"><a xlink:title=" ">
<path fill="none" stroke="#63b8ff" d="M815.28,-285.99C834.59,-277.68 864.6,-264.78 889.29,-254.16"/>
<polygon fill="#63b8ff" stroke="#63b8ff" points="891,-257.23 898.8,-250.06 888.23,-250.8 891,-257.23"/>
</a>
</g>
</g>
<!-- Node54&#45;&gt;Node11 -->
<g id="edge60_Node000054_Node000011" class="edge">
<title>Node54&#45;&gt;Node11</title>
<g id="a_edge60_Node000054_Node000011"><a xlink:title=" ">
<path fill="none" stroke="#63b8ff" d="M943.3,-219.84C953.37,-205.97 965.23,-184.18 958.5,-165 937.78,-105.92 917.62,-96.22 870.5,-55 856.43,-42.69 838.51,-31.82 823.83,-23.9"/>
<polygon fill="#63b8ff" stroke="#63b8ff" points="825.21,-20.67 814.72,-19.14 821.96,-26.87 825.21,-20.67"/>
</a>
</g>
</g>
<!-- Node54&#45;&gt;Node19 -->
<g id="edge59_Node000054_Node000019" class="edge">
<title>Node54&#45;&gt;Node19</title>
<g id="a_edge59_Node000054_Node000019"><a xlink:title=" ">
<path fill="none" stroke="#63b8ff" d="M930.05,-219.84C929.27,-212.21 928.29,-202.7 927.44,-194.45"/>
<polygon fill="#63b8ff" stroke="#63b8ff" points="930.9,-193.86 926.4,-184.27 923.94,-194.57 930.9,-193.86"/>
</a>
</g>
</g>
</g>
</svg>
