<?xml version="1.0" encoding="UTF-8" standalone="no"?>
<!DOCTYPE svg PUBLIC "-//W3C//DTD SVG 1.1//EN"
 "http://www.w3.org/Graphics/SVG/1.1/DTD/svg11.dtd">
<!-- Generated by graphviz version 2.43.0 (0)
 -->
<!-- Title: /home/runner/work/cbmc/cbmc/src/goto&#45;programs/safety_checker.h Pages: 1 -->
<svg width="1625pt" height="500pt"
 viewBox="0.00 0.00 1624.50 500.00" xmlns="http://www.w3.org/2000/svg" xmlns:xlink="http://www.w3.org/1999/xlink">
<g id="graph0" class="graph" transform="scale(1 1) rotate(0) translate(4 496)">
<title>/home/runner/work/cbmc/cbmc/src/goto&#45;programs/safety_checker.h</title>
<!-- Node1 -->
<g id="Node000001" class="node">
<title>Node1</title>
<g id="a_Node000001"><a xlink:title="Safety Checker Interface.">
<polygon fill="#999999" stroke="#666666" points="749,-492 611,-492 611,-451 749,-451 749,-492"/>
<text text-anchor="start" x="619" y="-480" font-family="Helvetica,sans-Serif" font-size="10.00">/home/runner/work/cbmc</text>
<text text-anchor="start" x="619" y="-469" font-family="Helvetica,sans-Serif" font-size="10.00">/cbmc/src/goto&#45;programs</text>
<text text-anchor="middle" x="680" y="-458" font-family="Helvetica,sans-Serif" font-size="10.00">/safety_checker.h</text>
</a>
</g>
</g>
<!-- Node2 -->
<g id="Node000002" class="node">
<title>Node2</title>
<g id="a_Node000002"><a xlink:href="src_2util_2invariant_8h.html" target="_top" xlink:title=" ">
<polygon fill="white" stroke="#666666" points="1210,-74 1122,-74 1122,-55 1210,-55 1210,-74"/>
<text text-anchor="middle" x="1166" y="-62" font-family="Helvetica,sans-Serif" font-size="10.00">util/invariant.h</text>
</a>
</g>
</g>
<!-- Node1&#45;&gt;Node2 -->
<g id="edge1_Node000001_Node000002" class="edge">
<title>Node1&#45;&gt;Node2</title>
<g id="a_edge1_Node000001_Node000002"><a xlink:title=" ">
<path fill="none" stroke="#63b8ff" d="M749.04,-468.46C891.33,-462.36 1204,-438.45 1204,-346 1204,-346 1204,-346 1204,-173.5 1204,-140.02 1187.55,-103.84 1176.3,-83.01"/>
<polygon fill="#63b8ff" stroke="#63b8ff" points="1179.24,-81.1 1171.28,-74.1 1173.13,-84.53 1179.24,-81.1"/>
</a>
</g>
</g>
<!-- Node7 -->
<g id="Node000007" class="node">
<title>Node7</title>
<g id="a_Node000007"><a xlink:href="src_2util_2message_8h.html" target="_top" xlink:title=" ">
<polygon fill="white" stroke="#666666" points="657.5,-354.5 568.5,-354.5 568.5,-335.5 657.5,-335.5 657.5,-354.5"/>
<text text-anchor="middle" x="613" y="-342.5" font-family="Helvetica,sans-Serif" font-size="10.00">util/message.h</text>
</a>
</g>
</g>
<!-- Node1&#45;&gt;Node7 -->
<g id="edge6_Node000001_Node000007" class="edge">
<title>Node1&#45;&gt;Node7</title>
<g id="a_edge6_Node000001_Node000007"><a xlink:title=" ">
<path fill="none" stroke="#63b8ff" d="M659.13,-450.81C649.66,-440.87 639.03,-428.14 632,-415 623.5,-399.09 618.53,-379.03 615.82,-364.65"/>
<polygon fill="#63b8ff" stroke="#63b8ff" points="619.22,-363.8 614.11,-354.52 612.32,-364.96 619.22,-363.8"/>
</a>
</g>
</g>
<!-- Node30 -->
<g id="Node000030" class="node">
<title>Node30</title>
<g id="a_Node000030"><a xlink:href="goto__trace_8h.html" target="_top" xlink:title="Traces of GOTO Programs.">
<polygon fill="white" stroke="#666666" points="718.5,-415 641.5,-415 641.5,-396 718.5,-396 718.5,-415"/>
<text text-anchor="middle" x="680" y="-403" font-family="Helvetica,sans-Serif" font-size="10.00">goto_trace.h</text>
</a>
</g>
</g>
<!-- Node1&#45;&gt;Node30 -->
<g id="edge37_Node000001_Node000030" class="edge">
<title>Node1&#45;&gt;Node30</title>
<g id="a_edge37_Node000001_Node000030"><a xlink:title=" ">
<path fill="none" stroke="#63b8ff" d="M680,-450.95C680,-442.85 680,-433.5 680,-425.47"/>
<polygon fill="#63b8ff" stroke="#63b8ff" points="683.5,-425.26 680,-415.26 676.5,-425.26 683.5,-425.26"/>
</a>
</g>
</g>
<!-- Node3 -->
<g id="Node000003" class="node">
<title>Node3</title>
<g id="a_Node000003"><a xlink:title=" ">
<polygon fill="#e0e0e0" stroke="#999999" points="1136.5,-19 1087.5,-19 1087.5,0 1136.5,0 1136.5,-19"/>
<text text-anchor="middle" x="1112" y="-7" font-family="Helvetica,sans-Serif" font-size="10.00">cstdlib</text>
</a>
</g>
</g>
<!-- Node2&#45;&gt;Node3 -->
<g id="edge2_Node000002_Node000003" class="edge">
<title>Node2&#45;&gt;Node3</title>
<g id="a_edge2_Node000002_Node000003"><a xlink:title=" ">
<path fill="none" stroke="#63b8ff" d="M1157.08,-54.75C1149.22,-47.03 1137.57,-35.6 1128.08,-26.28"/>
<polygon fill="#63b8ff" stroke="#63b8ff" points="1130.34,-23.6 1120.75,-19.09 1125.44,-28.59 1130.34,-23.6"/>
</a>
</g>
</g>
<!-- Node4 -->
<g id="Node000004" class="node">
<title>Node4</title>
<g id="a_Node000004"><a xlink:title=" ">
<polygon fill="#e0e0e0" stroke="#999999" points="815,-19 759,-19 759,0 815,0 815,-19"/>
<text text-anchor="middle" x="787" y="-7" font-family="Helvetica,sans-Serif" font-size="10.00">sstream</text>
</a>
</g>
</g>
<!-- Node2&#45;&gt;Node4 -->
<g id="edge3_Node000002_Node000004" class="edge">
<title>Node2&#45;&gt;Node4</title>
<g id="a_edge3_Node000002_Node000004"><a xlink:title=" ">
<path fill="none" stroke="#63b8ff" d="M1121.78,-57.32C1046.93,-46.85 896.51,-25.81 825.63,-15.9"/>
<polygon fill="#63b8ff" stroke="#63b8ff" points="825.75,-12.38 815.36,-14.47 824.78,-19.32 825.75,-12.38"/>
</a>
</g>
</g>
<!-- Node5 -->
<g id="Node000005" class="node">
<title>Node5</title>
<g id="a_Node000005"><a xlink:title=" ">
<polygon fill="#e0e0e0" stroke="#999999" points="488,-19 444,-19 444,0 488,0 488,-19"/>
<text text-anchor="middle" x="466" y="-7" font-family="Helvetica,sans-Serif" font-size="10.00">string</text>
</a>
</g>
</g>
<!-- Node2&#45;&gt;Node5 -->
<g id="edge4_Node000002_Node000005" class="edge">
<title>Node2&#45;&gt;Node5</title>
<g id="a_edge4_Node000002_Node000005"><a xlink:title=" ">
<path fill="none" stroke="#63b8ff" d="M1121.95,-60.16C991.92,-50.32 611.82,-21.54 498.35,-12.95"/>
<polygon fill="#63b8ff" stroke="#63b8ff" points="498.45,-9.45 488.22,-12.18 497.92,-16.43 498.45,-9.45"/>
</a>
</g>
</g>
<!-- Node6 -->
<g id="Node000006" class="node">
<title>Node6</title>
<g id="a_Node000006"><a xlink:title=" ">
<polygon fill="#e0e0e0" stroke="#999999" points="1421.5,-19 1352.5,-19 1352.5,0 1421.5,0 1421.5,-19"/>
<text text-anchor="middle" x="1387" y="-7" font-family="Helvetica,sans-Serif" font-size="10.00">type_traits</text>
</a>
</g>
</g>
<!-- Node2&#45;&gt;Node6 -->
<g id="edge5_Node000002_Node000006" class="edge">
<title>Node2&#45;&gt;Node6</title>
<g id="a_edge5_Node000002_Node000006"><a xlink:title=" ">
<path fill="none" stroke="#63b8ff" d="M1201.51,-54.98C1239.83,-45.79 1300.95,-31.14 1342.46,-21.18"/>
<polygon fill="#63b8ff" stroke="#63b8ff" points="1343.4,-24.56 1352.31,-18.82 1341.77,-17.75 1343.4,-24.56"/>
</a>
</g>
</g>
<!-- Node7&#45;&gt;Node2 -->
<g id="edge7_Node000007_Node000002" class="edge">
<title>Node7&#45;&gt;Node2</title>
<g id="a_edge7_Node000007_Node000002"><a xlink:title=" ">
<path fill="none" stroke="#63b8ff" d="M614.48,-335.29C618.93,-312.14 634.42,-248.9 675,-220 775.04,-148.75 829.66,-213.07 949,-184 1018.8,-167 1040.15,-167.19 1101,-129 1121.36,-116.22 1140.51,-96.16 1152.68,-82.01"/>
<polygon fill="#63b8ff" stroke="#63b8ff" points="1155.58,-84 1159.3,-74.08 1150.2,-79.51 1155.58,-84"/>
</a>
</g>
</g>
<!-- Node7&#45;&gt;Node4 -->
<g id="edge35_Node000007_Node000004" class="edge">
<title>Node7&#45;&gt;Node4</title>
<g id="a_edge35_Node000007_Node000004"><a xlink:title=" ">
<path fill="none" stroke="#63b8ff" d="M570.26,-335.43C535.21,-327.45 484.9,-313.8 444,-294 405.82,-275.51 385.52,-276.66 366,-239 359.78,-227 360.34,-193.34 371,-165 381.64,-136.71 386.08,-127.1 411,-110 450.07,-83.19 571.19,-67.11 617,-55 662.17,-43.06 714.14,-29.48 748.61,-20.49"/>
<polygon fill="#63b8ff" stroke="#63b8ff" points="749.92,-23.77 758.71,-17.86 748.15,-16.99 749.92,-23.77"/>
</a>
</g>
</g>
<!-- Node7&#45;&gt;Node5 -->
<g id="edge36_Node000007_Node000005" class="edge">
<title>Node7&#45;&gt;Node5</title>
<g id="a_edge36_Node000007_Node000005"><a xlink:title=" ">
<path fill="none" stroke="#63b8ff" d="M568.18,-344.29C472.98,-344.02 254.69,-338.43 198,-294 174.25,-275.39 174,-260.67 174,-230.5 174,-230.5 174,-230.5 174,-118.5 174,-80.58 197.96,-73.62 231,-55 296.24,-18.23 386.2,-11.18 433.66,-10.23"/>
<polygon fill="#63b8ff" stroke="#63b8ff" points="433.72,-13.73 443.67,-10.11 433.63,-6.73 433.72,-13.73"/>
</a>
</g>
</g>
<!-- Node8 -->
<g id="Node000008" class="node">
<title>Node8</title>
<g id="a_Node000008"><a xlink:href="source__location_8h.html" target="_top" xlink:title=" ">
<polygon fill="white" stroke="#666666" points="555,-294 453,-294 453,-275 555,-275 555,-294"/>
<text text-anchor="middle" x="504" y="-282" font-family="Helvetica,sans-Serif" font-size="10.00">source_location.h</text>
</a>
</g>
</g>
<!-- Node7&#45;&gt;Node8 -->
<g id="edge8_Node000007_Node000008" class="edge">
<title>Node7&#45;&gt;Node8</title>
<g id="a_edge8_Node000007_Node000008"><a xlink:title=" ">
<path fill="none" stroke="#63b8ff" d="M596.92,-335.37C579.05,-325.78 549.96,-310.17 529.09,-298.97"/>
<polygon fill="#63b8ff" stroke="#63b8ff" points="530.62,-295.81 520.15,-294.17 527.31,-301.98 530.62,-295.81"/>
</a>
</g>
</g>
<!-- Node14 -->
<g id="Node000014" class="node">
<title>Node14</title>
<g id="a_Node000014"><a xlink:title=" ">
<polygon fill="#e0e0e0" stroke="#999999" points="674,-74 626,-74 626,-55 674,-55 674,-74"/>
<text text-anchor="middle" x="650" y="-62" font-family="Helvetica,sans-Serif" font-size="10.00">iosfwd</text>
</a>
</g>
</g>
<!-- Node7&#45;&gt;Node14 -->
<g id="edge34_Node000007_Node000014" class="edge">
<title>Node7&#45;&gt;Node14</title>
<g id="a_edge34_Node000007_Node000014"><a xlink:title=" ">
<path fill="none" stroke="#63b8ff" d="M611.75,-335.23C607.59,-303.81 595.93,-194.28 622,-110 625.1,-99.99 631.05,-90.01 636.67,-82.04"/>
<polygon fill="#63b8ff" stroke="#63b8ff" points="639.49,-84.11 642.71,-74.01 633.9,-79.9 639.49,-84.11"/>
</a>
</g>
</g>
<!-- Node29 -->
<g id="Node000029" class="node">
<title>Node29</title>
<g id="a_Node000029"><a xlink:title=" ">
<polygon fill="#e0e0e0" stroke="#999999" points="1504.5,-19 1439.5,-19 1439.5,0 1504.5,0 1504.5,-19"/>
<text text-anchor="middle" x="1472" y="-7" font-family="Helvetica,sans-Serif" font-size="10.00">functional</text>
</a>
</g>
</g>
<!-- Node7&#45;&gt;Node29 -->
<g id="edge33_Node000007_Node000029" class="edge">
<title>Node7&#45;&gt;Node29</title>
<g id="a_edge33_Node000007_Node000029"><a xlink:title=" ">
<path fill="none" stroke="#63b8ff" d="M635.1,-335.42C752.43,-289.87 1302.35,-76.36 1440.47,-22.74"/>
<polygon fill="#63b8ff" stroke="#63b8ff" points="1441.99,-25.9 1450.05,-19.02 1439.46,-19.38 1441.99,-25.9"/>
</a>
</g>
</g>
<!-- Node8&#45;&gt;Node5 -->
<g id="edge32_Node000008_Node000005" class="edge">
<title>Node8&#45;&gt;Node5</title>
<g id="a_edge32_Node000008_Node000005"><a xlink:title=" ">
<path fill="none" stroke="#63b8ff" d="M452.85,-275.67C424.98,-269.4 391.16,-258.32 366,-239 319.85,-203.56 311.45,-184.82 295,-129 292.61,-120.9 290.8,-117.33 295,-110 301.02,-99.5 378.54,-61.08 389,-55 406.91,-44.59 427.19,-32.87 442.44,-24.07"/>
<polygon fill="#63b8ff" stroke="#63b8ff" points="444.31,-27.03 451.22,-19.01 440.81,-20.97 444.31,-27.03"/>
</a>
</g>
</g>
<!-- Node9 -->
<g id="Node000009" class="node">
<title>Node9</title>
<g id="a_Node000009"><a xlink:href="deprecate_8h.html" target="_top" xlink:title=" ">
<polygon fill="white" stroke="#666666" points="511,-239 437,-239 437,-220 511,-220 511,-239"/>
<text text-anchor="middle" x="474" y="-227" font-family="Helvetica,sans-Serif" font-size="10.00">deprecate.h</text>
</a>
</g>
</g>
<!-- Node8&#45;&gt;Node9 -->
<g id="edge9_Node000008_Node000009" class="edge">
<title>Node8&#45;&gt;Node9</title>
<g id="a_edge9_Node000008_Node000009"><a xlink:title=" ">
<path fill="none" stroke="#63b8ff" d="M499.05,-274.75C494.94,-267.49 488.97,-256.95 483.9,-247.98"/>
<polygon fill="#63b8ff" stroke="#63b8ff" points="486.83,-246.07 478.86,-239.09 480.74,-249.52 486.83,-246.07"/>
</a>
</g>
</g>
<!-- Node10 -->
<g id="Node000010" class="node">
<title>Node10</title>
<g id="a_Node000010"><a xlink:href="irep_8h.html" target="_top" xlink:title=" ">
<polygon fill="white" stroke="#666666" points="419,-239 375,-239 375,-220 419,-220 419,-239"/>
<text text-anchor="middle" x="397" y="-227" font-family="Helvetica,sans-Serif" font-size="10.00">irep.h</text>
</a>
</g>
</g>
<!-- Node8&#45;&gt;Node10 -->
<g id="edge10_Node000008_Node000010" class="edge">
<title>Node8&#45;&gt;Node10</title>
<g id="a_edge10_Node000008_Node000010"><a xlink:title=" ">
<path fill="none" stroke="#63b8ff" d="M486.81,-274.98C469.75,-266.54 443.37,-253.47 423.6,-243.68"/>
<polygon fill="#63b8ff" stroke="#63b8ff" points="425.02,-240.47 414.5,-239.17 421.91,-246.75 425.02,-240.47"/>
</a>
</g>
</g>
<!-- Node28 -->
<g id="Node000028" class="node">
<title>Node28</title>
<g id="a_Node000028"><a xlink:title=" ">
<polygon fill="#e0e0e0" stroke="#999999" points="585,-239 529,-239 529,-220 585,-220 585,-239"/>
<text text-anchor="middle" x="557" y="-227" font-family="Helvetica,sans-Serif" font-size="10.00">optional</text>
</a>
</g>
</g>
<!-- Node8&#45;&gt;Node28 -->
<g id="edge31_Node000008_Node000028" class="edge">
<title>Node8&#45;&gt;Node28</title>
<g id="a_edge31_Node000008_Node000028"><a xlink:title=" ">
<path fill="none" stroke="#63b8ff" d="M512.75,-274.75C520.47,-267.03 531.9,-255.6 541.22,-246.28"/>
<polygon fill="#63b8ff" stroke="#63b8ff" points="543.81,-248.64 548.41,-239.09 538.86,-243.69 543.81,-248.64"/>
</a>
</g>
</g>
<!-- Node10&#45;&gt;Node2 -->
<g id="edge13_Node000010_Node000002" class="edge">
<title>Node10&#45;&gt;Node2</title>
<g id="a_edge13_Node000010_Node000002"><a xlink:title=" ">
<path fill="none" stroke="#63b8ff" d="M419.24,-221.88C422.17,-221.17 425.14,-220.51 428,-220 711.67,-169.18 805.7,-243.89 1070,-129 1099.27,-116.28 1129.38,-94.71 1147.89,-80.29"/>
<polygon fill="#63b8ff" stroke="#63b8ff" points="1150.11,-83 1155.77,-74.04 1145.76,-77.52 1150.11,-83"/>
</a>
</g>
</g>
<!-- Node10&#45;&gt;Node5 -->
<g id="edge11_Node000010_Node000005" class="edge">
<title>Node10&#45;&gt;Node5</title>
<g id="a_edge11_Node000010_Node000005"><a xlink:title=" ">
<path fill="none" stroke="#63b8ff" d="M413.05,-219.83C438.3,-205.12 486.16,-172.55 503,-129 514.86,-98.32 514.18,-85.93 503,-55 499.06,-44.09 491.14,-33.96 483.64,-26.14"/>
<polygon fill="#63b8ff" stroke="#63b8ff" points="486.05,-23.6 476.44,-19.13 481.16,-28.61 486.05,-23.6"/>
</a>
</g>
</g>
<!-- Node11 -->
<g id="Node000011" class="node">
<title>Node11</title>
<g id="a_Node000011"><a xlink:title=" ">
<polygon fill="#e0e0e0" stroke="#999999" points="61.5,-19 14.5,-19 14.5,0 61.5,0 61.5,-19"/>
<text text-anchor="middle" x="38" y="-7" font-family="Helvetica,sans-Serif" font-size="10.00">vector</text>
</a>
</g>
</g>
<!-- Node10&#45;&gt;Node11 -->
<g id="edge12_Node000010_Node000011" class="edge">
<title>Node10&#45;&gt;Node11</title>
<g id="a_edge12_Node000010_Node000011"><a xlink:title=" ">
<path fill="none" stroke="#63b8ff" d="M374.98,-224.96C314.7,-214.1 145.67,-175.61 57,-74 46.24,-61.67 41.57,-43.45 39.55,-29.68"/>
<polygon fill="#63b8ff" stroke="#63b8ff" points="42.99,-28.94 38.39,-19.39 36.03,-29.72 42.99,-28.94"/>
</a>
</g>
</g>
<!-- Node12 -->
<g id="Node000012" class="node">
<title>Node12</title>
<g id="a_Node000012"><a xlink:href="irep__ids_8h.html" target="_top" xlink:title="util">
<polygon fill="white" stroke="#666666" points="444,-184 380,-184 380,-165 444,-165 444,-184"/>
<text text-anchor="middle" x="412" y="-172" font-family="Helvetica,sans-Serif" font-size="10.00">irep_ids.h</text>
</a>
</g>
</g>
<!-- Node10&#45;&gt;Node12 -->
<g id="edge14_Node000010_Node000012" class="edge">
<title>Node10&#45;&gt;Node12</title>
<g id="a_edge14_Node000010_Node000012"><a xlink:title=" ">
<path fill="none" stroke="#63b8ff" d="M399.48,-219.75C401.46,-212.72 404.32,-202.62 406.81,-193.84"/>
<polygon fill="#63b8ff" stroke="#63b8ff" points="410.21,-194.66 409.57,-184.09 403.48,-192.76 410.21,-194.66"/>
</a>
</g>
</g>
<!-- Node23 -->
<g id="Node000023" class="node">
<title>Node23</title>
<g id="a_Node000023"><a xlink:href="forward__list__as__map_8h.html" target="_top" xlink:title=" ">
<polygon fill="white" stroke="#666666" points="832.5,-184 705.5,-184 705.5,-165 832.5,-165 832.5,-184"/>
<text text-anchor="middle" x="769" y="-172" font-family="Helvetica,sans-Serif" font-size="10.00">forward_list_as_map.h</text>
</a>
</g>
</g>
<!-- Node10&#45;&gt;Node23 -->
<g id="edge24_Node000010_Node000023" class="edge">
<title>Node10&#45;&gt;Node23</title>
<g id="a_edge24_Node000010_Node000023"><a xlink:title=" ">
<path fill="none" stroke="#63b8ff" d="M419.26,-222C422.19,-221.26 425.16,-220.57 428,-220 519.35,-201.61 626.06,-189.1 695.45,-182.14"/>
<polygon fill="#63b8ff" stroke="#63b8ff" points="695.8,-185.62 705.41,-181.15 695.11,-178.66 695.8,-185.62"/>
</a>
</g>
</g>
<!-- Node13 -->
<g id="Node000013" class="node">
<title>Node13</title>
<g id="a_Node000013"><a xlink:href="dstring_8h.html" target="_top" xlink:title="Container for C&#45;Strings.">
<polygon fill="white" stroke="#666666" points="363.5,-129 304.5,-129 304.5,-110 363.5,-110 363.5,-129"/>
<text text-anchor="middle" x="334" y="-117" font-family="Helvetica,sans-Serif" font-size="10.00">dstring.h</text>
</a>
</g>
</g>
<!-- Node12&#45;&gt;Node13 -->
<g id="edge15_Node000012_Node000013" class="edge">
<title>Node12&#45;&gt;Node13</title>
<g id="a_edge15_Node000012_Node000013"><a xlink:title=" ">
<path fill="none" stroke="#63b8ff" d="M399.47,-164.98C387.6,-156.92 369.54,-144.65 355.39,-135.03"/>
<polygon fill="#63b8ff" stroke="#63b8ff" points="357,-131.9 346.76,-129.17 353.06,-137.69 357,-131.9"/>
</a>
</g>
</g>
<!-- Node22 -->
<g id="Node000022" class="node">
<title>Node22</title>
<g id="a_Node000022"><a xlink:title=" ">
<polygon fill="#e0e0e0" stroke="#999999" points="494,-129 420,-129 420,-110 494,-110 494,-129"/>
<text text-anchor="middle" x="457" y="-117" font-family="Helvetica,sans-Serif" font-size="10.00">irep_ids.def</text>
</a>
</g>
</g>
<!-- Node12&#45;&gt;Node22 -->
<g id="edge23_Node000012_Node000022" class="edge">
<title>Node12&#45;&gt;Node22</title>
<g id="a_edge23_Node000012_Node000022"><a xlink:title=" ">
<path fill="none" stroke="#63b8ff" d="M419.43,-164.75C425.85,-157.18 435.31,-146.05 443.12,-136.84"/>
<polygon fill="#63b8ff" stroke="#63b8ff" points="445.9,-138.98 449.71,-129.09 440.57,-134.45 445.9,-138.98"/>
</a>
</g>
</g>
<!-- Node13&#45;&gt;Node5 -->
<g id="edge17_Node000013_Node000005" class="edge">
<title>Node13&#45;&gt;Node5</title>
<g id="a_edge17_Node000013_Node000005"><a xlink:title=" ">
<path fill="none" stroke="#63b8ff" d="M344.8,-109.66C367.35,-91.22 419.62,-48.45 447.58,-25.57"/>
<polygon fill="#63b8ff" stroke="#63b8ff" points="449.89,-28.2 455.42,-19.16 445.46,-22.78 449.89,-28.2"/>
</a>
</g>
</g>
<!-- Node13&#45;&gt;Node14 -->
<g id="edge16_Node000013_Node000014" class="edge">
<title>Node13&#45;&gt;Node14</title>
<g id="a_edge16_Node000013_Node000014"><a xlink:title=" ">
<path fill="none" stroke="#63b8ff" d="M363.73,-113.51C422.55,-103.65 553.47,-81.69 615.77,-71.24"/>
<polygon fill="#63b8ff" stroke="#63b8ff" points="616.59,-74.65 625.87,-69.55 615.43,-67.75 616.59,-74.65"/>
</a>
</g>
</g>
<!-- Node15 -->
<g id="Node000015" class="node">
<title>Node15</title>
<g id="a_Node000015"><a xlink:href="magic_8h.html" target="_top" xlink:title="Magic numbers used throughout the codebase.">
<polygon fill="#fff0f0" stroke="red" points="494,-74 438,-74 438,-55 494,-55 494,-74"/>
<text text-anchor="middle" x="466" y="-62" font-family="Helvetica,sans-Serif" font-size="10.00">magic.h</text>
</a>
</g>
</g>
<!-- Node13&#45;&gt;Node15 -->
<g id="edge18_Node000013_Node000015" class="edge">
<title>Node13&#45;&gt;Node15</title>
<g id="a_edge18_Node000013_Node000015"><a xlink:title=" ">
<path fill="none" stroke="#63b8ff" d="M355.21,-109.98C376.73,-101.34 410.28,-87.87 434.83,-78.02"/>
<polygon fill="#63b8ff" stroke="#63b8ff" points="436.43,-81.14 444.41,-74.17 433.82,-74.65 436.43,-81.14"/>
</a>
</g>
</g>
<!-- Node17 -->
<g id="Node000017" class="node">
<title>Node17</title>
<g id="a_Node000017"><a xlink:href="string__container_8h.html" target="_top" xlink:title="Container for C&#45;Strings.">
<polygon fill="#fff0f0" stroke="red" points="344,-74 240,-74 240,-55 344,-55 344,-74"/>
<text text-anchor="middle" x="292" y="-62" font-family="Helvetica,sans-Serif" font-size="10.00">string_container.h</text>
</a>
</g>
</g>
<!-- Node13&#45;&gt;Node17 -->
<g id="edge19_Node000013_Node000017" class="edge">
<title>Node13&#45;&gt;Node17</title>
<g id="a_edge19_Node000013_Node000017"><a xlink:title=" ">
<path fill="none" stroke="#63b8ff" d="M327.06,-109.75C321.13,-102.26 312.43,-91.28 305.18,-82.13"/>
<polygon fill="#63b8ff" stroke="#63b8ff" points="307.76,-79.75 298.81,-74.09 302.27,-84.1 307.76,-79.75"/>
</a>
</g>
</g>
<!-- Node17&#45;&gt;Node11 -->
<g id="edge22_Node000017_Node000011" class="edge">
<title>Node17&#45;&gt;Node11</title>
<g id="a_edge22_Node000017_Node000011"><a xlink:title=" ">
<path fill="none" stroke="#63b8ff" d="M250.56,-54.94C207.45,-46.02 137.97,-31.61 78,-19 75.94,-18.57 73.82,-18.12 71.68,-17.67"/>
<polygon fill="#63b8ff" stroke="#63b8ff" points="72.19,-14.2 61.69,-15.55 70.74,-21.05 72.19,-14.2"/>
</a>
</g>
</g>
<!-- Node18 -->
<g id="Node000018" class="node">
<title>Node18</title>
<g id="a_Node000018"><a xlink:title=" ">
<polygon fill="#e0e0e0" stroke="#999999" points="228,-19 196,-19 196,0 228,0 228,-19"/>
<text text-anchor="middle" x="212" y="-7" font-family="Helvetica,sans-Serif" font-size="10.00">list</text>
</a>
</g>
</g>
<!-- Node17&#45;&gt;Node18 -->
<g id="edge20_Node000017_Node000018" class="edge">
<title>Node17&#45;&gt;Node18</title>
<g id="a_edge20_Node000017_Node000018"><a xlink:title=" ">
<path fill="none" stroke="#63b8ff" d="M279.15,-54.98C266.86,-46.84 248.09,-34.41 233.52,-24.76"/>
<polygon fill="#63b8ff" stroke="#63b8ff" points="235.36,-21.78 225.09,-19.17 231.49,-27.61 235.36,-21.78"/>
</a>
</g>
</g>
<!-- Node19 -->
<g id="Node000019" class="node">
<title>Node19</title>
<g id="a_Node000019"><a xlink:title=" ">
<polygon fill="#e0e0e0" stroke="#999999" points="1247.5,-19 1154.5,-19 1154.5,0 1247.5,0 1247.5,-19"/>
<text text-anchor="middle" x="1201" y="-7" font-family="Helvetica,sans-Serif" font-size="10.00">unordered_map</text>
</a>
</g>
</g>
<!-- Node17&#45;&gt;Node19 -->
<g id="edge21_Node000017_Node000019" class="edge">
<title>Node17&#45;&gt;Node19</title>
<g id="a_edge21_Node000017_Node000019"><a xlink:title=" ">
<path fill="none" stroke="#63b8ff" d="M344.04,-60.13C369.62,-58.51 400.92,-56.58 429,-55 743.86,-37.32 826.3,-50.67 1144.33,-18.95"/>
<polygon fill="#63b8ff" stroke="#63b8ff" points="1144.69,-22.43 1154.29,-17.95 1143.99,-15.46 1144.69,-22.43"/>
</a>
</g>
</g>
<!-- Node24 -->
<g id="Node000024" class="node">
<title>Node24</title>
<g id="a_Node000024"><a xlink:title=" ">
<polygon fill="#e0e0e0" stroke="#999999" points="728,-129 664,-129 664,-110 728,-110 728,-129"/>
<text text-anchor="middle" x="696" y="-117" font-family="Helvetica,sans-Serif" font-size="10.00">algorithm</text>
</a>
</g>
</g>
<!-- Node23&#45;&gt;Node24 -->
<g id="edge25_Node000023_Node000024" class="edge">
<title>Node23&#45;&gt;Node24</title>
<g id="a_edge25_Node000023_Node000024"><a xlink:title=" ">
<path fill="none" stroke="#63b8ff" d="M757.27,-164.98C746.27,-157 729.58,-144.88 716.4,-135.31"/>
<polygon fill="#63b8ff" stroke="#63b8ff" points="718.09,-132.21 707.94,-129.17 713.98,-137.88 718.09,-132.21"/>
</a>
</g>
</g>
<!-- Node25 -->
<g id="Node000025" class="node">
<title>Node25</title>
<g id="a_Node000025"><a xlink:title=" ">
<polygon fill="#e0e0e0" stroke="#999999" points="820,-129 746,-129 746,-110 820,-110 820,-129"/>
<text text-anchor="middle" x="783" y="-117" font-family="Helvetica,sans-Serif" font-size="10.00">forward_list</text>
</a>
</g>
</g>
<!-- Node23&#45;&gt;Node25 -->
<g id="edge26_Node000023_Node000025" class="edge">
<title>Node23&#45;&gt;Node25</title>
<g id="a_edge26_Node000023_Node000025"><a xlink:title=" ">
<path fill="none" stroke="#63b8ff" d="M771.31,-164.75C773.17,-157.72 775.84,-147.62 778.15,-138.84"/>
<polygon fill="#63b8ff" stroke="#63b8ff" points="781.56,-139.65 780.73,-129.09 774.79,-137.86 781.56,-139.65"/>
</a>
</g>
</g>
<!-- Node26 -->
<g id="Node000026" class="node">
<title>Node26</title>
<g id="a_Node000026"><a xlink:href="as__const_8h.html" target="_top" xlink:title=" ">
<polygon fill="white" stroke="#666666" points="1334,-19 1266,-19 1266,0 1334,0 1334,-19"/>
<text text-anchor="middle" x="1300" y="-7" font-family="Helvetica,sans-Serif" font-size="10.00">as_const.h</text>
</a>
</g>
</g>
<!-- Node23&#45;&gt;Node26 -->
<g id="edge27_Node000023_Node000026" class="edge">
<title>Node23&#45;&gt;Node26</title>
<g id="a_edge27_Node000023_Node000026"><a xlink:title=" ">
<path fill="none" stroke="#63b8ff" d="M822.96,-164.97C860.59,-157.96 911.48,-146.33 954,-129 1013.43,-104.78 1018.12,-78.08 1078,-55 1082.16,-53.4 1191.89,-31.72 1255.49,-19.23"/>
<polygon fill="#63b8ff" stroke="#63b8ff" points="1256.52,-22.59 1265.66,-17.23 1255.17,-15.72 1256.52,-22.59"/>
</a>
</g>
</g>
<!-- Node27 -->
<g id="Node000027" class="node">
<title>Node27</title>
<g id="a_Node000027"><a xlink:href="narrow_8h.html" target="_top" xlink:title=" ">
<polygon fill="white" stroke="#666666" points="1061.5,-129 1002.5,-129 1002.5,-110 1061.5,-110 1061.5,-129"/>
<text text-anchor="middle" x="1032" y="-117" font-family="Helvetica,sans-Serif" font-size="10.00">narrow.h</text>
</a>
</g>
</g>
<!-- Node23&#45;&gt;Node27 -->
<g id="edge28_Node000023_Node000027" class="edge">
<title>Node23&#45;&gt;Node27</title>
<g id="a_edge28_Node000023_Node000027"><a xlink:title=" ">
<path fill="none" stroke="#63b8ff" d="M811.26,-164.98C861.28,-154.9 943.92,-138.25 992.64,-128.43"/>
<polygon fill="#63b8ff" stroke="#63b8ff" points="993.39,-131.85 1002.5,-126.45 992,-124.99 993.39,-131.85"/>
</a>
</g>
</g>
<!-- Node27&#45;&gt;Node2 -->
<g id="edge30_Node000027_Node000002" class="edge">
<title>Node27&#45;&gt;Node2</title>
<g id="a_edge30_Node000027_Node000002"><a xlink:title=" ">
<path fill="none" stroke="#63b8ff" d="M1053.53,-109.98C1075.47,-101.3 1109.74,-87.75 1134.69,-77.88"/>
<polygon fill="#63b8ff" stroke="#63b8ff" points="1136.07,-81.1 1144.08,-74.17 1133.49,-74.59 1136.07,-81.1"/>
</a>
</g>
</g>
<!-- Node27&#45;&gt;Node6 -->
<g id="edge29_Node000027_Node000006" class="edge">
<title>Node27&#45;&gt;Node6</title>
<g id="a_edge29_Node000027_Node000006"><a xlink:title=" ">
<path fill="none" stroke="#63b8ff" d="M1040.02,-109.83C1053.57,-95.77 1082.52,-68.25 1113,-55 1205.02,-15 1239.01,-35.48 1342.53,-18.96"/>
<polygon fill="#63b8ff" stroke="#63b8ff" points="1343.15,-22.4 1352.43,-17.3 1341.99,-15.5 1343.15,-22.4"/>
</a>
</g>
</g>
<!-- Node30&#45;&gt;Node7 -->
<g id="edge40_Node000030_Node000007" class="edge">
<title>Node30&#45;&gt;Node7</title>
<g id="a_edge40_Node000030_Node000007"><a xlink:title=" ">
<path fill="none" stroke="#63b8ff" d="M670.11,-395.87C659.72,-386.8 643.16,-372.34 630.55,-361.32"/>
<polygon fill="#63b8ff" stroke="#63b8ff" points="632.76,-358.61 622.93,-354.67 628.16,-363.88 632.76,-358.61"/>
</a>
</g>
</g>
<!-- Node30&#45;&gt;Node11 -->
<g id="edge39_Node000030_Node000011" class="edge">
<title>Node30&#45;&gt;Node11</title>
<g id="a_edge39_Node000030_Node000011"><a xlink:title=" ">
<path fill="none" stroke="#63b8ff" d="M641.34,-403.65C532.02,-400.9 222.35,-390.55 126,-360 63.99,-340.34 0,-350.56 0,-285.5 0,-285.5 0,-285.5 0,-118.5 0,-85.02 16.45,-48.84 27.7,-28.01"/>
<polygon fill="#63b8ff" stroke="#63b8ff" points="30.87,-29.53 32.72,-19.1 24.76,-26.1 30.87,-29.53"/>
</a>
</g>
</g>
<!-- Node30&#45;&gt;Node14 -->
<g id="edge38_Node000030_Node000014" class="edge">
<title>Node30&#45;&gt;Node14</title>
<g id="a_edge38_Node000030_Node000014"><a xlink:title=" ">
<path fill="none" stroke="#63b8ff" d="M679.19,-395.93C675.97,-362.07 663.92,-234.28 655,-129 653.73,-113.98 652.39,-96.96 651.42,-84.32"/>
<polygon fill="#63b8ff" stroke="#63b8ff" points="654.9,-83.84 650.65,-74.13 647.92,-84.37 654.9,-83.84"/>
</a>
</g>
</g>
<!-- Node31 -->
<g id="Node000031" class="node">
<title>Node31</title>
<g id="a_Node000031"><a xlink:href="options_8h.html" target="_top" xlink:title="Options.">
<polygon fill="white" stroke="#666666" points="146,-74 66,-74 66,-55 146,-55 146,-74"/>
<text text-anchor="middle" x="106" y="-62" font-family="Helvetica,sans-Serif" font-size="10.00">util/options.h</text>
</a>
</g>
</g>
<!-- Node30&#45;&gt;Node31 -->
<g id="edge41_Node000030_Node000031" class="edge">
<title>Node30&#45;&gt;Node31</title>
<g id="a_edge41_Node000030_Node000031"><a xlink:title=" ">
<path fill="none" stroke="#63b8ff" d="M641.36,-404.85C511.38,-405.01 98,-396.75 98,-285.5 98,-285.5 98,-285.5 98,-173.5 98,-142.1 101.4,-105.71 103.77,-84.2"/>
<polygon fill="#63b8ff" stroke="#63b8ff" points="107.26,-84.5 104.92,-74.16 100.31,-83.7 107.26,-84.5"/>
</a>
</g>
</g>
<!-- Node33 -->
<g id="Node000033" class="node">
<title>Node33</title>
<g id="a_Node000033"><a xlink:href="goto__program_8h.html" target="_top" xlink:title="Concrete Goto Program.">
<polygon fill="white" stroke="#666666" points="955.5,-360 842.5,-360 842.5,-330 955.5,-330 955.5,-360"/>
<text text-anchor="start" x="850.5" y="-348" font-family="Helvetica,sans-Serif" font-size="10.00">goto&#45;programs/goto</text>
<text text-anchor="middle" x="899" y="-337" font-family="Helvetica,sans-Serif" font-size="10.00">_program.h</text>
</a>
</g>
</g>
<!-- Node30&#45;&gt;Node33 -->
<g id="edge45_Node000030_Node000033" class="edge">
<title>Node30&#45;&gt;Node33</title>
<g id="a_edge45_Node000030_Node000033"><a xlink:title=" ">
<path fill="none" stroke="#63b8ff" d="M711.84,-395.99C744.39,-387.3 795.81,-373.57 836.51,-362.69"/>
<polygon fill="#63b8ff" stroke="#63b8ff" points="837.59,-366.03 846.35,-360.06 835.78,-359.26 837.59,-366.03"/>
</a>
</g>
</g>
<!-- Node31&#45;&gt;Node5 -->
<g id="edge42_Node000031_Node000005" class="edge">
<title>Node31&#45;&gt;Node5</title>
<g id="a_edge42_Node000031_Node000005"><a xlink:title=" ">
<path fill="none" stroke="#63b8ff" d="M146.1,-57.14C150.78,-56.41 155.5,-55.68 160,-55 259.73,-39.9 377.9,-22.99 433.72,-15.07"/>
<polygon fill="#63b8ff" stroke="#63b8ff" points="434.31,-18.52 443.72,-13.65 433.33,-11.59 434.31,-18.52"/>
</a>
</g>
</g>
<!-- Node31&#45;&gt;Node18 -->
<g id="edge44_Node000031_Node000018" class="edge">
<title>Node31&#45;&gt;Node18</title>
<g id="a_edge44_Node000031_Node000018"><a xlink:title=" ">
<path fill="none" stroke="#63b8ff" d="M123.03,-54.98C140.23,-46.38 167,-33 186.69,-23.16"/>
<polygon fill="#63b8ff" stroke="#63b8ff" points="188.33,-26.25 195.71,-18.65 185.2,-19.99 188.33,-26.25"/>
</a>
</g>
</g>
<!-- Node32 -->
<g id="Node000032" class="node">
<title>Node32</title>
<g id="a_Node000032"><a xlink:title=" ">
<polygon fill="#e0e0e0" stroke="#999999" points="125,-19 87,-19 87,0 125,0 125,-19"/>
<text text-anchor="middle" x="106" y="-7" font-family="Helvetica,sans-Serif" font-size="10.00">map</text>
</a>
</g>
</g>
<!-- Node31&#45;&gt;Node32 -->
<g id="edge43_Node000031_Node000032" class="edge">
<title>Node31&#45;&gt;Node32</title>
<g id="a_edge43_Node000031_Node000032"><a xlink:title=" ">
<path fill="none" stroke="#63b8ff" d="M106,-54.75C106,-47.8 106,-37.85 106,-29.13"/>
<polygon fill="#63b8ff" stroke="#63b8ff" points="109.5,-29.09 106,-19.09 102.5,-29.09 109.5,-29.09"/>
</a>
</g>
</g>
<!-- Node33&#45;&gt;Node2 -->
<g id="edge46_Node000033_Node000002" class="edge">
<title>Node33&#45;&gt;Node2</title>
<g id="a_edge46_Node000033_Node000002"><a xlink:title=" ">
<path fill="none" stroke="#63b8ff" d="M921.37,-329.8C968.5,-298.82 1078.82,-220.57 1142,-129 1151.41,-115.36 1157.73,-97.54 1161.5,-84.26"/>
<polygon fill="#63b8ff" stroke="#63b8ff" points="1164.95,-84.91 1164.1,-74.35 1158.18,-83.14 1164.95,-84.91"/>
</a>
</g>
</g>
<!-- Node33&#45;&gt;Node5 -->
<g id="edge78_Node000033_Node000005" class="edge">
<title>Node33&#45;&gt;Node5</title>
<g id="a_edge78_Node000033_Node000005"><a xlink:title=" ">
<path fill="none" stroke="#63b8ff" d="M874.45,-329.94C829.29,-303.63 730.75,-244.2 655,-184 590.03,-132.37 582.06,-110.09 520,-55 508.64,-44.92 495.5,-34.07 485.03,-25.61"/>
<polygon fill="#63b8ff" stroke="#63b8ff" points="486.94,-22.66 476.95,-19.14 482.56,-28.12 486.94,-22.66"/>
</a>
</g>
</g>
<!-- Node33&#45;&gt;Node8 -->
<g id="edge47_Node000033_Node000008" class="edge">
<title>Node33&#45;&gt;Node8</title>
<g id="a_edge47_Node000033_Node000008"><a xlink:title=" ">
<path fill="none" stroke="#63b8ff" d="M842.41,-335.62C768.96,-324.74 641.26,-305.83 565.49,-294.61"/>
<polygon fill="#63b8ff" stroke="#63b8ff" points="565.56,-291.08 555.15,-293.08 564.53,-298 565.56,-291.08"/>
</a>
</g>
</g>
<!-- Node33&#45;&gt;Node14 -->
<g id="edge74_Node000033_Node000014" class="edge">
<title>Node33&#45;&gt;Node14</title>
<g id="a_edge74_Node000033_Node000014"><a xlink:title=" ">
<path fill="none" stroke="#63b8ff" d="M899.3,-329.98C899.35,-289.46 893.68,-171.21 829,-110 781.54,-65.08 748.47,-89.12 683.8,-75.01"/>
<polygon fill="#63b8ff" stroke="#63b8ff" points="684.57,-71.6 674.03,-72.64 682.92,-78.4 684.57,-71.6"/>
</a>
</g>
</g>
<!-- Node33&#45;&gt;Node18 -->
<g id="edge76_Node000033_Node000018" class="edge">
<title>Node33&#45;&gt;Node18</title>
<g id="a_edge76_Node000033_Node000018"><a xlink:title=" ">
<path fill="none" stroke="#63b8ff" d="M842.49,-340.6C678.15,-329.98 212,-294.23 212,-230.5 212,-230.5 212,-230.5 212,-118.5 212,-87.19 212,-50.77 212,-29.23"/>
<polygon fill="#63b8ff" stroke="#63b8ff" points="215.5,-29.18 212,-19.18 208.5,-29.18 215.5,-29.18"/>
</a>
</g>
</g>
<!-- Node34 -->
<g id="Node000034" class="node">
<title>Node34</title>
<g id="a_Node000034"><a xlink:href="goto__instruction__code_8h.html" target="_top" xlink:title=" ">
<polygon fill="white" stroke="#666666" points="1385.5,-294 1252.5,-294 1252.5,-275 1385.5,-275 1385.5,-294"/>
<text text-anchor="middle" x="1319" y="-282" font-family="Helvetica,sans-Serif" font-size="10.00">goto_instruction_code.h</text>
</a>
</g>
</g>
<!-- Node33&#45;&gt;Node34 -->
<g id="edge48_Node000033_Node000034" class="edge">
<title>Node33&#45;&gt;Node34</title>
<g id="a_edge48_Node000033_Node000034"><a xlink:title=" ">
<path fill="none" stroke="#63b8ff" d="M955.64,-336.11C1031.3,-325.57 1165.36,-306.9 1247.78,-295.42"/>
<polygon fill="#63b8ff" stroke="#63b8ff" points="1248.39,-298.87 1257.82,-294.02 1247.43,-291.94 1248.39,-298.87"/>
</a>
</g>
</g>
<!-- Node49 -->
<g id="Node000049" class="node">
<title>Node49</title>
<g id="a_Node000049"><a xlink:title=" ">
<polygon fill="#e0e0e0" stroke="#999999" points="1126,-294 1082,-294 1082,-275 1126,-275 1126,-294"/>
<text text-anchor="middle" x="1104" y="-282" font-family="Helvetica,sans-Serif" font-size="10.00">limits</text>
</a>
</g>
</g>
<!-- Node33&#45;&gt;Node49 -->
<g id="edge75_Node000033_Node000049" class="edge">
<title>Node33&#45;&gt;Node49</title>
<g id="a_edge75_Node000033_Node000049"><a xlink:title=" ">
<path fill="none" stroke="#63b8ff" d="M948.1,-329.99C986.64,-318.99 1039.15,-304.01 1072.31,-294.54"/>
<polygon fill="#63b8ff" stroke="#63b8ff" points="1073.29,-297.9 1081.95,-291.79 1071.37,-291.17 1073.29,-297.9"/>
</a>
</g>
</g>
<!-- Node50 -->
<g id="Node000050" class="node">
<title>Node50</title>
<g id="a_Node000050"><a xlink:title=" ">
<polygon fill="#e0e0e0" stroke="#999999" points="1176,-294 1144,-294 1144,-275 1176,-275 1176,-294"/>
<text text-anchor="middle" x="1160" y="-282" font-family="Helvetica,sans-Serif" font-size="10.00">set</text>
</a>
</g>
</g>
<!-- Node33&#45;&gt;Node50 -->
<g id="edge77_Node000033_Node000050" class="edge">
<title>Node33&#45;&gt;Node50</title>
<g id="a_edge77_Node000033_Node000050"><a xlink:title=" ">
<path fill="none" stroke="#63b8ff" d="M955.72,-333.95C1001.56,-325.38 1067.85,-311.98 1134.17,-293.96"/>
<polygon fill="#63b8ff" stroke="#63b8ff" points="1135.24,-297.3 1143.95,-291.27 1133.38,-290.55 1135.24,-297.3"/>
</a>
</g>
</g>
<!-- Node35 -->
<g id="Node000035" class="node">
<title>Node35</title>
<g id="a_Node000035"><a xlink:href="std__code__base_8h.html" target="_top" xlink:title=" ">
<polygon fill="white" stroke="#666666" points="1496,-239 1380,-239 1380,-220 1496,-220 1496,-239"/>
<text text-anchor="middle" x="1438" y="-227" font-family="Helvetica,sans-Serif" font-size="10.00">util/std_code_base.h</text>
</a>
</g>
</g>
<!-- Node34&#45;&gt;Node35 -->
<g id="edge49_Node000034_Node000035" class="edge">
<title>Node34&#45;&gt;Node35</title>
<g id="a_edge49_Node000034_Node000035"><a xlink:title=" ">
<path fill="none" stroke="#63b8ff" d="M1338.12,-274.98C1357.35,-266.42 1387.23,-253.11 1409.31,-243.28"/>
<polygon fill="#63b8ff" stroke="#63b8ff" points="1410.82,-246.44 1418.53,-239.17 1407.97,-240.04 1410.82,-246.44"/>
</a>
</g>
</g>
<!-- Node48 -->
<g id="Node000048" class="node">
<title>Node48</title>
<g id="a_Node000048"><a xlink:href="std__expr_8h.html" target="_top" xlink:title="API to expression classes.">
<polygon fill="white" stroke="#666666" points="1362,-239 1276,-239 1276,-220 1362,-220 1362,-239"/>
<text text-anchor="middle" x="1319" y="-227" font-family="Helvetica,sans-Serif" font-size="10.00">util/std_expr.h</text>
</a>
</g>
</g>
<!-- Node34&#45;&gt;Node48 -->
<g id="edge70_Node000034_Node000048" class="edge">
<title>Node34&#45;&gt;Node48</title>
<g id="a_edge70_Node000034_Node000048"><a xlink:title=" ">
<path fill="none" stroke="#63b8ff" d="M1319,-274.75C1319,-267.8 1319,-257.85 1319,-249.13"/>
<polygon fill="#63b8ff" stroke="#63b8ff" points="1322.5,-249.09 1319,-239.09 1315.5,-249.09 1322.5,-249.09"/>
</a>
</g>
</g>
<!-- Node35&#45;&gt;Node2 -->
<g id="edge58_Node000035_Node000002" class="edge">
<title>Node35&#45;&gt;Node2</title>
<g id="a_edge58_Node000035_Node000002"><a xlink:title=" ">
<path fill="none" stroke="#63b8ff" d="M1402.54,-219.99C1376.94,-212.85 1342.23,-201.06 1315,-184 1275.05,-158.97 1276.25,-138.9 1239,-110 1223.99,-98.36 1205.75,-87.24 1191.25,-79.02"/>
<polygon fill="#63b8ff" stroke="#63b8ff" points="1192.78,-75.87 1182.34,-74.07 1189.38,-81.99 1192.78,-75.87"/>
</a>
</g>
</g>
<!-- Node36 -->
<g id="Node000036" class="node">
<title>Node36</title>
<g id="a_Node000036"><a xlink:href="expr__cast_8h.html" target="_top" xlink:title="Templated functions to cast to specific exprt&#45;derived classes.">
<polygon fill="white" stroke="#666666" points="1533.5,-129 1460.5,-129 1460.5,-110 1533.5,-110 1533.5,-129"/>
<text text-anchor="middle" x="1497" y="-117" font-family="Helvetica,sans-Serif" font-size="10.00">expr_cast.h</text>
</a>
</g>
</g>
<!-- Node35&#45;&gt;Node36 -->
<g id="edge50_Node000035_Node000036" class="edge">
<title>Node35&#45;&gt;Node36</title>
<g id="a_edge50_Node000035_Node000036"><a xlink:title=" ">
<path fill="none" stroke="#63b8ff" d="M1442.83,-219.66C1452.56,-201.85 1474.68,-161.37 1487.44,-138.01"/>
<polygon fill="#63b8ff" stroke="#63b8ff" points="1490.55,-139.61 1492.27,-129.16 1484.4,-136.26 1490.55,-139.61"/>
</a>
</g>
</g>
<!-- Node45 -->
<g id="Node000045" class="node">
<title>Node45</title>
<g id="a_Node000045"><a xlink:href="std__types_8h.html" target="_top" xlink:title="Pre&#45;defined types.">
<polygon fill="white" stroke="#666666" points="1397.5,-184 1324.5,-184 1324.5,-165 1397.5,-165 1397.5,-184"/>
<text text-anchor="middle" x="1361" y="-172" font-family="Helvetica,sans-Serif" font-size="10.00">std_types.h</text>
</a>
</g>
</g>
<!-- Node35&#45;&gt;Node45 -->
<g id="edge59_Node000035_Node000045" class="edge">
<title>Node35&#45;&gt;Node45</title>
<g id="a_edge59_Node000035_Node000045"><a xlink:title=" ">
<path fill="none" stroke="#63b8ff" d="M1425.63,-219.98C1413.91,-211.92 1396.08,-199.65 1382.11,-190.03"/>
<polygon fill="#63b8ff" stroke="#63b8ff" points="1383.82,-186.96 1373.6,-184.17 1379.85,-192.72 1383.82,-186.96"/>
</a>
</g>
</g>
<!-- Node40 -->
<g id="Node000040" class="node">
<title>Node40</title>
<g id="a_Node000040"><a xlink:href="validate_8h.html" target="_top" xlink:title=" ">
<polygon fill="#fff0f0" stroke="red" points="1616.5,-129 1551.5,-129 1551.5,-110 1616.5,-110 1616.5,-129"/>
<text text-anchor="middle" x="1584" y="-117" font-family="Helvetica,sans-Serif" font-size="10.00">validate.h</text>
</a>
</g>
</g>
<!-- Node35&#45;&gt;Node40 -->
<g id="edge69_Node000035_Node000040" class="edge">
<title>Node35&#45;&gt;Node40</title>
<g id="a_edge69_Node000035_Node000040"><a xlink:title=" ">
<path fill="none" stroke="#63b8ff" d="M1449.7,-219.84C1474.58,-201.44 1532.99,-158.23 1563.94,-135.34"/>
<polygon fill="#63b8ff" stroke="#63b8ff" points="1566.29,-137.96 1572.24,-129.2 1562.12,-132.33 1566.29,-137.96"/>
</a>
</g>
</g>
<!-- Node36&#45;&gt;Node2 -->
<g id="edge54_Node000036_Node000002" class="edge">
<title>Node36&#45;&gt;Node2</title>
<g id="a_edge54_Node000036_Node000002"><a xlink:title=" ">
<path fill="none" stroke="#63b8ff" d="M1460.31,-112.63C1402.04,-103.29 1287.99,-85.03 1220.25,-74.19"/>
<polygon fill="#63b8ff" stroke="#63b8ff" points="1220.63,-70.7 1210.2,-72.58 1219.52,-77.61 1220.63,-70.7"/>
</a>
</g>
</g>
<!-- Node36&#45;&gt;Node6 -->
<g id="edge52_Node000036_Node000006" class="edge">
<title>Node36&#45;&gt;Node6</title>
<g id="a_edge52_Node000036_Node000006"><a xlink:title=" ">
<path fill="none" stroke="#63b8ff" d="M1531.63,-109.98C1566.59,-99.73 1612.67,-80.64 1592,-55 1589.45,-51.84 1491.13,-31.52 1431.6,-19.46"/>
<polygon fill="#63b8ff" stroke="#63b8ff" points="1432.17,-16 1421.68,-17.45 1430.79,-22.87 1432.17,-16"/>
</a>
</g>
</g>
<!-- Node36&#45;&gt;Node29 -->
<g id="edge53_Node000036_Node000029" class="edge">
<title>Node36&#45;&gt;Node29</title>
<g id="a_edge53_Node000036_Node000029"><a xlink:title=" ">
<path fill="none" stroke="#63b8ff" d="M1494.95,-109.66C1490.89,-92.09 1481.71,-52.45 1476.27,-28.95"/>
<polygon fill="#63b8ff" stroke="#63b8ff" points="1479.67,-28.11 1474,-19.16 1472.85,-29.69 1479.67,-28.11"/>
</a>
</g>
</g>
<!-- Node37 -->
<g id="Node000037" class="node">
<title>Node37</title>
<g id="a_Node000037"><a xlink:title=" ">
<polygon fill="#e0e0e0" stroke="#999999" points="1583.5,-74 1526.5,-74 1526.5,-55 1583.5,-55 1583.5,-74"/>
<text text-anchor="middle" x="1555" y="-62" font-family="Helvetica,sans-Serif" font-size="10.00">typeinfo</text>
</a>
</g>
</g>
<!-- Node36&#45;&gt;Node37 -->
<g id="edge51_Node000036_Node000037" class="edge">
<title>Node36&#45;&gt;Node37</title>
<g id="a_edge51_Node000036_Node000037"><a xlink:title=" ">
<path fill="none" stroke="#63b8ff" d="M1506.32,-109.98C1514.81,-102.23 1527.56,-90.58 1537.88,-81.14"/>
<polygon fill="#63b8ff" stroke="#63b8ff" points="1540.49,-83.5 1545.51,-74.17 1535.77,-78.33 1540.49,-83.5"/>
</a>
</g>
</g>
<!-- Node38 -->
<g id="Node000038" class="node">
<title>Node38</title>
<g id="a_Node000038"><a xlink:href="expr_8h.html" target="_top" xlink:title=" ">
<polygon fill="#fff0f0" stroke="red" points="1469.5,-74 1422.5,-74 1422.5,-55 1469.5,-55 1469.5,-74"/>
<text text-anchor="middle" x="1446" y="-62" font-family="Helvetica,sans-Serif" font-size="10.00">expr.h</text>
</a>
</g>
</g>
<!-- Node36&#45;&gt;Node38 -->
<g id="edge55_Node000036_Node000038" class="edge">
<title>Node36&#45;&gt;Node38</title>
<g id="a_edge55_Node000036_Node000038"><a xlink:title=" ">
<path fill="none" stroke="#63b8ff" d="M1488.58,-109.75C1481.23,-102.11 1470.37,-90.82 1461.46,-81.56"/>
<polygon fill="#63b8ff" stroke="#63b8ff" points="1463.72,-78.87 1454.26,-74.09 1458.68,-83.72 1463.72,-78.87"/>
</a>
</g>
</g>
<!-- Node38&#45;&gt;Node26 -->
<g id="edge56_Node000038_Node000026" class="edge">
<title>Node38&#45;&gt;Node26</title>
<g id="a_edge56_Node000038_Node000026"><a xlink:title=" ">
<path fill="none" stroke="#63b8ff" d="M1422.54,-54.98C1398.42,-46.23 1360.63,-32.51 1333.4,-22.62"/>
<polygon fill="#63b8ff" stroke="#63b8ff" points="1334.48,-19.29 1323.88,-19.17 1332.09,-25.87 1334.48,-19.29"/>
</a>
</g>
</g>
<!-- Node38&#45;&gt;Node29 -->
<g id="edge57_Node000038_Node000029" class="edge">
<title>Node38&#45;&gt;Node29</title>
<g id="a_edge57_Node000038_Node000029"><a xlink:title=" ">
<path fill="none" stroke="#63b8ff" d="M1450.29,-54.75C1453.81,-47.57 1458.91,-37.18 1463.28,-28.27"/>
<polygon fill="#63b8ff" stroke="#63b8ff" points="1466.52,-29.61 1467.79,-19.09 1460.24,-26.53 1466.52,-29.61"/>
</a>
</g>
</g>
<!-- Node45&#45;&gt;Node2 -->
<g id="edge62_Node000045_Node000002" class="edge">
<title>Node45&#45;&gt;Node2</title>
<g id="a_edge62_Node000045_Node000002"><a xlink:title=" ">
<path fill="none" stroke="#63b8ff" d="M1354.06,-164.89C1342.78,-151.43 1319.19,-125.33 1294,-110 1269.07,-94.83 1238.25,-83.92 1213.1,-76.69"/>
<polygon fill="#63b8ff" stroke="#63b8ff" points="1213.98,-73.3 1203.41,-74.01 1212.11,-80.05 1213.98,-73.3"/>
</a>
</g>
</g>
<!-- Node45&#45;&gt;Node19 -->
<g id="edge68_Node000045_Node000019" class="edge">
<title>Node45&#45;&gt;Node19</title>
<g id="a_edge68_Node000045_Node000019"><a xlink:title=" ">
<path fill="none" stroke="#63b8ff" d="M1356.61,-164.69C1349.96,-151.86 1336.47,-127.63 1321,-110 1290.66,-75.43 1247.71,-42.9 1222.27,-24.95"/>
<polygon fill="#63b8ff" stroke="#63b8ff" points="1224.26,-22.07 1214.05,-19.22 1220.26,-27.81 1224.26,-22.07"/>
</a>
</g>
</g>
<!-- Node45&#45;&gt;Node36 -->
<g id="edge61_Node000045_Node000036" class="edge">
<title>Node45&#45;&gt;Node36</title>
<g id="a_edge61_Node000045_Node000036"><a xlink:title=" ">
<path fill="none" stroke="#63b8ff" d="M1382.85,-164.98C1405.12,-156.3 1439.9,-142.75 1465.22,-132.88"/>
<polygon fill="#63b8ff" stroke="#63b8ff" points="1466.71,-136.06 1474.75,-129.17 1464.16,-129.54 1466.71,-136.06"/>
</a>
</g>
</g>
<!-- Node45&#45;&gt;Node38 -->
<g id="edge60_Node000045_Node000038" class="edge">
<title>Node45&#45;&gt;Node38</title>
<g id="a_edge60_Node000045_Node000038"><a xlink:title=" ">
<path fill="none" stroke="#63b8ff" d="M1371.89,-164.69C1381.98,-156.21 1397.03,-142.67 1408,-129 1419.53,-114.62 1430.07,-96.42 1437.11,-83.2"/>
<polygon fill="#63b8ff" stroke="#63b8ff" points="1440.28,-84.69 1441.77,-74.2 1434.06,-81.47 1440.28,-84.69"/>
</a>
</g>
</g>
<!-- Node46 -->
<g id="Node000046" class="node">
<title>Node46</title>
<g id="a_Node000046"><a xlink:href="mp__arith_8h.html" target="_top" xlink:title=" ">
<polygon fill="#fff0f0" stroke="red" points="945.5,-129 876.5,-129 876.5,-110 945.5,-110 945.5,-129"/>
<text text-anchor="middle" x="911" y="-117" font-family="Helvetica,sans-Serif" font-size="10.00">mp_arith.h</text>
</a>
</g>
</g>
<!-- Node45&#45;&gt;Node46 -->
<g id="edge63_Node000045_Node000046" class="edge">
<title>Node45&#45;&gt;Node46</title>
<g id="a_edge63_Node000045_Node000046"><a xlink:title=" ">
<path fill="none" stroke="#63b8ff" d="M1324.17,-169.16C1242.1,-159.5 1044.4,-136.21 955.56,-125.75"/>
<polygon fill="#63b8ff" stroke="#63b8ff" points="955.87,-122.26 945.53,-124.57 955.05,-129.21 955.87,-122.26"/>
</a>
</g>
</g>
<!-- Node45&#45;&gt;Node40 -->
<g id="edge66_Node000045_Node000040" class="edge">
<title>Node45&#45;&gt;Node40</title>
<g id="a_edge66_Node000045_Node000040"><a xlink:title=" ">
<path fill="none" stroke="#63b8ff" d="M1396.83,-164.98C1436.18,-155.63 1499.35,-140.62 1541.26,-130.66"/>
<polygon fill="#63b8ff" stroke="#63b8ff" points="1542.25,-134.02 1551.17,-128.3 1540.63,-127.21 1542.25,-134.02"/>
</a>
</g>
</g>
<!-- Node46&#45;&gt;Node5 -->
<g id="edge65_Node000046_Node000005" class="edge">
<title>Node46&#45;&gt;Node5</title>
<g id="a_edge65_Node000046_Node000005"><a xlink:title=" ">
<path fill="none" stroke="#63b8ff" d="M882.73,-109.94C839.8,-97.11 755.49,-72.51 683,-55 617.87,-39.27 540.87,-24.34 498.34,-16.41"/>
<polygon fill="#63b8ff" stroke="#63b8ff" points="498.76,-12.92 488.29,-14.54 497.49,-19.81 498.76,-12.92"/>
</a>
</g>
</g>
<!-- Node46&#45;&gt;Node14 -->
<g id="edge64_Node000046_Node000014" class="edge">
<title>Node46&#45;&gt;Node14</title>
<g id="a_edge64_Node000046_Node000014"><a xlink:title=" ">
<path fill="none" stroke="#63b8ff" d="M876.34,-111.46C826.24,-101.29 734.14,-82.59 684.26,-72.46"/>
<polygon fill="#63b8ff" stroke="#63b8ff" points="684.79,-68.99 674.29,-70.43 683.39,-75.85 684.79,-68.99"/>
</a>
</g>
</g>
<!-- Node40&#45;&gt;Node6 -->
<g id="edge67_Node000040_Node000006" class="edge">
<title>Node40&#45;&gt;Node6</title>
<g id="a_edge67_Node000040_Node000006"><a xlink:title=" ">
<path fill="none" stroke="#63b8ff" d="M1592.49,-109.83C1604.27,-96.74 1622.67,-71.68 1609,-55 1608.65,-54.57 1496.28,-32.2 1431.57,-19.34"/>
<polygon fill="#63b8ff" stroke="#63b8ff" points="1432.11,-15.88 1421.62,-17.37 1430.74,-22.75 1432.11,-15.88"/>
</a>
</g>
</g>
<!-- Node48&#45;&gt;Node2 -->
<g id="edge72_Node000048_Node000002" class="edge">
<title>Node48&#45;&gt;Node2</title>
<g id="a_edge72_Node000048_Node000002"><a xlink:title=" ">
<path fill="none" stroke="#63b8ff" d="M1306.74,-219.86C1295.38,-211.5 1278.41,-198.04 1266,-184 1240.04,-154.63 1243.83,-139.49 1218,-110 1208.46,-99.11 1196.22,-88.5 1186.01,-80.37"/>
<polygon fill="#63b8ff" stroke="#63b8ff" points="1188.06,-77.54 1178.01,-74.18 1183.78,-83.07 1188.06,-77.54"/>
</a>
</g>
</g>
<!-- Node48&#45;&gt;Node36 -->
<g id="edge71_Node000048_Node000036" class="edge">
<title>Node48&#45;&gt;Node36</title>
<g id="a_edge71_Node000048_Node000036"><a xlink:title=" ">
<path fill="none" stroke="#63b8ff" d="M1337.39,-220C1355.27,-211.52 1383.02,-197.81 1406,-184 1431.69,-168.57 1459.75,-148.45 1477.83,-135.03"/>
<polygon fill="#63b8ff" stroke="#63b8ff" points="1479.93,-137.83 1485.84,-129.03 1475.74,-132.22 1479.93,-137.83"/>
</a>
</g>
</g>
<!-- Node48&#45;&gt;Node45 -->
<g id="edge73_Node000048_Node000045" class="edge">
<title>Node48&#45;&gt;Node45</title>
<g id="a_edge73_Node000048_Node000045"><a xlink:title=" ">
<path fill="none" stroke="#63b8ff" d="M1325.94,-219.75C1331.87,-212.26 1340.57,-201.28 1347.82,-192.13"/>
<polygon fill="#63b8ff" stroke="#63b8ff" points="1350.73,-194.1 1354.19,-184.09 1345.24,-189.75 1350.73,-194.1"/>
</a>
</g>
</g>
</g>
</svg>
