<?xml version="1.0" encoding="UTF-8" standalone="no"?>
<!DOCTYPE svg PUBLIC "-//W3C//DTD SVG 1.1//EN"
 "http://www.w3.org/Graphics/SVG/1.1/DTD/svg11.dtd">
<!-- Generated by graphviz version 2.43.0 (0)
 -->
<!-- Title: /home/runner/work/cbmc/cbmc/src/cprover/sentinel_dll.h Pages: 1 -->
<svg width="839pt" height="192pt"
 viewBox="0.00 0.00 839.00 192.00" xmlns="http://www.w3.org/2000/svg" xmlns:xlink="http://www.w3.org/1999/xlink">
<g id="graph0" class="graph" transform="scale(1 1) rotate(0) translate(4 188)">
<title>/home/runner/work/cbmc/cbmc/src/cprover/sentinel_dll.h</title>
<!-- Node1 -->
<g id="Node000001" class="node">
<title>Node1</title>
<g id="a_Node000001"><a xlink:title=" ">
<polygon fill="#999999" stroke="#666666" points="605.5,-184 434.5,-184 434.5,-154 605.5,-154 605.5,-184"/>
<text text-anchor="start" x="442.5" y="-172" font-family="Helvetica,sans-Serif" font-size="10.00">/home/runner/work/cbmc</text>
<text text-anchor="middle" x="520" y="-161" font-family="Helvetica,sans-Serif" font-size="10.00">/cbmc/src/cprover/sentinel_dll.h</text>
</a>
</g>
</g>
<!-- Node2 -->
<g id="Node000002" class="node">
<title>Node2</title>
<g id="a_Node000002"><a xlink:href="axioms_8h.html" target="_top" xlink:title="Axioms.">
<polygon fill="white" stroke="#666666" points="348.5,-112.5 197.5,-112.5 197.5,-82.5 348.5,-82.5 348.5,-112.5"/>
<text text-anchor="start" x="205.5" y="-100.5" font-family="Helvetica,sans-Serif" font-size="10.00">/home/runner/work/cbmc</text>
<text text-anchor="middle" x="273" y="-89.5" font-family="Helvetica,sans-Serif" font-size="10.00">/cbmc/src/cprover/axioms.h</text>
</a>
</g>
</g>
<!-- Node1&#45;&gt;Node2 -->
<g id="edge1_Node000001_Node000002" class="edge">
<title>Node1&#45;&gt;Node2</title>
<g id="a_edge1_Node000001_Node000002"><a xlink:title=" ">
<path fill="none" stroke="#63b8ff" d="M460.18,-151.17C418.15,-139.34 362.56,-123.7 322.91,-112.54"/>
<polygon fill="#63b8ff" stroke="#63b8ff" points="459.44,-154.6 470.02,-153.94 461.34,-147.86 459.44,-154.6"/>
</a>
</g>
</g>
<!-- Node6 -->
<g id="Node000006" class="node">
<title>Node6</title>
<g id="a_Node000006"><a xlink:href="sentinel__dll_8cpp.html" target="_top" xlink:title="Axioms.">
<polygon fill="white" stroke="#666666" points="511.5,-118 366.5,-118 366.5,-77 511.5,-77 511.5,-118"/>
<text text-anchor="start" x="374.5" y="-106" font-family="Helvetica,sans-Serif" font-size="10.00">/home/runner/work/cbmc</text>
<text text-anchor="start" x="374.5" y="-95" font-family="Helvetica,sans-Serif" font-size="10.00">/cbmc/src/cprover/sentinel</text>
<text text-anchor="middle" x="439" y="-84" font-family="Helvetica,sans-Serif" font-size="10.00">_dll.cpp</text>
</a>
</g>
</g>
<!-- Node1&#45;&gt;Node6 -->
<g id="edge5_Node000001_Node000006" class="edge">
<title>Node1&#45;&gt;Node6</title>
<g id="a_edge5_Node000001_Node000006"><a xlink:title=" ">
<path fill="none" stroke="#63b8ff" d="M495.8,-147.23C485.03,-137.99 472.41,-127.17 461.81,-118.07"/>
<polygon fill="#63b8ff" stroke="#63b8ff" points="493.74,-150.08 503.61,-153.94 498.3,-144.77 493.74,-150.08"/>
</a>
</g>
</g>
<!-- Node7 -->
<g id="Node000007" class="node">
<title>Node7</title>
<g id="a_Node000007"><a xlink:href="simplify__state__expr_8cpp.html" target="_top" xlink:title="Simplify State Expressions.">
<polygon fill="white" stroke="#666666" points="674.5,-118 529.5,-118 529.5,-77 674.5,-77 674.5,-118"/>
<text text-anchor="start" x="537.5" y="-106" font-family="Helvetica,sans-Serif" font-size="10.00">/home/runner/work/cbmc</text>
<text text-anchor="start" x="537.5" y="-95" font-family="Helvetica,sans-Serif" font-size="10.00">/cbmc/src/cprover/simplify</text>
<text text-anchor="middle" x="602" y="-84" font-family="Helvetica,sans-Serif" font-size="10.00">_state_expr.cpp</text>
</a>
</g>
</g>
<!-- Node1&#45;&gt;Node7 -->
<g id="edge6_Node000001_Node000007" class="edge">
<title>Node1&#45;&gt;Node7</title>
<g id="a_edge6_Node000001_Node000007"><a xlink:title=" ">
<path fill="none" stroke="#63b8ff" d="M544.5,-147.23C555.4,-137.99 568.17,-127.17 578.91,-118.07"/>
<polygon fill="#63b8ff" stroke="#63b8ff" points="541.96,-144.8 536.59,-153.94 546.49,-150.14 541.96,-144.8"/>
</a>
</g>
</g>
<!-- Node8 -->
<g id="Node000008" class="node">
<title>Node8</title>
<g id="a_Node000008"><a xlink:href="state__encoding_8cpp.html" target="_top" xlink:title=" ">
<polygon fill="white" stroke="#666666" points="831,-118 693,-118 693,-77 831,-77 831,-118"/>
<text text-anchor="start" x="701" y="-106" font-family="Helvetica,sans-Serif" font-size="10.00">/home/runner/work/cbmc</text>
<text text-anchor="start" x="701" y="-95" font-family="Helvetica,sans-Serif" font-size="10.00">/cbmc/src/cprover/state</text>
<text text-anchor="middle" x="762" y="-84" font-family="Helvetica,sans-Serif" font-size="10.00">_encoding.cpp</text>
</a>
</g>
</g>
<!-- Node1&#45;&gt;Node8 -->
<g id="edge7_Node000001_Node000008" class="edge">
<title>Node1&#45;&gt;Node8</title>
<g id="a_edge7_Node000001_Node000008"><a xlink:title=" ">
<path fill="none" stroke="#63b8ff" d="M578.96,-151.07C613.65,-141.11 657.67,-128.46 693.84,-118.07"/>
<polygon fill="#63b8ff" stroke="#63b8ff" points="577.62,-147.81 568.97,-153.94 579.55,-154.54 577.62,-147.81"/>
</a>
</g>
</g>
<!-- Node3 -->
<g id="Node000003" class="node">
<title>Node3</title>
<g id="a_Node000003"><a xlink:href="axioms_8cpp.html" target="_top" xlink:title="Axioms.">
<polygon fill="white" stroke="#666666" points="162,-35.5 0,-35.5 0,-5.5 162,-5.5 162,-35.5"/>
<text text-anchor="start" x="8" y="-23.5" font-family="Helvetica,sans-Serif" font-size="10.00">/home/runner/work/cbmc</text>
<text text-anchor="middle" x="81" y="-12.5" font-family="Helvetica,sans-Serif" font-size="10.00">/cbmc/src/cprover/axioms.cpp</text>
</a>
</g>
</g>
<!-- Node2&#45;&gt;Node3 -->
<g id="edge2_Node000002_Node000003" class="edge">
<title>Node2&#45;&gt;Node3</title>
<g id="a_edge2_Node000002_Node000003"><a xlink:title=" ">
<path fill="none" stroke="#63b8ff" d="M227.25,-78.63C193.47,-65.43 148.15,-47.73 116.95,-35.54"/>
<polygon fill="#63b8ff" stroke="#63b8ff" points="226.3,-82.01 236.89,-82.39 228.85,-75.49 226.3,-82.01"/>
</a>
</g>
</g>
<!-- Node4 -->
<g id="Node000004" class="node">
<title>Node4</title>
<g id="a_Node000004"><a xlink:href="counterexample__found_8cpp.html" target="_top" xlink:title="Counterexample Found.">
<polygon fill="white" stroke="#666666" points="365.5,-41 180.5,-41 180.5,0 365.5,0 365.5,-41"/>
<text text-anchor="start" x="188.5" y="-29" font-family="Helvetica,sans-Serif" font-size="10.00">/home/runner/work/cbmc</text>
<text text-anchor="start" x="188.5" y="-18" font-family="Helvetica,sans-Serif" font-size="10.00">/cbmc/src/cprover/counterexample</text>
<text text-anchor="middle" x="273" y="-7" font-family="Helvetica,sans-Serif" font-size="10.00">_found.cpp</text>
</a>
</g>
</g>
<!-- Node2&#45;&gt;Node4 -->
<g id="edge3_Node000002_Node000004" class="edge">
<title>Node2&#45;&gt;Node4</title>
<g id="a_edge3_Node000002_Node000004"><a xlink:title=" ">
<path fill="none" stroke="#63b8ff" d="M273,-72.23C273,-62.2 273,-50.71 273,-41.2"/>
<polygon fill="#63b8ff" stroke="#63b8ff" points="269.5,-72.39 273,-82.39 276.5,-72.39 269.5,-72.39"/>
</a>
</g>
</g>
<!-- Node5 -->
<g id="Node000005" class="node">
<title>Node5</title>
<g id="a_Node000005"><a xlink:href="inductiveness_8cpp.html" target="_top" xlink:title="Inductiveness.">
<polygon fill="white" stroke="#666666" points="577,-35.5 383,-35.5 383,-5.5 577,-5.5 577,-35.5"/>
<text text-anchor="start" x="391" y="-23.5" font-family="Helvetica,sans-Serif" font-size="10.00">/home/runner/work/cbmc</text>
<text text-anchor="middle" x="480" y="-12.5" font-family="Helvetica,sans-Serif" font-size="10.00">/cbmc/src/cprover/inductiveness.cpp</text>
</a>
</g>
</g>
<!-- Node2&#45;&gt;Node5 -->
<g id="edge4_Node000002_Node000005" class="edge">
<title>Node2&#45;&gt;Node5</title>
<g id="a_edge4_Node000002_Node000005"><a xlink:title=" ">
<path fill="none" stroke="#63b8ff" d="M321.39,-78.97C357.9,-65.74 407.32,-47.83 441.24,-35.54"/>
<polygon fill="#63b8ff" stroke="#63b8ff" points="320.14,-75.7 311.94,-82.39 322.53,-82.28 320.14,-75.7"/>
</a>
</g>
</g>
</g>
</svg>
