<?xml version="1.0" encoding="UTF-8" standalone="no"?>
<!DOCTYPE svg PUBLIC "-//W3C//DTD SVG 1.1//EN"
 "http://www.w3.org/Graphics/SVG/1.1/DTD/svg11.dtd">
<!-- Generated by graphviz version 2.43.0 (0)
 -->
<!-- Title: /home/runner/work/cbmc/cbmc/src/util/sharing_map.h Pages: 1 -->
<svg width="1716pt" height="379pt"
 viewBox="0.00 0.00 1715.50 379.00" xmlns="http://www.w3.org/2000/svg" xmlns:xlink="http://www.w3.org/1999/xlink">
<g id="graph0" class="graph" transform="scale(1 1) rotate(0) translate(4 375)">
<title>/home/runner/work/cbmc/cbmc/src/util/sharing_map.h</title>
<!-- Node1 -->
<g id="Node000001" class="node">
<title>Node1</title>
<g id="a_Node000001"><a xlink:title="Sharing map.">
<polygon fill="#999999" stroke="#666666" points="1352.5,-371 1195.5,-371 1195.5,-341 1352.5,-341 1352.5,-371"/>
<text text-anchor="start" x="1203.5" y="-359" font-family="Helvetica,sans-Serif" font-size="10.00">/home/runner/work/cbmc</text>
<text text-anchor="middle" x="1274" y="-348" font-family="Helvetica,sans-Serif" font-size="10.00">/cbmc/src/util/sharing_map.h</text>
</a>
</g>
</g>
<!-- Node2 -->
<g id="Node000002" class="node">
<title>Node2</title>
<g id="a_Node000002"><a xlink:href="as__const_8h.html" target="_top" xlink:title=" ">
<polygon fill="white" stroke="#666666" points="746,-189.5 678,-189.5 678,-170.5 746,-170.5 746,-189.5"/>
<text text-anchor="middle" x="712" y="-177.5" font-family="Helvetica,sans-Serif" font-size="10.00">as_const.h</text>
</a>
</g>
</g>
<!-- Node1&#45;&gt;Node2 -->
<g id="edge1_Node000001_Node000002" class="edge">
<title>Node1&#45;&gt;Node2</title>
<g id="a_edge1_Node000001_Node000002"><a xlink:title=" ">
<path fill="none" stroke="#63b8ff" d="M1195.27,-346.07C1070.21,-330.71 833.1,-296.38 763,-250 743.84,-237.32 729.26,-214.88 720.69,-199.04"/>
<polygon fill="#63b8ff" stroke="#63b8ff" points="723.61,-197.06 715.94,-189.75 717.38,-200.25 723.61,-197.06"/>
</a>
</g>
</g>
<!-- Node3 -->
<g id="Node000003" class="node">
<title>Node3</title>
<g id="a_Node000003"><a xlink:href="irep_8h.html" target="_top" xlink:title=" ">
<polygon fill="white" stroke="#666666" points="352,-305 308,-305 308,-286 352,-286 352,-305"/>
<text text-anchor="middle" x="330" y="-293" font-family="Helvetica,sans-Serif" font-size="10.00">irep.h</text>
</a>
</g>
</g>
<!-- Node1&#45;&gt;Node3 -->
<g id="edge2_Node000001_Node000003" class="edge">
<title>Node1&#45;&gt;Node3</title>
<g id="a_edge2_Node000001_Node000003"><a xlink:title=" ">
<path fill="none" stroke="#63b8ff" d="M1195.14,-350.11C999.03,-337.96 495.56,-306.76 362.6,-298.52"/>
<polygon fill="#63b8ff" stroke="#63b8ff" points="362.48,-295.01 352.28,-297.88 362.05,-301.99 362.48,-295.01"/>
</a>
</g>
</g>
<!-- Node4 -->
<g id="Node000004" class="node">
<title>Node4</title>
<g id="a_Node000004"><a xlink:title=" ">
<polygon fill="#e0e0e0" stroke="#999999" points="316,-19 272,-19 272,0 316,0 316,-19"/>
<text text-anchor="middle" x="294" y="-7" font-family="Helvetica,sans-Serif" font-size="10.00">string</text>
</a>
</g>
</g>
<!-- Node1&#45;&gt;Node4 -->
<g id="edge67_Node000001_Node000004" class="edge">
<title>Node1&#45;&gt;Node4</title>
<g id="a_edge67_Node000001_Node000004"><a xlink:title=" ">
<path fill="none" stroke="#63b8ff" d="M1195.24,-354.35C946.79,-351.94 189.91,-341.65 86,-305 41.19,-289.2 0,-289.01 0,-241.5 0,-241.5 0,-241.5 0,-118.5 0,-82.58 19.22,-73.51 50,-55 127.03,-8.68 160.62,-35.34 249,-19 253.02,-18.26 257.24,-17.47 261.42,-16.69"/>
<polygon fill="#63b8ff" stroke="#63b8ff" points="262.4,-20.06 271.57,-14.77 261.1,-13.18 262.4,-20.06"/>
</a>
</g>
</g>
<!-- Node5 -->
<g id="Node000005" class="node">
<title>Node5</title>
<g id="a_Node000005"><a xlink:title=" ">
<polygon fill="#e0e0e0" stroke="#999999" points="113.5,-74 66.5,-74 66.5,-55 113.5,-55 113.5,-74"/>
<text text-anchor="middle" x="90" y="-62" font-family="Helvetica,sans-Serif" font-size="10.00">vector</text>
</a>
</g>
</g>
<!-- Node1&#45;&gt;Node5 -->
<g id="edge70_Node000001_Node000005" class="edge">
<title>Node1&#45;&gt;Node5</title>
<g id="a_edge70_Node000001_Node000005"><a xlink:title=" ">
<path fill="none" stroke="#63b8ff" d="M1195.2,-353.26C995.06,-348.46 470.81,-333.49 299,-305 197.34,-288.14 76,-344.55 76,-241.5 76,-241.5 76,-241.5 76,-179 76,-145.37 82.13,-106.55 86.28,-84.14"/>
<polygon fill="#63b8ff" stroke="#63b8ff" points="89.72,-84.77 88.17,-74.28 82.85,-83.44 89.72,-84.77"/>
</a>
</g>
</g>
<!-- Node9 -->
<g id="Node000009" class="node">
<title>Node9</title>
<g id="a_Node000009"><a xlink:title=" ">
<polygon fill="#e0e0e0" stroke="#999999" points="780.5,-74 711.5,-74 711.5,-55 780.5,-55 780.5,-74"/>
<text text-anchor="middle" x="746" y="-62" font-family="Helvetica,sans-Serif" font-size="10.00">type_traits</text>
</a>
</g>
</g>
<!-- Node1&#45;&gt;Node9 -->
<g id="edge69_Node000001_Node000009" class="edge">
<title>Node1&#45;&gt;Node9</title>
<g id="a_edge69_Node000001_Node000009"><a xlink:title=" ">
<path fill="none" stroke="#63b8ff" d="M1195.29,-348.8C1027.53,-334.53 650,-296.31 650,-241.5 650,-241.5 650,-241.5 650,-179 650,-147.19 649.55,-135.17 669,-110 679.94,-95.83 696.77,-85.37 711.9,-78.16"/>
<polygon fill="#63b8ff" stroke="#63b8ff" points="713.33,-81.36 721.04,-74.09 710.48,-74.97 713.33,-81.36"/>
</a>
</g>
</g>
<!-- Node25 -->
<g id="Node000025" class="node">
<title>Node25</title>
<g id="a_Node000025"><a xlink:href="sharing__node_8h.html" target="_top" xlink:title="Sharing node.">
<polygon fill="white" stroke="#666666" points="978.5,-250 887.5,-250 887.5,-231 978.5,-231 978.5,-250"/>
<text text-anchor="middle" x="933" y="-238" font-family="Helvetica,sans-Serif" font-size="10.00">sharing_node.h</text>
</a>
</g>
</g>
<!-- Node1&#45;&gt;Node25 -->
<g id="edge33_Node000001_Node000025" class="edge">
<title>Node1&#45;&gt;Node25</title>
<g id="a_edge33_Node000001_Node000025"><a xlink:title=" ">
<path fill="none" stroke="#63b8ff" d="M1231.84,-340.97C1164.02,-318.39 1031.87,-274.41 968.53,-253.33"/>
<polygon fill="#63b8ff" stroke="#63b8ff" points="969.57,-249.98 958.97,-250.14 967.36,-256.62 969.57,-249.98"/>
</a>
</g>
</g>
<!-- Node26 -->
<g id="Node000026" class="node">
<title>Node26</title>
<g id="a_Node000026"><a xlink:title=" ">
<polygon fill="#e0e0e0" stroke="#999999" points="1306.5,-189.5 1241.5,-189.5 1241.5,-170.5 1306.5,-170.5 1306.5,-189.5"/>
<text text-anchor="middle" x="1274" y="-177.5" font-family="Helvetica,sans-Serif" font-size="10.00">functional</text>
</a>
</g>
</g>
<!-- Node1&#45;&gt;Node26 -->
<g id="edge60_Node000001_Node000026" class="edge">
<title>Node1&#45;&gt;Node26</title>
<g id="a_edge60_Node000001_Node000026"><a xlink:title=" ">
<path fill="none" stroke="#63b8ff" d="M1274,-340.76C1274,-309.55 1274,-235.11 1274,-199.97"/>
<polygon fill="#63b8ff" stroke="#63b8ff" points="1277.5,-199.68 1274,-189.68 1270.5,-199.68 1277.5,-199.68"/>
</a>
</g>
</g>
<!-- Node32 -->
<g id="Node000032" class="node">
<title>Node32</title>
<g id="a_Node000032"><a xlink:title=" ">
<polygon fill="#e0e0e0" stroke="#999999" points="1345,-129 1287,-129 1287,-110 1345,-110 1345,-129"/>
<text text-anchor="middle" x="1316" y="-117" font-family="Helvetica,sans-Serif" font-size="10.00">memory</text>
</a>
</g>
</g>
<!-- Node1&#45;&gt;Node32 -->
<g id="edge62_Node000001_Node000032" class="edge">
<title>Node1&#45;&gt;Node32</title>
<g id="a_edge62_Node000001_Node000032"><a xlink:title=" ">
<path fill="none" stroke="#63b8ff" d="M1278.13,-340.58C1280.97,-330.61 1284.79,-317.02 1288,-305 1301.02,-256.26 1309.73,-245.06 1316,-195 1318.36,-176.18 1318.01,-154.48 1317.29,-139.37"/>
<polygon fill="#63b8ff" stroke="#63b8ff" points="1320.78,-139.04 1316.7,-129.26 1313.79,-139.45 1320.78,-139.04"/>
</a>
</g>
</g>
<!-- Node36 -->
<g id="Node000036" class="node">
<title>Node36</title>
<g id="a_Node000036"><a xlink:title=" ">
<polygon fill="#e0e0e0" stroke="#999999" points="1442.5,-129 1401.5,-129 1401.5,-110 1442.5,-110 1442.5,-129"/>
<text text-anchor="middle" x="1422" y="-117" font-family="Helvetica,sans-Serif" font-size="10.00">tuple</text>
</a>
</g>
</g>
<!-- Node1&#45;&gt;Node36 -->
<g id="edge68_Node000001_Node000036" class="edge">
<title>Node1&#45;&gt;Node36</title>
<g id="a_edge68_Node000001_Node000036"><a xlink:title=" ">
<path fill="none" stroke="#63b8ff" d="M1283.04,-340.68C1308.88,-299.74 1383.04,-182.23 1411.08,-137.8"/>
<polygon fill="#63b8ff" stroke="#63b8ff" points="1414.1,-139.58 1416.47,-129.26 1408.18,-135.85 1414.1,-139.58"/>
</a>
</g>
</g>
<!-- Node38 -->
<g id="Node000038" class="node">
<title>Node38</title>
<g id="a_Node000038"><a xlink:href="threeval_8h.html" target="_top" xlink:title=" ">
<polygon fill="white" stroke="#666666" points="838,-250 772,-250 772,-231 838,-231 838,-250"/>
<text text-anchor="middle" x="805" y="-238" font-family="Helvetica,sans-Serif" font-size="10.00">threeval.h</text>
</a>
</g>
</g>
<!-- Node1&#45;&gt;Node38 -->
<g id="edge58_Node000001_Node000038" class="edge">
<title>Node1&#45;&gt;Node38</title>
<g id="a_edge58_Node000001_Node000038"><a xlink:title=" ">
<path fill="none" stroke="#63b8ff" d="M1216.02,-340.97C1120.52,-317.86 932.32,-272.31 847.83,-251.86"/>
<polygon fill="#63b8ff" stroke="#63b8ff" points="848.6,-248.45 838.05,-249.5 846.95,-255.25 848.6,-248.45"/>
</a>
</g>
</g>
<!-- Node39 -->
<g id="Node000039" class="node">
<title>Node39</title>
<g id="a_Node000039"><a xlink:title=" ">
<polygon fill="#e0e0e0" stroke="#999999" points="1439,-305 1401,-305 1401,-286 1439,-286 1439,-305"/>
<text text-anchor="middle" x="1420" y="-293" font-family="Helvetica,sans-Serif" font-size="10.00">map</text>
</a>
</g>
</g>
<!-- Node1&#45;&gt;Node39 -->
<g id="edge61_Node000001_Node000039" class="edge">
<title>Node1&#45;&gt;Node39</title>
<g id="a_edge61_Node000001_Node000039"><a xlink:title=" ">
<path fill="none" stroke="#63b8ff" d="M1308.97,-340.99C1334.22,-330.87 1367.88,-317.38 1391.5,-307.92"/>
<polygon fill="#63b8ff" stroke="#63b8ff" points="1392.97,-311.1 1400.95,-304.13 1390.36,-304.6 1392.97,-311.1"/>
</a>
</g>
</g>
<!-- Node40 -->
<g id="Node000040" class="node">
<title>Node40</title>
<g id="a_Node000040"><a xlink:title=" ">
<polygon fill="#e0e0e0" stroke="#999999" points="1513,-305 1457,-305 1457,-286 1513,-286 1513,-305"/>
<text text-anchor="middle" x="1485" y="-293" font-family="Helvetica,sans-Serif" font-size="10.00">optional</text>
</a>
</g>
</g>
<!-- Node1&#45;&gt;Node40 -->
<g id="edge63_Node000001_Node000040" class="edge">
<title>Node1&#45;&gt;Node40</title>
<g id="a_edge63_Node000001_Node000040"><a xlink:title=" ">
<path fill="none" stroke="#63b8ff" d="M1324.54,-340.99C1362.11,-330.57 1412.57,-316.58 1446.8,-307.09"/>
<polygon fill="#63b8ff" stroke="#63b8ff" points="1448.17,-310.34 1456.88,-304.3 1446.3,-303.6 1448.17,-310.34"/>
</a>
</g>
</g>
<!-- Node41 -->
<g id="Node000041" class="node">
<title>Node41</title>
<g id="a_Node000041"><a xlink:title=" ">
<polygon fill="#e0e0e0" stroke="#999999" points="1563,-305 1531,-305 1531,-286 1563,-286 1563,-305"/>
<text text-anchor="middle" x="1547" y="-293" font-family="Helvetica,sans-Serif" font-size="10.00">set</text>
</a>
</g>
</g>
<!-- Node1&#45;&gt;Node41 -->
<g id="edge64_Node000001_Node000041" class="edge">
<title>Node1&#45;&gt;Node41</title>
<g id="a_edge64_Node000001_Node000041"><a xlink:title=" ">
<path fill="none" stroke="#63b8ff" d="M1352.51,-341.84C1399.1,-333.41 1459.42,-321.41 1521.05,-304.97"/>
<polygon fill="#63b8ff" stroke="#63b8ff" points="1522.22,-308.28 1530.96,-302.29 1520.39,-301.53 1522.22,-308.28"/>
</a>
</g>
</g>
<!-- Node42 -->
<g id="Node000042" class="node">
<title>Node42</title>
<g id="a_Node000042"><a xlink:title=" ">
<polygon fill="#e0e0e0" stroke="#999999" points="1624.5,-305 1581.5,-305 1581.5,-286 1624.5,-286 1624.5,-305"/>
<text text-anchor="middle" x="1603" y="-293" font-family="Helvetica,sans-Serif" font-size="10.00">stack</text>
</a>
</g>
</g>
<!-- Node1&#45;&gt;Node42 -->
<g id="edge65_Node000001_Node000042" class="edge">
<title>Node1&#45;&gt;Node42</title>
<g id="a_edge65_Node000001_Node000042"><a xlink:title=" ">
<path fill="none" stroke="#63b8ff" d="M1352.53,-344.05C1410.51,-335.44 1491.48,-322.36 1571.62,-304.88"/>
<polygon fill="#63b8ff" stroke="#63b8ff" points="1572.38,-308.3 1581.39,-302.73 1570.87,-301.46 1572.38,-308.3"/>
</a>
</g>
</g>
<!-- Node43 -->
<g id="Node000043" class="node">
<title>Node43</title>
<g id="a_Node000043"><a xlink:title=" ">
<polygon fill="#e0e0e0" stroke="#999999" points="1707.5,-305 1642.5,-305 1642.5,-286 1707.5,-286 1707.5,-305"/>
<text text-anchor="middle" x="1675" y="-293" font-family="Helvetica,sans-Serif" font-size="10.00">stdexcept</text>
</a>
</g>
</g>
<!-- Node1&#45;&gt;Node43 -->
<g id="edge66_Node000001_Node000043" class="edge">
<title>Node1&#45;&gt;Node43</title>
<g id="a_edge66_Node000001_Node000043"><a xlink:title=" ">
<path fill="none" stroke="#63b8ff" d="M1352.53,-345.62C1423.27,-336.82 1530.3,-322.64 1632.2,-305.22"/>
<polygon fill="#63b8ff" stroke="#63b8ff" points="1633.1,-308.62 1642.36,-303.47 1631.91,-301.72 1633.1,-308.62"/>
</a>
</g>
</g>
<!-- Node3&#45;&gt;Node4 -->
<g id="edge3_Node000003_Node000004" class="edge">
<title>Node3&#45;&gt;Node4</title>
<g id="a_edge3_Node000003_Node000004"><a xlink:title=" ">
<path fill="none" stroke="#63b8ff" d="M307.56,-288.47C282.9,-281.32 242.6,-268.05 211,-250 120.75,-198.45 88.6,-173.02 57,-74 54.43,-65.96 51.61,-61.5 57,-55 84.72,-21.6 206.34,-27.03 249,-19 253.02,-18.24 257.23,-17.45 261.41,-16.66"/>
<polygon fill="#63b8ff" stroke="#63b8ff" points="262.39,-20.04 271.57,-14.74 261.09,-13.16 262.39,-20.04"/>
</a>
</g>
</g>
<!-- Node3&#45;&gt;Node5 -->
<g id="edge4_Node000003_Node000005" class="edge">
<title>Node3&#45;&gt;Node5</title>
<g id="a_edge4_Node000003_Node000005"><a xlink:title=" ">
<path fill="none" stroke="#63b8ff" d="M310.7,-285.98C278.7,-271.13 213.94,-237.95 171,-195 137.07,-161.06 110.63,-110.39 98.05,-83.6"/>
<polygon fill="#63b8ff" stroke="#63b8ff" points="101.13,-81.93 93.79,-74.29 94.77,-84.84 101.13,-81.93"/>
</a>
</g>
</g>
<!-- Node6 -->
<g id="Node000006" class="node">
<title>Node6</title>
<g id="a_Node000006"><a xlink:href="src_2util_2invariant_8h.html" target="_top" xlink:title=" ">
<polygon fill="white" stroke="#666666" points="889.5,-129 820.5,-129 820.5,-110 889.5,-110 889.5,-129"/>
<text text-anchor="middle" x="855" y="-117" font-family="Helvetica,sans-Serif" font-size="10.00">invariant.h</text>
</a>
</g>
</g>
<!-- Node3&#45;&gt;Node6 -->
<g id="edge5_Node000003_Node000006" class="edge">
<title>Node3&#45;&gt;Node6</title>
<g id="a_edge5_Node000003_Node000006"><a xlink:title=" ">
<path fill="none" stroke="#63b8ff" d="M332.05,-285.71C338.43,-259.12 358.73,-180.44 379,-165 387.54,-158.49 693.5,-133.41 810.3,-124.05"/>
<polygon fill="#63b8ff" stroke="#63b8ff" points="810.66,-127.53 820.35,-123.25 810.1,-120.56 810.66,-127.53"/>
</a>
</g>
</g>
<!-- Node10 -->
<g id="Node000010" class="node">
<title>Node10</title>
<g id="a_Node000010"><a xlink:href="irep__ids_8h.html" target="_top" xlink:title="util">
<polygon fill="white" stroke="#666666" points="332,-250 268,-250 268,-231 332,-231 332,-250"/>
<text text-anchor="middle" x="300" y="-238" font-family="Helvetica,sans-Serif" font-size="10.00">irep_ids.h</text>
</a>
</g>
</g>
<!-- Node3&#45;&gt;Node10 -->
<g id="edge10_Node000003_Node000010" class="edge">
<title>Node3&#45;&gt;Node10</title>
<g id="a_edge10_Node000003_Node000010"><a xlink:title=" ">
<path fill="none" stroke="#63b8ff" d="M325.05,-285.75C320.94,-278.49 314.97,-267.95 309.9,-258.98"/>
<polygon fill="#63b8ff" stroke="#63b8ff" points="312.83,-257.07 304.86,-250.09 306.74,-260.52 312.83,-257.07"/>
</a>
</g>
</g>
<!-- Node21 -->
<g id="Node000021" class="node">
<title>Node21</title>
<g id="a_Node000021"><a xlink:href="forward__list__as__map_8h.html" target="_top" xlink:title=" ">
<polygon fill="white" stroke="#666666" points="563.5,-250 436.5,-250 436.5,-231 563.5,-231 563.5,-250"/>
<text text-anchor="middle" x="500" y="-238" font-family="Helvetica,sans-Serif" font-size="10.00">forward_list_as_map.h</text>
</a>
</g>
</g>
<!-- Node3&#45;&gt;Node21 -->
<g id="edge26_Node000003_Node000021" class="edge">
<title>Node3&#45;&gt;Node21</title>
<g id="a_edge26_Node000003_Node000021"><a xlink:title=" ">
<path fill="none" stroke="#63b8ff" d="M352.22,-287.57C380.28,-278.82 428.96,-263.65 462.74,-253.12"/>
<polygon fill="#63b8ff" stroke="#63b8ff" points="464.21,-256.33 472.71,-250.01 462.12,-249.64 464.21,-256.33"/>
</a>
</g>
</g>
<!-- Node6&#45;&gt;Node4 -->
<g id="edge8_Node000006_Node000004" class="edge">
<title>Node6&#45;&gt;Node4</title>
<g id="a_edge8_Node000006_Node000004"><a xlink:title=" ">
<path fill="none" stroke="#63b8ff" d="M848.93,-109.61C838.56,-95.23 815.91,-67.27 789,-55 706.04,-17.16 422.66,-11.47 326.34,-10.64"/>
<polygon fill="#63b8ff" stroke="#63b8ff" points="326.09,-7.13 316.06,-10.56 326.04,-14.13 326.09,-7.13"/>
</a>
</g>
</g>
<!-- Node7 -->
<g id="Node000007" class="node">
<title>Node7</title>
<g id="a_Node000007"><a xlink:title=" ">
<polygon fill="#e0e0e0" stroke="#999999" points="886.5,-74 837.5,-74 837.5,-55 886.5,-55 886.5,-74"/>
<text text-anchor="middle" x="862" y="-62" font-family="Helvetica,sans-Serif" font-size="10.00">cstdlib</text>
</a>
</g>
</g>
<!-- Node6&#45;&gt;Node7 -->
<g id="edge6_Node000006_Node000007" class="edge">
<title>Node6&#45;&gt;Node7</title>
<g id="a_edge6_Node000006_Node000007"><a xlink:title=" ">
<path fill="none" stroke="#63b8ff" d="M856.16,-109.75C857.07,-102.8 858.39,-92.85 859.54,-84.13"/>
<polygon fill="#63b8ff" stroke="#63b8ff" points="863.03,-84.46 860.87,-74.09 856.09,-83.54 863.03,-84.46"/>
</a>
</g>
</g>
<!-- Node8 -->
<g id="Node000008" class="node">
<title>Node8</title>
<g id="a_Node000008"><a xlink:title=" ">
<polygon fill="#e0e0e0" stroke="#999999" points="961,-74 905,-74 905,-55 961,-55 961,-74"/>
<text text-anchor="middle" x="933" y="-62" font-family="Helvetica,sans-Serif" font-size="10.00">sstream</text>
</a>
</g>
</g>
<!-- Node6&#45;&gt;Node8 -->
<g id="edge7_Node000006_Node000008" class="edge">
<title>Node6&#45;&gt;Node8</title>
<g id="a_edge7_Node000006_Node000008"><a xlink:title=" ">
<path fill="none" stroke="#63b8ff" d="M867.53,-109.98C879.4,-101.92 897.46,-89.65 911.61,-80.03"/>
<polygon fill="#63b8ff" stroke="#63b8ff" points="913.94,-82.69 920.24,-74.17 910,-76.9 913.94,-82.69"/>
</a>
</g>
</g>
<!-- Node6&#45;&gt;Node9 -->
<g id="edge9_Node000006_Node000009" class="edge">
<title>Node6&#45;&gt;Node9</title>
<g id="a_edge9_Node000006_Node000009"><a xlink:title=" ">
<path fill="none" stroke="#63b8ff" d="M837.49,-109.98C820.03,-101.5 792.99,-88.35 772.83,-78.54"/>
<polygon fill="#63b8ff" stroke="#63b8ff" points="774.36,-75.4 763.83,-74.17 771.29,-81.69 774.36,-75.4"/>
</a>
</g>
</g>
<!-- Node11 -->
<g id="Node000011" class="node">
<title>Node11</title>
<g id="a_Node000011"><a xlink:href="dstring_8h.html" target="_top" xlink:title="Container for C&#45;Strings.">
<polygon fill="white" stroke="#666666" points="331.5,-189.5 272.5,-189.5 272.5,-170.5 331.5,-170.5 331.5,-189.5"/>
<text text-anchor="middle" x="302" y="-177.5" font-family="Helvetica,sans-Serif" font-size="10.00">dstring.h</text>
</a>
</g>
</g>
<!-- Node10&#45;&gt;Node11 -->
<g id="edge11_Node000010_Node000011" class="edge">
<title>Node10&#45;&gt;Node11</title>
<g id="a_edge11_Node000010_Node000011"><a xlink:title=" ">
<path fill="none" stroke="#63b8ff" d="M300.3,-230.87C300.57,-222.75 301,-210.31 301.35,-199.89"/>
<polygon fill="#63b8ff" stroke="#63b8ff" points="304.86,-199.78 301.7,-189.67 297.86,-199.54 304.86,-199.78"/>
</a>
</g>
</g>
<!-- Node20 -->
<g id="Node000020" class="node">
<title>Node20</title>
<g id="a_Node000020"><a xlink:title=" ">
<polygon fill="#e0e0e0" stroke="#999999" points="254,-189.5 180,-189.5 180,-170.5 254,-170.5 254,-189.5"/>
<text text-anchor="middle" x="217" y="-177.5" font-family="Helvetica,sans-Serif" font-size="10.00">irep_ids.def</text>
</a>
</g>
</g>
<!-- Node10&#45;&gt;Node20 -->
<g id="edge25_Node000010_Node000020" class="edge">
<title>Node10&#45;&gt;Node20</title>
<g id="a_edge25_Node000010_Node000020"><a xlink:title=" ">
<path fill="none" stroke="#63b8ff" d="M287.75,-230.87C274.64,-221.62 253.58,-206.78 237.85,-195.69"/>
<polygon fill="#63b8ff" stroke="#63b8ff" points="239.49,-192.57 229.3,-189.67 235.45,-198.29 239.49,-192.57"/>
</a>
</g>
</g>
<!-- Node11&#45;&gt;Node4 -->
<g id="edge13_Node000011_Node000004" class="edge">
<title>Node11&#45;&gt;Node4</title>
<g id="a_edge13_Node000011_Node000004"><a xlink:title=" ">
<path fill="none" stroke="#63b8ff" d="M329.2,-170.39C395,-149.3 558.46,-95.23 573,-74 577.77,-67.03 578.48,-61.42 573,-55 541.64,-18.24 393.28,-11.7 326.6,-10.64"/>
<polygon fill="#63b8ff" stroke="#63b8ff" points="326.3,-7.14 316.26,-10.51 326.21,-14.14 326.3,-7.14"/>
</a>
</g>
</g>
<!-- Node12 -->
<g id="Node000012" class="node">
<title>Node12</title>
<g id="a_Node000012"><a xlink:title=" ">
<polygon fill="#e0e0e0" stroke="#999999" points="726,-129 678,-129 678,-110 726,-110 726,-129"/>
<text text-anchor="middle" x="702" y="-117" font-family="Helvetica,sans-Serif" font-size="10.00">iosfwd</text>
</a>
</g>
</g>
<!-- Node11&#45;&gt;Node12 -->
<g id="edge12_Node000011_Node000012" class="edge">
<title>Node11&#45;&gt;Node12</title>
<g id="a_edge12_Node000011_Node000012"><a xlink:title=" ">
<path fill="none" stroke="#63b8ff" d="M325.99,-170.49C332.43,-168.45 339.42,-166.44 346,-165 462.46,-139.42 603.8,-127.21 667.7,-122.68"/>
<polygon fill="#63b8ff" stroke="#63b8ff" points="668.26,-126.15 678,-121.97 667.78,-119.17 668.26,-126.15"/>
</a>
</g>
</g>
<!-- Node13 -->
<g id="Node000013" class="node">
<title>Node13</title>
<g id="a_Node000013"><a xlink:href="magic_8h.html" target="_top" xlink:title="Magic numbers used throughout the codebase.">
<polygon fill="white" stroke="#666666" points="188,-74 132,-74 132,-55 188,-55 188,-74"/>
<text text-anchor="middle" x="160" y="-62" font-family="Helvetica,sans-Serif" font-size="10.00">magic.h</text>
</a>
</g>
</g>
<!-- Node11&#45;&gt;Node13 -->
<g id="edge14_Node000011_Node000013" class="edge">
<title>Node11&#45;&gt;Node13</title>
<g id="a_edge14_Node000011_Node000013"><a xlink:title=" ">
<path fill="none" stroke="#63b8ff" d="M291.33,-170.47C267.38,-151.32 209.08,-104.73 178.87,-80.58"/>
<polygon fill="#63b8ff" stroke="#63b8ff" points="180.79,-77.64 170.8,-74.13 176.42,-83.11 180.79,-77.64"/>
</a>
</g>
</g>
<!-- Node15 -->
<g id="Node000015" class="node">
<title>Node15</title>
<g id="a_Node000015"><a xlink:href="string__container_8h.html" target="_top" xlink:title="Container for C&#45;Strings.">
<polygon fill="white" stroke="#666666" points="386,-129 282,-129 282,-110 386,-110 386,-129"/>
<text text-anchor="middle" x="334" y="-117" font-family="Helvetica,sans-Serif" font-size="10.00">string_container.h</text>
</a>
</g>
</g>
<!-- Node11&#45;&gt;Node15 -->
<g id="edge16_Node000011_Node000015" class="edge">
<title>Node11&#45;&gt;Node15</title>
<g id="a_edge16_Node000011_Node000015"><a xlink:title=" ">
<path fill="none" stroke="#63b8ff" d="M306.72,-170.37C311.35,-161.9 318.55,-148.74 324.39,-138.07"/>
<polygon fill="#63b8ff" stroke="#63b8ff" points="327.53,-139.62 329.26,-129.17 321.39,-136.26 327.53,-139.62"/>
</a>
</g>
</g>
<!-- Node14 -->
<g id="Node000014" class="node">
<title>Node14</title>
<g id="a_Node000014"><a xlink:title=" ">
<polygon fill="#e0e0e0" stroke="#999999" points="240.5,-19 187.5,-19 187.5,0 240.5,0 240.5,-19"/>
<text text-anchor="middle" x="214" y="-7" font-family="Helvetica,sans-Serif" font-size="10.00">cstddef</text>
</a>
</g>
</g>
<!-- Node13&#45;&gt;Node14 -->
<g id="edge15_Node000013_Node000014" class="edge">
<title>Node13&#45;&gt;Node14</title>
<g id="a_edge15_Node000013_Node000014"><a xlink:title=" ">
<path fill="none" stroke="#63b8ff" d="M168.92,-54.75C176.78,-47.03 188.43,-35.6 197.92,-26.28"/>
<polygon fill="#63b8ff" stroke="#63b8ff" points="200.56,-28.59 205.25,-19.09 195.66,-23.6 200.56,-28.59"/>
</a>
</g>
</g>
<!-- Node15&#45;&gt;Node5 -->
<g id="edge19_Node000015_Node000005" class="edge">
<title>Node15&#45;&gt;Node5</title>
<g id="a_edge19_Node000015_Node000005"><a xlink:title=" ">
<path fill="none" stroke="#63b8ff" d="M290.64,-109.94C249.98,-101.78 187.27,-88.87 123.58,-74.05"/>
<polygon fill="#63b8ff" stroke="#63b8ff" points="124.3,-70.62 113.76,-71.75 122.7,-77.44 124.3,-70.62"/>
</a>
</g>
</g>
<!-- Node16 -->
<g id="Node000016" class="node">
<title>Node16</title>
<g id="a_Node000016"><a xlink:title=" ">
<polygon fill="#e0e0e0" stroke="#999999" points="464,-74 432,-74 432,-55 464,-55 464,-74"/>
<text text-anchor="middle" x="448" y="-62" font-family="Helvetica,sans-Serif" font-size="10.00">list</text>
</a>
</g>
</g>
<!-- Node15&#45;&gt;Node16 -->
<g id="edge17_Node000015_Node000016" class="edge">
<title>Node15&#45;&gt;Node16</title>
<g id="a_edge17_Node000015_Node000016"><a xlink:title=" ">
<path fill="none" stroke="#63b8ff" d="M352.32,-109.98C371.42,-101.1 401.5,-87.12 422.83,-77.2"/>
<polygon fill="#63b8ff" stroke="#63b8ff" points="424.35,-80.36 431.94,-72.97 421.4,-74.01 424.35,-80.36"/>
</a>
</g>
</g>
<!-- Node17 -->
<g id="Node000017" class="node">
<title>Node17</title>
<g id="a_Node000017"><a xlink:title=" ">
<polygon fill="#e0e0e0" stroke="#999999" points="413.5,-74 320.5,-74 320.5,-55 413.5,-55 413.5,-74"/>
<text text-anchor="middle" x="367" y="-62" font-family="Helvetica,sans-Serif" font-size="10.00">unordered_map</text>
</a>
</g>
</g>
<!-- Node15&#45;&gt;Node17 -->
<g id="edge18_Node000015_Node000017" class="edge">
<title>Node15&#45;&gt;Node17</title>
<g id="a_edge18_Node000015_Node000017"><a xlink:title=" ">
<path fill="none" stroke="#63b8ff" d="M339.45,-109.75C344.01,-102.42 350.67,-91.73 356.29,-82.7"/>
<polygon fill="#63b8ff" stroke="#63b8ff" points="359.34,-84.43 361.65,-74.09 353.4,-80.73 359.34,-84.43"/>
</a>
</g>
</g>
<!-- Node18 -->
<g id="Node000018" class="node">
<title>Node18</title>
<g id="a_Node000018"><a xlink:href="memory__units_8h.html" target="_top" xlink:title=" ">
<polygon fill="white" stroke="#666666" points="302,-74 206,-74 206,-55 302,-55 302,-74"/>
<text text-anchor="middle" x="254" y="-62" font-family="Helvetica,sans-Serif" font-size="10.00">memory_units.h</text>
</a>
</g>
</g>
<!-- Node15&#45;&gt;Node18 -->
<g id="edge20_Node000015_Node000018" class="edge">
<title>Node15&#45;&gt;Node18</title>
<g id="a_edge20_Node000015_Node000018"><a xlink:title=" ">
<path fill="none" stroke="#63b8ff" d="M321.15,-109.98C308.86,-101.84 290.09,-89.41 275.52,-79.76"/>
<polygon fill="#63b8ff" stroke="#63b8ff" points="277.36,-76.78 267.09,-74.17 273.49,-82.61 277.36,-76.78"/>
</a>
</g>
</g>
<!-- Node19 -->
<g id="Node000019" class="node">
<title>Node19</title>
<g id="a_Node000019"><a xlink:href="string__hash_8h.html" target="_top" xlink:title="string hashing">
<polygon fill="white" stroke="#666666" points="564,-74 482,-74 482,-55 564,-55 564,-74"/>
<text text-anchor="middle" x="523" y="-62" font-family="Helvetica,sans-Serif" font-size="10.00">string_hash.h</text>
</a>
</g>
</g>
<!-- Node15&#45;&gt;Node19 -->
<g id="edge23_Node000015_Node000019" class="edge">
<title>Node15&#45;&gt;Node19</title>
<g id="a_edge23_Node000015_Node000019"><a xlink:title=" ">
<path fill="none" stroke="#63b8ff" d="M364.37,-109.98C396.37,-101.01 446.96,-86.82 482.38,-76.89"/>
<polygon fill="#63b8ff" stroke="#63b8ff" points="483.71,-80.15 492.4,-74.08 481.82,-73.41 483.71,-80.15"/>
</a>
</g>
</g>
<!-- Node18&#45;&gt;Node4 -->
<g id="edge22_Node000018_Node000004" class="edge">
<title>Node18&#45;&gt;Node4</title>
<g id="a_edge22_Node000018_Node000004"><a xlink:title=" ">
<path fill="none" stroke="#63b8ff" d="M260.61,-54.75C266.26,-47.26 274.54,-36.28 281.45,-27.13"/>
<polygon fill="#63b8ff" stroke="#63b8ff" points="284.29,-29.18 287.52,-19.09 278.7,-24.96 284.29,-29.18"/>
</a>
</g>
</g>
<!-- Node18&#45;&gt;Node14 -->
<g id="edge21_Node000018_Node000014" class="edge">
<title>Node18&#45;&gt;Node14</title>
<g id="a_edge21_Node000018_Node000014"><a xlink:title=" ">
<path fill="none" stroke="#63b8ff" d="M247.39,-54.75C241.74,-47.26 233.46,-36.28 226.55,-27.13"/>
<polygon fill="#63b8ff" stroke="#63b8ff" points="229.3,-24.96 220.48,-19.09 223.71,-29.18 229.3,-24.96"/>
</a>
</g>
</g>
<!-- Node19&#45;&gt;Node4 -->
<g id="edge24_Node000019_Node000004" class="edge">
<title>Node19&#45;&gt;Node4</title>
<g id="a_edge24_Node000019_Node000004"><a xlink:title=" ">
<path fill="none" stroke="#63b8ff" d="M486.21,-54.98C441.92,-44.73 368.25,-27.69 326.15,-17.94"/>
<polygon fill="#63b8ff" stroke="#63b8ff" points="326.69,-14.47 316.16,-15.63 325.11,-21.29 326.69,-14.47"/>
</a>
</g>
</g>
<!-- Node21&#45;&gt;Node2 -->
<g id="edge29_Node000021_Node000002" class="edge">
<title>Node21&#45;&gt;Node2</title>
<g id="a_edge29_Node000021_Node000002"><a xlink:title=" ">
<path fill="none" stroke="#63b8ff" d="M530.83,-230.99C567.96,-220.75 630.45,-203.5 671.46,-192.19"/>
<polygon fill="#63b8ff" stroke="#63b8ff" points="672.43,-195.55 681.14,-189.52 670.57,-188.8 672.43,-195.55"/>
</a>
</g>
</g>
<!-- Node22 -->
<g id="Node000022" class="node">
<title>Node22</title>
<g id="a_Node000022"><a xlink:title=" ">
<polygon fill="#e0e0e0" stroke="#999999" points="452,-189.5 388,-189.5 388,-170.5 452,-170.5 452,-189.5"/>
<text text-anchor="middle" x="420" y="-177.5" font-family="Helvetica,sans-Serif" font-size="10.00">algorithm</text>
</a>
</g>
</g>
<!-- Node21&#45;&gt;Node22 -->
<g id="edge27_Node000021_Node000022" class="edge">
<title>Node21&#45;&gt;Node22</title>
<g id="a_edge27_Node000021_Node000022"><a xlink:title=" ">
<path fill="none" stroke="#63b8ff" d="M488.2,-230.87C475.55,-221.62 455.26,-206.78 440.09,-195.69"/>
<polygon fill="#63b8ff" stroke="#63b8ff" points="441.99,-192.74 431.85,-189.67 437.86,-198.4 441.99,-192.74"/>
</a>
</g>
</g>
<!-- Node23 -->
<g id="Node000023" class="node">
<title>Node23</title>
<g id="a_Node000023"><a xlink:title=" ">
<polygon fill="#e0e0e0" stroke="#999999" points="622,-189.5 548,-189.5 548,-170.5 622,-170.5 622,-189.5"/>
<text text-anchor="middle" x="585" y="-177.5" font-family="Helvetica,sans-Serif" font-size="10.00">forward_list</text>
</a>
</g>
</g>
<!-- Node21&#45;&gt;Node23 -->
<g id="edge28_Node000021_Node000023" class="edge">
<title>Node21&#45;&gt;Node23</title>
<g id="a_edge28_Node000021_Node000023"><a xlink:title=" ">
<path fill="none" stroke="#63b8ff" d="M512.54,-230.87C526.1,-221.54 547.94,-206.51 564.1,-195.38"/>
<polygon fill="#63b8ff" stroke="#63b8ff" points="566.15,-198.22 572.41,-189.67 562.18,-192.45 566.15,-198.22"/>
</a>
</g>
</g>
<!-- Node24 -->
<g id="Node000024" class="node">
<title>Node24</title>
<g id="a_Node000024"><a xlink:href="narrow_8h.html" target="_top" xlink:title=" ">
<polygon fill="white" stroke="#666666" points="529.5,-189.5 470.5,-189.5 470.5,-170.5 529.5,-170.5 529.5,-189.5"/>
<text text-anchor="middle" x="500" y="-177.5" font-family="Helvetica,sans-Serif" font-size="10.00">narrow.h</text>
</a>
</g>
</g>
<!-- Node21&#45;&gt;Node24 -->
<g id="edge30_Node000021_Node000024" class="edge">
<title>Node21&#45;&gt;Node24</title>
<g id="a_edge30_Node000021_Node000024"><a xlink:title=" ">
<path fill="none" stroke="#63b8ff" d="M500,-230.87C500,-222.75 500,-210.31 500,-199.89"/>
<polygon fill="#63b8ff" stroke="#63b8ff" points="503.5,-199.67 500,-189.67 496.5,-199.67 503.5,-199.67"/>
</a>
</g>
</g>
<!-- Node24&#45;&gt;Node6 -->
<g id="edge32_Node000024_Node000006" class="edge">
<title>Node24&#45;&gt;Node6</title>
<g id="a_edge32_Node000024_Node000006"><a xlink:title=" ">
<path fill="none" stroke="#63b8ff" d="M521.21,-170.5C526.92,-168.46 533.13,-166.45 539,-165 634.08,-141.5 748.52,-129.24 810.25,-123.9"/>
<polygon fill="#63b8ff" stroke="#63b8ff" points="810.76,-127.37 820.43,-123.04 810.17,-120.39 810.76,-127.37"/>
</a>
</g>
</g>
<!-- Node24&#45;&gt;Node9 -->
<g id="edge31_Node000024_Node000009" class="edge">
<title>Node24&#45;&gt;Node9</title>
<g id="a_edge31_Node000024_Node000009"><a xlink:title=" ">
<path fill="none" stroke="#63b8ff" d="M515.7,-170.48C540.8,-156.99 591.66,-130.17 636,-110 661.69,-98.31 691.39,-86.39 713.45,-77.83"/>
<polygon fill="#63b8ff" stroke="#63b8ff" points="714.93,-81.01 723.01,-74.15 712.42,-74.48 714.93,-81.01"/>
</a>
</g>
</g>
<!-- Node25&#45;&gt;Node2 -->
<g id="edge47_Node000025_Node000002" class="edge">
<title>Node25&#45;&gt;Node2</title>
<g id="a_edge47_Node000025_Node000002"><a xlink:title=" ">
<path fill="none" stroke="#63b8ff" d="M900.86,-230.99C862.07,-220.73 796.74,-203.43 753.99,-192.12"/>
<polygon fill="#63b8ff" stroke="#63b8ff" points="754.74,-188.69 744.17,-189.52 752.95,-195.46 754.74,-188.69"/>
</a>
</g>
</g>
<!-- Node25&#45;&gt;Node6 -->
<g id="edge48_Node000025_Node000006" class="edge">
<title>Node25&#45;&gt;Node6</title>
<g id="a_edge48_Node000025_Node000006"><a xlink:title=" ">
<path fill="none" stroke="#63b8ff" d="M913.35,-230.95C898.78,-223.56 879.66,-211.47 869,-195 858.18,-178.29 855.26,-155.31 854.68,-139.31"/>
<polygon fill="#63b8ff" stroke="#63b8ff" points="858.18,-139.05 854.59,-129.08 851.18,-139.11 858.18,-139.05"/>
</a>
</g>
</g>
<!-- Node25&#45;&gt;Node9 -->
<g id="edge36_Node000025_Node000009" class="edge">
<title>Node25&#45;&gt;Node9</title>
<g id="a_edge36_Node000025_Node000009"><a xlink:title=" ">
<path fill="none" stroke="#63b8ff" d="M915.06,-230.84C898.58,-222.56 873.8,-209.26 854,-195 818.5,-169.44 808.15,-163.29 781,-129 769.9,-114.98 760.34,-96.97 754.03,-83.72"/>
<polygon fill="#63b8ff" stroke="#63b8ff" points="757.05,-81.9 749.7,-74.27 750.69,-84.82 757.05,-81.9"/>
</a>
</g>
</g>
<!-- Node25&#45;&gt;Node23 -->
<g id="edge34_Node000025_Node000023" class="edge">
<title>Node25&#45;&gt;Node23</title>
<g id="a_edge34_Node000025_Node000023"><a xlink:title=" ">
<path fill="none" stroke="#63b8ff" d="M887.15,-231.79C821.01,-220.67 699.45,-200.24 632.44,-188.98"/>
<polygon fill="#63b8ff" stroke="#63b8ff" points="632.62,-185.46 622.17,-187.25 631.45,-192.36 632.62,-185.46"/>
</a>
</g>
</g>
<!-- Node25&#45;&gt;Node26 -->
<g id="edge35_Node000025_Node000026" class="edge">
<title>Node25&#45;&gt;Node26</title>
<g id="a_edge35_Node000025_Node000026"><a xlink:title=" ">
<path fill="none" stroke="#63b8ff" d="M978.73,-235.33C1037.98,-229.33 1144.23,-216.55 1233,-195 1235.81,-194.32 1238.7,-193.53 1241.58,-192.67"/>
<polygon fill="#63b8ff" stroke="#63b8ff" points="1242.77,-195.97 1251.23,-189.59 1240.64,-189.3 1242.77,-195.97"/>
</a>
</g>
</g>
<!-- Node27 -->
<g id="Node000027" class="node">
<title>Node27</title>
<g id="a_Node000027"><a xlink:href="small__map_8h.html" target="_top" xlink:title="Small map.">
<polygon fill="white" stroke="#666666" points="1086,-189.5 1006,-189.5 1006,-170.5 1086,-170.5 1086,-189.5"/>
<text text-anchor="middle" x="1046" y="-177.5" font-family="Helvetica,sans-Serif" font-size="10.00">small_map.h</text>
</a>
</g>
</g>
<!-- Node25&#45;&gt;Node27 -->
<g id="edge37_Node000025_Node000027" class="edge">
<title>Node25&#45;&gt;Node27</title>
<g id="a_edge37_Node000025_Node000027"><a xlink:title=" ">
<path fill="none" stroke="#63b8ff" d="M949.67,-230.87C968.28,-221.23 998.62,-205.53 1020.28,-194.31"/>
<polygon fill="#63b8ff" stroke="#63b8ff" points="1021.99,-197.37 1029.26,-189.67 1018.77,-191.16 1021.99,-197.37"/>
</a>
</g>
</g>
<!-- Node35 -->
<g id="Node000035" class="node">
<title>Node35</title>
<g id="a_Node000035"><a xlink:href="small__shared__n__way__ptr_8h.html" target="_top" xlink:title=" ">
<polygon fill="white" stroke="#666666" points="1223.5,-195 1104.5,-195 1104.5,-165 1223.5,-165 1223.5,-195"/>
<text text-anchor="start" x="1112.5" y="-183" font-family="Helvetica,sans-Serif" font-size="10.00">small_shared_n_way</text>
<text text-anchor="middle" x="1164" y="-172" font-family="Helvetica,sans-Serif" font-size="10.00">_ptr.h</text>
</a>
</g>
</g>
<!-- Node25&#45;&gt;Node35 -->
<g id="edge49_Node000025_Node000035" class="edge">
<title>Node25&#45;&gt;Node35</title>
<g id="a_edge49_Node000025_Node000035"><a xlink:title=" ">
<path fill="none" stroke="#63b8ff" d="M966.59,-230.99C1001.07,-222.26 1055.61,-208.45 1098.63,-197.55"/>
<polygon fill="#63b8ff" stroke="#63b8ff" points="1099.63,-200.91 1108.46,-195.06 1097.91,-194.13 1099.63,-200.91"/>
</a>
</g>
</g>
<!-- Node37 -->
<g id="Node000037" class="node">
<title>Node37</title>
<g id="a_Node000037"><a xlink:href="small__shared__ptr_8h.html" target="_top" xlink:title=" ">
<polygon fill="white" stroke="#666666" points="987.5,-189.5 878.5,-189.5 878.5,-170.5 987.5,-170.5 987.5,-189.5"/>
<text text-anchor="middle" x="933" y="-177.5" font-family="Helvetica,sans-Serif" font-size="10.00">small_shared_ptr.h</text>
</a>
</g>
</g>
<!-- Node25&#45;&gt;Node37 -->
<g id="edge55_Node000025_Node000037" class="edge">
<title>Node25&#45;&gt;Node37</title>
<g id="a_edge55_Node000025_Node000037"><a xlink:title=" ">
<path fill="none" stroke="#63b8ff" d="M933,-230.87C933,-222.75 933,-210.31 933,-199.89"/>
<polygon fill="#63b8ff" stroke="#63b8ff" points="936.5,-199.67 933,-189.67 929.5,-199.67 936.5,-199.67"/>
</a>
</g>
</g>
<!-- Node27&#45;&gt;Node6 -->
<g id="edge46_Node000027_Node000006" class="edge">
<title>Node27&#45;&gt;Node6</title>
<g id="a_edge46_Node000027_Node000006"><a xlink:title=" ">
<path fill="none" stroke="#63b8ff" d="M1018.23,-170.49C985.13,-160.36 929.66,-143.37 892.71,-132.05"/>
<polygon fill="#63b8ff" stroke="#63b8ff" points="893.39,-128.6 882.81,-129.02 891.34,-135.29 893.39,-128.6"/>
</a>
</g>
</g>
<!-- Node27&#45;&gt;Node9 -->
<g id="edge44_Node000027_Node000009" class="edge">
<title>Node27&#45;&gt;Node9</title>
<g id="a_edge44_Node000027_Node000009"><a xlink:title=" ">
<path fill="none" stroke="#63b8ff" d="M1017.61,-170.44C1010.88,-168.53 1003.71,-166.61 997,-165 915.11,-145.42 885.59,-168.07 811,-129 789.47,-117.73 770.32,-97.03 758.48,-82.33"/>
<polygon fill="#63b8ff" stroke="#63b8ff" points="760.98,-79.85 752.09,-74.09 755.45,-84.14 760.98,-79.85"/>
</a>
</g>
</g>
<!-- Node28 -->
<g id="Node000028" class="node">
<title>Node28</title>
<g id="a_Node000028"><a xlink:title=" ">
<polygon fill="#e0e0e0" stroke="#999999" points="952,-129 908,-129 908,-110 952,-110 952,-129"/>
<text text-anchor="middle" x="930" y="-117" font-family="Helvetica,sans-Serif" font-size="10.00">bitset</text>
</a>
</g>
</g>
<!-- Node27&#45;&gt;Node28 -->
<g id="edge38_Node000027_Node000028" class="edge">
<title>Node27&#45;&gt;Node28</title>
<g id="a_edge38_Node000027_Node000028"><a xlink:title=" ">
<path fill="none" stroke="#63b8ff" d="M1028.88,-170.37C1009.78,-160.73 978.63,-145.03 956.4,-133.81"/>
<polygon fill="#63b8ff" stroke="#63b8ff" points="957.69,-130.55 947.19,-129.17 954.54,-136.8 957.69,-130.55"/>
</a>
</g>
</g>
<!-- Node29 -->
<g id="Node000029" class="node">
<title>Node29</title>
<g id="a_Node000029"><a xlink:title=" ">
<polygon fill="#e0e0e0" stroke="#999999" points="1020,-129 970,-129 970,-110 1020,-110 1020,-129"/>
<text text-anchor="middle" x="995" y="-117" font-family="Helvetica,sans-Serif" font-size="10.00">cstdint</text>
</a>
</g>
</g>
<!-- Node27&#45;&gt;Node29 -->
<g id="edge39_Node000027_Node000029" class="edge">
<title>Node27&#45;&gt;Node29</title>
<g id="a_edge39_Node000027_Node000029"><a xlink:title=" ">
<path fill="none" stroke="#63b8ff" d="M1038.47,-170.37C1030.79,-161.55 1018.68,-147.66 1009.19,-136.77"/>
<polygon fill="#63b8ff" stroke="#63b8ff" points="1011.77,-134.41 1002.56,-129.17 1006.49,-139.01 1011.77,-134.41"/>
</a>
</g>
</g>
<!-- Node30 -->
<g id="Node000030" class="node">
<title>Node30</title>
<g id="a_Node000030"><a xlink:title=" ">
<polygon fill="#e0e0e0" stroke="#999999" points="1088,-129 1038,-129 1038,-110 1088,-110 1088,-129"/>
<text text-anchor="middle" x="1063" y="-117" font-family="Helvetica,sans-Serif" font-size="10.00">cstring</text>
</a>
</g>
</g>
<!-- Node27&#45;&gt;Node30 -->
<g id="edge40_Node000027_Node000030" class="edge">
<title>Node27&#45;&gt;Node30</title>
<g id="a_edge40_Node000027_Node000030"><a xlink:title=" ">
<path fill="none" stroke="#63b8ff" d="M1048.51,-170.37C1050.89,-162.16 1054.56,-149.54 1057.61,-139.05"/>
<polygon fill="#63b8ff" stroke="#63b8ff" points="1061.05,-139.75 1060.48,-129.17 1054.33,-137.79 1061.05,-139.75"/>
</a>
</g>
</g>
<!-- Node31 -->
<g id="Node000031" class="node">
<title>Node31</title>
<g id="a_Node000031"><a xlink:title=" ">
<polygon fill="#e0e0e0" stroke="#999999" points="1269,-129 1225,-129 1225,-110 1269,-110 1269,-129"/>
<text text-anchor="middle" x="1247" y="-117" font-family="Helvetica,sans-Serif" font-size="10.00">limits</text>
</a>
</g>
</g>
<!-- Node27&#45;&gt;Node31 -->
<g id="edge41_Node000027_Node000031" class="edge">
<title>Node27&#45;&gt;Node31</title>
<g id="a_edge41_Node000027_Node000031"><a xlink:title=" ">
<path fill="none" stroke="#63b8ff" d="M1075.23,-170.49C1112.51,-159.64 1176.75,-140.95 1215.22,-129.75"/>
<polygon fill="#63b8ff" stroke="#63b8ff" points="1216.25,-133.1 1224.87,-126.94 1214.29,-126.37 1216.25,-133.1"/>
</a>
</g>
</g>
<!-- Node27&#45;&gt;Node32 -->
<g id="edge42_Node000027_Node000032" class="edge">
<title>Node27&#45;&gt;Node32</title>
<g id="a_edge42_Node000027_Node000032"><a xlink:title=" ">
<path fill="none" stroke="#63b8ff" d="M1074.98,-170.47C1081.85,-168.57 1089.16,-166.63 1096,-165 1173.07,-146.62 1195.58,-146.02 1276.77,-129.2"/>
<polygon fill="#63b8ff" stroke="#63b8ff" points="1277.9,-132.54 1286.97,-127.07 1276.47,-125.69 1277.9,-132.54"/>
</a>
</g>
</g>
<!-- Node33 -->
<g id="Node000033" class="node">
<title>Node33</title>
<g id="a_Node000033"><a xlink:title=" ">
<polygon fill="#e0e0e0" stroke="#999999" points="1143.5,-129 1106.5,-129 1106.5,-110 1143.5,-110 1143.5,-129"/>
<text text-anchor="middle" x="1125" y="-117" font-family="Helvetica,sans-Serif" font-size="10.00">new</text>
</a>
</g>
</g>
<!-- Node27&#45;&gt;Node33 -->
<g id="edge43_Node000027_Node000033" class="edge">
<title>Node27&#45;&gt;Node33</title>
<g id="a_edge43_Node000027_Node000033"><a xlink:title=" ">
<path fill="none" stroke="#63b8ff" d="M1057.66,-170.37C1070.14,-161.12 1090.18,-146.28 1105.16,-135.19"/>
<polygon fill="#63b8ff" stroke="#63b8ff" points="1107.34,-137.93 1113.3,-129.17 1103.18,-132.31 1107.34,-137.93"/>
</a>
</g>
</g>
<!-- Node34 -->
<g id="Node000034" class="node">
<title>Node34</title>
<g id="a_Node000034"><a xlink:title=" ">
<polygon fill="#e0e0e0" stroke="#999999" points="1206.5,-129 1161.5,-129 1161.5,-110 1206.5,-110 1206.5,-129"/>
<text text-anchor="middle" x="1184" y="-117" font-family="Helvetica,sans-Serif" font-size="10.00">utility</text>
</a>
</g>
</g>
<!-- Node27&#45;&gt;Node34 -->
<g id="edge45_Node000027_Node000034" class="edge">
<title>Node27&#45;&gt;Node34</title>
<g id="a_edge45_Node000027_Node000034"><a xlink:title=" ">
<path fill="none" stroke="#63b8ff" d="M1066.07,-170.49C1089.37,-160.62 1128.01,-144.23 1154.68,-132.93"/>
<polygon fill="#63b8ff" stroke="#63b8ff" points="1156.07,-136.14 1163.91,-129.02 1153.34,-129.7 1156.07,-136.14"/>
</a>
</g>
</g>
<!-- Node35&#45;&gt;Node6 -->
<g id="edge54_Node000035_Node000006" class="edge">
<title>Node35&#45;&gt;Node6</title>
<g id="a_edge54_Node000035_Node000006"><a xlink:title=" ">
<path fill="none" stroke="#63b8ff" d="M1104.17,-166.79C1101.07,-166.18 1098,-165.58 1095,-165 1011.1,-148.78 987.66,-145.61 899.48,-129.07"/>
<polygon fill="#63b8ff" stroke="#63b8ff" points="900.06,-125.62 889.58,-127.21 898.76,-132.5 900.06,-125.62"/>
</a>
</g>
</g>
<!-- Node35&#45;&gt;Node9 -->
<g id="edge52_Node000035_Node000009" class="edge">
<title>Node35&#45;&gt;Node9</title>
<g id="a_edge52_Node000035_Node000009"><a xlink:title=" ">
<path fill="none" stroke="#63b8ff" d="M1223.64,-165.16C1277.8,-152.3 1349.87,-134.36 1354,-129 1359.16,-122.31 1359.76,-116.17 1354,-110 1314.02,-67.19 886.37,-79.02 828,-74 815.98,-72.97 802.98,-71.69 790.96,-70.45"/>
<polygon fill="#63b8ff" stroke="#63b8ff" points="791,-66.93 780.69,-69.37 790.27,-73.89 791,-66.93"/>
</a>
</g>
</g>
<!-- Node35&#45;&gt;Node31 -->
<g id="edge50_Node000035_Node000031" class="edge">
<title>Node35&#45;&gt;Node31</title>
<g id="a_edge50_Node000035_Node000031"><a xlink:title=" ">
<path fill="none" stroke="#63b8ff" d="M1184.09,-164.84C1196.88,-155.83 1213.4,-144.18 1226.3,-135.09"/>
<polygon fill="#63b8ff" stroke="#63b8ff" points="1228.41,-137.89 1234.56,-129.27 1224.37,-132.17 1228.41,-137.89"/>
</a>
</g>
</g>
<!-- Node35&#45;&gt;Node34 -->
<g id="edge53_Node000035_Node000034" class="edge">
<title>Node35&#45;&gt;Node34</title>
<g id="a_edge53_Node000035_Node000034"><a xlink:title=" ">
<path fill="none" stroke="#63b8ff" d="M1168.84,-164.84C1171.51,-157.04 1174.85,-147.27 1177.71,-138.89"/>
<polygon fill="#63b8ff" stroke="#63b8ff" points="1181.08,-139.86 1181,-129.27 1174.46,-137.6 1181.08,-139.86"/>
</a>
</g>
</g>
<!-- Node35&#45;&gt;Node36 -->
<g id="edge51_Node000035_Node000036" class="edge">
<title>Node35&#45;&gt;Node36</title>
<g id="a_edge51_Node000035_Node000036"><a xlink:title=" ">
<path fill="none" stroke="#63b8ff" d="M1223.69,-165.92C1268.64,-155.99 1331.75,-141.9 1387,-129 1388.45,-128.66 1389.93,-128.31 1391.42,-127.96"/>
<polygon fill="#63b8ff" stroke="#63b8ff" points="1392.38,-131.33 1401.29,-125.59 1390.75,-124.52 1392.38,-131.33"/>
</a>
</g>
</g>
<!-- Node37&#45;&gt;Node12 -->
<g id="edge56_Node000037_Node000012" class="edge">
<title>Node37&#45;&gt;Node12</title>
<g id="a_edge56_Node000037_Node000012"><a xlink:title=" ">
<path fill="none" stroke="#63b8ff" d="M899.41,-170.49C855.74,-159.43 779.87,-140.22 736,-129.11"/>
<polygon fill="#63b8ff" stroke="#63b8ff" points="736.65,-125.66 726.1,-126.6 734.93,-132.45 736.65,-125.66"/>
</a>
</g>
</g>
<!-- Node37&#45;&gt;Node34 -->
<g id="edge57_Node000037_Node000034" class="edge">
<title>Node37&#45;&gt;Node34</title>
<g id="a_edge57_Node000037_Node000034"><a xlink:title=" ">
<path fill="none" stroke="#63b8ff" d="M971.51,-170.46C1021.12,-159.43 1105.62,-140.52 1151.39,-129.31"/>
<polygon fill="#63b8ff" stroke="#63b8ff" points="1152.48,-132.64 1161.34,-126.84 1150.79,-125.85 1152.48,-132.64"/>
</a>
</g>
</g>
<!-- Node38&#45;&gt;Node12 -->
<g id="edge59_Node000038_Node000012" class="edge">
<title>Node38&#45;&gt;Node12</title>
<g id="a_edge59_Node000038_Node000012"><a xlink:title=" ">
<path fill="none" stroke="#63b8ff" d="M800.17,-230.67C791.98,-216.12 774.36,-186.56 755,-165 745.22,-154.11 732.74,-143.5 722.34,-135.37"/>
<polygon fill="#63b8ff" stroke="#63b8ff" points="724.29,-132.45 714.21,-129.18 720.05,-138.02 724.29,-132.45"/>
</a>
</g>
</g>
</g>
</svg>
