<?xml version="1.0" encoding="UTF-8" standalone="no"?>
<!DOCTYPE svg PUBLIC "-//W3C//DTD SVG 1.1//EN"
 "http://www.w3.org/Graphics/SVG/1.1/DTD/svg11.dtd">
<!-- Generated by graphviz version 2.43.0 (0)
 -->
<!-- Title: /home/runner/work/cbmc/cbmc/src/goto&#45;instrument/show_locations.h Pages: 1 -->
<svg width="966pt" height="489pt"
 viewBox="0.00 0.00 965.50 489.00" xmlns="http://www.w3.org/2000/svg" xmlns:xlink="http://www.w3.org/1999/xlink">
<g id="graph0" class="graph" transform="scale(1 1) rotate(0) translate(4 485)">
<title>/home/runner/work/cbmc/cbmc/src/goto&#45;instrument/show_locations.h</title>
<!-- Node1 -->
<g id="Node000001" class="node">
<title>Node1</title>
<g id="a_Node000001"><a xlink:title="Show program locations.">
<polygon fill="#999999" stroke="#666666" points="166.5,-481 21.5,-481 21.5,-440 166.5,-440 166.5,-481"/>
<text text-anchor="start" x="29.5" y="-469" font-family="Helvetica,sans-Serif" font-size="10.00">/home/runner/work/cbmc</text>
<text text-anchor="start" x="29.5" y="-458" font-family="Helvetica,sans-Serif" font-size="10.00">/cbmc/src/goto&#45;instrument</text>
<text text-anchor="middle" x="94" y="-447" font-family="Helvetica,sans-Serif" font-size="10.00">/show_locations.h</text>
</a>
</g>
</g>
<!-- Node2 -->
<g id="Node000002" class="node">
<title>Node2</title>
<g id="a_Node000002"><a xlink:href="ui__message_8h.html" target="_top" xlink:title=" ">
<polygon fill="white" stroke="#666666" points="145.5,-404 42.5,-404 42.5,-385 145.5,-385 145.5,-404"/>
<text text-anchor="middle" x="94" y="-392" font-family="Helvetica,sans-Serif" font-size="10.00">util/ui_message.h</text>
</a>
</g>
</g>
<!-- Node1&#45;&gt;Node2 -->
<g id="edge1_Node000001_Node000002" class="edge">
<title>Node1&#45;&gt;Node2</title>
<g id="a_edge1_Node000001_Node000002"><a xlink:title=" ">
<path fill="none" stroke="#63b8ff" d="M94,-439.95C94,-431.85 94,-422.5 94,-414.47"/>
<polygon fill="#63b8ff" stroke="#63b8ff" points="97.5,-414.26 94,-404.26 90.5,-414.26 97.5,-414.26"/>
</a>
</g>
</g>
<!-- Node3 -->
<g id="Node000003" class="node">
<title>Node3</title>
<g id="a_Node000003"><a xlink:title=" ">
<polygon fill="#e0e0e0" stroke="#999999" points="58,-294 0,-294 0,-275 58,-275 58,-294"/>
<text text-anchor="middle" x="29" y="-282" font-family="Helvetica,sans-Serif" font-size="10.00">memory</text>
</a>
</g>
</g>
<!-- Node2&#45;&gt;Node3 -->
<g id="edge2_Node000002_Node000003" class="edge">
<title>Node2&#45;&gt;Node3</title>
<g id="a_edge2_Node000002_Node000003"><a xlink:title=" ">
<path fill="none" stroke="#63b8ff" d="M78.95,-384.93C66.74,-377.16 50.1,-364.55 41,-349 33.11,-335.52 30.25,-317.92 29.29,-304.67"/>
<polygon fill="#63b8ff" stroke="#63b8ff" points="32.77,-304.2 28.85,-294.36 25.78,-304.5 32.77,-304.2"/>
</a>
</g>
</g>
<!-- Node4 -->
<g id="Node000004" class="node">
<title>Node4</title>
<g id="a_Node000004"><a xlink:href="src_2util_2message_8h.html" target="_top" xlink:title=" ">
<polygon fill="white" stroke="#666666" points="336,-349 266,-349 266,-330 336,-330 336,-349"/>
<text text-anchor="middle" x="301" y="-337" font-family="Helvetica,sans-Serif" font-size="10.00">message.h</text>
</a>
</g>
</g>
<!-- Node2&#45;&gt;Node4 -->
<g id="edge3_Node000002_Node000004" class="edge">
<title>Node2&#45;&gt;Node4</title>
<g id="a_edge3_Node000002_Node000004"><a xlink:title=" ">
<path fill="none" stroke="#63b8ff" d="M127.26,-384.98C162.61,-375.93 218.67,-361.58 257.51,-351.64"/>
<polygon fill="#63b8ff" stroke="#63b8ff" points="258.66,-354.95 267.48,-349.08 256.93,-348.17 258.66,-354.95"/>
</a>
</g>
</g>
<!-- Node32 -->
<g id="Node000032" class="node">
<title>Node32</title>
<g id="a_Node000032"><a xlink:href="timestamper_8h.html" target="_top" xlink:title="Emit timestamps.">
<polygon fill="white" stroke="#666666" points="138,-349 50,-349 50,-330 138,-330 138,-349"/>
<text text-anchor="middle" x="94" y="-337" font-family="Helvetica,sans-Serif" font-size="10.00">timestamper.h</text>
</a>
</g>
</g>
<!-- Node2&#45;&gt;Node32 -->
<g id="edge33_Node000002_Node000032" class="edge">
<title>Node2&#45;&gt;Node32</title>
<g id="a_edge33_Node000002_Node000032"><a xlink:title=" ">
<path fill="none" stroke="#63b8ff" d="M94,-384.75C94,-377.8 94,-367.85 94,-359.13"/>
<polygon fill="#63b8ff" stroke="#63b8ff" points="97.5,-359.09 94,-349.09 90.5,-359.09 97.5,-359.09"/>
</a>
</g>
</g>
<!-- Node5 -->
<g id="Node000005" class="node">
<title>Node5</title>
<g id="a_Node000005"><a xlink:href="src_2util_2invariant_8h.html" target="_top" xlink:title=" ">
<polygon fill="white" stroke="#666666" points="804.5,-74 735.5,-74 735.5,-55 804.5,-55 804.5,-74"/>
<text text-anchor="middle" x="770" y="-62" font-family="Helvetica,sans-Serif" font-size="10.00">invariant.h</text>
</a>
</g>
</g>
<!-- Node4&#45;&gt;Node5 -->
<g id="edge4_Node000004_Node000005" class="edge">
<title>Node4&#45;&gt;Node5</title>
<g id="a_edge4_Node000004_Node000005"><a xlink:title=" ">
<path fill="none" stroke="#63b8ff" d="M336.26,-338.77C453.97,-338.76 826,-330.77 826,-230.5 826,-230.5 826,-230.5 826,-173.5 826,-137.65 801.38,-101.86 784.79,-81.81"/>
<polygon fill="#63b8ff" stroke="#63b8ff" points="787.44,-79.52 778.26,-74.23 782.13,-84.09 787.44,-79.52"/>
</a>
</g>
</g>
<!-- Node7 -->
<g id="Node000007" class="node">
<title>Node7</title>
<g id="a_Node000007"><a xlink:title=" ">
<polygon fill="#e0e0e0" stroke="#999999" points="871,-19 815,-19 815,0 871,0 871,-19"/>
<text text-anchor="middle" x="843" y="-7" font-family="Helvetica,sans-Serif" font-size="10.00">sstream</text>
</a>
</g>
</g>
<!-- Node4&#45;&gt;Node7 -->
<g id="edge31_Node000004_Node000007" class="edge">
<title>Node4&#45;&gt;Node7</title>
<g id="a_edge31_Node000004_Node000007"><a xlink:title=" ">
<path fill="none" stroke="#63b8ff" d="M336.02,-338.02C433.63,-336.27 707,-328.35 789,-294 829.28,-277.12 864,-274.18 864,-230.5 864,-230.5 864,-230.5 864,-118.5 864,-86.46 854.98,-50.03 848.77,-28.73"/>
<polygon fill="#63b8ff" stroke="#63b8ff" points="852.09,-27.62 845.83,-19.07 845.39,-29.65 852.09,-27.62"/>
</a>
</g>
</g>
<!-- Node8 -->
<g id="Node000008" class="node">
<title>Node8</title>
<g id="a_Node000008"><a xlink:title=" ">
<polygon fill="#e0e0e0" stroke="#999999" points="295,-19 251,-19 251,0 295,0 295,-19"/>
<text text-anchor="middle" x="273" y="-7" font-family="Helvetica,sans-Serif" font-size="10.00">string</text>
</a>
</g>
</g>
<!-- Node4&#45;&gt;Node8 -->
<g id="edge32_Node000004_Node000008" class="edge">
<title>Node4&#45;&gt;Node8</title>
<g id="a_edge32_Node000004_Node000008"><a xlink:title=" ">
<path fill="none" stroke="#63b8ff" d="M265.99,-332.8C215.44,-322.34 128,-294.94 128,-230.5 128,-230.5 128,-230.5 128,-118.5 128,-62.42 198.63,-32.01 241.31,-18.76"/>
<polygon fill="#63b8ff" stroke="#63b8ff" points="242.38,-22.09 250.98,-15.9 240.4,-15.38 242.38,-22.09"/>
</a>
</g>
</g>
<!-- Node10 -->
<g id="Node000010" class="node">
<title>Node10</title>
<g id="a_Node000010"><a xlink:href="source__location_8h.html" target="_top" xlink:title=" ">
<polygon fill="white" stroke="#666666" points="352,-294 250,-294 250,-275 352,-275 352,-294"/>
<text text-anchor="middle" x="301" y="-282" font-family="Helvetica,sans-Serif" font-size="10.00">source_location.h</text>
</a>
</g>
</g>
<!-- Node4&#45;&gt;Node10 -->
<g id="edge9_Node000004_Node000010" class="edge">
<title>Node4&#45;&gt;Node10</title>
<g id="a_edge9_Node000004_Node000010"><a xlink:title=" ">
<path fill="none" stroke="#63b8ff" d="M301,-329.75C301,-322.8 301,-312.85 301,-304.13"/>
<polygon fill="#63b8ff" stroke="#63b8ff" points="304.5,-304.09 301,-294.09 297.5,-304.09 304.5,-304.09"/>
</a>
</g>
</g>
<!-- Node16 -->
<g id="Node000016" class="node">
<title>Node16</title>
<g id="a_Node000016"><a xlink:title=" ">
<polygon fill="#e0e0e0" stroke="#999999" points="303,-74 255,-74 255,-55 303,-55 303,-74"/>
<text text-anchor="middle" x="279" y="-62" font-family="Helvetica,sans-Serif" font-size="10.00">iosfwd</text>
</a>
</g>
</g>
<!-- Node4&#45;&gt;Node16 -->
<g id="edge30_Node000004_Node000016" class="edge">
<title>Node4&#45;&gt;Node16</title>
<g id="a_edge30_Node000004_Node000016"><a xlink:title=" ">
<path fill="none" stroke="#63b8ff" d="M272.7,-330C233.11,-316.15 166,-284.68 166,-230.5 166,-230.5 166,-230.5 166,-173.5 166,-127.68 215.15,-95.32 248.62,-78.6"/>
<polygon fill="#63b8ff" stroke="#63b8ff" points="250.5,-81.58 258.01,-74.11 247.48,-75.27 250.5,-81.58"/>
</a>
</g>
</g>
<!-- Node31 -->
<g id="Node000031" class="node">
<title>Node31</title>
<g id="a_Node000031"><a xlink:title=" ">
<polygon fill="#e0e0e0" stroke="#999999" points="957.5,-294 892.5,-294 892.5,-275 957.5,-275 957.5,-294"/>
<text text-anchor="middle" x="925" y="-282" font-family="Helvetica,sans-Serif" font-size="10.00">functional</text>
</a>
</g>
</g>
<!-- Node4&#45;&gt;Node31 -->
<g id="edge29_Node000004_Node000031" class="edge">
<title>Node4&#45;&gt;Node31</title>
<g id="a_edge29_Node000004_Node000031"><a xlink:title=" ">
<path fill="none" stroke="#63b8ff" d="M336.25,-337.03C426.6,-333.01 673.72,-320.28 878,-294 879.46,-293.81 880.95,-293.61 882.46,-293.39"/>
<polygon fill="#63b8ff" stroke="#63b8ff" points="883.11,-296.83 892.45,-291.83 882.03,-289.92 883.11,-296.83"/>
</a>
</g>
</g>
<!-- Node6 -->
<g id="Node000006" class="node">
<title>Node6</title>
<g id="a_Node000006"><a xlink:title=" ">
<polygon fill="#e0e0e0" stroke="#999999" points="794.5,-19 745.5,-19 745.5,0 794.5,0 794.5,-19"/>
<text text-anchor="middle" x="770" y="-7" font-family="Helvetica,sans-Serif" font-size="10.00">cstdlib</text>
</a>
</g>
</g>
<!-- Node5&#45;&gt;Node6 -->
<g id="edge5_Node000005_Node000006" class="edge">
<title>Node5&#45;&gt;Node6</title>
<g id="a_edge5_Node000005_Node000006"><a xlink:title=" ">
<path fill="none" stroke="#63b8ff" d="M770,-54.75C770,-47.8 770,-37.85 770,-29.13"/>
<polygon fill="#63b8ff" stroke="#63b8ff" points="773.5,-29.09 770,-19.09 766.5,-29.09 773.5,-29.09"/>
</a>
</g>
</g>
<!-- Node5&#45;&gt;Node7 -->
<g id="edge6_Node000005_Node000007" class="edge">
<title>Node5&#45;&gt;Node7</title>
<g id="a_edge6_Node000005_Node000007"><a xlink:title=" ">
<path fill="none" stroke="#63b8ff" d="M781.73,-54.98C792.73,-47 809.42,-34.88 822.6,-25.31"/>
<polygon fill="#63b8ff" stroke="#63b8ff" points="825.02,-27.88 831.06,-19.17 820.91,-22.21 825.02,-27.88"/>
</a>
</g>
</g>
<!-- Node5&#45;&gt;Node8 -->
<g id="edge7_Node000005_Node000008" class="edge">
<title>Node5&#45;&gt;Node8</title>
<g id="a_edge7_Node000005_Node000008"><a xlink:title=" ">
<path fill="none" stroke="#63b8ff" d="M735.45,-59.82C643.53,-50.01 394,-23.4 305.04,-13.92"/>
<polygon fill="#63b8ff" stroke="#63b8ff" points="305.32,-10.43 295,-12.85 304.58,-17.39 305.32,-10.43"/>
</a>
</g>
</g>
<!-- Node9 -->
<g id="Node000009" class="node">
<title>Node9</title>
<g id="a_Node000009"><a xlink:title=" ">
<polygon fill="#e0e0e0" stroke="#999999" points="691.5,-19 622.5,-19 622.5,0 691.5,0 691.5,-19"/>
<text text-anchor="middle" x="657" y="-7" font-family="Helvetica,sans-Serif" font-size="10.00">type_traits</text>
</a>
</g>
</g>
<!-- Node5&#45;&gt;Node9 -->
<g id="edge8_Node000005_Node000009" class="edge">
<title>Node5&#45;&gt;Node9</title>
<g id="a_edge8_Node000005_Node000009"><a xlink:title=" ">
<path fill="none" stroke="#63b8ff" d="M751.84,-54.98C733.75,-46.5 705.72,-33.35 684.81,-23.54"/>
<polygon fill="#63b8ff" stroke="#63b8ff" points="686.03,-20.25 675.49,-19.17 683.05,-26.59 686.03,-20.25"/>
</a>
</g>
</g>
<!-- Node10&#45;&gt;Node8 -->
<g id="edge28_Node000010_Node000008" class="edge">
<title>Node10&#45;&gt;Node8</title>
<g id="a_edge28_Node000010_Node000008"><a xlink:title=" ">
<path fill="none" stroke="#63b8ff" d="M275.83,-274.89C258.63,-267.79 236.58,-256.09 223,-239 204.67,-215.94 204,-204.96 204,-175.5 204,-175.5 204,-175.5 204,-118.5 204,-80.59 234.56,-45.3 255.01,-25.94"/>
<polygon fill="#63b8ff" stroke="#63b8ff" points="257.48,-28.42 262.52,-19.1 252.77,-23.24 257.48,-28.42"/>
</a>
</g>
</g>
<!-- Node11 -->
<g id="Node000011" class="node">
<title>Node11</title>
<g id="a_Node000011"><a xlink:href="deprecate_8h.html" target="_top" xlink:title=" ">
<polygon fill="white" stroke="#666666" points="380,-239 306,-239 306,-220 380,-220 380,-239"/>
<text text-anchor="middle" x="343" y="-227" font-family="Helvetica,sans-Serif" font-size="10.00">deprecate.h</text>
</a>
</g>
</g>
<!-- Node10&#45;&gt;Node11 -->
<g id="edge10_Node000010_Node000011" class="edge">
<title>Node10&#45;&gt;Node11</title>
<g id="a_edge10_Node000010_Node000011"><a xlink:title=" ">
<path fill="none" stroke="#63b8ff" d="M307.94,-274.75C313.87,-267.26 322.57,-256.28 329.82,-247.13"/>
<polygon fill="#63b8ff" stroke="#63b8ff" points="332.73,-249.1 336.19,-239.09 327.24,-244.75 332.73,-249.1"/>
</a>
</g>
</g>
<!-- Node12 -->
<g id="Node000012" class="node">
<title>Node12</title>
<g id="a_Node000012"><a xlink:href="irep_8h.html" target="_top" xlink:title=" ">
<polygon fill="white" stroke="#666666" points="442,-239 398,-239 398,-220 442,-220 442,-239"/>
<text text-anchor="middle" x="420" y="-227" font-family="Helvetica,sans-Serif" font-size="10.00">irep.h</text>
</a>
</g>
</g>
<!-- Node10&#45;&gt;Node12 -->
<g id="edge11_Node000010_Node000012" class="edge">
<title>Node10&#45;&gt;Node12</title>
<g id="a_edge11_Node000010_Node000012"><a xlink:title=" ">
<path fill="none" stroke="#63b8ff" d="M320.12,-274.98C339.35,-266.42 369.23,-253.11 391.31,-243.28"/>
<polygon fill="#63b8ff" stroke="#63b8ff" points="392.82,-246.44 400.53,-239.17 389.97,-240.04 392.82,-246.44"/>
</a>
</g>
</g>
<!-- Node30 -->
<g id="Node000030" class="node">
<title>Node30</title>
<g id="a_Node000030"><a xlink:title=" ">
<polygon fill="#e0e0e0" stroke="#999999" points="288,-239 232,-239 232,-220 288,-220 288,-239"/>
<text text-anchor="middle" x="260" y="-227" font-family="Helvetica,sans-Serif" font-size="10.00">optional</text>
</a>
</g>
</g>
<!-- Node10&#45;&gt;Node30 -->
<g id="edge27_Node000010_Node000030" class="edge">
<title>Node10&#45;&gt;Node30</title>
<g id="a_edge27_Node000010_Node000030"><a xlink:title=" ">
<path fill="none" stroke="#63b8ff" d="M294.23,-274.75C288.44,-267.26 279.94,-256.28 272.86,-247.13"/>
<polygon fill="#63b8ff" stroke="#63b8ff" points="275.53,-244.86 266.64,-239.09 269.99,-249.14 275.53,-244.86"/>
</a>
</g>
</g>
<!-- Node12&#45;&gt;Node5 -->
<g id="edge14_Node000012_Node000005" class="edge">
<title>Node12&#45;&gt;Node5</title>
<g id="a_edge14_Node000012_Node000005"><a xlink:title=" ">
<path fill="none" stroke="#63b8ff" d="M442.01,-225.83C512.57,-216.74 730.73,-184.5 769,-129 777.9,-116.09 777.22,-97.93 774.86,-84.34"/>
<polygon fill="#63b8ff" stroke="#63b8ff" points="778.2,-83.24 772.65,-74.21 771.36,-84.72 778.2,-83.24"/>
</a>
</g>
</g>
<!-- Node12&#45;&gt;Node8 -->
<g id="edge12_Node000012_Node000008" class="edge">
<title>Node12&#45;&gt;Node8</title>
<g id="a_edge12_Node000012_Node000008"><a xlink:title=" ">
<path fill="none" stroke="#63b8ff" d="M419.78,-219.81C418.91,-199.29 414.57,-146.76 393,-110 370.12,-70.99 325.97,-40.51 298.08,-24.05"/>
<polygon fill="#63b8ff" stroke="#63b8ff" points="299.71,-20.95 289.3,-19.01 296.23,-27.02 299.71,-20.95"/>
</a>
</g>
</g>
<!-- Node13 -->
<g id="Node000013" class="node">
<title>Node13</title>
<g id="a_Node000013"><a xlink:title=" ">
<polygon fill="#e0e0e0" stroke="#999999" points="383.5,-184 336.5,-184 336.5,-165 383.5,-165 383.5,-184"/>
<text text-anchor="middle" x="360" y="-172" font-family="Helvetica,sans-Serif" font-size="10.00">vector</text>
</a>
</g>
</g>
<!-- Node12&#45;&gt;Node13 -->
<g id="edge13_Node000012_Node000013" class="edge">
<title>Node12&#45;&gt;Node13</title>
<g id="a_edge13_Node000012_Node000013"><a xlink:title=" ">
<path fill="none" stroke="#63b8ff" d="M410.36,-219.98C401.49,-212.15 388.13,-200.34 377.39,-190.86"/>
<polygon fill="#63b8ff" stroke="#63b8ff" points="379.63,-188.17 369.82,-184.17 374.99,-193.41 379.63,-188.17"/>
</a>
</g>
</g>
<!-- Node14 -->
<g id="Node000014" class="node">
<title>Node14</title>
<g id="a_Node000014"><a xlink:href="irep__ids_8h.html" target="_top" xlink:title="util">
<polygon fill="white" stroke="#666666" points="318,-184 254,-184 254,-165 318,-165 318,-184"/>
<text text-anchor="middle" x="286" y="-172" font-family="Helvetica,sans-Serif" font-size="10.00">irep_ids.h</text>
</a>
</g>
</g>
<!-- Node12&#45;&gt;Node14 -->
<g id="edge15_Node000012_Node000014" class="edge">
<title>Node12&#45;&gt;Node14</title>
<g id="a_edge15_Node000012_Node000014"><a xlink:title=" ">
<path fill="none" stroke="#63b8ff" d="M398.47,-219.98C376.53,-211.3 342.26,-197.75 317.31,-187.88"/>
<polygon fill="#63b8ff" stroke="#63b8ff" points="318.51,-184.59 307.92,-184.17 315.93,-191.1 318.51,-184.59"/>
</a>
</g>
</g>
<!-- Node25 -->
<g id="Node000025" class="node">
<title>Node25</title>
<g id="a_Node000025"><a xlink:href="forward__list__as__map_8h.html" target="_top" xlink:title=" ">
<polygon fill="white" stroke="#666666" points="621.5,-184 494.5,-184 494.5,-165 621.5,-165 621.5,-184"/>
<text text-anchor="middle" x="558" y="-172" font-family="Helvetica,sans-Serif" font-size="10.00">forward_list_as_map.h</text>
</a>
</g>
</g>
<!-- Node12&#45;&gt;Node25 -->
<g id="edge20_Node000012_Node000025" class="edge">
<title>Node12&#45;&gt;Node25</title>
<g id="a_edge20_Node000012_Node000025"><a xlink:title=" ">
<path fill="none" stroke="#63b8ff" d="M442.17,-219.98C464.77,-211.3 500.06,-197.75 525.75,-187.88"/>
<polygon fill="#63b8ff" stroke="#63b8ff" points="527.34,-191.02 535.42,-184.17 524.83,-184.49 527.34,-191.02"/>
</a>
</g>
</g>
<!-- Node15 -->
<g id="Node000015" class="node">
<title>Node15</title>
<g id="a_Node000015"><a xlink:href="dstring_8h.html" target="_top" xlink:title="Container for C&#45;Strings.">
<polygon fill="#fff0f0" stroke="red" points="383.5,-129 324.5,-129 324.5,-110 383.5,-110 383.5,-129"/>
<text text-anchor="middle" x="354" y="-117" font-family="Helvetica,sans-Serif" font-size="10.00">dstring.h</text>
</a>
</g>
</g>
<!-- Node14&#45;&gt;Node15 -->
<g id="edge16_Node000014_Node000015" class="edge">
<title>Node14&#45;&gt;Node15</title>
<g id="a_edge16_Node000014_Node000015"><a xlink:title=" ">
<path fill="none" stroke="#63b8ff" d="M296.93,-164.98C307.08,-157.07 322.42,-145.11 334.65,-135.58"/>
<polygon fill="#63b8ff" stroke="#63b8ff" points="337.14,-138.08 342.88,-129.17 332.84,-132.56 337.14,-138.08"/>
</a>
</g>
</g>
<!-- Node24 -->
<g id="Node000024" class="node">
<title>Node24</title>
<g id="a_Node000024"><a xlink:title=" ">
<polygon fill="#e0e0e0" stroke="#999999" points="306,-129 232,-129 232,-110 306,-110 306,-129"/>
<text text-anchor="middle" x="269" y="-117" font-family="Helvetica,sans-Serif" font-size="10.00">irep_ids.def</text>
</a>
</g>
</g>
<!-- Node14&#45;&gt;Node24 -->
<g id="edge19_Node000014_Node000024" class="edge">
<title>Node14&#45;&gt;Node24</title>
<g id="a_edge19_Node000014_Node000024"><a xlink:title=" ">
<path fill="none" stroke="#63b8ff" d="M283.19,-164.75C280.94,-157.72 277.7,-147.62 274.88,-138.84"/>
<polygon fill="#63b8ff" stroke="#63b8ff" points="278.14,-137.54 271.75,-129.09 271.48,-139.68 278.14,-137.54"/>
</a>
</g>
</g>
<!-- Node15&#45;&gt;Node8 -->
<g id="edge18_Node000015_Node000008" class="edge">
<title>Node15&#45;&gt;Node8</title>
<g id="a_edge18_Node000015_Node000008"><a xlink:title=" ">
<path fill="none" stroke="#63b8ff" d="M348.65,-109.62C341,-97.1 326.28,-73.7 312,-55 304.52,-45.2 295.48,-34.81 287.99,-26.54"/>
<polygon fill="#63b8ff" stroke="#63b8ff" points="290.47,-24.07 281.13,-19.07 285.32,-28.8 290.47,-24.07"/>
</a>
</g>
</g>
<!-- Node15&#45;&gt;Node16 -->
<g id="edge17_Node000015_Node000016" class="edge">
<title>Node15&#45;&gt;Node16</title>
<g id="a_edge17_Node000015_Node000016"><a xlink:title=" ">
<path fill="none" stroke="#63b8ff" d="M341.95,-109.98C330.54,-101.92 313.17,-89.65 299.57,-80.03"/>
<polygon fill="#63b8ff" stroke="#63b8ff" points="301.46,-77.08 291.27,-74.17 297.42,-82.8 301.46,-77.08"/>
</a>
</g>
</g>
<!-- Node26 -->
<g id="Node000026" class="node">
<title>Node26</title>
<g id="a_Node000026"><a xlink:title=" ">
<polygon fill="#e0e0e0" stroke="#999999" points="590,-129 526,-129 526,-110 590,-110 590,-129"/>
<text text-anchor="middle" x="558" y="-117" font-family="Helvetica,sans-Serif" font-size="10.00">algorithm</text>
</a>
</g>
</g>
<!-- Node25&#45;&gt;Node26 -->
<g id="edge21_Node000025_Node000026" class="edge">
<title>Node25&#45;&gt;Node26</title>
<g id="a_edge21_Node000025_Node000026"><a xlink:title=" ">
<path fill="none" stroke="#63b8ff" d="M558,-164.75C558,-157.8 558,-147.85 558,-139.13"/>
<polygon fill="#63b8ff" stroke="#63b8ff" points="561.5,-139.09 558,-129.09 554.5,-139.09 561.5,-139.09"/>
</a>
</g>
</g>
<!-- Node27 -->
<g id="Node000027" class="node">
<title>Node27</title>
<g id="a_Node000027"><a xlink:title=" ">
<polygon fill="#e0e0e0" stroke="#999999" points="760,-129 686,-129 686,-110 760,-110 760,-129"/>
<text text-anchor="middle" x="723" y="-117" font-family="Helvetica,sans-Serif" font-size="10.00">forward_list</text>
</a>
</g>
</g>
<!-- Node25&#45;&gt;Node27 -->
<g id="edge22_Node000025_Node000027" class="edge">
<title>Node25&#45;&gt;Node27</title>
<g id="a_edge22_Node000025_Node000027"><a xlink:title=" ">
<path fill="none" stroke="#63b8ff" d="M584.51,-164.98C612.21,-156.09 655.86,-142.07 686.74,-132.15"/>
<polygon fill="#63b8ff" stroke="#63b8ff" points="687.83,-135.47 696.28,-129.08 685.69,-128.81 687.83,-135.47"/>
</a>
</g>
</g>
<!-- Node28 -->
<g id="Node000028" class="node">
<title>Node28</title>
<g id="a_Node000028"><a xlink:href="as__const_8h.html" target="_top" xlink:title=" ">
<polygon fill="white" stroke="#666666" points="508,-129 440,-129 440,-110 508,-110 508,-129"/>
<text text-anchor="middle" x="474" y="-117" font-family="Helvetica,sans-Serif" font-size="10.00">as_const.h</text>
</a>
</g>
</g>
<!-- Node25&#45;&gt;Node28 -->
<g id="edge23_Node000025_Node000028" class="edge">
<title>Node25&#45;&gt;Node28</title>
<g id="a_edge23_Node000025_Node000028"><a xlink:title=" ">
<path fill="none" stroke="#63b8ff" d="M544.5,-164.98C531.6,-156.84 511.9,-144.41 496.6,-134.76"/>
<polygon fill="#63b8ff" stroke="#63b8ff" points="498.07,-131.55 487.74,-129.17 494.33,-137.47 498.07,-131.55"/>
</a>
</g>
</g>
<!-- Node29 -->
<g id="Node000029" class="node">
<title>Node29</title>
<g id="a_Node000029"><a xlink:href="narrow_8h.html" target="_top" xlink:title=" ">
<polygon fill="white" stroke="#666666" points="667.5,-129 608.5,-129 608.5,-110 667.5,-110 667.5,-129"/>
<text text-anchor="middle" x="638" y="-117" font-family="Helvetica,sans-Serif" font-size="10.00">narrow.h</text>
</a>
</g>
</g>
<!-- Node25&#45;&gt;Node29 -->
<g id="edge24_Node000025_Node000029" class="edge">
<title>Node25&#45;&gt;Node29</title>
<g id="a_edge24_Node000025_Node000029"><a xlink:title=" ">
<path fill="none" stroke="#63b8ff" d="M570.85,-164.98C583.14,-156.84 601.91,-144.41 616.48,-134.76"/>
<polygon fill="#63b8ff" stroke="#63b8ff" points="618.51,-137.61 624.91,-129.17 614.64,-131.78 618.51,-137.61"/>
</a>
</g>
</g>
<!-- Node29&#45;&gt;Node5 -->
<g id="edge26_Node000029_Node000005" class="edge">
<title>Node29&#45;&gt;Node5</title>
<g id="a_edge26_Node000029_Node000005"><a xlink:title=" ">
<path fill="none" stroke="#63b8ff" d="M659.21,-109.98C680.73,-101.34 714.28,-87.87 738.83,-78.02"/>
<polygon fill="#63b8ff" stroke="#63b8ff" points="740.43,-81.14 748.41,-74.17 737.82,-74.65 740.43,-81.14"/>
</a>
</g>
</g>
<!-- Node29&#45;&gt;Node9 -->
<g id="edge25_Node000029_Node000009" class="edge">
<title>Node29&#45;&gt;Node9</title>
<g id="a_edge25_Node000029_Node000009"><a xlink:title=" ">
<path fill="none" stroke="#63b8ff" d="M639.55,-109.66C642.63,-92.17 649.56,-52.8 653.7,-29.27"/>
<polygon fill="#63b8ff" stroke="#63b8ff" points="657.19,-29.61 655.48,-19.16 650.3,-28.4 657.19,-29.61"/>
</a>
</g>
</g>
<!-- Node32&#45;&gt;Node3 -->
<g id="edge34_Node000032_Node000003" class="edge">
<title>Node32&#45;&gt;Node3</title>
<g id="a_edge34_Node000032_Node000003"><a xlink:title=" ">
<path fill="none" stroke="#63b8ff" d="M83.56,-329.98C73.85,-322.07 59.18,-310.11 47.5,-300.58"/>
<polygon fill="#63b8ff" stroke="#63b8ff" points="49.6,-297.78 39.63,-294.17 45.17,-303.2 49.6,-297.78"/>
</a>
</g>
</g>
<!-- Node32&#45;&gt;Node8 -->
<g id="edge35_Node000032_Node000008" class="edge">
<title>Node32&#45;&gt;Node8</title>
<g id="a_edge35_Node000032_Node000008"><a xlink:title=" ">
<path fill="none" stroke="#63b8ff" d="M93.46,-329.82C92.37,-311.49 90,-267.46 90,-230.5 90,-230.5 90,-230.5 90,-118.5 90,-49.3 188.25,-23.53 240.77,-14.69"/>
<polygon fill="#63b8ff" stroke="#63b8ff" points="241.59,-18.11 250.93,-13.1 240.5,-11.19 241.59,-18.11"/>
</a>
</g>
</g>
</g>
</svg>
