<?xml version="1.0" encoding="UTF-8" standalone="no"?>
<!DOCTYPE svg PUBLIC "-//W3C//DTD SVG 1.1//EN"
 "http://www.w3.org/Graphics/SVG/1.1/DTD/svg11.dtd">
<!-- Generated by graphviz version 2.43.0 (0)
 -->
<!-- Title: /home/runner/work/cbmc/cbmc/src/goto&#45;programs/show_properties.h Pages: 1 -->
<svg width="2696pt" height="203pt"
 viewBox="0.00 0.00 2696.00 203.00" xmlns="http://www.w3.org/2000/svg" xmlns:xlink="http://www.w3.org/1999/xlink">
<g id="graph0" class="graph" transform="scale(1 1) rotate(0) translate(4 199)">
<title>/home/runner/work/cbmc/cbmc/src/goto&#45;programs/show_properties.h</title>
<!-- Node1 -->
<g id="Node000001" class="node">
<title>Node1</title>
<g id="a_Node000001"><a xlink:title="Show the properties.">
<polygon fill="#999999" stroke="#666666" points="1427,-195 1289,-195 1289,-154 1427,-154 1427,-195"/>
<text text-anchor="start" x="1297" y="-183" font-family="Helvetica,sans-Serif" font-size="10.00">/home/runner/work/cbmc</text>
<text text-anchor="start" x="1297" y="-172" font-family="Helvetica,sans-Serif" font-size="10.00">/cbmc/src/goto&#45;programs</text>
<text text-anchor="middle" x="1358" y="-161" font-family="Helvetica,sans-Serif" font-size="10.00">/show_properties.h</text>
</a>
</g>
</g>
<!-- Node2 -->
<g id="Node000002" class="node">
<title>Node2</title>
<g id="a_Node000002"><a xlink:href="janalyzer__parse__options_8cpp.html" target="_top" xlink:title="JANALYZER Command Line Option Processing.">
<polygon fill="white" stroke="#666666" points="158,-41 0,-41 0,0 158,0 158,-41"/>
<text text-anchor="start" x="8" y="-29" font-family="Helvetica,sans-Serif" font-size="10.00">/home/runner/work/cbmc</text>
<text text-anchor="start" x="8" y="-18" font-family="Helvetica,sans-Serif" font-size="10.00">/cbmc/jbmc/src/janalyzer</text>
<text text-anchor="middle" x="79" y="-7" font-family="Helvetica,sans-Serif" font-size="10.00">/janalyzer_parse_options.cpp</text>
</a>
</g>
</g>
<!-- Node1&#45;&gt;Node2 -->
<g id="edge1_Node000001_Node000002" class="edge">
<title>Node1&#45;&gt;Node2</title>
<g id="a_edge1_Node000001_Node000002"><a xlink:title=" ">
<path fill="none" stroke="#63b8ff" d="M1278.44,-173.44C1027.26,-172.74 261.75,-166.61 162,-118 128.23,-101.54 102.71,-64.39 89.37,-41.28"/>
<polygon fill="#63b8ff" stroke="#63b8ff" points="1278.58,-176.94 1288.59,-173.46 1278.6,-169.94 1278.58,-176.94"/>
</a>
</g>
</g>
<!-- Node3 -->
<g id="Node000003" class="node">
<title>Node3</title>
<g id="a_Node000003"><a xlink:href="janalyzer__parse__options_8h.html" target="_top" xlink:title="JANALYZER Command Line Option Processing.">
<polygon fill="white" stroke="#666666" points="318.5,-118 171.5,-118 171.5,-77 318.5,-77 318.5,-118"/>
<text text-anchor="start" x="179.5" y="-106" font-family="Helvetica,sans-Serif" font-size="10.00">/home/runner/work/cbmc</text>
<text text-anchor="start" x="179.5" y="-95" font-family="Helvetica,sans-Serif" font-size="10.00">/cbmc/jbmc/src/janalyzer</text>
<text text-anchor="middle" x="245" y="-84" font-family="Helvetica,sans-Serif" font-size="10.00">/janalyzer_parse_options.h</text>
</a>
</g>
</g>
<!-- Node1&#45;&gt;Node3 -->
<g id="edge2_Node000001_Node000003" class="edge">
<title>Node1&#45;&gt;Node3</title>
<g id="a_edge2_Node000001_Node000003"><a xlink:title=" ">
<path fill="none" stroke="#63b8ff" d="M1278.52,-170.17C1116.86,-163.08 738.17,-144.95 421,-118 387.3,-115.14 350.07,-111.13 318.56,-107.5"/>
<polygon fill="#63b8ff" stroke="#63b8ff" points="1278.71,-173.68 1288.85,-170.62 1279.01,-166.68 1278.71,-173.68"/>
</a>
</g>
</g>
<!-- Node5 -->
<g id="Node000005" class="node">
<title>Node5</title>
<g id="a_Node000005"><a xlink:href="jbmc__parse__options_8cpp.html" target="_top" xlink:title="JBMC Command Line Option Processing.">
<polygon fill="white" stroke="#666666" points="476,-41 332,-41 332,0 476,0 476,-41"/>
<text text-anchor="start" x="340" y="-29" font-family="Helvetica,sans-Serif" font-size="10.00">/home/runner/work/cbmc</text>
<text text-anchor="start" x="340" y="-18" font-family="Helvetica,sans-Serif" font-size="10.00">/cbmc/jbmc/src/jbmc/jbmc</text>
<text text-anchor="middle" x="404" y="-7" font-family="Helvetica,sans-Serif" font-size="10.00">_parse_options.cpp</text>
</a>
</g>
</g>
<!-- Node1&#45;&gt;Node5 -->
<g id="edge5_Node000001_Node000005" class="edge">
<title>Node1&#45;&gt;Node5</title>
<g id="a_edge5_Node000001_Node000005"><a xlink:title=" ">
<path fill="none" stroke="#63b8ff" d="M1278.49,-172C1076.52,-167.69 554.73,-153.25 485,-118 451.81,-101.23 426.98,-64.18 414.05,-41.18"/>
<polygon fill="#63b8ff" stroke="#63b8ff" points="1278.66,-175.5 1288.73,-172.22 1278.81,-168.51 1278.66,-175.5"/>
</a>
</g>
</g>
<!-- Node6 -->
<g id="Node000006" class="node">
<title>Node6</title>
<g id="a_Node000006"><a xlink:href="jbmc__parse__options_8h.html" target="_top" xlink:title="JBMC Command Line Option Processing.">
<polygon fill="white" stroke="#666666" points="638,-118 494,-118 494,-77 638,-77 638,-118"/>
<text text-anchor="start" x="502" y="-106" font-family="Helvetica,sans-Serif" font-size="10.00">/home/runner/work/cbmc</text>
<text text-anchor="start" x="502" y="-95" font-family="Helvetica,sans-Serif" font-size="10.00">/cbmc/jbmc/src/jbmc/jbmc</text>
<text text-anchor="middle" x="566" y="-84" font-family="Helvetica,sans-Serif" font-size="10.00">_parse_options.h</text>
</a>
</g>
</g>
<!-- Node1&#45;&gt;Node6 -->
<g id="edge6_Node000001_Node000006" class="edge">
<title>Node1&#45;&gt;Node6</title>
<g id="a_edge6_Node000001_Node000006"><a xlink:title=" ">
<path fill="none" stroke="#63b8ff" d="M1278.57,-167.25C1159.33,-157.7 927.03,-138.42 730,-118 699.91,-114.88 666.77,-111.02 638.2,-107.56"/>
<polygon fill="#63b8ff" stroke="#63b8ff" points="1278.46,-170.76 1288.7,-168.06 1279.01,-163.78 1278.46,-170.76"/>
</a>
</g>
</g>
<!-- Node8 -->
<g id="Node000008" class="node">
<title>Node8</title>
<g id="a_Node000008"><a xlink:href="jdiff__parse__options_8cpp.html" target="_top" xlink:title="JDIFF Command Line Option Processing.">
<polygon fill="white" stroke="#666666" points="794,-41 656,-41 656,0 794,0 794,-41"/>
<text text-anchor="start" x="664" y="-29" font-family="Helvetica,sans-Serif" font-size="10.00">/home/runner/work/cbmc</text>
<text text-anchor="start" x="664" y="-18" font-family="Helvetica,sans-Serif" font-size="10.00">/cbmc/jbmc/src/jdiff/jdiff</text>
<text text-anchor="middle" x="725" y="-7" font-family="Helvetica,sans-Serif" font-size="10.00">_parse_options.cpp</text>
</a>
</g>
</g>
<!-- Node1&#45;&gt;Node8 -->
<g id="edge9_Node000001_Node000008" class="edge">
<title>Node1&#45;&gt;Node8</title>
<g id="a_edge9_Node000001_Node000008"><a xlink:title=" ">
<path fill="none" stroke="#63b8ff" d="M1278.42,-173.79C1142.49,-172.97 872.44,-165.22 792,-118 762.27,-100.55 742.6,-64.08 732.66,-41.31"/>
<polygon fill="#63b8ff" stroke="#63b8ff" points="1278.75,-177.29 1288.76,-173.84 1278.78,-170.29 1278.75,-177.29"/>
</a>
</g>
</g>
<!-- Node9 -->
<g id="Node000009" class="node">
<title>Node9</title>
<g id="a_Node000009"><a xlink:href="jdiff__parse__options_8h.html" target="_top" xlink:title="JDIFF Command Line Option Processing.">
<polygon fill="white" stroke="#666666" points="939,-118 801,-118 801,-77 939,-77 939,-118"/>
<text text-anchor="start" x="809" y="-106" font-family="Helvetica,sans-Serif" font-size="10.00">/home/runner/work/cbmc</text>
<text text-anchor="start" x="809" y="-95" font-family="Helvetica,sans-Serif" font-size="10.00">/cbmc/jbmc/src/jdiff/jdiff</text>
<text text-anchor="middle" x="870" y="-84" font-family="Helvetica,sans-Serif" font-size="10.00">_parse_options.h</text>
</a>
</g>
</g>
<!-- Node1&#45;&gt;Node9 -->
<g id="edge10_Node000001_Node000009" class="edge">
<title>Node1&#45;&gt;Node9</title>
<g id="a_edge10_Node000001_Node000009"><a xlink:title=" ">
<path fill="none" stroke="#63b8ff" d="M1278.6,-165.38C1195.7,-156.29 1062.1,-139.92 948,-118 945.12,-117.45 942.19,-116.85 939.23,-116.23"/>
<polygon fill="#63b8ff" stroke="#63b8ff" points="1278.39,-168.88 1288.71,-166.48 1279.14,-161.92 1278.39,-168.88"/>
</a>
</g>
</g>
<!-- Node12 -->
<g id="Node000012" class="node">
<title>Node12</title>
<g id="a_Node000012"><a xlink:href="cbmc__parse__options_8cpp.html" target="_top" xlink:title="CBMC Command Line Option Processing.">
<polygon fill="white" stroke="#666666" points="1111,-118 957,-118 957,-77 1111,-77 1111,-118"/>
<text text-anchor="start" x="965" y="-106" font-family="Helvetica,sans-Serif" font-size="10.00">/home/runner/work/cbmc</text>
<text text-anchor="start" x="965" y="-95" font-family="Helvetica,sans-Serif" font-size="10.00">/cbmc/src/cbmc/cbmc_parse</text>
<text text-anchor="middle" x="1034" y="-84" font-family="Helvetica,sans-Serif" font-size="10.00">_options.cpp</text>
</a>
</g>
</g>
<!-- Node1&#45;&gt;Node12 -->
<g id="edge14_Node000001_Node000012" class="edge">
<title>Node1&#45;&gt;Node12</title>
<g id="a_edge14_Node000001_Node000012"><a xlink:title=" ">
<path fill="none" stroke="#63b8ff" d="M1278.9,-155.19C1227.89,-143.38 1161.87,-128.1 1111.23,-116.38"/>
<polygon fill="#63b8ff" stroke="#63b8ff" points="1278.36,-158.66 1288.89,-157.5 1279.94,-151.84 1278.36,-158.66"/>
</a>
</g>
</g>
<!-- Node13 -->
<g id="Node000013" class="node">
<title>Node13</title>
<g id="a_Node000013"><a xlink:href="cprover__parse__options_8cpp.html" target="_top" xlink:title="cprover Command Line Options Processing">
<polygon fill="white" stroke="#666666" points="1272.5,-118 1129.5,-118 1129.5,-77 1272.5,-77 1272.5,-118"/>
<text text-anchor="start" x="1137.5" y="-106" font-family="Helvetica,sans-Serif" font-size="10.00">/home/runner/work/cbmc</text>
<text text-anchor="start" x="1137.5" y="-95" font-family="Helvetica,sans-Serif" font-size="10.00">/cbmc/src/cprover/cprover</text>
<text text-anchor="middle" x="1201" y="-84" font-family="Helvetica,sans-Serif" font-size="10.00">_parse_options.cpp</text>
</a>
</g>
</g>
<!-- Node1&#45;&gt;Node13 -->
<g id="edge15_Node000001_Node000013" class="edge">
<title>Node1&#45;&gt;Node13</title>
<g id="a_edge15_Node000001_Node000013"><a xlink:title=" ">
<path fill="none" stroke="#63b8ff" d="M1307.94,-149.59C1286.63,-139.41 1262.1,-127.69 1241.91,-118.04"/>
<polygon fill="#63b8ff" stroke="#63b8ff" points="1306.63,-152.84 1317.16,-153.99 1309.65,-146.52 1306.63,-152.84"/>
</a>
</g>
</g>
<!-- Node14 -->
<g id="Node000014" class="node">
<title>Node14</title>
<g id="a_Node000014"><a xlink:href="goto__analyzer__parse__options_8cpp.html" target="_top" xlink:title="Goto&#45;Analyser Command Line Option Processing.">
<polygon fill="white" stroke="#666666" points="1306,-41 1124,-41 1124,0 1306,0 1306,-41"/>
<text text-anchor="start" x="1132" y="-29" font-family="Helvetica,sans-Serif" font-size="10.00">/home/runner/work/cbmc</text>
<text text-anchor="start" x="1132" y="-18" font-family="Helvetica,sans-Serif" font-size="10.00">/cbmc/src/goto&#45;analyzer</text>
<text text-anchor="middle" x="1215" y="-7" font-family="Helvetica,sans-Serif" font-size="10.00">/goto_analyzer_parse_options.cpp</text>
</a>
</g>
</g>
<!-- Node1&#45;&gt;Node14 -->
<g id="edge16_Node000001_Node000014" class="edge">
<title>Node1&#45;&gt;Node14</title>
<g id="a_edge16_Node000001_Node000014"><a xlink:title=" ">
<path fill="none" stroke="#63b8ff" d="M1338.08,-145.62C1323.27,-125.67 1302.07,-98.62 1281,-77 1268.57,-64.24 1253.43,-51.35 1240.79,-41.21"/>
<polygon fill="#63b8ff" stroke="#63b8ff" points="1335.27,-147.72 1344.01,-153.71 1340.91,-143.57 1335.27,-147.72"/>
</a>
</g>
</g>
<!-- Node15 -->
<g id="Node000015" class="node">
<title>Node15</title>
<g id="a_Node000015"><a xlink:href="goto__analyzer__parse__options_8h.html" target="_top" xlink:title="Goto&#45;Analyser Command Line Option Processing.">
<polygon fill="white" stroke="#666666" points="1500.5,-118 1329.5,-118 1329.5,-77 1500.5,-77 1500.5,-118"/>
<text text-anchor="start" x="1337.5" y="-106" font-family="Helvetica,sans-Serif" font-size="10.00">/home/runner/work/cbmc</text>
<text text-anchor="start" x="1337.5" y="-95" font-family="Helvetica,sans-Serif" font-size="10.00">/cbmc/src/goto&#45;analyzer</text>
<text text-anchor="middle" x="1415" y="-84" font-family="Helvetica,sans-Serif" font-size="10.00">/goto_analyzer_parse_options.h</text>
</a>
</g>
</g>
<!-- Node1&#45;&gt;Node15 -->
<g id="edge17_Node000001_Node000015" class="edge">
<title>Node1&#45;&gt;Node15</title>
<g id="a_edge17_Node000001_Node000015"><a xlink:title=" ">
<path fill="none" stroke="#63b8ff" d="M1379.15,-145.67C1386.12,-136.5 1393.72,-126.5 1400.12,-118.07"/>
<polygon fill="#63b8ff" stroke="#63b8ff" points="1376.24,-143.72 1372.98,-153.79 1381.81,-147.95 1376.24,-143.72"/>
</a>
</g>
</g>
<!-- Node18 -->
<g id="Node000018" class="node">
<title>Node18</title>
<g id="a_Node000018"><a xlink:href="goto__diff__base_8cpp.html" target="_top" xlink:title="GOTO&#45;DIFF Base Class.">
<polygon fill="white" stroke="#666666" points="1657,-118 1519,-118 1519,-77 1657,-77 1657,-118"/>
<text text-anchor="start" x="1527" y="-106" font-family="Helvetica,sans-Serif" font-size="10.00">/home/runner/work/cbmc</text>
<text text-anchor="start" x="1527" y="-95" font-family="Helvetica,sans-Serif" font-size="10.00">/cbmc/src/goto&#45;diff/goto</text>
<text text-anchor="middle" x="1588" y="-84" font-family="Helvetica,sans-Serif" font-size="10.00">_diff_base.cpp</text>
</a>
</g>
</g>
<!-- Node1&#45;&gt;Node18 -->
<g id="edge21_Node000001_Node000018" class="edge">
<title>Node1&#45;&gt;Node18</title>
<g id="a_edge21_Node000001_Node000018"><a xlink:title=" ">
<path fill="none" stroke="#63b8ff" d="M1427.58,-150.81C1459.64,-140.36 1497.3,-128.08 1528.07,-118.04"/>
<polygon fill="#63b8ff" stroke="#63b8ff" points="1426.25,-147.56 1417.83,-153.99 1428.42,-154.22 1426.25,-147.56"/>
</a>
</g>
</g>
<!-- Node19 -->
<g id="Node000019" class="node">
<title>Node19</title>
<g id="a_Node000019"><a xlink:href="goto__diff__parse__options_8cpp.html" target="_top" xlink:title="GOTO&#45;DIFF Command Line Option Processing.">
<polygon fill="white" stroke="#666666" points="1802,-41 1664,-41 1664,0 1802,0 1802,-41"/>
<text text-anchor="start" x="1672" y="-29" font-family="Helvetica,sans-Serif" font-size="10.00">/home/runner/work/cbmc</text>
<text text-anchor="start" x="1672" y="-18" font-family="Helvetica,sans-Serif" font-size="10.00">/cbmc/src/goto&#45;diff/goto</text>
<text text-anchor="middle" x="1733" y="-7" font-family="Helvetica,sans-Serif" font-size="10.00">_diff_parse_options.cpp</text>
</a>
</g>
</g>
<!-- Node1&#45;&gt;Node19 -->
<g id="edge22_Node000001_Node000019" class="edge">
<title>Node1&#45;&gt;Node19</title>
<g id="a_edge22_Node000001_Node000019"><a xlink:title=" ">
<path fill="none" stroke="#63b8ff" d="M1437.49,-166.13C1515.84,-157.64 1629.03,-141.75 1666,-118 1681.1,-108.3 1707.11,-66.32 1721.88,-41.04"/>
<polygon fill="#63b8ff" stroke="#63b8ff" points="1436.73,-162.69 1427.16,-167.23 1437.47,-169.65 1436.73,-162.69"/>
</a>
</g>
</g>
<!-- Node20 -->
<g id="Node000020" class="node">
<title>Node20</title>
<g id="a_Node000020"><a xlink:href="goto__diff__parse__options_8h.html" target="_top" xlink:title="GOTO&#45;DIFF Command Line Option Processing.">
<polygon fill="white" stroke="#666666" points="1851,-118 1713,-118 1713,-77 1851,-77 1851,-118"/>
<text text-anchor="start" x="1721" y="-106" font-family="Helvetica,sans-Serif" font-size="10.00">/home/runner/work/cbmc</text>
<text text-anchor="start" x="1721" y="-95" font-family="Helvetica,sans-Serif" font-size="10.00">/cbmc/src/goto&#45;diff/goto</text>
<text text-anchor="middle" x="1782" y="-84" font-family="Helvetica,sans-Serif" font-size="10.00">_diff_parse_options.h</text>
</a>
</g>
</g>
<!-- Node1&#45;&gt;Node20 -->
<g id="edge23_Node000001_Node000020" class="edge">
<title>Node1&#45;&gt;Node20</title>
<g id="a_edge23_Node000001_Node000020"><a xlink:title=" ">
<path fill="none" stroke="#63b8ff" d="M1437.13,-162.21C1506.42,-151.95 1609.7,-135.73 1699,-118 1703.5,-117.11 1708.13,-116.14 1712.79,-115.14"/>
<polygon fill="#63b8ff" stroke="#63b8ff" points="1436.54,-158.76 1427.16,-163.68 1437.56,-165.69 1436.54,-158.76"/>
</a>
</g>
</g>
<!-- Node23 -->
<g id="Node000023" class="node">
<title>Node23</title>
<g id="a_Node000023"><a xlink:href="aggressive__slicer_8cpp.html" target="_top" xlink:title="Aggressive program slicer.">
<polygon fill="white" stroke="#666666" points="2014.5,-118 1869.5,-118 1869.5,-77 2014.5,-77 2014.5,-118"/>
<text text-anchor="start" x="1877.5" y="-106" font-family="Helvetica,sans-Serif" font-size="10.00">/home/runner/work/cbmc</text>
<text text-anchor="start" x="1877.5" y="-95" font-family="Helvetica,sans-Serif" font-size="10.00">/cbmc/src/goto&#45;instrument</text>
<text text-anchor="middle" x="1942" y="-84" font-family="Helvetica,sans-Serif" font-size="10.00">/aggressive_slicer.cpp</text>
</a>
</g>
</g>
<!-- Node1&#45;&gt;Node23 -->
<g id="edge27_Node000001_Node000023" class="edge">
<title>Node1&#45;&gt;Node23</title>
<g id="a_edge27_Node000001_Node000023"><a xlink:title=" ">
<path fill="none" stroke="#63b8ff" d="M1437.66,-167.74C1537.03,-159.87 1711.89,-143.7 1860,-118 1863.03,-117.47 1866.11,-116.9 1869.22,-116.3"/>
<polygon fill="#63b8ff" stroke="#63b8ff" points="1437.1,-164.28 1427.4,-168.55 1437.64,-171.26 1437.1,-164.28"/>
</a>
</g>
</g>
<!-- Node24 -->
<g id="Node000024" class="node">
<title>Node24</title>
<g id="a_Node000024"><a xlink:href="goto__instrument__parse__options_8cpp.html" target="_top" xlink:title="Main Module.">
<polygon fill="white" stroke="#666666" points="2326,-41 2132,-41 2132,0 2326,0 2326,-41"/>
<text text-anchor="start" x="2140" y="-29" font-family="Helvetica,sans-Serif" font-size="10.00">/home/runner/work/cbmc</text>
<text text-anchor="start" x="2140" y="-18" font-family="Helvetica,sans-Serif" font-size="10.00">/cbmc/src/goto&#45;instrument</text>
<text text-anchor="middle" x="2229" y="-7" font-family="Helvetica,sans-Serif" font-size="10.00">/goto_instrument_parse_options.cpp</text>
</a>
</g>
</g>
<!-- Node1&#45;&gt;Node24 -->
<g id="edge28_Node000001_Node000024" class="edge">
<title>Node1&#45;&gt;Node24</title>
<g id="a_edge28_Node000001_Node000024"><a xlink:title=" ">
<path fill="none" stroke="#63b8ff" d="M1437.21,-170.4C1588.78,-163.89 1914.46,-146.95 2023,-118 2040.08,-113.44 2133.99,-68.08 2188.94,-41.2"/>
<polygon fill="#63b8ff" stroke="#63b8ff" points="1436.88,-166.91 1427.04,-170.83 1437.18,-173.9 1436.88,-166.91"/>
</a>
</g>
</g>
<!-- Node25 -->
<g id="Node000025" class="node">
<title>Node25</title>
<g id="a_Node000025"><a xlink:href="goto__instrument__parse__options_8h.html" target="_top" xlink:title="Command Line Parsing.">
<polygon fill="white" stroke="#666666" points="2310,-118 2128,-118 2128,-77 2310,-77 2310,-118"/>
<text text-anchor="start" x="2136" y="-106" font-family="Helvetica,sans-Serif" font-size="10.00">/home/runner/work/cbmc</text>
<text text-anchor="start" x="2136" y="-95" font-family="Helvetica,sans-Serif" font-size="10.00">/cbmc/src/goto&#45;instrument</text>
<text text-anchor="middle" x="2219" y="-84" font-family="Helvetica,sans-Serif" font-size="10.00">/goto_instrument_parse_options.h</text>
</a>
</g>
</g>
<!-- Node1&#45;&gt;Node25 -->
<g id="edge29_Node000001_Node000025" class="edge">
<title>Node1&#45;&gt;Node25</title>
<g id="a_edge29_Node000001_Node000025"><a xlink:title=" ">
<path fill="none" stroke="#63b8ff" d="M1437.28,-169.64C1572.52,-162.57 1856.34,-145.71 2095,-118 2105.61,-116.77 2116.7,-115.29 2127.69,-113.71"/>
<polygon fill="#63b8ff" stroke="#63b8ff" points="1436.82,-166.15 1427.02,-170.17 1437.18,-173.15 1436.82,-166.15"/>
</a>
</g>
</g>
<!-- Node28 -->
<g id="Node000028" class="node">
<title>Node28</title>
<g id="a_Node000028"><a xlink:href="show__properties_8cpp.html" target="_top" xlink:title="Show Claims.">
<polygon fill="white" stroke="#666666" points="2466,-118 2328,-118 2328,-77 2466,-77 2466,-118"/>
<text text-anchor="start" x="2336" y="-106" font-family="Helvetica,sans-Serif" font-size="10.00">/home/runner/work/cbmc</text>
<text text-anchor="start" x="2336" y="-95" font-family="Helvetica,sans-Serif" font-size="10.00">/cbmc/src/goto&#45;programs</text>
<text text-anchor="middle" x="2397" y="-84" font-family="Helvetica,sans-Serif" font-size="10.00">/show_properties.cpp</text>
</a>
</g>
</g>
<!-- Node1&#45;&gt;Node28 -->
<g id="edge33_Node000001_Node000028" class="edge">
<title>Node1&#45;&gt;Node28</title>
<g id="a_edge33_Node000001_Node000028"><a xlink:title=" ">
<path fill="none" stroke="#63b8ff" d="M1437.28,-173.92C1602.34,-173.71 1994.55,-167.48 2319,-118 2321.9,-117.56 2324.84,-117.06 2327.81,-116.51"/>
<polygon fill="#63b8ff" stroke="#63b8ff" points="1437.21,-170.42 1427.21,-173.93 1437.22,-177.42 1437.21,-170.42"/>
</a>
</g>
</g>
<!-- Node29 -->
<g id="Node000029" class="node">
<title>Node29</title>
<g id="a_Node000029"><a xlink:href="goto__synthesizer__parse__options_8cpp.html" target="_top" xlink:title="Main Module.">
<polygon fill="white" stroke="#666666" points="2681.5,-118 2484.5,-118 2484.5,-77 2681.5,-77 2681.5,-118"/>
<text text-anchor="start" x="2492.5" y="-106" font-family="Helvetica,sans-Serif" font-size="10.00">/home/runner/work/cbmc</text>
<text text-anchor="start" x="2492.5" y="-95" font-family="Helvetica,sans-Serif" font-size="10.00">/cbmc/src/goto&#45;synthesizer</text>
<text text-anchor="middle" x="2583" y="-84" font-family="Helvetica,sans-Serif" font-size="10.00">/goto_synthesizer_parse_options.cpp</text>
</a>
</g>
</g>
<!-- Node1&#45;&gt;Node29 -->
<g id="edge34_Node000001_Node000029" class="edge">
<title>Node1&#45;&gt;Node29</title>
<g id="a_edge34_Node000001_Node000029"><a xlink:title=" ">
<path fill="none" stroke="#63b8ff" d="M1437.3,-173.07C1620.6,-171.3 2087.6,-162.41 2475,-118 2478.12,-117.64 2481.29,-117.25 2484.49,-116.83"/>
<polygon fill="#63b8ff" stroke="#63b8ff" points="1437.18,-169.57 1427.21,-173.16 1437.24,-176.57 1437.18,-169.57"/>
</a>
</g>
</g>
<!-- Node3&#45;&gt;Node2 -->
<g id="edge4_Node000003_Node000002" class="edge">
<title>Node3&#45;&gt;Node2</title>
<g id="a_edge4_Node000003_Node000002"><a xlink:title=" ">
<path fill="none" stroke="#63b8ff" d="M192.67,-72.86C170.01,-62.62 143.79,-50.77 122.25,-41.04"/>
<polygon fill="#63b8ff" stroke="#63b8ff" points="191.26,-76.06 201.82,-76.99 194.15,-69.68 191.26,-76.06"/>
</a>
</g>
</g>
<!-- Node4 -->
<g id="Node000004" class="node">
<title>Node4</title>
<g id="a_Node000004"><a xlink:href="janalyzer__main_8cpp.html" target="_top" xlink:title="JANALYZER Main Module.">
<polygon fill="white" stroke="#666666" points="314,-41 176,-41 176,0 314,0 314,-41"/>
<text text-anchor="start" x="184" y="-29" font-family="Helvetica,sans-Serif" font-size="10.00">/home/runner/work/cbmc</text>
<text text-anchor="start" x="184" y="-18" font-family="Helvetica,sans-Serif" font-size="10.00">/cbmc/jbmc/src/janalyzer</text>
<text text-anchor="middle" x="245" y="-7" font-family="Helvetica,sans-Serif" font-size="10.00">/janalyzer_main.cpp</text>
</a>
</g>
</g>
<!-- Node3&#45;&gt;Node4 -->
<g id="edge3_Node000003_Node000004" class="edge">
<title>Node3&#45;&gt;Node4</title>
<g id="a_edge3_Node000003_Node000004"><a xlink:title=" ">
<path fill="none" stroke="#63b8ff" d="M245,-66.69C245,-58.08 245,-48.9 245,-41.07"/>
<polygon fill="#63b8ff" stroke="#63b8ff" points="241.5,-66.79 245,-76.79 248.5,-66.79 241.5,-66.79"/>
</a>
</g>
</g>
<!-- Node6&#45;&gt;Node5 -->
<g id="edge8_Node000006_Node000005" class="edge">
<title>Node6&#45;&gt;Node5</title>
<g id="a_edge8_Node000006_Node000005"><a xlink:title=" ">
<path fill="none" stroke="#63b8ff" d="M514.64,-72.72C492.59,-62.51 467.14,-50.73 446.21,-41.04"/>
<polygon fill="#63b8ff" stroke="#63b8ff" points="513.31,-75.97 523.86,-76.99 516.26,-69.61 513.31,-75.97"/>
</a>
</g>
</g>
<!-- Node7 -->
<g id="Node000007" class="node">
<title>Node7</title>
<g id="a_Node000007"><a xlink:href="jbmc__main_8cpp.html" target="_top" xlink:title="CBMC Main Module.">
<polygon fill="white" stroke="#666666" points="638,-41 494,-41 494,0 638,0 638,-41"/>
<text text-anchor="start" x="502" y="-29" font-family="Helvetica,sans-Serif" font-size="10.00">/home/runner/work/cbmc</text>
<text text-anchor="start" x="502" y="-18" font-family="Helvetica,sans-Serif" font-size="10.00">/cbmc/jbmc/src/jbmc/jbmc</text>
<text text-anchor="middle" x="566" y="-7" font-family="Helvetica,sans-Serif" font-size="10.00">_main.cpp</text>
</a>
</g>
</g>
<!-- Node6&#45;&gt;Node7 -->
<g id="edge7_Node000006_Node000007" class="edge">
<title>Node6&#45;&gt;Node7</title>
<g id="a_edge7_Node000006_Node000007"><a xlink:title=" ">
<path fill="none" stroke="#63b8ff" d="M566,-66.69C566,-58.08 566,-48.9 566,-41.07"/>
<polygon fill="#63b8ff" stroke="#63b8ff" points="562.5,-66.79 566,-76.79 569.5,-66.79 562.5,-66.79"/>
</a>
</g>
</g>
<!-- Node9&#45;&gt;Node8 -->
<g id="edge13_Node000009_Node000008" class="edge">
<title>Node9&#45;&gt;Node8</title>
<g id="a_edge13_Node000009_Node000008"><a xlink:title=" ">
<path fill="none" stroke="#63b8ff" d="M823.24,-72.31C803.68,-62.2 781.26,-50.6 762.78,-41.04"/>
<polygon fill="#63b8ff" stroke="#63b8ff" points="821.79,-75.5 832.28,-76.99 825.01,-69.29 821.79,-75.5"/>
</a>
</g>
</g>
<!-- Node10 -->
<g id="Node000010" class="node">
<title>Node10</title>
<g id="a_Node000010"><a xlink:href="jdiff__languages_8cpp.html" target="_top" xlink:title="Language Registration.">
<polygon fill="white" stroke="#666666" points="950,-41 812,-41 812,0 950,0 950,-41"/>
<text text-anchor="start" x="820" y="-29" font-family="Helvetica,sans-Serif" font-size="10.00">/home/runner/work/cbmc</text>
<text text-anchor="start" x="820" y="-18" font-family="Helvetica,sans-Serif" font-size="10.00">/cbmc/jbmc/src/jdiff/jdiff</text>
<text text-anchor="middle" x="881" y="-7" font-family="Helvetica,sans-Serif" font-size="10.00">_languages.cpp</text>
</a>
</g>
</g>
<!-- Node9&#45;&gt;Node10 -->
<g id="edge11_Node000009_Node000010" class="edge">
<title>Node9&#45;&gt;Node10</title>
<g id="a_edge11_Node000009_Node000010"><a xlink:title=" ">
<path fill="none" stroke="#63b8ff" d="M874.37,-66.69C875.64,-58.08 876.98,-48.9 878.13,-41.07"/>
<polygon fill="#63b8ff" stroke="#63b8ff" points="870.88,-66.39 872.89,-76.79 877.8,-67.41 870.88,-66.39"/>
</a>
</g>
</g>
<!-- Node11 -->
<g id="Node000011" class="node">
<title>Node11</title>
<g id="a_Node000011"><a xlink:href="jdiff__main_8cpp.html" target="_top" xlink:title="JDIFF Main Module.">
<polygon fill="white" stroke="#666666" points="1106,-41 968,-41 968,0 1106,0 1106,-41"/>
<text text-anchor="start" x="976" y="-29" font-family="Helvetica,sans-Serif" font-size="10.00">/home/runner/work/cbmc</text>
<text text-anchor="start" x="976" y="-18" font-family="Helvetica,sans-Serif" font-size="10.00">/cbmc/jbmc/src/jdiff/jdiff</text>
<text text-anchor="middle" x="1037" y="-7" font-family="Helvetica,sans-Serif" font-size="10.00">_main.cpp</text>
</a>
</g>
</g>
<!-- Node9&#45;&gt;Node11 -->
<g id="edge12_Node000009_Node000011" class="edge">
<title>Node9&#45;&gt;Node11</title>
<g id="a_edge12_Node000009_Node000011"><a xlink:title=" ">
<path fill="none" stroke="#63b8ff" d="M922.64,-72.86C945.44,-62.62 971.82,-50.77 993.49,-41.04"/>
<polygon fill="#63b8ff" stroke="#63b8ff" points="921.13,-69.7 913.44,-76.99 924,-76.09 921.13,-69.7"/>
</a>
</g>
</g>
<!-- Node15&#45;&gt;Node14 -->
<g id="edge20_Node000015_Node000014" class="edge">
<title>Node15&#45;&gt;Node14</title>
<g id="a_edge20_Node000015_Node000014"><a xlink:title=" ">
<path fill="none" stroke="#63b8ff" d="M1353.41,-73.4C1325.77,-63.04 1293.53,-50.95 1267.11,-41.04"/>
<polygon fill="#63b8ff" stroke="#63b8ff" points="1352.38,-76.76 1362.97,-76.99 1354.84,-70.2 1352.38,-76.76"/>
</a>
</g>
</g>
<!-- Node16 -->
<g id="Node000016" class="node">
<title>Node16</title>
<g id="a_Node000016"><a xlink:href="goto__analyzer__languages_8cpp.html" target="_top" xlink:title="Language Registration.">
<polygon fill="white" stroke="#666666" points="1488,-41 1324,-41 1324,0 1488,0 1488,-41"/>
<text text-anchor="start" x="1332" y="-29" font-family="Helvetica,sans-Serif" font-size="10.00">/home/runner/work/cbmc</text>
<text text-anchor="start" x="1332" y="-18" font-family="Helvetica,sans-Serif" font-size="10.00">/cbmc/src/goto&#45;analyzer</text>
<text text-anchor="middle" x="1406" y="-7" font-family="Helvetica,sans-Serif" font-size="10.00">/goto_analyzer_languages.cpp</text>
</a>
</g>
</g>
<!-- Node15&#45;&gt;Node16 -->
<g id="edge18_Node000015_Node000016" class="edge">
<title>Node15&#45;&gt;Node16</title>
<g id="a_edge18_Node000015_Node000016"><a xlink:title=" ">
<path fill="none" stroke="#63b8ff" d="M1411.42,-66.69C1410.39,-58.08 1409.29,-48.9 1408.35,-41.07"/>
<polygon fill="#63b8ff" stroke="#63b8ff" points="1407.97,-67.28 1412.64,-76.79 1414.92,-66.45 1407.97,-67.28"/>
</a>
</g>
</g>
<!-- Node17 -->
<g id="Node000017" class="node">
<title>Node17</title>
<g id="a_Node000017"><a xlink:href="goto__analyzer__main_8cpp.html" target="_top" xlink:title="Goto&#45;Analyser Main Module.">
<polygon fill="white" stroke="#666666" points="1645.5,-41 1506.5,-41 1506.5,0 1645.5,0 1645.5,-41"/>
<text text-anchor="start" x="1514.5" y="-29" font-family="Helvetica,sans-Serif" font-size="10.00">/home/runner/work/cbmc</text>
<text text-anchor="start" x="1514.5" y="-18" font-family="Helvetica,sans-Serif" font-size="10.00">/cbmc/src/goto&#45;analyzer</text>
<text text-anchor="middle" x="1576" y="-7" font-family="Helvetica,sans-Serif" font-size="10.00">/goto_analyzer_main.cpp</text>
</a>
</g>
</g>
<!-- Node15&#45;&gt;Node17 -->
<g id="edge19_Node000015_Node000017" class="edge">
<title>Node15&#45;&gt;Node17</title>
<g id="a_edge19_Node000015_Node000017"><a xlink:title=" ">
<path fill="none" stroke="#63b8ff" d="M1466.04,-72.72C1487.96,-62.51 1513.25,-50.73 1534.05,-41.04"/>
<polygon fill="#63b8ff" stroke="#63b8ff" points="1464.47,-69.6 1456.88,-76.99 1467.42,-75.94 1464.47,-69.6"/>
</a>
</g>
</g>
<!-- Node20&#45;&gt;Node19 -->
<g id="edge26_Node000020_Node000019" class="edge">
<title>Node20&#45;&gt;Node19</title>
<g id="a_edge26_Node000020_Node000019"><a xlink:title=" ">
<path fill="none" stroke="#63b8ff" d="M1763.64,-68.39C1757.69,-59.3 1751.24,-49.41 1745.79,-41.07"/>
<polygon fill="#63b8ff" stroke="#63b8ff" points="1760.73,-70.34 1769.13,-76.79 1766.59,-66.51 1760.73,-70.34"/>
</a>
</g>
</g>
<!-- Node21 -->
<g id="Node000021" class="node">
<title>Node21</title>
<g id="a_Node000021"><a xlink:href="goto__diff__languages_8cpp.html" target="_top" xlink:title="Language Registration.">
<polygon fill="white" stroke="#666666" points="1958,-41 1820,-41 1820,0 1958,0 1958,-41"/>
<text text-anchor="start" x="1828" y="-29" font-family="Helvetica,sans-Serif" font-size="10.00">/home/runner/work/cbmc</text>
<text text-anchor="start" x="1828" y="-18" font-family="Helvetica,sans-Serif" font-size="10.00">/cbmc/src/goto&#45;diff/goto</text>
<text text-anchor="middle" x="1889" y="-7" font-family="Helvetica,sans-Serif" font-size="10.00">_diff_languages.cpp</text>
</a>
</g>
</g>
<!-- Node20&#45;&gt;Node21 -->
<g id="edge24_Node000020_Node000021" class="edge">
<title>Node20&#45;&gt;Node21</title>
<g id="a_edge24_Node000020_Node000021"><a xlink:title=" ">
<path fill="none" stroke="#63b8ff" d="M1818.25,-71.09C1832.19,-61.32 1847.88,-50.32 1860.93,-41.17"/>
<polygon fill="#63b8ff" stroke="#63b8ff" points="1816.01,-68.38 1809.83,-76.99 1820.03,-74.12 1816.01,-68.38"/>
</a>
</g>
</g>
<!-- Node22 -->
<g id="Node000022" class="node">
<title>Node22</title>
<g id="a_Node000022"><a xlink:href="goto__diff__main_8cpp.html" target="_top" xlink:title="GOTO&#45;DIFF Main Module.">
<polygon fill="white" stroke="#666666" points="2114,-41 1976,-41 1976,0 2114,0 2114,-41"/>
<text text-anchor="start" x="1984" y="-29" font-family="Helvetica,sans-Serif" font-size="10.00">/home/runner/work/cbmc</text>
<text text-anchor="start" x="1984" y="-18" font-family="Helvetica,sans-Serif" font-size="10.00">/cbmc/src/goto&#45;diff/goto</text>
<text text-anchor="middle" x="2045" y="-7" font-family="Helvetica,sans-Serif" font-size="10.00">_diff_main.cpp</text>
</a>
</g>
</g>
<!-- Node20&#45;&gt;Node22 -->
<g id="edge25_Node000020_Node000022" class="edge">
<title>Node20&#45;&gt;Node22</title>
<g id="a_edge25_Node000020_Node000022"><a xlink:title=" ">
<path fill="none" stroke="#63b8ff" d="M1860.15,-74.21C1897.1,-63.68 1940.83,-51.21 1976.47,-41.04"/>
<polygon fill="#63b8ff" stroke="#63b8ff" points="1859.07,-70.88 1850.41,-76.99 1860.99,-77.61 1859.07,-70.88"/>
</a>
</g>
</g>
<!-- Node25&#45;&gt;Node24 -->
<g id="edge32_Node000025_Node000024" class="edge">
<title>Node25&#45;&gt;Node24</title>
<g id="a_edge32_Node000025_Node000024"><a xlink:title=" ">
<path fill="none" stroke="#63b8ff" d="M2222.97,-66.69C2224.12,-58.08 2225.35,-48.9 2226.39,-41.07"/>
<polygon fill="#63b8ff" stroke="#63b8ff" points="2219.48,-66.42 2221.63,-76.79 2226.42,-67.34 2219.48,-66.42"/>
</a>
</g>
</g>
<!-- Node26 -->
<g id="Node000026" class="node">
<title>Node26</title>
<g id="a_Node000026"><a xlink:href="goto__instrument__languages_8cpp.html" target="_top" xlink:title="Language Registration.">
<polygon fill="white" stroke="#666666" points="2520,-41 2344,-41 2344,0 2520,0 2520,-41"/>
<text text-anchor="start" x="2352" y="-29" font-family="Helvetica,sans-Serif" font-size="10.00">/home/runner/work/cbmc</text>
<text text-anchor="start" x="2352" y="-18" font-family="Helvetica,sans-Serif" font-size="10.00">/cbmc/src/goto&#45;instrument</text>
<text text-anchor="middle" x="2432" y="-7" font-family="Helvetica,sans-Serif" font-size="10.00">/goto_instrument_languages.cpp</text>
</a>
</g>
</g>
<!-- Node25&#45;&gt;Node26 -->
<g id="edge30_Node000025_Node000026" class="edge">
<title>Node25&#45;&gt;Node26</title>
<g id="a_edge30_Node000025_Node000026"><a xlink:title=" ">
<path fill="none" stroke="#63b8ff" d="M2284.21,-73.54C2313.72,-63.15 2348.25,-50.99 2376.5,-41.04"/>
<polygon fill="#63b8ff" stroke="#63b8ff" points="2282.68,-70.37 2274.41,-76.99 2285,-76.97 2282.68,-70.37"/>
</a>
</g>
</g>
<!-- Node27 -->
<g id="Node000027" class="node">
<title>Node27</title>
<g id="a_Node000027"><a xlink:href="goto__instrument__main_8cpp.html" target="_top" xlink:title="Main Module.">
<polygon fill="white" stroke="#666666" points="2688,-41 2538,-41 2538,0 2688,0 2688,-41"/>
<text text-anchor="start" x="2546" y="-29" font-family="Helvetica,sans-Serif" font-size="10.00">/home/runner/work/cbmc</text>
<text text-anchor="start" x="2546" y="-18" font-family="Helvetica,sans-Serif" font-size="10.00">/cbmc/src/goto&#45;instrument</text>
<text text-anchor="middle" x="2613" y="-7" font-family="Helvetica,sans-Serif" font-size="10.00">/goto_instrument_main.cpp</text>
</a>
</g>
</g>
<!-- Node25&#45;&gt;Node27 -->
<g id="edge31_Node000025_Node000027" class="edge">
<title>Node25&#45;&gt;Node27</title>
<g id="a_edge31_Node000025_Node000027"><a xlink:title=" ">
<path fill="none" stroke="#63b8ff" d="M2319.92,-76.86C2413.82,-59.9 2439.26,-59.09 2529,-41 2531.94,-40.41 2534.92,-39.79 2537.94,-39.15"/>
<polygon fill="#63b8ff" stroke="#63b8ff" points="2319.21,-73.43 2310,-78.66 2320.47,-80.32 2319.21,-73.43"/>
</a>
</g>
</g>
</g>
</svg>
