<?xml version="1.0" encoding="UTF-8" standalone="no"?>
<!DOCTYPE svg PUBLIC "-//W3C//DTD SVG 1.1//EN"
 "http://www.w3.org/Graphics/SVG/1.1/DTD/svg11.dtd">
<!-- Generated by graphviz version 2.43.0 (0)
 -->
<!-- Title: /home/runner/work/cbmc/cbmc/src/goto&#45;programs/show_goto_functions.h Pages: 1 -->
<svg width="2372pt" height="203pt"
 viewBox="0.00 0.00 2372.00 203.00" xmlns="http://www.w3.org/2000/svg" xmlns:xlink="http://www.w3.org/1999/xlink">
<g id="graph0" class="graph" transform="scale(1 1) rotate(0) translate(4 199)">
<title>/home/runner/work/cbmc/cbmc/src/goto&#45;programs/show_goto_functions.h</title>
<!-- Node1 -->
<g id="Node000001" class="node">
<title>Node1</title>
<g id="a_Node000001"><a xlink:title="Show the goto functions.">
<polygon fill="#999999" stroke="#666666" points="1389,-195 1251,-195 1251,-154 1389,-154 1389,-195"/>
<text text-anchor="start" x="1259" y="-183" font-family="Helvetica,sans-Serif" font-size="10.00">/home/runner/work/cbmc</text>
<text text-anchor="start" x="1259" y="-172" font-family="Helvetica,sans-Serif" font-size="10.00">/cbmc/src/goto&#45;programs</text>
<text text-anchor="middle" x="1320" y="-161" font-family="Helvetica,sans-Serif" font-size="10.00">/show_goto_functions.h</text>
</a>
</g>
</g>
<!-- Node2 -->
<g id="Node000002" class="node">
<title>Node2</title>
<g id="a_Node000002"><a xlink:href="janalyzer__parse__options_8h.html" target="_top" xlink:title="JANALYZER Command Line Option Processing.">
<polygon fill="white" stroke="#666666" points="308.5,-118 161.5,-118 161.5,-77 308.5,-77 308.5,-118"/>
<text text-anchor="start" x="169.5" y="-106" font-family="Helvetica,sans-Serif" font-size="10.00">/home/runner/work/cbmc</text>
<text text-anchor="start" x="169.5" y="-95" font-family="Helvetica,sans-Serif" font-size="10.00">/cbmc/jbmc/src/janalyzer</text>
<text text-anchor="middle" x="235" y="-84" font-family="Helvetica,sans-Serif" font-size="10.00">/janalyzer_parse_options.h</text>
</a>
</g>
</g>
<!-- Node1&#45;&gt;Node2 -->
<g id="edge1_Node000001_Node000002" class="edge">
<title>Node1&#45;&gt;Node2</title>
<g id="a_edge1_Node000001_Node000002"><a xlink:title=" ">
<path fill="none" stroke="#63b8ff" d="M1240.77,-168.74C1090.83,-159.64 755.3,-138.81 473,-118 417.91,-113.94 355.69,-108.82 308.68,-104.85"/>
<polygon fill="#63b8ff" stroke="#63b8ff" points="1240.61,-172.24 1250.8,-169.35 1241.04,-165.25 1240.61,-172.24"/>
</a>
</g>
</g>
<!-- Node5 -->
<g id="Node000005" class="node">
<title>Node5</title>
<g id="a_Node000005"><a xlink:href="jbmc__parse__options_8cpp.html" target="_top" xlink:title="JBMC Command Line Option Processing.">
<polygon fill="white" stroke="#666666" points="626,-118 482,-118 482,-77 626,-77 626,-118"/>
<text text-anchor="start" x="490" y="-106" font-family="Helvetica,sans-Serif" font-size="10.00">/home/runner/work/cbmc</text>
<text text-anchor="start" x="490" y="-95" font-family="Helvetica,sans-Serif" font-size="10.00">/cbmc/jbmc/src/jbmc/jbmc</text>
<text text-anchor="middle" x="554" y="-84" font-family="Helvetica,sans-Serif" font-size="10.00">_parse_options.cpp</text>
</a>
</g>
</g>
<!-- Node1&#45;&gt;Node5 -->
<g id="edge4_Node000001_Node000005" class="edge">
<title>Node1&#45;&gt;Node5</title>
<g id="a_edge4_Node000001_Node000005"><a xlink:title=" ">
<path fill="none" stroke="#63b8ff" d="M1240.42,-171.06C1112.23,-166.24 852.38,-152.76 635,-118 632.14,-117.54 629.24,-117.04 626.31,-116.5"/>
<polygon fill="#63b8ff" stroke="#63b8ff" points="1240.42,-174.57 1250.54,-171.44 1240.68,-167.57 1240.42,-174.57"/>
</a>
</g>
</g>
<!-- Node6 -->
<g id="Node000006" class="node">
<title>Node6</title>
<g id="a_Node000006"><a xlink:href="jdiff__parse__options_8h.html" target="_top" xlink:title="JDIFF Command Line Option Processing.">
<polygon fill="white" stroke="#666666" points="782,-118 644,-118 644,-77 782,-77 782,-118"/>
<text text-anchor="start" x="652" y="-106" font-family="Helvetica,sans-Serif" font-size="10.00">/home/runner/work/cbmc</text>
<text text-anchor="start" x="652" y="-95" font-family="Helvetica,sans-Serif" font-size="10.00">/cbmc/jbmc/src/jdiff/jdiff</text>
<text text-anchor="middle" x="713" y="-84" font-family="Helvetica,sans-Serif" font-size="10.00">_parse_options.h</text>
</a>
</g>
</g>
<!-- Node1&#45;&gt;Node6 -->
<g id="edge5_Node000001_Node000006" class="edge">
<title>Node1&#45;&gt;Node6</title>
<g id="a_edge5_Node000001_Node000006"><a xlink:title=" ">
<path fill="none" stroke="#63b8ff" d="M1240.77,-163.71C1121.07,-148.92 896.08,-121.12 782.44,-107.08"/>
<polygon fill="#63b8ff" stroke="#63b8ff" points="1240.61,-167.22 1250.96,-164.97 1241.47,-160.27 1240.61,-167.22"/>
</a>
</g>
</g>
<!-- Node10 -->
<g id="Node000010" class="node">
<title>Node10</title>
<g id="a_Node000010"><a xlink:href="cbmc__parse__options_8cpp.html" target="_top" xlink:title="CBMC Command Line Option Processing.">
<polygon fill="white" stroke="#666666" points="1127,-118 973,-118 973,-77 1127,-77 1127,-118"/>
<text text-anchor="start" x="981" y="-106" font-family="Helvetica,sans-Serif" font-size="10.00">/home/runner/work/cbmc</text>
<text text-anchor="start" x="981" y="-95" font-family="Helvetica,sans-Serif" font-size="10.00">/cbmc/src/cbmc/cbmc_parse</text>
<text text-anchor="middle" x="1050" y="-84" font-family="Helvetica,sans-Serif" font-size="10.00">_options.cpp</text>
</a>
</g>
</g>
<!-- Node1&#45;&gt;Node10 -->
<g id="edge9_Node000001_Node000010" class="edge">
<title>Node1&#45;&gt;Node10</title>
<g id="a_edge9_Node000001_Node000010"><a xlink:title=" ">
<path fill="none" stroke="#63b8ff" d="M1240.78,-151.49C1202.65,-140.9 1157.32,-128.31 1120.41,-118.06"/>
<polygon fill="#63b8ff" stroke="#63b8ff" points="1240.25,-154.98 1250.82,-154.28 1242.12,-148.23 1240.25,-154.98"/>
</a>
</g>
</g>
<!-- Node11 -->
<g id="Node000011" class="node">
<title>Node11</title>
<g id="a_Node000011"><a xlink:href="goto__analyzer__parse__options_8h.html" target="_top" xlink:title="Goto&#45;Analyser Command Line Option Processing.">
<polygon fill="white" stroke="#666666" points="1316.5,-118 1145.5,-118 1145.5,-77 1316.5,-77 1316.5,-118"/>
<text text-anchor="start" x="1153.5" y="-106" font-family="Helvetica,sans-Serif" font-size="10.00">/home/runner/work/cbmc</text>
<text text-anchor="start" x="1153.5" y="-95" font-family="Helvetica,sans-Serif" font-size="10.00">/cbmc/src/goto&#45;analyzer</text>
<text text-anchor="middle" x="1231" y="-84" font-family="Helvetica,sans-Serif" font-size="10.00">/goto_analyzer_parse_options.h</text>
</a>
</g>
</g>
<!-- Node1&#45;&gt;Node11 -->
<g id="edge10_Node000001_Node000011" class="edge">
<title>Node1&#45;&gt;Node11</title>
<g id="a_edge10_Node000001_Node000011"><a xlink:title=" ">
<path fill="none" stroke="#63b8ff" d="M1288.97,-147.35C1277.55,-137.73 1264.84,-127.01 1254.23,-118.07"/>
<polygon fill="#63b8ff" stroke="#63b8ff" points="1286.71,-150.03 1296.62,-153.79 1291.22,-144.67 1286.71,-150.03"/>
</a>
</g>
</g>
<!-- Node15 -->
<g id="Node000015" class="node">
<title>Node15</title>
<g id="a_Node000015"><a xlink:href="goto__diff__parse__options_8h.html" target="_top" xlink:title="GOTO&#45;DIFF Command Line Option Processing.">
<polygon fill="white" stroke="#666666" points="1478,-118 1340,-118 1340,-77 1478,-77 1478,-118"/>
<text text-anchor="start" x="1348" y="-106" font-family="Helvetica,sans-Serif" font-size="10.00">/home/runner/work/cbmc</text>
<text text-anchor="start" x="1348" y="-95" font-family="Helvetica,sans-Serif" font-size="10.00">/cbmc/src/goto&#45;diff/goto</text>
<text text-anchor="middle" x="1409" y="-84" font-family="Helvetica,sans-Serif" font-size="10.00">_diff_parse_options.h</text>
</a>
</g>
</g>
<!-- Node1&#45;&gt;Node15 -->
<g id="edge14_Node000001_Node000015" class="edge">
<title>Node1&#45;&gt;Node15</title>
<g id="a_edge14_Node000001_Node000015"><a xlink:title=" ">
<path fill="none" stroke="#63b8ff" d="M1351.03,-147.35C1362.45,-137.73 1375.16,-127.01 1385.77,-118.07"/>
<polygon fill="#63b8ff" stroke="#63b8ff" points="1348.78,-144.67 1343.38,-153.79 1353.29,-150.03 1348.78,-144.67"/>
</a>
</g>
</g>
<!-- Node19 -->
<g id="Node000019" class="node">
<title>Node19</title>
<g id="a_Node000019"><a xlink:href="goto__inspect__parse__options_8cpp.html" target="_top" xlink:title=" ">
<polygon fill="white" stroke="#666666" points="1672,-118 1496,-118 1496,-77 1672,-77 1672,-118"/>
<text text-anchor="start" x="1504" y="-106" font-family="Helvetica,sans-Serif" font-size="10.00">/home/runner/work/cbmc</text>
<text text-anchor="start" x="1504" y="-95" font-family="Helvetica,sans-Serif" font-size="10.00">/cbmc/src/goto&#45;inspect</text>
<text text-anchor="middle" x="1584" y="-84" font-family="Helvetica,sans-Serif" font-size="10.00">/goto_inspect_parse_options.cpp</text>
</a>
</g>
</g>
<!-- Node1&#45;&gt;Node19 -->
<g id="edge18_Node000001_Node000019" class="edge">
<title>Node1&#45;&gt;Node19</title>
<g id="a_edge18_Node000001_Node000019"><a xlink:title=" ">
<path fill="none" stroke="#63b8ff" d="M1398.45,-151.21C1435.54,-140.68 1479.43,-128.21 1515.21,-118.04"/>
<polygon fill="#63b8ff" stroke="#63b8ff" points="1397.34,-147.89 1388.67,-153.99 1399.25,-154.62 1397.34,-147.89"/>
</a>
</g>
</g>
<!-- Node20 -->
<g id="Node000020" class="node">
<title>Node20</title>
<g id="a_Node000020"><a xlink:href="goto__instrument__parse__options_8h.html" target="_top" xlink:title="Command Line Parsing.">
<polygon fill="white" stroke="#666666" points="1929,-118 1747,-118 1747,-77 1929,-77 1929,-118"/>
<text text-anchor="start" x="1755" y="-106" font-family="Helvetica,sans-Serif" font-size="10.00">/home/runner/work/cbmc</text>
<text text-anchor="start" x="1755" y="-95" font-family="Helvetica,sans-Serif" font-size="10.00">/cbmc/src/goto&#45;instrument</text>
<text text-anchor="middle" x="1838" y="-84" font-family="Helvetica,sans-Serif" font-size="10.00">/goto_instrument_parse_options.h</text>
</a>
</g>
</g>
<!-- Node1&#45;&gt;Node20 -->
<g id="edge19_Node000001_Node000020" class="edge">
<title>Node1&#45;&gt;Node20</title>
<g id="a_edge19_Node000001_Node000020"><a xlink:title=" ">
<path fill="none" stroke="#63b8ff" d="M1399.03,-162.06C1492.6,-148.51 1648.15,-125.99 1746.76,-111.71"/>
<polygon fill="#63b8ff" stroke="#63b8ff" points="1398.45,-158.6 1389.05,-163.5 1399.45,-165.53 1398.45,-158.6"/>
</a>
</g>
</g>
<!-- Node24 -->
<g id="Node000024" class="node">
<title>Node24</title>
<g id="a_Node000024"><a xlink:href="show__goto__functions_8cpp.html" target="_top" xlink:title="Show goto functions.">
<polygon fill="white" stroke="#666666" points="2090.5,-118 1947.5,-118 1947.5,-77 2090.5,-77 2090.5,-118"/>
<text text-anchor="start" x="1955.5" y="-106" font-family="Helvetica,sans-Serif" font-size="10.00">/home/runner/work/cbmc</text>
<text text-anchor="start" x="1955.5" y="-95" font-family="Helvetica,sans-Serif" font-size="10.00">/cbmc/src/goto&#45;programs</text>
<text text-anchor="middle" x="2019" y="-84" font-family="Helvetica,sans-Serif" font-size="10.00">/show_goto_functions.cpp</text>
</a>
</g>
</g>
<!-- Node1&#45;&gt;Node24 -->
<g id="edge23_Node000001_Node000024" class="edge">
<title>Node1&#45;&gt;Node24</title>
<g id="a_edge23_Node000001_Node000024"><a xlink:title=" ">
<path fill="none" stroke="#63b8ff" d="M1399.03,-170.12C1517.01,-164.23 1745.89,-149.58 1938,-118 1941,-117.51 1944.05,-116.96 1947.12,-116.38"/>
<polygon fill="#63b8ff" stroke="#63b8ff" points="1398.82,-166.62 1389,-170.61 1399.16,-173.61 1398.82,-166.62"/>
</a>
</g>
</g>
<!-- Node25 -->
<g id="Node000025" class="node">
<title>Node25</title>
<g id="a_Node000025"><a xlink:href="goto__synthesizer__parse__options_8cpp.html" target="_top" xlink:title="Main Module.">
<polygon fill="white" stroke="#666666" points="2305.5,-118 2108.5,-118 2108.5,-77 2305.5,-77 2305.5,-118"/>
<text text-anchor="start" x="2116.5" y="-106" font-family="Helvetica,sans-Serif" font-size="10.00">/home/runner/work/cbmc</text>
<text text-anchor="start" x="2116.5" y="-95" font-family="Helvetica,sans-Serif" font-size="10.00">/cbmc/src/goto&#45;synthesizer</text>
<text text-anchor="middle" x="2207" y="-84" font-family="Helvetica,sans-Serif" font-size="10.00">/goto_synthesizer_parse_options.cpp</text>
</a>
</g>
</g>
<!-- Node1&#45;&gt;Node25 -->
<g id="edge24_Node000001_Node000025" class="edge">
<title>Node1&#45;&gt;Node25</title>
<g id="a_edge24_Node000001_Node000025"><a xlink:title=" ">
<path fill="none" stroke="#63b8ff" d="M1399.41,-170.72C1540.76,-165.12 1845.08,-150.2 2100,-118 2102.72,-117.66 2105.47,-117.29 2108.24,-116.9"/>
<polygon fill="#63b8ff" stroke="#63b8ff" points="1398.97,-167.23 1389.11,-171.12 1399.24,-174.23 1398.97,-167.23"/>
</a>
</g>
</g>
<!-- Node3 -->
<g id="Node000003" class="node">
<title>Node3</title>
<g id="a_Node000003"><a xlink:href="janalyzer__main_8cpp.html" target="_top" xlink:title="JANALYZER Main Module.">
<polygon fill="white" stroke="#666666" points="138,-41 0,-41 0,0 138,0 138,-41"/>
<text text-anchor="start" x="8" y="-29" font-family="Helvetica,sans-Serif" font-size="10.00">/home/runner/work/cbmc</text>
<text text-anchor="start" x="8" y="-18" font-family="Helvetica,sans-Serif" font-size="10.00">/cbmc/jbmc/src/janalyzer</text>
<text text-anchor="middle" x="69" y="-7" font-family="Helvetica,sans-Serif" font-size="10.00">/janalyzer_main.cpp</text>
</a>
</g>
</g>
<!-- Node2&#45;&gt;Node3 -->
<g id="edge2_Node000002_Node000003" class="edge">
<title>Node2&#45;&gt;Node3</title>
<g id="a_edge2_Node000002_Node000003"><a xlink:title=" ">
<path fill="none" stroke="#63b8ff" d="M182.67,-72.86C160.01,-62.62 133.79,-50.77 112.25,-41.04"/>
<polygon fill="#63b8ff" stroke="#63b8ff" points="181.26,-76.06 191.82,-76.99 184.15,-69.68 181.26,-76.06"/>
</a>
</g>
</g>
<!-- Node4 -->
<g id="Node000004" class="node">
<title>Node4</title>
<g id="a_Node000004"><a xlink:href="janalyzer__parse__options_8cpp.html" target="_top" xlink:title="JANALYZER Command Line Option Processing.">
<polygon fill="white" stroke="#666666" points="314,-41 156,-41 156,0 314,0 314,-41"/>
<text text-anchor="start" x="164" y="-29" font-family="Helvetica,sans-Serif" font-size="10.00">/home/runner/work/cbmc</text>
<text text-anchor="start" x="164" y="-18" font-family="Helvetica,sans-Serif" font-size="10.00">/cbmc/jbmc/src/janalyzer</text>
<text text-anchor="middle" x="235" y="-7" font-family="Helvetica,sans-Serif" font-size="10.00">/janalyzer_parse_options.cpp</text>
</a>
</g>
</g>
<!-- Node2&#45;&gt;Node4 -->
<g id="edge3_Node000002_Node000004" class="edge">
<title>Node2&#45;&gt;Node4</title>
<g id="a_edge3_Node000002_Node000004"><a xlink:title=" ">
<path fill="none" stroke="#63b8ff" d="M235,-66.69C235,-58.08 235,-48.9 235,-41.07"/>
<polygon fill="#63b8ff" stroke="#63b8ff" points="231.5,-66.79 235,-76.79 238.5,-66.79 231.5,-66.79"/>
</a>
</g>
</g>
<!-- Node7 -->
<g id="Node000007" class="node">
<title>Node7</title>
<g id="a_Node000007"><a xlink:href="jdiff__languages_8cpp.html" target="_top" xlink:title="Language Registration.">
<polygon fill="white" stroke="#666666" points="470,-41 332,-41 332,0 470,0 470,-41"/>
<text text-anchor="start" x="340" y="-29" font-family="Helvetica,sans-Serif" font-size="10.00">/home/runner/work/cbmc</text>
<text text-anchor="start" x="340" y="-18" font-family="Helvetica,sans-Serif" font-size="10.00">/cbmc/jbmc/src/jdiff/jdiff</text>
<text text-anchor="middle" x="401" y="-7" font-family="Helvetica,sans-Serif" font-size="10.00">_languages.cpp</text>
</a>
</g>
</g>
<!-- Node6&#45;&gt;Node7 -->
<g id="edge6_Node000006_Node000007" class="edge">
<title>Node6&#45;&gt;Node7</title>
<g id="a_edge6_Node000006_Node000007"><a xlink:title=" ">
<path fill="none" stroke="#63b8ff" d="M633.55,-76.67C564.13,-60.1 545.08,-56.88 479,-41 476.15,-40.31 473.24,-39.61 470.31,-38.9"/>
<polygon fill="#63b8ff" stroke="#63b8ff" points="633.15,-80.18 643.69,-79.1 634.78,-73.37 633.15,-80.18"/>
</a>
</g>
</g>
<!-- Node8 -->
<g id="Node000008" class="node">
<title>Node8</title>
<g id="a_Node000008"><a xlink:href="jdiff__main_8cpp.html" target="_top" xlink:title="JDIFF Main Module.">
<polygon fill="white" stroke="#666666" points="626,-41 488,-41 488,0 626,0 626,-41"/>
<text text-anchor="start" x="496" y="-29" font-family="Helvetica,sans-Serif" font-size="10.00">/home/runner/work/cbmc</text>
<text text-anchor="start" x="496" y="-18" font-family="Helvetica,sans-Serif" font-size="10.00">/cbmc/jbmc/src/jdiff/jdiff</text>
<text text-anchor="middle" x="557" y="-7" font-family="Helvetica,sans-Serif" font-size="10.00">_main.cpp</text>
</a>
</g>
</g>
<!-- Node6&#45;&gt;Node8 -->
<g id="edge7_Node000006_Node000008" class="edge">
<title>Node6&#45;&gt;Node8</title>
<g id="a_edge7_Node000006_Node000008"><a xlink:title=" ">
<path fill="none" stroke="#63b8ff" d="M663.26,-72.59C642.09,-62.41 617.71,-50.69 597.65,-41.04"/>
<polygon fill="#63b8ff" stroke="#63b8ff" points="661.89,-75.81 672.42,-76.99 664.92,-69.5 661.89,-75.81"/>
</a>
</g>
</g>
<!-- Node9 -->
<g id="Node000009" class="node">
<title>Node9</title>
<g id="a_Node000009"><a xlink:href="jdiff__parse__options_8cpp.html" target="_top" xlink:title="JDIFF Command Line Option Processing.">
<polygon fill="white" stroke="#666666" points="782,-41 644,-41 644,0 782,0 782,-41"/>
<text text-anchor="start" x="652" y="-29" font-family="Helvetica,sans-Serif" font-size="10.00">/home/runner/work/cbmc</text>
<text text-anchor="start" x="652" y="-18" font-family="Helvetica,sans-Serif" font-size="10.00">/cbmc/jbmc/src/jdiff/jdiff</text>
<text text-anchor="middle" x="713" y="-7" font-family="Helvetica,sans-Serif" font-size="10.00">_parse_options.cpp</text>
</a>
</g>
</g>
<!-- Node6&#45;&gt;Node9 -->
<g id="edge8_Node000006_Node000009" class="edge">
<title>Node6&#45;&gt;Node9</title>
<g id="a_edge8_Node000006_Node000009"><a xlink:title=" ">
<path fill="none" stroke="#63b8ff" d="M713,-66.69C713,-58.08 713,-48.9 713,-41.07"/>
<polygon fill="#63b8ff" stroke="#63b8ff" points="709.5,-66.79 713,-76.79 716.5,-66.79 709.5,-66.79"/>
</a>
</g>
</g>
<!-- Node12 -->
<g id="Node000012" class="node">
<title>Node12</title>
<g id="a_Node000012"><a xlink:href="goto__analyzer__languages_8cpp.html" target="_top" xlink:title="Language Registration.">
<polygon fill="white" stroke="#666666" points="964,-41 800,-41 800,0 964,0 964,-41"/>
<text text-anchor="start" x="808" y="-29" font-family="Helvetica,sans-Serif" font-size="10.00">/home/runner/work/cbmc</text>
<text text-anchor="start" x="808" y="-18" font-family="Helvetica,sans-Serif" font-size="10.00">/cbmc/src/goto&#45;analyzer</text>
<text text-anchor="middle" x="882" y="-7" font-family="Helvetica,sans-Serif" font-size="10.00">/goto_analyzer_languages.cpp</text>
</a>
</g>
</g>
<!-- Node11&#45;&gt;Node12 -->
<g id="edge11_Node000011_Node000012" class="edge">
<title>Node11&#45;&gt;Node12</title>
<g id="a_edge11_Node000011_Node000012"><a xlink:title=" ">
<path fill="none" stroke="#63b8ff" d="M1135.32,-75.94C1081.68,-64.41 1015.46,-50.18 964.18,-39.16"/>
<polygon fill="#63b8ff" stroke="#63b8ff" points="1134.67,-79.38 1145.18,-78.06 1136.14,-72.53 1134.67,-79.38"/>
</a>
</g>
</g>
<!-- Node13 -->
<g id="Node000013" class="node">
<title>Node13</title>
<g id="a_Node000013"><a xlink:href="goto__analyzer__main_8cpp.html" target="_top" xlink:title="Goto&#45;Analyser Main Module.">
<polygon fill="white" stroke="#666666" points="1121.5,-41 982.5,-41 982.5,0 1121.5,0 1121.5,-41"/>
<text text-anchor="start" x="990.5" y="-29" font-family="Helvetica,sans-Serif" font-size="10.00">/home/runner/work/cbmc</text>
<text text-anchor="start" x="990.5" y="-18" font-family="Helvetica,sans-Serif" font-size="10.00">/cbmc/src/goto&#45;analyzer</text>
<text text-anchor="middle" x="1052" y="-7" font-family="Helvetica,sans-Serif" font-size="10.00">/goto_analyzer_main.cpp</text>
</a>
</g>
</g>
<!-- Node11&#45;&gt;Node13 -->
<g id="edge12_Node000011_Node000013" class="edge">
<title>Node11&#45;&gt;Node13</title>
<g id="a_edge12_Node000011_Node000013"><a xlink:title=" ">
<path fill="none" stroke="#63b8ff" d="M1174.9,-73C1150.39,-62.72 1121.97,-50.82 1098.64,-41.04"/>
<polygon fill="#63b8ff" stroke="#63b8ff" points="1173.86,-76.35 1184.44,-76.99 1176.57,-69.9 1173.86,-76.35"/>
</a>
</g>
</g>
<!-- Node14 -->
<g id="Node000014" class="node">
<title>Node14</title>
<g id="a_Node000014"><a xlink:href="goto__analyzer__parse__options_8cpp.html" target="_top" xlink:title="Goto&#45;Analyser Command Line Option Processing.">
<polygon fill="white" stroke="#666666" points="1322,-41 1140,-41 1140,0 1322,0 1322,-41"/>
<text text-anchor="start" x="1148" y="-29" font-family="Helvetica,sans-Serif" font-size="10.00">/home/runner/work/cbmc</text>
<text text-anchor="start" x="1148" y="-18" font-family="Helvetica,sans-Serif" font-size="10.00">/cbmc/src/goto&#45;analyzer</text>
<text text-anchor="middle" x="1231" y="-7" font-family="Helvetica,sans-Serif" font-size="10.00">/goto_analyzer_parse_options.cpp</text>
</a>
</g>
</g>
<!-- Node11&#45;&gt;Node14 -->
<g id="edge13_Node000011_Node000014" class="edge">
<title>Node11&#45;&gt;Node14</title>
<g id="a_edge13_Node000011_Node000014"><a xlink:title=" ">
<path fill="none" stroke="#63b8ff" d="M1231,-66.69C1231,-58.08 1231,-48.9 1231,-41.07"/>
<polygon fill="#63b8ff" stroke="#63b8ff" points="1227.5,-66.79 1231,-76.79 1234.5,-66.79 1227.5,-66.79"/>
</a>
</g>
</g>
<!-- Node16 -->
<g id="Node000016" class="node">
<title>Node16</title>
<g id="a_Node000016"><a xlink:href="goto__diff__languages_8cpp.html" target="_top" xlink:title="Language Registration.">
<polygon fill="white" stroke="#666666" points="1478,-41 1340,-41 1340,0 1478,0 1478,-41"/>
<text text-anchor="start" x="1348" y="-29" font-family="Helvetica,sans-Serif" font-size="10.00">/home/runner/work/cbmc</text>
<text text-anchor="start" x="1348" y="-18" font-family="Helvetica,sans-Serif" font-size="10.00">/cbmc/src/goto&#45;diff/goto</text>
<text text-anchor="middle" x="1409" y="-7" font-family="Helvetica,sans-Serif" font-size="10.00">_diff_languages.cpp</text>
</a>
</g>
</g>
<!-- Node15&#45;&gt;Node16 -->
<g id="edge15_Node000015_Node000016" class="edge">
<title>Node15&#45;&gt;Node16</title>
<g id="a_edge15_Node000015_Node000016"><a xlink:title=" ">
<path fill="none" stroke="#63b8ff" d="M1409,-66.69C1409,-58.08 1409,-48.9 1409,-41.07"/>
<polygon fill="#63b8ff" stroke="#63b8ff" points="1405.5,-66.79 1409,-76.79 1412.5,-66.79 1405.5,-66.79"/>
</a>
</g>
</g>
<!-- Node17 -->
<g id="Node000017" class="node">
<title>Node17</title>
<g id="a_Node000017"><a xlink:href="goto__diff__main_8cpp.html" target="_top" xlink:title="GOTO&#45;DIFF Main Module.">
<polygon fill="white" stroke="#666666" points="1634,-41 1496,-41 1496,0 1634,0 1634,-41"/>
<text text-anchor="start" x="1504" y="-29" font-family="Helvetica,sans-Serif" font-size="10.00">/home/runner/work/cbmc</text>
<text text-anchor="start" x="1504" y="-18" font-family="Helvetica,sans-Serif" font-size="10.00">/cbmc/src/goto&#45;diff/goto</text>
<text text-anchor="middle" x="1565" y="-7" font-family="Helvetica,sans-Serif" font-size="10.00">_diff_main.cpp</text>
</a>
</g>
</g>
<!-- Node15&#45;&gt;Node17 -->
<g id="edge16_Node000015_Node000017" class="edge">
<title>Node15&#45;&gt;Node17</title>
<g id="a_edge16_Node000015_Node000017"><a xlink:title=" ">
<path fill="none" stroke="#63b8ff" d="M1458.74,-72.59C1479.91,-62.41 1504.29,-50.69 1524.35,-41.04"/>
<polygon fill="#63b8ff" stroke="#63b8ff" points="1457.08,-69.5 1449.58,-76.99 1460.11,-75.81 1457.08,-69.5"/>
</a>
</g>
</g>
<!-- Node18 -->
<g id="Node000018" class="node">
<title>Node18</title>
<g id="a_Node000018"><a xlink:href="goto__diff__parse__options_8cpp.html" target="_top" xlink:title="GOTO&#45;DIFF Command Line Option Processing.">
<polygon fill="white" stroke="#666666" points="1790,-41 1652,-41 1652,0 1790,0 1790,-41"/>
<text text-anchor="start" x="1660" y="-29" font-family="Helvetica,sans-Serif" font-size="10.00">/home/runner/work/cbmc</text>
<text text-anchor="start" x="1660" y="-18" font-family="Helvetica,sans-Serif" font-size="10.00">/cbmc/src/goto&#45;diff/goto</text>
<text text-anchor="middle" x="1721" y="-7" font-family="Helvetica,sans-Serif" font-size="10.00">_diff_parse_options.cpp</text>
</a>
</g>
</g>
<!-- Node15&#45;&gt;Node18 -->
<g id="edge17_Node000015_Node000018" class="edge">
<title>Node15&#45;&gt;Node18</title>
<g id="a_edge17_Node000015_Node000018"><a xlink:title=" ">
<path fill="none" stroke="#63b8ff" d="M1488.45,-76.67C1557.87,-60.1 1576.92,-56.88 1643,-41 1645.85,-40.31 1648.76,-39.61 1651.69,-38.9"/>
<polygon fill="#63b8ff" stroke="#63b8ff" points="1487.22,-73.37 1478.31,-79.1 1488.85,-80.18 1487.22,-73.37"/>
</a>
</g>
</g>
<!-- Node21 -->
<g id="Node000021" class="node">
<title>Node21</title>
<g id="a_Node000021"><a xlink:href="goto__instrument__languages_8cpp.html" target="_top" xlink:title="Language Registration.">
<polygon fill="white" stroke="#666666" points="1984,-41 1808,-41 1808,0 1984,0 1984,-41"/>
<text text-anchor="start" x="1816" y="-29" font-family="Helvetica,sans-Serif" font-size="10.00">/home/runner/work/cbmc</text>
<text text-anchor="start" x="1816" y="-18" font-family="Helvetica,sans-Serif" font-size="10.00">/cbmc/src/goto&#45;instrument</text>
<text text-anchor="middle" x="1896" y="-7" font-family="Helvetica,sans-Serif" font-size="10.00">/goto_instrument_languages.cpp</text>
</a>
</g>
</g>
<!-- Node20&#45;&gt;Node21 -->
<g id="edge20_Node000020_Node000021" class="edge">
<title>Node20&#45;&gt;Node21</title>
<g id="a_edge20_Node000020_Node000021"><a xlink:title=" ">
<path fill="none" stroke="#63b8ff" d="M1859.52,-68.67C1866.61,-59.5 1874.35,-49.5 1880.86,-41.07"/>
<polygon fill="#63b8ff" stroke="#63b8ff" points="1856.59,-66.74 1853.24,-76.79 1862.13,-71.03 1856.59,-66.74"/>
</a>
</g>
</g>
<!-- Node22 -->
<g id="Node000022" class="node">
<title>Node22</title>
<g id="a_Node000022"><a xlink:href="goto__instrument__main_8cpp.html" target="_top" xlink:title="Main Module.">
<polygon fill="white" stroke="#666666" points="2152,-41 2002,-41 2002,0 2152,0 2152,-41"/>
<text text-anchor="start" x="2010" y="-29" font-family="Helvetica,sans-Serif" font-size="10.00">/home/runner/work/cbmc</text>
<text text-anchor="start" x="2010" y="-18" font-family="Helvetica,sans-Serif" font-size="10.00">/cbmc/src/goto&#45;instrument</text>
<text text-anchor="middle" x="2077" y="-7" font-family="Helvetica,sans-Serif" font-size="10.00">/goto_instrument_main.cpp</text>
</a>
</g>
</g>
<!-- Node20&#45;&gt;Node22 -->
<g id="edge21_Node000020_Node000022" class="edge">
<title>Node20&#45;&gt;Node22</title>
<g id="a_edge21_Node000020_Node000022"><a xlink:title=" ">
<path fill="none" stroke="#63b8ff" d="M1909.88,-73.94C1943.28,-63.46 1982.61,-51.12 2014.73,-41.04"/>
<polygon fill="#63b8ff" stroke="#63b8ff" points="1908.66,-70.66 1900.17,-76.99 1910.76,-77.34 1908.66,-70.66"/>
</a>
</g>
</g>
<!-- Node23 -->
<g id="Node000023" class="node">
<title>Node23</title>
<g id="a_Node000023"><a xlink:href="goto__instrument__parse__options_8cpp.html" target="_top" xlink:title="Main Module.">
<polygon fill="white" stroke="#666666" points="2364,-41 2170,-41 2170,0 2364,0 2364,-41"/>
<text text-anchor="start" x="2178" y="-29" font-family="Helvetica,sans-Serif" font-size="10.00">/home/runner/work/cbmc</text>
<text text-anchor="start" x="2178" y="-18" font-family="Helvetica,sans-Serif" font-size="10.00">/cbmc/src/goto&#45;instrument</text>
<text text-anchor="middle" x="2267" y="-7" font-family="Helvetica,sans-Serif" font-size="10.00">/goto_instrument_parse_options.cpp</text>
</a>
</g>
</g>
<!-- Node20&#45;&gt;Node23 -->
<g id="edge22_Node000020_Node000023" class="edge">
<title>Node20&#45;&gt;Node23</title>
<g id="a_edge22_Node000020_Node000023"><a xlink:title=" ">
<path fill="none" stroke="#63b8ff" d="M1938.69,-77.05C1938.8,-77.04 1938.9,-77.02 1939,-77 2037.42,-59.52 2062.51,-58.04 2161,-41 2163.95,-40.49 2166.95,-39.97 2169.97,-39.44"/>
<polygon fill="#63b8ff" stroke="#63b8ff" points="1938.32,-73.57 1929.09,-78.78 1939.56,-80.46 1938.32,-73.57"/>
</a>
</g>
</g>
</g>
</svg>
