<?xml version="1.0" encoding="UTF-8" standalone="no"?>
<!DOCTYPE svg PUBLIC "-//W3C//DTD SVG 1.1//EN"
 "http://www.w3.org/Graphics/SVG/1.1/DTD/svg11.dtd">
<!-- Generated by graphviz version 2.43.0 (0)
 -->
<!-- Title: /home/runner/work/cbmc/cbmc/src/solvers/smt2_incremental/theories/smt_array_theory.h Pages: 1 -->
<svg width="679pt" height="148pt"
 viewBox="0.00 0.00 679.00 148.00" xmlns="http://www.w3.org/2000/svg" xmlns:xlink="http://www.w3.org/1999/xlink">
<g id="graph0" class="graph" transform="scale(1 1) rotate(0) translate(4 144)">
<title>/home/runner/work/cbmc/cbmc/src/solvers/smt2_incremental/theories/smt_array_theory.h</title>
<!-- Node1 -->
<g id="Node000001" class="node">
<title>Node1</title>
<g id="a_Node000001"><a xlink:title=" ">
<polygon fill="#999999" stroke="#666666" points="414,-140 269,-140 269,-88 414,-88 414,-140"/>
<text text-anchor="start" x="277" y="-128" font-family="Helvetica,sans-Serif" font-size="10.00">/home/runner/work/cbmc</text>
<text text-anchor="start" x="277" y="-117" font-family="Helvetica,sans-Serif" font-size="10.00">/cbmc/src/solvers/smt2</text>
<text text-anchor="start" x="277" y="-106" font-family="Helvetica,sans-Serif" font-size="10.00">_incremental/theories/smt</text>
<text text-anchor="middle" x="341.5" y="-95" font-family="Helvetica,sans-Serif" font-size="10.00">_array_theory.h</text>
</a>
</g>
</g>
<!-- Node2 -->
<g id="Node000002" class="node">
<title>Node2</title>
<g id="a_Node000002"><a xlink:href="convert__expr__to__smt_8cpp.html" target="_top" xlink:title=" ">
<polygon fill="white" stroke="#666666" points="147,-52 0,-52 0,0 147,0 147,-52"/>
<text text-anchor="start" x="8" y="-40" font-family="Helvetica,sans-Serif" font-size="10.00">/home/runner/work/cbmc</text>
<text text-anchor="start" x="8" y="-29" font-family="Helvetica,sans-Serif" font-size="10.00">/cbmc/src/solvers/smt2</text>
<text text-anchor="start" x="8" y="-18" font-family="Helvetica,sans-Serif" font-size="10.00">_incremental/convert_expr</text>
<text text-anchor="middle" x="73.5" y="-7" font-family="Helvetica,sans-Serif" font-size="10.00">_to_smt.cpp</text>
</a>
</g>
</g>
<!-- Node1&#45;&gt;Node2 -->
<g id="edge1_Node000001_Node000002" class="edge">
<title>Node1&#45;&gt;Node2</title>
<g id="a_edge1_Node000001_Node000002"><a xlink:title=" ">
<path fill="none" stroke="#63b8ff" d="M259.05,-86.54C223.28,-75.06 181.72,-61.73 147.01,-50.59"/>
<polygon fill="#63b8ff" stroke="#63b8ff" points="258.38,-90 268.98,-89.73 260.52,-83.34 258.38,-90"/>
</a>
</g>
</g>
<!-- Node3 -->
<g id="Node000003" class="node">
<title>Node3</title>
<g id="a_Node000003"><a xlink:href="smt2__incremental__decision__procedure_8cpp.html" target="_top" xlink:title=" ">
<polygon fill="white" stroke="#666666" points="337.5,-52 165.5,-52 165.5,0 337.5,0 337.5,-52"/>
<text text-anchor="start" x="173.5" y="-40" font-family="Helvetica,sans-Serif" font-size="10.00">/home/runner/work/cbmc</text>
<text text-anchor="start" x="173.5" y="-29" font-family="Helvetica,sans-Serif" font-size="10.00">/cbmc/src/solvers/smt2</text>
<text text-anchor="start" x="173.5" y="-18" font-family="Helvetica,sans-Serif" font-size="10.00">_incremental/smt2_incremental</text>
<text text-anchor="middle" x="251.5" y="-7" font-family="Helvetica,sans-Serif" font-size="10.00">_decision_procedure.cpp</text>
</a>
</g>
</g>
<!-- Node1&#45;&gt;Node3 -->
<g id="edge2_Node000001_Node000003" class="edge">
<title>Node1&#45;&gt;Node3</title>
<g id="a_edge2_Node000001_Node000003"><a xlink:title=" ">
<path fill="none" stroke="#63b8ff" d="M307.63,-80.63C297.77,-71.21 287.15,-61.06 277.83,-52.16"/>
<polygon fill="#63b8ff" stroke="#63b8ff" points="305.34,-83.28 314.98,-87.66 310.17,-78.22 305.34,-83.28"/>
</a>
</g>
</g>
<!-- Node4 -->
<g id="Node000004" class="node">
<title>Node4</title>
<g id="a_Node000004"><a xlink:href="smt__response__validation_8cpp.html" target="_top" xlink:title="Validation of smt response parse trees to produce either a strongly typed smt_responset representatio...">
<polygon fill="white" stroke="#666666" points="507.5,-52 355.5,-52 355.5,0 507.5,0 507.5,-52"/>
<text text-anchor="start" x="363.5" y="-40" font-family="Helvetica,sans-Serif" font-size="10.00">/home/runner/work/cbmc</text>
<text text-anchor="start" x="363.5" y="-29" font-family="Helvetica,sans-Serif" font-size="10.00">/cbmc/src/solvers/smt2</text>
<text text-anchor="start" x="363.5" y="-18" font-family="Helvetica,sans-Serif" font-size="10.00">_incremental/smt_response</text>
<text text-anchor="middle" x="431.5" y="-7" font-family="Helvetica,sans-Serif" font-size="10.00">_validation.cpp</text>
</a>
</g>
</g>
<!-- Node1&#45;&gt;Node4 -->
<g id="edge3_Node000001_Node000004" class="edge">
<title>Node1&#45;&gt;Node4</title>
<g id="a_edge3_Node000001_Node000004"><a xlink:title=" ">
<path fill="none" stroke="#63b8ff" d="M375.37,-80.63C385.23,-71.21 395.85,-61.06 405.17,-52.16"/>
<polygon fill="#63b8ff" stroke="#63b8ff" points="372.83,-78.22 368.02,-87.66 377.66,-83.28 372.83,-78.22"/>
</a>
</g>
</g>
<!-- Node5 -->
<g id="Node000005" class="node">
<title>Node5</title>
<g id="a_Node000005"><a xlink:href="smt__array__theory_8cpp.html" target="_top" xlink:title=" ">
<polygon fill="white" stroke="#666666" points="671,-52 526,-52 526,0 671,0 671,-52"/>
<text text-anchor="start" x="534" y="-40" font-family="Helvetica,sans-Serif" font-size="10.00">/home/runner/work/cbmc</text>
<text text-anchor="start" x="534" y="-29" font-family="Helvetica,sans-Serif" font-size="10.00">/cbmc/src/solvers/smt2</text>
<text text-anchor="start" x="534" y="-18" font-family="Helvetica,sans-Serif" font-size="10.00">_incremental/theories/smt</text>
<text text-anchor="middle" x="598.5" y="-7" font-family="Helvetica,sans-Serif" font-size="10.00">_array_theory.cpp</text>
</a>
</g>
</g>
<!-- Node1&#45;&gt;Node5 -->
<g id="edge4_Node000001_Node000005" class="edge">
<title>Node1&#45;&gt;Node5</title>
<g id="a_edge4_Node000001_Node000005"><a xlink:title=" ">
<path fill="none" stroke="#63b8ff" d="M423.67,-85.5C456.44,-74.54 493.84,-62.02 525.62,-51.39"/>
<polygon fill="#63b8ff" stroke="#63b8ff" points="422.49,-82.21 414.12,-88.7 424.71,-88.85 422.49,-82.21"/>
</a>
</g>
</g>
</g>
</svg>
