<?xml version="1.0" encoding="UTF-8" standalone="no"?>
<!DOCTYPE svg PUBLIC "-//W3C//DTD SVG 1.1//EN"
 "http://www.w3.org/Graphics/SVG/1.1/DTD/svg11.dtd">
<!-- Generated by graphviz version 2.43.0 (0)
 -->
<!-- Title: /home/runner/work/cbmc/cbmc/src/solvers/smt2_incremental/ast/smt_responses.cpp Pages: 1 -->
<svg width="1147pt" height="555pt"
 viewBox="0.00 0.00 1147.00 555.00" xmlns="http://www.w3.org/2000/svg" xmlns:xlink="http://www.w3.org/1999/xlink">
<g id="graph0" class="graph" transform="scale(1 1) rotate(0) translate(4 551)">
<title>/home/runner/work/cbmc/cbmc/src/solvers/smt2_incremental/ast/smt_responses.cpp</title>
<!-- Node1 -->
<g id="Node000001" class="node">
<title>Node1</title>
<g id="a_Node000001"><a xlink:title=" ">
<polygon fill="#999999" stroke="#666666" points="955,-547 760,-547 760,-506 955,-506 955,-547"/>
<text text-anchor="start" x="768" y="-535" font-family="Helvetica,sans-Serif" font-size="10.00">/home/runner/work/cbmc</text>
<text text-anchor="start" x="768" y="-524" font-family="Helvetica,sans-Serif" font-size="10.00">/cbmc/src/solvers/smt2</text>
<text text-anchor="middle" x="857.5" y="-513" font-family="Helvetica,sans-Serif" font-size="10.00">_incremental/ast/smt_responses.cpp</text>
</a>
</g>
</g>
<!-- Node2 -->
<g id="Node000002" class="node">
<title>Node2</title>
<g id="a_Node000002"><a xlink:href="smt__responses_8h.html" target="_top" xlink:title=" ">
<polygon fill="white" stroke="#666666" points="729,-470 630,-470 630,-451 729,-451 729,-470"/>
<text text-anchor="middle" x="679.5" y="-458" font-family="Helvetica,sans-Serif" font-size="10.00">smt_responses.h</text>
</a>
</g>
</g>
<!-- Node1&#45;&gt;Node2 -->
<g id="edge1_Node000001_Node000002" class="edge">
<title>Node1&#45;&gt;Node2</title>
<g id="a_edge1_Node000001_Node000002"><a xlink:title=" ">
<path fill="none" stroke="#63b8ff" d="M803.13,-505.95C773.7,-495.37 738.3,-482.64 712.93,-473.52"/>
<polygon fill="#63b8ff" stroke="#63b8ff" points="713.99,-470.18 703.4,-470.09 711.62,-476.77 713.99,-470.18"/>
</a>
</g>
</g>
<!-- Node36 -->
<g id="Node000036" class="node">
<title>Node36</title>
<g id="a_Node000036"><a xlink:href="range_8h.html" target="_top" xlink:title="Ranges: pair of begin and end iterators, which can be initialized from containers,...">
<polygon fill="white" stroke="#666666" points="994.5,-415 922.5,-415 922.5,-396 994.5,-396 994.5,-415"/>
<text text-anchor="middle" x="958.5" y="-403" font-family="Helvetica,sans-Serif" font-size="10.00">util/range.h</text>
</a>
</g>
</g>
<!-- Node1&#45;&gt;Node36 -->
<g id="edge50_Node000001_Node000036" class="edge">
<title>Node1&#45;&gt;Node36</title>
<g id="a_edge50_Node000001_Node000036"><a xlink:title=" ">
<path fill="none" stroke="#63b8ff" d="M858.25,-505.88C859.79,-489.66 864.2,-466.8 876.5,-451 887.79,-436.5 905.18,-426.11 921.04,-419.04"/>
<polygon fill="#63b8ff" stroke="#63b8ff" points="922.76,-422.12 930.66,-415.06 920.08,-415.65 922.76,-422.12"/>
</a>
</g>
</g>
<!-- Node38 -->
<g id="Node000038" class="node">
<title>Node38</title>
<g id="a_Node000038"><a xlink:title=" ">
<polygon fill="#e0e0e0" stroke="#999999" points="995,-470 886,-470 886,-451 995,-451 995,-470"/>
<text text-anchor="middle" x="940.5" y="-458" font-family="Helvetica,sans-Serif" font-size="10.00">smt_responses.def</text>
</a>
</g>
</g>
<!-- Node1&#45;&gt;Node38 -->
<g id="edge55_Node000001_Node000038" class="edge">
<title>Node1&#45;&gt;Node38</title>
<g id="a_edge55_Node000001_Node000038"><a xlink:title=" ">
<path fill="none" stroke="#63b8ff" d="M882.85,-505.95C895.16,-496.46 909.72,-485.24 921.12,-476.44"/>
<polygon fill="#63b8ff" stroke="#63b8ff" points="923.36,-479.14 929.14,-470.26 919.08,-473.6 923.36,-479.14"/>
</a>
</g>
</g>
<!-- Node3 -->
<g id="Node000003" class="node">
<title>Node3</title>
<g id="a_Node000003"><a xlink:href="irep_8h.html" target="_top" xlink:title=" ">
<polygon fill="white" stroke="#666666" points="560,-305 497,-305 497,-286 560,-286 560,-305"/>
<text text-anchor="middle" x="528.5" y="-293" font-family="Helvetica,sans-Serif" font-size="10.00">util/irep.h</text>
</a>
</g>
</g>
<!-- Node2&#45;&gt;Node3 -->
<g id="edge2_Node000002_Node000003" class="edge">
<title>Node2&#45;&gt;Node3</title>
<g id="a_edge2_Node000002_Node000003"><a xlink:title=" ">
<path fill="none" stroke="#63b8ff" d="M647.84,-450.96C608.27,-438.4 542.23,-410.72 513.5,-360 505.49,-345.86 511.17,-327.63 517.71,-314.33"/>
<polygon fill="#63b8ff" stroke="#63b8ff" points="520.93,-315.73 522.66,-305.28 514.79,-312.37 520.93,-315.73"/>
</a>
</g>
</g>
<!-- Node26 -->
<g id="Node000026" class="node">
<title>Node26</title>
<g id="a_Node000026"><a xlink:href="smt__terms_8h.html" target="_top" xlink:title=" ">
<polygon fill="white" stroke="#666666" points="718.5,-415 640.5,-415 640.5,-396 718.5,-396 718.5,-415"/>
<text text-anchor="middle" x="679.5" y="-403" font-family="Helvetica,sans-Serif" font-size="10.00">smt_terms.h</text>
</a>
</g>
</g>
<!-- Node2&#45;&gt;Node26 -->
<g id="edge33_Node000002_Node000026" class="edge">
<title>Node2&#45;&gt;Node26</title>
<g id="a_edge33_Node000002_Node000026"><a xlink:title=" ">
<path fill="none" stroke="#63b8ff" d="M679.5,-450.75C679.5,-443.8 679.5,-433.85 679.5,-425.13"/>
<polygon fill="#63b8ff" stroke="#63b8ff" points="683,-425.09 679.5,-415.09 676,-425.09 683,-425.09"/>
</a>
</g>
</g>
<!-- Node4 -->
<g id="Node000004" class="node">
<title>Node4</title>
<g id="a_Node000004"><a xlink:title=" ">
<polygon fill="#e0e0e0" stroke="#999999" points="509.5,-19 465.5,-19 465.5,0 509.5,0 509.5,-19"/>
<text text-anchor="middle" x="487.5" y="-7" font-family="Helvetica,sans-Serif" font-size="10.00">string</text>
</a>
</g>
</g>
<!-- Node3&#45;&gt;Node4 -->
<g id="edge3_Node000003_Node000004" class="edge">
<title>Node3&#45;&gt;Node4</title>
<g id="a_edge3_Node000003_Node000004"><a xlink:title=" ">
<path fill="none" stroke="#63b8ff" d="M525.62,-285.78C519.66,-266.9 506.5,-220.74 506.5,-181 506.5,-181 506.5,-181 506.5,-118.5 506.5,-86.56 498.34,-50.1 492.72,-28.77"/>
<polygon fill="#63b8ff" stroke="#63b8ff" points="496.08,-27.81 490.06,-19.09 489.33,-29.66 496.08,-27.81"/>
</a>
</g>
</g>
<!-- Node5 -->
<g id="Node000005" class="node">
<title>Node5</title>
<g id="a_Node000005"><a xlink:title=" ">
<polygon fill="#e0e0e0" stroke="#999999" points="440,-74 393,-74 393,-55 440,-55 440,-74"/>
<text text-anchor="middle" x="416.5" y="-62" font-family="Helvetica,sans-Serif" font-size="10.00">vector</text>
</a>
</g>
</g>
<!-- Node3&#45;&gt;Node5 -->
<g id="edge4_Node000003_Node000005" class="edge">
<title>Node3&#45;&gt;Node5</title>
<g id="a_edge4_Node000003_Node000005"><a xlink:title=" ">
<path fill="none" stroke="#63b8ff" d="M496.88,-289.18C462.69,-282.72 407.11,-270.11 362.5,-250 322.16,-231.81 300.44,-233.99 279.5,-195 271.77,-180.61 280.7,-115.99 285.5,-110 291.82,-102.12 346.38,-85.39 383.06,-74.83"/>
<polygon fill="#63b8ff" stroke="#63b8ff" points="384.23,-78.14 392.88,-72.03 382.31,-71.41 384.23,-78.14"/>
</a>
</g>
</g>
<!-- Node6 -->
<g id="Node000006" class="node">
<title>Node6</title>
<g id="a_Node000006"><a xlink:href="src_2util_2invariant_8h.html" target="_top" xlink:title=" ">
<polygon fill="white" stroke="#666666" points="975,-129 906,-129 906,-110 975,-110 975,-129"/>
<text text-anchor="middle" x="940.5" y="-117" font-family="Helvetica,sans-Serif" font-size="10.00">invariant.h</text>
</a>
</g>
</g>
<!-- Node3&#45;&gt;Node6 -->
<g id="edge5_Node000003_Node000006" class="edge">
<title>Node3&#45;&gt;Node6</title>
<g id="a_edge5_Node000003_Node000006"><a xlink:title=" ">
<path fill="none" stroke="#63b8ff" d="M560.16,-291.28C622.8,-283.66 765,-259.98 863.5,-195 888.36,-178.6 912.24,-153.58 926.64,-137.13"/>
<polygon fill="#63b8ff" stroke="#63b8ff" points="929.42,-139.27 933.27,-129.4 924.1,-134.72 929.42,-139.27"/>
</a>
</g>
</g>
<!-- Node10 -->
<g id="Node000010" class="node">
<title>Node10</title>
<g id="a_Node000010"><a xlink:href="irep__ids_8h.html" target="_top" xlink:title="util">
<polygon fill="white" stroke="#666666" points="435.5,-250 371.5,-250 371.5,-231 435.5,-231 435.5,-250"/>
<text text-anchor="middle" x="403.5" y="-238" font-family="Helvetica,sans-Serif" font-size="10.00">irep_ids.h</text>
</a>
</g>
</g>
<!-- Node3&#45;&gt;Node10 -->
<g id="edge10_Node000003_Node000010" class="edge">
<title>Node3&#45;&gt;Node10</title>
<g id="a_edge10_Node000003_Node000010"><a xlink:title=" ">
<path fill="none" stroke="#63b8ff" d="M508.42,-285.98C488.13,-277.38 456.54,-263.99 433.33,-254.15"/>
<polygon fill="#63b8ff" stroke="#63b8ff" points="434.52,-250.85 423.95,-250.17 431.79,-257.3 434.52,-250.85"/>
</a>
</g>
</g>
<!-- Node21 -->
<g id="Node000021" class="node">
<title>Node21</title>
<g id="a_Node000021"><a xlink:href="forward__list__as__map_8h.html" target="_top" xlink:title=" ">
<polygon fill="white" stroke="#666666" points="724,-250 597,-250 597,-231 724,-231 724,-250"/>
<text text-anchor="middle" x="660.5" y="-238" font-family="Helvetica,sans-Serif" font-size="10.00">forward_list_as_map.h</text>
</a>
</g>
</g>
<!-- Node3&#45;&gt;Node21 -->
<g id="edge26_Node000003_Node000021" class="edge">
<title>Node3&#45;&gt;Node21</title>
<g id="a_edge26_Node000003_Node000021"><a xlink:title=" ">
<path fill="none" stroke="#63b8ff" d="M549.71,-285.98C571.23,-277.34 604.78,-263.87 629.33,-254.02"/>
<polygon fill="#63b8ff" stroke="#63b8ff" points="630.93,-257.14 638.91,-250.17 628.32,-250.65 630.93,-257.14"/>
</a>
</g>
</g>
<!-- Node6&#45;&gt;Node4 -->
<g id="edge8_Node000006_Node000004" class="edge">
<title>Node6&#45;&gt;Node4</title>
<g id="a_edge8_Node000006_Node000004"><a xlink:title=" ">
<path fill="none" stroke="#63b8ff" d="M925.86,-109.95C901.4,-96.07 850.27,-68.8 803.5,-55 702.7,-25.25 577.78,-15.16 519.83,-11.92"/>
<polygon fill="#63b8ff" stroke="#63b8ff" points="519.98,-8.43 509.81,-11.4 519.61,-15.42 519.98,-8.43"/>
</a>
</g>
</g>
<!-- Node7 -->
<g id="Node000007" class="node">
<title>Node7</title>
<g id="a_Node000007"><a xlink:title=" ">
<polygon fill="#e0e0e0" stroke="#999999" points="952,-74 903,-74 903,-55 952,-55 952,-74"/>
<text text-anchor="middle" x="927.5" y="-62" font-family="Helvetica,sans-Serif" font-size="10.00">cstdlib</text>
</a>
</g>
</g>
<!-- Node6&#45;&gt;Node7 -->
<g id="edge6_Node000006_Node000007" class="edge">
<title>Node6&#45;&gt;Node7</title>
<g id="a_edge6_Node000006_Node000007"><a xlink:title=" ">
<path fill="none" stroke="#63b8ff" d="M938.35,-109.75C936.63,-102.72 934.15,-92.62 932,-83.84"/>
<polygon fill="#63b8ff" stroke="#63b8ff" points="935.39,-82.97 929.61,-74.09 928.59,-84.63 935.39,-82.97"/>
</a>
</g>
</g>
<!-- Node8 -->
<g id="Node000008" class="node">
<title>Node8</title>
<g id="a_Node000008"><a xlink:title=" ">
<polygon fill="#e0e0e0" stroke="#999999" points="1026.5,-74 970.5,-74 970.5,-55 1026.5,-55 1026.5,-74"/>
<text text-anchor="middle" x="998.5" y="-62" font-family="Helvetica,sans-Serif" font-size="10.00">sstream</text>
</a>
</g>
</g>
<!-- Node6&#45;&gt;Node8 -->
<g id="edge7_Node000006_Node000008" class="edge">
<title>Node6&#45;&gt;Node8</title>
<g id="a_edge7_Node000006_Node000008"><a xlink:title=" ">
<path fill="none" stroke="#63b8ff" d="M949.82,-109.98C958.31,-102.23 971.06,-90.58 981.38,-81.14"/>
<polygon fill="#63b8ff" stroke="#63b8ff" points="983.99,-83.5 989.01,-74.17 979.27,-78.33 983.99,-83.5"/>
</a>
</g>
</g>
<!-- Node9 -->
<g id="Node000009" class="node">
<title>Node9</title>
<g id="a_Node000009"><a xlink:title=" ">
<polygon fill="#e0e0e0" stroke="#999999" points="795,-74 726,-74 726,-55 795,-55 795,-74"/>
<text text-anchor="middle" x="760.5" y="-62" font-family="Helvetica,sans-Serif" font-size="10.00">type_traits</text>
</a>
</g>
</g>
<!-- Node6&#45;&gt;Node9 -->
<g id="edge9_Node000006_Node000009" class="edge">
<title>Node6&#45;&gt;Node9</title>
<g id="a_edge9_Node000006_Node000009"><a xlink:title=" ">
<path fill="none" stroke="#63b8ff" d="M911.58,-109.98C881.23,-101.05 833.33,-86.94 799.62,-77.02"/>
<polygon fill="#63b8ff" stroke="#63b8ff" points="800.23,-73.55 789.65,-74.08 798.25,-80.26 800.23,-73.55"/>
</a>
</g>
</g>
<!-- Node11 -->
<g id="Node000011" class="node">
<title>Node11</title>
<g id="a_Node000011"><a xlink:href="dstring_8h.html" target="_top" xlink:title="Container for C&#45;Strings.">
<polygon fill="white" stroke="#666666" points="348,-189.5 289,-189.5 289,-170.5 348,-170.5 348,-189.5"/>
<text text-anchor="middle" x="318.5" y="-177.5" font-family="Helvetica,sans-Serif" font-size="10.00">dstring.h</text>
</a>
</g>
</g>
<!-- Node10&#45;&gt;Node11 -->
<g id="edge11_Node000010_Node000011" class="edge">
<title>Node10&#45;&gt;Node11</title>
<g id="a_edge11_Node000010_Node000011"><a xlink:title=" ">
<path fill="none" stroke="#63b8ff" d="M390.96,-230.87C377.4,-221.54 355.56,-206.51 339.4,-195.38"/>
<polygon fill="#63b8ff" stroke="#63b8ff" points="341.32,-192.45 331.09,-189.67 337.35,-198.22 341.32,-192.45"/>
</a>
</g>
</g>
<!-- Node20 -->
<g id="Node000020" class="node">
<title>Node20</title>
<g id="a_Node000020"><a xlink:title=" ">
<polygon fill="#e0e0e0" stroke="#999999" points="440.5,-189.5 366.5,-189.5 366.5,-170.5 440.5,-170.5 440.5,-189.5"/>
<text text-anchor="middle" x="403.5" y="-177.5" font-family="Helvetica,sans-Serif" font-size="10.00">irep_ids.def</text>
</a>
</g>
</g>
<!-- Node10&#45;&gt;Node20 -->
<g id="edge25_Node000010_Node000020" class="edge">
<title>Node10&#45;&gt;Node20</title>
<g id="a_edge25_Node000010_Node000020"><a xlink:title=" ">
<path fill="none" stroke="#63b8ff" d="M403.5,-230.87C403.5,-222.75 403.5,-210.31 403.5,-199.89"/>
<polygon fill="#63b8ff" stroke="#63b8ff" points="407,-199.67 403.5,-189.67 400,-199.67 407,-199.67"/>
</a>
</g>
</g>
<!-- Node11&#45;&gt;Node4 -->
<g id="edge13_Node000011_Node000004" class="edge">
<title>Node11&#45;&gt;Node4</title>
<g id="a_edge13_Node000011_Node000004"><a xlink:title=" ">
<path fill="none" stroke="#63b8ff" d="M331.92,-170.44C356.99,-153.98 411.73,-115.84 448.5,-74 460.75,-60.06 471.52,-41.81 478.62,-28.45"/>
<polygon fill="#63b8ff" stroke="#63b8ff" points="481.84,-29.84 483.29,-19.34 475.61,-26.64 481.84,-29.84"/>
</a>
</g>
</g>
<!-- Node12 -->
<g id="Node000012" class="node">
<title>Node12</title>
<g id="a_Node000012"><a xlink:title=" ">
<polygon fill="#e0e0e0" stroke="#999999" points="342.5,-129 294.5,-129 294.5,-110 342.5,-110 342.5,-129"/>
<text text-anchor="middle" x="318.5" y="-117" font-family="Helvetica,sans-Serif" font-size="10.00">iosfwd</text>
</a>
</g>
</g>
<!-- Node11&#45;&gt;Node12 -->
<g id="edge12_Node000011_Node000012" class="edge">
<title>Node11&#45;&gt;Node12</title>
<g id="a_edge12_Node000011_Node000012"><a xlink:title=" ">
<path fill="none" stroke="#63b8ff" d="M318.5,-170.37C318.5,-162.25 318.5,-149.81 318.5,-139.39"/>
<polygon fill="#63b8ff" stroke="#63b8ff" points="322,-139.17 318.5,-129.17 315,-139.17 322,-139.17"/>
</a>
</g>
</g>
<!-- Node13 -->
<g id="Node000013" class="node">
<title>Node13</title>
<g id="a_Node000013"><a xlink:href="magic_8h.html" target="_top" xlink:title="Magic numbers used throughout the codebase.">
<polygon fill="white" stroke="#666666" points="63.5,-129 7.5,-129 7.5,-110 63.5,-110 63.5,-129"/>
<text text-anchor="middle" x="35.5" y="-117" font-family="Helvetica,sans-Serif" font-size="10.00">magic.h</text>
</a>
</g>
</g>
<!-- Node11&#45;&gt;Node13 -->
<g id="edge14_Node000011_Node000013" class="edge">
<title>Node11&#45;&gt;Node13</title>
<g id="a_edge14_Node000011_Node000013"><a xlink:title=" ">
<path fill="none" stroke="#63b8ff" d="M288.75,-172.85C237.05,-162.16 130.7,-140.18 73.65,-128.39"/>
<polygon fill="#63b8ff" stroke="#63b8ff" points="74.09,-124.9 63.59,-126.31 72.68,-131.76 74.09,-124.9"/>
</a>
</g>
</g>
<!-- Node15 -->
<g id="Node000015" class="node">
<title>Node15</title>
<g id="a_Node000015"><a xlink:href="string__container_8h.html" target="_top" xlink:title="Container for C&#45;Strings.">
<polygon fill="white" stroke="#666666" points="232.5,-129 128.5,-129 128.5,-110 232.5,-110 232.5,-129"/>
<text text-anchor="middle" x="180.5" y="-117" font-family="Helvetica,sans-Serif" font-size="10.00">string_container.h</text>
</a>
</g>
</g>
<!-- Node11&#45;&gt;Node15 -->
<g id="edge16_Node000011_Node000015" class="edge">
<title>Node11&#45;&gt;Node15</title>
<g id="a_edge16_Node000011_Node000015"><a xlink:title=" ">
<path fill="none" stroke="#63b8ff" d="M298.43,-170.49C275.13,-160.62 236.49,-144.23 209.82,-132.93"/>
<polygon fill="#63b8ff" stroke="#63b8ff" points="211.16,-129.7 200.59,-129.02 208.43,-136.14 211.16,-129.7"/>
</a>
</g>
</g>
<!-- Node14 -->
<g id="Node000014" class="node">
<title>Node14</title>
<g id="a_Node000014"><a xlink:title=" ">
<polygon fill="#e0e0e0" stroke="#999999" points="53,-19 0,-19 0,0 53,0 53,-19"/>
<text text-anchor="middle" x="26.5" y="-7" font-family="Helvetica,sans-Serif" font-size="10.00">cstddef</text>
</a>
</g>
</g>
<!-- Node13&#45;&gt;Node14 -->
<g id="edge15_Node000013_Node000014" class="edge">
<title>Node13&#45;&gt;Node14</title>
<g id="a_edge15_Node000013_Node000014"><a xlink:title=" ">
<path fill="none" stroke="#63b8ff" d="M27.83,-109.7C20.98,-101.21 11.45,-87.68 7.5,-74 3.02,-58.47 9.18,-40.87 15.64,-28.14"/>
<polygon fill="#63b8ff" stroke="#63b8ff" points="18.87,-29.55 20.7,-19.11 12.76,-26.13 18.87,-29.55"/>
</a>
</g>
</g>
<!-- Node15&#45;&gt;Node5 -->
<g id="edge19_Node000015_Node000005" class="edge">
<title>Node15&#45;&gt;Node5</title>
<g id="a_edge19_Node000015_Node000005"><a xlink:title=" ">
<path fill="none" stroke="#63b8ff" d="M221.43,-109.98C260.41,-101.77 320.98,-88.75 382.8,-74.1"/>
<polygon fill="#63b8ff" stroke="#63b8ff" points="383.82,-77.45 392.73,-71.73 382.19,-70.64 383.82,-77.45"/>
</a>
</g>
</g>
<!-- Node16 -->
<g id="Node000016" class="node">
<title>Node16</title>
<g id="a_Node000016"><a xlink:title=" ">
<polygon fill="#e0e0e0" stroke="#999999" points="274.5,-74 242.5,-74 242.5,-55 274.5,-55 274.5,-74"/>
<text text-anchor="middle" x="258.5" y="-62" font-family="Helvetica,sans-Serif" font-size="10.00">list</text>
</a>
</g>
</g>
<!-- Node15&#45;&gt;Node16 -->
<g id="edge17_Node000015_Node000016" class="edge">
<title>Node15&#45;&gt;Node16</title>
<g id="a_edge17_Node000015_Node000016"><a xlink:title=" ">
<path fill="none" stroke="#63b8ff" d="M193.03,-109.98C204.9,-101.92 222.96,-89.65 237.11,-80.03"/>
<polygon fill="#63b8ff" stroke="#63b8ff" points="239.44,-82.69 245.74,-74.17 235.5,-76.9 239.44,-82.69"/>
</a>
</g>
</g>
<!-- Node17 -->
<g id="Node000017" class="node">
<title>Node17</title>
<g id="a_Node000017"><a xlink:title=" ">
<polygon fill="#e0e0e0" stroke="#999999" points="224,-74 131,-74 131,-55 224,-55 224,-74"/>
<text text-anchor="middle" x="177.5" y="-62" font-family="Helvetica,sans-Serif" font-size="10.00">unordered_map</text>
</a>
</g>
</g>
<!-- Node15&#45;&gt;Node17 -->
<g id="edge18_Node000015_Node000017" class="edge">
<title>Node15&#45;&gt;Node17</title>
<g id="a_edge18_Node000015_Node000017"><a xlink:title=" ">
<path fill="none" stroke="#63b8ff" d="M180,-109.75C179.61,-102.8 179.05,-92.85 178.55,-84.13"/>
<polygon fill="#63b8ff" stroke="#63b8ff" points="182.05,-83.88 177.99,-74.09 175.06,-84.27 182.05,-83.88"/>
</a>
</g>
</g>
<!-- Node18 -->
<g id="Node000018" class="node">
<title>Node18</title>
<g id="a_Node000018"><a xlink:href="memory__units_8h.html" target="_top" xlink:title=" ">
<polygon fill="white" stroke="#666666" points="112.5,-74 16.5,-74 16.5,-55 112.5,-55 112.5,-74"/>
<text text-anchor="middle" x="64.5" y="-62" font-family="Helvetica,sans-Serif" font-size="10.00">memory_units.h</text>
</a>
</g>
</g>
<!-- Node15&#45;&gt;Node18 -->
<g id="edge20_Node000015_Node000018" class="edge">
<title>Node15&#45;&gt;Node18</title>
<g id="a_edge20_Node000015_Node000018"><a xlink:title=" ">
<path fill="none" stroke="#63b8ff" d="M161.86,-109.98C143.2,-101.46 114.25,-88.23 92.76,-78.41"/>
<polygon fill="#63b8ff" stroke="#63b8ff" points="94.03,-75.14 83.48,-74.17 91.12,-81.51 94.03,-75.14"/>
</a>
</g>
</g>
<!-- Node19 -->
<g id="Node000019" class="node">
<title>Node19</title>
<g id="a_Node000019"><a xlink:href="string__hash_8h.html" target="_top" xlink:title="string hashing">
<polygon fill="white" stroke="#666666" points="374.5,-74 292.5,-74 292.5,-55 374.5,-55 374.5,-74"/>
<text text-anchor="middle" x="333.5" y="-62" font-family="Helvetica,sans-Serif" font-size="10.00">string_hash.h</text>
</a>
</g>
</g>
<!-- Node15&#45;&gt;Node19 -->
<g id="edge23_Node000015_Node000019" class="edge">
<title>Node15&#45;&gt;Node19</title>
<g id="a_edge23_Node000015_Node000019"><a xlink:title=" ">
<path fill="none" stroke="#63b8ff" d="M205.08,-109.98C230.55,-101.16 270.54,-87.31 299.13,-77.41"/>
<polygon fill="#63b8ff" stroke="#63b8ff" points="300.42,-80.66 308.73,-74.08 298.13,-74.05 300.42,-80.66"/>
</a>
</g>
</g>
<!-- Node18&#45;&gt;Node4 -->
<g id="edge22_Node000018_Node000004" class="edge">
<title>Node18&#45;&gt;Node4</title>
<g id="a_edge22_Node000018_Node000004"><a xlink:title=" ">
<path fill="none" stroke="#63b8ff" d="M112.69,-56.22C115.67,-55.8 118.62,-55.39 121.5,-55 244.42,-38.36 390.97,-21.42 454.94,-14.16"/>
<polygon fill="#63b8ff" stroke="#63b8ff" points="455.65,-17.6 465.19,-13 454.86,-10.65 455.65,-17.6"/>
</a>
</g>
</g>
<!-- Node18&#45;&gt;Node14 -->
<g id="edge21_Node000018_Node000014" class="edge">
<title>Node18&#45;&gt;Node14</title>
<g id="a_edge21_Node000018_Node000014"><a xlink:title=" ">
<path fill="none" stroke="#63b8ff" d="M58.23,-54.75C52.91,-47.34 45.14,-36.5 38.62,-27.41"/>
<polygon fill="#63b8ff" stroke="#63b8ff" points="41.33,-25.18 32.66,-19.09 35.64,-29.26 41.33,-25.18"/>
</a>
</g>
</g>
<!-- Node19&#45;&gt;Node4 -->
<g id="edge24_Node000019_Node000004" class="edge">
<title>Node19&#45;&gt;Node4</title>
<g id="a_edge24_Node000019_Node000004"><a xlink:title=" ">
<path fill="none" stroke="#63b8ff" d="M358.24,-54.98C384.71,-45.88 426.78,-31.4 455.69,-21.45"/>
<polygon fill="#63b8ff" stroke="#63b8ff" points="457,-24.7 465.32,-18.13 454.72,-18.08 457,-24.7"/>
</a>
</g>
</g>
<!-- Node22 -->
<g id="Node000022" class="node">
<title>Node22</title>
<g id="a_Node000022"><a xlink:title=" ">
<polygon fill="#e0e0e0" stroke="#999999" points="854.5,-189.5 790.5,-189.5 790.5,-170.5 854.5,-170.5 854.5,-189.5"/>
<text text-anchor="middle" x="822.5" y="-177.5" font-family="Helvetica,sans-Serif" font-size="10.00">algorithm</text>
</a>
</g>
</g>
<!-- Node21&#45;&gt;Node22 -->
<g id="edge27_Node000021_Node000022" class="edge">
<title>Node21&#45;&gt;Node22</title>
<g id="a_edge27_Node000021_Node000022"><a xlink:title=" ">
<path fill="none" stroke="#63b8ff" d="M684.06,-230.99C711.77,-220.99 757.97,-204.3 789.31,-192.99"/>
<polygon fill="#63b8ff" stroke="#63b8ff" points="790.7,-196.21 798.92,-189.52 788.32,-189.62 790.7,-196.21"/>
</a>
</g>
</g>
<!-- Node23 -->
<g id="Node000023" class="node">
<title>Node23</title>
<g id="a_Node000023"><a xlink:title=" ">
<polygon fill="#e0e0e0" stroke="#999999" points="608.5,-189.5 534.5,-189.5 534.5,-170.5 608.5,-170.5 608.5,-189.5"/>
<text text-anchor="middle" x="571.5" y="-177.5" font-family="Helvetica,sans-Serif" font-size="10.00">forward_list</text>
</a>
</g>
</g>
<!-- Node21&#45;&gt;Node23 -->
<g id="edge28_Node000021_Node000023" class="edge">
<title>Node21&#45;&gt;Node23</title>
<g id="a_edge28_Node000021_Node000023"><a xlink:title=" ">
<path fill="none" stroke="#63b8ff" d="M647.37,-230.87C633.17,-221.54 610.3,-206.51 593.38,-195.38"/>
<polygon fill="#63b8ff" stroke="#63b8ff" points="594.97,-192.24 584.69,-189.67 591.12,-198.08 594.97,-192.24"/>
</a>
</g>
</g>
<!-- Node24 -->
<g id="Node000024" class="node">
<title>Node24</title>
<g id="a_Node000024"><a xlink:href="as__const_8h.html" target="_top" xlink:title=" ">
<polygon fill="white" stroke="#666666" points="694.5,-189.5 626.5,-189.5 626.5,-170.5 694.5,-170.5 694.5,-189.5"/>
<text text-anchor="middle" x="660.5" y="-177.5" font-family="Helvetica,sans-Serif" font-size="10.00">as_const.h</text>
</a>
</g>
</g>
<!-- Node21&#45;&gt;Node24 -->
<g id="edge29_Node000021_Node000024" class="edge">
<title>Node21&#45;&gt;Node24</title>
<g id="a_edge29_Node000021_Node000024"><a xlink:title=" ">
<path fill="none" stroke="#63b8ff" d="M660.5,-230.87C660.5,-222.75 660.5,-210.31 660.5,-199.89"/>
<polygon fill="#63b8ff" stroke="#63b8ff" points="664,-199.67 660.5,-189.67 657,-199.67 664,-199.67"/>
</a>
</g>
</g>
<!-- Node25 -->
<g id="Node000025" class="node">
<title>Node25</title>
<g id="a_Node000025"><a xlink:href="narrow_8h.html" target="_top" xlink:title=" ">
<polygon fill="white" stroke="#666666" points="772,-189.5 713,-189.5 713,-170.5 772,-170.5 772,-189.5"/>
<text text-anchor="middle" x="742.5" y="-177.5" font-family="Helvetica,sans-Serif" font-size="10.00">narrow.h</text>
</a>
</g>
</g>
<!-- Node21&#45;&gt;Node25 -->
<g id="edge30_Node000021_Node000025" class="edge">
<title>Node21&#45;&gt;Node25</title>
<g id="a_edge30_Node000021_Node000025"><a xlink:title=" ">
<path fill="none" stroke="#63b8ff" d="M672.6,-230.87C685.56,-221.62 706.36,-206.78 721.9,-195.69"/>
<polygon fill="#63b8ff" stroke="#63b8ff" points="724.24,-198.32 730.35,-189.67 720.18,-192.63 724.24,-198.32"/>
</a>
</g>
</g>
<!-- Node25&#45;&gt;Node6 -->
<g id="edge32_Node000025_Node000006" class="edge">
<title>Node25&#45;&gt;Node6</title>
<g id="a_edge32_Node000025_Node000006"><a xlink:title=" ">
<path fill="none" stroke="#63b8ff" d="M765.5,-170.43C770.74,-168.57 776.29,-166.66 781.5,-165 820.43,-152.58 865.32,-140.19 897.45,-131.65"/>
<polygon fill="#63b8ff" stroke="#63b8ff" points="898.63,-134.96 907.41,-129.02 896.84,-128.19 898.63,-134.96"/>
</a>
</g>
</g>
<!-- Node25&#45;&gt;Node9 -->
<g id="edge31_Node000025_Node000009" class="edge">
<title>Node25&#45;&gt;Node9</title>
<g id="a_edge31_Node000025_Node000009"><a xlink:title=" ">
<path fill="none" stroke="#63b8ff" d="M743.85,-170.47C746.75,-152.23 753.59,-109.07 757.54,-84.14"/>
<polygon fill="#63b8ff" stroke="#63b8ff" points="761.02,-84.55 759.13,-74.13 754.11,-83.46 761.02,-84.55"/>
</a>
</g>
</g>
<!-- Node26&#45;&gt;Node3 -->
<g id="edge34_Node000026_Node000003" class="edge">
<title>Node26&#45;&gt;Node3</title>
<g id="a_edge34_Node000026_Node000003"><a xlink:title=" ">
<path fill="none" stroke="#63b8ff" d="M670.85,-395.6C658,-382.64 632.75,-358.26 608.5,-341 591.88,-329.17 571.82,-318.01 555.94,-309.83"/>
<polygon fill="#63b8ff" stroke="#63b8ff" points="557.16,-306.53 546.66,-305.14 554.01,-312.78 557.16,-306.53"/>
</a>
</g>
</g>
<!-- Node27 -->
<g id="Node000027" class="node">
<title>Node27</title>
<g id="a_Node000027"><a xlink:href="response__or__error_8h.html" target="_top" xlink:title=" ">
<polygon fill="white" stroke="#666666" points="1139,-195 996,-195 996,-165 1139,-165 1139,-195"/>
<text text-anchor="start" x="1004" y="-183" font-family="Helvetica,sans-Serif" font-size="10.00">solvers/smt2_incremental</text>
<text text-anchor="middle" x="1067.5" y="-172" font-family="Helvetica,sans-Serif" font-size="10.00">/response_or_error.h</text>
</a>
</g>
</g>
<!-- Node26&#45;&gt;Node27 -->
<g id="edge35_Node000026_Node000027" class="edge">
<title>Node26&#45;&gt;Node27</title>
<g id="a_edge35_Node000026_Node000027"><a xlink:title=" ">
<path fill="none" stroke="#63b8ff" d="M716.15,-396C744.68,-388.6 784.79,-376.48 817.5,-360 907.78,-314.52 1001.3,-238.37 1043.86,-201.82"/>
<polygon fill="#63b8ff" stroke="#63b8ff" points="1046.4,-204.25 1051.68,-195.06 1041.82,-198.95 1046.4,-204.25"/>
</a>
</g>
</g>
<!-- Node29 -->
<g id="Node000029" class="node">
<title>Node29</title>
<g id="a_Node000029"><a xlink:href="smt__index_8h.html" target="_top" xlink:title=" ">
<polygon fill="white" stroke="#666666" points="600,-360 523,-360 523,-341 600,-341 600,-360"/>
<text text-anchor="middle" x="561.5" y="-348" font-family="Helvetica,sans-Serif" font-size="10.00">smt_index.h</text>
</a>
</g>
</g>
<!-- Node26&#45;&gt;Node29 -->
<g id="edge40_Node000026_Node000029" class="edge">
<title>Node26&#45;&gt;Node29</title>
<g id="a_edge40_Node000026_Node000029"><a xlink:title=" ">
<path fill="none" stroke="#63b8ff" d="M660.54,-395.98C641.47,-387.42 611.84,-374.11 589.95,-364.28"/>
<polygon fill="#63b8ff" stroke="#63b8ff" points="591.36,-361.07 580.8,-360.17 588.49,-367.46 591.36,-361.07"/>
</a>
</g>
</g>
<!-- Node30 -->
<g id="Node000030" class="node">
<title>Node30</title>
<g id="a_Node000030"><a xlink:href="smt__sorts_8h.html" target="_top" xlink:title="Data structure for smt sorts.">
<polygon fill="white" stroke="#666666" points="466.5,-360 392.5,-360 392.5,-341 466.5,-341 466.5,-360"/>
<text text-anchor="middle" x="429.5" y="-348" font-family="Helvetica,sans-Serif" font-size="10.00">smt_sorts.h</text>
</a>
</g>
</g>
<!-- Node26&#45;&gt;Node30 -->
<g id="edge42_Node000026_Node000030" class="edge">
<title>Node26&#45;&gt;Node30</title>
<g id="a_edge42_Node000026_Node000030"><a xlink:title=" ">
<path fill="none" stroke="#63b8ff" d="M640.44,-396.22C596.17,-386.83 524.03,-371.54 476.66,-361.5"/>
<polygon fill="#63b8ff" stroke="#63b8ff" points="477.17,-358.03 466.66,-359.38 475.71,-364.88 477.17,-358.03"/>
</a>
</g>
</g>
<!-- Node33 -->
<g id="Node000033" class="node">
<title>Node33</title>
<g id="a_Node000033"><a xlink:title=" ">
<polygon fill="#e0e0e0" stroke="#999999" points="930,-360 865,-360 865,-341 930,-341 930,-360"/>
<text text-anchor="middle" x="897.5" y="-348" font-family="Helvetica,sans-Serif" font-size="10.00">functional</text>
</a>
</g>
</g>
<!-- Node26&#45;&gt;Node33 -->
<g id="edge47_Node000026_Node000033" class="edge">
<title>Node26&#45;&gt;Node33</title>
<g id="a_edge47_Node000026_Node000033"><a xlink:title=" ">
<path fill="none" stroke="#63b8ff" d="M714.53,-395.98C752.69,-386.71 813.78,-371.85 854.74,-361.89"/>
<polygon fill="#63b8ff" stroke="#63b8ff" points="855.81,-365.24 864.7,-359.47 854.16,-358.44 855.81,-365.24"/>
</a>
</g>
</g>
<!-- Node34 -->
<g id="Node000034" class="node">
<title>Node34</title>
<g id="a_Node000034"><a xlink:title=" ">
<polygon fill="#e0e0e0" stroke="#999999" points="702,-360 657,-360 657,-341 702,-341 702,-360"/>
<text text-anchor="middle" x="679.5" y="-348" font-family="Helvetica,sans-Serif" font-size="10.00">utility</text>
</a>
</g>
</g>
<!-- Node26&#45;&gt;Node34 -->
<g id="edge48_Node000026_Node000034" class="edge">
<title>Node26&#45;&gt;Node34</title>
<g id="a_edge48_Node000026_Node000034"><a xlink:title=" ">
<path fill="none" stroke="#63b8ff" d="M679.5,-395.75C679.5,-388.8 679.5,-378.85 679.5,-370.13"/>
<polygon fill="#63b8ff" stroke="#63b8ff" points="683,-370.09 679.5,-360.09 676,-370.09 683,-370.09"/>
</a>
</g>
</g>
<!-- Node35 -->
<g id="Node000035" class="node">
<title>Node35</title>
<g id="a_Node000035"><a xlink:title=" ">
<polygon fill="#e0e0e0" stroke="#999999" points="808.5,-360 720.5,-360 720.5,-341 808.5,-341 808.5,-360"/>
<text text-anchor="middle" x="764.5" y="-348" font-family="Helvetica,sans-Serif" font-size="10.00">smt_terms.def</text>
</a>
</g>
</g>
<!-- Node26&#45;&gt;Node35 -->
<g id="edge49_Node000026_Node000035" class="edge">
<title>Node26&#45;&gt;Node35</title>
<g id="a_edge49_Node000026_Node000035"><a xlink:title=" ">
<path fill="none" stroke="#63b8ff" d="M693.16,-395.98C706.34,-387.77 726.53,-375.18 742.07,-365.49"/>
<polygon fill="#63b8ff" stroke="#63b8ff" points="743.96,-368.43 750.59,-360.17 740.26,-362.49 743.96,-368.43"/>
</a>
</g>
</g>
<!-- Node27&#45;&gt;Node4 -->
<g id="edge37_Node000027_Node000004" class="edge">
<title>Node27&#45;&gt;Node4</title>
<g id="a_edge37_Node000027_Node000004"><a xlink:title=" ">
<path fill="none" stroke="#63b8ff" d="M1068.74,-164.63C1070.15,-138.1 1068.8,-81.71 1035.5,-55 995.24,-22.7 631.81,-13.22 520.05,-11.05"/>
<polygon fill="#63b8ff" stroke="#63b8ff" points="519.81,-7.54 509.74,-10.86 519.68,-14.54 519.81,-7.54"/>
</a>
</g>
</g>
<!-- Node27&#45;&gt;Node5 -->
<g id="edge39_Node000027_Node000005" class="edge">
<title>Node27&#45;&gt;Node5</title>
<g id="a_edge39_Node000027_Node000005"><a xlink:title=" ">
<path fill="none" stroke="#63b8ff" d="M995.97,-166.53C856.24,-142.17 551.83,-89.09 450.25,-71.39"/>
<polygon fill="#63b8ff" stroke="#63b8ff" points="450.7,-67.91 440.25,-69.64 449.5,-74.81 450.7,-67.91"/>
</a>
</g>
</g>
<!-- Node27&#45;&gt;Node6 -->
<g id="edge36_Node000027_Node000006" class="edge">
<title>Node27&#45;&gt;Node6</title>
<g id="a_edge36_Node000027_Node000006"><a xlink:title=" ">
<path fill="none" stroke="#63b8ff" d="M1037.08,-164.99C1016.27,-155.4 988.88,-142.79 968.59,-133.44"/>
<polygon fill="#63b8ff" stroke="#63b8ff" points="969.8,-130.14 959.26,-129.14 966.87,-136.5 969.8,-130.14"/>
</a>
</g>
</g>
<!-- Node28 -->
<g id="Node000028" class="node">
<title>Node28</title>
<g id="a_Node000028"><a xlink:title=" ">
<polygon fill="#e0e0e0" stroke="#999999" points="1044,-129 993,-129 993,-110 1044,-110 1044,-129"/>
<text text-anchor="middle" x="1018.5" y="-117" font-family="Helvetica,sans-Serif" font-size="10.00">variant</text>
</a>
</g>
</g>
<!-- Node27&#45;&gt;Node28 -->
<g id="edge38_Node000027_Node000028" class="edge">
<title>Node27&#45;&gt;Node28</title>
<g id="a_edge38_Node000027_Node000028"><a xlink:title=" ">
<path fill="none" stroke="#63b8ff" d="M1055.64,-164.84C1048.6,-156.43 1039.64,-145.74 1032.29,-136.96"/>
<polygon fill="#63b8ff" stroke="#63b8ff" points="1034.95,-134.68 1025.84,-129.27 1029.58,-139.18 1034.95,-134.68"/>
</a>
</g>
</g>
<!-- Node29&#45;&gt;Node3 -->
<g id="edge41_Node000029_Node000003" class="edge">
<title>Node29&#45;&gt;Node3</title>
<g id="a_edge41_Node000029_Node000003"><a xlink:title=" ">
<path fill="none" stroke="#63b8ff" d="M556.05,-340.75C551.49,-333.42 544.83,-322.73 539.21,-313.7"/>
<polygon fill="#63b8ff" stroke="#63b8ff" points="542.1,-311.73 533.85,-305.09 536.16,-315.43 542.1,-311.73"/>
</a>
</g>
</g>
<!-- Node30&#45;&gt;Node3 -->
<g id="edge43_Node000030_Node000003" class="edge">
<title>Node30&#45;&gt;Node3</title>
<g id="a_edge43_Node000030_Node000003"><a xlink:title=" ">
<path fill="none" stroke="#63b8ff" d="M445.41,-340.98C461.05,-332.61 485.16,-319.7 503.38,-309.95"/>
<polygon fill="#63b8ff" stroke="#63b8ff" points="505.14,-312.98 512.3,-305.17 501.84,-306.8 505.14,-312.98"/>
</a>
</g>
</g>
<!-- Node30&#45;&gt;Node9 -->
<g id="edge45_Node000030_Node000009" class="edge">
<title>Node30&#45;&gt;Node9</title>
<g id="a_edge45_Node000030_Node000009"><a xlink:title=" ">
<path fill="none" stroke="#63b8ff" d="M433.57,-340.86C449.95,-306.2 510.85,-178.54 525.5,-165 580.27,-114.41 664.58,-87.34 715.92,-74.72"/>
<polygon fill="#63b8ff" stroke="#63b8ff" points="716.82,-78.11 725.74,-72.39 715.2,-71.3 716.82,-78.11"/>
</a>
</g>
</g>
<!-- Node31 -->
<g id="Node000031" class="node">
<title>Node31</title>
<g id="a_Node000031"><a xlink:title=" ">
<polygon fill="#e0e0e0" stroke="#999999" points="440.5,-305 384.5,-305 384.5,-286 440.5,-286 440.5,-305"/>
<text text-anchor="middle" x="412.5" y="-293" font-family="Helvetica,sans-Serif" font-size="10.00">optional</text>
</a>
</g>
</g>
<!-- Node30&#45;&gt;Node31 -->
<g id="edge44_Node000030_Node000031" class="edge">
<title>Node30&#45;&gt;Node31</title>
<g id="a_edge44_Node000030_Node000031"><a xlink:title=" ">
<path fill="none" stroke="#63b8ff" d="M426.69,-340.75C424.44,-333.72 421.2,-323.62 418.38,-314.84"/>
<polygon fill="#63b8ff" stroke="#63b8ff" points="421.64,-313.54 415.25,-305.09 414.98,-315.68 421.64,-313.54"/>
</a>
</g>
</g>
<!-- Node32 -->
<g id="Node000032" class="node">
<title>Node32</title>
<g id="a_Node000032"><a xlink:title=" ">
<polygon fill="#e0e0e0" stroke="#999999" points="366,-305 283,-305 283,-286 366,-286 366,-305"/>
<text text-anchor="middle" x="324.5" y="-293" font-family="Helvetica,sans-Serif" font-size="10.00">smt_sorts.def</text>
</a>
</g>
</g>
<!-- Node30&#45;&gt;Node32 -->
<g id="edge46_Node000030_Node000032" class="edge">
<title>Node30&#45;&gt;Node32</title>
<g id="a_edge46_Node000030_Node000032"><a xlink:title=" ">
<path fill="none" stroke="#63b8ff" d="M412.63,-340.98C395.89,-332.54 370,-319.47 350.61,-309.68"/>
<polygon fill="#63b8ff" stroke="#63b8ff" points="352.18,-306.55 341.68,-305.17 349.03,-312.8 352.18,-306.55"/>
</a>
</g>
</g>
<!-- Node36&#45;&gt;Node6 -->
<g id="edge51_Node000036_Node000006" class="edge">
<title>Node36&#45;&gt;Node6</title>
<g id="a_edge51_Node000036_Node000006"><a xlink:title=" ">
<path fill="none" stroke="#63b8ff" d="M962.1,-395.82C965.56,-386.99 970.53,-372.81 972.5,-360 973.78,-351.65 973.11,-349.42 972.5,-341 967.07,-265.83 951.37,-177.35 944.18,-139.37"/>
<polygon fill="#63b8ff" stroke="#63b8ff" points="947.56,-138.43 942.24,-129.27 940.69,-139.75 947.56,-138.43"/>
</a>
</g>
</g>
<!-- Node36&#45;&gt;Node9 -->
<g id="edge54_Node000036_Node000009" class="edge">
<title>Node36&#45;&gt;Node9</title>
<g id="a_edge54_Node000036_Node000009"><a xlink:title=" ">
<path fill="none" stroke="#63b8ff" d="M956.6,-395.99C949.08,-363.6 919.04,-245.7 863.5,-165 839.75,-130.49 802.65,-98.31 780.06,-80.34"/>
<polygon fill="#63b8ff" stroke="#63b8ff" points="782.2,-77.57 772.17,-74.17 777.89,-83.09 782.2,-77.57"/>
</a>
</g>
</g>
<!-- Node36&#45;&gt;Node33 -->
<g id="edge52_Node000036_Node000033" class="edge">
<title>Node36&#45;&gt;Node33</title>
<g id="a_edge52_Node000036_Node000033"><a xlink:title=" ">
<path fill="none" stroke="#63b8ff" d="M948.7,-395.98C939.68,-388.15 926.09,-376.34 915.18,-366.86"/>
<polygon fill="#63b8ff" stroke="#63b8ff" points="917.32,-364.09 907.48,-360.17 912.73,-369.37 917.32,-364.09"/>
</a>
</g>
</g>
<!-- Node37 -->
<g id="Node000037" class="node">
<title>Node37</title>
<g id="a_Node000037"><a xlink:title=" ">
<polygon fill="#e0e0e0" stroke="#999999" points="1082.5,-360 1024.5,-360 1024.5,-341 1082.5,-341 1082.5,-360"/>
<text text-anchor="middle" x="1053.5" y="-348" font-family="Helvetica,sans-Serif" font-size="10.00">memory</text>
</a>
</g>
</g>
<!-- Node36&#45;&gt;Node37 -->
<g id="edge53_Node000036_Node000037" class="edge">
<title>Node36&#45;&gt;Node37</title>
<g id="a_edge53_Node000036_Node000037"><a xlink:title=" ">
<path fill="none" stroke="#63b8ff" d="M973.76,-395.98C988.63,-387.69 1011.48,-374.94 1028.92,-365.22"/>
<polygon fill="#63b8ff" stroke="#63b8ff" points="1030.93,-368.1 1037.96,-360.17 1027.52,-361.99 1030.93,-368.1"/>
</a>
</g>
</g>
</g>
</svg>
