<?xml version="1.0" encoding="UTF-8" standalone="no"?>
<!DOCTYPE svg PUBLIC "-//W3C//DTD SVG 1.1//EN"
 "http://www.w3.org/Graphics/SVG/1.1/DTD/svg11.dtd">
<!-- Generated by graphviz version 2.43.0 (0)
 -->
<!-- Title: /home/runner/work/cbmc/cbmc/src/statement&#45;list/statement_list_parse_tree.cpp Pages: 1 -->
<svg width="766pt" height="500pt"
 viewBox="0.00 0.00 765.54 500.00" xmlns="http://www.w3.org/2000/svg" xmlns:xlink="http://www.w3.org/1999/xlink">
<g id="graph0" class="graph" transform="scale(1 1) rotate(0) translate(4 496)">
<title>/home/runner/work/cbmc/cbmc/src/statement&#45;list/statement_list_parse_tree.cpp</title>
<!-- Node1 -->
<g id="Node000001" class="node">
<title>Node1</title>
<g id="a_Node000001"><a xlink:title="Statement List Language Parse Tree.">
<polygon fill="#999999" stroke="#666666" points="677.5,-492 510.5,-492 510.5,-451 677.5,-451 677.5,-492"/>
<text text-anchor="start" x="518.5" y="-480" font-family="Helvetica,sans-Serif" font-size="10.00">/home/runner/work/cbmc</text>
<text text-anchor="start" x="518.5" y="-469" font-family="Helvetica,sans-Serif" font-size="10.00">/cbmc/src/statement&#45;list</text>
<text text-anchor="middle" x="594" y="-458" font-family="Helvetica,sans-Serif" font-size="10.00">/statement_list_parse_tree.cpp</text>
</a>
</g>
</g>
<!-- Node2 -->
<g id="Node000002" class="node">
<title>Node2</title>
<g id="a_Node000002"><a xlink:href="statement__list__parse__tree_8h.html" target="_top" xlink:title="Statement List Language Parse Tree.">
<polygon fill="white" stroke="#666666" points="653.5,-415 534.5,-415 534.5,-385 653.5,-385 653.5,-415"/>
<text text-anchor="start" x="542.5" y="-403" font-family="Helvetica,sans-Serif" font-size="10.00">statement_list_parse</text>
<text text-anchor="middle" x="594" y="-392" font-family="Helvetica,sans-Serif" font-size="10.00">_tree.h</text>
</a>
</g>
</g>
<!-- Node1&#45;&gt;Node2 -->
<g id="edge1_Node000001_Node000002" class="edge">
<title>Node1&#45;&gt;Node2</title>
<g id="a_edge1_Node000001_Node000002"><a xlink:title=" ">
<path fill="none" stroke="#63b8ff" d="M594,-450.77C594,-442.85 594,-433.63 594,-425.3"/>
<polygon fill="#63b8ff" stroke="#63b8ff" points="597.5,-425.04 594,-415.04 590.5,-425.04 597.5,-425.04"/>
</a>
</g>
</g>
<!-- Node3 -->
<g id="Node000003" class="node">
<title>Node3</title>
<g id="a_Node000003"><a xlink:href="std__code__base_8h.html" target="_top" xlink:title=" ">
<polygon fill="white" stroke="#666666" points="533,-349 417,-349 417,-330 533,-330 533,-349"/>
<text text-anchor="middle" x="475" y="-337" font-family="Helvetica,sans-Serif" font-size="10.00">util/std_code_base.h</text>
</a>
</g>
</g>
<!-- Node2&#45;&gt;Node3 -->
<g id="edge2_Node000002_Node000003" class="edge">
<title>Node2&#45;&gt;Node3</title>
<g id="a_edge2_Node000002_Node000003"><a xlink:title=" ">
<path fill="none" stroke="#63b8ff" d="M565.5,-384.99C546.09,-375.45 520.57,-362.9 501.58,-353.57"/>
<polygon fill="#63b8ff" stroke="#63b8ff" points="503.09,-350.41 492.57,-349.14 500,-356.69 503.09,-350.41"/>
</a>
</g>
</g>
<!-- Node43 -->
<g id="Node000043" class="node">
<title>Node43</title>
<g id="a_Node000043"><a xlink:href="std__expr_8h.html" target="_top" xlink:title="API to expression classes.">
<polygon fill="white" stroke="#666666" points="637,-349 551,-349 551,-330 637,-330 637,-349"/>
<text text-anchor="middle" x="594" y="-337" font-family="Helvetica,sans-Serif" font-size="10.00">util/std_expr.h</text>
</a>
</g>
</g>
<!-- Node2&#45;&gt;Node43 -->
<g id="edge38_Node000002_Node000043" class="edge">
<title>Node2&#45;&gt;Node43</title>
<g id="a_edge38_Node000002_Node000043"><a xlink:title=" ">
<path fill="none" stroke="#63b8ff" d="M594,-384.84C594,-377.21 594,-367.7 594,-359.45"/>
<polygon fill="#63b8ff" stroke="#63b8ff" points="597.5,-359.27 594,-349.27 590.5,-359.27 597.5,-359.27"/>
</a>
</g>
</g>
<!-- Node25 -->
<g id="Node000025" class="node">
<title>Node25</title>
<g id="a_Node000025"><a xlink:title=" ">
<polygon fill="#e0e0e0" stroke="#999999" points="687,-349 655,-349 655,-330 687,-330 687,-349"/>
<text text-anchor="middle" x="671" y="-337" font-family="Helvetica,sans-Serif" font-size="10.00">list</text>
</a>
</g>
</g>
<!-- Node2&#45;&gt;Node25 -->
<g id="edge42_Node000002_Node000025" class="edge">
<title>Node2&#45;&gt;Node25</title>
<g id="a_edge42_Node000002_Node000025"><a xlink:title=" ">
<path fill="none" stroke="#63b8ff" d="M612.64,-384.84C624.39,-375.91 639.53,-364.41 651.45,-355.35"/>
<polygon fill="#63b8ff" stroke="#63b8ff" points="653.62,-358.1 659.46,-349.27 649.38,-352.53 653.62,-358.1"/>
</a>
</g>
</g>
<!-- Node4 -->
<g id="Node000004" class="node">
<title>Node4</title>
<g id="a_Node000004"><a xlink:href="expr__cast_8h.html" target="_top" xlink:title="Templated functions to cast to specific exprt&#45;derived classes.">
<polygon fill="white" stroke="#666666" points="519.5,-239 446.5,-239 446.5,-220 519.5,-220 519.5,-239"/>
<text text-anchor="middle" x="483" y="-227" font-family="Helvetica,sans-Serif" font-size="10.00">expr_cast.h</text>
</a>
</g>
</g>
<!-- Node3&#45;&gt;Node4 -->
<g id="edge3_Node000003_Node000004" class="edge">
<title>Node3&#45;&gt;Node4</title>
<g id="a_edge3_Node000003_Node000004"><a xlink:title=" ">
<path fill="none" stroke="#63b8ff" d="M475.65,-329.66C476.95,-312.17 479.87,-272.8 481.61,-249.27"/>
<polygon fill="#63b8ff" stroke="#63b8ff" points="485.11,-249.39 482.36,-239.16 478.13,-248.87 485.11,-249.39"/>
</a>
</g>
</g>
<!-- Node8 -->
<g id="Node000008" class="node">
<title>Node8</title>
<g id="a_Node000008"><a xlink:href="src_2util_2invariant_8h.html" target="_top" xlink:title=" ">
<polygon fill="white" stroke="#666666" points="661.5,-184 592.5,-184 592.5,-165 661.5,-165 661.5,-184"/>
<text text-anchor="middle" x="627" y="-172" font-family="Helvetica,sans-Serif" font-size="10.00">invariant.h</text>
</a>
</g>
</g>
<!-- Node3&#45;&gt;Node8 -->
<g id="edge26_Node000003_Node000008" class="edge">
<title>Node3&#45;&gt;Node8</title>
<g id="a_edge26_Node000003_Node000008"><a xlink:title=" ">
<path fill="none" stroke="#63b8ff" d="M483.17,-329.74C507.5,-303.65 579.75,-226.17 611.61,-192"/>
<polygon fill="#63b8ff" stroke="#63b8ff" points="614.53,-194.01 618.79,-184.31 609.41,-189.23 614.53,-194.01"/>
</a>
</g>
</g>
<!-- Node35 -->
<g id="Node000035" class="node">
<title>Node35</title>
<g id="a_Node000035"><a xlink:href="validate_8h.html" target="_top" xlink:title=" ">
<polygon fill="#fff0f0" stroke="red" points="112.5,-74 47.5,-74 47.5,-55 112.5,-55 112.5,-74"/>
<text text-anchor="middle" x="80" y="-62" font-family="Helvetica,sans-Serif" font-size="10.00">validate.h</text>
</a>
</g>
</g>
<!-- Node3&#45;&gt;Node35 -->
<g id="edge37_Node000003_Node000035" class="edge">
<title>Node3&#45;&gt;Node35</title>
<g id="a_edge37_Node000003_Node000035"><a xlink:title=" ">
<path fill="none" stroke="#63b8ff" d="M416.76,-337.4C289.92,-333.42 0,-315.07 0,-230.5 0,-230.5 0,-230.5 0,-173.5 0,-133.81 35.32,-99.18 59.03,-80.41"/>
<polygon fill="#63b8ff" stroke="#63b8ff" points="61.31,-83.07 67.15,-74.23 57.07,-77.5 61.31,-83.07"/>
</a>
</g>
</g>
<!-- Node40 -->
<g id="Node000040" class="node">
<title>Node40</title>
<g id="a_Node000040"><a xlink:href="std__types_8h.html" target="_top" xlink:title="Pre&#45;defined types.">
<polygon fill="white" stroke="#666666" points="454.5,-294 381.5,-294 381.5,-275 454.5,-275 454.5,-294"/>
<text text-anchor="middle" x="418" y="-282" font-family="Helvetica,sans-Serif" font-size="10.00">std_types.h</text>
</a>
</g>
</g>
<!-- Node3&#45;&gt;Node40 -->
<g id="edge27_Node000003_Node000040" class="edge">
<title>Node3&#45;&gt;Node40</title>
<g id="a_edge27_Node000003_Node000040"><a xlink:title=" ">
<path fill="none" stroke="#63b8ff" d="M465.84,-329.98C457.5,-322.23 444.97,-310.58 434.82,-301.14"/>
<polygon fill="#63b8ff" stroke="#63b8ff" points="437.03,-298.42 427.32,-294.17 432.26,-303.54 437.03,-298.42"/>
</a>
</g>
</g>
<!-- Node5 -->
<g id="Node000005" class="node">
<title>Node5</title>
<g id="a_Node000005"><a xlink:title=" ">
<polygon fill="#e0e0e0" stroke="#999999" points="525.5,-184 468.5,-184 468.5,-165 525.5,-165 525.5,-184"/>
<text text-anchor="middle" x="497" y="-172" font-family="Helvetica,sans-Serif" font-size="10.00">typeinfo</text>
</a>
</g>
</g>
<!-- Node4&#45;&gt;Node5 -->
<g id="edge4_Node000004_Node000005" class="edge">
<title>Node4&#45;&gt;Node5</title>
<g id="a_edge4_Node000004_Node000005"><a xlink:title=" ">
<path fill="none" stroke="#63b8ff" d="M485.31,-219.75C487.17,-212.72 489.84,-202.62 492.15,-193.84"/>
<polygon fill="#63b8ff" stroke="#63b8ff" points="495.56,-194.65 494.73,-184.09 488.79,-192.86 495.56,-194.65"/>
</a>
</g>
</g>
<!-- Node6 -->
<g id="Node000006" class="node">
<title>Node6</title>
<g id="a_Node000006"><a xlink:title=" ">
<polygon fill="#e0e0e0" stroke="#999999" points="597.5,-19 528.5,-19 528.5,0 597.5,0 597.5,-19"/>
<text text-anchor="middle" x="563" y="-7" font-family="Helvetica,sans-Serif" font-size="10.00">type_traits</text>
</a>
</g>
</g>
<!-- Node4&#45;&gt;Node6 -->
<g id="edge5_Node000004_Node000006" class="edge">
<title>Node4&#45;&gt;Node6</title>
<g id="a_edge5_Node000004_Node000006"><a xlink:title=" ">
<path fill="none" stroke="#63b8ff" d="M497.57,-219.84C509.37,-212.02 525.4,-199.39 534,-184 562.25,-133.44 564.56,-62.58 563.86,-29.24"/>
<polygon fill="#63b8ff" stroke="#63b8ff" points="567.35,-28.98 563.52,-19.11 560.36,-29.22 567.35,-28.98"/>
</a>
</g>
</g>
<!-- Node7 -->
<g id="Node000007" class="node">
<title>Node7</title>
<g id="a_Node000007"><a xlink:title=" ">
<polygon fill="#e0e0e0" stroke="#999999" points="469.5,-129 404.5,-129 404.5,-110 469.5,-110 469.5,-129"/>
<text text-anchor="middle" x="437" y="-117" font-family="Helvetica,sans-Serif" font-size="10.00">functional</text>
</a>
</g>
</g>
<!-- Node4&#45;&gt;Node7 -->
<g id="edge6_Node000004_Node000007" class="edge">
<title>Node4&#45;&gt;Node7</title>
<g id="a_edge6_Node000004_Node000007"><a xlink:title=" ">
<path fill="none" stroke="#63b8ff" d="M477.79,-219.84C472.61,-211.03 464.65,-196.86 459,-184 452.54,-169.29 446.66,-152.04 442.61,-139.23"/>
<polygon fill="#63b8ff" stroke="#63b8ff" points="445.84,-137.83 439.56,-129.3 439.15,-139.88 445.84,-137.83"/>
</a>
</g>
</g>
<!-- Node4&#45;&gt;Node8 -->
<g id="edge7_Node000004_Node000008" class="edge">
<title>Node4&#45;&gt;Node8</title>
<g id="a_edge7_Node000004_Node000008"><a xlink:title=" ">
<path fill="none" stroke="#63b8ff" d="M506.14,-219.98C529.82,-211.27 566.87,-197.63 593.71,-187.75"/>
<polygon fill="#63b8ff" stroke="#63b8ff" points="595.27,-190.91 603.44,-184.17 592.85,-184.34 595.27,-190.91"/>
</a>
</g>
</g>
<!-- Node12 -->
<g id="Node000012" class="node">
<title>Node12</title>
<g id="a_Node000012"><a xlink:href="expr_8h.html" target="_top" xlink:title=" ">
<polygon fill="white" stroke="#666666" points="362.5,-184 315.5,-184 315.5,-165 362.5,-165 362.5,-184"/>
<text text-anchor="middle" x="339" y="-172" font-family="Helvetica,sans-Serif" font-size="10.00">expr.h</text>
</a>
</g>
</g>
<!-- Node4&#45;&gt;Node12 -->
<g id="edge12_Node000004_Node000012" class="edge">
<title>Node4&#45;&gt;Node12</title>
<g id="a_edge12_Node000004_Node000012"><a xlink:title=" ">
<path fill="none" stroke="#63b8ff" d="M459.86,-219.98C436.18,-211.27 399.13,-197.63 372.29,-187.75"/>
<polygon fill="#63b8ff" stroke="#63b8ff" points="373.15,-184.34 362.56,-184.17 370.73,-190.91 373.15,-184.34"/>
</a>
</g>
</g>
<!-- Node8&#45;&gt;Node6 -->
<g id="edge11_Node000008_Node000006" class="edge">
<title>Node8&#45;&gt;Node6</title>
<g id="a_edge11_Node000008_Node000006"><a xlink:title=" ">
<path fill="none" stroke="#63b8ff" d="M661.63,-169.74C706.23,-163.34 775.51,-147.2 753,-110 721.55,-58.02 653.01,-31.88 607.43,-19.76"/>
<polygon fill="#63b8ff" stroke="#63b8ff" points="608.06,-16.31 597.51,-17.24 606.34,-23.09 608.06,-16.31"/>
</a>
</g>
</g>
<!-- Node9 -->
<g id="Node000009" class="node">
<title>Node9</title>
<g id="a_Node000009"><a xlink:title=" ">
<polygon fill="#e0e0e0" stroke="#999999" points="669.5,-129 620.5,-129 620.5,-110 669.5,-110 669.5,-129"/>
<text text-anchor="middle" x="645" y="-117" font-family="Helvetica,sans-Serif" font-size="10.00">cstdlib</text>
</a>
</g>
</g>
<!-- Node8&#45;&gt;Node9 -->
<g id="edge8_Node000008_Node000009" class="edge">
<title>Node8&#45;&gt;Node9</title>
<g id="a_edge8_Node000008_Node000009"><a xlink:title=" ">
<path fill="none" stroke="#63b8ff" d="M629.97,-164.75C632.36,-157.72 635.79,-147.62 638.77,-138.84"/>
<polygon fill="#63b8ff" stroke="#63b8ff" points="642.18,-139.68 642.08,-129.09 635.55,-137.43 642.18,-139.68"/>
</a>
</g>
</g>
<!-- Node10 -->
<g id="Node000010" class="node">
<title>Node10</title>
<g id="a_Node000010"><a xlink:title=" ">
<polygon fill="#e0e0e0" stroke="#999999" points="744,-129 688,-129 688,-110 744,-110 744,-129"/>
<text text-anchor="middle" x="716" y="-117" font-family="Helvetica,sans-Serif" font-size="10.00">sstream</text>
</a>
</g>
</g>
<!-- Node8&#45;&gt;Node10 -->
<g id="edge9_Node000008_Node000010" class="edge">
<title>Node8&#45;&gt;Node10</title>
<g id="a_edge9_Node000008_Node000010"><a xlink:title=" ">
<path fill="none" stroke="#63b8ff" d="M641.3,-164.98C655.1,-156.77 676.24,-144.18 692.51,-134.49"/>
<polygon fill="#63b8ff" stroke="#63b8ff" points="694.64,-137.29 701.44,-129.17 691.06,-131.28 694.64,-137.29"/>
</a>
</g>
</g>
<!-- Node11 -->
<g id="Node000011" class="node">
<title>Node11</title>
<g id="a_Node000011"><a xlink:title=" ">
<polygon fill="#e0e0e0" stroke="#999999" points="510,-19 466,-19 466,0 510,0 510,-19"/>
<text text-anchor="middle" x="488" y="-7" font-family="Helvetica,sans-Serif" font-size="10.00">string</text>
</a>
</g>
</g>
<!-- Node8&#45;&gt;Node11 -->
<g id="edge10_Node000008_Node000011" class="edge">
<title>Node8&#45;&gt;Node11</title>
<g id="a_edge10_Node000008_Node000011"><a xlink:title=" ">
<path fill="none" stroke="#63b8ff" d="M619.53,-164.74C597.28,-138.65 531.21,-61.17 502.07,-27"/>
<polygon fill="#63b8ff" stroke="#63b8ff" points="504.66,-24.64 495.51,-19.31 499.34,-29.19 504.66,-24.64"/>
</a>
</g>
</g>
<!-- Node12&#45;&gt;Node7 -->
<g id="edge25_Node000012_Node000007" class="edge">
<title>Node12&#45;&gt;Node7</title>
<g id="a_edge25_Node000012_Node000007"><a xlink:title=" ">
<path fill="none" stroke="#63b8ff" d="M354.75,-164.98C370.23,-156.61 394.09,-143.7 412.14,-133.95"/>
<polygon fill="#63b8ff" stroke="#63b8ff" points="413.84,-137.01 420.97,-129.17 410.51,-130.85 413.84,-137.01"/>
</a>
</g>
</g>
<!-- Node13 -->
<g id="Node000013" class="node">
<title>Node13</title>
<g id="a_Node000013"><a xlink:href="as__const_8h.html" target="_top" xlink:title=" ">
<polygon fill="white" stroke="#666666" points="282,-129 214,-129 214,-110 282,-110 282,-129"/>
<text text-anchor="middle" x="248" y="-117" font-family="Helvetica,sans-Serif" font-size="10.00">as_const.h</text>
</a>
</g>
</g>
<!-- Node12&#45;&gt;Node13 -->
<g id="edge13_Node000012_Node000013" class="edge">
<title>Node12&#45;&gt;Node13</title>
<g id="a_edge13_Node000012_Node000013"><a xlink:title=" ">
<path fill="none" stroke="#63b8ff" d="M324.38,-164.98C310.14,-156.69 288.25,-143.94 271.55,-134.22"/>
<polygon fill="#63b8ff" stroke="#63b8ff" points="273.29,-131.18 262.89,-129.17 269.77,-137.23 273.29,-131.18"/>
</a>
</g>
</g>
<!-- Node14 -->
<g id="Node000014" class="node">
<title>Node14</title>
<g id="a_Node000014"><a xlink:href="type_8h.html" target="_top" xlink:title="Defines typet, type_with_subtypet and type_with_subtypest.">
<polygon fill="white" stroke="#666666" points="347.5,-129 300.5,-129 300.5,-110 347.5,-110 347.5,-129"/>
<text text-anchor="middle" x="324" y="-117" font-family="Helvetica,sans-Serif" font-size="10.00">type.h</text>
</a>
</g>
</g>
<!-- Node12&#45;&gt;Node14 -->
<g id="edge14_Node000012_Node000014" class="edge">
<title>Node12&#45;&gt;Node14</title>
<g id="a_edge14_Node000012_Node000014"><a xlink:title=" ">
<path fill="none" stroke="#63b8ff" d="M336.52,-164.75C334.54,-157.72 331.68,-147.62 329.19,-138.84"/>
<polygon fill="#63b8ff" stroke="#63b8ff" points="332.52,-137.76 326.43,-129.09 325.79,-139.66 332.52,-137.76"/>
</a>
</g>
</g>
<!-- Node37 -->
<g id="Node000037" class="node">
<title>Node37</title>
<g id="a_Node000037"><a xlink:href="validation__mode_8h.html" target="_top" xlink:title=" ">
<polygon fill="white" stroke="#666666" points="133.5,-19 26.5,-19 26.5,0 133.5,0 133.5,-19"/>
<text text-anchor="middle" x="80" y="-7" font-family="Helvetica,sans-Serif" font-size="10.00">validation_mode.h</text>
</a>
</g>
</g>
<!-- Node12&#45;&gt;Node37 -->
<g id="edge24_Node000012_Node000037" class="edge">
<title>Node12&#45;&gt;Node37</title>
<g id="a_edge24_Node000012_Node000037"><a xlink:title=" ">
<path fill="none" stroke="#63b8ff" d="M315.13,-168.03C310.14,-166.96 304.91,-165.9 300,-165 246.3,-155.18 99.01,-163.86 57,-129 30.87,-107.32 25.46,-86.56 38,-55 42.52,-43.63 51.47,-33.48 59.96,-25.76"/>
<polygon fill="#63b8ff" stroke="#63b8ff" points="62.41,-28.27 67.79,-19.14 57.89,-22.92 62.41,-28.27"/>
</a>
</g>
</g>
<!-- Node38 -->
<g id="Node000038" class="node">
<title>Node38</title>
<g id="a_Node000038"><a xlink:href="validate__types_8h.html" target="_top" xlink:title=" ">
<polygon fill="white" stroke="#666666" points="447,-74 349,-74 349,-55 447,-55 447,-74"/>
<text text-anchor="middle" x="398" y="-62" font-family="Helvetica,sans-Serif" font-size="10.00">validate_types.h</text>
</a>
</g>
</g>
<!-- Node12&#45;&gt;Node38 -->
<g id="edge23_Node000012_Node000038" class="edge">
<title>Node12&#45;&gt;Node38</title>
<g id="a_edge23_Node000012_Node000038"><a xlink:title=" ">
<path fill="none" stroke="#63b8ff" d="M343.83,-164.66C353.56,-146.85 375.68,-106.37 388.44,-83.01"/>
<polygon fill="#63b8ff" stroke="#63b8ff" points="391.55,-84.61 393.27,-74.16 385.4,-81.26 391.55,-84.61"/>
</a>
</g>
</g>
<!-- Node39 -->
<g id="Node000039" class="node">
<title>Node39</title>
<g id="a_Node000039"><a xlink:href="validate__expressions_8h.html" target="_top" xlink:title=" ">
<polygon fill="white" stroke="#666666" points="195.5,-129 66.5,-129 66.5,-110 195.5,-110 195.5,-129"/>
<text text-anchor="middle" x="131" y="-117" font-family="Helvetica,sans-Serif" font-size="10.00">validate_expressions.h</text>
</a>
</g>
</g>
<!-- Node12&#45;&gt;Node39 -->
<g id="edge22_Node000012_Node000039" class="edge">
<title>Node12&#45;&gt;Node39</title>
<g id="a_edge22_Node000012_Node000039"><a xlink:title=" ">
<path fill="none" stroke="#63b8ff" d="M315.14,-167.42C280.86,-158.69 217.11,-142.44 174.36,-131.55"/>
<polygon fill="#63b8ff" stroke="#63b8ff" points="175.06,-128.12 164.51,-129.04 173.34,-134.9 175.06,-128.12"/>
</a>
</g>
</g>
<!-- Node15 -->
<g id="Node000015" class="node">
<title>Node15</title>
<g id="a_Node000015"><a xlink:href="source__location_8h.html" target="_top" xlink:title=" ">
<polygon fill="#fff0f0" stroke="red" points="331,-74 229,-74 229,-55 331,-55 331,-74"/>
<text text-anchor="middle" x="280" y="-62" font-family="Helvetica,sans-Serif" font-size="10.00">source_location.h</text>
</a>
</g>
</g>
<!-- Node14&#45;&gt;Node15 -->
<g id="edge15_Node000014_Node000015" class="edge">
<title>Node14&#45;&gt;Node15</title>
<g id="a_edge15_Node000014_Node000015"><a xlink:title=" ">
<path fill="none" stroke="#63b8ff" d="M316.73,-109.75C310.46,-102.18 301.21,-91.05 293.57,-81.84"/>
<polygon fill="#63b8ff" stroke="#63b8ff" points="296.21,-79.55 287.13,-74.09 290.83,-84.02 296.21,-79.55"/>
</a>
</g>
</g>
<!-- Node14&#45;&gt;Node35 -->
<g id="edge17_Node000014_Node000035" class="edge">
<title>Node14&#45;&gt;Node35</title>
<g id="a_edge17_Node000014_Node000035"><a xlink:title=" ">
<path fill="none" stroke="#63b8ff" d="M300.24,-112.25C297.14,-111.47 294,-110.7 291,-110 232.91,-96.4 165.38,-82.49 122.67,-73.92"/>
<polygon fill="#63b8ff" stroke="#63b8ff" points="123.12,-70.44 112.63,-71.92 121.75,-77.31 123.12,-70.44"/>
</a>
</g>
</g>
<!-- Node14&#45;&gt;Node37 -->
<g id="edge21_Node000014_Node000037" class="edge">
<title>Node14&#45;&gt;Node37</title>
<g id="a_edge21_Node000014_Node000037"><a xlink:title=" ">
<path fill="none" stroke="#63b8ff" d="M303.62,-109.93C282.61,-101.06 248.93,-86.75 220,-74 180.89,-56.77 135.94,-36.25 107.75,-23.3"/>
<polygon fill="#63b8ff" stroke="#63b8ff" points="109.06,-20.05 98.51,-19.05 106.14,-26.41 109.06,-20.05"/>
</a>
</g>
</g>
<!-- Node14&#45;&gt;Node38 -->
<g id="edge20_Node000014_Node000038" class="edge">
<title>Node14&#45;&gt;Node38</title>
<g id="a_edge20_Node000014_Node000038"><a xlink:title=" ">
<path fill="none" stroke="#63b8ff" d="M335.89,-109.98C347.15,-101.92 364.29,-89.65 377.71,-80.03"/>
<polygon fill="#63b8ff" stroke="#63b8ff" points="379.8,-82.84 385.89,-74.17 375.73,-77.15 379.8,-82.84"/>
</a>
</g>
</g>
<!-- Node15&#45;&gt;Node11 -->
<g id="edge16_Node000015_Node000011" class="edge">
<title>Node15&#45;&gt;Node11</title>
<g id="a_edge16_Node000015_Node000011"><a xlink:title=" ">
<path fill="none" stroke="#63b8ff" d="M313.42,-54.98C352.57,-45.01 417,-28.59 455.67,-18.74"/>
<polygon fill="#63b8ff" stroke="#63b8ff" points="457.03,-22 465.86,-16.14 455.3,-15.22 457.03,-22"/>
</a>
</g>
</g>
<!-- Node35&#45;&gt;Node6 -->
<g id="edge18_Node000035_Node000006" class="edge">
<title>Node35&#45;&gt;Node6</title>
<g id="a_edge18_Node000035_Node000006"><a xlink:title=" ">
<path fill="none" stroke="#63b8ff" d="M112.62,-61.2C184.15,-55.94 360.37,-41.82 518.55,-18.93"/>
<polygon fill="#63b8ff" stroke="#63b8ff" points="519.07,-22.39 528.46,-17.48 518.06,-15.46 519.07,-22.39"/>
</a>
</g>
</g>
<!-- Node35&#45;&gt;Node37 -->
<g id="edge19_Node000035_Node000037" class="edge">
<title>Node35&#45;&gt;Node37</title>
<g id="a_edge19_Node000035_Node000037"><a xlink:title=" ">
<path fill="none" stroke="#63b8ff" d="M80,-54.75C80,-47.8 80,-37.85 80,-29.13"/>
<polygon fill="#63b8ff" stroke="#63b8ff" points="83.5,-29.09 80,-19.09 76.5,-29.09 83.5,-29.09"/>
</a>
</g>
</g>
<!-- Node40&#45;&gt;Node4 -->
<g id="edge29_Node000040_Node000004" class="edge">
<title>Node40&#45;&gt;Node4</title>
<g id="a_edge29_Node000040_Node000004"><a xlink:title=" ">
<path fill="none" stroke="#63b8ff" d="M428.44,-274.98C438.15,-267.07 452.82,-255.11 464.5,-245.58"/>
<polygon fill="#63b8ff" stroke="#63b8ff" points="466.83,-248.2 472.37,-239.17 462.4,-242.78 466.83,-248.2"/>
</a>
</g>
</g>
<!-- Node40&#45;&gt;Node8 -->
<g id="edge30_Node000040_Node000008" class="edge">
<title>Node40&#45;&gt;Node8</title>
<g id="a_edge30_Node000040_Node000008"><a xlink:title=" ">
<path fill="none" stroke="#63b8ff" d="M443.05,-274.88C465.74,-266.72 499.82,-253.58 528,-239 556.5,-224.26 587.3,-203.69 606.85,-190.01"/>
<polygon fill="#63b8ff" stroke="#63b8ff" points="609.1,-192.7 615.24,-184.07 605.06,-186.99 609.1,-192.7"/>
</a>
</g>
</g>
<!-- Node40&#45;&gt;Node12 -->
<g id="edge28_Node000040_Node000012" class="edge">
<title>Node40&#45;&gt;Node12</title>
<g id="a_edge28_Node000040_Node000012"><a xlink:title=" ">
<path fill="none" stroke="#63b8ff" d="M416.99,-274.96C415.12,-262.03 410.13,-237.18 398,-220 389.21,-207.56 375.88,-197.08 364.12,-189.43"/>
<polygon fill="#63b8ff" stroke="#63b8ff" points="365.88,-186.4 355.53,-184.14 362.21,-192.36 365.88,-186.4"/>
</a>
</g>
</g>
<!-- Node40&#45;&gt;Node35 -->
<g id="edge35_Node000040_Node000035" class="edge">
<title>Node40&#45;&gt;Node35</title>
<g id="a_edge35_Node000040_Node000035"><a xlink:title=" ">
<path fill="none" stroke="#63b8ff" d="M381.13,-280.62C336.64,-276.12 260.28,-265.04 200,-239 126.39,-207.2 90.74,-201.74 57,-129 49.93,-113.76 57.97,-95.7 66.43,-82.74"/>
<polygon fill="#63b8ff" stroke="#63b8ff" points="69.48,-84.49 72.45,-74.32 63.79,-80.42 69.48,-84.49"/>
</a>
</g>
</g>
<!-- Node41 -->
<g id="Node000041" class="node">
<title>Node41</title>
<g id="a_Node000041"><a xlink:href="mp__arith_8h.html" target="_top" xlink:title=" ">
<polygon fill="white" stroke="#666666" points="278.5,-239 209.5,-239 209.5,-220 278.5,-220 278.5,-239"/>
<text text-anchor="middle" x="244" y="-227" font-family="Helvetica,sans-Serif" font-size="10.00">mp_arith.h</text>
</a>
</g>
</g>
<!-- Node40&#45;&gt;Node41 -->
<g id="edge31_Node000040_Node000041" class="edge">
<title>Node40&#45;&gt;Node41</title>
<g id="a_edge31_Node000040_Node000041"><a xlink:title=" ">
<path fill="none" stroke="#63b8ff" d="M390.04,-274.98C360.7,-266.05 314.4,-251.94 281.81,-242.02"/>
<polygon fill="#63b8ff" stroke="#63b8ff" points="282.76,-238.65 272.18,-239.08 280.72,-245.34 282.76,-238.65"/>
</a>
</g>
</g>
<!-- Node26 -->
<g id="Node000026" class="node">
<title>Node26</title>
<g id="a_Node000026"><a xlink:title=" ">
<polygon fill="#e0e0e0" stroke="#999999" points="389.5,-239 296.5,-239 296.5,-220 389.5,-220 389.5,-239"/>
<text text-anchor="middle" x="343" y="-227" font-family="Helvetica,sans-Serif" font-size="10.00">unordered_map</text>
</a>
</g>
</g>
<!-- Node40&#45;&gt;Node26 -->
<g id="edge36_Node000040_Node000026" class="edge">
<title>Node40&#45;&gt;Node26</title>
<g id="a_edge36_Node000040_Node000026"><a xlink:title=" ">
<path fill="none" stroke="#63b8ff" d="M405.95,-274.98C394.54,-266.92 377.17,-254.65 363.57,-245.03"/>
<polygon fill="#63b8ff" stroke="#63b8ff" points="365.46,-242.08 355.27,-239.17 361.42,-247.8 365.46,-242.08"/>
</a>
</g>
</g>
<!-- Node41&#45;&gt;Node11 -->
<g id="edge33_Node000041_Node000011" class="edge">
<title>Node41&#45;&gt;Node11</title>
<g id="a_edge33_Node000041_Node000011"><a xlink:title=" ">
<path fill="none" stroke="#63b8ff" d="M274.78,-219.95C332.71,-203.17 454.23,-164.49 478,-129 498.22,-98.8 495.36,-54.1 491.6,-29.12"/>
<polygon fill="#63b8ff" stroke="#63b8ff" points="495.03,-28.42 489.89,-19.16 488.13,-29.6 495.03,-28.42"/>
</a>
</g>
</g>
<!-- Node21 -->
<g id="Node000021" class="node">
<title>Node21</title>
<g id="a_Node000021"><a xlink:title=" ">
<polygon fill="#e0e0e0" stroke="#999999" points="291,-184 243,-184 243,-165 291,-165 291,-184"/>
<text text-anchor="middle" x="267" y="-172" font-family="Helvetica,sans-Serif" font-size="10.00">iosfwd</text>
</a>
</g>
</g>
<!-- Node41&#45;&gt;Node21 -->
<g id="edge32_Node000041_Node000021" class="edge">
<title>Node41&#45;&gt;Node21</title>
<g id="a_edge32_Node000041_Node000021"><a xlink:title=" ">
<path fill="none" stroke="#63b8ff" d="M247.8,-219.75C250.91,-212.57 255.42,-202.18 259.29,-193.27"/>
<polygon fill="#63b8ff" stroke="#63b8ff" points="262.5,-194.66 263.27,-184.09 256.08,-191.87 262.5,-194.66"/>
</a>
</g>
</g>
<!-- Node42 -->
<g id="Node000042" class="node">
<title>Node42</title>
<g id="a_Node000042"><a xlink:title=" ">
<polygon fill="#e0e0e0" stroke="#999999" points="225,-184 131,-184 131,-165 225,-165 225,-184"/>
<text text-anchor="middle" x="178" y="-172" font-family="Helvetica,sans-Serif" font-size="10.00">big&#45;int/bigint.hh</text>
</a>
</g>
</g>
<!-- Node41&#45;&gt;Node42 -->
<g id="edge34_Node000041_Node000042" class="edge">
<title>Node41&#45;&gt;Node42</title>
<g id="a_edge34_Node000041_Node000042"><a xlink:title=" ">
<path fill="none" stroke="#63b8ff" d="M233.4,-219.98C223.54,-212.07 208.65,-200.11 196.78,-190.58"/>
<polygon fill="#63b8ff" stroke="#63b8ff" points="198.79,-187.7 188.8,-184.17 194.4,-193.16 198.79,-187.7"/>
</a>
</g>
</g>
<!-- Node43&#45;&gt;Node4 -->
<g id="edge39_Node000043_Node000004" class="edge">
<title>Node43&#45;&gt;Node4</title>
<g id="a_edge39_Node000043_Node000004"><a xlink:title=" ">
<path fill="none" stroke="#63b8ff" d="M584.92,-329.66C566.12,-311.38 522.76,-269.18 499.1,-246.17"/>
<polygon fill="#63b8ff" stroke="#63b8ff" points="501.51,-243.62 491.9,-239.16 496.63,-248.64 501.51,-243.62"/>
</a>
</g>
</g>
<!-- Node43&#45;&gt;Node8 -->
<g id="edge40_Node000043_Node000008" class="edge">
<title>Node43&#45;&gt;Node8</title>
<g id="a_edge40_Node000043_Node000008"><a xlink:title=" ">
<path fill="none" stroke="#63b8ff" d="M595.77,-329.74C600.94,-304.2 616.08,-229.43 623.21,-194.23"/>
<polygon fill="#63b8ff" stroke="#63b8ff" points="626.66,-194.8 625.22,-184.31 619.8,-193.41 626.66,-194.8"/>
</a>
</g>
</g>
<!-- Node43&#45;&gt;Node40 -->
<g id="edge41_Node000043_Node000040" class="edge">
<title>Node43&#45;&gt;Node40</title>
<g id="a_edge41_Node000043_Node000040"><a xlink:title=" ">
<path fill="none" stroke="#63b8ff" d="M565.72,-329.98C536.05,-321.05 489.21,-306.94 456.25,-297.02"/>
<polygon fill="#63b8ff" stroke="#63b8ff" points="457.08,-293.61 446.5,-294.08 455.07,-300.32 457.08,-293.61"/>
</a>
</g>
</g>
</g>
</svg>
