<?xml version="1.0" encoding="UTF-8" standalone="no"?>
<!DOCTYPE svg PUBLIC "-//W3C//DTD SVG 1.1//EN"
 "http://www.w3.org/Graphics/SVG/1.1/DTD/svg11.dtd">
<!-- Generated by graphviz version 2.43.0 (0)
 -->
<!-- Title: /home/runner/work/cbmc/cbmc/src/statement&#45;list/statement_list_parser.h Pages: 1 -->
<svg width="334pt" height="126pt"
 viewBox="0.00 0.00 333.50 126.00" xmlns="http://www.w3.org/2000/svg" xmlns:xlink="http://www.w3.org/1999/xlink">
<g id="graph0" class="graph" transform="scale(1 1) rotate(0) translate(4 122)">
<title>/home/runner/work/cbmc/cbmc/src/statement&#45;list/statement_list_parser.h</title>
<!-- Node1 -->
<g id="Node000001" class="node">
<title>Node1</title>
<g id="a_Node000001"><a xlink:title="Statement List Language Parser.">
<polygon fill="#999999" stroke="#666666" points="235.5,-118 97.5,-118 97.5,-77 235.5,-77 235.5,-118"/>
<text text-anchor="start" x="105.5" y="-106" font-family="Helvetica,sans-Serif" font-size="10.00">/home/runner/work/cbmc</text>
<text text-anchor="start" x="105.5" y="-95" font-family="Helvetica,sans-Serif" font-size="10.00">/cbmc/src/statement&#45;list</text>
<text text-anchor="middle" x="166.5" y="-84" font-family="Helvetica,sans-Serif" font-size="10.00">/statement_list_parser.h</text>
</a>
</g>
</g>
<!-- Node2 -->
<g id="Node000002" class="node">
<title>Node2</title>
<g id="a_Node000002"><a xlink:href="statement__list__language_8cpp.html" target="_top" xlink:title="Statement List Language Interface.">
<polygon fill="white" stroke="#666666" points="161,-41 0,-41 0,0 161,0 161,-41"/>
<text text-anchor="start" x="8" y="-29" font-family="Helvetica,sans-Serif" font-size="10.00">/home/runner/work/cbmc</text>
<text text-anchor="start" x="8" y="-18" font-family="Helvetica,sans-Serif" font-size="10.00">/cbmc/src/statement&#45;list</text>
<text text-anchor="middle" x="80.5" y="-7" font-family="Helvetica,sans-Serif" font-size="10.00">/statement_list_language.cpp</text>
</a>
</g>
</g>
<!-- Node1&#45;&gt;Node2 -->
<g id="edge1_Node000001_Node000002" class="edge">
<title>Node1&#45;&gt;Node2</title>
<g id="a_edge1_Node000001_Node000002"><a xlink:title=" ">
<path fill="none" stroke="#63b8ff" d="M136.19,-70.07C125.25,-60.52 113.1,-49.93 102.94,-41.07"/>
<polygon fill="#63b8ff" stroke="#63b8ff" points="134.07,-72.86 143.9,-76.79 138.67,-67.58 134.07,-72.86"/>
</a>
</g>
</g>
<!-- Node3 -->
<g id="Node000003" class="node">
<title>Node3</title>
<g id="a_Node000003"><a xlink:href="statement__list__parser_8cpp.html" target="_top" xlink:title="Statement List Language Parser.">
<polygon fill="white" stroke="#666666" points="325.5,-41 179.5,-41 179.5,0 325.5,0 325.5,-41"/>
<text text-anchor="start" x="187.5" y="-29" font-family="Helvetica,sans-Serif" font-size="10.00">/home/runner/work/cbmc</text>
<text text-anchor="start" x="187.5" y="-18" font-family="Helvetica,sans-Serif" font-size="10.00">/cbmc/src/statement&#45;list</text>
<text text-anchor="middle" x="252.5" y="-7" font-family="Helvetica,sans-Serif" font-size="10.00">/statement_list_parser.cpp</text>
</a>
</g>
</g>
<!-- Node1&#45;&gt;Node3 -->
<g id="edge2_Node000001_Node000003" class="edge">
<title>Node1&#45;&gt;Node3</title>
<g id="a_edge2_Node000001_Node000003"><a xlink:title=" ">
<path fill="none" stroke="#63b8ff" d="M196.81,-70.07C207.75,-60.52 219.9,-49.93 230.06,-41.07"/>
<polygon fill="#63b8ff" stroke="#63b8ff" points="194.33,-67.58 189.1,-76.79 198.93,-72.86 194.33,-67.58"/>
</a>
</g>
</g>
</g>
</svg>
