<?xml version="1.0" encoding="UTF-8" standalone="no"?>
<!DOCTYPE svg PUBLIC "-//W3C//DTD SVG 1.1//EN"
 "http://www.w3.org/Graphics/SVG/1.1/DTD/svg11.dtd">
<!-- Generated by graphviz version 2.43.0 (0)
 -->
<!-- Title: /home/runner/work/cbmc/cbmc/src/statement&#45;list/statement_list_parse_tree.h Pages: 1 -->
<svg width="1056pt" height="203pt"
 viewBox="0.00 0.00 1056.00 203.00" xmlns="http://www.w3.org/2000/svg" xmlns:xlink="http://www.w3.org/1999/xlink">
<g id="graph0" class="graph" transform="scale(1 1) rotate(0) translate(4 199)">
<title>/home/runner/work/cbmc/cbmc/src/statement&#45;list/statement_list_parse_tree.h</title>
<!-- Node1 -->
<g id="Node000001" class="node">
<title>Node1</title>
<g id="a_Node000001"><a xlink:title="Statement List Language Parse Tree.">
<polygon fill="#999999" stroke="#666666" points="742.5,-195 586.5,-195 586.5,-154 742.5,-154 742.5,-195"/>
<text text-anchor="start" x="594.5" y="-183" font-family="Helvetica,sans-Serif" font-size="10.00">/home/runner/work/cbmc</text>
<text text-anchor="start" x="594.5" y="-172" font-family="Helvetica,sans-Serif" font-size="10.00">/cbmc/src/statement&#45;list</text>
<text text-anchor="middle" x="664.5" y="-161" font-family="Helvetica,sans-Serif" font-size="10.00">/statement_list_parse_tree.h</text>
</a>
</g>
</g>
<!-- Node2 -->
<g id="Node000002" class="node">
<title>Node2</title>
<g id="a_Node000002"><a xlink:href="statement__list__language_8h.html" target="_top" xlink:title="Statement List Language Interface.">
<polygon fill="white" stroke="#666666" points="307,-118 158,-118 158,-77 307,-77 307,-118"/>
<text text-anchor="start" x="166" y="-106" font-family="Helvetica,sans-Serif" font-size="10.00">/home/runner/work/cbmc</text>
<text text-anchor="start" x="166" y="-95" font-family="Helvetica,sans-Serif" font-size="10.00">/cbmc/src/statement&#45;list</text>
<text text-anchor="middle" x="232.5" y="-84" font-family="Helvetica,sans-Serif" font-size="10.00">/statement_list_language.h</text>
</a>
</g>
</g>
<!-- Node1&#45;&gt;Node2 -->
<g id="edge1_Node000001_Node000002" class="edge">
<title>Node1&#45;&gt;Node2</title>
<g id="a_edge1_Node000001_Node000002"><a xlink:title=" ">
<path fill="none" stroke="#63b8ff" d="M576.3,-161.18C505.77,-150.9 404.49,-135.21 316.5,-118 313.41,-117.4 310.27,-116.76 307.1,-116.1"/>
<polygon fill="#63b8ff" stroke="#63b8ff" points="576.08,-164.68 586.48,-162.65 577.09,-157.75 576.08,-164.68"/>
</a>
</g>
</g>
<!-- Node5 -->
<g id="Node000005" class="node">
<title>Node5</title>
<g id="a_Node000005"><a xlink:href="statement__list__parse__tree_8cpp.html" target="_top" xlink:title="Statement List Language Parse Tree.">
<polygon fill="white" stroke="#666666" points="1048,-118 881,-118 881,-77 1048,-77 1048,-118"/>
<text text-anchor="start" x="889" y="-106" font-family="Helvetica,sans-Serif" font-size="10.00">/home/runner/work/cbmc</text>
<text text-anchor="start" x="889" y="-95" font-family="Helvetica,sans-Serif" font-size="10.00">/cbmc/src/statement&#45;list</text>
<text text-anchor="middle" x="964.5" y="-84" font-family="Helvetica,sans-Serif" font-size="10.00">/statement_list_parse_tree.cpp</text>
</a>
</g>
</g>
<!-- Node1&#45;&gt;Node5 -->
<g id="edge4_Node000001_Node000005" class="edge">
<title>Node1&#45;&gt;Node5</title>
<g id="a_edge4_Node000001_Node000005"><a xlink:title=" ">
<path fill="none" stroke="#63b8ff" d="M752.3,-151.55C794.73,-140.94 845.24,-128.31 886.33,-118.04"/>
<polygon fill="#63b8ff" stroke="#63b8ff" points="751.39,-148.17 742.54,-153.99 753.09,-154.96 751.39,-148.17"/>
</a>
</g>
</g>
<!-- Node6 -->
<g id="Node000006" class="node">
<title>Node6</title>
<g id="a_Node000006"><a xlink:href="statement__list__parse__tree__io_8h.html" target="_top" xlink:title="Statement List Language Parse Tree Output.">
<polygon fill="white" stroke="#666666" points="495.5,-118 325.5,-118 325.5,-77 495.5,-77 495.5,-118"/>
<text text-anchor="start" x="333.5" y="-106" font-family="Helvetica,sans-Serif" font-size="10.00">/home/runner/work/cbmc</text>
<text text-anchor="start" x="333.5" y="-95" font-family="Helvetica,sans-Serif" font-size="10.00">/cbmc/src/statement&#45;list</text>
<text text-anchor="middle" x="410.5" y="-84" font-family="Helvetica,sans-Serif" font-size="10.00">/statement_list_parse_tree_io.h</text>
</a>
</g>
</g>
<!-- Node1&#45;&gt;Node6 -->
<g id="edge5_Node000001_Node000006" class="edge">
<title>Node1&#45;&gt;Node6</title>
<g id="a_edge5_Node000001_Node000006"><a xlink:title=" ">
<path fill="none" stroke="#63b8ff" d="M588.57,-151.08C552.98,-140.57 510.96,-128.16 476.68,-118.04"/>
<polygon fill="#63b8ff" stroke="#63b8ff" points="587.85,-154.52 598.43,-153.99 589.83,-147.8 587.85,-154.52"/>
</a>
</g>
</g>
<!-- Node8 -->
<g id="Node000008" class="node">
<title>Node8</title>
<g id="a_Node000008"><a xlink:href="statement__list__parser_8cpp.html" target="_top" xlink:title="Statement List Language Parser.">
<polygon fill="white" stroke="#666666" points="741.5,-41 595.5,-41 595.5,0 741.5,0 741.5,-41"/>
<text text-anchor="start" x="603.5" y="-29" font-family="Helvetica,sans-Serif" font-size="10.00">/home/runner/work/cbmc</text>
<text text-anchor="start" x="603.5" y="-18" font-family="Helvetica,sans-Serif" font-size="10.00">/cbmc/src/statement&#45;list</text>
<text text-anchor="middle" x="668.5" y="-7" font-family="Helvetica,sans-Serif" font-size="10.00">/statement_list_parser.cpp</text>
</a>
</g>
</g>
<!-- Node1&#45;&gt;Node8 -->
<g id="edge9_Node000001_Node000008" class="edge">
<title>Node1&#45;&gt;Node8</title>
<g id="a_edge9_Node000001_Node000008"><a xlink:title=" ">
<path fill="none" stroke="#63b8ff" d="M752.88,-165.73C783.79,-158.26 815.5,-144.19 834.5,-118 845.2,-103.25 845.15,-91.79 834.5,-77 828.46,-68.62 781.99,-53.48 739.75,-41.13"/>
<polygon fill="#63b8ff" stroke="#63b8ff" points="751.9,-162.36 742.88,-167.93 753.4,-169.19 751.9,-162.36"/>
</a>
</g>
</g>
<!-- Node9 -->
<g id="Node000009" class="node">
<title>Node9</title>
<g id="a_Node000009"><a xlink:href="statement__list__parser_8h.html" target="_top" xlink:title="Statement List Language Parser.">
<polygon fill="white" stroke="#666666" points="651.5,-118 513.5,-118 513.5,-77 651.5,-77 651.5,-118"/>
<text text-anchor="start" x="521.5" y="-106" font-family="Helvetica,sans-Serif" font-size="10.00">/home/runner/work/cbmc</text>
<text text-anchor="start" x="521.5" y="-95" font-family="Helvetica,sans-Serif" font-size="10.00">/cbmc/src/statement&#45;list</text>
<text text-anchor="middle" x="582.5" y="-84" font-family="Helvetica,sans-Serif" font-size="10.00">/statement_list_parser.h</text>
</a>
</g>
</g>
<!-- Node1&#45;&gt;Node9 -->
<g id="edge10_Node000001_Node000009" class="edge">
<title>Node1&#45;&gt;Node9</title>
<g id="a_edge10_Node000001_Node000009"><a xlink:title=" ">
<path fill="none" stroke="#63b8ff" d="M635.3,-146.79C624.94,-137.32 613.49,-126.84 603.9,-118.07"/>
<polygon fill="#63b8ff" stroke="#63b8ff" points="633.21,-149.63 642.96,-153.79 637.94,-144.46 633.21,-149.63"/>
</a>
</g>
</g>
<!-- Node10 -->
<g id="Node000010" class="node">
<title>Node10</title>
<g id="a_Node000010"><a xlink:href="statement__list__typecheck_8h.html" target="_top" xlink:title="Statement List Language Type Checking.">
<polygon fill="white" stroke="#666666" points="825,-118 670,-118 670,-77 825,-77 825,-118"/>
<text text-anchor="start" x="678" y="-106" font-family="Helvetica,sans-Serif" font-size="10.00">/home/runner/work/cbmc</text>
<text text-anchor="start" x="678" y="-95" font-family="Helvetica,sans-Serif" font-size="10.00">/cbmc/src/statement&#45;list</text>
<text text-anchor="middle" x="747.5" y="-84" font-family="Helvetica,sans-Serif" font-size="10.00">/statement_list_typecheck.h</text>
</a>
</g>
</g>
<!-- Node1&#45;&gt;Node10 -->
<g id="edge13_Node000001_Node000010" class="edge">
<title>Node1&#45;&gt;Node10</title>
<g id="a_edge13_Node000001_Node000010"><a xlink:title=" ">
<path fill="none" stroke="#63b8ff" d="M693.75,-147.07C704.31,-137.52 716.04,-126.93 725.84,-118.07"/>
<polygon fill="#63b8ff" stroke="#63b8ff" points="691.38,-144.49 686.31,-153.79 696.07,-149.69 691.38,-144.49"/>
</a>
</g>
</g>
<!-- Node3 -->
<g id="Node000003" class="node">
<title>Node3</title>
<g id="a_Node000003"><a xlink:href="cbmc__languages_8cpp.html" target="_top" xlink:title="Language Registration.">
<polygon fill="white" stroke="#666666" points="197,-35.5 0,-35.5 0,-5.5 197,-5.5 197,-35.5"/>
<text text-anchor="start" x="8" y="-23.5" font-family="Helvetica,sans-Serif" font-size="10.00">/home/runner/work/cbmc</text>
<text text-anchor="middle" x="98.5" y="-12.5" font-family="Helvetica,sans-Serif" font-size="10.00">/cbmc/src/cbmc/cbmc_languages.cpp</text>
</a>
</g>
</g>
<!-- Node2&#45;&gt;Node3 -->
<g id="edge2_Node000002_Node000003" class="edge">
<title>Node2&#45;&gt;Node3</title>
<g id="a_edge2_Node000002_Node000003"><a xlink:title=" ">
<path fill="none" stroke="#63b8ff" d="M188.69,-71.98C167.23,-59.97 142.13,-45.92 123.87,-35.7"/>
<polygon fill="#63b8ff" stroke="#63b8ff" points="187.21,-75.16 197.64,-76.99 190.63,-69.05 187.21,-75.16"/>
</a>
</g>
</g>
<!-- Node4 -->
<g id="Node000004" class="node">
<title>Node4</title>
<g id="a_Node000004"><a xlink:href="statement__list__language_8cpp.html" target="_top" xlink:title="Statement List Language Interface.">
<polygon fill="white" stroke="#666666" points="577,-41 416,-41 416,0 577,0 577,-41"/>
<text text-anchor="start" x="424" y="-29" font-family="Helvetica,sans-Serif" font-size="10.00">/home/runner/work/cbmc</text>
<text text-anchor="start" x="424" y="-18" font-family="Helvetica,sans-Serif" font-size="10.00">/cbmc/src/statement&#45;list</text>
<text text-anchor="middle" x="496.5" y="-7" font-family="Helvetica,sans-Serif" font-size="10.00">/statement_list_language.cpp</text>
</a>
</g>
</g>
<!-- Node2&#45;&gt;Node4 -->
<g id="edge3_Node000002_Node000004" class="edge">
<title>Node2&#45;&gt;Node4</title>
<g id="a_edge3_Node000002_Node000004"><a xlink:title=" ">
<path fill="none" stroke="#63b8ff" d="M310.95,-74.21C348.04,-63.68 391.93,-51.21 427.71,-41.04"/>
<polygon fill="#63b8ff" stroke="#63b8ff" points="309.84,-70.89 301.17,-76.99 311.75,-77.62 309.84,-70.89"/>
</a>
</g>
</g>
<!-- Node6&#45;&gt;Node4 -->
<g id="edge6_Node000006_Node000004" class="edge">
<title>Node6&#45;&gt;Node4</title>
<g id="a_edge6_Node000006_Node000004"><a xlink:title=" ">
<path fill="none" stroke="#63b8ff" d="M440.81,-70.07C451.75,-60.52 463.9,-49.93 474.06,-41.07"/>
<polygon fill="#63b8ff" stroke="#63b8ff" points="438.33,-67.58 433.1,-76.79 442.93,-72.86 438.33,-67.58"/>
</a>
</g>
</g>
<!-- Node7 -->
<g id="Node000007" class="node">
<title>Node7</title>
<g id="a_Node000007"><a xlink:href="statement__list__parse__tree__io_8cpp.html" target="_top" xlink:title="Statement List Language Parse Tree Output.">
<polygon fill="white" stroke="#666666" points="397.5,-41 215.5,-41 215.5,0 397.5,0 397.5,-41"/>
<text text-anchor="start" x="223.5" y="-29" font-family="Helvetica,sans-Serif" font-size="10.00">/home/runner/work/cbmc</text>
<text text-anchor="start" x="223.5" y="-18" font-family="Helvetica,sans-Serif" font-size="10.00">/cbmc/src/statement&#45;list</text>
<text text-anchor="middle" x="306.5" y="-7" font-family="Helvetica,sans-Serif" font-size="10.00">/statement_list_parse_tree_io.cpp</text>
</a>
</g>
</g>
<!-- Node6&#45;&gt;Node7 -->
<g id="edge7_Node000006_Node000007" class="edge">
<title>Node6&#45;&gt;Node7</title>
<g id="a_edge7_Node000006_Node000007"><a xlink:title=" ">
<path fill="none" stroke="#63b8ff" d="M375.27,-71.09C361.72,-61.32 346.47,-50.32 333.78,-41.17"/>
<polygon fill="#63b8ff" stroke="#63b8ff" points="373.29,-73.98 383.45,-76.99 377.38,-68.3 373.29,-73.98"/>
</a>
</g>
</g>
<!-- Node6&#45;&gt;Node8 -->
<g id="edge8_Node000006_Node000008" class="edge">
<title>Node6&#45;&gt;Node8</title>
<g id="a_edge8_Node000006_Node000008"><a xlink:title=" ">
<path fill="none" stroke="#63b8ff" d="M487.63,-74.08C523.78,-63.57 566.46,-51.16 601.28,-41.04"/>
<polygon fill="#63b8ff" stroke="#63b8ff" points="486.24,-70.84 477.61,-76.99 488.19,-77.56 486.24,-70.84"/>
</a>
</g>
</g>
<!-- Node9&#45;&gt;Node4 -->
<g id="edge11_Node000009_Node000004" class="edge">
<title>Node9&#45;&gt;Node4</title>
<g id="a_edge11_Node000009_Node000004"><a xlink:title=" ">
<path fill="none" stroke="#63b8ff" d="M552.19,-70.07C541.25,-60.52 529.1,-49.93 518.94,-41.07"/>
<polygon fill="#63b8ff" stroke="#63b8ff" points="550.07,-72.86 559.9,-76.79 554.67,-67.58 550.07,-72.86"/>
</a>
</g>
</g>
<!-- Node9&#45;&gt;Node8 -->
<g id="edge12_Node000009_Node000008" class="edge">
<title>Node9&#45;&gt;Node8</title>
<g id="a_edge12_Node000009_Node000008"><a xlink:title=" ">
<path fill="none" stroke="#63b8ff" d="M612.81,-70.07C623.75,-60.52 635.9,-49.93 646.06,-41.07"/>
<polygon fill="#63b8ff" stroke="#63b8ff" points="610.33,-67.58 605.1,-76.79 614.93,-72.86 610.33,-67.58"/>
</a>
</g>
</g>
<!-- Node10&#45;&gt;Node4 -->
<g id="edge14_Node000010_Node000004" class="edge">
<title>Node10&#45;&gt;Node4</title>
<g id="a_edge14_Node000010_Node000004"><a xlink:title=" ">
<path fill="none" stroke="#63b8ff" d="M672.47,-74.08C637.29,-63.57 595.77,-51.16 561.9,-41.04"/>
<polygon fill="#63b8ff" stroke="#63b8ff" points="671.62,-77.48 682.21,-76.99 673.63,-70.77 671.62,-77.48"/>
</a>
</g>
</g>
<!-- Node11 -->
<g id="Node000011" class="node">
<title>Node11</title>
<g id="a_Node000011"><a xlink:href="statement__list__typecheck_8cpp.html" target="_top" xlink:title="Statement List Language Type Checking.">
<polygon fill="white" stroke="#666666" points="925.5,-41 759.5,-41 759.5,0 925.5,0 925.5,-41"/>
<text text-anchor="start" x="767.5" y="-29" font-family="Helvetica,sans-Serif" font-size="10.00">/home/runner/work/cbmc</text>
<text text-anchor="start" x="767.5" y="-18" font-family="Helvetica,sans-Serif" font-size="10.00">/cbmc/src/statement&#45;list</text>
<text text-anchor="middle" x="842.5" y="-7" font-family="Helvetica,sans-Serif" font-size="10.00">/statement_list_typecheck.cpp</text>
</a>
</g>
</g>
<!-- Node10&#45;&gt;Node11 -->
<g id="edge15_Node000010_Node000011" class="edge">
<title>Node10&#45;&gt;Node11</title>
<g id="a_edge15_Node000010_Node000011"><a xlink:title=" ">
<path fill="none" stroke="#63b8ff" d="M780.63,-70.35C792.81,-60.73 806.38,-50.01 817.71,-41.07"/>
<polygon fill="#63b8ff" stroke="#63b8ff" points="778.14,-67.85 772.46,-76.79 782.48,-73.35 778.14,-67.85"/>
</a>
</g>
</g>
</g>
</svg>
