<?xml version="1.0" encoding="UTF-8" standalone="no"?>
<!DOCTYPE svg PUBLIC "-//W3C//DTD SVG 1.1//EN"
 "http://www.w3.org/Graphics/SVG/1.1/DTD/svg11.dtd">
<!-- Generated by graphviz version 2.43.0 (0)
 -->
<!-- Title: /home/runner/work/cbmc/cbmc/src/statement&#45;list/converters/statement_list_types.cpp Pages: 1 -->
<svg width="969pt" height="665pt"
 viewBox="0.00 0.00 968.50 665.00" xmlns="http://www.w3.org/2000/svg" xmlns:xlink="http://www.w3.org/1999/xlink">
<g id="graph0" class="graph" transform="scale(1 1) rotate(0) translate(4 661)">
<title>/home/runner/work/cbmc/cbmc/src/statement&#45;list/converters/statement_list_types.cpp</title>
<!-- Node1 -->
<g id="Node000001" class="node">
<title>Node1</title>
<g id="a_Node000001"><a xlink:title="Statement List Type Helper.">
<polygon fill="#999999" stroke="#666666" points="519,-657 374,-657 374,-605 519,-605 519,-657"/>
<text text-anchor="start" x="382" y="-645" font-family="Helvetica,sans-Serif" font-size="10.00">/home/runner/work/cbmc</text>
<text text-anchor="start" x="382" y="-634" font-family="Helvetica,sans-Serif" font-size="10.00">/cbmc/src/statement&#45;list</text>
<text text-anchor="start" x="382" y="-623" font-family="Helvetica,sans-Serif" font-size="10.00">/converters/statement_list</text>
<text text-anchor="middle" x="446.5" y="-612" font-family="Helvetica,sans-Serif" font-size="10.00">_types.cpp</text>
</a>
</g>
</g>
<!-- Node2 -->
<g id="Node000002" class="node">
<title>Node2</title>
<g id="a_Node000002"><a xlink:href="statement__list__types_8h.html" target="_top" xlink:title="Statement List Type Helper.">
<polygon fill="white" stroke="#666666" points="368.5,-569 240.5,-569 240.5,-550 368.5,-550 368.5,-569"/>
<text text-anchor="middle" x="304.5" y="-557" font-family="Helvetica,sans-Serif" font-size="10.00">statement_list_types.h</text>
</a>
</g>
</g>
<!-- Node1&#45;&gt;Node2 -->
<g id="edge1_Node000001_Node000002" class="edge">
<title>Node1&#45;&gt;Node2</title>
<g id="a_edge1_Node000001_Node000002"><a xlink:title=" ">
<path fill="none" stroke="#63b8ff" d="M395.23,-604.91C373.65,-594.35 349.43,-582.49 331.44,-573.68"/>
<polygon fill="#63b8ff" stroke="#63b8ff" points="332.66,-570.39 322.14,-569.14 329.59,-576.68 332.66,-570.39"/>
</a>
</g>
</g>
<!-- Node3 -->
<g id="Node000003" class="node">
<title>Node3</title>
<g id="a_Node000003"><a xlink:href="bitvector__types_8h.html" target="_top" xlink:title="Pre&#45;defined bitvector types.">
<polygon fill="white" stroke="#666666" points="506.5,-569 386.5,-569 386.5,-550 506.5,-550 506.5,-569"/>
<text text-anchor="middle" x="446.5" y="-557" font-family="Helvetica,sans-Serif" font-size="10.00">util/bitvector_types.h</text>
</a>
</g>
</g>
<!-- Node1&#45;&gt;Node3 -->
<g id="edge2_Node000001_Node000003" class="edge">
<title>Node1&#45;&gt;Node3</title>
<g id="a_edge2_Node000001_Node000003"><a xlink:title=" ">
<path fill="none" stroke="#63b8ff" d="M446.5,-604.91C446.5,-596.55 446.5,-587.38 446.5,-579.55"/>
<polygon fill="#63b8ff" stroke="#63b8ff" points="450,-579.3 446.5,-569.3 443,-579.3 450,-579.3"/>
</a>
</g>
</g>
<!-- Node43 -->
<g id="Node000043" class="node">
<title>Node43</title>
<g id="a_Node000043"><a xlink:href="ieee__float_8h.html" target="_top" xlink:title=" ">
<polygon fill="white" stroke="#666666" points="860.5,-514 768.5,-514 768.5,-495 860.5,-495 860.5,-514"/>
<text text-anchor="middle" x="814.5" y="-502" font-family="Helvetica,sans-Serif" font-size="10.00">util/ieee_float.h</text>
</a>
</g>
</g>
<!-- Node1&#45;&gt;Node43 -->
<g id="edge42_Node000001_Node000043" class="edge">
<title>Node1&#45;&gt;Node43</title>
<g id="a_edge42_Node000001_Node000043"><a xlink:title=" ">
<path fill="none" stroke="#63b8ff" d="M519.2,-605.4C597.82,-578.81 719.84,-537.53 779.4,-517.38"/>
<polygon fill="#63b8ff" stroke="#63b8ff" points="780.73,-520.62 789.09,-514.1 778.49,-513.99 780.73,-520.62"/>
</a>
</g>
</g>
<!-- Node4 -->
<g id="Node000004" class="node">
<title>Node4</title>
<g id="a_Node000004"><a xlink:href="std__types_8h.html" target="_top" xlink:title="Pre&#45;defined types.">
<polygon fill="white" stroke="#666666" points="400,-514 327,-514 327,-495 400,-495 400,-514"/>
<text text-anchor="middle" x="363.5" y="-502" font-family="Helvetica,sans-Serif" font-size="10.00">std_types.h</text>
</a>
</g>
</g>
<!-- Node3&#45;&gt;Node4 -->
<g id="edge3_Node000003_Node000004" class="edge">
<title>Node3&#45;&gt;Node4</title>
<g id="a_edge3_Node000003_Node000004"><a xlink:title=" ">
<path fill="none" stroke="#63b8ff" d="M433.16,-549.98C420.41,-541.84 400.95,-529.41 385.83,-519.76"/>
<polygon fill="#63b8ff" stroke="#63b8ff" points="387.39,-516.6 377.08,-514.17 383.62,-522.5 387.39,-516.6"/>
</a>
</g>
</g>
<!-- Node5 -->
<g id="Node000005" class="node">
<title>Node5</title>
<g id="a_Node000005"><a xlink:href="expr_8h.html" target="_top" xlink:title=" ">
<polygon fill="white" stroke="#666666" points="387,-404 340,-404 340,-385 387,-385 387,-404"/>
<text text-anchor="middle" x="363.5" y="-392" font-family="Helvetica,sans-Serif" font-size="10.00">expr.h</text>
</a>
</g>
</g>
<!-- Node4&#45;&gt;Node5 -->
<g id="edge4_Node000004_Node000005" class="edge">
<title>Node4&#45;&gt;Node5</title>
<g id="a_edge4_Node000004_Node000005"><a xlink:title=" ">
<path fill="none" stroke="#63b8ff" d="M363.5,-494.66C363.5,-477.17 363.5,-437.8 363.5,-414.27"/>
<polygon fill="#63b8ff" stroke="#63b8ff" points="367,-414.16 363.5,-404.16 360,-414.16 367,-414.16"/>
</a>
</g>
</g>
<!-- Node13 -->
<g id="Node000013" class="node">
<title>Node13</title>
<g id="a_Node000013"><a xlink:href="src_2util_2invariant_8h.html" target="_top" xlink:title=" ">
<polygon fill="#fff0f0" stroke="red" points="436,-74 367,-74 367,-55 436,-55 436,-74"/>
<text text-anchor="middle" x="401.5" y="-62" font-family="Helvetica,sans-Serif" font-size="10.00">invariant.h</text>
</a>
</g>
</g>
<!-- Node4&#45;&gt;Node13 -->
<g id="edge35_Node000004_Node000013" class="edge">
<title>Node4&#45;&gt;Node13</title>
<g id="a_edge35_Node000004_Node000013"><a xlink:title=" ">
<path fill="none" stroke="#63b8ff" d="M326.75,-503.23C259.05,-500.59 121.5,-484.3 121.5,-395.5 121.5,-395.5 121.5,-395.5 121.5,-283.5 121.5,-164.7 280.38,-101.18 358.78,-77.07"/>
<polygon fill="#63b8ff" stroke="#63b8ff" points="360.26,-80.28 368.83,-74.06 358.25,-73.57 360.26,-80.28"/>
</a>
</g>
</g>
<!-- Node33 -->
<g id="Node000033" class="node">
<title>Node33</title>
<g id="a_Node000033"><a xlink:href="validate_8h.html" target="_top" xlink:title=" ">
<polygon fill="white" stroke="#666666" points="567,-294 502,-294 502,-275 567,-275 567,-294"/>
<text text-anchor="middle" x="534.5" y="-282" font-family="Helvetica,sans-Serif" font-size="10.00">validate.h</text>
</a>
</g>
</g>
<!-- Node4&#45;&gt;Node33 -->
<g id="edge40_Node000004_Node000033" class="edge">
<title>Node4&#45;&gt;Node33</title>
<g id="a_edge40_Node000004_Node000033"><a xlink:title=" ">
<path fill="none" stroke="#63b8ff" d="M400.09,-498.03C468.59,-485.61 614.84,-448.2 676.5,-349 701.17,-309.3 627.58,-294.26 577.31,-288.68"/>
<polygon fill="#63b8ff" stroke="#63b8ff" points="577.6,-285.19 567.3,-287.65 576.89,-292.15 577.6,-285.19"/>
</a>
</g>
</g>
<!-- Node39 -->
<g id="Node000039" class="node">
<title>Node39</title>
<g id="a_Node000039"><a xlink:href="expr__cast_8h.html" target="_top" xlink:title="Templated functions to cast to specific exprt&#45;derived classes.">
<polygon fill="white" stroke="#666666" points="323,-459 250,-459 250,-440 323,-440 323,-459"/>
<text text-anchor="middle" x="286.5" y="-447" font-family="Helvetica,sans-Serif" font-size="10.00">expr_cast.h</text>
</a>
</g>
</g>
<!-- Node4&#45;&gt;Node39 -->
<g id="edge29_Node000004_Node000039" class="edge">
<title>Node4&#45;&gt;Node39</title>
<g id="a_edge29_Node000004_Node000039"><a xlink:title=" ">
<path fill="none" stroke="#63b8ff" d="M351.13,-494.98C339.41,-486.92 321.58,-474.65 307.61,-465.03"/>
<polygon fill="#63b8ff" stroke="#63b8ff" points="309.32,-461.96 299.1,-459.17 305.35,-467.72 309.32,-461.96"/>
</a>
</g>
</g>
<!-- Node41 -->
<g id="Node000041" class="node">
<title>Node41</title>
<g id="a_Node000041"><a xlink:href="mp__arith_8h.html" target="_top" xlink:title=" ">
<polygon fill="white" stroke="#666666" points="818,-459 749,-459 749,-440 818,-440 818,-459"/>
<text text-anchor="middle" x="783.5" y="-447" font-family="Helvetica,sans-Serif" font-size="10.00">mp_arith.h</text>
</a>
</g>
</g>
<!-- Node4&#45;&gt;Node41 -->
<g id="edge36_Node000004_Node000041" class="edge">
<title>Node4&#45;&gt;Node41</title>
<g id="a_edge36_Node000004_Node000041"><a xlink:title=" ">
<path fill="none" stroke="#63b8ff" d="M400.04,-498.89C476.96,-489.18 655.37,-466.67 738.88,-456.13"/>
<polygon fill="#63b8ff" stroke="#63b8ff" points="739.34,-459.6 748.82,-454.88 738.46,-452.66 739.34,-459.6"/>
</a>
</g>
</g>
<!-- Node24 -->
<g id="Node000024" class="node">
<title>Node24</title>
<g id="a_Node000024"><a xlink:title=" ">
<polygon fill="#e0e0e0" stroke="#999999" points="93,-459 0,-459 0,-440 93,-440 93,-459"/>
<text text-anchor="middle" x="46.5" y="-447" font-family="Helvetica,sans-Serif" font-size="10.00">unordered_map</text>
</a>
</g>
</g>
<!-- Node4&#45;&gt;Node24 -->
<g id="edge41_Node000004_Node000024" class="edge">
<title>Node4&#45;&gt;Node24</title>
<g id="a_edge41_Node000004_Node000024"><a xlink:title=" ">
<path fill="none" stroke="#63b8ff" d="M326.83,-497.37C271.91,-488.19 167.85,-470.79 103.13,-459.97"/>
<polygon fill="#63b8ff" stroke="#63b8ff" points="103.53,-456.49 93.09,-458.29 102.38,-463.39 103.53,-456.49"/>
</a>
</g>
</g>
<!-- Node6 -->
<g id="Node000006" class="node">
<title>Node6</title>
<g id="a_Node000006"><a xlink:href="as__const_8h.html" target="_top" xlink:title=" ">
<polygon fill="white" stroke="#666666" points="601.5,-349 533.5,-349 533.5,-330 601.5,-330 601.5,-349"/>
<text text-anchor="middle" x="567.5" y="-337" font-family="Helvetica,sans-Serif" font-size="10.00">as_const.h</text>
</a>
</g>
</g>
<!-- Node5&#45;&gt;Node6 -->
<g id="edge5_Node000005_Node000006" class="edge">
<title>Node5&#45;&gt;Node6</title>
<g id="a_edge5_Node000005_Node000006"><a xlink:title=" ">
<path fill="none" stroke="#63b8ff" d="M387.3,-387.32C420.99,-378.56 483.14,-362.42 524.9,-351.57"/>
<polygon fill="#63b8ff" stroke="#63b8ff" points="525.98,-354.9 534.78,-349 524.22,-348.13 525.98,-354.9"/>
</a>
</g>
</g>
<!-- Node7 -->
<g id="Node000007" class="node">
<title>Node7</title>
<g id="a_Node000007"><a xlink:href="type_8h.html" target="_top" xlink:title="Defines typet, type_with_subtypet and type_with_subtypest.">
<polygon fill="white" stroke="#666666" points="667,-349 620,-349 620,-330 667,-330 667,-349"/>
<text text-anchor="middle" x="643.5" y="-337" font-family="Helvetica,sans-Serif" font-size="10.00">type.h</text>
</a>
</g>
</g>
<!-- Node5&#45;&gt;Node7 -->
<g id="edge6_Node000005_Node000007" class="edge">
<title>Node5&#45;&gt;Node7</title>
<g id="a_edge6_Node000005_Node000007"><a xlink:title=" ">
<path fill="none" stroke="#63b8ff" d="M387.11,-389.84C429.62,-383.13 521.99,-367.96 609.89,-348.99"/>
<polygon fill="#63b8ff" stroke="#63b8ff" points="610.73,-352.39 619.76,-346.84 609.24,-345.55 610.73,-352.39"/>
</a>
</g>
</g>
<!-- Node35 -->
<g id="Node000035" class="node">
<title>Node35</title>
<g id="a_Node000035"><a xlink:href="validation__mode_8h.html" target="_top" xlink:title=" ">
<polygon fill="white" stroke="#666666" points="368,-239 261,-239 261,-220 368,-220 368,-239"/>
<text text-anchor="middle" x="314.5" y="-227" font-family="Helvetica,sans-Serif" font-size="10.00">validation_mode.h</text>
</a>
</g>
</g>
<!-- Node5&#45;&gt;Node35 -->
<g id="edge27_Node000005_Node000035" class="edge">
<title>Node5&#45;&gt;Node35</title>
<g id="a_edge27_Node000005_Node000035"><a xlink:title=" ">
<path fill="none" stroke="#63b8ff" d="M360.87,-384.74C353.19,-359.2 330.71,-284.43 320.13,-249.23"/>
<polygon fill="#63b8ff" stroke="#63b8ff" points="323.38,-247.88 317.15,-239.31 316.67,-249.89 323.38,-247.88"/>
</a>
</g>
</g>
<!-- Node36 -->
<g id="Node000036" class="node">
<title>Node36</title>
<g id="a_Node000036"><a xlink:href="validate__types_8h.html" target="_top" xlink:title=" ">
<polygon fill="white" stroke="#666666" points="445.5,-294 347.5,-294 347.5,-275 445.5,-275 445.5,-294"/>
<text text-anchor="middle" x="396.5" y="-282" font-family="Helvetica,sans-Serif" font-size="10.00">validate_types.h</text>
</a>
</g>
</g>
<!-- Node5&#45;&gt;Node36 -->
<g id="edge26_Node000005_Node000036" class="edge">
<title>Node5&#45;&gt;Node36</title>
<g id="a_edge26_Node000005_Node000036"><a xlink:title=" ">
<path fill="none" stroke="#63b8ff" d="M364.9,-384.74C366.99,-372.36 371.36,-349.14 377.5,-330 380.39,-321 384.4,-311.32 388,-303.29"/>
<polygon fill="#63b8ff" stroke="#63b8ff" points="391.19,-304.73 392.22,-294.18 384.84,-301.78 391.19,-304.73"/>
</a>
</g>
</g>
<!-- Node37 -->
<g id="Node000037" class="node">
<title>Node37</title>
<g id="a_Node000037"><a xlink:href="validate__expressions_8h.html" target="_top" xlink:title=" ">
<polygon fill="white" stroke="#666666" points="515,-349 386,-349 386,-330 515,-330 515,-349"/>
<text text-anchor="middle" x="450.5" y="-337" font-family="Helvetica,sans-Serif" font-size="10.00">validate_expressions.h</text>
</a>
</g>
</g>
<!-- Node5&#45;&gt;Node37 -->
<g id="edge25_Node000005_Node000037" class="edge">
<title>Node5&#45;&gt;Node37</title>
<g id="a_edge25_Node000005_Node000037"><a xlink:title=" ">
<path fill="none" stroke="#63b8ff" d="M377.48,-384.98C390.97,-376.77 411.63,-364.18 427.54,-354.49"/>
<polygon fill="#63b8ff" stroke="#63b8ff" points="429.55,-357.36 436.27,-349.17 425.91,-351.38 429.55,-357.36"/>
</a>
</g>
</g>
<!-- Node38 -->
<g id="Node000038" class="node">
<title>Node38</title>
<g id="a_Node000038"><a xlink:title=" ">
<polygon fill="#e0e0e0" stroke="#999999" points="291,-349 226,-349 226,-330 291,-330 291,-349"/>
<text text-anchor="middle" x="258.5" y="-337" font-family="Helvetica,sans-Serif" font-size="10.00">functional</text>
</a>
</g>
</g>
<!-- Node5&#45;&gt;Node38 -->
<g id="edge28_Node000005_Node000038" class="edge">
<title>Node5&#45;&gt;Node38</title>
<g id="a_edge28_Node000005_Node000038"><a xlink:title=" ">
<path fill="none" stroke="#63b8ff" d="M346.63,-384.98C329.89,-376.54 304,-363.47 284.61,-353.68"/>
<polygon fill="#63b8ff" stroke="#63b8ff" points="286.18,-350.55 275.68,-349.17 283.03,-356.8 286.18,-350.55"/>
</a>
</g>
</g>
<!-- Node8 -->
<g id="Node000008" class="node">
<title>Node8</title>
<g id="a_Node000008"><a xlink:href="source__location_8h.html" target="_top" xlink:title=" ">
<polygon fill="white" stroke="#666666" points="523.5,-184 421.5,-184 421.5,-165 523.5,-165 523.5,-184"/>
<text text-anchor="middle" x="472.5" y="-172" font-family="Helvetica,sans-Serif" font-size="10.00">source_location.h</text>
</a>
</g>
</g>
<!-- Node7&#45;&gt;Node8 -->
<g id="edge7_Node000007_Node000008" class="edge">
<title>Node7&#45;&gt;Node8</title>
<g id="a_edge7_Node000007_Node000008"><a xlink:title=" ">
<path fill="none" stroke="#63b8ff" d="M634.31,-329.74C606.82,-303.53 524.97,-225.51 489.36,-191.57"/>
<polygon fill="#63b8ff" stroke="#63b8ff" points="491.39,-188.67 481.74,-184.31 486.56,-193.74 491.39,-188.67"/>
</a>
</g>
</g>
<!-- Node7&#45;&gt;Node33 -->
<g id="edge16_Node000007_Node000033" class="edge">
<title>Node7&#45;&gt;Node33</title>
<g id="a_edge16_Node000007_Node000033"><a xlink:title=" ">
<path fill="none" stroke="#63b8ff" d="M625.99,-329.98C608.53,-321.5 581.49,-308.35 561.33,-298.54"/>
<polygon fill="#63b8ff" stroke="#63b8ff" points="562.86,-295.4 552.33,-294.17 559.79,-301.69 562.86,-295.4"/>
</a>
</g>
</g>
<!-- Node7&#45;&gt;Node35 -->
<g id="edge24_Node000007_Node000035" class="edge">
<title>Node7&#45;&gt;Node35</title>
<g id="a_edge24_Node000007_Node000035"><a xlink:title=" ">
<path fill="none" stroke="#63b8ff" d="M619.81,-331.99C583.73,-321.98 516.73,-303.03 493.5,-294 475.53,-287.01 472.4,-282.16 454.5,-275 421.92,-261.97 383.91,-250.09 355.73,-241.89"/>
<polygon fill="#63b8ff" stroke="#63b8ff" points="356.4,-238.44 345.82,-239.04 354.46,-245.16 356.4,-238.44"/>
</a>
</g>
</g>
<!-- Node7&#45;&gt;Node36 -->
<g id="edge23_Node000007_Node000036" class="edge">
<title>Node7&#45;&gt;Node36</title>
<g id="a_edge23_Node000007_Node000036"><a xlink:title=" ">
<path fill="none" stroke="#63b8ff" d="M619.74,-332.24C616.64,-331.46 613.5,-330.7 610.5,-330 556.27,-317.38 493.9,-304.61 450.53,-296"/>
<polygon fill="#63b8ff" stroke="#63b8ff" points="450.98,-292.52 440.49,-294.02 449.62,-299.39 450.98,-292.52"/>
</a>
</g>
</g>
<!-- Node9 -->
<g id="Node000009" class="node">
<title>Node9</title>
<g id="a_Node000009"><a xlink:href="deprecate_8h.html" target="_top" xlink:title=" ">
<polygon fill="white" stroke="#666666" points="509.5,-129 435.5,-129 435.5,-110 509.5,-110 509.5,-129"/>
<text text-anchor="middle" x="472.5" y="-117" font-family="Helvetica,sans-Serif" font-size="10.00">deprecate.h</text>
</a>
</g>
</g>
<!-- Node8&#45;&gt;Node9 -->
<g id="edge8_Node000008_Node000009" class="edge">
<title>Node8&#45;&gt;Node9</title>
<g id="a_edge8_Node000008_Node000009"><a xlink:title=" ">
<path fill="none" stroke="#63b8ff" d="M472.5,-164.75C472.5,-157.8 472.5,-147.85 472.5,-139.13"/>
<polygon fill="#63b8ff" stroke="#63b8ff" points="476,-139.09 472.5,-129.09 469,-139.09 476,-139.09"/>
</a>
</g>
</g>
<!-- Node10 -->
<g id="Node000010" class="node">
<title>Node10</title>
<g id="a_Node000010"><a xlink:href="irep_8h.html" target="_top" xlink:title=" ">
<polygon fill="#fff0f0" stroke="red" points="609.5,-129 565.5,-129 565.5,-110 609.5,-110 609.5,-129"/>
<text text-anchor="middle" x="587.5" y="-117" font-family="Helvetica,sans-Serif" font-size="10.00">irep.h</text>
</a>
</g>
</g>
<!-- Node8&#45;&gt;Node10 -->
<g id="edge9_Node000008_Node000010" class="edge">
<title>Node8&#45;&gt;Node10</title>
<g id="a_edge9_Node000008_Node000010"><a xlink:title=" ">
<path fill="none" stroke="#63b8ff" d="M490.98,-164.98C509.48,-156.46 538.18,-143.23 559.48,-133.41"/>
<polygon fill="#63b8ff" stroke="#63b8ff" points="561.07,-136.53 568.69,-129.17 558.14,-130.18 561.07,-136.53"/>
</a>
</g>
</g>
<!-- Node11 -->
<g id="Node000011" class="node">
<title>Node11</title>
<g id="a_Node000011"><a xlink:title=" ">
<polygon fill="#e0e0e0" stroke="#999999" points="659.5,-19 615.5,-19 615.5,0 659.5,0 659.5,-19"/>
<text text-anchor="middle" x="637.5" y="-7" font-family="Helvetica,sans-Serif" font-size="10.00">string</text>
</a>
</g>
</g>
<!-- Node8&#45;&gt;Node11 -->
<g id="edge15_Node000008_Node000011" class="edge">
<title>Node8&#45;&gt;Node11</title>
<g id="a_edge15_Node000008_Node000011"><a xlink:title=" ">
<path fill="none" stroke="#63b8ff" d="M523.76,-171.15C555.68,-166.87 594.99,-155.97 618.5,-129 642.72,-101.22 642.54,-55.24 640.12,-29.49"/>
<polygon fill="#63b8ff" stroke="#63b8ff" points="643.55,-28.75 638.92,-19.22 636.6,-29.55 643.55,-28.75"/>
</a>
</g>
</g>
<!-- Node32 -->
<g id="Node000032" class="node">
<title>Node32</title>
<g id="a_Node000032"><a xlink:title=" ">
<polygon fill="#e0e0e0" stroke="#999999" points="417.5,-129 361.5,-129 361.5,-110 417.5,-110 417.5,-129"/>
<text text-anchor="middle" x="389.5" y="-117" font-family="Helvetica,sans-Serif" font-size="10.00">optional</text>
</a>
</g>
</g>
<!-- Node8&#45;&gt;Node32 -->
<g id="edge14_Node000008_Node000032" class="edge">
<title>Node8&#45;&gt;Node32</title>
<g id="a_edge14_Node000008_Node000032"><a xlink:title=" ">
<path fill="none" stroke="#63b8ff" d="M459.16,-164.98C446.41,-156.84 426.95,-144.41 411.83,-134.76"/>
<polygon fill="#63b8ff" stroke="#63b8ff" points="413.39,-131.6 403.08,-129.17 409.62,-137.5 413.39,-131.6"/>
</a>
</g>
</g>
<!-- Node10&#45;&gt;Node11 -->
<g id="edge10_Node000010_Node000011" class="edge">
<title>Node10&#45;&gt;Node11</title>
<g id="a_edge10_Node000010_Node000011"><a xlink:title=" ">
<path fill="none" stroke="#63b8ff" d="M591.59,-109.66C599.8,-91.93 618.41,-51.73 629.25,-28.32"/>
<polygon fill="#63b8ff" stroke="#63b8ff" points="632.47,-29.7 633.49,-19.16 626.11,-26.76 632.47,-29.7"/>
</a>
</g>
</g>
<!-- Node10&#45;&gt;Node13 -->
<g id="edge11_Node000010_Node000013" class="edge">
<title>Node10&#45;&gt;Node13</title>
<g id="a_edge11_Node000010_Node000013"><a xlink:title=" ">
<path fill="none" stroke="#63b8ff" d="M565.43,-112.21C534.87,-103.5 479.14,-87.62 441.23,-76.82"/>
<polygon fill="#63b8ff" stroke="#63b8ff" points="442.1,-73.43 431.52,-74.05 440.18,-80.16 442.1,-73.43"/>
</a>
</g>
</g>
<!-- Node13&#45;&gt;Node11 -->
<g id="edge12_Node000013_Node000011" class="edge">
<title>Node13&#45;&gt;Node11</title>
<g id="a_edge12_Node000013_Node000011"><a xlink:title=" ">
<path fill="none" stroke="#63b8ff" d="M436.07,-55.74C481.58,-45.52 561,-27.68 605.3,-17.73"/>
<polygon fill="#63b8ff" stroke="#63b8ff" points="606.25,-21.1 615.24,-15.5 604.72,-14.27 606.25,-21.1"/>
</a>
</g>
</g>
<!-- Node16 -->
<g id="Node000016" class="node">
<title>Node16</title>
<g id="a_Node000016"><a xlink:title=" ">
<polygon fill="#e0e0e0" stroke="#999999" points="232,-19 163,-19 163,0 232,0 232,-19"/>
<text text-anchor="middle" x="197.5" y="-7" font-family="Helvetica,sans-Serif" font-size="10.00">type_traits</text>
</a>
</g>
</g>
<!-- Node13&#45;&gt;Node16 -->
<g id="edge13_Node000013_Node000016" class="edge">
<title>Node13&#45;&gt;Node16</title>
<g id="a_edge13_Node000013_Node000016"><a xlink:title=" ">
<path fill="none" stroke="#63b8ff" d="M368.72,-54.98C333.88,-45.93 278.63,-31.58 240.36,-21.64"/>
<polygon fill="#63b8ff" stroke="#63b8ff" points="241.09,-18.21 230.53,-19.08 239.33,-24.98 241.09,-18.21"/>
</a>
</g>
</g>
<!-- Node33&#45;&gt;Node16 -->
<g id="edge17_Node000033_Node000016" class="edge">
<title>Node33&#45;&gt;Node16</title>
<g id="a_edge17_Node000033_Node000016"><a xlink:title=" ">
<path fill="none" stroke="#63b8ff" d="M523.67,-274.73C475.24,-235.49 278.22,-75.89 216.25,-25.69"/>
<polygon fill="#63b8ff" stroke="#63b8ff" points="218.1,-22.68 208.12,-19.11 213.69,-28.12 218.1,-22.68"/>
</a>
</g>
</g>
<!-- Node34 -->
<g id="Node000034" class="node">
<title>Node34</title>
<g id="a_Node000034"><a xlink:href="exception__utils_8h.html" target="_top" xlink:title=" ">
<polygon fill="white" stroke="#666666" points="705.5,-239 605.5,-239 605.5,-220 705.5,-220 705.5,-239"/>
<text text-anchor="middle" x="655.5" y="-227" font-family="Helvetica,sans-Serif" font-size="10.00">exception_utils.h</text>
</a>
</g>
</g>
<!-- Node33&#45;&gt;Node34 -->
<g id="edge18_Node000033_Node000034" class="edge">
<title>Node33&#45;&gt;Node34</title>
<g id="a_edge18_Node000033_Node000034"><a xlink:title=" ">
<path fill="none" stroke="#63b8ff" d="M553.94,-274.98C573.49,-266.42 603.88,-253.11 626.32,-243.28"/>
<polygon fill="#63b8ff" stroke="#63b8ff" points="627.95,-246.39 635.71,-239.17 625.14,-239.98 627.95,-246.39"/>
</a>
</g>
</g>
<!-- Node33&#45;&gt;Node35 -->
<g id="edge22_Node000033_Node000035" class="edge">
<title>Node33&#45;&gt;Node35</title>
<g id="a_edge22_Node000033_Node000035"><a xlink:title=" ">
<path fill="none" stroke="#63b8ff" d="M501.56,-275.57C463.83,-266.48 401.79,-251.53 359.59,-241.36"/>
<polygon fill="#63b8ff" stroke="#63b8ff" points="360.39,-237.96 349.85,-239.02 358.75,-244.76 360.39,-237.96"/>
</a>
</g>
</g>
<!-- Node34&#45;&gt;Node8 -->
<g id="edge21_Node000034_Node000008" class="edge">
<title>Node34&#45;&gt;Node8</title>
<g id="a_edge21_Node000034_Node000008"><a xlink:title=" ">
<path fill="none" stroke="#63b8ff" d="M626.1,-219.98C595.11,-211.01 546.12,-196.82 511.83,-186.89"/>
<polygon fill="#63b8ff" stroke="#63b8ff" points="512.71,-183.5 502.13,-184.08 510.76,-190.23 512.71,-183.5"/>
</a>
</g>
</g>
<!-- Node34&#45;&gt;Node11 -->
<g id="edge19_Node000034_Node000011" class="edge">
<title>Node34&#45;&gt;Node11</title>
<g id="a_edge19_Node000034_Node000011"><a xlink:title=" ">
<path fill="none" stroke="#63b8ff" d="M656.54,-219.73C659.36,-194.09 666.16,-117.17 654.5,-55 652.8,-45.96 649.37,-36.37 646.03,-28.42"/>
<polygon fill="#63b8ff" stroke="#63b8ff" points="649.14,-26.79 641.85,-19.09 642.75,-29.65 649.14,-26.79"/>
</a>
</g>
</g>
<!-- Node34&#45;&gt;Node13 -->
<g id="edge20_Node000034_Node000013" class="edge">
<title>Node34&#45;&gt;Node13</title>
<g id="a_edge20_Node000034_Node000013"><a xlink:title=" ">
<path fill="none" stroke="#63b8ff" d="M647.66,-219.89C627.87,-198.61 573.58,-142.89 518.5,-110 494.66,-95.77 465.48,-84.66 442.22,-77.1"/>
<polygon fill="#63b8ff" stroke="#63b8ff" points="443.24,-73.75 432.65,-74.08 441.14,-80.43 443.24,-73.75"/>
</a>
</g>
</g>
<!-- Node39&#45;&gt;Node5 -->
<g id="edge34_Node000039_Node000005" class="edge">
<title>Node39&#45;&gt;Node5</title>
<g id="a_edge34_Node000039_Node000005"><a xlink:title=" ">
<path fill="none" stroke="#63b8ff" d="M298.87,-439.98C310.59,-431.92 328.42,-419.65 342.39,-410.03"/>
<polygon fill="#63b8ff" stroke="#63b8ff" points="344.65,-412.72 350.9,-404.17 340.68,-406.96 344.65,-412.72"/>
</a>
</g>
</g>
<!-- Node39&#45;&gt;Node13 -->
<g id="edge33_Node000039_Node000013" class="edge">
<title>Node39&#45;&gt;Node13</title>
<g id="a_edge33_Node000039_Node000013"><a xlink:title=" ">
<path fill="none" stroke="#63b8ff" d="M283.19,-439.77C278.12,-427.03 267.64,-402.92 254.5,-385 240.93,-366.5 226.43,-370.14 217.5,-349 214.22,-341.22 216.2,-338.34 217.5,-330 225.37,-279.3 226.88,-264.45 252.5,-220 285.5,-162.76 305.77,-156.71 352.5,-110 362.56,-99.95 374.34,-89.21 383.83,-80.81"/>
<polygon fill="#63b8ff" stroke="#63b8ff" points="386.27,-83.32 391.48,-74.1 381.66,-78.06 386.27,-83.32"/>
</a>
</g>
</g>
<!-- Node39&#45;&gt;Node16 -->
<g id="edge31_Node000039_Node000016" class="edge">
<title>Node39&#45;&gt;Node16</title>
<g id="a_edge31_Node000039_Node000016"><a xlink:title=" ">
<path fill="none" stroke="#63b8ff" d="M249.93,-441.57C226.8,-435.4 197.9,-424.11 179.5,-404 159.53,-382.17 159.5,-370.09 159.5,-340.5 159.5,-340.5 159.5,-340.5 159.5,-118.5 159.5,-85.02 175.95,-48.84 187.2,-28.01"/>
<polygon fill="#63b8ff" stroke="#63b8ff" points="190.37,-29.53 192.22,-19.1 184.26,-26.1 190.37,-29.53"/>
</a>
</g>
</g>
<!-- Node39&#45;&gt;Node38 -->
<g id="edge32_Node000039_Node000038" class="edge">
<title>Node39&#45;&gt;Node38</title>
<g id="a_edge32_Node000039_Node000038"><a xlink:title=" ">
<path fill="none" stroke="#63b8ff" d="M288.28,-439.65C290.42,-427.16 293.09,-403.81 287.5,-385 284.52,-374.98 278.5,-365.11 272.71,-357.22"/>
<polygon fill="#63b8ff" stroke="#63b8ff" points="275.37,-354.95 266.44,-349.25 269.87,-359.28 275.37,-354.95"/>
</a>
</g>
</g>
<!-- Node40 -->
<g id="Node000040" class="node">
<title>Node40</title>
<g id="a_Node000040"><a xlink:title=" ">
<polygon fill="#e0e0e0" stroke="#999999" points="245,-404 188,-404 188,-385 245,-385 245,-404"/>
<text text-anchor="middle" x="216.5" y="-392" font-family="Helvetica,sans-Serif" font-size="10.00">typeinfo</text>
</a>
</g>
</g>
<!-- Node39&#45;&gt;Node40 -->
<g id="edge30_Node000039_Node000040" class="edge">
<title>Node39&#45;&gt;Node40</title>
<g id="a_edge30_Node000039_Node000040"><a xlink:title=" ">
<path fill="none" stroke="#63b8ff" d="M275.25,-439.98C264.7,-432 248.7,-419.88 236.06,-410.31"/>
<polygon fill="#63b8ff" stroke="#63b8ff" points="238.04,-407.42 227.95,-404.17 233.81,-413 238.04,-407.42"/>
</a>
</g>
</g>
<!-- Node41&#45;&gt;Node11 -->
<g id="edge38_Node000041_Node000011" class="edge">
<title>Node41&#45;&gt;Node11</title>
<g id="a_edge38_Node000041_Node000011"><a xlink:title=" ">
<path fill="none" stroke="#63b8ff" d="M776.34,-439.89C762.51,-422.36 733.5,-380.79 733.5,-340.5 733.5,-340.5 733.5,-340.5 733.5,-118.5 733.5,-75.72 690.9,-42.01 662.45,-24.27"/>
<polygon fill="#63b8ff" stroke="#63b8ff" points="664.16,-21.21 653.79,-19.08 660.57,-27.22 664.16,-21.21"/>
</a>
</g>
</g>
<!-- Node19 -->
<g id="Node000019" class="node">
<title>Node19</title>
<g id="a_Node000019"><a xlink:title=" ">
<polygon fill="#e0e0e0" stroke="#999999" points="921.5,-404 873.5,-404 873.5,-385 921.5,-385 921.5,-404"/>
<text text-anchor="middle" x="897.5" y="-392" font-family="Helvetica,sans-Serif" font-size="10.00">iosfwd</text>
</a>
</g>
</g>
<!-- Node41&#45;&gt;Node19 -->
<g id="edge37_Node000041_Node000019" class="edge">
<title>Node41&#45;&gt;Node19</title>
<g id="a_edge37_Node000041_Node000019"><a xlink:title=" ">
<path fill="none" stroke="#63b8ff" d="M801.82,-439.98C820.16,-431.46 848.61,-418.23 869.73,-408.41"/>
<polygon fill="#63b8ff" stroke="#63b8ff" points="871.26,-411.56 878.85,-404.17 868.31,-405.21 871.26,-411.56"/>
</a>
</g>
</g>
<!-- Node42 -->
<g id="Node000042" class="node">
<title>Node42</title>
<g id="a_Node000042"><a xlink:title=" ">
<polygon fill="#e0e0e0" stroke="#999999" points="855.5,-404 761.5,-404 761.5,-385 855.5,-385 855.5,-404"/>
<text text-anchor="middle" x="808.5" y="-392" font-family="Helvetica,sans-Serif" font-size="10.00">big&#45;int/bigint.hh</text>
</a>
</g>
</g>
<!-- Node41&#45;&gt;Node42 -->
<g id="edge39_Node000041_Node000042" class="edge">
<title>Node41&#45;&gt;Node42</title>
<g id="a_edge39_Node000041_Node000042"><a xlink:title=" ">
<path fill="none" stroke="#63b8ff" d="M787.63,-439.75C791.01,-432.57 795.92,-422.18 800.12,-413.27"/>
<polygon fill="#63b8ff" stroke="#63b8ff" points="803.35,-414.63 804.45,-404.09 797.02,-411.64 803.35,-414.63"/>
</a>
</g>
</g>
<!-- Node43&#45;&gt;Node41 -->
<g id="edge44_Node000043_Node000041" class="edge">
<title>Node43&#45;&gt;Node41</title>
<g id="a_edge44_Node000043_Node000041"><a xlink:title=" ">
<path fill="none" stroke="#63b8ff" d="M809.38,-494.75C805.14,-487.49 798.97,-476.95 793.72,-467.98"/>
<polygon fill="#63b8ff" stroke="#63b8ff" points="796.59,-465.95 788.52,-459.09 790.55,-469.49 796.59,-465.95"/>
</a>
</g>
</g>
<!-- Node43&#45;&gt;Node19 -->
<g id="edge43_Node000043_Node000019" class="edge">
<title>Node43&#45;&gt;Node19</title>
<g id="a_edge43_Node000043_Node000019"><a xlink:title=" ">
<path fill="none" stroke="#63b8ff" d="M821.29,-494.66C835.1,-476.69 866.65,-435.64 884.52,-412.38"/>
<polygon fill="#63b8ff" stroke="#63b8ff" points="887.53,-414.22 890.85,-404.16 881.98,-409.95 887.53,-414.22"/>
</a>
</g>
</g>
<!-- Node44 -->
<g id="Node000044" class="node">
<title>Node44</title>
<g id="a_Node000044"><a xlink:href="format__spec_8h.html" target="_top" xlink:title=" ">
<polygon fill="white" stroke="#666666" points="960.5,-459 874.5,-459 874.5,-440 960.5,-440 960.5,-459"/>
<text text-anchor="middle" x="917.5" y="-447" font-family="Helvetica,sans-Serif" font-size="10.00">format_spec.h</text>
</a>
</g>
</g>
<!-- Node43&#45;&gt;Node44 -->
<g id="edge45_Node000043_Node000044" class="edge">
<title>Node43&#45;&gt;Node44</title>
<g id="a_edge45_Node000043_Node000044"><a xlink:title=" ">
<path fill="none" stroke="#63b8ff" d="M831.05,-494.98C847.39,-486.57 872.63,-473.59 891.63,-463.81"/>
<polygon fill="#63b8ff" stroke="#63b8ff" points="893.36,-466.86 900.65,-459.17 890.16,-460.63 893.36,-466.86"/>
</a>
</g>
</g>
</g>
</svg>
