<?xml version="1.0" encoding="UTF-8" standalone="no"?>
<!DOCTYPE svg PUBLIC "-//W3C//DTD SVG 1.1//EN"
 "http://www.w3.org/Graphics/SVG/1.1/DTD/svg11.dtd">
<!-- Generated by graphviz version 2.43.0 (0)
 -->
<!-- Title: /home/runner/work/cbmc/cbmc/src/util/std_types.cpp Pages: 1 -->
<svg width="1033pt" height="753pt"
 viewBox="0.00 0.00 1033.00 753.00" xmlns="http://www.w3.org/2000/svg" xmlns:xlink="http://www.w3.org/1999/xlink">
<g id="graph0" class="graph" transform="scale(1 1) rotate(0) translate(4 749)">
<title>/home/runner/work/cbmc/cbmc/src/util/std_types.cpp</title>
<!-- Node1 -->
<g id="Node000001" class="node">
<title>Node1</title>
<g id="a_Node000001"><a xlink:title="Pre&#45;defined types.">
<polygon fill="#999999" stroke="#666666" points="612,-745 460,-745 460,-715 612,-715 612,-745"/>
<text text-anchor="start" x="468" y="-733" font-family="Helvetica,sans-Serif" font-size="10.00">/home/runner/work/cbmc</text>
<text text-anchor="middle" x="536" y="-722" font-family="Helvetica,sans-Serif" font-size="10.00">/cbmc/src/util/std_types.cpp</text>
</a>
</g>
</g>
<!-- Node2 -->
<g id="Node000002" class="node">
<title>Node2</title>
<g id="a_Node000002"><a xlink:href="std__types_8h.html" target="_top" xlink:title="Pre&#45;defined types.">
<polygon fill="white" stroke="#666666" points="590.5,-514 517.5,-514 517.5,-495 590.5,-495 590.5,-514"/>
<text text-anchor="middle" x="554" y="-502" font-family="Helvetica,sans-Serif" font-size="10.00">std_types.h</text>
</a>
</g>
</g>
<!-- Node1&#45;&gt;Node2 -->
<g id="edge1_Node000001_Node000002" class="edge">
<title>Node1&#45;&gt;Node2</title>
<g id="a_edge1_Node000001_Node000002"><a xlink:title=" ">
<path fill="none" stroke="#63b8ff" d="M537.15,-714.68C540.29,-675.76 548.96,-568.07 552.48,-524.33"/>
<polygon fill="#63b8ff" stroke="#63b8ff" points="555.98,-524.48 553.3,-514.23 549.01,-523.92 555.98,-524.48"/>
</a>
</g>
</g>
<!-- Node41 -->
<g id="Node000041" class="node">
<title>Node41</title>
<g id="a_Node000041"><a xlink:href="arith__tools_8h.html" target="_top" xlink:title=" ">
<polygon fill="white" stroke="#666666" points="295.5,-624 218.5,-624 218.5,-605 295.5,-605 295.5,-624"/>
<text text-anchor="middle" x="257" y="-612" font-family="Helvetica,sans-Serif" font-size="10.00">arith_tools.h</text>
</a>
</g>
</g>
<!-- Node1&#45;&gt;Node41 -->
<g id="edge44_Node000001_Node000041" class="edge">
<title>Node1&#45;&gt;Node41</title>
<g id="a_edge44_Node000001_Node000041"><a xlink:title=" ">
<path fill="none" stroke="#63b8ff" d="M501.51,-714.97C446.59,-692.63 340.11,-649.31 287.69,-627.98"/>
<polygon fill="#63b8ff" stroke="#63b8ff" points="288.83,-624.67 278.25,-624.14 286.19,-631.16 288.83,-624.67"/>
</a>
</g>
</g>
<!-- Node42 -->
<g id="Node000042" class="node">
<title>Node42</title>
<g id="a_Node000042"><a xlink:href="std__expr_8h.html" target="_top" xlink:title="API to expression classes.">
<polygon fill="white" stroke="#666666" points="507.5,-569 440.5,-569 440.5,-550 507.5,-550 507.5,-569"/>
<text text-anchor="middle" x="474" y="-557" font-family="Helvetica,sans-Serif" font-size="10.00">std_expr.h</text>
</a>
</g>
</g>
<!-- Node1&#45;&gt;Node42 -->
<g id="edge62_Node000001_Node000042" class="edge">
<title>Node1&#45;&gt;Node42</title>
<g id="a_edge62_Node000001_Node000042"><a xlink:title=" ">
<path fill="none" stroke="#63b8ff" d="M530.82,-714.92C519.63,-684.52 493.22,-612.73 480.74,-578.83"/>
<polygon fill="#63b8ff" stroke="#63b8ff" points="483.96,-577.43 477.22,-569.25 477.39,-579.85 483.96,-577.43"/>
</a>
</g>
</g>
<!-- Node44 -->
<g id="Node000044" class="node">
<title>Node44</title>
<g id="a_Node000044"><a xlink:href="c__types_8h.html" target="_top" xlink:title=" ">
<polygon fill="white" stroke="#666666" points="642.5,-679 579.5,-679 579.5,-660 642.5,-660 642.5,-679"/>
<text text-anchor="middle" x="611" y="-667" font-family="Helvetica,sans-Serif" font-size="10.00">c_types.h</text>
</a>
</g>
</g>
<!-- Node1&#45;&gt;Node44 -->
<g id="edge52_Node000001_Node000044" class="edge">
<title>Node1&#45;&gt;Node44</title>
<g id="a_edge52_Node000001_Node000044"><a xlink:title=" ">
<path fill="none" stroke="#63b8ff" d="M554.16,-714.84C565.49,-706 580.06,-694.63 591.62,-685.62"/>
<polygon fill="#63b8ff" stroke="#63b8ff" points="594.03,-688.18 599.76,-679.27 589.72,-682.66 594.03,-688.18"/>
</a>
</g>
</g>
<!-- Node47 -->
<g id="Node000047" class="node">
<title>Node47</title>
<g id="a_Node000047"><a xlink:href="namespace_8h.html" target="_top" xlink:title=" ">
<polygon fill="white" stroke="#666666" points="898,-184 816,-184 816,-165 898,-165 898,-184"/>
<text text-anchor="middle" x="857" y="-172" font-family="Helvetica,sans-Serif" font-size="10.00">namespace.h</text>
</a>
</g>
</g>
<!-- Node1&#45;&gt;Node47 -->
<g id="edge58_Node000001_Node000047" class="edge">
<title>Node1&#45;&gt;Node47</title>
<g id="a_edge58_Node000001_Node000047"><a xlink:title=" ">
<path fill="none" stroke="#63b8ff" d="M612.2,-724.45C735.48,-714.97 965,-687.63 965,-615.5 965,-615.5 965,-615.5 965,-338.5 965,-274.89 907.14,-217.07 876.12,-190.64"/>
<polygon fill="#63b8ff" stroke="#63b8ff" points="878.08,-187.73 868.15,-184.04 873.62,-193.12 878.08,-187.73"/>
</a>
</g>
</g>
<!-- Node3 -->
<g id="Node000003" class="node">
<title>Node3</title>
<g id="a_Node000003"><a xlink:href="expr_8h.html" target="_top" xlink:title=" ">
<polygon fill="white" stroke="#666666" points="652.5,-404 605.5,-404 605.5,-385 652.5,-385 652.5,-404"/>
<text text-anchor="middle" x="629" y="-392" font-family="Helvetica,sans-Serif" font-size="10.00">expr.h</text>
</a>
</g>
</g>
<!-- Node2&#45;&gt;Node3 -->
<g id="edge2_Node000002_Node000003" class="edge">
<title>Node2&#45;&gt;Node3</title>
<g id="a_edge2_Node000002_Node000003"><a xlink:title=" ">
<path fill="none" stroke="#63b8ff" d="M590.77,-502.13C621.54,-498.8 663.74,-488.68 685,-459 698.12,-440.68 675.44,-421.53 655.14,-409.11"/>
<polygon fill="#63b8ff" stroke="#63b8ff" points="656.81,-406.04 646.4,-404.07 653.31,-412.1 656.81,-406.04"/>
</a>
</g>
</g>
<!-- Node11 -->
<g id="Node000011" class="node">
<title>Node11</title>
<g id="a_Node000011"><a xlink:href="src_2util_2invariant_8h.html" target="_top" xlink:title=" ">
<polygon fill="#fff0f0" stroke="red" points="515.5,-74 446.5,-74 446.5,-55 515.5,-55 515.5,-74"/>
<text text-anchor="middle" x="481" y="-62" font-family="Helvetica,sans-Serif" font-size="10.00">invariant.h</text>
</a>
</g>
</g>
<!-- Node2&#45;&gt;Node11 -->
<g id="edge37_Node000002_Node000011" class="edge">
<title>Node2&#45;&gt;Node11</title>
<g id="a_edge37_Node000002_Node000011"><a xlink:title=" ">
<path fill="none" stroke="#63b8ff" d="M551.81,-494.89C543.52,-461.93 513.68,-340.59 498,-239 489.36,-183.06 484.27,-116.25 482.16,-84.31"/>
<polygon fill="#63b8ff" stroke="#63b8ff" points="485.64,-83.96 481.51,-74.21 478.66,-84.41 485.64,-83.96"/>
</a>
</g>
</g>
<!-- Node31 -->
<g id="Node000031" class="node">
<title>Node31</title>
<g id="a_Node000031"><a xlink:href="validate_8h.html" target="_top" xlink:title=" ">
<polygon fill="white" stroke="#666666" points="769.5,-294 704.5,-294 704.5,-275 769.5,-275 769.5,-294"/>
<text text-anchor="middle" x="737" y="-282" font-family="Helvetica,sans-Serif" font-size="10.00">validate.h</text>
</a>
</g>
</g>
<!-- Node2&#45;&gt;Node31 -->
<g id="edge42_Node000002_Node000031" class="edge">
<title>Node2&#45;&gt;Node31</title>
<g id="a_edge42_Node000002_Node000031"><a xlink:title=" ">
<path fill="none" stroke="#63b8ff" d="M590.52,-497.04C655.23,-483.3 787.38,-444.26 832,-349 844.53,-322.25 810.35,-305.14 779.56,-295.5"/>
<polygon fill="#63b8ff" stroke="#63b8ff" points="780.32,-292.08 769.74,-292.63 778.36,-298.8 780.32,-292.08"/>
</a>
</g>
</g>
<!-- Node37 -->
<g id="Node000037" class="node">
<title>Node37</title>
<g id="a_Node000037"><a xlink:href="expr__cast_8h.html" target="_top" xlink:title="Templated functions to cast to specific exprt&#45;derived classes.">
<polygon fill="white" stroke="#666666" points="510.5,-459 437.5,-459 437.5,-440 510.5,-440 510.5,-459"/>
<text text-anchor="middle" x="474" y="-447" font-family="Helvetica,sans-Serif" font-size="10.00">expr_cast.h</text>
</a>
</g>
</g>
<!-- Node2&#45;&gt;Node37 -->
<g id="edge31_Node000002_Node000037" class="edge">
<title>Node2&#45;&gt;Node37</title>
<g id="a_edge31_Node000002_Node000037"><a xlink:title=" ">
<path fill="none" stroke="#63b8ff" d="M541.15,-494.98C528.86,-486.84 510.09,-474.41 495.52,-464.76"/>
<polygon fill="#63b8ff" stroke="#63b8ff" points="497.36,-461.78 487.09,-459.17 493.49,-467.61 497.36,-461.78"/>
</a>
</g>
</g>
<!-- Node39 -->
<g id="Node000039" class="node">
<title>Node39</title>
<g id="a_Node000039"><a xlink:href="mp__arith_8h.html" target="_top" xlink:title=" ">
<polygon fill="white" stroke="#666666" points="291.5,-459 222.5,-459 222.5,-440 291.5,-440 291.5,-459"/>
<text text-anchor="middle" x="257" y="-447" font-family="Helvetica,sans-Serif" font-size="10.00">mp_arith.h</text>
</a>
</g>
</g>
<!-- Node2&#45;&gt;Node39 -->
<g id="edge38_Node000002_Node000039" class="edge">
<title>Node2&#45;&gt;Node39</title>
<g id="a_edge38_Node000002_Node000039"><a xlink:title=" ">
<path fill="none" stroke="#63b8ff" d="M517.28,-496.95C462.82,-487.23 360.74,-469.01 301.9,-458.51"/>
<polygon fill="#63b8ff" stroke="#63b8ff" points="302.25,-455.02 291.79,-456.71 301.02,-461.91 302.25,-455.02"/>
</a>
</g>
</g>
<!-- Node22 -->
<g id="Node000022" class="node">
<title>Node22</title>
<g id="a_Node000022"><a xlink:title=" ">
<polygon fill="#e0e0e0" stroke="#999999" points="675.5,-459 582.5,-459 582.5,-440 675.5,-440 675.5,-459"/>
<text text-anchor="middle" x="629" y="-447" font-family="Helvetica,sans-Serif" font-size="10.00">unordered_map</text>
</a>
</g>
</g>
<!-- Node2&#45;&gt;Node22 -->
<g id="edge43_Node000002_Node000022" class="edge">
<title>Node2&#45;&gt;Node22</title>
<g id="a_edge43_Node000002_Node000022"><a xlink:title=" ">
<path fill="none" stroke="#63b8ff" d="M566.05,-494.98C577.46,-486.92 594.83,-474.65 608.43,-465.03"/>
<polygon fill="#63b8ff" stroke="#63b8ff" points="610.58,-467.8 616.73,-459.17 606.54,-462.08 610.58,-467.8"/>
</a>
</g>
</g>
<!-- Node4 -->
<g id="Node000004" class="node">
<title>Node4</title>
<g id="a_Node000004"><a xlink:href="as__const_8h.html" target="_top" xlink:title=" ">
<polygon fill="white" stroke="#666666" points="1025,-19 957,-19 957,0 1025,0 1025,-19"/>
<text text-anchor="middle" x="991" y="-7" font-family="Helvetica,sans-Serif" font-size="10.00">as_const.h</text>
</a>
</g>
</g>
<!-- Node3&#45;&gt;Node4 -->
<g id="edge3_Node000003_Node000004" class="edge">
<title>Node3&#45;&gt;Node4</title>
<g id="a_edge3_Node000003_Node000004"><a xlink:title=" ">
<path fill="none" stroke="#63b8ff" d="M652.8,-393.8C693.14,-393.19 776.01,-386.97 832,-349 954.12,-266.18 974.77,-215.08 1018,-74 1022.97,-57.78 1014.18,-40.07 1005.33,-27.49"/>
<polygon fill="#63b8ff" stroke="#63b8ff" points="1007.93,-25.13 999.07,-19.32 1002.38,-29.39 1007.93,-25.13"/>
</a>
</g>
</g>
<!-- Node5 -->
<g id="Node000005" class="node">
<title>Node5</title>
<g id="a_Node000005"><a xlink:href="type_8h.html" target="_top" xlink:title="Defines typet, type_with_subtypet and type_with_subtypest.">
<polygon fill="white" stroke="#666666" points="675.5,-349 628.5,-349 628.5,-330 675.5,-330 675.5,-349"/>
<text text-anchor="middle" x="652" y="-337" font-family="Helvetica,sans-Serif" font-size="10.00">type.h</text>
</a>
</g>
</g>
<!-- Node3&#45;&gt;Node5 -->
<g id="edge4_Node000003_Node000005" class="edge">
<title>Node3&#45;&gt;Node5</title>
<g id="a_edge4_Node000003_Node000005"><a xlink:title=" ">
<path fill="none" stroke="#63b8ff" d="M632.8,-384.75C635.91,-377.57 640.42,-367.18 644.29,-358.27"/>
<polygon fill="#63b8ff" stroke="#63b8ff" points="647.5,-359.66 648.27,-349.09 641.08,-356.87 647.5,-359.66"/>
</a>
</g>
</g>
<!-- Node33 -->
<g id="Node000033" class="node">
<title>Node33</title>
<g id="a_Node000033"><a xlink:href="validation__mode_8h.html" target="_top" xlink:title=" ">
<polygon fill="white" stroke="#666666" points="613.5,-239 506.5,-239 506.5,-220 613.5,-220 613.5,-239"/>
<text text-anchor="middle" x="560" y="-227" font-family="Helvetica,sans-Serif" font-size="10.00">validation_mode.h</text>
</a>
</g>
</g>
<!-- Node3&#45;&gt;Node33 -->
<g id="edge29_Node000003_Node000033" class="edge">
<title>Node3&#45;&gt;Node33</title>
<g id="a_edge29_Node000003_Node000033"><a xlink:title=" ">
<path fill="none" stroke="#63b8ff" d="M617.24,-385C597.05,-369.57 556.44,-334.76 541,-294 535.22,-278.74 541.68,-260.89 548.59,-248.01"/>
<polygon fill="#63b8ff" stroke="#63b8ff" points="551.69,-249.65 553.76,-239.26 545.66,-246.08 551.69,-249.65"/>
</a>
</g>
</g>
<!-- Node34 -->
<g id="Node000034" class="node">
<title>Node34</title>
<g id="a_Node000034"><a xlink:href="validate__types_8h.html" target="_top" xlink:title=" ">
<polygon fill="white" stroke="#666666" points="648,-294 550,-294 550,-275 648,-275 648,-294"/>
<text text-anchor="middle" x="599" y="-282" font-family="Helvetica,sans-Serif" font-size="10.00">validate_types.h</text>
</a>
</g>
</g>
<!-- Node3&#45;&gt;Node34 -->
<g id="edge28_Node000003_Node000034" class="edge">
<title>Node3&#45;&gt;Node34</title>
<g id="a_edge28_Node000003_Node000034"><a xlink:title=" ">
<path fill="none" stroke="#63b8ff" d="M626.54,-384.66C621.66,-367.09 610.65,-327.45 604.13,-303.95"/>
<polygon fill="#63b8ff" stroke="#63b8ff" points="607.45,-302.86 601.41,-294.16 600.71,-304.73 607.45,-302.86"/>
</a>
</g>
</g>
<!-- Node35 -->
<g id="Node000035" class="node">
<title>Node35</title>
<g id="a_Node000035"><a xlink:href="validate__expressions_8h.html" target="_top" xlink:title=" ">
<polygon fill="white" stroke="#666666" points="822.5,-349 693.5,-349 693.5,-330 822.5,-330 822.5,-349"/>
<text text-anchor="middle" x="758" y="-337" font-family="Helvetica,sans-Serif" font-size="10.00">validate_expressions.h</text>
</a>
</g>
</g>
<!-- Node3&#45;&gt;Node35 -->
<g id="edge27_Node000003_Node000035" class="edge">
<title>Node3&#45;&gt;Node35</title>
<g id="a_edge27_Node000003_Node000035"><a xlink:title=" ">
<path fill="none" stroke="#63b8ff" d="M649.73,-384.98C670.76,-376.34 703.55,-362.87 727.54,-353.02"/>
<polygon fill="#63b8ff" stroke="#63b8ff" points="728.98,-356.21 736.9,-349.17 726.32,-349.73 728.98,-356.21"/>
</a>
</g>
</g>
<!-- Node36 -->
<g id="Node000036" class="node">
<title>Node36</title>
<g id="a_Node000036"><a xlink:title=" ">
<polygon fill="#e0e0e0" stroke="#999999" points="495.5,-349 430.5,-349 430.5,-330 495.5,-330 495.5,-349"/>
<text text-anchor="middle" x="463" y="-337" font-family="Helvetica,sans-Serif" font-size="10.00">functional</text>
</a>
</g>
</g>
<!-- Node3&#45;&gt;Node36 -->
<g id="edge30_Node000003_Node000036" class="edge">
<title>Node3&#45;&gt;Node36</title>
<g id="a_edge30_Node000003_Node000036"><a xlink:title=" ">
<path fill="none" stroke="#63b8ff" d="M605.22,-385.91C577.63,-377.1 531.84,-362.48 499.68,-352.21"/>
<polygon fill="#63b8ff" stroke="#63b8ff" points="500.36,-348.75 489.76,-349.05 498.23,-355.42 500.36,-348.75"/>
</a>
</g>
</g>
<!-- Node6 -->
<g id="Node000006" class="node">
<title>Node6</title>
<g id="a_Node000006"><a xlink:href="source__location_8h.html" target="_top" xlink:title=" ">
<polygon fill="white" stroke="#666666" points="795,-184 693,-184 693,-165 795,-165 795,-184"/>
<text text-anchor="middle" x="744" y="-172" font-family="Helvetica,sans-Serif" font-size="10.00">source_location.h</text>
</a>
</g>
</g>
<!-- Node5&#45;&gt;Node6 -->
<g id="edge5_Node000005_Node000006" class="edge">
<title>Node5&#45;&gt;Node6</title>
<g id="a_edge5_Node000005_Node000006"><a xlink:title=" ">
<path fill="none" stroke="#63b8ff" d="M675.58,-331.84C710.58,-321.71 772.82,-302.72 779,-294 798.03,-267.17 789.76,-251.08 779,-220 775.33,-209.38 767.96,-199.38 760.92,-191.55"/>
<polygon fill="#63b8ff" stroke="#63b8ff" points="763.34,-189.02 753.88,-184.25 758.3,-193.88 763.34,-189.02"/>
</a>
</g>
</g>
<!-- Node5&#45;&gt;Node31 -->
<g id="edge18_Node000005_Node000031" class="edge">
<title>Node5&#45;&gt;Node31</title>
<g id="a_edge18_Node000005_Node000031"><a xlink:title=" ">
<path fill="none" stroke="#63b8ff" d="M665.66,-329.98C678.84,-321.77 699.03,-309.18 714.57,-299.49"/>
<polygon fill="#63b8ff" stroke="#63b8ff" points="716.46,-302.43 723.09,-294.17 712.76,-296.49 716.46,-302.43"/>
</a>
</g>
</g>
<!-- Node5&#45;&gt;Node33 -->
<g id="edge26_Node000005_Node000033" class="edge">
<title>Node5&#45;&gt;Node33</title>
<g id="a_edge26_Node000005_Node000033"><a xlink:title=" ">
<path fill="none" stroke="#63b8ff" d="M655.74,-329.9C660.76,-316.89 667.87,-291.94 657,-275 646.91,-259.28 629.73,-249.03 612.59,-242.4"/>
<polygon fill="#63b8ff" stroke="#63b8ff" points="613.72,-239.08 603.13,-239.07 611.4,-245.69 613.72,-239.08"/>
</a>
</g>
</g>
<!-- Node5&#45;&gt;Node34 -->
<g id="edge25_Node000005_Node000034" class="edge">
<title>Node5&#45;&gt;Node34</title>
<g id="a_edge25_Node000005_Node000034"><a xlink:title=" ">
<path fill="none" stroke="#63b8ff" d="M643.25,-329.75C635.53,-322.03 624.1,-310.6 614.78,-301.28"/>
<polygon fill="#63b8ff" stroke="#63b8ff" points="617.14,-298.69 607.59,-294.09 612.19,-303.64 617.14,-298.69"/>
</a>
</g>
</g>
<!-- Node7 -->
<g id="Node000007" class="node">
<title>Node7</title>
<g id="a_Node000007"><a xlink:href="deprecate_8h.html" target="_top" xlink:title=" ">
<polygon fill="white" stroke="#666666" points="944,-129 870,-129 870,-110 944,-110 944,-129"/>
<text text-anchor="middle" x="907" y="-117" font-family="Helvetica,sans-Serif" font-size="10.00">deprecate.h</text>
</a>
</g>
</g>
<!-- Node6&#45;&gt;Node7 -->
<g id="edge6_Node000006_Node000007" class="edge">
<title>Node6&#45;&gt;Node7</title>
<g id="a_edge6_Node000006_Node000007"><a xlink:title=" ">
<path fill="none" stroke="#63b8ff" d="M770.19,-164.98C797.44,-156.13 840.3,-142.19 870.78,-132.28"/>
<polygon fill="#63b8ff" stroke="#63b8ff" points="872.18,-135.5 880.61,-129.08 870.01,-128.85 872.18,-135.5"/>
</a>
</g>
</g>
<!-- Node8 -->
<g id="Node000008" class="node">
<title>Node8</title>
<g id="a_Node000008"><a xlink:href="irep_8h.html" target="_top" xlink:title=" ">
<polygon fill="white" stroke="#666666" points="852,-129 808,-129 808,-110 852,-110 852,-129"/>
<text text-anchor="middle" x="830" y="-117" font-family="Helvetica,sans-Serif" font-size="10.00">irep.h</text>
</a>
</g>
</g>
<!-- Node6&#45;&gt;Node8 -->
<g id="edge7_Node000006_Node000008" class="edge">
<title>Node6&#45;&gt;Node8</title>
<g id="a_edge7_Node000006_Node000008"><a xlink:title=" ">
<path fill="none" stroke="#63b8ff" d="M757.82,-164.98C771.15,-156.77 791.58,-144.18 807.31,-134.49"/>
<polygon fill="#63b8ff" stroke="#63b8ff" points="809.25,-137.4 815.93,-129.17 805.58,-131.44 809.25,-137.4"/>
</a>
</g>
</g>
<!-- Node9 -->
<g id="Node000009" class="node">
<title>Node9</title>
<g id="a_Node000009"><a xlink:title=" ">
<polygon fill="#e0e0e0" stroke="#999999" points="652,-19 608,-19 608,0 652,0 652,-19"/>
<text text-anchor="middle" x="630" y="-7" font-family="Helvetica,sans-Serif" font-size="10.00">string</text>
</a>
</g>
</g>
<!-- Node6&#45;&gt;Node9 -->
<g id="edge17_Node000006_Node000009" class="edge">
<title>Node6&#45;&gt;Node9</title>
<g id="a_edge17_Node000006_Node000009"><a xlink:title=" ">
<path fill="none" stroke="#63b8ff" d="M742.37,-164.79C739.71,-152.07 733.67,-127.97 723,-110 720.16,-105.21 671.08,-53.53 645.39,-26.61"/>
<polygon fill="#63b8ff" stroke="#63b8ff" points="647.69,-23.94 638.25,-19.12 642.63,-28.77 647.69,-23.94"/>
</a>
</g>
</g>
<!-- Node30 -->
<g id="Node000030" class="node">
<title>Node30</title>
<g id="a_Node000030"><a xlink:title=" ">
<polygon fill="#e0e0e0" stroke="#999999" points="714,-129 658,-129 658,-110 714,-110 714,-129"/>
<text text-anchor="middle" x="686" y="-117" font-family="Helvetica,sans-Serif" font-size="10.00">optional</text>
</a>
</g>
</g>
<!-- Node6&#45;&gt;Node30 -->
<g id="edge16_Node000006_Node000030" class="edge">
<title>Node6&#45;&gt;Node30</title>
<g id="a_edge16_Node000006_Node000030"><a xlink:title=" ">
<path fill="none" stroke="#63b8ff" d="M734.68,-164.98C726.19,-157.23 713.44,-145.58 703.12,-136.14"/>
<polygon fill="#63b8ff" stroke="#63b8ff" points="705.23,-133.33 695.49,-129.17 700.51,-138.5 705.23,-133.33"/>
</a>
</g>
</g>
<!-- Node8&#45;&gt;Node9 -->
<g id="edge8_Node000008_Node000009" class="edge">
<title>Node8&#45;&gt;Node9</title>
<g id="a_edge8_Node000008_Node000009"><a xlink:title=" ">
<path fill="none" stroke="#63b8ff" d="M807.72,-110.46C786.07,-102.33 752.53,-88.86 725,-74 697.7,-59.26 668.29,-38.83 649.55,-25.16"/>
<polygon fill="#63b8ff" stroke="#63b8ff" points="651.39,-22.17 641.26,-19.05 647.23,-27.8 651.39,-22.17"/>
</a>
</g>
</g>
<!-- Node10 -->
<g id="Node000010" class="node">
<title>Node10</title>
<g id="a_Node000010"><a xlink:title=" ">
<polygon fill="#e0e0e0" stroke="#999999" points="863.5,-74 816.5,-74 816.5,-55 863.5,-55 863.5,-74"/>
<text text-anchor="middle" x="840" y="-62" font-family="Helvetica,sans-Serif" font-size="10.00">vector</text>
</a>
</g>
</g>
<!-- Node8&#45;&gt;Node10 -->
<g id="edge9_Node000008_Node000010" class="edge">
<title>Node8&#45;&gt;Node10</title>
<g id="a_edge9_Node000008_Node000010"><a xlink:title=" ">
<path fill="none" stroke="#63b8ff" d="M831.65,-109.75C832.96,-102.8 834.84,-92.85 836.48,-84.13"/>
<polygon fill="#63b8ff" stroke="#63b8ff" points="839.96,-84.56 838.38,-74.09 833.09,-83.27 839.96,-84.56"/>
</a>
</g>
</g>
<!-- Node8&#45;&gt;Node11 -->
<g id="edge10_Node000008_Node000011" class="edge">
<title>Node8&#45;&gt;Node11</title>
<g id="a_edge10_Node000008_Node000011"><a xlink:title=" ">
<path fill="none" stroke="#63b8ff" d="M807.98,-112.97C803.38,-111.91 798.54,-110.86 794,-110 699.17,-92.1 586.95,-77.8 525.96,-70.59"/>
<polygon fill="#63b8ff" stroke="#63b8ff" points="526.25,-67.1 515.91,-69.42 525.43,-74.06 526.25,-67.1"/>
</a>
</g>
</g>
<!-- Node15 -->
<g id="Node000015" class="node">
<title>Node15</title>
<g id="a_Node000015"><a xlink:href="irep__ids_8h.html" target="_top" xlink:title="util">
<polygon fill="#fff0f0" stroke="red" points="798,-74 734,-74 734,-55 798,-55 798,-74"/>
<text text-anchor="middle" x="766" y="-62" font-family="Helvetica,sans-Serif" font-size="10.00">irep_ids.h</text>
</a>
</g>
</g>
<!-- Node8&#45;&gt;Node15 -->
<g id="edge13_Node000008_Node000015" class="edge">
<title>Node8&#45;&gt;Node15</title>
<g id="a_edge13_Node000008_Node000015"><a xlink:title=" ">
<path fill="none" stroke="#63b8ff" d="M819.72,-109.98C810.16,-102.07 795.72,-90.11 784.22,-80.58"/>
<polygon fill="#63b8ff" stroke="#63b8ff" points="786.4,-77.85 776.47,-74.17 781.94,-83.24 786.4,-77.85"/>
</a>
</g>
</g>
<!-- Node26 -->
<g id="Node000026" class="node">
<title>Node26</title>
<g id="a_Node000026"><a xlink:href="forward__list__as__map_8h.html" target="_top" xlink:title=" ">
<polygon fill="#fff0f0" stroke="red" points="1008.5,-74 881.5,-74 881.5,-55 1008.5,-55 1008.5,-74"/>
<text text-anchor="middle" x="945" y="-62" font-family="Helvetica,sans-Serif" font-size="10.00">forward_list_as_map.h</text>
</a>
</g>
</g>
<!-- Node8&#45;&gt;Node26 -->
<g id="edge14_Node000008_Node000026" class="edge">
<title>Node8&#45;&gt;Node26</title>
<g id="a_edge14_Node000008_Node000026"><a xlink:title=" ">
<path fill="none" stroke="#63b8ff" d="M848.48,-109.98C866.98,-101.46 895.68,-88.23 916.98,-78.41"/>
<polygon fill="#63b8ff" stroke="#63b8ff" points="918.57,-81.53 926.19,-74.17 915.64,-75.18 918.57,-81.53"/>
</a>
</g>
</g>
<!-- Node11&#45;&gt;Node9 -->
<g id="edge11_Node000011_Node000009" class="edge">
<title>Node11&#45;&gt;Node9</title>
<g id="a_edge11_Node000011_Node000009"><a xlink:title=" ">
<path fill="none" stroke="#63b8ff" d="M504.94,-54.98C530.14,-46.02 569.96,-31.86 597.88,-21.92"/>
<polygon fill="#63b8ff" stroke="#63b8ff" points="599.33,-25.12 607.58,-18.47 596.99,-18.53 599.33,-25.12"/>
</a>
</g>
</g>
<!-- Node14 -->
<g id="Node000014" class="node">
<title>Node14</title>
<g id="a_Node000014"><a xlink:title=" ">
<polygon fill="#e0e0e0" stroke="#999999" points="515.5,-19 446.5,-19 446.5,0 515.5,0 515.5,-19"/>
<text text-anchor="middle" x="481" y="-7" font-family="Helvetica,sans-Serif" font-size="10.00">type_traits</text>
</a>
</g>
</g>
<!-- Node11&#45;&gt;Node14 -->
<g id="edge12_Node000011_Node000014" class="edge">
<title>Node11&#45;&gt;Node14</title>
<g id="a_edge12_Node000011_Node000014"><a xlink:title=" ">
<path fill="none" stroke="#63b8ff" d="M481,-54.75C481,-47.8 481,-37.85 481,-29.13"/>
<polygon fill="#63b8ff" stroke="#63b8ff" points="484.5,-29.09 481,-19.09 477.5,-29.09 484.5,-29.09"/>
</a>
</g>
</g>
<!-- Node26&#45;&gt;Node4 -->
<g id="edge15_Node000026_Node000004" class="edge">
<title>Node26&#45;&gt;Node4</title>
<g id="a_edge15_Node000026_Node000004"><a xlink:title=" ">
<path fill="none" stroke="#63b8ff" d="M952.6,-54.75C959.16,-47.18 968.82,-36.05 976.81,-26.84"/>
<polygon fill="#63b8ff" stroke="#63b8ff" points="979.63,-28.94 983.55,-19.09 974.35,-24.35 979.63,-28.94"/>
</a>
</g>
</g>
<!-- Node31&#45;&gt;Node14 -->
<g id="edge19_Node000031_Node000014" class="edge">
<title>Node31&#45;&gt;Node14</title>
<g id="a_edge19_Node000031_Node000014"><a xlink:title=" ">
<path fill="none" stroke="#63b8ff" d="M717.8,-274.97C701.53,-267.14 678.17,-254.43 661,-239 585.36,-171.03 591.14,-132.24 525,-55 516.43,-44.99 506.11,-34.48 497.62,-26.19"/>
<polygon fill="#63b8ff" stroke="#63b8ff" points="499.79,-23.42 490.15,-19.01 494.93,-28.46 499.79,-23.42"/>
</a>
</g>
</g>
<!-- Node32 -->
<g id="Node000032" class="node">
<title>Node32</title>
<g id="a_Node000032"><a xlink:href="exception__utils_8h.html" target="_top" xlink:title=" ">
<polygon fill="white" stroke="#666666" points="770,-239 670,-239 670,-220 770,-220 770,-239"/>
<text text-anchor="middle" x="720" y="-227" font-family="Helvetica,sans-Serif" font-size="10.00">exception_utils.h</text>
</a>
</g>
</g>
<!-- Node31&#45;&gt;Node32 -->
<g id="edge20_Node000031_Node000032" class="edge">
<title>Node31&#45;&gt;Node32</title>
<g id="a_edge20_Node000031_Node000032"><a xlink:title=" ">
<path fill="none" stroke="#63b8ff" d="M734.19,-274.75C731.94,-267.72 728.7,-257.62 725.88,-248.84"/>
<polygon fill="#63b8ff" stroke="#63b8ff" points="729.14,-247.54 722.75,-239.09 722.48,-249.68 729.14,-247.54"/>
</a>
</g>
</g>
<!-- Node31&#45;&gt;Node33 -->
<g id="edge24_Node000031_Node000033" class="edge">
<title>Node31&#45;&gt;Node33</title>
<g id="a_edge24_Node000031_Node000033"><a xlink:title=" ">
<path fill="none" stroke="#63b8ff" d="M708.56,-274.98C678.72,-266.05 631.62,-251.94 598.47,-242.02"/>
<polygon fill="#63b8ff" stroke="#63b8ff" points="599.24,-238.6 588.66,-239.08 597.24,-245.3 599.24,-238.6"/>
</a>
</g>
</g>
<!-- Node32&#45;&gt;Node6 -->
<g id="edge23_Node000032_Node000006" class="edge">
<title>Node32&#45;&gt;Node6</title>
<g id="a_edge23_Node000032_Node000006"><a xlink:title=" ">
<path fill="none" stroke="#63b8ff" d="M723.96,-219.75C727.21,-212.57 731.92,-202.18 735.95,-193.27"/>
<polygon fill="#63b8ff" stroke="#63b8ff" points="739.17,-194.64 740.11,-184.09 732.8,-191.75 739.17,-194.64"/>
</a>
</g>
</g>
<!-- Node32&#45;&gt;Node9 -->
<g id="edge21_Node000032_Node000009" class="edge">
<title>Node32&#45;&gt;Node9</title>
<g id="a_edge21_Node000032_Node000009"><a xlink:title=" ">
<path fill="none" stroke="#63b8ff" d="M711.38,-219.84C695.83,-203.63 663.39,-166.89 649,-129 636.23,-95.35 632.04,-53.16 630.67,-29.28"/>
<polygon fill="#63b8ff" stroke="#63b8ff" points="634.16,-28.96 630.2,-19.14 627.17,-29.29 634.16,-28.96"/>
</a>
</g>
</g>
<!-- Node32&#45;&gt;Node11 -->
<g id="edge22_Node000032_Node000011" class="edge">
<title>Node32&#45;&gt;Node11</title>
<g id="a_edge22_Node000032_Node000011"><a xlink:title=" ">
<path fill="none" stroke="#63b8ff" d="M693.66,-219.85C671.93,-212.12 640.76,-199.6 616,-184 567.88,-153.67 519.8,-106.41 496.13,-81.74"/>
<polygon fill="#63b8ff" stroke="#63b8ff" points="498.5,-79.14 489.08,-74.29 493.42,-83.96 498.5,-79.14"/>
</a>
</g>
</g>
<!-- Node37&#45;&gt;Node3 -->
<g id="edge36_Node000037_Node000003" class="edge">
<title>Node37&#45;&gt;Node3</title>
<g id="a_edge36_Node000037_Node000003"><a xlink:title=" ">
<path fill="none" stroke="#63b8ff" d="M498.9,-439.98C525.16,-431.01 566.67,-416.81 595.72,-406.88"/>
<polygon fill="#63b8ff" stroke="#63b8ff" points="597.1,-410.11 605.43,-403.56 594.83,-403.48 597.1,-410.11"/>
</a>
</g>
</g>
<!-- Node37&#45;&gt;Node11 -->
<g id="edge35_Node000037_Node000011" class="edge">
<title>Node37&#45;&gt;Node11</title>
<g id="a_edge35_Node000037_Node000011"><a xlink:title=" ">
<path fill="none" stroke="#63b8ff" d="M457.42,-439.87C444.83,-432.3 428.46,-420.01 421,-404 388.23,-333.69 440,-308.07 440,-230.5 440,-230.5 440,-230.5 440,-173.5 440,-139.57 457.91,-103.31 470.06,-82.62"/>
<polygon fill="#63b8ff" stroke="#63b8ff" points="473.07,-84.4 475.3,-74.04 467.1,-80.75 473.07,-84.4"/>
</a>
</g>
</g>
<!-- Node37&#45;&gt;Node14 -->
<g id="edge33_Node000037_Node000014" class="edge">
<title>Node37&#45;&gt;Node14</title>
<g id="a_edge33_Node000037_Node000014"><a xlink:title=" ">
<path fill="none" stroke="#63b8ff" d="M437.25,-443.83C383.05,-434.66 288,-408.83 288,-340.5 288,-340.5 288,-340.5 288,-118.5 288,-50.91 379.27,-25.2 436.28,-15.74"/>
<polygon fill="#63b8ff" stroke="#63b8ff" points="437.15,-19.15 446.5,-14.16 436.08,-12.23 437.15,-19.15"/>
</a>
</g>
</g>
<!-- Node37&#45;&gt;Node36 -->
<g id="edge34_Node000037_Node000036" class="edge">
<title>Node37&#45;&gt;Node36</title>
<g id="a_edge34_Node000037_Node000036"><a xlink:title=" ">
<path fill="none" stroke="#63b8ff" d="M480.97,-439.91C489.96,-427.75 503.69,-404.77 497,-385 493.44,-374.47 486.28,-364.48 479.45,-356.63"/>
<polygon fill="#63b8ff" stroke="#63b8ff" points="481.99,-354.23 472.61,-349.31 476.87,-359.01 481.99,-354.23"/>
</a>
</g>
</g>
<!-- Node38 -->
<g id="Node000038" class="node">
<title>Node38</title>
<g id="a_Node000038"><a xlink:title=" ">
<polygon fill="#e0e0e0" stroke="#999999" points="487.5,-404 430.5,-404 430.5,-385 487.5,-385 487.5,-404"/>
<text text-anchor="middle" x="459" y="-392" font-family="Helvetica,sans-Serif" font-size="10.00">typeinfo</text>
</a>
</g>
</g>
<!-- Node37&#45;&gt;Node38 -->
<g id="edge32_Node000037_Node000038" class="edge">
<title>Node37&#45;&gt;Node38</title>
<g id="a_edge32_Node000037_Node000038"><a xlink:title=" ">
<path fill="none" stroke="#63b8ff" d="M471.52,-439.75C469.54,-432.72 466.68,-422.62 464.19,-413.84"/>
<polygon fill="#63b8ff" stroke="#63b8ff" points="467.52,-412.76 461.43,-404.09 460.79,-414.66 467.52,-412.76"/>
</a>
</g>
</g>
<!-- Node39&#45;&gt;Node9 -->
<g id="edge40_Node000039_Node000009" class="edge">
<title>Node39&#45;&gt;Node9</title>
<g id="a_edge40_Node000039_Node000009"><a xlink:title=" ">
<path fill="none" stroke="#63b8ff" d="M264.45,-439.75C310.33,-385.88 554.55,-99.1 615.97,-26.97"/>
<polygon fill="#63b8ff" stroke="#63b8ff" points="618.71,-29.15 622.53,-19.27 613.38,-24.61 618.71,-29.15"/>
</a>
</g>
</g>
<!-- Node17 -->
<g id="Node000017" class="node">
<title>Node17</title>
<g id="a_Node000017"><a xlink:title=" ">
<polygon fill="#e0e0e0" stroke="#999999" points="148,-404 100,-404 100,-385 148,-385 148,-404"/>
<text text-anchor="middle" x="124" y="-392" font-family="Helvetica,sans-Serif" font-size="10.00">iosfwd</text>
</a>
</g>
</g>
<!-- Node39&#45;&gt;Node17 -->
<g id="edge39_Node000039_Node000017" class="edge">
<title>Node39&#45;&gt;Node17</title>
<g id="a_edge39_Node000039_Node000017"><a xlink:title=" ">
<path fill="none" stroke="#63b8ff" d="M235.63,-439.98C213.85,-431.3 179.84,-417.75 155.08,-407.88"/>
<polygon fill="#63b8ff" stroke="#63b8ff" points="156.34,-404.62 145.76,-404.17 153.75,-411.12 156.34,-404.62"/>
</a>
</g>
</g>
<!-- Node40 -->
<g id="Node000040" class="node">
<title>Node40</title>
<g id="a_Node000040"><a xlink:title=" ">
<polygon fill="#e0e0e0" stroke="#999999" points="260,-404 166,-404 166,-385 260,-385 260,-404"/>
<text text-anchor="middle" x="213" y="-392" font-family="Helvetica,sans-Serif" font-size="10.00">big&#45;int/bigint.hh</text>
</a>
</g>
</g>
<!-- Node39&#45;&gt;Node40 -->
<g id="edge41_Node000039_Node000040" class="edge">
<title>Node39&#45;&gt;Node40</title>
<g id="a_edge41_Node000039_Node000040"><a xlink:title=" ">
<path fill="none" stroke="#63b8ff" d="M249.73,-439.75C243.46,-432.18 234.21,-421.05 226.57,-411.84"/>
<polygon fill="#63b8ff" stroke="#63b8ff" points="229.21,-409.55 220.13,-404.09 223.83,-414.02 229.21,-409.55"/>
</a>
</g>
</g>
<!-- Node41&#45;&gt;Node11 -->
<g id="edge45_Node000041_Node000011" class="edge">
<title>Node41&#45;&gt;Node11</title>
<g id="a_edge45_Node000041_Node000011"><a xlink:title=" ">
<path fill="none" stroke="#63b8ff" d="M218.22,-608.38C163.97,-598.79 72,-572.63 72,-505.5 72,-505.5 72,-505.5 72,-448.5 72,-243 350.49,-115.86 447.87,-77.68"/>
<polygon fill="#63b8ff" stroke="#63b8ff" points="449.17,-80.93 457.24,-74.06 446.65,-74.4 449.17,-80.93"/>
</a>
</g>
</g>
<!-- Node41&#45;&gt;Node39 -->
<g id="edge46_Node000041_Node000039" class="edge">
<title>Node41&#45;&gt;Node39</title>
<g id="a_edge46_Node000041_Node000039"><a xlink:title=" ">
<path fill="none" stroke="#63b8ff" d="M257,-604.74C257,-579.31 257,-505.08 257,-469.69"/>
<polygon fill="#63b8ff" stroke="#63b8ff" points="260.5,-469.31 257,-459.31 253.5,-469.31 260.5,-469.31"/>
</a>
</g>
</g>
<!-- Node41&#45;&gt;Node42 -->
<g id="edge47_Node000041_Node000042" class="edge">
<title>Node41&#45;&gt;Node42</title>
<g id="a_edge47_Node000041_Node000042"><a xlink:title=" ">
<path fill="none" stroke="#63b8ff" d="M291.86,-604.98C329.53,-595.79 389.6,-581.11 430.37,-571.16"/>
<polygon fill="#63b8ff" stroke="#63b8ff" points="431.41,-574.51 440.29,-568.73 429.75,-567.71 431.41,-574.51"/>
</a>
</g>
</g>
<!-- Node43 -->
<g id="Node000043" class="node">
<title>Node43</title>
<g id="a_Node000043"><a xlink:title=" ">
<polygon fill="#e0e0e0" stroke="#999999" points="44,-569 0,-569 0,-550 44,-550 44,-569"/>
<text text-anchor="middle" x="22" y="-557" font-family="Helvetica,sans-Serif" font-size="10.00">limits</text>
</a>
</g>
</g>
<!-- Node41&#45;&gt;Node43 -->
<g id="edge51_Node000041_Node000043" class="edge">
<title>Node41&#45;&gt;Node43</title>
<g id="a_edge51_Node000041_Node000043"><a xlink:title=" ">
<path fill="none" stroke="#63b8ff" d="M218.45,-605.02C178.34,-596.17 113.72,-581.81 58,-569 56.73,-568.71 55.44,-568.41 54.14,-568.11"/>
<polygon fill="#63b8ff" stroke="#63b8ff" points="54.61,-564.62 44.08,-565.76 53.02,-571.44 54.61,-564.62"/>
</a>
</g>
</g>
<!-- Node42&#45;&gt;Node2 -->
<g id="edge50_Node000042_Node000002" class="edge">
<title>Node42&#45;&gt;Node2</title>
<g id="a_edge50_Node000042_Node000002"><a xlink:title=" ">
<path fill="none" stroke="#63b8ff" d="M486.85,-549.98C499.14,-541.84 517.91,-529.41 532.48,-519.76"/>
<polygon fill="#63b8ff" stroke="#63b8ff" points="534.51,-522.61 540.91,-514.17 530.64,-516.78 534.51,-522.61"/>
</a>
</g>
</g>
<!-- Node42&#45;&gt;Node11 -->
<g id="edge49_Node000042_Node000011" class="edge">
<title>Node42&#45;&gt;Node11</title>
<g id="a_edge49_Node000042_Node000011"><a xlink:title=" ">
<path fill="none" stroke="#63b8ff" d="M454.08,-549.98C422.38,-534.92 364,-500.41 364,-450.5 364,-450.5 364,-450.5 364,-173.5 364,-126.75 415.05,-94.64 449.71,-78.23"/>
<polygon fill="#63b8ff" stroke="#63b8ff" points="451.33,-81.33 458.99,-74.01 448.44,-74.96 451.33,-81.33"/>
</a>
</g>
</g>
<!-- Node42&#45;&gt;Node37 -->
<g id="edge48_Node000042_Node000037" class="edge">
<title>Node42&#45;&gt;Node37</title>
<g id="a_edge48_Node000042_Node000037"><a xlink:title=" ">
<path fill="none" stroke="#63b8ff" d="M474,-549.66C474,-532.17 474,-492.8 474,-469.27"/>
<polygon fill="#63b8ff" stroke="#63b8ff" points="477.5,-469.16 474,-459.16 470.5,-469.16 477.5,-469.16"/>
</a>
</g>
</g>
<!-- Node44&#45;&gt;Node7 -->
<g id="edge53_Node000044_Node000007" class="edge">
<title>Node44&#45;&gt;Node7</title>
<g id="a_edge53_Node000044_Node000007"><a xlink:title=" ">
<path fill="none" stroke="#63b8ff" d="M642.75,-664.54C722.88,-653.68 927,-620.14 927,-560.5 927,-560.5 927,-560.5 927,-228.5 927,-196.51 918.41,-160.07 912.49,-138.75"/>
<polygon fill="#63b8ff" stroke="#63b8ff" points="915.84,-137.71 909.7,-129.08 909.11,-139.66 915.84,-137.71"/>
</a>
</g>
</g>
<!-- Node45 -->
<g id="Node000045" class="node">
<title>Node45</title>
<g id="a_Node000045"><a xlink:href="pointer__expr_8h.html" target="_top" xlink:title="API to expression classes for Pointers.">
<polygon fill="white" stroke="#666666" points="654,-624 568,-624 568,-605 654,-605 654,-624"/>
<text text-anchor="middle" x="611" y="-612" font-family="Helvetica,sans-Serif" font-size="10.00">pointer_expr.h</text>
</a>
</g>
</g>
<!-- Node44&#45;&gt;Node45 -->
<g id="edge54_Node000044_Node000045" class="edge">
<title>Node44&#45;&gt;Node45</title>
<g id="a_edge54_Node000044_Node000045"><a xlink:title=" ">
<path fill="none" stroke="#63b8ff" d="M611,-659.75C611,-652.8 611,-642.85 611,-634.13"/>
<polygon fill="#63b8ff" stroke="#63b8ff" points="614.5,-634.09 611,-624.09 607.5,-634.09 614.5,-634.09"/>
</a>
</g>
</g>
<!-- Node45&#45;&gt;Node42 -->
<g id="edge57_Node000045_Node000042" class="edge">
<title>Node45&#45;&gt;Node42</title>
<g id="a_edge57_Node000045_Node000042"><a xlink:title=" ">
<path fill="none" stroke="#63b8ff" d="M588.99,-604.98C566.55,-596.3 531.52,-582.75 506.01,-572.88"/>
<polygon fill="#63b8ff" stroke="#63b8ff" points="507,-569.51 496.41,-569.17 504.48,-576.04 507,-569.51"/>
</a>
</g>
</g>
<!-- Node46 -->
<g id="Node000046" class="node">
<title>Node46</title>
<g id="a_Node000046"><a xlink:href="bitvector__types_8h.html" target="_top" xlink:title="Pre&#45;defined bitvector types.">
<polygon fill="white" stroke="#666666" points="665.5,-569 564.5,-569 564.5,-550 665.5,-550 665.5,-569"/>
<text text-anchor="middle" x="615" y="-557" font-family="Helvetica,sans-Serif" font-size="10.00">bitvector_types.h</text>
</a>
</g>
</g>
<!-- Node45&#45;&gt;Node46 -->
<g id="edge55_Node000045_Node000046" class="edge">
<title>Node45&#45;&gt;Node46</title>
<g id="a_edge55_Node000045_Node000046"><a xlink:title=" ">
<path fill="none" stroke="#63b8ff" d="M611.66,-604.75C612.18,-597.8 612.94,-587.85 613.59,-579.13"/>
<polygon fill="#63b8ff" stroke="#63b8ff" points="617.09,-579.32 614.35,-569.09 610.11,-578.8 617.09,-579.32"/>
</a>
</g>
</g>
<!-- Node46&#45;&gt;Node2 -->
<g id="edge56_Node000046_Node000002" class="edge">
<title>Node46&#45;&gt;Node2</title>
<g id="a_edge56_Node000046_Node000002"><a xlink:title=" ">
<path fill="none" stroke="#63b8ff" d="M605.2,-549.98C596.18,-542.15 582.59,-530.34 571.68,-520.86"/>
<polygon fill="#63b8ff" stroke="#63b8ff" points="573.82,-518.09 563.98,-514.17 569.23,-523.37 573.82,-518.09"/>
</a>
</g>
</g>
<!-- Node47&#45;&gt;Node7 -->
<g id="edge59_Node000047_Node000007" class="edge">
<title>Node47&#45;&gt;Node7</title>
<g id="a_edge59_Node000047_Node000007"><a xlink:title=" ">
<path fill="none" stroke="#63b8ff" d="M865.26,-164.75C872.46,-157.11 883.11,-145.82 891.85,-136.56"/>
<polygon fill="#63b8ff" stroke="#63b8ff" points="894.58,-138.76 898.9,-129.09 889.49,-133.96 894.58,-138.76"/>
</a>
</g>
</g>
<!-- Node47&#45;&gt;Node8 -->
<g id="edge61_Node000047_Node000008" class="edge">
<title>Node47&#45;&gt;Node8</title>
<g id="a_edge61_Node000047_Node000008"><a xlink:title=" ">
<path fill="none" stroke="#63b8ff" d="M852.54,-164.75C848.88,-157.57 843.59,-147.18 839.05,-138.27"/>
<polygon fill="#63b8ff" stroke="#63b8ff" points="842.03,-136.41 834.38,-129.09 835.8,-139.59 842.03,-136.41"/>
</a>
</g>
</g>
<!-- Node47&#45;&gt;Node11 -->
<g id="edge60_Node000047_Node000011" class="edge">
<title>Node47&#45;&gt;Node11</title>
<g id="a_edge60_Node000047_Node000011"><a xlink:title=" ">
<path fill="none" stroke="#63b8ff" d="M842.25,-164.93C818.12,-151.28 768.32,-124.63 723,-110 656.01,-88.38 575,-76.16 525.77,-70.19"/>
<polygon fill="#63b8ff" stroke="#63b8ff" points="526.1,-66.7 515.76,-69.01 525.28,-73.66 526.1,-66.7"/>
</a>
</g>
</g>
</g>
</svg>
