<?xml version="1.0" encoding="UTF-8" standalone="no"?>
<!DOCTYPE svg PUBLIC "-//W3C//DTD SVG 1.1//EN"
 "http://www.w3.org/Graphics/SVG/1.1/DTD/svg11.dtd">
<!-- Generated by graphviz version 2.43.0 (0)
 -->
<!-- Title: /home/runner/work/cbmc/cbmc/src/util/std_expr.h Pages: 1 -->
<svg width="712pt" height="588pt"
 viewBox="0.00 0.00 712.00 588.00" xmlns="http://www.w3.org/2000/svg" xmlns:xlink="http://www.w3.org/1999/xlink">
<g id="graph0" class="graph" transform="scale(1 1) rotate(0) translate(4 584)">
<title>/home/runner/work/cbmc/cbmc/src/util/std_expr.h</title>
<!-- Node1 -->
<g id="Node000001" class="node">
<title>Node1</title>
<g id="a_Node000001"><a xlink:title="API to expression classes.">
<polygon fill="#999999" stroke="#666666" points="168,-580 30,-580 30,-550 168,-550 168,-580"/>
<text text-anchor="start" x="38" y="-568" font-family="Helvetica,sans-Serif" font-size="10.00">/home/runner/work/cbmc</text>
<text text-anchor="middle" x="99" y="-557" font-family="Helvetica,sans-Serif" font-size="10.00">/cbmc/src/util/std_expr.h</text>
</a>
</g>
</g>
<!-- Node2 -->
<g id="Node000002" class="node">
<title>Node2</title>
<g id="a_Node000002"><a xlink:href="expr__cast_8h.html" target="_top" xlink:title="Templated functions to cast to specific exprt&#45;derived classes.">
<polygon fill="white" stroke="#666666" points="135.5,-459 62.5,-459 62.5,-440 135.5,-440 135.5,-459"/>
<text text-anchor="middle" x="99" y="-447" font-family="Helvetica,sans-Serif" font-size="10.00">expr_cast.h</text>
</a>
</g>
</g>
<!-- Node1&#45;&gt;Node2 -->
<g id="edge1_Node000001_Node000002" class="edge">
<title>Node1&#45;&gt;Node2</title>
<g id="a_edge1_Node000001_Node000002"><a xlink:title=" ">
<path fill="none" stroke="#63b8ff" d="M99,-549.63C99,-529.21 99,-491.81 99,-469.24"/>
<polygon fill="#63b8ff" stroke="#63b8ff" points="102.5,-469.23 99,-459.23 95.5,-469.23 102.5,-469.23"/>
</a>
</g>
</g>
<!-- Node6 -->
<g id="Node000006" class="node">
<title>Node6</title>
<g id="a_Node000006"><a xlink:href="src_2util_2invariant_8h.html" target="_top" xlink:title=" ">
<polygon fill="white" stroke="#666666" points="186.5,-74 117.5,-74 117.5,-55 186.5,-55 186.5,-74"/>
<text text-anchor="middle" x="152" y="-62" font-family="Helvetica,sans-Serif" font-size="10.00">invariant.h</text>
</a>
</g>
</g>
<!-- Node1&#45;&gt;Node6 -->
<g id="edge37_Node000001_Node000006" class="edge">
<title>Node1&#45;&gt;Node6</title>
<g id="a_edge37_Node000001_Node000006"><a xlink:title=" ">
<path fill="none" stroke="#63b8ff" d="M91.25,-549.89C80.84,-530.2 62.63,-493.03 54,-459 34.96,-383.94 38,-362.94 38,-285.5 38,-285.5 38,-285.5 38,-228.5 38,-163.83 99,-106.55 131.76,-80.46"/>
<polygon fill="#63b8ff" stroke="#63b8ff" points="134.04,-83.12 139.8,-74.22 129.75,-77.58 134.04,-83.12"/>
</a>
</g>
</g>
<!-- Node38 -->
<g id="Node000038" class="node">
<title>Node38</title>
<g id="a_Node000038"><a xlink:href="std__types_8h.html" target="_top" xlink:title="Pre&#45;defined types.">
<polygon fill="white" stroke="#666666" points="275.5,-514 202.5,-514 202.5,-495 275.5,-495 275.5,-514"/>
<text text-anchor="middle" x="239" y="-502" font-family="Helvetica,sans-Serif" font-size="10.00">std_types.h</text>
</a>
</g>
</g>
<!-- Node1&#45;&gt;Node38 -->
<g id="edge38_Node000001_Node000038" class="edge">
<title>Node1&#45;&gt;Node38</title>
<g id="a_edge38_Node000001_Node000038"><a xlink:title=" ">
<path fill="none" stroke="#63b8ff" d="M132.53,-549.99C155.79,-540.27 186.49,-527.44 208.95,-518.06"/>
<polygon fill="#63b8ff" stroke="#63b8ff" points="210.45,-521.22 218.32,-514.14 207.75,-514.77 210.45,-521.22"/>
</a>
</g>
</g>
<!-- Node3 -->
<g id="Node000003" class="node">
<title>Node3</title>
<g id="a_Node000003"><a xlink:title=" ">
<polygon fill="#e0e0e0" stroke="#999999" points="135.5,-404 78.5,-404 78.5,-385 135.5,-385 135.5,-404"/>
<text text-anchor="middle" x="107" y="-392" font-family="Helvetica,sans-Serif" font-size="10.00">typeinfo</text>
</a>
</g>
</g>
<!-- Node2&#45;&gt;Node3 -->
<g id="edge2_Node000002_Node000003" class="edge">
<title>Node2&#45;&gt;Node3</title>
<g id="a_edge2_Node000002_Node000003"><a xlink:title=" ">
<path fill="none" stroke="#63b8ff" d="M100.32,-439.75C101.37,-432.8 102.87,-422.85 104.19,-414.13"/>
<polygon fill="#63b8ff" stroke="#63b8ff" points="107.67,-414.5 105.7,-404.09 100.75,-413.45 107.67,-414.5"/>
</a>
</g>
</g>
<!-- Node4 -->
<g id="Node000004" class="node">
<title>Node4</title>
<g id="a_Node000004"><a xlink:title=" ">
<polygon fill="#e0e0e0" stroke="#999999" points="72.5,-19 3.5,-19 3.5,0 72.5,0 72.5,-19"/>
<text text-anchor="middle" x="38" y="-7" font-family="Helvetica,sans-Serif" font-size="10.00">type_traits</text>
</a>
</g>
</g>
<!-- Node2&#45;&gt;Node4 -->
<g id="edge3_Node000002_Node000004" class="edge">
<title>Node2&#45;&gt;Node4</title>
<g id="a_edge3_Node000002_Node000004"><a xlink:title=" ">
<path fill="none" stroke="#63b8ff" d="M88.78,-439.75C63.48,-417.07 0,-353.37 0,-285.5 0,-285.5 0,-285.5 0,-118.5 0,-85.02 16.45,-48.84 27.7,-28.01"/>
<polygon fill="#63b8ff" stroke="#63b8ff" points="30.87,-29.53 32.72,-19.1 24.76,-26.1 30.87,-29.53"/>
</a>
</g>
</g>
<!-- Node5 -->
<g id="Node000005" class="node">
<title>Node5</title>
<g id="a_Node000005"><a xlink:title=" ">
<polygon fill="#e0e0e0" stroke="#999999" points="245.5,-349 180.5,-349 180.5,-330 245.5,-330 245.5,-349"/>
<text text-anchor="middle" x="213" y="-337" font-family="Helvetica,sans-Serif" font-size="10.00">functional</text>
</a>
</g>
</g>
<!-- Node2&#45;&gt;Node5 -->
<g id="edge4_Node000002_Node000005" class="edge">
<title>Node2&#45;&gt;Node5</title>
<g id="a_edge4_Node000002_Node000005"><a xlink:title=" ">
<path fill="none" stroke="#63b8ff" d="M108.33,-439.66C127.63,-421.38 172.17,-379.18 196.46,-356.17"/>
<polygon fill="#63b8ff" stroke="#63b8ff" points="199.01,-358.58 203.86,-349.16 194.19,-353.5 199.01,-358.58"/>
</a>
</g>
</g>
<!-- Node2&#45;&gt;Node6 -->
<g id="edge5_Node000002_Node000006" class="edge">
<title>Node2&#45;&gt;Node6</title>
<g id="a_edge5_Node000002_Node000006"><a xlink:title=" ">
<path fill="none" stroke="#63b8ff" d="M91.06,-439.75C83.97,-431.3 74.1,-417.79 70,-404 67.6,-395.91 69.75,-393.44 70,-385 71.33,-340.72 76,-329.8 76,-285.5 76,-285.5 76,-285.5 76,-228.5 76,-170.18 116.46,-110.19 138.34,-82.01"/>
<polygon fill="#63b8ff" stroke="#63b8ff" points="141.21,-84.02 144.71,-74.03 135.74,-79.66 141.21,-84.02"/>
</a>
</g>
</g>
<!-- Node10 -->
<g id="Node000010" class="node">
<title>Node10</title>
<g id="a_Node000010"><a xlink:href="expr_8h.html" target="_top" xlink:title=" ">
<polygon fill="white" stroke="#666666" points="402.5,-404 355.5,-404 355.5,-385 402.5,-385 402.5,-404"/>
<text text-anchor="middle" x="379" y="-392" font-family="Helvetica,sans-Serif" font-size="10.00">expr.h</text>
</a>
</g>
</g>
<!-- Node2&#45;&gt;Node10 -->
<g id="edge10_Node000002_Node000010" class="edge">
<title>Node2&#45;&gt;Node10</title>
<g id="a_edge10_Node000002_Node000010"><a xlink:title=" ">
<path fill="none" stroke="#63b8ff" d="M135.61,-441.57C190.36,-431.21 292.79,-411.82 345.61,-401.82"/>
<polygon fill="#63b8ff" stroke="#63b8ff" points="346.31,-405.25 355.48,-399.95 345,-398.37 346.31,-405.25"/>
</a>
</g>
</g>
<!-- Node6&#45;&gt;Node4 -->
<g id="edge9_Node000006_Node000004" class="edge">
<title>Node6&#45;&gt;Node4</title>
<g id="a_edge9_Node000006_Node000004"><a xlink:title=" ">
<path fill="none" stroke="#63b8ff" d="M133.68,-54.98C115.34,-46.46 86.89,-33.23 65.77,-23.41"/>
<polygon fill="#63b8ff" stroke="#63b8ff" points="67.19,-20.21 56.65,-19.17 64.24,-26.56 67.19,-20.21"/>
</a>
</g>
</g>
<!-- Node7 -->
<g id="Node000007" class="node">
<title>Node7</title>
<g id="a_Node000007"><a xlink:title=" ">
<polygon fill="#e0e0e0" stroke="#999999" points="158.5,-19 109.5,-19 109.5,0 158.5,0 158.5,-19"/>
<text text-anchor="middle" x="134" y="-7" font-family="Helvetica,sans-Serif" font-size="10.00">cstdlib</text>
</a>
</g>
</g>
<!-- Node6&#45;&gt;Node7 -->
<g id="edge6_Node000006_Node000007" class="edge">
<title>Node6&#45;&gt;Node7</title>
<g id="a_edge6_Node000006_Node000007"><a xlink:title=" ">
<path fill="none" stroke="#63b8ff" d="M149.03,-54.75C146.64,-47.72 143.21,-37.62 140.23,-28.84"/>
<polygon fill="#63b8ff" stroke="#63b8ff" points="143.45,-27.43 136.92,-19.09 136.82,-29.68 143.45,-27.43"/>
</a>
</g>
</g>
<!-- Node8 -->
<g id="Node000008" class="node">
<title>Node8</title>
<g id="a_Node000008"><a xlink:title=" ">
<polygon fill="#e0e0e0" stroke="#999999" points="233,-19 177,-19 177,0 233,0 233,-19"/>
<text text-anchor="middle" x="205" y="-7" font-family="Helvetica,sans-Serif" font-size="10.00">sstream</text>
</a>
</g>
</g>
<!-- Node6&#45;&gt;Node8 -->
<g id="edge7_Node000006_Node000008" class="edge">
<title>Node6&#45;&gt;Node8</title>
<g id="a_edge7_Node000006_Node000008"><a xlink:title=" ">
<path fill="none" stroke="#63b8ff" d="M160.75,-54.75C168.47,-47.03 179.9,-35.6 189.22,-26.28"/>
<polygon fill="#63b8ff" stroke="#63b8ff" points="191.81,-28.64 196.41,-19.09 186.86,-23.69 191.81,-28.64"/>
</a>
</g>
</g>
<!-- Node9 -->
<g id="Node000009" class="node">
<title>Node9</title>
<g id="a_Node000009"><a xlink:title=" ">
<polygon fill="#e0e0e0" stroke="#999999" points="478,-19 434,-19 434,0 478,0 478,-19"/>
<text text-anchor="middle" x="456" y="-7" font-family="Helvetica,sans-Serif" font-size="10.00">string</text>
</a>
</g>
</g>
<!-- Node6&#45;&gt;Node9 -->
<g id="edge8_Node000006_Node000009" class="edge">
<title>Node6&#45;&gt;Node9</title>
<g id="a_edge8_Node000006_Node000009"><a xlink:title=" ">
<path fill="none" stroke="#63b8ff" d="M186.58,-57.47C245.91,-47.13 366.28,-26.14 423.88,-16.1"/>
<polygon fill="#63b8ff" stroke="#63b8ff" points="424.63,-19.52 433.88,-14.36 423.42,-12.63 424.63,-19.52"/>
</a>
</g>
</g>
<!-- Node10&#45;&gt;Node5 -->
<g id="edge36_Node000010_Node000005" class="edge">
<title>Node10&#45;&gt;Node5</title>
<g id="a_edge36_Node000010_Node000005"><a xlink:title=" ">
<path fill="none" stroke="#63b8ff" d="M355.22,-385.91C327.63,-377.1 281.84,-362.48 249.68,-352.21"/>
<polygon fill="#63b8ff" stroke="#63b8ff" points="250.36,-348.75 239.76,-349.05 248.23,-355.42 250.36,-348.75"/>
</a>
</g>
</g>
<!-- Node11 -->
<g id="Node000011" class="node">
<title>Node11</title>
<g id="a_Node000011"><a xlink:href="as__const_8h.html" target="_top" xlink:title=" ">
<polygon fill="white" stroke="#666666" points="704,-19 636,-19 636,0 704,0 704,-19"/>
<text text-anchor="middle" x="670" y="-7" font-family="Helvetica,sans-Serif" font-size="10.00">as_const.h</text>
</a>
</g>
</g>
<!-- Node10&#45;&gt;Node11 -->
<g id="edge11_Node000010_Node000011" class="edge">
<title>Node10&#45;&gt;Node11</title>
<g id="a_edge11_Node000010_Node000011"><a xlink:title=" ">
<path fill="none" stroke="#63b8ff" d="M402.6,-389.45C445.76,-381.78 535.52,-364.49 563,-349 597.63,-329.48 626,-325.26 626,-285.5 626,-285.5 626,-285.5 626,-228.5 626,-152.93 680.85,-147.82 697,-74 698.8,-65.75 699.27,-63.13 697,-55 694.24,-45.12 688.61,-35.25 683.21,-27.32"/>
<polygon fill="#63b8ff" stroke="#63b8ff" points="685.87,-25.04 677.15,-19.03 680.22,-29.17 685.87,-25.04"/>
</a>
</g>
</g>
<!-- Node12 -->
<g id="Node000012" class="node">
<title>Node12</title>
<g id="a_Node000012"><a xlink:href="type_8h.html" target="_top" xlink:title="Defines typet, type_with_subtypet and type_with_subtypest.">
<polygon fill="white" stroke="#666666" points="535.5,-349 488.5,-349 488.5,-330 535.5,-330 535.5,-349"/>
<text text-anchor="middle" x="512" y="-337" font-family="Helvetica,sans-Serif" font-size="10.00">type.h</text>
</a>
</g>
</g>
<!-- Node10&#45;&gt;Node12 -->
<g id="edge12_Node000010_Node000012" class="edge">
<title>Node10&#45;&gt;Node12</title>
<g id="a_edge12_Node000010_Node000012"><a xlink:title=" ">
<path fill="none" stroke="#63b8ff" d="M400.37,-384.98C422.15,-376.3 456.16,-362.75 480.92,-352.88"/>
<polygon fill="#63b8ff" stroke="#63b8ff" points="482.25,-356.12 490.24,-349.17 479.66,-349.62 482.25,-356.12"/>
</a>
</g>
</g>
<!-- Node35 -->
<g id="Node000035" class="node">
<title>Node35</title>
<g id="a_Node000035"><a xlink:href="validation__mode_8h.html" target="_top" xlink:title=" ">
<polygon fill="white" stroke="#666666" points="287.5,-239 180.5,-239 180.5,-220 287.5,-220 287.5,-239"/>
<text text-anchor="middle" x="234" y="-227" font-family="Helvetica,sans-Serif" font-size="10.00">validation_mode.h</text>
</a>
</g>
</g>
<!-- Node10&#45;&gt;Node35 -->
<g id="edge35_Node000010_Node000035" class="edge">
<title>Node10&#45;&gt;Node35</title>
<g id="a_edge35_Node000010_Node000035"><a xlink:title=" ">
<path fill="none" stroke="#63b8ff" d="M398.55,-384.93C422.26,-373.33 457.17,-351.58 441,-330 406.85,-284.42 368.89,-319.59 318,-294 292.41,-281.13 266.68,-260.23 250.56,-245.94"/>
<polygon fill="#63b8ff" stroke="#63b8ff" points="252.83,-243.27 243.06,-239.16 248.13,-248.46 252.83,-243.27"/>
</a>
</g>
</g>
<!-- Node36 -->
<g id="Node000036" class="node">
<title>Node36</title>
<g id="a_Node000036"><a xlink:href="validate__types_8h.html" target="_top" xlink:title=" ">
<polygon fill="white" stroke="#666666" points="598,-294 500,-294 500,-275 598,-275 598,-294"/>
<text text-anchor="middle" x="549" y="-282" font-family="Helvetica,sans-Serif" font-size="10.00">validate_types.h</text>
</a>
</g>
</g>
<!-- Node10&#45;&gt;Node36 -->
<g id="edge34_Node000010_Node000036" class="edge">
<title>Node10&#45;&gt;Node36</title>
<g id="a_edge34_Node000010_Node000036"><a xlink:title=" ">
<path fill="none" stroke="#63b8ff" d="M402.51,-390.57C443.87,-384.9 527,-370.99 545,-349 555.16,-336.59 555.08,-317.83 553.11,-303.92"/>
<polygon fill="#63b8ff" stroke="#63b8ff" points="556.54,-303.21 551.28,-294.01 549.65,-304.48 556.54,-303.21"/>
</a>
</g>
</g>
<!-- Node37 -->
<g id="Node000037" class="node">
<title>Node37</title>
<g id="a_Node000037"><a xlink:href="validate__expressions_8h.html" target="_top" xlink:title=" ">
<polygon fill="white" stroke="#666666" points="431.5,-349 302.5,-349 302.5,-330 431.5,-330 431.5,-349"/>
<text text-anchor="middle" x="367" y="-337" font-family="Helvetica,sans-Serif" font-size="10.00">validate_expressions.h</text>
</a>
</g>
</g>
<!-- Node10&#45;&gt;Node37 -->
<g id="edge33_Node000010_Node000037" class="edge">
<title>Node10&#45;&gt;Node37</title>
<g id="a_edge33_Node000010_Node000037"><a xlink:title=" ">
<path fill="none" stroke="#63b8ff" d="M377.02,-384.75C375.43,-377.72 373.14,-367.62 371.15,-358.84"/>
<polygon fill="#63b8ff" stroke="#63b8ff" points="374.57,-358.07 368.94,-349.09 367.74,-359.62 374.57,-358.07"/>
</a>
</g>
</g>
<!-- Node13 -->
<g id="Node000013" class="node">
<title>Node13</title>
<g id="a_Node000013"><a xlink:href="source__location_8h.html" target="_top" xlink:title=" ">
<polygon fill="white" stroke="#666666" points="470,-184 368,-184 368,-165 470,-165 470,-184"/>
<text text-anchor="middle" x="419" y="-172" font-family="Helvetica,sans-Serif" font-size="10.00">source_location.h</text>
</a>
</g>
</g>
<!-- Node12&#45;&gt;Node13 -->
<g id="edge13_Node000012_Node000013" class="edge">
<title>Node12&#45;&gt;Node13</title>
<g id="a_edge13_Node000012_Node000013"><a xlink:title=" ">
<path fill="none" stroke="#63b8ff" d="M507.89,-329.7C496.69,-305.84 465.64,-240.29 453,-220 446.96,-210.3 439.3,-200.13 432.78,-191.97"/>
<polygon fill="#63b8ff" stroke="#63b8ff" points="435.32,-189.54 426.29,-184.01 429.9,-193.97 435.32,-189.54"/>
</a>
</g>
</g>
<!-- Node33 -->
<g id="Node000033" class="node">
<title>Node33</title>
<g id="a_Node000033"><a xlink:href="validate_8h.html" target="_top" xlink:title=" ">
<polygon fill="white" stroke="#666666" points="435.5,-294 370.5,-294 370.5,-275 435.5,-275 435.5,-294"/>
<text text-anchor="middle" x="403" y="-282" font-family="Helvetica,sans-Serif" font-size="10.00">validate.h</text>
</a>
</g>
</g>
<!-- Node12&#45;&gt;Node33 -->
<g id="edge24_Node000012_Node000033" class="edge">
<title>Node12&#45;&gt;Node33</title>
<g id="a_edge24_Node000012_Node000033"><a xlink:title=" ">
<path fill="none" stroke="#63b8ff" d="M494.49,-329.98C477.03,-321.5 449.99,-308.35 429.83,-298.54"/>
<polygon fill="#63b8ff" stroke="#63b8ff" points="431.36,-295.4 420.83,-294.17 428.29,-301.69 431.36,-295.4"/>
</a>
</g>
</g>
<!-- Node12&#45;&gt;Node35 -->
<g id="edge32_Node000012_Node000035" class="edge">
<title>Node12&#45;&gt;Node35</title>
<g id="a_edge32_Node000012_Node000035"><a xlink:title=" ">
<path fill="none" stroke="#63b8ff" d="M488.45,-332.86C458.56,-325.39 405.61,-311.14 362,-294 324.74,-279.36 283.59,-257.94 258.26,-244.11"/>
<polygon fill="#63b8ff" stroke="#63b8ff" points="259.82,-240.97 249.37,-239.21 256.44,-247.1 259.82,-240.97"/>
</a>
</g>
</g>
<!-- Node12&#45;&gt;Node36 -->
<g id="edge31_Node000012_Node000036" class="edge">
<title>Node12&#45;&gt;Node36</title>
<g id="a_edge31_Node000012_Node000036"><a xlink:title=" ">
<path fill="none" stroke="#63b8ff" d="M518.11,-329.75C523.28,-322.34 530.85,-311.5 537.19,-302.41"/>
<polygon fill="#63b8ff" stroke="#63b8ff" points="540.15,-304.29 543,-294.09 534.41,-300.29 540.15,-304.29"/>
</a>
</g>
</g>
<!-- Node13&#45;&gt;Node9 -->
<g id="edge23_Node000013_Node000009" class="edge">
<title>Node13&#45;&gt;Node9</title>
<g id="a_edge23_Node000013_Node000009"><a xlink:title=" ">
<path fill="none" stroke="#63b8ff" d="M436.77,-164.96C450.01,-157.51 467.12,-145.33 475,-129 490.94,-95.98 475.99,-52.37 465.08,-28.32"/>
<polygon fill="#63b8ff" stroke="#63b8ff" points="468.11,-26.53 460.62,-19.03 461.8,-29.56 468.11,-26.53"/>
</a>
</g>
</g>
<!-- Node14 -->
<g id="Node000014" class="node">
<title>Node14</title>
<g id="a_Node000014"><a xlink:href="deprecate_8h.html" target="_top" xlink:title=" ">
<polygon fill="white" stroke="#666666" points="404,-129 330,-129 330,-110 404,-110 404,-129"/>
<text text-anchor="middle" x="367" y="-117" font-family="Helvetica,sans-Serif" font-size="10.00">deprecate.h</text>
</a>
</g>
</g>
<!-- Node13&#45;&gt;Node14 -->
<g id="edge14_Node000013_Node000014" class="edge">
<title>Node13&#45;&gt;Node14</title>
<g id="a_edge14_Node000013_Node000014"><a xlink:title=" ">
<path fill="none" stroke="#63b8ff" d="M410.41,-164.75C402.84,-157.03 391.62,-145.6 382.49,-136.28"/>
<polygon fill="#63b8ff" stroke="#63b8ff" points="384.93,-133.78 375.43,-129.09 379.93,-138.68 384.93,-133.78"/>
</a>
</g>
</g>
<!-- Node15 -->
<g id="Node000015" class="node">
<title>Node15</title>
<g id="a_Node000015"><a xlink:href="irep_8h.html" target="_top" xlink:title=" ">
<polygon fill="white" stroke="#666666" points="466,-129 422,-129 422,-110 466,-110 466,-129"/>
<text text-anchor="middle" x="444" y="-117" font-family="Helvetica,sans-Serif" font-size="10.00">irep.h</text>
</a>
</g>
</g>
<!-- Node13&#45;&gt;Node15 -->
<g id="edge15_Node000013_Node000015" class="edge">
<title>Node13&#45;&gt;Node15</title>
<g id="a_edge15_Node000013_Node000015"><a xlink:title=" ">
<path fill="none" stroke="#63b8ff" d="M423.13,-164.75C426.51,-157.57 431.42,-147.18 435.62,-138.27"/>
<polygon fill="#63b8ff" stroke="#63b8ff" points="438.85,-139.63 439.95,-129.09 432.52,-136.64 438.85,-139.63"/>
</a>
</g>
</g>
<!-- Node32 -->
<g id="Node000032" class="node">
<title>Node32</title>
<g id="a_Node000032"><a xlink:title=" ">
<polygon fill="#e0e0e0" stroke="#999999" points="312,-129 256,-129 256,-110 312,-110 312,-129"/>
<text text-anchor="middle" x="284" y="-117" font-family="Helvetica,sans-Serif" font-size="10.00">optional</text>
</a>
</g>
</g>
<!-- Node13&#45;&gt;Node32 -->
<g id="edge22_Node000013_Node000032" class="edge">
<title>Node13&#45;&gt;Node32</title>
<g id="a_edge22_Node000013_Node000032"><a xlink:title=" ">
<path fill="none" stroke="#63b8ff" d="M397.31,-164.98C375.2,-156.3 340.68,-142.75 315.55,-132.88"/>
<polygon fill="#63b8ff" stroke="#63b8ff" points="316.67,-129.57 306.08,-129.17 314.11,-136.08 316.67,-129.57"/>
</a>
</g>
</g>
<!-- Node15&#45;&gt;Node6 -->
<g id="edge18_Node000015_Node000006" class="edge">
<title>Node15&#45;&gt;Node6</title>
<g id="a_edge18_Node000015_Node000006"><a xlink:title=" ">
<path fill="none" stroke="#63b8ff" d="M421.71,-112.11C418.79,-111.35 415.83,-110.63 413,-110 337.69,-93.3 248.96,-79.37 196.77,-71.76"/>
<polygon fill="#63b8ff" stroke="#63b8ff" points="197.23,-68.29 186.83,-70.32 196.23,-75.22 197.23,-68.29"/>
</a>
</g>
</g>
<!-- Node15&#45;&gt;Node9 -->
<g id="edge16_Node000015_Node000009" class="edge">
<title>Node15&#45;&gt;Node9</title>
<g id="a_edge16_Node000015_Node000009"><a xlink:title=" ">
<path fill="none" stroke="#63b8ff" d="M444.98,-109.66C446.93,-92.17 451.3,-52.8 453.91,-29.27"/>
<polygon fill="#63b8ff" stroke="#63b8ff" points="457.41,-29.48 455.04,-19.16 450.45,-28.71 457.41,-29.48"/>
</a>
</g>
</g>
<!-- Node16 -->
<g id="Node000016" class="node">
<title>Node16</title>
<g id="a_Node000016"><a xlink:title=" ">
<polygon fill="#e0e0e0" stroke="#999999" points="427.5,-74 380.5,-74 380.5,-55 427.5,-55 427.5,-74"/>
<text text-anchor="middle" x="404" y="-62" font-family="Helvetica,sans-Serif" font-size="10.00">vector</text>
</a>
</g>
</g>
<!-- Node15&#45;&gt;Node16 -->
<g id="edge17_Node000015_Node000016" class="edge">
<title>Node15&#45;&gt;Node16</title>
<g id="a_edge17_Node000015_Node000016"><a xlink:title=" ">
<path fill="none" stroke="#63b8ff" d="M437.39,-109.75C431.74,-102.26 423.46,-91.28 416.55,-82.13"/>
<polygon fill="#63b8ff" stroke="#63b8ff" points="419.3,-79.96 410.48,-74.09 413.71,-84.18 419.3,-79.96"/>
</a>
</g>
</g>
<!-- Node17 -->
<g id="Node000017" class="node">
<title>Node17</title>
<g id="a_Node000017"><a xlink:href="irep__ids_8h.html" target="_top" xlink:title="util">
<polygon fill="#fff0f0" stroke="red" points="362,-74 298,-74 298,-55 362,-55 362,-74"/>
<text text-anchor="middle" x="330" y="-62" font-family="Helvetica,sans-Serif" font-size="10.00">irep_ids.h</text>
</a>
</g>
</g>
<!-- Node15&#45;&gt;Node17 -->
<g id="edge19_Node000015_Node000017" class="edge">
<title>Node15&#45;&gt;Node17</title>
<g id="a_edge19_Node000015_Node000017"><a xlink:title=" ">
<path fill="none" stroke="#63b8ff" d="M425.68,-109.98C407.34,-101.46 378.89,-88.23 357.77,-78.41"/>
<polygon fill="#63b8ff" stroke="#63b8ff" points="359.19,-75.21 348.65,-74.17 356.24,-81.56 359.19,-75.21"/>
</a>
</g>
</g>
<!-- Node28 -->
<g id="Node000028" class="node">
<title>Node28</title>
<g id="a_Node000028"><a xlink:href="forward__list__as__map_8h.html" target="_top" xlink:title=" ">
<polygon fill="#fff0f0" stroke="red" points="687.5,-74 560.5,-74 560.5,-55 687.5,-55 687.5,-74"/>
<text text-anchor="middle" x="624" y="-62" font-family="Helvetica,sans-Serif" font-size="10.00">forward_list_as_map.h</text>
</a>
</g>
</g>
<!-- Node15&#45;&gt;Node28 -->
<g id="edge20_Node000015_Node000028" class="edge">
<title>Node15&#45;&gt;Node28</title>
<g id="a_edge20_Node000015_Node000028"><a xlink:title=" ">
<path fill="none" stroke="#63b8ff" d="M466.07,-112C495.68,-103.28 548.72,-87.66 585.11,-76.95"/>
<polygon fill="#63b8ff" stroke="#63b8ff" points="586.29,-80.25 594.89,-74.07 584.31,-73.54 586.29,-80.25"/>
</a>
</g>
</g>
<!-- Node28&#45;&gt;Node11 -->
<g id="edge21_Node000028_Node000011" class="edge">
<title>Node28&#45;&gt;Node11</title>
<g id="a_edge21_Node000028_Node000011"><a xlink:title=" ">
<path fill="none" stroke="#63b8ff" d="M631.6,-54.75C638.16,-47.18 647.82,-36.05 655.81,-26.84"/>
<polygon fill="#63b8ff" stroke="#63b8ff" points="658.63,-28.94 662.55,-19.09 653.35,-24.35 658.63,-28.94"/>
</a>
</g>
</g>
<!-- Node33&#45;&gt;Node4 -->
<g id="edge25_Node000033_Node000004" class="edge">
<title>Node33&#45;&gt;Node4</title>
<g id="a_edge25_Node000033_Node000004"><a xlink:title=" ">
<path fill="none" stroke="#63b8ff" d="M390.41,-274.81C371,-261.7 332.33,-236.61 297,-220 253.49,-199.54 235.02,-210.64 195,-184 128.85,-139.97 72.13,-61.93 49.05,-27.56"/>
<polygon fill="#63b8ff" stroke="#63b8ff" points="51.88,-25.5 43.45,-19.09 46.04,-29.36 51.88,-25.5"/>
</a>
</g>
</g>
<!-- Node34 -->
<g id="Node000034" class="node">
<title>Node34</title>
<g id="a_Node000034"><a xlink:href="exception__utils_8h.html" target="_top" xlink:title=" ">
<polygon fill="white" stroke="#666666" points="444,-239 344,-239 344,-220 444,-220 444,-239"/>
<text text-anchor="middle" x="394" y="-227" font-family="Helvetica,sans-Serif" font-size="10.00">exception_utils.h</text>
</a>
</g>
</g>
<!-- Node33&#45;&gt;Node34 -->
<g id="edge26_Node000033_Node000034" class="edge">
<title>Node33&#45;&gt;Node34</title>
<g id="a_edge26_Node000033_Node000034"><a xlink:title=" ">
<path fill="none" stroke="#63b8ff" d="M401.51,-274.75C400.33,-267.8 398.64,-257.85 397.16,-249.13"/>
<polygon fill="#63b8ff" stroke="#63b8ff" points="400.58,-248.36 395.46,-239.09 393.68,-249.53 400.58,-248.36"/>
</a>
</g>
</g>
<!-- Node33&#45;&gt;Node35 -->
<g id="edge30_Node000033_Node000035" class="edge">
<title>Node33&#45;&gt;Node35</title>
<g id="a_edge30_Node000033_Node000035"><a xlink:title=" ">
<path fill="none" stroke="#63b8ff" d="M375.85,-274.98C347.47,-266.09 302.77,-252.07 271.14,-242.15"/>
<polygon fill="#63b8ff" stroke="#63b8ff" points="271.95,-238.73 261.37,-239.08 269.86,-245.41 271.95,-238.73"/>
</a>
</g>
</g>
<!-- Node34&#45;&gt;Node6 -->
<g id="edge28_Node000034_Node000006" class="edge">
<title>Node34&#45;&gt;Node6</title>
<g id="a_edge28_Node000034_Node000006"><a xlink:title=" ">
<path fill="none" stroke="#63b8ff" d="M343.86,-220.83C297.88,-212.97 234,-199.7 214,-184 196.92,-170.59 171.7,-113.52 159.36,-83.75"/>
<polygon fill="#63b8ff" stroke="#63b8ff" points="162.45,-82.08 155.43,-74.15 155.97,-84.73 162.45,-82.08"/>
</a>
</g>
</g>
<!-- Node34&#45;&gt;Node9 -->
<g id="edge27_Node000034_Node000009" class="edge">
<title>Node34&#45;&gt;Node9</title>
<g id="a_edge27_Node000034_Node000009"><a xlink:title=" ">
<path fill="none" stroke="#63b8ff" d="M363.44,-219.97C314.85,-204.53 227.36,-168.07 247,-110 256.85,-80.86 263.43,-72.1 289,-55 330.25,-27.41 387.9,-16.9 423.55,-12.91"/>
<polygon fill="#63b8ff" stroke="#63b8ff" points="424.26,-16.35 433.86,-11.87 423.56,-9.39 424.26,-16.35"/>
</a>
</g>
</g>
<!-- Node34&#45;&gt;Node13 -->
<g id="edge29_Node000034_Node000013" class="edge">
<title>Node34&#45;&gt;Node13</title>
<g id="a_edge29_Node000034_Node000013"><a xlink:title=" ">
<path fill="none" stroke="#63b8ff" d="M398.13,-219.75C401.51,-212.57 406.42,-202.18 410.62,-193.27"/>
<polygon fill="#63b8ff" stroke="#63b8ff" points="413.85,-194.63 414.95,-184.09 407.52,-191.64 413.85,-194.63"/>
</a>
</g>
</g>
<!-- Node38&#45;&gt;Node2 -->
<g id="edge40_Node000038_Node000002" class="edge">
<title>Node38&#45;&gt;Node2</title>
<g id="a_edge40_Node000038_Node000002"><a xlink:title=" ">
<path fill="none" stroke="#63b8ff" d="M216.51,-494.98C193.48,-486.27 157.46,-472.63 131.37,-462.75"/>
<polygon fill="#63b8ff" stroke="#63b8ff" points="132.49,-459.44 121.9,-459.17 130.02,-465.98 132.49,-459.44"/>
</a>
</g>
</g>
<!-- Node38&#45;&gt;Node6 -->
<g id="edge41_Node000038_Node000006" class="edge">
<title>Node38&#45;&gt;Node6</title>
<g id="a_edge41_Node000038_Node000006"><a xlink:title=" ">
<path fill="none" stroke="#63b8ff" d="M223.11,-494.92C210.45,-487.22 193.35,-474.73 184,-459 143.92,-391.6 152,-363.91 152,-285.5 152,-285.5 152,-285.5 152,-173.5 152,-142.19 152,-105.77 152,-84.23"/>
<polygon fill="#63b8ff" stroke="#63b8ff" points="155.5,-84.18 152,-74.18 148.5,-84.18 155.5,-84.18"/>
</a>
</g>
</g>
<!-- Node38&#45;&gt;Node10 -->
<g id="edge39_Node000038_Node000010" class="edge">
<title>Node38&#45;&gt;Node10</title>
<g id="a_edge39_Node000038_Node000010"><a xlink:title=" ">
<path fill="none" stroke="#63b8ff" d="M262.53,-494.99C281.46,-487.42 308.1,-475.05 328,-459 344.27,-445.87 358.76,-426.72 368.1,-412.89"/>
<polygon fill="#63b8ff" stroke="#63b8ff" points="371.17,-414.59 373.7,-404.3 365.31,-410.76 371.17,-414.59"/>
</a>
</g>
</g>
<!-- Node38&#45;&gt;Node33 -->
<g id="edge46_Node000038_Node000033" class="edge">
<title>Node38&#45;&gt;Node33</title>
<g id="a_edge46_Node000038_Node000033"><a xlink:title=" ">
<path fill="none" stroke="#63b8ff" d="M256.77,-494.96C270.01,-487.51 287.12,-475.33 295,-459 319.92,-407.36 262.03,-377.59 294,-330 308.81,-307.95 336.67,-296.82 360.51,-291.21"/>
<polygon fill="#63b8ff" stroke="#63b8ff" points="361.37,-294.6 370.44,-289.12 359.93,-287.75 361.37,-294.6"/>
</a>
</g>
</g>
<!-- Node39 -->
<g id="Node000039" class="node">
<title>Node39</title>
<g id="a_Node000039"><a xlink:href="mp__arith_8h.html" target="_top" xlink:title=" ">
<polygon fill="white" stroke="#666666" points="579.5,-459 510.5,-459 510.5,-440 579.5,-440 579.5,-459"/>
<text text-anchor="middle" x="545" y="-447" font-family="Helvetica,sans-Serif" font-size="10.00">mp_arith.h</text>
</a>
</g>
</g>
<!-- Node38&#45;&gt;Node39 -->
<g id="edge42_Node000038_Node000039" class="edge">
<title>Node38&#45;&gt;Node39</title>
<g id="a_edge42_Node000038_Node000039"><a xlink:title=" ">
<path fill="none" stroke="#63b8ff" d="M275.61,-497.16C331.84,-487.42 439.35,-468.8 500.17,-458.27"/>
<polygon fill="#63b8ff" stroke="#63b8ff" points="500.98,-461.68 510.24,-456.52 499.79,-454.78 500.98,-461.68"/>
</a>
</g>
</g>
<!-- Node24 -->
<g id="Node000024" class="node">
<title>Node24</title>
<g id="a_Node000024"><a xlink:title=" ">
<polygon fill="#e0e0e0" stroke="#999999" points="285.5,-459 192.5,-459 192.5,-440 285.5,-440 285.5,-459"/>
<text text-anchor="middle" x="239" y="-447" font-family="Helvetica,sans-Serif" font-size="10.00">unordered_map</text>
</a>
</g>
</g>
<!-- Node38&#45;&gt;Node24 -->
<g id="edge47_Node000038_Node000024" class="edge">
<title>Node38&#45;&gt;Node24</title>
<g id="a_edge47_Node000038_Node000024"><a xlink:title=" ">
<path fill="none" stroke="#63b8ff" d="M239,-494.75C239,-487.8 239,-477.85 239,-469.13"/>
<polygon fill="#63b8ff" stroke="#63b8ff" points="242.5,-469.09 239,-459.09 235.5,-469.09 242.5,-469.09"/>
</a>
</g>
</g>
<!-- Node39&#45;&gt;Node9 -->
<g id="edge44_Node000039_Node000009" class="edge">
<title>Node39&#45;&gt;Node9</title>
<g id="a_edge44_Node000039_Node000009"><a xlink:title=" ">
<path fill="none" stroke="#63b8ff" d="M567.66,-439.98C602.19,-425.35 664,-391.97 664,-340.5 664,-340.5 664,-340.5 664,-228.5 664,-174.23 527.35,-64.72 475.57,-25.17"/>
<polygon fill="#63b8ff" stroke="#63b8ff" points="477.56,-22.28 467.48,-19.03 473.33,-27.86 477.56,-22.28"/>
</a>
</g>
</g>
<!-- Node19 -->
<g id="Node000019" class="node">
<title>Node19</title>
<g id="a_Node000019"><a xlink:title=" ">
<polygon fill="#e0e0e0" stroke="#999999" points="614,-404 566,-404 566,-385 614,-385 614,-404"/>
<text text-anchor="middle" x="590" y="-392" font-family="Helvetica,sans-Serif" font-size="10.00">iosfwd</text>
</a>
</g>
</g>
<!-- Node39&#45;&gt;Node19 -->
<g id="edge43_Node000039_Node000019" class="edge">
<title>Node39&#45;&gt;Node19</title>
<g id="a_edge43_Node000039_Node000019"><a xlink:title=" ">
<path fill="none" stroke="#63b8ff" d="M552.43,-439.75C558.85,-432.18 568.31,-421.05 576.12,-411.84"/>
<polygon fill="#63b8ff" stroke="#63b8ff" points="578.9,-413.98 582.71,-404.09 573.57,-409.45 578.9,-413.98"/>
</a>
</g>
</g>
<!-- Node40 -->
<g id="Node000040" class="node">
<title>Node40</title>
<g id="a_Node000040"><a xlink:title=" ">
<polygon fill="#e0e0e0" stroke="#999999" points="548,-404 454,-404 454,-385 548,-385 548,-404"/>
<text text-anchor="middle" x="501" y="-392" font-family="Helvetica,sans-Serif" font-size="10.00">big&#45;int/bigint.hh</text>
</a>
</g>
</g>
<!-- Node39&#45;&gt;Node40 -->
<g id="edge45_Node000039_Node000040" class="edge">
<title>Node39&#45;&gt;Node40</title>
<g id="a_edge45_Node000039_Node000040"><a xlink:title=" ">
<path fill="none" stroke="#63b8ff" d="M537.73,-439.75C531.46,-432.18 522.21,-421.05 514.57,-411.84"/>
<polygon fill="#63b8ff" stroke="#63b8ff" points="517.21,-409.55 508.13,-404.09 511.83,-414.02 517.21,-409.55"/>
</a>
</g>
</g>
</g>
</svg>
