<?xml version="1.0" encoding="UTF-8" standalone="no"?>
<!DOCTYPE svg PUBLIC "-//W3C//DTD SVG 1.1//EN"
 "http://www.w3.org/Graphics/SVG/1.1/DTD/svg11.dtd">
<!-- Generated by graphviz version 2.43.0 (0)
 -->
<!-- Title: /home/runner/work/cbmc/cbmc/src/util/string2int.cpp Pages: 1 -->
<svg width="357pt" height="258pt"
 viewBox="0.00 0.00 357.48 258.00" xmlns="http://www.w3.org/2000/svg" xmlns:xlink="http://www.w3.org/1999/xlink">
<g id="graph0" class="graph" transform="scale(1 1) rotate(0) translate(4 254)">
<title>/home/runner/work/cbmc/cbmc/src/util/string2int.cpp</title>
<!-- Node1 -->
<g id="Node000001" class="node">
<title>Node1</title>
<g id="a_Node000001"><a xlink:title=" ">
<polygon fill="#999999" stroke="#666666" points="312.98,-250 160.98,-250 160.98,-220 312.98,-220 312.98,-250"/>
<text text-anchor="start" x="168.98" y="-238" font-family="Helvetica,sans-Serif" font-size="10.00">/home/runner/work/cbmc</text>
<text text-anchor="middle" x="236.98" y="-227" font-family="Helvetica,sans-Serif" font-size="10.00">/cbmc/src/util/string2int.cpp</text>
</a>
</g>
</g>
<!-- Node2 -->
<g id="Node000002" class="node">
<title>Node2</title>
<g id="a_Node000002"><a xlink:href="string2int_8h.html" target="_top" xlink:title=" ">
<polygon fill="white" stroke="#666666" points="141.98,-184 69.98,-184 69.98,-165 141.98,-165 141.98,-184"/>
<text text-anchor="middle" x="105.98" y="-172" font-family="Helvetica,sans-Serif" font-size="10.00">string2int.h</text>
</a>
</g>
</g>
<!-- Node1&#45;&gt;Node2 -->
<g id="edge1_Node000001_Node000002" class="edge">
<title>Node1&#45;&gt;Node2</title>
<g id="a_edge1_Node000001_Node000002"><a xlink:title=" ">
<path fill="none" stroke="#63b8ff" d="M205.6,-219.99C184.03,-210.36 155.62,-197.67 134.66,-188.31"/>
<polygon fill="#63b8ff" stroke="#63b8ff" points="135.88,-185.02 125.32,-184.14 133.02,-191.41 135.88,-185.02"/>
</a>
</g>
</g>
<!-- Node5 -->
<g id="Node000005" class="node">
<title>Node5</title>
<g id="a_Node000005"><a xlink:href="src_2util_2invariant_8h.html" target="_top" xlink:title=" ">
<polygon fill="white" stroke="#666666" points="210.48,-74 141.48,-74 141.48,-55 210.48,-55 210.48,-74"/>
<text text-anchor="middle" x="175.98" y="-62" font-family="Helvetica,sans-Serif" font-size="10.00">invariant.h</text>
</a>
</g>
</g>
<!-- Node1&#45;&gt;Node5 -->
<g id="edge14_Node000001_Node000005" class="edge">
<title>Node1&#45;&gt;Node5</title>
<g id="a_edge14_Node000001_Node000005"><a xlink:title=" ">
<path fill="none" stroke="#63b8ff" d="M233.55,-219.95C227.68,-196.67 214.79,-148.78 198.98,-110 195.24,-100.84 190.28,-91.03 185.93,-82.97"/>
<polygon fill="#63b8ff" stroke="#63b8ff" points="188.95,-81.19 181.04,-74.14 182.82,-84.59 188.95,-81.19"/>
</a>
</g>
</g>
<!-- Node6 -->
<g id="Node000006" class="node">
<title>Node6</title>
<g id="a_Node000006"><a xlink:title=" ">
<polygon fill="#e0e0e0" stroke="#999999" points="277.48,-19 228.48,-19 228.48,0 277.48,0 277.48,-19"/>
<text text-anchor="middle" x="252.98" y="-7" font-family="Helvetica,sans-Serif" font-size="10.00">cstdlib</text>
</a>
</g>
</g>
<!-- Node1&#45;&gt;Node6 -->
<g id="edge12_Node000001_Node000006" class="edge">
<title>Node1&#45;&gt;Node6</title>
<g id="a_edge12_Node000001_Node000006"><a xlink:title=" ">
<path fill="none" stroke="#63b8ff" d="M238,-219.68C240.79,-180.76 248.5,-73.07 251.63,-29.33"/>
<polygon fill="#63b8ff" stroke="#63b8ff" points="255.13,-29.46 252.35,-19.23 248.14,-28.96 255.13,-29.46"/>
</a>
</g>
</g>
<!-- Node10 -->
<g id="Node000010" class="node">
<title>Node10</title>
<g id="a_Node000010"><a xlink:title=" ">
<polygon fill="#e0e0e0" stroke="#999999" points="349.48,-184 284.48,-184 284.48,-165 349.48,-165 349.48,-184"/>
<text text-anchor="middle" x="316.98" y="-172" font-family="Helvetica,sans-Serif" font-size="10.00">stdexcept</text>
</a>
</g>
</g>
<!-- Node1&#45;&gt;Node10 -->
<g id="edge13_Node000001_Node000010" class="edge">
<title>Node1&#45;&gt;Node10</title>
<g id="a_edge13_Node000001_Node000010"><a xlink:title=" ">
<path fill="none" stroke="#63b8ff" d="M256.34,-219.84C268.55,-210.91 284.28,-199.41 296.66,-190.35"/>
<polygon fill="#63b8ff" stroke="#63b8ff" points="298.98,-192.99 304.99,-184.27 294.85,-187.34 298.98,-192.99"/>
</a>
</g>
</g>
<!-- Node3 -->
<g id="Node000003" class="node">
<title>Node3</title>
<g id="a_Node000003"><a xlink:href="narrow_8h.html" target="_top" xlink:title=" ">
<polygon fill="white" stroke="#666666" points="77.48,-129 18.48,-129 18.48,-110 77.48,-110 77.48,-129"/>
<text text-anchor="middle" x="47.98" y="-117" font-family="Helvetica,sans-Serif" font-size="10.00">narrow.h</text>
</a>
</g>
</g>
<!-- Node2&#45;&gt;Node3 -->
<g id="edge2_Node000002_Node000003" class="edge">
<title>Node2&#45;&gt;Node3</title>
<g id="a_edge2_Node000002_Node000003"><a xlink:title=" ">
<path fill="none" stroke="#63b8ff" d="M96.66,-164.98C88.17,-157.23 75.42,-145.58 65.09,-136.14"/>
<polygon fill="#63b8ff" stroke="#63b8ff" points="67.21,-133.33 57.46,-129.17 62.48,-138.5 67.21,-133.33"/>
</a>
</g>
</g>
<!-- Node4 -->
<g id="Node000004" class="node">
<title>Node4</title>
<g id="a_Node000004"><a xlink:title=" ">
<polygon fill="#e0e0e0" stroke="#999999" points="69.48,-19 0.48,-19 0.48,0 69.48,0 69.48,-19"/>
<text text-anchor="middle" x="34.98" y="-7" font-family="Helvetica,sans-Serif" font-size="10.00">type_traits</text>
</a>
</g>
</g>
<!-- Node2&#45;&gt;Node4 -->
<g id="edge11_Node000002_Node000004" class="edge">
<title>Node2&#45;&gt;Node4</title>
<g id="a_edge11_Node000002_Node000004"><a xlink:title=" ">
<path fill="none" stroke="#63b8ff" d="M69.53,-166.92C47.94,-160.94 22.28,-149.74 8.98,-129 -11.4,-97.23 9.49,-51.87 23.86,-27.51"/>
<polygon fill="#63b8ff" stroke="#63b8ff" points="26.84,-29.35 29.12,-19.01 20.89,-25.67 26.84,-29.35"/>
</a>
</g>
</g>
<!-- Node8 -->
<g id="Node000008" class="node">
<title>Node8</title>
<g id="a_Node000008"><a xlink:title=" ">
<polygon fill="#e0e0e0" stroke="#999999" points="131.98,-19 87.98,-19 87.98,0 131.98,0 131.98,-19"/>
<text text-anchor="middle" x="109.98" y="-7" font-family="Helvetica,sans-Serif" font-size="10.00">string</text>
</a>
</g>
</g>
<!-- Node2&#45;&gt;Node8 -->
<g id="edge10_Node000002_Node000008" class="edge">
<title>Node2&#45;&gt;Node8</title>
<g id="a_edge10_Node000002_Node000008"><a xlink:title=" ">
<path fill="none" stroke="#63b8ff" d="M106.19,-164.74C106.81,-139.31 108.64,-65.08 109.5,-29.69"/>
<polygon fill="#63b8ff" stroke="#63b8ff" points="113.01,-29.39 109.76,-19.31 106.01,-29.22 113.01,-29.39"/>
</a>
</g>
</g>
<!-- Node9 -->
<g id="Node000009" class="node">
<title>Node9</title>
<g id="a_Node000009"><a xlink:title=" ">
<polygon fill="#e0e0e0" stroke="#999999" points="189.98,-129 133.98,-129 133.98,-110 189.98,-110 189.98,-129"/>
<text text-anchor="middle" x="161.98" y="-117" font-family="Helvetica,sans-Serif" font-size="10.00">optional</text>
</a>
</g>
</g>
<!-- Node2&#45;&gt;Node9 -->
<g id="edge9_Node000002_Node000009" class="edge">
<title>Node2&#45;&gt;Node9</title>
<g id="a_edge9_Node000002_Node000009"><a xlink:title=" ">
<path fill="none" stroke="#63b8ff" d="M114.97,-164.98C123.17,-157.23 135.48,-145.58 145.45,-136.14"/>
<polygon fill="#63b8ff" stroke="#63b8ff" points="147.96,-138.59 152.81,-129.17 143.15,-133.5 147.96,-138.59"/>
</a>
</g>
</g>
<!-- Node3&#45;&gt;Node4 -->
<g id="edge3_Node000003_Node000004" class="edge">
<title>Node3&#45;&gt;Node4</title>
<g id="a_edge3_Node000003_Node000004"><a xlink:title=" ">
<path fill="none" stroke="#63b8ff" d="M46.91,-109.66C44.81,-92.17 40.07,-52.8 37.23,-29.27"/>
<polygon fill="#63b8ff" stroke="#63b8ff" points="40.69,-28.67 36.02,-19.16 33.74,-29.51 40.69,-28.67"/>
</a>
</g>
</g>
<!-- Node3&#45;&gt;Node5 -->
<g id="edge4_Node000003_Node000005" class="edge">
<title>Node3&#45;&gt;Node5</title>
<g id="a_edge4_Node000003_Node000005"><a xlink:title=" ">
<path fill="none" stroke="#63b8ff" d="M68.54,-109.98C89.41,-101.34 121.95,-87.87 145.75,-78.02"/>
<polygon fill="#63b8ff" stroke="#63b8ff" points="147.14,-81.23 155.04,-74.17 144.46,-74.76 147.14,-81.23"/>
</a>
</g>
</g>
<!-- Node5&#45;&gt;Node4 -->
<g id="edge8_Node000005_Node000004" class="edge">
<title>Node5&#45;&gt;Node4</title>
<g id="a_edge8_Node000005_Node000004"><a xlink:title=" ">
<path fill="none" stroke="#63b8ff" d="M153.32,-54.98C130.13,-46.27 93.85,-32.63 67.58,-22.75"/>
<polygon fill="#63b8ff" stroke="#63b8ff" points="68.63,-19.41 58.04,-19.17 66.17,-25.97 68.63,-19.41"/>
</a>
</g>
</g>
<!-- Node5&#45;&gt;Node6 -->
<g id="edge5_Node000005_Node000006" class="edge">
<title>Node5&#45;&gt;Node6</title>
<g id="a_edge5_Node000005_Node000006"><a xlink:title=" ">
<path fill="none" stroke="#63b8ff" d="M188.35,-54.98C200.06,-46.92 217.89,-34.65 231.86,-25.03"/>
<polygon fill="#63b8ff" stroke="#63b8ff" points="234.13,-27.72 240.38,-19.17 230.16,-21.96 234.13,-27.72"/>
</a>
</g>
</g>
<!-- Node7 -->
<g id="Node000007" class="node">
<title>Node7</title>
<g id="a_Node000007"><a xlink:title=" ">
<polygon fill="#e0e0e0" stroke="#999999" points="205.98,-19 149.98,-19 149.98,0 205.98,0 205.98,-19"/>
<text text-anchor="middle" x="177.98" y="-7" font-family="Helvetica,sans-Serif" font-size="10.00">sstream</text>
</a>
</g>
</g>
<!-- Node5&#45;&gt;Node7 -->
<g id="edge6_Node000005_Node000007" class="edge">
<title>Node5&#45;&gt;Node7</title>
<g id="a_edge6_Node000005_Node000007"><a xlink:title=" ">
<path fill="none" stroke="#63b8ff" d="M176.31,-54.75C176.57,-47.8 176.94,-37.85 177.27,-29.13"/>
<polygon fill="#63b8ff" stroke="#63b8ff" points="180.77,-29.21 177.65,-19.09 173.78,-28.95 180.77,-29.21"/>
</a>
</g>
</g>
<!-- Node5&#45;&gt;Node8 -->
<g id="edge7_Node000005_Node000008" class="edge">
<title>Node5&#45;&gt;Node8</title>
<g id="a_edge7_Node000005_Node000008"><a xlink:title=" ">
<path fill="none" stroke="#63b8ff" d="M165.37,-54.98C155.52,-47.07 140.62,-35.11 128.76,-25.58"/>
<polygon fill="#63b8ff" stroke="#63b8ff" points="130.76,-22.7 120.77,-19.17 126.38,-28.16 130.76,-22.7"/>
</a>
</g>
</g>
</g>
</svg>
