<?xml version="1.0" encoding="UTF-8" standalone="no"?>
<!DOCTYPE svg PUBLIC "-//W3C//DTD SVG 1.1//EN"
 "http://www.w3.org/Graphics/SVG/1.1/DTD/svg11.dtd">
<!-- Generated by graphviz version 2.43.0 (0)
 -->
<!-- Title: /home/runner/work/cbmc/cbmc/src/ansi&#45;c/goto&#45;conversion/string_instrumentation.h Pages: 1 -->
<svg width="386pt" height="126pt"
 viewBox="0.00 0.00 385.50 126.00" xmlns="http://www.w3.org/2000/svg" xmlns:xlink="http://www.w3.org/1999/xlink">
<g id="graph0" class="graph" transform="scale(1 1) rotate(0) translate(4 122)">
<title>/home/runner/work/cbmc/cbmc/src/ansi&#45;c/goto&#45;conversion/string_instrumentation.h</title>
<!-- Node1 -->
<g id="Node000001" class="node">
<title>Node1</title>
<g id="a_Node000001"><a xlink:title="String Abstraction.">
<polygon fill="#999999" stroke="#666666" points="301.5,-118 104.5,-118 104.5,-77 301.5,-77 301.5,-118"/>
<text text-anchor="start" x="112.5" y="-106" font-family="Helvetica,sans-Serif" font-size="10.00">/home/runner/work/cbmc</text>
<text text-anchor="start" x="112.5" y="-95" font-family="Helvetica,sans-Serif" font-size="10.00">/cbmc/src/ansi&#45;c/goto</text>
<text text-anchor="middle" x="203" y="-84" font-family="Helvetica,sans-Serif" font-size="10.00">&#45;conversion/string_instrumentation.h</text>
</a>
</g>
</g>
<!-- Node2 -->
<g id="Node000002" class="node">
<title>Node2</title>
<g id="a_Node000002"><a xlink:href="string__instrumentation_8cpp.html" target="_top" xlink:title="String Abstraction.">
<polygon fill="white" stroke="#666666" points="208,-41 0,-41 0,0 208,0 208,-41"/>
<text text-anchor="start" x="8" y="-29" font-family="Helvetica,sans-Serif" font-size="10.00">/home/runner/work/cbmc</text>
<text text-anchor="start" x="8" y="-18" font-family="Helvetica,sans-Serif" font-size="10.00">/cbmc/src/ansi&#45;c/goto</text>
<text text-anchor="middle" x="104" y="-7" font-family="Helvetica,sans-Serif" font-size="10.00">&#45;conversion/string_instrumentation.cpp</text>
</a>
</g>
</g>
<!-- Node1&#45;&gt;Node2 -->
<g id="edge1_Node000001_Node000002" class="edge">
<title>Node1&#45;&gt;Node2</title>
<g id="a_edge1_Node000001_Node000002"><a xlink:title=" ">
<path fill="none" stroke="#63b8ff" d="M169.1,-70.82C156.29,-61.11 141.93,-50.24 129.97,-41.17"/>
<polygon fill="#63b8ff" stroke="#63b8ff" points="167.16,-73.74 177.25,-76.99 171.39,-68.16 167.16,-73.74"/>
</a>
</g>
</g>
<!-- Node3 -->
<g id="Node000003" class="node">
<title>Node3</title>
<g id="a_Node000003"><a xlink:href="process__goto__program_8cpp.html" target="_top" xlink:title="Get a Goto Program.">
<polygon fill="white" stroke="#666666" points="377.5,-41 226.5,-41 226.5,0 377.5,0 377.5,-41"/>
<text text-anchor="start" x="234.5" y="-29" font-family="Helvetica,sans-Serif" font-size="10.00">/home/runner/work/cbmc</text>
<text text-anchor="start" x="234.5" y="-18" font-family="Helvetica,sans-Serif" font-size="10.00">/cbmc/src/goto&#45;programs</text>
<text text-anchor="middle" x="302" y="-7" font-family="Helvetica,sans-Serif" font-size="10.00">/process_goto_program.cpp</text>
</a>
</g>
</g>
<!-- Node1&#45;&gt;Node3 -->
<g id="edge2_Node000001_Node000003" class="edge">
<title>Node1&#45;&gt;Node3</title>
<g id="a_edge2_Node000001_Node000003"><a xlink:title=" ">
<path fill="none" stroke="#63b8ff" d="M236.9,-70.82C249.71,-61.11 264.07,-50.24 276.03,-41.17"/>
<polygon fill="#63b8ff" stroke="#63b8ff" points="234.61,-68.16 228.75,-76.99 238.84,-73.74 234.61,-68.16"/>
</a>
</g>
</g>
</g>
</svg>
