<?xml version="1.0" encoding="UTF-8" standalone="no"?>
<!DOCTYPE svg PUBLIC "-//W3C//DTD SVG 1.1//EN"
 "http://www.w3.org/Graphics/SVG/1.1/DTD/svg11.dtd">
<!-- Generated by graphviz version 2.43.0 (0)
 -->
<!-- Title: /home/runner/work/cbmc/cbmc/src/solvers/strings/string_constraint_generator.h Pages: 1 -->
<svg width="2267pt" height="478pt"
 viewBox="0.00 0.00 2266.50 478.00" xmlns="http://www.w3.org/2000/svg" xmlns:xlink="http://www.w3.org/1999/xlink">
<g id="graph0" class="graph" transform="scale(1 1) rotate(0) translate(4 474)">
<title>/home/runner/work/cbmc/cbmc/src/solvers/strings/string_constraint_generator.h</title>
<!-- Node1 -->
<g id="Node000001" class="node">
<title>Node1</title>
<g id="a_Node000001"><a xlink:title="Generates string constraints to link results from string functions with their arguments.">
<polygon fill="#999999" stroke="#666666" points="1316.5,-470 1154.5,-470 1154.5,-429 1316.5,-429 1316.5,-470"/>
<text text-anchor="start" x="1162.5" y="-458" font-family="Helvetica,sans-Serif" font-size="10.00">/home/runner/work/cbmc</text>
<text text-anchor="start" x="1162.5" y="-447" font-family="Helvetica,sans-Serif" font-size="10.00">/cbmc/src/solvers/strings</text>
<text text-anchor="middle" x="1235.5" y="-436" font-family="Helvetica,sans-Serif" font-size="10.00">/string_constraint_generator.h</text>
</a>
</g>
</g>
<!-- Node2 -->
<g id="Node000002" class="node">
<title>Node2</title>
<g id="a_Node000002"><a xlink:href="string__builtin__function_8cpp.html" target="_top" xlink:title=" ">
<polygon fill="white" stroke="#666666" points="167,-299.5 18,-299.5 18,-258.5 167,-258.5 167,-299.5"/>
<text text-anchor="start" x="26" y="-287.5" font-family="Helvetica,sans-Serif" font-size="10.00">/home/runner/work/cbmc</text>
<text text-anchor="start" x="26" y="-276.5" font-family="Helvetica,sans-Serif" font-size="10.00">/cbmc/src/solvers/strings</text>
<text text-anchor="middle" x="92.5" y="-265.5" font-family="Helvetica,sans-Serif" font-size="10.00">/string_builtin_function.cpp</text>
</a>
</g>
</g>
<!-- Node1&#45;&gt;Node2 -->
<g id="edge1_Node000001_Node000002" class="edge">
<title>Node1&#45;&gt;Node2</title>
<g id="a_edge1_Node000001_Node000002"><a xlink:title=" ">
<path fill="none" stroke="#63b8ff" d="M1144.19,-446.37C952.69,-441.3 514.75,-426.35 369.5,-393 279.65,-372.37 181.23,-326.02 129.32,-299.54"/>
<polygon fill="#63b8ff" stroke="#63b8ff" points="1144.14,-449.87 1154.23,-446.63 1144.33,-442.87 1144.14,-449.87"/>
</a>
</g>
</g>
<!-- Node3 -->
<g id="Node000003" class="node">
<title>Node3</title>
<g id="a_Node000003"><a xlink:href="string__builtin__function_8h.html" target="_top" xlink:title=" ">
<polygon fill="white" stroke="#666666" points="516.5,-387.5 378.5,-387.5 378.5,-346.5 516.5,-346.5 516.5,-387.5"/>
<text text-anchor="start" x="386.5" y="-375.5" font-family="Helvetica,sans-Serif" font-size="10.00">/home/runner/work/cbmc</text>
<text text-anchor="start" x="386.5" y="-364.5" font-family="Helvetica,sans-Serif" font-size="10.00">/cbmc/src/solvers/strings</text>
<text text-anchor="middle" x="447.5" y="-353.5" font-family="Helvetica,sans-Serif" font-size="10.00">/string_builtin_function.h</text>
</a>
</g>
</g>
<!-- Node1&#45;&gt;Node3 -->
<g id="edge2_Node000001_Node000003" class="edge">
<title>Node1&#45;&gt;Node3</title>
<g id="a_edge2_Node000001_Node000003"><a xlink:title=" ">
<path fill="none" stroke="#63b8ff" d="M1144.13,-439.36C1035.17,-428.44 847.53,-409.56 686.5,-393 629.23,-387.11 564.25,-380.31 516.52,-375.28"/>
<polygon fill="#63b8ff" stroke="#63b8ff" points="1143.8,-442.85 1154.1,-440.36 1144.5,-435.88 1143.8,-442.85"/>
</a>
</g>
</g>
<!-- Node7 -->
<g id="Node000007" class="node">
<title>Node7</title>
<g id="a_Node000007"><a xlink:href="string__refinement_8h.html" target="_top" xlink:title="String support via creating string constraints and progressively instantiating the universal constrai...">
<polygon fill="white" stroke="#666666" points="788.5,-211.5 650.5,-211.5 650.5,-170.5 788.5,-170.5 788.5,-211.5"/>
<text text-anchor="start" x="658.5" y="-199.5" font-family="Helvetica,sans-Serif" font-size="10.00">/home/runner/work/cbmc</text>
<text text-anchor="start" x="658.5" y="-188.5" font-family="Helvetica,sans-Serif" font-size="10.00">/cbmc/src/solvers/strings</text>
<text text-anchor="middle" x="719.5" y="-177.5" font-family="Helvetica,sans-Serif" font-size="10.00">/string_refinement.h</text>
</a>
</g>
</g>
<!-- Node1&#45;&gt;Node7 -->
<g id="edge35_Node000001_Node000007" class="edge">
<title>Node1&#45;&gt;Node7</title>
<g id="a_edge35_Node000001_Node000007"><a xlink:title=" ">
<path fill="none" stroke="#63b8ff" d="M1144.03,-445.18C1003.39,-439.12 747.29,-423.94 719.5,-393 673.8,-342.12 698.08,-251.33 711.97,-211.56"/>
<polygon fill="#63b8ff" stroke="#63b8ff" points="1144.22,-448.69 1154.36,-445.62 1144.52,-441.7 1144.22,-448.69"/>
</a>
</g>
</g>
<!-- Node23 -->
<g id="Node000023" class="node">
<title>Node23</title>
<g id="a_Node000023"><a xlink:href="string__constraint__generator__code__points_8cpp.html" target="_top" xlink:title="Generates string constraints for Java functions dealing with code points.">
<polygon fill="white" stroke="#666666" points="882.5,-393 728.5,-393 728.5,-341 882.5,-341 882.5,-393"/>
<text text-anchor="start" x="736.5" y="-381" font-family="Helvetica,sans-Serif" font-size="10.00">/home/runner/work/cbmc</text>
<text text-anchor="start" x="736.5" y="-370" font-family="Helvetica,sans-Serif" font-size="10.00">/cbmc/src/solvers/strings</text>
<text text-anchor="start" x="736.5" y="-359" font-family="Helvetica,sans-Serif" font-size="10.00">/string_constraint_generator</text>
<text text-anchor="middle" x="805.5" y="-348" font-family="Helvetica,sans-Serif" font-size="10.00">_code_points.cpp</text>
</a>
</g>
</g>
<!-- Node1&#45;&gt;Node23 -->
<g id="edge26_Node000001_Node000023" class="edge">
<title>Node1&#45;&gt;Node23</title>
<g id="a_edge26_Node000001_Node000023"><a xlink:title=" ">
<path fill="none" stroke="#63b8ff" d="M1144.27,-436.9C1074.6,-427.28 976.44,-412.12 891.5,-393 888.62,-392.35 885.69,-391.66 882.74,-390.94"/>
<polygon fill="#63b8ff" stroke="#63b8ff" points="1143.95,-440.39 1154.34,-438.27 1144.9,-433.45 1143.95,-440.39"/>
</a>
</g>
</g>
<!-- Node24 -->
<g id="Node000024" class="node">
<title>Node24</title>
<g id="a_Node000024"><a xlink:href="string__constraint__generator__comparison_8cpp.html" target="_top" xlink:title="Generates string constraints for function comparing strings, such as: equals, equalsIgnoreCase,...">
<polygon fill="white" stroke="#666666" points="1054.5,-393 900.5,-393 900.5,-341 1054.5,-341 1054.5,-393"/>
<text text-anchor="start" x="908.5" y="-381" font-family="Helvetica,sans-Serif" font-size="10.00">/home/runner/work/cbmc</text>
<text text-anchor="start" x="908.5" y="-370" font-family="Helvetica,sans-Serif" font-size="10.00">/cbmc/src/solvers/strings</text>
<text text-anchor="start" x="908.5" y="-359" font-family="Helvetica,sans-Serif" font-size="10.00">/string_constraint_generator</text>
<text text-anchor="middle" x="977.5" y="-348" font-family="Helvetica,sans-Serif" font-size="10.00">_comparison.cpp</text>
</a>
</g>
</g>
<!-- Node1&#45;&gt;Node24 -->
<g id="edge27_Node000001_Node000024" class="edge">
<title>Node1&#45;&gt;Node24</title>
<g id="a_edge27_Node000001_Node000024"><a xlink:title=" ">
<path fill="none" stroke="#63b8ff" d="M1162.94,-425.86C1129.25,-415.35 1089.16,-402.84 1054.89,-392.15"/>
<polygon fill="#63b8ff" stroke="#63b8ff" points="1162.13,-429.27 1172.72,-428.91 1164.21,-422.59 1162.13,-429.27"/>
</a>
</g>
</g>
<!-- Node25 -->
<g id="Node000025" class="node">
<title>Node25</title>
<g id="a_Node000025"><a xlink:href="string__constraint__generator__constants_8cpp.html" target="_top" xlink:title="Generates string constraints for constant strings.">
<polygon fill="white" stroke="#666666" points="1226.5,-393 1072.5,-393 1072.5,-341 1226.5,-341 1226.5,-393"/>
<text text-anchor="start" x="1080.5" y="-381" font-family="Helvetica,sans-Serif" font-size="10.00">/home/runner/work/cbmc</text>
<text text-anchor="start" x="1080.5" y="-370" font-family="Helvetica,sans-Serif" font-size="10.00">/cbmc/src/solvers/strings</text>
<text text-anchor="start" x="1080.5" y="-359" font-family="Helvetica,sans-Serif" font-size="10.00">/string_constraint_generator</text>
<text text-anchor="middle" x="1149.5" y="-348" font-family="Helvetica,sans-Serif" font-size="10.00">_constants.cpp</text>
</a>
</g>
</g>
<!-- Node1&#45;&gt;Node25 -->
<g id="edge28_Node000001_Node000025" class="edge">
<title>Node1&#45;&gt;Node25</title>
<g id="a_edge28_Node000001_Node000025"><a xlink:title=" ">
<path fill="none" stroke="#63b8ff" d="M1206.68,-421.52C1196.89,-412.36 1186,-402.17 1176.37,-393.16"/>
<polygon fill="#63b8ff" stroke="#63b8ff" points="1204.55,-424.32 1214.24,-428.6 1209.33,-419.21 1204.55,-424.32"/>
</a>
</g>
</g>
<!-- Node26 -->
<g id="Node000026" class="node">
<title>Node26</title>
<g id="a_Node000026"><a xlink:href="string__constraint__generator__float_8cpp.html" target="_top" xlink:title="Generates string constraints for functions generating strings from other types, in particular int,...">
<polygon fill="white" stroke="#666666" points="1398.5,-393 1244.5,-393 1244.5,-341 1398.5,-341 1398.5,-393"/>
<text text-anchor="start" x="1252.5" y="-381" font-family="Helvetica,sans-Serif" font-size="10.00">/home/runner/work/cbmc</text>
<text text-anchor="start" x="1252.5" y="-370" font-family="Helvetica,sans-Serif" font-size="10.00">/cbmc/src/solvers/strings</text>
<text text-anchor="start" x="1252.5" y="-359" font-family="Helvetica,sans-Serif" font-size="10.00">/string_constraint_generator</text>
<text text-anchor="middle" x="1321.5" y="-348" font-family="Helvetica,sans-Serif" font-size="10.00">_float.cpp</text>
</a>
</g>
</g>
<!-- Node1&#45;&gt;Node26 -->
<g id="edge29_Node000001_Node000026" class="edge">
<title>Node1&#45;&gt;Node26</title>
<g id="a_edge29_Node000001_Node000026"><a xlink:title=" ">
<path fill="none" stroke="#63b8ff" d="M1264.32,-421.52C1274.11,-412.36 1285,-402.17 1294.63,-393.16"/>
<polygon fill="#63b8ff" stroke="#63b8ff" points="1261.67,-419.21 1256.76,-428.6 1266.45,-424.32 1261.67,-419.21"/>
</a>
</g>
</g>
<!-- Node27 -->
<g id="Node000027" class="node">
<title>Node27</title>
<g id="a_Node000027"><a xlink:href="string__constraint__generator__indexof_8cpp.html" target="_top" xlink:title="Generates string constraints for the family of indexOf and lastIndexOf java functions.">
<polygon fill="white" stroke="#666666" points="1570.5,-393 1416.5,-393 1416.5,-341 1570.5,-341 1570.5,-393"/>
<text text-anchor="start" x="1424.5" y="-381" font-family="Helvetica,sans-Serif" font-size="10.00">/home/runner/work/cbmc</text>
<text text-anchor="start" x="1424.5" y="-370" font-family="Helvetica,sans-Serif" font-size="10.00">/cbmc/src/solvers/strings</text>
<text text-anchor="start" x="1424.5" y="-359" font-family="Helvetica,sans-Serif" font-size="10.00">/string_constraint_generator</text>
<text text-anchor="middle" x="1493.5" y="-348" font-family="Helvetica,sans-Serif" font-size="10.00">_indexof.cpp</text>
</a>
</g>
</g>
<!-- Node1&#45;&gt;Node27 -->
<g id="edge30_Node000001_Node000027" class="edge">
<title>Node1&#45;&gt;Node27</title>
<g id="a_edge30_Node000001_Node000027"><a xlink:title=" ">
<path fill="none" stroke="#63b8ff" d="M1308.06,-425.86C1341.75,-415.35 1381.84,-402.84 1416.11,-392.15"/>
<polygon fill="#63b8ff" stroke="#63b8ff" points="1306.79,-422.59 1298.28,-428.91 1308.87,-429.27 1306.79,-422.59"/>
</a>
</g>
</g>
<!-- Node28 -->
<g id="Node000028" class="node">
<title>Node28</title>
<g id="a_Node000028"><a xlink:href="string__constraint__generator__main_8cpp.html" target="_top" xlink:title="Generates string constraints to link results from string functions with their arguments.">
<polygon fill="white" stroke="#666666" points="1742.5,-393 1588.5,-393 1588.5,-341 1742.5,-341 1742.5,-393"/>
<text text-anchor="start" x="1596.5" y="-381" font-family="Helvetica,sans-Serif" font-size="10.00">/home/runner/work/cbmc</text>
<text text-anchor="start" x="1596.5" y="-370" font-family="Helvetica,sans-Serif" font-size="10.00">/cbmc/src/solvers/strings</text>
<text text-anchor="start" x="1596.5" y="-359" font-family="Helvetica,sans-Serif" font-size="10.00">/string_constraint_generator</text>
<text text-anchor="middle" x="1665.5" y="-348" font-family="Helvetica,sans-Serif" font-size="10.00">_main.cpp</text>
</a>
</g>
</g>
<!-- Node1&#45;&gt;Node28 -->
<g id="edge31_Node000001_Node000028" class="edge">
<title>Node1&#45;&gt;Node28</title>
<g id="a_edge31_Node000001_Node000028"><a xlink:title=" ">
<path fill="none" stroke="#63b8ff" d="M1326.73,-436.9C1396.4,-427.28 1494.56,-412.12 1579.5,-393 1582.38,-392.35 1585.31,-391.66 1588.26,-390.94"/>
<polygon fill="#63b8ff" stroke="#63b8ff" points="1326.1,-433.45 1316.66,-438.27 1327.05,-440.39 1326.1,-433.45"/>
</a>
</g>
</g>
<!-- Node29 -->
<g id="Node000029" class="node">
<title>Node29</title>
<g id="a_Node000029"><a xlink:href="string__constraint__generator__testing_8cpp.html" target="_top" xlink:title="Generates string constraints for string functions that return Boolean values.">
<polygon fill="white" stroke="#666666" points="1914.5,-393 1760.5,-393 1760.5,-341 1914.5,-341 1914.5,-393"/>
<text text-anchor="start" x="1768.5" y="-381" font-family="Helvetica,sans-Serif" font-size="10.00">/home/runner/work/cbmc</text>
<text text-anchor="start" x="1768.5" y="-370" font-family="Helvetica,sans-Serif" font-size="10.00">/cbmc/src/solvers/strings</text>
<text text-anchor="start" x="1768.5" y="-359" font-family="Helvetica,sans-Serif" font-size="10.00">/string_constraint_generator</text>
<text text-anchor="middle" x="1837.5" y="-348" font-family="Helvetica,sans-Serif" font-size="10.00">_testing.cpp</text>
</a>
</g>
</g>
<!-- Node1&#45;&gt;Node29 -->
<g id="edge32_Node000001_Node000029" class="edge">
<title>Node1&#45;&gt;Node29</title>
<g id="a_edge32_Node000001_Node000029"><a xlink:title=" ">
<path fill="none" stroke="#63b8ff" d="M1326.72,-443.55C1430.41,-436.8 1604.37,-422.06 1751.5,-393 1754.4,-392.43 1757.34,-391.8 1760.3,-391.14"/>
<polygon fill="#63b8ff" stroke="#63b8ff" points="1326.36,-440.06 1316.6,-444.2 1326.81,-447.05 1326.36,-440.06"/>
</a>
</g>
</g>
<!-- Node30 -->
<g id="Node000030" class="node">
<title>Node30</title>
<g id="a_Node000030"><a xlink:href="string__constraint__generator__transformation_8cpp.html" target="_top" xlink:title="Generates string constraints for string transformations, that is, functions taking one string and ret...">
<polygon fill="white" stroke="#666666" points="2086.5,-393 1932.5,-393 1932.5,-341 2086.5,-341 2086.5,-393"/>
<text text-anchor="start" x="1940.5" y="-381" font-family="Helvetica,sans-Serif" font-size="10.00">/home/runner/work/cbmc</text>
<text text-anchor="start" x="1940.5" y="-370" font-family="Helvetica,sans-Serif" font-size="10.00">/cbmc/src/solvers/strings</text>
<text text-anchor="start" x="1940.5" y="-359" font-family="Helvetica,sans-Serif" font-size="10.00">/string_constraint_generator</text>
<text text-anchor="middle" x="2009.5" y="-348" font-family="Helvetica,sans-Serif" font-size="10.00">_transformation.cpp</text>
</a>
</g>
</g>
<!-- Node1&#45;&gt;Node30 -->
<g id="edge33_Node000001_Node000030" class="edge">
<title>Node1&#45;&gt;Node30</title>
<g id="a_edge33_Node000001_Node000030"><a xlink:title=" ">
<path fill="none" stroke="#63b8ff" d="M1326.8,-447C1459.3,-443.49 1712.14,-431.83 1923.5,-393 1926.41,-392.47 1929.35,-391.87 1932.32,-391.23"/>
<polygon fill="#63b8ff" stroke="#63b8ff" points="1326.6,-443.5 1316.69,-447.25 1326.78,-450.5 1326.6,-443.5"/>
</a>
</g>
</g>
<!-- Node31 -->
<g id="Node000031" class="node">
<title>Node31</title>
<g id="a_Node000031"><a xlink:href="string__constraint__generator__valueof_8cpp.html" target="_top" xlink:title="Generates string constraints for functions generating strings from other types, in particular int,...">
<polygon fill="white" stroke="#666666" points="2258.5,-393 2104.5,-393 2104.5,-341 2258.5,-341 2258.5,-393"/>
<text text-anchor="start" x="2112.5" y="-381" font-family="Helvetica,sans-Serif" font-size="10.00">/home/runner/work/cbmc</text>
<text text-anchor="start" x="2112.5" y="-370" font-family="Helvetica,sans-Serif" font-size="10.00">/cbmc/src/solvers/strings</text>
<text text-anchor="start" x="2112.5" y="-359" font-family="Helvetica,sans-Serif" font-size="10.00">/string_constraint_generator</text>
<text text-anchor="middle" x="2181.5" y="-348" font-family="Helvetica,sans-Serif" font-size="10.00">_valueof.cpp</text>
</a>
</g>
</g>
<!-- Node1&#45;&gt;Node31 -->
<g id="edge34_Node000001_Node000031" class="edge">
<title>Node1&#45;&gt;Node31</title>
<g id="a_edge34_Node000001_Node000031"><a xlink:title=" ">
<path fill="none" stroke="#63b8ff" d="M1326.66,-449.12C1484.52,-448.75 1818.46,-441.6 2095.5,-393 2098.41,-392.49 2101.36,-391.92 2104.33,-391.29"/>
<polygon fill="#63b8ff" stroke="#63b8ff" points="1326.52,-445.62 1316.52,-449.14 1326.53,-452.62 1326.52,-445.62"/>
</a>
</g>
</g>
<!-- Node3&#45;&gt;Node2 -->
<g id="edge3_Node000003_Node000002" class="edge">
<title>Node3&#45;&gt;Node2</title>
<g id="a_edge3_Node000003_Node000002"><a xlink:title=" ">
<path fill="none" stroke="#63b8ff" d="M368.48,-349.85C314,-338.33 240.06,-321.94 175.5,-305 169.1,-303.32 162.44,-301.48 155.81,-299.58"/>
<polygon fill="#63b8ff" stroke="#63b8ff" points="367.91,-353.31 378.42,-351.94 369.36,-346.46 367.91,-353.31"/>
</a>
</g>
</g>
<!-- Node4 -->
<g id="Node000004" class="node">
<title>Node4</title>
<g id="a_Node000004"><a xlink:href="string__dependencies_8h.html" target="_top" xlink:title="Keeps track of dependencies between strings.">
<polygon fill="white" stroke="#666666" points="672.5,-299.5 534.5,-299.5 534.5,-258.5 672.5,-258.5 672.5,-299.5"/>
<text text-anchor="start" x="542.5" y="-287.5" font-family="Helvetica,sans-Serif" font-size="10.00">/home/runner/work/cbmc</text>
<text text-anchor="start" x="542.5" y="-276.5" font-family="Helvetica,sans-Serif" font-size="10.00">/cbmc/src/solvers/strings</text>
<text text-anchor="middle" x="603.5" y="-265.5" font-family="Helvetica,sans-Serif" font-size="10.00">/string_dependencies.h</text>
</a>
</g>
</g>
<!-- Node3&#45;&gt;Node4 -->
<g id="edge4_Node000003_Node000004" class="edge">
<title>Node3&#45;&gt;Node4</title>
<g id="a_edge4_Node000003_Node000004"><a xlink:title=" ">
<path fill="none" stroke="#63b8ff" d="M491.86,-341.55C515.97,-328.26 545.39,-312.04 567.97,-299.59"/>
<polygon fill="#63b8ff" stroke="#63b8ff" points="489.97,-338.59 482.9,-346.49 493.35,-344.72 489.97,-338.59"/>
</a>
</g>
</g>
<!-- Node17 -->
<g id="Node000017" class="node">
<title>Node17</title>
<g id="a_Node000017"><a xlink:href="string__format__builtin__function_8h.html" target="_top" xlink:title="Built&#45;in function for String.format.">
<polygon fill="white" stroke="#666666" points="360.5,-299.5 184.5,-299.5 184.5,-258.5 360.5,-258.5 360.5,-299.5"/>
<text text-anchor="start" x="192.5" y="-287.5" font-family="Helvetica,sans-Serif" font-size="10.00">/home/runner/work/cbmc</text>
<text text-anchor="start" x="192.5" y="-276.5" font-family="Helvetica,sans-Serif" font-size="10.00">/cbmc/src/solvers/strings</text>
<text text-anchor="middle" x="272.5" y="-265.5" font-family="Helvetica,sans-Serif" font-size="10.00">/string_format_builtin_function.h</text>
</a>
</g>
</g>
<!-- Node3&#45;&gt;Node17 -->
<g id="edge18_Node000003_Node000017" class="edge">
<title>Node3&#45;&gt;Node17</title>
<g id="a_edge18_Node000003_Node000017"><a xlink:title=" ">
<path fill="none" stroke="#63b8ff" d="M398.81,-342.07C371.57,-328.68 338.03,-312.2 312.36,-299.59"/>
<polygon fill="#63b8ff" stroke="#63b8ff" points="397.27,-345.22 407.79,-346.49 400.36,-338.93 397.27,-345.22"/>
</a>
</g>
</g>
<!-- Node19 -->
<g id="Node000019" class="node">
<title>Node19</title>
<g id="a_Node000019"><a xlink:href="string__insertion__builtin__function_8h.html" target="_top" xlink:title=" ">
<polygon fill="white" stroke="#666666" points="516.5,-305 378.5,-305 378.5,-253 516.5,-253 516.5,-305"/>
<text text-anchor="start" x="386.5" y="-293" font-family="Helvetica,sans-Serif" font-size="10.00">/home/runner/work/cbmc</text>
<text text-anchor="start" x="386.5" y="-282" font-family="Helvetica,sans-Serif" font-size="10.00">/cbmc/src/solvers/strings</text>
<text text-anchor="start" x="386.5" y="-271" font-family="Helvetica,sans-Serif" font-size="10.00">/string_insertion_builtin</text>
<text text-anchor="middle" x="447.5" y="-260" font-family="Helvetica,sans-Serif" font-size="10.00">_function.h</text>
</a>
</g>
</g>
<!-- Node3&#45;&gt;Node19 -->
<g id="edge21_Node000003_Node000019" class="edge">
<title>Node3&#45;&gt;Node19</title>
<g id="a_edge21_Node000003_Node000019"><a xlink:title=" ">
<path fill="none" stroke="#63b8ff" d="M447.5,-336.44C447.5,-326.31 447.5,-315.08 447.5,-305.32"/>
<polygon fill="#63b8ff" stroke="#63b8ff" points="444,-336.49 447.5,-346.49 451,-336.49 444,-336.49"/>
</a>
</g>
</g>
<!-- Node5 -->
<g id="Node000005" class="node">
<title>Node5</title>
<g id="a_Node000005"><a xlink:href="string__dependencies_8cpp.html" target="_top" xlink:title=" ">
<polygon fill="white" stroke="#666666" points="288.5,-123.5 148.5,-123.5 148.5,-82.5 288.5,-82.5 288.5,-123.5"/>
<text text-anchor="start" x="156.5" y="-111.5" font-family="Helvetica,sans-Serif" font-size="10.00">/home/runner/work/cbmc</text>
<text text-anchor="start" x="156.5" y="-100.5" font-family="Helvetica,sans-Serif" font-size="10.00">/cbmc/src/solvers/strings</text>
<text text-anchor="middle" x="218.5" y="-89.5" font-family="Helvetica,sans-Serif" font-size="10.00">/string_dependencies.cpp</text>
</a>
</g>
</g>
<!-- Node4&#45;&gt;Node5 -->
<g id="edge5_Node000004_Node000005" class="edge">
<title>Node4&#45;&gt;Node5</title>
<g id="a_edge5_Node000004_Node000005"><a xlink:title=" ">
<path fill="none" stroke="#63b8ff" d="M601.91,-248.04C598.82,-221.97 590.05,-185.26 565.5,-165 519.15,-126.75 356.14,-142.11 297.5,-129 290.62,-127.46 283.48,-125.6 276.43,-123.59"/>
<polygon fill="#63b8ff" stroke="#63b8ff" points="598.44,-248.53 602.88,-258.14 605.4,-247.85 598.44,-248.53"/>
</a>
</g>
</g>
<!-- Node6 -->
<g id="Node000006" class="node">
<title>Node6</title>
<g id="a_Node000006"><a xlink:href="string__refinement_8cpp.html" target="_top" xlink:title="String support via creating string constraints and progressively instantiating the universal constrai...">
<polygon fill="white" stroke="#666666" points="624.5,-123.5 486.5,-123.5 486.5,-82.5 624.5,-82.5 624.5,-123.5"/>
<text text-anchor="start" x="494.5" y="-111.5" font-family="Helvetica,sans-Serif" font-size="10.00">/home/runner/work/cbmc</text>
<text text-anchor="start" x="494.5" y="-100.5" font-family="Helvetica,sans-Serif" font-size="10.00">/cbmc/src/solvers/strings</text>
<text text-anchor="middle" x="555.5" y="-89.5" font-family="Helvetica,sans-Serif" font-size="10.00">/string_refinement.cpp</text>
</a>
</g>
</g>
<!-- Node4&#45;&gt;Node6 -->
<g id="edge6_Node000004_Node000006" class="edge">
<title>Node4&#45;&gt;Node6</title>
<g id="a_edge6_Node000004_Node000006"><a xlink:title=" ">
<path fill="none" stroke="#63b8ff" d="M606.67,-248.22C608.09,-224.93 607.75,-192.07 598.5,-165 593.27,-149.67 582.89,-134.77 573.64,-123.53"/>
<polygon fill="#63b8ff" stroke="#63b8ff" points="603.18,-247.95 605.91,-258.19 610.16,-248.48 603.18,-247.95"/>
</a>
</g>
</g>
<!-- Node4&#45;&gt;Node7 -->
<g id="edge7_Node000004_Node000007" class="edge">
<title>Node4&#45;&gt;Node7</title>
<g id="a_edge7_Node000004_Node000007"><a xlink:title=" ">
<path fill="none" stroke="#63b8ff" d="M638.12,-252.33C655.66,-239.33 676.62,-223.79 692.88,-211.74"/>
<polygon fill="#63b8ff" stroke="#63b8ff" points="635.77,-249.72 629.82,-258.49 639.94,-255.34 635.77,-249.72"/>
</a>
</g>
</g>
<!-- Node7&#45;&gt;Node6 -->
<g id="edge17_Node000007_Node000006" class="edge">
<title>Node7&#45;&gt;Node6</title>
<g id="a_edge17_Node000007_Node000006"><a xlink:title=" ">
<path fill="none" stroke="#63b8ff" d="M673.21,-165.72C647.79,-152.4 616.7,-136.09 592.85,-123.59"/>
<polygon fill="#63b8ff" stroke="#63b8ff" points="671.8,-168.94 682.29,-170.49 675.06,-162.74 671.8,-168.94"/>
</a>
</g>
</g>
<!-- Node8 -->
<g id="Node000008" class="node">
<title>Node8</title>
<g id="a_Node000008"><a xlink:href="jbmc__parse__options_8h.html" target="_top" xlink:title="JBMC Command Line Option Processing.">
<polygon fill="white" stroke="#666666" points="1170.5,-123.5 1026.5,-123.5 1026.5,-82.5 1170.5,-82.5 1170.5,-123.5"/>
<text text-anchor="start" x="1034.5" y="-111.5" font-family="Helvetica,sans-Serif" font-size="10.00">/home/runner/work/cbmc</text>
<text text-anchor="start" x="1034.5" y="-100.5" font-family="Helvetica,sans-Serif" font-size="10.00">/cbmc/jbmc/src/jbmc/jbmc</text>
<text text-anchor="middle" x="1098.5" y="-89.5" font-family="Helvetica,sans-Serif" font-size="10.00">_parse_options.h</text>
</a>
</g>
</g>
<!-- Node7&#45;&gt;Node8 -->
<g id="edge8_Node000007_Node000008" class="edge">
<title>Node7&#45;&gt;Node8</title>
<g id="a_edge8_Node000007_Node000008"><a xlink:title=" ">
<path fill="none" stroke="#63b8ff" d="M798.68,-172.03C865.82,-156.8 961.3,-135.13 1026.36,-120.37"/>
<polygon fill="#63b8ff" stroke="#63b8ff" points="797.55,-168.7 788.57,-174.33 799.1,-175.53 797.55,-168.7"/>
</a>
</g>
</g>
<!-- Node11 -->
<g id="Node000011" class="node">
<title>Node11</title>
<g id="a_Node000011"><a xlink:href="cbmc__parse__options_8h.html" target="_top" xlink:title="CBMC Command Line Option Processing.">
<polygon fill="white" stroke="#666666" points="796.5,-123.5 642.5,-123.5 642.5,-82.5 796.5,-82.5 796.5,-123.5"/>
<text text-anchor="start" x="650.5" y="-111.5" font-family="Helvetica,sans-Serif" font-size="10.00">/home/runner/work/cbmc</text>
<text text-anchor="start" x="650.5" y="-100.5" font-family="Helvetica,sans-Serif" font-size="10.00">/cbmc/src/cbmc/cbmc_parse</text>
<text text-anchor="middle" x="719.5" y="-89.5" font-family="Helvetica,sans-Serif" font-size="10.00">_options.h</text>
</a>
</g>
</g>
<!-- Node7&#45;&gt;Node11 -->
<g id="edge11_Node000007_Node000011" class="edge">
<title>Node7&#45;&gt;Node11</title>
<g id="a_edge11_Node000007_Node000011"><a xlink:title=" ">
<path fill="none" stroke="#63b8ff" d="M719.5,-160.36C719.5,-148.26 719.5,-134.58 719.5,-123.74"/>
<polygon fill="#63b8ff" stroke="#63b8ff" points="716,-160.49 719.5,-170.49 723,-160.49 716,-160.49"/>
</a>
</g>
</g>
<!-- Node16 -->
<g id="Node000016" class="node">
<title>Node16</title>
<g id="a_Node000016"><a xlink:href="solver__factory_8cpp.html" target="_top" xlink:title="Solver Factory.">
<polygon fill="white" stroke="#666666" points="952.5,-123.5 814.5,-123.5 814.5,-82.5 952.5,-82.5 952.5,-123.5"/>
<text text-anchor="start" x="822.5" y="-111.5" font-family="Helvetica,sans-Serif" font-size="10.00">/home/runner/work/cbmc</text>
<text text-anchor="start" x="822.5" y="-100.5" font-family="Helvetica,sans-Serif" font-size="10.00">/cbmc/src/goto&#45;checker</text>
<text text-anchor="middle" x="883.5" y="-89.5" font-family="Helvetica,sans-Serif" font-size="10.00">/solver_factory.cpp</text>
</a>
</g>
</g>
<!-- Node7&#45;&gt;Node16 -->
<g id="edge16_Node000007_Node000016" class="edge">
<title>Node7&#45;&gt;Node16</title>
<g id="a_edge16_Node000007_Node000016"><a xlink:title=" ">
<path fill="none" stroke="#63b8ff" d="M765.79,-165.72C791.21,-152.4 822.3,-136.09 846.15,-123.59"/>
<polygon fill="#63b8ff" stroke="#63b8ff" points="763.94,-162.74 756.71,-170.49 767.2,-168.94 763.94,-162.74"/>
</a>
</g>
</g>
<!-- Node9 -->
<g id="Node000009" class="node">
<title>Node9</title>
<g id="a_Node000009"><a xlink:href="jbmc__main_8cpp.html" target="_top" xlink:title="CBMC Main Module.">
<polygon fill="white" stroke="#666666" points="1170.5,-41 1026.5,-41 1026.5,0 1170.5,0 1170.5,-41"/>
<text text-anchor="start" x="1034.5" y="-29" font-family="Helvetica,sans-Serif" font-size="10.00">/home/runner/work/cbmc</text>
<text text-anchor="start" x="1034.5" y="-18" font-family="Helvetica,sans-Serif" font-size="10.00">/cbmc/jbmc/src/jbmc/jbmc</text>
<text text-anchor="middle" x="1098.5" y="-7" font-family="Helvetica,sans-Serif" font-size="10.00">_main.cpp</text>
</a>
</g>
</g>
<!-- Node8&#45;&gt;Node9 -->
<g id="edge9_Node000008_Node000009" class="edge">
<title>Node8&#45;&gt;Node9</title>
<g id="a_edge9_Node000008_Node000009"><a xlink:title=" ">
<path fill="none" stroke="#63b8ff" d="M1098.5,-71.87C1098.5,-61.6 1098.5,-50.4 1098.5,-41.17"/>
<polygon fill="#63b8ff" stroke="#63b8ff" points="1095,-72.1 1098.5,-82.1 1102,-72.1 1095,-72.1"/>
</a>
</g>
</g>
<!-- Node10 -->
<g id="Node000010" class="node">
<title>Node10</title>
<g id="a_Node000010"><a xlink:href="jbmc__parse__options_8cpp.html" target="_top" xlink:title="JBMC Command Line Option Processing.">
<polygon fill="white" stroke="#666666" points="1332.5,-41 1188.5,-41 1188.5,0 1332.5,0 1332.5,-41"/>
<text text-anchor="start" x="1196.5" y="-29" font-family="Helvetica,sans-Serif" font-size="10.00">/home/runner/work/cbmc</text>
<text text-anchor="start" x="1196.5" y="-18" font-family="Helvetica,sans-Serif" font-size="10.00">/cbmc/jbmc/src/jbmc/jbmc</text>
<text text-anchor="middle" x="1260.5" y="-7" font-family="Helvetica,sans-Serif" font-size="10.00">_parse_options.cpp</text>
</a>
</g>
</g>
<!-- Node8&#45;&gt;Node10 -->
<g id="edge10_Node000008_Node000010" class="edge">
<title>Node8&#45;&gt;Node10</title>
<g id="a_edge10_Node000008_Node000010"><a xlink:title=" ">
<path fill="none" stroke="#63b8ff" d="M1147.27,-77.77C1170.84,-66.05 1198.78,-52.17 1221,-41.13"/>
<polygon fill="#63b8ff" stroke="#63b8ff" points="1145.53,-74.72 1138.13,-82.31 1148.64,-80.99 1145.53,-74.72"/>
</a>
</g>
</g>
<!-- Node12 -->
<g id="Node000012" class="node">
<title>Node12</title>
<g id="a_Node000012"><a xlink:href="cbmc__languages_8cpp.html" target="_top" xlink:title="Language Registration.">
<polygon fill="white" stroke="#666666" points="818,-35.5 621,-35.5 621,-5.5 818,-5.5 818,-35.5"/>
<text text-anchor="start" x="629" y="-23.5" font-family="Helvetica,sans-Serif" font-size="10.00">/home/runner/work/cbmc</text>
<text text-anchor="middle" x="719.5" y="-12.5" font-family="Helvetica,sans-Serif" font-size="10.00">/cbmc/src/cbmc/cbmc_languages.cpp</text>
</a>
</g>
</g>
<!-- Node11&#45;&gt;Node12 -->
<g id="edge12_Node000011_Node000012" class="edge">
<title>Node11&#45;&gt;Node12</title>
<g id="a_edge12_Node000011_Node000012"><a xlink:title=" ">
<path fill="none" stroke="#63b8ff" d="M719.5,-71.76C719.5,-59.46 719.5,-45.83 719.5,-35.87"/>
<polygon fill="#63b8ff" stroke="#63b8ff" points="716,-72.1 719.5,-82.1 723,-72.1 716,-72.1"/>
</a>
</g>
</g>
<!-- Node13 -->
<g id="Node000013" class="node">
<title>Node13</title>
<g id="a_Node000013"><a xlink:href="cbmc__main_8cpp.html" target="_top" xlink:title="CBMC Main Module.">
<polygon fill="white" stroke="#666666" points="1008.5,-35.5 836.5,-35.5 836.5,-5.5 1008.5,-5.5 1008.5,-35.5"/>
<text text-anchor="start" x="844.5" y="-23.5" font-family="Helvetica,sans-Serif" font-size="10.00">/home/runner/work/cbmc</text>
<text text-anchor="middle" x="922.5" y="-12.5" font-family="Helvetica,sans-Serif" font-size="10.00">/cbmc/src/cbmc/cbmc_main.cpp</text>
</a>
</g>
</g>
<!-- Node11&#45;&gt;Node13 -->
<g id="edge13_Node000011_Node000013" class="edge">
<title>Node11&#45;&gt;Node13</title>
<g id="a_edge13_Node000011_Node000013"><a xlink:title=" ">
<path fill="none" stroke="#63b8ff" d="M778.56,-78.58C813.67,-64.66 857.04,-47.46 886.94,-35.6"/>
<polygon fill="#63b8ff" stroke="#63b8ff" points="776.91,-75.47 768.9,-82.41 779.49,-81.98 776.91,-75.47"/>
</a>
</g>
</g>
<!-- Node14 -->
<g id="Node000014" class="node">
<title>Node14</title>
<g id="a_Node000014"><a xlink:href="cbmc__parse__options_8cpp.html" target="_top" xlink:title="CBMC Command Line Option Processing.">
<polygon fill="white" stroke="#666666" points="387.5,-41 233.5,-41 233.5,0 387.5,0 387.5,-41"/>
<text text-anchor="start" x="241.5" y="-29" font-family="Helvetica,sans-Serif" font-size="10.00">/home/runner/work/cbmc</text>
<text text-anchor="start" x="241.5" y="-18" font-family="Helvetica,sans-Serif" font-size="10.00">/cbmc/src/cbmc/cbmc_parse</text>
<text text-anchor="middle" x="310.5" y="-7" font-family="Helvetica,sans-Serif" font-size="10.00">_options.cpp</text>
</a>
</g>
</g>
<!-- Node11&#45;&gt;Node14 -->
<g id="edge14_Node000011_Node000014" class="edge">
<title>Node11&#45;&gt;Node14</title>
<g id="a_edge14_Node000011_Node000014"><a xlink:title=" ">
<path fill="none" stroke="#63b8ff" d="M646.01,-79.94C641.79,-78.89 637.6,-77.9 633.5,-77 529.45,-54.08 501.19,-60.79 396.5,-41 393.64,-40.46 390.73,-39.89 387.8,-39.3"/>
<polygon fill="#63b8ff" stroke="#63b8ff" points="645.31,-83.38 655.87,-82.49 647.06,-76.6 645.31,-83.38"/>
</a>
</g>
</g>
<!-- Node15 -->
<g id="Node000015" class="node">
<title>Node15</title>
<g id="a_Node000015"><a xlink:href="goto__synthesizer__parse__options_8cpp.html" target="_top" xlink:title="Main Module.">
<polygon fill="white" stroke="#666666" points="603,-41 406,-41 406,0 603,0 603,-41"/>
<text text-anchor="start" x="414" y="-29" font-family="Helvetica,sans-Serif" font-size="10.00">/home/runner/work/cbmc</text>
<text text-anchor="start" x="414" y="-18" font-family="Helvetica,sans-Serif" font-size="10.00">/cbmc/src/goto&#45;synthesizer</text>
<text text-anchor="middle" x="504.5" y="-7" font-family="Helvetica,sans-Serif" font-size="10.00">/goto_synthesizer_parse_options.cpp</text>
</a>
</g>
</g>
<!-- Node11&#45;&gt;Node15 -->
<g id="edge15_Node000011_Node000015" class="edge">
<title>Node11&#45;&gt;Node15</title>
<g id="a_edge15_Node000011_Node000015"><a xlink:title=" ">
<path fill="none" stroke="#63b8ff" d="M657.5,-78.79C625.57,-66.83 587.07,-52.42 556.68,-41.04"/>
<polygon fill="#63b8ff" stroke="#63b8ff" points="656.59,-82.18 667.18,-82.41 659.04,-75.63 656.59,-82.18"/>
</a>
</g>
</g>
<!-- Node17&#45;&gt;Node5 -->
<g id="edge19_Node000017_Node000005" class="edge">
<title>Node17&#45;&gt;Node5</title>
<g id="a_edge19_Node000017_Node000005"><a xlink:title=" ">
<path fill="none" stroke="#63b8ff" d="M250.99,-250.03C244.36,-240.09 237.71,-228.51 233.5,-217 222.09,-185.77 219.19,-146.87 218.55,-123.81"/>
<polygon fill="#63b8ff" stroke="#63b8ff" points="248.16,-252.09 256.75,-258.29 253.9,-248.09 248.16,-252.09"/>
</a>
</g>
</g>
<!-- Node18 -->
<g id="Node000018" class="node">
<title>Node18</title>
<g id="a_Node000018"><a xlink:href="string__format__builtin__function_8cpp.html" target="_top" xlink:title="Built&#45;in function for String.format.">
<polygon fill="white" stroke="#666666" points="187,-211.5 0,-211.5 0,-170.5 187,-170.5 187,-211.5"/>
<text text-anchor="start" x="8" y="-199.5" font-family="Helvetica,sans-Serif" font-size="10.00">/home/runner/work/cbmc</text>
<text text-anchor="start" x="8" y="-188.5" font-family="Helvetica,sans-Serif" font-size="10.00">/cbmc/src/solvers/strings</text>
<text text-anchor="middle" x="93.5" y="-177.5" font-family="Helvetica,sans-Serif" font-size="10.00">/string_format_builtin_function.cpp</text>
</a>
</g>
</g>
<!-- Node17&#45;&gt;Node18 -->
<g id="edge20_Node000017_Node000018" class="edge">
<title>Node17&#45;&gt;Node18</title>
<g id="a_edge20_Node000017_Node000018"><a xlink:title=" ">
<path fill="none" stroke="#63b8ff" d="M222.7,-254.07C194.83,-240.68 160.52,-224.2 134.27,-211.59"/>
<polygon fill="#63b8ff" stroke="#63b8ff" points="221.35,-257.31 231.88,-258.49 224.38,-251 221.35,-257.31"/>
</a>
</g>
</g>
<!-- Node20 -->
<g id="Node000020" class="node">
<title>Node20</title>
<g id="a_Node000020"><a xlink:href="string__concatenation__builtin__function_8h.html" target="_top" xlink:title="Builtin functions for string concatenations.">
<polygon fill="white" stroke="#666666" points="400.5,-217 242.5,-217 242.5,-165 400.5,-165 400.5,-217"/>
<text text-anchor="start" x="250.5" y="-205" font-family="Helvetica,sans-Serif" font-size="10.00">/home/runner/work/cbmc</text>
<text text-anchor="start" x="250.5" y="-194" font-family="Helvetica,sans-Serif" font-size="10.00">/cbmc/src/solvers/strings</text>
<text text-anchor="start" x="250.5" y="-183" font-family="Helvetica,sans-Serif" font-size="10.00">/string_concatenation_builtin</text>
<text text-anchor="middle" x="321.5" y="-172" font-family="Helvetica,sans-Serif" font-size="10.00">_function.h</text>
</a>
</g>
</g>
<!-- Node19&#45;&gt;Node20 -->
<g id="edge22_Node000019_Node000020" class="edge">
<title>Node19&#45;&gt;Node20</title>
<g id="a_edge22_Node000019_Node000020"><a xlink:title=" ">
<path fill="none" stroke="#63b8ff" d="M402.43,-247.24C388.04,-237.42 372.3,-226.67 358.55,-217.29"/>
<polygon fill="#63b8ff" stroke="#63b8ff" points="400.48,-250.15 410.72,-252.89 404.43,-244.37 400.48,-250.15"/>
</a>
</g>
</g>
<!-- Node22 -->
<g id="Node000022" class="node">
<title>Node22</title>
<g id="a_Node000022"><a xlink:href="string__insertion__builtin__function_8cpp.html" target="_top" xlink:title=" ">
<polygon fill="white" stroke="#666666" points="556.5,-217 418.5,-217 418.5,-165 556.5,-165 556.5,-217"/>
<text text-anchor="start" x="426.5" y="-205" font-family="Helvetica,sans-Serif" font-size="10.00">/home/runner/work/cbmc</text>
<text text-anchor="start" x="426.5" y="-194" font-family="Helvetica,sans-Serif" font-size="10.00">/cbmc/src/solvers/strings</text>
<text text-anchor="start" x="426.5" y="-183" font-family="Helvetica,sans-Serif" font-size="10.00">/string_insertion_builtin</text>
<text text-anchor="middle" x="487.5" y="-172" font-family="Helvetica,sans-Serif" font-size="10.00">_function.cpp</text>
</a>
</g>
</g>
<!-- Node19&#45;&gt;Node22 -->
<g id="edge25_Node000019_Node000022" class="edge">
<title>Node19&#45;&gt;Node22</title>
<g id="a_edge25_Node000019_Node000022"><a xlink:title=" ">
<path fill="none" stroke="#63b8ff" d="M463.59,-243.4C467.67,-234.63 471.98,-225.36 475.8,-217.16"/>
<polygon fill="#63b8ff" stroke="#63b8ff" points="460.33,-242.12 459.28,-252.66 466.68,-245.07 460.33,-242.12"/>
</a>
</g>
</g>
<!-- Node20&#45;&gt;Node5 -->
<g id="edge24_Node000020_Node000005" class="edge">
<title>Node20&#45;&gt;Node5</title>
<g id="a_edge24_Node000020_Node000005"><a xlink:title=" ">
<path fill="none" stroke="#63b8ff" d="M283.43,-158.21C269.5,-146.58 254.16,-133.77 241.89,-123.53"/>
<polygon fill="#63b8ff" stroke="#63b8ff" points="281.51,-161.17 291.43,-164.89 286,-155.8 281.51,-161.17"/>
</a>
</g>
</g>
<!-- Node21 -->
<g id="Node000021" class="node">
<title>Node21</title>
<g id="a_Node000021"><a xlink:href="string__concatenation__builtin__function_8cpp.html" target="_top" xlink:title="Builtin functions for string concatenations.">
<polygon fill="white" stroke="#666666" points="464.5,-129 306.5,-129 306.5,-77 464.5,-77 464.5,-129"/>
<text text-anchor="start" x="314.5" y="-117" font-family="Helvetica,sans-Serif" font-size="10.00">/home/runner/work/cbmc</text>
<text text-anchor="start" x="314.5" y="-106" font-family="Helvetica,sans-Serif" font-size="10.00">/cbmc/src/solvers/strings</text>
<text text-anchor="start" x="314.5" y="-95" font-family="Helvetica,sans-Serif" font-size="10.00">/string_concatenation_builtin</text>
<text text-anchor="middle" x="385.5" y="-84" font-family="Helvetica,sans-Serif" font-size="10.00">_function.cpp</text>
</a>
</g>
</g>
<!-- Node20&#45;&gt;Node21 -->
<g id="edge23_Node000020_Node000021" class="edge">
<title>Node20&#45;&gt;Node21</title>
<g id="a_edge23_Node000020_Node000021"><a xlink:title=" ">
<path fill="none" stroke="#63b8ff" d="M346.42,-156.52C353.19,-147.42 360.41,-137.71 366.78,-129.16"/>
<polygon fill="#63b8ff" stroke="#63b8ff" points="343.52,-154.55 340.36,-164.66 349.13,-158.73 343.52,-154.55"/>
</a>
</g>
</g>
</g>
</svg>
