<?xml version="1.0" encoding="UTF-8" standalone="no"?>
<!DOCTYPE svg PUBLIC "-//W3C//DTD SVG 1.1//EN"
 "http://www.w3.org/Graphics/SVG/1.1/DTD/svg11.dtd">
<!-- Generated by graphviz version 2.43.0 (0)
 -->
<!-- Title: /home/runner/work/cbmc/cbmc/src/util/structured_data.h Pages: 1 -->
<svg width="1127pt" height="137pt"
 viewBox="0.00 0.00 1126.50 137.00" xmlns="http://www.w3.org/2000/svg" xmlns:xlink="http://www.w3.org/1999/xlink">
<g id="graph0" class="graph" transform="scale(1 1) rotate(0) translate(4 133)">
<title>/home/runner/work/cbmc/cbmc/src/util/structured_data.h</title>
<!-- Node1 -->
<g id="Node000001" class="node">
<title>Node1</title>
<g id="a_Node000001"><a xlink:title=" ">
<polygon fill="#999999" stroke="#666666" points="618.5,-129 480.5,-129 480.5,-88 618.5,-88 618.5,-129"/>
<text text-anchor="start" x="488.5" y="-117" font-family="Helvetica,sans-Serif" font-size="10.00">/home/runner/work/cbmc</text>
<text text-anchor="start" x="488.5" y="-106" font-family="Helvetica,sans-Serif" font-size="10.00">/cbmc/src/util/structured</text>
<text text-anchor="middle" x="549.5" y="-95" font-family="Helvetica,sans-Serif" font-size="10.00">_data.h</text>
</a>
</g>
</g>
<!-- Node2 -->
<g id="Node000002" class="node">
<title>Node2</title>
<g id="a_Node000002"><a xlink:href="single__loop__incremental__symex__checker_8cpp.html" target="_top" xlink:title="Goto Checker using multi&#45;path symbolic execution with incremental unwinding of a specified loop.">
<polygon fill="white" stroke="#666666" points="139,-52 0,-52 0,0 139,0 139,-52"/>
<text text-anchor="start" x="8" y="-40" font-family="Helvetica,sans-Serif" font-size="10.00">/home/runner/work/cbmc</text>
<text text-anchor="start" x="8" y="-29" font-family="Helvetica,sans-Serif" font-size="10.00">/cbmc/src/goto&#45;checker</text>
<text text-anchor="start" x="8" y="-18" font-family="Helvetica,sans-Serif" font-size="10.00">/single_loop_incremental</text>
<text text-anchor="middle" x="69.5" y="-7" font-family="Helvetica,sans-Serif" font-size="10.00">_symex_checker.cpp</text>
</a>
</g>
</g>
<!-- Node1&#45;&gt;Node2 -->
<g id="edge1_Node000001_Node000002" class="edge">
<title>Node1&#45;&gt;Node2</title>
<g id="a_edge1_Node000001_Node000002"><a xlink:title=" ">
<path fill="none" stroke="#63b8ff" d="M470,-100.62C388.38,-92.6 258.02,-77.14 147.5,-52 144.73,-51.37 141.91,-50.68 139.08,-49.96"/>
<polygon fill="#63b8ff" stroke="#63b8ff" points="469.91,-104.13 480.2,-101.61 470.59,-97.16 469.91,-104.13"/>
</a>
</g>
</g>
<!-- Node3 -->
<g id="Node000003" class="node">
<title>Node3</title>
<g id="a_Node000003"><a xlink:href="symex__bmc__incremental__one__loop_8cpp.html" target="_top" xlink:title=" ">
<polygon fill="white" stroke="#666666" points="300,-52 157,-52 157,0 300,0 300,-52"/>
<text text-anchor="start" x="165" y="-40" font-family="Helvetica,sans-Serif" font-size="10.00">/home/runner/work/cbmc</text>
<text text-anchor="start" x="165" y="-29" font-family="Helvetica,sans-Serif" font-size="10.00">/cbmc/src/goto&#45;checker</text>
<text text-anchor="start" x="165" y="-18" font-family="Helvetica,sans-Serif" font-size="10.00">/symex_bmc_incremental</text>
<text text-anchor="middle" x="228.5" y="-7" font-family="Helvetica,sans-Serif" font-size="10.00">_one_loop.cpp</text>
</a>
</g>
</g>
<!-- Node1&#45;&gt;Node3 -->
<g id="edge2_Node000001_Node000003" class="edge">
<title>Node1&#45;&gt;Node3</title>
<g id="a_edge2_Node000001_Node000003"><a xlink:title=" ">
<path fill="none" stroke="#63b8ff" d="M470.56,-90.75C423.58,-80.41 362.89,-66.39 309.5,-52 306.52,-51.2 303.48,-50.35 300.41,-49.49"/>
<polygon fill="#63b8ff" stroke="#63b8ff" points="469.86,-94.18 480.38,-92.9 471.36,-87.34 469.86,-94.18"/>
</a>
</g>
</g>
<!-- Node4 -->
<g id="Node000004" class="node">
<title>Node4</title>
<g id="a_Node000004"><a xlink:href="json_8cpp.html" target="_top" xlink:title=" ">
<polygon fill="white" stroke="#666666" points="456.5,-41 318.5,-41 318.5,-11 456.5,-11 456.5,-41"/>
<text text-anchor="start" x="326.5" y="-29" font-family="Helvetica,sans-Serif" font-size="10.00">/home/runner/work/cbmc</text>
<text text-anchor="middle" x="387.5" y="-18" font-family="Helvetica,sans-Serif" font-size="10.00">/cbmc/src/util/json.cpp</text>
</a>
</g>
</g>
<!-- Node1&#45;&gt;Node4 -->
<g id="edge3_Node000001_Node000004" class="edge">
<title>Node1&#45;&gt;Node4</title>
<g id="a_edge3_Node000001_Node000004"><a xlink:title=" ">
<path fill="none" stroke="#63b8ff" d="M500.72,-83.26C472.97,-69.47 439.2,-52.69 415.8,-41.06"/>
<polygon fill="#63b8ff" stroke="#63b8ff" points="499.36,-86.49 509.87,-87.81 502.47,-80.22 499.36,-86.49"/>
</a>
</g>
</g>
<!-- Node5 -->
<g id="Node000005" class="node">
<title>Node5</title>
<g id="a_Node000005"><a xlink:href="src_2util_2message_8cpp.html" target="_top" xlink:title=" ">
<polygon fill="white" stroke="#666666" points="624,-41 475,-41 475,-11 624,-11 624,-41"/>
<text text-anchor="start" x="483" y="-29" font-family="Helvetica,sans-Serif" font-size="10.00">/home/runner/work/cbmc</text>
<text text-anchor="middle" x="549.5" y="-18" font-family="Helvetica,sans-Serif" font-size="10.00">/cbmc/src/util/message.cpp</text>
</a>
</g>
</g>
<!-- Node1&#45;&gt;Node5 -->
<g id="edge4_Node000001_Node000005" class="edge">
<title>Node1&#45;&gt;Node5</title>
<g id="a_edge4_Node000001_Node000005"><a xlink:title=" ">
<path fill="none" stroke="#63b8ff" d="M549.5,-77.26C549.5,-64.96 549.5,-51.33 549.5,-41.37"/>
<polygon fill="#63b8ff" stroke="#63b8ff" points="546,-77.6 549.5,-87.6 553,-77.6 546,-77.6"/>
</a>
</g>
</g>
<!-- Node6 -->
<g id="Node000006" class="node">
<title>Node6</title>
<g id="a_Node000006"><a xlink:href="structured__data_8cpp.html" target="_top" xlink:title=" ">
<polygon fill="white" stroke="#666666" points="780.5,-46.5 642.5,-46.5 642.5,-5.5 780.5,-5.5 780.5,-46.5"/>
<text text-anchor="start" x="650.5" y="-34.5" font-family="Helvetica,sans-Serif" font-size="10.00">/home/runner/work/cbmc</text>
<text text-anchor="start" x="650.5" y="-23.5" font-family="Helvetica,sans-Serif" font-size="10.00">/cbmc/src/util/structured</text>
<text text-anchor="middle" x="711.5" y="-12.5" font-family="Helvetica,sans-Serif" font-size="10.00">_data.cpp</text>
</a>
</g>
</g>
<!-- Node1&#45;&gt;Node6 -->
<g id="edge5_Node000001_Node000006" class="edge">
<title>Node1&#45;&gt;Node6</title>
<g id="a_edge5_Node000001_Node000006"><a xlink:title=" ">
<path fill="none" stroke="#63b8ff" d="M598.27,-83.27C621.84,-71.55 649.78,-57.67 672,-46.63"/>
<polygon fill="#63b8ff" stroke="#63b8ff" points="596.53,-80.22 589.13,-87.81 599.64,-86.49 596.53,-80.22"/>
</a>
</g>
</g>
<!-- Node7 -->
<g id="Node000007" class="node">
<title>Node7</title>
<g id="a_Node000007"><a xlink:href="ui__message_8cpp.html" target="_top" xlink:title=" ">
<polygon fill="white" stroke="#666666" points="962.5,-41 798.5,-41 798.5,-11 962.5,-11 962.5,-41"/>
<text text-anchor="start" x="806.5" y="-29" font-family="Helvetica,sans-Serif" font-size="10.00">/home/runner/work/cbmc</text>
<text text-anchor="middle" x="880.5" y="-18" font-family="Helvetica,sans-Serif" font-size="10.00">/cbmc/src/util/ui_message.cpp</text>
</a>
</g>
</g>
<!-- Node1&#45;&gt;Node7 -->
<g id="edge6_Node000001_Node000007" class="edge">
<title>Node1&#45;&gt;Node7</title>
<g id="a_edge6_Node000001_Node000007"><a xlink:title=" ">
<path fill="none" stroke="#63b8ff" d="M628.53,-90.08C675.43,-79.53 735.99,-65.53 789.5,-52 802.84,-48.63 817.23,-44.77 830.53,-41.12"/>
<polygon fill="#63b8ff" stroke="#63b8ff" points="627.73,-86.67 618.74,-92.28 629.26,-93.5 627.73,-86.67"/>
</a>
</g>
</g>
<!-- Node8 -->
<g id="Node000008" class="node">
<title>Node8</title>
<g id="a_Node000008"><a xlink:href="xml_8cpp.html" target="_top" xlink:title=" ">
<polygon fill="white" stroke="#666666" points="1118.5,-41 980.5,-41 980.5,-11 1118.5,-11 1118.5,-41"/>
<text text-anchor="start" x="988.5" y="-29" font-family="Helvetica,sans-Serif" font-size="10.00">/home/runner/work/cbmc</text>
<text text-anchor="middle" x="1049.5" y="-18" font-family="Helvetica,sans-Serif" font-size="10.00">/cbmc/src/util/xml.cpp</text>
</a>
</g>
</g>
<!-- Node1&#45;&gt;Node8 -->
<g id="edge7_Node000001_Node000008" class="edge">
<title>Node1&#45;&gt;Node8</title>
<g id="a_edge7_Node000001_Node000008"><a xlink:title=" ">
<path fill="none" stroke="#63b8ff" d="M628.64,-101.36C714,-93.75 853.53,-78.44 971.5,-52 984.27,-49.14 997.93,-45.11 1010.2,-41.11"/>
<polygon fill="#63b8ff" stroke="#63b8ff" points="628.16,-97.89 618.5,-102.25 628.77,-104.86 628.16,-97.89"/>
</a>
</g>
</g>
</g>
</svg>
