<?xml version="1.0" encoding="UTF-8" standalone="no"?>
<!DOCTYPE svg PUBLIC "-//W3C//DTD SVG 1.1//EN"
 "http://www.w3.org/Graphics/SVG/1.1/DTD/svg11.dtd">
<!-- Generated by graphviz version 2.43.0 (0)
 -->
<!-- Title: generic_parameter_specialization_mapt::printert Pages: 1 -->
<svg width="1904pt" height="336pt"
 viewBox="0.00 0.00 1904.00 336.43" xmlns="http://www.w3.org/2000/svg" xmlns:xlink="http://www.w3.org/1999/xlink">
<g id="graph0" class="graph" transform="scale(1 1) rotate(0) translate(4 332.43)">
<title>generic_parameter_specialization_mapt::printert</title>
<!-- Node1 -->
<g id="Node000001" class="node">
<title>Node1</title>
<g id="a_Node000001"><a xlink:title="A wrapper for a generic_parameter_specialization_mapt and a namespacet that can be output to a stream...">
<polygon fill="#999999" stroke="#666666" points="1896,-168.93 1714,-168.93 1714,-138.93 1896,-138.93 1896,-168.93"/>
<text text-anchor="start" x="1722" y="-156.93" font-family="Helvetica,sans-Serif" font-size="10.00">generic_parameter_specialization</text>
<text text-anchor="middle" x="1805" y="-145.93" font-family="Helvetica,sans-Serif" font-size="10.00">_mapt::printert</text>
</a>
</g>
</g>
<!-- Node2 -->
<g id="Node000002" class="node">
<title>Node2</title>
<g id="a_Node000002"><a xlink:href="classgeneric__parameter__specialization__mapt.html" target="_top" xlink:title="Author: Diffblue Ltd.">
<polygon fill="white" stroke="#666666" points="1653,-186.43 1441,-186.43 1441,-167.43 1653,-167.43 1653,-186.43"/>
<text text-anchor="middle" x="1547" y="-174.43" font-family="Helvetica,sans-Serif" font-size="10.00">generic_parameter_specialization_mapt</text>
</a>
</g>
</g>
<!-- Node2&#45;&gt;Node1 -->
<g id="edge1_Node000001_Node000002" class="edge">
<title>Node2&#45;&gt;Node1</title>
<g id="a_edge1_Node000001_Node000002"><a xlink:title=" ">
<path fill="none" stroke="#9a32cd" stroke-dasharray="5,2" d="M1663.2,-166.58C1680.19,-165.06 1697.5,-163.5 1713.89,-162.03"/>
<polygon fill="#9a32cd" stroke="#9a32cd" points="1662.88,-163.1 1653.23,-167.48 1663.51,-170.07 1662.88,-163.1"/>
</a>
</g>
<text text-anchor="middle" x="1683.5" y="-168.93" font-family="Helvetica,sans-Serif" font-size="10.00" fill="grey"> map</text>
</g>
<!-- Node3 -->
<g id="Node000003" class="node">
<title>Node3</title>
<g id="a_Node000003"><a xlink:title=" ">
<polygon fill="white" stroke="#666666" points="671,-195.93 520,-195.93 520,-143.93 671,-143.93 671,-195.93"/>
<text text-anchor="start" x="528" y="-183.93" font-family="Helvetica,sans-Serif" font-size="10.00">std::unordered_map</text>
<text text-anchor="start" x="528" y="-172.93" font-family="Helvetica,sans-Serif" font-size="10.00">&lt; dstringt, generic</text>
<text text-anchor="start" x="528" y="-161.93" font-family="Helvetica,sans-Serif" font-size="10.00">_parameter_specialization</text>
<text text-anchor="middle" x="595.5" y="-150.93" font-family="Helvetica,sans-Serif" font-size="10.00">_mapt::container_paramt &gt;</text>
</a>
</g>
</g>
<!-- Node3&#45;&gt;Node2 -->
<g id="edge2_Node000002_Node000003" class="edge">
<title>Node3&#45;&gt;Node2</title>
<g id="a_edge2_Node000002_Node000003"><a xlink:title=" ">
<path fill="none" stroke="#9a32cd" stroke-dasharray="5,2" d="M681.11,-170.56C854.75,-171.84 1250.91,-174.76 1440.76,-176.16"/>
<polygon fill="#9a32cd" stroke="#9a32cd" points="681.03,-167.06 671.01,-170.48 680.98,-174.06 681.03,-167.06"/>
</a>
</g>
<text text-anchor="middle" x="1057.5" y="-176.93" font-family="Helvetica,sans-Serif" font-size="10.00" fill="grey"> param_to_container</text>
</g>
<!-- Node4 -->
<g id="Node000004" class="node">
<title>Node4</title>
<g id="a_Node000004"><a xlink:href="classdstringt.html" target="_top" xlink:title="dstringt has one field, an unsigned integer no which is an index into a static table of strings.">
<polygon fill="white" stroke="#666666" points="285,-95.43 231,-95.43 231,-76.43 285,-76.43 285,-95.43"/>
<text text-anchor="middle" x="258" y="-83.43" font-family="Helvetica,sans-Serif" font-size="10.00">dstringt</text>
</a>
</g>
</g>
<!-- Node4&#45;&gt;Node3 -->
<g id="edge3_Node000003_Node000004" class="edge">
<title>Node4&#45;&gt;Node3</title>
<g id="a_edge3_Node000003_Node000004"><a xlink:title=" ">
<path fill="none" stroke="#9a32cd" stroke-dasharray="5,2" d="M295.55,-86.45C343.96,-88.1 431.44,-94.43 502,-117.93 507.37,-119.72 528.94,-131.8 549.89,-143.86"/>
<polygon fill="#9a32cd" stroke="#9a32cd" points="295.36,-82.95 285.26,-86.16 295.16,-89.94 295.36,-82.95"/>
</a>
</g>
<text text-anchor="middle" x="434.5" y="-120.93" font-family="Helvetica,sans-Serif" font-size="10.00" fill="grey"> keys</text>
</g>
<!-- Node27 -->
<g id="Node000027" class="node">
<title>Node27</title>
<g id="a_Node000027"><a xlink:title=" ">
<polygon fill="white" stroke="#666666" points="653,-55.93 538,-55.93 538,-25.93 653,-25.93 653,-55.93"/>
<text text-anchor="start" x="546" y="-43.93" font-family="Helvetica,sans-Serif" font-size="10.00">std::multimap&lt; irep</text>
<text text-anchor="middle" x="595.5" y="-32.93" font-family="Helvetica,sans-Serif" font-size="10.00">_idt, irep_idt &gt;</text>
</a>
</g>
</g>
<!-- Node4&#45;&gt;Node27 -->
<g id="edge23_Node000027_Node000004" class="edge">
<title>Node4&#45;&gt;Node27</title>
<g id="a_edge23_Node000027_Node000004"><a xlink:title=" ">
<path fill="none" stroke="#9a32cd" stroke-dasharray="5,2" d="M295.68,-84.27C313,-82.03 333.27,-77.18 349,-66.93 360.47,-59.46 354.83,-48.2 367,-41.93 420.02,-14.63 489.65,-19.18 537.84,-27.52"/>
<polygon fill="#9a32cd" stroke="#9a32cd" points="294.92,-80.83 285.34,-85.35 295.65,-87.79 294.92,-80.83"/>
</a>
</g>
<text text-anchor="middle" x="434.5" y="-55.93" font-family="Helvetica,sans-Serif" font-size="10.00" fill="grey"> elements</text>
<text text-anchor="middle" x="434.5" y="-44.93" font-family="Helvetica,sans-Serif" font-size="10.00" fill="grey">keys</text>
</g>
<!-- Node5 -->
<g id="Node000005" class="node">
<title>Node5</title>
<g id="a_Node000005"><a xlink:href="structgeneric__parameter__specialization__mapt_1_1container__paramt.html" target="_top" xlink:title="The index of the container and the type parameter inside that container.">
<polygon fill="white" stroke="#666666" points="349,-214.93 167,-214.93 167,-184.93 349,-184.93 349,-214.93"/>
<text text-anchor="start" x="175" y="-202.93" font-family="Helvetica,sans-Serif" font-size="10.00">generic_parameter_specialization</text>
<text text-anchor="middle" x="258" y="-191.93" font-family="Helvetica,sans-Serif" font-size="10.00">_mapt::container_paramt</text>
</a>
</g>
</g>
<!-- Node5&#45;&gt;Node3 -->
<g id="edge4_Node000003_Node000005" class="edge">
<title>Node5&#45;&gt;Node3</title>
<g id="a_edge4_Node000003_Node000005"><a xlink:title=" ">
<path fill="none" stroke="#9a32cd" stroke-dasharray="5,2" d="M359.13,-191.52C402.99,-187.78 455.06,-183.25 502,-178.93 507.78,-178.4 513.77,-177.84 519.79,-177.27"/>
<polygon fill="#9a32cd" stroke="#9a32cd" points="358.7,-188.05 349.03,-192.39 359.29,-195.02 358.7,-188.05"/>
</a>
</g>
<text text-anchor="middle" x="434.5" y="-192.93" font-family="Helvetica,sans-Serif" font-size="10.00" fill="grey"> elements</text>
</g>
<!-- Node6 -->
<g id="Node000006" class="node">
<title>Node6</title>
<g id="a_Node000006"><a xlink:title=" ">
<polygon fill="white" stroke="#666666" points="315,-151.93 201,-151.93 201,-121.93 315,-121.93 315,-151.93"/>
<text text-anchor="start" x="209" y="-139.93" font-family="Helvetica,sans-Serif" font-size="10.00">std::unordered_map</text>
<text text-anchor="middle" x="258" y="-128.93" font-family="Helvetica,sans-Serif" font-size="10.00">&lt; K, T &gt;</text>
</a>
</g>
</g>
<!-- Node6&#45;&gt;Node3 -->
<g id="edge5_Node000003_Node000006" class="edge">
<title>Node6&#45;&gt;Node3</title>
<g id="a_edge5_Node000003_Node000006"><a xlink:title=" ">
<path fill="none" stroke="orange" stroke-dasharray="5,2" d="M325.54,-133.44C374.62,-132.04 442.86,-132.56 502,-141.93 507.88,-142.87 513.91,-144.08 519.94,-145.48"/>
<polygon fill="orange" stroke="orange" points="325.25,-129.95 315.36,-133.76 325.47,-136.94 325.25,-129.95"/>
</a>
</g>
<text text-anchor="start" x="367" y="-166.93" font-family="Helvetica,sans-Serif" font-size="10.00" fill="grey"> &lt; dstringt, generic</text>
<text text-anchor="start" x="367" y="-155.93" font-family="Helvetica,sans-Serif" font-size="10.00" fill="grey">_parameter_specialization</text>
<text text-anchor="middle" x="434.5" y="-144.93" font-family="Helvetica,sans-Serif" font-size="10.00" fill="grey">_mapt::container_paramt &gt;</text>
</g>
<!-- Node26 -->
<g id="Node000026" class="node">
<title>Node26</title>
<g id="a_Node000026"><a xlink:href="classsymbol__table__baset.html" target="_top" xlink:title="The symbol table base class interface.">
<polygon fill="white" stroke="#666666" points="982.5,-110.43 867.5,-110.43 867.5,-91.43 982.5,-91.43 982.5,-110.43"/>
<text text-anchor="middle" x="925" y="-98.43" font-family="Helvetica,sans-Serif" font-size="10.00">symbol_table_baset</text>
</a>
</g>
</g>
<!-- Node6&#45;&gt;Node26 -->
<g id="edge21_Node000026_Node000006" class="edge">
<title>Node6&#45;&gt;Node26</title>
<g id="a_edge21_Node000026_Node000006"><a xlink:title=" ">
<path fill="none" stroke="#9a32cd" stroke-dasharray="5,2" d="M325.4,-131.77C339.15,-130.77 353.54,-129.77 367,-128.93 549.89,-117.56 766.77,-107.7 867.44,-103.33"/>
<polygon fill="#9a32cd" stroke="#9a32cd" points="324.75,-128.3 315.04,-132.53 325.27,-135.28 324.75,-128.3"/>
</a>
</g>
<text text-anchor="middle" x="595.5" y="-122.93" font-family="Helvetica,sans-Serif" font-size="10.00" fill="grey"> symbols</text>
</g>
<!-- Node7 -->
<g id="Node000007" class="node">
<title>Node7</title>
<g id="a_Node000007"><a xlink:title=" ">
<polygon fill="white" stroke="#666666" points="55.5,-84.43 26.5,-84.43 26.5,-65.43 55.5,-65.43 55.5,-84.43"/>
<text text-anchor="middle" x="41" y="-72.43" font-family="Helvetica,sans-Serif" font-size="10.00">K</text>
</a>
</g>
</g>
<!-- Node7&#45;&gt;Node6 -->
<g id="edge6_Node000006_Node000007" class="edge">
<title>Node7&#45;&gt;Node6</title>
<g id="a_edge6_Node000006_Node000007"><a xlink:title=" ">
<path fill="none" stroke="#9a32cd" stroke-dasharray="5,2" d="M65.53,-81.72C98.81,-91.32 160.54,-109.12 204.92,-121.91"/>
<polygon fill="#9a32cd" stroke="#9a32cd" points="66.35,-78.31 55.78,-78.91 64.41,-85.04 66.35,-78.31"/>
</a>
</g>
<text text-anchor="middle" x="124.5" y="-107.93" font-family="Helvetica,sans-Serif" font-size="10.00" fill="grey"> keys</text>
</g>
<!-- Node28 -->
<g id="Node000028" class="node">
<title>Node28</title>
<g id="a_Node000028"><a xlink:title=" ">
<polygon fill="white" stroke="#666666" points="321,-58.43 195,-58.43 195,-39.43 321,-39.43 321,-58.43"/>
<text text-anchor="middle" x="258" y="-46.43" font-family="Helvetica,sans-Serif" font-size="10.00">std::multimap&lt; K, T &gt;</text>
</a>
</g>
</g>
<!-- Node7&#45;&gt;Node28 -->
<g id="edge25_Node000028_Node000007" class="edge">
<title>Node7&#45;&gt;Node28</title>
<g id="a_edge25_Node000028_Node000007"><a xlink:title=" ">
<path fill="none" stroke="#9a32cd" stroke-dasharray="5,2" d="M65.86,-70.98C76.32,-69.31 88.75,-67.41 100,-65.93 131.12,-61.84 165.81,-58 194.65,-55.02"/>
<polygon fill="#9a32cd" stroke="#9a32cd" points="65.11,-67.55 55.8,-72.61 66.23,-74.46 65.11,-67.55"/>
</a>
</g>
<text text-anchor="middle" x="124.5" y="-68.93" font-family="Helvetica,sans-Serif" font-size="10.00" fill="grey"> keys</text>
</g>
<!-- Node8 -->
<g id="Node000008" class="node">
<title>Node8</title>
<g id="a_Node000008"><a xlink:title=" ">
<polygon fill="white" stroke="#666666" points="55.5,-205.43 26.5,-205.43 26.5,-186.43 55.5,-186.43 55.5,-205.43"/>
<text text-anchor="middle" x="41" y="-193.43" font-family="Helvetica,sans-Serif" font-size="10.00">T</text>
</a>
</g>
</g>
<!-- Node8&#45;&gt;Node6 -->
<g id="edge7_Node000006_Node000008" class="edge">
<title>Node8&#45;&gt;Node6</title>
<g id="a_edge7_Node000006_Node000008"><a xlink:title=" ">
<path fill="none" stroke="#9a32cd" stroke-dasharray="5,2" d="M65.75,-189.42C98.39,-180.46 158.07,-164.08 202.11,-152"/>
<polygon fill="#9a32cd" stroke="#9a32cd" points="64.49,-186.13 55.78,-192.15 66.35,-192.88 64.49,-186.13"/>
</a>
</g>
<text text-anchor="middle" x="124.5" y="-180.93" font-family="Helvetica,sans-Serif" font-size="10.00" fill="grey"> elements</text>
</g>
<!-- Node21 -->
<g id="Node000021" class="node">
<title>Node21</title>
<g id="a_Node000021"><a xlink:title=" ">
<polygon fill="white" stroke="#666666" points="306.5,-252.43 209.5,-252.43 209.5,-233.43 306.5,-233.43 306.5,-252.43"/>
<text text-anchor="middle" x="258" y="-240.43" font-family="Helvetica,sans-Serif" font-size="10.00">std::vector&lt; T &gt;</text>
</a>
</g>
</g>
<!-- Node8&#45;&gt;Node21 -->
<g id="edge14_Node000021_Node000008" class="edge">
<title>Node8&#45;&gt;Node21</title>
<g id="a_edge14_Node000021_Node000008"><a xlink:title=" ">
<path fill="none" stroke="#9a32cd" stroke-dasharray="5,2" d="M65.93,-201.39C91.08,-207.09 131.79,-216.27 167,-223.93 181.36,-227.06 197.02,-230.39 211.19,-233.38"/>
<polygon fill="#9a32cd" stroke="#9a32cd" points="66.39,-197.9 55.86,-199.1 64.84,-204.73 66.39,-197.9"/>
</a>
</g>
<text text-anchor="middle" x="124.5" y="-221.93" font-family="Helvetica,sans-Serif" font-size="10.00" fill="grey"> elements</text>
</g>
<!-- Node23 -->
<g id="Node000023" class="node">
<title>Node23</title>
<g id="a_Node000023"><a xlink:title=" ">
<polygon fill="white" stroke="#666666" points="480.5,-295.43 388.5,-295.43 388.5,-276.43 480.5,-276.43 480.5,-295.43"/>
<text text-anchor="middle" x="434.5" y="-283.43" font-family="Helvetica,sans-Serif" font-size="10.00">std::stack&lt; T &gt;</text>
</a>
</g>
</g>
<!-- Node8&#45;&gt;Node23 -->
<g id="edge16_Node000023_Node000008" class="edge">
<title>Node8&#45;&gt;Node23</title>
<g id="a_edge16_Node000023_Node000008"><a xlink:title=" ">
<path fill="none" stroke="#9a32cd" stroke-dasharray="5,2" d="M63.29,-211.35C87.16,-227.61 127.71,-252.2 167,-261.93 243.2,-280.81 334.94,-285.22 388.49,-286.04"/>
<polygon fill="#9a32cd" stroke="#9a32cd" points="65.2,-208.42 54.99,-205.58 61.2,-214.16 65.2,-208.42"/>
</a>
</g>
<text text-anchor="middle" x="124.5" y="-258.93" font-family="Helvetica,sans-Serif" font-size="10.00" fill="grey"> elements</text>
</g>
<!-- Node8&#45;&gt;Node28 -->
<g id="edge26_Node000028_Node000008" class="edge">
<title>Node8&#45;&gt;Node28</title>
<g id="a_edge26_Node000028_Node000008"><a xlink:title=" ">
<path fill="none" stroke="#9a32cd" stroke-dasharray="5,2" d="M63.91,-180.08C94.99,-157.59 148.22,-118.98 149,-117.93 163.36,-98.65 148.84,-82.68 167,-66.93 174.94,-60.04 184.78,-55.51 194.99,-52.57"/>
<polygon fill="#9a32cd" stroke="#9a32cd" points="61.47,-177.53 55.42,-186.22 65.58,-183.2 61.47,-177.53"/>
</a>
</g>
<text text-anchor="middle" x="124.5" y="-155.93" font-family="Helvetica,sans-Serif" font-size="10.00" fill="grey"> elements</text>
</g>
<!-- Node9 -->
<g id="Node000009" class="node">
<title>Node9</title>
<g id="a_Node000009"><a xlink:title=" ">
<polygon fill="white" stroke="#666666" points="1263,-247.43 1126,-247.43 1126,-206.43 1263,-206.43 1263,-247.43"/>
<text text-anchor="start" x="1134" y="-235.43" font-family="Helvetica,sans-Serif" font-size="10.00">std::vector&lt; std::stack</text>
<text text-anchor="start" x="1134" y="-224.43" font-family="Helvetica,sans-Serif" font-size="10.00">&lt; std::vector&lt; reference</text>
<text text-anchor="middle" x="1194.5" y="-213.43" font-family="Helvetica,sans-Serif" font-size="10.00">_typet &gt; &gt; &gt;</text>
</a>
</g>
</g>
<!-- Node9&#45;&gt;Node2 -->
<g id="edge8_Node000002_Node000009" class="edge">
<title>Node9&#45;&gt;Node2</title>
<g id="a_edge8_Node000002_Node000009"><a xlink:title=" ">
<path fill="none" stroke="#9a32cd" stroke-dasharray="5,2" d="M1273.17,-215.85C1334.95,-207.04 1420.48,-194.84 1479.22,-186.46"/>
<polygon fill="#9a32cd" stroke="#9a32cd" points="1272.49,-212.42 1263.08,-217.29 1273.47,-219.35 1272.49,-212.42"/>
</a>
</g>
<text text-anchor="middle" x="1352" y="-215.93" font-family="Helvetica,sans-Serif" font-size="10.00" fill="grey"> container_to_specializations</text>
</g>
<!-- Node10 -->
<g id="Node000010" class="node">
<title>Node10</title>
<g id="a_Node000010"><a xlink:title=" ">
<polygon fill="white" stroke="#666666" points="989,-286.93 861,-286.93 861,-256.93 989,-256.93 989,-286.93"/>
<text text-anchor="start" x="869" y="-274.93" font-family="Helvetica,sans-Serif" font-size="10.00">std::stack&lt; std::vector</text>
<text text-anchor="middle" x="925" y="-263.93" font-family="Helvetica,sans-Serif" font-size="10.00">&lt; reference_typet &gt; &gt;</text>
</a>
</g>
</g>
<!-- Node10&#45;&gt;Node9 -->
<g id="edge9_Node000009_Node000010" class="edge">
<title>Node10&#45;&gt;Node9</title>
<g id="a_edge9_Node000009_Node000010"><a xlink:title=" ">
<path fill="none" stroke="#9a32cd" stroke-dasharray="5,2" d="M999.15,-259.63C1038.65,-252.98 1087.08,-244.83 1125.72,-238.34"/>
<polygon fill="#9a32cd" stroke="#9a32cd" points="998.34,-256.22 989.06,-261.33 999.5,-263.12 998.34,-256.22"/>
</a>
</g>
<text text-anchor="middle" x="1057.5" y="-259.93" font-family="Helvetica,sans-Serif" font-size="10.00" fill="grey"> elements</text>
</g>
<!-- Node11 -->
<g id="Node000011" class="node">
<title>Node11</title>
<g id="a_Node000011"><a xlink:title=" ">
<polygon fill="white" stroke="#666666" points="658.5,-284.93 532.5,-284.93 532.5,-254.93 658.5,-254.93 658.5,-284.93"/>
<text text-anchor="start" x="540.5" y="-272.93" font-family="Helvetica,sans-Serif" font-size="10.00">std::vector&lt; reference</text>
<text text-anchor="middle" x="595.5" y="-261.93" font-family="Helvetica,sans-Serif" font-size="10.00">_typet &gt;</text>
</a>
</g>
</g>
<!-- Node11&#45;&gt;Node10 -->
<g id="edge10_Node000010_Node000011" class="edge">
<title>Node11&#45;&gt;Node10</title>
<g id="a_edge10_Node000010_Node000011"><a xlink:title=" ">
<path fill="none" stroke="#9a32cd" stroke-dasharray="5,2" d="M668.97,-270.38C726.4,-270.73 805.86,-271.21 860.75,-271.55"/>
<polygon fill="#9a32cd" stroke="#9a32cd" points="668.89,-266.88 658.87,-270.31 668.85,-273.87 668.89,-266.88"/>
</a>
</g>
<text text-anchor="middle" x="766" y="-273.93" font-family="Helvetica,sans-Serif" font-size="10.00" fill="grey"> elements</text>
</g>
<!-- Node12 -->
<g id="Node000012" class="node">
<title>Node12</title>
<g id="a_Node000012"><a xlink:href="classreference__typet.html" target="_top" xlink:title="The reference type.">
<polygon fill="white" stroke="#666666" points="305,-328.43 211,-328.43 211,-309.43 305,-309.43 305,-328.43"/>
<text text-anchor="middle" x="258" y="-316.43" font-family="Helvetica,sans-Serif" font-size="10.00">reference_typet</text>
</a>
</g>
</g>
<!-- Node12&#45;&gt;Node11 -->
<g id="edge11_Node000011_Node000012" class="edge">
<title>Node12&#45;&gt;Node11</title>
<g id="a_edge11_Node000011_Node000012"><a xlink:title=" ">
<path fill="none" stroke="#9a32cd" stroke-dasharray="5,2" d="M315.23,-316.93C364.76,-314.43 438.66,-308.93 502,-296.93 517.62,-293.98 534.38,-289.5 549.29,-285.03"/>
<polygon fill="#9a32cd" stroke="#9a32cd" points="314.87,-313.44 305.05,-317.42 315.2,-320.44 314.87,-313.44"/>
</a>
</g>
<text text-anchor="middle" x="434.5" y="-315.93" font-family="Helvetica,sans-Serif" font-size="10.00" fill="grey"> elements</text>
</g>
<!-- Node13 -->
<g id="Node000013" class="node">
<title>Node13</title>
<g id="a_Node000013"><a xlink:href="classpointer__typet.html" target="_top" xlink:title="The pointer type These are both &#39;bitvector_typet&#39; (they have a width) and &#39;type_with_subtypet&#39; (they ...">
<polygon fill="#fff0f0" stroke="red" points="82,-328.43 0,-328.43 0,-309.43 82,-309.43 82,-328.43"/>
<text text-anchor="middle" x="41" y="-316.43" font-family="Helvetica,sans-Serif" font-size="10.00">pointer_typet</text>
</a>
</g>
</g>
<!-- Node13&#45;&gt;Node12 -->
<g id="edge12_Node000012_Node000013" class="edge">
<title>Node13&#45;&gt;Node12</title>
<g id="a_edge12_Node000012_Node000013"><a xlink:title=" ">
<path fill="none" stroke="#63b8ff" d="M92.41,-318.93C128.18,-318.93 175.84,-318.93 210.66,-318.93"/>
<polygon fill="#63b8ff" stroke="#63b8ff" points="92.19,-315.43 82.19,-318.93 92.19,-322.43 92.19,-315.43"/>
</a>
</g>
</g>
<!-- Node21&#45;&gt;Node9 -->
<g id="edge17_Node000009_Node000021" class="edge">
<title>Node21&#45;&gt;Node9</title>
<g id="a_edge17_Node000009_Node000021"><a xlink:title=" ">
<path fill="none" stroke="orange" stroke-dasharray="5,2" d="M317.01,-241.94C481.41,-239.12 949.88,-231.1 1125.71,-228.09"/>
<polygon fill="orange" stroke="orange" points="316.57,-238.45 306.63,-242.12 316.69,-245.45 316.57,-238.45"/>
</a>
</g>
<text text-anchor="start" x="689" y="-248.93" font-family="Helvetica,sans-Serif" font-size="10.00" fill="grey"> &lt; std::stack&lt; std::</text>
<text text-anchor="middle" x="766" y="-237.93" font-family="Helvetica,sans-Serif" font-size="10.00" fill="grey">vector&lt; reference_typet &gt; &gt; &gt;</text>
</g>
<!-- Node21&#45;&gt;Node11 -->
<g id="edge13_Node000011_Node000021" class="edge">
<title>Node21&#45;&gt;Node11</title>
<g id="a_edge13_Node000011_Node000021"><a xlink:title=" ">
<path fill="none" stroke="orange" stroke-dasharray="5,2" d="M316.7,-245.88C365.98,-248.59 438.72,-253.09 502,-258.93 511.82,-259.84 522.22,-260.94 532.35,-262.09"/>
<polygon fill="orange" stroke="orange" points="316.73,-242.37 306.55,-245.32 316.35,-249.36 316.73,-242.37"/>
</a>
</g>
<text text-anchor="middle" x="434.5" y="-261.93" font-family="Helvetica,sans-Serif" font-size="10.00" fill="grey"> &lt; reference_typet &gt;</text>
</g>
<!-- Node23&#45;&gt;Node10 -->
<g id="edge15_Node000010_Node000023" class="edge">
<title>Node23&#45;&gt;Node10</title>
<g id="a_edge15_Node000010_Node000023"><a xlink:title=" ">
<path fill="none" stroke="orange" stroke-dasharray="5,2" d="M490.64,-291.91C500.41,-292.75 510.5,-293.48 520,-293.93 663.44,-300.71 700.25,-301.53 843,-285.93 848.82,-285.3 854.85,-284.51 860.88,-283.63"/>
<polygon fill="orange" stroke="orange" points="490.89,-288.42 480.61,-291 490.26,-295.39 490.89,-288.42"/>
</a>
</g>
<text text-anchor="start" x="533.5" y="-311.93" font-family="Helvetica,sans-Serif" font-size="10.00" fill="grey"> &lt; std::vector&lt; reference</text>
<text text-anchor="middle" x="595.5" y="-300.93" font-family="Helvetica,sans-Serif" font-size="10.00" fill="grey">_typet &gt; &gt;</text>
</g>
<!-- Node24 -->
<g id="Node000024" class="node">
<title>Node24</title>
<g id="a_Node000024"><a xlink:href="classnamespacet.html" target="_top" xlink:title="A namespacet is essentially one or two symbol tables bound together, to allow for symbol lookups in t...">
<polygon fill="white" stroke="#666666" points="1233,-147.43 1156,-147.43 1156,-128.43 1233,-128.43 1233,-147.43"/>
<text text-anchor="middle" x="1194.5" y="-135.43" font-family="Helvetica,sans-Serif" font-size="10.00">namespacet</text>
</a>
</g>
</g>
<!-- Node24&#45;&gt;Node1 -->
<g id="edge18_Node000001_Node000024" class="edge">
<title>Node24&#45;&gt;Node1</title>
<g id="a_edge18_Node000001_Node000024"><a xlink:title=" ">
<path fill="none" stroke="#9a32cd" stroke-dasharray="5,2" d="M1243.33,-138.45C1326.59,-139.46 1503.57,-142 1653,-146.93 1672.67,-147.58 1693.78,-148.45 1713.79,-149.36"/>
<polygon fill="#9a32cd" stroke="#9a32cd" points="1243.21,-134.95 1233.17,-138.33 1243.13,-141.95 1243.21,-134.95"/>
</a>
</g>
<text text-anchor="middle" x="1547" y="-149.93" font-family="Helvetica,sans-Serif" font-size="10.00" fill="grey"> ns</text>
</g>
<!-- Node25 -->
<g id="Node000025" class="node">
<title>Node25</title>
<g id="a_Node000025"><a xlink:href="classnamespace__baset.html" target="_top" xlink:title="Basic interface for a namespace.">
<polygon fill="white" stroke="#666666" points="977.5,-147.43 872.5,-147.43 872.5,-128.43 977.5,-128.43 977.5,-147.43"/>
<text text-anchor="middle" x="925" y="-135.43" font-family="Helvetica,sans-Serif" font-size="10.00">namespace_baset</text>
</a>
</g>
</g>
<!-- Node25&#45;&gt;Node24 -->
<g id="edge19_Node000024_Node000025" class="edge">
<title>Node25&#45;&gt;Node24</title>
<g id="a_edge19_Node000024_Node000025"><a xlink:title=" ">
<path fill="none" stroke="#63b8ff" d="M987.67,-137.93C1039.61,-137.93 1112.23,-137.93 1155.88,-137.93"/>
<polygon fill="#63b8ff" stroke="#63b8ff" points="987.58,-134.43 977.58,-137.93 987.58,-141.43 987.58,-134.43"/>
</a>
</g>
</g>
<!-- Node26&#45;&gt;Node24 -->
<g id="edge20_Node000024_Node000026" class="edge">
<title>Node26&#45;&gt;Node24</title>
<g id="a_edge20_Node000024_Node000026"><a xlink:title=" ">
<path fill="none" stroke="#9a32cd" stroke-dasharray="5,2" d="M992.57,-101.22C1027.22,-102.31 1070.14,-105.13 1108,-111.93 1128.46,-115.61 1150.93,-122.56 1167.7,-128.35"/>
<polygon fill="#9a32cd" stroke="#9a32cd" points="992.66,-97.72 982.57,-100.94 992.47,-104.72 992.66,-97.72"/>
</a>
</g>
<text text-anchor="middle" x="1057.5" y="-125.93" font-family="Helvetica,sans-Serif" font-size="10.00" fill="grey"> symbol_table1</text>
<text text-anchor="middle" x="1057.5" y="-114.93" font-family="Helvetica,sans-Serif" font-size="10.00" fill="grey">symbol_table2</text>
</g>
<!-- Node27&#45;&gt;Node26 -->
<g id="edge22_Node000026_Node000027" class="edge">
<title>Node27&#45;&gt;Node26</title>
<g id="a_edge22_Node000026_Node000027"><a xlink:title=" ">
<path fill="none" stroke="#9a32cd" stroke-dasharray="5,2" d="M663.27,-47.52C713.16,-53.14 782.82,-62.46 843,-75.93 861.24,-80.02 881.32,-86.2 896.92,-91.4"/>
<polygon fill="#9a32cd" stroke="#9a32cd" points="663.58,-44.03 653.25,-46.41 662.81,-50.99 663.58,-44.03"/>
</a>
</g>
<text text-anchor="middle" x="766" y="-89.93" font-family="Helvetica,sans-Serif" font-size="10.00" fill="grey"> symbol_base_map</text>
<text text-anchor="middle" x="766" y="-78.93" font-family="Helvetica,sans-Serif" font-size="10.00" fill="grey">symbol_module_map</text>
</g>
<!-- Node28&#45;&gt;Node27 -->
<g id="edge24_Node000027_Node000028" class="edge">
<title>Node28&#45;&gt;Node27</title>
<g id="a_edge24_Node000027_Node000028"><a xlink:title=" ">
<path fill="none" stroke="orange" stroke-dasharray="5,2" d="M287.02,-35.06C308.36,-25.31 338.77,-13.11 367,-7.93 426.02,2.89 442.88,2.3 502,-7.93 522.16,-11.42 543.75,-18.89 560.99,-25.84"/>
<polygon fill="orange" stroke="orange" points="285.47,-31.93 277.9,-39.34 288.44,-38.26 285.47,-31.93"/>
</a>
</g>
<text text-anchor="middle" x="434.5" y="-10.93" font-family="Helvetica,sans-Serif" font-size="10.00" fill="grey"> &lt; irep_idt, irep_idt &gt;</text>
</g>
</g>
</svg>
