<?xml version="1.0" encoding="UTF-8" standalone="no"?>
<!DOCTYPE svg PUBLIC "-//W3C//DTD SVG 1.1//EN"
 "http://www.w3.org/Graphics/SVG/1.1/DTD/svg11.dtd">
<!-- Generated by graphviz version 2.43.0 (0)
 -->
<!-- Title: require_parse_tree::expected_instructiont Pages: 1 -->
<svg width="1809pt" height="163pt"
 viewBox="0.00 0.00 1809.00 163.00" xmlns="http://www.w3.org/2000/svg" xmlns:xlink="http://www.w3.org/1999/xlink">
<g id="graph0" class="graph" transform="scale(1 1) rotate(0) translate(4 159)">
<title>require_parse_tree::expected_instructiont</title>
<!-- Node1 -->
<g id="Node000001" class="node">
<title>Node1</title>
<g id="a_Node000001"><a xlink:title=" ">
<polygon fill="#999999" stroke="#666666" points="1801,-135 1673,-135 1673,-105 1801,-105 1801,-135"/>
<text text-anchor="start" x="1681" y="-123" font-family="Helvetica,sans-Serif" font-size="10.00">require_parse_tree</text>
<text text-anchor="middle" x="1737" y="-112" font-family="Helvetica,sans-Serif" font-size="10.00">::expected_instructiont</text>
</a>
</g>
</g>
<!-- Node2 -->
<g id="Node000002" class="node">
<title>Node2</title>
<g id="a_Node000002"><a xlink:href="classdstringt.html" target="_top" xlink:title="dstringt has one field, an unsigned integer no which is an index into a static table of strings.">
<polygon fill="white" stroke="#666666" points="278.5,-126.5 224.5,-126.5 224.5,-107.5 278.5,-107.5 278.5,-126.5"/>
<text text-anchor="middle" x="251.5" y="-114.5" font-family="Helvetica,sans-Serif" font-size="10.00">dstringt</text>
</a>
</g>
</g>
<!-- Node2&#45;&gt;Node1 -->
<g id="edge1_Node000001_Node000002" class="edge">
<title>Node2&#45;&gt;Node1</title>
<g id="a_edge1_Node000001_Node000002"><a xlink:title=" ">
<path fill="none" stroke="#9a32cd" stroke-dasharray="5,2" d="M288.41,-124.54C329.63,-132.53 399.38,-144 460,-144 460,-144 460,-144 1467,-144 1537.68,-144 1618.4,-135.68 1672.82,-128.83"/>
<polygon fill="#9a32cd" stroke="#9a32cd" points="289.05,-121.1 278.56,-122.59 287.69,-127.97 289.05,-121.1"/>
</a>
</g>
<text text-anchor="middle" x="1134" y="-147" font-family="Helvetica,sans-Serif" font-size="10.00" fill="grey"> instruction_mnemoic</text>
</g>
<!-- Node7 -->
<g id="Node000007" class="node">
<title>Node7</title>
<g id="a_Node000007"><a xlink:href="classtree__nodet.html" target="_top" xlink:title="A node with data in a tree, it contains:">
<polygon fill="white" stroke="#666666" points="540,-93 382,-93 382,-63 540,-63 540,-93"/>
<text text-anchor="start" x="390" y="-81" font-family="Helvetica,sans-Serif" font-size="10.00">tree_nodet&lt; treet,</text>
<text text-anchor="middle" x="461" y="-70" font-family="Helvetica,sans-Serif" font-size="10.00"> named_subtreest, sharing &gt;</text>
</a>
</g>
</g>
<!-- Node2&#45;&gt;Node7 -->
<g id="edge8_Node000007_Node000002" class="edge">
<title>Node2&#45;&gt;Node7</title>
<g id="a_edge8_Node000007_Node000002"><a xlink:title=" ">
<path fill="none" stroke="#9a32cd" stroke-dasharray="5,2" d="M288.79,-110.18C314.43,-105.36 349.77,-98.72 381.69,-92.72"/>
<polygon fill="#9a32cd" stroke="#9a32cd" points="287.96,-106.77 278.78,-112.06 289.25,-113.65 287.96,-106.77"/>
</a>
</g>
<text text-anchor="middle" x="351.5" y="-102" font-family="Helvetica,sans-Serif" font-size="10.00" fill="grey"> data</text>
</g>
<!-- Node3 -->
<g id="Node000003" class="node">
<title>Node3</title>
<g id="a_Node000003"><a xlink:title=" ">
<polygon fill="white" stroke="#666666" points="1524,-81.5 1408,-81.5 1408,-62.5 1524,-62.5 1524,-81.5"/>
<text text-anchor="middle" x="1466" y="-69.5" font-family="Helvetica,sans-Serif" font-size="10.00">std::vector&lt; exprt &gt;</text>
</a>
</g>
</g>
<!-- Node3&#45;&gt;Node1 -->
<g id="edge2_Node000001_Node000003" class="edge">
<title>Node3&#45;&gt;Node1</title>
<g id="a_edge2_Node000001_Node000003"><a xlink:title=" ">
<path fill="none" stroke="#9a32cd" stroke-dasharray="5,2" d="M1530.51,-83.33C1573.42,-90.99 1629.84,-101.06 1672.7,-108.71"/>
<polygon fill="#9a32cd" stroke="#9a32cd" points="1530.93,-79.85 1520.47,-81.54 1529.7,-86.74 1530.93,-79.85"/>
</a>
</g>
<text text-anchor="middle" x="1598.5" y="-107" font-family="Helvetica,sans-Serif" font-size="10.00" fill="grey"> instruction_arguments</text>
</g>
<!-- Node4 -->
<g id="Node000004" class="node">
<title>Node4</title>
<g id="a_Node000004"><a xlink:href="classexprt.html" target="_top" xlink:title="Base class for all expressions.">
<polygon fill="white" stroke="#666666" points="1323,-81.5 1281,-81.5 1281,-62.5 1323,-62.5 1323,-81.5"/>
<text text-anchor="middle" x="1302" y="-69.5" font-family="Helvetica,sans-Serif" font-size="10.00">exprt</text>
</a>
</g>
</g>
<!-- Node4&#45;&gt;Node3 -->
<g id="edge3_Node000003_Node000004" class="edge">
<title>Node4&#45;&gt;Node3</title>
<g id="a_edge3_Node000003_Node000004"><a xlink:title=" ">
<path fill="none" stroke="#9a32cd" stroke-dasharray="5,2" d="M1333.4,-72C1354.34,-72 1382.8,-72 1407.91,-72"/>
<polygon fill="#9a32cd" stroke="#9a32cd" points="1333.19,-68.5 1323.19,-72 1333.19,-75.5 1333.19,-68.5"/>
</a>
</g>
<text text-anchor="middle" x="1365.5" y="-75" font-family="Helvetica,sans-Serif" font-size="10.00" fill="grey"> elements</text>
</g>
<!-- Node5 -->
<g id="Node000005" class="node">
<title>Node5</title>
<g id="a_Node000005"><a xlink:href="classirept.html" target="_top" xlink:title="There are a large number of kinds of tree structured or tree&#45;like data in CPROVER.">
<polygon fill="white" stroke="#666666" points="1244,-81.5 1205,-81.5 1205,-62.5 1244,-62.5 1244,-81.5"/>
<text text-anchor="middle" x="1224.5" y="-69.5" font-family="Helvetica,sans-Serif" font-size="10.00">irept</text>
</a>
</g>
</g>
<!-- Node5&#45;&gt;Node4 -->
<g id="edge4_Node000004_Node000005" class="edge">
<title>Node5&#45;&gt;Node4</title>
<g id="a_edge4_Node000004_Node000005"><a xlink:title=" ">
<path fill="none" stroke="#63b8ff" d="M1254.18,-72C1263.11,-72 1272.76,-72 1280.97,-72"/>
<polygon fill="#63b8ff" stroke="#63b8ff" points="1254.16,-68.5 1244.16,-72 1254.16,-75.5 1254.16,-68.5"/>
</a>
</g>
</g>
<!-- Node6 -->
<g id="Node000006" class="node">
<title>Node6</title>
<g id="a_Node000006"><a xlink:href="classsharing__treet.html" target="_top" xlink:title=" ">
<polygon fill="white" stroke="#666666" points="1063,-92.5 938,-92.5 938,-51.5 1063,-51.5 1063,-92.5"/>
<text text-anchor="start" x="946" y="-80.5" font-family="Helvetica,sans-Serif" font-size="10.00">sharing_treet&lt; irept,</text>
<text text-anchor="start" x="946" y="-69.5" font-family="Helvetica,sans-Serif" font-size="10.00"> forward_list_as_mapt</text>
<text text-anchor="middle" x="1000.5" y="-58.5" font-family="Helvetica,sans-Serif" font-size="10.00">&lt; irep_idt, irept &gt; &gt;</text>
</a>
</g>
</g>
<!-- Node6&#45;&gt;Node5 -->
<g id="edge5_Node000005_Node000006" class="edge">
<title>Node6&#45;&gt;Node5</title>
<g id="a_edge5_Node000005_Node000006"><a xlink:title=" ">
<path fill="none" stroke="#63b8ff" d="M1073.32,-72C1119.49,-72 1176.03,-72 1204.78,-72"/>
<polygon fill="#63b8ff" stroke="#63b8ff" points="1073.04,-68.5 1063.04,-72 1073.04,-75.5 1073.04,-68.5"/>
</a>
</g>
</g>
<!-- Node7&#45;&gt;Node6 -->
<g id="edge6_Node000006_Node000007" class="edge">
<title>Node7&#45;&gt;Node6</title>
<g id="a_edge6_Node000006_Node000007"><a xlink:title=" ">
<path fill="none" stroke="#9a32cd" stroke-dasharray="5,2" d="M550.17,-62.79C572.55,-59.56 596.6,-56.63 619,-55 731.28,-46.82 862.51,-57.04 937.82,-64.8"/>
<polygon fill="#9a32cd" stroke="#9a32cd" points="549.4,-59.36 540.01,-64.29 550.42,-66.29 549.4,-59.36"/>
</a>
</g>
<text text-anchor="middle" x="687" y="-69" font-family="Helvetica,sans-Serif" font-size="10.00" fill="grey"> data</text>
<text text-anchor="middle" x="687" y="-58" font-family="Helvetica,sans-Serif" font-size="10.00" fill="grey">empty_d</text>
</g>
<!-- Node12 -->
<g id="Node000012" class="node">
<title>Node12</title>
<g id="a_Node000012"><a xlink:href="classsharing__treet.html" target="_top" xlink:title="Base class for tree&#45;like data structures with sharing.">
<polygon fill="white" stroke="#666666" points="755,-116 619,-116 619,-86 755,-86 755,-116"/>
<text text-anchor="start" x="627" y="-104" font-family="Helvetica,sans-Serif" font-size="10.00">sharing_treet&lt; derivedt,</text>
<text text-anchor="middle" x="687" y="-93" font-family="Helvetica,sans-Serif" font-size="10.00"> named_subtreest &gt;</text>
</a>
</g>
</g>
<!-- Node7&#45;&gt;Node12 -->
<g id="edge12_Node000012_Node000007" class="edge">
<title>Node7&#45;&gt;Node12</title>
<g id="a_edge12_Node000012_Node000007"><a xlink:title=" ">
<path fill="none" stroke="#9a32cd" stroke-dasharray="5,2" d="M550.06,-87.04C572.89,-89.39 597.11,-91.87 618.68,-94.09"/>
<polygon fill="#9a32cd" stroke="#9a32cd" points="550.34,-83.55 540.03,-86.01 549.62,-90.52 550.34,-83.55"/>
</a>
</g>
<text text-anchor="middle" x="579.5" y="-106" font-family="Helvetica,sans-Serif" font-size="10.00" fill="grey"> data</text>
<text text-anchor="middle" x="579.5" y="-95" font-family="Helvetica,sans-Serif" font-size="10.00" fill="grey">empty_d</text>
</g>
<!-- Node8 -->
<g id="Node000008" class="node">
<title>Node8</title>
<g id="a_Node000008"><a xlink:href="structref__count__ift.html" target="_top" xlink:title="Used in tree_nodet for activating or not reference counting.">
<polygon fill="white" stroke="#666666" points="321,-50.5 182,-50.5 182,-31.5 321,-31.5 321,-50.5"/>
<text text-anchor="middle" x="251.5" y="-38.5" font-family="Helvetica,sans-Serif" font-size="10.00">ref_count_ift&lt; enabled &gt;</text>
</a>
</g>
</g>
<!-- Node8&#45;&gt;Node7 -->
<g id="edge7_Node000007_Node000008" class="edge">
<title>Node8&#45;&gt;Node7</title>
<g id="a_edge7_Node000007_Node000008"><a xlink:title=" ">
<path fill="none" stroke="#63b8ff" d="M315.9,-52.31C336.66,-56.01 359.98,-60.16 381.7,-64.04"/>
<polygon fill="#63b8ff" stroke="#63b8ff" points="316.4,-48.84 305.94,-50.53 315.17,-55.73 316.4,-48.84"/>
</a>
</g>
</g>
<!-- Node9 -->
<g id="Node000009" class="node">
<title>Node9</title>
<g id="a_Node000009"><a xlink:title=" ">
<polygon fill="white" stroke="#666666" points="308.5,-87.5 194.5,-87.5 194.5,-68.5 308.5,-68.5 308.5,-87.5"/>
<text text-anchor="middle" x="251.5" y="-75.5" font-family="Helvetica,sans-Serif" font-size="10.00">std::vector&lt; treet &gt;</text>
</a>
</g>
</g>
<!-- Node9&#45;&gt;Node7 -->
<g id="edge9_Node000007_Node000009" class="edge">
<title>Node9&#45;&gt;Node7</title>
<g id="a_edge9_Node000007_Node000009"><a xlink:title=" ">
<path fill="none" stroke="#9a32cd" stroke-dasharray="5,2" d="M318.66,-78C338.81,-78 361.14,-78 381.99,-78"/>
<polygon fill="#9a32cd" stroke="#9a32cd" points="318.65,-74.5 308.65,-78 318.65,-81.5 318.65,-74.5"/>
</a>
</g>
<text text-anchor="middle" x="351.5" y="-81" font-family="Helvetica,sans-Serif" font-size="10.00" fill="grey"> sub</text>
</g>
<!-- Node10 -->
<g id="Node000010" class="node">
<title>Node10</title>
<g id="a_Node000010"><a xlink:title=" ">
<polygon fill="#fff0f0" stroke="red" points="97,-25.5 0,-25.5 0,-6.5 97,-6.5 97,-25.5"/>
<text text-anchor="middle" x="48.5" y="-13.5" font-family="Helvetica,sans-Serif" font-size="10.00">std::vector&lt; T &gt;</text>
</a>
</g>
</g>
<!-- Node10&#45;&gt;Node3 -->
<g id="edge13_Node000003_Node000010" class="edge">
<title>Node10&#45;&gt;Node3</title>
<g id="a_edge13_Node000003_Node000010"><a xlink:title=" ">
<path fill="none" stroke="orange" stroke-dasharray="5,2" d="M107.47,-8.93C147.57,-4.65 202.2,0 250.5,0 250.5,0 250.5,0 1303,0 1363.63,0 1426.88,-42.64 1452.81,-62.29"/>
<polygon fill="orange" stroke="orange" points="106.9,-5.48 97.34,-10.04 107.66,-12.43 106.9,-5.48"/>
</a>
</g>
<text text-anchor="middle" x="846.5" y="-3" font-family="Helvetica,sans-Serif" font-size="10.00" fill="grey"> &lt; exprt &gt;</text>
</g>
<!-- Node10&#45;&gt;Node9 -->
<g id="edge10_Node000009_Node000010" class="edge">
<title>Node10&#45;&gt;Node9</title>
<g id="a_edge10_Node000009_Node000010"><a xlink:title=" ">
<path fill="none" stroke="orange" stroke-dasharray="5,2" d="M86.12,-28.86C112.61,-37.99 149.34,-50.3 182,-60 191.78,-62.91 202.42,-65.82 212.34,-68.43"/>
<polygon fill="orange" stroke="orange" points="87.09,-25.49 76.49,-25.52 84.8,-32.1 87.09,-25.49"/>
</a>
</g>
<text text-anchor="middle" x="139.5" y="-57" font-family="Helvetica,sans-Serif" font-size="10.00" fill="grey"> &lt; treet &gt;</text>
</g>
<!-- Node12&#45;&gt;Node6 -->
<g id="edge11_Node000006_Node000012" class="edge">
<title>Node12&#45;&gt;Node6</title>
<g id="a_edge11_Node000006_Node000012"><a xlink:title=" ">
<path fill="none" stroke="orange" stroke-dasharray="5,2" d="M765.29,-93.8C818.58,-88.84 888.45,-82.34 937.96,-77.73"/>
<polygon fill="orange" stroke="orange" points="764.84,-90.33 755.21,-94.74 765.49,-97.3 764.84,-90.33"/>
</a>
</g>
<text text-anchor="start" x="773" y="-106" font-family="Helvetica,sans-Serif" font-size="10.00" fill="grey"> &lt; irept, forward_list</text>
<text text-anchor="middle" x="846.5" y="-95" font-family="Helvetica,sans-Serif" font-size="10.00" fill="grey">_as_mapt&lt; irep_idt, irept &gt; &gt;</text>
</g>
</g>
</svg>
