<?xml version="1.0" encoding="UTF-8" standalone="no"?>
<!DOCTYPE svg PUBLIC "-//W3C//DTD SVG 1.1//EN"
 "http://www.w3.org/Graphics/SVG/1.1/DTD/svg11.dtd">
<!-- Generated by graphviz version 2.43.0 (0)
 -->
<!-- Title: java_bytecode_parse_treet::methodt Pages: 1 -->
<svg width="1983pt" height="755pt"
 viewBox="0.00 0.00 1983.00 754.94" xmlns="http://www.w3.org/2000/svg" xmlns:xlink="http://www.w3.org/1999/xlink">
<g id="graph0" class="graph" transform="scale(1 1) rotate(0) translate(4 750.94)">
<title>java_bytecode_parse_treet::methodt</title>
<!-- Node1 -->
<g id="Node000001" class="node">
<title>Node1</title>
<g id="a_Node000001"><a xlink:title=" ">
<polygon fill="#999999" stroke="#666666" points="1975,-413.94 1855,-413.94 1855,-383.94 1975,-383.94 1975,-413.94"/>
<text text-anchor="start" x="1863" y="-401.94" font-family="Helvetica,sans-Serif" font-size="10.00">java_bytecode_parse</text>
<text text-anchor="middle" x="1915" y="-390.94" font-family="Helvetica,sans-Serif" font-size="10.00">_treet::methodt</text>
</a>
</g>
</g>
<!-- Node2 -->
<g id="Node000002" class="node">
<title>Node2</title>
<g id="a_Node000002"><a xlink:href="structjava__bytecode__parse__treet_1_1membert.html" target="_top" xlink:title=" ">
<polygon fill="white" stroke="#666666" points="1725.5,-330.94 1605.5,-330.94 1605.5,-300.94 1725.5,-300.94 1725.5,-330.94"/>
<text text-anchor="start" x="1613.5" y="-318.94" font-family="Helvetica,sans-Serif" font-size="10.00">java_bytecode_parse</text>
<text text-anchor="middle" x="1665.5" y="-307.94" font-family="Helvetica,sans-Serif" font-size="10.00">_treet::membert</text>
</a>
</g>
</g>
<!-- Node2&#45;&gt;Node1 -->
<g id="edge1_Node000001_Node000002" class="edge">
<title>Node2&#45;&gt;Node1</title>
<g id="a_edge1_Node000001_Node000002"><a xlink:title=" ">
<path fill="none" stroke="#63b8ff" d="M1735.91,-321.35C1767.62,-325.52 1805.12,-332.89 1837,-345.94 1859.38,-355.1 1881.79,-371.55 1896.62,-383.7"/>
<polygon fill="#63b8ff" stroke="#63b8ff" points="1736.19,-317.85 1725.84,-320.1 1735.33,-324.8 1736.19,-317.85"/>
</a>
</g>
</g>
<!-- Node3 -->
<g id="Node000003" class="node">
<title>Node3</title>
<g id="a_Node000003"><a xlink:title=" ">
<polygon fill="white" stroke="#666666" points="368,-214.44 303,-214.44 303,-195.44 368,-195.44 368,-214.44"/>
<text text-anchor="middle" x="335.5" y="-202.44" font-family="Helvetica,sans-Serif" font-size="10.00">std::string</text>
</a>
</g>
</g>
<!-- Node3&#45;&gt;Node2 -->
<g id="edge2_Node000002_Node000003" class="edge">
<title>Node3&#45;&gt;Node2</title>
<g id="a_edge2_Node000002_Node000003"><a xlink:title=" ">
<path fill="none" stroke="#9a32cd" stroke-dasharray="5,2" d="M345.68,-186.03C364.82,-149.07 412.92,-68.18 481,-36.94 525.65,-16.45 386.24,36.32 1254,-40.94 1363.17,-50.66 1404.1,-24.78 1497,-82.94 1585.26,-138.19 1641.05,-258.53 1658.56,-300.85"/>
<polygon fill="#9a32cd" stroke="#9a32cd" points="342.43,-184.7 341.06,-195.21 348.68,-187.85 342.43,-184.7"/>
</a>
</g>
<text text-anchor="middle" x="1039" y="-31.94" font-family="Helvetica,sans-Serif" font-size="10.00" fill="grey"> descriptor</text>
</g>
<!-- Node32 -->
<g id="Node000032" class="node">
<title>Node32</title>
<g id="a_Node000032"><a xlink:href="structjava__bytecode__parse__treet_1_1methodt_1_1local__variablet.html" target="_top" xlink:title=" ">
<polygon fill="white" stroke="#666666" points="618.5,-420.44 496.5,-420.44 496.5,-379.44 618.5,-379.44 618.5,-420.44"/>
<text text-anchor="start" x="504.5" y="-408.44" font-family="Helvetica,sans-Serif" font-size="10.00">java_bytecode_parse</text>
<text text-anchor="start" x="504.5" y="-397.44" font-family="Helvetica,sans-Serif" font-size="10.00">_treet::methodt::local</text>
<text text-anchor="middle" x="557.5" y="-386.44" font-family="Helvetica,sans-Serif" font-size="10.00">_variablet</text>
</a>
</g>
</g>
<!-- Node3&#45;&gt;Node32 -->
<g id="edge43_Node000032_Node000003" class="edge">
<title>Node3&#45;&gt;Node32</title>
<g id="a_edge43_Node000032_Node000003"><a xlink:title=" ">
<path fill="none" stroke="#9a32cd" stroke-dasharray="5,2" d="M355.08,-221.41C395.02,-256.81 489.04,-340.14 533.03,-379.14"/>
<polygon fill="#9a32cd" stroke="#9a32cd" points="357.21,-218.62 347.41,-214.61 352.57,-223.86 357.21,-218.62"/>
</a>
</g>
<text text-anchor="middle" x="424.5" y="-316.94" font-family="Helvetica,sans-Serif" font-size="10.00" fill="grey"> descriptor</text>
</g>
<!-- Node4 -->
<g id="Node000004" class="node">
<title>Node4</title>
<g id="a_Node000004"><a xlink:title=" ">
<polygon fill="white" stroke="#666666" points="266,-219.94 162,-219.94 162,-189.94 266,-189.94 266,-219.94"/>
<text text-anchor="start" x="170" y="-207.94" font-family="Helvetica,sans-Serif" font-size="10.00">std::basic_string&lt;</text>
<text text-anchor="middle" x="214" y="-196.94" font-family="Helvetica,sans-Serif" font-size="10.00"> Char &gt;</text>
</a>
</g>
</g>
<!-- Node4&#45;&gt;Node3 -->
<g id="edge3_Node000003_Node000004" class="edge">
<title>Node4&#45;&gt;Node3</title>
<g id="a_edge3_Node000003_Node000004"><a xlink:title=" ">
<path fill="none" stroke="#63b8ff" d="M276.1,-204.94C285.41,-204.94 294.68,-204.94 303,-204.94"/>
<polygon fill="#63b8ff" stroke="#63b8ff" points="276.03,-201.44 266.03,-204.94 276.03,-208.44 276.03,-201.44"/>
</a>
</g>
</g>
<!-- Node5 -->
<g id="Node000005" class="node">
<title>Node5</title>
<g id="a_Node000005"><a xlink:href="classdstringt.html" target="_top" xlink:title="dstringt has one field, an unsigned integer no which is an index into a static table of strings.">
<polygon fill="white" stroke="#666666" points="362.5,-609.44 308.5,-609.44 308.5,-590.44 362.5,-590.44 362.5,-609.44"/>
<text text-anchor="middle" x="335.5" y="-597.44" font-family="Helvetica,sans-Serif" font-size="10.00">dstringt</text>
</a>
</g>
</g>
<!-- Node5&#45;&gt;Node1 -->
<g id="edge17_Node000001_Node000005" class="edge">
<title>Node5&#45;&gt;Node1</title>
<g id="a_edge17_Node000001_Node000005"><a xlink:title=" ">
<path fill="none" stroke="#9a32cd" stroke-dasharray="5,2" d="M357.14,-615.37C365.72,-621.21 376,-627.52 386,-631.94 457.69,-663.61 478.13,-676.94 556.5,-676.94 556.5,-676.94 556.5,-676.94 1666.5,-676.94 1808.34,-676.94 1888.9,-472.56 1908.99,-414.28"/>
<polygon fill="#9a32cd" stroke="#9a32cd" points="359.08,-612.45 348.89,-609.54 355.04,-618.17 359.08,-612.45"/>
</a>
</g>
<text text-anchor="middle" x="1191.5" y="-679.94" font-family="Helvetica,sans-Serif" font-size="10.00" fill="grey"> base_name</text>
</g>
<!-- Node5&#45;&gt;Node2 -->
<g id="edge4_Node000002_Node000005" class="edge">
<title>Node5&#45;&gt;Node2</title>
<g id="a_edge4_Node000002_Node000005"><a xlink:title=" ">
<path fill="none" stroke="#9a32cd" stroke-dasharray="5,2" d="M372.41,-611.28C376.95,-612.37 381.55,-613.3 386,-613.94 566.79,-640.14 614.32,-617.83 797,-618.94 864.55,-619.35 881.93,-627.07 949,-618.94 1087.58,-602.15 1154.77,-642.13 1254,-543.94 1276.83,-521.35 1249.2,-496.57 1272,-473.94 1345.15,-401.36 1401.9,-457.64 1497,-417.94 1553.87,-394.2 1614.05,-353.04 1644.44,-330.96"/>
<polygon fill="#9a32cd" stroke="#9a32cd" points="373.24,-607.88 362.68,-608.73 371.47,-614.66 373.24,-607.88"/>
</a>
</g>
<text text-anchor="middle" x="1039" y="-618.94" font-family="Helvetica,sans-Serif" font-size="10.00" fill="grey"> name</text>
</g>
<!-- Node18 -->
<g id="Node000018" class="node">
<title>Node18</title>
<g id="a_Node000018"><a xlink:href="structjava__bytecode__parse__treet_1_1annotationt_1_1element__value__pairt.html" target="_top" xlink:title=" ">
<polygon fill="white" stroke="#666666" points="619,-516.44 496,-516.44 496,-475.44 619,-475.44 619,-516.44"/>
<text text-anchor="start" x="504" y="-504.44" font-family="Helvetica,sans-Serif" font-size="10.00">java_bytecode_parse</text>
<text text-anchor="start" x="504" y="-493.44" font-family="Helvetica,sans-Serif" font-size="10.00">_treet::annotationt</text>
<text text-anchor="middle" x="557.5" y="-482.44" font-family="Helvetica,sans-Serif" font-size="10.00">::element_value_pairt</text>
</a>
</g>
</g>
<!-- Node5&#45;&gt;Node18 -->
<g id="edge12_Node000018_Node000005" class="edge">
<title>Node5&#45;&gt;Node18</title>
<g id="a_edge12_Node000018_Node000005"><a xlink:title=" ">
<path fill="none" stroke="#9a32cd" stroke-dasharray="5,2" d="M364.4,-585.64C371.42,-582.1 378.97,-578.34 386,-574.94 428.14,-554.54 476.61,-532.19 511.07,-516.48"/>
<polygon fill="#9a32cd" stroke="#9a32cd" points="362.57,-582.65 355.23,-590.29 365.73,-588.89 362.57,-582.65"/>
</a>
</g>
<text text-anchor="middle" x="424.5" y="-577.94" font-family="Helvetica,sans-Serif" font-size="10.00" fill="grey"> element_name</text>
</g>
<!-- Node30 -->
<g id="Node000030" class="node">
<title>Node30</title>
<g id="a_Node000030"><a xlink:title=" ">
<polygon fill="white" stroke="#666666" points="937,-609.44 809,-609.44 809,-590.44 937,-590.44 937,-609.44"/>
<text text-anchor="middle" x="873" y="-597.44" font-family="Helvetica,sans-Serif" font-size="10.00">std::vector&lt; dstringt &gt;</text>
</a>
</g>
</g>
<!-- Node5&#45;&gt;Node30 -->
<g id="edge38_Node000030_Node000005" class="edge">
<title>Node5&#45;&gt;Node30</title>
<g id="a_edge38_Node000030_Node000005"><a xlink:title=" ">
<path fill="none" stroke="#9a32cd" stroke-dasharray="5,2" d="M372.92,-599.94C462.8,-599.94 696.01,-599.94 808.92,-599.94"/>
<polygon fill="#9a32cd" stroke="#9a32cd" points="372.69,-596.44 362.69,-599.94 372.69,-603.44 372.69,-596.44"/>
</a>
</g>
<text text-anchor="middle" x="557.5" y="-602.94" font-family="Helvetica,sans-Serif" font-size="10.00" fill="grey"> elements</text>
</g>
<!-- Node5&#45;&gt;Node32 -->
<g id="edge42_Node000032_Node000005" class="edge">
<title>Node5&#45;&gt;Node32</title>
<g id="a_edge42_Node000032_Node000005"><a xlink:title=" ">
<path fill="none" stroke="#9a32cd" stroke-dasharray="5,2" d="M348.85,-581.56C355.17,-571.61 362.63,-558.93 368,-546.94 378.86,-522.69 369.78,-510.98 386,-489.94 413.48,-454.28 459.15,-431.25 496.31,-417.42"/>
<polygon fill="#9a32cd" stroke="#9a32cd" points="345.78,-579.86 343.26,-590.15 351.65,-583.68 345.78,-579.86"/>
</a>
</g>
<text text-anchor="middle" x="424.5" y="-492.94" font-family="Helvetica,sans-Serif" font-size="10.00" fill="grey"> name</text>
</g>
<!-- Node6 -->
<g id="Node000006" class="node">
<title>Node6</title>
<g id="a_Node000006"><a xlink:title=" ">
<polygon fill="white" stroke="#666666" points="1495.5,-323.44 1348.5,-323.44 1348.5,-304.44 1495.5,-304.44 1495.5,-323.44"/>
<text text-anchor="middle" x="1422" y="-311.44" font-family="Helvetica,sans-Serif" font-size="10.00">std::vector&lt; annotationt &gt;</text>
</a>
</g>
</g>
<!-- Node6&#45;&gt;Node2 -->
<g id="edge5_Node000002_Node000006" class="edge">
<title>Node6&#45;&gt;Node2</title>
<g id="a_edge5_Node000002_Node000006"><a xlink:title=" ">
<path fill="none" stroke="#9a32cd" stroke-dasharray="5,2" d="M1505.79,-314.63C1538.48,-314.9 1575.3,-315.2 1605.24,-315.45"/>
<polygon fill="#9a32cd" stroke="#9a32cd" points="1505.81,-311.13 1495.79,-314.54 1505.76,-318.13 1505.81,-311.13"/>
</a>
</g>
<text text-anchor="middle" x="1545.5" y="-317.94" font-family="Helvetica,sans-Serif" font-size="10.00" fill="grey"> annotations</text>
</g>
<!-- Node7 -->
<g id="Node000007" class="node">
<title>Node7</title>
<g id="a_Node000007"><a xlink:href="structjava__bytecode__parse__treet_1_1annotationt.html" target="_top" xlink:title=" ">
<polygon fill="white" stroke="#666666" points="1251.5,-338.94 1131.5,-338.94 1131.5,-308.94 1251.5,-308.94 1251.5,-338.94"/>
<text text-anchor="start" x="1139.5" y="-326.94" font-family="Helvetica,sans-Serif" font-size="10.00">java_bytecode_parse</text>
<text text-anchor="middle" x="1191.5" y="-315.94" font-family="Helvetica,sans-Serif" font-size="10.00">_treet::annotationt</text>
</a>
</g>
</g>
<!-- Node7&#45;&gt;Node6 -->
<g id="edge6_Node000006_Node000007" class="edge">
<title>Node7&#45;&gt;Node6</title>
<g id="a_edge6_Node000006_Node000007"><a xlink:title=" ">
<path fill="none" stroke="#9a32cd" stroke-dasharray="5,2" d="M1261.89,-320.9C1289.21,-319.71 1320.59,-318.34 1348.22,-317.13"/>
<polygon fill="#9a32cd" stroke="#9a32cd" points="1261.48,-317.42 1251.64,-321.35 1261.79,-324.41 1261.48,-317.42"/>
</a>
</g>
<text text-anchor="middle" x="1300.5" y="-322.94" font-family="Helvetica,sans-Serif" font-size="10.00" fill="grey"> elements</text>
</g>
<!-- Node8 -->
<g id="Node000008" class="node">
<title>Node8</title>
<g id="a_Node000008"><a xlink:href="classtypet.html" target="_top" xlink:title="The type of an expression, extends irept.">
<polygon fill="white" stroke="#666666" points="356.5,-457.44 314.5,-457.44 314.5,-438.44 356.5,-438.44 356.5,-457.44"/>
<text text-anchor="middle" x="335.5" y="-445.44" font-family="Helvetica,sans-Serif" font-size="10.00">typet</text>
</a>
</g>
</g>
<!-- Node8&#45;&gt;Node7 -->
<g id="edge7_Node000007_Node000008" class="edge">
<title>Node8&#45;&gt;Node7</title>
<g id="a_edge7_Node000007_Node000008"><a xlink:title=" ">
<path fill="none" stroke="#9a32cd" stroke-dasharray="5,2" d="M341.95,-428.75C348.71,-408.9 362.35,-378.88 386,-364.94 412.96,-349.05 917.74,-348.31 949,-346.94 1021.04,-343.79 1039.36,-346.21 1111,-337.94 1117.54,-337.19 1124.36,-336.24 1131.14,-335.19"/>
<polygon fill="#9a32cd" stroke="#9a32cd" points="338.6,-427.73 338.95,-438.32 345.28,-429.83 338.6,-427.73"/>
</a>
</g>
<text text-anchor="middle" x="715.5" y="-352.94" font-family="Helvetica,sans-Serif" font-size="10.00" fill="grey"> type</text>
</g>
<!-- Node29 -->
<g id="Node000029" class="node">
<title>Node29</title>
<g id="a_Node000029"><a xlink:href="classtag__typet.html" target="_top" xlink:title="A tag&#45;based type, i.e., typet with an identifier.">
<polygon fill="white" stroke="#666666" points="589,-457.44 526,-457.44 526,-438.44 589,-438.44 589,-457.44"/>
<text text-anchor="middle" x="557.5" y="-445.44" font-family="Helvetica,sans-Serif" font-size="10.00">tag_typet</text>
</a>
</g>
</g>
<!-- Node8&#45;&gt;Node29 -->
<g id="edge35_Node000029_Node000008" class="edge">
<title>Node8&#45;&gt;Node29</title>
<g id="a_edge35_Node000029_Node000008"><a xlink:title=" ">
<path fill="none" stroke="#63b8ff" d="M366.94,-447.94C408.82,-447.94 483.78,-447.94 525.79,-447.94"/>
<polygon fill="#63b8ff" stroke="#63b8ff" points="366.8,-444.44 356.8,-447.94 366.8,-451.44 366.8,-444.44"/>
</a>
</g>
</g>
<!-- Node9 -->
<g id="Node000009" class="node">
<title>Node9</title>
<g id="a_Node000009"><a xlink:href="classirept.html" target="_top" xlink:title="There are a large number of kinds of tree structured or tree&#45;like data in CPROVER.">
<polygon fill="white" stroke="#666666" points="233.5,-537.44 194.5,-537.44 194.5,-518.44 233.5,-518.44 233.5,-537.44"/>
<text text-anchor="middle" x="214" y="-525.44" font-family="Helvetica,sans-Serif" font-size="10.00">irept</text>
</a>
</g>
</g>
<!-- Node9&#45;&gt;Node8 -->
<g id="edge8_Node000008_Node000009" class="edge">
<title>Node9&#45;&gt;Node8</title>
<g id="a_edge8_Node000008_Node000009"><a xlink:title=" ">
<path fill="none" stroke="#63b8ff" d="M238.25,-512.37C262.51,-496.13 299.79,-471.18 320.1,-457.58"/>
<polygon fill="#63b8ff" stroke="#63b8ff" points="236.02,-509.66 229.65,-518.13 239.91,-515.48 236.02,-509.66"/>
</a>
</g>
</g>
<!-- Node19 -->
<g id="Node000019" class="node">
<title>Node19</title>
<g id="a_Node000019"><a xlink:href="classexprt.html" target="_top" xlink:title="Base class for all expressions.">
<polygon fill="white" stroke="#666666" points="356.5,-537.44 314.5,-537.44 314.5,-518.44 356.5,-518.44 356.5,-537.44"/>
<text text-anchor="middle" x="335.5" y="-525.44" font-family="Helvetica,sans-Serif" font-size="10.00">exprt</text>
</a>
</g>
</g>
<!-- Node9&#45;&gt;Node19 -->
<g id="edge14_Node000019_Node000009" class="edge">
<title>Node9&#45;&gt;Node19</title>
<g id="a_edge14_Node000019_Node000009"><a xlink:title=" ">
<path fill="none" stroke="#63b8ff" d="M243.69,-527.94C265.52,-527.94 294.99,-527.94 314.36,-527.94"/>
<polygon fill="#63b8ff" stroke="#63b8ff" points="243.67,-524.44 233.67,-527.94 243.67,-531.44 243.67,-524.44"/>
</a>
</g>
</g>
<!-- Node20 -->
<g id="Node000020" class="node">
<title>Node20</title>
<g id="a_Node000020"><a xlink:href="classsource__locationt.html" target="_top" xlink:title=" ">
<polygon fill="white" stroke="#666666" points="921.5,-724.44 824.5,-724.44 824.5,-705.44 921.5,-705.44 921.5,-724.44"/>
<text text-anchor="middle" x="873" y="-712.44" font-family="Helvetica,sans-Serif" font-size="10.00">source_locationt</text>
</a>
</g>
</g>
<!-- Node9&#45;&gt;Node20 -->
<g id="edge19_Node000020_Node000009" class="edge">
<title>Node9&#45;&gt;Node20</title>
<g id="a_edge19_Node000020_Node000009"><a xlink:title=" ">
<path fill="none" stroke="#63b8ff" d="M227.01,-546.43C251.66,-582.48 311.93,-661.19 386,-690.94 536.51,-751.4 734.63,-734.67 824.28,-722.53"/>
<polygon fill="#63b8ff" stroke="#63b8ff" points="229.74,-544.22 221.27,-537.86 223.92,-548.12 229.74,-544.22"/>
</a>
</g>
</g>
<!-- Node10 -->
<g id="Node000010" class="node">
<title>Node10</title>
<g id="a_Node000010"><a xlink:href="classsharing__treet.html" target="_top" xlink:title=" ">
<polygon fill="#fff0f0" stroke="red" points="125,-548.44 0,-548.44 0,-507.44 125,-507.44 125,-548.44"/>
<text text-anchor="start" x="8" y="-536.44" font-family="Helvetica,sans-Serif" font-size="10.00">sharing_treet&lt; irept,</text>
<text text-anchor="start" x="8" y="-525.44" font-family="Helvetica,sans-Serif" font-size="10.00"> forward_list_as_mapt</text>
<text text-anchor="middle" x="62.5" y="-514.44" font-family="Helvetica,sans-Serif" font-size="10.00">&lt; irep_idt, irept &gt; &gt;</text>
</a>
</g>
</g>
<!-- Node10&#45;&gt;Node9 -->
<g id="edge9_Node000009_Node000010" class="edge">
<title>Node10&#45;&gt;Node9</title>
<g id="a_edge9_Node000009_Node000010"><a xlink:title=" ">
<path fill="none" stroke="#63b8ff" d="M135.18,-527.94C157.09,-527.94 179.35,-527.94 194.42,-527.94"/>
<polygon fill="#63b8ff" stroke="#63b8ff" points="135.17,-524.44 125.17,-527.94 135.17,-531.44 135.17,-524.44"/>
</a>
</g>
</g>
<!-- Node17 -->
<g id="Node000017" class="node">
<title>Node17</title>
<g id="a_Node000017"><a xlink:title=" ">
<polygon fill="white" stroke="#666666" points="933,-337.94 813,-337.94 813,-307.94 933,-307.94 933,-337.94"/>
<text text-anchor="start" x="821" y="-325.94" font-family="Helvetica,sans-Serif" font-size="10.00">std::vector&lt; element</text>
<text text-anchor="middle" x="873" y="-314.94" font-family="Helvetica,sans-Serif" font-size="10.00">_value_pairt &gt;</text>
</a>
</g>
</g>
<!-- Node17&#45;&gt;Node7 -->
<g id="edge10_Node000007_Node000017" class="edge">
<title>Node17&#45;&gt;Node7</title>
<g id="a_edge10_Node000007_Node000017"><a xlink:title=" ">
<path fill="none" stroke="#9a32cd" stroke-dasharray="5,2" d="M943.39,-323.16C999.65,-323.34 1078.06,-323.59 1131.36,-323.75"/>
<polygon fill="#9a32cd" stroke="#9a32cd" points="943.17,-319.66 933.16,-323.13 943.15,-326.66 943.17,-319.66"/>
</a>
</g>
<text text-anchor="middle" x="1039" y="-325.94" font-family="Helvetica,sans-Serif" font-size="10.00" fill="grey"> element_value_pairs</text>
</g>
<!-- Node18&#45;&gt;Node17 -->
<g id="edge11_Node000017_Node000018" class="edge">
<title>Node18&#45;&gt;Node17</title>
<g id="a_edge11_Node000017_Node000018"><a xlink:title=" ">
<path fill="none" stroke="#9a32cd" stroke-dasharray="5,2" d="M627.53,-473.05C629.84,-471.17 632.01,-469.14 634,-466.94 654.39,-444.39 629.59,-421.48 652,-400.94 694.29,-362.18 725.25,-397.97 779,-377.94 805.54,-368.05 833.13,-350.69 851.29,-338.12"/>
<polygon fill="#9a32cd" stroke="#9a32cd" points="625.39,-470.28 619.18,-478.87 629.39,-476.02 625.39,-470.28"/>
</a>
</g>
<text text-anchor="middle" x="715.5" y="-403.94" font-family="Helvetica,sans-Serif" font-size="10.00" fill="grey"> elements</text>
</g>
<!-- Node19&#45;&gt;Node18 -->
<g id="edge13_Node000018_Node000019" class="edge">
<title>Node19&#45;&gt;Node18</title>
<g id="a_edge13_Node000018_Node000019"><a xlink:title=" ">
<path fill="none" stroke="#9a32cd" stroke-dasharray="5,2" d="M366.35,-520.09C372.8,-518.56 379.6,-517.09 386,-515.94 422.23,-509.45 463.18,-504.57 495.87,-501.25"/>
<polygon fill="#9a32cd" stroke="#9a32cd" points="365.49,-516.69 356.61,-522.48 367.16,-523.49 365.49,-516.69"/>
</a>
</g>
<text text-anchor="middle" x="424.5" y="-518.94" font-family="Helvetica,sans-Serif" font-size="10.00" fill="grey"> value</text>
</g>
<!-- Node23 -->
<g id="Node000023" class="node">
<title>Node23</title>
<g id="a_Node000023"><a xlink:title=" ">
<polygon fill="white" stroke="#666666" points="931,-529.44 815,-529.44 815,-510.44 931,-510.44 931,-529.44"/>
<text text-anchor="middle" x="873" y="-517.44" font-family="Helvetica,sans-Serif" font-size="10.00">std::vector&lt; exprt &gt;</text>
</a>
</g>
</g>
<!-- Node19&#45;&gt;Node23 -->
<g id="edge24_Node000023_Node000019" class="edge">
<title>Node19&#45;&gt;Node23</title>
<g id="a_edge24_Node000023_Node000019"><a xlink:title=" ">
<path fill="none" stroke="#9a32cd" stroke-dasharray="5,2" d="M367,-530.88C438.92,-537.3 624.69,-550.93 779,-536.94 795.51,-535.44 813.47,-532.48 829.16,-529.44"/>
<polygon fill="#9a32cd" stroke="#9a32cd" points="367.12,-527.37 356.84,-529.95 366.49,-534.34 367.12,-527.37"/>
</a>
</g>
<text text-anchor="middle" x="557.5" y="-545.94" font-family="Helvetica,sans-Serif" font-size="10.00" fill="grey"> elements</text>
</g>
<!-- Node14 -->
<g id="Node000014" class="node">
<title>Node14</title>
<g id="a_Node000014"><a xlink:title=" ">
<polygon fill="#fff0f0" stroke="red" points="606,-249.44 509,-249.44 509,-230.44 606,-230.44 606,-249.44"/>
<text text-anchor="middle" x="557.5" y="-237.44" font-family="Helvetica,sans-Serif" font-size="10.00">std::vector&lt; T &gt;</text>
</a>
</g>
</g>
<!-- Node14&#45;&gt;Node6 -->
<g id="edge16_Node000006_Node000014" class="edge">
<title>Node14&#45;&gt;Node6</title>
<g id="a_edge16_Node000006_Node000014"><a xlink:title=" ">
<path fill="none" stroke="orange" stroke-dasharray="5,2" d="M616.49,-235.72C736.84,-228.36 1021.87,-218.28 1254,-266.94 1302.93,-277.2 1358.63,-293.92 1391.74,-304.4"/>
<polygon fill="orange" stroke="orange" points="616.15,-232.23 606.39,-236.35 616.59,-239.22 616.15,-232.23"/>
</a>
</g>
<text text-anchor="middle" x="1039" y="-246.94" font-family="Helvetica,sans-Serif" font-size="10.00" fill="grey"> &lt; annotationt &gt;</text>
</g>
<!-- Node14&#45;&gt;Node17 -->
<g id="edge15_Node000017_Node000014" class="edge">
<title>Node14&#45;&gt;Node17</title>
<g id="a_edge15_Node000017_Node000014"><a xlink:title=" ">
<path fill="none" stroke="orange" stroke-dasharray="5,2" d="M589.42,-253.54C607.4,-261.01 630.66,-269.96 652,-275.94 707.23,-291.43 722.97,-286.65 779,-298.94 791.22,-301.62 804.26,-304.79 816.59,-307.93"/>
<polygon fill="orange" stroke="orange" points="590.6,-250.23 580.02,-249.56 587.87,-256.68 590.6,-250.23"/>
</a>
</g>
<text text-anchor="middle" x="715.5" y="-301.94" font-family="Helvetica,sans-Serif" font-size="10.00" fill="grey"> &lt; element_value_pairt &gt;</text>
</g>
<!-- Node21 -->
<g id="Node000021" class="node">
<title>Node21</title>
<g id="a_Node000021"><a xlink:title=" ">
<polygon fill="white" stroke="#666666" points="1495,-408.44 1349,-408.44 1349,-389.44 1495,-389.44 1495,-408.44"/>
<text text-anchor="middle" x="1422" y="-396.44" font-family="Helvetica,sans-Serif" font-size="10.00">std::vector&lt; instructiont &gt;</text>
</a>
</g>
</g>
<!-- Node14&#45;&gt;Node21 -->
<g id="edge26_Node000021_Node000014" class="edge">
<title>Node14&#45;&gt;Node21</title>
<g id="a_edge26_Node000021_Node000014"><a xlink:title=" ">
<path fill="none" stroke="orange" stroke-dasharray="5,2" d="M616.49,-244.2C781.18,-256.38 1240.79,-291.08 1254,-299.94 1268.53,-309.69 1259.72,-322.48 1272,-334.94 1298.51,-361.85 1312.23,-360.17 1347,-374.94 1359.93,-380.43 1374.56,-385.42 1387.39,-389.41"/>
<polygon fill="orange" stroke="orange" points="616.3,-240.67 606.07,-243.43 615.79,-247.65 616.3,-240.67"/>
</a>
</g>
<text text-anchor="middle" x="1039" y="-285.94" font-family="Helvetica,sans-Serif" font-size="10.00" fill="grey"> &lt; instructiont &gt;</text>
</g>
<!-- Node14&#45;&gt;Node23 -->
<g id="edge25_Node000023_Node000014" class="edge">
<title>Node14&#45;&gt;Node23</title>
<g id="a_edge25_Node000023_Node000014"><a xlink:title=" ">
<path fill="none" stroke="orange" stroke-dasharray="5,2" d="M569.99,-258.38C585.38,-283.43 613.19,-329.79 634,-370.94 642.98,-388.7 636.38,-399.61 652,-411.94 697.03,-447.48 736.71,-396.18 779,-434.94 801.41,-455.48 775.31,-479.64 797,-500.94 802.08,-505.93 808.27,-509.67 814.89,-512.46"/>
<polygon fill="orange" stroke="orange" points="572.79,-256.26 564.56,-249.6 566.84,-259.95 572.79,-256.26"/>
</a>
</g>
<text text-anchor="middle" x="715.5" y="-437.94" font-family="Helvetica,sans-Serif" font-size="10.00" fill="grey"> &lt; exprt &gt;</text>
</g>
<!-- Node24 -->
<g id="Node000024" class="node">
<title>Node24</title>
<g id="a_Node000024"><a xlink:title=" ">
<polygon fill="white" stroke="#666666" points="949,-167.44 797,-167.44 797,-148.44 949,-148.44 949,-167.44"/>
<text text-anchor="middle" x="873" y="-155.44" font-family="Helvetica,sans-Serif" font-size="10.00">std::vector&lt; annotationst &gt;</text>
</a>
</g>
</g>
<!-- Node14&#45;&gt;Node24 -->
<g id="edge28_Node000024_Node000014" class="edge">
<title>Node14&#45;&gt;Node24</title>
<g id="a_edge28_Node000024_Node000014"><a xlink:title=" ">
<path fill="none" stroke="#9a32cd" stroke-dasharray="5,2" d="M571.63,-222C587.85,-201.52 617.57,-169.14 652,-155.94 709.78,-133.8 782.53,-140.48 828.17,-148.37"/>
<polygon fill="#9a32cd" stroke="#9a32cd" points="568.64,-220.14 565.34,-230.21 574.2,-224.4 568.64,-220.14"/>
</a>
</g>
<text text-anchor="middle" x="715.5" y="-158.94" font-family="Helvetica,sans-Serif" font-size="10.00" fill="grey"> elements</text>
</g>
<!-- Node14&#45;&gt;Node24 -->
<g id="edge29_Node000024_Node000014" class="edge">
<title>Node14&#45;&gt;Node24</title>
<g id="a_edge29_Node000024_Node000014"><a xlink:title=" ">
<path fill="none" stroke="orange" stroke-dasharray="5,2" d="M581.21,-224.9C599.54,-213.48 626.42,-198.35 652,-189.94 678.26,-181.3 744.02,-172.31 796.85,-166.07"/>
<polygon fill="orange" stroke="orange" points="579.25,-222 572.69,-230.32 583,-227.9 579.25,-222"/>
</a>
</g>
<text text-anchor="middle" x="715.5" y="-192.94" font-family="Helvetica,sans-Serif" font-size="10.00" fill="grey"> &lt; annotationst &gt;</text>
</g>
<!-- Node25 -->
<g id="Node000025" class="node">
<title>Node25</title>
<g id="a_Node000025"><a xlink:title=" ">
<polygon fill="white" stroke="#666666" points="1737,-408.44 1594,-408.44 1594,-389.44 1737,-389.44 1737,-408.44"/>
<text text-anchor="middle" x="1665.5" y="-396.44" font-family="Helvetica,sans-Serif" font-size="10.00">std::vector&lt; exceptiont &gt;</text>
</a>
</g>
</g>
<!-- Node14&#45;&gt;Node25 -->
<g id="edge36_Node000025_Node000014" class="edge">
<title>Node14&#45;&gt;Node25</title>
<g id="a_edge36_Node000025_Node000014"><a xlink:title=" ">
<path fill="none" stroke="orange" stroke-dasharray="5,2" d="M616.58,-232.23C628.29,-230.92 640.52,-229.73 652,-228.94 716.31,-224.5 732.55,-226.61 797,-225.94 1109.65,-222.71 1252.44,-101.14 1497,-295.94 1510.37,-306.59 1502.58,-318.18 1515,-329.94 1547.17,-360.41 1595.19,-379.27 1628.07,-389.42"/>
<polygon fill="orange" stroke="orange" points="615.99,-228.77 606.46,-233.4 616.8,-235.73 615.99,-228.77"/>
</a>
</g>
<text text-anchor="middle" x="1191.5" y="-193.94" font-family="Helvetica,sans-Serif" font-size="10.00" fill="grey"> &lt; exceptiont &gt;</text>
</g>
<!-- Node14&#45;&gt;Node30 -->
<g id="edge39_Node000030_Node000014" class="edge">
<title>Node14&#45;&gt;Node30</title>
<g id="a_edge39_Node000030_Node000014"><a xlink:title=" ">
<path fill="none" stroke="orange" stroke-dasharray="5,2" d="M571.12,-257.93C587.77,-282.42 616.94,-328.13 634,-370.94 646.69,-402.79 626.91,-422.59 652,-445.94 693.88,-484.92 736.94,-428.16 779,-466.94 803.25,-489.3 779.3,-511.11 797,-538.94 811.5,-561.74 837.43,-579.99 854.67,-590.39"/>
<polygon fill="orange" stroke="orange" points="573.96,-255.88 565.41,-249.63 568.2,-259.85 573.96,-255.88"/>
</a>
</g>
<text text-anchor="middle" x="715.5" y="-469.94" font-family="Helvetica,sans-Serif" font-size="10.00" fill="grey"> &lt; dstringt &gt;</text>
</g>
<!-- Node31 -->
<g id="Node000031" class="node">
<title>Node31</title>
<g id="a_Node000031"><a xlink:title=" ">
<polygon fill="white" stroke="#666666" points="924.5,-423.94 821.5,-423.94 821.5,-393.94 924.5,-393.94 924.5,-423.94"/>
<text text-anchor="start" x="829.5" y="-411.94" font-family="Helvetica,sans-Serif" font-size="10.00">std::vector&lt; local</text>
<text text-anchor="middle" x="873" y="-400.94" font-family="Helvetica,sans-Serif" font-size="10.00">_variablet &gt;</text>
</a>
</g>
</g>
<!-- Node14&#45;&gt;Node31 -->
<g id="edge44_Node000031_Node000014" class="edge">
<title>Node14&#45;&gt;Node31</title>
<g id="a_edge44_Node000031_Node000014"><a xlink:title=" ">
<path fill="none" stroke="orange" stroke-dasharray="5,2" d="M575.87,-256.93C593.54,-273.18 622.45,-297.06 652,-309.94 704.59,-332.85 726.91,-308.92 779,-332.94 781.15,-333.93 827.25,-371.93 853.72,-393.81"/>
<polygon fill="orange" stroke="orange" points="577.83,-253.96 568.15,-249.65 573.02,-259.06 577.83,-253.96"/>
</a>
</g>
<text text-anchor="middle" x="715.5" y="-335.94" font-family="Helvetica,sans-Serif" font-size="10.00" fill="grey"> &lt; local_variablet &gt;</text>
</g>
<!-- Node33 -->
<g id="Node000033" class="node">
<title>Node33</title>
<g id="a_Node000033"><a xlink:title=" ">
<polygon fill="white" stroke="#666666" points="1481.5,-121.94 1362.5,-121.94 1362.5,-91.94 1481.5,-91.94 1481.5,-121.94"/>
<text text-anchor="start" x="1370.5" y="-109.94" font-family="Helvetica,sans-Serif" font-size="10.00">std::vector&lt; stack</text>
<text text-anchor="middle" x="1422" y="-98.94" font-family="Helvetica,sans-Serif" font-size="10.00">_map_table_entryt &gt;</text>
</a>
</g>
</g>
<!-- Node14&#45;&gt;Node33 -->
<g id="edge50_Node000033_Node000014" class="edge">
<title>Node14&#45;&gt;Node33</title>
<g id="a_edge50_Node000033_Node000014"><a xlink:title=" ">
<path fill="none" stroke="orange" stroke-dasharray="5,2" d="M568.76,-221.55C583.54,-197.12 613.35,-154.96 652,-136.94 715.69,-107.24 1194.02,-106.1 1362.5,-106.63"/>
<polygon fill="orange" stroke="orange" points="565.7,-219.84 563.68,-230.24 571.75,-223.37 565.7,-219.84"/>
</a>
</g>
<text text-anchor="middle" x="1039" y="-113.94" font-family="Helvetica,sans-Serif" font-size="10.00" fill="grey"> &lt; stack_map_table_entryt &gt;</text>
</g>
<!-- Node35 -->
<g id="Node000035" class="node">
<title>Node35</title>
<g id="a_Node000035"><a xlink:title=" ">
<polygon fill="white" stroke="#666666" points="940,-85.94 806,-85.94 806,-55.94 940,-55.94 940,-85.94"/>
<text text-anchor="start" x="814" y="-73.94" font-family="Helvetica,sans-Serif" font-size="10.00">std::vector&lt; verification</text>
<text text-anchor="middle" x="873" y="-62.94" font-family="Helvetica,sans-Serif" font-size="10.00">_type_infot &gt;</text>
</a>
</g>
</g>
<!-- Node14&#45;&gt;Node35 -->
<g id="edge49_Node000035_Node000014" class="edge">
<title>Node14&#45;&gt;Node35</title>
<g id="a_edge49_Node000035_Node000014"><a xlink:title=" ">
<path fill="none" stroke="orange" stroke-dasharray="5,2" d="M563.9,-220.4C574.46,-186.33 601.37,-116.75 652,-85.94 677.02,-70.72 750.72,-68.33 805.97,-68.88"/>
<polygon fill="orange" stroke="orange" points="560.51,-219.54 561.04,-230.12 567.22,-221.51 560.51,-219.54"/>
</a>
</g>
<text text-anchor="start" x="667" y="-99.94" font-family="Helvetica,sans-Serif" font-size="10.00" fill="grey"> &lt; verification_type</text>
<text text-anchor="middle" x="715.5" y="-88.94" font-family="Helvetica,sans-Serif" font-size="10.00" fill="grey">_infot &gt;</text>
</g>
<!-- Node20&#45;&gt;Node1 -->
<g id="edge18_Node000001_Node000020" class="edge">
<title>Node20&#45;&gt;Node1</title>
<g id="a_edge18_Node000001_Node000020"><a xlink:title=" ">
<path fill="none" stroke="#9a32cd" stroke-dasharray="5,2" d="M931.85,-721.09C995.25,-727.29 1099.99,-735.94 1190.5,-735.94 1190.5,-735.94 1190.5,-735.94 1666.5,-735.94 1744.87,-735.94 1781.59,-746.36 1837,-690.94 1877.31,-650.62 1904.71,-468.04 1912.03,-414.03"/>
<polygon fill="#9a32cd" stroke="#9a32cd" points="931.95,-717.58 921.66,-720.08 931.26,-724.55 931.95,-717.58"/>
</a>
</g>
<text text-anchor="middle" x="1422" y="-738.94" font-family="Helvetica,sans-Serif" font-size="10.00" fill="grey"> source_location</text>
</g>
<!-- Node22 -->
<g id="Node000022" class="node">
<title>Node22</title>
<g id="a_Node000022"><a xlink:href="structjava__bytecode__parse__treet_1_1instructiont.html" target="_top" xlink:title=" ">
<polygon fill="white" stroke="#666666" points="1251.5,-534.94 1131.5,-534.94 1131.5,-504.94 1251.5,-504.94 1251.5,-534.94"/>
<text text-anchor="start" x="1139.5" y="-522.94" font-family="Helvetica,sans-Serif" font-size="10.00">java_bytecode_parse</text>
<text text-anchor="middle" x="1191.5" y="-511.94" font-family="Helvetica,sans-Serif" font-size="10.00">_treet::instructiont</text>
</a>
</g>
</g>
<!-- Node20&#45;&gt;Node22 -->
<g id="edge22_Node000022_Node000020" class="edge">
<title>Node20&#45;&gt;Node22</title>
<g id="a_edge22_Node000022_Node000020"><a xlink:title=" ">
<path fill="none" stroke="#9a32cd" stroke-dasharray="5,2" d="M931.71,-711.68C983.25,-706.16 1058.5,-691.38 1111,-651.94 1151.85,-621.25 1176,-562.88 1185.63,-535.21"/>
<polygon fill="#9a32cd" stroke="#9a32cd" points="931.33,-708.2 921.73,-712.67 932.02,-715.17 931.33,-708.2"/>
</a>
</g>
<text text-anchor="middle" x="1039" y="-708.94" font-family="Helvetica,sans-Serif" font-size="10.00" fill="grey"> source_location</text>
</g>
<!-- Node21&#45;&gt;Node1 -->
<g id="edge20_Node000001_Node000021" class="edge">
<title>Node21&#45;&gt;Node1</title>
<g id="a_edge20_Node000001_Node000021"><a xlink:title=" ">
<path fill="none" stroke="#9a32cd" stroke-dasharray="5,2" d="M1460.6,-411.58C1477.09,-416.49 1496.79,-421.51 1515,-423.94 1656.92,-442.88 1694.79,-430.54 1837,-413.94 1842.82,-413.26 1848.85,-412.39 1854.87,-411.4"/>
<polygon fill="#9a32cd" stroke="#9a32cd" points="1461.38,-408.16 1450.79,-408.56 1459.32,-414.85 1461.38,-408.16"/>
</a>
</g>
<text text-anchor="middle" x="1665.5" y="-435.94" font-family="Helvetica,sans-Serif" font-size="10.00" fill="grey"> instructions</text>
</g>
<!-- Node22&#45;&gt;Node21 -->
<g id="edge21_Node000021_Node000022" class="edge">
<title>Node22&#45;&gt;Node21</title>
<g id="a_edge21_Node000021_Node000022"><a xlink:title=" ">
<path fill="none" stroke="#9a32cd" stroke-dasharray="5,2" d="M1251.64,-498.44C1252.46,-497.64 1253.25,-496.8 1254,-495.94 1276.53,-470.1 1246.71,-444.08 1272,-420.94 1283.53,-410.4 1316.76,-404.9 1348.92,-402.04"/>
<polygon fill="#9a32cd" stroke="#9a32cd" points="1249.17,-495.93 1243.53,-504.9 1253.53,-501.41 1249.17,-495.93"/>
</a>
</g>
<text text-anchor="middle" x="1300.5" y="-423.94" font-family="Helvetica,sans-Serif" font-size="10.00" fill="grey"> elements</text>
</g>
<!-- Node23&#45;&gt;Node22 -->
<g id="edge23_Node000022_Node000023" class="edge">
<title>Node23&#45;&gt;Node22</title>
<g id="a_edge23_Node000022_Node000023"><a xlink:title=" ">
<path fill="none" stroke="#9a32cd" stroke-dasharray="5,2" d="M941.57,-519.94C997.97,-519.94 1077.58,-519.94 1131.46,-519.94"/>
<polygon fill="#9a32cd" stroke="#9a32cd" points="941.32,-516.44 931.32,-519.94 941.32,-523.44 941.32,-516.44"/>
</a>
</g>
<text text-anchor="middle" x="1039" y="-522.94" font-family="Helvetica,sans-Serif" font-size="10.00" fill="grey"> args</text>
</g>
<!-- Node24&#45;&gt;Node1 -->
<g id="edge27_Node000001_Node000024" class="edge">
<title>Node24&#45;&gt;Node1</title>
<g id="a_edge27_Node000001_Node000024"><a xlink:title=" ">
<path fill="none" stroke="#9a32cd" stroke-dasharray="5,2" d="M959.14,-157.94C1022.85,-157.94 1112.13,-157.94 1190.5,-157.94 1190.5,-157.94 1190.5,-157.94 1666.5,-157.94 1796.64,-157.94 1883.99,-331.1 1907.58,-383.87"/>
<polygon fill="#9a32cd" stroke="#9a32cd" points="959.14,-154.44 949.14,-157.94 959.14,-161.44 959.14,-154.44"/>
</a>
</g>
<text text-anchor="middle" x="1422" y="-160.94" font-family="Helvetica,sans-Serif" font-size="10.00" fill="grey"> parameter_annotations</text>
</g>
<!-- Node25&#45;&gt;Node1 -->
<g id="edge30_Node000001_Node000025" class="edge">
<title>Node25&#45;&gt;Node1</title>
<g id="a_edge30_Node000001_Node000025"><a xlink:title=" ">
<path fill="none" stroke="#9a32cd" stroke-dasharray="5,2" d="M1747.28,-398.94C1782.26,-398.94 1822.46,-398.94 1854.62,-398.94"/>
<polygon fill="#9a32cd" stroke="#9a32cd" points="1747.09,-395.44 1737.09,-398.94 1747.09,-402.44 1747.09,-395.44"/>
</a>
</g>
<text text-anchor="middle" x="1796" y="-401.94" font-family="Helvetica,sans-Serif" font-size="10.00" fill="grey"> exception_table</text>
</g>
<!-- Node26 -->
<g id="Node000026" class="node">
<title>Node26</title>
<g id="a_Node000026"><a xlink:href="structjava__bytecode__parse__treet_1_1methodt_1_1exceptiont.html" target="_top" xlink:title=" ">
<polygon fill="white" stroke="#666666" points="1497,-494.94 1347,-494.94 1347,-464.94 1497,-464.94 1497,-494.94"/>
<text text-anchor="start" x="1355" y="-482.94" font-family="Helvetica,sans-Serif" font-size="10.00">java_bytecode_parse</text>
<text text-anchor="middle" x="1422" y="-471.94" font-family="Helvetica,sans-Serif" font-size="10.00">_treet::methodt::exceptiont</text>
</a>
</g>
</g>
<!-- Node26&#45;&gt;Node25 -->
<g id="edge31_Node000025_Node000026" class="edge">
<title>Node26&#45;&gt;Node25</title>
<g id="a_edge31_Node000025_Node000026"><a xlink:title=" ">
<path fill="none" stroke="#9a32cd" stroke-dasharray="5,2" d="M1477.41,-461.69C1526.66,-445.17 1597.25,-421.5 1636.13,-408.46"/>
<polygon fill="#9a32cd" stroke="#9a32cd" points="1476.23,-458.4 1467.86,-464.9 1478.45,-465.03 1476.23,-458.4"/>
</a>
</g>
<text text-anchor="middle" x="1545.5" y="-451.94" font-family="Helvetica,sans-Serif" font-size="10.00" fill="grey"> elements</text>
</g>
<!-- Node27 -->
<g id="Node000027" class="node">
<title>Node27</title>
<g id="a_Node000027"><a xlink:href="classstruct__tag__typet.html" target="_top" xlink:title="A struct tag type, i.e., struct_typet with an identifier.">
<polygon fill="white" stroke="#666666" points="1239.5,-486.44 1143.5,-486.44 1143.5,-467.44 1239.5,-467.44 1239.5,-486.44"/>
<text text-anchor="middle" x="1191.5" y="-474.44" font-family="Helvetica,sans-Serif" font-size="10.00">struct_tag_typet</text>
</a>
</g>
</g>
<!-- Node27&#45;&gt;Node26 -->
<g id="edge32_Node000026_Node000027" class="edge">
<title>Node27&#45;&gt;Node26</title>
<g id="a_edge32_Node000026_Node000027"><a xlink:title=" ">
<path fill="none" stroke="#9a32cd" stroke-dasharray="5,2" d="M1249.64,-477.69C1278.98,-478.08 1315.07,-478.55 1346.55,-478.96"/>
<polygon fill="#9a32cd" stroke="#9a32cd" points="1249.61,-474.19 1239.57,-477.56 1249.52,-481.19 1249.61,-474.19"/>
</a>
</g>
<text text-anchor="middle" x="1300.5" y="-480.94" font-family="Helvetica,sans-Serif" font-size="10.00" fill="grey"> catch_type</text>
</g>
<!-- Node28 -->
<g id="Node000028" class="node">
<title>Node28</title>
<g id="a_Node000028"><a xlink:href="classstruct__or__union__tag__typet.html" target="_top" xlink:title="A struct or union tag type.">
<polygon fill="white" stroke="#666666" points="929.5,-491.94 816.5,-491.94 816.5,-461.94 929.5,-461.94 929.5,-491.94"/>
<text text-anchor="start" x="824.5" y="-479.94" font-family="Helvetica,sans-Serif" font-size="10.00">struct_or_union_tag</text>
<text text-anchor="middle" x="873" y="-468.94" font-family="Helvetica,sans-Serif" font-size="10.00">_typet</text>
</a>
</g>
</g>
<!-- Node28&#45;&gt;Node27 -->
<g id="edge33_Node000027_Node000028" class="edge">
<title>Node28&#45;&gt;Node27</title>
<g id="a_edge33_Node000027_Node000028"><a xlink:title=" ">
<path fill="none" stroke="#63b8ff" d="M940.12,-476.94C1000.92,-476.94 1089.57,-476.94 1143.45,-476.94"/>
<polygon fill="#63b8ff" stroke="#63b8ff" points="939.86,-473.44 929.86,-476.94 939.86,-480.44 939.86,-473.44"/>
</a>
</g>
</g>
<!-- Node29&#45;&gt;Node28 -->
<g id="edge34_Node000028_Node000029" class="edge">
<title>Node29&#45;&gt;Node28</title>
<g id="a_edge34_Node000028_Node000029"><a xlink:title=" ">
<path fill="none" stroke="#63b8ff" d="M599.31,-450.96C611.65,-453.65 624.44,-458.46 634,-466.94 650.73,-481.79 633.57,-501.26 652,-513.94 698.51,-545.93 724.98,-530.3 779,-513.94 788.2,-511.15 788.36,-506.16 797,-501.94 804.52,-498.26 812.72,-494.92 820.84,-491.96"/>
<polygon fill="#63b8ff" stroke="#63b8ff" points="599.59,-447.46 589.14,-449.16 598.38,-454.35 599.59,-447.46"/>
</a>
</g>
</g>
<!-- Node30&#45;&gt;Node1 -->
<g id="edge37_Node000001_Node000030" class="edge">
<title>Node30&#45;&gt;Node1</title>
<g id="a_edge37_Node000001_Node000030"><a xlink:title=" ">
<path fill="none" stroke="#9a32cd" stroke-dasharray="5,2" d="M947.07,-600.3C1011.22,-600.59 1107.05,-600.94 1190.5,-600.94 1190.5,-600.94 1190.5,-600.94 1666.5,-600.94 1784.64,-600.94 1877.52,-461.1 1905.4,-414.12"/>
<polygon fill="#9a32cd" stroke="#9a32cd" points="947.07,-596.8 937.05,-600.26 947.04,-603.8 947.07,-596.8"/>
</a>
</g>
<text text-anchor="middle" x="1422" y="-603.94" font-family="Helvetica,sans-Serif" font-size="10.00" fill="grey"> throws_exception_table</text>
</g>
<!-- Node31&#45;&gt;Node1 -->
<g id="edge40_Node000001_Node000031" class="edge">
<title>Node31&#45;&gt;Node1</title>
<g id="a_edge40_Node000001_Node000031"><a xlink:title=" ">
<path fill="none" stroke="#9a32cd" stroke-dasharray="5,2" d="M934.68,-402.33C1024.59,-392.9 1198.56,-376.05 1347,-369.94 1413.61,-367.2 1430.35,-368.41 1497,-369.94 1603.75,-372.39 1630.51,-373.09 1737,-380.94 1776.28,-383.84 1820.33,-388.31 1854.67,-392.08"/>
<polygon fill="#9a32cd" stroke="#9a32cd" points="934.24,-398.86 924.66,-403.39 934.98,-405.82 934.24,-398.86"/>
</a>
</g>
<text text-anchor="middle" x="1422" y="-372.94" font-family="Helvetica,sans-Serif" font-size="10.00" fill="grey"> local_variable_table</text>
</g>
<!-- Node32&#45;&gt;Node31 -->
<g id="edge41_Node000031_Node000032" class="edge">
<title>Node32&#45;&gt;Node31</title>
<g id="a_edge41_Node000031_Node000032"><a xlink:title=" ">
<path fill="none" stroke="#9a32cd" stroke-dasharray="5,2" d="M627.32,-423.96C629.69,-425.81 631.93,-427.8 634,-429.94 650.43,-446.91 632.68,-466.36 652,-479.94 698.18,-512.4 729.23,-506.57 779,-479.94 791.72,-473.14 786.51,-462.84 797,-452.94 809.29,-441.33 825.19,-431.46 839.18,-424.03"/>
<polygon fill="#9a32cd" stroke="#9a32cd" points="629.06,-420.92 618.83,-418.19 625.13,-426.71 629.06,-420.92"/>
</a>
</g>
<text text-anchor="middle" x="715.5" y="-504.94" font-family="Helvetica,sans-Serif" font-size="10.00" fill="grey"> elements</text>
</g>
<!-- Node33&#45;&gt;Node1 -->
<g id="edge45_Node000001_Node000033" class="edge">
<title>Node33&#45;&gt;Node1</title>
<g id="a_edge45_Node000001_Node000033"><a xlink:title=" ">
<path fill="none" stroke="#9a32cd" stroke-dasharray="5,2" d="M1491.66,-91.51C1581.76,-75.59 1739.79,-63.13 1837,-143.94 1912.04,-206.32 1915.69,-339.1 1914.65,-383.86"/>
<polygon fill="#9a32cd" stroke="#9a32cd" points="1491.03,-88.07 1481.83,-93.31 1492.29,-94.96 1491.03,-88.07"/>
</a>
</g>
<text text-anchor="middle" x="1665.5" y="-96.94" font-family="Helvetica,sans-Serif" font-size="10.00" fill="grey"> stack_map_table</text>
</g>
<!-- Node34 -->
<g id="Node000034" class="node">
<title>Node34</title>
<g id="a_Node000034"><a xlink:href="structjava__bytecode__parse__treet_1_1methodt_1_1stack__map__table__entryt.html" target="_top" xlink:title=" ">
<polygon fill="white" stroke="#666666" points="1254,-91.44 1129,-91.44 1129,-50.44 1254,-50.44 1254,-91.44"/>
<text text-anchor="start" x="1137" y="-79.44" font-family="Helvetica,sans-Serif" font-size="10.00">java_bytecode_parse</text>
<text text-anchor="start" x="1137" y="-68.44" font-family="Helvetica,sans-Serif" font-size="10.00">_treet::methodt::stack</text>
<text text-anchor="middle" x="1191.5" y="-57.44" font-family="Helvetica,sans-Serif" font-size="10.00">_map_table_entryt</text>
</a>
</g>
</g>
<!-- Node34&#45;&gt;Node33 -->
<g id="edge46_Node000033_Node000034" class="edge">
<title>Node34&#45;&gt;Node33</title>
<g id="a_edge46_Node000033_Node000034"><a xlink:title=" ">
<path fill="none" stroke="#9a32cd" stroke-dasharray="5,2" d="M1264.08,-82.22C1295.61,-87.19 1332.2,-92.95 1362.11,-97.66"/>
<polygon fill="#9a32cd" stroke="#9a32cd" points="1264.46,-78.73 1254.03,-80.64 1263.37,-85.65 1264.46,-78.73"/>
</a>
</g>
<text text-anchor="middle" x="1300.5" y="-95.94" font-family="Helvetica,sans-Serif" font-size="10.00" fill="grey"> elements</text>
</g>
<!-- Node35&#45;&gt;Node34 -->
<g id="edge47_Node000034_Node000035" class="edge">
<title>Node35&#45;&gt;Node34</title>
<g id="a_edge47_Node000034_Node000035"><a xlink:title=" ">
<path fill="none" stroke="#9a32cd" stroke-dasharray="5,2" d="M950.68,-70.94C1005.35,-70.94 1077.87,-70.94 1128.8,-70.94"/>
<polygon fill="#9a32cd" stroke="#9a32cd" points="950.35,-67.44 940.35,-70.94 950.35,-74.44 950.35,-67.44"/>
</a>
</g>
<text text-anchor="middle" x="1039" y="-84.94" font-family="Helvetica,sans-Serif" font-size="10.00" fill="grey"> locals</text>
<text text-anchor="middle" x="1039" y="-73.94" font-family="Helvetica,sans-Serif" font-size="10.00" fill="grey">stack</text>
</g>
<!-- Node36 -->
<g id="Node000036" class="node">
<title>Node36</title>
<g id="a_Node000036"><a xlink:href="structjava__bytecode__parse__treet_1_1methodt_1_1verification__type__infot.html" target="_top" xlink:title=" ">
<polygon fill="white" stroke="#666666" points="634,-87.44 481,-87.44 481,-46.44 634,-46.44 634,-87.44"/>
<text text-anchor="start" x="489" y="-75.44" font-family="Helvetica,sans-Serif" font-size="10.00">java_bytecode_parse</text>
<text text-anchor="start" x="489" y="-64.44" font-family="Helvetica,sans-Serif" font-size="10.00">_treet::methodt::verification</text>
<text text-anchor="middle" x="557.5" y="-53.44" font-family="Helvetica,sans-Serif" font-size="10.00">_type_infot</text>
</a>
</g>
</g>
<!-- Node36&#45;&gt;Node35 -->
<g id="edge48_Node000035_Node000036" class="edge">
<title>Node36&#45;&gt;Node35</title>
<g id="a_edge48_Node000035_Node000036"><a xlink:title=" ">
<path fill="none" stroke="#9a32cd" stroke-dasharray="5,2" d="M644.27,-52.64C646.87,-52.38 649.45,-52.14 652,-51.94 708.27,-47.46 722.84,-46.26 779,-51.94 788.1,-52.86 797.62,-54.27 806.96,-55.93"/>
<polygon fill="#9a32cd" stroke="#9a32cd" points="643.71,-49.18 634.16,-53.76 644.48,-56.13 643.71,-49.18"/>
</a>
</g>
<text text-anchor="middle" x="715.5" y="-54.94" font-family="Helvetica,sans-Serif" font-size="10.00" fill="grey"> elements</text>
</g>
</g>
</svg>
