<?xml version="1.0" encoding="UTF-8" standalone="no"?>
<!DOCTYPE svg PUBLIC "-//W3C//DTD SVG 1.1//EN"
 "http://www.w3.org/Graphics/SVG/1.1/DTD/svg11.dtd">
<!-- Generated by graphviz version 2.43.0 (0)
 -->
<!-- Title: configt::ansi_ct Pages: 1 -->
<svg width="1463pt" height="423pt"
 viewBox="0.00 0.00 1463.00 422.50" xmlns="http://www.w3.org/2000/svg" xmlns:xlink="http://www.w3.org/1999/xlink">
<g id="graph0" class="graph" transform="scale(1 1) rotate(0) translate(4 418.5)">
<title>configt::ansi_ct</title>
<!-- Node1 -->
<g id="Node000001" class="node">
<title>Node1</title>
<g id="a_Node000001"><a xlink:title=" ">
<polygon fill="#999999" stroke="#666666" points="1455,-135.5 1365,-135.5 1365,-116.5 1455,-116.5 1455,-135.5"/>
<text text-anchor="middle" x="1410" y="-123.5" font-family="Helvetica,sans-Serif" font-size="10.00">configt::ansi_ct</text>
</a>
</g>
</g>
<!-- Node2 -->
<g id="Node000002" class="node">
<title>Node2</title>
<g id="a_Node000002"><a xlink:href="classdstringt.html" target="_top" xlink:title="dstringt has one field, an unsigned integer no which is an index into a static table of strings.">
<polygon fill="white" stroke="#666666" points="1189,-344.5 1135,-344.5 1135,-325.5 1189,-325.5 1189,-344.5"/>
<text text-anchor="middle" x="1162" y="-332.5" font-family="Helvetica,sans-Serif" font-size="10.00">dstringt</text>
</a>
</g>
</g>
<!-- Node2&#45;&gt;Node1 -->
<g id="edge1_Node000001_Node000002" class="edge">
<title>Node2&#45;&gt;Node1</title>
<g id="a_edge1_Node000001_Node000002"><a xlink:title=" ">
<path fill="none" stroke="#9a32cd" stroke-dasharray="5,2" d="M1198.98,-327.71C1207.54,-325.09 1216.4,-321.6 1224,-317 1308.52,-265.86 1381.01,-166.75 1402.52,-135.61"/>
<polygon fill="#9a32cd" stroke="#9a32cd" points="1197.87,-324.38 1189.15,-330.4 1199.71,-331.13 1197.87,-324.38"/>
</a>
</g>
<text text-anchor="middle" x="1294.5" y="-304" font-family="Helvetica,sans-Serif" font-size="10.00" fill="grey"> arch</text>
</g>
<!-- Node3 -->
<g id="Node000003" class="node">
<title>Node3</title>
<g id="a_Node000003"><a xlink:href="classpreprocessort.html" target="_top" xlink:title=" ">
<polygon fill="white" stroke="#666666" points="1203.5,-135.5 1120.5,-135.5 1120.5,-116.5 1203.5,-116.5 1203.5,-135.5"/>
<text text-anchor="middle" x="1162" y="-123.5" font-family="Helvetica,sans-Serif" font-size="10.00">preprocessort</text>
</a>
</g>
</g>
<!-- Node3&#45;&gt;Node1 -->
<g id="edge2_Node000001_Node000003" class="edge">
<title>Node3&#45;&gt;Node1</title>
<g id="a_edge2_Node000001_Node000003"><a xlink:title=" ">
<path fill="none" stroke="#9a32cd" stroke-dasharray="5,2" d="M1213.66,-126C1258.25,-126 1322.52,-126 1364.99,-126"/>
<polygon fill="#9a32cd" stroke="#9a32cd" points="1213.62,-122.5 1203.62,-126 1213.62,-129.5 1213.62,-122.5"/>
</a>
</g>
<text text-anchor="middle" x="1294.5" y="-129" font-family="Helvetica,sans-Serif" font-size="10.00" fill="grey"> preprocessor</text>
</g>
<!-- Node4 -->
<g id="Node000004" class="node">
<title>Node4</title>
<g id="a_Node000004"><a xlink:href="classmessaget.html" target="_top" xlink:title="Class that provides messages with a built&#45;in verbosity &#39;level&#39;.">
<polygon fill="white" stroke="#666666" points="963.5,-284.5 898.5,-284.5 898.5,-265.5 963.5,-265.5 963.5,-284.5"/>
<text text-anchor="middle" x="931" y="-272.5" font-family="Helvetica,sans-Serif" font-size="10.00">messaget</text>
</a>
</g>
</g>
<!-- Node4&#45;&gt;Node3 -->
<g id="edge3_Node000003_Node000004" class="edge">
<title>Node4&#45;&gt;Node3</title>
<g id="a_edge3_Node000003_Node000004"><a xlink:title=" ">
<path fill="none" stroke="#63b8ff" d="M955.26,-259.87C1002.24,-229.3 1107.27,-160.96 1146.15,-135.66"/>
<polygon fill="#63b8ff" stroke="#63b8ff" points="953.15,-257.07 946.67,-265.45 956.96,-262.93 953.15,-257.07"/>
</a>
</g>
</g>
<!-- Node11 -->
<g id="Node000011" class="node">
<title>Node11</title>
<g id="a_Node000011"><a xlink:href="classmessaget_1_1mstreamt.html" target="_top" xlink:title=" ">
<polygon fill="white" stroke="#666666" points="1221.5,-307.5 1102.5,-307.5 1102.5,-288.5 1221.5,-288.5 1221.5,-307.5"/>
<text text-anchor="middle" x="1162" y="-295.5" font-family="Helvetica,sans-Serif" font-size="10.00">messaget::mstreamt</text>
</a>
</g>
</g>
<!-- Node4&#45;&gt;Node11 -->
<g id="edge15_Node000011_Node000004" class="edge">
<title>Node4&#45;&gt;Node11</title>
<g id="a_edge15_Node000011_Node000004"><a xlink:title=" ">
<path fill="none" stroke="#9a32cd" stroke-dasharray="5,2" d="M973.81,-267.46C1004.1,-263.28 1045.9,-260.17 1082,-267 1103.57,-271.08 1126.79,-280.91 1142.44,-288.42"/>
<polygon fill="#9a32cd" stroke="#9a32cd" points="972.99,-264.04 963.61,-268.97 974.01,-270.97 972.99,-264.04"/>
</a>
</g>
<text text-anchor="middle" x="1042" y="-270" font-family="Helvetica,sans-Serif" font-size="10.00" fill="grey"> message</text>
</g>
<!-- Node5 -->
<g id="Node000005" class="node">
<title>Node5</title>
<g id="a_Node000005"><a xlink:href="classmessaget_1_1eomt.html" target="_top" xlink:title=" ">
<polygon fill="white" stroke="#666666" points="731.5,-280.5 635.5,-280.5 635.5,-261.5 731.5,-261.5 731.5,-280.5"/>
<text text-anchor="middle" x="683.5" y="-268.5" font-family="Helvetica,sans-Serif" font-size="10.00">messaget::eomt</text>
</a>
</g>
</g>
<!-- Node5&#45;&gt;Node4 -->
<g id="edge4_Node000004_Node000005" class="edge">
<title>Node5&#45;&gt;Node4</title>
<g id="a_edge4_Node000004_Node000005"><a xlink:title=" ">
<path fill="none" stroke="#9a32cd" stroke-dasharray="5,2" d="M741.65,-274.81C751.12,-275.3 760.83,-275.73 770,-276 809.98,-277.17 820,-276.29 860,-276 872.52,-275.91 886.29,-275.73 898.29,-275.55"/>
<polygon fill="#9a32cd" stroke="#9a32cd" points="741.7,-271.3 731.52,-274.24 741.31,-278.29 741.7,-271.3"/>
</a>
</g>
<text text-anchor="middle" x="815" y="-279" font-family="Helvetica,sans-Serif" font-size="10.00" fill="grey"> eom</text>
</g>
<!-- Node6 -->
<g id="Node000006" class="node">
<title>Node6</title>
<g id="a_Node000006"><a xlink:href="classmessaget_1_1commandt.html" target="_top" xlink:title=" ">
<polygon fill="white" stroke="#666666" points="745,-172.5 622,-172.5 622,-153.5 745,-153.5 745,-172.5"/>
<text text-anchor="middle" x="683.5" y="-160.5" font-family="Helvetica,sans-Serif" font-size="10.00">messaget::commandt</text>
</a>
</g>
</g>
<!-- Node6&#45;&gt;Node4 -->
<g id="edge5_Node000004_Node000006" class="edge">
<title>Node6&#45;&gt;Node4</title>
<g id="a_edge5_Node000004_Node000006"><a xlink:title=" ">
<path fill="none" stroke="#9a32cd" stroke-dasharray="5,2" d="M718.15,-150.09C755.5,-138.06 816.24,-125.45 860,-151 903.77,-176.55 922.33,-240.7 927.98,-265.24"/>
<polygon fill="#9a32cd" stroke="#9a32cd" points="716.62,-146.92 708.28,-153.44 718.87,-153.55 716.62,-146.92"/>
</a>
</g>
<text text-anchor="middle" x="815" y="-264" font-family="Helvetica,sans-Serif" font-size="10.00" fill="grey"> blue</text>
<text text-anchor="middle" x="815" y="-253" font-family="Helvetica,sans-Serif" font-size="10.00" fill="grey">bold</text>
<text text-anchor="middle" x="815" y="-242" font-family="Helvetica,sans-Serif" font-size="10.00" fill="grey">bright_blue</text>
<text text-anchor="middle" x="815" y="-231" font-family="Helvetica,sans-Serif" font-size="10.00" fill="grey">bright_cyan</text>
<text text-anchor="middle" x="815" y="-220" font-family="Helvetica,sans-Serif" font-size="10.00" fill="grey">bright_green</text>
<text text-anchor="middle" x="815" y="-209" font-family="Helvetica,sans-Serif" font-size="10.00" fill="grey">bright_magenta</text>
<text text-anchor="middle" x="815" y="-198" font-family="Helvetica,sans-Serif" font-size="10.00" fill="grey">bright_red</text>
<text text-anchor="middle" x="815" y="-187" font-family="Helvetica,sans-Serif" font-size="10.00" fill="grey">bright_yellow</text>
<text text-anchor="middle" x="815" y="-176" font-family="Helvetica,sans-Serif" font-size="10.00" fill="grey">cyan</text>
<text text-anchor="middle" x="815" y="-165" font-family="Helvetica,sans-Serif" font-size="10.00" fill="grey">faint</text>
<text text-anchor="middle" x="815" y="-154" font-family="Helvetica,sans-Serif" font-size="10.00" fill="grey">...</text>
</g>
<!-- Node7 -->
<g id="Node000007" class="node">
<title>Node7</title>
<g id="a_Node000007"><a xlink:href="classmessage__handlert.html" target="_top" xlink:title=" ">
<polygon fill="white" stroke="#666666" points="737,-366.5 630,-366.5 630,-347.5 737,-347.5 737,-366.5"/>
<text text-anchor="middle" x="683.5" y="-354.5" font-family="Helvetica,sans-Serif" font-size="10.00">message_handlert</text>
</a>
</g>
</g>
<!-- Node7&#45;&gt;Node4 -->
<g id="edge6_Node000004_Node000007" class="edge">
<title>Node7&#45;&gt;Node4</title>
<g id="a_edge6_Node000004_Node000007"><a xlink:title=" ">
<path fill="none" stroke="#9a32cd" stroke-dasharray="5,2" d="M729.69,-344.72C737.17,-342.57 744.82,-340.28 752,-338 806.84,-320.6 870.14,-297.45 904.53,-284.61"/>
<polygon fill="#9a32cd" stroke="#9a32cd" points="728.67,-341.37 720.01,-347.48 730.59,-348.11 728.67,-341.37"/>
</a>
</g>
<text text-anchor="middle" x="815" y="-334" font-family="Helvetica,sans-Serif" font-size="10.00" fill="grey"> message_handler</text>
</g>
<!-- Node8 -->
<g id="Node000008" class="node">
<title>Node8</title>
<g id="a_Node000008"><a xlink:title=" ">
<polygon fill="white" stroke="#666666" points="499,-338.5 359,-338.5 359,-319.5 499,-319.5 499,-338.5"/>
<text text-anchor="middle" x="429" y="-326.5" font-family="Helvetica,sans-Serif" font-size="10.00">std::vector&lt; std::size_t &gt;</text>
</a>
</g>
</g>
<!-- Node8&#45;&gt;Node7 -->
<g id="edge7_Node000007_Node000008" class="edge">
<title>Node8&#45;&gt;Node7</title>
<g id="a_edge7_Node000007_Node000008"><a xlink:title=" ">
<path fill="none" stroke="#9a32cd" stroke-dasharray="5,2" d="M509.41,-337.81C548.64,-342.16 594.92,-347.29 629.74,-351.15"/>
<polygon fill="#9a32cd" stroke="#9a32cd" points="509.66,-334.31 499.33,-336.69 508.88,-341.27 509.66,-334.31"/>
</a>
</g>
<text text-anchor="middle" x="557" y="-350" font-family="Helvetica,sans-Serif" font-size="10.00" fill="grey"> message_count</text>
</g>
<!-- Node9 -->
<g id="Node000009" class="node">
<title>Node9</title>
<g id="a_Node000009"><a xlink:title=" ">
<polygon fill="white" stroke="#666666" points="226.5,-191.5 129.5,-191.5 129.5,-172.5 226.5,-172.5 226.5,-191.5"/>
<text text-anchor="middle" x="178" y="-179.5" font-family="Helvetica,sans-Serif" font-size="10.00">std::vector&lt; T &gt;</text>
</a>
</g>
</g>
<!-- Node9&#45;&gt;Node8 -->
<g id="edge8_Node000008_Node000009" class="edge">
<title>Node9&#45;&gt;Node8</title>
<g id="a_edge8_Node000008_Node000009"><a xlink:title=" ">
<path fill="none" stroke="orange" stroke-dasharray="5,2" d="M204.07,-196.8C254.94,-226.83 369.06,-294.2 411.6,-319.32"/>
<polygon fill="orange" stroke="orange" points="205.73,-193.71 195.34,-191.65 202.17,-199.74 205.73,-193.71"/>
</a>
</g>
<text text-anchor="middle" x="300.5" y="-280" font-family="Helvetica,sans-Serif" font-size="10.00" fill="grey"> &lt; std::size_t &gt;</text>
</g>
<!-- Node10 -->
<g id="Node000010" class="node">
<title>Node10</title>
<g id="a_Node000010"><a xlink:title=" ">
<polygon fill="white" stroke="#666666" points="29,-106.5 0,-106.5 0,-87.5 29,-87.5 29,-106.5"/>
<text text-anchor="middle" x="14.5" y="-94.5" font-family="Helvetica,sans-Serif" font-size="10.00">T</text>
</a>
</g>
</g>
<!-- Node10&#45;&gt;Node9 -->
<g id="edge9_Node000009_Node000010" class="edge">
<title>Node10&#45;&gt;Node9</title>
<g id="a_edge9_Node000009_Node000010"><a xlink:title=" ">
<path fill="none" stroke="#9a32cd" stroke-dasharray="5,2" d="M37.84,-110.84C57.56,-122.84 87.26,-140.37 114,-154 127.01,-160.63 141.93,-167.3 153.98,-172.47"/>
<polygon fill="#9a32cd" stroke="#9a32cd" points="39.63,-107.83 29.27,-105.59 35.97,-113.8 39.63,-107.83"/>
</a>
</g>
<text text-anchor="middle" x="71.5" y="-146" font-family="Helvetica,sans-Serif" font-size="10.00" fill="grey"> elements</text>
</g>
<!-- Node31 -->
<g id="Node000031" class="node">
<title>Node31</title>
<g id="a_Node000031"><a xlink:title=" ">
<polygon fill="white" stroke="#666666" points="341,-51.5 260,-51.5 260,-32.5 341,-32.5 341,-51.5"/>
<text text-anchor="middle" x="300.5" y="-39.5" font-family="Helvetica,sans-Serif" font-size="10.00">std::list&lt; T &gt;</text>
</a>
</g>
</g>
<!-- Node10&#45;&gt;Node31 -->
<g id="edge30_Node000031_Node000010" class="edge">
<title>Node10&#45;&gt;Node31</title>
<g id="a_edge30_Node000031_Node000010"><a xlink:title=" ">
<path fill="none" stroke="#9a32cd" stroke-dasharray="5,2" d="M39.12,-92.43C87.84,-82.99 199.97,-61.28 259.95,-49.66"/>
<polygon fill="#9a32cd" stroke="#9a32cd" points="38.35,-89.01 29.2,-94.35 39.68,-95.88 38.35,-89.01"/>
</a>
</g>
<text text-anchor="middle" x="71.5" y="-93" font-family="Helvetica,sans-Serif" font-size="10.00" fill="grey"> elements</text>
</g>
<!-- Node11&#45;&gt;Node4 -->
<g id="edge10_Node000004_Node000011" class="edge">
<title>Node11&#45;&gt;Node4</title>
<g id="a_edge10_Node000004_Node000011"><a xlink:title=" ">
<path fill="none" stroke="#9a32cd" stroke-dasharray="5,2" d="M1092.01,-291.07C1049.44,-286.8 996.84,-281.51 963.84,-278.2"/>
<polygon fill="#9a32cd" stroke="#9a32cd" points="1091.75,-294.56 1102.05,-292.08 1092.45,-287.6 1091.75,-294.56"/>
</a>
</g>
<text text-anchor="middle" x="1042" y="-292" font-family="Helvetica,sans-Serif" font-size="10.00" fill="grey"> mstream</text>
</g>
<!-- Node12 -->
<g id="Node000012" class="node">
<title>Node12</title>
<g id="a_Node000012"><a xlink:title=" ">
<polygon fill="white" stroke="#666666" points="984,-333.5 878,-333.5 878,-314.5 984,-314.5 984,-333.5"/>
<text text-anchor="middle" x="931" y="-321.5" font-family="Helvetica,sans-Serif" font-size="10.00">std::ostringstream</text>
</a>
</g>
</g>
<!-- Node12&#45;&gt;Node11 -->
<g id="edge11_Node000011_Node000012" class="edge">
<title>Node12&#45;&gt;Node11</title>
<g id="a_edge11_Node000011_Node000012"><a xlink:title=" ">
<path fill="none" stroke="#63b8ff" d="M994.4,-316.91C1027.96,-313.1 1069.11,-308.43 1102.12,-304.69"/>
<polygon fill="#63b8ff" stroke="#63b8ff" points="993.79,-313.46 984.25,-318.07 994.58,-320.42 993.79,-313.46"/>
</a>
</g>
</g>
<!-- Node13 -->
<g id="Node000013" class="node">
<title>Node13</title>
<g id="a_Node000013"><a xlink:title=" ">
<polygon fill="white" stroke="#666666" points="752,-329 615,-329 615,-299 752,-299 752,-329"/>
<text text-anchor="start" x="623" y="-317" font-family="Helvetica,sans-Serif" font-size="10.00">std::basic_ostringstream</text>
<text text-anchor="middle" x="683.5" y="-306" font-family="Helvetica,sans-Serif" font-size="10.00">&lt; Char &gt;</text>
</a>
</g>
</g>
<!-- Node13&#45;&gt;Node12 -->
<g id="edge12_Node000012_Node000013" class="edge">
<title>Node13&#45;&gt;Node12</title>
<g id="a_edge12_Node000012_Node000013"><a xlink:title=" ">
<path fill="none" stroke="#63b8ff" d="M762.64,-317.18C800.2,-318.71 844.21,-320.51 877.66,-321.87"/>
<polygon fill="#63b8ff" stroke="#63b8ff" points="762.37,-313.67 752.23,-316.76 762.08,-320.66 762.37,-313.67"/>
</a>
</g>
</g>
<!-- Node14 -->
<g id="Node000014" class="node">
<title>Node14</title>
<g id="a_Node000014"><a xlink:title=" ">
<polygon fill="white" stroke="#666666" points="483.5,-268 374.5,-268 374.5,-238 483.5,-238 483.5,-268"/>
<text text-anchor="start" x="382.5" y="-256" font-family="Helvetica,sans-Serif" font-size="10.00">std::basic_ostream</text>
<text text-anchor="middle" x="429" y="-245" font-family="Helvetica,sans-Serif" font-size="10.00">&lt; Char &gt;</text>
</a>
</g>
</g>
<!-- Node14&#45;&gt;Node13 -->
<g id="edge13_Node000013_Node000014" class="edge">
<title>Node14&#45;&gt;Node13</title>
<g id="a_edge13_Node000013_Node000014"><a xlink:title=" ">
<path fill="none" stroke="#63b8ff" d="M493.66,-268.38C532.39,-277.74 581.63,-289.63 620.12,-298.93"/>
<polygon fill="#63b8ff" stroke="#63b8ff" points="494.09,-264.88 483.55,-265.94 492.45,-271.69 494.09,-264.88"/>
</a>
</g>
</g>
<!-- Node15 -->
<g id="Node000015" class="node">
<title>Node15</title>
<g id="a_Node000015"><a xlink:title=" ">
<polygon fill="#fff0f0" stroke="red" points="242,-144.5 114,-144.5 114,-125.5 242,-125.5 242,-144.5"/>
<text text-anchor="middle" x="178" y="-132.5" font-family="Helvetica,sans-Serif" font-size="10.00">std::basic_ios&lt; Char &gt;</text>
</a>
</g>
</g>
<!-- Node15&#45;&gt;Node14 -->
<g id="edge14_Node000014_Node000015" class="edge">
<title>Node15&#45;&gt;Node14</title>
<g id="a_edge14_Node000014_Node000015"><a xlink:title=" ">
<path fill="none" stroke="#63b8ff" d="M209.16,-148.77C219.58,-153.56 231.32,-158.99 242,-164 296.6,-189.63 359.91,-220.08 396.8,-237.9"/>
<polygon fill="#63b8ff" stroke="#63b8ff" points="210.59,-145.58 200.04,-144.59 207.67,-151.94 210.59,-145.58"/>
</a>
</g>
</g>
<!-- Node25 -->
<g id="Node000025" class="node">
<title>Node25</title>
<g id="a_Node000025"><a xlink:title=" ">
<polygon fill="white" stroke="#666666" points="482,-102 376,-102 376,-72 482,-72 482,-102"/>
<text text-anchor="start" x="384" y="-90" font-family="Helvetica,sans-Serif" font-size="10.00">std::basic_istream</text>
<text text-anchor="middle" x="429" y="-79" font-family="Helvetica,sans-Serif" font-size="10.00">&lt; Char &gt;</text>
</a>
</g>
</g>
<!-- Node15&#45;&gt;Node25 -->
<g id="edge21_Node000025_Node000015" class="edge">
<title>Node15&#45;&gt;Node25</title>
<g id="a_edge21_Node000025_Node000015"><a xlink:title=" ">
<path fill="none" stroke="#63b8ff" d="M238.52,-123.53C280.26,-115.48 335.53,-104.83 375.6,-97.1"/>
<polygon fill="#63b8ff" stroke="#63b8ff" points="237.65,-120.13 228.49,-125.46 238.97,-127 237.65,-120.13"/>
</a>
</g>
</g>
<!-- Node27 -->
<g id="Node000027" class="node">
<title>Node27</title>
<g id="a_Node000027"><a xlink:title=" ">
<polygon fill="white" stroke="#666666" points="483.5,-150 374.5,-150 374.5,-120 483.5,-120 483.5,-150"/>
<text text-anchor="start" x="382.5" y="-138" font-family="Helvetica,sans-Serif" font-size="10.00">std::basic_ostream</text>
<text text-anchor="middle" x="429" y="-127" font-family="Helvetica,sans-Serif" font-size="10.00">&lt; Char &gt;</text>
</a>
</g>
</g>
<!-- Node15&#45;&gt;Node27 -->
<g id="edge24_Node000027_Node000015" class="edge">
<title>Node15&#45;&gt;Node27</title>
<g id="a_edge24_Node000027_Node000015"><a xlink:title=" ">
<path fill="none" stroke="#63b8ff" d="M252.41,-135C291.45,-135 338.59,-135 374.19,-135"/>
<polygon fill="#63b8ff" stroke="#63b8ff" points="252.16,-131.5 242.16,-135 252.16,-138.5 252.16,-131.5"/>
</a>
</g>
</g>
<!-- Node17 -->
<g id="Node000017" class="node">
<title>Node17</title>
<g id="a_Node000017"><a xlink:href="classsource__locationt.html" target="_top" xlink:title=" ">
<polygon fill="white" stroke="#666666" points="979.5,-386.5 882.5,-386.5 882.5,-367.5 979.5,-367.5 979.5,-386.5"/>
<text text-anchor="middle" x="931" y="-374.5" font-family="Helvetica,sans-Serif" font-size="10.00">source_locationt</text>
</a>
</g>
</g>
<!-- Node17&#45;&gt;Node11 -->
<g id="edge16_Node000011_Node000017" class="edge">
<title>Node17&#45;&gt;Node11</title>
<g id="a_edge16_Node000011_Node000017"><a xlink:title=" ">
<path fill="none" stroke="#9a32cd" stroke-dasharray="5,2" d="M971.69,-364.26C1002.12,-354.24 1045.03,-339.59 1082,-325 1090.14,-321.79 1091.81,-320.08 1100,-317 1108.93,-313.64 1118.74,-310.39 1127.84,-307.56"/>
<polygon fill="#9a32cd" stroke="#9a32cd" points="970.29,-361.03 961.87,-367.47 972.46,-367.69 970.29,-361.03"/>
</a>
</g>
<text text-anchor="middle" x="1042" y="-356" font-family="Helvetica,sans-Serif" font-size="10.00" fill="grey"> source_location</text>
</g>
<!-- Node18 -->
<g id="Node000018" class="node">
<title>Node18</title>
<g id="a_Node000018"><a xlink:href="classirept.html" target="_top" xlink:title="There are a large number of kinds of tree structured or tree&#45;like data in CPROVER.">
<polygon fill="white" stroke="#666666" points="703,-403.5 664,-403.5 664,-384.5 703,-384.5 703,-403.5"/>
<text text-anchor="middle" x="683.5" y="-391.5" font-family="Helvetica,sans-Serif" font-size="10.00">irept</text>
</a>
</g>
</g>
<!-- Node18&#45;&gt;Node17 -->
<g id="edge17_Node000017_Node000018" class="edge">
<title>Node18&#45;&gt;Node17</title>
<g id="a_edge17_Node000017_Node000018"><a xlink:title=" ">
<path fill="none" stroke="#63b8ff" d="M713.37,-392C754.97,-389.12 832.29,-383.77 882.41,-380.3"/>
<polygon fill="#63b8ff" stroke="#63b8ff" points="713.09,-388.51 703.36,-392.69 713.57,-395.5 713.09,-388.51"/>
</a>
</g>
</g>
<!-- Node19 -->
<g id="Node000019" class="node">
<title>Node19</title>
<g id="a_Node000019"><a xlink:href="classsharing__treet.html" target="_top" xlink:title=" ">
<polygon fill="#fff0f0" stroke="red" points="491.5,-414.5 366.5,-414.5 366.5,-373.5 491.5,-373.5 491.5,-414.5"/>
<text text-anchor="start" x="374.5" y="-402.5" font-family="Helvetica,sans-Serif" font-size="10.00">sharing_treet&lt; irept,</text>
<text text-anchor="start" x="374.5" y="-391.5" font-family="Helvetica,sans-Serif" font-size="10.00"> forward_list_as_mapt</text>
<text text-anchor="middle" x="429" y="-380.5" font-family="Helvetica,sans-Serif" font-size="10.00">&lt; irep_idt, irept &gt; &gt;</text>
</a>
</g>
</g>
<!-- Node19&#45;&gt;Node18 -->
<g id="edge18_Node000018_Node000019" class="edge">
<title>Node19&#45;&gt;Node18</title>
<g id="a_edge18_Node000018_Node000019"><a xlink:title=" ">
<path fill="none" stroke="#63b8ff" d="M501.9,-394C557.32,-394 630.01,-394 663.77,-394"/>
<polygon fill="#63b8ff" stroke="#63b8ff" points="501.77,-390.5 491.77,-394 501.77,-397.5 501.77,-390.5"/>
</a>
</g>
</g>
<!-- Node24 -->
<g id="Node000024" class="node">
<title>Node24</title>
<g id="a_Node000024"><a xlink:title=" ">
<polygon fill="white" stroke="#666666" points="852.5,-99.5 777.5,-99.5 777.5,-80.5 852.5,-80.5 852.5,-99.5"/>
<text text-anchor="middle" x="815" y="-87.5" font-family="Helvetica,sans-Serif" font-size="10.00">std::istream</text>
</a>
</g>
</g>
<!-- Node24&#45;&gt;Node3 -->
<g id="edge19_Node000003_Node000024" class="edge">
<title>Node24&#45;&gt;Node3</title>
<g id="a_edge19_Node000003_Node000024"><a xlink:title=" ">
<path fill="none" stroke="#9a32cd" stroke-dasharray="5,2" d="M862.75,-94.23C896.47,-97.34 943.07,-101.74 984,-106 1030.75,-110.87 1084.39,-117.01 1120.25,-121.19"/>
<polygon fill="#9a32cd" stroke="#9a32cd" points="863,-90.74 852.72,-93.31 862.36,-97.71 863,-90.74"/>
</a>
</g>
<text text-anchor="middle" x="931" y="-109" font-family="Helvetica,sans-Serif" font-size="10.00" fill="grey"> in</text>
</g>
<!-- Node25&#45;&gt;Node24 -->
<g id="edge20_Node000024_Node000025" class="edge">
<title>Node25&#45;&gt;Node24</title>
<g id="a_edge20_Node000024_Node000025"><a xlink:title=" ">
<path fill="none" stroke="#63b8ff" d="M492.24,-87.49C573.13,-88.12 711.78,-89.2 777.45,-89.71"/>
<polygon fill="#63b8ff" stroke="#63b8ff" points="492.21,-83.99 482.19,-87.41 492.16,-90.99 492.21,-83.99"/>
</a>
</g>
</g>
<!-- Node26 -->
<g id="Node000026" class="node">
<title>Node26</title>
<g id="a_Node000026"><a xlink:title=" ">
<polygon fill="white" stroke="#666666" points="854,-130.5 776,-130.5 776,-111.5 854,-111.5 854,-130.5"/>
<text text-anchor="middle" x="815" y="-118.5" font-family="Helvetica,sans-Serif" font-size="10.00">std::ostream</text>
</a>
</g>
</g>
<!-- Node26&#45;&gt;Node3 -->
<g id="edge22_Node000003_Node000026" class="edge">
<title>Node26&#45;&gt;Node3</title>
<g id="a_edge22_Node000003_Node000026"><a xlink:title=" ">
<path fill="none" stroke="#9a32cd" stroke-dasharray="5,2" d="M864.32,-121.7C932.73,-122.69 1056.57,-124.49 1120.46,-125.41"/>
<polygon fill="#9a32cd" stroke="#9a32cd" points="864.29,-118.2 854.24,-121.55 864.19,-125.2 864.29,-118.2"/>
</a>
</g>
<text text-anchor="middle" x="931" y="-126" font-family="Helvetica,sans-Serif" font-size="10.00" fill="grey"> out</text>
</g>
<!-- Node27&#45;&gt;Node26 -->
<g id="edge23_Node000026_Node000027" class="edge">
<title>Node27&#45;&gt;Node26</title>
<g id="a_edge23_Node000026_Node000027"><a xlink:title=" ">
<path fill="none" stroke="#63b8ff" d="M493.81,-132.67C574.29,-129.74 710.08,-124.79 775.93,-122.39"/>
<polygon fill="#63b8ff" stroke="#63b8ff" points="493.66,-129.18 483.8,-133.04 493.92,-136.17 493.66,-129.18"/>
</a>
</g>
</g>
<!-- Node28 -->
<g id="Node000028" class="node">
<title>Node28</title>
<g id="a_Node000028"><a xlink:title=" ">
<polygon fill="white" stroke="#666666" points="963.5,-53.5 898.5,-53.5 898.5,-34.5 963.5,-34.5 963.5,-53.5"/>
<text text-anchor="middle" x="931" y="-41.5" font-family="Helvetica,sans-Serif" font-size="10.00">std::string</text>
</a>
</g>
</g>
<!-- Node28&#45;&gt;Node3 -->
<g id="edge25_Node000003_Node000028" class="edge">
<title>Node28&#45;&gt;Node3</title>
<g id="a_edge25_Node000003_Node000028"><a xlink:title=" ">
<path fill="none" stroke="#9a32cd" stroke-dasharray="5,2" d="M973.63,-45.4C1004.57,-47.68 1047.24,-53.47 1082,-68 1109.94,-79.68 1137.22,-103.16 1151.25,-116.38"/>
<polygon fill="#9a32cd" stroke="#9a32cd" points="973.83,-41.91 963.62,-44.76 973.38,-48.9 973.83,-41.91"/>
</a>
</g>
<text text-anchor="middle" x="1042" y="-71" font-family="Helvetica,sans-Serif" font-size="10.00" fill="grey"> filename</text>
</g>
<!-- Node30 -->
<g id="Node000030" class="node">
<title>Node30</title>
<g id="a_Node000030"><a xlink:title=" ">
<polygon fill="white" stroke="#666666" points="1224,-42.5 1100,-42.5 1100,-23.5 1224,-23.5 1224,-42.5"/>
<text text-anchor="middle" x="1162" y="-30.5" font-family="Helvetica,sans-Serif" font-size="10.00">std::list&lt; std::string &gt;</text>
</a>
</g>
</g>
<!-- Node28&#45;&gt;Node30 -->
<g id="edge28_Node000030_Node000028" class="edge">
<title>Node28&#45;&gt;Node30</title>
<g id="a_edge28_Node000030_Node000028"><a xlink:title=" ">
<path fill="none" stroke="#9a32cd" stroke-dasharray="5,2" d="M973.79,-37.09C983.05,-35.82 992.84,-34.68 1002,-34 1034.21,-31.61 1070.19,-31.19 1099.76,-31.45"/>
<polygon fill="#9a32cd" stroke="#9a32cd" points="973.01,-33.66 963.61,-38.56 974.01,-40.59 973.01,-33.66"/>
</a>
</g>
<text text-anchor="middle" x="1042" y="-37" font-family="Helvetica,sans-Serif" font-size="10.00" fill="grey"> elements</text>
</g>
<!-- Node29 -->
<g id="Node000029" class="node">
<title>Node29</title>
<g id="a_Node000029"><a xlink:title=" ">
<polygon fill="white" stroke="#666666" points="735.5,-59 631.5,-59 631.5,-29 735.5,-29 735.5,-59"/>
<text text-anchor="start" x="639.5" y="-47" font-family="Helvetica,sans-Serif" font-size="10.00">std::basic_string&lt;</text>
<text text-anchor="middle" x="683.5" y="-36" font-family="Helvetica,sans-Serif" font-size="10.00"> Char &gt;</text>
</a>
</g>
</g>
<!-- Node29&#45;&gt;Node28 -->
<g id="edge26_Node000028_Node000029" class="edge">
<title>Node29&#45;&gt;Node28</title>
<g id="a_edge26_Node000028_Node000029"><a xlink:title=" ">
<path fill="none" stroke="#63b8ff" d="M745.73,-44C794.2,-44 859.92,-44 898.36,-44"/>
<polygon fill="#63b8ff" stroke="#63b8ff" points="745.67,-40.5 735.67,-44 745.67,-47.5 745.67,-40.5"/>
</a>
</g>
</g>
<!-- Node30&#45;&gt;Node1 -->
<g id="edge27_Node000001_Node000030" class="edge">
<title>Node30&#45;&gt;Node1</title>
<g id="a_edge27_Node000001_Node000030"><a xlink:title=" ">
<path fill="none" stroke="#9a32cd" stroke-dasharray="5,2" d="M1234.49,-36.63C1269.9,-40.75 1312.37,-49.33 1347,-67 1370.56,-79.02 1391.33,-102.85 1401.8,-116.25"/>
<polygon fill="#9a32cd" stroke="#9a32cd" points="1234.54,-33.11 1224.23,-35.53 1233.8,-40.07 1234.54,-33.11"/>
</a>
</g>
<text text-anchor="middle" x="1294.5" y="-114" font-family="Helvetica,sans-Serif" font-size="10.00" fill="grey"> defines</text>
<text text-anchor="middle" x="1294.5" y="-103" font-family="Helvetica,sans-Serif" font-size="10.00" fill="grey">include_files</text>
<text text-anchor="middle" x="1294.5" y="-92" font-family="Helvetica,sans-Serif" font-size="10.00" fill="grey">include_paths</text>
<text text-anchor="middle" x="1294.5" y="-81" font-family="Helvetica,sans-Serif" font-size="10.00" fill="grey">preprocessor_options</text>
<text text-anchor="middle" x="1294.5" y="-70" font-family="Helvetica,sans-Serif" font-size="10.00" fill="grey">undefines</text>
</g>
<!-- Node31&#45;&gt;Node30 -->
<g id="edge29_Node000030_Node000031" class="edge">
<title>Node31&#45;&gt;Node30</title>
<g id="a_edge29_Node000030_Node000031"><a xlink:title=" ">
<path fill="none" stroke="orange" stroke-dasharray="5,2" d="M346.56,-29.99C397.14,-17.57 481.85,0 556,0 556,0 556,0 932,0 998.28,0 1074.25,-13.71 1119.89,-23.46"/>
<polygon fill="orange" stroke="orange" points="345.46,-26.65 336.61,-32.47 347.16,-33.44 345.46,-26.65"/>
</a>
</g>
<text text-anchor="middle" x="683.5" y="-3" font-family="Helvetica,sans-Serif" font-size="10.00" fill="grey"> &lt; std::string &gt;</text>
</g>
</g>
</svg>
