<?xml version="1.0" encoding="UTF-8" standalone="no"?>
<!DOCTYPE svg PUBLIC "-//W3C//DTD SVG 1.1//EN"
 "http://www.w3.org/Graphics/SVG/1.1/DTD/svg11.dtd">
<!-- Generated by graphviz version 2.43.0 (0)
 -->
<!-- Title: statement_list_parse_treet::networkt Pages: 1 -->
<svg width="223pt" height="236pt"
 viewBox="0.00 0.00 222.50 236.00" xmlns="http://www.w3.org/2000/svg" xmlns:xlink="http://www.w3.org/1999/xlink">
<g id="graph0" class="graph" transform="scale(1 1) rotate(0) translate(4 232)">
<title>statement_list_parse_treet::networkt</title>
<!-- Node1 -->
<g id="Node000001" class="node">
<title>Node1</title>
<g id="a_Node000001"><a xlink:title="Representation of a network in Siemens TIA.">
<polygon fill="#999999" stroke="#666666" points="161,-30 42,-30 42,0 161,0 161,-30"/>
<text text-anchor="start" x="50" y="-18" font-family="Helvetica,sans-Serif" font-size="10.00">statement_list_parse</text>
<text text-anchor="middle" x="101.5" y="-7" font-family="Helvetica,sans-Serif" font-size="10.00">_treet::networkt</text>
</a>
</g>
</g>
<!-- Node2 -->
<g id="Node000002" class="node">
<title>Node2</title>
<g id="a_Node000002"><a xlink:title=" ">
<polygon fill="white" stroke="#666666" points="167,-96 36,-96 36,-77 167,-77 167,-96"/>
<text text-anchor="middle" x="101.5" y="-84" font-family="Helvetica,sans-Serif" font-size="10.00">std::list&lt; instructiont &gt;</text>
</a>
</g>
</g>
<!-- Node2&#45;&gt;Node1 -->
<g id="edge1_Node000001_Node000002" class="edge">
<title>Node2&#45;&gt;Node1</title>
<g id="a_edge1_Node000001_Node000002"><a xlink:title=" ">
<path fill="none" stroke="#9a32cd" stroke-dasharray="5,2" d="M101.5,-66.71C101.5,-55.19 101.5,-40.68 101.5,-30.14"/>
<polygon fill="#9a32cd" stroke="#9a32cd" points="98,-66.98 101.5,-76.98 105,-66.98 98,-66.98"/>
</a>
</g>
<text text-anchor="middle" x="132" y="-51" font-family="Helvetica,sans-Serif" font-size="10.00" fill="grey"> instructions</text>
</g>
<!-- Node3 -->
<g id="Node000003" class="node">
<title>Node3</title>
<g id="a_Node000003"><a xlink:title=" ">
<polygon fill="white" stroke="#666666" points="97,-162 0,-162 0,-143 97,-143 97,-162"/>
<text text-anchor="middle" x="48.5" y="-150" font-family="Helvetica,sans-Serif" font-size="10.00">std::vector&lt; T &gt;</text>
</a>
</g>
</g>
<!-- Node3&#45;&gt;Node2 -->
<g id="edge2_Node000002_Node000003" class="edge">
<title>Node3&#45;&gt;Node2</title>
<g id="a_edge2_Node000002_Node000003"><a xlink:title=" ">
<path fill="none" stroke="#9a32cd" stroke-dasharray="5,2" d="M59.82,-134.64C64.46,-128.03 70.03,-120.5 75.5,-114 80.81,-107.69 87.31,-101.06 92.49,-96.02"/>
<polygon fill="#9a32cd" stroke="#9a32cd" points="56.93,-132.66 54.15,-142.88 62.7,-136.63 56.93,-132.66"/>
</a>
</g>
<text text-anchor="middle" x="100" y="-117" font-family="Helvetica,sans-Serif" font-size="10.00" fill="grey"> elements</text>
</g>
<!-- Node4 -->
<g id="Node000004" class="node">
<title>Node4</title>
<g id="a_Node000004"><a xlink:title=" ">
<polygon fill="white" stroke="#666666" points="116,-228 87,-228 87,-209 116,-209 116,-228"/>
<text text-anchor="middle" x="101.5" y="-216" font-family="Helvetica,sans-Serif" font-size="10.00">T</text>
</a>
</g>
</g>
<!-- Node4&#45;&gt;Node3 -->
<g id="edge3_Node000003_Node000004" class="edge">
<title>Node4&#45;&gt;Node3</title>
<g id="a_edge3_Node000003_Node000004"><a xlink:title=" ">
<path fill="none" stroke="#9a32cd" stroke-dasharray="5,2" d="M85.42,-201.89C82.04,-198.4 78.57,-194.65 75.5,-191 67.54,-181.55 59.39,-169.9 54.15,-162.12"/>
<polygon fill="#9a32cd" stroke="#9a32cd" points="82.95,-204.37 92.49,-208.98 87.9,-199.43 82.95,-204.37"/>
</a>
</g>
<text text-anchor="middle" x="100" y="-183" font-family="Helvetica,sans-Serif" font-size="10.00" fill="grey"> elements</text>
</g>
<!-- Node5 -->
<g id="Node000005" class="node">
<title>Node5</title>
<g id="a_Node000005"><a xlink:title=" ">
<polygon fill="white" stroke="#666666" points="196,-162 115,-162 115,-143 196,-143 196,-162"/>
<text text-anchor="middle" x="155.5" y="-150" font-family="Helvetica,sans-Serif" font-size="10.00">std::list&lt; T &gt;</text>
</a>
</g>
</g>
<!-- Node4&#45;&gt;Node5 -->
<g id="edge5_Node000005_Node000004" class="edge">
<title>Node4&#45;&gt;Node5</title>
<g id="a_edge5_Node000005_Node000004"><a xlink:title=" ">
<path fill="none" stroke="#9a32cd" stroke-dasharray="5,2" d="M115.92,-201.01C118.78,-197.71 121.74,-194.25 124.5,-191 132.8,-181.2 142.17,-169.82 148.42,-162.19"/>
<polygon fill="#9a32cd" stroke="#9a32cd" points="113.14,-198.87 109.22,-208.71 118.42,-203.46 113.14,-198.87"/>
</a>
</g>
<text text-anchor="middle" x="157" y="-183" font-family="Helvetica,sans-Serif" font-size="10.00" fill="grey"> elements</text>
</g>
<!-- Node5&#45;&gt;Node2 -->
<g id="edge4_Node000002_Node000005" class="edge">
<title>Node5&#45;&gt;Node2</title>
<g id="a_edge4_Node000002_Node000005"><a xlink:title=" ">
<path fill="none" stroke="orange" stroke-dasharray="5,2" d="M141.77,-134.72C136.42,-128.22 130.21,-120.74 124.5,-114 119.46,-108.05 113.71,-101.43 109.22,-96.29"/>
<polygon fill="orange" stroke="orange" points="139.37,-137.3 148.42,-142.81 144.78,-132.86 139.37,-137.3"/>
</a>
</g>
<text text-anchor="middle" x="173.5" y="-117" font-family="Helvetica,sans-Serif" font-size="10.00" fill="grey"> &lt; instructiont &gt;</text>
</g>
</g>
</svg>
