<?xml version="1.0" encoding="UTF-8" standalone="no"?>
<!DOCTYPE svg PUBLIC "-//W3C//DTD SVG 1.1//EN"
 "http://www.w3.org/Graphics/SVG/1.1/DTD/svg11.dtd">
<!-- Generated by graphviz version 2.43.0 (0)
 -->
<!-- Title: bv_refinementt::infot Pages: 1 -->
<svg width="1477pt" height="470pt"
 viewBox="0.00 0.00 1477.00 470.00" xmlns="http://www.w3.org/2000/svg" xmlns:xlink="http://www.w3.org/1999/xlink">
<g id="graph0" class="graph" transform="scale(1 1) rotate(0) translate(4 466)">
<title>bv_refinementt::infot</title>
<!-- Node1 -->
<g id="Node000001" class="node">
<title>Node1</title>
<g id="a_Node000001"><a xlink:title=" ">
<polygon fill="#999999" stroke="#666666" points="1469,-356 1350,-356 1350,-337 1469,-337 1469,-356"/>
<text text-anchor="middle" x="1409.5" y="-344" font-family="Helvetica,sans-Serif" font-size="10.00">bv_refinementt::infot</text>
</a>
</g>
</g>
<!-- Node2 -->
<g id="Node000002" class="node">
<title>Node2</title>
<g id="a_Node000002"><a xlink:href="structbv__refinementt_1_1configt.html" target="_top" xlink:title=" ">
<polygon fill="white" stroke="#666666" points="1289,-408 1159,-408 1159,-389 1289,-389 1289,-408"/>
<text text-anchor="middle" x="1224" y="-396" font-family="Helvetica,sans-Serif" font-size="10.00">bv_refinementt::configt</text>
</a>
</g>
</g>
<!-- Node2&#45;&gt;Node1 -->
<g id="edge1_Node000001_Node000002" class="edge">
<title>Node2&#45;&gt;Node1</title>
<g id="a_edge1_Node000001_Node000002"><a xlink:title=" ">
<path fill="none" stroke="#63b8ff" d="M1280.92,-386.65C1297.46,-382.82 1315.55,-378.31 1332,-373.5 1349.44,-368.4 1368.73,-361.59 1383.57,-356.08"/>
<polygon fill="#63b8ff" stroke="#63b8ff" points="1279.82,-383.32 1270.85,-388.95 1281.37,-390.14 1279.82,-383.32"/>
</a>
</g>
</g>
<!-- Node3 -->
<g id="Node000003" class="node">
<title>Node3</title>
<g id="a_Node000003"><a xlink:href="classnamespacet.html" target="_top" xlink:title="A namespacet is essentially one or two symbol tables bound together, to allow for symbol lookups in t...">
<polygon fill="white" stroke="#666666" points="1018.5,-376 941.5,-376 941.5,-357 1018.5,-357 1018.5,-376"/>
<text text-anchor="middle" x="980" y="-364" font-family="Helvetica,sans-Serif" font-size="10.00">namespacet</text>
</a>
</g>
</g>
<!-- Node3&#45;&gt;Node1 -->
<g id="edge2_Node000001_Node000003" class="edge">
<title>Node3&#45;&gt;Node1</title>
<g id="a_edge2_Node000001_Node000003"><a xlink:title=" ">
<path fill="none" stroke="#9a32cd" stroke-dasharray="5,2" d="M1028.68,-364.27C1107.36,-360.59 1264.19,-353.25 1349.65,-349.25"/>
<polygon fill="#9a32cd" stroke="#9a32cd" points="1028.39,-360.78 1018.56,-364.74 1028.72,-367.77 1028.39,-360.78"/>
</a>
</g>
<text text-anchor="middle" x="1224" y="-360.5" font-family="Helvetica,sans-Serif" font-size="10.00" fill="grey"> ns</text>
</g>
<!-- Node4 -->
<g id="Node000004" class="node">
<title>Node4</title>
<g id="a_Node000004"><a xlink:href="classnamespace__baset.html" target="_top" xlink:title="Basic interface for a namespace.">
<polygon fill="white" stroke="#666666" points="785,-376 680,-376 680,-357 785,-357 785,-376"/>
<text text-anchor="middle" x="732.5" y="-364" font-family="Helvetica,sans-Serif" font-size="10.00">namespace_baset</text>
</a>
</g>
</g>
<!-- Node4&#45;&gt;Node3 -->
<g id="edge3_Node000003_Node000004" class="edge">
<title>Node4&#45;&gt;Node3</title>
<g id="a_edge3_Node000003_Node000004"><a xlink:title=" ">
<path fill="none" stroke="#63b8ff" d="M795.41,-366.5C841.35,-366.5 902.5,-366.5 941.32,-366.5"/>
<polygon fill="#63b8ff" stroke="#63b8ff" points="795.26,-363 785.26,-366.5 795.26,-370 795.26,-363"/>
</a>
</g>
</g>
<!-- Node5 -->
<g id="Node000005" class="node">
<title>Node5</title>
<g id="a_Node000005"><a xlink:href="classsymbol__table__baset.html" target="_top" xlink:title="The symbol table base class interface.">
<polygon fill="white" stroke="#666666" points="790,-413 675,-413 675,-394 790,-394 790,-413"/>
<text text-anchor="middle" x="732.5" y="-401" font-family="Helvetica,sans-Serif" font-size="10.00">symbol_table_baset</text>
</a>
</g>
</g>
<!-- Node5&#45;&gt;Node3 -->
<g id="edge4_Node000003_Node000005" class="edge">
<title>Node5&#45;&gt;Node3</title>
<g id="a_edge4_Node000003_Node000005"><a xlink:title=" ">
<path fill="none" stroke="#9a32cd" stroke-dasharray="5,2" d="M800.06,-395.16C832.91,-390.85 873.09,-385.29 909,-379.5 919.49,-377.81 930.84,-375.79 941.28,-373.85"/>
<polygon fill="#9a32cd" stroke="#9a32cd" points="799.58,-391.69 790.11,-396.45 800.48,-398.63 799.58,-391.69"/>
</a>
</g>
<text text-anchor="middle" x="864" y="-405.5" font-family="Helvetica,sans-Serif" font-size="10.00" fill="grey"> symbol_table1</text>
<text text-anchor="middle" x="864" y="-394.5" font-family="Helvetica,sans-Serif" font-size="10.00" fill="grey">symbol_table2</text>
</g>
<!-- Node6 -->
<g id="Node000006" class="node">
<title>Node6</title>
<g id="a_Node000006"><a xlink:title=" ">
<polygon fill="white" stroke="#666666" points="234,-383.5 120,-383.5 120,-353.5 234,-353.5 234,-383.5"/>
<text text-anchor="start" x="128" y="-371.5" font-family="Helvetica,sans-Serif" font-size="10.00">std::unordered_map</text>
<text text-anchor="middle" x="177" y="-360.5" font-family="Helvetica,sans-Serif" font-size="10.00">&lt; K, T &gt;</text>
</a>
</g>
</g>
<!-- Node6&#45;&gt;Node5 -->
<g id="edge5_Node000005_Node000006" class="edge">
<title>Node6&#45;&gt;Node5</title>
<g id="a_edge5_Node000005_Node000006"><a xlink:title=" ">
<path fill="none" stroke="#9a32cd" stroke-dasharray="5,2" d="M244.42,-368.67C313.77,-369.25 425.65,-371.37 522,-378.5 573.87,-382.34 632.66,-389.61 674.73,-395.33"/>
<polygon fill="#9a32cd" stroke="#9a32cd" points="244.11,-365.16 234.09,-368.59 244.06,-372.16 244.11,-365.16"/>
</a>
</g>
<text text-anchor="middle" x="452" y="-381.5" font-family="Helvetica,sans-Serif" font-size="10.00" fill="grey"> symbols</text>
</g>
<!-- Node7 -->
<g id="Node000007" class="node">
<title>Node7</title>
<g id="a_Node000007"><a xlink:title=" ">
<polygon fill="white" stroke="#666666" points="29,-445 0,-445 0,-426 29,-426 29,-445"/>
<text text-anchor="middle" x="14.5" y="-433" font-family="Helvetica,sans-Serif" font-size="10.00">K</text>
</a>
</g>
</g>
<!-- Node7&#45;&gt;Node6 -->
<g id="edge6_Node000006_Node000007" class="edge">
<title>Node7&#45;&gt;Node6</title>
<g id="a_edge6_Node000006_Node000007"><a xlink:title=" ">
<path fill="none" stroke="#9a32cd" stroke-dasharray="5,2" d="M38.37,-425.6C58.3,-417 88,-404.28 114,-393.5 121.83,-390.25 130.23,-386.83 138.25,-383.58"/>
<polygon fill="#9a32cd" stroke="#9a32cd" points="36.96,-422.39 29.17,-429.57 39.74,-428.82 36.96,-422.39"/>
</a>
</g>
<text text-anchor="middle" x="71.5" y="-423.5" font-family="Helvetica,sans-Serif" font-size="10.00" fill="grey"> keys</text>
</g>
<!-- Node11 -->
<g id="Node000011" class="node">
<title>Node11</title>
<g id="a_Node000011"><a xlink:title=" ">
<polygon fill="white" stroke="#666666" points="240,-462 114,-462 114,-443 240,-443 240,-462"/>
<text text-anchor="middle" x="177" y="-450" font-family="Helvetica,sans-Serif" font-size="10.00">std::multimap&lt; K, T &gt;</text>
</a>
</g>
</g>
<!-- Node7&#45;&gt;Node11 -->
<g id="edge11_Node000011_Node000007" class="edge">
<title>Node7&#45;&gt;Node11</title>
<g id="a_edge11_Node000011_Node000007"><a xlink:title=" ">
<path fill="none" stroke="#9a32cd" stroke-dasharray="5,2" d="M39.34,-438.02C58.97,-440.1 87.71,-443.15 113.77,-445.91"/>
<polygon fill="#9a32cd" stroke="#9a32cd" points="39.5,-434.52 29.18,-436.95 38.76,-441.48 39.5,-434.52"/>
</a>
</g>
<text text-anchor="middle" x="71.5" y="-446.5" font-family="Helvetica,sans-Serif" font-size="10.00" fill="grey"> keys</text>
</g>
<!-- Node8 -->
<g id="Node000008" class="node">
<title>Node8</title>
<g id="a_Node000008"><a xlink:title=" ">
<polygon fill="white" stroke="#666666" points="29,-360 0,-360 0,-341 29,-341 29,-360"/>
<text text-anchor="middle" x="14.5" y="-348" font-family="Helvetica,sans-Serif" font-size="10.00">T</text>
</a>
</g>
</g>
<!-- Node8&#45;&gt;Node6 -->
<g id="edge7_Node000006_Node000008" class="edge">
<title>Node8&#45;&gt;Node6</title>
<g id="a_edge7_Node000006_Node000008"><a xlink:title=" ">
<path fill="none" stroke="#9a32cd" stroke-dasharray="5,2" d="M39.35,-349.57C55.41,-349.24 77.04,-349.39 96,-351.5 103.76,-352.36 111.88,-353.64 119.85,-355.12"/>
<polygon fill="#9a32cd" stroke="#9a32cd" points="39.12,-346.07 29.22,-349.85 39.32,-353.07 39.12,-346.07"/>
</a>
</g>
<text text-anchor="middle" x="71.5" y="-354.5" font-family="Helvetica,sans-Serif" font-size="10.00" fill="grey"> elements</text>
</g>
<!-- Node8&#45;&gt;Node11 -->
<g id="edge12_Node000011_Node000008" class="edge">
<title>Node8&#45;&gt;Node11</title>
<g id="a_edge12_Node000011_Node000008"><a xlink:title=" ">
<path fill="none" stroke="#9a32cd" stroke-dasharray="5,2" d="M38.64,-359.52C60.88,-368.34 91.72,-381.09 96,-385.5 111,-400.96 98.47,-415.57 114,-430.5 119.52,-435.8 126.39,-439.84 133.54,-442.9"/>
<polygon fill="#9a32cd" stroke="#9a32cd" points="39.74,-356.19 29.16,-355.78 37.18,-362.7 39.74,-356.19"/>
</a>
</g>
<text text-anchor="middle" x="71.5" y="-388.5" font-family="Helvetica,sans-Serif" font-size="10.00" fill="grey"> elements</text>
</g>
<!-- Node15 -->
<g id="Node000015" class="node">
<title>Node15</title>
<g id="a_Node000015"><a xlink:title=" ">
<polygon fill="white" stroke="#666666" points="225.5,-297 128.5,-297 128.5,-278 225.5,-278 225.5,-297"/>
<text text-anchor="middle" x="177" y="-285" font-family="Helvetica,sans-Serif" font-size="10.00">std::vector&lt; T &gt;</text>
</a>
</g>
</g>
<!-- Node8&#45;&gt;Node15 -->
<g id="edge17_Node000015_Node000008" class="edge">
<title>Node8&#45;&gt;Node15</title>
<g id="a_edge17_Node000015_Node000008"><a xlink:title=" ">
<path fill="none" stroke="#9a32cd" stroke-dasharray="5,2" d="M38.24,-338.74C41.18,-337.28 44.15,-335.84 47,-334.5 76.37,-320.7 83.47,-316.49 114,-305.5 122.44,-302.46 131.66,-299.57 140.34,-297.02"/>
<polygon fill="#9a32cd" stroke="#9a32cd" points="36.56,-335.67 29.21,-343.31 39.71,-341.92 36.56,-335.67"/>
</a>
</g>
<text text-anchor="middle" x="71.5" y="-337.5" font-family="Helvetica,sans-Serif" font-size="10.00" fill="grey"> elements</text>
</g>
<!-- Node9 -->
<g id="Node000009" class="node">
<title>Node9</title>
<g id="a_Node000009"><a xlink:title=" ">
<polygon fill="white" stroke="#666666" points="509.5,-428.5 394.5,-428.5 394.5,-398.5 509.5,-398.5 509.5,-428.5"/>
<text text-anchor="start" x="402.5" y="-416.5" font-family="Helvetica,sans-Serif" font-size="10.00">std::multimap&lt; irep</text>
<text text-anchor="middle" x="452" y="-405.5" font-family="Helvetica,sans-Serif" font-size="10.00">_idt, irep_idt &gt;</text>
</a>
</g>
</g>
<!-- Node9&#45;&gt;Node5 -->
<g id="edge8_Node000005_Node000009" class="edge">
<title>Node9&#45;&gt;Node5</title>
<g id="a_edge8_Node000005_Node000009"><a xlink:title=" ">
<path fill="none" stroke="#9a32cd" stroke-dasharray="5,2" d="M519.85,-411.1C567.2,-409.4 630.01,-407.14 674.89,-405.53"/>
<polygon fill="#9a32cd" stroke="#9a32cd" points="519.56,-407.61 509.69,-411.46 519.81,-414.6 519.56,-407.61"/>
</a>
</g>
<text text-anchor="middle" x="593" y="-423.5" font-family="Helvetica,sans-Serif" font-size="10.00" fill="grey"> symbol_base_map</text>
<text text-anchor="middle" x="593" y="-412.5" font-family="Helvetica,sans-Serif" font-size="10.00" fill="grey">symbol_module_map</text>
</g>
<!-- Node10 -->
<g id="Node000010" class="node">
<title>Node10</title>
<g id="a_Node000010"><a xlink:href="classdstringt.html" target="_top" xlink:title="dstringt has one field, an unsigned integer no which is an index into a static table of strings.">
<polygon fill="white" stroke="#666666" points="204,-421 150,-421 150,-402 204,-402 204,-421"/>
<text text-anchor="middle" x="177" y="-409" font-family="Helvetica,sans-Serif" font-size="10.00">dstringt</text>
</a>
</g>
</g>
<!-- Node10&#45;&gt;Node9 -->
<g id="edge9_Node000009_Node000010" class="edge">
<title>Node10&#45;&gt;Node9</title>
<g id="a_edge9_Node000009_Node000010"><a xlink:title=" ">
<path fill="none" stroke="#9a32cd" stroke-dasharray="5,2" d="M214.6,-411.63C252.11,-411.78 312.13,-412.06 364,-412.5 373.82,-412.58 384.26,-412.69 394.37,-412.8"/>
<polygon fill="#9a32cd" stroke="#9a32cd" points="214.2,-408.13 204.18,-411.59 214.17,-415.13 214.2,-408.13"/>
</a>
</g>
<text text-anchor="middle" x="311" y="-426.5" font-family="Helvetica,sans-Serif" font-size="10.00" fill="grey"> elements</text>
<text text-anchor="middle" x="311" y="-415.5" font-family="Helvetica,sans-Serif" font-size="10.00" fill="grey">keys</text>
</g>
<!-- Node11&#45;&gt;Node9 -->
<g id="edge10_Node000009_Node000011" class="edge">
<title>Node11&#45;&gt;Node9</title>
<g id="a_edge10_Node000009_Node000011"><a xlink:title=" ">
<path fill="none" stroke="orange" stroke-dasharray="5,2" d="M250.3,-447.88C284.86,-445.06 326.73,-440.77 364,-434.5 373.81,-432.85 384.15,-430.71 394.14,-428.43"/>
<polygon fill="orange" stroke="orange" points="249.98,-444.39 240.29,-448.67 250.53,-451.37 249.98,-444.39"/>
</a>
</g>
<text text-anchor="middle" x="311" y="-449.5" font-family="Helvetica,sans-Serif" font-size="10.00" fill="grey"> &lt; irep_idt, irep_idt &gt;</text>
</g>
<!-- Node12 -->
<g id="Node000012" class="node">
<title>Node12</title>
<g id="a_Node000012"><a xlink:href="classpropt.html" target="_top" xlink:title="TO_BE_DOCUMENTED.">
<polygon fill="white" stroke="#666666" points="1245,-323 1203,-323 1203,-304 1245,-304 1245,-323"/>
<text text-anchor="middle" x="1224" y="-311" font-family="Helvetica,sans-Serif" font-size="10.00">propt</text>
</a>
</g>
</g>
<!-- Node12&#45;&gt;Node1 -->
<g id="edge13_Node000001_Node000012" class="edge">
<title>Node12&#45;&gt;Node1</title>
<g id="a_edge13_Node000001_Node000012"><a xlink:title=" ">
<path fill="none" stroke="#9a32cd" stroke-dasharray="5,2" d="M1255.42,-318.97C1282.64,-323.87 1323.12,-331.15 1355.63,-336.99"/>
<polygon fill="#9a32cd" stroke="#9a32cd" points="1255.8,-315.48 1245.34,-317.16 1254.56,-322.37 1255.8,-315.48"/>
</a>
</g>
<text text-anchor="middle" x="1319.5" y="-335.5" font-family="Helvetica,sans-Serif" font-size="10.00" fill="grey"> prop</text>
</g>
<!-- Node13 -->
<g id="Node000013" class="node">
<title>Node13</title>
<g id="a_Node000013"><a xlink:title=" ">
<polygon fill="white" stroke="#666666" points="513.5,-333 390.5,-333 390.5,-314 513.5,-314 513.5,-333"/>
<text text-anchor="middle" x="452" y="-321" font-family="Helvetica,sans-Serif" font-size="10.00">std::vector&lt; literalt &gt;</text>
</a>
</g>
</g>
<!-- Node13&#45;&gt;Node12 -->
<g id="edge14_Node000012_Node000013" class="edge">
<title>Node13&#45;&gt;Node12</title>
<g id="a_edge14_Node000012_Node000013"><a xlink:title=" ">
<path fill="none" stroke="#9a32cd" stroke-dasharray="5,2" d="M523.95,-322.58C691.75,-320.4 1106.15,-315.02 1202.68,-313.76"/>
<polygon fill="#9a32cd" stroke="#9a32cd" points="523.7,-319.08 513.74,-322.71 523.79,-326.08 523.7,-319.08"/>
</a>
</g>
<text text-anchor="middle" x="864" y="-322.5" font-family="Helvetica,sans-Serif" font-size="10.00" fill="grey"> lcnf_bv</text>
</g>
<!-- Node14 -->
<g id="Node000014" class="node">
<title>Node14</title>
<g id="a_Node000014"><a xlink:href="classliteralt.html" target="_top" xlink:title=" ">
<polygon fill="white" stroke="#666666" points="201.5,-334 152.5,-334 152.5,-315 201.5,-315 201.5,-334"/>
<text text-anchor="middle" x="177" y="-322" font-family="Helvetica,sans-Serif" font-size="10.00">literalt</text>
</a>
</g>
</g>
<!-- Node14&#45;&gt;Node13 -->
<g id="edge15_Node000013_Node000014" class="edge">
<title>Node14&#45;&gt;Node13</title>
<g id="a_edge15_Node000013_Node000014"><a xlink:title=" ">
<path fill="none" stroke="#9a32cd" stroke-dasharray="5,2" d="M211.76,-324.38C256.3,-324.21 335.47,-323.92 390.48,-323.72"/>
<polygon fill="#9a32cd" stroke="#9a32cd" points="211.74,-320.88 201.75,-324.41 211.76,-327.88 211.74,-320.88"/>
</a>
</g>
<text text-anchor="middle" x="311" y="-327.5" font-family="Helvetica,sans-Serif" font-size="10.00" fill="grey"> elements</text>
</g>
<!-- Node15&#45;&gt;Node13 -->
<g id="edge16_Node000013_Node000015" class="edge">
<title>Node15&#45;&gt;Node13</title>
<g id="a_edge16_Node000013_Node000015"><a xlink:title=" ">
<path fill="none" stroke="orange" stroke-dasharray="5,2" d="M235.89,-293.72C272.64,-297.82 321.17,-303.52 364,-309.5 373.7,-310.85 383.98,-312.4 393.96,-313.97"/>
<polygon fill="orange" stroke="orange" points="236.18,-290.23 225.86,-292.6 235.41,-297.18 236.18,-290.23"/>
</a>
</g>
<text text-anchor="middle" x="311" y="-312.5" font-family="Helvetica,sans-Serif" font-size="10.00" fill="grey"> &lt; literalt &gt;</text>
</g>
<!-- Node20 -->
<g id="Node000020" class="node">
<title>Node20</title>
<g id="a_Node000020"><a xlink:title=" ">
<polygon fill="white" stroke="#666666" points="522,-81 382,-81 382,-62 522,-62 522,-81"/>
<text text-anchor="middle" x="452" y="-69" font-family="Helvetica,sans-Serif" font-size="10.00">std::vector&lt; std::size_t &gt;</text>
</a>
</g>
</g>
<!-- Node15&#45;&gt;Node20 -->
<g id="edge23_Node000020_Node000015" class="edge">
<title>Node15&#45;&gt;Node20</title>
<g id="a_edge23_Node000020_Node000015"><a xlink:title=" ">
<path fill="none" stroke="orange" stroke-dasharray="5,2" d="M191.16,-269.79C220.8,-231.2 296.87,-139.05 382,-90.5 388.8,-86.62 396.43,-83.5 404.07,-81"/>
<polygon fill="orange" stroke="orange" points="188.2,-267.91 184.95,-277.99 193.77,-272.14 188.2,-267.91"/>
</a>
</g>
<text text-anchor="middle" x="311" y="-190.5" font-family="Helvetica,sans-Serif" font-size="10.00" fill="grey"> &lt; std::size_t &gt;</text>
</g>
<!-- Node16 -->
<g id="Node000016" class="node">
<title>Node16</title>
<g id="a_Node000016"><a xlink:href="classmessaget.html" target="_top" xlink:title="Class that provides messages with a built&#45;in verbosity &#39;level&#39;.">
<polygon fill="white" stroke="#666666" points="1012.5,-165 947.5,-165 947.5,-146 1012.5,-146 1012.5,-165"/>
<text text-anchor="middle" x="980" y="-153" font-family="Helvetica,sans-Serif" font-size="10.00">messaget</text>
</a>
</g>
</g>
<!-- Node16&#45;&gt;Node12 -->
<g id="edge18_Node000012_Node000016" class="edge">
<title>Node16&#45;&gt;Node12</title>
<g id="a_edge18_Node000012_Node000016"><a xlink:title=" ">
<path fill="none" stroke="#9a32cd" stroke-dasharray="5,2" d="M1004.21,-170.65C1053.59,-202.9 1167.88,-277.52 1208.42,-303.98"/>
<polygon fill="#9a32cd" stroke="#9a32cd" points="1006.06,-167.68 995.77,-165.15 1002.23,-173.54 1006.06,-167.68"/>
</a>
</g>
<text text-anchor="middle" x="1096" y="-261.5" font-family="Helvetica,sans-Serif" font-size="10.00" fill="grey"> log</text>
</g>
<!-- Node21 -->
<g id="Node000021" class="node">
<title>Node21</title>
<g id="a_Node000021"><a xlink:href="classmessaget_1_1mstreamt.html" target="_top" xlink:title=" ">
<polygon fill="white" stroke="#666666" points="1283.5,-124 1164.5,-124 1164.5,-105 1283.5,-105 1283.5,-124"/>
<text text-anchor="middle" x="1224" y="-112" font-family="Helvetica,sans-Serif" font-size="10.00">messaget::mstreamt</text>
</a>
</g>
</g>
<!-- Node16&#45;&gt;Node21 -->
<g id="edge28_Node000021_Node000016" class="edge">
<title>Node16&#45;&gt;Node21</title>
<g id="a_edge28_Node000021_Node000016"><a xlink:title=" ">
<path fill="none" stroke="#9a32cd" stroke-dasharray="5,2" d="M1022.66,-154.93C1055.18,-153.82 1101.36,-150.74 1141,-142.5 1161.47,-138.24 1183.89,-130.35 1200.1,-124.03"/>
<polygon fill="#9a32cd" stroke="#9a32cd" points="1022.49,-151.44 1012.6,-155.23 1022.7,-158.43 1022.49,-151.44"/>
</a>
</g>
<text text-anchor="middle" x="1096" y="-156.5" font-family="Helvetica,sans-Serif" font-size="10.00" fill="grey"> message</text>
</g>
<!-- Node17 -->
<g id="Node000017" class="node">
<title>Node17</title>
<g id="a_Node000017"><a xlink:href="classmessaget_1_1eomt.html" target="_top" xlink:title=" ">
<polygon fill="white" stroke="#666666" points="780.5,-300 684.5,-300 684.5,-281 780.5,-281 780.5,-300"/>
<text text-anchor="middle" x="732.5" y="-288" font-family="Helvetica,sans-Serif" font-size="10.00">messaget::eomt</text>
</a>
</g>
</g>
<!-- Node17&#45;&gt;Node16 -->
<g id="edge19_Node000016_Node000017" class="edge">
<title>Node17&#45;&gt;Node16</title>
<g id="a_edge19_Node000016_Node000017"><a xlink:title=" ">
<path fill="none" stroke="#9a32cd" stroke-dasharray="5,2" d="M790.94,-290.08C834.46,-288.77 889.92,-284.64 909,-272.5 949.53,-246.69 969.8,-188.25 976.45,-165.15"/>
<polygon fill="#9a32cd" stroke="#9a32cd" points="790.63,-286.59 780.73,-290.35 790.82,-293.59 790.63,-286.59"/>
</a>
</g>
<text text-anchor="middle" x="864" y="-292.5" font-family="Helvetica,sans-Serif" font-size="10.00" fill="grey"> eom</text>
</g>
<!-- Node18 -->
<g id="Node000018" class="node">
<title>Node18</title>
<g id="a_Node000018"><a xlink:href="classmessaget_1_1commandt.html" target="_top" xlink:title=" ">
<polygon fill="white" stroke="#666666" points="794,-167 671,-167 671,-148 794,-148 794,-167"/>
<text text-anchor="middle" x="732.5" y="-155" font-family="Helvetica,sans-Serif" font-size="10.00">messaget::commandt</text>
</a>
</g>
</g>
<!-- Node18&#45;&gt;Node16 -->
<g id="edge20_Node000016_Node000018" class="edge">
<title>Node18&#45;&gt;Node16</title>
<g id="a_edge20_Node000016_Node000018"><a xlink:title=" ">
<path fill="none" stroke="#9a32cd" stroke-dasharray="5,2" d="M804.37,-152.14C809.32,-151.89 814.23,-151.67 819,-151.5 858.98,-150.1 869.02,-150.36 909,-151.5 921.53,-151.86 935.31,-152.58 947.31,-153.3"/>
<polygon fill="#9a32cd" stroke="#9a32cd" points="803.98,-148.66 794.19,-152.71 804.37,-155.65 803.98,-148.66"/>
</a>
</g>
<text text-anchor="middle" x="864" y="-264.5" font-family="Helvetica,sans-Serif" font-size="10.00" fill="grey"> blue</text>
<text text-anchor="middle" x="864" y="-253.5" font-family="Helvetica,sans-Serif" font-size="10.00" fill="grey">bold</text>
<text text-anchor="middle" x="864" y="-242.5" font-family="Helvetica,sans-Serif" font-size="10.00" fill="grey">bright_blue</text>
<text text-anchor="middle" x="864" y="-231.5" font-family="Helvetica,sans-Serif" font-size="10.00" fill="grey">bright_cyan</text>
<text text-anchor="middle" x="864" y="-220.5" font-family="Helvetica,sans-Serif" font-size="10.00" fill="grey">bright_green</text>
<text text-anchor="middle" x="864" y="-209.5" font-family="Helvetica,sans-Serif" font-size="10.00" fill="grey">bright_magenta</text>
<text text-anchor="middle" x="864" y="-198.5" font-family="Helvetica,sans-Serif" font-size="10.00" fill="grey">bright_red</text>
<text text-anchor="middle" x="864" y="-187.5" font-family="Helvetica,sans-Serif" font-size="10.00" fill="grey">bright_yellow</text>
<text text-anchor="middle" x="864" y="-176.5" font-family="Helvetica,sans-Serif" font-size="10.00" fill="grey">cyan</text>
<text text-anchor="middle" x="864" y="-165.5" font-family="Helvetica,sans-Serif" font-size="10.00" fill="grey">faint</text>
<text text-anchor="middle" x="864" y="-154.5" font-family="Helvetica,sans-Serif" font-size="10.00" fill="grey">...</text>
</g>
<!-- Node19 -->
<g id="Node000019" class="node">
<title>Node19</title>
<g id="a_Node000019"><a xlink:href="classmessage__handlert.html" target="_top" xlink:title=" ">
<polygon fill="white" stroke="#666666" points="786,-81 679,-81 679,-62 786,-62 786,-81"/>
<text text-anchor="middle" x="732.5" y="-69" font-family="Helvetica,sans-Serif" font-size="10.00">message_handlert</text>
</a>
</g>
</g>
<!-- Node19&#45;&gt;Node1 -->
<g id="edge32_Node000001_Node000019" class="edge">
<title>Node19&#45;&gt;Node1</title>
<g id="a_edge32_Node000001_Node000019"><a xlink:title=" ">
<path fill="none" stroke="#9a32cd" stroke-dasharray="5,2" d="M796.42,-66.33C924.45,-57.05 1209.85,-43.1 1289,-95.5 1377.73,-154.25 1402.27,-298.01 1407.36,-336.75"/>
<polygon fill="#9a32cd" stroke="#9a32cd" points="796.09,-62.84 786.37,-67.07 796.6,-69.82 796.09,-62.84"/>
</a>
</g>
<text text-anchor="middle" x="1096" y="-64.5" font-family="Helvetica,sans-Serif" font-size="10.00" fill="grey"> message_handler</text>
</g>
<!-- Node19&#45;&gt;Node16 -->
<g id="edge21_Node000016_Node000019" class="edge">
<title>Node19&#45;&gt;Node16</title>
<g id="a_edge21_Node000016_Node000019"><a xlink:title=" ">
<path fill="none" stroke="#9a32cd" stroke-dasharray="5,2" d="M779.21,-83.86C786.52,-85.98 793.99,-88.24 801,-90.5 856.57,-108.44 920.65,-132.75 954.73,-145.97"/>
<polygon fill="#9a32cd" stroke="#9a32cd" points="779.96,-80.43 769.38,-81.06 778.04,-87.17 779.96,-80.43"/>
</a>
</g>
<text text-anchor="middle" x="864" y="-131.5" font-family="Helvetica,sans-Serif" font-size="10.00" fill="grey"> message_handler</text>
</g>
<!-- Node20&#45;&gt;Node19 -->
<g id="edge22_Node000019_Node000020" class="edge">
<title>Node20&#45;&gt;Node19</title>
<g id="a_edge22_Node000019_Node000020"><a xlink:title=" ">
<path fill="none" stroke="#9a32cd" stroke-dasharray="5,2" d="M532.35,-71.5C579.32,-71.5 637.54,-71.5 678.87,-71.5"/>
<polygon fill="#9a32cd" stroke="#9a32cd" points="532.2,-68 522.2,-71.5 532.2,-75 532.2,-68"/>
</a>
</g>
<text text-anchor="middle" x="593" y="-74.5" font-family="Helvetica,sans-Serif" font-size="10.00" fill="grey"> message_count</text>
</g>
<!-- Node21&#45;&gt;Node16 -->
<g id="edge24_Node000016_Node000021" class="edge">
<title>Node21&#45;&gt;Node16</title>
<g id="a_edge24_Node000016_Node000021"><a xlink:title=" ">
<path fill="none" stroke="#9a32cd" stroke-dasharray="5,2" d="M1154.3,-117.63C1122.58,-120.01 1084.6,-124.18 1051,-131.5 1035.18,-134.94 1017.98,-140.81 1004.58,-145.88"/>
<polygon fill="#9a32cd" stroke="#9a32cd" points="1154.63,-121.12 1164.36,-116.92 1154.14,-114.14 1154.63,-121.12"/>
</a>
</g>
<text text-anchor="middle" x="1096" y="-134.5" font-family="Helvetica,sans-Serif" font-size="10.00" fill="grey"> mstream</text>
</g>
<!-- Node22 -->
<g id="Node000022" class="node">
<title>Node22</title>
<g id="a_Node000022"><a xlink:title=" ">
<polygon fill="white" stroke="#666666" points="1033,-121 927,-121 927,-102 1033,-102 1033,-121"/>
<text text-anchor="middle" x="980" y="-109" font-family="Helvetica,sans-Serif" font-size="10.00">std::ostringstream</text>
</a>
</g>
</g>
<!-- Node22&#45;&gt;Node21 -->
<g id="edge25_Node000021_Node000022" class="edge">
<title>Node22&#45;&gt;Node21</title>
<g id="a_edge25_Node000021_Node000022"><a xlink:title=" ">
<path fill="none" stroke="#63b8ff" d="M1043.43,-110.97C1073.01,-110.86 1108.83,-110.91 1141,-111.5 1148.55,-111.64 1156.49,-111.85 1164.33,-112.09"/>
<polygon fill="#63b8ff" stroke="#63b8ff" points="1043.23,-107.47 1033.25,-111.02 1043.26,-114.47 1043.23,-107.47"/>
</a>
</g>
</g>
<!-- Node23 -->
<g id="Node000023" class="node">
<title>Node23</title>
<g id="a_Node000023"><a xlink:title=" ">
<polygon fill="white" stroke="#666666" points="801,-129.5 664,-129.5 664,-99.5 801,-99.5 801,-129.5"/>
<text text-anchor="start" x="672" y="-117.5" font-family="Helvetica,sans-Serif" font-size="10.00">std::basic_ostringstream</text>
<text text-anchor="middle" x="732.5" y="-106.5" font-family="Helvetica,sans-Serif" font-size="10.00">&lt; Char &gt;</text>
</a>
</g>
</g>
<!-- Node23&#45;&gt;Node22 -->
<g id="edge26_Node000022_Node000023" class="edge">
<title>Node23&#45;&gt;Node22</title>
<g id="a_edge26_Node000022_Node000023"><a xlink:title=" ">
<path fill="none" stroke="#63b8ff" d="M811.64,-113.55C849.2,-113.09 893.21,-112.55 926.66,-112.14"/>
<polygon fill="#63b8ff" stroke="#63b8ff" points="811.19,-110.05 801.23,-113.67 811.28,-117.05 811.19,-110.05"/>
</a>
</g>
</g>
<!-- Node24 -->
<g id="Node000024" class="node">
<title>Node24</title>
<g id="a_Node000024"><a xlink:title=" ">
<polygon fill="#fff0f0" stroke="red" points="506.5,-129.5 397.5,-129.5 397.5,-99.5 506.5,-99.5 506.5,-129.5"/>
<text text-anchor="start" x="405.5" y="-117.5" font-family="Helvetica,sans-Serif" font-size="10.00">std::basic_ostream</text>
<text text-anchor="middle" x="452" y="-106.5" font-family="Helvetica,sans-Serif" font-size="10.00">&lt; Char &gt;</text>
</a>
</g>
</g>
<!-- Node24&#45;&gt;Node23 -->
<g id="edge27_Node000023_Node000024" class="edge">
<title>Node24&#45;&gt;Node23</title>
<g id="a_edge27_Node000023_Node000024"><a xlink:title=" ">
<path fill="none" stroke="#63b8ff" d="M516.7,-114.5C560.69,-114.5 619.11,-114.5 663.92,-114.5"/>
<polygon fill="#63b8ff" stroke="#63b8ff" points="516.7,-111 506.7,-114.5 516.7,-118 516.7,-111"/>
</a>
</g>
</g>
<!-- Node27 -->
<g id="Node000027" class="node">
<title>Node27</title>
<g id="a_Node000027"><a xlink:href="classsource__locationt.html" target="_top" xlink:title=" ">
<polygon fill="white" stroke="#666666" points="1028.5,-30 931.5,-30 931.5,-11 1028.5,-11 1028.5,-30"/>
<text text-anchor="middle" x="980" y="-18" font-family="Helvetica,sans-Serif" font-size="10.00">source_locationt</text>
</a>
</g>
</g>
<!-- Node27&#45;&gt;Node21 -->
<g id="edge29_Node000021_Node000027" class="edge">
<title>Node27&#45;&gt;Node21</title>
<g id="a_edge29_Node000021_Node000027"><a xlink:title=" ">
<path fill="none" stroke="#9a32cd" stroke-dasharray="5,2" d="M1038.67,-11.76C1070.25,-9.52 1109.3,-11.01 1141,-25.5 1178.45,-42.62 1206.62,-85.7 1217.77,-104.95"/>
<polygon fill="#9a32cd" stroke="#9a32cd" points="1038.36,-8.28 1028.7,-12.61 1038.96,-15.25 1038.36,-8.28"/>
</a>
</g>
<text text-anchor="middle" x="1096" y="-28.5" font-family="Helvetica,sans-Serif" font-size="10.00" fill="grey"> source_location</text>
</g>
<!-- Node28 -->
<g id="Node000028" class="node">
<title>Node28</title>
<g id="a_Node000028"><a xlink:href="classirept.html" target="_top" xlink:title="There are a large number of kinds of tree structured or tree&#45;like data in CPROVER.">
<polygon fill="white" stroke="#666666" points="752,-30 713,-30 713,-11 752,-11 752,-30"/>
<text text-anchor="middle" x="732.5" y="-18" font-family="Helvetica,sans-Serif" font-size="10.00">irept</text>
</a>
</g>
</g>
<!-- Node28&#45;&gt;Node27 -->
<g id="edge30_Node000027_Node000028" class="edge">
<title>Node28&#45;&gt;Node27</title>
<g id="a_edge30_Node000027_Node000028"><a xlink:title=" ">
<path fill="none" stroke="#63b8ff" d="M762.37,-20.5C803.97,-20.5 881.29,-20.5 931.41,-20.5"/>
<polygon fill="#63b8ff" stroke="#63b8ff" points="762.36,-17 752.36,-20.5 762.36,-24 762.36,-17"/>
</a>
</g>
</g>
<!-- Node29 -->
<g id="Node000029" class="node">
<title>Node29</title>
<g id="a_Node000029"><a xlink:href="classsharing__treet.html" target="_top" xlink:title=" ">
<polygon fill="#fff0f0" stroke="red" points="514.5,-41 389.5,-41 389.5,0 514.5,0 514.5,-41"/>
<text text-anchor="start" x="397.5" y="-29" font-family="Helvetica,sans-Serif" font-size="10.00">sharing_treet&lt; irept,</text>
<text text-anchor="start" x="397.5" y="-18" font-family="Helvetica,sans-Serif" font-size="10.00"> forward_list_as_mapt</text>
<text text-anchor="middle" x="452" y="-7" font-family="Helvetica,sans-Serif" font-size="10.00">&lt; irep_idt, irept &gt; &gt;</text>
</a>
</g>
</g>
<!-- Node29&#45;&gt;Node28 -->
<g id="edge31_Node000028_Node000029" class="edge">
<title>Node29&#45;&gt;Node28</title>
<g id="a_edge31_Node000028_Node000029"><a xlink:title=" ">
<path fill="none" stroke="#63b8ff" d="M525.1,-20.5C588.13,-20.5 675.29,-20.5 712.94,-20.5"/>
<polygon fill="#63b8ff" stroke="#63b8ff" points="524.81,-17 514.81,-20.5 524.81,-24 524.81,-17"/>
</a>
</g>
</g>
</g>
</svg>
