<?xml version="1.0" encoding="UTF-8" standalone="no"?>
<!DOCTYPE svg PUBLIC "-//W3C//DTD SVG 1.1//EN"
 "http://www.w3.org/Graphics/SVG/1.1/DTD/svg11.dtd">
<!-- Generated by graphviz version 2.43.0 (0)
 -->
<!-- Title: configt::javat Pages: 1 -->
<svg width="254pt" height="236pt"
 viewBox="0.00 0.00 254.00 236.00" xmlns="http://www.w3.org/2000/svg" xmlns:xlink="http://www.w3.org/1999/xlink">
<g id="graph0" class="graph" transform="scale(1 1) rotate(0) translate(4 232)">
<title>configt::javat</title>
<!-- Node1 -->
<g id="Node000001" class="node">
<title>Node1</title>
<g id="a_Node000001"><a xlink:title=" ">
<polygon fill="#999999" stroke="#666666" points="190,-19 110,-19 110,0 190,0 190,-19"/>
<text text-anchor="middle" x="150" y="-7" font-family="Helvetica,sans-Serif" font-size="10.00">configt::javat</text>
</a>
</g>
</g>
<!-- Node2 -->
<g id="Node000002" class="node">
<title>Node2</title>
<g id="a_Node000002"><a xlink:title=" ">
<polygon fill="white" stroke="#666666" points="159,-85 35,-85 35,-66 159,-66 159,-85"/>
<text text-anchor="middle" x="97" y="-73" font-family="Helvetica,sans-Serif" font-size="10.00">std::list&lt; std::string &gt;</text>
</a>
</g>
</g>
<!-- Node2&#45;&gt;Node1 -->
<g id="edge1_Node000001_Node000002" class="edge">
<title>Node2&#45;&gt;Node1</title>
<g id="a_edge1_Node000001_Node000002"><a xlink:title=" ">
<path fill="none" stroke="#9a32cd" stroke-dasharray="5,2" d="M110.56,-58.12C120.76,-45.81 134.35,-29.39 142.63,-19.41"/>
<polygon fill="#9a32cd" stroke="#9a32cd" points="107.83,-55.93 104.15,-65.87 113.22,-60.4 107.83,-55.93"/>
</a>
</g>
<text text-anchor="middle" x="152" y="-40" font-family="Helvetica,sans-Serif" font-size="10.00" fill="grey"> classpath</text>
</g>
<!-- Node3 -->
<g id="Node000003" class="node">
<title>Node3</title>
<g id="a_Node000003"><a xlink:title=" ">
<polygon fill="white" stroke="#666666" points="84.5,-151 19.5,-151 19.5,-132 84.5,-132 84.5,-151"/>
<text text-anchor="middle" x="52" y="-139" font-family="Helvetica,sans-Serif" font-size="10.00">std::string</text>
</a>
</g>
</g>
<!-- Node3&#45;&gt;Node2 -->
<g id="edge2_Node000002_Node000003" class="edge">
<title>Node3&#45;&gt;Node2</title>
<g id="a_edge2_Node000002_Node000003"><a xlink:title=" ">
<path fill="none" stroke="#9a32cd" stroke-dasharray="5,2" d="M57.43,-122.07C59.79,-115.7 62.96,-108.73 67,-103 71.8,-96.18 78.7,-89.93 84.66,-85.22"/>
<polygon fill="#9a32cd" stroke="#9a32cd" points="53.99,-121.3 54.19,-131.9 60.64,-123.49 53.99,-121.3"/>
</a>
</g>
<text text-anchor="middle" x="91.5" y="-106" font-family="Helvetica,sans-Serif" font-size="10.00" fill="grey"> elements</text>
</g>
<!-- Node4 -->
<g id="Node000004" class="node">
<title>Node4</title>
<g id="a_Node000004"><a xlink:title=" ">
<polygon fill="white" stroke="#666666" points="104,-228 0,-228 0,-198 104,-198 104,-228"/>
<text text-anchor="start" x="8" y="-216" font-family="Helvetica,sans-Serif" font-size="10.00">std::basic_string&lt;</text>
<text text-anchor="middle" x="52" y="-205" font-family="Helvetica,sans-Serif" font-size="10.00"> Char &gt;</text>
</a>
</g>
</g>
<!-- Node4&#45;&gt;Node3 -->
<g id="edge3_Node000003_Node000004" class="edge">
<title>Node4&#45;&gt;Node3</title>
<g id="a_edge3_Node000003_Node000004"><a xlink:title=" ">
<path fill="none" stroke="#63b8ff" d="M52,-187.56C52,-174.95 52,-160.35 52,-151.27"/>
<polygon fill="#63b8ff" stroke="#63b8ff" points="48.5,-187.94 52,-197.94 55.5,-187.94 48.5,-187.94"/>
</a>
</g>
</g>
<!-- Node5 -->
<g id="Node000005" class="node">
<title>Node5</title>
<g id="a_Node000005"><a xlink:title=" ">
<polygon fill="white" stroke="#666666" points="183.5,-151 102.5,-151 102.5,-132 183.5,-132 183.5,-151"/>
<text text-anchor="middle" x="143" y="-139" font-family="Helvetica,sans-Serif" font-size="10.00">std::list&lt; T &gt;</text>
</a>
</g>
</g>
<!-- Node5&#45;&gt;Node2 -->
<g id="edge4_Node000002_Node000005" class="edge">
<title>Node5&#45;&gt;Node2</title>
<g id="a_edge4_Node000002_Node000005"><a xlink:title=" ">
<path fill="none" stroke="orange" stroke-dasharray="5,2" d="M130.72,-123.41C121.92,-111.18 110.44,-95.2 103.4,-85.41"/>
<polygon fill="orange" stroke="orange" points="128.12,-125.79 136.8,-131.87 133.8,-121.71 128.12,-125.79"/>
</a>
</g>
<text text-anchor="middle" x="160.5" y="-106" font-family="Helvetica,sans-Serif" font-size="10.00" fill="grey"> &lt; std::string &gt;</text>
</g>
<!-- Node6 -->
<g id="Node000006" class="node">
<title>Node6</title>
<g id="a_Node000006"><a xlink:title=" ">
<polygon fill="white" stroke="#666666" points="157.5,-222.5 128.5,-222.5 128.5,-203.5 157.5,-203.5 157.5,-222.5"/>
<text text-anchor="middle" x="143" y="-210.5" font-family="Helvetica,sans-Serif" font-size="10.00">T</text>
</a>
</g>
</g>
<!-- Node6&#45;&gt;Node5 -->
<g id="edge5_Node000005_Node000006" class="edge">
<title>Node6&#45;&gt;Node5</title>
<g id="a_edge5_Node000005_Node000006"><a xlink:title=" ">
<path fill="none" stroke="#9a32cd" stroke-dasharray="5,2" d="M143,-193.21C143,-179.5 143,-161.55 143,-151.09"/>
<polygon fill="#9a32cd" stroke="#9a32cd" points="139.5,-193.48 143,-203.48 146.5,-193.48 139.5,-193.48"/>
</a>
</g>
<text text-anchor="middle" x="167.5" y="-172" font-family="Helvetica,sans-Serif" font-size="10.00" fill="grey"> elements</text>
</g>
<!-- Node7 -->
<g id="Node000007" class="node">
<title>Node7</title>
<g id="a_Node000007"><a xlink:href="classdstringt.html" target="_top" xlink:title="dstringt has one field, an unsigned integer no which is an index into a static table of strings.">
<polygon fill="white" stroke="#666666" points="231,-85 177,-85 177,-66 231,-66 231,-85"/>
<text text-anchor="middle" x="204" y="-73" font-family="Helvetica,sans-Serif" font-size="10.00">dstringt</text>
</a>
</g>
</g>
<!-- Node7&#45;&gt;Node1 -->
<g id="edge6_Node000001_Node000007" class="edge">
<title>Node7&#45;&gt;Node1</title>
<g id="a_edge6_Node000001_Node000007"><a xlink:title=" ">
<path fill="none" stroke="#9a32cd" stroke-dasharray="5,2" d="M194.85,-57.08C191,-50.48 186.2,-43.09 181,-37 175.3,-30.32 167.85,-23.9 161.68,-19.05"/>
<polygon fill="#9a32cd" stroke="#9a32cd" points="191.85,-58.89 199.76,-65.95 197.98,-55.51 191.85,-58.89"/>
</a>
</g>
<text text-anchor="middle" x="217" y="-40" font-family="Helvetica,sans-Serif" font-size="10.00" fill="grey"> main_class</text>
</g>
</g>
</svg>
