<?xml version="1.0" encoding="UTF-8" standalone="no"?>
<!DOCTYPE svg PUBLIC "-//W3C//DTD SVG 1.1//EN"
 "http://www.w3.org/Graphics/SVG/1.1/DTD/svg11.dtd">
<!-- Generated by graphviz version 2.43.0 (0)
 -->
<!-- Title: expr2c_configurationt Pages: 1 -->
<svg width="252pt" height="174pt"
 viewBox="0.00 0.00 252.00 174.00" xmlns="http://www.w3.org/2000/svg" xmlns:xlink="http://www.w3.org/1999/xlink">
<g id="graph0" class="graph" transform="scale(1 1) rotate(0) translate(4 170)">
<title>expr2c_configurationt</title>
<!-- Node1 -->
<g id="Node000001" class="node">
<title>Node1</title>
<g id="a_Node000001"><a xlink:title="Used for configuring the behaviour of expr2c and type2c.">
<polygon fill="#999999" stroke="#666666" points="122,-20.5 0,-20.5 0,-1.5 122,-1.5 122,-20.5"/>
<text text-anchor="middle" x="61" y="-8.5" font-family="Helvetica,sans-Serif" font-size="10.00">expr2c_configurationt</text>
</a>
</g>
</g>
<!-- Node1&#45;&gt;Node1 -->
<g id="edge3_Node000001_Node000001" class="edge">
<title>Node1&#45;&gt;Node1</title>
<g id="a_edge3_Node000001_Node000001"><a xlink:title=" ">
<path fill="none" stroke="#9a32cd" stroke-dasharray="5,2" d="M132.49,-16.34C137.17,-15.1 140,-13.32 140,-11 140,-7.29 132.75,-4.96 122.28,-4"/>
<polygon fill="#9a32cd" stroke="#9a32cd" points="131.59,-12.94 122.28,-18 132.71,-19.85 131.59,-12.94"/>
</a>
</g>
<text text-anchor="middle" x="192" y="-14" font-family="Helvetica,sans-Serif" font-size="10.00" fill="grey"> clean_configuration</text>
<text text-anchor="middle" x="192" y="-3" font-family="Helvetica,sans-Serif" font-size="10.00" fill="grey">default_configuration</text>
</g>
<!-- Node2 -->
<g id="Node000002" class="node">
<title>Node2</title>
<g id="a_Node000002"><a xlink:title=" ">
<polygon fill="white" stroke="#666666" points="93.5,-99 28.5,-99 28.5,-80 93.5,-80 93.5,-99"/>
<text text-anchor="middle" x="61" y="-87" font-family="Helvetica,sans-Serif" font-size="10.00">std::string</text>
</a>
</g>
</g>
<!-- Node2&#45;&gt;Node1 -->
<g id="edge1_Node000001_Node000002" class="edge">
<title>Node2&#45;&gt;Node1</title>
<g id="a_edge1_Node000001_Node000002"><a xlink:title=" ">
<path fill="none" stroke="#9a32cd" stroke-dasharray="5,2" d="M61,-69.6C61,-53.97 61,-32.49 61,-20.67"/>
<polygon fill="#9a32cd" stroke="#9a32cd" points="57.5,-69.72 61,-79.72 64.5,-69.72 57.5,-69.72"/>
</a>
</g>
<text text-anchor="middle" x="91.5" y="-54" font-family="Helvetica,sans-Serif" font-size="10.00" fill="grey"> false_string</text>
<text text-anchor="middle" x="91.5" y="-43" font-family="Helvetica,sans-Serif" font-size="10.00" fill="grey">true_string</text>
</g>
<!-- Node3 -->
<g id="Node000003" class="node">
<title>Node3</title>
<g id="a_Node000003"><a xlink:title=" ">
<polygon fill="white" stroke="#666666" points="113,-166 9,-166 9,-136 113,-136 113,-166"/>
<text text-anchor="start" x="17" y="-154" font-family="Helvetica,sans-Serif" font-size="10.00">std::basic_string&lt;</text>
<text text-anchor="middle" x="61" y="-143" font-family="Helvetica,sans-Serif" font-size="10.00"> Char &gt;</text>
</a>
</g>
</g>
<!-- Node3&#45;&gt;Node2 -->
<g id="edge2_Node000002_Node000003" class="edge">
<title>Node3&#45;&gt;Node2</title>
<g id="a_edge2_Node000002_Node000003"><a xlink:title=" ">
<path fill="none" stroke="#63b8ff" d="M61,-125.79C61,-116.36 61,-106.15 61,-99.16"/>
<polygon fill="#63b8ff" stroke="#63b8ff" points="57.5,-125.9 61,-135.9 64.5,-125.9 57.5,-125.9"/>
</a>
</g>
</g>
</g>
</svg>
