<?xml version="1.0" encoding="UTF-8" standalone="no"?>
<!DOCTYPE svg PUBLIC "-//W3C//DTD SVG 1.1//EN"
 "http://www.w3.org/Graphics/SVG/1.1/DTD/svg11.dtd">
<!-- Generated by graphviz version 2.43.0 (0)
 -->
<!-- Title: partial_order_concurrencyt::a_rect Pages: 1 -->
<svg width="237pt" height="258pt"
 viewBox="0.00 0.00 236.50 258.00" xmlns="http://www.w3.org/2000/svg" xmlns:xlink="http://www.w3.org/1999/xlink">
<g id="graph0" class="graph" transform="scale(1 1) rotate(0) translate(4 254)">
<title>partial_order_concurrencyt::a_rect</title>
<!-- Node1 -->
<g id="Node000001" class="node">
<title>Node1</title>
<g id="a_Node000001"><a xlink:title=" ">
<polygon fill="#999999" stroke="#666666" points="178,-30 31,-30 31,0 178,0 178,-30"/>
<text text-anchor="start" x="39" y="-18" font-family="Helvetica,sans-Serif" font-size="10.00">partial_order_concurrencyt</text>
<text text-anchor="middle" x="104.5" y="-7" font-family="Helvetica,sans-Serif" font-size="10.00">::a_rect</text>
</a>
</g>
</g>
<!-- Node2 -->
<g id="Node000002" class="node">
<title>Node2</title>
<g id="a_Node000002"><a xlink:title=" ">
<polygon fill="white" stroke="#666666" points="170,-107 39,-107 39,-88 170,-88 170,-107"/>
<text text-anchor="middle" x="104.5" y="-95" font-family="Helvetica,sans-Serif" font-size="10.00">std::vector&lt; event_it &gt;</text>
</a>
</g>
</g>
<!-- Node2&#45;&gt;Node1 -->
<g id="edge1_Node000001_Node000002" class="edge">
<title>Node2&#45;&gt;Node1</title>
<g id="a_edge1_Node000001_Node000002"><a xlink:title=" ">
<path fill="none" stroke="#9a32cd" stroke-dasharray="5,2" d="M104.5,-77.6C104.5,-63.1 104.5,-43.4 104.5,-30.22"/>
<polygon fill="#9a32cd" stroke="#9a32cd" points="101,-77.89 104.5,-87.89 108,-77.89 101,-77.89"/>
</a>
</g>
<text text-anchor="middle" x="120" y="-62" font-family="Helvetica,sans-Serif" font-size="10.00" fill="grey"> reads</text>
<text text-anchor="middle" x="120" y="-51" font-family="Helvetica,sans-Serif" font-size="10.00" fill="grey">writes</text>
</g>
<!-- Node3 -->
<g id="Node000003" class="node">
<title>Node3</title>
<g id="a_Node000003"><a xlink:title=" ">
<polygon fill="white" stroke="#666666" points="113,-184 0,-184 0,-154 113,-154 113,-184"/>
<text text-anchor="start" x="8" y="-172" font-family="Helvetica,sans-Serif" font-size="10.00">std::list&lt; T &gt;::const</text>
<text text-anchor="middle" x="56.5" y="-161" font-family="Helvetica,sans-Serif" font-size="10.00">_iterator</text>
</a>
</g>
</g>
<!-- Node3&#45;&gt;Node2 -->
<g id="edge2_Node000002_Node000003" class="edge">
<title>Node3&#45;&gt;Node2</title>
<g id="a_edge2_Node000002_Node000003"><a xlink:title=" ">
<path fill="none" stroke="#9a32cd" stroke-dasharray="5,2" d="M69.73,-144.69C73.65,-138.19 78.08,-131.21 82.5,-125 86.94,-118.76 92.44,-112.14 96.83,-107.07"/>
<polygon fill="#9a32cd" stroke="#9a32cd" points="66.47,-143.33 64.42,-153.72 72.51,-146.88 66.47,-143.33"/>
</a>
</g>
<text text-anchor="middle" x="107" y="-128" font-family="Helvetica,sans-Serif" font-size="10.00" fill="grey"> elements</text>
</g>
<!-- Node4 -->
<g id="Node000004" class="node">
<title>Node4</title>
<g id="a_Node000004"><a xlink:title=" ">
<polygon fill="white" stroke="#666666" points="228,-178.5 131,-178.5 131,-159.5 228,-159.5 228,-178.5"/>
<text text-anchor="middle" x="179.5" y="-166.5" font-family="Helvetica,sans-Serif" font-size="10.00">std::vector&lt; T &gt;</text>
</a>
</g>
</g>
<!-- Node4&#45;&gt;Node2 -->
<g id="edge3_Node000002_Node000004" class="edge">
<title>Node4&#45;&gt;Node2</title>
<g id="a_edge3_Node000002_Node000004"><a xlink:title=" ">
<path fill="none" stroke="orange" stroke-dasharray="5,2" d="M162.68,-152.42C147.58,-138.42 125.96,-118.38 113.77,-107.09"/>
<polygon fill="orange" stroke="orange" points="160.59,-155.25 170.3,-159.48 165.35,-150.11 160.59,-155.25"/>
</a>
</g>
<text text-anchor="middle" x="176.5" y="-128" font-family="Helvetica,sans-Serif" font-size="10.00" fill="grey"> &lt; event_it &gt;</text>
</g>
<!-- Node5 -->
<g id="Node000005" class="node">
<title>Node5</title>
<g id="a_Node000005"><a xlink:title=" ">
<polygon fill="white" stroke="#666666" points="194,-250 165,-250 165,-231 194,-231 194,-250"/>
<text text-anchor="middle" x="179.5" y="-238" font-family="Helvetica,sans-Serif" font-size="10.00">T</text>
</a>
</g>
</g>
<!-- Node5&#45;&gt;Node4 -->
<g id="edge4_Node000004_Node000005" class="edge">
<title>Node5&#45;&gt;Node4</title>
<g id="a_edge4_Node000004_Node000005"><a xlink:title=" ">
<path fill="none" stroke="#9a32cd" stroke-dasharray="5,2" d="M179.5,-220.71C179.5,-207 179.5,-189.05 179.5,-178.59"/>
<polygon fill="#9a32cd" stroke="#9a32cd" points="176,-220.98 179.5,-230.98 183,-220.98 176,-220.98"/>
</a>
</g>
<text text-anchor="middle" x="204" y="-205" font-family="Helvetica,sans-Serif" font-size="10.00" fill="grey"> elements</text>
</g>
</g>
</svg>
