<?xml version="1.0" encoding="UTF-8" standalone="no"?>
<!DOCTYPE svg PUBLIC "-//W3C//DTD SVG 1.1//EN"
 "http://www.w3.org/Graphics/SVG/1.1/DTD/svg11.dtd">
<!-- Generated by graphviz version 2.43.0 (0)
 -->
<!-- Title: goto_convertt::break_switch_targetst Pages: 1 -->
<svg width="832pt" height="132pt"
 viewBox="0.00 0.00 832.00 131.50" xmlns="http://www.w3.org/2000/svg" xmlns:xlink="http://www.w3.org/1999/xlink">
<g id="graph0" class="graph" transform="scale(1 1) rotate(0) translate(4 127.5)">
<title>goto_convertt::break_switch_targetst</title>
<!-- Node1 -->
<g id="Node000001" class="node">
<title>Node1</title>
<g id="a_Node000001"><a xlink:title=" ">
<polygon fill="#999999" stroke="#666666" points="824,-86.5 706,-86.5 706,-56.5 824,-56.5 824,-86.5"/>
<text text-anchor="start" x="714" y="-74.5" font-family="Helvetica,sans-Serif" font-size="10.00">goto_convertt::break</text>
<text text-anchor="middle" x="765" y="-63.5" font-family="Helvetica,sans-Serif" font-size="10.00">_switch_targetst</text>
</a>
</g>
</g>
<!-- Node2 -->
<g id="Node000002" class="node">
<title>Node2</title>
<g id="a_Node000002"><a xlink:title=" ">
<polygon fill="white" stroke="#666666" points="588,-122 446,-122 446,-81 588,-81 588,-122"/>
<text text-anchor="start" x="454" y="-110" font-family="Helvetica,sans-Serif" font-size="10.00">std::list&lt; std::pair</text>
<text text-anchor="start" x="454" y="-99" font-family="Helvetica,sans-Serif" font-size="10.00">&lt; goto_programt::targett,</text>
<text text-anchor="middle" x="517" y="-88" font-family="Helvetica,sans-Serif" font-size="10.00"> caset &gt; &gt;</text>
</a>
</g>
</g>
<!-- Node2&#45;&gt;Node1 -->
<g id="edge1_Node000001_Node000002" class="edge">
<title>Node2&#45;&gt;Node1</title>
<g id="a_edge1_Node000001_Node000002"><a xlink:title=" ">
<path fill="none" stroke="#9a32cd" stroke-dasharray="5,2" d="M598.37,-91.7C633.41,-87.43 673.71,-82.51 705.79,-78.6"/>
<polygon fill="#9a32cd" stroke="#9a32cd" points="597.67,-88.26 588.16,-92.94 598.51,-95.21 597.67,-88.26"/>
</a>
</g>
<text text-anchor="middle" x="659" y="-89.5" font-family="Helvetica,sans-Serif" font-size="10.00" fill="grey"> cases</text>
</g>
<!-- Node3 -->
<g id="Node000003" class="node">
<title>Node3</title>
<g id="a_Node000003"><a xlink:title=" ">
<polygon fill="white" stroke="#666666" points="216,-111 135,-111 135,-92 216,-92 216,-111"/>
<text text-anchor="middle" x="175.5" y="-99" font-family="Helvetica,sans-Serif" font-size="10.00">std::list&lt; T &gt;</text>
</a>
</g>
</g>
<!-- Node3&#45;&gt;Node2 -->
<g id="edge2_Node000002_Node000003" class="edge">
<title>Node3&#45;&gt;Node2</title>
<g id="a_edge2_Node000002_Node000003"><a xlink:title=" ">
<path fill="none" stroke="orange" stroke-dasharray="5,2" d="M226.47,-101.5C284.4,-101.5 380.27,-101.5 445.7,-101.5"/>
<polygon fill="orange" stroke="orange" points="226.11,-98 216.11,-101.5 226.11,-105 226.11,-98"/>
</a>
</g>
<text text-anchor="start" x="260.5" y="-115.5" font-family="Helvetica,sans-Serif" font-size="10.00" fill="grey"> &lt; std::pair&lt; goto_programt</text>
<text text-anchor="middle" x="329.5" y="-104.5" font-family="Helvetica,sans-Serif" font-size="10.00" fill="grey">::targett, caset &gt; &gt;</text>
</g>
<!-- Node4 -->
<g id="Node000004" class="node">
<title>Node4</title>
<g id="a_Node000004"><a xlink:title=" ">
<polygon fill="white" stroke="#666666" points="29,-95 0,-95 0,-76 29,-76 29,-95"/>
<text text-anchor="middle" x="14.5" y="-83" font-family="Helvetica,sans-Serif" font-size="10.00">T</text>
</a>
</g>
</g>
<!-- Node4&#45;&gt;Node3 -->
<g id="edge3_Node000003_Node000004" class="edge">
<title>Node4&#45;&gt;Node3</title>
<g id="a_edge3_Node000003_Node000004"><a xlink:title=" ">
<path fill="none" stroke="#9a32cd" stroke-dasharray="5,2" d="M39.19,-87.88C64.45,-90.43 104.89,-94.49 134.98,-97.52"/>
<polygon fill="#9a32cd" stroke="#9a32cd" points="39.36,-84.38 29.06,-86.86 38.66,-91.35 39.36,-84.38"/>
</a>
</g>
<text text-anchor="middle" x="71.5" y="-96.5" font-family="Helvetica,sans-Serif" font-size="10.00" fill="grey"> elements</text>
</g>
<!-- Node7 -->
<g id="Node000007" class="node">
<title>Node7</title>
<g id="a_Node000007"><a xlink:title=" ">
<polygon fill="white" stroke="#666666" points="226,-56 125,-56 125,-37 226,-37 226,-56"/>
<text text-anchor="middle" x="175.5" y="-44" font-family="Helvetica,sans-Serif" font-size="10.00">std::map&lt; K, T &gt;</text>
</a>
</g>
</g>
<!-- Node4&#45;&gt;Node7 -->
<g id="edge8_Node000007_Node000004" class="edge">
<title>Node4&#45;&gt;Node7</title>
<g id="a_edge8_Node000007_Node000004"><a xlink:title=" ">
<path fill="none" stroke="#9a32cd" stroke-dasharray="5,2" d="M38.75,-76.18C41.51,-75.21 44.3,-74.29 47,-73.5 72.29,-66.06 100.96,-59.79 124.71,-55.18"/>
<polygon fill="#9a32cd" stroke="#9a32cd" points="37.28,-72.99 29.14,-79.77 39.73,-79.55 37.28,-72.99"/>
</a>
</g>
<text text-anchor="middle" x="71.5" y="-76.5" font-family="Helvetica,sans-Serif" font-size="10.00" fill="grey"> elements</text>
</g>
<!-- Node5 -->
<g id="Node000005" class="node">
<title>Node5</title>
<g id="a_Node000005"><a xlink:title=" ">
<polygon fill="white" stroke="#666666" points="612,-63 422,-63 422,-22 612,-22 612,-63"/>
<text text-anchor="start" x="430" y="-51" font-family="Helvetica,sans-Serif" font-size="10.00">std::map&lt; goto_programt</text>
<text text-anchor="start" x="430" y="-40" font-family="Helvetica,sans-Serif" font-size="10.00">::targett, casest::iterator,</text>
<text text-anchor="middle" x="517" y="-29" font-family="Helvetica,sans-Serif" font-size="10.00"> goto_programt::target_less_than &gt;</text>
</a>
</g>
</g>
<!-- Node5&#45;&gt;Node1 -->
<g id="edge4_Node000001_Node000005" class="edge">
<title>Node5&#45;&gt;Node1</title>
<g id="a_edge4_Node000001_Node000005"><a xlink:title=" ">
<path fill="none" stroke="#9a32cd" stroke-dasharray="5,2" d="M621.96,-53.79C643.78,-56.25 666.65,-58.9 688,-61.5 693.81,-62.21 699.87,-62.97 705.92,-63.74"/>
<polygon fill="#9a32cd" stroke="#9a32cd" points="622.34,-50.31 612.01,-52.68 621.56,-57.27 622.34,-50.31"/>
</a>
</g>
<text text-anchor="middle" x="659" y="-64.5" font-family="Helvetica,sans-Serif" font-size="10.00" fill="grey"> cases_map</text>
</g>
<!-- Node6 -->
<g id="Node000006" class="node">
<title>Node6</title>
<g id="a_Node000006"><a xlink:title=" ">
<polygon fill="white" stroke="#666666" points="237,-19 114,-19 114,0 237,0 237,-19"/>
<text text-anchor="middle" x="175.5" y="-7" font-family="Helvetica,sans-Serif" font-size="10.00">std::list&lt; T &gt;::iterator</text>
</a>
</g>
</g>
<!-- Node6&#45;&gt;Node5 -->
<g id="edge5_Node000005_Node000006" class="edge">
<title>Node6&#45;&gt;Node5</title>
<g id="a_edge5_Node000005_Node000006"><a xlink:title=" ">
<path fill="none" stroke="#9a32cd" stroke-dasharray="5,2" d="M247.62,-14.69C292.51,-18.15 351.7,-23.05 404,-28.5 409.85,-29.11 415.86,-29.77 421.92,-30.46"/>
<polygon fill="#9a32cd" stroke="#9a32cd" points="247.63,-11.18 237.4,-13.9 247.1,-18.16 247.63,-11.18"/>
</a>
</g>
<text text-anchor="middle" x="329.5" y="-31.5" font-family="Helvetica,sans-Serif" font-size="10.00" fill="grey"> keys</text>
</g>
<!-- Node7&#45;&gt;Node5 -->
<g id="edge6_Node000005_Node000007" class="edge">
<title>Node7&#45;&gt;Node5</title>
<g id="a_edge6_Node000005_Node000007"><a xlink:title=" ">
<path fill="none" stroke="orange" stroke-dasharray="5,2" d="M236.49,-45.79C287.8,-45.19 362.54,-44.31 421.83,-43.61"/>
<polygon fill="orange" stroke="orange" points="236.19,-42.3 226.23,-45.91 236.27,-49.3 236.19,-42.3"/>
</a>
</g>
<text text-anchor="start" x="255" y="-70.5" font-family="Helvetica,sans-Serif" font-size="10.00" fill="grey"> &lt; goto_programt::targett,</text>
<text text-anchor="start" x="255" y="-59.5" font-family="Helvetica,sans-Serif" font-size="10.00" fill="grey"> casest::iterator, goto</text>
<text text-anchor="middle" x="329.5" y="-48.5" font-family="Helvetica,sans-Serif" font-size="10.00" fill="grey">_programt::target_less_than &gt;</text>
</g>
<!-- Node8 -->
<g id="Node000008" class="node">
<title>Node8</title>
<g id="a_Node000008"><a xlink:title=" ">
<polygon fill="white" stroke="#666666" points="29,-43 0,-43 0,-24 29,-24 29,-43"/>
<text text-anchor="middle" x="14.5" y="-31" font-family="Helvetica,sans-Serif" font-size="10.00">K</text>
</a>
</g>
</g>
<!-- Node8&#45;&gt;Node7 -->
<g id="edge7_Node000007_Node000008" class="edge">
<title>Node8&#45;&gt;Node7</title>
<g id="a_edge7_Node000007_Node000008"><a xlink:title=" ">
<path fill="none" stroke="#9a32cd" stroke-dasharray="5,2" d="M39.32,-32.93C55.36,-32.76 76.99,-32.94 96,-34.5 105.34,-35.27 115.26,-36.48 124.79,-37.83"/>
<polygon fill="#9a32cd" stroke="#9a32cd" points="39.14,-29.43 29.2,-33.09 39.26,-36.43 39.14,-29.43"/>
</a>
</g>
<text text-anchor="middle" x="71.5" y="-37.5" font-family="Helvetica,sans-Serif" font-size="10.00" fill="grey"> keys</text>
</g>
</g>
</svg>
