<?xml version="1.0" encoding="UTF-8" standalone="no"?>
<!DOCTYPE svg PUBLIC "-//W3C//DTD SVG 1.1//EN"
 "http://www.w3.org/Graphics/SVG/1.1/DTD/svg11.dtd">
<!-- Generated by graphviz version 2.43.0 (0)
 -->
<!-- Title: bv_pointerst::postponedt Pages: 1 -->
<svg width="1548pt" height="151pt"
 viewBox="0.00 0.00 1548.00 150.50" xmlns="http://www.w3.org/2000/svg" xmlns:xlink="http://www.w3.org/1999/xlink">
<g id="graph0" class="graph" transform="scale(1 1) rotate(0) translate(4 146.5)">
<title>bv_pointerst::postponedt</title>
<!-- Node1 -->
<g id="Node000001" class="node">
<title>Node1</title>
<g id="a_Node000001"><a xlink:title=" ">
<polygon fill="#999999" stroke="#666666" points="1540,-111 1402,-111 1402,-92 1540,-92 1540,-111"/>
<text text-anchor="middle" x="1471" y="-99" font-family="Helvetica,sans-Serif" font-size="10.00">bv_pointerst::postponedt</text>
</a>
</g>
</g>
<!-- Node2 -->
<g id="Node000002" class="node">
<title>Node2</title>
<g id="a_Node000002"><a xlink:title=" ">
<polygon fill="white" stroke="#666666" points="436,-130 313,-130 313,-111 436,-111 436,-130"/>
<text text-anchor="middle" x="374.5" y="-118" font-family="Helvetica,sans-Serif" font-size="10.00">std::vector&lt; literalt &gt;</text>
</a>
</g>
</g>
<!-- Node2&#45;&gt;Node1 -->
<g id="edge1_Node000001_Node000002" class="edge">
<title>Node2&#45;&gt;Node1</title>
<g id="a_edge1_Node000001_Node000002"><a xlink:title=" ">
<path fill="none" stroke="#9a32cd" stroke-dasharray="5,2" d="M446.54,-120.5C486.61,-120.5 537.6,-120.5 583,-120.5 583,-120.5 583,-120.5 1321,-120.5 1354.25,-120.5 1391.34,-115.79 1420.2,-111.06"/>
<polygon fill="#9a32cd" stroke="#9a32cd" points="446.33,-117 436.33,-120.5 446.33,-124 446.33,-117"/>
</a>
</g>
<text text-anchor="middle" x="1123.5" y="-134.5" font-family="Helvetica,sans-Serif" font-size="10.00" fill="grey"> bv</text>
<text text-anchor="middle" x="1123.5" y="-123.5" font-family="Helvetica,sans-Serif" font-size="10.00" fill="grey">op</text>
</g>
<!-- Node3 -->
<g id="Node000003" class="node">
<title>Node3</title>
<g id="a_Node000003"><a xlink:href="classliteralt.html" target="_top" xlink:title=" ">
<polygon fill="white" stroke="#666666" points="187,-130 138,-130 138,-111 187,-111 187,-130"/>
<text text-anchor="middle" x="162.5" y="-118" font-family="Helvetica,sans-Serif" font-size="10.00">literalt</text>
</a>
</g>
</g>
<!-- Node3&#45;&gt;Node2 -->
<g id="edge2_Node000002_Node000003" class="edge">
<title>Node3&#45;&gt;Node2</title>
<g id="a_edge2_Node000002_Node000003"><a xlink:title=" ">
<path fill="none" stroke="#9a32cd" stroke-dasharray="5,2" d="M197.49,-120.5C228.58,-120.5 275.3,-120.5 312.8,-120.5"/>
<polygon fill="#9a32cd" stroke="#9a32cd" points="197.18,-117 187.18,-120.5 197.18,-124 197.18,-117"/>
</a>
</g>
<text text-anchor="middle" x="258" y="-123.5" font-family="Helvetica,sans-Serif" font-size="10.00" fill="grey"> elements</text>
</g>
<!-- Node4 -->
<g id="Node000004" class="node">
<title>Node4</title>
<g id="a_Node000004"><a xlink:title=" ">
<polygon fill="white" stroke="#666666" points="211,-67 114,-67 114,-48 211,-48 211,-67"/>
<text text-anchor="middle" x="162.5" y="-55" font-family="Helvetica,sans-Serif" font-size="10.00">std::vector&lt; T &gt;</text>
</a>
</g>
</g>
<!-- Node4&#45;&gt;Node2 -->
<g id="edge3_Node000002_Node000004" class="edge">
<title>Node4&#45;&gt;Node2</title>
<g id="a_edge3_Node000002_Node000004"><a xlink:title=" ">
<path fill="none" stroke="orange" stroke-dasharray="5,2" d="M201.64,-70.21C230.02,-79.53 269.79,-92.28 305,-102.5 314.92,-105.38 325.7,-108.31 335.72,-110.94"/>
<polygon fill="orange" stroke="orange" points="202.69,-66.87 192.1,-67.07 200.5,-73.52 202.69,-66.87"/>
</a>
</g>
<text text-anchor="middle" x="258" y="-99.5" font-family="Helvetica,sans-Serif" font-size="10.00" fill="grey"> &lt; literalt &gt;</text>
</g>
<!-- Node12 -->
<g id="Node000012" class="node">
<title>Node12</title>
<g id="a_Node000012"><a xlink:title=" ">
<polygon fill="white" stroke="#666666" points="431.5,-19 317.5,-19 317.5,0 431.5,0 431.5,-19"/>
<text text-anchor="middle" x="374.5" y="-7" font-family="Helvetica,sans-Serif" font-size="10.00">std::vector&lt; treet &gt;</text>
</a>
</g>
</g>
<!-- Node4&#45;&gt;Node12 -->
<g id="edge12_Node000012_Node000004" class="edge">
<title>Node4&#45;&gt;Node12</title>
<g id="a_edge12_Node000012_Node000004"><a xlink:title=" ">
<path fill="none" stroke="orange" stroke-dasharray="5,2" d="M215.05,-45.72C250.98,-37.5 298.29,-26.69 331.84,-19.02"/>
<polygon fill="orange" stroke="orange" points="214.21,-42.32 205.24,-47.96 215.77,-49.14 214.21,-42.32"/>
</a>
</g>
<text text-anchor="middle" x="258" y="-45.5" font-family="Helvetica,sans-Serif" font-size="10.00" fill="grey"> &lt; treet &gt;</text>
</g>
<!-- Node5 -->
<g id="Node000005" class="node">
<title>Node5</title>
<g id="a_Node000005"><a xlink:title=" ">
<polygon fill="white" stroke="#666666" points="29,-67 0,-67 0,-48 29,-48 29,-67"/>
<text text-anchor="middle" x="14.5" y="-55" font-family="Helvetica,sans-Serif" font-size="10.00">T</text>
</a>
</g>
</g>
<!-- Node5&#45;&gt;Node4 -->
<g id="edge4_Node000004_Node000005" class="edge">
<title>Node5&#45;&gt;Node4</title>
<g id="a_edge4_Node000004_Node000005"><a xlink:title=" ">
<path fill="none" stroke="#9a32cd" stroke-dasharray="5,2" d="M39.39,-57.5C59.54,-57.5 89.02,-57.5 113.96,-57.5"/>
<polygon fill="#9a32cd" stroke="#9a32cd" points="39.24,-54 29.24,-57.5 39.24,-61 39.24,-54"/>
</a>
</g>
<text text-anchor="middle" x="71.5" y="-60.5" font-family="Helvetica,sans-Serif" font-size="10.00" fill="grey"> elements</text>
</g>
<!-- Node6 -->
<g id="Node000006" class="node">
<title>Node6</title>
<g id="a_Node000006"><a xlink:href="classexprt.html" target="_top" xlink:title="Base class for all expressions.">
<polygon fill="white" stroke="#666666" points="1341,-92 1299,-92 1299,-73 1341,-73 1341,-92"/>
<text text-anchor="middle" x="1320" y="-80" font-family="Helvetica,sans-Serif" font-size="10.00">exprt</text>
</a>
</g>
</g>
<!-- Node6&#45;&gt;Node1 -->
<g id="edge5_Node000001_Node000006" class="edge">
<title>Node6&#45;&gt;Node1</title>
<g id="a_edge5_Node000001_Node000006"><a xlink:title=" ">
<path fill="none" stroke="#9a32cd" stroke-dasharray="5,2" d="M1351.07,-86.33C1365.72,-88.2 1383.98,-90.53 1401.77,-92.8"/>
<polygon fill="#9a32cd" stroke="#9a32cd" points="1351.46,-82.86 1341.09,-85.06 1350.57,-89.8 1351.46,-82.86"/>
</a>
</g>
<text text-anchor="middle" x="1371.5" y="-93.5" font-family="Helvetica,sans-Serif" font-size="10.00" fill="grey"> expr</text>
</g>
<!-- Node7 -->
<g id="Node000007" class="node">
<title>Node7</title>
<g id="a_Node000007"><a xlink:href="classirept.html" target="_top" xlink:title="There are a large number of kinds of tree structured or tree&#45;like data in CPROVER.">
<polygon fill="white" stroke="#666666" points="1262,-87 1223,-87 1223,-68 1262,-68 1262,-87"/>
<text text-anchor="middle" x="1242.5" y="-75" font-family="Helvetica,sans-Serif" font-size="10.00">irept</text>
</a>
</g>
</g>
<!-- Node7&#45;&gt;Node6 -->
<g id="edge6_Node000006_Node000007" class="edge">
<title>Node7&#45;&gt;Node6</title>
<g id="a_edge6_Node000006_Node000007"><a xlink:title=" ">
<path fill="none" stroke="#63b8ff" d="M1272.18,-79.4C1281.11,-79.99 1290.76,-80.63 1298.97,-81.17"/>
<polygon fill="#63b8ff" stroke="#63b8ff" points="1272.37,-75.9 1262.16,-78.74 1271.91,-82.89 1272.37,-75.9"/>
</a>
</g>
</g>
<!-- Node8 -->
<g id="Node000008" class="node">
<title>Node8</title>
<g id="a_Node000008"><a xlink:href="classsharing__treet.html" target="_top" xlink:title=" ">
<polygon fill="white" stroke="#666666" points="1186,-84 1061,-84 1061,-43 1186,-43 1186,-84"/>
<text text-anchor="start" x="1069" y="-72" font-family="Helvetica,sans-Serif" font-size="10.00">sharing_treet&lt; irept,</text>
<text text-anchor="start" x="1069" y="-61" font-family="Helvetica,sans-Serif" font-size="10.00"> forward_list_as_mapt</text>
<text text-anchor="middle" x="1123.5" y="-50" font-family="Helvetica,sans-Serif" font-size="10.00">&lt; irep_idt, irept &gt; &gt;</text>
</a>
</g>
</g>
<!-- Node8&#45;&gt;Node7 -->
<g id="edge7_Node000007_Node000008" class="edge">
<title>Node8&#45;&gt;Node7</title>
<g id="a_edge7_Node000007_Node000008"><a xlink:title=" ">
<path fill="none" stroke="#63b8ff" d="M1196.07,-72.06C1205.93,-73.24 1215.27,-74.36 1222.89,-75.27"/>
<polygon fill="#63b8ff" stroke="#63b8ff" points="1196.43,-68.58 1186.08,-70.87 1195.6,-75.53 1196.43,-68.58"/>
</a>
</g>
</g>
<!-- Node9 -->
<g id="Node000009" class="node">
<title>Node9</title>
<g id="a_Node000009"><a xlink:href="classtree__nodet.html" target="_top" xlink:title="A node with data in a tree, it contains:">
<polygon fill="white" stroke="#666666" points="663,-61.5 505,-61.5 505,-31.5 663,-31.5 663,-61.5"/>
<text text-anchor="start" x="513" y="-49.5" font-family="Helvetica,sans-Serif" font-size="10.00">tree_nodet&lt; treet,</text>
<text text-anchor="middle" x="584" y="-38.5" font-family="Helvetica,sans-Serif" font-size="10.00"> named_subtreest, sharing &gt;</text>
</a>
</g>
</g>
<!-- Node9&#45;&gt;Node8 -->
<g id="edge8_Node000008_Node000009" class="edge">
<title>Node9&#45;&gt;Node8</title>
<g id="a_edge8_Node000008_Node000009"><a xlink:title=" ">
<path fill="none" stroke="#9a32cd" stroke-dasharray="5,2" d="M673.23,-53.1C675.85,-53.25 678.44,-53.38 681,-53.5 816.36,-59.96 975.27,-62.27 1060.68,-63.08"/>
<polygon fill="#9a32cd" stroke="#9a32cd" points="673.23,-49.6 663.05,-52.52 672.83,-56.59 673.23,-49.6"/>
</a>
</g>
<text text-anchor="middle" x="810" y="-74.5" font-family="Helvetica,sans-Serif" font-size="10.00" fill="grey"> data</text>
<text text-anchor="middle" x="810" y="-63.5" font-family="Helvetica,sans-Serif" font-size="10.00" fill="grey">empty_d</text>
</g>
<!-- Node13 -->
<g id="Node000013" class="node">
<title>Node13</title>
<g id="a_Node000013"><a xlink:href="classsharing__treet.html" target="_top" xlink:title="Base class for tree&#45;like data structures with sharing.">
<polygon fill="white" stroke="#666666" points="878,-31.5 742,-31.5 742,-1.5 878,-1.5 878,-31.5"/>
<text text-anchor="start" x="750" y="-19.5" font-family="Helvetica,sans-Serif" font-size="10.00">sharing_treet&lt; derivedt,</text>
<text text-anchor="middle" x="810" y="-8.5" font-family="Helvetica,sans-Serif" font-size="10.00"> named_subtreest &gt;</text>
</a>
</g>
</g>
<!-- Node9&#45;&gt;Node13 -->
<g id="edge14_Node000013_Node000009" class="edge">
<title>Node9&#45;&gt;Node13</title>
<g id="a_edge14_Node000013_Node000009"><a xlink:title=" ">
<path fill="none" stroke="#9a32cd" stroke-dasharray="5,2" d="M672.94,-32.62C675.66,-32.24 678.35,-31.86 681,-31.5 700.73,-28.8 722.21,-26.17 741.84,-23.88"/>
<polygon fill="#9a32cd" stroke="#9a32cd" points="672.43,-29.16 663.03,-34.05 673.43,-36.09 672.43,-29.16"/>
</a>
</g>
<text text-anchor="middle" x="702.5" y="-45.5" font-family="Helvetica,sans-Serif" font-size="10.00" fill="grey"> data</text>
<text text-anchor="middle" x="702.5" y="-34.5" font-family="Helvetica,sans-Serif" font-size="10.00" fill="grey">empty_d</text>
</g>
<!-- Node10 -->
<g id="Node000010" class="node">
<title>Node10</title>
<g id="a_Node000010"><a xlink:href="structref__count__ift.html" target="_top" xlink:title="Used in tree_nodet for activating or not reference counting.">
<polygon fill="white" stroke="#666666" points="444,-93 305,-93 305,-74 444,-74 444,-93"/>
<text text-anchor="middle" x="374.5" y="-81" font-family="Helvetica,sans-Serif" font-size="10.00">ref_count_ift&lt; enabled &gt;</text>
</a>
</g>
</g>
<!-- Node10&#45;&gt;Node9 -->
<g id="edge9_Node000009_Node000010" class="edge">
<title>Node10&#45;&gt;Node9</title>
<g id="a_edge9_Node000009_Node000010"><a xlink:title=" ">
<path fill="none" stroke="#63b8ff" d="M438.9,-72.19C459.66,-68.49 482.98,-64.34 504.7,-60.46"/>
<polygon fill="#63b8ff" stroke="#63b8ff" points="438.17,-68.77 428.94,-73.97 439.4,-75.66 438.17,-68.77"/>
</a>
</g>
</g>
<!-- Node11 -->
<g id="Node000011" class="node">
<title>Node11</title>
<g id="a_Node000011"><a xlink:href="classdstringt.html" target="_top" xlink:title="dstringt has one field, an unsigned integer no which is an index into a static table of strings.">
<polygon fill="white" stroke="#666666" points="401.5,-56 347.5,-56 347.5,-37 401.5,-37 401.5,-56"/>
<text text-anchor="middle" x="374.5" y="-44" font-family="Helvetica,sans-Serif" font-size="10.00">dstringt</text>
</a>
</g>
</g>
<!-- Node11&#45;&gt;Node9 -->
<g id="edge10_Node000009_Node000011" class="edge">
<title>Node11&#45;&gt;Node9</title>
<g id="a_edge10_Node000009_Node000011"><a xlink:title=" ">
<path fill="none" stroke="#9a32cd" stroke-dasharray="5,2" d="M411.79,-46.5C437.43,-46.5 472.77,-46.5 504.69,-46.5"/>
<polygon fill="#9a32cd" stroke="#9a32cd" points="411.78,-43 401.78,-46.5 411.78,-50 411.78,-43"/>
</a>
</g>
<text text-anchor="middle" x="474.5" y="-49.5" font-family="Helvetica,sans-Serif" font-size="10.00" fill="grey"> data</text>
</g>
<!-- Node12&#45;&gt;Node9 -->
<g id="edge11_Node000009_Node000012" class="edge">
<title>Node12&#45;&gt;Node9</title>
<g id="a_edge11_Node000009_Node000012"><a xlink:title=" ">
<path fill="none" stroke="#9a32cd" stroke-dasharray="5,2" d="M438.9,-20.81C459.66,-24.51 482.98,-28.66 504.7,-32.54"/>
<polygon fill="#9a32cd" stroke="#9a32cd" points="439.4,-17.34 428.94,-19.03 438.17,-24.23 439.4,-17.34"/>
</a>
</g>
<text text-anchor="middle" x="474.5" y="-32.5" font-family="Helvetica,sans-Serif" font-size="10.00" fill="grey"> sub</text>
</g>
<!-- Node13&#45;&gt;Node8 -->
<g id="edge13_Node000008_Node000013" class="edge">
<title>Node13&#45;&gt;Node8</title>
<g id="a_edge13_Node000008_Node000013"><a xlink:title=" ">
<path fill="none" stroke="orange" stroke-dasharray="5,2" d="M888.16,-15.39C933.72,-16.24 992.23,-19.95 1043,-31.5 1054.9,-34.21 1067.33,-38.46 1078.73,-43"/>
<polygon fill="orange" stroke="orange" points="888.11,-11.89 878.06,-15.24 888,-18.89 888.11,-11.89"/>
</a>
</g>
<text text-anchor="start" x="896" y="-45.5" font-family="Helvetica,sans-Serif" font-size="10.00" fill="grey"> &lt; irept, forward_list</text>
<text text-anchor="middle" x="969.5" y="-34.5" font-family="Helvetica,sans-Serif" font-size="10.00" fill="grey">_as_mapt&lt; irep_idt, irept &gt; &gt;</text>
</g>
</g>
</svg>
