<?xml version="1.0" encoding="UTF-8" standalone="no"?>
<!DOCTYPE svg PUBLIC "-//W3C//DTD SVG 1.1//EN"
 "http://www.w3.org/Graphics/SVG/1.1/DTD/svg11.dtd">
<!-- Generated by graphviz version 2.43.0 (0)
 -->
<!-- Title: /home/runner/work/cbmc/cbmc/src/util/structured_data.cpp Pages: 1 -->
<svg width="1049pt" height="434pt"
 viewBox="0.00 0.00 1049.05 434.00" xmlns="http://www.w3.org/2000/svg" xmlns:xlink="http://www.w3.org/1999/xlink">
<g id="graph0" class="graph" transform="scale(1 1) rotate(0) translate(4 430)">
<title>/home/runner/work/cbmc/cbmc/src/util/structured_data.cpp</title>
<!-- Node1 -->
<g id="Node000001" class="node">
<title>Node1</title>
<g id="a_Node000001"><a xlink:title=" ">
<polygon fill="#999999" stroke="#666666" points="840,-426 702,-426 702,-385 840,-385 840,-426"/>
<text text-anchor="start" x="710" y="-414" font-family="Helvetica,sans-Serif" font-size="10.00">/home/runner/work/cbmc</text>
<text text-anchor="start" x="710" y="-403" font-family="Helvetica,sans-Serif" font-size="10.00">/cbmc/src/util/structured</text>
<text text-anchor="middle" x="771" y="-392" font-family="Helvetica,sans-Serif" font-size="10.00">_data.cpp</text>
</a>
</g>
</g>
<!-- Node2 -->
<g id="Node000002" class="node">
<title>Node2</title>
<g id="a_Node000002"><a xlink:href="structured__data_8h.html" target="_top" xlink:title=" ">
<polygon fill="white" stroke="#666666" points="651,-349 549,-349 549,-330 651,-330 651,-349"/>
<text text-anchor="middle" x="600" y="-337" font-family="Helvetica,sans-Serif" font-size="10.00">structured_data.h</text>
</a>
</g>
</g>
<!-- Node1&#45;&gt;Node2 -->
<g id="edge1_Node000001_Node000002" class="edge">
<title>Node1&#45;&gt;Node2</title>
<g id="a_edge1_Node000001_Node000002"><a xlink:title=" ">
<path fill="none" stroke="#63b8ff" d="M718.77,-384.95C690.62,-374.42 656.78,-361.75 632.44,-352.64"/>
<polygon fill="#63b8ff" stroke="#63b8ff" points="633.55,-349.32 622.96,-349.09 631.1,-355.88 633.55,-349.32"/>
</a>
</g>
</g>
<!-- Node24 -->
<g id="Node000024" class="node">
<title>Node24</title>
<g id="a_Node000024"><a xlink:title=" ">
<polygon fill="#e0e0e0" stroke="#999999" points="1031,-129 967,-129 967,-110 1031,-110 1031,-129"/>
<text text-anchor="middle" x="999" y="-117" font-family="Helvetica,sans-Serif" font-size="10.00">algorithm</text>
</a>
</g>
</g>
<!-- Node1&#45;&gt;Node24 -->
<g id="edge41_Node000001_Node000024" class="edge">
<title>Node1&#45;&gt;Node24</title>
<g id="a_edge41_Node000001_Node000024"><a xlink:title=" ">
<path fill="none" stroke="#63b8ff" d="M840.27,-402.74C919.98,-396.58 1040,-372.82 1040,-285.5 1040,-285.5 1040,-285.5 1040,-228.5 1040,-194.57 1022.09,-158.31 1009.94,-137.62"/>
<polygon fill="#63b8ff" stroke="#63b8ff" points="1012.9,-135.75 1004.7,-129.04 1006.93,-139.4 1012.9,-135.75"/>
</a>
</g>
</g>
<!-- Node28 -->
<g id="Node000028" class="node">
<title>Node28</title>
<g id="a_Node000028"><a xlink:href="range_8h.html" target="_top" xlink:title="Ranges: pair of begin and end iterators, which can be initialized from containers,...">
<polygon fill="white" stroke="#666666" points="914.5,-239 861.5,-239 861.5,-220 914.5,-220 914.5,-239"/>
<text text-anchor="middle" x="888" y="-227" font-family="Helvetica,sans-Serif" font-size="10.00">range.h</text>
</a>
</g>
</g>
<!-- Node1&#45;&gt;Node28 -->
<g id="edge37_Node000001_Node000028" class="edge">
<title>Node1&#45;&gt;Node28</title>
<g id="a_edge37_Node000001_Node000028"><a xlink:title=" ">
<path fill="none" stroke="#63b8ff" d="M784.19,-384.88C807.26,-350.58 854.53,-280.28 876.41,-247.74"/>
<polygon fill="#63b8ff" stroke="#63b8ff" points="879.42,-249.53 882.1,-239.27 873.62,-245.62 879.42,-249.53"/>
</a>
</g>
</g>
<!-- Node31 -->
<g id="Node000031" class="node">
<title>Node31</title>
<g id="a_Node000031"><a xlink:href="string__utils_8h.html" target="_top" xlink:title=" ">
<polygon fill="white" stroke="#666666" points="184,-74 104,-74 104,-55 184,-55 184,-74"/>
<text text-anchor="middle" x="144" y="-62" font-family="Helvetica,sans-Serif" font-size="10.00">string_utils.h</text>
</a>
</g>
</g>
<!-- Node1&#45;&gt;Node31 -->
<g id="edge38_Node000001_Node000031" class="edge">
<title>Node1&#45;&gt;Node31</title>
<g id="a_edge38_Node000001_Node000031"><a xlink:title=" ">
<path fill="none" stroke="#63b8ff" d="M701.71,-400.49C518.99,-388.98 38,-352.34 38,-285.5 38,-285.5 38,-285.5 38,-228.5 38,-165.25 94.79,-107.26 125.24,-80.72"/>
<polygon fill="#63b8ff" stroke="#63b8ff" points="127.69,-83.23 133.06,-74.09 123.16,-77.89 127.69,-83.23"/>
</a>
</g>
</g>
<!-- Node3 -->
<g id="Node000003" class="node">
<title>Node3</title>
<g id="a_Node000003"><a xlink:href="json_8h.html" target="_top" xlink:title=" ">
<polygon fill="white" stroke="#666666" points="523,-294 477,-294 477,-275 523,-275 523,-294"/>
<text text-anchor="middle" x="500" y="-282" font-family="Helvetica,sans-Serif" font-size="10.00">json.h</text>
</a>
</g>
</g>
<!-- Node2&#45;&gt;Node3 -->
<g id="edge2_Node000002_Node000003" class="edge">
<title>Node2&#45;&gt;Node3</title>
<g id="a_edge2_Node000002_Node000003"><a xlink:title=" ">
<path fill="none" stroke="#63b8ff" d="M583.93,-329.98C568.14,-321.61 543.78,-308.7 525.37,-298.95"/>
<polygon fill="#63b8ff" stroke="#63b8ff" points="526.83,-295.76 516.36,-294.17 523.56,-301.95 526.83,-295.76"/>
</a>
</g>
</g>
<!-- Node4 -->
<g id="Node000004" class="node">
<title>Node4</title>
<g id="a_Node000004"><a xlink:title=" ">
<polygon fill="#e0e0e0" stroke="#999999" points="99.5,-19 52.5,-19 52.5,0 99.5,0 99.5,-19"/>
<text text-anchor="middle" x="76" y="-7" font-family="Helvetica,sans-Serif" font-size="10.00">vector</text>
</a>
</g>
</g>
<!-- Node2&#45;&gt;Node4 -->
<g id="edge36_Node000002_Node000004" class="edge">
<title>Node2&#45;&gt;Node4</title>
<g id="a_edge36_Node000002_Node000004"><a xlink:title=" ">
<path fill="none" stroke="#63b8ff" d="M548.84,-335.58C403.75,-325.92 0,-288.84 0,-175.5 0,-175.5 0,-175.5 0,-118.5 0,-79.47 33.61,-44.58 56.13,-25.6"/>
<polygon fill="#63b8ff" stroke="#63b8ff" points="58.56,-28.14 64.12,-19.12 54.15,-22.7 58.56,-28.14"/>
</a>
</g>
</g>
<!-- Node7 -->
<g id="Node000007" class="node">
<title>Node7</title>
<g id="a_Node000007"><a xlink:title=" ">
<polygon fill="#e0e0e0" stroke="#999999" points="553,-19 509,-19 509,0 553,0 553,-19"/>
<text text-anchor="middle" x="531" y="-7" font-family="Helvetica,sans-Serif" font-size="10.00">string</text>
</a>
</g>
</g>
<!-- Node2&#45;&gt;Node7 -->
<g id="edge35_Node000002_Node000007" class="edge">
<title>Node2&#45;&gt;Node7</title>
<g id="a_edge35_Node000002_Node000007"><a xlink:title=" ">
<path fill="none" stroke="#63b8ff" d="M651.21,-333.55C711.64,-324.56 804,-299.53 804,-230.5 804,-230.5 804,-230.5 804,-118.5 804,-67.25 635.52,-29.87 563.27,-16.2"/>
<polygon fill="#63b8ff" stroke="#63b8ff" points="563.81,-12.74 553.34,-14.35 562.53,-19.62 563.81,-12.74"/>
</a>
</g>
</g>
<!-- Node3&#45;&gt;Node4 -->
<g id="edge3_Node000003_Node000004" class="edge">
<title>Node3&#45;&gt;Node4</title>
<g id="a_edge3_Node000003_Node000004"><a xlink:title=" ">
<path fill="none" stroke="#63b8ff" d="M476.96,-275.67C453.29,-267.39 415.54,-253.53 384,-239 244.38,-174.66 162.73,-203.57 80,-74 71.55,-60.76 71.25,-42.64 72.66,-29.14"/>
<polygon fill="#63b8ff" stroke="#63b8ff" points="76.14,-29.5 74.1,-19.1 69.21,-28.5 76.14,-29.5"/>
</a>
</g>
</g>
<!-- Node5 -->
<g id="Node000005" class="node">
<title>Node5</title>
<g id="a_Node000005"><a xlink:title=" ">
<polygon fill="#e0e0e0" stroke="#999999" points="460,-239 422,-239 422,-220 460,-220 460,-239"/>
<text text-anchor="middle" x="441" y="-227" font-family="Helvetica,sans-Serif" font-size="10.00">map</text>
</a>
</g>
</g>
<!-- Node3&#45;&gt;Node5 -->
<g id="edge4_Node000003_Node000005" class="edge">
<title>Node3&#45;&gt;Node5</title>
<g id="a_edge4_Node000003_Node000005"><a xlink:title=" ">
<path fill="none" stroke="#63b8ff" d="M490.52,-274.98C481.8,-267.15 468.66,-255.34 458.1,-245.86"/>
<polygon fill="#63b8ff" stroke="#63b8ff" points="460.43,-243.25 450.65,-239.17 455.75,-248.46 460.43,-243.25"/>
</a>
</g>
</g>
<!-- Node6 -->
<g id="Node000006" class="node">
<title>Node6</title>
<g id="a_Node000006"><a xlink:title=" ">
<polygon fill="#e0e0e0" stroke="#999999" points="250,-74 202,-74 202,-55 250,-55 250,-74"/>
<text text-anchor="middle" x="226" y="-62" font-family="Helvetica,sans-Serif" font-size="10.00">iosfwd</text>
</a>
</g>
</g>
<!-- Node3&#45;&gt;Node6 -->
<g id="edge5_Node000003_Node000006" class="edge">
<title>Node3&#45;&gt;Node6</title>
<g id="a_edge5_Node000003_Node000006"><a xlink:title=" ">
<path fill="none" stroke="#63b8ff" d="M479.41,-274.91C461.19,-266.87 434.27,-253.88 413,-239 342.38,-189.6 271.06,-115.04 240.92,-82.12"/>
<polygon fill="#63b8ff" stroke="#63b8ff" points="243.17,-79.4 233.86,-74.35 237.99,-84.1 243.17,-79.4"/>
</a>
</g>
</g>
<!-- Node3&#45;&gt;Node7 -->
<g id="edge6_Node000003_Node000007" class="edge">
<title>Node3&#45;&gt;Node7</title>
<g id="a_edge6_Node000003_Node000007"><a xlink:title=" ">
<path fill="none" stroke="#63b8ff" d="M507.16,-274.89C520.99,-257.36 550,-215.79 550,-175.5 550,-175.5 550,-175.5 550,-118.5 550,-86.56 541.84,-50.1 536.22,-28.77"/>
<polygon fill="#63b8ff" stroke="#63b8ff" points="539.58,-27.81 533.56,-19.09 532.83,-29.66 539.58,-27.81"/>
</a>
</g>
</g>
<!-- Node8 -->
<g id="Node000008" class="node">
<title>Node8</title>
<g id="a_Node000008"><a xlink:href="irep_8h.html" target="_top" xlink:title=" ">
<polygon fill="white" stroke="#666666" points="522,-239 478,-239 478,-220 522,-220 522,-239"/>
<text text-anchor="middle" x="500" y="-227" font-family="Helvetica,sans-Serif" font-size="10.00">irep.h</text>
</a>
</g>
</g>
<!-- Node3&#45;&gt;Node8 -->
<g id="edge7_Node000003_Node000008" class="edge">
<title>Node3&#45;&gt;Node8</title>
<g id="a_edge7_Node000003_Node000008"><a xlink:title=" ">
<path fill="none" stroke="#63b8ff" d="M500,-274.75C500,-267.8 500,-257.85 500,-249.13"/>
<polygon fill="#63b8ff" stroke="#63b8ff" points="503.5,-249.09 500,-239.09 496.5,-249.09 503.5,-249.09"/>
</a>
</g>
</g>
<!-- Node3&#45;&gt;Node28 -->
<g id="edge30_Node000003_Node000028" class="edge">
<title>Node3&#45;&gt;Node28</title>
<g id="a_edge30_Node000003_Node000028"><a xlink:title=" ">
<path fill="none" stroke="#63b8ff" d="M523.11,-280.34C588.06,-271.47 772.63,-246.26 851.52,-235.48"/>
<polygon fill="#63b8ff" stroke="#63b8ff" points="852.05,-238.94 861.48,-234.12 851.1,-232.01 852.05,-238.94"/>
</a>
</g>
</g>
<!-- Node8&#45;&gt;Node4 -->
<g id="edge9_Node000008_Node000004" class="edge">
<title>Node8&#45;&gt;Node4</title>
<g id="a_edge9_Node000008_Node000004"><a xlink:title=" ">
<path fill="none" stroke="#63b8ff" d="M477.72,-221.28C396.98,-194.96 122.91,-104.05 95,-74 83.74,-61.88 79.14,-43.35 77.26,-29.43"/>
<polygon fill="#63b8ff" stroke="#63b8ff" points="80.7,-28.67 76.24,-19.06 73.74,-29.36 80.7,-28.67"/>
</a>
</g>
</g>
<!-- Node8&#45;&gt;Node7 -->
<g id="edge8_Node000008_Node000007" class="edge">
<title>Node8&#45;&gt;Node7</title>
<g id="a_edge8_Node000008_Node000007"><a xlink:title=" ">
<path fill="none" stroke="#63b8ff" d="M501.22,-219.95C505.77,-187.95 521.87,-74.68 528.31,-29.4"/>
<polygon fill="#63b8ff" stroke="#63b8ff" points="531.82,-29.62 529.76,-19.22 524.89,-28.63 531.82,-29.62"/>
</a>
</g>
</g>
<!-- Node9 -->
<g id="Node000009" class="node">
<title>Node9</title>
<g id="a_Node000009"><a xlink:href="src_2util_2invariant_8h.html" target="_top" xlink:title=" ">
<polygon fill="white" stroke="#666666" points="901.5,-74 832.5,-74 832.5,-55 901.5,-55 901.5,-74"/>
<text text-anchor="middle" x="867" y="-62" font-family="Helvetica,sans-Serif" font-size="10.00">invariant.h</text>
</a>
</g>
</g>
<!-- Node8&#45;&gt;Node9 -->
<g id="edge10_Node000008_Node000009" class="edge">
<title>Node8&#45;&gt;Node9</title>
<g id="a_edge10_Node000008_Node000009"><a xlink:title=" ">
<path fill="none" stroke="#63b8ff" d="M504.93,-219.85C518.17,-197.48 556.97,-137.52 607,-110 643.2,-90.08 757.56,-76.13 821.9,-69.64"/>
<polygon fill="#63b8ff" stroke="#63b8ff" points="822.55,-73.09 832.15,-68.62 821.86,-66.12 822.55,-73.09"/>
</a>
</g>
</g>
<!-- Node13 -->
<g id="Node000013" class="node">
<title>Node13</title>
<g id="a_Node000013"><a xlink:href="irep__ids_8h.html" target="_top" xlink:title="util">
<polygon fill="white" stroke="#666666" points="479,-184 415,-184 415,-165 479,-165 479,-184"/>
<text text-anchor="middle" x="447" y="-172" font-family="Helvetica,sans-Serif" font-size="10.00">irep_ids.h</text>
</a>
</g>
</g>
<!-- Node8&#45;&gt;Node13 -->
<g id="edge15_Node000008_Node000013" class="edge">
<title>Node8&#45;&gt;Node13</title>
<g id="a_edge15_Node000008_Node000013"><a xlink:title=" ">
<path fill="none" stroke="#63b8ff" d="M491.25,-219.75C483.53,-212.03 472.1,-200.6 462.78,-191.28"/>
<polygon fill="#63b8ff" stroke="#63b8ff" points="465.14,-188.69 455.59,-184.09 460.19,-193.64 465.14,-188.69"/>
</a>
</g>
</g>
<!-- Node23 -->
<g id="Node000023" class="node">
<title>Node23</title>
<g id="a_Node000023"><a xlink:href="forward__list__as__map_8h.html" target="_top" xlink:title=" ">
<polygon fill="white" stroke="#666666" points="775.5,-184 648.5,-184 648.5,-165 775.5,-165 775.5,-184"/>
<text text-anchor="middle" x="712" y="-172" font-family="Helvetica,sans-Serif" font-size="10.00">forward_list_as_map.h</text>
</a>
</g>
</g>
<!-- Node8&#45;&gt;Node23 -->
<g id="edge23_Node000008_Node000023" class="edge">
<title>Node8&#45;&gt;Node23</title>
<g id="a_edge23_Node000008_Node000023"><a xlink:title=" ">
<path fill="none" stroke="#63b8ff" d="M522.29,-222.93C556.71,-214.32 623.46,-197.63 667.89,-186.53"/>
<polygon fill="#63b8ff" stroke="#63b8ff" points="668.99,-189.86 677.84,-184.04 667.29,-183.07 668.99,-189.86"/>
</a>
</g>
</g>
<!-- Node9&#45;&gt;Node7 -->
<g id="edge13_Node000009_Node000007" class="edge">
<title>Node9&#45;&gt;Node7</title>
<g id="a_edge13_Node000009_Node000007"><a xlink:title=" ">
<path fill="none" stroke="#63b8ff" d="M832.48,-57.43C827.62,-56.6 822.69,-55.77 818,-55 725.83,-39.86 616.78,-23.33 563.54,-15.35"/>
<polygon fill="#63b8ff" stroke="#63b8ff" points="563.76,-11.84 553.35,-13.83 562.72,-18.77 563.76,-11.84"/>
</a>
</g>
</g>
<!-- Node10 -->
<g id="Node000010" class="node">
<title>Node10</title>
<g id="a_Node000010"><a xlink:title=" ">
<polygon fill="#e0e0e0" stroke="#999999" points="891.5,-19 842.5,-19 842.5,0 891.5,0 891.5,-19"/>
<text text-anchor="middle" x="867" y="-7" font-family="Helvetica,sans-Serif" font-size="10.00">cstdlib</text>
</a>
</g>
</g>
<!-- Node9&#45;&gt;Node10 -->
<g id="edge11_Node000009_Node000010" class="edge">
<title>Node9&#45;&gt;Node10</title>
<g id="a_edge11_Node000009_Node000010"><a xlink:title=" ">
<path fill="none" stroke="#63b8ff" d="M867,-54.75C867,-47.8 867,-37.85 867,-29.13"/>
<polygon fill="#63b8ff" stroke="#63b8ff" points="870.5,-29.09 867,-19.09 863.5,-29.09 870.5,-29.09"/>
</a>
</g>
</g>
<!-- Node11 -->
<g id="Node000011" class="node">
<title>Node11</title>
<g id="a_Node000011"><a xlink:title=" ">
<polygon fill="#e0e0e0" stroke="#999999" points="824,-19 768,-19 768,0 824,0 824,-19"/>
<text text-anchor="middle" x="796" y="-7" font-family="Helvetica,sans-Serif" font-size="10.00">sstream</text>
</a>
</g>
</g>
<!-- Node9&#45;&gt;Node11 -->
<g id="edge12_Node000009_Node000011" class="edge">
<title>Node9&#45;&gt;Node11</title>
<g id="a_edge12_Node000009_Node000011"><a xlink:title=" ">
<path fill="none" stroke="#63b8ff" d="M855.59,-54.98C844.89,-47 828.66,-34.88 815.84,-25.31"/>
<polygon fill="#63b8ff" stroke="#63b8ff" points="817.72,-22.35 807.61,-19.17 813.53,-27.96 817.72,-22.35"/>
</a>
</g>
</g>
<!-- Node12 -->
<g id="Node000012" class="node">
<title>Node12</title>
<g id="a_Node000012"><a xlink:title=" ">
<polygon fill="#e0e0e0" stroke="#999999" points="978.5,-19 909.5,-19 909.5,0 978.5,0 978.5,-19"/>
<text text-anchor="middle" x="944" y="-7" font-family="Helvetica,sans-Serif" font-size="10.00">type_traits</text>
</a>
</g>
</g>
<!-- Node9&#45;&gt;Node12 -->
<g id="edge14_Node000009_Node000012" class="edge">
<title>Node9&#45;&gt;Node12</title>
<g id="a_edge14_Node000009_Node000012"><a xlink:title=" ">
<path fill="none" stroke="#63b8ff" d="M879.37,-54.98C891.09,-46.92 908.92,-34.65 922.89,-25.03"/>
<polygon fill="#63b8ff" stroke="#63b8ff" points="925.15,-27.72 931.4,-19.17 921.18,-21.96 925.15,-27.72"/>
</a>
</g>
</g>
<!-- Node14 -->
<g id="Node000014" class="node">
<title>Node14</title>
<g id="a_Node000014"><a xlink:href="dstring_8h.html" target="_top" xlink:title="Container for C&#45;Strings.">
<polygon fill="white" stroke="#666666" points="391.5,-129 332.5,-129 332.5,-110 391.5,-110 391.5,-129"/>
<text text-anchor="middle" x="362" y="-117" font-family="Helvetica,sans-Serif" font-size="10.00">dstring.h</text>
</a>
</g>
</g>
<!-- Node13&#45;&gt;Node14 -->
<g id="edge16_Node000013_Node000014" class="edge">
<title>Node13&#45;&gt;Node14</title>
<g id="a_edge16_Node000013_Node000014"><a xlink:title=" ">
<path fill="none" stroke="#63b8ff" d="M433.34,-164.98C420.16,-156.77 399.97,-144.18 384.43,-134.49"/>
<polygon fill="#63b8ff" stroke="#63b8ff" points="386.24,-131.49 375.91,-129.17 382.54,-137.43 386.24,-131.49"/>
</a>
</g>
</g>
<!-- Node22 -->
<g id="Node000022" class="node">
<title>Node22</title>
<g id="a_Node000022"><a xlink:title=" ">
<polygon fill="#e0e0e0" stroke="#999999" points="484,-129 410,-129 410,-110 484,-110 484,-129"/>
<text text-anchor="middle" x="447" y="-117" font-family="Helvetica,sans-Serif" font-size="10.00">irep_ids.def</text>
</a>
</g>
</g>
<!-- Node13&#45;&gt;Node22 -->
<g id="edge22_Node000013_Node000022" class="edge">
<title>Node13&#45;&gt;Node22</title>
<g id="a_edge22_Node000013_Node000022"><a xlink:title=" ">
<path fill="none" stroke="#63b8ff" d="M447,-164.75C447,-157.8 447,-147.85 447,-139.13"/>
<polygon fill="#63b8ff" stroke="#63b8ff" points="450.5,-139.09 447,-129.09 443.5,-139.09 450.5,-139.09"/>
</a>
</g>
</g>
<!-- Node14&#45;&gt;Node6 -->
<g id="edge17_Node000014_Node000006" class="edge">
<title>Node14&#45;&gt;Node6</title>
<g id="a_edge17_Node000014_Node000006"><a xlink:title=" ">
<path fill="none" stroke="#63b8ff" d="M340.15,-109.98C317.88,-101.3 283.1,-87.75 257.78,-77.88"/>
<polygon fill="#63b8ff" stroke="#63b8ff" points="258.84,-74.54 248.25,-74.17 256.29,-81.06 258.84,-74.54"/>
</a>
</g>
</g>
<!-- Node14&#45;&gt;Node7 -->
<g id="edge18_Node000014_Node000007" class="edge">
<title>Node14&#45;&gt;Node7</title>
<g id="a_edge18_Node000014_Node000007"><a xlink:title=" ">
<path fill="none" stroke="#63b8ff" d="M383.86,-109.88C403.24,-101.81 431.96,-88.8 455,-74 477.21,-59.73 500.12,-39.73 514.9,-26.01"/>
<polygon fill="#63b8ff" stroke="#63b8ff" points="517.34,-28.52 522.22,-19.11 512.54,-23.42 517.34,-28.52"/>
</a>
</g>
</g>
<!-- Node15 -->
<g id="Node000015" class="node">
<title>Node15</title>
<g id="a_Node000015"><a xlink:href="magic_8h.html" target="_top" xlink:title="Magic numbers used throughout the codebase.">
<polygon fill="#fff0f0" stroke="red" points="446,-74 390,-74 390,-55 446,-55 446,-74"/>
<text text-anchor="middle" x="418" y="-62" font-family="Helvetica,sans-Serif" font-size="10.00">magic.h</text>
</a>
</g>
</g>
<!-- Node14&#45;&gt;Node15 -->
<g id="edge19_Node000014_Node000015" class="edge">
<title>Node14&#45;&gt;Node15</title>
<g id="a_edge19_Node000014_Node000015"><a xlink:title=" ">
<path fill="none" stroke="#63b8ff" d="M371,-109.98C379.19,-102.23 391.51,-90.58 401.47,-81.14"/>
<polygon fill="#63b8ff" stroke="#63b8ff" points="403.98,-83.59 408.84,-74.17 399.17,-78.5 403.98,-83.59"/>
</a>
</g>
</g>
<!-- Node17 -->
<g id="Node000017" class="node">
<title>Node17</title>
<g id="a_Node000017"><a xlink:href="string__container_8h.html" target="_top" xlink:title="Container for C&#45;Strings.">
<polygon fill="#fff0f0" stroke="red" points="372,-74 268,-74 268,-55 372,-55 372,-74"/>
<text text-anchor="middle" x="320" y="-62" font-family="Helvetica,sans-Serif" font-size="10.00">string_container.h</text>
</a>
</g>
</g>
<!-- Node14&#45;&gt;Node17 -->
<g id="edge20_Node000014_Node000017" class="edge">
<title>Node14&#45;&gt;Node17</title>
<g id="a_edge20_Node000014_Node000017"><a xlink:title=" ">
<path fill="none" stroke="#63b8ff" d="M355.06,-109.75C349.13,-102.26 340.43,-91.28 333.18,-82.13"/>
<polygon fill="#63b8ff" stroke="#63b8ff" points="335.76,-79.75 326.81,-74.09 330.27,-84.1 335.76,-79.75"/>
</a>
</g>
</g>
<!-- Node17&#45;&gt;Node4 -->
<g id="edge21_Node000017_Node000004" class="edge">
<title>Node17&#45;&gt;Node4</title>
<g id="a_edge21_Node000017_Node000004"><a xlink:title=" ">
<path fill="none" stroke="#63b8ff" d="M280.8,-54.98C233.31,-44.67 154.12,-27.47 109.4,-17.76"/>
<polygon fill="#63b8ff" stroke="#63b8ff" points="110.13,-14.33 99.61,-15.63 108.64,-21.17 110.13,-14.33"/>
</a>
</g>
</g>
<!-- Node23&#45;&gt;Node24 -->
<g id="edge24_Node000023_Node000024" class="edge">
<title>Node23&#45;&gt;Node24</title>
<g id="a_edge24_Node000023_Node000024"><a xlink:title=" ">
<path fill="none" stroke="#63b8ff" d="M758.11,-164.98C812.93,-154.86 903.64,-138.11 956.71,-128.31"/>
<polygon fill="#63b8ff" stroke="#63b8ff" points="957.61,-131.7 966.81,-126.45 956.34,-124.82 957.61,-131.7"/>
</a>
</g>
</g>
<!-- Node25 -->
<g id="Node000025" class="node">
<title>Node25</title>
<g id="a_Node000025"><a xlink:title=" ">
<polygon fill="#e0e0e0" stroke="#999999" points="690,-129 616,-129 616,-110 690,-110 690,-129"/>
<text text-anchor="middle" x="653" y="-117" font-family="Helvetica,sans-Serif" font-size="10.00">forward_list</text>
</a>
</g>
</g>
<!-- Node23&#45;&gt;Node25 -->
<g id="edge25_Node000023_Node000025" class="edge">
<title>Node23&#45;&gt;Node25</title>
<g id="a_edge25_Node000023_Node000025"><a xlink:title=" ">
<path fill="none" stroke="#63b8ff" d="M702.52,-164.98C693.8,-157.15 680.66,-145.34 670.1,-135.86"/>
<polygon fill="#63b8ff" stroke="#63b8ff" points="672.43,-133.25 662.65,-129.17 667.75,-138.46 672.43,-133.25"/>
</a>
</g>
</g>
<!-- Node26 -->
<g id="Node000026" class="node">
<title>Node26</title>
<g id="a_Node000026"><a xlink:href="as__const_8h.html" target="_top" xlink:title=" ">
<polygon fill="white" stroke="#666666" points="776,-129 708,-129 708,-110 776,-110 776,-129"/>
<text text-anchor="middle" x="742" y="-117" font-family="Helvetica,sans-Serif" font-size="10.00">as_const.h</text>
</a>
</g>
</g>
<!-- Node23&#45;&gt;Node26 -->
<g id="edge26_Node000023_Node000026" class="edge">
<title>Node23&#45;&gt;Node26</title>
<g id="a_edge26_Node000023_Node000026"><a xlink:title=" ">
<path fill="none" stroke="#63b8ff" d="M716.95,-164.75C721.06,-157.49 727.03,-146.95 732.1,-137.98"/>
<polygon fill="#63b8ff" stroke="#63b8ff" points="735.26,-139.52 737.14,-129.09 729.17,-136.07 735.26,-139.52"/>
</a>
</g>
</g>
<!-- Node27 -->
<g id="Node000027" class="node">
<title>Node27</title>
<g id="a_Node000027"><a xlink:href="narrow_8h.html" target="_top" xlink:title=" ">
<polygon fill="white" stroke="#666666" points="891.5,-129 832.5,-129 832.5,-110 891.5,-110 891.5,-129"/>
<text text-anchor="middle" x="862" y="-117" font-family="Helvetica,sans-Serif" font-size="10.00">narrow.h</text>
</a>
</g>
</g>
<!-- Node23&#45;&gt;Node27 -->
<g id="edge27_Node000023_Node000027" class="edge">
<title>Node23&#45;&gt;Node27</title>
<g id="a_edge27_Node000023_Node000027"><a xlink:title=" ">
<path fill="none" stroke="#63b8ff" d="M736.1,-164.98C760.88,-156.23 799.7,-142.51 827.69,-132.62"/>
<polygon fill="#63b8ff" stroke="#63b8ff" points="829.2,-135.8 837.46,-129.17 826.87,-129.2 829.2,-135.8"/>
</a>
</g>
</g>
<!-- Node27&#45;&gt;Node9 -->
<g id="edge29_Node000027_Node000009" class="edge">
<title>Node27&#45;&gt;Node9</title>
<g id="a_edge29_Node000027_Node000009"><a xlink:title=" ">
<path fill="none" stroke="#63b8ff" d="M862.83,-109.75C863.48,-102.8 864.42,-92.85 865.24,-84.13"/>
<polygon fill="#63b8ff" stroke="#63b8ff" points="868.73,-84.37 866.19,-74.09 861.77,-83.72 868.73,-84.37"/>
</a>
</g>
</g>
<!-- Node27&#45;&gt;Node12 -->
<g id="edge28_Node000027_Node000012" class="edge">
<title>Node27&#45;&gt;Node12</title>
<g id="a_edge28_Node000027_Node000012"><a xlink:title=" ">
<path fill="none" stroke="#63b8ff" d="M873.58,-109.94C884.26,-101.62 900.06,-88.2 911,-74 921.77,-60.02 930.75,-42.01 936.61,-28.74"/>
<polygon fill="#63b8ff" stroke="#63b8ff" points="939.93,-29.86 940.61,-19.28 933.49,-27.13 939.93,-29.86"/>
</a>
</g>
</g>
<!-- Node28&#45;&gt;Node9 -->
<g id="edge31_Node000028_Node000009" class="edge">
<title>Node28&#45;&gt;Node9</title>
<g id="a_edge31_Node000028_Node000009"><a xlink:title=" ">
<path fill="none" stroke="#63b8ff" d="M879.86,-219.82C869.39,-207.54 853.5,-184.42 862,-165 871.46,-143.39 891.54,-150.61 901,-129 904.39,-121.26 903.71,-118 901,-110 897.44,-99.47 890.28,-89.48 883.45,-81.63"/>
<polygon fill="#63b8ff" stroke="#63b8ff" points="885.99,-79.23 876.61,-74.31 880.87,-84.01 885.99,-79.23"/>
</a>
</g>
</g>
<!-- Node28&#45;&gt;Node12 -->
<g id="edge34_Node000028_Node000012" class="edge">
<title>Node28&#45;&gt;Node12</title>
<g id="a_edge34_Node000028_Node000012"><a xlink:title=" ">
<path fill="none" stroke="#63b8ff" d="M914.57,-226.48C944.31,-222.83 992.11,-212.61 1021,-184 1039.38,-165.8 1035.72,-154.51 1040,-129 1047.74,-82.89 999.13,-44.02 968.23,-24.33"/>
<polygon fill="#63b8ff" stroke="#63b8ff" points="970.01,-21.32 959.66,-19.07 966.35,-27.29 970.01,-21.32"/>
</a>
</g>
</g>
<!-- Node29 -->
<g id="Node000029" class="node">
<title>Node29</title>
<g id="a_Node000029"><a xlink:title=" ">
<polygon fill="#e0e0e0" stroke="#999999" points="935.5,-184 870.5,-184 870.5,-165 935.5,-165 935.5,-184"/>
<text text-anchor="middle" x="903" y="-172" font-family="Helvetica,sans-Serif" font-size="10.00">functional</text>
</a>
</g>
</g>
<!-- Node28&#45;&gt;Node29 -->
<g id="edge32_Node000028_Node000029" class="edge">
<title>Node28&#45;&gt;Node29</title>
<g id="a_edge32_Node000028_Node000029"><a xlink:title=" ">
<path fill="none" stroke="#63b8ff" d="M890.48,-219.75C892.46,-212.72 895.32,-202.62 897.81,-193.84"/>
<polygon fill="#63b8ff" stroke="#63b8ff" points="901.21,-194.66 900.57,-184.09 894.48,-192.76 901.21,-194.66"/>
</a>
</g>
</g>
<!-- Node30 -->
<g id="Node000030" class="node">
<title>Node30</title>
<g id="a_Node000030"><a xlink:title=" ">
<polygon fill="#e0e0e0" stroke="#999999" points="1012,-184 954,-184 954,-165 1012,-165 1012,-184"/>
<text text-anchor="middle" x="983" y="-172" font-family="Helvetica,sans-Serif" font-size="10.00">memory</text>
</a>
</g>
</g>
<!-- Node28&#45;&gt;Node30 -->
<g id="edge33_Node000028_Node000030" class="edge">
<title>Node28&#45;&gt;Node30</title>
<g id="a_edge33_Node000028_Node000030"><a xlink:title=" ">
<path fill="none" stroke="#63b8ff" d="M903.26,-219.98C918.13,-211.69 940.98,-198.94 958.42,-189.22"/>
<polygon fill="#63b8ff" stroke="#63b8ff" points="960.43,-192.1 967.46,-184.17 957.02,-185.99 960.43,-192.1"/>
</a>
</g>
</g>
<!-- Node31&#45;&gt;Node4 -->
<g id="edge40_Node000031_Node000004" class="edge">
<title>Node31&#45;&gt;Node4</title>
<g id="a_edge40_Node000031_Node000004"><a xlink:title=" ">
<path fill="none" stroke="#63b8ff" d="M133.07,-54.98C122.92,-47.07 107.58,-35.11 95.35,-25.58"/>
<polygon fill="#63b8ff" stroke="#63b8ff" points="97.16,-22.56 87.12,-19.17 92.86,-28.08 97.16,-22.56"/>
</a>
</g>
</g>
<!-- Node31&#45;&gt;Node7 -->
<g id="edge39_Node000031_Node000007" class="edge">
<title>Node31&#45;&gt;Node7</title>
<g id="a_edge39_Node000031_Node000007"><a xlink:title=" ">
<path fill="none" stroke="#63b8ff" d="M184.09,-56.41C187.1,-55.92 190.1,-55.44 193,-55 305.05,-37.91 438.6,-21.49 498.78,-14.3"/>
<polygon fill="#63b8ff" stroke="#63b8ff" points="499.29,-17.76 508.81,-13.1 498.47,-10.81 499.29,-17.76"/>
</a>
</g>
</g>
</g>
</svg>
