<?xml version="1.0" encoding="UTF-8" standalone="no"?>
<!DOCTYPE svg PUBLIC "-//W3C//DTD SVG 1.1//EN"
 "http://www.w3.org/Graphics/SVG/1.1/DTD/svg11.dtd">
<!-- Generated by graphviz version 2.43.0 (0)
 -->
<!-- Title: /home/runner/work/cbmc/cbmc/src/util/symbol_table_builder.h Pages: 1 -->
<svg width="954pt" height="291pt"
 viewBox="0.00 0.00 954.00 291.00" xmlns="http://www.w3.org/2000/svg" xmlns:xlink="http://www.w3.org/1999/xlink">
<g id="graph0" class="graph" transform="scale(1 1) rotate(0) translate(4 287)">
<title>/home/runner/work/cbmc/cbmc/src/util/symbol_table_builder.h</title>
<!-- Node1 -->
<g id="Node000001" class="node">
<title>Node1</title>
<g id="a_Node000001"><a xlink:title=" ">
<polygon fill="#999999" stroke="#666666" points="594,-283 456,-283 456,-242 594,-242 594,-283"/>
<text text-anchor="start" x="464" y="-271" font-family="Helvetica,sans-Serif" font-size="10.00">/home/runner/work/cbmc</text>
<text text-anchor="start" x="464" y="-260" font-family="Helvetica,sans-Serif" font-size="10.00">/cbmc/src/util/symbol</text>
<text text-anchor="middle" x="525" y="-249" font-family="Helvetica,sans-Serif" font-size="10.00">_table_builder.h</text>
</a>
</g>
</g>
<!-- Node2 -->
<g id="Node000002" class="node">
<title>Node2</title>
<g id="a_Node000002"><a xlink:href="java__bytecode__language_8cpp.html" target="_top" xlink:title=" ">
<polygon fill="white" stroke="#666666" points="244,-200.5 80,-200.5 80,-159.5 244,-159.5 244,-200.5"/>
<text text-anchor="start" x="88" y="-188.5" font-family="Helvetica,sans-Serif" font-size="10.00">/home/runner/work/cbmc</text>
<text text-anchor="start" x="88" y="-177.5" font-family="Helvetica,sans-Serif" font-size="10.00">/cbmc/jbmc/src/java_bytecode</text>
<text text-anchor="middle" x="162" y="-166.5" font-family="Helvetica,sans-Serif" font-size="10.00">/java_bytecode_language.cpp</text>
</a>
</g>
</g>
<!-- Node1&#45;&gt;Node2 -->
<g id="edge1_Node000001_Node000002" class="edge">
<title>Node1&#45;&gt;Node2</title>
<g id="a_edge1_Node000001_Node000002"><a xlink:title=" ">
<path fill="none" stroke="#63b8ff" d="M446.04,-246.83C391.58,-236.37 317.65,-221.46 253,-206 245.99,-204.32 238.7,-202.48 231.43,-200.59"/>
<polygon fill="#63b8ff" stroke="#63b8ff" points="445.49,-250.29 455.97,-248.74 446.81,-243.42 445.49,-250.29"/>
</a>
</g>
</g>
<!-- Node3 -->
<g id="Node000003" class="node">
<title>Node3</title>
<g id="a_Node000003"><a xlink:href="lazy__goto__functions__map_8h.html" target="_top" xlink:title="Author: Diffblue Ltd.">
<polygon fill="white" stroke="#666666" points="426,-200.5 262,-200.5 262,-159.5 426,-159.5 426,-200.5"/>
<text text-anchor="start" x="270" y="-188.5" font-family="Helvetica,sans-Serif" font-size="10.00">/home/runner/work/cbmc</text>
<text text-anchor="start" x="270" y="-177.5" font-family="Helvetica,sans-Serif" font-size="10.00">/cbmc/jbmc/src/java_bytecode</text>
<text text-anchor="middle" x="344" y="-166.5" font-family="Helvetica,sans-Serif" font-size="10.00">/lazy_goto_functions_map.h</text>
</a>
</g>
</g>
<!-- Node1&#45;&gt;Node3 -->
<g id="edge2_Node000001_Node000003" class="edge">
<title>Node1&#45;&gt;Node3</title>
<g id="a_edge2_Node000001_Node000003"><a xlink:title=" ">
<path fill="none" stroke="#63b8ff" d="M471.56,-237.73C445,-225.92 413.29,-211.82 388.13,-200.63"/>
<polygon fill="#63b8ff" stroke="#63b8ff" points="470.16,-240.94 480.72,-241.81 473.01,-234.55 470.16,-240.94"/>
</a>
</g>
</g>
<!-- Node9 -->
<g id="Node000009" class="node">
<title>Node9</title>
<g id="a_Node000009"><a xlink:href="goto__convert_8cpp.html" target="_top" xlink:title="Program Transformation.">
<polygon fill="white" stroke="#666666" points="605.5,-200.5 444.5,-200.5 444.5,-159.5 605.5,-159.5 605.5,-200.5"/>
<text text-anchor="start" x="452.5" y="-188.5" font-family="Helvetica,sans-Serif" font-size="10.00">/home/runner/work/cbmc</text>
<text text-anchor="start" x="452.5" y="-177.5" font-family="Helvetica,sans-Serif" font-size="10.00">/cbmc/src/ansi&#45;c/goto</text>
<text text-anchor="middle" x="525" y="-166.5" font-family="Helvetica,sans-Serif" font-size="10.00">&#45;conversion/goto_convert.cpp</text>
</a>
</g>
</g>
<!-- Node1&#45;&gt;Node9 -->
<g id="edge8_Node000001_Node000009" class="edge">
<title>Node1&#45;&gt;Node9</title>
<g id="a_edge8_Node000001_Node000009"><a xlink:title=" ">
<path fill="none" stroke="#63b8ff" d="M525,-231.37C525,-221.1 525,-209.9 525,-200.67"/>
<polygon fill="#63b8ff" stroke="#63b8ff" points="521.5,-231.6 525,-241.6 528.5,-231.6 521.5,-231.6"/>
</a>
</g>
</g>
<!-- Node10 -->
<g id="Node000010" class="node">
<title>Node10</title>
<g id="a_Node000010"><a xlink:href="goto__convert__functions_8cpp.html" target="_top" xlink:title=" ">
<polygon fill="white" stroke="#666666" points="764,-206 624,-206 624,-154 764,-154 764,-206"/>
<text text-anchor="start" x="632" y="-194" font-family="Helvetica,sans-Serif" font-size="10.00">/home/runner/work/cbmc</text>
<text text-anchor="start" x="632" y="-183" font-family="Helvetica,sans-Serif" font-size="10.00">/cbmc/src/ansi&#45;c/goto</text>
<text text-anchor="start" x="632" y="-172" font-family="Helvetica,sans-Serif" font-size="10.00">&#45;conversion/goto_convert</text>
<text text-anchor="middle" x="694" y="-161" font-family="Helvetica,sans-Serif" font-size="10.00">_functions.cpp</text>
</a>
</g>
</g>
<!-- Node1&#45;&gt;Node10 -->
<g id="edge9_Node000001_Node000010" class="edge">
<title>Node1&#45;&gt;Node10</title>
<g id="a_edge9_Node000001_Node000010"><a xlink:title=" ">
<path fill="none" stroke="#63b8ff" d="M575.61,-237.39C596.33,-227.52 620.31,-216.1 641.25,-206.13"/>
<polygon fill="#63b8ff" stroke="#63b8ff" points="573.87,-234.35 566.34,-241.81 576.88,-240.67 573.87,-234.35"/>
</a>
</g>
</g>
<!-- Node11 -->
<g id="Node000011" class="node">
<title>Node11</title>
<g id="a_Node000011"><a xlink:href="compile_8cpp.html" target="_top" xlink:title="Compile and link source and object files.">
<polygon fill="white" stroke="#666666" points="946,-195 782,-195 782,-165 946,-165 946,-195"/>
<text text-anchor="start" x="790" y="-183" font-family="Helvetica,sans-Serif" font-size="10.00">/home/runner/work/cbmc</text>
<text text-anchor="middle" x="864" y="-172" font-family="Helvetica,sans-Serif" font-size="10.00">/cbmc/src/goto&#45;cc/compile.cpp</text>
</a>
</g>
</g>
<!-- Node1&#45;&gt;Node11 -->
<g id="edge10_Node000001_Node000011" class="edge">
<title>Node1&#45;&gt;Node11</title>
<g id="a_edge10_Node000001_Node000011"><a xlink:title=" ">
<path fill="none" stroke="#63b8ff" d="M604.03,-244.83C652.86,-234.27 716.73,-220.02 773,-206 786.51,-202.63 801.09,-198.75 814.52,-195.06"/>
<polygon fill="#63b8ff" stroke="#63b8ff" points="603.2,-241.42 594.16,-246.95 604.67,-248.27 603.2,-241.42"/>
</a>
</g>
</g>
<!-- Node4 -->
<g id="Node000004" class="node">
<title>Node4</title>
<g id="a_Node000004"><a xlink:href="lazy__goto__model_8h.html" target="_top" xlink:title="Author: Diffblue Ltd.">
<polygon fill="white" stroke="#666666" points="426,-118 262,-118 262,-77 426,-77 426,-118"/>
<text text-anchor="start" x="270" y="-106" font-family="Helvetica,sans-Serif" font-size="10.00">/home/runner/work/cbmc</text>
<text text-anchor="start" x="270" y="-95" font-family="Helvetica,sans-Serif" font-size="10.00">/cbmc/jbmc/src/java_bytecode</text>
<text text-anchor="middle" x="344" y="-84" font-family="Helvetica,sans-Serif" font-size="10.00">/lazy_goto_model.h</text>
</a>
</g>
</g>
<!-- Node3&#45;&gt;Node4 -->
<g id="edge3_Node000003_Node000004" class="edge">
<title>Node3&#45;&gt;Node4</title>
<g id="a_edge3_Node000003_Node000004"><a xlink:title=" ">
<path fill="none" stroke="#63b8ff" d="M344,-148.87C344,-138.6 344,-127.4 344,-118.17"/>
<polygon fill="#63b8ff" stroke="#63b8ff" points="340.5,-149.1 344,-159.1 347.5,-149.1 340.5,-149.1"/>
</a>
</g>
</g>
<!-- Node5 -->
<g id="Node000005" class="node">
<title>Node5</title>
<g id="a_Node000005"><a xlink:href="janalyzer__parse__options_8cpp.html" target="_top" xlink:title="JANALYZER Command Line Option Processing.">
<polygon fill="white" stroke="#666666" points="158,-41 0,-41 0,0 158,0 158,-41"/>
<text text-anchor="start" x="8" y="-29" font-family="Helvetica,sans-Serif" font-size="10.00">/home/runner/work/cbmc</text>
<text text-anchor="start" x="8" y="-18" font-family="Helvetica,sans-Serif" font-size="10.00">/cbmc/jbmc/src/janalyzer</text>
<text text-anchor="middle" x="79" y="-7" font-family="Helvetica,sans-Serif" font-size="10.00">/janalyzer_parse_options.cpp</text>
</a>
</g>
</g>
<!-- Node4&#45;&gt;Node5 -->
<g id="edge4_Node000004_Node000005" class="edge">
<title>Node4&#45;&gt;Node5</title>
<g id="a_edge4_Node000004_Node000005"><a xlink:title=" ">
<path fill="none" stroke="#63b8ff" d="M265.26,-74.21C228.02,-63.68 183.96,-51.21 148.05,-41.04"/>
<polygon fill="#63b8ff" stroke="#63b8ff" points="264.49,-77.63 275.07,-76.99 266.4,-70.9 264.49,-77.63"/>
</a>
</g>
</g>
<!-- Node6 -->
<g id="Node000006" class="node">
<title>Node6</title>
<g id="a_Node000006"><a xlink:href="lazy__goto__model_8cpp.html" target="_top" xlink:title="Author: Diffblue Ltd.">
<polygon fill="white" stroke="#666666" points="340,-41 176,-41 176,0 340,0 340,-41"/>
<text text-anchor="start" x="184" y="-29" font-family="Helvetica,sans-Serif" font-size="10.00">/home/runner/work/cbmc</text>
<text text-anchor="start" x="184" y="-18" font-family="Helvetica,sans-Serif" font-size="10.00">/cbmc/jbmc/src/java_bytecode</text>
<text text-anchor="middle" x="258" y="-7" font-family="Helvetica,sans-Serif" font-size="10.00">/lazy_goto_model.cpp</text>
</a>
</g>
</g>
<!-- Node4&#45;&gt;Node6 -->
<g id="edge5_Node000004_Node000006" class="edge">
<title>Node4&#45;&gt;Node6</title>
<g id="a_edge5_Node000004_Node000006"><a xlink:title=" ">
<path fill="none" stroke="#63b8ff" d="M313.69,-70.07C302.75,-60.52 290.6,-49.93 280.44,-41.07"/>
<polygon fill="#63b8ff" stroke="#63b8ff" points="311.57,-72.86 321.4,-76.79 316.17,-67.58 311.57,-72.86"/>
</a>
</g>
</g>
<!-- Node7 -->
<g id="Node000007" class="node">
<title>Node7</title>
<g id="a_Node000007"><a xlink:href="jbmc__parse__options_8cpp.html" target="_top" xlink:title="JBMC Command Line Option Processing.">
<polygon fill="white" stroke="#666666" points="502,-41 358,-41 358,0 502,0 502,-41"/>
<text text-anchor="start" x="366" y="-29" font-family="Helvetica,sans-Serif" font-size="10.00">/home/runner/work/cbmc</text>
<text text-anchor="start" x="366" y="-18" font-family="Helvetica,sans-Serif" font-size="10.00">/cbmc/jbmc/src/jbmc/jbmc</text>
<text text-anchor="middle" x="430" y="-7" font-family="Helvetica,sans-Serif" font-size="10.00">_parse_options.cpp</text>
</a>
</g>
</g>
<!-- Node4&#45;&gt;Node7 -->
<g id="edge6_Node000004_Node000007" class="edge">
<title>Node4&#45;&gt;Node7</title>
<g id="a_edge6_Node000004_Node000007"><a xlink:title=" ">
<path fill="none" stroke="#63b8ff" d="M374.31,-70.07C385.25,-60.52 397.4,-49.93 407.56,-41.07"/>
<polygon fill="#63b8ff" stroke="#63b8ff" points="371.83,-67.58 366.6,-76.79 376.43,-72.86 371.83,-67.58"/>
</a>
</g>
</g>
<!-- Node8 -->
<g id="Node000008" class="node">
<title>Node8</title>
<g id="a_Node000008"><a xlink:href="load__java__class_8cpp.html" target="_top" xlink:title=" ">
<polygon fill="white" stroke="#666666" points="676,-41 520,-41 520,0 676,0 676,-41"/>
<text text-anchor="start" x="528" y="-29" font-family="Helvetica,sans-Serif" font-size="10.00">/home/runner/work/cbmc</text>
<text text-anchor="start" x="528" y="-18" font-family="Helvetica,sans-Serif" font-size="10.00">/cbmc/jbmc/unit/java&#45;testing</text>
<text text-anchor="middle" x="598" y="-7" font-family="Helvetica,sans-Serif" font-size="10.00">&#45;utils/load_java_class.cpp</text>
</a>
</g>
</g>
<!-- Node4&#45;&gt;Node8 -->
<g id="edge7_Node000004_Node000008" class="edge">
<title>Node4&#45;&gt;Node8</title>
<g id="a_edge7_Node000004_Node000008"><a xlink:title=" ">
<path fill="none" stroke="#63b8ff" d="M419.93,-74.08C455.52,-63.57 497.54,-51.16 531.82,-41.04"/>
<polygon fill="#63b8ff" stroke="#63b8ff" points="418.67,-70.8 410.07,-76.99 420.65,-77.52 418.67,-70.8"/>
</a>
</g>
</g>
</g>
</svg>
