<?xml version="1.0" encoding="UTF-8" standalone="no"?>
<!DOCTYPE svg PUBLIC "-//W3C//DTD SVG 1.1//EN"
 "http://www.w3.org/Graphics/SVG/1.1/DTD/svg11.dtd">
<!-- Generated by graphviz version 2.43.0 (0)
 -->
<!-- Title: /home/runner/work/cbmc/cbmc/src/goto&#45;programs/system_library_symbols.cpp Pages: 1 -->
<svg width="1201pt" height="709pt"
 viewBox="0.00 0.00 1200.67 709.00" xmlns="http://www.w3.org/2000/svg" xmlns:xlink="http://www.w3.org/1999/xlink">
<g id="graph0" class="graph" transform="scale(1 1) rotate(0) translate(4 705)">
<title>/home/runner/work/cbmc/cbmc/src/goto&#45;programs/system_library_symbols.cpp</title>
<!-- Node1 -->
<g id="Node000001" class="node">
<title>Node1</title>
<g id="a_Node000001"><a xlink:title="Goto Programs.">
<polygon fill="#999999" stroke="#666666" points="410.5,-701 251.5,-701 251.5,-660 410.5,-660 410.5,-701"/>
<text text-anchor="start" x="259.5" y="-689" font-family="Helvetica,sans-Serif" font-size="10.00">/home/runner/work/cbmc</text>
<text text-anchor="start" x="259.5" y="-678" font-family="Helvetica,sans-Serif" font-size="10.00">/cbmc/src/goto&#45;programs</text>
<text text-anchor="middle" x="331" y="-667" font-family="Helvetica,sans-Serif" font-size="10.00">/system_library_symbols.cpp</text>
</a>
</g>
</g>
<!-- Node2 -->
<g id="Node000002" class="node">
<title>Node2</title>
<g id="a_Node000002"><a xlink:href="system__library__symbols_8h.html" target="_top" xlink:title="Goto Programs.">
<polygon fill="white" stroke="#666666" points="175.5,-349 30.5,-349 30.5,-330 175.5,-330 175.5,-349"/>
<text text-anchor="middle" x="103" y="-337" font-family="Helvetica,sans-Serif" font-size="10.00">system_library_symbols.h</text>
</a>
</g>
</g>
<!-- Node1&#45;&gt;Node2 -->
<g id="edge1_Node000001_Node000002" class="edge">
<title>Node1&#45;&gt;Node2</title>
<g id="a_edge1_Node000001_Node000002"><a xlink:title=" ">
<path fill="none" stroke="#63b8ff" d="M251.39,-666.97C192.33,-652.62 122,-622.5 122,-560.5 122,-560.5 122,-560.5 122,-448.5 122,-416.56 113.84,-380.1 108.22,-358.77"/>
<polygon fill="#63b8ff" stroke="#63b8ff" points="111.58,-357.81 105.56,-349.09 104.83,-359.66 111.58,-357.81"/>
</a>
</g>
</g>
<!-- Node11 -->
<g id="Node000011" class="node">
<title>Node11</title>
<g id="a_Node000011"><a xlink:title=" ">
<polygon fill="#e0e0e0" stroke="#999999" points="938,-74 882,-74 882,-55 938,-55 938,-74"/>
<text text-anchor="middle" x="910" y="-62" font-family="Helvetica,sans-Serif" font-size="10.00">sstream</text>
</a>
</g>
</g>
<!-- Node1&#45;&gt;Node11 -->
<g id="edge66_Node000001_Node000011" class="edge">
<title>Node1&#45;&gt;Node11</title>
<g id="a_edge66_Node000001_Node000011"><a xlink:title=" ">
<path fill="none" stroke="#63b8ff" d="M351.77,-659.72C415.28,-599.58 613.24,-414.46 789,-275 843.68,-231.61 884.99,-246.03 917,-184 933.55,-151.92 924.18,-108.26 916.6,-83.89"/>
<polygon fill="#63b8ff" stroke="#63b8ff" points="919.84,-82.53 913.35,-74.16 913.2,-84.75 919.84,-82.53"/>
</a>
</g>
</g>
<!-- Node28 -->
<g id="Node000028" class="node">
<title>Node28</title>
<g id="a_Node000028"><a xlink:href="cprover__prefix_8h.html" target="_top" xlink:title=" ">
<polygon fill="white" stroke="#666666" points="346,-624 232,-624 232,-605 346,-605 346,-624"/>
<text text-anchor="middle" x="289" y="-612" font-family="Helvetica,sans-Serif" font-size="10.00">util/cprover_prefix.h</text>
</a>
</g>
</g>
<!-- Node1&#45;&gt;Node28 -->
<g id="edge37_Node000001_Node000028" class="edge">
<title>Node1&#45;&gt;Node28</title>
<g id="a_edge37_Node000001_Node000028"><a xlink:title=" ">
<path fill="none" stroke="#63b8ff" d="M318.17,-659.95C312.49,-651.3 305.87,-641.2 300.37,-632.82"/>
<polygon fill="#63b8ff" stroke="#63b8ff" points="303.16,-630.7 294.75,-624.26 297.31,-634.54 303.16,-630.7"/>
</a>
</g>
</g>
<!-- Node29 -->
<g id="Node000029" class="node">
<title>Node29</title>
<g id="a_Node000029"><a xlink:href="prefix_8h.html" target="_top" xlink:title=" ">
<polygon fill="white" stroke="#666666" points="240,-569 168,-569 168,-550 240,-550 240,-569"/>
<text text-anchor="middle" x="204" y="-557" font-family="Helvetica,sans-Serif" font-size="10.00">util/prefix.h</text>
</a>
</g>
</g>
<!-- Node1&#45;&gt;Node29 -->
<g id="edge38_Node000001_Node000029" class="edge">
<title>Node1&#45;&gt;Node29</title>
<g id="a_edge38_Node000001_Node000029"><a xlink:title=" ">
<path fill="none" stroke="#63b8ff" d="M272.61,-659.93C254.55,-651.38 236,-639.65 223,-624 212.54,-611.42 207.84,-593.22 205.73,-579.53"/>
<polygon fill="#63b8ff" stroke="#63b8ff" points="209.17,-578.82 204.49,-569.31 202.22,-579.66 209.17,-578.82"/>
</a>
</g>
</g>
<!-- Node30 -->
<g id="Node000030" class="node">
<title>Node30</title>
<g id="a_Node000030"><a xlink:href="suffix_8h.html" target="_top" xlink:title=" ">
<polygon fill="white" stroke="#666666" points="380.5,-569 309.5,-569 309.5,-550 380.5,-550 380.5,-569"/>
<text text-anchor="middle" x="345" y="-557" font-family="Helvetica,sans-Serif" font-size="10.00">util/suffix.h</text>
</a>
</g>
</g>
<!-- Node1&#45;&gt;Node30 -->
<g id="edge40_Node000001_Node000030" class="edge">
<title>Node1&#45;&gt;Node30</title>
<g id="a_edge40_Node000001_Node000030"><a xlink:title=" ">
<path fill="none" stroke="#63b8ff" d="M341.84,-659.85C346.92,-649.52 352.43,-636.44 355,-624 358.11,-608.95 354.99,-591.73 351.43,-579.01"/>
<polygon fill="#63b8ff" stroke="#63b8ff" points="354.68,-577.67 348.34,-569.18 348,-579.76 354.68,-577.67"/>
</a>
</g>
</g>
<!-- Node31 -->
<g id="Node000031" class="node">
<title>Node31</title>
<g id="a_Node000031"><a xlink:href="symbol_8h.html" target="_top" xlink:title="Symbol table entry.">
<polygon fill="white" stroke="#666666" points="808,-624 728,-624 728,-605 808,-605 808,-624"/>
<text text-anchor="middle" x="768" y="-612" font-family="Helvetica,sans-Serif" font-size="10.00">util/symbol.h</text>
</a>
</g>
</g>
<!-- Node1&#45;&gt;Node31 -->
<g id="edge42_Node000001_Node000031" class="edge">
<title>Node1&#45;&gt;Node31</title>
<g id="a_edge42_Node000001_Node000031"><a xlink:title=" ">
<path fill="none" stroke="#63b8ff" d="M410.64,-667.84C500.11,-654.73 642.6,-633.86 717.78,-622.85"/>
<polygon fill="#63b8ff" stroke="#63b8ff" points="718.54,-626.28 727.93,-621.37 717.53,-619.35 718.54,-626.28"/>
</a>
</g>
</g>
<!-- Node3 -->
<g id="Node000003" class="node">
<title>Node3</title>
<g id="a_Node000003"><a xlink:title=" ">
<polygon fill="#e0e0e0" stroke="#999999" points="176,-74 144,-74 144,-55 176,-55 176,-74"/>
<text text-anchor="middle" x="160" y="-62" font-family="Helvetica,sans-Serif" font-size="10.00">list</text>
</a>
</g>
</g>
<!-- Node2&#45;&gt;Node3 -->
<g id="edge2_Node000002_Node000003" class="edge">
<title>Node2&#45;&gt;Node3</title>
<g id="a_edge2_Node000002_Node000003"><a xlink:title=" ">
<path fill="none" stroke="#63b8ff" d="M110.74,-329.99C125.67,-312.64 157,-271.38 157,-230.5 157,-230.5 157,-230.5 157,-173.5 157,-142.18 158.28,-105.77 159.16,-84.23"/>
<polygon fill="#63b8ff" stroke="#63b8ff" points="162.66,-84.32 159.6,-74.18 155.67,-84.02 162.66,-84.32"/>
</a>
</g>
</g>
<!-- Node4 -->
<g id="Node000004" class="node">
<title>Node4</title>
<g id="a_Node000004"><a xlink:title=" ">
<polygon fill="#e0e0e0" stroke="#999999" points="38,-294 0,-294 0,-275 38,-275 38,-294"/>
<text text-anchor="middle" x="19" y="-282" font-family="Helvetica,sans-Serif" font-size="10.00">map</text>
</a>
</g>
</g>
<!-- Node2&#45;&gt;Node4 -->
<g id="edge3_Node000002_Node000004" class="edge">
<title>Node2&#45;&gt;Node4</title>
<g id="a_edge3_Node000002_Node000004"><a xlink:title=" ">
<path fill="none" stroke="#63b8ff" d="M89.5,-329.98C76.6,-321.84 56.9,-309.41 41.6,-299.76"/>
<polygon fill="#63b8ff" stroke="#63b8ff" points="43.07,-296.55 32.74,-294.17 39.33,-302.47 43.07,-296.55"/>
</a>
</g>
</g>
<!-- Node5 -->
<g id="Node000005" class="node">
<title>Node5</title>
<g id="a_Node000005"><a xlink:title=" ">
<polygon fill="#e0e0e0" stroke="#999999" points="88,-294 56,-294 56,-275 88,-275 88,-294"/>
<text text-anchor="middle" x="72" y="-282" font-family="Helvetica,sans-Serif" font-size="10.00">set</text>
</a>
</g>
</g>
<!-- Node2&#45;&gt;Node5 -->
<g id="edge4_Node000002_Node000005" class="edge">
<title>Node2&#45;&gt;Node5</title>
<g id="a_edge4_Node000002_Node000005"><a xlink:title=" ">
<path fill="none" stroke="#63b8ff" d="M97.88,-329.75C93.64,-322.49 87.47,-311.95 82.22,-302.98"/>
<polygon fill="#63b8ff" stroke="#63b8ff" points="85.09,-300.95 77.02,-294.09 79.05,-304.49 85.09,-300.95"/>
</a>
</g>
</g>
<!-- Node6 -->
<g id="Node000006" class="node">
<title>Node6</title>
<g id="a_Node000006"><a xlink:title=" ">
<polygon fill="#e0e0e0" stroke="#999999" points="659,-19 615,-19 615,0 659,0 659,-19"/>
<text text-anchor="middle" x="637" y="-7" font-family="Helvetica,sans-Serif" font-size="10.00">string</text>
</a>
</g>
</g>
<!-- Node2&#45;&gt;Node6 -->
<g id="edge5_Node000002_Node000006" class="edge">
<title>Node2&#45;&gt;Node6</title>
<g id="a_edge5_Node000002_Node000006"><a xlink:title=" ">
<path fill="none" stroke="#63b8ff" d="M104.75,-329.86C108.3,-311.6 116,-267.7 116,-230.5 116,-230.5 116,-230.5 116,-118.5 116,-89.04 112.17,-73.62 135,-55 171.38,-25.33 499.62,-14.13 604.76,-11.29"/>
<polygon fill="#63b8ff" stroke="#63b8ff" points="604.87,-14.78 614.78,-11.02 604.69,-7.79 604.87,-14.78"/>
</a>
</g>
</g>
<!-- Node7 -->
<g id="Node000007" class="node">
<title>Node7</title>
<g id="a_Node000007"><a xlink:href="irep_8h.html" target="_top" xlink:title=" ">
<polygon fill="white" stroke="#666666" points="653.5,-294 590.5,-294 590.5,-275 653.5,-275 653.5,-294"/>
<text text-anchor="middle" x="622" y="-282" font-family="Helvetica,sans-Serif" font-size="10.00">util/irep.h</text>
</a>
</g>
</g>
<!-- Node2&#45;&gt;Node7 -->
<g id="edge6_Node000002_Node000007" class="edge">
<title>Node2&#45;&gt;Node7</title>
<g id="a_edge6_Node000002_Node000007"><a xlink:title=" ">
<path fill="none" stroke="#63b8ff" d="M175.71,-331.07C286.03,-319.81 492.14,-298.76 580.28,-289.76"/>
<polygon fill="#63b8ff" stroke="#63b8ff" points="580.84,-293.22 590.43,-288.72 580.13,-286.26 580.84,-293.22"/>
</a>
</g>
</g>
<!-- Node7&#45;&gt;Node6 -->
<g id="edge7_Node000007_Node000006" class="edge">
<title>Node7&#45;&gt;Node6</title>
<g id="a_edge7_Node000007_Node000006"><a xlink:title=" ">
<path fill="none" stroke="#63b8ff" d="M620.44,-274.99C617.08,-253.93 611.41,-198.69 637,-165 654.45,-142.03 677.39,-154.43 691,-129 710.18,-93.16 675.78,-49.21 653.6,-26.22"/>
<polygon fill="#63b8ff" stroke="#63b8ff" points="655.93,-23.6 646.38,-19.01 650.98,-28.55 655.93,-23.6"/>
</a>
</g>
</g>
<!-- Node8 -->
<g id="Node000008" class="node">
<title>Node8</title>
<g id="a_Node000008"><a xlink:title=" ">
<polygon fill="#e0e0e0" stroke="#999999" points="317.5,-74 270.5,-74 270.5,-55 317.5,-55 317.5,-74"/>
<text text-anchor="middle" x="294" y="-62" font-family="Helvetica,sans-Serif" font-size="10.00">vector</text>
</a>
</g>
</g>
<!-- Node7&#45;&gt;Node8 -->
<g id="edge8_Node000007_Node000008" class="edge">
<title>Node7&#45;&gt;Node8</title>
<g id="a_edge8_Node000007_Node000008"><a xlink:title=" ">
<path fill="none" stroke="#63b8ff" d="M590.26,-279.27C537.95,-270.67 433.4,-246.37 373,-184 346.54,-156.67 351.58,-141.32 330,-110 323.3,-100.28 315.07,-90.01 308.17,-81.78"/>
<polygon fill="#63b8ff" stroke="#63b8ff" points="310.74,-79.39 301.58,-74.06 305.41,-83.94 310.74,-79.39"/>
</a>
</g>
</g>
<!-- Node9 -->
<g id="Node000009" class="node">
<title>Node9</title>
<g id="a_Node000009"><a xlink:href="src_2util_2invariant_8h.html" target="_top" xlink:title=" ">
<polygon fill="white" stroke="#666666" points="1039.5,-129 970.5,-129 970.5,-110 1039.5,-110 1039.5,-129"/>
<text text-anchor="middle" x="1005" y="-117" font-family="Helvetica,sans-Serif" font-size="10.00">invariant.h</text>
</a>
</g>
</g>
<!-- Node7&#45;&gt;Node9 -->
<g id="edge9_Node000007_Node000009" class="edge">
<title>Node7&#45;&gt;Node9</title>
<g id="a_edge9_Node000007_Node000009"><a xlink:title=" ">
<path fill="none" stroke="#63b8ff" d="M621.63,-274.98C621.19,-252.92 623.36,-193.65 657,-165 701.75,-126.89 876.81,-120.95 960.27,-120.34"/>
<polygon fill="#63b8ff" stroke="#63b8ff" points="960.48,-123.83 970.46,-120.28 960.44,-116.83 960.48,-123.83"/>
</a>
</g>
</g>
<!-- Node13 -->
<g id="Node000013" class="node">
<title>Node13</title>
<g id="a_Node000013"><a xlink:href="irep__ids_8h.html" target="_top" xlink:title="util">
<polygon fill="white" stroke="#666666" points="534,-239 470,-239 470,-220 534,-220 534,-239"/>
<text text-anchor="middle" x="502" y="-227" font-family="Helvetica,sans-Serif" font-size="10.00">irep_ids.h</text>
</a>
</g>
</g>
<!-- Node7&#45;&gt;Node13 -->
<g id="edge14_Node000007_Node000013" class="edge">
<title>Node7&#45;&gt;Node13</title>
<g id="a_edge14_Node000007_Node000013"><a xlink:title=" ">
<path fill="none" stroke="#63b8ff" d="M602.72,-274.98C583.33,-266.42 553.19,-253.11 530.93,-243.28"/>
<polygon fill="#63b8ff" stroke="#63b8ff" points="532.19,-240.01 521.63,-239.17 529.36,-246.41 532.19,-240.01"/>
</a>
</g>
</g>
<!-- Node23 -->
<g id="Node000023" class="node">
<title>Node23</title>
<g id="a_Node000023"><a xlink:href="forward__list__as__map_8h.html" target="_top" xlink:title=" ">
<polygon fill="white" stroke="#666666" points="793.5,-239 666.5,-239 666.5,-220 793.5,-220 793.5,-239"/>
<text text-anchor="middle" x="730" y="-227" font-family="Helvetica,sans-Serif" font-size="10.00">forward_list_as_map.h</text>
</a>
</g>
</g>
<!-- Node7&#45;&gt;Node23 -->
<g id="edge30_Node000007_Node000023" class="edge">
<title>Node7&#45;&gt;Node23</title>
<g id="a_edge30_Node000007_Node000023"><a xlink:title=" ">
<path fill="none" stroke="#63b8ff" d="M639.35,-274.98C656.57,-266.54 683.2,-253.47 703.15,-243.68"/>
<polygon fill="#63b8ff" stroke="#63b8ff" points="704.9,-246.72 712.33,-239.17 701.81,-240.43 704.9,-246.72"/>
</a>
</g>
</g>
<!-- Node9&#45;&gt;Node6 -->
<g id="edge12_Node000009_Node000006" class="edge">
<title>Node9&#45;&gt;Node6</title>
<g id="a_edge12_Node000009_Node000006"><a xlink:title=" ">
<path fill="none" stroke="#63b8ff" d="M1010.17,-109.9C1017.51,-96.44 1028.65,-70.35 1015,-55 992.16,-29.31 756.74,-15.98 669.39,-11.89"/>
<polygon fill="#63b8ff" stroke="#63b8ff" points="669.4,-8.39 659.25,-11.43 669.08,-15.38 669.4,-8.39"/>
</a>
</g>
</g>
<!-- Node10 -->
<g id="Node000010" class="node">
<title>Node10</title>
<g id="a_Node000010"><a xlink:title=" ">
<polygon fill="#e0e0e0" stroke="#999999" points="1005.5,-74 956.5,-74 956.5,-55 1005.5,-55 1005.5,-74"/>
<text text-anchor="middle" x="981" y="-62" font-family="Helvetica,sans-Serif" font-size="10.00">cstdlib</text>
</a>
</g>
</g>
<!-- Node9&#45;&gt;Node10 -->
<g id="edge10_Node000009_Node000010" class="edge">
<title>Node9&#45;&gt;Node10</title>
<g id="a_edge10_Node000009_Node000010"><a xlink:title=" ">
<path fill="none" stroke="#63b8ff" d="M1001.04,-109.75C997.79,-102.57 993.08,-92.18 989.05,-83.27"/>
<polygon fill="#63b8ff" stroke="#63b8ff" points="992.2,-81.75 984.89,-74.09 985.83,-84.64 992.2,-81.75"/>
</a>
</g>
</g>
<!-- Node9&#45;&gt;Node11 -->
<g id="edge11_Node000009_Node000011" class="edge">
<title>Node9&#45;&gt;Node11</title>
<g id="a_edge11_Node000009_Node000011"><a xlink:title=" ">
<path fill="none" stroke="#63b8ff" d="M989.74,-109.98C974.87,-101.69 952.02,-88.94 934.58,-79.22"/>
<polygon fill="#63b8ff" stroke="#63b8ff" points="935.98,-75.99 925.54,-74.17 932.57,-82.1 935.98,-75.99"/>
</a>
</g>
</g>
<!-- Node12 -->
<g id="Node000012" class="node">
<title>Node12</title>
<g id="a_Node000012"><a xlink:title=" ">
<polygon fill="#e0e0e0" stroke="#999999" points="1131.5,-74 1062.5,-74 1062.5,-55 1131.5,-55 1131.5,-74"/>
<text text-anchor="middle" x="1097" y="-62" font-family="Helvetica,sans-Serif" font-size="10.00">type_traits</text>
</a>
</g>
</g>
<!-- Node9&#45;&gt;Node12 -->
<g id="edge13_Node000009_Node000012" class="edge">
<title>Node9&#45;&gt;Node12</title>
<g id="a_edge13_Node000009_Node000012"><a xlink:title=" ">
<path fill="none" stroke="#63b8ff" d="M1019.78,-109.98C1034.18,-101.69 1056.31,-88.94 1073.19,-79.22"/>
<polygon fill="#63b8ff" stroke="#63b8ff" points="1075.03,-82.19 1081.95,-74.17 1071.54,-76.13 1075.03,-82.19"/>
</a>
</g>
</g>
<!-- Node14 -->
<g id="Node000014" class="node">
<title>Node14</title>
<g id="a_Node000014"><a xlink:href="dstring_8h.html" target="_top" xlink:title="Container for C&#45;Strings.">
<polygon fill="white" stroke="#666666" points="533.5,-184 474.5,-184 474.5,-165 533.5,-165 533.5,-184"/>
<text text-anchor="middle" x="504" y="-172" font-family="Helvetica,sans-Serif" font-size="10.00">dstring.h</text>
</a>
</g>
</g>
<!-- Node13&#45;&gt;Node14 -->
<g id="edge15_Node000013_Node000014" class="edge">
<title>Node13&#45;&gt;Node14</title>
<g id="a_edge15_Node000013_Node000014"><a xlink:title=" ">
<path fill="none" stroke="#63b8ff" d="M502.33,-219.75C502.59,-212.8 502.97,-202.85 503.3,-194.13"/>
<polygon fill="#63b8ff" stroke="#63b8ff" points="506.8,-194.21 503.68,-184.09 499.8,-193.95 506.8,-194.21"/>
</a>
</g>
</g>
<!-- Node22 -->
<g id="Node000022" class="node">
<title>Node22</title>
<g id="a_Node000022"><a xlink:title=" ">
<polygon fill="#e0e0e0" stroke="#999999" points="456,-184 382,-184 382,-165 456,-165 456,-184"/>
<text text-anchor="middle" x="419" y="-172" font-family="Helvetica,sans-Serif" font-size="10.00">irep_ids.def</text>
</a>
</g>
</g>
<!-- Node13&#45;&gt;Node22 -->
<g id="edge29_Node000013_Node000022" class="edge">
<title>Node13&#45;&gt;Node22</title>
<g id="a_edge29_Node000013_Node000022"><a xlink:title=" ">
<path fill="none" stroke="#63b8ff" d="M488.66,-219.98C475.91,-211.84 456.45,-199.41 441.33,-189.76"/>
<polygon fill="#63b8ff" stroke="#63b8ff" points="442.89,-186.6 432.58,-184.17 439.12,-192.5 442.89,-186.6"/>
</a>
</g>
</g>
<!-- Node14&#45;&gt;Node6 -->
<g id="edge17_Node000014_Node000006" class="edge">
<title>Node14&#45;&gt;Node6</title>
<g id="a_edge17_Node000014_Node000006"><a xlink:title=" ">
<path fill="none" stroke="#63b8ff" d="M530.09,-164.9C565.4,-151.69 626.97,-122.69 653,-74 660.69,-59.62 654.74,-41.42 648.02,-28.19"/>
<polygon fill="#63b8ff" stroke="#63b8ff" points="650.91,-26.19 642.94,-19.2 644.81,-29.62 650.91,-26.19"/>
</a>
</g>
</g>
<!-- Node15 -->
<g id="Node000015" class="node">
<title>Node15</title>
<g id="a_Node000015"><a xlink:title=" ">
<polygon fill="#e0e0e0" stroke="#999999" points="682,-129 634,-129 634,-110 682,-110 682,-129"/>
<text text-anchor="middle" x="658" y="-117" font-family="Helvetica,sans-Serif" font-size="10.00">iosfwd</text>
</a>
</g>
</g>
<!-- Node14&#45;&gt;Node15 -->
<g id="edge16_Node000014_Node000015" class="edge">
<title>Node14&#45;&gt;Node15</title>
<g id="a_edge16_Node000014_Node000015"><a xlink:title=" ">
<path fill="none" stroke="#63b8ff" d="M528.74,-164.98C554.6,-156.09 595.35,-142.06 624.17,-132.14"/>
<polygon fill="#63b8ff" stroke="#63b8ff" points="625.51,-135.38 633.83,-128.82 623.23,-128.76 625.51,-135.38"/>
</a>
</g>
</g>
<!-- Node16 -->
<g id="Node000016" class="node">
<title>Node16</title>
<g id="a_Node000016"><a xlink:href="magic_8h.html" target="_top" xlink:title="Magic numbers used throughout the codebase.">
<polygon fill="white" stroke="#666666" points="288,-129 232,-129 232,-110 288,-110 288,-129"/>
<text text-anchor="middle" x="260" y="-117" font-family="Helvetica,sans-Serif" font-size="10.00">magic.h</text>
</a>
</g>
</g>
<!-- Node14&#45;&gt;Node16 -->
<g id="edge18_Node000014_Node000016" class="edge">
<title>Node14&#45;&gt;Node16</title>
<g id="a_edge18_Node000014_Node000016"><a xlink:title=" ">
<path fill="none" stroke="#63b8ff" d="M474.19,-167C471.09,-166.32 467.98,-165.65 465,-165 406.77,-152.33 339.22,-137.68 298.06,-128.75"/>
<polygon fill="#63b8ff" stroke="#63b8ff" points="298.7,-125.31 288.19,-126.61 297.22,-132.15 298.7,-125.31"/>
</a>
</g>
</g>
<!-- Node18 -->
<g id="Node000018" class="node">
<title>Node18</title>
<g id="a_Node000018"><a xlink:href="string__container_8h.html" target="_top" xlink:title="Container for C&#45;Strings.">
<polygon fill="white" stroke="#666666" points="518,-129 414,-129 414,-110 518,-110 518,-129"/>
<text text-anchor="middle" x="466" y="-117" font-family="Helvetica,sans-Serif" font-size="10.00">string_container.h</text>
</a>
</g>
</g>
<!-- Node14&#45;&gt;Node18 -->
<g id="edge20_Node000014_Node000018" class="edge">
<title>Node14&#45;&gt;Node18</title>
<g id="a_edge20_Node000014_Node000018"><a xlink:title=" ">
<path fill="none" stroke="#63b8ff" d="M497.73,-164.75C492.41,-157.34 484.64,-146.5 478.12,-137.41"/>
<polygon fill="#63b8ff" stroke="#63b8ff" points="480.83,-135.18 472.16,-129.09 475.14,-139.26 480.83,-135.18"/>
</a>
</g>
</g>
<!-- Node17 -->
<g id="Node000017" class="node">
<title>Node17</title>
<g id="a_Node000017"><a xlink:title=" ">
<polygon fill="#e0e0e0" stroke="#999999" points="257.5,-19 204.5,-19 204.5,0 257.5,0 257.5,-19"/>
<text text-anchor="middle" x="231" y="-7" font-family="Helvetica,sans-Serif" font-size="10.00">cstddef</text>
</a>
</g>
</g>
<!-- Node16&#45;&gt;Node17 -->
<g id="edge19_Node000016_Node000017" class="edge">
<title>Node16&#45;&gt;Node17</title>
<g id="a_edge19_Node000016_Node000017"><a xlink:title=" ">
<path fill="none" stroke="#63b8ff" d="M231.88,-117.38C202.23,-114.51 156.84,-104.96 135,-74 116.29,-47.47 159.99,-29.04 194.42,-19.11"/>
<polygon fill="#63b8ff" stroke="#63b8ff" points="195.55,-22.43 204.28,-16.42 193.71,-15.68 195.55,-22.43"/>
</a>
</g>
</g>
<!-- Node18&#45;&gt;Node3 -->
<g id="edge21_Node000018_Node000003" class="edge">
<title>Node18&#45;&gt;Node3</title>
<g id="a_edge21_Node000018_Node000003"><a xlink:title=" ">
<path fill="none" stroke="#63b8ff" d="M416.84,-109.98C351.22,-98.62 237.37,-78.9 186.21,-70.04"/>
<polygon fill="#63b8ff" stroke="#63b8ff" points="186.74,-66.58 176.29,-68.32 185.55,-73.48 186.74,-66.58"/>
</a>
</g>
</g>
<!-- Node18&#45;&gt;Node8 -->
<g id="edge23_Node000018_Node000008" class="edge">
<title>Node18&#45;&gt;Node8</title>
<g id="a_edge23_Node000018_Node000008"><a xlink:title=" ">
<path fill="none" stroke="#63b8ff" d="M438.37,-109.98C408.2,-100.69 359.91,-85.81 327.58,-75.85"/>
<polygon fill="#63b8ff" stroke="#63b8ff" points="328.28,-72.4 317.69,-72.8 326.22,-79.09 328.28,-72.4"/>
</a>
</g>
</g>
<!-- Node19 -->
<g id="Node000019" class="node">
<title>Node19</title>
<g id="a_Node000019"><a xlink:title=" ">
<polygon fill="#e0e0e0" stroke="#999999" points="543.5,-74 450.5,-74 450.5,-55 543.5,-55 543.5,-74"/>
<text text-anchor="middle" x="497" y="-62" font-family="Helvetica,sans-Serif" font-size="10.00">unordered_map</text>
</a>
</g>
</g>
<!-- Node18&#45;&gt;Node19 -->
<g id="edge22_Node000018_Node000019" class="edge">
<title>Node18&#45;&gt;Node19</title>
<g id="a_edge22_Node000018_Node000019"><a xlink:title=" ">
<path fill="none" stroke="#63b8ff" d="M471.12,-109.75C475.36,-102.49 481.53,-91.95 486.78,-82.98"/>
<polygon fill="#63b8ff" stroke="#63b8ff" points="489.95,-84.49 491.98,-74.09 483.91,-80.95 489.95,-84.49"/>
</a>
</g>
</g>
<!-- Node20 -->
<g id="Node000020" class="node">
<title>Node20</title>
<g id="a_Node000020"><a xlink:href="memory__units_8h.html" target="_top" xlink:title=" ">
<polygon fill="white" stroke="#666666" points="432,-74 336,-74 336,-55 432,-55 432,-74"/>
<text text-anchor="middle" x="384" y="-62" font-family="Helvetica,sans-Serif" font-size="10.00">memory_units.h</text>
</a>
</g>
</g>
<!-- Node18&#45;&gt;Node20 -->
<g id="edge24_Node000018_Node000020" class="edge">
<title>Node18&#45;&gt;Node20</title>
<g id="a_edge24_Node000018_Node000020"><a xlink:title=" ">
<path fill="none" stroke="#63b8ff" d="M452.83,-109.98C440.23,-101.84 421,-89.41 406.06,-79.76"/>
<polygon fill="#63b8ff" stroke="#63b8ff" points="407.71,-76.66 397.41,-74.17 403.91,-82.54 407.71,-76.66"/>
</a>
</g>
</g>
<!-- Node21 -->
<g id="Node000021" class="node">
<title>Node21</title>
<g id="a_Node000021"><a xlink:href="string__hash_8h.html" target="_top" xlink:title="string hashing">
<polygon fill="white" stroke="#666666" points="644,-74 562,-74 562,-55 644,-55 644,-74"/>
<text text-anchor="middle" x="603" y="-62" font-family="Helvetica,sans-Serif" font-size="10.00">string_hash.h</text>
</a>
</g>
</g>
<!-- Node18&#45;&gt;Node21 -->
<g id="edge27_Node000018_Node000021" class="edge">
<title>Node18&#45;&gt;Node21</title>
<g id="a_edge27_Node000018_Node000021"><a xlink:title=" ">
<path fill="none" stroke="#63b8ff" d="M488.01,-109.98C510.45,-101.3 545.48,-87.75 570.99,-77.88"/>
<polygon fill="#63b8ff" stroke="#63b8ff" points="572.52,-81.04 580.59,-74.17 570,-74.51 572.52,-81.04"/>
</a>
</g>
</g>
<!-- Node20&#45;&gt;Node6 -->
<g id="edge26_Node000020_Node000006" class="edge">
<title>Node20&#45;&gt;Node6</title>
<g id="a_edge26_Node000020_Node000006"><a xlink:title=" ">
<path fill="none" stroke="#63b8ff" d="M424.65,-54.98C474.8,-44.48 559.04,-26.83 604.89,-17.23"/>
<polygon fill="#63b8ff" stroke="#63b8ff" points="605.81,-20.61 614.88,-15.13 604.37,-13.76 605.81,-20.61"/>
</a>
</g>
</g>
<!-- Node20&#45;&gt;Node17 -->
<g id="edge25_Node000020_Node000017" class="edge">
<title>Node20&#45;&gt;Node17</title>
<g id="a_edge25_Node000020_Node000017"><a xlink:title=" ">
<path fill="none" stroke="#63b8ff" d="M359.42,-54.98C333.95,-46.16 293.96,-32.31 265.37,-22.41"/>
<polygon fill="#63b8ff" stroke="#63b8ff" points="266.37,-19.05 255.77,-19.08 264.08,-25.66 266.37,-19.05"/>
</a>
</g>
</g>
<!-- Node21&#45;&gt;Node6 -->
<g id="edge28_Node000021_Node000006" class="edge">
<title>Node21&#45;&gt;Node6</title>
<g id="a_edge28_Node000021_Node000006"><a xlink:title=" ">
<path fill="none" stroke="#63b8ff" d="M608.61,-54.75C613.32,-47.42 620.17,-36.73 625.97,-27.7"/>
<polygon fill="#63b8ff" stroke="#63b8ff" points="629.04,-29.4 631.49,-19.09 623.14,-25.62 629.04,-29.4"/>
</a>
</g>
</g>
<!-- Node24 -->
<g id="Node000024" class="node">
<title>Node24</title>
<g id="a_Node000024"><a xlink:title=" ">
<polygon fill="#e0e0e0" stroke="#999999" points="730,-184 666,-184 666,-165 730,-165 730,-184"/>
<text text-anchor="middle" x="698" y="-172" font-family="Helvetica,sans-Serif" font-size="10.00">algorithm</text>
</a>
</g>
</g>
<!-- Node23&#45;&gt;Node24 -->
<g id="edge31_Node000023_Node000024" class="edge">
<title>Node23&#45;&gt;Node24</title>
<g id="a_edge31_Node000023_Node000024"><a xlink:title=" ">
<path fill="none" stroke="#63b8ff" d="M724.72,-219.75C720.29,-212.42 713.84,-201.73 708.38,-192.7"/>
<polygon fill="#63b8ff" stroke="#63b8ff" points="711.35,-190.84 703.19,-184.09 705.36,-194.46 711.35,-190.84"/>
</a>
</g>
</g>
<!-- Node25 -->
<g id="Node000025" class="node">
<title>Node25</title>
<g id="a_Node000025"><a xlink:title=" ">
<polygon fill="#e0e0e0" stroke="#999999" points="822,-184 748,-184 748,-165 822,-165 822,-184"/>
<text text-anchor="middle" x="785" y="-172" font-family="Helvetica,sans-Serif" font-size="10.00">forward_list</text>
</a>
</g>
</g>
<!-- Node23&#45;&gt;Node25 -->
<g id="edge32_Node000023_Node000025" class="edge">
<title>Node23&#45;&gt;Node25</title>
<g id="a_edge32_Node000023_Node000025"><a xlink:title=" ">
<path fill="none" stroke="#63b8ff" d="M739.08,-219.75C747.09,-212.03 758.96,-200.6 768.62,-191.28"/>
<polygon fill="#63b8ff" stroke="#63b8ff" points="771.31,-193.55 776.09,-184.09 766.46,-188.51 771.31,-193.55"/>
</a>
</g>
</g>
<!-- Node26 -->
<g id="Node000026" class="node">
<title>Node26</title>
<g id="a_Node000026"><a xlink:href="as__const_8h.html" target="_top" xlink:title=" ">
<polygon fill="white" stroke="#666666" points="908,-184 840,-184 840,-165 908,-165 908,-184"/>
<text text-anchor="middle" x="874" y="-172" font-family="Helvetica,sans-Serif" font-size="10.00">as_const.h</text>
</a>
</g>
</g>
<!-- Node23&#45;&gt;Node26 -->
<g id="edge33_Node000023_Node000026" class="edge">
<title>Node23&#45;&gt;Node26</title>
<g id="a_edge33_Node000023_Node000026"><a xlink:title=" ">
<path fill="none" stroke="#63b8ff" d="M753.14,-219.98C776.82,-211.27 813.87,-197.63 840.71,-187.75"/>
<polygon fill="#63b8ff" stroke="#63b8ff" points="842.27,-190.91 850.44,-184.17 839.85,-184.34 842.27,-190.91"/>
</a>
</g>
</g>
<!-- Node27 -->
<g id="Node000027" class="node">
<title>Node27</title>
<g id="a_Node000027"><a xlink:href="narrow_8h.html" target="_top" xlink:title=" ">
<polygon fill="white" stroke="#666666" points="1099.5,-184 1040.5,-184 1040.5,-165 1099.5,-165 1099.5,-184"/>
<text text-anchor="middle" x="1070" y="-172" font-family="Helvetica,sans-Serif" font-size="10.00">narrow.h</text>
</a>
</g>
</g>
<!-- Node23&#45;&gt;Node27 -->
<g id="edge34_Node000023_Node000027" class="edge">
<title>Node23&#45;&gt;Node27</title>
<g id="a_edge34_Node000023_Node000027"><a xlink:title=" ">
<path fill="none" stroke="#63b8ff" d="M784.63,-219.98C853.3,-209.28 969.53,-191.16 1030.3,-181.69"/>
<polygon fill="#63b8ff" stroke="#63b8ff" points="1030.93,-185.13 1040.27,-180.13 1029.85,-178.22 1030.93,-185.13"/>
</a>
</g>
</g>
<!-- Node27&#45;&gt;Node9 -->
<g id="edge36_Node000027_Node000009" class="edge">
<title>Node27&#45;&gt;Node9</title>
<g id="a_edge36_Node000027_Node000009"><a xlink:title=" ">
<path fill="none" stroke="#63b8ff" d="M1059.56,-164.98C1049.85,-157.07 1035.18,-145.11 1023.5,-135.58"/>
<polygon fill="#63b8ff" stroke="#63b8ff" points="1025.6,-132.78 1015.63,-129.17 1021.17,-138.2 1025.6,-132.78"/>
</a>
</g>
</g>
<!-- Node27&#45;&gt;Node12 -->
<g id="edge35_Node000027_Node000012" class="edge">
<title>Node27&#45;&gt;Node12</title>
<g id="a_edge35_Node000027_Node000012"><a xlink:title=" ">
<path fill="none" stroke="#63b8ff" d="M1072.21,-164.66C1076.6,-147.09 1086.51,-107.45 1092.39,-83.95"/>
<polygon fill="#63b8ff" stroke="#63b8ff" points="1095.81,-84.71 1094.84,-74.16 1089.01,-83.01 1095.81,-84.71"/>
</a>
</g>
</g>
<!-- Node29&#45;&gt;Node6 -->
<g id="edge39_Node000029_Node000006" class="edge">
<title>Node29&#45;&gt;Node6</title>
<g id="a_edge39_Node000029_Node000006"><a xlink:title=" ">
<path fill="none" stroke="#63b8ff" d="M204,-549.82C204,-531.48 204,-487.44 204,-450.5 204,-450.5 204,-450.5 204,-118.5 204,-83.12 221.29,-72.56 252,-55 311.96,-20.73 523.32,-12.81 604.71,-11.01"/>
<polygon fill="#63b8ff" stroke="#63b8ff" points="604.94,-14.51 614.87,-10.81 604.8,-7.51 604.94,-14.51"/>
</a>
</g>
</g>
<!-- Node30&#45;&gt;Node6 -->
<g id="edge41_Node000030_Node000006" class="edge">
<title>Node30&#45;&gt;Node6</title>
<g id="a_edge41_Node000030_Node000006"><a xlink:title=" ">
<path fill="none" stroke="#63b8ff" d="M340.97,-549.75C333,-531.64 316,-488.55 316,-450.5 316,-450.5 316,-450.5 316,-173.5 316,-144.04 312.1,-135.3 297,-110 282.03,-84.91 241.59,-76.84 261,-55 283.71,-29.44 517.89,-16.03 604.79,-11.91"/>
<polygon fill="#63b8ff" stroke="#63b8ff" points="605.04,-15.4 614.86,-11.44 604.71,-8.41 605.04,-15.4"/>
</a>
</g>
</g>
<!-- Node31&#45;&gt;Node9 -->
<g id="edge65_Node000031_Node000009" class="edge">
<title>Node31&#45;&gt;Node9</title>
<g id="a_edge65_Node000031_Node000009"><a xlink:title=" ">
<path fill="none" stroke="#63b8ff" d="M808.35,-610.54C905.6,-602.29 1145,-574.95 1145,-505.5 1145,-505.5 1145,-505.5 1145,-448.5 1145,-385.25 1073.64,-277.3 1032,-184 1025.21,-168.79 1017.83,-151.36 1012.5,-138.62"/>
<polygon fill="#63b8ff" stroke="#63b8ff" points="1015.64,-137.06 1008.57,-129.17 1009.18,-139.75 1015.64,-137.06"/>
</a>
</g>
</g>
<!-- Node31&#45;&gt;Node15 -->
<g id="edge43_Node000031_Node000015" class="edge">
<title>Node31&#45;&gt;Node15</title>
<g id="a_edge43_Node000031_Node000015"><a xlink:title=" ">
<path fill="none" stroke="#63b8ff" d="M748.86,-604.83C719,-590.32 661.47,-558.31 630,-514 568.64,-427.62 562,-391.46 562,-285.5 562,-285.5 562,-285.5 562,-228.5 562,-185.72 604.6,-152.01 633.05,-134.27"/>
<polygon fill="#63b8ff" stroke="#63b8ff" points="634.93,-137.22 641.71,-129.08 631.34,-131.21 634.93,-137.22"/>
</a>
</g>
</g>
<!-- Node32 -->
<g id="Node000032" class="node">
<title>Node32</title>
<g id="a_Node000032"><a xlink:href="expr_8h.html" target="_top" xlink:title=" ">
<polygon fill="white" stroke="#666666" points="892.5,-569 845.5,-569 845.5,-550 892.5,-550 892.5,-569"/>
<text text-anchor="middle" x="869" y="-557" font-family="Helvetica,sans-Serif" font-size="10.00">expr.h</text>
</a>
</g>
</g>
<!-- Node31&#45;&gt;Node32 -->
<g id="edge44_Node000031_Node000032" class="edge">
<title>Node31&#45;&gt;Node32</title>
<g id="a_edge44_Node000031_Node000032"><a xlink:title=" ">
<path fill="none" stroke="#63b8ff" d="M784.23,-604.98C800.18,-596.61 824.78,-583.7 843.38,-573.95"/>
<polygon fill="#63b8ff" stroke="#63b8ff" points="845.25,-576.92 852.48,-569.17 842,-570.72 845.25,-576.92"/>
</a>
</g>
</g>
<!-- Node32&#45;&gt;Node26 -->
<g id="edge45_Node000032_Node000026" class="edge">
<title>Node32&#45;&gt;Node26</title>
<g id="a_edge45_Node000032_Node000026"><a xlink:title=" ">
<path fill="none" stroke="#63b8ff" d="M845.45,-551.84C806.28,-539.16 732,-507.59 732,-450.5 732,-450.5 732,-450.5 732,-338.5 732,-308.33 738,-299.21 756,-275 771.7,-253.88 782.73,-255.78 803,-239 821.95,-223.31 842.86,-204.4 857.05,-191.32"/>
<polygon fill="#63b8ff" stroke="#63b8ff" points="859.6,-193.73 864.56,-184.36 854.84,-188.59 859.6,-193.73"/>
</a>
</g>
</g>
<!-- Node33 -->
<g id="Node000033" class="node">
<title>Node33</title>
<g id="a_Node000033"><a xlink:href="type_8h.html" target="_top" xlink:title="Defines typet, type_with_subtypet and type_with_subtypest.">
<polygon fill="white" stroke="#666666" points="892.5,-514 845.5,-514 845.5,-495 892.5,-495 892.5,-514"/>
<text text-anchor="middle" x="869" y="-502" font-family="Helvetica,sans-Serif" font-size="10.00">type.h</text>
</a>
</g>
</g>
<!-- Node32&#45;&gt;Node33 -->
<g id="edge46_Node000032_Node000033" class="edge">
<title>Node32&#45;&gt;Node33</title>
<g id="a_edge46_Node000032_Node000033"><a xlink:title=" ">
<path fill="none" stroke="#63b8ff" d="M869,-549.75C869,-542.8 869,-532.85 869,-524.13"/>
<polygon fill="#63b8ff" stroke="#63b8ff" points="872.5,-524.09 869,-514.09 865.5,-524.09 872.5,-524.09"/>
</a>
</g>
</g>
<!-- Node39 -->
<g id="Node000039" class="node">
<title>Node39</title>
<g id="a_Node000039"><a xlink:href="validation__mode_8h.html" target="_top" xlink:title=" ">
<polygon fill="white" stroke="#666666" points="1116.5,-404 1009.5,-404 1009.5,-385 1116.5,-385 1116.5,-404"/>
<text text-anchor="middle" x="1063" y="-392" font-family="Helvetica,sans-Serif" font-size="10.00">validation_mode.h</text>
</a>
</g>
</g>
<!-- Node32&#45;&gt;Node39 -->
<g id="edge63_Node000032_Node000039" class="edge">
<title>Node32&#45;&gt;Node39</title>
<g id="a_edge63_Node000032_Node000039"><a xlink:title=" ">
<path fill="none" stroke="#63b8ff" d="M883.54,-549.97C911.19,-533.77 969.42,-499.75 979,-495 1016.13,-476.6 1042.04,-493.5 1065,-459 1073.78,-445.81 1072.08,-427.44 1068.89,-413.85"/>
<polygon fill="#63b8ff" stroke="#63b8ff" points="1072.25,-412.85 1066.19,-404.16 1065.51,-414.73 1072.25,-412.85"/>
</a>
</g>
</g>
<!-- Node40 -->
<g id="Node000040" class="node">
<title>Node40</title>
<g id="a_Node000040"><a xlink:href="validate__types_8h.html" target="_top" xlink:title=" ">
<polygon fill="white" stroke="#666666" points="1056,-459 958,-459 958,-440 1056,-440 1056,-459"/>
<text text-anchor="middle" x="1007" y="-447" font-family="Helvetica,sans-Serif" font-size="10.00">validate_types.h</text>
</a>
</g>
</g>
<!-- Node32&#45;&gt;Node40 -->
<g id="edge62_Node000032_Node000040" class="edge">
<title>Node32&#45;&gt;Node40</title>
<g id="a_edge62_Node000032_Node000040"><a xlink:title=" ">
<path fill="none" stroke="#63b8ff" d="M879.13,-549.63C893.52,-537.12 920.81,-513.75 945,-495 958.35,-484.65 973.78,-473.57 985.91,-465.06"/>
<polygon fill="#63b8ff" stroke="#63b8ff" points="988.25,-467.69 994.45,-459.1 984.25,-461.95 988.25,-467.69"/>
</a>
</g>
</g>
<!-- Node41 -->
<g id="Node000041" class="node">
<title>Node41</title>
<g id="a_Node000041"><a xlink:href="validate__expressions_8h.html" target="_top" xlink:title=" ">
<polygon fill="white" stroke="#666666" points="1116.5,-514 987.5,-514 987.5,-495 1116.5,-495 1116.5,-514"/>
<text text-anchor="middle" x="1052" y="-502" font-family="Helvetica,sans-Serif" font-size="10.00">validate_expressions.h</text>
</a>
</g>
</g>
<!-- Node32&#45;&gt;Node41 -->
<g id="edge61_Node000032_Node000041" class="edge">
<title>Node32&#45;&gt;Node41</title>
<g id="a_edge61_Node000032_Node000041"><a xlink:title=" ">
<path fill="none" stroke="#63b8ff" d="M892.55,-551.68C922.9,-542.89 976.11,-527.48 1012.66,-516.89"/>
<polygon fill="#63b8ff" stroke="#63b8ff" points="1013.86,-520.19 1022.49,-514.05 1011.91,-513.47 1013.86,-520.19"/>
</a>
</g>
</g>
<!-- Node42 -->
<g id="Node000042" class="node">
<title>Node42</title>
<g id="a_Node000042"><a xlink:title=" ">
<polygon fill="#e0e0e0" stroke="#999999" points="703.5,-514 638.5,-514 638.5,-495 703.5,-495 703.5,-514"/>
<text text-anchor="middle" x="671" y="-502" font-family="Helvetica,sans-Serif" font-size="10.00">functional</text>
</a>
</g>
</g>
<!-- Node32&#45;&gt;Node42 -->
<g id="edge64_Node000032_Node000042" class="edge">
<title>Node32&#45;&gt;Node42</title>
<g id="a_edge64_Node000032_Node000042"><a xlink:title=" ">
<path fill="none" stroke="#63b8ff" d="M845.12,-552.11C812.31,-543.33 752.8,-527.4 712.6,-516.63"/>
<polygon fill="#63b8ff" stroke="#63b8ff" points="713.38,-513.22 702.82,-514.02 711.57,-519.98 713.38,-513.22"/>
</a>
</g>
</g>
<!-- Node34 -->
<g id="Node000034" class="node">
<title>Node34</title>
<g id="a_Node000034"><a xlink:href="source__location_8h.html" target="_top" xlink:title=" ">
<polygon fill="white" stroke="#666666" points="942,-349 840,-349 840,-330 942,-330 942,-349"/>
<text text-anchor="middle" x="891" y="-337" font-family="Helvetica,sans-Serif" font-size="10.00">source_location.h</text>
</a>
</g>
</g>
<!-- Node33&#45;&gt;Node34 -->
<g id="edge47_Node000033_Node000034" class="edge">
<title>Node33&#45;&gt;Node34</title>
<g id="a_edge47_Node000033_Node000034"><a xlink:title=" ">
<path fill="none" stroke="#63b8ff" d="M857.07,-494.8C847.17,-486.77 833.81,-473.87 828,-459 824.93,-451.13 827.24,-448.41 828,-440 830.23,-415.26 825.52,-406.49 838,-385 845.07,-372.82 856.77,-362.47 867.39,-354.82"/>
<polygon fill="#63b8ff" stroke="#63b8ff" points="869.6,-357.55 875.92,-349.05 865.67,-351.76 869.6,-357.55"/>
</a>
</g>
</g>
<!-- Node37 -->
<g id="Node000037" class="node">
<title>Node37</title>
<g id="a_Node000037"><a xlink:href="validate_8h.html" target="_top" xlink:title=" ">
<polygon fill="white" stroke="#666666" points="901.5,-459 836.5,-459 836.5,-440 901.5,-440 901.5,-459"/>
<text text-anchor="middle" x="869" y="-447" font-family="Helvetica,sans-Serif" font-size="10.00">validate.h</text>
</a>
</g>
</g>
<!-- Node33&#45;&gt;Node37 -->
<g id="edge52_Node000033_Node000037" class="edge">
<title>Node33&#45;&gt;Node37</title>
<g id="a_edge52_Node000033_Node000037"><a xlink:title=" ">
<path fill="none" stroke="#63b8ff" d="M869,-494.75C869,-487.8 869,-477.85 869,-469.13"/>
<polygon fill="#63b8ff" stroke="#63b8ff" points="872.5,-469.09 869,-459.09 865.5,-469.09 872.5,-469.09"/>
</a>
</g>
</g>
<!-- Node33&#45;&gt;Node39 -->
<g id="edge60_Node000033_Node000039" class="edge">
<title>Node33&#45;&gt;Node39</title>
<g id="a_edge60_Node000033_Node000039"><a xlink:title=" ">
<path fill="none" stroke="#63b8ff" d="M878.17,-494.68C892.39,-481.39 921.02,-456.08 949,-440 972.91,-426.26 1001.88,-415.01 1024.63,-407.27"/>
<polygon fill="#63b8ff" stroke="#63b8ff" points="1025.9,-410.53 1034.29,-404.06 1023.69,-403.89 1025.9,-410.53"/>
</a>
</g>
</g>
<!-- Node33&#45;&gt;Node40 -->
<g id="edge59_Node000033_Node000040" class="edge">
<title>Node33&#45;&gt;Node40</title>
<g id="a_edge59_Node000033_Node000040"><a xlink:title=" ">
<path fill="none" stroke="#63b8ff" d="M891.17,-494.98C913.77,-486.3 949.06,-472.75 974.75,-462.88"/>
<polygon fill="#63b8ff" stroke="#63b8ff" points="976.34,-466.02 984.42,-459.17 973.83,-459.49 976.34,-466.02"/>
</a>
</g>
</g>
<!-- Node34&#45;&gt;Node6 -->
<g id="edge51_Node000034_Node000006" class="edge">
<title>Node34&#45;&gt;Node6</title>
<g id="a_edge51_Node000034_Node000006"><a xlink:title=" ">
<path fill="none" stroke="#63b8ff" d="M909.73,-329.81C982.63,-294.92 1238.71,-161.72 1141,-55 1109.14,-20.2 775.7,-12.47 669.38,-10.88"/>
<polygon fill="#63b8ff" stroke="#63b8ff" points="669.3,-7.38 659.25,-10.74 669.2,-14.38 669.3,-7.38"/>
</a>
</g>
</g>
<!-- Node34&#45;&gt;Node7 -->
<g id="edge49_Node000034_Node000007" class="edge">
<title>Node34&#45;&gt;Node7</title>
<g id="a_edge49_Node000034_Node000007"><a xlink:title=" ">
<path fill="none" stroke="#63b8ff" d="M847.78,-329.98C797.07,-319.99 713.57,-303.54 663.58,-293.69"/>
<polygon fill="#63b8ff" stroke="#63b8ff" points="664.23,-290.25 653.74,-291.75 662.88,-297.12 664.23,-290.25"/>
</a>
</g>
</g>
<!-- Node35 -->
<g id="Node000035" class="node">
<title>Node35</title>
<g id="a_Node000035"><a xlink:href="deprecate_8h.html" target="_top" xlink:title=" ">
<polygon fill="white" stroke="#666666" points="872,-294 798,-294 798,-275 872,-275 872,-294"/>
<text text-anchor="middle" x="835" y="-282" font-family="Helvetica,sans-Serif" font-size="10.00">deprecate.h</text>
</a>
</g>
</g>
<!-- Node34&#45;&gt;Node35 -->
<g id="edge48_Node000034_Node000035" class="edge">
<title>Node34&#45;&gt;Node35</title>
<g id="a_edge48_Node000034_Node000035"><a xlink:title=" ">
<path fill="none" stroke="#63b8ff" d="M882,-329.98C873.81,-322.23 861.49,-310.58 851.53,-301.14"/>
<polygon fill="#63b8ff" stroke="#63b8ff" points="853.83,-298.5 844.16,-294.17 849.02,-303.59 853.83,-298.5"/>
</a>
</g>
</g>
<!-- Node36 -->
<g id="Node000036" class="node">
<title>Node36</title>
<g id="a_Node000036"><a xlink:title=" ">
<polygon fill="#e0e0e0" stroke="#999999" points="946,-294 890,-294 890,-275 946,-275 946,-294"/>
<text text-anchor="middle" x="918" y="-282" font-family="Helvetica,sans-Serif" font-size="10.00">optional</text>
</a>
</g>
</g>
<!-- Node34&#45;&gt;Node36 -->
<g id="edge50_Node000034_Node000036" class="edge">
<title>Node34&#45;&gt;Node36</title>
<g id="a_edge50_Node000034_Node000036"><a xlink:title=" ">
<path fill="none" stroke="#63b8ff" d="M895.46,-329.75C899.12,-322.57 904.41,-312.18 908.95,-303.27"/>
<polygon fill="#63b8ff" stroke="#63b8ff" points="912.2,-304.59 913.62,-294.09 905.97,-301.41 912.2,-304.59"/>
</a>
</g>
</g>
<!-- Node37&#45;&gt;Node12 -->
<g id="edge53_Node000037_Node000012" class="edge">
<title>Node37&#45;&gt;Node12</title>
<g id="a_edge53_Node000037_Node000012"><a xlink:title=" ">
<path fill="none" stroke="#63b8ff" d="M887.37,-439.97C905.24,-431.47 932.98,-417.74 956,-404 1035.72,-356.43 1128,-378.33 1128,-285.5 1128,-285.5 1128,-285.5 1128,-173.5 1128,-140.79 1114.7,-104.6 1105.52,-83.52"/>
<polygon fill="#63b8ff" stroke="#63b8ff" points="1108.63,-81.88 1101.31,-74.22 1102.25,-84.77 1108.63,-81.88"/>
</a>
</g>
</g>
<!-- Node38 -->
<g id="Node000038" class="node">
<title>Node38</title>
<g id="a_Node000038"><a xlink:href="exception__utils_8h.html" target="_top" xlink:title=" ">
<polygon fill="white" stroke="#666666" points="947,-404 847,-404 847,-385 947,-385 947,-404"/>
<text text-anchor="middle" x="897" y="-392" font-family="Helvetica,sans-Serif" font-size="10.00">exception_utils.h</text>
</a>
</g>
</g>
<!-- Node37&#45;&gt;Node38 -->
<g id="edge54_Node000037_Node000038" class="edge">
<title>Node37&#45;&gt;Node38</title>
<g id="a_edge54_Node000037_Node000038"><a xlink:title=" ">
<path fill="none" stroke="#63b8ff" d="M873.62,-439.75C877.46,-432.49 883.02,-421.95 887.76,-412.98"/>
<polygon fill="#63b8ff" stroke="#63b8ff" points="890.89,-414.57 892.46,-404.09 884.7,-411.3 890.89,-414.57"/>
</a>
</g>
</g>
<!-- Node37&#45;&gt;Node39 -->
<g id="edge58_Node000037_Node000039" class="edge">
<title>Node37&#45;&gt;Node39</title>
<g id="a_edge58_Node000037_Node000039"><a xlink:title=" ">
<path fill="none" stroke="#63b8ff" d="M900.17,-439.98C933.16,-430.97 985.4,-416.7 1021.77,-406.76"/>
<polygon fill="#63b8ff" stroke="#63b8ff" points="1022.86,-410.09 1031.59,-404.08 1021.02,-403.34 1022.86,-410.09"/>
</a>
</g>
</g>
<!-- Node38&#45;&gt;Node6 -->
<g id="edge55_Node000038_Node000006" class="edge">
<title>Node38&#45;&gt;Node6</title>
<g id="a_edge55_Node000038_Node000006"><a xlink:title=" ">
<path fill="none" stroke="#63b8ff" d="M912.81,-384.86C986.71,-343.54 1289.2,-163.67 1161,-55 1123.47,-23.18 777.58,-13.4 669.27,-11.1"/>
<polygon fill="#63b8ff" stroke="#63b8ff" points="669.33,-7.6 659.26,-10.89 669.19,-14.6 669.33,-7.6"/>
</a>
</g>
</g>
<!-- Node38&#45;&gt;Node9 -->
<g id="edge56_Node000038_Node000009" class="edge">
<title>Node38&#45;&gt;Node9</title>
<g id="a_edge56_Node000038_Node000009"><a xlink:title=" ">
<path fill="none" stroke="#63b8ff" d="M911.22,-384.9C923.31,-376.95 940.35,-364.09 951,-349 968.31,-324.48 974,-315.52 974,-285.5 974,-285.5 974,-285.5 974,-228.5 974,-195.79 987.3,-159.6 996.48,-138.52"/>
<polygon fill="#63b8ff" stroke="#63b8ff" points="999.75,-139.77 1000.69,-129.22 993.37,-136.88 999.75,-139.77"/>
</a>
</g>
</g>
<!-- Node38&#45;&gt;Node34 -->
<g id="edge57_Node000038_Node000034" class="edge">
<title>Node38&#45;&gt;Node34</title>
<g id="a_edge57_Node000038_Node000034"><a xlink:title=" ">
<path fill="none" stroke="#63b8ff" d="M896.01,-384.75C895.22,-377.8 894.1,-367.85 893.11,-359.13"/>
<polygon fill="#63b8ff" stroke="#63b8ff" points="896.58,-358.63 891.97,-349.09 889.62,-359.42 896.58,-358.63"/>
</a>
</g>
</g>
</g>
</svg>
