<?xml version="1.0" encoding="UTF-8" standalone="no"?>
<!DOCTYPE svg PUBLIC "-//W3C//DTD SVG 1.1//EN"
 "http://www.w3.org/Graphics/SVG/1.1/DTD/svg11.dtd">
<!-- Generated by graphviz version 2.43.0 (0)
 -->
<!-- Title: /home/runner/work/cbmc/cbmc/src/cpp/template_map.cpp Pages: 1 -->
<svg width="1034pt" height="709pt"
 viewBox="0.00 0.00 1034.00 709.00" xmlns="http://www.w3.org/2000/svg" xmlns:xlink="http://www.w3.org/1999/xlink">
<g id="graph0" class="graph" transform="scale(1 1) rotate(0) translate(4 705)">
<title>/home/runner/work/cbmc/cbmc/src/cpp/template_map.cpp</title>
<!-- Node1 -->
<g id="Node000001" class="node">
<title>Node1</title>
<g id="a_Node000001"><a xlink:title="C++ Language Type Checking.">
<polygon fill="#999999" stroke="#666666" points="730,-701 592,-701 592,-660 730,-660 730,-701"/>
<text text-anchor="start" x="600" y="-689" font-family="Helvetica,sans-Serif" font-size="10.00">/home/runner/work/cbmc</text>
<text text-anchor="start" x="600" y="-678" font-family="Helvetica,sans-Serif" font-size="10.00">/cbmc/src/cpp/template</text>
<text text-anchor="middle" x="661" y="-667" font-family="Helvetica,sans-Serif" font-size="10.00">_map.cpp</text>
</a>
</g>
</g>
<!-- Node2 -->
<g id="Node000002" class="node">
<title>Node2</title>
<g id="a_Node000002"><a xlink:href="template__map_8h.html" target="_top" xlink:title="C++ Language Type Checking.">
<polygon fill="white" stroke="#666666" points="303.5,-514 206.5,-514 206.5,-495 303.5,-495 303.5,-514"/>
<text text-anchor="middle" x="255" y="-502" font-family="Helvetica,sans-Serif" font-size="10.00">template_map.h</text>
</a>
</g>
</g>
<!-- Node1&#45;&gt;Node2 -->
<g id="edge1_Node000001_Node000002" class="edge">
<title>Node1&#45;&gt;Node2</title>
<g id="a_edge1_Node000001_Node000002"><a xlink:title=" ">
<path fill="none" stroke="#63b8ff" d="M591.62,-667.31C548.37,-658.35 492.16,-644.19 445,-624 378.03,-595.33 307.31,-545.14 274.2,-520.3"/>
<polygon fill="#63b8ff" stroke="#63b8ff" points="275.98,-517.25 265.89,-514 271.75,-522.83 275.98,-517.25"/>
</a>
</g>
</g>
<!-- Node13 -->
<g id="Node000013" class="node">
<title>Node13</title>
<g id="a_Node000013"><a xlink:href="src_2util_2invariant_8h.html" target="_top" xlink:title=" ">
<polygon fill="#fff0f0" stroke="red" points="672.5,-74 603.5,-74 603.5,-55 672.5,-55 672.5,-74"/>
<text text-anchor="middle" x="638" y="-62" font-family="Helvetica,sans-Serif" font-size="10.00">invariant.h</text>
</a>
</g>
</g>
<!-- Node1&#45;&gt;Node13 -->
<g id="edge36_Node000001_Node000013" class="edge">
<title>Node1&#45;&gt;Node13</title>
<g id="a_edge36_Node000001_Node000013"><a xlink:title=" ">
<path fill="none" stroke="#63b8ff" d="M661,-659.71C661,-636.09 661,-595.41 661,-560.5 661,-560.5 661,-560.5 661,-503.5 661,-406.38 676,-382.62 676,-285.5 676,-285.5 676,-285.5 676,-173.5 676,-140.02 659.55,-103.84 648.3,-83.01"/>
<polygon fill="#63b8ff" stroke="#63b8ff" points="651.24,-81.1 643.28,-74.1 645.13,-84.53 651.24,-81.1"/>
</a>
</g>
</g>
<!-- Node39 -->
<g id="Node000039" class="node">
<title>Node39</title>
<g id="a_Node000039"><a xlink:href="pointer__expr_8h.html" target="_top" xlink:title="API to expression classes for Pointers.">
<polygon fill="white" stroke="#666666" points="794.5,-624 689.5,-624 689.5,-605 794.5,-605 794.5,-624"/>
<text text-anchor="middle" x="742" y="-612" font-family="Helvetica,sans-Serif" font-size="10.00">util/pointer_expr.h</text>
</a>
</g>
</g>
<!-- Node1&#45;&gt;Node39 -->
<g id="edge37_Node000001_Node000039" class="edge">
<title>Node1&#45;&gt;Node39</title>
<g id="a_edge37_Node000001_Node000039"><a xlink:title=" ">
<path fill="none" stroke="#63b8ff" d="M685.74,-659.95C697.64,-650.55 711.68,-639.46 722.76,-630.7"/>
<polygon fill="#63b8ff" stroke="#63b8ff" points="725.24,-633.21 730.91,-624.26 720.9,-627.71 725.24,-633.21"/>
</a>
</g>
</g>
<!-- Node46 -->
<g id="Node000046" class="node">
<title>Node46</title>
<g id="a_Node000046"><a xlink:href="std__expr_8h.html" target="_top" xlink:title="API to expression classes.">
<polygon fill="white" stroke="#666666" points="877.5,-569 810.5,-569 810.5,-550 877.5,-550 877.5,-569"/>
<text text-anchor="middle" x="844" y="-557" font-family="Helvetica,sans-Serif" font-size="10.00">std_expr.h</text>
</a>
</g>
</g>
<!-- Node1&#45;&gt;Node46 -->
<g id="edge58_Node000001_Node000046" class="edge">
<title>Node1&#45;&gt;Node46</title>
<g id="a_edge58_Node000001_Node000046"><a xlink:title=" ">
<path fill="none" stroke="#63b8ff" d="M730.14,-662.55C755.29,-653.96 782.73,-641.53 804,-624 818.89,-611.73 829.93,-592.41 836.6,-578.3"/>
<polygon fill="#63b8ff" stroke="#63b8ff" points="839.82,-579.68 840.68,-569.12 833.42,-576.84 839.82,-579.68"/>
</a>
</g>
</g>
<!-- Node47 -->
<g id="Node000047" class="node">
<title>Node47</title>
<g id="a_Node000047"><a xlink:href="cpp__template__parameter_8h.html" target="_top" xlink:title=" ">
<polygon fill="white" stroke="#666666" points="519,-459 371,-459 371,-440 519,-440 519,-459"/>
<text text-anchor="middle" x="445" y="-447" font-family="Helvetica,sans-Serif" font-size="10.00">cpp_template_parameter.h</text>
</a>
</g>
</g>
<!-- Node1&#45;&gt;Node47 -->
<g id="edge59_Node000001_Node000047" class="edge">
<title>Node1&#45;&gt;Node47</title>
<g id="a_edge59_Node000001_Node000047"><a xlink:title=" ">
<path fill="none" stroke="#63b8ff" d="M638.61,-659.98C604.91,-630.11 539.89,-570.56 491,-514 478.1,-499.08 465.08,-480.72 456.19,-467.58"/>
<polygon fill="#63b8ff" stroke="#63b8ff" points="458.98,-465.45 450.52,-459.07 453.15,-469.33 458.98,-465.45"/>
</a>
</g>
</g>
<!-- Node48 -->
<g id="Node000048" class="node">
<title>Node48</title>
<g id="a_Node000048"><a xlink:href="cpp__template__type_8h.html" target="_top" xlink:title=" ">
<polygon fill="white" stroke="#666666" points="619.5,-514 500.5,-514 500.5,-495 619.5,-495 619.5,-514"/>
<text text-anchor="middle" x="560" y="-502" font-family="Helvetica,sans-Serif" font-size="10.00">cpp_template_type.h</text>
</a>
</g>
</g>
<!-- Node1&#45;&gt;Node48 -->
<g id="edge61_Node000001_Node000048" class="edge">
<title>Node1&#45;&gt;Node48</title>
<g id="a_edge61_Node000001_Node000048"><a xlink:title=" ">
<path fill="none" stroke="#63b8ff" d="M649.61,-659.88C629.79,-625.73 589.25,-555.89 570.25,-523.16"/>
<polygon fill="#63b8ff" stroke="#63b8ff" points="573.14,-521.17 565.09,-514.27 567.09,-524.68 573.14,-521.17"/>
</a>
</g>
</g>
<!-- Node49 -->
<g id="Node000049" class="node">
<title>Node49</title>
<g id="a_Node000049"><a xlink:title=" ">
<polygon fill="#e0e0e0" stroke="#999999" points="908.5,-624 851.5,-624 851.5,-605 908.5,-605 908.5,-624"/>
<text text-anchor="middle" x="880" y="-612" font-family="Helvetica,sans-Serif" font-size="10.00">ostream</text>
</a>
</g>
</g>
<!-- Node1&#45;&gt;Node49 -->
<g id="edge65_Node000001_Node000049" class="edge">
<title>Node1&#45;&gt;Node49</title>
<g id="a_edge65_Node000001_Node000049"><a xlink:title=" ">
<path fill="none" stroke="#63b8ff" d="M727.9,-659.95C765.24,-649.04 810.42,-635.84 841.78,-626.67"/>
<polygon fill="#63b8ff" stroke="#63b8ff" points="842.84,-630.01 851.46,-623.84 840.88,-623.29 842.84,-630.01"/>
</a>
</g>
</g>
<!-- Node3 -->
<g id="Node000003" class="node">
<title>Node3</title>
<g id="a_Node000003"><a xlink:title=" ">
<polygon fill="#e0e0e0" stroke="#999999" points="90,-459 52,-459 52,-440 90,-440 90,-459"/>
<text text-anchor="middle" x="71" y="-447" font-family="Helvetica,sans-Serif" font-size="10.00">map</text>
</a>
</g>
</g>
<!-- Node2&#45;&gt;Node3 -->
<g id="edge2_Node000002_Node000003" class="edge">
<title>Node2&#45;&gt;Node3</title>
<g id="a_edge2_Node000002_Node000003"><a xlink:title=" ">
<path fill="none" stroke="#63b8ff" d="M224.47,-494.95C194.95,-486.66 148.73,-473.57 100.04,-459.27"/>
<polygon fill="#63b8ff" stroke="#63b8ff" points="100.85,-455.86 90.27,-456.4 98.87,-462.58 100.85,-455.86"/>
</a>
</g>
</g>
<!-- Node4 -->
<g id="Node000004" class="node">
<title>Node4</title>
<g id="a_Node000004"><a xlink:title=" ">
<polygon fill="#e0e0e0" stroke="#999999" points="48,-404 0,-404 0,-385 48,-385 48,-404"/>
<text text-anchor="middle" x="24" y="-392" font-family="Helvetica,sans-Serif" font-size="10.00">iosfwd</text>
</a>
</g>
</g>
<!-- Node2&#45;&gt;Node4 -->
<g id="edge3_Node000002_Node000004" class="edge">
<title>Node2&#45;&gt;Node4</title>
<g id="a_edge3_Node000002_Node000004"><a xlink:title=" ">
<path fill="none" stroke="#63b8ff" d="M206.29,-499.03C151.29,-493.01 66.39,-480.51 43,-459 30.7,-447.69 26.24,-428.79 24.69,-414.54"/>
<polygon fill="#63b8ff" stroke="#63b8ff" points="28.16,-414.07 23.96,-404.34 21.18,-414.56 28.16,-414.07"/>
</a>
</g>
</g>
<!-- Node5 -->
<g id="Node000005" class="node">
<title>Node5</title>
<g id="a_Node000005"><a xlink:href="expr_8h.html" target="_top" xlink:title=" ">
<polygon fill="white" stroke="#666666" points="477.5,-404 412.5,-404 412.5,-385 477.5,-385 477.5,-404"/>
<text text-anchor="middle" x="445" y="-392" font-family="Helvetica,sans-Serif" font-size="10.00">util/expr.h</text>
</a>
</g>
</g>
<!-- Node2&#45;&gt;Node5 -->
<g id="edge4_Node000002_Node000005" class="edge">
<title>Node2&#45;&gt;Node5</title>
<g id="a_edge4_Node000002_Node000005"><a xlink:title=" ">
<path fill="none" stroke="#63b8ff" d="M269.08,-494.88C289.43,-482.48 328.33,-459.01 362,-440 381.04,-429.25 402.84,-417.59 419.32,-408.9"/>
<polygon fill="#63b8ff" stroke="#63b8ff" points="421.12,-411.9 428.35,-404.16 417.87,-405.71 421.12,-411.9"/>
</a>
</g>
</g>
<!-- Node38 -->
<g id="Node000038" class="node">
<title>Node38</title>
<g id="a_Node000038"><a xlink:href="cpp__template__args_8h.html" target="_top" xlink:title="C++ Language Type Checking.">
<polygon fill="white" stroke="#666666" points="314.5,-459 195.5,-459 195.5,-440 314.5,-440 314.5,-459"/>
<text text-anchor="middle" x="255" y="-447" font-family="Helvetica,sans-Serif" font-size="10.00">cpp_template_args.h</text>
</a>
</g>
</g>
<!-- Node2&#45;&gt;Node38 -->
<g id="edge33_Node000002_Node000038" class="edge">
<title>Node2&#45;&gt;Node38</title>
<g id="a_edge33_Node000002_Node000038"><a xlink:title=" ">
<path fill="none" stroke="#63b8ff" d="M255,-494.75C255,-487.8 255,-477.85 255,-469.13"/>
<polygon fill="#63b8ff" stroke="#63b8ff" points="258.5,-469.09 255,-459.09 251.5,-469.09 258.5,-469.09"/>
</a>
</g>
</g>
<!-- Node6 -->
<g id="Node000006" class="node">
<title>Node6</title>
<g id="a_Node000006"><a xlink:href="as__const_8h.html" target="_top" xlink:title=" ">
<polygon fill="white" stroke="#666666" points="213,-19 145,-19 145,0 213,0 213,-19"/>
<text text-anchor="middle" x="179" y="-7" font-family="Helvetica,sans-Serif" font-size="10.00">as_const.h</text>
</a>
</g>
</g>
<!-- Node5&#45;&gt;Node6 -->
<g id="edge5_Node000005_Node000006" class="edge">
<title>Node5&#45;&gt;Node6</title>
<g id="a_edge5_Node000005_Node000006"><a xlink:title=" ">
<path fill="none" stroke="#63b8ff" d="M412.36,-389.91C328.85,-379.83 114,-347.84 114,-285.5 114,-285.5 114,-285.5 114,-118.5 114,-81.38 142.54,-46.03 161.8,-26.41"/>
<polygon fill="#63b8ff" stroke="#63b8ff" points="164.43,-28.73 169.13,-19.23 159.53,-23.72 164.43,-28.73"/>
</a>
</g>
</g>
<!-- Node7 -->
<g id="Node000007" class="node">
<title>Node7</title>
<g id="a_Node000007"><a xlink:href="type_8h.html" target="_top" xlink:title="Defines typet, type_with_subtypet and type_with_subtypest.">
<polygon fill="white" stroke="#666666" points="562.5,-349 515.5,-349 515.5,-330 562.5,-330 562.5,-349"/>
<text text-anchor="middle" x="539" y="-337" font-family="Helvetica,sans-Serif" font-size="10.00">type.h</text>
</a>
</g>
</g>
<!-- Node5&#45;&gt;Node7 -->
<g id="edge6_Node000005_Node000007" class="edge">
<title>Node5&#45;&gt;Node7</title>
<g id="a_edge6_Node000005_Node000007"><a xlink:title=" ">
<path fill="none" stroke="#63b8ff" d="M460.1,-384.98C474.82,-376.69 497.42,-363.94 514.67,-354.22"/>
<polygon fill="#63b8ff" stroke="#63b8ff" points="516.63,-357.13 523.62,-349.17 513.19,-351.03 516.63,-357.13"/>
</a>
</g>
</g>
<!-- Node34 -->
<g id="Node000034" class="node">
<title>Node34</title>
<g id="a_Node000034"><a xlink:href="validation__mode_8h.html" target="_top" xlink:title=" ">
<polygon fill="white" stroke="#666666" points="453.5,-239 346.5,-239 346.5,-220 453.5,-220 453.5,-239"/>
<text text-anchor="middle" x="400" y="-227" font-family="Helvetica,sans-Serif" font-size="10.00">validation_mode.h</text>
</a>
</g>
</g>
<!-- Node5&#45;&gt;Node34 -->
<g id="edge31_Node000005_Node000034" class="edge">
<title>Node5&#45;&gt;Node34</title>
<g id="a_edge31_Node000005_Node000034"><a xlink:title=" ">
<path fill="none" stroke="#63b8ff" d="M412.45,-391.91C382.87,-388.53 340.78,-378.46 320,-349 301.04,-322.13 303.33,-303.35 320,-275 328.74,-260.14 344.44,-249.88 359.63,-242.99"/>
<polygon fill="#63b8ff" stroke="#63b8ff" points="361.06,-246.19 368.95,-239.13 358.38,-239.72 361.06,-246.19"/>
</a>
</g>
</g>
<!-- Node35 -->
<g id="Node000035" class="node">
<title>Node35</title>
<g id="a_Node000035"><a xlink:href="validate__types_8h.html" target="_top" xlink:title=" ">
<polygon fill="white" stroke="#666666" points="427,-294 329,-294 329,-275 427,-275 427,-294"/>
<text text-anchor="middle" x="378" y="-282" font-family="Helvetica,sans-Serif" font-size="10.00">validate_types.h</text>
</a>
</g>
</g>
<!-- Node5&#45;&gt;Node35 -->
<g id="edge30_Node000005_Node000035" class="edge">
<title>Node5&#45;&gt;Node35</title>
<g id="a_edge30_Node000005_Node000035"><a xlink:title=" ">
<path fill="none" stroke="#63b8ff" d="M452.58,-384.76C462.68,-372 478.04,-347.86 467,-330 457.51,-314.64 440.94,-304.41 424.65,-297.68"/>
<polygon fill="#63b8ff" stroke="#63b8ff" points="425.74,-294.35 415.15,-294.1 423.27,-300.9 425.74,-294.35"/>
</a>
</g>
</g>
<!-- Node36 -->
<g id="Node000036" class="node">
<title>Node36</title>
<g id="a_Node000036"><a xlink:href="validate__expressions_8h.html" target="_top" xlink:title=" ">
<polygon fill="white" stroke="#666666" points="458.5,-349 329.5,-349 329.5,-330 458.5,-330 458.5,-349"/>
<text text-anchor="middle" x="394" y="-337" font-family="Helvetica,sans-Serif" font-size="10.00">validate_expressions.h</text>
</a>
</g>
</g>
<!-- Node5&#45;&gt;Node36 -->
<g id="edge29_Node000005_Node000036" class="edge">
<title>Node5&#45;&gt;Node36</title>
<g id="a_edge29_Node000005_Node000036"><a xlink:title=" ">
<path fill="none" stroke="#63b8ff" d="M436.58,-384.75C429.23,-377.11 418.37,-365.82 409.46,-356.56"/>
<polygon fill="#63b8ff" stroke="#63b8ff" points="411.72,-353.87 402.26,-349.09 406.68,-358.72 411.72,-353.87"/>
</a>
</g>
</g>
<!-- Node37 -->
<g id="Node000037" class="node">
<title>Node37</title>
<g id="a_Node000037"><a xlink:title=" ">
<polygon fill="#e0e0e0" stroke="#999999" points="769.5,-349 704.5,-349 704.5,-330 769.5,-330 769.5,-349"/>
<text text-anchor="middle" x="737" y="-337" font-family="Helvetica,sans-Serif" font-size="10.00">functional</text>
</a>
</g>
</g>
<!-- Node5&#45;&gt;Node37 -->
<g id="edge32_Node000005_Node000037" class="edge">
<title>Node5&#45;&gt;Node37</title>
<g id="a_edge32_Node000005_Node000037"><a xlink:title=" ">
<path fill="none" stroke="#63b8ff" d="M477.65,-387.57C530.57,-377.97 635.11,-358.99 694.02,-348.3"/>
<polygon fill="#63b8ff" stroke="#63b8ff" points="694.9,-351.7 704.12,-346.47 693.65,-344.81 694.9,-351.7"/>
</a>
</g>
</g>
<!-- Node8 -->
<g id="Node000008" class="node">
<title>Node8</title>
<g id="a_Node000008"><a xlink:href="source__location_8h.html" target="_top" xlink:title=" ">
<polygon fill="white" stroke="#666666" points="409,-184 307,-184 307,-165 409,-165 409,-184"/>
<text text-anchor="middle" x="358" y="-172" font-family="Helvetica,sans-Serif" font-size="10.00">source_location.h</text>
</a>
</g>
</g>
<!-- Node7&#45;&gt;Node8 -->
<g id="edge7_Node000007_Node000008" class="edge">
<title>Node7&#45;&gt;Node8</title>
<g id="a_edge7_Node000007_Node000008"><a xlink:title=" ">
<path fill="none" stroke="#63b8ff" d="M525.42,-329.91C499.59,-313.62 445.17,-279.44 436,-275 393.85,-254.61 363.86,-277.35 337,-239 327.15,-224.94 335.69,-205.93 344.65,-192.39"/>
<polygon fill="#63b8ff" stroke="#63b8ff" points="347.69,-194.17 350.71,-184.01 342.02,-190.06 347.69,-194.17"/>
</a>
</g>
</g>
<!-- Node32 -->
<g id="Node000032" class="node">
<title>Node32</title>
<g id="a_Node000032"><a xlink:href="validate_8h.html" target="_top" xlink:title=" ">
<polygon fill="white" stroke="#666666" points="586.5,-294 521.5,-294 521.5,-275 586.5,-275 586.5,-294"/>
<text text-anchor="middle" x="554" y="-282" font-family="Helvetica,sans-Serif" font-size="10.00">validate.h</text>
</a>
</g>
</g>
<!-- Node7&#45;&gt;Node32 -->
<g id="edge20_Node000007_Node000032" class="edge">
<title>Node7&#45;&gt;Node32</title>
<g id="a_edge20_Node000007_Node000032"><a xlink:title=" ">
<path fill="none" stroke="#63b8ff" d="M541.48,-329.75C543.46,-322.72 546.32,-312.62 548.81,-303.84"/>
<polygon fill="#63b8ff" stroke="#63b8ff" points="552.21,-304.66 551.57,-294.09 545.48,-302.76 552.21,-304.66"/>
</a>
</g>
</g>
<!-- Node7&#45;&gt;Node34 -->
<g id="edge28_Node000007_Node000034" class="edge">
<title>Node7&#45;&gt;Node34</title>
<g id="a_edge28_Node000007_Node000034"><a xlink:title=" ">
<path fill="none" stroke="#63b8ff" d="M530.35,-329.79C517.52,-317.07 492.43,-292.99 469,-275 454.49,-263.86 437.18,-252.7 423.53,-244.34"/>
<polygon fill="#63b8ff" stroke="#63b8ff" points="425.11,-241.21 414.74,-239.04 421.49,-247.2 425.11,-241.21"/>
</a>
</g>
</g>
<!-- Node7&#45;&gt;Node35 -->
<g id="edge27_Node000007_Node000035" class="edge">
<title>Node7&#45;&gt;Node35</title>
<g id="a_edge27_Node000007_Node000035"><a xlink:title=" ">
<path fill="none" stroke="#63b8ff" d="M515.24,-330.68C488.41,-321.85 444.45,-307.38 413.53,-297.2"/>
<polygon fill="#63b8ff" stroke="#63b8ff" points="414.58,-293.86 403.99,-294.06 412.39,-300.51 414.58,-293.86"/>
</a>
</g>
</g>
<!-- Node9 -->
<g id="Node000009" class="node">
<title>Node9</title>
<g id="a_Node000009"><a xlink:href="deprecate_8h.html" target="_top" xlink:title=" ">
<polygon fill="white" stroke="#666666" points="396,-129 322,-129 322,-110 396,-110 396,-129"/>
<text text-anchor="middle" x="359" y="-117" font-family="Helvetica,sans-Serif" font-size="10.00">deprecate.h</text>
</a>
</g>
</g>
<!-- Node8&#45;&gt;Node9 -->
<g id="edge8_Node000008_Node000009" class="edge">
<title>Node8&#45;&gt;Node9</title>
<g id="a_edge8_Node000008_Node000009"><a xlink:title=" ">
<path fill="none" stroke="#63b8ff" d="M358.17,-164.75C358.3,-157.8 358.48,-147.85 358.65,-139.13"/>
<polygon fill="#63b8ff" stroke="#63b8ff" points="362.15,-139.15 358.84,-129.09 355.15,-139.02 362.15,-139.15"/>
</a>
</g>
</g>
<!-- Node10 -->
<g id="Node000010" class="node">
<title>Node10</title>
<g id="a_Node000010"><a xlink:href="irep_8h.html" target="_top" xlink:title=" ">
<polygon fill="white" stroke="#666666" points="266,-129 222,-129 222,-110 266,-110 266,-129"/>
<text text-anchor="middle" x="244" y="-117" font-family="Helvetica,sans-Serif" font-size="10.00">irep.h</text>
</a>
</g>
</g>
<!-- Node8&#45;&gt;Node10 -->
<g id="edge9_Node000008_Node000010" class="edge">
<title>Node8&#45;&gt;Node10</title>
<g id="a_edge9_Node000008_Node000010"><a xlink:title=" ">
<path fill="none" stroke="#63b8ff" d="M339.68,-164.98C321.34,-156.46 292.89,-143.23 271.77,-133.41"/>
<polygon fill="#63b8ff" stroke="#63b8ff" points="273.19,-130.21 262.65,-129.17 270.24,-136.56 273.19,-130.21"/>
</a>
</g>
</g>
<!-- Node11 -->
<g id="Node000011" class="node">
<title>Node11</title>
<g id="a_Node000011"><a xlink:title=" ">
<polygon fill="#e0e0e0" stroke="#999999" points="358,-19 314,-19 314,0 358,0 358,-19"/>
<text text-anchor="middle" x="336" y="-7" font-family="Helvetica,sans-Serif" font-size="10.00">string</text>
</a>
</g>
</g>
<!-- Node8&#45;&gt;Node11 -->
<g id="edge19_Node000008_Node000011" class="edge">
<title>Node8&#45;&gt;Node11</title>
<g id="a_edge19_Node000008_Node000011"><a xlink:title=" ">
<path fill="none" stroke="#63b8ff" d="M306.93,-165.84C277.48,-159.56 240.88,-148.41 213,-129 187.76,-111.43 180.85,-103.14 171,-74 168.29,-66 165.86,-61.7 171,-55 187.04,-34.06 260.42,-20.74 303.73,-14.55"/>
<polygon fill="#63b8ff" stroke="#63b8ff" points="304.36,-18 313.79,-13.17 303.4,-11.07 304.36,-18"/>
</a>
</g>
</g>
<!-- Node31 -->
<g id="Node000031" class="node">
<title>Node31</title>
<g id="a_Node000031"><a xlink:title=" ">
<polygon fill="#e0e0e0" stroke="#999999" points="470,-129 414,-129 414,-110 470,-110 470,-129"/>
<text text-anchor="middle" x="442" y="-117" font-family="Helvetica,sans-Serif" font-size="10.00">optional</text>
</a>
</g>
</g>
<!-- Node8&#45;&gt;Node31 -->
<g id="edge18_Node000008_Node000031" class="edge">
<title>Node8&#45;&gt;Node31</title>
<g id="a_edge18_Node000008_Node000031"><a xlink:title=" ">
<path fill="none" stroke="#63b8ff" d="M371.5,-164.98C384.4,-156.84 404.1,-144.41 419.4,-134.76"/>
<polygon fill="#63b8ff" stroke="#63b8ff" points="421.67,-137.47 428.26,-129.17 417.93,-131.55 421.67,-137.47"/>
</a>
</g>
</g>
<!-- Node10&#45;&gt;Node11 -->
<g id="edge10_Node000010_Node000011" class="edge">
<title>Node10&#45;&gt;Node11</title>
<g id="a_edge10_Node000010_Node000011"><a xlink:title=" ">
<path fill="none" stroke="#63b8ff" d="M265.82,-109.99C281.85,-102.69 303.01,-90.7 316,-74 326.09,-61.03 331.14,-42.88 333.64,-29.3"/>
<polygon fill="#63b8ff" stroke="#63b8ff" points="337.13,-29.6 335.19,-19.19 330.21,-28.54 337.13,-29.6"/>
</a>
</g>
</g>
<!-- Node12 -->
<g id="Node000012" class="node">
<title>Node12</title>
<g id="a_Node000012"><a xlink:title=" ">
<polygon fill="#e0e0e0" stroke="#999999" points="493.5,-74 446.5,-74 446.5,-55 493.5,-55 493.5,-74"/>
<text text-anchor="middle" x="470" y="-62" font-family="Helvetica,sans-Serif" font-size="10.00">vector</text>
</a>
</g>
</g>
<!-- Node10&#45;&gt;Node12 -->
<g id="edge11_Node000010_Node000012" class="edge">
<title>Node10&#45;&gt;Node12</title>
<g id="a_edge11_Node000010_Node000012"><a xlink:title=" ">
<path fill="none" stroke="#63b8ff" d="M266.08,-113.26C270.68,-112.18 275.5,-111.05 280,-110 346.73,-94.47 365.82,-91.2 436.4,-74.09"/>
<polygon fill="#63b8ff" stroke="#63b8ff" points="437.34,-77.47 446.23,-71.7 435.68,-70.67 437.34,-77.47"/>
</a>
</g>
</g>
<!-- Node10&#45;&gt;Node13 -->
<g id="edge12_Node000010_Node000013" class="edge">
<title>Node10&#45;&gt;Node13</title>
<g id="a_edge12_Node000010_Node000013"><a xlink:title=" ">
<path fill="none" stroke="#63b8ff" d="M266.01,-112.91C270.61,-111.85 275.45,-110.82 280,-110 391.76,-89.92 524.78,-75.96 592.89,-69.53"/>
<polygon fill="#63b8ff" stroke="#63b8ff" points="593.62,-72.97 603.25,-68.56 592.97,-66 593.62,-72.97"/>
</a>
</g>
</g>
<!-- Node17 -->
<g id="Node000017" class="node">
<title>Node17</title>
<g id="a_Node000017"><a xlink:href="irep__ids_8h.html" target="_top" xlink:title="util">
<polygon fill="#fff0f0" stroke="red" points="428,-74 364,-74 364,-55 428,-55 428,-74"/>
<text text-anchor="middle" x="396" y="-62" font-family="Helvetica,sans-Serif" font-size="10.00">irep_ids.h</text>
</a>
</g>
</g>
<!-- Node10&#45;&gt;Node17 -->
<g id="edge15_Node000010_Node000017" class="edge">
<title>Node10&#45;&gt;Node17</title>
<g id="a_edge15_Node000010_Node000017"><a xlink:title=" ">
<path fill="none" stroke="#63b8ff" d="M266.1,-110.79C291.22,-102.04 332.51,-87.64 361.8,-77.43"/>
<polygon fill="#63b8ff" stroke="#63b8ff" points="363.32,-80.6 371.61,-74.01 361.01,-73.99 363.32,-80.6"/>
</a>
</g>
</g>
<!-- Node27 -->
<g id="Node000027" class="node">
<title>Node27</title>
<g id="a_Node000027"><a xlink:href="forward__list__as__map_8h.html" target="_top" xlink:title=" ">
<polygon fill="#fff0f0" stroke="red" points="307.5,-74 180.5,-74 180.5,-55 307.5,-55 307.5,-74"/>
<text text-anchor="middle" x="244" y="-62" font-family="Helvetica,sans-Serif" font-size="10.00">forward_list_as_map.h</text>
</a>
</g>
</g>
<!-- Node10&#45;&gt;Node27 -->
<g id="edge16_Node000010_Node000027" class="edge">
<title>Node10&#45;&gt;Node27</title>
<g id="a_edge16_Node000010_Node000027"><a xlink:title=" ">
<path fill="none" stroke="#63b8ff" d="M244,-109.75C244,-102.8 244,-92.85 244,-84.13"/>
<polygon fill="#63b8ff" stroke="#63b8ff" points="247.5,-84.09 244,-74.09 240.5,-84.09 247.5,-84.09"/>
</a>
</g>
</g>
<!-- Node13&#45;&gt;Node11 -->
<g id="edge13_Node000013_Node000011" class="edge">
<title>Node13&#45;&gt;Node11</title>
<g id="a_edge13_Node000013_Node000011"><a xlink:title=" ">
<path fill="none" stroke="#63b8ff" d="M603.36,-57.42C544.43,-47.08 425.52,-26.21 368.26,-16.16"/>
<polygon fill="#63b8ff" stroke="#63b8ff" points="368.77,-12.7 358.31,-14.42 367.56,-19.59 368.77,-12.7"/>
</a>
</g>
</g>
<!-- Node16 -->
<g id="Node000016" class="node">
<title>Node16</title>
<g id="a_Node000016"><a xlink:title=" ">
<polygon fill="#e0e0e0" stroke="#999999" points="672.5,-19 603.5,-19 603.5,0 672.5,0 672.5,-19"/>
<text text-anchor="middle" x="638" y="-7" font-family="Helvetica,sans-Serif" font-size="10.00">type_traits</text>
</a>
</g>
</g>
<!-- Node13&#45;&gt;Node16 -->
<g id="edge14_Node000013_Node000016" class="edge">
<title>Node13&#45;&gt;Node16</title>
<g id="a_edge14_Node000013_Node000016"><a xlink:title=" ">
<path fill="none" stroke="#63b8ff" d="M638,-54.75C638,-47.8 638,-37.85 638,-29.13"/>
<polygon fill="#63b8ff" stroke="#63b8ff" points="641.5,-29.09 638,-19.09 634.5,-29.09 641.5,-29.09"/>
</a>
</g>
</g>
<!-- Node27&#45;&gt;Node6 -->
<g id="edge17_Node000027_Node000006" class="edge">
<title>Node27&#45;&gt;Node6</title>
<g id="a_edge17_Node000027_Node000006"><a xlink:title=" ">
<path fill="none" stroke="#63b8ff" d="M233.56,-54.98C223.85,-47.07 209.18,-35.11 197.5,-25.58"/>
<polygon fill="#63b8ff" stroke="#63b8ff" points="199.6,-22.78 189.63,-19.17 195.17,-28.2 199.6,-22.78"/>
</a>
</g>
</g>
<!-- Node32&#45;&gt;Node16 -->
<g id="edge21_Node000032_Node000016" class="edge">
<title>Node32&#45;&gt;Node16</title>
<g id="a_edge21_Node000032_Node000016"><a xlink:title=" ">
<path fill="none" stroke="#63b8ff" d="M560.94,-274.91C567.4,-266.37 576.67,-252.61 581,-239 605.85,-160.87 560.19,-129.68 594,-55 599.21,-43.48 608.78,-33.24 617.67,-25.49"/>
<polygon fill="#63b8ff" stroke="#63b8ff" points="619.95,-28.15 625.49,-19.12 615.52,-22.72 619.95,-28.15"/>
</a>
</g>
</g>
<!-- Node33 -->
<g id="Node000033" class="node">
<title>Node33</title>
<g id="a_Node000033"><a xlink:href="exception__utils_8h.html" target="_top" xlink:title=" ">
<polygon fill="white" stroke="#666666" points="572,-239 472,-239 472,-220 572,-220 572,-239"/>
<text text-anchor="middle" x="522" y="-227" font-family="Helvetica,sans-Serif" font-size="10.00">exception_utils.h</text>
</a>
</g>
</g>
<!-- Node32&#45;&gt;Node33 -->
<g id="edge22_Node000032_Node000033" class="edge">
<title>Node32&#45;&gt;Node33</title>
<g id="a_edge22_Node000032_Node000033"><a xlink:title=" ">
<path fill="none" stroke="#63b8ff" d="M548.72,-274.75C544.29,-267.42 537.84,-256.73 532.38,-247.7"/>
<polygon fill="#63b8ff" stroke="#63b8ff" points="535.35,-245.84 527.19,-239.09 529.36,-249.46 535.35,-245.84"/>
</a>
</g>
</g>
<!-- Node32&#45;&gt;Node34 -->
<g id="edge26_Node000032_Node000034" class="edge">
<title>Node32&#45;&gt;Node34</title>
<g id="a_edge26_Node000032_Node000034"><a xlink:title=" ">
<path fill="none" stroke="#63b8ff" d="M529.26,-274.98C503.63,-266.16 463.37,-252.31 434.59,-242.41"/>
<polygon fill="#63b8ff" stroke="#63b8ff" points="435.53,-239.03 424.94,-239.08 433.25,-245.65 435.53,-239.03"/>
</a>
</g>
</g>
<!-- Node33&#45;&gt;Node8 -->
<g id="edge25_Node000033_Node000008" class="edge">
<title>Node33&#45;&gt;Node8</title>
<g id="a_edge25_Node000033_Node000008"><a xlink:title=" ">
<path fill="none" stroke="#63b8ff" d="M495.65,-219.98C468.24,-211.13 425.11,-197.19 394.44,-187.28"/>
<polygon fill="#63b8ff" stroke="#63b8ff" points="395.15,-183.83 384.56,-184.08 393,-190.49 395.15,-183.83"/>
</a>
</g>
</g>
<!-- Node33&#45;&gt;Node11 -->
<g id="edge23_Node000033_Node000011" class="edge">
<title>Node33&#45;&gt;Node11</title>
<g id="a_edge23_Node000033_Node000011"><a xlink:title=" ">
<path fill="none" stroke="#63b8ff" d="M523.98,-219.99C529.88,-192.36 544.39,-104.13 502,-55 484.67,-34.91 411.31,-21.26 368.13,-14.79"/>
<polygon fill="#63b8ff" stroke="#63b8ff" points="368.51,-11.31 358.11,-13.34 367.51,-18.24 368.51,-11.31"/>
</a>
</g>
</g>
<!-- Node33&#45;&gt;Node13 -->
<g id="edge24_Node000033_Node000013" class="edge">
<title>Node33&#45;&gt;Node13</title>
<g id="a_edge24_Node000033_Node000013"><a xlink:title=" ">
<path fill="none" stroke="#63b8ff" d="M528.24,-219.74C546.65,-193.87 601.01,-117.48 625.63,-82.88"/>
<polygon fill="#63b8ff" stroke="#63b8ff" points="628.79,-84.48 631.73,-74.31 623.08,-80.43 628.79,-84.48"/>
</a>
</g>
</g>
<!-- Node38&#45;&gt;Node5 -->
<g id="edge34_Node000038_Node000005" class="edge">
<title>Node38&#45;&gt;Node5</title>
<g id="a_edge34_Node000038_Node000005"><a xlink:title=" ">
<path fill="none" stroke="#63b8ff" d="M285.53,-439.98C317.7,-431.01 368.56,-416.82 404.17,-406.89"/>
<polygon fill="#63b8ff" stroke="#63b8ff" points="405.54,-410.14 414.23,-404.08 403.66,-403.4 405.54,-410.14"/>
</a>
</g>
</g>
<!-- Node38&#45;&gt;Node13 -->
<g id="edge35_Node000038_Node000013" class="edge">
<title>Node38&#45;&gt;Node13</title>
<g id="a_edge35_Node000038_Node000013"><a xlink:title=" ">
<path fill="none" stroke="#63b8ff" d="M253.15,-439.89C244.35,-396.38 211.27,-199.28 313,-110 333.72,-91.81 509.1,-75.67 593.27,-68.89"/>
<polygon fill="#63b8ff" stroke="#63b8ff" points="593.62,-72.38 603.31,-68.1 593.06,-65.4 593.62,-72.38"/>
</a>
</g>
</g>
<!-- Node40 -->
<g id="Node000040" class="node">
<title>Node40</title>
<g id="a_Node000040"><a xlink:href="bitvector__types_8h.html" target="_top" xlink:title="Pre&#45;defined bitvector types.">
<polygon fill="white" stroke="#666666" points="792.5,-569 691.5,-569 691.5,-550 792.5,-550 792.5,-569"/>
<text text-anchor="middle" x="742" y="-557" font-family="Helvetica,sans-Serif" font-size="10.00">bitvector_types.h</text>
</a>
</g>
</g>
<!-- Node39&#45;&gt;Node40 -->
<g id="edge38_Node000039_Node000040" class="edge">
<title>Node39&#45;&gt;Node40</title>
<g id="a_edge38_Node000039_Node000040"><a xlink:title=" ">
<path fill="none" stroke="#63b8ff" d="M742,-604.75C742,-597.8 742,-587.85 742,-579.13"/>
<polygon fill="#63b8ff" stroke="#63b8ff" points="745.5,-579.09 742,-569.09 738.5,-579.09 745.5,-579.09"/>
</a>
</g>
</g>
<!-- Node39&#45;&gt;Node46 -->
<g id="edge54_Node000039_Node000046" class="edge">
<title>Node39&#45;&gt;Node46</title>
<g id="a_edge54_Node000039_Node000046"><a xlink:title=" ">
<path fill="none" stroke="#63b8ff" d="M758.39,-604.98C774.57,-596.57 799.57,-583.59 818.38,-573.81"/>
<polygon fill="#63b8ff" stroke="#63b8ff" points="820.05,-576.89 827.31,-569.17 816.83,-570.68 820.05,-576.89"/>
</a>
</g>
</g>
<!-- Node41 -->
<g id="Node000041" class="node">
<title>Node41</title>
<g id="a_Node000041"><a xlink:href="std__types_8h.html" target="_top" xlink:title="Pre&#45;defined types.">
<polygon fill="white" stroke="#666666" points="794.5,-514 721.5,-514 721.5,-495 794.5,-495 794.5,-514"/>
<text text-anchor="middle" x="758" y="-502" font-family="Helvetica,sans-Serif" font-size="10.00">std_types.h</text>
</a>
</g>
</g>
<!-- Node40&#45;&gt;Node41 -->
<g id="edge39_Node000040_Node000041" class="edge">
<title>Node40&#45;&gt;Node41</title>
<g id="a_edge39_Node000040_Node000041"><a xlink:title=" ">
<path fill="none" stroke="#63b8ff" d="M744.64,-549.75C746.76,-542.72 749.81,-532.62 752.46,-523.84"/>
<polygon fill="#63b8ff" stroke="#63b8ff" points="755.87,-524.67 755.41,-514.09 749.17,-522.65 755.87,-524.67"/>
</a>
</g>
</g>
<!-- Node41&#45;&gt;Node5 -->
<g id="edge40_Node000041_Node000005" class="edge">
<title>Node41&#45;&gt;Node5</title>
<g id="a_edge40_Node000041_Node000005"><a xlink:title=" ">
<path fill="none" stroke="#63b8ff" d="M733.18,-494.94C677.59,-475.76 543.01,-429.32 479.4,-407.37"/>
<polygon fill="#63b8ff" stroke="#63b8ff" points="480.42,-404.02 469.82,-404.07 478.14,-410.64 480.42,-404.02"/>
</a>
</g>
</g>
<!-- Node41&#45;&gt;Node13 -->
<g id="edge47_Node000041_Node000013" class="edge">
<title>Node41&#45;&gt;Node13</title>
<g id="a_edge47_Node000041_Node000013"><a xlink:title=" ">
<path fill="none" stroke="#63b8ff" d="M783.85,-494.99C800.27,-488.09 820.2,-476.58 830,-459 834.11,-451.62 831.31,-448.34 830,-440 822.8,-394.11 798,-386.95 798,-340.5 798,-340.5 798,-340.5 798,-173.5 798,-117.49 729.82,-88.59 682.47,-75.26"/>
<polygon fill="#63b8ff" stroke="#63b8ff" points="683.28,-71.86 672.72,-72.65 681.47,-78.62 683.28,-71.86"/>
</a>
</g>
</g>
<!-- Node41&#45;&gt;Node32 -->
<g id="edge52_Node000041_Node000032" class="edge">
<title>Node41&#45;&gt;Node32</title>
<g id="a_edge52_Node000041_Node000032"><a xlink:title=" ">
<path fill="none" stroke="#63b8ff" d="M750,-494.95C719.41,-462.27 609.52,-344.83 569.08,-301.61"/>
<polygon fill="#63b8ff" stroke="#63b8ff" points="571.55,-299.13 562.16,-294.22 566.44,-303.92 571.55,-299.13"/>
</a>
</g>
</g>
<!-- Node42 -->
<g id="Node000042" class="node">
<title>Node42</title>
<g id="a_Node000042"><a xlink:href="expr__cast_8h.html" target="_top" xlink:title="Templated functions to cast to specific exprt&#45;derived classes.">
<polygon fill="white" stroke="#666666" points="950.5,-459 877.5,-459 877.5,-440 950.5,-440 950.5,-459"/>
<text text-anchor="middle" x="914" y="-447" font-family="Helvetica,sans-Serif" font-size="10.00">expr_cast.h</text>
</a>
</g>
</g>
<!-- Node41&#45;&gt;Node42 -->
<g id="edge41_Node000041_Node000042" class="edge">
<title>Node41&#45;&gt;Node42</title>
<g id="a_edge41_Node000041_Node000042"><a xlink:title=" ">
<path fill="none" stroke="#63b8ff" d="M783.06,-494.98C809.03,-486.16 849.81,-472.31 878.96,-462.41"/>
<polygon fill="#63b8ff" stroke="#63b8ff" points="880.4,-465.61 888.74,-459.08 878.15,-458.99 880.4,-465.61"/>
</a>
</g>
</g>
<!-- Node44 -->
<g id="Node000044" class="node">
<title>Node44</title>
<g id="a_Node000044"><a xlink:href="mp__arith_8h.html" target="_top" xlink:title=" ">
<polygon fill="white" stroke="#666666" points="177.5,-459 108.5,-459 108.5,-440 177.5,-440 177.5,-459"/>
<text text-anchor="middle" x="143" y="-447" font-family="Helvetica,sans-Serif" font-size="10.00">mp_arith.h</text>
</a>
</g>
</g>
<!-- Node41&#45;&gt;Node44 -->
<g id="edge48_Node000041_Node000044" class="edge">
<title>Node41&#45;&gt;Node44</title>
<g id="a_edge48_Node000041_Node000044"><a xlink:title=" ">
<path fill="none" stroke="#63b8ff" d="M721.13,-500.88C608.34,-492.85 271.02,-468.57 187.7,-458.97"/>
<polygon fill="#63b8ff" stroke="#63b8ff" points="188.03,-455.49 177.67,-457.72 187.16,-462.43 188.03,-455.49"/>
</a>
</g>
</g>
<!-- Node23 -->
<g id="Node000023" class="node">
<title>Node23</title>
<g id="a_Node000023"><a xlink:title=" ">
<polygon fill="#e0e0e0" stroke="#999999" points="820.5,-459 727.5,-459 727.5,-440 820.5,-440 820.5,-459"/>
<text text-anchor="middle" x="774" y="-447" font-family="Helvetica,sans-Serif" font-size="10.00">unordered_map</text>
</a>
</g>
</g>
<!-- Node41&#45;&gt;Node23 -->
<g id="edge53_Node000041_Node000023" class="edge">
<title>Node41&#45;&gt;Node23</title>
<g id="a_edge53_Node000041_Node000023"><a xlink:title=" ">
<path fill="none" stroke="#63b8ff" d="M760.64,-494.75C762.76,-487.72 765.81,-477.62 768.46,-468.84"/>
<polygon fill="#63b8ff" stroke="#63b8ff" points="771.87,-469.67 771.41,-459.09 765.17,-467.65 771.87,-469.67"/>
</a>
</g>
</g>
<!-- Node42&#45;&gt;Node5 -->
<g id="edge46_Node000042_Node000005" class="edge">
<title>Node42&#45;&gt;Node5</title>
<g id="a_edge46_Node000042_Node000005"><a xlink:title=" ">
<path fill="none" stroke="#63b8ff" d="M877.2,-444.34C791.43,-434.65 578.63,-410.6 487.51,-400.3"/>
<polygon fill="#63b8ff" stroke="#63b8ff" points="487.86,-396.82 477.53,-399.18 487.08,-403.78 487.86,-396.82"/>
</a>
</g>
</g>
<!-- Node42&#45;&gt;Node13 -->
<g id="edge45_Node000042_Node000013" class="edge">
<title>Node42&#45;&gt;Node13</title>
<g id="a_edge45_Node000042_Node000013"><a xlink:title=" ">
<path fill="none" stroke="#63b8ff" d="M919.01,-439.87C928.9,-421.97 950,-379.24 950,-340.5 950,-340.5 950,-340.5 950,-173.5 950,-117.59 768.84,-84.18 682.61,-71.44"/>
<polygon fill="#63b8ff" stroke="#63b8ff" points="682.98,-67.96 672.58,-69.99 681.98,-74.89 682.98,-67.96"/>
</a>
</g>
</g>
<!-- Node42&#45;&gt;Node16 -->
<g id="edge43_Node000042_Node000016" class="edge">
<title>Node42&#45;&gt;Node16</title>
<g id="a_edge43_Node000042_Node000016"><a xlink:title=" ">
<path fill="none" stroke="#63b8ff" d="M925.99,-439.73C954.88,-417.46 1026,-355.54 1026,-285.5 1026,-285.5 1026,-285.5 1026,-118.5 1026,-47.94 784.86,-21.51 682.78,-13.48"/>
<polygon fill="#63b8ff" stroke="#63b8ff" points="683.01,-9.99 672.77,-12.72 682.48,-16.97 683.01,-9.99"/>
</a>
</g>
</g>
<!-- Node42&#45;&gt;Node37 -->
<g id="edge44_Node000042_Node000037" class="edge">
<title>Node42&#45;&gt;Node37</title>
<g id="a_edge44_Node000042_Node000037"><a xlink:title=" ">
<path fill="none" stroke="#63b8ff" d="M899.81,-439.84C869.26,-421.2 797.01,-377.11 759.89,-354.46"/>
<polygon fill="#63b8ff" stroke="#63b8ff" points="761.61,-351.42 751.25,-349.2 757.97,-357.39 761.61,-351.42"/>
</a>
</g>
</g>
<!-- Node43 -->
<g id="Node000043" class="node">
<title>Node43</title>
<g id="a_Node000043"><a xlink:title=" ">
<polygon fill="#e0e0e0" stroke="#999999" points="921.5,-404 864.5,-404 864.5,-385 921.5,-385 921.5,-404"/>
<text text-anchor="middle" x="893" y="-392" font-family="Helvetica,sans-Serif" font-size="10.00">typeinfo</text>
</a>
</g>
</g>
<!-- Node42&#45;&gt;Node43 -->
<g id="edge42_Node000042_Node000043" class="edge">
<title>Node42&#45;&gt;Node43</title>
<g id="a_edge42_Node000042_Node000043"><a xlink:title=" ">
<path fill="none" stroke="#63b8ff" d="M910.53,-439.75C907.72,-432.65 903.66,-422.4 900.15,-413.56"/>
<polygon fill="#63b8ff" stroke="#63b8ff" points="903.34,-412.1 896.4,-404.09 896.83,-414.68 903.34,-412.1"/>
</a>
</g>
</g>
<!-- Node44&#45;&gt;Node4 -->
<g id="edge49_Node000044_Node000004" class="edge">
<title>Node44&#45;&gt;Node4</title>
<g id="a_edge49_Node000044_Node000004"><a xlink:title=" ">
<path fill="none" stroke="#63b8ff" d="M123.88,-439.98C104.65,-431.42 74.77,-418.11 52.69,-408.28"/>
<polygon fill="#63b8ff" stroke="#63b8ff" points="54.03,-405.04 43.47,-404.17 51.18,-411.44 54.03,-405.04"/>
</a>
</g>
</g>
<!-- Node44&#45;&gt;Node11 -->
<g id="edge50_Node000044_Node000011" class="edge">
<title>Node44&#45;&gt;Node11</title>
<g id="a_edge50_Node000044_Node000011"><a xlink:title=" ">
<path fill="none" stroke="#63b8ff" d="M130.19,-439.69C119.34,-431.6 104.13,-418.66 95,-404 79.43,-378.99 76,-369.96 76,-340.5 76,-340.5 76,-340.5 76,-118.5 76,-69.68 234.29,-31.3 303.85,-16.78"/>
<polygon fill="#63b8ff" stroke="#63b8ff" points="304.74,-20.17 313.83,-14.74 303.33,-13.32 304.74,-20.17"/>
</a>
</g>
</g>
<!-- Node45 -->
<g id="Node000045" class="node">
<title>Node45</title>
<g id="a_Node000045"><a xlink:title=" ">
<polygon fill="#e0e0e0" stroke="#999999" points="198,-404 104,-404 104,-385 198,-385 198,-404"/>
<text text-anchor="middle" x="151" y="-392" font-family="Helvetica,sans-Serif" font-size="10.00">big&#45;int/bigint.hh</text>
</a>
</g>
</g>
<!-- Node44&#45;&gt;Node45 -->
<g id="edge51_Node000044_Node000045" class="edge">
<title>Node44&#45;&gt;Node45</title>
<g id="a_edge51_Node000044_Node000045"><a xlink:title=" ">
<path fill="none" stroke="#63b8ff" d="M144.32,-439.75C145.37,-432.8 146.87,-422.85 148.19,-414.13"/>
<polygon fill="#63b8ff" stroke="#63b8ff" points="151.67,-414.5 149.7,-404.09 144.75,-413.45 151.67,-414.5"/>
</a>
</g>
</g>
<!-- Node46&#45;&gt;Node13 -->
<g id="edge56_Node000046_Node000013" class="edge">
<title>Node46&#45;&gt;Node13</title>
<g id="a_edge56_Node000046_Node000013"><a xlink:title=" ">
<path fill="none" stroke="#63b8ff" d="M859.86,-549.91C885.57,-535.07 935.87,-502.05 960,-459 998.19,-390.87 988,-363.61 988,-285.5 988,-285.5 988,-285.5 988,-173.5 988,-110.29 776.94,-80.12 682.62,-69.8"/>
<polygon fill="#63b8ff" stroke="#63b8ff" points="682.83,-66.3 672.52,-68.72 682.09,-73.26 682.83,-66.3"/>
</a>
</g>
</g>
<!-- Node46&#45;&gt;Node41 -->
<g id="edge57_Node000046_Node000041" class="edge">
<title>Node46&#45;&gt;Node41</title>
<g id="a_edge57_Node000046_Node000041"><a xlink:title=" ">
<path fill="none" stroke="#63b8ff" d="M830.18,-549.98C816.85,-541.77 796.42,-529.18 780.69,-519.49"/>
<polygon fill="#63b8ff" stroke="#63b8ff" points="782.42,-516.44 772.07,-514.17 778.75,-522.4 782.42,-516.44"/>
</a>
</g>
</g>
<!-- Node46&#45;&gt;Node42 -->
<g id="edge55_Node000046_Node000042" class="edge">
<title>Node46&#45;&gt;Node42</title>
<g id="a_edge55_Node000046_Node000042"><a xlink:title=" ">
<path fill="none" stroke="#63b8ff" d="M849.73,-549.66C861.32,-531.77 887.75,-491 902.86,-467.69"/>
<polygon fill="#63b8ff" stroke="#63b8ff" points="905.89,-469.45 908.39,-459.16 900.01,-465.65 905.89,-469.45"/>
</a>
</g>
</g>
<!-- Node47&#45;&gt;Node5 -->
<g id="edge60_Node000047_Node000005" class="edge">
<title>Node47&#45;&gt;Node5</title>
<g id="a_edge60_Node000047_Node000005"><a xlink:title=" ">
<path fill="none" stroke="#63b8ff" d="M445,-439.75C445,-432.8 445,-422.85 445,-414.13"/>
<polygon fill="#63b8ff" stroke="#63b8ff" points="448.5,-414.09 445,-404.09 441.5,-414.09 448.5,-414.09"/>
</a>
</g>
</g>
<!-- Node48&#45;&gt;Node7 -->
<g id="edge63_Node000048_Node000007" class="edge">
<title>Node48&#45;&gt;Node7</title>
<g id="a_edge63_Node000048_Node000007"><a xlink:title=" ">
<path fill="none" stroke="#63b8ff" d="M558.87,-494.74C555.58,-469.2 545.95,-394.43 541.41,-359.23"/>
<polygon fill="#63b8ff" stroke="#63b8ff" points="544.88,-358.78 540.13,-349.31 537.94,-359.67 544.88,-358.78"/>
</a>
</g>
</g>
<!-- Node48&#45;&gt;Node13 -->
<g id="edge62_Node000048_Node000013" class="edge">
<title>Node48&#45;&gt;Node13</title>
<g id="a_edge62_Node000048_Node000013"><a xlink:title=" ">
<path fill="none" stroke="#63b8ff" d="M565.61,-494.77C583.49,-466.06 638,-371.52 638,-285.5 638,-285.5 638,-285.5 638,-173.5 638,-142.19 638,-105.77 638,-84.23"/>
<polygon fill="#63b8ff" stroke="#63b8ff" points="641.5,-84.18 638,-74.18 634.5,-84.18 641.5,-84.18"/>
</a>
</g>
</g>
<!-- Node48&#45;&gt;Node47 -->
<g id="edge64_Node000048_Node000047" class="edge">
<title>Node48&#45;&gt;Node47</title>
<g id="a_edge64_Node000048_Node000047"><a xlink:title=" ">
<path fill="none" stroke="#63b8ff" d="M541.52,-494.98C523.02,-486.46 494.32,-473.23 473.02,-463.41"/>
<polygon fill="#63b8ff" stroke="#63b8ff" points="474.36,-460.18 463.81,-459.17 471.43,-466.53 474.36,-460.18"/>
</a>
</g>
</g>
</g>
</svg>
