<?xml version="1.0" encoding="UTF-8" standalone="no"?>
<!DOCTYPE svg PUBLIC "-//W3C//DTD SVG 1.1//EN"
 "http://www.w3.org/Graphics/SVG/1.1/DTD/svg11.dtd">
<!-- Generated by graphviz version 2.43.0 (0)
 -->
<!-- Title: /home/runner/work/cbmc/cbmc/src/solvers/smt2_incremental/type_size_mapping.h Pages: 1 -->
<svg width="814pt" height="236pt"
 viewBox="0.00 0.00 814.00 236.00" xmlns="http://www.w3.org/2000/svg" xmlns:xlink="http://www.w3.org/1999/xlink">
<g id="graph0" class="graph" transform="scale(1 1) rotate(0) translate(4 232)">
<title>/home/runner/work/cbmc/cbmc/src/solvers/smt2_incremental/type_size_mapping.h</title>
<!-- Node1 -->
<g id="Node000001" class="node">
<title>Node1</title>
<g id="a_Node000001"><a xlink:title="Utilities for making a map of types to associated sizes.">
<polygon fill="#999999" stroke="#666666" points="454,-228 316,-228 316,-176 454,-176 454,-228"/>
<text text-anchor="start" x="324" y="-216" font-family="Helvetica,sans-Serif" font-size="10.00">/home/runner/work/cbmc</text>
<text text-anchor="start" x="324" y="-205" font-family="Helvetica,sans-Serif" font-size="10.00">/cbmc/src/solvers/smt2</text>
<text text-anchor="start" x="324" y="-194" font-family="Helvetica,sans-Serif" font-size="10.00">_incremental/type_size</text>
<text text-anchor="middle" x="385" y="-183" font-family="Helvetica,sans-Serif" font-size="10.00">_mapping.h</text>
</a>
</g>
</g>
<!-- Node2 -->
<g id="Node000002" class="node">
<title>Node2</title>
<g id="a_Node000002"><a xlink:href="convert__expr__to__smt_8h.html" target="_top" xlink:title=" ">
<polygon fill="white" stroke="#666666" points="509.5,-140 362.5,-140 362.5,-88 509.5,-88 509.5,-140"/>
<text text-anchor="start" x="370.5" y="-128" font-family="Helvetica,sans-Serif" font-size="10.00">/home/runner/work/cbmc</text>
<text text-anchor="start" x="370.5" y="-117" font-family="Helvetica,sans-Serif" font-size="10.00">/cbmc/src/solvers/smt2</text>
<text text-anchor="start" x="370.5" y="-106" font-family="Helvetica,sans-Serif" font-size="10.00">_incremental/convert_expr</text>
<text text-anchor="middle" x="436" y="-95" font-family="Helvetica,sans-Serif" font-size="10.00">_to_smt.h</text>
</a>
</g>
</g>
<!-- Node1&#45;&gt;Node2 -->
<g id="edge1_Node000001_Node000002" class="edge">
<title>Node1&#45;&gt;Node2</title>
<g id="a_edge1_Node000001_Node000002"><a xlink:title=" ">
<path fill="none" stroke="#63b8ff" d="M405.19,-166.96C410.49,-158.02 416.11,-148.54 421.08,-140.16"/>
<polygon fill="#63b8ff" stroke="#63b8ff" points="402.12,-165.28 400.03,-175.66 408.14,-168.85 402.12,-165.28"/>
</a>
</g>
</g>
<!-- Node4 -->
<g id="Node000004" class="node">
<title>Node4</title>
<g id="a_Node000004"><a xlink:href="smt2__incremental__decision__procedure_8cpp.html" target="_top" xlink:title=" ">
<polygon fill="white" stroke="#666666" points="328,-52 156,-52 156,0 328,0 328,-52"/>
<text text-anchor="start" x="164" y="-40" font-family="Helvetica,sans-Serif" font-size="10.00">/home/runner/work/cbmc</text>
<text text-anchor="start" x="164" y="-29" font-family="Helvetica,sans-Serif" font-size="10.00">/cbmc/src/solvers/smt2</text>
<text text-anchor="start" x="164" y="-18" font-family="Helvetica,sans-Serif" font-size="10.00">_incremental/smt2_incremental</text>
<text text-anchor="middle" x="242" y="-7" font-family="Helvetica,sans-Serif" font-size="10.00">_decision_procedure.cpp</text>
</a>
</g>
</g>
<!-- Node1&#45;&gt;Node4 -->
<g id="edge6_Node000001_Node000004" class="edge">
<title>Node1&#45;&gt;Node4</title>
<g id="a_edge6_Node000001_Node000004"><a xlink:title=" ">
<path fill="none" stroke="#63b8ff" d="M367.56,-166.75C354.74,-143.28 335.96,-112.16 315,-88 303.74,-75.03 289.58,-62.53 276.74,-52.26"/>
<polygon fill="#63b8ff" stroke="#63b8ff" points="364.53,-168.5 372.34,-175.65 370.7,-165.18 364.53,-168.5"/>
</a>
</g>
</g>
<!-- Node6 -->
<g id="Node000006" class="node">
<title>Node6</title>
<g id="a_Node000006"><a xlink:href="type__size__mapping_8cpp.html" target="_top" xlink:title=" ">
<polygon fill="white" stroke="#666666" points="806,-52 668,-52 668,0 806,0 806,-52"/>
<text text-anchor="start" x="676" y="-40" font-family="Helvetica,sans-Serif" font-size="10.00">/home/runner/work/cbmc</text>
<text text-anchor="start" x="676" y="-29" font-family="Helvetica,sans-Serif" font-size="10.00">/cbmc/src/solvers/smt2</text>
<text text-anchor="start" x="676" y="-18" font-family="Helvetica,sans-Serif" font-size="10.00">_incremental/type_size</text>
<text text-anchor="middle" x="737" y="-7" font-family="Helvetica,sans-Serif" font-size="10.00">_mapping.cpp</text>
</a>
</g>
</g>
<!-- Node1&#45;&gt;Node6 -->
<g id="edge10_Node000001_Node000006" class="edge">
<title>Node1&#45;&gt;Node6</title>
<g id="a_edge10_Node000001_Node000006"><a xlink:title=" ">
<path fill="none" stroke="#63b8ff" d="M450.87,-171.82C472.67,-161.95 496.98,-150.71 519,-140 578.61,-111.01 646.24,-75.54 690.15,-52.17"/>
<polygon fill="#63b8ff" stroke="#63b8ff" points="449.37,-168.66 441.7,-175.96 452.25,-175.04 449.37,-168.66"/>
</a>
</g>
</g>
<!-- Node7 -->
<g id="Node000007" class="node">
<title>Node7</title>
<g id="a_Node000007"><a xlink:href="smt2__incremental__decision__procedure_8h.html" target="_top" xlink:title="Decision procedure with incremental SMT2 solving.">
<polygon fill="white" stroke="#666666" points="306,-140 134,-140 134,-88 306,-88 306,-140"/>
<text text-anchor="start" x="142" y="-128" font-family="Helvetica,sans-Serif" font-size="10.00">/home/runner/work/cbmc</text>
<text text-anchor="start" x="142" y="-117" font-family="Helvetica,sans-Serif" font-size="10.00">/cbmc/src/solvers/smt2</text>
<text text-anchor="start" x="142" y="-106" font-family="Helvetica,sans-Serif" font-size="10.00">_incremental/smt2_incremental</text>
<text text-anchor="middle" x="220" y="-95" font-family="Helvetica,sans-Serif" font-size="10.00">_decision_procedure.h</text>
</a>
</g>
</g>
<!-- Node1&#45;&gt;Node7 -->
<g id="edge7_Node000001_Node000007" class="edge">
<title>Node1&#45;&gt;Node7</title>
<g id="a_edge7_Node000001_Node000007"><a xlink:title=" ">
<path fill="none" stroke="#63b8ff" d="M327.78,-171.18C308.36,-161.06 286.87,-149.86 268.23,-140.14"/>
<polygon fill="#63b8ff" stroke="#63b8ff" points="326.35,-174.38 336.83,-175.89 329.58,-168.17 326.35,-174.38"/>
</a>
</g>
</g>
<!-- Node3 -->
<g id="Node000003" class="node">
<title>Node3</title>
<g id="a_Node000003"><a xlink:href="convert__expr__to__smt_8cpp.html" target="_top" xlink:title=" ">
<polygon fill="white" stroke="#666666" points="649.5,-52 502.5,-52 502.5,0 649.5,0 649.5,-52"/>
<text text-anchor="start" x="510.5" y="-40" font-family="Helvetica,sans-Serif" font-size="10.00">/home/runner/work/cbmc</text>
<text text-anchor="start" x="510.5" y="-29" font-family="Helvetica,sans-Serif" font-size="10.00">/cbmc/src/solvers/smt2</text>
<text text-anchor="start" x="510.5" y="-18" font-family="Helvetica,sans-Serif" font-size="10.00">_incremental/convert_expr</text>
<text text-anchor="middle" x="576" y="-7" font-family="Helvetica,sans-Serif" font-size="10.00">_to_smt.cpp</text>
</a>
</g>
</g>
<!-- Node2&#45;&gt;Node3 -->
<g id="edge2_Node000002_Node000003" class="edge">
<title>Node2&#45;&gt;Node3</title>
<g id="a_edge2_Node000002_Node000003"><a xlink:title=" ">
<path fill="none" stroke="#63b8ff" d="M485.63,-82.51C501.74,-72.62 519.42,-61.76 534.84,-52.29"/>
<polygon fill="#63b8ff" stroke="#63b8ff" points="483.56,-79.68 476.87,-87.89 487.22,-85.64 483.56,-79.68"/>
</a>
</g>
</g>
<!-- Node2&#45;&gt;Node4 -->
<g id="edge3_Node000002_Node000004" class="edge">
<title>Node2&#45;&gt;Node4</title>
<g id="a_edge3_Node000002_Node000004"><a xlink:title=" ">
<path fill="none" stroke="#63b8ff" d="M369.96,-83.73C346.81,-73.46 321.03,-62.03 298.7,-52.14"/>
<polygon fill="#63b8ff" stroke="#63b8ff" points="368.81,-87.04 379.37,-87.89 371.64,-80.64 368.81,-87.04"/>
</a>
</g>
</g>
<!-- Node5 -->
<g id="Node000005" class="node">
<title>Node5</title>
<g id="a_Node000005"><a xlink:href="smt__object__size_8cpp.html" target="_top" xlink:title=" ">
<polygon fill="white" stroke="#666666" points="484,-52 346,-52 346,0 484,0 484,-52"/>
<text text-anchor="start" x="354" y="-40" font-family="Helvetica,sans-Serif" font-size="10.00">/home/runner/work/cbmc</text>
<text text-anchor="start" x="354" y="-29" font-family="Helvetica,sans-Serif" font-size="10.00">/cbmc/src/solvers/smt2</text>
<text text-anchor="start" x="354" y="-18" font-family="Helvetica,sans-Serif" font-size="10.00">_incremental/smt_object</text>
<text text-anchor="middle" x="415" y="-7" font-family="Helvetica,sans-Serif" font-size="10.00">_size.cpp</text>
</a>
</g>
</g>
<!-- Node2&#45;&gt;Node5 -->
<g id="edge4_Node000002_Node000005" class="edge">
<title>Node2&#45;&gt;Node5</title>
<g id="a_edge4_Node000002_Node000005"><a xlink:title=" ">
<path fill="none" stroke="#63b8ff" d="M427.41,-77.84C425.31,-69.23 423.1,-60.19 421.14,-52.16"/>
<polygon fill="#63b8ff" stroke="#63b8ff" points="424.04,-78.78 429.81,-87.66 430.84,-77.12 424.04,-78.78"/>
</a>
</g>
</g>
<!-- Node2&#45;&gt;Node6 -->
<g id="edge5_Node000002_Node000006" class="edge">
<title>Node2&#45;&gt;Node6</title>
<g id="a_edge5_Node000002_Node000006"><a xlink:title=" ">
<path fill="none" stroke="#63b8ff" d="M519.45,-91.09C561.44,-79.83 613.05,-65.64 659,-52 661.86,-51.15 664.78,-50.27 667.73,-49.37"/>
<polygon fill="#63b8ff" stroke="#63b8ff" points="518.3,-87.77 509.55,-93.74 520.11,-94.53 518.3,-87.77"/>
</a>
</g>
</g>
<!-- Node7&#45;&gt;Node4 -->
<g id="edge9_Node000007_Node000004" class="edge">
<title>Node7&#45;&gt;Node4</title>
<g id="a_edge9_Node000007_Node000004"><a xlink:title=" ">
<path fill="none" stroke="#63b8ff" d="M228.99,-77.84C231.2,-69.23 233.51,-60.19 235.56,-52.16"/>
<polygon fill="#63b8ff" stroke="#63b8ff" points="225.57,-77.11 226.48,-87.66 232.35,-78.84 225.57,-77.11"/>
</a>
</g>
</g>
<!-- Node8 -->
<g id="Node000008" class="node">
<title>Node8</title>
<g id="a_Node000008"><a xlink:href="solver__factory_8cpp.html" target="_top" xlink:title="Solver Factory.">
<polygon fill="white" stroke="#666666" points="138,-46.5 0,-46.5 0,-5.5 138,-5.5 138,-46.5"/>
<text text-anchor="start" x="8" y="-34.5" font-family="Helvetica,sans-Serif" font-size="10.00">/home/runner/work/cbmc</text>
<text text-anchor="start" x="8" y="-23.5" font-family="Helvetica,sans-Serif" font-size="10.00">/cbmc/src/goto&#45;checker</text>
<text text-anchor="middle" x="69" y="-12.5" font-family="Helvetica,sans-Serif" font-size="10.00">/solver_factory.cpp</text>
</a>
</g>
</g>
<!-- Node7&#45;&gt;Node8 -->
<g id="edge8_Node000007_Node000008" class="edge">
<title>Node7&#45;&gt;Node8</title>
<g id="a_edge8_Node000007_Node000008"><a xlink:title=" ">
<path fill="none" stroke="#63b8ff" d="M167.03,-82.83C145.88,-70.78 122.12,-57.25 103.29,-46.53"/>
<polygon fill="#63b8ff" stroke="#63b8ff" points="165.5,-85.99 175.92,-87.89 168.96,-79.9 165.5,-85.99"/>
</a>
</g>
</g>
</g>
</svg>
