<?xml version="1.0" encoding="UTF-8" standalone="no"?>
<!DOCTYPE svg PUBLIC "-//W3C//DTD SVG 1.1//EN"
 "http://www.w3.org/Graphics/SVG/1.1/DTD/svg11.dtd">
<!-- Generated by graphviz version 2.43.0 (0)
 -->
<!-- Title: /home/runner/work/cbmc/cbmc/src/goto&#45;instrument/contracts/utils.h Pages: 1 -->
<svg width="3465pt" height="390pt"
 viewBox="0.00 0.00 3464.82 390.00" xmlns="http://www.w3.org/2000/svg" xmlns:xlink="http://www.w3.org/1999/xlink">
<g id="graph0" class="graph" transform="scale(1 1) rotate(0) translate(4 386)">
<title>/home/runner/work/cbmc/cbmc/src/goto&#45;instrument/contracts/utils.h</title>
<!-- Node1 -->
<g id="Node000001" class="node">
<title>Node1</title>
<g id="a_Node000001"><a xlink:title=" ">
<polygon fill="#999999" stroke="#666666" points="1938,-382 1793,-382 1793,-341 1938,-341 1938,-382"/>
<text text-anchor="start" x="1801" y="-370" font-family="Helvetica,sans-Serif" font-size="10.00">/home/runner/work/cbmc</text>
<text text-anchor="start" x="1801" y="-359" font-family="Helvetica,sans-Serif" font-size="10.00">/cbmc/src/goto&#45;instrument</text>
<text text-anchor="middle" x="1865.5" y="-348" font-family="Helvetica,sans-Serif" font-size="10.00">/contracts/utils.h</text>
</a>
</g>
</g>
<!-- Node2 -->
<g id="Node000002" class="node">
<title>Node2</title>
<g id="a_Node000002"><a xlink:href="contracts_8cpp.html" target="_top" xlink:title="Verify and use annotated loop and function contracts.">
<polygon fill="white" stroke="#666666" points="145,-299.5 0,-299.5 0,-258.5 145,-258.5 145,-299.5"/>
<text text-anchor="start" x="8" y="-287.5" font-family="Helvetica,sans-Serif" font-size="10.00">/home/runner/work/cbmc</text>
<text text-anchor="start" x="8" y="-276.5" font-family="Helvetica,sans-Serif" font-size="10.00">/cbmc/src/goto&#45;instrument</text>
<text text-anchor="middle" x="72.5" y="-265.5" font-family="Helvetica,sans-Serif" font-size="10.00">/contracts/contracts.cpp</text>
</a>
</g>
</g>
<!-- Node1&#45;&gt;Node2 -->
<g id="edge1_Node000001_Node000002" class="edge">
<title>Node1&#45;&gt;Node2</title>
<g id="a_edge1_Node000001_Node000002"><a xlink:title=" ">
<path fill="none" stroke="#63b8ff" d="M1782.36,-360.7C1484.74,-360.95 473.25,-357.81 154.5,-305 146.42,-303.66 138.03,-301.75 129.84,-299.56"/>
<polygon fill="#63b8ff" stroke="#63b8ff" points="1782.65,-364.2 1792.64,-360.69 1782.64,-357.2 1782.65,-364.2"/>
</a>
</g>
</g>
<!-- Node3 -->
<g id="Node000003" class="node">
<title>Node3</title>
<g id="a_Node000003"><a xlink:href="contracts__wrangler_8cpp.html" target="_top" xlink:title="Parse and annotate contracts.">
<polygon fill="white" stroke="#666666" points="343.5,-299.5 163.5,-299.5 163.5,-258.5 343.5,-258.5 343.5,-299.5"/>
<text text-anchor="start" x="171.5" y="-287.5" font-family="Helvetica,sans-Serif" font-size="10.00">/home/runner/work/cbmc</text>
<text text-anchor="start" x="171.5" y="-276.5" font-family="Helvetica,sans-Serif" font-size="10.00">/cbmc/src/goto&#45;instrument</text>
<text text-anchor="middle" x="253.5" y="-265.5" font-family="Helvetica,sans-Serif" font-size="10.00">/contracts/contracts_wrangler.cpp</text>
</a>
</g>
</g>
<!-- Node1&#45;&gt;Node3 -->
<g id="edge2_Node000001_Node000003" class="edge">
<title>Node1&#45;&gt;Node3</title>
<g id="a_edge2_Node000001_Node000003"><a xlink:title=" ">
<path fill="none" stroke="#63b8ff" d="M1782.5,-359.76C1508.15,-356.94 632.04,-344.97 352.5,-305 342.94,-303.63 332.96,-301.71 323.17,-299.54"/>
<polygon fill="#63b8ff" stroke="#63b8ff" points="1782.75,-363.26 1792.78,-359.86 1782.82,-356.26 1782.75,-363.26"/>
</a>
</g>
</g>
<!-- Node4 -->
<g id="Node000004" class="node">
<title>Node4</title>
<g id="a_Node000004"><a xlink:href="dfcc_8cpp.html" target="_top" xlink:title=" ">
<polygon fill="white" stroke="#666666" points="509.5,-305 361.5,-305 361.5,-253 509.5,-253 509.5,-305"/>
<text text-anchor="start" x="369.5" y="-293" font-family="Helvetica,sans-Serif" font-size="10.00">/home/runner/work/cbmc</text>
<text text-anchor="start" x="369.5" y="-282" font-family="Helvetica,sans-Serif" font-size="10.00">/cbmc/src/goto&#45;instrument</text>
<text text-anchor="start" x="369.5" y="-271" font-family="Helvetica,sans-Serif" font-size="10.00">/contracts/dynamic&#45;frames</text>
<text text-anchor="middle" x="435.5" y="-260" font-family="Helvetica,sans-Serif" font-size="10.00">/dfcc.cpp</text>
</a>
</g>
</g>
<!-- Node1&#45;&gt;Node4 -->
<g id="edge3_Node000001_Node000004" class="edge">
<title>Node1&#45;&gt;Node4</title>
<g id="a_edge3_Node000001_Node000004"><a xlink:title=" ">
<path fill="none" stroke="#63b8ff" d="M1782.59,-359.81C1528.57,-357.26 763.5,-346.27 518.5,-305 515.68,-304.53 512.82,-303.98 509.95,-303.39"/>
<polygon fill="#63b8ff" stroke="#63b8ff" points="1782.82,-363.31 1792.86,-359.91 1782.89,-356.31 1782.82,-363.31"/>
</a>
</g>
</g>
<!-- Node5 -->
<g id="Node000005" class="node">
<title>Node5</title>
<g id="a_Node000005"><a xlink:href="dfcc__cfg__info_8cpp.html" target="_top" xlink:title=" ">
<polygon fill="white" stroke="#666666" points="675.5,-305 527.5,-305 527.5,-253 675.5,-253 675.5,-305"/>
<text text-anchor="start" x="535.5" y="-293" font-family="Helvetica,sans-Serif" font-size="10.00">/home/runner/work/cbmc</text>
<text text-anchor="start" x="535.5" y="-282" font-family="Helvetica,sans-Serif" font-size="10.00">/cbmc/src/goto&#45;instrument</text>
<text text-anchor="start" x="535.5" y="-271" font-family="Helvetica,sans-Serif" font-size="10.00">/contracts/dynamic&#45;frames</text>
<text text-anchor="middle" x="601.5" y="-260" font-family="Helvetica,sans-Serif" font-size="10.00">/dfcc_cfg_info.cpp</text>
</a>
</g>
</g>
<!-- Node1&#45;&gt;Node5 -->
<g id="edge4_Node000001_Node000005" class="edge">
<title>Node1&#45;&gt;Node5</title>
<g id="a_edge4_Node000001_Node000005"><a xlink:title=" ">
<path fill="none" stroke="#63b8ff" d="M1782.54,-359.25C1550.17,-355.32 896.06,-341.26 684.5,-305 681.68,-304.52 678.82,-303.97 675.95,-303.37"/>
<polygon fill="#63b8ff" stroke="#63b8ff" points="1782.57,-362.75 1792.62,-359.42 1782.68,-355.75 1782.57,-362.75"/>
</a>
</g>
</g>
<!-- Node6 -->
<g id="Node000006" class="node">
<title>Node6</title>
<g id="a_Node000006"><a xlink:href="dfcc__check__loop__normal__form_8cpp.html" target="_top" xlink:title=" ">
<polygon fill="white" stroke="#666666" points="881.5,-305 693.5,-305 693.5,-253 881.5,-253 881.5,-305"/>
<text text-anchor="start" x="701.5" y="-293" font-family="Helvetica,sans-Serif" font-size="10.00">/home/runner/work/cbmc</text>
<text text-anchor="start" x="701.5" y="-282" font-family="Helvetica,sans-Serif" font-size="10.00">/cbmc/src/goto&#45;instrument</text>
<text text-anchor="start" x="701.5" y="-271" font-family="Helvetica,sans-Serif" font-size="10.00">/contracts/dynamic&#45;frames</text>
<text text-anchor="middle" x="787.5" y="-260" font-family="Helvetica,sans-Serif" font-size="10.00">/dfcc_check_loop_normal_form.cpp</text>
</a>
</g>
</g>
<!-- Node1&#45;&gt;Node6 -->
<g id="edge5_Node000001_Node000006" class="edge">
<title>Node1&#45;&gt;Node6</title>
<g id="a_edge5_Node000001_Node000006"><a xlink:title=" ">
<path fill="none" stroke="#63b8ff" d="M1782.82,-360.83C1614.11,-360.39 1218.37,-353.71 890.5,-305 887.59,-304.57 884.64,-304.09 881.66,-303.58"/>
<polygon fill="#63b8ff" stroke="#63b8ff" points="1782.87,-364.33 1792.88,-360.85 1782.88,-357.33 1782.87,-364.33"/>
</a>
</g>
</g>
<!-- Node7 -->
<g id="Node000007" class="node">
<title>Node7</title>
<g id="a_Node000007"><a xlink:href="dfcc__contract__clauses__codegen_8cpp.html" target="_top" xlink:title=" ">
<polygon fill="white" stroke="#666666" points="1093.5,-305 899.5,-305 899.5,-253 1093.5,-253 1093.5,-305"/>
<text text-anchor="start" x="907.5" y="-293" font-family="Helvetica,sans-Serif" font-size="10.00">/home/runner/work/cbmc</text>
<text text-anchor="start" x="907.5" y="-282" font-family="Helvetica,sans-Serif" font-size="10.00">/cbmc/src/goto&#45;instrument</text>
<text text-anchor="start" x="907.5" y="-271" font-family="Helvetica,sans-Serif" font-size="10.00">/contracts/dynamic&#45;frames</text>
<text text-anchor="middle" x="996.5" y="-260" font-family="Helvetica,sans-Serif" font-size="10.00">/dfcc_contract_clauses_codegen.cpp</text>
</a>
</g>
</g>
<!-- Node1&#45;&gt;Node7 -->
<g id="edge6_Node000001_Node000007" class="edge">
<title>Node1&#45;&gt;Node7</title>
<g id="a_edge6_Node000001_Node000007"><a xlink:title=" ">
<path fill="none" stroke="#63b8ff" d="M1782.47,-358.78C1641.8,-354.89 1347.93,-342.62 1102.5,-305 1099.6,-304.56 1096.67,-304.07 1093.71,-303.56"/>
<polygon fill="#63b8ff" stroke="#63b8ff" points="1782.65,-362.28 1792.74,-359.05 1782.84,-355.28 1782.65,-362.28"/>
</a>
</g>
</g>
<!-- Node8 -->
<g id="Node000008" class="node">
<title>Node8</title>
<g id="a_Node000008"><a xlink:href="dfcc__contract__functions_8cpp.html" target="_top" xlink:title=" ">
<polygon fill="white" stroke="#666666" points="1267,-305 1112,-305 1112,-253 1267,-253 1267,-305"/>
<text text-anchor="start" x="1120" y="-293" font-family="Helvetica,sans-Serif" font-size="10.00">/home/runner/work/cbmc</text>
<text text-anchor="start" x="1120" y="-282" font-family="Helvetica,sans-Serif" font-size="10.00">/cbmc/src/goto&#45;instrument</text>
<text text-anchor="start" x="1120" y="-271" font-family="Helvetica,sans-Serif" font-size="10.00">/contracts/dynamic&#45;frames</text>
<text text-anchor="middle" x="1189.5" y="-260" font-family="Helvetica,sans-Serif" font-size="10.00">/dfcc_contract_functions.cpp</text>
</a>
</g>
</g>
<!-- Node1&#45;&gt;Node8 -->
<g id="edge7_Node000001_Node000008" class="edge">
<title>Node1&#45;&gt;Node8</title>
<g id="a_edge7_Node000001_Node000008"><a xlink:title=" ">
<path fill="none" stroke="#63b8ff" d="M1782.71,-357.55C1668.1,-352.36 1455.04,-338.76 1276.5,-305 1273.41,-304.42 1270.27,-303.77 1267.12,-303.08"/>
<polygon fill="#63b8ff" stroke="#63b8ff" points="1782.67,-361.05 1792.81,-357.99 1782.97,-354.06 1782.67,-361.05"/>
</a>
</g>
</g>
<!-- Node9 -->
<g id="Node000009" class="node">
<title>Node9</title>
<g id="a_Node000009"><a xlink:href="dfcc__contract__handler_8cpp.html" target="_top" xlink:title=" ">
<polygon fill="white" stroke="#666666" points="1433.5,-305 1285.5,-305 1285.5,-253 1433.5,-253 1433.5,-305"/>
<text text-anchor="start" x="1293.5" y="-293" font-family="Helvetica,sans-Serif" font-size="10.00">/home/runner/work/cbmc</text>
<text text-anchor="start" x="1293.5" y="-282" font-family="Helvetica,sans-Serif" font-size="10.00">/cbmc/src/goto&#45;instrument</text>
<text text-anchor="start" x="1293.5" y="-271" font-family="Helvetica,sans-Serif" font-size="10.00">/contracts/dynamic&#45;frames</text>
<text text-anchor="middle" x="1359.5" y="-260" font-family="Helvetica,sans-Serif" font-size="10.00">/dfcc_contract_handler.cpp</text>
</a>
</g>
</g>
<!-- Node1&#45;&gt;Node9 -->
<g id="edge8_Node000001_Node000009" class="edge">
<title>Node1&#45;&gt;Node9</title>
<g id="a_edge8_Node000001_Node000009"><a xlink:title=" ">
<path fill="none" stroke="#63b8ff" d="M1782.46,-353.62C1696.67,-345.57 1559.23,-330.07 1442.5,-305 1439.56,-304.37 1436.57,-303.68 1433.56,-302.96"/>
<polygon fill="#63b8ff" stroke="#63b8ff" points="1782.38,-357.12 1792.66,-354.56 1783.03,-350.15 1782.38,-357.12"/>
</a>
</g>
</g>
<!-- Node10 -->
<g id="Node000010" class="node">
<title>Node10</title>
<g id="a_Node000010"><a xlink:href="dfcc__infer__loop__assigns_8cpp.html" target="_top" xlink:title=" ">
<polygon fill="white" stroke="#666666" points="1607.5,-305 1451.5,-305 1451.5,-253 1607.5,-253 1607.5,-305"/>
<text text-anchor="start" x="1459.5" y="-293" font-family="Helvetica,sans-Serif" font-size="10.00">/home/runner/work/cbmc</text>
<text text-anchor="start" x="1459.5" y="-282" font-family="Helvetica,sans-Serif" font-size="10.00">/cbmc/src/goto&#45;instrument</text>
<text text-anchor="start" x="1459.5" y="-271" font-family="Helvetica,sans-Serif" font-size="10.00">/contracts/dynamic&#45;frames</text>
<text text-anchor="middle" x="1529.5" y="-260" font-family="Helvetica,sans-Serif" font-size="10.00">/dfcc_infer_loop_assigns.cpp</text>
</a>
</g>
</g>
<!-- Node1&#45;&gt;Node10 -->
<g id="edge9_Node000001_Node000010" class="edge">
<title>Node1&#45;&gt;Node10</title>
<g id="a_edge9_Node000001_Node000010"><a xlink:title=" ">
<path fill="none" stroke="#63b8ff" d="M1782.93,-343.41C1734.31,-333.01 1671.71,-319.07 1616.5,-305 1613.61,-304.26 1610.66,-303.5 1607.69,-302.71"/>
<polygon fill="#63b8ff" stroke="#63b8ff" points="1782.26,-346.84 1792.77,-345.5 1783.72,-340 1782.26,-346.84"/>
</a>
</g>
</g>
<!-- Node11 -->
<g id="Node000011" class="node">
<title>Node11</title>
<g id="a_Node000011"><a xlink:href="dfcc__instrument_8cpp.html" target="_top" xlink:title=" ">
<polygon fill="white" stroke="#666666" points="1773.5,-305 1625.5,-305 1625.5,-253 1773.5,-253 1773.5,-305"/>
<text text-anchor="start" x="1633.5" y="-293" font-family="Helvetica,sans-Serif" font-size="10.00">/home/runner/work/cbmc</text>
<text text-anchor="start" x="1633.5" y="-282" font-family="Helvetica,sans-Serif" font-size="10.00">/cbmc/src/goto&#45;instrument</text>
<text text-anchor="start" x="1633.5" y="-271" font-family="Helvetica,sans-Serif" font-size="10.00">/contracts/dynamic&#45;frames</text>
<text text-anchor="middle" x="1699.5" y="-260" font-family="Helvetica,sans-Serif" font-size="10.00">/dfcc_instrument.cpp</text>
</a>
</g>
</g>
<!-- Node1&#45;&gt;Node11 -->
<g id="edge10_Node000001_Node000011" class="edge">
<title>Node1&#45;&gt;Node11</title>
<g id="a_edge10_Node000001_Node000011"><a xlink:title=" ">
<path fill="none" stroke="#63b8ff" d="M1815.79,-336.39C1795.43,-326.52 1771.88,-315.1 1751.31,-305.13"/>
<polygon fill="#63b8ff" stroke="#63b8ff" points="1814.37,-339.59 1824.89,-340.81 1817.42,-333.29 1814.37,-339.59"/>
</a>
</g>
</g>
<!-- Node12 -->
<g id="Node000012" class="node">
<title>Node12</title>
<g id="a_Node000012"><a xlink:href="dfcc__instrument__loop_8cpp.html" target="_top" xlink:title=" ">
<polygon fill="white" stroke="#666666" points="1939.5,-305 1791.5,-305 1791.5,-253 1939.5,-253 1939.5,-305"/>
<text text-anchor="start" x="1799.5" y="-293" font-family="Helvetica,sans-Serif" font-size="10.00">/home/runner/work/cbmc</text>
<text text-anchor="start" x="1799.5" y="-282" font-family="Helvetica,sans-Serif" font-size="10.00">/cbmc/src/goto&#45;instrument</text>
<text text-anchor="start" x="1799.5" y="-271" font-family="Helvetica,sans-Serif" font-size="10.00">/contracts/dynamic&#45;frames</text>
<text text-anchor="middle" x="1865.5" y="-260" font-family="Helvetica,sans-Serif" font-size="10.00">/dfcc_instrument_loop.cpp</text>
</a>
</g>
</g>
<!-- Node1&#45;&gt;Node12 -->
<g id="edge11_Node000001_Node000012" class="edge">
<title>Node1&#45;&gt;Node12</title>
<g id="a_edge11_Node000001_Node000012"><a xlink:title=" ">
<path fill="none" stroke="#63b8ff" d="M1865.5,-330.49C1865.5,-322.15 1865.5,-313.19 1865.5,-305.16"/>
<polygon fill="#63b8ff" stroke="#63b8ff" points="1862,-330.6 1865.5,-340.6 1869,-330.6 1862,-330.6"/>
</a>
</g>
</g>
<!-- Node13 -->
<g id="Node000013" class="node">
<title>Node13</title>
<g id="a_Node000013"><a xlink:href="dfcc__swap__and__wrap_8cpp.html" target="_top" xlink:title=" ">
<polygon fill="white" stroke="#666666" points="2105.5,-305 1957.5,-305 1957.5,-253 2105.5,-253 2105.5,-305"/>
<text text-anchor="start" x="1965.5" y="-293" font-family="Helvetica,sans-Serif" font-size="10.00">/home/runner/work/cbmc</text>
<text text-anchor="start" x="1965.5" y="-282" font-family="Helvetica,sans-Serif" font-size="10.00">/cbmc/src/goto&#45;instrument</text>
<text text-anchor="start" x="1965.5" y="-271" font-family="Helvetica,sans-Serif" font-size="10.00">/contracts/dynamic&#45;frames</text>
<text text-anchor="middle" x="2031.5" y="-260" font-family="Helvetica,sans-Serif" font-size="10.00">/dfcc_swap_and_wrap.cpp</text>
</a>
</g>
</g>
<!-- Node1&#45;&gt;Node13 -->
<g id="edge12_Node000001_Node000013" class="edge">
<title>Node1&#45;&gt;Node13</title>
<g id="a_edge12_Node000001_Node000013"><a xlink:title=" ">
<path fill="none" stroke="#63b8ff" d="M1915.21,-336.39C1935.57,-326.52 1959.12,-315.1 1979.69,-305.13"/>
<polygon fill="#63b8ff" stroke="#63b8ff" points="1913.58,-333.29 1906.11,-340.81 1916.63,-339.59 1913.58,-333.29"/>
</a>
</g>
</g>
<!-- Node14 -->
<g id="Node000014" class="node">
<title>Node14</title>
<g id="a_Node000014"><a xlink:href="dfcc__utils_8cpp.html" target="_top" xlink:title=" ">
<polygon fill="white" stroke="#666666" points="2271.5,-305 2123.5,-305 2123.5,-253 2271.5,-253 2271.5,-305"/>
<text text-anchor="start" x="2131.5" y="-293" font-family="Helvetica,sans-Serif" font-size="10.00">/home/runner/work/cbmc</text>
<text text-anchor="start" x="2131.5" y="-282" font-family="Helvetica,sans-Serif" font-size="10.00">/cbmc/src/goto&#45;instrument</text>
<text text-anchor="start" x="2131.5" y="-271" font-family="Helvetica,sans-Serif" font-size="10.00">/contracts/dynamic&#45;frames</text>
<text text-anchor="middle" x="2197.5" y="-260" font-family="Helvetica,sans-Serif" font-size="10.00">/dfcc_utils.cpp</text>
</a>
</g>
</g>
<!-- Node1&#45;&gt;Node14 -->
<g id="edge13_Node000001_Node000014" class="edge">
<title>Node1&#45;&gt;Node14</title>
<g id="a_edge13_Node000001_Node000014"><a xlink:title=" ">
<path fill="none" stroke="#63b8ff" d="M1947.88,-343.72C1996.56,-333.42 2059.28,-319.45 2114.5,-305 2117.41,-304.24 2120.38,-303.44 2123.36,-302.62"/>
<polygon fill="#63b8ff" stroke="#63b8ff" points="1947.09,-340.31 1938.02,-345.8 1948.53,-347.16 1947.09,-340.31"/>
</a>
</g>
</g>
<!-- Node15 -->
<g id="Node000015" class="node">
<title>Node15</title>
<g id="a_Node000015"><a xlink:href="dfcc__wrapper__program_8cpp.html" target="_top" xlink:title=" ">
<polygon fill="white" stroke="#666666" points="2441.5,-305 2289.5,-305 2289.5,-253 2441.5,-253 2441.5,-305"/>
<text text-anchor="start" x="2297.5" y="-293" font-family="Helvetica,sans-Serif" font-size="10.00">/home/runner/work/cbmc</text>
<text text-anchor="start" x="2297.5" y="-282" font-family="Helvetica,sans-Serif" font-size="10.00">/cbmc/src/goto&#45;instrument</text>
<text text-anchor="start" x="2297.5" y="-271" font-family="Helvetica,sans-Serif" font-size="10.00">/contracts/dynamic&#45;frames</text>
<text text-anchor="middle" x="2365.5" y="-260" font-family="Helvetica,sans-Serif" font-size="10.00">/dfcc_wrapper_program.cpp</text>
</a>
</g>
</g>
<!-- Node1&#45;&gt;Node15 -->
<g id="edge14_Node000001_Node000015" class="edge">
<title>Node1&#45;&gt;Node15</title>
<g id="a_edge14_Node000001_Node000015"><a xlink:title=" ">
<path fill="none" stroke="#63b8ff" d="M1948.06,-353.22C2032.27,-344.91 2166.4,-329.26 2280.5,-305 2283.36,-304.39 2286.26,-303.74 2289.19,-303.04"/>
<polygon fill="#63b8ff" stroke="#63b8ff" points="1947.66,-349.74 1938.05,-354.19 1948.34,-356.71 1947.66,-349.74"/>
</a>
</g>
</g>
<!-- Node16 -->
<g id="Node000016" class="node">
<title>Node16</title>
<g id="a_Node000016"><a xlink:href="havoc__assigns__clause__targets_8cpp.html" target="_top" xlink:title="Havoc multiple and possibly dependent targets simultaneously.">
<polygon fill="white" stroke="#666666" points="2605,-305 2460,-305 2460,-253 2605,-253 2605,-305"/>
<text text-anchor="start" x="2468" y="-293" font-family="Helvetica,sans-Serif" font-size="10.00">/home/runner/work/cbmc</text>
<text text-anchor="start" x="2468" y="-282" font-family="Helvetica,sans-Serif" font-size="10.00">/cbmc/src/goto&#45;instrument</text>
<text text-anchor="start" x="2468" y="-271" font-family="Helvetica,sans-Serif" font-size="10.00">/contracts/havoc_assigns</text>
<text text-anchor="middle" x="2532.5" y="-260" font-family="Helvetica,sans-Serif" font-size="10.00">_clause_targets.cpp</text>
</a>
</g>
</g>
<!-- Node1&#45;&gt;Node16 -->
<g id="edge15_Node000001_Node000016" class="edge">
<title>Node1&#45;&gt;Node16</title>
<g id="a_edge15_Node000001_Node000016"><a xlink:title=" ">
<path fill="none" stroke="#63b8ff" d="M1948.28,-357.89C2062.31,-353.1 2273.69,-339.97 2450.5,-305 2453.57,-304.39 2456.68,-303.72 2459.82,-302.99"/>
<polygon fill="#63b8ff" stroke="#63b8ff" points="1948.07,-354.39 1938.22,-358.3 1948.36,-361.39 1948.07,-354.39"/>
</a>
</g>
</g>
<!-- Node17 -->
<g id="Node000017" class="node">
<title>Node17</title>
<g id="a_Node000017"><a xlink:href="instrument__spec__assigns_8cpp.html" target="_top" xlink:title="Specify write set in code contracts.">
<polygon fill="white" stroke="#666666" points="2772,-305 2623,-305 2623,-253 2772,-253 2772,-305"/>
<text text-anchor="start" x="2631" y="-293" font-family="Helvetica,sans-Serif" font-size="10.00">/home/runner/work/cbmc</text>
<text text-anchor="start" x="2631" y="-282" font-family="Helvetica,sans-Serif" font-size="10.00">/cbmc/src/goto&#45;instrument</text>
<text text-anchor="start" x="2631" y="-271" font-family="Helvetica,sans-Serif" font-size="10.00">/contracts/instrument_spec</text>
<text text-anchor="middle" x="2697.5" y="-260" font-family="Helvetica,sans-Serif" font-size="10.00">_assigns.cpp</text>
</a>
</g>
</g>
<!-- Node1&#45;&gt;Node17 -->
<g id="edge16_Node000001_Node000017" class="edge">
<title>Node1&#45;&gt;Node17</title>
<g id="a_edge16_Node000001_Node000017"><a xlink:title=" ">
<path fill="none" stroke="#63b8ff" d="M1948.23,-360.15C2086.94,-358.28 2374.69,-348.87 2613.5,-305 2616.49,-304.45 2619.53,-303.83 2622.59,-303.16"/>
<polygon fill="#63b8ff" stroke="#63b8ff" points="1948.06,-356.65 1938.1,-360.28 1948.15,-363.65 1948.06,-356.65"/>
</a>
</g>
</g>
<!-- Node18 -->
<g id="Node000018" class="node">
<title>Node18</title>
<g id="a_Node000018"><a xlink:href="memory__predicates_8cpp.html" target="_top" xlink:title="Predicates to specify memory footprint in function contracts.">
<polygon fill="white" stroke="#666666" points="2975,-299.5 2790,-299.5 2790,-258.5 2975,-258.5 2975,-299.5"/>
<text text-anchor="start" x="2798" y="-287.5" font-family="Helvetica,sans-Serif" font-size="10.00">/home/runner/work/cbmc</text>
<text text-anchor="start" x="2798" y="-276.5" font-family="Helvetica,sans-Serif" font-size="10.00">/cbmc/src/goto&#45;instrument</text>
<text text-anchor="middle" x="2882.5" y="-265.5" font-family="Helvetica,sans-Serif" font-size="10.00">/contracts/memory_predicates.cpp</text>
</a>
</g>
</g>
<!-- Node1&#45;&gt;Node18 -->
<g id="edge17_Node000001_Node000018" class="edge">
<title>Node1&#45;&gt;Node18</title>
<g id="a_edge17_Node000001_Node000018"><a xlink:title=" ">
<path fill="none" stroke="#63b8ff" d="M1948.34,-360.44C2109.53,-359.24 2476.22,-351.13 2780.5,-305 2789.96,-303.57 2799.84,-301.67 2809.55,-299.56"/>
<polygon fill="#63b8ff" stroke="#63b8ff" points="1948,-356.95 1938.03,-360.51 1948.05,-363.95 1948,-356.95"/>
</a>
</g>
</g>
<!-- Node19 -->
<g id="Node000019" class="node">
<title>Node19</title>
<g id="a_Node000019"><a xlink:href="utils_8cpp.html" target="_top" xlink:title=" ">
<polygon fill="white" stroke="#666666" points="3138,-299.5 2993,-299.5 2993,-258.5 3138,-258.5 3138,-299.5"/>
<text text-anchor="start" x="3001" y="-287.5" font-family="Helvetica,sans-Serif" font-size="10.00">/home/runner/work/cbmc</text>
<text text-anchor="start" x="3001" y="-276.5" font-family="Helvetica,sans-Serif" font-size="10.00">/cbmc/src/goto&#45;instrument</text>
<text text-anchor="middle" x="3065.5" y="-265.5" font-family="Helvetica,sans-Serif" font-size="10.00">/contracts/utils.cpp</text>
</a>
</g>
</g>
<!-- Node1&#45;&gt;Node19 -->
<g id="edge18_Node000001_Node000019" class="edge">
<title>Node1&#45;&gt;Node19</title>
<g id="a_edge18_Node000001_Node000019"><a xlink:title=" ">
<path fill="none" stroke="#63b8ff" d="M1948.38,-359.07C2172.22,-354.78 2785.47,-340.08 2984.5,-305 2992.33,-303.62 3000.46,-301.71 3008.41,-299.56"/>
<polygon fill="#63b8ff" stroke="#63b8ff" points="1948.27,-355.57 1938.34,-359.26 1948.4,-362.57 1948.27,-355.57"/>
</a>
</g>
</g>
<!-- Node20 -->
<g id="Node000020" class="node">
<title>Node20</title>
<g id="a_Node000020"><a xlink:href="cegis__verifier_8cpp.html" target="_top" xlink:title="Verifier for Counterexample&#45;Guided Synthesis.">
<polygon fill="white" stroke="#666666" points="3416.5,-134.5 3268.5,-134.5 3268.5,-93.5 3416.5,-93.5 3416.5,-134.5"/>
<text text-anchor="start" x="3276.5" y="-122.5" font-family="Helvetica,sans-Serif" font-size="10.00">/home/runner/work/cbmc</text>
<text text-anchor="start" x="3276.5" y="-111.5" font-family="Helvetica,sans-Serif" font-size="10.00">/cbmc/src/goto&#45;synthesizer</text>
<text text-anchor="middle" x="3342.5" y="-100.5" font-family="Helvetica,sans-Serif" font-size="10.00">/cegis_verifier.cpp</text>
</a>
</g>
</g>
<!-- Node1&#45;&gt;Node20 -->
<g id="edge19_Node000001_Node000020" class="edge">
<title>Node1&#45;&gt;Node20</title>
<g id="a_edge19_Node000001_Node000020"><a xlink:title=" ">
<path fill="none" stroke="#63b8ff" d="M1948.64,-360.96C2237.88,-362.08 3189.42,-361.38 3313.5,-305 3362.45,-282.76 3376.65,-266.97 3396.5,-217 3403.23,-200.06 3402.96,-193.04 3396.5,-176 3390.43,-160 3378.04,-145.49 3366.65,-134.65"/>
<polygon fill="#63b8ff" stroke="#63b8ff" points="1948.23,-357.46 1938.22,-360.92 1948.21,-364.46 1948.23,-357.46"/>
</a>
</g>
</g>
<!-- Node21 -->
<g id="Node000021" class="node">
<title>Node21</title>
<g id="a_Node000021"><a xlink:href="enumerative__loop__contracts__synthesizer_8cpp.html" target="_top" xlink:title="Enumerative Loop Contracts Synthesizer.">
<polygon fill="white" stroke="#666666" points="3219.5,-52 3061.5,-52 3061.5,0 3219.5,0 3219.5,-52"/>
<text text-anchor="start" x="3069.5" y="-40" font-family="Helvetica,sans-Serif" font-size="10.00">/home/runner/work/cbmc</text>
<text text-anchor="start" x="3069.5" y="-29" font-family="Helvetica,sans-Serif" font-size="10.00">/cbmc/src/goto&#45;synthesizer</text>
<text text-anchor="start" x="3069.5" y="-18" font-family="Helvetica,sans-Serif" font-size="10.00">/enumerative_loop_contracts</text>
<text text-anchor="middle" x="3140.5" y="-7" font-family="Helvetica,sans-Serif" font-size="10.00">_synthesizer.cpp</text>
</a>
</g>
</g>
<!-- Node1&#45;&gt;Node21 -->
<g id="edge20_Node000001_Node000021" class="edge">
<title>Node1&#45;&gt;Node21</title>
<g id="a_edge20_Node000001_Node000021"><a xlink:title=" ">
<path fill="none" stroke="#63b8ff" d="M1948.28,-359.6C2253.08,-355.99 3298.43,-341.02 3359.5,-305 3446.33,-253.79 3490.06,-165.42 3425.5,-88 3397,-53.82 3271.84,-62.09 3228.5,-52 3225.56,-51.32 3222.57,-50.6 3219.56,-49.85"/>
<polygon fill="#63b8ff" stroke="#63b8ff" points="1948.14,-356.1 1938.18,-359.71 1948.22,-363.1 1948.14,-356.1"/>
</a>
</g>
</g>
<!-- Node22 -->
<g id="Node000022" class="node">
<title>Node22</title>
<g id="a_Node000022"><a xlink:href="synthesizer__utils_8h.html" target="_top" xlink:title=" ">
<polygon fill="white" stroke="#666666" points="3304.5,-299.5 3156.5,-299.5 3156.5,-258.5 3304.5,-258.5 3304.5,-299.5"/>
<text text-anchor="start" x="3164.5" y="-287.5" font-family="Helvetica,sans-Serif" font-size="10.00">/home/runner/work/cbmc</text>
<text text-anchor="start" x="3164.5" y="-276.5" font-family="Helvetica,sans-Serif" font-size="10.00">/cbmc/src/goto&#45;synthesizer</text>
<text text-anchor="middle" x="3230.5" y="-265.5" font-family="Helvetica,sans-Serif" font-size="10.00">/synthesizer_utils.h</text>
</a>
</g>
</g>
<!-- Node1&#45;&gt;Node22 -->
<g id="edge21_Node000001_Node000022" class="edge">
<title>Node1&#45;&gt;Node22</title>
<g id="a_edge21_Node000001_Node000022"><a xlink:title=" ">
<path fill="none" stroke="#63b8ff" d="M1948.61,-359.6C2194.49,-356.52 2915.67,-344.3 3147.5,-305 3155.51,-303.64 3163.84,-301.74 3171.99,-299.6"/>
<polygon fill="#63b8ff" stroke="#63b8ff" points="1948.26,-356.11 1938.31,-359.73 1948.35,-363.11 1948.26,-356.11"/>
</a>
</g>
</g>
<!-- Node23 -->
<g id="Node000023" class="node">
<title>Node23</title>
<g id="a_Node000023"><a xlink:href="cegis__verifier_8h.html" target="_top" xlink:title="Verifier for Counterexample&#45;Guided Synthesis.">
<polygon fill="white" stroke="#666666" points="3221.5,-217 3073.5,-217 3073.5,-176 3221.5,-176 3221.5,-217"/>
<text text-anchor="start" x="3081.5" y="-205" font-family="Helvetica,sans-Serif" font-size="10.00">/home/runner/work/cbmc</text>
<text text-anchor="start" x="3081.5" y="-194" font-family="Helvetica,sans-Serif" font-size="10.00">/cbmc/src/goto&#45;synthesizer</text>
<text text-anchor="middle" x="3147.5" y="-183" font-family="Helvetica,sans-Serif" font-size="10.00">/cegis_verifier.h</text>
</a>
</g>
</g>
<!-- Node22&#45;&gt;Node23 -->
<g id="edge22_Node000022_Node000023" class="edge">
<title>Node22&#45;&gt;Node23</title>
<g id="a_edge22_Node000022_Node000023"><a xlink:title=" ">
<path fill="none" stroke="#63b8ff" d="M3202.74,-251.07C3191.3,-239.98 3178.3,-227.37 3167.78,-217.17"/>
<polygon fill="#63b8ff" stroke="#63b8ff" points="3200.37,-253.65 3209.98,-258.1 3205.24,-248.63 3200.37,-253.65"/>
</a>
</g>
</g>
<!-- Node28 -->
<g id="Node000028" class="node">
<title>Node28</title>
<g id="a_Node000028"><a xlink:href="dump__loop__contracts_8h.html" target="_top" xlink:title="Dump Loop Contracts as JSON.">
<polygon fill="white" stroke="#666666" points="2847.5,-217 2699.5,-217 2699.5,-176 2847.5,-176 2847.5,-217"/>
<text text-anchor="start" x="2707.5" y="-205" font-family="Helvetica,sans-Serif" font-size="10.00">/home/runner/work/cbmc</text>
<text text-anchor="start" x="2707.5" y="-194" font-family="Helvetica,sans-Serif" font-size="10.00">/cbmc/src/goto&#45;synthesizer</text>
<text text-anchor="middle" x="2773.5" y="-183" font-family="Helvetica,sans-Serif" font-size="10.00">/dump_loop_contracts.h</text>
</a>
</g>
</g>
<!-- Node22&#45;&gt;Node28 -->
<g id="edge30_Node000022_Node000028" class="edge">
<title>Node22&#45;&gt;Node28</title>
<g id="a_edge30_Node000022_Node000028"><a xlink:title=" ">
<path fill="none" stroke="#63b8ff" d="M3159.87,-255.85C3155.71,-254.82 3151.56,-253.86 3147.5,-253 3019.98,-226.11 2984.79,-239.94 2856.5,-217 2853.59,-216.48 2850.62,-215.92 2847.63,-215.33"/>
<polygon fill="#63b8ff" stroke="#63b8ff" points="3159.05,-259.25 3169.61,-258.38 3160.81,-252.48 3159.05,-259.25"/>
</a>
</g>
</g>
<!-- Node33 -->
<g id="Node000033" class="node">
<title>Node33</title>
<g id="a_Node000033"><a xlink:href="loop__contracts__synthesizer__base_8h.html" target="_top" xlink:title="Loop Contracts Synthesizer Interface.">
<polygon fill="white" stroke="#666666" points="3055.5,-217 2865.5,-217 2865.5,-176 3055.5,-176 3055.5,-217"/>
<text text-anchor="start" x="2873.5" y="-205" font-family="Helvetica,sans-Serif" font-size="10.00">/home/runner/work/cbmc</text>
<text text-anchor="start" x="2873.5" y="-194" font-family="Helvetica,sans-Serif" font-size="10.00">/cbmc/src/goto&#45;synthesizer</text>
<text text-anchor="middle" x="2960.5" y="-183" font-family="Helvetica,sans-Serif" font-size="10.00">/loop_contracts_synthesizer_base.h</text>
</a>
</g>
</g>
<!-- Node22&#45;&gt;Node33 -->
<g id="edge36_Node000022_Node000033" class="edge">
<title>Node22&#45;&gt;Node33</title>
<g id="a_edge36_Node000022_Node000033"><a xlink:title=" ">
<path fill="none" stroke="#63b8ff" d="M3155.94,-255.53C3153.09,-254.67 3150.27,-253.83 3147.5,-253 3107.43,-241.02 3062.5,-227.68 3026.73,-217.08"/>
<polygon fill="#63b8ff" stroke="#63b8ff" points="3155.13,-258.94 3165.71,-258.46 3157.14,-252.23 3155.13,-258.94"/>
</a>
</g>
</g>
<!-- Node34 -->
<g id="Node000034" class="node">
<title>Node34</title>
<g id="a_Node000034"><a xlink:href="synthesizer__utils_8cpp.html" target="_top" xlink:title=" ">
<polygon fill="white" stroke="#666666" points="3387.5,-217 3239.5,-217 3239.5,-176 3387.5,-176 3387.5,-217"/>
<text text-anchor="start" x="3247.5" y="-205" font-family="Helvetica,sans-Serif" font-size="10.00">/home/runner/work/cbmc</text>
<text text-anchor="start" x="3247.5" y="-194" font-family="Helvetica,sans-Serif" font-size="10.00">/cbmc/src/goto&#45;synthesizer</text>
<text text-anchor="middle" x="3313.5" y="-183" font-family="Helvetica,sans-Serif" font-size="10.00">/synthesizer_utils.cpp</text>
</a>
</g>
</g>
<!-- Node22&#45;&gt;Node34 -->
<g id="edge38_Node000022_Node000034" class="edge">
<title>Node22&#45;&gt;Node34</title>
<g id="a_edge38_Node000022_Node000034"><a xlink:title=" ">
<path fill="none" stroke="#63b8ff" d="M3258.26,-251.07C3269.7,-239.98 3282.7,-227.37 3293.22,-217.17"/>
<polygon fill="#63b8ff" stroke="#63b8ff" points="3255.76,-248.63 3251.02,-258.1 3260.63,-253.65 3255.76,-248.63"/>
</a>
</g>
</g>
<!-- Node23&#45;&gt;Node20 -->
<g id="edge26_Node000023_Node000020" class="edge">
<title>Node23&#45;&gt;Node20</title>
<g id="a_edge26_Node000023_Node000020"><a xlink:title=" ">
<path fill="none" stroke="#63b8ff" d="M3204.7,-171.89C3233.39,-160.04 3267.73,-145.87 3294.95,-134.63"/>
<polygon fill="#63b8ff" stroke="#63b8ff" points="3203.11,-168.76 3195.2,-175.81 3205.78,-175.23 3203.11,-168.76"/>
</a>
</g>
</g>
<!-- Node24 -->
<g id="Node000024" class="node">
<title>Node24</title>
<g id="a_Node000024"><a xlink:href="cegis__evaluator_8h.html" target="_top" xlink:title="Evaluate if an expression is consistent with examples.">
<polygon fill="white" stroke="#666666" points="3231.5,-134.5 3083.5,-134.5 3083.5,-93.5 3231.5,-93.5 3231.5,-134.5"/>
<text text-anchor="start" x="3091.5" y="-122.5" font-family="Helvetica,sans-Serif" font-size="10.00">/home/runner/work/cbmc</text>
<text text-anchor="start" x="3091.5" y="-111.5" font-family="Helvetica,sans-Serif" font-size="10.00">/cbmc/src/goto&#45;synthesizer</text>
<text text-anchor="middle" x="3157.5" y="-100.5" font-family="Helvetica,sans-Serif" font-size="10.00">/cegis_evaluator.h</text>
</a>
</g>
</g>
<!-- Node23&#45;&gt;Node24 -->
<g id="edge23_Node000023_Node000024" class="edge">
<title>Node23&#45;&gt;Node24</title>
<g id="a_edge23_Node000023_Node000024"><a xlink:title=" ">
<path fill="none" stroke="#63b8ff" d="M3151.24,-165.37C3152.52,-155.1 3153.91,-143.9 3155.06,-134.67"/>
<polygon fill="#63b8ff" stroke="#63b8ff" points="3147.73,-165.25 3149.97,-175.6 3154.68,-166.11 3147.73,-165.25"/>
</a>
</g>
</g>
<!-- Node26 -->
<g id="Node000026" class="node">
<title>Node26</title>
<g id="a_Node000026"><a xlink:href="enumerative__loop__contracts__synthesizer_8h.html" target="_top" xlink:title="Enumerative Loop Contracts Synthesizer.">
<polygon fill="white" stroke="#666666" points="3065.5,-140 2907.5,-140 2907.5,-88 3065.5,-88 3065.5,-140"/>
<text text-anchor="start" x="2915.5" y="-128" font-family="Helvetica,sans-Serif" font-size="10.00">/home/runner/work/cbmc</text>
<text text-anchor="start" x="2915.5" y="-117" font-family="Helvetica,sans-Serif" font-size="10.00">/cbmc/src/goto&#45;synthesizer</text>
<text text-anchor="start" x="2915.5" y="-106" font-family="Helvetica,sans-Serif" font-size="10.00">/enumerative_loop_contracts</text>
<text text-anchor="middle" x="2986.5" y="-95" font-family="Helvetica,sans-Serif" font-size="10.00">_synthesizer.h</text>
</a>
</g>
</g>
<!-- Node23&#45;&gt;Node26 -->
<g id="edge27_Node000023_Node000026" class="edge">
<title>Node23&#45;&gt;Node26</title>
<g id="a_edge27_Node000023_Node000026"><a xlink:title=" ">
<path fill="none" stroke="#63b8ff" d="M3099.02,-171.26C3079.34,-161.42 3056.61,-150.06 3036.75,-140.13"/>
<polygon fill="#63b8ff" stroke="#63b8ff" points="3097.61,-174.47 3108.11,-175.81 3100.74,-168.2 3097.61,-174.47"/>
</a>
</g>
</g>
<!-- Node24&#45;&gt;Node21 -->
<g id="edge25_Node000024_Node000021" class="edge">
<title>Node24&#45;&gt;Node21</title>
<g id="a_edge25_Node000024_Node000021"><a xlink:title=" ">
<path fill="none" stroke="#63b8ff" d="M3151.66,-83.44C3149.65,-73.31 3147.43,-62.08 3145.5,-52.32"/>
<polygon fill="#63b8ff" stroke="#63b8ff" points="3148.27,-84.35 3153.64,-93.49 3155.14,-83 3148.27,-84.35"/>
</a>
</g>
</g>
<!-- Node25 -->
<g id="Node000025" class="node">
<title>Node25</title>
<g id="a_Node000025"><a xlink:href="cegis__evaluator_8cpp.html" target="_top" xlink:title="Evaluate if an expression is consistent with examples.">
<polygon fill="white" stroke="#666666" points="3385.5,-46.5 3237.5,-46.5 3237.5,-5.5 3385.5,-5.5 3385.5,-46.5"/>
<text text-anchor="start" x="3245.5" y="-34.5" font-family="Helvetica,sans-Serif" font-size="10.00">/home/runner/work/cbmc</text>
<text text-anchor="start" x="3245.5" y="-23.5" font-family="Helvetica,sans-Serif" font-size="10.00">/cbmc/src/goto&#45;synthesizer</text>
<text text-anchor="middle" x="3311.5" y="-12.5" font-family="Helvetica,sans-Serif" font-size="10.00">/cegis_evaluator.cpp</text>
</a>
</g>
</g>
<!-- Node24&#45;&gt;Node25 -->
<g id="edge24_Node000024_Node000025" class="edge">
<title>Node24&#45;&gt;Node25</title>
<g id="a_edge24_Node000024_Node000025"><a xlink:title=" ">
<path fill="none" stroke="#63b8ff" d="M3201.29,-88.55C3225.09,-75.26 3254.13,-59.04 3276.43,-46.59"/>
<polygon fill="#63b8ff" stroke="#63b8ff" points="3199.47,-85.55 3192.44,-93.49 3202.88,-91.67 3199.47,-85.55"/>
</a>
</g>
</g>
<!-- Node26&#45;&gt;Node21 -->
<g id="edge28_Node000026_Node000021" class="edge">
<title>Node26&#45;&gt;Node21</title>
<g id="a_edge28_Node000026_Node000021"><a xlink:title=" ">
<path fill="none" stroke="#63b8ff" d="M3040.64,-82.76C3058.57,-72.75 3078.32,-61.72 3095.49,-52.14"/>
<polygon fill="#63b8ff" stroke="#63b8ff" points="3038.48,-79.96 3031.46,-87.89 3041.89,-86.07 3038.48,-79.96"/>
</a>
</g>
</g>
<!-- Node27 -->
<g id="Node000027" class="node">
<title>Node27</title>
<g id="a_Node000027"><a xlink:href="goto__synthesizer__parse__options_8cpp.html" target="_top" xlink:title="Main Module.">
<polygon fill="white" stroke="#666666" points="3009,-46.5 2812,-46.5 2812,-5.5 3009,-5.5 3009,-46.5"/>
<text text-anchor="start" x="2820" y="-34.5" font-family="Helvetica,sans-Serif" font-size="10.00">/home/runner/work/cbmc</text>
<text text-anchor="start" x="2820" y="-23.5" font-family="Helvetica,sans-Serif" font-size="10.00">/cbmc/src/goto&#45;synthesizer</text>
<text text-anchor="middle" x="2910.5" y="-12.5" font-family="Helvetica,sans-Serif" font-size="10.00">/goto_synthesizer_parse_options.cpp</text>
</a>
</g>
</g>
<!-- Node26&#45;&gt;Node27 -->
<g id="edge29_Node000026_Node000027" class="edge">
<title>Node26&#45;&gt;Node27</title>
<g id="a_edge29_Node000026_Node000027"><a xlink:title=" ">
<path fill="none" stroke="#63b8ff" d="M2957.4,-80.07C2947.45,-68.81 2936.64,-56.58 2927.91,-46.7"/>
<polygon fill="#63b8ff" stroke="#63b8ff" points="2954.86,-82.49 2964.11,-87.66 2960.11,-77.85 2954.86,-82.49"/>
</a>
</g>
</g>
<!-- Node29 -->
<g id="Node000029" class="node">
<title>Node29</title>
<g id="a_Node000029"><a xlink:href="dump__loop__contracts_8cpp.html" target="_top" xlink:title="Dump Loop Contracts as JSON.">
<polygon fill="white" stroke="#666666" points="2889.5,-134.5 2741.5,-134.5 2741.5,-93.5 2889.5,-93.5 2889.5,-134.5"/>
<text text-anchor="start" x="2749.5" y="-122.5" font-family="Helvetica,sans-Serif" font-size="10.00">/home/runner/work/cbmc</text>
<text text-anchor="start" x="2749.5" y="-111.5" font-family="Helvetica,sans-Serif" font-size="10.00">/cbmc/src/goto&#45;synthesizer</text>
<text text-anchor="middle" x="2815.5" y="-100.5" font-family="Helvetica,sans-Serif" font-size="10.00">/dump_loop_contracts.cpp</text>
</a>
</g>
</g>
<!-- Node28&#45;&gt;Node29 -->
<g id="edge31_Node000028_Node000029" class="edge">
<title>Node28&#45;&gt;Node29</title>
<g id="a_edge31_Node000028_Node000029"><a xlink:title=" ">
<path fill="none" stroke="#63b8ff" d="M2788.55,-166.66C2794.08,-156.05 2800.22,-144.29 2805.24,-134.67"/>
<polygon fill="#63b8ff" stroke="#63b8ff" points="2785.4,-165.12 2783.88,-175.6 2791.61,-168.35 2785.4,-165.12"/>
</a>
</g>
</g>
<!-- Node30 -->
<g id="Node000030" class="node">
<title>Node30</title>
<g id="a_Node000030"><a xlink:href="goto__synthesizer__parse__options_8h.html" target="_top" xlink:title="Command Line Parsing.">
<polygon fill="white" stroke="#666666" points="2723,-134.5 2538,-134.5 2538,-93.5 2723,-93.5 2723,-134.5"/>
<text text-anchor="start" x="2546" y="-122.5" font-family="Helvetica,sans-Serif" font-size="10.00">/home/runner/work/cbmc</text>
<text text-anchor="start" x="2546" y="-111.5" font-family="Helvetica,sans-Serif" font-size="10.00">/cbmc/src/goto&#45;synthesizer</text>
<text text-anchor="middle" x="2630.5" y="-100.5" font-family="Helvetica,sans-Serif" font-size="10.00">/goto_synthesizer_parse_options.h</text>
</a>
</g>
</g>
<!-- Node28&#45;&gt;Node30 -->
<g id="edge32_Node000028_Node000030" class="edge">
<title>Node28&#45;&gt;Node30</title>
<g id="a_edge32_Node000028_Node000030"><a xlink:title=" ">
<path fill="none" stroke="#63b8ff" d="M2729.66,-170.82C2709.1,-159.25 2684.94,-145.65 2665.62,-134.77"/>
<polygon fill="#63b8ff" stroke="#63b8ff" points="2728.09,-173.95 2738.52,-175.81 2731.52,-167.85 2728.09,-173.95"/>
</a>
</g>
</g>
<!-- Node30&#45;&gt;Node27 -->
<g id="edge35_Node000030_Node000027" class="edge">
<title>Node30&#45;&gt;Node27</title>
<g id="a_edge35_Node000030_Node000027"><a xlink:title=" ">
<path fill="none" stroke="#63b8ff" d="M2703.61,-90.54C2748.01,-76.91 2804.14,-59.67 2846.73,-46.59"/>
<polygon fill="#63b8ff" stroke="#63b8ff" points="2702.57,-87.2 2694.04,-93.49 2704.62,-93.89 2702.57,-87.2"/>
</a>
</g>
</g>
<!-- Node31 -->
<g id="Node000031" class="node">
<title>Node31</title>
<g id="a_Node000031"><a xlink:href="goto__synthesizer__languages_8cpp.html" target="_top" xlink:title="Language Registration.">
<polygon fill="white" stroke="#666666" points="2554,-46.5 2375,-46.5 2375,-5.5 2554,-5.5 2554,-46.5"/>
<text text-anchor="start" x="2383" y="-34.5" font-family="Helvetica,sans-Serif" font-size="10.00">/home/runner/work/cbmc</text>
<text text-anchor="start" x="2383" y="-23.5" font-family="Helvetica,sans-Serif" font-size="10.00">/cbmc/src/goto&#45;synthesizer</text>
<text text-anchor="middle" x="2464.5" y="-12.5" font-family="Helvetica,sans-Serif" font-size="10.00">/goto_synthesizer_languages.cpp</text>
</a>
</g>
</g>
<!-- Node30&#45;&gt;Node31 -->
<g id="edge33_Node000030_Node000031" class="edge">
<title>Node30&#45;&gt;Node31</title>
<g id="a_edge33_Node000030_Node000031"><a xlink:title=" ">
<path fill="none" stroke="#63b8ff" d="M2583.64,-88.72C2557.92,-75.4 2526.44,-59.09 2502.31,-46.59"/>
<polygon fill="#63b8ff" stroke="#63b8ff" points="2582.34,-91.99 2592.83,-93.49 2585.56,-85.78 2582.34,-91.99"/>
</a>
</g>
</g>
<!-- Node32 -->
<g id="Node000032" class="node">
<title>Node32</title>
<g id="a_Node000032"><a xlink:href="goto__synthesizer__main_8cpp.html" target="_top" xlink:title="Main Module.">
<polygon fill="white" stroke="#666666" points="2725,-46.5 2572,-46.5 2572,-5.5 2725,-5.5 2725,-46.5"/>
<text text-anchor="start" x="2580" y="-34.5" font-family="Helvetica,sans-Serif" font-size="10.00">/home/runner/work/cbmc</text>
<text text-anchor="start" x="2580" y="-23.5" font-family="Helvetica,sans-Serif" font-size="10.00">/cbmc/src/goto&#45;synthesizer</text>
<text text-anchor="middle" x="2648.5" y="-12.5" font-family="Helvetica,sans-Serif" font-size="10.00">/goto_synthesizer_main.cpp</text>
</a>
</g>
</g>
<!-- Node30&#45;&gt;Node32 -->
<g id="edge34_Node000030_Node000032" class="edge">
<title>Node30&#45;&gt;Node32</title>
<g id="a_edge34_Node000030_Node000032"><a xlink:title=" ">
<path fill="none" stroke="#63b8ff" d="M2636.7,-83.36C2639.24,-71.26 2642.1,-57.58 2644.37,-46.74"/>
<polygon fill="#63b8ff" stroke="#63b8ff" points="2633.21,-82.98 2634.58,-93.49 2640.06,-84.41 2633.21,-82.98"/>
</a>
</g>
</g>
<!-- Node33&#45;&gt;Node26 -->
<g id="edge37_Node000033_Node000026" class="edge">
<title>Node33&#45;&gt;Node26</title>
<g id="a_edge37_Node000033_Node000026"><a xlink:title=" ">
<path fill="none" stroke="#63b8ff" d="M2970.01,-166.05C2972.76,-157.55 2975.72,-148.36 2978.38,-140.16"/>
<polygon fill="#63b8ff" stroke="#63b8ff" points="2966.67,-165.01 2966.93,-175.6 2973.33,-167.16 2966.67,-165.01"/>
</a>
</g>
</g>
</g>
</svg>
