<?xml version="1.0" encoding="UTF-8" standalone="no"?>
<!DOCTYPE svg PUBLIC "-//W3C//DTD SVG 1.1//EN"
 "http://www.w3.org/Graphics/SVG/1.1/DTD/svg11.dtd">
<!-- Generated by graphviz version 2.43.0 (0)
 -->
<!-- Title: /home/runner/work/cbmc/cbmc/src/pointer&#45;analysis/value_set_domain_fi.h Pages: 1 -->
<svg width="1057pt" height="731pt"
 viewBox="0.00 0.00 1057.00 731.00" xmlns="http://www.w3.org/2000/svg" xmlns:xlink="http://www.w3.org/1999/xlink">
<g id="graph0" class="graph" transform="scale(1 1) rotate(0) translate(4 727)">
<title>/home/runner/work/cbmc/cbmc/src/pointer&#45;analysis/value_set_domain_fi.h</title>
<!-- Node1 -->
<g id="Node000001" class="node">
<title>Node1</title>
<g id="a_Node000001"><a xlink:title="Value Set (Flow Insensitive)">
<polygon fill="#999999" stroke="#666666" points="145,-723 0,-723 0,-682 145,-682 145,-723"/>
<text text-anchor="start" x="8" y="-711" font-family="Helvetica,sans-Serif" font-size="10.00">/home/runner/work/cbmc</text>
<text text-anchor="start" x="8" y="-700" font-family="Helvetica,sans-Serif" font-size="10.00">/cbmc/src/pointer&#45;analysis</text>
<text text-anchor="middle" x="72.5" y="-689" font-family="Helvetica,sans-Serif" font-size="10.00">/value_set_domain_fi.h</text>
</a>
</g>
</g>
<!-- Node2 -->
<g id="Node000002" class="node">
<title>Node2</title>
<g id="a_Node000002"><a xlink:href="flow__insensitive__analysis_8h.html" target="_top" xlink:title="Flow Insensitive Static Analysis.">
<polygon fill="white" stroke="#666666" points="224.5,-646 82.5,-646 82.5,-616 224.5,-616 224.5,-646"/>
<text text-anchor="start" x="90.5" y="-634" font-family="Helvetica,sans-Serif" font-size="10.00">analyses/flow_insensitive</text>
<text text-anchor="middle" x="153.5" y="-623" font-family="Helvetica,sans-Serif" font-size="10.00">_analysis.h</text>
</a>
</g>
</g>
<!-- Node1&#45;&gt;Node2 -->
<g id="edge1_Node000001_Node000002" class="edge">
<title>Node1&#45;&gt;Node2</title>
<g id="a_edge1_Node000001_Node000002"><a xlink:title=" ">
<path fill="none" stroke="#63b8ff" d="M95.49,-681.77C106.08,-672.69 118.64,-661.91 129.36,-652.71"/>
<polygon fill="#63b8ff" stroke="#63b8ff" points="131.83,-655.21 137.14,-646.04 127.27,-649.89 131.83,-655.21"/>
</a>
</g>
</g>
<!-- Node54 -->
<g id="Node000054" class="node">
<title>Node54</title>
<g id="a_Node000054"><a xlink:href="value__set__fi_8h.html" target="_top" xlink:title="Value Set (Flow Insensitive, Sharing)">
<polygon fill="white" stroke="#666666" points="435.5,-459 351.5,-459 351.5,-440 435.5,-440 435.5,-459"/>
<text text-anchor="middle" x="393.5" y="-447" font-family="Helvetica,sans-Serif" font-size="10.00">value_set_fi.h</text>
</a>
</g>
</g>
<!-- Node1&#45;&gt;Node54 -->
<g id="edge59_Node000001_Node000054" class="edge">
<title>Node1&#45;&gt;Node54</title>
<g id="a_edge59_Node000001_Node000054"><a xlink:title=" ">
<path fill="none" stroke="#63b8ff" d="M69.58,-681.98C67.67,-664.32 66.63,-637.81 73.5,-616 93.09,-553.8 101.81,-530.51 156.5,-495 164.24,-489.97 273.9,-470.74 341.3,-459.27"/>
<polygon fill="#63b8ff" stroke="#63b8ff" points="342.06,-462.69 351.33,-457.56 340.89,-455.79 342.06,-462.69"/>
</a>
</g>
</g>
<!-- Node3 -->
<g id="Node000003" class="node">
<title>Node3</title>
<g id="a_Node000003"><a xlink:title=" ">
<polygon fill="#e0e0e0" stroke="#999999" points="306,-574.5 259,-574.5 259,-555.5 306,-555.5 306,-574.5"/>
<text text-anchor="middle" x="282.5" y="-562.5" font-family="Helvetica,sans-Serif" font-size="10.00">queue</text>
</a>
</g>
</g>
<!-- Node2&#45;&gt;Node3 -->
<g id="edge2_Node000002_Node000003" class="edge">
<title>Node2&#45;&gt;Node3</title>
<g id="a_edge2_Node000002_Node000003"><a xlink:title=" ">
<path fill="none" stroke="#63b8ff" d="M181.81,-615.95C203.93,-604.98 234.46,-589.83 256.08,-579.11"/>
<polygon fill="#63b8ff" stroke="#63b8ff" points="257.93,-582.1 265.33,-574.52 254.82,-575.83 257.93,-582.1"/>
</a>
</g>
</g>
<!-- Node4 -->
<g id="Node000004" class="node">
<title>Node4</title>
<g id="a_Node000004"><a xlink:title=" ">
<polygon fill="#e0e0e0" stroke="#999999" points="89.5,-404 51.5,-404 51.5,-385 89.5,-385 89.5,-404"/>
<text text-anchor="middle" x="70.5" y="-392" font-family="Helvetica,sans-Serif" font-size="10.00">map</text>
</a>
</g>
</g>
<!-- Node2&#45;&gt;Node4 -->
<g id="edge3_Node000002_Node000004" class="edge">
<title>Node2&#45;&gt;Node4</title>
<g id="a_edge3_Node000002_Node000004"><a xlink:title=" ">
<path fill="none" stroke="#63b8ff" d="M141.62,-615.96C134.04,-606.38 124.54,-593.08 118.5,-580 92.07,-522.77 78.4,-448.57 73.13,-414.33"/>
<polygon fill="#63b8ff" stroke="#63b8ff" points="76.58,-413.72 71.66,-404.33 69.65,-414.73 76.58,-413.72"/>
</a>
</g>
</g>
<!-- Node5 -->
<g id="Node000005" class="node">
<title>Node5</title>
<g id="a_Node000005"><a xlink:title=" ">
<polygon fill="#e0e0e0" stroke="#999999" points="127.5,-184 79.5,-184 79.5,-165 127.5,-165 127.5,-184"/>
<text text-anchor="middle" x="103.5" y="-172" font-family="Helvetica,sans-Serif" font-size="10.00">iosfwd</text>
</a>
</g>
</g>
<!-- Node2&#45;&gt;Node5 -->
<g id="edge4_Node000002_Node000005" class="edge">
<title>Node2&#45;&gt;Node5</title>
<g id="a_edge4_Node000002_Node000005"><a xlink:title=" ">
<path fill="none" stroke="#63b8ff" d="M133.19,-615.81C96.62,-588.41 23.5,-524.38 23.5,-450.5 23.5,-450.5 23.5,-450.5 23.5,-283.5 23.5,-243.81 58.82,-209.18 82.53,-190.41"/>
<polygon fill="#63b8ff" stroke="#63b8ff" points="84.81,-193.07 90.65,-184.23 80.57,-187.5 84.81,-193.07"/>
</a>
</g>
</g>
<!-- Node6 -->
<g id="Node000006" class="node">
<title>Node6</title>
<g id="a_Node000006"><a xlink:title=" ">
<polygon fill="#e0e0e0" stroke="#999999" points="829.5,-404 743.5,-404 743.5,-385 829.5,-385 829.5,-404"/>
<text text-anchor="middle" x="786.5" y="-392" font-family="Helvetica,sans-Serif" font-size="10.00">unordered_set</text>
</a>
</g>
</g>
<!-- Node2&#45;&gt;Node6 -->
<g id="edge5_Node000002_Node000006" class="edge">
<title>Node2&#45;&gt;Node6</title>
<g id="a_edge5_Node000002_Node000006"><a xlink:title=" ">
<path fill="none" stroke="#63b8ff" d="M202.05,-615.91C234.16,-606.35 277.07,-593.11 314.5,-580 483.42,-520.84 681.93,-439.2 756.33,-408.16"/>
<polygon fill="#63b8ff" stroke="#63b8ff" points="758.12,-411.21 765.99,-404.12 755.42,-404.75 758.12,-411.21"/>
</a>
</g>
</g>
<!-- Node7 -->
<g id="Node000007" class="node">
<title>Node7</title>
<g id="a_Node000007"><a xlink:href="goto__functions_8h.html" target="_top" xlink:title="Goto Programs with Functions.">
<polygon fill="white" stroke="#666666" points="241,-580 128,-580 128,-550 241,-550 241,-580"/>
<text text-anchor="start" x="136" y="-568" font-family="Helvetica,sans-Serif" font-size="10.00">goto&#45;programs/goto</text>
<text text-anchor="middle" x="184.5" y="-557" font-family="Helvetica,sans-Serif" font-size="10.00">_functions.h</text>
</a>
</g>
</g>
<!-- Node2&#45;&gt;Node7 -->
<g id="edge6_Node000002_Node000007" class="edge">
<title>Node2&#45;&gt;Node7</title>
<g id="a_edge6_Node000002_Node000007"><a xlink:title=" ">
<path fill="none" stroke="#63b8ff" d="M160.38,-615.8C164.15,-608.01 168.92,-598.16 173.23,-589.28"/>
<polygon fill="#63b8ff" stroke="#63b8ff" points="176.43,-590.69 177.64,-580.16 170.13,-587.64 176.43,-590.69"/>
</a>
</g>
</g>
<!-- Node7&#45;&gt;Node4 -->
<g id="edge58_Node000007_Node000004" class="edge">
<title>Node7&#45;&gt;Node4</title>
<g id="a_edge58_Node000007_Node000004"><a xlink:title=" ">
<path fill="none" stroke="#63b8ff" d="M176.59,-549.98C158.88,-518.58 117.24,-444.98 113.5,-440 105.78,-429.71 95.87,-419.32 87.51,-411.16"/>
<polygon fill="#63b8ff" stroke="#63b8ff" points="89.76,-408.46 80.1,-404.1 84.93,-413.53 89.76,-408.46"/>
</a>
</g>
</g>
<!-- Node8 -->
<g id="Node000008" class="node">
<title>Node8</title>
<g id="a_Node000008"><a xlink:href="goto__function_8h.html" target="_top" xlink:title="Goto Function.">
<polygon fill="white" stroke="#666666" points="389.5,-514 297.5,-514 297.5,-495 389.5,-495 389.5,-514"/>
<text text-anchor="middle" x="343.5" y="-502" font-family="Helvetica,sans-Serif" font-size="10.00">goto_function.h</text>
</a>
</g>
</g>
<!-- Node7&#45;&gt;Node8 -->
<g id="edge7_Node000007_Node000008" class="edge">
<title>Node7&#45;&gt;Node8</title>
<g id="a_edge7_Node000007_Node000008"><a xlink:title=" ">
<path fill="none" stroke="#63b8ff" d="M222.58,-549.99C249.35,-540.14 284.8,-527.1 310.39,-517.68"/>
<polygon fill="#63b8ff" stroke="#63b8ff" points="311.84,-520.88 320.02,-514.14 309.43,-514.31 311.84,-520.88"/>
</a>
</g>
</g>
<!-- Node53 -->
<g id="Node000053" class="node">
<title>Node53</title>
<g id="a_Node000053"><a xlink:href="cprover__prefix_8h.html" target="_top" xlink:title=" ">
<polygon fill="white" stroke="#666666" points="279.5,-514 165.5,-514 165.5,-495 279.5,-495 279.5,-514"/>
<text text-anchor="middle" x="222.5" y="-502" font-family="Helvetica,sans-Serif" font-size="10.00">util/cprover_prefix.h</text>
</a>
</g>
</g>
<!-- Node7&#45;&gt;Node53 -->
<g id="edge57_Node000007_Node000053" class="edge">
<title>Node7&#45;&gt;Node53</title>
<g id="a_edge57_Node000007_Node000053"><a xlink:title=" ">
<path fill="none" stroke="#63b8ff" d="M193.7,-549.84C198.99,-541.69 205.68,-531.4 211.28,-522.78"/>
<polygon fill="#63b8ff" stroke="#63b8ff" points="214.29,-524.56 216.81,-514.27 208.42,-520.75 214.29,-524.56"/>
</a>
</g>
</g>
<!-- Node9 -->
<g id="Node000009" class="node">
<title>Node9</title>
<g id="a_Node000009"><a xlink:href="std__types_8h.html" target="_top" xlink:title="Pre&#45;defined types.">
<polygon fill="white" stroke="#666666" points="643.5,-294 551.5,-294 551.5,-275 643.5,-275 643.5,-294"/>
<text text-anchor="middle" x="597.5" y="-282" font-family="Helvetica,sans-Serif" font-size="10.00">util/std_types.h</text>
</a>
</g>
</g>
<!-- Node8&#45;&gt;Node9 -->
<g id="edge8_Node000008_Node000009" class="edge">
<title>Node8&#45;&gt;Node9</title>
<g id="a_edge8_Node000008_Node000009"><a xlink:title=" ">
<path fill="none" stroke="#63b8ff" d="M389.87,-501.39C501.84,-495.23 781.92,-473.09 838.5,-404 893.49,-336.86 741.11,-304.71 653.84,-292.16"/>
<polygon fill="#63b8ff" stroke="#63b8ff" points="654.19,-288.67 643.8,-290.76 653.22,-295.61 654.19,-288.67"/>
</a>
</g>
</g>
<!-- Node47 -->
<g id="Node000047" class="node">
<title>Node47</title>
<g id="a_Node000047"><a xlink:href="goto__program_8h.html" target="_top" xlink:title="Concrete Goto Program.">
<polygon fill="white" stroke="#666666" points="333.5,-459 239.5,-459 239.5,-440 333.5,-440 333.5,-459"/>
<text text-anchor="middle" x="286.5" y="-447" font-family="Helvetica,sans-Serif" font-size="10.00">goto_program.h</text>
</a>
</g>
</g>
<!-- Node8&#45;&gt;Node47 -->
<g id="edge39_Node000008_Node000047" class="edge">
<title>Node8&#45;&gt;Node47</title>
<g id="a_edge39_Node000008_Node000047"><a xlink:title=" ">
<path fill="none" stroke="#63b8ff" d="M334.34,-494.98C326,-487.23 313.47,-475.58 303.32,-466.14"/>
<polygon fill="#63b8ff" stroke="#63b8ff" points="305.53,-463.42 295.82,-459.17 300.76,-468.54 305.53,-463.42"/>
</a>
</g>
</g>
<!-- Node10 -->
<g id="Node000010" class="node">
<title>Node10</title>
<g id="a_Node000010"><a xlink:href="expr_8h.html" target="_top" xlink:title=" ">
<polygon fill="white" stroke="#666666" points="621,-184 574,-184 574,-165 621,-165 621,-184"/>
<text text-anchor="middle" x="597.5" y="-172" font-family="Helvetica,sans-Serif" font-size="10.00">expr.h</text>
</a>
</g>
</g>
<!-- Node9&#45;&gt;Node10 -->
<g id="edge9_Node000009_Node000010" class="edge">
<title>Node9&#45;&gt;Node10</title>
<g id="a_edge9_Node000009_Node000010"><a xlink:title=" ">
<path fill="none" stroke="#63b8ff" d="M597.5,-274.66C597.5,-257.17 597.5,-217.8 597.5,-194.27"/>
<polygon fill="#63b8ff" stroke="#63b8ff" points="601,-194.16 597.5,-184.16 594,-194.16 601,-194.16"/>
</a>
</g>
</g>
<!-- Node37 -->
<g id="Node000037" class="node">
<title>Node37</title>
<g id="a_Node000037"><a xlink:href="validate_8h.html" target="_top" xlink:title=" ">
<polygon fill="#fff0f0" stroke="red" points="825,-74 760,-74 760,-55 825,-55 825,-74"/>
<text text-anchor="middle" x="792.5" y="-62" font-family="Helvetica,sans-Serif" font-size="10.00">validate.h</text>
</a>
</g>
</g>
<!-- Node9&#45;&gt;Node37 -->
<g id="edge37_Node000009_Node000037" class="edge">
<title>Node9&#45;&gt;Node37</title>
<g id="a_edge37_Node000009_Node000037"><a xlink:title=" ">
<path fill="none" stroke="#63b8ff" d="M604.2,-274.77C620.71,-253.7 665.45,-199.25 712.5,-165 741.75,-143.71 764.74,-158.63 785.5,-129 794.55,-116.09 795.71,-97.93 794.95,-84.33"/>
<polygon fill="#63b8ff" stroke="#63b8ff" points="798.41,-83.83 793.99,-74.21 791.45,-84.49 798.41,-83.83"/>
</a>
</g>
</g>
<!-- Node43 -->
<g id="Node000043" class="node">
<title>Node43</title>
<g id="a_Node000043"><a xlink:href="expr__cast_8h.html" target="_top" xlink:title="Templated functions to cast to specific exprt&#45;derived classes.">
<polygon fill="white" stroke="#666666" points="561,-239 488,-239 488,-220 561,-220 561,-239"/>
<text text-anchor="middle" x="524.5" y="-227" font-family="Helvetica,sans-Serif" font-size="10.00">expr_cast.h</text>
</a>
</g>
</g>
<!-- Node9&#45;&gt;Node43 -->
<g id="edge24_Node000009_Node000043" class="edge">
<title>Node9&#45;&gt;Node43</title>
<g id="a_edge24_Node000009_Node000043"><a xlink:title=" ">
<path fill="none" stroke="#63b8ff" d="M585.77,-274.98C574.77,-267 558.08,-254.88 544.9,-245.31"/>
<polygon fill="#63b8ff" stroke="#63b8ff" points="546.59,-242.21 536.44,-239.17 542.48,-247.88 546.59,-242.21"/>
</a>
</g>
</g>
<!-- Node18 -->
<g id="Node000018" class="node">
<title>Node18</title>
<g id="a_Node000018"><a xlink:href="src_2util_2invariant_8h.html" target="_top" xlink:title=" ">
<polygon fill="#fff0f0" stroke="red" points="253,-184 184,-184 184,-165 253,-165 253,-184"/>
<text text-anchor="middle" x="218.5" y="-172" font-family="Helvetica,sans-Serif" font-size="10.00">invariant.h</text>
</a>
</g>
</g>
<!-- Node9&#45;&gt;Node18 -->
<g id="edge32_Node000009_Node000018" class="edge">
<title>Node9&#45;&gt;Node18</title>
<g id="a_edge32_Node000009_Node000018"><a xlink:title=" ">
<path fill="none" stroke="#63b8ff" d="M572.61,-274.97C548.35,-266.48 510.52,-252.75 478.5,-239 460.78,-231.39 457.77,-226.18 439.5,-220 380.16,-199.94 308.65,-187.57 263.37,-181.11"/>
<polygon fill="#63b8ff" stroke="#63b8ff" points="263.67,-177.62 253.28,-179.71 262.71,-184.56 263.67,-177.62"/>
</a>
</g>
</g>
<!-- Node45 -->
<g id="Node000045" class="node">
<title>Node45</title>
<g id="a_Node000045"><a xlink:href="mp__arith_8h.html" target="_top" xlink:title=" ">
<polygon fill="white" stroke="#666666" points="431,-239 362,-239 362,-220 431,-220 431,-239"/>
<text text-anchor="middle" x="396.5" y="-227" font-family="Helvetica,sans-Serif" font-size="10.00">mp_arith.h</text>
</a>
</g>
</g>
<!-- Node9&#45;&gt;Node45 -->
<g id="edge33_Node000009_Node000045" class="edge">
<title>Node9&#45;&gt;Node45</title>
<g id="a_edge33_Node000009_Node000045"><a xlink:title=" ">
<path fill="none" stroke="#63b8ff" d="M565.21,-274.98C530.88,-265.93 476.44,-251.58 438.73,-241.64"/>
<polygon fill="#63b8ff" stroke="#63b8ff" points="439.61,-238.25 429.05,-239.08 437.82,-245.02 439.61,-238.25"/>
</a>
</g>
</g>
<!-- Node28 -->
<g id="Node000028" class="node">
<title>Node28</title>
<g id="a_Node000028"><a xlink:title=" ">
<polygon fill="#e0e0e0" stroke="#999999" points="815,-184 722,-184 722,-165 815,-165 815,-184"/>
<text text-anchor="middle" x="768.5" y="-172" font-family="Helvetica,sans-Serif" font-size="10.00">unordered_map</text>
</a>
</g>
</g>
<!-- Node9&#45;&gt;Node28 -->
<g id="edge38_Node000009_Node000028" class="edge">
<title>Node9&#45;&gt;Node28</title>
<g id="a_edge38_Node000009_Node000028"><a xlink:title=" ">
<path fill="none" stroke="#63b8ff" d="M628.13,-274.95C651.2,-267.63 682.93,-255.63 707.5,-239 726.79,-225.94 744.73,-205.93 756.09,-191.87"/>
<polygon fill="#63b8ff" stroke="#63b8ff" points="758.85,-194.03 762.27,-184 753.34,-189.71 758.85,-194.03"/>
</a>
</g>
</g>
<!-- Node11 -->
<g id="Node000011" class="node">
<title>Node11</title>
<g id="a_Node000011"><a xlink:href="as__const_8h.html" target="_top" xlink:title=" ">
<polygon fill="white" stroke="#666666" points="487.5,-129 419.5,-129 419.5,-110 487.5,-110 487.5,-129"/>
<text text-anchor="middle" x="453.5" y="-117" font-family="Helvetica,sans-Serif" font-size="10.00">as_const.h</text>
</a>
</g>
</g>
<!-- Node10&#45;&gt;Node11 -->
<g id="edge10_Node000010_Node000011" class="edge">
<title>Node10&#45;&gt;Node11</title>
<g id="a_edge10_Node000010_Node000011"><a xlink:title=" ">
<path fill="none" stroke="#63b8ff" d="M574.36,-164.98C550.68,-156.27 513.63,-142.63 486.79,-132.75"/>
<polygon fill="#63b8ff" stroke="#63b8ff" points="487.65,-129.34 477.06,-129.17 485.23,-135.91 487.65,-129.34"/>
</a>
</g>
</g>
<!-- Node12 -->
<g id="Node000012" class="node">
<title>Node12</title>
<g id="a_Node000012"><a xlink:href="type_8h.html" target="_top" xlink:title="Defines typet, type_with_subtypet and type_with_subtypest.">
<polygon fill="white" stroke="#666666" points="777,-129 730,-129 730,-110 777,-110 777,-129"/>
<text text-anchor="middle" x="753.5" y="-117" font-family="Helvetica,sans-Serif" font-size="10.00">type.h</text>
</a>
</g>
</g>
<!-- Node10&#45;&gt;Node12 -->
<g id="edge11_Node000010_Node000012" class="edge">
<title>Node10&#45;&gt;Node12</title>
<g id="a_edge11_Node000010_Node000012"><a xlink:title=" ">
<path fill="none" stroke="#63b8ff" d="M621.19,-165.45C647.61,-156.47 690.53,-141.89 720.29,-131.78"/>
<polygon fill="#63b8ff" stroke="#63b8ff" points="721.5,-135.07 729.84,-128.54 719.25,-128.44 721.5,-135.07"/>
</a>
</g>
</g>
<!-- Node39 -->
<g id="Node000039" class="node">
<title>Node39</title>
<g id="a_Node000039"><a xlink:href="validation__mode_8h.html" target="_top" xlink:title=" ">
<polygon fill="white" stroke="#666666" points="785,-19 678,-19 678,0 785,0 785,-19"/>
<text text-anchor="middle" x="731.5" y="-7" font-family="Helvetica,sans-Serif" font-size="10.00">validation_mode.h</text>
</a>
</g>
</g>
<!-- Node10&#45;&gt;Node39 -->
<g id="edge22_Node000010_Node000039" class="edge">
<title>Node10&#45;&gt;Node39</title>
<g id="a_edge22_Node000010_Node000039"><a xlink:title=" ">
<path fill="none" stroke="#63b8ff" d="M621.15,-166.96C651.84,-157.23 699.47,-137.13 681.5,-110 656.65,-72.49 570.13,-91.46 596.5,-55 612.92,-32.3 641.31,-20.99 667.84,-15.42"/>
<polygon fill="#63b8ff" stroke="#63b8ff" points="668.69,-18.82 677.88,-13.55 667.41,-11.94 668.69,-18.82"/>
</a>
</g>
</g>
<!-- Node40 -->
<g id="Node000040" class="node">
<title>Node40</title>
<g id="a_Node000040"><a xlink:href="validate__types_8h.html" target="_top" xlink:title=" ">
<polygon fill="white" stroke="#666666" points="703.5,-74 605.5,-74 605.5,-55 703.5,-55 703.5,-74"/>
<text text-anchor="middle" x="654.5" y="-62" font-family="Helvetica,sans-Serif" font-size="10.00">validate_types.h</text>
</a>
</g>
</g>
<!-- Node10&#45;&gt;Node40 -->
<g id="edge21_Node000010_Node000040" class="edge">
<title>Node10&#45;&gt;Node40</title>
<g id="a_edge21_Node000010_Node000040"><a xlink:title=" ">
<path fill="none" stroke="#63b8ff" d="M577.5,-164.96C553.72,-153.55 519.07,-132.18 534.5,-110 548.49,-89.89 572.69,-78.85 595.7,-72.79"/>
<polygon fill="#63b8ff" stroke="#63b8ff" points="596.53,-76.19 605.46,-70.49 594.93,-69.38 596.53,-76.19"/>
</a>
</g>
</g>
<!-- Node41 -->
<g id="Node000041" class="node">
<title>Node41</title>
<g id="a_Node000041"><a xlink:href="validate__expressions_8h.html" target="_top" xlink:title=" ">
<polygon fill="white" stroke="#666666" points="673,-129 544,-129 544,-110 673,-110 673,-129"/>
<text text-anchor="middle" x="608.5" y="-117" font-family="Helvetica,sans-Serif" font-size="10.00">validate_expressions.h</text>
</a>
</g>
</g>
<!-- Node10&#45;&gt;Node41 -->
<g id="edge20_Node000010_Node000041" class="edge">
<title>Node10&#45;&gt;Node41</title>
<g id="a_edge20_Node000010_Node000041"><a xlink:title=" ">
<path fill="none" stroke="#63b8ff" d="M599.32,-164.75C600.76,-157.8 602.82,-147.85 604.63,-139.13"/>
<polygon fill="#63b8ff" stroke="#63b8ff" points="608.11,-139.59 606.72,-129.09 601.26,-138.17 608.11,-139.59"/>
</a>
</g>
</g>
<!-- Node42 -->
<g id="Node000042" class="node">
<title>Node42</title>
<g id="a_Node000042"><a xlink:title=" ">
<polygon fill="#e0e0e0" stroke="#999999" points="401,-129 336,-129 336,-110 401,-110 401,-129"/>
<text text-anchor="middle" x="368.5" y="-117" font-family="Helvetica,sans-Serif" font-size="10.00">functional</text>
</a>
</g>
</g>
<!-- Node10&#45;&gt;Node42 -->
<g id="edge23_Node000010_Node000042" class="edge">
<title>Node10&#45;&gt;Node42</title>
<g id="a_edge23_Node000010_Node000042"><a xlink:title=" ">
<path fill="none" stroke="#63b8ff" d="M573.74,-167.49C570.3,-166.64 566.81,-165.79 563.5,-165 511.15,-152.48 450.7,-138.81 411.16,-129.97"/>
<polygon fill="#63b8ff" stroke="#63b8ff" points="411.85,-126.54 401.33,-127.77 410.32,-133.37 411.85,-126.54"/>
</a>
</g>
</g>
<!-- Node13 -->
<g id="Node000013" class="node">
<title>Node13</title>
<g id="a_Node000013"><a xlink:href="source__location_8h.html" target="_top" xlink:title=" ">
<polygon fill="#fff0f0" stroke="red" points="945.5,-74 843.5,-74 843.5,-55 945.5,-55 945.5,-74"/>
<text text-anchor="middle" x="894.5" y="-62" font-family="Helvetica,sans-Serif" font-size="10.00">source_location.h</text>
</a>
</g>
</g>
<!-- Node12&#45;&gt;Node13 -->
<g id="edge12_Node000012_Node000013" class="edge">
<title>Node12&#45;&gt;Node13</title>
<g id="a_edge12_Node000012_Node000013"><a xlink:title=" ">
<path fill="none" stroke="#63b8ff" d="M776.15,-109.98C799.35,-101.27 835.62,-87.63 861.9,-77.75"/>
<polygon fill="#63b8ff" stroke="#63b8ff" points="863.3,-80.97 871.43,-74.17 860.84,-74.41 863.3,-80.97"/>
</a>
</g>
</g>
<!-- Node12&#45;&gt;Node37 -->
<g id="edge15_Node000012_Node000037" class="edge">
<title>Node12&#45;&gt;Node37</title>
<g id="a_edge15_Node000012_Node000037"><a xlink:title=" ">
<path fill="none" stroke="#63b8ff" d="M759.94,-109.75C765.39,-102.34 773.36,-91.5 780.06,-82.41"/>
<polygon fill="#63b8ff" stroke="#63b8ff" points="783.07,-84.22 786.18,-74.09 777.43,-80.07 783.07,-84.22"/>
</a>
</g>
</g>
<!-- Node12&#45;&gt;Node39 -->
<g id="edge19_Node000012_Node000039" class="edge">
<title>Node12&#45;&gt;Node39</title>
<g id="a_edge19_Node000012_Node000039"><a xlink:title=" ">
<path fill="none" stroke="#63b8ff" d="M751.7,-109.66C748.14,-92.17 740.12,-52.8 735.32,-29.27"/>
<polygon fill="#63b8ff" stroke="#63b8ff" points="738.69,-28.26 733.26,-19.16 731.83,-29.66 738.69,-28.26"/>
</a>
</g>
</g>
<!-- Node12&#45;&gt;Node40 -->
<g id="edge18_Node000012_Node000040" class="edge">
<title>Node12&#45;&gt;Node40</title>
<g id="a_edge18_Node000012_Node000040"><a xlink:title=" ">
<path fill="none" stroke="#63b8ff" d="M737.59,-109.98C721.95,-101.61 697.84,-88.7 679.62,-78.95"/>
<polygon fill="#63b8ff" stroke="#63b8ff" points="681.16,-75.8 670.7,-74.17 677.86,-81.98 681.16,-75.8"/>
</a>
</g>
</g>
<!-- Node36 -->
<g id="Node000036" class="node">
<title>Node36</title>
<g id="a_Node000036"><a xlink:title=" ">
<polygon fill="#e0e0e0" stroke="#999999" points="961.5,-19 905.5,-19 905.5,0 961.5,0 961.5,-19"/>
<text text-anchor="middle" x="933.5" y="-7" font-family="Helvetica,sans-Serif" font-size="10.00">optional</text>
</a>
</g>
</g>
<!-- Node13&#45;&gt;Node36 -->
<g id="edge13_Node000013_Node000036" class="edge">
<title>Node13&#45;&gt;Node36</title>
<g id="a_edge13_Node000013_Node000036"><a xlink:title=" ">
<path fill="none" stroke="#63b8ff" d="M900.94,-54.75C906.39,-47.34 914.36,-36.5 921.06,-27.41"/>
<polygon fill="#63b8ff" stroke="#63b8ff" points="924.07,-29.22 927.18,-19.09 918.43,-25.07 924.07,-29.22"/>
</a>
</g>
</g>
<!-- Node16 -->
<g id="Node000016" class="node">
<title>Node16</title>
<g id="a_Node000016"><a xlink:title=" ">
<polygon fill="#e0e0e0" stroke="#999999" points="235.5,-19 191.5,-19 191.5,0 235.5,0 235.5,-19"/>
<text text-anchor="middle" x="213.5" y="-7" font-family="Helvetica,sans-Serif" font-size="10.00">string</text>
</a>
</g>
</g>
<!-- Node13&#45;&gt;Node16 -->
<g id="edge14_Node000013_Node000016" class="edge">
<title>Node13&#45;&gt;Node16</title>
<g id="a_edge14_Node000013_Node000016"><a xlink:title=" ">
<path fill="none" stroke="#63b8ff" d="M843.47,-56C840.44,-55.64 837.43,-55.3 834.5,-55 581.54,-29.15 516.08,-48.35 263.5,-19 257.81,-18.34 251.79,-17.47 245.97,-16.53"/>
<polygon fill="#63b8ff" stroke="#63b8ff" points="246.27,-13.03 235.83,-14.81 245.1,-19.93 246.27,-13.03"/>
</a>
</g>
</g>
<!-- Node21 -->
<g id="Node000021" class="node">
<title>Node21</title>
<g id="a_Node000021"><a xlink:title=" ">
<polygon fill="#e0e0e0" stroke="#999999" points="342,-19 273,-19 273,0 342,0 342,-19"/>
<text text-anchor="middle" x="307.5" y="-7" font-family="Helvetica,sans-Serif" font-size="10.00">type_traits</text>
</a>
</g>
</g>
<!-- Node37&#45;&gt;Node21 -->
<g id="edge16_Node000037_Node000021" class="edge">
<title>Node37&#45;&gt;Node21</title>
<g id="a_edge16_Node000037_Node000021"><a xlink:title=" ">
<path fill="none" stroke="#63b8ff" d="M759.92,-59.94C675.39,-50.7 448.9,-25.95 352.23,-15.39"/>
<polygon fill="#63b8ff" stroke="#63b8ff" points="352.51,-11.9 342.19,-14.29 351.75,-18.86 352.51,-11.9"/>
</a>
</g>
</g>
<!-- Node37&#45;&gt;Node39 -->
<g id="edge17_Node000037_Node000039" class="edge">
<title>Node37&#45;&gt;Node39</title>
<g id="a_edge17_Node000037_Node000039"><a xlink:title=" ">
<path fill="none" stroke="#63b8ff" d="M782.7,-54.98C773.68,-47.15 760.09,-35.34 749.18,-25.86"/>
<polygon fill="#63b8ff" stroke="#63b8ff" points="751.32,-23.09 741.48,-19.17 746.73,-28.37 751.32,-23.09"/>
</a>
</g>
</g>
<!-- Node43&#45;&gt;Node10 -->
<g id="edge31_Node000043_Node000010" class="edge">
<title>Node43&#45;&gt;Node10</title>
<g id="a_edge31_Node000043_Node000010"><a xlink:title=" ">
<path fill="none" stroke="#63b8ff" d="M536.23,-219.98C547.23,-212 563.92,-199.88 577.1,-190.31"/>
<polygon fill="#63b8ff" stroke="#63b8ff" points="579.52,-192.88 585.56,-184.17 575.41,-187.21 579.52,-192.88"/>
</a>
</g>
</g>
<!-- Node43&#45;&gt;Node21 -->
<g id="edge26_Node000043_Node000021" class="edge">
<title>Node43&#45;&gt;Node21</title>
<g id="a_edge26_Node000043_Node000021"><a xlink:title=" ">
<path fill="none" stroke="#63b8ff" d="M509.04,-219.85C493.09,-210.91 467.52,-196.54 445.5,-184 430.79,-175.62 427.67,-172.5 412.5,-165 375.36,-146.63 352.12,-161.56 326.5,-129 303.71,-100.03 303.34,-54.51 305.29,-29.15"/>
<polygon fill="#63b8ff" stroke="#63b8ff" points="308.79,-29.34 306.28,-19.05 301.82,-28.66 308.79,-29.34"/>
</a>
</g>
</g>
<!-- Node43&#45;&gt;Node42 -->
<g id="edge27_Node000043_Node000042" class="edge">
<title>Node43&#45;&gt;Node42</title>
<g id="a_edge27_Node000043_Node000042"><a xlink:title=" ">
<path fill="none" stroke="#63b8ff" d="M514.66,-219.77C500.07,-207.02 471.63,-182.9 445.5,-165 428.83,-153.58 409.09,-142.21 393.77,-133.82"/>
<polygon fill="#63b8ff" stroke="#63b8ff" points="395.33,-130.69 384.86,-129.01 392,-136.85 395.33,-130.69"/>
</a>
</g>
</g>
<!-- Node44 -->
<g id="Node000044" class="node">
<title>Node44</title>
<g id="a_Node000044"><a xlink:title=" ">
<polygon fill="#e0e0e0" stroke="#999999" points="555,-184 498,-184 498,-165 555,-165 555,-184"/>
<text text-anchor="middle" x="526.5" y="-172" font-family="Helvetica,sans-Serif" font-size="10.00">typeinfo</text>
</a>
</g>
</g>
<!-- Node43&#45;&gt;Node44 -->
<g id="edge25_Node000043_Node000044" class="edge">
<title>Node43&#45;&gt;Node44</title>
<g id="a_edge25_Node000043_Node000044"><a xlink:title=" ">
<path fill="none" stroke="#63b8ff" d="M524.83,-219.75C525.09,-212.8 525.47,-202.85 525.8,-194.13"/>
<polygon fill="#63b8ff" stroke="#63b8ff" points="529.3,-194.21 526.18,-184.09 522.3,-193.95 529.3,-194.21"/>
</a>
</g>
</g>
<!-- Node43&#45;&gt;Node18 -->
<g id="edge28_Node000043_Node000018" class="edge">
<title>Node43&#45;&gt;Node18</title>
<g id="a_edge28_Node000043_Node000018"><a xlink:title=" ">
<path fill="none" stroke="#63b8ff" d="M487.89,-222.16C431.66,-212.42 324.15,-193.8 263.33,-183.27"/>
<polygon fill="#63b8ff" stroke="#63b8ff" points="263.71,-179.78 253.26,-181.52 262.52,-186.68 263.71,-179.78"/>
</a>
</g>
</g>
<!-- Node18&#45;&gt;Node16 -->
<g id="edge29_Node000018_Node000016" class="edge">
<title>Node18&#45;&gt;Node16</title>
<g id="a_edge29_Node000018_Node000016"><a xlink:title=" ">
<path fill="none" stroke="#63b8ff" d="M218.23,-164.74C217.45,-139.31 215.17,-65.08 214.09,-29.69"/>
<polygon fill="#63b8ff" stroke="#63b8ff" points="217.58,-29.19 213.77,-19.31 210.58,-29.41 217.58,-29.19"/>
</a>
</g>
</g>
<!-- Node18&#45;&gt;Node21 -->
<g id="edge30_Node000018_Node000021" class="edge">
<title>Node18&#45;&gt;Node21</title>
<g id="a_edge30_Node000018_Node000021"><a xlink:title=" ">
<path fill="none" stroke="#63b8ff" d="M223.29,-164.74C237.35,-138.98 278.76,-63.13 297.77,-28.33"/>
<polygon fill="#63b8ff" stroke="#63b8ff" points="300.97,-29.76 302.69,-19.31 294.83,-26.41 300.97,-29.76"/>
</a>
</g>
</g>
<!-- Node45&#45;&gt;Node5 -->
<g id="edge34_Node000045_Node000005" class="edge">
<title>Node45&#45;&gt;Node5</title>
<g id="a_edge34_Node000045_Node000005"><a xlink:title=" ">
<path fill="none" stroke="#63b8ff" d="M361.74,-222.21C305.2,-211.99 194,-191.87 137.78,-181.7"/>
<polygon fill="#63b8ff" stroke="#63b8ff" points="138.09,-178.2 127.62,-179.86 136.84,-185.09 138.09,-178.2"/>
</a>
</g>
</g>
<!-- Node45&#45;&gt;Node16 -->
<g id="edge35_Node000045_Node000016" class="edge">
<title>Node45&#45;&gt;Node16</title>
<g id="a_edge35_Node000045_Node000016"><a xlink:title=" ">
<path fill="none" stroke="#63b8ff" d="M365.27,-219.95C344.79,-213.03 318.57,-201.52 300.5,-184 276.35,-160.58 236.94,-68.13 220.77,-28.59"/>
<polygon fill="#63b8ff" stroke="#63b8ff" points="223.94,-27.09 216.94,-19.14 217.45,-29.73 223.94,-27.09"/>
</a>
</g>
</g>
<!-- Node46 -->
<g id="Node000046" class="node">
<title>Node46</title>
<g id="a_Node000046"><a xlink:title=" ">
<polygon fill="#e0e0e0" stroke="#999999" points="403.5,-184 309.5,-184 309.5,-165 403.5,-165 403.5,-184"/>
<text text-anchor="middle" x="356.5" y="-172" font-family="Helvetica,sans-Serif" font-size="10.00">big&#45;int/bigint.hh</text>
</a>
</g>
</g>
<!-- Node45&#45;&gt;Node46 -->
<g id="edge36_Node000045_Node000046" class="edge">
<title>Node45&#45;&gt;Node46</title>
<g id="a_edge36_Node000045_Node000046"><a xlink:title=" ">
<path fill="none" stroke="#63b8ff" d="M389.89,-219.75C384.24,-212.26 375.96,-201.28 369.05,-192.13"/>
<polygon fill="#63b8ff" stroke="#63b8ff" points="371.8,-189.96 362.98,-184.09 366.21,-194.18 371.8,-189.96"/>
</a>
</g>
</g>
<!-- Node47&#45;&gt;Node5 -->
<g id="edge52_Node000047_Node000005" class="edge">
<title>Node47&#45;&gt;Node5</title>
<g id="a_edge52_Node000047_Node000005"><a xlink:title=" ">
<path fill="none" stroke="#63b8ff" d="M239.37,-444.7C208.06,-439.85 168,-428.87 141.5,-404 119.5,-383.36 117.5,-370.67 117.5,-340.5 117.5,-340.5 117.5,-340.5 117.5,-283.5 117.5,-251.93 111.54,-215.59 107.4,-194.14"/>
<polygon fill="#63b8ff" stroke="#63b8ff" points="110.79,-193.24 105.39,-184.13 103.93,-194.62 110.79,-193.24"/>
</a>
</g>
</g>
<!-- Node47&#45;&gt;Node13 -->
<g id="edge41_Node000047_Node000013" class="edge">
<title>Node47&#45;&gt;Node13</title>
<g id="a_edge41_Node000047_Node000013"><a xlink:title=" ">
<path fill="none" stroke="#63b8ff" d="M333.55,-441.32C336.58,-440.87 339.58,-440.42 342.5,-440 457.51,-423.28 494.93,-450.36 601.5,-404 733.59,-346.54 770.36,-310.37 839.5,-184 858.48,-149.32 877.11,-106.93 887.07,-83.41"/>
<polygon fill="#63b8ff" stroke="#63b8ff" points="890.36,-84.6 891,-74.02 883.91,-81.89 890.36,-84.6"/>
</a>
</g>
</g>
<!-- Node47&#45;&gt;Node16 -->
<g id="edge56_Node000047_Node000016" class="edge">
<title>Node47&#45;&gt;Node16</title>
<g id="a_edge56_Node000047_Node000016"><a xlink:title=" ">
<path fill="none" stroke="#63b8ff" d="M259.67,-439.98C221.35,-425.92 155.5,-394 155.5,-340.5 155.5,-340.5 155.5,-340.5 155.5,-118.5 155.5,-82.37 181,-46.67 198.19,-26.71"/>
<polygon fill="#63b8ff" stroke="#63b8ff" points="200.88,-28.95 204.94,-19.17 195.66,-24.28 200.88,-28.95"/>
</a>
</g>
</g>
<!-- Node47&#45;&gt;Node18 -->
<g id="edge40_Node000047_Node000018" class="edge">
<title>Node47&#45;&gt;Node18</title>
<g id="a_edge40_Node000047_Node000018"><a xlink:title=" ">
<path fill="none" stroke="#63b8ff" d="M263.31,-439.89C246.89,-432.67 225.55,-420.82 212.5,-404 194.44,-380.73 193.5,-369.96 193.5,-340.5 193.5,-340.5 193.5,-340.5 193.5,-283.5 193.5,-251.21 204.24,-214.86 211.64,-193.64"/>
<polygon fill="#63b8ff" stroke="#63b8ff" points="215.01,-194.62 215.13,-184.02 208.43,-192.23 215.01,-194.62"/>
</a>
</g>
</g>
<!-- Node48 -->
<g id="Node000048" class="node">
<title>Node48</title>
<g id="a_Node000048"><a xlink:href="goto__instruction__code_8h.html" target="_top" xlink:title=" ">
<polygon fill="white" stroke="#666666" points="593,-404 460,-404 460,-385 593,-385 593,-404"/>
<text text-anchor="middle" x="526.5" y="-392" font-family="Helvetica,sans-Serif" font-size="10.00">goto_instruction_code.h</text>
</a>
</g>
</g>
<!-- Node47&#45;&gt;Node48 -->
<g id="edge42_Node000047_Node000048" class="edge">
<title>Node47&#45;&gt;Node48</title>
<g id="a_edge42_Node000047_Node000048"><a xlink:title=" ">
<path fill="none" stroke="#63b8ff" d="M325.06,-439.98C366.57,-430.82 432.71,-416.21 477.79,-406.26"/>
<polygon fill="#63b8ff" stroke="#63b8ff" points="478.63,-409.66 487.64,-404.08 477.12,-402.82 478.63,-409.66"/>
</a>
</g>
</g>
<!-- Node51 -->
<g id="Node000051" class="node">
<title>Node51</title>
<g id="a_Node000051"><a xlink:title=" ">
<polygon fill="#e0e0e0" stroke="#999999" points="265.5,-404 221.5,-404 221.5,-385 265.5,-385 265.5,-404"/>
<text text-anchor="middle" x="243.5" y="-392" font-family="Helvetica,sans-Serif" font-size="10.00">limits</text>
</a>
</g>
</g>
<!-- Node47&#45;&gt;Node51 -->
<g id="edge53_Node000047_Node000051" class="edge">
<title>Node47&#45;&gt;Node51</title>
<g id="a_edge53_Node000047_Node000051"><a xlink:title=" ">
<path fill="none" stroke="#63b8ff" d="M279.4,-439.75C273.33,-432.26 264.41,-421.28 256.99,-412.13"/>
<polygon fill="#63b8ff" stroke="#63b8ff" points="259.49,-409.65 250.47,-404.09 254.05,-414.06 259.49,-409.65"/>
</a>
</g>
</g>
<!-- Node27 -->
<g id="Node000027" class="node">
<title>Node27</title>
<g id="a_Node000027"><a xlink:title=" ">
<polygon fill="#e0e0e0" stroke="#999999" points="365.5,-404 333.5,-404 333.5,-385 365.5,-385 365.5,-404"/>
<text text-anchor="middle" x="349.5" y="-392" font-family="Helvetica,sans-Serif" font-size="10.00">list</text>
</a>
</g>
</g>
<!-- Node47&#45;&gt;Node27 -->
<g id="edge54_Node000047_Node000027" class="edge">
<title>Node47&#45;&gt;Node27</title>
<g id="a_edge54_Node000047_Node000027"><a xlink:title=" ">
<path fill="none" stroke="#63b8ff" d="M296.62,-439.98C305.94,-432.15 319.97,-420.34 331.24,-410.86"/>
<polygon fill="#63b8ff" stroke="#63b8ff" points="333.79,-413.29 339.19,-404.17 329.29,-407.93 333.79,-413.29"/>
</a>
</g>
</g>
<!-- Node52 -->
<g id="Node000052" class="node">
<title>Node52</title>
<g id="a_Node000052"><a xlink:title=" ">
<polygon fill="#e0e0e0" stroke="#999999" points="315.5,-404 283.5,-404 283.5,-385 315.5,-385 315.5,-404"/>
<text text-anchor="middle" x="299.5" y="-392" font-family="Helvetica,sans-Serif" font-size="10.00">set</text>
</a>
</g>
</g>
<!-- Node47&#45;&gt;Node52 -->
<g id="edge55_Node000047_Node000052" class="edge">
<title>Node47&#45;&gt;Node52</title>
<g id="a_edge55_Node000047_Node000052"><a xlink:title=" ">
<path fill="none" stroke="#63b8ff" d="M288.65,-439.75C290.37,-432.72 292.85,-422.62 295,-413.84"/>
<polygon fill="#63b8ff" stroke="#63b8ff" points="298.41,-414.63 297.39,-404.09 291.61,-412.97 298.41,-414.63"/>
</a>
</g>
</g>
<!-- Node49 -->
<g id="Node000049" class="node">
<title>Node49</title>
<g id="a_Node000049"><a xlink:href="std__code__base_8h.html" target="_top" xlink:title=" ">
<polygon fill="white" stroke="#666666" points="649.5,-349 533.5,-349 533.5,-330 649.5,-330 649.5,-349"/>
<text text-anchor="middle" x="591.5" y="-337" font-family="Helvetica,sans-Serif" font-size="10.00">util/std_code_base.h</text>
</a>
</g>
</g>
<!-- Node48&#45;&gt;Node49 -->
<g id="edge43_Node000048_Node000049" class="edge">
<title>Node48&#45;&gt;Node49</title>
<g id="a_edge43_Node000048_Node000049"><a xlink:title=" ">
<path fill="none" stroke="#63b8ff" d="M536.94,-384.98C546.65,-377.07 561.32,-365.11 573,-355.58"/>
<polygon fill="#63b8ff" stroke="#63b8ff" points="575.33,-358.2 580.87,-349.17 570.9,-352.78 575.33,-358.2"/>
</a>
</g>
</g>
<!-- Node50 -->
<g id="Node000050" class="node">
<title>Node50</title>
<g id="a_Node000050"><a xlink:href="std__expr_8h.html" target="_top" xlink:title="API to expression classes.">
<polygon fill="white" stroke="#666666" points="515.5,-349 429.5,-349 429.5,-330 515.5,-330 515.5,-349"/>
<text text-anchor="middle" x="472.5" y="-337" font-family="Helvetica,sans-Serif" font-size="10.00">util/std_expr.h</text>
</a>
</g>
</g>
<!-- Node48&#45;&gt;Node50 -->
<g id="edge48_Node000048_Node000050" class="edge">
<title>Node48&#45;&gt;Node50</title>
<g id="a_edge48_Node000048_Node000050"><a xlink:title=" ">
<path fill="none" stroke="#63b8ff" d="M517.58,-384.75C509.72,-377.03 498.07,-365.6 488.58,-356.28"/>
<polygon fill="#63b8ff" stroke="#63b8ff" points="490.84,-353.6 481.25,-349.09 485.94,-358.59 490.84,-353.6"/>
</a>
</g>
</g>
<!-- Node49&#45;&gt;Node9 -->
<g id="edge46_Node000049_Node000009" class="edge">
<title>Node49&#45;&gt;Node9</title>
<g id="a_edge46_Node000049_Node000009"><a xlink:title=" ">
<path fill="none" stroke="#63b8ff" d="M592.49,-329.75C593.28,-322.8 594.4,-312.85 595.39,-304.13"/>
<polygon fill="#63b8ff" stroke="#63b8ff" points="598.88,-304.42 596.53,-294.09 591.92,-303.63 598.88,-304.42"/>
</a>
</g>
</g>
<!-- Node49&#45;&gt;Node37 -->
<g id="edge47_Node000049_Node000037" class="edge">
<title>Node49&#45;&gt;Node37</title>
<g id="a_edge47_Node000049_Node000037"><a xlink:title=" ">
<path fill="none" stroke="#63b8ff" d="M618.73,-329.99C669.94,-312.34 779.41,-266.33 823.5,-184 841.32,-150.72 819.52,-106.61 804.47,-82.69"/>
<polygon fill="#63b8ff" stroke="#63b8ff" points="807.19,-80.46 798.76,-74.04 801.35,-84.31 807.19,-80.46"/>
</a>
</g>
</g>
<!-- Node49&#45;&gt;Node43 -->
<g id="edge44_Node000049_Node000043" class="edge">
<title>Node49&#45;&gt;Node43</title>
<g id="a_edge44_Node000049_Node000043"><a xlink:title=" ">
<path fill="none" stroke="#63b8ff" d="M578.37,-329.79C567.25,-321.75 551.7,-308.85 542.5,-294 534.01,-280.3 529.42,-262.49 527,-249.22"/>
<polygon fill="#63b8ff" stroke="#63b8ff" points="530.46,-248.67 525.44,-239.33 523.54,-249.75 530.46,-248.67"/>
</a>
</g>
</g>
<!-- Node49&#45;&gt;Node18 -->
<g id="edge45_Node000049_Node000018" class="edge">
<title>Node49&#45;&gt;Node18</title>
<g id="a_edge45_Node000049_Node000018"><a xlink:title=" ">
<path fill="none" stroke="#63b8ff" d="M568.75,-329.93C525.87,-313.58 430.36,-276.22 352.5,-239 336.53,-231.37 333.36,-227.86 317.5,-220 294.53,-208.62 268.02,-196.77 248.22,-188.16"/>
<polygon fill="#63b8ff" stroke="#63b8ff" points="249.37,-184.85 238.81,-184.1 246.6,-191.28 249.37,-184.85"/>
</a>
</g>
</g>
<!-- Node50&#45;&gt;Node9 -->
<g id="edge51_Node000050_Node000009" class="edge">
<title>Node50&#45;&gt;Node9</title>
<g id="a_edge51_Node000050_Node000009"><a xlink:title=" ">
<path fill="none" stroke="#63b8ff" d="M492.58,-329.98C512.87,-321.38 544.46,-307.99 567.67,-298.15"/>
<polygon fill="#63b8ff" stroke="#63b8ff" points="569.21,-301.3 577.05,-294.17 566.48,-294.85 569.21,-301.3"/>
</a>
</g>
</g>
<!-- Node50&#45;&gt;Node43 -->
<g id="edge49_Node000050_Node000043" class="edge">
<title>Node50&#45;&gt;Node43</title>
<g id="a_edge49_Node000050_Node000043"><a xlink:title=" ">
<path fill="none" stroke="#63b8ff" d="M476.76,-329.66C485.29,-311.93 504.65,-271.73 515.92,-248.32"/>
<polygon fill="#63b8ff" stroke="#63b8ff" points="519.15,-249.69 520.33,-239.16 512.84,-246.65 519.15,-249.69"/>
</a>
</g>
</g>
<!-- Node50&#45;&gt;Node18 -->
<g id="edge50_Node000050_Node000018" class="edge">
<title>Node50&#45;&gt;Node18</title>
<g id="a_edge50_Node000050_Node000018"><a xlink:title=" ">
<path fill="none" stroke="#63b8ff" d="M459.2,-329.97C417.98,-303.51 292.02,-222.68 240.66,-189.72"/>
<polygon fill="#63b8ff" stroke="#63b8ff" points="242.28,-186.6 231.97,-184.15 238.5,-192.49 242.28,-186.6"/>
</a>
</g>
</g>
<!-- Node54&#45;&gt;Node4 -->
<g id="edge61_Node000054_Node000004" class="edge">
<title>Node54&#45;&gt;Node4</title>
<g id="a_edge61_Node000054_Node000004"><a xlink:title=" ">
<path fill="none" stroke="#63b8ff" d="M351.48,-441.49C348.44,-440.98 345.42,-440.48 342.5,-440 254.09,-425.4 149.48,-408.35 99.68,-400.24"/>
<polygon fill="#63b8ff" stroke="#63b8ff" points="100.06,-396.76 89.63,-398.61 98.94,-403.67 100.06,-396.76"/>
</a>
</g>
</g>
<!-- Node54&#45;&gt;Node6 -->
<g id="edge63_Node000054_Node000006" class="edge">
<title>Node54&#45;&gt;Node6</title>
<g id="a_edge63_Node000054_Node000006"><a xlink:title=" ">
<path fill="none" stroke="#63b8ff" d="M435.7,-443.14C499.4,-434.99 623.89,-418.87 729.5,-404 730.75,-403.82 732.02,-403.64 733.3,-403.46"/>
<polygon fill="#63b8ff" stroke="#63b8ff" points="733.85,-406.92 743.25,-402.03 732.85,-399.99 733.85,-406.92"/>
</a>
</g>
</g>
<!-- Node54&#45;&gt;Node45 -->
<g id="edge64_Node000054_Node000045" class="edge">
<title>Node54&#45;&gt;Node45</title>
<g id="a_edge64_Node000054_Node000045"><a xlink:title=" ">
<path fill="none" stroke="#63b8ff" d="M393.72,-439.97C393.94,-431.01 394.29,-416.52 394.5,-404 395.46,-347.67 396.08,-281.04 396.35,-249.23"/>
<polygon fill="#63b8ff" stroke="#63b8ff" points="399.85,-249.19 396.43,-239.17 392.85,-249.14 399.85,-249.19"/>
</a>
</g>
</g>
<!-- Node54&#45;&gt;Node27 -->
<g id="edge60_Node000054_Node000027" class="edge">
<title>Node54&#45;&gt;Node27</title>
<g id="a_edge60_Node000054_Node000027"><a xlink:title=" ">
<path fill="none" stroke="#63b8ff" d="M386.23,-439.75C379.96,-432.18 370.71,-421.05 363.07,-411.84"/>
<polygon fill="#63b8ff" stroke="#63b8ff" points="365.71,-409.55 356.63,-404.09 360.33,-414.02 365.71,-409.55"/>
</a>
</g>
</g>
<!-- Node54&#45;&gt;Node52 -->
<g id="edge62_Node000054_Node000052" class="edge">
<title>Node54&#45;&gt;Node52</title>
<g id="a_edge62_Node000054_Node000052"><a xlink:title=" ">
<path fill="none" stroke="#63b8ff" d="M378.4,-439.98C363.68,-431.69 341.08,-418.94 323.83,-409.22"/>
<polygon fill="#63b8ff" stroke="#63b8ff" points="325.31,-406.03 314.88,-404.17 321.87,-412.13 325.31,-406.03"/>
</a>
</g>
</g>
<!-- Node55 -->
<g id="Node000055" class="node">
<title>Node55</title>
<g id="a_Node000055"><a xlink:href="reference__counting_8h.html" target="_top" xlink:title="Reference Counting.">
<polygon fill="white" stroke="#666666" points="369.5,-349 231.5,-349 231.5,-330 369.5,-330 369.5,-349"/>
<text text-anchor="middle" x="300.5" y="-337" font-family="Helvetica,sans-Serif" font-size="10.00">util/reference_counting.h</text>
</a>
</g>
</g>
<!-- Node54&#45;&gt;Node55 -->
<g id="edge65_Node000054_Node000055" class="edge">
<title>Node54&#45;&gt;Node55</title>
<g id="a_edge65_Node000054_Node000055"><a xlink:title=" ">
<path fill="none" stroke="#63b8ff" d="M392.87,-439.8C391.53,-426.66 387.34,-401.54 374.5,-385 363.79,-371.21 347.51,-360.75 332.94,-353.45"/>
<polygon fill="#63b8ff" stroke="#63b8ff" points="334.23,-350.19 323.69,-349.11 331.25,-356.53 334.23,-350.19"/>
</a>
</g>
</g>
<!-- Node56 -->
<g id="Node000056" class="node">
<title>Node56</title>
<g id="a_Node000056"><a xlink:href="object__numbering_8h.html" target="_top" xlink:title="Object Numbering.">
<polygon fill="white" stroke="#666666" points="985,-294 872,-294 872,-275 985,-275 985,-294"/>
<text text-anchor="middle" x="928.5" y="-282" font-family="Helvetica,sans-Serif" font-size="10.00">object_numbering.h</text>
</a>
</g>
</g>
<!-- Node54&#45;&gt;Node56 -->
<g id="edge67_Node000054_Node000056" class="edge">
<title>Node54&#45;&gt;Node56</title>
<g id="a_edge67_Node000054_Node000056"><a xlink:title=" ">
<path fill="none" stroke="#63b8ff" d="M435.9,-446.37C494.55,-442.48 603.21,-431.89 691.5,-404 713.48,-397.06 846.29,-328.36 902.93,-298.86"/>
<polygon fill="#63b8ff" stroke="#63b8ff" points="904.71,-301.87 911.96,-294.15 901.48,-295.67 904.71,-301.87"/>
</a>
</g>
</g>
<!-- Node55&#45;&gt;Node18 -->
<g id="edge66_Node000055_Node000018" class="edge">
<title>Node55&#45;&gt;Node18</title>
<g id="a_edge66_Node000055_Node000018"><a xlink:title=" ">
<path fill="none" stroke="#63b8ff" d="M295.35,-329.73C290.18,-320.81 282.05,-306.58 275.5,-294 257.21,-258.88 237.54,-216.96 226.76,-193.57"/>
<polygon fill="#63b8ff" stroke="#63b8ff" points="229.82,-191.84 222.46,-184.22 223.45,-194.77 229.82,-191.84"/>
</a>
</g>
</g>
<!-- Node56&#45;&gt;Node10 -->
<g id="edge68_Node000056_Node000010" class="edge">
<title>Node56&#45;&gt;Node10</title>
<g id="a_edge68_Node000056_Node000010"><a xlink:title=" ">
<path fill="none" stroke="#63b8ff" d="M902.25,-274.94C842.6,-255.47 696.91,-207.94 630.94,-186.41"/>
<polygon fill="#63b8ff" stroke="#63b8ff" points="631.65,-182.96 621.06,-183.19 629.48,-189.62 631.65,-182.96"/>
</a>
</g>
</g>
<!-- Node57 -->
<g id="Node000057" class="node">
<title>Node57</title>
<g id="a_Node000057"><a xlink:href="numbering_8h.html" target="_top" xlink:title=" ">
<polygon fill="white" stroke="#666666" points="1007,-239 910,-239 910,-220 1007,-220 1007,-239"/>
<text text-anchor="middle" x="958.5" y="-227" font-family="Helvetica,sans-Serif" font-size="10.00">util/numbering.h</text>
</a>
</g>
</g>
<!-- Node56&#45;&gt;Node57 -->
<g id="edge69_Node000056_Node000057" class="edge">
<title>Node56&#45;&gt;Node57</title>
<g id="a_edge69_Node000056_Node000057"><a xlink:title=" ">
<path fill="none" stroke="#63b8ff" d="M933.45,-274.75C937.56,-267.49 943.53,-256.95 948.6,-247.98"/>
<polygon fill="#63b8ff" stroke="#63b8ff" points="951.76,-249.52 953.64,-239.09 945.67,-246.07 951.76,-249.52"/>
</a>
</g>
</g>
<!-- Node57&#45;&gt;Node36 -->
<g id="edge71_Node000057_Node000036" class="edge">
<title>Node57&#45;&gt;Node36</title>
<g id="a_edge71_Node000057_Node000036"><a xlink:title=" ">
<path fill="none" stroke="#63b8ff" d="M959.57,-219.67C962.42,-193.88 969.05,-116.58 954.5,-55 952.32,-45.76 948.08,-36.16 943.97,-28.25"/>
<polygon fill="#63b8ff" stroke="#63b8ff" points="946.92,-26.35 939.01,-19.3 940.79,-29.74 946.92,-26.35"/>
</a>
</g>
</g>
<!-- Node57&#45;&gt;Node18 -->
<g id="edge70_Node000057_Node000018" class="edge">
<title>Node57&#45;&gt;Node18</title>
<g id="a_edge70_Node000057_Node000018"><a xlink:title=" ">
<path fill="none" stroke="#63b8ff" d="M909.75,-225.8C800.56,-219.63 528.09,-203.49 300.5,-184 288.48,-182.97 275.48,-181.7 263.46,-180.45"/>
<polygon fill="#63b8ff" stroke="#63b8ff" points="263.5,-176.94 253.19,-179.37 262.77,-183.9 263.5,-176.94"/>
</a>
</g>
</g>
<!-- Node57&#45;&gt;Node28 -->
<g id="edge72_Node000057_Node000028" class="edge">
<title>Node57&#45;&gt;Node28</title>
<g id="a_edge72_Node000057_Node000028"><a xlink:title=" ">
<path fill="none" stroke="#63b8ff" d="M927.97,-219.98C895.8,-211.01 844.94,-196.82 809.33,-186.89"/>
<polygon fill="#63b8ff" stroke="#63b8ff" points="809.84,-183.4 799.27,-184.08 807.96,-190.14 809.84,-183.4"/>
</a>
</g>
</g>
<!-- Node17 -->
<g id="Node000017" class="node">
<title>Node17</title>
<g id="a_Node000017"><a xlink:title=" ">
<polygon fill="#e0e0e0" stroke="#999999" points="1049,-184 1002,-184 1002,-165 1049,-165 1049,-184"/>
<text text-anchor="middle" x="1025.5" y="-172" font-family="Helvetica,sans-Serif" font-size="10.00">vector</text>
</a>
</g>
</g>
<!-- Node57&#45;&gt;Node17 -->
<g id="edge73_Node000057_Node000017" class="edge">
<title>Node57&#45;&gt;Node17</title>
<g id="a_edge73_Node000057_Node000017"><a xlink:title=" ">
<path fill="none" stroke="#63b8ff" d="M969.26,-219.98C979.27,-212.07 994.39,-200.11 1006.43,-190.58"/>
<polygon fill="#63b8ff" stroke="#63b8ff" points="1008.87,-193.12 1014.54,-184.17 1004.53,-187.63 1008.87,-193.12"/>
</a>
</g>
</g>
</g>
</svg>
